<svg id="a3f5d662-fe29-4953-9431-8fdbda8d35a2" data-name="Layer 1" xmlns="http://www.w3.org/2000/svg" xmlns:xlink="http://www.w3.org/1999/xlink" width="1600" height="900" viewBox="0 0 1600 900">
  <defs>
    <style>
      .aa6677d4-17f2-4b23-81a7-2339a389f109 {
        fill: none;
      }

      .b5a6838a-e279-415a-848b-cc79985fcf04 {
        clip-path: url(#b0866fbf-336a-4682-82cc-e02753e872a0);
      }

      .b8f0eb3b-eda0-4540-92b0-506e74132cc1 {
        fill: #aefbff;
      }

      .e7de008f-c84b-4a41-b565-6b2419e1f516 {
        clip-path: url(#be5515c1-e6df-48ed-a596-0f817d093c4a);
      }
    </style>
    <clipPath id="b0866fbf-336a-4682-82cc-e02753e872a0">
      <rect class="aa6677d4-17f2-4b23-81a7-2339a389f109" width="1600" height="900" transform="translate(1600 900) rotate(-180)"/>
    </clipPath>
    <clipPath id="be5515c1-e6df-48ed-a596-0f817d093c4a">
      <rect class="aa6677d4-17f2-4b23-81a7-2339a389f109" x="1620" width="1600" height="900" transform="translate(4840 900) rotate(-180)"/>
    </clipPath>
  </defs>
  <g class="b5a6838a-e279-415a-848b-cc79985fcf04">
    <g>
      <path class="b8f0eb3b-eda0-4540-92b0-506e74132cc1" d="M1525.75,91.33c3.41,2.76,6.81-.87,8.06-2.56,58-78.58,71.45-91.6,68.77-94.19-2.44-2.35-14.82,14.36-75.73,88.5C1525.53,84.69,1522.54,88.74,1525.75,91.33Z"/>
      <path class="b8f0eb3b-eda0-4540-92b0-506e74132cc1" d="M1401.34,218.46c4.14,3.7,8.08-1,9.53-3.13,67-101.16,82.64-117.83,79.38-121.28-3-3.13-17.26,18.37-87.81,113.67C1400.91,209.79,1397.46,215,1401.34,218.46Z"/>
      <path class="b8f0eb3b-eda0-4540-92b0-506e74132cc1" d="M874.3,326.46c4.14,3.7,8.08-.95,9.53-3.13,67-101.16,82.64-117.83,79.38-121.28-3-3.13-17.26,18.37-87.81,113.67C873.87,317.79,870.42,323,874.3,326.46Z"/>
      <path class="b8f0eb3b-eda0-4540-92b0-506e74132cc1" d="M1157.26,566.22c4.14,3.7,8.08-1,9.53-3.13,67-101.16,82.64-117.83,79.38-121.28-3-3.13-17.26,18.37-87.81,113.67C1156.83,557.55,1153.38,562.75,1157.26,566.22Z"/>
      <path class="b8f0eb3b-eda0-4540-92b0-506e74132cc1" d="M1297.53,363.68c3.2,2.9,6.25-.72,7.37-2.43,51.67-79,63.75-92.05,61.22-94.75-2.3-2.46-13.33,14.34-67.77,88.78C1297.17,356.89,1294.51,361,1297.53,363.68Z"/>
      <path class="b8f0eb3b-eda0-4540-92b0-506e74132cc1" d="M1217.31,190.94c2.63,2.37,5.12-.59,6-2,42.22-64.57,52.08-75.2,50-77.41-1.87-2-10.88,11.72-55.36,72.54C1217,185.4,1214.85,188.72,1217.31,190.94Z"/>
      <path class="b8f0eb3b-eda0-4540-92b0-506e74132cc1" d="M1125.15,180.86c2.63,2.37,5.12-.59,6-2,42.22-64.57,52.08-75.2,50-77.41-1.87-2-10.88,11.72-55.36,72.54C1124.87,175.32,1122.69,178.64,1125.15,180.86Z"/>
      <path class="b8f0eb3b-eda0-4540-92b0-506e74132cc1" d="M1108.74,328.87c2.3,2.18,4.44-.5,5.22-1.76,36.11-58.51,44.59-68.12,42.77-70.16-1.66-1.85-9.36,10.59-47.46,65.66C1108.44,323.8,1106.58,326.81,1108.74,328.87Z"/>
      <path class="b8f0eb3b-eda0-4540-92b0-506e74132cc1" d="M1035.92,192.46c2.3,2.19,4.44-.49,5.22-1.76,36.1-58.51,44.58-68.12,42.76-70.15-1.65-1.85-9.36,10.58-47.46,65.65C1035.61,187.39,1033.75,190.41,1035.92,192.46Z"/>
      <path class="b8f0eb3b-eda0-4540-92b0-506e74132cc1" d="M1003.72,298.73c2.48,1.88,5-.66,5.93-1.84,43.19-54.9,53.14-64,51.19-65.79-1.76-1.61-11,10.06-56.24,61.92C1003.62,294.14,1001.4,297,1003.72,298.73Z"/>
      <path class="b8f0eb3b-eda0-4540-92b0-506e74132cc1" d="M815.25,221.6c3.82,3.23,7.55-.93,8.93-2.89,63.59-90.43,78.36-105.37,75.35-108.4-2.73-2.75-16.29,16.47-83.15,101.75C814.93,213.9,811.66,218.56,815.25,221.6Z"/>
      <path class="b8f0eb3b-eda0-4540-92b0-506e74132cc1" d="M794.75,340.73c1.71,1.62,3.3-.37,3.88-1.31,26.89-43.55,33.2-50.7,31.85-52.21s-7,7.88-35.34,48.86C794.52,337,793.14,339.2,794.75,340.73Z"/>
      <path class="b8f0eb3b-eda0-4540-92b0-506e74132cc1" d="M682.64,462.27c3.25,3,6.3-.72,7.42-2.48,51.65-81.34,63.75-94.71,61.18-97.52-2.33-2.55-13.35,14.74-67.81,91.32C682.25,455.25,679.59,459.44,682.64,462.27Z"/>
      <path class="b8f0eb3b-eda0-4540-92b0-506e74132cc1" d="M704.22,546.31c2.63,2.06,5.28-.69,6.26-2C755.8,484.85,766.27,475,764.2,473c-1.87-1.76-11.54,10.89-59.09,67.05C704.08,541.31,701.75,544.37,704.22,546.31Z"/>
      <path class="b8f0eb3b-eda0-4540-92b0-506e74132cc1" d="M1392.38,398.9c1.95,1.87,3.77-.42,4.43-1.49,30.65-49.85,37.85-58,36.3-59.77-1.4-1.58-7.94,9-40.29,55.93C1392.12,394.59,1390.54,397.15,1392.38,398.9Z"/>
      <path class="b8f0eb3b-eda0-4540-92b0-506e74132cc1" d="M1324.7,63.38c2,1.87,3.77-.42,4.43-1.49,30.65-49.85,37.85-58,36.3-59.77-1.4-1.58-7.94,9-40.29,55.93C1324.44,59.07,1322.86,61.63,1324.7,63.38Z"/>
      <path class="b8f0eb3b-eda0-4540-92b0-506e74132cc1" d="M1189.34,69.14c2,1.87,3.77-.42,4.43-1.49,30.65-49.85,37.85-58,36.3-59.77-1.4-1.58-7.94,9-40.29,55.93C1189.08,64.83,1187.5,67.39,1189.34,69.14Z"/>
      <path class="b8f0eb3b-eda0-4540-92b0-506e74132cc1" d="M1094.3,87.86c2,1.87,3.77-.42,4.43-1.49,30.65-49.85,37.85-58,36.3-59.77-1.4-1.58-7.94,9-40.29,55.93C1094,83.55,1092.46,86.11,1094.3,87.86Z"/>
      <path class="b8f0eb3b-eda0-4540-92b0-506e74132cc1" d="M1009.34,67.7c1.95,1.87,3.77-.42,4.43-1.49,30.65-49.85,37.85-58,36.3-59.77-1.4-1.58-7.94,9-40.29,55.93C1009.08,63.39,1007.5,66,1009.34,67.7Z"/>
      <path class="b8f0eb3b-eda0-4540-92b0-506e74132cc1" d="M779.53,54.74c2.64,3.94,6.56.69,8.08-.91,70.4-74.15,85.64-85.51,83.65-89.07-1.8-3.23-16.81,12.52-89,81C780.69,47.23,777.06,51.05,779.53,54.74Z"/>
      <path class="b8f0eb3b-eda0-4540-92b0-506e74132cc1" d="M701.23,186.79c2.33,2.9,4.95,0,5.94-1.42,45.64-65,56-75.38,54.14-78-1.64-2.42-11.37,11.4-58.88,72.08C701.4,180.72,699.05,184.07,701.23,186.79Z"/>
      <path class="b8f0eb3b-eda0-4540-92b0-506e74132cc1" d="M513.31,158.71c2.33,2.9,5,0,5.94-1.42,45.64-65,56-75.38,54.14-78-1.64-2.42-11.37,11.4-58.88,72.08C513.48,152.64,511.13,156,513.31,158.71Z"/>
      <path class="b8f0eb3b-eda0-4540-92b0-506e74132cc1" d="M418.27,176c2.33,2.9,5,0,5.94-1.42,45.64-65,56-75.38,54.14-78-1.64-2.42-11.37,11.4-58.88,72.08C418.44,169.92,416.09,173.27,418.27,176Z"/>
      <path class="b8f0eb3b-eda0-4540-92b0-506e74132cc1" d="M437.71,50.71c2.33,2.9,5,0,5.94-1.42,45.64-65,56-75.38,54.14-78-1.64-2.42-11.37,11.4-58.88,72.08C437.88,44.64,435.53,48,437.71,50.71Z"/>
      <path class="b8f0eb3b-eda0-4540-92b0-506e74132cc1" d="M323.23,165.19c2.33,2.9,4.95,0,5.94-1.42,45.64-65,55.95-75.38,54.14-78-1.64-2.42-11.37,11.4-58.88,72.08C323.4,159.12,321.05,162.47,323.23,165.19Z"/>
      <path class="b8f0eb3b-eda0-4540-92b0-506e74132cc1" d="M321.07,48.55c2.33,2.9,4.95,0,5.94-1.42,45.64-65,55.95-75.38,54.14-78-1.64-2.42-11.37,11.4-58.88,72.08C321.24,42.48,318.89,45.83,321.07,48.55Z"/>
      <path class="b8f0eb3b-eda0-4540-92b0-506e74132cc1" d="M665.23,267.43c2.33,2.9,4.95,0,5.94-1.42,45.64-65,56-75.38,54.14-78-1.64-2.42-11.37,11.4-58.88,72.08C665.4,261.36,663.05,264.71,665.23,267.43Z"/>
      <path class="b8f0eb3b-eda0-4540-92b0-506e74132cc1" d="M688.59,306.74c3,3.43,6.49-.09,7.81-1.78,60.75-78.25,74.41-90.74,72.08-93.89-2.12-2.86-15.08,13.77-78.22,86.84C688.89,299.49,685.77,303.52,688.59,306.74Z"/>
      <path class="b8f0eb3b-eda0-4540-92b0-506e74132cc1" d="M597.54,376.56c1.6,2.19,3.35,0,4-1,30.32-48.37,37.21-56.05,36-58.06-1.13-1.82-7.59,8.46-39.21,53.55C597.61,372,596,374.5,597.54,376.56Z"/>
      <path class="b8f0eb3b-eda0-4540-92b0-506e74132cc1" d="M430.5,283c1.6,2.19,3.35,0,4-1,30.32-48.37,37.21-56.05,36-58.06-1.13-1.82-7.59,8.46-39.21,53.55C430.57,278.41,429,280.9,430.5,283Z"/>
      <path class="b8f0eb3b-eda0-4540-92b0-506e74132cc1" d="M-10.14,328.32c1.6,2.19,3.35,0,4-1,30.32-48.37,37.21-56.05,36-58.06-1.13-1.82-7.59,8.46-39.21,53.55C-10.07,323.77-11.64,326.26-10.14,328.32Z"/>
      <path class="b8f0eb3b-eda0-4540-92b0-506e74132cc1" d="M230.51,174c2.28,2.69,4.89,0,5.88-1.37,45.55-61,55.81-70.72,54-73.2-1.61-2.24-11.32,10.72-58.69,67.67C230.72,168.28,228.37,171.42,230.51,174Z"/>
      <path class="b8f0eb3b-eda0-4540-92b0-506e74132cc1" d="M165.54,141.26c1.5,1.91,3.18,0,3.81-.92,29.26-42.6,35.88-49.38,34.71-51.13-1.05-1.58-7.3,7.47-37.76,47.21C165.64,137.28,164.13,139.47,165.54,141.26Z"/>
      <path class="b8f0eb3b-eda0-4540-92b0-506e74132cc1" d="M139.62,85.1c1.5,1.91,3.18,0,3.81-.92,29.26-42.6,35.88-49.38,34.71-51.13-1-1.58-7.3,7.47-37.76,47.21C139.72,81.12,138.21,83.31,139.62,85.1Z"/>
      <path class="b8f0eb3b-eda0-4540-92b0-506e74132cc1" d="M-2.94,134.78c1.5,1.91,3.18,0,3.81-.92,29.26-42.6,35.88-49.38,34.71-51.13-1-1.58-7.3,7.47-37.76,47.21C-2.84,130.8-4.35,133-2.94,134.78Z"/>
      <path class="b8f0eb3b-eda0-4540-92b0-506e74132cc1" d="M504.06,335.8c2.22,3,4.65,0,5.57-1.41,42.23-66.8,51.82-77.4,50.09-80.17-1.57-2.52-10.58,11.68-54.61,74C504.16,329.52,502,333,504.06,335.8Z"/>
      <path class="b8f0eb3b-eda0-4540-92b0-506e74132cc1" d="M298.86,316.36c2.22,3,4.65,0,5.57-1.41,42.23-66.8,51.82-77.4,50.09-80.17-1.57-2.52-10.58,11.68-54.61,74C299,310.08,296.78,313.52,298.86,316.36Z"/>
      <path class="b8f0eb3b-eda0-4540-92b0-506e74132cc1" d="M605,196.87c3.06,4.36,6.37.08,7.61-2C670,99.26,683,84.12,680.65,80.12c-2.16-3.62-14.4,16.7-74.27,105.8C605.09,187.85,602.13,192.77,605,196.87Z"/>
      <path class="b8f0eb3b-eda0-4540-92b0-506e74132cc1" d="M1228.22,309.62c2,1.87,3.77-.42,4.43-1.49,30.65-49.85,37.85-58,36.3-59.77-1.4-1.58-7.94,9-40.29,55.93C1228,305.31,1226.38,307.87,1228.22,309.62Z"/>
      <path class="b8f0eb3b-eda0-4540-92b0-506e74132cc1" d="M1367.82,161.07c1.2,1,2.37-.29,2.8-.91,19.94-28.62,24.57-33.34,23.63-34.3s-5.12,5.21-26.08,32.19C1367.71,158.64,1366.69,160.11,1367.82,161.07Z"/>
      <path class="b8f0eb3b-eda0-4540-92b0-506e74132cc1" d="M1305.9,274.83c1.2,1,2.37-.29,2.8-.91,19.94-28.62,24.57-33.34,23.63-34.3s-5.12,5.21-26.08,32.19C1305.79,272.4,1304.77,273.87,1305.9,274.83Z"/>
      <path class="b8f0eb3b-eda0-4540-92b0-506e74132cc1" d="M1244,224.43c1.2,1,2.37-.29,2.8-.91,19.94-28.62,24.57-33.34,23.63-34.3s-5.12,5.21-26.08,32.19C1243.87,222,1242.85,223.47,1244,224.43Z"/>
      <path class="b8f0eb3b-eda0-4540-92b0-506e74132cc1" d="M1146.13,348.18c1.5,1.13,3-.41,3.62-1.12,26.46-33.16,32.55-38.68,31.36-39.75s-6.71,6.09-34.43,37.42C1146.07,345.41,1144.71,347.12,1146.13,348.18Z"/>
      <path class="b8f0eb3b-eda0-4540-92b0-506e74132cc1" d="M1446.38,409.7c1.95,1.87,3.77-.42,4.43-1.49,30.65-49.85,37.85-58,36.3-59.77-1.4-1.58-7.94,9-40.29,55.93C1446.12,405.39,1444.54,408,1446.38,409.7Z"/>
      <path class="b8f0eb3b-eda0-4540-92b0-506e74132cc1" d="M1435.58,489.62c2,1.87,3.77-.42,4.43-1.49,30.65-49.85,37.85-58,36.3-59.77-1.4-1.58-7.94,9-40.29,55.93C1435.32,485.31,1433.74,487.87,1435.58,489.62Z"/>
      <path class="b8f0eb3b-eda0-4540-92b0-506e74132cc1" d="M1446.38,550.1c1.95,1.87,3.77-.42,4.43-1.49,30.65-49.85,37.85-58,36.3-59.77-1.4-1.58-7.94,9-40.29,55.93C1446.12,545.79,1444.54,548.35,1446.38,550.1Z"/>
      <path class="b8f0eb3b-eda0-4540-92b0-506e74132cc1" d="M1385.9,671.06c1.95,1.87,3.77-.42,4.43-1.49,30.65-49.85,37.85-58,36.3-59.77-1.4-1.58-7.94,9-40.29,55.93C1385.64,666.75,1384.06,669.31,1385.9,671.06Z"/>
      <path class="b8f0eb3b-eda0-4540-92b0-506e74132cc1" d="M1465.74,615.13c1.49,1.52,2.84-.29,3.32-1.15,22.56-39.55,27.89-46,26.71-47.43s-5.89,7.13-29.75,44.32C1465.5,611.68,1464.34,613.71,1465.74,615.13Z"/>
      <path class="b8f0eb3b-eda0-4540-92b0-506e74132cc1" d="M1330.67,733.08c1,1.16,1.9-.17,2.21-.8,14.45-29.27,17.92-34,17.1-35.1s-3.83,5.25-19.2,32.71C1330.44,730.49,1329.7,732,1330.67,733.08Z"/>
      <path class="b8f0eb3b-eda0-4540-92b0-506e74132cc1" d="M1249.75,737.22c1.46,1.42,2.8-.31,3.29-1.13,22.57-37.82,27.88-44,26.73-45.35s-5.87,6.84-29.72,42.42C1249.53,733.93,1248.37,735.87,1249.75,737.22Z"/>
      <path class="b8f0eb3b-eda0-4540-92b0-506e74132cc1" d="M1565.1,798.73c1.49,1.52,2.84-.29,3.32-1.15,22.56-39.55,27.89-46,26.71-47.43s-5.89,7.13-29.75,44.32C1564.86,795.28,1563.7,797.31,1565.1,798.73Z"/>
      <path class="b8f0eb3b-eda0-4540-92b0-506e74132cc1" d="M1472.3,800.6c2.06,2,4-.43,4.64-1.57,31.91-52.62,39.42-61.25,37.79-63.09-1.47-1.67-8.28,9.52-42,59C1472,796,1470.38,798.74,1472.3,800.6Z"/>
      <path class="b8f0eb3b-eda0-4540-92b0-506e74132cc1" d="M1301.66,870.8c2.06,2,3.95-.43,4.64-1.57,31.91-52.62,39.42-61.25,37.79-63.09-1.47-1.67-8.28,9.52-42,59C1301.38,866.23,1299.74,868.94,1301.66,870.8Z"/>
      <path class="b8f0eb3b-eda0-4540-92b0-506e74132cc1" d="M1113.74,759.56c2.06,2,4-.43,4.64-1.57,31.91-52.62,39.42-61.25,37.79-63.09-1.47-1.67-8.28,9.52-42,59C1113.46,755,1111.82,757.7,1113.74,759.56Z"/>
      <path class="b8f0eb3b-eda0-4540-92b0-506e74132cc1" d="M1233.59,859.68c2.73,2.29,4.9-.86,5.67-2.34,35.64-68.11,44.33-79.47,42.15-81.62-2-2-9.58,12.52-47.71,76.91C1232.87,854,1231,857.53,1233.59,859.68Z"/>
      <path class="b8f0eb3b-eda0-4540-92b0-506e74132cc1" d="M894.93,811.51c2.56,2.47,4.94-.53,5.81-1.94C941,744.06,950.42,733.32,948.39,731c-1.83-2.08-10.42,11.84-52.87,73.47C894.6,805.82,892.53,809.19,894.93,811.51Z"/>
      <path class="b8f0eb3b-eda0-4540-92b0-506e74132cc1" d="M806.33,814.31c2.06,1.91,4-.45,4.74-1.56,33.27-51.41,41-59.86,39.41-61.63s-8.57,9.31-43.62,57.7C806.1,809.87,804.39,812.52,806.33,814.31Z"/>
      <path class="b8f0eb3b-eda0-4540-92b0-506e74132cc1" d="M717.05,879.11c2.06,1.91,4-.45,4.74-1.56,33.27-51.41,41-59.86,39.41-61.63-1.48-1.62-8.57,9.31-43.62,57.7C716.82,874.67,715.11,877.32,717.05,879.11Z"/>
      <path class="b8f0eb3b-eda0-4540-92b0-506e74132cc1" d="M672.41,807.11c2.06,1.91,4-.45,4.74-1.56,33.27-51.41,41-59.86,39.41-61.63-1.48-1.62-8.57,9.31-43.62,57.7C672.18,802.67,670.47,805.32,672.41,807.11Z"/>
      <path class="b8f0eb3b-eda0-4540-92b0-506e74132cc1" d="M761.69,756.71c2.06,1.91,4-.45,4.74-1.56,33.27-51.41,41-59.86,39.41-61.63s-8.57,9.31-43.62,57.7C761.46,752.27,759.75,754.92,761.69,756.71Z"/>
      <path class="b8f0eb3b-eda0-4540-92b0-506e74132cc1" d="M724.17,695c1.65,1.6,3.17-.33,3.72-1.25,25.71-42.26,31.74-49.18,30.45-50.67s-6.67,7.64-33.8,47.39C724,691.32,722.63,693.49,724.17,695Z"/>
      <path class="b8f0eb3b-eda0-4540-92b0-506e74132cc1" d="M255.59,748c1.64,1.59,3.16-.34,3.72-1.25,25.7-42.26,31.74-49.19,30.44-50.67s-6.66,7.63-33.79,47.38C255.37,744.34,254.05,746.52,255.59,748Z"/>
      <path class="b8f0eb3b-eda0-4540-92b0-506e74132cc1" d="M670.89,744c1.65,1.6,3.17-.33,3.72-1.25,25.71-42.26,31.74-49.18,30.45-50.67s-6.67,7.64-33.8,47.39C670.68,740.28,669.35,742.45,670.89,744Z"/>
      <path class="b8f0eb3b-eda0-4540-92b0-506e74132cc1" d="M783.14,679.41c1.14,1.2,2.15-.21,2.52-.88,17.07-30.81,21.12-35.84,20.21-36.95s-4.46,5.54-22.54,34.49C782.94,676.7,782.06,678.29,783.14,679.41Z"/>
      <path class="b8f0eb3b-eda0-4540-92b0-506e74132cc1" d="M529.7,718.29c1.14,1.2,2.15-.21,2.52-.88,17.07-30.81,21.12-35.84,20.21-36.95S548,686,529.89,715C529.5,715.58,528.62,717.17,529.7,718.29Z"/>
      <path class="b8f0eb3b-eda0-4540-92b0-506e74132cc1" d="M574.53,672.9c2.52,2.4,4.87-.53,5.72-1.91,39.7-64,49-74.53,47-76.77-1.8-2-10.27,11.57-52.14,71.82C574.22,667.34,572.17,670.64,574.53,672.9Z"/>
      <path class="b8f0eb3b-eda0-4540-92b0-506e74132cc1" d="M502.53,511.62c2.52,2.4,4.87-.53,5.72-1.91,39.7-64,49-74.53,47-76.77-1.8-2-10.27,11.57-52.14,71.82C502.22,506.06,500.17,509.36,502.53,511.62Z"/>
      <path class="b8f0eb3b-eda0-4540-92b0-506e74132cc1" d="M6.63,215.31c4,3.85,7.76-.84,9.13-3.05C79.14,110,94,93.26,90.84,89.68,88,86.43,74.43,108.16,7.57,204.36,6.12,206.44,2.86,211.7,6.63,215.31Z"/>
      <path class="b8f0eb3b-eda0-4540-92b0-506e74132cc1" d="M28.23,64.11c4,3.85,7.76-.84,9.13-3,63.38-102.23,78.25-119,75.08-122.58C109.56-64.77,96-43,29.17,53.16,27.72,55.24,24.46,60.5,28.23,64.11Z"/>
      <path class="b8f0eb3b-eda0-4540-92b0-506e74132cc1" d="M507.94,638.49c2.66,2.24,4.82-.83,5.59-2.27,35.53-66.43,44.15-77.5,42-79.61-1.92-1.92-9.51,12.21-47.46,75C507.27,633,505.44,636.39,507.94,638.49Z"/>
      <path class="b8f0eb3b-eda0-4540-92b0-506e74132cc1" d="M408.94,659.74c3.16,2.43,5.87-1.08,6.85-2.71,45.07-75.36,55.87-88,53.35-90.3-2.29-2.09-11.91,13.93-59.82,85.3C408.28,653.57,406,657.45,408.94,659.74Z"/>
      <path class="b8f0eb3b-eda0-4540-92b0-506e74132cc1" d="M-23.06,739.66c3.16,2.43,5.87-1.08,6.85-2.71,45.07-75.36,55.87-88,53.35-90.3-2.29-2.09-11.91,13.93-59.82,85.3C-23.72,733.49-26,737.37-23.06,739.66Z"/>
      <path class="b8f0eb3b-eda0-4540-92b0-506e74132cc1" d="M90.43,681.37c1.63,1.25,3-.55,3.53-1.39,23.19-38.78,28.74-45.28,27.44-46.46s-6.12,7.17-30.77,43.88C90.1,678.2,88.9,680.19,90.43,681.37Z"/>
      <path class="b8f0eb3b-eda0-4540-92b0-506e74132cc1" d="M50.39,636.08c2.14,1.64,4-.73,4.64-1.83,30.52-51,37.83-59.6,36.13-61.16-1.55-1.41-8.07,9.44-40.51,57.77C50,631.91,48.37,634.53,50.39,636.08Z"/>
      <path class="b8f0eb3b-eda0-4540-92b0-506e74132cc1" d="M13.67,584.24c2.14,1.64,4-.73,4.64-1.83,30.52-51,37.83-59.6,36.13-61.16-1.55-1.41-8.07,9.44-40.51,57.77C13.23,580.07,11.65,582.69,13.67,584.24Z"/>
      <path class="b8f0eb3b-eda0-4540-92b0-506e74132cc1" d="M145.42,845.5c3.16,2.43,5.87-1.08,6.85-2.71,45.07-75.36,55.87-88,53.35-90.3-2.29-2.09-11.91,13.93-59.82,85.3C144.76,839.33,142.44,843.21,145.42,845.5Z"/>
      <path class="b8f0eb3b-eda0-4540-92b0-506e74132cc1" d="M108.61,779.07c2.23,1.61,4.18-.78,4.89-1.89,32.72-51.37,40.5-60,38.73-61.54-1.6-1.39-8.58,9.53-43.27,58.22C108.21,774.92,106.53,777.56,108.61,779.07Z"/>
      <path class="b8f0eb3b-eda0-4540-92b0-506e74132cc1" d="M7.09,798.51c2.23,1.61,4.18-.78,4.89-1.89,32.72-51.37,40.5-60,38.73-61.54-1.6-1.39-8.58,9.53-43.27,58.22C6.69,794.36,5,797,7.09,798.51Z"/>
      <path class="b8f0eb3b-eda0-4540-92b0-506e74132cc1" d="M243.28,610.28c2.71,2.12,5-.9,5.83-2.31,38.09-65.1,47.23-76,45.08-78-2-1.82-10.09,12-50.62,73.64C242.69,604.94,240.73,608.29,243.28,610.28Z"/>
      <path class="b8f0eb3b-eda0-4540-92b0-506e74132cc1" d="M156.93,569.45c2.56,1.68,4.93-1,5.79-2.18,39.86-56.43,49.24-66,47.21-67.6-1.83-1.45-10.34,10.55-52.44,64.14C156.58,565,154.52,567.88,156.93,569.45Z"/>
      <path class="b8f0eb3b-eda0-4540-92b0-506e74132cc1" d="M366.58,544.73c4.21,3.18,7.85-1.45,9.16-3.59,60.64-99.34,75.12-116,71.77-119-3-2.72-16,18.4-80.37,112.49C365.74,536.64,362.62,541.75,366.58,544.73Z"/>
      <path class="b8f0eb3b-eda0-4540-92b0-506e74132cc1" d="M450.56,718c1.88,1.43,3.49-.64,4.08-1.61,26.87-44.52,33.29-52,31.8-53.35s-7.09,8.24-35.64,50.41C450.18,714.38,448.8,716.67,450.56,718Z"/>
      <path class="b8f0eb3b-eda0-4540-92b0-506e74132cc1" d="M800.57,751c2.06,1.91,4-.45,4.74-1.56,33.27-51.41,41-59.86,39.41-61.63s-8.57,9.31-43.62,57.7C800.34,746.51,798.63,749.16,800.57,751Z"/>
      <path class="b8f0eb3b-eda0-4540-92b0-506e74132cc1" d="M881.21,709.19c2.06,1.91,4-.45,4.74-1.56,33.27-51.41,41-59.86,39.41-61.63s-8.57,9.31-43.62,57.7C881,704.75,879.27,707.4,881.21,709.19Z"/>
      <path class="b8f0eb3b-eda0-4540-92b0-506e74132cc1" d="M843.89,643.84c1.78,2.18,4.05.12,4.92-.87,40.22-46.17,49.12-53.43,47.76-55.42-1.24-1.81-9.82,8-51.37,50.93C844.3,639.42,842.23,641.79,843.89,643.84Z"/>
      <path class="b8f0eb3b-eda0-4540-92b0-506e74132cc1" d="M951.9,593.61c2.58,2.68,5.22-.35,6.19-1.8,45.12-66.85,55.51-77.69,53.48-80.18-1.84-2.25-11.46,12-58.75,74.66C951.8,587.64,949.47,591.09,951.9,593.61Z"/>
      <path class="b8f0eb3b-eda0-4540-92b0-506e74132cc1" d="M1113.18,479.85c2.58,2.68,5.22-.35,6.19-1.8,45.12-66.85,55.51-77.69,53.48-80.18-1.84-2.25-11.46,11.95-58.75,74.66C1113.08,473.88,1110.75,477.33,1113.18,479.85Z"/>
      <path class="b8f0eb3b-eda0-4540-92b0-506e74132cc1" d="M961.85,160.7c1.75,1.75,3.56-.25,4.23-1.2,31.11-43.88,38.25-51,36.88-52.62-1.25-1.46-7.88,7.86-40.44,49C961.81,156.81,960.21,159.07,961.85,160.7Z"/>
      <path class="b8f0eb3b-eda0-4540-92b0-506e74132cc1" d="M1172.08,854.16c3,2.44,5.47-1,6.34-2.6,40.49-74.08,50.31-86.47,47.9-88.78-2.18-2.09-10.83,13.66-54,83.74C1171.33,848,1169.25,851.86,1172.08,854.16Z"/>
      <path class="b8f0eb3b-eda0-4540-92b0-506e74132cc1" d="M950.68,862.8c3,2.44,5.47-1,6.34-2.6,40.49-74.08,50.31-86.47,47.9-88.78-2.18-2.09-10.83,13.66-54,83.74C949.93,856.68,947.85,860.5,950.68,862.8Z"/>
      <path class="b8f0eb3b-eda0-4540-92b0-506e74132cc1" d="M1511.18,887c2.06,2,4-.43,4.64-1.57,31.91-52.62,39.42-61.25,37.79-63.09-1.47-1.67-8.28,9.52-42,59C1510.9,882.43,1509.26,885.14,1511.18,887Z"/>
      <path class="b8f0eb3b-eda0-4540-92b0-506e74132cc1" d="M1383.66,604.33c1.49,1.52,2.84-.29,3.32-1.15,22.56-39.55,27.89-46,26.71-47.43s-5.89,7.13-29.75,44.32C1383.42,600.88,1382.26,602.91,1383.66,604.33Z"/>
      <path class="b8f0eb3b-eda0-4540-92b0-506e74132cc1" d="M1234.62,551.41c1.49,1.52,2.84-.29,3.32-1.15,22.56-39.55,27.89-46,26.71-47.43s-5.89,7.13-29.75,44.32C1234.38,548,1233.22,550,1234.62,551.41Z"/>
      <path class="b8f0eb3b-eda0-4540-92b0-506e74132cc1" d="M934.39,343.92c1.26,1.08,2.5-.3,3-.95,21-30.05,25.9-35,24.91-36s-5.39,5.48-27.49,33.81C934.28,341.36,933.2,342.91,934.39,343.92Z"/>
      <path class="b8f0eb3b-eda0-4540-92b0-506e74132cc1" d="M888.31,234.48c1.26,1.08,2.5-.3,3-.95,21-30.05,25.9-35,24.91-36s-5.39,5.48-27.49,33.81C888.2,231.92,887.12,233.47,888.31,234.48Z"/>
      <path class="b8f0eb3b-eda0-4540-92b0-506e74132cc1" d="M797.59,151c1.26,1.08,2.5-.3,2.95-1,21-30,25.9-35,24.91-36s-5.39,5.48-27.49,33.81C797.48,148.4,796.4,150,797.59,151Z"/>
      <path class="b8f0eb3b-eda0-4540-92b0-506e74132cc1" d="M783.19,286.32c1.26,1.08,2.5-.3,2.95-.95,21-30.05,25.9-35,24.91-36s-5.39,5.48-27.49,33.81C783.08,283.76,782,285.31,783.19,286.32Z"/>
      <path class="b8f0eb3b-eda0-4540-92b0-506e74132cc1" d="M830.71,368.4c1.26,1.08,2.5-.3,2.95-.95,21-30.05,25.9-35,24.91-36s-5.39,5.48-27.49,33.81C830.6,365.84,829.52,367.39,830.71,368.4Z"/>
      <path class="b8f0eb3b-eda0-4540-92b0-506e74132cc1" d="M611.83,250.32c1.26,1.08,2.5-.3,2.95-.95,21-30.05,25.9-35,24.91-36s-5.39,5.48-27.49,33.81C611.72,247.76,610.64,249.31,611.83,250.32Z"/>
      <path class="b8f0eb3b-eda0-4540-92b0-506e74132cc1" d="M565.75,146.64c1.26,1.08,2.5-.3,3-.95,21-30,25.9-35,24.91-36s-5.39,5.48-27.49,33.81C565.64,144.08,564.56,145.63,565.75,146.64Z"/>
      <path class="b8f0eb3b-eda0-4540-92b0-506e74132cc1" d="M598.87,19.92c1.26,1.08,2.5-.3,3-1,21-30,25.9-35,24.91-36s-5.39,5.48-27.49,33.81C598.76,17.36,597.68,18.91,598.87,19.92Z"/>
      <path class="b8f0eb3b-eda0-4540-92b0-506e74132cc1" d="M555.67,202.8c1.26,1.08,2.5-.3,3-1,21-30,25.9-35,24.91-36s-5.39,5.48-27.49,33.81C555.56,200.24,554.48,201.79,555.67,202.8Z"/>
      <path class="b8f0eb3b-eda0-4540-92b0-506e74132cc1" d="M511,250.32c1.26,1.08,2.5-.3,3-.95,21-30.05,25.9-35,24.91-36s-5.39,5.48-27.49,33.81C510.92,247.76,509.84,249.31,511,250.32Z"/>
      <path class="b8f0eb3b-eda0-4540-92b0-506e74132cc1" d="M447.63,198.6c1,.89,2.06-.25,2.43-.78,17.28-24.71,21.29-28.79,20.47-29.62s-4.43,4.5-22.59,27.79C447.55,196.5,446.66,197.77,447.63,198.6Z"/>
      <path class="b8f0eb3b-eda0-4540-92b0-506e74132cc1" d="M287.79,148.92c1,.89,2.06-.25,2.43-.78,17.28-24.71,21.29-28.79,20.47-29.62s-4.43,4.5-22.59,27.79C287.71,146.82,286.82,148.09,287.79,148.92Z"/>
      <path class="b8f0eb3b-eda0-4540-92b0-506e74132cc1" d="M363.38,197.63c1.4,1.2,2.77-.33,3.27-1,23.25-33.25,28.66-38.74,27.55-39.86s-6,6.06-30.4,37.4C363.27,194.8,362.07,196.51,363.38,197.63Z"/>
      <path class="b8f0eb3b-eda0-4540-92b0-506e74132cc1" d="M253.22,27c1.4,1.2,2.77-.33,3.27-1C279.74-7.31,285.15-12.8,284-13.92s-6,6.06-30.4,37.4C253.11,24.16,251.91,25.87,253.22,27Z"/>
      <path class="b8f0eb3b-eda0-4540-92b0-506e74132cc1" d="M770.23,434.64c1.26,1.08,2.5-.3,2.95-.95,21-30.05,25.9-35,24.91-36s-5.39,5.48-27.49,33.81C770.12,432.08,769,433.63,770.23,434.64Z"/>
      <path class="b8f0eb3b-eda0-4540-92b0-506e74132cc1" d="M670.87,590.16c1.26,1.08,2.5-.3,3-.95,21-30.05,25.9-35,24.91-36s-5.39,5.48-27.49,33.81C670.76,587.6,669.68,589.15,670.87,590.16Z"/>
      <path class="b8f0eb3b-eda0-4540-92b0-506e74132cc1" d="M649.27,590.16c1.26,1.08,2.5-.3,3-.95,21-30.05,25.9-35,24.91-36s-5.39,5.48-27.49,33.81C649.16,587.6,648.08,589.15,649.27,590.16Z"/>
      <path class="b8f0eb3b-eda0-4540-92b0-506e74132cc1" d="M508.87,415.2c1.26,1.08,2.5-.3,2.95-.95,21-30.05,25.9-35,24.91-36s-5.39,5.48-27.49,33.81C508.76,412.64,507.68,414.19,508.87,415.2Z"/>
      <path class="b8f0eb3b-eda0-4540-92b0-506e74132cc1" d="M351.19,331c1.26,1.08,2.5-.3,2.95-.95,21-30.05,25.9-35,24.91-36s-5.39,5.48-27.49,33.81C351.08,328.4,350,330,351.19,331Z"/>
      <path class="b8f0eb3b-eda0-4540-92b0-506e74132cc1" d="M439.18,344.33c1.7,1.48,3.34-.4,3.94-1.28,27.95-40.89,34.45-47.63,33.11-49s-7.17,7.44-36.57,46C439,340.84,437.58,343,439.18,344.33Z"/>
      <path class="b8f0eb3b-eda0-4540-92b0-506e74132cc1" d="M262.06,283.85c1.7,1.48,3.34-.4,3.94-1.28,27.95-40.89,34.45-47.63,33.11-49s-7.17,7.44-36.57,46C261.9,280.36,260.46,282.47,262.06,283.85Z"/>
      <path class="b8f0eb3b-eda0-4540-92b0-506e74132cc1" d="M200.16,286.6c2.24,1.72,4.51-.59,5.35-1.67,38.86-50,47.82-58.36,46.06-60-1.59-1.46-9.88,9.17-50.63,56.43C200.06,282.41,198.06,285,200.16,286.6Z"/>
      <path class="b8f0eb3b-eda0-4540-92b0-506e74132cc1" d="M316.81,459.11c2.57,2.26,5-.6,5.95-1.94,42-62.12,51.8-72.37,49.77-74.48-1.84-1.91-10.8,11.3-55,69.84C316.56,453.8,314.4,457,316.81,459.11Z"/>
      <path class="b8f0eb3b-eda0-4540-92b0-506e74132cc1" d="M319.51,624.72c1.26,1.08,2.5-.3,2.95-1,21-30,25.9-35,24.91-36s-5.39,5.48-27.49,33.81C319.4,622.16,318.32,623.71,319.51,624.72Z"/>
      <path class="b8f0eb3b-eda0-4540-92b0-506e74132cc1" d="M15,855.84c1.26,1.08,2.5-.3,2.95-1,21-30,25.9-35,24.91-36s-5.39,5.48-27.49,33.81C14.84,853.28,13.76,854.83,15,855.84Z"/>
      <path class="b8f0eb3b-eda0-4540-92b0-506e74132cc1" d="M60.31,886.08c1.26,1.08,2.5-.3,2.95-1,21-30,25.9-35,24.91-36s-5.39,5.48-27.49,33.81C60.2,883.52,59.12,885.07,60.31,886.08Z"/>
      <path class="b8f0eb3b-eda0-4540-92b0-506e74132cc1" d="M347.59,505.92c1.26,1.08,2.5-.3,3-.95,21-30.05,25.9-35,24.91-36s-5.39,5.48-27.49,33.81C347.48,503.36,346.4,504.91,347.59,505.92Z"/>
      <path class="b8f0eb3b-eda0-4540-92b0-506e74132cc1" d="M259,503.76c1.26,1.08,2.5-.3,3-.95,21-30.05,25.9-35,24.91-36s-5.39,5.48-27.49,33.81C258.92,501.2,257.84,502.75,259,503.76Z"/>
      <path class="b8f0eb3b-eda0-4540-92b0-506e74132cc1" d="M223.2,460.84c1.86,1.49,3.72-.47,4.4-1.39,31.78-42.49,39.13-49.54,37.67-50.93s-8.11,7.77-41.46,47.87C223.09,457.26,221.45,459.45,223.2,460.84Z"/>
      <path class="b8f0eb3b-eda0-4540-92b0-506e74132cc1" d="M150.44,384.1c1.81,1.2,3.73-.53,4.45-1.33,33.2-37.13,40.78-43.35,39.36-44.49s-8.36,6.87-43,42C150.45,381.07,148.74,383,150.44,384.1Z"/>
      <path class="b8f0eb3b-eda0-4540-92b0-506e74132cc1" d="M210.79,388.7c1.12.81,2.29-.31,2.72-.84,20-24.29,24.58-28.34,23.69-29.11s-5.06,4.47-26,27.44C210.76,386.68,209.73,387.93,210.79,388.7Z"/>
      <path class="b8f0eb3b-eda0-4540-92b0-506e74132cc1" d="M130.87,328.22c1.12.81,2.29-.31,2.72-.84,20-24.29,24.58-28.34,23.69-29.11s-5.06,4.47-26,27.44C130.84,326.2,129.81,327.45,130.87,328.22Z"/>
      <path class="b8f0eb3b-eda0-4540-92b0-506e74132cc1" d="M642.07,457.68c1.26,1.08,2.5-.3,2.95-.95,21-30.05,25.9-35,24.91-36s-5.39,5.48-27.49,33.81C642,455.12,640.88,456.67,642.07,457.68Z"/>
      <path class="b8f0eb3b-eda0-4540-92b0-506e74132cc1" d="M704,355.44c1.26,1.08,2.5-.3,3-.95,21-30.05,25.9-35,24.91-36s-5.39,5.48-27.49,33.81C703.88,352.88,702.8,354.43,704,355.44Z"/>
      <path class="b8f0eb3b-eda0-4540-92b0-506e74132cc1" d="M717,227.28c1.26,1.08,2.5-.3,2.95-.95,21-30.05,25.9-35,24.91-36s-5.39,5.48-27.49,33.81C716.84,224.72,715.76,226.27,717,227.28Z"/>
      <path class="b8f0eb3b-eda0-4540-92b0-506e74132cc1" d="M645,392.88c1.26,1.08,2.5-.3,2.95-.95,21-30.05,25.9-35,24.91-36s-5.39,5.48-27.49,33.81C644.84,390.32,643.76,391.87,645,392.88Z"/>
      <path class="b8f0eb3b-eda0-4540-92b0-506e74132cc1" d="M577.27,456.24c1.26,1.08,2.5-.3,3-.95,21-30.05,25.9-35,24.91-36s-5.39,5.48-27.49,33.81C577.16,453.68,576.08,455.23,577.27,456.24Z"/>
      <path class="b8f0eb3b-eda0-4540-92b0-506e74132cc1" d="M590.14,509.72c.81.79,1.54-.16,1.81-.62,12.35-20.92,15.27-24.34,14.63-25.08s-3.21,3.78-16.27,23.45C590,507.9,589.39,509,590.14,509.72Z"/>
      <path class="b8f0eb3b-eda0-4540-92b0-506e74132cc1" d="M454.06,371.48c.81.79,1.54-.16,1.81-.62,12.35-20.92,15.27-24.34,14.63-25.08s-3.21,3.78-16.27,23.45C453.94,369.66,453.31,370.74,454.06,371.48Z"/>
      <path class="b8f0eb3b-eda0-4540-92b0-506e74132cc1" d="M98.63,204.1c.81.79,1.54-.17,1.81-.62,12.36-20.92,15.27-24.35,14.63-25.08s-3.21,3.77-16.27,23.45C98.52,202.28,97.88,203.35,98.63,204.1Z"/>
      <path class="b8f0eb3b-eda0-4540-92b0-506e74132cc1" d="M443.26,518.36c.81.79,1.54-.16,1.81-.62,12.35-20.92,15.27-24.34,14.63-25.08s-3.21,3.78-16.27,23.45C443.14,516.54,442.51,517.62,443.26,518.36Z"/>
      <path class="b8f0eb3b-eda0-4540-92b0-506e74132cc1" d="M-1.7,494.6c.81.79,1.54-.16,1.81-.62,12.35-20.92,15.27-24.34,14.63-25.08s-3.21,3.78-16.27,23.45C-1.82,492.78-2.45,493.86-1.7,494.6Z"/>
      <path class="b8f0eb3b-eda0-4540-92b0-506e74132cc1" d="M594.46,570.2c.81.79,1.54-.16,1.81-.62,12.35-20.92,15.27-24.34,14.63-25.08s-3.21,3.78-16.27,23.45C594.34,568.38,593.71,569.46,594.46,570.2Z"/>
      <path class="b8f0eb3b-eda0-4540-92b0-506e74132cc1" d="M222.94,682.52c.81.79,1.54-.16,1.81-.62C237.1,661,240,657.56,239.38,656.82s-3.21,3.78-16.27,23.45C222.82,680.7,222.19,681.78,222.94,682.52Z"/>
      <path class="b8f0eb3b-eda0-4540-92b0-506e74132cc1" d="M197,596.12c.81.79,1.54-.16,1.81-.62,12.35-20.92,15.27-24.34,14.63-25.08s-3.21,3.78-16.27,23.45C196.9,594.3,196.27,595.38,197,596.12Z"/>
      <path class="b8f0eb3b-eda0-4540-92b0-506e74132cc1" d="M149.5,518.36c.81.79,1.54-.16,1.81-.62,12.35-20.92,15.27-24.34,14.63-25.08s-3.21,3.78-16.27,23.45C149.38,516.54,148.75,517.62,149.5,518.36Z"/>
      <path class="b8f0eb3b-eda0-4540-92b0-506e74132cc1" d="M63,473.84c1.36,1,2.76-.36,3.28-1,23.92-30.27,29.43-35.31,28.36-36.28s-6.08,5.55-31.15,34.15C62.94,471.31,61.71,472.87,63,473.84Z"/>
      <path class="b8f0eb3b-eda0-4540-92b0-506e74132cc1" d="M92.92,520.28c2.61,2.37,5.08-.59,6-2,42-64.45,51.76-75.06,49.7-77.27-1.87-2-10.82,11.69-55,72.39C92.63,514.74,90.47,518.06,92.92,520.28Z"/>
      <path class="b8f0eb3b-eda0-4540-92b0-506e74132cc1" d="M38.92,429.56c2.61,2.37,5.08-.59,6-2,42-64.45,51.76-75.06,49.7-77.27-1.87-2-10.82,11.69-55,72.39C38.63,424,36.47,427.34,38.92,429.56Z"/>
      <path class="b8f0eb3b-eda0-4540-92b0-506e74132cc1" d="M68.6,311.41c4,3.59,7.86-.92,9.27-3.05C143,210.16,158.22,194,155.05,190.63c-2.87-3-16.77,17.83-85.38,110.35C68.19,303,64.83,308,68.6,311.41Z"/>
      <path class="b8f0eb3b-eda0-4540-92b0-506e74132cc1" d="M851,503.49c1.93,1.45,3.92-.52,4.65-1.44,34-42.6,41.85-49.69,40.33-51.05s-8.64,7.82-44.28,48.06C850.93,499.94,849.18,502.13,851,503.49Z"/>
      <path class="b8f0eb3b-eda0-4540-92b0-506e74132cc1" d="M776.12,530.85c1.93,1.45,3.92-.52,4.65-1.44,34-42.6,41.85-49.69,40.33-51s-8.64,7.82-44.28,48.06C776.05,527.3,774.3,529.49,776.12,530.85Z"/>
      <path class="b8f0eb3b-eda0-4540-92b0-506e74132cc1" d="M806.31,612.72c2,1.89,3.88-.43,4.57-1.53,31.73-50.7,39.18-59,37.59-60.79-1.44-1.59-8.21,9.18-41.69,56.91C806.05,608.34,804.42,611,806.31,612.72Z"/>
      <path class="b8f0eb3b-eda0-4540-92b0-506e74132cc1" d="M892.83,536.05c2.74,2.43,5.38-.64,6.34-2.08,44.7-66.71,55.12-77.71,53-80-2-2.06-11.5,12.12-58.56,75C892.55,530.33,890.25,533.77,892.83,536.05Z"/>
      <path class="b8f0eb3b-eda0-4540-92b0-506e74132cc1" d="M836.67,449.65c2.74,2.43,5.38-.64,6.34-2.08,44.7-66.71,55.12-77.71,53-80-2-2.06-11.5,12.12-58.56,75C836.39,443.93,834.09,447.37,836.67,449.65Z"/>
      <path class="b8f0eb3b-eda0-4540-92b0-506e74132cc1" d="M663.92,679.65c3.31,3.13,6.4-.72,7.53-2.54,52.16-83.93,64.41-97.71,61.79-100.63-2.38-2.65-13.51,15.2-68.55,94.19C663.49,672.39,660.81,676.71,663.92,679.65Z"/>
      <path class="b8f0eb3b-eda0-4540-92b0-506e74132cc1" d="M606.19,769.45c2.38,2.29,4.58-.51,5.38-1.83,37.09-61,45.82-71,43.93-73.17-1.71-1.93-9.62,11-48.79,68.46C605.86,764.15,604,767.29,606.19,769.45Z"/>
      <path class="b8f0eb3b-eda0-4540-92b0-506e74132cc1" d="M488.12,880.08c2.68,2.74,5.08-.52,5.95-2.07,40.26-71.37,49.8-83,47.67-85.59-1.93-2.31-10.52,12.87-53.14,80C487.68,873.84,485.6,877.51,488.12,880.08Z"/>
      <path class="b8f0eb3b-eda0-4540-92b0-506e74132cc1" d="M427.64,848.4c2.68,2.74,5.08-.52,5.95-2.07,40.26-71.37,49.8-83,47.67-85.59-1.93-2.31-10.52,12.87-53.14,80C427.2,842.16,425.12,845.83,427.64,848.4Z"/>
      <path class="b8f0eb3b-eda0-4540-92b0-506e74132cc1" d="M367.18,843.89c2.94,3.07,5.53-.55,6.47-2.27,43.46-79.42,53.78-92.38,51.45-95.24-2.12-2.59-11.39,14.3-57.44,88.92C366.66,836.92,364.42,841,367.18,843.89Z"/>
      <path class="b8f0eb3b-eda0-4540-92b0-506e74132cc1" d="M316.66,736.61c1.82,1.86,3.45-.36,4-1.41,27.38-48.44,33.86-56.36,32.42-58.09-1.31-1.56-7.15,8.73-36.13,54.27C316.36,732.37,315,734.86,316.66,736.61Z"/>
      <path class="b8f0eb3b-eda0-4540-92b0-506e74132cc1" d="M336.82,801.41c1.82,1.86,3.45-.36,4-1.41,27.38-48.44,33.86-56.36,32.42-58.09-1.31-1.56-7.15,8.73-36.13,54.27C336.52,797.17,335.11,799.66,336.82,801.41Z"/>
      <path class="b8f0eb3b-eda0-4540-92b0-506e74132cc1" d="M279.22,887.81c1.82,1.86,3.45-.36,4-1.41C310.64,838,317.12,830,315.68,828.31c-1.31-1.56-7.15,8.73-36.13,54.27C278.92,883.57,277.51,886.06,279.22,887.81Z"/>
      <path class="b8f0eb3b-eda0-4540-92b0-506e74132cc1" d="M224.4,833.38c1.24,1.41,2.27-.2,2.64-1,17.12-35.58,21.24-41.36,20.26-42.68s-4.55,6.37-22.78,39.76C224.12,830.21,223.24,832,224.4,833.38Z"/>
      <path class="b8f0eb3b-eda0-4540-92b0-506e74132cc1" d="M178.32,873.7c1.24,1.41,2.27-.2,2.64-1,17.12-35.58,21.24-41.36,20.26-42.68s-4.55,6.37-22.78,39.76C178,870.53,177.16,872.36,178.32,873.7Z"/>
      <path class="b8f0eb3b-eda0-4540-92b0-506e74132cc1" d="M1114.74,654c1.49,1.52,2.84-.29,3.32-1.15,22.56-39.55,27.89-46,26.71-47.43s-5.89,7.13-29.75,44.32C1114.5,650.56,1113.34,652.59,1114.74,654Z"/>
      <path class="b8f0eb3b-eda0-4540-92b0-506e74132cc1" d="M1023.77,477.52c1.9,1.58,3.78-.47,4.47-1.44,32-44.53,39.43-51.9,37.93-53.38s-8.19,8.12-41.81,50.13C1023.63,473.74,1022,476,1023.77,477.52Z"/>
      <path class="b8f0eb3b-eda0-4540-92b0-506e74132cc1" d="M949.15,406.13c1.74,1.77,3.81-.08,4.6-1,36.33-41.08,44.45-47.67,43.11-49.29s-9,7.26-46.65,45.66C949.39,402.36,947.52,404.48,949.15,406.13Z"/>
      <path class="b8f0eb3b-eda0-4540-92b0-506e74132cc1" d="M641,890c1.74,1.77,3.81-.08,4.6-1,36.33-41.08,44.45-47.67,43.11-49.29s-9,7.26-46.65,45.66C641.23,886.2,639.36,888.32,641,890Z"/>
      <path class="b8f0eb3b-eda0-4540-92b0-506e74132cc1" d="M576.19,901.49c1.74,1.77,3.81-.08,4.6-1,36.33-41.08,44.45-47.67,43.11-49.29s-9,7.26-46.65,45.66C576.43,897.72,574.56,899.84,576.19,901.49Z"/>
      <path class="b8f0eb3b-eda0-4540-92b0-506e74132cc1" d="M557.19,869.31c1.35,1.66,2.88,0,3.45-.81,26.64-37.21,32.65-43.13,31.6-44.65s-6.62,6.53-34.33,41.24C557.3,865.84,555.93,867.75,557.19,869.31Z"/>
      <path class="b8f0eb3b-eda0-4540-92b0-506e74132cc1" d="M1305.9,444.49c1.49,1.52,2.84-.29,3.32-1.15,22.56-39.55,27.89-46,26.71-47.43s-5.89,7.13-29.75,44.32C1305.66,441,1304.5,443.07,1305.9,444.49Z"/>
      <path class="b8f0eb3b-eda0-4540-92b0-506e74132cc1" d="M1153.58,513.93c1,1,2-.22,2.32-.78,16.14-25.78,19.92-30,19.11-30.91s-4.17,4.67-21.19,28.94C1153.45,511.7,1152.62,513,1153.58,513.93Z"/>
      <path class="b8f0eb3b-eda0-4540-92b0-506e74132cc1" d="M1065.74,515.37c1,1,2-.22,2.32-.78,16.14-25.78,19.92-30,19.11-30.91s-4.17,4.67-21.19,28.94C1065.61,513.14,1064.78,514.47,1065.74,515.37Z"/>
      <path class="b8f0eb3b-eda0-4540-92b0-506e74132cc1" d="M1015.34,405.93c1,1,2-.22,2.32-.78,16.14-25.78,19.92-30,19.11-30.91s-4.17,4.67-21.19,28.94C1015.21,403.7,1014.38,405,1015.34,405.93Z"/>
      <path class="b8f0eb3b-eda0-4540-92b0-506e74132cc1" d="M949.1,534.09c1,1,2-.22,2.32-.78,16.14-25.78,19.92-30,19.11-30.91s-4.17,4.67-21.19,28.94C949,531.86,948.14,533.19,949.1,534.09Z"/>
      <path class="b8f0eb3b-eda0-4540-92b0-506e74132cc1" d="M1244.3,401.61c1,1,2-.22,2.32-.78,16.14-25.78,19.92-30,19.11-30.91s-4.17,4.67-21.19,28.94C1244.17,399.38,1243.34,400.71,1244.3,401.61Z"/>
      <path class="b8f0eb3b-eda0-4540-92b0-506e74132cc1" d="M1019.66,707.25c1,1,2-.22,2.32-.78,16.14-25.78,19.92-30,19.11-30.91s-4.17,4.67-21.19,28.94C1019.53,705,1018.7,706.35,1019.66,707.25Z"/>
      <path class="b8f0eb3b-eda0-4540-92b0-506e74132cc1" d="M988.34,623c1,1,2-.22,2.32-.78,16.14-25.78,19.92-30,19.11-30.91s-4.17,4.67-21.19,28.94C988.21,620.78,987.38,622.11,988.34,623Z"/>
      <path class="b8f0eb3b-eda0-4540-92b0-506e74132cc1" d="M1074.74,751.53c1,1,2-.22,2.32-.78,16.14-25.78,19.92-30,19.11-30.91s-4.17,4.67-21.19,28.94C1074.61,749.3,1073.78,750.63,1074.74,751.53Z"/>
      <path class="b8f0eb3b-eda0-4540-92b0-506e74132cc1" d="M1104,823.44c1.79,1.7,3.46-.39,4.07-1.37,28.24-45.55,34.87-53,33.45-54.61s-7.32,8.24-37.11,51.11C1103.76,819.5,1102.31,821.85,1104,823.44Z"/>
      <path class="b8f0eb3b-eda0-4540-92b0-506e74132cc1" d="M1016.52,839.64c1.79,1.7,3.46-.39,4.07-1.37,28.24-45.55,34.87-53,33.45-54.61s-7.32,8.24-37.11,51.11C1016.28,835.7,1014.83,838.05,1016.52,839.64Z"/>
      <path class="b8f0eb3b-eda0-4540-92b0-506e74132cc1" d="M1381.5,539.53c1.49,1.52,2.84-.29,3.32-1.15,22.56-39.55,27.89-46,26.71-47.43s-5.89,7.13-29.75,44.32C1381.26,536.08,1380.1,538.11,1381.5,539.53Z"/>
      <path class="b8f0eb3b-eda0-4540-92b0-506e74132cc1" d="M1539.31,734.88c3.15,3.65,5.76-.49,6.7-2.47,43.32-91.25,53.77-106.07,51.26-109.45-2.28-3.06-11.53,16.33-57.69,101.94C1538.58,726.76,1536.35,731.46,1539.31,734.88Z"/>
      <path class="b8f0eb3b-eda0-4540-92b0-506e74132cc1" d="M1385.76,810.77c2.68,4,5.79.22,7-1.62,54.38-85.13,66.59-98.52,64.52-102.18-1.87-3.33-13.47,14.76-70,93.93C1386.06,802.61,1383.26,807,1385.76,810.77Z"/>
      <path class="b8f0eb3b-eda0-4540-92b0-506e74132cc1" d="M1314.62,643c2,1.87,3.77-.42,4.43-1.49,30.65-49.85,37.85-58,36.3-59.77-1.4-1.58-7.94,9-40.29,55.93C1314.36,638.67,1312.78,641.23,1314.62,643Z"/>
      <path class="b8f0eb3b-eda0-4540-92b0-506e74132cc1" d="M1042.51,627.63c2.37,2.25,4.56-.51,5.37-1.81,37.1-60.16,45.81-70,43.94-72.13-1.69-1.9-9.61,10.88-48.77,67.5C1042.2,622.42,1040.29,625.52,1042.51,627.63Z"/>
      <path class="b8f0eb3b-eda0-4540-92b0-506e74132cc1" d="M1306,529.23c2.71,2.26,5-.84,5.76-2.29,37.21-66.87,46.18-78,44-80.15-2-1.93-9.89,12.29-49.54,75.51C1305.36,523.67,1303.44,527.11,1306,529.23Z"/>
      <path class="b8f0eb3b-eda0-4540-92b0-506e74132cc1" d="M1062.54,299.12c1.6,1.23,3-.53,3.51-1.35,23.36-38,28.92-44.35,27.65-45.51s-6.14,7-30.93,43C1062.23,296,1061,298,1062.54,299.12Z"/>
      <path class="b8f0eb3b-eda0-4540-92b0-506e74132cc1" d="M1209.94,678.09c3.16,2.47,5.87-1,6.85-2.66,45.32-75.41,56.15-88,53.64-90.36-2.28-2.12-12,13.92-60.07,85.27C1209.31,671.89,1207,675.77,1209.94,678.09Z"/>
      <path class="b8f0eb3b-eda0-4540-92b0-506e74132cc1" d="M1538.54,279.66c2.5,2.16,4.91-.59,5.8-1.89,41-59.93,50.56-69.82,48.59-71.85-1.78-1.83-10.53,10.91-53.68,67.4C1538.31,274.54,1536.2,277.63,1538.54,279.66Z"/>
      <path class="b8f0eb3b-eda0-4540-92b0-506e74132cc1" d="M1301.88,190.19c3.29,2.82,6.49-.79,7.67-2.49,54.42-78.42,67.07-91.37,64.48-94-2.35-2.39-14,14.28-71.19,88.21C1301.6,183.5,1298.79,187.54,1301.88,190.19Z"/>
      <path class="b8f0eb3b-eda0-4540-92b0-506e74132cc1" d="M1538.43,403.21c1.71,1.48,3.36-.41,4-1.3,28.08-41,34.62-47.81,33.27-49.2s-7.21,7.47-36.76,46.15C1538.27,399.7,1536.82,401.81,1538.43,403.21Z"/>
      <path class="b8f0eb3b-eda0-4540-92b0-506e74132cc1" d="M1432.59,49c1.71,1.48,3.36-.41,4-1.3,28.08-41,34.62-47.81,33.27-49.2s-7.21,7.47-36.76,46.15C1432.43,45.46,1431,47.57,1432.59,49Z"/>
      <path class="b8f0eb3b-eda0-4540-92b0-506e74132cc1" d="M1472.62,283.92c1.85,2,3.45-.33,4-1.44,26.63-51.14,33-59.47,31.52-61.33-1.33-1.68-7,9.19-35.29,57.21C1472.26,279.4,1470.89,282,1472.62,283.92Z"/>
    </g>
  </g>
  <g class="e7de008f-c84b-4a41-b565-6b2419e1f516">
    <g>
      <path class="b8f0eb3b-eda0-4540-92b0-506e74132cc1" d="M1583.86,519.59c2.23,1.42,4.15-.92,4.84-2,32-49.82,39.62-58.3,37.85-59.67-1.6-1.23-8.43,9.36-42.39,56.74C1583.42,515.69,1581.78,518.25,1583.86,519.59Z"/>
      <path class="b8f0eb3b-eda0-4540-92b0-506e74132cc1" d="M1593.22,596.11c2.22,1.42,4.14-.92,4.83-2,32-49.82,39.62-58.31,37.85-59.67-1.6-1.24-8.43,9.35-42.39,56.73C1592.78,592.21,1591.13,594.78,1593.22,596.11Z"/>
      <path class="b8f0eb3b-eda0-4540-92b0-506e74132cc1" d="M1590.68,736.64c2.67,1.8,4.91-1.07,5.72-2.39,37.26-61.1,46.22-71.47,44.09-73.18-1.92-1.56-9.88,11.43-49.54,69.48C1590.09,731.81,1588.17,735,1590.68,736.64Z"/>
      <path class="b8f0eb3b-eda0-4540-92b0-506e74132cc1" d="M1595.54,48.88c2.16,2.1,4.22-.42,5-1.61,34.92-55.13,43.07-64.15,41.37-66.1-1.55-1.77-9,9.94-45.78,61.78C1595.31,44.08,1593.51,46.91,1595.54,48.88Z"/>
      <path class="b8f0eb3b-eda0-4540-92b0-506e74132cc1" d="M1586.09,244.83c2.47,1.84,4.43-.93,5.12-2.21,32.14-59.37,40-69.37,38-71.13-1.79-1.59-8.65,11-43,67.33C1585.42,240,1583.77,243.09,1586.09,244.83Z"/>
    </g>
  </g>
</svg>
