<svg id="b130ac3a-1b6e-40f5-9da9-e2a041e78544" data-name="Layer 1" xmlns="http://www.w3.org/2000/svg" xmlns:xlink="http://www.w3.org/1999/xlink" width="1600" height="900" viewBox="0 0 1600 900">
  <defs>
    <style>
      .a94e6fd6-21ce-4d02-a156-2faa7434d33b {
        fill: none;
      }

      .b6baeff5-163a-4702-b057-3341d45c333e {
        clip-path: url(#f7079f2b-de55-49bf-b6af-1fc4ae4d5e95);
      }

      .f5d43133-8ecf-4e91-96ca-b5965fa95d95 {
        fill: #aefbff;
      }

      .a858400e-e3a7-48c2-9de9-4b11639776af {
        clip-path: url(#eaed5105-6b38-4168-b773-e8c5264999a2);
      }
    </style>
    <clipPath id="f7079f2b-de55-49bf-b6af-1fc4ae4d5e95">
      <rect class="a94e6fd6-21ce-4d02-a156-2faa7434d33b" width="1600" height="900" transform="translate(1600 900) rotate(-180)"/>
    </clipPath>
    <clipPath id="eaed5105-6b38-4168-b773-e8c5264999a2">
      <rect class="a94e6fd6-21ce-4d02-a156-2faa7434d33b" x="1620" width="1600" height="900" transform="translate(4840 900) rotate(-180)"/>
    </clipPath>
  </defs>
  <g class="b6baeff5-163a-4702-b057-3341d45c333e">
    <g>
      <path class="f5d43133-8ecf-4e91-96ca-b5965fa95d95" d="M1479.1,142.32c3.06,4.36,6.38.09,7.62-2,57.36-95.62,70.41-110.77,68-114.76-2.17-3.62-14.41,16.7-74.27,105.8C1479.18,133.31,1476.23,138.23,1479.1,142.32Z"/>
      <path class="f5d43133-8ecf-4e91-96ca-b5965fa95d95" d="M1445.4,94.35c1,1.45,2.13,0,2.54-.66,19.09-31.82,23.43-36.86,22.64-38.19s-4.79,5.55-24.72,35.2C1445.43,91.35,1444.45,93,1445.4,94.35Z"/>
      <path class="f5d43133-8ecf-4e91-96ca-b5965fa95d95" d="M1322.28,153.75c1,1.45,2.13,0,2.54-.66,19.09-31.82,23.43-36.86,22.64-38.19s-4.79,5.55-24.72,35.2C1322.31,150.75,1321.33,152.39,1322.28,153.75Z"/>
      <path class="f5d43133-8ecf-4e91-96ca-b5965fa95d95" d="M1231.56,152.67c1,1.45,2.13,0,2.54-.66,19.09-31.82,23.43-36.86,22.64-38.19S1252,119.37,1232,149C1231.59,149.67,1230.61,151.31,1231.56,152.67Z"/>
      <path class="f5d43133-8ecf-4e91-96ca-b5965fa95d95" d="M1300.64,243.34c1.68,2.22,3.54,0,4.23-1.06,32.24-49.37,39.55-57.21,38.24-59.25-1.18-1.86-8.06,8.64-41.65,54.68C1300.73,238.71,1299.07,241.25,1300.64,243.34Z"/>
      <path class="f5d43133-8ecf-4e91-96ca-b5965fa95d95" d="M1199.25,111.21c2.28,2.91,4.84,0,5.8-1.41,44.44-64.91,54.49-75.23,52.72-77.9-1.61-2.41-11.09,11.38-57.37,71.93C1199.4,105.14,1197.11,108.48,1199.25,111.21Z"/>
      <path class="f5d43133-8ecf-4e91-96ca-b5965fa95d95" d="M1181.88,264.62c2,2.85,4.13.06,4.93-1.29,37.08-62.36,45.52-72.23,44-74.84-1.4-2.36-9.31,10.89-48,69C1181.93,258.74,1180,262,1181.88,264.62Z"/>
      <path class="f5d43133-8ecf-4e91-96ca-b5965fa95d95" d="M1228.18,276.18c1.11,1.39,2.36,0,2.82-.69,21.69-31.23,26.59-36.2,25.73-37.48s-5.41,5.48-28,34.62C1228.26,273.26,1227.14,274.87,1228.18,276.18Z"/>
      <path class="f5d43133-8ecf-4e91-96ca-b5965fa95d95" d="M863.14,216.78c1.11,1.39,2.36,0,2.82-.69,21.69-31.23,26.59-36.2,25.73-37.48s-5.41,5.48-28,34.62C863.22,213.86,862.1,215.47,863.14,216.78Z"/>
      <path class="f5d43133-8ecf-4e91-96ca-b5965fa95d95" d="M781.06,289.14c1.11,1.39,2.36,0,2.82-.69,21.69-31.23,26.59-36.2,25.73-37.48s-5.41,5.48-28,34.62C781.14,286.22,780,287.83,781.06,289.14Z"/>
      <path class="f5d43133-8ecf-4e91-96ca-b5965fa95d95" d="M1268.14,370.14c1.11,1.39,2.36,0,2.82-.69,21.69-31.23,26.59-36.2,25.73-37.48s-5.41,5.48-28,34.62C1268.22,367.22,1267.1,368.83,1268.14,370.14Z"/>
      <path class="f5d43133-8ecf-4e91-96ca-b5965fa95d95" d="M1197,410.38c2.09,2.92,4.38.05,5.23-1.34,39.53-64.08,48.51-74.23,46.88-76.9-1.48-2.42-9.91,11.2-51.14,70.92C1197.11,404.35,1195.07,407.65,1197,410.38Z"/>
      <path class="f5d43133-8ecf-4e91-96ca-b5965fa95d95" d="M1134.26,239.22c1.35,1.85,2.83,0,3.39-.86,25.73-40.74,31.57-47.21,30.51-48.9-1-1.53-6.44,7.13-33.26,45.11C1134.31,235.39,1133,237.49,1134.26,239.22Z"/>
      <path class="f5d43133-8ecf-4e91-96ca-b5965fa95d95" d="M868.63,274.79c1.57,2,3.33,0,4-1,30.63-44.18,37.55-51.21,36.33-53-1.1-1.64-7.63,7.75-39.52,49C868.74,270.66,867.16,272.93,868.63,274.79Z"/>
      <path class="f5d43133-8ecf-4e91-96ca-b5965fa95d95" d="M765.23,244.81c2.9,3.48,6.2-.05,7.44-1.75,57.48-78.71,70.44-91.25,68.19-94.45-2-2.9-14.3,13.82-74.09,87.28C765.47,237.48,762.51,241.53,765.23,244.81Z"/>
      <path class="f5d43133-8ecf-4e91-96ca-b5965fa95d95" d="M972.15,157.67c.72.84,1.54,0,1.85-.43,14.38-19.14,17.62-22.19,17.07-23s-3.58,3.37-18.53,21.23C972.21,155.89,971.47,156.87,972.15,157.67Z"/>
      <path class="f5d43133-8ecf-4e91-96ca-b5965fa95d95" d="M1111.69,124.35c1.93,2.58,4.07,0,4.88-1.22,37.1-57.15,45.52-66.22,44-68.59-1.36-2.14-9.28,10-47.95,63.3C1111.79,119,1109.88,121.93,1111.69,124.35Z"/>
      <path class="f5d43133-8ecf-4e91-96ca-b5965fa95d95" d="M1081.44,231.51c1.75,2.11,3.74,0,4.49-1.06,34.71-47.63,42.53-55.22,41.18-57.15-1.24-1.76-8.64,8.36-44.74,52.81C1081.58,227.07,1079.8,229.52,1081.44,231.51Z"/>
      <path class="f5d43133-8ecf-4e91-96ca-b5965fa95d95" d="M781.26,105.07c2,2.23,4.31-.07,5.18-1.17,40.43-51.06,49.52-59.22,48-61.27-1.4-1.86-10,9-52,56.68C781.47,100.35,779.39,103,781.26,105.07Z"/>
      <path class="f5d43133-8ecf-4e91-96ca-b5965fa95d95" d="M876.11,79.64c1.13,1.34,2.42,0,2.91-.68,22.51-30.36,27.59-35.2,26.71-36.43s-5.6,5.33-29,33.67C876.21,76.82,875.05,78.38,876.11,79.64Z"/>
      <path class="f5d43133-8ecf-4e91-96ca-b5965fa95d95" d="M893.78,151.74c3.09,3.85,6.58,0,7.89-1.9,60.71-86.49,74.43-100.25,72-103.79-2.17-3.21-15.12,15.17-78.32,95.87C894,143.67,890.88,148.12,893.78,151.74Z"/>
      <path class="f5d43133-8ecf-4e91-96ca-b5965fa95d95" d="M1030.63,336.5c1.48,1.66,3.19-.05,3.83-.87,29.85-38.12,36.56-44.21,35.41-45.74s-7.4,6.71-38.41,42.31C1030.78,333,1029.25,334.93,1030.63,336.5Z"/>
      <path class="f5d43133-8ecf-4e91-96ca-b5965fa95d95" d="M938.8,427.4c1.27,1.31,2.78-.07,3.34-.73,26.34-30.62,32.24-35.53,31.26-36.74s-6.51,5.41-33.85,34C939,424.58,937.61,426.16,938.8,427.4Z"/>
      <path class="f5d43133-8ecf-4e91-96ca-b5965fa95d95" d="M921.61,375.59c1.95,2.67,4.09,0,4.89-1.24,37.1-58.89,45.52-68.23,44-70.68-1.38-2.21-9.29,10.3-48,65.19C921.69,370.05,919.78,373.08,921.61,375.59Z"/>
      <path class="f5d43133-8ecf-4e91-96ca-b5965fa95d95" d="M748.73,198c1.58,2.22,3.31,0,3.95-1,29.78-48.82,36.55-56.55,35.32-58.59-1.12-1.84-7.47,8.53-38.54,54C748.78,193.39,747.25,195.9,748.73,198Z"/>
      <path class="f5d43133-8ecf-4e91-96ca-b5965fa95d95" d="M385.86,246.32c2.16,2.55,4.2-.24,4.95-1.58,34.62-61.68,42.72-71.64,41-74-1.55-2.14-8.94,11-45.42,68.74C385.61,240.75,383.82,243.92,385.86,246.32Z"/>
      <path class="f5d43133-8ecf-4e91-96ca-b5965fa95d95" d="M429,261.07c1.28,1.23,2.6-.2,3.08-.89,22.6-31.47,27.79-36.61,26.79-37.74s-5.73,5.65-29.39,35.22C428.94,258.3,427.77,259.92,429,261.07Z"/>
      <path class="f5d43133-8ecf-4e91-96ca-b5965fa95d95" d="M342.57,211.39c1.28,1.23,2.6-.2,3.08-.89,22.6-31.47,27.79-36.61,26.79-37.74s-5.73,5.65-29.39,35.22C342.54,208.62,341.37,210.24,342.57,211.39Z"/>
      <path class="f5d43133-8ecf-4e91-96ca-b5965fa95d95" d="M281.16,214.31c2,1.73,4.17-.38,5-1.38,37.23-46.06,45.72-53.61,44.15-55.23-1.43-1.46-9.37,8.33-48.26,51.67C281.19,210.31,279.27,212.68,281.16,214.31Z"/>
      <path class="f5d43133-8ecf-4e91-96ca-b5965fa95d95" d="M249.66,179.09c1.1,1.06,2.23-.17,2.64-.76,19.35-27.18,23.8-31.61,22.94-32.6s-4.91,4.89-25.17,30.41C249.63,176.7,248.63,178.1,249.66,179.09Z"/>
      <path class="f5d43133-8ecf-4e91-96ca-b5965fa95d95" d="M852.29,365.93c.88,1.19,1.85,0,2.21-.56,16.8-26.35,20.61-30.53,19.92-31.62s-4.2,4.61-21.71,29.17C852.33,363.45,851.46,364.81,852.29,365.93Z"/>
      <path class="f5d43133-8ecf-4e91-96ca-b5965fa95d95" d="M853.47,469.39c1.34,1.58,2.86,0,3.44-.8,26.58-35.83,32.57-41.54,31.53-43s-6.61,6.29-34.25,39.73C853.59,466.06,852.22,467.9,853.47,469.39Z"/>
      <path class="f5d43133-8ecf-4e91-96ca-b5965fa95d95" d="M726.06,461.6c1.55,2,3.26,0,3.91-1,29.8-45.35,36.55-52.55,35.35-54.43-1.1-1.69-7.45,7.94-38.5,50.23C726.14,457.34,724.61,459.68,726.06,461.6Z"/>
      <path class="f5d43133-8ecf-4e91-96ca-b5965fa95d95" d="M723.77,392.84c1,1.37,2,0,2.34-.61,17.6-29.81,21.61-34.53,20.87-35.78s-4.42,5.2-22.79,33C723.79,390,722.89,391.57,723.77,392.84Z"/>
      <path class="f5d43133-8ecf-4e91-96ca-b5965fa95d95" d="M727,321.56c1,1.37,2,0,2.34-.61,17.6-29.81,21.61-34.53,20.87-35.78s-4.42,5.2-22.79,33C727,318.75,726.13,320.29,727,321.56Z"/>
      <path class="f5d43133-8ecf-4e91-96ca-b5965fa95d95" d="M667.81,314.55c1.85,2.34,3.94,0,4.73-1.14,36.32-52.24,44.52-60.55,43.08-62.69-1.3-1.94-9,9.16-46.86,57.9C667.94,309.67,666.07,312.36,667.81,314.55Z"/>
      <path class="f5d43133-8ecf-4e91-96ca-b5965fa95d95" d="M584.67,267.86c2.08,2.84,4.36,0,5.22-1.32,39.53-62.63,48.51-72.57,46.89-75.17-1.47-2.36-9.9,10.95-51.12,69.34C584.76,262,582.73,265.2,584.67,267.86Z"/>
      <path class="f5d43133-8ecf-4e91-96ca-b5965fa95d95" d="M400,387.74c2.08,2.84,4.36,0,5.22-1.32,39.53-62.63,48.51-72.57,46.89-75.17-1.47-2.36-9.9,10.95-51.12,69.34C400.08,381.85,398.05,385.08,400,387.74Z"/>
      <path class="f5d43133-8ecf-4e91-96ca-b5965fa95d95" d="M442.35,483.92c3.39,4.78,7.08.09,8.47-2.19,63.87-105,78.4-121.61,75.75-126-2.4-4-16,18.33-82.67,116.16C442.46,474,439.17,479.44,442.35,483.92Z"/>
      <path class="f5d43133-8ecf-4e91-96ca-b5965fa95d95" d="M582.47,449.19c2,3.09,4.1.1,4.88-1.35,36.23-67,44.52-77.57,43-80.4-1.42-2.57-9.15,11.66-47,74C582.46,442.83,580.59,446.28,582.47,449.19Z"/>
      <path class="f5d43133-8ecf-4e91-96ca-b5965fa95d95" d="M687.41,120.36c2.84,4,5.92.07,7.07-1.84C747.8,30,759.93,15.92,757.71,12.22c-2-3.35-13.38,15.47-69,98C687.48,112,684.74,116.57,687.41,120.36Z"/>
      <path class="f5d43133-8ecf-4e91-96ca-b5965fa95d95" d="M587,95.84c2.62,3.39,5.55,0,6.65-1.64C644.55,18.63,656.08,6.63,654,3.52,652.18.7,641.32,16.75,588.27,87.23,587.12,88.76,584.49,92.65,587,95.84Z"/>
      <path class="f5d43133-8ecf-4e91-96ca-b5965fa95d95" d="M489.76,113.12c2.62,3.39,5.55,0,6.65-1.64,50.94-75.57,62.47-87.57,60.42-90.68C555,18,544.12,34,491.07,104.51,489.92,106,487.29,109.93,489.76,113.12Z"/>
      <path class="f5d43133-8ecf-4e91-96ca-b5965fa95d95" d="M408.65,81.15c2.06,2.56,4.38,0,5.25-1.26C454.29,22.47,463.41,13.33,461.81,11c-1.44-2.13-10.06,10.08-52.1,63.65C408.8,75.79,406.72,78.75,408.65,81.15Z"/>
      <path class="f5d43133-8ecf-4e91-96ca-b5965fa95d95" d="M314.69,102.75c2.06,2.56,4.38,0,5.25-1.26,40.39-57.42,49.51-66.56,47.91-68.91-1.44-2.13-10.06,10.08-52.1,63.65C314.84,97.39,312.76,100.35,314.69,102.75Z"/>
      <path class="f5d43133-8ecf-4e91-96ca-b5965fa95d95" d="M245.57,67.11c2.06,2.56,4.38,0,5.25-1.26C291.21,8.43,300.33-.71,298.73-3.06,297.29-5.19,288.67,7,246.63,60.59,245.72,61.75,243.64,64.71,245.57,67.11Z"/>
      <path class="f5d43133-8ecf-4e91-96ca-b5965fa95d95" d="M647.12,76.34c1.06,1.48,2.22,0,2.65-.68,20-32.4,24.59-37.53,23.77-38.88s-5,5.66-25.93,35.86C647.16,73.29,646.12,75,647.12,76.34Z"/>
      <path class="f5d43133-8ecf-4e91-96ca-b5965fa95d95" d="M413.85,120.82c1,1.07,2.13,0,2.57-.57C436.5,95.65,441,91.72,440.25,90.74s-5,4.33-25.83,27.31C414,118.55,412.93,119.81,413.85,120.82Z"/>
      <path class="f5d43133-8ecf-4e91-96ca-b5965fa95d95" d="M505.75,220.76c1.58,2,3.34,0,4-1,30.62-45.34,37.55-52.55,36.32-54.42-1.11-1.69-7.64,7.95-39.53,50.24C505.85,216.51,504.27,218.85,505.75,220.76Z"/>
      <path class="f5d43133-8ecf-4e91-96ca-b5965fa95d95" d="M593,181.43c.59.85,1.23,0,1.47-.38,11.11-18.58,13.64-21.52,13.17-22.3s-2.79,3.24-14.37,20.56A1.9,1.9,0,0,0,593,181.43Z"/>
      <path class="f5d43133-8ecf-4e91-96ca-b5965fa95d95" d="M529.31,129.59c.59.85,1.23,0,1.47-.38,11.11-18.58,13.64-21.52,13.17-22.3s-2.79,3.24-14.37,20.56A1.9,1.9,0,0,0,529.31,129.59Z"/>
      <path class="f5d43133-8ecf-4e91-96ca-b5965fa95d95" d="M531.47,307.79c.59.85,1.23,0,1.47-.38,11.11-18.58,13.64-21.52,13.17-22.3s-2.79,3.24-14.37,20.56A1.9,1.9,0,0,0,531.47,307.79Z"/>
      <path class="f5d43133-8ecf-4e91-96ca-b5965fa95d95" d="M159.36,231.54c3,4.12,6.41,0,7.66-1.93,58.21-91.14,71.41-105.6,69-109.37-2.15-3.43-14.57,15.94-75.24,100.89C159.5,223,156.5,227.67,159.36,231.54Z"/>
      <path class="f5d43133-8ecf-4e91-96ca-b5965fa95d95" d="M101,130c3,4.12,6.41,0,7.66-1.93,58.21-91.14,71.41-105.6,69-109.37-2.15-3.43-14.57,15.94-75.24,100.89C101.18,121.46,98.18,126.15,101,130Z"/>
      <path class="f5d43133-8ecf-4e91-96ca-b5965fa95d95" d="M84.07,62.1c1.1,1.5,2.32,0,2.78-.7C108,28.29,112.8,23,111.93,21.66s-5.29,5.8-27.34,36.66C84.12,59,83,60.7,84.07,62.1Z"/>
      <path class="f5d43133-8ecf-4e91-96ca-b5965fa95d95" d="M-31.34,123.17c2.77,3.74,5.82,0,7-1.76,53-82.91,65-96.06,62.8-99.5-2-3.11-13.25,14.5-68.45,91.79C-31.22,115.38-33.94,119.65-31.34,123.17Z"/>
      <path class="f5d43133-8ecf-4e91-96ca-b5965fa95d95" d="M-51.86,207.41c2.77,3.74,5.82,0,7-1.76,53-82.91,65-96.06,62.8-99.5-2-3.11-13.25,14.5-68.45,91.79C-51.74,199.62-54.46,203.89-51.86,207.41Z"/>
      <path class="f5d43133-8ecf-4e91-96ca-b5965fa95d95" d="M-23.78,227.93c2.77,3.74,5.82,0,7-1.76,53-82.91,65-96.06,62.8-99.5-2-3.11-13.25,14.5-68.45,91.79C-23.66,220.14-26.38,224.41-23.78,227.93Z"/>
      <path class="f5d43133-8ecf-4e91-96ca-b5965fa95d95" d="M-57.26,333.77c2.77,3.74,5.82,0,7-1.76,53-82.91,65-96.06,62.8-99.5-2-3.11-13.25,14.5-68.45,91.79C-57.14,326-59.86,330.25-57.26,333.77Z"/>
      <path class="f5d43133-8ecf-4e91-96ca-b5965fa95d95" d="M-32.42,374.81c2.77,3.74,5.82,0,7-1.76,53-82.91,65-96.06,62.8-99.5-2-3.11-13.25,14.5-68.45,91.79C-32.3,367-35,371.29-32.42,374.81Z"/>
      <path class="f5d43133-8ecf-4e91-96ca-b5965fa95d95" d="M73.47,256.31c1.48,2,3.12,0,3.73-.94,28.36-44.4,34.8-51.45,33.64-53.29-1-1.67-7.1,7.77-36.66,49.16C73.54,252.14,72.08,254.43,73.47,256.31Z"/>
      <path class="f5d43133-8ecf-4e91-96ca-b5965fa95d95" d="M69.8,199.29c.9,1.22,1.9,0,2.27-.57,17.22-27,21.13-31.25,20.43-32.37s-4.31,4.72-22.27,29.87C69.84,196.76,69,198.15,69.8,199.29Z"/>
      <path class="f5d43133-8ecf-4e91-96ca-b5965fa95d95" d="M584.51,357.06c1.18,1.63,2.48,0,3-.75,22.47-35.86,27.57-41.54,26.65-43s-5.63,6.27-29.06,39.68C584.56,353.69,583.4,355.53,584.51,357.06Z"/>
      <path class="f5d43133-8ecf-4e91-96ca-b5965fa95d95" d="M801.63,628.15c1.34,1.58,2.86,0,3.44-.8,26.58-35.83,32.57-41.54,31.53-43s-6.61,6.29-34.25,39.73C801.75,624.82,800.38,626.66,801.63,628.15Z"/>
      <path class="f5d43133-8ecf-4e91-96ca-b5965fa95d95" d="M662.39,599.52c1.88,2.66,3.93.05,4.7-1.21,35.46-58.33,43.53-67.57,42.06-70-1.34-2.21-8.9,10.19-45.9,64.54C662.45,594,660.62,597,662.39,599.52Z"/>
      <path class="f5d43133-8ecf-4e91-96ca-b5965fa95d95" d="M594.25,566.09c1.56,2.61,3.15.12,3.74-1.08,27.28-55.78,33.56-64.57,32.34-66.95-1.11-2.16-6.93,9.69-35.51,61.59C594.2,560.78,592.79,563.65,594.25,566.09Z"/>
      <path class="f5d43133-8ecf-4e91-96ca-b5965fa95d95" d="M490.73,601.18c2.36,3.65,4.84.12,5.76-1.59C539.2,520.5,549,508,547.14,504.66c-1.68-3-10.79,13.77-55.46,87.42C490.72,593.67,488.52,597.74,490.73,601.18Z"/>
      <path class="f5d43133-8ecf-4e91-96ca-b5965fa95d95" d="M743.53,614.12c2.6,3.64,5.45.06,6.52-1.67,49.26-79.92,60.46-92.58,58.43-95.91-1.84-3-12.35,14-63.75,88.45C743.62,606.6,741.08,610.72,743.53,614.12Z"/>
      <path class="f5d43133-8ecf-4e91-96ca-b5965fa95d95" d="M737.91,533.11c1.34,1.58,2.86,0,3.44-.8,26.58-35.83,32.57-41.54,31.53-43s-6.61,6.29-34.25,39.73C738,529.78,736.66,531.62,737.91,533.11Z"/>
      <path class="f5d43133-8ecf-4e91-96ca-b5965fa95d95" d="M669.74,510.73c.76,1,1.59,0,1.9-.48,14.36-22.9,17.62-26.53,17-27.48s-3.6,4-18.57,25.35C669.77,508.58,669,509.76,669.74,510.73Z"/>
      <path class="f5d43133-8ecf-4e91-96ca-b5965fa95d95" d="M666.5,445.93c.76,1,1.59,0,1.9-.48,14.36-22.9,17.62-26.53,17-27.48s-3.6,4-18.57,25.35C666.53,443.78,665.79,445,666.5,445.93Z"/>
      <path class="f5d43133-8ecf-4e91-96ca-b5965fa95d95" d="M460.22,535.57c.76,1,1.59,0,1.9-.48,14.36-22.9,17.62-26.53,17-27.48s-3.6,4-18.57,25.35C460.25,533.42,459.51,534.6,460.22,535.57Z"/>
      <path class="f5d43133-8ecf-4e91-96ca-b5965fa95d95" d="M515.33,465.2c.95,1.37,2,0,2.34-.61,17.6-29.81,21.61-34.53,20.87-35.78s-4.42,5.2-22.79,33C515.35,462.39,514.45,463.93,515.33,465.2Z"/>
      <path class="f5d43133-8ecf-4e91-96ca-b5965fa95d95" d="M428.93,440.36c.95,1.37,2,0,2.34-.61,17.6-29.81,21.61-34.53,20.87-35.78s-4.42,5.2-22.79,33C429,437.55,428.05,439.09,428.93,440.36Z"/>
      <path class="f5d43133-8ecf-4e91-96ca-b5965fa95d95" d="M357.65,312.92c1,1.37,2,0,2.34-.61,17.6-29.81,21.61-34.53,20.87-35.78s-4.42,5.2-22.79,33C357.67,310.11,356.77,311.65,357.65,312.92Z"/>
      <path class="f5d43133-8ecf-4e91-96ca-b5965fa95d95" d="M293.93,325.88c.95,1.37,2,0,2.34-.61,17.6-29.81,21.61-34.53,20.87-35.78s-4.42,5.2-22.79,33C294,323.07,293.05,324.61,293.93,325.88Z"/>
      <path class="f5d43133-8ecf-4e91-96ca-b5965fa95d95" d="M226.12,321.25c1.83,1.87,4-.09,4.83-1,38-43.56,46.52-50.54,45.11-52.26-1.29-1.56-9.39,7.7-48.84,48.42C226.36,317.26,224.41,319.5,226.12,321.25Z"/>
      <path class="f5d43133-8ecf-4e91-96ca-b5965fa95d95" d="M299.56,394.69c1.83,1.87,4-.09,4.83-1,38-43.56,46.52-50.54,45.11-52.26-1.29-1.56-9.39,7.7-48.84,48.42C299.8,390.7,297.85,392.94,299.56,394.69Z"/>
      <path class="f5d43133-8ecf-4e91-96ca-b5965fa95d95" d="M341.52,436c1.19,1.48,2.53,0,3-.73,23.31-33.25,28.58-38.54,27.66-39.9s-5.81,5.83-30.08,36.85C341.6,432.86,340.4,434.58,341.52,436Z"/>
      <path class="f5d43133-8ecf-4e91-96ca-b5965fa95d95" d="M322.22,547.62c2,2.76,4.18,0,5-1.28,37.91-60.91,46.52-70.56,45-73.1-1.41-2.29-9.5,10.65-49,67.42C322.29,541.89,320.34,545,322.22,547.62Z"/>
      <path class="f5d43133-8ecf-4e91-96ca-b5965fa95d95" d="M236.9,509.82c2,2.76,4.18,0,5-1.28,37.91-60.91,46.52-70.56,45-73.1-1.41-2.29-9.5,10.65-49,67.42C237,504.09,235,507.23,236.9,509.82Z"/>
      <path class="f5d43133-8ecf-4e91-96ca-b5965fa95d95" d="M177.5,449.34c2,2.76,4.18,0,5-1.28,37.91-60.91,46.52-70.56,45-73.1-1.41-2.29-9.5,10.65-49,67.42C177.57,443.61,175.62,446.75,177.5,449.34Z"/>
      <path class="f5d43133-8ecf-4e91-96ca-b5965fa95d95" d="M132.08,350.17c1.71,2.42,3.57,0,4.27-1.11,32.21-53.14,39.54-61.56,38.2-63.78-1.21-2-8.08,9.29-41.69,58.8C132.13,345.16,130.47,347.89,132.08,350.17Z"/>
      <path class="f5d43133-8ecf-4e91-96ca-b5965fa95d95" d="M143.87,411.15c1.15,1.44,2.44,0,2.93-.71,22.5-32.38,27.58-37.53,26.69-38.86s-5.61,5.68-29,35.89C144,408.12,142.79,409.79,143.87,411.15Z"/>
      <path class="f5d43133-8ecf-4e91-96ca-b5965fa95d95" d="M59.63,449c1.15,1.44,2.44,0,2.93-.71,22.5-32.38,27.58-37.53,26.69-38.86s-5.61,5.68-29,35.89C59.71,445.92,58.55,447.59,59.63,449Z"/>
      <path class="f5d43133-8ecf-4e91-96ca-b5965fa95d95" d="M-17,534.27c1.15,1.44,2.44,0,2.93-.71C8.38,501.18,13.46,496,12.57,494.7s-5.61,5.68-29,35.89C-17,531.24-18.13,532.91-17,534.27Z"/>
      <path class="f5d43133-8ecf-4e91-96ca-b5965fa95d95" d="M-23.23,476.13c2.61,3.11,5.58-.05,6.7-1.57C35.26,404.2,46.93,393,44.91,390.13c-1.83-2.59-12.88,12.36-66.74,78C-23,469.58-25.67,473.2-23.23,476.13Z"/>
      <path class="f5d43133-8ecf-4e91-96ca-b5965fa95d95" d="M51,349.8c1,1,2.12-.05,2.56-.56,20.09-23.72,24.6-27.52,23.84-28.46s-5,4.18-25.83,26.36C51.09,347.62,50.06,348.84,51,349.8Z"/>
      <path class="f5d43133-8ecf-4e91-96ca-b5965fa95d95" d="M178.53,728.25c1.71,2.24,3.62,0,4.33-1.06,33.06-49.67,40.54-57.56,39.21-59.6-1.21-1.86-8.26,8.69-42.69,55C178.63,723.6,176.93,726.16,178.53,728.25Z"/>
      <path class="f5d43133-8ecf-4e91-96ca-b5965fa95d95" d="M169.77,623.73c1.19,1.82,2.44.06,2.91-.79,21.64-39.33,26.58-45.54,25.65-47.2s-5.45,6.85-28.07,43.47C169.77,620,168.65,622,169.77,623.73Z"/>
      <path class="f5d43133-8ecf-4e91-96ca-b5965fa95d95" d="M126.71,566.38c1.69,2,3.63,0,4.37-1,33.9-44.45,41.54-51.55,40.23-53.34-1.19-1.63-8.42,7.82-43.67,49.32C126.87,562.26,125.13,564.55,126.71,566.38Z"/>
      <path class="f5d43133-8ecf-4e91-96ca-b5965fa95d95" d="M91,531.54c1.71,2.56,3.53.07,4.21-1.13,31.38-55.75,38.54-64.57,37.21-66.91-1.22-2.13-7.91,9.72-40.69,61.64C91,526.26,89.42,529.13,91,531.54Z"/>
      <path class="f5d43133-8ecf-4e91-96ca-b5965fa95d95" d="M46.71,669.08c1.37,1.81,2.9,0,3.48-.86,26.55-40.17,32.56-46.54,31.49-48.2-1-1.5-6.63,7-34.3,44.48C46.78,665.32,45.42,667.38,46.71,669.08Z"/>
      <path class="f5d43133-8ecf-4e91-96ca-b5965fa95d95" d="M4.59,612.92c1.37,1.81,2.9,0,3.48-.86,26.55-40.17,32.56-46.54,31.49-48.2-1-1.5-6.63,7-34.3,44.48C4.66,609.16,3.3,611.22,4.59,612.92Z"/>
      <path class="f5d43133-8ecf-4e91-96ca-b5965fa95d95" d="M92.11,728.36c1.58,2,3.34,0,4-1C126.73,682,133.66,674.83,132.43,673c-1.11-1.69-7.64,7.95-39.53,50.24C92.21,724.11,90.63,726.45,92.11,728.36Z"/>
      <path class="f5d43133-8ecf-4e91-96ca-b5965fa95d95" d="M397.67,566.65c1.16,1.49,2.45,0,2.94-.72,22.49-33.25,27.58-38.54,26.68-39.91s-5.61,5.83-29,36.84C397.74,563.53,396.58,565.25,397.67,566.65Z"/>
      <path class="f5d43133-8ecf-4e91-96ca-b5965fa95d95" d="M390.24,681.69c1.85,2.47,3.89,0,4.66-1.17C430.38,625.67,438.43,617,437,614.69c-1.31-2.06-8.88,9.6-45.86,60.74C390.33,676.54,388.5,679.36,390.24,681.69Z"/>
      <path class="f5d43133-8ecf-4e91-96ca-b5965fa95d95" d="M408.46,724.32c1.12,1.5,2.37,0,2.84-.7C433,690.36,437.89,685.08,437,683.7s-5.42,5.82-28,36.83C408.52,721.21,407.4,722.92,408.46,724.32Z"/>
      <path class="f5d43133-8ecf-4e91-96ca-b5965fa95d95" d="M248.53,679.18c.75,1.11,1.55,0,1.85-.5,13.79-24.19,16.94-28,16.35-29s-3.47,4.22-17.88,26.76C248.54,676.89,247.83,678.14,248.53,679.18Z"/>
      <path class="f5d43133-8ecf-4e91-96ca-b5965fa95d95" d="M302.53,621.94c.75,1.11,1.55,0,1.85-.5,13.79-24.19,16.94-28,16.35-29s-3.47,4.22-17.88,26.76C302.54,619.65,301.83,620.9,302.53,621.94Z"/>
      <path class="f5d43133-8ecf-4e91-96ca-b5965fa95d95" d="M271.21,543.1c.75,1.11,1.55,0,1.85-.5,13.79-24.19,16.94-28,16.35-29s-3.47,4.22-17.88,26.76C271.22,540.81,270.51,542.06,271.21,543.1Z"/>
      <path class="f5d43133-8ecf-4e91-96ca-b5965fa95d95" d="M228,455.62c.75,1.11,1.55,0,1.85-.5,13.79-24.19,16.94-28,16.35-29s-3.47,4.22-17.88,26.76C228,453.33,227.31,454.58,228,455.62Z"/>
      <path class="f5d43133-8ecf-4e91-96ca-b5965fa95d95" d="M351.24,845.9c1.46,2.44,3,.11,3.51-1,25.66-52.32,31.57-60.56,30.42-62.8-1-2-6.52,9.09-33.4,57.77C351.19,840.91,349.86,843.6,351.24,845.9Z"/>
      <path class="f5d43133-8ecf-4e91-96ca-b5965fa95d95" d="M312.36,754.1c1.46,2.44,3,.11,3.51-1,25.66-52.32,31.57-60.56,30.42-62.8-1-2-6.52,9.09-33.4,57.77C312.31,749.11,311,751.8,312.36,754.1Z"/>
      <path class="f5d43133-8ecf-4e91-96ca-b5965fa95d95" d="M230.42,786c2.18,3.38,4.47.12,5.32-1.46,39.47-73,48.51-84.59,46.8-87.67-1.54-2.8-10,12.72-51.24,80.73C230.41,779.07,228.37,782.83,230.42,786Z"/>
      <path class="f5d43133-8ecf-4e91-96ca-b5965fa95d95" d="M9,898.32c2.18,3.38,4.47.12,5.32-1.46,39.47-73.05,48.51-84.59,46.8-87.67-1.54-2.8-10,12.72-51.24,80.73C9,891.39,7,895.15,9,898.32Z"/>
      <path class="f5d43133-8ecf-4e91-96ca-b5965fa95d95" d="M-23.38,840c2.18,3.38,4.47.12,5.32-1.46,39.47-73,48.51-84.59,46.8-87.67-1.54-2.8-10,12.72-51.24,80.73C-23.39,833.07-25.43,836.83-23.38,840Z"/>
      <path class="f5d43133-8ecf-4e91-96ca-b5965fa95d95" d="M242.16,915c1.46,2.44,3,.11,3.51-1,25.66-52.32,31.57-60.56,30.42-62.8-1-2-6.52,9.09-33.4,57.77C242.11,910,240.78,912.72,242.16,915Z"/>
      <path class="f5d43133-8ecf-4e91-96ca-b5965fa95d95" d="M219.57,859.8c1,1.74,2.1.08,2.5-.73,18.25-37.21,22.45-43.08,21.63-44.66s-4.63,6.46-23.76,41.09C219.53,856.25,218.59,858.17,219.57,859.8Z"/>
      <path class="f5d43133-8ecf-4e91-96ca-b5965fa95d95" d="M119.13,907.32c1,1.74,2.1.08,2.5-.73,18.25-37.21,22.45-43.08,21.63-44.66s-4.63,6.46-23.76,41.09C119.09,903.77,118.15,905.69,119.13,907.32Z"/>
      <path class="f5d43133-8ecf-4e91-96ca-b5965fa95d95" d="M139.65,833.88c1,1.74,2.1.08,2.5-.73,18.25-37.21,22.45-43.08,21.63-44.66S159.15,795,140,829.58C139.61,830.33,138.67,832.25,139.65,833.88Z"/>
      <path class="f5d43133-8ecf-4e91-96ca-b5965fa95d95" d="M215.09,262.16c.95,1.37,2,0,2.34-.61C235,231.74,239,227,238.3,225.77s-4.42,5.2-22.79,33C215.11,259.35,214.21,260.89,215.09,262.16Z"/>
      <path class="f5d43133-8ecf-4e91-96ca-b5965fa95d95" d="M170.81,147.68c.95,1.37,2,0,2.34-.61,17.6-29.81,21.61-34.53,20.87-35.78s-4.42,5.2-22.79,33C170.83,144.87,169.93,146.41,170.81,147.68Z"/>
      <path class="f5d43133-8ecf-4e91-96ca-b5965fa95d95" d="M737.78,512.89c.76,1,1.59,0,1.9-.48,14.36-22.9,17.62-26.53,17-27.48s-3.6,4-18.57,25.35C737.81,510.74,737.07,511.92,737.78,512.89Z"/>
      <path class="f5d43133-8ecf-4e91-96ca-b5965fa95d95" d="M885.94,545.67c1.76,2.36,3.72,0,4.45-1.11,33.86-52.26,41.53-60.56,40.16-62.72-1.25-2-8.47,9.14-43.76,57.87C886,540.77,884.28,543.46,885.94,545.67Z"/>
      <path class="f5d43133-8ecf-4e91-96ca-b5965fa95d95" d="M782.38,476.44c2.21,2.51,4.76-.07,5.72-1.31,44.49-57.39,54.49-66.55,52.78-68.87-1.55-2.09-11,10.1-57.27,63.7C782.6,471.12,780.31,474.07,782.38,476.44Z"/>
      <path class="f5d43133-8ecf-4e91-96ca-b5965fa95d95" d="M771.57,381.1c2.36,3.13,5,0,5.94-1.49C822.75,310.08,833,299,831.17,296.17c-1.67-2.61-11.31,12.17-58.45,77C771.69,374.57,769.36,378.15,771.57,381.1Z"/>
      <path class="f5d43133-8ecf-4e91-96ca-b5965fa95d95" d="M1037.53,96.23c2,2.67,4.09,0,4.89-1.24,37.1-58.89,45.52-68.23,44-70.68-1.38-2.21-9.29,10.3-48,65.19C1037.61,90.69,1035.7,93.72,1037.53,96.23Z"/>
      <path class="f5d43133-8ecf-4e91-96ca-b5965fa95d95" d="M955.3,252c3.07,4.16,6.44,0,7.71-1.95,58.49-92,71.76-106.6,69.37-110.41-2.16-3.46-14.64,16.09-75.62,101.85C955.44,243.39,952.43,248.13,955.3,252Z"/>
      <path class="f5d43133-8ecf-4e91-96ca-b5965fa95d95" d="M1101.91,407.78c1.48,1.66,3.19,0,3.83-.87,29.85-38.12,36.56-44.21,35.41-45.74s-7.4,6.71-38.41,42.31C1102.06,404.25,1100.53,406.21,1101.91,407.78Z"/>
      <path class="f5d43133-8ecf-4e91-96ca-b5965fa95d95" d="M1141.74,453.27c1,1.47,2.06,0,2.46-.66,18.4-32.12,22.6-37.2,21.82-38.55s-4.63,5.6-23.85,35.52C1141.75,450.23,1140.8,451.88,1141.74,453.27Z"/>
      <path class="f5d43133-8ecf-4e91-96ca-b5965fa95d95" d="M1092.76,338.36c.75.88,1.63,0,2-.45,15.2-20,18.62-23.18,18-24s-3.77,3.51-19.57,22.18C1092.83,336.51,1092.05,337.54,1092.76,338.36Z"/>
      <path class="f5d43133-8ecf-4e91-96ca-b5965fa95d95" d="M1010.7,275.64c.87,1,1.87,0,2.24-.52,17.36-23.46,21.28-27.19,20.6-28.15s-4.32,4.13-22.37,26C1010.78,273.46,1009.88,274.67,1010.7,275.64Z"/>
      <path class="f5d43133-8ecf-4e91-96ca-b5965fa95d95" d="M1223.82,459.75c1,1.47,2.06,0,2.46-.66,18.4-32.12,22.6-37.2,21.82-38.55s-4.63,5.6-23.85,35.52C1223.83,456.71,1222.88,458.36,1223.82,459.75Z"/>
      <path class="f5d43133-8ecf-4e91-96ca-b5965fa95d95" d="M1122.48,562c2,2.84,4,.07,4.83-1.28,36.26-62.07,44.52-71.9,43-74.5-1.39-2.36-9.12,10.83-47,68.66C1122.51,556.13,1120.64,559.32,1122.48,562Z"/>
      <path class="f5d43133-8ecf-4e91-96ca-b5965fa95d95" d="M967.5,639.69c1,1.6,2.08,0,2.48-.69,18.38-34.58,22.58-40,21.79-41.51s-4.65,6-23.87,38.22C967.48,636.4,966.54,638.18,967.5,639.69Z"/>
      <path class="f5d43133-8ecf-4e91-96ca-b5965fa95d95" d="M925.19,578.41c1.6,1.66,3.49-.08,4.21-.91,33.11-38.53,40.53-44.7,39.29-46.23s-8.18,6.81-42.55,42.82C925.39,574.87,923.69,576.85,925.19,578.41Z"/>
      <path class="f5d43133-8ecf-4e91-96ca-b5965fa95d95" d="M839.87,686.41c1.6,1.66,3.49-.08,4.21-.91,33.11-38.53,40.53-44.7,39.29-46.23s-8.18,6.81-42.55,42.82C840.07,682.87,838.37,684.85,839.87,686.41Z"/>
      <path class="f5d43133-8ecf-4e91-96ca-b5965fa95d95" d="M881.64,762.68c1.86,2.49,3.92,0,4.69-1.17,35.75-55,43.85-63.72,42.4-66-1.31-2.07-8.94,9.62-46.19,60.89C881.73,757.53,879.89,760.36,881.64,762.68Z"/>
      <path class="f5d43133-8ecf-4e91-96ca-b5965fa95d95" d="M1035.39,524.64c2,2.64,4.21,0,5-1.25,38.47-58.6,47.18-67.9,45.63-70.32-1.41-2.19-9.61,10.26-49.7,64.89C1035.49,519.15,1033.51,522.16,1035.39,524.64Z"/>
      <path class="f5d43133-8ecf-4e91-96ca-b5965fa95d95" d="M972.75,468.48c2,2.64,4.21,0,5-1.25,38.47-58.6,47.18-67.9,45.63-70.32-1.41-2.19-9.61,10.26-49.7,64.89C972.85,463,970.87,466,972.75,468.48Z"/>
      <path class="f5d43133-8ecf-4e91-96ca-b5965fa95d95" d="M1069,555.74c.66,1,1.35,0,1.61-.44,11.9-22.34,14.63-25.86,14.11-26.81s-3,3.89-15.45,24.68A2.51,2.51,0,0,0,1069,555.74Z"/>
      <path class="f5d43133-8ecf-4e91-96ca-b5965fa95d95" d="M1027.91,470.78c.66,1,1.35,0,1.61-.44,11.9-22.34,14.63-25.86,14.11-26.81s-3,3.89-15.45,24.68A2.51,2.51,0,0,0,1027.91,470.78Z"/>
      <path class="f5d43133-8ecf-4e91-96ca-b5965fa95d95" d="M1381.69,288.32c2,3,4.23.07,5-1.34,37.88-65,46.51-75.23,44.92-78-1.44-2.46-9.52,11.34-49.07,71.85C1381.73,282.19,1379.78,285.53,1381.69,288.32Z"/>
      <path class="f5d43133-8ecf-4e91-96ca-b5965fa95d95" d="M1542.54,221.63c1.66,2.47,3.43.07,4.09-1.1,30.57-53.72,37.54-62.22,36.25-64.48-1.18-2.05-7.7,9.37-39.63,59.41C1542.55,216.55,1541,219.31,1542.54,221.63Z"/>
      <path class="f5d43133-8ecf-4e91-96ca-b5965fa95d95" d="M1476.58,321.28c1.23,1.92,2.54.06,3-.84,22.45-41.63,27.58-48.21,26.61-50-.88-1.6-5.66,7.25-29.13,46C1476.57,317.33,1475.41,319.47,1476.58,321.28Z"/>
      <path class="f5d43133-8ecf-4e91-96ca-b5965fa95d95" d="M1519.76,346.24c1.13,1.68,2.34.05,2.79-.74,20.83-36.44,25.59-42.21,24.71-43.74s-5.25,6.36-27,40.3C1519.78,342.8,1518.7,344.67,1519.76,346.24Z"/>
      <path class="f5d43133-8ecf-4e91-96ca-b5965fa95d95" d="M1520.65,410.83c1,1.42,2,0,2.37-.64,17.71-31,21.75-35.88,21-37.18s-4.46,5.41-23,34.26C1520.66,407.9,1519.75,409.49,1520.65,410.83Z"/>
      <path class="f5d43133-8ecf-4e91-96ca-b5965fa95d95" d="M1522,484.17c1.56,2.26,3.24.06,3.86-1,29-49.4,35.55-57.22,34.34-59.29-1.1-1.88-7.28,8.62-37.51,54.64C1522,479.51,1520.54,482.05,1522,484.17Z"/>
      <path class="f5d43133-8ecf-4e91-96ca-b5965fa95d95" d="M1460.44,611.61c1.56,2.26,3.24.06,3.86-1,29-49.4,35.55-57.22,34.34-59.29-1.1-1.88-7.28,8.62-37.51,54.64C1460.47,607,1459,609.49,1460.44,611.61Z"/>
      <path class="f5d43133-8ecf-4e91-96ca-b5965fa95d95" d="M1471.4,732.17c2.26,3,4.78,0,5.72-1.43,43.61-66.65,53.49-77.23,51.73-80-1.6-2.5-10.9,11.67-56.35,73.82C1471.52,725.92,1469.27,729.35,1471.4,732.17Z"/>
      <path class="f5d43133-8ecf-4e91-96ca-b5965fa95d95" d="M1486.34,867.66c1.43,2.1,3,.05,3.54-.95,26.52-45.94,32.56-53.21,31.44-55.14-1-1.75-6.67,8-34.36,50.82C1486.36,863.31,1485,865.68,1486.34,867.66Z"/>
      <path class="f5d43133-8ecf-4e91-96ca-b5965fa95d95" d="M1374.05,824.05c1.78,2.91,3.6.13,4.28-1.22,31.34-62.4,38.54-72.24,37.15-74.9-1.26-2.41-8,10.85-40.77,68.92C1374,818.11,1372.39,821.33,1374.05,824.05Z"/>
      <path class="f5d43133-8ecf-4e91-96ca-b5965fa95d95" d="M1311.41,796c1.78,2.91,3.6.13,4.28-1.22,31.34-62.4,38.54-72.24,37.15-74.9-1.26-2.41-7.95,10.85-40.77,68.92C1311.36,790,1309.75,793.25,1311.41,796Z"/>
      <path class="f5d43133-8ecf-4e91-96ca-b5965fa95d95" d="M1391.29,584.46c1.56,2.59,3.15.12,3.74-1.08,27.28-55.49,33.56-64.23,32.34-66.6-1.11-2.15-6.93,9.64-35.51,61.27C1391.24,579.17,1389.83,582,1391.29,584.46Z"/>
      <path class="f5d43133-8ecf-4e91-96ca-b5965fa95d95" d="M1378.45,466.48c2,3.06,4.25.08,5.07-1.36,37.87-66.69,46.51-77.24,44.9-80.05-1.45-2.54-9.53,11.63-49.09,73.75C1378.47,460.17,1376.52,463.6,1378.45,466.48Z"/>
      <path class="f5d43133-8ecf-4e91-96ca-b5965fa95d95" d="M1315.6,478.21c.86,1.28,1.78,0,2.13-.57,16-27.8,19.61-32.2,18.93-33.36s-4,4.85-20.69,30.74C1315.61,475.58,1314.78,477,1315.6,478.21Z"/>
      <path class="f5d43133-8ecf-4e91-96ca-b5965fa95d95" d="M1389,365.89c.86,1.28,1.78,0,2.13-.57,16-27.8,19.61-32.2,18.93-33.36s-4,4.85-20.69,30.74C1389.05,363.26,1388.22,364.69,1389,365.89Z"/>
      <path class="f5d43133-8ecf-4e91-96ca-b5965fa95d95" d="M1325.93,328.76c.66,1,1.37,0,1.64-.43,12.23-21.3,15-24.67,14.5-25.57s-3.08,3.72-15.85,23.56A2.27,2.27,0,0,0,1325.93,328.76Z"/>
      <path class="f5d43133-8ecf-4e91-96ca-b5965fa95d95" d="M1387.49,203.48c.66,1,1.37,0,1.64-.43,12.23-21.3,15-24.67,14.5-25.57s-3.08,3.72-15.85,23.56A2.27,2.27,0,0,0,1387.49,203.48Z"/>
      <path class="f5d43133-8ecf-4e91-96ca-b5965fa95d95" d="M1255.16,564.25c1.22,2,2.48.09,2.95-.83,21.61-42.51,26.58-49.22,25.63-51-.87-1.64-5.48,7.4-28.12,47C1255.13,560.21,1254,562.4,1255.16,564.25Z"/>
      <path class="f5d43133-8ecf-4e91-96ca-b5965fa95d95" d="M1196.84,580.67c1.07,1.54,2.23,0,2.66-.7,20-33.85,24.59-39.21,23.76-40.62s-5,5.91-26,37.44C1196.86,577.47,1195.83,579.22,1196.84,580.67Z"/>
      <path class="f5d43133-8ecf-4e91-96ca-b5965fa95d95" d="M1096.36,642.46c.83,1.09,1.75,0,2.1-.52,16-24.33,19.61-28.2,19-29.2s-4,4.26-20.65,27C1096.41,640.18,1095.58,641.43,1096.36,642.46Z"/>
      <path class="f5d43133-8ecf-4e91-96ca-b5965fa95d95" d="M1025.32,808.58c2.31,3.56,4.74.12,5.65-1.55,41.9-77.07,51.49-89.25,49.69-92.5-1.64-3-10.58,13.42-54.4,85.19C1025.31,801.28,1023.16,805.24,1025.32,808.58Z"/>
      <path class="f5d43133-8ecf-4e91-96ca-b5965fa95d95" d="M975.6,744.36c1.84,2.41,3.88,0,4.65-1.15,35.49-53.7,43.53-62.23,42.1-64.44-1.3-2-8.87,9.4-45.85,59.47C975.7,739.32,973.87,742.09,975.6,744.36Z"/>
      <path class="f5d43133-8ecf-4e91-96ca-b5965fa95d95" d="M936.52,847.55c.91,1.31,1.88,0,2.24-.59,16.78-28.66,20.61-33.2,19.9-34.4s-4.22,5-21.74,31.71C936.54,844.85,935.68,846.32,936.52,847.55Z"/>
      <path class="f5d43133-8ecf-4e91-96ca-b5965fa95d95" d="M931.12,783.83c.91,1.31,1.88,0,2.24-.59,16.78-28.66,20.61-33.2,19.9-34.4s-4.22,5-21.74,31.71C931.14,781.13,930.28,782.6,931.12,783.83Z"/>
      <path class="f5d43133-8ecf-4e91-96ca-b5965fa95d95" d="M641.62,818.56c.63,1,1.27,0,1.51-.43,11.09-21.76,13.63-25.2,13.14-26.12s-2.8,3.78-14.41,24A2.54,2.54,0,0,0,641.62,818.56Z"/>
      <path class="f5d43133-8ecf-4e91-96ca-b5965fa95d95" d="M558.61,916.28c1.39,2.07,2.88.05,3.44-.92,25.7-45.09,31.56-52.22,30.48-54.12-1-1.71-6.47,7.87-33.32,49.86C558.63,912,557.3,914.33,558.61,916.28Z"/>
      <path class="f5d43133-8ecf-4e91-96ca-b5965fa95d95" d="M390.27,913.39c2.23,3.48,4.57.12,5.44-1.51,40.27-75.35,49.5-87.25,47.75-90.44-1.58-2.89-10.17,13.12-52.3,83.27C390.24,906.23,388.17,910.11,390.27,913.39Z"/>
      <path class="f5d43133-8ecf-4e91-96ca-b5965fa95d95" d="M523.59,838.36c.66,1.31,1.28.09,1.51-.5,10.45-27.37,12.9-31.67,12.38-32.86s-2.7,4.73-13.73,30.17A4,4,0,0,0,523.59,838.36Z"/>
      <path class="f5d43133-8ecf-4e91-96ca-b5965fa95d95" d="M789.87,824.26c1.93,2.43,4.12,0,4.94-1.19,37.94-54.55,46.52-63.23,45-65.46-1.37-2-9.46,9.57-49,60.45C790,819.17,788.05,822,789.87,824.26Z"/>
      <path class="f5d43133-8ecf-4e91-96ca-b5965fa95d95" d="M808.23,898.78c1.93,2.43,4.12,0,4.94-1.19,37.94-54.55,46.52-63.23,45-65.46-1.37-2-9.46,9.57-49,60.45C808.36,893.69,806.41,896.49,808.23,898.78Z"/>
      <path class="f5d43133-8ecf-4e91-96ca-b5965fa95d95" d="M730.47,934.42c1.93,2.43,4.12,0,4.94-1.19,37.94-54.55,46.52-63.23,45-65.46-1.37-2-9.46,9.57-49,60.45C730.6,929.33,728.65,932.13,730.47,934.42Z"/>
      <path class="f5d43133-8ecf-4e91-96ca-b5965fa95d95" d="M708.87,851.26c1.93,2.43,4.12,0,4.94-1.19,37.94-54.55,46.52-63.23,45-65.46-1.37-2-9.46,9.57-49,60.45C709,846.17,707.05,849,708.87,851.26Z"/>
      <path class="f5d43133-8ecf-4e91-96ca-b5965fa95d95" d="M690.37,849.32c1.39,2.07,2.88,0,3.44-.92,25.7-45.09,31.56-52.22,30.48-54.12-1-1.71-6.47,7.87-33.32,49.86C690.39,845.05,689.06,847.37,690.37,849.32Z"/>
      <path class="f5d43133-8ecf-4e91-96ca-b5965fa95d95" d="M744.49,747.88c1.7,1.83,3.71-.07,4.46-1,35-42.27,42.86-49,41.54-50.72-1.2-1.53-8.66,7.46-45,47C744.69,744,742.89,746.16,744.49,747.88Z"/>
      <path class="f5d43133-8ecf-4e91-96ca-b5965fa95d95" d="M676.53,718.11c2.31,3,4.89,0,5.85-1.45,44.69-67.36,54.81-78.06,53-80.84-1.63-2.52-11.16,11.79-57.72,74.62C676.66,711.8,674.36,715.27,676.53,718.11Z"/>
      <path class="f5d43133-8ecf-4e91-96ca-b5965fa95d95" d="M578.09,807.9c1.73,2.82,3.53.12,4.19-1.19,30.79-60.52,37.86-70.07,36.5-72.64-1.23-2.34-7.8,10.52-40,66.85C578.05,802.14,576.46,805.26,578.09,807.9Z"/>
      <path class="f5d43133-8ecf-4e91-96ca-b5965fa95d95" d="M517.61,774.42c1.73,2.82,3.53.12,4.19-1.19,30.79-60.52,37.86-70.07,36.5-72.64-1.23-2.34-7.8,10.52-40,66.85C517.57,768.66,516,771.78,517.61,774.42Z"/>
      <path class="f5d43133-8ecf-4e91-96ca-b5965fa95d95" d="M447.53,782.61c2.37,3.67,4.87.12,5.8-1.6,43-79.52,52.81-92.09,50.95-95.45-1.68-3-10.85,13.85-55.79,87.9C447.52,775.06,445.31,779.16,447.53,782.61Z"/>
      <path class="f5d43133-8ecf-4e91-96ca-b5965fa95d95" d="M532.64,653c1.09,1.58,2.26,0,2.7-.71,20.29-34.57,24.91-40,24.06-41.49s-5.1,6-26.28,38.24C532.66,649.75,531.62,651.53,532.64,653Z"/>
      <path class="f5d43133-8ecf-4e91-96ca-b5965fa95d95" d="M611.43,651.06c.83,1.18,1.72,0,2.05-.54,15.42-25.92,18.93-30,18.29-31.11s-3.87,4.53-20,28.68C611.45,648.61,610.66,650,611.43,651.06Z"/>
      <path class="f5d43133-8ecf-4e91-96ca-b5965fa95d95" d="M921.4,910.19c.91,1.31,1.88,0,2.24-.59,16.78-28.66,20.61-33.2,19.9-34.4s-4.22,5-21.74,31.71C921.42,907.49,920.56,909,921.4,910.19Z"/>
      <path class="f5d43133-8ecf-4e91-96ca-b5965fa95d95" d="M1283.48,622.77c2.45,3.65,5.07.1,6-1.63,45.17-79.65,55.48-92.25,53.56-95.6-1.74-3-11.37,13.89-58.56,88.08C1283.5,615.23,1281.18,619.33,1283.48,622.77Z"/>
      <path class="f5d43133-8ecf-4e91-96ca-b5965fa95d95" d="M1240.44,500.25c3.22,4.53,6.72.08,8-2.07,60.63-99.51,74.42-115.27,71.91-119.42-2.28-3.77-15.21,17.38-78.47,110.11C1240.54,490.88,1237.42,496,1240.44,500.25Z"/>
      <path class="f5d43133-8ecf-4e91-96ca-b5965fa95d95" d="M1327.54,673.4c1.22,1.84,2.52.05,3-.81,22.45-39.9,27.58-46.21,26.62-47.89-.86-1.52-5.65,6.95-29.11,44.12C1327.55,669.62,1326.39,671.68,1327.54,673.4Z"/>
      <path class="f5d43133-8ecf-4e91-96ca-b5965fa95d95" d="M1244.57,799.92c2.35,3.6,4.83.12,5.75-1.57,42.72-77.93,52.49-90.25,50.66-93.54-1.67-3-10.78,13.58-55.44,86.15C1244.57,792.54,1242.37,796.55,1244.57,799.92Z"/>
      <path class="f5d43133-8ecf-4e91-96ca-b5965fa95d95" d="M1186.25,933.84c2.35,3.6,4.83.12,5.75-1.57,42.72-77.93,52.49-90.25,50.66-93.54-1.67-3-10.78,13.58-55.44,86.15C1186.25,926.46,1184.05,930.47,1186.25,933.84Z"/>
      <path class="f5d43133-8ecf-4e91-96ca-b5965fa95d95" d="M1333.13,970.56c2.35,3.6,4.83.12,5.75-1.57,42.72-77.93,52.49-90.25,50.66-93.54-1.67-3-10.78,13.58-55.44,86.15C1333.13,963.18,1330.93,967.19,1333.13,970.56Z"/>
      <path class="f5d43133-8ecf-4e91-96ca-b5965fa95d95" d="M1145.57,861.48c1.53,2.33,3.14.07,3.74-1,27.74-50.61,34.08-58.61,32.89-60.75-1.08-1.93-7,8.82-36,55.95C1145.57,856.68,1144.14,859.29,1145.57,861.48Z"/>
      <path class="f5d43133-8ecf-4e91-96ca-b5965fa95d95" d="M1036.49,931.68c1.53,2.33,3.14.07,3.74-1,27.74-50.61,34.08-58.61,32.89-60.75-1.08-1.93-7,8.82-36,56C1036.49,926.88,1035.06,929.49,1036.49,931.68Z"/>
      <path class="f5d43133-8ecf-4e91-96ca-b5965fa95d95" d="M1064.78,833.4c.89,1.36,1.83,0,2.18-.6,16.15-29.45,19.84-34.11,19.14-35.35s-4.07,5.13-20.95,32.56C1064.78,830.61,1064,832.12,1064.78,833.4Z"/>
      <path class="f5d43133-8ecf-4e91-96ca-b5965fa95d95" d="M1124.23,769.43c1.2,1.84,2.46.06,2.93-.8,21.84-39.84,26.83-46.13,25.89-47.81s-5.5,6.94-28.33,44C1124.23,765.65,1123.1,767.7,1124.23,769.43Z"/>
      <path class="f5d43133-8ecf-4e91-96ca-b5965fa95d95" d="M1190.15,700.46c1.61,2.46,3.3.08,3.93-1.07,29.15-53.18,35.81-61.58,34.56-63.82-1.14-2-7.35,9.26-37.83,58.78C1190.15,695.42,1188.65,698.16,1190.15,700.46Z"/>
      <path class="f5d43133-8ecf-4e91-96ca-b5965fa95d95" d="M1144,666.9c1,1.47,2,.05,2.36-.64,17.52-32,21.52-37,20.77-38.36s-4.42,5.57-22.73,35.33C1144,663.87,1143.07,665.52,1144,666.9Z"/>
      <path class="f5d43133-8ecf-4e91-96ca-b5965fa95d95" d="M1546.48,537.55c.88,1.17,1.86,0,2.23-.55,17-26,20.84-30.1,20.15-31.17s-4.25,4.54-21.95,28.76C1546.52,535.11,1545.65,536.45,1546.48,537.55Z"/>
      <path class="f5d43133-8ecf-4e91-96ca-b5965fa95d95" d="M1462.24,533.23c.88,1.17,1.86,0,2.23-.55,17-26,20.84-30.1,20.15-31.17s-4.25,4.54-21.95,28.76C1462.28,530.79,1461.41,532.13,1462.24,533.23Z"/>
      <path class="f5d43133-8ecf-4e91-96ca-b5965fa95d95" d="M1459,469.51c.88,1.17,1.86,0,2.23-.55,17-26,20.84-30.1,20.15-31.17s-4.25,4.54-22,28.76C1459,467.07,1458.17,468.41,1459,469.51Z"/>
      <path class="f5d43133-8ecf-4e91-96ca-b5965fa95d95" d="M1406.08,669.31c.88,1.17,1.86,0,2.23-.55,17-26,20.84-30.1,20.15-31.17s-4.25,4.54-22,28.76C1406.12,666.87,1405.25,668.21,1406.08,669.31Z"/>
      <path class="f5d43133-8ecf-4e91-96ca-b5965fa95d95" d="M1364.16,155.42c3.52,5,7.33.1,8.75-2.28,65.89-109.82,80.88-127.22,78.14-131.81-2.49-4.16-16.54,19.18-85.3,121.52C1364.26,145.07,1360.86,150.72,1364.16,155.42Z"/>
      <path class="f5d43133-8ecf-4e91-96ca-b5965fa95d95" d="M1290.69,132.26c2.6,3.71,5.41.07,6.47-1.68C1345.9,49.33,1357,36.46,1355,33.07c-1.84-3.08-12.23,14.18-63.1,89.89C1290.76,124.6,1288.25,128.78,1290.69,132.26Z"/>
    </g>
  </g>
  <g class="a858400e-e3a7-48c2-9de9-4b11639776af">
    <path class="f5d43133-8ecf-4e91-96ca-b5965fa95d95" d="M1596.94,739.66c3.16,2.43,5.87-1.08,6.85-2.71,45.07-75.36,55.87-88,53.35-90.3-2.29-2.09-11.91,13.93-59.82,85.3C1596.28,733.49,1594,737.37,1596.94,739.66Z"/>
  </g>
</svg>
