<svg id="e34762b7-68bd-45da-8f03-d4fa3b685b47" data-name="Layer 1" xmlns="http://www.w3.org/2000/svg" xmlns:xlink="http://www.w3.org/1999/xlink" width="1600" height="900" viewBox="0 0 1600 900">
  <defs>
    <style>
      .b4c328f3-6ca3-4183-a183-29df0dc31616 {
        fill: none;
      }

      .be404e9b-9c08-4572-9830-9cbba4556b18 {
        clip-path: url(#bbff363e-19a3-4f24-9672-baf7a4eb87c1);
      }

      .aa5dec0d-90c8-4821-bd47-eba625c4724b {
        fill: #aefbff;
      }
    </style>
    <clipPath id="bbff363e-19a3-4f24-9672-baf7a4eb87c1">
      <rect class="b4c328f3-6ca3-4183-a183-29df0dc31616" width="1600" height="900" transform="translate(1600 900) rotate(-180)"/>
    </clipPath>
  </defs>
  <g class="be404e9b-9c08-4572-9830-9cbba4556b18">
    <g>
      <path class="aa5dec0d-90c8-4821-bd47-eba625c4724b" d="M1336.46,299.32c3.81,2.57,7-1.53,8.18-3.42,53.32-87.42,66.13-102.26,63.09-104.71-2.76-2.23-14.14,16.36-70.88,99.42C1335.61,292.41,1332.87,296.91,1336.46,299.32Z"/>
      <path class="aa5dec0d-90c8-4821-bd47-eba625c4724b" d="M1229.82,291.85c3.82,2.57,7-1.53,8.19-3.42,53.31-87.41,66.13-102.25,63.09-104.71-2.76-2.22-14.14,16.37-70.89,99.42C1229,284.94,1226.24,289.44,1229.82,291.85Z"/>
      <path class="aa5dec0d-90c8-4821-bd47-eba625c4724b" d="M423.52,271.32c3.82,2.57,7-1.53,8.18-3.42,53.32-87.41,66.14-102.25,63.1-104.71-2.76-2.22-14.14,16.36-70.89,99.42C422.68,264.41,419.93,268.91,423.52,271.32Z"/>
      <path class="aa5dec0d-90c8-4821-bd47-eba625c4724b" d="M324.37,288.12c3.82,2.57,7-1.53,8.18-3.42,53.32-87.41,66.14-102.25,63.09-104.71-2.75-2.22-14.14,16.36-70.88,99.42C323.53,281.21,320.78,285.71,324.37,288.12Z"/>
      <path class="aa5dec0d-90c8-4821-bd47-eba625c4724b" d="M241.22,259.57c3.07,2,5.72-1.27,6.68-2.76,44.22-68.88,54.79-80.62,52.34-82.5-2.21-1.71-11.65,12.93-58.61,78.45C240.61,254.18,238.33,257.73,241.22,259.57Z"/>
      <path class="aa5dec0d-90c8-4821-bd47-eba625c4724b" d="M345.5,390.8c2.23,1.42,4.14-.92,4.84-2,32-49.81,39.62-58.3,37.85-59.66-1.61-1.24-8.43,9.35-42.39,56.73C345.06,386.9,343.41,389.46,345.5,390.8Z"/>
      <path class="aa5dec0d-90c8-4821-bd47-eba625c4724b" d="M126.62,372.14c2.23,1.42,4.14-.92,4.84-2,32-49.82,39.61-58.3,37.85-59.67s-8.43,9.36-42.39,56.74C126.18,368.24,124.53,370.8,126.62,372.14Z"/>
      <path class="aa5dec0d-90c8-4821-bd47-eba625c4724b" d="M68.63,495.32c2.22,1.42,4.14-.92,4.83-2,32-49.82,39.62-58.3,37.85-59.67-1.6-1.24-8.43,9.36-42.39,56.73C68.19,491.42,66.54,494,68.63,495.32Z"/>
      <path class="aa5dec0d-90c8-4821-bd47-eba625c4724b" d="M141.59,566.25c2.22,1.42,4.14-.92,4.83-2,32-49.81,39.62-58.3,37.85-59.66-1.6-1.24-8.43,9.35-42.39,56.73C141.15,562.35,139.5,564.91,141.59,566.25Z"/>
      <path class="aa5dec0d-90c8-4821-bd47-eba625c4724b" d="M-36.14,519.59c2.23,1.42,4.15-.92,4.84-2,32-49.82,39.62-58.3,37.85-59.67-1.6-1.23-8.43,9.36-42.39,56.74C-36.58,515.69-38.22,518.25-36.14,519.59Z"/>
      <path class="aa5dec0d-90c8-4821-bd47-eba625c4724b" d="M-26.78,596.11c2.22,1.42,4.14-.92,4.83-2,32-49.82,39.62-58.31,37.85-59.67-1.6-1.24-8.43,9.35-42.39,56.73C-27.22,592.21-28.87,594.78-26.78,596.11Z"/>
      <path class="aa5dec0d-90c8-4821-bd47-eba625c4724b" d="M174.58,389.43c1.78,1.14,3.3-.73,3.86-1.59,25.48-39.7,31.57-46.46,30.16-47.55s-6.72,7.46-33.78,45.22C174.23,386.33,172.92,388.37,174.58,389.43Z"/>
      <path class="aa5dec0d-90c8-4821-bd47-eba625c4724b" d="M264.38,438c1.77,1.13,3.3-.73,3.85-1.59,25.49-39.7,31.58-46.46,30.17-47.55s-6.72,7.46-33.78,45.22C264,434.85,262.72,436.9,264.38,438Z"/>
      <path class="aa5dec0d-90c8-4821-bd47-eba625c4724b" d="M803.6,411.62c3.82,2.56,7-1.53,8.18-3.42,53.32-87.42,66.14-102.26,63.09-104.71-2.76-2.23-14.14,16.36-70.88,99.42C802.76,404.71,800,409.21,803.6,411.62Z"/>
      <path class="aa5dec0d-90c8-4821-bd47-eba625c4724b" d="M1080.84,689.72c4.69,3.15,8.63-1.88,10-4.2,65.39-107.2,81.11-125.4,77.38-128.41-3.39-2.73-17.34,20.06-86.94,121.93C1079.81,681.24,1076.44,686.76,1080.84,689.72Z"/>
      <path class="aa5dec0d-90c8-4821-bd47-eba625c4724b" d="M596.24,583.71c3.91,2.63,7.21-1.57,8.39-3.51,54.69-89.67,67.84-104.89,64.72-107.41-2.83-2.28-14.5,16.78-72.71,102C595.37,576.62,592.56,581.24,596.24,583.71Z"/>
      <path class="aa5dec0d-90c8-4821-bd47-eba625c4724b" d="M-4.28,400.8c3.92,2.63,7.21-1.58,8.39-3.51C58.81,307.62,72,292.4,68.83,289.88c-2.83-2.29-14.5,16.78-72.71,102C-5.14,393.71-8,398.32-4.28,400.8Z"/>
      <path class="aa5dec0d-90c8-4821-bd47-eba625c4724b" d="M1222.27,645.6c3.72,2.51,6.85-1.49,8-3.33,52-85.2,64.46-99.67,61.5-102.06-2.69-2.17-13.79,15.95-69.1,96.91C1221.45,638.87,1218.78,643.26,1222.27,645.6Z"/>
      <path class="aa5dec0d-90c8-4821-bd47-eba625c4724b" d="M1128.73,802.39c3.73,2.5,6.86-1.49,8-3.34,52-85.2,64.46-99.66,61.5-102.06-2.69-2.17-13.79,16-69.1,96.91C1127.91,795.65,1125.24,800,1128.73,802.39Z"/>
      <path class="aa5dec0d-90c8-4821-bd47-eba625c4724b" d="M1237.57,766.4c2.76,1.5,4.68-1.49,5.34-2.86,30.59-62.93,38.34-73.86,36.11-75.33-2-1.34-8.55,12-41.75,72.24C1236.55,761.76,1235,765,1237.57,766.4Z"/>
      <path class="aa5dec0d-90c8-4821-bd47-eba625c4724b" d="M1168.35,874.66c2.77,1.5,4.68-1.5,5.35-2.86,30.58-62.93,38.33-73.86,36.1-75.34-2-1.33-8.55,12-41.75,72.25C1167.33,870,1165.75,873.25,1168.35,874.66Z"/>
      <path class="aa5dec0d-90c8-4821-bd47-eba625c4724b" d="M1035.52,893.32c2.77,1.5,4.69-1.49,5.35-2.86,30.58-62.93,38.34-73.86,36.11-75.33-2-1.34-8.56,12-41.76,72.24C1034.5,888.68,1032.93,891.92,1035.52,893.32Z"/>
      <path class="aa5dec0d-90c8-4821-bd47-eba625c4724b" d="M769.61,95.87c3.82,2.57,7-1.53,8.19-3.42C831.11,5,843.93-9.8,840.89-12.25,838.13-14.48,826.75,4.11,770,87.16,768.77,89,766,93.46,769.61,95.87Z"/>
      <path class="aa5dec0d-90c8-4821-bd47-eba625c4724b" d="M530.15,278.79c3.82,2.56,7-1.53,8.19-3.42,53.31-87.42,66.13-102.26,63.09-104.71-2.76-2.23-14.14,16.36-70.89,99.42C529.31,271.88,526.57,276.38,530.15,278.79Z"/>
      <path class="aa5dec0d-90c8-4821-bd47-eba625c4724b" d="M1132.54,306.78c3.82,2.57,7-1.53,8.19-3.42,53.31-87.41,66.13-102.25,63.09-104.7-2.76-2.23-14.14,16.36-70.89,99.41C1131.7,299.88,1129,304.38,1132.54,306.78Z"/>
      <path class="aa5dec0d-90c8-4821-bd47-eba625c4724b" d="M1018.42,446.77c3.82,2.57,7-1.53,8.19-3.42,53.32-87.41,66.13-102.25,63.09-104.71-2.76-2.22-14.14,16.36-70.89,99.42C1017.58,439.86,1014.84,444.36,1018.42,446.77Z"/>
      <path class="aa5dec0d-90c8-4821-bd47-eba625c4724b" d="M936,606c2.56,1.72,4.71-1,5.48-2.29,35.71-58.54,44.3-68.48,42.26-70.12-1.85-1.49-9.47,11-47.48,66.58C935.42,601.42,933.58,604.43,936,606Z"/>
      <path class="aa5dec0d-90c8-4821-bd47-eba625c4724b" d="M873.61,511.26c2.32,2,4.8-.41,5.73-1.57,42.91-53.51,52.7-62.27,50.89-64.16-1.64-1.71-10.79,9.66-55.61,60C873.64,506.6,871.43,509.36,873.61,511.26Z"/>
      <path class="aa5dec0d-90c8-4821-bd47-eba625c4724b" d="M753.86,559.83c3.51,2.36,6.54-1.38,7.63-3.11,50.47-79.8,62.53-93.34,59.74-95.6-2.53-2-13.31,14.93-66.91,90.74C753.16,553.51,750.56,557.61,753.86,559.83Z"/>
      <path class="aa5dec0d-90c8-4821-bd47-eba625c4724b" d="M931.39,517.42c1.49,1.3,3.08-.27,3.68-1,27.49-34.28,33.77-39.9,32.61-41.11s-6.92,6.19-35.64,38.44C931.42,514.43,930,516.2,931.39,517.42Z"/>
      <path class="aa5dec0d-90c8-4821-bd47-eba625c4724b" d="M800.44,342c1.48,1.3,3.08-.26,3.67-1,27.5-34.29,33.77-39.9,32.61-41.12s-6.92,6.19-35.64,38.44C800.46,339,799.05,340.75,800.44,342Z"/>
      <path class="aa5dec0d-90c8-4821-bd47-eba625c4724b" d="M714.38,246.78c1.49,1.3,3.08-.26,3.68-1,27.5-34.29,33.77-39.9,32.61-41.12s-6.92,6.19-35.64,38.44C714.41,243.8,713,245.56,714.38,246.78Z"/>
      <path class="aa5dec0d-90c8-4821-bd47-eba625c4724b" d="M852.82,450.23c1.49,1.3,3.08-.27,3.67-1,27.5-34.29,33.77-39.9,32.61-41.11s-6.91,6.19-35.63,38.43C852.84,447.24,851.43,449,852.82,450.23Z"/>
      <path class="aa5dec0d-90c8-4821-bd47-eba625c4724b" d="M581.56,709.67c1.48,1.3,3.08-.27,3.67-1,27.5-34.29,33.77-39.9,32.61-41.11s-6.92,6.19-35.64,38.43C581.58,706.68,580.17,708.45,581.56,709.67Z"/>
      <path class="aa5dec0d-90c8-4821-bd47-eba625c4724b" d="M572.21,694.74c1.48,1.3,3.07-.27,3.67-1,27.5-34.29,33.77-39.9,32.61-41.11s-6.92,6.19-35.64,38.43C572.23,691.75,570.81,693.51,572.21,694.74Z"/>
      <path class="aa5dec0d-90c8-4821-bd47-eba625c4724b" d="M504.84,628.09c1.1,1.15,2.21-.16,2.62-.78,19-28.72,23.34-33.38,22.47-34.45s-4.83,5.14-24.72,32.08C504.78,625.53,503.8,627,504.84,628.09Z"/>
      <path class="aa5dec0d-90c8-4821-bd47-eba625c4724b" d="M512.32,684.08c1.1,1.15,2.21-.15,2.62-.78,19-28.71,23.34-33.37,22.48-34.44s-4.83,5.14-24.73,32.08C512.26,681.52,511.29,683,512.32,684.08Z"/>
      <path class="aa5dec0d-90c8-4821-bd47-eba625c4724b" d="M448.71,831.53c1.11,1.15,2.21-.15,2.62-.77,19-28.72,23.34-33.38,22.48-34.45s-4.83,5.14-24.72,32.08C448.66,829,447.68,830.45,448.71,831.53Z"/>
      <path class="aa5dec0d-90c8-4821-bd47-eba625c4724b" d="M381.37,900.59c1.1,1.15,2.21-.15,2.62-.78,19-28.71,23.34-33.37,22.47-34.44s-4.83,5.14-24.72,32.08C381.31,898,380.33,899.51,381.37,900.59Z"/>
      <path class="aa5dec0d-90c8-4821-bd47-eba625c4724b" d="M357.19,853.23c2.14,2.39,4.24-.26,5-1.53,35.75-58.5,44.05-68,42.36-70.18-1.52-2-9.15,10.44-46.72,65.27C357,848,355.18,851,357.19,853.23Z"/>
      <path class="aa5dec0d-90c8-4821-bd47-eba625c4724b" d="M321.76,794.52c3.22,4,6.24-.31,7.34-2.35,51.06-94.3,63-109.48,60.48-113.12-2.31-3.31-13.2,16.73-67.05,105C321.36,786,318.73,790.81,321.76,794.52Z"/>
      <path class="aa5dec0d-90c8-4821-bd47-eba625c4724b" d="M432,754.11c2.11,2.84,4-.14,4.66-1.57,31.41-66,38.86-76.62,37.19-79.23-1.52-2.37-8.22,11.67-41.49,73.41C431.59,748.06,430,751.45,432,754.11Z"/>
      <path class="aa5dec0d-90c8-4821-bd47-eba625c4724b" d="M233.65,866.1c2.1,2.83,4-.14,4.66-1.57,31.41-66,38.85-76.62,37.19-79.23C274,782.93,267.28,797,234,858.71,233.29,860,231.67,863.44,233.65,866.1Z"/>
      <path class="aa5dec0d-90c8-4821-bd47-eba625c4724b" d="M413.38,634.4c2.72,3.23,5.32-.3,6.28-2C463.76,554.53,474.05,542,471.9,539c-1.95-2.71-11.36,13.85-57.81,86.79C413.08,627.35,410.81,631.36,413.38,634.4Z"/>
      <path class="aa5dec0d-90c8-4821-bd47-eba625c4724b" d="M166.36,718.7c2.23,2.69,4.34-.23,5.11-1.62,35.69-64.5,44-74.89,42.28-77.38-1.6-2.25-9.21,11.46-46.83,71.84C166.1,712.85,164.26,716.17,166.36,718.7Z"/>
      <path class="aa5dec0d-90c8-4821-bd47-eba625c4724b" d="M277,663.61c3.9,4.33,7.72-.48,9.13-2.78,65.16-106.14,80.29-123.31,77.22-127.31-2.78-3.64-16.69,18.92-85.17,118.4C276.71,654.08,273.35,659.54,277,663.61Z"/>
      <path class="aa5dec0d-90c8-4821-bd47-eba625c4724b" d="M233.76,565.66c2.38,2.62,4.72-.3,5.59-1.7,40-64.45,49.22-74.88,47.35-77.31-1.7-2.2-10.22,11.5-52.21,71.92C233.58,559.88,231.53,563.19,233.76,565.66Z"/>
      <path class="aa5dec0d-90c8-4821-bd47-eba625c4724b" d="M235.49,747.29c1.46,1.59,2.9-.18,3.43-1,24.55-39.15,30.24-45.49,29.1-47s-6.28,7-32.07,43.69C235.39,743.79,234.13,745.8,235.49,747.29Z"/>
      <path class="aa5dec0d-90c8-4821-bd47-eba625c4724b" d="M349.61,646.51c1.46,1.58,2.89-.19,3.43-1,24.55-39.15,30.24-45.48,29.09-47s-6.27,7-32.06,43.68C349.51,643,348.24,645,349.61,646.51Z"/>
      <path class="aa5dec0d-90c8-4821-bd47-eba625c4724b" d="M420.7,534.52c1.45,1.59,2.89-.19,3.42-1,24.56-39.14,30.25-45.48,29.1-47s-6.27,7-32.06,43.68C420.6,531,419.33,533,420.7,534.52Z"/>
      <path class="aa5dec0d-90c8-4821-bd47-eba625c4724b" d="M359,495.32c1.46,1.59,2.9-.19,3.43-1,24.55-39.15,30.24-45.49,29.1-47s-6.28,7-32.07,43.69C358.86,491.81,357.6,493.83,359,495.32Z"/>
      <path class="aa5dec0d-90c8-4821-bd47-eba625c4724b" d="M418.83,368.4c1.45,1.59,2.89-.19,3.42-1,24.56-39.15,30.25-45.49,29.1-47s-6.27,7-32.06,43.69C418.73,364.89,417.46,366.91,418.83,368.4Z"/>
      <path class="aa5dec0d-90c8-4821-bd47-eba625c4724b" d="M484.31,243.35c1.45,1.59,2.89-.19,3.42-1,24.55-39.14,30.24-45.48,29.1-46.95s-6.28,7-32.07,43.69C484.2,239.84,482.94,241.86,484.31,243.35Z"/>
      <path class="aa5dec0d-90c8-4821-bd47-eba625c4724b" d="M359,303.08c1.46,1.59,2.9-.19,3.43-1,24.55-39.15,30.24-45.48,29.1-47s-6.28,7-32.07,43.68C358.86,299.57,357.6,301.58,359,303.08Z"/>
      <path class="aa5dec0d-90c8-4821-bd47-eba625c4724b" d="M261.68,620.38c1.46,1.58,2.9-.19,3.43-1,24.55-39.15,30.24-45.48,29.1-47s-6.28,7-32.07,43.68C261.58,616.87,260.32,618.88,261.68,620.38Z"/>
      <path class="aa5dec0d-90c8-4821-bd47-eba625c4724b" d="M128.86,810.75c1.45,1.59,2.89-.18,3.42-1,24.56-39.15,30.25-45.49,29.1-47s-6.27,7-32.06,43.69C128.76,807.25,127.49,809.26,128.86,810.75Z"/>
      <path class="aa5dec0d-90c8-4821-bd47-eba625c4724b" d="M108.28,900.35c1.46,1.58,2.89-.19,3.43-1,24.55-39.15,30.24-45.48,29.09-46.95s-6.27,7-32.06,43.68C108.18,896.84,106.91,898.85,108.28,900.35Z"/>
      <path class="aa5dec0d-90c8-4821-bd47-eba625c4724b" d="M57.77,637.17c1.46,1.59,2.89-.18,3.43-1,24.55-39.15,30.24-45.49,29.09-47s-6.27,7-32.06,43.69C57.67,633.67,56.4,635.68,57.77,637.17Z"/>
      <path class="aa5dec0d-90c8-4821-bd47-eba625c4724b" d="M102.67,724.9c1.45,1.59,2.89-.19,3.42-1,24.56-39.14,30.25-45.48,29.1-47s-6.27,7-32.06,43.68C102.57,721.39,101.3,723.4,102.67,724.9Z"/>
      <path class="aa5dec0d-90c8-4821-bd47-eba625c4724b" d="M173.76,620.38c1.45,1.58,2.89-.19,3.42-1,24.56-39.15,30.25-45.48,29.1-47s-6.28,7-32.06,43.68C173.66,616.87,172.39,618.88,173.76,620.38Z"/>
      <path class="aa5dec0d-90c8-4821-bd47-eba625c4724b" d="M121.38,502.79c1.45,1.59,2.89-.19,3.42-1,24.55-39.14,30.24-45.48,29.1-46.95s-6.28,7-32.07,43.68C121.27,499.28,120,501.3,121.38,502.79Z"/>
      <path class="aa5dec0d-90c8-4821-bd47-eba625c4724b" d="M42.8,435.59c1.46,1.59,2.9-.18,3.43-1,24.55-39.15,30.24-45.49,29.1-47s-6.28,7-32.07,43.69C42.7,432.09,41.44,434.1,42.8,435.59Z"/>
      <path class="aa5dec0d-90c8-4821-bd47-eba625c4724b" d="M-.22,323.61c1.45,1.59,2.89-.19,3.42-1,24.55-39.15,30.24-45.48,29.1-46.95S26,282.6.23,319.3C-.33,320.1-1.59,322.11-.22,323.61Z"/>
      <path class="aa5dec0d-90c8-4821-bd47-eba625c4724b" d="M772.42,614.12c1.86,1.63,3.86-.34,4.61-1.27,34.55-43.07,42.43-50.13,41-51.65s-8.69,7.78-44.77,48.29C772.45,610.36,770.67,612.58,772.42,614.12Z"/>
      <path class="aa5dec0d-90c8-4821-bd47-eba625c4724b" d="M723.71,732c2.65,1.6,4.58-1.28,5.25-2.6,31.15-61,38.93-71.47,36.8-73-1.92-1.41-8.58,11.56-42.2,69.71C722.83,727.34,721.23,730.47,723.71,732Z"/>
      <path class="aa5dec0d-90c8-4821-bd47-eba625c4724b" d="M765.83,766.7c2.31,2.06,4.74-.42,5.64-1.6,41.86-54.23,51.44-63.1,49.64-65-1.64-1.74-10.57,9.79-54.34,60.78C765.82,762,763.67,764.76,765.83,766.7Z"/>
      <path class="aa5dec0d-90c8-4821-bd47-eba625c4724b" d="M679.66,876.94c1.86,1.93,3.72-.28,4.4-1.33,31.69-48.45,39-56.32,37.56-58.11-1.33-1.62-8.09,8.68-41.35,54.14C679.55,872.63,677.92,875.12,679.66,876.94Z"/>
      <path class="aa5dec0d-90c8-4821-bd47-eba625c4724b" d="M634.77,820.94c1.85,1.93,3.71-.27,4.39-1.32,31.69-48.46,39-56.33,37.56-58.12-1.33-1.62-8.09,8.68-41.35,54.15C634.65,816.64,633,819.13,634.77,820.94Z"/>
      <path class="aa5dec0d-90c8-4821-bd47-eba625c4724b" d="M797.52,834c1.86,1.93,3.72-.28,4.4-1.32,31.69-48.46,39-56.33,37.56-58.12-1.33-1.62-8.09,8.68-41.35,54.14C797.41,829.7,795.78,832.19,797.52,834Z"/>
      <path class="aa5dec0d-90c8-4821-bd47-eba625c4724b" d="M842.42,897.47c1.86,1.93,3.71-.28,4.4-1.32,31.69-48.46,39-56.33,37.56-58.12-1.33-1.62-8.09,8.68-41.35,54.14C842.31,893.16,840.67,895.65,842.42,897.47Z"/>
      <path class="aa5dec0d-90c8-4821-bd47-eba625c4724b" d="M990.21,863.87c1.86,1.93,3.72-.27,4.4-1.32,31.69-48.46,39-56.33,37.56-58.12-1.33-1.62-8.09,8.68-41.35,54.15C990.1,859.56,988.47,862.06,990.21,863.87Z"/>
      <path class="aa5dec0d-90c8-4821-bd47-eba625c4724b" d="M610.45,904.93c1.85,1.93,3.71-.27,4.39-1.32,31.69-48.46,39-56.33,37.56-58.11s-8.09,8.67-41.35,54.14C610.33,900.63,608.7,903.12,610.45,904.93Z"/>
      <path class="aa5dec0d-90c8-4821-bd47-eba625c4724b" d="M808.2,656.85c2.95,3,5.95-.42,7-2.08,51.23-76.32,63-88.71,60.72-91.54-2.1-2.56-13,13.66-66.74,85.27C808.06,650.06,805.43,654,808.2,656.85Z"/>
      <path class="aa5dec0d-90c8-4821-bd47-eba625c4724b" d="M581.84,793.1c2.95,3,5.94-.42,7-2.07,51.22-76.33,63-88.72,60.72-91.55-2.11-2.56-13,13.67-66.74,85.28C581.7,786.31,579.06,790.24,581.84,793.1Z"/>
      <path class="aa5dec0d-90c8-4821-bd47-eba625c4724b" d="M510.75,903.22c3,3,5.94-.42,7-2.07,51.22-76.33,63-88.72,60.72-91.54-2.11-2.57-13,13.66-66.74,85.27C510.61,896.43,508,900.36,510.75,903.22Z"/>
      <path class="aa5dec0d-90c8-4821-bd47-eba625c4724b" d="M617.39,657.18c2.71,2.39,5.6-.48,6.68-1.84C674,592.48,685.39,582.19,683.28,580c-1.92-2-12.57,11.34-64.72,70.45C617.43,651.69,614.86,654.93,617.39,657.18Z"/>
      <path class="aa5dec0d-90c8-4821-bd47-eba625c4724b" d="M684.65,653.79c2.14,1.79,4.46-.4,5.32-1.44,40.12-48,49.24-55.86,47.58-57.53-1.51-1.52-10.07,8.68-51.93,53.83C684.71,649.63,682.65,652.1,684.65,653.79Z"/>
      <path class="aa5dec0d-90c8-4821-bd47-eba625c4724b" d="M551.83,651.92c2.13,1.8,4.45-.4,5.32-1.44,40.11-48,49.24-55.85,47.57-57.53-1.51-1.51-10.07,8.68-51.92,53.84C551.89,647.76,549.82,650.23,551.83,651.92Z"/>
      <path class="aa5dec0d-90c8-4821-bd47-eba625c4724b" d="M1085.77,108.94c3.82,2.57,7-1.53,8.19-3.42C1147.27,18.1,1160.09,3.27,1157.05.81c-2.76-2.23-14.14,16.36-70.89,99.42C1084.93,102,1082.19,106.53,1085.77,108.94Z"/>
      <path class="aa5dec0d-90c8-4821-bd47-eba625c4724b" d="M958.44,292.42c2.67,1.8,4.92-1.07,5.72-2.39,37.27-61.1,46.23-71.47,44.1-73.18-1.93-1.56-9.88,11.43-49.54,69.48C957.86,287.59,955.94,290.74,958.44,292.42Z"/>
      <path class="aa5dec0d-90c8-4821-bd47-eba625c4724b" d="M148.4,277.49c2.67,1.79,4.91-1.07,5.72-2.39,37.27-61.1,46.22-71.47,44.1-73.18-1.93-1.56-9.88,11.43-49.55,69.48C147.81,272.66,145.89,275.81,148.4,277.49Z"/>
      <path class="aa5dec0d-90c8-4821-bd47-eba625c4724b" d="M223.23,411.88c2.67,1.79,4.92-1.07,5.72-2.4,37.27-61.09,46.22-71.46,44.1-73.18-1.93-1.56-9.88,11.44-49.55,69.49C222.64,407.05,220.72,410.19,223.23,411.88Z"/>
      <path class="aa5dec0d-90c8-4821-bd47-eba625c4724b" d="M73.57,686.25c2.67,1.79,4.91-1.07,5.72-2.39,37.27-61.1,46.22-71.47,44.1-73.19-1.93-1.55-9.89,11.44-49.55,69.49C73,681.42,71.06,684.56,73.57,686.25Z"/>
      <path class="aa5dec0d-90c8-4821-bd47-eba625c4724b" d="M15.58,617.19c2.66,1.79,4.91-1.07,5.72-2.39,37.26-61.1,46.22-71.47,44.09-73.19-1.93-1.55-9.88,11.44-49.54,69.49C15,612.36,13.07,615.5,15.58,617.19Z"/>
      <path class="aa5dec0d-90c8-4821-bd47-eba625c4724b" d="M-29.32,736.64c2.67,1.8,4.91-1.07,5.72-2.39,37.26-61.1,46.22-71.47,44.09-73.18-1.92-1.56-9.88,11.43-49.54,69.48C-29.91,731.81-31.83,735-29.32,736.64Z"/>
      <path class="aa5dec0d-90c8-4821-bd47-eba625c4724b" d="M-3.13,815c2.67,1.8,4.91-1.07,5.72-2.39,37.26-61.1,46.22-71.47,44.1-73.18C44.76,737.9,36.8,750.89-2.86,809-3.72,810.2-5.64,813.35-3.13,815Z"/>
      <path class="aa5dec0d-90c8-4821-bd47-eba625c4724b" d="M21.19,900.89c2.67,1.79,4.91-1.07,5.72-2.39C64.17,837.4,73.13,827,71,825.32c-1.93-1.56-9.89,11.43-49.55,69.48C20.6,896.06,18.68,899.21,21.19,900.89Z"/>
      <path class="aa5dec0d-90c8-4821-bd47-eba625c4724b" d="M923.24,405.65c2.49,2,5-.6,5.92-1.84C972,346.48,981.91,337,980,335.08c-1.78-1.73-10.92,10.46-55.87,64.54C923.11,400.79,920.9,403.74,923.24,405.65Z"/>
      <path class="aa5dec0d-90c8-4821-bd47-eba625c4724b" d="M627.66,269.4c2.49,2,5-.6,5.92-1.84,42.85-57.34,52.75-66.82,50.79-68.73-1.77-1.73-10.91,10.46-55.87,64.54C627.53,264.54,625.32,267.49,627.66,269.4Z"/>
      <path class="aa5dec0d-90c8-4821-bd47-eba625c4724b" d="M604.37,414.05c3.64,3.06,7.26-.86,8.6-2.71,61.8-85.3,76.1-99.39,73.24-102.25-2.59-2.61-15.78,15.53-80.66,96C604.14,406.78,601,411.17,604.37,414.05Z"/>
      <path class="aa5dec0d-90c8-4821-bd47-eba625c4724b" d="M512.48,483.75c2.3,2.08,4.52-.5,5.34-1.73,37.79-56.42,46.59-65.7,44.78-67.65-1.65-1.76-9.71,10.24-49.47,63.37C512.26,478.89,510.32,481.8,512.48,483.75Z"/>
      <path class="aa5dec0d-90c8-4821-bd47-eba625c4724b" d="M587.31,366.16c2.3,2.09,4.52-.5,5.34-1.72,37.79-56.43,46.59-65.71,44.78-67.65C635.78,295,627.72,307,588,360.15,587.09,361.3,585.15,364.21,587.31,366.16Z"/>
      <path class="aa5dec0d-90c8-4821-bd47-eba625c4724b" d="M708.91,448.29c2.3,2.08,4.52-.51,5.34-1.73,37.79-56.42,46.59-65.7,44.78-67.65-1.65-1.76-9.71,10.23-49.47,63.37C708.69,443.43,706.75,446.33,708.91,448.29Z"/>
      <path class="aa5dec0d-90c8-4821-bd47-eba625c4724b" d="M620.91,460c1.6,1.24,3.23-.4,3.84-1.17,28.06-35.59,34.52-41.5,33.27-42.66s-7.12,6.51-36.52,40.11C620.86,457,619.42,458.81,620.91,460Z"/>
      <path class="aa5dec0d-90c8-4821-bd47-eba625c4724b" d="M705.1,385.31c1.59,1.24,3.23-.4,3.84-1.17,28.06-35.59,34.51-41.5,33.26-42.66s-7.12,6.51-36.52,40.11C705.05,382.32,703.6,384.15,705.1,385.31Z"/>
      <path class="aa5dec0d-90c8-4821-bd47-eba625c4724b" d="M562.92,495.43c1.59,1.24,3.23-.4,3.84-1.17,28.06-35.59,34.51-41.5,33.26-42.66s-7.12,6.51-36.51,40.11C562.87,492.44,561.42,494.27,562.92,495.43Z"/>
      <path class="aa5dec0d-90c8-4821-bd47-eba625c4724b" d="M688.26,544c1.6,1.24,3.23-.4,3.84-1.17,28.06-35.59,34.52-41.5,33.27-42.66s-7.13,6.51-36.52,40.11C688.21,541,686.76,542.8,688.26,544Z"/>
      <path class="aa5dec0d-90c8-4821-bd47-eba625c4724b" d="M557.31,564.49c1.59,1.24,3.23-.4,3.83-1.17,28.07-35.59,34.52-41.5,33.27-42.66s-7.12,6.51-36.52,40.11C557.26,561.5,555.81,563.33,557.31,564.49Z"/>
      <path class="aa5dec0d-90c8-4821-bd47-eba625c4724b" d="M883.57,260.91c2.22,1.5,4.09-.89,4.76-2,31-50.88,38.49-59.51,36.72-60.94-1.6-1.3-8.23,9.52-41.26,57.86C883.08,256.89,881.48,259.51,883.57,260.91Z"/>
      <path class="aa5dec0d-90c8-4821-bd47-eba625c4724b" d="M1035.26,297.45c3.82,2.57,7-1.53,8.19-3.42,53.31-87.41,66.13-102.25,63.09-104.71-2.76-2.22-14.14,16.36-70.89,99.42C1034.42,290.54,1031.67,295,1035.26,297.45Z"/>
      <path class="aa5dec0d-90c8-4821-bd47-eba625c4724b" d="M739.68,316.12c3.82,2.56,7-1.53,8.18-3.42C801.18,225.28,814,210.44,811,208c-2.76-2.23-14.14,16.36-70.89,99.42C738.84,309.21,736.09,313.71,739.68,316.12Z"/>
      <path class="aa5dec0d-90c8-4821-bd47-eba625c4724b" d="M915.9,96.81c3,2,5.52-1.2,6.43-2.69,41.85-68.62,51.91-80.27,49.53-82.19-2.17-1.75-11.1,12.84-55.65,78C915.24,91.38,913.09,94.92,915.9,96.81Z"/>
      <path class="aa5dec0d-90c8-4821-bd47-eba625c4724b" d="M577.29,102.41c3,2,5.52-1.2,6.43-2.69,41.85-68.62,51.92-80.27,49.53-82.2-2.17-1.74-11.1,12.85-55.65,78.05C576.63,97,574.48,100.52,577.29,102.41Z"/>
      <path class="aa5dec0d-90c8-4821-bd47-eba625c4724b" d="M460.15,100.7c3.55,2.26,6.62-1.47,7.72-3.18,51.2-79.22,63.42-92.72,60.6-94.88-2.56-2-13.49,14.88-67.83,90.24C459.46,94.51,456.82,98.59,460.15,100.7Z"/>
      <path class="aa5dec0d-90c8-4821-bd47-eba625c4724b" d="M362.87,115.64c3.55,2.25,6.62-1.47,7.72-3.19,51.2-79.22,63.42-92.72,60.6-94.88-2.56-2-13.49,14.88-67.83,90.24C362.18,109.44,359.54,113.52,362.87,115.64Z"/>
      <path class="aa5dec0d-90c8-4821-bd47-eba625c4724b" d="M282.32,73c2.92,2,5.33-1.15,6.19-2.61,40-67.47,49.61-78.9,47.29-80.82-2.11-1.74-10.64,12.61-53.23,76.68C281.65,67.59,279.59,71.06,282.32,73Z"/>
      <path class="aa5dec0d-90c8-4821-bd47-eba625c4724b" d="M98.87,64.89c2.58,2.42,5.43-.35,6.5-1.67C154.78,2.3,166-7.61,164-9.84c-1.83-2-12.37,10.91-63.88,68.09C99,59.49,96.44,62.63,98.87,64.89Z"/>
      <path class="aa5dec0d-90c8-4821-bd47-eba625c4724b" d="M16.69,65.68c2.16,2.1,4.22-.42,5-1.61C56.59,8.94,64.74-.08,63-2c-1.55-1.78-9,9.94-45.78,61.78C16.46,60.88,14.66,63.71,16.69,65.68Z"/>
      <path class="aa5dec0d-90c8-4821-bd47-eba625c4724b" d="M-24.46,48.88c2.16,2.1,4.22-.42,5-1.61C15.43-7.86,23.58-16.88,21.88-18.83,20.33-20.6,12.88-8.89-23.9,43-24.69,44.08-26.49,46.91-24.46,48.88Z"/>
      <path class="aa5dec0d-90c8-4821-bd47-eba625c4724b" d="M1362.65,105.21c3.82,2.56,7-1.53,8.18-3.43C1424.15,14.37,1437-.47,1433.92-2.92c-2.76-2.23-14.14,16.36-70.88,99.42C1361.81,98.3,1359.06,102.8,1362.65,105.21Z"/>
      <path class="aa5dec0d-90c8-4821-bd47-eba625c4724b" d="M1272,69.38c2.64,1.75,4.88-1.07,5.69-2.37,37.23-60,46.16-70.25,44.06-71.92-1.91-1.52-9.86,11.25-49.45,68.32C1271.39,64.65,1269.47,67.74,1272,69.38Z"/>
      <path class="aa5dec0d-90c8-4821-bd47-eba625c4724b" d="M1168.14,139.81c1.9,1.25,3.5-.77,4.08-1.7C1199,95,1205.36,87.67,1203.85,86.47s-7.07,8.08-35.5,49.05C1167.73,136.41,1166.36,138.63,1168.14,139.81Z"/>
      <path class="aa5dec0d-90c8-4821-bd47-eba625c4724b" d="M1001.64,123c1.9,1.25,3.5-.77,4.08-1.7,26.73-43.11,33.14-50.44,31.63-51.64s-7.07,8.08-35.5,49.05C1001.24,119.61,999.86,121.83,1001.64,123Z"/>
      <path class="aa5dec0d-90c8-4821-bd47-eba625c4724b" d="M779,160.34c1.89,1.25,3.5-.77,4.08-1.7,26.73-43.11,33.14-50.44,31.63-51.64s-7.07,8.08-35.5,49.05C778.61,156.94,777.24,159.16,779,160.34Z"/>
      <path class="aa5dec0d-90c8-4821-bd47-eba625c4724b" d="M857.59,184.6c1.9,1.26,3.5-.77,4.08-1.7,26.73-43.11,33.14-50.44,31.63-51.64s-7.07,8.08-35.5,49.06C857.19,181.2,855.81,183.42,857.59,184.6Z"/>
      <path class="aa5dec0d-90c8-4821-bd47-eba625c4724b" d="M681.74,117.41c1.89,1.25,3.5-.77,4.08-1.7C712.55,72.6,719,65.27,717.45,64.07s-7.07,8.08-35.5,49.05C681.33,114,680,116.23,681.74,117.41Z"/>
      <path class="aa5dec0d-90c8-4821-bd47-eba625c4724b" d="M749.09,50.22c1.89,1.25,3.5-.77,4.08-1.7C779.9,5.41,786.31-1.92,784.8-3.12S777.72,5,749.3,45.93C748.68,46.82,747.3,49,749.09,50.22Z"/>
      <path class="aa5dec0d-90c8-4821-bd47-eba625c4724b" d="M1297.22,255.53c1.9,1.25,3.51-.77,4.08-1.7,26.73-43.11,33.14-50.44,31.63-51.64s-7.07,8.08-35.5,49.05C1296.82,252.13,1295.44,254.35,1297.22,255.53Z"/>
      <path class="aa5dec0d-90c8-4821-bd47-eba625c4724b" d="M1448.7,127.6c3.82,2.57,7-1.53,8.19-3.42C1510.2,36.77,1523,21.93,1520,19.48c-2.76-2.23-14.14,16.36-70.89,99.41C1447.86,120.7,1445.12,125.19,1448.7,127.6Z"/>
      <path class="aa5dec0d-90c8-4821-bd47-eba625c4724b" d="M1503,267.59c3.82,2.57,7-1.53,8.19-3.42,53.32-87.42,66.13-102.25,63.09-104.71-2.76-2.23-14.14,16.36-70.89,99.42C1502.11,260.68,1499.37,265.18,1503,267.59Z"/>
      <path class="aa5dec0d-90c8-4821-bd47-eba625c4724b" d="M1397.26,386.41c2.94,2.24,5.24-1.08,6-2.62,37.65-71.21,46.87-83.2,44.52-85.32-2.13-1.93-10.17,13.21-50.52,80.71C1396.44,380.65,1394.5,384.31,1397.26,386.41Z"/>
      <path class="aa5dec0d-90c8-4821-bd47-eba625c4724b" d="M428.2,438.68c2.94,2.23,5.24-1.08,6.05-2.63,37.65-71.21,46.87-83.2,44.52-85.32-2.13-1.93-10.17,13.21-50.52,80.72C427.38,432.91,425.44,436.57,428.2,438.68Z"/>
      <path class="aa5dec0d-90c8-4821-bd47-eba625c4724b" d="M1501.08,482.23c3.82,2.57,7-1.53,8.19-3.42,53.31-87.41,66.13-102.25,63.09-104.71-2.76-2.22-14.14,16.36-70.89,99.42C1500.24,475.32,1497.5,479.82,1501.08,482.23Z"/>
      <path class="aa5dec0d-90c8-4821-bd47-eba625c4724b" d="M1322.46,495.09c2.41,1.5,4.51-1,5.26-2.16,35.08-53.35,43.44-62.45,41.53-63.9-1.73-1.31-9.22,10-46.44,60.8C1322,490.93,1320.2,493.68,1322.46,495.09Z"/>
      <path class="aa5dec0d-90c8-4821-bd47-eba625c4724b" d="M1238.27,442.83c2.41,1.5,4.51-1,5.27-2.17,35.08-53.34,43.44-62.44,41.53-63.89-1.74-1.31-9.23,10-46.44,60.8C1237.82,438.67,1236,441.42,1238.27,442.83Z"/>
      <path class="aa5dec0d-90c8-4821-bd47-eba625c4724b" d="M1490.83,357c2.41,1.5,4.5-1,5.26-2.16,35.08-53.35,43.44-62.45,41.53-63.89-1.73-1.31-9.22,10-46.44,60.79C1490.38,352.81,1488.57,355.56,1490.83,357Z"/>
      <path class="aa5dec0d-90c8-4821-bd47-eba625c4724b" d="M1361.75,530.55c2.4,1.5,4.5-1,5.26-2.16,35.08-53.35,43.44-62.45,41.53-63.89-1.74-1.31-9.22,10-46.44,60.79C1361.29,526.39,1359.49,529.14,1361.75,530.55Z"/>
      <path class="aa5dec0d-90c8-4821-bd47-eba625c4724b" d="M1359.87,597.74c2.41,1.5,4.51-1,5.27-2.16,35.08-53.35,43.44-62.45,41.53-63.89-1.74-1.31-9.23,10-46.44,60.8C1359.42,593.59,1357.61,596.33,1359.87,597.74Z"/>
      <path class="aa5dec0d-90c8-4821-bd47-eba625c4724b" d="M1369.23,663.07c2.41,1.5,4.5-1,5.26-2.16,35.08-53.35,43.44-62.45,41.53-63.89-1.73-1.31-9.22,10-46.44,60.79C1368.77,658.91,1367,661.66,1369.23,663.07Z"/>
      <path class="aa5dec0d-90c8-4821-bd47-eba625c4724b" d="M1393.6,725c1.53,1,2.88-.64,3.36-1.38,22.44-34.12,27.78-39.94,26.56-40.86s-5.9,6.41-29.7,38.88C1393.31,722.37,1392.15,724.13,1393.6,725Z"/>
      <path class="aa5dec0d-90c8-4821-bd47-eba625c4724b" d="M1309.41,644.77c1.54,1,2.88-.64,3.37-1.38,22.43-34.12,27.78-39.94,26.56-40.86s-5.9,6.42-29.7,38.88C1309.12,642.11,1308,643.87,1309.41,644.77Z"/>
      <path class="aa5dec0d-90c8-4821-bd47-eba625c4724b" d="M1152.27,667.17c1.54,1,2.88-.64,3.36-1.38,22.44-34.12,27.78-39.94,26.56-40.86s-5.9,6.41-29.7,38.88C1152,664.51,1150.82,666.27,1152.27,667.17Z"/>
      <path class="aa5dec0d-90c8-4821-bd47-eba625c4724b" d="M1068.08,639.17c1.54,1,2.88-.64,3.37-1.38,22.43-34.12,27.78-39.94,26.56-40.86s-5.9,6.42-29.7,38.88C1067.79,636.52,1066.64,638.27,1068.08,639.17Z"/>
      <path class="aa5dec0d-90c8-4821-bd47-eba625c4724b" d="M980.16,637.31c1.53,1,2.88-.65,3.36-1.39,22.44-34.11,27.78-39.93,26.56-40.86s-5.9,6.42-29.7,38.88C979.87,634.65,978.71,636.4,980.16,637.31Z"/>
      <path class="aa5dec0d-90c8-4821-bd47-eba625c4724b" d="M1075.56,448.79c1.54,1,2.89-.64,3.37-1.38,22.44-34.12,27.78-39.94,26.56-40.86s-5.9,6.42-29.7,38.88C1075.27,446.14,1074.12,447.89,1075.56,448.79Z"/>
      <path class="aa5dec0d-90c8-4821-bd47-eba625c4724b" d="M985.77,398.4c1.54,1,2.88-.65,3.36-1.38,22.44-34.12,27.78-39.94,26.56-40.86s-5.9,6.41-29.7,38.88C985.48,395.74,984.32,397.5,985.77,398.4Z"/>
      <path class="aa5dec0d-90c8-4821-bd47-eba625c4724b" d="M1169.1,506.65c1.54,1,2.88-.64,3.37-1.38,22.43-34.12,27.78-39.94,26.56-40.86s-5.9,6.42-29.7,38.88C1168.81,504,1167.66,505.75,1169.1,506.65Z"/>
      <path class="aa5dec0d-90c8-4821-bd47-eba625c4724b" d="M1172.84,450.66c1.54,1,2.89-.64,3.37-1.38,22.44-34.12,27.78-39.94,26.56-40.86s-5.9,6.41-29.7,38.88C1172.55,448,1171.4,449.76,1172.84,450.66Z"/>
      <path class="aa5dec0d-90c8-4821-bd47-eba625c4724b" d="M1227.1,379.73c1.54,1,2.88-.64,3.36-1.38,22.44-34.12,27.78-39.94,26.56-40.86s-5.9,6.42-29.7,38.88C1226.81,377.08,1225.65,378.83,1227.1,379.73Z"/>
      <path class="aa5dec0d-90c8-4821-bd47-eba625c4724b" d="M1230.84,545.85c1.54,1,2.88-.64,3.37-1.38,22.43-34.12,27.78-39.94,26.55-40.86s-5.89,6.41-29.7,38.88C1230.55,543.19,1229.39,545,1230.84,545.85Z"/>
      <path class="aa5dec0d-90c8-4821-bd47-eba625c4724b" d="M1099.79,762c2.24,1.55,4.1-.89,4.77-2,30.82-51.92,38.25-60.72,36.47-62.2-1.63-1.34-8.21,9.7-41,59C1099.27,757.89,1097.68,760.56,1099.79,762Z"/>
      <path class="aa5dec0d-90c8-4821-bd47-eba625c4724b" d="M1041.93,762.69c1.43,1,2.61-.56,3-1.28,19.54-32.92,24.25-38.49,23.12-39.43s-5.2,6.15-26,37.41C1041.61,760.07,1040.6,761.77,1041.93,762.69Z"/>
      <path class="aa5dec0d-90c8-4821-bd47-eba625c4724b" d="M907.24,747.76c1.42,1,2.6-.57,3-1.28,19.55-32.92,24.26-38.5,23.12-39.43s-5.19,6.15-26,37.41C906.91,745.14,905.9,746.83,907.24,747.76Z"/>
      <path class="aa5dec0d-90c8-4821-bd47-eba625c4724b" d="M967.24,743c3.32,2.51,5.93-1.23,6.85-3,42.79-80.1,53.26-93.59,50.6-96-2.41-2.16-11.54,14.87-57.37,90.81C966.33,736.51,964.12,740.63,967.24,743Z"/>
      <path class="aa5dec0d-90c8-4821-bd47-eba625c4724b" d="M1042.07,589.93c3.32,2.51,5.93-1.23,6.86-3,42.78-80.1,53.25-93.59,50.59-96-2.41-2.16-11.54,14.87-57.37,90.81C1041.16,583.46,1039,587.58,1042.07,589.93Z"/>
      <path class="aa5dec0d-90c8-4821-bd47-eba625c4724b" d="M877.44,716.85c3.32,2.51,5.93-1.23,6.86-3,42.79-80.1,53.25-93.59,50.59-96-2.4-2.16-11.54,14.87-57.37,90.81C876.53,710.38,874.33,714.5,877.44,716.85Z"/>
      <path class="aa5dec0d-90c8-4821-bd47-eba625c4724b" d="M495.78,787.94c3,2.28,5.36-1.11,6.2-2.68,38.62-72.71,48.07-85,45.67-87.12-2.18-2-10.43,13.5-51.81,82.42C494.94,782.05,493,785.8,495.78,787.94Z"/>
      <path class="aa5dec0d-90c8-4821-bd47-eba625c4724b" d="M1309.41,715.7c1.54,1,2.88-.65,3.37-1.38,22.43-34.12,27.78-39.94,26.56-40.87s-5.9,6.42-29.7,38.89C1309.12,713,1308,714.8,1309.41,715.7Z"/>
      <path class="aa5dec0d-90c8-4821-bd47-eba625c4724b" d="M1253.29,852c1.54,1,2.88-.64,3.36-1.38,22.44-34.12,27.78-39.94,26.56-40.86s-5.89,6.41-29.7,38.88C1253,849.29,1251.84,851.05,1253.29,852Z"/>
      <path class="aa5dec0d-90c8-4821-bd47-eba625c4724b" d="M1176.59,855.68c1.54,1,2.88-.64,3.36-1.38,22.44-34.12,27.78-39.94,26.56-40.86s-5.9,6.42-29.7,38.88C1176.3,853,1175.14,854.78,1176.59,855.68Z"/>
      <path class="aa5dec0d-90c8-4821-bd47-eba625c4724b" d="M1150.35,409.23c2.4,1.5,4.5-1,5.26-2.16,35.08-53.35,43.44-62.45,41.53-63.89-1.73-1.31-9.22,10-46.44,60.79C1149.89,405.07,1148.09,407.82,1150.35,409.23Z"/>
      <path class="aa5dec0d-90c8-4821-bd47-eba625c4724b" d="M1296.27,418.56c2.41,1.5,4.5-1,5.26-2.16,35.08-53.35,43.44-62.45,41.53-63.89-1.73-1.31-9.22,10-46.44,60.79C1295.81,414.41,1294,417.15,1296.27,418.56Z"/>
      <path class="aa5dec0d-90c8-4821-bd47-eba625c4724b" d="M1575,269.24c2.41,1.51,4.51-1,5.27-2.16,35.08-53.34,43.44-62.45,41.52-63.89-1.73-1.31-9.22,10-46.43,60.8C1574.56,265.09,1572.75,267.83,1575,269.24Z"/>
      <path class="aa5dec0d-90c8-4821-bd47-eba625c4724b" d="M1466.51,215.12c2.41,1.5,4.5-1,5.26-2.16,35.08-53.35,43.44-62.45,41.53-63.9-1.73-1.31-9.22,10-46.44,60.8C1466.06,211,1464.25,213.71,1466.51,215.12Z"/>
      <path class="aa5dec0d-90c8-4821-bd47-eba625c4724b" d="M1533.87,83.86c3.33,2.49,6-1.24,6.9-3,43.21-80.08,53.77-93.57,51.1-95.94-2.41-2.15-11.64,14.88-57.9,90.81C1533,77.39,1530.74,81.51,1533.87,83.86Z"/>
      <path class="aa5dec0d-90c8-4821-bd47-eba625c4724b" d="M1578.76,108.12c3.34,2.49,6-1.24,6.91-3,43.21-80.08,53.76-93.58,51.1-95.94-2.42-2.15-11.64,14.87-57.9,90.8C1577.86,101.66,1575.64,105.78,1578.76,108.12Z"/>
      <path class="aa5dec0d-90c8-4821-bd47-eba625c4724b" d="M1492.71,669.93c3.33,2.49,6-1.24,6.9-3,43.22-80.07,53.77-93.57,51.11-95.94-2.42-2.15-11.65,14.88-57.91,90.81C1491.81,663.46,1489.58,667.59,1492.71,669.93Z"/>
      <path class="aa5dec0d-90c8-4821-bd47-eba625c4724b" d="M185,157.1c2.47,1.85,4.43-.92,5.13-2.2,32.13-59.37,40-69.38,38-71.13-1.79-1.59-8.65,11-43,67.32C184.3,152.31,182.65,155.37,185,157.1Z"/>
      <path class="aa5dec0d-90c8-4821-bd47-eba625c4724b" d="M78.34,241.09c2.47,1.85,4.43-.92,5.12-2.2,32.13-59.37,40-69.38,38-71.13-1.79-1.59-8.65,11-43,67.32C77.67,236.3,76,239.36,78.34,241.09Z"/>
      <path class="aa5dec0d-90c8-4821-bd47-eba625c4724b" d="M-33.91,244.83c2.47,1.84,4.43-.93,5.12-2.21,32.14-59.37,40-69.37,38-71.13-1.79-1.59-8.65,11-43,67.33C-34.58,240-36.23,243.09-33.91,244.83Z"/>
      <path class="aa5dec0d-90c8-4821-bd47-eba625c4724b" d="M1300,815.51c3.33,2.5,6-1.24,6.9-3,43.22-80.08,53.77-93.57,51.11-95.94-2.42-2.15-11.65,14.87-57.91,90.8C1299.12,809.05,1296.89,813.17,1300,815.51Z"/>
      <path class="aa5dec0d-90c8-4821-bd47-eba625c4724b" d="M1479.61,832.31c3.34,2.49,6-1.24,6.9-3,43.22-80.08,53.77-93.58,51.11-95.94-2.42-2.15-11.64,14.87-57.91,90.8C1478.71,825.85,1476.49,830,1479.61,832.31Z"/>
      <path class="aa5dec0d-90c8-4821-bd47-eba625c4724b" d="M1328.08,918.17c3.33,2.49,6-1.24,6.9-3,43.22-80.07,53.77-93.57,51.11-95.94-2.42-2.15-11.65,14.88-57.91,90.81C1327.18,911.7,1325,915.83,1328.08,918.17Z"/>
    </g>
  </g>
</svg>
