<svg xmlns="http://www.w3.org/2000/svg" xmlns:xlink="http://www.w3.org/1999/xlink" width="495.07" height="495.07" viewBox="0 0 495.07 495.07">
  <defs>
    <style>
      .fac0b8b1-5a50-4afb-b132-c54985f82551 {
        fill: none;
      }

      .ba2d3e78-1a5d-4f52-952d-025dd0de68d9 {
        isolation: isolate;
      }

      .ffb4c4b9-e427-43a8-91ca-83a9d5dae874 {
        clip-path: url(#b28ae719-da60-48a8-8352-82444134eb3a);
      }

      .ff961e47-91e0-4123-adfa-a9815319d548 {
        fill: #aefbff;
      }

      .b230dadf-c0cc-4d4a-aadb-2a347e38965f {
        fill-rule: evenodd;
        fill: url(#f20cce6b-4108-46c5-8d2f-0d98bf4c1a9c);
      }

      .a7cde167-b2f0-49b9-b952-e4986cfddf65 {
        fill: url(#a7f2c18d-194b-4576-ae56-c26730fd7e82);
      }

      .b15a53d8-e159-4304-843b-7d73277f85fa {
        opacity: 0.15;
        mix-blend-mode: screen;
        fill: url(#a4e09274-7d8c-4197-bf89-6dc8a3cc07a2);
      }

      .b729aa1b-9a3e-4696-a172-530d505a6aa1 {
        fill: #ea9f32;
        opacity: 0.2;
        mix-blend-mode: multiply;
      }
    </style>
    <clipPath id="b28ae719-da60-48a8-8352-82444134eb3a">
      <rect class="fac0b8b1-5a50-4afb-b132-c54985f82551" x="-1620" width="1600" height="900" transform="translate(-1640 900) rotate(-180)"/>
    </clipPath>
    <radialGradient id="f20cce6b-4108-46c5-8d2f-0d98bf4c1a9c" cx="247.54" cy="247.53" r="142.41" gradientUnits="userSpaceOnUse">
      <stop offset="0" stop-color="#fff8b8"/>
      <stop offset="0.13" stop-color="#fff9c2" stop-opacity="0.83"/>
      <stop offset="0.37" stop-color="#fffad3" stop-opacity="0.54"/>
      <stop offset="0.59" stop-color="#fffbe1" stop-opacity="0.31"/>
      <stop offset="0.77" stop-color="#fffbeb" stop-opacity="0.14"/>
      <stop offset="0.92" stop-color="#fffcf1" stop-opacity="0.04"/>
      <stop offset="1" stop-color="#fffcf3" stop-opacity="0"/>
    </radialGradient>
    <linearGradient id="a7f2c18d-194b-4576-ae56-c26730fd7e82" x1="-4308.35" y1="-1418.95" x2="-4308.35" y2="-1251.25" gradientTransform="matrix(-0.76, -0.65, -0.65, 0.76, -3886.67, -1556.74)" gradientUnits="userSpaceOnUse">
      <stop offset="0" stop-color="#ffe6c7"/>
      <stop offset="1" stop-color="#e5dd6e"/>
    </linearGradient>
    <linearGradient id="a4e09274-7d8c-4197-bf89-6dc8a3cc07a2" x1="-4308.97" y1="-1318.39" x2="-4308.97" y2="-1418.95" gradientTransform="matrix(-0.76, -0.65, -0.65, 0.76, -3886.67, -1556.74)" gradientUnits="userSpaceOnUse">
      <stop offset="0" stop-color="#fced7e"/>
      <stop offset="0.14" stop-color="#fcee84"/>
      <stop offset="0.34" stop-color="#fdf095"/>
      <stop offset="0.56" stop-color="#fdf4b1"/>
      <stop offset="0.79" stop-color="#fef9d7"/>
      <stop offset="1" stop-color="#fff"/>
    </linearGradient>
  </defs>
  <g class="ba2d3e78-1a5d-4f52-952d-025dd0de68d9">
    <g id="bd895fdc-3d9d-4f50-8d41-bc3f733e6bcd" data-name="Layer 1">
      <g class="ffb4c4b9-e427-43a8-91ca-83a9d5dae874">
        <g>
          <path class="ff961e47-91e0-4123-adfa-a9815319d548" d="M-45,269.24c2.41,1.51,4.51-1,5.27-2.16C-4.64,213.74,3.72,204.63,1.8,203.19c-1.73-1.31-9.22,10-46.43,60.8C-45.44,265.09-47.25,267.83-45,269.24Z"/>
          <path class="ff961e47-91e0-4123-adfa-a9815319d548" d="M-41.24,108.12c3.34,2.49,6-1.24,6.91-3C8.88,25.07,19.43,11.57,16.77,9.21,14.35,7.06,5.13,24.08-41.13,100-42.14,101.66-44.36,105.78-41.24,108.12Z"/>
        </g>
      </g>
      <g>
        <path class="b230dadf-c0cc-4d4a-aadb-2a347e38965f" d="M251.37,247.7v-.2l152-2.46c-.75-14.69-.11-7.35-1.91-22L251.33,247c0-.06,0-.13,0-.2s0-.14,0-.2l146.63-40.21c-4.43-14.15-2-7.18-7.38-20.94L251.06,246.05l-.09-.19a1.62,1.62,0,0,0-.1-.18l132-75.51c-7.76-12.52-3.66-6.41-12.29-18.34l-120,93.4-.14-.16-.14-.15L359.42,139c-10.6-10.19-5.13-5.29-16.43-14.71L249.9,244.56l-.16-.12-.18-.12L329,114.65c-12.89-7.29-6.33-3.89-19.67-10.22L249.09,244.08l-.2-.08-.19-.06L293.27,98.51c-14.28-3.82-7.09-2.17-21.59-5L248.17,243.82a1.2,1.2,0,0,0-.2,0l-.2,0,7-151.94c-14.74-.17-7.38-.34-22,.52l14.47,151.44-.21,0-.2,0-31-148.95c-14.37,3.52-7.25,1.5-21.36,6L246.3,244l-.2.08-.19.08L178.76,107.62c-13,7-6.63,3.26-19.09,11.14l85.78,125.66a.88.88,0,0,1-.17.12l-.16.14-98.93-115.6c-10.83,9.94-5.59,4.78-15.69,15.46L244.74,245.06l-.14.16a1.67,1.67,0,0,1-.12.16L120,157.9c-8,12.36-4.25,6-11.42,19l135.67,69-.1.19a1.54,1.54,0,0,1-.08.19L101.64,192.49c-4.73,14-2.62,6.94-6.33,21.27l148.57,33a1.42,1.42,0,0,1,0,.2,1.36,1.36,0,0,0,0,.2L92.55,230.53c-1.09,14.7-.81,7.34-.86,22.09l152.11-4.94a1.48,1.48,0,0,0,0,.21c0,.07,0,.14,0,.21L93.16,269.53c2.6,14.58,1,7.36,4.68,21.7l146.1-42.61c0,.07.05.13.07.2l.07.19L103.51,307.35c6.17,13.45,2.85,6.84,9.94,19.79l130.87-77.65a1.74,1.74,0,0,1,.11.18l.13.17L122.92,341.26c9.25,11.42,4.43,5.89,14.46,16.63L244.91,250.24a1,1,0,0,0,.15.14l.15.14L150,369.22c11.81,8.8,5.76,4.62,18.17,12.56l77.46-131a1,1,0,0,0,.18.1l.19.09L183.35,389.65c13.72,5.62,6.77,3.06,20.83,7.67L246.53,251.2l.2.05.2,0L220.85,401.16c14.54,2,7.23,1.25,21.93,2.21l4.69-152h.41L259.76,403c14.68-1.67,7.37-.58,21.91-3.3L248.41,251.26l.21,0,.19-.06L298.13,395c13.8-5.29,7-2.4,20.4-8.67L249.31,250.93l.18-.1.17-.1,83.57,127c12-8.52,6.15-4,17.51-13.39l-100.65-114,.15-.14c0-.06.1-.1.15-.15L362.82,352.46c9.52-11.23,5-5.45,13.67-17.33L250.72,249.69a1.74,1.74,0,0,0,.11-.18l.1-.18,134.36,71.18c6.45-13.3,3.46-6.54,9-20.31l-143.1-51.36a1.59,1.59,0,0,1,.07-.2,1.94,1.94,0,0,1,.05-.2l147.86,35.41c2.92-14.47,1.72-7.21,3.59-21.79L251.36,247.92C251.36,247.85,251.37,247.78,251.37,247.7Z"/>
        <g>
          <g>
            <path class="a7cde167-b2f0-49b9-b952-e4986cfddf65" d="M186.88,191c-28.92,36.18-25.19,90.81,8.3,122s84.1,27.21,113-9,25.19-90.8-8.3-122S215.8,154.83,186.88,191Z"/>
            <path class="b15a53d8-e159-4304-843b-7d73277f85fa" d="M232.62,169.2a62.63,62.63,0,0,1,7.35-7.78c21-2.15,42.71,4.57,59.92,20.61,19.43,18.12,28.83,44.12,27.65,69.82-.82,1.17-1.65,2.32-2.55,3.45-22,27.54-60.55,30.6-86.06,6.82S210.59,196.75,232.62,169.2Z"/>
          </g>
          <path class="b729aa1b-9a3e-4696-a172-530d505a6aa1" d="M207.78,297.28c31,28.92,76.71,27.59,106.25-1.51a85.68,85.68,0,0,1-5.84,8.29c-28.91,36.18-79.5,40.19-113,9s-37.22-85.85-8.3-122a86.31,86.31,0,0,1,6.75-7.45C171.3,219.37,176.75,268.36,207.78,297.28Z"/>
        </g>
      </g>
    </g>
  </g>
</svg>
