<svg xmlns="http://www.w3.org/2000/svg" xmlns:xlink="http://www.w3.org/1999/xlink" width="495.07" height="495.07" viewBox="0 0 495.07 495.07">
  <defs>
    <style>
      .e2471e31-7ac4-465f-a99f-57c0899a6b4d {
        isolation: isolate;
      }

      .e5689dbf-c687-4164-8c17-45f39718233e {
        fill-rule: evenodd;
        fill: url(#b8420075-f881-481b-8a34-88d47bb87fa4);
      }

      .b6c4e0c0-a921-4917-9fed-7bc99ec90632 {
        fill: url(#b4fb476a-078f-4af7-bf30-9ef2015e4031);
      }

      .f4fb0856-11e5-4b74-a598-b1cad058cbfd {
        opacity: 0.15;
        mix-blend-mode: screen;
        fill: url(#b038fd7c-6d9d-4d97-a041-9baa2dedc45d);
      }

      .bd258fee-71ab-4547-8c68-d7bb9b6efe50 {
        fill: #ea9f32;
        opacity: 0.2;
        mix-blend-mode: multiply;
      }
    </style>
    <radialGradient id="b8420075-f881-481b-8a34-88d47bb87fa4" cx="247.54" cy="247.53" r="166.09" gradientUnits="userSpaceOnUse">
      <stop offset="0" stop-color="#fff8b8"/>
      <stop offset="0.13" stop-color="#fff9c2" stop-opacity="0.83"/>
      <stop offset="0.37" stop-color="#fffad3" stop-opacity="0.54"/>
      <stop offset="0.59" stop-color="#fffbe1" stop-opacity="0.31"/>
      <stop offset="0.77" stop-color="#fffbeb" stop-opacity="0.14"/>
      <stop offset="0.92" stop-color="#fffcf1" stop-opacity="0.04"/>
      <stop offset="1" stop-color="#fffcf3" stop-opacity="0"/>
    </radialGradient>
    <linearGradient id="b4fb476a-078f-4af7-bf30-9ef2015e4031" x1="-5213.33" y1="-1755.46" x2="-5213.33" y2="-1587.76" gradientTransform="matrix(-0.76, -0.65, -0.65, 0.76, -4791.71, -1893.29)" gradientUnits="userSpaceOnUse">
      <stop offset="0" stop-color="#ffe6c7"/>
      <stop offset="1" stop-color="#e5dd6e"/>
    </linearGradient>
    <linearGradient id="b038fd7c-6d9d-4d97-a041-9baa2dedc45d" x1="-5213.95" y1="-1654.89" x2="-5213.95" y2="-1755.46" gradientTransform="matrix(-0.76, -0.65, -0.65, 0.76, -4791.71, -1893.29)" gradientUnits="userSpaceOnUse">
      <stop offset="0" stop-color="#fced7e"/>
      <stop offset="0.14" stop-color="#fcee84"/>
      <stop offset="0.34" stop-color="#fdf095"/>
      <stop offset="0.56" stop-color="#fdf4b1"/>
      <stop offset="0.79" stop-color="#fef9d7"/>
      <stop offset="1" stop-color="#fff"/>
    </linearGradient>
  </defs>
  <g class="e2471e31-7ac4-465f-a99f-57c0899a6b4d">
    <g id="e40fd637-1741-4c5f-87ff-3c7139af37f5" data-name="Layer 1">
      <g>
        <path class="e5689dbf-c687-4164-8c17-45f39718233e" d="M252,247.73v-.24l177.29-2.87c-.87-17.13-.13-8.57-2.23-25.66L252,246.86c0-.07,0-.15-.05-.23a2.1,2.1,0,0,0-.06-.24l171-46.89c-5.16-16.51-2.29-8.37-8.6-24.42L251.65,245.8l-.1-.22-.12-.21L405.35,157.3c-9.06-14.6-4.28-7.47-14.34-21.38L251.09,244.85l-.17-.19a1.29,1.29,0,0,0-.16-.17L378,121c-12.36-11.88-6-6.16-19.16-17.15L250.29,244.07l-.19-.15-.2-.13L342.54,92.54c-15-8.49-7.37-4.52-22.93-11.91L249.34,243.5l-.22-.08-.23-.08,52-169.61c-16.66-4.47-8.28-2.54-25.19-5.8L248.28,243.2l-.24,0h-.24L256,65.94c-17.2-.2-8.61-.41-25.7.6l16.88,176.62-.24,0-.24,0L210.56,69.51c-16.77,4.1-8.46,1.75-24.91,7L246.09,243.4l-.23.1-.22.09L167.32,84.35c-15.15,8.14-7.73,3.81-22.26,13l100,146.57-.19.14-.19.15L129.33,109.37c-12.63,11.6-6.52,5.58-18.3,18L244.27,244.65c-.05.06-.1.11-.15.18L244,245,98.74,143c-9.39,14.41-4.95,7-13.32,22.13l158.23,80.44-.1.22a2.14,2.14,0,0,0-.1.22L77.37,183.34c-5.51,16.36-3.05,8.09-7.38,24.81L243.27,246.6c0,.08,0,.16,0,.24l0,.24L66.77,227.7c-1.27,17.15-.94,8.56-1,25.76l177.4-5.75c0,.08,0,.16,0,.24a1.94,1.94,0,0,1,0,.24l-175.73,25c3,17,1.22,8.58,5.46,25.31l170.41-49.7c0,.08.05.16.07.24l.09.22-163.95,68c7.19,15.69,3.32,8,11.58,23.08l152.64-90.55a2.43,2.43,0,0,1,.14.2l.14.2L102.19,356.85c10.79,13.32,5.17,6.86,16.86,19.39L244.47,250.69c.05.06.12.11.17.17l.19.15-111,138.44c13.78,10.27,6.72,5.39,21.19,14.66l90.34-152.74.22.12.21.1-73.1,161.7c16,6.55,7.9,3.56,24.3,8.95l49.39-170.43.23.06.24,0L216.41,426.71c17,2.32,8.44,1.46,25.58,2.58L247.46,252h.48l13.85,176.85c17.12-1.95,8.6-.67,25.56-3.84l-38.79-173.1.24-.06.22-.07,57.53,167.79c16.09-6.17,8.15-2.79,23.79-10.11L249.6,251.5l.21-.12.21-.12,97.46,148.17c14-9.93,7.18-4.73,20.42-15.62L250.52,250.87a1.29,1.29,0,0,0,.17-.16l.18-.17L382,369.91c11.1-13.09,5.78-6.35,15.94-20.22L251.25,250l.13-.2.12-.21,156.7,83c7.53-15.52,4-7.63,10.46-23.69l-166.91-59.9.08-.24.06-.22,172.45,41.29c3.4-16.88,2-8.41,4.19-25.41L252,248C252,247.9,252,247.82,252,247.73Z"/>
        <g>
          <g>
            <path class="b6c4e0c0-a921-4917-9fed-7bc99ec90632" d="M186.88,191c-28.92,36.18-25.19,90.81,8.3,122s84.1,27.21,113-9,25.19-90.8-8.3-122S215.8,154.83,186.88,191Z"/>
            <path class="f4fb0856-11e5-4b74-a598-b1cad058cbfd" d="M232.62,169.2a62.63,62.63,0,0,1,7.35-7.78c21-2.15,42.71,4.57,59.92,20.61,19.43,18.12,28.83,44.12,27.65,69.82-.82,1.17-1.65,2.32-2.55,3.45-22,27.54-60.55,30.6-86.06,6.82S210.59,196.75,232.62,169.2Z"/>
          </g>
          <path class="bd258fee-71ab-4547-8c68-d7bb9b6efe50" d="M207.78,297.28c31,28.92,76.71,27.59,106.25-1.51a85.68,85.68,0,0,1-5.84,8.29c-28.91,36.18-79.5,40.19-113,9s-37.22-85.85-8.3-122a86.31,86.31,0,0,1,6.75-7.45C171.3,219.37,176.75,268.36,207.78,297.28Z"/>
        </g>
      </g>
    </g>
  </g>
</svg>
