<svg id="a8cda9a6-8b4a-406b-bc3c-dafdfe44c0fc" data-name="Layer 1" xmlns="http://www.w3.org/2000/svg" width="793.85" height="356.92" viewBox="0 0 793.85 356.92">
  <defs>
    <style>
      .a0695995-66e6-4f9b-b414-a9f75ee9e657 {
        fill: #f15a24;
      }

      .e89bddeb-b8b2-43eb-8d3c-b8f034828b17 {
        fill: #fbb03b;
      }

      .aa68f9f4-faab-4288-987b-8a0b5b45c591 {
        fill: #fcee21;
      }

      .baf2fd30-acc5-4d97-ab87-d87265ad0690 {
        fill: #8cc63f;
      }

      .b6b065bb-7579-474b-83eb-fdbfecee3766 {
        fill: #29abe2;
      }

      .e361dced-f13b-49ef-8ab4-3c67690b1532 {
        fill: #93278f;
      }

      .f7d3e053-dbaf-40b4-b7f1-c6e5766e55d8 {
        opacity: 0.9;
      }

      .b2dce291-7ad1-4b16-879a-0be0efcfd39d {
        fill: #e6f6ff;
      }

      .b4eb1353-71d1-4cc6-b166-0ac33facf407 {
        fill: #fff;
      }

      .ba1c7a1b-43a6-4456-81c5-531c9eb4acde {
        fill: #ade0ff;
      }
    </style>
  </defs>
  <g>
    <g>
      <path class="a0695995-66e6-4f9b-b414-a9f75ee9e657" d="M192.56,193.21c-19.51-12.41-41-21.27-60.85-33A320.24,320.24,0,0,0,82.17,330.57h96.55a224.1,224.1,0,0,1,36.77-121.52C207.73,203.94,200.4,198.2,192.56,193.21Z"/>
      <path class="e89bddeb-b8b2-43eb-8d3c-b8f034828b17" d="M192.56,193.21c-15.06-9.58-31.28-17-47.05-25.34a304.12,304.12,0,0,0-47.25,162.7h80.46a224.1,224.1,0,0,1,36.77-121.52C207.73,203.94,200.4,198.2,192.56,193.21Z"/>
      <path class="aa68f9f4-faab-4288-987b-8a0b5b45c591" d="M192.56,193.21c-10.41-6.62-21.38-12.23-32.37-17.81a288.19,288.19,0,0,0-45.84,155.17h64.37a224.1,224.1,0,0,1,36.77-121.52C207.73,203.94,200.4,198.2,192.56,193.21Z"/>
      <path class="baf2fd30-acc5-4d97-ab87-d87265ad0690" d="M192.56,193.21c-5.76-3.66-11.69-7-17.7-10.23a272.13,272.13,0,0,0-44.41,147.59h48.26a224.11,224.11,0,0,1,36.78-121.52C207.73,203.94,200.4,198.2,192.56,193.21Z"/>
      <path class="b6b065bb-7579-474b-83eb-fdbfecee3766" d="M192.56,193.21c-1.32-.84-2.64-1.65-4-2.46a256.15,256.15,0,0,0-42.06,139.82h32.19a224.1,224.1,0,0,1,36.77-121.52C207.73,203.94,200.4,198.2,192.56,193.21Z"/>
      <path class="e361dced-f13b-49ef-8ab4-3c67690b1532" d="M201.72,199.44a240.21,240.21,0,0,0-39.11,131.13h16.11a224.1,224.1,0,0,1,36.77-121.52C210.82,206,206.29,202.68,201.72,199.44Z"/>
    </g>
    <g class="f7d3e053-dbaf-40b4-b7f1-c6e5766e55d8">
      <path class="b2dce291-7ad1-4b16-879a-0be0efcfd39d" d="M238.14,312.17a28.42,28.42,0,0,1-6.15,7.64c-7.91,7.09-19.82,10.52-31.7,9.65l-6.46-.48-1.19,1.24C182.2,341,164.79,346.19,148.2,343c-5.09-1-10.44-2.18-14.94-4.36-4.1-2-8.39-5.45-8.65-9.46a23.61,23.61,0,0,1-4.26,4.08c-9.17,7.28-19.33,7.05-31.12,6.35-12.85-.76-27.11-6.33-27.47-17.9,0-.67-.07-1.18-.18-2.33-5.76,2.9-9.88,6.06-17,7.14a39.75,39.75,0,0,1-18-1.37,26,26,0,0,1-11.45-7.54,18.49,18.49,0,0,1-3.49-5.87,13.67,13.67,0,0,1-.71-6.67c1.22-8.39,9.51-17,20-15.76-4.07-7.84.76-16.11,8.52-21.93s19.11-9.61,28.75-6c1.1-13.22,16.44-22.72,33-24s33.55,7.95,37.91,20.74c22.87-8.47,53.75,4,58.65,23.6,15.7-7.07,37.76,2.11,42.13,15.81a15.87,15.87,0,0,1,.64,2.79A19.22,19.22,0,0,1,238.14,312.17Z"/>
      <g>
        <path class="b4eb1353-71d1-4cc6-b166-0ac33facf407" d="M239.89,297.49c-5-8.68-16.39-13.57-25.82-14.14-13.85-.85-19.17,4.22-19.17,4.22-1.07-11-7.46-21.13-27.69-26.2s-30.89,3.38-30.89,3.38c-1-8-6.87-14.77-15.08-19.27-9.35-5.13-22.64-5.28-32.78-1.57-11,4-14.57,12.18-13.91,21.69-4.26-1.69-10.44-1.47-11.43-1.55-9-.78-18.23,3.39-23.87,8.78a17.5,17.5,0,0,0-5.35,8.86c-.25,1.24.18,7.57,2.32,10.11a32.51,32.51,0,0,0-12.78,2.53c-10.65,4.23-11.9,17-11.87,17.36a13.67,13.67,0,0,1-.71-6.67c1.22-8.39,9.51-17,20-15.76-4.07-7.84.76-16.11,8.52-21.93s19.11-9.61,28.75-6c1.1-13.22,16.44-22.72,33-24s33.55,7.95,37.91,20.74c22.87-8.47,53.75,4,58.65,23.6C213.46,274.61,235.52,283.79,239.89,297.49Z"/>
        <path class="b4eb1353-71d1-4cc6-b166-0ac33facf407" d="M106.45,269.61s27.45-20.5,55.38.42C161.83,270,137.66,259.85,106.45,269.61Z"/>
        <path class="b4eb1353-71d1-4cc6-b166-0ac33facf407" d="M64.9,291.51s32.24-26.27,65,.49C129.89,292,101.54,279,64.9,291.51Z"/>
        <path class="b4eb1353-71d1-4cc6-b166-0ac33facf407" d="M173.6,291.58s22.13-16.52,44.63.34C218.23,291.92,198.76,283.71,173.6,291.58Z"/>
        <path class="b4eb1353-71d1-4cc6-b166-0ac33facf407" d="M38.34,269c20.24-11,44.64-.73,44.64-.73C60.47,251.39,38.34,269,38.34,269Z"/>
      </g>
      <g>
        <path class="ba1c7a1b-43a6-4456-81c5-531c9eb4acde" d="M238.14,312.17a28.42,28.42,0,0,1-6.15,7.64c-7.91,7.09-19.82,10.52-31.7,9.65l-6.46-.48-1.19,1.24C182.2,341,164.79,346.19,148.2,343c-5.09-1-10.44-2.18-14.94-4.36-4.1-2-8.39-5.45-8.65-9.46a23.61,23.61,0,0,1-4.26,4.08c-9.17,7.28-19.33,7.05-31.12,6.35-12.85-.76-27.11-6.33-27.47-17.9,0-.67-.07-1.18-.18-2.33-5.76,2.9-9.88,6.06-17,7.14a39.75,39.75,0,0,1-18-1.37,26,26,0,0,1-11.45-7.54c10.43,1.65,35.73,6.61,48.84-3.79-.87.69,6.56,6.89,7.15,7.31,7.71,5.66,18.37,7.55,28.63,7.11a80.43,80.43,0,0,0,15.6-2.28,33.37,33.37,0,0,0,10.39-4.53C131,329,148.32,334,169.34,329c0,0,14.91-3.38,20.23-12.67C189.57,316.31,218.16,322.48,238.14,312.17Z"/>
        <path class="ba1c7a1b-43a6-4456-81c5-531c9eb4acde" d="M172.53,309.55s21.95,14,46.74,0C219.27,309.55,196.61,336,172.53,309.55Z"/>
        <path class="ba1c7a1b-43a6-4456-81c5-531c9eb4acde" d="M39.94,309.68a55.28,55.28,0,0,0,40.47,0S60.79,326,39.94,309.68Z"/>
        <path class="ba1c7a1b-43a6-4456-81c5-531c9eb4acde" d="M95.32,312.93s29.76,17.31,63.37,0C158.69,312.93,128,345.48,95.32,312.93Z"/>
      </g>
    </g>
    <g class="f7d3e053-dbaf-40b4-b7f1-c6e5766e55d8">
      <path class="b2dce291-7ad1-4b16-879a-0be0efcfd39d" d="M759.09,293a22.49,22.49,0,0,1-30.83,8.23c-10.22,8.51-19.92,8.41-29.94-.33-12.55,11.18-26,0-24.75-11.2h0a13.33,13.33,0,0,1,2.65-6.52,18.45,18.45,0,0,1,6.09-5.07c-15.86-32.23,37.19-57.41,52.13-24.75,15.3-21.81,51.31-4.15,45.6,20.38h0c-.12.54-.27,1.07-.44,1.61s-.28.91-.45,1.36a9.67,9.67,0,0,1,3.23,3.68,0,0,0,0,0,0,0C787.43,291.09,765.21,307,759.09,293Z"/>
      <path class="b4eb1353-71d1-4cc6-b166-0ac33facf407" d="M780,273.68c-.58-1.9-2.37-5.8-6.87-13.64-10.24-17.83-38-3.75-40.35-.09-14.34-14-42.39-8.49-44.57,10.63,17.36-.1,25.79,6.91,28.82,13.47-26.21-12.27-40.85-.93-40.85-.93a18.45,18.45,0,0,1,6.09-5.07c-15.86-32.23,37.19-57.41,52.13-24.75C749.74,231.49,785.75,249.15,780,273.68Z"/>
      <path class="b2dce291-7ad1-4b16-879a-0be0efcfd39d" d="M780.16,275.36c-.19.18-.56-.06-.56-.06Z"/>
      <path class="ba1c7a1b-43a6-4456-81c5-531c9eb4acde" d="M759.09,293a22.49,22.49,0,0,1-30.83,8.23c-10.22,8.51-19.92,8.41-29.94-.33-12.55,11.18-26,0-24.75-11.2,1.43,10,19.4,5.41,23.64,2.12,6.42,10.16,19.55,1.34,25.61-1.42-4.62,5.29,8.51,9.54,17.83,4.73s4-18.76-1.45-25.26c10.32,6.84,17.83,8.12,29.61,7.48-10.35.63-14.36,12.43,1.1,12.16,15.07-.25,12.62-8.66,12.48-9.1C787.43,291.09,765.21,307,759.09,293Z"/>
    </g>
    <g class="f7d3e053-dbaf-40b4-b7f1-c6e5766e55d8">
      <path class="b2dce291-7ad1-4b16-879a-0be0efcfd39d" d="M696.7,334.83a29,29,0,0,1-40.65,6c-14.32,9.4-26.71,7.85-38.26-4.8-17.69,12.48-33.29-3.78-30-17.94h0a17.21,17.21,0,0,1,4.34-8,23.57,23.57,0,0,1,8.54-5.59c-15.58-43.56,56-68,70.31-24.05,22.76-25.67,66.25,2.18,55.36,32.73h0c-.24.68-.5,1.34-.8,2s-.5,1.13-.78,1.68a12.35,12.35,0,0,1,3.6,5.18v0C733.23,336.59,702.47,353.73,696.7,334.83Z"/>
      <path class="b4eb1353-71d1-4cc6-b166-0ac33facf407" d="M726.32,313.23c-.46-2.51-2.18-7.76-6.8-18.45-10.5-24.3-48.09-10.35-51.61-6-16.31-20-53-17.06-58.57,7.08,22.22,2.41,32,12.62,34.89,21.44-31.74-19.52-52.12-7.15-52.12-7.15a23.57,23.57,0,0,1,8.54-5.59c-15.58-43.56,56-68,70.31-24.05C693.72,254.83,737.21,282.68,726.32,313.23Z"/>
      <path class="b2dce291-7ad1-4b16-879a-0be0efcfd39d" d="M726.23,315.4c-.28.2-.71-.16-.71-.16Z"/>
      <path class="ba1c7a1b-43a6-4456-81c5-531c9eb4acde" d="M696.7,334.83a29,29,0,0,1-40.65,6c-14.32,9.4-26.71,7.85-38.26-4.8-17.69,12.48-33.29-3.78-30-17.94.37,13,24,9.75,29.94,6.16,6.71,13.94,24.81,4.58,33,1.93-6.69,6.09,9.5,13.45,22.12,8.66s7.84-23.43,1.84-32.53c12.21,10.26,21.62,13,36.79,13.9-13.34-.71-20.19,13.8-.36,15.72,19.31,1.88,17.4-9.24,17.29-9.82C733.23,336.59,702.47,353.73,696.7,334.83Z"/>
    </g>
  </g>
</svg>
