<svg id="Layer_1" data-name="Layer 1" xmlns="http://www.w3.org/2000/svg" width="220" height="400" viewBox="0 0 220 400">
  <defs>
    <style>
      .cls-1 {
        opacity: 0.2;
      }

      .cls-2 {
        fill: #db9a56;
        stroke: #6d4c24;
      }

      .cls-10, .cls-14, .cls-2, .cls-3, .cls-9 {
        stroke-miterlimit: 10;
        stroke-width: 0.75px;
      }

      .cls-3 {
        fill: #b57a45;
      }

      .cls-3, .cls-9 {
        stroke: #77451c;
      }

      .cls-4 {
        fill: #9e6638;
      }

      .cls-5 {
        fill: #a36836;
      }

      .cls-6 {
        fill: #77451c;
      }

      .cls-7 {
        fill: #c1804f;
      }

      .cls-14, .cls-8 {
        fill: #fcddb9;
      }

      .cls-9 {
        fill: none;
      }

      .cls-10, .cls-19 {
        fill: #d59858;
      }

      .cls-10 {
        stroke: #9b612d;
      }

      .cls-11 {
        fill: #592e25;
      }

      .cls-12 {
        fill: #af713e;
      }

      .cls-13 {
        fill: #ba7d47;
      }

      .cls-14 {
        stroke: #c19b76;
      }

      .cls-15 {
        fill: #730d00;
      }

      .cls-16 {
        fill: #e28c8a;
      }

      .cls-17 {
        fill: #513117;
      }

      .cls-18 {
        fill: #460d00;
      }
    </style>
  </defs>
  <g>
    <ellipse class="cls-1" cx="105.15" cy="366.64" rx="93.85" ry="30.1"/>
    <g>
      <g>
        <g>
          <path class="cls-2" d="M60.12,111.8c-4.23,6.71-20.46-3.53-35.29,55.76-7.17,28.7-17.29,62.12-17.29,62.12s18.35,20.46,23.29,9.17,21.53-40.58,40.94-60S60.12,111.8,60.12,111.8Z"/>
          <path class="cls-2" d="M9.07,226.38S1.31,235.09,1.78,260c0,0,1.64,11.29,11.53,5.17,0,0,5.88,11.76,12.93,1.65,0,0,5.89,8.23,10.83,0S44.36,240,33.54,225.2"/>
          <path class="cls-2" d="M8.36,233.2s-3,.71-3,13.65,10.11,7.76,11.52-5.18c0,0,14.36,0,14.36-10.35"/>
          <path class="cls-2" d="M13.31,265.2s4.47-9.17,2.58-11.06-8.23-2.58-9.64,6.36"/>
          <path class="cls-2" d="M26.24,265.67s3.53-9.17,2.83-11.53S19,247.56,16.36,257"/>
          <path class="cls-2" d="M27.89,261.2s.47-9.88,9.18-7.06-1.18,15.3-1.18,15.3"/>
        </g>
        <path class="cls-3" d="M217.71,256.45c-5.65,34.82-37.11,11.17-42.85-4.85-6.5-18.11-11.65-40,7.51-49,.57-.27,4.22,1.26,9,4.39,8.69,5.72,21.12,16.77,25.38,32A40.1,40.1,0,0,1,217.71,256.45Z"/>
        <path class="cls-4" d="M217.43,256.17c-5.65,34.82-37.11,11.17-42.85-4.85-6.5-18.11-11.65-40,7.51-49,.57-.27,4.22,1.26,9,4.39,0,0,2.18,60.24,15.5,55.67,8.94-3.07,10.15-15.56,9.88-23.7A40.1,40.1,0,0,1,217.43,256.17Z"/>
        <path class="cls-2" d="M96.13,324.24c-.56,13.43,0,24.38,0,24.38,6.72,8.24,3.16,14.86,3.16,14.86l-21.73,5.78c-38.29,8.36-45.84-2.95-45.84-2.95,3.49-14.33,18.33-17.74,18.33-17.74-5.61-12.76-9.12-31.22-11.27-50.24-4.31-38.19-3.12-78.63-2.35-79.79,18.87-28.3,77.05,46.06,67.19,65C98.57,293.26,96.73,310.11,96.13,324.24Z"/>
        <path class="cls-5" d="M103.63,283.54c-5.06,9.72-6.9,26.57-7.5,40.7-28.65-.19-46.38-11.7-57.34-25.91-4.31-38.19-3.12-78.63-2.35-79.79C55.31,190.24,113.49,264.6,103.63,283.54Z"/>
        <g>
          <path class="cls-6" d="M33.81,367.25a40.46,40.46,0,0,1,3.82-5.43,37,37,0,0,1,4.65-4.71,27,27,0,0,1,2.67-2,23.29,23.29,0,0,1,2.89-1.6,20.65,20.65,0,0,1,3.12-1.1,17.12,17.12,0,0,1,3.26-.49,17.86,17.86,0,0,0-3.24.56,18.73,18.73,0,0,0-3.08,1.16,24.32,24.32,0,0,0-2.84,1.64,29.55,29.55,0,0,0-2.6,2A37.62,37.62,0,0,0,38,362.08a40.9,40.9,0,0,0-3.65,5.43Z"/>
          <path class="cls-6" d="M41.25,371.09A23.86,23.86,0,0,1,43,367.7a28.86,28.86,0,0,1,2.15-3.09,28.15,28.15,0,0,1,5.38-5.23A28.28,28.28,0,0,1,57,355.75a31.94,31.94,0,0,1,7.24-1.84,31.84,31.84,0,0,0-7.18,2,28.21,28.21,0,0,0-6.43,3.72,27.52,27.52,0,0,0-5.22,5.27A29,29,0,0,0,43.37,368a22.93,22.93,0,0,0-1.59,3.32Z"/>
        </g>
        <path class="cls-2" d="M194.23,221.89A135.33,135.33,0,0,1,184.28,261c-15.67,36.82-46.3,60.13-77,60.13-40.54,0-72.69-49.55-72.69-108.51a304.34,304.34,0,0,1,5.07-55.39c2.19-11.46,6.31-29.57,9.23-42.93.69-3.17-1.32-4.62-.6-7.28C60.1,63,76.67,77.82,99.65,77.82c16,0,41.31.32,66.1,28.67C189.44,133.59,198.31,182.56,194.23,221.89Z"/>
        <path class="cls-7" d="M186.23,261.75c-15.74,37-45.19,59.64-76.07,59.64-40.73,0-74.36-49-74.36-108.19,0-15,2-35.42,5.9-55.59,2.2-11.5,6.73-31.75,9.66-45.16,3,2.07,1.82,8.59,4.22,12.47,0,0-32.32,131,32.74,181.83,0,0,27.52,17.71,54.39-6.59s36.85-74.88,38.37-75C181.86,225,184.23,243.23,186.23,261.75Z"/>
        <path class="cls-2" d="M112.65,307.44s11.71,23.82,17.57,48.27c0,0-23.39,3.91-24.8,18.9,0,0,1.24,2.09,5.31,3.59,7.86,2.89,9.32,4.24,22.11,1.71,1.44-.29,24.7-4.64,37.66-7.07a7.07,7.07,0,0,0,5.78-7.53,21.75,21.75,0,0,1,.79-7.38c.52-2,33.55-90.3,17.57-152.93"/>
        <path class="cls-8" d="M151.89,259.2c-2,45.59-57.36,48.35-78.85,40.95C53.77,293.51,37.79,261.58,39.79,216s6.31-78.7,26.49-81.55C105.69,128.88,153.89,213.61,151.89,259.2Z"/>
        <path class="cls-6" d="M125.47,356.49a10.84,10.84,0,0,1,3.92-1.1c.66-.05,1.32-.12,2-.11s1.33,0,2,.05a41.62,41.62,0,0,1,7.76,1.36c1.26.34,2.51.75,3.76,1.14s2.47.87,3.68,1.37,2.43,1,3.62,1.53l3.55,1.67-3.59-1.58c-1.2-.52-2.43-1-3.64-1.44s-2.47-.85-3.71-1.28-2.5-.74-3.77-1.05a40.25,40.25,0,0,0-7.69-1.15,18,18,0,0,0-1.94,0c-.65,0-1.28.09-1.92.15a10.38,10.38,0,0,0-3.58,1.07Z"/>
        <path class="cls-9" d="M47,349.6s10.19-5.83,27.49,4.52"/>
        <path class="cls-7" d="M149,57.7c10.3,19.56.4,55-32.49,72.28S60.21,142.2,49.9,122.64,46.27,76.48,79.16,59.15,138.66,38.14,149,57.7Z"/>
        <g>
          <g>
            <path class="cls-2" d="M182.74,137.8c14.38,36.14-5.26,67.15-5.26,67.15-15.79,37.26-59.07,48.34-59.07,48.34-14.81,28.6-31.94,21.78-31.94,21.78-6.79-.43-4.49-7.74-4.49-7.74s3.61,1.78-2.58-1.15-4.14-8.64-4.14-8.64c-3.72-2.2-2.49-8.16-2.49-8.16,2.93-5.69,11.67-1.08,12.31-1.49,15.22-9.63-4.92-6-3.68-14.54,1.29-8.93,16.33-3,28.12-2.12,4.4.34,9.55-8,15.09-14.9,28.91-36,22.51-47,22.51-47"/>
            <g>
              <path class="cls-10" d="M73.12,254.59a3.34,3.34,0,0,0,.5,1.12l.17.25.19.22.18.21.21.19a5.5,5.5,0,0,0,1.79,1.06,10,10,0,0,0,3.91.42,16.18,16.18,0,0,0,2-.26c.66-.14,1.31-.25,2-.45l1-.28.49-.14.48-.18,1.91-.69-1.91.73-.48.18-.48.15-1,.3a18.53,18.53,0,0,1-1.95.49,16.59,16.59,0,0,1-2,.3,10,10,0,0,1-4-.35,5.5,5.5,0,0,1-1.85-1.06,1.24,1.24,0,0,1-.21-.19l-.2-.22c-.07-.08-.14-.15-.2-.23l-.18-.26a3.67,3.67,0,0,1-.56-1.23Z"/>
              <g>
                <path class="cls-10" d="M80.55,266.73c.28.13,7.91,5.07,13.86-2.73"/>
                <path class="cls-10" d="M80.59,266.59A12.25,12.25,0,0,0,84.12,268a9.82,9.82,0,0,0,3.66.19,9.11,9.11,0,0,0,3.55-1.33A12.44,12.44,0,0,0,94.41,264,12.53,12.53,0,0,1,91.35,267a9.12,9.12,0,0,1-3.55,1.41,10.07,10.07,0,0,1-3.71-.11,12.51,12.51,0,0,1-3.57-1.38Z"/>
              </g>
            </g>
          </g>
          <path class="cls-6" d="M147.52,171.18a54.76,54.76,0,0,1-3.69-13,67.76,67.76,0,0,1-.88-13.42c0-1.12.14-2.24.2-3.36s.15-2.24.34-3.35l.48-3.33c.2-1.1.46-2.19.68-3.29.4-2.2,1.14-4.33,1.73-6.49.28-1.08.75-2.11,1.11-3.17l1.17-3.14-1.12,3.16c-.35,1.06-.81,2.09-1.07,3.18-.56,2.16-1.26,4.29-1.63,6.5-.21,1.1-.46,2.19-.64,3.29l-.43,3.33c-.17,1.1-.22,2.22-.29,3.33s-.19,2.23-.15,3.35a66.83,66.83,0,0,0,1.06,13.32,53.79,53.79,0,0,0,3.8,12.74Z"/>
        </g>
        <g>
          <g>
            <path class="cls-11" d="M65.18,32.07c-10-7.3-16.12,2.19-16.05,9.7C52.68,34.88,58.18,32.09,65.18,32.07Z"/>
            <g>
              <path class="cls-2" d="M59.67,38.36a27.85,27.85,0,0,0-12-8.54c-12.61-4.7-26-.07-29.86,10.34S21,62.83,33.6,67.53a26.88,26.88,0,0,0,19,.2"/>
              <g>
                <path class="cls-12" d="M53.85,43.1a13.86,13.86,0,0,0-6.5-4.89C40.9,35.8,34,38.27,32,43.71s1.56,11.81,8,14.22a13,13,0,0,0,12.2-1.34C51.14,54.39,52.56,46.45,53.85,43.1Z"/>
                <path class="cls-13" d="M51.83,53.84A10.55,10.55,0,0,1,47,55.69c-5.75.89-13.9-2.44-14.85-7.65A22.43,22.43,0,0,1,32,43.83l0-.12c2-5.44,8.91-7.91,15.36-5.5a13.86,13.86,0,0,1,6.5,4.89A38.2,38.2,0,0,0,51.83,53.84Z"/>
              </g>
            </g>
            <g>
              <path class="cls-2" d="M48.74,32.88C59.92,20.74,76,12.51,95.4,10.42s35.78,2.67,49.27,12.15c19.29,13.57,35,30.66,34.13,60.26-1,34.91-38.57,52-70.3,55.42S39.84,131.5,28.11,99C19.91,76.31,32.75,50.23,48.74,32.88Z"/>
              <path class="cls-14" d="M76.17,59.05c5.1-.55,9.56,12,20.51,16.29,10.34,4,4.24,6.9,5.74,10.19,7.28,15.9,5.92,33.08-21.89,36.07-18.68,2-28.24-10.84-32.44-27.4S54.51,70.26,60,66.68C67.37,61.84,71.83,59.52,76.17,59.05Z"/>
              <path class="cls-15" d="M65.59,74.94c10.62-1.14,17.13.72,17.46,3.81S79,89.35,67.69,90.56s-13.9-5.51-13.8-8.68S55,76.08,65.59,74.94Z"/>
              <path class="cls-11" d="M93.31,34.09c8.25-9.27,16.22-1.29,17.74,6.06C106.13,34.18,100.16,32.62,93.31,34.09Z"/>
              <polygon class="cls-15" points="66.87 101.46 67.59 101.39 67.37 87.56 64.17 87.9 66.87 101.46"/>
              <path class="cls-16" d="M61.8,77.66c.1.87,2.23,1.35,4.76,1.07s4.52-1.19,4.43-2.06-2.22-1.34-4.76-1.07S61.71,76.8,61.8,77.66Z"/>
              <g>
                <path class="cls-2" d="M161.47,59.35a27.94,27.94,0,0,0,14.32-3.56c11.79-6.51,17-19.67,11.66-29.4s-19.25-12.35-31-5.84a27,27,0,0,0-12.56,14.28"/>
                <g>
                  <path class="cls-12" d="M161.68,51.84a13.93,13.93,0,0,0,7.95-1.75c6-3.32,8.66-10.15,5.86-15.23s-10-6.52-16-3.2a13,13,0,0,0-7,10.13C154.91,42.42,160,48.67,161.68,51.84Z"/>
                  <path class="cls-13" d="M154.87,43.3a10.69,10.69,0,0,1,1.73-4.84c3.08-5,10.92-8.95,15.49-6.27a22.84,22.84,0,0,1,3.34,2.56l.06.11c2.8,5.08.18,11.91-5.86,15.23a13.93,13.93,0,0,1-7.95,1.75A37.91,37.91,0,0,0,154.87,43.3Z"/>
                </g>
              </g>
              <path class="cls-17" d="M51.15,94.23q.6.6,1.26,1.14t1.32,1a25.7,25.7,0,0,0,2.84,1.81,23.27,23.27,0,0,0,6.19,2.41A22.37,22.37,0,0,0,75.7,99.57l.39-.14.38-.17.76-.33L78,98.6l.74-.38c.49-.26,1-.51,1.47-.79l1.42-.87c.23-.15.48-.28.71-.44l.68-.48,1.37-1,1.32-1c.44-.35.9-.67,1.31-1.06l1.28-1.11.63-.55c.21-.19.41-.39.61-.59l1.22-1.18.6-.59c.21-.2.39-.41.59-.61l1.18-1.22c.39-.41.8-.81,1.17-1.24l1.12-1.28,1.16-1.26.07,0a74.39,74.39,0,0,1-9.16,10.1c-.41.4-.87.74-1.3,1.11l-1.32,1.09-1.38,1-.69.5c-.23.17-.48.31-.72.47l-1.44.91c-.49.28-1,.54-1.5.81-.25.14-.5.28-.76.4l-.78.35-.78.35-.39.17-.4.14L74.4,101l-1.65.43a24.42,24.42,0,0,1-3.38.51,21,21,0,0,1-6.79-.6,23.73,23.73,0,0,1-11.5-7Z"/>
              <path class="cls-17" d="M93.82,80.3a8.1,8.1,0,0,1,2.84-.36,4.14,4.14,0,0,1,1.5.4,2.68,2.68,0,0,1,1.19,1.21,3.24,3.24,0,0,1,.21,1.63,5.28,5.28,0,0,1-.41,1.45A8.66,8.66,0,0,1,97.58,87l0,0a14.82,14.82,0,0,0,1.18-2.52c.07-.21.12-.44.18-.66a5.35,5.35,0,0,0,.11-.68,2.76,2.76,0,0,0-.2-1.34,2.08,2.08,0,0,0-.91-1,4,4,0,0,0-1.3-.42,8,8,0,0,0-1.38-.1l-.7,0a5.31,5.31,0,0,1-.7,0Z"/>
              <path class="cls-17" d="M50.53,96a3,3,0,0,1-1.16-1.71,1.57,1.57,0,0,1,.31-1.27,2.48,2.48,0,0,1,1-.67,5.09,5.09,0,0,1,2.06-.22,6.16,6.16,0,0,1,1.94.45v0a17.57,17.57,0,0,0-1.92,0,6.28,6.28,0,0,0-1.88.31,2,2,0,0,0-.79.48,1.17,1.17,0,0,0-.27.86,2.62,2.62,0,0,0,.28.9c.07.14.15.28.23.42a3.33,3.33,0,0,1,.25.42Z"/>
              <path class="cls-11" d="M51.88,38.85c2-12.25,13-9.82,18.22-4.44C62.74,32,56.87,33.93,51.88,38.85Z"/>
            </g>
          </g>
          <path class="cls-17" d="M61,102a10.67,10.67,0,0,0,4.79,2.17,12.55,12.55,0,0,0,5.17-.3,23.66,23.66,0,0,0,5-1.78c.83-.36,1.63-.77,2.43-1.21s1.6-.87,2.4-1.32l0,0a29.61,29.61,0,0,1-4.61,3,22.21,22.21,0,0,1-5.11,2,12.18,12.18,0,0,1-5.47.14,9.38,9.38,0,0,1-2.56-1,11.15,11.15,0,0,1-2.17-1.7Z"/>
          <path class="cls-18" d="M66.33,91.15s1.72-5.54,4.49-6.38c4.27-1.3,3.44.52,2.68,2.14-.57,1.21-.47,2.65-7.19,4.76"/>
          <path class="cls-18" d="M53.67,83.28s.62-3.69,2.11-1.65S59,88.76,59,88.76A7.77,7.77,0,0,1,53.67,83.28Z"/>
          <path class="cls-2" d="M28.33,67S19.16,83.14,19.8,95.9l5.83-10.62s-5.17,11.07-2.28,17.59l2.66-7,.52,11.42L31,102.16"/>
          <path class="cls-2" d="M115.65,12.09S110.5,6.68,97.74,3.26l7.43,7.92a47.15,47.15,0,0,0-20.44-6.9l10.81,7.17A44.21,44.21,0,0,0,73.29,8.57l10.19,4.87"/>
        </g>
        <path class="cls-2" d="M7.66,228.26s2.59-9.41,11.76-12.94"/>
      </g>
      <g>
        <g>
          <path class="cls-19" d="M107.17,375.86s7.92-14.73,20.16-15.43"/>
          <path class="cls-6" d="M106.92,375.73a40.46,40.46,0,0,1,3.82-5.43,36.38,36.38,0,0,1,4.66-4.71,26.88,26.88,0,0,1,2.66-2A24.8,24.8,0,0,1,121,362a20.15,20.15,0,0,1,3.11-1.1,18.08,18.08,0,0,1,3.26-.49,17.86,17.86,0,0,0-3.24.56,20,20,0,0,0-3.07,1.16,23.65,23.65,0,0,0-2.85,1.64,31.44,31.44,0,0,0-2.59,2,36.25,36.25,0,0,0-4.51,4.76,39.15,39.15,0,0,0-3.65,5.44Z"/>
        </g>
        <g>
          <path class="cls-19" d="M114.63,379.66a28.44,28.44,0,0,1,22.75-17.26"/>
          <path class="cls-6" d="M114.36,379.57a22.31,22.31,0,0,1,1.71-3.38,28.47,28.47,0,0,1,2.14-3.1,29,29,0,0,1,5.38-5.23,28.34,28.34,0,0,1,6.55-3.63,31.78,31.78,0,0,1,7.24-1.83,31.76,31.76,0,0,0-7.19,2,27.88,27.88,0,0,0-6.43,3.73,27,27,0,0,0-2.78,2.46,28.28,28.28,0,0,0-2.44,2.8,27.45,27.45,0,0,0-2.05,3.08,23,23,0,0,0-1.6,3.32Z"/>
        </g>
      </g>
    </g>
  </g>
</svg>
