<svg id="b5efa524-a6f9-45e2-90d1-3a13a9a46ca6" data-name="Layer 1" xmlns="http://www.w3.org/2000/svg" width="114.29" height="57.84" viewBox="0 0 114.29 57.84">
  <defs>
    <style>
      .ae7c803b-c6e8-4872-a434-85aa241f5928 {
        fill: #fff;
      }

      .abc2164f-7095-441d-9f97-3cd743cbcf9b {
        fill: #702840;
      }

      .ae51ff39-5ccd-4aa9-ac14-e9a54242c56d {
        fill: #210a11;
      }

      .bf6daae0-f03d-42a9-bc4a-2cbc43d36357 {
        fill: #ecc516;
      }
    </style>
  </defs>
  <g>
    <g>
      <g>
        <g>
          <ellipse class="ae7c803b-c6e8-4872-a434-85aa241f5928" cx="42.04" cy="30.05" rx="13.33" ry="9.83" transform="translate(-0.57 59.28) rotate(-70)"/>
          <path class="abc2164f-7095-441d-9f97-3cd743cbcf9b" d="M37.6,42.67A7.89,7.89,0,0,1,33.91,40a10.94,10.94,0,0,1-2-4.16,17.49,17.49,0,0,1,5.5-17.06,11.74,11.74,0,0,1,4.32-2.25,8.78,8.78,0,0,1,5,.07,8.68,8.68,0,0,1,4,3,11.44,11.44,0,0,1,2,4.46,16.82,16.82,0,0,1-.95,9.33,17.17,17.17,0,0,1-5.5,7.39,11.47,11.47,0,0,1-4.13,2A8.1,8.1,0,0,1,37.6,42.67Zm0-.09a7.82,7.82,0,0,0,4.47.1,10.81,10.81,0,0,0,4-2,16.49,16.49,0,0,0,5.13-7.38,16.29,16.29,0,0,0,.63-9A10.55,10.55,0,0,0,50,20.21a7.43,7.43,0,0,0-8-2.76,10.92,10.92,0,0,0-4,2,16.5,16.5,0,0,0-5.14,7.37,16.3,16.3,0,0,0-.66,9A10.7,10.7,0,0,0,34,39.91,7.72,7.72,0,0,0,37.64,42.58Z"/>
        </g>
        <ellipse class="ae51ff39-5ccd-4aa9-ac14-e9a54242c56d" cx="46.39" cy="31.63" rx="6" ry="4.46" transform="translate(3.35 67.68) rotate(-74.23)"/>
        <ellipse class="ae7c803b-c6e8-4872-a434-85aa241f5928" cx="49.39" cy="30.97" rx="1.65" ry="1.22" transform="translate(6.16 70.08) rotate(-74.23)"/>
      </g>
      <g>
        <g>
          <ellipse class="ae7c803b-c6e8-4872-a434-85aa241f5928" cx="68.31" cy="36.87" rx="12.13" ry="8.94" transform="translate(23.04 99.93) rotate(-82.68)"/>
          <path class="abc2164f-7095-441d-9f97-3cd743cbcf9b" d="M66.89,49a7.1,7.1,0,0,1-3.81-1.61,9.83,9.83,0,0,1-2.58-3.29,15.95,15.95,0,0,1,1.43-16.29,10.71,10.71,0,0,1,3.4-2.89,8.07,8.07,0,0,1,4.5-.94A7.92,7.92,0,0,1,74,25.84a10.45,10.45,0,0,1,2.66,3.59,15.4,15.4,0,0,1,1,8.51,15.67,15.67,0,0,1-3.44,7.65A10.12,10.12,0,0,1,71,48.22,7.31,7.31,0,0,1,66.89,49Zm0-.09a7.17,7.17,0,0,0,4-.8,10,10,0,0,0,3.16-2.63A15.44,15.44,0,0,0,75.9,29.8a9.88,9.88,0,0,0-2.48-3.25,7.08,7.08,0,0,0-3.7-1.62,7.21,7.21,0,0,0-4,.78,9.9,9.9,0,0,0-3.15,2.61,14.89,14.89,0,0,0-3.09,7.55A14.73,14.73,0,0,0,60.71,44a9.83,9.83,0,0,0,2.47,3.27A7.11,7.11,0,0,0,66.9,48.87Z"/>
        </g>
        <ellipse class="ae51ff39-5ccd-4aa9-ac14-e9a54242c56d" cx="71.44" cy="40.75" rx="5.46" ry="4.05" transform="translate(7.54 92.52) rotate(-68.71)"/>
        <ellipse class="ae7c803b-c6e8-4872-a434-85aa241f5928" cx="74.51" cy="39.93" rx="1.5" ry="1.11" transform="translate(10.25 94.86) rotate(-68.71)"/>
      </g>
      <path class="ae51ff39-5ccd-4aa9-ac14-e9a54242c56d" d="M69,18.5s4,.95,8.06,6.4C77,24.9,72.11,11.87,69,18.5Z"/>
      <path class="ae51ff39-5ccd-4aa9-ac14-e9a54242c56d" d="M53.7,11.94s-4.3-1.49-11.32.69C42.38,12.63,54.76,4.68,53.7,11.94Z"/>
    </g>
    <ellipse class="bf6daae0-f03d-42a9-bc4a-2cbc43d36357" cx="42.04" cy="30.05" rx="13.33" ry="9.83" transform="translate(-0.57 59.28) rotate(-70)"/>
    <ellipse class="bf6daae0-f03d-42a9-bc4a-2cbc43d36357" cx="68.31" cy="36.87" rx="12.13" ry="8.94" transform="translate(23.04 99.93) rotate(-82.68)"/>
    <path class="abc2164f-7095-441d-9f97-3cd743cbcf9b" d="M50.4,33.42c-5.91,2.22-13.63,2.06-18.12-2.9a16.53,16.53,0,0,0,1.94,1.41C39,35,45.08,34.7,50.4,33.42Z"/>
    <path class="abc2164f-7095-441d-9f97-3cd743cbcf9b" d="M76.06,38.92c-4.76,2.58-11.8,3.23-15.5-1.44,4.16,4.07,10.49,3.32,15.5,1.44Z"/>
  </g>
</svg>
