<svg id="fda349f5-7651-4974-b575-666194a2eb97" data-name="Layer 1" xmlns="http://www.w3.org/2000/svg" width="100.94" height="97.76" viewBox="0 0 100.94 97.76">
  <defs>
    <style>
      .e6c1022b-a8ff-4e48-bb85-09c40a34fea6 {
        fill: #ffe309;
        stroke: #665608;
        stroke-miterlimit: 10;
        stroke-width: 0.75px;
      }
    </style>
  </defs>
  <g>
    <path class="e6c1022b-a8ff-4e48-bb85-09c40a34fea6" d="M68.89,93.35C37.23,80.83,27.56,47.84,28,34.75s12.25-.33,12.25-.33c0,7.47,1.2.4,3,6,9,27.26,34.94,33.29,34.94,33.29s6.63,11.07-9.33,19.67"/>
    <path class="e6c1022b-a8ff-4e48-bb85-09c40a34fea6" d="M31.08,52.21s-7.64-5-10.2-20.71,6-5.22,6-5.22,1.58,3-.61-4.52c-2.76-9.52,7.78-6,11.43,5.36.64,2,2.63,5.57,4.7,5.19,0,0-.38-6.08,1-7.22,2.78-2.31,7.6,1.5,1.36,18.18l-.26.46"/>
    <path class="e6c1022b-a8ff-4e48-bb85-09c40a34fea6" d="M42.37,32.31s-8.9-3.25-9.12,6.61"/>
    <path class="e6c1022b-a8ff-4e48-bb85-09c40a34fea6" d="M27.14,24.61a22.19,22.19,0,0,0,4.22,8.59"/>
  </g>
</svg>
