<svg id="a108f74e-b794-4e49-b86e-9c948a7d4d63" data-name="Layer 1" xmlns="http://www.w3.org/2000/svg" width="81.53" height="67.06" viewBox="0 0 81.53 67.06">
  <defs>
    <style>
      .a1b06b3f-d036-4c6d-a182-993d1f444a6f, .edf0126f-3ced-4bc2-82b0-7805f0f51f2d {
        fill: #fff;
      }

      .edf0126f-3ced-4bc2-82b0-7805f0f51f2d {
        stroke: #702840;
      }

      .a953ecad-9f1b-408a-b5d6-6d360d9862e6, .edf0126f-3ced-4bc2-82b0-7805f0f51f2d {
        stroke-miterlimit: 10;
        stroke-width: 0.75px;
      }

      .a2f4aa28-0f9f-41ab-a3aa-eef2a0edaccd {
        fill: #210a11;
      }

      .a953ecad-9f1b-408a-b5d6-6d360d9862e6 {
        fill: #ffe309;
        stroke: #665608;
      }
    </style>
  </defs>
  <g>
    <g>
      <g>
        <path class="edf0126f-3ced-4bc2-82b0-7805f0f51f2d" d="M34.74,40.27a25.23,25.23,0,0,1-.16,3.16c-1,8.64-6.45,15.31-13.12,15.46S8.94,52.33,7.9,43.48a22.77,22.77,0,0,1-.18-2.63C7.59,30.73,13.54,22.39,21,22.23c6.5-.14,12,6,13.4,14.24a.4.4,0,0,1,0,.15c.07.43.12.86.17,1.31C34.68,38.69,34.73,39.48,34.74,40.27Z"/>
        <path class="a2f4aa28-0f9f-41ab-a3aa-eef2a0edaccd" d="M33.06,44a5.55,5.55,0,0,1-3.17,2.36,4.82,4.82,0,0,1-4.07-.84,8.76,8.76,0,0,1-3.32-5.73c-.78-4.47,1.26-8.78,4.56-9.63s6.49,2,7.34,6.34a.4.4,0,0,1,0,.15.24.24,0,0,1,0,.08q.11.61.15,1.23A9.64,9.64,0,0,1,33.06,44Z"/>
        <ellipse class="a1b06b3f-d036-4c6d-a182-993d1f444a6f" cx="31.17" cy="34.6" rx="1.68" ry="2.26" transform="translate(-2.53 2.46) rotate(-4.34)"/>
      </g>
      <g>
        <path class="edf0126f-3ced-4bc2-82b0-7805f0f51f2d" d="M70.87,40.36c-.37,6.36-3.65,11.58-8.64,12.81-6,1.5-12.45-3.34-15.14-11a22.16,22.16,0,0,1-.65-2.23C44.3,31,47.91,22.37,54.5,20.74S68.17,25,70.3,34A21.51,21.51,0,0,1,70.87,40.36Z"/>
        <ellipse class="a2f4aa28-0f9f-41ab-a3aa-eef2a0edaccd" cx="63.57" cy="33.43" rx="5.57" ry="7.51" transform="translate(-7 20.07) rotate(-17.02)"/>
        <ellipse class="a1b06b3f-d036-4c6d-a182-993d1f444a6f" cx="66.49" cy="29.5" rx="1.53" ry="2.06" transform="translate(-5.72 20.75) rotate(-17.02)"/>
      </g>
      <path class="a2f4aa28-0f9f-41ab-a3aa-eef2a0edaccd" d="M50.51,12.92s5.64-.65,13.43,4.46C63.94,17.38,51.45,2.88,50.51,12.92Z"/>
      <path class="a2f4aa28-0f9f-41ab-a3aa-eef2a0edaccd" d="M27.71,11.67s-6.25.1-14.28,6.24C13.43,17.91,25.65,1.8,27.71,11.67Z"/>
    </g>
    <path class="a953ecad-9f1b-408a-b5d6-6d360d9862e6" d="M34.74,40.27a25.23,25.23,0,0,1-.16,3.16c-.51.19-1,.38-1.52.54a33.53,33.53,0,0,1-7.24,1.52,46.6,46.6,0,0,1-17.92-2,22.77,22.77,0,0,1-.18-2.63C7.59,30.73,13.54,22.39,21,22.23c6.5-.14,12,6,13.4,14.24a.4.4,0,0,1,0,.15.24.24,0,0,1,0,.08q.11.61.15,1.23C34.68,38.69,34.73,39.48,34.74,40.27Z"/>
    <path class="a953ecad-9f1b-408a-b5d6-6d360d9862e6" d="M70.87,40.36c-8.08,4.36-18.06,3.1-23.78,1.78a22.16,22.16,0,0,1-.65-2.23C44.3,31,47.91,22.37,54.5,20.74S68.17,25,70.3,34A21.51,21.51,0,0,1,70.87,40.36Z"/>
  </g>
</svg>
