<svg id="a00ad2ca-f0f3-4ed0-8701-d210b4a20e03" data-name="Layer 1" xmlns="http://www.w3.org/2000/svg" width="370" height="360" viewBox="0 0 370 360">
  <defs>
    <style>
      .a9d21599-d2ba-4ef7-8c0b-5f61bbd3268e, .b9efc459-de8b-495f-8e6f-fa0a50710504 {
        fill: #ffe309;
      }

      .b9efc459-de8b-495f-8e6f-fa0a50710504, .bc8bd43c-fa6e-4e99-9524-fe4c68d94aee {
        stroke: #665608;
      }

      .a9d21599-d2ba-4ef7-8c0b-5f61bbd3268e, .b1f6b012-0975-489c-9e84-ddf0e70d109e, .b9efc459-de8b-495f-8e6f-fa0a50710504, .bc8bd43c-fa6e-4e99-9524-fe4c68d94aee {
        stroke-miterlimit: 10;
      }

      .a9d21599-d2ba-4ef7-8c0b-5f61bbd3268e, .b9efc459-de8b-495f-8e6f-fa0a50710504, .bc8bd43c-fa6e-4e99-9524-fe4c68d94aee {
        stroke-width: 0.75px;
      }

      .a9d21599-d2ba-4ef7-8c0b-5f61bbd3268e {
        stroke: #493c05;
      }

      .e0e2e06a-520b-415f-8c77-87aa5517186d {
        fill: #ecc516;
      }

      .b1f6b012-0975-489c-9e84-ddf0e70d109e {
        fill: #532900;
        stroke: #3a1c03;
      }

      .e9bf9b6f-bdbc-43d6-9724-dbaae42f1246 {
        fill: #681a1a;
      }

      .e86a3e9f-259f-4f88-99dc-b1e30f911329 {
        fill: #ef7089;
      }

      .e5077313-0d0b-4d0d-85f8-c736d3690b4e {
        fill: #ff5763;
      }

      .ae3b7b2d-c860-44f1-850b-b0088a1cf2cc {
        fill: #fff;
      }

      .af65b425-7ca0-4ad4-a54d-f78d10625d50 {
        fill: #ef304c;
      }

      .fb54e210-4fec-4dc6-ab2a-3b4925a0b13d {
        fill: #ffa979;
      }

      .bc8bd43c-fa6e-4e99-9524-fe4c68d94aee {
        fill: none;
      }
    </style>
  </defs>
  <g>
    <g>
      <g>
        <path class="b9efc459-de8b-495f-8e6f-fa0a50710504" d="M276.61,289s-.43,11.42,12.26,10.88,21.59-5.84,24.95,6.33,5.87,25.6-6.3,29S293.18,321,283.83,323.84s-27.54,3.3-30.56-18.81S276.61,289,276.61,289Z"/>
        <g>
          <path class="b9efc459-de8b-495f-8e6f-fa0a50710504" d="M161.85,240.79s6.48,6.56-8.31,50.21c0,0-5.59,17.91-11.95,26.56s-11,26.13-7.65,32.42,11.22,9.81,12.06-1.68l-3.93-11.82s-1.75,13.45,13.54,12.49-4.39-16.88-4.39-16.88l11.15,9.3s11.54-5.06-3.26-19.32c0,0,8-1.94,21.51-29.27S197,233.53,197,233.53Z"/>
          <path class="a9d21599-d2ba-4ef7-8c0b-5f61bbd3268e" d="M130.25,279.44c10.64,13.6,22.17,23.81,35,30.48a82.45,82.45,0,0,0,30.29,8.93l0,0a104.38,104.38,0,0,0,24.46-.6c1.53-.2,3.07-.44,4.58-.73a111.29,111.29,0,0,0,31.79-11c19.76-10.31,34.86-25.09,45.36-37.33,2.52-2.92,4.75-5.72,6.73-8.23,14.91-18.94,30.3-23.84,30.3-23.84-13.2-2.06-23.23-12.89-34.54-24.22C294,202.54,282.69,191.74,267,186.84c-.81-.26-1.62-.52-2.48-.74a72.51,72.51,0,0,0-15.32-2.34,97.63,97.63,0,0,0-23.42,1.8,5.47,5.47,0,0,0-.61.13,131.34,131.34,0,0,0-21,6,105.21,105.21,0,0,0-12,5.25C168,210.06,152,195.71,152,195.71l-34,66.08A191.81,191.81,0,0,0,130.25,279.44Z"/>
          <path class="e0e2e06a-520b-415f-8c77-87aa5517186d" d="M129.73,276.25c12.53-2.52,25-9.13,39-18.74,29-19.91,45.32-47.07,37.93-62.25a105.19,105.19,0,0,0-18,4.64,80.32,80.32,0,0,0-10.23,4.26c-20.5,10.85-34.9-2.62-34.9-2.62l-27.08,58C120.16,265.47,125.89,271.29,129.73,276.25Z"/>
          <path class="b1f6b012-0975-489c-9e84-ddf0e70d109e" d="M300.41,269.17c2.52-2.92,6.12-5.69,8.1-8.2,14.91-18.94,30.3-23.84,30.3-23.84-13.2-2.06-24.89-13.75-36.19-25.08C308,222.63,314.25,243.87,300.41,269.17Z"/>
          <path class="b1f6b012-0975-489c-9e84-ddf0e70d109e" d="M165.27,309.92a82.45,82.45,0,0,0,30.29,8.93l0,0c11.46-7.87,30.8-26.56,40.92-66.84,6.2-24.75-.62-47.87-10.74-66.43a132.47,132.47,0,0,0-21.6,6.16C212,206.47,220.5,232,208.3,260.47,196.33,288.33,177.58,302.92,165.27,309.92Z"/>
          <path class="b1f6b012-0975-489c-9e84-ddf0e70d109e" d="M224.63,317.5a111.29,111.29,0,0,0,31.79-11c11.89-11.09,26.69-29.15,30.15-52.73,4.28-28.81-7-50.45-19.58-67-.81-.26-1.62-.52-2.48-.74a72.51,72.51,0,0,0-15.32-2.34c8.78,13.54,20.64,38.31,13.11,65.8C253.41,282.06,233,307.93,224.63,317.5Z"/>
          <g>
            <path class="b9efc459-de8b-495f-8e6f-fa0a50710504" d="M143.23,117.76s16.86-3.67,29.63-41.47-14.43-74.18-34.24-72S122,23,142.26,31.86,171.1,86,137.16,114C137.16,114,119.32,136.79,143.23,117.76Z"/>
            <path class="b9efc459-de8b-495f-8e6f-fa0a50710504" d="M91,125.08S88.62,93.49,77.83,74.63,36.39,15.79,8.93,32.35c0,0-7.32,8-2,14.89s13.61,7.46,20.3,1.42S84,68,83.25,125.09C83.25,125.09,87.89,139.87,91,125.08Z"/>
            <g>
              <path class="b9efc459-de8b-495f-8e6f-fa0a50710504" d="M32.11,241.56c8,37.21,44.65,51.72,84.84,51.21a.17.17,0,0,0,.12,0,182.47,182.47,0,0,0,39.76-5.08c52.84-12.65,73.59-47,57.88-99.79-11.79-39.69-43.68-73.16-83.89-77.05a84.07,84.07,0,0,0-27.76,2C50.19,125.53,20.3,186.44,32.11,241.56Z"/>
              <path class="e0e2e06a-520b-415f-8c77-87aa5517186d" d="M113.74,292a184.2,184.2,0,0,0,39.74-5.12c52.84-12.65,73.66-46.74,58.06-99-11.71-39.33-43.51-72.44-83.69-76.22,18.92,7.65,55.84,28.77,66.8,79.7C208.91,257.41,159.17,287.09,113.74,292Z"/>
              <g>
                <g>
                  <g>
                    <g>
                      <path class="e9bf9b6f-bdbc-43d6-9724-dbaae42f1246" d="M71,240.59s4.22,17.59,15.85,28.79a31.94,31.94,0,0,0,11,7.2c15.81,6.05,33.13,1.22,41.61-17.59.22-.4.37-.81.55-1.23a62.6,62.6,0,0,0,4.24-16.95s-31.2,12.09-62,3.8A70.64,70.64,0,0,1,71,240.59Z"/>
                      <path class="e86a3e9f-259f-4f88-99dc-b1e30f911329" d="M71,240.63a78,78,0,0,0,4.29,11.22,65.93,65.93,0,0,0,6.08,10.37A45.21,45.21,0,0,0,89.46,271a29.57,29.57,0,0,0,10.39,5.54,35.35,35.35,0,0,0,11.66,1.69,28.8,28.8,0,0,0,11.37-2.68,29.15,29.15,0,0,0,9.34-7,40.13,40.13,0,0,0,6.37-9.91l0-.06a44.06,44.06,0,0,0,1.7-4.24q.77-2.19,1.35-4.44a69.34,69.34,0,0,0,1.7-9.16l1.13.87a114.26,114.26,0,0,1-18.26,4.74,115.61,115.61,0,0,1-18.75,1.73l-2.35,0c-.79,0-1.57-.06-2.36-.09-1.56-.09-3.14-.06-4.7-.26s-3.12-.29-4.68-.5l-4.64-.8c-1.54-.27-3.05-.73-4.58-1.08s-3-.76-4.52-1.26A63.84,63.84,0,0,1,71,240.63Zm-.07-.08a78.27,78.27,0,0,0,8.81,3.29c1.49.47,3,.85,4.53,1.18s3,.76,4.57,1a93.16,93.16,0,0,0,18.64,1.38,116,116,0,0,0,18.6-1.9,113.86,113.86,0,0,0,18.09-4.76l.13,0v.14a69.62,69.62,0,0,1-1.7,9.29,51.88,51.88,0,0,1-3.1,8.93h0a40.1,40.1,0,0,1-6.57,10.14,29.43,29.43,0,0,1-21.4,9.91,35.22,35.22,0,0,1-11.92-1.81A30.25,30.25,0,0,1,89,271.49a46,46,0,0,1-8.11-9A66.19,66.19,0,0,1,75,252c-.84-1.83-1.58-3.71-2.28-5.6A51.3,51.3,0,0,1,70.93,240.55Z"/>
                    </g>
                    <path class="e5077313-0d0b-4d0d-85f8-c736d3690b4e" d="M112,258.88c-13.22,1.66-22.76,11.53-15,17.54a15.9,15.9,0,0,0,7.33,2.78c27.48-1.11,33.7-15.26,32.7-24.33-3.37-.75-7.15.56-16.7,3.47A65.5,65.5,0,0,0,112,258.88Z"/>
                    <path class="e9bf9b6f-bdbc-43d6-9724-dbaae42f1246" d="M121.56,256s-8.88,7.46-7.81,19.74c0,0,2-12.75,12-20.2Z"/>
                    <path class="ae3b7b2d-c860-44f1-850b-b0088a1cf2cc" d="M104,263.88a63.77,63.77,0,0,0,16.94.26,25.89,25.89,0,0,0,22.62-22.3l0-.19s-30.33,12.23-61.1,3.94C82.27,253.51,86.38,261.28,104,263.88Z"/>
                  </g>
                  <path class="af65b425-7ca0-4ad4-a54d-f78d10625d50" d="M146.8,230.08a14.71,14.71,0,0,0-.13,1.74,10.81,10.81,0,0,0,0,1.71,9.22,9.22,0,0,0,.72,3.24,5.86,5.86,0,0,0,2,2.56,10.82,10.82,0,0,0,3,1.57v0a8.8,8.8,0,0,1-3.24-1.3A6,6,0,0,1,147,237a9.13,9.13,0,0,1-.65-3.43,12.71,12.71,0,0,1,.44-3.47Z"/>
                  <path class="af65b425-7ca0-4ad4-a54d-f78d10625d50" d="M66.18,244.66a13.11,13.11,0,0,0,1.08-1,11,11,0,0,0,1-1.06,12.78,12.78,0,0,0,1.62-2.35A10.84,10.84,0,0,0,70.5,239c.16-.45.32-.89.44-1.35a16.77,16.77,0,0,0,.51-2.89h0a10.5,10.5,0,0,1-.18,3,9.3,9.3,0,0,1-1,2.8,11.47,11.47,0,0,1-4.1,4.23Z"/>
                </g>
                <ellipse class="fb54e210-4fec-4dc6-ab2a-3b4925a0b13d" cx="168.35" cy="224.08" rx="15.37" ry="10.79" transform="translate(-47.53 45.34) rotate(-13.46)"/>
                <ellipse class="fb54e210-4fec-4dc6-ab2a-3b4925a0b13d" cx="46.35" cy="223.47" rx="10.79" ry="15.37" transform="translate(-181.8 229.47) rotate(-79.79)"/>
              </g>
            </g>
          </g>
          <path class="b9efc459-de8b-495f-8e6f-fa0a50710504" d="M298.59,244.38a8.8,8.8,0,0,0-13.47,7.92,19.43,19.43,0,0,0,5,12.67c7.75,8.06,20.91,15.87,34.3,11.46s18.93,6.49,23.11,13.05,17.87,5.74,17.46-10.09c0,0,.42-21.2-17-30.18,0,0-6.72-5.53-26.63.91C309.17,254.06,304.06,247.92,298.59,244.38Z"/>
        </g>
      </g>
      <path class="b9efc459-de8b-495f-8e6f-fa0a50710504" d="M222.18,238.6s31.46,27.49,5.58,50.29c-15.22,13.42-22.54,20.73-28.34,22-8.1,1.75-16.86,19.13-14.76,25.25,0,0,3.62,12.61,9.56,4.76,0,0,11.43,14.81,28.39-8.16,0,0,.22-7.28-11.74-8.19,0,0,78-33.24,46.21-96.06C257.08,228.47,233.08,215.06,222.18,238.6Z"/>
      <path class="bc8bd43c-fa6e-4e99-9524-fe4c68d94aee" d="M208.42,331.76s-10.11.37,7.38-10.38"/>
    </g>
    <line class="b9efc459-de8b-495f-8e6f-fa0a50710504" x1="194.22" y1="340.88" x2="190.65" y2="333.93"/>
  </g>
</svg>
