<svg id="e9a44aea-3d94-46c5-9477-c0b0b5130eec" data-name="Layer 1" xmlns="http://www.w3.org/2000/svg" width="108.35" height="70.24" viewBox="0 0 108.35 70.24">
  <defs>
    <style>
      .ba271c81-e841-4e9e-b9e1-f5f16577d4c1, .fa1b98db-7ffa-4a34-8ecf-efd096d8e5ae {
        fill: #fff;
      }

      .fa1b98db-7ffa-4a34-8ecf-efd096d8e5ae {
        stroke: #3d2d16;
      }

      .fa1b98db-7ffa-4a34-8ecf-efd096d8e5ae, .fddf84f8-c2b1-43b6-aa62-b3730f7dc5b1 {
        stroke-miterlimit: 10;
        stroke-width: 0.5px;
      }

      .a9289986-ca1e-4392-9f1f-b333530c5033 {
        fill: #3d2d16;
      }

      .fddf84f8-c2b1-43b6-aa62-b3730f7dc5b1 {
        fill: #f9dad2;
        stroke: #4c2606;
      }
    </style>
  </defs>
  <g>
    <g>
      <g>
        <path class="fa1b98db-7ffa-4a34-8ecf-efd096d8e5ae" d="M33.25,42.79c0,8-6.09,14.39-13.61,14.39S6,50.74,6,42.79a14.86,14.86,0,0,1,1.22-5.95,13.57,13.57,0,0,1,12.38-8.45A13.78,13.78,0,0,1,32.83,39.23,15.42,15.42,0,0,1,33.25,42.79Z"/>
        <ellipse class="a9289986-ca1e-4392-9f1f-b333530c5033" cx="19.45" cy="42.63" rx="9.1" ry="9.63"/>
        <ellipse class="ba271c81-e841-4e9e-b9e1-f5f16577d4c1" cx="15.74" cy="36.92" rx="2.5" ry="2.64"/>
      </g>
      <g>
        <path class="fa1b98db-7ffa-4a34-8ecf-efd096d8e5ae" d="M98.08,45.39c0,8-6.09,14.39-13.6,14.39S70.87,53.34,70.87,45.39a15.07,15.07,0,0,1,1.7-7A13.52,13.52,0,0,1,84.48,31a13.68,13.68,0,0,1,12.84,9.65A15.2,15.2,0,0,1,98.08,45.39Z"/>
        <ellipse class="a9289986-ca1e-4392-9f1f-b333530c5033" cx="84.14" cy="45.38" rx="8.97" ry="9.49"/>
        <ellipse class="ba271c81-e841-4e9e-b9e1-f5f16577d4c1" cx="80.73" cy="39.59" rx="2.5" ry="2.64"/>
      </g>
      <path class="a9289986-ca1e-4392-9f1f-b333530c5033" d="M79.88,16.24s13.55-2.31,20.05,6.7c.26.36.87.19.84-.23-.21-2.74-1.69-8.37-10.11-10C77.37,10.1,79.88,16.24,79.88,16.24Z"/>
      <path class="a9289986-ca1e-4392-9f1f-b333530c5033" d="M28,10.69S14.49,8.38,8,17.4a.46.46,0,0,1-.84-.24c.21-2.74,1.69-8.36,10.12-10C30.55,4.55,28,10.69,28,10.69Z"/>
    </g>
    <path class="fddf84f8-c2b1-43b6-aa62-b3730f7dc5b1" d="M32.83,39.23c-1.83-.56-3.67-1-5.47-1.36a69,69,0,0,0-9.13-1.15c-1.79-.11-3.46-.14-5-.14h-.91c-2.11,0-3.86.14-5.09.25a13.57,13.57,0,0,1,12.38-8.45A13.78,13.78,0,0,1,32.83,39.23Z"/>
    <path class="fddf84f8-c2b1-43b6-aa62-b3730f7dc5b1" d="M97.32,40.64a55.2,55.2,0,0,0-6.39-1.46,67.89,67.89,0,0,0-8-.89c-1.52-.09-3-.12-4.27-.12h-.32c-2.38,0-4.35.13-5.74.24A13.52,13.52,0,0,1,84.48,31,13.68,13.68,0,0,1,97.32,40.64Z"/>
  </g>
</svg>
