<svg id="aa0c222e-f267-4d42-b0bf-1b2ac8d86982" data-name="Layer 1" xmlns="http://www.w3.org/2000/svg" width="26.97" height="30.02" viewBox="0 0 26.97 30.02">
  <defs>
    <style>
      .b76fdb77-4f79-4f7a-b87f-a59d32d9a451 {
        fill: #fff;
      }

      .eb3808fa-e88c-4a64-b32b-60a23f727354 {
        fill: #1d2a2d;
      }

      .fc75c6cb-74c8-4124-8c1c-e8c4821d9277 {
        fill: #16272b;
      }

      .b2e331b3-50b3-4fef-bdf8-7dc77f458c4b {
        fill: #daecef;
      }

      .bc791c82-5df6-481e-9afd-768970346977 {
        fill: #301904;
      }

      .bdd194c8-421e-4111-9c02-309f51717189 {
        fill: #211003;
      }
    </style>
  </defs>
  <g>
    <g>
      <g>
        <ellipse class="b76fdb77-4f79-4f7a-b87f-a59d32d9a451" cx="13.49" cy="15.01" rx="11.89" ry="13.33"/>
        <path class="eb3808fa-e88c-4a64-b32b-60a23f727354" d="M25.43,15a14.41,14.41,0,0,1-3.18,9.26,11.74,11.74,0,0,1-8.76,4.55,11.9,11.9,0,0,1-9.23-4.16A15.08,15.08,0,0,1,.7,15,15.05,15.05,0,0,1,4.26,5.37a11.88,11.88,0,0,1,9.23-4.16,11.73,11.73,0,0,1,8.76,4.54A14.41,14.41,0,0,1,25.43,15Zm-.1,0a14.21,14.21,0,0,0-3.26-9.1,11.22,11.22,0,0,0-8.58-4.15A11.25,11.25,0,0,0,4.92,5.92,14.19,14.19,0,0,0,1.7,15,14.19,14.19,0,0,0,4.92,24.1a11.26,11.26,0,0,0,8.57,4.16,11.25,11.25,0,0,0,8.58-4.14A14.26,14.26,0,0,0,25.33,15Z"/>
      </g>
      <ellipse class="fc75c6cb-74c8-4124-8c1c-e8c4821d9277" cx="14.06" cy="15.36" rx="7.62" ry="8.54"/>
      <ellipse class="b2e331b3-50b3-4fef-bdf8-7dc77f458c4b" cx="17.71" cy="11.29" rx="2.39" ry="2.68"/>
    </g>
    <g>
      <ellipse class="bc791c82-5df6-481e-9afd-768970346977" cx="13.49" cy="15.01" rx="11.89" ry="13.33"/>
      <path class="bdd194c8-421e-4111-9c02-309f51717189" d="M25.39,15a14.33,14.33,0,0,1-3.22,9.19,11.46,11.46,0,0,1-8.68,4.26,11.49,11.49,0,0,1-8.77-4.19,14.47,14.47,0,0,1,0-18.52,11.52,11.52,0,0,1,8.77-4.19,11.46,11.46,0,0,1,8.68,4.26A14.33,14.33,0,0,1,25.39,15Zm0,0a14.24,14.24,0,0,0-3.26-9.13A11.32,11.32,0,0,0,13.49,1.7,11.34,11.34,0,0,0,4.87,5.88a14.45,14.45,0,0,0,0,18.26,11.34,11.34,0,0,0,8.62,4.18,11.31,11.31,0,0,0,8.62-4.17A14.28,14.28,0,0,0,25.37,15Z"/>
    </g>
  </g>
</svg>
