<svg id="ac637474-a726-4ecb-a407-8a65b781114f" data-name="Layer 1" xmlns="http://www.w3.org/2000/svg" width="926.96" height="500" viewBox="0 0 926.96 500">
  <defs>
    <style>
      .b73b4f2a-d7dd-44ff-92cc-2d6241cb5258, .bee6b40d-c52e-42b0-b192-9f8fb1a1f8b6 {
        fill: #747474;
      }

      .a2b95f69-98aa-4872-8c35-f59441d703fd, .a6670669-f894-4a18-aa45-b840e8b4e69b, .b73b4f2a-d7dd-44ff-92cc-2d6241cb5258, .bee6b40d-c52e-42b0-b192-9f8fb1a1f8b6 {
        stroke: #323232;
        stroke-miterlimit: 10;
      }

      .a6670669-f894-4a18-aa45-b840e8b4e69b, .bee6b40d-c52e-42b0-b192-9f8fb1a1f8b6 {
        stroke-width: 0.75px;
      }

      .a6670669-f894-4a18-aa45-b840e8b4e69b, .fab61880-1934-4dea-ab58-dbeb2e23dd33 {
        fill: #dc7272;
      }

      .f29c2518-1aa4-4a69-ad28-6d4a97f11075 {
        fill: #3c1615;
      }

      .b9f45747-e2e1-4051-8edb-0b0fe5b6bc98 {
        fill: #fe9498;
      }

      .eaec951d-fb33-4c42-8a89-8b62b959d731 {
        fill: #323232;
      }

      .e0c29e53-cb02-42b3-9010-fe3ec4852b16 {
        fill: #323031;
      }

      .a158dcbe-3d6b-4e94-ad18-0ada222f177a {
        fill: #595a5c;
      }

      .a2b95f69-98aa-4872-8c35-f59441d703fd {
        fill: none;
      }

      .afa57fae-a642-4896-aceb-69f94e7f3ec2 {
        fill: #5c5c5c;
      }

      .a934fed2-ceb6-4087-a0f5-e833c67eab95 {
        fill: #8c8c8c;
      }

      .a5c8246c-80f1-4178-b807-7ba1041a46cf {
        fill: #525250;
      }
    </style>
  </defs>
  <g>
    <g>
      <path class="bee6b40d-c52e-42b0-b192-9f8fb1a1f8b6" d="M323.41,70.23s2.2-48.9,41.34-32.28c0,0,19.53,13.86,23.54,25.18C388.29,63.13,340.38,74.44,323.41,70.23Z"/>
      <path class="a6670669-f894-4a18-aa45-b840e8b4e69b" d="M330.45,65.92s1.14-27.23,24.22-19.64c0,0,10,4.47,14,11.55C368.71,57.83,348,55.73,330.45,65.92Z"/>
    </g>
    <path class="b73b4f2a-d7dd-44ff-92cc-2d6241cb5258" d="M171.85,394.2c-9.53-.7-16.47-8.77-18.17-10.11-10.92-8.58-19.24,1-5.34,13.86,3.41,3.16-1,6-7.38,11.33-10.42,8.77,3,25.67,18.13,8.56,6.53-2.32,48.15,10.73,85.76-22.14,0,0,46.21-42.26,68.74-94,0,0,8.35,17.4,33.34,2.78,4.34-2.54,12.74-14,16.42-20.81,3-5.64,1.46-13.06,1.46-13.06s46.3,18.37,73.44,1L457,284.74l117-128.22c29-9.28,34.07-34.74,33.6-34.73-67,1-107.2-38.14-107.8-39-36.75-54.59-80.16-6.61-81.11-7.28-11.68-8.16-92-61.4-129,40.56,0,0-59.37,12.62-47.82,148.68,0,0,8.81,53.34-16.47,100.51C225.43,365.23,205.35,396.66,171.85,394.2Z"/>
    <path class="f29c2518-1aa4-4a69-ad28-6d4a97f11075" d="M313.25,291.33s31.6-3.29,30.57-34.91l9.83,2.49s-2.4,46.42-23.86,46.26C329.79,305.17,317.08,308.76,313.25,291.33Z"/>
    <path class="b9f45747-e2e1-4051-8edb-0b0fe5b6bc98" d="M351.22,268.18s-39.3,22.27-37.68,27.55c0,0,9.87,19.68,26.12,3.75C339.66,299.48,352.13,281.15,351.22,268.18Z"/>
    <g>
      <path class="b9f45747-e2e1-4051-8edb-0b0fe5b6bc98" d="M399.23,162.5S405,92.17,470.44,90c0,0,68.57,67.25,128.35,48.79,0,0-1.85,49.34-52,52.09,0,0-8.93,53.27-44,44,0,0-19.89,46.68-60.46,23.34,0,0-16.52-10.28-12.4-37.78,0,0-5.15-22.34-18.9-28.18C411,192.22,396.62,176.32,399.23,162.5Z"/>
      <path class="fab61880-1934-4dea-ab58-dbeb2e23dd33" d="M410.12,191.26c-6.48-13.91,5.45-89.9,58.9-87.76,0,0,20.78,6.78,34.48,25.52,0,0,44.56,35.6,89.72,27,0,0,2.39,0,2.57-.54,0,0-9.1,35-48.56,35.67,0,0-6.79,54.43-44,44,0,0-19,50-62,22,0,0-16.55-13.93-11.13-34.28,0,0-6.12-23.78-17.53-28.66h0Z"/>
      <path class="eaec951d-fb33-4c42-8a89-8b62b959d731" d="M410.19,190.55l.05.12c.11.52-.83.76-.68.54l-.12-.07-.05,0-.12-.11-.21-.21-.4-.42-.75-.85c-.5-.58-1-1.16-1.45-1.75-.92-1.2-1.79-2.43-2.64-3.69a44.59,44.59,0,0,1-4.31-8,25.55,25.55,0,0,1-1.34-4.46,15.48,15.48,0,0,1-.28-2.38,12.38,12.38,0,0,1,.15-2.39l.61-4.46c.19-1.49.39-3,.69-4.45l.83-4.44c.26-1.48.68-2.93,1-4.4.63-2.95,1.57-5.82,2.43-8.71a101.59,101.59,0,0,1,7.16-16.62c5.89-10.53,14.34-19.86,24.91-25.9l2-1.12,2-1c1.34-.7,2.76-1.24,4.14-1.85A69.13,69.13,0,0,1,452.48,91a61,61,0,0,1,18-1.8h0a.71.71,0,0,1,.4.16h0a322.2,322.2,0,0,0,28.19,21.74A217.4,217.4,0,0,0,530,128.8a161.39,161.39,0,0,0,16.51,6.54,124.63,124.63,0,0,0,17.19,4.33,88.33,88.33,0,0,0,17.62,1.39,64.5,64.5,0,0,0,8.79-.77c1.45-.25,2.89-.52,4.31-.88a30,30,0,0,0,4.12-1.31h0a.72.72,0,0,1,1,.39.66.66,0,0,1,.06.27,63.84,63.84,0,0,1-2.83,20.84,43.17,43.17,0,0,1-11.07,17.87,49.21,49.21,0,0,1-18.11,10.68,64.21,64.21,0,0,1-20.77,3.43l.74-.62a118,118,0,0,1-3.91,18,73.21,73.21,0,0,1-3.28,8.63,48.9,48.9,0,0,1-4.66,8,33.45,33.45,0,0,1-6.44,6.74,25.5,25.5,0,0,1-8.31,4.3,24.87,24.87,0,0,1-4.6.94,29.39,29.39,0,0,1-4.69.09,28,28,0,0,1-9.13-2.14l1-.39h0a60.85,60.85,0,0,1-3.15,6.81,56.44,56.44,0,0,1-4,6.36,55.35,55.35,0,0,1-4.78,5.8,42.75,42.75,0,0,1-5.62,5.1l.16-.14a22.46,22.46,0,0,1-9.53,6.13,31.9,31.9,0,0,1-11.16,1.5A48.52,48.52,0,0,1,454.34,265c-.9-.25-1.79-.51-2.69-.83l-2.61-.89c-.87-.3-1.73-.7-2.59-1s-1.69-.81-2.54-1.22a31.46,31.46,0,0,1-9-6.83,28.45,28.45,0,0,1-5.76-9.7,32.88,32.88,0,0,1,.1-22,.36.36,0,0,1,.45-.21.34.34,0,0,1,.22.38v0a56.93,56.93,0,0,0-.7,10.73,34.44,34.44,0,0,0,1.82,10.44,27.58,27.58,0,0,0,13.77,15.38c.81.38,1.58.82,2.41,1.15s1.64.7,2.49,1l2.59.87c.82.28,1.68.54,2.54.78a48.58,48.58,0,0,0,10.57,1.65,30,30,0,0,0,10.47-1.33,20.5,20.5,0,0,0,8.74-5.54.86.86,0,0,1,.14-.13h0a44.86,44.86,0,0,0,5.39-4.79,56,56,0,0,0,8.7-11.67,59.39,59.39,0,0,0,3.17-6.58h0a.75.75,0,0,1,1-.4h0a26.72,26.72,0,0,0,8.6,2,26.44,26.44,0,0,0,4.45-.08,23.86,23.86,0,0,0,4.34-.88,24.21,24.21,0,0,0,7.84-4.06,32.06,32.06,0,0,0,6.14-6.44,47,47,0,0,0,4.52-7.77,71.81,71.81,0,0,0,3.21-8.46A117,117,0,0,0,546,190.74a.73.73,0,0,1,.73-.62h0A63.05,63.05,0,0,0,567,186.76a47.77,47.77,0,0,0,17.58-10.36,41.86,41.86,0,0,0,10.69-17.27,62.4,62.4,0,0,0,2.75-20.35l1,.64a29.15,29.15,0,0,1-4.37,1.4c-1.46.38-3,.65-4.43.91a67.76,67.76,0,0,1-9,.79,91,91,0,0,1-17.91-1.41A125,125,0,0,1,546,136.72a160.35,160.35,0,0,1-16.67-6.59,219.72,219.72,0,0,1-31.05-17.77A318.81,318.81,0,0,1,470,90.52l.4.17h0a59.82,59.82,0,0,0-17.48,2,66.48,66.48,0,0,0-8.38,2.81c-1.35.6-2.72,1.15-4,1.85l-2,1-1.91,1.1c-10.23,5.91-18.37,15-24.07,25.29a99.13,99.13,0,0,0-7,16.25c-.83,2.84-1.76,5.66-2.39,8.56-.33,1.44-.74,2.87-1,4.33l-.81,4.37c-.31,1.45-.5,2.93-.69,4.4L400,167c-.48,2.75.31,5.55,1.34,8.25a57.58,57.58,0,0,0,3.92,7.86c.74,1.28,1.52,2.53,2.34,3.77.39.62.8,1.24,1.22,1.85l.64.9.32.45.16.2.07.09s0,0,0,0l-.06,0c.17-.2-.74,0-.64.53,0,0,0,0,0,.06a.46.46,0,0,1,.19-.62A.47.47,0,0,1,410.19,190.55Z"/>
      <path class="fab61880-1934-4dea-ab58-dbeb2e23dd33" d="M469,103.5a370.11,370.11,0,0,0,31.39,22c28.84,18.11,70.83,38.88,96.17,26.08,0,0-1.85,19.94-17.72,28.89,0,0-3.72-6.29-8.86-9.92s-6.56-5.41-11.79-8.07-55.51-18.32-56.05-19S490,131.82,490,131.82l-5.36-6.2Z"/>
      <path class="b9f45747-e2e1-4051-8edb-0b0fe5b6bc98" d="M422.63,130.6s31.47-39.12,79.53-4c0,0-3.17-5.79-4.26-7.43a21.42,21.42,0,0,0-4.72-5.27c-1.81-1.27,4.18,2-4.54-3.45s-9.08-5.72-11.44-7S467,99.14,467,99.14s-2.18-1.77-6.54-.79-6.18.61-12,2.79-1.82-3.82-10.9,4.54-8.9,7.63-10.35,10.17a64,64,0,0,1-4.62,6.41l-3.56,6.67Z"/>
    </g>
    <g>
      <path class="e0c29e53-cb02-42b3-9010-fe3ec4852b16" d="M318.49,138.93s4.69-13,43.89-1.08c0,0-20-18.46-34.12-15.21C328.26,122.64,314.69,125.9,318.49,138.93Z"/>
      <path class="a158dcbe-3d6b-4e94-ad18-0ada222f177a" d="M315.9,168.32s4.84-42.38,33.73-16.45c0,0,4,3.8,3.79,17.71L328.54,166l-4.63,1.69Z"/>
      <path class="eaec951d-fb33-4c42-8a89-8b62b959d731" d="M324.87,146.83a12.18,12.18,0,0,1,6.57-4c.33-.08.65-.17,1-.23l1-.1c.33,0,.67-.07,1-.07l1,.05,1,.07,1,.21a10.57,10.57,0,0,1,1.93.52,20.17,20.17,0,0,1,6.64,4.1c.9.93,1.78,1.86,2.6,2.84s1.47,2.08,2.13,3.17c-1-.81-1.92-1.65-2.84-2.49L345,148.64c-.51-.33-1-.66-1.52-1a9.7,9.7,0,0,0-1.54-.93c-.54-.28-1.06-.57-1.58-.85s-1.11-.42-1.66-.63a15.4,15.4,0,0,0-6.93-.82A17.05,17.05,0,0,0,324.87,146.83Z"/>
    </g>
    <path class="a2b95f69-98aa-4872-8c35-f59441d703fd" d="M317.15,299.76s31.77-24.81,26.67-43.34l9.83,2.49s-1.35,16.47-2.57,20.32c0,0-5.2,17.85-15.45,24.23,0,0-16.78,9.81-22.38-10.34"/>
    <path class="afa57fae-a642-4896-aceb-69f94e7f3ec2" d="M363.38,263.14s72.76,22.32,63.48-21.53c0,0,17.57,36.81,57.29,21.6l-6.39,31.26c-.53,2.68-25.5-14.32-27.84-15.74l-11.77-8.3s-23.92,18.53-74.19-1Z"/>
    <path class="a934fed2-ceb6-4087-a0f5-e833c67eab95" d="M413.81,86.18s-72.25-47.46-112.44,35.06c0,0-31.78,6.86-39.55,69C237.5,243,280.08,349.82,213.42,390.48c0,0-28.81,19.33-58,2.7,0,0-8.35-12.27-11-.87-4-2.39-5.12-20.78,14-3,0,0,8.41,9,26.69,5.13,45.59-14,59.72-51.7,58.62-120.78,0,0-15.6-128.37,46-157.62,0,0,31.5-100.15,130.87-38.3,0,0,42.06-48.31,79.82,6,0,0,37.66,43.61,106.89,38.58,0,0-38,26.73-110.71-32.94,0,0-34.6-70.7-100.79,22.56Z"/>
    <g>
      <g>
        <path class="eaec951d-fb33-4c42-8a89-8b62b959d731" d="M244.48,277a21.12,21.12,0,0,1,8.68-5.21,27.16,27.16,0,0,1,10.19-1.05l2.58.26,2.53.5,1.27.29,1.22.4c.81.29,1.62.59,2.42.9,1.55.73,3.05,1.55,4.53,2.41s2.78,2,4.09,3l-.11.17q-2.38-.9-4.63-2l-2.33-.89c-.77-.29-1.51-.65-2.29-.9s-1.57-.5-2.34-.78l-1.15-.43-1.18-.32-2.36-.68-2.41-.41a26.07,26.07,0,0,0-9.76.43,20.34,20.34,0,0,0-8.8,4.37Z"/>
        <path class="a934fed2-ceb6-4087-a0f5-e833c67eab95" d="M250.68,276.05a32,32,0,0,1,7.6-1.16,45.1,45.1,0,0,1,7.7.43A30.9,30.9,0,0,1,277,278.74a35.94,35.94,0,0,1,3.28,2.05l-.07.13c-1.25-.36-2.44-.8-3.63-1.21-.61-.18-1.21-.39-1.8-.58a18.8,18.8,0,0,0-1.8-.57c-.6-.18-1.2-.37-1.79-.57l-1.81-.53c-1.19-.41-2.42-.65-3.64-.95a44,44,0,0,0-7.5-.87,30.86,30.86,0,0,0-7.55.55Z"/>
      </g>
      <g>
        <path class="eaec951d-fb33-4c42-8a89-8b62b959d731" d="M244.8,297.21a30.87,30.87,0,0,1,9.1-3.27,38.2,38.2,0,0,1,9.73-.62c.82,0,1.63.17,2.44.24l1.23.13,1.2.23c.8.17,1.61.32,2.41.52s1.55.52,2.33.8l1.14.43,1.11.53c.73.37,1.46.73,2.18,1.12a37.12,37.12,0,0,1,4,2.76l-.1.17c-.79-.24-1.53-.54-2.29-.81s-1.46-.61-2.22-.85-1.5-.5-2.25-.75l-1.1-.4-1.14-.31c-.75-.22-1.5-.44-2.24-.69l-2.27-.59-1.13-.31-1.15-.22c-.77-.13-1.54-.32-2.32-.4a37.12,37.12,0,0,0-9.42,0,30.79,30.79,0,0,0-9.16,2.46Z"/>
        <path class="a934fed2-ceb6-4087-a0f5-e833c67eab95" d="M248.2,299a15.68,15.68,0,0,1,3.89-1.48c.68-.19,1.37-.29,2-.43s1.38-.18,2.08-.26a36.49,36.49,0,0,1,8.35.37,38.45,38.45,0,0,1,8.13,2c1.29.53,2.56,1.09,3.81,1.7s2.43,1.37,3.6,2.12l-.07.14q-2-.57-3.93-1.29c-1.32-.39-2.61-.83-3.9-1.26-2.62-.73-5.17-1.71-7.85-2.21a35.57,35.57,0,0,0-8.1-.8c-.68,0-1.36.05-2,.11s-1.36.13-2,.27a15.61,15.61,0,0,0-3.91,1.17Z"/>
      </g>
      <g>
        <path class="eaec951d-fb33-4c42-8a89-8b62b959d731" d="M241.83,325a13.48,13.48,0,0,1,6.64-3.33,18.19,18.19,0,0,1,7.56.25c.61.16,1.25.26,1.84.48l1.8.63a21.53,21.53,0,0,1,3.38,1.73c1,.76,2,1.51,2.94,2.35a30.1,30.1,0,0,1,2.52,2.78l-.13.15a31.13,31.13,0,0,1-3.22-1.8c-1.07-.58-2.12-1.16-3.14-1.77-2.14-1-4.13-2.36-6.41-3a16.9,16.9,0,0,0-7-.8,13.48,13.48,0,0,0-6.65,2.48Z"/>
        <path class="a934fed2-ceb6-4087-a0f5-e833c67eab95" d="M244.78,326.8a7.7,7.7,0,0,1,2.62-1c.46-.11.93-.13,1.4-.2s.94-.05,1.41,0a17.89,17.89,0,0,1,5.52,1.11c.91.28,1.75.7,2.63,1.05a21.16,21.16,0,0,1,2.44,1.41c.74.58,1.48,1.15,2.17,1.78a24.79,24.79,0,0,1,1.89,2.08l-.1.11a25.53,25.53,0,0,1-2.42-1.34c-.8-.45-1.59-.89-2.35-1.36-1.59-.85-3.05-1.91-4.7-2.61a17,17,0,0,0-5.13-1.49c-.45-.05-.89-.07-1.34-.1a12.18,12.18,0,0,0-1.35,0,7.89,7.89,0,0,0-2.61.65Z"/>
      </g>
      <g>
        <path class="eaec951d-fb33-4c42-8a89-8b62b959d731" d="M235,348.89a14.37,14.37,0,0,1,5.63-2.37,13.31,13.31,0,0,1,6.26.36,12.83,12.83,0,0,1,5.47,3.2,18.09,18.09,0,0,1,1.92,2.48,19.05,19.05,0,0,1,1.29,2.84l-.17.1a21.86,21.86,0,0,1-2.21-2.06c-.39-.31-.74-.64-1.11-.95a8.85,8.85,0,0,0-1.08-.95c-.76-.57-1.44-1.21-2.22-1.72a11.59,11.59,0,0,0-2.42-1.43,12.09,12.09,0,0,0-5.6-.88,14.6,14.6,0,0,0-5.65,1.55Z"/>
        <path class="a934fed2-ceb6-4087-a0f5-e833c67eab95" d="M238.17,350.37a3.69,3.69,0,0,1,2.25-.77,9.12,9.12,0,0,1,2.39.18,21.29,21.29,0,0,1,4.48,1.58,21,21,0,0,1,4.11,2.33,17.9,17.9,0,0,1,3.36,3.32l-.09.12a35,35,0,0,1-4.12-2.2c-1.31-.78-2.5-1.73-3.82-2.51a20.23,20.23,0,0,0-4.11-1.92,9.14,9.14,0,0,0-2.2-.44,3.62,3.62,0,0,0-2.15.42Z"/>
      </g>
      <g>
        <path class="eaec951d-fb33-4c42-8a89-8b62b959d731" d="M223.21,368.17a15.21,15.21,0,0,1,5.22-.3,12.8,12.8,0,0,1,5.08,1.73,9.05,9.05,0,0,1,3.82,3.95,9.76,9.76,0,0,1,.84,2.6,11.56,11.56,0,0,1,.08,2.69l-.2,0c-.5-.77-.82-1.55-1.21-2.28-.23-.35-.41-.71-.61-1.07a5.93,5.93,0,0,0-.64-1,13.73,13.73,0,0,0-3-3.6,11.64,11.64,0,0,0-4.36-2.07,16.14,16.14,0,0,0-5-.48Z"/>
        <path class="a934fed2-ceb6-4087-a0f5-e833c67eab95" d="M225.55,371.73a17.19,17.19,0,0,1,6.1,2.09,8,8,0,0,1,2.62,2.11,5,5,0,0,1,1,3.24l-.15,0a22.71,22.71,0,0,0-2-2.32c-.7-.67-1.33-1.44-2.13-2.07a17.45,17.45,0,0,0-2.61-1.65,22.36,22.36,0,0,0-2.86-1.3Z"/>
      </g>
    </g>
    <path class="a5c8246c-80f1-4178-b807-7ba1041a46cf" d="M246.47,384.48c8.47-8.17,48.07-60.62,65.76-94,0,0,13.16-6.91,24.56-36.72l6.23,2.66s8.23,12.58-28.58,45.8c0,0-36.43,60.38-68.14,92.09,0,0-26.3,27.85-87.4,21.85,0,0-10.25,11.94-16.5,7.17-1-.76-11.16-7.55,6.53-18.58l-6.18,8c-1.64,15.56,13.94.93,17.6.44C175.91,411.17,211,418.71,246.47,384.48Z"/>
    <path class="eaec951d-fb33-4c42-8a89-8b62b959d731" d="M329.27,250.41c3.57,1.43,7.15,2.73,10.77,3.91s7.27,2.23,10.95,3.1,7.41,1.64,11.16,2.2,7.54.87,11.38,1.23a54.37,54.37,0,0,1-11.55.32l-1.45-.09-1.44-.18-2.88-.37c-1.9-.36-3.81-.69-5.69-1.17a76.19,76.19,0,0,1-11-3.58A57,57,0,0,1,329.27,250.41Z"/>
  </g>
</svg>
