<svg id="a21ffa44-5dae-4be0-8222-6a37cdf6f7b6" data-name="Layer 1" xmlns="http://www.w3.org/2000/svg" width="79.41" height="66" viewBox="0 0 79.41 66">
  <defs>
    <style>
      .b40fa7eb-9cf0-423e-a9c4-e53ffd2ff277, .b621753a-f1dd-4e87-b88b-f9f6e60236f0 {
        fill: #fff;
      }

      .b621753a-f1dd-4e87-b88b-f9f6e60236f0 {
        stroke: #702840;
      }

      .b0c436f1-ac97-408c-9999-87729a316f29, .b621753a-f1dd-4e87-b88b-f9f6e60236f0 {
        stroke-miterlimit: 10;
        stroke-width: 0.75px;
      }

      .b238f9c5-71cc-4067-8971-60d7a80d9574 {
        fill: #210a11;
      }

      .b0c436f1-ac97-408c-9999-87729a316f29 {
        fill: #ffe309;
        stroke: #665608;
      }
    </style>
  </defs>
  <g>
    <g>
      <g>
        <path class="b621753a-f1dd-4e87-b88b-f9f6e60236f0" d="M33.33,40.83c-2.21,9.75-9.83,16.38-17,14.82s-11.25-10.73-9-20.48a23.24,23.24,0,0,1,3.87-8.61c3.44-4.67,8.4-7.23,13.17-6.2,5.37,1.16,9,6.56,9.56,13.27A23.48,23.48,0,0,1,33.33,40.83Z"/>
        <ellipse class="b238f9c5-71cc-4067-8971-60d7a80d9574" cx="26.59" cy="38.25" rx="8.15" ry="6.05" transform="translate(-15.39 58.42) rotate(-80.86)"/>
        <ellipse class="b40fa7eb-9cf0-423e-a9c4-e53ffd2ff277" cx="30.52" cy="36.89" rx="2.23" ry="1.66" transform="translate(-10.75 61.16) rotate(-80.86)"/>
      </g>
      <g>
        <path class="b621753a-f1dd-4e87-b88b-f9f6e60236f0" d="M68.9,43c0,9.09-5.46,16.49-12.16,16.54S44.62,52.27,44.63,43.19a21.25,21.25,0,0,1,1.51-7.93c2.07-5.11,6.07-8.59,10.65-8.62,5,0,9.34,4.08,11.18,10A21.86,21.86,0,0,1,68.9,43Z"/>
        <ellipse class="b238f9c5-71cc-4067-8971-60d7a80d9574" cx="62.85" cy="43.71" rx="5.5" ry="7.41" transform="translate(-2.58 3.96) rotate(-3.54)"/>
        <ellipse class="b40fa7eb-9cf0-423e-a9c4-e53ffd2ff277" cx="66.16" cy="40.96" rx="1.51" ry="2.03" transform="translate(-2.4 4.16) rotate(-3.54)"/>
      </g>
      <path class="b238f9c5-71cc-4067-8971-60d7a80d9574" d="M54.76,18.22s5.56.66,11.86,7.37C66.62,25.59,58,8.8,54.76,18.22Z"/>
      <path class="b238f9c5-71cc-4067-8971-60d7a80d9574" d="M33.16,11.77s-6-1.34-15.14,2.7C18,14.47,33.46,1.82,33.16,11.77Z"/>
    </g>
    <path class="b0c436f1-ac97-408c-9999-87729a316f29" d="M33.85,33.63c-6.22-5.52-17.36-6.79-22.73-7.07,3.44-4.67,8.4-7.23,13.17-6.2C29.66,21.52,33.27,26.92,33.85,33.63Z"/>
    <path class="b0c436f1-ac97-408c-9999-87729a316f29" d="M68,36.62c-7.65-2.44-17.12-1.87-21.83-1.36,2.07-5.11,6.07-8.59,10.65-8.62C61.82,26.6,66.13,30.72,68,36.62Z"/>
  </g>
</svg>
