<svg id="a1e811a4-c991-444a-bd3d-9e44dc889d27" data-name="Layer 1" xmlns="http://www.w3.org/2000/svg" width="270" height="290" viewBox="0 0 270 290">
  <defs>
    <style>
      .aa76066c-3ea5-4d15-8d79-7727d0a58644 {
        fill: #ef4136;
      }

      .af7490e5-221c-4fbe-a268-4d95472688fc, .f2c8dabc-96dc-498e-a7dc-dfbefab4c512 {
        fill: #fae599;
      }

      .af7490e5-221c-4fbe-a268-4d95472688fc {
        stroke: #8e7717;
      }

      .af7490e5-221c-4fbe-a268-4d95472688fc, .ecc8747e-14ee-466c-85d0-0d31ab713a03 {
        stroke-miterlimit: 10;
      }

      .f857dabf-8bbe-4340-8376-a25b77bbd3de {
        fill: #e5bb45;
        opacity: 0.5;
      }

      .ecc8747e-14ee-466c-85d0-0d31ab713a03 {
        fill: #f3c63c;
        stroke: #af841b;
      }

      .efd10486-d0eb-4442-a656-ad6fb3cb35e8 {
        fill: #8e7717;
      }

      .f33a3ca3-10bc-4753-8030-ea247bafa227 {
        fill: #872b23;
      }
    </style>
  </defs>
  <g>
    <g>
      <path class="aa76066c-3ea5-4d15-8d79-7727d0a58644" d="M63.3,61.2C47.15,57.25,51.49,24.91,45.81,24c-14.16,2.69-21.64,38.6-6.49,49.79-7,3.14-14.71,16.62-13.32,23,7-3.14,16.17-6.28,23.18-.47,12-11.44,14.09-21,14.12-35.73Z"/>
      <path class="af7490e5-221c-4fbe-a268-4d95472688fc" d="M197.87,183c-23.58-7.07-50.56-.35-72.45-9.72-10.58-4.49-17.45-12.34-22.56-21.33,16.82,3.62,38.8,5.68,51.4-1.68,7.91-4.61,2.36-8.47,1.19-15-1.55-8.8,2.08-18.74,3.77-27.32,2.09-10.61,1.74-20.55.37-31.19C156.88,55.58,137.43,38.84,115.23,34c-15.83-3.46-33.37-1.4-45.46,7.36C50.6,55.26,35.63,85.16,46,107.15A91,91,0,0,0,59.53,128c-1.11,37.7,5.47,79.55,24.52,113,14.64,25.74,49.24,40.73,80.11,40,19.5-.46,34.09-1.69,48.93-14,11.14-9.24,17.83-21.61,18.4-35.41C232.37,210.09,221.45,190.06,197.87,183Z"/>
      <path class="f857dabf-8bbe-4340-8376-a25b77bbd3de" d="M230.45,220c0,.2,0,.4,0,.61-.57,13.8-7.26,26.17-18.39,35.41-14.84,12.32-29.43,13.55-48.93,14-30.87.73-65.48-14.26-80.12-40-14.1-24.78-21.36-54.16-23.73-83,1.37,32.16,8.56,65.72,24.38,93.5,14.64,25.73,49.24,40.73,80.11,40,19.5-.46,34.09-1.68,48.93-14,11.13-9.25,17.83-21.61,18.4-35.42A56.27,56.27,0,0,0,230.45,220Z"/>
      <path class="ecc8747e-14ee-466c-85d0-0d31ab713a03" d="M208.39,191.12c10.76-8,25.3-9,34.81-22.79,3.14,11.54-1.94,21.87-7,32.19a67.72,67.72,0,0,1,7-5.7c0,3.45-1.91,6.32-5.08,9.17,1.27-.56,1.91-1.14,3.17-1.7,0,6.33-10.15,18.92-17.73,16-3.79-1.75-9.45-17.34-12.6-21.39Z"/>
      <g>
        <path class="f2c8dabc-96dc-498e-a7dc-dfbefab4c512" d="M127.74,47.46c8.46-13.76-16-24.67-15.09-38.48h0c-.86,6.89-1.71,14.57,1.64,21.5-1.68-3.85-4.2-6.94-5.88-10,0,2.3,0,4.6,0,7.68a10.42,10.42,0,0,1-1.68-4.62,113.68,113.68,0,0,0-.87,16.88h0q15.16-1,22.73,11.67Z"/>
        <path class="efd10486-d0eb-4442-a656-ad6fb3cb35e8" d="M127.74,47.46a11.51,11.51,0,0,0,1.66-5.13,12.25,12.25,0,0,0-1-5.28c-1.38-3.36-3.69-6.22-6-9s-4.73-5.55-6.77-8.62a24.42,24.42,0,0,1-2.59-4.9A13.36,13.36,0,0,1,112.22,9l.86.08a70.51,70.51,0,0,0-.72,10.84,25.47,25.47,0,0,0,2.37,10.4l-.89.41a37.28,37.28,0,0,0-2.77-5c-1-1.63-2.13-3.24-3.08-5l.9-.23,0,7.68v1.8L108,28.36a22.85,22.85,0,0,1-1.13-2.27,6.68,6.68,0,0,1-.6-2.57l.89.07a72.92,72.92,0,0,0-.77,8.37c-.12,2.8-.16,5.62-.18,8.44l-.39-.36a25.56,25.56,0,0,1,13.31,2.48A24,24,0,0,1,128.65,52l-.15.06Zm0,0,.92,4.6.09.44-.24-.39A23.65,23.65,0,0,0,118.9,43a24.93,24.93,0,0,0-13-2.22l-.38,0V40.4a106.87,106.87,0,0,1,.79-16.95l.89.07a10,10,0,0,0,1.63,4.4l-.86.22V18.6l.9,1.63c.92,1.67,2,3.26,3.07,4.9a35.72,35.72,0,0,1,2.84,5.15l-.89.41a26.24,26.24,0,0,1-2.41-10.79,70.44,70.44,0,0,1,.78-11l.86.08c-.22,3.55,1.32,7,3.25,10s4.34,5.81,6.6,8.67a36.35,36.35,0,0,1,5.82,9.28,12.52,12.52,0,0,1,.83,5.41A11.42,11.42,0,0,1,127.74,47.46Z"/>
      </g>
      <path class="f33a3ca3-10bc-4753-8030-ea247bafa227" d="M75.19,43.82c-1.8-.67-2.37.75-2.29,2.15,0,0,5.29,5.3,3.68,12.1C80.27,54.71,80,45.63,75.19,43.82Z"/>
      <path class="f857dabf-8bbe-4340-8376-a25b77bbd3de" d="M101.57,151.2c-7.44-1.44-28.76-9.77-41.68-23.94,2,12.76,11,34.53,51,36.85A91,91,0,0,1,101.57,151.2Z"/>
    </g>
    <path class="ecc8747e-14ee-466c-85d0-0d31ab713a03" d="M158.17,174.88c-15.09,0-35.58,0-40.32,11.86-2.19,5.46,4.74-11.86,9.49-11.86,12.67,0,0,19,16.6,42.69,7.67,11,23.95,22.31,26.09,35.58,9.49-23.72,8.37-29.73-1.48-44.88,5.68,5.18,13.91,8.57,18.06,15.43.46-8.84,0-15.62-5.3-24.36,3.09,1.78,6.2,4.61,9.29,6.39C191.51,189.08,170,174.88,158.17,174.88Z"/>
  </g>
</svg>
