<svg id="f0200bdd-d2a5-4a21-ae73-167ef4c49bfc" data-name="Layer 1" xmlns="http://www.w3.org/2000/svg" width="21.14" height="25.6" viewBox="0 0 21.14 25.6">
  <defs>
    <style>
      .ae831fd3-430d-4ee0-8e81-53121da5d1ea, .b1d18a53-1b2f-4acf-9b2b-37a481898b54 {
        fill: #fff;
      }

      .a473b9bf-efcd-4887-8b8f-20ff63f193b7 {
        fill: #724009;
      }

      .b0e41ab9-643d-40be-b278-72be7ba44f0f {
        fill: #231f20;
      }

      .ae831fd3-430d-4ee0-8e81-53121da5d1ea {
        opacity: 0.53;
      }

      .be983eea-19a8-45b3-8527-c36858831887 {
        fill: #846e2f;
        stroke: #8e7717;
        stroke-miterlimit: 10;
        stroke-width: 0.75px;
      }
    </style>
  </defs>
  <g>
    <g>
      <g>
        <ellipse class="b1d18a53-1b2f-4acf-9b2b-37a481898b54" cx="10.56" cy="12.9" rx="12.36" ry="8.79" transform="translate(-5.72 16.51) rotate(-63.19)"/>
        <path class="a473b9bf-efcd-4887-8b8f-20ff63f193b7" d="M17.69,18.24C12.38,27.06.63,27.64.63,15.46.92,9.78,4.14,4.13,9.34,1.57,12,.28,15.47.28,17.73,2.37c4.43,4.18,2.86,11.27,0,15.87Zm-.09,0c3.42-5.12,3.64-15.62-4-16.47-6.94,0-11.89,7.35-12.3,13.77C1,27.18,12.62,26.62,17.6,18.19Z"/>
      </g>
      <path class="b0e41ab9-643d-40be-b278-72be7ba44f0f" d="M3.93,7.22c-1.87,3.4-1.72,7.12.33,8.32s5.26-.61,7.13-4,1.73-7.13-.33-8.32S5.81,3.82,3.93,7.22Z"/>
      <ellipse class="ae831fd3-430d-4ee0-8e81-53121da5d1ea" cx="4.91" cy="12.9" rx="1.61" ry="1.42" transform="translate(-8.74 14.95) rotate(-77.68)"/>
      <ellipse class="b1d18a53-1b2f-4acf-9b2b-37a481898b54" cx="12.41" cy="7.81" rx="1.78" ry="1.57" transform="translate(2.14 18.27) rotate(-77.68)"/>
    </g>
    <path class="be983eea-19a8-45b3-8527-c36858831887" d="M19.53,14.05s3.07-9.6-3.93-12.6c0,0-4.38-2.46-10.69,3.77C4.91,5.22,15.46,5.65,19.53,14.05Z"/>
  </g>
</svg>
