<svg id="a7ee77d7-475c-4d9b-8642-d4eebc2cda30" data-name="Layer 1" xmlns="http://www.w3.org/2000/svg" width="87.23" height="63.4" viewBox="0 0 87.23 63.4">
  <defs>
    <style>
      .a18921b9-f3fb-4eea-9762-41e1f067d904 {
        fill: #fff;
      }

      .a18921b9-f3fb-4eea-9762-41e1f067d904, .a5fe6ecd-bd88-4617-81d4-38c9219ee3de, .aea9057d-a483-44d8-9df4-c88e9ad612ce, .afa93ea8-1990-44b4-bf87-b2d84b6a7097, .bbfb0bbe-34eb-4b45-b370-a9a01679a031, .e8a269d1-fa56-4cf9-855b-0d04e033eab2 {
        fill-rule: evenodd;
      }

      .aea9057d-a483-44d8-9df4-c88e9ad612ce {
        fill: #09a0ce;
      }

      .bbfb0bbe-34eb-4b45-b370-a9a01679a031 {
        fill: #151616;
      }

      .a5fe6ecd-bd88-4617-81d4-38c9219ee3de {
        fill: #36ae4a;
      }

      .ef8ad426-afef-40ad-890a-5562173dda39 {
        fill: #1a8240;
      }

      .e8a269d1-fa56-4cf9-855b-0d04e033eab2 {
        fill: #ec2024;
        stroke: #5d3111;
        stroke-width: 2px;
      }

      .afa93ea8-1990-44b4-bf87-b2d84b6a7097, .e8a269d1-fa56-4cf9-855b-0d04e033eab2 {
        stroke-miterlimit: 10;
      }

      .aa9c0c10-c4a4-49ce-8dce-229a3495f302 {
        fill: #831618;
      }

      .e74600d7-4c3c-4670-baf6-8859dda99413 {
        fill: #f2787a;
      }

      .afa93ea8-1990-44b4-bf87-b2d84b6a7097 {
        fill: #1a7527;
        stroke: #1a8240;
        stroke-width: 0.75px;
      }
    </style>
  </defs>
  <g>
    <g>
      <g>
        <path class="a18921b9-f3fb-4eea-9762-41e1f067d904" d="M64.52,3.17c-8.06-4.41-17.43-.67-21,8.39s.11,20,8.17,24.42,17.37.64,20.93-8.48S72.52,7.56,64.52,3.17Z"/>
        <path class="aea9057d-a483-44d8-9df4-c88e9ad612ce" d="M55.51,8.88C49.9,10,46.42,16.16,47.74,22.59s6.93,10.69,12.53,9.55,9.09-7.29,7.78-13.71S61.12,7.73,55.51,8.88Z"/>
        <path class="bbfb0bbe-34eb-4b45-b370-a9a01679a031" d="M56.46,13.66c-3.28.67-5.33,4.28-4.55,8.1S56,28,59.27,27.37s5.38-4.3,4.61-8.06S59.8,13,56.46,13.66Z"/>
        <path class="a18921b9-f3fb-4eea-9762-41e1f067d904" d="M51.93,21.73a2.44,2.44,0,0,0-1.75,3,2.32,2.32,0,1,0,4.49-.92,2.42,2.42,0,0,0-2.74-2.09Z"/>
      </g>
      <g>
        <g>
          <path class="a5fe6ecd-bd88-4617-81d4-38c9219ee3de" d="M85.6,32.25a84.51,84.51,0,0,1-13.15,8.57,28.2,28.2,0,0,1-15.2,3.12c-3.18-.35-12.44-1.11-12.3-5.67.13-4.12,7.72-6.18,10.81-7.19A43.61,43.61,0,0,1,70.93,29a41,41,0,0,1,7.48,1C79.28,30.11,85.24,32.51,85.6,32.25Z"/>
          <g>
            <path class="a5fe6ecd-bd88-4617-81d4-38c9219ee3de" d="M52.58,32.12a40.29,40.29,0,0,1,25.49-2.28"/>
            <path class="ef8ad426-afef-40ad-890a-5562173dda39" d="M52.58,32.12c6.71-3.74,14.86-4.56,22.33-3.11,1.07.23,2.12.53,3.16.83a54,54,0,0,0-25.49,2.28Z"/>
          </g>
        </g>
        <g>
          <path class="e8a269d1-fa56-4cf9-855b-0d04e033eab2" d="M40.17,41.06c-5.24,2.18-4.84,1.7-16.77,5.22C13.58,49.21,14.48,63.09,10,62a2.78,2.78,0,0,1-.44-.14,10.32,10.32,0,0,1-2.18-3c-2.1-3.56-5-9.68-5.54-14.78a39.61,39.61,0,0,1-.25-4.7c0-13.35,7-24.18,21.11-30.83,1.49-.71,3.07-1.37,4.72-2l.58.85c.55.8,1.09,1.61,1.61,2.43a117.34,117.34,0,0,1,6.09,10.61c2.1,4.08,5.66,9.32,10.35,9.71C62,31.56,44.15,39.4,40.17,41.06Z"/>
          <ellipse class="aa9c0c10-c4a4-49ce-8dce-229a3495f302" cx="24.36" cy="19.57" rx="2.85" ry="1.46" transform="translate(-5.72 11.11) rotate(-23.07)"/>
          <path class="e74600d7-4c3c-4670-baf6-8859dda99413" d="M5.6,37.81C4.46,50,7.58,56.67,10.26,61a17.93,17.93,0,0,1-2.57-3.43A36.16,36.16,0,0,1,3.17,43.84a33.52,33.52,0,0,1-.08-4.24c0-13.35,6.3-23.12,20.38-29.77a29.16,29.16,0,0,1,3.38-1.49s.95,1.32,1.47,2.14C20.8,13.49,7.12,21.58,5.6,37.81Z"/>
        </g>
      </g>
    </g>
    <path class="afa93ea8-1990-44b4-bf87-b2d84b6a7097" d="M42.2,19.57s16.69,7.94,31.6-2.23c0,0-2.88-18.13-19.49-15.65C54.31,1.69,41.69,4,42.2,19.57Z"/>
  </g>
</svg>
