<svg id="e7af9250-5adf-4681-853a-a55754ff07cb" data-name="Layer 1" xmlns="http://www.w3.org/2000/svg" width="157.8" height="112.05" viewBox="0 0 157.8 112.05">
  <defs>
    <style>
      .a17a2615-5df6-4f8e-89ae-514b26ec1ddf {
        fill: #cff3ff;
        stroke: #307382;
        stroke-miterlimit: 10;
      }

      .a98640e1-02a3-4dca-9e64-9cbe7960d784 {
        fill: #b0deea;
      }
    </style>
  </defs>
  <g>
    <g>
      <path class="a17a2615-5df6-4f8e-89ae-514b26ec1ddf" d="M48.08,106.34S68.17,67.33,77.24,32C86.51-4.2,129.56,1.05,124.93,42.56s-64.74,64.1-71.29,65.07C53.64,107.63,41.62,112.35,48.08,106.34Z"/>
      <path class="a98640e1-02a3-4dca-9e64-9cbe7960d784" d="M65.87,94S76.13,68,80.36,44.2c4.33-24.33,28.35-19.78,26.73,8.28S72.6,94.51,69,95C69,95,62.42,98,65.87,94Z"/>
    </g>
    <path class="a17a2615-5df6-4f8e-89ae-514b26ec1ddf" d="M50.17,104.57S60.28,65.3,69,51.44,58-12.62,39.22,26.15C21.31,63.16,45,104.62,45,104.62S48,112.52,50.17,104.57Z"/>
  </g>
</svg>
