<svg id="e1c5db2b-a48f-4fd2-8870-5ac7d221c4ff" data-name="Layer 1" xmlns="http://www.w3.org/2000/svg" width="250" height="230" viewBox="0 0 250 230">
  <defs>
    <style>
      .b113fcdd-c774-4fef-a23e-52eab237556c, .b7f6e37c-806a-415f-990c-3c105ef6ec21 {
        fill: #ffe309;
      }

      .b113fcdd-c774-4fef-a23e-52eab237556c, .b98ecc8b-caee-401c-9713-ef0e7dc6f305 {
        stroke: #665608;
      }

      .b113fcdd-c774-4fef-a23e-52eab237556c, .b7f6e37c-806a-415f-990c-3c105ef6ec21, .b98ecc8b-caee-401c-9713-ef0e7dc6f305, .ec5c1345-761c-4b19-a864-f8771342aa54 {
        stroke-miterlimit: 10;
      }

      .b113fcdd-c774-4fef-a23e-52eab237556c, .b7f6e37c-806a-415f-990c-3c105ef6ec21, .b98ecc8b-caee-401c-9713-ef0e7dc6f305 {
        stroke-width: 0.75px;
      }

      .b7f6e37c-806a-415f-990c-3c105ef6ec21 {
        stroke: #493c05;
      }

      .a07e80af-c9e1-45b8-9cdd-306a40e2078c {
        fill: #ecc516;
      }

      .ec5c1345-761c-4b19-a864-f8771342aa54 {
        fill: #532900;
        stroke: #3a1c03;
      }

      .b91e0fb9-fc0f-429a-9e92-a8b4510f7fa8 {
        fill: #681a1a;
      }

      .b0b6a902-8fa8-4db2-922f-59c93d811b41 {
        fill: #ef7089;
      }

      .b595f6dd-fa6e-401c-9e24-8b35f94067f8 {
        fill: #ff5763;
      }

      .b43a8139-f67a-411f-855e-25b5687eb091 {
        fill: #fff;
      }

      .b7d13455-70b7-4950-8129-324bb96676f1 {
        fill: #ef304c;
      }

      .fecd12e6-df84-49d6-ab46-d91194ce084d {
        fill: #ffa979;
      }

      .b98ecc8b-caee-401c-9713-ef0e7dc6f305 {
        fill: none;
      }
    </style>
  </defs>
  <g>
    <g>
      <g>
        <path class="b113fcdd-c774-4fef-a23e-52eab237556c" d="M81,174.53s1,5.09-4.71,5.75-10.09-1.07-10.72,4.62-.8,11.88,4.89,12.52,5.41-7.36,9.8-6.76,12.57-.49,12.34-10.6S81,174.53,81,174.53Z"/>
        <g>
          <path class="b113fcdd-c774-4fef-a23e-52eab237556c" d="M128.9,144.76s-2.43,3.4,7.31,21.89c0,0,3.78,7.62,7.25,11s6.78,10.92,5.74,14-4.33,5.2-5.52.11l.91-5.57s1.75,5.9-5.17,6.56.76-7.87.76-7.87l-4.33,5s-5.53-1.45.09-8.89c0,0-3.74-.29-11.73-11.57S112.66,144,112.66,144Z"/>
          <path class="b7f6e37c-806a-415f-990c-3c105ef6ec21" d="M145.81,159.81c-3.79,6.85-8.22,12.25-13.5,16.15a37.34,37.34,0,0,1-12.93,6.16h0a48.07,48.07,0,0,1-11,1.48c-.7,0-1.41,0-2.1,0a50.28,50.28,0,0,1-15-2.64c-9.59-3.2-17.41-8.74-23-13.48-1.34-1.13-2.54-2.22-3.6-3.2-8-7.42-15.27-8.52-15.27-8.52,5.76-1.86,9.48-7.43,13.73-13.31,3.86-5.37,8.16-11,14.84-14.33.34-.18.69-.35,1.06-.51a33,33,0,0,1,6.69-2.15,44.77,44.77,0,0,1,10.61-.86h.29a59.19,59.19,0,0,1,9.83,1.21,47.17,47.17,0,0,1,5.75,1.49c11.75,4.14,17.88-3.43,17.88-3.43L150,151A87.31,87.31,0,0,1,145.81,159.81Z"/>
          <path class="a07e80af-c9e1-45b8-9cdd-306a40e2078c" d="M145.82,158.35c-5.79-.24-11.87-2.3-18.82-5.61-14.41-6.84-23.66-17.84-21.43-25.16a46.46,46.46,0,0,1,8.39.79,36.18,36.18,0,0,1,4.89,1.17c10,3.4,15.44-3.66,15.44-3.66l16.27,24.05C149.34,152.84,147.18,155.85,145.82,158.35Z"/>
          <path class="ec5c1345-761c-4b19-a864-f8771342aa54" d="M68.88,167.36c-1.34-1.13-3.15-2.11-4.21-3.09-8-7.42-15.27-8.52-15.27-8.52,5.76-1.86,10.16-7.93,14.41-13.81C62.16,147.06,60.88,157,68.88,167.36Z"/>
          <path class="ec5c1345-761c-4b19-a864-f8771342aa54" d="M132.31,176a37.34,37.34,0,0,1-12.93,6.16h0c-5.7-2.71-15.69-9.7-23.1-27-4.55-10.65-3.14-21.49.06-30.52a59.12,59.12,0,0,1,10.12,1.22C104,133,102,145,109.51,156.89A46.39,46.39,0,0,0,132.31,176Z"/>
          <path class="ec5c1345-761c-4b19-a864-f8771342aa54" d="M106.27,183.59a50.28,50.28,0,0,1-15-2.64c-6.12-4.12-14-11.15-17.27-21.46-4-12.6-.45-23.09,4-31.38.34-.18.69-.35,1.06-.51a33,33,0,0,1,6.69-2.15c-3,6.7-6.51,18.64-1.18,30.41C90.85,169.78,101.85,179.9,106.27,183.59Z"/>
          <g>
            <path class="b113fcdd-c774-4fef-a23e-52eab237556c" d="M140.91,82.83s-7.13-3.21-9.24-21.18,13.37-31.55,22-28.73,5.6,9.88-4.21,11.89S131.54,66.1,144,81.75C144,81.75,149.73,93.52,140.91,82.83Z"/>
            <path class="b113fcdd-c774-4fef-a23e-52eab237556c" d="M163.39,91s4-13.79,10.59-21.14,23.91-22.21,34.54-12.29c0,0,2.49,4.25-.52,6.79s-6.74,2-9.14-1.27-27,3.24-32,28.64C166.83,91.72,163.38,97.84,163.39,91Z"/>
            <g>
              <path class="b113fcdd-c774-4fef-a23e-52eab237556c" d="M178.58,148.19c-7,15.76-24.67,18.75-42.45,14.75,0,0,0,0-.06,0a83.25,83.25,0,0,1-17.16-6c-22.25-10.58-28.23-27.76-16.3-49.71,9-16.5,26.26-28.35,44.46-26.3a38.42,38.42,0,0,1,12.12,3.51C181.46,95,189,124.85,178.58,148.19Z"/>
              <path class="a07e80af-c9e1-45b8-9cdd-306a40e2078c" d="M137.63,162.88a83.61,83.61,0,0,1-17.15-6C98.22,146.3,92.19,129.22,104,107.47c8.89-16.34,26.11-28,44.29-25.94a49.33,49.33,0,0,0-37.12,29.08C98.65,138.61,117.93,156.45,137.63,162.88Z"/>
              <g>
                <g>
                  <g>
                    <g>
                      <path class="b91e0fb9-fc0f-429a-9e92-a8b4510f7fa8" d="M161.43,144.11s-3.52,7.41-9.74,11.29a14.54,14.54,0,0,1-5.55,2.16c-7.58,1.2-14.81-2.58-16.8-11.72a5.61,5.61,0,0,1-.13-.59,28.19,28.19,0,0,1-.29-7.92s12.7,8.29,27.13,7.51A32.32,32.32,0,0,0,161.43,144.11Z"/>
                      <path class="b0b6a902-8fa8-4db2-922f-59c93d811b41" d="M161.47,144.08a20.81,20.81,0,0,1-1.25,2.5c-.46.8-.94,1.59-1.46,2.35a30.66,30.66,0,0,1-3.51,4.3,21.3,21.3,0,0,1-4.48,3.39,14.63,14.63,0,0,1-5.42,1.75,15,15,0,0,1-11-2.67,16.23,16.23,0,0,1-5.93-9.66l0,.06a20.51,20.51,0,0,1-.38-2.26c-.08-.73-.14-1.46-.16-2.2a32.16,32.16,0,0,1,.15-4.39l.13-1.34,1.15.72a50.39,50.39,0,0,0,7.43,3.79,52.88,52.88,0,0,0,7.92,2.72,47.19,47.19,0,0,0,8.28,1.35c.7.07,1.4,0,2.1.07s1.41,0,2.12,0A40.22,40.22,0,0,0,161.47,144.08Zm-.08.06a25.14,25.14,0,0,1-4.15.67c-.71.07-1.42.1-2.13.1s-1.41.05-2.12,0a42.62,42.62,0,0,1-8.42-1.12,53.39,53.39,0,0,1-8.1-2.59,50.91,50.91,0,0,1-7.6-3.81l.14-.06a31.91,31.91,0,0,0-.12,4.26,24.73,24.73,0,0,0,.54,4.22h0a15.46,15.46,0,0,0,5.51,9.15,14.5,14.5,0,0,0,10.32,2.62,16.42,16.42,0,0,0,9.63-4.75A33.76,33.76,0,0,0,161.39,144.14Z"/>
                    </g>
                    <path class="b595f6dd-fa6e-401c-9e24-8b35f94067f8" d="M141.51,148.37c5.71,2,6.63,11.59,2.62,13.53-1.07.52-.75,1.28-1.32,1.13-12.09-3.07-13.32-14.86-12-18.79,1.57,0,3.12.92,7.09,3.11A28.73,28.73,0,0,1,141.51,148.37Z"/>
                    <path class="b91e0fb9-fc0f-429a-9e92-a8b4510f7fa8" d="M137.53,146.21a11.11,11.11,0,0,1,1.61,9.49s.31-5.84-3.41-10.08Z"/>
                    <path class="b43a8139-f67a-411f-855e-25b5687eb091" d="M144.57,151.34a28.73,28.73,0,0,1-7.54-1.48,11.74,11.74,0,0,1-7.94-12v-.09s12.31,8.28,26.74,7.5C155.2,148.78,152.65,151.84,144.57,151.34Z"/>
                  </g>
                  <path class="b7d13455-70b7-4950-8129-324bb96676f1" d="M128.81,132.32A3.59,3.59,0,0,1,129,134a3.85,3.85,0,0,1-.6,1.63,2.85,2.85,0,0,1-1.45,1,3.2,3.2,0,0,1-.86.13,3.91,3.91,0,0,1-.83-.15v0a4,4,0,0,0,1.54-.28,2.66,2.66,0,0,0,1.19-1,4.91,4.91,0,0,0,.77-3Z"/>
                  <path class="b7d13455-70b7-4950-8129-324bb96676f1" d="M163.14,146.39a2.92,2.92,0,0,1-1.13-.87,4.51,4.51,0,0,1-.69-1.28,3.78,3.78,0,0,1-.11-1.46,2.9,2.9,0,0,1,.52-1.33h.05a4.56,4.56,0,0,0,0,2.64,5.25,5.25,0,0,0,1.38,2.26Z"/>
                </g>
                <ellipse class="fecd12e6-df84-49d6-ab46-d91194ce084d" cx="119.78" cy="127.64" rx="4.89" ry="6.97" transform="translate(-46.92 181.03) rotate(-64.58)"/>
                <ellipse class="fecd12e6-df84-49d6-ab46-d91194ce084d" cx="173.96" cy="138.83" rx="4.89" ry="6.97" transform="translate(29.88 308.47) rotate(-88.25)"/>
              </g>
            </g>
          </g>
          <path class="b113fcdd-c774-4fef-a23e-52eab237556c" d="M67.92,156.13a4,4,0,0,1,6.6,2.58,8.78,8.78,0,0,1-1.33,6c-2.9,4.17-8.23,8.61-14.54,7.59s-8,4.25-9.42,7.49-7.59,3.85-8.54-3.27c0,0-1.7-9.47,5.47-14.73,0,0,2.61-3,12-1.49C63.88,161.22,65.73,158.11,67.92,156.13Z"/>
        </g>
      </g>
      <path class="b113fcdd-c774-4fef-a23e-52eab237556c" d="M101.73,148.08S89.6,162.64,102.82,171c7.78,4.92,11.58,7.67,14.26,7.82,3.76.2,8.92,7.36,8.42,10.25,0,0-.73,5.9-4,2.81,0,0-4.06,7.45-13.29-1.63,0,0-.62-3.24,4.67-4.5,0,0-37.31-9.32-27.55-39.72C85.38,146,95.17,138.32,101.73,148.08Z"/>
      <path class="b98ecc8b-caee-401c-9713-ef0e7dc6f305" d="M114.54,188.82s4.56-.55-4-4.12"/>
    </g>
    <line class="b113fcdd-c774-4fef-a23e-52eab237556c" x1="121.55" y1="191.89" x2="122.65" y2="188.52"/>
  </g>
</svg>
