<svg id="f15b9f59-204b-4f87-a9b7-1af5060b0f3a" data-name="Layer 1" xmlns="http://www.w3.org/2000/svg" width="270" height="290" viewBox="0 0 270 290">
  <defs>
    <style>
      .f6dfe04f-99be-4c34-885d-843e8b449ef7 {
        fill: #ef4136;
      }

      .b0e5ade1-aee3-4a14-8fb3-7f93433d0053, .be5bb56f-f5cb-4cd6-9a0e-caff4dc58cf3 {
        fill: #fae599;
      }

      .b0e5ade1-aee3-4a14-8fb3-7f93433d0053 {
        stroke: #8e7717;
      }

      .aaee3070-b30b-41b2-96eb-cbe20b526655, .b0e5ade1-aee3-4a14-8fb3-7f93433d0053 {
        stroke-miterlimit: 10;
      }

      .e44382e7-f63a-4593-ba5a-8619c32ce43c {
        fill: #e5bb45;
        opacity: 0.5;
      }

      .aaee3070-b30b-41b2-96eb-cbe20b526655 {
        fill: #f3c63c;
        stroke: #af841b;
      }

      .f1a4d2b0-dcdf-4d43-9f3b-9508e7175946 {
        fill: #8e7717;
      }

      .fabd0540-94f7-49f5-b517-92aba3b16169 {
        fill: #872b23;
      }
    </style>
  </defs>
  <g>
    <path class="f6dfe04f-99be-4c34-885d-843e8b449ef7" d="M61,63.58C44.7,60.15,48,27.69,42.29,26.92c-14.06,3.14-20.39,39.27-4.89,50C30.48,80.26,23.22,94,24.82,100.33c6.92-3.37,16-6.8,23.15-1.21C59.57,87.3,61.39,77.66,61,63Z"/>
    <path class="b0e5ade1-aee3-4a14-8fb3-7f93433d0053" d="M199.36,181c-23.8-6.32-50.55,1.25-72.73-7.41-10.72-4.15-17.83-11.78-23.23-20.6,16.93,3.08,39,4.44,51.32-3.32,7.76-4.86,2.09-8.54.71-15.07-1.83-8.74,1.49-18.8,2.9-27.43,1.75-10.66,1.08-20.59-.62-31.18C154.32,55,134.35,38.87,112,34.72c-15.93-2.95-33.4-.33-45.2,8.81C48.08,58.05,34.08,88.41,45.13,110.06a90.7,90.7,0,0,0,14.2,20.39c.1,37.71,8,79.34,28.11,112.18,15.46,25.26,50.52,39.14,81.35,37.42,19.48-1.08,34-2.78,48.46-15.56,10.83-9.6,17.13-22.17,17.26-36C234.71,207,223.15,187.32,199.36,181Z"/>
    <path class="e44382e7-f63a-4593-ba5a-8619c32ce43c" d="M233.1,216.94v.61c-.13,13.82-6.42,26.39-17.25,36-14.44,12.79-29,14.49-48.46,15.57-30.83,1.72-65.9-12.16-81.35-37.42C71.15,207.36,63,178.22,59.66,149.43c2.4,32.1,10.66,65.41,27.35,92.67,15.46,25.25,50.52,39.13,81.35,37.42,19.48-1.08,34-2.78,48.46-15.57,10.83-9.59,17.13-22.16,17.26-36A56.72,56.72,0,0,0,233.1,216.94Z"/>
    <path class="aaee3070-b30b-41b2-96eb-cbe20b526655" d="M116.74,212.6c-11.63-9.4-13.33-22.11-1.75-32.19,4.08-3.56,9.93-4.47,15.34-5.16,12.56-1.59,25.23,0,37.09-1.56,13.26-1.61,25-7.64,35.28-14.92-2.27,17.93-31.21,34-48.59,38.22,7.7-.19,16.18,2.15,23.81,0-5.42,5.88-13.07,8-19.93,12.61,3.51.56,7.72.45,11.24,1C159.05,221.75,128.23,221.88,116.74,212.6Z"/>
    <path class="aaee3070-b30b-41b2-96eb-cbe20b526655" d="M210.13,188.8c10.5-8.32,25-9.84,34.06-23.88,3.51,11.43-1.24,21.91-6,32.4a66.38,66.38,0,0,1,6.78-5.93c.1,3.45-1.71,6.38-4.78,9.33,1.25-.6,1.86-1.2,3.11-1.8.18,6.33-9.54,19.24-17.21,16.55-3.85-1.63-10-17-13.28-21Z"/>
    <g>
      <path class="be5bb56f-f5cb-4cd6-9a0e-caff4dc58cf3" d="M124.94,47.8c8-14-16.75-24.16-16.32-38h0c-.63,6.92-1.25,14.62,2.33,21.44-1.8-3.79-4.42-6.8-6.2-9.83.07,2.31.14,4.6.24,7.68-.89-1.52-1.79-3-1.83-4.57a113.64,113.64,0,0,0-.33,16.9h0q15.12-1.53,23.09,11Z"/>
      <path class="f1a4d2b0-dcdf-4d43-9f3b-9508e7175946" d="M124.94,47.8a11.64,11.64,0,0,0,1.49-5.19,12.21,12.21,0,0,0-1.12-5.25c-1.49-3.31-3.88-6.1-6.25-8.85s-4.9-5.4-7-8.4a25.16,25.16,0,0,1-2.75-4.82,13.55,13.55,0,0,1-1.08-5.49l.86,0a70.51,70.51,0,0,0-.37,10.86A25.53,25.53,0,0,0,111.38,31l-.88.44a38.55,38.55,0,0,0-2.93-4.93c-1.08-1.59-2.23-3.16-3.23-4.86l.89-.26.22,7.67,0,1.81-.91-1.56a24.87,24.87,0,0,1-1.2-2.23,6.61,6.61,0,0,1-.68-2.56l.89.05a73.23,73.23,0,0,0-.5,8.39c0,2.81,0,5.62.09,8.44l-.4-.35a25.58,25.58,0,0,1,13.38,2.06,23.93,23.93,0,0,1,9.82,9.2l-.15.06Zm0,0L126,52.36l.1.44-.25-.38A23.74,23.74,0,0,0,116,43.59a25,25,0,0,0-13.1-1.8l-.38,0v-.39a106.79,106.79,0,0,1,.25-17l.89,0a10.05,10.05,0,0,0,1.77,4.34l-.85.25-.26-7.67-.06-1.86,1,1.6c1,1.63,2.13,3.19,3.23,4.8a36,36,0,0,1,3,5.06l-.88.44a26.43,26.43,0,0,1-2.75-10.72,70.61,70.61,0,0,1,.43-11l.86.05c-.11,3.55,1.54,6.92,3.57,9.87s4.52,5.67,6.87,8.46a35.89,35.89,0,0,1,6.11,9.09,12.42,12.42,0,0,1,1,5.38A11.6,11.6,0,0,1,124.94,47.8Z"/>
    </g>
    <path class="fabd0540-94f7-49f5-b517-92aba3b16169" d="M72.3,45.83c-1.83-.61-2.35.83-2.22,2.22,0,0,5.45,5.13,4.06,12C77.72,56.55,77.19,47.48,72.3,45.83Z"/>
    <path class="e44382e7-f63a-4593-ba5a-8619c32ce43c" d="M102.09,152.32c-7.48-1.21-29-8.85-42.43-22.6,2.4,12.69,12.06,34.16,52.18,35.2A92.08,92.08,0,0,1,102.09,152.32Z"/>
  </g>
</svg>
