<svg id="a3f5d4e4-96e8-42ad-8b8a-f57ac4f2274e" data-name="Layer 1" xmlns="http://www.w3.org/2000/svg" width="227.29" height="226.59" viewBox="0 0 227.29 226.59">
  <defs>
    <style>
      .a2c28e9a-a11b-4b61-b03a-231c1ddacf53 {
        fill: #bcfde5;
      }

      .bb7889cc-6051-45bd-a99f-0ea17b46377c {
        fill: #ebf7f2;
      }
    </style>
  </defs>
  <g>
    <g>
      <path class="a2c28e9a-a11b-4b61-b03a-231c1ddacf53" d="M200.72,99.89c1.93,25.7-58.12,35.93-98.66,39s-76.51-10.64-78.44-36.34S57.8,66.85,98.33,63.81,198.79,74.19,200.72,99.89Z"/>
      <path class="bb7889cc-6051-45bd-a99f-0ea17b46377c" d="M200.77,99.88v1.63c0,.27,0,.55,0,.82l-.12.8c-.09.54-.13,1.09-.27,1.61l-.48,1.56a18.25,18.25,0,0,1-3.26,5.61,36.13,36.13,0,0,1-10.09,8.14c-7.55,4.33-15.84,7.16-24.17,9.53-4.17,1.18-8.4,2.19-12.63,3.11s-8.51,1.72-12.78,2.44c-8.55,1.45-17.16,2.56-25.79,3.43-4.32.42-8.63.82-13,1.07s-8.69.27-13,.1A116.74,116.74,0,0,1,59.35,136C51,133.74,42.69,130.35,35.69,125a36.11,36.11,0,0,1-8.88-9.79,28.54,28.54,0,0,1-4.09-12.63,27,27,0,0,1,.43-6.71,23.67,23.67,0,0,1,2.31-6.31,29.86,29.86,0,0,1,9-9.76A55.47,55.47,0,0,1,46,73.48a99.18,99.18,0,0,1,12.41-4.13A186.32,186.32,0,0,1,84,64.64a216.85,216.85,0,0,1,26-1.72,199.4,199.4,0,0,1,26,1.85,181.2,181.2,0,0,1,25.48,5.29,119,119,0,0,1,12.31,4.21A81.46,81.46,0,0,1,185.41,80,42.77,42.77,0,0,1,195.5,88.2,20.39,20.39,0,0,1,200.77,99.88Zm-.1,0a20.21,20.21,0,0,0-5.29-11.58,42.78,42.78,0,0,0-10.07-8.1,82.12,82.12,0,0,0-11.66-5.69,120.92,120.92,0,0,0-12.3-4.15,180.62,180.62,0,0,0-25.44-5.17A200.52,200.52,0,0,0,110,63.46a220.14,220.14,0,0,0-25.9,1.83,187.05,187.05,0,0,0-25.51,4.8A99.79,99.79,0,0,0,46.3,74.25,54.18,54.18,0,0,0,35,80.47,29,29,0,0,0,26.29,90,22.68,22.68,0,0,0,24.1,96a25.75,25.75,0,0,0-.38,6.44,27.77,27.77,0,0,0,3.9,12.23,35.45,35.45,0,0,0,8.62,9.57c6.84,5.33,15,8.73,23.31,11a116.87,116.87,0,0,0,25.64,3.79q6.5.27,13,0c4.33-.24,8.64-.62,13-1,8.62-.83,17.22-1.9,25.77-3.31,4.27-.7,8.53-1.48,12.77-2.39s8.45-1.88,12.62-3c8.33-2.33,16.61-5.12,24.15-9.4a36.17,36.17,0,0,0,10.08-8.06,18.28,18.28,0,0,0,3.26-5.55l.48-1.55c.15-.52.18-1.06.28-1.59l.12-.8c0-.27,0-.54,0-.81Z"/>
    </g>
    <g>
      <path class="a2c28e9a-a11b-4b61-b03a-231c1ddacf53" d="M189.94,106.76c4.89,25.31-53.58,42.41-93.49,50.12s-77.23-1.74-82.12-27S44.16,90.46,84.07,82.76,185.06,81.46,189.94,106.76Z"/>
      <path class="bb7889cc-6051-45bd-a99f-0ea17b46377c" d="M190,106.75l.2,1.62c0,.27.07.54.08.81l0,.81c0,.55,0,1.1-.08,1.63l-.3,1.61a18.36,18.36,0,0,1-2.59,6,36.16,36.16,0,0,1-9.09,9.25c-7,5.17-14.9,8.94-22.9,12.26-4,1.65-8.09,3.14-12.19,4.54s-8.25,2.7-12.41,3.91c-8.33,2.43-16.75,4.52-25.22,6.38-4.24.92-8.48,1.82-12.76,2.57s-8.61,1.26-12.95,1.6a116.62,116.62,0,0,1-26.07-.7c-8.6-1.29-17.2-3.7-24.78-8.26A36.29,36.29,0,0,1,19,142,28.72,28.72,0,0,1,13.44,130a26.91,26.91,0,0,1-.35-6.71,23.76,23.76,0,0,1,1.57-6.54A29.89,29.89,0,0,1,22.44,106a55.56,55.56,0,0,1,10.74-7.57A103.63,103.63,0,0,1,45,92.87,188,188,0,0,1,70,85.23a219.73,219.73,0,0,1,25.61-4.71,199.82,199.82,0,0,1,26-1.16,181.29,181.29,0,0,1,25.91,2.31,119.51,119.51,0,0,1,12.72,2.76,81.51,81.51,0,0,1,12.25,4.37,43,43,0,0,1,11,7A20.34,20.34,0,0,1,190,106.75Zm-.1,0a20.22,20.22,0,0,0-6.59-10.9A42.74,42.74,0,0,0,172.36,89a81.54,81.54,0,0,0-12.24-4.31,119.46,119.46,0,0,0-12.7-2.7,182.17,182.17,0,0,0-25.86-2.2,200.76,200.76,0,0,0-25.94,1.28,217.09,217.09,0,0,0-25.51,4.81,186.21,186.21,0,0,0-24.79,7.71,98.94,98.94,0,0,0-11.73,5.55A54.25,54.25,0,0,0,23,106.63a29,29,0,0,0-7.51,10.42,22.55,22.55,0,0,0-1.47,6.27,25.72,25.72,0,0,0,.36,6.44,27.81,27.81,0,0,0,5.29,11.69A35.2,35.2,0,0,0,29.38,150c7.41,4.5,15.9,6.93,24.43,8.26a116.25,116.25,0,0,0,25.9.8q6.48-.48,12.9-1.54c4.26-.73,8.51-1.61,12.74-2.51,8.47-1.82,16.89-3.87,25.22-6.27,4.16-1.18,8.3-2.45,12.41-3.84s8.18-2.85,12.19-4.49c8-3.27,15.9-7,22.9-12.12a36,36,0,0,0,9.08-9.17,18.51,18.51,0,0,0,2.6-5.89l.3-1.59c.08-.54,0-1.08.08-1.62l0-.81c0-.27,0-.53-.08-.8Z"/>
    </g>
  </g>
</svg>
