<svg id="b79e1db8-8443-4c1a-90e2-9ac1f7392a17" data-name="Layer 1" xmlns="http://www.w3.org/2000/svg" width="160" height="170" viewBox="0 0 160 170">
  <defs>
    <style>
      .ac0e56b1-983b-445a-acbb-9524623bbdb3, .e6fbe55b-e36f-41af-8d30-63d9d8a67668 {
        fill: #ffe309;
      }

      .ac0e56b1-983b-445a-acbb-9524623bbdb3, .b36ad1be-84b2-4579-9afe-828cdbb8f205 {
        stroke: #665608;
      }

      .ac0e56b1-983b-445a-acbb-9524623bbdb3, .b0adc7dd-6fca-4fe9-aa53-138489474e69, .b36ad1be-84b2-4579-9afe-828cdbb8f205, .e6fbe55b-e36f-41af-8d30-63d9d8a67668 {
        stroke-miterlimit: 10;
      }

      .ac0e56b1-983b-445a-acbb-9524623bbdb3, .b36ad1be-84b2-4579-9afe-828cdbb8f205, .e6fbe55b-e36f-41af-8d30-63d9d8a67668 {
        stroke-width: 0.75px;
      }

      .e6fbe55b-e36f-41af-8d30-63d9d8a67668 {
        stroke: #493c05;
      }

      .f774f00e-4a7a-49e9-9fce-4faf78eaf8d3 {
        fill: #ecc516;
      }

      .b0adc7dd-6fca-4fe9-aa53-138489474e69 {
        fill: #532900;
        stroke: #3a1c03;
      }

      .f0f4ba74-bf69-42fd-9660-91cb58f43942 {
        fill: #681a1a;
      }

      .be7d9987-306e-4294-b35e-cecf5d09b40f {
        fill: #ef7089;
      }

      .f56728e9-9e4a-453d-b4ed-8cba685469a1 {
        fill: #ff5763;
      }

      .a63fea43-1ad8-4273-9166-79b1e068566c {
        fill: #fff;
      }

      .a9cd8d23-7c98-471c-b100-5e8968c078a2 {
        fill: #ef304c;
      }

      .af358451-30b1-4ee0-8420-ff72def0d0e3 {
        fill: #ffa979;
      }

      .b36ad1be-84b2-4579-9afe-828cdbb8f205 {
        fill: none;
      }
    </style>
  </defs>
  <g>
    <g>
      <g>
        <path class="ac0e56b1-983b-445a-acbb-9524623bbdb3" d="M111.06,143s-1.47,4.57,3.72,5.79,9.39.09,9.37,5.39-.54,11-5.84,11-4.19-7.35-8.28-7.26-11.51-1.79-10.22-11.07S111.06,143,111.06,143Z"/>
        <g>
          <path class="ac0e56b1-983b-445a-acbb-9524623bbdb3" d="M70.16,110.47s1.87,3.39-9.06,19.35c0,0-4.29,6.6-7.84,9.37s-7.4,9.32-6.77,12.24,3.42,5.23,5.07.69l-.25-5.22s-2.24,5.23,4,6.58.14-7.32.14-7.32l3.45,5s5.24-.74.88-8.17c0,0,3.46.12,12-9.39s13.33-22.1,13.33-22.1Z"/>
          <path class="e6fbe55b-e36f-41af-8d30-63d9d8a67668" d="M53,122.51A45.79,45.79,0,0,0,63.69,138.8a34.79,34.79,0,0,0,11.23,7h0a43.66,43.66,0,0,0,10,2.54c.64.09,1.29.17,1.93.22a46.68,46.68,0,0,0,14.09-.83,65.42,65.42,0,0,0,22.56-9.94c1.35-.89,2.57-1.77,3.66-2.56,8.17-6,15-6.2,15-6.2-5.11-2.32-7.93-7.84-11.21-13.7-3-5.35-6.32-11-12.11-14.76-.3-.2-.6-.4-.92-.58a30.31,30.31,0,0,0-5.93-2.69,40.62,40.62,0,0,0-9.66-1.92,1.18,1.18,0,0,0-.26,0,55.24,55.24,0,0,0-9.17,0,44.3,44.3,0,0,0-5.45.76C76.13,98.75,71.3,91.14,71.3,91.14L50.07,114A82.33,82.33,0,0,0,53,122.51Z"/>
          <path class="f774f00e-4a7a-49e9-9fce-4faf78eaf8d3" d="M53.16,121.16c5.34.4,11.15-.85,17.89-3.15,14-4.75,23.66-13.88,22.39-20.85a43.74,43.74,0,0,0-7.8-.17,35.7,35.7,0,0,0-4.62.56c-9.51,2.07-13.81-5-13.81-5L49.69,112.92C50.51,115.72,52.17,118.72,53.16,121.16Z"/>
          <path class="b0adc7dd-6fca-4fe9-aa53-138489474e69" d="M122.93,137.65c1.34-.89,3.11-1.6,4.2-2.39,8.17-6,15-6.2,15-6.2-5.11-2.32-8.5-8.38-11.78-14.24C131.27,119.71,131.39,129,122.93,137.65Z"/>
          <path class="b0adc7dd-6fca-4fe9-aa53-138489474e69" d="M63.69,138.8a34.79,34.79,0,0,0,11.23,7h0c5.52-1.88,15.46-7.24,24.11-22.36,5.32-9.3,5.18-19.42,3.2-28.06a55.36,55.36,0,0,0-9.43,0c1.47,6.85,2,18.15-6.13,28.25A43,43,0,0,1,63.69,138.8Z"/>
          <path class="b0adc7dd-6fca-4fe9-aa53-138489474e69" d="M86.82,148.59a46.68,46.68,0,0,0,14.09-.83c6.06-3.13,14.1-8.75,18.17-17.89,5-11.15,2.88-21.18-.32-29.27-.3-.2-.6-.4-.92-.58a30.31,30.31,0,0,0-5.93-2.69c2,6.47,4,17.83-2.16,28.08C102.47,137.53,91.27,145.67,86.82,148.59Z"/>
          <g>
            <path class="ac0e56b1-983b-445a-acbb-9524623bbdb3" d="M65.72,52.26s6.91-2.2,10.76-18.49S67.56,3.34,59.36,5,53.16,13.49,62,16.4,76.13,37.87,63,50.94C63,50.94,56.47,61.14,65.72,52.26Z"/>
            <path class="ac0e56b1-983b-445a-acbb-9524623bbdb3" d="M44.19,57.35S42,44.25,36.71,36.79s-19.62-23-30.45-15c0,0-2.74,3.64-.24,6.3s6,2.58,8.54-.2S39,33.77,40.94,57.66C40.94,57.66,43.46,63.66,44.19,57.35Z"/>
            <g>
              <path class="ac0e56b1-983b-445a-acbb-9524623bbdb3" d="M24.12,108.33c4.78,15.24,20.68,19.87,37.45,18.09h.06A76.42,76.42,0,0,0,78,122.73c21.59-7.34,28.92-22.51,20.29-44C91.85,62.65,77.22,49.91,60.27,49.85a35.39,35.39,0,0,0-11.53,1.93C27.14,59.14,17,85.76,24.12,108.33Z"/>
              <path class="f774f00e-4a7a-49e9-9fce-4faf78eaf8d3" d="M60.2,126.2a77.66,77.66,0,0,0,16.41-3.69c21.59-7.35,29-22.41,20.39-43.66-6.43-16-21-28.58-37.95-28.58A45.66,45.66,0,0,1,90.08,81C98.62,108.05,79,122.39,60.2,126.2Z"/>
              <g>
                <g>
                  <g>
                    <g>
                      <path class="f0f4ba74-bf69-42fd-9660-91cb58f43942" d="M40.32,106.4s2.45,7.19,7.75,11.42a13.42,13.42,0,0,0,4.87,2.58c6.84,1.91,13.89-.79,16.7-9a4.72,4.72,0,0,0,.18-.53,26.17,26.17,0,0,0,1.11-7.25s-12.56,6.27-25.74,4A29.53,29.53,0,0,1,40.32,106.4Z"/>
                      <path class="be7d9987-306e-4294-b35e-cecf5d09b40f" d="M40.36,106.44a31.37,31.37,0,0,0,5.36,8.42,14.61,14.61,0,0,0,8.17,5,15.13,15.13,0,0,0,4.79.2,11.94,11.94,0,0,0,4.46-1.52,13.53,13.53,0,0,0,5.65-7.44l0-.06c.18-.49.37-1.15.52-1.75s.29-1.24.39-1.87a28.71,28.71,0,0,0,.37-3.83l1.2.76a48.46,48.46,0,0,1-7.54,2.7,47.48,47.48,0,0,1-7.84,1.37,35.81,35.81,0,0,1-8-.08c-.66-.06-1.31-.21-2-.32a18,18,0,0,1-1.94-.4A22.38,22.38,0,0,1,40.36,106.44Zm-.07-.07a38.18,38.18,0,0,0,3.83,1c.64.14,1.29.24,1.94.32s1.29.19,1.95.23a38.68,38.68,0,0,0,7.83-.16,50.15,50.15,0,0,0,15-4.22l.14-.06v.14a29.26,29.26,0,0,1-.34,4,21.55,21.55,0,0,1-1,3.86h0a14.32,14.32,0,0,1-6.13,7.91,13.57,13.57,0,0,1-9.89,1.3,15.33,15.33,0,0,1-8.4-5.45A27.72,27.72,0,0,1,42.43,111c-.43-.74-.81-1.5-1.18-2.26A17.92,17.92,0,0,1,40.29,106.37Z"/>
                    </g>
                    <path class="f56728e9-9e4a-453d-b4ed-8cba685469a1" d="M58.18,112.45c-5.46,1.21-9.06,5.7-5.59,7.91a6.79,6.79,0,0,0,3.18.88c11.44-1.54,13.48-7.7,12.71-11.45-1.43-.18-3,.52-6.84,2.1A28.22,28.22,0,0,0,58.18,112.45Z"/>
                    <path class="f0f4ba74-bf69-42fd-9660-91cb58f43942" d="M62.07,110.88a10.32,10.32,0,0,0-2.5,8.56s.35-5.41,4.22-8.91Z"/>
                    <path class="a63fea43-1ad8-4273-9166-79b1e068566c" d="M55.05,114.85a27.41,27.41,0,0,0,7.09-.55,10.88,10.88,0,0,0,8.58-10.21V104s-12.2,6.3-25.38,4C45.55,111.36,47.57,114.45,55.05,114.85Z"/>
                  </g>
                  <path class="a9cd8d23-7c98-471c-b100-5e8968c078a2" d="M71.61,99.06c.09.5.17,1,.28,1.42a4.23,4.23,0,0,0,.46,1.22,2.4,2.4,0,0,0,.8.94,6.64,6.64,0,0,0,1.22.7v0A3.6,3.6,0,0,1,73,103a2.57,2.57,0,0,1-1-1,4.72,4.72,0,0,1-.35-2.89Z"/>
                  <path class="a9cd8d23-7c98-471c-b100-5e8968c078a2" d="M38.47,108.28c.23-.38.45-.72.64-1.06a7.5,7.5,0,0,0,.5-1,4.78,4.78,0,0,0,.38-1.06c.12-.37.17-.76.29-1.2h0a4.32,4.32,0,0,1-.26,2.46,4.77,4.77,0,0,1-1.57,1.93Z"/>
                </g>
                <ellipse class="af358451-30b1-4ee0-8420-ff72def0d0e3" cx="80.37" cy="95.7" rx="6.45" ry="4.53" transform="translate(-26.55 31) rotate(-18.8)"/>
                <ellipse class="af358451-30b1-4ee0-8420-ff72def0d0e3" cx="29.37" cy="100.21" rx="4.53" ry="6.45" transform="translate(-72.98 120.96) rotate(-85.13)"/>
              </g>
            </g>
          </g>
          <path class="ac0e56b1-983b-445a-acbb-9524623bbdb3" d="M125,127.43a3.69,3.69,0,0,0-6.34,1.67,8.12,8.12,0,0,0,.59,5.69c2.21,4.14,6.64,8.79,12.55,8.52s6.92,4.77,7.86,7.89,6.57,4.35,8.2-2.09c0,0,2.58-8.52-3.45-14.13,0,0-2.09-3-10.87-2.65C128.18,132.54,126.81,129.48,125,127.43Z"/>
        </g>
      </g>
      <path class="ac0e56b1-983b-445a-acbb-9524623bbdb3" d="M94.78,116.43s9.6,14.67-3.45,21c-7.67,3.69-11.46,5.81-13.94,5.66-3.48-.21-9,5.82-8.83,8.53,0,0,0,5.51,3.32,3,0,0,2.94,7.28,12.4-.08,0,0,.91-2.92-3.81-4.64,0,0,35.29-4.58,29.56-33.57C110,116.3,101.86,108.15,94.78,116.43Z"/>
      <path class="b36ad1be-84b2-4579-9afe-828cdbb8f205" d="M78.65,152.51s-4.12-1,4.16-3.35"/>
    </g>
    <line class="ac0e56b1-983b-445a-acbb-9524623bbdb3" x1="71.88" y1="154.59" x2="71.23" y2="151.37"/>
  </g>
</svg>
