<svg id="e9a436dd-f8d7-432f-8b00-4ad2e003ebeb" data-name="Layer 1" xmlns="http://www.w3.org/2000/svg" width="371.62" height="238.85" viewBox="0 0 371.62 238.85">
  <defs>
    <style>
      .b81348f9-d5ad-49a1-9600-5c736df892d1 {
        fill: #9a4d24;
        stroke: #492012;
        stroke-miterlimit: 10;
        stroke-width: 2px;
      }
    </style>
  </defs>
  <path class="b81348f9-d5ad-49a1-9600-5c736df892d1" d="M197.55,10.58s-14.89,46.65,15,104.76L214.74,99s7.52,30.74,37.49,55.9l-6.37-17s38.69,28.21,46.66,50.86c0,0,6-15-7.25-32.76,0,0,27.41,23.55,32.89,23.4,0,0-1.62-11.81-5.7-18.15,0,0,21,15.24,34.85,13.66,0,0,2.33-17.77-13.84-32.67,0,0,9.48,6.39,17.44,8,0,0-3.17-14.87-9.78-20.43,0,0-6.88-8-8.55-13.55,0,0,16.9,16.59,31.13,10.1,0,0-20.53-10.4-44.78-52.48l16.17,8.5s-7.85-18.31-31.94-33.72L290.33,40s9.56-1.52,12.65.2C303,40.22,231.39-5.14,197.55,10.58Z"/>
</svg>
