<svg id="aec803a5-4a94-4ecd-81d3-735d3b930ec8" data-name="Layer 1" xmlns="http://www.w3.org/2000/svg" width="230" height="180" viewBox="0 0 230 180">
  <defs>
    <style>
      .edd06c3e-7ccd-4443-aade-ba63f3d028e4 {
        fill: #07353a;
      }

      .eb93a285-9bf1-40fc-9a43-cff5a70ebaaa {
        fill: #161616;
      }

      .e59723c8-9b2e-4634-b46a-391a45e99a7c {
        fill: #381b04;
      }

      .a251b33f-fc60-4a9a-bb10-97b93904db53, .e59723c8-9b2e-4634-b46a-391a45e99a7c {
        stroke: #301904;
        stroke-miterlimit: 10;
      }

      .b1e0eda1-4819-4fcb-9069-9ed62de5f408 {
        fill: #050505;
      }

      .a251b33f-fc60-4a9a-bb10-97b93904db53 {
        fill: #301904;
      }

      .a5c7af17-b225-454d-87cc-eddad50451fe {
        fill: #4b6166;
      }

      .a10bb704-f119-4589-843e-5f16e67a4c9e {
        fill: #474747;
      }
    </style>
  </defs>
  <g>
    <path class="edd06c3e-7ccd-4443-aade-ba63f3d028e4" d="M59,57a124.06,124.06,0,0,0-8.46-17.44A69.47,69.47,0,0,0,38.83,24.19a29.27,29.27,0,0,0-7.94-5.44,16.59,16.59,0,0,0-9.42-1.34,20.1,20.1,0,0,0-8.74,4,39.82,39.82,0,0,0-6.88,6.85,39.94,39.94,0,0,1,6.8-6.95,20.34,20.34,0,0,1,8.78-4.1A17,17,0,0,1,31,18.4a29.65,29.65,0,0,1,8.12,5.42A70,70,0,0,1,51.23,39.15,125,125,0,0,1,60,56.62Z"/>
    <polygon class="eb93a285-9bf1-40fc-9a43-cff5a70ebaaa" points="84.17 103.96 98.94 135 73.51 153.46 81.03 162.18 77.35 153.59 104.26 135.75 90.61 102.46 84.17 103.96"/>
    <polygon class="eb93a285-9bf1-40fc-9a43-cff5a70ebaaa" points="123.87 106.24 105.83 129.71 123.92 149.84 116.01 155.83 120.66 149.26 101.22 129.38 118.72 103.81 123.87 106.24"/>
    <polygon class="eb93a285-9bf1-40fc-9a43-cff5a70ebaaa" points="107.09 106.22 70.69 122.41 73.16 149.32 56.31 155.2 69.69 147.07 66.95 119.46 104.43 99.72 107.09 106.22"/>
    <path class="e59723c8-9b2e-4634-b46a-391a45e99a7c" d="M137.89,104.33c-3.19,11.28-13.43,18.25-25.93,14.72S91.9,103.51,95.08,92.24s15.91-17.55,28.41-14S141.07,93.06,137.89,104.33Z"/>
    <path class="b1e0eda1-4819-4fcb-9069-9ed62de5f408" d="M120.9,82.82l.18-.66c.14-.41.36-1,.61-1.69a10.69,10.69,0,0,1,.46-1.09c.17-.38.35-.79.54-1.2s.43-.82.66-1.24l.33-.63.37-.62.75-1.21.77-1.14.36-.55.37-.5.68-.92c.43-.57.81-1,1.06-1.34l.4-.51-.29.58c-.17.37-.45.89-.74,1.53l-.46,1-.25.56-.24.6-.5,1.24-.45,1.3c-.07.22-.15.44-.22.65l-.19.66c-.12.43-.24.85-.35,1.27s-.17.81-.25,1.19a9.45,9.45,0,0,0-.2,1.07c-.09.66-.17,1.21-.22,1.59l0,.61a4.24,4.24,0,0,1-1.26.94C122.1,84.63,121.3,84.59,120.9,82.82Z"/>
    <path class="b1e0eda1-4819-4fcb-9069-9ed62de5f408" d="M128.73,87l.43-.44,1.2-1.1c.5-.45,1.11-.93,1.74-1.46s1.35-1,2.07-1.52c1.42-1,2.88-1.93,4-2.63L140,78.7l-1.51,1.53c-.89.93-2.1,2.15-3.21,3.43-.57.63-1.09,1.29-1.6,1.89s-.92,1.2-1.27,1.71l-.84,1.24-.28.48a4,4,0,0,1-1.5.16C129,89.05,128.35,88.62,128.73,87Z"/>
    <path class="b1e0eda1-4819-4fcb-9069-9ed62de5f408" d="M127.47,81.71a4.5,4.5,0,0,1,.17-.45c.12-.28.3-.67.51-1.12.11-.23.25-.45.38-.69s.26-.49.42-.73a15.44,15.44,0,0,1,1-1.37,9.78,9.78,0,0,1,1.95-1.86,7.17,7.17,0,0,1,.65-.38l.24-.13-.21.29c-.13.19-.31.43-.52.76a14.34,14.34,0,0,0-1.23,2.54c-.2.46-.32,1-.46,1.4-.06.21-.09.44-.14.63s-.09.38-.11.55l-.1.8c0,.18,0,.28,0,.28l-.29.15a5.05,5.05,0,0,1-.71.3C128.43,82.83,127.74,83,127.47,81.71Z"/>
    <path class="b1e0eda1-4819-4fcb-9069-9ed62de5f408" d="M134,89.05l.42,0,1.11-.07c.46,0,1,0,1.56,0s1.16,0,1.75.07c1.19.06,2.35.21,3.22.32l1.44.21-1.42.29c-.85.19-2,.44-3.07.77-.54.15-1.08.34-1.58.5s-.95.35-1.33.51l-.91.4-.33.17a3.82,3.82,0,0,1-1-.86A1.59,1.59,0,0,1,134,89.05Z"/>
    <path class="b1e0eda1-4819-4fcb-9069-9ed62de5f408" d="M136.1,93.63l.29.11.78.25c.33.11.72.21,1.14.32s.88.22,1.34.31c.92.19,1.87.34,2.58.44l1.19.16-1.15.34c-.7.2-1.64.46-2.6.66-.48.11-1,.2-1.43.29s-.9.14-1.28.18l-.92.1-.35,0a2.88,2.88,0,0,1-.46-1.16A2,2,0,0,1,136.1,93.63Z"/>
    <path class="b1e0eda1-4819-4fcb-9069-9ed62de5f408" d="M108.5,113.9l-2,7.4-1.24-7.5a3.43,3.43,0,0,1,1.12-.55A1.86,1.86,0,0,1,108.5,113.9Z"/>
    <path class="b1e0eda1-4819-4fcb-9069-9ed62de5f408" d="M104.18,113l-3.36,6,.28-6.89S103.24,111.3,104.18,113Z"/>
    <path class="b1e0eda1-4819-4fcb-9069-9ed62de5f408" d="M100.11,108.81,99,109l-1.14.16c-.42,0-.86.12-1.31.15-.89.09-1.76.17-2.43.18l-1.1,0,1-.52c.57-.3,1.31-.76,2.05-1.21.36-.22.72-.48,1-.7l.9-.61.86-.64a3.83,3.83,0,0,1,.92.8A2,2,0,0,1,100.11,108.81Z"/>
    <path class="b1e0eda1-4819-4fcb-9069-9ed62de5f408" d="M135.07,100.63l6.7,2.68-7.2.49S133.39,101.76,135.07,100.63Z"/>
    <path class="b1e0eda1-4819-4fcb-9069-9ed62de5f408" d="M135.48,105.38l.29.21.73.58c.3.24.62.56,1,.88l.5.53.25.28.24.29a12.82,12.82,0,0,1,1.47,2.27c.16.32.27.6.35.78l.13.3-.24-.22c-.15-.13-.36-.33-.63-.55a11.71,11.71,0,0,0-2.1-1.34l-.29-.15-.31-.12-.58-.24c-.4-.13-.74-.26-1.06-.34l-.75-.18-.3,0a4.1,4.1,0,0,1-.06-1.22A1.8,1.8,0,0,1,135.48,105.38Z"/>
    <path class="b1e0eda1-4819-4fcb-9069-9ed62de5f408" d="M132.16,110.51l.3.22c.18.15.43.38.71.66.07.07.15.13.22.21l.22.26.44.55c.14.2.27.42.4.63l.2.33.16.34c.1.24.2.46.29.69l.2.68c0,.11.06.21.08.32l.05.31.09.57c0,.35,0,.64,0,.84v.31l-.14-.28a7.7,7.7,0,0,0-.38-.72l-.3-.44-.16-.23c-.05-.08-.13-.15-.19-.23l-.41-.45c-.15-.15-.31-.28-.46-.41l-.23-.2-.26-.16c-.17-.1-.32-.21-.48-.3l-.48-.22-.21-.1-.22-.07-.65-.2-.26,0a5.44,5.44,0,0,1,0-1.21A1.71,1.71,0,0,1,132.16,110.51Z"/>
    <path class="b1e0eda1-4819-4fcb-9069-9ed62de5f408" d="M128.56,115.36l-.16.28a8.25,8.25,0,0,0-.36.76,8.05,8.05,0,0,0-.65,2.52,8.29,8.29,0,0,0,.19,2.74,7.94,7.94,0,0,0,.28.91l.12.34-.24-.27a8.63,8.63,0,0,1-.61-.77,9.29,9.29,0,0,1-1.34-2.77,10.21,10.21,0,0,1-.34-1.68,11.87,11.87,0,0,1-.07-1.52c0-.45,0-.83.06-1.09l.06-.41a1.84,1.84,0,0,1,.38-.17,2.51,2.51,0,0,1,.88-.16A1.94,1.94,0,0,1,128.56,115.36Z"/>
    <path class="b1e0eda1-4819-4fcb-9069-9ed62de5f408" d="M123.91,118.31l-.14.16-.3.46c-.14.2-.24.44-.39.71l-.16.44-.08.23,0,.24c0,.16-.08.32-.11.49s0,.33-.05.49l0,.24V122l0,.44c0,.27.07.49.09.65l0,.26-.17-.2a6.79,6.79,0,0,1-.44-.53l-.26-.39-.15-.23-.12-.24-.25-.53c-.08-.19-.14-.38-.21-.58l-.09-.3L121,120l-.12-.6a9.17,9.17,0,0,1-.07-1.11c0-.33,0-.61,0-.81l0-.3a2.74,2.74,0,0,1,1.2-.08A2.68,2.68,0,0,1,123.91,118.31Z"/>
    <path class="b1e0eda1-4819-4fcb-9069-9ed62de5f408" d="M117.66,117.91l-.15.21-.38.58c-.17.24-.32.54-.5.86s-.36.68-.51,1a16.39,16.39,0,0,0-.78,2.09c-.1.3-.16.55-.21.73l-.07.28-.06-.28c0-.18-.11-.44-.17-.75a20.22,20.22,0,0,1-.3-2.34c0-.43,0-.87,0-1.29s0-.81.05-1.14,0-.62.08-.82l0-.31a3.07,3.07,0,0,1,1.21-.11A2.24,2.24,0,0,1,117.66,117.91Z"/>
    <path class="b1e0eda1-4819-4fcb-9069-9ed62de5f408" d="M115.66,79l-.15-.45a11,11,0,0,1-.32-1.21A11.76,11.76,0,0,1,115,75.6a10.76,10.76,0,0,1,.08-2,10.5,10.5,0,0,1,1-3.35c.22-.41.41-.74.56-1l.23-.35-.1.41a10.11,10.11,0,0,0-.21,1.07,9.46,9.46,0,0,0,.09,3.16,9,9,0,0,0,.46,1.55,9.36,9.36,0,0,0,.62,1.23c.2.34.4.61.53.79l.23.29a3.52,3.52,0,0,1-.15.36,3.83,3.83,0,0,1-.45.78,1.66,1.66,0,0,1-.83.63A1.68,1.68,0,0,1,115.66,79Z"/>
    <path class="b1e0eda1-4819-4fcb-9069-9ed62de5f408" d="M112.62,117.83l-.17.27c-.1.17-.22.42-.38.72l-.13.24-.11.26-.24.57c-.08.21-.14.42-.22.64a4.72,4.72,0,0,0-.19.67l-.16.69-.1.68,0,.33c0,.11,0,.22,0,.32s0,.41,0,.6c0,.37,0,.68,0,.9l0,.34-.15-.31c-.09-.2-.24-.48-.38-.84-.07-.18-.14-.38-.22-.58A3.19,3.19,0,0,1,110,123l-.1-.34c-.06-.24-.13-.49-.2-.74s-.09-.51-.13-.77a5.47,5.47,0,0,1-.1-.8c0-.26-.06-.53-.06-.78v-1.08l0-.32c0-.41,0-.75.08-1l.06-.38a3,3,0,0,1,1.25-.25A2,2,0,0,1,112.62,117.83Z"/>
    <path class="a251b33f-fc60-4a9a-bb10-97b93904db53" d="M112.35,87.76c-1,15.13-18,26.34-38,25S34.92,98.61,35.89,83.48,48.17,45.55,77,48.49C97,50.53,113.33,72.64,112.35,87.76Z"/>
    <path class="eb93a285-9bf1-40fc-9a43-cff5a70ebaaa" d="M52.81,81l-41,14.5,44.62-6.56S60.36,83.1,52.81,81Z"/>
    <g>
      <path class="a251b33f-fc60-4a9a-bb10-97b93904db53" d="M222.94,146.57c-3.67,2.78-9.12,4-10,3.52-1.13-.65,5-4,7.63-8.53l.13-.24a64.1,64.1,0,0,0-6.78-10.8,11.66,11.66,0,0,1-.93,1.64c-3.56,5.2-13.33,7.74-14.68,7s5.95-4.7,9.09-10.17a39.22,39.22,0,0,0,1.88-3.79,73.62,73.62,0,0,0-11.64-9.74,12.68,12.68,0,0,1-.89,2.89c-2.88,6.58-13.29,11.45-15,10.87s5.67-6.51,8-13.28a45.05,45.05,0,0,0,1.28-4.48,100.44,100.44,0,0,0-13.61-6.21,13.68,13.68,0,0,1-.23,3.42c-1.41,7-10.52,14-12.28,13.83s4.14-7.58,5-14.7a46.58,46.58,0,0,0,.29-5,133,133,0,0,0-14.84-3.5,11.38,11.38,0,0,1,.1,1.45c0,5.67-6,12.5-7.41,12.6s2.05-6.51,1.63-12.17c-.07-1-.2-1.9-.35-2.82a113,113,0,0,0-13.78-1.08c-13.46,2.19-3,17.07-3,17.07C143.57,126.15,235.74,182.94,222.94,146.57Z"/>
      <path class="a5c7af17-b225-454d-87cc-eddad50451fe" d="M165,122.46c1.76.21,10.87-6.79,12.28-13.83a13.68,13.68,0,0,0,.23-3.42c-2.43-.9-4.85-1.7-7.22-2.41a46.58,46.58,0,0,1-.29,5C169.1,114.88,163.2,122.24,165,122.46Z"/>
      <path class="a5c7af17-b225-454d-87cc-eddad50451fe" d="M148.1,113.35c1.39-.1,7.4-6.93,7.41-12.6a11.38,11.38,0,0,0-.1-1.45c-2.13-.38-4.15-.69-6-.94.15.92.28,1.87.35,2.82C150.15,106.84,146.7,113.46,148.1,113.35Z"/>
      <path class="a5c7af17-b225-454d-87cc-eddad50451fe" d="M189.8,115.9c-2.37,6.77-9.71,12.7-8,13.28s12.08-4.29,15-10.87a12.68,12.68,0,0,0,.89-2.89c-2.13-1.44-4.32-2.78-6.53-4A45.05,45.05,0,0,1,189.8,115.9Z"/>
      <path class="a5c7af17-b225-454d-87cc-eddad50451fe" d="M198.28,139.12c1.35.78,11.12-1.76,14.68-7a11.66,11.66,0,0,0,.93-1.64,68.62,68.62,0,0,0-4.64-5.36,39.22,39.22,0,0,1-1.88,3.79C204.23,134.42,196.93,138.34,198.28,139.12Z"/>
      <path class="a10bb704-f119-4589-843e-5f16e67a4c9e" d="M212.91,150.09c.91.52,6.36-.74,10-3.52a46.4,46.4,0,0,0-1.87-4.44c-.13-.27-.26-.54-.4-.81l-.13.24C217.9,146.14,211.78,149.44,212.91,150.09Z"/>
    </g>
    <polygon class="eb93a285-9bf1-40fc-9a43-cff5a70ebaaa" points="117.64 108.81 145.88 136.92 133.96 161.18 143.82 167.81 138.01 160.31 150.42 135.5 122.45 103.68 117.64 108.81"/>
    <path class="edd06c3e-7ccd-4443-aade-ba63f3d028e4" d="M37.8,90.85a33.85,33.85,0,0,0,8.86,3,32.92,32.92,0,0,0,9.4.52l1.18-.09c.39,0,.77-.13,1.16-.19.78-.15,1.56-.24,2.33-.44a30.77,30.77,0,0,0,4.5-1.48,30.5,30.5,0,0,0,4.26-2.08,17.48,17.48,0,0,0,2-1.29l2-1.36-1.92,1.41a16.27,16.27,0,0,1-2,1.34A34.53,34.53,0,0,1,60.82,94c-.77.22-1.56.34-2.34.51-.4.07-.79.17-1.18.23l-1.2.12a33.82,33.82,0,0,1-9.58-.28,34.74,34.74,0,0,1-9.2-2.88Z"/>
    <path class="edd06c3e-7ccd-4443-aade-ba63f3d028e4" d="M70.19,52.09a124.06,124.06,0,0,0-8.46-17.44A69.47,69.47,0,0,0,50,19.31,29.12,29.12,0,0,0,42,13.87a16.67,16.67,0,0,0-9.42-1.34,20.27,20.27,0,0,0-8.74,4A40.18,40.18,0,0,0,17,23.34a40.29,40.29,0,0,1,6.8-6.95,20.4,20.4,0,0,1,8.78-4.1,16.88,16.88,0,0,1,9.61,1.24,29.39,29.39,0,0,1,8.12,5.41A70,70,0,0,1,62.38,34.27a125,125,0,0,1,8.75,17.47Z"/>
  </g>
</svg>
