<svg id="e5f07dfb-8471-4405-859b-9407d9340d32" data-name="Layer 1" xmlns="http://www.w3.org/2000/svg" width="410" height="510" viewBox="0 0 410 510">
  <defs>
    <style>
      .bc61f3ef-1a30-40d6-b8e6-2492b2027679, .bf7ca83f-d050-4abb-bf59-cc0168421860 {
        fill: #ffe309;
      }

      .aa89e2d8-12eb-4b1f-99dc-2fce1f9090f8, .bf7ca83f-d050-4abb-bf59-cc0168421860 {
        stroke: #665608;
      }

      .aa89e2d8-12eb-4b1f-99dc-2fce1f9090f8, .ab45f24a-4003-412e-a71a-c572087927f2, .bc61f3ef-1a30-40d6-b8e6-2492b2027679, .bf7ca83f-d050-4abb-bf59-cc0168421860 {
        stroke-miterlimit: 10;
      }

      .aa89e2d8-12eb-4b1f-99dc-2fce1f9090f8, .bc61f3ef-1a30-40d6-b8e6-2492b2027679, .bf7ca83f-d050-4abb-bf59-cc0168421860 {
        stroke-width: 0.75px;
      }

      .bc61f3ef-1a30-40d6-b8e6-2492b2027679 {
        stroke: #493c05;
      }

      .a7b311dc-2e37-4057-bbfd-fb70e6e3cccf {
        fill: #ecc516;
      }

      .ab45f24a-4003-412e-a71a-c572087927f2 {
        fill: #532900;
        stroke: #3a1c03;
      }

      .f6698aae-e8fe-4f58-8ed0-69c28911575a {
        fill: #681a1a;
      }

      .ae491a3e-1c22-4264-bcb8-59ca7134a3f9 {
        fill: #ef7089;
      }

      .aacd9d4d-07df-4375-ac79-6534689b68c3 {
        fill: #ff5763;
      }

      .b4e9d52b-4142-4333-b398-5bff6b5e8bf6 {
        fill: #fff;
      }

      .b1c176c6-98c7-45b5-9030-9f499d7805b8 {
        fill: #ef304c;
      }

      .f7d29d11-bdee-4dff-ab92-d0d3dabd6733 {
        fill: #ffa979;
      }

      .aa89e2d8-12eb-4b1f-99dc-2fce1f9090f8 {
        fill: none;
      }
    </style>
  </defs>
  <g>
    <g>
      <g>
        <path class="bf7ca83f-d050-4abb-bf59-cc0168421860" d="M195.15,439.88s8.44,11.34-4.89,19.69-26.12,9.16-21,23.94,12,30.24,26.74,25.14,4.71-24.49,16.24-28.14,30.42-15.93,18-40.61S195.15,439.88,195.15,439.88Z"/>
        <g>
          <path class="bf7ca83f-d050-4abb-bf59-cc0168421860" d="M278.49,310.29s-2,11.22,43.66,45.41c0,0,18.25,14.36,30.8,18.72s29.53,19,30.53,27.72S378.91,420,370,408.89l-4.26-14.82s11.21,12.5-5.07,22.23-7.34-20.3-7.34-20.3l-4.87,17.31s-15.33,2.91-10.21-22c0,0-9.54,3.64-42.46-14.79s-58.22-49-58.22-49Z"/>
          <path class="bc61f3ef-1a30-40d6-b8e6-2492b2027679" d="M337.82,327.58c-1.33,21.33-5.94,39.83-14.38,55.64a102,102,0,0,1-24.66,30.34h0a129.08,129.08,0,0,1-25.38,16.53c-1.7.87-3.44,1.7-5.18,2.46A137.68,137.68,0,0,1,228,443.63c-27.38,3.33-53.15-1.17-72.44-6.31-4.61-1.21-8.85-2.5-12.63-3.67-28.49-8.89-47.63-3.1-47.63-3.1,12-11.35,14.68-29.43,18.27-48.92,3.22-17.77,7.19-36.73,19.79-52.73.64-.83,1.28-1.66,2-2.49a89.76,89.76,0,0,1,14-13.13,121,121,0,0,1,25.15-14.56,6.25,6.25,0,0,1,.72-.31,163.23,163.23,0,0,1,25.65-8.55,129.29,129.29,0,0,1,15.93-3.06c33.81-3.55,40.06-29.39,40.06-29.39l81,43.61A237,237,0,0,1,337.82,327.58Z"/>
          <path class="a7b311dc-2e37-4057-bbfd-fb70e6e3cccf" d="M336.1,324c-14.54,6.21-31.93,8.23-53,8.23-43.54,0-79.23-16.27-82.33-36.94a129,129,0,0,1,21.63-7.89,99.56,99.56,0,0,1,13.43-2.82c28.52-3.29,33.78-27.13,33.78-27.13L338,297.66C338.33,306.25,336.55,316.21,336.1,324Z"/>
          <path class="ab45f24a-4003-412e-a71a-c572087927f2" d="M157,436.33c-4.62-1.21-10.23-1.51-14-2.68-28.49-8.89-47.63-3.1-47.63-3.1,12-11.35,15.77-31.48,19.36-51C116.63,394.15,125.13,420.21,157,436.33Z"/>
          <path class="ab45f24a-4003-412e-a71a-c572087927f2" d="M323.44,383.22a102,102,0,0,1-24.66,30.34h0c-17.21,0-50-5.52-88.59-39.53-23.68-20.92-32.91-49.29-35.6-75.31a163.8,163.8,0,0,1,26.37-8.86c2.38,20.51,11.58,52.59,44,73.05C276.61,383,306,384.7,323.44,383.22Z"/>
          <path class="ab45f24a-4003-412e-a71a-c572087927f2" d="M268.18,432.55A137.68,137.68,0,0,1,228,443.63c-19.89-3-47.66-11-67.71-32.68-24.55-26.4-28.18-56.4-26.93-82.05.64-.83,1.28-1.66,2-2.49a89.76,89.76,0,0,1,14-13.13c.53,20,5.79,53.56,32.72,76.34C214,416.55,253,428.62,268.18,432.55Z"/>
          <g>
            <path class="bf7ca83f-d050-4abb-bf59-cc0168421860" d="M235.54,143.52s-21.37.45-47.62-41.39-4-93.45,20.47-96.57,25.37,17.8,3.56,34.27-19.14,73.43,29.82,97.46C241.77,137.29,269.8,159.54,235.54,143.52Z"/>
            <path class="bf7ca83f-d050-4abb-bf59-cc0168421860" d="M300.51,137.29s-6.23-38.72,1.33-64.53S334.78-10,372.6,2c0,0,11.13,7.57,6.68,17.36s-14.24,12.9-24,7.56S292.5,66.53,309.86,135.07C309.86,135.07,308.52,154.2,300.51,137.29Z"/>
            <g>
              <path class="bf7ca83f-d050-4abb-bf59-cc0168421860" d="M405,260.55c1.13,47.09-38.85,75.12-87.39,86.09,0,0-.11,0-.15,0A225.89,225.89,0,0,1,268.12,352c-67.26,0-102.14-35.37-98.43-103.45,2.76-51.19,31.51-100.66,78.79-116.93a104.18,104.18,0,0,1,34-5.56C349.79,126.07,403.31,190.79,405,260.55Z"/>
              <path class="a7b311dc-2e37-4057-bbfd-fb70e6e3cccf" d="M321.23,344.73A227.81,227.81,0,0,1,271.9,350c-67.26,0-102.14-35-98.43-102.53,2.76-50.71,31.51-99.74,78.8-115.86-20.58,14.66-58.94,50.72-57.46,115.19C196.7,330.56,265.13,352,321.23,344.73Z"/>
              <g>
                <g>
                  <g>
                    <g>
                      <path class="f6698aae-e8fe-4f58-8ed0-69c28911575a" d="M357.92,270.57s0,22.39-10.78,39.23A39.64,39.64,0,0,1,336,321.64c-17.29,11.84-39.53,11-55.15-9.19-.38-.42-.68-.87-1-1.33a77.82,77.82,0,0,1-10-19.18s41,5.56,75.69-13.27A88.24,88.24,0,0,0,357.92,270.57Z"/>
                      <path class="ae491a3e-1c22-4264-bcb8-59ca7134a3f9" d="M357.94,270.53a64.58,64.58,0,0,1-.38,7.53c-.26,2.48-.57,5-1,7.43A81.47,81.47,0,0,1,352.61,300a56.93,56.93,0,0,1-7.14,13.28,38.05,38.05,0,0,1-11.14,10.23,43.06,43.06,0,0,1-14,5.76,37.16,37.16,0,0,1-29.18-5.82,49.92,49.92,0,0,1-11-10.46l0,.06a54.49,54.49,0,0,1-3.44-4.9c-1.05-1.67-2-3.38-3-5.12a87.68,87.68,0,0,1-4.73-10.8l-.47-1.27,1.36.16a140.19,140.19,0,0,0,23,.56,146.71,146.71,0,0,0,22.87-2.9l2.83-.59c.93-.22,1.86-.48,2.79-.72l2.79-.74,1.39-.38,1.37-.45,5.49-1.81,5.37-2.12c.91-.33,1.76-.77,2.63-1.18l2.61-1.25c.87-.42,1.75-.82,2.6-1.26s1.7-.91,2.54-1.39A94.24,94.24,0,0,0,357.94,270.53Zm0,.09a82.2,82.2,0,0,1-9.54,6.51c-.84.49-1.68,1-2.53,1.42s-1.73.87-2.59,1.31l-2.6,1.29c-.86.42-1.72.88-2.63,1.22l-5.36,2.2c-1.82.66-3.66,1.25-5.49,1.88l-1.38.46-1.39.39-2.8.77c-.93.25-1.86.52-2.8.75l-2.84.62a145.44,145.44,0,0,1-23,3.09,141.17,141.17,0,0,1-23.17-.5l.09-.12a86.71,86.71,0,0,0,4.72,10.67,64.76,64.76,0,0,0,6.28,9.8h0a50.2,50.2,0,0,0,10.77,10.27,37.26,37.26,0,0,0,13.63,5.86,36.85,36.85,0,0,0,14.83-.1,43.36,43.36,0,0,0,13.79-5.58,37.32,37.32,0,0,0,11-10,56,56,0,0,0,7.17-13.08,81.32,81.32,0,0,0,4.11-14.37A95.55,95.55,0,0,0,357.9,270.62Z"/>
                    </g>
                    <path class="aacd9d4d-07df-4375-ac79-6534689b68c3" d="M313.8,304.42c16.4-1.81,30.73,7.31,23.12,16.79-2,2.53-6.45,5.15-8,5.46-33.4,6.58-45-8.67-46.38-19.87,3.84-1.88,8.77-1.39,21.11-.64A79.45,79.45,0,0,1,313.8,304.42Z"/>
                    <path class="f6698aae-e8fe-4f58-8ed0-69c28911575a" d="M301.46,303.75s12.84,6.42,15.09,21.52c0,0-6.1-14.78-20.23-20.88Z"/>
                    <path class="b4e9d52b-4142-4333-b398-5bff6b5e8bf6" d="M324.82,308.14a79.56,79.56,0,0,1-20.31,5.2A32.07,32.07,0,0,1,270.85,293l-.09-.23s40.05,6,74.7-12.86C348,289.38,345.32,299.93,324.82,308.14Z"/>
                  </g>
                  <path class="b1c176c6-98c7-45b5-9030-9f499d7805b8" d="M263.65,279.74a15,15,0,0,1,1.09,1.91,13.55,13.55,0,0,1,.75,2.08,11.09,11.09,0,0,1,.28,4.45,7.59,7.59,0,0,1-2,4,8.32,8.32,0,0,1-1.75,1.38,19.86,19.86,0,0,1-2,.91l0-.05a10.7,10.7,0,0,0,3.48-2.5,7.28,7.28,0,0,0,1.84-3.82,11.08,11.08,0,0,0-.16-4.29,16.25,16.25,0,0,0-1.5-4Z"/>
                  <path class="b1c176c6-98c7-45b5-9030-9f499d7805b8" d="M364.83,274.14a10.65,10.65,0,0,1-3.5-1.29,12.77,12.77,0,0,1-2.94-2.35,11.17,11.17,0,0,1-2-3.2,11.37,11.37,0,0,1-.56-1.8,13,13,0,0,1-.23-1.85h.05a14,14,0,0,0,1.09,3.49,11.69,11.69,0,0,0,2,3,14.1,14.1,0,0,0,6.09,3.94Z"/>
                </g>
                <ellipse class="f7d29d11-bdee-4dff-ab92-d0d3dabd6733" cx="235.92" cy="278.76" rx="19.03" ry="13.35"/>
                <ellipse class="f7d29d11-bdee-4dff-ab92-d0d3dabd6733" cx="382.62" cy="242.87" rx="19.03" ry="13.35" transform="translate(-65.32 174.04) rotate(-23.67)"/>
              </g>
            </g>
          </g>
          <path class="bf7ca83f-d050-4abb-bf59-cc0168421860" d="M141.46,409.76c3.38-8.13,14.7-8.87,19.3-1.36,2.64,4.3,4.83,10,3.77,16.44-2.26,13.66-10.2,30.84-27,35.73s-14.77,19.88-14.45,29.5-14.2,18.39-24.88,1.95c0,0-15.29-21.35-3.78-42.73,0,0,3-10.35,27.81-17.73C137.45,427.05,138.37,417.2,141.46,409.76Z"/>
        </g>
      </g>
      <path class="bf7ca83f-d050-4abb-bf59-cc0168421860" d="M215.39,350.32s-12.85,50.1,29.54,55.23c24.93,3,37.53,5.35,44.32,2.57,9.5-3.89,30.62,7.71,32.76,15.42,0,0,5.14,15.41-6.42,11.56,0,0-1.29,23.12-34.69,11.56,0,0-5.32-7.27,6.24-16.58,0,0-102.9,20.76-114.47-65.63C172.67,364.45,187.77,333.94,215.39,350.32Z"/>
      <path class="aa89e2d8-12eb-4b1f-99dc-2fce1f9090f8" d="M294.71,435.74s10.57-6.7-14.8-5.42"/>
    </g>
    <line class="bf7ca83f-d050-4abb-bf59-cc0168421860" x1="315.59" y1="435.1" x2="314.35" y2="425.51"/>
  </g>
</svg>
