<svg id="b2e2806e-b5b0-462c-a6cb-12f3e19498c3" data-name="Layer 1" xmlns="http://www.w3.org/2000/svg" width="150" height="190" viewBox="0 0 150 190">
  <defs>
    <style>
      .bae1528f-932b-4e3f-966f-8eae927a7c7f, .f04afd55-b0cc-4794-b41c-94ab90067570 {
        fill: #ffe309;
      }

      .bc499bcb-f1c2-4661-9329-5e913ca36f6b, .f04afd55-b0cc-4794-b41c-94ab90067570 {
        stroke: #665608;
      }

      .bae1528f-932b-4e3f-966f-8eae927a7c7f, .bc159e61-8ea4-4c48-9781-ef0c866bfda2, .bc499bcb-f1c2-4661-9329-5e913ca36f6b, .f04afd55-b0cc-4794-b41c-94ab90067570 {
        stroke-miterlimit: 10;
      }

      .bae1528f-932b-4e3f-966f-8eae927a7c7f, .bc499bcb-f1c2-4661-9329-5e913ca36f6b, .f04afd55-b0cc-4794-b41c-94ab90067570 {
        stroke-width: 0.75px;
      }

      .ac89472d-8a62-4075-aec5-74e025b3cc7a {
        fill: #bcfde5;
      }

      .a5afaafc-7b91-42ec-ac7d-c713970f103e {
        fill: #ebf7f2;
      }

      .bae1528f-932b-4e3f-966f-8eae927a7c7f {
        stroke: #493c05;
      }

      .bfe8ac89-5f54-4382-869c-591e070bea5e {
        fill: #ecc516;
      }

      .bc159e61-8ea4-4c48-9781-ef0c866bfda2 {
        fill: #532900;
        stroke: #3a1c03;
      }

      .b615143c-3768-4018-911c-778cec6eb041 {
        fill: #fff;
      }

      .b1eef3e3-c0b7-4ad1-87e8-c5c1d08e58e2 {
        fill: #702840;
      }

      .aba81437-719a-4a85-8d0f-1290ad8b9a48 {
        fill: #210a11;
      }

      .f7cdd3b9-4f61-46aa-b2e4-eb10369333a1 {
        fill: #681a1a;
      }

      .aaf834e4-a634-4f6e-b399-b0bd6545cd07 {
        fill: #ef7089;
      }

      .e297fd2d-b8de-49bb-afff-0c2f47f1aa99 {
        fill: #ff5763;
      }

      .a5932330-c5e8-485e-91bd-ed85c9654054 {
        fill: #ef304c;
      }

      .b5a8717c-3b3f-49d4-bc8e-fb3dcbfdd8ea {
        fill: #ffa979;
      }

      .bc499bcb-f1c2-4661-9329-5e913ca36f6b {
        fill: none;
      }
    </style>
  </defs>
  <g>
    <g>
      <g>
        <path class="f04afd55-b0cc-4794-b41c-94ab90067570" d="M78.61,162.72s-3.09,4.16,1.79,7.22,9.57,3.36,7.7,8.77-4.38,11.08-9.79,9.21-1.73-9-6-10.31-11.14-5.84-6.6-14.88S78.61,162.72,78.61,162.72Z"/>
        <g>
          <path class="ac89472d-8a62-4075-aec5-74e025b3cc7a" d="M68.28,110.13c8.2,7.44,27.53-10.22,39.26-23.16s16.59-28.75,8.38-36.19S94.81,53,83.08,65.89,60.07,102.69,68.28,110.13Z"/>
          <path class="a5afaafc-7b91-42ec-ac7d-c713970f103e" d="M68.31,110.09a6.78,6.78,0,0,0,2.39,1.36,7.63,7.63,0,0,0,2.73.35,15.19,15.19,0,0,0,5.36-1.32,45.78,45.78,0,0,0,9.5-5.74,131.36,131.36,0,0,0,16.24-15.22,81.52,81.52,0,0,0,7-8.56,50.52,50.52,0,0,0,5.3-9.63,27.67,27.67,0,0,0,2.27-10.52,15.42,15.42,0,0,0-.22-2.64,9.54,9.54,0,0,0-.31-1.28,5.71,5.71,0,0,0-.4-1.23l-.53-1.19c-.2-.38-.47-.72-.69-1.09l-.36-.54-.44-.47-.88-.94A10.28,10.28,0,0,0,113.21,50a9.22,9.22,0,0,0-2.39-.8,11.75,11.75,0,0,0-5.15.39,30.76,30.76,0,0,0-9.53,5.1,83,83,0,0,0-8.38,7.21A95.12,95.12,0,0,0,80.22,70a81.59,81.59,0,0,0-11.42,19,43.1,43.1,0,0,0-3,10.67,18.3,18.3,0,0,0,.06,5.53A8.58,8.58,0,0,0,68.31,110.09Zm-.07.08a8.79,8.79,0,0,1-2.56-4.89,19,19,0,0,1-.09-5.58,43.2,43.2,0,0,1,3-10.74A83,83,0,0,1,79.79,69.7a93.42,93.42,0,0,1,7.46-8.32A81.69,81.69,0,0,1,95.62,54a31.66,31.66,0,0,1,9.79-5.3,12.66,12.66,0,0,1,5.57-.45,10.44,10.44,0,0,1,2.67.87A11.5,11.5,0,0,1,116,50.69l1,1c.16.17.32.34.47.52l.39.59c.25.39.53.77.75,1.19l.56,1.28a7,7,0,0,1,.43,1.34,13,13,0,0,1,.32,1.37,17.4,17.4,0,0,1,.22,2.79,28.61,28.61,0,0,1-2.41,10.86c-2.89,6.92-7.58,12.89-12.73,18.24a133.52,133.52,0,0,1-16.5,15,46,46,0,0,1-9.58,5.71,15.58,15.58,0,0,1-5.42,1.29,8.09,8.09,0,0,1-2.77-.36A7.34,7.34,0,0,1,68.24,110.17Z"/>
        </g>
        <g>
          <path class="ac89472d-8a62-4075-aec5-74e025b3cc7a" d="M72.29,108.12c0,11.07,26.07,13.53,43.53,13.53s32.45-7,32.45-18.1S132.48,89.37,115,89.37,72.29,97,72.29,108.12Z"/>
          <path class="a5afaafc-7b91-42ec-ac7d-c713970f103e" d="M72.34,108.12a7.07,7.07,0,0,0,.6,2.68,7.89,7.89,0,0,0,1.58,2.25,15.49,15.49,0,0,0,4.57,3.09,45.8,45.8,0,0,0,10.64,3.19,132,132,0,0,0,22.19,1.8,79.8,79.8,0,0,0,11.06-.54A50.47,50.47,0,0,0,133.67,118a27.55,27.55,0,0,0,9.33-5.38,16.4,16.4,0,0,0,1.8-1.93,10,10,0,0,0,.74-1.09,5.75,5.75,0,0,0,.64-1.13l.53-1.19c.14-.4.22-.83.34-1.24l.16-.63,0-.64.11-1.29A10.19,10.19,0,0,0,147,101a9,9,0,0,0-1-2.31,11.77,11.77,0,0,0-3.74-3.55,30.72,30.72,0,0,0-10.18-3.63,82,82,0,0,0-11-1.37A93.31,93.31,0,0,0,110,90a82.13,82.13,0,0,0-21.76,4.31,43.1,43.1,0,0,0-10,4.92A17.93,17.93,0,0,0,74.26,103,8.63,8.63,0,0,0,72.34,108.12Zm-.09,0a8.73,8.73,0,0,1,1.9-5.18,18.23,18.23,0,0,1,4.07-3.82,43.24,43.24,0,0,1,10-5A83.45,83.45,0,0,1,110,89.49a94.6,94.6,0,0,1,11.17-.06,79.69,79.69,0,0,1,11.1,1.23,31.68,31.68,0,0,1,10.51,3.69,12.56,12.56,0,0,1,4.06,3.82,9.73,9.73,0,0,1,1.15,2.57,10.84,10.84,0,0,1,.38,2.78l-.11,1.4c0,.24,0,.47-.07.7l-.17.68c-.13.46-.22.92-.38,1.36l-.58,1.28a6.43,6.43,0,0,1-.7,1.22,11.26,11.26,0,0,1-.8,1.15,16.85,16.85,0,0,1-1.92,2,28.56,28.56,0,0,1-9.67,5.51c-7.06,2.5-14.63,3-22.05,2.82a134.51,134.51,0,0,1-22.22-2.12A46.23,46.23,0,0,1,79,116.29a15.44,15.44,0,0,1-4.6-3.15,8.11,8.11,0,0,1-1.59-2.29A7.15,7.15,0,0,1,72.25,108.12Z"/>
        </g>
        <g>
          <path class="f04afd55-b0cc-4794-b41c-94ab90067570" d="M48.08,115.25s.74,4.12-16,16.64c0,0-6.69,5.26-11.29,6.86S10,145.69,9.62,148.9s1.67,6.55,4.94,2.47l1.56-5.43S12,150.52,18,154.09s2.69-7.44,2.69-7.44L22.45,153s5.62,1.07,3.74-8.06c0,0,3.5,1.34,15.56-5.42s21.32-18,21.32-18Z"/>
          <path class="bae1528f-932b-4e3f-966f-8eae927a7c7f" d="M26.34,121.59c.49,7.81,2.18,14.59,5.27,20.38a37.49,37.49,0,0,0,9,11.12h0a47.51,47.51,0,0,0,9.3,6c.62.32,1.26.62,1.9.9a50.11,50.11,0,0,0,14.7,4.06c10,1.22,19.47-.43,26.54-2.31,1.69-.45,3.24-.92,4.62-1.35,10.44-3.25,17.45-1.13,17.45-1.13-4.41-4.16-5.38-10.78-6.69-17.92-1.18-6.51-2.64-13.46-7.25-19.32-.24-.3-.47-.61-.73-.91a33.2,33.2,0,0,0-5.13-4.81A44.45,44.45,0,0,0,86.15,111l-.26-.11a59.86,59.86,0,0,0-9.4-3.13,47.67,47.67,0,0,0-5.83-1.12C58.27,105.35,56,95.88,56,95.88l-29.67,16A87.51,87.51,0,0,0,26.34,121.59Z"/>
          <path class="bfe8ac89-5f54-4382-869c-591e070bea5e" d="M27,120.26c5.33,2.28,11.7,3,19.4,3,16,0,29-6,30.16-13.53a46.34,46.34,0,0,0-7.92-2.89,36.33,36.33,0,0,0-4.92-1c-10.45-1.2-12.37-9.94-12.37-9.94l-25,14.75C26.16,113.77,26.81,117.42,27,120.26Z"/>
          <path class="bc159e61-8ea4-4c48-9781-ef0c866bfda2" d="M92.59,161.43c1.69-.45,3.75-.56,5.13-1,10.44-3.25,17.45-1.13,17.45-1.13-4.41-4.16-5.77-11.53-7.09-18.67C107.37,146,104.26,155.52,92.59,161.43Z"/>
          <path class="bc159e61-8ea4-4c48-9781-ef0c866bfda2" d="M31.61,142a37.49,37.49,0,0,0,9,11.12h0c6.3,0,18.33-2,32.45-14.49,8.68-7.66,12.06-18,13-27.59a60.08,60.08,0,0,0-9.66-3.24c-.87,7.51-4.24,19.26-16.1,26.76A46.38,46.38,0,0,1,31.61,142Z"/>
          <path class="bc159e61-8ea4-4c48-9781-ef0c866bfda2" d="M51.86,160a50.11,50.11,0,0,0,14.7,4.06c7.29-1.09,17.46-4,24.8-12,9-9.67,10.33-20.66,9.87-30.06-.24-.3-.47-.61-.73-.91a33.2,33.2,0,0,0-5.13-4.81c-.2,7.32-2.12,19.62-12,28C71.71,154.18,57.43,158.6,51.86,160Z"/>
          <g>
            <path class="f04afd55-b0cc-4794-b41c-94ab90067570" d="M63.81,54.16s7.83.17,17.45-15.16,1.47-34.24-7.5-35.38-9.29,6.52-1.31,12.56,7,26.9-10.92,35.7C61.53,51.88,51.26,60,63.81,54.16Z"/>
            <path class="f04afd55-b0cc-4794-b41c-94ab90067570" d="M40,51.88s2.28-14.18-.49-23.64S27.46-2.08,13.6,2.32c0,0-4.07,2.77-2.44,6.36s5.21,4.73,8.8,2.77S43,26,36.59,51.06C36.59,51.06,37.08,58.07,40,51.88Z"/>
            <g>
              <path class="f04afd55-b0cc-4794-b41c-94ab90067570" d="M1.74,97c-.41,17.25,14.23,27.52,32,31.54h.06a82.48,82.48,0,0,0,18.07,2c24.64,0,37.41-13,36.06-37.9-1-18.75-11.55-36.88-28.87-42.83a38,38,0,0,0-12.46-2C22,47.77,2.35,71.48,1.74,97Z"/>
              <path class="bfe8ac89-5f54-4382-869c-591e070bea5e" d="M32.42,127.87a83.14,83.14,0,0,0,18.07,1.94c24.64,0,37.42-12.84,36.06-37.56C85.54,73.67,75,55.71,57.69,49.81A49.37,49.37,0,0,1,78.73,92C78,122.68,53,130.52,32.42,127.87Z"/>
              <g>
                <g>
                  <g>
                    <g>
                      <g>
                        <ellipse class="b615143c-3768-4018-911c-778cec6eb041" cx="53" cy="85.16" rx="13.33" ry="9.83" transform="translate(-36.78 129.88) rotate(-84.58)"/>
                        <path class="b1eef3e3-c0b7-4ad1-87e8-c5c1d08e58e2" d="M51.61,98.36A7.67,7.67,0,0,0,56,97.45a10.58,10.58,0,0,0,3.39-2.92,15.82,15.82,0,0,0,2.94-8.35,16.18,16.18,0,0,0-1.7-8.51c-1.28-2.55-3.6-4.61-6.3-4.88s-5.4,1.15-7.18,3.37a16.5,16.5,0,0,0-2.25,16.75,10.8,10.8,0,0,0,2.69,3.59A7.8,7.8,0,0,0,51.61,98.36Zm0,.1a8,8,0,0,1-4.15-1.83A11.06,11.06,0,0,1,44.66,93a16.66,16.66,0,0,1-1.5-8.94,16.49,16.49,0,0,1,3.28-8.46,10.79,10.79,0,0,1,3.5-2.94,7.54,7.54,0,0,1,8.64,1,11,11,0,0,1,2.79,3.62,16.66,16.66,0,0,1,1.48,9,16.47,16.47,0,0,1-3.3,8.43,10.86,10.86,0,0,1-3.5,2.93A7.81,7.81,0,0,1,51.6,98.46Z"/>
                      </g>
                      <ellipse class="aba81437-719a-4a85-8d0f-1290ad8b9a48" cx="48.55" cy="83.83" rx="6" ry="4.46" transform="translate(-42.24 117.64) rotate(-80.35)"/>
                      <ellipse class="b615143c-3768-4018-911c-778cec6eb041" cx="46.13" cy="81.95" rx="1.65" ry="1.22" transform="translate(-42.4 113.68) rotate(-80.35)"/>
                    </g>
                    <path class="b1eef3e3-c0b7-4ad1-87e8-c5c1d08e58e2" d="M57.51,73.26a10.56,10.56,0,0,0,9.54,2l-5,1.22,3.67,1.1s-2.2,1.35-5.25-.49Z"/>
                  </g>
                  <g>
                    <g>
                      <g>
                        <ellipse class="b615143c-3768-4018-911c-778cec6eb041" cx="26.35" cy="80.04" rx="12.13" ry="8.94" transform="matrix(0.31, -0.95, 0.95, 0.31, -57.92, 80.22)"/>
                        <path class="b1eef3e3-c0b7-4ad1-87e8-c5c1d08e58e2" d="M22.48,91.48a7.07,7.07,0,0,0,4.05.06,9.64,9.64,0,0,0,3.58-1.92,14.34,14.34,0,0,0,4.24-6.83,14.56,14.56,0,0,0,.16-7.85,7.54,7.54,0,0,0-4.57-5.53,7.38,7.38,0,0,0-7,1.53A15,15,0,0,0,17.6,85.3,9.72,9.72,0,0,0,19.26,89,7.1,7.1,0,0,0,22.48,91.48Zm0,.1a7.31,7.31,0,0,1-3.31-2.46,10,10,0,0,1-1.76-3.77,15.17,15.17,0,0,1,.45-8.23,15,15,0,0,1,4.61-6.85,9.73,9.73,0,0,1,3.69-1.92A6.9,6.9,0,0,1,33.6,71a9.83,9.83,0,0,1,1.75,3.78A15.53,15.53,0,0,1,30.26,89.8a9.84,9.84,0,0,1-3.69,1.9A7.26,7.26,0,0,1,22.44,91.58Z"/>
                      </g>
                      <ellipse class="aba81437-719a-4a85-8d0f-1290ad8b9a48" cx="21.96" cy="79.03" rx="5.46" ry="4.05" transform="translate(-59.49 69.31) rotate(-67.66)"/>
                      <ellipse class="b615143c-3768-4018-911c-778cec6eb041" cx="20.3" cy="76.32" rx="1.5" ry="1.11" transform="translate(-58.01 66.1) rotate(-67.66)"/>
                    </g>
                    <path class="b1eef3e3-c0b7-4ad1-87e8-c5c1d08e58e2" d="M25.28,68.76a13,13,0,0,1-10.92.6l5.46,1.92-4.24.58s2.29,1.64,5.94.25Z"/>
                  </g>
                  <path class="aba81437-719a-4a85-8d0f-1290ad8b9a48" d="M33.65,63.17s-4-.86-10,2.32C23.63,65.49,33.65,55.83,33.65,63.17Z"/>
                  <path class="aba81437-719a-4a85-8d0f-1290ad8b9a48" d="M50.26,63.8s4.51.49,9.92,5.48C60.18,69.28,52.41,56.79,50.26,63.8Z"/>
                </g>
                <g>
                  <g>
                    <g>
                      <path class="f7cdd3b9-4f61-46aa-b2e4-eb10369333a1" d="M19,100.7s0,8.21,3.95,14.37A14.31,14.31,0,0,0,27,119.41c6.33,4.34,14.48,4,20.2-3.37.14-.15.25-.31.38-.48a28.87,28.87,0,0,0,3.66-7s-15,2-27.73-4.86A32.54,32.54,0,0,1,19,100.7Z"/>
                      <path class="aaf834e4-a634-4f6e-b399-b0bd6545cd07" d="M19,100.75a33.69,33.69,0,0,0,2.53,10.5,15.83,15.83,0,0,0,6.6,8A16.07,16.07,0,0,0,33,121.15a12.44,12.44,0,0,0,5.12,0,14.69,14.69,0,0,0,8.42-5.65l0-.06a17.47,17.47,0,0,0,1.15-1.62,19.79,19.79,0,0,0,1-1.78,30.71,30.71,0,0,0,1.71-3.79l.9,1.11a53.13,53.13,0,0,1-8.64.13,51.81,51.81,0,0,1-8.5-1.31,38.52,38.52,0,0,1-8.1-2.83c-.65-.29-1.26-.67-1.9-1s-1.25-.69-1.84-1.08A25.71,25.71,0,0,1,19,100.75Zm0-.09A42.43,42.43,0,0,0,22.52,103c.61.36,1.24.69,1.87,1s1.26.65,1.92.91a42.25,42.25,0,0,0,8.06,2.57,52.94,52.94,0,0,0,8.41,1.12,51.94,51.94,0,0,0,8.46-.19l.15,0,0,.13a31.24,31.24,0,0,1-1.73,3.93,24.12,24.12,0,0,1-2.31,3.62h0a15.48,15.48,0,0,1-9,6,14.61,14.61,0,0,1-10.56-2.11,16.5,16.5,0,0,1-6.69-8.5,30,30,0,0,1-1.5-5.28c-.18-.9-.31-1.8-.41-2.71A19.39,19.39,0,0,1,19,100.66Z"/>
                    </g>
                    <path class="e297fd2d-b8de-49bb-afff-0c2f47f1aa99" d="M35.14,113.1c-6-.66-11,7.62-8.17,11.1.74.92.13,1.47.71,1.58,12.23,2.42,18.41-7.7,18.93-11.81-1.41-.68-3.22-.5-7.74-.23A28.94,28.94,0,0,0,35.14,113.1Z"/>
                    <path class="f7cdd3b9-4f61-46aa-b2e4-eb10369333a1" d="M39.67,112.86a11.09,11.09,0,0,0-5.53,7.88s2.23-5.41,7.41-7.65Z"/>
                    <path class="b615143c-3768-4018-911c-778cec6eb041" d="M31.11,114.47a29.32,29.32,0,0,0,7.44,1.9,11.73,11.73,0,0,0,12.33-7.45l0-.08S36.24,111,23.55,104.13C22.6,107.59,23.6,111.46,31.11,114.47Z"/>
                  </g>
                  <path class="a5932330-c5e8-485e-91bd-ed85c9654054" d="M53.54,104.08c-.09.54-.18,1-.23,1.55a4.8,4.8,0,0,0,0,1.42,2.68,2.68,0,0,0,.51,1.25,6.63,6.63,0,0,0,1,1.13l0,0a4.07,4.07,0,0,1-1.3-.91,2.74,2.74,0,0,1-.71-1.42,5,5,0,0,1,.65-3.08Z"/>
                  <path class="a5932330-c5e8-485e-91bd-ed85c9654054" d="M16.44,102c.37-.3.71-.56,1-.85a5.58,5.58,0,0,0,.88-.87,4.84,4.84,0,0,0,.77-1c.24-.34.42-.73.68-1.14h.05a4.7,4.7,0,0,1-1.12,2.43A5.21,5.21,0,0,1,16.45,102Z"/>
                </g>
                <ellipse class="b5a8717c-3b3f-49d4-bc8e-fb3dcbfdd8ea" cx="63.67" cy="103.7" rx="6.97" ry="4.89"/>
                <ellipse class="b5a8717c-3b3f-49d4-bc8e-fb3dcbfdd8ea" cx="9.93" cy="90.56" rx="4.89" ry="6.97" transform="translate(-76.99 63.3) rotate(-66.33)"/>
              </g>
            </g>
          </g>
          <path class="f04afd55-b0cc-4794-b41c-94ab90067570" d="M98.28,151.69a4,4,0,0,0-7.07-.5,8.83,8.83,0,0,0-1.39,6c.83,5,3.74,11.3,9.88,13.09s5.41,7.28,5.29,10.8,5.21,6.74,9.12.72c0,0,5.6-7.82,1.38-15.66,0,0-1.09-3.79-10.18-6.49C99.75,158,99.41,154.42,98.28,151.69Z"/>
        </g>
      </g>
      <path class="f04afd55-b0cc-4794-b41c-94ab90067570" d="M71.19,129.92s4.71,18.35-10.82,20.23c-9.13,1.11-13.75,2-16.23.94-3.48-1.42-11.22,2.83-12,5.65,0,0-1.89,5.65,2.35,4.24,0,0,.47,8.47,12.7,4.23,0,0,2-2.66-2.28-6.07,0,0,37.7,7.6,41.93-24C86.84,135.09,81.31,123.92,71.19,129.92Z"/>
      <path class="bc499bcb-f1c2-4661-9329-5e913ca36f6b" d="M42.14,161.21s-3.88-2.46,5.42-2"/>
    </g>
    <line class="f04afd55-b0cc-4794-b41c-94ab90067570" x1="34.49" y1="160.98" x2="34.94" y2="157.46"/>
  </g>
</svg>
