<svg id="b306c155-29da-4f3f-9ec4-fc96a9b2ad45" data-name="Layer 1" xmlns="http://www.w3.org/2000/svg" width="179" height="223" viewBox="0 0 179 223">
  <defs>
    <style>
      .ab47258e-9c2a-43ae-9216-4285196d41c0 {
        fill: #747474;
      }

      .f0a69150-c521-42a1-9c57-df8c7d02ed26 {
        fill: #3a3a3a;
      }

      .f9744a8f-c6d1-45e5-b39f-851888159740 {
        fill: #2d2d2d;
      }

      .b5a3f31b-f70c-43fb-a79a-e7e2865bdde4 {
        fill: #474546;
      }

      .b6c22397-0188-43fa-8666-55eed539e006 {
        fill: #5e5e5e;
      }
    </style>
  </defs>
  <g>
    <path class="ab47258e-9c2a-43ae-9216-4285196d41c0" d="M21.66,10S61.53-2.42,121.94,154.7l-5,4.8S56,22.12,14.15,36.63C14.15,36.63,9.79,14.15,21.66,10Z"/>
    <g>
      <path class="f0a69150-c521-42a1-9c57-df8c7d02ed26" d="M123.9,149.9s-4.31-1.38-6,.81c0,0-5.78,1.85-3.13,7.67,0,0,3.09,10.49,2.68,12.59,0,0-.38,2.35-3.78,3.07,0,0-7.07,2.56-7.42,13.9,0,0,.87-3.39,17.49-5.69,0,0,10.42.19,10.07-14.27A18.62,18.62,0,0,0,123.9,149.9Z"/>
      <path class="f9744a8f-c6d1-45e5-b39f-851888159740" d="M120.14,149.54c-6.66.68-6,6.4-6,6.4.34,2.26,3,11.51,3,11.51,2,5.52-4,6.86-4,6.86-7.93,4.68-6.84,13.63-6.84,13.63,3-10.84,11.57-14.14,11.57-14.14,5.32-2.94-1.33-16.75-1.33-16.75,1.81-10.55,11.92-3.28,11.92-3.28l1.34.91S124.88,148.21,120.14,149.54Z"/>
      <path class="b5a3f31b-f70c-43fb-a79a-e7e2865bdde4" d="M133.07,160.87s-.55,17.5-12.69,21.9c0,0,12.32.37,13.23-10.66C133.61,172.11,134.85,164.93,133.07,160.87Z"/>
    </g>
    <path class="b6c22397-0188-43fa-8666-55eed539e006" d="M17,13.38S43.56-8,113.39,133.23c0,0-47.71-119.08-88.16-123.21C25.23,10,21,8.61,17,13.38Z"/>
  </g>
</svg>
