<svg id="aa41a2b9-40e7-445d-863f-2fd2da014900" data-name="Layer 1" xmlns="http://www.w3.org/2000/svg" width="118" height="100" viewBox="0 0 118 100">
  <defs>
    <style>
      .b8cff3a4-ecdc-48dc-9209-867665c06fcf {
        fill: #bcfde5;
      }

      .fbb6adf9-6151-43f2-9881-27ebdbdc11c5 {
        fill: #ebf7f2;
      }
    </style>
  </defs>
  <g>
    <g>
      <path class="b8cff3a4-ecdc-48dc-9209-867665c06fcf" d="M22.29,71c5.47,9.61,29.28-1.12,44.42-9.74s24.67-22.09,19.21-31.7S65.23,25,50.08,33.62,16.83,61.35,22.29,71Z"/>
      <path class="fbb6adf9-6151-43f2-9881-27ebdbdc11c5" d="M22.34,70.93a6.74,6.74,0,0,0,1.84,2,7.77,7.77,0,0,0,2.48,1.18,15.59,15.59,0,0,0,5.49.42,45.58,45.58,0,0,0,10.79-2.49,131,131,0,0,0,20.13-9.38,79.61,79.61,0,0,0,9.33-5.93,50.3,50.3,0,0,0,8-7.48A27.4,27.4,0,0,0,85.84,40a16.3,16.3,0,0,0,.62-2.57,11.38,11.38,0,0,0,.1-1.3,5.65,5.65,0,0,0,0-1.3l-.13-1.29c-.07-.42-.22-.83-.32-1.24l-.17-.63-.27-.58-.55-1.17a9.72,9.72,0,0,0-1.52-2,9.36,9.36,0,0,0-2-1.5,11.56,11.56,0,0,0-5-1.23A30.47,30.47,0,0,0,66,27.05a81.11,81.11,0,0,0-10.19,4.23,93.06,93.06,0,0,0-9.67,5.38A82,82,0,0,0,29.34,51.13a43,43,0,0,0-6.19,9.17,18.13,18.13,0,0,0-1.67,5.26A8.6,8.6,0,0,0,22.34,70.93Zm-.09,0a8.75,8.75,0,0,1-.91-5.43A18.78,18.78,0,0,1,23,60.23,43.5,43.5,0,0,1,29.16,51,83.26,83.26,0,0,1,45.79,36.2a96.14,96.14,0,0,1,9.65-5.56,81.22,81.22,0,0,1,10.24-4.41,31.4,31.4,0,0,1,10.93-2A12.54,12.54,0,0,1,82,25.56a9.7,9.7,0,0,1,2.27,1.65A11.15,11.15,0,0,1,86,29.44l.59,1.27c.1.21.2.43.29.64l.18.68c.11.45.26.9.34,1.36l.14,1.4a7.28,7.28,0,0,1,0,1.4,12.81,12.81,0,0,1-.12,1.39,16.88,16.88,0,0,1-.67,2.72,28.48,28.48,0,0,1-5.66,9.55c-4.89,5.65-11.19,9.86-17.74,13.32A134,134,0,0,1,43,72.3a46,46,0,0,1-10.86,2.43,15.44,15.44,0,0,1-5.54-.47,8,8,0,0,1-2.51-1.2A7,7,0,0,1,22.25,71Z"/>
    </g>
    <g>
      <path class="b8cff3a4-ecdc-48dc-9209-867665c06fcf" d="M27.77,70.82C32.09,81,57,73.09,73,66.28S100.08,47.18,95.76,37s-20-6.87-36.07-.06S23.45,60.65,27.77,70.82Z"/>
      <path class="fbb6adf9-6151-43f2-9881-27ebdbdc11c5" d="M27.82,70.8A6.79,6.79,0,0,0,29.41,73a8,8,0,0,0,2.33,1.46,15.52,15.52,0,0,0,5.4,1.05,45.89,45.89,0,0,0,11-1.22,130.25,130.25,0,0,0,21.08-7,78,78,0,0,0,10-4.81A50.51,50.51,0,0,0,88,56a27.57,27.57,0,0,0,6.46-8.58A16,16,0,0,0,95.38,45a11.56,11.56,0,0,0,.25-1.28,5.68,5.68,0,0,0,.15-1.29l0-1.3c0-.43-.12-.85-.17-1.27l-.1-.64-.2-.61-.41-1.22a10,10,0,0,0-1.28-2.19,8.85,8.85,0,0,0-1.84-1.72A11.63,11.63,0,0,0,87,31.62a30.93,30.93,0,0,0-10.77.63,83.55,83.55,0,0,0-10.61,3,91.33,91.33,0,0,0-10.23,4.23,81.4,81.4,0,0,0-18.3,12.43,42.83,42.83,0,0,0-7.22,8.4,18.38,18.38,0,0,0-2.27,5A8.63,8.63,0,0,0,27.82,70.8Zm-.1,0a8.78,8.78,0,0,1-.27-5.5,18.42,18.42,0,0,1,2.26-5.09,42.91,42.91,0,0,1,7.2-8.48A82.61,82.61,0,0,1,55.12,39a93.45,93.45,0,0,1,10.24-4.41A81.27,81.27,0,0,1,76,31.41a31.67,31.67,0,0,1,11.1-.71,12.75,12.75,0,0,1,5.22,1.93,10.05,10.05,0,0,1,2.06,1.9,11.52,11.52,0,0,1,1.43,2.41l.44,1.34c.07.22.15.44.21.67l.11.69c.05.46.15.93.18,1.39l0,1.4a7.14,7.14,0,0,1-.17,1.39,12.31,12.31,0,0,1-.28,1.37,17.29,17.29,0,0,1-1,2.63,28.46,28.46,0,0,1-6.73,8.83c-5.51,5.05-12.25,8.5-19.15,11.18A134,134,0,0,1,48.2,74.55a45.78,45.78,0,0,1-11.07,1.16,15.67,15.67,0,0,1-5.45-1.1,8.15,8.15,0,0,1-2.35-1.49A7.32,7.32,0,0,1,27.72,70.84Z"/>
    </g>
  </g>
</svg>
