<svg xmlns="http://www.w3.org/2000/svg" xmlns:xlink="http://www.w3.org/1999/xlink" width="310" height="320" viewBox="0 0 310 320">
  <defs>
    <style>
      .cls-1 {
        isolation: isolate;
      }

      .cls-2 {
        opacity: 0.2;
      }

      .cls-3 {
        fill: #e39424;
      }

      .cls-4 {
        fill: #e89f34;
      }

      .cls-5 {
        fill: #e8bf34;
      }

      .cls-6 {
        fill: #bf881b;
      }

      .cls-7 {
        fill: #a06918;
      }

      .cls-8 {
        fill: #fff;
      }

      .cls-9 {
        fill: #f69d35;
      }

      .cls-10, .cls-28 {
        fill: #d77c4f;
      }

      .cls-11 {
        fill: #f37a21;
      }

      .cls-12 {
        fill: #aa070f;
      }

      .cls-13 {
        fill: #7c0914;
      }

      .cls-14 {
        fill: #870613;
      }

      .cls-15 {
        opacity: 0.7;
      }

      .cls-16 {
        fill: #c60307;
      }

      .cls-17 {
        fill: #592d19;
      }

      .cls-18 {
        opacity: 0.5;
        fill: url(#radial-gradient);
      }

      .cls-18, .cls-25 {
        mix-blend-mode: screen;
      }

      .cls-19 {
        fill: #ffca58;
        stroke: #7f5711;
      }

      .cls-19, .cls-24, .cls-29, .cls-30 {
        stroke-miterlimit: 10;
      }

      .cls-20, .cls-25, .cls-28 {
        opacity: 0.6;
      }

      .cls-20 {
        mix-blend-mode: multiply;
      }

      .cls-21 {
        fill: #d6a138;
      }

      .cls-22 {
        fill: url(#radial-gradient-2);
      }

      .cls-23 {
        fill: #5d2e15;
      }

      .cls-24 {
        fill: #e2142b;
        stroke: #543605;
      }

      .cls-25 {
        fill: #ffdfd0;
      }

      .cls-26 {
        opacity: 0.4;
      }

      .cls-27 {
        fill: url(#radial-gradient-3);
      }

      .cls-29, .cls-31 {
        fill: #c68318;
      }

      .cls-29, .cls-30 {
        stroke: #ad6e09;
      }

      .cls-30 {
        fill: #fcb122;
      }

      .cls-32 {
        fill: #ede7d1;
      }

      .cls-33, .cls-34 {
        fill: #b95c31;
      }

      .cls-33 {
        opacity: 0.3;
      }

      .cls-35 {
        fill: #fff595;
        opacity: 0.1;
      }

      .cls-36 {
        fill: #efd13f;
      }
    </style>
    <radialGradient id="radial-gradient" cx="-285.25" cy="-54.19" r="33.04" gradientTransform="translate(334.23 214.88) rotate(-4.69)" gradientUnits="userSpaceOnUse">
      <stop offset="0.61" stop-color="#9f511a"/>
      <stop offset="0.63" stop-color="#964d19"/>
      <stop offset="0.99"/>
    </radialGradient>
    <radialGradient id="radial-gradient-2" cx="-136.59" cy="-100.92" r="0.24" gradientTransform="translate(334.23 214.88) rotate(-4.69)" gradientUnits="userSpaceOnUse">
      <stop offset="0.1" stop-color="#f6a142"/>
      <stop offset="0.21" stop-color="#f39a41"/>
      <stop offset="0.38" stop-color="#ec863c"/>
      <stop offset="0.58" stop-color="#e06536"/>
      <stop offset="0.8" stop-color="#cf382d"/>
      <stop offset="0.88" stop-color="#c82629"/>
    </radialGradient>
    <radialGradient id="radial-gradient-3" cx="-191.32" cy="-216.25" fx="-206.29574209556543" r="28.15" gradientTransform="translate(334.23 214.88) rotate(-4.69)" gradientUnits="userSpaceOnUse">
      <stop offset="0.12" stop-color="#e68a69"/>
      <stop offset="0.12" stop-color="#e68a69"/>
      <stop offset="0.17" stop-color="#e67e61"/>
      <stop offset="0.51" stop-color="#e52629"/>
      <stop offset="0.61" stop-color="#dd2629"/>
      <stop offset="0.76" stop-color="#c8272a"/>
      <stop offset="0.84" stop-color="#ba272a"/>
    </radialGradient>
  </defs>
  <g class="cls-1">
    <g id="Layer_1" data-name="Layer 1">
      <g>
        <ellipse class="cls-2" cx="154" cy="248.5" rx="149.23" ry="68.75"/>
        <g>
          <g>
            <path class="cls-3" d="M286.74,239.92c-3.81-2.29-8.05-3.56-12.24-4.82a67.19,67.19,0,0,1,30.73,7.78c-5.33-9.88-15.3-16.56-25.76-17.29a41.23,41.23,0,0,1,17.46,3.22c-5.12-9.12-14.71-15-24.49-15.1a116.4,116.4,0,0,1,20.68-1.22,50.68,50.68,0,0,0-36.74-5.16,2.37,2.37,0,0,1,1.38-1.09c1.62-.48,3.35-.85,5-1.34l-.38,0c-3,.63-6.13,1-9.2,1.66l-.27,0c-.17,0-1,.17-1.2.2-2.33.34-195.44,4.66-199,1.75s-8.2-3.54-12.61-3.32-8.79,1.19-13.2,1.07a24.65,24.65,0,0,1,10.86,3.56A25.45,25.45,0,0,0,20,216l13.92-1a41.61,41.61,0,0,0-21.5,17.86,17.63,17.63,0,0,1,11.17-5.67,27.13,27.13,0,0,0-7.19,15c.17-.2.36-.37.54-.56a35,35,0,0,0-2.79,13l7.19-8.29A26.71,26.71,0,0,0,17.38,265q3.75-7,7.49-14.07a74.52,74.52,0,0,0,.39,22.9L31,258.48a30.26,30.26,0,0,0,.8,18,36.12,36.12,0,0,1,5.29-17.2,17.68,17.68,0,0,0,.77,17L47,263A20.1,20.1,0,0,0,50.74,282a17.19,17.19,0,0,1,3.67-10.05c-3.31,6-2.12,14.48,2.69,19.1a17,17,0,0,1,2.74-12.58A20.31,20.31,0,0,0,61,291.88l5.38-8.24c-1.67,4.64.79,10.54,5.09,12.19l2.35-9.68c-.46,5.45,2.87,11,7.62,12.74L81.32,290a25,25,0,0,0,11.82,16.54,28.44,28.44,0,0,0-2.93-15.28A33.27,33.27,0,0,0,108.88,306q-1.83-6-3.65-12a37.67,37.67,0,0,0,16.51,16.48l-7.11-17.14a38.24,38.24,0,0,0,17.73,15.8l-5.87-16.54a26.45,26.45,0,0,0,15.07,12.83q-1.17-6.71-2.33-13.42a62.55,62.55,0,0,0,14,15.32l-2.43-12.07a20.87,20.87,0,0,0,12.78,11.43L160,290.74a21.6,21.6,0,0,0,9.62,10.14q.87-6.06,1.75-12.13l7.59,14a25.37,25.37,0,0,1,7-11.49v10.86a30.33,30.33,0,0,0,11-11.52L195,300.82a31.91,31.91,0,0,0,16-12.07q-.78,4.94-1.57,9.87l19.94-14.69q-1.26,6.87-2.51,13.72A19.5,19.5,0,0,0,236.81,283a12.76,12.76,0,0,0,5.11,10.17,26.66,26.66,0,0,0,4.68-14.55,13.25,13.25,0,0,1,7.07,9.45l2.86-12.75,4.26,9.3c4.88-2.76,6.8-10.28,4.12-15.48a37.65,37.65,0,0,1,12.31,12.65c1.21-7.21-3.87-13.69-8.57-18.92a74,74,0,0,1,16.7,13.45c-.52-9.83-6-19.16-14-23.72a63.71,63.71,0,0,1,20.21,11.59,27.66,27.66,0,0,0-12.12-18.78,48,48,0,0,1,16.05,4.66A19.74,19.74,0,0,0,286.74,239.92Z"/>
            <path class="cls-4" d="M274.38,235.59a27.9,27.9,0,0,1,18.34-7.06,27.71,27.71,0,0,0-22.3-6.36,13.22,13.22,0,0,0,10.28-7.66L262,214.27c3.24-2.4,5-9.24,5.6-11.76a32.85,32.85,0,0,0-8.05-2.29c-2.83-.45-7.88,2.78-9.86,5.51,1.55-2.81-1.48-8.37-2.26-11.9l-.46-.16c-3.72,2.11-6.06,6.3-8.18,10.29l.15-10.05a20.29,20.29,0,0,0-21.57,4.18l6.33-5.75a26.68,26.68,0,0,0-24.93,5.76q4.67-6.43,9.34-12.85a58.76,58.76,0,0,0-27,16.62,56.28,56.28,0,0,0,6.4-19.18,53.27,53.27,0,0,0-21.65,20.39q3.2-12.22,6.37-24.45c-7.5,3.92-12.59,12.84-12.5,21.94q-.14-7.6-.29-15.2c0-1.58-.34-3.57-1.73-4-1.62-.46-2.77,1.66-3.31,3.39q-2.46,7.89-4.91,15.78a32.27,32.27,0,0,0-11.67-23.66l2.75,18.61a26.84,26.84,0,0,0-15.26-16.44q3.5,8.37,7,16.76l-19.19-14.71,10,19.23a65.46,65.46,0,0,0-27.74-17.13,28.55,28.55,0,0,1,14,13.63A108.74,108.74,0,0,0,82,184.94a38.65,38.65,0,0,1,15.07,17.78A94.84,94.84,0,0,0,75,186.48a56.64,56.64,0,0,1,8.25,19.94,103.69,103.69,0,0,0-19.32-20.54c4.25,6.28,6.35,2.08,7.91,9.71-4-5.36-8.4,2-14.35-.35q1.08,2.79,2.15,5.57a20.91,20.91,0,0,0-23.8,4.62l18.62,4.4a22.11,22.11,0,0,0-20.51,4.61,36.88,36.88,0,0,1,17.53,2.88c-11.23-1.77-23,7.35-25.16,19.52l12.86-7.79c-6.4,4.52-10.47,12.75-10.42,21.09l8.6-9a30.48,30.48,0,0,0-5.58,22.56,18.75,18.75,0,0,1,13.89-11.12c-5.45,1.49-9.81,6.93-10.45,13a27.39,27.39,0,0,1,24-5.52c-4.74,1.62-8.39,6.5-8.93,11.9l16.42-8.33c-5.51,3.22-8.9,10.31-8.17,17.09L69.62,270a12.86,12.86,0,0,0-.29,14.19l12.4-12.4a34.62,34.62,0,0,0-1.17,16.67q5.3-8,10.57-15.91a27.8,27.8,0,0,0-.79,16.2l6.93-14.09a21.82,21.82,0,0,0,2.2,14.13,24.1,24.1,0,0,0,4.53-9.18,16.73,16.73,0,0,0,3.6,11.54,35.24,35.24,0,0,1,4.66-15.31,17.19,17.19,0,0,0,4.1,13.4,18.94,18.94,0,0,0,5.83-10.84,26.07,26.07,0,0,0,2.92,13.4q2.33-6.37,4.67-12.76a27,27,0,0,0,7.58,15.32V281c.93,6,5,11.36,10.28,13.41q.44-8.25.86-16.49l9.09,15.22a13.83,13.83,0,0,0,2.82-7.58,10.44,10.44,0,0,0,2,3.75,17.51,17.51,0,0,0,8-9.53q1.47,6.06,3,12.11a31.41,31.41,0,0,0,8.31-13.44q2.37,7.06,4.75,14.15a19.91,19.91,0,0,0,6.14-13.53,16.34,16.34,0,0,0,5.94,11.64,27.07,27.07,0,0,0,3.36-14l9.42,14.73a14.76,14.76,0,0,0,3-13l3.07,9.39c4.63-1.51,7.82-6.71,8-11.93.42,2.76.83,5.51,1.25,8.27l4.08-12.12a33.42,33.42,0,0,1-.54,14.79c5.77-2.61,9.81-9.24,9.8-16.07q.06,6.75.14,13.5a21.17,21.17,0,0,0,8.08-15.42q.41,6.52.82,13a20.44,20.44,0,0,0,6.14-17.49l6.6,10.93a16.73,16.73,0,0,0,2.24-15l11.18,5.11A14.44,14.44,0,0,0,271,254.21l13,.44-8.18-10.38,15.9-1A24.33,24.33,0,0,0,274.38,235.59Z"/>
            <path class="cls-5" d="M156.58,265.39l-2.67,12.22a22.17,22.17,0,0,1-5.68-11.79q-2.88,5.87-5.77,11.71a21,21,0,0,1-3-11l-3.21,13.33A26.21,26.21,0,0,1,129,267.06l-2.52,10.54a16.9,16.9,0,0,1-2.58-11.08,17.26,17.26,0,0,0-3.2,12.12,12.71,12.71,0,0,1-3.82-14.37,25.76,25.76,0,0,0-3.71,13.88,22.35,22.35,0,0,1-5.41-16.64l-8,11.67a25.67,25.67,0,0,1-.55-12.79l-6,16.8c-5.18-2.85-7.72-10-5.58-15.64a8.83,8.83,0,0,0-3.14,7c-2.91-2.5-2.74-7.89.31-10.18a32,32,0,0,0-11.26,12.1c-3.13-4.49-2-11.56,2.4-14.74A22.35,22.35,0,0,0,65.49,269.8a15.92,15.92,0,0,1,1.72-16.3,23.4,23.4,0,0,0-10.86,11.85,16.48,16.48,0,0,1,4.48-16.94l-8.33,8.38a10,10,0,0,1,4.74-11.57,21.76,21.76,0,0,0-13.3,11.17,13.63,13.63,0,0,1,5.21-15.7l-11.82,8.37a19.1,19.1,0,0,1,8.76-17l-11.27,2.77a16.74,16.74,0,0,1,14.48-10l-9.44-.26a26.61,26.61,0,0,1,17-9.56l-15.11-1.35a21.28,21.28,0,0,1,17.76-5.42l-8-6.13a20.92,20.92,0,0,1,19.93,7.1,21,21,0,0,0-3.31-13.82,20.16,20.16,0,0,1,14.64,9.44q-.51-6.18-1-12.36a15.4,15.4,0,0,1,9.53,10.14,16,16,0,0,1,4.14-12.86,24.07,24.07,0,0,1,5.56,14,23.61,23.61,0,0,1,5.67-18.44q.08,7.56.16,15.13a15.18,15.18,0,0,1,8.53-12.24q1.08,6.67,2.15,13.34a30.9,30.9,0,0,1,7.51-16.67q.27,7.5.52,15a19.29,19.29,0,0,1,9.68-13.88l-1.59,13.89a18.35,18.35,0,0,1,9.64-15q0,5.55,0,11.1a13.39,13.39,0,0,1,8.6-13.33l.54,12.77a13.88,13.88,0,0,1,9.11-10.57l0,15a15.2,15.2,0,0,1,11.78-11.7q-1,5-2.05,10a14.94,14.94,0,0,1,10.34-11.88q-1.33,5.9-2.65,11.8A14.13,14.13,0,0,1,192,188.7a25.62,25.62,0,0,0-4.86,11.05,26.42,26.42,0,0,1,18.81-8.29l-5.84,10a21,21,0,0,1,16.07-8.12c.19,1.06.38,2.11.58,3.16a7.47,7.47,0,0,0-5.34,7.32,19.13,19.13,0,0,1,18.78-3.8,12.61,12.61,0,0,0-7.66,6.39,29.26,29.26,0,0,1,19.9-5.11l-7.5,7.93a19.28,19.28,0,0,1,19.49.24,13.22,13.22,0,0,0-10.94,6.41,26.84,26.84,0,0,1,21-1.24,23.42,23.42,0,0,0-12.9,5.69A24,24,0,0,1,277.28,222a42.81,42.81,0,0,0-22.46,4.71c7.14-2.32,15.52,4.24,15.33,12A26.19,26.19,0,0,0,256.88,234a18.73,18.73,0,0,1,16.43,12.38,52.33,52.33,0,0,0-21.25-3.05,12.84,12.84,0,0,1,11.59,10.34,36.63,36.63,0,0,0-14.83-5.94,16.23,16.23,0,0,1,11.76,13.5,44.41,44.41,0,0,0-18.69-8.75c6.86,2.18,11.24,10.57,9.23,17.7A45.48,45.48,0,0,0,231.29,256a15,15,0,0,1,6.34,16.59,48.24,48.24,0,0,0-14.3-15.46q1.46,7,2.92,14.1L217,260A21.76,21.76,0,0,1,217.3,276a25.53,25.53,0,0,0-6.78-13.78c3,4.66,1.32,11.87-3.45,14.55a48.35,48.35,0,0,0-6.29-16.47q.67,7.69,1.36,15.39a16.93,16.93,0,0,1-8.2-10.9l.54,16.1L188,264.72l-3.09,15.19-6.64-16.61a27.62,27.62,0,0,1-1.43,20.63,43.58,43.58,0,0,0-3.57-18.54A18.31,18.31,0,0,1,167.84,281l-4.29-12.22.54,13.34-8.58-20.57Z"/>
            <path class="cls-6" d="M250.13,230.5c-1.36,24-43.48,27.77-96.83,27.31s-96.51-13.43-96.38-29,43.48-27.77,96.83-27.31S251,215,250.13,230.5Z"/>
            <path class="cls-7" d="M149,228.29c-5.51,0-10.78-2.4-16.11-4-19.94-6.1-41.09-1.83-61.37,1.66a9.15,9.15,0,0,0-6.91,5.81c-2.76,7.11,3.47,12.2,9,14.08a42.27,42.27,0,0,0,32.13-2.12,13.31,13.31,0,0,1,13.37.68,21.3,21.3,0,0,0,25.71-1.31,33.75,33.75,0,0,0,46.91-1.25c11,9.78,25.88,13.29,39.26,9.26,6.14-1.85,12.81-6.36,12.14-14.75a12.53,12.53,0,0,0-1.32-4.65c-2.78-5.51-7.85-7.91-12.92-8.83-10.25-1.88-21.17,2.06-28.73,10.38a50.85,50.85,0,0,0-37.88-7.34C157.78,226.8,153.42,228.32,149,228.29Z"/>
            <path class="cls-8" d="M82.05,200.29c1.53,1.94,11.52-1.33,17.3-1.74s11.83.08,16.9,3.15a45.35,45.35,0,0,0-29.68-5.61,7.06,7.06,0,0,0-3.17,1.08A3.24,3.24,0,0,0,82.05,200.29Z"/>
            <path class="cls-8" d="M154.09,175.72a21.22,21.22,0,0,1,5.67,7.52c3.23,6.47,5,14.36,2.58,21.24,1.84-9.16-1.78-19.34-8.79-24.73a5.92,5.92,0,0,1-2-2.05c-.41-.9-.19-2.25.69-2.55A2.06,2.06,0,0,1,154.09,175.72Z"/>
            <path class="cls-8" d="M208.84,179a22.74,22.74,0,0,1,3,9.18c1,7.29.24,15.38-4.19,20.93a26.53,26.53,0,0,0-.55-26.53,6.45,6.45,0,0,1-1.23-2.67c-.11-1,.52-2.18,1.44-2.14C208,177.84,208.46,178.45,208.84,179Z"/>
          </g>
          <path class="cls-5" d="M59.86,258.89s0-9.3,5.75-20.71l5.75,16.11,6.33-1.73-1.15,4.6,7.47-2.3,1.15,7.48,9.78-2.3,8,8,6.9-16.1L107,268.66l13.8-6.9-8,6.9,17.5-1.69,12.4,9.5s6.63-12.7,8.63-9,4.21,7.12,4.21,7.12,1.54-18.62,5-15.17,7.48,6.9,7.48,6.9,15.33-7.12,16.58-5,12.75,3.85,12.75,3.85.1-16.32,1.49-12.47S210,263.49,210,263.49l15.53,2.3s.86-28.28,3.3-26.5,7.05,14.42,7.05,14.42-13.8-13.8,0-7.48,18.4,4,18.4,4-10-16.09-2.7-13.22,9.45-.8,11.83-1,10.43,5,10.43,5l-28.18,22.43-49.77,9.65-22.63,5.05L136.35,283,73.09,270.39Z"/>
          <polyline class="cls-5" points="144.79 250.62 123.76 225.52 151.06 249.49 165.04 224.18 157.05 250.15 173.7 232.17 167.71 254.81"/>
          <g>
            <g>
              <path class="cls-9" d="M227.6,193.37s-1,35-35.47,51.3c0,0-10.36,5-12,10s-.84,10-2.75,4.37c0,0,.26,5.56-1.5,1.77s-1.39-4.23-2.36-1-1.19,2.3-1.81-.14.27,1.64-1.25,1.62-1.42-4-5.28-7.27c0,0-17.58,5.57-34.37,2.53a31.85,31.85,0,0,0-7.07,6.3c-3,3.75-2.33,1.84-2.37-1.25s-1.16,1.13-2.87,2.92-2-4-2-4-.47,1.89-.93,3.79-2,.79-4.16-5.24c0,0,.38,6.5-1,3.39s-.53-6.57-6.67-13.31c0,0-24.39-11-34.83-34.14-7.72-17.1-9.48-42.38,5.47-63.33v0a61.64,61.64,0,0,1,6.07-7.28,74.76,74.76,0,0,1,16.35-12.68c19.47-11.37,51.06-14.92,78.41-5.35a80.66,80.66,0,0,1,27.54,16.1C215.6,154,224.91,170.63,227.6,193.37Z"/>
              <path class="cls-10" d="M227.26,193.36c-.28,9.17-3.78,18.63-8.27,26.5a60.37,60.37,0,0,1-18.65,19.93c-6.27,4.24-14.37,6.55-19.27,12.62-1.34,1.65-1.73,3.73-2.11,5.77-.18,1-.28,1.93-.48,2.89-.06.3.23.47-.11-.23a18.39,18.39,0,0,1-.66-1.8c-.05-.15-.67-.15-.66,0a6.38,6.38,0,0,1-.29,2.92c.14-.28-1.64-4.25-2.18-4.39-.75-.19-.86.46-1.05,1.06-.26.79-.48,1.58-.77,2.37-.14.37,0,.82-.2.44-.41-.79-.41-1.76-.74-2.59-.06-.14-.39-.1-.49-.08h0c-.06,0-.16,0-.17.11-.13,1-.51,3.12-1.52,1.19a25.45,25.45,0,0,0-3-5c-1.35-1.59-1.72-1.15-3.49-.67A80.12,80.12,0,0,1,135,257c-1-.09-3.64-1-4.45-.52a30.19,30.19,0,0,0-3.09,2.3,31.77,31.77,0,0,0-4.5,4.63c-.25.31-.51.6-.78.89-.74.8-.43.41-.47-.06-.08-.86,0-1.77,0-2.64,0-2.31-1.31-.71-1.87.35a18.54,18.54,0,0,1-1.33,2.17c-.79,1.06-1,0-1.25-.74a13.49,13.49,0,0,1-.39-2.83c0-.2-.62-.19-.67,0-.2.81-.75,5.1-1.71,4.12-1.39-1.41-2-3.79-2.71-5.59,0-.15-.67-.15-.66,0a25.35,25.35,0,0,1,0,3c-.05.72.11,1.23-.31.34a13,13,0,0,1-.73-2.45,24,24,0,0,0-1.39-4.3c-.94-2.13-2.67-5.24-4.58-6.59a36.18,36.18,0,0,0-3.22-1.65,85.32,85.32,0,0,1-8-5,74.06,74.06,0,0,1-20.18-21,64.72,64.72,0,0,1,3.69-72c10.28-13.26,25.42-21.89,41.57-25.78,28.72-6.9,62.12-1.29,84.48,18.78,14.61,13.11,22.45,31.62,24.77,50.86,0,.2.7.18.68,0-2.08-17.16-8.43-33.61-20.24-46.44-10-10.83-23.18-18.16-37.24-22.25-26.31-7.65-57.56-5-80.27,11.11C75,146.53,64.93,162.84,63.11,181.41a65,65,0,0,0,13.8,46.87,79,79,0,0,0,25.74,20.55c1.84.92,2.93,2.8,4,4.5,1.63,2.47,2.27,5.16,3,8,.11.4.78,2.9,1.68,2.1s.42-3.25.36-4.28l-.66,0c.5,1.35,1.68,6.08,3.72,6.17,1.72.08,1.75-3.65,2-4.76h-.67c0,1,.1,4.68,1.76,4.46,1.17-.16,1.78-1.63,2.29-2.54.23-.39.43-.8.65-1.2.35-.64.07-.53.12-.16a29.71,29.71,0,0,1,0,3.13c.06,2.85,4.41-2.89,4.54-3a30.34,30.34,0,0,1,5.26-4.39c.58-.39,2.42.26,3.16.35,1.64.21,3.29.31,4.94.38a81.12,81.12,0,0,0,26.18-3.33c.87-.26,2.86,3.78,3.29,4.7s.78,2.32,2,2.51c.73.12,1.11-.46,1.29-1.07a4.61,4.61,0,0,0,.11-.9c.05-.91-.39.22-.51-.18a13.28,13.28,0,0,0,.76,2.49c.3.57,1,.08,1.2-.25a20.18,20.18,0,0,0,1.2-3.51c-.28-.2-.32-.16-.1.12s.24.53.35.79c.36.83.72,1.66,1.12,2.47.19.38.94,1.37,1.5.8s.45-2.24.42-3.1l-.66,0c.23.68.51,2.6,1.51,2.61s.8-1.84.87-2.34c.37-2.43.79-4.87,2.27-6.88a21.73,21.73,0,0,1,5.33-4.64,85.39,85.39,0,0,1,8.39-4.62,61.33,61.33,0,0,0,31.93-44.82,37.22,37.22,0,0,0,.58-5C227.94,193.18,227.27,193.16,227.26,193.36Z"/>
              <path class="cls-11" d="M227.6,193.37s-1,35-35.47,51.3c0,0-10.36,5-12,10s-.84,10-2.75,4.37c0,0,.26,5.56-1.5,1.77s-1.39-4.23-2.36-1-1.19,2.3-1.81-.14.27,1.64-1.25,1.62-1.42-4-5.28-7.27c0,0-17.58,5.57-34.37,2.53a31.85,31.85,0,0,0-7.07,6.3c-3,3.75-2.33,1.84-2.37-1.25s-1.16,1.13-2.87,2.92-2-4-2-4-.47,1.89-.93,3.79-2,.79-4.16-5.24c0,0,.38,6.5-1,3.39s-.53-6.57-6.67-13.31c0,0-24.39-11-34.83-34.14-7.72-17.1-9.48-42.38,5.47-63.33v0c2.19-4.76,4.75-10.44,6.87-15.31a8.73,8.73,0,0,1,0,6.09c-.25.67-.51,1.3-.81,1.94-2.57,5.68-6.91,9.88-8.26,16.59-.11.49,20.5-16.27,20.42-15.78-1.66,9.54,7.49,34.1-2.71,40.3-13.3,8.09-.93,33.26,11.29,42.9,10.2,8.05,22.41,14.18,35.39,14.72,7.19.3,14.33-1.1,21.4-2.52,12.24-2.44,24.69-5,35.59-11s20.2-16.35,21.84-28.71c1.47-11.15-5-7.6-12.34-16.13s-15.23-29.63-24.61-35.82a96.79,96.79,0,0,1,21.73,4.91l-12-9.92-7.93-6.53c-2.31-1.9-4.76-4-5.38-7a6.58,6.58,0,0,1,.38-4.05c1.82-4.27,7.9-7,13-7.88a44.12,44.12,0,0,0,9.16-2.38c4.85,3.18,9.41,7.22,11,12.72,1.5,5.16-1,11.63-5.65,13.64C215.6,154,224.91,170.63,227.6,193.37Z"/>
            </g>
            <g>
              <g>
                <path class="cls-12" d="M238,142.35a85.5,85.5,0,0,1-2.53,9.74c-2.93,9-7.49,17.59-13.3,19.81-12.43,4.74-40.5-55.38-40.5-55.38s.51-8,1.7-16.72c.12-.93.26-1.87.41-2.82,1.39-9.2,3.56-18.35,6.7-19.21,6.47-1.78,6.76,16.8,6.76,16.8S200.9,76.09,208.88,76c6.71-.08,4.68,21.8,4.68,21.8s6.07-11.65,7.34-6.39c.8,3.31-.57,7.7-.87,8.6.58-1.12,4.32-7.92,10.1-6.87,6.21,1.12,2.61,34.85,2.53,35.75.23-.32,3.05-4.18,5.77-.05C239.46,130.38,239.24,135.82,238,142.35Z"/>
                <path class="cls-13" d="M238,142.35c1.37-18.37-7.61-8.91-7.61-8.91s3.8-12.68,1.56-29.86-12.72-.3-12.72-.3,2.2-9.87.16-10.37-7.09,7.43-7.09,7.43c-.06-21.21-2.71-21-2.71-21-6.56-2.63-13.24,18-13.24,18s-1.11-13.61-5.21-14.78c-2.47-.71-5.42,7.67-7.36,14.44,1.39-9.2,3.56-18.35,6.7-19.21,6.47-1.78,6.76,16.8,6.76,16.8S200.9,76.09,208.88,76c6.71-.08,4.68,21.8,4.68,21.8s6.07-11.65,7.34-6.39c.8,3.31-.57,7.7-.87,8.6.58-1.12,4.32-7.92,10.1-6.87,6.21,1.12,2.61,34.85,2.53,35.75.23-.32,3.05-4.18,5.77-.05C239.46,130.38,239.24,135.82,238,142.35Z"/>
              </g>
              <path class="cls-14" d="M234.41,158.18c-2.92,9-7.49,17.59-13.29,19.81-12.43,4.74-40.5-55.38-40.5-55.38s.51-8,1.7-16.72C196.06,110.42,226.94,124.2,234.41,158.18Z"/>
            </g>
            <g class="cls-15">
              <path class="cls-10" d="M174.94,205.26a38,38,0,0,1,1.34,7.56c.09,1.06-.57,4,1,4.43.88.23,1.66-.55,2.18-1.14,1.91-2.18,2.67-5.49,3.17-8.24l-.67,0c.33,1.16,1.68,3.37,3.1,1.94a19,19,0,0,0,4.75-10.07c0-.17-.64-.23-.67,0a22.1,22.1,0,0,1-1.83,5.65,18.56,18.56,0,0,1-2.54,4c-1.15,1.42-2-.81-2.14-1.47,0-.19-.64-.24-.67,0a23.13,23.13,0,0,1-2.18,6.74c-.38.7-2.19,3.54-2.71,1.69a11.55,11.55,0,0,1-.08-2.63,28.9,28.9,0,0,0-.39-3.83,34.32,34.32,0,0,0-1-4.52c-.06-.22-.71-.16-.67,0Z"/>
              <path class="cls-10" d="M199.69,197.7c1.27-.64,2-2.23,2.37-3.51,1.66-5.39-.76-11.87-2.73-16.82-.07-.17-.73-.18-.65,0,2,5,4,10.78,2.85,16.2-.29,1.37-1,3.24-2.41,3.92-.21.11.41.28.57.2Z"/>
              <path class="cls-10" d="M207.16,196.47c6.53,1.81,2.21-10.8,1.53-12.7-.08-.21-.72-.12-.68,0,.43,1.17,4.62,13.86-.38,12.48-.16,0-.8.11-.47.2Z"/>
            </g>
            <g>
              <g>
                <path class="cls-16" d="M92.51,118.86s.73-6.26-8.85-2.17-38,30.4-35.54,65.75C49.55,202.9,54.6,213.36,59,207c0,0,2.26,8.37,7.41,14s8.3,3.73,8.3,3.73a65.82,65.82,0,0,1-9.36-30.1s3.06.3,6-13.73c0,0,3.88.24,7.24-9.13S80.81,151,82.52,155s7.34-10.28,9.33-20.6A67,67,0,0,0,92.51,118.86Z"/>
                <path class="cls-17" d="M52.66,161.16C48.33,173,49.6,187.49,54.23,199c.91,2.26,3.09,7.73,6.4,7.24,1.75-.25,2.06-3.37,2.34-4.53a31.79,31.79,0,0,0,1-7.63l-.63-.07a2.28,2.28,0,0,0,2.15.83c.44,0-.07-.32-.28-.3A1.37,1.37,0,0,1,64,194c-.07-.08-.63-.26-.63-.07a29.79,29.79,0,0,1-.46,4.81c-.3,1.89-.48,6-2.4,7.11-1.64,1-3.77-3-4.28-4A38.59,38.59,0,0,1,53,193.6c-2.87-10.17-3.43-22.19.28-32.29.06-.17-.58-.34-.66-.15Z"/>
                <path class="cls-17" d="M67.9,162.22a58.56,58.56,0,0,0-.33,8.78c.11,3.15.31,8.4,3.58,10.07.16.08.77-.14.54-.25-3.31-1.7-3.37-7.27-3.48-10.43a55.31,55.31,0,0,1,.34-8.24c0-.21-.62-.1-.65.07Z"/>
                <path class="cls-17" d="M60.6,175c-.32,6.18-.19,13.51,2.74,19.1.1.2.73,0,.66-.14-2.93-5.58-3.06-12.91-2.74-19.1,0-.15-.65-.08-.66.14Z"/>
              </g>
              <path class="cls-18" d="M53.4,162.85s-5.36,15.33.92,31.35A102.47,102.47,0,0,1,53.4,162.85Z"/>
            </g>
            <g>
              <path class="cls-16" d="M183.92,120.19s-1.73-6.06,8.39-3.58,42.46,23.8,45.77,59.08c1.91,20.42-1.37,31.56-6.76,26,0,0-.87,8.62-5,15s-7.58,5-7.58,5A65.79,65.79,0,0,0,223,190.57s-3,.79-8.2-12.56c0,0-3.78.86-8.63-7.84s-5.52-20.21-6.55-16-8.91-8.95-12.57-18.81A67.65,67.65,0,0,1,183.92,120.19Z"/>
              <path class="cls-17" d="M229.49,155.52c5.23,9.23,6.51,20.75,5.61,31.11-.37,4.16-.94,10.82-4.38,13.8-2.64,2.28-5.47-8.79-5.78-10.78,0-.18-.57-.27-.66-.11a1.6,1.6,0,0,1-1.45.88c-.34,0,.25.31.42.29a1.86,1.86,0,0,0,1.69-1l-.65-.1a33.81,33.81,0,0,0,2,6.65c.61,1.58,1.26,4.14,3.08,4.83,3.21,1.23,4.84-5.57,5.3-7.35,3.09-12.06,1.72-27.15-4.49-38.11-.1-.18-.73-.21-.65-.08Z"/>
              <path class="cls-17" d="M214.61,159.06a58.64,58.64,0,0,1,1.62,7.64c.48,3.21,1.42,9-1.64,11.27-.28.21.37.18.51.08,2.87-2.13,2.3-7,2-10.11a54.47,54.47,0,0,0-1.8-9c-.06-.19-.71,0-.66.15Z"/>
              <path class="cls-17" d="M223.88,170.38c1.32,6,2.38,13.29.41,19.26-.06.18.59.13.65-.06,2-6,.92-13.26-.41-19.33,0-.19-.69-.05-.65.13Z"/>
            </g>
            <path class="cls-19" d="M146.23,22.68S112.6,20.89,105.9,65.26s-14.55,54.52-21.64,58.82,1.7,5.65,6.3,1.14c0,0-11,14-8.76,24.28,1.32,6.09,9.82-6.18,9.82-6.18s-3,13.89,1.24,20.16,11.85-6.76,11.85-6.76,2.28,12.63,9.7,17.39,5.8-14.94,7.26-7.2,5.41,20.64,19.26,3c0,0-3.91,7.77,1.39,6.92s10.42-9.12,10.42-9.12-4.6,9.47-.84,10,14.69-7.41,16.82-16.68c0,0-1,7.94,1.47,7.74s4.94-10.33,4.94-10.33-1.83,8,1.39,6.91,9.29-12.75,10-19.42c0,0,4.2,10.82,7.08,5.62s-.22-17.76-3.8-26.14c0,0,1.13,3.63,5.54,2s-5-5.79-9-24.47S183.76,21.67,146.23,22.68Z"/>
            <g class="cls-20">
              <path class="cls-21" d="M186.29,102.91c-4-18.69-2.53-81.24-40.06-80.23A35.83,35.83,0,0,0,130,26.6a8.2,8.2,0,0,1,1.84,2.85c2.45,7.17,2.68,4.87,6.15,1.9,4.64-4,27.55-13.56,36.47,21.26,0,0,2.59,4.75,3.74,35.53.78,21.14,11,35.2,3.6,30.43s5.92,11.78-1.55,35c0,0-4.27,8.35-4.1.34s-.66-4.63-3.27,3.85-2.69.77-3.14-4.7-4.31,14.68-13.35,18.73c0,0-3.68,2.23-1.91-3.15s2.83-10.85-3.15-3.12-10.57,9.75-7.75-3.71-3.53,7.32-10.23,11.38-9.53-7.9-11.31-17.05-2.43-1.87-3.5,7.72-11.14.3-11.68-18.88-3.09,7.69-8,13.06-7.92-3.28-5.41-15.48-6.08,4-8.85,5.49-1.51-10.84,7.25-22.51-2.24.38-7.19.59A7.57,7.57,0,0,1,82,125.9c-2.13,2.76,4.69,3.11,8.56-.68,0,0-11,14-8.76,24.28,1.32,6.09,9.82-6.18,9.82-6.18s-3,13.89,1.24,20.16,11.85-6.76,11.85-6.76,2.28,12.63,9.7,17.39,5.8-14.94,7.26-7.2,5.41,20.64,19.26,3c0,0-3.91,7.77,1.39,6.92s10.42-9.12,10.42-9.12-4.6,9.47-.84,10,14.69-7.41,16.82-16.68c0,0-1,7.94,1.47,7.74s4.94-10.33,4.94-10.33-1.83,8,1.39,6.91,9.29-12.75,10-19.42c0,0,4.2,10.82,7.08,5.62s-.14-17.43-3.66-25.82a2.08,2.08,0,0,1-.14-.32c.05.1.09.22.14.32.4.86,1.82,3,5.4,1.7C199.74,125.78,190.3,121.59,186.29,102.91Z"/>
              <path class="cls-22" d="M189.92,125.68c0-.1-.09-.22-.14-.32A2.08,2.08,0,0,0,189.92,125.68Z"/>
            </g>
            <g>
              <path class="cls-23" d="M163,36.92A7,7,0,0,0,161,34.48c-2.52-2.06-5.67-.54-7.91,1.18-.46.36-1.52-.37-1-.76,2.52-1.95,5.61-3.27,8.64-1.69a7.77,7.77,0,0,1,3.31,3.54c.33.73-.86.71-1.1.17Z"/>
              <g>
                <g>
                  <path class="cls-24" d="M132.78,32.67s-1.65-5.92-4.71-14.7c-2.53-7.23,2.24-15.48,9.08-15.21a8.3,8.3,0,0,1,7.48,5.45s1.06-4.7,7-5c7.62-.36,10.06,9.3,9,14.35,0,0,4-1.36,6.89,3.36s.79,12.13.79,12.13-8.11-10.7-20.64-9.67c0,0-10.83,1.5-12.6,10.13C135.13,33.52,133.43,33.86,132.78,32.67Z"/>
                  <path class="cls-25" d="M154.63,4.08a8.07,8.07,0,0,0-7.35,1.15s-1.17.93-.67,2S149.24,4,154.63,4.08Z"/>
                </g>
                <g class="cls-26">
                  <path class="cls-27" d="M141.82,7.61c1.05,4.14,2.39,2.16,3.2-.43a5.49,5.49,0,0,0-.39,1,8.3,8.3,0,0,0-7.48-5.45,8.43,8.43,0,0,0-1.23,0l-.12.2A6,6,0,0,1,141.82,7.61Z"/>
                </g>
              </g>
              <path class="cls-23" d="M129.25,39.37a7,7,0,0,0-2.21-2.2c-2.76-1.74-5.7.16-7.71,2.14-.41.41-1.56-.18-1.1-.63,2.27-2.24,5.17-3.93,8.38-2.73a7.77,7.77,0,0,1,3.71,3.11c.42.68-.77.81-1.07.31Z"/>
            </g>
            <path class="cls-28" d="M116.52,222.21c.28,3.14,1.56,6.15,1.82,9.25.2,2.31-2.94-.72-3.34-1.15a21.8,21.8,0,0,1-3.45-5.65c-.06-.14-.66-.17-.66,0a5.29,5.29,0,0,1-.36,1.8c-.73,1.83-4.31-2.35-4.76-2.89a20.2,20.2,0,0,1-3.19-5.06c-.07-.18-.73-.14-.65.05a20.89,20.89,0,0,0,6.67,8.34c1.84,1.37,2.91-.47,3-2.22h-.66c1,2.12,4,8.83,7.47,7.91,1.4-.37.22-3,0-3.73a41.8,41.8,0,0,1-1.21-6.65c0-.21-.68-.2-.67,0Z"/>
            <path class="cls-29" d="M127.88,76.45s-1.09,11,11.4,23.59c.28.29,1.82-.53,2.12-.24,0,0,5.51-2.12,11-23.11C152.45,76.69,142,68.85,127.88,76.45Z"/>
            <path class="cls-30" d="M127.88,76.45a19.54,19.54,0,0,1,11.45-7c7.41-1.35,13.12,7.2,13.12,7.2S152.29,90,140.58,97C140.58,97,132.53,90.34,127.88,76.45Z"/>
            <ellipse class="cls-31" cx="147.44" cy="77.76" rx="1.5" ry="2.16" transform="translate(-5.86 12.3) rotate(-4.69)"/>
            <ellipse class="cls-31" cx="133.05" cy="77.44" rx="1.5" ry="2.16" transform="translate(-5.88 11.13) rotate(-4.69)"/>
          </g>
          <g>
            <g>
              <path class="cls-32" d="M132.74,234.73c4.17,14.54-5.4,25.41-19.69,29.47S83.19,261.37,80.52,252c-2.62-9.22,5.54-24.54,19.73-28.92C115.08,218.5,129.25,222.54,132.74,234.73Z"/>
              <path class="cls-33" d="M132.74,234.73a21,21,0,0,0-5.54-8.55c-1.52-.4,10.18,21.33-13.59,30.8-9,3.59-13.68,5.36-21.27,4a26.69,26.69,0,0,1-4.21-1.13c-1.11-.4-2.89-.88-3.75-1.72,6.08,5.92,17.75,9.22,28.67,6.11C127.34,260.14,136.91,249.27,132.74,234.73Z"/>
            </g>
            <g>
              <path class="cls-32" d="M193,234c1.66,13.75,13.22,19.47,26.26,17.76s23.32-13.11,22.24-22c-1.07-8.71-13-18.68-26.1-17.27C201.75,214,191.63,222.51,193,234Z"/>
              <path class="cls-33" d="M199.44,218.75c.21-.17.76-.59,1.09-.83.35,2.37-17.75,22.83,11.95,25.07,17.64,1.34,18.78-.76,22,0s5.26-6.5,6.89-9.47c-1.58,8.06-10.79,16.79-22.07,18.27-13,1.71-24.6-4-26.26-17.76a17,17,0,0,1,1.92-9.95A20.49,20.49,0,0,1,199.44,218.75Z"/>
              <path class="cls-34" d="M196.65,243.65c6.67,7.51,16.28,8.06,25.59,5.81,8.75-2.1,13.87-6.38,17.93-13.23.21-.35.51-.83.85-1.41-2.26,7.68-11.08,15.57-21.75,17-9.8,1.29-18.76-1.63-23.32-9C196.18,243.08,196.41,243.37,196.65,243.65Z"/>
            </g>
            <g>
              <path class="cls-32" d="M137.38,247.51c-1.86,14.06,9.68,23.18,24.87,23.3,15.8.12,29.76-8.12,30.89-17.19,1-10.3-9.42-19.78-24.82-22.78S139.3,232.9,137.38,247.51Z"/>
              <path class="cls-33" d="M192.38,247.48a12.68,12.68,0,0,1-1.24,6.14c-3,6.23-10.08,10.16-16.56,11.82-8.56,2.2-32.34-1.81-36.43-21.34a15.76,15.76,0,0,0-.77,3.41c-1.86,14.06,9.68,23.18,24.87,23.3,15.8.12,29.76-8.12,30.89-17.19A14.22,14.22,0,0,0,192.38,247.48Z"/>
              <path class="cls-34" d="M162.9,268.84c-15.18-.11-27.38-7.27-25.52-21.33-1.86,14.06,9.68,23.18,24.87,23.3,14.81.11,28-7.13,30.53-15.5C190.31,263.45,177.7,269,162.9,268.84Z"/>
              <g>
                <path class="cls-35" d="M166.18,247.47c-2.35-1.3-10.64-3.21-13.43-2.8-4.08.59-4.08,5.7-.48,10.06,2.37,2.85,6.19,3.87,9.88,3.75,2.4-.07,5.12-.3,7.31-1.73a4,4,0,0,0,1.73-2.22,4.32,4.32,0,0,0-1.06-3.66A12.41,12.41,0,0,0,166.18,247.47Z"/>
                <path class="cls-35" d="M160.49,249.73c-3.09-1-5.31,0-5.92,1.61s1.21,3.75,3.2,4.37,5.06.09,5.67-1.57S163.07,250.54,160.49,249.73Z"/>
              </g>
            </g>
          </g>
          <path class="cls-5" d="M162.88,169.09c3.21,0,3.22-5,0-5s-3.22,5,0,5Z"/>
          <path class="cls-36" d="M73,237.2l17.59,24c-1.34-3.14-2.65-6.41-2.59-9.82s1.88-7,5.09-8.17a83.12,83.12,0,0,0,.64,18.45,28.13,28.13,0,0,1,19.84-18.14c-1.37,8.29-12.52,12.36-13.51,20.7l19.3-8.41a39.05,39.05,0,0,1-9.72,8.72L120.4,264a3.34,3.34,0,0,1,1.83.26,4,4,0,0,1,1.33,2.16c2.41,6,10,7.72,16.44,8.57-8.16-1.07-17.4,1.24-25.84.49-7.47-.67-17.38-1.23-24-5.09C81,265.06,75.88,246.51,73,237.2Z"/>
          <path class="cls-36" d="M204.51,224.56a112,112,0,0,1-2.82,33.74,73.72,73.72,0,0,1,21.81-24.16,171,171,0,0,0-11.15,20A49.32,49.32,0,0,1,234.53,241a16.37,16.37,0,0,0-4.32,6.4l26.28-6.84c-4,8.12-18.39,6.76-21.36,15.29,1.43-1.67,4.33.78,3.77,2.9s-2.8,3.27-4.81,4.16l-17.42,7.69c.74-.26,1.39.77,1.13,1.5a3.1,3.1,0,0,1-1.73,1.5,72.71,72.71,0,0,1-13,4.83,7.79,7.79,0,0,1-4.13.3c-1.48-.43-2.59-1.66-3.95-2.38-4.16-2.22-9.11.62-12.94,3.36-.35-9-7-16.36-13.33-22.83a39.09,39.09,0,0,1,8.43,14.85,42.34,42.34,0,0,0-20.48-7.42c5.59,4.24,11.48,8.9,13.63,15.58a33.83,33.83,0,0,1-14.15-3c8.41,3.8,26.61-3.76,32.58-10.33C198.26,256.12,202.8,238.18,204.51,224.56Z"/>
        </g>
      </g>
    </g>
  </g>
</svg>
