<svg id="bb43f455-04c5-4a76-9760-183e5705d9db" data-name="Layer 1" xmlns="http://www.w3.org/2000/svg" width="190" height="200" viewBox="0 0 190 200">
  <defs>
    <style>
      .a753aa5c-3211-4bf5-b6a4-93cb74f94aad, .aa3518b7-16a4-448a-aa58-5d3394880b9a {
        fill: #ffe309;
        stroke-width: 0.75px;
      }

      .aa3518b7-16a4-448a-aa58-5d3394880b9a {
        stroke: #665608;
      }

      .a753aa5c-3211-4bf5-b6a4-93cb74f94aad, .aa3518b7-16a4-448a-aa58-5d3394880b9a, .f59188e7-b17f-46f2-bfd4-4e7bc92fcc62 {
        stroke-miterlimit: 10;
      }

      .a753aa5c-3211-4bf5-b6a4-93cb74f94aad {
        stroke: #493c05;
      }

      .ada1c0e3-9e1a-439d-aefe-bb10d24af3f8 {
        fill: #ecc516;
      }

      .f59188e7-b17f-46f2-bfd4-4e7bc92fcc62 {
        fill: #532900;
        stroke: #3a1c03;
      }

      .bdbcc0a9-d6da-4826-98c8-d944640510ec {
        fill: #681a1a;
      }

      .f4145a57-f145-473c-b161-a9c76de0fdb6 {
        fill: #ef7089;
      }

      .afb28bc8-60f2-43dd-a923-e85623afc9d9 {
        fill: #ff5763;
      }

      .ac7fa040-a883-4eb3-a51a-7adae67b1615 {
        fill: #fff;
      }

      .b67f69ef-3cbc-4585-bd5d-7222c2ef1ebe {
        fill: #ef304c;
      }

      .bfdebe05-efdc-43ff-995a-c12478fd2cb5 {
        fill: #ffa979;
      }
    </style>
  </defs>
  <g>
    <path class="aa3518b7-16a4-448a-aa58-5d3394880b9a" d="M67.48,163.28s1,4.37-4,5.08-8.74-.71-9.17,4.23-.42,10.29,4.52,10.71,4.51-6.48,8.32-6.06,10.85-.71,10.43-9.45S67.48,163.28,67.48,163.28Z"/>
    <g>
      <path class="aa3518b7-16a4-448a-aa58-5d3394880b9a" d="M95.82,62s-6.77.14-15.09-13.11-1.27-29.61,6.49-30.6,8,5.64,1.13,10.86-6.07,23.26,9.44,30.88C97.79,60.07,106.68,67.12,95.82,62Z"/>
      <path class="aa3518b7-16a4-448a-aa58-5d3394880b9a" d="M116.4,60.07s-2-12.27.43-20.45,10.43-26.23,22.42-22.42c0,0,3.52,2.4,2.11,5.5s-4.51,4.09-7.61,2.4-19.88,12.55-14.38,34.26C119.37,59.36,118.94,65.42,116.4,60.07Z"/>
      <path class="aa3518b7-16a4-448a-aa58-5d3394880b9a" d="M124.22,121.27s2.26,2.82,19.94-1c0,0,7.23-1.36,10.89-3.45s12.2-5.21,14.5-3.63,1.78,4.43-2.73,4.23l-4.42.45s5.32-.07,4.25,5.84-6.38-2.48-6.38-2.48l3.12,4.77s-2.5,4.26-7.38-2.15c0,0-1.12,3-12.38,7s-23.83,3.67-23.83,3.67Z"/>
      <path class="a753aa5c-3211-4bf5-b6a4-93cb74f94aad" d="M124.56,130.94A42.64,42.64,0,0,1,120,148.57a32.32,32.32,0,0,1-7.82,9.61h0a41.47,41.47,0,0,1-8,5.24c-.54.27-1.09.54-1.64.78a44.06,44.06,0,0,1-12.72,3.51,61.35,61.35,0,0,1-23-2c-1.46-.39-2.8-.79-4-1.17-9-2.81-15.09-1-15.09-1,3.81-3.59,4.65-9.32,5.79-15.5,1-5.63,2.27-11.63,6.26-16.7.21-.27.41-.53.64-.79a28.47,28.47,0,0,1,4.43-4.16,39.06,39.06,0,0,1,8-4.62l.23-.09A50.71,50.71,0,0,1,81.19,119a39.74,39.74,0,0,1,5-1c10.72-1.13,12.7-9.31,12.7-9.31l25.66,13.81A76,76,0,0,1,124.56,130.94Z"/>
      <path class="ada1c0e3-9e1a-439d-aefe-bb10d24af3f8" d="M124,129.79c-4.61,2-10.12,2.61-16.78,2.61-13.8,0-25.11-5.16-26.09-11.7A40.49,40.49,0,0,1,88,118.2a31.53,31.53,0,0,1,4.25-.9c9-1,10.7-8.59,10.7-8.59l21.64,12.75C124.72,124.18,124.16,127.34,124,129.79Z"/>
      <path class="f59188e7-b17f-46f2-bfd4-4e7bc92fcc62" d="M67.27,165.39c-1.47-.38-3.24-.47-4.44-.85-9-2.81-15.09-1-15.09-1,3.81-3.59,5-10,6.13-16.14C54.48,152,57.17,160.29,67.27,165.39Z"/>
      <path class="f59188e7-b17f-46f2-bfd4-4e7bc92fcc62" d="M120,148.57a32.32,32.32,0,0,1-7.82,9.61h0c-5.45,0-15.85-1.75-28.07-12.52C76.61,139,73.69,130,72.83,121.79a51.44,51.44,0,0,1,8.36-2.8c.75,6.49,3.67,16.66,13.92,23.14A40.13,40.13,0,0,0,120,148.57Z"/>
      <path class="f59188e7-b17f-46f2-bfd4-4e7bc92fcc62" d="M102.5,164.2a44.06,44.06,0,0,1-12.72,3.51c-6.3-1-15.1-3.5-21.45-10.36-7.78-8.36-8.93-17.87-8.54-26,.21-.27.41-.53.64-.79a28.47,28.47,0,0,1,4.43-4.16c.17,6.33,1.84,17,10.37,24.18C85.32,159.13,97.68,163,102.5,164.2Z"/>
      <g>
        <path class="aa3518b7-16a4-448a-aa58-5d3394880b9a" d="M149.5,99.12c.36,14.92-12.31,23.8-27.68,27.28h0a71.48,71.48,0,0,1-15.63,1.69c-21.31,0-32.36-11.21-31.18-32.78.87-16.22,10-31.89,25-37a33,33,0,0,1,10.78-1.76C132,56.51,149,77,149.5,99.12Z"/>
        <path class="ada1c0e3-9e1a-439d-aefe-bb10d24af3f8" d="M123,125.79a72.09,72.09,0,0,1-15.63,1.67C86,127.46,75,116.36,76.15,95c.88-16.07,10-31.6,25-36.71a42.71,42.71,0,0,0-18.21,36.5C83.51,121.3,105.19,128.08,123,125.79Z"/>
        <g>
          <g>
            <g>
              <g>
                <path class="bdbcc0a9-d6da-4826-98c8-d944640510ec" d="M134.59,102.29s0,7.1-3.41,12.43a12.38,12.38,0,0,1-3.54,3.75c-5.47,3.75-12.52,3.49-17.47-2.91a4.71,4.71,0,0,1-.33-.42,25,25,0,0,1-3.16-6.07s13,1.76,24-4.21A26.51,26.51,0,0,0,134.59,102.29Z"/>
                <path class="f4145a57-f145-473c-b161-a9c76de0fdb6" d="M134.62,102.25a23.23,23.23,0,0,1-.27,4.81,25.56,25.56,0,0,1-1.14,4.68,18.36,18.36,0,0,1-2.24,4.33,12.46,12.46,0,0,1-3.6,3.41,13,13,0,0,1-9.62,2,14.11,14.11,0,0,1-8.29-5.38l.05,0a16,16,0,0,1-1.15-1.64c-.34-.54-.66-1.1-1-1.67a27,27,0,0,1-1.51-3.5l-.46-1.27,1.35.16a44.12,44.12,0,0,0,7.19.21,46.8,46.8,0,0,0,7.18-.79,40.46,40.46,0,0,0,7-2,35.1,35.1,0,0,0,3.31-1.51C132.53,103.57,133.51,103,134.62,102.25Zm-.05.09a21.9,21.9,0,0,1-3,2.06,36.08,36.08,0,0,1-3.28,1.67,37.24,37.24,0,0,1-7,2.25,46,46,0,0,1-7.29,1,45.1,45.1,0,0,1-7.35-.16l.09-.12a26.78,26.78,0,0,0,1.5,3.37,19.81,19.81,0,0,0,2,3.09h0a13.25,13.25,0,0,0,7.69,5.09,12.43,12.43,0,0,0,9-1.78,14.18,14.18,0,0,0,5.76-7.27A29.59,29.59,0,0,0,134.57,102.34Z"/>
              </g>
              <path class="afb28bc8-60f2-43dd-a923-e85623afc9d9" d="M129,114.46c1.56,2.08-.43,3.32-1.76,4.26-4.92,3.5-12.67,2.49-17.11-3.48,1.21-.92,3.4-1.7,7.31-1.33C117.39,113.91,124.41,111.1,129,114.46Z"/>
              <path class="ac7fa040-a883-4eb3-a51a-7adae67b1615" d="M124.11,114.2a25.21,25.21,0,0,1-6.44,1.64A10.15,10.15,0,0,1,107,109.4l0-.07s12.69,1.9,23.67-4.07C131.46,108.25,130.6,111.59,124.11,114.2Z"/>
            </g>
            <path class="b67f69ef-3cbc-4585-bd5d-7222c2ef1ebe" d="M104.74,105.19a3,3,0,0,1,.8,1.22,3.36,3.36,0,0,1,.16,1.52,2.51,2.51,0,0,1-.77,1.37,2.63,2.63,0,0,1-.65.41,2.94,2.94,0,0,1-.71.17l0,0a3.28,3.28,0,0,0,1.09-.79,2.24,2.24,0,0,0,.57-1.2,4.3,4.3,0,0,0-.51-2.62Z"/>
            <path class="b67f69ef-3cbc-4585-bd5d-7222c2ef1ebe" d="M136.78,103.44a2.47,2.47,0,0,1-1.23-.22,3.75,3.75,0,0,1-1-.74,3.11,3.11,0,0,1-.63-1.12,2.35,2.35,0,0,1,0-1.26h0a3.89,3.89,0,0,0,1,2,4.42,4.42,0,0,0,1.9,1.25Z"/>
          </g>
          <ellipse class="bfdebe05-efdc-43ff-995a-c12478fd2cb5" cx="95.94" cy="104.89" rx="6.03" ry="4.23"/>
          <ellipse class="bfdebe05-efdc-43ff-995a-c12478fd2cb5" cx="142.42" cy="93.52" rx="6.03" ry="4.23" transform="translate(-25.56 65.05) rotate(-23.67)"/>
        </g>
      </g>
      <path class="aa3518b7-16a4-448a-aa58-5d3394880b9a" d="M81.93,120.91s2.86,3.06.74,6.13-11.84,1.06-17.45-1.8-11.74,2-11.74,2,1.69,7.41-1.27,7.93-3.06-5.81-3.06-5.81-3.07,3.7-2.33,7.51c0,0-1.9,2.32-3.6-1.48l.85-4.45L42.7,135.4s-2.54-.53-1.06-7.2,17-13.95,32.15-11.31A16.77,16.77,0,0,1,81.93,120.91Z"/>
      <path class="aa3518b7-16a4-448a-aa58-5d3394880b9a" d="M59.66,145.13a3.46,3.46,0,0,1,5.23,3.21,7.61,7.61,0,0,1-2.07,4.93c-3.1,3.1-8.32,6.06-13.53,4.23s-7.48,2.39-9.17,4.93-7,2.12-6.77-4.09c0,0,0-8.32,6.91-11.7,0,0,2.68-2.11,10.44.56C55.44,148.84,57.49,146.47,59.66,145.13Z"/>
    </g>
  </g>
</svg>
