<svg id="bfc0abd7-00ce-4145-b7a7-f8707d4e9258" data-name="Layer 1" xmlns="http://www.w3.org/2000/svg" width="200" height="240" viewBox="0 0 200 240">
  <defs>
    <style>
      .a3517783-afd7-43d5-b93b-9cf7e0023ddc {
        fill: #bcfde5;
      }

      .ab620474-9334-4e96-981e-7b77e139d0e2 {
        fill: #ebf7f2;
      }
    </style>
  </defs>
  <g>
    <g>
      <path class="a3517783-afd7-43d5-b93b-9cf7e0023ddc" d="M187.48,166.19c-17.23,15.62-57.81-21.46-82.45-48.63s-34.83-60.38-17.61-76,44.34,4.56,69,31.74S204.71,150.57,187.48,166.19Z"/>
      <path class="ab620474-9334-4e96-981e-7b77e139d0e2" d="M187.51,166.22c-16.13,13.93-48.29-15-60.49-25.85-17-16-34.42-32.81-43.71-54.77-4.47-10.77-7.45-23.42-3.2-34.79,2.81-7.55,9.47-14,17.58-15.23,18.4-2.55,38,15.93,50.22,27.94A174.3,174.3,0,0,1,187,121.67c4.86,12.53,11.68,33.82.55,44.55Zm-.07-.07c11-10.7,4.1-32-.78-44.36A173.85,173.85,0,0,0,147.45,64c-12.07-11.75-31.59-30-49.6-27.48C90.08,37.79,83.74,43.93,81,51.15c-6.55,18.45,4.07,39.51,14.55,54.51C104.73,118.3,116,129.31,127.32,140c12.14,10.91,44,39.86,60.12,26.11Z"/>
    </g>
    <g>
      <path class="a3517783-afd7-43d5-b93b-9cf7e0023ddc" d="M179,162c0,23.25-54.73,28.41-91.41,28.41s-68.12-14.74-68.12-38,33.16-29.78,69.84-29.78S179,138.7,179,162Z"/>
      <path class="ab620474-9334-4e96-981e-7b77e139d0e2" d="M179.09,162c-.52,21.3-43.54,25.71-59.79,27.44C96,191.25,71.88,192.86,49.37,185c-11-3.93-22.35-10.21-27.92-21-3.71-7.16-4-16.38.52-23.26,10.47-15.34,37.33-17.45,54.44-18.43a174.05,174.05,0,0,1,69.3,10.13c12.52,4.79,32.93,14.09,33.38,29.52Zm-.1,0c-.53-15.36-20.92-24.51-33.39-29.22A173.6,173.6,0,0,0,76.44,123c-16.77,1-43.5,3.25-53.67,18.28-4.27,6.62-4,15.44-.48,22.33,9.22,17.21,32.05,23.54,50.15,25.83,15.55,1.68,31.27.73,46.82-.45,16.2-1.64,59.12-5.85,59.73-27Z"/>
    </g>
  </g>
</svg>
