<svg id="aec89690-fdb5-475a-81fd-c373576d34a7" data-name="Layer 1" xmlns="http://www.w3.org/2000/svg" width="371.62" height="238.85" viewBox="0 0 371.62 238.85">
  <defs>
    <style>
      .a7147d7f-6c10-45f0-b148-2c767c9d30e6 {
        fill: #9a4d24;
        stroke: #492012;
        stroke-miterlimit: 10;
        stroke-width: 2px;
      }
    </style>
  </defs>
  <path class="a7147d7f-6c10-45f0-b148-2c767c9d30e6" d="M198.22,11.38s-33.7,35.52-32,100.86l9-13.74s-6.61,31,9.43,66.65l1.65-18.06s22.56,42.24,19.88,66.09c0,0,11.9-10.86,7.73-32.65,0,0,14.43,33.14,19.43,35.38,0,0,3.68-11.33,2.76-18.82,0,0,12.23,22.83,25.43,27.47,0,0,9.84-15,1.77-35.44,0,0,5.75,9.88,12.21,14.8,0,0,3.62-14.77.08-22.66,0,0-2.71-10.18-1.8-15.92,0,0,8,22.3,23.64,22.65,0,0-14-18.31-17.49-66.74l10.87,14.69s.89-19.9-14.08-44.26l-7.77-13.43s9.27,2.8,11.3,5.69C280.24,83.94,235.53,12,198.22,11.38Z"/>
</svg>
