<svg id="ab7f2bf9-f94b-4745-b230-1704d920c7b1" data-name="Layer 1" xmlns="http://www.w3.org/2000/svg" width="230" height="270" viewBox="0 0 230 270">
  <defs>
    <style>
      .ba421fff-0e7b-4c04-a224-78d87db53d38, .f063ed87-da6c-4769-8e8d-7d22653476c5 {
        fill: #ffe309;
      }

      .b6afca15-df45-4a6e-ab17-13ab99072fa7, .f063ed87-da6c-4769-8e8d-7d22653476c5 {
        stroke: #665608;
      }

      .a201fb3d-1df0-462b-bdd1-a23877578042, .b6afca15-df45-4a6e-ab17-13ab99072fa7, .ba421fff-0e7b-4c04-a224-78d87db53d38, .f063ed87-da6c-4769-8e8d-7d22653476c5 {
        stroke-miterlimit: 10;
      }

      .b6afca15-df45-4a6e-ab17-13ab99072fa7, .ba421fff-0e7b-4c04-a224-78d87db53d38, .f063ed87-da6c-4769-8e8d-7d22653476c5 {
        stroke-width: 0.75px;
      }

      .ba421fff-0e7b-4c04-a224-78d87db53d38 {
        stroke: #493c05;
      }

      .a7ee712a-27ba-4929-8fe9-a89612e7de06 {
        fill: #ecc516;
      }

      .a201fb3d-1df0-462b-bdd1-a23877578042 {
        fill: #532900;
        stroke: #3a1c03;
      }

      .f5e3a8e3-6149-4ba4-b77c-114fac486d40 {
        fill: #681a1a;
      }

      .bbce6a38-74eb-41cf-b138-4cae01523739 {
        fill: #ef7089;
      }

      .ad0220c1-aecf-42e1-bf0d-70b2624ee45a {
        fill: #ff5763;
      }

      .e928f539-4437-431c-ac00-78b94c0f1779 {
        fill: #fff;
      }

      .a4a09910-440a-45c6-9fab-f2cef4be810a {
        fill: #ef304c;
      }

      .f13939c2-3706-44c5-815b-44f2c73498b5 {
        fill: #ffa979;
      }

      .b6afca15-df45-4a6e-ab17-13ab99072fa7 {
        fill: none;
      }
    </style>
  </defs>
  <g>
    <g>
      <g>
        <path class="f063ed87-da6c-4769-8e8d-7d22653476c5" d="M59,201.6s.26,7-7.5,6.65-13.19-3.57-15.25,3.87-3.58,15.64,3.86,17.7,8.76-8.65,14.47-6.92,16.83,2,18.68-11.49S59,201.6,59,201.6Z"/>
        <g>
          <path class="f063ed87-da6c-4769-8e8d-7d22653476c5" d="M129.15,172.15s-4,4,5.07,30.68c0,0,3.42,10.95,7.31,16.23s6.71,16,4.68,19.82-6.86,6-7.38-1l2.41-7.22s1.07,8.22-8.28,7.63S135.65,228,135.65,228l-6.82,5.68s-7.05-3.1,2-11.81c0,0-4.9-1.18-13.15-17.88s-10-36.22-10-36.22Z"/>
          <path class="ba421fff-0e7b-4c04-a224-78d87db53d38" d="M148.46,195.77c-6.5,8.31-13.55,14.55-21.4,18.63a50.3,50.3,0,0,1-18.52,5.45h0a64.09,64.09,0,0,1-15-.36c-.94-.13-1.88-.27-2.8-.45a68,68,0,0,1-19.43-6.71C59.28,206,50.05,197,43.64,189.51c-1.54-1.78-2.91-3.49-4.12-5C30.41,172.91,21,169.91,21,169.91c8.06-1.25,14.19-7.87,21.1-14.8,6.28-6.33,13.19-12.94,22.79-15.93.49-.16,1-.32,1.51-.45a43.31,43.31,0,0,1,9.37-1.43,59,59,0,0,1,14.3,1.1,2.12,2.12,0,0,1,.38.08,81.06,81.06,0,0,1,12.83,3.68,64.29,64.29,0,0,1,7.33,3.21c14.76,8,24.52-.77,24.52-.77L155.91,185A116.32,116.32,0,0,1,148.46,195.77Z"/>
          <path class="a7ee712a-27ba-4929-8fe9-a89612e7de06" d="M148.77,193.82c-7.65-1.54-15.3-5.58-23.85-11.45-17.72-12.17-27.7-28.77-23.18-38a63.39,63.39,0,0,1,11,2.83,49.59,49.59,0,0,1,6.26,2.6c12.52,6.64,21.33-1.6,21.33-1.6l16.54,35.47C154.63,187.23,151.12,190.79,148.77,193.82Z"/>
          <path class="a201fb3d-1df0-462b-bdd1-a23877578042" d="M44.47,189.49c-1.54-1.78-3.74-3.47-4.95-5C30.41,172.91,21,169.91,21,169.91c8.06-1.25,15.21-8.4,22.11-15.33C39.84,161.05,36,174,44.47,189.49Z"/>
          <path class="a201fb3d-1df0-462b-bdd1-a23877578042" d="M127.06,214.4a50.3,50.3,0,0,1-18.52,5.45h0c-7-4.81-18.82-16.23-25-40.84-3.79-15.13.38-29.26,6.56-40.6a80.82,80.82,0,0,1,13.21,3.76c-4.76,9-10,24.64-2.53,42C108.07,201.2,119.53,210.12,127.06,214.4Z"/>
          <path class="a201fb3d-1df0-462b-bdd1-a23877578042" d="M90.78,219a68,68,0,0,1-19.43-6.71C64.09,205.55,55,194.51,52.93,180.1c-2.61-17.61,4.29-30.83,12-40.92.49-.16,1-.32,1.51-.45a43.31,43.31,0,0,1,9.37-1.43c-5.37,8.27-12.62,23.41-8,40.21C73.19,197.37,85.69,213.18,90.78,219Z"/>
          <g>
            <path class="f063ed87-da6c-4769-8e8d-7d22653476c5" d="M140.53,97s-10.31-2.24-18.11-25.34,8.82-45.33,20.93-44,10.13,11.46-2.23,16.86-17.63,33.06,3.11,50.22C144.23,94.69,155.14,108.59,140.53,97Z"/>
            <path class="f063ed87-da6c-4769-8e8d-7d22653476c5" d="M172.44,101.44s1.46-19.31,8.05-30.83,25.33-36,42.11-25.84c0,0,4.47,4.91,1.21,9.1s-8.32,4.56-12.41.87-34.68,11.8-34.22,46.7C177.18,101.44,174.34,110.48,172.44,101.44Z"/>
            <g>
              <path class="f063ed87-da6c-4769-8e8d-7d22653476c5" d="M208.43,172.62c-4.86,22.74-27.28,31.61-51.84,31.3a.21.21,0,0,1-.08,0,111.75,111.75,0,0,1-24.3-3.11c-32.29-7.73-45-28.72-35.37-61,7.21-24.26,26.7-44.71,51.27-47.09a51.54,51.54,0,0,1,17,1.24C197.39,101.71,215.65,138.94,208.43,172.62Z"/>
              <path class="a7ee712a-27ba-4929-8fe9-a89612e7de06" d="M158.55,203.41a112.31,112.31,0,0,1-24.29-3.13c-32.29-7.72-45-28.56-35.48-60.53,7.16-24,26.59-44.27,51.15-46.57-11.57,4.67-34.13,17.58-40.83,48.7C100.39,182.3,130.78,200.44,158.55,203.41Z"/>
              <g>
                <g>
                  <g>
                    <g>
                      <path class="f5e3a8e3-6149-4ba4-b77c-114fac486d40" d="M184.69,172s-2.57,10.75-9.69,17.59a19.47,19.47,0,0,1-6.71,4.4c-9.66,3.7-20.25.75-25.43-10.75-.13-.24-.22-.49-.34-.75a38.56,38.56,0,0,1-2.59-10.36s19.07,7.39,37.87,2.33A44.35,44.35,0,0,0,184.69,172Z"/>
                      <path class="bbce6a38-74eb-41cf-b138-4cae01523739" d="M184.72,172a29.11,29.11,0,0,1-1,3.62c-.4,1.17-.82,2.33-1.3,3.47a40.73,40.73,0,0,1-3.47,6.6,28.39,28.39,0,0,1-5,5.65,19.08,19.08,0,0,1-6.6,3.75,20.1,20.1,0,0,1-15-.49,19.29,19.29,0,0,1-6.18-4.55,24.92,24.92,0,0,1-4.17-6.4l0,.06a26.61,26.61,0,0,1-1.12-2.82c-.31-.93-.59-1.88-.83-2.83a42.55,42.55,0,0,1-1-5.79l-.15-1.34,1.27.47a69.18,69.18,0,0,0,10.9,2.92,73.32,73.32,0,0,0,11.25,1.32A61.24,61.24,0,0,0,173.7,175c1-.11,1.86-.35,2.8-.52s1.86-.38,2.77-.64A48.62,48.62,0,0,0,184.72,172Zm-.06.07a36.7,36.7,0,0,1-5.31,2c-.91.29-1.84.52-2.77.73s-1.85.46-2.8.6a57.4,57.4,0,0,1-11.41.87A71.39,71.39,0,0,1,151,175.15a70.53,70.53,0,0,1-11.08-2.9l.12-.1a43.35,43.35,0,0,0,1,5.66,31.8,31.8,0,0,0,1.89,5.41h0a24.82,24.82,0,0,0,4,6.16,18.25,18.25,0,0,0,5.86,4.37,19.52,19.52,0,0,0,14.36.57c4.76-1.41,8.56-5,11.37-9A45.27,45.27,0,0,0,184.66,172.06Z"/>
                    </g>
                    <path class="ad0220c1-aecf-42e1-bf0d-70b2624ee45a" d="M159.62,183.21c8.08,1,13.91,7,9.17,10.72a9.72,9.72,0,0,1-4.49,1.69c-16.79-.67-20.59-9.33-20-14.87,2.06-.46,4.37.35,10.21,2.12A40.65,40.65,0,0,1,159.62,183.21Z"/>
                    <path class="f5e3a8e3-6149-4ba4-b77c-114fac486d40" d="M153.77,181.47a15,15,0,0,1,4.77,12.06s-1.23-7.79-7.31-12.35Z"/>
                    <path class="e928f539-4437-431c-ac00-78b94c0f1779" d="M164.48,186.26a38.91,38.91,0,0,1-10.35.16,15.82,15.82,0,0,1-13.82-13.63l0-.12s18.54,7.48,37.34,2.41C177.78,179.92,175.27,184.67,164.48,186.26Z"/>
                  </g>
                  <path class="a4a09910-440a-45c6-9fab-f2cef4be810a" d="M138.39,165.59a5.47,5.47,0,0,1,.59,2.13,5.36,5.36,0,0,1-.35,2.26,3.75,3.75,0,0,1-1.55,1.74,4.22,4.22,0,0,1-1.06.43,6,6,0,0,1-1.1.11v0a5.32,5.32,0,0,0,2-.81,3.59,3.59,0,0,0,1.31-1.62,6.68,6.68,0,0,0,.17-4.17Z"/>
                  <path class="a4a09910-440a-45c6-9fab-f2cef4be810a" d="M187.59,174.55a4.53,4.53,0,0,1-1.65-.91,6.08,6.08,0,0,1-1.22-1.49,5.19,5.19,0,0,1-.57-1.84,4.27,4.27,0,0,1,.2-1.88h.05a6.31,6.31,0,0,0,.13,1.79,5.59,5.59,0,0,0,.63,1.68,6.87,6.87,0,0,0,2.46,2.59Z"/>
                </g>
                <ellipse class="f13939c2-3706-44c5-815b-44f2c73498b5" cx="125.18" cy="161.94" rx="6.59" ry="9.39" transform="translate(-61.45 245.99) rotate(-76.54)"/>
                <ellipse class="f13939c2-3706-44c5-815b-44f2c73498b5" cx="199.73" cy="161.57" rx="9.39" ry="6.59" transform="translate(-25.48 37.97) rotate(-10.21)"/>
              </g>
            </g>
          </g>
          <path class="f063ed87-da6c-4769-8e8d-7d22653476c5" d="M45.58,174.34a5.39,5.39,0,0,1,8.24,4.84,11.87,11.87,0,0,1-3.06,7.74c-4.74,4.93-12.78,9.71-21,7s-11.57,4-14.13,8S4.76,205.41,5,195.74c0,0-.26-13,10.4-18.44,0,0,4.11-3.38,16.27.55C39.12,180.26,42.24,176.51,45.58,174.34Z"/>
        </g>
      </g>
      <path class="f063ed87-da6c-4769-8e8d-7d22653476c5" d="M92.28,170.81s-19.23,16.8-3.41,30.74c9.3,8.19,13.77,12.66,17.32,13.43,5,1.07,10.3,11.69,9,15.42,0,0-2.22,7.71-5.85,2.91,0,0-7,9.06-17.34-5,0,0-.14-4.45,7.17-5,0,0-47.68-20.31-28.24-58.7C71,164.62,85.62,156.42,92.28,170.81Z"/>
      <path class="b6afca15-df45-4a6e-ab17-13ab99072fa7" d="M100.69,227.74s6.17.23-4.51-6.34"/>
    </g>
    <line class="f063ed87-da6c-4769-8e8d-7d22653476c5" x1="109.36" y1="233.31" x2="111.54" y2="229.07"/>
  </g>
</svg>
