<svg id="b4588148-9ae6-40b3-a406-8a0750f3783c" data-name="Layer 1" xmlns="http://www.w3.org/2000/svg" width="250" height="230" viewBox="0 0 250 230">
  <defs>
    <style>
      .a40ddf75-36cd-4553-9138-6e7432d7d38e, .f5b406e9-2eaf-4fe5-ae9e-f7ac59d8337c {
        fill: #ffe309;
      }

      .a2e22b8c-d673-4eb7-835c-2ee887f7a0d7, .a40ddf75-36cd-4553-9138-6e7432d7d38e {
        stroke: #665608;
      }

      .a2e22b8c-d673-4eb7-835c-2ee887f7a0d7, .a40ddf75-36cd-4553-9138-6e7432d7d38e, .a7ed9fc4-f801-47a3-a4f2-1e44d1efcd46, .f5b406e9-2eaf-4fe5-ae9e-f7ac59d8337c {
        stroke-miterlimit: 10;
      }

      .a2e22b8c-d673-4eb7-835c-2ee887f7a0d7, .a40ddf75-36cd-4553-9138-6e7432d7d38e, .f5b406e9-2eaf-4fe5-ae9e-f7ac59d8337c {
        stroke-width: 0.75px;
      }

      .f5b406e9-2eaf-4fe5-ae9e-f7ac59d8337c {
        stroke: #493c05;
      }

      .ace19c4d-81f6-4ea7-87fc-a985ab5de5aa {
        fill: #ecc516;
      }

      .a7ed9fc4-f801-47a3-a4f2-1e44d1efcd46 {
        fill: #532900;
        stroke: #3a1c03;
      }

      .a2180d67-869e-4232-9a94-b635132d4101 {
        fill: #681a1a;
      }

      .bfdf8856-4c06-434a-8b8a-3fabc4c3b8d2 {
        fill: #ef7089;
      }

      .ff3ab84b-2d64-4909-8228-4029a8f15111 {
        fill: #ff5763;
      }

      .a0dae80c-08e5-4848-99ba-e7feb8e561dc {
        fill: #fff;
      }

      .bc99c1a7-ee0f-4829-9fba-3364e79f22e2 {
        fill: #ef304c;
      }

      .fba4310d-0e39-4120-a82f-b3d2abf5c1d6 {
        fill: #ffa979;
      }

      .a2e22b8c-d673-4eb7-835c-2ee887f7a0d7 {
        fill: none;
      }
    </style>
  </defs>
  <g>
    <g>
      <g>
        <path class="a40ddf75-36cd-4553-9138-6e7432d7d38e" d="M60.13,191.13s.9,7-6.92,7.34-13.55-2.39-14.94,5.26-2.18,16,5.47,17.4,8-9.46,13.89-8.24,17.06.5,17.69-13.22S60.13,191.13,60.13,191.13Z"/>
        <g>
          <path class="a40ddf75-36cd-4553-9138-6e7432d7d38e" d="M127.79,155.26s-3.61,4.37,7.87,30.31c0,0,4.41,10.66,8.79,15.61s8.18,15.41,6.48,19.44-6.33,6.64-7.49-.36l1.76-7.46s1.82,8.15-7.61,8.4,1.76-10.58,1.76-10.58L133,216.94s-7.35-2.47.94-12c0,0-5-.75-14.81-16.75s-13.29-35.42-13.29-35.42Z"/>
          <path class="f5b406e9-2eaf-4fe5-ae9e-f7ac59d8337c" d="M149.29,177.2c-5.76,8.92-12.27,15.81-19.77,20.61A50.81,50.81,0,0,1,111.44,205h0a64.13,64.13,0,0,1-15,1c-1,0-1.9-.1-2.84-.2a68.45,68.45,0,0,1-20.09-5c-12.68-5.23-22.75-13.45-29.86-20.38-1.7-1.65-3.23-3.23-4.58-4.66-10.18-10.79-19.88-12.94-19.88-12.94,8-2,13.52-9.18,19.82-16.75,5.72-6.92,12.06-14.17,21.41-18,.48-.2,1-.4,1.48-.59a44.27,44.27,0,0,1,9.26-2.28,60.49,60.49,0,0,1,14.45-.19,2.32,2.32,0,0,1,.38,0,81.45,81.45,0,0,1,13.2,2.53,64.89,64.89,0,0,1,7.65,2.55c15.52,6.7,24.51-3,24.51-3l24.48,38.62A119,119,0,0,1,149.29,177.2Z"/>
          <path class="ace19c4d-81f6-4ea7-87fc-a985ab5de5aa" d="M149.43,175.21c-7.81-.85-15.84-4.21-25-9.33-18.87-10.6-30.38-26.34-26.69-36a64.13,64.13,0,0,1,11.29,1.85,49.73,49.73,0,0,1,6.51,2c13.16,5.52,21.24-3.53,21.24-3.53l19.8,34.07C154.71,168.08,151.51,172,149.43,175.21Z"/>
          <path class="a7ed9fc4-f801-47a3-a4f2-1e44d1efcd46" d="M44.45,180.3c-1.71-1.65-4.07-3.14-5.42-4.57-10.18-10.79-19.88-12.94-19.88-12.94,8-2,14.49-9.8,20.79-17.37C37.23,152.2,34.57,165.56,44.45,180.3Z"/>
          <path class="a7ed9fc4-f801-47a3-a4f2-1e44d1efcd46" d="M129.52,197.81A50.81,50.81,0,0,1,111.44,205h0c-7.46-4.19-20.35-14.57-28.77-38.69-5.17-14.83-2.26-29.38,2.91-41.31a82.08,82.08,0,0,1,13.58,2.58c-4,9.47-7.79,25.61,1.26,42.36C109.29,186.3,121.59,194.2,129.52,197.81Z"/>
          <path class="a7ed9fc4-f801-47a3-a4f2-1e44d1efcd46" d="M93.56,205.73a68.45,68.45,0,0,1-20.09-5c-7.9-6.14-18-16.39-21.39-30.65-4.21-17.42,1.52-31.3,8.3-42.12.48-.2,1-.4,1.48-.59a44.27,44.27,0,0,1,9.26-2.28c-4.63,8.78-10.53,24.62-4.4,41.05C74,185.6,87.93,200.33,93.56,205.73Z"/>
          <g>
            <path class="a40ddf75-36cd-4553-9138-6e7432d7d38e" d="M149.78,72.53s-9.37-5-10.57-29.53,21-41.47,32.39-36.87,6.66,13.89-6.8,15.72S138.63,49,154,71.35C154,71.35,160.73,87.82,149.78,72.53Z"/>
            <path class="a40ddf75-36cd-4553-9138-6e7432d7d38e" d="M179.45,85.65s6.73-18.3,16.29-27.64,34.42-27.86,47.89-13.44c0,0,3,6-1.33,9.15S233,55.84,230,51.14,193.2,53,184,87C184,87,178.8,94.93,179.45,85.65Z"/>
            <g>
              <path class="a40ddf75-36cd-4553-9138-6e7432d7d38e" d="M194.72,164.49c-11,20.69-35.13,23.1-58.83,16a.11.11,0,0,1-.08,0,112.55,112.55,0,0,1-22.67-9.69C84,154.44,77.49,130.62,95.67,102c13.66-21.51,38.16-35.95,62.61-31.49a51.51,51.51,0,0,1,16.09,5.87C203.54,92.78,211,133.86,194.72,164.49Z"/>
              <path class="ace19c4d-81f6-4ea7-87fc-a985ab5de5aa" d="M137.93,180.59a113.82,113.82,0,0,1-22.67-9.72c-29.14-16.37-35.73-40.05-17.69-68.39,13.54-21.31,37.94-35.56,62.35-31C147.43,72.79,122,79.08,107,107.38,87.41,144.13,111.86,170.07,137.93,180.59Z"/>
              <g>
                <g>
                  <g>
                    <g>
                      <path class="a2180d67-869e-4232-9a94-b635132d4101" d="M171.88,157.38s-5.45,9.71-14.22,14.38a19.67,19.67,0,0,1-7.72,2.41c-10.37.93-19.81-4.85-21.66-17.41-.06-.27-.08-.54-.12-.82a38.41,38.41,0,0,1,.34-10.74s16.43,12.4,36,12.67A43.53,43.53,0,0,0,171.88,157.38Z"/>
                      <path class="bfdf8856-4c06-434a-8b8a-3fabc4c3b8d2" d="M171.92,157.35a28.67,28.67,0,0,1-1.95,3.24c-.71,1-1.44,2-2.22,3a40.94,40.94,0,0,1-5.18,5.44,28.46,28.46,0,0,1-6.36,4.1,19.28,19.28,0,0,1-7.42,1.81,20.18,20.18,0,0,1-14.38-4.6,19.26,19.26,0,0,1-4.73-6.1,25.22,25.22,0,0,1-2.29-7.35l0,.07a28,28,0,0,1-.31-3c0-1,0-2,0-3a43.06,43.06,0,0,1,.6-5.89l.22-1.33,1.1.8a69.22,69.22,0,0,0,9.75,5.83,72.91,72.91,0,0,0,10.54,4.37,61.42,61.42,0,0,0,11.13,2.52c1,.15,1.9.17,2.85.26s1.91.15,2.87.15A51.75,51.75,0,0,0,171.92,157.35Zm-.08.06a36.61,36.61,0,0,1-5.7.51c-1,0-1.92,0-2.88-.06s-1.92-.06-2.88-.18a58,58,0,0,1-11.29-2.3,72.12,72.12,0,0,1-10.71-4.25,69.76,69.76,0,0,1-9.93-5.86l.14-.06A43,43,0,0,0,128,151a30.8,30.8,0,0,0,.34,5.76h0a24.58,24.58,0,0,0,2.16,7.06,18.33,18.33,0,0,0,4.46,5.84,19.7,19.7,0,0,0,13.75,4.51,18.76,18.76,0,0,0,7.19-1.63,28.07,28.07,0,0,0,6.29-3.92A45.07,45.07,0,0,0,171.84,157.41Z"/>
                    </g>
                    <path class="ff3ab84b-2d64-4909-8228-4029a8f15111" d="M144.52,161.31c7.55,3.21,11.54,10.65,5.93,12.91a9.89,9.89,0,0,1-4.81.41c-16.07-5.28-17.37-14.71-15.26-19.91,2.12.13,4.14,1.54,9.31,4.87A38.87,38.87,0,0,1,144.52,161.31Z"/>
                    <path class="a2180d67-869e-4232-9a94-b635132d4101" d="M139.34,158a15.06,15.06,0,0,1,1.3,13s1-7.88-3.69-14Z"/>
                    <path class="a0dae80c-08e5-4848-99ba-e7feb8e561dc" d="M148.39,165.6a39,39,0,0,1-10.07-2.69,15.93,15.93,0,0,1-9.63-17l0-.12s15.89,12.34,35.5,12.61C163,163.13,159.28,167,148.39,165.6Z"/>
                  </g>
                  <path class="bc99c1a7-ee0f-4829-9fba-3364e79f22e2" d="M128.81,138.41a5.4,5.4,0,0,1-1,4.31,3.72,3.72,0,0,1-2,1.26,4.51,4.51,0,0,1-1.15.13,5.68,5.68,0,0,1-1.09-.21v-.05a5.19,5.19,0,0,0,2.11-.23,3.62,3.62,0,0,0,1.72-1.21,6.79,6.79,0,0,0,1.31-4Z"/>
                  <path class="bc99c1a7-ee0f-4829-9fba-3364e79f22e2" d="M174,160.62a4.39,4.39,0,0,1-1.35-1.33,6.22,6.22,0,0,1-.77-1.77,5.51,5.51,0,0,1,0-1.94,4.38,4.38,0,0,1,.71-1.77l.05,0a6.81,6.81,0,0,0-.37,1.77,5.7,5.7,0,0,0,.15,1.8,7,7,0,0,0,1.67,3.19Z"/>
                </g>
                <ellipse class="fba4310d-0e39-4120-a82f-b3d2abf5c1d6" cx="117.02" cy="131.23" rx="6.64" ry="9.46" transform="translate(-54.71 168.99) rotate(-60.68)"/>
                <ellipse class="fba4310d-0e39-4120-a82f-b3d2abf5c1d6" cx="189.33" cy="151.39" rx="6.64" ry="9.46" transform="translate(20.02 324.88) rotate(-84.35)"/>
              </g>
            </g>
          </g>
          <path class="a40ddf75-36cd-4553-9138-6e7432d7d38e" d="M44.19,165a5.42,5.42,0,0,1,8.7,4.11,12,12,0,0,1-2.37,8c-4.3,5.37-11.93,10.88-20.38,8.92s-11.24,5-13.45,9.27-10.63,4.51-11.25-5.22c0,0-1.43-13,8.76-19.43,0,0,3.82-3.76,16.37-.91C38.24,171.53,41,167.48,44.19,165Z"/>
        </g>
      </g>
      <path class="a40ddf75-36cd-4553-9138-6e7432d7d38e" d="M90.7,157.24s-17.76,18.59-.64,31.13c10.07,7.38,15,11.46,18.58,11.91,5.06.62,11.39,10.79,10.44,14.65,0,0-1.52,7.93-5.6,3.45,0,0-6.18,9.71-17.84-3.43,0,0-.54-4.45,6.74-5.67,0,0-49.65-16.06-33.63-56.31C68.75,153,82.72,143.42,90.7,157.24Z"/>
      <path class="a2e22b8c-d673-4eb7-835c-2ee887f7a0d7" d="M104.28,213.58s6.21-.34-5.09-6"/>
    </g>
    <line class="a40ddf75-36cd-4553-9138-6e7432d7d38e" x1="113.48" y1="218.38" x2="115.29" y2="213.92"/>
  </g>
</svg>
