<svg id="abb85da1-82d8-45cb-afe4-53c57b2c15bc" data-name="Layer 1" xmlns="http://www.w3.org/2000/svg" width="121.06" height="120.35" viewBox="0 0 121.06 120.35">
  <defs>
    <style>
      .e6d55f16-2c11-44c0-a060-865d128cb161 {
        fill: #bcfde5;
      }

      .a8b043e7-bd92-497e-8db9-124e2b89d104 {
        fill: #ebf7f2;
      }
    </style>
  </defs>
  <g>
    <g>
      <path class="e6d55f16-2c11-44c0-a060-865d128cb161" d="M106.58,101.35C96.14,111.91,68.63,90,51.74,73.77S27,36.89,37.44,26.33,66.08,27.49,83,43.74,117,90.78,106.58,101.35Z"/>
      <path class="a8b043e7-bd92-497e-8db9-124e2b89d104" d="M106.62,101.38a9.63,9.63,0,0,1-3.13,2.06,10.71,10.71,0,0,1-3.67.73A21.1,21.1,0,0,1,92.44,103a62.08,62.08,0,0,1-13.38-6.71A182,182,0,0,1,55.39,77.85C47.89,71.28,41,63.72,36.31,54.69a38.76,38.76,0,0,1-4.37-14.56,21,21,0,0,1,.84-7.71,16.81,16.81,0,0,1,4-6.72A15.8,15.8,0,0,1,40,23.28a14.24,14.24,0,0,1,3.71-1.45,18,18,0,0,1,7.8.12,32.31,32.31,0,0,1,7.22,2.57,57.72,57.72,0,0,1,6.59,3.75,104.75,104.75,0,0,1,11.87,9.27A126.94,126.94,0,0,1,87.83,48.11,111.42,111.42,0,0,1,104.43,73a57.59,57.59,0,0,1,4.92,14.14,24.32,24.32,0,0,1,.33,7.47A11.55,11.55,0,0,1,106.62,101.38Zm-.07-.07a11.46,11.46,0,0,0,3-6.67,24.38,24.38,0,0,0-.36-7.43,57.35,57.35,0,0,0-5-14.07A110.44,110.44,0,0,0,87.43,48.48a128.69,128.69,0,0,0-10.75-10.4A106.6,106.6,0,0,0,64.8,29a56.27,56.27,0,0,0-6.51-3.67,31.33,31.33,0,0,0-7-2.47,17.06,17.06,0,0,0-7.39-.09,12.93,12.93,0,0,0-3.44,1.36,14.93,14.93,0,0,0-2.93,2.27,15.79,15.79,0,0,0-3.8,6.31,19.92,19.92,0,0,0-.84,7.36A37.78,37.78,0,0,0,37.09,54.3c4.49,8.94,11.26,16.51,18.67,23.15A180.5,180.5,0,0,0,79.18,96a62.17,62.17,0,0,0,13.31,6.75A21.07,21.07,0,0,0,99.81,104a10.52,10.52,0,0,0,3.64-.71A9.49,9.49,0,0,0,106.55,101.31Z"/>
    </g>
    <g>
      <path class="e6d55f16-2c11-44c0-a060-865d128cb161" d="M99.45,99.32c-9.13,11.69-39-6.93-57.7-21.14S12.85,44.38,22,32.69s28.59-2.11,47.26,12.1S108.59,87.64,99.45,99.32Z"/>
      <path class="a8b043e7-bd92-497e-8db9-124e2b89d104" d="M99.49,99.36a9.48,9.48,0,0,1-2.87,2.4,10.66,10.66,0,0,1-3.57,1.14,21.39,21.39,0,0,1-7.48-.37A62.48,62.48,0,0,1,71.5,97.38,183,183,0,0,1,45.85,81.83C37.64,76.16,29.86,69.45,24.2,61a39.1,39.1,0,0,1-6.06-14,21.08,21.08,0,0,1-.07-7.76,16.68,16.68,0,0,1,3.21-7.15,15.58,15.58,0,0,1,2.85-2.77,14,14,0,0,1,3.53-1.86,17.9,17.9,0,0,1,7.77-.77,33.27,33.27,0,0,1,7.47,1.74,58.09,58.09,0,0,1,7,3,105.27,105.27,0,0,1,12.87,7.85A129,129,0,0,1,74.6,48.59,112.06,112.06,0,0,1,94,71.44a57.77,57.77,0,0,1,6.55,13.48,24.7,24.7,0,0,1,1.21,7.39A11.61,11.61,0,0,1,99.49,99.36Zm-.08-.07a11.41,11.41,0,0,0,2.2-7A24.09,24.09,0,0,0,100.38,85a57.55,57.55,0,0,0-6.59-13.4A111.12,111.12,0,0,0,74.24,49a127.64,127.64,0,0,0-11.89-9.1A107.6,107.6,0,0,0,49.5,32.23a57.72,57.72,0,0,0-6.89-2.9,31.41,31.41,0,0,0-7.27-1.66,16.93,16.93,0,0,0-7.35.75,12.53,12.53,0,0,0-3.27,1.74,14.83,14.83,0,0,0-2.66,2.59,15.8,15.8,0,0,0-3,6.72,20.12,20.12,0,0,0,0,7.42,38.12,38.12,0,0,0,5.86,13.64C30.44,68.89,38,75.64,46.18,81.38A180.48,180.48,0,0,0,71.6,97.17a61.82,61.82,0,0,0,14,5.19,20.83,20.83,0,0,0,7.42.41,10.75,10.75,0,0,0,3.54-1.11A9.39,9.39,0,0,0,99.41,99.29Z"/>
    </g>
  </g>
</svg>
