<svg id="f933d72a-157f-4a8f-a2f7-53aef2cf88d5" data-name="Layer 1" xmlns="http://www.w3.org/2000/svg" width="64.26" height="26.37" viewBox="0 0 64.26 26.37">
  <defs>
    <style>
      .b83b0895-e96c-48d7-b5c7-edf86c93c71b, .e1ca2b72-c4ee-42cf-acef-ea1c07d0cfea {
        fill: #fff;
      }

      .e6c1367b-067f-4291-b7bc-8b6510ab0703 {
        fill: #1f1f33;
      }

      .f5841388-6faa-4fa8-87ed-b3fc3f6d3ff9 {
        fill: #2b1909;
      }

      .adf5c70b-2fb3-45f2-af96-a635d1e063ff {
        fill: #f9f5f2;
      }

      .b83b0895-e96c-48d7-b5c7-edf86c93c71b {
        stroke: #1f1f33;
      }

      .ae5737e8-7e27-439f-bf6f-5eacfb91cb2c, .b83b0895-e96c-48d7-b5c7-edf86c93c71b {
        stroke-miterlimit: 10;
        stroke-width: 0.75px;
      }

      .ae5737e8-7e27-439f-bf6f-5eacfb91cb2c {
        fill: #9b612d;
        stroke: #6d4c24;
      }
    </style>
  </defs>
  <g>
    <g>
      <g>
        <g>
          <g>
            <ellipse class="e1ca2b72-c4ee-42cf-acef-ea1c07d0cfea" cx="52.31" cy="13.28" rx="10.81" ry="12.54" transform="translate(-1.5 17.39) rotate(-18.62)"/>
            <path class="e6c1367b-067f-4291-b7bc-8b6510ab0703" d="M62.57,9.78c3.64,9.93-5.16,20.59-15.32,14.63-8.47-5-9.24-19.89.9-23.33,6.27-2,12.6,2.85,14.42,8.7Zm-.07,0C60.68,4.07,54.35-.64,48.28,1.47,38.8,4.93,39.7,19.09,47.6,23.86c9.79,6,18.37-4.37,14.9-14Z"/>
          </g>
          <g>
            <ellipse class="f5841388-6faa-4fa8-87ed-b3fc3f6d3ff9" cx="53.36" cy="13.43" rx="7.96" ry="8.95" transform="translate(-1.31 19.63) rotate(-20.6)"/>
            <ellipse class="adf5c70b-2fb3-45f2-af96-a635d1e063ff" cx="56.34" cy="7.88" rx="2.16" ry="2.42" transform="translate(0.83 20.33) rotate(-20.6)"/>
          </g>
        </g>
        <g>
          <ellipse class="b83b0895-e96c-48d7-b5c7-edf86c93c71b" cx="11.16" cy="12.27" rx="12.22" ry="9.4" transform="translate(-5.08 15.63) rotate(-59.43)"/>
          <g>
            <ellipse class="f5841388-6faa-4fa8-87ed-b3fc3f6d3ff9" cx="13.35" cy="12.91" rx="8.72" ry="6.92" transform="translate(-4.43 18.28) rotate(-60.86)"/>
            <ellipse class="adf5c70b-2fb3-45f2-af96-a635d1e063ff" cx="16.11" cy="7.88" rx="2.36" ry="1.87" transform="translate(1.38 18.11) rotate(-60.86)"/>
          </g>
        </g>
      </g>
      <path class="ae5737e8-7e27-439f-bf6f-5eacfb91cb2c" d="M2.66,8.21S5.92,19.89,19.6,16.43c0,0,4.79-9.31-1.77-14.39C17.83,2,10.06-3.55,2.66,8.21Z"/>
    </g>
    <path class="ae5737e8-7e27-439f-bf6f-5eacfb91cb2c" d="M42.66,18.24s12.79,3.55,20.2-7.36c0,0-4.51-13.74-16-8.83C46.81,2.05,38.05,5.5,42.66,18.24Z"/>
  </g>
</svg>
