<svg id="b146d352-d427-493e-8975-7629311a108a" data-name="Layer 1" xmlns="http://www.w3.org/2000/svg" width="200" height="240" viewBox="0 0 200 240">
  <defs>
    <style>
      .e240800c-ff5e-4c84-b4a1-68dadb9631ab {
        fill: #bcfde5;
      }

      .b842c213-7dc3-4218-99b1-8e1988cb2008 {
        fill: #ebf7f2;
      }
    </style>
  </defs>
  <g>
    <g>
      <path class="e240800c-ff5e-4c84-b4a1-68dadb9631ab" d="M14,159.13c10.74,20.63,61.67,0,94.21-17S161.86,97.64,151.13,77,108,65.89,75.43,82.81,3.29,138.5,14,159.13Z"/>
      <path class="b842c213-7dc3-4218-99b1-8e1988cb2008" d="M14.07,159.11c13.6,24,78.84-9.39,97-19.07a113.22,113.22,0,0,0,27.62-21.25c7.65-8.42,14.51-18.85,14.4-30.54-.12-7.46-3.77-15.14-10.35-19-15.67-8.54-40.31,1.71-55.47,8.36a173.51,173.51,0,0,0-56.91,40.27c-8.94,9.92-22.82,27.29-16.28,41.19Zm-.09,0c-6.66-13.91,7.23-31.48,16.13-41.45A174,174,0,0,1,87,77.05c15.45-6.86,40.13-17.25,56.21-8.57,6.9,3.93,10.76,12,10.82,19.75-.26,19.65-17.58,35.75-32.67,46.2-13,8.67-27.42,15.07-41.78,21.2-15.18,6-55.26,22.1-65.59,3.52Z"/>
    </g>
    <g>
      <path class="e240800c-ff5e-4c84-b4a1-68dadb9631ab" d="M19.53,162.59c7.39,22,60.92,9.56,95.7-2.1s59.91-35.62,52.52-57.67-40.9-17.71-75.68-6S12.14,140.54,19.53,162.59Z"/>
      <path class="b842c213-7dc3-4218-99b1-8e1988cb2008" d="M19.58,162.58c9.69,25.82,79.34,3,98.78-3.74A113.1,113.1,0,0,0,149,142.16c8.87-7.13,17.26-16.37,19-27.94,1.05-7.38-1.36-15.54-7.26-20.33-14.15-10.88-40.09-4.59-56.1-.38a173.12,173.12,0,0,0-62.48,30.92c-10.38,8.41-26.79,23.4-22.5,38.15Zm-.1,0c-4.4-14.78,12-30,22.4-38.44a174,174,0,0,1,62.5-31.3c16.33-4.37,42.34-10.79,56.87.29,6.2,5,8.76,13.49,7.61,21.2-3.32,19.36-22.94,32.57-39.46,40.54-14.22,6.54-29.44,10.62-44.57,14.44-15.94,3.6-58,13.23-65.35-6.73Z"/>
    </g>
  </g>
</svg>
