<svg id="bc07d5d9-9137-49fd-af6d-8389712e1c88" data-name="Layer 1" xmlns="http://www.w3.org/2000/svg" width="250" height="280" viewBox="0 0 250 280">
  <defs>
    <style>
      .b6e07e8d-75aa-4b1c-9ebb-2442c149fe60, .fc2eaa8f-adf2-433c-b9a4-8bbc17e0b0ee {
        fill: #ffe309;
        stroke-width: 0.75px;
      }

      .fc2eaa8f-adf2-433c-b9a4-8bbc17e0b0ee {
        stroke: #665608;
      }

      .b5acad70-c5f3-4727-9035-4fe07202cd69, .b6e07e8d-75aa-4b1c-9ebb-2442c149fe60, .fc2eaa8f-adf2-433c-b9a4-8bbc17e0b0ee {
        stroke-miterlimit: 10;
      }

      .b6e07e8d-75aa-4b1c-9ebb-2442c149fe60 {
        stroke: #493c05;
      }

      .f4243a23-0a05-4079-a3b1-2e47176a6103 {
        fill: #ecc516;
      }

      .b5acad70-c5f3-4727-9035-4fe07202cd69 {
        fill: #532900;
        stroke: #3a1c03;
      }

      .a3c78bf2-a48e-46f3-b125-c87f5b47b65e {
        fill: #681a1a;
      }

      .e7e2850c-bd34-4f3d-90bb-43b8ef147cd3 {
        fill: #ef7089;
      }

      .a6cdca6d-4709-4182-8ce8-2b0e085f13cf {
        fill: #ff5763;
      }

      .b36ce6ac-e7b4-4410-a918-c62ce4c784f8 {
        fill: #fff;
      }

      .f4d4c1fd-0ea3-4bdd-a66c-748967abe1c9 {
        fill: #ef304c;
      }

      .af3cbb00-dfee-4d66-83d7-bac346f73314 {
        fill: #ffa979;
      }
    </style>
  </defs>
  <g>
    <path class="fc2eaa8f-adf2-433c-b9a4-8bbc17e0b0ee" d="M169.46,245.37s-1.64,7.28,6.58,8.46,14.56-1.18,15.26,7,.71,17.14-7.51,17.84-7.52-10.8-13.86-10.09-18.08-1.18-17.37-15.73S169.46,245.37,169.46,245.37Z"/>
    <g>
      <path class="fc2eaa8f-adf2-433c-b9a4-8bbc17e0b0ee" d="M122.27,76.79S133.54,77,147.39,55,149.51,5.64,136.59,4s-13.38,9.39-1.88,18.08S144.81,60.82,119,73.5C119,73.5,104.19,85.24,122.27,76.79Z"/>
      <path class="fc2eaa8f-adf2-433c-b9a4-8bbc17e0b0ee" d="M88,73.5s3.29-20.43-.7-34S69.91-4.22,50,2.12c0,0-5.87,4-3.52,9.16s7.51,6.81,12.68,4,33.11,20.9,24,57.06C83.06,72.33,83.76,82.42,88,73.5Z"/>
      <path class="fc2eaa8f-adf2-433c-b9a4-8bbc17e0b0ee" d="M77.07,179.39S75,185,45,188.2c0,0-12.15,1.58-19,.18s-22-1.94-24.83,1.76-.52,7.92,6.52,5.28l7.22-1.59s-8.45,2.65-3.7,11.45S20,198.06,20,198.06l-2.47,9.16s6.16,5.46,10.57-7.22c0,0,3.34,4.22,23.24,4.75S91,198.24,91,198.24Z"/>
      <path class="b6e07e8d-75aa-4b1c-9ebb-2442c149fe60" d="M74.41,191.52c.69,11.25,3.13,21,7.58,29.36a53.87,53.87,0,0,0,13,16h0a67.69,67.69,0,0,0,13.39,8.72c.9.46,1.82.9,2.74,1.3a72.83,72.83,0,0,0,21.17,5.85c14.45,1.75,28-.62,38.22-3.33,2.44-.64,4.67-1.32,6.67-1.94,15-4.69,25.12-1.64,25.12-1.64-6.34-6-7.74-15.52-9.63-25.8-1.7-9.38-3.8-19.38-10.44-27.82-.34-.44-.68-.88-1.06-1.32a47.71,47.71,0,0,0-7.38-6.93,64.4,64.4,0,0,0-13.28-7.68,3.08,3.08,0,0,0-.38-.16,86.42,86.42,0,0,0-13.53-4.51,68.12,68.12,0,0,0-8.4-1.62c-17.84-1.87-21.13-15.5-21.13-15.5l-42.73,23A125.51,125.51,0,0,0,74.41,191.52Z"/>
      <path class="f4243a23-0a05-4079-a3b1-2e47176a6103" d="M75.31,189.61C83,192.89,92.16,194,103.25,194c23,0,41.81-8.58,43.44-19.49a68.3,68.3,0,0,0-11.41-4.16,52.83,52.83,0,0,0-7.09-1.49c-15-1.73-17.82-14.31-17.82-14.31l-36,21.23C74.14,180.27,75.08,185.52,75.31,189.61Z"/>
      <path class="b5acad70-c5f3-4727-9035-4fe07202cd69" d="M169.82,248.89c2.43-.63,5.39-.79,7.39-1.41,15-4.69,25.12-1.64,25.12-1.64-6.34-6-8.31-16.6-10.21-26.88C191.1,226.64,186.62,240.39,169.82,248.89Z"/>
      <path class="b5acad70-c5f3-4727-9035-4fe07202cd69" d="M82,220.88a53.87,53.87,0,0,0,13,16h0c9.08,0,26.41-2.91,46.74-20.85,12.5-11,17.37-26,18.78-39.74a86.92,86.92,0,0,0-13.91-4.67c-1.25,10.82-6.1,27.74-23.19,38.54C106.7,220.74,91.21,221.65,82,220.88Z"/>
      <path class="b5acad70-c5f3-4727-9035-4fe07202cd69" d="M111.15,246.9a72.83,72.83,0,0,0,21.17,5.85c10.5-1.58,25.15-5.83,35.73-17.25,12.95-13.93,14.87-29.75,14.21-43.28-.34-.44-.68-.88-1.06-1.32a47.71,47.71,0,0,0-7.38-6.93c-.28,10.54-3.06,28.26-17.27,40.28C139.75,238.46,119.17,244.83,111.15,246.9Z"/>
      <g>
        <path class="fc2eaa8f-adf2-433c-b9a4-8bbc17e0b0ee" d="M32.87,138.53C32.27,163.38,53.37,178.17,79,184a.12.12,0,0,0,.08,0,118.8,118.8,0,0,0,26,2.82c35.49,0,53.89-18.66,51.93-54.59-1.46-27-16.62-53.1-41.57-61.69A55.09,55.09,0,0,0,97.5,67.58C62,67.58,33.75,101.73,32.87,138.53Z"/>
        <path class="f4243a23-0a05-4079-a3b1-2e47176a6103" d="M77.06,183a120.64,120.64,0,0,0,26,2.78c35.49,0,53.89-18.49,51.94-54.09-1.46-26.75-16.63-52.62-41.58-61.13,10.86,7.74,31.1,26.76,30.32,60.78C142.76,175.47,106.66,186.76,77.06,183Z"/>
        <g>
          <g>
            <g>
              <g>
                <path class="a3c78bf2-a48e-46f3-b125-c87f5b47b65e" d="M57.7,143.82s0,11.81,5.69,20.7a20.8,20.8,0,0,0,5.89,6.24c9.12,6.25,20.85,5.81,29.09-4.85.2-.22.36-.46.54-.7a40.52,40.52,0,0,0,5.27-10.11s-21.65,2.93-39.93-7A46.48,46.48,0,0,1,57.7,143.82Z"/>
                <path class="e7e2850c-bd34-4f3d-90bb-43b8ef147cd3" d="M57.72,143.86a48,48,0,0,0,3.45,15.22c2,4.78,5,9.25,9.55,11.75a23.38,23.38,0,0,0,7.07,2.78,18.28,18.28,0,0,0,14.4-3,26.51,26.51,0,0,0,5.48-5.26l0-.06a25.74,25.74,0,0,0,1.7-2.39c.54-.84,1-1.71,1.52-2.59a46.23,46.23,0,0,0,2.47-5.52l.89,1.11a74.56,74.56,0,0,1-24.57-1.6,57.25,57.25,0,0,1-11.66-4c-.94-.41-1.82-.94-2.73-1.41s-1.81-1-2.68-1.51A40.91,40.91,0,0,1,57.72,143.86Zm0-.09a53,53,0,0,0,5.11,3.43c.87.53,1.78,1,2.69,1.44s1.81.94,2.76,1.32a61.42,61.42,0,0,0,11.62,3.71A76.09,76.09,0,0,0,92,155.28a75.3,75.3,0,0,0,12.2-.27l.15,0,0,.14a46.44,46.44,0,0,1-2.49,5.64A34.33,34.33,0,0,1,98.45,166h0a26,26,0,0,1-5.72,5.45,19.66,19.66,0,0,1-7.24,3.1,21.07,21.07,0,0,1-15.19-3,20,20,0,0,1-5.83-5.29,29.78,29.78,0,0,1-3.8-6.93,43,43,0,0,1-2.15-7.6c-.26-1.3-.45-2.61-.6-3.91A29,29,0,0,1,57.68,143.77Z"/>
              </g>
              <path class="a6cdca6d-4709-4182-8ce8-2b0e085f13cf" d="M67.09,164.08c-2.58,3.46.73,5.53,2.94,7.1,8.19,5.82,21.09,4.14,28.5-5.8-2-1.54-5.67-2.83-12.18-2.21C86.35,163.17,74.66,158.48,67.09,164.08Z"/>
              <path class="b36ce6ac-e7b4-4410-a918-c62ce4c784f8" d="M75.16,163.64a42,42,0,0,0,10.72,2.74,16.9,16.9,0,0,0,17.76-10.72l0-.12s-21.12,3.15-39.4-6.79C62.92,153.74,64.35,159.31,75.16,163.64Z"/>
            </g>
            <path class="f4d4c1fd-0ea3-4bdd-a66c-748967abe1c9" d="M107.47,148.68a11.2,11.2,0,0,0-.27,1.11,8.06,8.06,0,0,0-.21,1.09,6.22,6.22,0,0,0,0,2.11,3.73,3.73,0,0,0,.8,1.87,8.07,8.07,0,0,0,1.6,1.53l0,.05a5.73,5.73,0,0,1-1.87-1.32,4,4,0,0,1-1-2,6.09,6.09,0,0,1,.11-2.29,8.68,8.68,0,0,1,.82-2.14Z"/>
            <path class="f4d4c1fd-0ea3-4bdd-a66c-748967abe1c9" d="M54,145.67a9.57,9.57,0,0,0,.81-.55,7,7,0,0,0,.76-.55A9.36,9.36,0,0,0,57,143.32,6.82,6.82,0,0,0,58,141.86a15,15,0,0,0,.86-1.7h0a7.13,7.13,0,0,1-.56,1.86,6,6,0,0,1-1.07,1.62,7.53,7.53,0,0,1-3.25,2.07Z"/>
          </g>
          <ellipse class="af3cbb00-dfee-4d66-83d7-bac346f73314" cx="122.06" cy="148.14" rx="10.04" ry="7.04"/>
          <ellipse class="af3cbb00-dfee-4d66-83d7-bac346f73314" cx="44.67" cy="129.21" rx="7.04" ry="10.04" transform="translate(-91.6 118.25) rotate(-66.33)"/>
        </g>
      </g>
      <path class="fc2eaa8f-adf2-433c-b9a4-8bbc17e0b0ee" d="M145.4,174.82s-4.76,5.1-1.23,10.21,19.72,1.76,29.05-3,19.55,3.34,19.55,3.34-2.82,12.33,2.11,13.21S200,188.9,200,188.9s5.1,6.17,3.87,12.51c0,0,3.17,3.87,6-2.47l-1.41-7.39,2.29,7.39s4.23-.88,1.76-12S184.14,163.72,159,168.12C159,168.12,151,169.36,145.4,174.82Z"/>
      <path class="fc2eaa8f-adf2-433c-b9a4-8bbc17e0b0ee" d="M182.48,215.15a5.75,5.75,0,0,0-8.7,5.34,12.69,12.69,0,0,0,3.43,8.21c5.17,5.17,13.86,10.1,22.54,7.05s12.45,4,15.27,8.21,11.74,3.53,11.27-6.81c0,0,0-13.85-11.51-19.48,0,0-4.46-3.53-17.37.94C189.51,221.33,186.09,217.39,182.48,215.15Z"/>
    </g>
  </g>
</svg>
