<svg id="b6acc6ff-d152-4d62-ad69-e7a972955eeb" data-name="Layer 1" xmlns="http://www.w3.org/2000/svg" width="99.88" height="80.12" viewBox="0 0 99.88 80.12">
  <defs>
    <style>
      .bb5a2099-3af8-45a1-a02a-7f62e2a6711c, .e329f5c4-f925-4f05-8850-5ff40954def3 {
        fill: #fff;
      }

      .bb5a2099-3af8-45a1-a02a-7f62e2a6711c {
        stroke: #702840;
      }

      .a7b10078-260e-45f1-b361-57bef825c3fc, .bb5a2099-3af8-45a1-a02a-7f62e2a6711c {
        stroke-miterlimit: 10;
        stroke-width: 0.75px;
      }

      .b4bc8470-6738-4d21-9490-9ce2348038e8 {
        fill: #210a11;
      }

      .a7b10078-260e-45f1-b361-57bef825c3fc {
        fill: #ffe309;
        stroke: #665608;
      }
    </style>
  </defs>
  <g>
    <g>
      <g>
        <path class="bb5a2099-3af8-45a1-a02a-7f62e2a6711c" d="M76.89,66.13c-9.17,2-18.87-6.46-21.68-18.86a30.69,30.69,0,0,1-.77-6.63c0-9.69,4.78-17.79,12.28-19.42C75.52,19.31,84.83,27,88,38.63q.19.7.36,1.44C91.21,52.47,86.05,64.14,76.89,66.13Z"/>
        <ellipse class="b4bc8470-6738-4d21-9490-9ce2348038e8" cx="66.7" cy="49.44" rx="7.7" ry="10.37" transform="translate(-10.03 17.72) rotate(-14.08)"/>
        <ellipse class="e329f5c4-f925-4f05-8850-5ff40954def3" cx="61.75" cy="46.62" rx="2.84" ry="2.11" transform="translate(5.21 99.43) rotate(-80.1)"/>
      </g>
      <g>
        <path class="bb5a2099-3af8-45a1-a02a-7f62e2a6711c" d="M40.82,50.26c0,11.57-6.88,20.89-15.41,20.83S10,61.59,9.94,50a26.66,26.66,0,0,1,1.48-9c2.47-7.05,7.77-11.9,13.93-11.85,6.53.05,12.12,5.58,14.38,13.35A27.39,27.39,0,0,1,40.82,50.26Z"/>
        <ellipse class="b4bc8470-6738-4d21-9490-9ce2348038e8" cx="19.5" cy="56.78" rx="7" ry="9.43" transform="translate(-16.84 8.99) rotate(-18.3)"/>
        <ellipse class="e329f5c4-f925-4f05-8850-5ff40954def3" cx="14.82" cy="53.57" rx="2.59" ry="1.92" transform="translate(-40.71 56.09) rotate(-77.14)"/>
      </g>
      <path class="b4bc8470-6738-4d21-9490-9ce2348038e8" d="M27.94,18.49s-7.08.85-15.1,9.38C12.84,27.87,23.85,6.5,27.94,18.49Z"/>
      <path class="b4bc8470-6738-4d21-9490-9ce2348038e8" d="M55.43,10.29s7.66-1.71,19.27,3.44C74.7,13.73,55.05-2.38,55.43,10.29Z"/>
    </g>
    <path class="a7b10078-260e-45f1-b361-57bef825c3fc" d="M39.73,42.56c-14.85-4.64-24.19-2.88-28.31-1.5,2.47-7.05,7.77-11.9,13.93-11.85C31.88,29.26,37.47,34.79,39.73,42.56Z"/>
    <path class="a7b10078-260e-45f1-b361-57bef825c3fc" d="M88,38.63c-16.7-6.71-28.84-1-33.6,2,0-9.69,4.78-17.79,12.28-19.42C75.52,19.31,84.83,27,88,38.63Z"/>
  </g>
</svg>
