<svg id="bbb7979b-bb0c-4061-a92c-024731fb9f33" data-name="Layer 1" xmlns="http://www.w3.org/2000/svg" width="230" height="220" viewBox="0 0 230 220">
  <defs>
    <style>
      .bcb8a54e-f9a9-4488-b6e4-0b0e85785ccb, .bd903653-99ed-4d6c-9166-8e5ed9b811ce {
        fill: #ffe309;
      }

      .baf79f5a-01e6-4e8c-a1d1-9bfb2797e6dc, .bd903653-99ed-4d6c-9166-8e5ed9b811ce {
        stroke: #665608;
      }

      .baf79f5a-01e6-4e8c-a1d1-9bfb2797e6dc, .bcb8a54e-f9a9-4488-b6e4-0b0e85785ccb, .bd903653-99ed-4d6c-9166-8e5ed9b811ce, .eb35974f-08d9-4527-8709-bbf7b18af0b2 {
        stroke-miterlimit: 10;
      }

      .baf79f5a-01e6-4e8c-a1d1-9bfb2797e6dc, .bcb8a54e-f9a9-4488-b6e4-0b0e85785ccb, .bd903653-99ed-4d6c-9166-8e5ed9b811ce {
        stroke-width: 0.75px;
      }

      .bcb8a54e-f9a9-4488-b6e4-0b0e85785ccb {
        stroke: #493c05;
      }

      .ac77aa0f-82a6-4697-8368-723d1b82e344 {
        fill: #ecc516;
      }

      .eb35974f-08d9-4527-8709-bbf7b18af0b2 {
        fill: #532900;
        stroke: #3a1c03;
      }

      .a10c0541-7e17-407c-8673-0ec87691550b {
        fill: #681a1a;
      }

      .bb5911ae-15f1-4729-a872-d81c44a74de8 {
        fill: #ef7089;
      }

      .aa4393fa-75dc-4970-bea6-b48d265b1b8b {
        fill: #ff5763;
      }

      .be3fcfff-88d7-441e-a977-d3dfe96ecc45 {
        fill: #fff;
      }

      .a12358bb-a311-42a1-b810-da27a1dcd614 {
        fill: #ef304c;
      }

      .ac89642a-5eeb-4242-98ab-1f2cab7f68d8 {
        fill: #ffa979;
      }

      .baf79f5a-01e6-4e8c-a1d1-9bfb2797e6dc {
        fill: none;
      }
    </style>
  </defs>
  <g>
    <g>
      <g>
        <path class="bd903653-99ed-4d6c-9166-8e5ed9b811ce" d="M171,176.6s-.26,7,7.5,6.65,13.19-3.57,15.25,3.87,3.58,15.64-3.86,17.7-8.76-8.65-14.47-6.92-16.83,2-18.68-11.49S171,176.6,171,176.6Z"/>
        <g>
          <path class="bd903653-99ed-4d6c-9166-8e5ed9b811ce" d="M100.85,147.15s4,4-5.07,30.68c0,0-3.42,10.95-7.31,16.23s-6.71,16-4.68,19.82,6.86,6,7.38-1l-2.41-7.22s-1.07,8.22,8.28,7.63S94.35,203,94.35,203l6.82,5.68s7-3.1-2-11.81c0,0,4.9-1.18,13.15-17.88s10-36.22,10-36.22Z"/>
          <path class="bcb8a54e-f9a9-4488-b6e4-0b0e85785ccb" d="M81.54,170.77c6.5,8.31,13.55,14.55,21.4,18.63a50.3,50.3,0,0,0,18.52,5.45h0a64.09,64.09,0,0,0,14.95-.36c.94-.13,1.88-.27,2.8-.45a68,68,0,0,0,19.43-6.71C170.72,181,180,172,186.36,164.51c1.54-1.78,2.91-3.49,4.12-5,9.11-11.57,18.51-14.57,18.51-14.57-8.06-1.25-14.19-7.87-21.1-14.8-6.28-6.33-13.19-12.94-22.79-15.93-.49-.16-1-.32-1.51-.45a43.31,43.31,0,0,0-9.37-1.43,59,59,0,0,0-14.3,1.1,2.12,2.12,0,0,0-.38.08,81.06,81.06,0,0,0-12.83,3.68,64.29,64.29,0,0,0-7.33,3.21c-14.76,8-24.52-.77-24.52-.77L74.09,160A116.32,116.32,0,0,0,81.54,170.77Z"/>
          <path class="ac77aa0f-82a6-4697-8368-723d1b82e344" d="M81.23,168.82c7.65-1.54,15.3-5.58,23.85-11.45,17.72-12.17,27.7-28.77,23.18-38a63.39,63.39,0,0,0-11,2.83,49.59,49.59,0,0,0-6.26,2.6c-12.52,6.64-21.33-1.6-21.33-1.6L73.13,158.63C75.37,162.23,78.88,165.79,81.23,168.82Z"/>
          <path class="eb35974f-08d9-4527-8709-bbf7b18af0b2" d="M185.53,164.49c1.54-1.78,3.74-3.47,4.95-5,9.11-11.57,18.51-14.57,18.51-14.57-8.06-1.25-15.21-8.4-22.11-15.33C190.16,136.05,194,149,185.53,164.49Z"/>
          <path class="eb35974f-08d9-4527-8709-bbf7b18af0b2" d="M102.94,189.4a50.3,50.3,0,0,0,18.52,5.45h0c7-4.81,18.82-16.23,25-40.84,3.79-15.13-.38-29.26-6.56-40.6a80.82,80.82,0,0,0-13.21,3.76c4.76,9,10,24.64,2.53,42C121.93,176.2,110.47,185.12,102.94,189.4Z"/>
          <path class="eb35974f-08d9-4527-8709-bbf7b18af0b2" d="M139.22,194a68,68,0,0,0,19.43-6.71c7.26-6.77,16.31-17.81,18.42-32.22,2.61-17.61-4.29-30.83-12-40.92-.49-.16-1-.32-1.51-.45a43.31,43.31,0,0,0-9.37-1.43c5.37,8.27,12.62,23.41,8,40.21C156.81,172.37,144.31,188.18,139.22,194Z"/>
          <g>
            <path class="bd903653-99ed-4d6c-9166-8e5ed9b811ce" d="M89.47,72s10.31-2.24,18.11-25.34-8.82-45.33-20.93-44S76.52,14.07,88.88,19.47s17.63,33.06-3.11,50.22C85.77,69.69,74.86,83.59,89.47,72Z"/>
            <path class="bd903653-99ed-4d6c-9166-8e5ed9b811ce" d="M57.56,76.44S56.1,57.13,49.51,45.61,24.18,9.65,7.4,19.77c0,0-4.47,4.91-1.21,9.1s8.32,4.56,12.41.87,34.68,11.8,34.22,46.7C52.82,76.44,55.66,85.48,57.56,76.44Z"/>
            <g>
              <path class="bd903653-99ed-4d6c-9166-8e5ed9b811ce" d="M21.57,147.62c4.86,22.74,27.28,31.61,51.84,31.3a.21.21,0,0,0,.08,0,111.75,111.75,0,0,0,24.3-3.11c32.29-7.73,45-28.72,35.37-61C126,90.57,106.46,70.12,81.89,67.74a51.54,51.54,0,0,0-17,1.24C32.61,76.71,14.35,113.94,21.57,147.62Z"/>
              <path class="ac77aa0f-82a6-4697-8368-723d1b82e344" d="M71.45,178.41a112.31,112.31,0,0,0,24.29-3.13c32.29-7.72,45-28.56,35.48-60.53-7.16-24-26.59-44.27-51.15-46.57,11.57,4.67,34.13,17.58,40.83,48.7C129.61,157.3,99.22,175.44,71.45,178.41Z"/>
              <g>
                <g>
                  <g>
                    <g>
                      <path class="a10c0541-7e17-407c-8673-0ec87691550b" d="M45.31,147s2.57,10.75,9.69,17.59a19.47,19.47,0,0,0,6.71,4.4c9.66,3.7,20.25.75,25.43-10.75.13-.24.22-.49.34-.75a38.56,38.56,0,0,0,2.59-10.36S71,154.55,52.2,149.49A44.35,44.35,0,0,1,45.31,147Z"/>
                      <path class="bb5911ae-15f1-4729-a872-d81c44a74de8" d="M45.34,147.06a45,45,0,0,0,6.48,13.08c2.84,3.91,6.61,7.3,11.23,8.58a21.9,21.9,0,0,0,7,1,17.07,17.07,0,0,0,12.41-5.84,24.18,24.18,0,0,0,3.83-6l0-.07a26.11,26.11,0,0,0,1-2.53c.31-.88.58-1.78.82-2.69a41.76,41.76,0,0,0,1-5.55l1.13.87a70.14,70.14,0,0,1-22.73,3.89,53.26,53.26,0,0,1-11.48-1.09c-.94-.17-1.86-.46-2.8-.69s-1.85-.48-2.76-.8A36.13,36.13,0,0,1,45.34,147.06Zm-.06-.07a55.29,55.29,0,0,0,5.4,2c.91.28,1.83.51,2.77.71s1.85.46,2.79.6a56.45,56.45,0,0,0,11.39.85A71,71,0,0,0,79,150a68.74,68.74,0,0,0,11-2.91l.14-.05v.14a43.8,43.8,0,0,1-1,5.69,31.83,31.83,0,0,1-1.9,5.46h0a24.68,24.68,0,0,1-4,6.21,18.58,18.58,0,0,1-5.92,4.4,19.64,19.64,0,0,1-14.48.55,18.52,18.52,0,0,1-6.47-3.54,28.09,28.09,0,0,1-5-5.48A40.81,40.81,0,0,1,47.76,154c-.52-1.12-1-2.27-1.39-3.43A26.62,26.62,0,0,1,45.28,147Z"/>
                    </g>
                    <path class="aa4393fa-75dc-4970-bea6-b48d265b1b8b" d="M70.38,158.21c-8.08,1-13.91,7-9.17,10.72a9.72,9.72,0,0,0,4.49,1.69c16.79-.67,20.59-9.33,20-14.87-2.06-.46-4.37.35-10.21,2.12A40.65,40.65,0,0,0,70.38,158.21Z"/>
                    <path class="a10c0541-7e17-407c-8673-0ec87691550b" d="M76.23,156.47a15,15,0,0,0-4.77,12.06s1.23-7.79,7.31-12.35Z"/>
                    <path class="be3fcfff-88d7-441e-a977-d3dfe96ecc45" d="M65.52,161.26a38.91,38.91,0,0,0,10.35.16,15.82,15.82,0,0,0,13.82-13.63l0-.12s-18.54,7.48-37.34,2.41C52.22,154.92,54.73,159.67,65.52,161.26Z"/>
                  </g>
                  <path class="a12358bb-a311-42a1-b810-da27a1dcd614" d="M91.66,140.61c0,.36,0,.72,0,1.07a7,7,0,0,0,.06,1,5.76,5.76,0,0,0,.47,1.92,3.56,3.56,0,0,0,1.12,1.52,7.83,7.83,0,0,0,1.77,1.06v0a5.42,5.42,0,0,1-2-.79,3.72,3.72,0,0,1-1.36-1.65,5.6,5.6,0,0,1-.4-2.1,8.08,8.08,0,0,1,.27-2.13Z"/>
                  <path class="a12358bb-a311-42a1-b810-da27a1dcd614" d="M42.38,149.5c.43-.45.82-.89,1.18-1.35a8.14,8.14,0,0,0,.93-1.43,6.7,6.7,0,0,0,.68-1.55,16.2,16.2,0,0,0,.43-1.73h0a6.94,6.94,0,0,1-.1,1.82,5.75,5.75,0,0,1-.62,1.71,7.11,7.11,0,0,1-2.52,2.59Z"/>
                </g>
                <ellipse class="ac89642a-5eeb-4242-98ab-1f2cab7f68d8" cx="104.82" cy="136.94" rx="9.39" ry="6.59" transform="translate(-28.99 28.16) rotate(-13.46)"/>
                <ellipse class="ac89642a-5eeb-4242-98ab-1f2cab7f68d8" cx="30.27" cy="136.57" rx="6.59" ry="9.39" transform="translate(-109.5 142.15) rotate(-79.79)"/>
              </g>
            </g>
          </g>
          <path class="bd903653-99ed-4d6c-9166-8e5ed9b811ce" d="M184.42,149.34a5.39,5.39,0,0,0-8.24,4.84,11.87,11.87,0,0,0,3.06,7.74c4.74,4.93,12.78,9.71,21,7s11.57,4,14.13,8,10.91,3.51,10.66-6.16c0,0,.26-13-10.4-18.44,0,0-4.11-3.38-16.27.55C190.88,155.26,187.76,151.51,184.42,149.34Z"/>
        </g>
      </g>
      <path class="bd903653-99ed-4d6c-9166-8e5ed9b811ce" d="M137.72,145.81s19.23,16.8,3.41,30.74c-9.3,8.19-13.77,12.66-17.32,13.43-5,1.07-10.3,11.69-9,15.42,0,0,2.22,7.71,5.85,2.91,0,0,7,9.06,17.34-5,0,0,.14-4.45-7.17-5,0,0,47.68-20.31,28.24-58.7C159.05,139.62,144.38,131.42,137.72,145.81Z"/>
      <path class="baf79f5a-01e6-4e8c-a1d1-9bfb2797e6dc" d="M129.31,202.74s-6.17.23,4.51-6.34"/>
    </g>
    <line class="bd903653-99ed-4d6c-9166-8e5ed9b811ce" x1="120.64" y1="208.31" x2="118.46" y2="204.07"/>
  </g>
</svg>
