<svg id="be76a01d-73d4-4d7f-b367-c461434d84f8" data-name="Layer 1" xmlns="http://www.w3.org/2000/svg" width="290" height="310" viewBox="0 0 290 310">
  <defs>
    <style>
      .a2acb052-9b33-4495-bb66-7251f6a637b1, .e436ba6c-0c89-47df-9576-78851cba0edd {
        fill: #ffe309;
      }

      .a2acb052-9b33-4495-bb66-7251f6a637b1, .ea33dfcf-37e0-47da-bbc6-50ce86bec0f4 {
        stroke: #665608;
      }

      .a2acb052-9b33-4495-bb66-7251f6a637b1, .aca2070a-db06-40aa-ae30-550afc84740f, .e436ba6c-0c89-47df-9576-78851cba0edd, .ea33dfcf-37e0-47da-bbc6-50ce86bec0f4 {
        stroke-miterlimit: 10;
      }

      .a2acb052-9b33-4495-bb66-7251f6a637b1, .e436ba6c-0c89-47df-9576-78851cba0edd, .ea33dfcf-37e0-47da-bbc6-50ce86bec0f4 {
        stroke-width: 0.75px;
      }

      .e436ba6c-0c89-47df-9576-78851cba0edd {
        stroke: #493c05;
      }

      .afbcfeb5-037d-4db8-a149-192aef8a6e75 {
        fill: #ecc516;
      }

      .aca2070a-db06-40aa-ae30-550afc84740f {
        fill: #532900;
        stroke: #3a1c03;
      }

      .ebc49244-9403-4e2c-ad56-4a295a81f217 {
        fill: #681a1a;
      }

      .e641927e-9296-4395-925b-1b3f9fed9c0c {
        fill: #ef7089;
      }

      .ea6ad749-23b0-459d-9891-4483a7363c43 {
        fill: #ff5763;
      }

      .f4120a4c-04d3-47a8-a5fe-28ca618b8fd8 {
        fill: #fff;
      }

      .a51ede35-6b40-44fc-8f56-b521b69deac3 {
        fill: #ef304c;
      }

      .f6160551-b4fc-47a3-a13c-2b1dde89ff05 {
        fill: #ffa979;
      }

      .ea33dfcf-37e0-47da-bbc6-50ce86bec0f4 {
        fill: none;
      }
    </style>
  </defs>
  <g>
    <g>
      <g>
        <path class="a2acb052-9b33-4495-bb66-7251f6a637b1" d="M203,263.15s-2.75,8.52,6.94,10.8,17.51.16,17.47,10.05-1,20.54-10.88,20.5S208.67,290.8,201,291s-21.46-3.34-19.06-20.65S203,263.15,203,263.15Z"/>
        <g>
          <path class="a2acb052-9b33-4495-bb66-7251f6a637b1" d="M126.63,202.53s3.5,6.31-16.89,36.1c0,0-8,12.32-14.63,17.49S81.29,273.5,82.47,279s6.39,9.77,9.46,1.28l-.47-9.74S87.3,280.26,99,282.77s.26-13.65.26-13.65l6.44,9.37s9.77-1.38,1.63-15.26c0,0,6.46.24,22.42-17.51s24.87-41.23,24.87-41.23Z"/>
          <path class="e436ba6c-0c89-47df-9576-78851cba0edd" d="M94.62,225c5.14,12.51,11.68,22.65,19.95,30.4a64.9,64.9,0,0,0,21,13.14h0a82.62,82.62,0,0,0,18.57,4.73c1.2.17,2.41.31,3.61.41A87.19,87.19,0,0,0,184,272.11c17.08-3.59,31.59-11.54,42.1-18.55,2.52-1.67,4.79-3.3,6.82-4.78,15.24-11.13,27.89-11.56,27.89-11.56-9.52-4.35-14.79-14.64-20.92-25.57-5.55-10-11.79-20.53-22.59-27.55-.56-.36-1.11-.73-1.71-1.08a56.43,56.43,0,0,0-11.06-5,75.88,75.88,0,0,0-18-3.59,2.77,2.77,0,0,0-.49,0,102,102,0,0,0-17.1.11,80.3,80.3,0,0,0-10.16,1.41c-21,4.76-30-9.44-30-9.44L89.16,209.09A151.3,151.3,0,0,0,94.62,225Z"/>
          <path class="afbcfeb5-037d-4db8-a149-192aef8a6e75" d="M94.91,222.46c10,.76,20.81-1.58,33.4-5.86,26.07-8.88,44.13-25.9,41.77-38.91a82.12,82.12,0,0,0-14.56-.31,63.93,63.93,0,0,0-8.62,1c-17.75,3.85-25.76-9.36-25.76-9.36l-32.69,38C90,212.31,93.06,217.91,94.91,222.46Z"/>
          <path class="aca2070a-db06-40aa-ae30-550afc84740f" d="M225.09,253.25c2.52-1.67,5.82-3,7.85-4.47,15.24-11.13,27.89-11.56,27.89-11.56-9.52-4.35-15.86-15.64-22-26.57C240.66,219.76,240.88,237.1,225.09,253.25Z"/>
          <path class="aca2070a-db06-40aa-ae30-550afc84740f" d="M114.57,255.38a64.9,64.9,0,0,0,21,13.14h0c10.31-3.51,28.85-13.51,45-41.73,9.92-17.36,9.66-36.23,6-52.36a101.94,101.94,0,0,0-17.59.07c2.75,12.76,3.79,33.85-11.43,52.7C142.57,245.67,125.34,252.7,114.57,255.38Z"/>
          <path class="aca2070a-db06-40aa-ae30-550afc84740f" d="M157.73,273.65A87.19,87.19,0,0,0,184,272.11c11.31-5.85,26.3-16.33,33.89-33.38,9.32-20.82,5.38-39.52-.59-54.63-.56-.36-1.11-.73-1.71-1.08a56.43,56.43,0,0,0-11.06-5c3.75,12.07,7.45,33.26-4,52.39C186.93,253,166,268.2,157.73,273.65Z"/>
          <g>
            <path class="a2acb052-9b33-4495-bb66-7251f6a637b1" d="M118.36,93.9s12.88-4.09,20.08-34.49S121.78,2.62,106.49,5.75,94.93,21.58,111.34,27s26.43,40.08,2,64.45C113.36,91.44,101.1,110.48,118.36,93.9Z"/>
            <path class="a2acb052-9b33-4495-bb66-7251f6a637b1" d="M78.17,103.42S74,79,64.22,65,27.62,22.18,7.42,37.09c0,0-5.12,6.8-.46,11.76s11.16,4.82,15.93-.37S68.55,59.41,72.12,104C72.12,104,76.82,115.18,78.17,103.42Z"/>
            <g>
              <path class="a2acb052-9b33-4495-bb66-7251f6a637b1" d="M40.74,198.53c8.92,28.43,38.58,37.07,69.88,33.75a.16.16,0,0,0,.1,0,143.54,143.54,0,0,0,30.63-6.86c40.28-13.71,54-42,37.85-82-12.08-30.09-39.39-53.86-71-54A66,66,0,0,0,86.68,93C46.38,106.74,27.51,156.41,40.74,198.53Z"/>
              <path class="afbcfeb5-037d-4db8-a149-192aef8a6e75" d="M108.06,231.87A143.44,143.44,0,0,0,138.67,225c40.28-13.71,54-41.81,38.05-81.46-12-29.81-39.2-53.31-70.81-53.33,15.31,4.58,45.64,18.36,57.9,57.27C179.74,198,143.13,224.77,108.06,231.87Z"/>
              <g>
                <g>
                  <g>
                    <g>
                      <path class="ebc49244-9403-4e2c-ad56-4a295a81f217" d="M71,194.94s4.57,13.41,14.46,21.29a24.93,24.93,0,0,0,9.09,4.82c12.77,3.57,25.92-1.47,31.16-16.75.14-.32.23-.66.34-1a49.12,49.12,0,0,0,2.07-13.52s-23.44,11.7-48,7.48A55.53,55.53,0,0,1,71,194.94Z"/>
                      <path class="e641927e-9296-4395-925b-1b3f9fed9c0c" d="M71,195a57.19,57.19,0,0,0,9.73,16c4.08,4.68,9.31,8.6,15.41,9.72a27.67,27.67,0,0,0,9.16.45,22.38,22.38,0,0,0,8.6-2.9,22.73,22.73,0,0,0,6.71-6.1,31.45,31.45,0,0,0,4.21-8.14l0-.06c.37-1,.72-2.24,1-3.4s.53-2.36.72-3.55a54.73,54.73,0,0,0,.67-7.24l1.2.76A90.64,90.64,0,0,1,100,198.24a69.17,69.17,0,0,1-14.74,0c-1.23-.09-2.44-.35-3.65-.52a36.62,36.62,0,0,1-3.62-.67A48.39,48.39,0,0,1,71,195Zm-.07-.07A64.69,64.69,0,0,0,78,196.83c1.2.25,2.41.44,3.62.58s2.42.37,3.64.44a73,73,0,0,0,14.63-.28,91.2,91.2,0,0,0,14.36-2.84,89,89,0,0,0,13.75-5l.13-.06v.14a55.11,55.11,0,0,1-.64,7.37,41.48,41.48,0,0,1-1.77,7.19h0a31.51,31.51,0,0,1-4.38,8.39,23.69,23.69,0,0,1-7,6.32,23.21,23.21,0,0,1-9,3,27.43,27.43,0,0,1-9.43-.54,23.93,23.93,0,0,1-8.67-3.74,36.26,36.26,0,0,1-7-6.4,52.72,52.72,0,0,1-5.39-7.79c-.79-1.37-1.5-2.78-2.18-4.21A37.33,37.33,0,0,1,70.93,194.9Z"/>
                    </g>
                    <path class="ea6ad749-23b0-459d-9891-4483a7363c43" d="M104.28,206.21C94.1,208.47,87.37,216.86,93.86,221a12.67,12.67,0,0,0,5.93,1.64c21.34-2.87,25.15-14.36,23.72-21.36-2.68-.34-5.54,1-12.77,3.92A51.33,51.33,0,0,0,104.28,206.21Z"/>
                    <path class="ebc49244-9403-4e2c-ad56-4a295a81f217" d="M111.54,203.3a19.18,19.18,0,0,0-4.65,16s.64-10.09,7.86-16.62Z"/>
                    <path class="f4120a4c-04d3-47a8-a5fe-28ca618b8fd8" d="M98.44,210.69a50.29,50.29,0,0,0,13.23-1,20.27,20.27,0,0,0,16-19v-.16S104.92,202.22,80.33,198C80.72,204.19,84.49,210,98.44,210.69Z"/>
                  </g>
                  <path class="a51ede35-6b40-44fc-8f56-b521b69deac3" d="M129.33,181.22a12.3,12.3,0,0,0,.08,1.37,8.21,8.21,0,0,0,.16,1.32,7.4,7.4,0,0,0,.82,2.44,4.53,4.53,0,0,0,1.67,1.83,9.29,9.29,0,0,0,2.44,1.06v0a6.9,6.9,0,0,1-2.62-.77,4.7,4.7,0,0,1-1.92-1.93,7,7,0,0,1-.76-2.64,10.07,10.07,0,0,1,.09-2.74Z"/>
                  <path class="a51ede35-6b40-44fc-8f56-b521b69deac3" d="M67.53,198.46c.25-.31.51-.59.73-.9a8.28,8.28,0,0,0,.67-.92A9.4,9.4,0,0,0,70,194.7a8,8,0,0,0,.66-2.1,15,15,0,0,0,.26-2.27h0a8.58,8.58,0,0,1,.08,2.32,7.4,7.4,0,0,1-.59,2.26,9,9,0,0,1-2.89,3.6Z"/>
                </g>
                <ellipse class="f6160551-b4fc-47a3-a13c-2b1dde89ff05" cx="145.69" cy="174.97" rx="12.04" ry="8.45" transform="matrix(0.95, -0.32, 0.32, 0.95, -48.61, 56.28)"/>
                <ellipse class="f6160551-b4fc-47a3-a13c-2b1dde89ff05" cx="50.52" cy="183.39" rx="8.45" ry="12.04" transform="translate(-136.49 218.15) rotate(-85.13)"/>
              </g>
            </g>
          </g>
          <path class="a2acb052-9b33-4495-bb66-7251f6a637b1" d="M229,234.17a6.9,6.9,0,0,0-11.84,3.12,15.18,15.18,0,0,0,1.1,10.61c4.13,7.72,12.4,16.4,23.43,15.91s12.9,8.89,14.67,14.72,12.25,8.11,15.29-3.91c0,0,4.81-15.9-6.44-26.36,0,0-3.9-5.59-20.27-4.94C234.9,243.71,232.34,238,229,234.17Z"/>
        </g>
      </g>
      <path class="a2acb052-9b33-4495-bb66-7251f6a637b1" d="M172.58,213.64s17.91,27.39-6.44,39.1c-14.31,6.9-21.38,10.86-26,10.58-6.48-.4-16.77,10.86-16.48,15.91,0,0,.07,10.28,6.2,5.61,0,0,5.49,13.59,23.13-.14,0,0,1.71-5.44-7.11-8.66,0,0,65.86-8.55,55.17-62.64C201,213.4,185.78,198.2,172.58,213.64Z"/>
      <path class="ea33dfcf-37e0-47da-bbc6-50ce86bec0f4" d="M142.49,281s-7.7-1.86,7.76-6.26"/>
    </g>
    <line class="a2acb052-9b33-4495-bb66-7251f6a637b1" x1="129.85" y1="284.84" x2="128.64" y2="278.85"/>
  </g>
</svg>
