<svg id="af4f88ef-bfe2-43fb-a234-1c2466931b26" data-name="Layer 1" xmlns="http://www.w3.org/2000/svg" width="108.35" height="70.24" viewBox="0 0 108.35 70.24">
  <defs>
    <style>
      .b8cee5ae-e4d6-44b4-83fc-b4c4c1331fe2, .e8501099-0db6-41ae-891c-7174f69c4b5d {
        fill: #fff;
      }

      .b8cee5ae-e4d6-44b4-83fc-b4c4c1331fe2 {
        stroke: #3d2d16;
      }

      .b8cee5ae-e4d6-44b4-83fc-b4c4c1331fe2, .fc348f93-4323-48c2-9ec9-3158fb99a329 {
        stroke-miterlimit: 10;
        stroke-width: 0.5px;
      }

      .b99646cc-8bb7-4ace-b6cc-129523b1a557 {
        fill: #3d2d16;
      }

      .fc348f93-4323-48c2-9ec9-3158fb99a329 {
        fill: #f9dad2;
        stroke: #4c2606;
      }
    </style>
  </defs>
  <g>
    <g>
      <g>
        <path class="b8cee5ae-e4d6-44b4-83fc-b4c4c1331fe2" d="M33.25,42.79a15.19,15.19,0,0,1-.82,4.94h0a13.67,13.67,0,0,1-12.78,9.44,13.73,13.73,0,0,1-13-10.27A15.13,15.13,0,0,1,6,42.79c0-7.95,6.09-14.4,13.61-14.4S33.25,34.84,33.25,42.79Z"/>
        <ellipse class="b99646cc-8bb7-4ace-b6cc-129523b1a557" cx="19.45" cy="42.63" rx="9.1" ry="9.63"/>
        <ellipse class="e8501099-0db6-41ae-891c-7174f69c4b5d" cx="15.74" cy="36.92" rx="2.5" ry="2.64"/>
      </g>
      <g>
        <path class="b8cee5ae-e4d6-44b4-83fc-b4c4c1331fe2" d="M98.08,45.39a14.92,14.92,0,0,1-1,5.33,13.38,13.38,0,0,1-25.65-1.11,15.42,15.42,0,0,1-.59-4.22c0-8,6.09-14.4,13.61-14.4S98.08,37.44,98.08,45.39Z"/>
        <ellipse class="b99646cc-8bb7-4ace-b6cc-129523b1a557" cx="84.14" cy="45.38" rx="8.97" ry="9.49"/>
        <ellipse class="e8501099-0db6-41ae-891c-7174f69c4b5d" cx="80.73" cy="39.59" rx="2.5" ry="2.64"/>
      </g>
      <path class="b99646cc-8bb7-4ace-b6cc-129523b1a557" d="M79.88,16.24s13.55-2.31,20.05,6.7c.26.36.87.19.84-.23-.21-2.74-1.69-8.37-10.11-10C77.37,10.1,79.88,16.24,79.88,16.24Z"/>
      <path class="b99646cc-8bb7-4ace-b6cc-129523b1a557" d="M28,10.69S14.49,8.38,8,17.4a.46.46,0,0,1-.84-.24c.21-2.74,1.69-8.36,10.12-10C30.55,4.55,28,10.69,28,10.69Z"/>
    </g>
    <path class="fc348f93-4323-48c2-9ec9-3158fb99a329" d="M33.25,42.79a15.19,15.19,0,0,1-.82,4.94h0A33.12,33.12,0,0,1,26,49.3a38.11,38.11,0,0,1-13.68-.67,44,44,0,0,1-5.72-1.72A15.13,15.13,0,0,1,6,42.79c0-7.95,6.09-14.4,13.61-14.4S33.25,34.84,33.25,42.79Z"/>
    <path class="fc348f93-4323-48c2-9ec9-3158fb99a329" d="M98.08,45.39a14.92,14.92,0,0,1-1,5.33,32.44,32.44,0,0,1-6.77,1.51,38.3,38.3,0,0,1-13.14-.85,42.93,42.93,0,0,1-5.74-1.77,15.42,15.42,0,0,1-.59-4.22c0-8,6.09-14.4,13.61-14.4S98.08,37.44,98.08,45.39Z"/>
  </g>
</svg>
