<svg id="fc2b0ac5-ecab-4d1f-b49f-994ddccd46a0" data-name="Layer 1" xmlns="http://www.w3.org/2000/svg" width="229.41" height="208.94" viewBox="0 0 229.41 208.94">
  <defs>
    <style>
      .a7dfbe14-8c7f-43a3-86bc-acb5c868ec90 {
        fill: #bcfde5;
      }

      .fff58c87-9f94-4cda-ad06-4e56e4a2a998 {
        fill: #ebf7f2;
      }
    </style>
  </defs>
  <g>
    <g>
      <path class="a7dfbe14-8c7f-43a3-86bc-acb5c868ec90" d="M180.43,192.79c-24.28,13.23-60.79-41-81.64-79.29S75.45,34,99.73,20.76s50,17.68,70.81,56S204.72,179.57,180.43,192.79Z"/>
      <path class="fff58c87-9f94-4cda-ad06-4e56e4a2a998" d="M180.46,192.84l-1.59.72c-.27.12-.53.26-.8.35l-.85.24c-.56.15-1.11.35-1.69.45l-1.73.22a19.71,19.71,0,0,1-6.92-.72,38.76,38.76,0,0,1-12.41-6.28c-7.57-5.48-14-12.33-20-19.44-3-3.56-5.84-7.24-8.6-11s-5.44-7.56-8-11.42c-5.19-7.73-10.07-15.66-14.72-23.71-2.32-4-4.61-8.08-6.77-12.22s-4.09-8.38-5.85-12.71a125.82,125.82,0,0,1-7.75-26.87c-1.47-9.22-1.79-18.78.4-28a39.07,39.07,0,0,1,5.65-13,30.64,30.64,0,0,1,10.54-9.54,29.06,29.06,0,0,1,6.73-2.54,25,25,0,0,1,7.17-.52,32.06,32.06,0,0,1,13.47,4.45A59.58,59.58,0,0,1,138,29.85a107.73,107.73,0,0,1,9.52,10.3,201.78,201.78,0,0,1,15.91,23,235.68,235.68,0,0,1,13.16,24.65,215.78,215.78,0,0,1,9.65,26.2,195.17,195.17,0,0,1,6.07,27.24,129.16,129.16,0,0,1,1.31,13.9,87.71,87.71,0,0,1-.48,13.94,46.14,46.14,0,0,1-3.54,13.47A21.88,21.88,0,0,1,180.46,192.84Zm-.05-.09a21.75,21.75,0,0,0,9-10.29A46,46,0,0,0,192.88,169a87.34,87.34,0,0,0,.42-13.91,129.19,129.19,0,0,0-1.36-13.87,194.39,194.39,0,0,0-6.17-27.16A217.07,217.07,0,0,0,176,88a235.23,235.23,0,0,0-13.22-24.52,198.48,198.48,0,0,0-15.95-22.83,105.1,105.1,0,0,0-9.48-10.19A58.87,58.87,0,0,0,126.3,22.1a31.13,31.13,0,0,0-13.1-4.28,24.24,24.24,0,0,0-6.9.53,27.43,27.43,0,0,0-6.47,2.47A29.66,29.66,0,0,0,89.6,30,37.74,37.74,0,0,0,84,42.68c-2.2,9-1.92,18.52-.5,27.67a125.24,125.24,0,0,0,7.6,26.75q2.6,6.47,5.77,12.68C99,113.9,101.32,118,103.62,122c4.61,8.07,9.45,16,14.61,23.74q3.84,5.82,8,11.44c2.75,3.75,5.58,7.44,8.56,11,5.95,7.11,12.32,14,19.84,19.47a38.73,38.73,0,0,0,12.33,6.3,19.68,19.68,0,0,0,6.87.74l1.72-.21c.57-.09,1.12-.3,1.68-.44l.84-.23c.27-.1.53-.23.79-.35Z"/>
    </g>
    <g>
      <path class="a7dfbe14-8c7f-43a3-86bc-acb5c868ec90" d="M169,185.28c-22.59,15.95-65.11-33.69-90.26-69.32S46.32,39.67,68.91,23.73s51.67,11.79,76.81,47.43S191.55,169.34,169,185.28Z"/>
      <path class="fff58c87-9f94-4cda-ad06-4e56e4a2a998" d="M169,185.33l-1.49.9c-.25.15-.5.31-.76.44l-.8.34c-.55.21-1.07.47-1.63.63l-1.7.42a19.61,19.61,0,0,1-7,.09,38.7,38.7,0,0,1-13-4.81c-8.15-4.56-15.32-10.63-22.09-17-3.39-3.19-6.64-6.52-9.82-9.92s-6.27-6.87-9.29-10.42c-6-7.07-11.81-14.38-17.36-21.85-2.77-3.74-5.51-7.49-8.14-11.35s-5-7.85-7.27-12A125.8,125.8,0,0,1,57.81,75.07c-2.52-9-4-18.45-2.84-27.86a38.81,38.81,0,0,1,4.12-13.55A30.48,30.48,0,0,1,68.45,23a28.25,28.25,0,0,1,6.39-3.3,25.43,25.43,0,0,1,7.07-1.35A31.93,31.93,0,0,1,95.8,21.18a59.55,59.55,0,0,1,12.13,7.16,107.89,107.89,0,0,1,10.64,9.14,199.71,199.71,0,0,1,18.47,21,237,237,0,0,1,15.91,23,214.64,214.64,0,0,1,12.61,24.91,194,194,0,0,1,9.18,26.36,126.93,126.93,0,0,1,2.91,13.65,88.78,88.78,0,0,1,1.14,13.91,46.21,46.21,0,0,1-2,13.78A21.78,21.78,0,0,1,169,185.33Zm0-.09A21.61,21.61,0,0,0,176.67,174a45.61,45.61,0,0,0,1.9-13.74,88.42,88.42,0,0,0-1.18-13.87,129.41,129.41,0,0,0-3-13.61,195.32,195.32,0,0,0-9.27-26.26,212.81,212.81,0,0,0-12.68-24.8,234,234,0,0,0-16-22.84A199.75,199.75,0,0,0,118,38a106,106,0,0,0-10.6-9,59,59,0,0,0-12-7A31.18,31.18,0,0,0,82,19.25a24.2,24.2,0,0,0-6.79,1.33A27.19,27.19,0,0,0,69,23.78a29.8,29.8,0,0,0-9.1,10.32,38.13,38.13,0,0,0-4.06,13.22c-1.14,9.24.23,18.61,2.7,27.54A124.75,124.75,0,0,0,69.2,100.55q3.33,6.12,7.2,11.93c2.6,3.85,5.33,7.61,8.07,11.36,5.52,7.47,11.25,14.8,17.26,21.89q4.5,5.33,9.23,10.44c3.16,3.41,6.4,6.75,9.77,9.94,6.73,6.38,13.86,12.47,22,17a38.64,38.64,0,0,0,13,4.84,19.8,19.8,0,0,0,6.91-.06l1.69-.41c.56-.16,1.08-.42,1.62-.63l.81-.33c.25-.12.49-.29.75-.43Z"/>
    </g>
  </g>
</svg>
