<svg id="f848c262-df76-43c5-94e9-6d5f5d4b7d5b" data-name="Layer 1" xmlns="http://www.w3.org/2000/svg" width="221.49" height="258.4" viewBox="0 0 221.49 258.4">
  <defs>
    <style>
      .a39a8ebe-6202-4206-8fdb-9da9b71ba5cb, .fa5f48f0-af5f-4d17-939e-a81b50b75188 {
        fill: #ffe309;
      }

      .a39a8ebe-6202-4206-8fdb-9da9b71ba5cb, .e5d54a47-0489-4d5f-915c-6b2ab229a82e {
        stroke: #665608;
      }

      .a0815dd3-deff-4b1c-81aa-efbf618cdaf0, .a39a8ebe-6202-4206-8fdb-9da9b71ba5cb, .e5d54a47-0489-4d5f-915c-6b2ab229a82e, .fa5f48f0-af5f-4d17-939e-a81b50b75188 {
        stroke-miterlimit: 10;
      }

      .a39a8ebe-6202-4206-8fdb-9da9b71ba5cb, .e5d54a47-0489-4d5f-915c-6b2ab229a82e, .fa5f48f0-af5f-4d17-939e-a81b50b75188 {
        stroke-width: 0.75px;
      }

      .fa5f48f0-af5f-4d17-939e-a81b50b75188 {
        stroke: #493c05;
      }

      .f72f7ca8-a1fa-4696-8d76-027b74ecc544 {
        fill: #ecc516;
      }

      .a0815dd3-deff-4b1c-81aa-efbf618cdaf0 {
        fill: #532900;
        stroke: #3a1c03;
      }

      .bd93c3df-f27e-46ee-8333-61645291a4f6 {
        fill: #681a1a;
      }

      .b46aafcd-bdff-418e-b4fd-c180ac7f9cff {
        fill: #ef7089;
      }

      .edab4a8d-7b7b-4d2b-86df-a7aa415541a3 {
        fill: #ff5763;
      }

      .bad4f4c8-a7a8-44cf-a5b4-e98be37f45af {
        fill: #fff;
      }

      .b0e1eb8d-adf4-4521-b83d-dc527b9c0d64 {
        fill: #ef304c;
      }

      .a02dbba2-2f19-4075-b13c-525a86f6e5d4 {
        fill: #ffa979;
      }

      .e5d54a47-0489-4d5f-915c-6b2ab229a82e {
        fill: none;
      }
    </style>
  </defs>
  <path class="a39a8ebe-6202-4206-8fdb-9da9b71ba5cb" d="M143.38,186.34s2.7,4.14,27.23,1.36c0,0,10-.88,15.27-3.23s17.28-5.45,20.2-3,1.82,6.25-4.29,5.39h-6.06s7.24.61,5,8.51-8.33-4.22-8.33-4.22l3.6,6.89s-4,5.47-9.74-3.9c0,0-1.93,4-17.78,7.93s-32.89,1.81-32.89,1.81Z"/>
  <g>
    <path class="a39a8ebe-6202-4206-8fdb-9da9b71ba5cb" d="M60.35,214.18s2.16,6.69-5.46,8.48-13.75.13-13.72,7.9.78,16.14,8.55,16.11S55.86,235.9,61.87,236s16.86-2.63,15-16.23S60.35,214.18,60.35,214.18Z"/>
    <g>
      <path class="fa5f48f0-af5f-4d17-939e-a81b50b75188" d="M145.47,184.19c-4,9.82-9.17,17.79-15.68,23.88a50.62,50.62,0,0,1-16.46,10.32h0a64.38,64.38,0,0,1-14.59,3.71c-.94.14-1.89.25-2.83.33a68.55,68.55,0,0,1-20.66-1.22c-13.42-2.82-24.82-9.06-33.08-14.57-2-1.31-3.76-2.6-5.36-3.75-12-8.75-21.91-9.09-21.91-9.09,7.48-3.41,11.62-11.5,16.43-20.09,4.36-7.85,9.27-16.13,17.76-21.64.43-.29.87-.58,1.34-.86a44.74,44.74,0,0,1,8.69-3.93,60.33,60.33,0,0,1,14.17-2.83l.39,0a80,80,0,0,1,13.43.08,65.32,65.32,0,0,1,8,1.11c16.48,3.75,23.56-7.41,23.56-7.41l31.12,33.49A120.72,120.72,0,0,1,145.47,184.19Z"/>
      <path class="f72f7ca8-a1fa-4696-8d76-027b74ecc544" d="M145.24,182.21c-7.84.59-16.34-1.24-26.24-4.61-20.48-7-34.67-20.35-32.82-30.57a64.52,64.52,0,0,1,11.44-.25,51.33,51.33,0,0,1,6.77.82c14,3,20.24-7.35,20.24-7.35l25.69,29.88C149.13,174.23,146.69,178.63,145.24,182.21Z"/>
      <path class="a0815dd3-deff-4b1c-81aa-efbf618cdaf0" d="M43,206.39c-2-1.31-4.57-2.35-6.17-3.5-12-8.75-21.91-9.09-21.91-9.09,7.48-3.41,12.46-12.29,17.27-20.88C30.73,180.08,30.55,193.71,43,206.39Z"/>
      <path class="a0815dd3-deff-4b1c-81aa-efbf618cdaf0" d="M129.79,208.07a50.62,50.62,0,0,1-16.46,10.32h0c-8.1-2.76-22.66-10.62-35.35-32.79-7.8-13.64-7.6-28.47-4.69-41.15a81.64,81.64,0,0,1,13.82.06c-2.16,10-3,26.6,9,41.41C107.8,200.44,121.33,206,129.79,208.07Z"/>
      <path class="a0815dd3-deff-4b1c-81aa-efbf618cdaf0" d="M95.89,222.43a68.55,68.55,0,0,1-20.66-1.22C66.34,216.62,54.57,208.38,48.6,195c-7.32-16.36-4.23-31.05.47-42.92.43-.29.87-.58,1.34-.86a44.74,44.74,0,0,1,8.69-3.93c-3,9.48-5.86,26.13,3.17,41.16C72.94,206.21,89.36,218.14,95.89,222.43Z"/>
      <g>
        <path class="a39a8ebe-6202-4206-8fdb-9da9b71ba5cb" d="M126.82,81.19S116.7,78,111,54.09s13.09-44.61,25.11-42.16,9.08,12.44-3.82,16.69-20.76,31.49-1.58,50.64C130.75,79.26,140.38,94.22,126.82,81.19Z"/>
        <path class="a39a8ebe-6202-4206-8fdb-9da9b71ba5cb" d="M158.39,88.67s3.27-19.22,11-30.15,28.75-33.68,44.63-22c0,0,4,5.34.36,9.23s-8.77,3.8-12.52-.29S166,54.09,163.15,89.12C163.15,89.12,159.45,97.91,158.39,88.67Z"/>
        <g>
          <path class="a39a8ebe-6202-4206-8fdb-9da9b71ba5cb" d="M187.81,163.4c-7,22.34-30.31,29.13-54.91,26.52a.11.11,0,0,1-.08,0,112.09,112.09,0,0,1-24.06-5.39c-31.65-10.77-42.4-33-29.75-64.45,9.5-23.64,30.95-42.32,55.81-42.4a51.69,51.69,0,0,1,16.89,2.83C183.38,91.28,198.2,130.31,187.81,163.4Z"/>
          <path class="f72f7ca8-a1fa-4696-8d76-027b74ecc544" d="M134.92,189.6a113.35,113.35,0,0,1-24.06-5.41c-31.65-10.78-42.45-32.86-29.9-64,9.43-23.42,30.81-41.89,55.64-41.9-12,3.6-35.86,14.42-45.49,45C78.59,163,107.36,184,134.92,189.6Z"/>
          <g>
            <g>
              <g>
                <g>
                  <path class="bd93c3df-f27e-46ee-8333-61645291a4f6" d="M164.06,160.58s-3.59,10.54-11.36,16.73a19.71,19.71,0,0,1-7.14,3.79c-10,2.8-20.37-1.16-24.48-13.16-.11-.26-.18-.52-.27-.79a38.46,38.46,0,0,1-1.63-10.62s18.42,9.19,37.74,5.87A44,44,0,0,0,164.06,160.58Z"/>
                  <path class="b46aafcd-bdff-418e-b4fd-c180ac7f9cff" d="M164.1,160.55a29,29,0,0,1-1.34,3.53c-.5,1.14-1,2.27-1.63,3.36a41.14,41.14,0,0,1-4.1,6.29,28.57,28.57,0,0,1-5.5,5.2,19.26,19.26,0,0,1-7,3.13,20.21,20.21,0,0,1-15-1.89,19.45,19.45,0,0,1-5.77-5.14,25.46,25.46,0,0,1-3.58-6.8l0,.06a26.47,26.47,0,0,1-.86-2.93c-.23-1-.41-1.94-.56-2.92a41.66,41.66,0,0,1-.49-5.89l0-1.36,1.23.59a69.72,69.72,0,0,0,10.66,3.95,73.24,73.24,0,0,0,11.15,2.37,62.16,62.16,0,0,0,11.41.44c.95,0,1.9-.18,2.85-.26s1.9-.21,2.84-.38A54.2,54.2,0,0,0,164.1,160.55Zm-.08.07a37.44,37.44,0,0,1-5.5,1.54c-.94.2-1.89.35-2.85.47s-1.9.29-2.86.34a57.59,57.59,0,0,1-11.52-.2A72.48,72.48,0,0,1,130,160.55a70.54,70.54,0,0,1-10.84-3.94l.13-.09a44.49,44.49,0,0,0,.51,5.77,32.63,32.63,0,0,0,1.39,5.61h0a24.76,24.76,0,0,0,3.41,6.55,18.5,18.5,0,0,0,5.46,4.93,19.69,19.69,0,0,0,14.35,1.92,18.51,18.51,0,0,0,6.76-2.92,27.87,27.87,0,0,0,5.47-5A45.31,45.31,0,0,0,164,160.62Z"/>
                </g>
                <path class="edab4a8d-7b7b-4d2b-86df-a7aa415541a3" d="M137.88,169.44c8,1.78,13.28,8.36,8.19,11.6a9.92,9.92,0,0,1-4.66,1.29c-16.77-2.25-19.76-11.28-18.64-16.78,2.11-.27,4.35.75,10,3.08A39,39,0,0,1,137.88,169.44Z"/>
                <path class="bd93c3df-f27e-46ee-8333-61645291a4f6" d="M132.18,167.15a15.08,15.08,0,0,1,3.65,12.54s-.5-7.93-6.17-13.06Z"/>
                <path class="bad4f4c8-a7a8-44cf-a5b4-e98be37f45af" d="M142.47,173a39.65,39.65,0,0,1-10.39-.81,15.92,15.92,0,0,1-12.58-15v-.12s17.89,9.23,37.21,5.92C156.39,167.85,153.43,172.38,142.47,173Z"/>
              </g>
              <path class="b0e1eb8d-adf4-4521-b83d-dc527b9c0d64" d="M118.24,149.8a5.21,5.21,0,0,1,.39,2.18,5.43,5.43,0,0,1-.55,2.24,3.78,3.78,0,0,1-1.72,1.59,4,4,0,0,1-1.1.33,6,6,0,0,1-1.12,0v-.05a5.33,5.33,0,0,0,2-.62,3.66,3.66,0,0,0,1.47-1.5,6.81,6.81,0,0,0,.56-4.18Z"/>
              <path class="b0e1eb8d-adf4-4521-b83d-dc527b9c0d64" d="M166.73,163.38a4.53,4.53,0,0,1-1.57-1.07,5.82,5.82,0,0,1-1.07-1.6,5.23,5.23,0,0,1-.41-1.9,4.19,4.19,0,0,1,.38-1.86h.05a6.46,6.46,0,0,0,0,1.81,5.83,5.83,0,0,0,.47,1.74,7.07,7.07,0,0,0,2.22,2.83Z"/>
            </g>
            <ellipse class="a02dbba2-2f19-4075-b13c-525a86f6e5d4" cx="105.34" cy="144.89" rx="6.64" ry="9.46" transform="translate(-65.76 197.93) rotate(-71.2)"/>
            <ellipse class="a02dbba2-2f19-4075-b13c-525a86f6e5d4" cx="180.12" cy="151.5" rx="9.46" ry="6.64" transform="translate(-12.22 15.84) rotate(-4.87)"/>
          </g>
        </g>
      </g>
      <path class="a39a8ebe-6202-4206-8fdb-9da9b71ba5cb" d="M39.91,191.41a5.41,5.41,0,0,1,9.3,2.45,12,12,0,0,1-.86,8.34c-3.25,6.06-9.74,12.88-18.41,12.49s-10.13,7-11.52,11.57-9.63,6.37-12-3.07c0,0-3.78-12.49,5.06-20.71,0,0,3.07-4.39,15.93-3.89C35.25,198.9,37.26,194.41,39.91,191.41Z"/>
    </g>
    <path class="a39a8ebe-6202-4206-8fdb-9da9b71ba5cb" d="M84.22,175.27s-14.07,21.52,5,30.73c11.25,5.41,16.81,8.53,20.45,8.31,5.09-.31,13.17,8.53,12.94,12.5,0,0,0,8.07-4.87,4.41,0,0-4.31,10.67-18.17-.12,0,0-1.35-4.27,5.58-6.8,0,0-51.74-6.71-43.34-49.22C61.86,175.08,73.85,163.14,84.22,175.27Z"/>
    <path class="e5d54a47-0489-4d5f-915c-6b2ab229a82e" d="M107.86,228.18s6-1.46-6.09-4.92"/>
    <line class="a39a8ebe-6202-4206-8fdb-9da9b71ba5cb" x1="117.79" y1="231.22" x2="118.74" y2="226.51"/>
  </g>
</svg>
