<svg id="a9b02eba-fcbe-4428-a2b9-23f4f36c528f" data-name="Layer 1" xmlns="http://www.w3.org/2000/svg" width="135.32" height="88.97" viewBox="0 0 135.32 88.97">
  <defs>
    <style>
      .a0516553-8d2a-4882-8b21-63def9267a5c {
        fill: #fff;
      }

      .bcc6228a-c690-47a5-9c2b-b2877fdbd40f {
        fill: #702840;
      }

      .b1e42da0-85e6-4261-ba37-f45236bc329d {
        fill: #210a11;
      }
    </style>
  </defs>
  <g>
    <g>
      <g>
        <ellipse class="a0516553-8d2a-4882-8b21-63def9267a5c" cx="95.33" cy="53.95" rx="27.65" ry="20.39" transform="translate(32.61 143.76) rotate(-84.58)"/>
        <path class="bcc6228a-c690-47a5-9c2b-b2877fdbd40f" d="M92.42,81.4c6.4.69,12.44-3,16.24-7.9,7.5-10,8.67-24.39,3.16-35.45-6.3-12.79-20.44-14.53-29.36-3.27a34.75,34.75,0,0,0-4.17,35.34C81,75.73,86,80.62,92.42,81.4Zm0,.1C86,80.76,80.82,75.86,78.08,70.22a35.28,35.28,0,0,1,3.71-36C91.1,22.34,106,24.15,112.6,37.67a35.29,35.29,0,0,1-3.76,36c-3.86,4.94-10,8.59-16.43,7.85Z"/>
      </g>
      <ellipse class="b1e42da0-85e6-4261-ba37-f45236bc329d" cx="94.14" cy="56.98" rx="12.45" ry="9.24" transform="translate(22.18 140.23) rotate(-80.35)"/>
      <ellipse class="a0516553-8d2a-4882-8b21-63def9267a5c" cx="90.53" cy="49.54" rx="3.42" ry="2.54" transform="translate(26.51 130.48) rotate(-80.35)"/>
    </g>
    <g>
      <g>
        <ellipse class="a0516553-8d2a-4882-8b21-63def9267a5c" cx="40.05" cy="43.35" rx="25.15" ry="18.54" transform="translate(-13.6 67.94) rotate(-71.9)"/>
        <path class="bcc6228a-c690-47a5-9c2b-b2877fdbd40f" d="M32,67.12C37.53,69,43.61,67,48,63.35a31.61,31.61,0,0,0,9.83-30.8C54.76,20,42.62,15.66,32.5,23.82A31.61,31.61,0,0,0,21.71,54.29C23,59.81,26.49,65.15,32,67.12Zm0,.09C26.4,65.27,22.8,59.9,21.49,54.35A32.1,32.1,0,0,1,32,23.15c10.65-8.7,23.55-4.11,26.67,9.2A32.1,32.1,0,0,1,48.11,63.53C43.69,67.15,37.52,69.16,32,67.21Z"/>
      </g>
      <ellipse class="b1e42da0-85e6-4261-ba37-f45236bc329d" cx="39.92" cy="48.11" rx="11.32" ry="8.41" transform="translate(-16.38 75.27) rotate(-76.08)"/>
      <ellipse class="a0516553-8d2a-4882-8b21-63def9267a5c" cx="37.14" cy="41.11" rx="3.11" ry="2.31" transform="translate(-11.7 67.27) rotate(-76.08)"/>
    </g>
    <path class="b1e42da0-85e6-4261-ba37-f45236bc329d" d="M55.19,8.35S46.83,6.58,34.4,13.17C34.4,13.17,55.19-6.86,55.19,8.35Z"/>
    <path class="b1e42da0-85e6-4261-ba37-f45236bc329d" d="M89.62,9.66S99,10.68,110.2,21C110.2,21,94.1-4.89,89.62,9.66Z"/>
  </g>
</svg>
