<svg id="b9048873-9903-4a84-a987-b1a382eeac4d" data-name="Layer 1" xmlns="http://www.w3.org/2000/svg" width="82.35" height="62.12" viewBox="0 0 82.35 62.12">
  <defs>
    <style>
      .a944286f-f2ae-46ee-bfb0-d6528ae88216, .aee4ce84-c530-4d0f-b2d7-568c23b85792 {
        fill: #fff;
      }

      .a944286f-f2ae-46ee-bfb0-d6528ae88216 {
        stroke: #702840;
      }

      .a245cb79-c1e4-4079-8d11-1ef86a88bd2c, .a944286f-f2ae-46ee-bfb0-d6528ae88216 {
        stroke-miterlimit: 10;
        stroke-width: 0.75px;
      }

      .a9f8fc6f-c22c-47e3-87d9-6d09d7fc2445 {
        fill: #210a11;
      }

      .a245cb79-c1e4-4079-8d11-1ef86a88bd2c {
        fill: #ffe309;
        stroke: #665608;
      }
    </style>
  </defs>
  <g>
    <g>
      <g>
        <path class="a944286f-f2ae-46ee-bfb0-d6528ae88216" d="M37.82,36.91a23.79,23.79,0,0,1-1.49,4.48C33.14,48.59,26.81,53,20.78,51.72,14.41,50.34,10.5,43,11.22,34.57a26.25,26.25,0,0,1,.52-3.32c2.21-9.75,9.83-16.38,17-14.82S40,27.16,37.82,36.91Z"/>
        <ellipse class="a9f8fc6f-c22c-47e3-87d9-6d09d7fc2445" cx="31.08" cy="34.32" rx="8.15" ry="6.05" transform="matrix(0.16, -0.99, 0.99, 0.16, -7.74, 59.55)"/>
        <ellipse class="aee4ce84-c530-4d0f-b2d7-568c23b85792" cx="35.01" cy="32.96" rx="2.23" ry="1.66" transform="translate(-3.1 62.29) rotate(-80.86)"/>
      </g>
      <g>
        <path class="a944286f-f2ae-46ee-bfb0-d6528ae88216" d="M73.38,39.07a21.69,21.69,0,0,1-.75,5.67c-1.71,6.31-6.17,10.84-11.4,10.88-6.12.05-11.17-6.07-12-14a22.05,22.05,0,0,1-.12-2.31c0-9.09,5.45-16.5,12.15-16.55S73.4,30,73.38,39.07Z"/>
        <ellipse class="a9f8fc6f-c22c-47e3-87d9-6d09d7fc2445" cx="67.34" cy="39.78" rx="5.5" ry="7.41" transform="translate(-2.33 4.23) rotate(-3.54)"/>
        <ellipse class="aee4ce84-c530-4d0f-b2d7-568c23b85792" cx="70.65" cy="37.03" rx="1.51" ry="2.03" transform="translate(-2.15 4.43) rotate(-3.54)"/>
      </g>
      <path class="a9f8fc6f-c22c-47e3-87d9-6d09d7fc2445" d="M59.25,14.29s5.56.67,11.86,7.37C71.11,21.66,62.46,4.87,59.25,14.29Z"/>
      <path class="a9f8fc6f-c22c-47e3-87d9-6d09d7fc2445" d="M37.65,7.84s-6-1.34-15.14,2.7C22.51,10.54,37.94-2.11,37.65,7.84Z"/>
    </g>
    <path class="a245cb79-c1e4-4079-8d11-1ef86a88bd2c" d="M37.82,36.91a23.79,23.79,0,0,1-1.49,4.48c-.86,0-1.71-.09-2.55-.17h0a58.28,58.28,0,0,1-7.39-1.17,64.3,64.3,0,0,1-15.16-5.48,26.25,26.25,0,0,1,.52-3.32c2.21-9.75,9.83-16.38,17-14.82S40,27.16,37.82,36.91Z"/>
    <path class="a245cb79-c1e4-4079-8d11-1ef86a88bd2c" d="M73.38,39.07a21.69,21.69,0,0,1-.75,5.67c-.39.08-.79.15-1.21.2a31.43,31.43,0,0,1-8-.16,89.8,89.8,0,0,1-14.18-3.21,22.05,22.05,0,0,1-.12-2.31c0-9.09,5.45-16.5,12.15-16.55S73.4,30,73.38,39.07Z"/>
  </g>
</svg>
