<svg id="ea3aa376-0819-483a-925a-07ed9a4cfb64" data-name="Layer 1" xmlns="http://www.w3.org/2000/svg" width="140.82" height="113.29" viewBox="0 0 140.82 113.29">
  <defs>
    <style>
      .a8aaafc5-2d63-40a3-a043-b5e3c9b705c2, .ab8dd3ee-43fa-4a48-9b3a-7c2a0764d1a5 {
        fill: #fff;
      }

      .a8aaafc5-2d63-40a3-a043-b5e3c9b705c2 {
        stroke: #702840;
      }

      .a43a5a7c-c316-43d0-b98a-c82c61b0c4b8, .a8aaafc5-2d63-40a3-a043-b5e3c9b705c2 {
        stroke-miterlimit: 10;
        stroke-width: 0.75px;
      }

      .aa73eae6-473b-4855-b815-e85f46083726 {
        fill: #210a11;
      }

      .a43a5a7c-c316-43d0-b98a-c82c61b0c4b8 {
        fill: #ffe309;
        stroke: #665608;
      }
    </style>
  </defs>
  <g>
    <g>
      <g>
        <path class="a8aaafc5-2d63-40a3-a043-b5e3c9b705c2" d="M59.94,65.59a42.81,42.81,0,0,1-1.48,7C54.2,86.77,43.23,96.47,31.8,95.09,21.29,93.81,13.57,83.55,12,70.39a42.26,42.26,0,0,1,.08-10.59C14.44,41.91,27,28.7,40.24,30.3S62.27,47.7,59.94,65.59Z"/>
        <ellipse class="aa73eae6-473b-4855-b815-e85f46083726" cx="47.39" cy="62.08" rx="14.71" ry="10.92" transform="translate(-17.7 105.25) rotate(-86.19)"/>
        <ellipse class="ab8dd3ee-43fa-4a48-9b3a-7c2a0764d1a5" cx="54.23" cy="58.98" rx="4.04" ry="3" transform="translate(-8.21 109.17) rotate(-86.19)"/>
      </g>
      <g>
        <path class="a8aaafc5-2d63-40a3-a043-b5e3c9b705c2" d="M124.29,70.46c-1.09,13.25-8.82,23.79-19.11,24.84C94.42,96.39,84.5,86.71,81.45,73a39.1,39.1,0,0,1-.79-5c-1.51-16.34,7-30.57,19.07-31.79s23,11,24.53,27.38A39.39,39.39,0,0,1,124.29,70.46Z"/>
        <ellipse class="aa73eae6-473b-4855-b815-e85f46083726" cx="113.5" cy="65.81" rx="9.93" ry="13.38" transform="translate(-8.8 18.3) rotate(-8.88)"/>
        <ellipse class="ab8dd3ee-43fa-4a48-9b3a-7c2a0764d1a5" cx="118.99" cy="60.3" rx="2.72" ry="3.67" transform="translate(-7.88 19.08) rotate(-8.88)"/>
      </g>
      <path class="aa73eae6-473b-4855-b815-e85f46083726" d="M117.23,32.58A55.14,55.14,0,0,0,108,25.93c-7.86-4.45-13.33-4.59-13.33-4.59,2.94-12.26,12.84-1.81,18.51,5.54C115.5,29.89,117.11,32.38,117.23,32.58Z"/>
      <path class="aa73eae6-473b-4855-b815-e85f46083726" d="M54.75,13.37S43.7,12,28,20.77C28,20.77,53.61-4.57,54.75,13.37Z"/>
    </g>
    <path class="a43a5a7c-c316-43d0-b98a-c82c61b0c4b8" d="M59.94,65.59a42.81,42.81,0,0,1-1.48,7,27,27,0,0,1-5,1.44,54.74,54.74,0,0,1-11.88.85C30.35,74.58,18.37,72,12,70.39a42.26,42.26,0,0,1,.08-10.59C14.44,41.91,27,28.7,40.24,30.3S62.27,47.7,59.94,65.59Z"/>
    <path class="a43a5a7c-c316-43d0-b98a-c82c61b0c4b8" d="M124.29,70.46c-.12.11-.23.21-.35.3a12.54,12.54,0,0,1-1,.73c-3.93,2.61-9.51,3.75-15.59,4-8.66.37-18.35-1-25.88-2.53a39.1,39.1,0,0,1-.79-5c-1.51-16.34,7-30.57,19.07-31.79s23,11,24.53,27.38A39.39,39.39,0,0,1,124.29,70.46Z"/>
  </g>
</svg>
