<svg id="e2b4bf2f-3f15-4a40-bc02-7b44e77fc8b8" data-name="Layer 1" xmlns="http://www.w3.org/2000/svg" width="160.47" height="153.88" viewBox="0 0 160.47 153.88">
  <defs>
    <style>
      .ec4b23ff-b6b1-4eb0-9bd5-f13dea149b36 {
        fill: #bcfde5;
      }

      .e7b59ef4-55df-46c5-9829-5deaa809b9e6 {
        fill: #ebf7f2;
      }
    </style>
  </defs>
  <g>
    <g>
      <path class="ec4b23ff-b6b1-4eb0-9bd5-f13dea149b36" d="M25,132.42c12.93,11.32,42.44-16.6,60.3-37s25-45.07,12-56.39S64.59,43,46.73,63.37,12,121.09,25,132.42Z"/>
      <path class="e7b59ef4-55df-46c5-9829-5deaa809b9e6" d="M25,132.38a11,11,0,0,0,3.76,2.05,12.43,12.43,0,0,0,4.25.46,23.82,23.82,0,0,0,8.29-2.2,71.44,71.44,0,0,0,14.59-9.17,207.42,207.42,0,0,0,25-23.9c1.93-2.14,3.85-4.3,5.68-6.51s3.54-4.53,5.15-6.91a76.65,76.65,0,0,0,8.1-15.12,43.78,43.78,0,0,0,3.31-16.6,22.79,22.79,0,0,0-1.65-8.15,17.84,17.84,0,0,0-4.77-6.65,16.33,16.33,0,0,0-3.39-2.27,14.6,14.6,0,0,0-3.88-1.22,18.65,18.65,0,0,0-8.2.75,36,36,0,0,0-7.73,3.45,64.41,64.41,0,0,0-7.09,4.8A122.57,122.57,0,0,0,53.6,56.74a144.56,144.56,0,0,0-11.39,13A132.83,132.83,0,0,0,32.7,84.12a122.41,122.41,0,0,0-7.51,15.56,66.72,66.72,0,0,0-4.43,16.65,28.45,28.45,0,0,0,.23,8.59A13.43,13.43,0,0,0,25,132.38Zm-.06.07a13.45,13.45,0,0,1-4.09-7.5,28.51,28.51,0,0,1-.29-8.65,67,67,0,0,1,4.34-16.74A122.49,122.49,0,0,1,32.32,83.9a135.73,135.73,0,0,1,9.45-14.52,144.49,144.49,0,0,1,11.36-13.1,123.1,123.1,0,0,1,12.78-11.7,67,67,0,0,1,7.15-4.91A37,37,0,0,1,81,36.09a19.55,19.55,0,0,1,8.59-.83,15.53,15.53,0,0,1,4.16,1.27,17.64,17.64,0,0,1,3.62,2.4,18.76,18.76,0,0,1,5,7A23.75,23.75,0,0,1,104,54.46a44.48,44.48,0,0,1-3.48,16.91C96.21,82.15,89.18,91.6,81.27,100a209.07,209.07,0,0,1-25.19,23.79,71.48,71.48,0,0,1-14.71,9.11A24.06,24.06,0,0,1,33,135a12.23,12.23,0,0,1-4.29-.49A10.82,10.82,0,0,1,24.93,132.45Z"/>
    </g>
    <g>
      <path class="ec4b23ff-b6b1-4eb0-9bd5-f13dea149b36" d="M32.94,129.42C44.48,142.16,77,117.84,97.12,99.64s30-41.88,18.47-54.62-32.95.14-53,18.33S21.4,116.68,32.94,129.42Z"/>
      <path class="e7b59ef4-55df-46c5-9829-5deaa809b9e6" d="M33,129.39a11,11,0,0,0,3.49,2.47,12.17,12.17,0,0,0,4.17.94,23.84,23.84,0,0,0,8.49-1.21,71.72,71.72,0,0,0,15.56-7.43,208.23,208.23,0,0,0,27.57-20.85c2.16-1.91,4.32-3.84,6.39-5.82s4-4.09,5.92-6.26a76.67,76.67,0,0,0,9.79-14.09A43.7,43.7,0,0,0,119.57,61a22.87,22.87,0,0,0-.7-8.29,17.89,17.89,0,0,0-4-7.15A16,16,0,0,0,111.79,43a14.23,14.23,0,0,0-3.71-1.66,18.7,18.7,0,0,0-8.23-.21,36.24,36.24,0,0,0-8.08,2.54,65.93,65.93,0,0,0-7.6,3.94,123.68,123.68,0,0,0-14,10A143.49,143.49,0,0,0,57.33,69.13,132.37,132.37,0,0,0,46.21,82.34,121.71,121.71,0,0,0,37,96.93a66.36,66.36,0,0,0-6.33,16,28.08,28.08,0,0,0-.76,8.56A13.41,13.41,0,0,0,33,129.39Zm-.07.07a13.53,13.53,0,0,1-3.2-7.93,28.73,28.73,0,0,1,.71-8.62,67.17,67.17,0,0,1,6.25-16.13,121.21,121.21,0,0,1,9.19-14.69A133.19,133.19,0,0,1,56.93,68.75a144.55,144.55,0,0,1,12.79-11.7,125,125,0,0,1,14-10.15,65.19,65.19,0,0,1,7.67-4,36.85,36.85,0,0,1,8.26-2.65,19.64,19.64,0,0,1,8.63.17,15.55,15.55,0,0,1,4,1.75,17.48,17.48,0,0,1,3.33,2.8,18.55,18.55,0,0,1,4.14,7.57,23.64,23.64,0,0,1,.67,8.62A44.34,44.34,0,0,1,115,77.51c-5.52,10.21-13.6,18.79-22.42,26.21a207.7,207.7,0,0,1-27.77,20.72,71.28,71.28,0,0,1-15.66,7.35A23.94,23.94,0,0,1,40.63,133a12.44,12.44,0,0,1-4.21-1A11,11,0,0,1,32.91,129.46Z"/>
    </g>
  </g>
</svg>
