<svg id="a7a55daf-178f-426a-a54c-55e48d76b659" data-name="Layer 1" xmlns="http://www.w3.org/2000/svg" width="21.14" height="25.6" viewBox="0 0 21.14 25.6">
  <defs>
    <style>
      .a059f063-d299-4318-8a5c-ff255b8b6bd4, .ed2cef9d-132d-497e-9043-e59af6324e19 {
        fill: #fff;
      }

      .b1b808ed-218d-4621-a476-58a88d881a76 {
        fill: #724009;
      }

      .f23ce01c-6549-4079-85db-8300c2bc64f1 {
        fill: #231f20;
      }

      .ed2cef9d-132d-497e-9043-e59af6324e19 {
        opacity: 0.53;
      }

      .f90c2255-82bd-4c0b-ad17-ef1b30c75fd5 {
        fill: #846e2f;
      }

      .be08f622-451f-4908-b88d-4d814ccf92de {
        fill: #8e7717;
      }
    </style>
  </defs>
  <g>
    <g>
      <ellipse class="a059f063-d299-4318-8a5c-ff255b8b6bd4" cx="10.57" cy="12.8" rx="12.36" ry="8.79" transform="translate(-5.62 16.46) rotate(-63.19)"/>
      <path class="b1b808ed-218d-4621-a476-58a88d881a76" d="M17.7,18.14C12.39,27,.64,27.54.63,15.35.93,9.68,4.15,4,9.35,1.47,12,.18,15.48.18,17.74,2.26c4.43,4.18,2.86,11.28,0,15.88Zm-.09-.06C21,13,21.25,2.46,13.58,1.62,6.64,1.58,1.69,9,1.28,15.38,1,27.07,12.63,26.52,17.61,18.08Z"/>
    </g>
    <path class="f23ce01c-6549-4079-85db-8300c2bc64f1" d="M3.94,7.12c-1.88,3.4-1.73,7.12.33,8.31s5.26-.6,7.13-4,1.73-7.12-.33-8.31S5.82,3.72,3.94,7.12Z"/>
    <ellipse class="ed2cef9d-132d-497e-9043-e59af6324e19" cx="4.92" cy="12.8" rx="1.61" ry="1.42" transform="translate(-8.63 14.87) rotate(-77.68)"/>
    <ellipse class="a059f063-d299-4318-8a5c-ff255b8b6bd4" cx="12.42" cy="7.7" rx="1.78" ry="1.57" transform="translate(2.25 18.2) rotate(-77.68)"/>
    <g>
      <ellipse class="f90c2255-82bd-4c0b-ad17-ef1b30c75fd5" cx="10.57" cy="12.8" rx="12.36" ry="8.79" transform="translate(-5.62 16.46) rotate(-63.19)"/>
      <path class="be08f622-451f-4908-b88d-4d814ccf92de" d="M17.7,18.14C12.39,27,.64,27.54.63,15.35.93,9.68,4.15,4,9.35,1.47,12,.18,15.48.18,17.74,2.26c4.43,4.18,2.86,11.28,0,15.88Zm-.09-.06C21,13,21.25,2.46,13.58,1.62,6.64,1.58,1.69,9,1.28,15.38,1,27.07,12.63,26.52,17.61,18.08Z"/>
    </g>
  </g>
</svg>
