<svg id="Layer_1" data-name="Layer 1" xmlns="http://www.w3.org/2000/svg" width="340" height="580" viewBox="0 0 340 580">
  <defs>
    <style>
      .cls-1 {
        opacity: 0.3;
      }

      .cls-2 {
        opacity: 0.2;
      }

      .cls-3 {
        fill: #342517;
      }

      .cls-4 {
        fill: #7c4153;
      }

      .cls-5 {
        fill: #a05f70;
      }

      .cls-10, .cls-5 {
        stroke: #701313;
      }

      .cls-10, .cls-11, .cls-12, .cls-13, .cls-14, .cls-25, .cls-28, .cls-29, .cls-5, .cls-6, .cls-7, .cls-9 {
        stroke-miterlimit: 10;
        stroke-width: 0.5px;
      }

      .cls-6 {
        fill: #f9f5f4;
      }

      .cls-6, .cls-7 {
        stroke: #6b180d;
      }

      .cls-7 {
        fill: #c54931;
      }

      .cls-8 {
        fill: #4c2606;
      }

      .cls-9 {
        fill: none;
      }

      .cls-11, .cls-12, .cls-13, .cls-9 {
        stroke: #4c2606;
      }

      .cls-10 {
        fill: #e59e5a;
      }

      .cls-11 {
        fill: #f9dad2;
      }

      .cls-12 {
        fill: #a30a57;
      }

      .cls-13 {
        fill: #ed4c9d;
      }

      .cls-14 {
        fill: #3c6c89;
        stroke: #071d49;
      }

      .cls-15 {
        fill: #342516;
      }

      .cls-16 {
        fill: #b26b51;
      }

      .cls-17 {
        fill: #eaa698;
        opacity: 0.5;
      }

      .cls-18 {
        fill: #8c3d35;
      }

      .cls-19 {
        fill: #7a2f2b;
      }

      .cls-20 {
        fill: #f9988f;
      }

      .cls-21 {
        fill: #f58778;
      }

      .cls-22 {
        fill: #fff7f4;
      }

      .cls-23 {
        fill: #f48a71;
      }

      .cls-24 {
        fill: #ef4b3b;
      }

      .cls-25 {
        fill: #fe66ca;
      }

      .cls-25, .cls-28 {
        stroke: #af1086;
      }

      .cls-26 {
        fill: #fffa71;
      }

      .cls-27 {
        fill: #cc0098;
      }

      .cls-28 {
        fill: #e852bb;
      }

      .cls-29 {
        fill: #e7d760;
        stroke: #baa73b;
      }
    </style>
  </defs>
  <g>
    <g>
      <ellipse class="cls-1" cx="317.89" cy="532.23" rx="21.96" ry="12.49"/>
      <ellipse class="cls-2" cx="138.26" cy="541.23" rx="69.59" ry="30.98"/>
    </g>
    <g>
      <path class="cls-3" d="M211.83,104.33s4.06,44.15-.39,74,10.9,38.53-8.65,55.41S145,258.08,128.73,242c0,0-10.86,3.2-36.85-.75s-45.57-16-38.35-40.67,3.71-57.31,4.84-76.68,25.28-42.08,76.1-28.39S211.83,104.33,211.83,104.33Z"/>
      <polygon class="cls-4" points="305.22 287.12 312.77 528.01 325.81 533.5 316.2 304.96 305.22 287.12"/>
      <path class="cls-5" d="M175.45,461.21l3.77,2.69a3.57,3.57,0,0,0,4.8-.6,120.87,120.87,0,0,0,13.62-19.7C203.82,431.93,177.51,448.86,175.45,461.21Z"/>
      <path class="cls-5" d="M194.21,437.88a19.73,19.73,0,0,1,.69,13.95c-2.52,7.55,7.55-5.49,7.55-5.49S202.68,434.45,194.21,437.88Z"/>
      <g>
        <path class="cls-6" d="M170.87,532.13C151,540.59,140,524.35,140,524.35a32.68,32.68,0,0,1-1.65-4.37c-1.83-5.91-3.66-16.71,3.26-25.36,10.06-12.59,19-.92,19-.92a72.25,72.25,0,0,0,10.74,11.2,36.16,36.16,0,0,1,7.21,7.72v0C182.63,518.77,183.84,526.61,170.87,532.13Z"/>
        <path class="cls-7" d="M168.36,526.64c-16.65,7.08-27.06-3.14-30-6.66-1.83-5.91-3.66-16.71,3.26-25.36,10.06-12.59,19-.92,19-.92a72.25,72.25,0,0,0,10.74,11.2,36.16,36.16,0,0,1,7.21,7.72v0C179.68,517.51,177.68,522.68,168.36,526.64Z"/>
      </g>
      <g>
        <path class="cls-5" d="M167.67,473.11l2.41,1.37s.69,10.3-4.12,17.84-25.05,4.12-25.05,4.12L138.17,481l-4.47-30.55c11.33-13,18.87-29.16,18.87-29.16a85.4,85.4,0,0,0-6.19-30.79,78.8,78.8,0,0,0-5.47-11.42L190,368.78q2.45,6.08,4.34,11.3c12.72,34.77,9.05,43.27,9.05,43.27C196.5,445.31,167.67,473.11,167.67,473.11Z"/>
        <path class="cls-5" d="M152.58,421.29s3.08,6.18,12.69,1.72"/>
        <path class="cls-5" d="M136.1,462.81s2.75,17.5,31.57,15.1"/>
        <line class="cls-5" x1="171.28" y1="468.82" x2="164.93" y2="476.37"/>
        <path class="cls-4" d="M194.32,380.08c-14.6,6.44-36.66,9.32-47.94,10.42a78.8,78.8,0,0,0-5.47-11.42L190,368.78Q192.43,374.86,194.32,380.08Z"/>
      </g>
      <g>
        <path class="cls-6" d="M149.14,544c.46,9.38-15.1,18.53-38.89,17.16-17-1-22.8-7.94-21.36-14.41a12.73,12.73,0,0,1,4.89-7.1c9.15-7.09,13.27-13.27,13.27-13.27s30.88-11.21,35.92-4.57a26.35,26.35,0,0,1,4,7.22C148.46,533.38,148.85,538.06,149.14,544Z"/>
        <path class="cls-7" d="M147.54,536.94c.46,9.37-15.1,18.52-38.89,17.15-10.69-.61-17-3.59-19.76-7.31a12.73,12.73,0,0,1,4.89-7.1c9.15-7.09,13.27-13.27,13.27-13.27s30.88-11.21,35.92-4.57a26.35,26.35,0,0,1,4,7.22C147.24,531.45,147.4,534,147.54,536.94Z"/>
      </g>
      <g>
        <path class="cls-5" d="M152.23,519.09c-10.29,13.39-40.49,14.42-50.79,8.92s-6.86-12-8.91-21.62,6.17-10.64,6.17-10.64l0,.09c-.14-.79-1.25-6.95-7.91-43.32-5.84-31.84-5.8-56.2-5.08-69.27.39-6.93,1-10.68,1-10.68l49.07,8.91c-.55,3.1-1,6.21-1.39,9.33-6.05,50.43,11,99.46,11,99.46,9.95,8.23,1,8.91,5.49,16.81S152.23,519.09,152.23,519.09Z"/>
        <g>
          <path class="cls-5" d="M82.11,445.43s-.68,19.9-.45,30.42,16.93,11.9,16.93,11.9,11.66-.23,11.66-19.9-2.74-30.66-2.74-30.66S92.18,437.19,82.11,445.43Z"/>
          <g>
            <path class="cls-5" d="M82.34,429.18s-5,6.41-6.17,17.62c0,0,14.18,6.63,26.53,3.66,0,0,4.58-5.49,5.49-11.21S94.7,428.5,82.34,429.18Z"/>
            <ellipse class="cls-5" cx="90.01" cy="440.62" rx="3.77" ry="2.97"/>
          </g>
          <path class="cls-8" d="M99.27,487.2a54.38,54.38,0,0,0,2.16-8.69c.53-2.95.89-5.93,1.16-8.91s.43-6,.54-9l.07-4.5,0-4.51.1,4.51v4.5c-.07,3-.16,6-.41,9s-.55,6-1,9a54.84,54.84,0,0,1-2.07,8.8Z"/>
        </g>
        <path class="cls-5" d="M94.92,500.1s4.35,8,28.37,5.72,24.25-11,24.25-11"/>
        <line class="cls-5" x1="98.13" y1="492.32" x2="100.42" y2="503.08"/>
        <line class="cls-5" x1="143.65" y1="485.69" x2="146.63" y2="496.9"/>
        <path class="cls-4" d="M135.76,381.48c-.55,3.1-1,6.21-1.39,9.33-18.75-.22-38.36-4.78-48.64-7.56.39-6.93,1-10.68,1-10.68Z"/>
      </g>
      <line class="cls-9" x1="187.23" y1="258.98" x2="189.29" y2="240.1"/>
      <path class="cls-10" d="M87,252.46a53,53,0,0,1-4.67,9.81c-11.68,19.35-33.42,30.34-33.42,30.34-19.13-12.26-28.61-39.82-32.46-54.54-1.55-5.88-2.19-9.72-2.19-9.72l19.55-7.81c1.15,3.73,2.31,7,3.46,9.9,7.09,17.76,13.7,20.3,13.7,20.3,12.89-18.09,22.81-28.28,28.07-33.13A54.06,54.06,0,0,1,83.26,214Z"/>
      <path class="cls-10" d="M49.29,249.37s10.29,5.49,8.57,17.16"/>
      <g>
        <path class="cls-11" d="M5.1,189.92s-2-3.09,1.63-6.78,6.18-2.83,6.18-2.83-.26-3.52,4.2-5.41c0,0,2.41-1.11,5.84,3.09,0,0,.34-2.91,4.12-1.71a26,26,0,0,1,6,7.72s-.17-4.63,2.66-6.35c0,0,3-1.37,3.6,6.18,0,0,.69,5.49,4.38,7.8s4,10.9-1.63,19-7.38,12-7.38,12-7,7.55-19.73,8.84l-.69-3.09A29.3,29.3,0,0,1,.81,210.08C-2,197.47,5.1,189.92,5.1,189.92Z"/>
        <path class="cls-9" d="M3.39,192.49s2.91-4.63,6.78-5.06c0,0,6.86,5.06,10.12,8.58,2.75,3,.31,5.14.15,12.65a3.49,3.49,0,0,1-6.72,1.21,15.3,15.3,0,0,1-.84-3.48l-.06-.34-.68-6.87"/>
        <path class="cls-11" d="M7.25,200.81a4.48,4.48,0,0,0,5.23,2.49"/>
        <path class="cls-9" d="M10.51,180.39s2.74-1.88,8.92,5,9.69,7,8.41,14.93-6.61,6.35-6.61,6.35"/>
        <path class="cls-9" d="M21.66,176.53a97.65,97.65,0,0,1,9.61,12.79c3.6,6.09,1.89,11.84-3.6,12.69"/>
        <path class="cls-9" d="M32.77,183.18s4.76,6.91,4,11.37-4.29,4-4.29,4"/>
        <path class="cls-11" d="M30.41,201s-5.83,5.84-.11,12.36"/>
      </g>
      <path class="cls-12" d="M37.3,230.44a36.45,36.45,0,0,1-20.82,7.63c-1.55-5.88-2.19-9.72-2.19-9.72l19.55-7.81C35,224.27,36.15,227.56,37.3,230.44Z"/>
      <path class="cls-11" d="M107.62,215.05s9.95-.34,8.58-13,.34-1.37.34-1.37,8.93-8.58,27.46-1.37l4.11,2.4s-4.8,14.41,5.84,16.47,6.52,23.34,6.52,23.34l-26.77,12-23.33-11-7.55-15.79Z"/>
      <g>
        <g>
          <path class="cls-10" d="M287.52,272.88,285,297s-3.22,0-8.33-.26c-13.2-.73-39.07-3.45-54.59-13.69a347,347,0,0,1-35.23-26.31L186,270l-.29,4.54,6.63,30.66-1.83,10.53,0,.59,1.82,27.16.2,3.13s.22.25.6.71c2,2.42,8.55,10.65,12.21,18.73,0,0-28.36,15.1-68.86,16.71S75.71,371.3,75.71,371.3l10.45-17.79.3-.51L86,348.61l0-.41.63-29.05.06-3,8.7-102a42.64,42.64,0,0,1,10.37-1.45h.39a39.2,39.2,0,0,1,5.71.31s-.24,12.35,20.81,13.72,16.93-11.21,16.93-11.21a37,37,0,0,1,5.42-.4c1,0,2.12,0,3.37,0A77,77,0,0,1,172,216.88s1.82-1.13,6.43-.06c5.08,1.18,13.56,5,26.74,16.08,25.17,21,28.37,20.59,28.37,20.59s27.46,12.19,47.35,17.74C283.23,271.89,285.46,272.44,287.52,272.88Z"/>
          <path class="cls-12" d="M127,231.3,126.72,356h11.67s4.81-103.41-.23-123.08Z"/>
          <path class="cls-12" d="M193.21,347.31c-8.93,5-24,10.16-48.64,10.95-34.77,1.13-51.53-2.5-58.41-4.75l.3-.51L86,348.61c8.62,3.64,25.4,7.43,57.15,5.76,26-1.36,40.8-6.13,49.22-10.9l.2,3.13S192.83,346.85,193.21,347.31Z"/>
          <path class="cls-12" d="M158.53,217c0,10-12,18.18-26.77,18.18S105,227,105,217a12.35,12.35,0,0,1,.77-4.31,40.47,40.47,0,0,1,6.1.31s-.24,12.35,20.81,13.72,16.93-11.21,16.93-11.21a46.25,46.25,0,0,1,8.79-.39A13.11,13.11,0,0,1,158.53,217Z"/>
          <circle class="cls-13" cx="133.7" cy="257.72" r="4.23"/>
          <circle class="cls-13" cx="133.7" cy="295.92" r="4.23"/>
          <circle class="cls-13" cx="132.79" cy="332.99" r="4.23"/>
          <g>
            <path class="cls-14" d="M78.91,216.66s-.69-7.78,15.79-9.84,11,6.86,11,6.86S93.55,287.8,87.83,307.93c0,0,.92,7.33-.91,10.76,0,0-3.43,8.69-4.12-37.75S78.91,216.66,78.91,216.66Z"/>
            <path class="cls-14" d="M154.86,214.6s8.7-6.64,23.34-1.15c0,0,3.66,55.36,14.87,78.47,0,0,6,13.5-3.21,25.39L188,299.47S177.51,289.4,154.86,214.6Z"/>
          </g>
        </g>
        <path class="cls-12" d="M287.52,272.88,285,297s-3.22,0-8.33-.26a29.79,29.79,0,0,1,4.2-25.46C283.23,271.89,285.46,272.44,287.52,272.88Z"/>
      </g>
      <g>
        <path class="cls-11" d="M283,287.12s-.51-10.21,4.55-14.24c0,0,5.32-7.47,10.81-7.38a11.83,11.83,0,0,1,7.81,2.57s6.09-4,12.27-4.46,14.84,5.75,7.8,14.5c0,0,3.35-.26,4.29,2.83a6.32,6.32,0,0,1-2.74,7.64,4.6,4.6,0,0,1,1.28,4.8,9.13,9.13,0,0,1-4.8,6.35s2.57,1.88,1,3.94-6.09,7.38-18.36.43c0,0-3.35,4.46-12.27,2.06s-14.15-10-11.92-19"/>
        <path class="cls-9" d="M304.85,267.13s5.83,6.26,9.35,9.26,6.52,3.18,5.84,5.58-6.35,9.95-17.25-1.89c0,0-.26,8.58-6.86,10.21"/>
        <path class="cls-11" d="M315,277.08s-2.66-5.06,3.69-6.52"/>
        <path class="cls-11" d="M320,280.85s6.35-.6,7.72-5"/>
        <path class="cls-9" d="M305.11,282.4s-.95,5.4,3.34,8.15,13.39,2.49,20.16-2.49"/>
        <path class="cls-9" d="M307.08,289.78a5.55,5.55,0,0,0-1.37,5.23,5.92,5.92,0,0,0,2.05,3.08c3,2.61,9.14,4.48,17.68,1"/>
        <path class="cls-9" d="M310.2,305.7s-7.75-2.2-2.17-7.43"/>
        <line class="cls-11" x1="304.16" y1="281.28" x2="300.48" y2="276.65"/>
      </g>
      <path class="cls-10" d="M233.56,253.49s-15.44,0-14.07,10.29"/>
      <line class="cls-10" x1="187.23" y1="258.98" x2="187.58" y2="240.68"/>
      <path class="cls-4" d="M306.14,268.07l-4.46-84.93-4.29-11.67.34-10.63s-13.55-22.14-16.47-45.13c0,0-.17-25.22,5.49-13s-2.06,32.09,15.78,54.22,28.14-31.4,28.14-31.4,7.38-8.92,4.12,8.06S322.27,168.9,311.46,171s1.2,21.27,1.2,21.27l2.74,72.07.69,6.86s-2.75,1-1.89,5.23Z"/>
      <g>
        <path class="cls-15" d="M49.58,103.64c0,47.38,37.37,77.5,84,77.5s84.33-38.41,84.33-85.79S193.45,7.79,132.07,7.79C67.72,7.79,49.58,56.25,49.58,103.64Z"/>
        <g>
          <path class="cls-11" d="M198.09,141.4c3.34-4.51,7.69-8.85,12.87-8s7.68,5.68,6.68,14-2.84,12.7-9.19,17.71-9.69,7.52-16.38,3C190.9,159,196.42,144.41,198.09,141.4Z"/>
          <path class="cls-16" d="M193.8,165.33a3.84,3.84,0,0,0,2.56-.25,16.18,16.18,0,0,0,2.36-1.08,8.24,8.24,0,0,0,3.51-3.95,8,8,0,0,0,.29-5.25,7.48,7.48,0,0,0-1.42-2.69c.36-.59.75-1.16,1.14-1.72a48.46,48.46,0,0,1,3.36-4.29c1.19-1.37,2.36-2.81,4-3.43a3.14,3.14,0,0,1,2.46.07,2.38,2.38,0,0,1,1.52,2,2.44,2.44,0,0,0-1.32-2.37,3.52,3.52,0,0,0-2.87-.33c-1.93.58-3.23,2.12-4.44,3.47a32,32,0,0,0-3.25,4.51c-.32.54-.63,1.11-.92,1.67a2,2,0,0,0-.15.29c.09.15.2.3.28.46a8.3,8.3,0,0,1,1,2.51,7.83,7.83,0,0,1-.46,4.76,8.19,8.19,0,0,1-3,3.72,21.72,21.72,0,0,1-2.16,1.25A4.1,4.1,0,0,1,193.8,165.33Zm13.49-5.21a53.56,53.56,0,0,1-4.72,2.95,26.05,26.05,0,0,0,5.1-2.4,10.94,10.94,0,0,0,4-4.13,10,10,0,0,0,.84-5.67,22.5,22.5,0,0,0-1.46-5.45,40.26,40.26,0,0,1,.79,5.5,10.16,10.16,0,0,1-1,5.22A11.28,11.28,0,0,1,207.29,160.12Z"/>
        </g>
        <g>
          <path class="cls-11" d="M70.14,141.68c-3.39-4.58-7.79-9-13-8.14s-7.8,5.77-6.78,14.24,2.88,12.89,9.32,18,9.84,7.62,16.62,3.05C77.43,159.48,71.84,144.73,70.14,141.68Z"/>
          <path class="cls-16" d="M72.06,165.31A20.57,20.57,0,0,1,69.87,164a8.32,8.32,0,0,1-3.1-3.77,8.05,8.05,0,0,1-.46-4.83,8.55,8.55,0,0,1,1-2.55,4.43,4.43,0,0,1,.29-.46c-.06-.11-.1-.2-.15-.3-.3-.57-.61-1.14-.94-1.69a32.3,32.3,0,0,0-3.29-4.57c-1.24-1.37-2.55-2.93-4.51-3.53a3.57,3.57,0,0,0-2.91.34,2.48,2.48,0,0,0-1.35,2.4A2.43,2.43,0,0,1,56,143a3.15,3.15,0,0,1,2.5-.07c1.64.62,2.83,2.09,4,3.47a51.29,51.29,0,0,1,3.4,4.35c.4.57.79,1.16,1.16,1.75a7.7,7.7,0,0,0-1.44,2.73,8,8,0,0,0,.3,5.33,8.29,8.29,0,0,0,3.55,4,15.29,15.29,0,0,0,2.4,1.1,3.87,3.87,0,0,0,2.59.26A4.2,4.2,0,0,1,72.06,165.31Zm-14.87-8.68a10.43,10.43,0,0,1-1-5.29,41.46,41.46,0,0,1,.81-5.58,22.64,22.64,0,0,0-1.49,5.52A10.1,10.1,0,0,0,56.4,157a11.09,11.09,0,0,0,4,4.19,26,26,0,0,0,5.18,2.43,51.46,51.46,0,0,1-4.79-3A11.55,11.55,0,0,1,57.19,156.63Z"/>
        </g>
        <g>
          <path class="cls-11" d="M66.28,116.48c.07.61-6,1.24-5.94,1.84,2.4,20.23,6.12,39.61,8.84,49.64a38.74,38.74,0,0,0,4.59,10.65A44.13,44.13,0,0,0,86.4,191.44a147.92,147.92,0,0,0,22.47,12.15,110.76,110.76,0,0,0,11.4,4.39,43,43,0,0,0,12.4,2.4,48.87,48.87,0,0,0,14-2.6c10.81-3.38,22.25-9.23,28.43-12.49,9-4.72,20-14.84,22.61-25.6a501.76,501.76,0,0,0,9.67-50.37c.92-6.8-4.91-9.45-10.51-29.64C189.36,62.62,179,51.89,136.37,51.89,61.89,51.89,63.91,95.6,66.28,116.48Z"/>
          <path class="cls-17" d="M202.82,146.37s-7-45.68-22.2-58.05S163.27,68,163.27,68s-4,23.12-30.15,33l1.15-13.88A33.91,33.91,0,0,1,118.76,101l2.51-17.52a271.22,271.22,0,0,0-39,18.86C63.4,113.69,64.2,151,64.2,151l7.59-77.46,64.58-26.8,41.1-1.62L205.3,83.49,201,113.36Z"/>
        </g>
        <path class="cls-18" d="M143.56,153.71a11.84,11.84,0,0,1-3.36,3.79,10.72,10.72,0,0,1-4.73,1.94,8.86,8.86,0,0,1-5.05-.76,9.38,9.38,0,0,1-3.81-3.33,10.75,10.75,0,0,0,4,3,8.9,8.9,0,0,0,4.83.62,11,11,0,0,0,4.58-1.76A13.93,13.93,0,0,0,143.56,153.71Z"/>
        <g>
          <path class="cls-17" d="M158.32,166.62c1.05-.42,2.27-2.11,3.22-2.69a7.42,7.42,0,0,1,3.14-1.06c1.45-.14,3.21.38,3.5,1.69.23,1.05-.6,2.07-1.52,2.73A9.38,9.38,0,0,1,161.1,169a2.83,2.83,0,0,1-2.3-.88c-.47-.68.07-1.85.93-1.72Z"/>
          <path class="cls-17" d="M111.69,169.53c-.67-.75-1.74-2.82-2.61-3.36a4.44,4.44,0,0,0-1.86-.74,3.16,3.16,0,0,0-3.16,2,3.75,3.75,0,0,0,.81,3.59,7.24,7.24,0,0,0,3.4,2.07,5.33,5.33,0,0,0,2.71.24,2.35,2.35,0,0,0,1.89-1.68,2.25,2.25,0,0,0-1.18-2.16,7.76,7.76,0,0,0-2.59-.86Z"/>
          <g>
            <path class="cls-19" d="M107.19,168.42a25.11,25.11,0,0,0,1.16,2.66c2.58,5.17,8.7,14.71,16.46,18.26a21.63,21.63,0,0,0,18.05-.32c7.42-3.49,10.78-7.64,15-14.63,1.39-2.27,2.86-4.84,4.61-7.79,0,0,.42-.55-.27-.57a3.91,3.91,0,0,0-1.16.2c-4.17,1.15-14.75,7-31.13,6.23-12.6-.61-19.48-3.38-22-4.62a.55.55,0,0,0-.75.26A.44.44,0,0,0,107.19,168.42Z"/>
            <path class="cls-20" d="M108.35,171.08c2.58,5.17,8.7,14.71,16.46,18.26a21.63,21.63,0,0,0,18.05-.32c7.42-3.49,10.78-7.64,15-14.63-4.95,5.47-13.3,12.65-23.46,13.34C120.54,188.67,111.07,175.42,108.35,171.08Z"/>
            <path class="cls-21" d="M107.2,168.1a53.24,53.24,0,0,0,28.54,6.64c15.12-.63,23.76-6.65,26.49-8.71a3.86,3.86,0,0,0-1.16.2c-4.17,1.15-14.75,7-31.13,6.23-12.6-.61-19.48-3.38-22-4.62A.56.56,0,0,0,107.2,168.1Z"/>
            <path class="cls-22" d="M156.07,169.22c-.32.13-17.92,10.71-42.12,2,0,0,3.48,8,18.08,8.73C148.71,180.8,156.07,169.22,156.07,169.22Z"/>
            <path class="cls-23" d="M134.37,187.52c3.43-.19,7.72-1.1,9.4-2.63-3-3-6.94-.8-10.24-1.75-6.92-2-9.31.49-10.22,1.86C125.33,186.6,129.59,187.79,134.37,187.52Z"/>
          </g>
        </g>
        <path class="cls-15" d="M55.45,127.84A86.83,86.83,0,0,0,62,140.65c.43.74,3.67,4.83,3.52,5.72,0,0-5.39-35.76,20.31-48.86,10-5.11,20.36-9.22,30.5-13.93s20.2-9.61,29.91-15.31c5.12-3,10.64-6.21,15.17-10.43,16.92,28.73,38.42,29.37,40.3,77.53.1,2.55.34,5.11.52,7.66l.58,3.34S207,142.71,214.34,120c8-23.89-11.2-41.36-22.92-61.41-18.59-31.82-39.92-28-47.86-28.78-14-1.4-14,8.6-27.78,11.49-30.16,6.34-41.44,1.16-47.84,35C64.14,96.43,47.82,109.45,55.45,127.84Z"/>
        <path class="cls-15" d="M136.37,66.64a44.08,44.08,0,0,1,0,28.42,61.33,61.33,0,0,0,25.86-42.57"/>
        <path class="cls-15" d="M143.56,63.64S143.14,74,121.27,95.81c0,0,8.1-14.42,3.49-29.17"/>
        <path class="cls-24" d="M208.79,136.07a133.5,133.5,0,0,0,1.87-19.64,136.44,136.44,0,0,0-.89-19.7c-1.51-13-5.06-26-11.85-37.28A66.15,66.15,0,0,0,185.5,44.28a75.65,75.65,0,0,0-16.23-11.05,77.64,77.64,0,0,0-18.51-6.58,80.43,80.43,0,0,0-19.57-1.76A84,84,0,0,0,93.52,35.13,67,67,0,0,0,77.84,46.92a50.24,50.24,0,0,0-6.12,7.67,46,46,0,0,0-2.41,4.28c-.79,1.44-1.47,2.94-2.16,4.43a105.59,105.59,0,0,0-8.82,38.19,133.73,133.73,0,0,0,.38,19.71A122,122,0,0,0,62,140.65a121.82,121.82,0,0,1-3.53-19.43,133,133,0,0,1-.62-19.76,105.4,105.4,0,0,1,8.83-38.37c.7-1.5,1.38-3,2.17-4.45a48.31,48.31,0,0,1,2.44-4.32,50.78,50.78,0,0,1,6.18-7.75A67.59,67.59,0,0,1,93.27,34.69a84.57,84.57,0,0,1,37.9-10.3,80.83,80.83,0,0,1,19.69,1.77,78.33,78.33,0,0,1,18.63,6.62,77,77,0,0,1,16.35,11.13A66.48,66.48,0,0,1,198.35,59.2c6.83,11.36,10.42,24.39,11.9,37.48a137.17,137.17,0,0,1,.65,19.75A133.27,133.27,0,0,1,208.79,136.07Z"/>
        <g>
          <g>
            <g>
              <path class="cls-25" d="M212.53,69.55c6.77-6.07,16.24-6.57,7.59-16.21s-27.94-6.46-27.94-6.46-5.25,18.83,3.4,28.47S205.75,75.63,212.53,69.55Z"/>
              <path class="cls-25" d="M171.49,23.82c6.78-6.08,8.29-15.44,16.94-5.79s3.4,28.46,3.4,28.46S172.55,49.68,163.9,40,164.72,29.9,171.49,23.82Z"/>
            </g>
            <circle class="cls-26" cx="170.32" cy="37.18" r="1.96"/>
            <circle class="cls-26" cx="177.92" cy="41" r="1.96"/>
            <circle class="cls-26" cx="179.07" cy="29.33" r="1.96"/>
            <path class="cls-26" d="M188.53,34a2,2,0,1,0-2.77-.15A2,2,0,0,0,188.53,34Z"/>
            <circle class="cls-26" cx="184.9" cy="24.1" r="1.96"/>
            <path class="cls-26" d="M182.39,44.77a2,2,0,0,1,2.77.15,1.92,1.92,0,0,1,.49,1.48c-1.19,0-2.5,0-3.89,0A1.94,1.94,0,0,1,182.39,44.77Z"/>
            <path class="cls-26" d="M174.09,44.33a1.88,1.88,0,0,1,.47,1,27.3,27.3,0,0,1-3.28-1.07s0,0,.05,0A1.94,1.94,0,0,1,174.09,44.33Z"/>
            <path class="cls-26" d="M191.74,25.86l0,0a26.76,26.76,0,0,1,.7,3.34,1.9,1.9,0,0,1-.88-.56A2,2,0,0,1,191.74,25.86Z"/>
            <path class="cls-26" d="M191,39.69a2,2,0,0,1,.15-2.77,2,2,0,0,1,1.61-.47c-.08,1.4-.21,2.71-.37,3.89A2,2,0,0,1,191,39.69Z"/>
            <path class="cls-26" d="M169.31,30.19a2,2,0,0,1-2.77-.15,1.92,1.92,0,0,1-.46-1.61c.79-.49,1.64-1,2.49-1.56a1.93,1.93,0,0,1,.89.56A2,2,0,0,1,169.31,30.19Z"/>
            <path class="cls-26" d="M163.63,32.66A2,2,0,0,1,162,35.91a4.09,4.09,0,0,1-.12-3.87A2,2,0,0,1,163.63,32.66Z"/>
            <path class="cls-26" d="M178.21,19.57a2,2,0,1,1-2.92,2.62,2,2,0,0,1-.46-1c.65-.79,1.24-1.57,1.82-2.3A2,2,0,0,1,178.21,19.57Z"/>
            <path class="cls-26" d="M183.89,17.11a2,2,0,0,1-3.19-2,4.09,4.09,0,0,1,3.84.56A2,2,0,0,1,183.89,17.11Z"/>
            <circle class="cls-26" cx="199.1" cy="69.26" r="1.96"/>
            <circle class="cls-26" cx="196.78" cy="60.81" r="1.96"/>
            <circle class="cls-26" cx="207.85" cy="61.41" r="1.96"/>
            <path class="cls-26" d="M204.23,51.5a2,2,0,1,1-.15,2.77A2,2,0,0,1,204.23,51.5Z"/>
            <circle class="cls-26" cx="213.68" cy="56.18" r="1.96"/>
            <path class="cls-26" d="M192.86,56.44a2,2,0,0,0,.15-2.77,1.94,1.94,0,0,0-1.42-.64c-.15,1.17-.29,2.48-.36,3.87A1.94,1.94,0,0,0,192.86,56.44Z"/>
            <path class="cls-26" d="M192.41,64.74a1.88,1.88,0,0,0-.91-.57,26,26,0,0,0,.7,3.38l.06,0A2,2,0,0,0,192.41,64.74Z"/>
            <path class="cls-26" d="M212.68,49.19s0,0,0,0a26,26,0,0,0-3.24-1,2,2,0,0,0,3.23,1.08Z"/>
            <path class="cls-26" d="M198.84,48.44a2,2,0,0,0,3.41-1.39c-1.39-.08-2.71-.09-3.9-.06A1.94,1.94,0,0,0,198.84,48.44Z"/>
            <path class="cls-26" d="M205.94,71a2,2,0,0,0-.15,2.77,2,2,0,0,0,1.56.64c.57-.74,1.17-1.53,1.82-2.32a1.89,1.89,0,0,0-.46-.94A2,2,0,0,0,205.94,71Z"/>
            <path class="cls-26" d="M202.88,76.4a2,2,0,0,0-2.77-.15,1.94,1.94,0,0,0-.64,1.47,4.05,4.05,0,0,0,3.83.53A2,2,0,0,0,202.88,76.4Z"/>
            <path class="cls-26" d="M217.46,63.32a2,2,0,0,0-2.92,2.62,2,2,0,0,0,.9.56c.85-.56,1.7-1.07,2.49-1.56A2,2,0,0,0,217.46,63.32Z"/>
            <path class="cls-26" d="M220.53,57.94a1.94,1.94,0,0,0-.15,2.76,1.91,1.91,0,0,0,1.77.62,4.08,4.08,0,0,0-.15-3.87A1.9,1.9,0,0,0,220.53,57.94Z"/>
          </g>
          <g>
            <g>
              <g>
                <path class="cls-27" d="M175.27,33.87C177.33,30.94,186,41.4,186,41.4S173.2,36.81,175.27,33.87Z"/>
                <path class="cls-27" d="M183.28,30.51c2.17-1.06,4.76,9.73,4.76,9.73S181.11,31.58,183.28,30.51Z"/>
              </g>
              <g>
                <path class="cls-27" d="M202.93,64.7c3.14-1.74-6.33-11.43-6.33-11.43S199.79,66.44,202.93,64.7Z"/>
                <path class="cls-27" d="M207.13,57.09c1.29-2-9.15-5.78-9.15-5.78S205.84,59.14,207.13,57.09Z"/>
              </g>
            </g>
            <rect class="cls-28" x="186.11" y="40.82" width="11.76" height="11.76" rx="3.48" transform="translate(17.9 140.15) rotate(-41.9)"/>
          </g>
        </g>
        <path class="cls-29" d="M200.49,165s-5.54,11.54,1.28,13.5,4.69-10.92,4.69-10.92-1.77,10.86-3.87,4.14Z"/>
        <path class="cls-29" d="M66.54,165.7s5.54,11.53-1.28,13.49-4.7-10.91-4.7-10.91,1.78,10.86,3.88,4.14Z"/>
      </g>
    </g>
  </g>
</svg>
