<svg id="a4620813-6e7c-487b-8520-ac77bc952df8" data-name="Layer 1" xmlns="http://www.w3.org/2000/svg" width="200" height="240" viewBox="0 0 200 240">
  <defs>
    <style>
      .a02d314b-9722-4e18-a513-e6407369e627 {
        fill: #bcfde5;
      }

      .fb580830-4976-44c9-9ccd-1561f50b58eb {
        fill: #ebf7f2;
      }
    </style>
  </defs>
  <g>
    <g>
      <path class="a02d314b-9722-4e18-a513-e6407369e627" d="M19,173c17.23,15.62,57.81-21.46,82.45-48.63S136.24,64,119,48.33,74.68,52.89,50,80.06,1.73,157.33,19,173Z"/>
      <path class="fb580830-4976-44c9-9ccd-1561f50b58eb" d="M19,172.91c21.09,17.79,70.67-36.18,84.34-51.57a113.17,113.17,0,0,0,18.52-29.51c4.25-10.55,7.06-22.71,2.89-33.64C122,51.24,116,45.3,108.46,44,90.8,41.44,71.25,59.61,59.34,71.1A173.62,173.62,0,0,0,20,128.63C15,141,8,162.14,19,172.91Zm-.06.08c-11.08-10.74-4.16-32,.73-44.48A173.92,173.92,0,0,1,58.88,70.64C71,58.84,90.53,40.53,108.62,43.08c7.84,1.29,14.24,7.48,17,14.77,6.57,18.51-4.08,39.63-14.6,54.66-9.21,12.66-20.49,23.66-31.81,34.4C67,157.85,35.13,186.81,18.93,173Z"/>
    </g>
    <g>
      <path class="a02d314b-9722-4e18-a513-e6407369e627" d="M27.4,168.72c0,23.25,54.72,28.41,91.4,28.41s68.13-14.74,68.13-38-33.16-29.78-69.84-29.78S27.4,145.46,27.4,168.72Z"/>
      <path class="fb580830-4976-44c9-9ccd-1561f50b58eb" d="M27.45,168.72c1,27.56,74.28,28.05,94.85,27.84a113.09,113.09,0,0,0,34.31-6.1c10.67-3.94,21.56-10,26.86-20.46,3.34-6.67,3.64-15.17-.43-21.58-10-14.82-36.55-17.09-53.07-18.19a173.44,173.44,0,0,0-69.07,9.46c-12.48,4.66-32.86,13.71-33.45,29Zm-.1,0c.51-15.41,20.94-24.6,33.44-29.33A173.91,173.91,0,0,1,130,129.57c16.83,1,43.6,3.24,53.82,18.34,4.31,6.67,4,15.57.49,22.52-9.26,17.27-32.14,23.62-50.31,25.9-15.55,1.68-31.28.72-46.84-.46-16.26-1.66-59.23-5.9-59.82-27.15Z"/>
    </g>
  </g>
</svg>
