<svg id="afa0682f-463f-4406-9ebe-a4c2f0c25475" data-name="Layer 1" xmlns="http://www.w3.org/2000/svg" width="79.41" height="66" viewBox="0 0 79.41 66">
  <defs>
    <style>
      .b149f7ac-acbf-440d-ab0f-eb81224b0c50, .b7f3d0f2-96af-4d11-be45-2a0546665d4f {
        fill: #fff;
      }

      .b149f7ac-acbf-440d-ab0f-eb81224b0c50 {
        stroke: #702840;
      }

      .b149f7ac-acbf-440d-ab0f-eb81224b0c50, .e4e9f319-0784-44f7-9c2a-f36c2468ec8b {
        stroke-miterlimit: 10;
        stroke-width: 0.75px;
      }

      .b53c2e14-bb08-4cb5-8a3f-0b411add109e {
        fill: #210a11;
      }

      .e4e9f319-0784-44f7-9c2a-f36c2468ec8b {
        fill: #ffe309;
        stroke: #665608;
      }
    </style>
  </defs>
  <g>
    <g>
      <g>
        <path class="b149f7ac-acbf-440d-ab0f-eb81224b0c50" d="M33.33,40.83a24.23,24.23,0,0,1-1.24,3.92C29,52.29,22.49,57,16.3,55.65s-9.92-8.07-9.62-16a24.14,24.14,0,0,1,.58-4.47c2.2-9.74,9.83-16.37,17-14.81S35.54,31.09,33.33,40.83Z"/>
        <ellipse class="b53c2e14-bb08-4cb5-8a3f-0b411add109e" cx="26.59" cy="38.25" rx="8.15" ry="6.05" transform="translate(-15.39 58.42) rotate(-80.86)"/>
        <ellipse class="b7f3d0f2-96af-4d11-be45-2a0546665d4f" cx="30.52" cy="36.89" rx="2.23" ry="1.66" transform="translate(-10.75 61.16) rotate(-80.86)"/>
      </g>
      <g>
        <path class="b149f7ac-acbf-440d-ab0f-eb81224b0c50" d="M68.9,43a22,22,0,0,1-.51,4.73c-1.51,6.79-6.15,11.77-11.65,11.81-6.05.05-11.06-5.92-12-13.77a21.81,21.81,0,0,1-.15-2.58c0-9.09,5.46-16.5,12.16-16.55S68.91,33.91,68.9,43Z"/>
        <ellipse class="b53c2e14-bb08-4cb5-8a3f-0b411add109e" cx="62.85" cy="43.71" rx="5.5" ry="7.41" transform="translate(-2.58 3.96) rotate(-3.54)"/>
        <ellipse class="b7f3d0f2-96af-4d11-be45-2a0546665d4f" cx="66.16" cy="40.96" rx="1.51" ry="2.03" transform="translate(-2.4 4.16) rotate(-3.54)"/>
      </g>
      <path class="b53c2e14-bb08-4cb5-8a3f-0b411add109e" d="M54.76,18.22s5.56.66,11.86,7.37C66.62,25.59,58,8.8,54.76,18.22Z"/>
      <path class="b53c2e14-bb08-4cb5-8a3f-0b411add109e" d="M33.16,11.77s-6-1.34-15.14,2.7C18,14.47,33.46,1.82,33.16,11.77Z"/>
    </g>
    <path class="e4e9f319-0784-44f7-9c2a-f36c2468ec8b" d="M33.33,40.83a24.23,24.23,0,0,1-1.24,3.92A24.67,24.67,0,0,1,29.5,45a35.29,35.29,0,0,1-7.19-.46A63.12,63.12,0,0,1,6.68,39.64a24.14,24.14,0,0,1,.58-4.47c2.2-9.74,9.83-16.37,17-14.81S35.54,31.09,33.33,40.83Z"/>
    <path class="e4e9f319-0784-44f7-9c2a-f36c2468ec8b" d="M68.9,43a22,22,0,0,1-.51,4.73c-.33.15-.67.29-1,.41a20.87,20.87,0,0,1-8.16.94h0a53.08,53.08,0,0,1-14.43-3.31,21.81,21.81,0,0,1-.15-2.58c0-9.09,5.46-16.5,12.16-16.55S68.91,33.91,68.9,43Z"/>
  </g>
</svg>
