<svg id="bbfb19c4-1f7c-4ff1-b396-cce6042d23ee" data-name="Layer 1" xmlns="http://www.w3.org/2000/svg" width="146.56" height="81.23" viewBox="0 0 146.56 81.23">
  <defs>
    <style>
      .e5ed1b84-7d55-48fb-90f4-ddca4dfcc9c6 {
        fill: #7d3a1b;
      }

      .a22c6535-b0c5-4c4c-9abf-7c4464508e16 {
        fill: #fff;
      }

      .e7fb5f4a-a478-4459-9c43-745e5bf43c74 {
        fill: #121928;
      }

      .f5735d4e-a2ef-4933-8651-15e8d4bab3d1 {
        fill: #9b4e24;
      }
    </style>
  </defs>
  <g>
    <g>
      <g>
        <path class="e5ed1b84-7d55-48fb-90f4-ddca4dfcc9c6" d="M142.66,40.61c0,21.24-12.15,38.46-27.14,38.46S88.39,61.85,88.39,40.61,100.54,2.16,115.52,2.16,142.66,19.38,142.66,40.61Z"/>
        <path class="a22c6535-b0c5-4c4c-9abf-7c4464508e16" d="M115.4,79.07c-13.27,0-24.07-15.27-24.07-34s10.8-34,24.07-34,24.06,15.27,24.06,34S128.67,79.07,115.4,79.07Z"/>
      </g>
      <g>
        <g>
          <path class="e5ed1b84-7d55-48fb-90f4-ddca4dfcc9c6" d="M33.68,43.05c-1.43,16.43-9.15,29.18-17.25,28.48s-13.5-14.6-12.07-31S13.51,11.31,21.61,12,35.11,26.62,33.68,43.05Z"/>
          <path class="a22c6535-b0c5-4c4c-9abf-7c4464508e16" d="M33.4,46.28c-1.28,14.65-8.87,26-17,25.25S2.81,58.37,4.08,43.73s8.87-26,17-25.25S34.67,31.63,33.4,46.28Z"/>
        </g>
        <g>
          <path class="a22c6535-b0c5-4c4c-9abf-7c4464508e16" d="M25.26,48.52a3.14,3.14,0,1,1-3.14-3A3.06,3.06,0,0,1,25.26,48.52Z"/>
          <path class="a22c6535-b0c5-4c4c-9abf-7c4464508e16" d="M20.37,62.05A1.35,1.35,0,1,1,19,60.77,1.32,1.32,0,0,1,20.37,62.05Z"/>
          <path class="e7fb5f4a-a478-4459-9c43-745e5bf43c74" d="M33.71,42.7h0c-1.57-5.32-4.94-9.08-9.09-9.4-6.27-.5-11.91,7-12.65,16.64A23.44,23.44,0,0,0,14.22,62.4c1.87,3.58,4.61,5.68,7.72,5.92a5.68,5.68,0,0,0,.59,0A7.53,7.53,0,0,0,24.69,68C34.05,61.53,33.72,43.29,33.71,42.7Z"/>
        </g>
        <circle class="a22c6535-b0c5-4c4c-9abf-7c4464508e16" cx="22.12" cy="37.51" r="3.81"/>
      </g>
      <path class="e7fb5f4a-a478-4459-9c43-745e5bf43c74" d="M139.05,48.71c0,10.13-5.65,22.85-13.13,22.85s-13.54-8.22-13.54-18.35,6.06-18.35,13.54-18.35S139.05,38.58,139.05,48.71Z"/>
      <circle class="a22c6535-b0c5-4c4c-9abf-7c4464508e16" cx="120.21" cy="40.79" r="3.81"/>
    </g>
    <path class="f5735d4e-a2ef-4933-8651-15e8d4bab3d1" d="M115.4,79.07c-13.27,0-24.07-15.27-24.07-34s10.8-34,24.07-34,24.06,15.27,24.06,34S128.67,79.07,115.4,79.07Z"/>
    <path class="f5735d4e-a2ef-4933-8651-15e8d4bab3d1" d="M33.72,46.32c-.62,15.73-9.19,25.91-17.29,25.21S2.81,58.37,4.08,43.73s8.87-26,17-25.25S34.29,31.62,33.72,46.32Z"/>
  </g>
</svg>
