<svg id="bbb7dd9c-84fd-4e06-93c2-0b4ceb766ba1" data-name="Layer 1" xmlns="http://www.w3.org/2000/svg" width="157.8" height="112.05" viewBox="0 0 157.8 112.05">
  <defs>
    <style>
      .bb730cd5-8353-4516-b27e-6a6864e58991 {
        fill: #cff3ff;
        stroke: #307382;
        stroke-miterlimit: 10;
      }

      .b3d3bf12-8cdb-4e7e-b993-63d181b69fd7 {
        fill: #b0deea;
      }
    </style>
  </defs>
  <g>
    <g>
      <path class="bb730cd5-8353-4516-b27e-6a6864e58991" d="M51.9,105.2s33.74-28,55.92-57c22.68-29.65,60.25-8,39.75,28.4s-84.65,33.69-91.06,32C56.51,108.57,43.6,108.21,51.9,105.2Z"/>
      <path class="b3d3bf12-8cdb-4e7e-b993-63d181b69fd7" d="M73.09,100.81s19.62-19.93,32.82-40.17c13.5-20.71,33.83-7.13,21.36,18.07S79.09,103.9,75.56,103C75.56,103,68.38,103.08,73.09,100.81Z"/>
    </g>
    <path class="bb730cd5-8353-4516-b27e-6a6864e58991" d="M53.93,104.27S50.74,73.09,43.19,49C38.31,33.34,9.12,8.33,4.72,42.25-.68,83.9,49.49,107,49.49,107S56.11,112.22,53.93,104.27Z"/>
  </g>
</svg>
