<svg id="b4aed36d-00cd-4bb5-982d-d3532543663a" data-name="Layer 1" xmlns="http://www.w3.org/2000/svg" width="118" height="100" viewBox="0 0 118 100">
  <defs>
    <style>
      .e9bcb884-c05e-4d9c-8cd9-568c2dcc006f {
        fill: #bcfde5;
      }

      .f782b9f9-e4c3-4f31-8ab1-15a14a383bf3 {
        fill: #ebf7f2;
      }
    </style>
  </defs>
  <g>
    <g>
      <path class="e9bcb884-c05e-4d9c-8cd9-568c2dcc006f" d="M102.58,42.5c-3,12.87-33.93,8.69-54.22,4S12.57,29.56,15.56,16.69,37.73,4.48,58,9.19,105.57,29.64,102.58,42.5Z"/>
      <path class="f782b9f9-e4c3-4f31-8ab1-15a14a383bf3" d="M102.63,42.51a8.37,8.37,0,0,1-1.41,3,9.42,9.42,0,0,1-2.46,2.25,18.44,18.44,0,0,1-6.19,2.45,55.32,55.32,0,0,1-13.28,1,162.68,162.68,0,0,1-26.47-3.26c-8.72-1.59-17.48-4.23-25.14-9a34.6,34.6,0,0,1-10-9.15,18.76,18.76,0,0,1-2.92-6.29,15.05,15.05,0,0,1-.06-7A14.06,14.06,0,0,1,16,13.14a12.62,12.62,0,0,1,2.18-2.84,15.75,15.75,0,0,1,6-3.5A38.54,38.54,0,0,1,37.66,5.36,94,94,0,0,1,51,7.08a114,114,0,0,1,13,3.24A100.47,100.47,0,0,1,88,21.87a51.34,51.34,0,0,1,10.21,8.56A22,22,0,0,1,101.84,36,10.43,10.43,0,0,1,102.63,42.51Zm-.1,0a10.36,10.36,0,0,0-.81-6.46A21.86,21.86,0,0,0,98,30.54a51,51,0,0,0-10.21-8.47,99.13,99.13,0,0,0-24-11.23A112.1,112.1,0,0,0,50.83,7.78,94.63,94.63,0,0,0,37.62,6.23,37.52,37.52,0,0,0,24.49,7.68,14.88,14.88,0,0,0,18.82,11a11.62,11.62,0,0,0-2,2.62,12.85,12.85,0,0,0-1.16,3.08,14.08,14.08,0,0,0,0,6.55,18.12,18.12,0,0,0,2.75,6,33.81,33.81,0,0,0,9.7,8.94c7.49,4.79,16.1,7.54,24.79,9.23A159.27,159.27,0,0,0,79.29,51a54.38,54.38,0,0,0,13.24-.9,18.38,18.38,0,0,0,6.16-2.39,9.53,9.53,0,0,0,2.44-2.21A8.37,8.37,0,0,0,102.53,42.49Z"/>
    </g>
    <g>
      <path class="e9bcb884-c05e-4d9c-8cd9-568c2dcc006f" d="M98.31,35.05C106.7,45.24,84.58,67.26,68.5,80.51S33.31,98.64,24.91,88.45s3.78-25,19.86-38.27S89.91,24.85,98.31,35.05Z"/>
      <path class="f782b9f9-e4c3-4f31-8ab1-15a14a383bf3" d="M98.34,35a8.38,8.38,0,0,1,1.54,3,9.31,9.31,0,0,1,.3,3.32,18.66,18.66,0,0,1-1.83,6.4,54.73,54.73,0,0,1-7.3,11.14,162.9,162.9,0,0,1-18.67,19c-6.58,6-14,11.31-22.47,14.47a34.69,34.69,0,0,1-13.34,2.38A19.24,19.24,0,0,1,29.8,93.2,15.14,15.14,0,0,1,24.2,89a13.93,13.93,0,0,1-1.86-3,12.51,12.51,0,0,1-.93-3.45,15.68,15.68,0,0,1,.9-6.92,38.05,38.05,0,0,1,7-11.57A93.34,93.34,0,0,1,38.8,54.5a112,112,0,0,1,10.46-8.33A100.33,100.33,0,0,1,73,34.12a51.75,51.75,0,0,1,13-2.9,21.87,21.87,0,0,1,6.65.45A10.45,10.45,0,0,1,98.34,35Zm-.07.07a10.32,10.32,0,0,0-5.63-3.28,22.13,22.13,0,0,0-6.6-.42,51.42,51.42,0,0,0-12.93,3A99.46,99.46,0,0,0,49.58,46.61,110.86,110.86,0,0,0,39.28,55,94.78,94.78,0,0,0,30,64.57a37.54,37.54,0,0,0-6.83,11.31,14.76,14.76,0,0,0-.82,6.51,11.22,11.22,0,0,0,.87,3.17A12.81,12.81,0,0,0,25,88.36a14.25,14.25,0,0,0,5.23,4,18.15,18.15,0,0,0,6.42,1.46,34,34,0,0,0,13-2.26c8.36-3,15.77-8.21,22.4-14.08A159.8,159.8,0,0,0,90.87,58.68,54.73,54.73,0,0,0,98.2,47.62,18.14,18.14,0,0,0,100,41.28,9.28,9.28,0,0,0,99.77,38,8.28,8.28,0,0,0,98.27,35.08Z"/>
    </g>
  </g>
</svg>
