<svg id="a4285f2f-a691-4a26-a720-5c6b55165602" data-name="Layer 1" xmlns="http://www.w3.org/2000/svg" width="179" height="223" viewBox="0 0 179 223">
  <defs>
    <style>
      .aa589581-2688-49d6-bcb3-2cd6fd910740 {
        fill: #747474;
      }

      .a6b75ac7-c46a-47ad-860b-2c6d57d48923 {
        fill: #5e5e5e;
      }

      .b11ad93c-bfd7-4531-b4d5-91abf65067d6 {
        fill: #3a3a3a;
      }

      .b1660ebb-60a3-4c9d-8052-c246cec062f0 {
        fill: #2d2d2d;
      }

      .e90c0e7c-7fe2-4db3-aa79-1d3beae08ef0 {
        fill: #474546;
      }
    </style>
  </defs>
  <g>
    <path class="aa589581-2688-49d6-bcb3-2cd6fd910740" d="M21.66,9.91s25,.49,35.27,23.27c10,22.29,12.12,72.25,66,123.73a11.73,11.73,0,0,0,7.72,3.25c4.13.14,9.88,1.19,9.64,6,0,0-12.35,6.16-29.46-10,0,0-47.11-42.48-63.68-106.36a16.94,16.94,0,0,0-7.93-10.39c-4.62-2.68-10.63-5.23-14.09-3C25.15,36.46,7.75,17.66,21.66,9.91Z"/>
    <path class="a6b75ac7-c46a-47ad-860b-2c6d57d48923" d="M21.66,9.91S57.3,4.26,67.09,65.55c0,0,8.79,28.58,18.41,43.86,0,0-18.69-25-22-43.82a72.47,72.47,0,0,0-2.63-10.71C56.07,41,43,12.88,16.35,17.25,16.35,17.25,15.18,11.62,21.66,9.91Z"/>
    <g>
      <path class="b11ad93c-bfd7-4531-b4d5-91abf65067d6" d="M135.14,168.53s-2.78-3.61-1.28-5.92c0,0-.22-6.11,6.19-5.58,0,0,11-.64,12.85-1.74,0,0,2.1-1.15,1.62-4.62,0,0,0-7.58,10.62-11.76,0,0-2.91,2,.61,18.51,0,0,3.76,9.79-10.07,14.39A18.79,18.79,0,0,1,135.14,168.53Z"/>
      <path class="b1660ebb-60a3-4c9d-8052-c246cec062f0" d="M133.51,165.1c-1.64-6.55,4-7.88,4-7.88,2.26-.45,11.94-1.09,11.94-1.09,5.91,0,5.13-6.1,5.13-6.1,1.71-9.11,10.56-11.12,10.56-11.12-9.23,6.56-9.42,15.77-9.42,15.77-1,6-16.33,4.43-16.33,4.43-9.38,5.3,1,12.41,1,12.41l1.32,1S133.88,170,133.51,165.1Z"/>
      <path class="e90c0e7c-7fe2-4db3-aa79-1d3beae08ef0" d="M148.68,173.49s16.4-6.47,16.4-19.47c0,0,4.59,11.55-5.56,16.16C159.52,170.18,153.14,173.8,148.68,173.49Z"/>
    </g>
  </g>
</svg>
