<svg id="f5b8dc25-81c7-42cf-b839-3dcf2261b794" data-name="Layer 1" xmlns="http://www.w3.org/2000/svg" width="420" height="400" viewBox="0 0 420 400">
  <defs>
    <style>
      .b08d881b-f2df-4e70-bc74-19edb720cd2b, .f77ebec6-61e4-434d-bf7d-52b349720a31 {
        fill: #ffe309;
      }

      .b08d881b-f2df-4e70-bc74-19edb720cd2b, .ecaa906b-13a5-4492-98fc-164a86c6d44c {
        stroke: #665608;
      }

      .a4739a48-19af-457a-a3bf-298b7287d4ab, .b08d881b-f2df-4e70-bc74-19edb720cd2b, .ecaa906b-13a5-4492-98fc-164a86c6d44c, .f77ebec6-61e4-434d-bf7d-52b349720a31 {
        stroke-miterlimit: 10;
      }

      .b08d881b-f2df-4e70-bc74-19edb720cd2b, .ecaa906b-13a5-4492-98fc-164a86c6d44c, .f77ebec6-61e4-434d-bf7d-52b349720a31 {
        stroke-width: 0.75px;
      }

      .f77ebec6-61e4-434d-bf7d-52b349720a31 {
        stroke: #493c05;
      }

      .becefde0-26d4-4df9-a90a-922ce0cda84e {
        fill: #ecc516;
      }

      .a4739a48-19af-457a-a3bf-298b7287d4ab {
        fill: #532900;
        stroke: #3a1c03;
      }

      .adca200e-379c-4d12-b088-6d9834a6aab1 {
        fill: #681a1a;
      }

      .a69d4080-dbb5-4bd4-b0a5-9ee40eb72264 {
        fill: #ef7089;
      }

      .b162ebe6-75a4-48c2-9db9-dc52a54a0a8d {
        fill: #ff5763;
      }

      .ba189ea1-8e9d-4c73-900d-84f20f479267 {
        fill: #fff;
      }

      .eb010937-7cfc-496c-bdec-49ad4605cfa3 {
        fill: #ef304c;
      }

      .ef4efdd1-0242-44e2-88eb-92fb250120a2 {
        fill: #ffa979;
      }

      .ecaa906b-13a5-4492-98fc-164a86c6d44c {
        fill: none;
      }
    </style>
  </defs>
  <g>
    <g>
      <g>
        <path class="b08d881b-f2df-4e70-bc74-19edb720cd2b" d="M108.21,321.09s.48,12.69-13.63,12.09-24-6.49-27.72,7-6.51,28.45,7,32.19,15.93-15.73,26.32-12.57,30.6,3.66,34-20.9S108.21,321.09,108.21,321.09Z"/>
        <g>
          <path class="b08d881b-f2df-4e70-bc74-19edb720cd2b" d="M235.72,267.55s-7.2,7.28,9.23,55.79c0,0,6.21,19.9,13.28,29.5s12.21,29,8.51,36-12.47,10.91-13.41-1.86l4.37-13.13s1.95,14.94-15,13.87S247.54,369,247.54,369l-12.39,10.34s-12.83-5.63,3.62-21.47c0,0-8.91-2.16-23.91-32.52s-18.16-65.86-18.16-65.86Z"/>
          <path class="f77ebec6-61e4-434d-bf7d-52b349720a31" d="M270.84,310.49C259,325.61,246.2,337,231.93,344.36a91.65,91.65,0,0,1-33.67,9.92l0,0a116.32,116.32,0,0,1-27.18-.67c-1.7-.22-3.41-.49-5.08-.81a124,124,0,0,1-35.33-12.19c-22-11.45-38.73-27.87-50.39-41.48-2.8-3.24-5.28-6.35-7.49-9.14C56.2,268.92,39.1,263.48,39.1,263.48c14.67-2.29,25.81-14.32,38.37-26.91,11.42-11.52,24-23.53,41.43-29,.9-.29,1.8-.57,2.76-.82a80.12,80.12,0,0,1,17-2.61,108.63,108.63,0,0,1,26,2,5.12,5.12,0,0,1,.68.14A144.67,144.67,0,0,1,188.7,213,116,116,0,0,1,202,218.85c26.83,14.55,44.58-1.39,44.58-1.39l37.76,73.42A214.06,214.06,0,0,1,270.84,310.49Z"/>
          <path class="becefde0-26d4-4df9-a90a-922ce0cda84e" d="M271.41,306.94c-13.92-2.79-27.82-10.13-43.37-20.82C195.82,264,177.67,233.83,185.88,217a116.18,116.18,0,0,1,20,5.15,91.19,91.19,0,0,1,11.37,4.73c22.77,12.06,38.78-2.91,38.78-2.91l30.08,64.49C282.05,295,275.67,301.43,271.41,306.94Z"/>
          <path class="a4739a48-19af-457a-a3bf-298b7287d4ab" d="M81.77,299.07c-2.8-3.24-6.8-6.31-9-9.1C56.2,268.92,39.1,263.48,39.1,263.48c14.67-2.29,27.66-15.28,40.22-27.87C73.34,247.36,66.39,271,81.77,299.07Z"/>
          <path class="a4739a48-19af-457a-a3bf-298b7287d4ab" d="M231.93,344.36a91.65,91.65,0,0,1-33.67,9.92l0,0C185.5,345.51,164,324.74,152.77,280c-6.9-27.51.69-53.19,11.93-73.81a146.48,146.48,0,0,1,24,6.85c-8.65,16.38-18.15,44.78-4.59,76.38C197.41,320.37,218.25,336.57,231.93,344.36Z"/>
          <path class="a4739a48-19af-457a-a3bf-298b7287d4ab" d="M166,352.78a124,124,0,0,1-35.33-12.19C117.44,328.27,101,308.2,97.14,282,92.39,250,105,226,118.9,207.6c.9-.29,1.8-.57,2.76-.82a80.12,80.12,0,0,1,17-2.61c-9.75,15.05-22.93,42.58-14.57,73.11C134,313.4,156.72,342.14,166,352.78Z"/>
          <g>
            <path class="b08d881b-f2df-4e70-bc74-19edb720cd2b" d="M256.41,130.84s-18.74-4.07-32.92-46.07,16-82.42,38.05-80S280,25.58,257.49,35.4s-32.05,60.1,5.66,91.31C263.15,126.71,283,152,256.41,130.84Z"/>
            <path class="b08d881b-f2df-4e70-bc74-19edb720cd2b" d="M314.43,139s2.65-35.1,14.65-56,46-65.38,76.55-47c0,0,8.14,8.93,2.2,16.55s-15.12,8.29-22.55,1.58S322.22,75.54,323.06,139C323.06,139,317.89,155.42,314.43,139Z"/>
            <g>
              <path class="b08d881b-f2df-4e70-bc74-19edb720cd2b" d="M379.88,268.4c-8.85,41.35-49.61,57.46-94.27,56.9,0,0-.1,0-.14,0a202.59,202.59,0,0,1-44.17-5.65c-58.71-14-81.77-52.21-64.31-110.87,13.1-44.1,48.54-81.29,93.21-85.61a93.16,93.16,0,0,1,30.85,2.25C359.79,139.48,393,207.16,379.88,268.4Z"/>
              <path class="becefde0-26d4-4df9-a90a-922ce0cda84e" d="M289.18,324.39A204.4,204.4,0,0,1,245,318.7c-58.71-14.05-81.84-51.93-64.51-110.06,13-43.69,48.35-80.49,93-84.68-21,8.49-62,32-74.22,88.55C183.44,286,238.7,319,289.18,324.39Z"/>
              <g>
                <g>
                  <g>
                    <g>
                      <path class="adca200e-379c-4d12-b088-6d9834a6aab1" d="M336.71,267.32s-4.68,19.55-17.61,32a35.48,35.48,0,0,1-12.22,8c-17.56,6.73-36.8,1.36-46.22-19.54-.24-.44-.41-.9-.62-1.37a70.24,70.24,0,0,1-4.71-18.83S290,281,324.18,271.79A78.85,78.85,0,0,0,336.71,267.32Z"/>
                      <path class="a69d4080-dbb5-4bd4-b0a5-9ee40eb72264" d="M336.74,267.28a56.74,56.74,0,0,1-1.9,6.5c-.74,2.12-1.53,4.23-2.44,6.28A73.2,73.2,0,0,1,326,291.93a51.63,51.63,0,0,1-9,10.12,34.41,34.41,0,0,1-11.87,6.63,38.72,38.72,0,0,1-13.47,2.1,33.75,33.75,0,0,1-13.32-3,34.2,34.2,0,0,1-11-8.14,45,45,0,0,1-7.45-11.45l0,.06a47.82,47.82,0,0,1-2-5q-.86-2.52-1.51-5.1a78.74,78.74,0,0,1-1.87-10.42l-.16-1.34,1.29.46a125.38,125.38,0,0,0,19.94,5.3,131.59,131.59,0,0,0,20.56,2.27A109,109,0,0,0,316.79,273c.86-.1,1.7-.3,2.55-.48l2.53-.54c1.7-.34,3.39-.73,5-1.23A84.83,84.83,0,0,0,336.74,267.28Zm-.07.08a73,73,0,0,1-9.68,3.69c-1.65.52-3.34.94-5,1.31l-2.53.59c-.85.19-1.69.41-2.55.52l-5.15.8c-1.72.2-3.46.32-5.18.49s-3.47.17-5.2.25c-.87,0-1.74.07-2.61.07l-2.6-.05a129.58,129.58,0,0,1-20.7-2.1,126.33,126.33,0,0,1-20.13-5.28l.12-.09a78.38,78.38,0,0,0,1.89,10.3,57.86,57.86,0,0,0,3.44,9.86h0A44.74,44.74,0,0,0,268,299a33.49,33.49,0,0,0,10.67,7.95,33,33,0,0,0,13,3,39.16,39.16,0,0,0,13.19-2,33.68,33.68,0,0,0,11.7-6.39,50.82,50.82,0,0,0,9-9.92,73.32,73.32,0,0,0,6.58-11.69A84.48,84.48,0,0,0,336.67,267.36Z"/>
                    </g>
                    <path class="b162ebe6-75a4-48c2-9db9-dc52a54a0a8d" d="M291.12,287.65c14.69,1.84,25.3,12.8,16.67,19.49a18,18,0,0,1-8.15,3.09c-30.53-1.24-37.43-17-36.33-27,3.74-.84,7.94.62,18.56,3.85A73.34,73.34,0,0,1,291.12,287.65Z"/>
                    <path class="adca200e-379c-4d12-b088-6d9834a6aab1" d="M280.49,284.49s9.87,8.29,8.68,21.93c0,0-2.24-14.17-13.3-22.45Z"/>
                    <path class="ba189ea1-8e9d-4c73-900d-84f20f479267" d="M300,293.2a70.79,70.79,0,0,1-18.82.29A28.77,28.77,0,0,1,256,268.71l0-.21s33.7,13.59,67.88,4.38C324.14,281.67,319.58,290.31,300,293.2Z"/>
                  </g>
                  <path class="eb010937-7cfc-496c-bdec-49ad4605cfa3" d="M252.5,255.63a12.13,12.13,0,0,1,.57,1.89,11.9,11.9,0,0,1,.23,2,9.73,9.73,0,0,1-.68,4,6.69,6.69,0,0,1-2.64,3.07,7.77,7.77,0,0,1-1.83.84,18.82,18.82,0,0,1-1.94.35v-.05a9.52,9.52,0,0,0,3.56-1.46,6.69,6.69,0,0,0,2.41-2.95,10.13,10.13,0,0,0,.74-3.77,13.83,13.83,0,0,0-.46-3.84Z"/>
                  <path class="eb010937-7cfc-496c-bdec-49ad4605cfa3" d="M342,271.89a9.62,9.62,0,0,1-2.81-1.84,11.64,11.64,0,0,1-2.09-2.68,10,10,0,0,1-1.09-3.22,10.78,10.78,0,0,1-.1-1.7,13,13,0,0,1,.21-1.66h.05a12.42,12.42,0,0,0,.22,3.28,10.21,10.21,0,0,0,1.15,3.06,12.61,12.61,0,0,0,4.49,4.71Z"/>
                </g>
                <ellipse class="ef4efdd1-0242-44e2-88eb-92fb250120a2" cx="228.5" cy="248.98" rx="11.98" ry="17.08" transform="translate(-66.82 413.26) rotate(-76.54)"/>
                <ellipse class="ef4efdd1-0242-44e2-88eb-92fb250120a2" cx="364.05" cy="248.3" rx="17.08" ry="11.98" transform="translate(-38.25 68.47) rotate(-10.21)"/>
              </g>
            </g>
          </g>
          <path class="b08d881b-f2df-4e70-bc74-19edb720cd2b" d="M83.78,271.53c6.63-4.3,15.39.91,15,8.8-.24,4.52-1.53,9.89-5.56,14.08-8.62,9-23.23,17.64-38.11,12.74s-21,7.21-25.68,14.49S9.56,328,10,310.44c0,0-.47-23.57,18.91-33.54,0,0,7.47-6.14,29.59,1C72,282.29,77.72,275.47,83.78,271.53Z"/>
        </g>
      </g>
      <path class="b08d881b-f2df-4e70-bc74-19edb720cd2b" d="M168.69,265.11s-35,30.54-6.2,55.88c16.91,14.91,25,23,31.48,24.42,9,1.95,18.74,21.26,16.41,28,0,0-4,14-10.63,5.29,0,0-12.7,16.46-31.54-9.06,0,0-.24-8.09,13-9.1,0,0-86.68-36.93-51.34-106.73C129.91,253.86,156.58,239,168.69,265.11Z"/>
      <path class="ecaa906b-13a5-4492-98fc-164a86c6d44c" d="M184,368.62s11.23.41-8.2-11.53"/>
    </g>
    <line class="b08d881b-f2df-4e70-bc74-19edb720cd2b" x1="199.75" y1="378.75" x2="203.72" y2="371.03"/>
  </g>
</svg>
