<svg id="ffc30f29-4e7c-4702-9a44-335c81152db4" data-name="Layer 1" xmlns="http://www.w3.org/2000/svg" width="340" height="400" viewBox="0 0 340 400">
  <defs>
    <style>
      .bbf10bed-4f4c-4a60-afe3-08ae3f8e86d4 {
        opacity: 0.3;
      }

      .ec2b3998-0713-4e26-80c5-371923fd74cf {
        fill: #e8e8e8;
      }

      .a133f45f-a07e-413b-b49a-b803b489c56a, .bdc20811-75b8-4ef6-8f5c-1a7f3abd0aad, .e5f1b357-85f5-44c2-b94a-0ae532e9eb25, .ec2b3998-0713-4e26-80c5-371923fd74cf, .fe66ba39-5779-4085-b6ef-b34c20100c2a {
        stroke: #161616;
      }

      .a133f45f-a07e-413b-b49a-b803b489c56a, .aacd4a49-be58-4457-b461-fad17ce35292, .bdc20811-75b8-4ef6-8f5c-1a7f3abd0aad, .e0087f7a-500e-4477-914c-ea6a639b3efd, .e5f1b357-85f5-44c2-b94a-0ae532e9eb25, .ec2b3998-0713-4e26-80c5-371923fd74cf, .efa507e2-8a38-4b64-b762-45aa00aea912, .fe66ba39-5779-4085-b6ef-b34c20100c2a {
        stroke-miterlimit: 10;
      }

      .aacd4a49-be58-4457-b461-fad17ce35292, .ec2b3998-0713-4e26-80c5-371923fd74cf, .efa507e2-8a38-4b64-b762-45aa00aea912, .fe66ba39-5779-4085-b6ef-b34c20100c2a {
        stroke-width: 0.78px;
      }

      .a133f45f-a07e-413b-b49a-b803b489c56a, .e5f1b357-85f5-44c2-b94a-0ae532e9eb25, .fe66ba39-5779-4085-b6ef-b34c20100c2a {
        fill: #6b1230;
      }

      .a3bb902a-bae4-4e34-9a81-5138f0779178, .e0087f7a-500e-4477-914c-ea6a639b3efd {
        fill: #fff;
      }

      .ac513406-64ec-4cef-ab7e-5fccd7e08907 {
        fill: #020206;
      }

      .aacd4a49-be58-4457-b461-fad17ce35292, .e0087f7a-500e-4477-914c-ea6a639b3efd {
        stroke: #111;
      }

      .e0087f7a-500e-4477-914c-ea6a639b3efd {
        stroke-width: 0.96px;
      }

      .f5e52bb5-904b-498f-8a5b-fd8899e4d490 {
        fill: #8e8e8d;
      }

      .b72d5cf4-940f-468c-af51-967049aa55d6 {
        fill: #282828;
      }

      .f6b153c8-af6f-490b-afc2-058a09130dc0 {
        fill: #5b031e;
      }

      .a133f45f-a07e-413b-b49a-b803b489c56a {
        stroke-width: 0.92px;
      }

      .a35f6daa-f158-4dfe-afcd-3e3dc25cdc36 {
        fill: #726f70;
        opacity: 0.53;
      }

      .a84f317a-e7c2-41cb-b39e-c23a28fae844 {
        fill: #bfbfbf;
      }

      .a61cf7e8-cc88-4782-8a06-6bba43cee62b {
        fill: #ededed;
      }

      .acfad2ba-daae-4341-a32c-5d0b4aced5e2 {
        fill: #918e8f;
        opacity: 0.68;
      }

      .bdc20811-75b8-4ef6-8f5c-1a7f3abd0aad {
        fill: #efefef;
      }

      .bdc20811-75b8-4ef6-8f5c-1a7f3abd0aad, .e5f1b357-85f5-44c2-b94a-0ae532e9eb25 {
        stroke-width: 1.16px;
      }

      .aacd4a49-be58-4457-b461-fad17ce35292, .efa507e2-8a38-4b64-b762-45aa00aea912 {
        fill: none;
      }

      .efa507e2-8a38-4b64-b762-45aa00aea912 {
        stroke: #232323;
      }
    </style>
  </defs>
  <g>
    <ellipse class="bbf10bed-4f4c-4a60-afe3-08ae3f8e86d4" cx="141.14" cy="368.29" rx="121.02" ry="27.57"/>
    <g id="f43e7aac-b4ed-4b7f-a3fd-cbed372fe49a" data-name="z">
      <g>
        <path class="ec2b3998-0713-4e26-80c5-371923fd74cf" d="M287.71,32.77S301.77,22.65,313,29.11c0,0-3,14.63-18.42,17.11L283,41.42Z"/>
        <path class="fe66ba39-5779-4085-b6ef-b34c20100c2a" d="M307.6,32s-7.45,7.69-17.62,9.38l5.33,2.27S304.91,41.64,307.6,32Z"/>
      </g>
      <path class="a3bb902a-bae4-4e34-9a81-5138f0779178" d="M276.27,111.3a19.62,19.62,0,0,0-12.07-7.4L246,109.35l-12.41-9.64-6.2-17.22L251,38.15l1.57-2.75s24.42-11.76,42,14.46c0,0,1.91,9.47,1.82,13.44l.5,6.51s4.41,5.94,4.53,8.73Z"/>
      <path class="ac513406-64ec-4cef-ab7e-5fccd7e08907" d="M287.72,53.21s-1,11.88,2.26,16.6a31.62,31.62,0,0,1-8-21.07S286.42,45.88,287.72,53.21Z"/>
      <path class="e0087f7a-500e-4477-914c-ea6a639b3efd" d="M287.9,57.1S291,55.49,290,49.22c0,0,3.93,2.47,5.54,5.94,0,0,2.23-6.9,0-12.08,0,0-5.46-2.73-9.23-3l9-2s-.3-9.21-7.6-13.82L283,28.87l3.33-6.09a18.87,18.87,0,0,0-10.61-3.9l-18.12-.67s-10.75,2.29-17.67,7.24c0,0,.58,5.85,2.31,7.32,0,0-4.23-2.75-5-4.67,0,0-15.75,12.86-21.7,27.08L221.84,61,214,57.48l-3.65,8.15a70.46,70.46,0,0,0,7.3,6.41s-5.38-.16-9.22-3c0,0,.31,19-9.06,27.44l3.49,4.21-4.41-1.5S183,125.22,183,138.57c0,0,13.57-17.56,16.57-24.18C202.38,108.13,220.69,97,220.69,97L233,62.28l14.86-23.19,12.07-9.72,12,5.57s5.8.07,9.45,12.55C281.37,47.49,285.21,55.18,287.9,57.1Z"/>
      <path class="f5e52bb5-904b-498f-8a5b-fd8899e4d490" d="M133.28,258.92s-12.66,27.22-17.51,33.76c0,0,18.35,64.13,19.41,70.46,0,0-2.11.63-8.65,1.9,0,0-2.74,4.22-3.17,6,0,0-3.16-5.38,1.06-9.81,0,0-18.78-60.33-25.32-68.14,0,0,8.65-22.57,7.18-40.5l5.69-5.7Z"/>
      <path class="f5e52bb5-904b-498f-8a5b-fd8899e4d490" d="M232.53,355.82l-3.29-2.35,1.64-49.79s8.93-51.08,9.4-56.78l-26.54,7.68L209.27,279s8,33.12,8.46,40.87l2.35,30.54s-2.12,6.11-.94,8.92C219.14,359.34,230.18,356.06,232.53,355.82Z"/>
      <path d="M232.53,355.82s10.86,5.65,10,15.23a33,33,0,0,1-19.4-1.48s-4.6-2.4-4-10.23Z"/>
      <path d="M202.94,364.64s10,1.87,11.52,14.29c0,0-14.63,3.75-22-3.06,0,0-2.08-4.75-2.23-8.25Z"/>
      <path d="M135.18,363.14s9.34,1.84,12.07,14.26a28.33,28.33,0,0,1-20.08,0s-3.86-2.49-3.81-6.35l3.17-6Z"/>
      <path d="M52.27,368.71s9.21,4.78,10.4,13.29c0,0-14.12,3.92-23.14-2,0,0-3.23-5-.51-8.91Z"/>
      <path class="a3bb902a-bae4-4e34-9a81-5138f0779178" d="M268.3,81.78l.52-37.11L253.93,33.61s-19.85,7.81-30.47,40.71c0,0-30.12,51.88-44.25,66.17s-53.35,19.37-72.05,14.62S71.65,147,55.65,161s-25.34,48.62-14,77.54c7,17.92,2,35.55,2,35.55s-6.59,10.58-6.2,21l1.17,62.72s-7.79,11.3.39,13.25l13.25-2.34-4-3.8,10.07-74.69s43.43-23.58,53.94-39.55c0,0,24.89,18.63,72.56,14.91,0,0,.49,6.7,5,10.67l2.73,86.16s-2,3.23-2.23,5.21l12.66-3,11.17-103.53s7.27-1.06,10.82-3.43c0,0,17.52.59,25.06-19.56s5.37-49.33,3.94-82.71c-1.22-28.77,10.73-45.16,14.05-49.14a2.34,2.34,0,0,0,.43-2.23l-1.47-4.7,1.36-17.56"/>
      <path class="b72d5cf4-940f-468c-af51-967049aa55d6" d="M298.31,124a13.38,13.38,0,0,1-12.37,0c-6.78-3.39-7.38-11.77-12.77-16.36s-5-12.76-1.79-15S281,91.06,281,91.06s6-3,9.18-12,16.36,3.39,16.36,3.39,4.08-4.2,9.57,4.39a8.91,8.91,0,0,1,0,9.57s.4,6.79,3,8.78-6,8-14.57,6.58a6.71,6.71,0,0,0-4.59,5.79C299.5,122.18,298.31,124,298.31,124Z"/>
      <path class="f6b153c8-af6f-490b-afc2-058a09130dc0" d="M300,111.65s-13.27-2.86-17.27-15.21h-1.18s-7,16.55,7.71,24c0,0,8.5,3.2,8.18-5.94A4.73,4.73,0,0,1,300,111.65Z"/>
      <path class="a133f45f-a07e-413b-b49a-b803b489c56a" d="M296.87,95.26s-2.71-2.4-4.61-1.33-2.48-3.55,1.19-3.43S296.87,95.26,296.87,95.26Z"/>
      <path class="a35f6daa-f158-4dfe-afcd-3e3dc25cdc36" d="M309.34,86.11s-7.52-6.57-15.06-6.26c0,0-1.53.64-2.8,4.22s-4.74,8.12-12.33,7.59a12.08,12.08,0,0,0,7.48-5.89c2.83-5,2.33-9.22,7.65-9.94s10.76,5.58,12.21,6.65c0,0,2.82-2.93,7.45,1.59s4.14,9.35,2.12,12.37c0,0,1.47-7.41-3.49-11.21S309.34,86.11,309.34,86.11Z"/>
      <path class="a84f317a-e7c2-41cb-b39e-c23a28fae844" d="M271.21,93.43s-16.29,4.52-24.12-.55-8.44-14.27-8.44-14.27-5.42,13.94,6.18,22,21.61,7.6,21.61,7.6l1.4-1.89a1.86,1.86,0,0,1,2.26-.6,15.38,15.38,0,0,1,4.92,4.3l-4-9.75Z"/>
      <path class="ac513406-64ec-4cef-ab7e-5fccd7e08907" d="M274.32,92.24s-5.93,6.15,1.81,15,5.81,15.08,14.64,15.86,7.1-3.87,7.57-5.29,1.38-5.67,3.31-6.19c0,0,3.92-.74.72,1.39,0,0-2.69,1.5-3,8.05s-11,4.6-13.44,3-5.52-4.43-9.67-12.67c0,0-5.16-4.75-6.65-9.07S268.94,93,274.32,92.24Z"/>
      <path class="ac513406-64ec-4cef-ab7e-5fccd7e08907" d="M317.54,103.84s-.16,6-14.86,5.07S283,97,283,97s2.2,13,21.53,14.79c0,0,11.9,1.58,15-5.9C319.53,105.9,321,103.58,317.54,103.84Z"/>
      <path class="ac513406-64ec-4cef-ab7e-5fccd7e08907" d="M301.41,97.69s.4-10.25-7.42-10.9c0,0-2.89,0-4.38,3.71,0,0,3.2-3.71,7.27-1.32A9.85,9.85,0,0,1,301.41,97.69Z"/>
      <path class="ac513406-64ec-4cef-ab7e-5fccd7e08907" d="M279.15,82.75s-16.08,2.41-23.47-11.09-3.33-25.14-3.33-25.14S242,62.85,253.93,78.68C264.2,92.24,279.15,82.75,279.15,82.75Z"/>
      <path class="ac513406-64ec-4cef-ab7e-5fccd7e08907" d="M271.21,51.88s-9.8-5.36-12.94,4.07c0,0-.08-7.13,5.93-9.43C269,44.67,271.21,51.88,271.21,51.88Z"/>
      <path class="ac513406-64ec-4cef-ab7e-5fccd7e08907" d="M296.18,59.91s-1.87-3.78-4.67.46c0,0,.34-5,2.8-4.24C296.42,56.76,296.18,59.91,296.18,59.91Z"/>
      <path class="ac513406-64ec-4cef-ab7e-5fccd7e08907" d="M268.3,91.33s-15.72-3-20.14-11.83S243,59.3,244.08,53.21c0,0-4.77,5.75-1.15,24.65S268.3,91.33,268.3,91.33Z"/>
      <path class="ac513406-64ec-4cef-ab7e-5fccd7e08907" d="M276.77,36.93S273.82,51.84,280,60.37c0,0-8.76-12.84-7.93-25.63C272.05,34.74,277.23,33.66,276.77,36.93Z"/>
      <path class="ac513406-64ec-4cef-ab7e-5fccd7e08907" d="M266.44,108.25s-7.14-1.37-15.51-3.88c-3.47-1.05-7.16-2.29-10.63-3.72,0,0-.5,10.67,19.81,18.82C260.11,119.47,264.65,110,266.44,108.25Z"/>
      <path class="ac513406-64ec-4cef-ab7e-5fccd7e08907" d="M222.45,75.82S231.07,105.32,250,121c0,0-9.85-.46-21.69-12.92S214.15,90.5,214.15,90.5Z"/>
      <path class="a61cf7e8-cc88-4782-8a06-6bba43cee62b" d="M309.36,111.84s-2.2,5-14.25.93S282,101,282,101l1.76-1.69s2.5,6.71,8.69,9.08S304,112.16,309.36,111.84Z"/>
      <path class="a61cf7e8-cc88-4782-8a06-6bba43cee62b" d="M297.37,116.06s-2,3.58-7.76,1a14.56,14.56,0,0,1-8.26-11.4c-.13-2.86-.26-4.3-.26-4.3l-1,.32s-.91,7.48,2.66,12.67,4.94,6,8,6.62S297.37,120.17,297.37,116.06Z"/>
      <g>
        <path class="ac513406-64ec-4cef-ab7e-5fccd7e08907" d="M287.71,24.26,275,37.86A57.69,57.69,0,0,1,280,45.12L291.85,28.2S289.81,24.48,287.71,24.26Z"/>
        <path class="ac513406-64ec-4cef-ab7e-5fccd7e08907" d="M275.68,18.88l3.47.51S278,32.62,275,35.4l-3-.66Z"/>
        <path class="ac513406-64ec-4cef-ab7e-5fccd7e08907" d="M253.94,34.57s-4.42-8.92-4.89-13.78l-7.32,3.47s2.65,11.09,6.11,14.83Z"/>
        <path class="ac513406-64ec-4cef-ab7e-5fccd7e08907" d="M240.3,44.55a54.64,54.64,0,0,1-12.87-7s-7.94,9.41-9.93,13.5l-2,4.1,11.42,10.6S235.34,47.7,240.3,44.55Z"/>
        <path class="ac513406-64ec-4cef-ab7e-5fccd7e08907" d="M208.4,69s3.33,6.49,12.47,9.61L211.1,95.26s-6.42-2.88-7.76-3.94C203.34,91.32,208.92,79.6,208.4,69Z"/>
        <path class="ac513406-64ec-4cef-ab7e-5fccd7e08907" d="M201.31,94.34l6.2,6.31s-4.17,9.41-9.65,15l-5.23-6.29,5.79-10.2,4.41,1.5-3.49-4.21Z"/>
        <polygon class="ac513406-64ec-4cef-ab7e-5fccd7e08907" points="193.22 122.49 188.17 119.47 184.81 128.57 187.65 130.29 193.22 122.49"/>
      </g>
      <path class="acfad2ba-daae-4341-a32c-5d0b4aced5e2" d="M260.11,119.47c-4.71,10.79-6.91,22.18-5.64,33.57,0,29.11,5.61,57.94-4.87,86.92-.71,2-3.19,5.44-4.66,7.57-1.61,2.33-4.63,5.6-7.21,6.77-20.4,9.32-35.15,8.84-55.4,11.37-21.51,1.27-47.15-.22-70.07-15l10.52-14.14s31.13,24.58,93.23,7.34c0,0,21.15-13.3,23.73-69.26,0,0,2-47.41,9.14-61.19Z"/>
      <path class="a3bb902a-bae4-4e34-9a81-5138f0779178" d="M183,218.24s-5.92,46.2,6.81,58l2.73,86.16s-2.45,3.4-2.23,5.21l12.66-3,11.17-103.53,5-45.24Z"/>
      <path class="a3bb902a-bae4-4e34-9a81-5138f0779178" d="M135.18,219.94s-21.81,29.18-22.92,30.73-11.69,17.66-53.94,39.55L48.25,364.91l4,3.8L39,371.05s-4.69-1-3.72-4.9a44.77,44.77,0,0,1,3.33-8.35l-1.17-62.72S35.17,281,40.52,268.83c0,0,6.25-6.95,6.69-21.93,0,0-5.79-19.52-6.47-24.78s67.72-18.47,67.72-18.47Z"/>
      <path class="ac513406-64ec-4cef-ab7e-5fccd7e08907" d="M171,146.47S160.87,189,181.59,223.52c0,0-28-33.67-24.28-71.5Z"/>
      <path class="ac513406-64ec-4cef-ab7e-5fccd7e08907" d="M139,155.83s-6.71,34.32,9.7,64.09c0,0-18.74-28.85-18.48-63.27Z"/>
      <path class="ac513406-64ec-4cef-ab7e-5fccd7e08907" d="M120.15,156.77s-8.8,35.47,2.12,59.1c0,0-10.41-18.86-11.39-39.51s4-20,4-20Z"/>
      <path class="ac513406-64ec-4cef-ab7e-5fccd7e08907" d="M179.49,266S165.84,252,161.58,217.5c0,0-3.58,29.09,8.95,48.56Z"/>
      <path class="ac513406-64ec-4cef-ab7e-5fccd7e08907" d="M156.7,265.37s-25.1-22.65-28-67.93c0,0-.93,47.11,17.66,66.48Z"/>
      <path class="ac513406-64ec-4cef-ab7e-5fccd7e08907" d="M254,146.47s-23.27-5.35-30.28-17.14c0,0,15.05,24.69,30.84,29.85Z"/>
      <path class="ac513406-64ec-4cef-ab7e-5fccd7e08907" d="M207.51,100.65A39.87,39.87,0,0,0,227.43,121s-21.09-5.83-24.09-13.52Z"/>
      <path class="ac513406-64ec-4cef-ab7e-5fccd7e08907" d="M255.37,134.88s-15.64-1.86-19.92-9.4c0,0,7.16,12,18.85,16.48Z"/>
      <path class="ac513406-64ec-4cef-ab7e-5fccd7e08907" d="M195.43,118s.24,39.41,46.14,52.94c0,0-27.55,0-44.26-19.89s-8.3-22.61-8.3-22.61Z"/>
      <path class="ac513406-64ec-4cef-ab7e-5fccd7e08907" d="M255.37,186.14s-13.41,14.62-46.1-8.2c0,0,16.11,23.08,46.59,21.3Z"/>
      <path class="ac513406-64ec-4cef-ab7e-5fccd7e08907" d="M183.56,135.56s-.35,37.51,21.39,54.16c0,0-23.76-16.14-29.25-46.23Z"/>
      <path class="ac513406-64ec-4cef-ab7e-5fccd7e08907" d="M254.17,219.92s-29.32,1.79-47.74-19.06c0,0,9.6,21.34,45.64,30.54C252.07,231.4,254.9,223.23,254.17,219.92Z"/>
      <path class="ac513406-64ec-4cef-ab7e-5fccd7e08907" d="M182.91,259.86s7.81,15,23.52,16c0,0-12.33,1.47-20.24-4.91C186.19,271,183.46,263.75,182.91,259.86Z"/>
      <path class="ac513406-64ec-4cef-ab7e-5fccd7e08907" d="M177.39,174.45s-4,35.51,21.1,50.73c0,0-23-4.91-25.1-37.3C173.39,187.88,173.92,174.18,177.39,174.45Z"/>
      <path class="ac513406-64ec-4cef-ab7e-5fccd7e08907" d="M244.5,248.14S226,242.37,221,234.38c0,0-6.32,11.24,13.17,21.48C234.17,255.86,242.38,252.87,244.5,248.14Z"/>
      <path class="ac513406-64ec-4cef-ab7e-5fccd7e08907" d="M210.2,297.36s2.08-5.76-7.83-11.08-12.09,9.08-12.09,9.08,4.4-9.26,12.09-5.31S210.2,297.36,210.2,297.36Z"/>
      <path class="ac513406-64ec-4cef-ab7e-5fccd7e08907" d="M208.43,313.79s-1.06-7.47-11.15-7.47c-6.54,0-6.24,9.55-6.24,9.55s3.29-8.06,8.69-5.93S208.43,313.79,208.43,313.79Z"/>
      <path class="ac513406-64ec-4cef-ab7e-5fccd7e08907" d="M117.14,244.1s-13.8-69.65-70.69-71.54L41.1,183.64s23.73-5.21,46.72,17.78S117.14,244.1,117.14,244.1Z"/>
      <path class="ac513406-64ec-4cef-ab7e-5fccd7e08907" d="M103.21,260.61s2-29.67-29.39-53.93c0,0,27.23,38.53,23.84,58.69Z"/>
      <path class="ac513406-64ec-4cef-ab7e-5fccd7e08907" d="M101.63,153.75S91.79,169.88,94.51,185c.07.39.15.77.23,1.15,3.47,15.43-9.27-18.12-.7-34Z"/>
      <path class="ac513406-64ec-4cef-ab7e-5fccd7e08907" d="M85.17,274.52S79.83,223,39.27,231.4c0,0,36,1.82,39.85,47Z"/>
      <path class="ac513406-64ec-4cef-ab7e-5fccd7e08907" d="M37.65,198.27s29.25-.25,41.47,35c0,0-18.25-29.14-42-31Z"/>
      <path class="ac513406-64ec-4cef-ab7e-5fccd7e08907" d="M83.56,151s-12.51,7.44-8.39,20.73c0,0-8.92-12.41,0-20.2L80,151Z"/>
      <path class="ac513406-64ec-4cef-ab7e-5fccd7e08907" d="M215.67,246.9s-8.18,10.43-33.48,7.55c0,0,8.24,9.26,32.27,3.49"/>
      <path class="ac513406-64ec-4cef-ab7e-5fccd7e08907" d="M67.29,285.11s-2.52-20.2-21.92-25.27l-.49-8.31S74.85,262.32,67.29,285.11Z"/>
      <path class="ac513406-64ec-4cef-ab7e-5fccd7e08907" d="M56.37,304.69s-.1-20.58-19.16-22.34l-.24,5S52.33,293.44,56.37,304.69Z"/>
      <path class="ac513406-64ec-4cef-ab7e-5fccd7e08907" d="M53.72,324.37s-5.9-9.43-14.45-4.6c0,0,14.36,5.28,13.64,10.59Z"/>
      <path class="ac513406-64ec-4cef-ab7e-5fccd7e08907" d="M38.28,339.12s3.06-6.51,9.78-1.32c0,0-10,3.16-9.78,9.11Z"/>
      <path class="ac513406-64ec-4cef-ab7e-5fccd7e08907" d="M205.67,339.34s-4-7.64-14.08-6.15c0,0,7.49-6.39,14.77-.19Z"/>
      <path class="ac513406-64ec-4cef-ab7e-5fccd7e08907" d="M126.89,272.24s-12.35,3.35-21-6.87c0,0,4.26,12.85,17.88,13.06l3.1-5.11"/>
      <path class="ac513406-64ec-4cef-ab7e-5fccd7e08907" d="M117.9,289.38s-13.88-.85-15.38-7l-2.11,7S115.76,293.17,117.9,289.38Z"/>
      <path class="ac513406-64ec-4cef-ab7e-5fccd7e08907" d="M120.41,309s-7.27,2.49-15.54-4.29c0,0,4,8.72,17.49,11.18Z"/>
      <path class="ac513406-64ec-4cef-ab7e-5fccd7e08907" d="M37.12,300.14s15.44,2,16.6,8.84c0,0-12.58-7.4-16.08-4.29Z"/>
      <path class="ac513406-64ec-4cef-ab7e-5fccd7e08907" d="M122.78,236.53s4-11.86-6.38-24.88c0,0,5.15,23.06,3.57,28.67"/>
      <path class="ac513406-64ec-4cef-ab7e-5fccd7e08907" d="M234.38,283.46s-2.08-9.95-15.3-11.56c0,0,7.75-6.73,17,1.22Z"/>
      <path class="ac513406-64ec-4cef-ab7e-5fccd7e08907" d="M227.61,294.92s-11,.11-13.52,5.12l-1.6-7.21S217.75,286.35,227.61,294.92Z"/>
      <path class="ac513406-64ec-4cef-ab7e-5fccd7e08907" d="M230.52,314.69s-3.82-9.36-14.3-4.41c0,0,7.13-8.33,14.49-1.3Z"/>
      <path class="ac513406-64ec-4cef-ab7e-5fccd7e08907" d="M128.25,336.88s-4.3,8.4-10,5.13l1.85,5.64S128.72,341.85,128.25,336.88Z"/>
      <path class="ac513406-64ec-4cef-ab7e-5fccd7e08907" d="M230,332s-4.59-5.89-11.7-5.35c0,0,11.68,5.9,11.54,10.22Z"/>
      <path class="ac513406-64ec-4cef-ab7e-5fccd7e08907" d="M217.33,230.47l-1.11,8.45a47.44,47.44,0,0,1-30.28,5.18S213.7,243,217.33,230.47Z"/>
      <path class="bdc20811-75b8-4ef6-8f5c-1a7f3abd0aad" d="M254.38,41.42c-3.84-29.76,18.23-37.28,18.23-37.28,9,27.42-4.69,34.77-4.69,34.77"/>
      <path class="e5f1b357-85f5-44c2-b94a-0ae532e9eb25" d="M257.39,40.08s8.19-2,9.87-15.88.83-13.37.83-13.37-9.53,9-10.7,14.62S256.22,38.24,257.39,40.08Z"/>
      <path class="efa507e2-8a38-4b64-b762-45aa00aea912" d="M253.94,34.57s-10.55,4.72-16.56,12.89-16.24,31.3-19.46,36.82-23,36.6-34.79,51.72-32.06,17.92-45.42,20.19c0,0-19.65,2.66-38.36-2.92,0,0-26.72-8.55-43,7.17,0,0-15.06,13-19.21,37-3.94,22.75,4,39.87,4,39.87s5.29,14.32,4.21,22.53c0,0-2.28,5.8-4.85,9S36,286.1,37.46,295.08l1.17,62.72s-7.94,11.82.39,13.25l13.25-2.34-4-3.8,10.07-74.69s54.5-23,70.36-66"/>
      <path class="efa507e2-8a38-4b64-b762-45aa00aea912" d="M112.26,250.67s23.94,19.71,72.56,14.91"/>
      <path class="efa507e2-8a38-4b64-b762-45aa00aea912" d="M132.46,260.67s-9,21.81-16.69,32l19.41,70.46-8.65,1.9-3.17,6s-4.12-3.64,1.06-9.81c0,0-19.26-62.08-25.32-68.14,0,0,8.56-27.15,7.34-35.6"/>
      <path class="efa507e2-8a38-4b64-b762-45aa00aea912" d="M183,223.52s-5.78,38.94,6.81,52.73l2.73,86.16s-2.56,2.85-2.23,5.21l12.66-3,16-147.14"/>
      <path class="efa507e2-8a38-4b64-b762-45aa00aea912" d="M214.11,261.11s7.32-1,10.82-3.43c2.68-1.82,13.95,2.2,23.1-14.75,0,0,9.74-10.3,7.08-59.42s.4-60.54,12.73-77.15c0,0,1.63-2.29,6.64,2.55"/>
      <path class="efa507e2-8a38-4b64-b762-45aa00aea912" d="M239.32,253.37l-8.44,50.31-1.64,49.79,3.29,2.35-13.39,3.52s-1.35-3.48.94-8.92c0,0-2-42.31-9-61.77"/>
      <path class="efa507e2-8a38-4b64-b762-45aa00aea912" d="M267.84,106.36s-28.13-3.49-28.72-21.94"/>
      <path class="efa507e2-8a38-4b64-b762-45aa00aea912" d="M295.66,54.66a35.72,35.72,0,0,1,.72,8.64"/>
      <path class="efa507e2-8a38-4b64-b762-45aa00aea912" d="M297.5,70.53s3.8,4.41,3.91,8"/>
      <path class="aacd4a49-be58-4457-b461-fad17ce35292" d="M301.08,114.39c-1.19,1-1.7,6.62-1.7,6.62s.59,5.45-8.61,4.47-14.5-14.18-14.5-14.18c-3.16-2.29-8.06-9.21-7.45-13.61s3.33-6.53,9.08-6.69,7.51-3.43,9.64-7c2.5-4.22,1.13-7.6,6.31-8.08,6.06-.55,12.64,6.58,12.64,6.58.8-1,3.65-3,8.56,2.81s1,11.15,1,11.15.06,5.5,1.58,6.89,2.93.44,1.89,2.57-3,5.15-10.86,6c0,0-12.87.34-20.35-6.45C282,99.77,283,95.86,283,95.86l2.15-.47-4.29,1"/>
      <path class="aacd4a49-be58-4457-b461-fad17ce35292" d="M282.7,96.44s-2.82.21-2.74,7.47,3.26,13.41,8.27,16.31,8.6.17,9.14-2.76l.66-3.82"/>
    </g>
  </g>
</svg>
