<svg id="b1c61b29-e468-4e91-93d0-33e4ae3a68d2" data-name="Layer 1" xmlns="http://www.w3.org/2000/svg" width="926.96" height="500" viewBox="0 0 926.96 500">
  <defs>
    <style>
      .a4994cab-c2e2-4068-a5ba-ed9ad0e1ef14, .f866bcf1-60b2-4d56-aa10-275effb73aea {
        fill: #747474;
      }

      .a4994cab-c2e2-4068-a5ba-ed9ad0e1ef14, .b62d9935-5cd7-4926-a21f-e5650c2098ad, .efa69ad6-71ac-43d7-8656-0afeee65d25d, .f866bcf1-60b2-4d56-aa10-275effb73aea {
        stroke: #323232;
        stroke-miterlimit: 10;
      }

      .efa69ad6-71ac-43d7-8656-0afeee65d25d, .f866bcf1-60b2-4d56-aa10-275effb73aea {
        stroke-width: 0.75px;
      }

      .efa69ad6-71ac-43d7-8656-0afeee65d25d, .f55aa812-460d-42e1-bc52-7b00164e5764 {
        fill: #dc7272;
      }

      .acbed302-c205-4986-b130-e167320ed5ef {
        fill: #3c1615;
      }

      .ade8fb35-a178-42d7-9577-42022dd63b57 {
        fill: #fe9498;
      }

      .a92899cc-efb4-478e-b4dc-bd08bd4c0027 {
        fill: #323232;
      }

      .b1260d4a-030a-4891-9708-1fe12dba3969 {
        fill: #323031;
      }

      .b5345e56-c3b2-4132-82fb-4a3e8483b478 {
        fill: #595a5c;
      }

      .b62d9935-5cd7-4926-a21f-e5650c2098ad {
        fill: none;
      }

      .e05acaf0-5c37-431e-9221-5254a792153c {
        fill: #5c5c5c;
      }

      .a361a891-89b9-4d02-80db-ae80595c1104 {
        fill: #8c8c8c;
      }

      .ffb519cd-5adc-425c-996f-678b5ec50dfb {
        fill: #525250;
      }
    </style>
  </defs>
  <g>
    <g>
      <path class="f866bcf1-60b2-4d56-aa10-275effb73aea" d="M324.27,70.23s2.2-48.9,41.35-32.28c0,0,19.52,13.86,23.53,25.17C389.15,63.12,341.24,74.44,324.27,70.23Z"/>
      <path class="efa69ad6-71ac-43d7-8656-0afeee65d25d" d="M331.32,65.92s1.14-27.23,24.21-19.65c0,0,10,4.48,14,11.55C369.57,57.82,348.83,55.73,331.32,65.92Z"/>
    </g>
    <path class="a4994cab-c2e2-4068-a5ba-ed9ad0e1ef14" d="M197.1,391c1.77,1.82,1.19,7.87.42,9.9-5.07,13.3,2,24.76,8.24,13.15,4.72-8.84,7.35-8,9.9-6,3.1,2.42,22.77,2.27,10-11.87-25-28.08-45.92-66.26-8.3-99.13,24.32-11.53,41.4-6.27,80.85-15.41,0,0,3.35,36.11,45.89,18.84,4.65-1.89,11.4-11.27,15.08-18.12a88.48,88.48,0,0,0,5.11-11.75s47.73,18.39,74.87,1l18.78,13.11,117-128.22c29-9.28,34.08-34.74,33.6-34.73-67,1-107.2-38.15-107.79-39-36.76-54.59-80.17-6.6-81.12-7.27-11.68-8.16-92-61.4-129,40.56,0,0-14.59,6.22-15.75,19.56,0,0-128.78,90.1-120.81,164.54C154.94,346.89,179.4,372.85,197.1,391Z"/>
    <path class="acbed302-c205-4986-b130-e167320ed5ef" d="M301.51,276.49s23.59-5.19,43.17-20.07l9.83,2.49s1.32,29-24.38,39.93C330.13,298.84,303.83,307.67,301.51,276.49Z"/>
    <path class="ade8fb35-a178-42d7-9577-42022dd63b57" d="M352.08,268.18s-49.18,15.68-47.56,20.95c0,0,11.93,22.72,35.86,3.87C340.38,293,356.48,280.52,352.08,268.18Z"/>
    <g>
      <path class="ade8fb35-a178-42d7-9577-42022dd63b57" d="M400.1,162.49S405.81,92.17,471.3,90c0,0,68.57,67.25,128.35,48.79,0,0-1.85,49.33-52,52.08,0,0-8.93,53.27-44,44,0,0-19.89,46.69-60.46,23.35,0,0-16.52-10.29-12.4-37.78,0,0-5.15-22.34-18.9-28.18C411.87,192.22,397.48,176.32,400.1,162.49Z"/>
      <path class="f55aa812-460d-42e1-bc52-7b00164e5764" d="M411,191.26c-6.47-13.92,5.45-89.9,58.91-87.77,0,0,20.78,6.79,34.47,25.52,0,0,44.56,35.61,89.73,27.05,0,0,2.38,0,2.57-.54,0,0-9.11,35-48.57,35.66,0,0-6.78,54.43-44,44,0,0-19,50-62,22,0,0-16.55-13.93-11.13-34.28,0,0-6.12-23.78-17.53-28.66h0Z"/>
      <path class="a92899cc-efb4-478e-b4dc-bd08bd4c0027" d="M411.05,190.54a.69.69,0,0,1,.05.13c.11.52-.82.76-.68.54-.13-.08-.07-.05-.11-.08l-.05,0-.13-.11-.21-.21-.4-.42-.75-.85c-.49-.58-1-1.16-1.44-1.75q-1.38-1.8-2.64-3.69a44.31,44.31,0,0,1-4.31-8,24.74,24.74,0,0,1-1.35-4.46,15.63,15.63,0,0,1-.28-2.38,12.36,12.36,0,0,1,.16-2.39l.6-4.46c.19-1.49.39-3,.69-4.46l.83-4.43c.26-1.48.68-2.94,1-4.4.64-2.95,1.58-5.82,2.43-8.71a100.85,100.85,0,0,1,7.16-16.62c5.89-10.54,14.34-19.86,24.91-25.9l2-1.12,2-1c1.34-.7,2.76-1.25,4.15-1.85A68.46,68.46,0,0,1,453.34,91a61,61,0,0,1,18-1.8h0a.76.76,0,0,1,.4.17h0A320.16,320.16,0,0,0,500,111.15a216.49,216.49,0,0,0,30.84,17.65,161.39,161.39,0,0,0,16.51,6.54,124.63,124.63,0,0,0,17.19,4.33,89.08,89.08,0,0,0,17.62,1.39,66.13,66.13,0,0,0,8.79-.77c1.45-.25,2.89-.52,4.31-.88a29.15,29.15,0,0,0,4.12-1.31h0a.73.73,0,0,1,1,.39.8.8,0,0,1,0,.26,63.76,63.76,0,0,1-2.82,20.84,43.31,43.31,0,0,1-11.07,17.87,49.22,49.22,0,0,1-18.12,10.69,64.48,64.48,0,0,1-20.77,3.43l.75-.62a117.65,117.65,0,0,1-3.92,18,72.69,72.69,0,0,1-3.28,8.64,47.51,47.51,0,0,1-4.66,8,33.12,33.12,0,0,1-6.43,6.74,25.5,25.5,0,0,1-8.31,4.3,25.82,25.82,0,0,1-4.61.94,28.26,28.26,0,0,1-4.69.08,27.75,27.75,0,0,1-9.13-2.13l1-.39h0a60.85,60.85,0,0,1-3.15,6.81,57.75,57.75,0,0,1-8.76,12.16,42.81,42.81,0,0,1-5.62,5.1l.16-.15a22.33,22.33,0,0,1-9.53,6.14,32.1,32.1,0,0,1-11.15,1.49A47.88,47.88,0,0,1,455.21,265c-.91-.25-1.79-.52-2.7-.84l-2.6-.88c-.88-.31-1.74-.7-2.6-1s-1.69-.82-2.54-1.22a31.46,31.46,0,0,1-8.95-6.83,28.38,28.38,0,0,1-5.75-9.71,33,33,0,0,1,.09-22,.35.35,0,0,1,.45-.2.34.34,0,0,1,.22.38v0a56.91,56.91,0,0,0-.69,10.73A34.17,34.17,0,0,0,432,243.8a27.63,27.63,0,0,0,13.78,15.38c.8.38,1.58.82,2.4,1.15s1.64.7,2.49,1l2.59.87c.82.29,1.68.55,2.54.78a48.09,48.09,0,0,0,10.57,1.66,30.19,30.19,0,0,0,10.47-1.33,20.43,20.43,0,0,0,8.74-5.55l.14-.12,0,0a44.75,44.75,0,0,0,5.4-4.78,56.42,56.42,0,0,0,8.69-11.67,59.39,59.39,0,0,0,3.17-6.58h0a.75.75,0,0,1,1-.4h0a27.12,27.12,0,0,0,13,1.91,24.24,24.24,0,0,0,12.18-4.94,31.85,31.85,0,0,0,6.14-6.45,46.59,46.59,0,0,0,4.52-7.77,70.58,70.58,0,0,0,3.21-8.45,114.91,114.91,0,0,0,3.86-17.74.73.73,0,0,1,.73-.62h0a63.05,63.05,0,0,0,20.25-3.36,47.77,47.77,0,0,0,17.58-10.36,41.76,41.76,0,0,0,10.69-17.27,62.43,62.43,0,0,0,2.76-20.36l1,.65a29.27,29.27,0,0,1-4.38,1.4c-1.46.38-2.94.65-4.43.91a66,66,0,0,1-9,.78,90.25,90.25,0,0,1-17.91-1.4,126.84,126.84,0,0,1-17.39-4.39,158,158,0,0,1-16.66-6.6,218.24,218.24,0,0,1-31.06-17.76,323.67,323.67,0,0,1-28.32-21.84l.4.17h0a59.48,59.48,0,0,0-17.48,2,68.08,68.08,0,0,0-8.38,2.8c-1.34.61-2.72,1.15-4,1.85l-2,1-1.91,1.11c-10.22,5.91-18.37,15-24.07,25.29a99.08,99.08,0,0,0-7,16.25c-.84,2.84-1.77,5.65-2.39,8.55-.33,1.45-.74,2.88-1,4.34l-.81,4.37c-.3,1.45-.5,2.93-.69,4.4l-.6,4.42c-.49,2.75.3,5.55,1.33,8.25a60,60,0,0,0,3.92,7.86c.74,1.28,1.52,2.53,2.34,3.77.4.62.8,1.24,1.22,1.85l.64.9.32.44.16.21.07.09h0s0,0-.07,0c.17-.2-.74,0-.64.52l0,.07a.45.45,0,0,1,.2-.62A.46.46,0,0,1,411.05,190.54Z"/>
      <path class="f55aa812-460d-42e1-bc52-7b00164e5764" d="M469.89,103.49a367.39,367.39,0,0,0,31.38,22c28.84,18.1,70.84,38.88,96.17,26.08,0,0-1.85,19.94-17.71,28.89,0,0-3.73-6.29-8.87-9.93s-6.56-5.4-11.79-8.06-55.5-18.32-56.05-19-12.11-11.65-12.11-11.65l-5.36-6.21Z"/>
      <path class="ade8fb35-a178-42d7-9577-42022dd63b57" d="M423.49,130.59s31.47-39.11,79.53-4c0,0-3.16-5.8-4.25-7.43a21.29,21.29,0,0,0-4.73-5.27c-1.81-1.27,4.18,2-4.54-3.45s-9.08-5.73-11.44-7-10.17-4.31-10.17-4.31-2.18-1.77-6.54-.79-6.18.61-12,2.79-1.82-3.82-10.9,4.54-8.9,7.63-10.35,10.17a62.32,62.32,0,0,1-4.62,6.41l-3.55,6.67Z"/>
    </g>
    <g>
      <path class="b1260d4a-030a-4891-9708-1fe12dba3969" d="M319.35,138.93s4.69-13,43.89-1.08c0,0-20-18.47-34.11-15.21C329.13,122.64,315.55,125.9,319.35,138.93Z"/>
      <path class="b5345e56-c3b2-4132-82fb-4a3e8483b478" d="M316.76,168.32s4.85-42.38,33.73-16.45c0,0,4,3.8,3.79,17.71L329.41,166l-4.64,1.68Z"/>
      <path class="a92899cc-efb4-478e-b4dc-bd08bd4c0027" d="M325.73,146.83a12.28,12.28,0,0,1,6.58-4c.32-.07.64-.16,1-.22l1-.1c.33,0,.67-.07,1-.07l1,.05,1,.07,1,.21a10.57,10.57,0,0,1,1.93.52,19.74,19.74,0,0,1,6.64,4.1c.9.93,1.78,1.86,2.6,2.84s1.47,2.08,2.13,3.16c-1-.8-1.92-1.65-2.84-2.48l-2.88-2.32c-.52-.32-1-.65-1.53-1a9.76,9.76,0,0,0-1.54-.94c-.53-.27-1.05-.56-1.58-.84s-1.11-.42-1.66-.64a15.22,15.22,0,0,0-6.93-.81A17.11,17.11,0,0,0,325.73,146.83Z"/>
    </g>
    <path class="b62d9935-5cd7-4926-a21f-e5650c2098ad" d="M301.51,280.4s25.33-6.35,43.17-24l9.83,2.49s-1.34,16.47-2.57,20.32a40.93,40.93,0,0,1-14.6,16s-26.18,17.94-35.83-14.81"/>
    <path class="e05acaf0-5c37-431e-9221-5254a792153c" d="M364.24,263.14S437,285.45,427.72,241.6c0,0,17.57,36.82,57.29,21.61l-6.38,31.25c-.54,2.69-25.51-14.32-27.85-15.73L439,270.42s-23.91,18.54-74.19-1Z"/>
    <path class="a361a891-89b9-4d02-80db-ae80595c1104" d="M414.68,86.18s-72.26-47.46-112.45,35.05c0,0-17,5.23-20,21.52-2.22,12.18-168.66,112.9-99.82,223,0,0,2.51,4.59,19.24,27.55,0,0-5.51,25.63,3.29,20.84-8.68,11.64-10.16-8-6.67-12.62,2.24-3,.85-9.08-1.53-12-8.3-10-46.43-40.25-41.84-103.77,0,0,3.34-61.78,120.81-150,.58-.44-1.65-9.11,14.88-19.68,0,0,31.51-100.16,130.87-38.3,0,0,42.06-48.31,79.82,6,0,0,37.66,43.61,106.89,38.58,0,0-38,26.73-110.71-32.94,0,0-34.59-70.7-100.78,22.56Z"/>
    <g>
      <g>
        <path class="a92899cc-efb4-478e-b4dc-bd08bd4c0027" d="M200.32,202.28a29.76,29.76,0,0,1,14.29-2.23,39.28,39.28,0,0,1,14,4.07c1.08.58,2.18,1.13,3.26,1.72l3.07,2c.51.35,1,.67,1.52,1l1.41,1.19,2.76,2.42c1.69,1.77,3.31,3.6,4.87,5.46s2.8,4,4.1,6l-.16.12q-2.59-2.56-5-5.22l-2.61-2.46c-.87-.82-1.68-1.69-2.58-2.47l-2.72-2.28-1.34-1.18c-.45-.37-.95-.7-1.42-1.05L231,207.35c-1-.62-2-1.2-3.06-1.81a37.81,37.81,0,0,0-13.39-4.49,29.16,29.16,0,0,0-14.1,1.41Z"/>
        <path class="a361a891-89b9-4d02-80db-ae80595c1104" d="M209.06,204.29a45.66,45.66,0,0,1,10.72,2.57,65.63,65.63,0,0,1,10,4.7c.8.47,1.57,1,2.37,1.45l1.18.73,1.13.8c.75.54,1.52,1.07,2.25,1.62l2.12,1.81a50,50,0,0,1,3.94,3.9c1.23,1.37,2.37,2.83,3.47,4.3l-.11.1c-.71-.59-1.38-1.21-2.07-1.82s-1.31-1.27-2-1.84-1.38-1.18-2.08-1.77l-1-.89-1.07-.84-2.11-1.72-2.16-1.65-1.07-.84-1.12-.77c-.75-.51-1.48-1-2.25-1.54a62.78,62.78,0,0,0-9.66-5,45.25,45.25,0,0,0-10.45-3.12Z"/>
      </g>
      <g>
        <path class="a92899cc-efb4-478e-b4dc-bd08bd4c0027" d="M179.21,227.87a46.53,46.53,0,0,1,13.33-.88,45.48,45.48,0,0,1,13.11,3,43.66,43.66,0,0,1,6.1,3,32.45,32.45,0,0,1,5.44,4.1A36.08,36.08,0,0,1,225,248.06l-.17.11a69.93,69.93,0,0,0-9-9.55A48.18,48.18,0,0,0,205,231.5,44.58,44.58,0,0,0,192.44,228a46.27,46.27,0,0,0-13.19.07Z"/>
        <path class="a361a891-89b9-4d02-80db-ae80595c1104" d="M178.42,232.56a33.62,33.62,0,0,1,11.92-.09,43.84,43.84,0,0,1,11.45,3.61,51.91,51.91,0,0,1,5.24,3c.83.58,1.71,1.08,2.49,1.72l2.31,1.95c.37.34.77.65,1.11,1l1,1.09c.68.74,1.38,1.46,2,2.21,1.27,1.55,2.43,3.19,3.56,4.83l-.12.09c-.73-.69-1.42-1.4-2.13-2.09s-1.34-1.45-2.07-2.11-1.46-1.32-2.19-2l-1.08-1c-.36-.33-.76-.61-1.14-.92L208.57,242c-.75-.63-1.58-1.15-2.37-1.73a49.74,49.74,0,0,0-4.95-3.13,42.78,42.78,0,0,0-11-3.94,33.16,33.16,0,0,0-11.75-.5Z"/>
      </g>
      <g>
        <path class="a92899cc-efb4-478e-b4dc-bd08bd4c0027" d="M162.78,257.1a20.94,20.94,0,0,1,11.29-3.52A28.68,28.68,0,0,1,185.83,256a43.87,43.87,0,0,1,5.43,2.64,48.53,48.53,0,0,1,4.93,3.47c1.46,1.37,2.95,2.7,4.31,4.17s2.54,3.07,3.72,4.66l-.14.14q-2.37-1.83-4.55-3.78c-.75-.64-1.55-1.2-2.31-1.81l-2.28-1.82c-.77-.57-1.59-1.1-2.37-1.67l-1.16-.86a9.78,9.78,0,0,0-1.2-.82,37.13,37.13,0,0,0-5-2.86,27.58,27.58,0,0,0-11.12-2.85,20.36,20.36,0,0,0-11.17,2.68Z"/>
        <path class="a361a891-89b9-4d02-80db-ae80595c1104" d="M162.8,263.45a15.1,15.1,0,0,1,4.64-1.45,22.84,22.84,0,0,1,4.89-.2,28.54,28.54,0,0,1,9.45,2.56,38.36,38.36,0,0,1,4.38,2.23,48.13,48.13,0,0,1,4,2.8c1.21,1.1,2.45,2.17,3.58,3.34s2.16,2.43,3.16,3.71l-.1.1c-1.31-1-2.54-2-3.76-3s-2.55-1.94-3.8-2.93l-1.95-1.36c-.65-.44-1.25-1-1.95-1.36a35.65,35.65,0,0,0-4.09-2.41,27.63,27.63,0,0,0-9-2.89,21.65,21.65,0,0,0-4.76-.1,14.82,14.82,0,0,0-4.63,1.13Z"/>
      </g>
      <g>
        <path class="a92899cc-efb4-478e-b4dc-bd08bd4c0027" d="M152.76,297.86a56.29,56.29,0,0,1,9.14-4.69,39.86,39.86,0,0,1,10-2.63,25.35,25.35,0,0,1,5.3-.06,14.18,14.18,0,0,1,5.18,1.51,14,14,0,0,1,4.19,3.39,14.93,14.93,0,0,1,2.53,4.6l-.18.09a25.51,25.51,0,0,0-3.36-3.71,16.16,16.16,0,0,0-4-2.57,21.46,21.46,0,0,0-9.49-1.65,38.55,38.55,0,0,0-9.83,2,55.93,55.93,0,0,0-9.37,3.92Z"/>
        <path class="a361a891-89b9-4d02-80db-ae80595c1104" d="M158,298.91a11.68,11.68,0,0,1,3.41-1.64c.59-.23,1.22-.33,1.83-.5s1.25-.21,1.88-.3a27.2,27.2,0,0,1,7.59.35c1.27.18,2.49.52,3.73.81a34.68,34.68,0,0,1,3.59,1.26c1.14.57,2.28,1.12,3.37,1.75s2.12,1.39,3.13,2.14l-.08.13c-1.2-.4-2.37-.83-3.51-1.32s-2.33-.85-3.47-1.31a71.46,71.46,0,0,0-7-2.28,25.6,25.6,0,0,0-7.29-.78c-.61,0-1.23.09-1.84.15s-1.22.16-1.81.33a11.7,11.7,0,0,0-3.44,1.33Z"/>
      </g>
      <g>
        <path class="a92899cc-efb4-478e-b4dc-bd08bd4c0027" d="M161.16,334.15a18.88,18.88,0,0,1,5.62-5.95,17.75,17.75,0,0,1,7.82-2.9,18.24,18.24,0,0,1,8.36,1,27.77,27.77,0,0,1,3.74,1.87,34,34,0,0,1,3.25,2.57l-.11.17c-1.32-.44-2.56-1-3.77-1.49-.64-.19-1.26-.41-1.89-.62a13.48,13.48,0,0,0-1.86-.61,38.53,38.53,0,0,0-3.75-.9,17.07,17.07,0,0,0-3.84-.37,16.67,16.67,0,0,0-7.43,2.16,19.08,19.08,0,0,0-6,5.21Z"/>
        <path class="a361a891-89b9-4d02-80db-ae80595c1104" d="M168.09,335.78a25.85,25.85,0,0,1,9.43-3.73,14.41,14.41,0,0,1,5.2-.12,10,10,0,0,1,4.65,2.29l-.07.13a30.86,30.86,0,0,0-9.63-1.11,25.91,25.91,0,0,0-4.83.93,30.26,30.26,0,0,0-4.68,1.74Z"/>
      </g>
    </g>
    <path class="ffb519cd-5adc-425c-996f-678b5ec50dfb" d="M209.28,293.87c7.88-7.61,26.63-14.27,70.64-16.58A67.65,67.65,0,0,0,302,272.4c10.29-4.22,25.07-11.13,35.06-19.47l7,3.31s-11.4,12.9-37.32,22.76c-39.06,11.09-51.82,1.88-89.52,16.64C166.64,343,220.49,387,228.13,400.75c3.87,2.27-.8,14.06-14.36,5.15,0,0,14.87.2,4.6-12.07C202.9,375.37,173.82,328.09,209.28,293.87Z"/>
    <path class="a92899cc-efb4-478e-b4dc-bd08bd4c0027" d="M330.13,250.41q5.36,2.15,10.77,3.91c3.62,1.17,7.27,2.23,11,3.1s7.4,1.64,11.15,2.2,7.54.87,11.39,1.23a55.15,55.15,0,0,1-11.56.32l-1.45-.09L360,260.9l-2.88-.38c-1.9-.36-3.81-.68-5.69-1.16a76.19,76.19,0,0,1-11-3.58A57.63,57.63,0,0,1,330.13,250.41Z"/>
  </g>
</svg>
