<svg id="ada5cf14-ac3a-4697-bc12-7ef23965055f" data-name="Layer 1" xmlns="http://www.w3.org/2000/svg" width="177.36" height="280" viewBox="0 0 177.36 280">
  <defs>
    <style>
      .a802650b-4505-41c9-bd83-9045205f943a, .fa13e3a1-0793-4761-8063-ecc02ec4ec0f {
        fill: #ffe309;
        stroke-width: 0.75px;
      }

      .a802650b-4505-41c9-bd83-9045205f943a {
        stroke: #665608;
      }

      .a802650b-4505-41c9-bd83-9045205f943a, .ac729eb6-c691-4a5a-a5c9-a3dc4d435044, .fa13e3a1-0793-4761-8063-ecc02ec4ec0f {
        stroke-miterlimit: 10;
      }

      .fa13e3a1-0793-4761-8063-ecc02ec4ec0f {
        stroke: #493c05;
      }

      .be132fbb-97c7-47a2-bd1f-03223f3c62d1 {
        fill: #ecc516;
      }

      .ac729eb6-c691-4a5a-a5c9-a3dc4d435044 {
        fill: #532900;
        stroke: #3a1c03;
      }

      .b8d63bcd-a3dd-483a-a71f-60e9ab459c51 {
        fill: #681a1a;
      }

      .b741e23c-6d2d-407b-8557-252b4f8dc897 {
        fill: #ef7089;
      }

      .a19fde3a-b2b5-4352-9fa2-64720ae9c0dd {
        fill: #ff5763;
      }

      .f9d79397-2265-436a-80e7-d5321a92a32a {
        fill: #fff;
      }

      .ec2c72f3-50d4-4e06-ac83-0e5b339ab719 {
        fill: #ef304c;
      }

      .bf250591-e953-40fe-8bfc-6af22720f24f {
        fill: #ffa979;
      }
    </style>
  </defs>
  <g>
    <path class="a802650b-4505-41c9-bd83-9045205f943a" d="M89.11,233.33s7.12-.16,6.67,7.75-3.84,13.4,3.71,15.61,15.91,3.89,18.12-3.66-8.69-9.07-6.83-14.87,2.31-17.14-11.44-19.23S89.11,233.33,89.11,233.33Z"/>
    <g>
      <path class="a802650b-4505-41c9-bd83-9045205f943a" d="M43.54,71.68S32.9,70.07,23.46,47.06,29.5.33,41.91.89,53,11.9,40.73,18.2,24.93,53,47.16,69.13C47.16,69.13,59.17,82.58,43.54,71.68Z"/>
      <path class="a802650b-4505-41c9-bd83-9045205f943a" d="M79.67,75.68S77.89,56,82.6,43.3s19.43-40.43,38-33.08c0,0,5.32,4.19,2.74,9s-7.6,6-12.33,3S78.12,39.85,84.44,74.89C84.44,74.89,83.1,84.45,79.67,75.68Z"/>
      <path class="a802650b-4505-41c9-bd83-9045205f943a" d="M94.86,157.68s3.83,4.28,31.55-3.31c0,0,11.35-2.81,17-6.45s18.89-9.38,22.69-7.07,3.22,6.86-4,7l-7,1.1s8.43-.59,7.26,8.89-10.33-3.35-10.33-3.35l5.37,7.28s-3.58,7-11.9-2.75c0,0-1.51,4.92-19,12.31s-37.49,8-37.49,8Z"/>
      <path class="fa13e3a1-0793-4761-8063-ecc02ec4ec0f" d="M96.63,149.5c6,8.93,9.83,17.74,11.31,26.64a51.48,51.48,0,0,1-.55,19.68h0a65.45,65.45,0,0,1-5.07,14.39c-.42.87-.86,1.74-1.32,2.57a69.15,69.15,0,0,1-12.64,16.73c-9.92,9.73-21.6,15.83-30.88,19.69-2.22.93-4.31,1.71-6.18,2.4-14.1,5.18-20,13.36-20,13.36,1.33-8.22-3.15-16.26-7.69-25.14-4.17-8.09-8.39-16.88-8.26-27.14,0-.53,0-1.06,0-1.61A45.58,45.58,0,0,1,17,201.54,61.68,61.68,0,0,1,22.54,188a3.79,3.79,0,0,1,.2-.34,82.09,82.09,0,0,1,7.62-11.28,64.86,64.86,0,0,1,5.43-6.1c12.42-11.79,7-24,7-24l45.74-7.4A122.14,122.14,0,0,1,96.63,149.5Z"/>
      <path class="be132fbb-97c7-47a2-bd1f-03223f3c62d1" d="M94.83,148.58c-3.91,6.94-10.24,13.08-18.64,19.52C58.8,181.45,39.55,185.89,32,178.58a64.17,64.17,0,0,1,6.23-9.78,50.16,50.16,0,0,1,4.5-5.25c10.38-10.05,5.18-21.19,5.18-21.19l39.63-4.85C90.29,140.82,92.63,145.34,94.83,148.58Z"/>
      <path class="ac729eb6-c691-4a5a-a5c9-a3dc4d435044" d="M57.7,248.39c-2.21.93-4.55,2.53-6.42,3.22-14.1,5.18-20,13.36-20,13.36,1.33-8.22-3.35-17.41-7.88-26.29C28.65,243.91,40,251.71,57.7,248.39Z"/>
      <path class="ac729eb6-c691-4a5a-a5c9-a3dc4d435044" d="M107.94,176.14a51.48,51.48,0,0,1-.55,19.68h0c-6.88,5.28-21.69,13.14-47.52,11.37C44,206.1,31.59,197.59,22.54,188a82.85,82.85,0,0,1,7.82-11.62c7.24,7.47,20.75,17.47,40,15.72C89.15,190.39,101.41,182.09,107.94,176.14Z"/>
      <path class="ac729eb6-c691-4a5a-a5c9-a3dc4d435044" d="M101,212.79a69.15,69.15,0,0,1-12.64,16.73c-8.87,4.91-22.43,10.2-37.08,7.7-17.9-3-28.55-13.9-35.91-24.53,0-.53,0-1.06,0-1.61A45.58,45.58,0,0,1,17,201.54c6.34,7.82,18.74,19.63,36.48,20.48C74.41,223,93.7,215.88,101,212.79Z"/>
      <g>
        <path class="a802650b-4505-41c9-bd83-9045205f943a" d="M127.33,134.23c-1.63,23.67-23,35.86-47.84,39.09a.12.12,0,0,1-.08,0,113.87,113.87,0,0,1-25,.37C20.7,170.57,4.86,151.21,9.9,117.24c3.77-25.54,20.5-49,45-55a52.21,52.21,0,0,1,17.31-1.2C105.93,64.22,129.75,99.17,127.33,134.23Z"/>
        <path class="be132fbb-97c7-47a2-bd1f-03223f3c62d1" d="M81.4,172.54a114.5,114.5,0,0,1-25,.34c-33.73-3.13-49.58-22.34-44.58-56C15.6,91.58,32.3,68.33,56.76,62.46c-11,6.39-31.92,22.68-34.19,55.08C19.62,159.62,52.93,173.55,81.4,172.54Z"/>
        <g>
          <g>
            <g>
              <g>
                <path class="b8d63bcd-a3dd-483a-a71f-60e9ab459c51" d="M103.26,137.06s-1,11.23-7.24,19.17a19.8,19.8,0,0,1-6.14,5.41c-9.23,5.13-20.34,3.68-27.23-7.18-.17-.23-.3-.47-.45-.71a39.15,39.15,0,0,1-4.12-10.08s20.33,4.7,38.58-3.13A44.9,44.9,0,0,0,103.26,137.06Z"/>
                <path class="b741e23c-6d2d-407b-8557-252b4f8dc897" d="M103.29,137a30.41,30.41,0,0,1-.48,3.79c-.23,1.24-.49,2.48-.82,3.7a41.92,41.92,0,0,1-2.55,7.17,29.28,29.28,0,0,1-4.2,6.41,19.48,19.48,0,0,1-6.12,4.73,20.48,20.48,0,0,1-15.2,1.68A19.69,19.69,0,0,1,67,160.79a25.37,25.37,0,0,1-5.14-5.85l0,.06a27.63,27.63,0,0,1-1.53-2.69c-.45-.9-.87-1.81-1.25-2.74a44,44,0,0,1-1.87-5.69l-.34-1.31,1.33.28a70.13,70.13,0,0,0,11.43,1.38,74.4,74.4,0,0,0,11.56-.3,62.76,62.76,0,0,0,11.34-2.27c.94-.25,1.83-.62,2.75-.93s1.82-.65,2.71-1A53.64,53.64,0,0,0,103.29,137Zm-.05.08a37.67,37.67,0,0,1-5.07,2.82c-.88.43-1.78.8-2.69,1.14s-1.81.73-2.74,1a58.51,58.51,0,0,1-11.4,2.53,73.38,73.38,0,0,1-11.67.48,71,71,0,0,1-11.61-1.33l.11-.11A43.37,43.37,0,0,0,60,149.21a31.88,31.88,0,0,0,2.69,5.19h0a25.22,25.22,0,0,0,4.91,5.64,18.58,18.58,0,0,0,6.54,3.57,19.94,19.94,0,0,0,14.59-1.5,18.77,18.77,0,0,0,6-4.47A28.49,28.49,0,0,0,99,151.43,46.28,46.28,0,0,0,103.24,137.1Z"/>
              </g>
              <path class="a19fde3a-b2b5-4352-9fa2-64720ae9c0dd" d="M92.54,155.49c2.15,3.51-1.18,5.19-3.41,6.48-8.31,4.81-20.42,2.07-26.58-8,2.06-1.28,5.64-2.18,11.77-1C74.32,152.92,85.85,149.49,92.54,155.49Z"/>
              <path class="f9d79397-2265-436a-80e7-d5321a92a32a" d="M84.91,154.35A39.83,39.83,0,0,1,74.48,156a16.13,16.13,0,0,1-15.93-11.76l0-.12s19.8,4.87,38.06-3C97.42,146,95.57,151.19,84.91,154.35Z"/>
            </g>
            <path class="ec2c72f3-50d4-4e06-ac83-0e5b339ab719" d="M55.57,137.26a5.3,5.3,0,0,1,.9,2.06,5.39,5.39,0,0,1,0,2.33,3.88,3.88,0,0,1-1.3,2,4.26,4.26,0,0,1-1,.58,5.52,5.52,0,0,1-1.1.27l0,0a5.46,5.46,0,0,0,1.86-1.1A3.63,3.63,0,0,0,56,141.52a5.56,5.56,0,0,0,.12-2.15,7.86,7.86,0,0,0-.55-2.09Z"/>
            <path class="ec2c72f3-50d4-4e06-ac83-0e5b339ab719" d="M106.56,139.19a4.5,4.5,0,0,1-1.8-.69,6.22,6.22,0,0,1-1.44-1.32,5.41,5.41,0,0,1-.85-1.78,4.45,4.45,0,0,1-.07-1.92h0a6.82,6.82,0,0,0,.39,1.79,5.87,5.87,0,0,0,.88,1.61,7.12,7.12,0,0,0,2.86,2.26Z"/>
          </g>
          <ellipse class="bf250591-e953-40fe-8bfc-6af22720f24f" cx="41.7" cy="135.47" rx="6.72" ry="9.58" transform="translate(-97.05 164.44) rotate(-84.68)"/>
          <ellipse class="bf250591-e953-40fe-8bfc-6af22720f24f" cx="116.94" cy="124.32" rx="9.58" ry="6.72" transform="translate(-33.2 43.15) rotate(-18.35)"/>
        </g>
      </g>
      <path class="a802650b-4505-41c9-bd83-9045205f943a" d="M27.21,183.37s-1.39-6.52,4-9,17,8.22,22.33,16.69,17.66,6.83,17.66,6.83,3.73-11.48,8.2-9.78-.56,10.43-.56,10.43,7.2-2.54,9.3-8.34c0,0,4.49-1.62,3.69,5l-4.78,5.37,5.5-4.94s3,2.8-4.42,10.68S53.51,211.44,35,195.49C35,195.49,29.15,190.6,27.21,183.37Z"/>
      <path class="a802650b-4505-41c9-bd83-9045205f943a" d="M35.48,239.2a5.48,5.48,0,0,1,4.38-8.7,12,12,0,0,1,8.08,2.6c5.34,4.49,10.73,12.35,8.53,20.86s4.8,11.52,9,13.85,4.3,10.89-5.56,11.28c0,0-13.18,1.12-19.47-9.37,0,0-3.71-4-.51-16.6C41.93,245.39,37.9,242.46,35.48,239.2Z"/>
    </g>
  </g>
</svg>
