<svg id="bf940104-fee8-4c26-b75a-412b51bcf711" data-name="Layer 1" xmlns="http://www.w3.org/2000/svg" width="135.32" height="88.97" viewBox="0 0 135.32 88.97">
  <defs>
    <style>
      .b71b0131-2134-43a2-90fc-f6a33b29e52a {
        fill: #fff;
      }

      .b3231b6b-8db7-49e7-b77f-5aab9012c38b {
        fill: #702840;
      }

      .ebea4ed4-8e95-4bb6-9727-8c25be056534 {
        fill: #210a11;
      }

      .e88cbe36-6e00-4599-a4b8-d13f27f01798 {
        fill: #ecc516;
      }
    </style>
  </defs>
  <g>
    <g>
      <g>
        <g>
          <ellipse class="b71b0131-2134-43a2-90fc-f6a33b29e52a" cx="90.19" cy="56.24" rx="27.65" ry="20.39" transform="translate(25.68 140.72) rotate(-84.58)"/>
          <path class="b3231b6b-8db7-49e7-b77f-5aab9012c38b" d="M87.29,83.69c6.39.69,12.43-3,16.23-7.9a34.79,34.79,0,0,0,3.17-35.45c-6.3-12.79-20.44-14.53-29.36-3.27a34.75,34.75,0,0,0-4.18,35.34c2.69,5.61,7.76,10.5,14.14,11.28Zm0,.1c-6.44-.74-11.59-5.64-14.34-11.28a35.3,35.3,0,0,1,3.71-36C86,24.63,100.91,26.44,107.46,40a35.31,35.31,0,0,1-3.75,36c-3.87,5-10,8.6-16.43,7.85Z"/>
        </g>
        <ellipse class="ebea4ed4-8e95-4bb6-9727-8c25be056534" cx="89.01" cy="59.27" rx="12.45" ry="9.24" transform="translate(15.65 137.08) rotate(-80.35)"/>
        <ellipse class="b71b0131-2134-43a2-90fc-f6a33b29e52a" cx="85.39" cy="51.83" rx="3.42" ry="2.54" transform="translate(19.97 127.32) rotate(-80.35)"/>
      </g>
      <g>
        <g>
          <ellipse class="b71b0131-2134-43a2-90fc-f6a33b29e52a" cx="34.91" cy="45.64" rx="25.15" ry="18.54" transform="translate(-19.32 64.64) rotate(-71.9)"/>
          <path class="b3231b6b-8db7-49e7-b77f-5aab9012c38b" d="M26.86,69.41c5.53,1.89,11.61-.15,16-3.77a31.6,31.6,0,0,0,9.82-30.8C49.62,22.3,37.49,18,27.37,26.11A31.56,31.56,0,0,0,16.58,56.58c1.25,5.52,4.77,10.86,10.28,12.83Zm0,.09c-5.56-1.94-9.16-7.31-10.47-12.86a32.13,32.13,0,0,1,10.48-31.2c10.64-8.7,23.55-4.11,26.66,9.2A32.1,32.1,0,0,1,43,65.82c-4.41,3.62-10.58,5.63-16.15,3.68Z"/>
        </g>
        <ellipse class="ebea4ed4-8e95-4bb6-9727-8c25be056534" cx="34.78" cy="50.4" rx="11.32" ry="8.41" transform="translate(-22.51 72.03) rotate(-76.08)"/>
        <ellipse class="b71b0131-2134-43a2-90fc-f6a33b29e52a" cx="32" cy="43.4" rx="3.11" ry="2.31" transform="translate(-17.83 64.02) rotate(-76.08)"/>
      </g>
      <path class="ebea4ed4-8e95-4bb6-9727-8c25be056534" d="M50.06,10.64s-8.37-1.77-20.8,4.82C29.26,15.46,50.06-4.57,50.06,10.64Z"/>
      <path class="ebea4ed4-8e95-4bb6-9727-8c25be056534" d="M84.49,12s9.37,1,20.57,11.36C105.06,23.31,89-2.6,84.49,12Z"/>
    </g>
    <path class="e88cbe36-6e00-4599-a4b8-d13f27f01798" d="M108.2,67s-13.89-22.56-38-6.83C68.17,42.8,86.34,17,103.64,35.74,109.45,41.42,112.45,55.85,108.2,67Z"/>
    <path class="e88cbe36-6e00-4599-a4b8-d13f27f01798" d="M49.64,57S37,40.18,16.32,45.25c.21-2.72,6.82-27.44,26.07-22.73C53,26.36,57.3,42.19,49.64,57Z"/>
  </g>
</svg>
