<svg id="bef2370f-d85d-46c1-a465-933c230a78c8" data-name="Layer 1" xmlns="http://www.w3.org/2000/svg" width="104" height="68" viewBox="0 0 104 68">
  <defs>
    <style>
      .a819f1d9-d021-4f4b-834f-17e0a37856c9 {
        fill: #fff;
      }

      .b957a7cc-8e6e-4982-ab11-db9286e09d18 {
        fill: #702840;
      }

      .a92ab8b6-24dc-4201-97fb-f54fa31253dd {
        fill: #210a11;
      }

      .f25092db-7b9b-4436-aca9-5d8cdead9130 {
        fill: #ecc516;
      }
    </style>
  </defs>
  <g>
    <g>
      <g>
        <g>
          <ellipse class="a819f1d9-d021-4f4b-834f-17e0a37856c9" cx="24.94" cy="37.82" rx="20.39" ry="27.65" transform="translate(-3.46 2.52) rotate(-5.42)"/>
          <path class="b957a7cc-8e6e-4982-ab11-db9286e09d18" d="M27.86,65.37a16.33,16.33,0,0,1-9.23-1.74,22.39,22.39,0,0,1-7.29-6A34.53,34.53,0,0,1,4.2,40.09,34.83,34.83,0,0,1,7.05,21.23,23.75,23.75,0,0,1,13,13.48a17.29,17.29,0,0,1,9-4,17.07,17.07,0,0,1,9.66,1.93A23.33,23.33,0,0,1,39,17.68a34.49,34.49,0,0,1,6.66,17.88,34.9,34.9,0,0,1-3.39,18.59,23,23,0,0,1-5.83,7.46A16.57,16.57,0,0,1,27.86,65.37Zm0-.1a16.48,16.48,0,0,0,8.52-3.79A22.89,22.89,0,0,0,42.08,54a34.15,34.15,0,0,0,3.05-18.43,33.85,33.85,0,0,0-6.79-17.39,22.16,22.16,0,0,0-7.18-6,16.1,16.1,0,0,0-9.11-1.77,16.35,16.35,0,0,0-8.5,3.77,22.71,22.71,0,0,0-5.72,7.42A34.31,34.31,0,0,0,4.75,40a34,34,0,0,0,6.77,17.4,22.33,22.33,0,0,0,7.18,6A16.13,16.13,0,0,0,27.84,65.27Z"/>
        </g>
        <ellipse class="a92ab8b6-24dc-4201-97fb-f54fa31253dd" cx="26.13" cy="40.85" rx="9.24" ry="12.45" transform="translate(-6.48 4.96) rotate(-9.65)"/>
        <ellipse class="a819f1d9-d021-4f4b-834f-17e0a37856c9" cx="29.74" cy="33.41" rx="2.54" ry="3.42" transform="matrix(0.99, -0.17, 0.17, 0.99, -5.18, 5.46)"/>
      </g>
      <g>
        <g>
          <ellipse class="a819f1d9-d021-4f4b-834f-17e0a37856c9" cx="80.22" cy="27.22" rx="18.54" ry="25.15" transform="translate(-4.49 26.27) rotate(-18.1)"/>
          <path class="b957a7cc-8e6e-4982-ab11-db9286e09d18" d="M88.31,51.09a14.88,14.88,0,0,1-8.54.3,20.34,20.34,0,0,1-7.68-3.9,31.51,31.51,0,0,1-9.86-14.1A31.63,31.63,0,0,1,61,16.06,21.64,21.64,0,0,1,64.67,8a15.87,15.87,0,0,1,7.19-5.41,15.68,15.68,0,0,1,9-.21,21.16,21.16,0,0,1,7.88,4.14,31.28,31.28,0,0,1,9.47,14.57,31.71,31.71,0,0,1,.68,17.19A21,21,0,0,1,95.2,46,15,15,0,0,1,88.31,51.09Zm0-.1a14.92,14.92,0,0,0,6.79-5.06,20.69,20.69,0,0,0,3.59-7.74,31.19,31.19,0,0,0-1-17A30.88,30.88,0,0,0,88.2,7.16a20.27,20.27,0,0,0-7.57-3.91A14.07,14.07,0,0,0,65.41,8.54a20.7,20.7,0,0,0-3.6,7.72,31.19,31.19,0,0,0,.95,17,30.81,30.81,0,0,0,9.48,14.09,20.44,20.44,0,0,0,7.57,3.92A14.72,14.72,0,0,0,88.28,51Z"/>
        </g>
        <ellipse class="a92ab8b6-24dc-4201-97fb-f54fa31253dd" cx="80.35" cy="31.98" rx="8.41" ry="11.32" transform="translate(-5.33 20.27) rotate(-13.92)"/>
        <ellipse class="a819f1d9-d021-4f4b-834f-17e0a37856c9" cx="83.13" cy="24.99" rx="2.31" ry="3.11" transform="translate(-3.57 20.74) rotate(-13.92)"/>
      </g>
    </g>
    <ellipse class="f25092db-7b9b-4436-aca9-5d8cdead9130" cx="24.96" cy="37.77" rx="20.39" ry="27.65" transform="translate(-3.46 2.53) rotate(-5.42)"/>
    <ellipse class="f25092db-7b9b-4436-aca9-5d8cdead9130" cx="80.24" cy="27.17" rx="18.54" ry="25.15" transform="translate(-4.47 26.28) rotate(-18.1)"/>
  </g>
</svg>
