<svg id="bca16ee0-cca9-4a3b-a8fb-63f874ef911b" data-name="Layer 1" xmlns="http://www.w3.org/2000/svg" width="120" height="120" viewBox="0 0 120 120">
  <defs>
    <style>
      .ab12404c-3ce3-4668-bd2f-c952af746ace, .b4481f55-ca04-4fed-8642-b50f1c0eaec8 {
        fill: #ffe309;
      }

      .b4481f55-ca04-4fed-8642-b50f1c0eaec8, .e0a613d7-4ded-4fbd-9a5c-c10a7bdeee65 {
        stroke: #665608;
      }

      .a23d3706-695b-42a4-8f09-99cb0a8f7f87, .ab12404c-3ce3-4668-bd2f-c952af746ace, .b4481f55-ca04-4fed-8642-b50f1c0eaec8, .e0a613d7-4ded-4fbd-9a5c-c10a7bdeee65 {
        stroke-miterlimit: 10;
      }

      .ab12404c-3ce3-4668-bd2f-c952af746ace, .b4481f55-ca04-4fed-8642-b50f1c0eaec8, .e0a613d7-4ded-4fbd-9a5c-c10a7bdeee65 {
        stroke-width: 0.75px;
      }

      .aa52430f-4b0b-403e-86f1-c397b06e35a3 {
        fill: #bcfde5;
      }

      .b1d99300-4524-4f67-b135-8384486a6296 {
        fill: #ebf7f2;
      }

      .ab12404c-3ce3-4668-bd2f-c952af746ace {
        stroke: #493c05;
      }

      .b0e8f66e-9ff9-4a1a-8444-c9c87a235ce3 {
        fill: #ecc516;
      }

      .a23d3706-695b-42a4-8f09-99cb0a8f7f87 {
        fill: #532900;
        stroke: #3a1c03;
      }

      .e150f476-8a33-41e6-9a6d-000f7171b25a {
        fill: #fff;
      }

      .b4f1ff0d-9a0a-4739-b035-76795316a047 {
        fill: #702840;
      }

      .f6ca9d21-141a-4bb7-a669-eb010869d9c1 {
        fill: #210a11;
      }

      .aa2d1f19-a392-4eb6-bad6-8533418cb5ef {
        fill: #681a1a;
      }

      .a2cd34bf-60ce-4ffa-8f05-3ffa174d1851 {
        fill: #ef7089;
      }

      .be80ae66-08db-4959-bb5a-e3f7a38e8b73 {
        fill: #ff5763;
      }

      .e38b45ec-244c-4653-b993-164d7e38949a {
        fill: #ef304c;
      }

      .bd159303-fd21-4429-ae5f-d6afb535a5de {
        fill: #ffa979;
      }

      .e0a613d7-4ded-4fbd-9a5c-c10a7bdeee65 {
        fill: none;
      }
    </style>
  </defs>
  <g>
    <g>
      <g>
        <path class="b4481f55-ca04-4fed-8642-b50f1c0eaec8" d="M30.47,95.13s.14,3.68-4,3.51-7-1.89-8,2-1.89,8.25,2,9.34,4.62-4.57,7.63-3.65S37,107.43,38,100.31,30.47,95.13,30.47,95.13Z"/>
        <g>
          <path class="aa52430f-4b0b-403e-86f1-c397b06e35a3" d="M57.69,68.47C49.89,69.53,45.67,51.4,44,39.1s1.85-23.53,9.65-24.58,11.5,9.77,13.17,22.07S65.49,67.41,57.69,68.47Z"/>
          <path class="b1d99300-4524-4f67-b135-8384486a6296" d="M57.69,68.52a5.2,5.2,0,0,1-3.77-1,11.08,11.08,0,0,1-2.69-2.94,32.41,32.41,0,0,1-3.38-7.2,97.07,97.07,0,0,1-3.92-15.42,42.9,42.9,0,0,1-.4-16,20.89,20.89,0,0,1,3-7.63,13,13,0,0,1,1.32-1.66c.23-.27.53-.48.79-.73a6,6,0,0,1,.85-.66,9.62,9.62,0,0,1,4-1.6,8.41,8.41,0,0,1,4.36.66A10.15,10.15,0,0,1,61.24,17a23,23,0,0,1,3.69,7.31,56.07,56.07,0,0,1,1.82,7.82,68.23,68.23,0,0,1,.88,8A60.68,60.68,0,0,1,66.16,56a30.84,30.84,0,0,1-2.64,7.5,13.49,13.49,0,0,1-2.33,3.23A6.3,6.3,0,0,1,57.69,68.52Zm0-.1a6.05,6.05,0,0,0,3.41-1.82,12.74,12.74,0,0,0,2.28-3.21,30.84,30.84,0,0,0,2.56-7.47,59.22,59.22,0,0,0,1.15-15.77,67.07,67.07,0,0,0-1-7.86,58.34,58.34,0,0,0-1.94-7.68,22,22,0,0,0-3.59-7,9.17,9.17,0,0,0-3-2.45,7.46,7.46,0,0,0-3.82-.56A8.89,8.89,0,0,0,50.06,16a4.15,4.15,0,0,0-.78.6,7.5,7.5,0,0,0-.73.66,12,12,0,0,0-1.23,1.52,20,20,0,0,0-2.94,7.28,42.77,42.77,0,0,0,.1,15.75,95,95,0,0,0,3.59,15.44,32.65,32.65,0,0,0,3.3,7.18A10.94,10.94,0,0,0,54,67.38,5,5,0,0,0,57.68,68.42Z"/>
        </g>
        <g>
          <path class="aa52430f-4b0b-403e-86f1-c397b06e35a3" d="M56.14,65.67c-4.45,6.49-20.71-2.56-30.95-9.59S9,38.91,13.46,32.42s15-2,25.2,5.08S60.6,59.18,56.14,65.67Z"/>
          <path class="b1d99300-4524-4f67-b135-8384486a6296" d="M56.18,65.7a5.1,5.1,0,0,1-3.3,2.1,11.09,11.09,0,0,1-4,0,33.09,33.09,0,0,1-7.6-2.33A99.51,99.51,0,0,1,27.24,58,43,43,0,0,1,15.11,47.57a20.87,20.87,0,0,1-3.63-7.36,13.2,13.2,0,0,1-.34-2.09,9.71,9.71,0,0,1,0-1.08A4.78,4.78,0,0,1,11.21,36a9.69,9.69,0,0,1,1.52-4.07,8.47,8.47,0,0,1,3.43-2.78,10.29,10.29,0,0,1,4.26-.64,23.08,23.08,0,0,1,7.89,2.19,53.79,53.79,0,0,1,7,3.9,70.78,70.78,0,0,1,6.49,4.69A60.49,60.49,0,0,1,52.57,51a30.91,30.91,0,0,1,3.79,7,13.3,13.3,0,0,1,.82,3.9A6.18,6.18,0,0,1,56.18,65.7Zm-.08-.06a6.17,6.17,0,0,0,.95-3.75,13.1,13.1,0,0,0-.85-3.84,30.69,30.69,0,0,0-3.82-6.91A58.91,58.91,0,0,0,41.47,39.69,66.17,66.17,0,0,0,35,35.18a56.37,56.37,0,0,0-7-3.72,22.25,22.25,0,0,0-7.59-2.05,9.32,9.32,0,0,0-3.85.6,7.49,7.49,0,0,0-3,2.46,8.7,8.7,0,0,0-1.38,3.63,4.58,4.58,0,0,0-.08,1,8,8,0,0,0,0,1,11.51,11.51,0,0,0,.3,1.94,20.17,20.17,0,0,0,3.42,7.07,42.56,42.56,0,0,0,11.74,10.5,94.62,94.62,0,0,0,13.84,7.71,32.41,32.41,0,0,0,7.54,2.38,10.82,10.82,0,0,0,3.93,0A5,5,0,0,0,56.1,65.64Z"/>
        </g>
        <g>
          <path class="b4481f55-ca04-4fed-8642-b50f1c0eaec8" d="M67.46,79.6s-2.09,2.11,2.68,16.18c0,0,1.8,5.78,3.85,8.56s3.55,8.43,2.47,10.45-3.62,3.17-3.89-.54l1.27-3.81s.56,4.34-4.37,4S70.89,109,70.89,109l-3.59,3s-3.73-1.64,1-6.23c0,0-2.59-.63-6.94-9.44a61.75,61.75,0,0,1-5.27-19.1Z"/>
          <path class="ab12404c-3ce3-4668-bd2f-c952af746ace" d="M77.65,92.06a35.07,35.07,0,0,1-11.29,9.82,26.5,26.5,0,0,1-9.77,2.88h0a33.44,33.44,0,0,1-7.89-.19c-.49-.06-1-.14-1.47-.24A35.87,35.87,0,0,1,37,100.79a50.26,50.26,0,0,1-14.62-12c-.82-.94-1.54-1.84-2.18-2.65-4.8-6.1-9.76-7.68-9.76-7.68,4.25-.67,7.49-4.16,11.13-7.81,3.31-3.34,7-6.83,12-8.4.26-.09.52-.17.8-.24a23.47,23.47,0,0,1,4.94-.76,32,32,0,0,1,7.55.58l.19,0a43.26,43.26,0,0,1,6.77,2,32.62,32.62,0,0,1,3.87,1.69c7.79,4.22,12.93-.41,12.93-.41l11,21.31A62.92,62.92,0,0,1,77.65,92.06Z"/>
          <path class="b0e8f66e-9ff9-4a1a-8444-c9c87a235ce3" d="M77.82,91c-4-.81-8.07-2.94-12.59-6C55.89,78.57,50.62,69.81,53,64.92a34,34,0,0,1,5.81,1.49,26.75,26.75,0,0,1,3.3,1.38c6.61,3.5,11.25-.85,11.25-.85l8.73,18.71C80.9,87.55,79.05,89.43,77.82,91Z"/>
          <path class="a23d3706-695b-42a4-8f09-99cb0a8f7f87" d="M22.8,88.74c-.82-.94-2-1.83-2.62-2.64-4.8-6.1-9.76-7.68-9.76-7.68,4.25-.67,8-4.44,11.67-8.09C20.35,73.74,18.33,80.59,22.8,88.74Z"/>
          <path class="a23d3706-695b-42a4-8f09-99cb0a8f7f87" d="M66.36,101.88a26.5,26.5,0,0,1-9.77,2.88h0c-3.7-2.53-9.93-8.56-13.19-21.54-2-8,.2-15.43,3.46-21.42a43,43,0,0,1,7,2c-2.51,4.75-5.27,13-1.33,22.16A33,33,0,0,0,66.36,101.88Z"/>
          <path class="a23d3706-695b-42a4-8f09-99cb0a8f7f87" d="M47.23,104.32A35.87,35.87,0,0,1,37,100.79c-3.84-3.58-8.61-9.4-9.72-17-1.38-9.29,2.26-16.26,6.31-21.58.26-.09.52-.17.8-.24a23.47,23.47,0,0,1,4.94-.76c-2.83,4.37-6.65,12.35-4.23,21.21C38,92.9,44.54,101.24,47.23,104.32Z"/>
          <g>
            <path class="b4481f55-ca04-4fed-8642-b50f1c0eaec8" d="M73.47,39.94S68,38.75,63.91,26.57,68.56,2.66,75,3.35s5.35,6.05-1.17,8.9-9.3,17.43,1.64,26.49C75.42,38.74,81.17,46.07,73.47,39.94Z"/>
            <path class="b4481f55-ca04-4fed-8642-b50f1c0eaec8" d="M90.3,42.3S91.07,32.11,94.55,26s13.36-19,22.21-13.63c0,0,2.36,2.59.64,4.8a4.22,4.22,0,0,1-6.55.46c-2.15-1.94-18.29,6.23-18,24.64C92.8,42.3,91.3,47.06,90.3,42.3Z"/>
            <g>
              <path class="b4481f55-ca04-4fed-8642-b50f1c0eaec8" d="M109.29,79.84c-2.57,12-14.4,16.68-27.35,16.51a0,0,0,0,1,0,0,58.34,58.34,0,0,1-12.82-1.64c-17-4.07-23.72-15.14-18.66-32.16C54.22,49.75,64.5,39,77.47,37.71a27,27,0,0,1,9,.65C103.46,42.44,113.09,62.08,109.29,79.84Z"/>
              <path class="b0e8f66e-9ff9-4a1a-8444-c9c87a235ce3" d="M83,96.09a59.49,59.49,0,0,1-12.81-1.65c-17-4.08-23.74-15.07-18.71-31.93,3.77-12.68,14-23.36,27-24.57A35.05,35.05,0,0,0,56.89,63.63C52.29,85,68.33,94.52,83,96.09Z"/>
              <g>
                <g>
                  <g>
                    <g>
                      <g>
                        <ellipse class="e150f476-8a33-41e6-9a6d-000f7171b25a" cx="75.81" cy="63.15" rx="9.48" ry="6.99" transform="translate(2.68 129.39) rotate(-81.96)"/>
                        <path class="b4f1ff0d-9a0a-4739-b035-76795316a047" d="M74.58,72.6a6.55,6.55,0,0,1-5-3.89,12.6,12.6,0,0,1,1.19-12.84,8.54,8.54,0,0,1,2.73-2.28,6.47,6.47,0,0,1,3.63-.73,6.39,6.39,0,0,1,3.35,1.59,8.43,8.43,0,0,1,2.08,2.9,12,12,0,0,1,.64,6.74,12.25,12.25,0,0,1-2.83,6A6.69,6.69,0,0,1,74.58,72.6Zm0-.1a6.5,6.5,0,0,0,5.61-2.6,12,12,0,0,0,1.59-12.19A6.36,6.36,0,0,0,77,53.85a6.49,6.49,0,0,0-5.58,2.57,12,12,0,0,0-1.63,12.19A6.4,6.4,0,0,0,74.59,72.5Z"/>
                      </g>
                      <ellipse class="f6ca9d21-141a-4bb7-a669-eb010869d9c1" cx="79.11" cy="62.97" rx="4.27" ry="3.17" transform="translate(11.02 137.73) rotate(-86.19)"/>
                      <ellipse class="e150f476-8a33-41e6-9a6d-000f7171b25a" cx="81.09" cy="62.07" rx="1.17" ry="0.87" transform="matrix(0.07, -1, 1, 0.07, 13.78, 138.87)"/>
                    </g>
                    <path class="b4f1ff0d-9a0a-4739-b035-76795316a047" d="M74.66,54.18A7.48,7.48,0,0,1,67.75,54L71,55.63l-2.72.16a3.71,3.71,0,0,0,3.72.53Z"/>
                  </g>
                  <g>
                    <g>
                      <g>
                        <ellipse class="e150f476-8a33-41e6-9a6d-000f7171b25a" cx="95.08" cy="64.03" rx="6.36" ry="8.62" transform="translate(-4.87 7.91) rotate(-4.64)"/>
                        <path class="b4f1ff0d-9a0a-4739-b035-76795316a047" d="M95.88,72.66a6,6,0,0,1-5.21-2.45A11.44,11.44,0,0,1,89.1,58.54a8.07,8.07,0,0,1,2-2.6,5.42,5.42,0,0,1,6.45-.64A7.77,7.77,0,0,1,100,57.48a11.07,11.07,0,0,1,1.9,5.9,11.26,11.26,0,0,1-1.35,5.86A6.07,6.07,0,0,1,95.88,72.66Zm0-.1a5.89,5.89,0,0,0,4.45-3.42A10.93,10.93,0,0,0,99.3,58a5.75,5.75,0,0,0-5-2.46,5.88,5.88,0,0,0-4.43,3.38,10.93,10.93,0,0,0,1,11.13A5.79,5.79,0,0,0,95.87,72.56Z"/>
                      </g>
                      <ellipse class="f6ca9d21-141a-4bb7-a669-eb010869d9c1" cx="98.29" cy="64.06" rx="2.88" ry="3.88" transform="translate(-8.71 15.94) rotate(-8.88)"/>
                      <ellipse class="e150f476-8a33-41e6-9a6d-000f7171b25a" cx="99.88" cy="62.46" rx="0.79" ry="1.06" transform="translate(-8.44 16.16) rotate(-8.88)"/>
                    </g>
                    <path class="b4f1ff0d-9a0a-4739-b035-76795316a047" d="M97.69,56.41a9.23,9.23,0,0,0,7.45,2.22l-4.09.42,2.84,1.1a4.63,4.63,0,0,1-4.16-.81Z"/>
                  </g>
                  <path class="f6ca9d21-141a-4bb7-a669-eb010869d9c1" d="M92.83,51.15s2.93.08,6.54,3.27C99.37,54.42,94,46.08,92.83,51.15Z"/>
                  <path class="f6ca9d21-141a-4bb7-a669-eb010869d9c1" d="M81.25,48.84S78,48.44,73.48,51C73.48,51,80.91,43.64,81.25,48.84Z"/>
                </g>
                <g>
                  <g>
                    <g>
                      <path class="aa2d1f19-a392-4eb6-bad6-8533418cb5ef" d="M96.76,79.53s-1.36,5.67-5.11,9.28a10.18,10.18,0,0,1-3.54,2.32c-5.1,2-10.68.4-13.41-5.67-.07-.12-.12-.26-.18-.39a20.63,20.63,0,0,1-1.37-5.47s10.06,3.9,20,1.23A22.85,22.85,0,0,0,96.76,79.53Z"/>
                      <path class="a2cd34bf-60ce-4ffa-8f05-3ffa174d1851" d="M96.79,79.49a17,17,0,0,1-1.09,3.82,21.81,21.81,0,0,1-1.78,3.55,15.28,15.28,0,0,1-2.62,3.07A10.37,10.37,0,0,1,87.74,92a10.88,10.88,0,0,1-8.18-.22,11.77,11.77,0,0,1-5.68-6l0,.06a15.89,15.89,0,0,1-.61-1.55c-.16-.51-.31-1-.44-1.53a25.61,25.61,0,0,1-.54-3.11l-.14-1.35,1.27.48a36.86,36.86,0,0,0,5.68,1.55,39.79,39.79,0,0,0,5.87.77,34.58,34.58,0,0,0,5.93-.23,29.8,29.8,0,0,0,2.94-.55C94.86,80.13,95.75,79.84,96.79,79.49Zm-.06.08A17.65,17.65,0,0,1,94,80.65c-1,.3-2,.5-2.94.71a31.14,31.14,0,0,1-6,.46,38,38,0,0,1-6-.61,37.27,37.27,0,0,1-5.85-1.52l.12-.1a19.86,19.86,0,0,0,1.54,5.83h0A10.89,10.89,0,0,0,80,91a10.26,10.26,0,0,0,7.55.3,11.66,11.66,0,0,0,6-4.7A24.56,24.56,0,0,0,96.73,79.57Z"/>
                    </g>
                    <path class="be80ae66-08db-4959-bb5a-e3f7a38e8b73" d="M83.54,85.43c4.26.53,7.33,3.71,4.83,5.65A5.12,5.12,0,0,1,86,92c-8.86-.36-10.86-4.92-10.54-7.85,1.08-.24,2.3.19,5.38,1.12A20.5,20.5,0,0,1,83.54,85.43Z"/>
                    <path class="aa2d1f19-a392-4eb6-bad6-8533418cb5ef" d="M80.45,84.51A7.93,7.93,0,0,1,83,90.88a11.14,11.14,0,0,0-3.86-6.52Z"/>
                    <path class="e150f476-8a33-41e6-9a6d-000f7171b25a" d="M86.1,87a20.54,20.54,0,0,1-5.46.08,8.34,8.34,0,0,1-7.29-7.18v-.07s9.78,3.95,19.7,1.27C93.12,83.7,91.79,86.2,86.1,87Z"/>
                  </g>
                  <path class="e38b45ec-244c-4653-b993-164d7e38949a" d="M72.35,76.14a2.18,2.18,0,0,1,.46,1.12,2.84,2.84,0,0,1-.15,1.28,2.11,2.11,0,0,1-.92,1,2.38,2.38,0,0,1-.61.19,2.56,2.56,0,0,1-.62,0v0a2.69,2.69,0,0,0,1-.42,1.89,1.89,0,0,0,.68-.85,3.56,3.56,0,0,0,.1-2.19Z"/>
                  <path class="e38b45ec-244c-4653-b993-164d7e38949a" d="M98.29,80.87a1.82,1.82,0,0,1-1-.37,3,3,0,0,1-.71-.8,2.73,2.73,0,0,1-.28-1,1.81,1.81,0,0,1,.26-1h.05A3.28,3.28,0,0,0,97,79.46a3.66,3.66,0,0,0,1.28,1.37Z"/>
                </g>
                <ellipse class="bd159303-fd21-4429-ae5f-d6afb535a5de" cx="65.37" cy="74.21" rx="3.48" ry="4.95" transform="matrix(0.23, -0.97, 0.97, 0.23, -22.02, 120.51)"/>
                <ellipse class="bd159303-fd21-4429-ae5f-d6afb535a5de" cx="104.69" cy="74.01" rx="4.95" ry="3.48" transform="translate(-11.46 19.73) rotate(-10.21)"/>
              </g>
            </g>
          </g>
          <path class="b4481f55-ca04-4fed-8642-b50f1c0eaec8" d="M23.38,80.75a2.85,2.85,0,0,1,4.35,2.56,6.27,6.27,0,0,1-1.62,4.08c-2.5,2.6-6.74,5.12-11,3.7S9,93.18,7.61,95.29,1.85,97.14,2,92c0,0-.14-6.84,5.49-9.73,0,0,2.16-1.78,8.58.29C20,83.87,21.62,81.89,23.38,80.75Z"/>
        </g>
      </g>
      <path class="b4481f55-ca04-4fed-8642-b50f1c0eaec8" d="M48,78.89s-10.15,8.86-1.8,16.21c4.9,4.33,7.26,6.68,9.13,7.09,2.61.56,5.44,6.17,4.76,8.14,0,0-1.17,4.06-3.08,1.53,0,0-3.69,4.78-9.15-2.63,0,0-.08-2.35,3.78-2.64,0,0-25.15-10.71-14.9-31C36.76,75.63,44.5,71.3,48,78.89Z"/>
      <path class="e0a613d7-4ded-4fbd-9a5c-c10a7bdeee65" d="M52.45,108.92s3.26.12-2.38-3.34"/>
    </g>
    <line class="b4481f55-ca04-4fed-8642-b50f1c0eaec8" x1="57.03" y1="111.86" x2="58.18" y2="109.62"/>
  </g>
</svg>
