<svg id="a66d0258-b36c-421c-9e24-662a61973916" data-name="Layer 1" xmlns="http://www.w3.org/2000/svg" width="26.97" height="30.02" viewBox="0 0 26.97 30.02">
  <defs>
    <style>
      .bb911db9-5097-40fe-9132-d76507a48ea6 {
        fill: #fff;
      }

      .f0d2e40f-2620-40df-8a0b-fa1af44d6d5c {
        fill: #1d2a2d;
      }

      .a8b7d3b9-3cf8-4dd9-84dd-0a5938adac75 {
        fill: #16272b;
      }

      .fc86ba85-4cdb-4131-beb9-c67779cf5eb1 {
        fill: #daecef;
      }

      .ed28bd32-06d8-49f7-8c98-8f33b63d8f44 {
        fill: #301904;
        stroke: #211003;
        stroke-miterlimit: 10;
        stroke-width: 0.25px;
      }
    </style>
  </defs>
  <g>
    <g>
      <g>
        <ellipse class="bb911db9-5097-40fe-9132-d76507a48ea6" cx="13.49" cy="15.01" rx="11.89" ry="13.33"/>
        <path class="f0d2e40f-2620-40df-8a0b-fa1af44d6d5c" d="M25.43,15a14.4,14.4,0,0,1-3.17,9.26,11.76,11.76,0,0,1-8.77,4.55,11.91,11.91,0,0,1-9.23-4.16A15.13,15.13,0,0,1,.7,15,15.16,15.16,0,0,1,4.26,5.37a11.88,11.88,0,0,1,9.23-4.16,11.75,11.75,0,0,1,8.77,4.54A14.4,14.4,0,0,1,25.43,15Zm-.1,0a14.2,14.2,0,0,0-3.25-9.1,11.25,11.25,0,0,0-8.59-4.15A11.28,11.28,0,0,0,4.92,5.92,14.19,14.19,0,0,0,1.7,15,14.19,14.19,0,0,0,4.92,24.1a11.28,11.28,0,0,0,8.57,4.16,11.27,11.27,0,0,0,8.59-4.14A14.25,14.25,0,0,0,25.33,15Z"/>
      </g>
      <ellipse class="a8b7d3b9-3cf8-4dd9-84dd-0a5938adac75" cx="14.07" cy="15.36" rx="7.62" ry="8.54"/>
      <ellipse class="fc86ba85-4cdb-4131-beb9-c67779cf5eb1" cx="17.71" cy="11.29" rx="2.39" ry="2.68"/>
    </g>
    <path class="ed28bd32-06d8-49f7-8c98-8f33b63d8f44" d="M2.56,20.26s10.83-10.59,21.86,0C27.19,15,24.34.41,11.64,1.84,8.34,2-1.53,6.82,2.56,20.26Z"/>
  </g>
</svg>
