<svg id="e85b17cc-96c4-4e4b-ad6f-a6e84c649056" data-name="Layer 1" xmlns="http://www.w3.org/2000/svg" width="120" height="90" viewBox="0 0 120 90">
  <defs>
    <style>
      .baaff263-1a24-46c4-8f3b-2705f936b018 {
        fill: #3c3331;
      }

      .ace8de97-cbcf-41e1-be2e-31f055024ef6 {
        fill: #fff;
      }

      .ab5ccaa2-4301-48b3-8f79-ca885146103b {
        fill: #a3792f;
      }

      .b0fd5663-14ed-4e49-970c-81e8eb1e3e63 {
        fill: #723a2a;
      }

      .a858f8f0-dd80-451f-9cd4-4bcc10019fcb {
        fill: #3a240a;
      }

      .a47e15b6-5f5f-4902-9d12-bf36a4eea716 {
        fill: #937f79;
      }

      .a4228f38-5776-429d-8d19-f6f094cbcb38 {
        fill: #a08d86;
      }

      .fdcd4b0e-dea5-4156-b307-75514e433386 {
        fill: #a5948e;
      }

      .a95d9d9c-b67f-459e-83a2-6bb82403ae94 {
        fill: #5b4c48;
      }

      .ea943f30-6075-465d-b49e-cffc6cc06302 {
        fill: #ea6c63;
      }

      .bc136026-33e5-4d0e-87ac-d1ebe0c52b7f {
        fill: #f27c6d;
      }

      .a34b3fd7-380a-48bc-83f7-8058dfa96d89 {
        fill: #f4837a;
      }

      .b957619a-8504-4a8a-ad90-73b45239ca10 {
        fill: #9b241e;
      }
    </style>
  </defs>
  <g>
    <g>
      <path class="baaff263-1a24-46c4-8f3b-2705f936b018" d="M103.83,20S94.12,8.94,82.55,8.1C85.33,1.69,97.09,3.87,103.83,20Z"/>
      <path class="baaff263-1a24-46c4-8f3b-2705f936b018" d="M26.77,17S12.26,21.49,6.13,32.93C6.13,20.93,19.24,8.38,26.77,17Z"/>
      <path class="baaff263-1a24-46c4-8f3b-2705f936b018" d="M110.84,40.18c1.34,15-5.39,26.49-11.93,26.12-3.85-.22-13.61-21.45-9.42-37.37S109.49,25.21,110.84,40.18Z"/>
      <path class="ace8de97-cbcf-41e1-be2e-31f055024ef6" d="M112,42.41c1.35,15-5.38,26.49-11.92,26.12-3.86-.22-13.61-21.45-9.42-37.37S110.64,27.44,112,42.41Z"/>
      <path class="baaff263-1a24-46c4-8f3b-2705f936b018" d="M90.09,31C86.63,44.17,92.65,61,97,66.75c1.14,1.5,2.16,2.29,3,2.34h.35a8.47,8.47,0,0,0,6-3c4.61-4.87,7-14.18,6.18-23.72-.89-9.89-8.09-19.25-14.83-19.25C95.65,23.11,91.9,24.14,90.09,31Zm1.11.28c1.22-4.63,3.48-7.07,6.53-7.07,5.46,0,12.78,8.13,13.68,18.23.84,9.24-1.48,18.22-5.89,22.87A7.32,7.32,0,0,1,100.38,68h-.28c-.19,0-.9-.17-2.18-1.88C93.69,60.51,87.84,44.1,91.2,31.3Z"/>
      <path class="baaff263-1a24-46c4-8f3b-2705f936b018" d="M36.34,33C53.26,41.2,59,72.81,55.31,78.94c-2.9,4.77-27.71,3.16-37.93-16.55S19.42,24.84,36.34,33Z"/>
      <path class="ace8de97-cbcf-41e1-be2e-31f055024ef6" d="M36.34,35.25C53.26,43.43,59,75,55.31,81.17,52.41,86,27.6,84.33,17.38,64.63S19.42,27.07,36.34,35.25Z"/>
      <path class="baaff263-1a24-46c4-8f3b-2705f936b018" d="M15.88,39.71c-4.08,6.7-3.7,16.11,1,25.17C24.71,80,40.12,84,48,84h0c4,0,6.82-.92,7.79-2.53,2-3.23,1.42-12.2-1.28-21.33-1.74-5.87-7-20.08-17.92-25.38a19.25,19.25,0,0,0-8.41-2.09A14.16,14.16,0,0,0,15.88,39.71Zm.95.58a12.91,12.91,0,0,1,11.34-6.52,18.3,18.3,0,0,1,7.93,2c10.56,5.11,15.64,19,17.33,24.7,2.83,9.56,2.94,17.9,1.4,20.43-.74,1.23-3.36,2-6.84,2-9.88,0-23.52-5.79-30.12-18.5C13.35,55.65,13,46.65,16.83,40.29Z"/>
      <g>
        <path class="ab5ccaa2-4301-48b3-8f79-ca885146103b" d="M101.69,36.82c4.55,0,8.23,5.83,8.23,13s-3.68,13-8.23,13-8.22-5.83-8.22-13S97.15,36.82,101.69,36.82Z"/>
        <path class="b0fd5663-14ed-4e49-970c-81e8eb1e3e63" d="M101.69,36.82c4.55,0,8.23,5.83,8.23,13a16.93,16.93,0,0,1-2.85,9.85C99.72,58,96.83,48.84,95.3,41.65,96.81,38.7,99.11,36.82,101.69,36.82Z"/>
        <path class="a858f8f0-dd80-451f-9cd4-4bcc10019fcb" d="M92.66,49.85c0,7.63,4,13.83,9,13.83s9-6.2,9-13.83-4-13.84-9-13.84S92.66,42.22,92.66,49.85Zm1.62,0c0-6.74,3.32-12.22,7.42-12.22s7.41,5.48,7.41,12.22-3.32,12.21-7.41,12.21S94.28,56.58,94.28,49.85Z"/>
      </g>
      <path d="M101.69,42.63c2.52,0,4.57,3.23,4.57,7.22s-2.05,7.22-4.57,7.22-4.55-3.24-4.55-7.22S99.18,42.63,101.69,42.63Z"/>
      <path class="ab5ccaa2-4301-48b3-8f79-ca885146103b" d="M28.33,47.43c6.15-3.7,15.34.31,20.53,9S53.28,75,47.14,78.72s-15.34-.32-20.53-9S22.19,51.12,28.33,47.43Z"/>
      <path class="b0fd5663-14ed-4e49-970c-81e8eb1e3e63" d="M28.33,47.43c6.15-3.7,15.34.31,20.53,9,3.16,5.26,4.1,11,3,15.56-10.95-2-21.6-7.15-28.57-15.57C23.65,52.49,25.36,49.22,28.33,47.43Z"/>
      <path class="a858f8f0-dd80-451f-9cd4-4bcc10019fcb" d="M25.86,70.21C29.79,76.74,36.13,81,42,81a10.71,10.71,0,0,0,5.58-1.49c3.22-1.94,5.19-5.49,5.53-10a23.25,23.25,0,0,0-3.51-13.54C45.69,49.4,39.34,45.18,33.46,45.18a10.63,10.63,0,0,0-5.58,1.5C21.33,50.61,20.43,61.17,25.86,70.21Zm2.92-22a9,9,0,0,1,4.68-1.25c5.28,0,11,3.89,14.65,9.91a21.5,21.5,0,0,1,3.27,12.5c-.3,3.93-2,7-4.69,8.63A9,9,0,0,1,42,79.21c-5.28,0-11-3.88-14.65-9.9C22.42,61.1,23.06,51.62,28.78,48.18Z"/>
      <path d="M32.36,54.13c3.51-2.11,8.77.18,11.73,5.12s2.53,10.65-1,12.76-8.77-.18-11.73-5.12S28.85,56.24,32.36,54.13Z"/>
      <circle class="ace8de97-cbcf-41e1-be2e-31f055024ef6" cx="37" cy="55.77" r="5.03"/>
      <path class="ace8de97-cbcf-41e1-be2e-31f055024ef6" d="M43.67,58a2.4,2.4,0,1,1-2.4,2.4A2.39,2.39,0,0,1,43.67,58Z"/>
      <path class="ace8de97-cbcf-41e1-be2e-31f055024ef6" d="M101.41,39.33a3.86,3.86,0,1,1-3.85,3.85A3.85,3.85,0,0,1,101.41,39.33Z"/>
      <path class="ace8de97-cbcf-41e1-be2e-31f055024ef6" d="M106.52,44.86a1.84,1.84,0,1,1-1.84,1.83A1.83,1.83,0,0,1,106.52,44.86Z"/>
      <path class="a47e15b6-5f5f-4902-9d12-bf36a4eea716" d="M90.65,31.16c3.52-13.4,15.27-6.88,19.71,4.44-8.7,3.32-14.85,13.58-18,20.15C90,48.43,88.55,39.13,90.65,31.16Z"/>
      <path class="a47e15b6-5f5f-4902-9d12-bf36a4eea716" d="M13.7,49.24c.6-12.19,10.39-19.91,22.64-14C46.12,40,52.16,52.53,54.81,63.47,47.78,57.41,30,44.15,13.7,49.24Z"/>
    </g>
    <g>
      <g>
        <path class="a4228f38-5776-429d-8d19-f6f094cbcb38" d="M113.87,71.62,63.24,84.83C90.41,60.08,113.87,71.62,113.87,71.62Z"/>
        <path class="fdcd4b0e-dea5-4156-b307-75514e433386" d="M113.87,71.62,63.24,84.83C90.41,60.08,113.87,71.62,113.87,71.62Z"/>
        <path class="a95d9d9c-b67f-459e-83a2-6bb82403ae94" d="M72.24,77.14C86.29,68,98.7,67.75,106.3,68.94a14.2,14.2,0,0,1,7.32,3.18c-.23-.12-23.42-11.1-50,13.13C63.61,85.25,69.18,79.12,72.24,77.14Z"/>
      </g>
      <g>
        <path class="ea943f30-6075-465d-b49e-cffc6cc06302" d="M105.17,66.92c.77,5.46-5.87,12.7-7.82,14.1C95,82.69,82,75.71,83.39,70.55S104.05,59,105.17,66.92Z"/>
        <path class="bc136026-33e5-4d0e-87ac-d1ebe0c52b7f" d="M105.17,66.92c.77,5.46-5.43,9.84-7.38,11.24-2.35,1.67-13.63-2.87-12.24-8S104.05,59,105.17,66.92Z"/>
        <path class="a34b3fd7-380a-48bc-83f7-8058dfa96d89" d="M105.17,66.92c.77,5.46-5.31,8.53-7.26,9.92-2.34,1.67-12.66-1.5-11.26-6.67S104.05,59,105.17,66.92Z"/>
        <path class="b957619a-8504-4a8a-ad90-73b45239ca10" d="M82.85,70.4c-.37,1.36.07,2.85,1.29,4.45,2.83,3.69,9.16,7,12.17,7h0a2.29,2.29,0,0,0,1.36-.36c2.22-1.58,8.85-9,8.06-14.62-.39-2.73-2.72-4.24-6.56-4.24C93.22,62.61,83.89,66.54,82.85,70.4Zm1.08.29c.84-3.12,9.24-7,15.24-7,2.27,0,5.07.57,5.45,3.27.72,5.09-5.58,12.13-7.6,13.56a1.16,1.16,0,0,1-.71.15c-2.68,0-8.75-3.23-11.28-6.54C84,72.86,83.66,71.69,83.93,70.69Z"/>
      </g>
    </g>
  </g>
</svg>
