<svg id="b73ae4de-bcd8-4c71-afbe-4150d37f352a" data-name="Layer 1" xmlns="http://www.w3.org/2000/svg" width="229.41" height="208.94" viewBox="0 0 229.41 208.94">
  <defs>
    <style>
      .a4aa254a-1b55-4bba-85db-0ba032505f23 {
        fill: #bcfde5;
      }

      .e6df9298-260b-465c-be79-bac708203240 {
        fill: #ebf7f2;
      }
    </style>
  </defs>
  <g>
    <g>
      <path class="a4aa254a-1b55-4bba-85db-0ba032505f23" d="M171.18,193.27C144.29,196.91,129.75,134.44,124,92S130.36,11,157.25,7.3,196.89,41,202.64,83.38,198.07,189.62,171.18,193.27Z"/>
      <path class="e6df9298-260b-465c-be79-bac708203240" d="M171.19,193.31l-1.72.12c-.28,0-.57,0-.85,0l-.86-.08a16.05,16.05,0,0,1-1.7-.18l-1.67-.4a19.49,19.49,0,0,1-6.1-3.08,38,38,0,0,1-9.19-10.09c-5-7.67-8.52-16.2-11.53-24.8-1.51-4.31-2.83-8.69-4.06-13.09s-2.35-8.82-3.37-13.27c-2.06-8.9-3.77-17.87-5.22-26.89-.72-4.51-1.41-9-2-13.57s-.82-9.12-.92-13.69A123.21,123.21,0,0,1,124.32,47c1.87-9,4.92-17.85,10.15-25.54a38,38,0,0,1,9.72-9.94,30,30,0,0,1,13-5.08,28.27,28.27,0,0,1,7.06,0,24.68,24.68,0,0,1,6.78,2,31.61,31.61,0,0,1,10.8,8.79A58.31,58.31,0,0,1,189.14,29a105.69,105.69,0,0,1,5.13,12.77,196.19,196.19,0,0,1,6.57,26.64,229.87,229.87,0,0,1,3.45,27.19A212.28,212.28,0,0,1,204,123a190.67,190.67,0,0,1-4,27.11,125.82,125.82,0,0,1-3.65,13.2,85.73,85.73,0,0,1-5.31,12.62,45.59,45.59,0,0,1-8,11.12A21.43,21.43,0,0,1,171.19,193.31Zm0-.09a21.26,21.26,0,0,0,11.85-6.3,45.12,45.12,0,0,0,7.87-11.09,86.88,86.88,0,0,0,5.25-12.61A128.52,128.52,0,0,0,199.73,150,189.87,189.87,0,0,0,203.55,123a209.45,209.45,0,0,0,.19-27.33,229,229,0,0,0-3.55-27.11A196.16,196.16,0,0,0,193.54,42a104.51,104.51,0,0,0-5.14-12.66,58,58,0,0,0-7.25-11.54,30.85,30.85,0,0,0-10.52-8.5,23.91,23.91,0,0,0-6.51-1.92,27.15,27.15,0,0,0-6.8,0,29.2,29.2,0,0,0-12.6,4.87,37.37,37.37,0,0,0-9.52,9.66C130,29.46,127,38.24,125.08,47.13a122.68,122.68,0,0,0-2.37,27.18c.09,4.56.38,9.12.87,13.65s1.19,9,1.88,13.55c1.42,9,3.08,18,5.11,26.87,1,4.45,2.09,8.88,3.31,13.27s2.51,8.77,4,13.08c3,8.61,6.42,17.13,11.4,24.79a38,38,0,0,0,9.1,10.09,19.37,19.37,0,0,0,6,3.07l1.66.41c.55.12,1.13.12,1.69.19l.85.08c.28,0,.57,0,.85,0Z"/>
    </g>
    <g>
      <path class="a4aa254a-1b55-4bba-85db-0ba032505f23" d="M165.86,183.62c-15.36,22.37-71.41-8.81-106.69-33S3.38,91.4,18.74,69s51.56-6.75,86.85,17.48S181.22,161.25,165.86,183.62Z"/>
      <path class="e6df9298-260b-465c-be79-bac708203240" d="M165.9,183.65,164.83,185c-.18.22-.35.46-.54.67l-.63.58c-.43.38-.82.8-1.28,1.14l-1.43,1a19.46,19.46,0,0,1-6.37,2.45,38,38,0,0,1-13.65,0c-9.05-1.42-17.72-4.56-26.12-8.11-4.2-1.78-8.33-3.74-12.42-5.78s-8.11-4.19-12.1-6.42c-8-4.45-15.77-9.22-23.42-14.19-3.82-2.5-7.63-5-11.36-7.68s-7.31-5.51-10.77-8.51A123.28,123.28,0,0,1,26,120.07c-5.38-7.41-9.92-15.63-12.11-24.68a38.33,38.33,0,0,1-.83-13.88,30.1,30.1,0,0,1,5-13,28,28,0,0,1,4.76-5.21,24.92,24.92,0,0,1,6.05-3.66,31.74,31.74,0,0,1,13.77-2.1A59,59,0,0,1,56.22,60a105.13,105.13,0,0,1,12.91,4.78,196.75,196.75,0,0,1,24.14,13,233,233,0,0,1,22.47,15.71,213.47,213.47,0,0,1,20.1,18.63,191.46,191.46,0,0,1,17.42,21.13,125.49,125.49,0,0,1,7.33,11.58,86.94,86.94,0,0,1,5.79,12.41,45.36,45.36,0,0,1,2.89,13.36A21.41,21.41,0,0,1,165.9,183.65Zm-.08-.06a21.31,21.31,0,0,0,3.29-13,45.36,45.36,0,0,0-2.93-13.29A86.93,86.93,0,0,0,160.36,145,128.4,128.4,0,0,0,153,133.43a190.82,190.82,0,0,0-17.48-21,212.24,212.24,0,0,0-20.12-18.5A231.08,231.08,0,0,0,92.93,78.34,195.63,195.63,0,0,0,68.82,65.46,106.45,106.45,0,0,0,56,60.76a57.78,57.78,0,0,0-13.42-2.37,30.44,30.44,0,0,0-13.36,2.08A24.08,24.08,0,0,0,23.41,64a27.33,27.33,0,0,0-4.56,5A29.22,29.22,0,0,0,14,81.64a37.25,37.25,0,0,0,.76,13.55c2.11,8.89,6.56,17,11.87,24.42a122.2,122.2,0,0,0,18.55,20q5.15,4.5,10.69,8.52c3.7,2.66,7.49,5.19,11.3,7.71,7.63,5,15.39,9.79,23.34,14.27,4,2.24,8,4.41,12.06,6.46s8.18,4,12.37,5.82c8.37,3.58,17,6.75,26,8.2a38.08,38.08,0,0,0,13.59,0,19.53,19.53,0,0,0,6.34-2.41l1.41-1c.46-.33.85-.75,1.28-1.12l.63-.58c.19-.21.36-.44.54-.66Z"/>
    </g>
  </g>
</svg>
