<svg id="ac04c96a-054d-4114-9594-3f014270e23c" data-name="Layer 1" xmlns="http://www.w3.org/2000/svg" width="200" height="240" viewBox="0 0 200 240">
  <defs>
    <style>
      .a3b15cf8-c27b-42e9-ac14-e1a407759757 {
        fill: #bcfde5;
      }

      .efe15812-4d9d-470d-9bca-5b43783823c9 {
        fill: #ebf7f2;
      }
    </style>
  </defs>
  <g>
    <g>
      <path class="a3b15cf8-c27b-42e9-ac14-e1a407759757" d="M171.24,154.82c-10.73,20.63-61.66,0-94.2-17S23.4,93.32,34.13,72.69s43.16-11.12,75.71,5.81S182,134.18,171.24,154.82Z"/>
      <path class="efe15812-4d9d-470d-9bca-5b43783823c9" d="M171.28,154.84c-10.29,18.66-50.49,2.72-65.71-3.24-21.53-9.12-43.66-18.82-60-36.18-7.93-8.55-15.12-19.37-15.08-31.52,0-8.05,4-16.36,11.2-20.39,16.36-8.78,41.17,1.75,56.8,8.77a174.36,174.36,0,0,1,56.81,41c8.9,10.07,22.69,27.65,16,41.59Zm-.09-.05c6.62-13.86-7.25-31.39-16.13-41.32A173.81,173.81,0,0,0,98.21,72.88c-15.4-6.82-40-17.19-56-8.55-6.84,3.9-10.65,11.86-10.73,19.59C31.69,103.49,49,119.56,64,130c13,8.67,27.4,15.08,41.74,21.21,15.13,6,55.15,22.09,65.45,3.6Z"/>
    </g>
    <g>
      <path class="a3b15cf8-c27b-42e9-ac14-e1a407759757" d="M165.73,158.28c-7.39,22.05-60.92,9.55-95.69-2.1S10.12,120.55,17.51,98.5s40.91-17.7,75.68-6S173.12,136.23,165.73,158.28Z"/>
      <path class="efe15812-4d9d-470d-9bca-5b43783823c9" d="M165.78,158.29c-7.27,20-49.45,10.55-65.41,7-22.69-5.66-46.06-11.79-64.91-26.4-9.16-7.21-17.95-16.78-19.8-28.77-1.24-8,1.43-16.8,7.88-21.89C38.34,77,64.48,83.57,81,88.07a174.32,174.32,0,0,1,62.49,31.63c10.37,8.56,26.73,23.78,22.27,38.59Zm-.1,0c4.38-14.72-12.05-29.88-22.37-38.31A173.78,173.78,0,0,0,80.84,88.71C64.57,84.37,38.6,78,24.14,89c-6.15,4.92-8.68,13.38-7.55,21,3.27,19.25,22.91,32.51,39.35,40.43,14.2,6.54,29.41,10.63,44.53,14.45,15.88,3.59,57.92,13.24,65.21-6.63Z"/>
    </g>
  </g>
</svg>
