<svg id="f783cf64-7747-4c11-ae30-94ac4d6028e4" data-name="Layer 1" xmlns="http://www.w3.org/2000/svg" width="39.06" height="32" viewBox="0 0 39.06 32">
  <defs>
    <style>
      .a0c91c71-8b6c-4bbb-9de0-c9b8f6dd8007, .f4cfa398-8d16-4738-9e03-d1d2414d995c {
        fill: #fff;
      }

      .f4cfa398-8d16-4738-9e03-d1d2414d995c {
        stroke: #702840;
      }

      .a753d0b0-4822-4a80-a05d-7e827379dad5, .f4cfa398-8d16-4738-9e03-d1d2414d995c {
        stroke-miterlimit: 10;
        stroke-width: 0.5px;
      }

      .a0670ba9-79ea-443c-9f32-ab9f329ac6d7 {
        fill: #210a11;
      }

      .a753d0b0-4822-4a80-a05d-7e827379dad5 {
        fill: #ffe309;
        stroke: #665608;
      }
    </style>
  </defs>
  <g>
    <g>
      <g>
        <path class="f4cfa398-8d16-4738-9e03-d1d2414d995c" d="M31.7,23.76c-3.32,1.42-7.61-1.06-9.58-5.55a11.26,11.26,0,0,1-1-4.56c0-2.81,1.25-5.21,3.44-6.14s5.07-.09,7.2,2a11.36,11.36,0,0,1,2.37,3.51C36.12,17.55,35,22.34,31.7,23.76Z"/>
        <ellipse class="a0670ba9-79ea-443c-9f32-ab9f329ac6d7" cx="26.19" cy="18.82" rx="2.97" ry="4" transform="translate(-6.04 17.54) rotate(-33.43)"/>
        <ellipse class="a0c91c71-8b6c-4bbb-9de0-c9b8f6dd8007" cx="23.88" cy="17.4" rx="0.81" ry="1.1" transform="matrix(0.94, -0.34, 0.34, 0.94, -4.52, 9.24)"/>
      </g>
      <g>
        <path class="f4cfa398-8d16-4738-9e03-d1d2414d995c" d="M12.58,29.39C9.35,30,6,26.93,5.19,22.55a10.25,10.25,0,0,1-.11-3.39c.39-2.9,2.06-5.18,4.43-5.61s4.49.91,6,3.21a10.27,10.27,0,0,1,1.44,3.63C17.75,24.76,15.82,28.79,12.58,29.39Z"/>
        <ellipse class="a0670ba9-79ea-443c-9f32-ab9f329ac6d7" cx="9.39" cy="25.22" rx="2.7" ry="3.63" transform="translate(-13.49 11.05) rotate(-37.81)"/>
        <ellipse class="a0c91c71-8b6c-4bbb-9de0-c9b8f6dd8007" cx="7.06" cy="24.26" rx="0.74" ry="1" transform="translate(-3.05 1.11) rotate(-7.37)"/>
      </g>
      <path class="a0670ba9-79ea-443c-9f32-ab9f329ac6d7" d="M9.7,9.3s-2.61.84-5,4.65C4.68,14,7.29,5.06,9.7,9.3Z"/>
      <path class="a0670ba9-79ea-443c-9f32-ab9f329ac6d7" d="M19.51,4.19s2.77-1.2,7.54-.1C27.05,4.09,18.44-.57,19.51,4.19Z"/>
    </g>
    <path class="a753d0b0-4822-4a80-a05d-7e827379dad5" d="M15.46,16.76a35.69,35.69,0,0,0-10.38,2.4c.39-2.9,2.06-5.18,4.43-5.61S14,14.46,15.46,16.76Z"/>
    <path class="a753d0b0-4822-4a80-a05d-7e827379dad5" d="M31.78,9.55c-6.09,1.15-9.2,3-10.64,4.1,0-2.81,1.25-5.21,3.44-6.14S29.65,7.42,31.78,9.55Z"/>
  </g>
</svg>
