<svg id="bcb9e5ed-b761-4906-b5c2-886c8732c289" data-name="Layer 1" xmlns="http://www.w3.org/2000/svg" width="410" height="400" viewBox="0 0 410 400">
  <defs>
    <style>
      .b0710c73-0b73-429c-a478-8bcec8a6ef14, .bc03e7da-96d0-4dae-881d-c63e943b4249 {
        fill: #ffe309;
      }

      .bc03e7da-96d0-4dae-881d-c63e943b4249, .f991ccd9-dcc7-408a-99c5-488b82255fb6 {
        stroke: #665608;
      }

      .b0710c73-0b73-429c-a478-8bcec8a6ef14, .b1bbebd7-9026-42b8-8bf3-3f29887ca88c, .bc03e7da-96d0-4dae-881d-c63e943b4249, .f991ccd9-dcc7-408a-99c5-488b82255fb6 {
        stroke-miterlimit: 10;
      }

      .b0710c73-0b73-429c-a478-8bcec8a6ef14, .bc03e7da-96d0-4dae-881d-c63e943b4249, .f991ccd9-dcc7-408a-99c5-488b82255fb6 {
        stroke-width: 0.75px;
      }

      .b0710c73-0b73-429c-a478-8bcec8a6ef14 {
        stroke: #493c05;
      }

      .f7a23907-8ded-4bde-a216-2f819d3b1ede {
        fill: #ecc516;
      }

      .b1bbebd7-9026-42b8-8bf3-3f29887ca88c {
        fill: #532900;
        stroke: #3a1c03;
      }

      .a56dba1a-317e-4d7b-b8ec-fc320e2433cb {
        fill: #681a1a;
      }

      .ae644c3e-837e-42da-84a3-611a5f1ba09e {
        fill: #ef7089;
      }

      .b04c0ba3-45bf-4dd5-8e67-cc6356a48556 {
        fill: #ff5763;
      }

      .fc2c3287-e84d-4131-955c-26878167e014 {
        fill: #fff;
      }

      .a5221539-9e25-44aa-97fc-147d3b8ece30 {
        fill: #ef304c;
      }

      .b38d4766-5eb0-4ca4-a394-f0771257e251 {
        fill: #ffa979;
      }

      .f991ccd9-dcc7-408a-99c5-488b82255fb6 {
        fill: none;
      }
    </style>
  </defs>
  <g>
    <g>
      <g>
        <path class="bc03e7da-96d0-4dae-881d-c63e943b4249" d="M98.37,321.09s.48,12.69-13.63,12.09-24-6.49-27.72,7-6.52,28.45,7,32.19S80,356.67,90.34,359.83s30.6,3.66,34-20.9S98.37,321.09,98.37,321.09Z"/>
        <g>
          <path class="bc03e7da-96d0-4dae-881d-c63e943b4249" d="M225.87,267.55s-7.2,7.28,9.24,55.79c0,0,6.21,19.9,13.28,29.5s12.21,29,8.5,36-12.47,10.91-13.41-1.86l4.38-13.13s1.94,14.94-15.05,13.87S237.69,369,237.69,369L225.3,379.33s-12.83-5.63,3.63-21.47c0,0-8.92-2.16-23.91-32.52s-18.17-65.86-18.17-65.86Z"/>
          <path class="b0710c73-0b73-429c-a478-8bcec8a6ef14" d="M261,310.49c-11.82,15.12-24.63,26.46-38.91,33.87a91.66,91.66,0,0,1-33.66,9.92l0,0a116.31,116.31,0,0,1-27.18-.67c-1.71-.22-3.42-.49-5.09-.81a124,124,0,0,1-35.33-12.19c-22-11.45-38.73-27.87-50.39-41.48-2.8-3.24-5.28-6.35-7.48-9.14-16.56-21.05-33.67-26.49-33.67-26.49,14.67-2.29,25.82-14.32,38.38-26.91,11.41-11.52,24-23.53,41.43-29,.9-.29,1.79-.57,2.75-.82a80.11,80.11,0,0,1,17-2.61,108.59,108.59,0,0,1,26,2,4.81,4.81,0,0,1,.68.14A144.82,144.82,0,0,1,178.86,213a117,117,0,0,1,13.34,5.82c26.83,14.55,44.57-1.39,44.57-1.39l37.77,73.42A212.12,212.12,0,0,1,261,310.49Z"/>
          <path class="f7a23907-8ded-4bde-a216-2f819d3b1ede" d="M261.56,306.94c-13.92-2.79-27.82-10.13-43.37-20.82C186,264,167.83,233.83,176,217a116,116,0,0,1,20,5.15,90.34,90.34,0,0,1,11.37,4.73c22.77,12.06,38.78-2.91,38.78-2.91l30.08,64.49C272.2,295,265.83,301.43,261.56,306.94Z"/>
          <path class="b1bbebd7-9026-42b8-8bf3-3f29887ca88c" d="M71.92,299.07c-2.8-3.24-6.8-6.31-9-9.1-16.56-21.05-33.67-26.49-33.67-26.49,14.67-2.29,27.66-15.28,40.22-27.87C63.5,247.36,56.54,271,71.92,299.07Z"/>
          <path class="b1bbebd7-9026-42b8-8bf3-3f29887ca88c" d="M222.08,344.36a91.66,91.66,0,0,1-33.66,9.92l0,0c-12.74-8.75-34.23-29.52-45.47-74.27-6.89-27.51.69-53.19,11.93-73.81a146.34,146.34,0,0,1,24,6.85c-8.66,16.38-18.16,44.78-4.59,76.38C187.56,320.37,208.4,336.57,222.08,344.36Z"/>
          <path class="b1bbebd7-9026-42b8-8bf3-3f29887ca88c" d="M156.12,352.78a124,124,0,0,1-35.33-12.19C107.59,328.27,91.14,308.2,87.3,282c-4.75-32,7.8-56.05,21.76-74.4.9-.29,1.79-.57,2.75-.82a80.11,80.11,0,0,1,17-2.61c-9.76,15.05-22.94,42.58-14.58,73.11C124.14,313.4,146.87,342.14,156.12,352.78Z"/>
          <g>
            <path class="bc03e7da-96d0-4dae-881d-c63e943b4249" d="M246.57,130.84s-18.74-4.07-32.92-46.07,16-82.42,38-80,18.43,20.84-4.05,30.66-32,60.1,5.67,91.31C253.31,126.71,273.13,152,246.57,130.84Z"/>
            <path class="bc03e7da-96d0-4dae-881d-c63e943b4249" d="M304.59,139s2.65-35.1,14.64-56,46-65.38,76.56-47c0,0,8.13,8.93,2.2,16.55s-15.13,8.29-22.56,1.58S312.38,75.54,313.21,139C313.21,139,308.05,155.42,304.59,139Z"/>
            <g>
              <path class="bc03e7da-96d0-4dae-881d-c63e943b4249" d="M370,268.4c-8.85,41.35-49.61,57.46-94.26,56.9,0,0-.11,0-.14,0a202.6,202.6,0,0,1-44.18-5.65c-58.71-14-81.77-52.21-64.31-110.87,13.11-44.1,48.54-81.29,93.21-85.61a93.16,93.16,0,0,1,30.85,2.25C350,139.48,383.15,207.16,370,268.4Z"/>
              <path class="f7a23907-8ded-4bde-a216-2f819d3b1ede" d="M279.34,324.39a204.49,204.49,0,0,1-44.17-5.69c-58.71-14.05-81.83-51.93-64.5-110.06,13-43.69,48.34-80.49,93-84.68-21,8.49-62.05,32-74.23,88.55C173.59,286,228.85,319,279.34,324.39Z"/>
              <g>
                <g>
                  <g>
                    <g>
                      <path class="a56dba1a-317e-4d7b-b8ec-fc320e2433cb" d="M326.86,267.32s-4.68,19.55-17.61,32a35.44,35.44,0,0,1-12.21,8c-17.57,6.73-36.81,1.36-46.23-19.54-.24-.44-.41-.9-.61-1.37a69.5,69.5,0,0,1-4.71-18.83s34.66,13.43,68.85,4.22A79.1,79.1,0,0,0,326.86,267.32Z"/>
                      <path class="ae644c3e-837e-42da-84a3-611a5f1ba09e" d="M326.89,267.28a58.8,58.8,0,0,1-1.89,6.5c-.75,2.12-1.54,4.23-2.45,6.28a73.2,73.2,0,0,1-6.43,11.87,51.63,51.63,0,0,1-9,10.12,34.23,34.23,0,0,1-11.87,6.63,38.68,38.68,0,0,1-13.47,2.1,33.75,33.75,0,0,1-13.32-3,34.2,34.2,0,0,1-11-8.14A45,45,0,0,1,250,288.14l0,.06a50.11,50.11,0,0,1-2-5q-.85-2.52-1.51-5.1a78.74,78.74,0,0,1-1.87-10.42l-.15-1.34,1.28.46a125.78,125.78,0,0,0,20,5.3,131.45,131.45,0,0,0,20.56,2.27A108.94,108.94,0,0,0,306.94,273c.86-.1,1.7-.3,2.55-.48L312,272c1.69-.34,3.38-.73,5-1.23A84.68,84.68,0,0,0,326.89,267.28Zm-.06.08a74,74,0,0,1-9.68,3.69c-1.66.52-3.35.94-5,1.31l-2.54.59c-.85.19-1.69.41-2.55.52l-5.15.8c-1.72.2-3.45.32-5.18.49s-3.47.17-5.2.25c-.87,0-1.73.07-2.6.07l-2.61-.05a129.69,129.69,0,0,1-20.7-2.1,126.61,126.61,0,0,1-20.13-5.28l.13-.09a76.74,76.74,0,0,0,1.88,10.3,58.74,58.74,0,0,0,3.44,9.86h0A45.06,45.06,0,0,0,258.16,299a32.57,32.57,0,0,0,23.63,11,39.12,39.12,0,0,0,13.19-2,33.59,33.59,0,0,0,11.7-6.39,50.82,50.82,0,0,0,9-9.92,72.55,72.55,0,0,0,6.58-11.69A85.66,85.66,0,0,0,326.83,267.36Z"/>
                    </g>
                    <path class="b04c0ba3-45bf-4dd5-8e67-cc6356a48556" d="M281.27,287.65c14.7,1.84,25.3,12.8,16.67,19.49a17.89,17.89,0,0,1-8.14,3.09c-30.54-1.24-37.44-17-36.34-27,3.75-.84,8,.62,18.56,3.85A73.25,73.25,0,0,1,281.27,287.65Z"/>
                    <path class="a56dba1a-317e-4d7b-b8ec-fc320e2433cb" d="M270.64,284.49s9.87,8.29,8.68,21.93c0,0-2.24-14.17-13.3-22.45Z"/>
                    <path class="fc2c3287-e84d-4131-955c-26878167e014" d="M290.12,293.2a70.8,70.8,0,0,1-18.82.29,28.77,28.77,0,0,1-25.14-24.78l0-.21s33.7,13.59,67.89,4.38C314.3,281.67,309.73,290.31,290.12,293.2Z"/>
                  </g>
                  <path class="a5221539-9e25-44aa-97fc-147d3b8ece30" d="M242.65,255.63a12.16,12.16,0,0,1,.58,1.89,13.07,13.07,0,0,1,.23,2,9.9,9.9,0,0,1-.68,4,6.81,6.81,0,0,1-2.64,3.07,8.16,8.16,0,0,1-1.83.84,19,19,0,0,1-1.95.35v-.05a9.45,9.45,0,0,0,3.56-1.46,6.62,6.62,0,0,0,2.41-2.95,10.14,10.14,0,0,0,.75-3.77,14.63,14.63,0,0,0-.46-3.84Z"/>
                  <path class="a5221539-9e25-44aa-97fc-147d3b8ece30" d="M332.15,271.89a9.36,9.36,0,0,1-2.81-1.84,11.42,11.42,0,0,1-2.1-2.68,9.88,9.88,0,0,1-1.19-4.92,13,13,0,0,1,.21-1.66h.05a12.42,12.42,0,0,0,.23,3.28,10.19,10.19,0,0,0,1.14,3.06,12.68,12.68,0,0,0,4.49,4.71Z"/>
                </g>
                <ellipse class="b38d4766-5eb0-4ca4-a394-f0771257e251" cx="218.65" cy="248.98" rx="11.98" ry="17.08" transform="translate(-74.38 403.68) rotate(-76.54)"/>
                <ellipse class="b38d4766-5eb0-4ca4-a394-f0771257e251" cx="354.21" cy="248.3" rx="17.08" ry="11.98" transform="translate(-38.41 66.73) rotate(-10.21)"/>
              </g>
            </g>
          </g>
          <path class="bc03e7da-96d0-4dae-881d-c63e943b4249" d="M73.94,271.53c6.63-4.3,15.39.91,15,8.8-.23,4.52-1.53,9.89-5.56,14.08-8.61,9-23.22,17.64-38.1,12.74s-21,7.21-25.69,14.49S-.29,328,.16,310.44c0,0-.46-23.57,18.92-33.54,0,0,7.47-6.14,29.58,1C62.19,282.29,67.87,275.47,73.94,271.53Z"/>
        </g>
      </g>
      <path class="bc03e7da-96d0-4dae-881d-c63e943b4249" d="M158.84,265.11s-35,30.54-6.2,55.88c16.91,14.91,25.05,23,31.49,24.42,9,1.95,18.74,21.26,16.4,28,0,0-4,14-10.62,5.29,0,0-12.7,16.46-31.54-9.06,0,0-.25-8.09,13-9.1,0,0-86.69-36.93-51.35-106.73C120.06,253.86,146.73,239,158.84,265.11Z"/>
      <path class="f991ccd9-dcc7-408a-99c5-488b82255fb6" d="M174.13,368.62s11.23.41-8.19-11.53"/>
    </g>
    <line class="bc03e7da-96d0-4dae-881d-c63e943b4249" x1="189.91" y1="378.75" x2="193.87" y2="371.03"/>
  </g>
</svg>
