<svg id="ec2a3a18-1102-4436-957c-aaa18d3f8dc8" data-name="Layer 1" xmlns="http://www.w3.org/2000/svg" width="270" height="290" viewBox="0 0 270 290">
  <defs>
    <style>
      .f5658bd4-a6f9-4ffe-922a-c0cbb66f8584 {
        fill: #ef4136;
      }

      .ae0123e4-3f15-44c2-af4e-d0085ad0bd5c, .e603cd91-bc4e-46ff-921b-3e2ec8a6d724 {
        fill: #fae599;
      }

      .ae0123e4-3f15-44c2-af4e-d0085ad0bd5c {
        stroke: #8e7717;
      }

      .ae0123e4-3f15-44c2-af4e-d0085ad0bd5c, .bc47f25c-451a-4486-bf16-2ae2038d1394 {
        stroke-miterlimit: 10;
      }

      .bc8f2ddb-2535-415d-80eb-0f5273a40897 {
        fill: #e5bb45;
        opacity: 0.5;
      }

      .bc47f25c-451a-4486-bf16-2ae2038d1394 {
        fill: #f3c63c;
        stroke: #af841b;
      }

      .ad2e1bd6-5ed8-4730-844e-85e1f3b1a729 {
        fill: #8e7717;
      }

      .aee37154-35b1-4c21-8c52-01416a88acb1 {
        fill: #872b23;
      }
    </style>
  </defs>
  <g>
    <path class="f5658bd4-a6f9-4ffe-922a-c0cbb66f8584" d="M62.1,62.42C45.89,58.73,49.7,26.33,44,25.47c-14.12,2.92-21,39-5.67,49.88-7,3.26-14.45,16.86-12.95,23.24,7-3.26,16.07-6.55,23.17-.85,11.78-11.63,13.75-21.24,13.54-36Z"/>
    <path class="ae0123e4-3f15-44c2-af4e-d0085ad0bd5c" d="M198.64,182c-23.7-6.69-50.56.47-72.6-8.53-10.66-4.33-17.64-12.06-22.91-21,16.88,3.34,38.89,5,51.37-2.52,7.84-4.75,2.22-8.51.95-15.07-1.7-8.76,1.77-18.76,3.32-27.37,1.91-10.64,1.4-20.58-.14-31.2-3.06-21.07-22.78-37.48-45.06-42-15.88-3.2-33.39-.85-45.33,8.1C49.3,56.68,34.83,86.82,45.54,108.64a90.77,90.77,0,0,0,13.88,20.61c-.49,37.71,6.77,79.45,26.36,112.6,15.06,25.5,49.9,39.92,80.76,38.69,19.49-.78,34.06-2.25,48.69-14.81,11-9.43,17.47-21.9,17.82-35.71C233.58,208.52,222.34,188.67,198.64,182Z"/>
    <path class="bc8f2ddb-2535-415d-80eb-0f5273a40897" d="M231.82,218.44c0,.2,0,.41,0,.61-.34,13.81-6.83,26.28-17.81,35.71-14.64,12.56-29.21,14-48.7,14.8-30.85,1.24-65.7-13.18-80.75-38.68C70,206.33,62.3,177.07,59.46,148.23c1.89,32.14,9.64,65.57,25.9,93.09,15.06,25.49,49.9,39.91,80.76,38.68,19.49-.78,34-2.25,48.69-14.81,11-9.42,17.47-21.89,17.82-35.71A56.1,56.1,0,0,0,231.82,218.44Z"/>
    <path class="bc47f25c-451a-4486-bf16-2ae2038d1394" d="M112.75,201.4c-2.72-14.71,4.25-25.47,19.6-25.6,5.42-.05,10.46,3.07,15,6.06,10.58,7,19.16,16.41,29.19,22.93,11.13,7.41,24,10.46,36.51,11.62-13.38,12.14-45.79,5.5-61.77-2.57,6,4.86,10.89,12.15,18.06,15.52-7.94.94-15.12-2.43-23.35-3.38,2.31,2.71,5.58,5.37,7.89,8.07C138.94,235.87,115.44,215.92,112.75,201.4Z"/>
    <path class="bc47f25c-451a-4486-bf16-2ae2038d1394" d="M209.3,190c10.62-8.16,25.14-9.45,34.42-23.36,3.33,11.49-1.58,21.9-6.49,32.31a66.5,66.5,0,0,1,6.88-5.82c0,3.45-1.81,6.34-4.93,9.25,1.26-.58,1.88-1.17,3.14-1.76.09,6.34-9.84,19.09-17.46,16.29-3.83-1.69-9.74-17.18-13-21.19Z"/>
    <g>
      <path class="e603cd91-bc4e-46ff-921b-3e2ec8a6d724" d="M126.31,47.63c8.23-13.9-16.37-24.41-15.72-38.24h0c-.75,6.91-1.48,14.6,2,21.48-1.74-3.83-4.31-6.87-6-9.93,0,2.31.08,4.61.12,7.68A10.26,10.26,0,0,1,104.9,24a113.62,113.62,0,0,0-.6,16.89h0q15.15-1.29,22.92,11.3Z"/>
      <path class="ad2e1bd6-5ed8-4730-844e-85e1f3b1a729" d="M126.31,47.63a11.59,11.59,0,0,0,1.57-5.16,12.23,12.23,0,0,0-1-5.27c-1.43-3.33-3.79-6.16-6.11-8.94s-4.81-5.48-6.91-8.52a24.91,24.91,0,0,1-2.67-4.86,13.44,13.44,0,0,1-1-5.51l.87.07a70.51,70.51,0,0,0-.55,10.85A25.67,25.67,0,0,0,113,30.65l-.88.42a38.41,38.41,0,0,0-2.85-5c-1.06-1.62-2.19-3.2-3.16-4.92l.89-.24.1,7.67,0,1.81-.88-1.57c-.4-.73-.82-1.46-1.17-2.25a6.62,6.62,0,0,1-.63-2.57l.89.06a71,71,0,0,0-.63,8.38c-.08,2.81-.07,5.63,0,8.45l-.39-.36a25.51,25.51,0,0,1,13.34,2.27,23.94,23.94,0,0,1,9.68,9.35l-.15.06Zm0,0,1,4.58.1.44-.25-.39a23.66,23.66,0,0,0-9.76-9,25,25,0,0,0-13.06-2l-.38,0v-.39a108.21,108.21,0,0,1,.51-17l.89.06a10.09,10.09,0,0,0,1.71,4.37l-.86.24L106.05,21l0-1.86.93,1.62c1,1.65,2.08,3.22,3.15,4.84A34.8,34.8,0,0,1,113,30.66l-.88.43a26.55,26.55,0,0,1-2.59-10.76,71.9,71.9,0,0,1,.61-11l.86.07c-.17,3.55,1.43,6.94,3.41,9.92s4.43,5.74,6.74,8.56a36.65,36.65,0,0,1,6,9.19,12.49,12.49,0,0,1,.92,5.4A11.54,11.54,0,0,1,126.31,47.63Z"/>
    </g>
    <path class="aee37154-35b1-4c21-8c52-01416a88acb1" d="M73.7,44.84c-1.81-.64-2.35.79-2.25,2.19,0,0,5.37,5.21,3.88,12C79,55.65,78.57,46.57,73.7,44.84Z"/>
    <path class="bc8f2ddb-2535-415d-80eb-0f5273a40897" d="M101.83,151.78c-7.46-1.32-28.91-9.3-42.06-23.26,2.2,12.73,11.52,34.35,51.62,36A91.56,91.56,0,0,1,101.83,151.78Z"/>
  </g>
</svg>
