<svg id="a00bf418-828d-4488-a0b3-570903a8f8c6" data-name="Layer 1" xmlns="http://www.w3.org/2000/svg" width="230" height="270" viewBox="0 0 230 270">
  <defs>
    <style>
      .b941b756-3682-4b3c-851f-b434f580c293, .bf2c40cc-d020-48ab-aece-4a15a528ce26 {
        fill: #ffe309;
        stroke-width: 0.75px;
      }

      .b941b756-3682-4b3c-851f-b434f580c293 {
        stroke: #665608;
      }

      .b941b756-3682-4b3c-851f-b434f580c293, .be98aa91-a06d-4255-a27a-c928e5fe6eb2, .bf2c40cc-d020-48ab-aece-4a15a528ce26 {
        stroke-miterlimit: 10;
      }

      .bf2c40cc-d020-48ab-aece-4a15a528ce26 {
        stroke: #493c05;
      }

      .ae15f418-9805-432e-9f39-7b2ee24a201c {
        fill: #ecc516;
      }

      .be98aa91-a06d-4255-a27a-c928e5fe6eb2 {
        fill: #532900;
        stroke: #3a1c03;
      }

      .ff1c89f3-8c21-4272-b2ca-41cd58fa5980 {
        fill: #681a1a;
      }

      .b456d7d6-5e65-4ef8-9937-34203c8ad0aa {
        fill: #ef7089;
      }

      .a9b20520-e44e-4145-b73e-87f12c2520bb {
        fill: #ff5763;
      }

      .fdafccb0-b7eb-4ec0-b284-7b0cc3332c09 {
        fill: #fff;
      }

      .ab813345-a59b-4783-96d0-92f3fccc6008 {
        fill: #ef304c;
      }

      .a940fbef-a22c-4cc1-960b-c206a381e4d9 {
        fill: #ffa979;
      }
    </style>
  </defs>
  <g>
    <path class="b941b756-3682-4b3c-851f-b434f580c293" d="M148.84,224.67s6.85-.16,6.41,7.45-3.7,12.87,3.57,15,15.28,3.75,17.4-3.51-8.35-8.72-6.56-14.29,2.22-16.47-11-18.47S148.84,224.67,148.84,224.67Z"/>
    <g>
      <path class="b941b756-3682-4b3c-851f-b434f580c293" d="M105.05,69.36S94.83,67.81,85.76,45.7,91.56.81,103.49,1.34,114.12,11.92,102.36,18s-15.18,33.43,6.18,48.93C108.54,66.91,120.07,79.83,105.05,69.36Z"/>
      <path class="b941b756-3682-4b3c-851f-b434f580c293" d="M139.77,73.2s-1.71-18.9,2.81-31.11,18.67-38.85,36.53-31.78c0,0,5.12,4,2.64,8.6s-7.31,5.76-11.85,2.85-31.62,17-25.54,50.68C144.36,72.44,143.07,81.63,139.77,73.2Z"/>
      <path class="b941b756-3682-4b3c-851f-b434f580c293" d="M154.36,152s3.69,4.11,30.32-3.18c0,0,10.9-2.71,16.3-6.2s18.16-9,21.8-6.79,3.1,6.59-3.8,6.69l-6.7,1.05s8.1-.56,7,8.55-9.93-3.23-9.93-3.23l5.16,7s-3.44,6.72-11.43-2.64c0,0-1.45,4.73-18.27,11.82s-36,7.67-36,7.67Z"/>
      <path class="bf2c40cc-d020-48ab-aece-4a15a528ce26" d="M156.06,144.13c5.78,8.58,9.45,17,10.87,25.59a49.28,49.28,0,0,1-.53,18.91l0,0a62.53,62.53,0,0,1-4.87,13.82c-.4.83-.82,1.66-1.27,2.47A66.55,66.55,0,0,1,148.1,221c-9.53,9.35-20.75,15.21-29.67,18.91-2.13.9-4.14,1.65-5.93,2.32-13.56,5-19.2,12.83-19.2,12.83,1.27-7.9-3-15.62-7.39-24.16-4-7.77-8.06-16.21-7.94-26.07,0-.51,0-1,0-1.55a43.38,43.38,0,0,1,1.5-9.16,58.73,58.73,0,0,1,5.37-13,3.54,3.54,0,0,1,.19-.33A78.28,78.28,0,0,1,92.4,170a62.11,62.11,0,0,1,5.21-5.87c11.93-11.32,6.72-23.08,6.72-23.08l43.94-7.11A114.55,114.55,0,0,1,156.06,144.13Z"/>
      <path class="ae15f418-9805-432e-9f39-7b2ee24a201c" d="M154.34,143.24c-3.76,6.67-9.84,12.57-17.91,18.76-16.72,12.82-35.21,17.09-42.49,10.07a62.45,62.45,0,0,1,6-9.4,48.52,48.52,0,0,1,4.33-5c10-9.66,5-20.37,5-20.37l38.08-4.66C150,135.79,152.23,140.13,154.34,143.24Z"/>
      <path class="be98aa91-a06d-4255-a27a-c928e5fe6eb2" d="M118.66,239.14c-2.12.89-4.37,2.43-6.16,3.1-13.56,5-19.2,12.83-19.2,12.83,1.27-7.9-3.22-16.72-7.58-25.26C90.75,234.83,101.69,242.33,118.66,239.14Z"/>
      <path class="be98aa91-a06d-4255-a27a-c928e5fe6eb2" d="M166.93,169.72a49.28,49.28,0,0,1-.53,18.91l0,0c-6.6,5.06-20.84,12.61-45.65,10.91-15.25-1.05-27.15-9.23-35.85-18.43A78.93,78.93,0,0,1,92.4,170c6.95,7.17,19.93,16.77,38.39,15.09C148.88,183.41,160.66,175.44,166.93,169.72Z"/>
      <path class="be98aa91-a06d-4255-a27a-c928e5fe6eb2" d="M160.24,204.94A66.55,66.55,0,0,1,148.1,221c-8.52,4.72-21.55,9.8-35.62,7.4C95.28,225.5,85.05,215.06,78,204.84c0-.51,0-1,0-1.55a43.38,43.38,0,0,1,1.5-9.16c6.09,7.51,18,18.86,35.05,19.67C134.72,214.76,153.25,207.91,160.24,204.94Z"/>
      <g>
        <path class="b941b756-3682-4b3c-851f-b434f580c293" d="M185.56,129.45c-1.57,22.75-22.09,34.46-46,37.57h-.08a109.3,109.3,0,0,1-24,.36c-32.41-3-47.62-21.62-42.79-54.26,3.63-24.54,19.7-47.09,43.21-52.8a50.31,50.31,0,0,1,16.63-1.16C165,62.19,187.88,95.77,185.56,129.45Z"/>
        <path class="ae15f418-9805-432e-9f39-7b2ee24a201c" d="M141.43,166.26a109.93,109.93,0,0,1-24,.33c-32.4-3-47.64-21.46-42.83-53.8,3.61-24.31,19.66-46.65,43.16-52.29-10.57,6.14-30.67,21.79-32.85,52.92C82.07,153.85,114.08,167.23,141.43,166.26Z"/>
        <g>
          <g>
            <g>
              <g>
                <path class="ff1c89f3-8c21-4272-b2ca-41cd58fa5980" d="M162.44,132.17s-1,10.79-7,18.42a19.26,19.26,0,0,1-5.9,5.21c-8.86,4.92-19.54,3.53-26.16-6.91a7.91,7.91,0,0,1-.44-.68,37.78,37.78,0,0,1-4-9.69s19.53,4.52,37.07-3A42.88,42.88,0,0,0,162.44,132.17Z"/>
                <path class="b456d7d6-5e65-4ef8-9937-34203c8ad0aa" d="M162.46,132.13a28,28,0,0,1-.45,3.65c-.22,1.19-.47,2.38-.78,3.56a40.66,40.66,0,0,1-2.45,6.89,28.36,28.36,0,0,1-4,6.17,18.72,18.72,0,0,1-5.89,4.55,19.69,19.69,0,0,1-14.62,1.62A18.84,18.84,0,0,1,127.6,155a24.33,24.33,0,0,1-4.94-5.63l0,.06a25.46,25.46,0,0,1-1.47-2.58q-.66-1.31-1.2-2.64a43.19,43.19,0,0,1-1.8-5.47l-.34-1.31,1.33.28a66.81,66.81,0,0,0,11,1.32,70.83,70.83,0,0,0,11.09-.28,60.46,60.46,0,0,0,10.9-2.17c.9-.24,1.76-.59,2.64-.89s1.75-.62,2.6-1A48.61,48.61,0,0,0,162.46,132.13Zm-.05.09a36.8,36.8,0,0,1-4.86,2.71c-.85.41-1.71.76-2.59,1.09s-1.74.71-2.63,1a56.23,56.23,0,0,1-11,2.42,71.27,71.27,0,0,1-11.22.47A68.62,68.62,0,0,1,119,138.61l.11-.11a41.32,41.32,0,0,0,1.79,5.34,32.25,32.25,0,0,0,2.58,5h0a23.75,23.75,0,0,0,4.72,5.42,17.84,17.84,0,0,0,6.28,3.43,19.16,19.16,0,0,0,14-1.44c4.43-2,7.63-6,9.79-10.27A44.4,44.4,0,0,0,162.41,132.22Z"/>
              </g>
              <path class="a9b20520-e44e-4145-b73e-87f12c2520bb" d="M152.14,149.88c2.06,3.38-1.14,5-3.29,6.23-8,4.62-19.61,2-25.53-7.71,2-1.24,5.42-2.1,11.31-1C134.63,147.41,145.7,144.12,152.14,149.88Z"/>
              <path class="fdafccb0-b7eb-4ec0-b284-7b0cc3332c09" d="M144.8,148.79a38.2,38.2,0,0,1-10,1.6,15.53,15.53,0,0,1-15.3-11.31l0-.11s19,4.67,36.56-2.85C156.83,140.79,155.05,145.75,144.8,148.79Z"/>
            </g>
            <path class="ab813345-a59b-4783-96d0-92f3fccc6008" d="M116.62,132.36a5.28,5.28,0,0,1,.85,4.23,3.7,3.7,0,0,1-1.26,1.9,4.56,4.56,0,0,1-1,.57,6.78,6.78,0,0,1-1.06.25l0-.05a5.08,5.08,0,0,0,1.78-1,3.59,3.59,0,0,0,1-1.75,6.59,6.59,0,0,0-.42-4.08Z"/>
            <path class="ab813345-a59b-4783-96d0-92f3fccc6008" d="M165.6,134.22a4.19,4.19,0,0,1-1.73-.65,5.78,5.78,0,0,1-1.39-1.27,5.07,5.07,0,0,1-.81-1.71,4,4,0,0,1-.06-1.85h0a6.36,6.36,0,0,0,.37,1.73,5.8,5.8,0,0,0,.85,1.54,6.77,6.77,0,0,0,2.74,2.17Z"/>
          </g>
          <ellipse class="a940fbef-a22c-4cc1-960b-c206a381e4d9" cx="103.29" cy="130.65" rx="6.46" ry="9.21" transform="translate(-36.36 221.39) rotate(-84.68)"/>
          <ellipse class="a940fbef-a22c-4cc1-960b-c206a381e4d9" cx="175.58" cy="119.94" rx="9.21" ry="6.46" transform="translate(-28.84 61.39) rotate(-18.35)"/>
        </g>
      </g>
      <path class="b941b756-3682-4b3c-851f-b434f580c293" d="M89.37,176.67s-1.34-6.26,3.84-8.62,16.35,7.9,21.46,16,17,6.57,17,6.57,3.58-11,7.88-9.4-.54,10-.54,10,6.92-2.45,8.93-8c0,0,4.32-1.56,3.56,4.76l-4.59,5.16,5.28-4.75s2.91,2.69-4.25,10.26-33.26,4.95-51-10.37C96.89,188.32,91.23,183.62,89.37,176.67Z"/>
      <path class="b941b756-3682-4b3c-851f-b434f580c293" d="M97.31,230.31a5.27,5.27,0,0,1,4.21-8.36,11.59,11.59,0,0,1,7.77,2.5c5.12,4.31,10.3,11.87,8.19,20.05s4.61,11.06,8.7,13.3,4.13,10.46-5.35,10.83c0,0-12.66,1.08-18.7-9,0,0-3.57-3.8-.5-15.95C103.51,236.26,99.64,233.44,97.31,230.31Z"/>
    </g>
  </g>
</svg>
