<svg id="e0d9c818-ffc2-4a49-b414-2785ddac2dc7" data-name="Layer 1" xmlns="http://www.w3.org/2000/svg" width="105.88" height="55.06" viewBox="0 0 105.88 55.06">
  <defs>
    <style>
      .a8934b51-4640-48cc-92eb-f11ec8d615d9 {
        fill: #531515;
      }

      .aaa6a53b-5026-4363-9116-9cd71dad4a93, .eab02b49-cb88-4a99-bc5c-f1a521a14997 {
        fill: #fff;
      }

      .a2d69c39-a5cf-4801-9c01-c5df0c33d991, .aaa6a53b-5026-4363-9116-9cd71dad4a93 {
        stroke: #422a2a;
        stroke-miterlimit: 10;
        stroke-width: 0.75px;
      }

      .fec92071-a723-4088-be01-3412ee731be2 {
        fill: #361212;
      }

      .a2d69c39-a5cf-4801-9c01-c5df0c33d991 {
        fill: #f5b1a3;
      }
    </style>
  </defs>
  <g>
    <g>
      <path class="a8934b51-4640-48cc-92eb-f11ec8d615d9" d="M67.61,14.94S82.5,9.09,87,8.87s11.85,4.32,12.65,4.25S94.77,4.26,86.18,4,66.52,8.79,66.11,10.26,65.46,15.77,67.61,14.94Z"/>
      <path class="a8934b51-4640-48cc-92eb-f11ec8d615d9" d="M36.8,17.64S21.12,14.47,16.65,15,5.73,21.35,4.94,21.42,8.2,11.85,16.62,10.13s20.19,1.27,20.84,2.64S39.07,18.08,36.8,17.64Z"/>
      <g>
        <path class="aaa6a53b-5026-4363-9116-9cd71dad4a93" d="M11.17,37.58a9.72,9.72,0,0,0,1.25,7c1,1.72,5.94,6.36,13.37,6,6.5-.32,8.89-2,10.12-3s2.69-1.91,2.8-3.77-1.65-15.05-13.65-16.2S10.18,34.34,11.17,37.58Z"/>
        <path class="a8934b51-4640-48cc-92eb-f11ec8d615d9" d="M15.57,38.51a9,9,0,1,1,9.73,8.16A9,9,0,0,1,15.57,38.51Z"/>
        <path class="eab02b49-cb88-4a99-bc5c-f1a521a14997" d="M26.81,35.3a2.13,2.13,0,1,1,2.31,1.94A2.13,2.13,0,0,1,26.81,35.3Z"/>
        <path class="fec92071-a723-4088-be01-3412ee731be2" d="M37.79,38.82c0,.29-1.94-7.46-12.12-8.79s-13.82,4.9-14.14,6a9.11,9.11,0,0,0-.36,1.63A25.88,25.88,0,0,1,7,34.75c-1.43-1.36-1.45-1.7-1.45-1.7s3.42-8.39,18-7.94C31.5,25.36,38,33.15,37.79,38.82Z"/>
      </g>
      <g>
        <path class="aaa6a53b-5026-4363-9116-9cd71dad4a93" d="M96,30.15s1.51,3.79,0,7.14c-.82,1.81-4.7,7.83-12.13,8.23-6.59.36-9.11-.46-10.48-1.15s-3-1.42-3.41-3.22S68.94,26,80.56,22.82,96.37,26.78,96,30.15Z"/>
        <path class="a8934b51-4640-48cc-92eb-f11ec8d615d9" d="M91.79,31.83a9,9,0,1,0-8.16,9.72A9,9,0,0,0,91.79,31.83Z"/>
        <path class="eab02b49-cb88-4a99-bc5c-f1a521a14997" d="M89.89,29.78A2.14,2.14,0,1,0,88,32.1,2.13,2.13,0,0,0,89.89,29.78Z"/>
        <path class="fec92071-a723-4088-be01-3412ee731be2" d="M70,36c.06.27.62-7.69,10.41-10.78s14.46,2.42,15,3.45A8.63,8.63,0,0,1,96,30.22a26.6,26.6,0,0,0,3.61-3.58c1.16-1.59,1.13-1.93,1.13-1.93S95.88,17,81.64,20C73.81,21.65,68.73,30.46,70,36Z"/>
      </g>
    </g>
    <path class="a2d69c39-a5cf-4801-9c01-c5df0c33d991" d="M10.88,37.35s1.59-8.59,14.47-7.53c0,0,8.89.24,12.24,8.83C37.59,38.65,23.65,32.82,10.88,37.35Z"/>
    <path class="a2d69c39-a5cf-4801-9c01-c5df0c33d991" d="M97,31.85s-1.59-8.59-14.47-7.53c0,0-8.89.23-12.24,8.82C70.26,33.14,84.2,27.32,97,31.85Z"/>
  </g>
</svg>
