<svg id="aacb54cd-a877-45ac-aca5-951a2a11c95f" data-name="Layer 1" xmlns="http://www.w3.org/2000/svg" width="160" height="160" viewBox="0 0 160 160">
  <defs>
    <style>
      .a0083d5b-84e5-4022-8eb4-5705e04d2a85, .b85dc2ee-7dd3-4b65-b63f-e8fac1dbb0fe {
        fill: #ffe309;
        stroke-width: 0.75px;
      }

      .b85dc2ee-7dd3-4b65-b63f-e8fac1dbb0fe {
        stroke: #665608;
      }

      .a0083d5b-84e5-4022-8eb4-5705e04d2a85, .b85dc2ee-7dd3-4b65-b63f-e8fac1dbb0fe, .eb485db2-25ab-4e7b-b5f7-23ce21ee76f0 {
        stroke-miterlimit: 10;
      }

      .a0083d5b-84e5-4022-8eb4-5705e04d2a85 {
        stroke: #493c05;
      }

      .a64063a0-9f58-4b85-8873-9aceca27b663 {
        fill: #ecc516;
      }

      .eb485db2-25ab-4e7b-b5f7-23ce21ee76f0 {
        fill: #532900;
        stroke: #3a1c03;
      }

      .ba2e6ae2-8bea-4daa-ba2f-556d98ba03e8 {
        fill: #681a1a;
      }

      .ad8784f4-3b05-40ab-913f-ab88a206a3fc {
        fill: #ef7089;
      }

      .a8e8add8-fcca-4513-b770-30170767117d {
        fill: #ff5763;
      }

      .e71b2f59-d9eb-4c72-9b3a-b16e55fb6c74 {
        fill: #fff;
      }

      .f2120436-3037-4f2b-86ad-b2d1197267e2 {
        fill: #ef304c;
      }

      .a8a8ac60-2e5c-476b-b70f-09ce448df41c {
        fill: #ffa979;
      }
    </style>
  </defs>
  <g>
    <path class="b85dc2ee-7dd3-4b65-b63f-e8fac1dbb0fe" d="M46.61,136.63s.87,3.88-3.5,4.5-7.75-.62-8.13,3.75-.37,9.13,4,9.5,4-5.75,7.38-5.37,9.62-.63,9.25-8.38S46.61,136.63,46.61,136.63Z"/>
    <g>
      <path class="b85dc2ee-7dd3-4b65-b63f-e8fac1dbb0fe" d="M97.61,104.64s-1,3,10.21,14.45c0,0,4.46,4.75,7.76,6.49s9.72,6.64,9.63,9.12-2.46,3.43-4.47,0l-2.44-3.09s2.59,3.94-2.34,6-1.18-5.95-1.18-5.95l-2.08,4.6s-4.38.16-1.91-6.54c0,0-2.81.61-11.17-5.9s-14.1-16.06-14.1-16.06Z"/>
      <path class="a0083d5b-84e5-4022-8eb4-5705e04d2a85" d="M97.21,108a37.69,37.69,0,0,1-4,15.63,28.6,28.6,0,0,1-6.92,8.52h0a36.41,36.41,0,0,1-7.13,4.65c-.48.24-1,.47-1.46.69a38.74,38.74,0,0,1-11.27,3.11A54.25,54.25,0,0,1,46,138.78c-1.3-.34-2.49-.7-3.55-1-8-2.49-13.38-.87-13.38-.87,3.38-3.18,4.12-8.26,5.13-13.73.91-5,2-10.32,5.56-14.81.18-.24.36-.47.56-.71A25.24,25.24,0,0,1,44.29,104a33.94,33.94,0,0,1,7.07-4.09l.2-.09a46.5,46.5,0,0,1,7.2-2.4,36.12,36.12,0,0,1,4.48-.86c9.49-1,11.25-8.25,11.25-8.25l22.74,12.25A65.92,65.92,0,0,1,97.21,108Z"/>
      <path class="a64063a0-9f58-4b85-8873-9aceca27b663" d="M96.73,107c-4.09,1.74-9,2.31-14.87,2.31-12.23,0-22.26-4.57-23.13-10.37a36.09,36.09,0,0,1,6.08-2.22,28.25,28.25,0,0,1,3.77-.8c8-.92,9.49-7.61,9.49-7.61l19.18,11.3A71.6,71.6,0,0,1,96.73,107Z"/>
      <path class="eb485db2-25ab-4e7b-b5f7-23ce21ee76f0" d="M46.42,138.51c-1.29-.34-2.87-.43-3.93-.76-8-2.49-13.38-.87-13.38-.87,3.38-3.18,4.43-8.84,5.44-14.31C35.09,126.66,37.48,134,46.42,138.51Z"/>
      <path class="eb485db2-25ab-4e7b-b5f7-23ce21ee76f0" d="M93.17,123.59a28.6,28.6,0,0,1-6.92,8.52h0c-4.84,0-14.06-1.55-24.88-11.1-6.66-5.87-9.25-13.84-10-21.15a45.94,45.94,0,0,1,7.4-2.49c.67,5.76,3.25,14.77,12.35,20.52A35.49,35.49,0,0,0,93.17,123.59Z"/>
      <path class="eb485db2-25ab-4e7b-b5f7-23ce21ee76f0" d="M77.65,137.45a38.74,38.74,0,0,1-11.27,3.11c-5.59-.84-13.39-3.1-19-9.18-6.89-7.42-7.91-15.84-7.56-23,.18-.24.36-.47.56-.71A25.24,25.24,0,0,1,44.29,104c.15,5.61,1.63,15,9.19,21.44C62.43,133,73.38,136.34,77.65,137.45Z"/>
      <g>
        <path class="b85dc2ee-7dd3-4b65-b63f-e8fac1dbb0fe" d="M97,47.39s-5.81-3.16-6.46-18.45S103.85,3.17,110.91,6.09s4.1,8.69-4.3,9.77S90.18,32.69,99.67,46.67C99.67,46.67,103.8,57,97,47.39Z"/>
        <path class="b85dc2ee-7dd3-4b65-b63f-e8fac1dbb0fe" d="M115.48,55.69s4.27-11.38,10.27-17.16,21.57-17.22,29.91-8.18c0,0,1.83,3.74-.87,5.7s-5.82,1.28-7.63-1.66-23,1-28.83,22.14C118.33,56.53,115,61.47,115.48,55.69Z"/>
        <g>
          <path class="b85dc2ee-7dd3-4b65-b63f-e8fac1dbb0fe" d="M124.67,104.91c-6.93,12.85-22,14.25-36.74,9.75h-.05a70,70,0,0,1-14.09-6.14c-18.11-10.33-22.06-25.2-10.61-43,8.6-13.35,23.94-22.25,39.16-19.37a32.05,32.05,0,0,1,10,3.72C130.46,60.24,134.93,85.88,124.67,104.91Z"/>
          <path class="a64063a0-9f58-4b85-8873-9aceca27b663" d="M89.2,114.7a70.26,70.26,0,0,1-14.09-6.15C57,98.22,53,83.44,64.36,65.84c8.53-13.22,23.8-22,39-19.08A41.72,41.72,0,0,0,70.21,68.94C57.86,91.77,73,108,89.2,114.7Z"/>
          <g>
            <g>
              <g>
                <g>
                  <path class="ba2e6ae2-8bea-4daa-ba2f-556d98ba03e8" d="M110.46,100.38s-3.44,6-8.92,8.9a12.16,12.16,0,0,1-4.82,1.47c-6.47.54-12.33-3.1-13.44-10.94,0-.17,0-.34-.07-.51a24.21,24.21,0,0,1,.26-6.7s10.19,7.8,22.41,8.05A27.33,27.33,0,0,0,110.46,100.38Z"/>
                  <path class="ad8784f4-3b05-40ab-913f-ab88a206a3fc" d="M110.5,100.35a21.28,21.28,0,0,1-2.55,4,25.53,25.53,0,0,1-3.23,3.43,18.09,18.09,0,0,1-4,2.6A12.42,12.42,0,0,1,96,111.5a12.83,12.83,0,0,1-9.16-3,13.84,13.84,0,0,1-4.44-8.6V100a18.29,18.29,0,0,1-.18-2c0-.63,0-1.25,0-1.88a28.65,28.65,0,0,1,.42-3.71l.23-1.33,1.1.81a42.59,42.59,0,0,0,6,3.66,46.12,46.12,0,0,0,6.49,2.82,39.26,39.26,0,0,0,6.88,1.68c1.17.14,2.35.29,3.54.32S109.21,100.42,110.5,100.35Zm-.08.06a21.4,21.4,0,0,1-3.54.3c-1.2,0-2.4-.08-3.59-.17a35.89,35.89,0,0,1-7-1.48,44.71,44.71,0,0,1-6.67-2.69,43.92,43.92,0,0,1-6.18-3.7l.15,0a26.81,26.81,0,0,0-.37,3.58,20.43,20.43,0,0,0,.19,3.59h0a13,13,0,0,0,4.06,8A12.23,12.23,0,0,0,96,110.71a13.81,13.81,0,0,0,8.41-3.39A28.77,28.77,0,0,0,110.42,100.41Z"/>
                </g>
                <path class="a8e8add8-fcca-4513-b770-30170767117d" d="M99.77,108c.32,2.52-2,2.61-3.56,2.77-5.87.58-12-4-12.85-11.25,1.48-.2,3.71.2,6.86,2.41C90.22,101.91,97.54,102.92,99.77,108Z"/>
                <path class="e71b2f59-d9eb-4c72-9b3a-b16e55fb6c74" d="M95.79,105.41a24.78,24.78,0,0,1-6.27-1.72,10,10,0,0,1-5.94-10.64l0-.08s9.85,7.76,22.07,8C104.91,103.92,102.56,106.35,95.79,105.41Z"/>
              </g>
              <path class="f2120436-3037-4f2b-86ad-b2d1197267e2" d="M83.7,88.37a2.88,2.88,0,0,1,.1,1.43,3.41,3.41,0,0,1-.6,1.37,2.47,2.47,0,0,1-1.33.79,2.38,2.38,0,0,1-.75,0,3.22,3.22,0,0,1-.69-.2v-.05a3.45,3.45,0,0,0,1.32-.15,2.25,2.25,0,0,0,1.06-.74,4.23,4.23,0,0,0,.84-2.48Z"/>
              <path class="f2120436-3037-4f2b-86ad-b2d1197267e2" d="M111.76,102.41a2.3,2.3,0,0,1-.94-.78,3.53,3.53,0,0,1-.52-1.13,3.14,3.14,0,0,1,0-1.26,2.34,2.34,0,0,1,.57-1.09l.05,0a3.83,3.83,0,0,0-.14,2.22,4.34,4.34,0,0,0,1,2Z"/>
            </g>
            <ellipse class="a8a8ac60-2e5c-476b-b70f-09ce448df41c" cx="76.37" cy="83.85" rx="4.14" ry="5.9" transform="translate(-34.3 108.63) rotate(-60.29)"/>
            <ellipse class="a8a8ac60-2e5c-476b-b70f-09ce448df41c" cx="121.36" cy="96.72" rx="4.14" ry="5.9" transform="translate(12.42 207.24) rotate(-83.96)"/>
          </g>
        </g>
      </g>
      <path class="b85dc2ee-7dd3-4b65-b63f-e8fac1dbb0fe" d="M59.42,99.07s2.53,2.72.66,5.44-10.5.94-15.47-1.59S34.2,104.7,34.2,104.7s1.5,6.56-1.12,7-2.72-5.16-2.72-5.16-2.72,3.28-2.06,6.66c0,0-1.69,2.06-3.19-1.31l.75-3.94-1.22,3.94s-2.25-.47-.94-6.38,15.1-12.37,28.5-10A14.94,14.94,0,0,1,59.42,99.07Z"/>
      <path class="b85dc2ee-7dd3-4b65-b63f-e8fac1dbb0fe" d="M39.68,120.54a3.06,3.06,0,0,1,4.63,2.85,6.74,6.74,0,0,1-1.83,4.37c-2.75,2.75-7.37,5.37-12,3.75s-6.62,2.12-8.12,4.37-6.25,1.88-6-3.62c0,0,0-7.38,6.13-10.38,0,0,2.37-1.87,9.24.5C35.94,123.84,37.76,121.74,39.68,120.54Z"/>
    </g>
  </g>
</svg>
