<svg id="bd63d122-1852-4181-b14f-244b8cfbd897" data-name="Layer 1" xmlns="http://www.w3.org/2000/svg" width="269.18" height="242.35" viewBox="0 0 269.18 242.35">
  <defs>
    <style>
      .bb702462-7808-410d-9204-d3418c1f2a8f {
        fill: #bcfde5;
      }

      .e77e64b3-592c-45a6-8cde-244f3e8d162e {
        fill: #ebf7f2;
      }
    </style>
  </defs>
  <g>
    <g>
      <path class="bb702462-7808-410d-9204-d3418c1f2a8f" d="M209.44,206.3c-24,13.63-61.46-39.91-83-77.82s-24.71-79.06-.67-92.7S176,52.59,197.54,90.51,233.48,192.66,209.44,206.3Z"/>
      <path class="e77e64b3-592c-45a6-8cde-244f3e8d162e" d="M209.46,206.34l-1.57.76c-.27.12-.53.26-.8.36l-.83.25c-.56.16-1.11.37-1.69.48l-1.73.25a19.77,19.77,0,0,1-6.93-.6,38.82,38.82,0,0,1-12.51-6.06c-7.65-5.34-14.18-12.08-20.29-19.07-3.06-3.51-6-7.14-8.79-10.83s-5.57-7.46-8.22-11.28c-5.32-7.63-10.33-15.47-15.12-23.44-2.39-4-4.75-8-7-12.08s-4.23-8.31-6.06-12.6a125.17,125.17,0,0,1-8.21-26.72c-1.63-9.19-2.12-18.74-.09-28a38.85,38.85,0,0,1,5.42-13.07A30.61,30.61,0,0,1,125.42,35a28.12,28.12,0,0,1,6.68-2.65,25.08,25.08,0,0,1,7.17-.66,32.06,32.06,0,0,1,13.53,4.22,59.34,59.34,0,0,1,11.36,8.32,107.75,107.75,0,0,1,9.69,10.13A199,199,0,0,1,190.15,77a233.24,233.24,0,0,1,13.57,24.4,214.87,214.87,0,0,1,10.1,26,193,193,0,0,1,6.54,27.12,126.35,126.35,0,0,1,1.55,13.86,87.81,87.81,0,0,1-.23,14,46,46,0,0,1-3.31,13.51A21.74,21.74,0,0,1,209.46,206.34Zm-.05-.08a21.66,21.66,0,0,0,8.82-10.44,46,46,0,0,0,3.23-13.47,86.14,86.14,0,0,0,.18-13.91,125.91,125.91,0,0,0-1.6-13.83,195,195,0,0,0-6.63-27,214.9,214.9,0,0,0-10.18-25.91A235.88,235.88,0,0,0,189.6,77.38a199.56,199.56,0,0,0-16.34-22.54,104.86,104.86,0,0,0-9.65-10,58.37,58.37,0,0,0-11.23-8.16,31.17,31.17,0,0,0-13.16-4.06,24.48,24.48,0,0,0-6.88.66,27.09,27.09,0,0,0-6.43,2.57,29.72,29.72,0,0,0-10.06,9.38A38,38,0,0,0,110.51,58c-2,9.07-1.6,18.53,0,27.65a124.85,124.85,0,0,0,8.06,26.6q2.72,6.42,6,12.57c2.2,4.09,4.55,8.1,6.91,12.09,4.75,8,9.73,15.83,15,23.47q3.94,5.75,8.16,11.29c2.81,3.7,5.7,7.34,8.74,10.85,6.07,7,12.56,13.76,20.16,19.11A38.49,38.49,0,0,0,196,207.69a19.48,19.48,0,0,0,6.88.62l1.72-.24c.57-.1,1.11-.31,1.67-.46l.83-.25c.27-.1.53-.24.79-.36Z"/>
    </g>
    <g>
      <path class="bb702462-7808-410d-9204-d3418c1f2a8f" d="M197.84,199c-22.3,16.32-65.66-32.54-91.4-67.72s-33.67-75.67-11.37-92,51.83,10.89,77.57,46.06S220.14,182.67,197.84,199Z"/>
      <path class="e77e64b3-592c-45a6-8cde-244f3e8d162e" d="M197.87,199l-1.48.93c-.25.15-.49.32-.75.45l-.8.35a17,17,0,0,1-1.61.66l-1.7.45a19.55,19.55,0,0,1-6.95.21,38.58,38.58,0,0,1-13.12-4.58c-8.22-4.42-15.49-10.35-22.37-16.6-3.44-3.13-6.75-6.4-10-9.74s-6.39-6.76-9.47-10.25c-6.16-7-12-14.17-17.73-21.53-2.83-3.69-5.63-7.39-8.32-11.2s-5.17-7.77-7.48-11.81a125.37,125.37,0,0,1-11.25-25.6C82.19,81.85,80.59,72.42,81.55,63a38.76,38.76,0,0,1,3.87-13.61,30.6,30.6,0,0,1,9.17-10.85,28.42,28.42,0,0,1,6.33-3.41,25.32,25.32,0,0,1,7-1.47,32.17,32.17,0,0,1,13.93,2.62,59.64,59.64,0,0,1,12.25,6.95,107.61,107.61,0,0,1,10.79,9,201,201,0,0,1,18.82,20.65A234.67,234.67,0,0,1,180,95.49a213.58,213.58,0,0,1,13,24.67,195,195,0,0,1,9.63,26.18,128.65,128.65,0,0,1,3.14,13.59,88.45,88.45,0,0,1,1.38,13.88,46,46,0,0,1-1.72,13.81A21.92,21.92,0,0,1,197.87,199Zm-.06-.08a21.72,21.72,0,0,0,7.55-11.39A46.27,46.27,0,0,0,207,173.81,88,88,0,0,0,205.59,160a128.14,128.14,0,0,0-3.19-13.55,193.74,193.74,0,0,0-9.72-26.09,214,214,0,0,0-13.1-24.56,234.72,234.72,0,0,0-16.35-22.54A199.8,199.8,0,0,0,144.4,52.73a108.11,108.11,0,0,0-10.74-8.83,59.07,59.07,0,0,0-12.1-6.81A31.21,31.21,0,0,0,108,34.59,24.35,24.35,0,0,0,101.26,36a28,28,0,0,0-6.08,3.3,29.75,29.75,0,0,0-8.92,10.48,38,38,0,0,0-3.83,13.28c-1,9.25.56,18.6,3.18,27.47a124.27,124.27,0,0,0,11.08,25.49q3.44,6.06,7.4,11.79c2.66,3.81,5.45,7.52,8.26,11.22,5.65,7.37,11.49,14.6,17.62,21.58q4.59,5.24,9.41,10.27c3.22,3.35,6.51,6.63,9.93,9.76,6.84,6.26,14.07,12.22,22.25,16.66a38.8,38.8,0,0,0,13,4.61,19.81,19.81,0,0,0,6.91-.18l1.68-.44c.55-.17,1.07-.44,1.6-.65l.8-.35c.26-.13.5-.3.74-.45Z"/>
    </g>
  </g>
</svg>
