<svg id="e5bc09cf-9017-4126-a1c7-7b02abe08964" data-name="Layer 1" xmlns="http://www.w3.org/2000/svg" width="26.97" height="30.02" viewBox="0 0 26.97 30.02">
  <defs>
    <style>
      .b99b59b9-8b14-4056-b4e9-3b5777aa841c {
        fill: #fff;
      }

      .f76ff97f-ba9b-43eb-aeef-4e6b6737f1a7 {
        fill: #1d2a2d;
      }

      .e8aa9d1f-113a-4850-ba6a-2c2b2fd400e9 {
        fill: #16272b;
      }

      .a7662d47-050b-4ea1-a963-ff50dcad91ba {
        fill: #daecef;
      }
    </style>
  </defs>
  <g>
    <g>
      <ellipse class="b99b59b9-8b14-4056-b4e9-3b5777aa841c" cx="13.87" cy="15.01" rx="11.89" ry="13.33"/>
      <path class="f76ff97f-ba9b-43eb-aeef-4e6b6737f1a7" d="M25.81,15a14.41,14.41,0,0,1-3.18,9.26,11.7,11.7,0,0,1-8.76,4.54,11.89,11.89,0,0,1-9.23-4.15A15.1,15.1,0,0,1,1.08,15,15.13,15.13,0,0,1,4.64,5.36a11.9,11.9,0,0,1,9.23-4.15,11.7,11.7,0,0,1,8.76,4.54A14.41,14.41,0,0,1,25.81,15Zm-.1,0A14.26,14.26,0,0,0,22.45,5.9a11.25,11.25,0,0,0-8.58-4.14A11.23,11.23,0,0,0,5.3,5.92,14.17,14.17,0,0,0,2.08,15,14.19,14.19,0,0,0,5.3,24.1a11.26,11.26,0,0,0,8.57,4.16,11.26,11.26,0,0,0,8.58-4.15A14.21,14.21,0,0,0,25.71,15Z"/>
    </g>
    <ellipse class="e8aa9d1f-113a-4850-ba6a-2c2b2fd400e9" cx="14.44" cy="15.35" rx="7.62" ry="8.54"/>
    <ellipse class="a7662d47-050b-4ea1-a963-ff50dcad91ba" cx="18.09" cy="11.28" rx="2.39" ry="2.68"/>
  </g>
</svg>
