<svg id="b60dedc7-7e5f-4542-9880-778ba9435336" data-name="Layer 1" xmlns="http://www.w3.org/2000/svg" width="157.8" height="112.05" viewBox="0 0 157.8 112.05">
  <defs>
    <style>
      .a9c6ca79-69f5-4b4b-9ff6-9561a3c4dc5f {
        fill: #cff3ff;
        stroke: #307382;
        stroke-miterlimit: 10;
      }

      .b8177e1b-e9a7-47b1-8725-0549b2deb557 {
        fill: #b0deea;
      }
    </style>
  </defs>
  <g>
    <g>
      <path class="a9c6ca79-69f5-4b4b-9ff6-9561a3c4dc5f" d="M49.63,106.46S79.29,74.12,97.36,42.4C115.84,10,156,26.38,140.57,65.19s-79.34,44.77-85.92,44C54.65,109.17,41.81,110.55,49.63,106.46Z"/>
      <path class="b8177e1b-e9a7-47b1-8725-0549b2deb557" d="M70,99.26S86.8,76.86,97.15,55c10.59-22.33,32.56-11.61,23.6,15s-44.35,31.45-48,31C72.77,101.05,65.67,102.14,70,99.26Z"/>
    </g>
    <path class="a9c6ca79-69f5-4b4b-9ff6-9561a3c4dc5f" d="M51.81,105s3.31-31.17.91-56.35C51.17,32.33,27.78,1.83,16.47,34.1,2.58,73.74,46.9,106.66,46.9,106.66S52.29,113.19,51.81,105Z"/>
  </g>
</svg>
