<svg id="e3776b89-e4b3-4959-895c-34298b9a21d4" data-name="Layer 1" xmlns="http://www.w3.org/2000/svg" width="146.56" height="81.23" viewBox="0 0 146.56 81.23">
  <defs>
    <style>
      .fd2dbc64-22c4-462b-b022-1e579c288253 {
        fill: #7d3a1b;
      }

      .aa4b3122-ac40-430a-ad31-7f101b892227 {
        fill: #fff;
      }

      .a45f65d8-673b-4622-8fa1-08a5299807a5 {
        fill: #121928;
      }

      .b2e4b442-ba72-4a56-bbfc-581ffecaa67a {
        fill: #9b4e24;
      }
    </style>
  </defs>
  <g>
    <g>
      <g>
        <path class="fd2dbc64-22c4-462b-b022-1e579c288253" d="M142.66,40.61c0,21.24-12.15,38.46-27.14,38.46S88.39,61.85,88.39,40.61,100.54,2.16,115.52,2.16,142.66,19.38,142.66,40.61Z"/>
        <path class="aa4b3122-ac40-430a-ad31-7f101b892227" d="M115.4,79.07c-13.27,0-24.07-15.27-24.07-34s10.8-34,24.07-34,24.06,15.27,24.06,34S128.67,79.07,115.4,79.07Z"/>
      </g>
      <ellipse class="a45f65d8-673b-4622-8fa1-08a5299807a5" cx="125.92" cy="53.21" rx="13.54" ry="18.35"/>
      <circle class="aa4b3122-ac40-430a-ad31-7f101b892227" cx="120.21" cy="40.79" r="3.81"/>
      <g>
        <g>
          <path class="fd2dbc64-22c4-462b-b022-1e579c288253" d="M33.68,43.05c-1.43,16.43-9.15,29.18-17.25,28.48s-13.5-14.6-12.07-31S13.51,11.31,21.61,12,35.11,26.62,33.68,43.05Z"/>
          <path class="aa4b3122-ac40-430a-ad31-7f101b892227" d="M33.4,46.28c-1.28,14.65-8.87,26-17,25.25S2.81,58.37,4.08,43.73s8.87-26,17-25.25S34.67,31.63,33.4,46.28Z"/>
        </g>
        <g>
          <path class="aa4b3122-ac40-430a-ad31-7f101b892227" d="M25.26,48.52a3.14,3.14,0,1,1-3.14-3A3.06,3.06,0,0,1,25.26,48.52Z"/>
          <path class="aa4b3122-ac40-430a-ad31-7f101b892227" d="M20.37,62.05A1.35,1.35,0,1,1,19,60.77,1.32,1.32,0,0,1,20.37,62.05Z"/>
          <path class="a45f65d8-673b-4622-8fa1-08a5299807a5" d="M33.71,42.7h0c-1.57-5.32-4.94-9.08-9.09-9.4-6.27-.5-11.91,7-12.65,16.64A23.44,23.44,0,0,0,14.22,62.4c1.87,3.58,4.61,5.68,7.72,5.92a5.68,5.68,0,0,0,.59,0A7.53,7.53,0,0,0,24.69,68C34.05,61.53,33.72,43.29,33.71,42.7Z"/>
        </g>
        <circle class="aa4b3122-ac40-430a-ad31-7f101b892227" cx="22.12" cy="37.51" r="3.81"/>
      </g>
    </g>
    <path class="b2e4b442-ba72-4a56-bbfc-581ffecaa67a" d="M4.26,41.77S6.49,21.52,18.62,18.45c0,0,11.51-2.87,14.52,17.38a59.09,59.09,0,0,1,.44,6.44S28.15,26.2,18.31,26.9C18.31,26.9,11.28,27.26,4.26,41.77Z"/>
    <path class="b2e4b442-ba72-4a56-bbfc-581ffecaa67a" d="M90.93,42.27s1.59-28.81,23.82-31.6c0,0,14.86-1.77,22.44,19.94,0,0,2.27,7.29,2.27,10.85A37.5,37.5,0,0,0,124,24.38c-6.7-3.89-14.23-1.58-20.53,3C102.68,28,94.63,33.3,90.93,42.27Z"/>
  </g>
</svg>
