<svg id="e40287cb-4fb9-4bea-98fd-93075eba667b" data-name="Layer 1" xmlns="http://www.w3.org/2000/svg" width="180" height="180" viewBox="0 0 180 180">
  <defs>
    <style>
      .af211a99-8d78-41c6-8cb4-a6267706057b, .bd94ec01-760a-437b-930a-b45a45b1e91e {
        fill: #ffe309;
        stroke-width: 0.75px;
      }

      .af211a99-8d78-41c6-8cb4-a6267706057b {
        stroke: #665608;
      }

      .af211a99-8d78-41c6-8cb4-a6267706057b, .bd94ec01-760a-437b-930a-b45a45b1e91e, .e58389fd-156e-4249-91b2-d2b79082f9bf {
        stroke-miterlimit: 10;
      }

      .bd94ec01-760a-437b-930a-b45a45b1e91e {
        stroke: #493c05;
      }

      .a23ea1ba-5467-4e8c-b963-c4c82d8b0e1a {
        fill: #ecc516;
      }

      .e58389fd-156e-4249-91b2-d2b79082f9bf {
        fill: #532900;
        stroke: #3a1c03;
      }

      .f4b69547-4ab4-480e-8529-2e9ea5bd28d4 {
        fill: #681a1a;
      }

      .fad51c0b-81d3-40b8-aeca-62b9cd654f3b {
        fill: #ef7089;
      }

      .e23a29d8-f2f4-466c-8d79-adb608f431d0 {
        fill: #ff5763;
      }

      .e986d0f3-d312-43d3-9b2b-e131a2dbeba9 {
        fill: #fff;
      }

      .bfe7fdb3-dacc-4b14-859b-118ea7618b71 {
        fill: #ef304c;
      }

      .fa237833-ec8d-415e-a2b9-81c19996a94d {
        fill: #ffa979;
      }
    </style>
  </defs>
  <g>
    <path class="af211a99-8d78-41c6-8cb4-a6267706057b" d="M61,156.71s1,4.61-4.17,5.35-9.21-.74-9.66,4.46-.44,10.85,4.76,11.3,4.75-6.84,8.77-6.4,11.44-.74,11-9.95S61,156.71,61,156.71Z"/>
    <g>
      <path class="af211a99-8d78-41c6-8cb4-a6267706057b" d="M90.86,50s-7.13.15-15.9-13.82S73.62,4.94,81.8,3.9,90.27,9.85,83,15.35s-6.39,24.52,10,32.55C92.94,47.9,102.31,55.33,90.86,50Z"/>
      <path class="af211a99-8d78-41c6-8cb4-a6267706057b" d="M112.57,47.9S110.48,35,113,26.35,124-1.3,136.65,2.71c0,0,3.71,2.53,2.23,5.8s-4.76,4.31-8,2.53-21,13.23-15.16,36.12C115.69,47.16,115.24,53.55,112.57,47.9Z"/>
      <path class="af211a99-8d78-41c6-8cb4-a6267706057b" d="M120.81,112.43s2.38,3,21-1c0,0,7.62-1.44,11.47-3.64s12.87-5.49,15.29-3.82,1.88,4.66-2.88,4.46l-4.66.47s5.61-.08,4.48,6.16-6.72-2.61-6.72-2.61l3.29,5s-2.64,4.5-7.78-2.27c0,0-1.18,3.21-13,7.44s-25.13,3.87-25.13,3.87Z"/>
      <path class="bd94ec01-760a-437b-930a-b45a45b1e91e" d="M121.16,122.61a44.83,44.83,0,0,1-4.8,18.59,34,34,0,0,1-8.23,10.13h0a43.62,43.62,0,0,1-8.47,5.53c-.57.29-1.15.56-1.74.82a45.9,45.9,0,0,1-13.4,3.7,64.62,64.62,0,0,1-24.2-2.11c-1.54-.41-2.95-.84-4.22-1.23-9.51-3-15.9-1-15.9-1,4-3.79,4.9-9.83,6.1-16.34,1.07-5.94,2.4-12.27,6.61-17.61.21-.28.43-.56.67-.84a30.14,30.14,0,0,1,4.67-4.38,40.69,40.69,0,0,1,8.4-4.87l.24-.1A54.45,54.45,0,0,1,75.44,110a43,43,0,0,1,5.32-1c11.29-1.18,13.38-9.81,13.38-9.81l27.05,14.57A79.06,79.06,0,0,1,121.16,122.61Z"/>
      <path class="a23ea1ba-5467-4e8c-b963-c4c82d8b0e1a" d="M120.59,121.41c-4.86,2.07-10.67,2.75-17.69,2.75-14.54,0-26.46-5.44-27.5-12.34a43.28,43.28,0,0,1,7.23-2.64,33.82,33.82,0,0,1,4.48-.94c9.53-1.1,11.29-9.06,11.29-9.06l22.81,13.44C121.34,115.49,120.74,118.82,120.59,121.41Z"/>
      <path class="e58389fd-156e-4249-91b2-d2b79082f9bf" d="M60.76,158.94c-1.54-.41-3.41-.51-4.68-.9-9.51-3-15.9-1-15.9-1,4-3.79,5.26-10.52,6.46-17C47.29,144.85,50.12,153.56,60.76,158.94Z"/>
      <path class="e58389fd-156e-4249-91b2-d2b79082f9bf" d="M116.36,141.2a34,34,0,0,1-8.23,10.13h0c-5.75,0-16.71-1.84-29.59-13.2-7.91-7-11-16.46-11.89-25.16a54.38,54.38,0,0,1,8.81-3c.8,6.85,3.87,17.56,14.68,24.4A42.33,42.33,0,0,0,116.36,141.2Z"/>
      <path class="e58389fd-156e-4249-91b2-d2b79082f9bf" d="M97.9,157.68a45.9,45.9,0,0,1-13.4,3.7c-6.65-1-15.92-3.69-22.62-10.92-8.2-8.82-9.41-18.84-9-27.4.21-.28.43-.56.67-.84a30.14,30.14,0,0,1,4.67-4.38c.18,6.67,1.93,17.89,10.93,25.5C79.8,152.33,92.83,156.36,97.9,157.68Z"/>
      <g>
        <path class="af211a99-8d78-41c6-8cb4-a6267706057b" d="M147.46,89.07c.38,15.73-13,25.09-29.19,28.76h0a75.41,75.41,0,0,1-16.47,1.78c-22.47,0-34.12-11.81-32.88-34.56C69.79,68,79.39,51.44,95.19,46a34.78,34.78,0,0,1,11.36-1.86C129,44.15,146.9,65.77,147.46,89.07Z"/>
        <path class="a23ea1ba-5467-4e8c-b963-c4c82d8b0e1a" d="M119.48,117.19A75.88,75.88,0,0,1,103,119c-22.47,0-34.12-11.7-32.88-34.24C71.06,67.77,80.66,51.39,96.45,46A45,45,0,0,0,77.26,84.48C77.89,112.46,100.75,119.6,119.48,117.19Z"/>
        <g>
          <g>
            <g>
              <g>
                <path class="f4b69547-4ab4-480e-8529-2e9ea5bd28d4" d="M131.74,92.42s0,7.48-3.6,13.1a13.1,13.1,0,0,1-3.73,4c-5.77,4-13.2,3.68-18.42-3.07a3.68,3.68,0,0,1-.34-.44,26.23,26.23,0,0,1-3.34-6.4s13.71,1.85,25.29-4.44A30.55,30.55,0,0,0,131.74,92.42Z"/>
                <path class="fad51c0b-81d3-40b8-aeca-62b9cd654f3b" d="M131.76,92.37a16.69,16.69,0,0,1,0,2.56c-.06.84-.14,1.67-.27,2.5a27.24,27.24,0,0,1-1.19,4.93,19.18,19.18,0,0,1-2.36,4.56,13.2,13.2,0,0,1-3.79,3.58A13.71,13.71,0,0,1,114,112.61a14.89,14.89,0,0,1-8.72-5.66l0,.06a19.69,19.69,0,0,1-1.21-1.73c-.35-.57-.69-1.16-1-1.75a31.56,31.56,0,0,1-1.59-3.69l-.46-1.27,1.36.16A45.52,45.52,0,0,0,110,99a49.53,49.53,0,0,0,7.58-.84A43.64,43.64,0,0,0,124.93,96c.61-.22,1.18-.51,1.77-.76s1.17-.53,1.73-.83A38.2,38.2,0,0,0,131.76,92.37Zm0,.09a23.4,23.4,0,0,1-3.15,2.18c-.56.33-1.13.63-1.71.91s-1.15.6-1.75.84a38.25,38.25,0,0,1-7.38,2.37,49.17,49.17,0,0,1-15.43.88l.1-.11a29.47,29.47,0,0,0,1.57,3.55,22.05,22.05,0,0,0,2.09,3.26h0a14,14,0,0,0,8.11,5.37,13.12,13.12,0,0,0,9.52-1.88,14.91,14.91,0,0,0,6.06-7.66A31.09,31.09,0,0,0,131.72,92.46Z"/>
              </g>
              <path class="e23a29d8-f2f4-466c-8d79-adb608f431d0" d="M125.79,105.24c1.64,2.19-.46,3.51-1.85,4.5-5.19,3.68-13.36,2.62-18-3.67,1.29-1,3.59-1.79,7.71-1.4C113.6,104.67,121,101.7,125.79,105.24Z"/>
              <path class="e986d0f3-d312-43d3-9b2b-e131a2dbeba9" d="M120.68,105a26,26,0,0,1-6.78,1.74,10.7,10.7,0,0,1-11.24-6.79l0-.07s13.37,2,25-4.3C128.44,98.7,127.53,102.22,120.68,105Z"/>
            </g>
            <path class="bfe7fdb3-dacc-4b14-859b-118ea7618b71" d="M100.27,95.47a3.26,3.26,0,0,1,.83,1.29,3.83,3.83,0,0,1,.16,1.59,2.67,2.67,0,0,1-.81,1.44,3.23,3.23,0,0,1-.67.44,3.41,3.41,0,0,1-.75.18l0,0a3.42,3.42,0,0,0,1.15-.84,2.32,2.32,0,0,0,.6-1.26,4.47,4.47,0,0,0-.54-2.77Z"/>
            <path class="bfe7fdb3-dacc-4b14-859b-118ea7618b71" d="M134.05,93.63a2.69,2.69,0,0,1-1.29-.25,3.62,3.62,0,0,1-1.08-.79,3.34,3.34,0,0,1-.67-1.17,2.54,2.54,0,0,1-.07-1.31H131a4.2,4.2,0,0,0,1.06,2.16,4.71,4.71,0,0,0,2,1.32Z"/>
          </g>
          <ellipse class="fa237833-ec8d-415e-a2b9-81c19996a94d" cx="90.99" cy="95.15" rx="6.35" ry="4.46"/>
          <ellipse class="fa237833-ec8d-415e-a2b9-81c19996a94d" cx="139.99" cy="83.17" rx="6.35" ry="4.46" transform="translate(-21.61 63.2) rotate(-23.67)"/>
        </g>
      </g>
      <path class="af211a99-8d78-41c6-8cb4-a6267706057b" d="M76.22,112s3,3.23.78,6.47-12.48,1.11-18.39-1.9-12.38,2.12-12.38,2.12,1.79,7.8-1.34,8.36S41.66,121,41.66,121s-3.23,3.9-2.45,7.92c0,0-2,2.45-3.79-1.57l.89-4.68-1.45,4.68s-2.67-.55-1.11-7.58S51.69,105,67.64,107.8A17.8,17.8,0,0,1,76.22,112Z"/>
      <path class="af211a99-8d78-41c6-8cb4-a6267706057b" d="M52.75,137.57a3.64,3.64,0,0,1,5.5,3.39,8,8,0,0,1-2.17,5.2c-3.27,3.27-8.77,6.39-14.27,4.45s-7.88,2.53-9.66,5.21-7.43,2.23-7.14-4.31c0,0,0-8.77,7.29-12.34,0,0,2.82-2.23,11,.59C48.3,141.49,50.46,139,52.75,137.57Z"/>
    </g>
  </g>
</svg>
