<svg id="ac7205ed-d4cf-4f40-9716-f1e0a45c4ac3" data-name="Layer 1" xmlns="http://www.w3.org/2000/svg" width="75" height="40" viewBox="0 0 75 40">
  <defs>
    <style>
      .f5157359-aa2a-4cb2-bdd1-9b236a47e727 {
        fill: #fff;
        stroke: #724c4c;
        stroke-miterlimit: 10;
        stroke-width: 0.5px;
      }

      .be484e72-e24e-41ec-b187-f0c9fec81278 {
        fill: #606060;
      }

      .aa6dc65e-774c-4ae5-94d9-bb15b9b89509 {
        fill: #450806;
      }

      .e13f301f-0e06-45af-815e-ef46c43c7e87 {
        fill: #f9efef;
      }

      .bb38959d-b2e1-489a-9fcd-582e3ad63834 {
        fill: #ffca58;
      }

      .bb353567-c2b2-4ffc-b9ea-55c56e8b820f {
        fill: #7f5711;
      }
    </style>
  </defs>
  <g>
    <g>
      <ellipse class="f5157359-aa2a-4cb2-bdd1-9b236a47e727" cx="19.21" cy="18.96" rx="13.8" ry="9.84" transform="translate(-1.41 36.36) rotate(-84.78)"/>
      <g>
        <ellipse class="be484e72-e24e-41ec-b187-f0c9fec81278" cx="18.99" cy="19.35" rx="8.72" ry="6.22" transform="translate(-2.01 36.51) rotate(-84.78)"/>
        <ellipse class="aa6dc65e-774c-4ae5-94d9-bb15b9b89509" cx="19.46" cy="19.4" rx="5.39" ry="3.84" transform="translate(-1.62 37.02) rotate(-84.78)"/>
        <ellipse class="e13f301f-0e06-45af-815e-ef46c43c7e87" cx="16.96" cy="15.29" rx="1.88" ry="1.34" transform="matrix(0.09, -1, 1, 0.09, 0.2, 30.79)"/>
      </g>
    </g>
    <g>
      <ellipse class="f5157359-aa2a-4cb2-bdd1-9b236a47e727" cx="56.09" cy="18.61" rx="9.84" ry="13.8" transform="translate(-2.23 9.07) rotate(-9.06)"/>
      <g>
        <ellipse class="be484e72-e24e-41ec-b187-f0c9fec81278" cx="55.98" cy="19.05" rx="6.22" ry="8.72" transform="translate(-2.3 9.05) rotate(-9.06)"/>
        <ellipse class="aa6dc65e-774c-4ae5-94d9-bb15b9b89509" cx="56.45" cy="18.97" rx="3.84" ry="5.39" transform="translate(-2.28 9.13) rotate(-9.06)"/>
        <ellipse class="e13f301f-0e06-45af-815e-ef46c43c7e87" cx="53.01" cy="15.61" rx="1.34" ry="1.88" transform="matrix(0.99, -0.16, 0.16, 0.99, -1.8, 8.54)"/>
      </g>
    </g>
    <g>
      <path class="bb38959d-b2e1-489a-9fcd-582e3ad63834" d="M50.13,35.11S54.71,23.19,70.3,29"/>
      <path class="bb353567-c2b2-4ffc-b9ea-55c56e8b820f" d="M50.13,35.11a11.82,11.82,0,0,1,3.32-4.86,12.48,12.48,0,0,1,5.27-2.78,15.89,15.89,0,0,1,6-.17c1,.15,1.93.44,2.88.65s1.85.69,2.75,1.07c-1-.22-1.9-.48-2.84-.71s-1.91-.36-2.87-.44a19.65,19.65,0,0,0-2.87-.06,11.18,11.18,0,0,0-1.42.12l-1.4.27a13.48,13.48,0,0,0-5.08,2.49A14.25,14.25,0,0,0,50.13,35.11Z"/>
    </g>
    <g>
      <path class="bb38959d-b2e1-489a-9fcd-582e3ad63834" d="M22.64,35.11S16.83,23.84,4.7,31"/>
      <path class="bb353567-c2b2-4ffc-b9ea-55c56e8b820f" d="M22.64,35.11a15.14,15.14,0,0,0-1.64-2,14,14,0,0,0-1.89-1.72,11.39,11.39,0,0,0-4.54-2.12,7.43,7.43,0,0,0-1.24-.19L12.7,29c-.21,0-.42,0-.63,0-.42,0-.84,0-1.26.06l-1.25.23a5.93,5.93,0,0,0-1.24.31L7.09,30c-.8.31-1.57.69-2.39,1,.73-.46,1.48-.92,2.25-1.35l1.22-.5a6,6,0,0,1,1.25-.44,11,11,0,0,1,5.31-.22,10.43,10.43,0,0,1,4.74,2.4A12.77,12.77,0,0,1,22.64,35.11Z"/>
    </g>
  </g>
</svg>
