<svg id="f3a055ea-22a2-4ef7-8118-2eb8322876f3" data-name="Layer 1" xmlns="http://www.w3.org/2000/svg" width="122.19" height="98.05" viewBox="0 0 122.19 98.05">
  <defs>
    <style>
      .f0eb2d65-8f63-4e7d-bdd6-ff461b95f5c3 {
        fill: #bcfde5;
      }

      .f367bb52-4547-4e1a-a13b-e1c758b4a5bc {
        fill: #ebf7f2;
      }
    </style>
  </defs>
  <g>
    <g>
      <path class="f0eb2d65-8f63-4e7d-bdd6-ff461b95f5c3" d="M88,83c-10.6,3.2-20.47-21-25.52-37.77S59.83,12.16,70.43,9,88.57,20,93.61,36.71,98.6,79.82,88,83Z"/>
      <path class="f367bb52-4547-4e1a-a13b-e1c758b4a5bc" d="M88,83.07a7.11,7.11,0,0,1-2.79.23,8.15,8.15,0,0,1-2.67-.84A15.83,15.83,0,0,1,78.18,79a46.51,46.51,0,0,1-6.26-9.26,136.61,136.61,0,0,1-8.73-20.59c-2.45-7-4.27-14.48-4-22.08a29,29,0,0,1,2.5-11.14,18,18,0,0,1,1.45-2.55,11.21,11.21,0,0,1,.91-1.15,7.46,7.46,0,0,1,1-1.09l1.13-1c.39-.3.84-.54,1.26-.81l.64-.4c.22-.1.46-.19.69-.28.46-.19.93-.38,1.4-.55a11.45,11.45,0,0,1,3-.46,11,11,0,0,1,3,.4,13.41,13.41,0,0,1,5.11,3A32.24,32.24,0,0,1,88,20.25,78.34,78.34,0,0,1,92.3,30.66a93.11,93.11,0,0,1,3,10.81,84.81,84.81,0,0,1,1.58,22.3,43.76,43.76,0,0,1-2,11,18.71,18.71,0,0,1-2.51,5A8.76,8.76,0,0,1,88,83.07Zm0-.1a8.62,8.62,0,0,0,4.35-3.29,18.3,18.3,0,0,0,2.46-5,42.83,42.83,0,0,0,1.89-10.95A82.59,82.59,0,0,0,94.8,41.59,92.92,92.92,0,0,0,91.63,30.9a79.2,79.2,0,0,0-4.39-10.25,31.58,31.58,0,0,0-6.53-8.94A12.4,12.4,0,0,0,75.94,9a9.65,9.65,0,0,0-2.73-.35,11,11,0,0,0-2.72.43l-1.29.51-.64.26-.59.36c-.39.25-.8.46-1.17.74l-1,.91a6,6,0,0,0-1,1,11.11,11.11,0,0,0-.87,1.08,17.34,17.34,0,0,0-1.38,2.4,28.35,28.35,0,0,0-2.48,10.78,49.09,49.09,0,0,0,.8,11.09A78.43,78.43,0,0,0,63.72,49a133.22,133.22,0,0,0,8.41,20.65,45.79,45.79,0,0,0,6.18,9.25,15.43,15.43,0,0,0,4.31,3.48,8.06,8.06,0,0,0,2.62.85A7,7,0,0,0,88,83Z"/>
    </g>
    <g>
      <path class="f0eb2d65-8f63-4e7d-bdd6-ff461b95f5c3" d="M85.23,79.47c-4.75,10-29.35,1-45.12-6.46S13.82,52.74,18.57,42.74s20.35-6,36.13,1.47S90,69.47,85.23,79.47Z"/>
      <path class="f367bb52-4547-4e1a-a13b-e1c758b4a5bc" d="M85.27,79.5a7,7,0,0,1-1.69,2.22,8.17,8.17,0,0,1-2.42,1.41,15.92,15.92,0,0,1-5.51.9,46,46,0,0,1-11.07-1.58,136.37,136.37,0,0,1-21.11-7.36c-6.85-2.9-13.6-6.57-19-11.89a29.25,29.25,0,0,1-6.57-9.34A18.45,18.45,0,0,1,17,51.08a11.7,11.7,0,0,1-.24-1.46,7.24,7.24,0,0,1-.13-1.47l0-1.5c0-.49.16-1,.25-1.47l.13-.74c.08-.24.17-.47.26-.71.17-.47.34-.94.53-1.4a12,12,0,0,1,1.66-2.53,10.6,10.6,0,0,1,2.33-1.95,13.4,13.4,0,0,1,5.63-1.8A32.4,32.4,0,0,1,38.74,37.3a78.6,78.6,0,0,1,10.59,3.82,94.94,94.94,0,0,1,10.05,5A84.69,84.69,0,0,1,77,59.93a43.71,43.71,0,0,1,6.82,8.85,18.57,18.57,0,0,1,2,5.21A8.7,8.7,0,0,1,85.27,79.5Zm-.09,0A8.58,8.58,0,0,0,85.67,74a18.5,18.5,0,0,0-2-5.16A43.25,43.25,0,0,0,76.8,60.1,83,83,0,0,0,59.11,46.6a95.61,95.61,0,0,0-10-4.83,80.47,80.47,0,0,0-10.54-3.63,31.36,31.36,0,0,0-11-1.16,12.34,12.34,0,0,0-5.23,1.68,10,10,0,0,0-2.1,1.79,10.65,10.65,0,0,0-1.5,2.31l-.49,1.29L18,44.7l-.13.68c-.08.46-.2.91-.24,1.36l0,1.39a7.14,7.14,0,0,0,.11,1.38,12.43,12.43,0,0,0,.22,1.36,17.28,17.28,0,0,0,.85,2.64,28,28,0,0,0,6.32,9.07,48.9,48.9,0,0,0,8.75,6.87,79.91,79.91,0,0,0,9.89,5.14,134.92,134.92,0,0,0,21,7.63,45.59,45.59,0,0,0,11,1.64A15.31,15.31,0,0,0,81.11,83a7.79,7.79,0,0,0,2.39-1.37A7,7,0,0,0,85.18,79.45Z"/>
    </g>
  </g>
</svg>
