<svg id="f01c6b98-68e6-45e8-8917-35a47d2c0752" data-name="Layer 1" xmlns="http://www.w3.org/2000/svg" width="132" height="118.94" viewBox="0 0 132 118.94">
  <defs>
    <style>
      .b1541e8f-4c33-41f2-aadd-26c07e2b5b1d {
        fill: #bcfde5;
      }

      .b8b6cf07-4d24-4566-af2d-f693b587bacc {
        fill: #ebf7f2;
      }
    </style>
  </defs>
  <g>
    <g>
      <path class="b1541e8f-4c33-41f2-aadd-26c07e2b5b1d" d="M122.31,103.25C112.72,115.61,81.49,95.8,62,80.68S31.84,44.76,41.43,32.39s29.91-2.17,49.41,13S131.89,90.88,122.31,103.25Z"/>
      <path class="b8b6cf07-4d24-4566-af2d-f693b587bacc" d="M122.35,103.28a10,10,0,0,1-3,2.55,11.29,11.29,0,0,1-3.76,1.22,22,22,0,0,1-7.88-.42,65.25,65.25,0,0,1-14.8-5.5A190.23,190.23,0,0,1,66.11,84.4C57.54,78.33,49.5,71.11,43.67,62.17a40.94,40.94,0,0,1-6.24-14.7,22.55,22.55,0,0,1,0-8.15,17.74,17.74,0,0,1,3.35-7.5,16.82,16.82,0,0,1,3-2.91A14.76,14.76,0,0,1,47.44,27a18.54,18.54,0,0,1,8.15-.75,34,34,0,0,1,7.82,1.91,60.12,60.12,0,0,1,7.3,3.22,111.62,111.62,0,0,1,13.47,8.36,133.28,133.28,0,0,1,12.41,9.84,118.05,118.05,0,0,1,20.24,24.22,61.38,61.38,0,0,1,6.72,14.29,26.4,26.4,0,0,1,1.2,7.8A12.41,12.41,0,0,1,122.35,103.28Zm-.08-.06a12.27,12.27,0,0,0,2.32-7.36,25.79,25.79,0,0,0-1.25-7.74,60.64,60.64,0,0,0-6.79-14.18A117.17,117.17,0,0,0,96.22,50a130.64,130.64,0,0,0-12.41-9.71A112.64,112.64,0,0,0,70.36,32a59.3,59.3,0,0,0-7.23-3.13A33.38,33.38,0,0,0,55.5,27.1a17.83,17.83,0,0,0-7.75.75,14.07,14.07,0,0,0-3.44,1.84,15.68,15.68,0,0,0-2.78,2.74,16.77,16.77,0,0,0-3.21,7.08,21.58,21.58,0,0,0,0,7.81,40.19,40.19,0,0,0,6,14.43C50,70.62,57.92,77.84,66.44,84a189.7,189.7,0,0,0,26.61,16.88,64.72,64.72,0,0,0,14.7,5.58,21.64,21.64,0,0,0,7.81.47,11.06,11.06,0,0,0,3.72-1.17A9.86,9.86,0,0,0,122.27,103.22Z"/>
    </g>
    <g>
      <path class="b1541e8f-4c33-41f2-aadd-26c07e2b5b1d" d="M114.65,102c-8.09,13.39-41.4-2.68-62.52-15.44S18,54.32,26.13,40.93s29.45-5.61,50.58,7.15S122.75,88.57,114.65,102Z"/>
      <path class="b8b6cf07-4d24-4566-af2d-f693b587bacc" d="M114.7,102a10,10,0,0,1-2.69,2.88,11.09,11.09,0,0,1-3.6,1.64,22,22,0,0,1-7.87.5,64.93,64.93,0,0,1-15.34-3.76A189.38,189.38,0,0,1,56.66,89.74c-9.22-5-18-11.29-24.86-19.49a41,41,0,0,1-7.9-13.89,22.22,22.22,0,0,1-1-8.08,17.6,17.6,0,0,1,2.46-7.84A16.07,16.07,0,0,1,28,37.2a15.07,15.07,0,0,1,3.45-2.36,18.51,18.51,0,0,1,8-1.68,34.41,34.41,0,0,1,8,1,60.54,60.54,0,0,1,7.62,2.36,113.06,113.06,0,0,1,14.35,6.74A134,134,0,0,1,82.9,51.59a117.66,117.66,0,0,1,22.9,21.73,61.1,61.1,0,0,1,8.33,13.41,26.08,26.08,0,0,1,2.09,7.61A12.35,12.35,0,0,1,114.7,102Zm-.09,0a12.26,12.26,0,0,0,1.46-7.58,26.25,26.25,0,0,0-2.13-7.55,61.18,61.18,0,0,0-8.39-13.29A117.32,117.32,0,0,0,82.58,52a132.69,132.69,0,0,0-13.45-8.21,112.91,112.91,0,0,0-14.31-6.6A61.56,61.56,0,0,0,47.29,35a33.12,33.12,0,0,0-7.8-.91,17.45,17.45,0,0,0-7.6,1.64,13.63,13.63,0,0,0-3.21,2.22,15.27,15.27,0,0,0-2.45,3,16.93,16.93,0,0,0-2.37,7.4,21.67,21.67,0,0,0,.89,7.76A40.21,40.21,0,0,0,32.4,69.76c6.68,8.15,15.37,14.4,24.53,19.5A191,191,0,0,0,85.31,103a65,65,0,0,0,15.25,3.85,21.81,21.81,0,0,0,7.81-.44,11.13,11.13,0,0,0,3.57-1.59A10,10,0,0,0,114.61,101.94Z"/>
    </g>
  </g>
</svg>
