<svg id="ed7d4f15-74df-4b68-9a3e-28f0a53e36da" data-name="Layer 1" xmlns="http://www.w3.org/2000/svg" width="190" height="230" viewBox="0 0 190 230">
  <defs>
    <style>
      .e867c602-aa6c-4580-8b39-e20270b0311f, .e89c1b93-72c8-4a23-b889-fea5c9434f3e {
        fill: #ffe309;
        stroke-width: 0.75px;
      }

      .e867c602-aa6c-4580-8b39-e20270b0311f {
        stroke: #665608;
      }

      .a80ce4bd-1364-4f9c-a79a-e6304cdbdbcc, .e867c602-aa6c-4580-8b39-e20270b0311f, .e89c1b93-72c8-4a23-b889-fea5c9434f3e {
        stroke-miterlimit: 10;
      }

      .e89c1b93-72c8-4a23-b889-fea5c9434f3e {
        stroke: #493c05;
      }

      .fdc1e232-9960-4883-aa2c-04847f6a6df3 {
        fill: #ecc516;
      }

      .a80ce4bd-1364-4f9c-a79a-e6304cdbdbcc {
        fill: #532900;
        stroke: #3a1c03;
      }

      .a5de0104-f483-4ebf-840b-0d998a57d1f4 {
        fill: #681a1a;
      }

      .e6fcf168-35b7-4963-b405-2941148b9f8d {
        fill: #ef7089;
      }

      .a0df14c9-641a-43b3-8d07-7e45a9d3233d {
        fill: #ff5763;
      }

      .aff3bd54-44d0-492e-84fb-a6578a75105e {
        fill: #fff;
      }

      .ee9b1fb8-67f3-4ccc-b3ff-2603f3cf3d07 {
        fill: #ef304c;
      }

      .ac6b4c4c-7ef1-4c77-aae1-4ea9971ff25e {
        fill: #ffa979;
      }
    </style>
  </defs>
  <g>
    <path class="e867c602-aa6c-4580-8b39-e20270b0311f" d="M122.69,188.37s5.6-.13,5.24,6.09-3,10.53,2.92,12.27,12.5,3.06,14.24-2.88-6.83-7.13-5.37-11.69,1.82-13.47-9-15.11S122.69,188.37,122.69,188.37Z"/>
    <g>
      <path class="e867c602-aa6c-4580-8b39-e20270b0311f" d="M86.86,61.3S78.5,60,71.08,41.94,75.82,5.21,85.58,5.65s8.7,8.65-.92,13.6-12.42,27.36,5,40C89.71,59.29,99.15,69.86,86.86,61.3Z"/>
      <path class="e867c602-aa6c-4580-8b39-e20270b0311f" d="M115.27,64.44S113.87,49,117.57,39,132.84,7.2,147.45,13c0,0,4.19,3.3,2.16,7s-6,4.71-9.69,2.33S114.05,36.27,119,63.81C119,63.81,118,71.33,115.27,64.44Z"/>
      <path class="e867c602-aa6c-4580-8b39-e20270b0311f" d="M127.2,128.9s3,3.36,24.81-2.6c0,0,8.92-2.22,13.34-5.08s14.85-7.37,17.83-5.55,2.54,5.39-3.11,5.47l-5.48.87s6.63-.47,5.71,7-8.12-2.64-8.12-2.64l4.22,5.72s-2.81,5.5-9.35-2.16c0,0-1.19,3.87-15,9.68s-29.47,6.27-29.47,6.27Z"/>
      <path class="e89c1b93-72c8-4a23-b889-fea5c9434f3e" d="M128.6,122.47c4.72,7,7.73,13.94,8.89,20.94a40.2,40.2,0,0,1-.44,15.47h0a51.45,51.45,0,0,1-4,11.31c-.32.68-.67,1.36-1,2a54.39,54.39,0,0,1-9.94,13.15c-7.8,7.65-17,12.44-24.28,15.48-1.74.73-3.38,1.35-4.85,1.89-11.09,4.07-15.71,10.5-15.71,10.5,1.05-6.46-2.48-12.78-6-19.76-3.28-6.36-6.6-13.27-6.5-21.34,0-.41,0-.83,0-1.26a35.72,35.72,0,0,1,1.24-7.5,47.62,47.62,0,0,1,4.39-10.64,1.61,1.61,0,0,1,.15-.26,63.61,63.61,0,0,1,6-8.87,50.84,50.84,0,0,1,4.26-4.8c9.77-9.27,5.5-18.89,5.5-18.89l36-5.81A92.86,92.86,0,0,1,128.6,122.47Z"/>
      <path class="fdc1e232-9960-4883-aa2c-04847f6a6df3" d="M127.19,121.74c-3.08,5.46-8,10.29-14.66,15.35-13.67,10.49-28.81,14-34.76,8.24a51.65,51.65,0,0,1,4.89-7.69,40.57,40.57,0,0,1,3.54-4.13c8.17-7.9,4.07-16.66,4.07-16.66L121.43,113C123.62,115.64,125.46,119.2,127.19,121.74Z"/>
      <path class="a80ce4bd-1364-4f9c-a79a-e6304cdbdbcc" d="M98,200.21c-1.74.73-3.58,2-5,2.53-11.09,4.07-15.71,10.5-15.71,10.5,1.05-6.46-2.63-13.68-6.2-20.67C75.16,196.68,84.11,202.82,98,200.21Z"/>
      <path class="a80ce4bd-1364-4f9c-a79a-e6304cdbdbcc" d="M137.49,143.41a40.2,40.2,0,0,1-.44,15.47h0c-5.4,4.15-17,10.33-37.35,8.93-12.48-.86-22.22-7.55-29.33-15.08a65,65,0,0,1,6.15-9.13c5.69,5.87,16.3,13.73,31.41,12.35C122.72,154.61,132.36,148.08,137.49,143.41Z"/>
      <path class="a80ce4bd-1364-4f9c-a79a-e6304cdbdbcc" d="M132,172.22a54.39,54.39,0,0,1-9.94,13.15c-7,3.86-17.63,8-29.14,6.06-14.08-2.38-22.45-10.93-28.24-19.29,0-.41,0-.83,0-1.26a35.72,35.72,0,0,1,1.24-7.5c5,6.15,14.72,15.43,28.67,16.09C111.13,180.26,126.29,174.65,132,172.22Z"/>
      <g>
        <path class="e867c602-aa6c-4580-8b39-e20270b0311f" d="M152.73,110.46c-1.28,18.61-18.07,28.19-37.6,30.74h-.07a89.46,89.46,0,0,1-19.64.29c-26.51-2.47-39-17.69-35-44.39C63.38,77,76.53,58.58,95.77,53.9A41.23,41.23,0,0,1,109.38,53C135.91,55.43,154.63,82.9,152.73,110.46Z"/>
        <path class="fdc1e232-9960-4883-aa2c-04847f6a6df3" d="M116.63,140.58a90.09,90.09,0,0,1-19.64.27c-26.51-2.47-39-17.56-35-44C64.9,76.94,78,58.66,97.26,54a53.36,53.36,0,0,0-26.88,43.3C68.06,130.42,94.25,141.37,116.63,140.58Z"/>
        <g>
          <g>
            <g>
              <g>
                <path class="a5de0104-f483-4ebf-840b-0d998a57d1f4" d="M133.81,112.69s-.82,8.83-5.69,15.07a15.61,15.61,0,0,1-4.83,4.25c-7.25,4-16,2.89-21.4-5.64a6.65,6.65,0,0,1-.36-.56,30.62,30.62,0,0,1-3.23-7.93s16,3.7,30.32-2.46A34.38,34.38,0,0,0,133.81,112.69Z"/>
                <path class="e6fcf168-35b7-4963-b405-2941148b9f8d" d="M133.84,112.65a22,22,0,0,1-.35,3c-.18,1-.37,1.95-.62,2.91a31.94,31.94,0,0,1-2,5.66,22.72,22.72,0,0,1-3.29,5.09,15.49,15.49,0,0,1-4.84,3.77,16.23,16.23,0,0,1-12.06,1.35,17.48,17.48,0,0,1-9.57-7.58l0,.06a23,23,0,0,1-1.22-2.15c-.36-.71-.68-1.43-1-2.16a36,36,0,0,1-1.48-4.51l-.34-1.3,1.34.28a55.28,55.28,0,0,0,9,1.09,58.32,58.32,0,0,0,9.06-.2,50.28,50.28,0,0,0,8.91-1.73c.73-.19,1.44-.48,2.16-.71s1.44-.51,2.13-.81A43.07,43.07,0,0,0,133.84,112.65Zm-.05.08a28.77,28.77,0,0,1-4,2.22c-.69.33-1.4.62-2.12.89s-1.42.58-2.16.8a45.69,45.69,0,0,1-9,2,57.35,57.35,0,0,1-9.17.38,56,56,0,0,1-9.13-1l.1-.11a35,35,0,0,0,1.47,4.37,26.69,26.69,0,0,0,2.11,4.08h0a16.62,16.62,0,0,0,9,7.24,15.61,15.61,0,0,0,11.45-1.18c3.62-1.65,6.24-4.9,8-8.39A36.52,36.52,0,0,0,133.79,112.73Z"/>
              </g>
              <path class="a0df14c9-641a-43b3-8d07-7e45a9d3233d" d="M125.39,127.17c1.68,2.77-.93,4.09-2.69,5.1-6.53,3.78-16,1.63-20.89-6.31,1.62-1,4.43-1.72,9.25-.81C111.06,125.15,120.12,122.46,125.39,127.17Z"/>
              <path class="aff3bd54-44d0-492e-84fb-a6578a75105e" d="M119.39,126.28a31.4,31.4,0,0,1-8.2,1.31,12.69,12.69,0,0,1-12.52-9.25l0-.09s15.57,3.82,29.92-2.33C129.22,119.74,127.77,123.8,119.39,126.28Z"/>
            </g>
            <path class="ee9b1fb8-67f3-4ccc-b3ff-2603f3cf3d07" d="M96.33,112.84a3.93,3.93,0,0,1,.77,1.62,4.17,4.17,0,0,1,0,1.86A3.08,3.08,0,0,1,96,117.91a3.86,3.86,0,0,1-.82.45,4.56,4.56,0,0,1-.88.17l0,0a4.15,4.15,0,0,0,1.46-.86,2.88,2.88,0,0,0,.85-1.43,5.38,5.38,0,0,0-.34-3.33Z"/>
            <path class="ee9b1fb8-67f3-4ccc-b3ff-2603f3cf3d07" d="M136.4,114.37a3.33,3.33,0,0,1-1.46-.49,4.59,4.59,0,0,1-1.16-1,4.23,4.23,0,0,1-.66-1.43,3.17,3.17,0,0,1,0-1.53h.05a5,5,0,0,0,1,2.67,5.66,5.66,0,0,0,2.24,1.78Z"/>
          </g>
          <ellipse class="ac6b4c4c-7ef1-4c77-aae1-4ea9971ff25e" cx="85.42" cy="111.44" rx="5.29" ry="7.53" transform="translate(-33.45 186.17) rotate(-84.68)"/>
          <ellipse class="ac6b4c4c-7ef1-4c77-aae1-4ea9971ff25e" cx="144.56" cy="102.68" rx="7.53" ry="5.29" transform="matrix(0.95, -0.31, 0.31, 0.95, -24.98, 50.75)"/>
        </g>
      </g>
      <path class="e867c602-aa6c-4580-8b39-e20270b0311f" d="M74,149.09S72.93,144,77.17,142s13.38,6.46,17.56,13.12,13.87,5.37,13.87,5.37,2.94-9,6.45-7.69-.44,8.2-.44,8.2,5.66-2,7.31-6.56c0,0,3.53-1.27,2.91,3.9l-3.76,4.22,4.32-3.88s2.39,2.19-3.47,8.39-27.21,4-41.74-8.49A20.9,20.9,0,0,1,74,149.09Z"/>
      <path class="e867c602-aa6c-4580-8b39-e20270b0311f" d="M80.53,193A4.31,4.31,0,0,1,84,186.14a9.5,9.5,0,0,1,6.36,2c4.19,3.54,8.43,9.72,6.7,16.41s3.77,9,7.11,10.89,3.38,8.55-4.37,8.86c0,0-10.36.88-15.3-7.37,0,0-2.92-3.11-.41-13.05C85.6,197.85,82.43,195.54,80.53,193Z"/>
    </g>
  </g>
</svg>
