<svg id="a86ecc2b-f351-409f-8bbe-84977b638f0f" data-name="Layer 1" xmlns="http://www.w3.org/2000/svg" width="130" height="130" viewBox="0 0 130 130">
  <defs>
    <style>
      .a86e9f3c-15df-4a23-be8d-493cefceb119, .bc4224e6-399f-481e-94f8-89995d4baa48 {
        fill: #ffe309;
      }

      .a5056c83-9d23-45c8-be31-a3ce0b8f95d3, .bc4224e6-399f-481e-94f8-89995d4baa48 {
        stroke: #665608;
      }

      .a5056c83-9d23-45c8-be31-a3ce0b8f95d3, .a86e9f3c-15df-4a23-be8d-493cefceb119, .b47df829-b02e-4f29-943c-2f15bdbff6a4, .bc4224e6-399f-481e-94f8-89995d4baa48 {
        stroke-miterlimit: 10;
      }

      .a5056c83-9d23-45c8-be31-a3ce0b8f95d3, .a86e9f3c-15df-4a23-be8d-493cefceb119, .bc4224e6-399f-481e-94f8-89995d4baa48 {
        stroke-width: 0.75px;
      }

      .a86e9f3c-15df-4a23-be8d-493cefceb119 {
        stroke: #493c05;
      }

      .b85c724d-7c09-4d22-b650-48c68d7acf90 {
        fill: #ecc516;
      }

      .b47df829-b02e-4f29-943c-2f15bdbff6a4 {
        fill: #532900;
        stroke: #3a1c03;
      }

      .b57e5d09-840d-4b5d-b52b-7dd9ce0dd85e {
        fill: #681a1a;
      }

      .ef7b1c17-1994-46c1-89f8-0a06218a8079 {
        fill: #ef7089;
      }

      .be406582-b251-47f1-bef6-5b1a29f70395 {
        fill: #ff5763;
      }

      .a2784b63-0c33-4769-a508-099a752f74c7 {
        fill: #fff;
      }

      .e2906a92-00f1-41d1-b480-efba086afe78 {
        fill: #ef304c;
      }

      .fb0ad0f2-a209-4138-9f06-7f1be727fdba {
        fill: #ffa979;
      }

      .a5056c83-9d23-45c8-be31-a3ce0b8f95d3 {
        fill: none;
      }
    </style>
  </defs>
  <g>
    <g>
      <g>
        <path class="bc4224e6-399f-481e-94f8-89995d4baa48" d="M95.54,101.33s-.15,3.8,4.08,3.62,7.2-1.94,8.32,2.11,2,8.54-2.1,9.66-4.78-4.72-7.9-3.77-9.18,1.1-10.18-6.27S95.54,101.33,95.54,101.33Z"/>
        <g>
          <path class="bc4224e6-399f-481e-94f8-89995d4baa48" d="M57.28,85.26s2.16,2.19-2.77,16.74c0,0-1.86,6-4,8.85s-3.66,8.71-2.55,10.81,3.74,3.27,4-.56l-1.31-3.94s-.58,4.48,4.51,4.16-1.46-5.62-1.46-5.62l3.72,3.1s3.84-1.69-1.09-6.44c0,0,2.67-.65,7.17-9.76S69,82.84,69,82.84Z"/>
          <path class="a86e9f3c-15df-4a23-be8d-493cefceb119" d="M46.75,98.15a36.38,36.38,0,0,0,11.67,10.16,27.45,27.45,0,0,0,10.1,3h0a35.13,35.13,0,0,0,8.15-.2c.51-.07,1-.15,1.53-.25a37,37,0,0,0,10.6-3.65,52.32,52.32,0,0,0,15.12-12.45c.84-1,1.58-1.9,2.24-2.74,5-6.31,10.1-7.95,10.1-7.95-4.4-.68-7.74-4.29-11.51-8.07-3.43-3.46-7.2-7.06-12.43-8.69L91.5,67a24.33,24.33,0,0,0-5.1-.78,32.54,32.54,0,0,0-7.81.6l-.2.05a43.18,43.18,0,0,0-7,2,33.43,33.43,0,0,0-4,1.75C59.34,75,54,70.24,54,70.24l-11.33,22A64.53,64.53,0,0,0,46.75,98.15Z"/>
          <path class="b85c724d-7c09-4d22-b650-48c68d7acf90" d="M46.58,97.08c4.17-.84,8.34-3,13-6.24C69.25,84.2,74.7,75.15,72.23,70.09a34.84,34.84,0,0,0-6,1.54,27.39,27.39,0,0,0-3.41,1.42c-6.83,3.62-11.63-.87-11.63-.87l-9,19.35C43.39,93.49,45.3,95.43,46.58,97.08Z"/>
          <path class="b47df829-b02e-4f29-943c-2f15bdbff6a4" d="M103.47,94.72c.84-1,2-1.89,2.7-2.73,5-6.31,10.1-7.95,10.1-7.95-4.4-.68-8.3-4.58-12.06-8.36C106,79.21,108.08,86.29,103.47,94.72Z"/>
          <path class="b47df829-b02e-4f29-943c-2f15bdbff6a4" d="M58.42,108.31a27.45,27.45,0,0,0,10.1,3h0c3.82-2.63,10.27-8.86,13.64-22.28,2.07-8.25-.21-16-3.58-22.15a44.11,44.11,0,0,0-7.2,2.06c2.6,4.91,5.44,13.43,1.38,22.91A34.09,34.09,0,0,1,58.42,108.31Z"/>
          <path class="b47df829-b02e-4f29-943c-2f15bdbff6a4" d="M78.21,110.83a37,37,0,0,0,10.6-3.65c4-3.7,8.89-9.72,10-17.58,1.42-9.6-2.34-16.82-6.53-22.32L91.5,67a24.33,24.33,0,0,0-5.1-.78c2.92,4.52,6.88,12.77,4.37,21.94C87.8,99,81,107.64,78.21,110.83Z"/>
          <g>
            <path class="bc4224e6-399f-481e-94f8-89995d4baa48" d="M51.08,44.25S56.7,43,61,30.43,56.14,5.7,49.54,6.42s-5.53,6.25,1.21,9.2,9.62,18-1.7,27.39C49.05,43,43.11,50.6,51.08,44.25Z"/>
            <path class="bc4224e6-399f-481e-94f8-89995d4baa48" d="M33.67,46.69s-.8-10.53-4.39-16.81-13.82-19.62-23-14.1c0,0-2.44,2.68-.66,5s4.54,2.48,6.77.47S31.33,27.66,31.08,46.7C31.08,46.7,32.63,51.62,33.67,46.69Z"/>
            <g>
              <path class="bc4224e6-399f-481e-94f8-89995d4baa48" d="M14,85.52c2.65,12.4,14.88,17.24,28.28,17.07h0a61,61,0,0,0,13.25-1.69C73.22,96.68,80.14,85.23,74.9,67.63,71,54.4,60.34,43.25,46.94,42a27.74,27.74,0,0,0-9.25.68C20.06,46.84,10.1,67.15,14,85.52Z"/>
              <path class="b85c724d-7c09-4d22-b650-48c68d7acf90" d="M41.25,102.32a61.53,61.53,0,0,0,13.24-1.71c17.62-4.22,24.56-15.58,19.36-33C69.94,54.48,59.34,43.45,46,42.19A36.29,36.29,0,0,1,68.22,68.75C73,90.8,56.39,100.7,41.25,102.32Z"/>
              <g>
                <g>
                  <g>
                    <g>
                      <path class="b57e5d09-840d-4b5d-b52b-7dd9ce0dd85e" d="M27,85.2s1.4,5.86,5.28,9.59a10.73,10.73,0,0,0,3.66,2.4c5.27,2,11,.41,13.87-5.86a3,3,0,0,0,.19-.41,20.93,20.93,0,0,0,1.41-5.65s-10.4,4-20.66,1.27A24.37,24.37,0,0,1,27,85.2Z"/>
                      <path class="ef7b1c17-1994-46c1-89f8-0a06218a8079" d="M27,85.23a26.81,26.81,0,0,0,3.69,7,11.47,11.47,0,0,0,6,4.49,10.14,10.14,0,0,0,7.3-.38A10.59,10.59,0,0,0,49,91l0-.06c.16-.35.37-.86.53-1.32s.32-1,.45-1.43a22.72,22.72,0,0,0,.57-3l1.13.88a39.12,39.12,0,0,1-6.2,1.57,38.3,38.3,0,0,1-6.33.47,28.86,28.86,0,0,1-6.29-.69,31.17,31.17,0,0,1-3-.88A15.45,15.45,0,0,1,27,85.23ZM27,85.16c1.05.41,1.95.79,3,1.09s2,.51,3,.71a31.52,31.52,0,0,0,6.21.46,40.1,40.1,0,0,0,6.19-.64,38.94,38.94,0,0,0,6-1.59l.14,0,0,.14a20.6,20.6,0,0,1-1.6,6.1h0a11.4,11.4,0,0,1-5.44,5.8,10.76,10.76,0,0,1-7.93.3,12.09,12.09,0,0,1-6.24-4.94,20.63,20.63,0,0,1-2-3.52A20.12,20.12,0,0,1,27,85.16Z"/>
                    </g>
                    <path class="be406582-b251-47f1-bef6-5b1a29f70395" d="M40.66,91.29c-4.4.56-7.58,3.85-5,5.85a5.27,5.27,0,0,0,2.45.93C47.27,97.7,49.34,93,49,90c-1.13-.25-2.39.18-5.57,1.15A21.87,21.87,0,0,0,40.66,91.29Z"/>
                    <path class="b57e5d09-840d-4b5d-b52b-7dd9ce0dd85e" d="M43.85,90.35a8.14,8.14,0,0,0-2.6,6.58,11.53,11.53,0,0,1,4-6.74Z"/>
                    <path class="a2784b63-0c33-4769-a508-099a752f74c7" d="M38,93a21.57,21.57,0,0,0,5.65.09,8.64,8.64,0,0,0,7.54-7.44v-.06s-10.11,4.08-20.36,1.31C30.76,89.5,32.13,92.09,38,93Z"/>
                  </g>
                  <path class="e2906a92-00f1-41d1-b480-efba086afe78" d="M52.28,81.7c.07.41.12.79.19,1.14a3.23,3.23,0,0,0,.28,1,1.91,1.91,0,0,0,.52.78,6.78,6.78,0,0,0,.87.69v0A3,3,0,0,1,53,84.9a2,2,0,0,1-.75-.9,3.75,3.75,0,0,1-.06-2.32Z"/>
                  <path class="e2906a92-00f1-41d1-b480-efba086afe78" d="M25.39,86.54c.18-.32.36-.58.53-.84a6,6,0,0,0,.44-.77,4.37,4.37,0,0,0,.39-.78c.14-.27.22-.57.38-.91h.05a3.41,3.41,0,0,1-.38,1.93,3.84,3.84,0,0,1-1.39,1.41Z"/>
                </g>
                <ellipse class="fb0ad0f2-a209-4138-9f06-7f1be727fdba" cx="59.45" cy="79.69" rx="5.12" ry="3.6" transform="translate(-16.92 16.03) rotate(-13.46)"/>
                <ellipse class="fb0ad0f2-a209-4138-9f06-7f1be727fdba" cx="18.78" cy="79.49" rx="3.6" ry="5.12" transform="translate(-62.78 83.88) rotate(-79.79)"/>
              </g>
            </g>
          </g>
          <path class="bc4224e6-399f-481e-94f8-89995d4baa48" d="M102.86,86.46a2.93,2.93,0,0,0-4.49,2.64A6.45,6.45,0,0,0,100,93.32c2.58,2.69,7,5.29,11.43,3.82s6.31,2.17,7.71,4.35,5.95,1.92,5.82-3.36c0,0,.14-7.07-5.68-10.06,0,0-2.24-1.84-8.87.3C106.39,89.69,104.69,87.64,102.86,86.46Z"/>
        </g>
      </g>
      <path class="bc4224e6-399f-481e-94f8-89995d4baa48" d="M77.39,84.53s10.49,9.17,1.86,16.77c-5.07,4.47-7.51,6.91-9.44,7.32-2.7.59-5.62,6.38-4.92,8.42,0,0,1.2,4.2,3.18,1.59,0,0,3.81,4.93,9.47-2.72,0,0,.07-2.43-3.92-2.73,0,0,26-11.08,15.41-32C89,81.16,81,76.69,77.39,84.53Z"/>
      <path class="a5056c83-9d23-45c8-be31-a3ce0b8f95d3" d="M72.81,115.59s-3.37.12,2.46-3.46"/>
    </g>
    <line class="bc4224e6-399f-481e-94f8-89995d4baa48" x1="68.07" y1="118.63" x2="66.88" y2="116.31"/>
  </g>
</svg>
