<svg id="e68770dc-98d3-458f-a6cf-debf90253056" data-name="Layer 1" xmlns="http://www.w3.org/2000/svg" width="79.41" height="66" viewBox="0 0 79.41 66">
  <defs>
    <style>
      .ab90b37a-0dfb-4814-9652-2d0c3752777e, .f82aebd2-6003-41a7-bcbb-c46921d891bc {
        fill: #fff;
      }

      .f82aebd2-6003-41a7-bcbb-c46921d891bc {
        stroke: #702840;
      }

      .aeebcc5b-2839-4a82-b7a9-1177cb4786cc, .f82aebd2-6003-41a7-bcbb-c46921d891bc {
        stroke-miterlimit: 10;
        stroke-width: 0.75px;
      }

      .bc676acf-3caf-4df3-b2be-a4122bd35afe {
        fill: #210a11;
      }

      .aeebcc5b-2839-4a82-b7a9-1177cb4786cc {
        fill: #ffe309;
        stroke: #665608;
      }
    </style>
  </defs>
  <g>
    <g>
      <g>
        <path class="f82aebd2-6003-41a7-bcbb-c46921d891bc" d="M33.33,40.83a24.23,24.23,0,0,1-1.24,3.92C29,52.29,22.49,57,16.3,55.65s-9.92-8.07-9.62-16a24.14,24.14,0,0,1,.58-4.47c2.2-9.74,9.83-16.37,17-14.81S35.54,31.09,33.33,40.83Z"/>
        <ellipse class="bc676acf-3caf-4df3-b2be-a4122bd35afe" cx="26.59" cy="38.25" rx="8.15" ry="6.05" transform="translate(-15.39 58.42) rotate(-80.86)"/>
        <ellipse class="ab90b37a-0dfb-4814-9652-2d0c3752777e" cx="30.52" cy="36.89" rx="2.23" ry="1.66" transform="translate(-10.75 61.16) rotate(-80.86)"/>
      </g>
      <g>
        <path class="f82aebd2-6003-41a7-bcbb-c46921d891bc" d="M68.9,43a22,22,0,0,1-.51,4.73c-1.51,6.79-6.15,11.77-11.65,11.81-6.05.05-11.06-5.92-12-13.77a21.81,21.81,0,0,1-.15-2.58c0-9.09,5.46-16.5,12.16-16.55S68.91,33.91,68.9,43Z"/>
        <ellipse class="bc676acf-3caf-4df3-b2be-a4122bd35afe" cx="62.85" cy="43.71" rx="5.5" ry="7.41" transform="translate(-2.58 3.96) rotate(-3.54)"/>
        <ellipse class="ab90b37a-0dfb-4814-9652-2d0c3752777e" cx="66.16" cy="40.96" rx="1.51" ry="2.03" transform="translate(-2.4 4.16) rotate(-3.54)"/>
      </g>
      <path class="bc676acf-3caf-4df3-b2be-a4122bd35afe" d="M54.76,18.22s5.56.66,11.86,7.37C66.62,25.59,58,8.8,54.76,18.22Z"/>
      <path class="bc676acf-3caf-4df3-b2be-a4122bd35afe" d="M33.16,11.77s-6-1.34-15.14,2.7C18,14.47,33.46,1.82,33.16,11.77Z"/>
    </g>
    <path class="aeebcc5b-2839-4a82-b7a9-1177cb4786cc" d="M33.33,40.83a24.23,24.23,0,0,1-1.24,3.92A24.67,24.67,0,0,1,29.5,45a35.29,35.29,0,0,1-7.19-.46A63.12,63.12,0,0,1,6.68,39.64a24.14,24.14,0,0,1,.58-4.47c2.2-9.74,9.83-16.37,17-14.81S35.54,31.09,33.33,40.83Z"/>
    <path class="aeebcc5b-2839-4a82-b7a9-1177cb4786cc" d="M68.9,43a22,22,0,0,1-.51,4.73c-.33.15-.67.29-1,.41a20.87,20.87,0,0,1-8.16.94h0a53.08,53.08,0,0,1-14.43-3.31,21.81,21.81,0,0,1-.15-2.58c0-9.09,5.46-16.5,12.16-16.55S68.91,33.91,68.9,43Z"/>
  </g>
</svg>
