<svg id="ed2818d6-daf3-44d2-a6fc-cbb604320387" data-name="Layer 1" xmlns="http://www.w3.org/2000/svg" width="71" height="54" viewBox="0 0 71 54">
  <defs>
    <style>
      .b859924e-9178-48c7-9b33-84ba6c80e69c {
        fill: #fff;
      }

      .a2c98d56-0f09-45f9-8aa8-58fda9f84dd6 {
        fill: #702840;
      }

      .b24c0294-4ff5-491c-a75c-98ad4af81cf2 {
        fill: #210a11;
      }

      .f2ac3e3b-2700-4e00-a2f3-b06172720ee2 {
        fill: #ecc516;
      }

      .ef059cc3-dea8-43ab-b83a-21906bf0f8f0 {
        fill: #7f3d00;
      }
    </style>
  </defs>
  <g>
    <g>
      <g>
        <ellipse class="b859924e-9178-48c7-9b33-84ba6c80e69c" cx="24.06" cy="34.77" rx="10.08" ry="13.68" transform="translate(-3.18 2.43) rotate(-5.42)"/>
        <path class="a2c98d56-0f09-45f9-8aa8-58fda9f84dd6" d="M25.5,48.42a8.12,8.12,0,0,1-4.59-.83,11.23,11.23,0,0,1-3.65-3,17.91,17.91,0,0,1-2.4-18.21,12,12,0,0,1,3-4,9,9,0,0,1,4.66-2.13,8.94,8.94,0,0,1,5,1,11.93,11.93,0,0,1,3.79,3.26,17.18,17.18,0,0,1,3.22,9.06,17.54,17.54,0,0,1-1.83,9.25,11.47,11.47,0,0,1-2.93,3.7A8.23,8.23,0,0,1,25.5,48.42Zm0-.1a8.11,8.11,0,0,0,4.2-1.87,11.38,11.38,0,0,0,2.82-3.67,17,17,0,0,0,1.5-9.1,16.83,16.83,0,0,0-3.36-8.58,11,11,0,0,0-3.54-3,7.91,7.91,0,0,0-4.48-.87,8,8,0,0,0-4.17,1.85,11.26,11.26,0,0,0-2.83,3.66,17.39,17.39,0,0,0,1.82,17.68,11,11,0,0,0,3.54,3A8,8,0,0,0,25.49,48.32Z"/>
      </g>
      <ellipse class="b24c0294-4ff5-491c-a75c-98ad4af81cf2" cx="25.31" cy="36.35" rx="4.57" ry="6.16" transform="translate(-5.74 4.76) rotate(-9.65)"/>
      <ellipse class="b859924e-9178-48c7-9b33-84ba6c80e69c" cx="27.46" cy="31.95" rx="1.25" ry="1.69" transform="translate(-4.97 5.06) rotate(-9.65)"/>
      <g>
        <path class="f2ac3e3b-2700-4e00-a2f3-b06172720ee2" d="M14,35.92c-.79-7.51,3.05-14.11,8.58-14.75s10.66,4.94,11.46,12.45a28.21,28.21,0,0,1-.27,3.84C31,38,30,39,14.77,39.65A15,15,0,0,1,14,35.92Z"/>
        <path class="ef059cc3-dea8-43ab-b83a-21906bf0f8f0" d="M14,35.92a16.83,16.83,0,0,1,1.43-9.17A11.45,11.45,0,0,1,18.28,23,8.26,8.26,0,0,1,22.55,21a8.09,8.09,0,0,1,4.64.83,11.22,11.22,0,0,1,3.66,3,16.33,16.33,0,0,1,3.41,8.72h0A27.74,27.74,0,0,1,34,37.48v.12l-.12,0c-1.55.32-3.11.77-4.7,1s-3.18.41-4.78.55c-3.19.26-6.39.4-9.59.53h0v0A14.81,14.81,0,0,1,14,35.92Zm0,0a15.22,15.22,0,0,0,.73,3.73h0c3.2-.14,6.4-.31,9.58-.6,1.6-.14,3.19-.31,4.77-.57s3.12-.7,4.69-1l0,0a29,29,0,0,0,.27-3.84h0A16.68,16.68,0,0,0,30.67,25a11,11,0,0,0-3.56-3,7.75,7.75,0,0,0-8.75,1.05,11.5,11.5,0,0,0-2.82,3.7A16.86,16.86,0,0,0,14.05,35.92Z"/>
      </g>
    </g>
    <g>
      <g>
        <ellipse class="b859924e-9178-48c7-9b33-84ba6c80e69c" cx="51.4" cy="29.53" rx="9.17" ry="12.44" transform="translate(-6.63 17.43) rotate(-18.1)"/>
        <path class="a2c98d56-0f09-45f9-8aa8-58fda9f84dd6" d="M55.41,41.36a7.5,7.5,0,0,1-4.25.18,10.22,10.22,0,0,1-3.84-1.92A16.3,16.3,0,0,1,41.5,23.91a10.85,10.85,0,0,1,1.87-4.16,8.23,8.23,0,0,1,3.74-2.85,8.13,8.13,0,0,1,4.71-.08,10.82,10.82,0,0,1,4,2.15,15.63,15.63,0,0,1,4.67,7.43,16,16,0,0,1,.2,8.6,10.39,10.39,0,0,1-1.87,3.87A7.5,7.5,0,0,1,55.41,41.36Zm0-.1a7.24,7.24,0,0,0,3.35-2.5,10.12,10.12,0,0,0,1.77-3.82A15.36,15.36,0,0,0,60,26.58a15.22,15.22,0,0,0-4.69-6.94,9.93,9.93,0,0,0-3.72-1.92,7.24,7.24,0,0,0-4.15.12,7.32,7.32,0,0,0-3.33,2.48,10,10,0,0,0-1.77,3.8,15.35,15.35,0,0,0,.46,8.36,15.21,15.21,0,0,0,4.67,7,10.07,10.07,0,0,0,3.73,1.93A7.22,7.22,0,0,0,55.37,41.26Z"/>
      </g>
      <ellipse class="b24c0294-4ff5-491c-a75c-98ad4af81cf2" cx="50.38" cy="31.45" rx="4.16" ry="5.6" transform="translate(-5.63 11.71) rotate(-12.56)"/>
      <ellipse class="b859924e-9178-48c7-9b33-84ba6c80e69c" cx="51.83" cy="28.03" rx="1.14" ry="1.54" transform="translate(-4.85 11.94) rotate(-12.56)"/>
      <g>
        <path class="f2ac3e3b-2700-4e00-a2f3-b06172720ee2" d="M42.74,32.55c-2.2-6.51-.11-13.13,4.67-14.8S57.86,20,60.06,26.51a13.14,13.14,0,0,1,.74,3C56,33,54,34,43.91,35.39A10.91,10.91,0,0,1,42.74,32.55Z"/>
        <path class="ef059cc3-dea8-43ab-b83a-21906bf0f8f0" d="M42.73,32.55a15.15,15.15,0,0,1-.37-9.18,9.56,9.56,0,0,1,2.33-4,7.1,7.1,0,0,1,4.17-2.07,8.28,8.28,0,0,1,4.61.86A12.16,12.16,0,0,1,57.18,21a15.16,15.16,0,0,1,2.5,4A16.84,16.84,0,0,1,61,29.51v.1l-.08.05a38.3,38.3,0,0,1-3.82,2.47,19.07,19.07,0,0,1-4.23,1.69,69.44,69.44,0,0,1-8.94,1.59h0v0A10.85,10.85,0,0,1,42.73,32.55Zm0,0a10.78,10.78,0,0,0,1.17,2.83h0a70.94,70.94,0,0,0,8.91-1.66A19,19,0,0,0,57,32a39.25,39.25,0,0,0,3.79-2.49v0a16.48,16.48,0,0,0-1.3-4.45A15.51,15.51,0,0,0,57,21.17a12.13,12.13,0,0,0-3.62-2.87,8.09,8.09,0,0,0-4.5-.86,6.92,6.92,0,0,0-4.1,2,9.43,9.43,0,0,0-2.33,4A15.16,15.16,0,0,0,42.75,32.55Z"/>
      </g>
    </g>
    <path class="b24c0294-4ff5-491c-a75c-98ad4af81cf2" d="M43.91,12.22s4.14-.88,10.28,2.38C54.19,14.6,43.91,4.69,43.91,12.22Z"/>
    <path class="b24c0294-4ff5-491c-a75c-98ad4af81cf2" d="M26.88,12.86s-4.64.51-10.18,5.63C16.7,18.49,24.67,5.67,26.88,12.86Z"/>
  </g>
</svg>
