<svg id="Layer_1" data-name="Layer 1" xmlns="http://www.w3.org/2000/svg" width="926.96" height="500" viewBox="0 0 926.96 500">
  <defs>
    <style>
      .cls-1 {
        opacity: 0.2;
      }

      .cls-2 {
        fill: #747474;
      }

      .cls-3 {
        fill: #8c8c8c;
      }

      .cls-4 {
        fill: #5e5e5e;
      }

      .cls-5, .cls-9 {
        fill: #fff;
      }

      .cls-6, .cls-8 {
        fill: none;
      }

      .cls-6, .cls-8, .cls-9 {
        stroke: #323232;
        stroke-miterlimit: 10;
      }

      .cls-6, .cls-9 {
        stroke-width: 2px;
      }

      .cls-7 {
        fill: #525250;
      }
    </style>
  </defs>
  <g>
    <ellipse class="cls-1" cx="604.35" cy="458.62" rx="305.28" ry="34.56"/>
    <g>
      <path class="cls-2" d="M838.92,315.1c13.69-26.61,18.43-123.17,18.43-123.17,4.2-13.08-5.18-50.21-5.18-50.21-2.88-11.05-20.74-46.56-20.74-46.56C779.59-1,686.85,9.91,686.85,9.91c-96.77,0-187.64,74.66-187.64,74.66-69.25,27.11-104.43,46.31-106,47.89,4.6,17.85,6.84,36.3,9.39,54.7,3.29,23.69,22.46,81.82,24.51,86.92a59.87,59.87,0,0,0,10.59-4.27l38.54,23.47c-11.41,42.43-24.51,89.93-24.51,89.93l1.64,60.3c-19.52,20.28-4.87,26.56-4.87,26.56,50.25,21.39,80,5.19,89.68-1.92,47.76,16.91,74.84-6.49,74.84-6.49,21.32-14.36,2.17-50,2.17-50-18.7-32.63-11.86-54.74-11.86-54.74,12.87,5.79,44.41,13.51,44.41,13.51-5.15,10.3,1.28,37.33,1.93,44.41-7.73,14.8-6.44,39.9-6.44,39.9,14.16,9,56,2.58,56,2.58,44.41,1.93,27.68-41.19,27.68-41.19-3.87-41.19,17.37-51.49,17.37-51.49,12.23,5.79,34.11,36.68,34.11,36.68,7.08,27-12.87,52.13-12.87,52.13,70.79,31.54,93.32,0,93.32,0C893.56,417.38,838.92,315.1,838.92,315.1Zm-309,128.53c-9.63-27.8-5.24-59.38-5.24-59.38,9.13,5.66,7.39,15.63,7.39,15.63C536.31,410.33,533.29,429.29,529.93,443.63Z"/>
      <path class="cls-3" d="M529,375.42s21.57,19.87,9.57,64.09l-6.24,25.74-7.68-3.44s12-47.35,8.14-60.46c0,0-1.61-12.44-10.63-19.79Z"/>
      <path class="cls-4" d="M583.06,346.35s-.89,39.26,12.38,71.36c0,0,3,32.18-2.6,53.13,0,0,32-5.6,30.13-33.69,0,0-1.43-16.67-10.39-31,0,0-14.33-36.56-7.67-51.31C604.91,354.81,589.56,347.79,583.06,346.35Z"/>
      <path class="cls-5" d="M524.69,461.81s3.95-31.26,15.35-20.24A67.34,67.34,0,0,1,546.6,469v1S530.38,465.13,524.69,461.81Z"/>
      <path class="cls-5" d="M550.72,470.84S553.84,444,566,442.16c0,0,11.74-2.94,22.76,21.47,0,0,3.15,6.11,2.93,7.21C591.65,470.84,573.4,477.14,550.72,470.84Z"/>
      <path class="cls-5" d="M600.39,468.61s-3.38-19.8,5.37-23.9c0,0,9-6,16.85,0C622.61,444.71,621.25,461.69,600.39,468.61Z"/>
      <path class="cls-6" d="M529,443.81s5-9.08,11-2.24c0,0,6.18,8.12,6.56,28.5"/>
      <path class="cls-6" d="M550.72,471.83s2.34-28.47,16.1-29.77c0,0,14.4-1.26,25.2,28.44.23.63.45,1.26.67,1.92C592.69,472.42,566.94,476.05,550.72,471.83Z"/>
      <path class="cls-6" d="M592.69,471.48l7.7-2.87s20.89-8.89,22.22-23.9c0,0-19.15-10.59-22.65,11.23,0,0-1.17,8.3.33,12.05"/>
      <path class="cls-4" d="M712,368.09s.11,17.71-3.66,22c0,0-13.3,25.68,1.83,64.55l.2,1.35s18.25-2.72,19.41-20.39c0,0,.42-11.74-2.94-20.17,0,0-3.6-37.5,17.37-51.49l.22-.22s-5.13-5.78-6-8.12C738.46,355.55,713.62,367.22,712,368.09Z"/>
      <path class="cls-4" d="M814.83,69.76S846.64,108,835.49,223.34c0,0-3,31.7-11.66,56.53,0,0-10.64,34.16,7.6,66.48,0,0,22.81,53.09,12.17,116.43,0,0,32.11-4.93,25.78-59.89,0,0-7.47-52-30.46-88.51,0,0,22.73-63.61,18.43-123.17C857.35,191.21,855.36,115.39,814.83,69.76Z"/>
      <path class="cls-3" d="M499.21,83.85S662.05-18.23,792.05,46.13C792.05,46.13,692.23-63.5,499.21,83.85Z"/>
      <path class="cls-3" d="M700.53,243.92S687.09,300.5,770,377.26c0,0,36.26,37.74,5.07,78.68l-9.59-3.24S783,430,778.36,400.57C778.36,400.57,664.55,296.56,700.53,243.92Z"/>
      <path class="cls-3" d="M656.84,371.51s-.41,34.87,1.72,41.26l-1.75,46s-12-2.43-13.6-4.79c0,0-.73-31.47,6.44-39.9,0,0-8.59-37.77-1.93-44.41C647.72,369.68,654.72,371.2,656.84,371.51Z"/>
      <path class="cls-3" d="M479,267.92l5.35,3.6c-2.87,15-1.84,24.94-1.15,27.61,4.83,18.52-30.13,89.29-23.57,103.71a17.67,17.67,0,0,1,1.73,7.12l.89,65.14s-32.53-.63-11.6-27.37l3.23-5.59c3.58-20.25,0-36.67-1-38.12-2-2.8-5.4-28.6,24.07-104.8Z"/>
      <path class="cls-6" d="M524.69,384.25s-1.55-5.57,7.39,15.63c0,0,4.35,19.42-7.39,61.93,0,0,59.26,34.22,95-7.17,0,0,9-10.44-.95-35.11,0,0-19.39-40.9-13.81-64.72"/>
      <path class="cls-7" d="M601.31,260S603.92,275.43,605,283c0,0,16.68-6.33,22-14.16,0,0-4.11,48.06,57.69-45.45,0,0,0,34.5,11.83,49.76,0,0-2.15,28.17,41.92,82.45,0,0-49.61,39.43-131.9,0,0,0-21.85-13.35-44.42-16.38,0,0-58.77,67.89-25.78,114,0,0,20.23,17.65-19.19,24.61,0,0-2.87-6.32-4.22-10,0,0-16.6-93.48,43.45-134C556.4,333.86,586.54,303.43,601.31,260Z"/>
      <path class="cls-5" d="M643.21,454s0-20.56,1.08-22.23c0,0,13.07-4.19,17.67,14.34,0,0,1.57,10.49.81,11.91l0,.58S650.77,458.87,643.21,454Z"/>
      <path class="cls-5" d="M666.29,458.6s7.45-25.58,22.55-18.13c0,0,6.76,4.41,9.11,16.17C698,456.64,671.31,460.13,666.29,458.6Z"/>
      <path class="cls-5" d="M702.23,455.94c.65-1-.5-22.24,26.85-15.85.13-.49-.39,12.2-18.67,15.85,0,0-5.63,1-8.33.69A5.91,5.91,0,0,1,702.23,455.94Z"/>
      <path class="cls-5" d="M765.49,452.7c-1.08-.69,9.65-14.61,10.72-22.33,0,0,14.23,2.53,17.49,28.64v3.77S772.34,457.07,765.49,452.7Z"/>
      <path class="cls-5" d="M799.07,462.78s8.14-29.67,23.48-25.29c0,0,12.83,6.14,15.65,25.29l.26,1.81a84.61,84.61,0,0,1-39.85-.56Z"/>
      <path class="cls-5" d="M843.6,462.78s-7.56-26.9,23.66-24.69C867.26,438.09,861.57,459.08,843.6,462.78Z"/>
      <path class="cls-8" d="M836.06,100.76s22,46.25,21.29,90.45"/>
      <path class="cls-6" d="M630.27,265.92s-36.91,46.65-52.47,53.44"/>
      <path class="cls-6" d="M684.71,223.34s-12.39,37.78,13.43,69.07"/>
      <path class="cls-6" d="M700.53,243.92S670.27,281,736.45,355.55"/>
      <g>
        <path class="cls-5" d="M443.12,461.25s-.35,4.39,15.64,13.22C458.76,474.47,465.92,437.26,443.12,461.25Z"/>
        <path class="cls-6" d="M444,459.73s15.48-15.14,16.11-1.65c0,0,.71,6.69-2.13,16.38l-.18.64"/>
      </g>
      <g>
        <path class="cls-5" d="M461.37,475.17c.62,1.62,12,6.83,42.45,3.66C503.82,478.83,490.61,429,461.37,475.17Z"/>
        <path class="cls-6" d="M462.89,476c-.69,1.55,2.41-22,23.12-20.37,0,0,9.83-1.11,18.08,22.82"/>
      </g>
      <path class="cls-6" d="M647.72,369.68s-7.94,3.84,1.93,44.41c0,0-8.48,11.13-6.44,39.9,0,0,10.6,11.23,61.72,2.69,0,0,22.68.09,24.89-21.13a76.1,76.1,0,0,0-2.94-20.17s-3.18-38,17.37-50.77"/>
      <path class="cls-6" d="M644.29,431.76s18.83-5.62,18.43,26.83v.73"/>
      <path class="cls-6" d="M666.29,459.47s6.16-26.76,22.55-19c0,0,8.47,6.9,9.11,17"/>
      <path class="cls-6" d="M702.08,456.63s-1.94-24,27-16.54"/>
      <path class="cls-6" d="M776.21,430.37s15.06-1.61,17.79,32.31"/>
      <path class="cls-6" d="M798.61,464s7-30.68,23.94-26.54c0,0,13,3.56,15.91,27.1"/>
      <path class="cls-6" d="M843.51,462.47s-7.93-27,23.16-24.41"/>
      <path class="cls-6" d="M479,267.92s2.34,27.51-15,69.95c0,0-19.91,39.47-9.29,79.44,0,0,2.21,26.16-6.21,33.07,0,0-21.2,19.74,20.58,27.88,0,0,55.5,9.87,72.34-10.86,0,0,5-6-7.48-16.41,0,0-9.2-14.68-7.49-32.56,0,0-4-32.62,31.58-74l37.41-47.32s10.86-31.2,3.86-56.61"/>
      <g>
        <path class="cls-5" d="M509.87,475.86s11.09-36.23,31.39-9.8l.4.71a49.94,49.94,0,0,1-32.26,11A6,6,0,0,0,509.87,475.86Z"/>
        <path class="cls-9" d="M508,478.48s6.21-20.43,18.55-22.05c0,0,6.73-1,13.83,9.56"/>
      </g>
      <path class="cls-6" d="M431.11,272.92c6-7,15.05,2.47,29.77,11,4.66,2.71,10,5,14,8-2,23-11,44-19,66s-5,44,0,67c2,13-7,23-12,34a13,13,0,0,0,5,13c8,6,17,6,26,8,18,2,36,3,53-3,6-3,15-6,14-14-2-7-9-11-12-17-4-12-6-24-5-36,3-18,10-33,20-48,6-8,12-15,17.26-22.77l-2.22,2.08c12-4.31,23,3.69,33,8.69,31,16,64,27,99,24,16-2,29-9,43-18a3.67,3.67,0,0,1,3,1c12,16,26,28,39,43,7,9,3,21-1,31-4,7-8,14-10.39,21.76,1.8-.45,2.48-2.54,2.48-4.22a11.83,11.83,0,0,0-2.48,4.22c1.52.55,8-.41,5-3.12-1.54-1.41-4.19,2-5,3.12,23,11.12,50.64,20.88,75.9,11.36,12.49-4.12,20.49-14.12,25.49-25.12,5-14,4-29,2-44-3-18-9-34-14-51-4-11-11-20-16-31,16-42,24-88,21-133-1-9-3-18-5-28-2-9-3-18-7-27-4-10-7-20-13-29-7-11-14-20-22-31-7-9-15-16-24-23-53-43-124-44-185-21a69.43,69.43,0,0,1-13,5c-16,7-31,14-46,24-2,1-2,3-4,4a301.85,301.85,0,0,0-41.67,29.91"/>
    </g>
  </g>
</svg>
