<svg id="b53c2239-0a15-4a9d-af84-0dde635a1d5f" data-name="Layer 1" xmlns="http://www.w3.org/2000/svg" width="121.06" height="120.35" viewBox="0 0 121.06 120.35">
  <defs>
    <style>
      .b8f6b8b5-67d2-49ae-968c-982d9dec6a54 {
        fill: #bcfde5;
      }

      .e3836c7a-7f7b-4662-8854-8aefbeddd968 {
        fill: #ebf7f2;
      }
    </style>
  </defs>
  <g>
    <g>
      <path class="b8f6b8b5-67d2-49ae-968c-982d9dec6a54" d="M104.75,103.93C91,109.9,73.86,78.77,64.45,57s-8.74-44.19,5-50.16,26.17,12,35.58,33.78S118.55,98,104.75,103.93Z"/>
      <path class="e3836c7a-7f7b-4662-8854-8aefbeddd968" d="M104.77,104a9.83,9.83,0,0,1-3.71.75,11,11,0,0,1-3.72-.73,21.17,21.17,0,0,1-6.41-4,62.64,62.64,0,0,1-9.87-11.5A183.86,183.86,0,0,1,66.18,62.06C61.75,53,58.26,43.21,57.48,33a39.75,39.75,0,0,1,1.61-15.3,21.64,21.64,0,0,1,3.77-6.88A16.87,16.87,0,0,1,69.18,6,15.65,15.65,0,0,1,73.05,5a14.32,14.32,0,0,1,4,.06,18,18,0,0,1,7.24,3.14A32.75,32.75,0,0,1,90,13.39a58.16,58.16,0,0,1,4.68,6.08,106.54,106.54,0,0,1,7.44,13.31,126.72,126.72,0,0,1,5.83,14,113.77,113.77,0,0,1,5.72,29.76,58.5,58.5,0,0,1-.92,15.12,24.82,24.82,0,0,1-2.58,7.12A11.9,11.9,0,0,1,104.77,104Zm0-.1a11.71,11.71,0,0,0,5.37-5.11,25.13,25.13,0,0,0,2.53-7.09,59,59,0,0,0,.85-15.07,112.54,112.54,0,0,0-6-29.6,126.31,126.31,0,0,0-6-13.92A108.58,108.58,0,0,0,94,20a59.49,59.49,0,0,0-4.63-6,31.91,31.91,0,0,0-5.59-5.06A16.92,16.92,0,0,0,76.93,6a13.09,13.09,0,0,0-3.75-.05,15.15,15.15,0,0,0-3.61,1,16.26,16.26,0,0,0-6,4.47A20.63,20.63,0,0,0,60,18a38.64,38.64,0,0,0-1.62,14.93c.69,10.1,4,19.83,8.33,28.92A180.24,180.24,0,0,0,81.26,88.35,62.22,62.22,0,0,0,91,99.86a21,21,0,0,0,6.35,4,10.77,10.77,0,0,0,3.68.74A9.41,9.41,0,0,0,104.73,103.88Z"/>
    </g>
    <g>
      <path class="b8f6b8b5-67d2-49ae-968c-982d9dec6a54" d="M100.47,99.58c-4.84,14.23-39.39,6-61.83-1.65S0,74.73,4.88,60.5s26.49-11.31,48.93-3.67S105.32,85.36,100.47,99.58Z"/>
      <path class="e3836c7a-7f7b-4662-8854-8aefbeddd968" d="M100.52,99.6a9.6,9.6,0,0,1-1.94,3.25,10.7,10.7,0,0,1-3,2.27,21.3,21.3,0,0,1-7.29,2.06,61.88,61.88,0,0,1-15.14-.42A183.94,183.94,0,0,1,43.55,100c-9.7-2.81-19.29-6.8-27.4-13.1A39.63,39.63,0,0,1,5.9,75.48a21.69,21.69,0,0,1-2.57-7.42,17,17,0,0,1,.72-7.88,15.88,15.88,0,0,1,1.8-3.59,14.53,14.53,0,0,1,2.76-2.94A17.94,17.94,0,0,1,15.8,50.4a32.49,32.49,0,0,1,7.72-.73,57.46,57.46,0,0,1,7.65.62A105.55,105.55,0,0,1,46,53.72a126.57,126.57,0,0,1,14.33,5.11A114.16,114.16,0,0,1,86.24,74.59,58.65,58.65,0,0,1,96.82,85.42a25,25,0,0,1,3.54,6.7A11.82,11.82,0,0,1,100.52,99.6Zm-.09,0a11.82,11.82,0,0,0-.19-7.41,25.14,25.14,0,0,0-3.55-6.64,59,59,0,0,0-10.6-10.75,112.56,112.56,0,0,0-26-15.43A125.9,125.9,0,0,0,45.82,54.4a108.13,108.13,0,0,0-14.77-3.26,59.52,59.52,0,0,0-7.54-.58,32,32,0,0,0-7.5.74,17.08,17.08,0,0,0-6.8,3.11,13.28,13.28,0,0,0-2.55,2.74A14.84,14.84,0,0,0,5,60.51a16.12,16.12,0,0,0-.7,7.42A20.64,20.64,0,0,0,6.72,75a38.64,38.64,0,0,0,10,11.23c7.94,6.27,17.37,10.35,27,13.26a181.66,181.66,0,0,0,29.44,7,62,62,0,0,0,15.09.48,20.9,20.9,0,0,0,7.24-2,10.71,10.71,0,0,0,3-2.23A9.52,9.52,0,0,0,100.43,99.57Z"/>
    </g>
  </g>
</svg>
