<svg id="b06d9df3-678f-4fa5-adaf-143b71ac96c3" data-name="Layer 1" xmlns="http://www.w3.org/2000/svg" width="240" height="260" viewBox="0 0 240 260">
  <defs>
    <style>
      .a6296d01-339f-463b-9209-fdd8732bd013, .ecb4c7cd-e62c-45b0-805b-4ab9ed05ca0c {
        fill: #ffe309;
        stroke-width: 0.75px;
      }

      .a6296d01-339f-463b-9209-fdd8732bd013 {
        stroke: #665608;
      }

      .a6296d01-339f-463b-9209-fdd8732bd013, .a7c5e901-0d96-47f6-9b42-2eef3a11243a, .ecb4c7cd-e62c-45b0-805b-4ab9ed05ca0c {
        stroke-miterlimit: 10;
      }

      .ecb4c7cd-e62c-45b0-805b-4ab9ed05ca0c {
        stroke: #493c05;
      }

      .a616cae0-9c2f-4635-9908-09a764a5d178 {
        fill: #ecc516;
      }

      .a7c5e901-0d96-47f6-9b42-2eef3a11243a {
        fill: #532900;
        stroke: #3a1c03;
      }

      .b4065695-36cb-4e05-a0d5-ada43c3c8099 {
        fill: #681a1a;
      }

      .b271e50f-c41e-4d5c-810c-ca71f5441afb {
        fill: #ef7089;
      }

      .f81af160-dae0-48b2-b82e-07b67ba338fc {
        fill: #ff5763;
      }

      .fc4818c9-c65e-4d40-a2d4-9a7b5e0b5344 {
        fill: #fff;
      }

      .e5ef1967-b3a6-45fa-a10e-812d9ccef5c6 {
        fill: #ef304c;
      }

      .b98453c9-d1d4-4857-8d4b-bb80d9b11e61 {
        fill: #ffa979;
      }
    </style>
  </defs>
  <g>
    <path class="a6296d01-339f-463b-9209-fdd8732bd013" d="M79.39,221.72s3.11,6.61-4.5,9.46-14.16,1.95-13.09,10,2.94,16.52,10.94,15.46,4.9-11.9,11.11-12.57,17-4.94,13.28-18.7S79.39,221.72,79.39,221.72Z"/>
    <g>
      <path class="a6296d01-339f-463b-9209-fdd8732bd013" d="M158.12,173.49S155.94,179,175.55,201c0,0,7.76,9.14,13.66,12.64s13,12.63,12.6,17.16-4.15,8.58-7.52,2l-.63-7.94s4.38,7.48-4.85,10.73-1.63-11-1.63-11l-4.24,8.25s-8.06-.1-2.91-12.18c0,0-5.2.86-20-11.84S135.65,178,135.65,178Z"/>
      <path class="ecb4c7cd-e62c-45b0-805b-4ab9ed05ca0c" d="M163.11,179.56c-2.86,10.65-7.1,19.54-13,26.67a52.63,52.63,0,0,1-15.6,12.82h0A66.89,66.89,0,0,1,120,224.8c-1,.27-1.92.51-2.88.71A71.13,71.13,0,0,1,95.65,227c-14.2-1.13-26.77-6.05-36-10.64-2.21-1.08-4.22-2.17-6-3.15-13.5-7.42-23.78-6.46-23.78-6.46,7.25-4.51,10.45-13.38,14.27-22.87,3.45-8.67,7.41-17.85,15.42-24.65.41-.35.82-.71,1.27-1.06a47.18,47.18,0,0,1,8.43-5.2,62.27,62.27,0,0,1,14.23-4.78,1.8,1.8,0,0,1,.39-.08,84.19,84.19,0,0,1,13.86-1.7,67.72,67.72,0,0,1,8.37.09c17.47,1.67,23.28-10.76,23.28-10.76l36.5,30.39A122.33,122.33,0,0,1,163.11,179.56Z"/>
      <path class="a616cae0-9c2f-4635-9908-09a764a5d178" d="M162.61,177.55c-8,1.65-17,.88-27.64-1.28-22-4.47-38.42-16.36-37.86-27.14a66.11,66.11,0,0,1,11.75-1.77,51.29,51.29,0,0,1,7.09-.05c14.76,1.27,19.87-10.26,19.87-10.26l30.42,27.38C165.56,168.82,163.63,173.67,162.61,177.55Z"/>
      <path class="a7c5e901-0d96-47f6-9b42-2eef3a11243a" d="M60.44,216c-2.21-1.09-5-1.82-6.81-2.8-13.5-7.42-23.78-6.46-23.78-6.46,7.25-4.51,11.21-14.31,15-23.79C44.36,190.52,46,204.58,60.44,216Z"/>
      <path class="a7c5e901-0d96-47f6-9b42-2eef3a11243a" d="M150.12,206.23a52.63,52.63,0,0,1-15.6,12.82h0c-8.71-1.77-24.76-7.94-40.77-29.1-9.83-13-11.59-28.32-10.27-41.76a84.49,84.49,0,0,1,14.25-1.78c-.9,10.62.45,27.8,14.73,41.48C126.45,201.29,141.13,205.18,150.12,206.23Z"/>
      <path class="a7c5e901-0d96-47f6-9b42-2eef3a11243a" d="M117.09,225.51A71.13,71.13,0,0,1,95.65,227c-9.76-3.55-23-10.48-30.91-23.49-9.71-15.88-8.46-31.43-5.2-44.28.41-.35.82-.71,1.27-1.06a47.18,47.18,0,0,1,8.43-5.2c-1.78,10.16-2.57,27.7,8.72,42C91.31,211.85,109.8,222,117.09,225.51Z"/>
      <g>
        <path class="a6296d01-339f-463b-9209-fdd8732bd013" d="M130.26,75.93s-10.86-2-19.84-25.84S118,2.4,130.69,3.34,141.7,15,129,21s-17.22,35.19,5.08,52.37C134.05,73.41,146,87.55,130.26,75.93Z"/>
        <path class="a6296d01-339f-463b-9209-fdd8732bd013" d="M163.77,79.45s.83-20.23,7.31-32.52S196.24,8.44,214.14,18.4c0,0,4.86,5,1.6,9.47s-8.53,5.06-12.94,1.36S167,42.82,168.73,79.28C168.73,79.28,166.09,88.83,163.77,79.45Z"/>
        <g>
          <path class="a6296d01-339f-463b-9209-fdd8732bd013" d="M204,152.54c-4.26,23.94-27.37,34-53.05,34.58a.12.12,0,0,1-.08,0,116.44,116.44,0,0,1-25.51-2.37c-34-6.91-48-28.38-39.17-62.45,6.65-25.62,26.28-47.7,51.87-51.07a53.66,53.66,0,0,1,17.78.68C189.86,78.83,210.29,117.07,204,152.54Z"/>
          <path class="a616cae0-9c2f-4635-9908-09a764a5d178" d="M153,186.53a117.67,117.67,0,0,1-25.5-2.39c-34-6.91-48.08-28.22-39.27-62,6.6-25.38,26.19-47.23,51.76-50.53C128,76.93,104.92,91.24,99,124,91.4,166.57,123.82,184.43,153,186.53Z"/>
          <g>
            <g>
              <g>
                <g>
                  <path class="b4065695-36cb-4e05-a0d5-ada43c3c8099" d="M179.13,152.78s-2.3,11.33-9.48,18.74a20.46,20.46,0,0,1-6.86,4.84c-10,4.22-21.13,1.51-27-10.31-.15-.25-.26-.51-.39-.78a40.06,40.06,0,0,1-3.08-10.73s20.2,7,39.66,1.06A45.91,45.91,0,0,0,179.13,152.78Z"/>
                  <path class="b271e50f-c41e-4d5c-810c-ca71f5441afb" d="M179.16,152.74a29.86,29.86,0,0,1-.91,3.81c-.37,1.24-.77,2.47-1.24,3.68a42.78,42.78,0,0,1-3.39,7,30.16,30.16,0,0,1-5,6.07,19.92,19.92,0,0,1-6.75,4.14,20.94,20.94,0,0,1-15.66,0,20.06,20.06,0,0,1-6.61-4.52,26,26,0,0,1-4.59-6.53l0,.06a25.61,25.61,0,0,1-1.27-2.9c-.36-1-.68-1.94-1-2.93a45.76,45.76,0,0,1-1.28-6l-.2-1.34,1.3.42a71.42,71.42,0,0,0,11.5,2.66,75.36,75.36,0,0,0,11.81,1,63.2,63.2,0,0,0,11.81-1.07c1-.15,1.94-.43,2.91-.65a28.94,28.94,0,0,0,2.87-.77A52.94,52.94,0,0,0,179.16,152.74Zm-.06.08a39.92,39.92,0,0,1-5.47,2.32c-.94.33-1.9.61-2.87.85s-1.92.56-2.91.74A59.4,59.4,0,0,1,156,158a76.8,76.8,0,0,1-23.63-3.41l.12-.1a43.58,43.58,0,0,0,1.29,5.87,33.18,33.18,0,0,0,2.17,5.59h0a26,26,0,0,0,4.39,6.3,19.14,19.14,0,0,0,6.28,4.35,20.38,20.38,0,0,0,15,.07,19.29,19.29,0,0,0,6.59-3.89,29.46,29.46,0,0,0,5-5.88A47.27,47.27,0,0,0,179.1,152.82Z"/>
                </g>
                <path class="f81af160-dae0-48b2-b82e-07b67ba338fc" d="M153.33,165.37c8.49.77,14.8,6.86,10,10.87a10.26,10.26,0,0,1-4.62,1.94c-17.57-.1-21.86-9-21.42-14.82,2.13-.55,4.58.2,10.74,1.84A42.39,42.39,0,0,1,153.33,165.37Z"/>
                <path class="b4065695-36cb-4e05-a0d5-ada43c3c8099" d="M147.16,163.76a15.64,15.64,0,0,1,5.42,12.44s-1.57-8.1-8.09-12.64Z"/>
                <path class="fc4818c9-c65e-4d40-a2d4-9a7b5e0b5344" d="M158.53,168.38a40.58,40.58,0,0,1-10.82.55,16.55,16.55,0,0,1-14.94-13.74l0-.13s19.65,7.14,39.12,1.17C172.2,161.28,169.74,166.34,158.53,168.38Z"/>
              </g>
              <path class="e5ef1967-b3a6-45fa-a10e-812d9ccef5c6" d="M130.5,147.73a5.67,5.67,0,0,1,.4,4.57,4,4,0,0,1-1.55,1.87,4.38,4.38,0,0,1-1.08.49,6.49,6.49,0,0,1-1.15.16v0a5.64,5.64,0,0,0,2-.91,3.71,3.71,0,0,0,1.31-1.74,5.78,5.78,0,0,0,.36-2.18,8.12,8.12,0,0,0-.33-2.19Z"/>
              <path class="e5ef1967-b3a6-45fa-a10e-812d9ccef5c6" d="M182.26,155.31a4.66,4.66,0,0,1-1.75-.91,6.11,6.11,0,0,1-1.32-1.5,5.47,5.47,0,0,1-.67-1.9,6.7,6.7,0,0,1-.05-1,5.35,5.35,0,0,1,.18-1h0a6.92,6.92,0,0,0,.2,1.87,5.72,5.72,0,0,0,.72,1.73,7.19,7.19,0,0,0,2.66,2.62Z"/>
            </g>
            <ellipse class="b98453c9-d1d4-4857-8d4b-bb80d9b11e61" cx="116.57" cy="144.39" rx="6.89" ry="9.82" transform="translate(-48.12 229.9) rotate(-78.53)"/>
            <ellipse class="b98453c9-d1d4-4857-8d4b-bb80d9b11e61" cx="194.47" cy="141.3" rx="9.82" ry="6.89" transform="translate(-25.46 44.27) rotate(-12.2)"/>
          </g>
        </g>
      </g>
      <path class="a6296d01-339f-463b-9209-fdd8732bd013" d="M55.32,201a5.62,5.62,0,0,1,9.9,1.29,12.43,12.43,0,0,1,.22,8.71c-2.54,6.68-8.33,14.56-17.31,15.31s-9.51,8.54-10.34,13.44-9.07,7.84-12.79-1.57c0,0-5.54-12.37,2.48-22,0,0,2.57-4.93,15.89-6.11C51.51,209.31,53,204.42,55.32,201Z"/>
    </g>
  </g>
</svg>
