<svg id="a4e909d5-bcb8-4c10-8768-ddfc6059434b" data-name="Layer 1" xmlns="http://www.w3.org/2000/svg" width="134.12" height="128.94" viewBox="0 0 134.12 128.94">
  <defs>
    <style>
      .bc1f99a9-216c-4f3c-8071-e93819dbbdfd {
        fill: #bcfde5;
      }

      .ecd6a907-73a2-41e8-a73a-e71eccfa1cee {
        fill: #ebf7f2;
      }
    </style>
  </defs>
  <g>
    <g>
      <path class="bc1f99a9-216c-4f3c-8071-e93819dbbdfd" d="M119,109.37c-13.41,8-35.15-21.83-47.73-43S56.46,22,69.87,14,98.43,23,111,44.12,132.46,101.39,119,109.37Z"/>
      <path class="ecd6a907-73a2-41e8-a73a-e71eccfa1cee" d="M119.07,109.41a10.11,10.11,0,0,1-3.72,1.28,11.36,11.36,0,0,1-3.94-.25,21.94,21.94,0,0,1-7.16-3.27A64.39,64.39,0,0,1,92.53,96.65,189.16,189.16,0,0,1,73.77,71.34C68,62.56,63.21,52.93,61.07,42.5a40.84,40.84,0,0,1-.42-15.93A22.26,22.26,0,0,1,63.59,19a17.7,17.7,0,0,1,5.86-5.75,16.4,16.4,0,0,1,3.84-1.6,14.85,14.85,0,0,1,4.15-.45,18.43,18.43,0,0,1,7.83,2.29,33.44,33.44,0,0,1,6.56,4.63,59.71,59.71,0,0,1,5.6,5.65,113,113,0,0,1,9.46,12.69,132.3,132.3,0,0,1,7.91,13.67A117.69,117.69,0,0,1,124.73,80a60.87,60.87,0,0,1,1,15.71A26.29,26.29,0,0,1,124,103.4,12.36,12.36,0,0,1,119.07,109.41Zm0-.08a12.21,12.21,0,0,0,4.84-6,25.88,25.88,0,0,0,1.68-7.64,61.2,61.2,0,0,0-1.13-15.63,116.82,116.82,0,0,0-10.1-29.7,134.28,134.28,0,0,0-8-13.55,112.24,112.24,0,0,0-9.48-12.53,60.67,60.67,0,0,0-5.57-5.54,33.45,33.45,0,0,0-6.42-4.48,17.71,17.71,0,0,0-7.47-2.13,13.6,13.6,0,0,0-3.86.45A15.74,15.74,0,0,0,70,14.11a16.79,16.79,0,0,0-5.56,5.4,21.65,21.65,0,0,0-2.87,7.24,40.17,40.17,0,0,0,.31,15.6c2.05,10.31,6.75,19.9,12.41,28.7A188.94,188.94,0,0,0,92.77,96.44,64.87,64.87,0,0,0,104.37,107a21.81,21.81,0,0,0,7.08,3.3,11.27,11.27,0,0,0,3.88.27A9.88,9.88,0,0,0,119,109.33Z"/>
    </g>
    <g>
      <path class="bc1f99a9-216c-4f3c-8071-e93819dbbdfd" d="M114.06,105.46c-3.11,15.29-39.79,11.38-63.92,6.48S7.3,93.15,10.41,77.86,36.19,62.69,60.32,67.59,117.16,90.16,114.06,105.46Z"/>
      <path class="ecd6a907-73a2-41e8-a73a-e71eccfa1cee" d="M114.11,105.47a10.11,10.11,0,0,1-1.56,3.61,11.34,11.34,0,0,1-2.82,2.75,22,22,0,0,1-7.24,3.11,64.41,64.41,0,0,1-15.66,1.62,188.39,188.39,0,0,1-31.35-3.11c-10.36-1.64-20.74-4.54-29.9-10A41.06,41.06,0,0,1,13.5,93.1a22.33,22.33,0,0,1-3.64-7.26,17.62,17.62,0,0,1-.32-8.2,16.8,16.8,0,0,1,1.39-3.92,14.6,14.6,0,0,1,2.45-3.38,18.59,18.59,0,0,1,7-4.27,34.55,34.55,0,0,1,7.84-1.75,62.29,62.29,0,0,1,8-.35,115,115,0,0,1,15.75,1.52,131.8,131.8,0,0,1,15.44,3.32,117.31,117.31,0,0,1,28.8,12.71,61.16,61.16,0,0,1,12.33,9.81A26.06,26.06,0,0,1,113,97.77,12.37,12.37,0,0,1,114.11,105.47Zm-.1,0a12.24,12.24,0,0,0-1.18-7.61,26,26,0,0,0-4.54-6.37A60.56,60.56,0,0,0,96,81.8,116.93,116.93,0,0,0,67.17,69.34a132.18,132.18,0,0,0-15.39-3.2,112.62,112.62,0,0,0-15.66-1.39,58.66,58.66,0,0,0-7.84.4,33.27,33.27,0,0,0-7.63,1.75A17.58,17.58,0,0,0,14.06,71a14.16,14.16,0,0,0-2.27,3.16,15.42,15.42,0,0,0-1.27,3.68,16.78,16.78,0,0,0,.26,7.75,21.22,21.22,0,0,0,3.44,7A40.18,40.18,0,0,0,26,102.83c9,5.41,19.27,8.37,29.59,10.08a188.76,188.76,0,0,0,31.26,3.33,64.41,64.41,0,0,0,15.61-1.51,21.81,21.81,0,0,0,7.2-3,11.23,11.23,0,0,0,2.81-2.69A10.05,10.05,0,0,0,114,105.45Z"/>
    </g>
  </g>
</svg>
