<svg id="e05df177-dced-4f69-a345-eacb005f7bbb" data-name="Layer 1" xmlns="http://www.w3.org/2000/svg" width="87.23" height="63.4" viewBox="0 0 87.23 63.4">
  <defs>
    <style>
      .ec0f5de6-8c66-4700-9caa-0a88d0b3c20f {
        fill: #fff;
      }

      .a628cff0-8f0b-4073-9798-ed700aa1f167, .ac537aff-c3f8-4df7-b206-53ec025fec63, .b608800e-cde2-4cd4-8b5e-8a9fd06d107f, .e085ffa7-fae8-47d7-b324-657097f69bc9, .ec0f5de6-8c66-4700-9caa-0a88d0b3c20f {
        fill-rule: evenodd;
      }

      .e085ffa7-fae8-47d7-b324-657097f69bc9 {
        fill: #09a0ce;
      }

      .b608800e-cde2-4cd4-8b5e-8a9fd06d107f {
        fill: #151616;
      }

      .ac537aff-c3f8-4df7-b206-53ec025fec63 {
        fill: #36ae4a;
      }

      .f56961d3-50ca-486c-8efc-97786aa8d881 {
        fill: #1a8240;
      }

      .a628cff0-8f0b-4073-9798-ed700aa1f167 {
        fill: #ec2024;
        stroke: #5d3111;
        stroke-miterlimit: 10;
        stroke-width: 2px;
      }

      .af34935d-e348-4b69-8187-5673a477cf41 {
        fill: #831618;
      }

      .a28829ab-1fcf-43a7-921e-05e9b8ae3836 {
        fill: #f2787a;
      }
    </style>
  </defs>
  <g>
    <g>
      <path class="ec0f5de6-8c66-4700-9caa-0a88d0b3c20f" d="M64.52,3.17c-8.06-4.41-17.43-.67-21,8.39s.11,20,8.17,24.42,17.37.64,20.93-8.48S72.52,7.56,64.52,3.17Z"/>
      <path class="e085ffa7-fae8-47d7-b324-657097f69bc9" d="M55.51,8.88C49.9,10,46.42,16.16,47.74,22.59s6.93,10.69,12.53,9.55,9.09-7.29,7.78-13.71S61.12,7.73,55.51,8.88Z"/>
      <path class="b608800e-cde2-4cd4-8b5e-8a9fd06d107f" d="M56.46,13.66c-3.28.67-5.33,4.28-4.55,8.1S56,28,59.27,27.37s5.38-4.3,4.61-8.06S59.8,13,56.46,13.66Z"/>
      <path class="ec0f5de6-8c66-4700-9caa-0a88d0b3c20f" d="M51.93,21.73a2.44,2.44,0,0,0-1.75,3,2.32,2.32,0,1,0,4.49-.92,2.42,2.42,0,0,0-2.74-2.09Z"/>
    </g>
    <g>
      <g>
        <path class="ac537aff-c3f8-4df7-b206-53ec025fec63" d="M85.6,32.25a84.51,84.51,0,0,1-13.15,8.57,28.2,28.2,0,0,1-15.2,3.12c-3.18-.35-12.44-1.11-12.3-5.67.13-4.12,7.72-6.18,10.81-7.19A43.61,43.61,0,0,1,70.93,29a41,41,0,0,1,7.48,1C79.28,30.11,85.24,32.51,85.6,32.25Z"/>
        <g>
          <path class="ac537aff-c3f8-4df7-b206-53ec025fec63" d="M52.58,32.12a40.29,40.29,0,0,1,25.49-2.28"/>
          <path class="f56961d3-50ca-486c-8efc-97786aa8d881" d="M52.58,32.12c6.71-3.74,14.86-4.56,22.33-3.11,1.07.23,2.12.53,3.16.83a54,54,0,0,0-25.49,2.28Z"/>
        </g>
      </g>
      <g>
        <path class="a628cff0-8f0b-4073-9798-ed700aa1f167" d="M40.17,41.06c-5.24,2.18-4.84,1.7-16.77,5.22C13.58,49.21,14.48,63.09,10,62a2.78,2.78,0,0,1-.44-.14,10.32,10.32,0,0,1-2.18-3c-2.1-3.56-5-9.68-5.54-14.78a39.61,39.61,0,0,1-.25-4.7c0-13.35,7-24.18,21.11-30.83,1.49-.71,3.07-1.37,4.72-2l.58.85c.55.8,1.09,1.61,1.61,2.43a117.34,117.34,0,0,1,6.09,10.61c2.1,4.08,5.66,9.32,10.35,9.71C62,31.56,44.15,39.4,40.17,41.06Z"/>
        <ellipse class="af34935d-e348-4b69-8187-5673a477cf41" cx="24.36" cy="19.57" rx="2.85" ry="1.46" transform="translate(-5.72 11.11) rotate(-23.07)"/>
        <path class="a28829ab-1fcf-43a7-921e-05e9b8ae3836" d="M5.6,37.81C4.46,50,7.58,56.67,10.26,61a17.93,17.93,0,0,1-2.57-3.43A36.16,36.16,0,0,1,3.17,43.84a33.52,33.52,0,0,1-.08-4.24c0-13.35,6.3-23.12,20.38-29.77a29.16,29.16,0,0,1,3.38-1.49s.95,1.32,1.47,2.14C20.8,13.49,7.12,21.58,5.6,37.81Z"/>
      </g>
    </g>
  </g>
</svg>
