<svg id="b5af20dc-4ba0-4249-abb2-e813b5149409" data-name="Layer 1" xmlns="http://www.w3.org/2000/svg" width="103.49" height="74.94" viewBox="0 0 103.49 74.94">
  <defs>
    <style>
      .a35a91e4-44fb-4df7-bc08-6398a11bb3d9 {
        fill: #fff;
      }

      .b428baa1-f400-44ee-954f-8a220ffe92a4 {
        fill: #702840;
      }

      .b5f1c4e5-9268-4cf3-9efc-5c5b65d32532 {
        fill: #210a11;
      }

      .ae8312d0-f332-41de-ba7d-6d28c2318c28 {
        fill: #ecc516;
      }
    </style>
  </defs>
  <g>
    <g>
      <g>
        <g>
          <ellipse class="a35a91e4-44fb-4df7-bc08-6398a11bb3d9" cx="35.39" cy="40.63" rx="16.9" ry="12.46" transform="translate(-12.78 64.78) rotate(-75.57)"/>
          <path class="b428baa1-f400-44ee-954f-8a220ffe92a4" d="M31.34,57.09a10,10,0,0,1-5-2.91,13.84,13.84,0,0,1-3-5,22.08,22.08,0,0,1,4.94-22,14.81,14.81,0,0,1,5.1-3.32,10.87,10.87,0,0,1,6.19-.49,10.83,10.83,0,0,1,5.31,3.23,14.44,14.44,0,0,1,3,5.3,21.2,21.2,0,0,1,0,11.79,21.59,21.59,0,0,1-5.94,10,14.07,14.07,0,0,1-4.93,3.07A10.17,10.17,0,0,1,31.34,57.09Zm0-.1A10.06,10.06,0,0,0,37,56.58a14,14,0,0,0,4.83-3.09,21.5,21.5,0,0,0,5.27-21.34,13.67,13.67,0,0,0-2.87-4.93,9.93,9.93,0,0,0-4.86-2.9,10,10,0,0,0-5.64.4,13.68,13.68,0,0,0-4.82,3.07,21,21,0,0,0-5.59,9.93,20.74,20.74,0,0,0,.28,11.4,13.58,13.58,0,0,0,2.86,5A9.88,9.88,0,0,0,31.36,57Z"/>
        </g>
        <ellipse class="b5f1c4e5-9268-4cf3-9efc-5c5b65d32532" cx="36.24" cy="44.4" rx="7.61" ry="5.65" transform="translate(-13.88 72.21) rotate(-79.8)"/>
        <ellipse class="a35a91e4-44fb-4df7-bc08-6398a11bb3d9" cx="39.86" cy="40.88" rx="2.09" ry="1.55" transform="translate(-7.42 72.87) rotate(-79.8)"/>
      </g>
      <g>
        <g>
          <ellipse class="a35a91e4-44fb-4df7-bc08-6398a11bb3d9" cx="69.36" cy="46.01" rx="15.37" ry="11.33" transform="translate(21.26 113.94) rotate(-88.25)"/>
          <path class="b428baa1-f400-44ee-954f-8a220ffe92a4" d="M69.06,61.42a9.08,9.08,0,0,1-5-1.58A12.55,12.55,0,0,1,60.42,56a20.12,20.12,0,0,1-.06-20.58,13.41,13.41,0,0,1,3.88-4,10,10,0,0,1,5.44-1.69,9.83,9.83,0,0,1,5.39,1.83,13.17,13.17,0,0,1,3.75,4.12,19.37,19.37,0,0,1,2.35,10.5,19.62,19.62,0,0,1-3.31,10.06A12.94,12.94,0,0,1,74.09,60,9.18,9.18,0,0,1,69.06,61.42Zm0-.1A9,9,0,0,0,74,59.82a12.65,12.65,0,0,0,3.67-3.69,19.11,19.11,0,0,0,3-9.94,18.83,18.83,0,0,0-2.54-10,12.37,12.37,0,0,0-3.53-3.81,9,9,0,0,0-4.88-1.6,9.14,9.14,0,0,0-4.93,1.49,12.71,12.71,0,0,0-3.66,3.68,19,19,0,0,0-3,9.92,18.78,18.78,0,0,0,2.52,10.05,12.06,12.06,0,0,0,3.53,3.82A9,9,0,0,0,69.06,61.32Z"/>
        </g>
        <ellipse class="b5f1c4e5-9268-4cf3-9efc-5c5b65d32532" cx="66.46" cy="48.63" rx="5.14" ry="6.92" transform="translate(-2.05 2.93) rotate(-2.48)"/>
        <ellipse class="a35a91e4-44fb-4df7-bc08-6398a11bb3d9" cx="68.97" cy="44.77" rx="1.41" ry="1.9" transform="translate(-1.88 3.03) rotate(-2.48)"/>
      </g>
      <path class="b5f1c4e5-9268-4cf3-9efc-5c5b65d32532" d="M67.92,22.75s5.18.71,11,7.08C78.87,29.83,71.08,14,67.92,22.75Z"/>
      <path class="b5f1c4e5-9268-4cf3-9efc-5c5b65d32532" d="M47.86,16.35S42.26,15,33.67,18.62C33.67,18.62,48.31,7.07,47.86,16.35Z"/>
    </g>
    <path class="ae8312d0-f332-41de-ba7d-6d28c2318c28" d="M23.11,39.62s14.41-5.15,23.31,7.2c0,0,6.86-16.15-5.84-22.24C38.83,23.11,25.8,22.78,23.11,39.62Z"/>
    <path class="ae8312d0-f332-41de-ba7d-6d28c2318c28" d="M58.16,48.63s9.36-4.65,22,1.6c1.84-7.64-1.92-18.08-9.08-19.44C66.81,29.83,57.37,33.7,58.16,48.63Z"/>
  </g>
</svg>
