<svg id="f32d5a23-acb9-47d8-9974-068a39a844da" data-name="Layer 1" xmlns="http://www.w3.org/2000/svg" width="56.24" height="46.59" viewBox="0 0 56.24 46.59">
  <defs>
    <style>
      .a172da5e-e413-4c38-b541-81109da6ea17, .a219bed8-4906-445b-8423-3a483a8dccc6 {
        fill: #fff;
      }

      .a172da5e-e413-4c38-b541-81109da6ea17 {
        stroke: #702840;
      }

      .a172da5e-e413-4c38-b541-81109da6ea17, .bd7408a7-d42d-4037-87fb-07ad424075d8 {
        stroke-miterlimit: 10;
        stroke-width: 0.75px;
      }

      .bf4ff60e-2623-469f-b3b3-83d895b503f5 {
        fill: #210a11;
      }

      .bd7408a7-d42d-4037-87fb-07ad424075d8 {
        fill: #ffe309;
        stroke: #665608;
      }
    </style>
  </defs>
  <g>
    <g>
      <g>
        <path class="a172da5e-e413-4c38-b541-81109da6ea17" d="M48.86,26.69C49,32,46.39,36.54,42.29,37.43s-8.69-2.33-10.8-7.51a16.43,16.43,0,0,1-.82-2.6c-1.51-6.64,1.26-12.9,6.17-14S47,16.81,48.46,23.46A15.93,15.93,0,0,1,48.86,26.69Z"/>
        <ellipse class="bf4ff60e-2623-469f-b3b3-83d895b503f5" cx="35.27" cy="25.56" rx="4.12" ry="5.56" transform="translate(-3.61 5.93) rotate(-9.14)"/>
        <ellipse class="a219bed8-4906-445b-8423-3a483a8dccc6" cx="32.59" cy="24.64" rx="1.13" ry="1.52" transform="translate(-3.5 5.49) rotate(-9.14)"/>
      </g>
      <g>
        <path class="a172da5e-e413-4c38-b541-81109da6ea17" d="M23,28.93c0,.38,0,.75,0,1.13-.41,5.65-3.93,10.06-8.22,10-3.53,0-6.55-3-7.74-7.28a14.37,14.37,0,0,1-.55-4c0-6.2,3.69-11.19,8.26-11.16S23,22.73,23,28.93Z"/>
        <ellipse class="bf4ff60e-2623-469f-b3b3-83d895b503f5" cx="10.54" cy="29.29" rx="5.05" ry="3.75" transform="translate(-19.35 38) rotate(-86.46)"/>
        <ellipse class="a219bed8-4906-445b-8423-3a483a8dccc6" cx="8.28" cy="27.41" rx="1.39" ry="1.03" transform="translate(-19.59 33.98) rotate(-86.46)"/>
      </g>
      <path class="bf4ff60e-2623-469f-b3b3-83d895b503f5" d="M16.05,11.9s-3.79.45-8.09,5C8,16.93,13.87,5.47,16.05,11.9Z"/>
      <path class="bf4ff60e-2623-469f-b3b3-83d895b503f5" d="M30.79,7.5s4.1-.91,10.32,1.84C41.11,9.34,30.58.71,30.79,7.5Z"/>
    </g>
    <path class="bd7408a7-d42d-4037-87fb-07ad424075d8" d="M23,28.93c0,.38,0,.75,0,1.13a28.67,28.67,0,0,1-9.74,2.68,36.07,36.07,0,0,1-5.4.12L7,32.8a14.37,14.37,0,0,1-.55-4c0-6.2,3.69-11.19,8.26-11.16S23,22.73,23,28.93Z"/>
    <path class="bd7408a7-d42d-4037-87fb-07ad424075d8" d="M48.86,26.69a27.84,27.84,0,0,1-11.13,3.6,20.52,20.52,0,0,1-4.33-.05,17.63,17.63,0,0,1-1.91-.32,16.43,16.43,0,0,1-.82-2.6c-1.51-6.64,1.26-12.9,6.17-14S47,16.81,48.46,23.46A15.93,15.93,0,0,1,48.86,26.69Z"/>
  </g>
</svg>
