<svg id="ada8381e-3ede-471e-93f7-2cc73d06e402" data-name="Layer 1" xmlns="http://www.w3.org/2000/svg" width="140.82" height="113.29" viewBox="0 0 140.82 113.29">
  <defs>
    <style>
      .a416550e-a254-48ca-8a3e-475b8072adce, .b85bfac0-7f9f-4660-83ea-14d05970c9df {
        fill: #fff;
      }

      .b85bfac0-7f9f-4660-83ea-14d05970c9df {
        stroke: #702840;
      }

      .b85bfac0-7f9f-4660-83ea-14d05970c9df, .f4253bf6-a00f-4106-bf37-29cc7db8fee5 {
        stroke-miterlimit: 10;
        stroke-width: 0.75px;
      }

      .a3bdaad7-fed3-4990-b5c3-6a1725e6d7d2 {
        fill: #210a11;
      }

      .f4253bf6-a00f-4106-bf37-29cc7db8fee5 {
        fill: #ffe309;
        stroke: #665608;
      }
    </style>
  </defs>
  <g>
    <g>
      <g>
        <path class="b85bfac0-7f9f-4660-83ea-14d05970c9df" d="M59.94,65.59C57.61,83.48,45,96.69,31.8,95.09s-22-17.4-19.7-35.29a42.13,42.13,0,0,1,5.09-15.42C22.56,35,31.26,29.21,40.24,30.3S56,38.83,58.85,49A41.31,41.31,0,0,1,59.94,65.59Z"/>
        <ellipse class="a3bdaad7-fed3-4990-b5c3-6a1725e6d7d2" cx="47.39" cy="62.08" rx="14.71" ry="10.92" transform="translate(-17.7 105.25) rotate(-86.19)"/>
        <ellipse class="a416550e-a254-48ca-8a3e-475b8072adce" cx="54.23" cy="58.98" rx="4.04" ry="3" transform="translate(-8.21 109.17) rotate(-86.19)"/>
      </g>
      <g>
        <path class="b85bfac0-7f9f-4660-83ea-14d05970c9df" d="M105.18,95.3c-12,1.22-23-11-24.53-27.38A37.13,37.13,0,0,1,83.48,49.5C86.82,42,92.67,36.85,99.73,36.13c9-.92,17.49,5.77,21.76,16.09a38.15,38.15,0,0,1,2.76,11.29C125.76,79.85,117.21,94.08,105.18,95.3Z"/>
        <ellipse class="a3bdaad7-fed3-4990-b5c3-6a1725e6d7d2" cx="113.5" cy="65.81" rx="9.93" ry="13.38" transform="translate(-8.8 18.3) rotate(-8.88)"/>
        <ellipse class="a416550e-a254-48ca-8a3e-475b8072adce" cx="118.99" cy="60.3" rx="2.72" ry="3.67" transform="translate(-7.88 19.08) rotate(-8.88)"/>
      </g>
      <path class="a3bdaad7-fed3-4990-b5c3-6a1725e6d7d2" d="M94.67,21.34s10.1.26,22.57,11.25C117.24,32.59,98.85,3.86,94.67,21.34Z"/>
      <path class="a3bdaad7-fed3-4990-b5c3-6a1725e6d7d2" d="M54.75,13.37S43.7,12,28,20.77C28,20.77,53.61-4.57,54.75,13.37Z"/>
    </g>
    <path class="f4253bf6-a00f-4106-bf37-29cc7db8fee5" d="M58.85,49c-17.37-6-34.4-5.34-41.66-4.65C22.56,35,31.26,29.21,40.24,30.3S56,38.83,58.85,49Z"/>
    <path class="f4253bf6-a00f-4106-bf37-29cc7db8fee5" d="M121.49,52.22c-15.46-3.87-30.35-3.38-38-2.72C86.82,42,92.67,36.85,99.73,36.13,108.77,35.21,117.22,41.9,121.49,52.22Z"/>
  </g>
</svg>
