<svg id="fef7480c-9ced-400a-83a4-8fd31cf0ce16" data-name="Layer 1" xmlns="http://www.w3.org/2000/svg" width="256" height="256" viewBox="0 0 256 256">
  <defs>
    <style>
      .bd903ca8-2e19-47e6-81c7-9867d84aa3dc {
        opacity: 0.25;
      }

      .a408d061-30b0-496a-89e6-606cf3241621 {
        fill: #f3c63c;
        stroke: #af841b;
      }

      .a408d061-30b0-496a-89e6-606cf3241621, .a90af3e2-8c63-4e70-ab1a-b90003400cba {
        stroke-miterlimit: 10;
      }

      .a90af3e2-8c63-4e70-ab1a-b90003400cba, .b8c39794-9eac-4914-ac36-b5c9c9da7197 {
        fill: #fae599;
      }

      .a90af3e2-8c63-4e70-ab1a-b90003400cba {
        stroke: #8e7717;
      }

      .a1dbb72a-2ce7-48b3-b8e0-bd893a5df98d {
        fill: #e5bb45;
        opacity: 0.5;
      }

      .be553a3e-5b83-4629-aa04-adc290bc99a9 {
        fill: #8e7717;
      }

      .fbdb3871-9c2b-4567-9a0a-a518cb05c5a4 {
        fill: #872b23;
      }

      .ab9c8558-5e56-4e88-b9b4-b7b42517e350 {
        fill: #ee383f;
      }
    </style>
  </defs>
  <g>
    <path class="a408d061-30b0-496a-89e6-606cf3241621" d="M62,160.81c-10-9.58-14.68-26.95-12.81-41.12h0c-6.93,10-13.86,19.95-14,31.93.46-3.55-.45-7.26,0-10.8-3.39,4.4-5.08,6.59-7.24,12.33l.46-3.54c-2.47,8.11.74,15.68,5.33,23.43h0c6.46-6.43,14.15-11.51,24.13-12.72Z"/>
    <path class="a90af3e2-8c63-4e70-ab1a-b90003400cba" d="M39,160.46c7.46-4.21,16.59-6.41,25.56-6.83,15.36-.71,30.77,2.49,45.81-1.51S132.15,137,137.2,125.07l-1.8-.84c-10.67-5-20.61-11.24-28.15-19.55C102.42,99.36,97,93.21,97.19,86.19c.13-6.56,7.46-7.27,11.64-11.74a62.63,62.63,0,0,0,6.83-9.39c5.28-8.27,7.78-18.66,15.27-25.63,8.92-8.3,22.36-12.89,35.6-13,10.87-.06,22.12,2.94,31.8,7.27,12.84,5.76,18,13.08,23.43,24.52,4,8.39,3.89,17.16,4,26,.05,6.58.6,14.91,3.12,21.24,1.41,3.56,2.91,4.73.64,8.13-1.91,2.83-5.07,5.25-8,7.26-6.56,4.46-14.46,7.24-22.45,9.33a104.57,104.57,0,0,1-23.79,3.68c-2.05,10.3,1.56,20,1.26,30.6-1,26-14.54,57.06-45.57,66.26C100.21,240,64.56,232.55,43,212.3c-6.94-6.51-14.72-17.85-16.92-26.69C23.79,176.25,30,165.5,39,160.46Z"/>
    <path class="a1dbb72a-2ce7-48b3-b8e0-bd893a5df98d" d="M130.89,218.52c-30.68,9.24-66.33,1.8-87.87-18.46-6.44-6-13.61-16.25-16.36-24.77a18.66,18.66,0,0,0-.55,10.32c2.19,8.85,10,20.18,16.91,26.69,21.54,20.25,57.19,27.7,87.87,18.45,31-9.2,44.61-40.28,45.58-66.26a58.2,58.2,0,0,0-.33-7.39C173.76,182,160,209.88,130.89,218.52Z"/>
    <g>
      <path class="b8c39794-9eac-4914-ac36-b5c9c9da7197" d="M185.15,29.49c9.8-4.95,22-1.12,31.3-8.17.16,4.78-5.41,7.85-10,9.68a37.34,37.34,0,0,0,6.88-.88c-.7,2.3-4.05,3.6-7,4.61a14.68,14.68,0,0,0,6.74.13c-8.85,12.88-19.58.73-30.88-1Z"/>
      <path class="be553a3e-5b83-4629-aa04-adc290bc99a9" d="M185.15,29.49A26.44,26.44,0,0,1,192.92,27c2.69-.48,5.42-.75,8.12-1a46.57,46.57,0,0,0,8-1.41A21.28,21.28,0,0,0,216.19,21l.65-.5,0,.82a6.63,6.63,0,0,1-1.06,3.76,10.93,10.93,0,0,1-2.62,2.8,27.1,27.1,0,0,1-6.6,3.58l-.19-.91a37.15,37.15,0,0,0,6.79-.89l.83-.18-.25.81a4.55,4.55,0,0,1-1.35,2,9.56,9.56,0,0,1-1.88,1.27,29.35,29.35,0,0,1-4.06,1.66l0-.91a14.22,14.22,0,0,0,6.52.15l1.12-.23-.65.92a13.72,13.72,0,0,1-6.71,5.51,11.08,11.08,0,0,1-4.39.42,20,20,0,0,1-4.23-1c-2.73-.93-5.29-2.2-7.9-3.34a33.32,33.32,0,0,0-8.05-2.7L182,34l.1-.14Zm0,0L182.28,34l-.08-.17a34.62,34.62,0,0,1,8.22,2.46c2.63,1.09,5.22,2.31,7.91,3.16a18.2,18.2,0,0,0,4.09.87,10.1,10.1,0,0,0,4.06-.46,12.75,12.75,0,0,0,6.22-5.22l.47.7a15.3,15.3,0,0,1-7-.11l-1.49-.39,1.46-.52a27,27,0,0,0,3.91-1.62A5.39,5.39,0,0,0,212.83,30l.58.63a38.85,38.85,0,0,1-7,.87l-2.64.05,2.46-1a26.9,26.9,0,0,0,6.4-3.41,10.54,10.54,0,0,0,2.43-2.56,5.76,5.76,0,0,0,.94-3.26l.69.33a21.74,21.74,0,0,1-7.49,3.53,49,49,0,0,1-8.12,1.27c-2.72.25-5.44.39-8.13.8A27.44,27.44,0,0,0,185.15,29.49Z"/>
    </g>
    <path class="a408d061-30b0-496a-89e6-606cf3241621" d="M62.22,171.8a106.6,106.6,0,0,1-13.81-.25c9.92-13.45,32.13-21.26,50.33-23.27,8.79-.45,25.65-3.23,31.11,5.26,3.64,5.67-1.43,15.46-5.75,19.64-5.63,5.44-13.9,7.71-22.2,8.47-9.38.86-19,0-28.34-.88-4.67-.42-9.33-.92-14-1.26-1.78-.13-11-1.56-12.13-.41C51.17,175.36,56.34,173.19,62.22,171.8Z"/>
    <g>
      <path class="fbdb3871-9c2b-4567-9a0a-a518cb05c5a4" d="M181.24,105.28,227,107.67s-2.64,8-21.73,8.26S181.24,105.28,181.24,105.28Z"/>
      <path class="ab9c8558-5e56-4e88-b9b4-b7b42517e350" d="M179.4,103.66c-1-4.12,5.72-2.3,14.75-4.16,6.56-1.36,6.11-5.46,12.55-5.29,7.29.2,6.11,9.37,19.55,9.59s4.46,7-13.25,9.23C200.76,114.6,185.69,110,179.4,103.66Z"/>
      <path class="fbdb3871-9c2b-4567-9a0a-a518cb05c5a4" d="M200.79,99.79s1.68-4.46,3.57-2.71S200.79,99.79,200.79,99.79Z"/>
    </g>
    <g>
      <path class="fbdb3871-9c2b-4567-9a0a-a518cb05c5a4" d="M190,53.09c2,.88,1.25,2.31,0,3.24,0,0-8.67-.23-13.13,5.8C176.72,57,184.58,50.71,190,53.09Z"/>
      <path class="fbdb3871-9c2b-4567-9a0a-a518cb05c5a4" d="M212.06,54.09c-1.36.68-.85,1.77,0,2.48,0,0,5.92-.17,9,4.43C221.09,57.06,215.72,52.28,212.06,54.09Z"/>
    </g>
    <path class="a1dbb72a-2ce7-48b3-b8e0-bd893a5df98d" d="M137.9,124.81s11,7.57,37.32,8.39c0,0-16.69,13.09-42.87,3Z"/>
  </g>
</svg>
