<svg id="af390f41-ff3b-4882-8d0b-d01dddbacbcc" data-name="Layer 1" xmlns="http://www.w3.org/2000/svg" width="157.8" height="112.05" viewBox="0 0 157.8 112.05">
  <defs>
    <style>
      .e6ab9ec6-ded4-45f7-8a54-4310ee8e86b0 {
        fill: #cff3ff;
        stroke: #307382;
        stroke-miterlimit: 10;
      }

      .aba92840-0f7e-4902-b47b-bde1076fdeef {
        fill: #b0deea;
      }
    </style>
  </defs>
  <g>
    <g>
      <path class="e6ab9ec6-ded4-45f7-8a54-4310ee8e86b0" d="M45.12,106.19S76.56,75.58,96.4,44.94c20.3-31.34,59.44-12.67,41.86,25.21S56.5,110.34,50,109.18C50,109.18,37.08,109.83,45.12,106.19Z"/>
      <path class="aba92840-0f7e-4902-b47b-bde1076fdeef" d="M65.9,100.16s18-21.41,29.58-42.62c11.83-21.7,33.17-9.75,22.7,16.34S72.12,102.77,68.53,102.1C68.53,102.1,61.37,102.78,65.9,100.16Z"/>
    </g>
    <path class="e6ab9ec6-ded4-45f7-8a54-4310ee8e86b0" d="M45.61,104.31S51,64.12,58,49.33,55.55-3.09,25.47,27.74s15,77.24,15,77.24S44.41,112.46,45.61,104.31Z"/>
  </g>
</svg>
