<svg id="a7c17226-29e7-436c-b315-ec0139148574" data-name="Layer 1" xmlns="http://www.w3.org/2000/svg" width="108.71" height="101.18" viewBox="0 0 108.71 101.18">
  <defs>
    <style>
      .b5d03ad4-3024-4247-8a37-183ba3f86308 {
        fill: #bcfde5;
      }

      .b5280d60-a9d1-403f-881a-43af6decb2e7 {
        fill: #ebf7f2;
      }
    </style>
  </defs>
  <g>
    <g>
      <path class="b5d03ad4-3024-4247-8a37-183ba3f86308" d="M92,87.33c-8.53,8.41-30.2-9.8-43.46-23.25S29.3,33.76,37.83,25.35,60.74,26.75,74,40.21,100.5,78.93,92,87.33Z"/>
      <path class="b5280d60-a9d1-403f-881a-43af6decb2e7" d="M92,87.37A7.62,7.62,0,0,1,89.46,89a8.87,8.87,0,0,1-3,.54,17.2,17.2,0,0,1-5.93-1.13,50.05,50.05,0,0,1-10.65-5.7A147.62,147.62,0,0,1,51.18,67.4C45.27,62,39.82,55.68,36.27,48.28A31.59,31.59,0,0,1,33,36.39a17.15,17.15,0,0,1,.82-6.26,13.6,13.6,0,0,1,3.36-5.43,12.73,12.73,0,0,1,2.61-1.94,11.69,11.69,0,0,1,3.07-1.13,14.49,14.49,0,0,1,6.36.26,34.78,34.78,0,0,1,11,5.45,83.05,83.05,0,0,1,9.36,7.78A100.69,100.69,0,0,1,78,43.91,91.06,91.06,0,0,1,90.79,64.43a46.64,46.64,0,0,1,3.66,11.51,20,20,0,0,1,.13,6A9.53,9.53,0,0,1,92,87.37Zm-.07-.07A9.3,9.3,0,0,0,94.44,82a19.48,19.48,0,0,0-.16-6,46.18,46.18,0,0,0-3.71-11.43,89.88,89.88,0,0,0-13-20.27,100.84,100.84,0,0,0-8.43-8.62,86.21,86.21,0,0,0-9.36-7.59A34,34,0,0,0,49,22.79a13.4,13.4,0,0,0-5.94-.21,10.2,10.2,0,0,0-2.79,1,11.94,11.94,0,0,0-2.39,1.79,12.92,12.92,0,0,0-3.15,5,16.47,16.47,0,0,0-.8,5.92,30.71,30.71,0,0,0,3.09,11.55c3.42,7.3,8.67,13.58,14.51,19.09A143.85,143.85,0,0,0,70,82.51a49.5,49.5,0,0,0,10.58,5.74,16.66,16.66,0,0,0,5.87,1.15,8.42,8.42,0,0,0,2.94-.51A7.74,7.74,0,0,0,91.94,87.3Z"/>
    </g>
    <g>
      <path class="b5d03ad4-3024-4247-8a37-183ba3f86308" d="M86.3,85.58c-7.51,9.33-31.14-6.25-45.86-18.08S17.85,39.61,25.36,30.27,48.27,29,63,40.85,93.8,76.25,86.3,85.58Z"/>
      <path class="b5280d60-a9d1-403f-881a-43af6decb2e7" d="M86.34,85.61A7.83,7.83,0,0,1,84,87.52a8.71,8.71,0,0,1-2.9.88,16.72,16.72,0,0,1-6-.44,49.69,49.69,0,0,1-11.24-4.42A147.26,147.26,0,0,1,43.48,70.49c-6.51-4.73-12.64-10.32-17-17.27a31.64,31.64,0,0,1-4.59-11.43A17.45,17.45,0,0,1,22,35.47a13.74,13.74,0,0,1,2.71-5.78A13.19,13.19,0,0,1,27,27.46,11.44,11.44,0,0,1,30,26a14.27,14.27,0,0,1,6.34-.48,34.75,34.75,0,0,1,11.59,4.13,84.61,84.61,0,0,1,10.2,6.65,101.5,101.5,0,0,1,9.32,7.77A91.12,91.12,0,0,1,82.47,63a46.62,46.62,0,0,1,5,11,19.92,19.92,0,0,1,.82,6A9.44,9.44,0,0,1,86.34,85.61Zm-.08-.06A9.38,9.38,0,0,0,88.13,80,19.61,19.61,0,0,0,87.28,74a46.26,46.26,0,0,0-5-10.94A90,90,0,0,0,67,44.46a100.21,100.21,0,0,0-9.37-7.59,85.71,85.71,0,0,0-10.18-6.46,34.19,34.19,0,0,0-11.3-4,13.46,13.46,0,0,0-5.92.47,10.61,10.61,0,0,0-2.66,1.36,12.33,12.33,0,0,0-2.16,2,12.88,12.88,0,0,0-2.54,5.37,16.19,16.19,0,0,0-.12,6,30.85,30.85,0,0,0,4.4,11.12c4.24,6.86,10.19,12.48,16.63,17.28A143.77,143.77,0,0,0,64,83.33,49.49,49.49,0,0,0,75.12,87.8a16.66,16.66,0,0,0,6,.47,8.37,8.37,0,0,0,2.86-.85A7.51,7.51,0,0,0,86.26,85.55Z"/>
    </g>
  </g>
</svg>
