<svg id="ed49aa27-e5cf-47f0-bce2-ed64cc1af397" data-name="Layer 1" xmlns="http://www.w3.org/2000/svg" width="130" height="130" viewBox="0 0 130 130">
  <defs>
    <style>
      .b2f07492-0ed7-4e30-a57d-0b4c105e1627, .fb5e28de-0a44-43b0-ae83-fee9c22828dd {
        fill: #ffe309;
      }

      .b2f07492-0ed7-4e30-a57d-0b4c105e1627, .e7de4784-b2e6-4f1b-855e-fc371f42f6d5 {
        stroke: #665608;
      }

      .adc46c36-1717-4f58-a9d2-be1d617cd77b, .b2f07492-0ed7-4e30-a57d-0b4c105e1627, .e7de4784-b2e6-4f1b-855e-fc371f42f6d5, .fb5e28de-0a44-43b0-ae83-fee9c22828dd {
        stroke-miterlimit: 10;
      }

      .b2f07492-0ed7-4e30-a57d-0b4c105e1627, .e7de4784-b2e6-4f1b-855e-fc371f42f6d5, .fb5e28de-0a44-43b0-ae83-fee9c22828dd {
        stroke-width: 0.75px;
      }

      .fb5e28de-0a44-43b0-ae83-fee9c22828dd {
        stroke: #493c05;
      }

      .bddd73c5-ca8e-49c3-a48d-423085bb807e {
        fill: #ecc516;
      }

      .adc46c36-1717-4f58-a9d2-be1d617cd77b {
        fill: #532900;
        stroke: #3a1c03;
      }

      .ad307057-5017-4954-8321-a5830bff2a56 {
        fill: #681a1a;
      }

      .f04b3798-4274-45ef-a83f-c3dcc87b7c65 {
        fill: #ef7089;
      }

      .ae987ba5-10e1-44c4-b4cb-3cbfe6c7a086 {
        fill: #ff5763;
      }

      .a1451252-964a-42a2-986c-6471b6bfd69a {
        fill: #fff;
      }

      .a425fd53-cf6c-416a-b55e-285d0551fa55 {
        fill: #ef304c;
      }

      .f9bfc6ae-9fd1-4043-9413-f52c3744effe {
        fill: #ffa979;
      }

      .e7de4784-b2e6-4f1b-855e-fc371f42f6d5 {
        fill: none;
      }
    </style>
  </defs>
  <g>
    <g>
      <g>
        <path class="b2f07492-0ed7-4e30-a57d-0b4c105e1627" d="M40.16,111.35s1.18,3.65-3,4.63-7.51.07-7.49,4.31.42,8.8,4.66,8.78,3.35-5.87,6.63-5.8,9.2-1.43,8.17-8.85S40.16,111.35,40.16,111.35Z"/>
        <g>
          <path class="b2f07492-0ed7-4e30-a57d-0b4c105e1627" d="M72.87,85.37s-1.5,2.71,7.24,15.47c0,0,3.43,5.28,6.27,7.5s5.92,7.44,5.42,9.78-2.74,4.19-4,.55l.2-4.17s1.78,4.18-3.25,5.26-.11-5.85-.11-5.85l-2.76,4s-4.19-.59-.7-6.53c0,0-2.77.1-9.61-7.51S60.87,86.21,60.87,86.21Z"/>
          <path class="fb5e28de-0a44-43b0-ae83-fee9c22828dd" d="M86.59,95A36.36,36.36,0,0,1,78,108a27.72,27.72,0,0,1-9,5.63h0a35.13,35.13,0,0,1-8,2c-.51.08-1,.14-1.54.18a37.66,37.66,0,0,1-11.27-.66,52.55,52.55,0,0,1-18-8c-1.08-.72-2.06-1.42-2.93-2-6.53-4.77-11.95-5-11.95-5,4.08-1.87,6.34-6.28,9-11C26.7,85,29.38,80.48,34,77.47c.24-.15.47-.31.73-.46a24.26,24.26,0,0,1,4.74-2.15,33.09,33.09,0,0,1,7.73-1.54h.21a44.13,44.13,0,0,1,7.33,0A34.08,34.08,0,0,1,59.1,74c9,2,12.85-4,12.85-4l17,18.27A65.29,65.29,0,0,1,86.59,95Z"/>
          <path class="bddd73c5-ca8e-49c3-a48d-423085bb807e" d="M86.47,93.91c-4.28.33-8.92-.67-14.32-2.51C61,87.6,53.24,80.3,54.25,74.73a34.47,34.47,0,0,1,6.24-.14,27.14,27.14,0,0,1,3.69.45c7.61,1.65,11-4,11-4l14,16.3C88.58,89.56,87.26,92,86.47,93.91Z"/>
          <path class="adc46c36-1717-4f58-a9d2-be1d617cd77b" d="M30.67,107.11c-1.07-.72-2.49-1.29-3.36-1.92-6.53-4.77-11.95-5-11.95-5,4.08-1.87,6.8-6.71,9.42-11.39C24,92.75,23.91,100.19,30.67,107.11Z"/>
          <path class="adc46c36-1717-4f58-a9d2-be1d617cd77b" d="M78,108a27.72,27.72,0,0,1-9,5.63h0c-4.42-1.51-12.36-5.79-19.29-17.89-4.25-7.44-4.14-15.52-2.55-22.44a44.59,44.59,0,0,1,7.54,0c-1.18,5.47-1.62,14.51,4.9,22.59A34.32,34.32,0,0,0,78,108Z"/>
          <path class="adc46c36-1717-4f58-a9d2-be1d617cd77b" d="M59.55,115.85a37.66,37.66,0,0,1-11.27-.66c-4.85-2.51-11.27-7-14.53-14.31C29.76,92,31.45,84,34,77.47c.24-.15.47-.31.73-.46a24.26,24.26,0,0,1,4.74-2.15C37.87,80,36.29,89.11,41.21,97.31,47,107,56,113.51,59.55,115.85Z"/>
          <g>
            <path class="b2f07492-0ed7-4e30-a57d-0b4c105e1627" d="M76.42,38.82S70.9,37.06,67.81,24,75-.3,81.5,1s5,6.79-2.08,9.11S68.1,27.32,78.56,37.76C78.56,37.76,83.81,45.92,76.42,38.82Z"/>
            <path class="b2f07492-0ed7-4e30-a57d-0b4c105e1627" d="M93.64,42.89s1.78-10.48,6-16.44S115.3,8.08,124,14.47c0,0,2.2,2.91.2,5s-4.78,2.06-6.83-.16S97.77,24,96.23,43.14C96.23,43.14,94.22,47.93,93.64,42.89Z"/>
            <g>
              <path class="b2f07492-0ed7-4e30-a57d-0b4c105e1627" d="M109.68,83.66c-3.82,12.18-16.53,15.88-29.95,14.46h0a60.06,60.06,0,0,1-13.12-2.94C49.3,89.3,43.44,77.17,50.34,60c5.18-12.89,16.88-23.08,30.44-23.13A28.14,28.14,0,0,1,90,38.44C107.27,44.32,115.35,65.61,109.68,83.66Z"/>
              <path class="bddd73c5-ca8e-49c3-a48d-423085bb807e" d="M80.83,97.94a61.27,61.27,0,0,1-13.12-3c-17.26-5.87-23.15-17.92-16.3-34.91,5.13-12.78,16.8-22.85,30.34-22.85A36.49,36.49,0,0,0,56.94,61.77C50.11,83.43,65.8,94.9,80.83,97.94Z"/>
              <g>
                <g>
                  <g>
                    <g>
                      <path class="ad307057-5017-4954-8321-a5830bff2a56" d="M96.73,82.12s-2,5.74-6.19,9.12a10.77,10.77,0,0,1-3.9,2.07c-5.47,1.53-11.11-.63-13.36-7.18-.06-.14-.09-.28-.14-.43a21,21,0,0,1-.89-5.79s10,5,20.59,3.2A23.87,23.87,0,0,0,96.73,82.12Z"/>
                      <path class="f04b3798-4274-45ef-a83f-c3dcc87b7c65" d="M96.77,82.08a18.6,18.6,0,0,1-1.52,3.85,22,22,0,0,1-2.19,3.5,16,16,0,0,1-3,2.92,10.89,10.89,0,0,1-3.89,1.8,11.26,11.26,0,0,1-8.43-1,12.21,12.21,0,0,1-5.29-6.71l0,.07c-.22-.63-.34-1.12-.48-1.67s-.22-1.08-.31-1.63a23.88,23.88,0,0,1-.25-3.27l0-1.35,1.22.59a37.91,37.91,0,0,0,5.74,2.16,41.27,41.27,0,0,0,6,1.36,35.43,35.43,0,0,0,6.18.33c1-.07,2.07-.13,3.09-.29S95.65,82.34,96.77,82.08Zm-.07.07a18.21,18.21,0,0,1-3,.85c-1,.22-2.07.33-3.12.45a30.65,30.65,0,0,1-6.28-.11A40.26,40.26,0,0,1,72.21,80l.13-.09a20.24,20.24,0,0,0,1,6.19h0a11.34,11.34,0,0,0,4.82,6.24,10.66,10.66,0,0,0,7.79,1,12.06,12.06,0,0,0,6.66-4.3A25.49,25.49,0,0,0,96.7,82.15Z"/>
                    </g>
                    <path class="ae987ba5-10e1-44c4-b4cb-3cbfe6c7a086" d="M82.45,87c4.37,1,7.25,4.56,4.47,6.33a5.43,5.43,0,0,1-2.54.7c-9.15-1.23-10.78-6.15-10.17-9.15,1.15-.15,2.37.41,5.47,1.68A22.13,22.13,0,0,1,82.45,87Z"/>
                    <path class="ad307057-5017-4954-8321-a5830bff2a56" d="M79.34,85.7a8.19,8.19,0,0,1,2,6.84A11.55,11.55,0,0,0,78,85.42Z"/>
                    <path class="a1451252-964a-42a2-986c-6471b6bfd69a" d="M85,88.87a21.63,21.63,0,0,1-5.67-.44,8.72,8.72,0,0,1-6.86-8.16V80.2s9.76,5,20.29,3.23C92.55,86.08,90.93,88.55,85,88.87Z"/>
                  </g>
                  <path class="a425fd53-cf6c-416a-b55e-285d0551fa55" d="M71.75,76.23a2.37,2.37,0,0,1,.36,1.21,2.85,2.85,0,0,1-.28,1.3,2.16,2.16,0,0,1-1,.92,2.9,2.9,0,0,1-.65.14,2.74,2.74,0,0,1-.64-.09v0a2.82,2.82,0,0,0,1.1-.34,2,2,0,0,0,.79-.82,3.65,3.65,0,0,0,.31-2.26Z"/>
                  <path class="a425fd53-cf6c-416a-b55e-285d0551fa55" d="M98.18,83.65a2,2,0,0,1-1-.49,2.88,2.88,0,0,1-.65-.89,2.78,2.78,0,0,1-.2-1.1,2,2,0,0,1,.36-1h0A3.45,3.45,0,0,0,97,82.07a3.93,3.93,0,0,0,1.2,1.54Z"/>
                </g>
                <ellipse class="f9bfc6ae-9fd1-4043-9413-f52c3744effe" cx="64.7" cy="73.56" rx="3.62" ry="5.16" transform="translate(-25.78 111.11) rotate(-71.2)"/>
                <ellipse class="f9bfc6ae-9fd1-4043-9413-f52c3744effe" cx="105.49" cy="77.17" rx="5.16" ry="3.62" transform="translate(-6.17 9.24) rotate(-4.87)"/>
              </g>
            </g>
          </g>
          <path class="b2f07492-0ed7-4e30-a57d-0b4c105e1627" d="M29,98.93a3,3,0,0,1,5.08,1.34,6.52,6.52,0,0,1-.47,4.55c-1.78,3.3-5.32,7-10,6.81s-5.53,3.81-6.29,6.31-5.25,3.48-6.56-1.67c0,0-2.06-6.82,2.77-11.3,0,0,1.67-2.4,8.68-2.12C26.47,103,27.57,100.57,29,98.93Z"/>
        </g>
      </g>
      <path class="b2f07492-0ed7-4e30-a57d-0b4c105e1627" d="M53.18,90.13s-7.67,11.74,2.76,16.76c6.13,3,9.16,4.65,11.15,4.53,2.78-.17,7.18,4.66,7.06,6.82,0,0,0,4.41-2.66,2.41,0,0-2.35,5.82-9.91-.07,0,0-.73-2.33,3-3.71,0,0-28.23-3.66-23.65-26.84C41,90,47.52,83.51,53.18,90.13Z"/>
      <path class="e7de4784-b2e6-4f1b-855e-fc371f42f6d5" d="M66.08,119s3.3-.8-3.33-2.69"/>
    </g>
    <line class="b2f07492-0ed7-4e30-a57d-0b4c105e1627" x1="71.49" y1="120.65" x2="72.01" y2="118.08"/>
  </g>
</svg>
