<svg id="ef6669bf-0ade-4863-a3b2-eb7858292d86" data-name="Layer 1" xmlns="http://www.w3.org/2000/svg" width="179" height="223" viewBox="0 0 179 223">
  <defs>
    <style>
      .aa72c5ac-89b8-49df-8dd0-8d3570b5ab7f {
        fill: #747474;
      }

      .a5bee5ac-9f1d-49fc-ac71-26d86cb3ebca {
        fill: #5e5e5e;
      }

      .ad71585f-dd9b-4b59-96ba-02401f1b8bd8 {
        fill: #3a3a3a;
      }

      .bad402e1-df1b-469d-b63a-e6700b4dcd64 {
        fill: #2d2d2d;
      }

      .aa6be89f-b245-479c-87e9-bae97aac936c {
        fill: #474546;
      }
    </style>
  </defs>
  <g>
    <g>
      <path class="aa72c5ac-89b8-49df-8dd0-8d3570b5ab7f" d="M19,10.36S60.39-8.78,72.72,120.88c0,0,2.7,41.14,35.9,48.73l-1.69,9.06a102.45,102.45,0,0,1-18.32-10.22c-12-8.16-26.08-34.37-28.4-51.64-4.29-32-13.4-89.72-39.31-80.17C20.9,36.64,8.2,20.41,19,10.36Z"/>
      <path class="a5bee5ac-9f1d-49fc-ac71-26d86cb3ebca" d="M15.75,14.84S43.88,11.2,55,50.93c0,0,8.32,12.74,13.85,63.52,0,0,6.19,31,11.83,32.94,0,0-8.19-9.65-10.61-49.61,0,0-7.75-57.06-24.06-75.39C46,22.39,24.54-1.38,15.75,14.84Z"/>
    </g>
    <g>
      <path class="ad71585f-dd9b-4b59-96ba-02401f1b8bd8" d="M101.72,171.86s1.64-3.43,4.63-3a7.14,7.14,0,0,1,8.71,3.19s7.06,8.7,9.15,9.83a5.55,5.55,0,0,0,5.16-.2s6.88-2.47,16.94,4.76c0,0-3.51-1.71-16.47,6.54,0,0-6.7,6.24-19-3.45C110.83,189.56,99.53,182.71,101.72,171.86Z"/>
      <path class="bad402e1-df1b-469d-b63a-e6700b4dcd64" d="M103.88,169.42c5-3.46,9.52.66,9.52.66,1.74,1.69,8,9.31,8,9.31,3.46,4.8,8.57,2.16,8.57,2.16,9.29-1.59,16.33,4.92,16.33,4.92-11.4-5.33-19.89-2.48-19.89-2.48-6,1.2-13.64-11.77-13.64-11.77-10.34-5.86-10.7,4.85-10.7,4.85l-.1,1.38S99.6,171.33,103.88,169.42Z"/>
      <path class="aa6be89f-b245-479c-87e9-bae97aac936c" d="M105.18,184.44s15.53,11.16,27.35,6.92c0,0-7.8,7.48-18,.78C114.57,192.14,107.52,188.15,105.18,184.44Z"/>
    </g>
  </g>
</svg>
