<svg id="fa57d5d2-5440-42ac-bd07-c58ad87d14f2" data-name="Layer 1" xmlns="http://www.w3.org/2000/svg" width="100.94" height="97.76" viewBox="0 0 100.94 97.76">
  <defs>
    <style>
      .a3db8151-d672-4076-ac2c-c1924cda4e6f {
        fill: #ffe309;
        stroke: #665608;
        stroke-miterlimit: 10;
        stroke-width: 0.75px;
      }
    </style>
  </defs>
  <g>
    <path class="a3db8151-d672-4076-ac2c-c1924cda4e6f" d="M65.93,93c-25.67-22.36-23.77-56.7-19-68.88S58.6,27.9,58.6,27.9c-2.46,7.05,1,.77.86,6.64-.65,28.68,21.83,43,21.83,43S83.85,90.23,65.93,93"/>
    <path class="a3db8151-d672-4076-ac2c-c1924cda4e6f" d="M44,41.61s-5.55-7.23-2.7-22.93,7.36-2.93,7.36-2.93.49,3.39.94-4.46c.57-9.89,9.35-3.09,9,8.87-.07,2.1.62,6.12,2.7,6.46,0,0,1.66-5.86,3.33-6.48,3.39-1.26,6.66,3.95-4.78,17.59l-.4.35"/>
    <path class="a3db8151-d672-4076-ac2c-c1924cda4e6f" d="M61.3,26.62s-7.31-6-10.81,3.18"/>
    <path class="a3db8151-d672-4076-ac2c-c1924cda4e6f" d="M49.51,14.28a22.11,22.11,0,0,0,1.11,9.51"/>
  </g>
</svg>
