<svg id="bdc6d118-3dc4-44b1-bd14-98a851d11a55" data-name="Layer 1" xmlns="http://www.w3.org/2000/svg" width="104.25" height="112.06" viewBox="0 0 104.25 112.06">
  <defs>
    <style>
      .b52ff404-822c-47f9-a950-96575e2c8728 {
        fill: #181818;
      }

      .b52ff404-822c-47f9-a950-96575e2c8728, .bba65e45-3de5-4395-bbd1-50303f5d32b8 {
        stroke: #161616;
        stroke-miterlimit: 10;
        stroke-width: 0.78px;
      }

      .bba65e45-3de5-4395-bbd1-50303f5d32b8 {
        fill: #fff;
      }

      .acc5a7db-0de5-480f-8648-cd70f6ce9a22 {
        fill: #020206;
      }

      .a97b5287-c735-493f-be5c-53e66f77d8d5 {
        fill: #383838;
      }
    </style>
  </defs>
  <g>
    <g>
      <path class="b52ff404-822c-47f9-a950-96575e2c8728" d="M87,72s13.93-.48,15.22,18.42-2.67,19.78-2.67,19.78.21-6.54-4.79-8.58-6.93-1.54-12.32-7.77S79.07,78.6,80.35,74C80.35,74,83.51,69.92,87,72Z"/>
      <path class="bba65e45-3de5-4395-bbd1-50303f5d32b8" d="M92.15,2.32s-45.44,3-29.85,50.05C68,69.62,87.54,79.54,87.54,79.54s.39-7.69-5.34-12c-5.31-4-14.64-13.29-13.28-34.52C70,16.12,83.63,18.52,83.63,18.52s2.8-6.89,3.72-8.46C88.5,8.12,92.15,2.32,92.15,2.32Z"/>
    </g>
    <path class="acc5a7db-0de5-480f-8648-cd70f6ce9a22" d="M68.92,33s-5.25-6.14-10-2.76l.43-4.08s5.18-2.31,10.61,2.7Z"/>
    <path class="acc5a7db-0de5-480f-8648-cd70f6ce9a22" d="M69.1,41.12s-5-5.57-9.53-.62l.59,4s5-4.12,9.17-.11Z"/>
    <path class="acc5a7db-0de5-480f-8648-cd70f6ce9a22" d="M71.77,53.86S66.26,50.78,63.28,55l1.86,3.46s2.85-5.28,7.35-2.85Z"/>
    <path class="acc5a7db-0de5-480f-8648-cd70f6ce9a22" d="M78.13,64.07s-4.74.89-5.64,4.16l-2-2.16S76.54,59.73,78.13,64.07Z"/>
    <path class="acc5a7db-0de5-480f-8648-cd70f6ce9a22" d="M85.24,70.89a6.82,6.82,0,0,0-5.56,3.59l-1.55-1.39s4.05-5.22,6.45-3.16Z"/>
    <path class="a97b5287-c735-493f-be5c-53e66f77d8d5" d="M86.87,72s14.22,6.57,13.2,22.84c0,0,1.68,11.08-.66,15.36,0,0,3.47-.37,2.91-15S98.4,73.24,86.87,72Z"/>
    <path class="acc5a7db-0de5-480f-8648-cd70f6ce9a22" d="M68.15,12.7s4.75-2.23,7.8,6.9l-3.54,2.7S66.58,14.62,65,15.53Z"/>
    <path class="acc5a7db-0de5-480f-8648-cd70f6ce9a22" d="M78.18,5.92s7.73,1.14,5,12.3l-4.38.36s1.32-8.46-4.48-10.89Z"/>
  </g>
</svg>
