<svg id="f5da2043-2b8f-4ebf-8390-344c4360d117" data-name="Layer 1" xmlns="http://www.w3.org/2000/svg" width="118" height="100" viewBox="0 0 118 100">
  <defs>
    <style>
      .fba4f90b-d730-4679-8391-a2d8d5463e59 {
        fill: #bcfde5;
      }

      .ef8e2f66-7328-4fc7-818e-7283f3c2253b {
        fill: #ebf7f2;
      }
    </style>
  </defs>
  <g>
    <g>
      <path class="fba4f90b-d730-4679-8391-a2d8d5463e59" d="M104.32,40.66c1.8,12.53-27.27,19.56-47,22.41S19.45,60.43,17.64,47.9s15.55-18.62,35.3-21.47S102.51,28.14,104.32,40.66Z"/>
      <path class="ef8e2f66-7328-4fc7-818e-7283f3c2253b" d="M104.37,40.66a8.31,8.31,0,0,1-.21,3.18,9.36,9.36,0,0,1-1.41,2.87,18.07,18.07,0,0,1-4.68,4.34,53,53,0,0,1-11.52,5.49,156.34,156.34,0,0,1-24.76,6.32c-8.35,1.61-17.08,2.31-25.6.69a33.41,33.41,0,0,1-12.13-4.69,18.29,18.29,0,0,1-4.8-4.61A14.43,14.43,0,0,1,16.75,48a13.5,13.5,0,0,1,0-3.42,11.81,11.81,0,0,1,1-3.3A15.24,15.24,0,0,1,21.88,36a37,37,0,0,1,11.54-6A88.72,88.72,0,0,1,45.89,27a106.83,106.83,0,0,1,12.72-1.62,96.31,96.31,0,0,1,25.47,2,49.71,49.71,0,0,1,12.09,4.1,21.12,21.12,0,0,1,5.22,3.67A10.1,10.1,0,0,1,104.37,40.66Zm-.1,0a10,10,0,0,0-3-5.48,20.64,20.64,0,0,0-5.2-3.62,48.85,48.85,0,0,0-12.06-4,94.8,94.8,0,0,0-25.38-1.65A107.58,107.58,0,0,0,46,27.67,93.45,93.45,0,0,0,33.7,30.88a36.07,36.07,0,0,0-11.22,5.88,14.24,14.24,0,0,0-3.9,4.92,10.64,10.64,0,0,0-.87,3,12.78,12.78,0,0,0,0,3.15,13.62,13.62,0,0,0,2.31,5.84,17.51,17.51,0,0,0,4.53,4.39A32.8,32.8,0,0,0,36.36,62.7c8.35,1.66,17,1.12,25.34-.39a153.63,153.63,0,0,0,24.77-6A52.84,52.84,0,0,0,98,50.91a17.77,17.77,0,0,0,4.66-4.28,9,9,0,0,0,1.41-2.82A8.11,8.11,0,0,0,104.27,40.67Z"/>
    </g>
    <g>
      <path class="fba4f90b-d730-4679-8391-a2d8d5463e59" d="M99.27,44.39C102.51,56.63,74.44,67,55.15,72.09S17.26,73.83,14,61.6,27.3,41.31,46.6,36.19,96,32.16,99.27,44.39Z"/>
      <path class="ef8e2f66-7328-4fc7-818e-7283f3c2253b" d="M99.31,44.38a8,8,0,0,1,.17,3.19,9.26,9.26,0,0,1-1.07,3,17.85,17.85,0,0,1-4.15,4.85,52.7,52.7,0,0,1-10.81,6.79,156.06,156.06,0,0,1-23.86,9.13c-8.11,2.57-16.7,4.27-25.35,3.65a33.54,33.54,0,0,1-12.59-3.26,18.32,18.32,0,0,1-5.3-4,14.45,14.45,0,0,1-3.21-5.92,13.36,13.36,0,0,1-.41-3.4A12.16,12.16,0,0,1,13.3,55a15.15,15.15,0,0,1,3.55-5.68,37.19,37.19,0,0,1,10.77-7.27,88.61,88.61,0,0,1,12-4.51A107.59,107.59,0,0,1,52.1,34.47a96.6,96.6,0,0,1,25.52-1A49.72,49.72,0,0,1,90.1,36.15a20.92,20.92,0,0,1,5.61,3.05A9.92,9.92,0,0,1,99.31,44.38Zm-.09,0a9.92,9.92,0,0,0-3.59-5.11,21,21,0,0,0-5.58-3A49.46,49.46,0,0,0,77.6,33.72,94.88,94.88,0,0,0,52.2,35a105.91,105.91,0,0,0-12.33,3.22A91.49,91.49,0,0,0,28,42.84,36.07,36.07,0,0,0,17.53,50a14.15,14.15,0,0,0-3.31,5.34,10.89,10.89,0,0,0-.51,3.11,12.78,12.78,0,0,0,.39,3.13,13.77,13.77,0,0,0,3,5.53,17.36,17.36,0,0,0,5,3.83,32.44,32.44,0,0,0,12.23,3.22c8.49.69,17-.84,25.13-3.31A153,153,0,0,0,83.35,62a52.24,52.24,0,0,0,10.8-6.7,17.57,17.57,0,0,0,4.14-4.79,9,9,0,0,0,1.07-3A7.91,7.91,0,0,0,99.22,44.41Z"/>
    </g>
  </g>
</svg>
