<svg id="b6fd27a3-1523-4929-9fb8-d822db171d81" data-name="Layer 1" xmlns="http://www.w3.org/2000/svg" width="118" height="100" viewBox="0 0 118 100">
  <defs>
    <style>
      .b57e4302-bc22-4443-b2a6-48d1879b7898 {
        fill: #bcfde5;
      }

      .fc332b54-50c0-4453-aee7-83897a7d2773 {
        fill: #ebf7f2;
      }
    </style>
  </defs>
  <g>
    <g>
      <path class="b57e4302-bc22-4443-b2a6-48d1879b7898" d="M98.59,75.86C90.17,83.5,70.35,65.38,58.31,52.11S41.3,22.62,49.71,15s21.66,2.23,33.69,15.5S107,68.23,98.59,75.86Z"/>
      <path class="fc332b54-50c0-4453-aee7-83897a7d2773" d="M98.62,75.9a7.3,7.3,0,0,1-2.48,1.45,8.27,8.27,0,0,1-2.84.39,16.24,16.24,0,0,1-5.58-1.3,47.41,47.41,0,0,1-9.88-5.82A140.07,140.07,0,0,1,60.7,55.38C55.3,50,50.38,43.83,47.3,36.67a30.05,30.05,0,0,1-2.61-11.41,16.31,16.31,0,0,1,1-5.92,12.9,12.9,0,0,1,3.41-5,11.8,11.8,0,0,1,2.56-1.74,10.77,10.77,0,0,1,3-1,13.63,13.63,0,0,1,6,.49A33.34,33.34,0,0,1,71,17.72a81.78,81.78,0,0,1,8.56,7.75,96.08,96.08,0,0,1,7.57,8.67,86.9,86.9,0,0,1,11.3,20,44.65,44.65,0,0,1,3,11.06,19,19,0,0,1-.12,5.73A9,9,0,0,1,98.62,75.9Zm-.07-.07a8.87,8.87,0,0,0,2.59-5,18.72,18.72,0,0,0,.08-5.69,44.35,44.35,0,0,0-3.06-11A85.18,85.18,0,0,0,86.65,34.48,94.8,94.8,0,0,0,79,26a82,82,0,0,0-8.57-7.56,32.13,32.13,0,0,0-10-5.4,12.75,12.75,0,0,0-5.62-.44,10.13,10.13,0,0,0-2.68.87,11,11,0,0,0-2.33,1.61,12.09,12.09,0,0,0-3.18,4.64,15.59,15.59,0,0,0-1,5.57A29.07,29.07,0,0,0,48.1,36.34c2.95,7,7.68,13.21,13,18.66A137.81,137.81,0,0,0,78,70.43a47.49,47.49,0,0,0,9.8,5.85A15.82,15.82,0,0,0,93.3,77.6a8.11,8.11,0,0,0,2.81-.36A7.28,7.28,0,0,0,98.55,75.83Z"/>
    </g>
    <g>
      <path class="b57e4302-bc22-4443-b2a6-48d1879b7898" d="M94.46,73.8c0,11.36-26.73,13.88-44.65,13.88s-33.27-7.2-33.27-18.56S32.73,54.57,50.65,54.57,94.46,62.44,94.46,73.8Z"/>
      <path class="fc332b54-50c0-4453-aee7-83897a7d2773" d="M94.51,73.8a7.1,7.1,0,0,1-.59,2.8A8.18,8.18,0,0,1,92.3,79a16,16,0,0,1-4.71,3.26,47.24,47.24,0,0,1-10.94,3.41,139.74,139.74,0,0,1-22.81,2.47C46.21,88.49,38.35,88,31,85.47a30.06,30.06,0,0,1-10.21-5.74A16.29,16.29,0,0,1,17.08,75a13.18,13.18,0,0,1-1.44-5.91A12.36,12.36,0,0,1,16.07,66a11,11,0,0,1,1.29-2.83,13.74,13.74,0,0,1,4.42-4.14,32.93,32.93,0,0,1,11-3.83,81,81,0,0,1,11.49-1.14,98.44,98.44,0,0,1,11.52.21A86.44,86.44,0,0,1,78.2,59.34a44.3,44.3,0,0,1,10.22,5.19,19,19,0,0,1,4.16,3.94A8.91,8.91,0,0,1,94.51,73.8Zm-.1,0a8.78,8.78,0,0,0-1.94-5.25,18.66,18.66,0,0,0-4.15-3.88,44.08,44.08,0,0,0-10.2-5.11,84.94,84.94,0,0,0-22.33-4.72,97,97,0,0,0-11.44-.05A81.91,81.91,0,0,0,33,56.07a32.21,32.21,0,0,0-10.71,3.77,12.75,12.75,0,0,0-4.1,3.87A9.79,9.79,0,0,0,17,66.29a11,11,0,0,0-.38,2.8,12.14,12.14,0,0,0,1.3,5.48,15.88,15.88,0,0,0,3.46,4.48,29.22,29.22,0,0,0,9.87,5.6c7.21,2.55,15,3.18,22.56,2.91A138,138,0,0,0,76.6,85.41a47.37,47.37,0,0,0,10.92-3.33,16,16,0,0,0,4.68-3.2,8.29,8.29,0,0,0,1.62-2.32A7.12,7.12,0,0,0,94.41,73.8Z"/>
    </g>
  </g>
</svg>
