<svg id="a0ba375e-9a2c-4e1c-8554-3c6102c0db77" data-name="Layer 1" xmlns="http://www.w3.org/2000/svg" width="160" height="170" viewBox="0 0 160 170">
  <defs>
    <style>
      .a131cf5d-404b-4c5f-81b8-97b01b133be1, .a698922a-dfb5-4db0-a964-7cf2fad38790 {
        fill: #ffe309;
      }

      .a131cf5d-404b-4c5f-81b8-97b01b133be1, .f7f97987-2d81-404f-b518-ecc93a2d72cf {
        stroke: #665608;
      }

      .a131cf5d-404b-4c5f-81b8-97b01b133be1, .a698922a-dfb5-4db0-a964-7cf2fad38790, .ab3d88cd-0c79-4f8d-9746-945914b3adf2, .f7f97987-2d81-404f-b518-ecc93a2d72cf {
        stroke-miterlimit: 10;
      }

      .a131cf5d-404b-4c5f-81b8-97b01b133be1, .a698922a-dfb5-4db0-a964-7cf2fad38790, .f7f97987-2d81-404f-b518-ecc93a2d72cf {
        stroke-width: 0.75px;
      }

      .a698922a-dfb5-4db0-a964-7cf2fad38790 {
        stroke: #493c05;
      }

      .af6c14fd-1e8b-41fe-89f1-e2d0fcbafa63 {
        fill: #ecc516;
      }

      .ab3d88cd-0c79-4f8d-9746-945914b3adf2 {
        fill: #532900;
        stroke: #3a1c03;
      }

      .ba302dfe-c502-4709-adee-ebfbc247c7cf {
        fill: #681a1a;
      }

      .a5d6f10f-ee7f-48ec-9ae9-5af734c401d9 {
        fill: #ef7089;
      }

      .a1883625-85f7-4be8-9d56-f97db82f28db {
        fill: #ff5763;
      }

      .a29e0813-791f-4ed5-b04c-ae9c448ec893 {
        fill: #fff;
      }

      .e5126124-22cc-4027-826f-9e102226a5e3 {
        fill: #ef304c;
      }

      .bb1732e0-2ed8-49d3-85e4-cb6ef79e1d34 {
        fill: #ffa979;
      }

      .f7f97987-2d81-404f-b518-ecc93a2d72cf {
        fill: none;
      }
    </style>
  </defs>
  <g>
    <path class="a131cf5d-404b-4c5f-81b8-97b01b133be1" d="M61.05,124s-1.84,2.83-18.58.94c0,0-6.83-.61-10.41-2.21s-11.79-3.72-13.78-2-1.24,4.26,2.92,3.67h4.14s-4.94.42-3.4,5.81,5.68-2.88,5.68-2.88L25.16,132s2.71,3.73,6.65-2.66c0,0,1.32,2.71,12.12,5.41S66.37,136,66.37,136Z"/>
    <g>
      <g>
        <path class="a131cf5d-404b-4c5f-81b8-97b01b133be1" d="M114.37,143s-1.47,4.57,3.72,5.79,9.39.09,9.37,5.39-.54,11-5.84,11-4.18-7.35-8.28-7.26-11.51-1.79-10.22-11.07S114.37,143,114.37,143Z"/>
        <g>
          <path class="a698922a-dfb5-4db0-a964-7cf2fad38790" d="M56.31,122.51A45.67,45.67,0,0,0,67,138.8a34.58,34.58,0,0,0,11.23,7h0a43.66,43.66,0,0,0,10,2.54c.64.09,1.29.17,1.93.22a46.77,46.77,0,0,0,14.1-.83,65.5,65.5,0,0,0,22.56-9.94c1.34-.89,2.56-1.77,3.65-2.56,8.17-6,14.95-6.2,14.95-6.2-5.1-2.32-7.93-7.84-11.21-13.7-3-5.35-6.32-11-12.11-14.76-.3-.2-.6-.4-.92-.58a30.5,30.5,0,0,0-5.92-2.69,40.8,40.8,0,0,0-9.67-1.92,1.14,1.14,0,0,0-.26,0,55.24,55.24,0,0,0-9.17,0,44.3,44.3,0,0,0-5.45.76c-11.24,2.55-16.06-5.06-16.06-5.06L53.39,114A80.06,80.06,0,0,0,56.31,122.51Z"/>
          <path class="af6c14fd-1e8b-41fe-89f1-e2d0fcbafa63" d="M56.47,121.16c5.34.4,11.15-.85,17.89-3.15,14-4.75,23.66-13.88,22.39-20.85A43.72,43.72,0,0,0,89,97a35.7,35.7,0,0,0-4.62.56c-9.51,2.07-13.81-5-13.81-5L53,112.92C53.82,115.72,55.48,118.72,56.47,121.16Z"/>
          <path class="ab3d88cd-0c79-4f8d-9746-945914b3adf2" d="M126.24,137.65c1.35-.89,3.11-1.6,4.2-2.39,8.17-6,14.95-6.2,14.95-6.2-5.1-2.32-8.5-8.38-11.78-14.24C134.58,119.71,134.7,129,126.24,137.65Z"/>
          <path class="ab3d88cd-0c79-4f8d-9746-945914b3adf2" d="M67,138.8a34.58,34.58,0,0,0,11.23,7h0c5.52-1.88,15.46-7.24,24.11-22.36,5.32-9.3,5.18-19.42,3.2-28.06a55.36,55.36,0,0,0-9.43,0c1.48,6.85,2,18.15-6.13,28.25A42.93,42.93,0,0,1,67,138.8Z"/>
          <path class="ab3d88cd-0c79-4f8d-9746-945914b3adf2" d="M90.13,148.59a46.77,46.77,0,0,0,14.1-.83c6.06-3.13,14.09-8.75,18.16-17.89,5-11.15,2.88-21.18-.32-29.27-.3-.2-.6-.4-.92-.58a30.5,30.5,0,0,0-5.92-2.69c2,6.47,4,17.83-2.17,28.08C105.78,137.53,94.58,145.67,90.13,148.59Z"/>
          <g>
            <path class="a131cf5d-404b-4c5f-81b8-97b01b133be1" d="M69,52.26s6.91-2.2,10.76-18.49S70.87,3.34,62.67,5s-6.19,8.48,2.6,11.39,14.17,21.47,1.08,34.54C66.35,50.94,59.78,61.14,69,52.26Z"/>
            <path class="a131cf5d-404b-4c5f-81b8-97b01b133be1" d="M47.5,57.35S45.27,44.25,40,36.79s-19.62-23-30.44-15c0,0-2.75,3.64-.25,6.3s6,2.58,8.54-.2,24.47,5.86,26.38,29.75C44.25,57.66,46.77,63.66,47.5,57.35Z"/>
            <g>
              <path class="a131cf5d-404b-4c5f-81b8-97b01b133be1" d="M27.43,108.33c4.78,15.24,20.68,19.87,37.46,18.09h0a76.42,76.42,0,0,0,16.41-3.68c21.59-7.34,28.92-22.51,20.29-44C95.16,62.65,80.53,49.91,63.58,49.85a35.39,35.39,0,0,0-11.53,1.93C30.46,59.14,20.35,85.76,27.43,108.33Z"/>
              <path class="af6c14fd-1e8b-41fe-89f1-e2d0fcbafa63" d="M63.51,126.2a77.66,77.66,0,0,0,16.41-3.69c21.59-7.35,29-22.41,20.39-43.66-6.43-16-21-28.58-37.95-28.58A45.66,45.66,0,0,1,93.39,81C101.93,108.05,82.31,122.39,63.51,126.2Z"/>
              <g>
                <g>
                  <g>
                    <g>
                      <path class="ba302dfe-c502-4709-adee-ebfbc247c7cf" d="M43.63,106.4s2.45,7.19,7.75,11.42a13.42,13.42,0,0,0,4.87,2.58c6.85,1.91,13.89-.79,16.7-9a4.72,4.72,0,0,0,.18-.53,26.17,26.17,0,0,0,1.11-7.25s-12.56,6.27-25.74,4A29.79,29.79,0,0,1,43.63,106.4Z"/>
                      <path class="a5d6f10f-ee7f-48ec-9ae9-5af734c401d9" d="M43.67,106.44A31.37,31.37,0,0,0,49,114.86a14.65,14.65,0,0,0,8.17,5,15.14,15.14,0,0,0,4.79.2,11.7,11.7,0,0,0,4.46-1.52,13.59,13.59,0,0,0,5.66-7.44l0-.06c.18-.49.38-1.15.53-1.75s.28-1.24.38-1.87a27.14,27.14,0,0,0,.37-3.83l1.21.77a50,50,0,0,1-7.55,2.69,47.48,47.48,0,0,1-7.84,1.37,35.81,35.81,0,0,1-7.95-.08c-.66-.06-1.31-.21-2-.32a18.54,18.54,0,0,1-1.94-.4A22.69,22.69,0,0,1,43.67,106.44Zm-.07-.07a38.91,38.91,0,0,0,3.83,1c.64.14,1.29.24,1.94.32s1.29.19,2,.23a38.68,38.68,0,0,0,7.83-.16,50.15,50.15,0,0,0,15.05-4.22l.14-.06v.14a29.26,29.26,0,0,1-.34,4,21.55,21.55,0,0,1-.95,3.86h0a14.32,14.32,0,0,1-6.13,7.91,13.57,13.57,0,0,1-9.89,1.3,15.33,15.33,0,0,1-8.4-5.45A28.47,28.47,0,0,1,45.74,111c-.43-.74-.81-1.5-1.17-2.26A16.7,16.7,0,0,1,43.6,106.37Z"/>
                    </g>
                    <path class="a1883625-85f7-4be8-9d56-f97db82f28db" d="M61.49,112.45c-5.46,1.21-9.06,5.7-5.58,7.91a6.75,6.75,0,0,0,3.17.88c11.44-1.54,13.48-7.7,12.71-11.45-1.43-.18-3,.52-6.84,2.1A28.22,28.22,0,0,0,61.49,112.45Z"/>
                    <path class="ba302dfe-c502-4709-adee-ebfbc247c7cf" d="M65.38,110.88a10.29,10.29,0,0,0-2.49,8.56s.34-5.41,4.21-8.91Z"/>
                    <path class="a29e0813-791f-4ed5-b04c-ae9c448ec893" d="M58.36,114.85a27.41,27.41,0,0,0,7.09-.55A10.88,10.88,0,0,0,74,104.09V104s-12.2,6.3-25.38,4C48.86,111.36,50.88,114.45,58.36,114.85Z"/>
                  </g>
                  <path class="e5126124-22cc-4027-826f-9e102226a5e3" d="M74.92,99.06c.1.5.17,1,.29,1.42a4,4,0,0,0,.45,1.22,2.49,2.49,0,0,0,.8.94,7,7,0,0,0,1.22.7v0a3.7,3.7,0,0,1-1.41-.41,2.63,2.63,0,0,1-1-1,4.64,4.64,0,0,1-.34-2.89Z"/>
                  <path class="e5126124-22cc-4027-826f-9e102226a5e3" d="M41.78,108.28c.23-.38.45-.72.64-1.06a6.5,6.5,0,0,0,.5-1,4.32,4.32,0,0,0,.38-1.06c.13-.37.17-.76.29-1.2h0a4.32,4.32,0,0,1-.26,2.46,4.77,4.77,0,0,1-1.57,1.93Z"/>
                </g>
                <ellipse class="bb1732e0-2ed8-49d3-85e4-cb6ef79e1d34" cx="83.68" cy="95.7" rx="6.45" ry="4.53" transform="translate(-26.38 32.07) rotate(-18.8)"/>
                <ellipse class="bb1732e0-2ed8-49d3-85e4-cb6ef79e1d34" cx="32.68" cy="100.21" rx="4.53" ry="6.45" transform="translate(-69.95 124.26) rotate(-85.13)"/>
              </g>
            </g>
          </g>
          <path class="a131cf5d-404b-4c5f-81b8-97b01b133be1" d="M128.32,127.43A3.7,3.7,0,0,0,122,129.1a8.17,8.17,0,0,0,.59,5.69c2.21,4.14,6.64,8.79,12.55,8.52s6.92,4.77,7.87,7.89,6.56,4.35,8.19-2.09c0,0,2.58-8.52-3.45-14.13,0,0-2.09-3-10.87-2.65C131.49,132.54,130.12,129.48,128.32,127.43Z"/>
        </g>
      </g>
      <path class="a131cf5d-404b-4c5f-81b8-97b01b133be1" d="M98.09,116.43s9.6,14.67-3.45,21c-7.67,3.69-11.46,5.81-13.94,5.66-3.47-.21-9,5.82-8.83,8.53,0,0,0,5.51,3.32,3,0,0,2.94,7.28,12.4-.08,0,0,.92-2.92-3.81-4.64,0,0,35.29-4.58,29.57-33.57C113.35,116.3,105.17,108.15,98.09,116.43Z"/>
      <path class="f7f97987-2d81-404f-b518-ecc93a2d72cf" d="M82,152.51s-4.12-1,4.16-3.35"/>
      <line class="a131cf5d-404b-4c5f-81b8-97b01b133be1" x1="75.19" y1="154.59" x2="74.54" y2="151.37"/>
    </g>
  </g>
</svg>
