<svg id="feb41e44-43f5-4f53-a260-5145623fcd25" data-name="Layer 1" xmlns="http://www.w3.org/2000/svg" width="256" height="256" viewBox="0 0 256 256">
  <defs>
    <style>
      .e7b05b5b-5013-4688-b7eb-bcb6d17ea968 {
        opacity: 0.25;
      }

      .a9fed27a-23da-4ddd-89ac-3b5ddafb25b2 {
        fill: #f3c63c;
        stroke: #af841b;
      }

      .a9fed27a-23da-4ddd-89ac-3b5ddafb25b2, .b754a599-aa8c-43d3-b79f-c63df6a6106c {
        stroke-miterlimit: 10;
      }

      .b754a599-aa8c-43d3-b79f-c63df6a6106c, .e87d510a-ef21-4fa9-9b2e-ca8ebf0642db {
        fill: #fae599;
      }

      .b754a599-aa8c-43d3-b79f-c63df6a6106c {
        stroke: #8e7717;
      }

      .a76ac7ce-87d6-467c-a47a-a30ab72dbec3 {
        fill: #e5bb45;
        opacity: 0.5;
      }

      .bbc233e4-57d6-49cf-8d4c-943cc44b027e {
        fill: #8e7717;
      }

      .f3a8d12b-34a9-450d-9462-dc4ea524b3e1 {
        fill: #872b23;
      }

      .b54e6eee-8fe7-4fcd-9ed0-1efff5a1c90b {
        fill: #ee383f;
      }
    </style>
  </defs>
  <g>
    <path class="a9fed27a-23da-4ddd-89ac-3b5ddafb25b2" d="M61.76,167.34c-10.59-8.88-16.49-25.87-15.59-40.14h0C39.94,137.63,33.71,148.05,34.35,160c.22-3.57-.94-7.2-.72-10.77-3.08,4.62-4.61,6.93-6.38,12.8l.23-3.57c-1.91,8.26,1.81,15.6,6.92,23h0c6-6.86,13.32-12.45,23.2-14.35Z"/>
    <path class="b754a599-aa8c-43d3-b79f-c63df6a6106c" d="M38.77,168.57c7.16-4.71,16.12-7.53,25-8.56,15.27-1.77,30.86.37,45.6-4.65s20.72-16.63,25-28.83c-.62-.24-1.23-.46-1.86-.72-11-4.27-21.33-9.8-29.42-17.56-5.18-5-11-10.75-11.31-17.76-.31-6.56,6.94-7.77,10.81-12.52a62.44,62.44,0,0,0,6.17-9.83c4.7-8.61,6.49-19.16,13.48-26.61,8.33-8.9,21.42-14.4,34.63-15.38,10.83-.8,22.27,1.42,32.22,5.08,13.2,4.86,18.82,11.81,25,22.85,4.58,8.1,5.06,16.85,5.73,25.66.51,6.56,1.63,14.83,4.57,21,1.66,3.46,3.23,4.53,1.2,8.07-1.7,3-4.69,5.58-7.51,7.79-6.24,4.9-13.93,8.21-21.76,10.85a104.46,104.46,0,0,1-23.48,5.31c-1.34,10.41,2.92,19.83,3.36,30.44.81,26-10.6,57.92-40.93,69.23-30,11.32-66,6.34-88.92-12.39-7.37-6-15.91-16.79-18.71-25.47C24.72,185.37,30.2,174.21,38.77,168.57Z"/>
    <path class="a76ac7ce-87d6-467c-a47a-a30ab72dbec3" d="M134.47,220.19c-30,11.33-66.06,6.35-88.93-12.39-6.84-5.58-14.69-15.28-18-23.59a18.77,18.77,0,0,0,.15,10.33C30.47,203.22,39,214,46.38,220c22.87,18.73,59,23.71,88.93,12.39,30.32-11.31,41.73-43.25,40.92-69.23a57.34,57.34,0,0,0-.83-7.36C174.73,180.79,162.93,209.58,134.47,220.19Z"/>
    <g>
      <path class="e87d510a-ef21-4fa9-9b2e-ca8ebf0642db" d="M175.64,27.89c9.44-5.61,21.89-2.63,30.67-10.3.49,4.76-4.86,8.21-9.34,10.35a38.79,38.79,0,0,0,6.8-1.35c-.55,2.34-3.8,3.87-6.64,5.08a14.84,14.84,0,0,0,6.74-.34c-8,13.46-19.49,2.07-30.88,1.16Z"/>
      <path class="bbc233e4-57d6-49cf-8d4c-943cc44b027e" d="M175.64,27.89a26.18,26.18,0,0,1,7.58-3.06c2.65-.67,5.35-1.12,8-1.6a46.69,46.69,0,0,0,7.87-2,21.34,21.34,0,0,0,6.91-4l.61-.54.09.82a6.54,6.54,0,0,1-.8,3.81,11,11,0,0,1-2.42,3,27.44,27.44,0,0,1-6.34,4l-.24-.91a36.84,36.84,0,0,0,6.7-1.35l.82-.23-.19.82A4.55,4.55,0,0,1,203,28.77a9.52,9.52,0,0,1-1.79,1.4,28,28,0,0,1-3.93,1.93l-.1-.9a14.38,14.38,0,0,0,6.52-.3l1.1-.31-.59,1a13.59,13.59,0,0,1-6.31,5.95,11,11,0,0,1-4.34.72,19.89,19.89,0,0,1-4.3-.69c-2.79-.75-5.43-1.84-8.11-2.8A33.9,33.9,0,0,0,173,32.6l-.17,0,.08-.14Zm0,0-2.56,4.66-.08-.16a33.76,33.76,0,0,1,8.36,1.88c2.7.91,5.37,1.94,8.11,2.62a18.78,18.78,0,0,0,4.14.58,10.18,10.18,0,0,0,4-.74,12.84,12.84,0,0,0,5.85-5.63l.51.66a15.12,15.12,0,0,1-7,.37l-1.51-.29,1.42-.61a28.49,28.49,0,0,0,3.79-1.89,5.34,5.34,0,0,0,2.54-2.86l.63.59a38.26,38.26,0,0,1-6.9,1.34l-2.63.24,2.38-1.14a26.62,26.62,0,0,0,6.15-3.84A10.6,10.6,0,0,0,205.16,21a5.69,5.69,0,0,0,.72-3.32l.71.28a21.48,21.48,0,0,1-7.23,4,47.7,47.7,0,0,1-8,1.83c-2.69.44-5.4.77-8.05,1.36A27.49,27.49,0,0,0,175.64,27.89Z"/>
    </g>
    <path class="a9fed27a-23da-4ddd-89ac-3b5ddafb25b2" d="M54.85,147.82a103.12,103.12,0,0,1-12.14-6.6c15-7.35,38.32-4,55.38,2.59,8,3.66,24.25,9,25.17,19,.62,6.71-8.4,13-14.16,14.76-7.5,2.24-15.89.43-23.6-2.72-8.72-3.57-16.81-8.75-24.74-13.86-3.94-2.54-7.85-5.13-11.85-7.6-1.52-.93-9-6.45-10.57-6C43.39,145.88,49,146.34,54.85,147.82Z"/>
    <g>
      <path class="f3a8d12b-34a9-450d-9462-dc4ea524b3e1" d="M176.93,103.77,222.7,103s-2.09,8.13-21.11,9.74S176.93,103.77,176.93,103.77Z"/>
      <path class="b54e6eee-8fe7-4fcd-9ed0-1efff5a1c90b" d="M175,102.28c-1.28-4,5.55-2.68,14.43-5.16,6.45-1.81,5.72-5.87,12.15-6.14,7.3-.31,6.75,8.93,20.16,8.22s4.93,6.63-12.58,10.12C197.05,111.73,181.7,108.22,175,102.28Z"/>
      <path class="f3a8d12b-34a9-450d-9462-dc4ea524b3e1" d="M196.06,97s1.38-4.57,3.37-3S196.06,97,196.06,97Z"/>
    </g>
    <g>
      <path class="f3a8d12b-34a9-450d-9462-dc4ea524b3e1" d="M182.05,51.1c2,.74,1.4,2.23.22,3.24,0,0-8.67.36-12.71,6.68C169.12,55.88,176.53,49.1,182.05,51.1Z"/>
      <path class="f3a8d12b-34a9-450d-9462-dc4ea524b3e1" d="M204.17,50.59c-1.31.76-.72,1.82.17,2.47,0,0,5.89-.58,9.25,3.81C213.38,52.93,207.7,48.53,204.17,50.59Z"/>
    </g>
    <path class="a76ac7ce-87d6-467c-a47a-a30ab72dbec3" d="M135,126.23s11.45,6.8,37.81,5.81c0,0-15.77,14.2-42.57,5.91Z"/>
  </g>
</svg>
