<svg id="e03537a4-e004-4896-86b5-ec192d9df234" data-name="Layer 1" xmlns="http://www.w3.org/2000/svg" width="290" height="320" viewBox="0 0 290 320">
  <defs>
    <style>
      .a335b35b-885c-4645-8402-e64472da5028 {
        fill: #24803f;
      }

      .a335b35b-885c-4645-8402-e64472da5028, .a55696fe-433b-49c0-b34b-128eabd60291, .b4170663-4a2f-479a-937d-e2eabc297f38, .b594825b-ec37-4675-9fa4-5614bef4891b, .b6283ec5-5ab7-4308-ad5b-3ba63cd3327e, .b8c8e01d-497f-4a89-bbce-633ca3b16139, .e252e035-b62d-461c-a0f4-f3d04716a449, .e70339d3-abcf-41d6-b4a4-d1a648a9fe48, .e9e2fb4d-623a-45dd-a066-1883fa000839, .f996faac-2d37-46d2-b072-292872cf9962, .f9c91c85-8663-4364-adee-ca0cc74ad512, .fea78288-8de7-42bb-bba4-52398f1f627d {
        fill-rule: evenodd;
      }

      .b8c8e01d-497f-4a89-bbce-633ca3b16139, .e252e035-b62d-461c-a0f4-f3d04716a449 {
        fill: #267f3f;
      }

      .b8c8e01d-497f-4a89-bbce-633ca3b16139 {
        stroke: #20441f;
      }

      .a55696fe-433b-49c0-b34b-128eabd60291, .b4170663-4a2f-479a-937d-e2eabc297f38, .b8c8e01d-497f-4a89-bbce-633ca3b16139, .f996faac-2d37-46d2-b072-292872cf9962 {
        stroke-miterlimit: 10;
      }

      .e9e2fb4d-623a-45dd-a066-1883fa000839 {
        fill: #cb862a;
      }

      .f9c91c85-8663-4364-adee-ca0cc74ad512 {
        fill: #8a5f25;
      }

      .b594825b-ec37-4675-9fa4-5614bef4891b {
        fill: #e9a322;
      }

      .a55696fe-433b-49c0-b34b-128eabd60291, .e70339d3-abcf-41d6-b4a4-d1a648a9fe48, .f996faac-2d37-46d2-b072-292872cf9962 {
        fill: #36ae4a;
      }

      .f996faac-2d37-46d2-b072-292872cf9962 {
        stroke: #1d6131;
      }

      .a55696fe-433b-49c0-b34b-128eabd60291, .f996faac-2d37-46d2-b072-292872cf9962 {
        stroke-width: 2px;
      }

      .a55696fe-433b-49c0-b34b-128eabd60291 {
        stroke: #1a8240;
      }

      .bba39e61-02f7-408d-a998-6a1f00df79e9 {
        fill: #279a47;
      }

      .fea78288-8de7-42bb-bba4-52398f1f627d {
        fill: #299546;
      }

      .b4170663-4a2f-479a-937d-e2eabc297f38, .b6283ec5-5ab7-4308-ad5b-3ba63cd3327e {
        fill: #65bb4a;
      }

      .b4170663-4a2f-479a-937d-e2eabc297f38 {
        stroke: #278c43;
      }

      .a72d5c11-7a4d-4afd-8e41-8701ae122a5f {
        fill: #7c4723;
      }
    </style>
  </defs>
  <g>
    <g>
      <path class="a335b35b-885c-4645-8402-e64472da5028" d="M49.44,73.45c-9.16-8.63-51.06,16.3-26,68.51,5.64,11.76,10.45,17.43,12.29,12.19a40.77,40.77,0,0,0,1.79-11.46s-.09,21.13,8.09,22.57,6-14.24,6-14.24,2.13,22.43,12.78,23.73,6-14.24,6-14.24,3.32,25.34,14.5,30,4.07-16.27,4.07-16.27S96.07,190.49,103,191s-8.76-23.59-22-46.56c-24.51-42.39-21.71-62.74-31.56-71Z"/>
      <path class="b8c8e01d-497f-4a89-bbce-633ca3b16139" d="M151.66,193.89c2.32,1.23,54.9,39.72,80.36,45.74,0,0,19.42,11.5,1.07,11.56,0,0,33.32,17.36,10.28,22.87s-30.93-11.13-30.93-11.13,5.76,18.48-3.21,10.13-59.65-59.76-72.07-84.45S151.66,193.89,151.66,193.89Z"/>
      <g>
        <g>
          <path class="e9e2fb4d-623a-45dd-a066-1883fa000839" d="M66.51,169.18a33,33,0,0,0-9.46-1.56c-3.21.1-6.54,1.27-8.52,3.79a5.15,5.15,0,0,0-1.22,3,3,3,0,0,0,1.45,2.75,3.76,3.76,0,0,0,3.88-.71c1.11-.85,2-2,3.07-2.83,2.7-2,6.53-1.87,9.69-.68s5.92,3.24,8.89,4.87c1,.55,2.37,1,3.26.29a2.18,2.18,0,0,0,.67-1.35c.37-2.23-1.33-4.32-3.23-5.55-3.85-2.49-8.66-2.81-13.24-3.05"/>
          <path class="f9c91c85-8663-4364-adee-ca0cc74ad512" d="M42.68,177.09a1.75,1.75,0,0,0-.3.67,1.11,1.11,0,0,0,1,1.08,3,3,0,0,0,1.58-.39c1.56-.74,10-5.37,6.84-7.51C48.89,168.91,43.88,175.29,42.68,177.09Z"/>
        </g>
        <g>
          <path class="b594825b-ec37-4675-9fa4-5614bef4891b" d="M70.6,172.14a33.33,33.33,0,0,0-9.46-1.56c-3.21.1-6.54,1.27-8.52,3.79a5.18,5.18,0,0,0-1.22,3,3,3,0,0,0,1.45,2.75,3.74,3.74,0,0,0,3.88-.71c1.11-.85,2-2,3.07-2.83,2.7-2,6.53-1.86,9.69-.68s5.92,3.24,8.89,4.87c1,.56,2.37,1,3.26.29a2.18,2.18,0,0,0,.67-1.34c.36-2.24-1.33-4.32-3.23-5.56-3.85-2.49-8.66-2.8-13.24-3.05"/>
          <path class="f9c91c85-8663-4364-adee-ca0cc74ad512" d="M46.77,180.06a1.63,1.63,0,0,0-.3.67,1.1,1.1,0,0,0,1,1.07,2.88,2.88,0,0,0,1.58-.39c1.56-.74,10-5.36,6.84-7.51C53,171.87,48,178.25,46.77,180.06Z"/>
        </g>
        <g>
          <path class="b594825b-ec37-4675-9fa4-5614bef4891b" d="M74.15,176.6A33.33,33.33,0,0,0,64.69,175c-3.21.1-6.54,1.27-8.52,3.79a5.18,5.18,0,0,0-1.22,3,3,3,0,0,0,1.45,2.75,3.74,3.74,0,0,0,3.88-.71c1.11-.85,1.95-2,3.07-2.83,2.7-2,6.53-1.86,9.69-.68s5.92,3.24,8.89,4.87c1,.56,2.37,1,3.26.29a2.18,2.18,0,0,0,.67-1.34c.36-2.24-1.33-4.32-3.23-5.56-3.85-2.49-8.66-2.8-13.24-3.05"/>
          <path class="f9c91c85-8663-4364-adee-ca0cc74ad512" d="M50.32,184.52a1.63,1.63,0,0,0-.3.67,1.1,1.1,0,0,0,1,1.07,2.88,2.88,0,0,0,1.58-.39c1.55-.74,9.94-5.36,6.84-7.51C56.52,176.33,51.52,182.71,50.32,184.52Z"/>
        </g>
      </g>
      <path class="f996faac-2d37-46d2-b072-292872cf9962" d="M261.2,317.44c-35.62,5.1-45.39-20.94-45.53-21.31.09.45,6.07,28.83-6.31,15-10.72-12-64.83-73-95.29-114.75-5-6.85-9.37-13.18-12.8-18.69-22.36-35.88,31.59,4.75,31.59,4.75,1.16.75,10.87,9.17,24.64,20.38,26,21.16,66.49,52.27,91.28,60.62,0,0,27.94,20.24,0,17.75C248.78,281.16,297.07,312.3,261.2,317.44Z"/>
      <path class="e252e035-b62d-461c-a0f4-f3d04716a449" d="M157.5,202.79,144,200.6c-9.6-1.56-20.06-4.66-30-4.25-5-6.85-9.37-13.18-12.8-18.69-22.36-35.88,31.59,4.75,31.59,4.75C134,183.16,143.73,191.58,157.5,202.79Z"/>
      <path class="a55696fe-433b-49c0-b34b-128eabd60291" d="M117.6,184.85c0,4.33-22.66,8.75-31.16,4.28s2.32-10.28-4.13-9.42c-1.39.18-2.77.3-4.12.36-31.8,1.43-54-30-55.86-51.14-.12-1.4-.53-5.26-.55-9.45V119a72.4,72.4,0,0,1,8.66-35.37,132.08,132.08,0,0,1,9.81-15.48q2.13-3,4.46-6c-7.38-14.85-3-13.87-8.12-23.2s-20.65-24-11.28-30.14c28.48-18.87,65.22,5.71,69.28,19.52,4.41,15,9.24,47.46,12,54.16,1.34,3.31,31.81,78.47,42.71,90.93,6.08,6.95,9.88,12,11.92,15.7C173.93,211.87,117.6,177.84,117.6,184.85Z"/>
      <ellipse class="bba39e61-02f7-408d-a998-6a1f00df79e9" cx="52.32" cy="26.6" rx="18.11" ry="20.84"/>
      <path class="fea78288-8de7-42bb-bba4-52398f1f627d" d="M98.68,66.76c-9.88-8.48-54.5,20.24-26,69.91,6.42,11.18,7.34,16.06,9,11.31a33.13,33.13,0,0,0,1.24-10.53s1,19.57,9.51,21.33S97.8,145.9,97.8,145.9s3.38,20.9,14.41,22.65,5.41-12.87,5.41-12.87,4.75,23.65,16.51,28.59,3.32-14.86,3.32-14.86,8.22,15.39,15.43,16.24-10.25-22.3-25.14-44.28C100.29,100.82,102.11,82.11,91.54,74Z"/>
      <path class="e70339d3-abcf-41d6-b4a4-d1a648a9fe48" d="M80.27,40.08a84.51,84.51,0,0,1-13.15,8.57,28.16,28.16,0,0,1-15.19,3.12c-3.18-.35-12.45-1.11-12.3-5.67.13-4.12,7.72-6.18,10.8-7.19A43.61,43.61,0,0,1,65.6,36.79a41.06,41.06,0,0,1,7.49,1C74,37.94,79.91,40.34,80.27,40.08Z"/>
      <path class="b4170663-4a2f-479a-937d-e2eabc297f38" d="M100.81,67.5c-9.16-8.64-51.06,16.3-26,68.5,5.63,11.76,10.45,17.44,12.28,12.2a41,41,0,0,0,1.8-11.47s-.1,21.13,8.08,22.57,6-14.24,6-14.24,2.13,22.44,12.79,23.73,6-14.24,6-14.24,3.32,25.35,14.51,30,4.06-16.27,4.06-16.27,7.16,16.21,14.14,16.73-8.76-23.59-22-46.57c-24.51-42.38-21.71-62.74-31.56-71Z"/>
      <path class="a72d5c11-7a4d-4afd-8e41-8701ae122a5f" d="M99.33,50.12a26.66,26.66,0,0,1-3.71,8.19,35.55,35.55,0,0,1-5.93,6.92,42.22,42.22,0,0,1-15.89,9,54.89,54.89,0,0,1-8.93,1.93c-1.51.14-3,.36-4.53.37l-2.27.09-2.26-.06a63.17,63.17,0,0,1-17.63-3,171.19,171.19,0,0,0,17.57-.15c2.88-.19,5.73-.58,8.56-1a70,70,0,0,0,8.29-2,51.8,51.8,0,0,0,15.11-7.58,46,46,0,0,0,6.37-5.73A38.37,38.37,0,0,0,99.33,50.12Z"/>
      <path class="b6283ec5-5ab7-4308-ad5b-3ba63cd3327e" d="M79.31,178.85C47.52,180.28,25.7,150,23.88,128.93c-.12-1.4-.53-5.26-.55-9.45V119A72.4,72.4,0,0,1,32,83.59C39.2,81.43,50.49,87,49,102c-2.09,21,2.54,60.84,26.85,75.78C77.33,178.71,78.26,178.12,79.31,178.85Z"/>
      <polygon class="fea78288-8de7-42bb-bba4-52398f1f627d" points="121.03 188.16 248.78 281.16 120.03 193.37 121.03 188.16"/>
      <polygon class="fea78288-8de7-42bb-bba4-52398f1f627d" points="121.03 191.84 215.67 296.13 114.07 196.35 121.03 191.84"/>
    </g>
    <g>
      <g>
        <path class="e9e2fb4d-623a-45dd-a066-1883fa000839" d="M74.26,179.24a27.2,27.2,0,0,0-7.82-.71,9.13,9.13,0,0,0-6.72,3.6,4.23,4.23,0,0,0-.82,2.5,2.46,2.46,0,0,0,1.35,2.16,3,3,0,0,0,3.12-.81c.85-.75,1.48-1.74,2.33-2.48,2.09-1.82,5.22-1.91,7.87-1.13s5,2.3,7.54,3.45c.86.39,2,.7,2.67,0a1.75,1.75,0,0,0,.47-1.13c.17-1.85-1.33-3.45-3-4.34-3.29-1.81-7.23-1.78-11-1.71"/>
        <path class="f9c91c85-8663-4364-adee-ca0cc74ad512" d="M55.29,187.11a1.28,1.28,0,0,0-.21.56.9.9,0,0,0,.9.82,2.42,2.42,0,0,0,1.26-.41c1.22-.7,7.8-5,5.14-6.53S56.16,185.56,55.29,187.11Z"/>
      </g>
      <g>
        <path class="b594825b-ec37-4675-9fa4-5614bef4891b" d="M77.77,181.42a27.17,27.17,0,0,0-7.82-.71,9.16,9.16,0,0,0-6.72,3.59,4.26,4.26,0,0,0-.82,2.51A2.47,2.47,0,0,0,63.76,189a3.07,3.07,0,0,0,3.12-.81c.85-.76,1.48-1.74,2.33-2.49,2.09-1.81,5.22-1.91,7.87-1.13s5,2.3,7.54,3.45c.86.4,2,.71,2.67,0a1.77,1.77,0,0,0,.47-1.14c.17-1.85-1.33-3.44-3-4.34-3.29-1.8-7.23-1.78-11-1.71"/>
        <path class="f9c91c85-8663-4364-adee-ca0cc74ad512" d="M58.8,189.28a1.31,1.31,0,0,0-.21.57.9.9,0,0,0,.9.81,2.33,2.33,0,0,0,1.26-.41c1.23-.69,7.8-5,5.14-6.53S59.67,187.74,58.8,189.28Z"/>
      </g>
      <g>
        <path class="b594825b-ec37-4675-9fa4-5614bef4891b" d="M80.92,184.85a27.1,27.1,0,0,0-7.81-.71,9.12,9.12,0,0,0-6.72,3.59,4.23,4.23,0,0,0-.82,2.51,2.47,2.47,0,0,0,1.35,2.16,3.07,3.07,0,0,0,3.12-.81c.85-.76,1.47-1.74,2.33-2.49,2.09-1.81,5.22-1.91,7.87-1.13s5,2.3,7.54,3.45c.86.4,2,.71,2.67.05a1.77,1.77,0,0,0,.47-1.14c.17-1.85-1.33-3.45-3-4.34-3.29-1.8-7.23-1.78-11-1.71"/>
        <path class="f9c91c85-8663-4364-adee-ca0cc74ad512" d="M62,192.71a1.44,1.44,0,0,0-.2.57.9.9,0,0,0,.9.81,2.45,2.45,0,0,0,1.26-.41c1.22-.7,7.79-5,5.14-6.53S62.83,191.17,62,192.71Z"/>
      </g>
    </g>
  </g>
</svg>
