<svg id="babd4b6c-71a9-4140-a15a-a44bb962791a" data-name="Layer 1" xmlns="http://www.w3.org/2000/svg" width="190" height="240" viewBox="0 0 190 240">
  <defs>
    <style>
      .afd48636-7390-4c4b-938e-631b19919ee1, .b21fec5b-791e-4e58-b9aa-c443cab55b5d {
        fill: #ffe309;
      }

      .afd48636-7390-4c4b-938e-631b19919ee1, .b82752ec-652c-4319-981a-5ac68692abfa {
        stroke: #665608;
      }

      .afd48636-7390-4c4b-938e-631b19919ee1, .b21fec5b-791e-4e58-b9aa-c443cab55b5d, .b5456d30-14be-4c3c-afcc-a1497879544b, .b82752ec-652c-4319-981a-5ac68692abfa {
        stroke-miterlimit: 10;
      }

      .afd48636-7390-4c4b-938e-631b19919ee1, .b21fec5b-791e-4e58-b9aa-c443cab55b5d, .b82752ec-652c-4319-981a-5ac68692abfa {
        stroke-width: 0.75px;
      }

      .b21fec5b-791e-4e58-b9aa-c443cab55b5d {
        stroke: #493c05;
      }

      .eb831aa1-af9a-4ac4-b198-67e248bda716 {
        fill: #ecc516;
      }

      .b5456d30-14be-4c3c-afcc-a1497879544b {
        fill: #532900;
        stroke: #3a1c03;
      }

      .a8aaed4d-c741-4b08-8651-41a9fcf3e033 {
        fill: #681a1a;
      }

      .a98a4a94-cd4b-4481-869b-741a9e7fe921 {
        fill: #ef7089;
      }

      .ba5db070-4932-46fd-b49f-796144fc0bb9 {
        fill: #ff5763;
      }

      .ac978dbd-c7a3-4bdb-bbb0-e48c4854127d {
        fill: #fff;
      }

      .fdc69932-64cf-4267-bca7-dffbb0039c95 {
        fill: #ef304c;
      }

      .b441bff4-a78f-4327-a660-b29edd813eb5 {
        fill: #ffa979;
      }

      .b82752ec-652c-4319-981a-5ac68692abfa {
        fill: none;
      }
    </style>
  </defs>
  <g>
    <g>
      <g>
        <path class="afd48636-7390-4c4b-938e-631b19919ee1" d="M90.57,203.19s3.8,5.11-2.2,8.87-11.76,4.12-9.47,10.77,5.38,13.61,12,11.31,2.12-11,7.3-12.66,13.69-7.17,8.11-18.28S90.57,203.19,90.57,203.19Z"/>
        <g>
          <path class="afd48636-7390-4c4b-938e-631b19919ee1" d="M128.07,144.88s-.91,5.05,19.65,20.43c0,0,8.21,6.47,13.86,8.43s13.29,8.53,13.74,12.47-2.06,8-6.07,3l-1.92-6.67s5,5.62-2.28,10-3.31-9.13-3.31-9.13l-2.19,7.79s-6.89,1.31-4.59-9.9c0,0-4.3,1.63-19.11-6.66s-26.2-22.06-26.2-22.06Z"/>
          <path class="b21fec5b-791e-4e58-b9aa-c443cab55b5d" d="M154.77,152.66c-.6,9.6-2.67,17.93-6.47,25a46,46,0,0,1-11.1,13.65h0a57.7,57.7,0,0,1-11.42,7.44c-.76.39-1.55.77-2.33,1.11a62.41,62.41,0,0,1-18.06,5c-12.32,1.49-23.92-.53-32.6-2.85-2.08-.54-4-1.12-5.68-1.65-12.82-4-21.44-1.39-21.44-1.39,5.42-5.11,6.61-13.25,8.23-22,1.44-8,3.23-16.53,8.9-23.73.29-.38.58-.75.9-1.13a40.72,40.72,0,0,1,6.3-5.9,54.22,54.22,0,0,1,11.32-6.56,2.15,2.15,0,0,1,.32-.13,73,73,0,0,1,11.54-3.85,58.91,58.91,0,0,1,7.17-1.38c15.22-1.6,18-13.23,18-13.23l36.44,19.63A105.55,105.55,0,0,1,154.77,152.66Z"/>
          <path class="eb831aa1-af9a-4ac4-b198-67e248bda716" d="M154,151c-6.55,2.8-14.38,3.71-23.84,3.71-19.59,0-35.65-7.32-37-16.63a58.55,58.55,0,0,1,9.73-3.55,45,45,0,0,1,6-1.27c12.83-1.48,15.2-12.21,15.2-12.21l30.74,18.12C155,143.06,154.2,147.54,154,151Z"/>
          <path class="b5456d30-14be-4c3c-afcc-a1497879544b" d="M73.39,201.6c-2.08-.55-4.6-.68-6.3-1.21-12.82-4-21.44-1.39-21.44-1.39,5.42-5.11,7.1-14.17,8.72-22.94C55.23,182.62,59.06,194.35,73.39,201.6Z"/>
          <path class="b5456d30-14be-4c3c-afcc-a1497879544b" d="M148.3,177.7a46,46,0,0,1-11.1,13.65h0c-7.74,0-22.52-2.48-39.86-17.79-10.66-9.41-14.81-22.18-16-33.89a74.59,74.59,0,0,1,11.86-4c1.08,9.23,5.21,23.66,19.78,32.87C127.23,177.58,140.44,178.36,148.3,177.7Z"/>
          <path class="b5456d30-14be-4c3c-afcc-a1497879544b" d="M123.43,199.9a62.41,62.41,0,0,1-18.06,5c-9-1.35-21.45-5-30.47-14.71C63.85,178.3,62.22,164.8,62.78,153.26c.29-.38.58-.75.9-1.13a40.72,40.72,0,0,1,6.3-5.9c.24,9,2.6,24.1,14.72,34.35C99,192.7,116.59,198.13,123.43,199.9Z"/>
          <g>
            <path class="afd48636-7390-4c4b-938e-631b19919ee1" d="M108.74,69.83s-9.61.2-21.43-18.62S85.51,9.15,96.52,7.75s11.42,8,1.61,15.42S89.52,56.22,111.54,67C111.54,67,124.16,77,108.74,69.83Z"/>
            <path class="afd48636-7390-4c4b-938e-631b19919ee1" d="M138,67s-2.8-17.42.6-29S153.4.74,170.42,6.15c0,0,5,3.41,3,7.81s-6.41,5.81-10.82,3.41S134.37,35.19,142.18,66C142.18,66,141.58,74.64,138,67Z"/>
            <g>
              <path class="afd48636-7390-4c4b-938e-631b19919ee1" d="M185,122.5c.51,21.19-17.48,33.8-39.32,38.74a.1.1,0,0,1-.07,0,102,102,0,0,1-22.2,2.4c-30.26,0-46-15.92-44.29-46.56,1.24-23,14.18-45.3,35.46-52.62a47,47,0,0,1,15.3-2.5C160.15,62,184.24,91.11,185,122.5Z"/>
              <path class="eb831aa1-af9a-4ac4-b198-67e248bda716" d="M147.3,160.38a102.56,102.56,0,0,1-22.2,2.38c-30.26,0-46-15.77-44.29-46.14C82.05,93.8,95,71.74,116.27,64.48c-9.26,6.6-26.52,22.83-25.86,51.84C91.26,154,122.06,163.63,147.3,160.38Z"/>
              <g>
                <g>
                  <g>
                    <g>
                      <path class="a8aaed4d-c741-4b08-8651-41a9fcf3e033" d="M163.81,127s0,10.07-4.85,17.65a17.79,17.79,0,0,1-5,5.33c-7.78,5.33-17.79,4.95-24.82-4.14-.17-.19-.3-.39-.46-.6a35,35,0,0,1-4.49-8.63s18.47,2.51,34.06-6A40.09,40.09,0,0,0,163.81,127Z"/>
                      <path class="a98a4a94-cd4b-4481-869b-741a9e7fe921" d="M163.84,127a25.85,25.85,0,0,1-.1,3.43c-.1,1.12-.22,2.24-.41,3.36a37.09,37.09,0,0,1-1.66,6.6,25.94,25.94,0,0,1-3.2,6.07,17.51,17.51,0,0,1-5.07,4.74A18.31,18.31,0,0,1,140,153.93a17.49,17.49,0,0,1-6.47-2.73,22.94,22.94,0,0,1-5.08-4.8l.05,0a23,23,0,0,1-1.59-2.27c-.48-.77-.93-1.55-1.34-2.35a38.92,38.92,0,0,1-2.14-4.92l-.46-1.27,1.35.16a63.88,63.88,0,0,0,10.27.28,66.53,66.53,0,0,0,10.24-1.2,56.84,56.84,0,0,0,9.9-2.93c.82-.3,1.58-.7,2.37-1s1.58-.73,2.33-1.15A47.46,47.46,0,0,0,163.84,127Zm-.05.09a33.38,33.38,0,0,1-4.26,2.93c-.75.45-1.52.85-2.31,1.23s-1.54.81-2.35,1.14a52.45,52.45,0,0,1-9.93,3.18,64.39,64.39,0,0,1-10.35,1.4,62.67,62.67,0,0,1-10.43-.22l.09-.12a40.22,40.22,0,0,0,2.12,4.8,29.56,29.56,0,0,0,2.82,4.39h0A22.47,22.47,0,0,0,134,150.4a16.52,16.52,0,0,0,6.12,2.63A17.74,17.74,0,0,0,153,150.49c3.92-2.25,6.54-6.2,8.18-10.34A41.38,41.38,0,0,0,163.79,127.05Z"/>
                    </g>
                    <path class="ba5db070-4932-46fd-b49f-796144fc0bb9" d="M144,142.24c7.38-.82,13.83,3.29,10.4,7.55a8.91,8.91,0,0,1-3.61,2.46c-15,3-20.23-3.9-20.87-8.94,1.73-.85,4-.62,9.5-.29A35.63,35.63,0,0,1,144,142.24Z"/>
                    <path class="a8aaed4d-c741-4b08-8651-41a9fcf3e033" d="M138.41,141.94a13.64,13.64,0,0,1,6.79,9.68s-2.75-6.65-9.11-9.39Z"/>
                    <path class="ac978dbd-c7a3-4bdb-bbb0-e48c4854127d" d="M148.92,143.91a35.58,35.58,0,0,1-9.14,2.34,14.43,14.43,0,0,1-15.15-9.15l0-.1s18,2.69,33.62-5.78C159.36,135.47,158.14,140.22,148.92,143.91Z"/>
                  </g>
                  <path class="fdc69932-64cf-4267-bca7-dffbb0039c95" d="M121.4,131.13a4.65,4.65,0,0,1,1,1.75,4.89,4.89,0,0,1,.18,2.09,3.48,3.48,0,0,1-1,1.89,4.16,4.16,0,0,1-.86.6,5.2,5.2,0,0,1-1,.31l0,0a4.88,4.88,0,0,0,1.56-1.13,3.34,3.34,0,0,0,.82-1.71,6.12,6.12,0,0,0-.74-3.74Z"/>
                  <path class="fdc69932-64cf-4267-bca7-dffbb0039c95" d="M166.92,128.63a3.87,3.87,0,0,1-1.67-.43,5.38,5.38,0,0,1-1.41-1.06,4.89,4.89,0,0,1-.9-1.52,3.78,3.78,0,0,1-.19-1.73h.05a5.57,5.57,0,0,0,1.41,2.91,6.33,6.33,0,0,0,2.72,1.78Z"/>
                </g>
                <ellipse class="b441bff4-a78f-4327-a660-b29edd813eb5" cx="108.92" cy="130.69" rx="8.56" ry="6.01"/>
                <ellipse class="b441bff4-a78f-4327-a660-b29edd813eb5" cx="174.93" cy="114.54" rx="8.56" ry="6.01" transform="translate(-31.27 79.87) rotate(-23.67)"/>
              </g>
            </g>
          </g>
          <path class="afd48636-7390-4c4b-938e-631b19919ee1" d="M66.41,189.64a4.9,4.9,0,0,1,8.68-.61,10.77,10.77,0,0,1,1.7,7.4c-1,6.14-4.59,13.88-12.13,16.08s-6.65,8.94-6.51,13.27-6.39,8.28-11.19.88c0,0-6.88-9.61-1.7-19.23,0,0,1.34-4.66,12.51-8C64.6,197.42,65,193,66.41,189.64Z"/>
        </g>
      </g>
      <path class="afd48636-7390-4c4b-938e-631b19919ee1" d="M99.67,162.89s-5.78,22.55,13.3,24.86c11.22,1.36,16.89,2.41,19.94,1.16,4.28-1.76,13.78,3.46,14.74,6.93,0,0,2.32,6.94-2.89,5.2,0,0-.57,10.41-15.6,5.21,0,0-2.4-3.27,2.8-7.46,0,0-46.3,9.34-51.51-29.54C80.45,169.25,87.25,155.52,99.67,162.89Z"/>
      <path class="b82752ec-652c-4319-981a-5ac68692abfa" d="M135.37,201.33s4.76-3-6.66-2.43"/>
    </g>
    <line class="afd48636-7390-4c4b-938e-631b19919ee1" x1="144.76" y1="201.04" x2="144.21" y2="196.73"/>
  </g>
</svg>
