<svg id="a34f4302-a9b7-4d60-8117-a94dc9da9c8b" data-name="Layer 1" xmlns="http://www.w3.org/2000/svg" width="51.83" height="29.18" viewBox="0 0 51.83 29.18">
  <defs>
    <style>
      .bdde8eee-4e18-42ec-902e-85761907960c, .fa7350c4-d67f-4c3a-b39f-166f41932b0f {
        fill: #fff;
      }

      .b20f7c9b-314b-4464-aea5-2c7c402e00ec {
        fill: #724009;
      }

      .e19aafb2-a930-44aa-a64e-1100135635c6 {
        fill: #231f20;
      }

      .fa7350c4-d67f-4c3a-b39f-166f41932b0f {
        opacity: 0.53;
      }

      .beacce05-6f95-4d36-bb51-e7c350fc941b {
        fill: #846e2f;
        stroke: #8e7717;
        stroke-miterlimit: 10;
      }
    </style>
  </defs>
  <g>
    <g>
      <g>
        <g>
          <ellipse class="bdde8eee-4e18-42ec-902e-85761907960c" cx="12.22" cy="14.27" rx="11.55" ry="13.6"/>
          <path class="b20f7c9b-314b-4464-aea5-2c7c402e00ec" d="M.71,14.27C.54,20.7,5.36,27.74,12.22,27.62c10.62-.34,14.3-14.89,8.09-22.26C12.65-3.93.64,3.53.71,14.27Zm-.1,0C.27,5.55,8.38-3.19,17.2,1.41c11.09,5.93,8.42,26.29-5,26.71C5.12,28,.53,20.81.61,14.27Z"/>
        </g>
        <path class="e19aafb2-a930-44aa-a64e-1100135635c6" d="M23.51,13.63c-.26,4.26-3,7.47-6.12,7.16s-5.42-4-5.15-8.29,3-7.48,6.13-7.16S23.78,9.37,23.51,13.63Z"/>
        <g>
          <ellipse class="bdde8eee-4e18-42ec-902e-85761907960c" cx="40.9" cy="15.53" rx="10.26" ry="13.05"/>
          <path class="b20f7c9b-314b-4464-aea5-2c7c402e00ec" d="M30.69,15.53c-.14,5.84,3.8,12.82,10.21,12.8C50.67,27.71,53.31,14,48.16,7.15c-7-9.38-17.62-1.45-17.47,8.38Zm-.1,0c-.36-7.94,6.56-17,14.94-12.25,8.13,5.17,8,19.22-.12,24.3-8.15,4.62-15.07-4.31-14.82-12Z"/>
        </g>
        <path class="e19aafb2-a930-44aa-a64e-1100135635c6" d="M50.94,14.92c-.24,4.09-2.67,7.16-5.44,6.87s-4.82-3.87-4.58-8S43.59,6.66,46.37,7,51.18,10.83,50.94,14.92Z"/>
      </g>
      <circle class="bdde8eee-4e18-42ec-902e-85761907960c" cx="13.4" cy="10" r="2.23"/>
      <circle class="fa7350c4-d67f-4c3a-b39f-166f41932b0f" cx="17.88" cy="18.08" r="1.68"/>
      <circle class="fa7350c4-d67f-4c3a-b39f-166f41932b0f" cx="46.48" cy="19.13" r="1.68"/>
      <circle class="bdde8eee-4e18-42ec-902e-85761907960c" cx="42.21" cy="10" r="1.86"/>
    </g>
    <path class="beacce05-6f95-4d36-bb51-e7c350fc941b" d="M.71,13.06S10.48,23.25,24,14.45c0,0-.47-9.79-7.47-12.79C16.55,1.66,4.86-4.53.71,13.06Z"/>
    <path class="beacce05-6f95-4d36-bb51-e7c350fc941b" d="M30.64,14.27s10.14,10.11,20.52-.75c0,0-1.45-12.22-12-11C39.13,2.48,31.73,3.88,30.64,14.27Z"/>
  </g>
</svg>
