<svg id="f89ed06d-c4dd-4e6c-8269-951894f6b140" data-name="Layer 1" xmlns="http://www.w3.org/2000/svg" width="230" height="270" viewBox="0 0 230 270">
  <defs>
    <style>
      .ab629c8c-f3f9-4509-b1ee-019802546a3c, .f1467a0c-4018-46db-894c-11ee4c7f6e51 {
        fill: #ffe309;
        stroke-width: 0.75px;
      }

      .f1467a0c-4018-46db-894c-11ee4c7f6e51 {
        stroke: #665608;
      }

      .a2f831c5-62b1-4c5f-9ce6-a120909330b9, .ab629c8c-f3f9-4509-b1ee-019802546a3c, .f1467a0c-4018-46db-894c-11ee4c7f6e51 {
        stroke-miterlimit: 10;
      }

      .ab629c8c-f3f9-4509-b1ee-019802546a3c {
        stroke: #493c05;
      }

      .ecd35bfb-c2e7-4f86-8703-31c178acdf6a {
        fill: #ecc516;
      }

      .a2f831c5-62b1-4c5f-9ce6-a120909330b9 {
        fill: #532900;
        stroke: #3a1c03;
      }

      .e24403f9-913d-4baa-b302-59cf0c0c5704 {
        fill: #681a1a;
      }

      .fe1e6f56-1663-482f-bf1c-1244514baf69 {
        fill: #ef7089;
      }

      .bcb88981-ece1-4db4-9000-60f9f41de365 {
        fill: #ff5763;
      }

      .f8562375-a802-4936-9ef1-408cc6a7c9d7 {
        fill: #fff;
      }

      .b100c3f2-ac37-4f98-af8f-5e88ee82d1fa {
        fill: #ef304c;
      }

      .b6904bcf-7341-431d-9caa-a0028b5ecb3f {
        fill: #ffa979;
      }
    </style>
  </defs>
  <g>
    <path class="f1467a0c-4018-46db-894c-11ee4c7f6e51" d="M81.16,224.67s-6.85-.16-6.41,7.45,3.7,12.87-3.57,15-15.28,3.75-17.4-3.51,8.35-8.72,6.56-14.29-2.22-16.47,11-18.47S81.16,224.67,81.16,224.67Z"/>
    <g>
      <path class="f1467a0c-4018-46db-894c-11ee4c7f6e51" d="M125,69.36s10.22-1.55,19.29-23.66S138.44.81,126.51,1.34,115.88,11.92,127.64,18s15.18,33.43-6.18,48.93C121.46,66.91,109.93,79.83,125,69.36Z"/>
      <path class="f1467a0c-4018-46db-894c-11ee4c7f6e51" d="M90.23,73.2s1.71-18.9-2.81-31.11S68.75,3.24,50.89,10.31c0,0-5.12,4-2.64,8.6s7.31,5.76,11.85,2.85,31.62,17,25.54,50.68C85.64,72.44,86.93,81.63,90.23,73.2Z"/>
      <path class="f1467a0c-4018-46db-894c-11ee4c7f6e51" d="M75.64,152S72,156.1,45.32,148.81c0,0-10.9-2.71-16.3-6.2s-18.16-9-21.8-6.79-3.1,6.59,3.8,6.69l6.7,1.05s-8.1-.56-7,8.55,9.93-3.23,9.93-3.23l-5.16,7s3.44,6.72,11.43-2.64c0,0,1.45,4.73,18.27,11.82s36,7.67,36,7.67Z"/>
      <path class="ab629c8c-f3f9-4509-b1ee-019802546a3c" d="M73.94,144.13c-5.78,8.58-9.45,17-10.87,25.59a49.28,49.28,0,0,0,.53,18.91l0,0a62.53,62.53,0,0,0,4.87,13.82c.4.83.82,1.66,1.27,2.47A66.55,66.55,0,0,0,81.9,221c9.53,9.35,20.75,15.21,29.67,18.91,2.13.9,4.14,1.65,5.93,2.32,13.56,5,19.2,12.83,19.2,12.83-1.27-7.9,3-15.62,7.39-24.16,4-7.77,8.06-16.21,7.94-26.07,0-.51,0-1,0-1.55a43.38,43.38,0,0,0-1.5-9.16,58.73,58.73,0,0,0-5.37-13,3.54,3.54,0,0,0-.19-.33A78.28,78.28,0,0,0,137.6,170a62.11,62.11,0,0,0-5.21-5.87c-11.93-11.32-6.72-23.08-6.72-23.08l-43.94-7.11A114.55,114.55,0,0,0,73.94,144.13Z"/>
      <path class="ecd35bfb-c2e7-4f86-8703-31c178acdf6a" d="M75.66,143.24c3.76,6.67,9.84,12.57,17.91,18.76,16.72,12.82,35.21,17.09,42.49,10.07a62.45,62.45,0,0,0-6-9.4,48.52,48.52,0,0,0-4.33-5c-10-9.66-5-20.37-5-20.37L82.7,132.6C80,135.79,77.77,140.13,75.66,143.24Z"/>
      <path class="a2f831c5-62b1-4c5f-9ce6-a120909330b9" d="M111.34,239.14c2.12.89,4.37,2.43,6.16,3.1,13.56,5,19.2,12.83,19.2,12.83-1.27-7.9,3.22-16.72,7.58-25.26C139.25,234.83,128.31,242.33,111.34,239.14Z"/>
      <path class="a2f831c5-62b1-4c5f-9ce6-a120909330b9" d="M63.07,169.72a49.28,49.28,0,0,0,.53,18.91l0,0c6.6,5.06,20.84,12.61,45.65,10.91,15.25-1.05,27.15-9.23,35.85-18.43A78.93,78.93,0,0,0,137.6,170c-6.95,7.17-19.93,16.77-38.39,15.09C81.12,183.41,69.34,175.44,63.07,169.72Z"/>
      <path class="a2f831c5-62b1-4c5f-9ce6-a120909330b9" d="M69.76,204.94A66.55,66.55,0,0,0,81.9,221c8.52,4.72,21.55,9.8,35.62,7.4,17.2-2.91,27.43-13.35,34.51-23.57,0-.51,0-1,0-1.55a43.38,43.38,0,0,0-1.5-9.16c-6.09,7.51-18,18.86-35.05,19.67C95.28,214.76,76.75,207.91,69.76,204.94Z"/>
      <g>
        <path class="f1467a0c-4018-46db-894c-11ee4c7f6e51" d="M44.44,129.45C46,152.2,66.53,163.91,90.4,167h.08a109.3,109.3,0,0,0,24,.36c32.41-3,47.62-21.62,42.79-54.26-3.63-24.54-19.7-47.09-43.21-52.8a50.31,50.31,0,0,0-16.63-1.16C65,62.19,42.12,95.77,44.44,129.45Z"/>
        <path class="ecd35bfb-c2e7-4f86-8703-31c178acdf6a" d="M88.57,166.26a109.93,109.93,0,0,0,24,.33c32.4-3,47.64-21.46,42.83-53.8-3.61-24.31-19.66-46.65-43.16-52.29,10.57,6.14,30.67,21.79,32.85,52.92C147.93,153.85,115.92,167.23,88.57,166.26Z"/>
        <g>
          <g>
            <g>
              <g>
                <path class="e24403f9-913d-4baa-b302-59cf0c0c5704" d="M67.56,132.17s1,10.79,7,18.42a19.26,19.26,0,0,0,5.9,5.21c8.86,4.92,19.54,3.53,26.16-6.91a7.91,7.91,0,0,0,.44-.68,37.78,37.78,0,0,0,4-9.69s-19.53,4.52-37.07-3A42.88,42.88,0,0,1,67.56,132.17Z"/>
                <path class="fe1e6f56-1663-482f-bf1c-1244514baf69" d="M67.59,132.22a44.1,44.1,0,0,0,4.48,13.58c2.21,4.19,5.39,8,9.7,9.88a21.59,21.59,0,0,0,6.68,1.93,16.76,16.76,0,0,0,12.84-3.94,23.38,23.38,0,0,0,4.54-5.26l0,0c.44-.67.92-1.51,1.34-2.32s.81-1.64,1.17-2.49a41.42,41.42,0,0,0,1.78-5.24l1,1a68.47,68.47,0,0,1-22.6.62,52.6,52.6,0,0,1-11-2.66c-.89-.29-1.74-.7-2.62-1s-1.73-.74-2.56-1.17A35.52,35.52,0,0,1,67.59,132.22Zm0-.09a50.1,50.1,0,0,0,5,2.7c.84.4,1.71.76,2.58,1.08s1.74.7,2.63,1a56,56,0,0,0,10.93,2.4,72,72,0,0,0,22.31-.84l.14,0,0,.14a41.24,41.24,0,0,1-1.79,5.37,31.53,31.53,0,0,1-2.6,5h0a24.34,24.34,0,0,1-4.76,5.46,18.24,18.24,0,0,1-6.36,3.45,19.28,19.28,0,0,1-14.13-1.48,18.22,18.22,0,0,1-5.78-4.33,27.33,27.33,0,0,1-4-6A39.89,39.89,0,0,1,69,139.28c-.35-1.16-.62-2.34-.88-3.52A27.54,27.54,0,0,1,67.54,132.13Z"/>
              </g>
              <path class="bcb88981-ece1-4db4-9000-60f9f41de365" d="M77.86,149.88c-2.06,3.38,1.14,5,3.29,6.23,8,4.62,19.61,2,25.53-7.71-2-1.24-5.42-2.1-11.31-1C95.37,147.41,84.3,144.12,77.86,149.88Z"/>
              <path class="f8562375-a802-4936-9ef1-408cc6a7c9d7" d="M85.2,148.79a38.2,38.2,0,0,0,10,1.6,15.53,15.53,0,0,0,15.3-11.31l0-.11s-19,4.67-36.56-2.85C73.17,140.79,75,145.75,85.2,148.79Z"/>
            </g>
            <path class="b100c3f2-ac37-4f98-af8f-5e88ee82d1fa" d="M113.43,132.38c-.05.36-.12.7-.14,1.05a5.66,5.66,0,0,0-.08,1,5.5,5.5,0,0,0,.19,1.91,3.46,3.46,0,0,0,.87,1.63,7.75,7.75,0,0,0,1.57,1.28l0,.05a5.28,5.28,0,0,1-1.81-1,3.68,3.68,0,0,1-1.1-1.79,5.66,5.66,0,0,1-.09-2.09,8,8,0,0,1,.56-2Z"/>
            <path class="b100c3f2-ac37-4f98-af8f-5e88ee82d1fa" d="M64.38,134.17c.47-.39.91-.76,1.32-1.15a8.14,8.14,0,0,0,1.1-1.26,6.38,6.38,0,0,0,.87-1.41,15.17,15.17,0,0,0,.67-1.62h0a6.89,6.89,0,0,1-.35,1.74,5.58,5.58,0,0,1-.84,1.58,6.84,6.84,0,0,1-2.8,2.16Z"/>
          </g>
          <ellipse class="b6904bcf-7341-431d-9caa-a0028b5ecb3f" cx="126.71" cy="130.65" rx="9.21" ry="6.46" transform="translate(-11.56 12.3) rotate(-5.32)"/>
          <ellipse class="b6904bcf-7341-431d-9caa-a0028b5ecb3f" cx="54.42" cy="119.94" rx="6.46" ry="9.21" transform="translate(-76.55 133.82) rotate(-71.65)"/>
        </g>
      </g>
      <path class="f1467a0c-4018-46db-894c-11ee4c7f6e51" d="M140.63,176.67s1.34-6.26-3.84-8.62-16.35,7.9-21.46,16-17,6.57-17,6.57-3.58-11-7.88-9.4.54,10,.54,10-6.92-2.45-8.93-8c0,0-4.32-1.56-3.56,4.76l4.59,5.16-5.28-4.75s-2.91,2.69,4.25,10.26,33.26,4.95,51-10.37C133.11,188.32,138.77,183.62,140.63,176.67Z"/>
      <path class="f1467a0c-4018-46db-894c-11ee4c7f6e51" d="M132.69,230.31a5.27,5.27,0,0,0-4.21-8.36,11.59,11.59,0,0,0-7.77,2.5c-5.12,4.31-10.3,11.87-8.19,20.05s-4.61,11.06-8.7,13.3-4.13,10.46,5.35,10.83c0,0,12.66,1.08,18.7-9,0,0,3.57-3.8.5-15.95C126.49,236.26,130.36,233.44,132.69,230.31Z"/>
    </g>
  </g>
</svg>
