<svg id="ee8c35f3-b553-4443-9146-435d3b444cc7" data-name="Layer 1" xmlns="http://www.w3.org/2000/svg" width="149.65" height="125.65" viewBox="0 0 149.65 125.65">
  <defs>
    <style>
      .bc67fe6f-7651-44f9-8eed-05b74b9e7257, .bfd83d54-48c8-47ce-b538-640bd78744b7 {
        fill: #fff;
      }

      .bfd83d54-48c8-47ce-b538-640bd78744b7 {
        stroke: #702840;
      }

      .bfd83d54-48c8-47ce-b538-640bd78744b7, .f6991e54-6985-457c-8924-4539ae0fe918 {
        stroke-miterlimit: 10;
        stroke-width: 0.75px;
      }

      .aa6df1eb-7bdb-4463-ac54-06bf1604314e {
        fill: #210a11;
      }

      .f6991e54-6985-457c-8924-4539ae0fe918 {
        fill: #ffe309;
        stroke: #665608;
      }
    </style>
  </defs>
  <g>
    <g>
      <g>
        <path class="bfd83d54-48c8-47ce-b538-640bd78744b7" d="M59.93,76.71a44.28,44.28,0,0,1-1.49,7c-4.26,14.21-15.23,23.9-26.64,22.52-11.64-1.41-19.87-13.85-20.06-29a41.67,41.67,0,0,1,.36-6.26C14.43,53,27,39.82,40.24,41.42S62.26,58.82,59.93,76.71Z"/>
        <ellipse class="aa6df1eb-7bdb-4463-ac54-06bf1604314e" cx="47.39" cy="73.2" rx="14.71" ry="10.92" transform="translate(-28.79 115.63) rotate(-86.19)"/>
        <ellipse class="bc67fe6f-7651-44f9-8eed-05b74b9e7257" cx="54.23" cy="70.09" rx="4.04" ry="3" transform="translate(-19.31 119.55) rotate(-86.19)"/>
      </g>
      <g>
        <path class="bfd83d54-48c8-47ce-b538-640bd78744b7" d="M124.06,83.62c-1.67,12.28-9.13,21.81-18.89,22.8-10.93,1.11-21-8.9-23.88-23A43.74,43.74,0,0,1,80.65,79c-1.5-16.34,7-30.57,19.08-31.79s23,11,24.52,27.38A39.48,39.48,0,0,1,124.06,83.62Z"/>
        <ellipse class="aa6df1eb-7bdb-4463-ac54-06bf1604314e" cx="113.5" cy="76.93" rx="9.93" ry="13.38" transform="translate(-10.51 18.44) rotate(-8.88)"/>
        <ellipse class="bc67fe6f-7651-44f9-8eed-05b74b9e7257" cx="118.99" cy="71.42" rx="2.72" ry="3.67" transform="translate(-9.6 19.22) rotate(-8.88)"/>
      </g>
      <path class="aa6df1eb-7bdb-4463-ac54-06bf1604314e" d="M94.67,32.45s10.1.27,22.57,11.26C117.24,43.71,98.85,15,94.67,32.45Z"/>
      <path class="aa6df1eb-7bdb-4463-ac54-06bf1604314e" d="M54.75,24.49s-11-1.4-26.76,7.4C28,31.89,53.61,6.55,54.75,24.49Z"/>
    </g>
    <path class="f6991e54-6985-457c-8924-4539ae0fe918" d="M59.93,76.71a44.28,44.28,0,0,1-1.49,7c-1.38.26-2.79.46-4.21.6A68.84,68.84,0,0,1,39.68,84a129.36,129.36,0,0,1-27.94-6.85,41.67,41.67,0,0,1,.36-6.26C14.43,53,27,39.82,40.24,41.42S62.26,58.82,59.93,76.71Z"/>
    <path class="f6991e54-6985-457c-8924-4539ae0fe918" d="M124.06,83.62c-.61.34-1.23.65-1.86.94A39.46,39.46,0,0,1,108.75,88c-10.56.87-20.74-2-27.46-4.6A43.74,43.74,0,0,1,80.65,79c-1.5-16.34,7-30.57,19.08-31.79s23,11,24.52,27.38A39.48,39.48,0,0,1,124.06,83.62Z"/>
  </g>
</svg>
