<svg id="b1f025aa-2ef4-4a4f-9780-9b97f562b3c3" data-name="Layer 1" xmlns="http://www.w3.org/2000/svg" width="118" height="100" viewBox="0 0 118 100">
  <defs>
    <style>
      .a565314a-39c9-4839-a2e4-67bcf88b9af4 {
        fill: #bcfde5;
      }

      .aa9c1333-eb85-4096-af4d-69f54aea00cc {
        fill: #ebf7f2;
      }
    </style>
  </defs>
  <g>
    <g>
      <path class="a565314a-39c9-4839-a2e4-67bcf88b9af4" d="M96,74.65c-6.56,9.28-29.85-4.08-44.48-14.41S28.45,35.16,35,25.88s21.62-2.54,36.26,7.79S102.52,65.37,96,74.65Z"/>
      <path class="aa9c1333-eb85-4096-af4d-69f54aea00cc" d="M96,74.68a7.36,7.36,0,0,1-2.1,1.95,8.23,8.23,0,0,1-2.7,1,16,16,0,0,1-5.73,0,47.4,47.4,0,0,1-10.9-3.53A140.3,140.3,0,0,1,54.52,62.91c-6.44-4.09-12.58-9-17.15-15.34a30.17,30.17,0,0,1-5-10.57,16.55,16.55,0,0,1-.29-6,13.14,13.14,0,0,1,2.24-5.66,12.58,12.58,0,0,1,2.12-2.26,11.28,11.28,0,0,1,2.68-1.57,13.8,13.8,0,0,1,6-.83,33.26,33.26,0,0,1,11.24,3.24,80.61,80.61,0,0,1,10,5.7,98.23,98.23,0,0,1,9.28,6.81A86.64,86.64,0,0,1,91,53.46a44.24,44.24,0,0,1,5.35,10.13,18.67,18.67,0,0,1,1.13,5.62A9,9,0,0,1,96,74.68Zm-.09-.06a8.89,8.89,0,0,0,1.45-5.4,19,19,0,0,0-1.16-5.57,44.48,44.48,0,0,0-5.38-10.06A85.57,85.57,0,0,0,75.31,36.86,96.61,96.61,0,0,0,66,30.22a82,82,0,0,0-10-5.51A32.28,32.28,0,0,0,45,21.61a12.77,12.77,0,0,0-5.58.8A9.62,9.62,0,0,0,37,23.85a11.16,11.16,0,0,0-1.93,2.07A12.09,12.09,0,0,0,33,31.14a15.85,15.85,0,0,0,.24,5.66,29.26,29.26,0,0,0,4.83,10.27c4.42,6.24,10.38,11.22,16.75,15.38A136.47,136.47,0,0,0,74.67,73.83a46.9,46.9,0,0,0,10.84,3.58,16,16,0,0,0,5.68.09,8,8,0,0,0,2.66-1A7.12,7.12,0,0,0,95.92,74.62Z"/>
    </g>
    <g>
      <path class="a565314a-39c9-4839-a2e4-67bcf88b9af4" d="M91.51,73.5C87.09,84,61.48,75.9,45,68.94s-27.86-19.57-23.45-30,20.58-7.12,37.09-.15S95.92,63,91.51,73.5Z"/>
      <path class="aa9c1333-eb85-4096-af4d-69f54aea00cc" d="M91.55,73.52a7.2,7.2,0,0,1-1.63,2.35,8,8,0,0,1-2.42,1.56,16.07,16.07,0,0,1-5.6,1.17,47.51,47.51,0,0,1-11.41-1.11,139.59,139.59,0,0,1-22-6.59c-7.17-2.61-14.22-6.12-20-11.32a30,30,0,0,1-7.17-9.24,16.49,16.49,0,0,1-1.57-5.8,13.33,13.33,0,0,1,1-6,12.76,12.76,0,0,1,1.59-2.65,11.18,11.18,0,0,1,2.29-2.11,13.62,13.62,0,0,1,5.68-2.1,33.31,33.31,0,0,1,11.67.76,79.13,79.13,0,0,1,11,3.42,96.67,96.67,0,0,1,10.53,4.67A86.59,86.59,0,0,1,82.14,53.85a44.93,44.93,0,0,1,7.4,8.76,18.93,18.93,0,0,1,2.3,5.25A8.93,8.93,0,0,1,91.55,73.52Zm-.09,0a8.84,8.84,0,0,0,.25-5.59,18.63,18.63,0,0,0-2.32-5.19A43.83,43.83,0,0,0,82,54,85.21,85.21,0,0,0,63.24,41a95.61,95.61,0,0,0-10.53-4.48,82,82,0,0,0-11-3.25,32.34,32.34,0,0,0-11.34-.68,12.72,12.72,0,0,0-5.28,2,9.73,9.73,0,0,0-2.07,1.93,11.45,11.45,0,0,0-1.44,2.43,12.16,12.16,0,0,0-.92,5.56A15.42,15.42,0,0,0,22.15,50a29.13,29.13,0,0,0,6.91,9c5.65,5.15,12.54,8.73,19.66,11.44a137.78,137.78,0,0,0,21.82,6.87,47.12,47.12,0,0,0,11.35,1.17,15.76,15.76,0,0,0,5.56-1.13,8.07,8.07,0,0,0,2.39-1.51A7.31,7.31,0,0,0,91.46,73.48Z"/>
    </g>
  </g>
</svg>
