<svg id="fc19b420-ab39-4eb9-87fa-17e37e4654d1" data-name="Layer 1" xmlns="http://www.w3.org/2000/svg" width="129.41" height="128.94" viewBox="0 0 129.41 128.94">
  <defs>
    <style>
      .a1ea9f09-feb4-498b-a011-8b4b8936c565 {
        fill: #bcfde5;
      }

      .ef6c4222-29be-43be-a935-0fe9132a7ca4 {
        fill: #ebf7f2;
      }
    </style>
  </defs>
  <g>
    <g>
      <path class="a1ea9f09-feb4-498b-a011-8b4b8936c565" d="M122,53.61c2.06,15.51-34,23.81-58.44,27.07S16.86,76.9,14.79,61.39,34.26,38.58,58.72,35.33,120,38.1,122,53.61Z"/>
      <path class="ef6c4222-29be-43be-a935-0fe9132a7ca4" d="M122.09,53.61a10.23,10.23,0,0,1-.29,3.93A11.4,11.4,0,0,1,120,61.07a22.19,22.19,0,0,1-5.83,5.31,65.25,65.25,0,0,1-14.32,6.67,189.35,189.35,0,0,1-30.72,7.31C58.8,82.2,48,82.85,37.56,80.72a41,41,0,0,1-14.85-5.89,22.52,22.52,0,0,1-5.82-5.7,17.64,17.64,0,0,1-3-7.65,16.25,16.25,0,0,1,0-4.18,14.68,14.68,0,0,1,1.21-4A18.61,18.61,0,0,1,20.35,47a34.19,34.19,0,0,1,6.85-4.23,62.82,62.82,0,0,1,7.42-2.93A114.46,114.46,0,0,1,50,36.1a133.83,133.83,0,0,1,15.72-1.91A117.87,117.87,0,0,1,97.21,36.8a61.1,61.1,0,0,1,14.89,5.26,25.77,25.77,0,0,1,6.39,4.63A12.35,12.35,0,0,1,122.09,53.61Zm-.1,0a12.27,12.27,0,0,0-3.61-6.83A26.2,26.2,0,0,0,112,42.24a61.37,61.37,0,0,0-14.86-5.12,117.47,117.47,0,0,0-31.36-2.38,133.08,133.08,0,0,0-15.63,2,113.47,113.47,0,0,0-15.29,3.8,61.54,61.54,0,0,0-7.3,3,33.42,33.42,0,0,0-6.65,4.16,17.48,17.48,0,0,0-4.9,6,13.92,13.92,0,0,0-1.12,3.74,16,16,0,0,0,0,3.91,16.85,16.85,0,0,0,2.78,7.25,21.66,21.66,0,0,0,5.55,5.5A40.37,40.37,0,0,0,37.72,80c10.31,2.17,21,1.62,31.34-.14a189.66,189.66,0,0,0,30.71-7.08,64.66,64.66,0,0,0,14.3-6.54A22,22,0,0,0,119.89,61a11,11,0,0,0,1.78-3.48A9.77,9.77,0,0,0,122,53.62Z"/>
    </g>
    <g>
      <path class="a1ea9f09-feb4-498b-a011-8b4b8936c565" d="M115.75,58.16c3.84,15.16-31,27.57-54.92,33.64S14,93.44,10.12,78.28s16.7-24.91,40.62-31S111.9,43,115.75,58.16Z"/>
      <path class="ef6c4222-29be-43be-a935-0fe9132a7ca4" d="M115.79,58.14a9.87,9.87,0,0,1,.17,3.94,11.12,11.12,0,0,1-1.36,3.71,21.88,21.88,0,0,1-5.18,6A64.92,64.92,0,0,1,96,80,189.32,189.32,0,0,1,66.3,90.84c-10.07,3-20.7,4.91-31.33,4A40.82,40.82,0,0,1,19.54,90.7a22.38,22.38,0,0,1-6.45-5,17.65,17.65,0,0,1-3.85-7.26,16.45,16.45,0,0,1-.45-4.15,14.76,14.76,0,0,1,.75-4.11A18.41,18.41,0,0,1,14,63.32a33.94,33.94,0,0,1,6.32-5,60.17,60.17,0,0,1,7-3.77A114,114,0,0,1,42.2,49.08a134.69,134.69,0,0,1,15.39-3.71,117.46,117.46,0,0,1,31.55-1,61.23,61.23,0,0,1,15.4,3.5,26.29,26.29,0,0,1,6.88,3.85A12.38,12.38,0,0,1,115.79,58.14Zm-.09,0a12.3,12.3,0,0,0-4.37-6.36A26.2,26.2,0,0,0,104.46,48a61.07,61.07,0,0,0-15.35-3.37,117.3,117.3,0,0,0-31.42,1.26,134.59,134.59,0,0,0-15.3,3.8,113.72,113.72,0,0,0-14.74,5.55A58.48,58.48,0,0,0,20.74,59a32.58,32.58,0,0,0-6.13,4.9,17.6,17.6,0,0,0-4.18,6.57,14,14,0,0,0-.67,3.84,15.36,15.36,0,0,0,.45,3.88,16.81,16.81,0,0,0,3.6,6.88A21.33,21.33,0,0,0,20,89.92,40.15,40.15,0,0,0,35,94.07c10.49,1,21-.82,31.11-3.76A189.48,189.48,0,0,0,95.83,79.73a64.59,64.59,0,0,0,13.45-8.15,21.62,21.62,0,0,0,5.18-5.86,11,11,0,0,0,1.37-3.66A9.81,9.81,0,0,0,115.7,58.17Z"/>
    </g>
  </g>
</svg>
