<svg id="ffe6c2bd-805e-4c64-8820-1dca30bb929f" data-name="Layer 1" xmlns="http://www.w3.org/2000/svg" width="104.25" height="112.06" viewBox="0 0 104.25 112.06">
  <defs>
    <style>
      .b909ec2b-8754-48ed-b672-96b304066dcf {
        fill: #181818;
      }

      .a566b76a-722f-4b8d-b47a-d683ab13f037, .b909ec2b-8754-48ed-b672-96b304066dcf {
        stroke: #161616;
        stroke-miterlimit: 10;
        stroke-width: 0.78px;
      }

      .a566b76a-722f-4b8d-b47a-d683ab13f037 {
        fill: #fff;
      }

      .a3e567b6-cc10-4acc-bff8-017881e7ad09 {
        fill: #020206;
      }

      .a3d36b8c-2956-40a4-bd7d-079ca5a1584b {
        fill: #383838;
      }
    </style>
  </defs>
  <g>
    <g>
      <path class="b909ec2b-8754-48ed-b672-96b304066dcf" d="M59.66,60.32s9.19,10.47-4.6,23.45-17,10.47-17,10.47,5.2-4,3.6-9.14-3.2-6.35-1.8-14.46,9.67-12.24,14-14.16C53.89,56.48,59.06,56.34,59.66,60.32Z"/>
      <path class="a566b76a-722f-4b8d-b47a-d683ab13f037" d="M92.49,2.49S66.26,12.06,59.18,28.8s-5,36.75-5,36.75,6.19-4.57,5.9-11.74c-.28-6.64.21-20.93,18.29-32.15,1.45-.9,3-1.79,4.7-2.64Z"/>
    </g>
    <path class="a3e567b6-cc10-4acc-bff8-017881e7ad09" d="M78.36,21.66s1.41-7.95-4.2-9.48l3.42-2.25s5.1,2,4.67,9.4Z"/>
    <path class="a3e567b6-cc10-4acc-bff8-017881e7ad09" d="M71.86,26.43S73,19,66.3,18.67l-2.71,3s6.37,1.26,5.9,7Z"/>
    <path class="a3e567b6-cc10-4acc-bff8-017881e7ad09" d="M63.59,36.72s-.16-5.93-5.35-5.53l-1.18,3.56a4.33,4.33,0,0,1,5.6,3.67Z"/>
    <path class="a3e567b6-cc10-4acc-bff8-017881e7ad09" d="M60.17,48.46s-2.46-3-5.57-1.64l.43-3S61,44.17,60.17,48.46Z"/>
    <path class="a3e567b6-cc10-4acc-bff8-017881e7ad09" d="M59.4,58.29a5,5,0,0,0-5.51-2.37V54.07s5.91-.06,5.84,3.1Z"/>
    <path class="a3d36b8c-2956-40a4-bd7d-079ca5a1584b" d="M59.59,60.24s3.93,15.16-9.3,24.68c0,0-7.5,8.33-12.3,9.24,0,0,2.49,2.45,13.45-7.27S65.92,70,59.59,60.24Z"/>
    <path class="a3e567b6-cc10-4acc-bff8-017881e7ad09" d="M87,4.84s2.7,1.55,2.22,3.37l-3.35,3.71s-.44-4.77-2.17-5.46Z"/>
  </g>
</svg>
