<svg id="e5a08102-a5c7-474d-a761-ab02afe022c8" data-name="Layer 1" xmlns="http://www.w3.org/2000/svg" width="118" height="100" viewBox="0 0 118 100">
  <defs>
    <style>
      .e6727812-3a67-4dc2-8ec6-640949c534bb {
        fill: #bcfde5;
      }

      .fe5ee2d6-6dfd-40f3-97a6-4d8200997ec5 {
        fill: #ebf7f2;
      }
    </style>
  </defs>
  <g>
    <g>
      <path class="e6727812-3a67-4dc2-8ec6-640949c534bb" d="M106.41,81C96.33,90.11,72.59,68.42,58.18,52.53S37.8,17.21,47.88,8.07s25.93,2.67,40.35,18.56S116.49,71.84,106.41,81Z"/>
      <path class="fe5ee2d6-6dfd-40f3-97a6-4d8200997ec5" d="M106.44,81a8.58,8.58,0,0,1-3,1.73,9.81,9.81,0,0,1-3.4.46,19,19,0,0,1-6.68-1.56,56.36,56.36,0,0,1-11.81-7A167.75,167.75,0,0,1,61.1,56.38c-6.45-6.47-12.31-13.84-16-22.4A35.83,35.83,0,0,1,42,20.37a19.7,19.7,0,0,1,1.22-7,15.51,15.51,0,0,1,4-6,14.52,14.52,0,0,1,3-2.06,13.14,13.14,0,0,1,3.5-1.13A16.29,16.29,0,0,1,61,4.79a39.3,39.3,0,0,1,12.23,6.67,96,96,0,0,1,10.26,9.25,116.35,116.35,0,0,1,9.09,10.36,103.2,103.2,0,0,1,13.56,23.86,52.88,52.88,0,0,1,3.62,13.23,22.87,22.87,0,0,1-.13,6.86A10.74,10.74,0,0,1,106.44,81Zm-.07-.07a10.62,10.62,0,0,0,3.1-6,22.53,22.53,0,0,0,.11-6.81A53.2,53.2,0,0,0,105.91,55,102.52,102.52,0,0,0,92.13,31.4,117.85,117.85,0,0,0,83,21.21,100.36,100.36,0,0,0,72.7,12.15a39,39,0,0,0-12-6.47A15.39,15.39,0,0,0,54,5.15a12.52,12.52,0,0,0-3.22,1A13.75,13.75,0,0,0,48,8.13a14.59,14.59,0,0,0-3.82,5.57A18.74,18.74,0,0,0,43,20.38a35.11,35.11,0,0,0,3,13.26C49.46,42.1,55.14,49.47,61.5,56A164.68,164.68,0,0,0,81.73,74.48a56.24,56.24,0,0,0,11.74,7,18.94,18.94,0,0,0,6.61,1.59,9.78,9.78,0,0,0,3.36-.44A8.51,8.51,0,0,0,106.37,80.94Z"/>
    </g>
    <g>
      <path class="e6727812-3a67-4dc2-8ec6-640949c534bb" d="M101.47,78.5c0,13.6-32,16.62-53.47,16.62S8.15,86.5,8.15,72.89,27.54,55.47,49,55.47,101.47,64.9,101.47,78.5Z"/>
      <path class="fe5ee2d6-6dfd-40f3-97a6-4d8200997ec5" d="M101.52,78.5a8.79,8.79,0,0,1-.71,3.35,9.88,9.88,0,0,1-1.94,2.84,19.08,19.08,0,0,1-5.64,3.89,56.31,56.31,0,0,1-13.11,4.07,167.81,167.81,0,0,1-27.3,2.9c-9.13.42-18.53-.19-27.33-3.22a35.84,35.84,0,0,1-12.16-6.84A19.46,19.46,0,0,1,9,79.86a15.45,15.45,0,0,1-1.7-7,14.38,14.38,0,0,1,.51-3.62,12.51,12.51,0,0,1,1.52-3.35A16.22,16.22,0,0,1,14.51,61,39.6,39.6,0,0,1,27.68,56.4,97.82,97.82,0,0,1,41.42,55a115.27,115.27,0,0,1,13.78.23,103.1,103.1,0,0,1,26.78,6,53.61,53.61,0,0,1,12.24,6.21,22.49,22.49,0,0,1,5,4.71A10.74,10.74,0,0,1,101.52,78.5Zm-.1,0a10.64,10.64,0,0,0-2.32-6.29,22.23,22.23,0,0,0-5-4.65A53,53,0,0,0,81.9,61.43a102.34,102.34,0,0,0-26.74-5.65,114,114,0,0,0-13.71-.05,97.22,97.22,0,0,0-13.61,1.52A38.88,38.88,0,0,0,15,61.77a15.34,15.34,0,0,0-4.91,4.64A12.1,12.1,0,0,0,8.7,69.5a13.6,13.6,0,0,0-.45,3.36,14.54,14.54,0,0,0,1.56,6.57A18.7,18.7,0,0,0,14,84.8a35,35,0,0,0,11.82,6.71c8.64,3.06,17.91,3.81,27,3.48a165.1,165.1,0,0,0,27.27-2.57,56.62,56.62,0,0,0,13.07-4,18.9,18.9,0,0,0,5.62-3.84,9.7,9.7,0,0,0,1.93-2.78A8.6,8.6,0,0,0,101.42,78.5Z"/>
    </g>
  </g>
</svg>
