<svg id="a587804f-9cea-4d81-9761-bc32c6889d74" data-name="Layer 1" xmlns="http://www.w3.org/2000/svg" width="153.92" height="110.29" viewBox="0 0 153.92 110.29">
  <defs>
    <style>
      .e0f4b6e0-e072-4b71-a6cc-b831132c633a {
        fill: #bcfde5;
      }

      .bf522520-4432-4a6e-bd2f-acdfb1b1c811 {
        fill: #ebf7f2;
      }
    </style>
  </defs>
  <g>
    <g>
      <path class="e0f4b6e0-e072-4b71-a6cc-b831132c633a" d="M106,99.58c-11.54,8-32.9-17.4-45.5-35.6S44.46,25.11,56,17.12s26.17,6.22,38.77,24.43S117.58,91.59,106,99.58Z"/>
      <path class="bf522520-4432-4a6e-bd2f-acdfb1b1c811" d="M106.07,99.62c-13.1,8.47-35.88-22-43-31.31-5.72-7.5-10.71-15.82-13.31-25.07-1.84-6.86-2.63-14.78.87-21.34,2.33-4.4,6.94-7.78,12-7.91,11.66.07,21.52,12.4,28.08,20.87a105.73,105.73,0,0,1,18.57,38c1.9,8.07,4.4,20.95-3.18,26.72Zm-.06-.08c7.49-5.75,4.94-18.6,3-26.58A104.93,104.93,0,0,0,90.12,35.29C83.66,27.19,73.83,15,62.64,15c-4.74.16-9,3.33-11.21,7.42C48,28.69,48.79,36.31,50.55,43,53,52.14,57.84,60.44,63.47,68c7,9.43,29.36,39.87,42.54,31.56Z"/>
    </g>
    <g>
      <path class="e0f4b6e0-e072-4b71-a6cc-b831132c633a" d="M106.53,98.6c-7.73,11.71-37-3.89-55.48-16.09S21.64,52.43,29.37,40.71s26.61-4,45.08,8.23S114.27,86.89,106.53,98.6Z"/>
      <path class="bf522520-4432-4a6e-bd2f-acdfb1b1c811" d="M106.57,98.63c-9,12.73-41.48-7-51.61-13-8.1-4.82-15.84-10.69-21.69-18.31C29,61.61,25.33,54.56,26.13,47.17c.52-5,3.54-9.8,8.21-11.82,10.88-4.27,24.55,3.48,33.83,8.91A105.76,105.76,0,0,1,99.58,72.64c4.76,6.78,11.88,17.81,7,26Zm-.08,0c4.81-8.13-2.35-19.11-7.1-25.8A104.89,104.89,0,0,0,67.81,44.87c-9.05-5.12-22.64-12.77-33.08-8.64-4.34,1.91-7.12,6.44-7.64,11.06C26.3,54.41,29.83,61.2,34,66.77c5.7,7.55,13.26,13.46,21.29,18.37,10,6.12,42.1,26.05,51.24,13.44Z"/>
    </g>
  </g>
</svg>
