<svg id="Layer_1" data-name="Layer 1" xmlns="http://www.w3.org/2000/svg" width="620" height="520" viewBox="0 0 620 520">
  <defs>
    <style>
      .cls-1 {
        opacity: 0.2;
      }

      .cls-2 {
        fill: #5e3211;
      }

      .cls-2, .cls-30, .cls-7, .cls-8 {
        stroke: #421c0f;
      }

      .cls-10, .cls-17, .cls-18, .cls-2, .cls-20, .cls-23, .cls-30, .cls-31, .cls-32, .cls-34, .cls-7, .cls-8, .cls-9 {
        stroke-miterlimit: 10;
      }

      .cls-10, .cls-3 {
        fill: #3c200f;
      }

      .cls-4 {
        fill: #2c180c;
      }

      .cls-20, .cls-23, .cls-31, .cls-5 {
        fill: #9c4e23;
      }

      .cls-6 {
        fill: #7c391a;
      }

      .cls-32, .cls-7, .cls-8 {
        fill: #723b18;
      }

      .cls-10, .cls-31, .cls-7 {
        stroke-width: 3px;
      }

      .cls-9 {
        fill: #6b2f13;
        stroke: #3c180c;
      }

      .cls-18, .cls-20, .cls-34, .cls-9 {
        stroke-width: 2px;
      }

      .cls-10 {
        stroke: #28150d;
      }

      .cls-11 {
        fill: #172228;
        opacity: 0.33;
      }

      .cls-12 {
        fill: #f4a1a2;
      }

      .cls-13 {
        fill: #d22a28;
      }

      .cls-14 {
        fill: #1d75ba;
      }

      .cls-15 {
        fill: #243f54;
      }

      .cls-16 {
        fill: #faae42;
      }

      .cls-17 {
        fill: #b5b0c1;
        stroke: #595367;
      }

      .cls-18 {
        fill: #d0af8f;
        stroke: #412412;
      }

      .cls-19 {
        fill: #ae896e;
      }

      .cls-20, .cls-31 {
        stroke: #482211;
      }

      .cls-21, .cls-34 {
        fill: #d58046;
      }

      .cls-22 {
        fill: #a25c2a;
      }

      .cls-23 {
        stroke: #582811;
      }

      .cls-23, .cls-32 {
        stroke-width: 4px;
      }

      .cls-24 {
        fill: #610b0d;
      }

      .cls-25 {
        fill: #f48e8f;
      }

      .cls-26 {
        fill: #cd3332;
      }

      .cls-27 {
        fill: #e15050;
      }

      .cls-28 {
        fill: #841a19;
      }

      .cls-29 {
        fill: #cd783e;
      }

      .cls-30 {
        fill: #3b2010;
      }

      .cls-32 {
        stroke: #472310;
      }

      .cls-33 {
        fill: #572d0e;
      }

      .cls-34 {
        stroke: #50230f;
      }

      .cls-35 {
        fill: #411211;
      }

      .cls-36 {
        fill: #e59662;
      }
    </style>
  </defs>
  <g>
    <ellipse class="cls-1" cx="362.62" cy="453.8" rx="234.91" ry="61.98"/>
    <g>
      <path class="cls-2" d="M182.38,103.37c7.11-.56,67.16-117.22,161.56-72,17.23,8.26,64.06,37.42,88.49,36.16S525.9,63.46,542.61,78c22.09,19.26,41.75,57.64,26.31,112.11-2.81-4.49-15.13-17.15-18.78-19.39,2,9.82,10.76,32.39,8.33,49.6-3-6.36-6.18-12.73-8.24-13.85-.37,12,3.84,44-6,70.1-1.12-7.58-4.77-20.22-7.58-25-2,13.48-5.33,41.28-17.13,62.9-.56-12.08-7.58-40.72-15.72-50-2,7.58-6.46,28.64-4.77,37.06-9-8.42-19.66-42.12-25-60.65-1.13,6.18-1.69,26.68-.85,31.17-8.42-7-13.94-28.73-14.88-39.4-2.06,6-1.5,29.38-.18,36.5-4.5-5.24-13.67-27.14-15.73-35.19-1.68,10.67,1,35.56,1.87,51-4.21-.28-9.26-11.23-12.63-15.72,0,13.48-1.22,37.72-13.76,50.07,1.12-9.92,2.62-33.5-4.87-46.79-2.06,9-4.49,23.58-8.79,31.07-.94-12.73-3-42.87-18.16-56.91-.94,18-8.89,55.88-34.73,72.63,3.94-11.6,6.46-56.53-5.33-74.5-3.93,10.67-11.51,33.7-20.78,43-.56-18-3.37-41.83-17.59-55.87-3,3.74-8.43,18.34-8.24,23.58-4.87-2.24-7.3-24-7.3-28.64-3.74,6.37-17.13,50,.84,85.92-7.86-3.09-16.56-22.74-18-27.51-.56,10.38-1.12,27.79,1.12,37.9-12.91-3.37-30.76-21.16-38.74-46.89-2.53,3.93-4.5,12.92-3.37,18.25-7.58-3.09-16-18.25-16-44.08S182.38,103.37,182.38,103.37Z"/>
      <g>
        <path class="cls-3" d="M452.92,412.62c-1.22,4.22-7.77,4.68-11.61,0-1.21-3.27,1.6-15.81,1.6-15.81"/>
        <path class="cls-4" d="M441.78,402.69c-.61,3.73-1.12,8.17-.47,9.93,3.84,4.68,10.39,4.22,11.61,0a.08.08,0,0,1,0,0C448.77,413.1,445.69,406.34,441.78,402.69Z"/>
      </g>
      <g>
        <path class="cls-5" d="M446.74,356.75a186.74,186.74,0,0,0-2.43,34.63c.19,9.54.66,14.13,0,21.52-.61,6.5,5.65,16.29-2.77,21.62s-48.29-4.21-47.73-9.82-.7-12.26,6.17-25.65c8-15.5,8.62-36.31,8.24-38.18s-.37-23.22,14.23-24.53S448.16,346.48,446.74,356.75Z"/>
        <path class="cls-5" d="M412.37,342.53c-4.52,6.86-4.44,17.07-4.19,18.34.38,1.87-.27,22.68-8.24,38.18-6.87,13.39-5.61,20-6.17,25.65-.08.79,2.82,0,4.14.93.7-11.65,3.17-16.68,7.09-25.83C412.17,382.38,417.47,362.15,412.37,342.53Z"/>
        <path class="cls-6" d="M439.68,341.44c.14,3.07.13,6.15-1,8.94-10.11,25.83-1.12,51.67-9,77.5a54.88,54.88,0,0,1-3.36,7.83c6.68.7,12.49.5,15.15-1.19,8.42-5.33,2.16-15.12,2.77-21.62.7-7.39.23-12,0-21.52a186.74,186.74,0,0,1,2.43-34.63C447.5,351.28,444.68,345.47,439.68,341.44Z"/>
        <path class="cls-7" d="M432.92,437.21c-13.47,0-35.17-5.69-39.36-10.32a3,3,0,0,1-.91-2.31c.1-1,.14-2.13.19-3.29.19-5.21.43-11.7,6.11-22.75,7.79-15.16,8.51-35.58,8.13-37.45s-.27-13.06,5-20.06a13.88,13.88,0,0,1,10.26-5.8,24.77,24.77,0,0,1,21,8.11c3.54,4.06,5.21,9,4.58,13.56a184.43,184.43,0,0,0-2.42,34.46c.05,2.47.12,4.61.18,6.55a110.31,110.31,0,0,1-.22,15.1,23.56,23.56,0,0,0,.75,6.45c1.08,5.31,2.42,11.92-4,16C440.28,436.63,437.19,437.21,432.92,437.21Z"/>
      </g>
      <g>
        <path class="cls-3" d="M248,417.49c7.3,7.3,8.43,18.67,7.3,22.6s-6.88,3.93-11.51-1.4C241.3,431.67,248,417.49,248,417.49Z"/>
        <path class="cls-4" d="M244.44,427.36c-1.07,4-1.7,8.31-.61,11.33,4.63,5.33,10.39,5.33,11.51,1.4a9.69,9.69,0,0,0,.32-1.91C251,436.22,247.44,431.75,244.44,427.36Z"/>
      </g>
      <g>
        <path class="cls-6" d="M188.29,258.37c-4.27,21.26-2.11,33.33,3.13,46.95s6.74,32,4.12,44.69c4.11-2.62,6.17-7.49,8.23-10.11,1.13,7.49,2.81,27.33-.93,33.32,2.62.56,6.83-4.59,7.39-5.15-1,5.15-5.85,20.5,3.14,29.48,3.36,5.76,2.94,19.47,1.26,26.4s-9.73,13.66-7.49,20,34.26,16.47,40.06,15.91c.94-3.37,1.5-7.3,0-17.41s3.37-16.15,2.62-34.07c-.76-18.25,14.79-34.63,13.48-52.6s-17.77-52.62-17.77-52.62Z"/>
        <path class="cls-5" d="M218.28,396.29c-6.31-9.09-9-21.25,1.4-44.78-3.37,2.24-6.74,5.61-10.11,7.86,0-12.36,0-23.59-2.24-35.94a21.23,21.23,0,0,1-6,10.95c1.13-16.85-.61-19.38-6-35.38-2.8-8.43-5.36-29.84-3.61-38l-3.35-2.62c-4.27,21.26-2.11,33.33,3.13,46.95s6.74,32,4.12,44.69c4.11-2.62,6.17-7.49,8.23-10.11,1.13,7.49,2.81,27.33-.93,33.32,2.62.56,6.83-4.59,7.39-5.15-1,5.15-5.85,20.5,3.14,29.48,3.36,5.76,2.94,19.47,1.26,26.4s-9.73,13.66-7.49,20c.77,2.18,5,4.79,10.53,7.27-3.81-5.75-1.45-17.15,1.45-25.76C222.82,414.5,221.53,401,218.28,396.29Z"/>
        <path class="cls-6" d="M249.82,408.41c-.76-18.25,14.79-34.63,13.48-52.6-.75-10.19-6.36-25.75-11.08-37.31A291.65,291.65,0,0,1,250,354.88c-2.25,14.6-10.53,27.79-11.66,42.39-1.12,19.1,2.67,36.22-9.68,53.07-.91,1.37-1.88,2.78-2.91,4.16,9,3.27,18.53,5.67,21.44,5.39.94-3.37,1.5-7.3,0-17.41S250.57,426.33,249.82,408.41Z"/>
        <path class="cls-8" d="M212.48,365.24l-.73,3.63c-.11.55-.26,1.22-.43,2-1.41,6.14-4.34,18.9,3.26,26.5l.18.23c3.5,6,3.17,19.89,1.38,27.22-.7,2.89-2.4,5.67-4,8.36-2.4,3.94-4.67,7.67-3.48,11,1.91,5.41,30.66,14.88,38.13,15.18.71-2.85,1.15-6.79-.24-16.13-.74-5,0-9.06.9-13.77A80.45,80.45,0,0,0,249.12,409c-.39-9.27,3.32-18.06,6.9-26.57,3.71-8.83,7.22-17.17,6.58-26-1.22-16.78-16.1-48.89-17.55-52L189.46,261c-3.75,20-1.57,31.53,3.43,44.52,4.8,12.47,6.62,29.38,4.7,42.32a30.81,30.81,0,0,0,3.82-5.2,32.75,32.75,0,0,1,1.9-2.82l1.61-2.05.38,2.58c.92,6.11,2.63,23.69-.08,31.83a21.08,21.08,0,0,0,4.25-3.87c.18-.2.31-.35.39-.42Z"/>
      </g>
      <g>
        <path class="cls-2" d="M481.37,307.14c2.53,17.41,1.41,38.47-16.84,53.07.28-8.14-4.92-16.57-9.41-19.37-.42,6-7.44,23.16-4.63,33.13-6.18-2.11-12.22-12.07-13.48-20.92-2.67,5.34-7.72,16.71-12.78,19.37,1-8.28-.56-17.68-1.82-19.23-2.25,7.3-11.23,25.08-22.84,38.19-1.87-3.75-6.18-20.41-6.74-35.19-3.18,4.68-11.6,19.65-12.54,26.95-3.74-4.3-6-12.35-6.91-30.51-6.94,9.55-16.68,25.27-38,27.52s-46.9-1.19-64.77-38.38c-1.87,12-4.12,20.78-8.8,25.83-1.31-11-15.16-28.59-21.62-38.28-.56,3.51-.84,11.52,0,13.76-6.46-2.1-27.52-21.34-31.45-49.7a30.62,30.62,0,0,0-5.61,11.94c-4.78-8-3.65-26-17.13-34.12s32-62.33,32-62.33l129.16-19.09L467.33,223.1Z"/>
        <path class="cls-9" d="M472.84,256.08a101.75,101.75,0,0,0,2.57,15.36Z"/>
      </g>
      <g>
        <path class="cls-6" d="M393.76,230.49c9,18.25,8.71,56.72.71,72.44.14-4.21-3.37-10.67-4.49-11.65.14,11-1,29-11.47,36.92.94-5.33-.19-14.22-.93-15.35-2.16,8.89-8.33,25.55-19.94,43s-8,48.28-4.59,62.84,9.07,32.66-3.32,42.42-48.34.22-48.34-8.76,7-12.92,11.51-22.18,4.78-28.36,2.53-31.73-11.51-13.2-.56-32.85c-.28-6.46-7.58-22.09-9.83-25.18-.28,3.18-.84,12.17-.47,14.6-5.89-3.46-5.89-19.94-6.45-22.74-2.63,2.24-3.94,7.48-3.94,10.29-4.68-4.49-3.74-13.1-2.43-19.47-7.67-11.6-18.56-33.69-23.41-57.65s-.74-50.92,33.33-52.41S393.76,230.49,393.76,230.49Z"/>
        <path class="cls-5" d="M315.43,398.4c2.25,3.37,2,22.46-2.53,31.73s-11.51,13.19-11.51,22.18c0,1.7,1.29,3.42,3.46,5a1.38,1.38,0,0,1,.19-.25,1.38,1.38,0,0,0-.19.25A22.68,22.68,0,0,0,307,458.7c2.38-15.81,7.64-19.12,10.81-28.51,4-11.84,5.52-29.36,0-36.82-4.7-6.35-3.7-23.49-4.66-24C305.37,386.41,313.34,395.26,315.43,398.4Z"/>
        <path class="cls-6" d="M393.76,230.49s-6.9-2.26-17.35-5.16c7.9,17.87,17.79,35.44,14,55.42-4.49-2.25-6.74-6.74-9-10.11,0,11.23,2.25,23.59,1.13,34.82-2.25-6.74-7.86-11.23-11.24-16.85,3,26-18.6,50.26-24.22,65.85-7.5,20.8-10.43,42.45-2.73,65.56,4.87,16.22-2.57,31.27-11.73,45.14,6.81.17,13.16-1,17.11-4.09,12.39-9.76,6.69-27.86,3.32-42.42s-7-45.43,4.59-62.84,17.78-34.07,19.94-43c.74,1.13,1.87,10,.93,15.35,10.48-7.95,11.61-26,11.47-36.92,1.12,1,4.63,7.44,4.49,11.65C402.47,287.21,402.75,248.74,393.76,230.49Z"/>
        <path class="cls-7" d="M333.9,466.31a64.78,64.78,0,0,1-22.22-4.15c-4.27-1.66-11.41-5.13-11.41-9.85,0-6,3-9.93,6.09-14.11a50.07,50.07,0,0,0,5.53-8.57c4.41-9.09,4.61-27.61,2.61-30.61l-.63-.89c-3.1-4.29-10.34-14.31-.14-32.84-.39-5.11-5-15.72-7.84-21.22a82.56,82.56,0,0,0-.21,10.73l.36,2.33-2-1.19c-5.24-3.08-6.19-14.49-6.69-20.62a1.79,1.79,0,0,1,0-.23,17.26,17.26,0,0,0-2,7.43v2.64l-1.9-1.83c-3.86-3.7-4.8-10.26-2.85-20.05-7.84-12-18.55-34.09-23.32-57.66-2.49-12.26-3.51-29.36,5.74-41.18,6.08-7.78,15.71-12,28.64-12.57,1.29-.06,2.64-.09,4-.09,34.2,0,87.93,17.47,88.47,17.64l.45.15.21.42c8.75,17.77,9.13,56.9.7,73.45l-2.29,4.5.17-5.05c.07-2.3-1.11-5.45-2.26-7.76-.33,16.8-4.32,28.22-11.9,34l-2.28,1.73.5-2.82a40.82,40.82,0,0,0,0-10.36,154.67,154.67,0,0,1-18.84,38.78c-13.54,20.31-5.4,57.76-4.43,62,.28,1.22.58,2.47.88,3.74,3.43,14.26,7.31,30.43-4.61,39.82C346.81,464.8,341.09,466.31,333.9,466.31Z"/>
      </g>
      <g>
        <path class="cls-3" d="M546.79,404.85c4.92,5.69,6.74,13.55,5.9,18.33s-9.69,5.05-11.93,1.12S546.79,404.85,546.79,404.85Z"/>
        <path class="cls-4" d="M542.27,414.79c-1.47,3.87-2.49,7.79-1.51,9.51,2.23,3.9,11,3.65,11.9-1A26.15,26.15,0,0,1,542.27,414.79Z"/>
      </g>
      <g>
        <path class="cls-6" d="M566.36,132.57c7.48,11.53,21.34,68.06,8.61,119-3-7.12-5.24-10.48-8.61-12.73,2.62,16.47,6.18,37.44,0,52.22-1.69-3.74-5.43-8-7.68-9.17,1.5,10.67.19,36.5-7.11,66.83s-2.25,54.75-3.79,60.93-5.62,10.11-4.64,15.86,3.28,17-2.24,20.73-47-9.17-47.55-15.53,1.5-14.79,6.18-24,10.67-30.33,5.61-47.55c-14-14.6-35-38.29-39.49-69.45-1.69,3.65-3.09,12.78-2.53,16.43-6.88-5.05-15.82-30.65-13-67.9S566.36,132.57,566.36,132.57Z"/>
        <path class="cls-5" d="M527.42,367.23C509.57,354,494.16,342,483.5,322c-4.5-4.38-8.09-11.06-14.47-18.12,7.68,24.21,24.29,43,36.11,55.31,5.06,17.22-.93,38.37-5.61,47.55s-6.74,17.59-6.18,24c.09,1,1.2,2.17,3,3.41,2.06-10.23,4.62-15,9.51-25.31,7.3-15.42,7-27,7-41.56C517.35,369.48,523.35,369,527.42,367.23Z"/>
        <path class="cls-6" d="M575,251.55c12.73-50.92-1.13-107.45-8.61-119,0,0-5.75,3.47-14.67,9.25,15,27.67,24.54,59.57,20.66,90.64-6.74-2.25-10.11-9-14.61-13.48-1.12,19.09,6.74,37.06,5.62,56.15-5.62-5.61-11.23-11.23-15.72-18,4.49,31.45-1.13,60.65-7.86,92.1-4.5,18,3.36,34.82-2.25,52.79-2.25,6.74-6.6,9-5.76,16.84,2.25,13.48-1,13.48-7.72,24.71-.22.35-.46.65-.7,1,8.22,2.1,15.46,3.07,17.55,1.65,5.52-3.74,3.23-15,2.24-20.73s3.09-9.68,4.64-15.86-3.51-30.61,3.79-60.93,8.61-56.16,7.11-66.83c2.25,1.13,6,5.43,7.68,9.17,6.18-14.78,2.62-35.75,0-52.22C569.73,241.07,572,244.43,575,251.55Z"/>
        <path class="cls-7" d="M466.22,285.81l.54,3.76C471,318.84,489.92,341.73,506,358.4l.2.2.07.26c5.09,17.34-.62,38.43-5.69,48.38-4.46,8.75-6.62,17-6.06,23.35.39,4.4,30.86,15.18,42.91,15.18a5.42,5.42,0,0,0,2.89-.48c4.63-3.14,2.87-13.24,1.93-18.66l-.16-.95c-.67-3.93.77-7,2.3-10.28a33.28,33.28,0,0,0,2.35-6c.44-1.79.27-5.65,0-10.54-.49-11-1.31-29.44,3.74-50.38,7.6-31.61,8.41-57,7.09-66.41l-.3-2.12,1.91,1c2.09,1,5,4.26,7,7.46,4.71-13.95,1.7-32.79-.73-48.09l-.61-3.78,2.14,1.43c3,2,5.17,4.81,7.67,10.15,10.72-47.31-.87-100.26-8.67-113.93-11,6.74-112.15,69.78-114.75,104.23-2.61,34.66,4.89,57.56,10.66,65,.15-4.49,1.34-11,2.74-14.06Z"/>
      </g>
      <path class="cls-5" d="M190.2,97.22c7.11-.56,62-108.43,156.39-63.19,17.23,8.26,61.77,37.74,86.19,36.47s94-5.67,111,12.07c16.29,17,36.28,50.11,20.83,104.58-2.8-4.49-8.14-11.51-11.79-13.75,2,9.82,10.77,32.39,8.33,49.61-3-6.37-6.18-12.74-8.23-13.86-.38,12,3.83,44-6,70.1-1.12-7.58-4.77-20.21-7.58-25-2,13.48-5.33,41.28-17.12,62.9-.56-12.08-7.58-40.72-15.73-50-2,7.58-6.46,28.64-4.77,37.06-9-8.42-19.66-42.12-25-60.65-1.12,6.18-1.68,26.68-.84,31.17-8.43-7-13.95-28.73-14.88-39.4-2.06,6-1.5,29.38-.19,36.5-4.49-5.24-13.67-27.14-15.72-35.19-1.69,10.67,1,35.56,1.87,51-4.21-.29-9.27-11.24-12.64-15.73,0,13.48-1.22,37.72-13.76,50.07,1.13-9.92,2.62-33.5-4.86-46.79-2.06,9-4.5,23.58-8.8,31.07-.94-12.73-3-42.87-18.16-56.9-.93,18-8.89,55.87-34.72,72.62,3.93-11.6,6.46-56.53-5.34-74.5-3.93,10.67-11.51,33.7-20.77,43-.57-18-3.37-41.83-17.6-55.87-3,3.74-8.42,18.34-8.24,23.58-4.86-2.24-7.3-24-7.3-28.64-3.74,6.37-17.12,50,.85,85.92-7.87-3.09-16.57-22.74-18-27.51-.57,10.38-1.13,27.79,1.12,37.9C265.83,322.49,248,304.7,240,279c-2.53,3.93-4.49,12.92-3.37,18.25-7.58-3.09-16-18.25-16-44.08S190.2,97.22,190.2,97.22Z"/>
      <g>
        <path class="cls-10" d="M493.27,427.89c-7.55,3.78-21,18-21.72,30.31-.29,5.2,20.21,2.81,26.25,1,.14,2.52-.14,4.63,7.58,4.35s32.33-2.76,37.65-19.72C545.58,434.24,508,422.1,493.27,427.89Z"/>
        <path class="cls-4" d="M488.91,460.82a62.41,62.41,0,0,0,8.33-1.48c.46-8.2,2.28-15.21,6.86-24.32C494.81,439.14,490.44,450.3,488.91,460.82Z"/>
        <path class="cls-4" d="M529.15,431.71c.79,16.06-10.78,27.93-25.72,31.84.59,0,1.22,0,1.95,0,7.72-.28,32.33-2.76,37.65-19.72C544.12,439.72,537.84,435.15,529.15,431.71Z"/>
      </g>
      <g>
        <path class="cls-10" d="M393.76,421c-5.42,3.18-15.34,21.53-15.34,24.9s8.42,1.5,12.73,0c-.56,2.81-.56,5.71,5.89,7S416.79,456,429,449.41s16-13.71,15-17C441,422.83,414.39,414.45,393.76,421Z"/>
        <path class="cls-4" d="M384.7,447.48a39.37,39.37,0,0,0,6.41-1.62c2.14-7.11,6.12-11.9,11.36-17.8C394,432.31,387.87,436.72,384.7,447.48Z"/>
        <path class="cls-4" d="M444,432.39c-1.29-4.19-7.11-8.14-15-10.73,3.95,18.47-12.44,30.13-30,31.57,6.94,1.2,18.91,2.13,30-3.82C441.13,442.85,445,435.7,444,432.39Z"/>
      </g>
      <g>
        <path class="cls-10" d="M306.54,487c5,.08,9.17-10.11,14.22-18.72.57,5.15,4.56,17.83,8.85,18.72,6.78,1.4,27.53-11.44,25.63-33.47-2.19-13.61-41.59-16.39-53.36-5.18C287.63,462,296.43,486.19,306.54,487Z"/>
        <path class="cls-4" d="M306.51,487h0c5,.08,9.12-10,14.12-18.54.12-5.92-.24-9.81,2.12-16.79C313.74,461.74,313.23,476,306.51,487Z"/>
        <path class="cls-4" d="M355.24,453.56c-.86-5.33-7.43-9-15.81-10.81,6.8,15.43,2.65,32-8.34,44.37C339,486.74,357,474.17,355.24,453.56Z"/>
      </g>
      <g>
        <path class="cls-10" d="M208.13,436.57c-9.79,5.21-27,29.3-25.14,34.55s15.49-.14,17.18-1.12c-1.69,4.07-3.37,8.84,3.51,10.39s35.1,2.15,46.89-14.14c2.24-5.24-2.58-16.86-17-24.83S208.13,436.57,208.13,436.57Z"/>
        <path class="cls-4" d="M189.84,473.21a40.24,40.24,0,0,0,9.43-2.77c3.58-8.74,9.27-16.31,14.19-23.55C204.41,454.93,194.86,461.94,189.84,473.21Z"/>
        <path class="cls-4" d="M233.53,441.42q-.54-.3-1.08-.57c9.22,21.15-6.56,37.53-28.33,39.62,7.55,1.48,34.89,1.75,46.45-14.22C252.81,461,248,449.39,233.53,441.42Z"/>
      </g>
      <path class="cls-11" d="M352.41,37.76c12.62,8.47,13.5,24.61,14.89,40.13,2.59,28.88-11.2,122.41,0,160.86,16.81,13.74,40.17,6.2,56.15,14.77a78.44,78.44,0,0,0,42.07,8.78c33-2.05,71.71-9.32,83.27-37.81,2-30.14-11.37-61.43-24.32-92.49C512.9,104.26,506,80.86,480.12,67.05l-79-3.28Z"/>
      <path class="cls-12" d="M357.45,38.63c12.62,8.17,13.5,23.73,14.89,38.7,2.59,27.85-11.2,118.05,0,155.14,16.81,13.24,40.17,6,56.15,14.24a81,81,0,0,0,42.07,8.47c33-2,71.71-9,83.27-36.46,2-29.08-11.37-59.25-24.32-89.21-11.57-26.74-18.43-49.31-44.35-62.63l-79-3.17Z"/>
      <path class="cls-13" d="M400.49,124.92s13.16,60.21,19.82,80.72,120.06-4.41,120.06-4.41l-28.78-81.18Z"/>
      <path class="cls-14" d="M410.5,128.26s11.28,51.59,17,69.16,102.87-3.78,102.87-3.78L505.7,124.09Z"/>
      <path class="cls-13" d="M465.58,62.13C476.51,60.91,496,69.06,504,75.57c2.69,2.18,9.75,15.92,10.84,19.2,4.65,14,6.47,36.06,11.12,50-37.88,8.45-76.42,8.82-115.15,11.31-6.14.39-13.46.16-16.85-5-1.64-2.5-1.92-5.62-2.11-8.61-1.64-24.67-1.15-49.61-5.88-73.88-1.82-9.32-7.48-19.42-15.72-24.15C399.35,59.29,433.73,65.68,465.58,62.13Z"/>
      <path class="cls-15" d="M514.84,130.88c-32.15,7-64.87,7.36-97.74,9.43-5.21.34-11.42.13-14.29-4.16-1.38-2-1.63-4.6-1.79-7.05,0,0,0-.08,0-.13-.5-7.48-.78-15-1.11-22.48-.57-13.15-1.33-26.27-3.88-39.17-1.55-7.78-4.32-13.31-11.31-17.24,24.69,12.34,51.85,14.77,78.87,11.81,9.29-1,25.81,5.78,32.62,11.21,2.28,1.82,8.27,13.29,9.2,16a102.09,102.09,0,0,1,3.08,12.17c1.08,5.36,2,11.08,3.09,16.49A110.11,110.11,0,0,0,514.84,130.88Z"/>
      <path class="cls-16" d="M511.57,117.79a30.35,30.35,0,0,1-14.94.27c-3.54-.84-6.94-2.32-10.56-2.66-8-.76-15.32,4.1-22.88,6.83a44.73,44.73,0,0,1-22.93,2c-5.87-1-11.61-3.26-17.57-3.08-7.78.25-14.62,4.47-21.67,8,0,0,0-.08,0-.13-.5-7.48-.78-15-1.11-22.48,11.44-2.86,21.83-1.72,34.05-.55a92.62,92.62,0,0,0,35.41-3.55c5.32-1.62,10.67-3.74,16.23-3.49,4.14.18,8.1,1.67,12.19,2.33a37.61,37.61,0,0,0,10.7.07C509.56,106.66,510.51,112.38,511.57,117.79Z"/>
      <g>
        <path class="cls-17" d="M483,266.42c-4-8.27-11.5-19.05-25.86-31.17,0,0-35.19,18.28-30.38,38.93,3.19,13.67,28.66,13.26,45.51,11.41A13.48,13.48,0,0,0,483,266.42Zm-16,11.66c-11.74,1.28-29.48,1.57-31.7-7.94C432,255.76,456.49,243,456.49,243c10,8.44,15.25,15.94,18,21.7A9.39,9.39,0,0,1,467,278.08Z"/>
        <path class="cls-18" d="M448.83,238.56l4.05,8.5s2-6.21,7.63-.45l7.36-6.63S457.56,225.72,448.83,238.56Z"/>
      </g>
      <path class="cls-17" d="M448.11,154s8.49,50,7.18,82.23l5.69-.9s-1.14-52.18-7.33-81.33"/>
      <path class="cls-15" d="M291.65,210.69c0,48.38-32.57,87.61-72.76,87.61-25.65,0-48.19-16-61.15-40.11C177,274,200.43,280.44,221.9,273.34c38.15-12.62,55.75-63.16,39.31-112.88a120,120,0,0,0-15.63-31.28C272.56,142,291.65,173.65,291.65,210.69Z"/>
      <g>
        <g>
          <path class="cls-18" d="M114.53,126.94A136.06,136.06,0,0,1,81,131.51c-20.16.26-45.29-4.09-63.36-23.1C-8.52,80.93,4.23,34.08,13.77,13.92,17.06,7,20,3.2,20.77,4.46c3.76,5.78,0,38.6,0,38.6.84,54.3,88.68,40.64,88.68,40.64C121.49,97.49,114.53,126.94,114.53,126.94Z"/>
          <path class="cls-19" d="M84.37,111.51,83,129.5c-20.15.26-45.29-4.09-63.35-23.1C-6.48,78.92,6.27,32.07,15.82,11.91c-3.94,15.81-7.54,42.64,4.31,66.51C38.3,115,84.37,111.51,84.37,111.51Z"/>
        </g>
        <path class="cls-20" d="M72.85,127.06c-14.06,4-23,10.92-34.69,24.67C30.3,161,22.85,178.07,18.08,182.52c9.83,4.45,43.39,2,52.68-13.71C75.74,157.21,72.85,127.06,72.85,127.06Z"/>
        <g>
          <path class="cls-21" d="M37.17,173.12c3.37-7.77,20.69-27.61,34.82-29.77-.09,6.84-1.12,16.76-2.34,18.54C61.79,167.13,45.41,174.15,37.17,173.12Z"/>
          <path class="cls-22" d="M38.45,170.68c9-6,14.65-17.05,26.24-20.21,2.6-.92,2,5.31.42,7.82-4.6,7.24-19,12-27.79,14.52l-.15.31c8.24,1,24.62-6,32.48-11.23,1.22-1.78,2.25-11.7,2.34-18.54C59.16,145.31,43.71,161.84,38.45,170.68Z"/>
          <path class="cls-6" d="M38.93,174.34a15.9,15.9,0,0,1-1.89-.11L35.55,174l.59-1.37c3.45-7.94,21-28.18,35.68-30.43l1.31-.2,0,1.33c-.07,5.32-.91,16.78-2.53,19.15l-.13.18-.18.12C63,167.65,48.1,174.34,38.93,174.34Z"/>
        </g>
        <g>
          <path class="cls-23" d="M244.43,131.76c-2,18,2.77,31.16,8.67,49.13s6.17,52.51-15.73,69.64-47.26,19.74-57.75,29.29c-2.43,14.79-6.55,31.45-27.14,34.82s-40.8,2.43-46.42-4.87-.94-21.9,3.56-29.57c.37-3.94-38.75-37.82-45.77-53.26s-9-38.25,2.81-54.22c.56-11.48,1.12-46.46,14.88-60S159.6,90.2,190.2,97.22,244.43,131.76,244.43,131.76Z"/>
          <path class="cls-6" d="M253.1,180.89c-5.9-18-10.67-31.16-8.67-49.13,0,0-7.17,26-9.3,23.85-3.28,21.94,6.27,34.17,1.4,61.12-4.41,24.42-25.86,39.88-49.44,45.49,0-6.74,0-10.48-3.35-16.29-10.11,19.1-7.86,46.05-28.08,57.28-14,7.88-33.69,9.64-50.68,3.37,2.81,11.05,27.67,10.17,46.65,7.07,20.59-3.37,25.56-19,28-33.83,10.49-9.55,35.85-12.17,57.75-29.29S259,198.86,253.1,180.89Z"/>
          <path class="cls-6" d="M200.87,163.07c0,21.08-12.06,38.16-26.93,38.16S147,184.15,147,163.07s12.06-38.15,26.93-38.15S200.87,142,200.87,163.07Z"/>
          <path class="cls-2" d="M179.8,284.22l-2.22-.34c2.31-15.29,6-23.21,6.13-23.54C183.71,260.34,182.06,269.29,179.8,284.22Z"/>
        </g>
        <g>
          <path class="cls-24" d="M120.71,268.39c-5.62,9.41-13.34,33.28,6.74,34.68s29.06-10.25,36.08-25.41,13.76-42.59,10.39-53.44C152.3,247.34,120.71,268.39,120.71,268.39Z"/>
          <g>
            <path class="cls-25" d="M146.68,265c-23.1,7.53-27.5,22.88-27.46,35.36a15.34,15.34,0,0,0,8.23,2.68c20.07,1.4,29.06-10.25,36.08-25.41,6.17-13.33,12.11-36.12,11.18-48.81A90.79,90.79,0,0,1,146.68,265Z"/>
            <path class="cls-26" d="M143.93,268.37l1.39,1.76c-10,7.92-7.12,21.9-7.09,22S132.89,277.15,143.93,268.37Z"/>
            <path class="cls-27" d="M130.66,303.87h0c-1.06,0-2.17,0-3.28-.11a16.66,16.66,0,0,1-8.82-2.89l-.45-.33V300c0-17.88,9.38-30.05,28-36.17a89.13,89.13,0,0,0,27.53-35.4l1.81-4.38.35,4.72c.95,12.83-5.07,35.74-11.28,49.1C158.25,291.36,149.79,303.87,130.66,303.87Z"/>
          </g>
        </g>
        <g>
          <path class="cls-24" d="M120.85,262.47c-5.62,9.41-13.34,33.27,6.73,34.68s29.07-10.25,36.09-25.41,13.75-42.59,10.38-53.45C152.43,241.41,120.85,262.47,120.85,262.47Z"/>
          <g>
            <path class="cls-25" d="M146.82,259.1c-23.1,7.54-27.5,22.89-27.46,35.36a15.25,15.25,0,0,0,8.22,2.69c20.08,1.4,29.07-10.25,36.09-25.41,6.16-13.33,12.11-36.12,11.18-48.82A90.65,90.65,0,0,1,146.82,259.1Z"/>
            <path class="cls-26" d="M144.06,262.45l1.4,1.76c-10,7.91-7.12,21.89-7.09,22S133,271.22,144.06,262.45Z"/>
            <path class="cls-28" d="M130.79,298h0c-1.07,0-2.17,0-3.28-.12a16.63,16.63,0,0,1-8.82-2.88l-.46-.34v-.56c0-17.89,9.38-30.05,28.05-36.17a89.14,89.14,0,0,0,27.53-35.41l1.81-4.38.35,4.72c.95,12.83-5.07,35.75-11.29,49.1C158.39,285.44,149.93,298,130.79,298Z"/>
          </g>
        </g>
        <path class="cls-6" d="M92.72,165.49c-1.42,16.3-9.08,29-17.11,28.26s-13.4-14.49-12-30.79,9.08-29,17.12-28.26S94.14,149.18,92.72,165.49Z"/>
        <g>
          <path class="cls-5" d="M85.63,136s6,6.47,5,23.74-5.38,29.8-11.37,37.72c-8.53,11.28-25.64,16.85-23.4,29S93.61,279.63,136,272.61c18.81-5.62,34.82-20.5,43.24-53.07Z"/>
          <path class="cls-29" d="M61.32,225.72c1.85-11.8,12.67-10.95,23.87-28.08C92.62,186.27,99.51,157,88.1,139.2a62.48,62.48,0,0,1,2.56,20.53c-1,17.27-5.38,29.8-11.37,37.72-8.53,11.28-25.64,16.85-23.4,29a16.85,16.85,0,0,0,1.48,4.08A11,11,0,0,1,61.32,225.72Z"/>
          <path class="cls-6" d="M170.68,219.6c-24,52.68-60.56,30.12-97.47,30.72C88,264,110.78,276.78,136,272.61c18.81-5.62,34.82-20.5,43.24-53.07C179.25,219.54,171.57,217.65,170.68,219.6Z"/>
          <path class="cls-2" d="M126.11,274.55c-19.07,0-35.16-8.83-45.89-16.92-14.34-10.81-24.19-24.23-25.43-31-1.55-8.42,5.25-13.79,12.45-19.48,4-3.17,8.14-6.44,11.16-10.42,6.39-8.44,10.24-21.27,11.14-37.1.94-16.51-3.91-23.68-3.91-23.68.29.24,7.16,6.18,6.15,23.81-.92,16.27-4.93,29.53-11.59,38.33C77,202.34,72.75,205.7,68.63,209c-6.94,5.49-12.94,10.23-11.63,17.31,2.09,11.31,36.89,52.14,78.76,45.25,21.07-6.32,34.94-23.41,42.4-52.25l2.18.56c-7.68,29.7-22.08,47.32-44,53.86l-.14,0A61.66,61.66,0,0,1,126.11,274.55Z"/>
          <path class="cls-30" d="M186.62,225.07a22.55,22.55,0,0,0-7.75-4.07,52.75,52.75,0,0,0-9-1.46s4.88-1.95,9.52-.71S186.62,225.07,186.62,225.07Z"/>
        </g>
        <g>
          <path class="cls-31" d="M233.23,159.57s8.35,19,28.29,29.92,35.94,15.59,43.38,16.15c-2.11-3.79-7.86-12.92-9.27-16,5.06,1.54,17.41,10.38,20.64,13.05-.14-9.4-10.53-31.59-26.25-47.59s-36.83-17.36-55.74-17.18Z"/>
          <path class="cls-29" d="M316.24,202c-.63-9.77-10.89-31.25-26.22-46.86-14.11-14.36-32.56-16.93-49.86-17.17a8.15,8.15,0,0,1,.86,3.55C283,141.49,298.15,169.61,316.24,202Z"/>
          <path class="cls-6" d="M316.22,201.65c-6.25-9-19.35-15.53-28.25-21.46,1.07,7.34,4,10.78,7.38,16.4-25-5.77-45.06-18.89-61.92-36.59,1.36,2.85,9.91,19.51,28.09,29.49,19.93,11,35.94,15.59,43.38,16.15-2.11-3.79-7.86-12.92-9.27-16,5.06,1.54,17.41,10.38,20.64,13.05C316.27,202.36,316.25,202,316.22,201.65Z"/>
          <path class="cls-6" d="M251.69,150.22c10.25,2,35.33,14.85,39.45,31.41-10.39-.28-34.56-10.17-44.09-21.09C244.25,157.63,245.23,149.06,251.69,150.22Z"/>
        </g>
        <g>
          <path class="cls-32" d="M235.48,94.32c2.43.64,7.69,1.67,9,1.79-1-4.61-17-24.68-51.84-31.42-10-8.71-53-26.72-84.47,5.66-12.36,3-31.07,12.54-35,33.88s-3,29.92-.71,33.29c4.87-6.55,8.76-14,19.06-23.18-.75,6.92-4.31,21.71,4.68,31.63.56-6,4.21-13.85,5.24-15.53-.37,7.48,1.22,31.62,14.55,41.33-.28-7.69,2.81-26.5,11.52-36.75-.57,4.07-1.48,11.37-.28,14,3.08-5.05,23.44-19.51,28.49-31.59.57,6-2.66,17.55-5.89,22.89,6.74-.42,28.36-19,34.39-30.33.71,10.81,8.75,31.26,23,40.81-2.62-9.73-2.81-22.65-1.5-29.95,4.31,7.86,9.55,17.41,19.66,26.21C224.36,130.62,227.89,102.19,235.48,94.32Z"/>
          <path class="cls-33" d="M244.43,96.11c-.48-2.14-4.19-7.61-11.5-13.54-11.75,12.58-13.75,36.6-12.7,53.42-6.25-6.11-12.34-18.38-14.59-29.61-4.49,9-5,19.38-7.3,28.36-7.86-11.23-9.64-24.33-10.76-38.93-7.58,13.1-18.44,23.91-28.55,34,1.83-9.13,4.18-18.39-1.44-26.25-4.55,11.88-15.4,22.18-25.51,31.16-1.12-6.74-.56-11.23.28-18.16-6.74,12.36-17.69,21.44-21.62,39.5-3.37-13.48-4.49-28.08-4.49-42.68-4.5,5.62-9,11.23-10.11,19.1-3.37-9-1.12-18,0-27C86,108.91,80.58,120.3,75,128.16c-2.34-9.42-2.08-15.35-1.37-26.12q-.27,1.06-.48,2.19c-3.93,21.34-2.84,29.2-.59,32.57,4.87-6.55,8.64-13.29,18.94-22.46-.75,6.92-4.31,21.71,4.68,31.63.56-6,4.21-13.85,5.24-15.53-.37,7.48,1.22,31.62,14.55,41.33-.28-7.69,2.81-26.5,11.52-36.75-.57,4.07-1.48,11.37-.28,14,3.08-5.05,23.44-19.51,28.49-31.59.57,6-2.66,17.55-5.89,22.89,6.74-.42,28.36-19,34.39-30.33.71,10.81,8.75,31.26,23,40.81-2.62-9.73-2.81-22.65-1.5-29.95,4.31,7.86,9.55,17.41,19.66,26.21-.94-16.48,2.59-44.91,10.18-52.78C237.91,95,243.17,96,244.43,96.11Z"/>
        </g>
        <g>
          <path class="cls-34" d="M43.06,218.42c11.42-2.44,18.25,2.71,33.7,2.9s31.43-7,41.83-2.9S131,229,132.77,238.35c3,16,14.6,21,8,33s-21.47,14.14-35.09,12S82,275.13,76.62,277.1,66,289.29,55.89,286.93c-11.42-2.67-8.9-17-12.85-26.09-4.25-9.77-9.53-15.77-10.37-25.11S36.23,220.47,43.06,218.42Z"/>
          <g>
            <path class="cls-24" d="M48.55,236.39C46.86,244.25,43.77,258.57,53,258S56.13,240.6,48.55,236.39Z"/>
            <path class="cls-35" d="M52.54,239.86c1.69,7.34,1.62,15.06-5.83,10.85C47,255,48.53,258.28,53,258,60.58,257.55,57.89,246.3,52.54,239.86Z"/>
          </g>
          <g>
            <path class="cls-24" d="M106.18,241.39c1.68,7.86,4.77,22.18-4.5,21.62S98.6,245.6,106.18,241.39Z"/>
            <path class="cls-35" d="M106.41,242.49c.08,6.06-2.3,19.66-9.11,12.4-.84,4.26.18,7.86,4.38,8.12C110.53,263.55,108.12,250.51,106.41,242.49Z"/>
          </g>
        </g>
        <path class="cls-18" d="M343.22,118.58c-41.47,36.93-116.91,15.53-116.91,15.53a64.68,64.68,0,0,1-1.19-12.34c0-8.77,1.7-20.28,9.56-27.91,0,0,103.79,13.68,104.79-40.63,0,0-4.46-32.83,0-38.61,1.66-2.17,10.77,10.81,16.74,29.14C363.7,66.71,366.28,98.06,343.22,118.58Z"/>
        <path class="cls-19" d="M342.26,117.94C300.79,154.86,227.56,133,227.56,133a74.82,74.82,0,0,1-1.13-12.68c34.24,7.61,69.75,4.79,101.26-10.65,9.16-4.49,16.48-9.67,21.95-18.29,8.12-12.79,6.59-32.68,5-47.74h0C362.1,66.61,365.32,97.41,342.26,117.94Z"/>
        <path class="cls-36" d="M88.73,232.46c6.36,0,13.33-.43,18-4.73-2.5-2.12-6.18-1.81-9.42-1.4-4,.52-18.81,0-21.49,2.77C72.17,232.84,86.65,232.46,88.73,232.46Z"/>
      </g>
    </g>
  </g>
</svg>
