<svg id="e61e0945-1fb8-4c1f-85c7-7a8892bd9509" data-name="Layer 1" xmlns="http://www.w3.org/2000/svg" width="70" height="50" viewBox="0 0 70 50">
  <defs>
    <style>
      .e9c28ab1-2651-4ece-aae5-6f9fac14b501 {
        fill: #ebb382;
      }

      .bc8bd7ea-ba8a-4775-9287-35368a1ece9e {
        fill: #fff;
      }

      .ac019eab-87fe-49f7-8e9d-83eba4911933 {
        fill: #ddd;
      }

      .f84f97b9-288b-42ee-980d-55582ef082e2 {
        fill: #662400;
      }

      .a184250f-c39e-428a-bd85-ad4996ca663b {
        fill: #542416;
      }

      .b8db1972-05bb-4eb0-a181-4dcedb47dca5 {
        fill: #261005;
      }

      .a3a933e5-0f80-496c-a7b8-654d1a01030d {
        fill: #cc5700;
      }

      .f455cb87-13e2-4d2d-8985-4f3c0ec7f7ab {
        fill: #f97b00;
      }

      .fd53466b-9f7d-413c-9d47-8662b4cce635 {
        fill: #feaa64;
      }

      .b16fab6c-3885-4638-bcd4-55c00a9e57b7 {
        fill: #2c2c2c;
      }

      .ab270bcd-6b87-4e18-a1ef-21dbe2f1f5d0 {
        fill: #60605e;
      }

      .a2057bbc-4eb5-4e1d-a636-5491de3a4248 {
        fill: #131313;
      }
    </style>
  </defs>
  <g>
    <g>
      <path class="e9c28ab1-2651-4ece-aae5-6f9fac14b501" d="M47.92,27.24c-1.86-5.33.16-21.66,10.13-21.77,6.83-.08,10.2,14.16,7.14,20.85S49.81,32.65,47.92,27.24Z"/>
      <path d="M47.92,27.6c-1.86-4.87,1-19.86,10.13-19.86,6.83,0,10.2,12.91,7.14,19S49.81,32.53,47.92,27.6Z"/>
      <path class="bc8bd7ea-ba8a-4775-9287-35368a1ece9e" d="M48.17,27.77c-1.82-4.64,1-18.93,9.85-18.93C64.66,8.84,67.94,21.15,65,27S50,32.48,48.17,27.77Z"/>
      <path class="ac019eab-87fe-49f7-8e9d-83eba4911933" d="M47.73,25.8a7.76,7.76,0,0,0,.44,2C50,32.48,62,32.79,65,27c1.18-2.3,1.38-5.6.78-8.77C66.23,27.15,51.92,30.49,47.73,25.8Z"/>
      <path d="M55.85,31.54h-.72c-3.61-.19-6.36-1.59-7.17-3.68h0c-1.26-3.21-.33-10.44,2.75-14.95,1.92-2.81,4.44-4.29,7.31-4.29,2.27,0,4.29,1.36,5.86,3.92,2.62,4.29,3.19,10.81,1.28,14.54C63.55,30.2,59.45,31.54,55.85,31.54ZM58,9.06c-2.71,0-5.11,1.41-6.94,4.09-3,4.4-3.92,11.43-2.7,14.54h0c.73,1.89,3.39,3.22,6.77,3.39,3.61.18,8-1,9.61-4.21,1.85-3.61,1.29-9.94-1.26-14.11C62.47,11.07,60.68,9.06,58,9.06Z"/>
      <path class="f84f97b9-288b-42ee-980d-55582ef082e2" d="M50.9,9.62C52.73,7,55.13,5.53,57.84,5.53s4.45,2,5.48,3.71a14.68,14.68,0,0,1,1,2,9.1,9.1,0,0,0-.76-2.45C62,6.37,60.05,5.09,57.84,5.09c-2.87,0-5.39,1.48-7.31,4.28l-.2.31a7,7,0,0,0-.8,2.44A15.81,15.81,0,0,1,50.9,9.62Z"/>
    </g>
    <g>
      <g>
        <path class="a184250f-c39e-428a-bd85-ad4996ca663b" d="M60.4,17.52c2.41.05,4.28,2.82,4.19,6.19s-2.14,6.05-4.55,6-4.28-2.82-4.19-6.19S58,17.47,60.4,17.52Z"/>
        <path class="b8db1972-05bb-4eb0-a181-4dcedb47dca5" d="M60.11,29.93H60a3.76,3.76,0,0,1-2.67-1.26,7.25,7.25,0,0,1-1.74-5.15c.1-3.45,2.2-6.22,4.7-6.22h.07a3.72,3.72,0,0,1,2.66,1.26,7.21,7.21,0,0,1,1.75,5.15C64.71,27.16,62.61,29.93,60.11,29.93Zm.22-12.19c-2.26,0-4.16,2.58-4.25,5.79a6.83,6.83,0,0,0,1.62,4.84,3.35,3.35,0,0,0,2.35,1.12c2.26,0,4.22-2.55,4.31-5.79a6.83,6.83,0,0,0-1.62-4.84,3.35,3.35,0,0,0-2.35-1.12Z"/>
      </g>
      <path d="M60.75,20.52c1.41,0,2.5,1.73,2.44,3.8S61.94,28,60.54,28,58,26.27,58.1,24.21,59.35,20.49,60.75,20.52Z"/>
      <path class="bc8bd7ea-ba8a-4775-9287-35368a1ece9e" d="M59.51,20a1.46,1.46,0,0,1,1.56,1.39A1.54,1.54,0,0,1,59.68,23a1.46,1.46,0,0,1-1.56-1.4A1.53,1.53,0,0,1,59.51,20Z"/>
    </g>
    <g>
      <path class="e9c28ab1-2651-4ece-aae5-6f9fac14b501" d="M13.73,3.54C9,3.54,4.09,16.27,5.81,22.64s7.72,5.86,9.52,3C19.42,19.16,19.79,3.54,13.73,3.54Z"/>
      <path d="M13.73,5.47C9,5.47,4.09,17.18,5.81,23s7.42,5.28,9.22,2.65C19.12,19.73,19.79,5.47,13.73,5.47Z"/>
      <path class="bc8bd7ea-ba8a-4775-9287-35368a1ece9e" d="M13.65,6.45c-4.52,0-9.22,11.19-7.57,16.79s7.09,5,8.81,2.54C18.8,20.08,19.44,6.45,13.65,6.45Z"/>
      <path class="ac019eab-87fe-49f7-8e9d-83eba4911933" d="M5.77,21.4a8,8,0,0,0,.31,1.84c1.64,5.6,7.09,5,8.81,2.54a19.44,19.44,0,0,0,2.72-7.68C15.75,23.94,7.7,26.47,5.77,21.4Z"/>
      <path d="M11.12,27.82a4.4,4.4,0,0,1-.8-.07c-1.23-.19-3.46-1-4.46-4.45-1.2-4.09.86-10.67,3.54-14.24,1.39-1.86,2.86-2.84,4.25-2.84h0A3.72,3.72,0,0,1,17,8.48c2.12,4,1.13,13-1.92,17.42A4.82,4.82,0,0,1,11.12,27.82ZM13.65,6.67c-1.25,0-2.59.92-3.89,2.66C7.2,12.74,5.14,19.27,6.29,23.18c.93,3.17,3,3.95,4.1,4.13a4.48,4.48,0,0,0,4.32-1.66c3-4.34,3.94-13.06,1.88-17a3.25,3.25,0,0,0-2.94-2Z"/>
      <path class="f84f97b9-288b-42ee-980d-55582ef082e2" d="M10,6.35c1.3-1.74,2.64-2.66,3.89-2.66h0a3.25,3.25,0,0,1,2.94,2A15.5,15.5,0,0,1,18,8.92a6,6,0,0,0-.46-2.8c-.09-.22-.19-.43-.29-.62a3.71,3.71,0,0,0-3.34-2.25h0c-1.35,0-2.76.91-4.11,2.64a9.35,9.35,0,0,0-1.65,3A23,23,0,0,1,10,6.35Z"/>
    </g>
    <g>
      <g>
        <path class="a184250f-c39e-428a-bd85-ad4996ca663b" d="M15.17,14.43c1.67.74,2.38,3.69,1.58,6.59S13.94,25.69,12.26,25s-2.38-3.68-1.58-6.58S13.49,13.7,15.17,14.43Z"/>
        <path class="b8db1972-05bb-4eb0-a181-4dcedb47dca5" d="M13.05,25.34a2.23,2.23,0,0,1-.88-.18c-1.77-.78-2.54-3.85-1.71-6.85a6.16,6.16,0,0,1,2.83-4,2.31,2.31,0,0,1,2-.07h0C17,15,17.79,18.08,17,21.08a6.12,6.12,0,0,1-2.82,4A2.45,2.45,0,0,1,13.05,25.34Zm1.33-10.85a2,2,0,0,0-.9.22,5.77,5.77,0,0,0-2.59,3.72c-.77,2.79-.12,5.63,1.46,6.32a1.88,1.88,0,0,0,1.6-.07A5.82,5.82,0,0,0,16.53,21c.77-2.8.12-5.63-1.45-6.32h0A1.73,1.73,0,0,0,14.38,14.49Z"/>
      </g>
      <path d="M14.76,17.15c1,.43,1.37,2.22.88,4S14,24,13,23.61s-1.37-2.22-.88-4S13.79,16.72,14.76,17.15Z"/>
      <path class="bc8bd7ea-ba8a-4775-9287-35368a1ece9e" d="M14,16.38a1.14,1.14,0,0,1,.78,1.43,1.21,1.21,0,0,1-1.44.83,1.14,1.14,0,0,1-.78-1.43A1.21,1.21,0,0,1,14,16.38Z"/>
    </g>
    <path class="a3a933e5-0f80-496c-a7b8-654d1a01030d" d="M47.85,23.2C48,18.6,50.32,8.84,58,8.84c6,0,9.24,10,7.65,16.22C63.74,27,49.48,27.38,47.85,23.2Z"/>
    <path class="a3a933e5-0f80-496c-a7b8-654d1a01030d" d="M13.65,6.45c-3.85,0-7.84,8.15-7.91,14,0,1,10.69,2.47,11.2.71C18.78,14.82,18.19,6.45,13.65,6.45Z"/>
    <g>
      <path class="f455cb87-13e2-4d2d-8985-4f3c0ec7f7ab" d="M20.84,9.43c-.53,7-3.83,11.82-7.87,15.71-4.19,4-12.14,9.15-7.83,13.44C14.62,30.24,25.81,22.46,20.84,9.43Z"/>
      <path class="fd53466b-9f7d-413c-9d47-8662b4cce635" d="M20.84,9.43c-.53,7-3.83,11.82-7.87,15.71-4.19,4-12.14,9.15-7.83,13.44C1.85,30,22.94,25.32,20.84,9.43Z"/>
      <path class="f84f97b9-288b-42ee-980d-55582ef082e2" d="M5,38.74a3.94,3.94,0,0,1-1.3-3c.09-2.86,3.54-5.85,6.58-8.49.93-.8,1.8-1.56,2.55-2.29,5-4.85,7.59-9.81,8-15.61a7.54,7.54,0,0,1-.07,3.44c-1.05,4.5-3.53,8.53-7.65,12.49-.76.74-1.64,1.5-2.56,2.3-3,2.59-6.35,5.51-6.44,8.18A3.49,3.49,0,0,0,5.3,38.42Z"/>
    </g>
    <g>
      <path class="b16fab6c-3885-4638-bcd4-55c00a9e57b7" d="M4,37.1C4.18,35.46,7.41,34,11.86,34c5.3,0,10.46,3.12,10.11,4.47-.67,2.62-7.08,8.29-9.85,8.06C9.66,46.33,3.61,39.73,4,37.1Z"/>
      <path class="ab270bcd-6b87-4e18-a1ef-21dbe2f1f5d0" d="M13.53,35.53c0,.53-1.29,1-3,1.14s-3-.25-3.08-.78,1.3-1,3-1.15S13.5,35,13.53,35.53Z"/>
      <path class="a2057bbc-4eb5-4e1d-a636-5491de3a4248" d="M4,37.1c3.14,6.63,15.66,5.1,18,1.36-.67,2.62-7.08,8.29-9.85,8.06C9.66,46.33,3.61,39.73,4,37.1Z"/>
      <path d="M12.27,46.75H12.1c-1.53-.13-4.16-2.45-6-4.68-.79-1-2.61-3.43-2.4-5h0c.24-1.87,3.74-3.29,8.12-3.31h.05c4.37,0,8.73,2.16,9.94,3.71a1.26,1.26,0,0,1,.34,1.05C21.5,41.21,15.18,46.75,12.27,46.75ZM4.18,37.13c-.13,1,.74,2.71,2.31,4.66,2,2.47,4.43,4.41,5.65,4.51h.15c2.72,0,8.82-5.41,9.46-7.9.05-.16-.05-.39-.25-.66-1.16-1.48-5.35-3.54-9.58-3.54h-.06c-4.57,0-7.49,1.5-7.68,2.92Z"/>
    </g>
  </g>
</svg>
