<svg id="b1dbeecb-9964-4387-bfc0-57853dc99d0d" data-name="Layer 1" xmlns="http://www.w3.org/2000/svg" width="82.35" height="62.12" viewBox="0 0 82.35 62.12">
  <defs>
    <style>
      .b24d2dd3-e876-48cc-8151-d0186fa22f29, .f5162f4d-d569-4db7-a316-3eb46b08d7f2 {
        fill: #fff;
      }

      .f5162f4d-d569-4db7-a316-3eb46b08d7f2 {
        stroke: #702840;
      }

      .bd6c7b7b-8c09-4236-9a4b-fe229512cc5f, .f5162f4d-d569-4db7-a316-3eb46b08d7f2 {
        stroke-miterlimit: 10;
        stroke-width: 0.75px;
      }

      .b425e7ac-648f-4d6b-8878-711ee453198b {
        fill: #210a11;
      }

      .bd6c7b7b-8c09-4236-9a4b-fe229512cc5f {
        fill: #ffe309;
        stroke: #665608;
      }
    </style>
  </defs>
  <g>
    <g>
      <g>
        <path class="f5162f4d-d569-4db7-a316-3eb46b08d7f2" d="M38.4,32a23.43,23.43,0,0,1-.59,4.92c-2.2,9.74-9.83,16.37-17,14.81S9.53,41,11.74,31.25a23.78,23.78,0,0,1,2.42-6.37c3.39-6.08,9.13-9.64,14.61-8.45C34.74,17.73,38.54,24.25,38.4,32Z"/>
        <ellipse class="b425e7ac-648f-4d6b-8878-711ee453198b" cx="31.08" cy="34.32" rx="8.15" ry="6.05" transform="matrix(0.16, -0.99, 0.99, 0.16, -7.74, 59.55)"/>
        <ellipse class="b24d2dd3-e876-48cc-8151-d0186fa22f29" cx="35.01" cy="32.96" rx="2.23" ry="1.66" transform="translate(-3.1 62.29) rotate(-80.86)"/>
      </g>
      <g>
        <path class="f5162f4d-d569-4db7-a316-3eb46b08d7f2" d="M73.38,39.07c0,9.09-5.45,16.5-12.15,16.55S49.1,48.34,49.12,39.26a21.49,21.49,0,0,1,.69-5.46c1.66-6.42,6.17-11,11.46-11.09s9.82,4.56,11.45,11A21.62,21.62,0,0,1,73.38,39.07Z"/>
        <ellipse class="b425e7ac-648f-4d6b-8878-711ee453198b" cx="67.34" cy="39.78" rx="5.5" ry="7.41" transform="translate(-2.33 4.23) rotate(-3.54)"/>
        <ellipse class="b24d2dd3-e876-48cc-8151-d0186fa22f29" cx="70.65" cy="37.03" rx="1.51" ry="2.03" transform="translate(-2.15 4.43) rotate(-3.54)"/>
      </g>
      <path class="b425e7ac-648f-4d6b-8878-711ee453198b" d="M59.25,14.29s5.56.67,11.86,7.37C71.11,21.66,62.46,4.87,59.25,14.29Z"/>
      <path class="b425e7ac-648f-4d6b-8878-711ee453198b" d="M37.64,7.84s-5.51-1.23-14,2.22c-.38.15-.77.31-1.17.49l.31-.25C25,8.59,37.91-1.28,37.64,7.84Z"/>
    </g>
    <path class="bd6c7b7b-8c09-4236-9a4b-fe229512cc5f" d="M36.76,30.66h0a26.94,26.94,0,0,0-7.46-3.83,43.34,43.34,0,0,0-15.14-1.94c3.39-6.08,9.13-9.64,14.61-8.45,6,1.3,9.77,7.82,9.63,15.56A20.3,20.3,0,0,0,36.76,30.66Z"/>
    <path class="bd6c7b7b-8c09-4236-9a4b-fe229512cc5f" d="M72.72,33.71c-.89-.1-1.79-.17-2.7-.24-1.81-.13-3.64-.2-5.43-.23-6.19-.09-11.87.31-14.78.56,1.66-6.42,6.17-11,11.46-11.09S71.09,27.27,72.72,33.71Z"/>
  </g>
</svg>
