<svg id="beedf5ea-2841-4764-9a4e-c3f2805c81dd" data-name="Layer 1" xmlns="http://www.w3.org/2000/svg" width="150" height="160" viewBox="0 0 150 160">
  <defs>
    <style>
      .afef8d81-9134-4c7d-97ad-83d2aa5a0a17, .b386a62d-07e0-4b5b-ba6c-497053c39ac1 {
        fill: #ffe309;
      }

      .b386a62d-07e0-4b5b-ba6c-497053c39ac1, .e77e3363-eacd-4805-a07a-8e162894410b {
        stroke: #665608;
      }

      .afef8d81-9134-4c7d-97ad-83d2aa5a0a17, .b386a62d-07e0-4b5b-ba6c-497053c39ac1, .bdc2c302-51bd-4e64-8ef4-5e245311c536, .e77e3363-eacd-4805-a07a-8e162894410b {
        stroke-miterlimit: 10;
      }

      .afef8d81-9134-4c7d-97ad-83d2aa5a0a17, .b386a62d-07e0-4b5b-ba6c-497053c39ac1, .e77e3363-eacd-4805-a07a-8e162894410b {
        stroke-width: 0.75px;
      }

      .afef8d81-9134-4c7d-97ad-83d2aa5a0a17 {
        stroke: #493c05;
      }

      .f9490605-f3e5-47b8-9efa-02f95e7463b5 {
        fill: #ecc516;
      }

      .bdc2c302-51bd-4e64-8ef4-5e245311c536 {
        fill: #532900;
        stroke: #3a1c03;
      }

      .bd440458-26dc-4b02-a0d1-0f10a2ea3bc6 {
        fill: #681a1a;
      }

      .b1e7d914-d8b2-41e8-9456-466d9be5723f {
        fill: #ef7089;
      }

      .a0bd3a1f-9966-473f-9b31-4d1518a5a49e {
        fill: #ff5763;
      }

      .fbb87a4f-ec6f-46f7-8d48-6c3cc679ca58 {
        fill: #fff;
      }

      .e3fa3cf5-9eeb-4543-ac2f-73bb9ddbb544 {
        fill: #ef304c;
      }

      .be5b1dd4-b703-48d9-9071-793bdbdcbe18 {
        fill: #ffa979;
      }

      .e77e3363-eacd-4805-a07a-8e162894410b {
        fill: none;
      }
    </style>
  </defs>
  <g>
    <g>
      <g>
        <path class="b386a62d-07e0-4b5b-ba6c-497053c39ac1" d="M45.45,135.15s1.4,4.34-3.54,5.5-8.93.08-8.91,5.13.51,10.47,5.55,10.45,4-7,7.88-6.9,11-1.71,9.72-10.53S45.45,135.15,45.45,135.15Z"/>
        <g>
          <path class="b386a62d-07e0-4b5b-ba6c-497053c39ac1" d="M84.37,104.24s-1.79,3.21,8.61,18.4c0,0,4.08,6.28,7.46,8.92s7,8.86,6.44,11.64-3.25,5-4.82.66l.24-5s2.12,5-3.86,6.26-.13-7-.13-7L95,143s-5-.71-.83-7.78c0,0-3.29.12-11.43-8.93s-12.68-21-12.68-21Z"/>
          <path class="afef8d81-9134-4c7d-97ad-83d2aa5a0a17" d="M100.69,115.68a43.32,43.32,0,0,1-10.18,15.5,32.77,32.77,0,0,1-10.68,6.7h0a41.94,41.94,0,0,1-9.47,2.41c-.61.09-1.23.16-1.84.21a44.19,44.19,0,0,1-13.41-.79,62.22,62.22,0,0,1-21.46-9.46c-1.29-.85-2.45-1.68-3.48-2.43-7.77-5.68-14.22-5.9-14.22-5.9,4.85-2.21,7.54-7.46,10.66-13,2.83-5.1,6-10.47,11.53-14,.28-.19.56-.38.87-.55a28.8,28.8,0,0,1,5.64-2.56,38.58,38.58,0,0,1,9.19-1.83l.25,0a51.9,51.9,0,0,1,8.72.06,41.21,41.21,0,0,1,5.19.72c10.69,2.43,15.28-4.81,15.28-4.81l20.2,21.73A78.23,78.23,0,0,1,100.69,115.68Z"/>
          <path class="f9490605-f3e5-47b8-9efa-02f95e7463b5" d="M100.54,114.4c-5.09.39-10.61-.81-17-3C70.22,106.88,61,98.2,62.21,91.57a42.32,42.32,0,0,1,7.43-.16,31.89,31.89,0,0,1,4.39.53c9,2,13.14-4.77,13.14-4.77l16.67,19.39C103.06,109.22,101.48,112.08,100.54,114.4Z"/>
          <path class="bdc2c302-51bd-4e64-8ef4-5e245311c536" d="M34.16,130.09c-1.28-.84-3-1.52-4-2.27-7.77-5.68-14.22-5.9-14.22-5.9,4.85-2.21,8.09-8,11.21-13.55C26.22,113,26.11,121.86,34.16,130.09Z"/>
          <path class="bdc2c302-51bd-4e64-8ef4-5e245311c536" d="M90.51,131.18a32.77,32.77,0,0,1-10.68,6.7h0c-5.26-1.79-14.71-6.89-22.95-21.28-5-8.85-4.92-18.47-3-26.7a51.93,51.93,0,0,1,9,0c-1.4,6.51-1.93,17.26,5.83,26.87A40.8,40.8,0,0,0,90.51,131.18Z"/>
          <path class="bdc2c302-51bd-4e64-8ef4-5e245311c536" d="M68.51,140.5a44.19,44.19,0,0,1-13.41-.79c-5.76-3-13.4-8.32-17.28-17-4.75-10.61-2.74-20.15.31-27.85.28-.19.56-.38.87-.55a28.8,28.8,0,0,1,5.64-2.56c-1.92,6.16-3.8,17,2,26.71C53.62,130,64.28,137.72,68.51,140.5Z"/>
          <g>
            <path class="b386a62d-07e0-4b5b-ba6c-497053c39ac1" d="M88.59,48.85S82,46.76,78.35,31.26,86.84,2.3,94.64,3.9s5.89,8.07-2.48,10.83-13.48,20.44-1,32.86C91.14,47.59,97.38,57.3,88.59,48.85Z"/>
            <path class="b386a62d-07e0-4b5b-ba6c-497053c39ac1" d="M109.07,53.7s2.13-12.47,7.12-19.57,18.66-21.85,29-14.25c0,0,2.61,3.47.24,6s-5.69,2.46-8.13-.18S114,31.26,112.16,54C112.16,54,109.76,59.69,109.07,53.7Z"/>
            <g>
              <path class="b386a62d-07e0-4b5b-ba6c-497053c39ac1" d="M128.16,102.19c-4.55,14.5-19.67,18.91-35.63,17.21h0a72.67,72.67,0,0,1-15.62-3.5c-20.54-7-27.51-21.42-19.3-41.82,6.16-15.35,20.09-27.47,36.22-27.52a33.52,33.52,0,0,1,11,1.84C125.29,55.39,134.91,80.72,128.16,102.19Z"/>
              <path class="f9490605-f3e5-47b8-9efa-02f95e7463b5" d="M93.84,119.2a73.23,73.23,0,0,1-15.61-3.52c-20.54-7-27.55-21.32-19.4-41.53C64.94,59,78.82,47,94.93,47A43.47,43.47,0,0,0,65.41,76.16C57.28,101.93,76,115.57,93.84,119.2Z"/>
              <g>
                <g>
                  <g>
                    <g>
                      <path class="bd440458-26dc-4b02-a0d1-0f10a2ea3bc6" d="M112.75,100.36s-2.33,6.84-7.37,10.86a12.86,12.86,0,0,1-4.64,2.46c-6.51,1.82-13.21-.75-15.88-8.54a5.17,5.17,0,0,1-.18-.51,25.34,25.34,0,0,1-1.05-6.9s12,6,24.49,3.82A27.63,27.63,0,0,0,112.75,100.36Z"/>
                      <path class="b1e7d914-d8b2-41e8-9456-466d9be5723f" d="M112.79,100.33a16.77,16.77,0,0,1-.83,2.33c-.32.74-.65,1.48-1,2.2a26.77,26.77,0,0,1-2.61,4.15,19.09,19.09,0,0,1-3.58,3.43,12.72,12.72,0,0,1-4.59,2.11,13.29,13.29,0,0,1-9.92-1.22,14.37,14.37,0,0,1-6.22-7.9l0,.06a18,18,0,0,1-.57-1.95c-.15-.64-.27-1.28-.37-1.92a29.68,29.68,0,0,1-.31-3.87l0-1.35L84,97a45.68,45.68,0,0,0,6.85,2.56,48,48,0,0,0,7.2,1.59,42.08,42.08,0,0,0,7.36.37c.62,0,1.23-.1,1.85-.14s1.23-.12,1.84-.22C110.35,101,111.49,100.66,112.79,100.33Zm-.07.07a22.2,22.2,0,0,1-3.56,1c-.61.13-1.23.23-1.85.3s-1.24.19-1.86.23a37.4,37.4,0,0,1-7.48-.13,47.27,47.27,0,0,1-7.35-1.44,44.47,44.47,0,0,1-7-2.56l.13-.08a27.64,27.64,0,0,0,.33,3.74,20.28,20.28,0,0,0,.9,3.63h0a13.49,13.49,0,0,0,5.74,7.43,12.73,12.73,0,0,0,9.29,1.24,14.42,14.42,0,0,0,7.93-5.12A30.11,30.11,0,0,0,112.72,100.4Z"/>
                    </g>
                    <path class="a0bd3a1f-9966-473f-9b31-4d1518a5a49e" d="M95.76,106.11c5.2,1.16,8.62,5.43,5.31,7.54a6.39,6.39,0,0,1-3,.83C87.17,113,85.23,107.16,86,103.59c1.37-.18,2.82.49,6.51,2A25.06,25.06,0,0,1,95.76,106.11Z"/>
                    <path class="bd440458-26dc-4b02-a0d1-0f10a2ea3bc6" d="M92.06,104.63a9.75,9.75,0,0,1,2.37,8.14,13.74,13.74,0,0,0-4-8.48Z"/>
                    <path class="fbb87a4f-ec6f-46f7-8d48-6c3cc679ca58" d="M98.74,108.4a25.62,25.62,0,0,1-6.74-.53,10.33,10.33,0,0,1-8.17-9.7v-.08s11.6,6,24.14,3.84C107.78,105.08,105.85,108,98.74,108.4Z"/>
                  </g>
                  <path class="e3fa3cf5-9eeb-4543-ac2f-73bb9ddbb544" d="M83,93.36a3,3,0,0,1,.36,1.44,3.39,3.39,0,0,1-.34,1.51,2.42,2.42,0,0,1-2,1.25,3,3,0,0,1-.74-.06v0A3.57,3.57,0,0,0,81.67,97a2.44,2.44,0,0,0,.94-1,4.39,4.39,0,0,0,.37-2.7Z"/>
                  <path class="e3fa3cf5-9eeb-4543-ac2f-73bb9ddbb544" d="M114.48,102.19a2.6,2.6,0,0,1-1.11-.62,3.84,3.84,0,0,1-.75-1.06,3.5,3.5,0,0,1-.24-1.28,2.48,2.48,0,0,1,.36-1.22h.05a4,4,0,0,0,.29,2.3,4.6,4.6,0,0,0,1.43,1.84Z"/>
                </g>
                <ellipse class="be5b1dd4-b703-48d9-9071-793bdbdcbe18" cx="74.65" cy="90.18" rx="4.31" ry="6.14" transform="translate(-34.78 131.79) rotate(-71.2)"/>
                <ellipse class="be5b1dd4-b703-48d9-9071-793bdbdcbe18" cx="123.17" cy="94.47" rx="6.14" ry="4.31" transform="translate(-7.58 10.8) rotate(-4.87)"/>
              </g>
            </g>
          </g>
          <path class="b386a62d-07e0-4b5b-ba6c-497053c39ac1" d="M32.18,120.37a3.52,3.52,0,0,1,6,1.59,7.71,7.71,0,0,1-.56,5.41c-2.11,3.94-6.32,8.36-11.94,8.11S19.14,140,18.24,143s-6.25,4.13-7.8-2c0,0-2.45-8.11,3.28-13.45,0,0,2-2.85,10.34-2.52C29.16,125.23,30.47,122.32,32.18,120.37Z"/>
        </g>
      </g>
      <path class="b386a62d-07e0-4b5b-ba6c-497053c39ac1" d="M60.94,109.9s-9.13,14,3.28,19.94c7.3,3.51,10.9,5.53,13.26,5.39,3.31-.2,8.55,5.54,8.41,8.11,0,0,0,5.24-3.17,2.87,0,0-2.79,6.92-11.79-.08,0,0-.87-2.77,3.63-4.41,0,0-33.58-4.36-28.13-31.94C46.43,109.78,54.21,102,60.94,109.9Z"/>
      <path class="e77e3363-eacd-4805-a07a-8e162894410b" d="M76.28,144.23s3.93-.95-4-3.19"/>
    </g>
    <line class="b386a62d-07e0-4b5b-ba6c-497053c39ac1" x1="82.72" y1="146.21" x2="83.34" y2="143.15"/>
  </g>
</svg>
