<svg id="a87d2026-331c-4401-8911-8d504f878316" data-name="Layer 1" xmlns="http://www.w3.org/2000/svg" width="150" height="180" viewBox="0 0 150 180">
  <defs>
    <style>
      .a057bbf5-52e7-4534-ae52-c65c2eeaa846, .b766a625-c16d-4d54-8a10-18567ea7879e {
        fill: #ffe309;
        stroke-width: 0.75px;
      }

      .b766a625-c16d-4d54-8a10-18567ea7879e {
        stroke: #665608;
      }

      .a057bbf5-52e7-4534-ae52-c65c2eeaa846, .b2498962-2751-4402-835b-2b75283fe408, .b766a625-c16d-4d54-8a10-18567ea7879e {
        stroke-miterlimit: 10;
      }

      .a057bbf5-52e7-4534-ae52-c65c2eeaa846 {
        stroke: #493c05;
      }

      .aa9608ea-a98d-4849-9722-b2ce522dfe32 {
        fill: #ecc516;
      }

      .b2498962-2751-4402-835b-2b75283fe408 {
        fill: #532900;
        stroke: #3a1c03;
      }

      .f8818536-1ed4-4065-b525-5a9f78ce320d {
        fill: #681a1a;
      }

      .fdaea16c-bd3e-478b-9744-c235a3a7a644 {
        fill: #ef7089;
      }

      .a699e5b9-d270-494e-a979-91f483cebffc {
        fill: #ff5763;
      }

      .a26a7614-f44d-453f-b8ab-6803a45b358c {
        fill: #fff;
      }

      .be831899-3145-4b1c-bbc2-142f59545c5f {
        fill: #ef304c;
      }

      .bed9b967-489e-494f-9be2-8266273db002 {
        fill: #ffa979;
      }
    </style>
  </defs>
  <g>
    <path class="b766a625-c16d-4d54-8a10-18567ea7879e" d="M97,148.39s4.45-.1,4.17,4.85-2.41,8.38,2.32,9.76,10,2.44,11.33-2.29-5.43-5.67-4.27-9.3,1.45-10.72-7.16-12S97,148.39,97,148.39Z"/>
    <g>
      <path class="b766a625-c16d-4d54-8a10-18567ea7879e" d="M68.52,47.26s-6.65-1-12.56-15.41S59.74,2.62,67.51,3s6.91,6.89-.74,10.83-9.88,21.77,4,31.86C70.79,45.66,78.3,54.07,68.52,47.26Z"/>
      <path class="b766a625-c16d-4d54-8a10-18567ea7879e" d="M91.13,49.76S90,37.45,93,29.5,105.12,4.21,116.75,8.81c0,0,3.33,2.62,1.72,5.6s-4.76,3.75-7.72,1.85-20.59,11.08-16.63,33C94.12,49.26,93.28,55.25,91.13,49.76Z"/>
      <path class="b766a625-c16d-4d54-8a10-18567ea7879e" d="M100.63,101.06s2.4,2.68,19.74-2.07c0,0,7.1-1.76,10.62-4s11.82-5.86,14.19-4.42,2,4.3-2.48,4.36l-4.36.69s5.28-.37,4.55,5.56-6.47-2.1-6.47-2.1l3.36,4.55s-2.24,4.38-7.44-1.71c0,0-.94,3.07-11.9,7.7s-23.45,5-23.45,5Z"/>
      <path class="a057bbf5-52e7-4534-ae52-c65c2eeaa846" d="M101.74,95.94a42.5,42.5,0,0,1,7.08,16.67,32.18,32.18,0,0,1-.35,12.31h0a40.31,40.31,0,0,1-3.18,9c-.25.55-.53,1.09-.82,1.61A43.52,43.52,0,0,1,96.55,146a60.94,60.94,0,0,1-19.32,12.31c-1.38.58-2.69,1.07-3.86,1.51-8.83,3.24-12.5,8.36-12.5,8.36.83-5.15-2-10.18-4.81-15.74-2.61-5.06-5.25-10.56-5.17-17,0-.33,0-.66,0-1a28.74,28.74,0,0,1,1-6,37.76,37.76,0,0,1,3.5-8.46,1.43,1.43,0,0,1,.12-.21,51.4,51.4,0,0,1,4.77-7.06,41.46,41.46,0,0,1,3.4-3.82c7.77-7.38,4.37-15,4.37-15l28.61-4.63A75.44,75.44,0,0,1,101.74,95.94Z"/>
      <path class="aa9608ea-a98d-4849-9722-b2ce522dfe32" d="M100.61,95.37c-2.44,4.34-6.4,8.18-11.66,12.21-10.88,8.35-22.92,11.13-27.66,6.56A40.1,40.1,0,0,1,65.18,108,32.54,32.54,0,0,1,68,104.73c6.5-6.29,3.24-13.26,3.24-13.26l24.79-3A80.26,80.26,0,0,1,100.61,95.37Z"/>
      <path class="b2498962-2751-4402-835b-2b75283fe408" d="M77.39,157.81c-1.39.58-2.85,1.58-4,2-8.83,3.24-12.5,8.36-12.5,8.36.83-5.15-2.1-10.9-4.93-16.46C59.21,155,66.33,159.89,77.39,157.81Z"/>
      <path class="b2498962-2751-4402-835b-2b75283fe408" d="M108.82,112.61a32.18,32.18,0,0,1-.35,12.31h0c-4.3,3.3-13.57,8.22-29.73,7.11-9.93-.69-17.68-6-23.34-12a52.07,52.07,0,0,1,4.89-7.27c4.53,4.67,13,10.92,25,9.83A39.93,39.93,0,0,0,108.82,112.61Z"/>
      <path class="b2498962-2751-4402-835b-2b75283fe408" d="M104.46,135.54A43.52,43.52,0,0,1,96.55,146c-5.54,3.07-14,6.38-23.19,4.81-11.2-1.89-17.86-8.69-22.47-15.34,0-.33,0-.66,0-1a28.74,28.74,0,0,1,1-6c4,4.9,11.72,12.28,22.82,12.81C87.84,141.94,99.9,137.47,104.46,135.54Z"/>
      <g>
        <path class="b766a625-c16d-4d54-8a10-18567ea7879e" d="M120.94,86.39c-1,14.81-14.38,22.43-29.92,24.46h0a71.57,71.57,0,0,1-15.63.23c-21.1-2-31-14.08-27.86-35.33,2.36-16,12.82-30.66,28.13-34.38a32.47,32.47,0,0,1,10.83-.75C107.55,42.59,122.46,64.46,120.94,86.39Z"/>
        <path class="aa9608ea-a98d-4849-9722-b2ce522dfe32" d="M92.21,110.35a71,71,0,0,1-15.63.22c-21.1-2-31-14-27.88-35C51,59.71,61.49,45.16,76.8,41.49A42.42,42.42,0,0,0,55.41,76C53.56,102.27,74.4,111,92.21,110.35Z"/>
        <g>
          <g>
            <g>
              <g>
                <path class="f8818536-1ed4-4065-b525-5a9f78ce320d" d="M105.89,88.16s-.66,7-4.53,12a12.36,12.36,0,0,1-3.85,3.39c-5.76,3.21-12.72,2.3-17-4.49a4.21,4.21,0,0,1-.28-.45,24.4,24.4,0,0,1-2.58-6.31s12.72,2.95,24.14-2A27.73,27.73,0,0,0,105.89,88.16Z"/>
                <path class="fdaea16c-bd3e-478b-9744-c235a3a7a644" d="M105.91,88.12a21.28,21.28,0,0,1-.71,4.74,25.4,25.4,0,0,1-1.55,4.52,18.19,18.19,0,0,1-2.61,4.09,12.53,12.53,0,0,1-3.88,3,13,13,0,0,1-9.72,1.1,14.08,14.08,0,0,1-7.72-6.09l0,0a16.69,16.69,0,0,1-1-1.73c-.29-.57-.55-1.15-.79-1.74a29.06,29.06,0,0,1-1.17-3.6l-.34-1.32,1.33.29a45,45,0,0,0,7.1.88,48,48,0,0,0,7.19-.13,39.69,39.69,0,0,0,7.07-1.33c1.15-.36,2.31-.72,3.42-1.19S104.75,88.72,105.91,88.12Zm0,.08A21.75,21.75,0,0,1,102.71,90c-1.1.52-2.25.94-3.4,1.35a36.35,36.35,0,0,1-7.13,1.58,46.93,46.93,0,0,1-14.58-.52l.11-.11a28.45,28.45,0,0,0,1.17,3.48A20.29,20.29,0,0,0,80.56,99h0a13.25,13.25,0,0,0,7.15,5.76,12.41,12.41,0,0,0,9.1-.94,14.08,14.08,0,0,0,6.37-6.67A29.28,29.28,0,0,0,105.86,88.2Z"/>
              </g>
              <path class="a699e5b9-d270-494e-a979-91f483cebffc" d="M99.18,99.69c1.35,2.2-.74,3.25-2.14,4.06-5.19,3-12.77,1.29-16.62-5,1.29-.8,3.52-1.36,7.36-.64C87.78,98.08,95,95.94,99.18,99.69Z"/>
              <path class="a26a7614-f44d-453f-b8ab-6803a45b358c" d="M94.41,99a25.17,25.17,0,0,1-6.53,1,10.1,10.1,0,0,1-10-7.36l0-.08s12.39,3,23.81-1.85C102.24,93.77,101.08,97,94.41,99Z"/>
            </g>
            <path class="be831899-3145-4b1c-bbc2-142f59545c5f" d="M76.06,88.28a2.84,2.84,0,0,1,.68,1.28,3.38,3.38,0,0,1,0,1.52,2.44,2.44,0,0,1-.89,1.28,2.74,2.74,0,0,1-.68.35,3,3,0,0,1-.72.1l0,0a3.27,3.27,0,0,0,1.15-.69,2.23,2.23,0,0,0,.68-1.14A4.29,4.29,0,0,0,76,88.3Z"/>
            <path class="be831899-3145-4b1c-bbc2-142f59545c5f" d="M108,89.5a2.52,2.52,0,0,1-1.21-.33,3.76,3.76,0,0,1-.95-.83,3.24,3.24,0,0,1-.52-1.17,2.41,2.41,0,0,1,.07-1.25h0a4,4,0,0,0,.8,2.12A4.52,4.52,0,0,0,108,89.45Z"/>
          </g>
          <ellipse class="bed9b967-489e-494f-9be2-8266273db002" cx="67.38" cy="87.17" rx="4.21" ry="5.99" transform="translate(-25.66 146.18) rotate(-84.68)"/>
          <ellipse class="bed9b967-489e-494f-9be2-8266273db002" cx="114.45" cy="80.19" rx="5.99" ry="4.21" transform="matrix(0.95, -0.31, 0.31, 0.95, -19.43, 40.12)"/>
        </g>
      </g>
      <path class="b766a625-c16d-4d54-8a10-18567ea7879e" d="M58.31,117.13s-.87-4.07,2.5-5.61,10.65,5.14,14,10.44,11,4.28,11,4.28,2.33-7.19,5.13-6.12-.35,6.52-.35,6.52,4.5-1.59,5.82-5.22c0,0,2.81-1,2.31,3.1l-3,3.36,3.44-3.09s1.9,1.75-2.77,6.68-21.65,3.22-33.21-6.75A16.65,16.65,0,0,1,58.31,117.13Z"/>
      <path class="b766a625-c16d-4d54-8a10-18567ea7879e" d="M63.48,152.06a3.43,3.43,0,0,1,2.74-5.44,7.59,7.59,0,0,1,5.06,1.62c3.34,2.81,6.71,7.73,5.33,13.06s3,7.2,5.67,8.66,2.69,6.81-3.48,7c0,0-8.25.71-12.18-5.85,0,0-2.32-2.48-.32-10.39C67.52,155.93,65,154.1,63.48,152.06Z"/>
    </g>
  </g>
</svg>
