<svg id="affef211-d6ee-460f-9e11-cc4a72e5dc17" data-name="Layer 1" xmlns="http://www.w3.org/2000/svg" width="240" height="250" viewBox="0 0 240 250">
  <defs>
    <style>
      .a9aa49aa-a6f5-4057-b9be-d87165d8ea9b, .bb72c94f-3798-4c77-881b-97ec95d6ea77 {
        fill: #ffe309;
      }

      .ab85e9ef-80a1-4311-aa5e-dc7f68b47d1a, .bb72c94f-3798-4c77-881b-97ec95d6ea77 {
        stroke: #665608;
      }

      .a9aa49aa-a6f5-4057-b9be-d87165d8ea9b, .ab85e9ef-80a1-4311-aa5e-dc7f68b47d1a, .bb72c94f-3798-4c77-881b-97ec95d6ea77, .bf6e25cc-7bc9-4c94-953f-2fea11a98fca {
        stroke-miterlimit: 10;
      }

      .a9aa49aa-a6f5-4057-b9be-d87165d8ea9b, .ab85e9ef-80a1-4311-aa5e-dc7f68b47d1a, .bb72c94f-3798-4c77-881b-97ec95d6ea77 {
        stroke-width: 0.75px;
      }

      .a9aa49aa-a6f5-4057-b9be-d87165d8ea9b {
        stroke: #493c05;
      }

      .b0d0a03c-659c-442a-9535-e9f3b24495f3 {
        fill: #ecc516;
      }

      .bf6e25cc-7bc9-4c94-953f-2fea11a98fca {
        fill: #532900;
        stroke: #3a1c03;
      }

      .ae159fc8-f2ad-4855-bfcd-22232b1c890b {
        fill: #681a1a;
      }

      .a3b3609c-89f1-4226-9140-f27023c331b7 {
        fill: #ef7089;
      }

      .ecd07870-2f0c-487f-b033-6868e3f407c1 {
        fill: #ff5763;
      }

      .ae0fd8bc-f300-4c9a-8b43-f28c8b582fec {
        fill: #fff;
      }

      .eda2bde7-ac7e-459a-b54e-1e11c80cb318 {
        fill: #ef304c;
      }

      .f19e7901-4f58-422f-950e-356ee4262889 {
        fill: #ffa979;
      }

      .ab85e9ef-80a1-4311-aa5e-dc7f68b47d1a {
        fill: none;
      }
    </style>
  </defs>
  <g>
    <g>
      <g>
        <path class="bb72c94f-3798-4c77-881b-97ec95d6ea77" d="M69.61,210s2.15,6.69-5.46,8.48-13.76.13-13.73,7.9.79,16.14,8.56,16.11,6.14-10.77,12.15-10.64S88,229.2,86.1,215.6,69.61,210,69.61,210Z"/>
        <g>
          <path class="bb72c94f-3798-4c77-881b-97ec95d6ea77" d="M129.58,162.35s-2.75,5,13.27,28.36c0,0,6.29,9.68,11.5,13.74s10.85,13.66,9.92,17.94-5,7.67-7.43,1l.37-7.66s3.27,7.68-6,9.65-.2-10.73-.2-10.73L146,222s-7.68-1.09-1.28-12c0,0-5.07.18-17.61-13.76s-19.54-32.39-19.54-32.39Z"/>
          <path class="a9aa49aa-a6f5-4057-b9be-d87165d8ea9b" d="M154.73,180c-4,9.82-9.18,17.79-15.68,23.88a50.62,50.62,0,0,1-16.46,10.32h0A64.52,64.52,0,0,1,108,217.9c-.94.14-1.9.25-2.84.33A68.57,68.57,0,0,1,84.48,217c-13.42-2.82-24.82-9.06-33.07-14.57-2-1.31-3.77-2.6-5.36-3.75-12-8.75-21.91-9.09-21.91-9.09,7.48-3.41,11.62-11.5,16.43-20.09,4.36-7.85,9.27-16.13,17.76-21.64.43-.29.87-.58,1.34-.86a44.74,44.74,0,0,1,8.69-3.93,60.23,60.23,0,0,1,14.17-2.83l.38,0a80.11,80.11,0,0,1,13.44.08,65.32,65.32,0,0,1,8,1.11c16.48,3.75,23.55-7.41,23.55-7.41L159,167.5A120.72,120.72,0,0,1,154.73,180Z"/>
          <path class="b0d0a03c-659c-442a-9535-e9f3b24495f3" d="M154.5,178c-7.84.59-16.35-1.24-26.24-4.61-20.49-7-34.68-20.35-32.82-30.57a64.52,64.52,0,0,1,11.44-.25,51.65,51.65,0,0,1,6.77.82c13.94,3,20.24-7.35,20.24-7.35l25.69,29.88C158.38,170,156,174.43,154.5,178Z"/>
          <path class="bf6e25cc-7bc9-4c94-953f-2fea11a98fca" d="M52.21,202.19c-2-1.31-4.57-2.35-6.16-3.5-12-8.75-21.91-9.09-21.91-9.09,7.48-3.41,12.46-12.29,17.27-20.88C40,175.88,39.81,189.51,52.21,202.19Z"/>
          <path class="bf6e25cc-7bc9-4c94-953f-2fea11a98fca" d="M139.05,203.87a50.62,50.62,0,0,1-16.46,10.32h0c-8.1-2.76-22.67-10.62-35.36-32.79-7.79-13.64-7.59-28.47-4.68-41.15a81.65,81.65,0,0,1,13.82.06c-2.16,10-3,26.6,9,41.41C117.06,196.24,130.59,201.76,139.05,203.87Z"/>
          <path class="bf6e25cc-7bc9-4c94-953f-2fea11a98fca" d="M105.14,218.23A68.57,68.57,0,0,1,84.48,217c-8.88-4.59-20.65-12.83-26.62-26.22-7.33-16.36-4.23-31,.47-42.92.43-.29.87-.58,1.34-.86a44.74,44.74,0,0,1,8.69-3.93c-3,9.48-5.86,26.13,3.17,41.16C82.2,202,98.62,213.94,105.14,218.23Z"/>
          <g>
            <path class="bb72c94f-3798-4c77-881b-97ec95d6ea77" d="M136.08,77S126,73.78,120.3,49.89,133.39,5.28,145.4,7.73s9.09,12.44-3.81,16.69S120.82,55.91,140,75.06C140,75.06,149.64,90,136.08,77Z"/>
            <path class="bb72c94f-3798-4c77-881b-97ec95d6ea77" d="M167.65,84.47s3.27-19.22,11-30.15,28.75-33.68,44.62-22c0,0,4,5.34.37,9.23s-8.77,3.8-12.52-.29-35.87,8.59-38.68,43.62C172.41,84.92,168.71,93.71,167.65,84.47Z"/>
            <g>
              <path class="bb72c94f-3798-4c77-881b-97ec95d6ea77" d="M197.07,159.2c-7,22.34-30.32,29.13-54.91,26.52a.11.11,0,0,1-.08,0A112.09,112.09,0,0,1,118,180.32c-31.65-10.77-42.4-33-29.75-64.45,9.5-23.64,31-42.32,55.81-42.4A51.69,51.69,0,0,1,161,76.3C192.64,87.08,207.46,126.11,197.07,159.2Z"/>
              <path class="b0d0a03c-659c-442a-9535-e9f3b24495f3" d="M144.17,185.4a113.4,113.4,0,0,1-24-5.41c-31.65-10.78-42.45-32.86-29.9-64,9.42-23.42,30.81-41.89,55.64-41.9-12,3.6-35.86,14.42-45.49,45C87.85,158.79,116.62,179.82,144.17,185.4Z"/>
              <g>
                <g>
                  <g>
                    <g>
                      <path class="ae159fc8-f2ad-4855-bfcd-22232b1c890b" d="M173.32,156.38s-3.59,10.54-11.36,16.73a19.67,19.67,0,0,1-7.15,3.79c-10,2.8-20.36-1.16-24.48-13.16a7.3,7.3,0,0,1-.26-.79,38.46,38.46,0,0,1-1.63-10.62s18.42,9.19,37.74,5.87A44.27,44.27,0,0,0,173.32,156.38Z"/>
                      <path class="a3b3609c-89f1-4226-9140-f27023c331b7" d="M173.35,156.35a29,29,0,0,1-1.33,3.53c-.51,1.14-1,2.27-1.63,3.36a41.14,41.14,0,0,1-4.1,6.29,28.63,28.63,0,0,1-5.51,5.2,19.14,19.14,0,0,1-7,3.13,20.2,20.2,0,0,1-15-1.89,19.32,19.32,0,0,1-5.77-5.14,25.17,25.17,0,0,1-3.58-6.8l0,.06a28.7,28.7,0,0,1-.85-2.93c-.23-1-.42-1.94-.57-2.92a43.18,43.18,0,0,1-.48-5.89l0-1.36,1.23.59a70,70,0,0,0,10.65,3.95,73.37,73.37,0,0,0,11.16,2.37,62.16,62.16,0,0,0,11.41.44c.95,0,1.9-.18,2.85-.26s1.9-.21,2.84-.38A53.43,53.43,0,0,0,173.35,156.35Zm-.07.07a37.57,37.57,0,0,1-5.51,1.54c-.94.2-1.89.35-2.84.47s-1.91.29-2.87.34a57.62,57.62,0,0,1-11.52-.2,72.71,72.71,0,0,1-11.31-2.22,70.81,70.81,0,0,1-10.83-3.94l.13-.09a41.23,41.23,0,0,0,.51,5.77,32.6,32.6,0,0,0,1.38,5.61h0a24.76,24.76,0,0,0,3.41,6.55,18.26,18.26,0,0,0,5.46,4.93,19.67,19.67,0,0,0,14.34,1.92,18.49,18.49,0,0,0,6.77-2.92,27.87,27.87,0,0,0,5.47-5A45.55,45.55,0,0,0,173.28,156.42Z"/>
                    </g>
                    <path class="ecd07870-2f0c-487f-b033-6868e3f407c1" d="M147.14,165.24c8,1.78,13.28,8.36,8.18,11.6a9.89,9.89,0,0,1-4.65,1.29c-16.77-2.25-19.77-11.28-18.64-16.78,2.11-.27,4.35.75,10,3.08A39,39,0,0,1,147.14,165.24Z"/>
                    <path class="ae159fc8-f2ad-4855-bfcd-22232b1c890b" d="M141.43,163a15.07,15.07,0,0,1,3.66,12.54s-.5-7.93-6.18-13.06Z"/>
                    <path class="ae0fd8bc-f300-4c9a-8b43-f28c8b582fec" d="M151.73,168.76a39.73,39.73,0,0,1-10.4-.81,15.94,15.94,0,0,1-12.58-15v-.12s17.88,9.23,37.21,5.92C165.65,163.65,162.69,168.18,151.73,168.76Z"/>
                  </g>
                  <path class="eda2bde7-ac7e-459a-b54e-1e11c80cb318" d="M127.5,145.6a5.21,5.21,0,0,1,.39,2.18,5.3,5.3,0,0,1-.56,2.24,3.81,3.81,0,0,1-1.71,1.59,4,4,0,0,1-1.1.33,6,6,0,0,1-1.12,0v0a5.33,5.33,0,0,0,2-.62,3.7,3.7,0,0,0,1.46-1.5,6.74,6.74,0,0,0,.56-4.18Z"/>
                  <path class="eda2bde7-ac7e-459a-b54e-1e11c80cb318" d="M176,159.18a4.43,4.43,0,0,1-1.57-1.07,6.09,6.09,0,0,1-1.08-1.6,5.22,5.22,0,0,1-.4-1.9,4.33,4.33,0,0,1,.37-1.86h.05a6.86,6.86,0,0,0,0,1.81,5.85,5.85,0,0,0,.48,1.74,7,7,0,0,0,2.22,2.83Z"/>
                </g>
                <ellipse class="f19e7901-4f58-422f-950e-356ee4262889" cx="114.6" cy="140.69" rx="6.64" ry="9.46" transform="translate(-55.51 203.84) rotate(-71.2)"/>
                <ellipse class="f19e7901-4f58-422f-950e-356ee4262889" cx="189.38" cy="147.3" rx="9.46" ry="6.64" transform="translate(-11.83 16.62) rotate(-4.87)"/>
              </g>
            </g>
          </g>
          <path class="bb72c94f-3798-4c77-881b-97ec95d6ea77" d="M49.17,187.21a5.41,5.41,0,0,1,9.3,2.45,12,12,0,0,1-.86,8.34c-3.25,6.06-9.74,12.88-18.41,12.49s-10.14,7-11.52,11.57-9.63,6.37-12-3.07c0,0-3.78-12.49,5.06-20.71,0,0,3.07-4.39,15.93-3.89C44.51,194.7,46.52,190.21,49.17,187.21Z"/>
        </g>
      </g>
      <path class="bb72c94f-3798-4c77-881b-97ec95d6ea77" d="M93.48,171.07s-14.07,21.52,5,30.73c11.25,5.41,16.8,8.53,20.44,8.31,5.1-.31,13.18,8.53,12.95,12.5,0,0,0,8.07-4.88,4.41,0,0-4.3,10.67-18.17-.12,0,0-1.34-4.27,5.59-6.8,0,0-51.74-6.71-43.35-49.22C71.11,170.88,83.1,158.94,93.48,171.07Z"/>
      <path class="ab85e9ef-80a1-4311-aa5e-dc7f68b47d1a" d="M117.12,224s6-1.46-6.1-4.92"/>
    </g>
    <line class="bb72c94f-3798-4c77-881b-97ec95d6ea77" x1="127.04" y1="227.02" x2="128" y2="222.31"/>
  </g>
</svg>
