<svg id="bea9e70c-8a4a-471d-8c79-f86bbfd5cce0" data-name="Layer 1" xmlns="http://www.w3.org/2000/svg" width="118" height="100" viewBox="0 0 118 100">
  <defs>
    <style>
      .b95ef545-c911-4cdf-85bb-e0441d37ca14 {
        fill: #bcfde5;
      }

      .f0beaab1-1214-4025-ba55-ccab02e7ee10 {
        fill: #ebf7f2;
      }
    </style>
  </defs>
  <g>
    <g>
      <path class="b95ef545-c911-4cdf-85bb-e0441d37ca14" d="M104.2,75.8c-6.73,11.82-36-1.38-54.7-12s-30.37-27.21-23.64-39S51.33,19.22,70,29.84,110.92,64,104.2,75.8Z"/>
      <path class="f0beaab1-1214-4025-ba55-ccab02e7ee10" d="M104.24,75.82A8.64,8.64,0,0,1,102,78.39a9.54,9.54,0,0,1-3.09,1.5,19.12,19.12,0,0,1-6.82.6,56.33,56.33,0,0,1-13.4-2.95,167.32,167.32,0,0,1-25.17-11c-8.15-4.15-16-9.32-22.16-16.31a36,36,0,0,1-7.19-12,19.76,19.76,0,0,1-1-7.06,15.63,15.63,0,0,1,2-6.92,14.55,14.55,0,0,1,2.23-2.9,12.89,12.89,0,0,1,3-2.16,16.22,16.22,0,0,1,7-1.68A39.48,39.48,0,0,1,51,20.1a96.93,96.93,0,0,1,12.63,5.59,115,115,0,0,1,11.86,7A103.3,103.3,0,0,1,95.81,51.14a53.14,53.14,0,0,1,7.56,11.44,22.57,22.57,0,0,1,2,6.56A10.74,10.74,0,0,1,104.24,75.82Zm-.09,0a10.62,10.62,0,0,0,1.09-6.62,22.68,22.68,0,0,0-2-6.51,53.13,53.13,0,0,0-7.59-11.36A102.16,102.16,0,0,0,75.17,33.15a112.67,112.67,0,0,0-11.88-6.82,97.67,97.67,0,0,0-12.58-5.41,38.48,38.48,0,0,0-13.4-2.42,15.33,15.33,0,0,0-6.56,1.6,12,12,0,0,0-2.74,2A13.45,13.45,0,0,0,26,24.8a14.65,14.65,0,0,0-1.89,6.48A18.71,18.71,0,0,0,25,38a35,35,0,0,0,7,11.68c6,6.93,13.69,12.17,21.77,16.39a165.11,165.11,0,0,0,25,11.25,56.65,56.65,0,0,0,13.34,3,19.11,19.11,0,0,0,6.78-.56,9.36,9.36,0,0,0,3-1.47A8.47,8.47,0,0,0,104.15,75.78Z"/>
    </g>
    <g>
      <path class="b95ef545-c911-4cdf-85bb-e0441d37ca14" d="M97.45,75.64c-5.32,12.52-36,2.79-55.71-5.6s-33.32-23.51-28-36,24.66-8.46,44.41-.08S102.77,63.11,97.45,75.64Z"/>
      <path class="f0beaab1-1214-4025-ba55-ccab02e7ee10" d="M97.5,75.65a8.65,8.65,0,0,1-2,2.82,9.74,9.74,0,0,1-2.89,1.84,19.11,19.11,0,0,1-6.72,1.38,56.5,56.5,0,0,1-13.65-1.37,167.59,167.59,0,0,1-26.27-8c-8.57-3.17-17-7.4-23.89-13.63a35.79,35.79,0,0,1-8.52-11,19.52,19.52,0,0,1-1.84-6.89,15.48,15.48,0,0,1,1.18-7.11,13.91,13.91,0,0,1,1.88-3.14A12.52,12.52,0,0,1,17.51,28a16.25,16.25,0,0,1,6.74-2.47,39.33,39.33,0,0,1,13.91.93,95,95,0,0,1,13.19,4.09A115,115,0,0,1,64,36.14a103.6,103.6,0,0,1,22.32,16A52.8,52.8,0,0,1,95.1,62.6a22.69,22.69,0,0,1,2.75,6.28A10.75,10.75,0,0,1,97.5,75.65Zm-.1,0a10.6,10.6,0,0,0,.32-6.7A22.58,22.58,0,0,0,95,62.69a52.71,52.71,0,0,0-8.85-10.41A102,102,0,0,0,63.69,36.63,112,112,0,0,0,51.1,31.22,98,98,0,0,0,38,27.3a38.84,38.84,0,0,0-13.58-.85,15.28,15.28,0,0,0-6.34,2.35,12.07,12.07,0,0,0-2.49,2.3A13.87,13.87,0,0,0,13.84,34a14.58,14.58,0,0,0-1.12,6.65,18.59,18.59,0,0,0,1.72,6.57A34.93,34.93,0,0,0,22.69,58c6.76,6.19,15,10.5,23.52,13.76a164,164,0,0,0,26.11,8.29,56.58,56.58,0,0,0,13.59,1.44,18.93,18.93,0,0,0,6.67-1.34,9.75,9.75,0,0,0,2.87-1.81A8.5,8.5,0,0,0,97.4,75.62Z"/>
    </g>
  </g>
</svg>
