<svg id="f07ce66c-0d34-45eb-b1fa-6cd79e1dfb37" data-name="Layer 1" xmlns="http://www.w3.org/2000/svg" width="269.18" height="242.35" viewBox="0 0 269.18 242.35">
  <defs>
    <style>
      .b2f9eb70-cf99-42e5-8983-a33511a01a9e {
        fill: #bcfde5;
      }

      .f36419a6-594f-4859-b903-06e4b18eb9c3 {
        fill: #ebf7f2;
      }
    </style>
  </defs>
  <g>
    <g>
      <path class="b2f9eb70-cf99-42e5-8983-a33511a01a9e" d="M192.36,206.5c-26.89,3.65-41.44-58.82-47.19-101.23s6.37-81.09,33.26-84.73,39.64,33.67,45.39,76.08S219.24,202.85,192.36,206.5Z"/>
      <path class="f36419a6-594f-4859-b903-06e4b18eb9c3" d="M192.36,206.55l-1.71.11c-.29,0-.57.05-.86,0l-.85-.07c-.57-.06-1.15-.07-1.71-.18l-1.67-.41a19.46,19.46,0,0,1-6.1-3.07,38,38,0,0,1-9.18-10.1c-5-7.66-8.52-16.19-11.53-24.8-1.51-4.31-2.83-8.68-4.06-13.08s-2.35-8.83-3.38-13.28c-2.06-8.89-3.76-17.87-5.22-26.88-.71-4.51-1.4-9-1.94-13.57s-.82-9.12-.93-13.7A123.87,123.87,0,0,1,145.5,60.2c1.87-9,4.91-17.85,10.15-25.54a38.11,38.11,0,0,1,9.72-9.94,30.07,30.07,0,0,1,13-5.08,27.81,27.81,0,0,1,7.06,0,24.94,24.94,0,0,1,6.77,2,31.46,31.46,0,0,1,10.8,8.8,58.29,58.29,0,0,1,7.32,11.73A105.84,105.84,0,0,1,215.45,55,197.18,197.18,0,0,1,222,81.63a232.41,232.41,0,0,1,3.45,27.2,212.3,212.3,0,0,1-.3,27.4,192,192,0,0,1-3.95,27.1,128.48,128.48,0,0,1-3.65,13.21,86.7,86.7,0,0,1-5.32,12.62,45,45,0,0,1-7.95,11.11A21.35,21.35,0,0,1,192.36,206.55Zm0-.1a21.28,21.28,0,0,0,11.84-6.29,45.21,45.21,0,0,0,7.88-11.1,85.73,85.73,0,0,0,5.24-12.61,124.69,124.69,0,0,0,3.59-13.19,191.19,191.19,0,0,0,3.83-27.06,209.6,209.6,0,0,0,.19-27.34,231.4,231.4,0,0,0-3.55-27.11,196.57,196.57,0,0,0-6.66-26.51,105,105,0,0,0-5.13-12.65,58.07,58.07,0,0,0-7.26-11.54,30.49,30.49,0,0,0-10.51-8.5,23.91,23.91,0,0,0-6.51-1.92,26.68,26.68,0,0,0-6.8,0,29.2,29.2,0,0,0-12.6,4.87,37.25,37.25,0,0,0-9.52,9.67c-5.17,7.52-8.23,16.31-10.12,25.19a122.22,122.22,0,0,0-2.37,27.19q.12,6.84.86,13.64c.52,4.53,1.19,9,1.89,13.55,1.41,9,3.08,18,5.1,26.88,1,4.45,2.1,8.87,3.32,13.27s2.51,8.77,4,13.08c3,8.6,6.43,17.13,11.4,24.78a37.84,37.84,0,0,0,9.11,10.09,19.4,19.4,0,0,0,6,3.08l1.65.41c.56.11,1.13.12,1.7.19l.85.07a8.19,8.19,0,0,0,.85,0Z"/>
    </g>
    <g>
      <path class="b2f9eb70-cf99-42e5-8983-a33511a01a9e" d="M187,196.86c-15.36,22.37-71.41-8.82-106.69-33.05S24.55,104.63,39.91,82.26s51.57-6.74,86.85,17.48S202.39,174.49,187,196.86Z"/>
      <path class="f36419a6-594f-4859-b903-06e4b18eb9c3" d="M187.07,196.88,186,198.23c-.19.22-.35.45-.55.66l-.63.58c-.43.38-.82.81-1.28,1.15l-1.42,1a19.46,19.46,0,0,1-6.37,2.45,38.23,38.23,0,0,1-13.66,0c-9-1.43-17.71-4.57-26.11-8.12-4.21-1.78-8.34-3.73-12.42-5.78s-8.12-4.18-12.1-6.42c-8-4.44-15.77-9.21-23.43-14.19-3.82-2.5-7.62-5-11.35-7.67s-7.31-5.52-10.77-8.52A122.87,122.87,0,0,1,47.18,133.3c-5.39-7.41-9.93-15.63-12.11-24.67a38.11,38.11,0,0,1-.83-13.88,30,30,0,0,1,5-13A28.41,28.41,0,0,1,44,76.49,24.69,24.69,0,0,1,50,72.84a31.42,31.42,0,0,1,13.77-2.1A58.59,58.59,0,0,1,77.4,73.2,105.79,105.79,0,0,1,90.31,78a197.48,197.48,0,0,1,24.14,13,230.69,230.69,0,0,1,22.47,15.71A210.73,210.73,0,0,1,157,125.35a189.52,189.52,0,0,1,17.43,21.13,125.33,125.33,0,0,1,7.33,11.57,85.93,85.93,0,0,1,5.78,12.42,45,45,0,0,1,2.89,13.35A21.33,21.33,0,0,1,187.07,196.88Zm-.08,0a21.27,21.27,0,0,0,3.3-13,45,45,0,0,0-2.94-13.29,84.9,84.9,0,0,0-5.82-12.36,124.1,124.1,0,0,0-7.36-11.52,191.75,191.75,0,0,0-17.47-21,209.73,209.73,0,0,0-20.13-18.5A228.76,228.76,0,0,0,114.1,91.57,196.86,196.86,0,0,0,90,78.69,106.39,106.39,0,0,0,77.17,74a57.89,57.89,0,0,0-13.42-2.38A30.71,30.71,0,0,0,50.39,73.7a23.73,23.73,0,0,0-5.8,3.54,26.92,26.92,0,0,0-4.56,5,29.35,29.35,0,0,0-4.86,12.61,37.48,37.48,0,0,0,.77,13.55c2.1,8.88,6.56,17,11.87,24.42a122.55,122.55,0,0,0,18.55,20q5.15,4.5,10.68,8.53c3.71,2.66,7.5,5.19,11.31,7.7,7.62,5,15.39,9.8,23.34,14.27q6,3.38,12,6.46c4.07,2.06,8.19,4,12.38,5.83,8.37,3.57,17,6.74,26,8.2a37.79,37.79,0,0,0,13.58,0,19.14,19.14,0,0,0,6.34-2.41l1.42-.95c.46-.33.85-.76,1.27-1.13l.63-.58c.2-.2.36-.43.54-.65Z"/>
    </g>
  </g>
</svg>
