<svg id="f79cd5c8-afc3-4e14-9371-b5f158e13e9f" data-name="Layer 1" xmlns="http://www.w3.org/2000/svg" width="51.83" height="29.18" viewBox="0 0 51.83 29.18">
  <defs>
    <style>
      .a13fdca3-2cb6-4b70-a000-1f926e5a4ba6, .e750a171-ae70-4c9e-b5ce-d385d1b7fde6 {
        fill: #fff;
      }

      .aa10948b-2685-4eef-82e2-48c19c79f3ec {
        fill: #724009;
      }

      .b85fd829-87c3-49d9-b993-b5c7a5740b26 {
        fill: #231f20;
      }

      .e750a171-ae70-4c9e-b5ce-d385d1b7fde6 {
        opacity: 0.53;
      }

      .bfe5a411-5fb0-4ec5-8f3a-81d0a4a4cffb {
        fill: #846e2f;
        stroke: #8e7717;
        stroke-miterlimit: 10;
        stroke-width: 0.75px;
      }
    </style>
  </defs>
  <g>
    <g>
      <g>
        <g>
          <ellipse class="a13fdca3-2cb6-4b70-a000-1f926e5a4ba6" cx="12.22" cy="14.33" rx="11.55" ry="13.6"/>
          <path class="aa10948b-2685-4eef-82e2-48c19c79f3ec" d="M.71,14.33C.54,20.76,5.36,27.8,12.22,27.68c10.62-.34,14.3-14.89,8.09-22.26C12.65-3.87.64,3.6.71,14.33Zm-.1,0C.27,5.61,8.38-3.13,17.2,1.47c11.09,5.93,8.42,26.29-5,26.71C5.12,28.08.53,20.87.61,14.33Z"/>
        </g>
        <path class="b85fd829-87c3-49d9-b993-b5c7a5740b26" d="M23.51,13.69c-.26,4.27-3,7.47-6.12,7.16s-5.42-4-5.15-8.29,3-7.47,6.13-7.16S23.78,9.43,23.51,13.69Z"/>
        <g>
          <ellipse class="a13fdca3-2cb6-4b70-a000-1f926e5a4ba6" cx="40.9" cy="15.59" rx="10.26" ry="13.05"/>
          <path class="aa10948b-2685-4eef-82e2-48c19c79f3ec" d="M30.69,15.59c-.14,5.85,3.8,12.82,10.21,12.8,9.77-.61,12.41-14.32,7.26-21.18-7-9.38-17.62-1.45-17.47,8.38Zm-.1,0c-.36-7.94,6.56-17,14.94-12.25,8.13,5.18,8,19.22-.12,24.3-8.15,4.63-15.07-4.3-14.82-12Z"/>
        </g>
        <path class="b85fd829-87c3-49d9-b993-b5c7a5740b26" d="M50.94,15c-.24,4.09-2.67,7.16-5.44,6.87s-4.82-3.87-4.58-8S43.59,6.72,46.37,7,51.18,10.89,50.94,15Z"/>
      </g>
      <circle class="a13fdca3-2cb6-4b70-a000-1f926e5a4ba6" cx="13.4" cy="10.07" r="2.23"/>
      <circle class="e750a171-ae70-4c9e-b5ce-d385d1b7fde6" cx="17.88" cy="18.14" r="1.68"/>
      <circle class="e750a171-ae70-4c9e-b5ce-d385d1b7fde6" cx="46.48" cy="19.19" r="1.68"/>
      <circle class="a13fdca3-2cb6-4b70-a000-1f926e5a4ba6" cx="42.21" cy="10.07" r="1.86"/>
    </g>
    <path class="bfe5a411-5fb0-4ec5-8f3a-81d0a4a4cffb" d="M1.11,10.56S14,6.13,23.77,11.92c0,0-1.22-9.2-9.22-11.2C14.55.72,4.67-1.6,1.11,10.56Z"/>
    <path class="bfe5a411-5fb0-4ec5-8f3a-81d0a4a4cffb" d="M30.82,13.13s11-6.83,20.34.88c0,0-.71-9.65-8.16-11.47C43,2.54,33.09-.47,30.82,13.13Z"/>
  </g>
</svg>
