<svg id="be6b312a-8a95-47c4-998e-3ac1ad58c4cf" data-name="Layer 1" xmlns="http://www.w3.org/2000/svg" width="410" height="780" viewBox="0 0 410 780">
  <defs>
    <style>
      .e24a2d06-cc14-4dd9-984d-2f4eb93e1188 {
        fill: #531515;
      }

      .aaafbfb7-5154-4399-9999-607510c07cb2, .e7f0a465-a20c-418d-a203-a61b8c9c1c61, .f2834dd2-7744-4392-adbe-7d085c505f74 {
        fill: #ffc658;
      }

      .e7f0a465-a20c-418d-a203-a61b8c9c1c61 {
        stroke: #549141;
      }

      .a84c8356-90cd-495c-9953-d534de4b601f, .af1fe894-3af4-42a0-94f8-6b07bf37a9cc, .bfd78a7b-6def-4770-9558-a6ee92543054, .e7f0a465-a20c-418d-a203-a61b8c9c1c61, .ec9fe78d-9f59-448b-a4df-f8bb583b3a5a, .f2834dd2-7744-4392-adbe-7d085c505f74 {
        stroke-miterlimit: 10;
      }

      .a84c8356-90cd-495c-9953-d534de4b601f, .ec9fe78d-9f59-448b-a4df-f8bb583b3a5a {
        fill: #ee4a88;
        stroke: #be1e60;
      }

      .bfd78a7b-6def-4770-9558-a6ee92543054 {
        fill: #e12a76;
        stroke: #901a4a;
      }

      .a84c8356-90cd-495c-9953-d534de4b601f, .bfd78a7b-6def-4770-9558-a6ee92543054 {
        stroke-width: 2px;
      }

      .f583dfd6-1c37-45c1-937e-2478273f9a1f {
        fill: #c31d68;
      }

      .e037e5c6-fb98-4fa0-b26c-2ae1f4527b87 {
        fill: #c01e68;
      }

      .bfcd1252-24b7-449c-a97e-6bcca219d6c5 {
        fill: #a91f60;
      }

      .af1fe894-3af4-42a0-94f8-6b07bf37a9cc, .b14e69c6-5817-4116-9546-2af2f4a24194 {
        fill: #f5b1a3;
      }

      .a94d6b96-d693-4ccf-ac8b-d578b4efc5d8 {
        fill: #cd7b6e;
      }

      .a2492ce8-4f14-4cbf-8747-d83c54f43663 {
        fill: #db6c53;
      }

      .a5cedbce-39a5-472c-9966-363f0aab6f58 {
        fill: #f9c0b2;
        opacity: 0.67;
      }

      .ac5e39c7-45ff-4040-9685-cc067772ea15 {
        fill: #fff;
      }

      .f3938003-1187-4e46-bc9e-5ea341868999 {
        fill: #361212;
      }

      .af1fe894-3af4-42a0-94f8-6b07bf37a9cc {
        stroke: #b67474;
        stroke-width: 0.75px;
      }

      .f41a6e70-2e3d-468a-8523-51e6948be488 {
        fill: #ffe4b6;
      }

      .a5c2d398-045e-4181-badc-d5f059b343ed {
        fill: #bea2b5;
      }

      .b1d913ad-d84d-4e3c-893e-105eb4e1309f {
        fill: #e82860;
      }

      .e710bd5a-ed8e-4387-93e8-ec5b3eec747d {
        fill: #e7ca54;
      }

      .fbfb020b-32bb-460a-89cb-3cb23de2450c {
        fill: #a3c5e8;
      }

      .b6e596b9-da9c-46a2-86e4-c099e5d30f23 {
        fill: #c3def2;
      }

      .f2834dd2-7744-4392-adbe-7d085c505f74 {
        stroke: #ffc658;
        stroke-width: 0.5px;
      }
    </style>
  </defs>
  <g>
    <path class="e24a2d06-cc14-4dd9-984d-2f4eb93e1188" d="M281.88,176.53s-2.78,16.22,1.48,21.17,19.51,7.24,29.33,18.88,6.1,25.36,7.5,30.07,8.75,14.48,11.52,24.6-.78,15.28.6,21.25,12.34,24,13.27,34.12-1.53,13,.59,20.87-2.33,27.12-13.56,39.39-66,40.09-107.39,17.85-15-227.7-15-227.7-6.07-110.62-5.05-110.65,38.25,26.38,38.25,26.38l20.49,8.49S293.38,145.58,281.88,176.53Z"/>
    <path class="e24a2d06-cc14-4dd9-984d-2f4eb93e1188" d="M126.55,140.89a94,94,0,0,0-1.37,46.25c1.41,6.26,2.22,12.68.4,15.05-4,5.18-19.07,8.35-28.21,20.53s-4.65,25.66-5.78,30.44-7.91,15-10.09,25.22,1.64,15.21.6,21.26-10.95,24.68-11.29,34.81,2.26,12.91.59,20.87,3.88,26.95,15.79,38.55,68.21,36.27,108.22,11.71,2-228.19,2-228.19-.25-110.78-1.27-110.75S154,80.46,154,80.46l-6.4,18.4S134.55,112.66,126.55,140.89Z"/>
    <path class="e7f0a465-a20c-418d-a203-a61b8c9c1c61" d="M149.78,274.22s-16-1.46-25,12.9S90,402.4,84.36,416.51s-11.57,26.88-23.12,62.3S42.56,544.08,40.8,548.33l-1.75,4.25,15.44,5.2s19.63-47.31,27.43-60.2,23.21-47.1,27.08-62.17,4.55-15.32,12.36-36.28,28.34-76.61,31.88-100.37S149.78,274.22,149.78,274.22Z"/>
    <path class="ec9fe78d-9f59-448b-a4df-f8bb583b3a5a" d="M129.21,267.54s-18.6,8.9-29.82,31.37-22,58.29-29.25,72-16.78,33-15.85,52.1S70.71,456.37,96,457.58s44.86-7.54,47.43-38.75,9.88-72.52,13.65-90.75S165.93,293,163.4,289,129.21,267.54,129.21,267.54Z"/>
    <path class="e7f0a465-a20c-418d-a203-a61b8c9c1c61" d="M266.64,271.34s16.07-1.13,24.77,13.4,32.47,116,37.79,130.18,11,27.1,21.85,62.75,17.37,65.63,19,69.92l1.67,4.28-15.54,4.89S337.54,509.07,330,496s-22.26-47.56-25.83-62.71-4.24-15.41-11.63-36.52-26.79-77.16-29.86-101S266.64,271.34,266.64,271.34Z"/>
    <path class="ec9fe78d-9f59-448b-a4df-f8bb583b3a5a" d="M293.8,270s18.16,9.77,28.31,32.74,19.25,59.26,25.82,73.32,15.21,33.74,13.38,52.78-18,32.54-43.26,32.56-44.45-9.65-45.55-40.95-6.45-72.9-9.35-91.28-7.23-35.46-4.51-39.33S293.8,270,293.8,270Z"/>
    <path class="bfd78a7b-6def-4770-9558-a6ee92543054" d="M392.54,769c-19.9-90.36-47.08-200.58-53.39-217.41C327.76,521.22,245.2,452.89,193,456.69S90.33,532.5,90.33,532.5s-30.61,35.88-42.5,122.87C42,697.86,38.09,731.13,33.41,769Z"/>
    <path class="f583dfd6-1c37-45c1-937e-2478273f9a1f" d="M279.39,769l7.55-.33c-4.82-64.28-11.09-138.76-13.25-160.61-4-40.69-5.24-66.43-5.24-66.43H254.72s10.41,91.58,15.63,140.45C272.42,701.43,275.83,735.23,279.39,769Z"/>
    <path class="f583dfd6-1c37-45c1-937e-2478273f9a1f" d="M117.36,768c3.92-32,6.7-55.92,9-74.29,6.08-48.87,18.2-140.45,18.2-140.45h-16s-1.4,25.75-6.09,66.43C120,641,113,705.11,107.42,768.31Z"/>
    <path class="f583dfd6-1c37-45c1-937e-2478273f9a1f" d="M210.24,768.31c.17-44.1,1.41-83.25,3.85-102.92,6.08-48.87,4.57-161.26,4.57-161.26h-16s-.92,25.42-5.6,66.11c-2.54,22-.14,113.84,3.39,197.66C203.85,767.76,206.85,768.44,210.24,768.31Z"/>
    <path class="f583dfd6-1c37-45c1-937e-2478273f9a1f" d="M306.89,560.6c.47,1.42,30.82,157.06,31.3,150.41S317.8,560.6,317.8,560.6Z"/>
    <path class="e037e5c6-fb98-4fa0-b26c-2ae1f4527b87" d="M172.12,282.4s-20.5,9.18-21.18,13.06-.48,23.73-2.51,28-6.06,16.83-4.57,27.27,15.68,19.39,16.15,22.25,5.2,25.82,4.78,42.55-9.06,47.17-9.06,47.17,11.14,11.9,45.07,8.89,55.13-15.4,56.36-17.49-10.41-13.09-9-38.06c.69-12.37,2.69-26.43,8-45.07,1.21-4.24,14-6,17-22,2.38-12.7-.95-33.17-.42-35.7,3-14.32.43-32.94-3.08-35.19s-28-10.17-30.26-9.5-18.12,20.84-18.12,20.84l-29.53,10.78Z"/>
    <path class="bfcd1252-24b7-449c-a97e-6bcca219d6c5" d="M164,369.92s9.35,2,16.32.4,24-.74,26.75-.4,15.49,6,30,4,22.22-8.7,19-9-44.69,4.36-53.09,3S147.31,361.33,164,369.92Z"/>
    <path class="b14e69c6-5817-4116-9546-2af2f4a24194" d="M223.09,258.3c-2.82-6.93.79-27.74.79-27.74l-15.61,4.82-13.9-8.58s-1.73,21-6.2,27-17.66,17.64-17.66,17.64,6.42,5.11,12.62,16.42,14.3,30.93,14.3,30.93,8.35-13.83,17.2-23.22,26.07-25.5,26.07-25.5S225.91,265.24,223.09,258.3Z"/>
    <path class="a94d6b96-d693-4ccf-ac8b-d578b4efc5d8" d="M208.62,232.85l-14.53-3.19-1.84,1.51s3.63,11.69,14.88,13.2h.1c11.25,1.37,15.9-8.55,15.9-8.55l.75-5.27Z"/>
    <path class="b14e69c6-5817-4116-9546-2af2f4a24194" d="M259.77,158.85s3.61-6.63,9-6.65,6.16,10.79,1.21,20.87c-5.45,11.09-11.5,12-12.41,7.87S259.77,158.85,259.77,158.85Z"/>
    <path class="a94d6b96-d693-4ccf-ac8b-d578b4efc5d8" d="M262.6,165.12s3.58-10.07,6.46-9.85,2.86,8.91,1.18,13.52a29.58,29.58,0,0,1-2.58,5.88s2.31-6.93,2.61-10.34-1.17-7.16-2.78-5.23a8.68,8.68,0,0,0-1.7,5.35c0,.53.48,6.65-.28,9.75s-4.23,2.93-4.87-.88S262.6,165.12,262.6,165.12Z"/>
    <path class="b14e69c6-5817-4116-9546-2af2f4a24194" d="M196,84.67c-60.71,5.32-55.58,55.5-49.19,84.38s15.9,41,31.14,54.16A66.51,66.51,0,0,0,204,237a16.73,16.73,0,0,0,10.86-.72,57.91,57.91,0,0,0,21.94-16.89c12.71-15.63,21.08-30.66,22.35-60.22S256.73,79.35,196,84.67Z"/>
    <path class="b14e69c6-5817-4116-9546-2af2f4a24194" d="M145.6,165s-4.71-5.9-10-5-4.18,11.7,2.44,20.76c7.3,10,13.41,9.8,13.6,5.59S145.6,165,145.6,165Z"/>
    <path class="a94d6b96-d693-4ccf-ac8b-d578b4efc5d8" d="M143.9,171.69s-5.28-9.29-8.07-8.57-1.27,9.27,1.18,13.52a29.82,29.82,0,0,0,3.56,5.34s-3.47-6.42-4.36-9.73-.1-7.25,1.83-5.63a8.81,8.81,0,0,1,2.61,5c0,.53.67,6.64,2,9.56s4.67,2.15,4.63-1.72S143.9,171.69,143.9,171.69Z"/>
    <g>
      <path class="a2492ce8-4f14-4cbf-8747-d83c54f43663" d="M209.44,194.64a17.85,17.85,0,0,1-4.18,1.79,17.82,17.82,0,0,1-4.42-1c-1.65-.75-2.87-.46-2.62.94s2.94,1.35,3.69,2.06,2.45,1.93,3.68,1.82,2.69-1.61,3.31-2.43,3.27-1.24,3.28-2.67S210.93,193.61,209.44,194.64Z"/>
      <path class="a5cedbce-39a5-472c-9966-363f0aab6f58" d="M201.77,195a7.33,7.33,0,0,0,3.78.41c2-.32,3.56-1.34,3-1.94S199.78,193,201.77,195Z"/>
    </g>
    <path class="e24a2d06-cc14-4dd9-984d-2f4eb93e1188" d="M216.64,144S231.53,138.16,236,138s11.86,4.31,12.65,4.24-4.88-8.85-13.46-9.08-19.67,4.76-20.07,6.22S214.48,144.85,216.64,144Z"/>
    <path class="e24a2d06-cc14-4dd9-984d-2f4eb93e1188" d="M185.83,146.72s-15.69-3.18-20.15-2.61-10.92,6.31-11.72,6.38,3.27-9.56,11.69-11.28,20.18,1.26,20.84,2.63S188.1,147.16,185.83,146.72Z"/>
    <g>
      <path class="ac5e39c7-45ff-4040-9685-cc067772ea15" d="M160.2,166.66s.26,5.3,1.24,7a14.71,14.71,0,0,0,13.38,6c7.39-.79,8.89-2,10.12-3s2.69-1.92,2.79-3.77-1.64-15.06-13.64-16.21S159.2,163.41,160.2,166.66Z"/>
      <path class="e24a2d06-cc14-4dd9-984d-2f4eb93e1188" d="M164.6,167.58a9,9,0,1,1,9.72,8.16A9,9,0,0,1,164.6,167.58Z"/>
      <path class="a2492ce8-4f14-4cbf-8747-d83c54f43663" d="M185.05,176.86a.09.09,0,0,0-.11-.13c-1.46,1-6.28,3.13-13.07,1.9-7.19-1.29-10-4.63-10.78-6a.09.09,0,0,0-.16.06c.3,1.57,1.94,6.07,10.75,7.5C180.28,181.57,184,178.13,185.05,176.86Z"/>
      <path class="ac5e39c7-45ff-4040-9685-cc067772ea15" d="M175.83,164.37a2.13,2.13,0,1,1,2.31,1.94A2.14,2.14,0,0,1,175.83,164.37Z"/>
      <path class="f3938003-1187-4e46-bc9e-5ea341868999" d="M186.82,167.9c0,.28-1.95-7.47-12.13-8.8s-13.81,4.9-14.13,6a8.94,8.94,0,0,0-.36,1.62,26.25,26.25,0,0,1-4.18-2.9c-1.42-1.36-1.45-1.7-1.45-1.7s3.43-8.39,18-7.93C180.53,154.44,187.06,162.22,186.82,167.9Z"/>
    </g>
    <g>
      <path class="ac5e39c7-45ff-4040-9685-cc067772ea15" d="M245,159.23s.67,5.26,0,7.13a14.69,14.69,0,0,1-12.13,8.24c-7.42.5-9.11-.46-10.48-1.16s-3-1.41-3.4-3.22-1-15.11,10.61-18.33S245.4,155.86,245,159.23Z"/>
      <path class="e24a2d06-cc14-4dd9-984d-2f4eb93e1188" d="M240.82,160.9a9,9,0,1,0-8.17,9.73A9,9,0,0,0,240.82,160.9Z"/>
      <path class="a2492ce8-4f14-4cbf-8747-d83c54f43663" d="M222.28,173.59a.09.09,0,0,1,.09-.15c1.61.71,6.73,2,13.2-.39,6.86-2.53,9.07-6.31,9.57-7.8a.09.09,0,0,1,.17,0c0,1.59-.86,6.31-9.28,9.25C227.8,177.4,223.54,174.66,222.28,173.59Z"/>
      <path class="ac5e39c7-45ff-4040-9685-cc067772ea15" d="M238.91,158.86a2.13,2.13,0,1,0-1.94,2.31A2.14,2.14,0,0,0,238.91,158.86Z"/>
      <path class="f3938003-1187-4e46-bc9e-5ea341868999" d="M219,165.08c.06.27.61-7.69,10.4-10.77s14.47,2.42,15,3.44a9,9,0,0,1,.64,1.54,25.54,25.54,0,0,0,3.6-3.58c1.17-1.59,1.14-1.93,1.14-1.93s-4.84-7.66-19.07-4.69C222.84,150.73,217.76,159.53,219,165.08Z"/>
    </g>
    <path class="af1fe894-3af4-42a0-94f8-6b07bf37a9cc" d="M355.19,554.83l-.35.88s-2.15,6.15-1.36,11.19S356,577.62,357,582.29s2,12,2.67,13.7,2.76,1.91,4.25-.41.39-8.47-.07-10.56-1.07-6.31.82-6.21,9.15,7.75,11.71,10.38a149.42,149.42,0,0,0,14.5,13.25c3.58,2.68,6.4,4.07,7.56,2.41s-1-4.63-3.09-6.45-13.84-12.32-13.78-13.55,18.65,16,21.21,17.51,6.84-.67,2.56-5.74-18.08-18-17.83-18.84,16.22,14.72,18.38,16.29,4.41-.31,2.45-4.18-16.5-16.32-16.85-18,3.21,1.36,6.58,4.33c3.77,3.33,7.91,6.94,9.42,5.91,1.31-.9-.81-4.92-6.07-9.32S386,559.31,383.47,556.8s-11.76-8.31-14-9.47c-.27-.39-.52-.76-.75-1.12-1.42-2.19-4-1-6.52.23l-2.79,1.33C356.69,549.11,354.11,551,355.19,554.83Z"/>
    <path class="af1fe894-3af4-42a0-94f8-6b07bf37a9cc" d="M55.55,555.87l.34.89S57.91,563,57,568s-2.75,10.67-3.79,15.32-2.21,12-2.94,13.65-2.8,1.85-4.24-.5-.22-8.48.28-10.56,1.2-6.28-.69-6.22-9.3,7.56-11.92,10.14S24.23,599,19,602.75c-3.64,2.61-6.48,3.94-7.61,2.26s1.12-4.6,3.23-6.38,14.08-12,14-13.28S9.65,601,7.06,602.44s-6.82-.81-2.44-5.8S23.06,579,22.82,578.17,6.31,592.56,4.12,594.09s-4.41-.4-2.36-4.23,16.82-16,17.2-17.62-3.24,1.29-6.66,4.2c-3.84,3.25-8,6.78-9.54,5.71-1.29-.93.91-4.9,6.25-9.2s15.68-13.22,18.23-15.67,11.93-8.08,14.14-9.19c.28-.39.53-.76.77-1.11,1.47-2.17,4-.92,6.52.36l2.76,1.39C54.18,550.12,56.72,552.06,55.55,555.87Z"/>
    <path class="aaafbfb7-5154-4399-9999-607510c07cb2" d="M127.18,269.55s4.51,50.19,76.64,53.52,89.59-50,90-53.05-.59-4.25-10.42-4.92-22.27-6.33-24.21-6.59a54.9,54.9,0,0,0-13-.89c-5.68.48-12.42,1-14.41,1.67s-8.64-1-8.64-1-4.83,11.93-20.79,11.23-14.93-9.62-16.31-13-7.34-2-10.64-1-3.56,2.32-12.74,2.58-8.67-.42-16.1.46a46.88,46.88,0,0,0-12.59,3.21l-6.94.83Z"/>
    <path class="f41a6e70-2e3d-468a-8523-51e6948be488" d="M133.92,261.77s5.45,48.76,68.05,55.7,85.62-52,85.62-52l-4.21-.39s-17.49,51.61-77.8,50-67.52-54.8-67.52-54.8Z"/>
    <path class="f41a6e70-2e3d-468a-8523-51e6948be488" d="M162.61,258.1s7.32,25.74,42.1,26.65,38.71-26.9,38.71-26.9l-3.06.26s-2.59,25.28-36.65,24.29c-30.31-.87-38.1-24.38-38.1-24.38Z"/>
    <path class="a84c8356-90cd-495c-9953-d534de4b601f" d="M248.27,429.89s48.12,22.46,65.26,52.73,37.94,106,43,137.44c.3,1.9-69.55,6.76-112.34-41.81-37.06-42.07-19.36-71.37-19.36-71.37S198.34,579.14,149,601.29s-97.68,32.73-95.15,27S73.31,457,164,428C210.69,434.83,248.27,429.89,248.27,429.89Z"/>
    <path class="e7f0a465-a20c-418d-a203-a61b8c9c1c61" d="M352.32,546.94l.93,2.2,1.33,5.82-1.41,4.91s11.3,2.17,16.52,4.63,13.49,9.74,13.16,9.28-4-11.28-4.36-14-.14-7.75-.87-8.36-6.93-5.27-8.78-8.06"/>
    <path class="e7f0a465-a20c-418d-a203-a61b8c9c1c61" d="M57.63,550.3a25.35,25.35,0,0,0-1.11,6.1,28.29,28.29,0,0,0,.41,4.91s-5.31-.52-12.75,2.3-18.36,10.81-18.36,10.81,8.37-11.79,9.72-16.89A30,30,0,0,0,36.83,550a11.53,11.53,0,0,0,5.5-6.55"/>
    <path class="a5c2d398-045e-4181-badc-d5f059b343ed" d="M278.77,314.28s11,74.61,10.49,87.68-5,22.45,1.13,39.37,27.66,17.89,27.66,17.89-17.91-18.27-18.6-34.94a387.18,387.18,0,0,0-9.18-64.83C285.13,337.76,278.77,314.28,278.77,314.28Z"/>
    <path class="a5c2d398-045e-4181-badc-d5f059b343ed" d="M291.47,293.67s22.15,80.06,24.62,98.74-1.27,29.23,3,45.72,12.19,19.59,12.19,19.59,11.1-10,.87-44.26S291.47,293.67,291.47,293.67Z"/>
    <path class="a5c2d398-045e-4181-badc-d5f059b343ed" d="M128,290.47s-22.14,80.07-24.61,98.74,1.27,29.23-3,45.73-12.2,19.58-12.2,19.58-11.1-10-.86-44.26S128,290.47,128,290.47Z"/>
    <path class="a5c2d398-045e-4181-badc-d5f059b343ed" d="M305.72,285.46s19.1,29.09,25.41,59.05,24.55,53.42,26.48,79.47-15.17,29.54-15.17,29.54,11.92-7.61,3.62-42-15.64-57.07-21.46-79.61S305.72,285.46,305.72,285.46Z"/>
    <path class="a5c2d398-045e-4181-badc-d5f059b343ed" d="M146.77,315.19s-17.24,73.42-17.83,86.48,3.08,22.8-4.43,39.14-25.37,14.64-25.37,14.64,15.67-15.84,17.77-32.39a386.06,386.06,0,0,1,14.6-63.83C138.45,338.05,146.77,315.19,146.77,315.19Z"/>
    <path class="a5c2d398-045e-4181-badc-d5f059b343ed" d="M122.34,284.21s-21.48,27.38-30.29,56.7S63.1,392.07,59,417.87s13.56,31,13.56,31-12.16-8.89-1-42.48,20.38-55.56,28.08-77.52S122.34,284.21,122.34,284.21Z"/>
    <path class="aaafbfb7-5154-4399-9999-607510c07cb2" d="M248.27,429.89s-31.21,191.58-195.45,192l-3.09,20s163.6,20.22,198.54-212Z"/>
    <path class="aaafbfb7-5154-4399-9999-607510c07cb2" d="M218.51,525.68s24.77,95.78,136.9,92.41l4.44,24.47s-107.93,9.68-143.09-106.44Z"/>
    <path class="e24a2d06-cc14-4dd9-984d-2f4eb93e1188" d="M200.09,96.19s-51.91,14.39-53.27,72.86c0,0-32.75-97.54,31.14-114.3,77.58-20.34,96.22,33.89,92.8,69.79-2,21-10.59,34.67-10.59,34.67S273,117.52,200.09,96.19Z"/>
    <path class="b1d913ad-d84d-4e3c-893e-105eb4e1309f" d="M185.05,201.72c.07.83,18,6,18,6l.62.68a2.18,2.18,0,0,0,3.12.13l.26-.24a5.13,5.13,0,0,1,1.72-1.07l17.32-6.51s-10,7-14,9c-3.8,1.9-5.65,2.1-10.85,1.22C194.06,209.73,185.05,201.72,185.05,201.72Z"/>
    <path class="b1d913ad-d84d-4e3c-893e-105eb4e1309f" d="M198.19,212.78c-.62-.74,5.27,8.23,10.08,4.59s5.46-4.59,5.46-4.59C213.08,212.78,204.15,219.84,198.19,212.78Z"/>
    <g>
      <path class="e710bd5a-ed8e-4387-93e8-ec5b3eec747d" d="M272,112a10.66,10.66,0,0,1-.17,2c-1.09-6.84-8-13-18.6-17.67-.78-.33-1.58-.67-2.4-1a99.82,99.82,0,0,0-17.26-5c-.94-.18-1.89-.37-2.88-.54-2.31-.4-4.71-.76-7.16-1.06-3.21-.39-6.55-.68-9.94-.85-2.78-.15-5.63-.24-8.51-.24-2,0-3.92,0-5.83.1q-5.39.21-10.48.75c-2,.2-3.93.46-5.85.73l-2.41.38a108.17,108.17,0,0,0-19.72,5.11c-.92.34-1.8.69-2.67,1-8.31,3.47-14.51,7.85-17.64,12.73,1.68-5.8,7.45-11.06,16-15.22.83-.4,1.72-.81,2.62-1.18A96.37,96.37,0,0,1,180.43,86c.78-.16,1.58-.29,2.38-.41.55-.1,1.12-.19,1.68-.27,1.24-.19,2.5-.36,3.77-.51,3.65-.42,7.41-.73,11.29-.89,1.13,0,2.27-.09,3.42-.11s2,0,3.06,0c1.23,0,2.47,0,3.68.05s2.53.07,3.77.14q5.82.27,11.27,1c1.15.13,2.29.28,3.4.45l2.35.39q1.38.23,2.73.51a93.79,93.79,0,0,1,20.14,6c.77.34,1.52.68,2.23,1C265.85,98.32,272,104.86,272,112Z"/>
      <path class="e710bd5a-ed8e-4387-93e8-ec5b3eec747d" d="M222.44,46.49c-7.85-.76-15.13,8.22-16.29,20.07a.25.25,0,0,0,0,.12,32.4,32.4,0,0,0,.1,7,24.29,24.29,0,0,0,3.48,10.06,14.45,14.45,0,0,0,3.92,4.11c3.39.17,6.73.46,9.94.85a13.88,13.88,0,0,0,4.58-3.39,21.54,21.54,0,0,0,2.7-3.6,28.78,28.78,0,0,0,3.61-10.52c.09-.59.17-1.18.22-1.77C235.81,57.55,230.33,47.27,222.44,46.49Zm2.31,38.42a8.71,8.71,0,0,1-5.89,1.69,8.8,8.8,0,0,1-5.38-2.67c-3.22-3.22-5-8.93-4.45-15.24.87-9.26,6.7-16.3,13-15.69s10.7,8.64,9.83,17.91C231.25,77.15,228.45,82.34,224.75,84.91Z"/>
      <path class="e710bd5a-ed8e-4387-93e8-ec5b3eec747d" d="M252.77,60.66C246.49,58.43,239,63,234.46,71.24a31.68,31.68,0,0,0-2.26,5.09,30.35,30.35,0,0,0-1.35,5.43,27.47,27.47,0,0,0-.35,4,25.57,25.57,0,0,0,.23,4.06c1,.17,1.94.36,2.88.54a19.2,19.2,0,0,1-.38-4.09A23.63,23.63,0,0,1,234.55,79c3-8.79,10.31-14.22,16.29-12.1s8.38,11,5.36,19.76a23.37,23.37,0,0,1-2.83,5.68,19.6,19.6,0,0,1-2.5,3c.82.32,1.62.66,2.4,1a23,23,0,0,0,2.33-3,31.48,31.48,0,0,0,3.68-7.44C263.16,74.61,260.25,63.3,252.77,60.66Z"/>
      <path class="e710bd5a-ed8e-4387-93e8-ec5b3eec747d" d="M183,89.24a25.77,25.77,0,0,0-.15-3.69,24.92,24.92,0,0,0-.43-2.89,32.87,32.87,0,0,0-1.23-4.45,30.63,30.63,0,0,0-3.22-6.54v0c-4.66-7.2-11.66-11-17.52-8.89-7.45,2.74-10.25,14.06-6.25,25.33a31.74,31.74,0,0,0,2.4,5.2,22,22,0,0,0,1.6,2.49c.87-.36,1.75-.71,2.67-1a21.53,21.53,0,0,1-1.65-2.62,21.87,21.87,0,0,1-1.55-3.47c-3.12-8.75-.82-17.63,5.13-19.81S176.08,72,179.2,80.75A26,26,0,0,1,180.43,86a21.57,21.57,0,0,1,.12,3.66Z"/>
      <path class="e710bd5a-ed8e-4387-93e8-ec5b3eec747d" d="M188.26,84.77a8.92,8.92,0,0,0,6.39,1.69,8.61,8.61,0,0,0,4.9-2.58C195.67,84,191.91,84.35,188.26,84.77Zm17.89-18.21c0-.18,0-.35-.07-.54-1.68-11.85-9.38-20.54-17.22-19.39S176,58.29,177.68,70.13c.07.51.15,1,.25,1.52v0a28.66,28.66,0,0,0,4.45,11,20.64,20.64,0,0,0,2.11,2.62,15.94,15.94,0,0,0,4.32,3.23l10.48-.75a13.9,13.9,0,0,0,3.68-4,23.35,23.35,0,0,0,3.26-10A30.82,30.82,0,0,0,206.15,66.56Zm-6.6,17.32c-3.88.16-7.64.47-11.29.89-3.62-2.48-6.48-7.42-7.31-13.37-1.3-9.24,2.74-17.45,9-18.37s12.39,5.85,13.69,15.07C204.57,74.59,202.83,80.58,199.55,83.88Z"/>
      <g>
        <g>
          <path class="e710bd5a-ed8e-4387-93e8-ec5b3eec747d" d="M204.73,34.58,198,25a1.49,1.49,0,0,1-.11-1.56l6-11.61a1.46,1.46,0,0,1,2.59,0L212.56,23a1.51,1.51,0,0,1,0,1.43l-5.34,10A1.46,1.46,0,0,1,204.73,34.58Z"/>
          <ellipse class="fbfb020b-32bb-460a-89cb-3cb23de2450c" cx="205.19" cy="23.66" rx="3.81" ry="6.14"/>
          <ellipse class="b6e596b9-da9c-46a2-86e4-c099e5d30f23" cx="205.22" cy="21.85" rx="2.69" ry="4.34"/>
        </g>
        <ellipse class="e710bd5a-ed8e-4387-93e8-ec5b3eec747d" cx="205.97" cy="50.92" rx="0.75" ry="20.37"/>
      </g>
      <g>
        <g>
          <path class="e710bd5a-ed8e-4387-93e8-ec5b3eec747d" d="M242.45,44.09l-3.34-11.31a1.49,1.49,0,0,1,.4-1.51l9.4-9a1.47,1.47,0,0,1,2.46.83l2.17,12.56A1.5,1.5,0,0,1,253.1,37l-8.25,7.75A1.46,1.46,0,0,1,242.45,44.09Z"/>
          <ellipse class="fbfb020b-32bb-460a-89cb-3cb23de2450c" cx="246.35" cy="33.9" rx="6.13" ry="3.82" transform="translate(137.2 257.34) rotate(-71.8)"/>
          <ellipse class="b6e596b9-da9c-46a2-86e4-c099e5d30f23" cx="246.95" cy="32.2" rx="4.33" ry="2.69" transform="translate(139.23 256.74) rotate(-71.8)"/>
        </g>
        <ellipse class="e710bd5a-ed8e-4387-93e8-ec5b3eec747d" cx="238.44" cy="59.96" rx="20.34" ry="0.75" transform="translate(105.8 266.98) rotate(-71.47)"/>
      </g>
      <g>
        <g>
          <path class="e710bd5a-ed8e-4387-93e8-ec5b3eec747d" d="M270.77,72.79l1-11.77a1.49,1.49,0,0,1,.92-1.26l12-4.9a1.47,1.47,0,0,1,2,1.68l-2.49,12.51a1.51,1.51,0,0,1-.9,1.09L272.77,74.3A1.47,1.47,0,0,1,270.77,72.79Z"/>
          <ellipse class="fbfb020b-32bb-460a-89cb-3cb23de2450c" cx="278.07" cy="64.75" rx="6.1" ry="3.83" transform="matrix(0.63, -0.77, 0.77, 0.63, 52.05, 239.2)"/>
          <ellipse class="b6e596b9-da9c-46a2-86e4-c099e5d30f23" cx="279.24" cy="63.39" rx="4.31" ry="2.71" transform="translate(53.54 239.6) rotate(-50.77)"/>
        </g>
        <path class="e710bd5a-ed8e-4387-93e8-ec5b3eec747d" d="M261.9,86.57c-7.15,8.6-8,7.88-8.3,7.61s0,0,7.15-8.59S274,70.25,274.28,70.52,269.06,78,261.9,86.57Z"/>
      </g>
      <g>
        <g>
          <path class="e710bd5a-ed8e-4387-93e8-ec5b3eec747d" d="M140.7,72.65l-.95-11.76a1.49,1.49,0,0,0-.92-1.26l-12-4.9a1.47,1.47,0,0,0-2,1.68l2.49,12.5a1.47,1.47,0,0,0,.9,1.09l10.46,4.16A1.47,1.47,0,0,0,140.7,72.65Z"/>
          <ellipse class="fbfb020b-32bb-460a-89cb-3cb23de2450c" cx="133.4" cy="64.62" rx="3.83" ry="6.1" transform="translate(-10.8 98.93) rotate(-39.23)"/>
          <ellipse class="b6e596b9-da9c-46a2-86e4-c099e5d30f23" cx="132.23" cy="63.25" rx="2.71" ry="4.31" transform="translate(-10.2 97.88) rotate(-39.23)"/>
        </g>
        <path class="e710bd5a-ed8e-4387-93e8-ec5b3eec747d" d="M149.57,86.44c7.15,8.59,8,7.88,8.3,7.61s0,0-7.15-8.6S137.5,70.11,137.19,70.39,142.41,77.85,149.57,86.44Z"/>
      </g>
      <g>
        <g>
          <path class="e710bd5a-ed8e-4387-93e8-ec5b3eec747d" d="M166.81,47.27,157,41a1.51,1.51,0,0,1-.68-1.41l1.27-13.07a1.46,1.46,0,0,1,2.38-1l9.77,8a1.52,1.52,0,0,1,.54,1.32l-1.2,11.34A1.46,1.46,0,0,1,166.81,47.27Z"/>
          <ellipse class="fbfb020b-32bb-460a-89cb-3cb23de2450c" cx="163.16" cy="36.99" rx="3.82" ry="6.13" transform="translate(-2.16 62.63) rotate(-21.59)"/>
          <ellipse class="b6e596b9-da9c-46a2-86e4-c099e5d30f23" cx="162.51" cy="35.3" rx="2.69" ry="4.33" transform="translate(-1.59 62.27) rotate(-21.59)"/>
        </g>
        <ellipse class="e710bd5a-ed8e-4387-93e8-ec5b3eec747d" cx="174.06" cy="61.91" rx="0.75" ry="20.33" transform="translate(-10.52 69.61) rotate(-21.97)"/>
      </g>
    </g>
    <circle class="aaafbfb7-5154-4399-9999-607510c07cb2" cx="260.56" cy="194.36" r="3.92"/>
    <circle class="aaafbfb7-5154-4399-9999-607510c07cb2" cx="147.56" cy="198.54" r="3.82"/>
    <line class="f2834dd2-7744-4392-adbe-7d085c505f74" x1="260.55" y1="180.5" x2="260.55" y2="191.8"/>
    <line class="f2834dd2-7744-4392-adbe-7d085c505f74" x1="146.77" y1="186.15" x2="147.56" y2="202.36"/>
  </g>
</svg>
