<svg id="b5ce4003-b9ec-4499-bfca-2c3ee07ebfe1" data-name="Layer 1" xmlns="http://www.w3.org/2000/svg" width="104.25" height="112.06" viewBox="0 0 104.25 112.06">
  <defs>
    <style>
      .e22722e5-0c90-418e-90dc-72bc520d7f38 {
        fill: #181818;
      }

      .e22722e5-0c90-418e-90dc-72bc520d7f38, .e3e4a766-04f3-44a8-a381-3058f9e3b702 {
        stroke: #161616;
        stroke-miterlimit: 10;
        stroke-width: 0.78px;
      }

      .e3e4a766-04f3-44a8-a381-3058f9e3b702 {
        fill: #fff;
      }

      .ec0b8126-e470-4ca5-bdca-d71a20f36711 {
        fill: #020206;
      }

      .a1f2178e-6204-4ca1-8912-aefcf2931d8b {
        fill: #383838;
      }
    </style>
  </defs>
  <g>
    <g>
      <path class="e22722e5-0c90-418e-90dc-72bc520d7f38" d="M36.89,38.23S40,51.81,21.75,56.72,1.82,57.91,1.82,57.91s6.47-1,7.5-6.36S9.5,44.45,14.57,38s14.3-6.22,19-5.84C33.62,32.13,38.24,34.44,36.89,38.23Z"/>
      <path class="e3e4a766-04f3-44a8-a381-3058f9e3b702" d="M92.69,2.41S65.52-1.17,51.37,10.24s-21.79,30-21.79,30,7.62-1.1,10.75-7.56c2.9-6,10.08-18.34,31.32-19.68,1.7-.11,12.4-.07,11.86,5.87,0,0,1.77-3.7,4.32-8.64C90.12,5.81,92.78,2,92.69,2.41Z"/>
    </g>
    <path class="ec0b8126-e470-4ca5-bdca-d71a20f36711" d="M71.65,13s5-6.34.78-10.34l4.08-.37s3.54,4.2-.33,10.49Z"/>
    <path class="ec0b8126-e470-4ca5-bdca-d71a20f36711" d="M63.67,14.14s4.49-6-1.23-9.46L58.64,6s5,4.12,1.87,9Z"/>
    <path class="ec0b8126-e470-4ca5-bdca-d71a20f36711" d="M51.52,19.3s2.65-5.3-2.1-7.41L46.7,14.48a4.31,4.31,0,0,1,3.19,5.87Z"/>
    <path class="ec0b8126-e470-4ca5-bdca-d71a20f36711" d="M43,28S42.2,24.21,38.82,24l1.81-2.47S45.68,24.62,43,28Z"/>
    <path class="ec0b8126-e470-4ca5-bdca-d71a20f36711" d="M37.63,36.32a5,5,0,0,0-3.74-4.69L34.77,30s5.22,2.74,3.67,5.49Z"/>
    <path class="a1f2178e-6204-4ca1-8912-aefcf2931d8b" d="M36.87,38.13S33.17,53.35,17,55.48c0,0-10.54,3.79-15.2,2.33,0,0,1,3.33,15.29-.05S37.86,49.68,36.87,38.13Z"/>
    <path class="ec0b8126-e470-4ca5-bdca-d71a20f36711" d="M87.23,2.28a26.14,26.14,0,0,1-3.72,14.17l-2.73-2.27s4-10.61,2.77-12Z"/>
  </g>
</svg>
