<svg id="af0e47c9-8aa6-4c25-9115-dd8ffbc4cbeb" data-name="Layer 1" xmlns="http://www.w3.org/2000/svg" width="55.91" height="44.94" viewBox="0 0 55.91 44.94">
  <defs>
    <style>
      .b72f765d-c6b5-4234-9afc-c8c9fdc51f75 {
        fill: #fff;
      }

      .add5d249-8eba-4e27-8e18-eec5d526a196 {
        fill: #702840;
      }

      .fa3774c2-ee1f-4a24-8133-a2559fd612a3 {
        fill: #210a11;
      }

      .f7f53b4f-15fe-48e5-b79f-052ca9ae1168 {
        fill: #ecc516;
        stroke: #7f3d00;
        stroke-miterlimit: 10;
        stroke-width: 0.25px;
      }
    </style>
  </defs>
  <g>
    <g>
      <g>
        <ellipse class="b72f765d-c6b5-4234-9afc-c8c9fdc51f75" cx="40.47" cy="28.14" rx="13.3" ry="9.81" transform="translate(8.64 65.77) rotate(-84.58)"/>
        <path class="add5d249-8eba-4e27-8e18-eec5d526a196" d="M39.08,41.31a7.66,7.66,0,0,0,4.35-.91,10.53,10.53,0,0,0,3.38-2.92,15.79,15.79,0,0,0,2.93-8.33A16.07,16.07,0,0,0,48,20.67c-1.27-2.55-3.58-4.6-6.28-4.87s-5.39,1.14-7.17,3.36a16.52,16.52,0,0,0-2.24,16.71A11,11,0,0,0,35,39.45,7.83,7.83,0,0,0,39.08,41.31Zm0,.1a8,8,0,0,1-4.14-1.83A11.24,11.24,0,0,1,32.14,36a16.61,16.61,0,0,1-1.5-8.92,16.42,16.42,0,0,1,3.28-8.44,11,11,0,0,1,3.49-2.94,8,8,0,0,1,4.47-.87A8.08,8.08,0,0,1,46,16.66a11.18,11.18,0,0,1,2.78,3.62,16.64,16.64,0,0,1,1.47,8.93A16.51,16.51,0,0,1,47,37.63a10.9,10.9,0,0,1-3.49,2.92A7.89,7.89,0,0,1,39.06,41.41Z"/>
      </g>
      <ellipse class="fa3774c2-ee1f-4a24-8133-a2559fd612a3" cx="36.02" cy="26.81" rx="5.99" ry="4.45" transform="translate(3.55 57.83) rotate(-80.35)"/>
      <ellipse class="b72f765d-c6b5-4234-9afc-c8c9fdc51f75" cx="33.61" cy="24.94" rx="1.64" ry="1.22" transform="translate(3.39 53.89) rotate(-80.35)"/>
      <path class="f7f53b4f-15fe-48e5-b79f-052ca9ae1168" d="M50.21,29.25c.78-7.3-3-13.72-8.34-14.34S31.49,19.71,30.72,27C34,18.46,45.36,23.34,50.21,29.25Z"/>
    </g>
    <g>
      <g>
        <ellipse class="b72f765d-c6b5-4234-9afc-c8c9fdc51f75" cx="13.87" cy="23.04" rx="12.1" ry="8.92" transform="translate(-12.33 29.07) rotate(-71.9)"/>
        <path class="add5d249-8eba-4e27-8e18-eec5d526a196" d="M10,34.45a7.12,7.12,0,0,0,4,0,9.64,9.64,0,0,0,3.58-1.92,14.39,14.39,0,0,0,4.23-6.8A14.72,14.72,0,0,0,22,17.94a7.56,7.56,0,0,0-4.56-5.51,7.36,7.36,0,0,0-7,1.52,14.45,14.45,0,0,0-4.61,6.34,14.41,14.41,0,0,0-.75,8A9.9,9.9,0,0,0,6.8,32,7.12,7.12,0,0,0,10,34.45Zm0,.09a7.22,7.22,0,0,1-3.31-2.45,10.14,10.14,0,0,1-1.76-3.76,15,15,0,0,1,.46-8.21A15,15,0,0,1,10,13.28a9.86,9.86,0,0,1,3.69-1.91,7.29,7.29,0,0,1,4.14.11A7.25,7.25,0,0,1,21.11,14a10.16,10.16,0,0,1,1.75,3.77A15.13,15.13,0,0,1,22.38,26a14.89,14.89,0,0,1-4.61,6.82,9.7,9.7,0,0,1-3.68,1.89A7.11,7.11,0,0,1,10,34.54Z"/>
      </g>
      <ellipse class="fa3774c2-ee1f-4a24-8133-a2559fd612a3" cx="9.49" cy="22.03" rx="5.45" ry="4.04" transform="translate(-14.49 22.43) rotate(-67.66)"/>
      <ellipse class="b72f765d-c6b5-4234-9afc-c8c9fdc51f75" cx="7.84" cy="19.32" rx="1.49" ry="1.11" transform="translate(-13.01 19.23) rotate(-67.66)"/>
      <path class="f7f53b4f-15fe-48e5-b79f-052ca9ae1168" d="M22.3,26c2.14-6.32.11-12.77-4.54-14.39S7.59,13.77,5.45,20.1C7.18,17.65,13.68,14.4,22.3,26Z"/>
    </g>
    <path class="fa3774c2-ee1f-4a24-8133-a2559fd612a3" d="M21.16,6.2s-4-.86-10,2.32C11.16,8.52,21.16-1.12,21.16,6.2Z"/>
    <path class="fa3774c2-ee1f-4a24-8133-a2559fd612a3" d="M37.72,6.83s4.51.49,9.9,5.46C47.62,12.29,39.88-.17,37.72,6.83Z"/>
  </g>
</svg>
