<svg id="Layer_1" data-name="Layer 1" xmlns="http://www.w3.org/2000/svg" width="630" height="430" viewBox="0 0 630 430">
  <defs>
    <style>
      .cls-1 {
        opacity: 0.2;
      }

      .cls-10, .cls-2, .cls-20, .cls-4, .cls-5 {
        fill: #ff8a00;
      }

      .cls-2, .cls-20, .cls-22, .cls-3, .cls-4, .cls-5 {
        stroke: #5b1b02;
      }

      .cls-14, .cls-2, .cls-20, .cls-22, .cls-3, .cls-4, .cls-5 {
        stroke-miterlimit: 10;
      }

      .cls-2 {
        stroke-width: 0.71px;
      }

      .cls-3 {
        fill: #c66c0a;
      }

      .cls-22, .cls-3, .cls-4 {
        stroke-width: 0.75px;
      }

      .cls-5 {
        stroke-width: 0.48px;
      }

      .cls-6 {
        fill: #ff7a75;
      }

      .cls-7 {
        fill: #ba6304;
      }

      .cls-8 {
        fill: #6d1f0d;
      }

      .cls-9 {
        fill: #590e0e;
      }

      .cls-11, .cls-15 {
        fill: #ffde8c;
      }

      .cls-12 {
        fill: #fbffff;
      }

      .cls-13 {
        fill: #130d14;
      }

      .cls-14 {
        fill: #6b0a0a;
        stroke: #2d0901;
        stroke-width: 0.5px;
      }

      .cls-15 {
        opacity: 0.76;
      }

      .cls-16 {
        fill: #091204;
      }

      .cls-17 {
        fill: #b70f0f;
      }

      .cls-18 {
        fill: #60110e;
      }

      .cls-19 {
        fill: #f5a954;
      }

      .cls-20 {
        stroke-width: 0.51px;
      }

      .cls-21 {
        fill: #ddb966;
      }

      .cls-22 {
        fill: none;
      }

      .cls-23 {
        fill: #471201;
      }

      .cls-24 {
        fill: #160b0c;
      }
    </style>
  </defs>
  <g>
    <ellipse class="cls-1" cx="324.21" cy="380.77" rx="211.55" ry="43.35"/>
    <g>
      <path class="cls-2" d="M299.82,275.32s-37.47-45.9-99-32.77-60.87,57.31-132.38,60.38l1.6,5.93s46.76,10.44,82.51-28.55c26.25-28.62,93.21-44.41,135.76,10.47l8.63,1.59,7.8-12.06Z"/>
      <path class="cls-3" d="M346.71,302.31s-8.44,34.35-44.54,42.79c0,0-18.34,4.37-23.29,8.15v5.82a102.82,102.82,0,0,1,10.55,2.8c5.71,1.86,24.08.93,26.09,17.76,0,0,1.23,12.19-13.28,11.73,0,0-4.94,3.86-14.82-.92,0,0-12.66,4.94-26.25-9.42s-13.74-25.48-13.74-25.48-.92-4.94,6-9,11.89-25.47,5.87-35.51,3.22-19.54,3.22-19.54L303.16,284l28.52,3.88Z"/>
      <path class="cls-3" d="M454.47,294.43l-4.21,83s-.29,11,12.39,13.54,19.3,1.89,19.3,1.89,1.46,1,7.63,0c0,0,8.1,2.57,11.18-5,0,0,4.24-13.87-7.07-18.63s-13-4.88-12.59-13.36,19.92-52.68,21.07-78.11Z"/>
      <path class="cls-4" d="M524.28,235.69s1.32,37-37.57,57.88-115.65,15.86-115.65,15.86-72.48-9.32-83.3-6.55a182.64,182.64,0,0,1-42.28,11.58c-22.4,3-43.79,12.58-51.34,26.17,0,0-5.29,12.84,0,25.92,0,0,14.54,20-2.35,25.42h-4.24a2,2,0,0,0-.84.19,20.18,20.18,0,0,1-18.75-1.7s-15.1,3.78-18.87-9.06,8.55-35.48,8.55-35.48l16.11-38.51s-1.26-9.56,11.83-12.83,32.21-5.29,40.52-21.9,7-28.15,31.71-42c20.39-11.43,71.22-22.2,71.22-22.2s59.59-22.48,78.88-51C407.91,157.47,524.71,214.84,524.28,235.69Z"/>
      <g>
        <g>
          <path class="cls-5" d="M591.45,89.4s-12-9.79-17.25-18.78c0,0-1.63-14.94,11.45-19.44,10.19-3.51,20.41,6.85,19.91,15.51C605.56,66.69,604.63,86.58,591.45,89.4Z"/>
          <path class="cls-6" d="M593.92,58.83s-10.25-4.25-17.22,14.91c0,0,6.21,5.75,13.31,6.73C590,80.47,604.16,65,593.92,58.83Z"/>
        </g>
        <path class="cls-7" d="M594.7,59.24s-10.83-2.39-14.8,14.43a12.61,12.61,0,0,1-2.33-1.85,82.48,82.48,0,0,1,4.2-8.3C583.12,61.38,588.25,54.76,594.7,59.24Z"/>
        <path class="cls-7" d="M603.84,61a44.34,44.34,0,0,1-4.41,19l1.86,1.1a36.53,36.53,0,0,0,2.77-7.53S606.78,64.66,603.84,61Z"/>
      </g>
      <path class="cls-8" d="M498.07,30.1S492.33,7.57,461.7,12c0,0-14.6,3.46-23.7,21,0,0-7.17,11.14-20.82,6.68,0,0,2.4,6.19,12.69,6,0,0-14.12,10.1-15.56,24.85s-8.19,51.06-15.64,69.58-9.11,70.45,33.1,89.22c0,0,6,11.87,18.51,14.89,0,0,37.24,8.14,47.79,25.42,0,0,1.93-7.91-2.91-12.07,0,0,6.42,5,20.51,6.45s27.62,15.82,25.08,29.77c0,0,7.22-13.26,15.36-17s18.71-28,18.38-42.88-3,14.18,7.6,16.91c0,0-2-23.57,4.95-29.73s20.15-10,19.16-34.55c0,0,0,11.18,6.28,14.15,0,0-3.31-13,2.64-24.49s15.53-28.1,10.9-43.37a163.77,163.77,0,0,0-11.56-27.93s7.93.67,9.91,0c0,0-10.9-5.09-17.51-13.48s-15.52-34-20.81-43.57-15.11-23.24-32.16-30.42c0,0,7.51-2.73,8.74-8.54,0,0-12.68,5.13-21.88,0S508.86,2.1,498.07,30.1Z"/>
      <path class="cls-9" d="M508.79,53.09s25.69-26.42,46.24-2.2,11,41.84,34.5,57.25c0,0-6.61.74-13.58-4.4,0,0,23.86,13.58,6.61,62.39,0,0-5.14-9.54-5.14-17.25a21.94,21.94,0,0,1-9.18,17.25c-9.54,7-8.44,23.12-6.24,28.63,0,0-5.14-1.84-7-9.18l-40,9.18-22-1.84s8.08,14.32,5.14,23.13c0,0-8.07-15.05-15.41-17.25s-18.35-9.18-18.35-9.18,3.67,17.62,9.17,22.39c0,0-23.12-13.21-27.16-34.87l-4-21.65h0s-2.93,4-2.56,8.44-3.67-16.15,3.3-26.06,5.14-21.28,5.14-21.28-4.77,19.45-15.05,23.48l2.2-6.24s-13.21,15-23.12,16.89c0,0-1.1-5.14,7.71-12.48s19.45-16.52,20.55-30.46c0,0,2.2,9.91-2.57,17.61,0,0,12.48-13.21,12.48-28.62s-3.67-37.07,11.38-49.55,29.73,2.93,29.73,2.93-1.11-4.77-5.14-6.6l4.77.37s-3.56-5.15-6.33-8.32c0,0,7.34,5,10.64,12,0,0-6.62-7.94-1.48-12.35,0,0,1.88,6.58,4.08,9.88l2.19-11.2s-1.69,9.72,2.18,10.82c0,0,4.43-10.07,7.37-12.28,0,0-4.71,4.5-3.6,15.15a27.87,27.87,0,0,0,4-7A25,25,0,0,1,508.79,53.09Z"/>
      <path class="cls-10" d="M559.4,103.92s3.07-46.25-41.69-49.71a16.67,16.67,0,0,0-8.7,1.88c-2,1.15-5.26,4.06-8.46,4.32a64.29,64.29,0,0,1-14.49-.95s-24.15-4-30.54,27.22c-4.63,22.55,7.62,45.2,7.62,45.2s-25.21,31.17,16.05,53.18c0,0,22.92,5.8,28.27,19.61l39.45-6.09,5.28-16.24s-1.82-9.34,7.21-15.84,22.43-25.58,16.75-41S559.4,103.92,559.4,103.92Z"/>
      <path class="cls-11" d="M549,174s1.25,12.94-9.6,14.61-20,1.67-28-9.19-17.53-27.55-17.53-27.55,9.18,23.38,9.6,39.24,9.18,26.3,31.31,25.88c0,0,17.78-1.11,22.37-14.47a28.46,28.46,0,0,0-3-19S549.62,176.7,549,174Z"/>
      <path class="cls-12" d="M545,165.6s-7,5.23-24,3.07-15.77-11-15.77-11h30.16l10.78.83Z"/>
      <path class="cls-13" d="M549.35,165.6,548,177.79,542.47,186H527.16l-11.55-2.48L508.15,174s-11.34-17.67-12.73-21.26l5.38-.88,28.57.88S552,155.38,549.35,165.6Z"/>
      <path class="cls-11" d="M551.34,133.23s13.3,5.69,8.28,18.64-19.81,11.46-22.82,7.19V153.8s1.5,10.53-7,11.53-20.32-.33-34.36-13.46c0,0,4.82-11.12,21.09-9.36l23-2.51Z"/>
      <path class="cls-14" d="M548.51,127.65s-9.52,10.37-35,7.57c0,0-2.73,7.2,11.25,12.68,0,0,4.71,3,7.31,4.78,6.33,4.19,9.44-.81,9.44-.81S544,145.68,546,144,553.86,132.72,548.51,127.65Z"/>
      <path class="cls-15" d="M500.87,129.9s18.65-22.14-6.94-42.44c0,0-12.57-4.36-14.37,7.55-4.61,30.34,6.46,28.33,9.94,33.55Z"/>
      <path class="cls-16" d="M493.93,87.46s-11-2.06-15.08,13.06c0,0-3.44-13.75,5.5-18.9S493.93,87.46,493.93,87.46Z"/>
      <path class="cls-15" d="M557.72,105.75a42.55,42.55,0,0,0-10.37-27.21c-10.91-12.31-19.27.33-19.27.33s-.48,29.35,10.39,34.36Z"/>
      <path class="cls-11" d="M488,257s-1.26,19.27-77.78,27-108.33,7.68-108.33,7.68l-14.09,11.22s15.35-.92,39,1.57,54.6,6.44,66,5.51,52.43-1.49,66.75-6.66c0,0,31.74-6.21,51.55-29,0,0,5.17-4.41,7.38-13.5l-13.2-1.3Z"/>
      <path class="cls-16" d="M528.08,78.87s-2.33-5.85,0-10,17.12,0,19.87,10C548,78.87,533,70.27,528.08,78.87Z"/>
      <path class="cls-17" d="M542.47,178s-10.59-11.14-29.2-7.76c0,0-4.76.56-2.59,5.55s19.77,8.61,19.77,8.61l12-.95Z"/>
      <path class="cls-16" d="M551.76,160.63s-3.31,8.59-2.7,15.35c0,0,1.79,12.69-13.14,13.1s-19.1-1.47-25.81-11.54-16.18-25.67-16.18-25.67h1.49s11.81,22.46,19.74,28.06,21,7.95,29.83.48c0,0,1.54-8,1.54-11.43S551.76,160.63,551.76,160.63Z"/>
      <path class="cls-12" d="M551.76,160.63l-5.43,11.19s-2.52,4.22-2-9.73C544.34,162.09,549.36,162.05,551.76,160.63Z"/>
      <path class="cls-12" d="M524.28,165.58l-2.59,9.66s-1.89,4.34-4-10.51C517.71,164.73,522.85,165.6,524.28,165.58Z"/>
      <path class="cls-12" d="M545,180.41s-.78-6.93-2.68-8.67S540,183.49,540,183.49,544.73,181.81,545,180.41Z"/>
      <path class="cls-12" d="M525.45,184.44s-.68-8.43-1.17-10.17-3.48,5.53-4.27,8.38A17.16,17.16,0,0,0,525.45,184.44Z"/>
      <path class="cls-12" d="M545.78,175.83s-10.9,10.66-32.51,0c0,0-3.44-2.56-4.51-5.33l-.61,1.92s4.77,7.9,11.86,10.23c5.44,1.79,12.43,4,19.94.84C540,183.49,548,181.52,545.78,175.83Z"/>
      <path class="cls-7" d="M525,135.31s-11.54-4.16-13-10.91c0,0-.85,7.56,1.07,10.53C513.05,134.93,523.56,135.67,525,135.31Z"/>
      <path class="cls-7" d="M503.37,188.33a52.36,52.36,0,0,0-17.75-9.75C475,175.3,457.7,165.44,457,144c0,0-5.75,16.08,5.1,27.56s14.32,12.47,24.79,16.09,17.07,10.45,18.34,13.47C505.21,201.15,502.84,191.25,503.37,188.33Z"/>
      <path class="cls-7" d="M552.55,180.92s-3.23-4.86-3.52-6.92,1.62-11.24,2.73-13.37c.8-1.53,1.9.88,7.09-7.49,1.17-1.88,15.95-9.11,18.56-17.44,0,0-.11,6.08-4.42,14.23a57.62,57.62,0,0,1-16.37,19C551.76,172.59,552.55,180.92,552.55,180.92Z"/>
      <path class="cls-11" d="M548.3,127s-2.67-10.19-15.29-14.29C533,112.71,546.14,122.29,548.3,127Z"/>
      <path class="cls-18" d="M623.15,104.46s-14.62-2.93-19.57-8.35a17.5,17.5,0,0,0,11.08,8.35S622.12,105.54,623.15,104.46Z"/>
      <path class="cls-9" d="M612.48,200.69s-7.69-10.21-4-29.31c0,0-3,8.5-6.94,25.23S585,215.82,585,215.82s-4.47,1.41-5.05,16.29,2.18,18.71,2.18,18.71-1.11-17.41,1.85-24.49a21.57,21.57,0,0,1,9.81-10.26s8.11-5.39,10-12.28,2.44-17.25,2.44-17.25S606,197.23,612.48,200.69Z"/>
      <path class="cls-9" d="M591.29,199.9a30.14,30.14,0,0,1-3.71,16.1l-3.43,4.28-1.54,11.32-.52,19.22s-5.93-.54-7.7-13.55c0,0-.74,26.67-17.09,38.83s-16.55,17.71-16.55,17.71S545,275.9,520.9,265.17c0,0-16.65-1.82-25.74-7.58,0,0,5.16,3.21,2.91,12.07,0,0-8.46-12.88-31.75-20.66s-28.43-7-34.55-19.65c0,0-25.24-4.76-34.31-41.23,0,0,12.54,23.4,24.85,26.5,0,0-11.95-19.18-10.6-29.84,0,0,8.13,27.76,21.42,31.41,0,0-2.46-1.84-3.32-9.4s1.71,17.55,18.47,24.1c0,0-2.43-3.42-2.79-5.79s5,11.08,16.16,14.19,24.05,8.43,28.71,11.53c0,0-5.74-5.16-6.24-10,0,0,9.78,13.44,25.29,15.7s23.41,4.83,30.15,16.52c0,0-1.95-11.21-7.19-15.4,0,0,9.31,4.86,9.8,12.55,0,0,1.69-15.58,9.62-20.34,0,0-5.13,11.68-2.93,21.09,0,0,12.52-6,19.06-21.91,0,0,6.38-13.72,6.06-18.23s6.32-15.76,4.67-27a32.06,32.06,0,0,1,.72,19.28c-.07.26-.15.52-.23.79C575.84,235,590.56,204.13,591.29,199.9Z"/>
      <path class="cls-19" d="M557.72,154.89s-13,7-20.77-.12c0,0-7.52,10.54-29.54,6,0,0,8.58,5.8,18.88,5.68,8.88-.1,9.41-2.92,10.38-8.12,0,0,.23,5.22,11.34,3.52C555.84,160.63,557.72,154.89,557.72,154.89Z"/>
      <path class="cls-19" d="M554.35,207.75s-32.38,7.51-41.08-5.13-9.61-32.08-15.56-39.88c0,0,5,16.94,5.47,23.61s.11,19.55,10.09,25.56S544,221.39,554.35,207.75Z"/>
      <g>
        <g>
          <path class="cls-20" d="M434,93.86s.26,17.65-8.44,24.53c0,0-14.25.55-21.55-12.27-5-8.73,1-23,9.52-23.45C413.54,82.67,430.24,81.65,434,93.86Z"/>
          <path class="cls-6" d="M409.86,96.54s-3.06,14.27,18.21,18.74c0,0,5.13-7.42,5.09-15.06C433.16,100.22,414.82,84.8,409.86,96.54Z"/>
          <path class="cls-7" d="M431.83,107.08s-2-3.07-7.09-4.65a6.46,6.46,0,0,1,5.77,0s-13.58-13.89-20.73-6.17c0,0,1.61-7.13,10.65-3.68,0,0,9.81,3.43,12.65,7.36C433.08,99.94,433.29,104.73,431.83,107.08Z"/>
        </g>
        <path class="cls-7" d="M426.2,116.61c-.1.23.55.17-.22.72l-.72.69c-4.61-.31-4.16-.06-10.95-2.84-6.4-2.63-9.47-10.86-9.47-10.86C411.53,115,423.63,116.34,426.2,116.61Z"/>
      </g>
      <path class="cls-21" d="M516.66,264.58s-27.75,26.8-83.44,30.61-138.65,1.46-138.65,1.46l-6.81,6.23s22.92.22,34.53,1.64S383.83,312,392.73,310l42.62-1.47s47.92-5.07,68.83-27.34C504.18,281.15,513.68,273.52,516.66,264.58Z"/>
      <path class="cls-4" d="M451.17,250.82s-22.75,86.79-31.58,106.23c0,0-2.42,8.53,2.15,11.05,0,0,17.13,2.74,12.56,19.18,0,0-1.14,6.17-13.24,6.62h-7.54s-19.42,2.75-24.9-8.67c0,0,3.66-72,3.89-77.43s-1.37-68.06,6.85-78.57"/>
      <path class="cls-22" d="M175.51,371.22S181,388.85,162.11,391"/>
      <path class="cls-22" d="M190,372.93s7.06,17.68-9.28,20.7"/>
      <path class="cls-22" d="M413.39,374.06s12.74,9.37,1.12,19.65"/>
      <path class="cls-22" d="M421.55,372.81s13.46,8.57,2.53,20.84"/>
      <path class="cls-22" d="M479.28,374.06s12.22,7,2.67,18.77"/>
      <path class="cls-22" d="M485.6,370.08s9.27,4,8.41,12.4c-.81,8-4.43,10.35-4.43,10.35"/>
      <path class="cls-22" d="M283.33,369.3s14.67,5.2,4.09,21.14"/>
      <path class="cls-22" d="M296.11,366.81s9.13,3.53,9,13.06-2.84,11.49-2.84,11.49"/>
      <path class="cls-4" d="M309.91,282.48s-15.4,18.54-28,22.66"/>
      <path class="cls-22" d="M516.66,264.58s-2.75,17.65-40.44,33.88c0,0-29.91,10.26-40.87,10"/>
      <path class="cls-22" d="M392.73,310s-35.36-.33-62.58-4.41c-30-4.5-42.39-2.67-42.39-2.67"/>
      <path class="cls-23" d="M88.7,302s-20.28-22.29-48.58-7.91c0,0-25,16-37.36,18.28,0,0,12.72,18.91,45.55,14.78S93.86,310.73,88.7,302Z"/>
      <path class="cls-24" d="M89.45,303.66s-6.59,12.85-39.59,17.67-47.1-8.94-47.1-8.94,7.33,13.35,28.33,14.84,43.8-3.6,52.17-11.28S90.2,305.31,89.45,303.66Z"/>
      <path class="cls-24" d="M87.57,300.89s-14.34,5.87-23.1,5.35c0,0,8.32,7.3,25.34-1.67A6,6,0,0,0,87.57,300.89Z"/>
    </g>
  </g>
</svg>
