<svg id="bc847692-f142-42ff-8ba1-46b6d2582608" data-name="Layer 1" xmlns="http://www.w3.org/2000/svg" width="55.91" height="44.94" viewBox="0 0 55.91 44.94">
  <defs>
    <style>
      .b6b83e73-86f7-49c5-a3d5-17b2858a3402 {
        fill: #fff;
      }

      .f21a5510-f3de-47e7-ae04-d59471e3efcc {
        fill: #702840;
      }

      .f4c09172-a656-45f8-9b01-cbb6e27ac1ea {
        fill: #ecc516;
      }

      .b7a0a2fc-0a05-4e9a-a67f-d3111771dbbe {
        fill: #210a11;
      }
    </style>
  </defs>
  <g>
    <g>
      <g>
        <ellipse class="b6b83e73-86f7-49c5-a3d5-17b2858a3402" cx="40.47" cy="28.14" rx="13.3" ry="9.81" transform="translate(8.64 65.77) rotate(-84.58)"/>
        <path class="f21a5510-f3de-47e7-ae04-d59471e3efcc" d="M39.08,41.31a7.66,7.66,0,0,0,4.35-.91,10.53,10.53,0,0,0,3.38-2.92,15.79,15.79,0,0,0,2.93-8.33A16.07,16.07,0,0,0,48,20.67c-1.27-2.55-3.58-4.6-6.28-4.87s-5.39,1.14-7.17,3.36a16.52,16.52,0,0,0-2.24,16.71A11,11,0,0,0,35,39.45,7.83,7.83,0,0,0,39.08,41.31Zm0,.1a8,8,0,0,1-4.14-1.83A11.24,11.24,0,0,1,32.14,36a16.61,16.61,0,0,1-1.5-8.92,16.42,16.42,0,0,1,3.28-8.44,11,11,0,0,1,3.49-2.94,8,8,0,0,1,4.47-.87A8.08,8.08,0,0,1,46,16.66a11.18,11.18,0,0,1,2.78,3.62,16.64,16.64,0,0,1,1.47,8.93A16.51,16.51,0,0,1,47,37.63a10.9,10.9,0,0,1-3.49,2.92A7.89,7.89,0,0,1,39.06,41.41Z"/>
      </g>
      <ellipse class="f4c09172-a656-45f8-9b01-cbb6e27ac1ea" cx="40.47" cy="28.14" rx="13.3" ry="9.81" transform="translate(8.64 65.77) rotate(-84.58)"/>
    </g>
    <g>
      <g>
        <ellipse class="b6b83e73-86f7-49c5-a3d5-17b2858a3402" cx="13.87" cy="23.04" rx="12.1" ry="8.92" transform="matrix(0.31, -0.95, 0.95, 0.31, -12.33, 29.07)"/>
        <path class="f21a5510-f3de-47e7-ae04-d59471e3efcc" d="M10,34.45a7.12,7.12,0,0,0,4,0,9.64,9.64,0,0,0,3.58-1.92,14.39,14.39,0,0,0,4.23-6.8A14.72,14.72,0,0,0,22,17.94a7.56,7.56,0,0,0-4.56-5.51,7.36,7.36,0,0,0-7,1.52,14.45,14.45,0,0,0-4.61,6.34,14.41,14.41,0,0,0-.75,8A9.9,9.9,0,0,0,6.8,32,7.12,7.12,0,0,0,10,34.45Zm0,.09a7.22,7.22,0,0,1-3.31-2.45,10.14,10.14,0,0,1-1.76-3.76,15,15,0,0,1,.46-8.21A15,15,0,0,1,10,13.28a9.86,9.86,0,0,1,3.69-1.91,7.29,7.29,0,0,1,4.14.11A7.25,7.25,0,0,1,21.11,14a10.16,10.16,0,0,1,1.75,3.77A15.13,15.13,0,0,1,22.38,26a14.89,14.89,0,0,1-4.61,6.82,9.7,9.7,0,0,1-3.68,1.89A7.11,7.11,0,0,1,10,34.54Z"/>
      </g>
      <ellipse class="f4c09172-a656-45f8-9b01-cbb6e27ac1ea" cx="13.87" cy="23.04" rx="12.1" ry="8.92" transform="matrix(0.31, -0.95, 0.95, 0.31, -12.33, 29.07)"/>
    </g>
    <path class="b7a0a2fc-0a05-4e9a-a67f-d3111771dbbe" d="M21.16,6.2s-4-.86-10,2.32C11.16,8.52,21.16-1.12,21.16,6.2Z"/>
    <path class="b7a0a2fc-0a05-4e9a-a67f-d3111771dbbe" d="M37.72,6.83s4.51.49,9.9,5.46C47.62,12.29,39.88-.17,37.72,6.83Z"/>
  </g>
</svg>
