<svg id="bb4848bf-e46c-4c37-9e81-023426844ea5" data-name="Layer 1" xmlns="http://www.w3.org/2000/svg" width="71" height="54" viewBox="0 0 71 54">
  <defs>
    <style>
      .e7ccb964-aeb0-40e6-8ecb-4099f3f8f71c {
        fill: #fff;
      }

      .ea447f86-6de1-4700-937e-88d15ac9c124 {
        fill: #702840;
      }

      .b7b3e96e-3afe-4fc9-87e8-437fedc1adbf {
        fill: #210a11;
      }

      .b9df2266-7633-49c8-afc9-17238d8724aa {
        fill: #ecc516;
      }

      .afb84a1d-3bc2-43e1-a550-e5b2545dcb88 {
        fill: #7f3d00;
      }
    </style>
  </defs>
  <g>
    <g>
      <g>
        <ellipse class="e7ccb964-aeb0-40e6-8ecb-4099f3f8f71c" cx="24.06" cy="34.77" rx="10.08" ry="13.68" transform="translate(-3.18 2.43) rotate(-5.42)"/>
        <path class="ea447f86-6de1-4700-937e-88d15ac9c124" d="M25.5,48.42a8.12,8.12,0,0,1-4.59-.83,11.23,11.23,0,0,1-3.65-3,17.91,17.91,0,0,1-2.4-18.21,12,12,0,0,1,3-4,9,9,0,0,1,4.66-2.13,8.94,8.94,0,0,1,5,1,11.93,11.93,0,0,1,3.79,3.26,17.18,17.18,0,0,1,3.22,9.06,17.54,17.54,0,0,1-1.83,9.25,11.47,11.47,0,0,1-2.93,3.7A8.23,8.23,0,0,1,25.5,48.42Zm0-.1a8.11,8.11,0,0,0,4.2-1.87,11.38,11.38,0,0,0,2.82-3.67,17,17,0,0,0,1.5-9.1,16.83,16.83,0,0,0-3.36-8.58,11,11,0,0,0-3.54-3,7.91,7.91,0,0,0-4.48-.87,8,8,0,0,0-4.17,1.85,11.26,11.26,0,0,0-2.83,3.66,17.39,17.39,0,0,0,1.82,17.68,11,11,0,0,0,3.54,3A8,8,0,0,0,25.49,48.32Z"/>
      </g>
      <ellipse class="b7b3e96e-3afe-4fc9-87e8-437fedc1adbf" cx="25.31" cy="36.35" rx="4.57" ry="6.16" transform="translate(-5.74 4.76) rotate(-9.65)"/>
      <ellipse class="e7ccb964-aeb0-40e6-8ecb-4099f3f8f71c" cx="27.46" cy="31.95" rx="1.25" ry="1.69" transform="translate(-4.97 5.06) rotate(-9.65)"/>
      <g>
        <path class="b9df2266-7633-49c8-afc9-17238d8724aa" d="M14,35.92c-.79-7.51,3.05-14.11,8.58-14.75s10.66,4.94,11.46,12.45C26,23,17,31,14,35.92Z"/>
        <path class="afb84a1d-3bc2-43e1-a550-e5b2545dcb88" d="M14,35.93a16.67,16.67,0,0,1,1.37-9.21A11.72,11.72,0,0,1,18.25,23,8.39,8.39,0,0,1,22.55,21a8.21,8.21,0,0,1,4.65.84,11.23,11.23,0,0,1,3.65,3,16.44,16.44,0,0,1,3.42,8.73l.08.7-.43-.56a15,15,0,0,0-4.47-4.09,8.61,8.61,0,0,0-5.86-1,12.87,12.87,0,0,0-5.44,2.68A18.64,18.64,0,0,0,14,35.93Zm0,0a18,18,0,0,1,4-4.62,12.77,12.77,0,0,1,5.48-2.76,8.77,8.77,0,0,1,6,.95,15.13,15.13,0,0,1,4.56,4.13h0A16.68,16.68,0,0,0,30.67,25a11,11,0,0,0-3.56-3,7.75,7.75,0,0,0-8.75,1.05,11.5,11.5,0,0,0-2.82,3.7A17.05,17.05,0,0,0,14,35.91Z"/>
      </g>
    </g>
    <g>
      <g>
        <ellipse class="e7ccb964-aeb0-40e6-8ecb-4099f3f8f71c" cx="51.4" cy="29.53" rx="9.17" ry="12.44" transform="translate(-6.63 17.43) rotate(-18.1)"/>
        <path class="ea447f86-6de1-4700-937e-88d15ac9c124" d="M55.41,41.36a7.5,7.5,0,0,1-4.25.18,10.22,10.22,0,0,1-3.84-1.92A16.3,16.3,0,0,1,41.5,23.91a10.85,10.85,0,0,1,1.87-4.16,8.23,8.23,0,0,1,3.74-2.85,8.13,8.13,0,0,1,4.71-.08,10.82,10.82,0,0,1,4,2.15,15.63,15.63,0,0,1,4.67,7.43,16,16,0,0,1,.2,8.6,10.39,10.39,0,0,1-1.87,3.87A7.5,7.5,0,0,1,55.41,41.36Zm0-.1a7.24,7.24,0,0,0,3.35-2.5,10.12,10.12,0,0,0,1.77-3.82A15.36,15.36,0,0,0,60,26.58a15.22,15.22,0,0,0-4.69-6.94,9.93,9.93,0,0,0-3.72-1.92,7.24,7.24,0,0,0-4.15.12,7.32,7.32,0,0,0-3.33,2.48,10,10,0,0,0-1.77,3.8,15.35,15.35,0,0,0,.46,8.36,15.21,15.21,0,0,0,4.67,7,10.07,10.07,0,0,0,3.73,1.93A7.22,7.22,0,0,0,55.37,41.26Z"/>
      </g>
      <ellipse class="b7b3e96e-3afe-4fc9-87e8-437fedc1adbf" cx="50.38" cy="31.45" rx="4.16" ry="5.6" transform="translate(-5.63 11.71) rotate(-12.56)"/>
      <ellipse class="e7ccb964-aeb0-40e6-8ecb-4099f3f8f71c" cx="51.83" cy="28.03" rx="1.14" ry="1.54" transform="translate(-4.85 11.94) rotate(-12.56)"/>
      <g>
        <path class="b9df2266-7633-49c8-afc9-17238d8724aa" d="M42.74,32.55c-2.2-6.51-.11-13.13,4.67-14.8S57.86,20,60.06,26.51C55,21,46,23,42.74,32.55Z"/>
        <path class="afb84a1d-3bc2-43e1-a550-e5b2545dcb88" d="M42.74,32.56a15.21,15.21,0,0,1-.63-8.45,10.57,10.57,0,0,1,1.77-3.91,7.54,7.54,0,0,1,3.43-2.59,7.42,7.42,0,0,1,4.3-.19,10.36,10.36,0,0,1,3.86,1.95,15.14,15.14,0,0,1,4.78,7.07l.3.9-.63-.7a9.15,9.15,0,0,0-4.66-2.78,8.75,8.75,0,0,0-5.41.5,11.46,11.46,0,0,0-4.38,3.33A16.2,16.2,0,0,0,42.74,32.56Zm0,0a15.83,15.83,0,0,1,2.64-4.92,11.36,11.36,0,0,1,4.41-3.41,9,9,0,0,1,5.51-.53,9.25,9.25,0,0,1,4.78,2.81l0,0a15.18,15.18,0,0,0-4.72-7,10.14,10.14,0,0,0-3.76-1.94,7.21,7.21,0,0,0-4.19.17A7.29,7.29,0,0,0,44,20.3a10.3,10.3,0,0,0-1.76,3.85A15.46,15.46,0,0,0,42.74,32.54Z"/>
      </g>
    </g>
    <path class="b7b3e96e-3afe-4fc9-87e8-437fedc1adbf" d="M43.91,12.22s4.14-.88,10.28,2.38C54.19,14.6,43.91,4.69,43.91,12.22Z"/>
    <path class="b7b3e96e-3afe-4fc9-87e8-437fedc1adbf" d="M26.88,12.86s-4.64.51-10.18,5.63C16.7,18.49,24.67,5.67,26.88,12.86Z"/>
  </g>
</svg>
