<svg id="f1ca6e18-68d6-441e-a228-ea5f355b9487" data-name="Layer 1" xmlns="http://www.w3.org/2000/svg" width="118" height="100" viewBox="0 0 118 100">
  <defs>
    <style>
      .abeb696d-0bd1-4b4f-9a20-c4693f6a533a {
        fill: #bcfde5;
      }

      .f851482d-ede3-4914-824d-944c643a07dd {
        fill: #ebf7f2;
      }
    </style>
  </defs>
  <g>
    <g>
      <path class="abeb696d-0bd1-4b4f-9a20-c4693f6a533a" d="M20.5,75.16C28.68,82.58,48,65,59.67,52.05S76.22,23.37,68,16,47,18.11,35.26,31,12.31,67.74,20.5,75.16Z"/>
      <path class="f851482d-ede3-4914-824d-944c643a07dd" d="M20.53,75.12a6.89,6.89,0,0,0,2.38,1.36,7.83,7.83,0,0,0,2.72.34A15.29,15.29,0,0,0,31,75.51a45.67,45.67,0,0,0,9.49-5.73,131.48,131.48,0,0,0,16.2-15.19,80.09,80.09,0,0,0,7-8.54A50.19,50.19,0,0,0,69,36.45,27.59,27.59,0,0,0,71.24,26,17.85,17.85,0,0,0,71,23.31c0-.44-.22-.84-.31-1.27a5.73,5.73,0,0,0-.41-1.23l-.52-1.19c-.2-.37-.47-.72-.7-1.08L68.73,18l-.44-.47-.88-.94a10,10,0,0,0-2.08-1.44,8.86,8.86,0,0,0-2.39-.8,11.66,11.66,0,0,0-5.13.39,30.69,30.69,0,0,0-9.52,5.09A83.69,83.69,0,0,0,39.93,27a92.94,92.94,0,0,0-7.51,8.13,81.75,81.75,0,0,0-11.4,19,42.62,42.62,0,0,0-3,10.65A18.24,18.24,0,0,0,18,70.29,8.59,8.59,0,0,0,20.53,75.12Zm-.07.07a8.72,8.72,0,0,1-2.55-4.87,18.57,18.57,0,0,1-.09-5.57A43.46,43.46,0,0,1,20.8,54,82.47,82.47,0,0,1,32,34.82a91.42,91.42,0,0,1,7.44-8.3,80.11,80.11,0,0,1,8.35-7.38,31.44,31.44,0,0,1,9.77-5.3,12.71,12.71,0,0,1,5.55-.44,9.54,9.54,0,0,1,2.66.87,10.8,10.8,0,0,1,2.32,1.58l1,1c.15.17.32.34.47.52l.38.58c.25.4.53.78.75,1.19l.56,1.29a6.26,6.26,0,0,1,.43,1.33A10.73,10.73,0,0,1,72,23.15a17.4,17.4,0,0,1,.22,2.79,28.37,28.37,0,0,1-2.41,10.84C66.88,43.68,62.21,49.64,57.07,55A133.65,133.65,0,0,1,40.61,70a46.47,46.47,0,0,1-9.56,5.7A15.57,15.57,0,0,1,25.64,77a7.89,7.89,0,0,1-2.77-.36A7,7,0,0,1,20.46,75.19Z"/>
    </g>
    <g>
      <path class="abeb696d-0bd1-4b4f-9a20-c4693f6a533a" d="M24.51,73.15c0,11,26,13.5,43.42,13.5s32.37-7,32.37-18.06S84.55,54.44,67.12,54.44,24.51,62.1,24.51,73.15Z"/>
      <path class="f851482d-ede3-4914-824d-944c643a07dd" d="M24.56,73.15a6.79,6.79,0,0,0,.59,2.67,7.66,7.66,0,0,0,1.57,2.25,15.27,15.27,0,0,0,4.57,3.08A45.54,45.54,0,0,0,41.9,84.33,131.31,131.31,0,0,0,64,86.13a79.59,79.59,0,0,0,11-.54,50.33,50.33,0,0,0,10.66-2.54A27.46,27.46,0,0,0,95,77.68a15.73,15.73,0,0,0,1.81-1.93,11.35,11.35,0,0,0,.73-1.08,5.75,5.75,0,0,0,.64-1.13l.53-1.18c.14-.41.22-.83.33-1.25l.17-.62,0-.64.1-1.28a10.55,10.55,0,0,0-.32-2.52,8.78,8.78,0,0,0-1-2.3,11.64,11.64,0,0,0-3.73-3.55,30.6,30.6,0,0,0-10.16-3.62,81.5,81.5,0,0,0-11-1.37,93,93,0,0,0-11.07-.1A81.82,81.82,0,0,0,40.44,59.4a43.53,43.53,0,0,0-9.93,4.91,18.27,18.27,0,0,0-4.05,3.75A8.6,8.6,0,0,0,24.56,73.15Zm-.1,0A8.7,8.7,0,0,1,26.36,68a17.88,17.88,0,0,1,4.06-3.8,42.9,42.9,0,0,1,9.94-5,83.4,83.4,0,0,1,21.75-4.62,94.1,94.1,0,0,1,11.14-.06,79.07,79.07,0,0,1,11.08,1.23,31.56,31.56,0,0,1,10.49,3.68,12.64,12.64,0,0,1,4.05,3.82A10.08,10.08,0,0,1,100,65.78a11,11,0,0,1,.38,2.78l-.11,1.4c0,.23,0,.47-.07.7l-.18.68c-.13.45-.22.91-.37,1.35L99.09,74a6.35,6.35,0,0,1-.7,1.21,13.15,13.15,0,0,1-.79,1.16,18.44,18.44,0,0,1-1.92,2A28.51,28.51,0,0,1,86,83.87c-7,2.5-14.6,3-22,2.81a133.91,133.91,0,0,1-22.17-2.12A45.49,45.49,0,0,1,31.22,81.3a15.24,15.24,0,0,1-4.59-3.14A7.78,7.78,0,0,1,25,75.87,7.06,7.06,0,0,1,24.46,73.15Z"/>
    </g>
  </g>
</svg>
