<svg id="fb02223c-b4a4-4241-bd7c-20a90df4b7b5" data-name="Layer 1" xmlns="http://www.w3.org/2000/svg" width="100.94" height="97.76" viewBox="0 0 100.94 97.76">
  <defs>
    <style>
      .b5825fd9-13b9-4f33-83fb-189a9b20f47b {
        fill: #ffe309;
        stroke: #665608;
        stroke-miterlimit: 10;
        stroke-width: 0.75px;
      }
    </style>
  </defs>
  <g>
    <path class="b5825fd9-13b9-4f33-83fb-189a9b20f47b" d="M62.09,91.26c-17.79-29-5.69-61.21,2.52-71.41s10,7.09,10,7.09c-4.46,6,.71,1-1.17,6.6-9.22,27.17,7.93,47.6,7.93,47.6S80,94,62.09,91.26"/>
    <path class="b5825fd9-13b9-4f33-83fb-189a9b20f47b" d="M56.59,35.65S53.46,27.09,60.88,13s7.9-.59,7.9-.59-.55,3.38,2.23-4c3.51-9.27,9.85-.15,5.92,11.15-.69,2-1.24,6,.64,7,0,0,3.35-5.09,5.12-5.18,3.61-.18,5.18,5.76-9.84,15.35l-.48.21"/>
    <path class="b5825fd9-13b9-4f33-83fb-189a9b20f47b" d="M77.57,26.53s-5.17-7.94-11.26-.2"/>
    <path class="b5825fd9-13b9-4f33-83fb-189a9b20f47b" d="M70,11.23a22.11,22.11,0,0,0-1.79,9.4"/>
  </g>
</svg>
