<svg id="b57c37fd-ab1e-4b4d-9494-488a13a75dfe" data-name="Layer 1" xmlns="http://www.w3.org/2000/svg" width="36.63" height="7.04" viewBox="0 0 36.63 7.04">
  <defs>
    <style>
      .b1c80963-4766-4f7a-8c0e-21e97a785d58 {
        fill: #f0f0ed;
      }

      .a29ef7b2-2720-40b7-b28c-4655c477c71a {
        fill: #030000;
      }

      .a8532db7-f446-470f-9a65-ba07157663f3 {
        fill: #2c1117;
      }

      .bd0f8f75-578e-4c85-8bbb-ed428414606d {
        fill: #040000;
      }

      .ba30657a-76ba-4516-b283-5cd4cdff9506 {
        fill: #7f4d2a;
      }
    </style>
  </defs>
  <g>
    <g>
      <g>
        <path class="b1c80963-4766-4f7a-8c0e-21e97a785d58" d="M12.21,4.63a1.8,1.8,0,0,0,.2-1.29c-.18-.65-6.66-5.6-11,.43C1.43,3.77,6.25,9.91,12.21,4.63Z"/>
        <path class="a29ef7b2-2720-40b7-b28c-4655c477c71a" d="M3.47,5.57,2.19,5c-.42-.21-.85-.47-1.3-.72L.52,4,.81,3.4h0l.52-.65a4,4,0,0,1,.56-.62l.65-.56a5.53,5.53,0,0,1,.74-.48A3.17,3.17,0,0,1,4.09.71,5.08,5.08,0,0,1,5,.43c.3,0,.6-.12.9-.15h.9A8.86,8.86,0,0,1,8.47.59,8.33,8.33,0,0,1,10,1.23a10.79,10.79,0,0,1,1.38.88c.2.18.42.34.6.53a2.33,2.33,0,0,1,.51.67h0a5,5,0,0,1-.22,1.1,4.86,4.86,0,0,0,0-1.08h0a2.52,2.52,0,0,0-.54-.45A22.38,22.38,0,0,0,9.34,1.44,5.67,5.67,0,0,0,6.64,1a6.53,6.53,0,0,0-1.4.26,3.67,3.67,0,0,0-.65.26A2.22,2.22,0,0,0,4,1.9a4.49,4.49,0,0,0-.57.4l-.52.47c-.34.31-.52,1-.84,1.37h0L2,3.31c.21.36.41.74.68,1.12Z"/>
      </g>
      <g>
        <path class="a8532db7-f446-470f-9a65-ba07157663f3" d="M10.32,3.45A2.65,2.65,0,0,1,7.56,6,2.65,2.65,0,0,1,4.8,3.45,2.65,2.65,0,0,1,7.56.93,2.65,2.65,0,0,1,10.32,3.45Z"/>
        <path class="bd0f8f75-578e-4c85-8bbb-ed428414606d" d="M8.86,3.45a1.25,1.25,0,0,1-1.3,1.19,1.25,1.25,0,0,1-1.3-1.19,1.24,1.24,0,0,1,1.3-1.18A1.24,1.24,0,0,1,8.86,3.45Z"/>
        <path class="b1c80963-4766-4f7a-8c0e-21e97a785d58" d="M7,2.59a.66.66,0,0,1-1.32,0A.66.66,0,0,1,7,2.59Z"/>
      </g>
    </g>
    <g>
      <g>
        <path class="b1c80963-4766-4f7a-8c0e-21e97a785d58" d="M24.42,4.63a1.8,1.8,0,0,1-.2-1.29c.18-.65,6.66-5.6,11,.43C35.2,3.77,30.38,9.91,24.42,4.63Z"/>
        <path class="a29ef7b2-2720-40b7-b28c-4655c477c71a" d="M33.16,5.57,34.44,5c.42-.21.86-.47,1.3-.72L36.11,4l-.29-.63h0l-.52-.65a4.53,4.53,0,0,0-.55-.62l-.66-.56a5.53,5.53,0,0,0-.74-.48,3.17,3.17,0,0,0-.81-.38,5.08,5.08,0,0,0-.86-.28c-.3,0-.6-.12-.9-.15h-.9a8.86,8.86,0,0,0-1.72.32,8.33,8.33,0,0,0-1.57.64,10.79,10.79,0,0,0-1.38.88c-.2.18-.42.34-.6.53a2.33,2.33,0,0,0-.51.67h0a5,5,0,0,0,.23,1.1,4.34,4.34,0,0,1,0-1.08h0a2.52,2.52,0,0,1,.54-.45,22.38,22.38,0,0,1,2.42-1.47A5.67,5.67,0,0,1,30,1a6.42,6.42,0,0,1,1.4.26,3.67,3.67,0,0,1,.65.26,2.22,2.22,0,0,1,.6.34,3.88,3.88,0,0,1,.57.4l.52.47c.34.31.52,1,.84,1.37h0l.07-.83c-.21.36-.41.74-.68,1.12Z"/>
      </g>
      <g>
        <path class="a8532db7-f446-470f-9a65-ba07157663f3" d="M26.31,3.45a2.77,2.77,0,0,0,5.52,0,2.77,2.77,0,0,0-5.52,0Z"/>
        <path class="bd0f8f75-578e-4c85-8bbb-ed428414606d" d="M27.77,3.45a1.31,1.31,0,0,0,2.6,0,1.31,1.31,0,0,0-2.6,0Z"/>
        <path class="b1c80963-4766-4f7a-8c0e-21e97a785d58" d="M29.6,2.59a.66.66,0,0,0,1.32,0,.66.66,0,0,0-1.32,0Z"/>
      </g>
    </g>
    <path class="ba30657a-76ba-4516-b283-5cd4cdff9506" d="M24.42,4.63a1.8,1.8,0,0,1-.2-1.29c.18-.65,6.66-5.6,11,.43C35.2,3.77,29.73,6.65,24.42,4.63Z"/>
    <path class="ba30657a-76ba-4516-b283-5cd4cdff9506" d="M12.21,4.63a1.8,1.8,0,0,0,.2-1.29c-.18-.65-6.66-5.6-11,.43C1.43,3.77,5.25,6.86,12.21,4.63Z"/>
  </g>
</svg>
