<svg id="f99b176d-797b-4f15-84b6-9fdd2a2fe9a6" data-name="Layer 1" xmlns="http://www.w3.org/2000/svg" width="51.83" height="29.18" viewBox="0 0 51.83 29.18">
  <defs>
    <style>
      .b9c1d37a-54d4-454a-a026-aa07c6d92b2f, .f6de5b82-7289-4dcd-98af-8ba6d4e29db6 {
        fill: #fff;
      }

      .fba5e5f0-efe8-477f-a502-a31f887ea661 {
        fill: #724009;
      }

      .a53a25e5-8ff2-4a20-afe2-de587086db8f {
        fill: #231f20;
      }

      .b9c1d37a-54d4-454a-a026-aa07c6d92b2f {
        opacity: 0.53;
      }
    </style>
  </defs>
  <g>
    <g>
      <g>
        <ellipse class="f6de5b82-7289-4dcd-98af-8ba6d4e29db6" cx="12.22" cy="14.24" rx="11.55" ry="13.6"/>
        <path class="fba5e5f0-efe8-477f-a502-a31f887ea661" d="M.71,14.24C.54,20.67,5.36,27.71,12.22,27.59c10.62-.34,14.3-14.89,8.09-22.26C12.65-4,.64,3.5.71,14.24Zm-.1,0C.27,5.52,8.38-3.22,17.2,1.38c11.09,5.93,8.42,26.29-5,26.71C5.12,28,.53,20.78.61,14.24Z"/>
      </g>
      <path class="a53a25e5-8ff2-4a20-afe2-de587086db8f" d="M23.51,13.6c-.26,4.26-3,7.47-6.12,7.16s-5.42-4-5.15-8.29,3-7.48,6.13-7.16S23.78,9.34,23.51,13.6Z"/>
      <g>
        <ellipse class="f6de5b82-7289-4dcd-98af-8ba6d4e29db6" cx="40.9" cy="15.5" rx="10.26" ry="13.05"/>
        <path class="fba5e5f0-efe8-477f-a502-a31f887ea661" d="M30.69,15.5c-.14,5.84,3.8,12.82,10.21,12.8C50.67,27.68,53.31,14,48.16,7.12c-7-9.38-17.62-1.45-17.47,8.38Zm-.1,0c-.36-7.94,6.56-17,14.94-12.25,8.13,5.17,8,19.22-.12,24.3-8.15,4.62-15.07-4.31-14.82-12Z"/>
      </g>
      <path class="a53a25e5-8ff2-4a20-afe2-de587086db8f" d="M50.94,14.89c-.24,4.09-2.67,7.16-5.44,6.87s-4.82-3.87-4.58-8,2.67-7.17,5.45-6.87S51.18,10.8,50.94,14.89Z"/>
    </g>
    <circle class="f6de5b82-7289-4dcd-98af-8ba6d4e29db6" cx="13.4" cy="9.97" r="2.23"/>
    <circle class="b9c1d37a-54d4-454a-a026-aa07c6d92b2f" cx="17.88" cy="18.05" r="1.68"/>
    <circle class="b9c1d37a-54d4-454a-a026-aa07c6d92b2f" cx="46.48" cy="19.1" r="1.68"/>
    <circle class="f6de5b82-7289-4dcd-98af-8ba6d4e29db6" cx="42.21" cy="9.97" r="1.86"/>
  </g>
</svg>
