<svg id="b05b72ae-90cc-413c-aace-36ef64d6eec8" data-name="Layer 1" xmlns="http://www.w3.org/2000/svg" width="200" height="200" viewBox="0 0 200 200">
  <defs>
    <style>
      .a38c0374-2dd9-4244-9986-419405d14feb, .b84e9531-bfa3-4d14-8236-76c8bf5891c6 {
        fill: #ffe309;
        stroke-width: 0.75px;
      }

      .a38c0374-2dd9-4244-9986-419405d14feb {
        stroke: #665608;
      }

      .a38c0374-2dd9-4244-9986-419405d14feb, .a9c33aec-7b58-4c29-84b3-2b5ffe8197a0, .b84e9531-bfa3-4d14-8236-76c8bf5891c6 {
        stroke-miterlimit: 10;
      }

      .b84e9531-bfa3-4d14-8236-76c8bf5891c6 {
        stroke: #493c05;
      }

      .bb6d5474-8c5d-40f6-b2a9-b5d5d744d6f3 {
        fill: #ecc516;
      }

      .a9c33aec-7b58-4c29-84b3-2b5ffe8197a0 {
        fill: #532900;
        stroke: #3a1c03;
      }

      .e39f2b4a-11d1-41af-b8bf-901ec5f960b3 {
        fill: #681a1a;
      }

      .b6ec6214-ac31-4742-b6ea-b7bf3ec13932 {
        fill: #ef7089;
      }

      .a40af52d-556e-4cbb-b378-e07863b44729 {
        fill: #ff5763;
      }

      .b39ab95e-239a-43d1-88a5-2f9a61d3c5a6 {
        fill: #fff;
      }

      .af7caf72-12e3-478c-a47c-5090cc8ccfda {
        fill: #ef304c;
      }

      .e91571ca-4fac-4e35-88e3-585d60643243 {
        fill: #ffa979;
      }
    </style>
  </defs>
  <g>
    <path class="a38c0374-2dd9-4244-9986-419405d14feb" d="M57.9,171.4s1.1,4.89-4.41,5.67-9.77-.78-10.24,4.73-.48,11.5,5,12,5-7.25,9.3-6.78,12.13-.79,11.66-10.56S57.9,171.4,57.9,171.4Z"/>
    <g>
      <path class="a38c0374-2dd9-4244-9986-419405d14feb" d="M122.2,131.06s-1.3,3.82,12.87,18.22c0,0,5.63,6,9.79,8.19S157.11,165.84,157,169s-3.1,4.33-5.63,0L148.29,165s3.26,5-2.95,7.51-1.5-7.5-1.5-7.5l-2.62,5.8s-5.52.21-2.4-8.24c0,0-3.54.77-14.08-7.44S107,134.91,107,134.91Z"/>
      <path class="b84e9531-bfa3-4d14-8236-76c8bf5891c6" d="M121.7,135.26c-.47,7.55-2.1,14.1-5.09,19.7a36.26,36.26,0,0,1-8.73,10.74h0a45.65,45.65,0,0,1-9,5.86c-.61.3-1.22.6-1.84.87a48.7,48.7,0,0,1-14.21,3.92,68.26,68.26,0,0,1-25.65-2.24c-1.64-.42-3.14-.88-4.48-1.3-10.08-3.14-16.86-1.09-16.86-1.09,4.26-4,5.2-10.42,6.47-17.32,1.14-6.3,2.54-13,7-18.68.22-.29.45-.58.71-.88A32.39,32.39,0,0,1,55,130.19,42.76,42.76,0,0,1,63.89,125l.25-.11a57.61,57.61,0,0,1,9.08-3,46.13,46.13,0,0,1,5.64-1.08c12-1.26,14.19-10.41,14.19-10.41l28.68,15.44A84.1,84.1,0,0,1,121.7,135.26Z"/>
      <path class="bb6d5474-8c5d-40f6-b2a9-b5d5d744d6f3" d="M121.09,134c-5.15,2.2-11.31,2.92-18.75,2.92-15.42,0-28.06-5.76-29.15-13.08A44.86,44.86,0,0,1,80.85,121a36.27,36.27,0,0,1,4.75-1c10.1-1.16,12-9.6,12-9.6l24.19,14.25C121.88,127.7,121.25,131.23,121.09,134Z"/>
      <path class="a9c33aec-7b58-4c29-84b3-2b5ffe8197a0" d="M57.67,173.76c-1.64-.42-3.63-.53-5-.95-10.08-3.14-16.86-1.09-16.86-1.09,4.26-4,5.58-11.15,6.85-18.05C43.38,158.83,46.39,168.06,57.67,173.76Z"/>
      <path class="a9c33aec-7b58-4c29-84b3-2b5ffe8197a0" d="M116.61,155a36.26,36.26,0,0,1-8.73,10.74h0c-6.09,0-17.72-1.95-31.37-14-8.38-7.4-11.65-17.45-12.6-26.66a57.76,57.76,0,0,1,9.33-3.14c.85,7.26,4.1,18.62,15.57,25.87A44.82,44.82,0,0,0,116.61,155Z"/>
      <path class="a9c33aec-7b58-4c29-84b3-2b5ffe8197a0" d="M97,172.43a48.7,48.7,0,0,1-14.21,3.92c-7-1.06-16.88-3.91-24-11.57-8.69-9.35-10-20-9.53-29.06.22-.29.45-.58.71-.88A32.39,32.39,0,0,1,55,130.19c.19,7.08,2.05,19,11.59,27C77.85,166.76,91.66,171,97,172.43Z"/>
      <g>
        <path class="a38c0374-2dd9-4244-9986-419405d14feb" d="M121.47,58.89s-7.33-4-8.14-23.27S130.06,3.14,139,6.82s5.16,11-5.42,12.32S112.84,40.35,124.8,58C124.8,58,130,71,121.47,58.89Z"/>
        <path class="a38c0374-2dd9-4244-9986-419405d14feb" d="M144.73,69.35S150.11,55,157.67,47.71,184.87,26,195.38,37.4c0,0,2.31,4.72-1.09,7.18s-7.33,1.63-9.62-2.08-29,1.29-36.34,27.91C148.33,70.41,144.17,76.64,144.73,69.35Z"/>
        <g>
          <path class="a38c0374-2dd9-4244-9986-419405d14feb" d="M156.32,131.4c-8.74,16.2-27.73,18-46.32,12.3l-.06,0a87.56,87.56,0,0,1-17.77-7.74c-22.83-13-27.81-31.77-13.37-54.16C89.64,65,109,53.72,128.17,57.36a40.64,40.64,0,0,1,12.62,4.7C163.62,75.08,169.25,107.41,156.32,131.4Z"/>
          <path class="bb6d5474-8c5d-40f6-b2a9-b5d5d744d6f3" d="M111.6,143.75A88.65,88.65,0,0,1,93.84,136C71,123,66,104.33,80.29,82.15c10.75-16.67,30-27.74,49.16-24.06a52.62,52.62,0,0,0-41.79,28C72.09,114.84,91.16,135.35,111.6,143.75Z"/>
          <g>
            <g>
              <g>
                <g>
                  <path class="e39f2b4a-11d1-41af-b8bf-901ec5f960b3" d="M138.41,125.69s-4.34,7.6-11.26,11.23a15.3,15.3,0,0,1-6.08,1.85c-8.15.67-15.54-3.91-16.93-13.79,0-.22-.06-.43-.09-.65a30.33,30.33,0,0,1,.32-8.44s12.85,9.83,28.26,10.15A34.3,34.3,0,0,0,138.41,125.69Z"/>
                  <path class="b6ec6214-ac31-4742-b6ea-b7bf3ec13932" d="M138.45,125.66a22,22,0,0,1-1.54,2.56c-.55.81-1.12,1.61-1.74,2.37a32.43,32.43,0,0,1-4.08,4.29,22.6,22.6,0,0,1-5,3.23,15.38,15.38,0,0,1-5.89,1.41,16,16,0,0,1-11.4-3.7,17.27,17.27,0,0,1-5.52-10.72l0,.07a21.63,21.63,0,0,1-.23-2.42c0-.79,0-1.57,0-2.35a34.27,34.27,0,0,1,.51-4.65l.24-1.33,1.09.81a55,55,0,0,0,7.6,4.62,57.27,57.27,0,0,0,8.22,3.52,50.89,50.89,0,0,0,8.71,2.08c.74.12,1.49.15,2.23.24s1.5.13,2.25.14A39.26,39.26,0,0,0,138.45,125.66Zm-.08.06a28.5,28.5,0,0,1-4.48.38c-.75,0-1.51,0-2.26-.06s-1.52-.06-2.27-.16A45.51,45.51,0,0,1,120.5,124a57.62,57.62,0,0,1-8.4-3.39,56.18,56.18,0,0,1-7.78-4.66l.14-.06a34.42,34.42,0,0,0-.46,4.53,25.39,25.39,0,0,0,.24,4.53h0a16.41,16.41,0,0,0,5.13,10.17,15.47,15.47,0,0,0,10.77,3.61c3.93,0,7.6-1.87,10.61-4.28A36.05,36.05,0,0,0,138.37,125.72Z"/>
                </g>
                <path class="a40af52d-556e-4cbb-b378-e07863b44729" d="M124.93,135.28c.39,3.17-2.5,3.29-4.49,3.48-7.41.74-15.09-5.07-16.2-14.18,1.87-.25,4.68.26,8.64,3C112.88,127.62,122.12,128.9,124.93,135.28Z"/>
                <path class="b39ab95e-239a-43d1-88a5-2f9a61d3c5a6" d="M119.9,132a30.62,30.62,0,0,1-7.9-2.17,12.52,12.52,0,0,1-7.48-13.41v-.1s12.43,9.79,27.84,10.1C131.41,130.16,128.45,133.22,119.9,132Z"/>
              </g>
              <path class="af7caf72-12e3-478c-a47c-5090cc8ccfda" d="M104.66,110.55a3.92,3.92,0,0,1,0,1.77,4.06,4.06,0,0,1-.76,1.68,3.07,3.07,0,0,1-1.61,1,3.61,3.61,0,0,1-.92.07,4.25,4.25,0,0,1-.87-.21v0a4,4,0,0,0,1.65-.18,2.73,2.73,0,0,0,1.35-.94,5.27,5.27,0,0,0,1.06-3.13Z"/>
              <path class="af7caf72-12e3-478c-a47c-5090cc8ccfda" d="M140.05,128.25a3.22,3.22,0,0,1-1.12-1,5,5,0,0,1-.62-1.41,4,4,0,0,1,0-1.55,3.13,3.13,0,0,1,.64-1.38H139a4.91,4.91,0,0,0-.19,2.81,5.49,5.49,0,0,0,1.29,2.51Z"/>
            </g>
            <ellipse class="e91571ca-4fac-4e35-88e3-585d60643243" cx="95.43" cy="104.85" rx="5.22" ry="7.43" transform="translate(-42.93 135.78) rotate(-60.29)"/>
            <ellipse class="e91571ca-4fac-4e35-88e3-585d60643243" cx="152.15" cy="121.08" rx="5.22" ry="7.43" transform="translate(15.75 259.65) rotate(-83.96)"/>
          </g>
        </g>
      </g>
      <path class="a38c0374-2dd9-4244-9986-419405d14feb" d="M74.05,124.05s3.19,3.42.83,6.85-13.24,1.18-19.5-2-13.12,2.25-13.12,2.25,1.89,8.27-1.42,8.86-3.42-6.5-3.42-6.5-3.43,4.14-2.6,8.39c0,0-2.13,2.6-4-1.65l.94-5-1.53,5s-2.84-.59-1.19-8,19-15.6,35.93-12.64A18.69,18.69,0,0,1,74.05,124.05Z"/>
      <path class="a38c0374-2dd9-4244-9986-419405d14feb" d="M49.17,151.12A3.85,3.85,0,0,1,55,154.7a8.47,8.47,0,0,1-2.3,5.51c-3.47,3.47-9.3,6.78-15.13,4.73s-8.35,2.68-10.24,5.51-7.88,2.37-7.56-4.57c0,0,0-9.29,7.72-13.07,0,0,3-2.37,11.66.63C44.45,155.27,46.74,152.62,49.17,151.12Z"/>
    </g>
  </g>
</svg>
