<svg id="bcba34ce-99fa-441a-ba15-8f59d8829772" data-name="Layer 1" xmlns="http://www.w3.org/2000/svg" width="75" height="40" viewBox="0 0 75 40">
  <defs>
    <style>
      .a0ec5ba3-027d-495b-9195-1acf90fd6bd4 {
        fill: #fff;
        stroke: #724c4c;
        stroke-miterlimit: 10;
        stroke-width: 0.5px;
      }

      .f27ef82f-92fe-4a88-ba8a-7172770ff454 {
        fill: #606060;
      }

      .fa60a9b5-15b1-4e4c-a496-e2335c8d6b8d {
        fill: #450806;
      }

      .f23a9fb4-d2f4-4730-855e-6f5a201cb492 {
        fill: #f9efef;
      }

      .ad577190-ad45-4ff5-b2e5-bee7b49eb407 {
        fill: #dda43e;
      }

      .eecc43cb-666a-4fb4-b065-bdcef18ebc3c {
        fill: #ffca58;
      }

      .af4f6eae-8c2d-40b3-adab-191afadc6789 {
        fill: #7f5711;
      }
    </style>
  </defs>
  <g>
    <g>
      <ellipse class="a0ec5ba3-027d-495b-9195-1acf90fd6bd4" cx="19.21" cy="18.96" rx="13.8" ry="9.84" transform="translate(-1.41 36.36) rotate(-84.78)"/>
      <g>
        <ellipse class="f27ef82f-92fe-4a88-ba8a-7172770ff454" cx="18.99" cy="19.35" rx="8.72" ry="6.22" transform="translate(-2.01 36.51) rotate(-84.78)"/>
        <ellipse class="fa60a9b5-15b1-4e4c-a496-e2335c8d6b8d" cx="19.46" cy="19.4" rx="5.39" ry="3.84" transform="translate(-1.62 37.02) rotate(-84.78)"/>
        <ellipse class="f23a9fb4-d2f4-4730-855e-6f5a201cb492" cx="16.96" cy="15.29" rx="1.88" ry="1.34" transform="matrix(0.09, -1, 1, 0.09, 0.2, 30.79)"/>
      </g>
    </g>
    <g>
      <ellipse class="a0ec5ba3-027d-495b-9195-1acf90fd6bd4" cx="56.09" cy="18.61" rx="9.84" ry="13.8" transform="translate(-2.23 9.07) rotate(-9.06)"/>
      <g>
        <ellipse class="f27ef82f-92fe-4a88-ba8a-7172770ff454" cx="55.98" cy="19.05" rx="6.22" ry="8.72" transform="translate(-2.3 9.05) rotate(-9.06)"/>
        <ellipse class="fa60a9b5-15b1-4e4c-a496-e2335c8d6b8d" cx="56.45" cy="18.97" rx="3.84" ry="5.39" transform="translate(-2.28 9.13) rotate(-9.06)"/>
        <ellipse class="f23a9fb4-d2f4-4730-855e-6f5a201cb492" cx="53.01" cy="15.61" rx="1.34" ry="1.88" transform="matrix(0.99, -0.16, 0.16, 0.99, -1.8, 8.54)"/>
      </g>
    </g>
    <path class="ad577190-ad45-4ff5-b2e5-bee7b49eb407" d="M9.42,18.06c-.38,3.54,2.37-5.7,10.2-5.36,6.74.3,8.87,10.94,9.39,7.15.69-7.59-3.13-14.14-8.54-14.64S10.11,10.47,9.42,18.06Z"/>
    <path class="ad577190-ad45-4ff5-b2e5-bee7b49eb407" d="M46.38,20.16c.75,3.86,1.41-6.69,8.39-8,6.71-1.23,11.59,8,11,4.87C64.61,9.53,59.28,4.12,53.92,5S45.18,12.63,46.38,20.16Z"/>
    <g>
      <path class="eecc43cb-666a-4fb4-b065-bdcef18ebc3c" d="M50.13,35.11S54.71,23.19,70.3,29"/>
      <path class="af4f6eae-8c2d-40b3-adab-191afadc6789" d="M50.13,35.11a11.82,11.82,0,0,1,3.32-4.86,12.48,12.48,0,0,1,5.27-2.78,15.89,15.89,0,0,1,6-.17c1,.15,1.93.44,2.88.65s1.85.69,2.75,1.07c-1-.22-1.9-.48-2.84-.71s-1.91-.36-2.87-.44a19.65,19.65,0,0,0-2.87-.06,11.18,11.18,0,0,0-1.42.12l-1.4.27a13.48,13.48,0,0,0-5.08,2.49A14.25,14.25,0,0,0,50.13,35.11Z"/>
    </g>
    <g>
      <path class="eecc43cb-666a-4fb4-b065-bdcef18ebc3c" d="M22.64,35.11S16.83,23.84,4.7,31"/>
      <path class="af4f6eae-8c2d-40b3-adab-191afadc6789" d="M22.64,35.11a15.14,15.14,0,0,0-1.64-2,14,14,0,0,0-1.89-1.72,11.39,11.39,0,0,0-4.54-2.12,7.43,7.43,0,0,0-1.24-.19L12.7,29c-.21,0-.42,0-.63,0-.42,0-.84,0-1.26.06l-1.25.23a5.93,5.93,0,0,0-1.24.31L7.09,30c-.8.31-1.57.69-2.39,1,.73-.46,1.48-.92,2.25-1.35l1.22-.5a6,6,0,0,1,1.25-.44,11,11,0,0,1,5.31-.22,10.43,10.43,0,0,1,4.74,2.4A12.77,12.77,0,0,1,22.64,35.11Z"/>
    </g>
  </g>
</svg>
