<svg id="e1f2e04f-13f9-4f6f-b475-8e00c0376cb4" data-name="Layer 1" xmlns="http://www.w3.org/2000/svg" width="39.06" height="32" viewBox="0 0 39.06 32">
  <defs>
    <style>
      .a2c49006-750c-4f91-af6d-abe3399a4592, .adbfa377-a106-472d-b260-b660f43a4f8e {
        fill: #fff;
      }

      .a2c49006-750c-4f91-af6d-abe3399a4592 {
        stroke: #702840;
      }

      .a2c49006-750c-4f91-af6d-abe3399a4592, .ab07270e-be4c-4147-af73-924273160a67 {
        stroke-miterlimit: 10;
        stroke-width: 0.5px;
      }

      .a81293f0-b6cc-47ce-9fcc-0ba14ae4b305 {
        fill: #210a11;
      }

      .ab07270e-be4c-4147-af73-924273160a67 {
        fill: #ffe309;
        stroke: #665608;
      }
    </style>
  </defs>
  <g>
    <g>
      <g>
        <path class="a2c49006-750c-4f91-af6d-abe3399a4592" d="M35.07,18.59a6.05,6.05,0,0,1-3.37,5.17c-2.3,1-5.07.09-7.21-2a11.36,11.36,0,0,1-2.37-3.51c-2-4.49-.87-9.28,2.46-10.7s7.61,1.06,9.57,5.55A11,11,0,0,1,35.07,18.59Z"/>
        <ellipse class="a81293f0-b6cc-47ce-9fcc-0ba14ae4b305" cx="26.19" cy="18.82" rx="2.97" ry="4" transform="translate(-6.04 17.54) rotate(-33.43)"/>
        <ellipse class="adbfa377-a106-472d-b260-b660f43a4f8e" cx="23.88" cy="17.4" rx="0.81" ry="1.1" transform="matrix(0.94, -0.34, 0.34, 0.94, -4.52, 9.24)"/>
      </g>
      <g>
        <path class="a2c49006-750c-4f91-af6d-abe3399a4592" d="M17,23.73C16.64,26.65,15,29,12.58,29.39s-4.68-1-6.14-3.51a10.36,10.36,0,0,1-1.25-3.33c-.85-4.37,1.08-8.4,4.32-9S16.05,16,16.9,20.39A10.81,10.81,0,0,1,17,23.73Z"/>
        <ellipse class="a81293f0-b6cc-47ce-9fcc-0ba14ae4b305" cx="9.39" cy="25.22" rx="2.7" ry="3.63" transform="translate(-13.49 11.05) rotate(-37.81)"/>
        <ellipse class="adbfa377-a106-472d-b260-b660f43a4f8e" cx="7.06" cy="24.26" rx="0.74" ry="1" transform="translate(-3.05 1.11) rotate(-7.37)"/>
      </g>
      <path class="a81293f0-b6cc-47ce-9fcc-0ba14ae4b305" d="M9.7,9.3s-2.61.84-5,4.65C4.68,14,7.29,5.06,9.7,9.3Z"/>
      <path class="a81293f0-b6cc-47ce-9fcc-0ba14ae4b305" d="M19.51,4.19s2.77-1.2,7.54-.1C27.05,4.09,18.44-.57,19.51,4.19Z"/>
    </g>
    <path class="ab07270e-be4c-4147-af73-924273160a67" d="M17,23.73a13.28,13.28,0,0,1-4.57,2.08,13.47,13.47,0,0,1-5.77.11l-.24,0a10.36,10.36,0,0,1-1.25-3.33c-.85-4.37,1.08-8.4,4.32-9S16.05,16,16.9,20.39A10.81,10.81,0,0,1,17,23.73Z"/>
    <path class="ab07270e-be4c-4147-af73-924273160a67" d="M35.07,18.59a14.24,14.24,0,0,1-6.21,3.15,10.5,10.5,0,0,1-3.85.08l-.52-.1a11.36,11.36,0,0,1-2.37-3.51c-2-4.49-.87-9.28,2.46-10.7s7.61,1.06,9.57,5.55A11,11,0,0,1,35.07,18.59Z"/>
  </g>
</svg>
