<svg id="b61daf9b-2bca-4f91-9b0d-553df188d441" data-name="Layer 1" xmlns="http://www.w3.org/2000/svg" width="200" height="240" viewBox="0 0 200 240">
  <defs>
    <style>
      .e5948909-a178-4468-92fb-4e672d42f42a {
        fill: #bcfde5;
      }

      .a565d628-67a1-43e7-a1a0-075124bd4a23 {
        fill: #ebf7f2;
      }
    </style>
  </defs>
  <g>
    <g>
      <path class="e5948909-a178-4468-92fb-4e672d42f42a" d="M57,183.37C79.09,193.7,108.3,143.91,124.59,109s16.23-71.38-5.9-81.71S75.62,45.62,59.33,80.53,34.83,173,57,183.37Z"/>
      <path class="a565d628-67a1-43e7-a1a0-075124bd4a23" d="M57,183.32c20.43,8.73,43.29-30.32,52-45,8-14.28,15.77-28.84,21-44.36,5.72-18,9.74-42.46-2.42-58.58-4.88-6.15-12.85-10.22-20.77-9.19-18.5,2.87-32.54,27.23-40.9,42.45A182.17,182.17,0,0,0,44.2,138.59C43.09,152.54,42.66,176,57,183.32Zm0,.09c-14.41-7.29-14.11-30.88-13-44.85A182.8,182.8,0,0,1,65.27,68.34c8.47-15.56,22.46-40.06,41.36-43.08,8.26-1.13,16.61,3.09,21.64,9.54,12.33,16.48,8.2,41.08,2.31,59.37-5.31,15.55-13.21,30.1-21.25,44.38-8.8,14.73-31.91,53.74-52.4,44.86Z"/>
    </g>
    <g>
      <path class="e5948909-a178-4468-92fb-4e672d42f42a" d="M55.65,184.15c17,17.53,62-18.6,89.68-45.42S185.9,77.8,168.89,60.28s-46.77,1.79-74.42,28.61S38.65,166.62,55.65,184.15Z"/>
      <path class="a565d628-67a1-43e7-a1a0-075124bd4a23" d="M55.69,184.12c16,15.43,51.25-12.93,64.59-23.55,12.51-10.52,25-21.33,35.41-34,11.78-14.85,24.2-36.15,18.58-55.6-2.36-7.48-8.36-14.12-16.13-16-18.36-3.88-40.07,13.85-53.33,25.11a182.23,182.23,0,0,0-45.14,57.66c-6,12.64-14.74,34.38-4,46.35Zm-.07.07c-10.88-12-2.2-33.85,3.76-46.56a182.78,182.78,0,0,1,45-58c13.45-11.53,35.24-29.44,54-25.54,8.13,1.88,14.42,8.8,16.83,16.62,5.65,19.79-7,41.3-19,56.3-10.5,12.65-23.06,23.42-35.66,33.91-13.46,10.63-48.95,38.86-64.93,23.28Z"/>
    </g>
  </g>
</svg>
