<svg id="ff87fd78-5aa1-43dd-94ee-6c40a4c80b1a" data-name="Layer 1" xmlns="http://www.w3.org/2000/svg" width="410" height="490" viewBox="0 0 410 490">
  <defs>
    <style>
      .b6149866-eb52-4706-936c-6ac77db0056b, .fe4d66a6-57b0-418b-91c9-a38b0c2c389f {
        fill: #ffe309;
        stroke-width: 0.75px;
      }

      .b6149866-eb52-4706-936c-6ac77db0056b {
        stroke: #665608;
      }

      .b6149866-eb52-4706-936c-6ac77db0056b, .b8e91536-20db-4c3b-91f6-f1d8a08620ae, .fe4d66a6-57b0-418b-91c9-a38b0c2c389f {
        stroke-miterlimit: 10;
      }

      .fe4d66a6-57b0-418b-91c9-a38b0c2c389f {
        stroke: #493c05;
      }

      .bf627be5-698b-4d9a-95ed-de41cadedcc3 {
        fill: #ecc516;
      }

      .b8e91536-20db-4c3b-91f6-f1d8a08620ae {
        fill: #532900;
        stroke: #3a1c03;
      }

      .f415df0d-8634-4df9-9267-480c874f7983 {
        fill: #681a1a;
      }

      .a49390be-d803-4f1b-ac81-d81def4d9447 {
        fill: #ef7089;
      }

      .b1d6aa15-ad55-4b29-9751-19450a616f5f {
        fill: #ff5763;
      }

      .b33484ea-26cc-4107-a756-0c04c676a93a {
        fill: #fff;
      }

      .fd3a2a23-d862-4dcb-8fab-8c57f2a4e74c {
        fill: #ef304c;
      }

      .e8df3125-3c8b-4a17-b9b8-25528cee471f {
        fill: #ffa979;
      }
    </style>
  </defs>
  <g>
    <path class="b6149866-eb52-4706-936c-6ac77db0056b" d="M266.21,407.19s12.38-.28,11.59,13.47-6.68,23.28,6.45,27.12,27.64,6.77,31.48-6.36-15.1-15.76-11.87-25.84,4-29.78-19.88-33.41S266.21,407.19,266.21,407.19Z"/>
    <g>
      <path class="b6149866-eb52-4706-936c-6ac77db0056b" d="M187,126.28s-18.49-2.8-34.89-42.8S162.61,2.29,184.18,3.25s19.22,19.14-2,30.09-27.46,60.47,11.17,88.5C193.31,121.84,214.17,145.21,187,126.28Z"/>
      <path class="b6149866-eb52-4706-936c-6ac77db0056b" d="M249.8,133.22S246.71,99,254.89,77,288.66,6.69,321,19.47c0,0,9.25,7.28,4.78,15.56s-13.22,10.41-21.45,5.15S247.1,71,258.1,131.84C258.1,131.84,255.77,148.47,249.8,133.22Z"/>
      <path class="b6149866-eb52-4706-936c-6ac77db0056b" d="M276.19,275.73s6.67,7.43,54.84-5.76c0,0,19.73-4.89,29.48-11.21s32.84-16.29,39.43-12.28,5.6,11.92-6.88,12.1L381,260.49s14.66-1,12.63,15.45-18-5.84-18-5.84L385,282.76s-6.23,12.16-20.69-4.77c0,0-2.62,8.55-33,21.39s-65.15,13.86-65.15,13.86Z"/>
      <path class="fe4d66a6-57b0-418b-91c9-a38b0c2c389f" d="M279.27,261.51c10.45,15.52,17.1,30.82,19.66,46.29A89.4,89.4,0,0,1,298,342l0,0a113.17,113.17,0,0,1-8.82,25c-.72,1.51-1.48,3-2.29,4.47a120.77,120.77,0,0,1-22,29.08c-17.25,16.9-37.53,27.49-53.67,34.2-3.85,1.62-7.48,3-10.73,4.18-24.51,9-34.72,23.22-34.72,23.22,2.31-14.29-5.49-28.26-13.37-43.7-7.24-14.06-14.58-29.33-14.35-47.15,0-.92,0-1.85.06-2.81A79.1,79.1,0,0,1,140.81,352a106.33,106.33,0,0,1,9.71-23.51,4.79,4.79,0,0,1,.34-.59,141.94,141.94,0,0,1,13.26-19.6,112.47,112.47,0,0,1,9.42-10.61c21.59-20.49,12.16-41.75,12.16-41.75L265.18,243A208.9,208.9,0,0,1,279.27,261.51Z"/>
      <path class="bf627be5-698b-4d9a-95ed-de41cadedcc3" d="M276.15,259.91c-6.79,12.06-17.79,22.73-32.39,33.93-30.23,23.19-63.69,30.91-76.85,18.21a112.32,112.32,0,0,1,10.82-17,88.05,88.05,0,0,1,7.82-9.12c18-17.47,9-36.83,9-36.83l68.87-8.43C268.26,246.43,272.33,254.29,276.15,259.91Z"/>
      <path class="b8e91536-20db-4c3b-91f6-f1d8a08620ae" d="M211.63,433.36c-3.85,1.62-7.91,4.4-11.16,5.6-24.51,9-34.72,23.22-34.72,23.22,2.31-14.29-5.82-30.26-13.71-45.7C161.14,425.57,180.93,439.14,211.63,433.36Z"/>
      <path class="b8e91536-20db-4c3b-91f6-f1d8a08620ae" d="M298.93,307.8A89.4,89.4,0,0,1,298,342l0,0c-11.95,9.17-37.69,22.82-82.58,19.75-27.58-1.92-49.11-16.7-64.84-33.34a143.13,143.13,0,0,1,13.6-20.19c12.57,13,36,30.34,69.43,27.3C266.27,332.57,287.58,318.14,298.93,307.8Z"/>
      <path class="b8e91536-20db-4c3b-91f6-f1d8a08620ae" d="M286.83,371.5a120.77,120.77,0,0,1-22,29.08c-15.41,8.52-39,17.72-64.43,13.37-31.12-5.25-49.62-24.15-62.41-42.62,0-.92,0-1.85.06-2.81A79.1,79.1,0,0,1,140.81,352c11,13.59,32.56,34.11,63.39,35.58C240.67,389.26,274.18,376.87,286.83,371.5Z"/>
      <g>
        <path class="b6149866-eb52-4706-936c-6ac77db0056b" d="M332.62,235c-2.83,41.13-39.95,62.32-83.13,67.94a.16.16,0,0,1-.13,0,197.39,197.39,0,0,1-43.42.65c-58.61-5.45-86.14-39.1-77.39-98.14,6.56-44.38,35.62-85.16,78.15-95.5a90.86,90.86,0,0,1,30.08-2.09C295.43,113.31,336.83,174.05,332.62,235Z"/>
        <path class="bf627be5-698b-4d9a-95ed-de41cadedcc3" d="M252.81,301.54a199.79,199.79,0,0,1-43.41.61c-58.62-5.46-86.17-38.83-77.47-97.33,6.52-44,35.55-84.36,78.07-94.58-19.13,11.11-55.48,39.42-59.42,95.73C145.44,279.09,203.34,303.3,252.81,301.54Z"/>
        <g>
          <g>
            <g>
              <g>
                <path class="f415df0d-8634-4df9-9267-480c874f7983" d="M290.8,239.89S289,259.4,278.22,273.2a34.52,34.52,0,0,1-10.68,9.41c-16,8.92-35.34,6.39-47.32-12.48-.29-.39-.52-.81-.78-1.24a67.77,67.77,0,0,1-7.15-17.52s35.32,8.17,67-5.43A77.84,77.84,0,0,0,290.8,239.89Z"/>
                <path class="a49390be-d803-4f1b-ac81-d81def4d9447" d="M290.82,239.85a55.65,55.65,0,0,1-.92,6.54c-.43,2.15-.9,4.29-1.49,6.4a71.2,71.2,0,0,1-4.57,12.34,49.86,49.86,0,0,1-7.3,11,33.35,33.35,0,0,1-10.55,8A35.21,35.21,0,0,1,240,287a33.12,33.12,0,0,1-11.75-6.34,43.69,43.69,0,0,1-8.77-10l0,.06a47.26,47.26,0,0,1-2.62-4.57q-1.17-2.31-2.15-4.71a75.64,75.64,0,0,1-3.25-9.81l-.35-1.3,1.34.28a123.44,123.44,0,0,0,20,2.36,128.09,128.09,0,0,0,20.16-.65,104.81,104.81,0,0,0,19.74-4.12,24.87,24.87,0,0,0,2.39-.81l2.38-.87c1.59-.56,3.16-1.17,4.69-1.88A83.28,83.28,0,0,0,290.82,239.85Zm-.05.08a68.72,68.72,0,0,1-8.83,4.9c-1.53.74-3.1,1.38-4.68,2l-2.37.91a25.12,25.12,0,0,1-2.39.85l-4.86,1.49c-1.63.43-3.29.79-4.93,1.19s-3.33.64-5,1c-.83.14-1.66.31-2.5.43l-2.52.31a127.14,127.14,0,0,1-20.27.83,124.25,124.25,0,0,1-20.16-2.31l.11-.11a74.67,74.67,0,0,0,3.24,9.67,56.15,56.15,0,0,0,4.68,9.05h0a43.33,43.33,0,0,0,8.54,9.82,31.7,31.7,0,0,0,24.33,7.33,37.89,37.89,0,0,0,12.46-3.74,33,33,0,0,0,10.41-7.78,49.59,49.59,0,0,0,7.31-10.82,71.06,71.06,0,0,0,4.74-12.19A82.38,82.38,0,0,0,290.77,239.93Z"/>
              </g>
              <path class="b1d6aa15-ad55-4b29-9751-19450a616f5f" d="M272.17,271.91c3.74,6.11-2.05,9-5.94,11.27-14.43,8.36-35.47,3.6-46.18-13.95,3.59-2.24,9.8-3.8,20.45-1.78C240.5,267.45,260.53,261.5,272.17,271.91Z"/>
              <path class="b33484ea-26cc-4107-a756-0c04c676a93a" d="M258.91,269.94a69.24,69.24,0,0,1-18.13,2.89,28.05,28.05,0,0,1-27.68-20.45l0-.21s34.41,8.47,66.13-5.14C280.66,255.48,277.44,264.45,258.91,269.94Z"/>
            </g>
            <path class="fd3a2a23-d862-4dcb-8fab-8c57f2a4e74c" d="M207.91,240.24a10.79,10.79,0,0,1,1.32,3.61,9.66,9.66,0,0,1-.11,3.93,6.61,6.61,0,0,1-2.13,3.33,7.09,7.09,0,0,1-1.66,1.06,17.77,17.77,0,0,1-1.83.6v0a9.48,9.48,0,0,0,3.23-1.9,6.43,6.43,0,0,0,1.92-3.18,9.86,9.86,0,0,0,.2-3.75,13.91,13.91,0,0,0-1-3.64Z"/>
            <path class="fd3a2a23-d862-4dcb-8fab-8c57f2a4e74c" d="M296.53,243.57a9.35,9.35,0,0,1-3-1.38,11,11,0,0,1-2.39-2.29,9.67,9.67,0,0,1-1.5-3,10.12,10.12,0,0,1-.33-1.62,11.24,11.24,0,0,1,0-1.64h.05a11.82,11.82,0,0,0,.67,3.12,10.1,10.1,0,0,0,1.53,2.81,12.35,12.35,0,0,0,5,3.92Z"/>
          </g>
          <ellipse class="e8df3125-3c8b-4a17-b9b8-25528cee471f" cx="183.82" cy="237.13" rx="11.68" ry="16.65" transform="translate(-69.32 398.19) rotate(-84.68)"/>
          <ellipse class="e8df3125-3c8b-4a17-b9b8-25528cee471f" cx="314.57" cy="217.76" rx="16.65" ry="11.68" transform="translate(-52.57 110.13) rotate(-18.35)"/>
        </g>
      </g>
      <path class="b6149866-eb52-4706-936c-6ac77db0056b" d="M158.64,320.36s-2.42-11.31,6.94-15.59,29.58,14.29,38.82,29,30.67,11.88,30.67,11.88,6.49-20,14.26-17-1,18.14-1,18.14,12.52-4.43,16.16-14.5c0,0,7.81-2.82,6.43,8.61l-8.3,9.33,9.55-8.59s5.27,4.86-7.69,18.55-60.15,9-92.25-18.75C172.25,341.44,162,332.93,158.64,320.36Z"/>
      <path class="b6149866-eb52-4706-936c-6ac77db0056b" d="M173,417.39a9.54,9.54,0,0,1,7.61-15.13c4.41-.05,9.71.87,14,4.52,9.26,7.81,18.64,21.48,14.81,36.27s8.35,20,15.73,24.07,7.48,18.91-9.66,19.58c0,0-22.9,1.95-33.84-16.27,0,0-6.44-6.88-.89-28.85C184.22,428.14,177.22,423.05,173,417.39Z"/>
    </g>
  </g>
</svg>
