<svg id="b97db503-6165-4264-9c8f-916ab1f16f75" data-name="Layer 1" xmlns="http://www.w3.org/2000/svg" width="99.88" height="80.12" viewBox="0 0 99.88 80.12">
  <defs>
    <style>
      .aeea1ac4-0811-4d53-8d5c-a9deb2533b31, .eea820cf-e76c-47d0-b056-5a1cfce2f526 {
        fill: #fff;
      }

      .aeea1ac4-0811-4d53-8d5c-a9deb2533b31 {
        stroke: #702840;
      }

      .aeea1ac4-0811-4d53-8d5c-a9deb2533b31, .b9ff8667-9df7-49b6-af03-35a5a2ffc130 {
        stroke-miterlimit: 10;
        stroke-width: 0.75px;
      }

      .e77e8001-bce1-4801-8baa-37effc1f8c13 {
        fill: #210a11;
      }

      .b9ff8667-9df7-49b6-af03-35a5a2ffc130 {
        fill: #ffe309;
        stroke: #665608;
      }
    </style>
  </defs>
  <g>
    <g>
      <g>
        <path class="aeea1ac4-0811-4d53-8d5c-a9deb2533b31" d="M88.6,52.43c-1.48,7-5.75,12.41-11.71,13.7-7,1.51-14.34-3.07-18.65-10.86a30.23,30.23,0,0,1-3-8c-2.81-12.4,2.34-24.06,11.51-26.05S85.59,27.67,88.4,40.07A29.22,29.22,0,0,1,88.6,52.43Z"/>
        <ellipse class="e77e8001-bce1-4801-8baa-37effc1f8c13" cx="66.7" cy="49.44" rx="7.7" ry="10.37" transform="translate(-10.03 17.72) rotate(-14.08)"/>
        <ellipse class="eea820cf-e76c-47d0-b056-5a1cfce2f526" cx="61.75" cy="46.62" rx="2.84" ry="2.11" transform="translate(5.21 99.43) rotate(-80.1)"/>
      </g>
      <g>
        <path class="aeea1ac4-0811-4d53-8d5c-a9deb2533b31" d="M40.83,50.26a27.47,27.47,0,0,1-1.16,8c-2.31,7.58-7.82,12.88-14.26,12.83s-12-5.51-14.33-13.2A27.34,27.34,0,0,1,9.94,50c0-11.56,6.89-20.89,15.41-20.82S40.81,38.7,40.83,50.26Z"/>
        <ellipse class="e77e8001-bce1-4801-8baa-37effc1f8c13" cx="19.5" cy="56.78" rx="7" ry="9.43" transform="translate(-16.84 8.99) rotate(-18.3)"/>
        <ellipse class="eea820cf-e76c-47d0-b056-5a1cfce2f526" cx="14.82" cy="53.57" rx="2.59" ry="1.92" transform="translate(-40.71 56.09) rotate(-77.14)"/>
      </g>
      <path class="e77e8001-bce1-4801-8baa-37effc1f8c13" d="M27.94,18.49s-7.08.85-15.1,9.38C12.84,27.87,23.85,6.5,27.94,18.49Z"/>
      <path class="e77e8001-bce1-4801-8baa-37effc1f8c13" d="M55.43,10.29s7.66-1.71,19.27,3.44C74.7,13.73,55.05-2.38,55.43,10.29Z"/>
    </g>
    <path class="b9ff8667-9df7-49b6-af03-35a5a2ffc130" d="M40.83,50.26a27.47,27.47,0,0,1-1.16,8,37.61,37.61,0,0,1-13.2,2.63,38,38,0,0,1-13.75-2.34c-.6-.23-1.15-.45-1.64-.66A27.34,27.34,0,0,1,9.94,50c0-11.56,6.89-20.89,15.41-20.82S40.81,38.7,40.83,50.26Z"/>
    <path class="b9ff8667-9df7-49b6-af03-35a5a2ffc130" d="M88.6,52.43a42.93,42.93,0,0,1-15.27,3.7,62.37,62.37,0,0,1-12.1-.41c-1.1-.14-2.11-.3-3-.45a30.23,30.23,0,0,1-3-8c-2.81-12.4,2.34-24.06,11.51-26.05S85.59,27.67,88.4,40.07A29.22,29.22,0,0,1,88.6,52.43Z"/>
  </g>
</svg>
