<svg id="b9e9932d-1f11-4833-97b9-530b72dc6eca" data-name="Layer 1" xmlns="http://www.w3.org/2000/svg" width="149.65" height="125.65" viewBox="0 0 149.65 125.65">
  <defs>
    <style>
      .a7de5ce8-1bab-4159-9cd6-88d3d7efa217, .aead0bef-6b47-4367-b9c7-51071edb82d8 {
        fill: #fff;
      }

      .aead0bef-6b47-4367-b9c7-51071edb82d8 {
        stroke: #702840;
      }

      .aead0bef-6b47-4367-b9c7-51071edb82d8, .fb6b2e10-9e32-4964-b873-6cc15e80f63a {
        stroke-miterlimit: 10;
        stroke-width: 0.75px;
      }

      .ea692d19-46fd-4361-b554-15ba65fa320c {
        fill: #210a11;
      }

      .fb6b2e10-9e32-4964-b873-6cc15e80f63a {
        fill: #ffe309;
        stroke: #665608;
      }
    </style>
  </defs>
  <g>
    <g>
      <g>
        <path class="aead0bef-6b47-4367-b9c7-51071edb82d8" d="M59.94,76.71C57.61,94.6,45,107.81,31.8,106.21s-22-17.4-19.7-35.29A42.32,42.32,0,0,1,16.89,56c5.36-9.72,14.21-15.71,23.35-14.6,9.72,1.18,17.07,10,19.33,21.79A42.36,42.36,0,0,1,59.94,76.71Z"/>
        <ellipse class="ea692d19-46fd-4361-b554-15ba65fa320c" cx="47.39" cy="73.2" rx="14.71" ry="10.92" transform="translate(-28.79 115.63) rotate(-86.19)"/>
        <ellipse class="a7de5ce8-1bab-4159-9cd6-88d3d7efa217" cx="54.23" cy="70.09" rx="4.04" ry="3" transform="translate(-19.31 119.55) rotate(-86.19)"/>
      </g>
      <g>
        <path class="aead0bef-6b47-4367-b9c7-51071edb82d8" d="M105.18,106.42c-12,1.22-23-11-24.53-27.38a38.24,38.24,0,0,1,1.61-15.26c3-9.13,9.45-15.72,17.47-16.53,9.85-1,19,7,22.81,18.93a39.19,39.19,0,0,1,1.71,8.45C125.76,91,117.21,105.2,105.18,106.42Z"/>
        <ellipse class="ea692d19-46fd-4361-b554-15ba65fa320c" cx="113.5" cy="76.93" rx="9.93" ry="13.38" transform="translate(-10.51 18.44) rotate(-8.88)"/>
        <ellipse class="a7de5ce8-1bab-4159-9cd6-88d3d7efa217" cx="118.99" cy="71.42" rx="2.72" ry="3.67" transform="translate(-9.6 19.22) rotate(-8.88)"/>
      </g>
      <path class="ea692d19-46fd-4361-b554-15ba65fa320c" d="M94.67,32.45s10.1.27,22.57,11.26C117.24,43.71,98.85,15,94.67,32.45Z"/>
      <path class="ea692d19-46fd-4361-b554-15ba65fa320c" d="M54.75,24.49s-11-1.4-26.76,7.4C28,31.89,53.61,6.55,54.75,24.49Z"/>
    </g>
    <path class="fb6b2e10-9e32-4964-b873-6cc15e80f63a" d="M59.57,63.21a41.91,41.91,0,0,0-7.11-3.3c-1.48-.53-3-1-4.52-1.41-11.54-3.1-24.19-2.91-31-2.48,5.36-9.72,14.21-15.71,23.35-14.6C50,42.6,57.31,51.47,59.57,63.21Z"/>
    <path class="fb6b2e10-9e32-4964-b873-6cc15e80f63a" d="M122.54,66.18a54.81,54.81,0,0,0-6.09-1.55c-1.74-.36-3.5-.64-5.27-.87a129.57,129.57,0,0,0-28.92,0c3-9.13,9.45-15.72,17.47-16.53C109.58,46.25,118.72,54.28,122.54,66.18Z"/>
  </g>
</svg>
