<svg id="a40413ad-2ece-4a34-b6f9-3a139fe73ee8" data-name="Layer 1" xmlns="http://www.w3.org/2000/svg" width="150" height="190" viewBox="0 0 150 190">
  <defs>
    <style>
      .a1363fa1-d0d7-434c-9c86-f33d78df97a2, .b13f4c81-b160-4285-88bb-ce54a27cf658 {
        fill: #ffe309;
      }

      .a5f17d92-25c9-49b4-b4c0-c8150632da35, .b13f4c81-b160-4285-88bb-ce54a27cf658 {
        stroke: #665608;
      }

      .a1363fa1-d0d7-434c-9c86-f33d78df97a2, .a5f17d92-25c9-49b4-b4c0-c8150632da35, .b13f4c81-b160-4285-88bb-ce54a27cf658, .f3104a69-1381-41d5-b0fb-0138079b4940 {
        stroke-miterlimit: 10;
      }

      .a1363fa1-d0d7-434c-9c86-f33d78df97a2, .a5f17d92-25c9-49b4-b4c0-c8150632da35, .b13f4c81-b160-4285-88bb-ce54a27cf658 {
        stroke-width: 0.75px;
      }

      .a1363fa1-d0d7-434c-9c86-f33d78df97a2 {
        stroke: #493c05;
      }

      .a3b6850e-8c2a-4305-a269-48da3a387562 {
        fill: #ecc516;
      }

      .f3104a69-1381-41d5-b0fb-0138079b4940 {
        fill: #532900;
        stroke: #3a1c03;
      }

      .a546d9a6-5147-4787-b43c-4dba1a731d3d {
        fill: #681a1a;
      }

      .f5c43eae-3886-410c-b357-c1e25c102364 {
        fill: #ef7089;
      }

      .ea69a3a0-0725-429c-909d-2628c97fed69 {
        fill: #ff5763;
      }

      .a4e4a529-bb45-4cf6-87e4-162dc7a60cd7 {
        fill: #fff;
      }

      .fa1958ad-d02c-48b8-89d1-dcd83921dcb2 {
        fill: #ef304c;
      }

      .eb690da4-f063-4b12-ade6-8e7e1c33b6fa {
        fill: #ffa979;
      }

      .a5f17d92-25c9-49b4-b4c0-c8150632da35 {
        fill: none;
      }
    </style>
  </defs>
  <g>
    <g>
      <g>
        <path class="b13f4c81-b160-4285-88bb-ce54a27cf658" d="M78.61,162.72s-3.09,4.16,1.79,7.22,9.57,3.36,7.7,8.77-4.38,11.08-9.79,9.21-1.73-9-6-10.31-11.14-5.84-6.6-14.88S78.61,162.72,78.61,162.72Z"/>
        <g>
          <path class="b13f4c81-b160-4285-88bb-ce54a27cf658" d="M48.08,115.25s.74,4.12-16,16.64c0,0-6.69,5.26-11.29,6.86S10,145.69,9.62,148.9s1.67,6.55,4.94,2.47l1.56-5.43S12,150.52,18,154.09s2.69-7.44,2.69-7.44L22.45,153s5.62,1.07,3.74-8.06c0,0,3.5,1.34,15.56-5.42s21.32-18,21.32-18Z"/>
          <path class="a1363fa1-d0d7-434c-9c86-f33d78df97a2" d="M26.34,121.59c.49,7.81,2.18,14.59,5.27,20.38a37.49,37.49,0,0,0,9,11.12h0a47.51,47.51,0,0,0,9.3,6c.62.32,1.26.62,1.9.9a50.11,50.11,0,0,0,14.7,4.06c10,1.22,19.47-.43,26.54-2.31,1.69-.45,3.24-.92,4.62-1.35,10.44-3.25,17.45-1.13,17.45-1.13-4.41-4.16-5.38-10.78-6.69-17.92-1.18-6.51-2.64-13.46-7.25-19.32-.24-.3-.47-.61-.73-.91a33.2,33.2,0,0,0-5.13-4.81A44.45,44.45,0,0,0,86.15,111l-.26-.11a59.86,59.86,0,0,0-9.4-3.13,47.67,47.67,0,0,0-5.83-1.12C58.27,105.35,56,95.88,56,95.88l-29.67,16A87.51,87.51,0,0,0,26.34,121.59Z"/>
          <path class="a3b6850e-8c2a-4305-a269-48da3a387562" d="M27,120.26c5.33,2.28,11.7,3,19.4,3,16,0,29-6,30.16-13.53a46.34,46.34,0,0,0-7.92-2.89,36.33,36.33,0,0,0-4.92-1c-10.45-1.2-12.37-9.94-12.37-9.94l-25,14.75C26.16,113.77,26.81,117.42,27,120.26Z"/>
          <path class="f3104a69-1381-41d5-b0fb-0138079b4940" d="M92.59,161.43c1.69-.45,3.75-.56,5.13-1,10.44-3.25,17.45-1.13,17.45-1.13-4.41-4.16-5.77-11.53-7.09-18.67C107.37,146,104.26,155.52,92.59,161.43Z"/>
          <path class="f3104a69-1381-41d5-b0fb-0138079b4940" d="M31.61,142a37.49,37.49,0,0,0,9,11.12h0c6.3,0,18.33-2,32.45-14.49,8.68-7.66,12.06-18,13-27.59a60.08,60.08,0,0,0-9.66-3.24c-.87,7.51-4.24,19.26-16.1,26.76A46.38,46.38,0,0,1,31.61,142Z"/>
          <path class="f3104a69-1381-41d5-b0fb-0138079b4940" d="M51.86,160a50.11,50.11,0,0,0,14.7,4.06c7.29-1.09,17.46-4,24.8-12,9-9.67,10.33-20.66,9.87-30.06-.24-.3-.47-.61-.73-.91a33.2,33.2,0,0,0-5.13-4.81c-.2,7.32-2.12,19.62-12,28C71.71,154.18,57.43,158.6,51.86,160Z"/>
          <g>
            <path class="b13f4c81-b160-4285-88bb-ce54a27cf658" d="M63.81,54.16s7.83.17,17.45-15.16,1.47-34.24-7.5-35.38-9.29,6.52-1.31,12.56,7,26.9-10.92,35.7C61.53,51.88,51.26,60,63.81,54.16Z"/>
            <path class="b13f4c81-b160-4285-88bb-ce54a27cf658" d="M40,51.88s2.28-14.18-.49-23.64S27.46-2.08,13.6,2.32c0,0-4.07,2.77-2.44,6.36s5.21,4.73,8.8,2.77S43,26,36.59,51.06C36.59,51.06,37.08,58.07,40,51.88Z"/>
            <g>
              <path class="b13f4c81-b160-4285-88bb-ce54a27cf658" d="M1.74,97c-.41,17.25,14.23,27.52,32,31.54h.06a82.48,82.48,0,0,0,18.07,2c24.64,0,37.41-13,36.06-37.9-1-18.75-11.55-36.88-28.87-42.83a38,38,0,0,0-12.46-2C22,47.77,2.35,71.48,1.74,97Z"/>
              <path class="a3b6850e-8c2a-4305-a269-48da3a387562" d="M32.42,127.87a83.14,83.14,0,0,0,18.07,1.94c24.64,0,37.42-12.84,36.06-37.56C85.54,73.67,75,55.71,57.69,49.81A49.37,49.37,0,0,1,78.73,92C78,122.68,53,130.52,32.42,127.87Z"/>
              <g>
                <g>
                  <g>
                    <g>
                      <path class="a546d9a6-5147-4787-b43c-4dba1a731d3d" d="M19,100.7s0,8.21,3.95,14.37A14.31,14.31,0,0,0,27,119.41c6.33,4.34,14.48,4,20.2-3.37.14-.15.25-.31.38-.48a28.87,28.87,0,0,0,3.66-7s-15,2-27.73-4.86A32.54,32.54,0,0,1,19,100.7Z"/>
                      <path class="f5c43eae-3886-410c-b357-c1e25c102364" d="M19,100.75a33.69,33.69,0,0,0,2.53,10.5,15.83,15.83,0,0,0,6.6,8A16.07,16.07,0,0,0,33,121.15a12.44,12.44,0,0,0,5.12,0,14.69,14.69,0,0,0,8.42-5.65l0-.06a17.47,17.47,0,0,0,1.15-1.62,19.79,19.79,0,0,0,1-1.78,30.71,30.71,0,0,0,1.71-3.79l.9,1.11a53.13,53.13,0,0,1-8.64.13,51.81,51.81,0,0,1-8.5-1.31,38.52,38.52,0,0,1-8.1-2.83c-.65-.29-1.26-.67-1.9-1s-1.25-.69-1.84-1.08A25.71,25.71,0,0,1,19,100.75Zm0-.09A42.43,42.43,0,0,0,22.52,103c.61.36,1.24.69,1.87,1s1.26.65,1.92.91a42.25,42.25,0,0,0,8.06,2.57,52.94,52.94,0,0,0,8.41,1.12,51.94,51.94,0,0,0,8.46-.19l.15,0,0,.13a31.24,31.24,0,0,1-1.73,3.93,24.12,24.12,0,0,1-2.31,3.62h0a15.48,15.48,0,0,1-9,6,14.61,14.61,0,0,1-10.56-2.11,16.5,16.5,0,0,1-6.69-8.5,30,30,0,0,1-1.5-5.28c-.18-.9-.31-1.8-.41-2.71A19.39,19.39,0,0,1,19,100.66Z"/>
                    </g>
                    <path class="ea69a3a0-0725-429c-909d-2628c97fed69" d="M35.14,113.1c-6-.66-11.25,2.68-8.46,6.15a7.17,7.17,0,0,0,2.94,2c12.23,2.42,16.47-3.17,17-7.28-1.41-.68-3.22-.5-7.74-.23A28.94,28.94,0,0,0,35.14,113.1Z"/>
                    <path class="a546d9a6-5147-4787-b43c-4dba1a731d3d" d="M39.67,112.86a11.09,11.09,0,0,0-5.53,7.88s2.23-5.41,7.41-7.65Z"/>
                    <path class="a4e4a529-bb45-4cf6-87e4-162dc7a60cd7" d="M31.11,114.47a29.32,29.32,0,0,0,7.44,1.9,11.73,11.73,0,0,0,12.33-7.45l0-.08S36.24,111,23.55,104.13C22.6,107.59,23.6,111.46,31.11,114.47Z"/>
                  </g>
                  <path class="fa1958ad-d02c-48b8-89d1-dcd83921dcb2" d="M53.54,104.08c-.09.54-.18,1-.23,1.55a4.8,4.8,0,0,0,0,1.42,2.68,2.68,0,0,0,.51,1.25,6.63,6.63,0,0,0,1,1.13l0,0a4.07,4.07,0,0,1-1.3-.91,2.74,2.74,0,0,1-.71-1.42,5,5,0,0,1,.65-3.08Z"/>
                  <path class="fa1958ad-d02c-48b8-89d1-dcd83921dcb2" d="M16.44,102c.37-.3.71-.56,1-.85a5.58,5.58,0,0,0,.88-.87,4.84,4.84,0,0,0,.77-1c.24-.34.42-.73.68-1.14h.05a4.7,4.7,0,0,1-1.12,2.43A5.21,5.21,0,0,1,16.45,102Z"/>
                </g>
                <ellipse class="eb690da4-f063-4b12-ade6-8e7e1c33b6fa" cx="63.67" cy="103.7" rx="6.97" ry="4.89"/>
                <ellipse class="eb690da4-f063-4b12-ade6-8e7e1c33b6fa" cx="9.93" cy="90.56" rx="4.89" ry="6.97" transform="translate(-76.99 63.3) rotate(-66.33)"/>
              </g>
            </g>
          </g>
          <path class="b13f4c81-b160-4285-88bb-ce54a27cf658" d="M98.28,151.69a4,4,0,0,0-7.07-.5,8.83,8.83,0,0,0-1.39,6c.83,5,3.74,11.3,9.88,13.09s5.41,7.28,5.29,10.8,5.21,6.74,9.12.72c0,0,5.6-7.82,1.38-15.66,0,0-1.09-3.79-10.18-6.49C99.75,158,99.41,154.42,98.28,151.69Z"/>
        </g>
      </g>
      <path class="b13f4c81-b160-4285-88bb-ce54a27cf658" d="M71.19,129.92s4.71,18.35-10.82,20.23c-9.13,1.11-13.75,2-16.23.94-3.48-1.42-11.22,2.83-12,5.65,0,0-1.89,5.65,2.35,4.24,0,0,.47,8.47,12.7,4.23,0,0,2-2.66-2.28-6.07,0,0,37.7,7.6,41.93-24C86.84,135.09,81.31,123.92,71.19,129.92Z"/>
      <path class="a5f17d92-25c9-49b4-b4c0-c8150632da35" d="M42.14,161.21s-3.88-2.46,5.42-2"/>
    </g>
    <line class="b13f4c81-b160-4285-88bb-ce54a27cf658" x1="34.49" y1="160.98" x2="34.94" y2="157.46"/>
  </g>
</svg>
