<svg id="ad001144-ee02-4f22-aa00-b8a509889b01" data-name="Layer 1" xmlns="http://www.w3.org/2000/svg" width="51.83" height="29.18" viewBox="0 0 51.83 29.18">
  <defs>
    <style>
      .af6fb95a-996f-49d0-a9c2-1e439a2c2db2, .e797d237-2758-4355-8f9e-02ca13387f56 {
        fill: #fff;
      }

      .e91c876b-3a7f-4314-92c0-0c7b28e66cd1 {
        fill: #724009;
      }

      .ea74308f-1f6a-438c-914c-c9bd8b748cb7 {
        fill: #231f20;
      }

      .af6fb95a-996f-49d0-a9c2-1e439a2c2db2 {
        opacity: 0.53;
      }

      .a4bb75d6-aec9-48b6-8d99-9b8dcffb2a20 {
        fill: #846e2f;
        stroke: #8e7717;
        stroke-miterlimit: 10;
      }
    </style>
  </defs>
  <g>
    <g>
      <g>
        <g>
          <ellipse class="e797d237-2758-4355-8f9e-02ca13387f56" cx="12.22" cy="14.27" rx="11.55" ry="13.6"/>
          <path class="e91c876b-3a7f-4314-92c0-0c7b28e66cd1" d="M.71,14.27C.54,20.7,5.36,27.74,12.22,27.62c10.62-.34,14.3-14.89,8.09-22.26C12.65-3.93.64,3.53.71,14.27Zm-.1,0C.27,5.55,8.38-3.19,17.2,1.41c11.09,5.93,8.42,26.29-5,26.71C5.12,28,.53,20.81.61,14.27Z"/>
        </g>
        <path class="ea74308f-1f6a-438c-914c-c9bd8b748cb7" d="M23.51,13.63c-.26,4.26-3,7.47-6.12,7.16s-5.42-4-5.15-8.29,3-7.48,6.13-7.16S23.78,9.37,23.51,13.63Z"/>
        <g>
          <ellipse class="e797d237-2758-4355-8f9e-02ca13387f56" cx="40.9" cy="15.53" rx="10.26" ry="13.05"/>
          <path class="e91c876b-3a7f-4314-92c0-0c7b28e66cd1" d="M30.69,15.53c-.14,5.84,3.8,12.82,10.21,12.8C50.67,27.71,53.31,14,48.16,7.15c-7-9.38-17.62-1.45-17.47,8.38Zm-.1,0c-.36-7.94,6.56-17,14.94-12.25,8.13,5.17,8,19.22-.12,24.3-8.15,4.62-15.07-4.31-14.82-12Z"/>
        </g>
        <path class="ea74308f-1f6a-438c-914c-c9bd8b748cb7" d="M50.94,14.92c-.24,4.09-2.67,7.16-5.44,6.87s-4.82-3.87-4.58-8S43.59,6.66,46.37,7,51.18,10.83,50.94,14.92Z"/>
      </g>
      <circle class="e797d237-2758-4355-8f9e-02ca13387f56" cx="13.4" cy="10" r="2.23"/>
      <circle class="af6fb95a-996f-49d0-a9c2-1e439a2c2db2" cx="17.88" cy="18.08" r="1.68"/>
      <circle class="af6fb95a-996f-49d0-a9c2-1e439a2c2db2" cx="46.48" cy="19.13" r="1.68"/>
      <circle class="e797d237-2758-4355-8f9e-02ca13387f56" cx="42.21" cy="10" r="1.86"/>
    </g>
    <path class="a4bb75d6-aec9-48b6-8d99-9b8dcffb2a20" d="M.71,13.06S10.48,23.25,24,14.45c0,0-.47-9.79-7.47-12.79C16.55,1.66,4.86-4.53.71,13.06Z"/>
    <path class="a4bb75d6-aec9-48b6-8d99-9b8dcffb2a20" d="M30.64,14.27s10.14,10.11,20.52-.75c0,0-1.45-12.22-12-11C39.13,2.48,31.73,3.88,30.64,14.27Z"/>
  </g>
</svg>
