<svg id="bc730815-c606-4307-94ba-f824ff6ebf16" data-name="Layer 1" xmlns="http://www.w3.org/2000/svg" width="104" height="68" viewBox="0 0 104 68">
  <defs>
    <style>
      .b0761e06-0b49-4555-9319-553277863a2a {
        fill: #fff;
      }

      .e901b55f-40da-4bf8-b24a-4cef950d3108 {
        fill: #702840;
      }

      .a183ead2-a74b-4f01-a6ea-2ecd524afd49 {
        fill: #210a11;
      }
    </style>
  </defs>
  <g>
    <g>
      <g>
        <ellipse class="b0761e06-0b49-4555-9319-553277863a2a" cx="24.95" cy="37.8" rx="20.39" ry="27.65" transform="translate(-3.46 2.53) rotate(-5.42)"/>
        <path class="e901b55f-40da-4bf8-b24a-4cef950d3108" d="M27.86,65.34a16.29,16.29,0,0,1-9.22-1.73,22.39,22.39,0,0,1-7.29-6,34.56,34.56,0,0,1-7.14-17.5A34.74,34.74,0,0,1,7.06,21.21,23.64,23.64,0,0,1,13,13.46a17.31,17.31,0,0,1,9-4.05,17.16,17.16,0,0,1,9.66,1.94A23.2,23.2,0,0,1,39,17.66a34.42,34.42,0,0,1,6.66,17.87A34.87,34.87,0,0,1,42.3,54.12a22.94,22.94,0,0,1-5.83,7.46A16.41,16.41,0,0,1,27.86,65.34Zm0-.09a16.39,16.39,0,0,0,8.51-3.8A22.64,22.64,0,0,0,42.09,54a34.28,34.28,0,0,0,3-18.43A33.9,33.9,0,0,0,38.35,18.2a22.16,22.16,0,0,0-7.18-6,16.1,16.1,0,0,0-9.11-1.78,16.43,16.43,0,0,0-8.5,3.77,22.92,22.92,0,0,0-5.72,7.42A34.34,34.34,0,0,0,4.76,40a34,34,0,0,0,6.77,17.41,22.46,22.46,0,0,0,7.18,6A16.3,16.3,0,0,0,27.85,65.25Z"/>
      </g>
      <ellipse class="a183ead2-a74b-4f01-a6ea-2ecd524afd49" cx="26.13" cy="40.83" rx="9.24" ry="12.45" transform="translate(-6.48 4.96) rotate(-9.65)"/>
      <ellipse class="b0761e06-0b49-4555-9319-553277863a2a" cx="29.75" cy="33.39" rx="2.54" ry="3.42" transform="translate(-5.18 5.46) rotate(-9.65)"/>
    </g>
    <g>
      <g>
        <ellipse class="b0761e06-0b49-4555-9319-553277863a2a" cx="80.23" cy="27.2" rx="18.54" ry="25.15" transform="translate(-4.48 26.27) rotate(-18.1)"/>
        <path class="e901b55f-40da-4bf8-b24a-4cef950d3108" d="M88.32,51.06a14.88,14.88,0,0,1-8.54.31,20.49,20.49,0,0,1-7.68-3.9,31.57,31.57,0,0,1-9.86-14.1A31.57,31.57,0,0,1,61,16a21.48,21.48,0,0,1,3.7-8.09A14.69,14.69,0,0,1,80.87,2.33a21,21,0,0,1,7.87,4.13A31.48,31.48,0,0,1,98.22,21a31.81,31.81,0,0,1,.68,17.19A21.12,21.12,0,0,1,95.21,46,15.07,15.07,0,0,1,88.32,51.06Zm0-.09a15,15,0,0,0,6.79-5.06,20.89,20.89,0,0,0,3.59-7.75,31.19,31.19,0,0,0-1-17A30.87,30.87,0,0,0,88.2,7.13a20.17,20.17,0,0,0-7.57-3.9,14.59,14.59,0,0,0-8.43.25,14.88,14.88,0,0,0-6.78,5,20.67,20.67,0,0,0-3.6,7.73,31.06,31.06,0,0,0,1,17,30.81,30.81,0,0,0,9.48,14.09,20.07,20.07,0,0,0,7.57,3.92A14.72,14.72,0,0,0,88.29,51Z"/>
      </g>
      <ellipse class="a183ead2-a74b-4f01-a6ea-2ecd524afd49" cx="80.36" cy="31.95" rx="8.41" ry="11.32" transform="translate(-5.33 20.27) rotate(-13.92)"/>
      <ellipse class="b0761e06-0b49-4555-9319-553277863a2a" cx="83.14" cy="24.96" rx="2.31" ry="3.11" transform="translate(-3.56 20.74) rotate(-13.92)"/>
    </g>
  </g>
</svg>
