<svg id="be494d3c-cfcf-4d2f-9e43-3d3256fa4ab7" data-name="Layer 1" xmlns="http://www.w3.org/2000/svg" width="137.62" height="85.3" viewBox="0 0 137.62 85.3">
  <defs>
    <style>
      .f452427a-bc07-4183-a47a-5680f9e45289 {
        fill: #fff;
      }

      .f3729469-2b45-4f19-bf3f-72b1893961e6 {
        fill: #702840;
      }

      .f9e575b4-ee09-4354-8ffd-f7137bb93b2f {
        fill: #210a11;
      }

      .a366ebae-df85-4d0e-9405-ec7c307f7d40 {
        fill: #ecc516;
      }
    </style>
  </defs>
  <g>
    <g>
      <g>
        <g>
          <ellipse class="f452427a-bc07-4183-a47a-5680f9e45289" cx="98.44" cy="53.03" rx="21.68" ry="29.4" transform="translate(-6.45 14.29) rotate(-8.04)"/>
          <path class="f3729469-2b45-4f19-bf3f-72b1893961e6" d="M102.23,82.13a17.24,17.24,0,0,0,9-4.15,23.69,23.69,0,0,0,5.87-8,35.68,35.68,0,0,0,2.39-19.58,36.18,36.18,0,0,0-7.87-17.9,23.57,23.57,0,0,0-7.56-6,16.75,16.75,0,0,0-9.29-1.67,16.46,16.46,0,0,0-8.61,3.86,23,23,0,0,0-5.79,7.73A35.79,35.79,0,0,0,77.4,55.69,36.07,36.07,0,0,0,84.81,74a24.4,24.4,0,0,0,7.7,6.3A17.5,17.5,0,0,0,102.23,82.13Zm0,.1a17.51,17.51,0,0,1-9.8-1.81,24.43,24.43,0,0,1-7.81-6.3,36.59,36.59,0,0,1-7.77-18.36A36.27,36.27,0,0,1,79.57,36a23.79,23.79,0,0,1,6-8.08,17.34,17.34,0,0,1,9.09-4.14,17.61,17.61,0,0,1,9.83,1.82,24.63,24.63,0,0,1,7.81,6.32A36.66,36.66,0,0,1,120,50.3a36.24,36.24,0,0,1-2.73,19.75,24,24,0,0,1-6,8.06A17.39,17.39,0,0,1,102.24,82.23Z"/>
        </g>
        <ellipse class="f9e575b4-ee09-4354-8ffd-f7137bb93b2f" cx="88.21" cy="52.47" rx="9.83" ry="13.24" transform="translate(-3.29 5.97) rotate(-3.81)"/>
        <ellipse class="f452427a-bc07-4183-a47a-5680f9e45289" cx="82.05" cy="49.68" rx="2.7" ry="3.63" transform="matrix(1, -0.07, 0.07, 1, -3.12, 5.55)"/>
      </g>
      <g>
        <g>
          <ellipse class="f452427a-bc07-4183-a47a-5680f9e45289" cx="38.65" cy="55.75" rx="26.74" ry="19.72" transform="translate(-20.04 89.76) rotate(-85.36)"/>
          <path class="f3729469-2b45-4f19-bf3f-72b1893961e6" d="M36.2,82.32A15.53,15.53,0,0,0,45,80.42a21.34,21.34,0,0,0,6.8-6,32.37,32.37,0,0,0,6-16.88,32.89,32.89,0,0,0-3.43-17.42,21.3,21.3,0,0,0-5.49-6.84A15.13,15.13,0,0,0,41,30a14.79,14.79,0,0,0-8.36,1.69A20.88,20.88,0,0,0,26,37.39,32.37,32.37,0,0,0,19.5,53.91,32.68,32.68,0,0,0,22.39,71.6,22,22,0,0,0,28,78.73,15.86,15.86,0,0,0,36.2,82.32Zm0,.1a16,16,0,0,1-8.34-3.56,22.29,22.29,0,0,1-5.67-7.15A33.3,33.3,0,0,1,19,53.86a32.93,32.93,0,0,1,6.35-17,21.67,21.67,0,0,1,6.91-6A15.85,15.85,0,0,1,41.11,29a16.08,16.08,0,0,1,8.36,3.59,22.3,22.3,0,0,1,5.67,7.16,33.37,33.37,0,0,1,3.21,17.87,33,33,0,0,1-6.37,17,21.59,21.59,0,0,1-6.91,5.95A15.75,15.75,0,0,1,36.19,82.42Z"/>
        </g>
        <ellipse class="f9e575b4-ee09-4354-8ffd-f7137bb93b2f" cx="28.71" cy="55.83" rx="12.04" ry="8.94" transform="translate(-30.89 75.58) rotate(-81.12)"/>
        <ellipse class="f452427a-bc07-4183-a47a-5680f9e45289" cx="23.77" cy="50.87" rx="3.3" ry="2.45" transform="translate(-30.16 66.51) rotate(-81.12)"/>
      </g>
      <path class="f9e575b4-ee09-4354-8ffd-f7137bb93b2f" d="M45.65,15.81S36.56,16,25.34,25.93C25.34,25.93,41.89.07,45.65,15.81Z"/>
      <path class="f9e575b4-ee09-4354-8ffd-f7137bb93b2f" d="M81.58,8.63s10-1.25,24.09,6.67C105.67,15.3,82.61-7.51,81.58,8.63Z"/>
    </g>
    <path class="a366ebae-df85-4d0e-9405-ec7c307f7d40" d="M56.11,66.13S37.51,39.71,19.38,55.75c-.05-12.14,10.08-27.8,22-25.67C55.09,32.1,61.28,50.87,56.11,66.13Z"/>
    <path class="a366ebae-df85-4d0e-9405-ec7c307f7d40" d="M77.35,56.94s8.8-17.81,42.33,3C121.4,48.32,115.8,31.3,102,25.47,94.66,21.89,74.54,27.51,77.35,56.94Z"/>
  </g>
</svg>
