<svg id="ebeef54d-ffb9-4ebd-b090-18724061d4e7" data-name="Layer 1" xmlns="http://www.w3.org/2000/svg" width="84.35" height="60.71" viewBox="0 0 84.35 60.71">
  <defs>
    <style>
      .b46c14ae-ef15-476e-b992-362a5b6b086e, .e7b7afe0-10ae-4652-bc3d-3fbc86932a76 {
        fill: #fff;
      }

      .b46c14ae-ef15-476e-b992-362a5b6b086e {
        stroke: #702840;
      }

      .b46c14ae-ef15-476e-b992-362a5b6b086e, .e053b09f-cd7f-4025-9fa2-ff3a95737df5 {
        stroke-miterlimit: 10;
        stroke-width: 0.75px;
      }

      .a478a503-95f3-4a94-8e0e-1b96048571bb {
        fill: #210a11;
      }

      .e053b09f-cd7f-4025-9fa2-ff3a95737df5 {
        fill: #ffe309;
        stroke: #665608;
      }
    </style>
  </defs>
  <g>
    <g>
      <g>
        <path class="b46c14ae-ef15-476e-b992-362a5b6b086e" d="M38.65,38c-1,10.33-8,18.17-15.58,17.52S10.06,46,11,35.64a24.19,24.19,0,0,1,2.76-9.23c2.92-5.37,7.73-8.73,12.83-8.29C32.7,18.65,37.36,24.4,38.5,32A24.86,24.86,0,0,1,38.65,38Z"/>
        <ellipse class="a478a503-95f3-4a94-8e0e-1b96048571bb" cx="21.02" cy="33.83" rx="8.46" ry="6.28" transform="translate(-13.46 53.76) rotate(-88.18)"/>
        <ellipse class="e7b7afe0-10ae-4652-bc3d-3fbc86932a76" cx="25.51" cy="31.69" rx="2.32" ry="1.72" transform="translate(-6.97 56.19) rotate(-88.18)"/>
      </g>
      <g>
        <path class="b46c14ae-ef15-476e-b992-362a5b6b086e" d="M65.25,54.19c-6.9.94-13.45-5.89-14.64-15.25a21.57,21.57,0,0,1,.8-9.37c1.61-5,5.11-8.68,9.53-9.28,6-.82,11.72,4.22,13.9,11.69a23.37,23.37,0,0,1,.74,3.56C76.77,44.9,72.15,53.25,65.25,54.19Z"/>
        <ellipse class="a478a503-95f3-4a94-8e0e-1b96048571bb" cx="59.5" cy="36.07" rx="5.71" ry="7.7" transform="translate(-5.73 11.86) rotate(-10.86)"/>
        <ellipse class="e7b7afe0-10ae-4652-bc3d-3fbc86932a76" cx="63.21" cy="33.93" rx="1.57" ry="2.11" transform="translate(-5.26 12.52) rotate(-10.86)"/>
      </g>
      <path class="a478a503-95f3-4a94-8e0e-1b96048571bb" d="M57.73,11.89s5.82-.06,13.2,6C70.93,17.91,59.79,1.75,57.73,11.89Z"/>
      <path class="a478a503-95f3-4a94-8e0e-1b96048571bb" d="M34.63,8.1s-6.38-.58-15.24,4.79C19.39,12.89,33.62-2.19,34.63,8.1Z"/>
    </g>
    <path class="e053b09f-cd7f-4025-9fa2-ff3a95737df5" d="M38.5,32a35.71,35.71,0,0,0-14-5.24,42.75,42.75,0,0,0-6.14-.48,39.85,39.85,0,0,0-4.58.18c2.92-5.37,7.73-8.73,12.83-8.29C32.7,18.65,37.36,24.4,38.5,32Z"/>
    <path class="e053b09f-cd7f-4025-9fa2-ff3a95737df5" d="M74.84,32a45,45,0,0,0-14.41-3.26q-1.66-.07-3.12,0a28.22,28.22,0,0,0-5.9.85c1.61-5,5.11-8.68,9.53-9.28C66.93,19.47,72.66,24.51,74.84,32Z"/>
  </g>
</svg>
