<svg id="ef58d73c-615a-47ba-81a1-21b946a048f2" data-name="Layer 1" xmlns="http://www.w3.org/2000/svg" width="417.18" height="451.06" viewBox="0 0 417.18 451.06">
  <defs>
    <style>
      .a7fab4c0-600e-44fe-87d8-b2ca0cdf9681, .b778bc95-b12c-4151-8f97-ab696d0acaa2 {
        fill: #ffe309;
      }

      .b778bc95-b12c-4151-8f97-ab696d0acaa2, .ecc1e6c6-eb0a-4817-bce4-0b9c79350f6a {
        stroke: #665608;
      }

      .a0fe25ab-de7d-4e8c-8768-cb12605e2d98, .a7fab4c0-600e-44fe-87d8-b2ca0cdf9681, .b778bc95-b12c-4151-8f97-ab696d0acaa2, .ecc1e6c6-eb0a-4817-bce4-0b9c79350f6a {
        stroke-miterlimit: 10;
      }

      .a7fab4c0-600e-44fe-87d8-b2ca0cdf9681, .b778bc95-b12c-4151-8f97-ab696d0acaa2, .ecc1e6c6-eb0a-4817-bce4-0b9c79350f6a {
        stroke-width: 0.75px;
      }

      .a7fab4c0-600e-44fe-87d8-b2ca0cdf9681 {
        stroke: #493c05;
      }

      .a58d3cfc-9f84-4b74-a9e2-b97f0a075bd7 {
        fill: #ecc516;
      }

      .a0fe25ab-de7d-4e8c-8768-cb12605e2d98 {
        fill: #532900;
        stroke: #3a1c03;
      }

      .a1e490ef-26e5-4e3a-ba55-05490adb1b67 {
        fill: #681a1a;
      }

      .bb49962b-5bb3-44d5-91fa-5945c48264b1 {
        fill: #ef7089;
      }

      .acb54e8b-6986-42b6-9a82-b387323c0879 {
        fill: #ff5763;
      }

      .e26a5aa6-2c26-4d68-b305-511a7577a80b {
        fill: #fff;
      }

      .a65f523f-0761-46ee-af3a-a6f3292932a3 {
        fill: #ef304c;
      }

      .f550a6cf-e8cc-48dd-a39f-d93cd5088d63 {
        fill: #ffa979;
      }

      .ecc1e6c6-eb0a-4817-bce4-0b9c79350f6a {
        fill: none;
      }
    </style>
  </defs>
  <g>
    <g>
      <g>
        <path class="b778bc95-b12c-4151-8f97-ab696d0acaa2" d="M108.42,323.06s.48,12.68-13.63,12.09-24-6.5-27.72,7-6.52,28.45,7,32.19S90,358.64,100.39,361.79s30.6,3.67,34-20.9S108.42,323.06,108.42,323.06Z"/>
        <g>
          <path class="b778bc95-b12c-4151-8f97-ab696d0acaa2" d="M235.92,269.51s-7.2,7.28,9.24,55.79c0,0,6.21,19.9,13.28,29.51s12.21,29,8.5,36-12.47,10.9-13.4-1.86l4.37-13.13s1.94,14.94-15.05,13.86S247.74,371,247.74,371l-12.39,10.33s-12.82-5.63,3.63-21.47c0,0-8.92-2.15-23.91-32.52s-18.17-65.85-18.17-65.85Z"/>
          <path class="a7fab4c0-600e-44fe-87d8-b2ca0cdf9681" d="M271,312.46c-11.82,15.11-24.63,26.45-38.91,33.86a91.66,91.66,0,0,1-33.66,9.92l0,0a116.28,116.28,0,0,1-27.18-.66c-1.7-.22-3.41-.49-5.09-.82a123.43,123.43,0,0,1-35.33-12.19c-22-11.45-38.73-27.87-50.39-41.48-2.8-3.24-5.28-6.35-7.48-9.13-16.56-21.06-33.66-26.5-33.66-26.5,14.66-2.28,25.81-14.32,38.37-26.91,11.41-11.52,24-23.52,41.43-29,.9-.29,1.8-.58,2.75-.83a80.73,80.73,0,0,1,17-2.6,108.6,108.6,0,0,1,26,2,7,7,0,0,1,.69.14A146,146,0,0,1,188.91,215a117,117,0,0,1,13.34,5.82c26.83,14.56,44.57-1.39,44.57-1.39l37.77,73.42A213.68,213.68,0,0,1,271,312.46Z"/>
          <path class="a58d3cfc-9f84-4b74-a9e2-b97f0a075bd7" d="M271.61,308.9c-13.92-2.79-27.82-10.13-43.37-20.81C196,266,177.88,235.79,186.09,218.92a116,116,0,0,1,20,5.15,89.29,89.29,0,0,1,11.37,4.74c22.77,12.06,38.78-2.91,38.78-2.91l30.08,64.48C282.25,296.93,275.88,303.4,271.61,308.9Z"/>
          <path class="a0fe25ab-de7d-4e8c-8768-cb12605e2d98" d="M82,301c-2.8-3.24-6.8-6.32-9-9.1-16.56-21.06-33.66-26.5-33.66-26.5C54,263.16,67,250.16,79.52,237.57,73.55,249.33,66.59,272.93,82,301Z"/>
          <path class="a0fe25ab-de7d-4e8c-8768-cb12605e2d98" d="M232.13,346.32a91.66,91.66,0,0,1-33.66,9.92l0,0C185.7,347.48,164.21,326.71,153,282c-6.89-27.51.69-53.19,11.93-73.82a147.33,147.33,0,0,1,24,6.85c-8.66,16.38-18.16,44.79-4.59,76.38C197.61,322.33,218.45,338.54,232.13,346.32Z"/>
          <path class="a0fe25ab-de7d-4e8c-8768-cb12605e2d98" d="M166.17,354.74a123.43,123.43,0,0,1-35.33-12.19c-13.2-12.32-29.65-32.39-33.49-58.59-4.75-32,7.8-56,21.76-74.39.9-.29,1.8-.58,2.75-.83a80.73,80.73,0,0,1,17-2.6c-9.76,15.05-22.94,42.57-14.58,73.11C134.19,315.36,156.92,344.11,166.17,354.74Z"/>
          <g>
            <path class="b778bc95-b12c-4151-8f97-ab696d0acaa2" d="M256.62,132.81s-18.74-4.08-32.92-46.08,16-82.42,38-80,18.43,20.83-4.05,30.65-32,60.11,5.67,91.31C263.36,128.67,283.18,154,256.62,132.81Z"/>
            <path class="b778bc95-b12c-4151-8f97-ab696d0acaa2" d="M314.64,140.94s2.65-35.1,14.65-56,46-65.38,76.55-47c0,0,8.13,8.93,2.2,16.55S392.91,62.74,385.48,56,322.43,77.5,323.26,141C323.26,141,318.1,157.38,314.64,140.94Z"/>
            <g>
              <path class="b778bc95-b12c-4151-8f97-ab696d0acaa2" d="M380.08,270.36c-8.85,41.35-49.6,57.47-94.26,56.9,0,0-.11,0-.14,0a202.6,202.6,0,0,1-44.18-5.65c-58.71-14.05-81.77-52.22-64.31-110.88,13.11-44.1,48.54-81.29,93.22-85.61a93.65,93.65,0,0,1,30.84,2.25C360,141.44,393.2,209.12,380.08,270.36Z"/>
              <path class="a58d3cfc-9f84-4b74-a9e2-b97f0a075bd7" d="M289.39,326.35a203.87,203.87,0,0,1-44.17-5.69c-58.71-14.05-81.83-51.93-64.5-110,13-43.7,48.34-80.5,93-84.69-21,8.5-62,32-74.23,88.55C183.64,288,238.9,321,289.39,326.35Z"/>
              <g>
                <g>
                  <g>
                    <g>
                      <path class="a1e490ef-26e5-4e3a-ba55-05490adb1b67" d="M336.91,269.28s-4.68,19.55-17.61,32a35.46,35.46,0,0,1-12.21,8c-17.57,6.72-36.81,1.35-46.23-19.55-.24-.44-.41-.9-.61-1.37a69.77,69.77,0,0,1-4.71-18.83s34.66,13.43,68.85,4.23A79.15,79.15,0,0,0,336.91,269.28Z"/>
                      <path class="bb49962b-5bb3-44d5-91fa-5945c48264b1" d="M336.94,269.24a59,59,0,0,1-1.89,6.51c-.75,2.12-1.54,4.22-2.45,6.28a73.1,73.1,0,0,1-6.43,11.86,51.33,51.33,0,0,1-9,10.12,34.36,34.36,0,0,1-11.88,6.63,38.91,38.91,0,0,1-13.46,2.11,33.34,33.34,0,0,1-24.32-11.2,44.75,44.75,0,0,1-7.45-11.45l0,.06a49.18,49.18,0,0,1-2-5q-.85-2.52-1.5-5.09a78.62,78.62,0,0,1-1.88-10.43l-.15-1.34,1.28.47a126.86,126.86,0,0,0,20,5.3,131.44,131.44,0,0,0,20.56,2.26A108.12,108.12,0,0,0,317,275c.86-.09,1.7-.3,2.55-.47l2.54-.54c1.69-.35,3.38-.74,5-1.23A86.65,86.65,0,0,0,336.94,269.24Zm-.06.08A70.79,70.79,0,0,1,327.2,273c-1.66.53-3.34.95-5,1.32l-2.54.58c-.85.19-1.69.41-2.55.52l-5.14.8c-1.73.2-3.46.33-5.19.49s-3.47.17-5.2.25c-.87,0-1.73.07-2.6.07l-2.6-.05a130.61,130.61,0,0,1-20.7-2.09,128.2,128.2,0,0,1-20.13-5.28l.12-.1a78.05,78.05,0,0,0,1.88,10.3,58.74,58.74,0,0,0,3.44,9.86h0a44.88,44.88,0,0,0,7.26,11.22,32.47,32.47,0,0,0,23.63,11,39,39,0,0,0,13.2-2,33.31,33.31,0,0,0,11.69-6.39,50.76,50.76,0,0,0,9-9.91,73,73,0,0,0,6.58-11.69A85.78,85.78,0,0,0,336.88,269.32Z"/>
                    </g>
                    <path class="acb54e8b-6986-42b6-9a82-b387323c0879" d="M291.33,289.61C306,291.46,316.62,302.42,308,309.1a17.84,17.84,0,0,1-8.15,3.09c-30.53-1.23-37.44-17-36.34-27,3.75-.83,7.95.63,18.56,3.85A73.45,73.45,0,0,1,291.33,289.61Z"/>
                    <path class="a1e490ef-26e5-4e3a-ba55-05490adb1b67" d="M280.69,286.45s9.87,8.29,8.68,21.94c0,0-2.24-14.17-13.3-22.45Z"/>
                    <path class="e26a5aa6-2c26-4d68-b305-511a7577a80b" d="M300.17,295.16a71.25,71.25,0,0,1-18.82.3,28.77,28.77,0,0,1-25.13-24.78l0-.22s33.71,13.59,67.89,4.38C324.35,283.64,319.78,292.28,300.17,295.16Z"/>
                  </g>
                  <path class="a65f523f-0761-46ee-af3a-a6f3292932a3" d="M252.7,257.6a12.38,12.38,0,0,1,.58,1.88,13,13,0,0,1,.23,2,9.85,9.85,0,0,1-.68,4,6.83,6.83,0,0,1-2.64,3.08,7.7,7.7,0,0,1-1.83.83,19,19,0,0,1-2,.35v-.05a9.44,9.44,0,0,0,3.56-1.45,6.53,6.53,0,0,0,2.41-3,9.9,9.9,0,0,0,.75-3.77,14.63,14.63,0,0,0-.46-3.84Z"/>
                  <path class="a65f523f-0761-46ee-af3a-a6f3292932a3" d="M342.2,273.85a9.49,9.49,0,0,1-2.81-1.84,11.36,11.36,0,0,1-2.1-2.67,9.78,9.78,0,0,1-1.08-3.23,9.6,9.6,0,0,1-.11-1.69,11.75,11.75,0,0,1,.22-1.67h0a12.38,12.38,0,0,0,.23,3.27,10.52,10.52,0,0,0,1.14,3.07,12.76,12.76,0,0,0,4.49,4.71Z"/>
                </g>
                <ellipse class="f550a6cf-e8cc-48dd-a39f-d93cd5088d63" cx="228.71" cy="250.94" rx="11.98" ry="17.08" transform="translate(-68.57 414.96) rotate(-76.54)"/>
                <ellipse class="f550a6cf-e8cc-48dd-a39f-d93cd5088d63" cx="364.26" cy="250.27" rx="17.08" ry="11.98" transform="translate(-38.6 68.54) rotate(-10.21)"/>
              </g>
            </g>
          </g>
          <path class="b778bc95-b12c-4151-8f97-ab696d0acaa2" d="M84,273.5a9.77,9.77,0,0,1,15,8.79c-.23,4.52-1.53,9.89-5.56,14.08-8.61,9-23.22,17.64-38.1,12.74s-21,7.21-25.69,14.49S9.76,330,10.21,312.4c0,0-.46-23.56,18.92-33.54,0,0,7.47-6.14,29.58,1C72.24,284.25,77.92,277.43,84,273.5Z"/>
        </g>
      </g>
      <path class="b778bc95-b12c-4151-8f97-ab696d0acaa2" d="M168.9,267.07s-35,30.54-6.21,55.89c16.91,14.9,25.05,23,31.49,24.42,9,1.94,18.74,21.26,16.4,28.05,0,0-4,14-10.62,5.29,0,0-12.7,16.45-31.54-9.07,0,0-.25-8.08,13-9.1,0,0-86.69-36.93-51.35-106.73C130.11,255.82,156.78,240.92,168.9,267.07Z"/>
      <path class="ecc1e6c6-eb0a-4817-bce4-0b9c79350f6a" d="M184.19,370.59s11.22.41-8.2-11.53"/>
    </g>
    <line class="b778bc95-b12c-4151-8f97-ab696d0acaa2" x1="199.96" y1="380.72" x2="203.92" y2="372.99"/>
  </g>
</svg>
