<svg id="fbc451af-c65d-40b7-bc2c-57ee8696138c" data-name="Layer 1" xmlns="http://www.w3.org/2000/svg" width="63.35" height="25.22" viewBox="0 0 63.35 25.22">
  <defs>
    <style>
      .ae66c18c-f4f6-4ac2-b11e-1506920083cb {
        fill: #fcfae6;
        stroke: #424015;
      }

      .ab52edb6-87ac-4f01-8eaf-9d7a1d84a542, .ae66c18c-f4f6-4ac2-b11e-1506920083cb, .b43cf52c-2280-40e7-9f6a-c491240a2ed7 {
        stroke-miterlimit: 10;
        stroke-width: 0.5px;
      }

      .b8814735-9fc2-41cc-aa36-43094fd6d371 {
        fill: #efebbd;
      }

      .b0c143d6-d0d9-473a-9b90-d3e96f93df90 {
        fill: #e27300;
      }

      .b11cb2e2-6da7-415c-9f95-5f2702f146f0 {
        fill: #fff;
      }

      .ab52edb6-87ac-4f01-8eaf-9d7a1d84a542 {
        fill: #50ca0a;
      }

      .ab52edb6-87ac-4f01-8eaf-9d7a1d84a542, .b43cf52c-2280-40e7-9f6a-c491240a2ed7 {
        stroke: #33560a;
      }

      .edcf6158-eb4f-44d1-97ca-4e99e3464b01 {
        fill: #2e6300;
      }

      .e33b5ea5-272e-4980-8227-2ea0846c4070 {
        fill: #71dd2a;
      }

      .b43cf52c-2280-40e7-9f6a-c491240a2ed7 {
        fill: #2f7006;
      }
    </style>
  </defs>
  <g>
    <g>
      <g>
        <g>
          <ellipse class="ae66c18c-f4f6-4ac2-b11e-1506920083cb" cx="9.82" cy="12.63" rx="9.34" ry="10.05" transform="translate(-2.7 2.67) rotate(-13.62)"/>
          <path class="b8814735-9fc2-41cc-aa36-43094fd6d371" d="M12.09,16.94s5.17.93,6.91-2.54a9.9,9.9,0,0,1-2,4.92,9.12,9.12,0,0,1-8.21,3.16A5.68,5.68,0,0,1,4.2,18.29S9.7,15.78,12.09,16.94Z"/>
          <path class="b0c143d6-d0d9-473a-9b90-d3e96f93df90" d="M.63,11.12s5.38-4.64,9.84.13c5,5.38-1.66,11.24-1.66,11.24a8.35,8.35,0,0,1-5.26-3C1.34,16.81.16,13.78.63,11.12Z"/>
          <path d="M.55,11.69s5.2-4.09,9.1.24c4.64,5.15-1.58,10.42-1.58,10.42a9.24,9.24,0,0,1-4.89-3A10.54,10.54,0,0,1,.55,11.69Z"/>
          <path class="b11cb2e2-6da7-415c-9f95-5f2702f146f0" d="M12.05,15.85a1.17,1.17,0,0,1-1.6-.52,1.24,1.24,0,0,1,.48-1.66,1.17,1.17,0,0,1,1.6.52A1.24,1.24,0,0,1,12.05,15.85Z"/>
        </g>
        <g>
          <path class="ab52edb6-87ac-4f01-8eaf-9d7a1d84a542" d="M7,24s5.63-4.44,10.83,0"/>
          <path class="edcf6158-eb4f-44d1-97ca-4e99e3464b01" d="M7,24a5.44,5.44,0,0,1,2-1.32,8.66,8.66,0,0,1,7.17,0A4.42,4.42,0,0,1,17.71,24C12.6,19.89,7,24,7,24Z"/>
          <path class="e33b5ea5-272e-4980-8227-2ea0846c4070" d="M15.13,23.39c0-.43-1-.82-2.37-.89s-2.41.23-2.43.66,1,.82,2.37.89S15.12,23.82,15.13,23.39Z"/>
        </g>
      </g>
      <g>
        <g>
          <ellipse class="ae66c18c-f4f6-4ac2-b11e-1506920083cb" cx="51.06" cy="11.11" rx="10.4" ry="10.93" transform="translate(1.29 27.02) rotate(-30)"/>
          <path class="b8814735-9fc2-41cc-aa36-43094fd6d371" d="M54.28,15.34s5.86.11,7.2-3.91a10.55,10.55,0,0,1-1.41,5.62,10.33,10.33,0,0,1-8.53,4.81,6.27,6.27,0,0,1-5.74-3.71S51.45,14.5,54.28,15.34Z"/>
          <path class="b0c143d6-d0d9-473a-9b90-d3e96f93df90" d="M40.64,11.11s5.18-5.94,10.9-1.6c6.46,4.91.05,12.35.05,12.35a9.42,9.42,0,0,1-6.31-2.34C42.41,17.06,40.76,14.31,40.64,11.11Z"/>
          <path d="M40.68,11.7s5-5.29,10.08-1.31c6,4.72,0,11.44,0,11.44a10.41,10.41,0,0,1-5.93-2.39A11.24,11.24,0,0,1,40.68,11.7Z"/>
          <path class="b11cb2e2-6da7-415c-9f95-5f2702f146f0" d="M54.06,14.18a1.33,1.33,0,0,1-1.86-.28,1.32,1.32,0,1,1,2.11-1.58A1.32,1.32,0,0,1,54.06,14.18Z"/>
        </g>
        <g>
          <path class="ab52edb6-87ac-4f01-8eaf-9d7a1d84a542" d="M50.08,24.92s3.5-6.06,12.82-4.69"/>
          <path class="edcf6158-eb4f-44d1-97ca-4e99e3464b01" d="M50.08,24.92a4,4,0,0,1,1.18-1.73c1.6-1.48,4.7-3.45,9.86-3.33a4,4,0,0,1,1.78.37C53.49,19.22,50.11,24.86,50.08,24.92Z"/>
          <path class="e33b5ea5-272e-4980-8227-2ea0846c4070" d="M59.65,21.07c-.16-.53-2-.37-4,.37s-3.59,1.77-3.42,2.3,2,.37,4-.36S59.82,21.61,59.65,21.07Z"/>
        </g>
      </g>
    </g>
    <path class="b43cf52c-2280-40e7-9f6a-c491240a2ed7" d="M1.12,8.59s10.68-4.28,18,3.18c0,0-1.91-11-12-8.74a7.47,7.47,0,0,0-2,.8C3.68,4.62,1.55,6.18,1.12,8.59Z"/>
    <path class="b43cf52c-2280-40e7-9f6a-c491240a2ed7" d="M42.22,4.85S54.16,3,61.32,9.09c0,0-1.53-6.34-7.8-8.17A10.56,10.56,0,0,0,44.7,2.21,7.33,7.33,0,0,0,42.22,4.85Z"/>
  </g>
</svg>
