<svg id="b09766de-44e9-4109-aa83-05c0e1446d9f" data-name="Layer 1" xmlns="http://www.w3.org/2000/svg" width="256" height="256" viewBox="0 0 256 256">
  <defs>
    <style>
      .a01ed026-b0cf-48cc-82d0-8f8ea95e8fb2 {
        opacity: 0.25;
      }

      .e035c773-49e8-4464-8da3-1c115d6881c8 {
        fill: #f3c63c;
        stroke: #af841b;
      }

      .a802f46d-f96b-4639-a928-daf24b7ff937, .e035c773-49e8-4464-8da3-1c115d6881c8 {
        stroke-miterlimit: 10;
      }

      .a7cae96f-62f9-40fc-9034-d4c66a355461, .a802f46d-f96b-4639-a928-daf24b7ff937 {
        fill: #fae599;
      }

      .a802f46d-f96b-4639-a928-daf24b7ff937 {
        stroke: #8e7717;
      }

      .b4d07be2-84c5-4208-b08d-fd0a1b7a0347 {
        fill: #e5bb45;
        opacity: 0.5;
      }

      .aa838499-29f0-4561-9dbe-0a499ae4d5a4 {
        fill: #8e7717;
      }

      .a8a3b2aa-ec43-451f-9a98-5f0c822a0f46 {
        fill: #872b23;
      }

      .e2b91c08-8f8d-4bcb-bad7-f901a6bb6066 {
        fill: #ee383f;
      }
    </style>
  </defs>
  <g>
    <g>
      <path class="e035c773-49e8-4464-8da3-1c115d6881c8" d="M64.73,168.33c-11.17-8.13-18.22-24.68-18.31-39h0c-5.5,10.83-11,21.65-9.54,33.54,0-3.57-1.43-7.12-1.45-10.7-2.76,4.83-4.13,7.23-5.49,13.21l0-3.57c-1.34,8.37,2.88,15.44,8.49,22.48h0c5.51-7.25,12.43-13.34,22.15-15.9Z"/>
      <path class="a802f46d-f96b-4639-a928-daf24b7ff937" d="M41.88,171.13c6.82-5.19,15.56-8.62,24.39-10.26,15.11-2.81,30.82-1.75,45.17-7.76s19.54-18,22.92-30.47c-.63-.2-1.26-.38-1.9-.59-11.26-3.51-22-8.32-30.56-15.51-5.51-4.62-11.69-10-12.49-16.94-.77-6.53,6.39-8.22,9.92-13.23a62.65,62.65,0,0,0,5.48-10.23c4.1-8.92,5.16-19.56,11.62-27.48,7.7-9.44,20.39-15.83,33.5-17.71,10.75-1.54,22.31-.11,32.49,2.86C195.92,27.75,202,34.3,209,44.88c5.12,7.77,6.21,16.47,7.48,25.22.95,6.51,2.64,14.68,6,20.6,1.89,3.34,3.53,4.3,1.75,8-1.5,3.07-4.3,5.89-7,8.29-5.89,5.31-13.33,9.15-21,12.31a105,105,0,0,1-23.07,6.91c-.62,10.47,4.28,19.58,5.44,30.14,2.59,25.87-6.6,58.51-36.08,71.87-29.13,13.35-65.46,10.86-89.57-6.27-7.76-5.49-17-15.66-20.41-24.12C29,188.85,33.71,177.35,41.88,171.13Z"/>
      <path class="b4d07be2-84c5-4208-b08d-fd0a1b7a0347" d="M140.89,216.07c-29.13,13.36-65.46,10.86-89.57-6.27-7.2-5.1-15.7-14.23-19.59-22.29a18.7,18.7,0,0,0,.86,10.29C36,206.26,45.24,216.43,53,221.92c24.1,17.13,60.43,19.62,89.57,6.27,29.47-13.36,38.67-46,36.08-71.87a59.2,59.2,0,0,0-1.33-7.28C178.36,174,168.56,203.53,140.89,216.07Z"/>
      <g>
        <path class="a7cae96f-62f9-40fc-9034-d4c66a355461" d="M168.79,21.4c9-6.25,21.66-4.12,29.88-12.38.82,4.71-4.28,8.52-8.61,11a37.39,37.39,0,0,0,6.7-1.81c-.39,2.37-3.53,4.12-6.28,5.52a14.63,14.63,0,0,0,6.7-.8c-7,14-19.3,3.4-30.73,3.28Z"/>
        <path class="aa838499-29f0-4561-9dbe-0a499ae4d5a4" d="M168.79,21.4a26.05,26.05,0,0,1,7.34-3.58c2.6-.85,5.27-1.48,7.91-2.14a49,49,0,0,0,7.72-2.49,21.32,21.32,0,0,0,6.61-4.47l.58-.58.14.81a6.55,6.55,0,0,1-.53,3.86,11.22,11.22,0,0,1-2.21,3.13,27.33,27.33,0,0,1-6,4.46l-.31-.89a37.56,37.56,0,0,0,6.6-1.81l.8-.29-.14.84a4.56,4.56,0,0,1-1.07,2.15,9.24,9.24,0,0,1-1.69,1.51,27.82,27.82,0,0,1-3.79,2.2l-.16-.89a14.36,14.36,0,0,0,6.49-.75l1.07-.38-.52,1a13.57,13.57,0,0,1-5.89,6.37,10.84,10.84,0,0,1-4.29,1,19.62,19.62,0,0,1-4.33-.4c-2.83-.55-5.54-1.46-8.28-2.23a33.48,33.48,0,0,0-8.34-1.57h-.17l.08-.15Zm0,0-2.24,4.82-.1-.16a34.14,34.14,0,0,1,8.47,1.31c2.77.72,5.49,1.57,8.27,2.05a18.4,18.4,0,0,0,4.18.3,10.08,10.08,0,0,0,3.95-1,12.86,12.86,0,0,0,5.46-6l.55.63a15.11,15.11,0,0,1-6.9.84L188.89,24l1.38-.71a28,28,0,0,0,3.65-2.15,5.35,5.35,0,0,0,2.35-3l.66.55a38.39,38.39,0,0,1-6.79,1.81l-2.61.42,2.3-1.3a26.48,26.48,0,0,0,5.87-4.26,10.26,10.26,0,0,0,2.06-2.86,5.65,5.65,0,0,0,.49-3.36l.72.23A21.46,21.46,0,0,1,192,13.84a48.88,48.88,0,0,1-7.88,2.37c-2.65.62-5.33,1.14-7.94,1.91A27.12,27.12,0,0,0,168.79,21.4Z"/>
      </g>
      <g>
        <path class="a8a3b2aa-ec43-451f-9a98-5f0c822a0f46" d="M175.27,97l45.61-3.89s-1.52,8.25-20.39,11.16S175.27,97,175.27,97Z"/>
        <path class="e2b91c08-8f8d-4bcb-bad7-f901a6bb6066" d="M173.23,95.66c-1.55-4,5.36-3.06,14-6.14,6.32-2.24,5.31-6.25,11.71-7,7.26-.8,7.34,8.45,20.68,6.82s5.37,6.28-11.86,11C195.89,103.57,180.34,101.12,173.23,95.66Z"/>
        <path class="a8a3b2aa-ec43-451f-9a98-5f0c822a0f46" d="M193.89,88.89s1.06-4.64,3.16-3.17S193.89,88.89,193.89,88.89Z"/>
      </g>
      <g>
        <path class="a8a3b2aa-ec43-451f-9a98-5f0c822a0f46" d="M176.77,44.11c2.1.6,1.55,2.13.44,3.22,0,0-8.62,1-12.22,7.54C164.2,49.77,171.13,42.5,176.77,44.11Z"/>
        <path class="a8a3b2aa-ec43-451f-9a98-5f0c822a0f46" d="M198.8,42.09c-1.25.85-.6,1.87.34,2.45,0,0,5.84-1,9.49,3.17C208.15,43.79,202.18,39.79,198.8,42.09Z"/>
      </g>
      <path class="b4d07be2-84c5-4208-b08d-fd0a1b7a0347" d="M135,122.29s11.89,6,38.11,3.2c0,0-14.75,15.25-42,8.82Z"/>
    </g>
    <path class="e035c773-49e8-4464-8da3-1c115d6881c8" d="M62.24,139.55c-10.91-.08-13.35-12.69-15.1-16-.53,13.66,5.8,25.23,15.25,33.73a46,46,0,0,0,39,10.82c5.24-1,10.3-2.92,14.65-8.35,4.51-5.64,6.5-10.87,9.83-16.4,3-5,3-5,3-9.3,0,0-23.55,15-46.92,6-10-3.83-30.49-22.46-30.49-22.46l1.62,8.41A126.05,126.05,0,0,0,62.24,139.55Z"/>
  </g>
</svg>
