<svg id="f3b502e1-2c36-491e-acee-95757909711c" data-name="Layer 1" xmlns="http://www.w3.org/2000/svg" width="71" height="54" viewBox="0 0 71 54">
  <defs>
    <style>
      .b95b565c-20f5-4fd6-af81-a7aa437d2894 {
        fill: #fff;
      }

      .b9f75373-c329-4550-8f20-0c244da86dd8 {
        fill: #702840;
      }

      .a8733afc-e1b0-42e2-8136-b392cd3f09f7 {
        fill: #210a11;
      }

      .aae539de-821f-42fb-8ccf-ce9fc0079714 {
        fill: #ecc516;
      }

      .f4dda7c7-27a9-4265-9618-a5b4cfe76cd7 {
        fill: #7f3d00;
      }
    </style>
  </defs>
  <g>
    <g>
      <g>
        <ellipse class="b95b565c-20f5-4fd6-af81-a7aa437d2894" cx="24.06" cy="34.77" rx="10.08" ry="13.68" transform="translate(-3.18 2.43) rotate(-5.42)"/>
        <path class="b9f75373-c329-4550-8f20-0c244da86dd8" d="M25.5,48.42a8.12,8.12,0,0,1-4.59-.83,11.23,11.23,0,0,1-3.65-3,17.91,17.91,0,0,1-2.4-18.21,12,12,0,0,1,3-4,9,9,0,0,1,4.66-2.13,8.94,8.94,0,0,1,5,1,11.93,11.93,0,0,1,3.79,3.26,17.18,17.18,0,0,1,3.22,9.06,17.54,17.54,0,0,1-1.83,9.25,11.47,11.47,0,0,1-2.93,3.7A8.23,8.23,0,0,1,25.5,48.42Zm0-.1a8.11,8.11,0,0,0,4.2-1.87,11.38,11.38,0,0,0,2.82-3.67,17,17,0,0,0,1.5-9.1,16.83,16.83,0,0,0-3.36-8.58,11,11,0,0,0-3.54-3,7.91,7.91,0,0,0-4.48-.87,8,8,0,0,0-4.17,1.85,11.26,11.26,0,0,0-2.83,3.66,17.39,17.39,0,0,0,1.82,17.68,11,11,0,0,0,3.54,3A8,8,0,0,0,25.49,48.32Z"/>
      </g>
      <ellipse class="a8733afc-e1b0-42e2-8136-b392cd3f09f7" cx="25.31" cy="36.35" rx="4.57" ry="6.16" transform="translate(-5.74 4.76) rotate(-9.65)"/>
      <ellipse class="b95b565c-20f5-4fd6-af81-a7aa437d2894" cx="27.46" cy="31.95" rx="1.25" ry="1.69" transform="translate(-4.97 5.06) rotate(-9.65)"/>
      <g>
        <ellipse class="aae539de-821f-42fb-8ccf-ce9fc0079714" cx="24.06" cy="34.77" rx="10.08" ry="13.68" transform="translate(-3.18 2.43) rotate(-5.42)"/>
        <path class="f4dda7c7-27a9-4265-9618-a5b4cfe76cd7" d="M25.5,48.38a8,8,0,0,1-4.56-.86,11.11,11.11,0,0,1-3.59-3,16.86,16.86,0,0,1-3.43-8.66,17.13,17.13,0,0,1,1.48-9.22,11.6,11.6,0,0,1,2.87-3.76A8.33,8.33,0,0,1,22.6,21a8.24,8.24,0,0,1,4.65.93,11.19,11.19,0,0,1,3.6,3.06,17.57,17.57,0,0,1,1.77,17.9,11.32,11.32,0,0,1-2.87,3.68A8.13,8.13,0,0,1,25.5,48.38Zm0,0a8.16,8.16,0,0,0,4.22-1.88,11.37,11.37,0,0,0,2.84-3.68,17,17,0,0,0,1.51-9.12,16.79,16.79,0,0,0-3.36-8.62,11,11,0,0,0-3.55-3,7.68,7.68,0,0,0-8.74,1,11.37,11.37,0,0,0-2.84,3.68,17,17,0,0,0-1.52,9.12,16.83,16.83,0,0,0,3.36,8.62,11,11,0,0,0,3.56,3A8,8,0,0,0,25.49,48.36Z"/>
      </g>
    </g>
    <g>
      <g>
        <ellipse class="b95b565c-20f5-4fd6-af81-a7aa437d2894" cx="51.4" cy="29.53" rx="9.17" ry="12.44" transform="translate(-6.63 17.43) rotate(-18.1)"/>
        <path class="b9f75373-c329-4550-8f20-0c244da86dd8" d="M55.41,41.36a7.5,7.5,0,0,1-4.25.18,10.22,10.22,0,0,1-3.84-1.92A16.3,16.3,0,0,1,41.5,23.91a10.85,10.85,0,0,1,1.87-4.16,8.23,8.23,0,0,1,3.74-2.85,8.13,8.13,0,0,1,4.71-.08,10.82,10.82,0,0,1,4,2.15,15.63,15.63,0,0,1,4.67,7.43,16,16,0,0,1,.2,8.6,10.39,10.39,0,0,1-1.87,3.87A7.5,7.5,0,0,1,55.41,41.36Zm0-.1a7.24,7.24,0,0,0,3.35-2.5,10.12,10.12,0,0,0,1.77-3.82A15.36,15.36,0,0,0,60,26.58a15.22,15.22,0,0,0-4.69-6.94,9.93,9.93,0,0,0-3.72-1.92,7.24,7.24,0,0,0-4.15.12,7.32,7.32,0,0,0-3.33,2.48,10,10,0,0,0-1.77,3.8,15.35,15.35,0,0,0,.46,8.36,15.21,15.21,0,0,0,4.67,7,10.07,10.07,0,0,0,3.73,1.93A7.22,7.22,0,0,0,55.37,41.26Z"/>
      </g>
      <ellipse class="a8733afc-e1b0-42e2-8136-b392cd3f09f7" cx="50.38" cy="31.45" rx="4.16" ry="5.6" transform="translate(-5.63 11.71) rotate(-12.56)"/>
      <ellipse class="b95b565c-20f5-4fd6-af81-a7aa437d2894" cx="51.83" cy="28.03" rx="1.14" ry="1.54" transform="translate(-4.85 11.94) rotate(-12.56)"/>
      <g>
        <ellipse class="aae539de-821f-42fb-8ccf-ce9fc0079714" cx="51.4" cy="29.53" rx="9.17" ry="12.44" transform="translate(-6.63 17.43) rotate(-18.1)"/>
        <path class="f4dda7c7-27a9-4265-9618-a5b4cfe76cd7" d="M55.4,41.32a7.4,7.4,0,0,1-4.22.15,10.25,10.25,0,0,1-3.79-1.93,15.47,15.47,0,0,1-4.78-7,15.59,15.59,0,0,1-.53-8.48,10.61,10.61,0,0,1,1.8-3.92,7.07,7.07,0,0,1,7.78-2.7,10.23,10.23,0,0,1,3.82,2A16,16,0,0,1,60.61,35a10.36,10.36,0,0,1-1.81,3.84A7.48,7.48,0,0,1,55.4,41.32Zm0,0a7.41,7.41,0,0,0,3.36-2.51A10.17,10.17,0,0,0,60.53,35a15.84,15.84,0,0,0-5.17-15.37,10,10,0,0,0-3.76-1.94,7.26,7.26,0,0,0-4.18.12,7.49,7.49,0,0,0-3.37,2.5,10.49,10.49,0,0,0-1.78,3.83,15.49,15.49,0,0,0,.47,8.4,15.25,15.25,0,0,0,4.7,7,10.12,10.12,0,0,0,3.75,2A7.41,7.41,0,0,0,55.39,41.3Z"/>
      </g>
    </g>
    <path class="a8733afc-e1b0-42e2-8136-b392cd3f09f7" d="M43.91,12.22s4.14-.88,10.28,2.38C54.19,14.6,43.91,4.69,43.91,12.22Z"/>
    <path class="a8733afc-e1b0-42e2-8136-b392cd3f09f7" d="M26.88,12.86s-4.64.51-10.18,5.63C16.7,18.49,24.67,5.67,26.88,12.86Z"/>
  </g>
</svg>
