<svg id="b08903ef-91ab-444e-b1ea-2e212f6e3632" data-name="Layer 1" xmlns="http://www.w3.org/2000/svg" width="87.23" height="63.4" viewBox="0 0 87.23 63.4">
  <defs>
    <style>
      .af76bc5d-827f-4431-a461-7ed6c4b9ac5c {
        fill: #fff;
      }

      .a5ee5c3a-3f52-4c4e-ba8f-bbfbaa08f66b, .a6431a52-66be-43b1-b860-5b147d7af68f, .af1bdf59-52f5-420a-8782-2f67a487c88d, .af76bc5d-827f-4431-a461-7ed6c4b9ac5c, .bcba36e6-1d33-4a26-a878-4c9b990c9c05, .bfbd167f-d1f8-4724-a1db-e98de27d0f1e {
        fill-rule: evenodd;
      }

      .bcba36e6-1d33-4a26-a878-4c9b990c9c05 {
        fill: #09a0ce;
      }

      .a6431a52-66be-43b1-b860-5b147d7af68f {
        fill: #151616;
      }

      .af1bdf59-52f5-420a-8782-2f67a487c88d {
        fill: #36ae4a;
      }

      .a46864ed-a0c0-4a2c-8fa0-48a9ea5c6b62 {
        fill: #1a8240;
      }

      .a5ee5c3a-3f52-4c4e-ba8f-bbfbaa08f66b {
        fill: #ec2024;
        stroke: #5d3111;
        stroke-width: 2px;
      }

      .a5ee5c3a-3f52-4c4e-ba8f-bbfbaa08f66b, .bfbd167f-d1f8-4724-a1db-e98de27d0f1e {
        stroke-miterlimit: 10;
      }

      .f60a611d-4d1c-4bd9-92d8-44188d8ea3fa {
        fill: #831618;
      }

      .b86ee16f-8617-4440-b108-4df30bdf46cd {
        fill: #f2787a;
      }

      .bfbd167f-d1f8-4724-a1db-e98de27d0f1e {
        fill: #1a7527;
        stroke: #1a8240;
        stroke-width: 0.75px;
      }
    </style>
  </defs>
  <g>
    <g>
      <g>
        <path class="af76bc5d-827f-4431-a461-7ed6c4b9ac5c" d="M64.52,3.25c-8.06-4.41-17.43-.67-21,8.39s.11,20,8.17,24.42,17.37.64,20.93-8.48S72.52,7.64,64.52,3.25Z"/>
        <path class="bcba36e6-1d33-4a26-a878-4c9b990c9c05" d="M55.51,9c-5.61,1.15-9.09,7.28-7.77,13.71s6.93,10.69,12.53,9.55,9.09-7.29,7.78-13.71S61.12,7.81,55.51,9Z"/>
        <path class="a6431a52-66be-43b1-b860-5b147d7af68f" d="M56.46,13.74c-3.28.67-5.33,4.28-4.55,8.1s4.08,6.28,7.36,5.61,5.38-4.3,4.61-8.06-4.08-6.34-7.42-5.65Z"/>
        <path class="af76bc5d-827f-4431-a461-7ed6c4b9ac5c" d="M51.93,21.81a2.44,2.44,0,0,0-1.75,3,2.32,2.32,0,1,0,4.49-.92,2.42,2.42,0,0,0-2.74-2.09Z"/>
      </g>
      <g>
        <g>
          <path class="af1bdf59-52f5-420a-8782-2f67a487c88d" d="M85.6,32.33A84.51,84.51,0,0,1,72.45,40.9,28.2,28.2,0,0,1,57.25,44c-3.18-.35-12.44-1.11-12.3-5.67.13-4.12,7.72-6.18,10.81-7.19A43.61,43.61,0,0,1,70.93,29a41,41,0,0,1,7.48,1C79.28,30.19,85.24,32.59,85.6,32.33Z"/>
          <g>
            <path class="af1bdf59-52f5-420a-8782-2f67a487c88d" d="M52.58,32.2a40.29,40.29,0,0,1,25.49-2.28"/>
            <path class="a46864ed-a0c0-4a2c-8fa0-48a9ea5c6b62" d="M52.58,32.2c6.71-3.74,14.86-4.56,22.33-3.11,1.07.23,2.12.53,3.16.83A54,54,0,0,0,52.58,32.2Z"/>
          </g>
        </g>
        <g>
          <path class="a5ee5c3a-3f52-4c4e-ba8f-bbfbaa08f66b" d="M40.17,41.14c-5.24,2.18-4.84,1.7-16.77,5.22C13.58,49.29,14.48,63.17,10,62.1A2.78,2.78,0,0,1,9.6,62a10.32,10.32,0,0,1-2.18-3c-2.1-3.56-5-9.68-5.54-14.78a39.61,39.61,0,0,1-.25-4.7c0-13.35,7-24.18,21.11-30.83,1.49-.71,3.07-1.37,4.72-2l.58.85c.55.8,1.09,1.61,1.61,2.43a118.56,118.56,0,0,1,6.09,10.6c2.1,4.09,5.66,9.33,10.35,9.72C62,31.64,44.15,39.48,40.17,41.14Z"/>
          <ellipse class="f60a611d-4d1c-4bd9-92d8-44188d8ea3fa" cx="24.36" cy="19.65" rx="2.85" ry="1.46" transform="translate(-5.75 11.11) rotate(-23.07)"/>
          <path class="b86ee16f-8617-4440-b108-4df30bdf46cd" d="M5.6,37.89c-1.14,12.23,2,18.86,4.66,23.18a17.93,17.93,0,0,1-2.57-3.43A36.16,36.16,0,0,1,3.17,43.92a33.52,33.52,0,0,1-.08-4.24c0-13.35,6.3-23.12,20.38-29.77a29.16,29.16,0,0,1,3.38-1.49s.95,1.32,1.47,2.14C20.8,13.57,7.12,21.66,5.6,37.89Z"/>
        </g>
      </g>
    </g>
    <path class="bfbd167f-d1f8-4724-a1db-e98de27d0f1e" d="M42.49,15.53S51,4.65,73.08,14.2c0,0-6.12-17.35-20.5-11.9C52.58,2.3,44.77,4.31,42.49,15.53Z"/>
  </g>
</svg>
