<svg id="be061c53-52cb-4259-a124-fc742cc793bb" data-name="Layer 1" xmlns="http://www.w3.org/2000/svg" width="153.92" height="110.29" viewBox="0 0 153.92 110.29">
  <defs>
    <style>
      .ad600fc7-49a8-4f38-a53d-32af51257615 {
        fill: #bcfde5;
      }

      .b550feec-6ece-4500-a91e-305ec8ac14ee {
        fill: #ebf7f2;
      }
    </style>
  </defs>
  <g>
    <g>
      <path class="ad600fc7-49a8-4f38-a53d-32af51257615" d="M113.45,98.26c-13,5.34-28.42-24-36.83-44.5S69.21,12.35,82.2,7s24.23,11.68,32.65,32.15S126.44,92.93,113.45,98.26Z"/>
      <path class="b550feec-6ece-4500-a91e-305ec8ac14ee" d="M113.47,98.31A9,9,0,0,1,110,99a10.07,10.07,0,0,1-3.46-.74,19.88,19.88,0,0,1-5.93-3.86,58.31,58.31,0,0,1-9-10.91A172.47,172.47,0,0,1,78.12,58.52C74.13,50,71,40.77,70.48,31.18a36.9,36.9,0,0,1,1.76-14.27,19.9,19.9,0,0,1,3.64-6.38,16,16,0,0,1,6-4.36,15.07,15.07,0,0,1,3.65-.94,13.32,13.32,0,0,1,3.78.14,16.86,16.86,0,0,1,6.73,3.06,31.13,31.13,0,0,1,5.26,5,55.44,55.44,0,0,1,4.27,5.77,98.46,98.46,0,0,1,6.71,12.57A121.28,121.28,0,0,1,117.49,45a106.91,106.91,0,0,1,4.81,27.91A54.71,54.71,0,0,1,121.18,87a23.1,23.1,0,0,1-2.54,6.61A11,11,0,0,1,113.47,98.31Zm0-.09a11,11,0,0,0,5.09-4.69A23.33,23.33,0,0,0,121,87a54.39,54.39,0,0,0,1-14.06A105.26,105.26,0,0,0,117,45.15a120.77,120.77,0,0,0-5.32-13.09,100.77,100.77,0,0,0-6.8-12.4A39.82,39.82,0,0,0,95.5,9.19a15.86,15.86,0,0,0-6.35-2.88,12.45,12.45,0,0,0-3.5-.1,13.76,13.76,0,0,0-3.39.88,15.06,15.06,0,0,0-5.65,4.07,19.36,19.36,0,0,0-3.5,6.07,36.19,36.19,0,0,0-1.77,13.91c.47,9.44,3.39,18.59,7.28,27.16a170.32,170.32,0,0,0,13.16,25,57.9,57.9,0,0,0,8.94,10.91,19.5,19.5,0,0,0,5.86,3.86,10,10,0,0,0,3.42.75A9,9,0,0,0,113.44,98.22Z"/>
    </g>
    <g>
      <path class="ad600fc7-49a8-4f38-a53d-32af51257615" d="M109.53,94.13c-4.77,13.2-36.89,4.92-57.71-2.6S16.17,69.2,20.93,56,45.86,45.88,66.68,53.4,114.3,80.93,109.53,94.13Z"/>
      <path class="b550feec-6ece-4500-a91e-305ec8ac14ee" d="M109.58,94.15a9.06,9.06,0,0,1-1.87,3,10.07,10.07,0,0,1-2.87,2.06A19.58,19.58,0,0,1,98,101a57.74,57.74,0,0,1-14.14-.64,171.32,171.32,0,0,1-27.51-6.77c-9-2.78-17.91-6.67-25.38-12.69A37.06,37.06,0,0,1,21.57,70a20.25,20.25,0,0,1-2.28-7,16,16,0,0,1,.81-7.38,14.55,14.55,0,0,1,1.76-3.33,13,13,0,0,1,2.64-2.71,16.62,16.62,0,0,1,6.79-2.93,30.41,30.41,0,0,1,7.23-.55,55,55,0,0,1,7.14.72,98.7,98.7,0,0,1,13.82,3.46,120.49,120.49,0,0,1,13.29,5,106.65,106.65,0,0,1,23.9,15.17,54.79,54.79,0,0,1,9.7,10.31,23.48,23.48,0,0,1,3.19,6.32A11.14,11.14,0,0,1,109.58,94.15Zm-.1,0a11,11,0,0,0,0-6.93,23.46,23.46,0,0,0-3.2-6.26,54.65,54.65,0,0,0-9.71-10.22,105.66,105.66,0,0,0-24-14.85A118.5,118.5,0,0,0,59.27,51a101.71,101.71,0,0,0-13.74-3.29,40,40,0,0,0-14-.11,15.9,15.9,0,0,0-6.4,2.78,12.62,12.62,0,0,0-2.43,2.52A13.83,13.83,0,0,0,21,56a15.08,15.08,0,0,0-.79,6.92,19.47,19.47,0,0,0,2.15,6.67,36.28,36.28,0,0,0,9.12,10.66c7.31,6,16,10,25,12.84a169.08,169.08,0,0,0,27.38,7.06,58.78,58.78,0,0,0,14.08.71,19.47,19.47,0,0,0,6.8-1.76,9.88,9.88,0,0,0,2.85-2A8.66,8.66,0,0,0,109.48,94.12Z"/>
    </g>
  </g>
</svg>
