<svg id="a6c34f7a-775f-4ef4-874a-79fcb5729daf" data-name="Layer 1" xmlns="http://www.w3.org/2000/svg" width="63.76" height="52.71" viewBox="0 0 63.76 52.71">
  <defs>
    <style>
      .a4be2c36-7b0d-4432-9004-a090e4846b09 {
        fill: #bcfde5;
      }

      .bc1e1f5f-7880-411f-8b51-6e5bbf411289 {
        fill: #ebf7f2;
      }
    </style>
  </defs>
  <g>
    <g>
      <path class="a4be2c36-7b0d-4432-9004-a090e4846b09" d="M11.07,39.62C14.6,45,28,37.89,36.49,32.33S50,18.59,46.46,13.22s-12.18-1.85-20.65,3.72S7.54,34.25,11.07,39.62Z"/>
      <path class="bc1e1f5f-7880-411f-8b51-6e5bbf411289" d="M11.11,39.6a4.14,4.14,0,0,0,2.62,1.68,8.94,8.94,0,0,0,3.18,0,26.2,26.2,0,0,0,6.16-1.86,75.16,75.16,0,0,0,11.25-6.29,34.81,34.81,0,0,0,9.41-8.45,15.66,15.66,0,0,0,2.73-5.46,6.89,6.89,0,0,0-.76-5.53,5.29,5.29,0,0,0-2-1.79,6.93,6.93,0,0,0-2.79-.51,17.42,17.42,0,0,0-6,1.43A55.63,55.63,0,0,0,23.73,19a47,47,0,0,0-9.24,8.9,24.93,24.93,0,0,0-3.27,5.53,10.72,10.72,0,0,0-.79,3.1A5,5,0,0,0,11.11,39.6Zm-.08,0a5.06,5.06,0,0,1-.73-3.13,10.75,10.75,0,0,1,.76-3.15,24.9,24.9,0,0,1,3.24-5.61,48.29,48.29,0,0,1,9.1-9.19A55.44,55.44,0,0,1,28.79,15,46.27,46.27,0,0,1,34.58,12a18.36,18.36,0,0,1,6.28-1.56,7.62,7.62,0,0,1,3.2.56,6.33,6.33,0,0,1,2.47,2.12,7.75,7.75,0,0,1,.83,6.3,16.52,16.52,0,0,1-2.94,5.77,35.11,35.11,0,0,1-9.81,8.39,77.72,77.72,0,0,1-11.45,6,27,27,0,0,1-6.22,1.81,9,9,0,0,1-3.24-.06A4.23,4.23,0,0,1,11,39.65Z"/>
    </g>
    <g>
      <path class="a4be2c36-7b0d-4432-9004-a090e4846b09" d="M14.24,39.34c2.89,5.75,17,.24,26.09-4.31S55.32,23,52.44,17.21,40.57,14,31.51,18.51,11.36,33.6,14.24,39.34Z"/>
      <path class="bc1e1f5f-7880-411f-8b51-6e5bbf411289" d="M14.29,39.32a4.12,4.12,0,0,0,2.4,2,8.92,8.92,0,0,0,3.17.4,26.73,26.73,0,0,0,6.32-1.14,74.5,74.5,0,0,0,11.9-4.95,34.9,34.9,0,0,0,10.33-7.3,15.72,15.72,0,0,0,3.34-5.12,6.81,6.81,0,0,0-.12-5.58,5.29,5.29,0,0,0-1.8-2,7,7,0,0,0-2.72-.83,17.66,17.66,0,0,0-6.1.73A55.76,55.76,0,0,0,29.2,20.32,47.33,47.33,0,0,0,19,28.1a25.1,25.1,0,0,0-3.89,5.11,10.42,10.42,0,0,0-1.13,3A5,5,0,0,0,14.29,39.32Zm-.09,0a5.11,5.11,0,0,1-.36-3.2,10.41,10.41,0,0,1,1.12-3,24.49,24.49,0,0,1,3.86-5.19,48.07,48.07,0,0,1,10.1-8.09,57,57,0,0,1,5.78-2.94,47.18,47.18,0,0,1,6.08-2.25,18.36,18.36,0,0,1,6.42-.82,7.77,7.77,0,0,1,3.12.92,6.35,6.35,0,0,1,2.21,2.39,7.79,7.79,0,0,1,.09,6.36A16.42,16.42,0,0,1,49,28.9a35,35,0,0,1-10.71,7.2,77.59,77.59,0,0,1-12.08,4.68,27,27,0,0,1-6.38,1.08,9.2,9.2,0,0,1-3.21-.44A4.22,4.22,0,0,1,14.2,39.37Z"/>
    </g>
  </g>
</svg>
