<svg id="a9f49265-45ea-4dca-a22b-1f23c7422a3f" data-name="Layer 1" xmlns="http://www.w3.org/2000/svg" width="200" height="240" viewBox="0 0 200 240">
  <defs>
    <style>
      .b52ee1c4-1ff6-46ad-9954-3a545298b826 {
        fill: #bcfde5;
      }

      .f7051adf-6099-482d-886f-c27340da8475 {
        fill: #ebf7f2;
      }
    </style>
  </defs>
  <g>
    <g>
      <path class="b52ee1c4-1ff6-46ad-9954-3a545298b826" d="M49.59,201.68c24.2,3.28,37.29-52.94,42.47-91.11s-5.74-73-29.94-76.26-35.67,30.3-40.84,68.47S25.39,198.39,49.59,201.68Z"/>
      <path class="f7051adf-6099-482d-886f-c27340da8475" d="M49.6,201.63a15.3,15.3,0,0,0,6.06-.51,17.21,17.21,0,0,0,5.42-2.78,34.11,34.11,0,0,0,8.13-9.09c4.45-6.9,7.52-14.58,10.16-22.32a233.41,233.41,0,0,0,6.47-23.72c1.79-8,3.25-16.07,4.49-24.18.61-4,1.2-8.12,1.65-12.18s.66-8.15.72-12.24a109.62,109.62,0,0,0-2.22-24.33c-1.72-7.94-4.49-15.76-9.09-22.4A32.76,32.76,0,0,0,73,39.41a25.59,25.59,0,0,0-11-4.22,23.3,23.3,0,0,0-5.9,0A20.67,20.67,0,0,0,50.4,36.8a26.89,26.89,0,0,0-9.23,7.42,51,51,0,0,0-6.49,10.22A94.38,94.38,0,0,0,30,65.74,175.26,175.26,0,0,0,24,89.5a203.71,203.71,0,0,0-3.29,24.33,188,188,0,0,0,.07,24.55,170.6,170.6,0,0,0,3.34,24.34,113.32,113.32,0,0,0,3.18,11.86,77.32,77.32,0,0,0,4.66,11.35,40.5,40.5,0,0,0,7,10A19.15,19.15,0,0,0,49.6,201.63Zm0,.1A19.23,19.23,0,0,1,38.87,196a40.6,40.6,0,0,1-7.12-10A77.77,77.77,0,0,1,27,174.67a114,114,0,0,1-3.24-11.88,172.83,172.83,0,0,1-3.46-24.38,190.81,190.81,0,0,1-.18-24.62,206.59,206.59,0,0,1,3.19-24.41,176.81,176.81,0,0,1,6-23.89,94,94,0,0,1,4.63-11.41,52.14,52.14,0,0,1,6.54-10.42A27.85,27.85,0,0,1,50,36a21.38,21.38,0,0,1,5.91-1.74,24,24,0,0,1,6.16,0A26.32,26.32,0,0,1,73.5,38.63a33.79,33.79,0,0,1,8.62,8.74c4.67,6.81,7.42,14.73,9.12,22.75a110.08,110.08,0,0,1,2.12,24.5c-.07,4.11-.34,8.21-.78,12.3s-1.07,8.14-1.7,12.19c-1.28,8.12-2.78,16.19-4.61,24.2A232.36,232.36,0,0,1,79.67,167c-2.68,7.74-5.79,15.42-10.28,22.32a34.17,34.17,0,0,1-8.22,9.1,17.59,17.59,0,0,1-5.47,2.79A15.6,15.6,0,0,1,49.58,201.73Z"/>
    </g>
    <g>
      <path class="b52ee1c4-1ff6-46ad-9954-3a545298b826" d="M54.38,193c13.83,20.13,64.27-7.94,96-29.74s50.21-53.27,36.39-73.4-46.41-6.07-78.17,15.73S40.56,172.86,54.38,193Z"/>
      <path class="f7051adf-6099-482d-886f-c27340da8475" d="M54.42,193a15.44,15.44,0,0,0,4.45,4.15,17.33,17.33,0,0,0,5.7,2.14,33.81,33.81,0,0,0,12.2-.08c8.09-1.34,15.84-4.22,23.35-7.46A233.65,233.65,0,0,0,122,180.58c7.13-4.05,14.1-8.39,20.93-12.91,3.41-2.27,6.82-4.57,10.13-7s6.49-5,9.55-7.68a109.68,109.68,0,0,0,16.54-18c4.72-6.61,8.66-13.91,10.48-21.78a32.87,32.87,0,0,0,.63-11.93,25.72,25.72,0,0,0-4.28-11,23.56,23.56,0,0,0-3.94-4.39,20.66,20.66,0,0,0-5-3.08A26.82,26.82,0,0,0,165.37,81a51.36,51.36,0,0,0-11.93,2.07A92.53,92.53,0,0,0,142,87.21a176,176,0,0,0-21.68,11.46,204.75,204.75,0,0,0-20.23,13.91A189.44,189.44,0,0,0,81.9,129.12a171.85,171.85,0,0,0-15.78,18.82,115.68,115.68,0,0,0-6.66,10.33,77,77,0,0,0-5.27,11.08,40.44,40.44,0,0,0-2.68,11.92A19.12,19.12,0,0,0,54.42,193Zm-.08.05a19.23,19.23,0,0,1-3-11.75,40.58,40.58,0,0,1,2.64-12,77.87,77.87,0,0,1,5.24-11.13,111.27,111.27,0,0,1,6.63-10.38,170.64,170.64,0,0,1,15.73-18.94,188.07,188.07,0,0,1,18.12-16.67,204.26,204.26,0,0,1,20.23-14A175.9,175.9,0,0,1,141.65,86.5a94.59,94.59,0,0,1,11.56-4.24,52,52,0,0,1,12.12-2.15A27.76,27.76,0,0,1,177.43,82a21.38,21.38,0,0,1,5.27,3.21,24.57,24.57,0,0,1,4.14,4.56,26.6,26.6,0,0,1,4.4,11.43,33.73,33.73,0,0,1-.7,12.26c-1.91,8-5.93,15.39-10.72,22a110.86,110.86,0,0,1-16.73,18c-3.09,2.7-6.31,5.26-9.63,7.67s-6.76,4.68-10.18,6.94c-6.87,4.5-13.87,8.81-21,12.83a232.09,232.09,0,0,1-22,11.06c-7.54,3.21-15.32,6.07-23.45,7.37a34.13,34.13,0,0,1-12.26,0,17.42,17.42,0,0,1-5.74-2.19A15.56,15.56,0,0,1,54.34,193Z"/>
    </g>
  </g>
</svg>
