<svg id="aeef8da7-9b58-47b8-9b6b-79efcd2e8703" data-name="Layer 1" xmlns="http://www.w3.org/2000/svg" width="370" height="410" viewBox="0 0 370 410">
  <defs>
    <style>
      .a9196143-ea04-4d1e-9844-8fc51713b596, .e7cc8e0c-ea57-4798-a11c-c43b33f2d390 {
        fill: #ffe309;
        stroke-width: 0.75px;
      }

      .a9196143-ea04-4d1e-9844-8fc51713b596 {
        stroke: #665608;
      }

      .a9196143-ea04-4d1e-9844-8fc51713b596, .e7cc8e0c-ea57-4798-a11c-c43b33f2d390, .fe0071de-6590-47c1-a040-13e1547240c5 {
        stroke-miterlimit: 10;
      }

      .e7cc8e0c-ea57-4798-a11c-c43b33f2d390 {
        stroke: #493c05;
      }

      .b1af614e-54c6-4a67-b066-07196df98150 {
        fill: #ecc516;
      }

      .fe0071de-6590-47c1-a040-13e1547240c5 {
        fill: #532900;
        stroke: #3a1c03;
      }

      .a616b1ec-5a34-4b47-b831-7d30c649d5eb {
        fill: #210a11;
      }

      .b9eafc1b-9684-459a-9922-766c5c59be18 {
        fill: #681a1a;
      }

      .f922c89e-9d4a-49f8-9697-30972fdc3794 {
        fill: #ef7089;
      }

      .b203e91d-f0ff-437a-bdc0-e9a6dcc073c9 {
        fill: #ff5763;
      }

      .a0898f8d-7fe2-42b4-ac46-d95e97085f5f {
        fill: #fff;
      }

      .a8529cf1-605f-418a-a7d4-6f189b9f9579 {
        fill: #ef304c;
      }

      .b3d97655-d34a-41fc-9894-6c3ae7497abe {
        fill: #ffa979;
      }
    </style>
  </defs>
  <g>
    <path class="a9196143-ea04-4d1e-9844-8fc51713b596" d="M103.91,356.74s2.37,10.48-9.47,12.17-21-1.69-22,10.14-1,24.68,10.81,25.7,10.82-15.56,20-14.54,26-1.69,25-22.65S103.91,356.74,103.91,356.74Z"/>
    <g>
      <path class="a9196143-ea04-4d1e-9844-8fc51713b596" d="M171.87,114s-16.23.34-36.18-31.44-3-71,15.55-73.37,19.28,13.53,2.71,26-14.54,55.78,22.65,74C176.6,109.24,197.9,126.15,171.87,114Z"/>
      <path class="a9196143-ea04-4d1e-9844-8fc51713b596" d="M221.23,109.24s-4.73-29.41,1-49S247.27-2.67,276,6.46c0,0,8.45,5.74,5.07,13.18s-10.82,9.81-18.26,5.75-47.67,30.09-34.49,82.16C228.33,107.55,227.32,122.09,221.23,109.24Z"/>
      <path class="a9196143-ea04-4d1e-9844-8fc51713b596" d="M237,261.73s3,8.11,46.15,12.68c0,0,17.49,2.28,27.38.25s31.7-2.79,35.76,2.54.76,11.41-9.38,7.6l-10.4-2.28s12.17,3.81,5.32,16.48-12.67-10.39-12.67-10.39l3.55,13.18s-8.88,7.86-15.22-10.39c0,0-4.82,6.08-33.47,6.84s-57.06-9.38-57.06-9.38Z"/>
      <path class="e7cc8e0c-ea57-4798-a11c-c43b33f2d390" d="M240.79,279.19c-1,16.2-4.51,30.26-10.92,42.27a77.53,77.53,0,0,1-18.73,23.05h0a98.76,98.76,0,0,1-19.29,12.56c-1.29.66-2.61,1.29-3.93,1.87a104.86,104.86,0,0,1-30.5,8.42c-20.8,2.53-40.38-.89-55-4.8-3.51-.92-6.73-1.9-9.6-2.79-21.64-6.75-36.18-2.36-36.18-2.36,9.14-8.62,11.15-22.35,13.88-37.16,2.44-13.5,5.46-27.9,15-40.06.49-.63,1-1.26,1.52-1.89a68.48,68.48,0,0,1,10.63-10,92.41,92.41,0,0,1,19.12-11.06,4.16,4.16,0,0,1,.54-.23,122.75,122.75,0,0,1,19.49-6.5,97.12,97.12,0,0,1,12.1-2.32c25.69-2.71,30.43-22.34,30.43-22.34L240.85,259A178.16,178.16,0,0,1,240.79,279.19Z"/>
      <path class="b1af614e-54c6-4a67-b066-07196df98150" d="M239.49,276.44c-11.05,4.72-24.26,6.25-40.23,6.25-33.08,0-60.2-12.36-62.55-28.06a97.49,97.49,0,0,1,16.43-6,76.57,76.57,0,0,1,10.2-2.15C185,244,189,225.87,189,225.87l51.89,30.59C241.18,263,239.83,270.55,239.49,276.44Z"/>
      <path class="fe0071de-6590-47c1-a040-13e1547240c5" d="M103.4,361.81c-3.5-.92-7.77-1.15-10.64-2-21.64-6.75-36.18-2.36-36.18-2.36,9.14-8.62,12-23.91,14.7-38.71C72.75,329.76,79.2,349.56,103.4,361.81Z"/>
      <path class="fe0071de-6590-47c1-a040-13e1547240c5" d="M229.87,321.46a77.53,77.53,0,0,1-18.73,23.05h0c-13.08,0-38-4.2-67.31-30-18-15.9-25-37.45-27-57.22a123.54,123.54,0,0,1,20-6.73c1.81,15.58,8.79,40,33.39,55.5C194.29,321.26,216.6,322.58,229.87,321.46Z"/>
      <path class="fe0071de-6590-47c1-a040-13e1547240c5" d="M187.89,358.94a104.86,104.86,0,0,1-30.5,8.42c-15.11-2.27-36.21-8.39-51.44-24.83-18.65-20.06-21.41-42.85-20.46-62.34.49-.63,1-1.26,1.52-1.89a68.48,68.48,0,0,1,10.63-10c.41,15.18,4.4,40.7,24.86,58C146.7,346.78,176.33,356,187.89,358.94Z"/>
      <g>
        <path class="a9196143-ea04-4d1e-9844-8fc51713b596" d="M300.6,202.88c.86,35.78-29.51,57.08-66.39,65.41a.15.15,0,0,1-.11,0,171.53,171.53,0,0,1-37.48,4.05c-51.1,0-77.59-26.87-74.78-78.6,2.1-38.88,23.94-76.47,59.87-88.83a79,79,0,0,1,25.83-4.22C258.67,100.72,299.34,149.89,300.6,202.88Z"/>
        <path class="b1af614e-54c6-4a67-b066-07196df98150" d="M237,266.84a172.72,172.72,0,0,1-37.47,4c-51.1,0-77.6-26.63-74.78-77.89,2.09-38.53,23.94-75.78,59.86-88-15.63,11.14-44.78,38.53-43.65,87.51C142.36,256.08,194.35,272.34,237,266.84Z"/>
        <g>
          <g>
            <path class="a616b1ec-5a34-4b47-b831-7d30c649d5eb" d="M234.42,132.65s8.37-1.77,20.79,4.82C255.21,137.47,234.42,117.44,234.42,132.65Z"/>
            <path class="a616b1ec-5a34-4b47-b831-7d30c649d5eb" d="M200,134s-9.37,1-20.58,11.37C179.41,145.33,195.52,119.42,200,134Z"/>
          </g>
          <g>
            <g>
              <g>
                <path class="b9eafc1b-9684-459a-9922-766c5c59be18" d="M264.85,210.5s0,17-8.19,29.8a30.11,30.11,0,0,1-8.48,9c-13.13,9-30,8.36-41.9-7-.29-.31-.52-.66-.78-1a59.09,59.09,0,0,1-7.58-14.57s31.18,4.22,57.5-10.09A66.48,66.48,0,0,0,264.85,210.5Z"/>
                <path class="f922c89e-9d4a-49f8-9697-30972fdc3794" d="M264.87,210.45a47.1,47.1,0,0,1-.26,5.74c-.19,1.89-.42,3.78-.76,5.66a61.66,61.66,0,0,1-2.93,11.05A43,43,0,0,1,255.5,243a29.11,29.11,0,0,1-8.48,7.84,30.67,30.67,0,0,1-22.32,4.53A29.25,29.25,0,0,1,214,250.85a38.48,38.48,0,0,1-8.42-8l.05,0a40.07,40.07,0,0,1-2.64-3.75c-.8-1.27-1.55-2.58-2.25-3.91a66.8,66.8,0,0,1-3.6-8.23l-.46-1.27,1.36.16a106.75,106.75,0,0,0,17.44.44,110.27,110.27,0,0,0,17.36-2.16,91.78,91.78,0,0,0,16.73-5.11c1.36-.53,2.65-1.22,4-1.83s2.65-1.26,3.92-2A74.28,74.28,0,0,0,264.87,210.45Zm0,.09a60.37,60.37,0,0,1-7.24,5c-1.26.76-2.56,1.44-3.89,2.08s-2.61,1.35-4,1.91A88.7,88.7,0,0,1,233,224.85a110.38,110.38,0,0,1-17.45,2.35,108,108,0,0,1-17.62-.37l.1-.12a66.43,66.43,0,0,0,3.58,8.1,50.31,50.31,0,0,0,4.77,7.44h0a37.83,37.83,0,0,0,8.17,7.81,28.21,28.21,0,0,0,10.35,4.44,27.73,27.73,0,0,0,11.26-.07,32.84,32.84,0,0,0,10.46-4.23,28.54,28.54,0,0,0,8.37-7.56,43.33,43.33,0,0,0,5.46-9.94,61.49,61.49,0,0,0,3.11-10.91A73,73,0,0,0,264.83,210.54Z"/>
              </g>
              <path class="b203e91d-f0ff-437a-bdc0-e9a6dcc073c9" d="M251.32,239.68c3.72,5-1,8-4.22,10.21-11.8,8.39-30.38,6-41-8.34,2.92-2.22,8.16-4.07,17.53-3.19C223.59,238.36,240.43,231.61,251.32,239.68Z"/>
              <path class="a0898f8d-7fe2-42b4-ac46-d95e97085f5f" d="M239.7,239a60,60,0,0,1-15.43,4,24.34,24.34,0,0,1-25.57-15.45l-.07-.17s30.43,4.55,56.75-9.77C257.34,224.79,255.28,232.8,239.7,239Z"/>
            </g>
            <path class="a8529cf1-605f-418a-a7d4-6f189b9f9579" d="M193.23,217.47a9.1,9.1,0,0,1,1.48,3,8.19,8.19,0,0,1,.23,3.42,5.77,5.77,0,0,1-1.59,3.07,6.52,6.52,0,0,1-1.37,1,10,10,0,0,1-1.55.65l0,0a8,8,0,0,0,2.65-1.9,5.55,5.55,0,0,0,1.39-2.9,8.48,8.48,0,0,0-.12-3.25,12.47,12.47,0,0,0-1.14-3.07Z"/>
            <path class="a8529cf1-605f-418a-a7d4-6f189b9f9579" d="M270.1,213.22a7.53,7.53,0,0,1-2.7-.92,9.11,9.11,0,0,1-2.27-1.79,7.87,7.87,0,0,1-1.53-2.46,7.11,7.11,0,0,1-.53-2.81h.05a9.84,9.84,0,0,0,.83,2.65,8.54,8.54,0,0,0,1.55,2.3,10.67,10.67,0,0,0,4.61,3Z"/>
          </g>
          <ellipse class="b3d97655-d34a-41fc-9894-6c3ae7497abe" cx="172.17" cy="216.72" rx="14.45" ry="10.14"/>
          <ellipse class="b3d97655-d34a-41fc-9894-6c3ae7497abe" cx="283.61" cy="189.46" rx="14.45" ry="10.14" transform="translate(-52.2 129.8) rotate(-23.67)"/>
        </g>
      </g>
      <path class="a9196143-ea04-4d1e-9844-8fc51713b596" d="M138.57,255.13s6.84,7.36,1.77,14.71-28.4,2.54-41.84-4.31-28.15,4.82-28.15,4.82,4.06,17.75-3,19S60,275.42,60,275.42s-7.36,8.88-5.58,18c0,0-4.57,5.57-8.63-3.55l2-10.66-3.29,10.66S38.4,288.61,42,272.63,82.78,239.16,119,245.5C119,245.5,130.45,247.27,138.57,255.13Z"/>
      <path class="a9196143-ea04-4d1e-9844-8fc51713b596" d="M85.17,313.21a8.28,8.28,0,0,1,12.52,7.7,18.22,18.22,0,0,1-4.94,11.82c-7.44,7.44-20,14.54-32.46,10.14s-17.92,5.75-22,11.84-16.91,5.07-16.23-9.81c0,0,0-19.95,16.56-28.06,0,0,6.43-5.07,25,1.35C75,322.12,80,316.44,85.17,313.21Z"/>
    </g>
  </g>
</svg>
