<svg id="b4e872fe-fd05-4cc0-af97-ab5f7f3fbde0" data-name="Layer 1" xmlns="http://www.w3.org/2000/svg" width="74" height="57" viewBox="0 0 74 57">
  <defs>
    <style>
      .a3b579de-92f0-4642-8796-d2ac0379c807 {
        fill: #fff;
      }

      .ba689b85-cd6e-48d7-9bb6-c69305dd3e25 {
        fill: #702840;
      }

      .aa8754ff-1a06-4a1d-a183-7d447b0c1ce5 {
        fill: #ecc516;
      }

      .b0c585a7-df2a-4741-93ce-5171c3b283b6 {
        fill: #210a11;
      }
    </style>
  </defs>
  <g>
    <g>
      <g>
        <ellipse class="a3b579de-92f0-4642-8796-d2ac0379c807" cx="22.02" cy="35.91" rx="12.08" ry="16.38" transform="translate(-3.29 2.24) rotate(-5.42)"/>
        <path class="ba689b85-cd6e-48d7-9bb6-c69305dd3e25" d="M23.75,52.24a9.66,9.66,0,0,1-5.49-1,13.18,13.18,0,0,1-4.35-3.57,21.35,21.35,0,0,1-2.77-21.72,14.33,14.33,0,0,1,3.56-4.71,10.57,10.57,0,0,1,5.5-2.5,10.48,10.48,0,0,1,5.91,1.21,13.89,13.89,0,0,1,4.49,3.84,20.54,20.54,0,0,1,3.89,10.76,21,21,0,0,1-2.13,11.07A13.66,13.66,0,0,1,28.87,50,9.8,9.8,0,0,1,23.75,52.24Zm0-.1a9.61,9.61,0,0,0,5-2.24,13.4,13.4,0,0,0,3.39-4.4A20.31,20.31,0,0,0,34,34.6a20.11,20.11,0,0,0-4-10.28,13.34,13.34,0,0,0-4.24-3.56,9.67,9.67,0,0,0-5.38-1,9.71,9.71,0,0,0-5,2.22,13.49,13.49,0,0,0-3.39,4.39,20.36,20.36,0,0,0-1.82,10.89,20.06,20.06,0,0,0,4,10.29,13.24,13.24,0,0,0,4.24,3.57A9.51,9.51,0,0,0,23.74,52.14Z"/>
      </g>
      <ellipse class="aa8754ff-1a06-4a1d-a183-7d447b0c1ce5" cx="22.02" cy="35.91" rx="12.08" ry="16.38" transform="translate(-3.29 2.24) rotate(-5.42)"/>
    </g>
    <g>
      <g>
        <ellipse class="a3b579de-92f0-4642-8796-d2ac0379c807" cx="54.76" cy="29.63" rx="10.98" ry="14.89" transform="translate(-6.5 18.48) rotate(-18.1)"/>
        <path class="ba689b85-cd6e-48d7-9bb6-c69305dd3e25" d="M59.56,43.78a8.88,8.88,0,0,1-5.08.21,12.22,12.22,0,0,1-4.58-2.3,18.89,18.89,0,0,1-6-8.35,18.85,18.85,0,0,1-.87-10.4A13.13,13.13,0,0,1,45.28,18a9.68,9.68,0,0,1,4.41-3.35,9.57,9.57,0,0,1,5.53-.1A12.72,12.72,0,0,1,60,17.1a18.82,18.82,0,0,1,5.6,8.81,19.14,19.14,0,0,1,.29,10.26,12.49,12.49,0,0,1-2.22,4.63A8.93,8.93,0,0,1,59.56,43.78Zm0-.09a8.89,8.89,0,0,0,4-3,12.37,12.37,0,0,0,2.12-4.58,18.51,18.51,0,0,0-.58-10,18.19,18.19,0,0,0-5.62-8.32A12.05,12.05,0,0,0,55,15.47a8.31,8.31,0,0,0-9,3.12,12.09,12.09,0,0,0-2.13,4.56,18.38,18.38,0,0,0,.56,10,18.16,18.16,0,0,0,5.6,8.33,12,12,0,0,0,4.47,2.33A8.81,8.81,0,0,0,59.53,43.69Z"/>
      </g>
      <ellipse class="aa8754ff-1a06-4a1d-a183-7d447b0c1ce5" cx="54.76" cy="29.63" rx="10.98" ry="14.89" transform="translate(-6.5 18.48) rotate(-18.1)"/>
    </g>
    <path class="b0c585a7-df2a-4741-93ce-5171c3b283b6" d="M45.79,8.9s5-1.05,12.32,2.85C58.11,11.75,45.79-.11,45.79,8.9Z"/>
    <path class="b0c585a7-df2a-4741-93ce-5171c3b283b6" d="M25.4,9.67s-5.55.61-12.19,6.74C13.21,16.41,22.75,1.06,25.4,9.67Z"/>
  </g>
</svg>
