<svg id="a8da1c5d-9ebd-41a6-9814-8cd5a1e5506c" data-name="Layer 1" xmlns="http://www.w3.org/2000/svg" width="130" height="160" viewBox="0 0 130 160">
  <defs>
    <style>
      .b08f6cb4-070f-41b9-bb69-7f6abb43f463, .b6bb7ae7-58ff-49e5-afdf-1c1f12041988 {
        fill: #ffe309;
      }

      .b6bb7ae7-58ff-49e5-afdf-1c1f12041988, .e014f02a-2691-428c-8a64-ad5f559cb0c4 {
        stroke: #665608;
      }

      .b08f6cb4-070f-41b9-bb69-7f6abb43f463, .b6bb7ae7-58ff-49e5-afdf-1c1f12041988, .bac54ea7-2a73-40f7-ad23-49606c63f5f7, .e014f02a-2691-428c-8a64-ad5f559cb0c4 {
        stroke-miterlimit: 10;
      }

      .b08f6cb4-070f-41b9-bb69-7f6abb43f463, .b6bb7ae7-58ff-49e5-afdf-1c1f12041988, .e014f02a-2691-428c-8a64-ad5f559cb0c4 {
        stroke-width: 0.75px;
      }

      .b08f6cb4-070f-41b9-bb69-7f6abb43f463 {
        stroke: #493c05;
      }

      .b958a677-ee45-4f94-8e71-e3177c2ce615 {
        fill: #ecc516;
      }

      .bac54ea7-2a73-40f7-ad23-49606c63f5f7 {
        fill: #532900;
        stroke: #3a1c03;
      }

      .f370b14d-20e8-4387-bdf4-f20dca1d84c3 {
        fill: #681a1a;
      }

      .efcb9cc9-b85f-4a18-8c95-6d44394ce521 {
        fill: #ef7089;
      }

      .a0429821-0ba7-4e9a-a7d0-8cb48bcf3c2b {
        fill: #ff5763;
      }

      .f390f205-f4b0-4150-bfca-6645742bd1f3 {
        fill: #fff;
      }

      .bc9b016f-f58c-4782-9438-8913516719db {
        fill: #ef304c;
      }

      .b9ea41ff-b615-49bc-a9c7-ef34637b271d {
        fill: #ffa979;
      }

      .e014f02a-2691-428c-8a64-ad5f559cb0c4 {
        fill: none;
      }
    </style>
  </defs>
  <g>
    <g>
      <g>
        <path class="b6bb7ae7-58ff-49e5-afdf-1c1f12041988" d="M62.05,135.46s2.53,3.41-1.47,5.91-7.84,2.75-6.31,7.18,3.59,9.07,8,7.54,1.41-7.34,4.87-8.44,9.13-4.78,5.4-12.18S62.05,135.46,62.05,135.46Z"/>
        <g>
          <path class="b6bb7ae7-58ff-49e5-afdf-1c1f12041988" d="M87.05,96.59s-.61,3.36,13.09,13.62c0,0,5.48,4.31,9.25,5.62s8.85,5.69,9.15,8.31-1.37,5.36-4,2l-1.28-4.45s3.36,3.75-1.52,6.67-2.21-6.09-2.21-6.09L108,127.49s-4.6.88-3.07-6.6c0,0-2.86,1.09-12.74-4.44s-17.46-14.7-17.46-14.7Z"/>
          <path class="b08f6cb4-070f-41b9-bb69-7f6abb43f463" d="M104.85,101.77a40.45,40.45,0,0,1-4.32,16.7,30.64,30.64,0,0,1-7.4,9.1h0a38.74,38.74,0,0,1-7.61,5c-.51.26-1,.51-1.56.74a41.5,41.5,0,0,1-12,3.32,58.07,58.07,0,0,1-21.73-1.89c-1.38-.37-2.65-.75-3.79-1.11-8.54-2.66-14.29-.93-14.29-.93,3.61-3.4,4.41-8.83,5.48-14.67,1-5.33,2.16-11,5.94-15.82q.28-.37.6-.75a27.38,27.38,0,0,1,4.2-3.94,37.24,37.24,0,0,1,7.55-4.37l.21-.09a48.94,48.94,0,0,1,7.7-2.56,37.79,37.79,0,0,1,4.77-.92c10.15-1.07,12-8.82,12-8.82l24.3,13.09A75.25,75.25,0,0,1,104.85,101.77Z"/>
          <path class="b958a677-ee45-4f94-8e71-e3177c2ce615" d="M104.33,100.69c-4.36,1.86-9.58,2.47-15.89,2.47-13.06,0-23.77-4.88-24.7-11.08a38.72,38.72,0,0,1,6.49-2.37,30.28,30.28,0,0,1,4-.85c8.56-1,10.14-8.14,10.14-8.14L104.88,92.8A78.17,78.17,0,0,1,104.33,100.69Z"/>
          <path class="bac54ea7-2a73-40f7-ad23-49606c63f5f7" d="M50.59,134.4c-1.38-.36-3.06-.45-4.2-.81-8.54-2.66-14.29-.93-14.29-.93,3.61-3.4,4.73-9.44,5.81-15.28C38.49,121.75,41,129.56,50.59,134.4Z"/>
          <path class="bac54ea7-2a73-40f7-ad23-49606c63f5f7" d="M100.53,118.47a30.64,30.64,0,0,1-7.4,9.1h0c-5.16,0-15-1.66-26.57-11.86-7.11-6.28-9.88-14.79-10.68-22.6a48.19,48.19,0,0,1,7.91-2.65c.71,6.15,3.47,15.77,13.18,21.91A38,38,0,0,0,100.53,118.47Z"/>
          <path class="bac54ea7-2a73-40f7-ad23-49606c63f5f7" d="M84,133.27a41.5,41.5,0,0,1-12,3.32c-6-.9-14.3-3.31-20.31-9.8-7.37-7.93-8.46-16.92-8.08-24.62q.28-.37.6-.75a27.38,27.38,0,0,1,4.2-3.94c.16,6,1.74,16.07,9.82,22.9C67.69,128.46,79.39,132.08,84,133.27Z"/>
          <g>
            <path class="b6bb7ae7-58ff-49e5-afdf-1c1f12041988" d="M74.16,46.56s-6.41.13-14.28-12.42-1.21-28,6.14-29,7.61,5.34,1.06,10.28-5.74,22,9,29.24C76,44.69,84.44,51.36,74.16,46.56Z"/>
            <path class="b6bb7ae7-58ff-49e5-afdf-1c1f12041988" d="M93.65,44.69s-1.87-11.62.4-19.36S103.93.5,115.28,4.1c0,0,3.34,2.27,2,5.21s-4.27,3.87-7.21,2.27S91.25,23.46,96.46,44C96.46,44,96.06,49.76,93.65,44.69Z"/>
            <g>
              <path class="b6bb7ae7-58ff-49e5-afdf-1c1f12041988" d="M125,81.66c.34,14.13-11.65,22.54-26.21,25.83h0a67.52,67.52,0,0,1-14.8,1.6c-20.17,0-30.64-10.61-29.52-31,.82-15.36,9.45-30.2,23.64-35.08a31.12,31.12,0,0,1,10.2-1.67C108.44,41.32,124.49,60.74,125,81.66Z"/>
              <path class="b958a677-ee45-4f94-8e71-e3177c2ce615" d="M99.87,106.92a68.25,68.25,0,0,1-14.8,1.58C64.89,108.5,54.43,98,55.54,77.75,56.37,62.53,65,47.82,79.18,43A40.43,40.43,0,0,0,61.94,77.55C62.51,102.67,83,109.09,99.87,106.92Z"/>
              <g>
                <g>
                  <g>
                    <g>
                      <path class="f370b14d-20e8-4387-bdf4-f20dca1d84c3" d="M110.88,84.67s0,6.72-3.24,11.77a11.78,11.78,0,0,1-3.35,3.55c-5.18,3.55-11.86,3.3-16.54-2.76a3.79,3.79,0,0,1-.31-.39,23.49,23.49,0,0,1-3-5.76s12.31,1.67,22.7-4A26.45,26.45,0,0,0,110.88,84.67Z"/>
                      <path class="efcb9cc9-b85f-4a18-8c95-6d44394ce521" d="M110.9,84.63a20.19,20.19,0,0,1-.25,4.55,24.51,24.51,0,0,1-1.06,4.44,17.23,17.23,0,0,1-2.12,4.11,11.87,11.87,0,0,1-3.41,3.25,12.43,12.43,0,0,1-9.14,1.91A13.4,13.4,0,0,1,87,97.78l0,.06A14.49,14.49,0,0,1,86,96.27a16.47,16.47,0,0,1-.9-1.58,27.74,27.74,0,0,1-1.44-3.32l-.45-1.28,1.35.17a42.57,42.57,0,0,0,6.79.2,43.12,43.12,0,0,0,6.8-.74,37.81,37.81,0,0,0,6.59-1.88c1.06-.44,2.13-.88,3.14-1.42S109.84,85.3,110.9,84.63Zm-.05.09a21.62,21.62,0,0,1-2.82,2c-1,.59-2.06,1.09-3.11,1.58a35,35,0,0,1-6.62,2.13,43.35,43.35,0,0,1-6.9.93,41.62,41.62,0,0,1-7-.14l.1-.12a26,26,0,0,0,1.41,3.19,19.76,19.76,0,0,0,1.88,2.93h0A12.5,12.5,0,0,0,95.1,102a11.83,11.83,0,0,0,8.55-1.68,13.4,13.4,0,0,0,5.44-6.88A27.74,27.74,0,0,0,110.85,84.72Z"/>
                    </g>
                    <path class="a0429821-0ba7-4e9a-a7d0-8cb48bcf3c2b" d="M97.64,94.82c4.92-.54,9.22,2.2,6.93,5a5.87,5.87,0,0,1-2.4,1.64c-10,2-13.49-2.6-13.92-6,1.15-.56,2.63-.42,6.33-.19A24.09,24.09,0,0,1,97.64,94.82Z"/>
                    <path class="f370b14d-20e8-4387-bdf4-f20dca1d84c3" d="M93.94,94.62a9.12,9.12,0,0,1,4.53,6.46,12.88,12.88,0,0,0-6.07-6.26Z"/>
                    <path class="f390f205-f4b0-4150-bfca-6645742bd1f3" d="M101,95.94a23.73,23.73,0,0,1-6.1,1.56,9.62,9.62,0,0,1-10.1-6.1l0-.07s12,1.8,22.41-3.85C107.91,90.31,107.1,93.48,101,95.94Z"/>
                  </g>
                  <path class="bc9b016f-f58c-4782-9438-8913516719db" d="M82.61,87.41a2.84,2.84,0,0,1,.78,1.15A3.33,3.33,0,0,1,83.54,90a2.43,2.43,0,0,1-.74,1.31,2.35,2.35,0,0,1-.62.38,3.2,3.2,0,0,1-.68.16l0,0a3.22,3.22,0,0,0,1-.75,2.2,2.2,0,0,0,.54-1.14,4.07,4.07,0,0,0-.48-2.48Z"/>
                  <path class="bc9b016f-f58c-4782-9438-8913516719db" d="M113,85.76a2.16,2.16,0,0,1-1.18-.2,3.37,3.37,0,0,1-1-.7,3,3,0,0,1-.59-1.07,2.19,2.19,0,0,1,0-1.19h0a3.73,3.73,0,0,0,.94,1.93A4.16,4.16,0,0,0,113,85.71Z"/>
                </g>
                <ellipse class="b9ea41ff-b615-49bc-a9c7-ef34637b271d" cx="74.28" cy="87.13" rx="5.71" ry="4.01"/>
                <ellipse class="b9ea41ff-b615-49bc-a9c7-ef34637b271d" cx="118.29" cy="76.36" rx="5.71" ry="4.01" transform="translate(-20.71 53.91) rotate(-23.67)"/>
              </g>
            </g>
          </g>
          <path class="b6bb7ae7-58ff-49e5-afdf-1c1f12041988" d="M45.94,126.43a3.27,3.27,0,0,1,5.79-.41A7.18,7.18,0,0,1,52.86,131c-.68,4.1-3.06,9.26-8.09,10.72s-4.43,6-4.33,8.85-4.26,5.52-7.47.59c0,0-4.58-6.41-1.13-12.82,0,0,.9-3.11,8.34-5.32C44.74,131.62,45,128.66,45.94,126.43Z"/>
        </g>
      </g>
      <path class="b6bb7ae7-58ff-49e5-afdf-1c1f12041988" d="M68.12,108.59s-3.86,15,8.86,16.58c7.48.9,11.26,1.6,13.3.77,2.85-1.17,9.18,2.31,9.82,4.62,0,0,1.54,4.63-1.92,3.47,0,0-.39,6.94-10.41,3.47,0,0-1.6-2.18,1.87-5,0,0-30.87,6.23-34.34-19.69C55.3,112.83,59.83,103.68,68.12,108.59Z"/>
      <path class="e014f02a-2691-428c-8a64-ad5f559cb0c4" d="M91.91,134.22s3.17-2-4.44-1.62"/>
    </g>
    <line class="b6bb7ae7-58ff-49e5-afdf-1c1f12041988" x1="98.18" y1="134.03" x2="97.81" y2="131.15"/>
  </g>
</svg>
