<svg id="a65b8668-c660-40b7-b300-330b30c2efde" data-name="Layer 1" xmlns="http://www.w3.org/2000/svg" width="130" height="140" viewBox="0 0 130 140">
  <defs>
    <style>
      .e73dac28-a1da-4ee4-b41e-a25867a11e26, .ec7f0476-4b34-4033-9648-ce456e8469ba {
        fill: #ffe309;
        stroke-width: 0.75px;
      }

      .e73dac28-a1da-4ee4-b41e-a25867a11e26 {
        stroke: #665608;
      }

      .b226418d-e98c-4936-ac2c-6b462a4a03cb, .e73dac28-a1da-4ee4-b41e-a25867a11e26, .ec7f0476-4b34-4033-9648-ce456e8469ba {
        stroke-miterlimit: 10;
      }

      .ec7f0476-4b34-4033-9648-ce456e8469ba {
        stroke: #493c05;
      }

      .b8fc3241-80a2-4e1a-bd13-47706c3cd9a4 {
        fill: #ecc516;
      }

      .b226418d-e98c-4936-ac2c-6b462a4a03cb {
        fill: #532900;
        stroke: #3a1c03;
      }

      .b6dcfb28-f6e9-47d2-9725-bd0164fcbd64 {
        fill: #681a1a;
      }

      .a36a0a60-eebb-4ab1-b213-fd1c04a994f4 {
        fill: #ef7089;
      }

      .a72a8ac8-10ad-4542-8c28-d8bc1cf90764 {
        fill: #ff5763;
      }

      .e33a09a7-2bce-4482-8975-42979522990a {
        fill: #fff;
      }

      .b2555624-a3fa-461a-adad-cb3454bc2b55 {
        fill: #ef304c;
      }

      .f8965067-fb66-4b4d-a7af-3349389dc1c0 {
        fill: #ffa979;
      }
    </style>
  </defs>
  <g>
    <path class="e73dac28-a1da-4ee4-b41e-a25867a11e26" d="M86.76,120a3.29,3.29,0,0,0,3.12,4c3.9.55,6.91-.56,7.25,3.34s.33,8.14-3.57,8.47S90,130.73,87,131.07s-8.58-.56-8.25-7.47S86.76,120,86.76,120Z"/>
    <g>
      <path class="e73dac28-a1da-4ee4-b41e-a25867a11e26" d="M64.35,40s5.35.11,11.93-10.37,1-23.41-5.13-24.19S64.8,9.89,70.26,14s4.8,18.4-7.47,24.42C62.79,38.43,55.77,44,64.35,40Z"/>
      <path class="e73dac28-a1da-4ee4-b41e-a25867a11e26" d="M48.08,38.43s1.56-9.7-.34-16.17S39.49,1.52,30,4.53c0,0-2.79,1.9-1.68,4.35a4.06,4.06,0,0,0,6,1.9c2.46-1.34,15.72,9.92,11.37,27.09C45.73,37.87,46.07,42.66,48.08,38.43Z"/>
      <path class="e73dac28-a1da-4ee4-b41e-a25867a11e26" d="M41.89,86.82s-1.78,2.23-15.76-.76c0,0-5.72-1.07-8.61-2.72S7.87,79.22,6.06,80.47,4.65,84,8.22,83.82l3.49.35s-4.21-.06-3.36,4.62,5-2,5-2L10.93,90.6s2,3.37,5.83-1.7c0,0,.89,2.4,9.79,5.57a59.61,59.61,0,0,0,18.84,2.91Z"/>
      <path class="ec7f0476-4b34-4033-9648-ce456e8469ba" d="M41.63,94.46a33.53,33.53,0,0,0,3.6,13.94,25.48,25.48,0,0,0,6.18,7.6h0a31.92,31.92,0,0,0,6.35,4.14c.43.22.87.43,1.3.62a34.52,34.52,0,0,0,10.06,2.77A48.25,48.25,0,0,0,87.27,122c1.16-.3,2.22-.62,3.17-.92,7.13-2.22,11.93-.77,11.93-.77-3-2.85-3.68-7.38-4.58-12.26-.8-4.45-1.8-9.2-5-13.21l-.51-.62a22.62,22.62,0,0,0-3.5-3.29,30.22,30.22,0,0,0-6.3-3.65l-.18-.07A40.61,40.61,0,0,0,75.92,85a33,33,0,0,0-4-.76c-8.47-.89-10-7.37-10-7.37L41.61,87.81A56.56,56.56,0,0,0,41.63,94.46Z"/>
      <path class="b8fc3241-80a2-4e1a-bd13-47706c3cd9a4" d="M42.06,93.55c3.64,1.56,8,2.07,13.26,2.07,10.91,0,19.85-4.08,20.63-9.26a32.37,32.37,0,0,0-5.42-2,25.49,25.49,0,0,0-3.36-.71,9.44,9.44,0,0,1-8.47-6.8L41.59,87A64.64,64.64,0,0,0,42.06,93.55Z"/>
      <path class="b226418d-e98c-4936-ac2c-6b462a4a03cb" d="M86.93,121.7c1.15-.3,2.56-.37,3.51-.67,7.13-2.22,11.93-.77,11.93-.77-3-2.85-4-7.89-4.85-12.77C97,111.14,94.91,117.67,86.93,121.7Z"/>
      <path class="b226418d-e98c-4936-ac2c-6b462a4a03cb" d="M45.23,108.4a25.48,25.48,0,0,0,6.18,7.6h0c4.31,0,12.53-1.38,22.19-9.9,5.93-5.24,8.24-12.35,8.92-18.87A41.66,41.66,0,0,0,75.92,85c-.6,5.14-2.9,13.18-11,18.3A31.71,31.71,0,0,1,45.23,108.4Z"/>
      <path class="b226418d-e98c-4936-ac2c-6b462a4a03cb" d="M59.07,120.76a34.52,34.52,0,0,0,10.06,2.77c5-.74,11.94-2.76,17-8.18,6.15-6.62,7.06-14.13,6.75-20.56l-.51-.62a22.62,22.62,0,0,0-3.5-3.29c-.14,5-1.45,13.42-8.2,19.12C72.65,116.75,62.88,119.77,59.07,120.76Z"/>
      <g>
        <path class="e73dac28-a1da-4ee4-b41e-a25867a11e26" d="M21.91,69.3c-.29,11.8,9.73,18.82,21.89,21.57h0a56.6,56.6,0,0,0,12.36,1.34c16.85,0,25.59-8.86,24.66-25.92C80.16,53.48,73,41.08,61.11,37a26.11,26.11,0,0,0-8.52-1.4C35.73,35.61,22.32,51.83,21.91,69.3Z"/>
        <path class="b8fc3241-80a2-4e1a-bd13-47706c3cd9a4" d="M42.89,90.39a57.11,57.11,0,0,0,12.35,1.32c16.85,0,25.59-8.78,24.66-25.68-.69-12.7-7.89-25-19.74-29a33.72,33.72,0,0,1,14.4,28.85C74.08,86.84,56.94,92.2,42.89,90.39Z"/>
        <g>
          <g>
            <g>
              <g>
                <path class="b6dcfb28-f6e9-47d2-9725-bd0164fcbd64" d="M33.69,71.81s0,5.61,2.71,9.83a10,10,0,0,0,2.79,3c4.33,3,9.9,2.75,13.82-2.31a2.85,2.85,0,0,0,.25-.33,19.42,19.42,0,0,0,2.5-4.8s-10.28,1.39-19-3.33A22.38,22.38,0,0,1,33.69,71.81Z"/>
                <path class="a36a0a60-eebb-4ab1-b213-fd1c04a994f4" d="M33.72,71.86A24.94,24.94,0,0,0,35.57,79a10.71,10.71,0,0,0,4.5,5.35,9.49,9.49,0,0,0,6.65,1.22,9.78,9.78,0,0,0,5.58-3.78l.05-.06c.21-.27.51-.69.76-1.06s.49-.79.71-1.2A21.09,21.09,0,0,0,55,76.88l.9,1.11a36,36,0,0,1-6,.08,35,35,0,0,1-5.84-1,26.65,26.65,0,0,1-5.55-2c-.87-.47-1.73-.93-2.55-1.47A13.45,13.45,0,0,1,33.72,71.86Zm0-.09c.87.6,1.6,1.14,2.45,1.63s1.72.89,2.59,1.3a28.12,28.12,0,0,0,5.52,1.75,36.84,36.84,0,0,0,5.74.77,36,36,0,0,0,5.78-.14l.15,0,0,.14a19.11,19.11,0,0,1-2.77,5.17h0a10.67,10.67,0,0,1-6.19,4.08A10,10,0,0,1,39.66,85a11.28,11.28,0,0,1-4.58-5.82,20.75,20.75,0,0,1-1-3.62A18.71,18.71,0,0,1,33.67,71.77Z"/>
              </g>
              <path class="a72a8ac8-10ad-4542-8c28-d8bc1cf90764" d="M38.15,81.43c-1.22,1.64.35,2.63,1.4,3.37,3.89,2.77,10,2,13.53-2.75-1-.73-2.69-1.34-5.78-1C47.3,81,41.75,78.77,38.15,81.43Z"/>
              <path class="e33a09a7-2bce-4482-8975-42979522990a" d="M42,81.22a19.91,19.91,0,0,0,5.09,1.31,8,8,0,0,0,8.43-5.1l0-.05s-10,1.5-18.71-3.22C36.17,76.53,36.85,79.17,42,81.22Z"/>
            </g>
            <path class="b2555624-a3fa-461a-adad-cb3454bc2b55" d="M57.34,74.13c0,.39-.05.74-.06,1.08a3.07,3.07,0,0,0,0,.92,1.93,1.93,0,0,0,.29.81,6.28,6.28,0,0,0,.63.83l0,0a2.71,2.71,0,0,1-.9-.63,1.9,1.9,0,0,1-.49-1,3.47,3.47,0,0,1,.45-2.11Z"/>
            <path class="b2555624-a3fa-461a-adad-cb3454bc2b55" d="M32,72.68c.24-.26.45-.46.65-.67a4.42,4.42,0,0,0,.56-.59,5.15,5.15,0,0,0,.53-.61c.18-.22.33-.47.56-.74h0a3.26,3.26,0,0,1-.77,1.67,3.61,3.61,0,0,1-1.56,1Z"/>
          </g>
          <ellipse class="f8965067-fb66-4b4d-a7af-3349389dc1c0" cx="64.26" cy="73.86" rx="4.77" ry="3.34"/>
          <ellipse class="f8965067-fb66-4b4d-a7af-3349389dc1c0" cx="27.51" cy="64.88" rx="3.34" ry="4.77" transform="translate(-42.95 64.02) rotate(-66.33)"/>
        </g>
      </g>
      <path class="e73dac28-a1da-4ee4-b41e-a25867a11e26" d="M75.33,86.53s-2.25,2.43-.58,4.85,9.36.84,13.79-1.42,9.29,1.59,9.29,1.59-1.34,5.85,1,6.27,2.42-4.6,2.42-4.6,2.43,2.93,1.84,5.94c0,0,1.51,1.84,2.85-1.17l-.67-3.52L106.35,98s2-.42.84-5.69-13.46-11-25.42-9A13.34,13.34,0,0,0,75.33,86.53Z"/>
      <path class="e73dac28-a1da-4ee4-b41e-a25867a11e26" d="M92.94,105.68a2.73,2.73,0,0,0-4.13,2.54,6,6,0,0,0,1.63,3.9c2.45,2.45,6.58,4.79,10.7,3.34s5.91,1.9,7.25,3.9,5.57,1.68,5.35-3.23c0,0,0-6.58-5.46-9.25,0,0-2.12-1.68-8.25.44C96.28,108.62,94.66,106.75,92.94,105.68Z"/>
    </g>
  </g>
</svg>
