<svg id="b6a9aba6-eb62-4179-9a67-23b266b82fe0" data-name="Layer 1" xmlns="http://www.w3.org/2000/svg" width="36.63" height="7.04" viewBox="0 0 36.63 7.04">
  <defs>
    <style>
      .a5efbd0d-7582-4d34-856b-90fe51e0cc6f {
        fill: #f0f0ed;
      }

      .bbabd71c-589b-457d-bd18-391ccd139e0f {
        fill: #030000;
      }

      .ba30f42a-9af7-42bd-b6c0-14eddb5466a3 {
        fill: #2c1117;
      }

      .a369e32f-a65d-434c-adf6-dd9a86fc8b95 {
        fill: #040000;
      }

      .b627f608-2694-4107-9234-e0e051e53c7c {
        fill: #7f4d2a;
      }
    </style>
  </defs>
  <g>
    <g>
      <g>
        <path class="a5efbd0d-7582-4d34-856b-90fe51e0cc6f" d="M12.18,4.63a1.84,1.84,0,0,0,.21-1.29c-.19-.65-6.66-5.6-11,.43C1.41,3.77,6.22,9.91,12.18,4.63Z"/>
        <path class="bbabd71c-589b-457d-bd18-391ccd139e0f" d="M3.44,5.57,2.16,5c-.42-.21-.85-.47-1.3-.72L.49,4,.78,3.4h0l.52-.65a4.61,4.61,0,0,1,.56-.62l.65-.56a5.53,5.53,0,0,1,.74-.48A3.17,3.17,0,0,1,4.06.71,5.08,5.08,0,0,1,4.92.43c.3,0,.6-.12.9-.15h.9A8.82,8.82,0,0,1,8.45.59,8.24,8.24,0,0,1,10,1.23a10.79,10.79,0,0,1,1.38.88c.21.18.42.34.61.53a2.35,2.35,0,0,1,.5.67h0a4.38,4.38,0,0,1-.22,1.1,4.77,4.77,0,0,0,0-1.07h0a2.3,2.3,0,0,0-.54-.45A21.19,21.19,0,0,0,9.32,1.44,5.9,5.9,0,0,0,6.61,1a6.54,6.54,0,0,0-1.4.27,3.67,3.67,0,0,0-.65.26A2.38,2.38,0,0,0,4,1.9a4.49,4.49,0,0,0-.57.4l-.51.47c-.35.31-.53,1-.85,1.37H2L2,3.31c.22.36.42.74.69,1.12Z"/>
      </g>
      <g>
        <path class="ba30f42a-9af7-42bd-b6c0-14eddb5466a3" d="M10.29,3.45A2.65,2.65,0,0,1,7.53,6,2.65,2.65,0,0,1,4.77,3.45,2.65,2.65,0,0,1,7.53.93,2.65,2.65,0,0,1,10.29,3.45Z"/>
        <path class="a369e32f-a65d-434c-adf6-dd9a86fc8b95" d="M8.83,3.45a1.24,1.24,0,0,1-1.3,1.18A1.24,1.24,0,0,1,6.24,3.45,1.24,1.24,0,0,1,7.53,2.27,1.24,1.24,0,0,1,8.83,3.45Z"/>
        <path class="a5efbd0d-7582-4d34-856b-90fe51e0cc6f" d="M7,2.59a.66.66,0,0,1-1.32,0A.66.66,0,0,1,7,2.59Z"/>
      </g>
    </g>
    <g>
      <g>
        <path class="a5efbd0d-7582-4d34-856b-90fe51e0cc6f" d="M24.4,4.63a1.78,1.78,0,0,1-.21-1.29c.19-.65,6.66-5.6,11,.43C35.17,3.77,30.35,9.91,24.4,4.63Z"/>
        <path class="bbabd71c-589b-457d-bd18-391ccd139e0f" d="M33.13,5.57,34.41,5c.43-.21.86-.47,1.3-.72L36.08,4l-.29-.63h0l-.52-.65a4.53,4.53,0,0,0-.55-.62l-.65-.56a7.2,7.2,0,0,0-.74-.48,3.34,3.34,0,0,0-.81-.38,5.19,5.19,0,0,0-.87-.28c-.3,0-.59-.12-.89-.15h-.91a8.86,8.86,0,0,0-1.72.32,8.33,8.33,0,0,0-1.57.64,10.67,10.67,0,0,0-1.37.88,8,8,0,0,0-.61.53,2,2,0,0,0-.5.67h0a4.88,4.88,0,0,0,.23,1.1,4.77,4.77,0,0,1,0-1.07h0a2.37,2.37,0,0,1,.55-.45,21.19,21.19,0,0,1,2.41-1.47A5.86,5.86,0,0,1,30,1a6.52,6.52,0,0,1,1.41.27,3.58,3.58,0,0,1,.64.26,2.44,2.44,0,0,1,.61.34,5.34,5.34,0,0,1,.57.4l.51.47c.35.31.53,1,.85,1.37h0l.08-.83c-.22.36-.42.74-.69,1.12Z"/>
      </g>
      <g>
        <path class="ba30f42a-9af7-42bd-b6c0-14eddb5466a3" d="M26.28,3.45a2.77,2.77,0,0,0,5.52,0,2.77,2.77,0,0,0-5.52,0Z"/>
        <path class="a369e32f-a65d-434c-adf6-dd9a86fc8b95" d="M27.74,3.45a1.31,1.31,0,0,0,2.6,0,1.31,1.31,0,0,0-2.6,0Z"/>
        <path class="a5efbd0d-7582-4d34-856b-90fe51e0cc6f" d="M29.58,2.59a.66.66,0,0,0,1.31,0,.66.66,0,0,0-1.31,0Z"/>
      </g>
    </g>
    <path class="b627f608-2694-4107-9234-e0e051e53c7c" d="M24.4,4.63a1.78,1.78,0,0,1-.21-1.29c.19-.65,6.66-5.6,11,.43C35.17,3.77,30.35,9.91,24.4,4.63Z"/>
    <path class="b627f608-2694-4107-9234-e0e051e53c7c" d="M12.18,4.63a1.84,1.84,0,0,0,.21-1.29c-.19-.65-6.66-5.6-11,.43C1.41,3.77,6.22,9.91,12.18,4.63Z"/>
  </g>
</svg>
