<svg id="a66e85d8-5b9d-40ac-908a-00a58ae1c1ae" data-name="Layer 1" xmlns="http://www.w3.org/2000/svg" width="135.06" height="106.35" viewBox="0 0 135.06 106.35">
  <defs>
    <style>
      .aa9bb927-51e5-4958-b50e-9507b6d15a98, .b3993f68-8dd4-42f7-8e03-08ea2eb1a924 {
        fill: #fff;
      }

      .b3993f68-8dd4-42f7-8e03-08ea2eb1a924 {
        stroke: #702840;
      }

      .ac7f1ea9-a3cf-410a-bf3a-5013e6c0dedd, .b3993f68-8dd4-42f7-8e03-08ea2eb1a924 {
        stroke-miterlimit: 10;
        stroke-width: 0.75px;
      }

      .b06fc681-831d-4638-bc09-ce12b475c207 {
        fill: #210a11;
      }

      .ac7f1ea9-a3cf-410a-bf3a-5013e6c0dedd {
        fill: #ffe309;
        stroke: #665608;
      }
    </style>
  </defs>
  <g>
    <g>
      <g>
        <path class="b3993f68-8dd4-42f7-8e03-08ea2eb1a924" d="M58,65.52a43.15,43.15,0,0,1-.25,5.25C56.12,85.91,46.6,97.63,35,97.88c-12.29.27-22.54-12.32-23.77-28.6-.07-.91-.11-1.82-.12-2.75-.22-17.59,10.12-32.07,23.09-32.35,11.16-.24,20.64,10.12,23.2,24.23a.13.13,0,0,0,0,.06c.17.94.31,1.9.41,2.88A40.58,40.58,0,0,1,58,65.52Z"/>
        <path class="b06fc681-831d-4638-bc09-ce12b475c207" d="M55.33,71.65a9.83,9.83,0,0,1-5.73,4.41,8.7,8.7,0,0,1-8-2.14,15.8,15.8,0,0,1-4.9-9.27C35.4,56.87,39,49.38,44.68,47.91c5.51-1.41,11,3.24,12.67,10.5a.13.13,0,0,0,0,.06c.06.28.12.57.17.86a17.64,17.64,0,0,1,.24,2A17.07,17.07,0,0,1,55.33,71.65Z"/>
        <ellipse class="aa9bb927-51e5-4958-b50e-9507b6d15a98" cx="51.83" cy="55.67" rx="2.92" ry="3.93" transform="translate(-4.06 4.08) rotate(-4.34)"/>
      </g>
      <g>
        <path class="b3993f68-8dd4-42f7-8e03-08ea2eb1a924" d="M120.78,66.27c-.81,10.78-6.47,19.57-15,21.68C94.38,90.77,82.12,80.52,78.38,65l0-.12c-3.71-15.57,2.57-30.48,14-33.32s23.75,7.48,27.46,23A37.68,37.68,0,0,1,120.78,66.27Z"/>
        <ellipse class="b06fc681-831d-4638-bc09-ce12b475c207" cx="109.21" cy="53.5" rx="9.68" ry="13.05" transform="translate(-10.88 34.31) rotate(-17.02)"/>
        <ellipse class="aa9bb927-51e5-4958-b50e-9507b6d15a98" cx="113.21" cy="46.82" rx="2.66" ry="3.58" transform="translate(-8.75 35.19) rotate(-17.02)"/>
      </g>
      <path class="b06fc681-831d-4638-bc09-ce12b475c207" d="M85.45,18s9.79-1.15,23.34,7.74C108.79,25.75,87.07.55,85.45,18Z"/>
      <path class="b06fc681-831d-4638-bc09-ce12b475c207" d="M45.82,15.83S35,16,21,26.67C21,26.67,42.24-1.33,45.82,15.83Z"/>
    </g>
    <path class="ac7f1ea9-a3cf-410a-bf3a-5013e6c0dedd" d="M58,65.52a43.15,43.15,0,0,1-.25,5.25c-.8.33-1.62.62-2.45.88a49.6,49.6,0,0,1-13.68,2.27c-12.28.45-24.26-2.68-30.47-4.64-.07-.91-.11-1.82-.12-2.75-.22-17.59,10.12-32.07,23.09-32.35,11.16-.24,20.64,10.12,23.2,24.23a.13.13,0,0,0,0,.06c.06.28.12.57.17.86a17.64,17.64,0,0,1,.24,2A40.58,40.58,0,0,1,58,65.52Z"/>
    <path class="ac7f1ea9-a3cf-410a-bf3a-5013e6c0dedd" d="M120.78,66.27c-16,6.81-34.29,1.72-42.4-1.24l0-.12c-3.71-15.57,2.57-30.48,14-33.32s23.75,7.48,27.46,23A37.68,37.68,0,0,1,120.78,66.27Z"/>
  </g>
</svg>
