<svg id="b6133811-8ac9-4a78-9031-417fc96cee50" data-name="Layer 1" xmlns="http://www.w3.org/2000/svg" width="104.25" height="112.06" viewBox="0 0 104.25 112.06">
  <defs>
    <style>
      .b961d2bb-7cc8-4825-862e-c0c5e42db6f7 {
        fill: #181818;
      }

      .a6cd8da8-eee5-483f-be96-405b4e999a0d, .b961d2bb-7cc8-4825-862e-c0c5e42db6f7 {
        stroke: #161616;
        stroke-miterlimit: 10;
        stroke-width: 0.78px;
      }

      .a6cd8da8-eee5-483f-be96-405b4e999a0d {
        fill: #fff;
      }

      .e0d5ded5-0fd7-4e5f-a6d0-1281d7e92cf1 {
        fill: #020206;
      }

      .a1f44ed8-628e-43f6-af94-a775f0cee640 {
        fill: #383838;
      }
    </style>
  </defs>
  <g>
    <g>
      <path class="b961d2bb-7cc8-4825-862e-c0c5e42db6f7" d="M65.85,62.59s10.59,9.07-1.23,23.87S49.27,99.23,49.27,99.23s4.59-4.68,2.27-9.56-4.06-5.83-3.82-14.06,7.83-13.48,11.88-16C59.6,59.61,64.69,58.74,65.85,62.59Z"/>
      <path class="a6cd8da8-eee5-483f-be96-405b4e999a0d" d="M92.21,2.38S65.56,13.89,60.92,31.46s.24,37.09.24,37.09,5.48-5.4,4.18-12.46c-1.21-6.54-2.75-20.74,13.56-34.42,1.3-1.09,2.73-2.19,4.27-3.27,0,0,3.56-6.48,4.78-8.64C89,7.92,92.21,2.38,92.21,2.38Z"/>
    </g>
    <path class="e0d5ded5-0fd7-4e5f-a6d0-1281d7e92cf1" d="M78.9,21.67s1.15-7.23-4.63-8l3.3-2.64s4.23.37,4.85,7.74Z"/>
    <path class="e0d5ded5-0fd7-4e5f-a6d0-1281d7e92cf1" d="M73.14,27.32s0-7.51-6.6-6.89l-2.26,3.33s6.48.36,6.83,6.12Z"/>
    <path class="e0d5ded5-0fd7-4e5f-a6d0-1281d7e92cf1" d="M66.41,38.68s-1-5.85-6.08-4.72l-.66,3.69a4.32,4.32,0,0,1,6.06,2.84Z"/>
    <path class="e0d5ded5-0fd7-4e5f-a6d0-1281d7e92cf1" d="M64.69,50.79s-2.87-2.64-5.75-.84V46.88S64.86,46.42,64.69,50.79Z"/>
    <path class="e0d5ded5-0fd7-4e5f-a6d0-1281d7e92cf1" d="M65.31,60.62a5,5,0,0,0-5.79-1.56l-.26-1.84s5.84-.89,6.22,2.24Z"/>
    <path class="a1f44ed8-628e-43f6-af94-a775f0cee640" d="M65.77,62.53s6,14.45-5.71,25.75c0,0-6.24,9.3-10.86,10.88,0,0,2.81,2.07,12.28-9.1S73.42,71.24,65.77,62.53Z"/>
    <path class="e0d5ded5-0fd7-4e5f-a6d0-1281d7e92cf1" d="M86,5.48s2.9,1.15,2.67,3l-2.79,4.15S84.75,8,82.94,7.56Z"/>
  </g>
</svg>
