<svg id="bb2c6efa-557f-40f7-9a37-3e9bdee7191e" data-name="Layer 1" xmlns="http://www.w3.org/2000/svg" width="135.32" height="88.97" viewBox="0 0 135.32 88.97">
  <defs>
    <style>
      .b93a8709-f48a-4540-b4b4-e38c096f9e9a {
        fill: #fff;
      }

      .e2d3b59f-576e-4177-be80-b36948b6aab7 {
        fill: #702840;
      }

      .abdc29b9-af52-4ee7-b8e1-50959c6cb5b8 {
        fill: #210a11;
      }

      .e1e8e3bf-1a62-4525-be21-728d57af9e6f {
        fill: #ecc516;
      }
    </style>
  </defs>
  <g>
    <g>
      <g>
        <g>
          <ellipse class="b93a8709-f48a-4540-b4b4-e38c096f9e9a" cx="90.19" cy="55.26" rx="27.65" ry="20.39" transform="translate(26.66 139.83) rotate(-84.58)"/>
          <path class="e2d3b59f-576e-4177-be80-b36948b6aab7" d="M87.29,82.71c6.39.69,12.43-3,16.23-7.9a34.79,34.79,0,0,0,3.17-35.45c-6.31-12.79-20.44-14.53-29.36-3.28a34.77,34.77,0,0,0-4.18,35.35C75.84,77,80.91,81.92,87.29,82.71Zm0,.09c-6.44-.73-11.59-5.63-14.34-11.27a35.3,35.3,0,0,1,3.71-36C86,23.65,100.91,25.45,107.46,39a35.31,35.31,0,0,1-3.75,36c-3.87,4.94-10,8.59-16.43,7.84Z"/>
        </g>
        <ellipse class="abdc29b9-af52-4ee7-b8e1-50959c6cb5b8" cx="89.01" cy="58.29" rx="12.45" ry="9.24" transform="translate(16.62 136.26) rotate(-80.35)"/>
        <ellipse class="b93a8709-f48a-4540-b4b4-e38c096f9e9a" cx="85.39" cy="50.85" rx="3.42" ry="2.54" transform="translate(20.94 126.5) rotate(-80.35)"/>
      </g>
      <g>
        <g>
          <ellipse class="b93a8709-f48a-4540-b4b4-e38c096f9e9a" cx="34.91" cy="44.66" rx="25.15" ry="18.54" transform="translate(-18.39 63.96) rotate(-71.9)"/>
          <path class="e2d3b59f-576e-4177-be80-b36948b6aab7" d="M26.86,68.43c5.53,1.88,11.61-.15,16-3.78a31.59,31.59,0,0,0,9.82-30.79c-3-12.54-15.16-16.89-25.28-8.73A31.56,31.56,0,0,0,16.58,55.6c1.25,5.51,4.77,10.86,10.28,12.83Zm0,.09c-5.56-1.94-9.16-7.31-10.47-12.87A32.12,32.12,0,0,1,26.83,24.46c10.64-8.7,23.55-4.12,26.66,9.2A32.11,32.11,0,0,1,43,64.84c-4.41,3.62-10.58,5.63-16.15,3.68Z"/>
        </g>
        <ellipse class="abdc29b9-af52-4ee7-b8e1-50959c6cb5b8" cx="34.78" cy="49.41" rx="11.32" ry="8.41" transform="translate(-21.55 71.28) rotate(-76.08)"/>
        <ellipse class="b93a8709-f48a-4540-b4b4-e38c096f9e9a" cx="32" cy="42.42" rx="3.11" ry="2.31" transform="translate(-16.87 63.28) rotate(-76.08)"/>
      </g>
      <path class="abdc29b9-af52-4ee7-b8e1-50959c6cb5b8" d="M50.06,9.66s-8.37-1.78-20.8,4.82C29.26,14.48,50.06-5.56,50.06,9.66Z"/>
      <path class="abdc29b9-af52-4ee7-b8e1-50959c6cb5b8" d="M84.49,11s9.37,1,20.57,11.37C105.06,22.33,89-3.58,84.49,11Z"/>
    </g>
    <ellipse class="e1e8e3bf-1a62-4525-be21-728d57af9e6f" cx="90.17" cy="55.21" rx="27.65" ry="20.39" transform="translate(26.7 139.77) rotate(-84.58)"/>
    <ellipse class="e1e8e3bf-1a62-4525-be21-728d57af9e6f" cx="34.89" cy="44.61" rx="25.15" ry="18.54" transform="translate(-18.35 63.91) rotate(-71.9)"/>
    <path class="e2d3b59f-576e-4177-be80-b36948b6aab7" d="M72.71,58.22c4.55,6.09,15.05,6.7,22.09,6.94,2.68.06,5.36,0,8.06-.08a67.8,67.8,0,0,1-8,.85c-7,.3-18.47-.87-22.1-7.71Z"/>
    <path class="e2d3b59f-576e-4177-be80-b36948b6aab7" d="M17.24,46.86C21.79,53,32.29,53.55,39.33,53.8c2.68.05,5.36-.06,8.06-.09a66,66,0,0,1-8,.85c-7,.3-18.47-.87-22.1-7.7Z"/>
  </g>
</svg>
