<svg id="f4322abc-5175-4a78-ad7b-0a6d9f56955f" data-name="Layer 1" xmlns="http://www.w3.org/2000/svg" width="371.62" height="238.85" viewBox="0 0 371.62 238.85">
  <defs>
    <style>
      .beb49d49-0719-48ec-85ea-41a0f56636cc {
        fill: #9a4d24;
        stroke: #492012;
        stroke-miterlimit: 10;
        stroke-width: 2px;
      }
    </style>
  </defs>
  <path class="beb49d49-0719-48ec-85ea-41a0f56636cc" d="M202.24,17.59S159.62-6.5,96.62,10.94l15.52,5.42S80.51,17.45,49.76,41.65l17.92-2.77S32.17,71,8.37,74.18c0,0,13.43,8.91,33.56-.41,0,0-28.66,22-29.63,27.42,0,0,11.89.83,18.93-1.87,0,0-19.19,17.39-20.49,31.32,0,0,16.93,5.92,34.81-6.87,0,0-8.19,8-11.39,15.43,0,0,15.19-.06,22-5.41,0,0,9.21-5.09,15-5.6,0,0-19.69,13.16-16.24,28.42,0,0,14.38-18,60.51-33.13l-11.62,14.1s19.53-4,39.53-24.39l11.15-10.78s-.46,9.67-2.78,12.34C151.71,114.75,210.72,53.93,202.24,17.59Z"/>
</svg>
