<svg id="b28363dc-9f27-4f15-9e00-d3526831064b" data-name="Layer 1" xmlns="http://www.w3.org/2000/svg" width="122.19" height="98.05" viewBox="0 0 122.19 98.05">
  <defs>
    <style>
      .a4a59477-3cdb-4856-beb8-c5d2f7d1a6d4 {
        fill: #bcfde5;
      }

      .badad621-dee9-4385-b2f5-7027718017d6 {
        fill: #ebf7f2;
      }
    </style>
  </defs>
  <g>
    <g>
      <path class="a4a59477-3cdb-4856-beb8-c5d2f7d1a6d4" d="M84.34,78.3c-9.1,6.31-26-13.72-35.91-28.08s-12.7-30.66-3.59-37,20.65,4.91,30.59,19.26S93.45,72,84.34,78.3Z"/>
      <path class="badad621-dee9-4385-b2f5-7027718017d6" d="M84.37,78.34C74,85,56,61.06,50.31,53.7c-4.49-5.93-8.52-12.46-10.58-19.79-2.06-7.17-2.15-16.67,4.62-21.41,10.8-6.91,22.06,6.94,28,14.66A83.81,83.81,0,0,1,86.91,57.24c1.48,6.47,3.49,16.43-2.54,21.1Zm-.06-.08c5.94-4.66,3.88-14.57,2.37-21A86.16,86.16,0,0,0,64.43,19.19c-4.91-4.85-12.75-10.57-19.51-5.87-6.44,4.54-6.25,13.48-4.35,20.36,1.94,7.21,5.79,13.72,10.19,19.7,5.59,7.46,23.11,31.4,33.55,24.88Z"/>
    </g>
    <g>
      <path class="a4a59477-3cdb-4856-beb8-c5d2f7d1a6d4" d="M82.32,79.54C75,87.89,53.78,72.61,40.62,61.13s-19.83-26.62-12.55-35,21.22-.31,34.38,11.17S89.6,71.2,82.32,79.54Z"/>
      <path class="badad621-dee9-4385-b2f5-7027718017d6" d="M82.35,79.58C74,88.6,50.64,69.77,43.29,64,37.48,59.39,32,54,28.18,47.44,24.43,41,22,31.81,27.41,25.55c8.77-9.34,23.08,1.32,30.71,7.36A83.76,83.76,0,0,1,79.64,58.5c3,5.91,7.41,15.07,2.71,21.08Zm-.07-.07c4.61-6,.18-15.07-2.85-20.9A86.1,86.1,0,0,0,48.52,27.12c-6-3.5-15-7.12-20.36-.91-5.13,6-2.75,14.6.78,20.81,3.65,6.51,9,11.88,14.71,16.59,7.25,5.87,30.1,24.78,38.63,15.9Z"/>
    </g>
  </g>
</svg>
