<svg id="e7050a6a-0009-4967-9fe4-be535a9f36dc" data-name="Layer 1" xmlns="http://www.w3.org/2000/svg" width="26.97" height="30.02" viewBox="0 0 26.97 30.02">
  <defs>
    <style>
      .aea6351c-9b11-43d6-b03c-ac639b861ae0 {
        fill: #fff;
      }

      .a773d590-abc9-47d4-ae69-05f8f3a20a5c {
        fill: #1d2a2d;
      }

      .ee991a87-c558-4b6e-984e-88362fd7d6a4 {
        fill: #16272b;
      }

      .a6879fed-e24c-489b-8244-188880e88d4a {
        fill: #daecef;
      }

      .bf81114d-cbae-4bc3-b227-a0bd313e9960 {
        fill: #301904;
        stroke: #211003;
        stroke-miterlimit: 10;
        stroke-width: 0.25px;
      }
    </style>
  </defs>
  <g>
    <g>
      <g>
        <ellipse class="aea6351c-9b11-43d6-b03c-ac639b861ae0" cx="13.49" cy="15.01" rx="11.89" ry="13.33"/>
        <path class="a773d590-abc9-47d4-ae69-05f8f3a20a5c" d="M25.43,15a14.41,14.41,0,0,1-3.18,9.26,11.74,11.74,0,0,1-8.76,4.55,11.9,11.9,0,0,1-9.23-4.16A15.08,15.08,0,0,1,.7,15,15.05,15.05,0,0,1,4.26,5.37a11.88,11.88,0,0,1,9.23-4.16,11.73,11.73,0,0,1,8.76,4.54A14.41,14.41,0,0,1,25.43,15Zm-.1,0a14.21,14.21,0,0,0-3.26-9.1,11.22,11.22,0,0,0-8.58-4.15A11.25,11.25,0,0,0,4.92,5.92,14.19,14.19,0,0,0,1.7,15,14.19,14.19,0,0,0,4.92,24.1a11.25,11.25,0,0,0,8.57,4.16,11.25,11.25,0,0,0,8.58-4.14A14.26,14.26,0,0,0,25.33,15Z"/>
      </g>
      <ellipse class="ee991a87-c558-4b6e-984e-88362fd7d6a4" cx="14.06" cy="15.36" rx="7.62" ry="8.54"/>
      <ellipse class="a6879fed-e24c-489b-8244-188880e88d4a" cx="17.71" cy="11.29" rx="2.39" ry="2.68"/>
    </g>
    <path class="bf81114d-cbae-4bc3-b227-a0bd313e9960" d="M2,11.52s11.92-10.6,23,0c0,0-2.4-10.45-13.32-9.68C11.64,1.84,4.36,2.71,2,11.52Z"/>
  </g>
</svg>
