<svg id="aa6373a2-085e-40fc-81e7-e2b95ceba178" data-name="Layer 1" xmlns="http://www.w3.org/2000/svg" width="129.41" height="128.94" viewBox="0 0 129.41 128.94">
  <defs>
    <style>
      .ef6a1855-4816-4faa-9aa9-7e987d141c8a {
        fill: #bcfde5;
      }

      .fad41079-3f21-4494-ae2d-4ea7e5be5d98 {
        fill: #ebf7f2;
      }
    </style>
  </defs>
  <g>
    <g>
      <path class="ef6a1855-4816-4faa-9aa9-7e987d141c8a" d="M121.29,51.69c-2.73,15-38.58,11.89-62.21,7.6S16.93,41.81,19.65,26.83s24.85-15.3,48.47-11S124,36.71,121.29,51.69Z"/>
      <path class="fad41079-3f21-4494-ae2d-4ea7e5be5d98" d="M121.34,51.7a10,10,0,0,1-1.46,3.55,10.74,10.74,0,0,1-2.7,2.72,21.24,21.24,0,0,1-7,3.16A63.63,63.63,0,0,1,95,63a187.18,187.18,0,0,1-30.64-2.32c-10.13-1.37-20.34-3.93-29.41-9a39.92,39.92,0,0,1-12-9.95,21.64,21.64,0,0,1-3.68-7,17,17,0,0,1-.46-8,15.74,15.74,0,0,1,1.27-3.86,14.18,14.18,0,0,1,2.32-3.36,18.24,18.24,0,0,1,6.71-4.33,33.46,33.46,0,0,1,7.62-1.89,61.3,61.3,0,0,1,7.76-.52,108.5,108.5,0,0,1,15.4,1.21,132,132,0,0,1,15.12,3,115.91,115.91,0,0,1,28.3,11.91,59.76,59.76,0,0,1,12.23,9.28,25.38,25.38,0,0,1,4.55,6.18A12,12,0,0,1,121.34,51.7Zm-.1,0a11.87,11.87,0,0,0-1.3-7.39,25.5,25.5,0,0,0-4.55-6.13A59.3,59.3,0,0,0,103.16,29,114.08,114.08,0,0,0,74.84,17.39a128.28,128.28,0,0,0-15.08-2.8,108.73,108.73,0,0,0-15.29-1.06,59.09,59.09,0,0,0-7.64.55,32.59,32.59,0,0,0-7.41,1.86,17.2,17.2,0,0,0-6.34,4.13,13.4,13.4,0,0,0-2.15,3.13,15.24,15.24,0,0,0-1.17,3.61,16.2,16.2,0,0,0,.41,7.55,20.87,20.87,0,0,0,3.49,6.75,39.1,39.1,0,0,0,11.67,9.76c8.9,5.1,19,7.78,29.07,9.25A185.12,185.12,0,0,0,95,62.74,63.09,63.09,0,0,0,110.14,61a21.49,21.49,0,0,0,7-3.1,11.09,11.09,0,0,0,2.69-2.69A9.81,9.81,0,0,0,121.24,51.68Z"/>
    </g>
    <g>
      <path class="ef6a1855-4816-4faa-9aa9-7e987d141c8a" d="M115.22,52.86C124.48,64.94,98.11,89.42,79.06,104s-41.26,19.49-50.53,7.41,5.35-28.68,24.41-43.3S106,40.78,115.22,52.86Z"/>
      <path class="fad41079-3f21-4494-ae2d-4ea7e5be5d98" d="M115.26,52.83a9.79,9.79,0,0,1,1.65,3.46,11,11,0,0,1,.2,3.83,21.2,21.2,0,0,1-2.36,7.3A63.4,63.4,0,0,1,105.89,80a187.27,187.27,0,0,1-22.3,21.14c-7.82,6.59-16.58,12.43-26.45,15.72A40,40,0,0,1,41.72,119,21.67,21.67,0,0,1,34,117a17.3,17.3,0,0,1-6.23-5,15.86,15.86,0,0,1-2-3.54,14.71,14.71,0,0,1-.93-4,18.16,18.16,0,0,1,1.3-7.89,33.53,33.53,0,0,1,3.72-6.91,59.34,59.34,0,0,1,4.83-6.1A109,109,0,0,1,45.94,73a130.85,130.85,0,0,1,12.37-9.2,115.44,115.44,0,0,1,27.83-13A60.13,60.13,0,0,1,101.23,48a25.47,25.47,0,0,1,7.63.78A12,12,0,0,1,115.26,52.83Zm-.08.06a11.89,11.89,0,0,0-6.35-4,25.58,25.58,0,0,0-7.6-.74,58.89,58.89,0,0,0-15,2.89,114.12,114.12,0,0,0-27.6,13.2A129.07,129.07,0,0,0,46.4,73.51a109.82,109.82,0,0,0-11,10.63,61.09,61.09,0,0,0-4.73,6A32.8,32.8,0,0,0,27,96.9a17.23,17.23,0,0,0-1.21,7.47,13.87,13.87,0,0,0,.88,3.7,14.94,14.94,0,0,0,1.89,3.29,16.29,16.29,0,0,0,5.87,4.77,20.75,20.75,0,0,0,7.34,1.94A39.09,39.09,0,0,0,56.88,116c9.75-3.17,18.49-8.82,26.37-15.32a184.06,184.06,0,0,0,22.46-20.87,63,63,0,0,0,8.89-12.45A21.16,21.16,0,0,0,117,60.11a10.79,10.79,0,0,0-.19-3.8A9.51,9.51,0,0,0,115.18,52.89Z"/>
    </g>
  </g>
</svg>
