<svg id="Layer_1" data-name="Layer 1" xmlns="http://www.w3.org/2000/svg" width="180" height="120" viewBox="0 0 180 120">
  <defs>
    <style>
      .cls-1 {
        opacity: 0.2;
      }

      .cls-2 {
        fill: #2e6300;
      }

      .cls-3 {
        fill: #42a90e;
      }

      .cls-4 {
        fill: #5bb900;
      }

      .cls-10, .cls-5 {
        fill: #50ca0a;
      }

      .cls-6 {
        fill: #71dd2a;
      }

      .cls-7 {
        fill: #307206;
      }

      .cls-8 {
        fill: #e5f550;
      }

      .cls-9 {
        fill: #509b00;
      }

      .cls-10, .cls-22 {
        stroke: #33560a;
        stroke-miterlimit: 10;
        stroke-width: 0.5px;
      }

      .cls-11 {
        fill: #d1ca3b;
      }

      .cls-12 {
        fill: #510000;
      }

      .cls-13 {
        fill: #7c0000;
      }

      .cls-14 {
        fill: #c85a5f;
      }

      .cls-15 {
        fill: #eb7d86;
      }

      .cls-16 {
        fill: #99252e;
      }

      .cls-17 {
        fill: #752a2a;
      }

      .cls-18 {
        fill: #b28f00;
      }

      .cls-19 {
        fill: #fccdd1;
      }

      .cls-20 {
        fill: #4aaa0c;
      }

      .cls-21 {
        fill: #66d61e;
      }

      .cls-22 {
        fill: none;
      }
    </style>
  </defs>
  <g>
    <ellipse class="cls-1" cx="90" cy="93.5" rx="85.15" ry="20.13"/>
    <g>
      <g>
        <g>
          <path class="cls-2" d="M63.39,81.27c-6.87,0-15.66-3.71-21.12-9.12-5.18-5.14-4.87-7.7-4.22-8.77,1-1.7,3.93-1.73,6.15-.78l-.09.24c-2.13-.92-4.9-.91-5.86.68-.6,1-.87,3.43,4.18,8.44,6.1,6.05,16.37,10,23.4,8.88,2.79-.42,4.81-1.62,5.84-3.47l.2.13c-1.06,1.91-3.14,3.16-6,3.59A16.5,16.5,0,0,1,63.39,81.27Z"/>
          <g>
            <path class="cls-3" d="M71.77,77.44c-3.89,7-20.48,3.49-29.42-5.39s-2.67-11.26,1.8-9.33"/>
            <path class="cls-4" d="M19.54,83.61s2.38.07,1.37,3.35c3.87-2.4,14.89-1.35,18.52-5.56C32.1,79,26.19,83.8,19.54,83.61Z"/>
            <path class="cls-2" d="M20.7,87.24l.09-.32a2.93,2.93,0,0,0,0-2.5,1.64,1.64,0,0,0-1.22-.68v-.25a25.79,25.79,0,0,0,7.83-1.43,28.07,28.07,0,0,1,7.77-1.48,13.35,13.35,0,0,1,4.32.7l.18.06-.12.15c-2.16,2.5-6.93,3.17-11.14,3.77-3,.42-5.83.83-7.41,1.81Zm-.33-3.5a1.6,1.6,0,0,1,.58.53,3,3,0,0,1,.16,2.43c1.65-.9,4.37-1.28,7.24-1.69,4.09-.58,8.7-1.24,10.86-3.55a13.21,13.21,0,0,0-4.07-.62,27.63,27.63,0,0,0-7.7,1.46A28.84,28.84,0,0,1,20.37,83.74Z"/>
            <path class="cls-3" d="M40.87,67.12C45.39,73,45.33,73.31,51,77.19a20.82,20.82,0,0,0,7.42,3.2c1.83.35,5.86,2,4.46,5.14-1.71,3.9-7.15.4-9.48-1.11a9.56,9.56,0,0,0-5.48-1.53,19.65,19.65,0,0,0-5.81,1.59c-2.64,1.07-8.47,3.39-12.24,6.18s-9.63,4.12-11.24.55c-1-2.27.52-4.89,5-6.06,4-1.05,10.12-1.55,14.34-3.51-4.46-.79-8.65.74-11.52,1.67s-6.66,1.52-8.85.76c-3.38-1.18-2.36-7.38,4.76-7.38,7,0,17,1.17,18.36-.43-15.22-13.07-3.76-18.54,3.45-13.54"/>
            <path class="cls-5" d="M49,78.45a43.83,43.83,0,0,1-4.9-3.78c-3.46-3.34-4.44-6.12-5.25-9.91C38.1,61.3,36.9,61,36,61.31c-3.94,1.32-4.93,6.69,4.69,15-1.36,1.6-11.41.43-18.36.43-4.05,0-6.13,2-6.54,4-.17.77.9,2,3.29,2.24a22.06,22.06,0,0,0,7-1c2.87-.92,7.37-1,11.83-.2-4.22,2-10.35,2.46-14.34,3.51-3.44.9-5.07,2.65-5.31,4.43-.15,1.14.84,2.3,3.05,2.29,2.38,0,6.18-2.12,8.13-3.56,3.77-2.79,9.94-4.92,12.59-6a14.9,14.9,0,0,1,6.06-1.06A1.49,1.49,0,0,0,49,78.45Z"/>
            <path class="cls-6" d="M24.43,85.94a9.52,9.52,0,0,0-4.79,1.9c-1.4,1.3.24,1.67,1.3,1a35.31,35.31,0,0,1,3.95-2.53C25.19,86.11,25.27,85.81,24.43,85.94Z"/>
            <path class="cls-6" d="M22.21,77.57a7.09,7.09,0,0,0-3.83.64c-1.23.75-.06,1.29.83.92a25,25,0,0,1,3.3-1.25C22.76,77.82,22.86,77.61,22.21,77.57Z"/>
            <path class="cls-2" d="M22.51,93.5a6.12,6.12,0,0,1-1.59-.2,3.61,3.61,0,0,1-2.43-2,3.3,3.3,0,0,1,0-2.78c.69-1.55,2.5-2.77,5.11-3.45,1.36-.36,3-.65,4.66-1a45.46,45.46,0,0,0,9.27-2.37c-4-.58-7.69.64-10.44,1.53l-.6.2c-2.65.86-6.58,1.57-8.93.76a3,3,0,0,1-1.9-3.35c.32-2.12,2.51-4.27,6.7-4.27,2.1,0,4.5.1,6.82.21,5,.22,10.22.45,11.36-.51-9.05-7.81-7.74-12-6.74-13.44,1.84-2.69,6.72-2.79,10.44-.22l-.13.22C40.54,60.36,35.71,60.44,34,63c-2,2.89.55,7.82,6.8,13.19l.1.08-.08.1c-1,1.15-6.16.92-11.64.68-2.32-.1-4.72-.21-6.81-.21-4.05,0-6.16,2-6.47,4.06A2.67,2.67,0,0,0,17.62,84c2.29.79,6.16.08,8.78-.76L27,83c2.87-.93,6.79-2.22,11-1.48l.39.07-.37.17c-2.79,1.3-6.47,2-9.71,2.57-1.69.31-3.29.6-4.64,1-2.54.66-4.3,1.84-4.95,3.32a3,3,0,0,0,0,2.56A3.35,3.35,0,0,0,21,93.05c2.33.65,5.94-.37,8.79-2.49,3.73-2.76,9.42-5,12.16-6.15l.11,0a19.68,19.68,0,0,1,5.84-1.6,9.7,9.7,0,0,1,5.55,1.54c1.74,1.13,5.36,3.48,7.69,2.74a2.66,2.66,0,0,0,1.62-1.57,2.63,2.63,0,0,0,0-2.29c-.79-1.61-3.23-2.45-4.4-2.67a21.26,21.26,0,0,1-7.46-3.22c-4.94-3.4-5.28-3.83-8.55-7.93-.48-.61-1.49-2.25-1.49-2.25.64.79,1.19,1.48,1.67,2.09,3.32,4.16,3.59,4.5,8.5,7.88a20.83,20.83,0,0,0,7.37,3.18c1.31.25,3.74,1.11,4.57,2.8a2.87,2.87,0,0,1,0,2.51,2.92,2.92,0,0,1-1.77,1.71c-2.43.78-6.12-1.61-7.89-2.76A9.41,9.41,0,0,0,47.89,83a19.45,19.45,0,0,0-5.76,1.58l-.11.05c-2.73,1.09-8.41,3.37-12.11,6.12A13.27,13.27,0,0,1,22.51,93.5Z"/>
          </g>
        </g>
        <path class="cls-7" d="M36.69,61.23s1.32.1,2,2.72,1.25,6.66,5.2,10.49,5,3.38,6,4.81,7.28.41,8.84,1.07,3.81,1,4.66.7S60,70.3,59.81,70.25s-19-8.91-19-8.91A8.41,8.41,0,0,0,36.69,61.23Z"/>
        <path class="cls-8" d="M33.4,64.31a4.63,4.63,0,0,1,2.85.93,3.44,3.44,0,0,1-.65,5.51S32.69,67.53,33.4,64.31Z"/>
        <circle class="cls-8" cx="41.94" cy="74.44" r="1.08"/>
      </g>
      <g>
        <path class="cls-9" d="M32.1,96.25s5.88-.36,4.65,5.51C39.38,99.1,46,95.22,49.26,90c-4.25.92-7.39,1.72-10.56,3.53A30.85,30.85,0,0,1,32.1,96.25Z"/>
        <path class="cls-4" d="M35.47,97.15c1.05.76,1.8,2.12,1.28,4.61,2.16-2.18,7-5.2,10.48-9.09C43.05,92.68,39.44,95.64,35.47,97.15Z"/>
        <path class="cls-2" d="M36.55,102.14l.08-.4a4.61,4.61,0,0,0-.52-3.81,5,5,0,0,0-3.81-1.56h-.19l0-.24a31.33,31.33,0,0,0,6.56-2.69c3.26-1.86,6.59-2.67,10.59-3.55l.29-.06-.16.26c-2.22,3.53-6,6.45-9,8.8a38.67,38.67,0,0,0-3.56,3Zm-3.65-6a4.79,4.79,0,0,1,3.39,1.63,4.57,4.57,0,0,1,.65,3.63c.84-.81,2-1.7,3.31-2.73,2.91-2.28,6.53-5.1,8.74-8.48-4,.88-7.07,1.66-10.24,3.46A30.28,30.28,0,0,1,32.9,96.15Z"/>
        <path class="cls-3" d="M51.6,68.08c-.87,2.86-1.91,15.24-2,16.93a25.27,25.27,0,0,1-11,3.83c-4.61.5-4.85-.13-8.38.67s-4.09,3.75-3,5.56S31,97.72,35,96.21s5.8-4,13.07-5.14a47.42,47.42,0,0,1-9.25,8.08c-7.47,5.18-2.9,11,2.43,8.32,2.86-1.47,5.59-6.08,6.74-8.74,1.29-3,4.72-8.5,7.9-8.67s6.11,3.54,10.32,3,4.93-3.75,3.34-5.33-6.75-.65-8.82-2.08-3.66-4.55-3.65-13.56"/>
        <path class="cls-5" d="M60.91,88.26c1.73,3.2,5.81,4.12,9,2.76a2.69,2.69,0,0,0-.4-3.26c-1.27-1.25-4.8-.92-7.23-1.46A1.34,1.34,0,0,0,60.91,88.26Z"/>
        <path class="cls-5" d="M43.76,102.91c2.1-2.37,4.2-8.47,8-12.26a10.15,10.15,0,0,1,3.33-2.82,3.64,3.64,0,0,0,2-3.93,36.21,36.21,0,0,0-1.91-8c-.6-1.69-2.58-4.39-4.31-4.21-.66,4.77-1.26,12-1.32,13.29a25.27,25.27,0,0,1-11,3.83c-4.61.5-4.85-.13-8.38.67s-4.09,3.75-3,5.56,3.71,1,7.68-.53S42.47,90,49.73,88.9c-.1.12-1.86,2.39-2,2.5a47.31,47.31,0,0,1-9,7.75c-2.92,2-4,4.16-3.92,5.83C35.86,108.16,41.67,105.28,43.76,102.91Z"/>
        <path class="cls-6" d="M40.2,98.75a11,11,0,0,0-4.25,4c-.93,1.89.85,1.58,1.64.41a40,40,0,0,1,3.08-4.24C40.9,98.66,40.91,98.34,40.2,98.75Z"/>
        <path class="cls-6" d="M33.79,90a9.92,9.92,0,0,0-5.33.92c-1.74,1-.09,1.82,1.18,1.29a37.52,37.52,0,0,1,4.29-1.65C34.39,90.4,34.76,90,33.79,90Z"/>
        <path class="cls-2" d="M38.59,108.28a3.8,3.8,0,0,1-3.42-1.86c-.87-1.65-.46-4.57,3.58-7.37a47.75,47.75,0,0,0,9-7.8,24.06,24.06,0,0,0-9.19,3.32A24.56,24.56,0,0,1,35,96.32c-4.36,1.67-7,.48-8-1.18a3.69,3.69,0,0,1-.25-3.22,4.42,4.42,0,0,1,3.34-2.53,15.93,15.93,0,0,1,4.2-.45,35.13,35.13,0,0,0,4.19-.23A24.85,24.85,0,0,0,49.5,84.93c.1-1.9,1.12-14.06,2-16.89l.22.08c-.86,2.84-1.9,15.24-2,16.89v.07l0,0A25.17,25.17,0,0,1,38.59,89a33.49,33.49,0,0,1-4.22.23,15.71,15.71,0,0,0-4.15.44A4.22,4.22,0,0,0,27.05,92a3.4,3.4,0,0,0,.23,3c1.18,2,4.2,2.42,7.68,1.09a24.16,24.16,0,0,0,3.49-1.74,24.37,24.37,0,0,1,9.6-3.41l.33,0-.23.26a47.2,47.2,0,0,1-9.27,8.11c-3.91,2.71-4.33,5.48-3.5,7s3.13,2.43,5.81,1.06,5.52-6,6.69-8.67c1.42-3.29,4.84-8.58,8-8.75a9,9,0,0,1,4.35,1.41c1.82.93,3.69,1.9,6,1.62,2-.24,3.46-1.17,3.89-2.55a2.57,2.57,0,0,0-.62-2.56c-.79-.78-2.6-.93-4.34-1.07s-3.44-.29-4.46-1C58.83,84.51,57,81.89,57,72.12h.24c0,9.71,1.92,12.29,3.6,13.45,1,.68,2.69.82,4.35,1,1.86.15,3.63.29,4.48,1.14a2.76,2.76,0,0,1,.68,2.82c-.46,1.48-2,2.47-4.08,2.73-2.35.28-4.34-.75-6.1-1.65a8.85,8.85,0,0,0-4.24-1.39c-3.16.17-6.62,5.87-7.79,8.6-1,2.37-3.75,7.24-6.8,8.8A6,6,0,0,1,38.59,108.28Z"/>
        <path class="cls-2" d="M48.15,91.16,48,91a20.31,20.31,0,0,0,2.58-3.65,8.3,8.3,0,0,1-1.2,2.32C48.92,90.24,48.48,90.79,48.15,91.16Z"/>
      </g>
      <path class="cls-3" d="M70.49,16.32c2.65-9.88,14-18.48,29.66,7.59,0,0,5.64-.1,7.71,3,1.75-.5,5.08,1.43,6.51,5.05s1.84,7.62,4.07,9.82c11.17,11,19.86,17.63,18,32.37-2.45,17-37.34,19.71-60.53,12.81S38,63.67,34.09,49.36c-4.12-.19-8.42-9.44-.86-12.47-.61-2.5,0-5.81,1.47-6.48C31.34,20.13,35.75,8.58,45,8.58c6.16,0,8.38,6.11,10,8.13,1.23.38,1.48-1.49,8.37-1.62A18.3,18.3,0,0,1,70.49,16.32Z"/>
      <path class="cls-10" d="M70.14,16.17c3.66-9.71,13.38-19,30,7.74a9.86,9.86,0,0,1,7.71,3c1.75-.5,5.61,1.58,7.23,5.49,1.48,3.6,1.83,7.62,4.06,9.82,11.17,11,19.27,15.81,15,29.44S111.67,84,82,72.61C59.39,63.92,43.26,62.17,39.37,47.85c-10.53,4.73-13.91-8.23-6.14-11-.44-.85-.28-5.73,1.23-6.4C29.84,9,43.82,6.24,49.55,10c3.07,2,3.82,4.72,5.41,6.74.3.05,1.3-1.78,8.37-1.62C67.14,15.17,69.23,15.7,70.14,16.17Z"/>
      <path class="cls-11" d="M138.12,75.3c-5.73,16-40.31,18.13-62.18,11.61C52.75,80,38,63.67,34.09,49.36a4.48,4.48,0,0,1-4-3.18c-.73-2.85,1.86-6.47,4-2,2.78,1,7.46,5.34,9.8,5.47s8.26-3.24,12.23-3.6,15.53,2.53,21.25,1.51S98.68,34.38,105.8,34c-.9-3.17,3-6.23,6.35-2.37,3.69,4.31,5.24,16.11-1.91,24.57C106.7,60.42,102,61.06,100.8,66,96.93,81.92,132.64,88.6,138.12,75.3Z"/>
      <path class="cls-8" d="M112.63,32.3a1.52,1.52,0,0,0-2.31.47c-1.19,1.26-.24,4.54-.71,4.54C102.21,34.73,92.72,43.89,87,50c-3.77,4-5.63,8.76-9.4,12.63-6.51,6.68-16.27,5.54-22.14,2.7-4-1.94-3.46-7.31-7-10.91C47,53,45.15,53.39,41.69,51.81c-2.93-1.34-5.7-5.65-8.79-7.17-1.15-.52-3.06-1-2.93.86a5.35,5.35,0,0,0,.11.68,4.48,4.48,0,0,0,4,3.18c2.22,8.17,8,17,16.84,24.36,6.09,4.84,16.81,8.76,23.89,9.82,12.43,1.85,25.5-.88,29.46-7.46C101.36,73.41,99.82,70,100.8,66c1.18-4.91,5.9-5.55,9.44-9.73C117.07,48.16,116,37,112.63,32.3Z"/>
      <g>
        <path class="cls-12" d="M92.67,40.93C83.92,47.25,78.78,57.35,75,61a13.9,13.9,0,0,1-7.08,3.29c-4.81.9-10.06.06-12.29-1.78C52.11,59.63,53.92,54,45,49.86c0,0,6-2.86,9.11-4a13.53,13.53,0,0,1,3.68-.74,50.48,50.48,0,0,1,11,.8C75.94,47,79.27,46.49,92.67,40.93Z"/>
        <path class="cls-13" d="M67.9,64.27c-4.81.9-10.06.06-12.29-1.78C52.11,59.63,53.92,54,45,49.86c0,0,6-2.86,9.11-4a13.53,13.53,0,0,1,3.68-.74C56,53.29,62.49,60.47,67.9,64.27Z"/>
        <path class="cls-14" d="M79.59,55.19A47.46,47.46,0,0,1,75,61c-4.32,4.13-12.92,4.4-17.48,2.58h0c-2.73-1.42-4.61-5.66-1.91-8.37s7.14-2.78,9.29-.63C72.05,49.61,79.27,52.3,79.59,55.19Z"/>
        <path class="cls-15" d="M68.55,62c3.43-1.37,7.85-4,5.71-7.58-1.91-3-8-1.47-10.87,1.31-.6-1.92-2.71-2.84-4.92-2.34a7.14,7.14,0,0,0-2.88,1.77,4.34,4.34,0,0,0-1.23,2.31C53.89,62.1,61.71,64.76,68.55,62Z"/>
        <path class="cls-16" d="M63.92,64.76a17.86,17.86,0,0,1-6.44-1.08h0a6.45,6.45,0,0,1-3.24-4.6,4.54,4.54,0,0,1,1.3-4,7.49,7.49,0,0,1,5.3-2.19,5.87,5.87,0,0,1,4.08,1.49,14.56,14.56,0,0,1,8.22-2.72c3.84,0,6.41,1.82,6.6,3.49v0l-.1.14a45.59,45.59,0,0,1-4.55,5.71c-2.45,2.34-6.51,3.69-11.14,3.69Zm-6.38-1.32h0a17.75,17.75,0,0,0,6.38,1.07h0c4.57,0,8.58-1.32,11-3.63a44.94,44.94,0,0,0,4.52-5.67l0-.06c-.21-1.55-2.68-3.21-6.35-3.21a14.37,14.37,0,0,0-8.17,2.72l-.07.06-.07-.07a5.65,5.65,0,0,0-4-1.48,7.29,7.29,0,0,0-5.14,2.11A4.27,4.27,0,0,0,54.45,59,6.18,6.18,0,0,0,57.54,63.44Z"/>
        <path class="cls-17" d="M61.72,59.25a3.56,3.56,0,0,1,.46-1.84,8.33,8.33,0,0,1,2.63-3l.14.21A8.13,8.13,0,0,0,61.72,59.25Z"/>
        <path class="cls-18" d="M63.92,64.76h0c-3.54,0-6.76-.83-8.39-2.17a9.43,9.43,0,0,1-2.5-4c-1.14-2.79-2.43-6-8.09-8.57l-.25-.12.25-.11c.06,0,6.05-2.88,9.12-4a16.12,16.12,0,0,1,5.6-.82,62,62,0,0,1,9.19.88,32.55,32.55,0,0,0,5.11.47c4.33,0,8.52-1.22,18.67-5.43l1-.41-.87.63C87,45.16,82.9,50.84,79.59,55.4a45.62,45.62,0,0,1-4.53,5.67C72.61,63.41,68.55,64.76,63.92,64.76ZM45.28,49.86a14.11,14.11,0,0,1,8,8.59,9,9,0,0,0,2.43,3.94c1.59,1.31,4.75,2.12,8.24,2.12,4.57,0,8.58-1.32,11-3.63a45,45,0,0,0,4.5-5.63c3.16-4.36,7.07-9.73,12.4-13.82C82.27,45.35,78.19,46.5,74,46.5A33,33,0,0,1,68.81,46a61.41,61.41,0,0,0-9.15-.88,15.89,15.89,0,0,0-5.52.81C51.43,47,46.44,49.31,45.28,49.86Z"/>
        <path class="cls-19" d="M62.38,58.25A5.93,5.93,0,0,1,65.52,55c.39-.18.73-.11.5,0a13.38,13.38,0,0,0-3.59,3.87C62.16,59.33,62.22,58.67,62.38,58.25Z"/>
        <path class="cls-19" d="M54.92,58.21A4.28,4.28,0,0,1,59,54c.42,0,.53.14.23.23a6.13,6.13,0,0,0-4,4.23C55,59,54.91,58.58,54.92,58.21Z"/>
      </g>
      <path class="cls-18" d="M101.08,90.47A90.93,90.93,0,0,1,75.91,87,69.88,69.88,0,0,1,47.7,71C40.89,64.54,36,56.89,34,49.48a4.6,4.6,0,0,1-4-3.27,4.36,4.36,0,0,1,.58-3.46,1.73,1.73,0,0,1,1.36-.81c.56,0,1.41.36,2.26,2.09a24.94,24.94,0,0,1,4.36,2.6c2,1.37,4.08,2.78,5.37,2.85C45,49.54,47,48.77,49.13,48a29.55,29.55,0,0,1,7-2.08c.23,0,.5,0,.79,0A63.37,63.37,0,0,1,64,46.6a80.84,80.84,0,0,0,10.38,1,16.56,16.56,0,0,0,2.94-.22c2.48-.44,6.92-3,11.61-5.79,5.93-3.47,12.64-7.4,16.68-7.68a3.46,3.46,0,0,1,.53-2.78,3.23,3.23,0,0,1,2.66-1.4,4.5,4.5,0,0,1,3.41,1.85c3.9,4.55,5.09,16.44-1.91,24.73a21.47,21.47,0,0,1-4.47,3.8c-2.27,1.58-4.24,3-5,5.88a9.33,9.33,0,0,0,1.64,8c3.57,4.87,12,8.28,20.63,8.28,7.47,0,13-2.63,14.83-7l.22.1c-1.77,4.92-6.49,8.91-13.65,11.54C118.18,89.23,110.06,90.47,101.08,90.47ZM31.91,42.19a1.51,1.51,0,0,0-1.17.72,4.06,4.06,0,0,0-.54,3.23,4.33,4.33,0,0,0,3.89,3.09h.09l0,.09c3.69,13.56,18,30.4,41.77,37.47a90.55,90.55,0,0,0,25.11,3.43c9,0,17-1.24,23.42-3.58,6-2.19,10.24-5.33,12.47-9.17-2.55,3.2-7.5,5-13.79,5h0c-8.65,0-17.21-3.44-20.82-8.38a9.55,9.55,0,0,1-1.68-8.2c.73-3,2.73-4.42,5-6a21,21,0,0,0,4.42-3.75c6.92-8.18,5.75-19.91,1.91-24.39A4.29,4.29,0,0,0,108.83,30a3,3,0,0,0-2.47,1.3,3.21,3.21,0,0,0-.45,2.71l0,.16h-.15c-4,.19-10.75,4.16-16.72,7.66-4.72,2.76-9.17,5.37-11.69,5.82a17,17,0,0,1-3,.22,80.94,80.94,0,0,1-10.41-1,62.58,62.58,0,0,0-7.1-.74c-.28,0-.54,0-.77,0a29.38,29.38,0,0,0-6.91,2C47,49.06,45,49.8,43.89,49.74c-1.35-.08-3.46-1.51-5.49-2.9a24,24,0,0,0-4.35-2.59h0l0-.05C33.18,42.54,32.41,42.19,31.91,42.19Z"/>
      <path class="cls-5" d="M34.08,44.14c3.81,1,6.71,6.91,10.9,6.57s7.37-3.62,12.85-4,14.25,3.52,21.44,1.94C89.19,46.5,98.46,35.33,105.79,34c0,0-32.88-.26-45.92,1.83S34.08,44.14,34.08,44.14Z"/>
      <g>
        <path class="cls-20" d="M34.17,44a8.84,8.84,0,0,1,3.5,2.17c2,1.83,4.21,4,6.17,4.31a7.12,7.12,0,0,0,3.39-.39c.7-.17,3.52-1.46,4.22-1.77A21.68,21.68,0,0,1,56,46.85c1.64-.27,2.6-.47,6.39.13s5.82,1.24,8.48,1.56a24.59,24.59,0,0,0,7.6.17c3.32-.45,6.91-2.46,9.37-3.94s7.12-4.94,8.15-5.66a47.5,47.5,0,0,1,6.32-4c1.69-.69,3-1.12,3-1.12a6.44,6.44,0,0,0-3-.54c-1.71.11-3.54,3.57-13.28,9.4s-14.84,5.21-17.13,4.64-8.27-2.21-14.13-2-8.89,3.1-12,4c-2.87.79-6.85-3.49-6.85-3.49S35.69,42.5,34.17,44Z"/>
        <path class="cls-2" d="M44.64,50.84c-2.26,0-4.15-1.74-6-3.43-1.45-1.34-3-2.72-4.59-3.15l.06-.25c1.68.45,3.21,1.85,4.69,3.21C40.7,49,42.66,50.77,45,50.58a16.32,16.32,0,0,0,5.42-1.76,20.14,20.14,0,0,1,7.42-2.2,34.09,34.09,0,0,1,8.05,1c4.29.86,9.15,1.84,13.38.91,5.21-1.15,10.15-4.72,14.92-8.17,4.17-3,8.12-5.86,11.61-6.48l0,.25c-3.44.61-7.36,3.44-11.51,6.44-4.8,3.46-9.76,7-15,8.21-4.28.94-9.16,0-13.47-.91a34.35,34.35,0,0,0-8-1,19.71,19.71,0,0,0-7.34,2.19A16.69,16.69,0,0,1,45,50.83Z"/>
      </g>
      <g>
        <path class="cls-2" d="M108.49,36.39c-2.94-3.36-6.18-2.92-6.21-2.92a4.14,4.14,0,0,1,2.58.11,7.78,7.78,0,0,1,2.47,1.36A5.31,5.31,0,0,1,108.49,36.39Z"/>
        <path class="cls-2" d="M36.12,42.51a5.29,5.29,0,0,0-3,3.86,3,3,0,0,1,.48-1.78,5.44,5.44,0,0,1,1.33-1.5A3.77,3.77,0,0,1,36.12,42.51Z"/>
      </g>
      <g>
        <path class="cls-2" d="M69.32,21.07a9.82,9.82,0,0,1,0-2.14,9.57,9.57,0,0,1,1.07-3.07l-.07.41A16.78,16.78,0,0,0,69.32,21.07Z"/>
        <g>
          <path class="cls-2" d="M55.61,20.41a11.48,11.48,0,0,0-1.56-4.89l.19.05a9.57,9.57,0,0,1,1.48,3.06A3.07,3.07,0,0,1,55.61,20.41Z"/>
          <path class="cls-21" d="M52.5,12.92c1.85,2.88,2.8,4.51,3.09,7,.07.57-.08.59-.2,0-.75-3.41-2.29-4.95-3.14-6.4C50.62,10.76,52.18,12.42,52.5,12.92Z"/>
        </g>
        <path class="cls-21" d="M69.73,18.25a19.26,19.26,0,0,1,4.39-8.74c1-1.09,1.16-.65.54.25a44.56,44.56,0,0,0-4.51,8.47C69.54,19.76,69.23,20.37,69.73,18.25Z"/>
      </g>
      <g>
        <path class="cls-8" d="M121.37,44.53s-1.69,2.12,0,4,4.73.48,4.73.48S121.57,44.6,121.37,44.53Z"/>
        <circle class="cls-8" cx="123.85" cy="55.44" r="2.78"/>
        <circle class="cls-8" cx="117.1" cy="59.79" r="1.57"/>
        <circle class="cls-8" cx="123.85" cy="62.4" r="1.05"/>
      </g>
      <g>
        <g>
          <path class="cls-9" d="M166.3,89.88s-4.73,1.18-4.09,4.29c-7.71-1.35-16.36-2.41-17.31-7,6.94-.63,9,.34,12.66,1.27A69,69,0,0,0,166.3,89.88Z"/>
          <path class="cls-2" d="M162.36,94.33l-.17,0-2-.35c-7.14-1.21-14.52-2.46-15.41-6.7l0-.14.13,0c1.5-.13,2.81-.2,4-.2A24.13,24.13,0,0,1,156.2,88c.44.12.9.25,1.39.37a66,66,0,0,0,8.72,1.39l.74.07-.73.18s-4.6,1.19-4,4.14Zm-17.32-7c1,4,8.21,5.19,15.18,6.37l1.84.32c-.35-2.39,2.37-3.64,3.61-4.08a63.74,63.74,0,0,1-8.14-1.33l-1.39-.37a23.79,23.79,0,0,0-7.26-1.09C147.73,87.15,146.47,87.21,145,87.33Z"/>
          <path class="cls-2" d="M145.93,88.37c-.38-.33-.75-.69-1.08-1a7.27,7.27,0,0,1-1.23-1.68,31.09,31.09,0,0,0,2.46,2.51Z"/>
          <g>
            <path class="cls-2" d="M131.07,84.55a4.25,4.25,0,0,1-2.84-2.4c-1.59-3.35-.28-9.28,1.47-13.71,3.67-9.31,9.16-13.54,11.88-13.58h0c.79,0,1.47.55,2,1.62l-.21.12c-.52-1-1.13-1.5-1.84-1.48-2.66,0-8,4.22-11.66,13.41-1.73,4.38-3,10.23-1.47,13.51a4,4,0,0,0,2.68,2.26Z"/>
            <g>
              <g>
                <path class="cls-7" d="M141.58,55c-2.61,0-8.08,4.15-11.77,13.5C127.35,74.7,126,83.1,131.1,84.42l12.42-27.88C143,55.55,142.36,55,141.58,55Z"/>
                <path class="cls-5" d="M141.58,55c-2.61,0-8.08,4.15-11.77,13.5-.31.78-.61,1.6-.87,2.44-.36,1.23.14,2.3,1,2.43,5.24.51,8.68-6.14,9.6-10.55l4-6.27C143,55.55,142.36,55,141.58,55Z"/>
                <path class="cls-4" d="M146.21,89.45c2.88,2.73,9.75,3.63,16,4.72a3,3,0,0,1,1.39-3C157.82,90.92,150.72,88,146.21,89.45Z"/>
                <path class="cls-3" d="M139.61,60.82c.41,6.51-8.45,21.09-9.41,24.15s-3.57,4.19-5.6,4.7-10,1.26-7.74,5.43,11.08,1.3,13-.55,3-3.43,4.52-3.43a19.41,19.41,0,0,1,7.19.61A63,63,0,0,1,154,98.13c4.36,2.86,11.19,5.64,13.58,2.4s-1.27-6.19-6.36-7.2c-4.51-.9-12.31-2.44-15.24-5,4.92-1.18,9.68.25,12.94,1.09s7.74,1.7,9.93.25c2.9-1.91,2.77-7.54-5.15-6.65-7.26.82-19.5,1.18-21.11-.5,3.31-5.65,3.78-27.54-1-27.48"/>
                <path class="cls-5" d="M139.61,60.82c.41,6.51-5.37,20.55-6.32,23.6s-6.66,4.74-8.69,5.25-10,1.25-7.74,5.43c1.38,2.56,9.7.58,12.1-2,1.82-2,4.27-4,5.76-4a23,23,0,0,1,7.06,1.26,58,58,0,0,1,12.59,5.9c2.49,1.63,7,3.63,10.16,3.83,2.94.19,3.82-1.28,3.82-1.56,0-2.4-3.08-4.41-7.1-5.21-4.21-.84-11.27-2.24-14.58-4.54a20.49,20.49,0,0,1-2.32-2.11c4.93-1.18,11.41.37,14.67,1.21s6.87,1.2,8.48.66c3.26-1.09,4.15-6.47-3.77-5.58-7.26.82-19.5,1.18-21.11-.5,3.31-5.65,3.78-27.54-1-27.48"/>
                <path class="cls-6" d="M161.32,83.64c1.91-.29,4.45-.53,5.59-.07,2.15.85.42,2-1.1,1.68-1.35-.31-2.69-.68-4.44-.94C160.63,84.2,160,83.84,161.32,83.64Z"/>
                <path class="cls-6" d="M160.22,93.73c1.91.46,4.62,1.25,5.59,2.18,1.71,1.63-.31,2.06-1.6,1.14s-2.28-1.68-3.82-2.59C159.74,94.08,159.06,93.45,160.22,93.73Z"/>
                <path class="cls-6" d="M122.13,91a8.81,8.81,0,0,0-4.49,1.46c-1.36,1.12.13,1.55,1.14,1a30.55,30.55,0,0,1,3.76-2.08C122.82,91.2,122.91,90.93,122.13,91Z"/>
              </g>
              <path class="cls-6" d="M138.78,56.49c1.23-.81,2.65-1.44,3.56-.78s1.72,3.32,2,5.44c.12.8-.14.8-.32.18-.66-2.19-1.58-4.14-2.26-4.55a3.76,3.76,0,0,0-2.93.19C137.83,57.34,138.09,56.94,138.78,56.49Z"/>
            </g>
          </g>
          <path class="cls-2" d="M164.17,102.09c-2.94,0-6.88-1.68-10.21-3.85a62.52,62.52,0,0,0-12.44-6.39,16,16,0,0,0-6.14-.64l-1,0c-1.12,0-2.05,1-3.32,2.27-.35.36-.72.74-1.12,1.13-1.31,1.28-6.25,3.21-9.85,2.62a4.3,4.3,0,0,1-3.32-2.1,2.52,2.52,0,0,1-.24-2.29c.86-2,4.64-2.66,6.9-3.09.47-.09.88-.17,1.16-.24,2.93-.73,4.78-2.28,5.51-4.61a48,48,0,0,1,2.37-5c2.85-5.63,7.15-14.15,7.15-19.08a4,4,0,0,1,.07,1.92c-.76,5.08-4.49,12.3-7,17.28a48.11,48.11,0,0,0-2.35,5c-.76,2.42-2.67,4-5.69,4.78l-1.16.24c-2.22.42-5.93,1.12-6.74,3a2.27,2.27,0,0,0,.24,2,4.05,4.05,0,0,0,3.15,2c3.53.58,8.37-1.31,9.65-2.55.4-.39.76-.77,1.11-1.13C132.2,92,133.15,91,134.37,91l1,0a16.37,16.37,0,0,1,6.23.65A63.25,63.25,0,0,1,154.09,98c4.94,3.24,11.25,5.38,13.42,2.43a2.94,2.94,0,0,0,.56-2.86c-.65-1.84-3.28-3.43-6.84-4.14h0c-4.61-.92-12.32-2.45-15.27-5.08l-.18-.16.23-.06c4.62-1.1,9.07.07,12.32.92l.68.18c5,1.28,8.17,1.37,9.83.27a3.57,3.57,0,0,0,1.53-4c-.3-.92-1.54-3-6.59-2.44-6.31.71-19.45,1.31-21.22-.54l-.07-.08,0-.08c2.65-4.5,3.62-20.7.89-25.84-.51-1-1.12-1.44-1.8-1.44h0v-.26c.78,0,1.47.52,2,1.58,1.25,2.34,1.86,7.26,1.62,13.16-.22,5.65-1.16,10.55-2.45,12.84,1.78,1.52,13.31,1.27,20.95.41,5.22-.6,6.53,1.63,6.85,2.61a3.84,3.84,0,0,1-1.63,4.27c-1.72,1.14-5,1.06-10-.24l-.68-.18c-3.17-.83-7.49-2-12-1,3,2.49,10.48,4,15,4.86h0c3.64.73,6.33,2.37,7,4.3a3.23,3.23,0,0,1-.6,3.1A4.12,4.12,0,0,1,164.17,102.09Z"/>
          <path class="cls-22" d="M141.86,55s-1.9-.51-5.51,2.81a29.72,29.72,0,0,0-8.57,17.63c-.86,7.86,2.55,8.83,2.55,8.83"/>
        </g>
        <circle class="cls-8" cx="140.22" cy="74.44" r="1.05"/>
        <ellipse class="cls-8" cx="136.35" cy="84.55" rx="1.95" ry="1.68"/>
        <path class="cls-8" d="M145,66s-1.78-.16-2.19.94c-.51,1.36.17,2.88,2.11,3.33C144.94,70.31,145.15,66.5,145,66Z"/>
      </g>
      <g>
        <g>
          <path class="cls-9" d="M122.9,102.58s-.14-4,5.54-3.63c-2.77-2.46-6.68-5.1-16.87-4.22C112.27,99.68,122.9,102.58,122.9,102.58Z"/>
          <path class="cls-4" d="M112.27,96.51c2.53,3.86,10.63,6.07,10.63,6.07a3.57,3.57,0,0,1,2.88-3.43A18.19,18.19,0,0,0,112.27,96.51Z"/>
          <path class="cls-2" d="M123,102.75l-.16,0c-.43-.12-10.71-3-11.42-8l0-.13h.13c1.33-.12,2.62-.18,3.8-.18,7.2,0,10.58,2.13,13.16,4.43l.28.25-.36,0c-2.1-.15-3.64.29-4.55,1.3a3.43,3.43,0,0,0-.87,2.2Zm-11.32-7.9c.8,4.42,9.82,7.2,11.08,7.57a3.61,3.61,0,0,1,.93-2.22,5.31,5.31,0,0,1,4.37-1.39c-2.52-2.17-5.87-4.12-12.73-4.12C114.22,94.69,113,94.74,111.71,94.85Z"/>
          <path class="cls-3" d="M104.74,61.1c1.14-1.66,4.82-2.49,6.36,4.59,2.76,12.66.79,23,1.62,23.85s5,2.34,8.73,2.21,10.66-.38,13.52,2.91.77,5.81-1.55,6.25-4.65-1.07-7.09-3-11.5-3.41-14.06-2.59c.58,2.29,5.72,5.24,10,6.38s8.22,3.41,7.5,7-5.94,2.88-8.54.59a7.91,7.91,0,0,1-1.93-2c-1-2-2.06-2.54-5.25-3.5-3.41-1-4.65-3-7-5.12s-4-3.54-6.31-3-4.71,2.72-7.21,3-5.42-2-4.58-4.17,4.58-3.72,9-2.78,6-2.4,6.55-4.73,2.38-11.17,1.31-14.77c-3.51-2.53-3.42-5.54-3.27-6.52"/>
          <path class="cls-5" d="M104.74,61.1c1.14-1.66,4.82-2.49,6.36,4.59,2.76,12.66.79,23,1.62,23.85s5,2.34,8.73,2.21,10.66-.38,13.52,2.91-.31,4.72-1.68,4.78c-2.35.11-3.93-1-6.37-3s-12.17-3.65-14.73-2.83a4.7,4.7,0,0,0,.15,1.91c.83,2.26,5.78,5.06,9.88,6.16s8.22,3.41,7.5,7-5.23,1.74-7.38-1-2.91-3.63-7.84-5.13c-3.42-1-4.38-2.81-6.77-4.89s-4.56-4.28-6.83-3.71-5.26,2.76-7.76,3-5.11-.31-4.27-2.46,4.58-3.72,9-2.78A7,7,0,0,0,106,87c.53-2.34,2.18-11.81,1.11-15.41a5.53,5.53,0,0,1-4.65-5.85"/>
          <path class="cls-6" d="M126.27,92.68c2,.09,4.86.35,6,1.09,2,1.28,0,2.08-1.39,1.43a45,45,0,0,0-4.71-2C125.61,93,125.14,92.63,126.27,92.68Z"/>
          <path class="cls-6" d="M122.89,102.64c1.69.48,4.2,1.43,5.6,3.08,1.53,1.81-.53,2-1.72,1s-2.19-2-3.74-3.18C122.48,103.08,121.89,102.35,122.89,102.64Z"/>
          <path class="cls-2" d="M126.1,111.4a8.71,8.71,0,0,1-5.28-2.23c-.33-.31-1.23-1.22-1.44-1.5-1.61-2.11-1.09-2.43-5.41-3.73a12.13,12.13,0,0,1-5.44-3.6c-.51-.5-1-1-1.63-1.54-2.32-2-4-3.5-6.21-3a14.08,14.08,0,0,0-3,1.35,12,12,0,0,1-4.21,1.63,5,5,0,0,1-4.33-2,2.49,2.49,0,0,1-.37-2.37c.83-2.13,4.55-3.83,9.12-2.85s5.92-2.5,6.42-4.64c.25-1.1,2.42-10.83,1.32-14.66a7.79,7.79,0,0,1-3.29-4.85,4.91,4.91,0,0,1,.12-1.75,7.24,7.24,0,0,0,3.34,6.42l0,0,0,0c1.12,3.78-.9,13-1.31,14.84s-1.89,5.86-6.69,4.83c-4.46-1-8.07.65-8.86,2.7a2.23,2.23,0,0,0,.34,2.12,4.81,4.81,0,0,0,4.12,1.87A11.75,11.75,0,0,0,97.56,97a14.25,14.25,0,0,1,3.07-1.36c2.33-.58,4,.92,6.42,3,.6.53,1.13,1.05,1.64,1.55a11.78,11.78,0,0,0,5.34,3.54c4.58,1.38,3.86,1.54,5.45,3.63.21.27,1.16,1.28,1.5,1.6,1.51,1.41,4.37,2.6,6.35,2.07a3,3,0,0,0,2.28-2.34c.83-4.17-4.91-6.18-7.42-6.86-4.26-1.15-9.43-4.08-10-6.47l0-.12.11,0c2.61-.84,11.66.6,14.16,2.61s4.82,3.42,7,3a3.49,3.49,0,0,0,2.71-2.21c.25-.81.25-2.14-1.23-3.84-2.81-3.22-9.69-3-13.38-2.86h0c-3.81.13-8-1.38-8.81-2.25-.31-.33-.29-1.48-.21-4A78.64,78.64,0,0,0,111,65.72c-.89-4-2.34-5.27-3.41-5.58a2.85,2.85,0,0,0-2.84,1A2.09,2.09,0,0,1,106,60a2.54,2.54,0,0,1,1.64-.05c1.13.32,2.67,1.59,3.58,5.76a79.28,79.28,0,0,1,1.45,19.93c-.07,2.09-.12,3.6.13,3.86.78.82,5,2.3,8.64,2.18h0c3.73-.13,10.68-.37,13.56,2.94,1.56,1.79,1.56,3.21,1.28,4.09a3.72,3.72,0,0,1-2.89,2.38c-2.26.43-4.51-.91-7.18-3.06-2.37-1.89-11.18-3.33-13.84-2.6.71,2.21,5.71,5.06,9.83,6.17,2.57.69,8.46,2.77,7.59,7.16a3.17,3.17,0,0,1-2.45,2.53A5,5,0,0,1,126.1,111.4Z"/>
          <path class="cls-2" d="M112.16,95.32a4.31,4.31,0,0,1-.13-1.21,2.81,2.81,0,0,1,.47-1.47,5.29,5.29,0,0,0-.11,2.62Z"/>
          <path class="cls-6" d="M106.33,60.41c2.14-.84,4.27,2.47,4.12,6.16,0,.44-.32.19-.42-.31-.78-3.92-2.35-5.06-3.37-5.37C106.09,60.72,106.12,60.5,106.33,60.41Z"/>
        </g>
        <path class="cls-8" d="M111.21,66.8s-2.55.64-2.11,4S112.27,74,112.27,74,111.59,67.29,111.21,66.8Z"/>
        <ellipse class="cls-8" cx="110.2" cy="80.71" rx="1.37" ry="1.21"/>
      </g>
      <ellipse class="cls-8" cx="52.36" cy="82.2" rx="1.53" ry="1.16" transform="translate(-30.28 30.54) rotate(-25.49)"/>
    </g>
  </g>
</svg>
