<svg id="b0dbd274-18f2-459c-99d9-8d42a09cf6dc" data-name="Layer 1" xmlns="http://www.w3.org/2000/svg" width="370" height="410" viewBox="0 0 370 410">
  <defs>
    <style>
      .e7b4b5fe-2228-49cc-a06a-00deae304559, .f84fdcfa-8c61-4e7f-bb70-5f5bd254c05b {
        fill: #ffe309;
        stroke-width: 0.75px;
      }

      .e7b4b5fe-2228-49cc-a06a-00deae304559 {
        stroke: #665608;
      }

      .a94cb932-ba8e-41c6-97e5-2b3f5a4c8e75, .e7b4b5fe-2228-49cc-a06a-00deae304559, .f84fdcfa-8c61-4e7f-bb70-5f5bd254c05b {
        stroke-miterlimit: 10;
      }

      .f84fdcfa-8c61-4e7f-bb70-5f5bd254c05b {
        stroke: #493c05;
      }

      .aab3f7e3-9ebb-4e9f-a782-0b81bd534123 {
        fill: #ecc516;
      }

      .a94cb932-ba8e-41c6-97e5-2b3f5a4c8e75 {
        fill: #532900;
        stroke: #3a1c03;
      }

      .bb3c83b7-e246-481e-a421-7987e10bbbf4 {
        fill: #681a1a;
      }

      .bad55cae-a2e7-4cf6-9b28-42912c5a857b {
        fill: #ef7089;
      }

      .b81e1065-1829-4b6e-91e1-0d9e05023c1d {
        fill: #ff5763;
      }

      .b12b0803-ce64-4ca2-bf9f-a3c05d8458d0 {
        fill: #fff;
      }

      .a31838af-7b99-4164-b8ec-a045ddea6585 {
        fill: #ef304c;
      }

      .a159d795-d14b-478e-b40b-831002da3791 {
        fill: #ffa979;
      }
    </style>
  </defs>
  <g>
    <path class="e7b4b5fe-2228-49cc-a06a-00deae304559" d="M249,356.74s-2.37,10.48,9.47,12.17,21-1.69,22,10.14,1,24.68-10.82,25.7-10.82-15.56-19.94-14.54-26-1.69-25-22.65S249,356.74,249,356.74Z"/>
    <g>
      <path class="e7b4b5fe-2228-49cc-a06a-00deae304559" d="M181.07,114s16.23.34,36.18-31.44,3-71-15.56-73.37-19.27,13.53-2.7,26,14.54,55.78-22.65,74C176.34,109.24,155,126.15,181.07,114Z"/>
      <path class="e7b4b5fe-2228-49cc-a06a-00deae304559" d="M131.71,109.24s4.73-29.41-1-49-25-62.89-53.76-53.76c0,0-8.45,5.74-5.07,13.18s10.82,9.81,18.26,5.75,47.67,30.09,34.48,82.16C124.6,107.55,125.62,122.09,131.71,109.24Z"/>
      <path class="e7b4b5fe-2228-49cc-a06a-00deae304559" d="M116,261.73s-3,8.11-46.15,12.68c0,0-17.5,2.28-27.39.25s-31.69-2.79-35.75,2.54-.76,11.41,9.38,7.6l10.4-2.28S14.3,286.33,21.14,299s12.68-10.39,12.68-10.39l-3.55,13.18s8.88,7.86,15.22-10.39c0,0,4.82,6.08,33.47,6.84S136,288.86,136,288.86Z"/>
      <path class="f84fdcfa-8c61-4e7f-bb70-5f5bd254c05b" d="M112.14,279.19c1,16.2,4.52,30.26,10.92,42.27a77.72,77.72,0,0,0,18.74,23.05h0a98.76,98.76,0,0,0,19.29,12.56c1.29.66,2.61,1.29,3.93,1.87a104.86,104.86,0,0,0,30.5,8.42c20.8,2.53,40.37-.89,55-4.8,3.51-.92,6.73-1.9,9.6-2.79,21.64-6.75,36.18-2.36,36.18-2.36-9.14-8.62-11.15-22.35-13.88-37.16-2.44-13.5-5.46-27.9-15-40.06-.49-.63-1-1.26-1.52-1.89a68.1,68.1,0,0,0-10.64-10,92.09,92.09,0,0,0-19.11-11.06,4.16,4.16,0,0,0-.54-.23,122.75,122.75,0,0,0-19.49-6.5,97.12,97.12,0,0,0-12.1-2.32c-25.69-2.71-30.43-22.34-30.43-22.34L112.09,259A180.61,180.61,0,0,0,112.14,279.19Z"/>
      <path class="aab3f7e3-9ebb-4e9f-a782-0b81bd534123" d="M113.45,276.44c11,4.72,24.26,6.25,40.23,6.25,33.08,0,60.2-12.36,62.55-28.06a97.49,97.49,0,0,0-16.43-6,76.93,76.93,0,0,0-10.2-2.15c-21.67-2.49-25.67-20.61-25.67-20.61l-51.88,30.59C111.76,263,113.11,270.55,113.45,276.44Z"/>
      <path class="a94cb932-ba8e-41c6-97e5-2b3f5a4c8e75" d="M249.54,361.81c3.5-.92,7.77-1.15,10.64-2,21.64-6.75,36.18-2.36,36.18-2.36-9.14-8.62-12-23.91-14.7-38.71C280.19,329.76,273.73,349.56,249.54,361.81Z"/>
      <path class="a94cb932-ba8e-41c6-97e5-2b3f5a4c8e75" d="M123.06,321.46a77.72,77.72,0,0,0,18.74,23.05h0c13.08,0,38-4.2,67.31-30,18-15.9,25-37.45,27-57.22a123.86,123.86,0,0,0-20-6.73c-1.81,15.58-8.79,40-33.39,55.5C158.64,321.26,136.34,322.58,123.06,321.46Z"/>
      <path class="a94cb932-ba8e-41c6-97e5-2b3f5a4c8e75" d="M165.05,358.94a104.86,104.86,0,0,0,30.5,8.42c15.11-2.27,36.21-8.39,51.44-24.83,18.65-20.06,21.41-42.85,20.46-62.34-.49-.63-1-1.26-1.52-1.89a68.1,68.1,0,0,0-10.64-10c-.4,15.18-4.39,40.7-24.86,58C206.24,346.78,176.61,356,165.05,358.94Z"/>
      <g>
        <path class="e7b4b5fe-2228-49cc-a06a-00deae304559" d="M52.34,202.88c-.86,35.78,29.51,57.08,66.39,65.41,0,0,.08,0,.11,0a171.53,171.53,0,0,0,37.48,4.05c51.09,0,77.59-26.87,74.78-78.6-2.1-38.88-23.94-76.47-59.87-88.83a79,79,0,0,0-25.83-4.22C94.27,100.72,53.6,149.89,52.34,202.88Z"/>
        <path class="aab3f7e3-9ebb-4e9f-a782-0b81bd534123" d="M116,266.84a172.72,172.72,0,0,0,37.47,4c51.1,0,77.6-26.63,74.78-77.89-2.1-38.53-23.94-75.78-59.86-88C184,116.08,213.13,143.47,212,192.45,210.58,256.08,158.59,272.34,116,266.84Z"/>
        <g>
          <g>
            <g>
              <g>
                <path class="bb3c83b7-e246-481e-a421-7987e10bbbf4" d="M88.09,210.5s0,17,8.19,29.8a30.11,30.11,0,0,0,8.48,9c13.13,9,30,8.36,41.9-7,.29-.31.52-.66.78-1A59.09,59.09,0,0,0,155,226.74s-31.18,4.22-57.5-10.09A66.48,66.48,0,0,1,88.09,210.5Z"/>
                <path class="bad55cae-a2e7-4cf6-9b28-42912c5a857b" d="M88.11,210.54a68.72,68.72,0,0,0,4.78,22,42.6,42.6,0,0,0,5.49,9.77,27.86,27.86,0,0,0,8.29,7.34A33.45,33.45,0,0,0,117,253.74a26.76,26.76,0,0,0,21-4.32,37.58,37.58,0,0,0,8-7.65l.05-.06a39.24,39.24,0,0,0,2.47-3.49c.79-1.23,1.52-2.49,2.21-3.77a66.49,66.49,0,0,0,3.56-8l.89,1.11a109.17,109.17,0,0,1-35.27-2.19l-2.16-.5c-.72-.17-1.43-.39-2.14-.59-1.41-.43-2.86-.75-4.24-1.28s-2.8-.95-4.18-1.48l-4.06-1.76c-1.36-.57-2.63-1.33-4-2s-2.61-1.37-3.86-2.15A60.73,60.73,0,0,1,88.11,210.54Zm0-.09a75.38,75.38,0,0,0,7.33,5c1.26.75,2.56,1.43,3.89,2.06s2.6,1.36,4,1.91A88,88,0,0,0,120,224.71,108.8,108.8,0,0,0,137.43,227a107.5,107.5,0,0,0,17.58-.39l.15,0,0,.14a65.26,65.26,0,0,1-3.59,8.12,49,49,0,0,1-4.79,7.49h0a37.79,37.79,0,0,1-8.23,7.84,28.19,28.19,0,0,1-10.41,4.46,27.9,27.9,0,0,1-11.33-.08,33.14,33.14,0,0,1-10.52-4.26,28.68,28.68,0,0,1-8.4-7.61,43.12,43.12,0,0,1-5.45-10,61.44,61.44,0,0,1-3.11-10.94c-.38-1.86-.64-3.75-.86-5.63A46.88,46.88,0,0,1,88.07,210.45Z"/>
              </g>
              <path class="b81e1065-1829-4b6e-91e1-0d9e05023c1d" d="M101.61,239.68c-3.72,5,1,8,4.23,10.21,11.8,8.39,30.37,6,41-8.34-2.92-2.22-8.16-4.07-17.53-3.19C129.35,238.36,112.51,231.61,101.61,239.68Z"/>
              <path class="b12b0803-ce64-4ca2-bf9f-a3c05d8458d0" d="M113.24,239a60,60,0,0,0,15.43,4,24.34,24.34,0,0,0,25.57-15.45l.06-.17s-30.42,4.55-56.74-9.77C95.6,224.79,97.66,232.8,113.24,239Z"/>
            </g>
            <path class="a31838af-7b99-4164-b8ec-a045ddea6585" d="M159.75,217.49a14.91,14.91,0,0,0-.48,1.57,10.76,10.76,0,0,0-.35,1.57,8.8,8.8,0,0,0,0,3.11,5.46,5.46,0,0,0,1.24,2.77,10,10,0,0,0,2.41,2.1l0,0a8.08,8.08,0,0,1-2.68-1.9,5.6,5.6,0,0,1-1.44-2.93,8.49,8.49,0,0,1,.15-3.29,12,12,0,0,1,1.16-3.07Z"/>
            <path class="a31838af-7b99-4164-b8ec-a045ddea6585" d="M82.82,213.17c.42-.23.83-.44,1.21-.7a12.39,12.39,0,0,0,1.13-.76,12.17,12.17,0,0,0,2-1.8,10.54,10.54,0,0,0,.86-1c.24-.37.48-.75.7-1.14a17.45,17.45,0,0,0,1.11-2.52h.05a10.19,10.19,0,0,1-.81,2.67,8.87,8.87,0,0,1-1.54,2.34,10.82,10.82,0,0,1-4.68,3Z"/>
          </g>
          <ellipse class="a159d795-d14b-478e-b40b-831002da3791" cx="180.77" cy="216.72" rx="14.45" ry="10.14"/>
          <ellipse class="a159d795-d14b-478e-b40b-831002da3791" cx="69.32" cy="189.46" rx="10.14" ry="14.45" transform="translate(-132.03 176.89) rotate(-66.33)"/>
        </g>
      </g>
      <path class="e7b4b5fe-2228-49cc-a06a-00deae304559" d="M214.37,255.13s-6.84,7.36-1.77,14.71,28.4,2.54,41.84-4.31,28.15,4.82,28.15,4.82-4.06,17.75,3,19S293,275.42,293,275.42s7.36,8.88,5.58,18c0,0,4.57,5.57,8.62-3.55l-2-10.66,3.3,10.66s6.09-1.27,2.54-17.25-40.83-33.47-77.09-27.13C233.9,245.5,222.49,247.27,214.37,255.13Z"/>
      <path class="e7b4b5fe-2228-49cc-a06a-00deae304559" d="M267.77,313.21a8.28,8.28,0,0,0-12.53,7.7,18.28,18.28,0,0,0,4.95,11.82c7.43,7.44,19.94,14.54,32.45,10.14s17.92,5.75,22,11.84,16.91,5.07,16.23-9.81c0,0,0-19.95-16.57-28.06,0,0-6.42-5.07-25,1.35C277.89,322.12,273,316.44,267.77,313.21Z"/>
    </g>
  </g>
</svg>
