<svg id="f05aec6b-7729-44a5-8ca1-732ebfc6fefe" data-name="Layer 1" xmlns="http://www.w3.org/2000/svg" width="108.71" height="101.18" viewBox="0 0 108.71 101.18">
  <defs>
    <style>
      .af764229-5cc1-46bb-b7be-87d1d4b15c9b {
        fill: #bcfde5;
      }

      .b8f01bf4-fab5-4f12-a7f2-302e8ef6ceb8 {
        fill: #ebf7f2;
      }
    </style>
  </defs>
  <g>
    <g>
      <path class="af764229-5cc1-46bb-b7be-87d1d4b15c9b" d="M91.31,89.17C80,94.05,66,68.58,58.33,50.78s-7.15-36.15,4.14-41,21.41,9.83,29.11,27.63S102.6,84.28,91.31,89.17Z"/>
      <path class="b8f01bf4-fab5-4f12-a7f2-302e8ef6ceb8" d="M91.33,89.21a7.72,7.72,0,0,1-3,.62,9.13,9.13,0,0,1-3.05-.59A17.26,17.26,0,0,1,80,86a50.81,50.81,0,0,1-8.09-9.41A152,152,0,0,1,59.67,55C56,47.54,53.15,39.52,52.5,31.12a32.41,32.41,0,0,1,1.31-12.58,17.71,17.71,0,0,1,3.1-5.68,14,14,0,0,1,5.23-3.94A13.19,13.19,0,0,1,65.35,8a11.68,11.68,0,0,1,3.34.06,14.67,14.67,0,0,1,6,2.6A35.76,35.76,0,0,1,83.22,20,87,87,0,0,1,89.29,30.9,104.09,104.09,0,0,1,94,42.42,93.52,93.52,0,0,1,98.67,66.8a48,48,0,0,1-.76,12.37A20.38,20.38,0,0,1,95.79,85,9.72,9.72,0,0,1,91.33,89.21Zm0-.09a9.53,9.53,0,0,0,4.38-4.18,20.33,20.33,0,0,0,2.08-5.8,48.51,48.51,0,0,0,.69-12.33A92.38,92.38,0,0,0,93.52,42.6a102.72,102.72,0,0,0-4.87-11.38,88.49,88.49,0,0,0-6.14-10.75,35.06,35.06,0,0,0-8.36-9A13.83,13.83,0,0,0,68.54,9a10.82,10.82,0,0,0-3.06,0,12.57,12.57,0,0,0-3,.83,13.21,13.21,0,0,0-4.88,3.65,16.81,16.81,0,0,0-3,5.37,31.68,31.68,0,0,0-1.33,12.21c.56,8.26,3.27,16.22,6.81,23.66A149,149,0,0,0,72.1,76.42a50.65,50.65,0,0,0,8,9.41,17.1,17.1,0,0,0,5.19,3.28,8.62,8.62,0,0,0,3,.6A7.68,7.68,0,0,0,91.29,89.12Z"/>
    </g>
    <g>
      <path class="af764229-5cc1-46bb-b7be-87d1d4b15c9b" d="M87.81,85.61c-4,11.64-32.23,4.9-50.59-1.35S5.64,65.28,9.6,53.64s21.67-9.26,40-3S91.77,74,87.81,85.61Z"/>
      <path class="b8f01bf4-fab5-4f12-a7f2-302e8ef6ceb8" d="M87.86,85.63a7.92,7.92,0,0,1-1.59,2.66,8.68,8.68,0,0,1-2.48,1.86,17.49,17.49,0,0,1-6,1.7,51.47,51.47,0,0,1-12.4-.33,151.06,151.06,0,0,1-24.21-5.45c-7.94-2.28-15.82-5.53-22.48-10.69A32.54,32.54,0,0,1,10.3,66a17.63,17.63,0,0,1-2.13-6.12,14.16,14.16,0,0,1,.59-6.52,13.36,13.36,0,0,1,1.5-3,11.79,11.79,0,0,1,2.29-2.44,14.77,14.77,0,0,1,5.95-2.69,35.92,35.92,0,0,1,12.62-.08A87.76,87.76,0,0,1,43.29,48,104.29,104.29,0,0,1,55,52.19,93.81,93.81,0,0,1,76.18,65.13,48.22,48.22,0,0,1,84.84,74a20.46,20.46,0,0,1,2.89,5.49A9.74,9.74,0,0,1,87.86,85.63Zm-.1,0a9.59,9.59,0,0,0-.15-6.06,20.18,20.18,0,0,0-2.91-5.43A47.78,47.78,0,0,0,76,65.32,92.22,92.22,0,0,0,54.8,52.69a104.36,104.36,0,0,0-11.71-4A88,88,0,0,0,31,46a35,35,0,0,0-12.3.14,13.87,13.87,0,0,0-5.56,2.53,11.05,11.05,0,0,0-2.08,2.24,12.28,12.28,0,0,0-1.36,2.74,13.18,13.18,0,0,0-.58,6.07,16.73,16.73,0,0,0,2,5.8,31.55,31.55,0,0,0,8.15,9.19c6.5,5.13,14.21,8.47,22.1,10.84a148.89,148.89,0,0,0,24.09,5.74,50.49,50.49,0,0,0,12.34.4A17.08,17.08,0,0,0,83.72,90a8.5,8.5,0,0,0,2.47-1.82A7.65,7.65,0,0,0,87.76,85.6Z"/>
    </g>
  </g>
</svg>
