<svg id="fd995a5a-986e-44ce-9355-2d1843b55a59" data-name="Layer 1" xmlns="http://www.w3.org/2000/svg" width="84.35" height="60.71" viewBox="0 0 84.35 60.71">
  <defs>
    <style>
      .b0d6ebf1-5fda-4014-a745-9455d4283d98, .b736750f-2490-429a-a1ed-ada22e5926b2 {
        fill: #fff;
      }

      .b736750f-2490-429a-a1ed-ada22e5926b2 {
        stroke: #702840;
      }

      .b736750f-2490-429a-a1ed-ada22e5926b2, .ea3f101d-11b3-41bc-b721-81b5a27112a1 {
        stroke-miterlimit: 10;
        stroke-width: 0.75px;
      }

      .e455f676-c13c-443b-875c-2ba2ff227cb1 {
        fill: #210a11;
      }

      .ea3f101d-11b3-41bc-b721-81b5a27112a1 {
        fill: #ffe309;
        stroke: #665608;
      }
    </style>
  </defs>
  <g>
    <g>
      <g>
        <path class="b736750f-2490-429a-a1ed-ada22e5926b2" d="M38.65,38A24.24,24.24,0,0,1,38,41.68c-2.07,8.45-8.26,14.42-15,13.85C16,54.92,10.9,47.3,10.92,38c0-.78,0-1.58.12-2.38,1-10.33,8-18.18,15.58-17.52S39.63,27.68,38.65,38Z"/>
        <ellipse class="e455f676-c13c-443b-875c-2ba2ff227cb1" cx="21.02" cy="33.83" rx="8.46" ry="6.28" transform="translate(-13.46 53.76) rotate(-88.18)"/>
        <ellipse class="b0d6ebf1-5fda-4014-a745-9455d4283d98" cx="25.51" cy="31.69" rx="2.32" ry="1.72" transform="translate(-6.97 56.19) rotate(-88.18)"/>
      </g>
      <g>
        <path class="b736750f-2490-429a-a1ed-ada22e5926b2" d="M75.57,41.45c-.93,6.74-4.94,12-10.33,12.74-6.62.9-12.93-5.37-14.47-14.16-.07-.36-.12-.72-.17-1.09C49.41,29.58,54,21.23,60.93,20.29s13.46,5.88,14.65,15.25A22.9,22.9,0,0,1,75.57,41.45Z"/>
        <ellipse class="e455f676-c13c-443b-875c-2ba2ff227cb1" cx="59.5" cy="36.07" rx="5.71" ry="7.7" transform="translate(-5.73 11.86) rotate(-10.86)"/>
        <ellipse class="b0d6ebf1-5fda-4014-a745-9455d4283d98" cx="63.21" cy="33.93" rx="1.57" ry="2.11" transform="translate(-5.26 12.52) rotate(-10.86)"/>
      </g>
      <path class="e455f676-c13c-443b-875c-2ba2ff227cb1" d="M57.73,11.89s5.82-.06,13.2,6C70.93,17.91,59.79,1.75,57.73,11.89Z"/>
      <path class="e455f676-c13c-443b-875c-2ba2ff227cb1" d="M34.63,8.1s-6.38-.58-15.24,4.79C19.39,12.89,33.62-2.19,34.63,8.1Z"/>
    </g>
    <path class="ea3f101d-11b3-41bc-b721-81b5a27112a1" d="M38.65,38A24.24,24.24,0,0,1,38,41.68a57.6,57.6,0,0,1-14.5-.17,52.73,52.73,0,0,1-6.82-1.44,43.21,43.21,0,0,1-5.78-2c0-.78,0-1.58.12-2.38,1-10.33,8-18.18,15.58-17.52S39.63,27.68,38.65,38Z"/>
    <path class="ea3f101d-11b3-41bc-b721-81b5a27112a1" d="M75.57,41.45c-3.39,1.1-7.81,1.16-12.15.77-2.74-.25-5.44-.68-7.84-1.14-1.82-.35-3.47-.72-4.81-1-.07-.36-.12-.72-.17-1.09C49.41,29.58,54,21.23,60.93,20.29s13.46,5.88,14.65,15.25A22.9,22.9,0,0,1,75.57,41.45Z"/>
  </g>
</svg>
