<svg id="fb2347c6-097f-466e-b184-eedd72c661fb" data-name="Layer 1" xmlns="http://www.w3.org/2000/svg" width="132" height="118.94" viewBox="0 0 132 118.94">
  <defs>
    <style>
      .b61e508c-102b-466e-ab22-a91f1cc1a468 {
        fill: #bcfde5;
      }

      .bb9872e0-0a32-41a8-ae36-06a1fa0c2750 {
        fill: #ebf7f2;
      }
    </style>
  </defs>
  <g>
    <g>
      <path class="b61e508c-102b-466e-ab22-a91f1cc1a468" d="M111.7,105.11c-13.8,6-30.9-25.17-40.31-46.92S62.65,14,76.44,8s26.17,12,35.59,33.77S125.49,99.14,111.7,105.11Z"/>
      <path class="bb9872e0-0a32-41a8-ae36-06a1fa0c2750" d="M111.72,105.15a9.5,9.5,0,0,1-3.71.75,10.52,10.52,0,0,1-3.72-.73,20.72,20.72,0,0,1-6.42-4A62.31,62.31,0,0,1,88,89.66,183.75,183.75,0,0,1,73.12,63.24c-4.43-9.07-7.92-18.85-8.69-29.1A39.52,39.52,0,0,1,66,18.85,21.53,21.53,0,0,1,69.8,12,17,17,0,0,1,76.12,7.2,16.1,16.1,0,0,1,80,6.13a14.32,14.32,0,0,1,4,.07,17.9,17.9,0,0,1,7.24,3.14A32.69,32.69,0,0,1,97,14.56a59.34,59.34,0,0,1,4.68,6.09A106.54,106.54,0,0,1,109.1,34a125.93,125.93,0,0,1,5.83,14,113.77,113.77,0,0,1,5.72,29.76,59,59,0,0,1-.91,15.12,25.14,25.14,0,0,1-2.59,7.12A11.81,11.81,0,0,1,111.72,105.15Zm0-.09A11.75,11.75,0,0,0,117,99.94a24.61,24.61,0,0,0,2.53-7.09,58.53,58.53,0,0,0,.85-15.07,112.86,112.86,0,0,0-6-29.59,128.32,128.32,0,0,0-6-13.92A107.82,107.82,0,0,0,101,21.14a58.18,58.18,0,0,0-4.63-6,32.34,32.34,0,0,0-5.59-5.06,17.06,17.06,0,0,0-6.86-2.95,13.46,13.46,0,0,0-3.75-.05,15.17,15.17,0,0,0-3.61,1,16.15,16.15,0,0,0-6,4.47,20.53,20.53,0,0,0-3.63,6.57,38.61,38.61,0,0,0-1.62,14.93c.69,10.09,4,19.82,8.33,28.92A181.69,181.69,0,0,0,88.2,89.53,62.22,62.22,0,0,0,98,101a21,21,0,0,0,6.35,4,10.58,10.58,0,0,0,3.68.73A9.49,9.49,0,0,0,111.68,105.06Z"/>
    </g>
    <g>
      <path class="b61e508c-102b-466e-ab22-a91f1cc1a468" d="M107.41,100.76c-4.84,14.23-39.39,6-61.82-1.65S7,75.91,11.83,61.68,38.31,50.37,60.75,58,112.26,86.54,107.41,100.76Z"/>
      <path class="bb9872e0-0a32-41a8-ae36-06a1fa0c2750" d="M107.46,100.78a9.74,9.74,0,0,1-1.93,3.25,11.09,11.09,0,0,1-3,2.27,21.3,21.3,0,0,1-7.29,2.06,62.38,62.38,0,0,1-15.14-.42,183.94,183.94,0,0,1-29.57-6.72c-9.7-2.81-19.29-6.8-27.4-13.11A39.5,39.5,0,0,1,12.84,76.65a21.56,21.56,0,0,1-2.57-7.41A17,17,0,0,1,11,61.36a15.51,15.51,0,0,1,1.81-3.59,14,14,0,0,1,2.75-2.94,18,18,0,0,1,7.19-3.26,33,33,0,0,1,7.72-.73,59.19,59.19,0,0,1,7.65.63A105.52,105.52,0,0,1,53,54.89,128.61,128.61,0,0,1,67.29,60,114.12,114.12,0,0,1,93.18,75.76,58.7,58.7,0,0,1,103.76,86.6a25,25,0,0,1,3.54,6.69A11.85,11.85,0,0,1,107.46,100.78Zm-.09,0a11.82,11.82,0,0,0-.19-7.41,25.08,25.08,0,0,0-3.55-6.63A58.32,58.32,0,0,0,93,76a113,113,0,0,0-26-15.44,128.37,128.37,0,0,0-14.3-4.93A108.6,108.6,0,0,0,38,52.32a59.52,59.52,0,0,0-7.54-.58,32,32,0,0,0-7.5.74,16.82,16.82,0,0,0-6.79,3.1,13.31,13.31,0,0,0-2.56,2.74,15.72,15.72,0,0,0-1.67,3.36,16.15,16.15,0,0,0-.7,7.43,20.59,20.59,0,0,0,2.43,7.09,38.82,38.82,0,0,0,10,11.24c8,6.27,17.38,10.35,27,13.25a181.69,181.69,0,0,0,29.44,7,62.51,62.51,0,0,0,15.09.48,21,21,0,0,0,7.25-2,10.81,10.81,0,0,0,3-2.23A9.56,9.56,0,0,0,107.37,100.74Z"/>
    </g>
  </g>
  <g>
    <g>
      <path class="b61e508c-102b-466e-ab22-a91f1cc1a468" d="M110.84,108C96.45,113.94,79.34,81.38,70,58.68S61.83,12.77,76.23,6.86s26.86,13,36.18,35.65S125.23,102.12,110.84,108Z"/>
      <path class="bb9872e0-0a32-41a8-ae36-06a1fa0c2750" d="M110.86,108.08a10,10,0,0,1-3.86.71,11,11,0,0,1-3.84-.82,22,22,0,0,1-6.59-4.26,64.87,64.87,0,0,1-10-12.08,188.83,188.83,0,0,1-14.81-27.7C67.35,54.44,64,44.24,63.4,33.64a40.7,40.7,0,0,1,1.91-15.77,22,22,0,0,1,4-7A17.51,17.51,0,0,1,75.92,6a16.71,16.71,0,0,1,4-1,14.87,14.87,0,0,1,4.16.16,18.49,18.49,0,0,1,7.4,3.4,33.68,33.68,0,0,1,5.79,5.52,61.7,61.7,0,0,1,4.7,6.39,112.62,112.62,0,0,1,7.48,13.89A131.72,131.72,0,0,1,115.28,49a117.48,117.48,0,0,1,5.45,30.92,61,61,0,0,1-1.29,15.65,26,26,0,0,1-2.83,7.32A12.32,12.32,0,0,1,110.86,108.08Zm0-.1a12.1,12.1,0,0,0,5.65-5.19,25.63,25.63,0,0,0,2.76-7.29,60.37,60.37,0,0,0,1.17-15.59,116.34,116.34,0,0,0-5.64-30.76,131.29,131.29,0,0,0-5.89-14.52,111.52,111.52,0,0,0-7.52-13.74,61.29,61.29,0,0,0-4.68-6.28A33.07,33.07,0,0,0,91,9.27a17.36,17.36,0,0,0-7-3.19A13.64,13.64,0,0,0,80.05,6a15.26,15.26,0,0,0-3.75,1A16.69,16.69,0,0,0,70,11.45a21.43,21.43,0,0,0-3.88,6.73,40.05,40.05,0,0,0-2,15.42c.52,10.47,3.76,20.61,8.06,30.11A188.92,188.92,0,0,0,86.81,91.45a64.37,64.37,0,0,0,9.91,12.1,21.65,21.65,0,0,0,6.5,4.28,11,11,0,0,0,3.79.83A9.77,9.77,0,0,0,110.82,108Z"/>
    </g>
    <g>
      <path class="b61e508c-102b-466e-ab22-a91f1cc1a468" d="M106.49,103.45c-5.29,14.63-40.9,5.43-64-2.91S3,75.77,8.29,61.13,35.93,49.93,59,58.28,111.78,88.81,106.49,103.45Z"/>
      <path class="bb9872e0-0a32-41a8-ae36-06a1fa0c2750" d="M106.54,103.47a10,10,0,0,1-2.06,3.33,11,11,0,0,1-3.19,2.3,21.74,21.74,0,0,1-7.58,2A64.4,64.4,0,0,1,78,110.43a188.14,188.14,0,0,1-30.47-7.63c-10-3.13-19.78-7.5-28-14.17a41,41,0,0,1-10.4-12,22.23,22.23,0,0,1-2.52-7.7,17.59,17.59,0,0,1,.87-8.13A16.68,16.68,0,0,1,9.4,57.13a14.63,14.63,0,0,1,2.91-3A18.24,18.24,0,0,1,19.8,51a33.6,33.6,0,0,1,8-.59,61.15,61.15,0,0,1,7.89.82A112.58,112.58,0,0,1,51,55a134,134,0,0,1,14.74,5.52A117.22,117.22,0,0,1,92.29,77.23,60.74,60.74,0,0,1,103,88.69a26.12,26.12,0,0,1,3.52,7A12.33,12.33,0,0,1,106.54,103.47Zm-.1,0a12.13,12.13,0,0,0,0-7.67,25.91,25.91,0,0,0-3.54-7A60.53,60.53,0,0,0,92.08,77.48,116.61,116.61,0,0,0,65.51,61,134.2,134.2,0,0,0,50.79,55.6,113.63,113.63,0,0,0,35.56,52a59.88,59.88,0,0,0-7.79-.75,33.2,33.2,0,0,0-7.78.62,17.65,17.65,0,0,0-7.1,3.08,13.73,13.73,0,0,0-2.7,2.79A15.48,15.48,0,0,0,8.4,61.14a16.53,16.53,0,0,0-.87,7.67,21.32,21.32,0,0,0,2.37,7.4A40.1,40.1,0,0,0,20,88c8.1,6.65,17.79,11.06,27.72,14.25a188.27,188.27,0,0,0,30.34,7.83,63.9,63.9,0,0,0,15.62.79,21.54,21.54,0,0,0,7.53-1.94,10.89,10.89,0,0,0,3.17-2.25A9.66,9.66,0,0,0,106.44,103.43Z"/>
    </g>
  </g>
</svg>
