<svg id="e50aba77-28a7-4206-88e6-7cee754bee9d" data-name="Layer 1" xmlns="http://www.w3.org/2000/svg" width="63.76" height="52.71" viewBox="0 0 63.76 52.71">
  <defs>
    <style>
      .e7727342-4bd2-449b-ab78-bb34d740038b {
        fill: #bcfde5;
      }

      .fb1d14ad-a5f4-4c72-80a8-82be9dc1229e {
        fill: #ebf7f2;
      }
    </style>
  </defs>
  <g>
    <g>
      <path class="e7727342-4bd2-449b-ab78-bb34d740038b" d="M10.07,40c4.94,4.49,16.6-6.16,23.68-14s10-17.34,5.06-21.83S26.07,5.55,19,13.36,5.12,35.55,10.07,40Z"/>
      <path class="fb1d14ad-a5f4-4c72-80a8-82be9dc1229e" d="M10.1,40a4.25,4.25,0,0,0,3.07,1,9.31,9.31,0,0,0,3.22-.81,27.83,27.83,0,0,0,5.71-3.47,77.81,77.81,0,0,0,9.69-9.26,36,36,0,0,0,7.29-11,16.28,16.28,0,0,0,1.33-6.22,7.15,7.15,0,0,0-2.22-5.4,5.61,5.61,0,0,0-2.52-1.28,7.32,7.32,0,0,0-3,.22,18.15,18.15,0,0,0-5.65,3A51.25,51.25,0,0,0,22,11.12,56.52,56.52,0,0,0,17.42,16a49,49,0,0,0-7,11.38,26.21,26.21,0,0,0-1.85,6.42,11.19,11.19,0,0,0,0,3.32A5.2,5.2,0,0,0,10.1,40Zm-.07.08a5.3,5.3,0,0,1-1.55-3,10.88,10.88,0,0,1-.05-3.37,26.05,26.05,0,0,1,1.79-6.49A50.23,50.23,0,0,1,17,15.64a55,55,0,0,1,4.5-5,48.74,48.74,0,0,1,5.05-4.47A18.79,18.79,0,0,1,32.46,3a8,8,0,0,1,3.37-.28,6.55,6.55,0,0,1,3,1.49,8.09,8.09,0,0,1,2.48,6.13,17.22,17.22,0,0,1-1.46,6.56,36.34,36.34,0,0,1-7.68,11,81.52,81.52,0,0,1-10,9.07,27.74,27.74,0,0,1-5.79,3.44,9.49,9.49,0,0,1-3.28.78A4.4,4.4,0,0,1,10,40.08Z"/>
    </g>
    <g>
      <path class="e7727342-4bd2-449b-ab78-bb34d740038b" d="M12.49,38.83c0,6.68,15.72,8.16,26.26,8.16s19.56-4.24,19.56-10.92-9.52-8.55-20.06-8.55S12.49,32.15,12.49,38.83Z"/>
      <path class="fb1d14ad-a5f4-4c72-80a8-82be9dc1229e" d="M12.54,38.83a4.28,4.28,0,0,0,1.31,3,9.42,9.42,0,0,0,2.76,1.85A28,28,0,0,0,23,45.52a78.71,78.71,0,0,0,13.37,1,36.38,36.38,0,0,0,13-2,16.35,16.35,0,0,0,5.51-3.2,7.15,7.15,0,0,0,2.5-5.27,5.5,5.5,0,0,0-.74-2.73,7.12,7.12,0,0,0-2.15-2,17.9,17.9,0,0,0-6-2.17,51.13,51.13,0,0,0-6.57-.89,55.07,55.07,0,0,0-6.67-.12,48.93,48.93,0,0,0-13.11,2.47,25.91,25.91,0,0,0-6,2.94,10.94,10.94,0,0,0-2.45,2.25A5.19,5.19,0,0,0,12.54,38.83Zm-.1,0a5.35,5.35,0,0,1,1.15-3.14,11.25,11.25,0,0,1,2.46-2.31,26.66,26.66,0,0,1,6-3,50.25,50.25,0,0,1,13.16-2.8,58.29,58.29,0,0,1,6.74,0,48.54,48.54,0,0,1,6.7.75A18.87,18.87,0,0,1,55,30.5a8,8,0,0,1,2.47,2.31,6.42,6.42,0,0,1,.93,3.25A8.1,8.1,0,0,1,55.54,42a17,17,0,0,1-5.85,3.33A36.37,36.37,0,0,1,36.38,47,80.46,80.46,0,0,1,23,45.75a27.81,27.81,0,0,1-6.43-2,9.37,9.37,0,0,1-2.78-1.91A4.31,4.31,0,0,1,12.44,38.83Z"/>
    </g>
  </g>
</svg>
