<svg id="a1509bde-9cfd-4863-ad7b-f7a62f95e76a" data-name="Layer 1" xmlns="http://www.w3.org/2000/svg" width="180" height="200" viewBox="0 0 180 200">
  <defs>
    <style>
      .b01ab22e-0ec3-4e03-b155-f616e2a2ab9d, .be38efce-1e49-45ef-bf08-6be06ac6be3a {
        fill: #ffe309;
      }

      .be38efce-1e49-45ef-bf08-6be06ac6be3a, .e0b06837-aeea-4c96-bd88-7615b9483d54 {
        stroke: #665608;
      }

      .b01ab22e-0ec3-4e03-b155-f616e2a2ab9d, .bc0a848b-47d2-457b-8c49-cb46d65a5fe9, .be38efce-1e49-45ef-bf08-6be06ac6be3a, .e0b06837-aeea-4c96-bd88-7615b9483d54 {
        stroke-miterlimit: 10;
      }

      .b01ab22e-0ec3-4e03-b155-f616e2a2ab9d, .be38efce-1e49-45ef-bf08-6be06ac6be3a, .e0b06837-aeea-4c96-bd88-7615b9483d54 {
        stroke-width: 0.75px;
      }

      .b01ab22e-0ec3-4e03-b155-f616e2a2ab9d {
        stroke: #493c05;
      }

      .a07c2631-ae49-42da-883b-96e964da9f67 {
        fill: #ecc516;
      }

      .bc0a848b-47d2-457b-8c49-cb46d65a5fe9 {
        fill: #532900;
        stroke: #3a1c03;
      }

      .f15ba6d9-184d-4c66-9e67-7f2a80591c44 {
        fill: #681a1a;
      }

      .add01841-af69-4140-bc3c-2285b18ae936 {
        fill: #ef7089;
      }

      .a591baeb-6766-4b6c-b691-41b8fd92cd0c {
        fill: #ff5763;
      }

      .fdfce0ac-60a8-443b-a2b3-22e68287339e {
        fill: #fff;
      }

      .a1efd1a2-816a-496e-a4f9-89ec332aec1f {
        fill: #ef304c;
      }

      .acbe0b33-6176-4cb0-ad41-4d5d2f335a51 {
        fill: #ffa979;
      }

      .e0b06837-aeea-4c96-bd88-7615b9483d54 {
        fill: none;
      }
    </style>
  </defs>
  <g>
    <g>
      <g>
        <path class="be38efce-1e49-45ef-bf08-6be06ac6be3a" d="M52.74,169.53s1.77,5.47-4.46,6.94-11.26.1-11.23,6.46.64,13.21,7,13.18,5-8.81,9.94-8.71,13.8-2.14,12.26-13.27S52.74,169.53,52.74,169.53Z"/>
        <g>
          <path class="be38efce-1e49-45ef-bf08-6be06ac6be3a" d="M101.81,130.56s-2.25,4.05,10.86,23.2c0,0,5.14,7.92,9.4,11.25s8.89,11.17,8.12,14.67-4.1,6.28-6.07.83l.3-6.27s2.67,6.28-4.87,7.9-.16-8.78-.16-8.78l-4.14,6s-6.29-.89-1-9.81c0,0-4.15.15-14.41-11.26s-16-26.5-16-26.5Z"/>
          <path class="b01ab22e-0ec3-4e03-b155-f616e2a2ab9d" d="M122.39,145c-3.31,8-7.51,14.56-12.83,19.54A41.78,41.78,0,0,1,96.09,173h0a52.61,52.61,0,0,1-11.93,3c-.77.11-1.55.2-2.32.27a56,56,0,0,1-16.91-1c-11-2.3-20.3-7.41-27.06-11.92-1.62-1.07-3.08-2.12-4.38-3.07-9.8-7.16-17.93-7.44-17.93-7.44,6.12-2.79,9.51-9.4,13.44-16.43,3.57-6.43,7.58-13.2,14.53-17.71.36-.24.71-.47,1.1-.7a36.5,36.5,0,0,1,7.11-3.22,49.19,49.19,0,0,1,11.59-2.31l.32,0a66,66,0,0,1,11,.07,51.79,51.79,0,0,1,6.54.91c13.48,3.06,19.27-6.07,19.27-6.07l25.47,27.41A99,99,0,0,1,122.39,145Z"/>
          <path class="a07c2631-ae49-42da-883b-96e964da9f67" d="M122.2,143.37c-6.41.49-13.37-1-21.47-3.77C84,133.89,72.36,123,73.88,114.59a52.06,52.06,0,0,1,9.36-.2,39.81,39.81,0,0,1,5.54.67c11.41,2.47,16.56-6,16.56-6l21,24.45C125.38,136.84,123.39,140.44,122.2,143.37Z"/>
          <path class="bc0a848b-47d2-457b-8c49-cb46d65a5fe9" d="M38.51,163.16c-1.62-1.07-3.74-1.92-5-2.87-9.8-7.16-17.93-7.44-17.93-7.44,6.12-2.79,10.19-10,14.13-17.08C28.5,141.63,28.36,152.78,38.51,163.16Z"/>
          <path class="bc0a848b-47d2-457b-8c49-cb46d65a5fe9" d="M109.56,164.53A41.78,41.78,0,0,1,96.09,173h0c-6.62-2.25-18.54-8.68-28.92-26.83-6.38-11.16-6.21-23.29-3.84-33.66a66.81,66.81,0,0,1,11.31,0c-1.77,8.2-2.43,21.76,7.35,33.88C91.56,158.29,102.64,162.81,109.56,164.53Z"/>
          <path class="bc0a848b-47d2-457b-8c49-cb46d65a5fe9" d="M81.82,176.28a56,56,0,0,1-16.91-1c-7.27-3.75-16.9-10.5-21.78-21.45-6-13.39-3.46-25.41.38-35.12.36-.24.71-.47,1.1-.7a36.5,36.5,0,0,1,7.11-3.22c-2.41,7.76-4.79,21.38,2.59,33.68C63.05,163,76.48,172.77,81.82,176.28Z"/>
          <g>
            <path class="be38efce-1e49-45ef-bf08-6be06ac6be3a" d="M107.13,60.72S98.85,58.1,94.22,38.55,104.92,2,114.76,4.05s7.43,10.18-3.12,13.66-17,25.76-1.3,41.43C110.34,59.14,118.22,71.38,107.13,60.72Z"/>
            <path class="be38efce-1e49-45ef-bf08-6be06ac6be3a" d="M133,66.84s2.67-15.72,9-24.67,23.53-27.55,36.52-18c0,0,3.29,4.37.29,7.56s-7.17,3.1-10.24-.24-29.35,7-31.65,35.69C136.85,67.21,133.83,74.4,133,66.84Z"/>
            <g>
              <path class="be38efce-1e49-45ef-bf08-6be06ac6be3a" d="M157,128c-5.74,18.28-24.81,23.83-44.93,21.7a.06.06,0,0,1-.06,0,91.35,91.35,0,0,1-19.69-4.41c-25.9-8.81-34.69-27-24.34-52.73,7.77-19.34,25.33-34.62,45.66-34.69a42.37,42.37,0,0,1,13.82,2.32C153.4,69,165.53,100.91,157,128Z"/>
              <path class="a07c2631-ae49-42da-883b-96e964da9f67" d="M113.75,149.42A93.13,93.13,0,0,1,94.07,145c-25.9-8.82-34.73-26.88-24.46-52.37,7.71-19.16,25.2-34.27,45.52-34.28A54.76,54.76,0,0,0,77.91,95.16C67.66,127.64,91.2,144.85,113.75,149.42Z"/>
              <g>
                <g>
                  <g>
                    <g>
                      <path class="f15ba6d9-184d-4c66-9e67-7f2a80591c44" d="M137.6,125.67s-2.94,8.63-9.3,13.69a15.94,15.94,0,0,1-5.84,3.1c-8.21,2.29-16.67-.94-20-10.77-.09-.21-.15-.42-.22-.64a31.24,31.24,0,0,1-1.33-8.69s15.07,7.52,30.88,4.81A35.55,35.55,0,0,0,137.6,125.67Z"/>
                      <path class="add01841-af69-4140-bc3c-2285b18ae936" d="M137.63,125.64a22.71,22.71,0,0,1-1.07,2.91c-.41.93-.84,1.86-1.32,2.76a33.31,33.31,0,0,1-3.33,5.18,23.54,23.54,0,0,1-4.51,4.29,16,16,0,0,1-5.73,2.6,16.64,16.64,0,0,1-12.36-1.55,17.85,17.85,0,0,1-7.73-9.85l0,.07a22.36,22.36,0,0,1-.71-2.43c-.19-.79-.34-1.59-.46-2.4a35.9,35.9,0,0,1-.4-4.84l0-1.36,1.23.59a56,56,0,0,0,8.68,3.23,58.9,58.9,0,0,0,9.11,2,50.82,50.82,0,0,0,9.31.4c.78,0,1.55-.13,2.33-.2s1.56-.16,2.33-.29A45.18,45.18,0,0,0,137.63,125.64Zm-.07.07a30.39,30.39,0,0,1-4.5,1.27c-.77.16-1.55.28-2.33.38s-1.56.24-2.34.28a46.44,46.44,0,0,1-9.43-.16,59.66,59.66,0,0,1-9.26-1.81,58.31,58.31,0,0,1-8.86-3.23l.13-.08a33.77,33.77,0,0,0,.41,4.71,26.22,26.22,0,0,0,1.14,4.58h0a20.05,20.05,0,0,0,2.79,5.35,14.94,14.94,0,0,0,4.46,4,16.05,16.05,0,0,0,11.72,1.57c4-.79,7.41-3.4,10-6.47A37.29,37.29,0,0,0,137.56,125.71Z"/>
                    </g>
                    <path class="a591baeb-6766-4b6c-b691-41b8fd92cd0c" d="M116.17,132.92c6.55,1.46,10.87,6.85,6.7,9.5a8,8,0,0,1-3.8,1.05c-13.73-1.84-16.18-9.23-15.25-13.73,1.72-.22,3.55.62,8.21,2.52A34.25,34.25,0,0,1,116.17,132.92Z"/>
                    <path class="f15ba6d9-184d-4c66-9e67-7f2a80591c44" d="M111.51,131.05a12.33,12.33,0,0,1,3,10.26s-.41-6.49-5-10.69Z"/>
                    <path class="fdfce0ac-60a8-443b-a2b3-22e68287339e" d="M119.93,135.8a32.15,32.15,0,0,1-8.5-.66,13,13,0,0,1-10.3-12.24v-.1s14.63,7.55,30.44,4.84C131.32,131.62,128.9,135.33,119.93,135.8Z"/>
                  </g>
                  <path class="a1efd1a2-816a-496e-a4f9-89ec332aec1f" d="M100.11,116.85a4,4,0,0,1,.38,1.8,4.28,4.28,0,0,1-.45,1.86,3.12,3.12,0,0,1-1.44,1.32,3.84,3.84,0,0,1-.92.26,4.8,4.8,0,0,1-.93,0v0a4.4,4.4,0,0,0,1.66-.51,3,3,0,0,0,1.2-1.22,5.55,5.55,0,0,0,.46-3.41Z"/>
                  <path class="a1efd1a2-816a-496e-a4f9-89ec332aec1f" d="M139.78,128a3.39,3.39,0,0,1-1.33-.84,4.51,4.51,0,0,1-.91-1.32,4.23,4.23,0,0,1-.32-1.57,3.4,3.4,0,0,1,.37-1.54h0a5,5,0,0,0,.36,2.9,5.71,5.71,0,0,0,1.81,2.32Z"/>
                </g>
                <ellipse class="acbe0b33-6176-4cb0-ad41-4d5d2f335a51" cx="89.56" cy="112.84" rx="5.43" ry="7.74" transform="translate(-46.12 161.26) rotate(-71.2)"/>
                <ellipse class="acbe0b33-6176-4cb0-ad41-4d5d2f335a51" cx="150.73" cy="118.25" rx="7.74" ry="5.43" transform="translate(-9.5 13.23) rotate(-4.87)"/>
              </g>
            </g>
          </g>
          <path class="be38efce-1e49-45ef-bf08-6be06ac6be3a" d="M36,150.9a4.43,4.43,0,0,1,7.61,2,9.79,9.79,0,0,1-.7,6.82c-2.66,5-8,10.54-15.07,10.23s-8.29,5.72-9.43,9.46-7.87,5.22-9.83-2.51c0,0-3.09-10.22,4.14-16.94,0,0,2.51-3.6,13-3.18C32.21,157,33.85,153.36,36,150.9Z"/>
        </g>
      </g>
      <path class="be38efce-1e49-45ef-bf08-6be06ac6be3a" d="M72.27,137.7s-11.51,17.6,4.14,25.14c9.2,4.43,13.74,7,16.72,6.79,4.17-.25,10.78,7,10.59,10.23,0,0,0,6.61-4,3.61,0,0-3.53,8.73-14.87-.09,0,0-1.1-3.5,4.57-5.57,0,0-42.34-5.49-35.47-40.27C54,137.54,63.78,127.77,72.27,137.7Z"/>
      <path class="e0b06837-aeea-4c96-bd88-7615b9483d54" d="M91.62,181s4.94-1.19-5-4"/>
    </g>
    <line class="be38efce-1e49-45ef-bf08-6be06ac6be3a" x1="99.74" y1="183.47" x2="100.52" y2="179.61"/>
  </g>
</svg>
