<svg id="a30b8264-2fa8-409e-b6a6-154cc68c04c3" data-name="Layer 1" xmlns="http://www.w3.org/2000/svg" width="61.59" height="50.12" viewBox="0 0 61.59 50.12">
  <defs>
    <style>
      .b501dfce-8074-406f-b996-16b70933be13, .bbdb3c14-cccc-473c-8073-d0c89a8c116e {
        fill: #fff;
      }

      .b501dfce-8074-406f-b996-16b70933be13 {
        stroke: #702840;
      }

      .b501dfce-8074-406f-b996-16b70933be13, .f0b21112-8971-4ac1-84d3-de065ed62e98 {
        stroke-miterlimit: 10;
        stroke-width: 0.75px;
      }

      .b4344837-78ed-4c39-89d8-33f01217e90f {
        fill: #210a11;
      }

      .f0b21112-8971-4ac1-84d3-de065ed62e98 {
        fill: #ffe309;
        stroke: #665608;
      }
    </style>
  </defs>
  <g>
    <g>
      <g>
        <path class="b501dfce-8074-406f-b996-16b70933be13" d="M27.37,30.53c-1.81,8-8,13.4-13.94,12.12S4.22,33.87,6,25.9A19.12,19.12,0,0,1,8.4,20c2.81-4.57,7.28-7.19,11.57-6.26s7.34,5.35,7.82,10.84A19.07,19.07,0,0,1,27.37,30.53Z"/>
        <ellipse class="b4344837-78ed-4c39-89d8-33f01217e90f" cx="19.97" cy="31.92" rx="6.67" ry="4.95" transform="translate(-15.85 43.53) rotate(-75.92)"/>
        <ellipse class="bbdb3c14-cccc-473c-8073-d0c89a8c116e" cx="23.16" cy="30.11" rx="1.36" ry="1.83" transform="translate(-4.83 4.43) rotate(-9.9)"/>
      </g>
      <g>
        <path class="b501dfce-8074-406f-b996-16b70933be13" d="M56.47,32.3c0,7.44-4.47,13.5-9.95,13.54s-9.92-6-9.91-13.39a17.53,17.53,0,0,1,.94-5.71c1.6-4.59,5-7.79,9-7.82,4.56,0,8.4,4.1,9.55,9.77A17.68,17.68,0,0,1,56.47,32.3Z"/>
        <ellipse class="b4344837-78ed-4c39-89d8-33f01217e90f" cx="50.32" cy="36.64" rx="6.06" ry="4.5" transform="translate(-0.26 72.92) rotate(-71.7)"/>
        <ellipse class="bbdb3c14-cccc-473c-8073-d0c89a8c116e" cx="53.33" cy="34.58" rx="1.23" ry="1.66" transform="translate(-6.36 12.74) rotate(-12.86)"/>
      </g>
      <path class="b4344837-78ed-4c39-89d8-33f01217e90f" d="M44.9,12s4.54.54,9.7,6C54.6,18.06,47.52,4.32,44.9,12Z"/>
      <path class="b4344837-78ed-4c39-89d8-33f01217e90f" d="M27.22,6.75S22.3,5.65,14.84,9C14.84,9,27.47-1.39,27.22,6.75Z"/>
    </g>
    <path class="f0b21112-8971-4ac1-84d3-de065ed62e98" d="M27.79,24.62A60.68,60.68,0,0,0,8.4,20c2.81-4.57,7.28-7.19,11.57-6.26S27.31,19.13,27.79,24.62Z"/>
    <path class="f0b21112-8971-4ac1-84d3-de065ed62e98" d="M56.11,28.69c-6.38-2-14.8-2.05-18.56-2,1.6-4.59,5-7.79,9-7.82C51.12,18.89,55,23,56.11,28.69Z"/>
  </g>
</svg>
