<svg id="ee149cf8-ad6f-46a4-9882-825573fbed04" data-name="Layer 1" xmlns="http://www.w3.org/2000/svg" width="135.06" height="106.35" viewBox="0 0 135.06 106.35">
  <defs>
    <style>
      .a307cf5f-4490-4dcc-868e-5da5516e6d94, .f958cbfa-16df-4284-a059-59113433e88c {
        fill: #fff;
      }

      .a307cf5f-4490-4dcc-868e-5da5516e6d94 {
        stroke: #702840;
      }

      .a307cf5f-4490-4dcc-868e-5da5516e6d94, .ff4dfdc3-6c87-426a-a469-bc9c13cdf2db {
        stroke-miterlimit: 10;
        stroke-width: 0.75px;
      }

      .e594fd28-6697-4b82-9d7f-3670fdea49ea {
        fill: #210a11;
      }

      .ff4dfdc3-6c87-426a-a469-bc9c13cdf2db {
        fill: #ffe309;
        stroke: #665608;
      }
    </style>
  </defs>
  <g>
    <g>
      <g>
        <path class="a307cf5f-4490-4dcc-868e-5da5516e6d94" d="M58,65.52C58.26,83.11,47.92,97.6,35,97.88S11.29,84.12,11.06,66.53a41.13,41.13,0,0,1,2.55-15C17.43,41.4,25.16,34.38,34.15,34.18c8.07-.17,15.26,5.19,19.59,13.51a37.93,37.93,0,0,1,3.61,10.72.13.13,0,0,0,0,.06c.17.94.31,1.9.41,2.88A40.58,40.58,0,0,1,58,65.52Z"/>
        <ellipse class="e594fd28-6697-4b82-9d7f-3670fdea49ea" cx="47.14" cy="61.98" rx="10.65" ry="14.34" transform="translate(-4.55 3.74) rotate(-4.34)"/>
        <ellipse class="f958cbfa-16df-4284-a059-59113433e88c" cx="51.83" cy="55.67" rx="2.92" ry="3.93" transform="translate(-4.06 4.08) rotate(-4.34)"/>
      </g>
      <g>
        <path class="a307cf5f-4490-4dcc-868e-5da5516e6d94" d="M105.8,88c-11.45,2.83-23.74-7.48-27.45-23a35,35,0,0,1,1.28-21.33c2.53-6.08,7-10.56,12.75-12,8.05-2,16.52,2.52,22.13,10.79a37.29,37.29,0,0,1,5.32,12.25C123.53,70.19,117.26,85.11,105.8,88Z"/>
        <ellipse class="e594fd28-6697-4b82-9d7f-3670fdea49ea" cx="109.21" cy="53.5" rx="9.68" ry="13.05" transform="translate(-10.88 34.31) rotate(-17.02)"/>
        <ellipse class="f958cbfa-16df-4284-a059-59113433e88c" cx="113.21" cy="46.82" rx="2.66" ry="3.58" transform="translate(-8.75 35.19) rotate(-17.02)"/>
      </g>
      <path class="e594fd28-6697-4b82-9d7f-3670fdea49ea" d="M85.45,18s9.79-1.15,23.34,7.74C108.79,25.75,87.07.55,85.45,18Z"/>
      <path class="e594fd28-6697-4b82-9d7f-3670fdea49ea" d="M45.82,15.83S35,16,21,26.67C21,26.67,42.24-1.33,45.82,15.83Z"/>
    </g>
    <path class="ff4dfdc3-6c87-426a-a469-bc9c13cdf2db" d="M53.74,47.69a101.22,101.22,0,0,0-40.13,3.86C17.43,41.4,25.16,34.38,34.15,34.18,42.22,34,49.41,39.37,53.74,47.69Z"/>
    <path class="ff4dfdc3-6c87-426a-a469-bc9c13cdf2db" d="M114.51,42.38c-.85-.16-1.7-.29-2.54-.42h0c-2.45-.34-4.89-.56-7.29-.66a101,101,0,0,0-25,2.28c2.53-6.08,7-10.56,12.75-12C100.43,29.59,108.9,34.11,114.51,42.38Z"/>
  </g>
</svg>
