<svg id="f98c6cd2-f6ec-4a23-9800-964f9de04830" data-name="Layer 1" xmlns="http://www.w3.org/2000/svg" width="926.96" height="500" viewBox="0 0 926.96 500">
  <defs>
    <style>
      .b0eb2e58-00ee-44a1-97c9-fb76d4020488, .f6207937-8b4e-4b73-805a-5689a6ea61ad {
        fill: #747474;
      }

      .b0eb2e58-00ee-44a1-97c9-fb76d4020488, .e416f711-926f-418b-bca4-7b04d7081483, .f6207937-8b4e-4b73-805a-5689a6ea61ad, .f6b666cb-2281-4bbb-9a2b-8bcaa766fbc1 {
        stroke: #323232;
        stroke-miterlimit: 10;
      }

      .b0eb2e58-00ee-44a1-97c9-fb76d4020488, .e416f711-926f-418b-bca4-7b04d7081483 {
        stroke-width: 0.75px;
      }

      .ab3194ae-5a3d-4fdd-8506-8242559549b8, .e416f711-926f-418b-bca4-7b04d7081483 {
        fill: #dc7272;
      }

      .be1e3b58-9f93-49b9-9144-4848d801794f {
        fill: #525250;
      }

      .f5f4fa86-aa32-4e8f-bb65-2b60901122f7 {
        fill: #8c8c8c;
      }

      .ff062c4a-9181-4e6b-9fc3-56b6617a9515 {
        fill: #3c1615;
      }

      .b9d27130-aa09-4926-832a-05ab4aac4fee {
        fill: #fe9498;
      }

      .a4e15860-0aae-4554-932b-4f80bc6f8edd {
        fill: #323232;
      }

      .fb8c117c-0b3c-4b6c-98f6-3acdc7bf26fe {
        fill: #323031;
      }

      .a529be9f-364f-49f1-9563-575a9132f707 {
        fill: #595a5c;
      }

      .f6b666cb-2281-4bbb-9a2b-8bcaa766fbc1 {
        fill: none;
      }

      .fc15a4d6-c1e1-4bf5-8b0f-f745aa2187bd {
        fill: #5c5c5c;
      }
    </style>
  </defs>
  <g>
    <g>
      <g>
        <g>
          <g>
            <g>
              <path class="b0eb2e58-00ee-44a1-97c9-fb76d4020488" d="M324.07,70.07s2.2-48.9,41.35-32.28c0,0,19.52,13.86,23.53,25.17C389,63,341,74.27,324.07,70.07Z"/>
              <path class="e416f711-926f-418b-bca4-7b04d7081483" d="M331.11,65.76s1.14-27.23,24.22-19.65c0,0,10,4.48,14,11.55C369.37,57.66,348.63,55.57,331.11,65.76Z"/>
            </g>
            <g>
              <path class="f6207937-8b4e-4b73-805a-5689a6ea61ad" d="M29.72,274.21s2.82,5.66-1.44,10c0,0,12.51,15.62,22.69-9.73,0,0,52.39-34.3,129.71-7.39,0,0,82.07,47,121.7,29.62,0,0,7.82,46.2,47.07,14.69L363,279s48.73,9.88,75.87-7.49l18.78,13.11,117-128.22c29-9.28,34.07-34.74,33.6-34.74-67,1-107.2-38.14-107.8-39C463.77,28,420.36,76,419.41,75.32c-11.68-8.17-91.28-59.57-128.28,42.4,0,0-43.26,18.85-49.65,86,0,0-2.36,21.57-35.15,20.1,0,0-46.73-16.52-92.19-13.09,0,0-34.52,8.07-78.27,45.69C35.87,256.42-8.66,245.11,29.72,274.21Z"/>
              <path class="be1e3b58-9f93-49b9-9144-4848d801794f" d="M30.07,283.65s13.42,2.37,15-13.95c0,0,65-35.79,134.75-11.84,0,0,57.83,30.65,96.06,32.52,0,0,55.47,10.49,62.59-36.73l6.06,3s3.36,34-39.18,39.7c0,0-27.88,12.32-76.15-8.38,0,0-28.81-9.42-47.41-21.4,0,0-61.8-28.25-130.82,7.95,0,0-8.2,25-22.69,9.73Z"/>
              <path class="f5f4fa86-aa32-4e8f-bb65-2b60901122f7" d="M414.47,86S342.22,38.56,302,121.07c0,0-31.78,6.87-39.54,69,0,0,2.21,79.29-121.43,30.49,0,0-38.8-7.51-103.87,39.94,0,0-14.31-4.55-21.71-1.11,0,0-6.23-7.84,20.39-2.94,0,0,55.07-40.39,77.89-44,0,0,30.27-5,94,12.57,0,0,34.76,0,34.2-21.31,0,0,8.74-67,50.48-84.46,0,0,29.45-103.5,128.82-41.64,0,0,42.06-48.31,79.82,6,0,0,37.66,43.61,106.89,38.58,0,0-38,26.73-110.71-32.94,0,0-34.6-70.7-100.78,22.56Z"/>
              <path class="ff062c4a-9181-4e6b-9fc3-56b6617a9515" d="M307.42,296s36.19-2.24,37.11-39.39l9.66,3.64s-6.45,56.61-27.86,54.87C326.33,315.16,310.17,316.76,307.42,296Z"/>
              <path class="b9d27130-aa09-4926-832a-05ab4aac4fee" d="M352.15,272.81s-43,26.76-41.76,33.06c0,0,11.1,20.32,28.3,2.81C338.69,308.68,352.26,288.09,352.15,272.81Z"/>
              <path class="a4e15860-0aae-4554-932b-4f80bc6f8edd" d="M330.38,248.55c3.41,1.95,6.85,3.74,10.35,5.41s7.06,3.16,10.69,4.47a96,96,0,0,0,11.05,3.4l2.82.68,2.86.54,1.43.29,1.44.2c1,.14,1.93.29,2.9.46-1,0-2,.08-2.94.09l-1.48,0L368,264l-2.95-.22c-1-.13-1.95-.29-2.93-.44l-1.46-.23-1.44-.33c-1-.23-1.93-.43-2.88-.68-1.9-.56-3.79-1.12-5.64-1.81a71.92,71.92,0,0,1-10.72-5A56.47,56.47,0,0,1,330.38,248.55Z"/>
              <path class="a4e15860-0aae-4554-932b-4f80bc6f8edd" d="M240.86,210.27a47.15,47.15,0,0,1,10,3.78,46.28,46.28,0,0,1,8.86,6,47.79,47.79,0,0,1,3.9,3.77c.58.69,1.13,1.42,1.69,2.13.26.37.55.72.79,1.1l.68,1.19c.43.8.9,1.57,1.28,2.4s.67,1.68,1,2.53c.14.43.34.83.44,1.27l.31,1.32c.17.89.38,1.76.51,2.64l-.19.05a67.22,67.22,0,0,0-5-9.16l-.69-1.09c-.25-.35-.52-.68-.77-1-.52-.68-1-1.41-1.52-2.08l-1.66-2a24.42,24.42,0,0,0-1.8-1.87,44.54,44.54,0,0,0-8.27-6.35,45.5,45.5,0,0,0-9.53-4.46Z"/>
              <path class="a4e15860-0aae-4554-932b-4f80bc6f8edd" d="M197.34,220.48a21,21,0,0,1,9.33,3.91,27.44,27.44,0,0,1,6.88,7.6l1.32,2.23,1.08,2.34.52,1.19.4,1.23c.25.82.48,1.65.7,2.48.33,1.68.56,3.38.75,5.07s0,3.42,0,5.11h-.2q-.69-2.47-1.15-4.9l-.66-2.4c-.22-.8-.37-1.61-.63-2.39s-.52-1.56-.75-2.34l-.34-1.19-.44-1.14-.84-2.3-1.1-2.19a26.07,26.07,0,0,0-6.12-7.62,20.43,20.43,0,0,0-8.73-4.5Z"/>
              <path class="a4e15860-0aae-4554-932b-4f80bc6f8edd" d="M153,211.44a23.71,23.71,0,0,1,5.85,4.37,26.27,26.27,0,0,1,4.42,5.92,20.12,20.12,0,0,1,2.57,7,19.42,19.42,0,0,1,.21,3.73,20.34,20.34,0,0,1-.55,3.66h-.2c-.31-1.21-.42-2.39-.66-3.56s-.4-2.31-.76-3.43a38.2,38.2,0,0,0-2-6.66,27.14,27.14,0,0,0-8.94-10.83Z"/>
              <path class="a4e15860-0aae-4554-932b-4f80bc6f8edd" d="M115.64,210.29a10.71,10.71,0,0,1,5.11,3.44,15.77,15.77,0,0,1,2.89,5.57,25,25,0,0,1,.76,3.07,17.33,17.33,0,0,1,.2,3.13,28.71,28.71,0,0,1-.43,3.09,20.53,20.53,0,0,1-1,3l-.19,0a23,23,0,0,1-.26-3.05c-.07-1-.15-2-.17-3a48.62,48.62,0,0,0-.51-5.8,14.54,14.54,0,0,0-2.14-5.38,10.63,10.63,0,0,0-4.36-3.85Z"/>
              <path class="a4e15860-0aae-4554-932b-4f80bc6f8edd" d="M81.7,224.41a14,14,0,0,1,4.53.58,11.39,11.39,0,0,1,4.11,2.32,6.43,6.43,0,0,1,.86.87,10.52,10.52,0,0,1,.78,1c.21.35.41.72.6,1.09a6.84,6.84,0,0,1,.35,1.17,8.2,8.2,0,0,1,.18,2.41,9.17,9.17,0,0,1-.56,2.31l-.2,0a21.46,21.46,0,0,1-.64-2.16c-.28-.67-.37-1.36-.69-2a11.31,11.31,0,0,0-1.83-3.55,9.71,9.71,0,0,0-3.33-2.5,14.75,14.75,0,0,0-4.16-1.32Z"/>
              <path class="a4e15860-0aae-4554-932b-4f80bc6f8edd" d="M54.82,241a11.11,11.11,0,0,1,3.31-.05,9,9,0,0,1,3.26,1.1c.25.16.51.31.76.48l.73.57a4.17,4.17,0,0,1,1,1.52,4.71,4.71,0,0,1,.07,3.52l-.2,0c-.69-1-1.06-1.88-1.64-2.62a10.07,10.07,0,0,0-1.67-2.17,9.08,9.08,0,0,0-2.59-1.45,12.89,12.89,0,0,0-3.06-.72Z"/>
              <path class="f5f4fa86-aa32-4e8f-bb65-2b60901122f7" d="M242.54,213.2a56,56,0,0,1,14.59,10.18,35.66,35.66,0,0,1,5.83,6.84l1.15,1.94c.34.68.66,1.36,1,2.05a25.59,25.59,0,0,1,1.46,4.24l-.14.05a77.8,77.8,0,0,0-4.67-7.44,67.15,67.15,0,0,0-5.44-6.84,58.73,58.73,0,0,0-6.49-5.92,55.59,55.59,0,0,0-7.31-5Z"/>
              <path class="f5f4fa86-aa32-4e8f-bb65-2b60901122f7" d="M201.75,224.93a32.13,32.13,0,0,1,5.43,5.44,45.05,45.05,0,0,1,4.2,6.47,34.22,34.22,0,0,1,3,7.15,32.26,32.26,0,0,1,.79,3.79,31,31,0,0,1,.29,3.85l-.15,0c-.44-1.21-.79-2.43-1.17-3.64-.21-.6-.39-1.2-.59-1.8s-.38-1.19-.61-1.78-.41-1.19-.6-1.78l-.63-1.77c-.38-1.2-.91-2.34-1.39-3.5a42.53,42.53,0,0,0-3.74-6.56,31.45,31.45,0,0,0-4.91-5.77Z"/>
              <path class="f5f4fa86-aa32-4e8f-bb65-2b60901122f7" d="M153,214.25a15.48,15.48,0,0,1,4.67,4.12,25,25,0,0,1,3.15,5.44,23.36,23.36,0,0,1,1.84,6c.14,1,.2,2.09.24,3.13a29.93,29.93,0,0,1-.22,3.14h-.15c-.28-1-.5-2-.68-3s-.43-2-.66-3c-.12-.49-.24-1-.35-1.47a12.63,12.63,0,0,0-.33-1.48l-.34-1.47-.47-1.44a24.17,24.17,0,0,0-2.63-5.44,16.14,16.14,0,0,0-4.13-4.43Z"/>
              <path class="f5f4fa86-aa32-4e8f-bb65-2b60901122f7" d="M115.65,213.2a6.31,6.31,0,0,1,1.79,1.5,11.14,11.14,0,0,1,1.32,2,15.94,15.94,0,0,1,1.52,4.45c.2.76.26,1.54.4,2.32a16.62,16.62,0,0,1,0,2.34,22.37,22.37,0,0,1-.35,2.32,16.13,16.13,0,0,1-.7,2.24l-.15,0a20.39,20.39,0,0,1-.2-2.31c0-.76-.09-1.51-.1-2.25-.1-1.49,0-3-.13-4.46a14.82,14.82,0,0,0-1-4.31,8.37,8.37,0,0,0-2.5-3.64Z"/>
              <path class="f5f4fa86-aa32-4e8f-bb65-2b60901122f7" d="M83.12,226.47a4.78,4.78,0,0,1,3.24,1.22,14.91,14.91,0,0,1,2.4,2.56,13,13,0,0,1,1.77,3,10.16,10.16,0,0,1,.67,3.43l-.14.05a9.48,9.48,0,0,1-1-1.41c-.3-.48-.6-.95-.87-1.44-.55-1-.9-2-1.42-3a14.25,14.25,0,0,0-1.89-2.66,4.73,4.73,0,0,0-2.72-1.63Z"/>
              <path class="f5f4fa86-aa32-4e8f-bb65-2b60901122f7" d="M56.11,243.21A11.17,11.17,0,0,1,60,244.55a4.11,4.11,0,0,1,1.69,1.36,2.62,2.62,0,0,1,.31,2.23l-.15,0c-.53-.56-.92-.92-1.34-1.32s-.74-.89-1.21-1.32a10.44,10.44,0,0,0-1.52-1.15,18.76,18.76,0,0,0-1.68-1Z"/>
            </g>
          </g>
          <g>
            <path class="b9d27130-aa09-4926-832a-05ab4aac4fee" d="M399.89,162.33S405.61,92,471.1,89.81c0,0,68.57,67.25,128.35,48.79,0,0-1.85,49.33-52,52.08,0,0-8.93,53.27-44,44,0,0-19.89,46.69-60.46,23.35,0,0-16.52-10.29-12.4-37.78,0,0-5.15-22.34-18.9-28.18C411.67,192.06,397.28,176.16,399.89,162.33Z"/>
            <path class="ab3194ae-5a3d-4fdd-8506-8242559549b8" d="M410.78,191.09c-6.48-13.91,5.45-89.89,58.9-87.76,0,0,20.78,6.79,34.48,25.52,0,0,44.56,35.61,89.72,27,0,0,2.39,0,2.57-.53,0,0-9.1,35-48.56,35.66,0,0-6.79,54.43-44,44,0,0-19,50-62,22,0,0-16.55-13.93-11.13-34.28,0,0-6.12-23.78-17.53-28.66h0Z"/>
            <path class="a4e15860-0aae-4554-932b-4f80bc6f8edd" d="M410.85,190.38s0,.09,0,.13c.11.52-.83.76-.68.54l-.12-.08,0,0-.13-.11-.21-.21-.4-.42-.75-.85c-.5-.58-1-1.16-1.44-1.75-.93-1.2-1.8-2.43-2.65-3.69a45.93,45.93,0,0,1-4.31-8,25.55,25.55,0,0,1-1.34-4.46,15.63,15.63,0,0,1-.28-2.38,12.38,12.38,0,0,1,.15-2.39l.61-4.47c.19-1.48.39-3,.69-4.45l.83-4.43c.26-1.49.68-2.94,1-4.41.63-2.94,1.57-5.81,2.43-8.7a100.85,100.85,0,0,1,7.16-16.62c5.89-10.54,14.34-19.86,24.91-25.9l2-1.13,2-1c1.34-.71,2.76-1.25,4.15-1.86a68.41,68.41,0,0,1,8.64-2.77,61,61,0,0,1,18-1.8h0a.72.72,0,0,1,.4.17h0A318.36,318.36,0,0,0,499.77,111a216.49,216.49,0,0,0,30.84,17.65,161.39,161.39,0,0,0,16.51,6.54,124.63,124.63,0,0,0,17.19,4.33,89.08,89.08,0,0,0,17.62,1.39,67.85,67.85,0,0,0,8.79-.77c1.45-.25,2.89-.52,4.31-.88a28.32,28.32,0,0,0,4.12-1.32h0a.72.72,0,0,1,1,.39.58.58,0,0,1,.06.26,63.77,63.77,0,0,1-2.83,20.84,43.1,43.1,0,0,1-11.07,17.87A49.24,49.24,0,0,1,568.17,188a64.48,64.48,0,0,1-20.77,3.43l.74-.63a116.31,116.31,0,0,1-3.91,18,72.69,72.69,0,0,1-3.28,8.64,49.75,49.75,0,0,1-4.66,8,33.4,33.4,0,0,1-6.43,6.74,25.7,25.7,0,0,1-8.31,4.3,26,26,0,0,1-4.61.94,28.66,28.66,0,0,1-13.82-2l1-.39h0a60.85,60.85,0,0,1-3.15,6.81,57.35,57.35,0,0,1-4,6.36,56.4,56.4,0,0,1-4.78,5.8,43.39,43.39,0,0,1-5.62,5.09l.16-.14a22.33,22.33,0,0,1-9.53,6.14,32.12,32.12,0,0,1-11.16,1.49A48,48,0,0,1,455,264.82c-.9-.25-1.78-.52-2.69-.84l-2.6-.88c-.88-.31-1.74-.7-2.6-1s-1.69-.82-2.54-1.22a31.65,31.65,0,0,1-8.95-6.83,28.4,28.4,0,0,1-5.76-9.71,33,33,0,0,1,.1-22,.35.35,0,0,1,.45-.2.34.34,0,0,1,.22.38v0a56.93,56.93,0,0,0-.7,10.73,34.49,34.49,0,0,0,1.82,10.44A27.62,27.62,0,0,0,445.52,259c.81.38,1.59.81,2.41,1.15s1.64.7,2.49,1L453,262c.82.29,1.68.55,2.54.78a47.4,47.4,0,0,0,10.57,1.65,30,30,0,0,0,10.47-1.32,20.43,20.43,0,0,0,8.74-5.55.81.81,0,0,1,.14-.12l0,0a44.76,44.76,0,0,0,5.39-4.78,54.35,54.35,0,0,0,4.73-5.55,55.66,55.66,0,0,0,4-6.12,59.39,59.39,0,0,0,3.17-6.58h0a.75.75,0,0,1,1-.4h0a26.72,26.72,0,0,0,8.6,2,27.54,27.54,0,0,0,4.45-.08A24.24,24.24,0,0,0,529,231a31.85,31.85,0,0,0,6.14-6.45,46.59,46.59,0,0,0,4.52-7.77,70.58,70.58,0,0,0,3.21-8.45,117.56,117.56,0,0,0,3.86-17.74.74.74,0,0,1,.73-.63h0a63.05,63.05,0,0,0,20.25-3.36,47.77,47.77,0,0,0,17.58-10.36A41.76,41.76,0,0,0,596,159a62.23,62.23,0,0,0,2.75-20.36l1,.65a30.35,30.35,0,0,1-4.37,1.4c-1.46.37-3,.65-4.43.9a66.12,66.12,0,0,1-9,.79,90.26,90.26,0,0,1-17.91-1.41,125,125,0,0,1-17.39-4.38A161.3,161.3,0,0,1,530,130,218.69,218.69,0,0,1,499,112.2a322.18,322.18,0,0,1-28.32-21.84l.4.17h0a59.48,59.48,0,0,0-17.48,2,66.43,66.43,0,0,0-8.38,2.8c-1.34.61-2.72,1.15-4,1.85l-2,1-1.91,1.11c-10.23,5.91-18.37,15-24.07,25.29a97.87,97.87,0,0,0-7,16.25c-.84,2.84-1.77,5.65-2.4,8.55-.33,1.45-.74,2.87-1,4.33l-.81,4.38c-.3,1.45-.5,2.93-.69,4.4l-.6,4.42c-.49,2.75.3,5.55,1.33,8.25A58.75,58.75,0,0,0,406,183c.74,1.28,1.52,2.53,2.34,3.77.39.62.8,1.24,1.22,1.85l.64.9.32.44.16.21.07.09h0l-.06,0c.17-.2-.74,0-.64.52l0,.06a.46.46,0,0,1,.2-.62A.47.47,0,0,1,410.85,190.38Z"/>
            <path class="ab3194ae-5a3d-4fdd-8506-8242559549b8" d="M469.68,103.33a371.42,371.42,0,0,0,31.39,22c28.84,18.1,70.83,38.88,96.17,26.08,0,0-1.85,19.94-17.72,28.89,0,0-3.72-6.29-8.86-9.93s-6.56-5.41-11.79-8.06-55.51-18.32-56.05-19-12.12-11.65-12.12-11.65l-5.36-6.21Z"/>
            <path class="b9d27130-aa09-4926-832a-05ab4aac4fee" d="M423.29,130.43s31.47-39.12,79.53-4c0,0-3.17-5.8-4.26-7.43a21,21,0,0,0-4.72-5.27c-1.81-1.27,4.18,2-4.54-3.45s-9.08-5.73-11.44-6.95S467.69,99,467.69,99s-2.18-1.77-6.54-.8-6.18.62-12,2.8-1.82-3.82-10.9,4.54-8.9,7.62-10.35,10.17a63.38,63.38,0,0,1-4.62,6.4l-3.56,6.68Z"/>
          </g>
        </g>
        <g>
          <path class="fb8c117c-0b3c-4b6c-98f6-3acdc7bf26fe" d="M319.15,138.77s4.69-13,43.89-1.08c0,0-20-18.47-34.12-15.21C328.92,122.48,315.35,125.74,319.15,138.77Z"/>
          <path class="a529be9f-364f-49f1-9563-575a9132f707" d="M316.56,168.15s4.84-42.37,33.73-16.44c0,0,4,3.79,3.79,17.71l-24.87-3.58-4.64,1.68Z"/>
          <path class="a4e15860-0aae-4554-932b-4f80bc6f8edd" d="M325.53,146.67a12.2,12.2,0,0,1,6.57-4l1-.23,1-.09c.33,0,.67-.07,1-.07l1,.05,1,.06,1,.22a10.57,10.57,0,0,1,1.93.52,19.84,19.84,0,0,1,6.64,4.1c.9.92,1.78,1.86,2.6,2.84s1.47,2.08,2.13,3.16c-1-.8-1.92-1.65-2.84-2.48l-2.89-2.32c-.51-.32-1-.66-1.52-1a9.76,9.76,0,0,0-1.54-.94c-.54-.27-1.06-.56-1.58-.84s-1.11-.42-1.66-.64a15.26,15.26,0,0,0-6.93-.81A16.9,16.9,0,0,0,325.53,146.67Z"/>
        </g>
      </g>
      <path class="f6b666cb-2281-4bbb-9a2b-8bcaa766fbc1" d="M302.38,296.75s41.58-1.66,42.15-40.1l9.66,3.64s-2.35,19.21-3.82,23.64c0,0-6.64,27-20.82,31,0,0-17.78,5.68-22.13-18.35"/>
    </g>
    <path class="fc15a4d6-c1e1-4bf5-8b0f-f745aa2187bd" d="M365.47,270.47s71.33,14.82,62-29c0,0,17.57,36.82,57.29,21.61l-6.38,31.25c-.54,2.69-25.51-14.32-27.85-15.73l-11.77-8.31s-18.24,16.72-75.87,7.49Z"/>
  </g>
</svg>
