<svg id="e4bc5669-5c32-44d8-9bcf-4d47440ef8f1" data-name="Layer 1" xmlns="http://www.w3.org/2000/svg" width="371.62" height="238.85" viewBox="0 0 371.62 238.85">
  <defs>
    <style>
      .ac1b5949-4319-4985-a1be-8dd639e56174 {
        fill: #9a4d24;
        stroke: #492012;
        stroke-miterlimit: 10;
        stroke-width: 2px;
      }
    </style>
  </defs>
  <path class="ac1b5949-4319-4985-a1be-8dd639e56174" d="M198,12.07S154,33.73,133,95.61l13.23-9.77S129.29,112.6,132,151.63l7.8-16.37s6.55,47.44-4.23,68.89c0,0,14.93-6.08,18.56-28,0,0,2.07,36.08,6,39.93,0,0,7.38-9.37,9.11-16.71,0,0,3.57,25.66,14.35,34.57,0,0,14.42-10.65,13.92-32.63,0,0,2,11.26,6.34,18.11,0,0,8.5-12.6,7.92-21.23,0,0,1-10.49,3.82-15.56,0,0-.22,23.69,14.34,29.43,0,0-6.77-22,6.69-68.66L241.69,161s7.73-18.37,2.11-46.4L241.16,99.3s7.73,5.82,8.63,9.24C249.79,108.54,232.76,25.52,198,12.07Z"/>
</svg>
