<svg id="e97df38c-f602-4899-a223-893222b6bc5d" data-name="Layer 1" xmlns="http://www.w3.org/2000/svg" width="90.82" height="91.76" viewBox="0 0 90.82 91.76">
  <defs>
    <style>
      .afa60598-0d60-4f62-a276-3e02f2cbe1f7 {
        fill: #bcfde5;
      }

      .bbcb509b-d2e7-4909-9c09-374e00e5f51c {
        fill: #ebf7f2;
      }
    </style>
  </defs>
  <g>
    <g>
      <path class="afa60598-0d60-4f62-a276-3e02f2cbe1f7" d="M12.76,76.24c9.4,4.07,21.07-17.16,27.49-32S46.21,14.1,36.8,10s-17.85,8.2-24.27,23S3.35,72.17,12.76,76.24Z"/>
      <path class="bbcb509b-d2e7-4909-9c09-374e00e5f51c" d="M12.78,76.19a6.51,6.51,0,0,0,5,0,14.34,14.34,0,0,0,4.3-2.75,42.32,42.32,0,0,0,6.62-7.87,121.75,121.75,0,0,0,9.66-18.19,73.59,73.59,0,0,0,3.59-9.6,46.81,46.81,0,0,0,1.76-10,25.53,25.53,0,0,0-1.14-9.87,16,16,0,0,0-1-2.24,9.79,9.79,0,0,0-.65-1,6.17,6.17,0,0,0-.72-1l-.81-.87c-.29-.27-.62-.49-.93-.74L38,11.68l-.52-.28-1-.55a8.16,8.16,0,0,0-4.56-.63,10.81,10.81,0,0,0-4.37,1.86,28.45,28.45,0,0,0-6.82,7.29,76,76,0,0,0-5.19,8.81,86.2,86.2,0,0,0-4.18,9.38,75.58,75.58,0,0,0-4.36,20,39.61,39.61,0,0,0,.52,10.26A16.93,16.93,0,0,0,9.15,72.7,8,8,0,0,0,12.78,76.19Zm0,.1A8.06,8.06,0,0,1,9,72.76,16.84,16.84,0,0,1,7.29,67.9,40.39,40.39,0,0,1,6.7,57.6a77.12,77.12,0,0,1,4.08-20.22,85.71,85.71,0,0,1,4.06-9.51,73,73,0,0,1,5.12-9,29.56,29.56,0,0,1,7-7.58,11.84,11.84,0,0,1,4.75-2,9.06,9.06,0,0,1,2.6,0,10.53,10.53,0,0,1,2.51.7l1.15.61.57.32.51.4c.34.27.7.52,1,.82l.88,1a6,6,0,0,1,.77,1,9.78,9.78,0,0,1,.69,1.11,14.75,14.75,0,0,1,1,2.38,26.27,26.27,0,0,1,1.12,10.24c-.46,6.92-2.79,13.55-5.71,19.77a124.41,124.41,0,0,1-10,18.1,42.56,42.56,0,0,1-6.7,7.86,14.37,14.37,0,0,1-4.36,2.75A6.74,6.74,0,0,1,12.74,76.29Z"/>
    </g>
    <g>
      <path class="afa60598-0d60-4f62-a276-3e02f2cbe1f7" d="M15.68,73.28C19,83,42.55,77.36,57.85,72.15s26.33-15.83,23-25.53S62.81,38.9,47.51,44.11,12.37,63.57,15.68,73.28Z"/>
      <path class="bbcb509b-d2e7-4909-9c09-374e00e5f51c" d="M15.72,73.26a6.62,6.62,0,0,0,3.38,3.67A14.23,14.23,0,0,0,24,78.27a42,42,0,0,0,10.26-.39,121.45,121.45,0,0,0,20-5A73.57,73.57,0,0,0,63.79,69a46.94,46.94,0,0,0,8.59-5.42,25.36,25.36,0,0,0,6.54-7.48,14.24,14.24,0,0,0,1-2.22,9.65,9.65,0,0,0,.32-1.17,5.91,5.91,0,0,0,.23-1.17l.1-1.19c0-.4,0-.79-.07-1.19l0-.59L80.31,48,80,46.89a8.23,8.23,0,0,0-2.6-3.81,10.71,10.71,0,0,0-4.31-2,28.37,28.37,0,0,0-10-.15,75.34,75.34,0,0,0-10,2.06,86.14,86.14,0,0,0-9.75,3.2A75.74,75.74,0,0,0,25.57,56.45a39.66,39.66,0,0,0-7.25,7.28,16.78,16.78,0,0,0-2.44,4.5A8,8,0,0,0,15.72,73.26Zm-.09,0a8.12,8.12,0,0,1,.12-5.11,17.49,17.49,0,0,1,2.43-4.55,40,40,0,0,1,7.24-7.36A76.93,76.93,0,0,1,43.14,45.71a84.8,84.8,0,0,1,9.77-3.38A74,74,0,0,1,63,40.09a29.51,29.51,0,0,1,10.31.1A11.69,11.69,0,0,1,78,42.33a9.17,9.17,0,0,1,1.78,1.9A10.78,10.78,0,0,1,81,46.56l.32,1.27.15.63,0,.65c0,.43.08.87.07,1.3l-.12,1.3A5.62,5.62,0,0,1,81.17,53a10.5,10.5,0,0,1-.35,1.25,15.27,15.27,0,0,1-1.08,2.36,26.25,26.25,0,0,1-6.83,7.71c-5.44,4.3-11.91,7-18.48,9a124.19,124.19,0,0,1-20.1,4.77A43,43,0,0,1,24,78.44a14.35,14.35,0,0,1-5-1.39A6.7,6.7,0,0,1,15.63,73.29Z"/>
    </g>
  </g>
</svg>
