<svg id="aa0a1d48-7e3e-47d4-8e4e-beb25755662a" data-name="Layer 1" xmlns="http://www.w3.org/2000/svg" width="81.53" height="67.06" viewBox="0 0 81.53 67.06">
  <defs>
    <style>
      .a6b0c3b7-9a32-4bba-a5d2-710688374f78, .b3732bb9-7b0d-4536-af50-f95cb57106dd {
        fill: #fff;
      }

      .b3732bb9-7b0d-4536-af50-f95cb57106dd {
        stroke: #702840;
      }

      .a536ff5a-20c6-498b-973a-d456df41e025, .b3732bb9-7b0d-4536-af50-f95cb57106dd {
        stroke-miterlimit: 10;
        stroke-width: 0.75px;
      }

      .b37a5f99-b445-4dde-8a64-0f393e7c70c7 {
        fill: #210a11;
      }

      .a536ff5a-20c6-498b-973a-d456df41e025 {
        fill: #ffe309;
        stroke: #665608;
      }
    </style>
  </defs>
  <g>
    <g>
      <g>
        <path class="b3732bb9-7b0d-4536-af50-f95cb57106dd" d="M34.74,40.27c.13,10.12-5.82,18.45-13.28,18.62S7.84,51,7.72,40.85a23.48,23.48,0,0,1,1.45-8.57c2.19-5.87,6.64-9.94,11.83-10s10,4,12.27,10a22.44,22.44,0,0,1,1.13,4.23.4.4,0,0,1,0,.15c.07.43.12.86.17,1.31C34.68,38.69,34.73,39.48,34.74,40.27Z"/>
        <ellipse class="b37a5f99-b445-4dde-8a64-0f393e7c70c7" cx="28.47" cy="38.23" rx="6.13" ry="8.25" transform="translate(-2.81 2.26) rotate(-4.34)"/>
        <ellipse class="a6b0c3b7-9a32-4bba-a5d2-710688374f78" cx="31.17" cy="34.6" rx="1.68" ry="2.26" transform="translate(-2.53 2.46) rotate(-4.34)"/>
      </g>
      <g>
        <path class="b3732bb9-7b0d-4536-af50-f95cb57106dd" d="M62.23,53.17c-6.59,1.64-13.66-4.3-15.79-13.26a21.12,21.12,0,0,1-.11-9.64c1.13-4.81,4.08-8.52,8.18-9.53,4.65-1.15,9.54,1.47,12.77,6.26a0,0,0,0,0,0,0q.36.54.69,1.11A21.61,21.61,0,0,1,70.3,34c.1.44.2.87.27,1.31C72.08,43.78,68.5,51.62,62.23,53.17Z"/>
        <path class="b37a5f99-b445-4dde-8a64-0f393e7c70c7" d="M70.57,35.31A5.8,5.8,0,0,1,67.74,40c-2.76,1.41-6.28-.54-7.87-4.36a8.63,8.63,0,0,1,.29-7.73A4.75,4.75,0,0,1,62,26.18a4.86,4.86,0,0,1,5.28.82,0,0,0,0,0,0,0,7.31,7.31,0,0,1,1.18,1.18,9.14,9.14,0,0,1,1.4,2.34A9.65,9.65,0,0,1,70.57,35.31Z"/>
        <ellipse class="a6b0c3b7-9a32-4bba-a5d2-710688374f78" cx="66.49" cy="29.5" rx="1.53" ry="2.06" transform="translate(-5.72 20.75) rotate(-17.02)"/>
      </g>
      <path class="b37a5f99-b445-4dde-8a64-0f393e7c70c7" d="M50.51,12.92s5.64-.65,13.43,4.46C63.94,17.38,51.45,2.88,50.51,12.92Z"/>
      <path class="b37a5f99-b445-4dde-8a64-0f393e7c70c7" d="M27.71,11.67s-6.25.1-14.28,6.24C13.43,17.91,25.65,1.8,27.71,11.67Z"/>
    </g>
    <path class="a536ff5a-20c6-498b-973a-d456df41e025" d="M33.27,32.24l-1-.18A59.35,59.35,0,0,0,25,31.2,61.82,61.82,0,0,0,9.17,32.28c2.19-5.87,6.64-9.94,11.83-10S31,26.21,33.27,32.24Z"/>
    <path class="a536ff5a-20c6-498b-973a-d456df41e025" d="M68.47,28.19,68,28.12l-.6-.07q-1-.12-2-.18a47.6,47.6,0,0,0-5.21,0,67.24,67.24,0,0,0-13.83,2.37c1.13-4.81,4.08-8.52,8.18-9.53,4.65-1.15,9.54,1.47,12.77,6.26a0,0,0,0,0,0,0A7.31,7.31,0,0,1,68.47,28.19Z"/>
  </g>
</svg>
