<svg id="a10555b5-e22f-420c-a081-3a9f9922545f" data-name="Layer 1" xmlns="http://www.w3.org/2000/svg" width="250" height="250" viewBox="0 0 250 250">
  <defs>
    <style>
      .b8f937f2-5644-4a0e-8d0c-d74c18621c2c, .f09f2389-85b6-4776-b60b-576f16e973fe {
        fill: #ffe309;
      }

      .a3930826-5406-4d97-8291-7e7ec0c1af60, .f09f2389-85b6-4776-b60b-576f16e973fe {
        stroke: #665608;
      }

      .a3930826-5406-4d97-8291-7e7ec0c1af60, .aaf7af3e-f541-474d-8180-079ec7b4eb28, .b8f937f2-5644-4a0e-8d0c-d74c18621c2c, .f09f2389-85b6-4776-b60b-576f16e973fe {
        stroke-miterlimit: 10;
      }

      .a3930826-5406-4d97-8291-7e7ec0c1af60, .b8f937f2-5644-4a0e-8d0c-d74c18621c2c, .f09f2389-85b6-4776-b60b-576f16e973fe {
        stroke-width: 0.75px;
      }

      .b8f937f2-5644-4a0e-8d0c-d74c18621c2c {
        stroke: #493c05;
      }

      .b80752be-c540-476e-bce3-704e8c081cba {
        fill: #ecc516;
      }

      .aaf7af3e-f541-474d-8180-079ec7b4eb28 {
        fill: #532900;
        stroke: #3a1c03;
      }

      .a81cbd7e-c982-49eb-92c1-88e7796713ad {
        fill: #681a1a;
      }

      .f4ea8500-8f91-4679-909b-d7a348dee002 {
        fill: #ef7089;
      }

      .a9798f3b-9f24-47ad-8461-2661d8790ae5 {
        fill: #ff5763;
      }

      .a38e29f9-e79e-495c-a1ef-a20fb6efbe47 {
        fill: #fff;
      }

      .ed0621c9-9776-43e7-81ce-c75cacb39d03 {
        fill: #ef304c;
      }

      .f23bb3a6-cb2f-4337-b90b-4118d1319ea5 {
        fill: #ffa979;
      }

      .a3930826-5406-4d97-8291-7e7ec0c1af60 {
        fill: none;
      }
    </style>
  </defs>
  <g>
    <g>
      <g>
        <path class="f09f2389-85b6-4776-b60b-576f16e973fe" d="M188.62,200.68s-.3,7.93,8.52,7.56,15-4.06,17.32,4.39,4.07,17.78-4.38,20.12-10-9.83-16.45-7.86-19.12,2.29-21.22-13.06S188.62,200.68,188.62,200.68Z"/>
        <g>
          <path class="f09f2389-85b6-4776-b60b-576f16e973fe" d="M108.93,167.22s4.5,4.55-5.78,34.86c0,0-3.88,12.44-8.3,18.45S87.22,238.67,89.54,243s7.79,6.81,8.38-1.16l-2.74-8.21S94,243,104.59,242.34s-3-11.72-3-11.72l7.74,6.46s8-3.52-2.26-13.42c0,0,5.57-1.35,14.94-20.32s11.35-41.16,11.35-41.16Z"/>
          <path class="b8f937f2-5644-4a0e-8d0c-d74c18621c2c" d="M87,194.06c7.39,9.44,15.39,16.53,24.32,21.17a57.19,57.19,0,0,0,21,6.19h0a72.89,72.89,0,0,0,17-.41q1.6-.21,3.18-.51a77.53,77.53,0,0,0,22.08-7.62c13.72-7.16,24.21-17.42,31.49-25.93,1.75-2,3.31-4,4.68-5.71,10.35-13.15,21-16.56,21-16.56-9.17-1.42-16.13-8.95-24-16.81-7.13-7.2-15-14.71-25.9-18.11-.56-.18-1.12-.36-1.72-.52a50.76,50.76,0,0,0-10.64-1.62,67.72,67.72,0,0,0-16.25,1.25,2.72,2.72,0,0,0-.43.09,91,91,0,0,0-14.58,4.19,74.36,74.36,0,0,0-8.34,3.64c-16.77,9.1-27.86-.87-27.86-.87L78.51,181.8A133.43,133.43,0,0,0,87,194.06Z"/>
          <path class="b80752be-c540-476e-bce3-704e8c081cba" d="M86.62,191.84c8.7-1.75,17.39-6.34,27.11-13,20.13-13.83,31.47-32.69,26.34-43.23a72,72,0,0,0-12.51,3.22,55,55,0,0,0-7.1,3C106.23,149.31,96.22,140,96.22,140l-18.8,40.3C80,184.36,84,188.4,86.62,191.84Z"/>
          <path class="aaf7af3e-f541-474d-8180-079ec7b4eb28" d="M205.14,186.92c1.75-2,4.26-3.94,5.63-5.69,10.35-13.15,21-16.56,21-16.56-9.17-1.42-17.28-9.55-25.13-17.42C210.41,154.6,214.76,169.35,205.14,186.92Z"/>
          <path class="aaf7af3e-f541-474d-8180-079ec7b4eb28" d="M111.3,215.23a57.19,57.19,0,0,0,21,6.19h0c8-5.46,21.39-18.45,28.42-46.41,4.31-17.2-.43-33.25-7.45-46.14a92.49,92.49,0,0,0-15,4.28c5.41,10.24,11.35,28,2.87,47.74C132.87,200.23,119.85,210.36,111.3,215.23Z"/>
          <path class="aaf7af3e-f541-474d-8180-079ec7b4eb28" d="M152.52,220.49a77.53,77.53,0,0,0,22.08-7.62c8.25-7.7,18.53-20.25,20.93-36.62,3-20-4.87-35-13.6-46.5-.56-.18-1.12-.36-1.72-.52a50.76,50.76,0,0,0-10.64-1.62c6.1,9.4,14.34,26.61,9.11,45.69C172.51,195.87,158.3,213.84,152.52,220.49Z"/>
          <g>
            <path class="f09f2389-85b6-4776-b60b-576f16e973fe" d="M96,81.78S107.7,79.23,116.57,53s-10-51.51-23.78-50S81.27,16,95.32,22.12s20,37.57-3.54,57.07C91.78,79.19,79.39,95,96,81.78Z"/>
            <path class="f09f2389-85b6-4776-b60b-576f16e973fe" d="M59.73,86.86s-1.66-21.94-9.16-35S21.8,11,2.73,22.46c0,0-5.08,5.58-1.38,10.34s9.46,5.19,14.1,1S54.86,47.21,54.34,86.87C54.34,86.87,57.57,97.13,59.73,86.86Z"/>
            <g>
              <path class="f09f2389-85b6-4776-b60b-576f16e973fe" d="M18.83,167.75c5.53,25.84,31,35.91,58.91,35.56a.1.1,0,0,0,.09,0,126,126,0,0,0,27.61-3.53c36.69-8.78,51.1-32.63,40.19-69.29C137.44,102.92,115.3,79.68,87.37,77a58.35,58.35,0,0,0-19.28,1.41C31.38,87.17,10.63,129.47,18.83,167.75Z"/>
              <path class="b80752be-c540-476e-bce3-704e8c081cba" d="M75.51,202.74a127.23,127.23,0,0,0,27.6-3.55c36.7-8.78,51.15-32.46,40.32-68.79-8.13-27.31-30.22-50.31-58.12-52.93,13.14,5.31,38.78,20,46.39,55.35C141.6,178.75,107.06,199.37,75.51,202.74Z"/>
              <g>
                <g>
                  <g>
                    <g>
                      <path class="a81cbd7e-c982-49eb-92c1-88e7796713ad" d="M45.81,167.07s2.92,12.22,11,20a22.13,22.13,0,0,0,7.64,5c11,4.2,23,.85,28.89-12.21a9.37,9.37,0,0,0,.38-.86,43.46,43.46,0,0,0,3-11.77s-21.67,8.39-43,2.64A48.56,48.56,0,0,1,45.81,167.07Z"/>
                      <path class="f4ea8500-8f91-4679-909b-d7a348dee002" d="M45.84,167.11A51.33,51.33,0,0,0,53.15,182c3.22,4.45,7.51,8.33,12.79,9.8A24.6,24.6,0,0,0,74,193a19.6,19.6,0,0,0,14.19-6.66,27.77,27.77,0,0,0,4.37-6.81l0-.07a31,31,0,0,0,1.17-2.89c.35-1,.66-2,.93-3.07a48.21,48.21,0,0,0,1.19-6.32L97,168a80.47,80.47,0,0,1-25.79,4.44,61.2,61.2,0,0,1-13-1.2c-1.08-.19-2.12-.52-3.18-.77s-2.11-.55-3.14-.9A41.82,41.82,0,0,1,45.84,167.11Zm-.06-.07a58.29,58.29,0,0,0,6.13,2.28c1,.33,2.08.59,3.14.82s2.1.52,3.18.68a64.46,64.46,0,0,0,12.94,1,82.25,82.25,0,0,0,12.91-1.32,79.67,79.67,0,0,0,12.55-3.31l.14-.05,0,.14a48.58,48.58,0,0,1-1.17,6.46,36.15,36.15,0,0,1-2.16,6.2h0a27.92,27.92,0,0,1-4.57,7,20.8,20.8,0,0,1-6.72,5,22.32,22.32,0,0,1-16.45.63,21.16,21.16,0,0,1-7.34-4,31.81,31.81,0,0,1-5.64-6.23A45.73,45.73,0,0,1,48.6,175c-.59-1.28-1.1-2.58-1.58-3.9A30.43,30.43,0,0,1,45.78,167Z"/>
                    </g>
                    <path class="a9798f3b-9f24-47ad-8461-2661d8790ae5" d="M74.3,179.78c-9.18,1.15-15.81,8-10.42,12.18A11.17,11.17,0,0,0,69,193.89c19.09-.77,23.4-10.6,22.71-16.9-2.34-.52-5,.39-11.6,2.41A45.31,45.31,0,0,0,74.3,179.78Z"/>
                    <path class="a81cbd7e-c982-49eb-92c1-88e7796713ad" d="M81,177.8a17,17,0,0,0-5.43,13.71s1.4-8.85,8.31-14Z"/>
                    <path class="a38e29f9-e79e-495c-a1ef-a20fb6efbe47" d="M68.77,183.25a44.49,44.49,0,0,0,11.76.18A18,18,0,0,0,96.24,168l0-.14s-21.07,8.49-42.43,2.74C53.66,176.05,56.51,181.45,68.77,183.25Z"/>
                  </g>
                  <path class="ed0621c9-9776-43e7-81ce-c75cacb39d03" d="M98.48,159.78c0,.41,0,.81,0,1.22a9.33,9.33,0,0,0,.06,1.18,6.63,6.63,0,0,0,.52,2.19,4,4,0,0,0,1.31,1.75,8.22,8.22,0,0,0,2,1.16v.05a6,6,0,0,1-2.26-.9,4.18,4.18,0,0,1-1.54-1.86,6.15,6.15,0,0,1-.45-2.39,8.91,8.91,0,0,1,.31-2.41Z"/>
                  <path class="ed0621c9-9776-43e7-81ce-c75cacb39d03" d="M42.48,169.89a8.31,8.31,0,0,0,.71-.75,9.45,9.45,0,0,0,.66-.76,9,9,0,0,0,1.08-1.62,7.48,7.48,0,0,0,.76-1.79,16.25,16.25,0,0,0,.45-2h0a7.47,7.47,0,0,1-.12,2.06,6.79,6.79,0,0,1-.7,1.95,8.06,8.06,0,0,1-2.86,2.94Z"/>
                </g>
                <ellipse class="f23bb3a6-cb2f-4337-b90b-4118d1319ea5" cx="113.44" cy="155.61" rx="10.67" ry="7.49" transform="translate(-33.1 30.68) rotate(-13.46)"/>
                <ellipse class="f23bb3a6-cb2f-4337-b90b-4118d1319ea5" cx="28.72" cy="155.19" rx="7.49" ry="10.67" transform="matrix(0.18, -0.98, 0.98, 0.18, -129.1, 155.94)"/>
              </g>
            </g>
          </g>
          <path class="f09f2389-85b6-4776-b60b-576f16e973fe" d="M203.89,169.71a6.11,6.11,0,0,0-9.36,5.5A13.45,13.45,0,0,0,198,184c5.39,5.6,14.52,11,23.82,8s13.14,4.5,16.05,9.05,12.41,4,12.12-7c0,0,.29-14.72-11.82-21,0,0-4.67-3.83-18.49.64C211.23,176.43,207.68,172.17,203.89,169.71Z"/>
        </g>
      </g>
      <path class="f09f2389-85b6-4776-b60b-576f16e973fe" d="M150.82,165.69s21.85,19.09,3.88,34.93C144.13,209.94,139,215,135,215.88c-5.63,1.22-11.72,13.29-10.26,17.53,0,0,2.52,8.76,6.64,3.31,0,0,7.94,10.29,19.72-5.67,0,0,.15-5.05-8.15-5.68,0,0,54.18-23.08,32.09-66.71C175.06,158.66,158.39,149.35,150.82,165.69Z"/>
      <path class="a3930826-5406-4d97-8291-7e7ec0c1af60" d="M141.26,230.39s-7,.26,5.13-7.21"/>
    </g>
    <line class="f09f2389-85b6-4776-b60b-576f16e973fe" x1="131.4" y1="236.72" x2="128.93" y2="231.89"/>
  </g>
</svg>
