<svg id="feab84ec-8e2c-4289-901b-86a32db92ff9" data-name="Layer 1" xmlns="http://www.w3.org/2000/svg" width="57" height="52" viewBox="0 0 57 52">
  <defs>
    <style>
      .a1ada7e7-470f-4a02-8a64-88fd8d2c0f4b {
        fill: #fff;
      }

      .e4ad19f6-849e-4dfb-bd28-71dd7c132554 {
        fill: #702840;
      }

      .baf5bff8-00d6-4fcb-973a-c2f4c78b264a {
        fill: #210a11;
      }

      .b10e8d16-ca37-4622-9a5e-764f81ea4f0c {
        fill: #ecc516;
        stroke: #7f3d00;
        stroke-miterlimit: 10;
        stroke-width: 0.25px;
      }
    </style>
  </defs>
  <g>
    <g>
      <g>
        <ellipse class="a1ada7e7-470f-4a02-8a64-88fd8d2c0f4b" cx="15.31" cy="35.51" rx="11.06" ry="15" transform="translate(-9.56 5.9) rotate(-16.71)"/>
        <path class="e4ad19f6-849e-4dfb-bd28-71dd7c132554" d="M19.79,49.88a8.93,8.93,0,0,1-5.12.08,12.09,12.09,0,0,1-4.55-2.43A18.88,18.88,0,0,1,4.31,39,18.89,18.89,0,0,1,3.69,28.5a13.17,13.17,0,0,1,2.36-4.9,9.75,9.75,0,0,1,4.51-3.26,9.72,9.72,0,0,1,5.58,0A12.92,12.92,0,0,1,20.88,23a18.82,18.82,0,0,1,5.42,9,19.18,19.18,0,0,1,0,10.33A12.54,12.54,0,0,1,24,47,9,9,0,0,1,19.79,49.88Zm0-.1a8.89,8.89,0,0,0,4.11-2.91,12.49,12.49,0,0,0,2.25-4.56A19.06,19.06,0,0,0,20.33,23.7a12,12,0,0,0-4.45-2.43,8.72,8.72,0,0,0-5,0,8.89,8.89,0,0,0-4.1,2.9,12.35,12.35,0,0,0-2.25,4.53,19,19,0,0,0,5.75,18.63,12.15,12.15,0,0,0,4.45,2.45A8.74,8.74,0,0,0,19.76,49.78Z"/>
      </g>
      <ellipse class="baf5bff8-00d6-4fcb-973a-c2f4c78b264a" cx="20.44" cy="32" rx="5.01" ry="6.75" transform="matrix(0.93, -0.36, 0.36, 0.93, -10.09, 9.42)"/>
      <ellipse class="a1ada7e7-470f-4a02-8a64-88fd8d2c0f4b" cx="21.71" cy="28.52" rx="1.38" ry="1.85" transform="translate(-8.76 9.64) rotate(-20.94)"/>
      <path class="b10e8d16-ca37-4622-9a5e-764f81ea4f0c" d="M4.78,38.9C2.31,31,5,23.07,10.84,21.2s12.53,3,15,10.93C22,25,12,32,4.78,38.9Z"/>
    </g>
    <g>
      <g>
        <ellipse class="a1ada7e7-470f-4a02-8a64-88fd8d2c0f4b" cx="43.58" cy="24.01" rx="10.06" ry="13.64" transform="translate(-6.17 24.48) rotate(-29.39)"/>
        <path class="e4ad19f6-849e-4dfb-bd28-71dd7c132554" d="M50.43,35.86A8.12,8.12,0,0,1,45.91,37a11.27,11.27,0,0,1-4.54-1.24,17.34,17.34,0,0,1-6.89-6.41A17.36,17.36,0,0,1,31.8,20.1a12.11,12.11,0,0,1,1.12-4.85,9,9,0,0,1,3.39-3.83,8.85,8.85,0,0,1,5-1.09,11.72,11.72,0,0,1,4.77,1.43,17.19,17.19,0,0,1,6.61,7,17.48,17.48,0,0,1,2.08,9.18,11.4,11.4,0,0,1-1.17,4.55A8.22,8.22,0,0,1,50.43,35.86Zm0-.09a8.05,8.05,0,0,0,3.06-3.4,11.23,11.23,0,0,0,1.09-4.49A16.9,16.9,0,0,0,52.21,19a16.78,16.78,0,0,0-6.54-6.46,10.91,10.91,0,0,0-4.42-1.26,7.9,7.9,0,0,0-4.44,1,8.1,8.1,0,0,0-3.05,3.38,11.19,11.19,0,0,0-1.1,4.47A17,17,0,0,0,35,29a16.71,16.71,0,0,0,6.52,6.48,10.83,10.83,0,0,0,4.43,1.28A7.92,7.92,0,0,0,50.38,35.77Z"/>
      </g>
      <ellipse class="baf5bff8-00d6-4fcb-973a-c2f4c78b264a" cx="47.78" cy="19.45" rx="4.56" ry="6.14" transform="translate(-2.78 29.71) rotate(-33.63)"/>
      <ellipse class="a1ada7e7-470f-4a02-8a64-88fd8d2c0f4b" cx="48.21" cy="16.26" rx="1.25" ry="1.68" transform="translate(-0.94 29.42) rotate(-33.63)"/>
      <path class="b10e8d16-ca37-4622-9a5e-764f81ea4f0c" d="M34.92,29.12C31.15,22.59,32,15,36.76,12.2s11.72.17,15.49,6.7C49,14,40,17,34.92,29.12Z"/>
    </g>
    <path class="baf5bff8-00d6-4fcb-973a-c2f4c78b264a" d="M31.81,7s4.26-1.83,11.57.35C43.38,7.35,30.19-1.09,31.81,7Z"/>
    <path class="baf5bff8-00d6-4fcb-973a-c2f4c78b264a" d="M13.64,11.35S8.76,12.89,3.9,19.58C3.9,19.58,9.71,4.09,13.64,11.35Z"/>
  </g>
</svg>
