<svg id="b395c18a-c2b1-499b-87a4-60e1f65d00d4" data-name="Layer 1" xmlns="http://www.w3.org/2000/svg" width="146.56" height="81.23" viewBox="0 0 146.56 81.23">
  <defs>
    <style>
      .a71fed2d-1f20-4b1d-8c70-6459cf95481e {
        fill: #7d3a1b;
      }

      .b8c35798-9b1a-4f27-8c76-78239468a810 {
        fill: #fff;
      }

      .e077603a-4f2f-42b6-bcca-5f8db5781bc2 {
        fill: #121928;
      }

      .e2eea11d-0930-4075-928a-092a9e97d0e8 {
        fill: #9b4e24;
      }
    </style>
  </defs>
  <g>
    <g>
      <g>
        <path class="a71fed2d-1f20-4b1d-8c70-6459cf95481e" d="M142.66,40.61c0,21.24-12.15,38.46-27.14,38.46S88.39,61.85,88.39,40.61,100.54,2.16,115.52,2.16,142.66,19.38,142.66,40.61Z"/>
        <path class="b8c35798-9b1a-4f27-8c76-78239468a810" d="M115.4,79.07c-13.27,0-24.07-15.27-24.07-34s10.8-34,24.07-34,24.06,15.27,24.06,34S128.67,79.07,115.4,79.07Z"/>
      </g>
      <g>
        <g>
          <path class="a71fed2d-1f20-4b1d-8c70-6459cf95481e" d="M33.68,43.05c-1.43,16.43-9.15,29.18-17.25,28.48s-13.5-14.6-12.07-31S13.51,11.31,21.61,12,35.11,26.62,33.68,43.05Z"/>
          <path class="b8c35798-9b1a-4f27-8c76-78239468a810" d="M33.4,46.28c-1.28,14.65-8.87,26-17,25.25S2.81,58.37,4.08,43.73s8.87-26,17-25.25S34.67,31.63,33.4,46.28Z"/>
        </g>
        <g>
          <path class="b8c35798-9b1a-4f27-8c76-78239468a810" d="M25.26,48.52a3.14,3.14,0,1,1-3.14-3A3.06,3.06,0,0,1,25.26,48.52Z"/>
          <path class="b8c35798-9b1a-4f27-8c76-78239468a810" d="M20.37,62.05A1.35,1.35,0,1,1,19,60.77,1.32,1.32,0,0,1,20.37,62.05Z"/>
          <path class="e077603a-4f2f-42b6-bcca-5f8db5781bc2" d="M33.71,42.7h0c-1.57-5.32-4.94-9.08-9.09-9.4-6.27-.5-11.91,7-12.65,16.64A23.44,23.44,0,0,0,14.22,62.4c1.87,3.58,4.61,5.68,7.72,5.92a5.68,5.68,0,0,0,.59,0A7.53,7.53,0,0,0,24.69,68C34.05,61.53,33.72,43.29,33.71,42.7Z"/>
        </g>
        <circle class="b8c35798-9b1a-4f27-8c76-78239468a810" cx="22.12" cy="37.51" r="3.81"/>
      </g>
      <ellipse class="e077603a-4f2f-42b6-bcca-5f8db5781bc2" cx="125.92" cy="53.21" rx="13.54" ry="18.35"/>
      <circle class="b8c35798-9b1a-4f27-8c76-78239468a810" cx="120.21" cy="40.79" r="3.81"/>
    </g>
    <path class="e2eea11d-0930-4075-928a-092a9e97d0e8" d="M4.81,54.35C3.28,48.52,3,22.05,18.62,18.45c0,0,11.51-2.87,14.52,17.38a49.81,49.81,0,0,1-.68,18.52s-7.2-10.33-14.15-11C18.31,43.32,8.28,43.43,4.81,54.35Z"/>
    <path class="e2eea11d-0930-4075-928a-092a9e97d0e8" d="M91.83,55.08c-.4-4-6.09-40,22.92-44.41,0,0,14.86-1.77,22.44,19.94,0,0,3.27,4.25,2.25,23.66,0,0-10.09-6-26.61-5.75C112.83,48.52,95.54,46.11,91.83,55.08Z"/>
  </g>
</svg>
