<svg id="Layer_1" data-name="Layer 1" xmlns="http://www.w3.org/2000/svg" viewBox="0 0 823.45 564.47"><defs><style>.cls-1{fill:#823c2f;}.cls-2{fill:#b46f36;}.cls-3{fill:#fde460;}.cls-4,.cls-6{fill:#e5c19c;}.cls-5{fill:#662a22;}.cls-6{opacity:0.61;}.cls-7{fill:#daac7b;}.cls-8,.cls-9{opacity:0.26;}.cls-10,.cls-16,.cls-19,.cls-24,.cls-25,.cls-9{fill:none;}.cls-10,.cls-9{stroke:#662a22;}.cls-10,.cls-13,.cls-16,.cls-19,.cls-24,.cls-25,.cls-9{stroke-miterlimit:10;}.cls-11{fill:#a5571e;}.cls-12{fill:#874518;}.cls-13{fill:#107d1d;stroke:#1f5b08;}.cls-14{fill:#309a3b;}.cls-15{fill:#042f33;}.cls-16{stroke:#042f33;}.cls-17{fill:#cb07aa;}.cls-18{fill:#f609e3;}.cls-19{stroke:#7c0879;}.cls-20{fill:#753c15;}.cls-21{fill:#ffe67b;}.cls-22{fill:#ffa52e;}.cls-23{opacity:0.5;}.cls-24,.cls-25{stroke:#fff;stroke-width:4px;}.cls-25{stroke-dasharray:11.94 11.94;}</style></defs><path class="cls-1" d="M574.59,70.55H363.2a10.59,10.59,0,0,0-8.78,4.67L250.26,229.42a10.59,10.59,0,0,0,0,11.86l104.16,154.2a10.59,10.59,0,0,0,8.78,4.67H574.59a10.59,10.59,0,0,0,8.78-4.67l104.17-154.2a10.59,10.59,0,0,0,0-11.86L583.37,75.22A10.59,10.59,0,0,0,574.59,70.55Z"/><path class="cls-2" d="M564.31,85.77H373.48a10.58,10.58,0,0,0-8.78,4.66l-93.89,139a10.59,10.59,0,0,0,0,11.86l93.89,139a10.58,10.58,0,0,0,8.78,4.66H564.31a10.61,10.61,0,0,0,8.79-4.66l93.88-139a10.59,10.59,0,0,0,0-11.86l-93.88-139A10.61,10.61,0,0,0,564.31,85.77Z"/><path class="cls-3" d="M414.61,230.56c4.34-18.63,3.23-65.32-.87-83.95,0,0,11.67-.62,21.36-4.71-1.87,17.75-2.49,48-.25,65.56,6.83-2.73,15.39-5.34,23.84-5.71a153.13,153.13,0,0,0,.12,20.86A210.85,210.85,0,0,0,414.61,230.56Z"/><path class="cls-3" d="M488.74,227.83c-10.31.74-22.11-5.1-26.08-20.86-4.35-17.27,3.23-36.39,20.49-36.64,16.51-.25,23.34,12.42,24.09,28.44a213.83,213.83,0,0,0-30.42,2.85c.62,7.83,3.47,14,7.57,13.67,3.85-.38,4.59-5.59,3.73-10.31,0,0,11.3-1.49,22-2.24C510,220.75,498.67,227.21,488.74,227.83ZM482.9,183c-3,.5-5.09,4.47-6,10.06a104.21,104.21,0,0,0,13-1.24C489.23,186.48,486.75,182.5,482.9,183Z"/><path class="cls-3" d="M529.83,228.32c-14.4-2.6-17-23.09-14.65-44.7-2.85.12-4.59.25-4.59.25.25-5.59,1-10.8,1-10.8l5.22-.25A161.77,161.77,0,0,1,521,154.93c8.44.13,17,.5,17,.5A105,105,0,0,0,532.82,172l12.29-.62A87.66,87.66,0,0,0,543.74,185a124.91,124.91,0,0,0-13.41-1.37c-2.61,15.52-1.86,27.69.87,28.68s4.22-5,4.1-12.16c8.32,2.85,15.89,6.33,15.89,6.33C549.33,223.48,540,230.19,529.83,228.32Z"/><path class="cls-3" d="M549.08,168.22a9.93,9.93,0,0,0,6.08-6.33c-6.83,1-9.68-4.1-9.43-8.69a9,9,0,0,1,9.06-8.57c5.09-.25,9.19,3.72,9.56,9.31C564.85,162.14,558.64,170,549.08,168.22Z"/><path class="cls-3" d="M581.86,228.57c-8.82-.12-16.64-3.1-23.22-11.92a86.22,86.22,0,0,1,11.17-12.91c4.23,8.56,11.8,10.68,13.66,8.44,1.49-1.86.5-5.09-7.57-8.57-7.33-3.1-13.78-7.7-14.16-15.89-.37-6.58,3.73-15.28,16.77-15.9,14-.62,20.86,9.07,23.84,18.63a49.23,49.23,0,0,0-16,4.72c-3.72-9.69-9.81-9.31-9.31-5.47,1.49,10.44,25.83,8.32,25.45,24.34C602.22,223.61,593,228.7,581.86,228.57Z"/><path class="cls-4" d="M358.59,73.66l8.66,14.39-95.44,147.3H251.26s-.37-7.68,4.14-13.55,95-140.59,95-140.59S354.5,75.25,358.59,73.66Z"/><path class="cls-5" d="M577.36,398.64l-9.14-16c10-.76,79.93-109.62,100.49-148.44H687s0,6.85-6.86,18.27c-3.8,6.34-91.34,137-91.34,137S584.21,398.64,577.36,398.64Z"/><path class="cls-6" d="M250.78,234.21h22.84c-5.32,12.68,97.78,151.9,93.63,146.16l-7.36,17.11s-7.25-2.57-11-9-94.26-141.08-94.26-141.08S250.71,238.6,250.78,234.21Z"/><path class="cls-7" d="M577.36,72.06l-11.42,16L368.1,87.79,357.26,73.32s7.07-5.26,15.43-4.9,193.25-.92,193.25-.92S573.31,69.34,577.36,72.06Z"/><g class="cls-8"><path class="cls-5" d="M386,67.5c4.74,1.6,9.41,3.44,14,5.44a92.08,92.08,0,0,1,13.33,7A19,19,0,0,1,419,85.11a4.11,4.11,0,0,1,.47,4,6.55,6.55,0,0,1-2.94,2.66A28,28,0,0,1,409.21,94c-2.48.48-5,.8-7.48,1.08-5,.47-10,.67-15,.76s-10,.08-15-.07q-15-.42-30-1.61c5,.17,10,.39,15,.51s10,.27,15,.33a284.78,284.78,0,0,0,29.95-.92c2.48-.25,5-.56,7.4-1a27.44,27.44,0,0,0,7-2.15,5.77,5.77,0,0,0,2.56-2.25,3.24,3.24,0,0,0-.4-3.14,19.65,19.65,0,0,0-5.32-5,92.45,92.45,0,0,0-13.1-7.2C395.28,71.24,390.66,69.31,386,67.5Z"/></g><g class="cls-8"><path class="cls-5" d="M422.82,67.5a204.63,204.63,0,0,1,21.38,7.15,93.21,93.21,0,0,1,10.22,4.81,38.36,38.36,0,0,1,4.77,3.08,13.39,13.39,0,0,1,3.87,4.25,4.78,4.78,0,0,1,.52,3,5.2,5.2,0,0,1-1.4,2.66,14.9,14.9,0,0,1-4.81,3.17A57.72,57.72,0,0,1,446.55,99a203.17,203.17,0,0,1-22.32,3.41c-15,1.49-30,2.2-45,2.59q-11.26.27-22.53.33c-7.52,0-15,0-22.54-.11,7.51-.09,15-.2,22.53-.38s15-.34,22.52-.61c15-.55,30-1.25,44.94-2.81a202.07,202.07,0,0,0,22.22-3.31A57.29,57.29,0,0,0,457,94.8a14.75,14.75,0,0,0,4.55-3,4.44,4.44,0,0,0,1.22-2.23,3.91,3.91,0,0,0-.42-2.49,12.62,12.62,0,0,0-3.61-4A39,39,0,0,0,454.11,80,95.14,95.14,0,0,0,444,75.09,207.8,207.8,0,0,0,422.82,67.5Z"/></g><g class="cls-8"><path class="cls-5" d="M447.18,67.5c4,1.71,8,3.62,11.83,5.67a113.83,113.83,0,0,1,11.26,6.77,46.16,46.16,0,0,1,9.82,8.75,14.65,14.65,0,0,1,3,6,8.18,8.18,0,0,1-1.49,6.48,16.6,16.6,0,0,1-5.06,4.35,37.57,37.57,0,0,1-6,2.82,90.57,90.57,0,0,1-12.69,3.56,233,233,0,0,1-26,3.65c-17.46,1.5-35,1.93-52.46,2-8.75,0-17.5-.13-26.25-.35s-17.48-.57-26.22-.93c8.74.2,17.49.37,26.23.44s17.49.13,26.23.07c17.48-.18,35-.6,52.38-2.17A232.84,232.84,0,0,0,457.64,111a90.14,90.14,0,0,0,12.56-3.48,37.31,37.31,0,0,0,5.87-2.73,15.66,15.66,0,0,0,4.87-4.08,7.43,7.43,0,0,0,1.42-5.91,13.9,13.9,0,0,0-2.77-5.7,45.67,45.67,0,0,0-9.6-8.74,112.64,112.64,0,0,0-11.09-7C455.08,71.26,451.17,69.28,447.18,67.5Z"/></g><g class="cls-8"><path class="cls-5" d="M597.91,96.74a15.09,15.09,0,0,1,1.74,10.18,22,22,0,0,1-4.37,9.5c-4.28,5.63-10.12,9.83-16.17,13.36l-2.28,1.34c-.78.41-1.57.79-2.35,1.19-1.58.78-3.15,1.58-4.73,2.34l-4.85,2.08-2.42,1c-.82.34-1.65.62-2.47.93-3.31,1.19-6.57,2.52-9.94,3.52l-5,1.6c-.84.26-1.67.54-2.52.79l-2.54.7c-3.39.91-6.76,1.92-10.17,2.76l-10.25,2.45c-3.42.81-6.87,1.45-10.31,2.18l-5.16,1.07c-1.72.35-3.45.63-5.18,1l-10.37,1.85c-3.46.6-6.94,1.08-10.41,1.63s-6.94,1.09-10.42,1.56l-10.44,1.36c-27.88,3.46-55.89,5.72-83.92,7.45l-21,1.17-21,.89-10.52.39-10.53.26-21.05.52,21-.76,10.52-.39,10.52-.51,21-1,21-1.25c28-1.84,56-4.22,83.83-7.78l10.44-1.32c3.48-.45,6.94-1,10.41-1.52s6.95-1,10.41-1.58l10.36-1.81c1.73-.31,3.46-.58,5.18-.92l5.16-1.05c3.43-.72,6.88-1.34,10.3-2.14l10.24-2.4c3.41-.83,6.77-1.82,10.16-2.72l2.54-.69c.84-.24,1.67-.52,2.51-.78l5-1.57c3.36-1,6.62-2.3,9.92-3.47.82-.3,1.65-.58,2.46-.91l2.42-1,4.84-2.05c1.59-.75,3.15-1.54,4.72-2.31.78-.39,1.58-.77,2.35-1.17l2.27-1.32c6.06-3.44,11.91-7.55,16.22-13.09a21.69,21.69,0,0,0,4.45-9.37A15,15,0,0,0,597.91,96.74Z"/></g><g class="cls-8"><path class="cls-5" d="M616.18,123.79a6.87,6.87,0,0,1,0,2.71,13.2,13.2,0,0,1-.79,2.62,17.47,17.47,0,0,1-1.31,2.4c-.25.38-.49.77-.75,1.14l-.87,1.06c-.3.35-.57.72-.88,1.05l-1,1a19.68,19.68,0,0,1-2,1.86c-.7.58-1.39,1.18-2.11,1.74l-2.24,1.58a100.46,100.46,0,0,1-19.47,9.9c-13.6,5.34-27.76,9.07-42,12.16s-28.65,5.47-43.08,7.6c-14.45,2-28.92,3.76-43.44,5.14-29,2.74-58.14,4.49-87.27,5.74l-21.85.8c-7.28.27-14.57.39-21.85.59l-10.93.23-10.93.13-21.87.23,21.86-.48,10.93-.25,10.92-.35c7.29-.24,14.57-.38,21.85-.68L369,180.8c29.12-1.36,58.21-3.23,87.21-6.07,14.51-1.33,29-3,43.42-5s28.8-4.41,43.05-7.42a275.94,275.94,0,0,0,42-12,99,99,0,0,0,19.51-9.66l2.25-1.54c.72-.55,1.42-1.14,2.13-1.71a20.48,20.48,0,0,0,2-1.83l1-.95c.31-.33.59-.69.89-1l.87-1c.27-.37.51-.76.76-1.13a15.88,15.88,0,0,0,1.33-2.38,12.36,12.36,0,0,0,.81-2.59A6.69,6.69,0,0,0,616.18,123.79Z"/></g><g class="cls-8"><path class="cls-5" d="M653.07,178.39c-.17-.18-.47-.18-.71-.23s-.51-.07-.76-.08c-.51,0-1-.06-1.53-.07-1,0-2.05,0-3.07,0-2,0-4.09.08-6.14.15-4.09.15-8.17.38-12.26.61-8.17.49-16.33,1.08-24.5,1.69q-24.48,1.81-49,4c-32.62,2.82-65.21,5.9-97.8,9.06s-65.19,6.21-97.77,9.43l-97.76,9.65,48.83-5.27,48.86-5q48.86-5,97.74-9.77,48.92-4.58,97.85-8.72c16.31-1.35,32.64-2.66,49-3.79,8.17-.54,16.34-1.05,24.52-1.45,4.09-.19,8.18-.38,12.27-.49q3.06-.09,6.14-.09c1,0,2,0,3.07,0q.76,0,1.53.09c.26,0,.51.05.76.08A1.31,1.31,0,0,1,653.07,178.39Z"/></g><path class="cls-9" d="M666,197.52s-53.72-10.58-414.31,33"/><path class="cls-10" d="M555.05,400.15s-99.87,5.36,49.71-36.33"/><g class="cls-8"><path class="cls-5" d="M612.85,353.53l-16.7,4.84q-8.34,2.42-16.67,4.92c-11.1,3.34-22.18,6.71-33.18,10.35s-22,7.35-32.65,11.81c-2.67,1.12-5.31,2.3-7.88,3.61a30.88,30.88,0,0,0-7.19,4.68,5.07,5.07,0,0,0-1.19,1.67,1.67,1.67,0,0,0,.37,1.81,8.21,8.21,0,0,0,3.77,1.85,53.45,53.45,0,0,0,8.56,1.3,48.34,48.34,0,0,1-8.63-1.05,8.55,8.55,0,0,1-4-1.84,2.1,2.1,0,0,1-.5-2.21,5.39,5.39,0,0,1,1.25-1.88,31,31,0,0,1,7.25-4.89c2.57-1.37,5.2-2.59,7.86-3.76,5.32-2.34,10.75-4.39,16.2-6.37s10.94-3.86,16.45-5.68q16.56-5.34,33.28-10.13C590.42,359.38,601.6,356.33,612.85,353.53Z"/></g><g class="cls-8"><path class="cls-5" d="M631.41,322.51q-13.33,3.67-26.61,7.54t-26.54,7.73C560.59,343,543,348.36,525.43,354.05s-35,11.57-52.15,18.29a229.78,229.78,0,0,0-25.15,11.33,66.37,66.37,0,0,0-5.89,3.57,21.11,21.11,0,0,0-5.07,4.58,4.43,4.43,0,0,0-1,3.14,4.15,4.15,0,0,0,1.94,2.66,20.42,20.42,0,0,0,6.38,2.53,20.49,20.49,0,0,1-6.45-2.43A4.28,4.28,0,0,1,436,395a4.55,4.55,0,0,1,1-3.31,21.31,21.31,0,0,1,5.06-4.74,67.17,67.17,0,0,1,5.86-3.7A229.27,229.27,0,0,1,473,371.62c17.12-6.88,34.6-12.8,52.12-18.52s35.21-11,52.93-16.05q13.29-3.81,26.62-7.47T631.41,322.51Z"/></g><g class="cls-8"><path class="cls-5" d="M361.54,397.5a18.78,18.78,0,0,1,1.38-1.84c.51-.56,1.07-1.09,1.6-1.64l.8-.82.88-.74L368,391a44.28,44.28,0,0,1,3.67-2.74l1.88-1.33a21.82,21.82,0,0,1,1.91-1.27l3.93-2.37c1.32-.77,2.59-1.64,4-2.3l8.15-4.25c2.75-1.33,5.57-2.52,8.36-3.79l4.19-1.88c1.39-.64,2.84-1.14,4.26-1.71l8.54-3.35c1.43-.55,2.84-1.15,4.29-1.65l4.34-1.5,8.68-3c2.89-1,5.77-2,8.72-2.86l17.56-5.33c5.88-1.7,11.81-3.2,17.72-4.81l8.86-2.38c3-.8,5.95-1.44,8.92-2.17,11.92-2.74,23.81-5.66,35.83-8l18-3.69,4.5-.92,4.51-.83,9-1.63,18-3.27,9-1.63,9.06-1.44,36.27-5.62c-24.12,4.1-48.27,8-72.29,12.61l-9,1.68-4.5.85-4.49.94-18,3.77c-12,2.37-23.86,5.35-35.76,8.14-3,.72-6,1.34-8.92,2.13l-8.87,2.33c-5.9,1.58-11.84,3.06-17.72,4.73l-17.57,5.24c-2.94.83-5.83,1.84-8.72,2.82l-8.68,3-4.34,1.47c-1.45.5-2.86,1.09-4.29,1.63l-8.55,3.3c-1.41.57-2.86,1.07-4.26,1.69L400,373.42c-2.78,1.25-5.6,2.44-8.36,3.74l-8.18,4.13c-1.39.65-2.67,1.49-4,2.24l-4,2.32a20.28,20.28,0,0,0-1.92,1.24l-1.89,1.3a42.73,42.73,0,0,0-3.71,2.69l-1.77,1.45-.89.72-.81.81c-.54.54-1.1,1.06-1.62,1.62A19.11,19.11,0,0,0,361.54,397.5Z"/></g><path class="cls-11" d="M600.38,236.5a31.12,31.12,0,0,0,15.79-26.6,30.1,30.1,0,0,0-3-14.23,18.28,18.28,0,0,0,2-15.23c-5.83-18.72-19.63-30.26-37.19-31.37,0-.31,0-.61,0-.91-1-15-12.76-26.38-27.34-26.38-.45,0-.9,0-1.27,0a27.58,27.58,0,0,0-20.85,10.59c-3.27-.11-7.55-.24-11.84-.3h-.27a18.28,18.28,0,0,0-17.52,13.09c-.61,2.06-1.14,4.13-1.68,6.2a42.1,42.1,0,0,0-18.19-3.9h-.74a37.91,37.91,0,0,0-30.09,15.09c-.34.45-.66.92-1,1.38.23-9.09.74-17.89,1.46-24.74a18.28,18.28,0,0,0-25.29-18.73c-5.4,2.28-12.85,3.16-15.21,3.3A18.26,18.26,0,0,0,391.33,146c2,9,3.18,27,3.2,43.81q-.72-.06-1.44-.06a18.35,18.35,0,0,0-2.33.15c-10.72,1.38-24,1.69-36.84,2-7.73.18-15.74.37-23.33.8a18.27,18.27,0,0,0-16.95,21.57,165.23,165.23,0,0,1,2.34,23.2,18.28,18.28,0,0,0,21,17.68A278,278,0,0,1,335,304.65,18.26,18.26,0,0,0,353,325.58c.58,0,1.17,0,1.76-.08.12,0,12.51-1.21,23.64-1.6.4,0,.79-.07,1.18-.11a18.1,18.1,0,0,0,6.8,1.37,18.42,18.42,0,0,0,5.62-.88,46.19,46.19,0,0,1,13-1.78l1.32,0A18.21,18.21,0,0,0,424,308.9c7.66,9.79,20.25,15.39,32.13,15.39a33.53,33.53,0,0,0,3.91-.22l.42-.05c1-.15,2.08-.32,3.09-.53a18.22,18.22,0,0,0,5,.7,19.88,19.88,0,0,0,2-.11c.05,0,5.75-.64,11.62-.64.8,0,1.6,0,2.4,0h.63a18.29,18.29,0,0,0,10.7-3.46,42.75,42.75,0,0,0,17,3.43c1.36,0,2.72-.06,3.9-.16,10.39-.82,19.28-4.52,26.09-10.46a44.15,44.15,0,0,0,28.8,10.44c1.1,0,2.19,0,3.09-.1,20.29-1.27,40.85-16.05,41.06-46.21a18.28,18.28,0,0,0-3.68-11.13C610.73,253.8,606.64,243.85,600.38,236.5Z"/><path class="cls-12" d="M600.29,236.49a48.35,48.35,0,0,0,4.79-3.5,32.14,32.14,0,0,0,4-4.2,30.48,30.48,0,0,0,6.51-16,33.28,33.28,0,0,0,.13-5.82,28.85,28.85,0,0,0-3-11.13l-.11-.22.14-.21a18,18,0,0,0,1.53-15.86,49.09,49.09,0,0,0-7.8-14.74l-1.32-1.62c-.44-.54-.94-1-1.42-1.53a39,39,0,0,0-3-2.87,38,38,0,0,0-6.9-4.63l-.92-.5-1-.42-1.9-.83-2-.69c-.33-.11-.65-.23-1-.33l-1-.26a42.15,42.15,0,0,0-8.2-1.35l-.68-.06,0-.66a28.47,28.47,0,0,0-5.2-15.51A26.39,26.39,0,0,0,559,123.93a27.39,27.39,0,0,0-8.13-1.32,28.21,28.21,0,0,0-8.17,1.16,26.42,26.42,0,0,0-13.43,9.15l-.27.35h-.44L518.05,133a19.89,19.89,0,0,0-5,.32,17.67,17.67,0,0,0-4.68,1.67,17.55,17.55,0,0,0-8.87,11.56l-1.38,5-.27,1-.94-.45a40.12,40.12,0,0,0-13.17-3.6,42.33,42.33,0,0,0-13.66.76,36.89,36.89,0,0,0-12.49,5.45,35.65,35.65,0,0,0-5.29,4.36,37.82,37.82,0,0,0-4.44,5.25l-1.38,2,.07-2.46c.19-6.42.51-12.84,1-19.25.14-1.61.28-3.21.45-4.81a19.23,19.23,0,0,0,.06-4.67,17.77,17.77,0,0,0-24.36-14.37,34.29,34.29,0,0,1-4.62,1.54,64.26,64.26,0,0,1-9.53,1.69l-2.39.2a16.57,16.57,0,0,0-2.32.41,17.67,17.67,0,0,0-4.37,1.72,17.87,17.87,0,0,0-9.24,15.46,20.24,20.24,0,0,0,.54,4.7c.33,1.58.58,3.17.81,4.76.88,6.38,1.36,12.79,1.74,19.2s.54,12.83.57,19.25v.39l-.4,0c-3-.18-6.13.48-9.24.71s-6.22.51-9.33.68c-6.23.35-12.46.54-18.69.71s-12.44.43-18.66.65l-4.67.17c-1.54.08-3.14.05-4.62.25A17.68,17.68,0,0,0,314,212.58c.15,1.47.5,3,.72,4.58s.46,3.09.66,4.64c.4,3.1.73,6.21.95,9.33.11,1.56.2,3.12.26,4.69a26.84,26.84,0,0,0,.37,4.54,17.73,17.73,0,0,0,3.85,8,17.52,17.52,0,0,0,7.25,5.09,17.7,17.7,0,0,0,8.8.88l.89-.14,0,.9q.63,13.48.06,27c-.2,4.5-.49,9-.92,13.47q-.32,3.38-.75,6.72c-.13,1.1-.33,2.28-.43,3.31a18.88,18.88,0,0,0,0,3.19,17.31,17.31,0,0,0,17,15.84c1.05,0,2.1-.09,3.25-.21l3.36-.29,6.72-.53q3.36-.24,6.73-.43l3.37-.17c1.12,0,2.28-.07,3.3-.19l.24,0,.25.1a16.86,16.86,0,0,0,11.79.41,46.05,46.05,0,0,1,12.94-1.81l1.59,0c.51,0,1,0,1.51-.07a17,17,0,0,0,8.38-3.07,17.1,17.1,0,0,0,6.73-9.69l.53-2,1.3,1.65a38.21,38.21,0,0,0,7.8,7.38,40.91,40.91,0,0,0,9.52,5,40.29,40.29,0,0,0,10.49,2.42,29.32,29.32,0,0,0,5.38.07,23.63,23.63,0,0,0,2.67-.21l2.68-.45.25-.05.22.07a17.48,17.48,0,0,0,3.86.63,14.29,14.29,0,0,0,2,0c.63,0,1.34-.1,2-.16,2.77-.25,5.55-.42,8.35-.49,1.39,0,2.8,0,4.2,0a18.3,18.3,0,0,0,3.93-.24,17.4,17.4,0,0,0,7.18-3l.46-.33.5.22A40.93,40.93,0,0,0,508,322.26a36.66,36.66,0,0,0,6.11.24,48.22,48.22,0,0,0,6.11-.49,45.78,45.78,0,0,0,11.78-3.3,40.67,40.67,0,0,0,10.34-6.47l.52-.45.51.44a43.48,43.48,0,0,0,25.77,10.29,45.31,45.31,0,0,0,27-6.95,41.42,41.42,0,0,0,16.7-22.21,52.61,52.61,0,0,0,2.46-14,35.29,35.29,0,0,0,.12-3.55,17.74,17.74,0,0,0-.52-3.47,18.09,18.09,0,0,0-3-6.33l0-.07v-.08a64.91,64.91,0,0,0-3.61-15.51,50.52,50.52,0,0,0-3.37-7.23c-.65-1.17-1.37-2.29-2.12-3.39-.37-.55-.79-1.08-1.18-1.62Zm.19,0c.44.5.85.95,1.25,1.47s.82,1.06,1.2,1.61c.78,1.1,1.51,2.22,2.19,3.38a51.86,51.86,0,0,1,3.49,7.24,65.28,65.28,0,0,1,3.85,15.59l-.06-.16a19,19,0,0,1,3.2,6.53,17.65,17.65,0,0,1,.58,3.61,33.74,33.74,0,0,1-.06,3.63,52.2,52.2,0,0,1-2.36,14.23,42.59,42.59,0,0,1-17,22.9,46.66,46.66,0,0,1-27.69,7.35,44.91,44.91,0,0,1-26.71-10.46h1a42.14,42.14,0,0,1-10.71,6.81,47.43,47.43,0,0,1-12.19,3.51,51.34,51.34,0,0,1-6.32.56,39.91,39.91,0,0,1-6.37-.21,42.88,42.88,0,0,1-12.32-3.19l1-.1a19.31,19.31,0,0,1-8,3.39,21.05,21.05,0,0,1-4.33.27c-1.36,0-2.72-.05-4.1,0-2.73.07-5.48.24-8.21.49-.68.07-1.34.14-2.09.17a16,16,0,0,1-2.19.05,19,19,0,0,1-4.31-.71l.47,0-2.78.47a27.15,27.15,0,0,1-2.85.24,31.58,31.58,0,0,1-5.67-.07,42.1,42.1,0,0,1-11-2.53,42.77,42.77,0,0,1-10-5.27,40.53,40.53,0,0,1-8.23-7.79l1.83-.37A19.2,19.2,0,0,1,417.42,320a18.88,18.88,0,0,1-9.41,3.45c-.56.06-1.12.07-1.68.09l-1.6,0a45.25,45.25,0,0,0-12.3,1.69,18.91,18.91,0,0,1-13.2-.5l.49.07c-1.21.13-2.3.14-3.42.19l-3.35.16c-2.23.12-4.47.25-6.7.4l-6.7.51-3.34.28c-1.09.11-2.27.19-3.46.2a19.22,19.22,0,0,1-18.87-17.66,19.82,19.82,0,0,1,0-3.53c.13-1.2.31-2.23.45-3.36q.44-3.31.76-6.65c.44-4.45.75-8.91,1-13.38.43-8.93.48-17.89.12-26.83l.94.77a19.05,19.05,0,0,1-21.55-15.29,27.89,27.89,0,0,1-.36-4.77c-.05-1.54-.13-3.09-.23-4.64-.2-3.09-.5-6.18-.88-9.26-.18-1.54-.39-3.08-.62-4.61s-.53-3-.7-4.66a18.83,18.83,0,0,1,16.34-20.41c1.61-.21,3.14-.17,4.71-.24l4.67-.15c6.23-.18,12.46-.43,18.69-.56s12.45-.29,18.66-.61c3.11-.16,6.21-.36,9.31-.64,1.55-.14,3.09-.29,4.63-.48.76-.11,1.56-.15,2.36-.2a14.56,14.56,0,0,1,2.38,0l-.4.36q0-9.61-.47-19.22c-.33-6.4-.82-12.8-1.73-19.14-.24-1.58-.49-3.16-.82-4.72a20.6,20.6,0,0,1-.57-4.84,18.56,18.56,0,0,1,9.55-16.1,17.7,17.7,0,0,1,4.55-1.8,19.67,19.67,0,0,1,2.41-.45l2.4-.2a59.82,59.82,0,0,0,9.4-1.73,32.58,32.58,0,0,0,4.49-1.54,19.1,19.1,0,0,1,4.75-1.29,18.82,18.82,0,0,1,21.13,16.33,20.84,20.84,0,0,1,0,4.93c-.16,1.6-.29,3.19-.41,4.79-.47,6.38-.73,12.78-.87,19.19l-1.31-.44a39,39,0,0,1,4.56-5.47,35.79,35.79,0,0,1,5.46-4.59,37.7,37.7,0,0,1,13-5.78,44,44,0,0,1,14.2-.83,41.69,41.69,0,0,1,13.74,3.72l-1.21.57,1.37-5.09c.12-.42.22-.84.35-1.27l.44-1.31a23.33,23.33,0,0,1,1.17-2.48,19.31,19.31,0,0,1,7.76-7.6,18.94,18.94,0,0,1,5.17-1.82,21.61,21.61,0,0,1,5.41-.35l10.5.28-.71.34a28.11,28.11,0,0,1,14.33-9.7,29.77,29.77,0,0,1,8.65-1.2,28.69,28.69,0,0,1,8.62,1.44,27.91,27.91,0,0,1,13.87,10.27A29.91,29.91,0,0,1,578.77,149l-.7-.71a43.38,43.38,0,0,1,8.48,1.47l1,.28c.35.1.68.23,1,.35l2,.72,2,.89,1,.44.95.52a40,40,0,0,1,7.1,4.85c1,1,2.15,1.91,3.09,3,.48.53,1,1,1.45,1.59l1.34,1.67a50.66,50.66,0,0,1,7.85,15.14,18.83,18.83,0,0,1-1.79,16.67l0-.43A29.63,29.63,0,0,1,616.47,207a33.59,33.59,0,0,1-.21,5.93,31.92,31.92,0,0,1-1.23,5.79A30.69,30.69,0,0,1,609.42,229a32.93,32.93,0,0,1-4.16,4.19A32.46,32.46,0,0,1,600.48,236.52Z"/><path class="cls-13" d="M405.43,68.53c3.45,22.9-8.94,46.05-27.35,59.48s-43.45,17.67-64.74,9.89v-1.14a140.87,140.87,0,0,0,26.79-3.54C366.46,127,389.3,108.15,399.51,83a76.24,76.24,0,0,0,4.79-14.62l1.13.18Z"/><path class="cls-13" d="M256,249.07c-.2,39.56,7.49,67.29,52.47,68.55l-2,.19a49,49,0,0,1,22.47,2.31c21.2,7.45,31.6,27.44,30.77,49.05l-1.12.23-2.43-8.76c-1.1-2.52-2.22-6-3.54-8.33-7.72-16.7-25.71-26.83-44-23.77-9.67.06-19.53-1.18-28.65-4.83-24.9-9.4-31.9-36.79-28.07-60.89a94.7,94.7,0,0,1,3-14.09l1.09.34Z"/><path class="cls-13" d="M468.26,400.28c2.37-14,16.57-24.35,28-31.31,15.35-8.89,32.27-14.43,49.37-18.77,9.13-2,20.59-4.2,29.56-6.69,46.12-12.39,102.56-42.32,102-96.75,0-12.82-3.86-25.75-9-38.48l1-.59c7.09,11.68,12.54,24.64,14.12,38.39,6.18,59.27-55,96.56-105.66,107.95-13.36,3.23-27,4.56-40.16,7.82-18.08,4.24-36.29,9.79-51.86,20.13-6.67,4.62-13.73,10.55-16.24,18.49l-1.13-.19Z"/><path class="cls-14" d="M505.09,369.34s35.38-20.69,42.57-13.1-28.72,18.23-45.26,20c57.27,3.87,26.12.28,44,3.11s14.85,16.13-14.25,13.86c-25.94-4.47-33.56-5.75-33.56-5.75S527,400.29,541,408.14s11.26,25.1-15.5,13.79c4.29,7.68,4.73,8.43,4.73,8.43s-6.74-11.31,1.46,1.58S524,448,513.86,427.26c-.09,11.41,1-2.56-1.4,11.1s-18.67,17.2-21-5.92-1.94-16.36-1.94-16.36l-.65-15.22L477.47,428c-9,17.37-20.41,17.3-14.51-6.61,5-14.26,9.68-25.91,9.68-25.91s-8.1,8.33-20.71,22.45-23.35,3.08-7.85-11.87c22.28-13.13,61-36.72,61-36.72"/><path class="cls-15" d="M484.71,389.09,466.51,435s13.89-41.1,18.2-45.92"/><path class="cls-15" d="M497.49,398.46l6.64,45.05s-8.44-37.08-6.64-45.05"/><path class="cls-15" d="M530.18,437.26S501.59,397.55,496.35,393c0,3.26,32.06,44.6,33.83,44.23"/><path class="cls-15" d="M499.76,394.34s42.46,23,43.91,24.06-41.23-18-43.91-24.06"/><path class="cls-15" d="M477.38,387.92s-28.93,24.92-32.44,29.77a156.82,156.82,0,0,1,32.44-29.77"/><path class="cls-15" d="M549.07,385.89s-48.44-6.89-53.76-6.6c0,0,50.65,8.57,53.76,6.6"/><path class="cls-15" d="M502.31,373.41s39.26-16.27,40.47-16.16-35.5,15.51-40.47,16.16"/><path class="cls-15" d="M499.63,413l-6.95,11.18s7.42-8,6.95-11.18"/><path class="cls-15" d="M500.69,420.14s8.63,7.19,9.63,7.93-7.72-3.81-9.63-7.93"/><path class="cls-15" d="M500.87,427.86s-6.61,10.38-5.93,11.47,5.21-9.84,5.93-11.47"/><path class="cls-15" d="M502.92,430.76l7.15,5.84s-5.92-2.07-7.15-5.84"/><path class="cls-15" d="M481.32,397.64s2.39,11.31,1.77,13-1.68-10.91-1.77-13"/><path class="cls-15" d="M477.17,405.45l-10.36,10.87s6.74-4.42,10.36-10.87"/><path class="cls-15" d="M472.57,419.71s3.85,6.35,3.39,7.93-4-6.48-3.39-7.93"/><path class="cls-15" d="M469.9,425.22l-6.69,7s1.3-3.43,6.69-7"/><path class="cls-15" d="M461,402.27s-5.14,9.49-7.35,11.46,3.27-6.46,7.35-11.46"/><path class="cls-15" d="M457,404.63s-13.66,7-15.08,8.78,13.34-7.11,15.08-8.78"/><path class="cls-15" d="M466.7,396l-13.8,6.23s9.88-3.11,13.8-6.23"/><path class="cls-15" d="M510.87,414.22c.36.47,0,7.84,0,7.84s2-2,.4-7.37"/><path class="cls-15" d="M516.36,417.85s6.64,3.24,6.66,2.94-3.63.62-6.66-2.94"/><path class="cls-15" d="M519.46,425.23l2.54,8.63s1-4.13-2.54-8.63"/><path class="cls-15" d="M516.79,405.72s7.46,10.3,7.67,10.82a22.54,22.54,0,0,0-7.67-10.82"/><path class="cls-15" d="M531,412.78s5.52,4.74,6.47,7-5.52-5-6.47-7"/><path class="cls-15" d="M525.5,408.31l10.42-.86a18.6,18.6,0,0,1-10.42.86"/><path class="cls-15" d="M510.6,400.21l9.16-2.18s-4.93,2.58-9.16,2.18"/><path class="cls-15" d="M536.79,385.41s8.14,2.91,9.41,4.06-6.06-.62-9.41-4.06"/><path class="cls-15" d="M527.56,382.93l11.58-3.45a29.15,29.15,0,0,1-11.58,3.45"/><path class="cls-15" d="M520.94,383.32s5.63,3,6.72,5.48-4.4-3.92-6.75-5.49"/><path class="cls-15" d="M510.62,381.76s5.56,4.21,6.63,6-6.24-3.44-6.63-6"/><path class="cls-15" d="M529.4,369l-14.39.11s4.65-1.75,14.39-.11"/><path class="cls-15" d="M531.36,362.44s9.37-1.07,11.33-.54-9,1.52-11.33.54"/><path class="cls-15" d="M521.07,365.7s8.36-7.17,10.5-8.34-4.45,5-10.5,8.34"/><path class="cls-14" d="M655.47,212.49s-21.28-26.41-16-33.23,18.45,21.26,22,34.58c-3.87-47.34-3-21.41-2.86-36.38s11.37-14.12,13.09,10c-.46,21.78-.57,28.17-.57,28.17s7-24.87,11.68-37.27S702,166,696,189.31c5.76-4.46,6.32-4.91,6.32-4.91s-8.43,6.91,1.12-1.39,14.1,4.3-1.64,15.19c9.35-1.33-2.23-.55,9.26-.23s16.37,13.17-2.27,17.92-13.14,3.6-13.14,3.6l-12.38,2.41,23.61,6c15.32,5.23,16.66,14.58-3.63,12.69-12.28-2.34-22.39-4.74-22.39-4.74s7.81,5.61,20.91,14.19,5.4,18.73-8.74,7.89c-13.49-16.62-37.55-45.42-37.55-45.42"/><path class="cls-15" d="M674.14,226.74,714,236s-35.34-6.33-39.81-9.26"/><path class="cls-15" d="M680.23,215.13l36-11s-29.3,11.47-36,11"/><path class="cls-15" d="M708,183.61s-29,28.28-32,33.12c2.66-.44,32.56-31.72,32-33.12"/><path class="cls-15" d="M676.58,213.78s13.58-37.57,14.3-38.89-9.71,36-14.3,38.89"/><path class="cls-15" d="M674.08,232.88s23.95,20.61,28.35,22.89a129.64,129.64,0,0,1-28.35-22.89"/><path class="cls-15" d="M663.61,174.46s.31,40.49,1.21,44.81c0,0,.79-42.5-1.21-44.81"/><path class="cls-15" d="M659.14,214.27S641,184.14,641,183.13s17,27.15,18.19,31.14"/><path class="cls-15" d="M691.86,211.59l10,4.32s-7.44-5.1-10-4.32"/><path class="cls-15" d="M697.59,209.85s4.81-7.95,5.3-8.86-2.17,6.79-5.3,8.86"/><path class="cls-15" d="M703.88,208.75s9.31,4.14,10.11,3.45-8.69-3.06-10.11-3.45"/><path class="cls-15" d="M706,206.72l3.9-6.57s-1,5.1-3.9,6.57"/><path class="cls-15" d="M681.55,228.46s9-3.34,10.41-3-8.72,2.71-10.41,3"/><path class="cls-15" d="M688.46,230.9,698.62,238a30.1,30.1,0,0,0-10.16-7.14"/><path class="cls-15" d="M700.68,232.91s4.73-3.92,6.08-3.75-4.81,4-6.08,3.75"/><path class="cls-15" d="M705.52,234.42l6.59,4.61s-3-.64-6.59-4.61"/><path class="cls-15" d="M687.83,244.49s8.4,3,10.28,4.61-5.69-1.89-10.28-4.61"/><path class="cls-15" d="M690.26,247.52s7.43,10.32,9,11.26-7.46-10-9-11.26"/><path class="cls-15" d="M682,240.63l6.79,10.53s-3.76-7.7-6.79-10.53"/><path class="cls-15" d="M691.48,202.25c.35-.35,6.43-.93,6.43-.93s-1.92-1.4-6.08.58"/><path class="cls-15" d="M693.78,197.31s1.84-5.84,1.59-5.82,1,2.9-1.59,5.82"/><path class="cls-15" d="M699.44,193.86l6.75-3.13s-3.5-.34-6.75,3.13"/><path class="cls-15" d="M683.8,198.44s7.51-7.37,7.92-7.6a18.55,18.55,0,0,0-7.92,7.6"/><path class="cls-15" d="M687.84,186s3.19-5.1,4.95-6.16-3.43,5.13-4.95,6.16"/><path class="cls-15" d="M684.86,191l-2-8.42a15.43,15.43,0,0,1,2,8.42"/><path class="cls-15" d="M680.06,204.19,677.15,197s2.71,3.72,2.91,7.23"/><path class="cls-15" d="M664.73,184.58s1.38-7,2.16-8.2.24,5-2.16,8.2"/><path class="cls-15" d="M663.83,192.43l-4.25-9.05a24.19,24.19,0,0,1,4.25,9.05"/><path class="cls-15" d="M665,197.8s1.75-5,3.66-6.17-2.66,4.08-3.66,6.2"/><path class="cls-15" d="M665,206.44s2.76-5.07,4.12-6.17S667,205.8,665,206.44"/><path class="cls-15" d="M652.16,192.65,654,204.41s-2-3.6-1.87-11.76"/><path class="cls-15" d="M646.59,191.84s-2-7.54-1.83-9.2,2.35,7.19,1.83,9.2"/><path class="cls-15" d="M650.53,199.86s-6.89-6-8.12-7.56,4.63,3,8.12,7.56"/><path class="cls-16" d="M695.2,219.58l.44-.09Z"/><path class="cls-16" d="M705.55,197.56c.65-.17-.18-.12,0,0Z"/><path class="cls-16" d="M711.05,198c-4.21-.12-5.32-.3-5.5-.41-.41.11-1.44.31-3.76.64,15.74-10.89,11.18-23.49,1.64-15.19-3.27,2.84-4.4,3.87-4.52,4L696,189.31c6-23.29-8.48-23.39-13.18-11s-11.68,37.27-11.68,37.27.11-6.39.57-28.17c-1.72-24.08-13-24.92-13.09-10s-1-11,2.86,36.38c-3.5-13.32-16.63-41.4-22-34.58s16,33.23,16,33.23,24.06,28.8,37.55,45.42c14.14,10.84,21.85.69,8.74-7.89s-20.91-14.19-20.91-14.19,10.11,2.4,22.39,4.74c20.29,1.89,19-7.46,3.63-12.69l-23.61-6,11.94-2.32c-.8.14-1.24.1,13.58-3.69C727.42,211.14,722.53,198.3,711.05,198Z"/><path class="cls-16" d="M489,415.14c0,.25,0,.53,0,.53Z"/><path class="cls-16" d="M513.4,431.59c.08.81.18-.2,0,0Z"/><path class="cls-16" d="M511.88,438.07c.93-5,1.35-6.29,1.52-6.48-.06-.52-.1-1.79-.07-4.61,10.08,20.81,26,17.71,17.84,4.77-2.79-4.42-3.81-6-4-6.14-.58-1.05-1.28-2.33-2.16-3.91,26.71,11.45,29.51-5.78,15.58-13.7s-42.35-20.87-42.35-20.87,7.61,1.32,33.54,5.92c29.08,2.42,32.17-10.86,14.32-13.78s13.28.83-44-3.34c16.54-1.71,52.51-12.17,45.36-19.8S504.86,369,504.86,369,466,392.4,443.67,405.41c-15.58,14.87-4.89,26,7.79,11.91S472.28,395,472.28,395s-4.74,11.63-9.81,25.86c-6,23.88,5.38,24,14.47,6.69l11.53-27.08.56,14.69c0-1,.11-1.5,1.87,16.9C493.12,455.17,509.36,451.73,511.88,438.07Z"/><path class="cls-14" d="M392.08,88.16s-33.09,24.18-41,17.36S377.77,84.46,394,81c-57.36,2-26,2.39-44.06,1.39s-16.41-14.52,12.76-15.23c26.26,1.79,34,2.29,34,2.29s-29.63-9.83-44.33-16.21-13.77-23.82,14-15.3c-5.05-7.2-5.56-7.9-5.56-7.9s7.85,10.56-1.62-1.43,6-16.78,18.24,2.84c-1.08-11.36-.79,2.66.26-11.19s16.81-19,21.5,3.75,3.6,16.08,3.6,16.08L405,55.14,413.57,27c7.19-18.19,18.54-19.28,15.11,5.1-3.52,14.69-7,26.76-7,26.76s7.2-9.11,18.3-24.44,22.92-5.45,9,11c-20.83,15.33-56.95,42.75-56.95,42.75"/><path class="cls-15" d="M410.34,66.43,423.77,18.9s-9.64,42.29-13.43,47.53"/><path class="cls-15" d="M396.67,58.41l-11.2-44.14s12.18,36,11.2,44.14"/><path class="cls-15" d="M360.2,23.14s32.48,36.59,38.16,40.56c-.39-3.24-36.44-41.11-38.16-40.56"/><path class="cls-15" d="M394.83,62.74s-44.58-18.52-46.14-19.46S391.55,57,394.83,62.74"/><path class="cls-15" d="M417.74,66.84S444,39.1,447,33.92a157.06,157.06,0,0,1-29.25,32.92"/><path class="cls-15" d="M346.64,76.18s48.89,1.91,54.15,1.07c0,0-51.26-3.36-54.15-1.07"/><path class="cls-15" d="M394.43,83.82S357,104,355.82,104s33.73-19,38.61-20.2"/><path class="cls-15" d="M393.06,44.18l5.77-11.83s-6.57,8.69-5.77,11.83"/><path class="cls-15" d="M391.28,37.16S382,30.9,380.89,30.27s8.06,3,10.39,6.89"/><path class="cls-15" d="M390.31,29.51s5.52-11,4.73-12-4.18,10.32-4.73,12"/><path class="cls-15" d="M388,26.83l-7.71-5.08s6.11,1.46,7.71,5.08"/><path class="cls-15" d="M412.84,57.58s-3.53-11-3.09-12.75,2.79,10.69,3.09,12.75"/><path class="cls-15" d="M416.17,49.38l9.2-11.87s-6.26,5.09-9.2,11.87"/><path class="cls-15" d="M419.29,34.73s-4.47-5.92-4.18-7.54,4.61,6,4.18,7.54"/><path class="cls-15" d="M421.39,29l5.94-7.69s-.95,3.54-5.94,7.69"/><path class="cls-15" d="M432.54,50.9s4.14-10,6.15-12.15-2.6,6.77-6.15,12.15"/><path class="cls-15" d="M436.33,48.14s12.88-8.38,14.11-10.27-12.54,8.44-14.11,10.27"/><path class="cls-15" d="M427.55,57.77l13.1-7.61s-9.52,4.1-13.1,7.61"/><path class="cls-15" d="M381.75,44.1c-.4-.43-.76-7.81-.76-7.81s-1.78,2.24.36,7.38"/><path class="cls-15" d="M375.92,41.05S369,38.5,369,38.8s3.55-1,6.93,2.25"/><path class="cls-15" d="M372.08,34l-3.4-8.32s-.6,4.2,3.4,8.32"/><path class="cls-15" d="M376.72,53.15s-8.46-9.48-8.73-10a22.53,22.53,0,0,0,8.73,10"/><path class="cls-15" d="M361.9,47.57s-6-4.14-7.15-6.32,6,4.44,7.15,6.32"/><path class="cls-15" d="M367.8,51.46l-10.28,1.93a18.62,18.62,0,0,1,10.28-1.93"/><path class="cls-15" d="M383.45,58l-8.89,3.1S379.2,58,383.45,58"/><path class="cls-15" d="M358.91,75.39s-8.4-2.06-9.78-3.07,6.09,0,9.78,3.07"/><path class="cls-15" d="M368.34,76.93l-11.17,4.61a29.07,29.07,0,0,1,11.17-4.61"/><path class="cls-15" d="M374.88,75.86s-5.9-2.39-7.24-4.76,4.78,3.44,7.28,4.76"/><path class="cls-15" d="M385.31,76.36s-6-3.62-7.21-5.33,6.56,2.79,7.21,5.33"/><path class="cls-15" d="M367.94,91l14.3-1.58s-4.45,2.21-14.3,1.58"/><path class="cls-15" d="M366.64,97.7s-9.21,2-11.21,1.68,8.82-2.42,11.21-1.68"/><path class="cls-15" d="M376.56,93.4s-7.59,8-9.6,9.37,3.91-5.41,9.6-9.37"/><path class="cls-16" d="M402.89,40.6c0-.25-.08-.53-.08-.53Z"/><path class="cls-16" d="M376.89,26.85c-.17-.79-.15.22,0,0Z"/><path class="cls-16" d="M440,34.4c-11.1,15.33-18.3,24.44-18.3,24.44s3.46-12.07,7-26.76c3.43-24.38-7.92-23.29-15.11-5.1L405,55.14,402.89,40.6c.12,1,0,1.47-3.68-16.61-4.69-22.76-20.46-17.59-21.5-3.75-.39,5.08-.67,6.4-.82,6.61.11.51.29,1.77.56,4.58-12.25-19.62-27.71-14.83-18.24-2.84,3.22,4.07,4.43,5.54,4.64,5.71l2.54,3.62c-27.78-8.52-28.72,8.91-14,15.3s44.33,16.21,44.33,16.21-7.71-.5-34-2.29c-29.17.71-30.83,14.24-12.76,15.23S336.68,83,394,81c-16.27,3.48-50.91,17.73-43,24.54s41-17.36,41-17.36S428.2,60.74,449,45.41C462.92,29,451.1,19.07,440,34.4Z"/><path class="cls-14" d="M250.85,266.45s-10.22,30-18.26,29.21,7.56-25.2,16.31-34.63c-35.43,26.74-15.4,13.06-27.28,20.45s-16.84-1.91,1.32-15.31c17.42-10.53,22.53-13.64,22.53-13.64s-23.13,6.94-35.27,9.42-19.3-9,2.08-15.9c-6.4-2.32-7-2.54-7-2.54s9.67,3.2-1.65-.18S199.93,230,216.39,237c-5.72-6.71.68,2-4.8-7.19s2.2-19.51,15.28-7.18,9.41,8.58,9.41,8.58l8.09,8.57-7.08-21.63c-3.53-14.71,3.17-20.44,11.83-3.48,4.29,10.86,7.46,20.05,7.46,20.05s.52-9,.74-23.61,12.09-13.63,10.6,3c-6.38,19-17.07,52.36-17.07,52.36"/><path class="cls-15" d="M252.76,244.58l-12.61-36.06s12.69,31.06,12.61,36.06"/><path class="cls-15" d="M240.54,245.58l-26.69-23s23.71,17.4,26.69,23"/><path class="cls-15" d="M201.79,239.44s36.82,8.74,42.17,8.73c-1.68-1.88-41.32-9.84-42.17-8.73"/><path class="cls-15" d="M241.31,249.13s-36.45,8.07-37.86,8.17,33.24-10.32,37.86-8.17"/><path class="cls-15" d="M257.63,241.56s4.3-29.22,3.9-33.84a121.25,121.25,0,0,1-3.9,33.84"/><path class="cls-15" d="M216.75,279s31.81-20.5,34.77-23.36c0,0-34,20.63-34.77,23.36"/><path class="cls-15" d="M250.41,262.66s-14.71,29.39-15.48,29.93,12.9-27,15.48-29.93"/><path class="cls-15" d="M231.94,238.17l-1.6-10.06s-.3,8.42,1.6,10.06"/><path class="cls-15" d="M227.7,234.52s-8.69.17-9.64.24,6.43-1.68,9.64-.24"/><path class="cls-15" d="M223.68,230.1s-1.39-9.42-2.34-9.71,1.94,8.39,2.34,9.71"/><path class="cls-15" d="M221,229.44l-7.14.21s4.52-1.79,7.14-.21"/><path class="cls-15" d="M250.41,237.87s-7.12-5.41-7.61-6.7,6.51,5.53,7.61,6.7"/><path class="cls-15" d="M248.88,231.2l.55-11.6a28.07,28.07,0,0,0-.55,11.6"/><path class="cls-15" d="M244.35,220.54s-5.46-1.77-6-2.93,5.59,1.78,6,2.93"/><path class="cls-15" d="M243.13,216l.34-7.5s1,2.66-.34,7.5"/><path class="cls-15" d="M259.92,224.89s-1.8-8.15-1.5-10.42,1.36,5.44,1.5,10.42"/><path class="cls-15" d="M261.1,221.46s4.43-11,4.37-12.77-4.19,10.91-4.37,12.77"/><path class="cls-15" d="M259.81,231.45l4.92-10.63s-4.21,6.82-4.92,10.63"/><path class="cls-15" d="M224.75,243.14c-.45-.1-3.95-4.61-3.95-4.61s-.14,2.21,3.5,4.51"/><path class="cls-15" d="M219.7,243.79s-5.53,1.47-5.39,1.66,1.81-2.2,5.39-1.66"/><path class="cls-15" d="M214.15,241.05l-5.85-3.76a8.23,8.23,0,0,0,5.85,3.76"/><path class="cls-15" d="M225.58,251.1s-9.57-2.24-10-2.44a17.32,17.32,0,0,0,10,2.44"/><path class="cls-15" d="M213.72,254.16s-5.63,0-7.34-.83,5.77.14,7.34.83"/><path class="cls-15" d="M219.18,254l-5.65,5.79a14.41,14.41,0,0,1,5.65-5.79"/><path class="cls-15" d="M232,251.19l-4.25,5.91s1.58-4,4.25-5.91"/><path class="cls-15" d="M224.18,273.1s-6.24,2.42-7.56,2.39,3.86-2.71,7.56-2.39"/><path class="cls-15" d="M230.83,269.88l-5,7.88a22.44,22.44,0,0,1,5-7.88"/><path class="cls-15" d="M234.5,266.3s-4.8,1.11-6.7.2,4.55.06,6.72-.22"/><path class="cls-15" d="M241.32,262s-5.38.36-6.93-.17,5.39-1.15,6.93.17"/><path class="cls-15" d="M236.83,279l8.36-7.35s-1.84,3.38-8.36,7.35"/><path class="cls-15" d="M239,283.78s-4.94,5.37-6.35,6.05,4.5-5.45,6.35-6.05"/><path class="cls-15" d="M243.35,276.66s-1.26,8.42-1.92,10.2.08-5.17,1.92-10.2"/><path class="cls-16" d="M214,234.37c-.46-.42,0,.2,0,0Z"/><path class="cls-16" d="M257.32,211.13c-.22,14.63-.74,23.61-.74,23.61s-3.17-9.19-7.46-20.05c-8.66-17-15.36-11.23-11.83,3.48l7.08,21.63-7.81-8.27c.52.56.76,1-9.69-8.88-13.08-12.33-20.77-2.05-15.28,7.18,2,3.4,2.42,4.35,2.42,4.54.29.28,1,1,2.38,2.65-16.46-7-24.13,2.92-12.8,6.31,3.87,1.16,5.26,1.54,5.44,1.54l3.25,1.18C190.9,253,198.05,264.44,210.2,262s35.27-9.42,35.27-9.42-5.11,3.11-22.53,13.64c-18.16,13.4-13.19,22.71-1.32,15.31s-8.15,6.29,27.28-20.45c-8.75,9.43-24.36,33.83-16.31,34.63s18.26-29.21,18.26-29.21,10.69-33.4,17.07-52.36C269.41,197.5,257.54,196.49,257.32,211.13Z"/><path class="cls-16" d="M236.56,231.53l-.27-.3Z"/><path class="cls-17" d="M380.13,45.38c-16.71,10.43,21.18,39.5,21.18,39.5S396.84,35,380.13,45.38Z"/><path class="cls-18" d="M394.63,41.47c-19.11,4.74,7.95,44.14,7.95,44.14S413.73,36.73,394.63,41.47Z"/><path class="cls-17" d="M430,51.18c-15.78-11.78-29,34.21-29,34.21S445.76,63,430,51.18Z"/><path class="cls-18" d="M415.54,43c-19-5.14-14.43,42.48-14.43,42.48S434.53,48.18,415.54,43Z"/><path class="cls-19" d="M430,51.18A8.07,8.07,0,0,0,421.35,50c-.12-3.34-1.78-5.89-5.81-7-5.2-1.4-8.62,1.15-10.87,5.59-1.43-5.28-4.42-8.55-10-7.15a8.27,8.27,0,0,0-5.69,4.19c-2.47-2-5.38-2.42-8.81-.28-15.9,9.93,17.62,36.71,20.9,39.28,0,.2,0,.36,0,.49l-.07.24.09,0,0,.17.27-.31.68-.36.52.77.25-1.17C411.06,80.05,443.83,61.51,430,51.18Z"/><path class="cls-13" d="M669.27,218.67c13.47,20.38,8,56.84-22.81,53.11-5-.79-9.55-2.87-14-5.09-5.38-5.3-9.21-12.84-6.81-20.72,3.88-10.58,16.26-11.13,24.94-8.5l.18,1.13a54,54,0,0,0-8.11,2.11c-10.1,3.35-11.89,10-4.09,17.36,9.18,3.76,21.18,5,26.33-7.26,4.18-9.91,4.07-21.36,3.26-32l1.13-.16Z"/><path class="cls-13" d="M358.31,375.45c-8.07-7.76-25-32.59-35.19-31.55-2.07.15-6.16,2.87-10,6.89l1.48-2.79c-.09-.06-.46,1.06-.55,1.23a22.25,22.25,0,0,0-1.28,6.23,2.18,2.18,0,0,0,.5,1.6c3.38,3.63,11.22,3.87,16.63,4.7l.31,1.1a54.47,54.47,0,0,1-9.93,2.11c-13.68,1.86-19.32-8.08-15.52-20.4,17.92-24,35.74-8.2,46.58,12.24a121.57,121.57,0,0,1,8,18.27l-1.07.37Z"/><path class="cls-17" d="M395.74,356.27c-2.45-19.36-44.31,2.67-44.31,2.67S398.19,375.62,395.74,356.27Z"/><path class="cls-18" d="M393.25,370.93c3.66-19.15-43-11.16-43-11.16S389.59,390.08,393.25,370.93Z"/><path class="cls-17" d="M369.85,398.71c17.13-9.3-18.75-40.26-18.75-40.26S352.71,408,369.85,398.71Z"/><path class="cls-18" d="M383.17,389.09c12.5-14.95-32.22-30.6-32.22-30.6S370.66,404,383.17,389.09Z"/><path class="cls-19" d="M369.86,399.72a8.29,8.29,0,0,0,4.8-7.55c3.16,1.31,6.25.87,9-2.42,3.54-4.24,2.63-8.53-.54-12.53,5.54.93,9.87-.45,11-6.29a8.42,8.42,0,0,0-1.46-7.1c2.92-1.44,4.57-4,4.05-8.09-2.42-19.08-41.79.64-45.6,2.6l-.47-.17-.19-.17v.1l-.16-.06.17.39c0,.21,0,.45,0,.79l-.93.15,1,.74C351.09,369.66,354.28,408.17,369.86,399.72Z"/><path class="cls-17" d="M659.29,212c-10.39,6.49,13.18,24.58,13.18,24.58S669.69,205.55,659.29,212Z"/><path class="cls-18" d="M668.31,209.61c-11.88,2.95,5,27.46,5,27.46S680.2,206.66,668.31,209.61Z"/><path class="cls-17" d="M690.31,215.65c-9.81-7.33-18,21.28-18,21.28S700.12,223,690.31,215.65Z"/><path class="cls-18" d="M681.32,210.58c-11.81-3.2-9,26.43-9,26.43S693.14,213.78,681.32,210.58Z"/><path class="cls-19" d="M691.73,215.65a5,5,0,0,0-5.37-.72,4.37,4.37,0,0,0-3.62-4.35c-3.23-.87-5.36.72-6.76,3.48-.89-3.29-2.75-5.32-6.25-4.45a5.15,5.15,0,0,0-3.54,2.61,4.33,4.33,0,0,0-5.47-.18c-9.9,6.18,11,22.84,13,24.44,0,.12,0,.23,0,.31l0,.14.06,0v.1l.18-.2.42-.22.32.48s.06-.26.16-.73C680,233.61,700.34,222.08,691.73,215.65Z"/><path class="cls-20" d="M379.91,236.9c0,25.32,1.53,54.39,4.73,73.31-11.83.42-24.76,1.67-24.76,1.67,2.78-18.92,3.75-47.44.55-73.73a149.39,149.39,0,0,0-19.33,3.48,182.71,182.71,0,0,0-2.64-26.16c20-1.11,43.12-.55,61.48-2.92,0,0-.14,12.8.28,24.76A191.24,191.24,0,0,0,379.91,236.9Z"/><path class="cls-20" d="M420.66,278.07c.28-7.79-1.53-12.79-4.17-13.35-2.37-.42-4.87.42-7,4a362.6,362.6,0,0,0,3.62,40.07,65.43,65.43,0,0,0-19.89,2.64c1.39-19.2,2.36-43.82-.42-62.74,0,0,9.88-.28,16.69-2.92-.14,2.23-.27,4.73-.27,7.37,5.28-4.87,12.65-6.81,18.22-5.84,9.18,1.53,13.91,10.57,13.63,26.15C431.79,274.32,420.66,278.07,420.66,278.07Z"/><path class="cls-20" d="M475.33,310.49c.28-1.4.55-2.65.69-4a26.72,26.72,0,0,1-11.26,4c-8.49,1-22.68-5.15-23-17.67-.27-13.91,12.11-20.59,23.1-20.87a23.41,23.41,0,0,1,12.24,3.2c-2.37-21.14-12.24-17.11-11-6.95-9.6-.28-20.17,2.5-20.17,2.5-3.34-16.41,9.46-32.55,30.88-23.79,23.65,9.6,12.8,46.19,15.16,62.88A131,131,0,0,0,475.33,310.49ZM466.84,285c-3.61,1.25-7.23,4.87-5.7,8.62s6.4,4,9.46,2.92c4.31-1.66,7.23-6.26,6-9C475.05,284.33,470.18,283.78,466.84,285Z"/><path class="cls-20" d="M522.2,309.65c-9.46.84-22.25-2.92-25.59-19.75-3.9-19.89,5.7-40.2,20.17-42.43,14.05-2.23,22.81,8.21,25.32,18.92,0,0-10.58,1.95-18.37,5.42-.27-3.75-1.81-7.65-5.42-7.09s-7.1,7.23-6.82,15.16c.28,8.77,3.76,13.91,8.07,13.63,3.62-.27,6.12-3.47,6.26-8.48,0,0,9.88-1.25,20.31-1.53C545.57,301.17,534.58,308.68,522.2,309.65Z"/><path class="cls-20" d="M580.48,309.51c-11.54.84-24.76-5.7-29.21-23.37-4.87-19.33,3.62-40.76,23-41,18.51-.28,26.16,13.91,27,31.85,0,0-18.36.28-34.08,3.2.69,8.76,3.89,15.72,8.49,15.3,4.31-.41,5.14-6.26,4.17-11.54,0,0,12.66-1.67,24.62-2.51C604.27,301.58,591.61,308.82,580.48,309.51ZM574,259.29c-3.34.56-5.71,5-6.68,11.27a114,114,0,0,0,14.61-1.39C581,263.19,578.26,258.74,574,259.29Z"/><path class="cls-20" d="M416.89,230.56c4.35-18.63,3.23-65.32-.87-83.95,0,0,11.67-.62,21.36-4.71-1.86,17.75-2.48,48-.25,65.56,6.83-2.73,15.4-5.34,23.84-5.71a154.1,154.1,0,0,0,.13,20.86A211,211,0,0,0,416.89,230.56Z"/><path class="cls-20" d="M491,227.83c-10.31.74-22.1-5.1-26.08-20.86-4.34-17.27,3.23-36.39,20.49-36.64,16.52-.25,23.35,12.42,24.09,28.44a213.83,213.83,0,0,0-30.42,2.85c.62,7.83,3.48,14,7.57,13.67,3.85-.38,4.6-5.59,3.73-10.31,0,0,11.3-1.49,22-2.24C512.25,220.75,501,227.21,491,227.83ZM485.18,183c-3,.5-5.09,4.47-6,10.06a104.21,104.21,0,0,0,13-1.24C491.52,186.48,489,182.5,485.18,183Z"/><path class="cls-20" d="M532.12,228.32c-14.41-2.6-17-23.09-14.65-44.7-2.86.12-4.6.25-4.6.25.25-5.59,1-10.8,1-10.8l5.22-.25a166.42,166.42,0,0,1,4.22-17.89c8.45.13,17,.5,17,.5A106.09,106.09,0,0,0,535.1,172l12.29-.62A88.27,88.27,0,0,0,546,185a125.17,125.17,0,0,0-13.41-1.37c-2.61,15.52-1.87,27.69.86,28.68s4.23-5,4.1-12.16c8.32,2.85,15.9,6.33,15.9,6.33C551.61,223.48,542.3,230.19,532.12,228.32Z"/><path class="cls-20" d="M551.36,168.22a10,10,0,0,0,6.09-6.33c-6.83,1-9.69-4.1-9.44-8.69a9,9,0,0,1,9.07-8.57c5.09-.25,9.18,3.72,9.56,9.31C567.13,162.14,560.92,170,551.36,168.22Z"/><path class="cls-20" d="M584.14,228.57c-8.81-.12-16.64-3.1-23.22-11.92a86,86,0,0,1,11.18-12.91c4.22,8.56,11.8,10.68,13.66,8.44,1.49-1.86.5-5.09-7.58-8.57-7.32-3.1-13.78-7.7-14.15-15.89-.38-6.58,3.72-15.28,16.76-15.9,14-.62,20.86,9.07,23.84,18.63a49.23,49.23,0,0,0-16,4.72c-3.72-9.69-9.81-9.31-9.31-5.47,1.49,10.44,25.83,8.32,25.46,24.34C604.51,223.61,595.32,228.7,584.14,228.57Z"/><path class="cls-21" d="M373.06,232.33c0,25.32,1.53,54.39,4.73,73.31-11.83.42-24.76,1.67-24.76,1.67,2.78-18.92,3.75-47.44.55-73.73a151.12,151.12,0,0,0-19.33,3.48,181.84,181.84,0,0,0-2.65-26.15c20-1.11,43.13-.56,61.49-2.92,0,0-.14,12.79.28,24.76A188.45,188.45,0,0,0,373.06,232.33Z"/><path class="cls-21" d="M413.81,273.51c.28-7.79-1.53-12.8-4.17-13.36-2.37-.42-4.87.42-7,4a362.63,362.63,0,0,0,3.62,40.06,65.43,65.43,0,0,0-19.89,2.64c1.39-19.19,2.36-43.82-.42-62.74,0,0,9.88-.27,16.69-2.92-.14,2.23-.28,4.73-.28,7.38,5.29-4.87,12.66-6.82,18.23-5.85,9.18,1.53,13.91,10.57,13.63,26.16C424.94,269.75,413.81,273.51,413.81,273.51Z"/><path class="cls-21" d="M468.48,305.92a40.11,40.11,0,0,0,.69-4,26.76,26.76,0,0,1-11.27,4c-8.48,1-22.67-5.15-22.95-17.67-.28-13.91,12.1-20.59,23.1-20.86a23.4,23.4,0,0,1,12.24,3.19c-2.37-21.14-12.24-17.1-11-6.95-9.6-.28-20.17,2.5-20.17,2.5-3.34-16.41,9.45-32.55,30.88-23.78,23.65,9.59,12.8,46.18,15.16,62.87A131,131,0,0,0,468.48,305.92ZM460,280.46c-3.61,1.25-7.23,4.87-5.7,8.63s6.4,4,9.46,2.92c4.31-1.67,7.23-6.26,6-9C468.2,279.77,463.33,279.21,460,280.46Z"/><path class="cls-21" d="M515.35,305.08c-9.46.84-22.25-2.92-25.59-19.75-3.9-19.89,5.7-40.2,20.17-42.43,14.05-2.22,22.81,8.21,25.32,18.92,0,0-10.58,1.95-18.37,5.43-.28-3.76-1.81-7.66-5.42-7.1s-7.1,7.24-6.82,15.16c.28,8.77,3.76,13.92,8.07,13.64,3.62-.28,6.12-3.48,6.26-8.49,0,0,9.88-1.25,20.31-1.53C538.72,296.6,527.73,304.11,515.35,305.08Z"/><path class="cls-21" d="M573.63,304.94c-11.54.84-24.76-5.7-29.21-23.37-4.87-19.33,3.62-40.75,23-41,18.5-.28,26.15,13.91,27,31.85,0,0-18.36.28-34.08,3.2.69,8.77,3.89,15.72,8.48,15.31,4.32-.42,5.15-6.26,4.18-11.55,0,0,12.66-1.67,24.62-2.51C597.42,297,584.76,304.25,573.63,304.94Zm-6.54-50.21c-3.33.55-5.7,5-6.67,11.26A111.9,111.9,0,0,0,575,264.6C574.19,258.62,571.41,254.17,567.09,254.73Z"/><path class="cls-21" d="M410,226c4.34-18.63,3.23-65.32-.87-83.94,0,0,11.67-.62,21.36-4.72-1.87,17.76-2.49,48.06-.25,65.56,6.83-2.73,15.4-5.33,23.84-5.71a154.1,154.1,0,0,0,.13,20.86A211,211,0,0,0,410,226Z"/><path class="cls-21" d="M484.17,223.26c-10.31.74-22.1-5.09-26.08-20.86-4.34-17.26,3.23-36.39,20.49-36.63,16.52-.25,23.35,12.41,24.09,28.43a213,213,0,0,0-30.42,2.86c.62,7.82,3.47,14,7.57,13.66,3.85-.37,4.6-5.59,3.73-10.31,0,0,11.3-1.49,22-2.23C505.4,216.18,494.1,222.64,484.17,223.26Zm-5.84-44.83c-3,.5-5.09,4.47-6,10.06a102.35,102.35,0,0,0,13-1.24C484.67,181.91,482.18,177.93,478.33,178.43Z"/><path class="cls-21" d="M525.27,223.76c-14.41-2.61-17-23.1-14.66-44.71-2.85.13-4.59.25-4.59.25.25-5.59,1-10.8,1-10.8l5.22-.25a166.22,166.22,0,0,1,4.22-17.88c8.44.12,17,.49,17,.49a106.43,106.43,0,0,0-5.21,16.52l12.29-.62a87.83,87.83,0,0,0-1.37,13.66,124.91,124.91,0,0,0-13.41-1.37c-2.6,15.52-1.86,27.69.87,28.69s4.22-5,4.1-12.17c8.32,2.85,15.9,6.33,15.9,6.33C544.76,218.91,535.45,225.62,525.27,223.76Z"/><path class="cls-21" d="M544.51,163.65a10,10,0,0,0,6.09-6.33c-6.83,1-9.69-4.1-9.44-8.69a9,9,0,0,1,9.06-8.57c5.09-.25,9.19,3.73,9.57,9.31C560.28,157.57,554.07,165.39,544.51,163.65Z"/><path class="cls-21" d="M577.29,224c-8.81-.12-16.64-3.1-23.22-11.92a86,86,0,0,1,11.18-12.91c4.22,8.57,11.79,10.68,13.66,8.44,1.49-1.86.49-5.09-7.58-8.57-7.32-3.1-13.78-7.69-14.15-15.89-.38-6.58,3.72-15.27,16.76-15.9,14-.62,20.86,9.07,23.84,18.63a49.23,49.23,0,0,0-16,4.72c-3.72-9.68-9.81-9.31-9.31-5.46,1.49,10.43,25.83,8.32,25.46,24.34C597.66,219,588.47,224.13,577.29,224Z"/><path class="cls-22" d="M373.55,231.9l.08.69a33.32,33.32,0,0,1,.28,3.92l0,4.56q.06,4.59.16,9.18.24,9.18.72,18.34c.33,6.11.75,12.22,1.32,18.31s1.27,12.16,2.25,18.18l.14.87-.87,0c-8.25.28-16.5.86-24.73,1.59l-.88.08.13-.87A276.94,276.94,0,0,0,354.84,270,295.91,295.91,0,0,0,353,233.21l.52.41A149.43,149.43,0,0,0,334.2,237l-.5.13v-.51q-.13-6.55-.81-13.1c-.43-4.35-1-8.7-1.75-13l-.06-.37.37,0c10.26-.53,20.52-.63,30.78-.88s20.52-.61,30.7-1.85l.16,0v.16c-.09,8.25-.05,16.5.2,24.75v.07h-.07A189.63,189.63,0,0,0,373.55,231.9Zm-1.4,0,.76,0a188.53,188.53,0,0,1,20.31.35l-.06.07c-.3-8.25-.39-16.51-.36-24.77l.16.14c-10.19,1.31-20.47,1.72-30.73,2s-20.52.48-30.76,1.07l.31-.39c.78,4.34,1.37,8.69,1.84,13.06s.77,8.75.89,13.15l-.52-.39a152.28,152.28,0,0,1,19.39-3.55l.46-.06.06.47a296.37,296.37,0,0,1,2.1,37A278.46,278.46,0,0,1,353.57,307l-.76-.8c8.25-.78,16.51-1.41,24.8-1.75l-.73.91c-1-6.07-1.77-12.18-2.38-18.29s-1.07-12.23-1.44-18.35-.64-12.26-.83-18.4c-.1-3.06-.17-6.13-.23-9.2l-.06-4.63C371.93,235,372,233.41,372.15,231.93Z"/><path class="cls-22" d="M412.92,273.31a6,6,0,0,1-.22-1.7l0-1.43c0-.95-.1-1.89-.22-2.82a14.46,14.46,0,0,0-1.5-5.22,2.94,2.94,0,0,0-1.57-1.46,4.3,4.3,0,0,0-1.17-.12,5.2,5.2,0,0,0-1.19.2,7.11,7.11,0,0,0-3.71,3.45l.12-.49q.35,10,1.17,20c.56,6.67,1.24,13.33,2.27,19.93l.14.88-.9,0c-1.63-.05-3.31,0-5,.06s-3.32.23-5,.43-3.3.47-4.92.8-3.23.76-4.81,1.23l-.93.29.07-1c.8-10.43,1.37-20.88,1.49-31.34a215.06,215.06,0,0,0-1.64-31.29l-.07-.44.45,0a74.08,74.08,0,0,0,8.41-.8,42.09,42.09,0,0,0,8.17-2l.47-.17,0,.5-.31,7.35-.5-.22a24,24,0,0,1,11.67-5.74,19.73,19.73,0,0,1,6.55-.13,14.08,14.08,0,0,1,6.07,2.44,15.13,15.13,0,0,1,4.29,4.92,24.78,24.78,0,0,1,2.35,6.09,51.31,51.31,0,0,1,1.22,13v.08h-.08a77.17,77.17,0,0,0-10.34,1.72q-5.11,1.18-10.12,2.78Zm.79-.25c3.3-1.09,6.66-2,10.05-2.85a77.13,77.13,0,0,1,10.34-1.81l-.08.08a50.61,50.61,0,0,0-1.31-12.88,24.22,24.22,0,0,0-2.37-6,14.78,14.78,0,0,0-4.22-4.78,13.9,13.9,0,0,0-5.92-2.32,19.31,19.31,0,0,0-6.39.18,23.43,23.43,0,0,0-11.35,5.7l-.53.49,0-.71.24-7.39.45.33a42.6,42.6,0,0,1-8.29,2.13,75.73,75.73,0,0,1-8.51.88l.39-.46a214.42,214.42,0,0,1,1.9,31.41c0,10.49-.52,21-1.23,31.44l-.85-.67a49,49,0,0,1,4.93-1.32c1.66-.35,3.34-.64,5-.85s3.37-.38,5.07-.48,3.37-.15,5.1-.11l-.76.86c-1.1-6.66-1.83-13.34-2.44-20s-1.06-13.4-1.35-20.12v-.26l.13-.23a11.72,11.72,0,0,1,1.9-2.53,7.15,7.15,0,0,1,2.81-1.78,6.36,6.36,0,0,1,3.41-.13,4.69,4.69,0,0,1,2.72,2.31,16,16,0,0,1,1.81,5.93c.14,1,.2,2,.25,3l0,1.5c0,.26-.18.31-.42.66Z"/><path class="cls-22" d="M467.39,305.58a1.29,1.29,0,0,1,0-.52l.05-.27.1-.5.2-1c.12-.66.23-1.3.29-1.95l1.53.92a27.46,27.46,0,0,1-11.09,4.06,22.9,22.9,0,0,1-11.71-1.77,24.23,24.23,0,0,1-5.18-2.91l-.61-.43-.56-.49c-.38-.33-.76-.65-1.13-1a20.06,20.06,0,0,1-2-2.27,16.36,16.36,0,0,1-2.7-5.37,15.2,15.2,0,0,1-.54-3c0-.5-.11-1-.1-1.51l.05-1.48a19.63,19.63,0,0,1,.37-3,10.24,10.24,0,0,1,.36-1.45c.15-.48.26-1,.45-1.43a18.12,18.12,0,0,1,1.28-2.71c.25-.43.48-.88.77-1.28l.9-1.2a10.44,10.44,0,0,1,1-1.13c.35-.35.67-.74,1-1.06a21.74,21.74,0,0,1,2.33-1.85,24.32,24.32,0,0,1,5.2-2.78,28.94,28.94,0,0,1,11.54-2,23.6,23.6,0,0,1,11.22,3.3l-1,.64a48.33,48.33,0,0,0-1.18-6.8,18.33,18.33,0,0,0-2.67-6.16,4.19,4.19,0,0,0-2.41-1.74,2.53,2.53,0,0,0-2.38,1.25,9.56,9.56,0,0,0-1.14,6.35l.07.64-.64,0a64.32,64.32,0,0,0-10.08.58,90.71,90.71,0,0,0-9.95,1.84l-.5.12-.1-.49A25.19,25.19,0,0,1,439.93,251a19.47,19.47,0,0,1,10.43-10.41c4.68-2,10-1.83,14.75-.6a35.65,35.65,0,0,1,7,2.61,22.39,22.39,0,0,1,5.91,4.55,23.92,23.92,0,0,1,4.11,6.22,35.14,35.14,0,0,1,2.28,7.07,69.74,69.74,0,0,1,1.28,14.76c0,4.94-.35,9.87-.62,14.8a85.59,85.59,0,0,0,0,14.76v.07H485a127.41,127.41,0,0,0-16.69.64Zm2-.17a124.17,124.17,0,0,1,15.66-.68l-.06.07a86,86,0,0,1-.13-14.8c.24-4.92.52-9.85.51-14.78A68.53,68.53,0,0,0,484,260.56a34.72,34.72,0,0,0-2.3-7,23.39,23.39,0,0,0-4.05-6.05,22.15,22.15,0,0,0-5.79-4.39,35.77,35.77,0,0,0-6.87-2.51c-4.71-1.17-9.83-1.25-14.31.67a18.72,18.72,0,0,0-9.93,10.05,24.25,24.25,0,0,0-1.27,14.24l-.6-.37a91.21,91.21,0,0,1,10.07-1.93,64.77,64.77,0,0,1,10.24-.66l-.57.62a10.66,10.66,0,0,1,1.29-7.14,4.57,4.57,0,0,1,1.46-1.37,3.25,3.25,0,0,1,2.06-.39,5.28,5.28,0,0,1,3.19,2.17,19.31,19.31,0,0,1,2.93,6.58,50.21,50.21,0,0,1,1.27,7l.16,1.33-1.16-.7a22.29,22.29,0,0,0-10.6-3,27.64,27.64,0,0,0-10.92,2,23.5,23.5,0,0,0-4.88,2.65,19.94,19.94,0,0,0-2.15,1.74c-.35.3-.63.66-.95,1a7.38,7.38,0,0,0-.9,1l-.82,1.1c-.26.38-.46.79-.7,1.18a17,17,0,0,0-1.15,2.49c-.17.42-.26.87-.39,1.31a8.62,8.62,0,0,0-.33,1.33,18,18,0,0,0-.32,2.74l0,1.38c0,.45.07.9.1,1.35a13.4,13.4,0,0,0,.51,2.67,14.68,14.68,0,0,0,2.46,4.8,18.44,18.44,0,0,0,1.8,2.06c.33.3.69.59,1,.89l.52.45.57.4a23.1,23.1,0,0,0,4.82,2.66,26,26,0,0,0,5.32,1.5,18.6,18.6,0,0,0,5.42.08,25.76,25.76,0,0,0,10.29-3.84l1.73-1.16-.2,2.08c-.07.71-.18,1.42-.31,2.11l-.19,1-.1.5-.05.23Z"/><path class="cls-22" d="M464.42,279.59,460.18,281a9.61,9.61,0,0,0-4.26,2.77,4.53,4.53,0,0,0-1.14,4.45,4.82,4.82,0,0,0,3.57,3.12,9.07,9.07,0,0,0,5.23-.27,10.62,10.62,0,0,0,4.33-3.15,8.28,8.28,0,0,0,1.36-2.33,4.16,4.16,0,0,0,.2-2.6,4.42,4.42,0,0,0-1.58-2.11,6.84,6.84,0,0,0-2.51-1.11C465.07,279.67,464.74,279.63,464.42,279.59Zm-9.07,2.19,4.49-1.75a10.44,10.44,0,0,1,5.59-.54,5.74,5.74,0,0,1,4.51,3.32,4.65,4.65,0,0,1-.08,2.95,9.13,9.13,0,0,1-1.35,2.59A11.48,11.48,0,0,1,464,292a10.29,10.29,0,0,1-5.89.56,7,7,0,0,1-2.81-1.28,5.81,5.81,0,0,1-1.89-2.56,5.52,5.52,0,0,1-.21-3.22,7.36,7.36,0,0,1,1.41-2.84C454.81,282.33,455.08,282.05,455.35,281.78Z"/><path class="cls-22" d="M507.55,305.24a23.43,23.43,0,0,1-7.59-2.85,23,23,0,0,1-9.76-12.2,42.85,42.85,0,0,1-2.26-15.4,45.37,45.37,0,0,1,3-15.23,32.72,32.72,0,0,1,8.65-12.9,21,21,0,0,1,6.78-4,16.77,16.77,0,0,1,3.86-.9l2-.2c.65,0,1.31,0,2,0a21.14,21.14,0,0,1,7.67,1.68,20.91,20.91,0,0,1,6.45,4.45,28.3,28.3,0,0,1,7.35,13.58l.12.53-.54.1c-3.11.6-6.22,1.34-9.28,2.2a68.76,68.76,0,0,0-9,3.13l-.59.25-.05-.63a13.29,13.29,0,0,0-.64-3.38,5.7,5.7,0,0,0-1.75-2.74,3.26,3.26,0,0,0-1.43-.61,3.79,3.79,0,0,0-1.57.13,5.73,5.73,0,0,0-2.59,2,12.85,12.85,0,0,0-1.74,3,19.15,19.15,0,0,0-1.09,3.31,24.38,24.38,0,0,0-.6,7,24,24,0,0,0,1.23,6.89,11.94,11.94,0,0,0,1.55,3.09,6.85,6.85,0,0,0,2.5,2.26,4.71,4.71,0,0,0,3.28.36,5.72,5.72,0,0,0,2.9-1.67,9.8,9.8,0,0,0,2.26-6.41v-.2l.2,0c6.76-.77,13.54-1.28,20.34-1.45h.16v.16a36.35,36.35,0,0,1-1.67,9.71,23.6,23.6,0,0,1-4.87,8.52,23.18,23.18,0,0,1-8,5.65,29.7,29.7,0,0,1-9.55,2.27Zm15.5-2.28c.56-.21,1.12-.41,1.67-.65a23,23,0,0,0,7.91-5.68,23.38,23.38,0,0,0,4.76-8.49,35.82,35.82,0,0,0,1.59-9.65l.15.16c-6.78.23-13.55.79-20.28,1.61l.2-.22a10.22,10.22,0,0,1-2.34,6.74,6.21,6.21,0,0,1-3.16,1.85,5.25,5.25,0,0,1-3.65-.37,7.47,7.47,0,0,1-2.74-2.43,12.48,12.48,0,0,1-1.65-3.23,24.41,24.41,0,0,1-1.32-7.06,24.67,24.67,0,0,1,.56-7.17,19.82,19.82,0,0,1,1.11-3.45,13.89,13.89,0,0,1,1.81-3.17,6.51,6.51,0,0,1,3-2.28,4.73,4.73,0,0,1,1.94-.18,4.26,4.26,0,0,1,1.82.76,6.67,6.67,0,0,1,2.07,3.14,14.84,14.84,0,0,1,.71,3.59l-.63-.38a70.21,70.21,0,0,1,9.09-3.24c3.09-.89,6.2-1.66,9.36-2.29l-.42.64a27.19,27.19,0,0,0-7.14-13,19.73,19.73,0,0,0-6.12-4.15,20.07,20.07,0,0,0-7.22-1.52c-.62,0-1.24,0-1.86,0l-1.85.21a15.09,15.09,0,0,0-3.58.86,19.57,19.57,0,0,0-6.31,3.79,31.28,31.28,0,0,0-8.16,12.38,44,44,0,0,0-2.76,14.73,41.24,41.24,0,0,0,2.27,14.74,21.17,21.17,0,0,0,9.06,11.2,24,24,0,0,0,14.21,2.89Z"/><path class="cls-22" d="M566.08,305a26.94,26.94,0,0,1-10-4.2,30.48,30.48,0,0,1-11-14.29,44.24,44.24,0,0,1-3-17.74,37.19,37.19,0,0,1,4.78-17.32,29.36,29.36,0,0,1,2.63-3.72,24.72,24.72,0,0,1,3.26-3.21,22.11,22.11,0,0,1,8.08-4.18,25.49,25.49,0,0,1,4.49-.81c.76,0,1.52-.1,2.28-.06l2.26.08a26.08,26.08,0,0,1,8.81,2.08,22.79,22.79,0,0,1,7.39,5.24,28,28,0,0,1,4.88,7.59,49.23,49.23,0,0,1,3.68,17.48l0,.49h-.5c-5.69.11-11.4.43-17.07.91s-11.35,1.16-17,2.16l.3-.38a35.06,35.06,0,0,0,1.47,7.95,17,17,0,0,0,1.61,3.68,7.9,7.9,0,0,0,2.64,2.86,4,4,0,0,0,3.67.21,4.8,4.8,0,0,0,2.38-2.91,16.23,16.23,0,0,0,.29-8l0-.25.25,0c8.19-1,16.4-1.86,24.64-2.42h.16v.16a42.44,42.44,0,0,1-1.4,10.21,25.87,25.87,0,0,1-4.67,9.13,22.23,22.23,0,0,1-8.08,6.27,27.57,27.57,0,0,1-9.93,2.49Zm15-2.08a23.57,23.57,0,0,0,2.32-1,22.35,22.35,0,0,0,8-6.3,25.58,25.58,0,0,0,4.58-9.11,41.71,41.71,0,0,0,1.31-10.14l.16.15c-8.22.62-16.43,1.52-24.6,2.59l.2-.28a16.87,16.87,0,0,1-.25,8.23,5.33,5.33,0,0,1-2.66,3.25,4.59,4.59,0,0,1-4.19-.21,8.47,8.47,0,0,1-2.89-3.06,17.35,17.35,0,0,1-1.69-3.79,35.61,35.61,0,0,1-1.57-8.1l0-.32.32-.06c5.63-1.05,11.32-1.77,17-2.3s11.4-.88,17.13-1l-.47.5A48.26,48.26,0,0,0,590,254.91a27.14,27.14,0,0,0-4.73-7.25,21.66,21.66,0,0,0-7-4.91,24.89,24.89,0,0,0-8.41-1.91l-2.17-.07c-.73,0-1.44.06-2.17.08a24.26,24.26,0,0,0-4.23.79c-.7.17-1.36.46-2,.69s-1.32.55-1.94.91a20.36,20.36,0,0,0-3.57,2.38,23.67,23.67,0,0,0-3.05,3,29.81,29.81,0,0,0-2.46,3.54,35.65,35.65,0,0,0-4.45,16.63,42.71,42.71,0,0,0,3,17,28.6,28.6,0,0,0,10.42,13.38,25.49,25.49,0,0,0,16.27,4.26Z"/><path class="cls-22" d="M569.81,254.83l-2.72.45a4.39,4.39,0,0,0-2.41,1.36,10.2,10.2,0,0,0-1.77,2.63,24.55,24.55,0,0,0-2,6.4l-.7-.78q3.66,0,7.31-.29c2.43-.16,4.86-.38,7.27-.75l-.27.37a17.66,17.66,0,0,0-2-6.6,7.23,7.23,0,0,0-2.31-2.54A5,5,0,0,0,569.81,254.83Zm-5.85-.07,3-.47a5.23,5.23,0,0,1,3.41.65,7.47,7.47,0,0,1,2.5,2.5,18.12,18.12,0,0,1,2.34,6.69l.06.3-.33.07c-2.41.49-4.85.82-7.29,1.1s-4.89.49-7.35.64l-.8,0,.11-.82a26.5,26.5,0,0,1,1.79-6.9,12,12,0,0,1,2-3.17A6.13,6.13,0,0,1,564,254.76Z"/><path class="cls-22" d="M409.24,225.74c0-.84.06-1.74.18-2.63.07-.54.17-1.1.26-1.59l.19-1.29c.26-1.72.51-3.44.67-5.18l.28-2.61.21-2.61c.15-1.74.26-3.49.34-5.24.37-7,.48-14,.41-21s-.36-14-.85-21a168.25,168.25,0,0,0-2.57-20.81l-.16-.77.78-.05a78.57,78.57,0,0,0,10.77-1.49c1.78-.36,3.54-.81,5.28-1.31s3.44-1.12,5.12-1.79l.92-.37-.1,1c-1.13,10.86-1.61,21.79-1.78,32.72-.07,5.47,0,10.94.14,16.4s.5,10.92,1.14,16.34l-.47-.28a93,93,0,0,1,11.75-3.8A61.48,61.48,0,0,1,454,196.5h.28l0,.28c-.23,3.46-.33,6.94-.33,10.41s.12,6.95.38,10.42v.17h-.17a206.44,206.44,0,0,0-22.31,2.71c-7.39,1.31-14.69,3-21.91,5.07Zm1.09-.3c7.06-2,14.21-3.78,21.44-5.12a206.51,206.51,0,0,1,22.31-2.88l-.15.18q-.44-5.2-.46-10.44c0-3.48,0-7,.25-10.45l.26.27a61.06,61.06,0,0,0-12.08,1.92,91.21,91.21,0,0,0-11.64,3.86l-.42.17,0-.44c-.69-5.45-1.05-10.93-1.27-16.4s-.3-11-.27-16.44c.08-10.95.48-21.91,1.54-32.84l.82.61a50.89,50.89,0,0,1-5.23,1.88c-1.77.53-3.56,1-5.36,1.38a80.61,80.61,0,0,1-11,1.59l.62-.82a167.34,167.34,0,0,1,2.76,21c.55,7,.87,14.06,1,21.1s.07,14.09-.25,21.14c-.07,1.76-.17,3.52-.31,5.28l-.18,2.64-.27,2.64c-.15,1.76-.39,3.52-.64,5.27l-.19,1.32a6.67,6.67,0,0,1-.24,1c-.19.63-.5,1.26-.8,2Z"/><path class="cls-22" d="M477,223.28a24.07,24.07,0,0,1-8.58-3.68,27.27,27.27,0,0,1-9.84-12.8A39.57,39.57,0,0,1,456,190.92a33.32,33.32,0,0,1,4.29-15.5,22.9,22.9,0,0,1,5.28-6.2,19.72,19.72,0,0,1,7.24-3.75,22.9,22.9,0,0,1,4-.72c.68,0,1.36-.09,2-.06l2,.08a23.45,23.45,0,0,1,7.89,1.86,20.85,20.85,0,0,1,6.62,4.69,25.49,25.49,0,0,1,4.36,6.81A44,44,0,0,1,503,193.75l0,.49h-.5c-5.08.1-10.17.38-15.24.8s-10.12,1-15.13,1.93l.3-.38a31.55,31.55,0,0,0,1.31,7.09A15.37,15.37,0,0,0,475.2,207a7,7,0,0,0,2.34,2.54,3.59,3.59,0,0,0,3.25.2,4.3,4.3,0,0,0,2.11-2.58,14.56,14.56,0,0,0,.26-7.1l0-.25.25,0c7.31-.9,14.64-1.65,22-2.15h.16v.16a37.9,37.9,0,0,1-1.25,9.12A23.05,23.05,0,0,1,500.1,215a20,20,0,0,1-7.21,5.6,24.82,24.82,0,0,1-8.87,2.22Zm14.07-2c.59-.22,1.18-.46,1.75-.73a19.88,19.88,0,0,0,7.13-5.62,22.82,22.82,0,0,0,4.08-8.13,37.81,37.81,0,0,0,1.17-9l.16.15c-7.34.56-14.66,1.37-22,2.33l.21-.28a15.17,15.17,0,0,1-.23,7.36,4.84,4.84,0,0,1-2.38,2.91,4.14,4.14,0,0,1-3.78-.19,7.52,7.52,0,0,1-2.59-2.73,16.43,16.43,0,0,1-1.52-3.4,32.53,32.53,0,0,1-1.4-7.24l0-.32.32-.06c5-.93,10.1-1.58,15.19-2.06s10.18-.79,15.3-.92l-.48.5a42.93,42.93,0,0,0-3.32-15.22,24.17,24.17,0,0,0-4.21-6.45,19.41,19.41,0,0,0-6.26-4.36,22,22,0,0,0-7.48-1.7l-1.94-.06c-.65,0-1.28.05-1.93.07a20,20,0,0,0-3.76.71,19.67,19.67,0,0,0-11.61,9.39A31.68,31.68,0,0,0,457.58,191a37.75,37.75,0,0,0,2.65,15.17,25.47,25.47,0,0,0,9.27,11.9A22.75,22.75,0,0,0,484,221.83Z"/><path class="cls-22" d="M480.9,178.57l-2.57.42a3.7,3.7,0,0,0-2.09,1.17,9,9,0,0,0-1.58,2.32,22,22,0,0,0-1.77,5.68l-.69-.78a99,99,0,0,0,13-.89l-.26.37A15.93,15.93,0,0,0,483.2,181a6.45,6.45,0,0,0-2.05-2.26Zm-5.56-.12,2.84-.45a4.62,4.62,0,0,1,3.06.57,6.82,6.82,0,0,1,2.24,2.23,16.28,16.28,0,0,1,2.11,6l.05.31-.32.06a100.94,100.94,0,0,1-13.07,1.59l-.81.06.12-.84a23.52,23.52,0,0,1,1.58-6.18,11,11,0,0,1,1.75-2.86C475,178.75,475.18,178.6,475.34,178.45Z"/><path class="cls-22" d="M524.94,224.31a16,16,0,0,1-6.26-2.63,18.32,18.32,0,0,1-4.58-5,34.1,34.1,0,0,1-4.32-12.37,73.9,73.9,0,0,1-.93-12.93,123.21,123.21,0,0,1,.82-12.89l.83.89-4.57.23-.89,0,0-.87c.18-3.64.54-7.25,1-10.87l.08-.61.62,0,5.22-.23-.68.6a162,162,0,0,1,4.31-17.94l.14-.48h.49l17,.57.84,0-.32.78a103.78,103.78,0,0,0-5.25,16.41l-.54-.63,12.3-.58.59,0-.1.58A83.85,83.85,0,0,0,539.45,180v.49l-.48-.08A124.39,124.39,0,0,0,525.59,179l.39-.31c-.61,3.57-1.09,7.16-1.38,10.77a72.53,72.53,0,0,0-.16,10.83,20.13,20.13,0,0,0,1,5.26c.32.8.79,1.6,1.61,1.64s1.4-.69,1.78-1.46a17.1,17.1,0,0,0,1.31-5.17,40.67,40.67,0,0,0,.26-5.41v-.29l.27.1c5.39,1.89,10.68,4,15.88,6.4l.09,0v.09a45.86,45.86,0,0,1-1.83,8.52,25.15,25.15,0,0,1-4.11,7.65,15.64,15.64,0,0,1-7,5.06,16.47,16.47,0,0,1-8.58.61Zm.18-1a16.5,16.5,0,0,0,8.56-.67,15.55,15.55,0,0,0,6.89-5.08,25,25,0,0,0,4-7.63,45.39,45.39,0,0,0,1.75-8.49l.08.14c-5.21-2.31-10.51-4.42-15.9-6.27l.26-.19a41.7,41.7,0,0,1-.22,5.47,17.22,17.22,0,0,1-1.32,5.34l-.36.62c-.16.18-.29.38-.47.55a1.92,1.92,0,0,1-1.42.57,2.49,2.49,0,0,1-.74-.21,1.84,1.84,0,0,1-.61-.49,4.58,4.58,0,0,1-.71-1.25,20.58,20.58,0,0,1-1-5.4A72.49,72.49,0,0,1,524,189.4c.27-3.63.72-7.25,1.3-10.84l.06-.33.33,0a126.76,126.76,0,0,1,13.45,1.32l-.48.42a69.06,69.06,0,0,1,.38-6.91c.24-2.29.54-4.56.94-6.84l.49.56-12.29.67-.69,0,.15-.67a106.28,106.28,0,0,1,5.18-16.62l.52.81-17-.43.64-.47a162.62,162.62,0,0,0-4.14,17.82l-.1.57-.57,0-5.22.27.7-.64c-.46,3.55-.79,7.15-.94,10.73l-.84-.81,4.61-.27.93-.06-.1,1a122.87,122.87,0,0,0-.7,12.71,71.78,71.78,0,0,0,1,12.62,32.65,32.65,0,0,0,4.15,11.66,16.25,16.25,0,0,0,4.11,4.39,14.1,14.1,0,0,0,5.49,2.25Z"/><path class="cls-22" d="M543.47,163.06a1.74,1.74,0,0,1,.38-.56,2,2,0,0,1,.42-.28l.2-.09.06,0c.15-.07.3-.12.45-.2a7.06,7.06,0,0,0,.88-.5,9.89,9.89,0,0,0,1.6-1.3,8.18,8.18,0,0,0,2.13-3.44l1,1.09a10.71,10.71,0,0,1-4.56-.32,7.53,7.53,0,0,1-3.81-2.67,9.08,9.08,0,0,1-1.76-4.2,10.37,10.37,0,0,1,.26-4.5,9.4,9.4,0,0,1,6-6.33,11.26,11.26,0,0,1,4.38-.6,9.34,9.34,0,0,1,4.21,1.36,10.24,10.24,0,0,1,4.55,7.23,15.25,15.25,0,0,1,0,4.32,15.86,15.86,0,0,1-1.27,4.1,12.88,12.88,0,0,1-5.84,6.07,13.09,13.09,0,0,1-8.31,1Zm2,.26A12.09,12.09,0,0,0,558.11,156a15.48,15.48,0,0,0,1.13-4,15,15,0,0,0-.07-4.13,9.45,9.45,0,0,0-4.35-6.58,8.31,8.31,0,0,0-3.81-1.13,10.22,10.22,0,0,0-4,.65,8.13,8.13,0,0,0-5.08,5.64,8.85,8.85,0,0,0-.13,3.9,7.69,7.69,0,0,0,1.56,3.5,6,6,0,0,0,3.08,2,9.28,9.28,0,0,0,3.83.16l1.31-.2-.33,1.29a10,10,0,0,1-2.48,4.3,12.16,12.16,0,0,1-1.88,1.62c-.34.23-.71.45-1.08.65-.19.1-.4.18-.59.27l-.07,0,.06,0a.44.44,0,0,0,.15-.19A.64.64,0,0,0,545.43,163.32Z"/><path class="cls-22" d="M577.13,224.57a30,30,0,0,1-13.53-3.2,30.92,30.92,0,0,1-10.39-9.19l-.39-.51.36-.52a70.91,70.91,0,0,1,5.36-6.8c1.9-2.17,3.88-4.23,6-6.22l.81-.76.49,1a19.22,19.22,0,0,0,3.89,5.45,12.13,12.13,0,0,0,5.61,3.27,3.43,3.43,0,0,0,.77.12,3.07,3.07,0,0,0,.74,0,3.57,3.57,0,0,0,.68-.12c.17-.1.4-.15.5-.29a1.58,1.58,0,0,0,.54-1,2.14,2.14,0,0,0-.27-1.27,7.25,7.25,0,0,0-2.13-2.31,20.26,20.26,0,0,0-2.86-1.79c-2-1-4.25-1.88-6.33-3a26.51,26.51,0,0,1-5.82-4.2,16.06,16.06,0,0,1-3.94-6.07,16.34,16.34,0,0,1-.68-7.21,14.71,14.71,0,0,1,8.15-11.37,21.3,21.3,0,0,1,6.87-2,29.75,29.75,0,0,1,7.12.05,23,23,0,0,1,6.81,2.16,20.62,20.62,0,0,1,5.68,4.31A31.29,31.29,0,0,1,598,185.33l.14.45-.47.05c-1.37.16-2.75.33-4.11.62s-2.71.61-4,1a48.59,48.59,0,0,0-7.76,3l-.31.15-.13-.32a22.42,22.42,0,0,0-2.27-4.41,8.48,8.48,0,0,0-3.6-3.18,2.51,2.51,0,0,0-2.18.05,1.94,1.94,0,0,0-.7,2,7,7,0,0,0,2.37,4.15c2.48,2.2,5.69,3.43,8.74,4.8a43.4,43.4,0,0,1,8.92,4.75,14,14,0,0,1,3.47,3.7,11.42,11.42,0,0,1,1.68,4.77,13.4,13.4,0,0,1-2.42,9.61,15.51,15.51,0,0,1-3.69,3.45,21.39,21.39,0,0,1-4.55,2.18,30.52,30.52,0,0,1-10,1.44Zm0-1a30.39,30.39,0,0,0,9.93-1.52,21.57,21.57,0,0,0,4.5-2.2,15.22,15.22,0,0,0,3.63-3.44,13.14,13.14,0,0,0,2.31-9.49,11.18,11.18,0,0,0-1.67-4.65,13.78,13.78,0,0,0-3.43-3.59,42.73,42.73,0,0,0-8.89-4.65c-1.54-.66-3.1-1.31-4.62-2.06a18.81,18.81,0,0,1-4.28-2.75,7.46,7.46,0,0,1-2.56-4.42,3.54,3.54,0,0,1,.08-1.37,4.12,4.12,0,0,1,.3-.64,2.71,2.71,0,0,1,.53-.49,3,3,0,0,1,2.67-.13,9.11,9.11,0,0,1,3.9,3.36,22.92,22.92,0,0,1,2.37,4.52l-.44-.16a47.62,47.62,0,0,1,7.85-3.1c1.35-.42,2.71-.77,4.09-1.06s2.78-.49,4.18-.66l-.32.49a30.5,30.5,0,0,0-6.74-11.94,19.7,19.7,0,0,0-5.47-4.08,21.79,21.79,0,0,0-6.51-2,29.15,29.15,0,0,0-6.86,0,20.24,20.24,0,0,0-6.5,2A13.55,13.55,0,0,0,557.74,180a15,15,0,0,0,.68,6.63,14.69,14.69,0,0,0,3.67,5.55,25.1,25.1,0,0,0,5.55,3.93c2,1.11,4.17,1.89,6.33,3a20.93,20.93,0,0,1,3.08,1.9,8.61,8.61,0,0,1,2.58,2.8,3.72,3.72,0,0,1,.43,2.11,3.07,3.07,0,0,1-2,2.59,4.8,4.8,0,0,1-1,.2,4.87,4.87,0,0,1-1,0,4.36,4.36,0,0,1-1-.14,13.69,13.69,0,0,1-6.39-3.63,20.86,20.86,0,0,1-4.27-5.87l1.3.24c-2,1.93-4,4-5.83,6.14a72,72,0,0,0-5.17,6.67l0-1a29.16,29.16,0,0,0,9.83,8.57,28.07,28.07,0,0,0,12.69,2.88Z"/><g class="cls-23"><path class="cls-24" d="M652.15,293.67s2.17,0,6,.12"/><path class="cls-25" d="M670.06,294.5c32.8,2.63,101.14,13.58,123,59,48.13,78.64-45.41,284.85-295.86,167-67.61-32.16-139-104.79-299-41.34-106.41,42.19-152-22-171-61C13,389,18.79,342.63,22.6,321.07"/><path class="cls-24" d="M23.71,315.2c.74-3.73,1.25-5.86,1.25-5.86"/></g></svg>