<svg id="Layer_1" data-name="Layer 1" xmlns="http://www.w3.org/2000/svg" viewBox="0 0 330 360"><defs><style>.cls-1,.cls-4{fill:#ffe309;stroke-width:0.75px;}.cls-1{stroke:#665608;}.cls-1,.cls-4,.cls-6{stroke-miterlimit:10;}.cls-2{fill:#bcfde5;}.cls-3{fill:#ebf7f2;}.cls-4{stroke:#493c05;}.cls-5{fill:#ecc516;}.cls-6{fill:#532900;stroke:#3a1c03;}.cls-7{fill:#fff;}.cls-8{fill:#702840;}.cls-9{fill:#210a11;}.cls-10{fill:#681a1a;}.cls-11{fill:#ef7089;}.cls-12{fill:#ff5763;}.cls-13{fill:#ef304c;}.cls-14{fill:#ffa979;}</style></defs><path class="cls-1" d="M111.19,307.53s2,8.81-8,10.23-17.62-1.42-18.47,8.52-.85,20.75,9.09,21.6,9.1-13.07,16.77-12.22,21.88-1.42,21-19S111.19,307.53,111.19,307.53Z"/><path class="cls-2" d="M153.14,222.38c-14.3,13-48-17.81-68.43-40.37S55.79,131.9,70.09,118.94s36.81,3.78,57.26,26.33S167.44,209.41,153.14,222.38Z"/><path class="cls-3" d="M153.18,222.42a12.5,12.5,0,0,1-4.2,2.45,14.05,14.05,0,0,1-4.82.66,27,27,0,0,1-9.47-2.21,80.22,80.22,0,0,1-16.78-9.88A233.71,233.71,0,0,1,89,187.34c-9.1-9.23-17.29-19.72-22.43-31.81a50.48,50.48,0,0,1-4.38-19.14,27.39,27.39,0,0,1,1.7-9.83,21.69,21.69,0,0,1,5.63-8.32,20.23,20.23,0,0,1,4.22-2.86,17.72,17.72,0,0,1,4.85-1.55,22.69,22.69,0,0,1,10,.82,41.66,41.66,0,0,1,9.06,4,75.93,75.93,0,0,1,8.17,5.46,139.64,139.64,0,0,1,14.57,13,163.35,163.35,0,0,1,13,14.6,149.16,149.16,0,0,1,10.84,16.22,135.64,135.64,0,0,1,8.58,17.5,76.1,76.1,0,0,1,5.12,18.78,32.39,32.39,0,0,1-.21,9.73A15.23,15.23,0,0,1,153.18,222.42Zm-.07-.08a15.13,15.13,0,0,0,4.41-8.45,32,32,0,0,0,.14-9.67,75,75,0,0,0-5.2-18.68,135.67,135.67,0,0,0-8.66-17.41A148.66,148.66,0,0,0,132.91,152a164.92,164.92,0,0,0-13-14.46,138,138,0,0,0-14.58-12.86,72.81,72.81,0,0,0-8.11-5.35,40.73,40.73,0,0,0-8.89-3.85,21.9,21.9,0,0,0-9.58-.75,16.85,16.85,0,0,0-4.58,1.5,19,19,0,0,0-4,2.73,20.89,20.89,0,0,0-5.42,7.92,26.51,26.51,0,0,0-1.69,9.5,49.64,49.64,0,0,0,4.21,18.83,87.12,87.12,0,0,0,9.55,16.9c1.88,2.64,3.89,5.19,6,7.65s4.34,4.82,6.56,7.19a233.7,233.7,0,0,0,28.71,26.21,79.63,79.63,0,0,0,16.66,9.94,26.85,26.85,0,0,0,9.39,2.25,13.56,13.56,0,0,0,4.78-.62A12.11,12.11,0,0,0,153.11,222.34Z"/><path class="cls-2" d="M146.14,218.87c0,19.3-45.43,23.58-75.87,23.58s-56.55-12.24-56.55-31.54,27.52-24.72,58-24.72S146.14,199.56,146.14,218.87Z"/><path class="cls-3" d="M146.19,218.87a12.52,12.52,0,0,1-1,4.75,14.08,14.08,0,0,1-2.75,4,27.15,27.15,0,0,1-8,5.53A80.05,80.05,0,0,1,115.85,239a234.34,234.34,0,0,1-38.75,3.9c-12.95.54-26.22-.45-38.63-4.76a50.41,50.41,0,0,1-17.13-9.61,27.39,27.39,0,0,1-6.14-7.86,21.6,21.6,0,0,1-2.38-9.76,20.43,20.43,0,0,1,.71-5,18.26,18.26,0,0,1,2.11-4.65A22.62,22.62,0,0,1,23,194.35a41.89,41.89,0,0,1,9-4,75.42,75.42,0,0,1,9.53-2.38,139.66,139.66,0,0,1,19.43-2.06,165.12,165.12,0,0,1,19.52.19,151.22,151.22,0,0,1,19.3,2.87,136.37,136.37,0,0,1,18.73,5.4,75.64,75.64,0,0,1,17.35,8.83,32,32,0,0,1,7.07,6.68A15.2,15.2,0,0,1,146.19,218.87Zm-.1,0a15.06,15.06,0,0,0-3.3-8.94,32,32,0,0,0-7.07-6.61,75.29,75.29,0,0,0-17.34-8.69,136.05,136.05,0,0,0-18.71-5.28,148.7,148.7,0,0,0-19.25-2.75A163.75,163.75,0,0,0,61,186.52a137.61,137.61,0,0,0-19.32,2.16,72.52,72.52,0,0,0-9.41,2.41,41.06,41.06,0,0,0-8.82,4,21.59,21.59,0,0,0-7,6.59,16.89,16.89,0,0,0-2,4.4,18.8,18.8,0,0,0-.65,4.78,20.62,20.62,0,0,0,2.23,9.34,26.47,26.47,0,0,0,5.89,7.62,49.58,49.58,0,0,0,16.79,9.54,87,87,0,0,0,18.93,4.27c3.22.38,6.46.61,9.7.7s6.48,0,9.73,0a232.51,232.51,0,0,0,38.7-3.66A80,80,0,0,0,134.35,233a26.82,26.82,0,0,0,8-5.45,13.54,13.54,0,0,0,2.75-4A12.25,12.25,0,0,0,146.09,218.87Z"/><path class="cls-1" d="M168.3,103.5s-13.64.28-30.4-26.43S135.34,17.4,151,15.41s16.2,11.36,2.27,21.88-12.22,46.88,19,62.23C172.28,99.52,190.18,113.73,168.3,103.5Z"/><path class="cls-1" d="M209.79,99.52s-4-24.72.85-41.2,21-52.86,45.19-45.19c0,0,7.1,4.83,4.26,11.09s-9.09,8.24-15.35,4.83-40.06,25.29-29,69.05C215.76,98.1,214.91,110.32,209.79,99.52Z"/><path class="cls-1" d="M223,227.68s2.55,6.82,38.78,10.65c0,0,14.71,1.92,23,.22s26.64-2.35,30.05,2.13.64,9.59-7.88,6.39l-8.74-1.92s10.23,3.2,4.47,13.86-10.65-8.74-10.65-8.74l3,11.08s-7.46,6.61-12.79-8.74c0,0-4.05,5.12-28.13,5.76s-48-7.89-48-7.89Z"/><path class="cls-4" d="M226.23,242.35c-.84,13.62-3.79,25.43-9.18,35.53a65.16,65.16,0,0,1-15.74,19.37h0a82.74,82.74,0,0,1-16.21,10.56c-1.08.55-2.19,1.08-3.31,1.57a88.1,88.1,0,0,1-25.62,7.07c-17.49,2.13-33.94-.75-46.26-4-2.94-.77-5.65-1.59-8.06-2.34-18.19-5.68-30.41-2-30.41-2,7.68-7.25,9.37-18.8,11.66-31.23,2.06-11.36,4.59-23.46,12.63-33.68.42-.53.83-1.06,1.28-1.59a57.87,57.87,0,0,1,8.94-8.38,77.34,77.34,0,0,1,16.06-9.3l.46-.19a103.25,103.25,0,0,1,16.38-5.46,83.59,83.59,0,0,1,10.17-2c21.59-2.27,25.58-18.77,25.58-18.77l51.71,27.85A151.79,151.79,0,0,1,226.23,242.35Z"/><path class="cls-5" d="M225.14,240c-9.29,4-20.4,5.25-33.82,5.25-27.8,0-50.59-10.38-52.57-23.58a82.15,82.15,0,0,1,13.81-5,64.27,64.27,0,0,1,8.58-1.8c18.2-2.1,21.57-17.33,21.57-17.33l43.6,25.71C226.56,228.73,225.42,235.09,225.14,240Z"/><path class="cls-6" d="M110.76,311.79c-3-.77-6.53-1-8.94-1.71-18.19-5.68-30.41-2-30.41-2,7.68-7.25,10.06-20.1,12.36-32.54C85,284.86,90.42,301.5,110.76,311.79Z"/><path class="cls-6" d="M217.05,277.88a65.16,65.16,0,0,1-15.74,19.37h0c-11,0-31.95-3.53-56.57-25.24-15.12-13.36-21-31.47-22.73-48.09a103.85,103.85,0,0,1,16.84-5.65c1.52,13.09,7.39,33.57,28.07,46.64C187.15,277.71,205.89,278.82,217.05,277.88Z"/><path class="cls-6" d="M181.76,309.38a88.1,88.1,0,0,1-25.62,7.07c-12.71-1.9-30.44-7.05-43.24-20.87-15.67-16.85-18-36-17.2-52.39.42-.53.83-1.06,1.28-1.59a57.87,57.87,0,0,1,8.94-8.38c.34,12.75,3.7,34.2,20.89,48.74C147.15,299.16,172.05,306.86,181.76,309.38Z"/><path class="cls-1" d="M276.5,178.22c.72,30.07-24.81,48-55.8,55,0,0-.07,0-.1,0a144.33,144.33,0,0,1-31.49,3.41c-43,0-65.22-22.59-62.85-66.07,1.76-32.68,20.12-64.27,50.31-74.66a66.61,66.61,0,0,1,21.72-3.55C241.26,92.35,275.43,133.68,276.5,178.22Z"/><path class="cls-5" d="M223,232a145,145,0,0,1-31.5,3.38c-42.94,0-65.21-22.38-62.85-65.46,1.77-32.39,20.12-63.69,50.32-74-13.14,9.36-37.63,32.39-36.69,73.56C143.5,222.93,187.2,236.59,223,232Z"/><ellipse class="cls-7" cx="187.15" cy="157.52" rx="17.14" ry="23.24" transform="translate(-14.04 18.38) rotate(-5.42)"/><path class="cls-8" d="M189.59,180.68a13.75,13.75,0,0,1-7.76-1.45,18.93,18.93,0,0,1-6.14-5.08A30.14,30.14,0,0,1,172,143.52a20,20,0,0,1,5-6.56,14.63,14.63,0,0,1,7.61-3.44,14.48,14.48,0,0,1,8.19,1.65,19.55,19.55,0,0,1,6.28,5.35,29,29,0,0,1,5.58,15.09,29.45,29.45,0,0,1-2.9,15.64,19.42,19.42,0,0,1-4.91,6.28A14,14,0,0,1,189.59,180.68Zm0-.1a13.86,13.86,0,0,0,7.15-3.18,19.22,19.22,0,0,0,4.81-6.25,29.64,29.64,0,0,0-3.14-30.1,18.81,18.81,0,0,0-6-5.05,13.59,13.59,0,0,0-7.66-1.49,13.77,13.77,0,0,0-7.13,3.17,19.18,19.18,0,0,0-4.81,6.23,29.65,29.65,0,0,0,3.1,30.1,18.8,18.8,0,0,0,6,5.07A13.6,13.6,0,0,0,189.58,180.58Z"/><ellipse class="cls-9" cx="188.4" cy="159.11" rx="7.33" ry="9.88" transform="translate(-27.79 40.49) rotate(-11.43)"/><ellipse class="cls-7" cx="191.07" cy="151.68" rx="2.13" ry="2.87" transform="translate(-26.27 40.87) rotate(-11.43)"/><path class="cls-8" d="M178.68,134.33a18.42,18.42,0,0,1-16.63,3.41l8.74,2.13-6.39,1.92s3.83,2.34,9.16-.85Z"/><ellipse class="cls-7" cx="233.61" cy="148.61" rx="15.59" ry="21.13" transform="translate(-34.61 79.94) rotate(-18.1)"/><path class="cls-8" d="M240.4,168.68a12.45,12.45,0,0,1-7.18.26,17.08,17.08,0,0,1-6.47-3.27,27.45,27.45,0,0,1-9.45-26.47,18.23,18.23,0,0,1,3.13-6.85,13.37,13.37,0,0,1,6.1-4.6,13.18,13.18,0,0,1,7.64-.17,17.82,17.82,0,0,1,6.67,3.51,26.39,26.39,0,0,1,7.95,12.31,26.81,26.81,0,0,1,.53,14.48,17.68,17.68,0,0,1-3.11,6.55A12.7,12.7,0,0,1,240.4,168.68Zm0-.1a12.57,12.57,0,0,0,5.71-4.25,17.56,17.56,0,0,0,3-6.5,26.18,26.18,0,0,0-.82-14.25,25.89,25.89,0,0,0-8-11.82,17.15,17.15,0,0,0-6.36-3.28,11.81,11.81,0,0,0-12.77,4.44,17.44,17.44,0,0,0-3,6.48,26.29,26.29,0,0,0,.8,14.25,26,26,0,0,0,8,11.83,17,17,0,0,0,6.36,3.3A12.39,12.39,0,0,0,240.37,168.58Z"/><ellipse class="cls-9" cx="231.37" cy="148.99" rx="7.06" ry="9.52" transform="translate(-28.39 58.13) rotate(-13.5)"/><ellipse class="cls-7" cx="233.2" cy="141.69" rx="1.94" ry="2.61" transform="translate(-26.63 58.35) rotate(-13.5)"/><path class="cls-8" d="M235.77,126.79a22.66,22.66,0,0,0,19,1l-9.52,3.34,7.4,1s-4,2.87-10.37.45Z"/><path class="cls-9" d="M220.87,119.2s7-1.49,17.48,4C238.35,123.25,220.87,106.41,220.87,119.2Z"/><path class="cls-9" d="M191.94,120.29s-7.88.87-17.3,9.56C174.64,129.85,188.18,108.07,191.94,120.29Z"/><path class="cls-10" d="M246.45,184.62s0,14.3-6.89,25a25.22,25.22,0,0,1-7.12,7.56c-11,7.56-25.24,7-35.22-5.87-.24-.27-.43-.56-.65-.85a49.67,49.67,0,0,1-6.38-12.24s26.21,3.55,48.34-8.48A56.26,56.26,0,0,0,246.45,184.62Z"/><path class="cls-11" d="M246.47,184.58a38.38,38.38,0,0,1-.2,4.83c-.15,1.59-.34,3.18-.62,4.76a53.15,53.15,0,0,1-2.43,9.31,37.11,37.11,0,0,1-4.55,8.54,24.72,24.72,0,0,1-7.15,6.63,25.86,25.86,0,0,1-18.84,3.84,24.57,24.57,0,0,1-9.05-3.84,32.06,32.06,0,0,1-7.11-6.74l0,.05a36,36,0,0,1-2.23-3.17q-1-1.62-1.89-3.3a57.48,57.48,0,0,1-3-6.93l-.46-1.27,1.36.15a89.19,89.19,0,0,0,14.63.38A93.84,93.84,0,0,0,219.51,196a78.33,78.33,0,0,0,14.06-4.26c1.15-.44,2.23-1,3.36-1.52s2.22-1.06,3.29-1.67A64.71,64.71,0,0,0,246.47,184.58Zm0,.09a49.29,49.29,0,0,1-6.08,4.15c-1.06.64-2.15,1.21-3.26,1.75s-2.2,1.14-3.34,1.6a73.67,73.67,0,0,1-14.09,4.52,91.88,91.88,0,0,1-14.67,2,90.45,90.45,0,0,1-14.81-.31l.1-.12a55.75,55.75,0,0,0,3,6.8,40.77,40.77,0,0,0,4,6.25h0a31.62,31.62,0,0,0,6.87,6.55,23.61,23.61,0,0,0,8.69,3.74,23.37,23.37,0,0,0,9.46-.06,27.78,27.78,0,0,0,8.79-3.55,24,24,0,0,0,7-6.35,36.48,36.48,0,0,0,4.58-8.35A58.18,58.18,0,0,0,246.43,184.67Z"/><path class="cls-12" d="M235.08,209.14c3.13,4.19-.88,6.7-3.55,8.59-9.92,7.05-25.53,5-34.49-7,2.45-1.87,6.86-3.42,14.73-2.68C211.77,208,225.92,202.37,235.08,209.14Z"/><path class="cls-7" d="M225.31,208.61a50.38,50.38,0,0,1-13,3.32,20.48,20.48,0,0,1-21.49-13l0-.15s25.57,3.82,47.69-8.21C240.13,196.63,238.41,203.37,225.31,208.61Z"/><path class="cls-13" d="M186.26,190.47a7.44,7.44,0,0,1,1.29,2.52,6.9,6.9,0,0,1,.22,2.9,4.87,4.87,0,0,1-1.37,2.61,5.16,5.16,0,0,1-1.17.87,8.22,8.22,0,0,1-1.32.52l0,0a6.9,6.9,0,0,0,2.22-1.59,4.67,4.67,0,0,0,1.16-2.44,7,7,0,0,0-.1-2.73,9.88,9.88,0,0,0-.95-2.58Z"/><path class="cls-13" d="M250.86,186.91a6.06,6.06,0,0,1-2.3-.72,7.81,7.81,0,0,1-1.93-1.51,6.85,6.85,0,0,1-1.28-2.09,6.51,6.51,0,0,1-.33-1.18,8.19,8.19,0,0,1-.07-1.21H245a8.31,8.31,0,0,0,.7,2.22,7.2,7.2,0,0,0,1.3,1.93,8.91,8.91,0,0,0,3.87,2.51Z"/><ellipse class="cls-14" cx="168.55" cy="189.85" rx="12.15" ry="8.52"/><ellipse class="cls-14" cx="262.22" cy="166.94" rx="12.15" ry="8.52" transform="translate(-44.96 119.32) rotate(-23.67)"/><path class="cls-1" d="M140.31,222.14s5.76,6.18,1.5,12.36-23.87,2.13-35.17-3.63-23.66,4-23.66,4,3.41,14.92-2.55,16-6.18-11.72-6.18-11.72-6.18,7.45-4.69,15.13c0,0-3.84,4.69-7.25-3l1.71-9-2.77,9s-5.12-1.06-2.14-14.49S93.43,208.71,123.9,214C123.9,214,133.49,215.53,140.31,222.14Z"/><path class="cls-1" d="M95.44,271A7,7,0,0,1,106,277.42a15.28,15.28,0,0,1-4.15,9.93c-6.25,6.25-16.77,12.22-27.28,8.53s-15.06,4.83-18.47,9.94-14.21,4.26-13.64-8.24c0,0,0-16.76,13.92-23.58,0,0,5.4-4.27,21,1.13C86.93,278.43,91.07,273.66,95.44,271Z"/></svg>