<svg id="e4853583-6bf4-40a6-9b47-1aaed1c1cd3b" data-name="Layer 1" xmlns="http://www.w3.org/2000/svg" width="248.57" height="257.14" viewBox="0 0 248.57 257.14">
  <defs>
    <style>
      .a1007869-bd2a-4390-a65f-7ad5fa446996 {
        fill: #ff0;
      }
    </style>
  </defs>
  <path class="a1007869-bd2a-4390-a65f-7ad5fa446996" d="M208.49,180.13H123.73L220.85,66.58a35.42,35.42,0,0,0-25.1-60.41H57.81a35.43,35.43,0,1,0,0,70.85h56.6L19.47,186.74A35.42,35.42,0,0,0,40.08,251H208.49a35.42,35.42,0,1,0,0-70.84Zm0,62.84H40.08a27.42,27.42,0,0,1-15.22-50.23L131.91,69H57.81a27.43,27.43,0,1,1,0-54.85H195.75a27.42,27.42,0,0,1,19.23,47l-108.62,127H208.49a27.42,27.42,0,1,1,0,54.84Z"/>
</svg>
