<svg id="f75255b0-423c-4cd6-ac76-bf10ff87d9e9" data-name="Layer 1" xmlns="http://www.w3.org/2000/svg" width="354" height="468" viewBox="0 0 354 468">
  <defs>
    <style>
      .a953a9aa-fc00-48b7-9ff7-cdb06294ff90 {
        fill: #ef4bbc;
      }
    </style>
  </defs>
  <path class="a953a9aa-fc00-48b7-9ff7-cdb06294ff90" d="M332.87,328.28a31.93,31.93,0,0,0-45-4L252.46,353.9V44.69a30,30,0,0,0-30-30h0a30,30,0,0,0-27.86,18.89A115.43,115.43,0,0,0,131.78,15C66.57,15,13.7,69.2,13.7,136s52.87,121,118.08,121a115.32,115.32,0,0,0,60.66-17.19V423.31a30,30,0,0,0,30,30h0a29.78,29.78,0,0,0,16.14-4.74l.09.11,1-.84a30.08,30.08,0,0,0,4-3.36l85.15-71.22A31.93,31.93,0,0,0,332.87,328.28ZM192.44,160.17a62.53,62.53,0,1,1,0-48.26Z"/>
</svg>
