<svg id="a0a3de8b-c57f-4b0a-9856-28fc07677ee2" data-name="Layer 1" xmlns="http://www.w3.org/2000/svg" width="354" height="468" viewBox="0 0 354 468">
  <defs>
    <style>
      .a7097725-6aff-4b70-a341-a561f6b4ac5c {
        fill: #fff;
      }
    </style>
  </defs>
  <g>
    <path class="a7097725-6aff-4b70-a341-a561f6b4ac5c" d="M134.74,73.51a62.53,62.53,0,1,0,57.7,86.66V111.91A62.54,62.54,0,0,0,134.74,73.51Zm49.7,85a54.53,54.53,0,1,1,0-44.94Z"/>
    <path class="a7097725-6aff-4b70-a341-a561f6b4ac5c" d="M339,323.15a39.93,39.93,0,0,0-56.26-5l-22.29,18.64V44.69a38,38,0,0,0-68.85-22.22A123.45,123.45,0,0,0,131.78,7C62.26,7,5.7,64.89,5.7,136s56.56,129,126.08,129a123.6,123.6,0,0,0,52.66-11.78v170a38,38,0,0,0,57,32.89,8.12,8.12,0,0,0,2.35-1.37l.76-.64a39.32,39.32,0,0,0,4.52-3.78l84.9-71A40,40,0,0,0,339,323.15Zm-10.15,50.12-85.15,71.22a30.08,30.08,0,0,1-4,3.36l-1,.84-.09-.11a30,30,0,0,1-46.15-25.27V239.88a115.32,115.32,0,0,1-60.66,17.19c-65.21,0-118.08-54.19-118.08-121S66.57,15,131.78,15a115.43,115.43,0,0,1,62.81,18.56,30,30,0,0,1,57.87,11.12V353.9l35.43-29.63a31.94,31.94,0,0,1,41,49Z"/>
  </g>
</svg>
