<svg id="ffe15a7f-f4d0-4c54-9882-7521b79a4e22" data-name="Layer 1" xmlns="http://www.w3.org/2000/svg" width="354" height="468" viewBox="0 0 354 468">
  <defs>
    <style>
      .bde033bd-e904-496b-b89e-f002fe9e9c8c {
        fill: #3b3be0;
      }
    </style>
  </defs>
  <path class="bde033bd-e904-496b-b89e-f002fe9e9c8c" d="M252.46,353.9V44.69a30,30,0,0,0-57.87-11.12A115.43,115.43,0,0,0,131.78,15C66.57,15,13.7,69.2,13.7,136s52.87,121,118.08,121a115.32,115.32,0,0,0,60.66-17.19V423.31a30,30,0,0,0,46.15,25.27l.09.11,1-.84a30.08,30.08,0,0,0,4-3.36l8.3-6.94Zm-60-193.73a62.53,62.53,0,1,1,0-48.26Z"/>
</svg>
