<svg id="ea2c2783-a7b5-4d96-9961-6e1a05b2db0d" data-name="Layer 1" xmlns="http://www.w3.org/2000/svg" width="354" height="468" viewBox="0 0 354 468">
  <defs>
    <style>
      .ac0dad5a-207e-41da-9bc8-d74fb90869f2 {
        fill: #f4406f;
      }
    </style>
  </defs>
  <path class="ac0dad5a-207e-41da-9bc8-d74fb90869f2" d="M252.46,353.9V44.69a30,30,0,0,0-57.87-11.12A115.43,115.43,0,0,0,131.78,15C66.57,15,13.7,69.2,13.7,136s52.87,121,118.08,121a115.32,115.32,0,0,0,60.66-17.19V423.31a30,30,0,0,0,46.15,25.27l.09.11,1-.84a30.08,30.08,0,0,0,4-3.36l8.3-6.94Zm-60-193.73a62.53,62.53,0,1,1,0-48.26Z"/>
</svg>
