<svg id="ad4f98c6-299f-4c48-b89c-5267bf4351e5" data-name="Layer 1" xmlns="http://www.w3.org/2000/svg" width="354" height="468" viewBox="0 0 354 468">
  <defs>
    <style>
      .abed331f-a5a4-43e9-a6a1-8220af882754 {
        fill: #3b3be0;
      }
    </style>
  </defs>
  <path class="abed331f-a5a4-43e9-a6a1-8220af882754" d="M332.87,328.28a31.93,31.93,0,0,0-45-4L252.46,353.9V44.69a30,30,0,0,0-30-30h0a30,30,0,0,0-27.86,18.89A115.43,115.43,0,0,0,131.78,15C66.57,15,13.7,69.2,13.7,136s52.87,121,118.08,121a115.32,115.32,0,0,0,60.66-17.19V423.31a30,30,0,0,0,30,30h0a29.78,29.78,0,0,0,16.14-4.74l.09.11,1-.84a30.08,30.08,0,0,0,4-3.36l85.15-71.22A31.93,31.93,0,0,0,332.87,328.28ZM192.44,160.17a62.53,62.53,0,1,1,0-48.26Z"/>
</svg>
