<svg id="b4e9df72-51e4-4ed0-ac0d-56e340f9a2b7" data-name="Layer 1" xmlns="http://www.w3.org/2000/svg" width="377.14" height="265.71" viewBox="0 0 377.14 265.71">
  <defs>
    <style>
      .ac8e28e9-e53f-4bce-95dc-5eca18218371 {
        fill: #3b3be0;
      }
    </style>
  </defs>
  <path class="ac8e28e9-e53f-4bce-95dc-5eca18218371" d="M188.49,123.18V14c-.55,0-1.11,0-1.66,0l-.78.06a29.65,29.65,0,0,0-25.16,18.53l-44.5,111.23L71.89,32.64A29.69,29.69,0,0,0,33.3,16.11h0A29.69,29.69,0,0,0,16.77,54.7L88.14,233.11a29.69,29.69,0,0,0,28.25,18.62,29.69,29.69,0,0,0,28.25-18.62L188.5,123.47C188.5,123.37,188.49,123.28,188.49,123.18Z"/>
</svg>
