<svg id="b31616af-e10f-40fe-a6da-a3b635267a3f" data-name="Layer 1" xmlns="http://www.w3.org/2000/svg" width="377.14" height="265.71" viewBox="0 0 377.14 265.71">
  <defs>
    <style>
      .bdbaa8d8-829c-48ff-a202-a669aa70a677 {
        fill: #ef4bbc;
      }
    </style>
  </defs>
  <path class="bdbaa8d8-829c-48ff-a202-a669aa70a677" d="M343.84,16.11h0a29.69,29.69,0,0,0-38.59,16.53l-44.5,111.23L216.25,32.64a29.64,29.64,0,0,0-25.16-18.53l-.78-.06c-.58,0-1.16-.05-1.74-.05s-1.16,0-1.74.05l-.78.06a29.65,29.65,0,0,0-25.16,18.53l-44.5,111.23L71.89,32.64A29.69,29.69,0,0,0,33.3,16.11h0A29.69,29.69,0,0,0,16.77,54.7L88.14,233.11a29.69,29.69,0,0,0,28.25,18.62,29.69,29.69,0,0,0,28.25-18.62l43.93-109.82,43.94,109.82a30.73,30.73,0,0,0,56.49,0L360.38,54.7A29.69,29.69,0,0,0,343.84,16.11Z"/>
</svg>
