<svg id="ee248553-ca3c-4c1f-b430-e36f946a86c8" data-name="Layer 1" xmlns="http://www.w3.org/2000/svg" width="377.14" height="265.71" viewBox="0 0 377.14 265.71">
  <defs>
    <style>
      .e540cf32-33a9-440a-afd0-bb14bdb4929d {
        fill: #3b3be0;
      }
    </style>
  </defs>
  <path class="e540cf32-33a9-440a-afd0-bb14bdb4929d" d="M292.94,223.3l-32.19-79.43L216.25,32.64a29.64,29.64,0,0,0-25.16-18.53l-.78-.06c-.58,0-1.16-.05-1.74-.05s-1.16,0-1.74.05l-.78.06a29.65,29.65,0,0,0-25.16,18.53l-44.5,111.23L71.89,32.64A29.69,29.69,0,0,0,33.3,16.11h0A29.69,29.69,0,0,0,16.77,54.7L88.14,233.11a29.69,29.69,0,0,0,28.25,18.62,29.69,29.69,0,0,0,28.25-18.62l43.93-109.82,43.94,109.82a29.68,29.68,0,0,0,28.24,18.62,32.16,32.16,0,0,0,19.41-6.56C288.44,238.78,292.94,223.3,292.94,223.3Z"/>
</svg>
