<?xml version="1.0" encoding="utf-8"?>
<!-- Generator: Adobe Illustrator 25.2.3, SVG Export Plug-In . SVG Version: 6.00 Build 0)  -->
<svg version="1.1" id="Layer_1" xmlns="http://www.w3.org/2000/svg" xmlns:xlink="http://www.w3.org/1999/xlink" x="0px" y="0px"
	 viewBox="0 0 1600 900" style="enable-background:new 0 0 1600 900;" xml:space="preserve">
<style type="text/css">
	.st0{clip-path:url(#SVGID_2_);}
	.st1{fill:url(#SVGID_3_);}
	.st2{fill:url(#SVGID_4_);}
	.st3{fill:url(#SVGID_5_);}
	.st4{fill:#54C4D5;}
	.st5{fill:url(#SVGID_6_);}
	.st6{fill:#42C68D;}
	.st7{fill:url(#SVGID_7_);}
	.st8{fill:url(#SVGID_8_);}
	.st9{fill:url(#SVGID_9_);}
	.st10{fill:url(#SVGID_10_);}
	.st11{fill:url(#SVGID_11_);}
	.st12{fill:#874A41;}
	.st13{fill:url(#SVGID_12_);}
	.st14{fill:url(#SVGID_13_);}
	.st15{fill:url(#SVGID_14_);}
	.st16{fill:url(#SVGID_15_);}
	.st17{fill:url(#SVGID_16_);}
	.st18{fill:url(#SVGID_17_);}
	.st19{fill:url(#SVGID_18_);}
	.st20{fill:url(#SVGID_19_);}
	.st21{fill:url(#SVGID_20_);}
	.st22{fill:url(#SVGID_21_);}
	.st23{fill:url(#SVGID_22_);}
	.st24{fill:url(#SVGID_23_);}
	.st25{fill:url(#SVGID_24_);}
	.st26{fill:url(#SVGID_25_);}
	.st27{fill:url(#SVGID_26_);}
	.st28{fill:url(#SVGID_27_);}
	.st29{fill:url(#SVGID_28_);}
</style>
<g>
	<defs>
		<rect id="SVGID_1_" width="1600" height="900"/>
	</defs>
	<clipPath id="SVGID_2_">
		<use xlink:href="#SVGID_1_"  style="overflow:visible;"/>
	</clipPath>
	<g class="st0">
		
			<linearGradient id="SVGID_3_" gradientUnits="userSpaceOnUse" x1="795.9149" y1="248.7702" x2="769.1249" y2="820.9702" gradientTransform="matrix(1 0 0 -1 0 900)">
			<stop  offset="0.29" style="stop-color:#A6D9EF"/>
			<stop  offset="0.53" style="stop-color:#9FD2EB"/>
			<stop  offset="0.89" style="stop-color:#8BBEDF"/>
			<stop  offset="0.9" style="stop-color:#8ABDDE"/>
		</linearGradient>
		<rect x="-48.7" class="st1" width="1667.2" height="833"/>
		
			<linearGradient id="SVGID_4_" gradientUnits="userSpaceOnUse" x1="-42.85" y1="279.211" x2="1644.62" y2="279.211" gradientTransform="matrix(1 0 0 -1 0 900)">
			<stop  offset="0" style="stop-color:#8AD1ED"/>
			<stop  offset="1" style="stop-color:#8AD1ED"/>
		</linearGradient>
		<path class="st2" d="M-42.8,484.3c105-9.7,237.2-9.2,395.6,18.8c338.6,59.9,262.5,124.3,801,139.1c0,0,201.7,10.6,410.9-27.3
			c0,0,68.5-13.9,79.9-13.9v162H-42.8V484.3z"/>
		
			<linearGradient id="SVGID_5_" gradientUnits="userSpaceOnUse" x1="-61.36" y1="80.5" x2="1644.59" y2="80.5" gradientTransform="matrix(1 0 0 -1 0 900)">
			<stop  offset="1.000000e-02" style="stop-color:#0C6021"/>
			<stop  offset="0.38" style="stop-color:#0C6525"/>
			<stop  offset="0.8" style="stop-color:#0D7331"/>
			<stop  offset="0.94" style="stop-color:#0E7936"/>
		</linearGradient>
		<polygon class="st3" points="-61.3,750.8 1131.5,737 1644.6,743.9 1644.6,902 -61.4,900 		"/>
		<path class="st4" d="M1612.1,621.3c-21.1,6.9-44.5,16.3-70.9,28.7c-55.3,26-102.5,11.1-112,5.8l-139-77.9
			C1261.8,556,1202.6,554,1159,589l-108.6,69c-7.1,3.6-15.3,8.2-26.6,6.3c-340.2-59.3-373-43.3-633-1.3
			c-228.1,24.5-327.2-0.1-430.6-25.8c-52.8-13.1,8,112.7,8,112.7L1259.9,761l362.9-3.8C1622.8,757.2,1768.6,570.1,1612.1,621.3z"/>
		
			<linearGradient id="SVGID_6_" gradientUnits="userSpaceOnUse" x1="85.5406" y1="211.3522" x2="181.8606" y2="607.8923" gradientTransform="matrix(1 0 0 -1 0 900)">
			<stop  offset="0" style="stop-color:#A3513F"/>
			<stop  offset="0.13" style="stop-color:#8E4C38"/>
			<stop  offset="0.41" style="stop-color:#573E27"/>
			<stop  offset="0.61" style="stop-color:#2C3319"/>
		</linearGradient>
		<path class="st5" d="M106.5,400.1c0,0,23.1,15.1,22.7,36.9c-0.1,3.9,0.2,15.6-7.6,20.7c-5.4,3.6-12,2.1-13,1.9
			C96.3,456.9,89,441.8,81.9,427c-5.8-12.1-8.5-21.5-15.5-22.6c-0.8-0.1-3.5-0.5-5.2,1.1c-5.2,5,3.8,25.3,13.8,39.6
			c7.9,11.3,14.7,16.4,12.9,23.3c-1.4,5.3-7,8-7.6,8.3c-4.5,2.1-9.5,1.4-16.6-1.4c-10.1-4-19.2-10.1-26.9-17.7
			c-17.6-18.1-31.6-37.5-40.3-50.4l-6,6l11.2,19c-1.4-2.4-8-12.7-20.7-15.5c-4.3-0.9-8.7-0.9-12.9,0c9.3,3.4,17.5,9,24.1,16.4
			c8.7,10,9.1,17.8,18.1,31.9C16.1,473.9,23,482,31,489c20.8,17.3,48.8,16.9,62.9,15.5c5.9,0.7,13.7,2.7,19.8,8.6
			c12.2,11.8,9.6,31.6,6.1,55.2c-5.7,38.7-23.5,85.9-31.9,95.6c-7.8,9,92.4,21.5,119.4,13.2c17.6-0.1,25.2-5.7,28.9-10.2
			c22.2-27.4-41.7-87.2-23.5-155.5c2-7.4,8.4-31.8,26.7-38.8c10.8-4.1,15.7,1.6,31,0c29.8-3.1,49.2-28.8,50.8-31
			c15.1-20.6,19.5-50.2,19.5-50.2l0,0l-12.8,1.9c-0.6,5.2-4.2,32.6-24.8,43.2c-2.4,1.3-13.7,7-20.6,2.3c-9.7-6.6-3.7-29.1-2.7-31.2
			c4.1-8,13.8-23.4,13.8-23.4l-31.9,4c1.5,19.4-5.3,36.5-18.4,43.6c-1.7,1-11.7,6.4-19.6,2.3c-9.6-4.9-13.6-22.5-6.2-42.8l-11.8-4.3
			c0,0-7.2,68.1-18,75.1c-18.7,12.1-32.5-29.1-27.6-70.8h-13.8c0,0,9,45.6-2.1,29.3s-22.1-20.6-22.1-20.6l0,0"/>
		<path class="st6" d="M371,349.2c0,0-25.9,7-141.5,7.9l0.2-92.5c2.7-0.9,22.5-5.4,72.7,10.1c60.9,18.8,114.3,59,74.9,72.7"/>
		
			<linearGradient id="SVGID_7_" gradientUnits="userSpaceOnUse" x1="-2033.2468" y1="513.1016" x2="-2115.6868" y2="680.2115" gradientTransform="matrix(-1 0 0 -1 -1765.14 900)">
			<stop  offset="8.000000e-02" style="stop-color:#0D6C59"/>
			<stop  offset="0.76" style="stop-color:#2CB67D"/>
		</linearGradient>
		<path class="st7" d="M370.7,350.9c0,0-25.9,7-141.5,7.9l0.2-92.5c2.7-0.9,22.5-5.4,72.7,10.1c60.9,18.8,114.3,59,74.9,72.7"/>
		
			<linearGradient id="SVGID_8_" gradientUnits="userSpaceOnUse" x1="249.064" y1="536.3858" x2="345.924" y2="636.9558" gradientTransform="matrix(1 0 0 -1 0 900)">
			<stop  offset="0" style="stop-color:#0D5F3F"/>
			<stop  offset="0.16" style="stop-color:#07724A"/>
			<stop  offset="0.28" style="stop-color:#018455"/>
			<stop  offset="0.41" style="stop-color:#24995C"/>
			<stop  offset="0.56" style="stop-color:#43AC62"/>
			<stop  offset="0.68" style="stop-color:#56B766"/>
			<stop  offset="0.76" style="stop-color:#5DBB67"/>
		</linearGradient>
		<path class="st8" d="M357.3,333.3c-11.4,16.5-18.3,25.9-69.3,25.7s-109-25.3-57.5-56.7c0,0,23.4-11.7,60.2-11.5"/>
		<path class="st6" d="M221.3,218.3c97.6,29.3,108.4,60.2,105.9,80.7c0,0,0.2,27.6-101.1,55.4l0,0c0,0-59.4,22.8-169.1,10.8
			c-33.3-3.6-88.2-18-95.8-50.3c-5.6-23.7,17.3-47.8,25.5-56.5C53.9,187.3,188.3,211.6,221.3,218.3z"/>
		
			<linearGradient id="SVGID_9_" gradientUnits="userSpaceOnUse" x1="35.1775" y1="485.8533" x2="281.6475" y2="762.1833" gradientTransform="matrix(1 0 0 -1 0 900)">
			<stop  offset="0.16" style="stop-color:#176862"/>
			<stop  offset="0.32" style="stop-color:#18716A"/>
			<stop  offset="0.56" style="stop-color:#1C887F"/>
			<stop  offset="0.76" style="stop-color:#209F95"/>
		</linearGradient>
		<path class="st9" d="M218.2,219c98.1,29.3,107.9,64.4,105.9,80.4c0,0,0.2,27.5-101.1,55.2l0,0c0,0-59.4,22.6-169.1,10.7
			c-33.3-3.6-88.2-18-95.8-50.1c-5.6-23.6,17.3-47.6,25.5-56.3C50.8,188.1,185.2,212.2,218.2,219z"/>
		<path class="st6" d="M-99.8,389.2c0,0-5.1-21.9,18.4-40.9c13.3-10.7,54.4-39.8,98.6-10C68,372.6,122.9,410.8,45.9,414
			S-91.8,418.1-99.8,389.2z"/>
		
			<linearGradient id="SVGID_10_" gradientUnits="userSpaceOnUse" x1="-100.3191" y1="528.0078" x2="84.1019" y2="528.0078" gradientTransform="matrix(1 0 0 -1 0 900)">
			<stop  offset="0" style="stop-color:#0D5E59"/>
			<stop  offset="0.25" style="stop-color:#0E655B"/>
			<stop  offset="0.48" style="stop-color:#10715E"/>
		</linearGradient>
		<path class="st10" d="M-99.8,390.8c0,0-5.1-21.9,18.4-40.9c13.3-10.7,54.4-39.8,98.6-10c50.8,34.2,105.7,72.5,28.8,75.7
			S-91.8,419.7-99.8,390.8z"/>
		<path class="st6" d="M87.5,410.7c10.9,1.5,12.8,1,55.3,0.9c9.1,0,47.6,0,125-2.5c32.6-1,81.6-8.5,95-14.6c4.5-2,13.4-7,13.7-20.5
			c0.7-30.7-26.2-48.4-34.6-57c-7.9-8-27.9-17.8-33.2-19.9c-64.7-26.2-117.3-34.1-117.3-34.1c-12.6-2.9-111.7-24.2-168.3,35.3
			c-5.2,5.5-37.2,38.8-27.8,67.6C6,399.3,65.3,407.6,87.5,410.7z"/>
		
			<linearGradient id="SVGID_11_" gradientUnits="userSpaceOnUse" x1="135.1816" y1="475.7788" x2="299.8616" y2="690.7988" gradientTransform="matrix(1 0 0 -1 0 900)">
			<stop  offset="4.000000e-02" style="stop-color:#0D6C59"/>
			<stop  offset="0.19" style="stop-color:#10735D"/>
			<stop  offset="0.41" style="stop-color:#198867"/>
			<stop  offset="0.67" style="stop-color:#27A977"/>
			<stop  offset="0.76" style="stop-color:#2CB67D"/>
		</linearGradient>
		<path class="st11" d="M85.7,413.6c10.9,1.5,12.8,1,55.3,0.9c9.1,0,47.6,0,125-2.5c32.6-1,81.6-8.5,95-14.6c4.5-2,13.3-7,13.7-20.5
			c0.7-30.7-26.2-48.4-34.7-57c-7.9-8-27.9-17.8-33.2-19.9C242.1,273.9,189.5,266,189.5,266c-12.5-2.9-111.7-24.2-168.3,35.3
			c-5.2,5.5-37.2,38.8-27.8,67.7C4.2,402.2,63.6,410.5,85.7,413.6z"/>
		<path class="st12" d="M209.6,540.9c0,0,0.3,23.1,13.2,55.3s26,55.1,13.5,70.7s-69.5,13-69.5,13S155.2,563.8,209.6,540.9z"/>
		
			<linearGradient id="SVGID_12_" gradientUnits="userSpaceOnUse" x1="813.1937" y1="159.4556" x2="1428.5537" y2="316.1457" gradientTransform="matrix(1 0 0 -1 0 900)">
			<stop  offset="0" style="stop-color:#1B8275"/>
			<stop  offset="0.77" style="stop-color:#179579"/>
		</linearGradient>
		<path class="st13" d="M787.9,677c0,0,50.4-64.9,151.2-33.5c38.6-44.7,94.4-46.7,130.9-2c14-38.6,48.3-27.4,94.4,1.5
			c45.1-22.8,89-0.5,103,11.7c74-37.5,75.1,8.1,84.7,15.2c42.9-17.3,70.8,7.1,70.8,7.1L787.9,677z"/>
		
			<linearGradient id="SVGID_13_" gradientUnits="userSpaceOnUse" x1="-76.5895" y1="156.0691" x2="269.1905" y2="332.789" gradientTransform="matrix(1 0 0 -1 0 900)">
			<stop  offset="0" style="stop-color:#137963"/>
			<stop  offset="0.77" style="stop-color:#2A8E63"/>
		</linearGradient>
		<path class="st14" d="M-135.5,676.3c0,0,41-31.9,74.4-15c20.3-15.9,31.5-15.5,64.3-4.9c-38.4-39.1,6.6,10.5-15-16.6
			s3.7-36.5,18.7,0c0,0,4,16.5,9.2,12.3c-4.9-19.9-1.1-2.4-5.6-23.7s8.7-41.5,12.9-10.8c1,31.1,2.1,34.2,2.1,34.2
			s11.7-0.1,10.9-12.6s-5-26.4-6.7-37.3s27.6-36.7,40.9,9.8c2.1,13.3,2.4,23.4,8.7,0.3c11.9-54.5,58-27.9,42.2,15
			c0,0,55.8-60.4,95-11.2c15.7,33.9-12.9,48.2-15.4,52.4c0,0,1.4,9.4,13.3-4.2c17.8-14.3,38.3,11.2,38.3,11.2L-135.5,676.3z"/>
		
			<linearGradient id="SVGID_14_" gradientUnits="userSpaceOnUse" x1="1011.2223" y1="155.2138" x2="1356.9823" y2="331.9138" gradientTransform="matrix(-0.74 0 0 -1 1121.54 900)">
			<stop  offset="0" style="stop-color:#137963"/>
			<stop  offset="0.77" style="stop-color:#2A8E63"/>
		</linearGradient>
		<path class="st15" d="M413.9,674.3c0,0-30.5-30.3-55.4-14.3c-15.1-15.1-23.5-14.7-47.9-4.7c28.6-37.2-4.9,10,11.2-15.8
			s-2.8-34.7-14,0c0,0-3,15.6-6.9,11.7c3.6-18.9,0.8-2.3,4.1-22.5s-6.5-39.4-9.6-10.3c-0.8,29.5-1.6,32.5-1.6,32.5s-8.7-0.1-8.1-12
			s3.7-25.1,5-35.4s-20.5-34.8-30.4,9.3c-1.6,12.6-1.8,22.2-6.5,0.3c-8.8-51.7-43.1-26.5-31.4,14.3c0,0-41.6-57.3-70.7-10.6
			c-11.7,32.2,9.6,45.8,11.4,49.7c0,0-1,9-9.9-4c-13.3-13.6-28.5,10.6-28.5,10.6L413.9,674.3z"/>
		
			<linearGradient id="SVGID_15_" gradientUnits="userSpaceOnUse" x1="274.9866" y1="646.1438" x2="474.3166" y2="845.6038" gradientTransform="matrix(0.96 -6.000000e-02 -3.000000e-02 -0.5 -145.08 540.3)">
			<stop  offset="0.42" style="stop-color:#8EB7DD"/>
			<stop  offset="0.43" style="stop-color:#90B9DE"/>
			<stop  offset="0.68" style="stop-color:#B9DBF0"/>
			<stop  offset="0.88" style="stop-color:#D2F0FB"/>
			<stop  offset="1" style="stop-color:#DBF8FF"/>
		</linearGradient>
		<path class="st16" d="M93,149.2c0,0,7.8-13.6,56.6-21.7s80.3-12.1,106.3,0.8s10.9,34.9-8.2,37.7s-98.2,5.3-145.1-3.3
			C102.5,162.7,85.8,158.8,93,149.2z"/>
		
			<linearGradient id="SVGID_16_" gradientUnits="userSpaceOnUse" x1="2097.9817" y1="632.0421" x2="2238.5117" y2="772.6721" gradientTransform="matrix(0.57 -4.000000e-02 -3.000000e-02 -0.5 -935.6 590.27)">
			<stop  offset="0.42" style="stop-color:#8EB7DD"/>
			<stop  offset="0.43" style="stop-color:#90B9DE"/>
			<stop  offset="0.68" style="stop-color:#B9DBF0"/>
			<stop  offset="0.88" style="stop-color:#D2F0FB"/>
			<stop  offset="1" style="stop-color:#DBF8FF"/>
		</linearGradient>
		<path class="st17" d="M231.1,160.4c0,0,3-9.4,23.2-14.3s33.4-7.1,44.4,2.5s5.2,24.8-2.8,26.4s-40.9,1.9-60.7-5
			C235.3,170.1,228.3,167,231.1,160.4z"/>
		
			<linearGradient id="SVGID_17_" gradientUnits="userSpaceOnUse" x1="818.8849" y1="-1258.0126" x2="978.5049" y2="-1098.2826" gradientTransform="matrix(0.69 -2.000000e-02 -2.000000e-02 -0.53 117.06 -194.7101)">
			<stop  offset="0.43" style="stop-color:#8EB7DD"/>
			<stop  offset="0.45" style="stop-color:#90B9DE"/>
			<stop  offset="0.69" style="stop-color:#B9DBF0"/>
			<stop  offset="0.88" style="stop-color:#D2F0FB"/>
			<stop  offset="1" style="stop-color:#DBF8FF"/>
		</linearGradient>
		<path class="st18" d="M699.8,403.6c0,0,5.8-13.9,40.8-20.2s57.6-9.1,76,5.7s7.3,37.2-6.4,39.2s-70.3,1.1-103.7-10.1
			C706.5,418.2,694.6,413.2,699.8,403.6z"/>
		
			<linearGradient id="SVGID_18_" gradientUnits="userSpaceOnUse" x1="2199.4629" y1="161.7131" x2="4727.6421" y2="161.7131" gradientTransform="matrix(-0.67 0 0 -1 3118.8701 900)">
			<stop  offset="0" style="stop-color:#0D5F3F"/>
			<stop  offset="7.000000e-02" style="stop-color:#206C39"/>
			<stop  offset="0.18" style="stop-color:#43842D"/>
			<stop  offset="0.34" style="stop-color:#4D832B"/>
			<stop  offset="0.63" style="stop-color:#698124"/>
			<stop  offset="0.96" style="stop-color:#917D1A"/>
		</linearGradient>
		<path class="st19" d="M-48.7,730l1.9-60h1692l-1.2,38.2l0.6,94.8c0,0-72.8-4-407-18S744,795,676.1,803s-192.2,3.4-170.8-22.3
			s-54-23.7-118.7-17.7s-157.1-15.6-274.8-3.8S-47.4,773-47.4,773v-43H-48.7z"/>
		
			<linearGradient id="SVGID_19_" gradientUnits="userSpaceOnUse" x1="5635.7349" y1="451.7514" x2="5759.4951" y2="961.3214" gradientTransform="matrix(-0.96 8.000000e-02 -9.000000e-02 -1 6868.9199 644.3)">
			<stop  offset="0" style="stop-color:#A3513F"/>
			<stop  offset="0.13" style="stop-color:#8E4C38"/>
			<stop  offset="0.41" style="stop-color:#573E27"/>
			<stop  offset="0.61" style="stop-color:#2C3319"/>
		</linearGradient>
		<path class="st20" d="M1365.4,295.2c0,0-26.8,21.8-23.8,49.7c0.5,4.9,1.5,20,11.7,25.7c7.1,4,15,1.5,16.2,1.1
			c14.8-4.9,22.1-25,29.2-44.8c5.8-16.1,8.1-28.5,16.5-30.6c1-0.3,4.3-1.1,6.5,0.8c6.9,5.8-1.8,32.7-12.6,52.2
			c-8.4,15.3-16.3,22.6-13.3,31.2c2.3,6.7,9.5,9.5,10.2,9.8c5.8,2.2,11.9,0.8,20.3-3.5c12-6.3,22.6-15,31.2-25.5
			c19.6-25.1,34.7-51.4,43.9-68.8l8.1,7.1c-3.9,8.5-7.8,17-11.7,25.5c1.5-3.2,8.4-17.1,23.7-22.1c5.1-1.6,10.6-2.1,15.9-1.4
			c-11.1,5.4-20.7,13.5-27.9,23.5c-9.6,13.7-9.3,23.7-18.7,42.7c-7,14.2-15.9,26.1-22.8,33.1c-23.7,24.4-58.2,26.8-75.7,26.6
			c-7.1,1.5-16.6,4.9-23.4,13.1c-13.8,16.4-8.3,41.5-1.4,71.3c11.3,49,38.5,107.4,49.9,119c10.6,10.8-111.4,37.4-145.5,29.7
			c-21.7,1.7-31.7-4.6-36.7-10c-30.3-32.8,41.6-116.1,11.7-201.6c-3.2-9.2-13.9-39.7-37.2-46.8c-13.7-4.1-19.2,3.7-38.2,3.3
			c-37-0.8-63.7-31.6-66-34.3c-20.9-24.7-29.6-62.2-29.6-62.2l0,0l16,1c1.3,6.6,8.8,41.3,35.3,52.7c3.1,1.4,17.6,7.6,25.6,0.8
			c11.2-9.5,1.4-37.6-0.2-40.2c-6-9.9-19.6-28.5-19.6-28.5l39.7,1.7c0.3,25,10.6,46.2,27.4,53.9c2.3,1,15.1,6.9,24.4,0.9
			c11.2-7.3,14.3-30.2,2.8-55.5l14-6.8c0,0,16.4,86.4,30.5,94.2c24.3,13.5,36.7-40.8,26.2-93.6l17-1.5c0,0-6,59.3,5.8,37.3
			s24.9-28.7,24.9-28.7l0,0"/>
		<path class="st6" d="M1021.2,231.3c0,0,32.7,6.2,175-5.1l-10.5-118.4c-3.4-0.8-28.3-4.5-88.3,20.7
			c-72.9,30.6-134.2,87.8-84.1,101.1"/>
		
			<linearGradient id="SVGID_20_" gradientUnits="userSpaceOnUse" x1="-7650.7617" y1="866.9232" x2="-7756.7017" y2="1081.6532" gradientTransform="matrix(0.96 -8.000000e-02 -9.000000e-02 -1 8559.5596 497.25)">
			<stop  offset="8.000000e-02" style="stop-color:#0D6C59"/>
			<stop  offset="0.76" style="stop-color:#2CB67D"/>
		</linearGradient>
		<path class="st21" d="M1021.8,233.5c0,0,32.7,6.2,175-5.1L1186.3,110c-3.4-0.8-28.3-4.5-88.3,20.7
			c-72.9,30.6-134.2,87.8-84.1,101.1"/>
		
			<linearGradient id="SVGID_21_" gradientUnits="userSpaceOnUse" x1="-8697.1172" y1="1599.0396" x2="-8803.0576" y2="1813.7795" gradientTransform="matrix(0.69 -6.000000e-02 -5.000000e-02 -0.59 7123.6299 725.21)">
			<stop  offset="8.000000e-02" style="stop-color:#0D6C59"/>
			<stop  offset="0.76" style="stop-color:#2CB67D"/>
		</linearGradient>
		<path class="st22" d="M950.3,285.2c0,0,23.5,3.3,126-5l-6.2-69.6c-2.5-0.4-20.3-2.3-63.8,13.2c-52.8,18.9-97.6,53.3-61.7,60.5"/>
		
			<linearGradient id="SVGID_22_" gradientUnits="userSpaceOnUse" x1="-11121.7686" y1="2069.1746" x2="-11227.708" y2="2283.9045" gradientTransform="matrix(0.42 -4.000000e-02 -4.000000e-02 -0.45 5747.8101 883.46)">
			<stop  offset="8.000000e-02" style="stop-color:#0D6C59"/>
			<stop  offset="0.76" style="stop-color:#2CB67D"/>
		</linearGradient>
		<path class="st23" d="M898.4,332.5c0,0,14.5,2.9,77.6-2.1l15.2-52.8c-1.5-0.4-32.6-3.3-59.2,8.1c-32.3,13.9-59.4,39.9-37.2,46"/>
		
			<linearGradient id="SVGID_23_" gradientUnits="userSpaceOnUse" x1="5855.9766" y1="863.9573" x2="5980.4565" y2="993.1873" gradientTransform="matrix(-0.96 8.000000e-02 -9.000000e-02 -1 6868.9199 644.3)">
			<stop  offset="0" style="stop-color:#0D5F3F"/>
			<stop  offset="0.16" style="stop-color:#07724A"/>
			<stop  offset="0.28" style="stop-color:#018455"/>
			<stop  offset="0.41" style="stop-color:#24995C"/>
			<stop  offset="0.56" style="stop-color:#43AC62"/>
			<stop  offset="0.68" style="stop-color:#56B766"/>
			<stop  offset="0.76" style="stop-color:#5DBB67"/>
		</linearGradient>
		<path class="st24" d="M1049.3,236.4c15.8,19.9,25.4,31.2,88.1,25.6s131.3-44.1,64.5-78.8c0,0-30.1-12.5-75.4-8.3"/>
		<path class="st6" d="M1203.9,74.7c-116.8,47.9-126.7,88.7-121.3,114.6c0,0,2.8,35.3,130.6,60.1l0,0c0,0,75.7,22.8,209.4-4.2
			c40.6-8.2,106.6-32.6,112.3-74.6c4.2-30.9-26.6-59.4-37.7-69.7C1406.4,17.1,1243.8,62.5,1203.9,74.7z"/>
		
			<linearGradient id="SVGID_24_" gradientUnits="userSpaceOnUse" x1="5580.5054" y1="799.8719" x2="5897.2354" y2="1154.9519" gradientTransform="matrix(-0.96 8.000000e-02 -9.000000e-02 -1 6868.9199 644.3)">
			<stop  offset="0.16" style="stop-color:#176862"/>
			<stop  offset="0.32" style="stop-color:#18716A"/>
			<stop  offset="0.56" style="stop-color:#1C887F"/>
			<stop  offset="0.76" style="stop-color:#209F95"/>
		</linearGradient>
		<path class="st25" d="M1207.8,75.2c-117.5,48.1-125.6,93.9-121.4,114.3c0,0,2.8,35.2,130.5,59.8l0,0c0,0,75.6,22.7,209.3-4.4
			c40.6-8.2,106.6-32.5,112.4-74.4c4.3-30.8-26.5-59.1-37.7-69.4C1410.3,17.7,1247.7,63,1207.8,75.2z"/>
		<path class="st6" d="M1618.2,259.1c0,0,3.8-28.6-27.2-50.4c-17.5-12.3-71.3-45.1-122.5-2.2c-58.7,49.3-122,104.1-27,100
			S1611.5,296.9,1618.2,259.1z"/>
		
			<linearGradient id="SVGID_25_" gradientUnits="userSpaceOnUse" x1="5402.8198" y1="838.2871" x2="5639.7998" y2="838.2871" gradientTransform="matrix(-0.96 8.000000e-02 -9.000000e-02 -1 6868.9199 644.3)">
			<stop  offset="0" style="stop-color:#0D5E59"/>
			<stop  offset="0.25" style="stop-color:#0E655B"/>
			<stop  offset="0.48" style="stop-color:#10715E"/>
		</linearGradient>
		<path class="st26" d="M1618.3,261.2c0,0,3.9-28.6-27.2-50.4c-17.5-12.3-71.3-45.1-122.5-2.2c-58.7,49.3-122,104.1-27,100
			S1611.7,298.9,1618.3,261.2z"/>
		<path class="st6" d="M1390,306.7c-13.3,3.1-15.6,2.6-68,7.1c-11.2,1-58.6,5.1-154.1,10.2c-40.2,2.2-101.4-2.1-118.5-8.5
			c-5.7-2.1-17.2-7.5-19.1-24.7c-4.3-39.3,26.8-64.8,36.3-76.7c8.8-11.1,32.4-25.7,38.7-29c76.7-40.4,140.5-56.2,140.5-56.2
			c15.2-5,134.8-42.9,211,27.2c7,6.4,50.1,45.6,41.8,83.6C1489,283.4,1416.9,300.4,1390,306.7z"/>
		
			<linearGradient id="SVGID_26_" gradientUnits="userSpaceOnUse" x1="5707.9482" y1="788.1989" x2="5919.5581" y2="1064.4889" gradientTransform="matrix(-0.96 8.000000e-02 -9.000000e-02 -1 6868.9199 644.3)">
			<stop  offset="4.000000e-02" style="stop-color:#0D6C59"/>
			<stop  offset="0.19" style="stop-color:#10735D"/>
			<stop  offset="0.41" style="stop-color:#198867"/>
			<stop  offset="0.67" style="stop-color:#27A977"/>
			<stop  offset="0.76" style="stop-color:#2CB67D"/>
		</linearGradient>
		<path class="st27" d="M1392.5,310.2c-13.3,3.1-15.6,2.6-68,7.1c-11.2,1-58.6,5.1-154.1,10.2c-40.2,2.2-101.4-2.1-118.5-8.5
			c-5.7-2.1-17.2-7.5-19.1-24.7c-4.3-39.3,26.8-64.8,36.3-76.7c8.8-11.1,32.4-25.7,38.7-29c76.7-40.4,140.5-56.2,140.5-56.2
			c15.2-5.1,134.8-43,211,27.2c7,6.4,50,45.6,41.8,83.6C1491.5,286.9,1419.4,303.9,1392.5,310.2z"/>
		
			<linearGradient id="SVGID_27_" gradientUnits="userSpaceOnUse" x1="10410.1318" y1="2170.1714" x2="10621.7422" y2="2446.4612" gradientTransform="matrix(-0.35 3.000000e-02 -4.000000e-02 -0.44 4782.1299 965.21)">
			<stop  offset="4.000000e-02" style="stop-color:#0D6C59"/>
			<stop  offset="0.19" style="stop-color:#10735D"/>
			<stop  offset="0.41" style="stop-color:#198867"/>
			<stop  offset="0.67" style="stop-color:#27A977"/>
			<stop  offset="0.76" style="stop-color:#2CB67D"/>
		</linearGradient>
		<path class="st28" d="M1087.8,334.5c-4.8,1.3-5.7,1-24.7,2.7c-4.1,0.4-21.3,1.8-56,3.5c-14.6,0.7-36.9-1.6-43.2-4.5
			c-2.1-1-6.3-3.4-7.1-10.9c-1.8-17.2,9.3-28.2,12.7-33.3c3.2-4.8,11.6-11,13.9-12.5c27.6-17.2,50.8-23.7,50.8-23.7
			c5.5-2.1,48.8-17.9,76.9,13.3c2.6,2.9,18.5,20.3,15.7,36.9C1123.7,324.9,1097.6,331.9,1087.8,334.5z"/>
		<path class="st12" d="M1254.2,486.4c0,0,2.3,29.6-10.1,72.2s-25.8,73.3-8.8,91.9s87,9.2,87,9.2S1323.7,510,1254.2,486.4z"/>
		
			<linearGradient id="SVGID_28_" gradientUnits="userSpaceOnUse" x1="6397.3169" y1="187.9418" x2="7007.627" y2="491.6818" gradientTransform="matrix(-0.7 0 0 -1 6049.7998 900)">
			<stop  offset="1.000000e-02" style="stop-color:#1C6C54"/>
			<stop  offset="0.77" style="stop-color:#4E8846"/>
		</linearGradient>
		<path class="st29" d="M1611.9,427.3c0,0-26,8.8-12.5,43.3c-72.5-38-114.6-3.5-111,42.4c-74.3-8-94.9,74.3-66.2,92.8
			c0,0-61.8-36.3-119,14.1c-57.3-44.2-193.3,19.5-228.2,52.2l530,1.8L1611.9,427.3z"/>
	</g>
</g>
</svg>
