<?xml version="1.0" encoding="utf-8"?>
<!-- Generator: Adobe Illustrator 25.2.3, SVG Export Plug-In . SVG Version: 6.00 Build 0)  -->
<svg version="1.1" id="Layer_1" xmlns="http://www.w3.org/2000/svg" xmlns:xlink="http://www.w3.org/1999/xlink" x="0px" y="0px"
	 viewBox="0 0 1600 900" style="enable-background:new 0 0 1600 900;" xml:space="preserve">
<style type="text/css">
	.st0{clip-path:url(#SVGID_2_);}
	.st1{fill:url(#SVGID_3_);}
	.st2{fill:url(#SVGID_4_);}
	.st3{fill:url(#SVGID_5_);}
	.st4{fill:url(#SVGID_6_);}
	.st5{fill:url(#SVGID_7_);}
	.st6{fill:url(#SVGID_8_);}
	.st7{fill:#995145;}
	.st8{fill:#633D35;}
	.st9{fill:url(#SVGID_9_);}
	.st10{fill:#6ABC46;}
	.st11{fill:url(#SVGID_10_);}
	.st12{fill:url(#SVGID_11_);}
	.st13{fill:url(#SVGID_12_);}
	.st14{fill:url(#SVGID_13_);}
	.st15{fill:url(#SVGID_14_);}
	.st16{fill:url(#SVGID_15_);}
	.st17{fill:url(#SVGID_16_);}
	.st18{fill:url(#SVGID_17_);}
	.st19{fill:url(#SVGID_18_);}
	.st20{fill:url(#SVGID_19_);}
	.st21{fill:url(#SVGID_20_);}
	.st22{fill:url(#SVGID_21_);}
	.st23{fill:url(#SVGID_22_);}
	.st24{fill:url(#SVGID_23_);}
	.st25{fill:url(#SVGID_24_);}
	.st26{fill:url(#SVGID_25_);}
	.st27{fill:url(#SVGID_26_);}
	.st28{fill:#3FB72C;}
	.st29{fill:#51B840;}
	.st30{fill:url(#SVGID_27_);}
	.st31{fill:url(#SVGID_28_);}
	.st32{fill:url(#SVGID_29_);}
</style>
<g>
	<defs>
		<rect id="SVGID_1_" width="1600" height="900"/>
	</defs>
	<clipPath id="SVGID_2_">
		<use xlink:href="#SVGID_1_"  style="overflow:visible;"/>
	</clipPath>
	<g class="st0">
		
			<linearGradient id="SVGID_3_" gradientUnits="userSpaceOnUse" x1="829.96" y1="-121.22" x2="798.4999" y2="1779.7201" gradientTransform="matrix(1 0 0 -1 0 900)">
			<stop  offset="9.000000e-02" style="stop-color:#CBE9F6"/>
			<stop  offset="0.24" style="stop-color:#CFE8F3"/>
			<stop  offset="0.36" style="stop-color:#9CD6E9"/>
			<stop  offset="0.46" style="stop-color:#7ACAE2"/>
			<stop  offset="0.51" style="stop-color:#6DC5E0"/>
		</linearGradient>
		<rect x="-17.5" y="-2.6" class="st1" width="1675.9" height="898.4"/>
		
			<linearGradient id="SVGID_4_" gradientUnits="userSpaceOnUse" x1="-47.5887" y1="48.3767" x2="1588.6012" y2="696.3066" gradientTransform="matrix(1 0 0 -1 0 900)">
			<stop  offset="9.000000e-02" style="stop-color:#6EC0D3"/>
			<stop  offset="0.45" style="stop-color:#6CC0D3"/>
			<stop  offset="0.62" style="stop-color:#6DC1D5"/>
			<stop  offset="0.69" style="stop-color:#72C5DC"/>
			<stop  offset="0.72" style="stop-color:#78C9E3"/>
		</linearGradient>
		<path class="st2" d="M-606.5,392.9c147.7-32.2,247.5-49.6,454.2-4.3C-33.4,419.4-26,450.3,31.9,440c57.3-10.2,70.7-44.1,182-115.1
			c58.1-37.1,108.6-62.4,131.5-73c329.8-130.4,645.5-20.8,847.4,294.5C1257,506,1541.2,376,1638.3,437.5
			c14.9,31.7-78.7,86.7-64.3,118.8c18,40.4,187.1-2,243.9-11.7c149.2-25.4,263.1-82.3,334.4-125.2c273.3-164,14.8-8.6,14.8-8.6
			c2.1,80.5,4.1,161,6.1,241.6L-526,649.5C-552.9,564-579.7,478.4-606.5,392.9z"/>
		
			<linearGradient id="SVGID_5_" gradientUnits="userSpaceOnUse" x1="800.5309" y1="1102.9711" x2="2075.6011" y2="81.0311" gradientTransform="matrix(1 0 0 -1 0 900)">
			<stop  offset="0.49" style="stop-color:#93D4EB"/>
			<stop  offset="0.57" style="stop-color:#8DD1E8"/>
			<stop  offset="0.67" style="stop-color:#7DC9DF"/>
			<stop  offset="0.74" style="stop-color:#6EC2D6"/>
			<stop  offset="0.88" style="stop-color:#6FC2D7"/>
		</linearGradient>
		<path class="st3" d="M987,663.4c133.5-94,327.7-115.4,451.7-141.1c168.6-50.1,167-148.6,343.3-246.9c81-45.2,206-93.9,389.8-96.3
			c-1.6,159.3-3.2,318.7-4.9,478L987,663.4z"/>
		
			<linearGradient id="SVGID_6_" gradientUnits="userSpaceOnUse" x1="421.0456" y1="1154.9595" x2="381.7457" y2="-87.3105" gradientTransform="matrix(1 0 0 -1 0 900)">
			<stop  offset="9.000000e-02" style="stop-color:#60C6CA"/>
			<stop  offset="0.24" style="stop-color:#59BFC1"/>
			<stop  offset="0.55" style="stop-color:#57BFBF"/>
			<stop  offset="0.64" style="stop-color:#5FC3C6"/>
			<stop  offset="0.7" style="stop-color:#67C7CC"/>
		</linearGradient>
		<path class="st4" d="M-432.1,649.6c0,0,677-480.3,1649-46.3v46.3H-432.1z"/>
		
			<linearGradient id="SVGID_7_" gradientUnits="userSpaceOnUse" x1="-126.0206" y1="-68.7445" x2="1057.2294" y2="697.3955" gradientTransform="matrix(1 0 0 -1 0 900)">
			<stop  offset="9.000000e-02" style="stop-color:#249971"/>
			<stop  offset="0.29" style="stop-color:#21A57D"/>
			<stop  offset="0.45" style="stop-color:#1DB28A"/>
			<stop  offset="0.64" style="stop-color:#1FB38C"/>
			<stop  offset="0.71" style="stop-color:#26B692"/>
			<stop  offset="0.73" style="stop-color:#29B895"/>
		</linearGradient>
		<path class="st5" d="M-526,554.8c0,0,511.5-150.4,804.8-14.6c345.1,224.5,465.1-110.4,1101.3,126.3L-526,663.4V554.8z"/>
		
			<linearGradient id="SVGID_8_" gradientUnits="userSpaceOnUse" x1="-60.7507" y1="156.8302" x2="95.9493" y2="802.0002" gradientTransform="matrix(1 0 0 -1 0 900)">
			<stop  offset="0" style="stop-color:#A5533D"/>
			<stop  offset="0.24" style="stop-color:#7B533F"/>
			<stop  offset="0.55" style="stop-color:#415441"/>
		</linearGradient>
		<path class="st6" d="M-21.7,270.8C53.2,329.4-9,456.7-59.2,319.7c-10.2-23.8-14-48.4-31.5-39.2c-7.9,9,5.7,46,21,72.1
			c12,20.5,22.4,29.9,19.7,42.3c-7,19.5-20.3,20.5-36.8,12.5c-57.6-32.5-76.3-85.2-102.4-123.8l-9.2,11l17.1,34.5
			c-4.1-11.7-27.8-36.2-51.2-28.2c56.5,24,50.4,90.1,95.9,131.6c52.1,50.8,94,9.7,126,43.9c25.5,51.4,13.3,99.9-23.6,238.9
			l147.1,0.8c17.9,7.6,51.3,19.5,60.9,4.5c4.8-7.6,1.8-19.2,0.5-24.4c-21.6-93.5-43.2-146-33.8-222.9c1.3-6.9,10.9-56.9,40.7-70.5
			c16.4-7.5,24,2.9,47.3,0c84-14.5,102.7-117,107.2-147.8l-19.5,3.4c-0.9,9.5-6.4,59.3-37.7,78.6c-3.7,2.3-20.9,12.8-31.4,4.3
			c-24.8-31,8.8-82.5,17-99.3l-48.7,7.3c10.2,97.4-98.9,128-67.2,5.8l-17.9-7.8c0,0-11,123.9-27.4,136.6
			c-28.5,22-49.5-53-42.1-128.8H39.4c11.2,97.8,7.7,53.5-36.9,15.9"/>
		<path class="st7" d="M138.3,551C98,562.7,67.6,657.8,75.7,721.3l100.6-14.4c-14.9-59.3-20-80.9-31-129.5
			C142.1,559.5,142.1,552.9,138.3,551z"/>
		<path class="st8" d="M128.3,663.7c-0.9,0.2-1.9,0.1-2.8-0.1c-0.9-0.2-1.8-0.5-2.7-0.8c-1.7-0.8-3.4-1.7-4.8-2.9
			c-1.5-1.2-2.8-2.6-3.9-4.3c-0.5-0.9-0.9-1.8-1.2-2.8c-0.2-1-0.3-2.1-0.1-3.1c0.2-1,0.7-2,1.3-2.9c0.6-0.8,1.3-1.5,2.2-2.1
			c1.6-1.2,3.4-2.1,5.3-2.7c2-0.5,4.1-0.4,6.1,0.1c1.9,0.5,3.8,1.2,5.5,2.3c1.7,1,3.3,2.1,4.7,3.4c1.4,1.3,2.8,2.7,4,4.2
			c2.5,3,4.5,6.4,5.9,10c1.5,3.7,2,7.8,1.5,11.8c-0.4,2-1.1,4-2.1,5.8c-1.1,1.8-2.5,3.3-4.1,4.6c-3.2,2.4-6.9,4-10.8,4.8
			c-3.8,0.9-7.7,1.3-11.6,1c-8-0.5-15.3-4.4-20.2-10.8c-2.3-3.1-4.1-6.6-5.1-10.4c-1-3.7-1.4-7.5-1.3-11.4c0.2-3.8,0.9-7.5,2.1-11.1
			c1.1-3.6,2.7-7,4.7-10.2c-3.4,6.6-5.2,13.9-5.1,21.3c0.1,7.3,2.3,14.6,6.8,20.1c4.5,5.5,11.2,8.9,18.3,9.2c3.6,0.2,7.1-0.1,10.6-1
			c3.4-0.7,6.7-2.1,9.5-4.2c1.3-1,2.5-2.2,3.3-3.7c0.8-1.4,1.4-3,1.7-4.6c0.5-3.4,0-6.9-1.2-10.2c-1.2-3.4-3-6.5-5.2-9.3
			c-2.2-2.8-4.8-5.3-7.8-7.2c-2.9-1.9-6.4-3-9.7-2.5c-1.7,0.4-3.3,1.1-4.7,2.1c-0.7,0.5-1.3,1-1.9,1.7c-0.5,0.6-0.9,1.4-1.1,2.1
			c-0.3,1.7-0.1,3.4,0.8,4.9c0.9,1.6,2,3,3.3,4.2c1.4,1.2,2.9,2.3,4.5,3.2C124.6,663.3,126.5,663.7,128.3,663.7z"/>
		
			<linearGradient id="SVGID_9_" gradientUnits="userSpaceOnUse" x1="195.3386" y1="703.7114" x2="364.3586" y2="879.2014" gradientTransform="matrix(1 0 0 -1 0 900)">
			<stop  offset="0" style="stop-color:#0D5F3F"/>
			<stop  offset="0.16" style="stop-color:#06724B"/>
			<stop  offset="0.28" style="stop-color:#008355"/>
			<stop  offset="0.42" style="stop-color:#24985C"/>
			<stop  offset="0.56" style="stop-color:#43A961"/>
			<stop  offset="0.68" style="stop-color:#56B465"/>
			<stop  offset="0.76" style="stop-color:#5DB866"/>
		</linearGradient>
		<path class="st9" d="M167.3,92.8c0,0,35.7-21.3,91.7-21s118.9,47.4,101.5,77.3C349,235.1,41.5,192.9,167.3,92.8z"/>
		<path class="st10" d="M153.3-60.1c200.1,81.3,232.7,173.7,7.3,247.7c14.7,13.6-376.8,74.9-404.1-73
			C-232.9-104.6,77.7-88.7,153.3-60.1z"/>
		
			<linearGradient id="SVGID_10_" gradientUnits="userSpaceOnUse" x1="-140.9719" y1="632.5017" x2="251.5581" y2="1072.5817" gradientTransform="matrix(1 0 0 -1 0 900)">
			<stop  offset="0" style="stop-color:#0D5F3F"/>
			<stop  offset="0.27" style="stop-color:#157D66"/>
			<stop  offset="0.43" style="stop-color:#198A77"/>
			<stop  offset="0.76" style="stop-color:#1FA98A"/>
		</linearGradient>
		<path class="st11" d="M148.6-58.9c200,81,232.9,173.1,7.4,246.7c14.5,13.6-376.5,74.4-404.1-72.9
			C-237.6-103.6,73.4-87.3,148.6-58.9z"/>
		<path class="st10" d="M440,240.7c0,0-39.5,12.8-215.7,14.3l0.3-168.4c39.4-28,325.5,98.7,225,150.6"/>
		
			<linearGradient id="SVGID_11_" gradientUnits="userSpaceOnUse" x1="-2069.0513" y1="658.0445" x2="-2207.3013" y2="938.2745" gradientTransform="matrix(-1 0 0 -1 -1765.14 900)">
			<stop  offset="0" style="stop-color:#0D5F3F"/>
			<stop  offset="5.000000e-02" style="stop-color:#06724B"/>
			<stop  offset="9.000000e-02" style="stop-color:#008355"/>
			<stop  offset="0.26" style="stop-color:#24985C"/>
			<stop  offset="0.43" style="stop-color:#43A961"/>
			<stop  offset="0.57" style="stop-color:#56B465"/>
			<stop  offset="0.67" style="stop-color:#5DB866"/>
		</linearGradient>
		<path class="st12" d="M439.5,243.8c0,0-39.5,12.8-215.7,14.3l0.3-168.4c39.4-28,325.5,98.7,225,150.6"/>
		
			<linearGradient id="SVGID_12_" gradientUnits="userSpaceOnUse" x1="-193.3822" y1="748.6866" x2="390.8494" y2="748.6866" gradientTransform="matrix(1 0 0 -1 0 900)">
			<stop  offset="0" style="stop-color:#0D5F3F"/>
			<stop  offset="6.000000e-02" style="stop-color:#06724C"/>
			<stop  offset="9.000000e-02" style="stop-color:#008055"/>
			<stop  offset="0.23" style="stop-color:#1B9261"/>
			<stop  offset="0.41" style="stop-color:#3AA66F"/>
			<stop  offset="0.57" style="stop-color:#4DB378"/>
			<stop  offset="0.67" style="stop-color:#54B77B"/>
		</linearGradient>
		<path class="st13" d="M-50.7,290.1c58.3,1.2,315.7,11.8,419.7-29.4c57.1-35.6-13.7-127.8-32-141C284.8,61.5,97,17.5,107.6,21.5
			C88.4,16.2-62.7-22.6-148.9,85.7C-238.9,194.6-185.4,274.1-50.7,290.1z"/>
		
			<linearGradient id="SVGID_13_" gradientUnits="userSpaceOnUse" x1="-237.0401" y1="721.5118" x2="454.7399" y2="769.3818" gradientTransform="matrix(1 0 0 -1 0 900)">
			<stop  offset="0.21" style="stop-color:#0E6747"/>
			<stop  offset="0.35" style="stop-color:#157A55"/>
			<stop  offset="0.55" style="stop-color:#20996C"/>
			<stop  offset="0.61" style="stop-color:#2B9F6D"/>
			<stop  offset="0.71" style="stop-color:#48AE71"/>
			<stop  offset="0.8" style="stop-color:#66BE74"/>
		</linearGradient>
		<path class="st14" d="M-53.3,295.4C5,296.6,262.4,307.1,366.3,266c57.1-35.6-13.7-127.8-32-141C282.1,66.8,94.3,22.8,104.9,26.7
			C85.8,21.5-65.4-17.3-151.6,91C-241.6,199.9-188.1,279.4-53.3,295.4z"/>
		
			<linearGradient id="SVGID_14_" gradientUnits="userSpaceOnUse" x1="1404.1648" y1="258.7564" x2="1467.6147" y2="520.0164" gradientTransform="matrix(1 0 0 -1 0 900)">
			<stop  offset="0" style="stop-color:#A5533D"/>
			<stop  offset="0.24" style="stop-color:#7B533F"/>
			<stop  offset="0.55" style="stop-color:#415441"/>
		</linearGradient>
		<path class="st15" d="M1414.5,454c34.6,22,6.7,73.6-17.6,19.2c-5.1-9.8-6.4-18.8-14.8-15.4c-3.7,3.5,2.7,18,9.8,28.3
			c5.6,8,10.5,11.7,9.2,16.6c-4.2,8.4-9.1,7.7-17.2,4.9c-26.1-12.1-35.6-33-48-48.6l-4.3,4.3c2.7,4.5,5.3,9,8,13.5
			c-1.8-4.9-14.2-14.4-24-11.1c16.6,5.6,21.5,17.9,30.2,34.5c28.5,43.8,53.3,18.4,73.8,34.4c11.9,20,6.3,39.3-11,93.8l68.9,0.3
			c11.4,4.6,35.3,9.7,28.7-7.8c-10.1-36.6-20.2-57.1-15.9-87.5c0.6-2.7,5.1-22.3,19.1-27.7c7.7-3,11.2,1.1,22.2,0
			c37.6-5.2,47.8-43.3,50.2-58l-9.2,1.3c-4.7,45.6-60.7,46.3-24.4-6.5l-22.8,2.9c5,37.9-46.3,50.5-31.5,2.3l-8.4-3.1
			c0,0-5.1,48.6-12.8,53.6c-13.3,8.6-23.2-20.8-19.8-50.6h-9.9c5.3,38.2,3.7,21.2-17.3,6.2"/>
		<path class="st7" d="M1489.5,563.9c-17.9,4.2-33.2,40.3-29.3,66.9l47.1-5.7c-7-23.3-9.4-31.8-14.6-50.8
			C1491.2,567.3,1491.3,564.7,1489.5,563.9z"/>
		<path class="st8" d="M1484.8,608.2c-0.8,0.1-1.6,0-2.4-0.3c-0.8-0.2-1.5-0.6-2.2-1c-0.7-0.4-1.3-1-1.9-1.6
			c-0.6-0.7-0.9-1.6-0.8-2.5c0.2-0.9,0.8-1.6,1.6-2.1c0.7-0.5,1.5-0.8,2.3-1c1.7-0.4,3.4-0.2,5,0.6c3.1,1.3,5.6,3.7,7.2,6.7
			c0.8,1.5,1.2,3.3,0.9,5.1c-0.1,0.9-0.5,1.7-1,2.5c-0.5,0.7-1.2,1.3-1.9,1.8c-1.4,0.9-3,1.5-4.7,1.8c-0.8,0.1-1.6,0.3-2.4,0.4
			l-2.5,0.1c-3.4,0-6.6-1.2-9.2-3.4c-1.3-1.1-2.3-2.5-3-4c-0.3-0.8-0.6-1.6-0.7-2.4l-0.2-1.2v-1.2c0-3.3,1.1-6.4,3.1-9
			c-1.7,2.7-2.5,5.8-2.4,9l0.1,1.2l0.3,1.1c0.2,0.7,0.5,1.5,0.8,2.2c0.7,1.4,1.7,2.6,2.8,3.5c2.4,1.9,5.4,2.9,8.5,2.9l2.3-0.1
			c0.8-0.1,1.5-0.3,2.3-0.4c1.5-0.3,2.9-0.8,4.2-1.6c1.2-0.7,2.1-1.9,2.4-3.3c0.2-1.4-0.1-2.9-0.8-4.2c-1.4-2.7-3.6-5-6.4-6.3
			c-2-1.1-4.5-1.1-6.4,0.1c-0.6,0.3-1.1,0.9-1.3,1.5c-0.1,0.7,0.1,1.4,0.5,2c0.5,0.6,1,1.2,1.7,1.6c0.6,0.5,1.3,0.8,2.1,1.2
			C1483.3,608.1,1484,608.2,1484.8,608.2z"/>
		
			<linearGradient id="SVGID_15_" gradientUnits="userSpaceOnUse" x1="1517.0371" y1="471.6132" x2="1593.587" y2="551.0932" gradientTransform="matrix(1 0 0 -1 0 900)">
			<stop  offset="0" style="stop-color:#0D5F3F"/>
			<stop  offset="0.16" style="stop-color:#06724B"/>
			<stop  offset="0.28" style="stop-color:#008355"/>
			<stop  offset="0.42" style="stop-color:#24985C"/>
			<stop  offset="0.56" style="stop-color:#43A961"/>
			<stop  offset="0.68" style="stop-color:#56B465"/>
			<stop  offset="0.76" style="stop-color:#5DB866"/>
		</linearGradient>
		<path class="st16" d="M1503.1,384.1c0,0,16.7-8.4,43-8.3s55.7,18.6,47.6,30.4C1589,439.3,1444.3,424.2,1503.1,384.1z"/>
		<path class="st10" d="M1496.5,324.1c70.1,21,77,46.1,75.6,57.6c0,0,0.1,19.7-72.2,39.6c10.4,4.3-174.8,30.6-189.4-28.7
			C1315.8,303.8,1469.1,314.3,1496.5,324.1z"/>
		
			<linearGradient id="SVGID_16_" gradientUnits="userSpaceOnUse" x1="1362.8228" y1="436.1475" x2="1539.2328" y2="633.9175" gradientTransform="matrix(1 0 0 -1 0 900)">
			<stop  offset="0" style="stop-color:#0D5F3F"/>
			<stop  offset="0.27" style="stop-color:#157D66"/>
			<stop  offset="0.43" style="stop-color:#198A77"/>
			<stop  offset="0.76" style="stop-color:#1FA98A"/>
		</linearGradient>
		<path class="st17" d="M1494.3,324.5c70.1,21,77.1,46,75.6,57.4c0,0,0.2,19.6-72.2,39.4l0,0c8.8,4.6-175.3,30-189.4-28.6
			C1313.5,304.3,1467.2,314.8,1494.3,324.5z"/>
		
			<linearGradient id="SVGID_17_" gradientUnits="userSpaceOnUse" x1="1292.5203" y1="405.9198" x2="1374.5802" y2="508.2598" gradientTransform="matrix(1 0 0 -1 0 900)">
			<stop  offset="0" style="stop-color:#0D5F3F"/>
			<stop  offset="0.33" style="stop-color:#0C7151"/>
			<stop  offset="0.34" style="stop-color:#0C7151"/>
			<stop  offset="0.76" style="stop-color:#077458"/>
		</linearGradient>
		<path class="st18" d="M1267.1,446.2c-4.9-24.8,41.8-63.4,83.6-36.4c36.3,24.5,75.5,51.8,20.5,54.1S1272.9,466.8,1267.1,446.2z"/>
		
			<linearGradient id="SVGID_18_" gradientUnits="userSpaceOnUse" x1="1292.5356" y1="404.7775" x2="1374.5956" y2="507.1175" gradientTransform="matrix(1 0 0 -1 0 900)">
			<stop  offset="4.000000e-02" style="stop-color:#0D5E3F"/>
			<stop  offset="0.45" style="stop-color:#0D6F4F"/>
			<stop  offset="0.62" style="stop-color:#0B7455"/>
			<stop  offset="0.75" style="stop-color:#077B5E"/>
		</linearGradient>
		<path class="st19" d="M1267.1,447.3c-4.9-24.8,41.9-63.3,83.6-36.3c36.3,24.5,75.5,51.8,20.5,54.1S1272.9,467.9,1267.1,447.3z"/>
		<path class="st10" d="M1630.8,442.1c0,0-18.5,5-101.1,5.6l0.1-66.1c13.7-11.3,152.9,37.2,105.4,59.1"/>
		
			<linearGradient id="SVGID_19_" gradientUnits="userSpaceOnUse" x1="-3334.1809" y1="455.0794" x2="-3392.6211" y2="573.5295" gradientTransform="matrix(-1 0 0 -1 -1765.14 900)">
			<stop  offset="0" style="stop-color:#0D5F3F"/>
			<stop  offset="5.000000e-02" style="stop-color:#06724B"/>
			<stop  offset="9.000000e-02" style="stop-color:#008355"/>
			<stop  offset="0.26" style="stop-color:#24985C"/>
			<stop  offset="0.43" style="stop-color:#43A961"/>
			<stop  offset="0.57" style="stop-color:#56B465"/>
			<stop  offset="0.67" style="stop-color:#5DB866"/>
		</linearGradient>
		<path class="st20" d="M1630.6,443.4c0,0-18.5,5-101.1,5.6l0.1-66.1c13.7-11.3,152.9,37.2,105.4,59.1"/>
		
			<linearGradient id="SVGID_20_" gradientUnits="userSpaceOnUse" x1="1333.9651" y1="492.9271" x2="1607.3704" y2="492.9271" gradientTransform="matrix(1 0 0 -1 0 900)">
			<stop  offset="0" style="stop-color:#0D5F3F"/>
			<stop  offset="6.000000e-02" style="stop-color:#06724C"/>
			<stop  offset="9.000000e-02" style="stop-color:#008055"/>
			<stop  offset="0.23" style="stop-color:#1B9261"/>
			<stop  offset="0.41" style="stop-color:#3AA66F"/>
			<stop  offset="0.57" style="stop-color:#4DB378"/>
			<stop  offset="0.67" style="stop-color:#54B77B"/>
		</linearGradient>
		<path class="st21" d="M1400.9,461.5c38.3,1.7,50.1,0.7,128.8-1.1c23.3-0.7,58.3-6,67.8-10.4c3.2-1.5,9.5-5,9.8-14.6
			c0.5-22-18.7-34.6-24.8-40.8c-26.3-23.7-112.4-39.9-107.5-38.6c-9-2.1-79.8-17.3-120.2,25.2C1308,429.5,1347.2,456.4,1400.9,461.5
			z"/>
		
			<linearGradient id="SVGID_21_" gradientUnits="userSpaceOnUse" x1="1313.7598" y1="480.3628" x2="1637.6798" y2="502.7828" gradientTransform="matrix(1 0 0 -1 0 900)">
			<stop  offset="0.21" style="stop-color:#0E6747"/>
			<stop  offset="0.35" style="stop-color:#157A55"/>
			<stop  offset="0.55" style="stop-color:#20996C"/>
			<stop  offset="0.61" style="stop-color:#2B9F6D"/>
			<stop  offset="0.71" style="stop-color:#48AE71"/>
			<stop  offset="0.8" style="stop-color:#66BE74"/>
		</linearGradient>
		<path class="st22" d="M1399.7,463.6c38.3,1.7,50.1,0.7,128.8-1.1c23.3-0.7,58.3-6,67.8-10.4c3.2-1.5,9.5-5,9.8-14.6
			c0.5-22-18.7-34.6-24.8-40.8c-26.3-23.7-112.4-39.9-107.5-38.6c-9-2.1-79.8-17.3-120.2,25.2
			C1306.8,431.5,1345.9,458.5,1399.7,463.6z"/>
		
			<linearGradient id="SVGID_22_" gradientUnits="userSpaceOnUse" x1="-300.8209" y1="157.0018" x2="514.009" y2="567.3818" gradientTransform="matrix(1 0 0 -1 0 900)">
			<stop  offset="0.13" style="stop-color:#16595A"/>
			<stop  offset="0.21" style="stop-color:#226456"/>
			<stop  offset="0.34" style="stop-color:#3C7C4C"/>
			<stop  offset="0.34" style="stop-color:#3C7C4C"/>
			<stop  offset="0.55" style="stop-color:#4C8648"/>
			<stop  offset="0.72" style="stop-color:#528A46"/>
		</linearGradient>
		<path class="st23" d="M-247.4,420.8c0,0,110.5-30.9,85.7,45.9c80.3-45.2,126.4-3.4,115.8,39.5c61.4-6.8,115.8,79,72.1,102.7
			c0,0,62.6-31.6,125.2,15.8c71.4-31.3,196.8,0.4,244.7,62.7c-214.5-5.3-429-7.4-643.5-6.2L-247.4,420.8z"/>
		
			<linearGradient id="SVGID_23_" gradientUnits="userSpaceOnUse" x1="847.1017" y1="-44.3234" x2="2268.7117" y2="671.6466" gradientTransform="matrix(1 0 0 -1 -0.46 900.61)">
			<stop  offset="0.1" style="stop-color:#177E70"/>
			<stop  offset="0.34" style="stop-color:#178877"/>
			<stop  offset="0.5" style="stop-color:#169078"/>
			<stop  offset="0.72" style="stop-color:#169679"/>
		</linearGradient>
		<path class="st24" d="M852.3,663.1c0,0,79.7-73.7,223.1-35.8c74.9-57.8,194.4,0,194.4,0c22.3-73.7,130.7,5.1,130.7,5.1
			s25.5-37,154.6-2.9c105.2-16.9,130.7,22.8,130.7,22.8c44.6,1.8,283.7,10.9,283.7,10.9L852.3,663.1z"/>
		
			<linearGradient id="SVGID_24_" gradientUnits="userSpaceOnUse" x1="-77.79" y1="67.465" x2="1658.38" y2="67.465" gradientTransform="matrix(1 0 0 -1 0 900)">
			<stop  offset="0.19" style="stop-color:#4EA40F"/>
			<stop  offset="0.21" style="stop-color:#4CA40F"/>
			<stop  offset="0.66" style="stop-color:#2C9B0A"/>
			<stop  offset="0.91" style="stop-color:#209808"/>
		</linearGradient>
		<polygon class="st25" points="-75.8,939.8 1658.4,931.6 1656.3,734.4 -77.8,725.3 		"/>
		
			<linearGradient id="SVGID_25_" gradientUnits="userSpaceOnUse" x1="-527.88" y1="138.555" x2="2248.55" y2="138.555" gradientTransform="matrix(1 0 0 -1 0 900)">
			<stop  offset="0.19" style="stop-color:#2A7717"/>
			<stop  offset="0.21" style="stop-color:#2A7A19"/>
			<stop  offset="0.44" style="stop-color:#2C9327"/>
			<stop  offset="0.66" style="stop-color:#2DA22F"/>
			<stop  offset="0.83" style="stop-color:#2DA732"/>
		</linearGradient>
		<path class="st26" d="M-527.9,723.3v76.2c217.3-21,1528.9-28.9,1819.9-7.2c31.1-5.2,46.3-15.4,27-30.7s26.3-20.5,102.4-20.5
			c247.6-4.9,625.3-9.5,827.2,3.4v-21.3"/>
		
			<linearGradient id="SVGID_26_" gradientUnits="userSpaceOnUse" x1="-566" y1="202.0017" x2="2356.5701" y2="212.6117" gradientTransform="matrix(1 0 0 -1 0 900)">
			<stop  offset="0.19" style="stop-color:#2A7717"/>
			<stop  offset="0.21" style="stop-color:#2A7A19"/>
			<stop  offset="0.44" style="stop-color:#2C9327"/>
			<stop  offset="0.66" style="stop-color:#2DA22F"/>
			<stop  offset="0.83" style="stop-color:#2DA732"/>
		</linearGradient>
		<rect x="-526" y="662.7" class="st27" width="2693" height="60.5"/>
		<path class="st28" d="M93.5,762.9c0,0-27.3-40.3-11.2-26.7s15.1,26.7,15.1,26.7c-7.6-31.9,19.9-39.5,2.4,0c0,0,7.2-20.6,22.1-18.1
			s-19.6,18.1-19.6,18.1"/>
		<path class="st28" d="M285.8,752.1c0,0-34.5-6.5-21.5-13.5s24.5,13.5,24.5,13.5c-22.6-29.8,13.5-37.7,3.3,0
			c22.1-39.1,37.1-17.3,3.6,0"/>
		<path class="st29" d="M1523,756.6c0,0,7.2-34,22.8-32.5S1523,756.6,1523,756.6z"/>
		<path class="st29" d="M1495.3,754.7c0,0-28-35-27-45S1502.6,737.3,1495.3,754.7z"/>
		<path class="st29" d="M1510.3,754.6c0,0-19.8-29-15-37S1511,745.7,1510.3,754.6z"/>
		<path class="st29" d="M1438.2,754.7c0,0-1.8-46,21-51C1459.2,703.7,1436.4,747.8,1438.2,754.7z"/>
		<path class="st29" d="M1429.8,754.7c0,0-41.5-19.6-32.4-28S1405.2,724.9,1429.8,754.7z"/>
		<path class="st29" d="M938.9,698.3c-57.9-35.2-2.7-49.5-2.2,1.4"/>
		<path class="st29" d="M951,700.9c0,0-22.1-27.7-12-32.4S951,700.9,951,700.9z"/>
		<path class="st29" d="M958.5,698.8c0,0,10.9-27,22.9-24.3S969.4,697.9,958.5,698.8z"/>
		<path class="st29" d="M489.9,699.1c0,0-34.2-4.5-22.3-20.9S489.9,699.1,489.9,699.1z"/>
		<path class="st29" d="M515.7,698.5c0,0-8.4-25.3,11.8-23.7S515.7,698.5,515.7,698.5z"/>
		
			<linearGradient id="SVGID_27_" gradientUnits="userSpaceOnUse" x1="1279.7507" y1="701.1096" x2="1402.3408" y2="934.5596" gradientTransform="matrix(1 0 0 -1 0 900)">
			<stop  offset="7.000000e-02" style="stop-color:#81CCD8"/>
			<stop  offset="0.24" style="stop-color:#99D6E0"/>
			<stop  offset="0.54" style="stop-color:#CEEDF1"/>
		</linearGradient>
		<path class="st30" d="M1206.4,135.8c116.1-56.6,335.6,24.7,139.7,38.9c0,0-28,3.2-93.4,0S1162.6,152.9,1206.4,135.8z"/>
		
			<linearGradient id="SVGID_28_" gradientUnits="userSpaceOnUse" x1="597.3035" y1="751.6782" x2="683.0335" y2="914.9382" gradientTransform="matrix(1 0 0 -1 0 900)">
			<stop  offset="0.15" style="stop-color:#95D1DA"/>
			<stop  offset="0.27" style="stop-color:#B1DFE6"/>
			<stop  offset="0.39" style="stop-color:#C4E9EF"/>
			<stop  offset="0.47" style="stop-color:#CBEDF2"/>
		</linearGradient>
		<path class="st31" d="M572.2,106.7c0,0,28.3-4.7,71.2-10.4s79.7,37-3.4,38.8C523.3,141.8,505.5,121.5,572.2,106.7z"/>
		
			<linearGradient id="SVGID_29_" gradientUnits="userSpaceOnUse" x1="473.73" y1="770.51" x2="564.21" y2="942.82" gradientTransform="matrix(1 0 0 -1 0 900)">
			<stop  offset="1.000000e-02" style="stop-color:#8AD4EC"/>
			<stop  offset="0.59" style="stop-color:#C3E9F5"/>
			<stop  offset="0.76" style="stop-color:#D4EFF8"/>
		</linearGradient>
		<path class="st32" d="M405.9,72.5c27.7-12.1,57.7-18,87.9-17.2c54.6,1.5,107.6,25.2,103.6,38.3c-3,10-40,16.4-61.3,16.4
			C457.5,109.7,344.9,119.8,405.9,72.5z"/>
	</g>
</g>
</svg>
