<?xml version="1.0" encoding="utf-8"?>
<!-- Generator: Adobe Illustrator 25.2.3, SVG Export Plug-In . SVG Version: 6.00 Build 0)  -->
<svg version="1.1" id="Layer_1" xmlns="http://www.w3.org/2000/svg" xmlns:xlink="http://www.w3.org/1999/xlink" x="0px" y="0px"
	 viewBox="0 0 1600 900" style="enable-background:new 0 0 1600 900;" xml:space="preserve">
<style type="text/css">
	.st0{clip-path:url(#SVGID_2_);}
	.st1{fill:url(#SVGID_3_);}
	.st2{fill:url(#SVGID_4_);}
	.st3{fill:url(#SVGID_5_);}
	.st4{fill:url(#SVGID_6_);}
	.st5{fill:url(#SVGID_7_);}
	.st6{fill:url(#SVGID_8_);}
	.st7{fill:url(#SVGID_9_);}
	.st8{fill:url(#SVGID_10_);}
	.st9{fill:#78969F;}
	.st10{fill:#89E9F4;}
	.st11{fill:url(#SVGID_11_);}
	.st12{fill:url(#SVGID_12_);}
	.st13{fill:url(#SVGID_13_);}
	.st14{fill:#998681;}
	.st15{fill:#BE8573;}
	.st16{fill:#AFA297;}
	.st17{fill:url(#SVGID_14_);}
	.st18{fill:url(#SVGID_15_);}
	.st19{fill:url(#SVGID_16_);}
	.st20{fill:url(#SVGID_17_);}
	.st21{fill:url(#SVGID_18_);}
	.st22{fill:url(#SVGID_19_);}
	.st23{fill:url(#SVGID_20_);}
	.st24{fill:url(#SVGID_21_);}
	.st25{fill:url(#SVGID_22_);}
	.st26{fill:url(#SVGID_23_);}
	.st27{fill:url(#SVGID_24_);}
	.st28{fill:url(#SVGID_25_);}
	.st29{fill:url(#SVGID_26_);}
	.st30{fill:url(#SVGID_27_);}
	.st31{fill:url(#SVGID_28_);}
	.st32{fill:url(#SVGID_29_);}
	.st33{fill:#82EA4B;}
	.st34{fill:#3ED63E;}
	.st35{fill:#21AD28;}
	.st36{fill:#70DB31;}
	.st37{fill:#3DBF47;}
	.st38{fill:#4ECE54;}
	.st39{fill:url(#SVGID_30_);}
</style>
<g>
	<defs>
		<rect id="SVGID_1_" width="1600" height="900"/>
	</defs>
	<clipPath id="SVGID_2_">
		<use xlink:href="#SVGID_1_"  style="overflow:visible;"/>
	</clipPath>
	<g class="st0">
		
			<linearGradient id="SVGID_3_" gradientUnits="userSpaceOnUse" x1="262.2076" y1="-411.65" x2="257.3177" y2="1164.02" gradientTransform="matrix(-1 0 0 -1 1052 900)">
			<stop  offset="0.61" style="stop-color:#C0FEFF"/>
			<stop  offset="0.68" style="stop-color:#B1FDFF"/>
			<stop  offset="0.82" style="stop-color:#8BFBFF"/>
			<stop  offset="0.99" style="stop-color:#55F7FF"/>
		</linearGradient>
		<path class="st1" d="M-79,419.4c1-95,0.5-190-0.3-285c-0.7-79-1.5-158-1.8-237h1722.6c9.4,28.2,18.7,56.5,27.8,84.8
			c-1.7,40.7-3.7,81.3-5.9,121.9c-9.2,167.4-22,334.6-29.9,502.1H-83.5C-81.1,543.9-79.7,481.6-79,419.4z"/>
		
			<linearGradient id="SVGID_4_" gradientUnits="userSpaceOnUse" x1="-492.6487" y1="793.1187" x2="-293.5287" y2="992.3787" gradientTransform="matrix(-1 0 0 -1 1052 900)">
			<stop  offset="0.2" style="stop-color:#8FFBFF"/>
			<stop  offset="0.24" style="stop-color:#99FAFF"/>
			<stop  offset="0.4" style="stop-color:#BBF8FF"/>
			<stop  offset="0.53" style="stop-color:#CFF7FF"/>
			<stop  offset="0.61" style="stop-color:#D7F6FF"/>
		</linearGradient>
		<path class="st2" d="M1541.5,52.9c0,0-1.8-18.3-24.1-30.8s-41.2-19.2-60.6-4.8s-15.3,47.1-11.2,51c8,7.5,25.2,17.3,71.2,7.7
			C1544.4,70.2,1541.5,52.9,1541.5,52.9z"/>
		
			<linearGradient id="SVGID_5_" gradientUnits="userSpaceOnUse" x1="-544.2931" y1="631.6022" x2="-289.1131" y2="886.9522" gradientTransform="matrix(-0.97 -9.000000e-02 7.000000e-02 -0.77 1072.54 559.6)">
			<stop  offset="0.2" style="stop-color:#8FFBFF"/>
			<stop  offset="0.24" style="stop-color:#99FAFF"/>
			<stop  offset="0.4" style="stop-color:#BBF8FF"/>
			<stop  offset="0.53" style="stop-color:#CFF7FF"/>
			<stop  offset="0.61" style="stop-color:#D7F6FF"/>
		</linearGradient>
		<path class="st3" d="M1644,40.3c0,0-6.1-27.5-49.4-43.7s-71.4-24-95.5,2.5s-12.1,71,4.9,76.5s87.8,10,130.5-7.8
			C1634.5,67.8,1649.8,59.6,1644,40.3z"/>
		
			<linearGradient id="SVGID_6_" gradientUnits="userSpaceOnUse" x1="-183.689" y1="635.789" x2="115.561" y2="935.259" gradientTransform="matrix(-1 0 0 -1 1052 900)">
			<stop  offset="0.2" style="stop-color:#8FFBFF"/>
			<stop  offset="0.24" style="stop-color:#99FAFF"/>
			<stop  offset="0.4" style="stop-color:#BBF8FF"/>
			<stop  offset="0.53" style="stop-color:#CFF7FF"/>
			<stop  offset="0.61" style="stop-color:#D7F6FF"/>
		</linearGradient>
		<path class="st4" d="M1216.3,146.4c0,0-3.4-30.7-46.4-51.8s-79.3-32.3-116.7-8.1s-29.5,79.2-21.5,85.7
			c15.4,12.6,48.6,29.1,137.1,12.9C1222,175.5,1216.3,146.4,1216.3,146.4z"/>
		
			<linearGradient id="SVGID_7_" gradientUnits="userSpaceOnUse" x1="753.9094" y1="1050.8801" x2="550.8594" y2="330.2901" gradientTransform="matrix(-1 0 0 -1 1052 900)">
			<stop  offset="0.19" style="stop-color:#9FF2F4"/>
			<stop  offset="0.67" style="stop-color:#A6EDF7"/>
		</linearGradient>
		<path class="st5" d="M-78.8,200.7c24.3,6.6,50.1,13.1,77.3,19.2c162.5,36.4,286,39.6,347.3,42.5c139.5,6.5,346.7,30.9,636.1,112.3
			L-78.9,412.3C-78.2,341.8-78.3,271.2-78.8,200.7z"/>
		
			<linearGradient id="SVGID_8_" gradientUnits="userSpaceOnUse" x1="354.3325" y1="878.3421" x2="153.1925" y2="164.5521" gradientTransform="matrix(-1 0 0 -1 1052 900)">
			<stop  offset="0.1" style="stop-color:#92E56C"/>
			<stop  offset="0.14" style="stop-color:#84D9EF"/>
			<stop  offset="0.41" style="stop-color:#85E0EF"/>
			<stop  offset="0.61" style="stop-color:#86EAEF"/>
		</linearGradient>
		<path class="st6" d="M1644,418.8l-1723,1.1c0-0.2,0-0.3,0-0.5c0.1-9.7,0.2-19.4,0.3-29.1c156.4-25.8,381.6-56.2,483.5-38.6
			c164.5,28.5,357.1,11.5,695.6-68.4c227.6-76.7,424.8-55.4,553.6-22C1650.7,313.7,1647.4,366.3,1644,418.8z"/>
		
			<linearGradient id="SVGID_9_" gradientUnits="userSpaceOnUse" x1="-640.4767" y1="238.3134" x2="385.0133" y2="748.6635" gradientTransform="matrix(-1 0 0 -1 1052 900)">
			<stop  offset="2.000000e-02" style="stop-color:#57D8E5"/>
			<stop  offset="0.55" style="stop-color:#6ADDE8"/>
			<stop  offset="0.78" style="stop-color:#73DFEA"/>
		</linearGradient>
		<path class="st7" d="M1644,419l-1110.7,1c45.7-18,124.8-43.4,227.7-47.5c78.6-3.3,157.2,6.5,232.6,29
			c48.5-31.6,91-42.1,121.1-45.7c83.7-10.2,118.1,7.8,204.7,7c112.2-1.1,129-40.7,241.8-54c29.9-3.5,60-4.4,90-2.8
			C1648.8,343.6,1646.4,381.3,1644,419z"/>
		
			<linearGradient id="SVGID_10_" gradientUnits="userSpaceOnUse" x1="454.5396" y1="392.9814" x2="1373.9297" y2="627.0914" gradientTransform="matrix(-1 0 0 -1 1052 900)">
			<stop  offset="2.000000e-02" style="stop-color:#57D8E5"/>
			<stop  offset="0.55" style="stop-color:#6ADDE8"/>
			<stop  offset="0.78" style="stop-color:#73DFEA"/>
		</linearGradient>
		<path class="st8" d="M-78.9,408.1c23.5-0.3,55.6-0.4,96.3-0.5c15-8.9,62.5-25.1,111.1-8.5c49.8-21.1,86.8-29.2,101.8-1.1
			c39.3-32.5,99.5-31,141.1,1.5c27.3-5.2,71.4-9.6,122.3,3.6c19.9,5.2,39.2,12.6,57.5,22.1c-332.1-5.6-542.1-9.9-630.2-12.8
			C-78.9,410.9-78.9,409.5-78.9,408.1z"/>
		<path class="st9" d="M594,355.9c0.5,1.9,1.3,3.6,2.4,5.2c0.9,1.6,2.2,3,3.8,3.9c1.6,0.9,3.3,1.4,5.1,1.6v-10.5l3.7,0.1v6.4
			c0,0,8.3,0.8,9.4-6.2h1.1c0,0,1,8-10.4,8.9l-0.7,29.5H605l0.1-24.3c-2.6-1-4.9-2.4-7-4.1c-3.2-2.6-5.2-6.5-5.4-10.7h0.7
			C593.6,355.9,593.8,355.9,594,355.9z"/>
		<path class="st10" d="M580.9,343.5c0,0,35.2-9.4,56.5,0c17.9,8.7,8.5,12.7-12.6,12.7c-18.8-0.1-41.7-1.1-41.7-1.1
			S557.5,352.3,580.9,343.5z"/>
		
			<linearGradient id="SVGID_11_" gradientUnits="userSpaceOnUse" x1="598.6726" y1="526.3389" x2="619.0426" y2="574.4889" gradientTransform="matrix(1 0 0 -1 0 900)">
			<stop  offset="0" style="stop-color:#55B5AA"/>
			<stop  offset="0.39" style="stop-color:#66CFCB"/>
			<stop  offset="0.74" style="stop-color:#72E1E2"/>
			<stop  offset="0.96" style="stop-color:#76E8EB"/>
		</linearGradient>
		<path class="st11" d="M579.9,343.9c0,0,35.2-9.3,56.5,0c20.5,9.9,5.9,12.6-12.6,12.6c-18.8-0.1-41.8-1.1-41.8-1.1
			S556.6,352.6,579.9,343.9z"/>
		<path class="st9" d="M977.3,373.4c0.6,2.1,1.5,4.1,2.7,5.9c1,1.8,2.5,3.3,4.2,4.4c1.8,1,3.7,1.6,5.7,1.8v-11.7l4.2,0.1v7.2
			c0,0,9.3,0.9,10.5-6.9h1.3c0,0,1.1,9-11.6,10l-0.9,33.1h-3.9l0.2-27.3c-2.9-1.1-5.5-2.7-7.8-4.6c-3.6-3-5.8-7.3-6.1-12h0.8
			L977.3,373.4z"/>
		<path class="st10" d="M962.5,359.5c0,0,39.5-10.5,63.3,0c20,9.8,9.6,14.3-14.2,14.3c-21-0.2-46.8-1.3-46.8-1.3
			S936.4,369.4,962.5,359.5z"/>
		
			<linearGradient id="SVGID_12_" gradientUnits="userSpaceOnUse" x1="982.511" y1="506.6338" x2="1005.351" y2="560.6238" gradientTransform="matrix(1 0 0 -1 0 900)">
			<stop  offset="0" style="stop-color:#55B5AA"/>
			<stop  offset="0.39" style="stop-color:#66CFCB"/>
			<stop  offset="0.74" style="stop-color:#72E1E2"/>
			<stop  offset="0.96" style="stop-color:#76E8EB"/>
		</linearGradient>
		<path class="st12" d="M961.5,360c0,0,39.5-10.5,63.3,0c23,11.1,6.7,14.2-14.2,14.2c-21-0.1-46.8-1.3-46.8-1.3
			S935.3,369.8,961.5,360z"/>
		
			<linearGradient id="SVGID_13_" gradientUnits="userSpaceOnUse" x1="-290.9882" y1="501.2404" x2="-294.3782" y2="674.4804" gradientTransform="matrix(-1 0 0 -1 1052 900)">
			<stop  offset="7.000000e-02" style="stop-color:#8C5E54"/>
			<stop  offset="0.19" style="stop-color:#786869"/>
			<stop  offset="0.32" style="stop-color:#696F78"/>
			<stop  offset="0.47" style="stop-color:#617481"/>
			<stop  offset="0.7" style="stop-color:#5E7584"/>
		</linearGradient>
		<path class="st13" d="M1299.3,389.6c-0.7-2.5,2.5-5.1,5.8-10.7c6.6-10.9,7.9-23.1,7.7-32.6c0,0,0.6-12.8-3.3-19.1
			c-2.5-4.2-4.6-8.5-6.5-13c0,0-13.4,0.7-14.5,0s-4.4-3.8-3.8-11.9l-0.2-1.9l3.4,1c0,0,1,7.3,5.5,7.8c5.3,0.8,11.3-2.7,10.4-7.8h3.8
			c0,0-1.2,14.9,4.6,18.1c4.3,1.2,6.8-0.7,6.7-9.5l-0.2-8.7h6.8c0,0-0.4,9.3,0,9.9s3.4,6.3,6.7-5.5c2.7-8.3,1.2-4.3,1.2-4.3l3.7,0.1
			c0,0-1.7,9.2-7.1,14.9c-3.6,5.5-3.7,14.8-1,18c2.9,3.3,7.9,5.1,11.7-14.3c2.6-12.8,3.2-18.6,3.2-18.6l5.3-0.1c0,0-2.2,15.3-1.8,18
			c0.5,3,0.7,12.4,12.2,8.5c6-1,18-4.4,23-14.8c1.9-8.8,1.5-12.2,1.5-12.2l4.3-0.1c0,0-0.1,5.1-1,6.4c2.7,0.2,5.4-0.4,7.7-1.8
			c3.1-2,5.5-5,6.7-8.5l3.4-0.1c-0.8,2.4-2,4.6-3.5,6.6c-2.9,3.8-7,6.4-11.6,7.5c-1.2,0.1-2.3,0.4-3.4,0.6h0.2
			c-1.1,8.6-6.7,16-14.7,19.4c-12.3,5.3-17.7,8-20.8,10.1s-5.3,4.4-4.8,11.7c0.5,5.8,0.2,11.7-0.9,17.5c-1.2,6.6-3.5,13-6.8,18.9
			C1308.4,394.9,1300.3,393,1299.3,389.6z"/>
		<path class="st14" d="M1313,344.4c3.3,2.2,6.2,5.1,8.3,8.4c9.4,14.7,3,34.1,2.3,36.2l-24.7,0.5c1.7-2.8,3.3-5.7,4.8-8.6
			C1309,369.5,1312.2,357.1,1313,344.4z"/>
		<path class="st15" d="M1341.5,316.5c0,0-4.6,19.5-8.2,19.4C1337.1,337.9,1344,332.5,1341.5,316.5z"/>
		<path class="st16" d="M1315.9,367.9c0.9,0.2,1.8,0.1,2.7-0.2c0.4-0.2,0.5-0.7,0.5-1.1c-0.1-0.4-0.2-0.9-0.4-1.3
			c-0.8-1.6-2-3-3.5-4c-0.3-0.2-0.7-0.3-1.1-0.3c-0.3,0-0.7,0.3-0.8,0.6c-0.4,0.8-0.6,1.6-0.6,2.5c0,1.8,0.2,3.6,0.7,5.4v-0.1
			c0.9,1.8,2.1,3.4,3.6,4.7c0.7,0.6,1.7,1.1,2.4,0.7c0.7-0.6,1.2-1.4,1.4-2.3c0.5-2,0.8-4,0.7-6c0-2,0-4.1,0-6.1
			c0.2,2,0.3,4.1,0.4,6.1c0.2,2.1,0,4.2-0.4,6.2c-0.1,0.5-0.3,1-0.6,1.5c-0.3,0.5-0.7,1-1.2,1.3c-0.6,0.3-1.2,0.3-1.8,0.1
			c-0.5-0.2-1-0.5-1.4-0.8c-1.6-1.4-2.9-3.1-3.9-5v0l0,0c-0.5-1.8-0.7-3.8-0.7-5.7c0-1,0.3-2,0.7-2.9c0.3-0.5,0.8-0.9,1.4-0.9
			c0.5,0,1.1,0.2,1.5,0.5c0.8,0.5,1.5,1.2,2.1,2c0.6,0.7,1.1,1.6,1.4,2.5c0.2,0.4,0.3,0.9,0.3,1.4c0,0.3,0,0.5-0.1,0.7l-0.2,0.3
			c-0.1,0.1-0.2,0.2-0.3,0.2C1317.8,368.3,1316.8,368.3,1315.9,367.9z"/>
		
			<linearGradient id="SVGID_14_" gradientUnits="userSpaceOnUse" x1="-252.15" y1="619.4299" x2="-168.39" y2="619.4299" gradientTransform="matrix(-1 0 0 -1 1052 900)">
			<stop  offset="0.13" style="stop-color:#4B9B7D"/>
			<stop  offset="0.18" style="stop-color:#4C9F83"/>
			<stop  offset="0.71" style="stop-color:#59C4BD"/>
			<stop  offset="0.96" style="stop-color:#5ED2D3"/>
		</linearGradient>
		<path class="st17" d="M1273,261.8c0,0-29.8-8-43,16.4c-8.6,18.9-10.2,25,43,21.6C1282,269.5,1273,261.8,1273,261.8z"/>
		
			<linearGradient id="SVGID_15_" gradientUnits="userSpaceOnUse" x1="-198.4496" y1="708.4795" x2="-431.1896" y2="516.5595" gradientTransform="matrix(-1 0 0 -1 1052 900)">
			<stop  offset="0.31" style="stop-color:#5ED3D4"/>
			<stop  offset="0.41" style="stop-color:#53C8B2"/>
			<stop  offset="0.54" style="stop-color:#42B77C"/>
			<stop  offset="0.59" style="stop-color:#44BA7C"/>
			<stop  offset="0.62" style="stop-color:#4BC57E"/>
			<stop  offset="0.66" style="stop-color:#56D780"/>
			<stop  offset="0.66" style="stop-color:#58DB81"/>
		</linearGradient>
		<path class="st18" d="M1404.1,258.6c-1-7.6-3.6-19.1-11.5-28.5c-20.6-24.6-59.8-13.9-74.9-9.8c-32.1,8.8-54,29.8-65.8,43.6
			c-1.5,2.1-1.9,4.8-1.1,7.2c1.3,1.4,3.1,2.3,5,2.4c13.9,0.7,71.2,3.5,74.3,2.9c3.6-0.7,70.2-7.3,70.2-7.3L1404.1,258.6z"/>
		
			<linearGradient id="SVGID_16_" gradientUnits="userSpaceOnUse" x1="-377.4017" y1="601.1686" x2="-332.1797" y2="644.0026" gradientTransform="matrix(-1 0 0 -1 1052 900)">
			<stop  offset="0.13" style="stop-color:#389C7A"/>
			<stop  offset="0.65" style="stop-color:#56CA87"/>
			<stop  offset="0.96" style="stop-color:#65E08E"/>
		</linearGradient>
		<path class="st19" d="M1402.7,295.9c0.9,0,27.2-2.1,27.2-2.1s16.3-3.9,7-13.3c-2.4-1.4-4.5-3.4-5.9-5.8c-1.9-3.1-1.4-4.6-2.6-7.5
			c-3.8-9-16.4-12.1-16.4-12.1l0,0c0,0-17.2-4-29.9,3.8c-1,0.5-2,1.2-2.7,2.2c-5.9,8.9,12.5,34.8,12.5,34.8H1402.7z"/>
		
			<linearGradient id="SVGID_17_" gradientUnits="userSpaceOnUse" x1="-378.5602" y1="599.9644" x2="-301.9702" y2="672.5044" gradientTransform="matrix(-1 0 0 -1 1052 900)">
			<stop  offset="4.000000e-02" style="stop-color:#2DA370"/>
			<stop  offset="0.18" style="stop-color:#40B596"/>
			<stop  offset="0.34" style="stop-color:#51C6B9"/>
			<stop  offset="0.49" style="stop-color:#5ED2D3"/>
			<stop  offset="0.62" style="stop-color:#65D9E3"/>
			<stop  offset="0.73" style="stop-color:#68DCE8"/>
		</linearGradient>
		<path class="st20" d="M1403.7,296.9c0.9,0,27.6-2.1,27.6-2.1s16.5-3.9,7-13.4c-2.5-1.4-4.5-3.4-6-5.8c-1.9-3.1-1.4-4.6-2.6-7.5
			c-3.8-9.1-16.6-12.2-16.6-12.2l0,0c0,0-17.4-4-30.3,3.9c-1.1,0.5-2,1.3-2.7,2.2c-6,8.9,12.6,34.9,12.6,34.9L1403.7,296.9z"/>
		
			<linearGradient id="SVGID_18_" gradientUnits="userSpaceOnUse" x1="-351.9833" y1="635.3497" x2="-352.8133" y2="677.5297" gradientTransform="matrix(-1 0 0 -1 1052 900)">
			<stop  offset="4.000000e-02" style="stop-color:#2DA370"/>
			<stop  offset="0.24" style="stop-color:#40B596"/>
			<stop  offset="0.46" style="stop-color:#51C6B9"/>
			<stop  offset="0.66" style="stop-color:#5ED2D3"/>
			<stop  offset="0.85" style="stop-color:#65D9E3"/>
			<stop  offset="1" style="stop-color:#68DCE8"/>
		</linearGradient>
		<path class="st21" d="M1417.3,244.8c0,0-2.5-6.4-19.9-3.2c-16.1,4-3.8,14.2,10,12S1419.6,247,1417.3,244.8z"/>
		
			<linearGradient id="SVGID_19_" gradientUnits="userSpaceOnUse" x1="-358.8866" y1="633.1275" x2="-195.271" y2="633.1275" gradientTransform="matrix(-1 0 0 -1 1052 900)">
			<stop  offset="4.000000e-02" style="stop-color:#2DA370"/>
			<stop  offset="0.24" style="stop-color:#40B596"/>
			<stop  offset="0.46" style="stop-color:#51C6B9"/>
			<stop  offset="0.66" style="stop-color:#5ED2D3"/>
			<stop  offset="0.85" style="stop-color:#65D9E3"/>
			<stop  offset="1" style="stop-color:#68DCE8"/>
		</linearGradient>
		<path class="st22" d="M1404.3,274.1c0,0-16-14.6-32.8-20.4c-18.3-8.6-42.6-27.8-72-18.9c-22.7,8.3-39.8,19.8-49.8,41
			c-4.9,12.3-5.7,27.2,31.8,25.2l104.3,0.2C1385.7,301.2,1426.5,297.9,1404.3,274.1z"/>
		
			<linearGradient id="SVGID_20_" gradientUnits="userSpaceOnUse" x1="-288.8611" y1="581.8505" x2="-245.7411" y2="693.9105" gradientTransform="matrix(-1 0 0 -1 1052 900)">
			<stop  offset="4.000000e-02" style="stop-color:#2DA370"/>
			<stop  offset="0.24" style="stop-color:#40B596"/>
			<stop  offset="0.46" style="stop-color:#51C6B9"/>
			<stop  offset="0.66" style="stop-color:#5ED2D3"/>
			<stop  offset="0.85" style="stop-color:#65D9E3"/>
			<stop  offset="1" style="stop-color:#68DCE8"/>
		</linearGradient>
		<path class="st23" d="M1403.5,274.4c0,0-15.9-14.4-32.5-20.1c-18.2-8.5-42.2-27.4-71.4-18.7c-22.5,8.2-39.4,19.5-49.4,40.4
			c-4.9,12.2-5.6,26.9,31.5,24.9l103.4,0.2C1385,301.2,1425.5,297.9,1403.5,274.4z"/>
		<path class="st15" d="M1284.6,301.7c0,0-0.5,8.4,3,11.7c0.8,0.9,1.9,1.3,3.1,1.1c-2.3-1-3.9-3.1-4.3-5.6c-0.5-2.5-0.8-5-0.9-7.5
			h-0.8L1284.6,301.7z"/>
		<path class="st15" d="M1318.7,301.3c0.1,1.5,0.2,6.6,0.2,7.6c-0.2,4.4-0.5,9.4-3,10.6c-0.6,0.3-1.2,0.4-1.9,0.3l-0.9-0.1
			c1.2,1.6,2.2,1.8,2.5,1.8c2,0.1,4.4-2.9,5-7.9c0.4-2.3,0.5-4.7,0.4-7.1c-0.1-2-0.4-5.3-0.4-5.3H1318.7L1318.7,301.3z"/>
		
			<linearGradient id="SVGID_21_" gradientUnits="userSpaceOnUse" x1="1395.2462" y1="484.2505" x2="1391.8662" y2="657.4905" gradientTransform="matrix(1 0 0 -1 -1224.29 900)">
			<stop  offset="7.000000e-02" style="stop-color:#8C5E54"/>
			<stop  offset="0.19" style="stop-color:#786869"/>
			<stop  offset="0.32" style="stop-color:#696F78"/>
			<stop  offset="0.47" style="stop-color:#617481"/>
			<stop  offset="0.7" style="stop-color:#5E7584"/>
		</linearGradient>
		<path class="st24" d="M214.7,406.6c0.7-2.5-2.5-5.2-5.9-10.7c-6.6-10.9-7.9-23.1-7.7-32.6c0,0-0.6-12.7,3.3-19.1
			c2.5-4.2,4.6-8.5,6.5-13c0,0,13.4,0.7,14.5,0s4.4-3.8,3.8-11.9l0.2-2l-3.4,1c0,0-1.1,7.3-5.5,7.8c-5.3,0.8-11.3-2.7-10.4-7.8h-3.8
			c0,0,1.2,14.9-4.6,18.1c-4.3,1.2-6.9-0.7-6.6-9.5l0.2-8.7h-6.9c0,0,0.4,9.3,0,9.9s-3.4,6.3-6.6-5.5c-2.7-8.3-1.2-4.3-1.2-4.3
			l-3.7,0.1c0,0,1.7,9.2,7.1,14.9c3.6,5.5,3.7,14.8,1,18c-2.9,3.3-7.9,5.1-11.8-14.3c-2.5-12.8-3.2-18.6-3.2-18.6l-5.3-0.1
			c0,0,2.1,15.3,1.8,18c-0.5,3-0.7,12.4-12.2,8.4c-6-1-18-4.4-23-14.8c-1.9-8.8-1.5-12.2-1.5-12.2l-4.3-0.1c0,0,0.1,5.1,1,6.4
			c-2.7,0.2-5.4-0.4-7.7-1.8c-3.1-2-5.5-5-6.7-8.5l-3.5-0.2c0.8,2.4,2,4.6,3.5,6.6c2.8,3.8,7,6.5,11.6,7.5c1.2,0.1,2.3,0.4,3.4,0.6
			h-0.2c1.1,8.6,6.7,16,14.7,19.4c12.3,5.3,17.7,8,20.8,10.1s5.3,4.4,4.8,11.7c-0.5,5.8-0.2,11.7,0.9,17.5c1.2,6.6,3.5,13,6.8,18.9
			C205.5,411.9,213.7,410,214.7,406.6z"/>
		<path class="st14" d="M200.9,361.4c-3.3,2.2-6.2,5.1-8.3,8.5c-9.4,14.7-3,34.1-2.3,36.2l24.7,0.5c-1.7-2.8-3.3-5.7-4.8-8.6
			C204.9,386.5,201.7,374.1,200.9,361.4z"/>
		<path class="st15" d="M172.4,333.5c0,0,4.6,19.5,8.2,19.4C176.9,354.9,169.9,349.5,172.4,333.5z"/>
		<path class="st16" d="M198.1,384.9c-0.9,0.3-1.9,0.3-2.8,0l-0.3-0.2l-0.2-0.3c-0.1-0.2-0.2-0.5-0.1-0.8c0-0.5,0.1-1,0.3-1.4
			c0.4-0.9,0.9-1.7,1.4-2.5c0.6-0.8,1.3-1.5,2.1-2c0.4-0.3,1-0.5,1.5-0.5c0.6,0,1.1,0.4,1.4,0.9c0.5,0.9,0.7,1.9,0.8,2.9
			c0.1,1.9-0.2,3.8-0.7,5.7v0l0,0c-0.9,1.9-2.2,3.6-3.9,5c-0.4,0.3-0.9,0.6-1.4,0.8c-0.6,0.2-1.2,0.2-1.8-0.1
			c-0.5-0.3-0.9-0.8-1.1-1.3c-0.2-0.5-0.4-1-0.6-1.5c-0.5-2-0.6-4.1-0.4-6.2c0.1-2,0.3-4.1,0.4-6.1c0.1,2,0,4.1,0.1,6.1
			c-0.1,2,0.1,4,0.7,6c0.2,0.9,0.7,1.7,1.4,2.3c0.7,0.4,1.6-0.1,2.4-0.7c1.5-1.3,2.7-2.9,3.6-4.7v0.1c0.5-1.7,0.8-3.6,0.7-5.4
			c0-0.9-0.2-1.7-0.6-2.5c-0.2-0.3-0.5-0.5-0.8-0.6c-0.4,0-0.8,0.1-1.1,0.3c-1.5,1-2.8,2.4-3.5,4c-0.2,0.4-0.3,0.8-0.4,1.3
			c-0.1,0.4,0.1,0.9,0.5,1.1C196.3,385,197.2,385.1,198.1,384.9z"/>
		
			<linearGradient id="SVGID_22_" gradientUnits="userSpaceOnUse" x1="1434.08" y1="602.4352" x2="1517.84" y2="602.4352" gradientTransform="matrix(1 0 0 -1 -1224.29 900)">
			<stop  offset="0.13" style="stop-color:#4B9B7D"/>
			<stop  offset="0.18" style="stop-color:#4C9F83"/>
			<stop  offset="0.71" style="stop-color:#59C4BD"/>
			<stop  offset="0.96" style="stop-color:#5ED2D3"/>
		</linearGradient>
		<path class="st25" d="M241,278.8c0,0,29.8-8,43.1,16.3c8.6,18.9,10.1,25-43.1,21.6C232,286.5,241,278.8,241,278.8z"/>
		
			<linearGradient id="SVGID_23_" gradientUnits="userSpaceOnUse" x1="1487.7815" y1="691.4883" x2="1255.0414" y2="499.5583" gradientTransform="matrix(1 0 0 -1 -1224.29 900)">
			<stop  offset="0.31" style="stop-color:#5ED3D4"/>
			<stop  offset="0.41" style="stop-color:#53C8B2"/>
			<stop  offset="0.54" style="stop-color:#42B77C"/>
			<stop  offset="0.59" style="stop-color:#44BA7C"/>
			<stop  offset="0.62" style="stop-color:#4BC57E"/>
			<stop  offset="0.66" style="stop-color:#56D780"/>
			<stop  offset="0.66" style="stop-color:#58DB81"/>
		</linearGradient>
		<path class="st26" d="M109.9,275.6c1-7.6,3.6-19.1,11.5-28.5c20.6-24.6,59.8-13.9,74.9-9.8c32.1,8.8,54,29.8,65.8,43.6
			c1.5,2.1,1.9,4.8,1.1,7.2c-1.3,1.5-3.1,2.3-5,2.4c-13.9,0.7-71.2,3.5-74.4,2.9c-3.6-0.7-70.2-7.3-70.2-7.3L109.9,275.6z"/>
		
			<linearGradient id="SVGID_24_" gradientUnits="userSpaceOnUse" x1="1308.8571" y1="584.1467" x2="1354.1478" y2="627.0458" gradientTransform="matrix(1 0 0 -1 -1224.29 900)">
			<stop  offset="0.13" style="stop-color:#389C7A"/>
			<stop  offset="0.65" style="stop-color:#56CA87"/>
			<stop  offset="0.96" style="stop-color:#65E08E"/>
		</linearGradient>
		<path class="st27" d="M111.2,312.8c-0.9,0-27.2-2.1-27.2-2.1s-16.3-3.9-7-13.3c2.5-1.4,4.5-3.3,6-5.8c1.9-3.1,1.4-4.6,2.6-7.5
			c3.7-9,16.4-12.2,16.4-12.2l0,0c0,0,17.2-4,29.9,3.9c1,0.5,2,1.2,2.7,2.2c5.9,8.9-12.5,34.8-12.5,34.8L111.2,312.8z"/>
		
			<linearGradient id="SVGID_25_" gradientUnits="userSpaceOnUse" x1="1307.6709" y1="582.9783" x2="1384.2609" y2="655.5183" gradientTransform="matrix(1 0 0 -1 -1224.29 900)">
			<stop  offset="4.000000e-02" style="stop-color:#2DA370"/>
			<stop  offset="0.18" style="stop-color:#40B596"/>
			<stop  offset="0.34" style="stop-color:#51C6B9"/>
			<stop  offset="0.49" style="stop-color:#5ED2D3"/>
			<stop  offset="0.62" style="stop-color:#65D9E3"/>
			<stop  offset="0.73" style="stop-color:#68DCE8"/>
		</linearGradient>
		<path class="st28" d="M110.3,313.9c-0.9,0-27.6-2.1-27.6-2.1s-16.5-3.9-7-13.4c2.5-1.4,4.5-3.4,6-5.8c1.9-3.1,1.4-4.6,2.6-7.5
			c3.8-9.1,16.6-12.2,16.6-12.2l0,0c0,0,17.4-4,30.3,3.9c1.1,0.5,2,1.3,2.7,2.2c6,8.9-12.6,34.9-12.6,34.9L110.3,313.9z"/>
		
			<linearGradient id="SVGID_26_" gradientUnits="userSpaceOnUse" x1="1334.2469" y1="618.3497" x2="1333.4269" y2="660.5297" gradientTransform="matrix(1 0 0 -1 -1224.29 900)">
			<stop  offset="4.000000e-02" style="stop-color:#2DA370"/>
			<stop  offset="0.24" style="stop-color:#40B596"/>
			<stop  offset="0.46" style="stop-color:#51C6B9"/>
			<stop  offset="0.66" style="stop-color:#5ED2D3"/>
			<stop  offset="0.85" style="stop-color:#65D9E3"/>
			<stop  offset="1" style="stop-color:#68DCE8"/>
		</linearGradient>
		<path class="st29" d="M96.6,261.8c0,0,2.5-6.4,19.9-3.2c16.1,4,3.8,14.2-10,12S94.3,264,96.6,261.8z"/>
		
			<linearGradient id="SVGID_27_" gradientUnits="userSpaceOnUse" x1="1327.3534" y1="616.1514" x2="1490.9764" y2="616.1514" gradientTransform="matrix(1 0 0 -1 -1224.29 900)">
			<stop  offset="4.000000e-02" style="stop-color:#2DA370"/>
			<stop  offset="0.24" style="stop-color:#40B596"/>
			<stop  offset="0.46" style="stop-color:#51C6B9"/>
			<stop  offset="0.66" style="stop-color:#5ED2D3"/>
			<stop  offset="0.85" style="stop-color:#65D9E3"/>
			<stop  offset="1" style="stop-color:#68DCE8"/>
		</linearGradient>
		<path class="st30" d="M109.7,291.1c0,0,16-14.6,32.8-20.4c18.3-8.6,42.6-27.8,72-18.9c22.7,8.3,39.8,19.8,49.8,41
			c4.9,12.3,5.7,27.2-31.7,25.2l-104.3,0.2C128.3,318.2,87.5,314.9,109.7,291.1z"/>
		
			<linearGradient id="SVGID_28_" gradientUnits="userSpaceOnUse" x1="1397.3705" y1="564.8598" x2="1440.5005" y2="676.9099" gradientTransform="matrix(1 0 0 -1 -1224.29 900)">
			<stop  offset="4.000000e-02" style="stop-color:#2DA370"/>
			<stop  offset="0.24" style="stop-color:#40B596"/>
			<stop  offset="0.46" style="stop-color:#51C6B9"/>
			<stop  offset="0.66" style="stop-color:#5ED2D3"/>
			<stop  offset="0.85" style="stop-color:#65D9E3"/>
			<stop  offset="1" style="stop-color:#68DCE8"/>
		</linearGradient>
		<path class="st31" d="M110.5,291.4c0,0,15.9-14.4,32.5-20.1c18.2-8.5,42.2-27.4,71.4-18.7c22.5,8.2,39.4,19.5,49.4,40.4
			c4.9,12.2,5.6,26.9-31.5,24.9l-103.4,0.2C128.9,318.2,88.5,314.9,110.5,291.4z"/>
		<path class="st15" d="M229.4,318.7c0,0,0.5,8.4-2.9,11.7c-0.8,0.9-1.9,1.3-3.1,1.1c2.3-1,3.9-3.1,4.3-5.6c0.5-2.5,0.8-5,0.9-7.5
			h0.9V318.7z"/>
		<path class="st15" d="M195.2,318.3c-0.1,1.5-0.2,6.6-0.1,7.6c0.2,4.4,0.5,9.4,3,10.6c0.6,0.3,1.2,0.4,1.9,0.3l0.9-0.1
			c-1.1,1.6-2.2,1.8-2.5,1.8c-2,0.1-4.4-2.9-5-7.9c-0.4-2.3-0.5-4.7-0.4-7.1c0.1-2,0.4-5.3,0.4-5.3L195.2,318.3L195.2,318.3z"/>
		
			<linearGradient id="SVGID_29_" gradientUnits="userSpaceOnUse" x1="291.7688" y1="-435.97" x2="281.2188" y2="752.8799" gradientTransform="matrix(-1 0 0 -1 1052 900)">
			<stop  offset="0.39" style="stop-color:#4ECE54"/>
			<stop  offset="0.48" style="stop-color:#54D153"/>
			<stop  offset="0.6" style="stop-color:#66DB50"/>
			<stop  offset="0.73" style="stop-color:#82EA4B"/>
		</linearGradient>
		<path class="st32" d="M1627.7,968.5c-71.5,0.3-142.9,0.9-214.4,1.5c-236.7,2.2-473.5,5.7-710.2,8.3c-117.1,1.3-234.2,2.3-351.4,3
			c-59,0.3-118,0.4-177.1,0.5c-50,0-99.8-5-149.4-11.3c-45.7-6.4-91.5-13.3-137.4-17.9c5-36.9,9.9-73.9,13.4-111
			c4.4-46.6,7.9-93.3,10.6-140c5.5-93.9,8.2-187.9,9.2-281.9c0-0.5,0-1,0-1.5h1723.1c-6.3,101.8-12,203.7-15.1,305.7
			C1626.5,805.4,1626.7,886.9,1627.7,968.5z"/>
		<path class="st33" d="M-73.4,429.8c0,0,393.6-83,763-24.3c0,0,304.9,25.8,463.8,0c0,0,342.4-39.2,490.4,12.6
			C1643.7,418.1,144.2,511.4-73.4,429.8z"/>
		<path class="st34" d="M-80.8,521l16.2,1.5c208,19.2,394.2,31.9,476,36c284.9,14.5,379.2-20.3,680.6-32.1
			c135.1-5.3,320.1-6.3,545.1,12c-3.3,61.7-6.2,123.3-8,185c-0.7,24.1-1.3,48.2-1.6,72.3c-4.4-1.3-8-2.4-10.6-3.1
			c-261.3-77.1-545.9-30.4-813-83.9S247.4,600-81.2,537.3C-81.1,531.9-80.9,526.4-80.8,521z"/>
		<path class="st35" d="M-98.7,841.3c4.4-46.6,7.9-93.3,10.6-140c1.4-23.6,2.6-47.2,3.6-70.8c8.3-0.9,16.7-1.7,25.1-2.5
			c43.2-3.9,176.9-14.7,514.6,18c528.8,51.3,672,123.4,1020.2,108.1c54.9-2.4,106.2-6.6,153.2-11.8c-1.8,70.4-1.8,140.8-1,211.1
			C657.5,852.7,299,879.7,299,879.7c-157.6,11.8-295.8,30.9-408,50C-105.1,900.3-101.5,870.8-98.7,841.3z"/>
		<path class="st36" d="M1299.5,435.5c0,0-14.8-8.1-18.8-7.4s4.1-7.2,16,1.8C1301.5,433.4,1299.5,435.5,1299.5,435.5z"/>
		<path class="st36" d="M1302.7,435.5c0,0-6.2-18.6-12.9-20.5s10.6-4.8,14.1,7.8C1306.3,431.4,1302.7,435.5,1302.7,435.5z"/>
		<path class="st36" d="M1304.7,435.5c0,0,7.2-13.2,21.6-13.7s-21.6,14.5-21.6,14.5"/>
		<path class="st36" d="M1174.6,433.8c0,0-11.3,0-17.1-3.8s8.1-2,19.2-0.2c0,0-1-0.9-9.6-5.4s-6.2-8,0.6-4.8
			c4.7,2.4,9.3,5.2,13.6,8.3c0,0-12.4-10.1-12.5-12.1s2.2-2,13.7,10.6c0,0-10.5-10.6-8.3-15.8s10.2,14.6,10.2,14.6
			s-6.9-21.3-2.1-22.2s3.8,21.2,3.8,21.2s4.8-12.3,12.2-12.1s-9.6,13.2-11.2,13.4c0,0,0.7,0.9,3.1,0.4s9.2-7,13.1-7.2
			s9.6,4.4-12.9,14.7L1174.6,433.8z"/>
		<path class="st36" d="M385.1,420.6c0,0-15.1,0.1-22.7-5.1s10.7-2.7,25.5-0.2c0,0-1.4-1.2-12.8-7.1s-8.2-10.7,0.9-6.4
			c6.3,3.2,12.3,6.8,18,11c0,0-16.4-13.4-16.5-16s3-2.7,18.1,14.1c0,0-14-14-11-20.9s13.5,19.4,13.5,19.4s-9.2-28.2-2.8-29.4
			s5.1,28.1,5.1,28.1s6.3-16.3,16.1-16s-12.7,17.5-14.8,17.7c0,0,0.9,1.2,4.1,0.5s12.2-9.3,17.4-9.6s12.7,5.8-17.1,19.5L385.1,420.6
			z"/>
		<path class="st36" d="M960.8,433.5c0,0-11.7-8-14.8-7.2s3.2-7,12.6,1.7C962.4,431.5,960.8,433.5,960.8,433.5z"/>
		<path class="st36" d="M963.3,433.5c0,0-4.9-18.1-10.2-20s8.4-4.7,11.1,7.6C966.2,429.6,963.3,433.5,963.3,433.5z"/>
		<path class="st36" d="M964.9,433.5c0,0,5.7-12.9,17-13.4s-17,14.2-17,14.2"/>
		<path class="st36" d="M549.2,509.2c0,0-11.7-8-14.8-7.2s3.2-7,12.6,1.7C550.8,507.2,549.2,509.2,549.2,509.2z"/>
		<path class="st36" d="M549.2,510c0,0-4.9-18.1-10.2-20s8.4-4.7,11.1,7.6C552,506.1,549.2,510,549.2,510z"/>
		<path class="st36" d="M549.5,508.4c0,0,5.7-12.9,17-13.4s-17,14.2-17,14.2"/>
		<path class="st36" d="M821.9,488c0,0-11.7-8-14.8-7.2s3.2-7,12.6,1.7C823.5,486.1,821.9,488,821.9,488z"/>
		<path class="st36" d="M824.4,488c0,0-4.9-18.1-10.2-20s8.4-4.6,11.1,7.6C827.2,484.1,824.4,488,824.4,488z"/>
		<path class="st36" d="M826,488c0,0,5.7-12.9,17-13.4s-17,14.2-17,14.2"/>
		<path class="st36" d="M830.5,433.4c0,0-9.5-6.9-12-6.3s2.6-6.1,10.2,1.5C831.8,431.6,830.5,433.4,830.5,433.4z"/>
		<path class="st36" d="M832.6,433.4c0,0-4-15.8-8.2-17.4s6.8-4.1,9,6.6C834.9,429.9,832.6,433.4,832.6,433.4z"/>
		<path class="st36" d="M833.8,433.4c0,0,4.6-11.3,13.8-11.7S833.8,434,833.8,434"/>
		<path class="st37" d="M515.9,635.9c6.1,1.1,2.2-35.9,35.7-39.9c0,0-38.9,13.3-54,34.9c-2.1,3-3.8,6.3-4.8,9.8
			c-8,27.3,2.7-6.7,2.7-6.7s4-32.4-24.6-48.1c0,0,15,36.5,6.7,53.5S515.9,635.9,515.9,635.9z"/>
		<path class="st38" d="M1148.3,530.3c0,0-6-15.1-19.7-17.9c0,0,10.9,13.4,8.4,17.1S1148.3,530.3,1148.3,530.3z"/>
		<path class="st38" d="M1143.7,523.8c0,0,2.3-29.5,13.9-32.2v32.2H1143.7z"/>
		<path class="st38" d="M688,557.3c0,0-15.8-32-29.9-30.4c0,0,15.4,22.1,12.8,30.4H688z"/>
		<path class="st38" d="M700.9,556c-5.6-6.4-6.5-14.9-2.7-20.7c3-4.6,8.1-6,9.7-6.3c0,0-30.8,2.2-23.8,21.9c0.9,2.5,2.4,7.5,6.9,8.7
			C694.3,560.5,698.1,559,700.9,556z"/>
		
			<linearGradient id="SVGID_30_" gradientUnits="userSpaceOnUse" x1="-1102.413" y1="351.858" x2="-190.963" y2="583.938" gradientTransform="matrix(-1 -4.000000e-02 4.000000e-02 -1 1030.86 894.81)">
			<stop  offset="0" style="stop-color:#35AF5D"/>
			<stop  offset="0.12" style="stop-color:#37B26D"/>
			<stop  offset="0.38" style="stop-color:#3BB78A"/>
			<stop  offset="0.61" style="stop-color:#3EBB9D"/>
			<stop  offset="0.78" style="stop-color:#3FBCA3"/>
		</linearGradient>
		<path class="st39" d="M1672.1,409.8L1266.9,394c0,0,42-16.1,105-1.1c14.5-4.6,17.4-37.8,125.8-6.2c21-8,86.7-21.8,152.7-2.6
			c8.8-2.4,17.4-4.5,25.6-6.4C1674.7,388.4,1673.4,399.1,1672.1,409.8z"/>
	</g>
</g>
</svg>
