<?xml version="1.0" encoding="utf-8"?>
<!-- Generator: Adobe Illustrator 25.2.3, SVG Export Plug-In . SVG Version: 6.00 Build 0)  -->
<svg version="1.1" id="Layer_1" xmlns="http://www.w3.org/2000/svg" xmlns:xlink="http://www.w3.org/1999/xlink" x="0px" y="0px"
	 viewBox="0 0 1600 900" style="enable-background:new 0 0 1600 900;" xml:space="preserve">
<style type="text/css">
	.st0{clip-path:url(#SVGID_2_);}
	.st1{fill:#B57E54;}
	.st2{fill:#946134;}
	.st3{fill:#804F21;}
	.st4{fill:#9F7045;}
	.st5{fill:#5C9B32;}
	.st6{fill:#8CB121;}
	.st7{fill:#77AA2A;}
	.st8{fill:#B78B01;}
	.st9{fill:#EA6000;}
	.st10{fill:#D35600;}
	.st11{fill:#F1EDE3;}
	.st12{fill:#E6DFCE;}
</style>
<g>
	<defs>
		<rect id="SVGID_1_" width="1600" height="900"/>
	</defs>
	<clipPath id="SVGID_2_">
		<use xlink:href="#SVGID_1_"  style="overflow:visible;"/>
	</clipPath>
	<g class="st0">
		<path class="st1" d="M-3044.2,1732.4c0,0,1128.8,29.9,3011.8,140.5c1391.3,110.7,6967.8-242.1,7274.8-631.5l-15.1-2024.8
			l-10270.2-372.6L-3044.2,1732.4z"/>
		<path class="st2" d="M8086.7,842.8H-1678c-565.5,0-959.4-231.1-766.8-450l1119.1-1271.6c116.9-132.9,423.5-221.3,766.8-221.3
			h7526.5c343.3,0,649.9,88.5,766.8,221.3L8853.5,392.8C9046.1,611.7,8652.2,842.8,8086.7,842.8z"/>
		<path class="st3" d="M918.9,615.6c0,15-30.5,27.1-68.1,27.1s-68.1-12.1-68.1-27.1s30.5-27.1,68.1-27.1S918.9,600.6,918.9,615.6z"
			/>
		<path class="st3" d="M1349.3,736.4c0,15-30.5,27.1-68.1,27.1s-68.2-12.1-68.2-27.1s30.5-27.1,68.1-27.1S1349.3,721.4,1349.3,736.4
			z"/>
		<path class="st4" d="M1151.4,813.3c0,10.8-22,19.6-49.1,19.6s-49.1-8.8-49.1-19.6s22-19.6,49.1-19.6S1151.4,802.5,1151.4,813.3z"
			/>
		<ellipse class="st3" cx="1421" cy="483.4" rx="355" ry="105.1"/>
		<path class="st5" d="M1285.5-442.9c-6.4-17.7-22.5-31.8-44.1-43.4c-21.1-11.5-28.1-33-16.8-50.5c11.6-18.1,15.2-39,7.8-59.5
			c-12.5-55.1-173.2-210.6-271.3-179.9c-89.3,22.4-122.5,184.5-91.6,232.8c10.8,17.2,35,28.3,64.3,36.2c28.6,8.1,38,27.7,24.5,44.8
			c-14.1,17.9-18.2,37.1-9.6,53.5c8.5,16.5,28.1,28.2,52.2,37.7c23.5,9.6,30.2,29.3,17.7,45.3c-13,16.6-17.5,35.3-11,52.8
			s22.4,31.6,43.8,43.4c20.9,11.7,27.6,32.8,16.2,49.5c-11.8,17.3-15.6,37.4-8.7,57.4c16.5,53.8,134.9,146.8,236.6,128.3
			c97.7-14,157.5-132.4,126.9-179.7c-10.8-16.9-35.1-27.1-64.4-34.4c-28.6-7.4-37.7-26.8-24-44.2c14.2-18.3,18.4-37.7,9.9-54
			c-8.4-16.4-27.7-27.6-51.7-36.7c-23.3-9.1-29.9-29-17.4-45.4C1287.5-406.1,1291.9-425.2,1285.5-442.9z"/>
		<path class="st6" d="M1295.1,71c-173-291.4-148.9-508.6-311.3-786.2c-2.6-4.8,0.5-9.7,6.8-10.8c6.2-1.1,13.2,1.8,16,6.5
			c170.6,281.8,164.7,506.3,356.4,775.2c8.2,13.9-0.4,29-18.3,34s-39.8-2.6-49-17.6C1295.5,71.8,1295.2,71.3,1295.1,71z"/>
		<path class="st6" d="M1530,67c89.9-361.9,228.6-424,327.6-769.9c1.8-5.7-1.8-11.4-8-12.8c-6-1.4-12.3,1.9-14.2,7.4
			c-109,331.6-255.7,394.7-373.3,758.4c-6.4,16.3,3.6,33.4,22.5,39.5s39.2-3.2,44.9-21C1529.7,68,1529.9,67.4,1530,67z"/>
		<path class="st7" d="M1374.9,73.9c-14.1-396.5,52.1-549,36.3-908.4c-0.3-6.3,5.4-11,12.7-10.3c7.1,0.7,13,6.2,13.5,12.5
			c29.3,370.8-27,542.7,17.6,909.2c2.3,19.1-13.6,35.7-36,36.3s-42.3-16.8-43.9-37.8C1375,75,1375,74.4,1374.9,73.9z"/>
		<path class="st8" d="M1597.7,89.8c-74.9-30.8-176.4-28.6-176.4-28.6s-104.5-2.2-179.7,30c31.8,11.3,98.2,19.1,175.8,19.1
			C1498.4,110.3,1567.8,101.9,1597.7,89.8z"/>
		<path class="st9" d="M1675.7,174.1c-4.6-41.6-37.5-67.7-78-84.3c-30,12.1-99.3,20.5-180.2,20.5c-33.3,0.1-66.6-1.5-99.7-4.8
			c-12.7,16.2-21.9,38.3-23.6,68.6c-2.4,44-3.4,176.9-1,331.4c42.1,6.4,84.6,9.5,127.2,9.4c110.6,0,206.9-19.7,258.3-48.9
			C1682.1,328.7,1680.2,214.3,1675.7,174.1z"/>
		<path class="st10" d="M1294.2,174.1c1.7-30.3,10.9-52.4,23.6-68.6c-16.1-1.7-30.7-3.7-43.3-6.1l-0.8-0.1
			c-5.7-1.1-10.8-2.2-15.7-3.4c-0.7-0.2-1.4-0.3-2.1-0.5c-5.3-1.3-10.1-2.7-14.2-4.2c-38.9,16.7-70.2,42.4-74.7,82.9
			s-6.4,155.2-3,292.9c30.3,16.7,75.2,30.1,129.2,38.5C1290.8,351,1291.8,218.1,1294.2,174.1z"/>
		<path class="st11" d="M1255.9,95.4c0.7,0.2,1.4,0.3,2.1,0.5C1257.4,95.7,1256.6,95.6,1255.9,95.4z"/>
		<path class="st11" d="M1273.7,99.3l0.8,0.1L1273.7,99.3z"/>
		<path class="st12" d="M1258,95.9c4.8,1.2,10,2.3,15.7,3.4C1268,98.2,1262.9,97.1,1258,95.9z"/>
		<path class="st12" d="M1241.7,91.2c4.2,1.5,8.9,2.9,14.2,4.2C1250.6,94.1,1245.9,92.7,1241.7,91.2z"/>
		<path class="st12" d="M1317.8,105.5c-16.1-1.7-30.6-3.7-43.3-6.1C1287.2,101.8,1301.8,103.8,1317.8,105.5z"/>
		<path class="st10" d="M1225.9,307.7c0,0,102.1,28.6,222.3,13.2C1397.1,353.8,1270.9,340.7,1225.9,307.7z"/>
		<path class="st10" d="M1618.2,439.4c0,0-177.5,33.9-343.4,16.9C1326.8,498.7,1597,483.2,1618.2,439.4z"/>
	</g>
</g>
</svg>
