<svg id="a3abbb86-84cd-4489-8e65-38ffff9db21c" data-name="Layer 1" xmlns="http://www.w3.org/2000/svg" xmlns:xlink="http://www.w3.org/1999/xlink" width="1600" height="900" viewBox="0 0 1600 900">
  <defs>
    <style>
      .f0dfbec4-ebd4-401b-9028-3741cfeeec9e {
        fill: none;
      }

      .bf2db01f-5ad5-457f-b26e-7d974ba4802d {
        clip-path: url(#e4060f9e-388f-445e-984c-e5fa64b564e0);
      }

      .b8169cd9-367b-4c24-9675-4ce6407b6aae {
        fill: url(#e1f74507-e423-40d0-a7a8-0a409d74d886);
      }

      .b84dad15-6ec2-4f8a-bbc6-46a7a5a2e06f {
        clip-path: url(#a08d959a-f640-42f6-bc7a-2ff757fdddeb);
      }

      .aac954fe-ecc5-40ef-b2fc-68722d8db0a1 {
        fill: #09b1f2;
      }

      .f6c36ccc-8df0-4d5d-8e90-d896dba9ed2d {
        opacity: 0.03;
      }

      .eb72ff94-eacd-4a26-a984-e0ca2f72dc1a {
        clip-path: url(#aa74ec59-1116-481b-ba87-50f2e0f3093b);
      }

      .bbb46d59-01cc-4397-a259-186e8833599f {
        fill: #0eafe0;
      }
    </style>
    <clipPath id="e4060f9e-388f-445e-984c-e5fa64b564e0">
      <rect class="f0dfbec4-ebd4-401b-9028-3741cfeeec9e" y="-920" width="1600" height="900"/>
    </clipPath>
    <linearGradient id="e1f74507-e423-40d0-a7a8-0a409d74d886" x1="-77.79" y1="-87.47" x2="1658.38" y2="-87.47" gradientUnits="userSpaceOnUse">
      <stop offset="0.19" stop-color="#4ea40f"/>
      <stop offset="0.21" stop-color="#4ca40f"/>
      <stop offset="0.66" stop-color="#2c9b0a"/>
      <stop offset="0.91" stop-color="#209808"/>
    </linearGradient>
    <clipPath id="a08d959a-f640-42f6-bc7a-2ff757fdddeb">
      <rect class="f0dfbec4-ebd4-401b-9028-3741cfeeec9e" width="1600" height="900"/>
    </clipPath>
    <clipPath id="aa74ec59-1116-481b-ba87-50f2e0f3093b">
      <rect class="f0dfbec4-ebd4-401b-9028-3741cfeeec9e" x="-1620" width="1600" height="900"/>
    </clipPath>
  </defs>
  <g class="bf2db01f-5ad5-457f-b26e-7d974ba4802d">
    <polygon class="b8169cd9-367b-4c24-9675-4ce6407b6aae" points="-75.75 19.77 1658.38 11.6 1656.26 -185.6 -77.79 -194.7 -75.75 19.77"/>
  </g>
  <g class="b84dad15-6ec2-4f8a-bbc6-46a7a5a2e06f">
    <rect class="aac954fe-ecc5-40ef-b2fc-68722d8db0a1" width="1600" height="900"/>
    <g class="f6c36ccc-8df0-4d5d-8e90-d896dba9ed2d">
      <path d="M323.56,139.33a5.22,5.22,0,0,0-7.38-.3L303.23,151,291.3,138a5.23,5.23,0,0,0-7.69,7.08L295.54,158l-13,11.92a5.23,5.23,0,0,0,7.08,7.69l12.95-11.92,11.93,13a5.22,5.22,0,0,0,7.68-7.08l-11.92-13,12.95-11.92A5.23,5.23,0,0,0,323.56,139.33Z"/>
      <path d="M281.5,55.73a5.23,5.23,0,0,0-6.93,2.58l-7.31,16-16-7.31a5.23,5.23,0,0,0-4.35,9.51l16,7.31-7.31,16a5.23,5.23,0,0,0,9.51,4.34l7.31-16,16,7.31A5.23,5.23,0,0,0,292.78,86l-16-7.31,7.31-16A5.22,5.22,0,0,0,281.5,55.73Z"/>
      <path d="M21.66,297.7a5.23,5.23,0,0,0,7.23,1.54l14.77-9.59,9.59,14.77A5.22,5.22,0,0,0,62,298.73L52.43,284l14.76-9.59a5.22,5.22,0,1,0-5.69-8.76l-14.76,9.58-9.59-14.76a5.22,5.22,0,1,0-8.76,5.69L38,280.88,23.2,290.47A5.23,5.23,0,0,0,21.66,297.7Z"/>
      <path d="M285.16,214.66a5.23,5.23,0,0,0-6.25,4l-3.86,17.17-17.18-3.86a5.22,5.22,0,1,0-2.3,10.19L272.75,246l-3.87,17.17a5.23,5.23,0,0,0,10.2,2.3L283,248.28l17.16,3.86a5.22,5.22,0,1,0,2.3-10.19l-17.17-3.87,3.87-17.18A5.22,5.22,0,0,0,285.16,214.66Z"/>
      <path d="M104.83,91.28l-11,17.11a5.23,5.23,0,0,0,8.8,5.65l11-17.1a5.23,5.23,0,1,0-8.79-5.66Z"/>
      <path d="M738.26,395.22l20.19,2.45a5.57,5.57,0,0,0,1.08,0,5.22,5.22,0,0,0,.39-10.39l-20.19-2.45a5.58,5.58,0,0,0-1.08,0,5.22,5.22,0,0,0-.39,10.4Z"/>
      <path d="M508,147.4a5.22,5.22,0,0,0-1,7.31L519.14,171a5.23,5.23,0,1,0,8.37-6.26l-12.17-16.28A5.22,5.22,0,0,0,508,147.4Z"/>
      <path d="M231.35,285.67a28.06,28.06,0,1,0-13.28,37.4A28.09,28.09,0,0,0,231.35,285.67Zm-17.77,28a17.61,17.61,0,1,1,8.33-23.47A17.63,17.63,0,0,1,213.58,313.63Z"/>
      <path d="M42.89,14.3A28.05,28.05,0,1,0,75.3-8.57,28.08,28.08,0,0,0,42.89,14.3Zm10.3,1.78A17.6,17.6,0,1,1,67.53,36.42,17.62,17.62,0,0,1,53.19,16.08Z"/>
      <path d="M431.24,454.29A28.1,28.1,0,0,0,468.63,441a5.12,5.12,0,0,0,.47-2.7,5.22,5.22,0,0,0-9.91-2.74,17.41,17.41,0,1,1-31.79-14.18,5.12,5.12,0,0,0,.47-2.7A5.22,5.22,0,0,0,418,416a29.26,29.26,0,0,0,13.28,38.34Z"/>
      <path d="M199.4,145.45a5.22,5.22,0,0,0,7.18,1.76,17.6,17.6,0,1,1,18.26,30.1,5.23,5.23,0,1,0,5.42,8.94,28.05,28.05,0,1,0-29.1-48A5.21,5.21,0,0,0,199.4,145.45Z"/>
      <path d="M-1.82,148.92a5.23,5.23,0,0,0-.29,7.39,28.06,28.06,0,1,0,41.18-38.12,5.23,5.23,0,1,0-7.68,7.1A17.6,17.6,0,1,1,5.56,149.21,5.22,5.22,0,0,0-1.82,148.92Z"/>
      <path d="M153.37,185.76a5.23,5.23,0,0,0,3.94,9.68,28.06,28.06,0,1,0-21.12-52,5.23,5.23,0,0,0,3.94,9.69,17.6,17.6,0,1,1,13.24,32.62Z"/>
      <path d="M532.09,70.27a28.09,28.09,0,0,0,37.12-14A5.23,5.23,0,0,0,559.69,52a17.6,17.6,0,0,1-32.07-14.52,5.23,5.23,0,1,0-9.52-4.31A28.09,28.09,0,0,0,532.09,70.27Z"/>
      <path d="M613.88,394.74A28.08,28.08,0,0,0,649.34,377a5.23,5.23,0,0,0-9.92-3.3A17.6,17.6,0,0,1,606,362.57a5.23,5.23,0,1,0-9.92-3.3A28.09,28.09,0,0,0,613.88,394.74Z"/>
      <path d="M473.67,155.61c4.39-4,9.86-8.92,9.43-18.27a5.23,5.23,0,1,0-10.44.48c.19,4.23-1.93,6.35-6,10.05-4.4,4-9.87,8.92-9.44,18.28s6.33,13.78,11.07,17.34c4.4,3.3,6.7,5.23,6.89,9.46s-1.92,6.35-6,10c-4.39,4-9.86,8.92-9.43,18.27s6.33,13.78,11.06,17.34c4.4,3.31,6.71,5.22,6.9,9.45s-1.92,6.36-6,10c-4.4,4-9.87,8.93-9.44,18.27a5.23,5.23,0,1,0,10.44-.48c-.19-4.23,1.93-6.35,6-10,4.39-4,9.86-8.92,9.43-18.26s-6.32-13.78-11.06-17.34c-4.4-3.3-6.71-5.23-6.9-9.46s1.92-6.35,6-10c4.39-4,9.86-8.92,9.43-18.27s-6.32-13.78-11.06-17.34c-4.4-3.3-6.7-5.23-6.9-9.46S469.59,159.31,473.67,155.61Z"/>
      <path d="M538.44,228.56c-3.44-2.46-3.8-5.44-4.17-10.92-.4-5.92-.91-13.28-8.52-18.72a5.23,5.23,0,1,0-6.08,8.5c3.44,2.46,3.79,5.44,4.18,10.93.4,5.91.9,13.26,8.51,18.71s14.73,3.55,20.46,2c5.32-1.42,8.25-2,11.7.43s3.8,5.44,4.17,10.92c.4,5.91.91,13.27,8.52,18.72s14.74,3.56,20.47,2c5.31-1.4,8.26-2,11.7.44s3.8,5.45,4.18,10.94c.41,5.91.92,13.27,8.52,18.71a5.23,5.23,0,0,0,6.09-8.5c-3.45-2.46-3.8-5.43-4.18-10.92-.41-5.92-.91-13.28-8.53-18.73s-14.73-3.55-20.47-2c-5.31,1.4-8.25,2-11.7-.44s-3.79-5.44-4.18-10.93c-.4-5.91-.9-13.27-8.51-18.71s-14.74-3.56-20.47-2C544.81,230.41,541.88,231,538.44,228.56Z"/>
      <path d="M104,328.25c-5.92,7.25-4.49,14.48-3.34,20.3,1.07,5.4,1.5,8.36-1.18,11.64s-5.68,3.45-11.17,3.46c-5.93,0-13.31.06-19.23,7.3a5.23,5.23,0,0,0,8.09,6.62c2.68-3.28,5.68-3.44,11.17-3.47,5.93,0,13.3-.05,19.23-7.29s4.49-14.47,3.34-20.29c-1.07-5.4-1.5-8.37,1.18-11.65s5.68-3.44,11.17-3.46c5.93,0,13.31-.06,19.23-7.3s4.5-14.48,3.35-20.3c-1.06-5.39-1.5-8.36,1.19-11.64a5.23,5.23,0,1,0-8.09-6.62c-5.93,7.25-4.5,14.48-3.35,20.3,1.06,5.39,1.49,8.36-1.19,11.64s-5.68,3.44-11.17,3.47C117.28,321,109.91,321,104,328.25Z"/>
      <path d="M472.27,337.17c-5.46.67-8.45.88-11.53-2s-3-5.92-2.64-11.4c.41-5.91.92-13.27-5.87-19.71s-14.11-5.54-20-4.82c-5.46.68-8.45.89-11.52-2s-3-5.9-2.64-11.39c.42-5.91.92-13.27-5.87-19.71a5.23,5.23,0,0,0-7.19,7.59c3.07,2.91,3,5.91,2.64,11.4-.41,5.91-.92,13.26,5.87,19.7s14.1,5.54,20,4.82c5.46-.67,8.46-.89,11.53,2s3,5.91,2.64,11.39c-.42,5.91-.92,13.27,5.87,19.71s14.11,5.54,20,4.82c5.46-.66,8.45-.88,11.53,2a5.23,5.23,0,1,0,7.19-7.59C485.47,335.55,478.16,336.45,472.27,337.17Z"/>
      <path d="M678.56,173c5.42-2.4,12.16-5.41,14.66-14.42s-1.72-15.07-5.12-19.93c-3.15-4.51-4.74-7.05-3.61-11.14a5.22,5.22,0,0,0-10.07-2.79c-2.5,9,1.72,15.06,5.12,19.92,3.15,4.51,4.74,7.06,3.61,11.14s-3.81,5.44-8.83,7.68c-5.42,2.41-12.15,5.4-14.66,14.42s1.73,15.06,5.12,19.92c3.16,4.52,4.75,7,3.61,11.14s-3.8,5.43-8.83,7.66C654.15,219,647.41,222,644.91,231A5.23,5.23,0,1,0,655,233.8c1.13-4.09,3.81-5.44,8.83-7.68,5.42-2.41,12.15-5.4,14.65-14.42s-1.72-15.06-5.11-19.91c-3.15-4.52-4.75-7.06-3.61-11.15S673.54,175.21,678.56,173Z"/>
      <path d="M348.32,148.92c6.21,7,13.58,6.75,19.51,6.54,5.5-.19,8.5-.14,11.31,3s2.49,6.15,1.63,11.59c-.92,5.85-2.07,13.13,4.13,20.14s13.58,6.75,19.51,6.54c5.5-.19,8.49-.14,11.3,3s2.49,6.15,1.63,11.58c-.92,5.85-2.07,13.14,4.14,20.14a5.22,5.22,0,1,0,7.82-6.93c-2.81-3.17-2.49-6.15-1.63-11.59.92-5.85,2.07-13.13-4.14-20.13S410,186.11,404,186.32c-5.5.19-8.5.14-11.31-3s-2.49-6.15-1.64-11.58c.93-5.85,2.07-13.14-4.13-20.15s-13.58-6.75-19.5-6.54c-5.5.19-8.5.14-11.31-3a5.23,5.23,0,1,0-7.83,6.93Z"/>
      <path d="M445.49,36.64c-1.56-3.93-.25-6.62,2.41-11.44,2.86-5.19,6.43-11.65,3-20.35a5.23,5.23,0,1,0-9.72,3.85c1.56,3.93.25,6.63-2.41,11.45-2.87,5.19-6.43,11.64-3,20.34s10.46,11,16.11,12.79c5.23,1.69,8,2.76,9.6,6.7s.25,6.62-2.41,11.44c-2.86,5.19-6.43,11.65-3,20.35a5.23,5.23,0,1,0,9.72-3.85c-1.57-3.93-.25-6.63,2.41-11.45,2.86-5.19,6.42-11.64,3-20.34s-10.47-11-16.11-12.8C449.85,41.64,447.05,40.58,445.49,36.64Z"/>
      <path d="M562.67,131.31a5.23,5.23,0,1,0-7.31,7.47c3,3,2.93,6,2.46,11.44-.5,5.91-1.13,13.25,5.56,19.79s14,5.76,19.92,5.13c5.47-.59,8.47-.75,11.5,2.21s2.92,6,2.46,11.43c-.51,5.91-1.14,13.26,5.56,19.8a5.23,5.23,0,0,0,7.31-7.47c-3-3-2.93-6-2.46-11.44.5-5.91,1.13-13.25-5.56-19.79s-14-5.76-19.92-5.13c-5.48.58-8.47.75-11.5-2.21s-2.92-5.95-2.46-11.43C568.74,145.2,569.37,137.85,562.67,131.31Z"/>
      <path d="M594.61,99.18a5.25,5.25,0,1,0,1.27,7.31A5.23,5.23,0,0,0,594.61,99.18Z"/>
      <path d="M49.71,80.36a5.25,5.25,0,1,0-1.88,7.18A5.24,5.24,0,0,0,49.71,80.36Z"/>
      <path d="M362.88,404.34a5.25,5.25,0,1,0-7.17,1.93A5.25,5.25,0,0,0,362.88,404.34Z"/>
      <path d="M43.89,403.51A5.25,5.25,0,1,0,51.3,403,5.25,5.25,0,0,0,43.89,403.51Z"/>
      <path d="M637,82a5.25,5.25,0,1,0-7.38-.77A5.24,5.24,0,0,0,637,82Z"/>
      <path d="M455.27,397.31a5.25,5.25,0,1,0-7-2.58A5.24,5.24,0,0,0,455.27,397.31Z"/>
      <path d="M112.07,272.2a5.25,5.25,0,1,0-5.3-5.2A5.25,5.25,0,0,0,112.07,272.2Z"/>
      <path d="M718.83-3.26a5.25,5.25,0,1,0,6.92,2.69A5.25,5.25,0,0,0,718.83-3.26Z"/>
      <path d="M329.58,296.58a5.25,5.25,0,1,0-5.19-5.31A5.24,5.24,0,0,0,329.58,296.58Z"/>
      <path d="M516.72,279a5.25,5.25,0,1,0,5.47-5A5.24,5.24,0,0,0,516.72,279Z"/>
      <path d="M672.94,416.59a5.25,5.25,0,1,0-7.14-2A5.26,5.26,0,0,0,672.94,416.59Z"/>
      <path d="M272.59,309.49a5.25,5.25,0,1,0,7.43.14A5.25,5.25,0,0,0,272.59,309.49Z"/>
      <path d="M307.11,396.68a5.25,5.25,0,1,0,6.51,3.58A5.25,5.25,0,0,0,307.11,396.68Z"/>
      <path d="M698.56,357.45a5.25,5.25,0,1,0,2.44,7A5.24,5.24,0,0,0,698.56,357.45Z"/>
      <path d="M314.35,46.22a5.25,5.25,0,1,0-7.41-.38A5.25,5.25,0,0,0,314.35,46.22Z"/>
      <path d="M505.5-2.53a5.24,5.24,0,0,0,4.59,5.83,5.24,5.24,0,0,0,5.83-4.59,5.24,5.24,0,0,0-4.59-5.83A5.24,5.24,0,0,0,505.5-2.53Z"/>
      <path d="M657.49,256.05a5.25,5.25,0,1,0,7.06,2.29A5.25,5.25,0,0,0,657.49,256.05Z"/>
      <path d="M373.06,277.87a5.25,5.25,0,1,0-7.42-.2A5.25,5.25,0,0,0,373.06,277.87Z"/>
      <path d="M340.52,223.56a5.25,5.25,0,1,0-6.59,3.42A5.26,5.26,0,0,0,340.52,223.56Z"/>
      <path d="M158.72,230a5.25,5.25,0,1,0,6.17,4.14A5.26,5.26,0,0,0,158.72,230Z"/>
      <path d="M368.74,338.09a5.25,5.25,0,1,0-6.11,4.21A5.24,5.24,0,0,0,368.74,338.09Z"/>
      <path d="M703.24,221.12a5.25,5.25,0,1,0,3.46-6.57A5.25,5.25,0,0,0,703.24,221.12Z"/>
      <path d="M595.11,19.37a5.25,5.25,0,1,0,1.67,7.24A5.25,5.25,0,0,0,595.11,19.37Z"/>
      <path d="M656.24,23.49a5.25,5.25,0,1,0,5.31-5.19A5.24,5.24,0,0,0,656.24,23.49Z"/>
      <path d="M265.28,367.45a5.25,5.25,0,1,0-5.49,5A5.25,5.25,0,0,0,265.28,367.45Z"/>
      <path d="M339.48,105.45a5.25,5.25,0,1,0,7.34-1.1A5.24,5.24,0,0,0,339.48,105.45Z"/>
      <path d="M547.15,362.4a5.25,5.25,0,1,0,6.24,4A5.25,5.25,0,0,0,547.15,362.4Z"/>
      <path d="M212.13,218.13a5.25,5.25,0,1,0,2.42,7A5.26,5.26,0,0,0,212.13,218.13Z"/>
      <path d="M100.89,217.73a5.25,5.25,0,1,0,6.93,2.65A5.25,5.25,0,0,0,100.89,217.73Z"/>
      <path d="M314.69,336.27a5.25,5.25,0,1,0,0,7.43A5.25,5.25,0,0,0,314.69,336.27Z"/>
      <path d="M219.11,382.33a5.25,5.25,0,1,0-.67,7.39A5.24,5.24,0,0,0,219.11,382.33Z"/>
      <path d="M354.05,78.93a5.25,5.25,0,1,0-4.19-6.13A5.26,5.26,0,0,0,354.05,78.93Z"/>
      <path d="M379.27,225.07a5.25,5.25,0,1,0-3.53,6.53A5.26,5.26,0,0,0,379.27,225.07Z"/>
      <path d="M727,427.2a5.25,5.25,0,1,0-7.17-2A5.26,5.26,0,0,0,727,427.2Z"/>
      <path d="M589.77,323.12a5.25,5.25,0,1,0-5.11,5.38A5.24,5.24,0,0,0,589.77,323.12Z"/>
      <path d="M152.32,44.85a5.25,5.25,0,1,0-6.56,3.48A5.25,5.25,0,0,0,152.32,44.85Z"/>
      <path d="M503.41,400.78a5.25,5.25,0,1,0,.63-7.4A5.25,5.25,0,0,0,503.41,400.78Z"/>
      <path d="M693.56,87.76a5.25,5.25,0,1,0,.31,7.41A5.25,5.25,0,0,0,693.56,87.76Z"/>
      <path d="M354.83,39.18a5.25,5.25,0,1,0-3.6-6.49A5.25,5.25,0,0,0,354.83,39.18Z"/>
      <path d="M401.35,40.86A5.25,5.25,0,1,0,394,42.1,5.24,5.24,0,0,0,401.35,40.86Z"/>
      <path d="M400.89,367.08a5.25,5.25,0,1,0-6.76-3.06A5.24,5.24,0,0,0,400.89,367.08Z"/>
      <path d="M722,112.41a5.25,5.25,0,1,0,7.37-1A5.26,5.26,0,0,0,722,112.41Z"/>
      <path d="M184,100.43a5.25,5.25,0,1,0-3.82-6.37A5.26,5.26,0,0,0,184,100.43Z"/>
      <path d="M401.33,95.76a5.25,5.25,0,1,0-6.69-3.22A5.25,5.25,0,0,0,401.33,95.76Z"/>
      <path d="M530.85,316.73a5.25,5.25,0,1,0,6.84,2.88A5.26,5.26,0,0,0,530.85,316.73Z"/>
      <path d="M9.44,370.07a5.25,5.25,0,1,0-7.39.66A5.25,5.25,0,0,0,9.44,370.07Z"/>
      <path d="M711.3,163.09a5.25,5.25,0,1,0,7,2.55A5.25,5.25,0,0,0,711.3,163.09Z"/>
      <path d="M634.87,139.33a5.25,5.25,0,1,0-5.77-4.67A5.25,5.25,0,0,0,634.87,139.33Z"/>
      <path d="M90.81,175a5.25,5.25,0,1,0-3.34-6.63A5.25,5.25,0,0,0,90.81,175Z"/>
      <path d="M44.05,211.5a5.25,5.25,0,1,0,5.34-5.15A5.24,5.24,0,0,0,44.05,211.5Z"/>
      <path d="M711.4,48.51a5.25,5.25,0,1,0,6.48,3.62A5.25,5.25,0,0,0,711.4,48.51Z"/>
      <path d="M44.41,340.54A5.25,5.25,0,1,0,50,345.47,5.24,5.24,0,0,0,44.41,340.54Z"/>
      <path d="M254.48,406a5.25,5.25,0,1,0,1.33,7.3A5.25,5.25,0,0,0,254.48,406Z"/>
      <path d="M523,113.7a5.25,5.25,0,1,0-5.79-4.64A5.25,5.25,0,0,0,523,113.7Z"/>
      <path d="M126.3,387.4a5.25,5.25,0,1,0,4.1,6.19A5.25,5.25,0,0,0,126.3,387.4Z"/>
      <path d="M205,54.25a5.25,5.25,0,1,0-5.18-5.32A5.24,5.24,0,0,0,205,54.25Z"/>
      <path d="M174.89,369.47a5.25,5.25,0,1,0,.41-7.41A5.24,5.24,0,0,0,174.89,369.47Z"/>
      <path d="M428.74,137.9a5.25,5.25,0,1,0-5-5.49A5.25,5.25,0,0,0,428.74,137.9Z"/>
      <path d="M687.94,821.84a5.23,5.23,0,0,0-6.36-3.77l-19.7,5a5.23,5.23,0,0,0,2.59,10.13l19.7-5A5.22,5.22,0,0,0,687.94,821.84Z"/>
      <path d="M582.3,469.21a5.22,5.22,0,0,0-6.48-3.54l-16.9,5-5-16.9a5.23,5.23,0,0,0-10,2.94l5,16.9L532,478.52a5.23,5.23,0,1,0,2.94,10l16.88-4.95,5,16.88a5.23,5.23,0,1,0,10-2.94l-5-16.89,16.9-4.95A5.23,5.23,0,0,0,582.3,469.21Z"/>
      <path d="M608,712.58a5.22,5.22,0,0,0-3.07-6.72l-19.06-7.11a5.22,5.22,0,1,0-3.65,9.79l19,7.11A5.23,5.23,0,0,0,608,712.58Z"/>
      <path d="M704.05,785.24a5.22,5.22,0,0,0,2.67-6.89l-8.2-18.61A5.22,5.22,0,1,0,689,764l8.2,18.61A5.23,5.23,0,0,0,704.05,785.24Z"/>
      <path d="M367.94,555.5l12.48-16.06a5.23,5.23,0,0,0-8.25-6.42l-12.48,16.06a5.23,5.23,0,1,0,8.25,6.42Z"/>
      <path d="M449.05,658.48a5.22,5.22,0,1,0,9.22-4.91l-9.55-18a5.23,5.23,0,0,0-9.23,4.91Z"/>
      <path d="M490.35,543.13a5.23,5.23,0,0,0,7.9,5.56l14.88-9.42,9.41,14.88a5.22,5.22,0,0,0,8.83-5.58L522,533.69l14.88-9.42a5.22,5.22,0,1,0-5.58-8.82l-14.88,9.41L507,510a5.22,5.22,0,1,0-8.82,5.58l9.41,14.89-14.88,9.41A5.22,5.22,0,0,0,490.35,543.13Z"/>
      <path d="M251.44,714.53a5.23,5.23,0,0,0,4.25-6l-3-17.34,17.35-3a5.22,5.22,0,0,0-1.8-10.29l-17.34,3-3-17.35a5.22,5.22,0,1,0-10.29,1.8l3,17.34-17.35,3a5.24,5.24,0,0,0-3.38,2.14A5.23,5.23,0,0,0,225,696l17.35-3,3,17.35A5.22,5.22,0,0,0,251.44,714.53Z"/>
      <path d="M415.83,830.5a28.06,28.06,0,1,0-36.29-16A28.1,28.1,0,0,0,415.83,830.5Zm-26.54-19.81a17.6,17.6,0,1,1,22.77,10.06A17.63,17.63,0,0,1,389.29,810.69Z"/>
      <path d="M544.61,862.64a28.06,28.06,0,1,0,38.89,7.81A28.09,28.09,0,0,0,544.61,862.64Zm25.3,38a17.6,17.6,0,1,1,4.89-24.41A17.63,17.63,0,0,1,569.91,900.65Z"/>
      <path d="M144.58,724.77a28.06,28.06,0,1,0-39.64,1.71A28.09,28.09,0,0,0,144.58,724.77Zm-32.58-6a17.6,17.6,0,1,1,24.87-1.08A17.64,17.64,0,0,1,112,718.78Z"/>
      <path d="M664.1,679.13A28.06,28.06,0,1,0,628.8,661,28.09,28.09,0,0,0,664.1,679.13Zm-25.35-21.31a17.6,17.6,0,1,1,22.15,11.36A17.62,17.62,0,0,1,638.75,657.82Z"/>
      <path d="M359.78,651a5.22,5.22,0,0,0-5,5.4,17.6,17.6,0,1,1-35.19,1.17,5.22,5.22,0,1,0-10.44.35,28.05,28.05,0,1,0,56.07-1.87A5.21,5.21,0,0,0,359.78,651Z"/>
      <path d="M156.64,857.81a5.23,5.23,0,1,0-9.3-4.78A17.6,17.6,0,1,1,116,837a5.23,5.23,0,1,0-9.3-4.78,28.06,28.06,0,0,0,49.92,25.63Z"/>
      <path d="M422.89,577.17A17.62,17.62,0,0,1,439.15,596a5.22,5.22,0,0,0,10.42.77,28.05,28.05,0,1,0-55.95-4.12,5.22,5.22,0,1,0,10.42.77A17.63,17.63,0,0,1,422.89,577.17Z"/>
      <path d="M60.63,444.85A17.62,17.62,0,0,1,39.9,431.07a5.37,5.37,0,0,0-10.25,3,28.16,28.16,0,0,0,55-12,5.22,5.22,0,0,0-10.31,1.49,5.57,5.57,0,0,0,.06,1.52,16.68,16.68,0,0,1-13.78,19.79Z"/>
      <path d="M71.2,597.82c9.34.62,14.4-4.74,18.47-9.06,3.77-4,5.93-6.08,10.16-5.8s6.1,2.62,9.3,7.09c3.46,4.81,7.77,10.8,17.11,11.41a5.23,5.23,0,1,0,.69-10.43c-4.23-.28-6.1-2.62-9.31-7.08-3.46-4.81-7.76-10.8-17.1-11.42s-14.39,4.75-18.46,9.06c-3.78,4-5.94,6.08-10.17,5.8s-6.1-2.61-9.31-7.08c-3.45-4.81-7.77-10.8-17.1-11.41S31.08,573.64,27,578c-3.78,4-5.94,6.07-10.17,5.8s-6.11-2.63-9.32-7.1c-3.47-4.8-7.77-10.79-17.11-11.41a5.23,5.23,0,0,0-5.56,4.87,5.23,5.23,0,0,0,4.87,5.56C-6,576-4.18,578.3-1,582.77c3.47,4.81,7.77,10.8,17.12,11.41s14.4-4.74,18.47-9.06c3.77-4,5.94-6.08,10.17-5.8s6.09,2.63,9.31,7.09C57.56,591.22,61.86,597.21,71.2,597.82Z"/>
      <path d="M216.12,816.9c1.4,5.76,3.15,12.92,11.57,17a5.23,5.23,0,0,0,4.56-9.41c-3.82-1.84-4.67-4.72-6-10.06-1.4-5.76-3.15-12.92-11.57-17s-15.12-1-20.51,1.47c-5,2.29-7.79,3.41-11.6,1.56s-4.67-4.72-6-10.06c-1.4-5.76-3.15-12.93-11.57-17s-15.13-1-20.52,1.47c-5,2.28-7.79,3.4-11.6,1.55a5.23,5.23,0,0,0-4.56,9.41c8.43,4.08,15.13,1,20.52-1.47,5-2.29,7.8-3.4,11.61-1.55s4.66,4.72,6,10.06c1.4,5.76,3.14,12.92,11.56,17s15.13,1,20.52-1.47c5-2.3,7.79-3.4,11.6-1.56S214.83,811.56,216.12,816.9Z"/>
      <path d="M323.11,496.85c-2.86-8.91-9.71-11.63-15.22-13.82-5.11-2-7.85-3.28-9.15-7.32a9.71,9.71,0,0,1-.43-2.31c.16-2.47,1.49-4.73,3.59-8,2.48-3.87,5.41-8.48,5.27-14.5a19.17,19.17,0,0,0-1-6.56c-2.87-8.91-9.72-11.63-15.23-13.82-5.11-2-7.84-3.29-9.14-7.32a5.22,5.22,0,0,0-10.17,2,5.1,5.1,0,0,0,.22,2.11c2.87,8.91,9.72,11.63,15.24,13.82,5.1,2,7.83,3.29,9.13,7.32a9,9,0,0,1,.43,2.32c-.15,2.47-1.49,4.73-3.58,8-2.48,3.86-5.41,8.47-5.27,14.49a18.84,18.84,0,0,0,1,6.55c2.87,8.92,9.72,11.64,15.23,13.83,5.12,2,7.84,3.28,9.14,7.31a9.69,9.69,0,0,1,.43,2.32c-.16,2.46-1.49,4.72-3.59,8-2.48,3.87-5.41,8.48-5.27,14.5a19.13,19.13,0,0,0,1,6.56,5.22,5.22,0,0,0,10.17-2,5.27,5.27,0,0,0-.22-2.11,8.87,8.87,0,0,1-.43-2.32c.15-2.47,1.49-4.73,3.58-8,2.48-3.87,5.41-8.47,5.27-14.49A18.89,18.89,0,0,0,323.11,496.85Z"/>
      <path d="M290.89,627c-3.64-2.17-4.24-5.11-5.09-10.54-.9-5.86-2-13.14-10.07-17.93s-15-2.29-20.55-.29c-5.18,1.86-8.06,2.73-11.7.56s-4.25-5.1-5.09-10.53c-.89-5.86-2-13.15-10.07-17.93a5.22,5.22,0,0,0-5.34,9c3.64,2.17,4.24,5.11,5.09,10.54.9,5.86,2,13.14,10.06,17.92s15,2.3,20.57.3c5.19-1.86,8.05-2.73,11.69-.56s4.25,5.09,5.09,10.53c.89,5.86,2,13.15,10.07,17.93a5.22,5.22,0,1,0,5.34-9Z"/>
      <path d="M87.62,758.68a5.23,5.23,0,0,0-9.41-4.56c-1.85,3.81-4.72,4.66-10.07,6-5.75,1.39-12.92,3.13-17,11.55s-1,15.13,1.45,20.52c2.28,5,3.39,7.79,1.55,11.6s-4.73,4.66-10.07,6c-5.76,1.4-12.93,3.14-17,11.56a5.22,5.22,0,0,0,9.4,4.56c1.85-3.81,4.73-4.66,10.07-6,5.76-1.39,12.92-3.13,17-11.55s1-15.12-1.45-20.51c-2.29-5-3.4-7.8-1.55-11.61s4.72-4.66,10.07-6C76.36,768.84,83.53,767.1,87.62,758.68Z"/>
      <path d="M518.24,614.29c9.14-2,12.48-8.62,15.17-13.9,2.5-4.9,4-7.5,8.12-8.42s6.59.79,10.93,4.17c4.67,3.65,10.49,8.18,19.62,6.14a5.22,5.22,0,1,0-2.27-10.2c-4.14.92-6.59-.8-10.93-4.18-4.67-3.64-10.49-8.17-19.62-6.14s-12.47,8.61-15.16,13.9c-2.5,4.9-4,7.5-8.13,8.42s-6.59-.8-10.92-4.17c-4.67-3.65-10.5-8.18-19.63-6.14a5.22,5.22,0,0,0,2.27,10.2c4.14-.92,6.59.8,10.93,4.18C503.3,611.79,509.11,616.32,518.24,614.29Z"/>
      <path d="M660.29,881.17a5.25,5.25,0,1,0-6-4.35A5.25,5.25,0,0,0,660.29,881.17Z"/>
      <path d="M465.5,754.23a5.25,5.25,0,1,0-7.1-2.15A5.26,5.26,0,0,0,465.5,754.23Z"/>
      <path d="M502.33,779.93a5.25,5.25,0,1,0-7.42.06A5.24,5.24,0,0,0,502.33,779.93Z"/>
      <path d="M731.36,812.53a5.25,5.25,0,1,0-5.12,5.38A5.24,5.24,0,0,0,731.36,812.53Z"/>
      <path d="M588,801a5.25,5.25,0,1,0,4.61,5.82A5.25,5.25,0,0,0,588,801Z"/>
      <path d="M97.17,521.61a5.25,5.25,0,1,0-7-2.58A5.24,5.24,0,0,0,97.17,521.61Z"/>
      <path d="M109.58,801a5.25,5.25,0,1,0,7.4.53A5.26,5.26,0,0,0,109.58,801Z"/>
      <path d="M519.4,720.35a5.25,5.25,0,1,0-3.08-6.76A5.25,5.25,0,0,0,519.4,720.35Z"/>
      <path d="M560.57,662.34a5.25,5.25,0,1,0-5.12,5.38A5.25,5.25,0,0,0,560.57,662.34Z"/>
      <path d="M290.07,822.34a5.25,5.25,0,1,0,1.93,7.17A5.26,5.26,0,0,0,290.07,822.34Z"/>
      <path d="M406.79,735.46a5.25,5.25,0,1,0,7.2,1.82A5.26,5.26,0,0,0,406.79,735.46Z"/>
      <path d="M471.9,702.93a5.25,5.25,0,1,0-7.32,1.25A5.25,5.25,0,0,0,471.9,702.93Z"/>
      <path d="M668.9,538.38a5.25,5.25,0,1,0-3.82-6.37A5.25,5.25,0,0,0,668.9,538.38Z"/>
      <path d="M610.51,520.72a5.25,5.25,0,1,0-6.35-3.85A5.24,5.24,0,0,0,610.51,520.72Z"/>
      <path d="M322.41,884.16a5.25,5.25,0,1,0-7-2.47A5.25,5.25,0,0,0,322.41,884.16Z"/>
      <path d="M10,691.14a5.25,5.25,0,1,0-7,2.5A5.25,5.25,0,0,0,10,691.14Z"/>
      <path d="M1.09,739.54a5.24,5.24,0,0,0-7.18,1.89,5.26,5.26,0,0,0,1.89,7.18A5.25,5.25,0,0,0,3,746.71,5.24,5.24,0,0,0,1.09,739.54Z"/>
      <path d="M56.09,689.61a5.25,5.25,0,1,0-7.25,1.62A5.25,5.25,0,0,0,56.09,689.61Z"/>
      <path d="M722.26,545.85a5.25,5.25,0,1,0-3.45-6.57A5.24,5.24,0,0,0,722.26,545.85Z"/>
      <path d="M586.79,637.28a5.25,5.25,0,1,0-1.21-7.32A5.25,5.25,0,0,0,586.79,637.28Z"/>
      <path d="M616.07,760.26a5.25,5.25,0,1,0-7.07,2.27A5.25,5.25,0,0,0,616.07,760.26Z"/>
      <path d="M20.21,534.39a5.25,5.25,0,1,0,7.32-1.26A5.25,5.25,0,0,0,20.21,534.39Z"/>
      <path d="M719,614.6a5.25,5.25,0,1,0-1-7.35A5.25,5.25,0,0,0,719,614.6Z"/>
      <path d="M312.46,574.11a5.25,5.25,0,1,0,5.77,4.67A5.25,5.25,0,0,0,312.46,574.11Z"/>
      <path d="M366,732.54a5.25,5.25,0,1,0-7.12,2.11A5.25,5.25,0,0,0,366,732.54Z"/>
      <path d="M297.18,725.45a5.25,5.25,0,1,0,7.42-.29A5.25,5.25,0,0,0,297.18,725.45Z"/>
      <path d="M513.22,662.25a5.25,5.25,0,1,0-5.59,4.88A5.26,5.26,0,0,0,513.22,662.25Z"/>
      <path d="M731.13,673.76a5.25,5.25,0,1,0-6.89-2.76A5.23,5.23,0,0,0,731.13,673.76Z"/>
      <path d="M195.28,868.36a5.25,5.25,0,1,0,4.76,5.7A5.25,5.25,0,0,0,195.28,868.36Z"/>
      <path d="M738.64,751a5.25,5.25,0,1,0,3.05,6.77A5.24,5.24,0,0,0,738.64,751Z"/>
      <path d="M462,470.94a5.25,5.25,0,1,0,7.41-.4A5.24,5.24,0,0,0,462,470.94Z"/>
      <path d="M449.11,523.2a5.24,5.24,0,1,0,6.81,3A5.24,5.24,0,0,0,449.11,523.2Z"/>
      <path d="M165.77,643.69a5.25,5.25,0,1,0,7.25,1.6A5.25,5.25,0,0,0,165.77,643.69Z"/>
      <path d="M123.24,469.75a5.25,5.25,0,1,0,7.39.75A5.26,5.26,0,0,0,123.24,469.75Z"/>
      <path d="M663.68,717a5.25,5.25,0,1,0,7.17,1.92A5.24,5.24,0,0,0,663.68,717Z"/>
      <path d="M329.29,782.33a5.25,5.25,0,1,0-7-2.42A5.26,5.26,0,0,0,329.29,782.33Z"/>
      <path d="M551.32,754.07a5.25,5.25,0,1,0,6,4.31A5.25,5.25,0,0,0,551.32,754.07Z"/>
      <path d="M615.41,852.28a5.25,5.25,0,1,0,1.46-7.28A5.26,5.26,0,0,0,615.41,852.28Z"/>
      <path d="M263.9,772a5.25,5.25,0,1,0,7.36,1A5.24,5.24,0,0,0,263.9,772Z"/>
      <path d="M413.84,485a5.25,5.25,0,1,0,2.1,7.12A5.25,5.25,0,0,0,413.84,485Z"/>
      <path d="M189.69,691.8a5.25,5.25,0,1,0-6.41-3.74A5.24,5.24,0,0,0,189.69,691.8Z"/>
      <path d="M340.88,824.11a5.25,5.25,0,1,0,4.23,6.11A5.26,5.26,0,0,0,340.88,824.11Z"/>
      <path d="M648.5,786.16a5.25,5.25,0,1,0-2.16,7.11A5.26,5.26,0,0,0,648.5,786.16Z"/>
      <path d="M157.1,553.37a5.25,5.25,0,1,0-5.65-4.82A5.25,5.25,0,0,0,157.1,553.37Z"/>
      <path d="M376.09,888.15a5.25,5.25,0,1,0-2.56-7A5.26,5.26,0,0,0,376.09,888.15Z"/>
      <path d="M210.6,492.62a5.25,5.25,0,1,0-6.17,4.12A5.25,5.25,0,0,0,210.6,492.62Z"/>
      <path d="M94.39,643.92a5.25,5.25,0,1,0,6.76-3.06A5.24,5.24,0,0,0,94.39,643.92Z"/>
      <path d="M701.78,874.83a5.25,5.25,0,1,0,7.21,1.79A5.25,5.25,0,0,0,701.78,874.83Z"/>
      <path d="M197.74,542.67a5.25,5.25,0,1,0,5.56-4.92A5.26,5.26,0,0,0,197.74,542.67Z"/>
      <path d="M396.6,637.77a5.25,5.25,0,1,0,6.72,3.15A5.25,5.25,0,0,0,396.6,637.77Z"/>
      <path d="M38.69,727.83a5.25,5.25,0,1,0,7-2.47A5.24,5.24,0,0,0,38.69,727.83Z"/>
      <path d="M661.85,583.91a5.25,5.25,0,1,0,6.32-3.88A5.25,5.25,0,0,0,661.85,583.91Z"/>
      <path d="M251.82,869.33a5.25,5.25,0,1,0,7,2.54A5.26,5.26,0,0,0,251.82,869.33Z"/>
      <path d="M150.45,622a5.25,5.25,0,1,0-6,4.34A5.25,5.25,0,0,0,150.45,622Z"/>
      <path d="M192.45,607.93a5.25,5.25,0,1,0-7.3,1.38A5.25,5.25,0,0,0,192.45,607.93Z"/>
      <path d="M536,814.33a5.25,5.25,0,1,0,6.79-3A5.26,5.26,0,0,0,536,814.33Z"/>
      <path d="M51.85,644a5.25,5.25,0,1,0-7,2.43A5.25,5.25,0,0,0,51.85,644Z"/>
      <path d="M613.89,575.29a5.25,5.25,0,1,0-2.88-6.84A5.25,5.25,0,0,0,613.89,575.29Z"/>
      <path d="M251.87,518.5a5.25,5.25,0,1,0,4.45,5.94A5.25,5.25,0,0,0,251.87,518.5Z"/>
      <path d="M707.36,464.89a5.25,5.25,0,1,0,1.29,7.31A5.25,5.25,0,0,0,707.36,464.89Z"/>
      <path d="M28,860.14a5.25,5.25,0,1,0-4.67-5.77A5.26,5.26,0,0,0,28,860.14Z"/>
      <path d="M209.89,748a5.25,5.25,0,1,0-4.76-5.7A5.25,5.25,0,0,0,209.89,748Z"/>
      <path d="M344.34,611.66a5.25,5.25,0,1,0,3.3-6.65A5.24,5.24,0,0,0,344.34,611.66Z"/>
      <path d="M-2.25,638.08a5.24,5.24,0,0,0,3.45-6.56,5.25,5.25,0,0,0-6.57-3.46,5.24,5.24,0,0,0-3.45,6.57A5.24,5.24,0,0,0-2.25,638.08Z"/>
      <path d="M364,487.84a5.25,5.25,0,1,0-7.4.58A5.26,5.26,0,0,0,364,487.84Z"/>
      <path d="M416.42,697.16a5.25,5.25,0,1,0-7.14,2.06A5.25,5.25,0,0,0,416.42,697.16Z"/>
      <path d="M641.82,459.77a5.25,5.25,0,1,0,7.36,1A5.26,5.26,0,0,0,641.82,459.77Z"/>
      <path d="M184.8,412.45a29.29,29.29,0,1,0,10.68,22.13A28.09,28.09,0,0,0,184.8,412.45Zm-3.5,32.94A16.54,16.54,0,1,1,185,434.82,17.63,17.63,0,0,1,181.3,445.39Z"/>
      <path d="M859.27,444.86a5.24,5.24,0,0,0,10.06-2.47,5.1,5.1,0,0,0-.35-2.48,5.24,5.24,0,0,0-10.06,2.47A5.35,5.35,0,0,0,859.27,444.86Z"/>
      <path d="M1589.9,139.33a5.23,5.23,0,0,0-7.39-.3l-13,11.93-11.92-13a5.23,5.23,0,0,0-7.69,7.08L1561.87,158,1548.93,170a5.23,5.23,0,0,0,7.08,7.69L1569,165.73l11.93,13a5.23,5.23,0,0,0,7.69-7.08l-11.93-13,13-11.92A5.24,5.24,0,0,0,1589.9,139.33Z"/>
      <path d="M951.42,360.8l16.09-7.14,7.14,16.1a5.23,5.23,0,0,0,9.56-4.24l-7.15-16.1,16.1-7.14a5.22,5.22,0,1,0-4.24-9.55l-16.09,7.14-7.14-16.09a5.23,5.23,0,0,0-9.56,4.24l7.14,16.09-16.09,7.14a5.22,5.22,0,0,0,4.24,9.55Z"/>
      <path d="M1547.83,55.73a5.23,5.23,0,0,0-6.92,2.58l-7.31,16-16-7.31a5.23,5.23,0,0,0-4.34,9.51l16,7.31-7.32,16a5.23,5.23,0,0,0,9.51,4.34l7.32-16,16,7.31a5.23,5.23,0,0,0,4.35-9.51l-16-7.31,7.31-16A5.23,5.23,0,0,0,1547.83,55.73Z"/>
      <path d="M1288,297.7a5.23,5.23,0,0,0,7.23,1.54l14.77-9.59,9.59,14.77a5.22,5.22,0,0,0,8.76-5.69L1318.76,284l14.77-9.59a5.23,5.23,0,0,0-5.7-8.76l-14.76,9.58-9.58-14.76a5.23,5.23,0,0,0-8.77,5.69l9.59,14.76-14.77,9.59A5.23,5.23,0,0,0,1288,297.7Z"/>
      <path d="M1551.5,214.66a5.22,5.22,0,0,0-6.25,4l-3.87,17.17-17.17-3.86a5.22,5.22,0,1,0-2.3,10.19l17.18,3.87-3.87,17.17a5.23,5.23,0,0,0,10.2,2.3l3.86-17.17,17.17,3.86a5.22,5.22,0,1,0,2.3-10.19l-17.17-3.87,3.87-17.18A5.23,5.23,0,0,0,1551.5,214.66Z"/>
      <path d="M1220.52,23.54a5.23,5.23,0,0,0-.3,7.39l11.92,12.94-13,11.93a5.23,5.23,0,0,0,7.09,7.69l13-11.93,11.92,13a5.23,5.23,0,0,0,7.69-7.08l-11.93-13,12.95-11.93a5.23,5.23,0,1,0-7.09-7.68l-12.94,11.92-11.92-12.94A5.24,5.24,0,0,0,1220.52,23.54Z"/>
      <path d="M1371.17,91.28l-11,17.11A5.22,5.22,0,1,0,1369,114l11-17.1a5.23,5.23,0,1,0-8.79-5.66Z"/>
      <path d="M1065.9,138a5.24,5.24,0,0,0-4.34,6l3.21,20.08a5.23,5.23,0,0,0,10.32-1.65l-3.21-20.08A5.23,5.23,0,0,0,1065.9,138Z"/>
      <path d="M1199.15,360.7a5.24,5.24,0,0,0,2.18,7.07l18,9.5a5.22,5.22,0,0,0,4.88-9.24l-18-9.51A5.23,5.23,0,0,0,1199.15,360.7Z"/>
      <path d="M752.53,176.4a5.22,5.22,0,1,0-7.81,6.93l11.67,13.18-13.18,11.67a5.22,5.22,0,0,0,6.92,7.82l13.19-11.68L775,217.51a5.22,5.22,0,1,0,7.82-6.93L771.13,197.4l13.19-11.68a5.22,5.22,0,1,0-6.93-7.81l-13.18,11.67Z"/>
      <path d="M1497.69,285.67a28.06,28.06,0,1,0-13.29,37.4A28.09,28.09,0,0,0,1497.69,285.67Zm-17.78,28a17.61,17.61,0,1,1,8.34-23.47A17.62,17.62,0,0,1,1479.91,313.63Z"/>
      <path d="M1309.22,14.3a28.05,28.05,0,1,0,32.42-22.87A28.09,28.09,0,0,0,1309.22,14.3Zm10.3,1.78a17.61,17.61,0,1,1,14.35,20.34A17.63,17.63,0,0,1,1319.52,16.08Z"/>
      <path d="M1465.74,145.45a5.22,5.22,0,0,0,7.18,1.76,17.6,17.6,0,1,1,18.25,30.1,5.23,5.23,0,0,0,5.42,8.94,28.05,28.05,0,1,0-29.09-48A5.21,5.21,0,0,0,1465.74,145.45Z"/>
      <path d="M993.32,387.94a5.22,5.22,0,0,0,6.82,2.85,17.6,17.6,0,0,1,13.34,32.58,5.23,5.23,0,0,0,4,9.68,28.06,28.06,0,0,0-21.26-51.93A5.24,5.24,0,0,0,993.32,387.94Z"/>
      <path d="M1264.51,148.92a5.24,5.24,0,0,0-.28,7.39,28.05,28.05,0,1,0,41.17-38.12,5.23,5.23,0,1,0-7.67,7.1,17.6,17.6,0,1,1-25.83,23.92A5.23,5.23,0,0,0,1264.51,148.92Z"/>
      <path d="M1419.71,185.76a5.22,5.22,0,0,0,3.93,9.68,28.06,28.06,0,1,0-21.11-52,5.23,5.23,0,0,0,3.93,9.69,17.6,17.6,0,1,1,13.25,32.62Z"/>
      <path d="M893.07,424.57c1.65,5.69,3.7,12.77,12.29,16.48s15.15.35,20.43-2.36c4.9-2.5,7.63-3.73,11.52-2.05s4.87,4.5,6.4,9.79c1.64,5.69,3.7,12.77,12.29,16.48a5.23,5.23,0,0,0,6.87-2.73,5.12,5.12,0,0,0,.38-2.54,5.21,5.21,0,0,0-3.1-5.27c-3.89-1.68-4.87-4.52-6.41-9.79-1.64-5.7-3.7-12.78-12.28-16.49s-15.16-.34-20.43,2.36c-4.9,2.51-7.64,3.74-11.53,2.06s-4.87-4.51-6.4-9.79c-1.64-5.69-3.7-12.78-12.29-16.49s-15.16-.34-20.44,2.36c-4.89,2.5-7.63,3.73-11.52,2.06a5.69,5.69,0,0,0-4.15,10.54c8.6,3.71,15.16.35,20.44-2.36,4.9-2.5,7.64-3.73,11.53-2.05S891.53,419.29,893.07,424.57Z"/>
      <path d="M1370.32,328.25c-5.93,7.25-4.5,14.48-3.34,20.3,1.06,5.4,1.49,8.36-1.19,11.64s-5.67,3.45-11.17,3.46c-5.92,0-13.3.06-19.23,7.3a5.23,5.23,0,0,0,8.1,6.62c2.68-3.28,5.67-3.44,11.17-3.47,5.93,0,13.3-.05,19.22-7.29s4.49-14.47,3.35-20.29c-1.07-5.4-1.5-8.37,1.18-11.65s5.67-3.44,11.17-3.46c5.93,0,13.3-.06,19.23-7.3s4.49-14.48,3.34-20.3c-1.06-5.39-1.49-8.36,1.19-11.64a5.23,5.23,0,1,0-8.09-6.62c-5.93,7.25-4.49,14.48-3.34,20.3,1.06,5.39,1.49,8.36-1.19,11.64s-5.68,3.44-11.18,3.47C1383.62,321,1376.24,321,1370.32,328.25Z"/>
      <path d="M919.18,311.08a5.23,5.23,0,0,0,.06-7.39c-3-3-2.81-6-2.25-11.49.61-5.89,1.37-13.22-5.19-19.89s-13.91-6-19.82-5.5c-5.48.49-8.48.6-11.45-2.42s-2.82-6-2.25-11.48c.62-5.89,1.37-13.23-5.2-19.89s-13.91-6-19.82-5.5c-5.48.47-8.48.59-11.45-2.43a5.23,5.23,0,0,0-7.45,7.33c6.57,6.67,13.92,6,19.83,5.5,5.47-.48,8.48-.59,11.45,2.43s2.81,6,2.25,11.48c-.61,5.9-1.38,13.23,5.19,19.9s13.92,6,19.82,5.49c5.49-.48,8.48-.59,11.45,2.43s2.82,6,2.25,11.47c-.62,5.9-1.37,13.24,5.19,19.9A5.23,5.23,0,0,0,919.18,311.08Z"/>
      <path d="M1010.37,263.81c5.29-1.49,8.22-2.17,11.71.24s3.88,5.38,4.36,10.86c.5,5.9,1.12,13.25,8.82,18.57s14.8,3.3,20.51,1.69c5.29-1.51,8.21-2.18,11.69.23s3.9,5.37,4.36,10.85c.5,5.91,1.13,13.26,8.83,18.58a5.23,5.23,0,0,0,5.94-8.6c-3.49-2.41-3.89-5.39-4.36-10.86-.5-5.91-1.13-13.25-8.83-18.57s-14.79-3.3-20.49-1.69c-5.29,1.5-8.22,2.17-11.71-.23s-3.89-5.38-4.35-10.86c-.5-5.9-1.14-13.25-8.84-18.57s-14.79-3.31-20.5-1.69c-5.29,1.5-8.22,2.17-11.7-.24a5.23,5.23,0,1,0-5.94,8.6C997.57,267.44,1004.66,265.43,1010.37,263.81Z"/>
      <path d="M976.35,182.32c-5.78,1.26-13,2.84-17.27,11.16a5.23,5.23,0,0,0,9.3,4.78c1.94-3.77,4.83-4.56,10.2-5.73,5.79-1.26,13-2.84,17.27-11.16s1.36-15.09-1-20.54c-2.18-5.05-3.22-7.87-1.28-11.64s4.82-4.55,10.19-5.72c5.79-1.26,13-2.84,17.28-11.16a5.23,5.23,0,0,0-9.3-4.78c-1.94,3.77-4.83,4.55-10.21,5.73-5.78,1.26-13,2.83-17.26,11.16s-1.36,15.1,1,20.54c2.17,5.06,3.22,7.87,1.28,11.63S981.72,181.15,976.35,182.32Z"/>
      <path d="M793.25,352.75a5.22,5.22,0,0,0,.37-7.38c-2.84-3.14-2.55-6.13-1.75-11.57.86-5.86,1.94-13.15-4.33-20.1s-13.64-6.6-19.57-6.34c-5.49.25-8.5.23-11.34-2.92s-2.55-6.12-1.75-11.56c.87-5.86,1.94-13.16-4.33-20.1a5.23,5.23,0,0,0-7.76,7c2.84,3.14,2.56,6.12,1.76,11.57-.87,5.86-1.94,13.15,4.33,20.09s13.65,6.61,19.57,6.35c5.49-.24,8.49-.23,11.33,2.91s2.55,6.13,1.75,11.57c-.86,5.86-1.94,13.16,4.34,20.1A5.22,5.22,0,0,0,793.25,352.75Z"/>
      <path d="M1316.05,80.36a5.25,5.25,0,1,0-1.88,7.18A5.25,5.25,0,0,0,1316.05,80.36Z"/>
      <path d="M939.79,134a5.25,5.25,0,1,0-7.06-2.28A5.25,5.25,0,0,0,939.79,134Z"/>
      <path d="M1310.23,403.51a5.25,5.25,0,1,0,7.41-.49A5.25,5.25,0,0,0,1310.23,403.51Z"/>
      <path d="M1169.57,191.35a5.25,5.25,0,1,0-6.79,3A5.26,5.26,0,0,0,1169.57,191.35Z"/>
      <path d="M1150.86,263.8a5.25,5.25,0,1,0-7.27,1.48A5.25,5.25,0,0,0,1150.86,263.8Z"/>
      <path d="M1378.41,272.2a5.25,5.25,0,1,0-5.3-5.2A5.26,5.26,0,0,0,1378.41,272.2Z"/>
      <path d="M1595.92,296.58a5.25,5.25,0,1,0-5.19-5.31A5.24,5.24,0,0,0,1595.92,296.58Z"/>
      <path d="M834.69,133.63a5.25,5.25,0,1,0-2.73,6.9A5.23,5.23,0,0,0,834.69,133.63Z"/>
      <path d="M909.7,194.16a5.25,5.25,0,1,0-1.35-7.3A5.25,5.25,0,0,0,909.7,194.16Z"/>
      <path d="M1198.51,232.59a5.25,5.25,0,1,0,5.28,5.22A5.26,5.26,0,0,0,1198.51,232.59Z"/>
      <path d="M1088.63,92.51a5.25,5.25,0,1,0,6.74,3.11A5.25,5.25,0,0,0,1088.63,92.51Z"/>
      <path d="M1156.89,378.33a5.25,5.25,0,1,0,4.17-6.15A5.25,5.25,0,0,0,1156.89,378.33Z"/>
      <path d="M1135.45,326.66a5.25,5.25,0,1,0-2-7.16A5.26,5.26,0,0,0,1135.45,326.66Z"/>
      <path d="M1106.28,204.09a5.25,5.25,0,1,0,4.61-5.83A5.25,5.25,0,0,0,1106.28,204.09Z"/>
      <path d="M1538.93,309.49a5.25,5.25,0,1,0,7.43.14A5.25,5.25,0,0,0,1538.93,309.49Z"/>
      <path d="M1246.2,118a5.25,5.25,0,1,0-7.42-.05A5.26,5.26,0,0,0,1246.2,118Z"/>
      <path d="M784.82,82.53a5.25,5.25,0,1,0-2.26-7.07A5.25,5.25,0,0,0,784.82,82.53Z"/>
      <path d="M1573.45,396.68a5.25,5.25,0,1,0,6.5,3.58A5.24,5.24,0,0,0,1573.45,396.68Z"/>
      <path d="M1256,219.55a5.25,5.25,0,1,0-1.21-7.33A5.25,5.25,0,0,0,1256,219.55Z"/>
      <path d="M1580.69,46.22a5.25,5.25,0,1,0-7.41-.38A5.25,5.25,0,0,0,1580.69,46.22Z"/>
      <path d="M953.21,68a5.25,5.25,0,1,0,7.07,2.25A5.26,5.26,0,0,0,953.21,68Z"/>
      <path d="M1135.18,145.59a5.25,5.25,0,1,0-7.37.93A5.25,5.25,0,0,0,1135.18,145.59Z"/>
      <path d="M1049.88,87.92a5.25,5.25,0,1,0-7.36.93A5.24,5.24,0,0,0,1049.88,87.92Z"/>
      <path d="M851.09,313.21a5.25,5.25,0,1,0-2.54,7A5.25,5.25,0,0,0,851.09,313.21Z"/>
      <path d="M1147.54,82.91a5.25,5.25,0,1,0-7.41.41A5.24,5.24,0,0,0,1147.54,82.91Z"/>
      <path d="M847.27,373.39a5.25,5.25,0,1,0-7.23-1.7A5.25,5.25,0,0,0,847.27,373.39Z"/>
      <path d="M1606.85,223.56a5.25,5.25,0,1,0-6.59,3.42A5.25,5.25,0,0,0,1606.85,223.56Z"/>
      <path d="M1057.13-1.77A5.25,5.25,0,0,0,1064,1.07a5.26,5.26,0,0,0,2.85-6.86A5.26,5.26,0,0,0,1060-8.63,5.26,5.26,0,0,0,1057.13-1.77Z"/>
      <path d="M858.61,66.63a5.25,5.25,0,1,0-3-6.79A5.24,5.24,0,0,0,858.61,66.63Z"/>
      <path d="M1425.06,230a5.25,5.25,0,1,0,6.16,4.14A5.25,5.25,0,0,0,1425.06,230Z"/>
      <path d="M890.16,87a5.25,5.25,0,1,0,5-5.47A5.26,5.26,0,0,0,890.16,87Z"/>
      <path d="M1531.62,367.45a5.25,5.25,0,1,0-5.49,5A5.26,5.26,0,0,0,1531.62,367.45Z"/>
      <path d="M1478.47,218.13a5.25,5.25,0,1,0,2.42,7A5.26,5.26,0,0,0,1478.47,218.13Z"/>
      <path d="M1367.22,217.73a5.25,5.25,0,1,0,6.94,2.65A5.25,5.25,0,0,0,1367.22,217.73Z"/>
      <path d="M1581,336.27a5.25,5.25,0,1,0,0,7.43A5.25,5.25,0,0,0,1581,336.27Z"/>
      <path d="M1485.45,382.33a5.25,5.25,0,1,0-.67,7.39A5.24,5.24,0,0,0,1485.45,382.33Z"/>
      <path d="M882.23,144.43a5.25,5.25,0,1,0-.14-7.42A5.25,5.25,0,0,0,882.23,144.43Z"/>
      <path d="M1177.94,43.16a5.25,5.25,0,1,0,7,2.35A5.25,5.25,0,0,0,1177.94,43.16Z"/>
      <path d="M955,22.12a5.25,5.25,0,1,0,3.59,6.5A5.25,5.25,0,0,0,955,22.12Z"/>
      <path d="M905.26,354.49a5.25,5.25,0,1,0,7.41-.55A5.26,5.26,0,0,0,905.26,354.49Z"/>
      <path d="M801.8,400.92a5.25,5.25,0,1,0,6.63-3.35A5.25,5.25,0,0,0,801.8,400.92Z"/>
      <path d="M1087.2,54.89a5.25,5.25,0,1,0-5.59-4.89A5.26,5.26,0,0,0,1087.2,54.89Z"/>
      <path d="M1192.86,303.88a5.25,5.25,0,1,0-4.95,5.53A5.25,5.25,0,0,0,1192.86,303.88Z"/>
      <path d="M1038.11,211.49a5.25,5.25,0,1,0,1.72-7.22A5.24,5.24,0,0,0,1038.11,211.49Z"/>
      <path d="M849.16,178.57a5.25,5.25,0,1,0,7.08,2.23A5.24,5.24,0,0,0,849.16,178.57Z"/>
      <path d="M1110.61,364.11a5.25,5.25,0,1,0,7.23-1.69A5.24,5.24,0,0,0,1110.61,364.11Z"/>
      <path d="M1189,118.31a5.25,5.25,0,1,0,4.09,6.19A5.24,5.24,0,0,0,1189,118.31Z"/>
      <path d="M1418.66,44.85a5.25,5.25,0,1,0-6.56,3.48A5.26,5.26,0,0,0,1418.66,44.85Z"/>
      <path d="M1014.12,32.43a5.25,5.25,0,1,0,7.41-.41A5.24,5.24,0,0,0,1014.12,32.43Z"/>
      <path d="M948.26,243.68a5.25,5.25,0,1,0-7-2.56A5.25,5.25,0,0,0,948.26,243.68Z"/>
      <path d="M1223.12,176.85a5.25,5.25,0,1,0,2.77,6.88A5.25,5.25,0,0,0,1223.12,176.85Z"/>
      <path d="M1244.19,318.75a5.25,5.25,0,1,0,6.53,3.53A5.26,5.26,0,0,0,1244.19,318.75Z"/>
      <path d="M742.3,130.81a5.25,5.25,0,1,0,.81-7.38A5.23,5.23,0,0,0,742.3,130.81Z"/>
      <path d="M1237.86,274.64a5.25,5.25,0,1,0,2-7.15A5.24,5.24,0,0,0,1237.86,274.64Z"/>
      <path d="M982.56,295.85a5.25,5.25,0,1,0,7.21,1.77A5.25,5.25,0,0,0,982.56,295.85Z"/>
      <path d="M1088.34,246.77a5.25,5.25,0,1,0,7.41.44A5.25,5.25,0,0,0,1088.34,246.77Z"/>
      <path d="M1450.32,100.43a5.25,5.25,0,1,0-3.82-6.37A5.25,5.25,0,0,0,1450.32,100.43Z"/>
      <path d="M1275.78,370.07a5.25,5.25,0,1,0-7.4.66A5.26,5.26,0,0,0,1275.78,370.07Z"/>
      <path d="M1357.15,175a5.25,5.25,0,1,0-3.35-6.63A5.25,5.25,0,0,0,1357.15,175Z"/>
      <path d="M899.79,30.84a5.25,5.25,0,1,0-1.11-7.34A5.24,5.24,0,0,0,899.79,30.84Z"/>
      <path d="M1054.94,354.34a5.25,5.25,0,1,0-6.79,3A5.24,5.24,0,0,0,1054.94,354.34Z"/>
      <path d="M1310.38,211.5a5.25,5.25,0,1,0,5.35-5.15A5.25,5.25,0,0,0,1310.38,211.5Z"/>
      <path d="M814.39,265a5.25,5.25,0,1,0-7,2.51A5.25,5.25,0,0,0,814.39,265Z"/>
      <path d="M1000.58,91a5.25,5.25,0,1,0-6.69,3.22A5.26,5.26,0,0,0,1000.58,91Z"/>
      <path d="M1310.75,340.54a5.25,5.25,0,1,0,5.55,4.93A5.25,5.25,0,0,0,1310.75,340.54Z"/>
      <path d="M1520.82,406a5.25,5.25,0,1,0,1.33,7.3A5.26,5.26,0,0,0,1520.82,406Z"/>
      <path d="M1392.63,387.4a5.25,5.25,0,1,0,4.11,6.19A5.24,5.24,0,0,0,1392.63,387.4Z"/>
      <path d="M1471.37,54.25a5.25,5.25,0,1,0-5.18-5.32A5.25,5.25,0,0,0,1471.37,54.25Z"/>
      <path d="M1441.23,369.47a5.25,5.25,0,1,0,.41-7.41A5.24,5.24,0,0,0,1441.23,369.47Z"/>
      <path d="M1085.28,414.75a5.25,5.25,0,1,0,7.23-1.68A5.25,5.25,0,0,0,1085.28,414.75Z"/>
      <path d="M723.76,261.77c-.39-5.49-.45-8.49,2.61-11.42a8.48,8.48,0,0,1,6.23-2.47,41.46,41.46,0,0,1,5.08.4,53.85,53.85,0,0,0,6,.47,18.92,18.92,0,0,0,14.15-5.36,5.3,5.3,0,0,0-7.43-7.56,8.46,8.46,0,0,1-6.22,2.47,41.6,41.6,0,0,1-5.09-.4,53.67,53.67,0,0,0-6-.47,18.94,18.94,0,0,0-14.16,5.36c-6.77,6.47-6.24,13.82-5.81,19.73.4,5.49.46,8.5-2.61,11.42a8.46,8.46,0,0,1-6.22,2.47,41.46,41.46,0,0,1-5.08-.4,51.53,51.53,0,0,0-6-.48A18.89,18.89,0,0,0,679,280.89c-6.78,6.47-6.24,13.82-5.81,19.74.39,5.48.46,8.48-2.6,11.4a8.46,8.46,0,0,1-6.22,2.47,41.46,41.46,0,0,1-5.08-.4,51.53,51.53,0,0,0-6-.48A18.92,18.92,0,0,0,639.14,319a5.3,5.3,0,0,0,7.43,7.56,8.41,8.41,0,0,1,6.22-2.46,41.75,41.75,0,0,1,5.09.4,53.48,53.48,0,0,0,6,.47,18.86,18.86,0,0,0,14.14-5.36c6.77-6.46,6.24-13.81,5.81-19.72-.4-5.49-.46-8.49,2.61-11.42a8.45,8.45,0,0,1,6.22-2.47,43.79,43.79,0,0,1,5.08.41,53.48,53.48,0,0,0,6,.47A18.88,18.88,0,0,0,718,281.5C724.73,275,724.19,267.68,723.76,261.77Z"/>
      <path d="M1254,847.28a5.23,5.23,0,0,0-6.67-3.19l-16.61,5.85-5.85-16.61a5.22,5.22,0,1,0-9.85,3.48l5.84,16.6-16.59,5.85a5.23,5.23,0,1,0,3.47,9.86l16.6-5.85,5.85,16.6a5.22,5.22,0,0,0,9.85-3.47l-5.84-16.6,16.6-5.85A5.24,5.24,0,0,0,1254,847.28Z"/>
      <path d="M1187.7,695.09a5.22,5.22,0,0,0,1.37,7.26l14.55,9.92-9.92,14.55a5.23,5.23,0,0,0,8.64,5.88l9.92-14.54,14.54,9.91a5.23,5.23,0,0,0,5.89-8.64l-14.55-9.91,9.92-14.54a5.23,5.23,0,0,0-8.64-5.89l-9.91,14.54L1195,693.71A5.23,5.23,0,0,0,1187.7,695.09Z"/>
      <path d="M1268.08,806.38a5.22,5.22,0,0,0-1.11-7.3L1250.59,787a5.23,5.23,0,0,0-6.2,8.42l16.38,12.06A5.23,5.23,0,0,0,1268.08,806.38Z"/>
      <path d="M849.16,842.55a5.23,5.23,0,0,0,3.21-6.66l-6.7-19.2a5.23,5.23,0,0,0-9.87,3.45l6.7,19.2A5.23,5.23,0,0,0,849.16,842.55Z"/>
      <path d="M932.65,515.05a5.22,5.22,0,0,0,5.21-5.23l0-20.34a5.23,5.23,0,1,0-10.45,0l0,20.33A5.23,5.23,0,0,0,932.65,515.05Z"/>
      <path d="M1161.51,547.55a5.23,5.23,0,0,0-3.13-6.7l-19.12-6.92a5.22,5.22,0,1,0-3.56,9.82l19.12,6.93A5.23,5.23,0,0,0,1161.51,547.55Z"/>
      <path d="M909,598.14a5.21,5.21,0,0,0,7.27,1.28l14.43-10.09,10.09,14.43a5.22,5.22,0,0,0,8.56-6l-10.09-14.43,14.43-10.1a5.22,5.22,0,1,0-6-8.55l-14.43,10.09-10.09-14.43a5.22,5.22,0,1,0-8.56,6l10.09,14.43-14.43,10.09A5.23,5.23,0,0,0,909,598.14Z"/>
      <path d="M1517.78,714.53a5.22,5.22,0,0,0,4.24-6l-3-17.34,17.34-3a5.22,5.22,0,0,0-1.79-10.29l-17.35,3-3-17.35a5.22,5.22,0,1,0-10.29,1.8l3,17.34-17.34,3a5.22,5.22,0,1,0,1.79,10.29l17.35-3,3,17.35A5.23,5.23,0,0,0,1517.78,714.53Z"/>
      <path d="M1410.91,724.77a28.05,28.05,0,1,0-39.63,1.71A28.07,28.07,0,0,0,1410.91,724.77Zm-32.57-6a17.6,17.6,0,1,1,24.87-1.08A17.62,17.62,0,0,1,1378.34,718.78Z"/>
      <path d="M1014.09,673a28.06,28.06,0,1,0-30.74-25.09A28.1,28.1,0,0,0,1014.09,673Zm-4.6-45.43a17.6,17.6,0,1,1-15.74,19.28A17.63,17.63,0,0,1,1009.49,627.53Z"/>
      <path d="M1631.51,656.07a5.23,5.23,0,0,0-10.45.35,17.6,17.6,0,1,1-35.18,1.17,5.23,5.23,0,1,0-10.45.35,28.06,28.06,0,1,0,56.08-1.87Z"/>
      <path d="M1027.53,742.29a28.09,28.09,0,0,0,22-33,5.23,5.23,0,1,0-10.25,2.05,17.61,17.61,0,1,1-34.53,6.89,5.23,5.23,0,1,0-10.25,2A28.09,28.09,0,0,0,1027.53,742.29Z"/>
      <path d="M1203.34,604.49a5.23,5.23,0,0,0-9.36-4.65,17.6,17.6,0,1,1-31.53-15.67,5.23,5.23,0,0,0-9.36-4.65,28.06,28.06,0,1,0,50.25,25Z"/>
      <path d="M1423,857.81a5.23,5.23,0,0,0-9.3-4.78A17.6,17.6,0,1,1,1382.36,837a5.23,5.23,0,1,0-9.3-4.78A28.06,28.06,0,0,0,1423,857.81Z"/>
      <path d="M1327,444.85a17.62,17.62,0,0,1-20.74-13.78,5.37,5.37,0,0,0-10.24,3,28.16,28.16,0,0,0,55-12,5.21,5.21,0,0,0-10.3,1.49,4.88,4.88,0,0,0,.06,1.52A16.73,16.73,0,0,1,1327,444.85Z"/>
      <path d="M856.47,733.06a5.23,5.23,0,0,0-4.48,5.88,17.6,17.6,0,1,1-34.89,4.72,5.23,5.23,0,1,0-10.36,1.4,28.06,28.06,0,1,0,55.61-7.52A5.23,5.23,0,0,0,856.47,733.06Z"/>
      <path d="M1004.84,783.51c4,1.36,5.23,4.1,7.19,9.25,2.11,5.54,4.73,12.43,13.59,15.43a5.23,5.23,0,1,0,3.35-9.91c-4-1.35-5.21-4.1-7.17-9.24-2.12-5.54-4.74-12.43-13.61-15.43s-15.13.88-20.17,4c-4.68,2.89-7.31,4.34-11.32,3s-5.22-4.1-7.18-9.24c-2.11-5.54-4.73-12.43-13.59-15.43s-15.14.89-20.18,4c-4.67,2.9-7.3,4.35-11.31,3s-5.22-4.1-7.17-9.24c-2.1-5.53-4.73-12.43-13.59-15.43a5.23,5.23,0,1,0-3.35,9.9c4,1.36,5.22,4.1,7.17,9.25,2.11,5.54,4.73,12.42,13.59,15.42s15.13-.89,20.17-4c4.68-2.89,7.31-4.34,11.32-3s5.22,4.1,7.17,9.23c2.11,5.54,4.73,12.44,13.6,15.44s15.13-.89,20.17-4C998.2,783.6,1000.83,782.15,1004.84,783.51Z"/>
      <path d="M1093.77,503.21a18.88,18.88,0,0,0-1.43,7.77c-.11,5.4,2.28,9.81,4.32,13.55,1.76,3.23,2.9,5.52,3,7.86a9,9,0,0,1-.65,2.66c-1.58,3.93-4.39,5-9.63,6.66-5.65,1.81-12.67,4-16.15,12.72a5.13,5.13,0,0,0-.33,2.43,5.21,5.21,0,0,0,10,2.41c1.57-3.93,4.38-5,9.62-6.65,5.65-1.81,12.68-4,16.16-12.73a18.87,18.87,0,0,0,1.44-7.77c.1-5.4-2.28-9.8-4.32-13.55-1.77-3.23-2.91-5.52-3-7.85a9,9,0,0,1,.65-2.67c1.58-3.93,4.39-5,9.63-6.65,5.64-1.8,12.67-4,16.15-12.72a18.83,18.83,0,0,0,1.43-7.76c.11-5.41-2.27-9.81-4.32-13.55-1.76-3.24-2.9-5.52-3-7.85a8.8,8.8,0,0,1,.65-2.67c1.57-3.92,4.38-5,9.62-6.64,5.65-1.8,12.67-4,16.16-12.72a5.43,5.43,0,1,0-9.7-4.84c-1.58,3.93-4.39,5-9.63,6.65-5.65,1.8-12.67,4-16.15,12.72a18.8,18.8,0,0,0-1.44,7.76c-.1,5.4,2.28,9.8,4.32,13.54,1.77,3.24,2.91,5.52,3,7.86a9.1,9.1,0,0,1-.65,2.67c-1.57,3.92-4.38,5-9.62,6.64C1104.28,492.29,1097.25,494.53,1093.77,503.21Z"/>
      <path d="M1337.53,597.82c9.35.62,14.4-4.74,18.47-9.06,3.78-4,5.94-6.08,10.17-5.8s6.09,2.62,9.3,7.09c3.46,4.81,7.77,10.8,17.11,11.41a5.23,5.23,0,0,0,.69-10.43c-4.23-.28-6.1-2.62-9.32-7.08-3.45-4.81-7.76-10.8-17.09-11.42s-14.39,4.75-18.46,9.06c-3.78,4-6,6.08-10.18,5.8s-6.09-2.61-9.3-7.08c-3.46-4.81-7.77-10.8-17.11-11.41s-14.39,4.74-18.46,9.06c-3.78,4-5.95,6.07-10.18,5.8s-6.1-2.63-9.32-7.1c-3.46-4.8-7.77-10.79-17.1-11.41a5.23,5.23,0,1,0-.69,10.43c4.23.28,6.1,2.62,9.31,7.09,3.47,4.81,7.77,10.8,17.11,11.41s14.4-4.74,18.47-9.06c3.78-4,6-6.08,10.18-5.8s6.09,2.63,9.31,7.09C1323.9,591.22,1328.2,597.21,1337.53,597.82Z"/>
      <path d="M1100.35,632.81c5.12-3,11.5-6.69,13-15.92a5.22,5.22,0,1,0-10.31-1.69c-.69,4.18-3.2,5.81-8,8.58-5.13,3-11.5,6.68-13,15.91s3.34,14.78,7.23,19.25c3.62,4.15,5.48,6.51,4.8,10.69s-3.2,5.81-8,8.57c-5.12,3-11.5,6.69-13,15.92s3.33,14.8,7.23,19.26c3.62,4.15,5.47,6.51,4.79,10.69s-3.21,5.82-8,8.59c-5.12,3-11.5,6.69-13,15.92a5.22,5.22,0,1,0,10.31,1.7c.69-4.18,3.2-5.82,8-8.59,5.13-3,11.5-6.69,13-15.93s-3.33-14.79-7.23-19.26c-3.62-4.14-5.48-6.5-4.79-10.68s3.2-5.81,8-8.58c5.13-3,11.5-6.69,13-15.92s-3.33-14.79-7.24-19.26c-3.62-4.14-5.47-6.49-4.78-10.67S1095.59,635.57,1100.35,632.81Z"/>
      <path d="M1482.46,816.9c1.4,5.76,3.15,12.92,11.57,17a5.23,5.23,0,0,0,4.55-9.41c-3.81-1.84-4.66-4.72-6-10.06-1.4-5.76-3.14-12.92-11.56-17s-15.12-1-20.51,1.47c-5,2.29-7.79,3.41-11.61,1.56s-4.67-4.72-6-10.06c-1.4-5.76-3.15-12.93-11.57-17s-15.13-1-20.52,1.47c-5,2.28-7.79,3.4-11.61,1.55a5.23,5.23,0,1,0-4.55,9.41c8.43,4.08,15.13,1,20.52-1.47,5-2.29,7.79-3.4,11.61-1.55s4.66,4.72,6,10.06c1.4,5.76,3.14,12.92,11.56,17s15.13,1,20.52-1.47c5-2.3,7.78-3.4,11.6-1.56S1481.16,811.56,1482.46,816.9Z"/>
      <path d="M981.88,494.56c2.17,9.1,8.79,12.35,14.11,15,4.94,2.43,7.57,3.88,8.55,8s-.7,6.59-4,11c-3.58,4.72-8,10.61-5.86,19.71s8.79,12.36,14.12,15c4.93,2.42,7.56,3.88,8.54,8a5.23,5.23,0,0,0,10.17-2.43c-2.17-9.11-8.79-12.35-14.12-15-4.93-2.43-7.56-3.89-8.54-8s.71-6.6,4-11c3.58-4.72,8-10.6,5.86-19.71s-8.79-12.35-14.12-15c-4.94-2.43-7.56-3.88-8.54-8s.7-6.6,4-11c3.58-4.73,8-10.62,5.86-19.72a5.23,5.23,0,0,0-10.17,2.42c1,4.13-.71,6.6-4,11C984.16,479.58,979.72,485.46,981.88,494.56Z"/>
      <path d="M1107.19,838.53c9-2.71,11.81-9.51,14.1-15,2.13-5.07,3.43-7.78,7.48-9a5.23,5.23,0,1,0-3-10c-9,2.71-11.81,9.51-14.1,15-2.13,5.07-3.43,7.78-7.48,9s-6.63-.31-11.21-3.36c-4.93-3.28-11.06-7.37-20-4.67s-11.81,9.52-14.1,15c-2.13,5.07-3.42,7.78-7.48,9s-6.63-.31-11.2-3.36c-4.93-3.28-11.07-7.37-20-4.67a5.23,5.23,0,0,0,3,10c4.05-1.23,6.62.31,11.21,3.36,4.92,3.29,11.06,7.37,20,4.67s11.81-9.51,14.1-15c2.12-5.08,3.43-7.79,7.48-9s6.63.31,11.2,3.36C1092.09,837.14,1098.23,841.23,1107.19,838.53Z"/>
      <path d="M811.56,699.81c8.56-3.78,10.56-10.88,12.17-16.58,1.49-5.3,2.45-8.14,6.32-9.86a5.22,5.22,0,0,0-4.22-9.56c-8.56,3.78-10.56,10.88-12.17,16.59-1.49,5.3-2.45,8.14-6.32,9.85s-6.62.5-11.54-2c-5.29-2.66-11.88-6-20.44-2.19S764.8,697,763.19,702.68c-1.49,5.29-2.44,8.14-6.32,9.85s-6.62.5-11.53-2c-5.29-2.66-11.88-6-20.44-2.19a5.22,5.22,0,1,0,4.22,9.56c3.87-1.71,6.62-.5,11.53,2,5.3,2.66,11.88,6,20.44,2.19s10.56-10.88,12.16-16.58c1.49-5.3,2.46-8.15,6.33-9.86s6.62-.5,11.53,2C796.4,700.28,803,703.59,811.56,699.81Z"/>
      <path d="M1589.45,496.85c-2.87-8.91-9.72-11.63-15.22-13.82-5.12-2-7.85-3.28-9.15-7.32a9.23,9.23,0,0,1-.43-2.31c.16-2.47,1.49-4.73,3.59-8,2.47-3.87,5.4-8.48,5.27-14.5a19.41,19.41,0,0,0-1-6.56c-2.87-8.91-9.72-11.63-15.24-13.82-5.1-2-7.83-3.29-9.13-7.32a5.22,5.22,0,0,0-10.17,2,5.1,5.1,0,0,0,.22,2.11c2.87,8.91,9.72,11.63,15.23,13.82,5.11,2,7.84,3.29,9.14,7.32a9,9,0,0,1,.43,2.32c-.16,2.47-1.49,4.73-3.58,8-2.48,3.86-5.41,8.47-5.28,14.49a19.32,19.32,0,0,0,1,6.55c2.87,8.92,9.73,11.64,15.24,13.83,5.11,2,7.83,3.28,9.13,7.31a8.8,8.8,0,0,1,.43,2.32c-.15,2.46-1.48,4.73-3.58,8-2.48,3.87-5.41,8.48-5.27,14.5a19.11,19.11,0,0,0,1,6.56,5.23,5.23,0,0,0,10.18-2,5.11,5.11,0,0,0-.23-2.11,9.78,9.78,0,0,1-.43-2.32c.16-2.47,1.49-4.73,3.59-8,2.47-3.87,5.41-8.47,5.27-14.49A19.13,19.13,0,0,0,1589.45,496.85Z"/>
      <path d="M1219.45,509.4a5.22,5.22,0,0,0,4.15,9.59c3.89-1.68,6.62-.45,11.52,2,5.27,2.7,11.83,6.06,20.42,2.35s10.64-10.8,12.29-16.49c1.53-5.29,2.51-8.12,6.4-9.8s6.62-.46,11.51,2c5.28,2.71,11.85,6.06,20.43,2.35a5.22,5.22,0,1,0-4.14-9.59c-3.89,1.68-6.63.44-11.52-2.05-5.28-2.71-11.84-6.07-20.43-2.35s-10.63,10.79-12.29,16.48c-1.53,5.29-2.51,8.13-6.4,9.81s-6.62.45-11.51-2.06C1234.61,509,1228,505.68,1219.45,509.4Z"/>
      <path d="M1557.23,627c-3.65-2.17-4.25-5.11-5.09-10.54-.9-5.86-2-13.14-10.07-17.93s-15-2.29-20.56-.29c-5.18,1.86-8,2.73-11.7.56s-4.24-5.1-5.08-10.53c-.9-5.86-2-13.15-10.07-17.93a5.22,5.22,0,1,0-5.34,9c3.64,2.17,4.24,5.11,5.09,10.54.9,5.86,2,13.14,10.06,17.92s15,2.3,20.57.3c5.18-1.86,8-2.73,11.69-.56s4.25,5.09,5.08,10.53c.9,5.86,2,13.15,10.07,17.93a5.23,5.23,0,1,0,5.35-9Z"/>
      <path d="M1354,758.68a5.22,5.22,0,0,0-9.4-4.56c-1.85,3.81-4.72,4.66-10.07,6-5.76,1.39-12.92,3.13-17,11.55s-1,15.13,1.45,20.52c2.29,5,3.4,7.79,1.55,11.6s-4.72,4.66-10.06,6c-5.76,1.4-12.93,3.14-17,11.56a5.22,5.22,0,0,0,9.4,4.56c1.85-3.81,4.72-4.66,10.07-6,5.76-1.39,12.92-3.13,17-11.55s1-15.12-1.45-20.51c-2.29-5-3.4-7.8-1.55-11.61s4.72-4.66,10.06-6C1342.7,768.84,1349.87,767.1,1354,758.68Z"/>
      <path d="M1055.47,488.79a5.25,5.25,0,1,0,7.38-.78A5.26,5.26,0,0,0,1055.47,488.79Z"/>
      <path d="M1174.73,508.7a5.25,5.25,0,1,0-6.88-2.8A5.26,5.26,0,0,0,1174.73,508.7Z"/>
      <path d="M1173,778.66a5.25,5.25,0,1,0-5.74,4.7A5.25,5.25,0,0,0,1173,778.66Z"/>
      <path d="M1363.5,521.61a5.25,5.25,0,1,0-7-2.58A5.23,5.23,0,0,0,1363.5,521.61Z"/>
      <path d="M1375.92,801a5.25,5.25,0,1,0,7.4.53A5.26,5.26,0,0,0,1375.92,801Z"/>
      <path d="M1556.4,822.34a5.25,5.25,0,1,0,1.94,7.17A5.25,5.25,0,0,0,1556.4,822.34Z"/>
      <path d="M892.89,788.94a5.25,5.25,0,1,0,5,5.5A5.25,5.25,0,0,0,892.89,788.94Z"/>
      <path d="M837.44,603.29a5.25,5.25,0,1,0,3,6.78A5.26,5.26,0,0,0,837.44,603.29Z"/>
      <path d="M988.66,589.71a5.25,5.25,0,1,0,7.36,1A5.25,5.25,0,0,0,988.66,589.71Z"/>
      <path d="M1084.92,895.87a5.25,5.25,0,1,0,6.26-4A5.24,5.24,0,0,0,1084.92,895.87Z"/>
      <path d="M1202.25,553.31a5.25,5.25,0,1,0,7.25,1.61A5.25,5.25,0,0,0,1202.25,553.31Z"/>
      <path d="M1588.75,884.16a5.25,5.25,0,1,0-7-2.47A5.24,5.24,0,0,0,1588.75,884.16Z"/>
      <path d="M1276.37,691.14a5.25,5.25,0,1,0-7,2.5A5.25,5.25,0,0,0,1276.37,691.14Z"/>
      <path d="M1267.43,739.54a5.25,5.25,0,1,0,1.89,7.17A5.24,5.24,0,0,0,1267.43,739.54Z"/>
      <path d="M1322.42,689.61a5.25,5.25,0,1,0-7.24,1.62A5.23,5.23,0,0,0,1322.42,689.61Z"/>
      <path d="M942.12,644.82a5.25,5.25,0,1,0,3.11,6.74A5.25,5.25,0,0,0,942.12,644.82Z"/>
      <path d="M874.88,629.55a5.25,5.25,0,1,0,7.39-.68A5.25,5.25,0,0,0,874.88,629.55Z"/>
      <path d="M905,686.05a5.25,5.25,0,1,0,4.23-6.1A5.24,5.24,0,0,0,905,686.05Z"/>
      <path d="M877,505.23a5.25,5.25,0,1,0-5.46,5A5.26,5.26,0,0,0,877,505.23Z"/>
      <path d="M1027.57,893a5.25,5.25,0,1,0-7.14-2A5.24,5.24,0,0,0,1027.57,893Z"/>
      <path d="M1070.53,780.33a5.25,5.25,0,1,0,5.11,5.39A5.26,5.26,0,0,0,1070.53,780.33Z"/>
      <path d="M1286.55,534.39a5.25,5.25,0,1,0,7.31-1.26A5.25,5.25,0,0,0,1286.55,534.39Z"/>
      <path d="M1578.79,574.11a5.25,5.25,0,1,0,5.78,4.67A5.24,5.24,0,0,0,1578.79,574.11Z"/>
      <circle cx="1140.22" cy="880.49" r="5.25" transform="translate(56.01 1829.1) rotate(-78.86)"/>
      <path d="M1563.51,725.45a5.25,5.25,0,1,0,7.42-.29A5.25,5.25,0,0,0,1563.51,725.45Z"/>
      <path d="M784.91,785.8a5.25,5.25,0,1,0,1.43,7.29A5.26,5.26,0,0,0,784.91,785.8Z"/>
      <path d="M1461.62,868.36a5.25,5.25,0,1,0,4.75,5.7A5.25,5.25,0,0,0,1461.62,868.36Z"/>
      <path d="M1168.53,462.17a5.25,5.25,0,1,0-6.8-3A5.24,5.24,0,0,0,1168.53,462.17Z"/>
      <path d="M1158.06,673a5.25,5.25,0,1,0-7.42-.11A5.26,5.26,0,0,0,1158.06,673Z"/>
      <path d="M1194.2,813a5.25,5.25,0,1,0-2.78-6.89A5.25,5.25,0,0,0,1194.2,813Z"/>
      <path d="M1212.61,638.35a5.25,5.25,0,1,0,6.73,3.13A5.26,5.26,0,0,0,1212.61,638.35Z"/>
      <path d="M1432.1,643.69a5.25,5.25,0,1,0,7.25,1.6A5.25,5.25,0,0,0,1432.1,643.69Z"/>
      <path d="M1389.58,469.75a5.25,5.25,0,1,0,7.39.75A5.25,5.25,0,0,0,1389.58,469.75Z"/>
      <path d="M1116.25,770a5.25,5.25,0,1,0-4.39-6A5.24,5.24,0,0,0,1116.25,770Z"/>
      <path d="M1148.48,723.56a5.25,5.25,0,1,0-4.31,6A5.24,5.24,0,0,0,1148.48,723.56Z"/>
      <path d="M1595.62,782.33a5.25,5.25,0,1,0-7-2.42A5.25,5.25,0,0,0,1595.62,782.33Z"/>
      <path d="M986,875.37a5.25,5.25,0,1,0-6.7-3.19A5.26,5.26,0,0,0,986,875.37Z"/>
      <path d="M1061.38,602.3a5.25,5.25,0,1,0-6.75-3.08A5.25,5.25,0,0,0,1061.38,602.3Z"/>
      <path d="M1164.37,840.21a5.25,5.25,0,1,0,6.84,2.89A5.25,5.25,0,0,0,1164.37,840.21Z"/>
      <path d="M1530.23,772a5.25,5.25,0,1,0,7.36,1A5.24,5.24,0,0,0,1530.23,772Z"/>
      <path d="M1208.43,761.89a5.25,5.25,0,1,0,5.27-5.24A5.24,5.24,0,0,0,1208.43,761.89Z"/>
      <path d="M1456,691.8a5.25,5.25,0,1,0-6.41-3.74A5.24,5.24,0,0,0,1456,691.8Z"/>
      <path d="M861.09,696.48a5.25,5.25,0,1,0-1.45-7.29A5.26,5.26,0,0,0,861.09,696.48Z"/>
      <path d="M1106.54,586.16a5.25,5.25,0,1,0-3.28-6.66A5.26,5.26,0,0,0,1106.54,586.16Z"/>
      <path d="M1423.44,553.37a5.25,5.25,0,1,0-5.65-4.82A5.25,5.25,0,0,0,1423.44,553.37Z"/>
      <path d="M849.56,536a5.25,5.25,0,1,0,5.55,4.93A5.25,5.25,0,0,0,849.56,536Z"/>
      <path d="M771.17,638.59a5.25,5.25,0,1,0,7.42-.15A5.27,5.27,0,0,0,771.17,638.59Z"/>
      <path d="M1476.93,492.62a5.25,5.25,0,1,0-6.17,4.12A5.24,5.24,0,0,0,1476.93,492.62Z"/>
      <path d="M1360.73,643.92a5.25,5.25,0,1,0,6.76-3.06A5.24,5.24,0,0,0,1360.73,643.92Z"/>
      <path d="M954.26,703.88a5.25,5.25,0,1,0-7.39.64A5.25,5.25,0,0,0,954.26,703.88Z"/>
      <path d="M1464.08,542.67a5.25,5.25,0,1,0,5.56-4.92A5.25,5.25,0,0,0,1464.08,542.67Z"/>
      <path d="M1305,727.83a5.25,5.25,0,1,0,7-2.47A5.24,5.24,0,0,0,1305,727.83Z"/>
      <path d="M1518.16,869.33a5.25,5.25,0,1,0,7,2.54A5.25,5.25,0,0,0,1518.16,869.33Z"/>
      <path d="M1416.78,622a5.25,5.25,0,1,0-6,4.34A5.24,5.24,0,0,0,1416.78,622Z"/>
      <path d="M958.9,730.22a5.25,5.25,0,1,0,2.86-6.85A5.24,5.24,0,0,0,958.9,730.22Z"/>
      <path d="M1458.79,607.93a5.25,5.25,0,1,0-7.3,1.38A5.24,5.24,0,0,0,1458.79,607.93Z"/>
      <path d="M1318.19,644a5.25,5.25,0,1,0-7,2.43A5.26,5.26,0,0,0,1318.19,644Z"/>
      <path d="M781.57,565.15A5.25,5.25,0,1,0,777,571,5.25,5.25,0,0,0,781.57,565.15Z"/>
      <path d="M1518.2,518.5a5.25,5.25,0,1,0,4.46,5.94A5.25,5.25,0,0,0,1518.2,518.5Z"/>
      <path d="M1236.75,457.48a5.25,5.25,0,1,0,3.09-6.75A5.24,5.24,0,0,0,1236.75,457.48Z"/>
      <path d="M1294.34,860.14a5.25,5.25,0,1,0-4.66-5.77A5.26,5.26,0,0,0,1294.34,860.14Z"/>
      <path d="M1476.22,748a5.25,5.25,0,1,0-4.75-5.7A5.25,5.25,0,0,0,1476.22,748Z"/>
      <path d="M1264.08,638.08a5.25,5.25,0,1,0-6.57-3.45A5.24,5.24,0,0,0,1264.08,638.08Z"/>
      <path d="M789,487.51a5.25,5.25,0,1,0-4.32-6A5.26,5.26,0,0,0,789,487.51Z"/>
      <path d="M858.11,896.89a5.25,5.25,0,1,0,7.42.26A5.26,5.26,0,0,0,858.11,896.89Z"/>
      <path d="M810.78,861.33a5.25,5.25,0,1,0-6.92-2.69A5.25,5.25,0,0,0,810.78,861.33Z"/>
      <path d="M948.75,863.43a28.05,28.05,0,1,0-37.43,13.13A28.09,28.09,0,0,0,948.75,863.43Zm-9.42-4.53a17.6,17.6,0,1,1-8.24-23.49A17.61,17.61,0,0,1,939.33,858.9Z"/>
      <path d="M1189.24,401.91a6.5,6.5,0,0,0-3.2,7.61l5.54,15.76L1175.27,431a5.68,5.68,0,0,0,3.47,10.81l16.6-5.84,5.84,16.61a5.43,5.43,0,0,0,9.86-4.41l-5.54-15.77,16.31-5.73a5.68,5.68,0,0,0-3.46-10.81l-16.61,5.84-5.84-16.6A5.23,5.23,0,0,0,1189.24,401.91Z"/>
      <path d="M1451.14,412.45a29.29,29.29,0,1,0,10.68,22.13A28.09,28.09,0,0,0,1451.14,412.45Zm-3.5,32.94a16.56,16.56,0,1,1,3.73-10.57A17.63,17.63,0,0,1,1447.64,445.39Z"/>
    </g>
    <rect class="f0dfbec4-ebd4-401b-9028-3741cfeeec9e" width="1600" height="900"/>
  </g>
  <g class="eb72ff94-eacd-4a26-a984-e0ca2f72dc1a">
    <g>
      <path class="bbb46d59-01cc-4397-a259-186e8833599f" d="M-4.77,334.9A6.67,6.67,0,0,0-5,326c-6.49-7.66,14.8-29.1,41.07-55.31a7.41,7.41,0,0,0,2.19-6.78c-1.52-9.74-21-11.37-20.27,1.62.11,2.14.92,2.5-1.22,4.64C-58.68,345.4-11.75,343.62-4.77,334.9Z"/>
      <path class="bbb46d59-01cc-4397-a259-186e8833599f" d="M7.06,543.47c4.3,2.7,10.52,1.08,13.91-3.62s2.66-10.71-1.63-13.41-10.53-1.08-13.92,3.63S2.77,540.77,7.06,543.47Z"/>
      <path class="bbb46d59-01cc-4397-a259-186e8833599f" d="M18.6,499.27c-.11-4.64-5.12-8.31-11.19-8.18s-10.9,4-10.78,8.66,5.13,8.31,11.19,8.18S18.72,503.92,18.6,499.27Z"/>
      <path class="bbb46d59-01cc-4397-a259-186e8833599f" d="M33.78,224.16c4.22-4.08,4.56-10.17.76-13.59s-10.3-2.89-14.51,1.19-4.55,10.16-.76,13.58S29.57,228.24,33.78,224.16Z"/>
      <path class="bbb46d59-01cc-4397-a259-186e8833599f" d="M49.17,418c16.55-8.39-10.34-30.68-15.75-6.87-1.13,5-12.76,16.62-16.42,20.19-22.11,21.58-21.17,13.36-29.35,18.43-6.39,4-3.07,13.46,6.83,14.25C8.32,465.12,41,422.16,49.17,418Z"/>
      <path class="bbb46d59-01cc-4397-a259-186e8833599f" d="M-18.25,359.28c-2.45,4.2-.11,9.8,5.23,12.51s11.63,1.5,14.08-2.7.1-9.8-5.23-12.51S-15.81,355.08-18.25,359.28Z"/>
      <path class="bbb46d59-01cc-4397-a259-186e8833599f" d="M-2.29,73.31C-7.83,75.64-10.69,80.88-8.7,85s8.1,5.61,13.64,3.29,8.4-7.58,6.4-11.72S3.24,71-2.29,73.31Z"/>
      <path class="bbb46d59-01cc-4397-a259-186e8833599f" d="M31.66,366.57c-5.66-2-11.93.38-14,5.4s.85,10.73,6.51,12.77,11.94-.38,14-5.4S37.33,368.61,31.66,366.57Z"/>
      <path class="bbb46d59-01cc-4397-a259-186e8833599f" d="M34.56,298.68c-5.15,2.21-7.63,7.95-4.91,12.82a18.09,18.09,0,0,1,2.07,9.74c-.18,8.08.89,11.71-2.27,16.06-3.87,5.31.07,11.08,6.07,12.24,8.17,1.59,16.58-6.46,11.73-13.64a8.55,8.55,0,0,1-1.15-4.35c-.38-9.35-.86-15.22,1.93-19.39C53,304.78,44.16,294.55,34.56,298.68Z"/>
      <path class="bbb46d59-01cc-4397-a259-186e8833599f" d="M-20.18,901.17c9,1.2,17.22,4.94,25.83,7.4,8.18,2.34,9.16,9.79,18.55,4,6.84-4.23,5.8-15.15-3.35-17.21-5.36-1.2-6.88,2-12.47,0-26.35-8.93-47.54-12.68-95.84-.16-10.8,2.8-21.66,2.3-18.16,11.83,2.7,7.33,13.74,10.64,18.27,4C-82.14,903.41-34.13,899.31-20.18,901.17Z"/>
      <path class="bbb46d59-01cc-4397-a259-186e8833599f" d="M-9.92,736.18c-4.45,3.86-5.33,9.73-2,13.12s9.7,3,14.15-.84,5.33-9.73,2-13.12S-5.47,732.33-9.92,736.18Z"/>
      <path class="bbb46d59-01cc-4397-a259-186e8833599f" d="M18.82,723c-1.71,4.32,1.51,9.42,7.2,11.39s11.7.06,13.41-4.26-1.51-9.42-7.21-11.39S20.53,718.71,18.82,723Z"/>
      <path class="bbb46d59-01cc-4397-a259-186e8833599f" d="M42.94,648.05c-7-.1-11.77,3.54-12.27,8.92A5.83,5.83,0,0,1,28,661.61c-8.18,5.64-41.53,26.59-67.7,55.19-5,5.51-9.32,3.84-12.36,9.22a9.06,9.06,0,0,0,1.92,11.4,10.38,10.38,0,0,0,12.32.23,12.7,12.7,0,0,0,4.1-5.07c5.07-9.92,25.43-27.65,35.23-35C44.26,665.52,66.39,657,42.94,648.05Z"/>
      <path class="bbb46d59-01cc-4397-a259-186e8833599f" d="M-68.76,82.54c-7.32,3.5-5.62,16,4.84,16.78,6,.46,10.81-3,11.34-8.48C-52,85.16-14.86,49.12-6.65,48.35c4.26-.4,9.09-6,7.17-11.84-5.61-17.26-25.1,5-59.8,38.2C-62.24,77.54-64.77,80.62-68.76,82.54Z"/>
      <path class="bbb46d59-01cc-4397-a259-186e8833599f" d="M9.14,861.86c-5.93,1.22-9.78,6.24-8.6,11.21s6.93,8,12.86,6.77,9.77-6.24,8.6-11.2S15.07,860.63,9.14,861.86Z"/>
      <path class="bbb46d59-01cc-4397-a259-186e8833599f" d="M37.15,853.81c8.69-4,7.79-15.38.48-17.48S6.18,791.15-5.5,779.16c-12.36-12.7-28.09,15.14-8,16.61,3.41.25,4.67-1,6.46,2,4.57,7.64,11.57,22,25.12,38.93C25.34,845.83,25.11,859.42,37.15,853.81Z"/>
      <path class="bbb46d59-01cc-4397-a259-186e8833599f" d="M22,637.16c4.32-4,4.94-9.94,1.39-13.31S13.42,621,9.1,625s-4.95,9.93-1.39,13.31S17.65,641.14,22,637.16Z"/>
      <path class="bbb46d59-01cc-4397-a259-186e8833599f" d="M14.72,111.72c-5.51,2.37-8.09,8.15-5.74,12.91s8.71,6.71,14.23,4.34,8.08-8.15,5.74-12.91S20.24,109.35,14.72,111.72Z"/>
      <path class="bbb46d59-01cc-4397-a259-186e8833599f" d="M33.73,28.19c-.27-3.76,4.5-17.91,5.7-21.72.92-2.94,2-5.84,4.39-8.11C49-6.45,46.23-14.8,38.11-14.81c-17.75,0-9.06,30.65-21.71,38.55C.8,33.48,35.22,48.46,33.73,28.19Z"/>
    </g>
  </g>
</svg>
