<?xml version="1.0" encoding="utf-8"?>
<!-- Generator: Adobe Illustrator 25.2.3, SVG Export Plug-In . SVG Version: 6.00 Build 0)  -->
<svg version="1.1" id="Layer_1" xmlns="http://www.w3.org/2000/svg" xmlns:xlink="http://www.w3.org/1999/xlink" x="0px" y="0px"
	 viewBox="0 0 1600 900" style="enable-background:new 0 0 1600 900;" xml:space="preserve">
<style type="text/css">
	.st0{clip-path:url(#SVGID_2_);}
	.st1{fill:url(#SVGID_3_);}
	.st2{fill:url(#SVGID_4_);}
	.st3{fill:url(#SVGID_5_);}
	.st4{fill:#71CD33;}
	.st5{opacity:0.49;fill:#A5EB98;enable-background:new    ;}
	.st6{opacity:0.53;fill:url(#SVGID_6_);enable-background:new    ;}
	.st7{fill:url(#SVGID_7_);}
	.st8{fill:#3EAF77;}
	.st9{fill:#78969F;}
	.st10{fill:url(#SVGID_8_);}
	.st11{fill:url(#SVGID_9_);}
	.st12{fill:url(#SVGID_10_);}
	.st13{fill:url(#SVGID_11_);}
	.st14{fill:url(#SVGID_12_);}
	.st15{opacity:0.56;fill:#C28A73;enable-background:new    ;}
	.st16{fill:#CE856B;}
	.st17{fill:#3BEAA2;}
	.st18{fill:url(#SVGID_13_);}
	.st19{fill:url(#SVGID_14_);}
	.st20{fill:url(#SVGID_15_);}
	.st21{fill:url(#SVGID_16_);}
	.st22{fill:url(#SVGID_17_);}
	.st23{opacity:0.36;fill:#B46747;enable-background:new    ;}
	.st24{fill:#B46747;}
	.st25{fill:#602D0B;}
	.st26{fill:#A8E533;}
	.st27{fill:url(#SVGID_18_);}
	.st28{fill:url(#SVGID_19_);}
	.st29{fill:#BF8485;}
	.st30{fill:#89E9F4;}
	.st31{fill:url(#SVGID_20_);}
	.st32{fill:url(#SVGID_21_);}
	.st33{fill:url(#SVGID_22_);}
	.st34{fill:url(#SVGID_23_);}
	.st35{fill:#7BE57F;}
	.st36{fill:url(#SVGID_24_);}
	.st37{fill:url(#SVGID_25_);}
	.st38{fill:url(#SVGID_26_);}
	.st39{fill:url(#SVGID_27_);}
	.st40{fill:url(#SVGID_28_);}
	.st41{fill:#969A9E;}
	.st42{fill:url(#SVGID_29_);}
	.st43{fill:url(#SVGID_30_);}
	.st44{fill:#6BBA2D;}
	.st45{fill:#80D63C;}
	.st46{fill:#899B1C;}
	.st47{fill:#99A523;}
	.st48{fill:#69BC28;}
</style>
<g>
	<defs>
		<rect id="SVGID_1_" width="1600" height="900"/>
	</defs>
	<clipPath id="SVGID_2_">
		<use xlink:href="#SVGID_1_"  style="overflow:visible;"/>
	</clipPath>
	<g class="st0">
		
			<linearGradient id="SVGID_3_" gradientUnits="userSpaceOnUse" x1="668.0444" y1="33.6512" x2="867.2744" y2="1018.5811" gradientTransform="matrix(1 0 0 -1 0 900)">
			<stop  offset="0.2" style="stop-color:#C5F7FD"/>
			<stop  offset="0.34" style="stop-color:#B3F0FD"/>
			<stop  offset="0.66" style="stop-color:#8EE1FD"/>
			<stop  offset="0.83" style="stop-color:#80DBFD"/>
		</linearGradient>
		<rect x="-25.6" y="-11" class="st1" width="1658.9" height="411.6"/>
		
			<linearGradient id="SVGID_4_" gradientUnits="userSpaceOnUse" x1="1091.1725" y1="750.6676" x2="1151.4924" y2="811.0276" gradientTransform="matrix(1 0 0 -1 0 900)">
			<stop  offset="0.15" style="stop-color:#82CDD9"/>
			<stop  offset="0.82" style="stop-color:#D7EEF4"/>
		</linearGradient>
		<path class="st2" d="M1090.6,115.2c0,0,1.2-9.2,16.3-15.4s27.8-9.6,41-2.4s10.3,23.6,7.6,25.5c-5.4,3.7-17,8.7-48.1,3.9
			C1088.6,123.9,1090.6,115.2,1090.6,115.2z"/>
		
			<linearGradient id="SVGID_5_" gradientUnits="userSpaceOnUse" x1="1364.2078" y1="692.5522" x2="1458.8079" y2="787.2122" gradientTransform="matrix(1 0 0 -1 0 900)">
			<stop  offset="0.15" style="stop-color:#82CDD9"/>
			<stop  offset="0.9" style="stop-color:#D7EEF4"/>
		</linearGradient>
		<path class="st3" d="M1361.9,153.6c0,0,1.9-12.9,26.4-21.8s45.1-13.6,66.3-3.4s16.8,33.3,12.2,36.1c-8.8,5.3-27.6,12.2-77.9,5.4
			C1358.7,165.8,1361.9,153.6,1361.9,153.6z"/>
		<path class="st4" d="M-30.1,367.2c0,0,609.3-2.4,1039.3,22C1315.6,406.7,1630,408,1630,408l8.4,273.8l-16.8,213.4l-1747,27.3
			L-30.1,367.2z"/>
		<path class="st5" d="M517,389.6c0,0,191,48.9,620,47.4s559.7,4.5,559.7,4.5l-77.7-46.3l-538.7-2l-102.4-2.3L517,389.6z"/>
		
			<linearGradient id="SVGID_6_" gradientUnits="userSpaceOnUse" x1="604.5036" y1="99.5269" x2="1613.2236" y2="1151.597" gradientTransform="matrix(1 0 0 -1 0 900)">
			<stop  offset="3.000000e-02" style="stop-color:#77C4F9"/>
			<stop  offset="0.33" style="stop-color:#8ACBF7"/>
			<stop  offset="0.87" style="stop-color:#B4DAF3"/>
		</linearGradient>
		<path class="st6" d="M215.3,232.3c0,0,460.9,79.4,700.5-5.3c228.7-80.9,482.2,171.9,964.3,99.7l40.6,75L215.3,390.9V232.3z"/>
		
			<linearGradient id="SVGID_7_" gradientUnits="userSpaceOnUse" x1="328.1863" y1="375.9336" x2="821.4162" y2="890.3635" gradientTransform="matrix(1 0 0 -1 0 900)">
			<stop  offset="1.000000e-02" style="stop-color:#987CE4"/>
			<stop  offset="0.23" style="stop-color:#919FDF"/>
			<stop  offset="0.45" style="stop-color:#8BBCDB"/>
			<stop  offset="0.64" style="stop-color:#87CDD9"/>
			<stop  offset="0.78" style="stop-color:#86D3D8"/>
		</linearGradient>
		<path class="st7" d="M141.9,276.5c0,0,172,48.4,317.6-171.3c0,0,58.8-81.2,148.2-77.3c71.8,3.1,215.5,74.8,260.4,292
			c0,0,10.7,52,4.9,77.8l-738-10.6L141.9,276.5z"/>
		<path class="st8" d="M77.4,299.2c0,0,0.6-49.2,30.2-55.5s48.2,18.2,48.2,18.2s7.1-24.5,28.3-27.7s37.9,23,37.9,23
			s43.7-13.5,46.9,25.4c0,0,38.5-16.6,45.6,31.7c0,0,27.6-5.5,31.5,27.8c0,0,51.4-9.5,43.7,27c0,0,40.5-7.9,27,26.2H119.8
			L77.4,299.2z"/>
		<path class="st9" d="M1002.5,355.7c0.1,2.2,0.8,4.4,2.1,6.1c3.3,4.4,8.7,4.3,9.3,4.3l-0.2-9.8l3.3,0.1v5.5
			c1.4,0.3,2.9,0.1,4.3-0.5c1.8-1,3.2-2.6,3.8-4.6h1.4c-0.3,0.9-0.6,1.8-0.8,2.7c1.2,0.7,2.5,0.9,3.8,0.6c1.6-0.5,2.9-1.6,3.5-3.1h1
			c0,0-0.7,6.2-8.8,4.1c-1.5,2.2-5,4.5-8.2,3.3c0.2,6.8,1.3,33.2,1.3,33.2h-3.8l-0.7-29c-3.4-0.2-6.7-1.7-9-4.2
			c-2.2-2.5-3.5-5.7-3.7-9L1002.5,355.7z"/>
		
			<linearGradient id="SVGID_8_" gradientUnits="userSpaceOnUse" x1="1008.8859" y1="536.1578" x2="1023.3759" y2="575.9979" gradientTransform="matrix(1 0 0 -1 0 900)">
			<stop  offset="0" style="stop-color:#55B5AA"/>
			<stop  offset="0.41" style="stop-color:#66CFCB"/>
			<stop  offset="0.77" style="stop-color:#72E1E2"/>
			<stop  offset="1" style="stop-color:#76E8EB"/>
		</linearGradient>
		<path class="st10" d="M992,341.1c0,0,28.9-11.3,46.3,0c14.8,11-0.4,15.7-10.3,15.3c-15.4-0.2-34.2-1.4-34.2-1.4
			S972.8,351.6,992,341.1z"/>
		
			<linearGradient id="SVGID_9_" gradientUnits="userSpaceOnUse" x1="-112.258" y1="438.3835" x2="288.492" y2="562.3934" gradientTransform="matrix(1 0 0 -1 0 900)">
			<stop  offset="3.000000e-02" style="stop-color:#219F68"/>
			<stop  offset="0.84" style="stop-color:#3FE28C"/>
			<stop  offset="0.94" style="stop-color:#43EA90"/>
		</linearGradient>
		<path class="st11" d="M-119.2,426.1c0,0-46.4-37.7,32.3-53c0,0-26.2-27.5,0-50.9c0,0,19.2-19.4,52.4-7.1c0,0,38.3-40.7,91.7-15.3
			c0,0,47.4-15.3,78.6,3.1s20.2,55.9,20.2,55.9s45.7-17.8,64.9,21.5c0,0,60.6-13.3,60.6,26.4c0,0,46-11.6,80.7,27.3
			c0,0,64-26.2,49.9-2.8l-24.2,11.2l-496-9.2L-119.2,426.1z"/>
		
			<linearGradient id="SVGID_10_" gradientUnits="userSpaceOnUse" x1="659.4302" y1="340.3899" x2="956.9301" y2="639.7098" gradientTransform="matrix(1 0 0 -1 0 900)">
			<stop  offset="3.000000e-02" style="stop-color:#2EB691"/>
			<stop  offset="0.85" style="stop-color:#42D984"/>
		</linearGradient>
		<path class="st12" d="M557.3,399.7c0,0-5.7-69.3,58.5-96.3c27.6-11.6,39.4,4.8,39.4,4.8s19.3-21.7,43.4-19.2s46.6,27.2,46.6,27.2
			s50.7-14.4,66.7,5.6c0,0,8,7.6,3.2,18.2c0,0,69.1-19.8,76.4,29.7c0,0,41-5,48.2,29.4c0,0,55.9-28.5,81.8,19.3
			c0,0,54.3-1.4,68.6,18.6l-17.4,0.1l-504.1-4.5L557.3,399.7z"/>
		
			<linearGradient id="SVGID_11_" gradientUnits="userSpaceOnUse" x1="474.4236" y1="359.3076" x2="516.5737" y2="595.3676" gradientTransform="matrix(1 0 0 -1 0 900)">
			<stop  offset="0.55" style="stop-color:#5FC687"/>
			<stop  offset="0.62" style="stop-color:#67CA89"/>
			<stop  offset="0.73" style="stop-color:#7DD68D"/>
			<stop  offset="0.85" style="stop-color:#9EE793"/>
		</linearGradient>
		<path class="st13" d="M281,430.2c0,0-10-27.4,24-39.1c0,0-19.5-20.3,0-37.6c0,0,14.2-14.3,38.9-5.3c0,0,22.8-33.2,68-11.3
			c0,0,35.1-11.3,58.3,2.3s19.3,35.9,19.3,35.9s30.7-15.7,50.2,8.5c0,0,36.2-7.8,40.4,19.5c0,0,41.5-17.3,57.6,16.5
			c0,0,53.4-8.4,72.4,14.4h-45.3l-362-1.4L281,430.2z"/>
		
			<linearGradient id="SVGID_12_" gradientUnits="userSpaceOnUse" x1="1055.3876" y1="450.8703" x2="1051.0776" y2="671.8503" gradientTransform="matrix(-1 0 0 -1 1819.27 900)">
			<stop  offset="0" style="stop-color:#907D61"/>
			<stop  offset="0.36" style="stop-color:#6D6B4D"/>
			<stop  offset="0.58" style="stop-color:#5E6345"/>
		</linearGradient>
		<path class="st14" d="M662.9,434.7c-0.2-0.5,1.2-0.9,2.5-2.7c1-1.3,1.9-2.7,2.6-4.2c1.1-4.4,4.6-9.7,6-11.7
			c4.6-6.2,6.8-15.6,10.3-31.1c2-8.8,3.5-17.7,4.5-26.7c0.3-15.5-1.9-27.2-6.3-33.9c-4.7-7.4-8.9-15-12.5-23c0,0-25.8,1.2-28,0
			s-8.5-6.7-7.3-21.1l-0.4-3.5l6.6,1.9c0,0,2,12.9,10.5,13.9c10.1,1.4,21.7-4.8,20-13.9h7.4c0,0-2.3,26.5,8.9,32.1
			c8.3,2.2,13.2-1.3,12.8-16.8l-0.4-15.5h13.2c0,0-0.8,16.5,0,17.5s6.6,11.2,12.8-9.8c5.3-14.8,2.3-7.7,2.3-7.7l7.2,0.2
			c0,0-3.2,16.3-13.8,26.5c-7,9.8-7.2,26.2-1.9,32c5.7,5.8,15.3,9,22.6-25.4c4.9-22.8,6.2-33.1,6.2-33.1l10.2-0.1
			c0,0-4.2,27.2-3.4,32c0.9,5.4,1.3,22,23.5,15c53.3-15.3-8-37.5-0.4-50.1c2.2-3.6,36.5,36,39.7,26.3c5-15.2,7.8-23.9,7.8-23.9
			l8.3-0.2c0,0,0.4,8.9-1.3,11.3c2.7,0.2,24.7-1.7,34.5-6.5c8.8-4.3,20.2-10.5,21.1-12.9c2.2-0.1,9,0.1,11.2,0
			c-1.7,4.4-4.6,6.1-6.7,7.8c-8.1,6.2-25.4,14.5-55.1,18.6c-2.4,0.2-4.7,0.5-7,1c0,0.1-0.1,0.9-0.1,0.9s-1.2,22.4-27.7,33.1
			c-23.7,9.4-34.1,14.2-40.1,18s-10.2,7.8-9.2,20.8c0.9,10.4,0.4,20.8-1.7,31c-2.4,11.8-6.8,23.1-13,33.5
			c-20.4,0.7-33.5,0.8-41.9,0.7c-16.8-0.2-26.4-1-31.5,0.2C666,435,663.2,435.3,662.9,434.7z"/>
		<path class="st15" d="M685.9,378.2c5.2,2.2,14.5,6.2,19.4,11.2c18,18.3,5.8,42.4,4.4,45l-47.6,0.6c3-3,5.5-6.6,7.2-10.6
			C676.1,409.1,684.5,390.4,685.9,378.2z"/>
		<path class="st16" d="M744.2,305.4c0,0-8.8,34.6-15.7,34.4C735.6,343.3,749,333.7,744.2,305.4z"/>
		<path class="st17" d="M876.6,201.4c-2-14.9-7.4-37.5-23.7-55.9c-43.8-49.8-127.8-26.6-154.6-19.2C632,144.6,589,188.6,568,214.2
			l-10.4,8.2c55,10.1,110.8,14.7,166.6,14c48.6-0.7,97.2-5.4,145-14.3L876.6,201.4z"/>
		
			<linearGradient id="SVGID_13_" gradientUnits="userSpaceOnUse" x1="1127.6622" y1="625.231" x2="1001.8522" y2="923.3309" gradientTransform="matrix(-1 0 0 -1 1819.27 900)">
			<stop  offset="0.26" style="stop-color:#55B093"/>
			<stop  offset="0.39" style="stop-color:#61C489"/>
			<stop  offset="0.56" style="stop-color:#6DDB7D"/>
			<stop  offset="0.68" style="stop-color:#72E379"/>
		</linearGradient>
		<path class="st18" d="M876,200.5c-2-14.4-7.4-36.1-23.4-53.8c-43.4-47.9-126.5-25.6-153-18.5c-65.6,17.7-108.1,60-129,84.7
			l-10.3,7.9c54.4,9.7,109.6,14.2,164.9,13.5c48.1-0.6,96.1-5.2,143.5-13.7L876,200.5z"/>
		<path class="st17" d="M604.9,208.9c0,0-60.7-13.9-87.6,28.5c-17.5,33-20.6,43.6,87.6,37.7C623.2,222.3,604.9,208.9,604.9,208.9z"
			/>
		
			<linearGradient id="SVGID_14_" gradientUnits="userSpaceOnUse" x1="1346.2419" y1="557.1619" x2="1203.3918" y2="697.062" gradientTransform="matrix(-1 0 0 -1 1819.27 900)">
			<stop  offset="0.23" style="stop-color:#2FAC76"/>
			<stop  offset="0.54" style="stop-color:#31AD79"/>
			<stop  offset="0.74" style="stop-color:#36B281"/>
			<stop  offset="0.88" style="stop-color:#3DB98E"/>
		</linearGradient>
		<path class="st19" d="M603.4,210.1c0,0-59-14.2-85.1,29c-17,33.5-20.1,44.4,85.1,38.3C621.1,223.8,603.4,210.1,603.4,210.1z"/>
		<path class="st17" d="M863.6,271.1c1.8,0,54.9-3.7,54.9-3.7s32.9-6.9,14-23.7c-4.8-2.3-8.9-5.8-12-10.2c-3.8-5.5-2.8-8.2-5.2-13.3
			c-7.6-16.1-33.2-21.5-33.2-21.5l0,0c0,0-44.9-10.5-70.7,3.4c-2.9,1.6,6,5.8,4.9,7.3c-11.9,15.7,25.1,61.7,25.1,61.7H863.6z"/>
		
			<linearGradient id="SVGID_15_" gradientUnits="userSpaceOnUse" x1="957.7989" y1="621.3197" x2="919.1189" y2="760.2797" gradientTransform="matrix(-1 0 0 -1 1819.27 900)">
			<stop  offset="0.26" style="stop-color:#55B093"/>
			<stop  offset="0.39" style="stop-color:#61C489"/>
			<stop  offset="0.56" style="stop-color:#6DDB7D"/>
			<stop  offset="0.68" style="stop-color:#72E379"/>
		</linearGradient>
		<path class="st20" d="M836.8,271.4c1.8,0,100.1-2,100.1-2s17.8-2.7,7.9-19.3c-5.8-8.3-10-14.6-13.6-20c-3.6-5.5-13.4-13.9-20-18.6
			C895,198.7,864,197.9,864,197.9l0,0c0,0-33.5-7.1-58.3,6.8c-2.8,1.6-4.1,2.4-5.2,3.8c-11.5,15.8,24.3,61.9,24.3,61.9L836.8,271.4z
			"/>
		<path class="st17" d="M859.2,228.9c0,0-30.2-25.2-61.9-35c-34.6-14.8-80.4-47.9-135.9-32.6c-42.9,14.3-75,34-94,70.6
			c-9.3,21.2-10.7,46.9,59.9,43.4l196.8,0.3C824.2,275.6,901.1,269.8,859.2,228.9z"/>
		
			<linearGradient id="SVGID_16_" gradientUnits="userSpaceOnUse" x1="1118.1941" y1="582.7983" x2="1058.9941" y2="786.5383" gradientTransform="matrix(-1 0 0 -1 1819.27 900)">
			<stop  offset="7.000000e-02" style="stop-color:#39A57E"/>
			<stop  offset="0.67" style="stop-color:#72E379"/>
		</linearGradient>
		<path class="st21" d="M863.4,232.4c0,0-30.5-25.6-62.6-35.6c-35-15-81.3-48.7-137.5-33.1c-43.4,14.5-75.9,34.6-95.1,71.7
			c-9.4,21.6-10.8,47.6,60.6,44.1l199.1,0.3C827.9,279.9,905.8,274,863.4,232.4z"/>
		<path class="st16" d="M634.5,279.5c0,0-0.9,14.4,5.7,20.2c2,2,3.5,2,5.9,2c-4.2-1.7-7.3-5.4-8.2-9.9c-0.9-4.1-1.5-8.2-1.8-12.4
			L634.5,279.5L634.5,279.5z"/>
		<path class="st16" d="M700.2,279.6c0.3,2.6,0.5,10.5,0.3,12.3c-0.5,7.8-1,16.6-5.7,18.9c-1.1,0.5-2.4,0.7-3.6,0.5l-1.8-0.2
			c2.2,2.9,4.2,3.1,4.8,3.2c3.9,0.2,8.5-5.2,9.7-13.9c0.7-4.1,1-8.3,0.8-12.5c-0.2-3.5-0.7-8.2-0.7-8.2l0,0L700.2,279.6z"/>
		
			<linearGradient id="SVGID_17_" gradientUnits="userSpaceOnUse" x1="1289.1366" y1="429.4509" x2="1280.8268" y2="855.1909" gradientTransform="matrix(-1 0 0 -1 1457.89 900)">
			<stop  offset="0" style="stop-color:#A3513F"/>
			<stop  offset="0.14" style="stop-color:#A0513F"/>
			<stop  offset="0.26" style="stop-color:#95503F"/>
			<stop  offset="0.38" style="stop-color:#835040"/>
			<stop  offset="0.48" style="stop-color:#6B4F41"/>
			<stop  offset="0.59" style="stop-color:#4B4D42"/>
			<stop  offset="0.67" style="stop-color:#2D4C43"/>
		</linearGradient>
		<path class="st22" d="M54.2,448.8c-0.3-0.7,1.8-1.8,3.5-4.4c1.2-1.8,2-3.9,2.3-6c1.5-6.3,7.5-13.9,9.4-16.7
			c6.2-8.9,9.2-22.3,14-44.4c2.8-12.6,4.8-25.3,6.1-38.1c0.4-22.1-2.5-38.8-8.5-48.4c-6.4-10.5-12.1-21.5-17-32.8c0,0-35,1.7-38,0
			s-11.5-9.6-10-30.1l-0.5-4.9l9,2.6c0,0,2.8,18.4,14.3,19.8c13.7,2,29.4-6.9,27.1-19.8h10c0,0-3.1,37.8,12,45.7
			c11.3,3.1,17.9-1.8,17.4-23.9l-0.5-22.1h17.9c0,0-1,23.5,0,24.9s9,15.9,17.4-14c7.2-21.1,3.1-10.9,3.1-10.9l9.7,0.2
			c0,0-4.4,23.2-18.7,37.8c-9.5,14-9.7,37.3-2.6,45.6c7.7,8.3,20.7,12.8,30.7-36.2c6.7-32.5,8.4-47.1,8.4-47.1l13.8-0.2
			c0,0-5.6,38.8-4.6,45.6c1.3,7.7,1.8,31.3,32,21.4c15.7-2.4,47.1-11.1,60.2-37.3c4.9-22.2,3.8-30.8,3.8-30.8l11.3-0.3
			c0,0-0.3,12.8-2.6,16.3c7,0.5,14-1.1,20.1-4.6c11.6-6.7,16.3-18.1,17.5-21.5l9-0.4c-2.1,6.1-5.2,11.7-9.1,16.8
			c-8.9,11.2-21.3,17.4-30.4,18.9c-1.8,0.3-9,1.3-9,1.6c0,0.1,0.5,0.1,0.5,0.1s-2.3,33.6-38.4,49c-32.2,13.4-46.3,20.2-54.5,25.6
			s-13.8,11.1-12.5,29.6c1.3,14.8,0.5,29.7-2.3,44.3c-3.2,16.8-9.2,32.9-17.7,47.7c-27.7,1-45.5,1.1-56.9,0.9
			c-22.9-0.2-35.9-1.5-42.8,0.3C58.6,448.7,54.6,449.7,54.2,448.8z"/>
		<path class="st23" d="M90.2,334.4c8.7,5.5,16.1,12.8,21.7,21.4c24.5,37.3,7.8,86.4,5.9,91.7l-64.7,1.3c4.6-7,8.7-14.3,12.4-21.9
			C82.6,392.7,88.4,359.3,90.2,334.4z"/>
		<path class="st24" d="M164.8,263.8c0,0-12,49.4-21.4,49C153.1,317.9,171.2,304.2,164.8,263.8z"/>
		<path class="st25" d="M97.7,393.8c1.2,0.2,2.4,0.3,3.6,0.3c1.2,0,2.3-0.2,3.4-0.7c0.5-0.3,0.9-0.7,1.2-1.2
			c0.2-0.5,0.4-1.1,0.3-1.6c-0.1-1.2-0.5-2.3-1-3.3c-1-2.1-2.3-4.1-3.9-5.9c-1.5-1.8-3.3-3.3-5.2-4.5c-1-0.6-2-0.9-3.2-1
			c-1,0-2,0.6-2.6,1.5c-1.1,2-1.7,4.3-1.8,6.5c-0.1,4.7,0.5,9.4,1.8,14v-0.1c2.5,4.5,5.5,8.9,9.5,12c1,0.8,2.1,1.4,3.2,1.9
			c1.1,0.5,2.3,0.5,3.4,0c1.1-0.6,1.9-1.5,2.5-2.5c0.6-1.1,1.1-2.3,1.5-3.5c1.3-5,1.9-10.1,1.6-15.3c-0.1-5.2-0.2-10.4-0.2-15.7
			c0.3,5.2,0.5,10.4,0.8,15.6c0.4,5.3-0.1,10.6-1.3,15.7c-0.4,1.3-0.9,2.5-1.5,3.7c-0.7,1.3-1.7,2.3-2.9,3c-1.4,0.6-2.9,0.6-4.2,0
			c-1.3-0.5-2.5-1.2-3.5-2c-2.1-1.7-4-3.6-5.6-5.7c-1.6-2.1-3-4.3-4.3-6.6v-0.1v-0.1c-1.4-4.7-1.9-9.5-1.8-14.4c0-2.5,0.7-4.9,2-7.1
			l0.3-0.4c0.1-0.1,0.2-0.2,0.3-0.4c0.1-0.1,0.2-0.2,0.4-0.3l0.4-0.3c0.3-0.2,0.6-0.3,1-0.4c0.3-0.1,0.7-0.1,1-0.1
			c1.3,0.1,2.5,0.5,3.6,1.2c2.1,1.3,3.9,2.9,5.4,4.8c1.6,1.9,2.8,3.9,3.8,6.1c0.5,1.1,0.8,2.3,0.9,3.5c0,0.6-0.1,1.3-0.4,1.8
			c-0.3,0.6-0.8,1-1.3,1.3c-1.1,0.5-2.3,0.7-3.6,0.6C100.1,394.3,98.9,394.1,97.7,393.8z"/>
		<path class="st26" d="M365.1,114.2c-2.9-19.2-10.2-48.6-33.5-72C270.9-18.7,150.7,7.9,112.7,17.5C23.3,40-46.4,102.7-71.8,130.8
			l-14.8,10.6c77.9,13,156.8,19,235.8,18.1c68.8-0.8,137.4-7,205.2-18.4L365.1,114.2z"/>
		
			<linearGradient id="SVGID_18_" gradientUnits="userSpaceOnUse" x1="1321.1561" y1="556.66" x2="1314.566" y2="983.0899" gradientTransform="matrix(-1 0 0 -1 1457.89 900)">
			<stop  offset="0.52" style="stop-color:#0B5A42"/>
			<stop  offset="0.54" style="stop-color:#105F41"/>
			<stop  offset="0.69" style="stop-color:#419233"/>
			<stop  offset="0.82" style="stop-color:#66B829"/>
			<stop  offset="0.93" style="stop-color:#7CCF23"/>
			<stop  offset="1" style="stop-color:#84D721"/>
		</linearGradient>
		<path class="st27" d="M365.2,117.1c-2.9-19.3-10.5-48.5-33.4-72.3c-61.9-64.4-180.4-34.4-218.3-24.8
			C19.9,43.7-40.7,100.6-70.4,133.7l-14.7,10.6c77.7,13,156.4,19.1,235.2,18.2c68.6-0.9,137-7,204.6-18.5L365.2,117.1z"/>
		<path class="st26" d="M408.5,145.5c0,0-37.9-37.2-96.8-61.9c-70.6-29.7-137.2-60-228.3-39.4C12.1,66.1-41.3,96.3-73,152.2
			c-15.4,32.5-17.8,71.8,99.7,66.5l327.4,0.5C354.1,219.2,486.2,219.2,408.5,145.5z"/>
		
			<linearGradient id="SVGID_19_" gradientUnits="userSpaceOnUse" x1="1319.9042" y1="580.8884" x2="1175.1941" y2="1091.9784" gradientTransform="matrix(-1 0 0 -1 1457.89 900)">
			<stop  offset="0.15" style="stop-color:#0E5747"/>
			<stop  offset="0.22" style="stop-color:#165F45"/>
			<stop  offset="0.35" style="stop-color:#2C7740"/>
			<stop  offset="0.5" style="stop-color:#519C37"/>
			<stop  offset="0.68" style="stop-color:#82D02B"/>
			<stop  offset="0.79" style="stop-color:#A6F522"/>
		</linearGradient>
		<path class="st28" d="M412.2,152.5c0,0-53.7-52.5-106.4-68.1C248.3,61.1,175.6,21.9,83.3,46C12,68.5-41.5,99.6-73.1,157.1
			c-15.4,33.4-17.8,73.9,99.6,68.4l327.3,0.5C353.9,226,481.9,217,412.2,152.5z"/>
		<path class="st24" d="M15.7,226.2c0,0-1.3,21.3,7.7,29.6c2.7,2.9,4.8,2.8,8,2.9c-5.8-2.6-10-7.8-11.2-14.1
			c-1.3-6.3-2.1-12.6-2.3-19h-2.2V226.2z"/>
		<path class="st24" d="M105.1,225.4c0.4,3.7,0.5,16.7,0.4,19.2c-0.6,11.1-1.3,23.7-7.8,26.9c-1.5,0.7-3.2,1-4.8,0.7l-2.4-0.3
			c3,4.1,5.7,4.5,6.6,4.5c5.3,0.3,11.6-7.4,13.1-19.9c1-5.9,1.3-11.9,1.1-17.9c-0.2-5-1.1-13.4-1.1-13.4H105.1z"/>
		<path class="st29" d="M898,355.6c0.8,3.6,2.2,7.1,4.1,10.4c1.9,3.3,3.3,5.7,6.4,7.8c2.6,1.7,5.5,2.8,8.5,3.3v-20.8l6.3,0.2v12.7
			c0,0,14,1.6,15.9-12.3h1.9c0,0,1.7,15.9-17.5,17.7l-1.3,58.4h-5.8l0.2-48.2c-4.4-2-8.3-4.8-11.7-8.2c-5.6-5.7-8.9-13.2-9.2-21.2
			h1.3C897.4,355.5,897.7,355.5,898,355.6z"/>
		<path class="st30" d="M874.5,331.4c0,0,55.2-19.4,88.6,0c28,17.9,13.4,26.2-19.8,26.2c-29.4-0.3-65.5-2.4-65.5-2.4
			S837.9,349.4,874.5,331.4z"/>
		
			<linearGradient id="SVGID_20_" gradientUnits="userSpaceOnUse" x1="901.9182" y1="512.5508" x2="938.0782" y2="598.0308" gradientTransform="matrix(1 0 0 -1 0 900)">
			<stop  offset="0.29" style="stop-color:#3CBBE2"/>
			<stop  offset="0.52" style="stop-color:#38C5DE"/>
			<stop  offset="0.78" style="stop-color:#36C9DD"/>
		</linearGradient>
		<path class="st31" d="M873.2,332.9c0,0,56.2-20.5,90.1,0c32.7,21.8,9.5,27.8-20.2,27.8c-29.9-0.3-66.6-2.5-66.6-2.5
			S835.9,352,873.2,332.9z"/>
		
			<linearGradient id="SVGID_21_" gradientUnits="userSpaceOnUse" x1="409.5137" y1="277.9236" x2="589.3137" y2="594.0836" gradientTransform="matrix(1 0 0 -1 0 900)">
			<stop  offset="0" style="stop-color:#21607B"/>
			<stop  offset="0.23" style="stop-color:#238C77"/>
			<stop  offset="0.45" style="stop-color:#25AF74"/>
			<stop  offset="0.62" style="stop-color:#27C472"/>
			<stop  offset="0.74" style="stop-color:#27CC71"/>
		</linearGradient>
		<path class="st32" d="M162.9,494.4c0,0-47.3-35.6,8.7-69.9c42.2-25.8,92.6-19.9,92.6-19.9s19.2-28.6,68.2-28.6
			c48.3,0,70.7,27.9,70.7,27.9s53.3-17.7,86.5,3.7c36,23.3,30.6,25.3,30.6,25.3s55.9-9.4,79.9,49.5c0,0,224.9,10.7,234.9,26
			l-277.2-6l-395,0.1L162.9,494.4z"/>
		
			<linearGradient id="SVGID_22_" gradientUnits="userSpaceOnUse" x1="-4.6516" y1="259.5381" x2="297.4572" y2="505.439" gradientTransform="matrix(1 0 0 -1 0 900)">
			<stop  offset="0.15" style="stop-color:#108937"/>
			<stop  offset="0.33" style="stop-color:#1C9C45"/>
			<stop  offset="0.69" style="stop-color:#3BCC67"/>
			<stop  offset="0.73" style="stop-color:#3FD26C"/>
		</linearGradient>
		<path class="st33" d="M-90.4,499.6c0,0,73.7-87.6,155.1-62.3c0,0,65.6-45.2,113.9,11.6c0,0,84.5-5,100.8,28.2
			c0,0,78.6-6.6,101,31.5l22,14.9l-500.9,1.7L-90.4,499.6z"/>
		
			<linearGradient id="SVGID_23_" gradientUnits="userSpaceOnUse" x1="2531.5154" y1="399.4933" x2="2749.4253" y2="699.7634" gradientTransform="matrix(-1 0 0 -1 4271.8301 900)">
			<stop  offset="2.000000e-02" style="stop-color:#10A159"/>
			<stop  offset="0.23" style="stop-color:#12A45A"/>
			<stop  offset="0.35" style="stop-color:#17AC5E"/>
			<stop  offset="0.46" style="stop-color:#20BB64"/>
			<stop  offset="0.55" style="stop-color:#2CCF6D"/>
			<stop  offset="0.59" style="stop-color:#33DA71"/>
		</linearGradient>
		<path class="st34" d="M1859.3,402.4c0,0-22.8-18.3-66.8-12.1c0,0-8,2.5-5.6-7.4c2.1-8.5-0.7-20.2-24.8-13.6
			c-13.6,3.7-24.8,12.4-24.8,12.4s-3.2,1.9,0-5.6s-0.8-13.6-12.8-13.6s-23.2,6.2-23.2,6.2s-8-11.2-28.8-12.4s-30.4,3.7-30.4,3.7
			s-4.8-15.6-30.4-16.7c-13.6-0.6-25.6,8.7-25.6,8.7s-32-4.3-56.8,14.3c0,0-5.6-7.4-19.2-6.2s-25.6,18-31.2,33.5l-1.4,6.8
			L1859.3,402.4z"/>
		<path class="st35" d="M1039.9,439c0,0-14.8-8.1-18.8-7.4s4.1-7.2,16,1.8C1041.9,437,1039.9,439,1039.9,439z"/>
		<path class="st35" d="M1043.1,439c0,0-6.2-18.6-12.9-20.5s10.6-4.8,14.1,7.8C1046.7,434.9,1043.1,439,1043.1,439z"/>
		<path class="st35" d="M1045.1,439c0,0,7.2-13.2,21.6-13.7s-21.6,14.5-21.6,14.5"/>
		
			<linearGradient id="SVGID_24_" gradientUnits="userSpaceOnUse" x1="638.9554" y1="371.6172" x2="675.7023" y2="401.5284" gradientTransform="matrix(0.9912 0.1323 0.1323 -0.9912 217.8692 722.214)">
			<stop  offset="0.18" style="stop-color:#108937"/>
			<stop  offset="0.32" style="stop-color:#109730"/>
			<stop  offset="0.72" style="stop-color:#11B81F"/>
			<stop  offset="0.94" style="stop-color:#11C418"/>
		</linearGradient>
		<path class="st36" d="M915,437.3c0,0-11.3,0-17.1-3.8s8.1-2,19.2-0.2c0,0-1-0.9-9.6-5.4s-6.2-8,0.6-4.8c4.7,2.4,9.3,5.2,13.6,8.3
			c0,0-12.4-10.1-12.5-12.1s2.2-2,13.7,10.6c0,0-10.5-10.6-8.3-15.8s10.2,14.6,10.2,14.6s-7-21.3-2.1-22.2s3.8,21.2,3.8,21.2
			s4.8-12.3,12.2-12.1s-9.6,13.2-11.2,13.4c0,0,0.7,0.9,3.1,0.4s9.2-7,13.1-7.2s9.6,4.4-12.9,14.7L915,437.3z"/>
		
			<linearGradient id="SVGID_25_" gradientUnits="userSpaceOnUse" x1="111.3123" y1="211.8086" x2="195.3638" y2="280.2135" gradientTransform="matrix(0.9912 0.1323 0.1323 -0.9912 217.8692 722.214)">
			<stop  offset="0.18" style="stop-color:#108937"/>
			<stop  offset="0.49" style="stop-color:#47AB50"/>
			<stop  offset="0.94" style="stop-color:#94DA73"/>
		</linearGradient>
		<path class="st37" d="M389.7,524.5c0,0-26,0.1-39.1-8.8s18.5-4.7,43.9-0.4c0,0-2.4-2.1-22-12.3s-14.1-18.4,1.5-11s31,19,31,19
			s-28.2-23.1-28.5-27.6s5.1-4.7,31.2,24.3c0,0-24.1-24.2-18.9-36s23.3,33.5,23.3,33.5s-15.9-48.6-4.9-50.7s8.7,48.5,8.7,48.5
			s10.9-28,27.9-27.6s-21.9,30.1-25.6,30.6c0,0,1.5,2,7,0.9s21.1-16,30-16.6c9-0.6,21.9,10.1-29.5,33.6L389.7,524.5z"/>
		<path class="st35" d="M715.8,452.4c0,0-11.7-8-14.8-7.2s3.2-7,12.6,1.7C717.3,450.4,715.8,452.4,715.8,452.4z"/>
		<path class="st35" d="M718.3,452.4c0,0-4.9-18.1-10.2-20s8.4-4.7,11.1,7.6C721.1,448.4,718.3,452.4,718.3,452.4z"/>
		<path class="st35" d="M719.9,452.4c0,0,5.7-12.9,17-13.4s-17,14.2-17,14.2"/>
		<path class="st35" d="M293.8,526.4c0,0-11.7-8-14.8-7.2s3.2-7,12.6,1.7C295.4,524.4,293.8,526.4,293.8,526.4z"/>
		<path class="st35" d="M293.8,527.3c0,0-4.9-18.1-10.2-20s8.4-4.7,11.1,7.6C296.6,523.3,293.8,527.3,293.8,527.3z"/>
		<path class="st35" d="M294.1,525.6c0,0,5.7-12.9,17-13.4s-17,14.2-17,14.2"/>
		<path class="st35" d="M570.2,505.3c0,0-11.7-8-14.8-7.2s3.2-7,12.6,1.7C571.8,503.3,570.2,505.3,570.2,505.3z"/>
		<path class="st35" d="M572.7,505.3c0,0-4.9-18.1-10.2-20s8.4-4.7,11.1,7.6C575.5,501.3,572.7,505.3,572.7,505.3z"/>
		<path class="st35" d="M574.3,505.3c0,0,5.7-12.9,17-13.4s-17,14.2-17,14.2"/>
		<path class="st35" d="M613.3,459.1c0,0-9.4-6.9-12-6.3s2.6-6.1,10.2,1.5C614.6,457.4,613.3,459.1,613.3,459.1z"/>
		<path class="st35" d="M615.4,459.1c0,0-4-15.8-8.3-17.4s6.8-4.1,9,6.6C617.7,455.6,615.4,459.1,615.4,459.1z"/>
		<path class="st35" d="M616.7,459.1c0,0,4.6-11.3,13.8-11.7s-13.8,12.4-13.8,12.4"/>
		<path class="st35" d="M972.3,511.5c0,0,14.8-8.2,18.8-7.4s-4.1-7.2-16,1.8C970.3,509.5,972.3,511.5,972.3,511.5z"/>
		<path class="st35" d="M969.1,511.5c0,0,6.2-18.6,12.9-20.5s-10.6-4.8-14.1,7.8C965.5,507.4,969.1,511.5,969.1,511.5z"/>
		<path class="st35" d="M967,511.5c0,0-7.2-13.2-21.6-13.7s21.6,14.5,21.6,14.5"/>
		
			<linearGradient id="SVGID_26_" gradientUnits="userSpaceOnUse" x1="3245.5581" y1="639.0417" x2="3282.3269" y2="668.9708" gradientTransform="matrix(-0.99 0.13 -0.13 -0.99 4407 721.12)">
			<stop  offset="0.18" style="stop-color:#108937"/>
			<stop  offset="0.32" style="stop-color:#109730"/>
			<stop  offset="0.72" style="stop-color:#11B81F"/>
			<stop  offset="0.94" style="stop-color:#11C418"/>
		</linearGradient>
		<path class="st38" d="M1097.1,509.8c0,0,11.4,0,17.1-3.9s-8.1-2-19.2-0.2c0,0,1-0.9,9.7-5.4s6.2-8-0.6-4.8
			c-4.7,2.4-9.3,5.2-13.6,8.3c0,0,12.4-10.1,12.5-12.1s-2.2-2-13.7,10.6c0,0,10.5-10.6,8.3-15.8s-10.2,14.6-10.2,14.6
			s7-21.3,2.1-22.2s-3.8,21.2-3.8,21.2s-4.8-12.3-12.2-12.1s9.6,13.2,11.2,13.4c0,0-0.7,0.9-3.1,0.4s-9.2-7-13.1-7.3
			s-9.6,4.4,12.9,14.7L1097.1,509.8z"/>
		<path class="st35" d="M1310.9,509.6c0,0,11.7-8,14.8-7.2s-3.2-7-12.6,1.7C1309.3,507.6,1310.9,509.6,1310.9,509.6z"/>
		<path class="st35" d="M1308.4,509.6c0,0,4.9-18.1,10.2-20s-8.4-4.7-11.1,7.6C1305.6,505.6,1308.4,509.6,1308.4,509.6z"/>
		<path class="st35" d="M1306.8,509.6c0,0-5.7-12.9-17-13.4s17,14.2,17,14.2"/>
		<path class="st35" d="M1449.8,564.1c0,0,11.7-8,14.8-7.2s-3.2-7-12.6,1.7C1448.3,562.1,1449.8,564.1,1449.8,564.1z"/>
		<path class="st35" d="M1447.3,564.1c0,0,4.9-18.2,10.2-20s-8.4-4.7-11.1,7.6C1444.5,560.1,1447.3,564.1,1447.3,564.1z"/>
		<path class="st35" d="M1445.7,564.1c0,0-5.7-12.9-17-13.4s17,14.2,17,14.2"/>
		<path class="st35" d="M1441.2,509.4c0,0,9.4-6.9,12-6.3s-2.6-6.1-10.2,1.5C1439.9,507.7,1441.2,509.4,1441.2,509.4z"/>
		<path class="st35" d="M1439.2,509.4c0,0,4-15.8,8.2-17.4s-6.8-4.1-9,6.6C1436.9,505.9,1439.2,509.4,1439.2,509.4z"/>
		<path class="st35" d="M1437.9,509.4c0,0-4.6-11.3-13.8-11.7s13.8,12.4,13.8,12.4"/>
		<path class="st9" d="M1155.4,296.1c0.7,2.4,1.7,4.7,3.1,6.8c1.5,2.2,2.6,3.8,4.9,5.1c2,1.1,4.3,1.9,6.6,2.1v-13.6l4.9,0.1v8.4
			c0,0,10.8,1.1,12.2-8.1h1.5c0,0,1.3,10.4-13.5,11.7l-1,38.4h-4.5l0.2-31.7c-3.3-1.3-6.4-3.1-9.1-5.4c-6.3-5.5-7-11.7-7.1-14h1
			L1155.4,296.1z"/>
		<path class="st30" d="M1138.2,280c0,0,45.9-12.3,73.6,0c23.3,11.4,11.1,16.6-16.5,16.6c-24.5-0.2-54.4-1.5-54.4-1.5
			S1107.8,291.4,1138.2,280z"/>
		
			<linearGradient id="SVGID_27_" gradientUnits="userSpaceOnUse" x1="1161.4595" y1="580.6802" x2="1188.0195" y2="643.4602" gradientTransform="matrix(1 0 0 -1 0 900)">
			<stop  offset="0" style="stop-color:#55B5AA"/>
			<stop  offset="0.39" style="stop-color:#66CFCB"/>
			<stop  offset="0.74" style="stop-color:#72E1E2"/>
			<stop  offset="0.96" style="stop-color:#76E8EB"/>
		</linearGradient>
		<path class="st39" d="M1137,280.6c0,0,45.9-12.2,73.6,0c26.7,12.9,7.7,16.5-16.5,16.5c-24.5-0.2-54.4-1.5-54.4-1.5
			S1106.6,291.9,1137,280.6z"/>
		
			<linearGradient id="SVGID_28_" gradientUnits="userSpaceOnUse" x1="2839.1472" y1="375.3227" x2="3136.6472" y2="674.6527" gradientTransform="matrix(-1 0 0 -1 4271.8301 900)">
			<stop  offset="3.000000e-02" style="stop-color:#2EB691"/>
			<stop  offset="0.77" style="stop-color:#42D984"/>
		</linearGradient>
		<path class="st40" d="M1534.8,364.8c0,0,5.7-69.3-58.5-96.3c-27.6-11.6-39.4,4.8-39.4,4.8s-19.3-21.7-43.4-19.2
			c-24.1,2.5-46.6,27.2-46.6,27.2s-50.6-14.4-66.7,5.6c0,0-8,7.6-3.2,18.2c0,0-69.1-19.8-76.4,29.7c0,0-41-5-48.2,29.4
			c0,0-58.2-17.8-81.8,19.3c0,0-54.3-1.4-68.6,18.6l17.4,0.1l504.1-4.5L1534.8,364.8z"/>
		<path class="st41" d="M1293.8,328.6c0.2,3.8,1.6,7.4,4,10.3c6.2,7.4,16.7,7.2,17.8,7.2l-0.3-16.5l6.4,0.3v9.1
			c2.8,0.5,5.6,0.1,8.2-0.9c3.4-1.4,6.1-4.2,7.3-7.7l2.7,0.1c-0.5,1.5-1.1,3-1.6,4.5c2.3,1.2,4.9,1.5,7.3,1c2.9-0.7,5.3-2.6,6.7-5.2
			h2c0,0-1.3,10.4-17,7c-2.9,3.6-9.5,7.5-15.7,5.6c0.4,11.3,2.4,55.7,2.4,55.7h-7.2l-1.3-48.6c-6.4-0.2-12.5-2.7-17.2-7
			c-4.2-3.9-6.7-9.3-7-15L1293.8,328.6z"/>
		
			<linearGradient id="SVGID_29_" gradientUnits="userSpaceOnUse" x1="1306.4923" y1="555.5092" x2="1332.6123" y2="627.3091" gradientTransform="matrix(1 0 0 -1 0 900)">
			<stop  offset="8.000000e-02" style="stop-color:#3CBBE1"/>
			<stop  offset="0.54" style="stop-color:#61D3C9"/>
			<stop  offset="0.79" style="stop-color:#70DDC0"/>
		</linearGradient>
		<path class="st42" d="M1273.7,304.1c0,0,55.4-18.9,88.8,0c28.4,18.5-0.8,26.3-19.9,25.6c-29.5-0.3-65.6-2.3-65.6-2.3
			S1236.9,321.7,1273.7,304.1z"/>
		
			<linearGradient id="SVGID_30_" gradientUnits="userSpaceOnUse" x1="2644.2776" y1="407.6601" x2="2784.7476" y2="654.67" gradientTransform="matrix(-1 0 0 -1 4271.8301 900)">
			<stop  offset="0" style="stop-color:#21607B"/>
			<stop  offset="0.23" style="stop-color:#238C77"/>
			<stop  offset="0.45" style="stop-color:#25AF74"/>
			<stop  offset="0.62" style="stop-color:#27C472"/>
			<stop  offset="0.74" style="stop-color:#27CC71"/>
		</linearGradient>
		<path class="st43" d="M1801,401.7c0,0,47.4-35.6-8.7-69.8c-42.2-25.8-92.6-19.8-92.6-19.8s-32.6-16-68.5-17.4
			s-70.4,16.7-70.4,16.7s-59-6.5-86.2,6.6c-38.7,18.6-29.7,30.8-29.7,30.8s-30.1-5.5-63.9,35.8c0,0-63.4-10.6-71.9,17.3l96.9,8.3
			l395,0.1L1801,401.7z"/>
		<path class="st44" d="M1674.2,435.3c0,0-90.2-8.1-189.9-5.8c0,0-80.2-4.2-139.4,1.1c0,0-103.4-0.5-123.3,2.6
			c0,0-96.2-0.6-123.6,2.9l-26.9,1.4l614.4,1.4L1674.2,435.3z"/>
		<path class="st45" d="M279,643c-27.5,26.9,49.9,37.1,74.3,42.3s349.8-10.4,432.5-6s274.5,12.9,334.9,25s69.2,25,71.6,32.7
			s-44,32.9-92.7,41.5s89.7,22.4,159.1,27.6s291.2,3.6,359.3-6.1c22.7-3.2,36.3-3.1,44.4-1.6l4.3-107c0,0-197.1,2.6-268.6,0
			s-290.3-8.6-547.8-64.7c-221.6-48.3-456.7-57.6-517.9-59.3C361.7,591,306.4,616,279,643z"/>
		<path class="st46" d="M1158.7,907.9c-76.2-0.8-393.5,6.8-418.8-39.4c-2.3-3.9-2.8-8.5-1.4-12.8c-4.2,7.2-5.3,15.3-2.3,24.6
			c17.6,53.3,343.5,35.6,419.7,36.4s524.9-13.9,524.9-13.9v-8.7C1643.4,895.3,1231.5,908.7,1158.7,907.9z"/>
		<path class="st47" d="M1680.9,875.1c-23,0.3-191.7,3-479.4,8.2c-310.3,5.7-370.1-25.8-403.7-29.9c-24.7-3,5-28.8,40.2-43.5
			c12.7-5.3,26.2-9.2,38-10l1.9-0.1c42.5-3,34.5-8.4,32.9-8.4s-46.9-1.7-14.1-5.8s15.3-12.5,7-10.3s-46.9,0.6-16-5.8l1.2-0.3
			c22-4.8-25.7-4-45.4-3.6c-4.8,0.1-8,0.2-8,0.2c-293-10.3-639.5,46.2-648.9,47.5s-54,10.2-38.3,0s11.7-10.5,2-5.3s-33.6,3.5-25-2.9
			s-4.3-10.9-6.3-5.3s-66.9,20.2-40.3,9.9s23.9-22.7,23.9-22.7c-57.8-1.2-115.3-7.4-172-18.6c-71.9-14.3-115.1-31.5-115.1-31.5
			c-20.6-6.5-26.7-17.3-26.5-28.1c-48.9,69.6,0,147.5,0,147.5s102.9-3.7,180.9-7.1c43.3-1.9,78.9-3.7,85-4.8c15-2.7-8,5.8-9.8,9.6
			c-0.3,0.5-0.1,0.9,0.5,1.2c1.6,0.8,4.8,0.7,8.7,0c8.8-1.4,21.4-5.1,28.3-5.9c10-1.1-11.1,4.3-2.3,6.4s33.4-5.9,33.4-5.9
			s174.2-21.4,254.5-30s290.8-33.6,326-32.7s145.5-9.5,183,0c8.1,2,5.1,4.8-4.2,8.5c-29.9,11.5-125,31.1-134.5,60.3
			c-1.4,4.3-0.8,8.9,1.5,12.8c25.2,46.2,342.5,38.6,418.8,39.4c72.8,0.7,484.7-12.6,522.2-13.8l2.7-0.1v-19L1680.9,875.1z"/>
		<path class="st48" d="M1672.5,810.5c0.8-1.3,1.2-2.8,1.1-4.4c-0.3-2.5-2.2-5.5-9.2-7.3c-0.6-0.2-1.3-0.3-2-0.4
			c-8.1-1.6-21.7-1.7-44.4,1.6c-68.1,9.7-289.9,11.3-359.3,6.1s-207.8-19-159.1-27.6s95-33.8,92.7-41.5s-11.1-20.6-71.6-32.7
			s-252.2-20.7-334.9-25s-408,11.2-432.5,6S251.5,669.9,279,643s82.8-52,53.4-75.6l0,0c0,0-4.5,0-12.9,0.1l-3.8,0
			c-18.3,0.3-50.4,1.3-91.3,4.4C113.9,580.4-60.2,604.7-193.8,674c0,0-16.8,17.4-17.2,34.8c-0.2,10.8,6,21.5,26.5,28.1
			c0,0,43.2,17.2,115.1,31.5c56.7,11.2,114.2,17.5,172,18.7c0,0,2.6,12.4-23.9,22.7s38.3-4.2,40.3-9.9s14.9-1.1,6.3,5.3
			s15.3,8.1,25,2.9s13.7-4.8-2,5.3s28.9,1.3,38.3,0s355.9-57.8,648.9-47.5c0,0,3.2-0.1,8-0.2c19.7-0.5,67.4-1.3,45.4,3.6l-1.2,0.3
			c-30.9,6.3,7.8,8,16,5.8s25.8,6.1-7,10.3s12.5,5.8,14.1,5.8s9.5,5.4-32.9,8.4l-1.9,0.1c-11.8,0.8-25.3,4.7-38,10
			c-35.2,14.7-64.9,40.5-40.2,43.5c33.6,4.1,93.5,35.6,403.7,29.9c287.7-5.3,456.4-7.9,479.4-8.2h2.7l-2.7-15.9L1672.5,810.5z"/>
	</g>
</g>
</svg>
