<?xml version="1.0" encoding="utf-8"?>
<!-- Generator: Adobe Illustrator 25.2.3, SVG Export Plug-In . SVG Version: 6.00 Build 0)  -->
<svg version="1.1" id="Layer_1" xmlns="http://www.w3.org/2000/svg" xmlns:xlink="http://www.w3.org/1999/xlink" x="0px" y="0px"
	 viewBox="0 0 1600 900" style="enable-background:new 0 0 1600 900;" xml:space="preserve">
<style type="text/css">
	.st0{clip-path:url(#SVGID_2_);}
	.st1{fill:url(#SVGID_3_);}
	.st2{fill:#F15A24;}
	.st3{fill:#FBB03B;}
	.st4{fill:#FCEE21;}
	.st5{fill:#8CC63F;}
	.st6{fill:#29ABE2;}
	.st7{fill:#93278F;}
	.st8{opacity:0.65;}
	.st9{fill:#E6F6FF;}
	.st10{fill:#FFFFFF;}
	.st11{fill:#ADE0FF;}
	.st12{opacity:0.9;}
	.st13{fill:#D9F1FF;}
	.st14{fill:url(#SVGID_4_);}
	.st15{fill:url(#SVGID_5_);}
	.st16{fill:url(#SVGID_6_);stroke:url(#SVGID_7_);stroke-width:0.26;stroke-miterlimit:10;}
	.st17{fill:url(#SVGID_8_);}
	.st18{fill:url(#SVGID_9_);}
	.st19{fill:url(#SVGID_10_);}
	.st20{fill:url(#SVGID_11_);}
	.st21{fill:url(#SVGID_12_);}
	.st22{fill:url(#SVGID_13_);}
	.st23{fill:url(#SVGID_14_);}
	.st24{fill:url(#SVGID_15_);}
	.st25{fill:url(#SVGID_16_);}
	.st26{fill:url(#SVGID_17_);}
	.st27{fill:url(#SVGID_18_);}
	.st28{fill:url(#SVGID_19_);}
	.st29{fill:url(#SVGID_20_);}
	.st30{fill:#6B574A;}
	.st31{fill:#604E43;}
	.st32{fill:#684528;}
	.st33{fill:#5FDE85;}
	.st34{fill:url(#SVGID_21_);stroke:url(#SVGID_22_);stroke-width:0.25;stroke-miterlimit:10;}
	.st35{fill:url(#SVGID_23_);stroke:url(#SVGID_24_);stroke-width:0.25;stroke-miterlimit:10;}
	.st36{fill:#32965B;}
	.st37{fill:url(#SVGID_25_);stroke:url(#SVGID_26_);stroke-width:0.25;stroke-miterlimit:10;}
	.st38{fill:url(#SVGID_27_);}
	.st39{fill:url(#SVGID_28_);}
</style>
<g>
	<defs>
		<rect id="SVGID_1_" width="1600" height="900"/>
	</defs>
	<clipPath id="SVGID_2_">
		<use xlink:href="#SVGID_1_"  style="overflow:visible;"/>
	</clipPath>
	<g class="st0">
		
			<linearGradient id="SVGID_3_" gradientUnits="userSpaceOnUse" x1="759.3809" y1="-300.78" x2="764.9009" y2="1165.74" gradientTransform="matrix(1 0 0 -1 0 900)">
			<stop  offset="0.25" style="stop-color:#E6FFFF"/>
			<stop  offset="0.64" style="stop-color:#A0DCFF"/>
			<stop  offset="0.93" style="stop-color:#68C0FF"/>
		</linearGradient>
		<rect x="-121.5" y="-49.6" class="st1" width="1767.2" height="1042.8"/>
		<path class="st2" d="M373.5,519.7c1-123.5,101.4-223.4,225.2-223.4S823,396.2,824,519.7h96.5C919.8,342.6,776,199.2,598.7,199.2
			S277.6,342.6,277,519.7H373.5z"/>
		<path class="st3" d="M373.5,519.7c1-123.5,101.4-223.4,225.2-223.4S823,396.2,824,519.7h80.5c-0.3-168.5-137.1-305.1-305.7-305.1
			S293.4,351.2,293.1,519.7H373.5z"/>
		<path class="st4" d="M373.5,519.7c1-123.5,101.4-223.4,225.2-223.4S823,396.2,824,519.7h64.4c-0.7-159.4-130.1-288.4-289.6-288.4
			s-288.9,129-289.6,288.4H373.5z"/>
		<path class="st5" d="M373.5,519.7c1-123.5,101.4-223.4,225.2-223.4S823,396.2,824,519.7h48.3c-1-150.2-123-271.6-273.5-271.6
			S326.3,369.5,325.3,519.7H373.5z"/>
		<path class="st6" d="M373.5,519.7c1-123.5,101.4-223.4,225.2-223.4S823,396.2,824,519.7h32.2c-0.7-141.6-115.7-256.2-257.4-256.2
			S342,378.1,341.3,519.7H373.5z"/>
		<path class="st7" d="M373.5,519.7c1-123.5,101.4-223.4,225.2-223.4S823,396.2,824,519.7h16.1C839.7,386.7,731.8,279,598.7,279
			s-241,107.7-241.3,240.7L373.5,519.7z"/>
		<g class="st8">
			<path class="st9" d="M1310.1,216.2c-2.3,4.2-5.4,8-9,11.1c-11.6,10.4-28.9,15.4-46.3,14.1l-9.4-0.7l-1.7,1.8
				c-15.2,15.7-40.6,23.3-64.8,18.6c-7.4-1.4-15.2-3.2-21.8-6.4c-6-2.9-12.2-8-12.6-13.8c-1.6,2.3-4.7,4.7-6.2,6
				c-13.4,10.6-28.2,10.3-45.4,9.3c-18.8-1.1-39.6-9.2-40.1-26.1c0-1-0.1-1.7-0.3-3.4c-8.4,4.2-14.4,8.8-24.8,10.4
				c-8.8,1.4-17.8,0.7-26.3-2c-6.5-2.1-12.2-5.9-16.7-11c-2.2-2.5-3.9-5.4-5.1-8.6c-1.1-3.1-1.5-6.5-1-9.8
				c1.8-12.2,13.9-24.8,29.2-23c-5.9-11.4,1.1-23.5,12.4-32s27.9-14,42-8.7c1.6-19.3,24-33.2,48.2-35.1s49,11.6,55.3,30.3
				c33.4-12.4,78.4,5.8,85.6,34.4c22.9-10.3,55.1,3.1,61.5,23.1c0.4,1.3,0.8,2.7,0.9,4.1C1314.3,204.9,1313.1,211,1310.1,216.2z"/>
			<path class="st10" d="M1312.6,194.8c-7.3-12.7-23.9-19.8-37.7-20.6c-20.2-1.2-28,6.2-28,6.2c-1.6-16-10.9-30.8-40.4-38.2
				s-45,4.9-45,4.9c-1.5-11.7-10-21.6-22-28.1c-13.7-7.5-33-7.7-47.8-2.3c-16.1,5.9-21.3,17.8-20.3,31.7c-6.2-2.5-15.2-2.1-16.7-2.3
				c-13.2-1.1-26.6,4.9-34.8,12.8c-3.9,3.7-6.8,8.1-7.8,12.9c-0.4,1.8,0.3,11,3.4,14.8c-6.4,0-12.7,1.2-18.7,3.7
				c-15.5,6.2-17.4,24.8-17.3,25.3c-1.1-3.1-1.5-6.5-1-9.8c1.8-12.2,13.9-24.8,29.2-23c-5.9-11.4,1.1-23.5,12.4-32
				c11.3-8.5,27.9-14,42-8.7c1.6-19.3,24-33.2,48.2-35.1s49,11.6,55.3,30.3c33.4-12.4,78.4,5.8,85.6,34.4
				C1274.1,161.4,1306.3,174.8,1312.6,194.8z"/>
			<path class="st10" d="M1117.9,154.1c0,0,40.1-29.9,80.8,0.6C1198.7,154.7,1163.4,139.8,1117.9,154.1z"/>
			<path class="st10" d="M1057.3,186c0,0,47.1-38.3,94.8,0.7C1152.1,186.8,1110.7,167.8,1057.3,186z"/>
			<path class="st10" d="M1215.9,186.1c0,0,32.3-24.1,65.1,0.5C1281,186.6,1252.6,174.7,1215.9,186.1z"/>
			<path class="st10" d="M1018.5,153.2c29.5-16,65.1-1.1,65.1-1.1C1050.8,127.5,1018.5,153.2,1018.5,153.2z"/>
			<path class="st11" d="M1310.1,216.2c-2.3,4.2-5.4,8-9,11.1c-11.6,10.4-28.9,15.4-46.3,14.1l-9.4-0.7l-1.7,1.8
				c-15.2,15.7-40.6,23.3-64.8,18.6c-7.4-1.4-15.2-3.2-21.8-6.4c-6-2.9-12.2-8-12.6-13.8c-1.6,2.3-4.7,4.7-6.2,6
				c-13.4,10.6-28.2,10.3-45.4,9.3c-18.8-1.1-39.6-9.2-40.1-26.1c0-1-0.1-1.7-0.3-3.4c-8.4,4.2-14.4,8.8-24.8,10.4
				c-8.8,1.4-17.8,0.7-26.3-2c-6.5-2.1-12.2-5.9-16.7-11c15.2,2.4,52.2,9.6,71.3-5.5c-1.3,1,9.6,10.1,10.4,10.7
				c11.3,8.3,26.8,11,41.8,10.4c7.7-0.4,15.3-1.5,22.8-3.3c5.4-1.3,10.5-3.5,15.2-6.6c7.8,11.1,33,18.4,63.7,11.1
				c0,0,21.8-4.9,29.5-18.5C1239.2,222.2,1280.9,231.2,1310.1,216.2z"/>
			<path class="st11" d="M1214.3,212.4c0,0,32,20.5,68.2,0C1282.5,212.4,1249.5,250.9,1214.3,212.4z"/>
			<path class="st11" d="M1020.8,212.6c0,0,27.7,12.6,59.1,0C1079.9,212.6,1051.3,236.3,1020.8,212.6z"/>
			<path class="st11" d="M1101.7,217.3c0,0,43.4,25.3,92.5,0C1194.1,217.3,1149.3,264.8,1101.7,217.3z"/>
		</g>
		<g class="st12">
			<path class="st9" d="M434,482c-1.6,2.9-3.7,5.5-6.1,7.6c-7.9,7.1-19.8,10.5-31.7,9.6l-6.5-0.5l-1.2,1.2
				c-10.5,10.7-27.9,16-44.5,12.8c-5.1-1-10.4-2.2-14.9-4.4c-4.1-2-8.4-5.5-8.6-9.5c-1.2,1.5-2.7,2.9-4.3,4.1
				c-9.2,7.3-19.3,7-31.1,6.4c-12.9-0.8-27.1-6.3-27.5-17.9c0-0.7-0.1-1.2-0.2-2.3c-5.8,2.9-9.9,6.1-17,7.1c-6,0.9-12.2,0.5-18-1.4
				c-4.4-1.5-8.4-4.1-11.4-7.5c-1.5-1.7-2.7-3.7-3.5-5.9c-0.8-2.1-1-4.4-0.7-6.7c1.2-8.4,9.5-17,20-15.8c-4.1-7.8,0.8-16.1,8.5-21.9
				s19.1-9.6,28.8-6c1.1-13.2,16.4-22.7,33-24s33.5,8,37.9,20.7c22.9-8.5,53.8,4,58.6,23.6c15.7-7.1,37.8,2.1,42.1,15.8
				c0.3,0.9,0.5,1.8,0.6,2.8C436.9,474.2,436,478.4,434,482z"/>
			<path class="st10" d="M435.7,467.3c-5-8.7-16.4-13.6-25.8-14.1c-13.9-0.9-19.2,4.2-19.2,4.2c-1.1-11-7.5-21.1-27.7-26.2
				s-30.9,3.4-30.9,3.4c-1-8-6.9-14.8-15.1-19.3c-9.4-5.1-22.6-5.3-32.8-1.6c-11,4-14.6,12.2-13.9,21.7c-4.3-1.7-10.4-1.5-11.4-1.5
				c-9-0.8-18.2,3.4-23.9,8.8c-2.6,2.3-4.5,5.4-5.4,8.9c-0.3,1.3,0.2,7.6,2.3,10.1c-4.4,0-8.7,0.8-12.8,2.5
				c-10.6,4.2-11.9,17-11.9,17.4c-0.8-2.1-1-4.4-0.7-6.7c1.2-8.4,9.5-17,20-15.8c-4.1-7.8,0.8-16.1,8.5-21.9s19.1-9.6,28.7-6
				c1.1-13.2,16.4-22.7,33-24s33.5,8,37.9,20.7c22.9-8.5,53.8,4,58.6,23.6C409.3,444.4,431.4,453.6,435.7,467.3z"/>
			<path class="st10" d="M302.3,439.4c0,0,27.5-20.5,55.4,0.4C357.7,439.8,333.5,429.6,302.3,439.4z"/>
			<path class="st10" d="M260.7,461.3c0,0,32.2-26.3,65,0.5C325.7,461.8,297.4,448.8,260.7,461.3z"/>
			<path class="st10" d="M369.4,461.4c0,0,22.1-16.5,44.6,0.3C414.1,461.7,394.6,453.5,369.4,461.4z"/>
			<path class="st10" d="M234.2,438.8c20.2-11,44.6-0.7,44.6-0.7C256.3,421.2,234.2,438.8,234.2,438.8z"/>
			<path class="st11" d="M434,482c-1.6,2.9-3.7,5.5-6.1,7.6c-7.9,7.1-19.8,10.5-31.7,9.6l-6.5-0.5l-1.2,1.2
				c-10.5,10.7-27.9,16-44.5,12.8c-5.1-1-10.4-2.2-14.9-4.4c-4.1-2-8.4-5.5-8.6-9.5c-1.2,1.5-2.7,2.9-4.3,4.1
				c-9.2,7.3-19.3,7-31.1,6.4c-12.9-0.8-27.1-6.3-27.5-17.9c0-0.7-0.1-1.2-0.2-2.3c-5.8,2.9-9.9,6.1-17,7.1c-6,0.9-12.2,0.5-18-1.4
				c-4.4-1.5-8.4-4.1-11.4-7.5c10.4,1.6,35.7,6.6,48.8-3.8c-0.9,0.7,6.6,6.9,7.1,7.3c7.7,5.7,18.4,7.5,28.6,7.1
				c5.3-0.2,10.5-1,15.6-2.3c3.7-0.9,7.2-2.4,10.4-4.5c5.3,7.6,22.6,12.6,43.7,7.6c0,0,14.9-3.4,20.2-12.7
				C385.4,486.1,414,492.3,434,482z"/>
			<path class="st11" d="M368.4,479.3c0,0,22,14,46.7,0C415.1,479.3,392.5,505.8,368.4,479.3z"/>
			<path class="st11" d="M235.8,479.5c13,5.1,27.5,5.1,40.5,0C276.3,479.5,256.6,495.8,235.8,479.5z"/>
			<path class="st11" d="M291.2,482.7c0,0,29.8,17.3,63.4,0C354.5,482.7,323.8,515.3,291.2,482.7z"/>
		</g>
		<g class="st12">
			<path class="st9" d="M953.9,482.1c-6.2,10.8-19.9,14.5-30.7,8.3c0,0-0.1,0-0.1-0.1c-10.2,8.5-19.9,8.4-29.9-0.3
				c-12.5,11.2-26,0-24.8-11.2l0,0c0.3-2.4,1.2-4.6,2.7-6.5c1.6-2.1,3.7-3.8,6.1-5.1c-15.9-32.2,37.2-57.4,52.1-24.8
				c15.3-21.8,51.3-4.2,45.6,20.4l0,0c-0.1,0.5-0.3,1.1-0.4,1.6s-0.3,0.9-0.5,1.4c1.4,0.9,2.5,2.2,3.2,3.7l0,0
				C982.2,480.2,960,496.2,953.9,482.1z"/>
			<path class="st10" d="M974.8,462.8c-0.6-1.9-2.4-5.8-6.9-13.6c-10.2-17.8-38-3.8-40.3-0.1c-14.3-14-42.4-8.5-44.6,10.6
				c17.4-0.1,25.8,6.9,28.8,13.5c-26.2-12.3-40.8-0.9-40.8-0.9c1.6-2.1,3.7-3.8,6.1-5.1c-15.9-32.2,37.2-57.4,52.1-24.8
				C944.5,420.6,980.5,438.3,974.8,462.8z"/>
			<path class="st9" d="M975,464.5c-0.2,0.2-0.5-0.1-0.5-0.1L975,464.5z"/>
			<path class="st11" d="M953.9,482.1c-6.2,10.8-19.9,14.5-30.7,8.3c0,0-0.1,0-0.1-0.1c-10.2,8.5-19.9,8.4-29.9-0.3
				c-12.5,11.2-26,0-24.8-11.2c1.4,10,19.4,5.4,23.7,2.1c6.4,10.2,19.5,1.4,25.6-1.4c-4.6,5.3,8.5,9.5,17.8,4.7s4-18.8-1.5-25.3
				c10.3,6.8,17.8,8.1,29.6,7.5c-10.3,0.6-14.4,12.4,1.1,12.2c15.1-0.3,12.6-8.7,12.5-9.1C982.2,480.2,960,496.2,953.9,482.1z"/>
		</g>
		<g class="st12">
			<path class="st9" d="M863.8,533.2c-9.5,12.9-27.7,15.6-40.6,6.1c0,0-0.1,0-0.1-0.1c-14.3,9.4-26.7,7.8-38.3-4.8
				c-17.7,12.5-33.3-3.8-30-17.9l0,0c0.7-3,2.2-5.8,4.3-8c2.4-2.5,5.3-4.4,8.5-5.6c-15.6-43.6,56-68,70.3-24
				c22.8-25.7,66.3,2.2,55.4,32.7l0,0c-0.2,0.7-0.5,1.3-0.8,2s-0.5,1.1-0.8,1.7c1.6,1.4,2.9,3.2,3.6,5.2l0,0
				C900.3,535,869.6,552.1,863.8,533.2z"/>
			<path class="st10" d="M893.4,511.6c-0.5-2.5-2.2-7.8-6.8-18.5c-10.5-24.3-48.1-10.4-51.6-6c-16.3-20-53-17.1-58.6,7.1
				c22.2,2.4,32,12.6,34.9,21.4c-31.7-19.5-52.1-7.2-52.1-7.2c2.4-2.5,5.3-4.4,8.5-5.6c-15.6-43.6,56-68,70.3-24
				C860.8,453.2,904.3,481.1,893.4,511.6z"/>
			<path class="st9" d="M893.3,513.8c-0.3,0.2-0.7-0.2-0.7-0.2L893.3,513.8z"/>
			<path class="st11" d="M863.8,533.2c-9.5,12.9-27.7,15.6-40.6,6.1c0,0-0.1,0-0.1-0.1c-14.3,9.4-26.7,7.8-38.3-4.8
				c-17.7,12.5-33.3-3.8-30-17.9c0.4,13,24,9.8,29.9,6.2c6.7,14,24.8,4.6,33,1.9c-6.7,6.1,9.5,13.5,22.1,8.7s7.8-23.4,1.8-32.5
				c12.2,10.3,21.6,13,36.8,13.9c-13.3-0.7-20.2,13.8-0.4,15.7c19.3,1.9,17.4-9.2,17.3-9.8C900.3,535,869.6,552.1,863.8,533.2z"/>
		</g>
		<g class="st8">
			<path class="st9" d="M306.7,208.8c-15.8,10.5-26.8,9.6-40.5-3.5c-14.6,14.5-24.6,17.3-44.7,12.5c-11.9,13-26.3,11.3-34.8-4.1
				c-12.9,15.3-18.4,16.9-37.6,11.8C129,240,119,239.8,99.7,224.2c-14.3,0.1-13.3-13.4-7.2-20.1c4.1-4.5,10.5-5.9,16.3,1.6
				c-2-16,35.5-23,39.4-7.4c-3.4-16.3,3.9-25.8,20.5-26.8c-2.9-4.3-5.1-8.9-6.6-13.8c-11.9-39,32.7-73.6,69.8-44.7
				c30.5-17.1,64.9,1.5,70,32.5c0.9,5.5,0.9,11,0,16.5c17.2-9.8,29.4-4.3,35.6,5.9l0,0C348.4,186.1,340.3,219.4,306.7,208.8z"/>
			<path class="st10" d="M301.8,145.5c-3.9-5.9-7.1-20.4-26.9-26.4c-34.1-10.4-66.1,21.1-75.8,38.6c1.9-16,18.6-35.2,25.8-39.3
				c-62.3-22.7-63,39.3-63,39.3l0,0c-11.9-39,32.7-73.6,69.8-44.7C262.2,95.9,296.7,114.5,301.8,145.5z"/>
			<path class="st11" d="M306.7,208.8c-15.8,10.5-26.8,9.6-40.5-3.5c-14.6,14.5-24.6,17.3-44.7,12.5c-11.9,13-26.3,11.3-34.8-4.1
				c-12.9,15.3-18.4,16.9-37.6,11.8C129,240,119,239.8,99.7,224.2c-14.3,0.1-13.3-13.4-7.2-20.1c0,0-6,18.7,11.8,15.7
				c17.2-2.9,24.2-11.3,24.6-11.8c-2.9,6-12.2,14.2-17.2,17.8c5.7,3.3,18.2,7.6,36.5-6.7c10.7,0.6,26.1-5.2,37.3-16.4
				c-11.4,3-26-7.5-27.5-12c17,6,35.3,8.3,70.8-7.9c-11.1,8.6-25.6,20.6-38,23.2c3.6,10.6,18.4,16.5,28.6,5.1
				c11.1,3.8,28.2,4.8,44.8-12.2c12.8,6.8,31.3,11.2,39.6-0.6c-8.7,1-30.6-1.4-39.6-16.4c15.8,8.3,39.3,1.8,56.1-15
				c-0.4,8.4-4.9,16.7-9.8,20c6.7,2.8,29.7-3.5,27-19.1C348.4,186.1,340.3,219.4,306.7,208.8z"/>
			<path class="st13" d="M211.3,159.4c-1-2.5,2.6-9,5-10.9c2.8-2.1,8.3-1.8,10,1.7c-1-4.8,1.1-9.7,5.3-12.3
				c2.5-1.7,9.4-5.4,10.8-0.2c-0.5-4.3,10.3-9.4,13.8-10.4c3-0.8,11.4,0.3,8.7,5.1c1.7-0.2,3.1-1.3,4.8-1.7c2.8-0.7,5.7-0.7,8.5-0.1
				c2.9,0.6,6.8,1.7,6.7,5.2c0,1.1-1.6,2.7-1.1,3.8c0.3,0.7,1.2,0.1,1.5,0.6c2.1,2.6,3.3,4.8,2.5,8.4c-1.2,5.8-8.4,12.4-14.8,10.4
				c-2.8-0.9-4.2-5.8-6.2-8.3c-2,7.4-12.5,6.3-18,5c-3.2-0.8-5.7-3.4-9-2.6c-3,0.7-6.1,4.1-7,7c-3.5-0.6-6.9-2.6-10.6-2
				c-4.3,0.7-4.6,3.7-7.4,6.1c-1.9,1.6-0.9,0.2-2.8-0.8s-4.5-0.2-6.4-0.5c0.3-0.1,0.7-0.1,1.1-0.2L211.3,159.4z"/>
			<path class="st13" d="M169.4,146.9c-0.1-4.5,1.4-3.9,4.6-5.6c2.7-1.5,3.8-5.6,6-8.1c1.3-1.5,7.5-3.9,6.4,0.1
				c-0.4-5.9,10.4-12,15.5-9.9c2.9,1.2,3.3,4.5,1.7,6.8c-2.6-1.3-8.2-0.7-10,1.8c-2,2.7-0.1,3.7-3.1,4.9s-4.5,0.7-6.4,3.6
				c-2.1,3.3-0.1,4.1-0.4,7.2c-3-0.4-5.4,0-6.5,3.3c-0.8,2.3,0.2,2.9,0.6,5.2c0.3,1.9-0.1,3.4,1.1,5.2c1,1.5,2.6,2.4,3.3,4.1
				c-3.3,1.3-8.5-3.7-9.8-6.2C170.5,155.4,169.5,151.2,169.4,146.9z"/>
		</g>
		
			<linearGradient id="SVGID_4_" gradientUnits="userSpaceOnUse" x1="-1057.333" y1="-500.7009" x2="736.0769" y2="486.4091" gradientTransform="matrix(1 0 0 -1 0 900)">
			<stop  offset="0" style="stop-color:#76CCD2"/>
			<stop  offset="0" style="stop-color:#78BBCE"/>
			<stop  offset="0" style="stop-color:#7BA5C8"/>
			<stop  offset="0.26" style="stop-color:#78A8C6"/>
			<stop  offset="0.33" style="stop-color:#75ABC4"/>
			<stop  offset="0.34" style="stop-color:#75ABC4"/>
			<stop  offset="0.56" style="stop-color:#87C7CA"/>
			<stop  offset="0.69" style="stop-color:#8DD1CC"/>
		</linearGradient>
		<path class="st14" d="M-763.9,504.4c66.9-34.8,136.9-63.4,209.1-85.5c157.3-47.7,287.2-50.5,389.9-46c86.3,3.7,270,17.6,756.5,161
			c314,92.5,579.8,187.6,579.8,187.7c0,0,0,0.1-0.1,0.1l0.1,200.3l-2033.3-44V545.1L-763.9,504.4z"/>
		
			<linearGradient id="SVGID_5_" gradientUnits="userSpaceOnUse" x1="-104.9771" y1="469.2526" x2="2305.083" y2="-76.1474" gradientTransform="matrix(1 0 0 -1 0 900)">
			<stop  offset="0" style="stop-color:#76CCD2"/>
			<stop  offset="0" style="stop-color:#78BBCE"/>
			<stop  offset="0" style="stop-color:#7BA5C8"/>
			<stop  offset="0.17" style="stop-color:#7EA8C7"/>
			<stop  offset="0.32" style="stop-color:#89B0C5"/>
			<stop  offset="0.33" style="stop-color:#8AB1C5"/>
			<stop  offset="0.48" style="stop-color:#88B6C6"/>
			<stop  offset="0.65" style="stop-color:#82C4CA"/>
			<stop  offset="0.73" style="stop-color:#7ECDCC"/>
			<stop  offset="0.77" style="stop-color:#80CCC3"/>
			<stop  offset="0.82" style="stop-color:#86C8AB"/>
			<stop  offset="0.9" style="stop-color:#90C283"/>
			<stop  offset="0.98" style="stop-color:#9DBA4C"/>
			<stop  offset="1" style="stop-color:#A0B841"/>
		</linearGradient>
		<path class="st15" d="M320.3,665.7c106.1-45,305.1-116.9,575-179.5c396.9-92.1,798-30.1,799-30.1l0,0c0,0,0,13,0.1,25.7
			c0,18.7,0,32.7-0.1,39.1c-0.2,31.3,0,88.9,0,120.2c0.1,38.6,0.1,98.5,0,191.1H-18.9C91.1,770.5,204.3,714.9,320.3,665.7z"/>
		
			<linearGradient id="SVGID_6_" gradientUnits="userSpaceOnUse" x1="550.8132" y1="1847.0607" x2="648.0933" y2="-1224.1693" gradientTransform="matrix(1.06 0 0 -1.44 -213.57 1427.2201)">
			<stop  offset="0" style="stop-color:#76CCD2"/>
			<stop  offset="0" style="stop-color:#6FC4C0"/>
			<stop  offset="0" style="stop-color:#5DB193"/>
			<stop  offset="0" style="stop-color:#40914A"/>
			<stop  offset="0" style="stop-color:#3D8E42"/>
			<stop  offset="3.000000e-02" style="stop-color:#4C9945"/>
			<stop  offset="9.000000e-02" style="stop-color:#64AC49"/>
			<stop  offset="0.15" style="stop-color:#75B94C"/>
			<stop  offset="0.22" style="stop-color:#80C04D"/>
			<stop  offset="0.31" style="stop-color:#83C34E"/>
			<stop  offset="0.37" style="stop-color:#7FC056"/>
			<stop  offset="0.43" style="stop-color:#7BBC61"/>
			<stop  offset="0.53" style="stop-color:#068241"/>
			<stop  offset="1" style="stop-color:#047D3F"/>
		</linearGradient>
		
			<linearGradient id="SVGID_7_" gradientUnits="userSpaceOnUse" x1="-732.7716" y1="136.9577" x2="1933.1583" y2="136.9577" gradientTransform="matrix(1.06 0 0 -1 -213.66 900.14)">
			<stop  offset="0" style="stop-color:#76CCD2"/>
			<stop  offset="0" style="stop-color:#6FC4C0"/>
			<stop  offset="0" style="stop-color:#5DB193"/>
			<stop  offset="0" style="stop-color:#40914A"/>
			<stop  offset="0" style="stop-color:#3D8E42"/>
			<stop  offset="1.000000e-02" style="stop-color:#3C9443"/>
			<stop  offset="3.000000e-02" style="stop-color:#39A547"/>
			<stop  offset="6.000000e-02" style="stop-color:#38B049"/>
			<stop  offset="0.1" style="stop-color:#37B34A"/>
			<stop  offset="0.1" style="stop-color:#40B451"/>
			<stop  offset="0.12" style="stop-color:#51B55F"/>
			<stop  offset="0.14" style="stop-color:#5CB568"/>
			<stop  offset="0.17" style="stop-color:#63B66D"/>
			<stop  offset="0.26" style="stop-color:#65B66F"/>
			<stop  offset="0.29" style="stop-color:#6FBA63"/>
			<stop  offset="0.37" style="stop-color:#7EC04F"/>
			<stop  offset="0.45" style="stop-color:#88C443"/>
			<stop  offset="0.53" style="stop-color:#8BC53F"/>
			<stop  offset="0.62" style="stop-color:#91C73D"/>
			<stop  offset="0.76" style="stop-color:#A3CD36"/>
			<stop  offset="0.91" style="stop-color:#C1D72B"/>
			<stop  offset="1" style="stop-color:#D6DE23"/>
		</linearGradient>
		<path class="st16" d="M-990.3,708.6c116.7-26.4,269-57.4,448-84c85.8-12.8,376-54.2,772-64.6c665-17.6,1165.5,64.2,1341.1,95.6
			c106.5,19,194.8,37.6,256.4,51.2l0.2,260.2l-2817.5,1.8L-990.3,708.6z"/>
		
			<linearGradient id="SVGID_8_" gradientUnits="userSpaceOnUse" x1="515.9661" y1="498.3399" x2="597.4962" y2="-2075.8203" gradientTransform="matrix(1 0 0 -1 0 900)">
			<stop  offset="0" style="stop-color:#76CCD2"/>
			<stop  offset="0" style="stop-color:#6AC4C0"/>
			<stop  offset="0" style="stop-color:#4CAE93"/>
			<stop  offset="0" style="stop-color:#1C8A4A"/>
			<stop  offset="0" style="stop-color:#178743"/>
			<stop  offset="0" style="stop-color:#1E8B41"/>
			<stop  offset="3.000000e-02" style="stop-color:#399C3A"/>
			<stop  offset="5.000000e-02" style="stop-color:#4DA834"/>
			<stop  offset="7.000000e-02" style="stop-color:#59B031"/>
			<stop  offset="9.000000e-02" style="stop-color:#5DB230"/>
			<stop  offset="0.12" style="stop-color:#53A632"/>
			<stop  offset="0.2" style="stop-color:#409035"/>
			<stop  offset="0.28" style="stop-color:#327F37"/>
			<stop  offset="0.39" style="stop-color:#277439"/>
			<stop  offset="0.54" style="stop-color:#226D3A"/>
			<stop  offset="0.96" style="stop-color:#206B3A"/>
			<stop  offset="0.98" style="stop-color:#226C3C"/>
			<stop  offset="0.98" style="stop-color:#297142"/>
			<stop  offset="0.99" style="stop-color:#347A4D"/>
			<stop  offset="0.99" style="stop-color:#45865C"/>
			<stop  offset="0.99" style="stop-color:#5B9670"/>
			<stop  offset="1" style="stop-color:#77AA88"/>
			<stop  offset="1" style="stop-color:#97C1A6"/>
			<stop  offset="1" style="stop-color:#BBDCC7"/>
			<stop  offset="1" style="stop-color:#C8E5D2"/>
		</linearGradient>
		<path class="st17" d="M-409.8,726c0,0,309.8-108.6,1104.2-82.1c651.4,21.7,767.9,84.7,767.9,84.7l-331.8,163.9H413.7L-358,755.9
			L-409.8,726z"/>
		
			<linearGradient id="SVGID_9_" gradientUnits="userSpaceOnUse" x1="-697.72" y1="58.425" x2="1255.12" y2="58.425" gradientTransform="matrix(1 0 0 -1 0 900)">
			<stop  offset="0" style="stop-color:#76CCD2"/>
			<stop  offset="0" style="stop-color:#6AC4C0"/>
			<stop  offset="0" style="stop-color:#4CAE93"/>
			<stop  offset="0" style="stop-color:#1C8A4A"/>
			<stop  offset="0" style="stop-color:#178743"/>
			<stop  offset="1.000000e-02" style="stop-color:#1F8448"/>
			<stop  offset="3.000000e-02" style="stop-color:#2B7F4F"/>
			<stop  offset="5.000000e-02" style="stop-color:#2F7D51"/>
			<stop  offset="0.48" style="stop-color:#267344"/>
			<stop  offset="0.96" style="stop-color:#206B3A"/>
			<stop  offset="0.98" style="stop-color:#226C3C"/>
			<stop  offset="0.98" style="stop-color:#297142"/>
			<stop  offset="0.99" style="stop-color:#347A4D"/>
			<stop  offset="0.99" style="stop-color:#45865C"/>
			<stop  offset="0.99" style="stop-color:#5B9670"/>
			<stop  offset="1" style="stop-color:#77AA88"/>
			<stop  offset="1" style="stop-color:#97C1A6"/>
			<stop  offset="1" style="stop-color:#BBDCC7"/>
			<stop  offset="1" style="stop-color:#C8E5D2"/>
		</linearGradient>
		<path class="st18" d="M-610.8,659.5c260.9,14,482.6,34.8,654.4,54.2c471.3,53,851.2,125.8,1046.1,164.2h0.1l-1700.6,145.9V659.5z"
			/>
		
			<linearGradient id="SVGID_10_" gradientUnits="userSpaceOnUse" x1="36.79" y1="213.84" x2="57.17" y2="213.84" gradientTransform="matrix(1 0 0 -1 0 900)">
			<stop  offset="3.000000e-02" style="stop-color:#403F2F"/>
			<stop  offset="0.39" style="stop-color:#555644"/>
			<stop  offset="1" style="stop-color:#777B65"/>
		</linearGradient>
		<rect x="36.8" y="653.7" class="st19" width="20.4" height="65"/>
		
			<linearGradient id="SVGID_11_" gradientUnits="userSpaceOnUse" x1="172.69" y1="207.03" x2="193.07" y2="207.03" gradientTransform="matrix(1 0 0 -1 0 900)">
			<stop  offset="3.000000e-02" style="stop-color:#403F2F"/>
			<stop  offset="0.39" style="stop-color:#555644"/>
			<stop  offset="1" style="stop-color:#777B65"/>
		</linearGradient>
		<rect x="172.7" y="660.5" class="st20" width="20.4" height="65"/>
		
			<linearGradient id="SVGID_12_" gradientUnits="userSpaceOnUse" x1="-44.7108" y1="213.5115" x2="320.7592" y2="426.6915" gradientTransform="matrix(1 0 0 -1 0 900)">
			<stop  offset="0.15" style="stop-color:#1E6C36"/>
			<stop  offset="0.33" style="stop-color:#166C36"/>
			<stop  offset="0.46" style="stop-color:#0D6C37"/>
			<stop  offset="0.55" style="stop-color:#2A843B"/>
			<stop  offset="0.7" style="stop-color:#50A340"/>
			<stop  offset="0.82" style="stop-color:#67B743"/>
			<stop  offset="0.89" style="stop-color:#70BE44"/>
		</linearGradient>
		<path class="st21" d="M119.6,587c0,0-8.6-12.7,19.3-116.8s96.4-56,107.1,13.4s10.7,140.1,10.7,140.1c-15,93.4-139.6,66-138.3,14.7
			L119.6,587z"/>
		
			<linearGradient id="SVGID_13_" gradientUnits="userSpaceOnUse" x1="-174.5278" y1="263.7262" x2="183.1722" y2="472.3663" gradientTransform="matrix(1 0 0 -1 0 900)">
			<stop  offset="0.15" style="stop-color:#1E6C36"/>
			<stop  offset="0.33" style="stop-color:#166C36"/>
			<stop  offset="0.44" style="stop-color:#0D6C37"/>
			<stop  offset="0.96" style="stop-color:#70BE44"/>
		</linearGradient>
		<path class="st22" d="M-19.7,546.8c0,0-8.6-14.1,19.3-129.1s96.4-61.9,107.1,14.8s10.7,154.9,10.7,154.9
			c-15,103.3-139.6,73-138.3,16.2L-19.7,546.8z"/>
		
			<linearGradient id="SVGID_14_" gradientUnits="userSpaceOnUse" x1="1091.7576" y1="-192.5176" x2="1074.7775" y2="-264.0175" gradientTransform="matrix(0.9966 8.298215e-02 8.298215e-02 -0.9966 125.2261 290.8059)">
			<stop  offset="0" style="stop-color:#1EAB4B"/>
			<stop  offset="8.000000e-02" style="stop-color:#2EAF4C"/>
			<stop  offset="0.26" style="stop-color:#4AB54F"/>
			<stop  offset="0.43" style="stop-color:#5EB951"/>
			<stop  offset="0.61" style="stop-color:#6ABC52"/>
			<stop  offset="0.78" style="stop-color:#6EBD52"/>
		</linearGradient>
		<path class="st23" d="M1155,601.4c0.3-1,3.4-12.8,9.3-15.1c4-1.5,6.7,2.2,7.5,3.3c4-15.6,13.7-14.3,17-2.6
			c14.2-6.7,9.8,1.5,14.6,13c24.3-10.3,16.5,18.2,16.5,18.2l7.6,0.6l-86.8-11.1"/>
		
			<linearGradient id="SVGID_15_" gradientUnits="userSpaceOnUse" x1="-1327.29" y1="17.8961" x2="2345.8701" y2="17.8961" gradientTransform="matrix(1 0 0 -1 0 900)">
			<stop  offset="0" style="stop-color:#76CCD2"/>
			<stop  offset="0" style="stop-color:#6AC4C0"/>
			<stop  offset="0" style="stop-color:#4CAE93"/>
			<stop  offset="0" style="stop-color:#1C8A4A"/>
			<stop  offset="0" style="stop-color:#178743"/>
			<stop  offset="1.000000e-02" style="stop-color:#136D36"/>
			<stop  offset="2.000000e-02" style="stop-color:#10592D"/>
			<stop  offset="4.000000e-02" style="stop-color:#0E4D27"/>
			<stop  offset="5.000000e-02" style="stop-color:#0D4925"/>
			<stop  offset="0.25" style="stop-color:#085028"/>
			<stop  offset="0.57" style="stop-color:#055429"/>
			<stop  offset="0.74" style="stop-color:#07552B"/>
			<stop  offset="0.8" style="stop-color:#0E5A31"/>
			<stop  offset="0.84" style="stop-color:#19633B"/>
			<stop  offset="0.88" style="stop-color:#2A7049"/>
			<stop  offset="0.91" style="stop-color:#40805D"/>
			<stop  offset="0.93" style="stop-color:#5C9474"/>
			<stop  offset="0.96" style="stop-color:#7CAD90"/>
			<stop  offset="0.98" style="stop-color:#A0C8B0"/>
			<stop  offset="1" style="stop-color:#C8E5D2"/>
		</linearGradient>
		<path class="st24" d="M-930.9,1064.9c-5.8-46.7,562-144.9,1546-315.1c94.8-16.4,251.7-42.9,456.4-57.6
			c140.1-10.1,253.3-11.1,316.8-10.8c102.6,0.4,278.3,5.2,356.3,10.6c5.3,114-40.9,218.5-35.6,332.5
			c-784.2-2-1466.8,23.1-1947.2,40.4C-675.8,1080.7-927.1,1095.8-930.9,1064.9z"/>
		
			<linearGradient id="SVGID_16_" gradientUnits="userSpaceOnUse" x1="868.4054" y1="65.812" x2="1027.4955" y2="435.502" gradientTransform="matrix(1 0 0 -1 0 900)">
			<stop  offset="0" style="stop-color:#76CCD2"/>
			<stop  offset="0" style="stop-color:#6AC4C0"/>
			<stop  offset="0" style="stop-color:#4CAE93"/>
			<stop  offset="0" style="stop-color:#1C8A4A"/>
			<stop  offset="0" style="stop-color:#178743"/>
			<stop  offset="1.000000e-02" style="stop-color:#136D36"/>
			<stop  offset="2.000000e-02" style="stop-color:#10592D"/>
			<stop  offset="4.000000e-02" style="stop-color:#0E4D27"/>
			<stop  offset="5.000000e-02" style="stop-color:#0D4925"/>
			<stop  offset="0.13" style="stop-color:#0E5028"/>
			<stop  offset="0.34" style="stop-color:#0F5B2E"/>
			<stop  offset="0.57" style="stop-color:#105F30"/>
			<stop  offset="0.74" style="stop-color:#126032"/>
			<stop  offset="0.8" style="stop-color:#196538"/>
			<stop  offset="0.84" style="stop-color:#246E42"/>
			<stop  offset="0.88" style="stop-color:#357A51"/>
			<stop  offset="0.91" style="stop-color:#4B8A64"/>
			<stop  offset="0.94" style="stop-color:#679E7C"/>
			<stop  offset="0.96" style="stop-color:#87B699"/>
			<stop  offset="0.99" style="stop-color:#ABD0B9"/>
			<stop  offset="1" style="stop-color:#C8E5D2"/>
		</linearGradient>
		<path class="st25" d="M833.3,718.1c0,0-14-34.5,27.8-25.3c-22.8-44.7,38.8-52.9,53.3-24.5c24.3-68.5,61-15.9,52.3-0.1
			c33.9-33,51.5,17.5,51.5,17.5l3.5,10.4L833.3,718.1z"/>
		
			<linearGradient id="SVGID_17_" gradientUnits="userSpaceOnUse" x1="-294.08" y1="294.9598" x2="1025.96" y2="294.9598" gradientTransform="matrix(0.91 -0.14 -8.000000e-02 -0.51 462.85 909.85)">
			<stop  offset="0" style="stop-color:#76CCD2"/>
			<stop  offset="0" style="stop-color:#6AC4C0"/>
			<stop  offset="0" style="stop-color:#4CAE93"/>
			<stop  offset="0" style="stop-color:#1C8A4A"/>
			<stop  offset="0" style="stop-color:#178743"/>
			<stop  offset="1.000000e-02" style="stop-color:#136D36"/>
			<stop  offset="2.000000e-02" style="stop-color:#10592D"/>
			<stop  offset="4.000000e-02" style="stop-color:#0E4D27"/>
			<stop  offset="5.000000e-02" style="stop-color:#0D4925"/>
			<stop  offset="0.13" style="stop-color:#0E5028"/>
			<stop  offset="0.34" style="stop-color:#0F5B2E"/>
			<stop  offset="0.57" style="stop-color:#105F30"/>
			<stop  offset="0.74" style="stop-color:#126032"/>
			<stop  offset="0.8" style="stop-color:#196538"/>
			<stop  offset="0.84" style="stop-color:#246E42"/>
			<stop  offset="0.88" style="stop-color:#357A51"/>
			<stop  offset="0.91" style="stop-color:#4B8A64"/>
			<stop  offset="0.94" style="stop-color:#679E7C"/>
			<stop  offset="0.96" style="stop-color:#87B699"/>
			<stop  offset="0.99" style="stop-color:#ABD0B9"/>
			<stop  offset="1" style="stop-color:#C8E5D2"/>
		</linearGradient>
		<path class="st26" d="M698.9,698.9c2.4,2.3,3.7,5.4,3.6,8.7c12.1-8.3,27.6-12,38.7-9.1c9.2,2.5,15.5,9.6,17.2,16.1
			c1.4,5.7-1.1,9.3,2.3,11c4.2,2.1,12.4-1.7,21-4.4c19-6,36.1-5.4,53.7-4.7c0,0,5.5-3.3,43.5,2.2l6.1,0.8
			c-137,21-280.8,44.6-417.8,65.6c3.6-4.8,8-8.8,13-12c20.6-13.2,47.4-11.6,51.8-11.2c-1.3-1.8-1.9-3.9-1.8-6.1
			c0.5-9.2,15.3-16.5,23.5-20.5c15.8-7.8,32-10.5,42.8-11.4c0.1-5.8,2.9-11.3,7.7-14.6c9.9-7.3,29-8.9,44.5-1.9
			c1.5-2.2,6.5-8.5,16.7-11.9C676.9,691.5,692.2,692.3,698.9,698.9z"/>
		
			<linearGradient id="SVGID_18_" gradientUnits="userSpaceOnUse" x1="-1795.49" y1="230.9904" x2="2204.0801" y2="230.9904" gradientTransform="matrix(1 0 0 -1 0 900)">
			<stop  offset="0.26" style="stop-color:#66993D"/>
			<stop  offset="0.36" style="stop-color:#58933C"/>
			<stop  offset="0.45" style="stop-color:#488C3B"/>
		</linearGradient>
		<path class="st27" d="M-215.2,688.8c0,0-0.8-1.9-1.7-4.9c-4.8-16.1-12.8-64.4,77.1-32.7c0-56.5,52.4-27.4,57.6-10.5
			c23-48,85.9,2.5,67.5,12.8c76.3-35.9,87.4,29.2,62.8,35.4c88.9-6.3,38.2,31.4,38.2,31.4"/>
		
			<linearGradient id="SVGID_19_" gradientUnits="userSpaceOnUse" x1="-3302.04" y1="52.0778" x2="697.53" y2="52.0778" gradientTransform="matrix(0.72 2.000000e-02 2.000000e-02 -0.66 1351.55 780.35)">
			<stop  offset="0.26" style="stop-color:#66993D"/>
			<stop  offset="0.36" style="stop-color:#58933C"/>
			<stop  offset="0.45" style="stop-color:#488C3B"/>
		</linearGradient>
		<path class="st28" d="M109.4,723.6c-0.4-1.1-0.8-2.2-1.1-3.3c-3.1-10.8-7.8-42.9,56.2-19.8c1.3-37.4,38.4-16.8,41.7-5.6
			c17.6-31.2,61.8,3.7,48.3,10.1c55.8-21.8,62.3,21.4,44.4,25c64.2-2,26.8,21.7,26.8,21.7"/>
		
			<linearGradient id="SVGID_20_" gradientUnits="userSpaceOnUse" x1="5134.748" y1="112.1" x2="5134.748" y2="567.01" gradientTransform="matrix(-1 0 0 -1 6773.2402 900)">
			<stop  offset="0.25" style="stop-color:#604023"/>
			<stop  offset="0.66" style="stop-color:#51361C"/>
			<stop  offset="0.93" style="stop-color:#442E17"/>
		</linearGradient>
		<path class="st29" d="M1860.2,460.4c0,0,4.9,37.1-65,55.7c0,0,5.3,62.3-96.8,94.1c0,0-60.5,20.9-52.8,62.8c0,0,2.1,78-15.5,115.5
			c0,0-146.4,12.3-162.6,10.1c0,0,55.8-45.7,50.7-189.5c0,0-36.8-77.4-38.4-87.2c0,0-35.8,4.1-47.7,0c0,0-18.3,4.1-15.1-51.3
			c0,0,40.5,79.9,71.5,8.1l11.9-2.5c0,0-14.3,84,35.8,71.7c0,0,8-66,6.4-68.5l23-3.3c0,0-0.8,66,13.5,38.3c0,0,20.7-32.6,19.1-39.1
			l15,1.9c0,0-21,62.4-34,68.8s3.5,65,19.3,66.5c0,0,43-115.5,41.9-135.8l18.1,1.2c0,0-33.9,92.9,10.8,103.3c0,0,58.4,0.8,95.4-30.1
			c0,0,28.8-34.4,22.6-75.8l14.4-7c0,0-3.4,23.2-1.4,26.7c0,0,32.2,4.9,52.7-31.6L1860.2,460.4z"/>
		<path class="st30" d="M1417.1,475.4c0,0-14.2,55.4,21.7,47.3c0,0-11.8,2.8-18.9-47.8L1417.1,475.4z"/>
		<path class="st30" d="M1543,490.8c0,0-3.9,48.6-9.1,58.7C1534.3,548.2,1554.8,545.8,1543,490.8z"/>
		<path class="st31" d="M1623.6,536.9c0,0-12.9,57.8-31.1,77.4C1592.5,614.3,1636,613,1623.6,536.9z"/>
		<path class="st32" d="M1522,643c0,0,35.3,15.7,44.7,84.2c0,0,5.3,42.6,1,58.8c0,0-75.2,11.6-99,12.2c0,0,47.3-50.6,49.8-157.2
			L1522,643z"/>
		<path class="st33" d="M1811.1,385.6c-0.8-2.5,73.9-61.9,27.5-141.9c0,0-48.3-134.3-241.5-91.4c0,0-197.8,30.5-294.4,172.4
			c0,0-18.1,19-4.7,29.3s80.4,27.5,80.4,27.5l194.2,3.4L1811.1,385.6z"/>
		
			<linearGradient id="SVGID_21_" gradientUnits="userSpaceOnUse" x1="4852.4395" y1="485.1711" x2="5633.4194" y2="848.8811" gradientTransform="matrix(-1 0 0 -1 6773.2402 900)">
			<stop  offset="0.13" style="stop-color:#115638"/>
			<stop  offset="0.32" style="stop-color:#135938"/>
			<stop  offset="0.45" style="stop-color:#1B6139"/>
			<stop  offset="0.56" style="stop-color:#28703A"/>
			<stop  offset="0.65" style="stop-color:#3B853C"/>
			<stop  offset="0.74" style="stop-color:#53A03F"/>
			<stop  offset="0.75" style="stop-color:#58A53F"/>
			<stop  offset="0.87" style="stop-color:#59A641"/>
			<stop  offset="0.91" style="stop-color:#5CA948"/>
			<stop  offset="0.94" style="stop-color:#61AD53"/>
			<stop  offset="0.96" style="stop-color:#69B464"/>
			<stop  offset="0.98" style="stop-color:#73BD7A"/>
			<stop  offset="1" style="stop-color:#7EC793"/>
		</linearGradient>
		
			<linearGradient id="SVGID_22_" gradientUnits="userSpaceOnUse" x1="4920.4897" y1="662.3666" x2="5481.5166" y2="662.3666" gradientTransform="matrix(-1 0 0 -1 6773.2402 900)">
			<stop  offset="0" style="stop-color:#277948"/>
			<stop  offset="1" style="stop-color:#03654A"/>
		</linearGradient>
		<path class="st34" d="M1809.9,358.5c-0.8-2.5,73.9-61.9,27.5-141.9c0,0-48.3-134.3-241.5-91.4c0,0-197.8,30.5-294.4,172.4
			c0,0-18.1,19-4.7,29.3s80.4,27.5,80.4,27.5l194.2,3.4L1809.9,358.5z"/>
		<path class="st33" d="M1388.1,347.5c0,0-91.5-93-177.1,57.3c0,0-49.5,81,64.7,75.1c0,0,97.1,1,114.2-7.8
			c1-3.9,16.2-59.5,15.2-66.4S1388.1,347.5,1388.1,347.5z"/>
		
			<linearGradient id="SVGID_23_" gradientUnits="userSpaceOnUse" x1="5352.5811" y1="369.6788" x2="5597.6309" y2="625.7188" gradientTransform="matrix(-1 0 0 -1 6773.2402 900)">
			<stop  offset="0.13" style="stop-color:#03492C"/>
			<stop  offset="0.54" style="stop-color:#327C37"/>
			<stop  offset="0.85" style="stop-color:#58A53F"/>
		</linearGradient>
		
			<linearGradient id="SVGID_24_" gradientUnits="userSpaceOnUse" x1="5365.4727" y1="500.7635" x2="5570.564" y2="500.7635" gradientTransform="matrix(-1 0 0 -1 6773.2402 900)">
			<stop  offset="0" style="stop-color:#277948"/>
			<stop  offset="1" style="stop-color:#03654A"/>
		</linearGradient>
		<path class="st35" d="M1390.6,347.1c0,0-91.5-93-177.1,57.3c0,0-49.5,81,64.7,75.2c0,0,97.1,1,114.2-7.8
			c1-3.9,16.2-59.5,15.2-66.4S1390.6,347.1,1390.6,347.1z"/>
		<path class="st36" d="M1773.1,326.8c0,0,157.2,87.6,66,148.4c0,0-17.2,13.1-112.1,13.1c0,0-340,12.9-393.7-8.7
			c0,0-73.5-15.6-49.2-74.5c0,0,57.4-194.1,287.2-175.4C1571.4,229.8,1624.8,230.4,1773.1,326.8z"/>
		
			<linearGradient id="SVGID_25_" gradientUnits="userSpaceOnUse" x1="5005.9473" y1="276.3825" x2="5424.4775" y2="694.9225" gradientTransform="matrix(-1 0 0 -1 6773.2402 900)">
			<stop  offset="0.13" style="stop-color:#115638"/>
			<stop  offset="0.39" style="stop-color:#135938"/>
			<stop  offset="0.56" style="stop-color:#1B6139"/>
			<stop  offset="0.7" style="stop-color:#28703A"/>
			<stop  offset="0.82" style="stop-color:#3B853C"/>
			<stop  offset="0.94" style="stop-color:#53A03F"/>
			<stop  offset="0.96" style="stop-color:#58A53F"/>
			<stop  offset="0.98" style="stop-color:#59A641"/>
			<stop  offset="0.99" style="stop-color:#5CA948"/>
			<stop  offset="0.99" style="stop-color:#61AD53"/>
			<stop  offset="0.99" style="stop-color:#69B464"/>
			<stop  offset="1" style="stop-color:#73BD7A"/>
			<stop  offset="1" style="stop-color:#7EC793"/>
		</linearGradient>
		
			<linearGradient id="SVGID_26_" gradientUnits="userSpaceOnUse" x1="4907.1089" y1="536.7485" x2="5495.7227" y2="536.7485" gradientTransform="matrix(-1 0 0 -1 6773.2402 900)">
			<stop  offset="0" style="stop-color:#277948"/>
			<stop  offset="1" style="stop-color:#03654A"/>
		</linearGradient>
		<path class="st37" d="M1771.5,329.7c0,0,157.2,87.6,66,148.4c0,0-17.2,13.1-112.1,13.1c0,0-340,12.9-393.7-8.8
			c0,0-73.5-15.6-49.2-74.5c0,0,57.4-194.1,287.2-175.4C1569.8,232.7,1623.2,233.4,1771.5,329.7z"/>
		
			<linearGradient id="SVGID_27_" gradientUnits="userSpaceOnUse" x1="-275.9568" y1="-163.8617" x2="419.4132" y2="401.7483" gradientTransform="matrix(1 0 0 -1 0 900)">
			<stop  offset="9.000000e-02" style="stop-color:#0F4C27"/>
			<stop  offset="0.28" style="stop-color:#053D1C"/>
			<stop  offset="0.3" style="stop-color:#043B1B"/>
		</linearGradient>
		<path class="st38" d="M-253.9,900.8c1.1-2.1,10.1-18.2,26.3-19.5c11-0.9,19.1,5.5,21.7,7.8c0.1-1.2,2.2-29.3,18.6-39.1
			c16.1-9.7,38.5-9.3,49,20.1c7.9-84,68.8-32.4,79.5-4.7c12.1-93.3,69.4-31,66.4,4.2c3.9-18.1,15.7-30.8,27.8-31.3
			c16.2-0.7,32.6,20,30.9,46.9c14.9-14.1,23.1-14.7,27.8-11.7c8.7,5.4,14,27.4,14,27.4H-253.9L-253.9,900.8z"/>
		
			<linearGradient id="SVGID_28_" gradientUnits="userSpaceOnUse" x1="959.7097" y1="-429.8696" x2="2741.7598" y2="1019.6404" gradientTransform="matrix(1 0 0 -1 0 900)">
			<stop  offset="9.000000e-02" style="stop-color:#0F4C27"/>
			<stop  offset="0.28" style="stop-color:#053D1C"/>
			<stop  offset="0.3" style="stop-color:#043B1B"/>
		</linearGradient>
		<path class="st39" d="M1016.4,912.3c2.9-5.5,25.8-47.2,67.3-50.6c28.3-2.4,48.9,14.4,55.5,20.3c0.2-3.2,5.5-75.8,47.5-101.3
			c41.4-25.1,103.9,4.4,130.8,80.4c-23.8-262.1,171.1-112.2,198.4-40.6c30.9-241.6,178.1-100.5,170.2-9.3c10-47,39.9-59.5,71.1-60.9
			c41.4-1.8,83.5,51.8,79.2,121.5c38.3-36.6,59.2-38,71.3-30.4c22.4,13.9,35.8,70.9,35.8,70.9L1016.4,912.3L1016.4,912.3z"/>
	</g>
</g>
</svg>
