<?xml version="1.0" encoding="utf-8"?>
<!-- Generator: Adobe Illustrator 25.2.3, SVG Export Plug-In . SVG Version: 6.00 Build 0)  -->
<svg version="1.1" id="Layer_1" xmlns="http://www.w3.org/2000/svg" xmlns:xlink="http://www.w3.org/1999/xlink" x="0px" y="0px"
	 viewBox="0 0 5000 900" style="enable-background:new 0 0 5000 900;" xml:space="preserve">
<style type="text/css">
	.st0{clip-path:url(#SVGID_2_);}
	.st1{fill:url(#SVGID_3_);}
	.st2{fill:#8FD6F3;}
	.st3{fill:url(#SVGID_4_);}
	.st4{fill:url(#SVGID_5_);}
	.st5{fill:url(#SVGID_6_);}
	.st6{fill:#54C4D5;}
	.st7{fill:#20AC98;}
	.st8{fill:url(#SVGID_7_);}
	.st9{fill:#68BC45;}
	.st10{fill:url(#SVGID_8_);}
	.st11{fill:url(#SVGID_9_);}
	.st12{fill:url(#SVGID_10_);}
	.st13{fill:url(#SVGID_11_);}
	.st14{fill:url(#SVGID_12_);}
	.st15{fill:url(#SVGID_13_);}
	.st16{fill:#42C68D;}
	.st17{fill:url(#SVGID_14_);}
	.st18{fill:url(#SVGID_15_);}
	.st19{fill:url(#SVGID_16_);}
	.st20{fill:url(#SVGID_17_);}
	.st21{fill:url(#SVGID_18_);}
	.st22{fill:#874A41;}
	.st23{fill:url(#SVGID_19_);}
	.st24{fill:url(#SVGID_20_);}
	.st25{fill:url(#SVGID_21_);}
	.st26{fill:url(#SVGID_22_);}
	.st27{fill:url(#SVGID_23_);}
	.st28{fill:url(#SVGID_24_);}
	.st29{fill:url(#SVGID_25_);}
	.st30{fill:url(#SVGID_26_);}
	.st31{fill:url(#SVGID_27_);}
	.st32{fill:url(#SVGID_28_);}
	.st33{fill:#86AC35;}
	.st34{fill:#7BBA5D;}
	.st35{fill:#0C8753;}
	.st36{fill:url(#SVGID_29_);}
	.st37{fill:url(#SVGID_30_);}
	.st38{fill:url(#SVGID_31_);}
	.st39{fill:url(#SVGID_32_);}
	.st40{fill:url(#SVGID_33_);}
	.st41{fill:url(#SVGID_34_);}
	.st42{fill:url(#SVGID_35_);}
	.st43{fill:url(#SVGID_36_);}
	.st44{fill:url(#SVGID_37_);}
	.st45{fill:url(#SVGID_38_);}
	.st46{fill:url(#SVGID_39_);}
	.st47{fill:url(#SVGID_40_);}
	.st48{fill:url(#SVGID_41_);}
	.st49{fill:url(#SVGID_42_);}
	.st50{fill:url(#SVGID_43_);}
	.st51{fill:url(#SVGID_44_);}
	.st52{fill:url(#SVGID_45_);}
	.st53{fill:url(#SVGID_46_);}
	.st54{fill:url(#SVGID_47_);}
	.st55{fill:url(#SVGID_48_);}
	.st56{fill:url(#SVGID_49_);}
	.st57{fill:url(#SVGID_50_);}
	.st58{fill:url(#SVGID_51_);}
	.st59{fill:url(#SVGID_52_);}
	.st60{fill:url(#SVGID_53_);}
</style>
<g>
	<defs>
		<rect id="SVGID_1_" width="5000" height="900"/>
	</defs>
	<clipPath id="SVGID_2_">
		<use xlink:href="#SVGID_1_"  style="overflow:visible;"/>
	</clipPath>
	<g class="st0">
		
			<linearGradient id="SVGID_3_" gradientUnits="userSpaceOnUse" x1="2336.5376" y1="210.0899" x2="2303.1475" y2="923.2399" gradientTransform="matrix(1 0 0 -1 0 900)">
			<stop  offset="0.29" style="stop-color:#A6D9EF"/>
			<stop  offset="0.53" style="stop-color:#9FD2EB"/>
			<stop  offset="0.89" style="stop-color:#8BBEDF"/>
			<stop  offset="0.9" style="stop-color:#8ABDDE"/>
		</linearGradient>
		<rect x="-428" y="-41.6" class="st1" width="5501.6" height="877.9"/>
		<path class="st2" d="M1333,591.3c0,0,202-123.9,452-141.9s478,86,478,86v162l-1002,8C1261,705.4,1203,671.2,1333,591.3z"/>
		
			<linearGradient id="SVGID_4_" gradientUnits="userSpaceOnUse" x1="-429.92" y1="344.8931" x2="2263.0801" y2="344.8931" gradientTransform="matrix(1 0 0 -1 0 900)">
			<stop  offset="0" style="stop-color:#8AD1ED"/>
			<stop  offset="1" style="stop-color:#8AD1ED"/>
		</linearGradient>
		<path class="st3" d="M-429.9,466.2c0,0,75-17.4,275,10.9s286,12.1,380-10.9s324-88.7,680-28.8s276,124.3,842,139.1
			c0,0,212,10.6,432-27.3c0,0,72-13.9,84-13.9v162h-2693L-429.9,466.2z"/>
		
			<linearGradient id="SVGID_5_" gradientUnits="userSpaceOnUse" x1="2263.0801" y1="276.8932" x2="4956.0801" y2="276.8932" gradientTransform="matrix(1 0 0 -1 0 900)">
			<stop  offset="0" style="stop-color:#8AD1ED"/>
			<stop  offset="1" style="stop-color:#8AD1ED"/>
		</linearGradient>
		<path class="st4" d="M2263.1,534.2c0,0,75-17.4,275,10.8s286,12.1,380-10.8s324-88.7,680-28.8s276,124.3,842,139.1
			c0,0,212,10.6,432-27.3c0,0,72-13.9,84-13.9v162h-2693V534.2z"/>
		
			<linearGradient id="SVGID_6_" gradientUnits="userSpaceOnUse" x1="-51.13" y1="73.625" x2="5086.9102" y2="73.625" gradientTransform="matrix(1 0 0 -1 0 900)">
			<stop  offset="1.000000e-02" style="stop-color:#0C6021"/>
			<stop  offset="0.38" style="stop-color:#0C6525"/>
			<stop  offset="0.8" style="stop-color:#0D7331"/>
			<stop  offset="0.94" style="stop-color:#0E7936"/>
		</linearGradient>
		<polygon class="st5" points="-47,752.2 5085.9,740 5086.9,912.8 -51.1,909.8 		"/>
		<path class="st6" d="M-27.7,544c0,0,393.3-11.6,740.9,13.7s369.9,59,639.2,52.8s445.1,6.8,677.9,0.8l232.7-7.9v94l-2559-18.6
			L-27.7,544z"/>
		<path class="st6" d="M5158.6,665.3c0,0-214.6-117.7-437.3-13c-55.3,26-102.5,11.1-112,5.8l-139-77.9
			c-28.3-21.9-87.4-23.9-131.1,11.1l-108.6,69c-7.1,3.6-15.3,8.2-26.6,6.3c-340.2-59.3-373-43.2-633-1.2
			c-344.5,36.9-394.8-38-610.1-59.5c-288.8-29.5-611.6-18.1-689.4-15.9c-11.5,0.3-22.8,3.6-32.7,9.5l-19.7,11.6
			c-61.3,36.4-36.7,132.9,34,133.5L4440,763.3l658-22.7L5158.6,665.3z"/>
		<path class="st7" d="M1441,628.3c0,0,259.8-35,747.9,5l74.1,3.4v60.6l-896-7.5L1441,628.3z"/>
		<path class="st7" d="M-711.9,573.9c0,0,306.8-92.9,608.2-55.6s313.3,94.3,436.1,106.4s243-7.2,345.6-26.4s301.5-26.9,591.8,54.8
			l74.1,22.3l-2057,5.4L-711.9,573.9z"/>
		
			<linearGradient id="SVGID_7_" gradientUnits="userSpaceOnUse" x1="1364.9116" y1="154.4683" x2="1377.1216" y2="382.2583" gradientTransform="matrix(1 0 0 -1 0 900)">
			<stop  offset="2.000000e-02" style="stop-color:#A78B40"/>
			<stop  offset="0.11" style="stop-color:#A18A41"/>
			<stop  offset="0.22" style="stop-color:#918644"/>
			<stop  offset="0.35" style="stop-color:#767F4A"/>
			<stop  offset="0.49" style="stop-color:#507652"/>
			<stop  offset="0.64" style="stop-color:#216B5B"/>
			<stop  offset="0.78" style="stop-color:#19675C"/>
			<stop  offset="0.97" style="stop-color:#14645C"/>
		</linearGradient>
		<path class="st8" d="M1425.7,574.7c-4.7,8.9-20,15-27.5,8.9c-2-1.7-3.5-0.5-3.5-0.5c-11.2,3.5-10.7,13.7-10.7,13.7
			c10.7,89.3,3.4,142.9,3.4,142.9h-33.6c-4.3-28.2,0.5-88.7,2-106.3c0.4-4.6-1.3-25.5-1.3-25.5s-2.6-13.5-4.6-17
			c-2.1-3.5-4.8-6.7-8-9.4c-27.9-1.3-18.1-4.5-18.1-4.5c1.4,1.2,17.3,0.1,18.7-0.9s-6.2-24.5-6.2-24.5h5.4
			c0.8,7.3,6.5,24.9,6.5,24.9c4,1.7,9.6-23,9.6-23h5.4c0,0-9.1,19.7-5.2,17.9s10.1-16.1,10.1-16.1h4.2c0,0-6.4,16.3-12,20.1
			s-2.1,6.1-2.1,6.1c16.7,7.5,16.8-26.2,16.8-26.2h2.9c-1.8,17.2,0.8,24.3,0.8,24.3c14.1,2.5,17.4-24.3,17.4-24.3l4.6-1.7
			c0.5,7.5-3.6,21.9-3.6,21.9s1.8,5.9,9.3,6.1c4.4,0.1,11.1-10,13-11.8L1425.7,574.7z"/>
		<path class="st9" d="M1426.6,531.3c0,0-8.4-19.5-39.7-16.9c-31.2,2.6-46.1,19.2,15.9,22.3C1402.8,536.8,1431.5,542.5,1426.6,531.3
			z"/>
		
			<linearGradient id="SVGID_8_" gradientUnits="userSpaceOnUse" x1="1362.955" y1="355.0399" x2="1425.615" y2="386.7099" gradientTransform="matrix(1 0 0 -1 0 900)">
			<stop  offset="0" style="stop-color:#2C6F40"/>
			<stop  offset="1" style="stop-color:#1B936C"/>
		</linearGradient>
		<path class="st10" d="M1426.6,532c0,0-8.5-19.5-40.2-16.9s-46.7,19.2,16.1,22.3C1402.5,537.5,1431.6,543.2,1426.6,532z"/>
		<path class="st9" d="M1316.5,550.1c0,0,14.5,3.7,58.4,5.7c42.1,1.9,43-6.5,43-6.5s9.2-19.4-28.8-25.2
			C1354.3,518.8,1290,533.8,1316.5,550.1z"/>
		
			<linearGradient id="SVGID_9_" gradientUnits="userSpaceOnUse" x1="1334.167" y1="300.783" x2="1387.4971" y2="395.493" gradientTransform="matrix(1 0 0 -1 0 900)">
			<stop  offset="0" style="stop-color:#096946"/>
			<stop  offset="0.17" style="stop-color:#0E6D46"/>
			<stop  offset="0.38" style="stop-color:#1E7746"/>
			<stop  offset="0.61" style="stop-color:#388847"/>
			<stop  offset="0.86" style="stop-color:#5BA048"/>
			<stop  offset="1" style="stop-color:#73B048"/>
		</linearGradient>
		<path class="st11" d="M1316.5,551c0,0,14.5,3.8,58.4,5.8c42.1,1.9,43-6.6,43-6.6s9.2-19.5-28.8-25.4
			C1354.3,519.5,1290,534.6,1316.5,551z"/>
		<path class="st9" d="M1408.9,573.9c0,0,26.1,3.2,48.3,0s8-19.2,0-21.2c-8.4-2-28-2.8-51.2,11.3
			C1391.1,573.1,1408.9,573.9,1408.9,573.9z"/>
		
			<linearGradient id="SVGID_10_" gradientUnits="userSpaceOnUse" x1="1393.7551" y1="311.5096" x2="1461.4751" y2="345.2097" gradientTransform="matrix(1 0 0 -1 0 900)">
			<stop  offset="0" style="stop-color:#1F8969"/>
			<stop  offset="0.23" style="stop-color:#238B68"/>
			<stop  offset="0.43" style="stop-color:#2E9064"/>
			<stop  offset="0.63" style="stop-color:#40985D"/>
			<stop  offset="0.83" style="stop-color:#5AA453"/>
			<stop  offset="1" style="stop-color:#78B248"/>
		</linearGradient>
		<path class="st12" d="M1408.7,574c0,0,25.9,3.1,47.8,0s8-18.6,0-20.5c-8.3-2-27.8-2.8-50.8,11C1391.1,573.2,1408.7,574,1408.7,574
			z"/>
		
			<linearGradient id="SVGID_11_" gradientUnits="userSpaceOnUse" x1="1297.1052" y1="323.7493" x2="1328.9752" y2="340.0093" gradientTransform="matrix(1 0 0 -1 0 900)">
			<stop  offset="0" style="stop-color:#1F8969"/>
			<stop  offset="0.23" style="stop-color:#238B68"/>
			<stop  offset="0.43" style="stop-color:#2E9064"/>
			<stop  offset="0.63" style="stop-color:#40985D"/>
			<stop  offset="0.83" style="stop-color:#5AA453"/>
			<stop  offset="1" style="stop-color:#78B248"/>
		</linearGradient>
		<path class="st13" d="M1318,564.5c0,0-17.6-4.8-19.8,6.1c-0.7,3.2,3.2,4.2,10.4,4.4C1315.2,575.1,1338.8,568.6,1318,564.5z"/>
		<path class="st9" d="M1300.5,578.6c0,0,11.4,4,26.3-1.3c8-2.9,6.3-11.6-2-11.6S1292.8,572.6,1300.5,578.6z"/>
		
			<linearGradient id="SVGID_12_" gradientUnits="userSpaceOnUse" x1="1297.5487" y1="317.7432" x2="1334.9686" y2="333.3832" gradientTransform="matrix(1 0 0 -1 0 900)">
			<stop  offset="0" style="stop-color:#1F8969"/>
			<stop  offset="0.26" style="stop-color:#238B68"/>
			<stop  offset="0.5" style="stop-color:#2E9063"/>
			<stop  offset="0.72" style="stop-color:#40995C"/>
			<stop  offset="0.94" style="stop-color:#5AA551"/>
			<stop  offset="1" style="stop-color:#62A94E"/>
		</linearGradient>
		<path class="st14" d="M1299.8,579.5c0,0,11.7,4.2,26.9-1.3c8.2-2.9,6.4-11.9-2-11.9S1292,573.3,1299.8,579.5z"/>
		
			<linearGradient id="SVGID_13_" gradientUnits="userSpaceOnUse" x1="11590.1914" y1="194.8862" x2="11667.6914" y2="513.9762" gradientTransform="matrix(-0.75 0 0 -1 9880.7002 900)">
			<stop  offset="0" style="stop-color:#A3513F"/>
			<stop  offset="0.13" style="stop-color:#8E4C38"/>
			<stop  offset="0.41" style="stop-color:#573E27"/>
			<stop  offset="0.61" style="stop-color:#2C3319"/>
		</linearGradient>
		<path class="st15" d="M1182.9,472.9c0,0-17.6,11.5-17.3,28.1c0.1,2.9-0.2,11.9,5.8,15.8c4.1,2.7,9.2,1.6,9.9,1.5
			c9.3-2.2,14.9-13.7,20.4-24.9c4.5-9.2,6.5-16.4,11.8-17.2c0.6-0.1,2.7-0.4,4,0.8c4,3.8-2.9,19.2-10.5,30.1
			c-6,8.6-11.2,12.5-9.8,17.7c1,4,5.3,6.1,5.8,6.3c3.4,1.6,7.3,1.1,12.6-1.1c7.7-3.1,14.6-7.6,20.5-13.4
			c11.3-11.9,21.6-24.7,30.7-38.3l4.6,4.6l-8.5,14.4c1.1-1.8,6.1-9.7,15.8-11.8c3.2-0.7,6.6-0.7,9.9,0c-7,2.6-13.4,6.9-18.4,12.5
			c-6.7,7.6-7,13.5-13.8,24.3c-4.3,6.9-9.6,13-15.8,18.3c-15.9,13.2-37.2,12.8-48,11.8c-4.5,0.5-10.4,2.1-15.1,6.5
			c-9.3,9-7.3,24-4.7,42c4.4,29.5,17.9,65.3,24.3,72.7c5.9,6.9-70.5,16.4-91,10c-13.5-0.1-19.2-4.3-22.1-7.8
			c-16.9-20.9,31.8-66.3,17.9-118.3c-1.5-5.6-6.4-24.2-20.4-29.5c-8.2-3.2-12,1.2-23.6,0c-22.7-2.4-37.5-21.9-38.8-23.6
			c-11.5-15.7-14.9-38.2-14.9-38.2l0,0l9.8,1.4c0.5,4,3.2,24.8,18.9,32.9c1.9,1,10.4,5.4,15.7,1.8c7.4-5,2.9-22.1,2-23.7
			c-3.2-6.1-10.5-17.8-10.5-17.8l24.3,3c-1.2,14.8,4,27.8,14,33.2c1.3,0.7,8.9,4.9,14.9,1.8c7.3-3.7,10.4-17.1,4.7-32.6l9-3.3
			c0,0,5.5,51.8,13.7,57.1c14.2,9.2,24.8-22.2,21.1-53.9h10.5c0,0-6.8,34.7,1.6,22.3s16.9-15.6,16.9-15.6l0,0"/>
		<path class="st16" d="M981.2,434.1c0,0,19.8,5.3,107.9,6l-0.2-70.4c-2.1-0.6-17.2-4.1-55.4,7.7c-46.5,14.3-87.2,44.9-57.1,55.3"/>
		
			<linearGradient id="SVGID_14_" gradientUnits="userSpaceOnUse" x1="2878.9788" y1="434.9182" x2="2805.8391" y2="583.1782" gradientTransform="matrix(0.75 0 0 -1 -1106.6899 900)">
			<stop  offset="8.000000e-02" style="stop-color:#0D6C59"/>
			<stop  offset="0.76" style="stop-color:#2CB67D"/>
		</linearGradient>
		<path class="st17" d="M981.4,435.4c0,0,19.8,5.3,107.9,6l-0.1-70.4c-2.1-0.7-17.2-4.1-55.4,7.7c-46.5,14.3-87.2,44.9-57.1,55.3"/>
		
			<linearGradient id="SVGID_15_" gradientUnits="userSpaceOnUse" x1="11725.0264" y1="428.1126" x2="11822.2861" y2="529.1025" gradientTransform="matrix(-0.75 0 0 -1 9880.7002 900)">
			<stop  offset="0" style="stop-color:#0D5F3F"/>
			<stop  offset="0.16" style="stop-color:#07724A"/>
			<stop  offset="0.28" style="stop-color:#018455"/>
			<stop  offset="0.41" style="stop-color:#24995C"/>
			<stop  offset="0.56" style="stop-color:#43AC62"/>
			<stop  offset="0.68" style="stop-color:#56B766"/>
			<stop  offset="0.76" style="stop-color:#5DBB67"/>
		</linearGradient>
		<path class="st18" d="M991.7,422c8.7,12.5,14,19.7,52.8,19.6c38.8-0.1,83.1-19.3,43.8-43.2c0,0-17.8-8.9-45.9-8.8"/>
		<path class="st16" d="M1095.4,334.5c-74.4,22.3-82.7,45.9-80.7,61.4c0,0-0.2,21,77.1,42.2l0,0c0,0,45.3,17.4,129,8.3
			c25.4-2.8,67.3-13.7,73.1-38.2c4.3-18-13.2-36.4-19.5-43C1223,310.9,1120.5,329.4,1095.4,334.5z"/>
		
			<linearGradient id="SVGID_16_" gradientUnits="userSpaceOnUse" x1="11514.3643" y1="373.2777" x2="11752.3936" y2="640.1477" gradientTransform="matrix(-0.75 0 0 -1 9880.7002 900)">
			<stop  offset="0.16" style="stop-color:#176862"/>
			<stop  offset="0.32" style="stop-color:#18716A"/>
			<stop  offset="0.56" style="stop-color:#1C887F"/>
			<stop  offset="0.76" style="stop-color:#209F95"/>
		</linearGradient>
		<path class="st19" d="M1097.7,335c-74.8,22.3-82.3,49-80.8,61.2c0,0-0.2,20.9,77.1,42l0,0c0,0,45.3,17.3,129,8.2
			c25.4-2.8,67.3-13.7,73.1-38.1c4.3-18-13.2-36.2-19.4-42.9C1225.3,311.5,1122.9,329.9,1097.7,335z"/>
		<path class="st16" d="M1340.2,464.6c0,0,3.9-16.7-14-31.2c-10.1-8.2-41.5-30.3-75.2-7.6c-38.7,26-80.6,55.1-21.9,57.6
			S1334.1,486.5,1340.2,464.6z"/>
		
			<linearGradient id="SVGID_17_" gradientUnits="userSpaceOnUse" x1="11350.5264" y1="448.5211" x2="11537.127" y2="448.5211" gradientTransform="matrix(-0.75 0 0 -1 9880.7002 900)">
			<stop  offset="0" style="stop-color:#0D5E59"/>
			<stop  offset="0.25" style="stop-color:#0E655B"/>
			<stop  offset="0.48" style="stop-color:#10715E"/>
		</linearGradient>
		<path class="st20" d="M1340.2,465.8c0,0,3.9-16.7-14-31.2c-10.1-8.2-41.5-30.3-75.2-7.6c-38.7,26-80.6,55.1-21.9,57.6
			S1334.1,487.7,1340.2,465.8z"/>
		<path class="st16" d="M1197.4,481c-8.3,1.2-9.7,0.7-42.2,0.7c-6.9,0-36.3,0-95.3-1.9c-24.8-0.8-62.2-6.4-72.4-11.1
			c-3.4-1.6-10.2-5.3-10.4-15.6c-0.6-23.4,20-36.9,26.4-43.4c6-6.1,21.3-13.5,25.4-15.1c49.3-19.9,89.4-25.9,89.4-25.9
			c9.6-2.2,85.2-18.4,128.3,26.9c4,4.2,28.3,29.5,21.2,51.5C1259.5,472.3,1214.3,478.6,1197.4,481z"/>
		
			<linearGradient id="SVGID_18_" gradientUnits="userSpaceOnUse" x1="11614.8838" y1="376.3146" x2="11773.334" y2="583.1946" gradientTransform="matrix(-0.75 0 0 -1 9880.7002 900)">
			<stop  offset="4.000000e-02" style="stop-color:#0D6C59"/>
			<stop  offset="0.19" style="stop-color:#10735D"/>
			<stop  offset="0.41" style="stop-color:#198867"/>
			<stop  offset="0.67" style="stop-color:#27A977"/>
			<stop  offset="0.76" style="stop-color:#2CB67D"/>
		</linearGradient>
		<path class="st21" d="M1198.7,483.2c-8.3,1.2-9.7,0.7-42.2,0.7c-6.9,0-36.3,0-95.3-1.9c-24.8-0.8-62.2-6.4-72.4-11.1
			c-3.4-1.6-10.2-5.3-10.4-15.6c-0.5-23.4,20-36.9,26.4-43.4c6-6.1,21.3-13.5,25.3-15.1c49.3-19.9,89.4-25.9,89.4-25.9
			c9.6-2.2,85.2-18.4,128.3,26.9c4,4.2,28.3,29.5,21.2,51.5C1260.9,474.5,1215.6,480.8,1198.7,483.2z"/>
		<path class="st22" d="M1104.3,580c0,0-0.2,17.6-10.1,42.1s-19.8,41.9-10.3,53.8s53,9.9,53,9.9S1145.7,597.5,1104.3,580z"/>
		
			<linearGradient id="SVGID_19_" gradientUnits="userSpaceOnUse" x1="2935.7864" y1="209.0287" x2="3032.0964" y2="605.5687" gradientTransform="matrix(1 0 0 -1 0 900)">
			<stop  offset="0" style="stop-color:#A3513F"/>
			<stop  offset="0.13" style="stop-color:#8E4C38"/>
			<stop  offset="0.41" style="stop-color:#573E27"/>
			<stop  offset="0.61" style="stop-color:#2C3319"/>
		</linearGradient>
		<path class="st23" d="M2956.7,402.5c0,0,23.1,15.1,22.7,37c-0.1,3.8,0.2,15.6-7.6,20.7c-5.4,3.6-12,2.2-13,1.9
			c-12.3-2.8-19.6-17.9-26.7-32.7c-5.9-12.1-8.5-21.5-15.5-22.6c-0.8-0.1-3.5-0.5-5.2,1c-5.2,4.9,3.8,25.3,13.8,39.6
			c7.9,11.3,14.7,16.4,12.9,23.3c-1.4,5.3-7,8-7.5,8.3c-4.5,2.1-9.5,1.4-16.6-1.4c-10.1-4.1-19.2-10.1-26.9-17.7
			c-17.6-18.1-31.6-37.5-40.3-50.4l-6,6l11.3,19c-1.4-2.4-8-12.7-20.7-15.5c-4.3-0.9-8.7-0.9-12.9,0c9.3,3.4,17.5,9,24.1,16.4
			c8.7,10,9.1,17.8,18.1,31.9c5.7,9,12.6,17.1,20.7,24.1c20.8,17.3,48.8,16.9,62.9,15.5c5.9,0.7,13.7,2.7,19.8,8.6
			c12.2,11.8,9.6,31.6,6.1,55.2c-5.7,38.7-23.5,85.8-31.9,95.6c-7.8,9.1,92.4,21.5,119.4,13.2c17.6-0.1,25.2-5.7,28.9-10.2
			c22.2-27.4-41.7-87.2-23.5-155.5c2-7.4,8.4-31.8,26.7-38.8c10.8-4.1,15.7,1.6,31,0c29.7-3.1,49.2-28.8,50.8-31
			c15.1-20.6,19.5-50.2,19.5-50.2l0,0l-12.8,1.9c-0.6,5.2-4.2,32.6-24.8,43.2c-2.4,1.3-13.7,7-20.6,2.3c-9.7-6.6-3.8-29.1-2.7-31.2
			c4.1-8.1,13.8-23.4,13.8-23.4l-31.9,4c1.5,19.4-5.3,36.5-18.4,43.6c-1.7,1-11.7,6.4-19.6,2.3c-9.6-4.9-13.6-22.5-6.2-42.8
			l-11.8-4.3c0,0-7.2,68.1-18,75.1c-18.7,12.1-32.5-29.1-27.6-70.8h-13.8c0,0,9,45.6-2.1,29.3s-22.1-20.6-22.1-20.6l0,0"/>
		<path class="st16" d="M3221.2,351.5c0,0-25.9,7-141.5,7.9l0.2-92.5c2.7-0.9,22.5-5.4,72.7,10.1c60.9,18.8,114.3,59,74.9,72.7"/>
		
			<linearGradient id="SVGID_20_" gradientUnits="userSpaceOnUse" x1="11476.5635" y1="510.7869" x2="11394.124" y2="677.8869" gradientTransform="matrix(-1 0 0 -1 14594.8604 900)">
			<stop  offset="8.000000e-02" style="stop-color:#0D6C59"/>
			<stop  offset="0.76" style="stop-color:#2CB67D"/>
		</linearGradient>
		<path class="st24" d="M3220.9,353.2c0,0-25.9,7-141.5,7.9l0.2-92.5c2.7-0.9,22.5-5.4,72.7,10.1c60.9,18.8,114.4,59,74.9,72.7"/>
		
			<linearGradient id="SVGID_21_" gradientUnits="userSpaceOnUse" x1="3099.2527" y1="534.0675" x2="3196.1228" y2="634.6375" gradientTransform="matrix(1 0 0 -1 0 900)">
			<stop  offset="0" style="stop-color:#0D5F3F"/>
			<stop  offset="0.16" style="stop-color:#07724A"/>
			<stop  offset="0.28" style="stop-color:#018455"/>
			<stop  offset="0.41" style="stop-color:#24995C"/>
			<stop  offset="0.56" style="stop-color:#43AC62"/>
			<stop  offset="0.68" style="stop-color:#56B766"/>
			<stop  offset="0.76" style="stop-color:#5DBB67"/>
		</linearGradient>
		<path class="st25" d="M3207.4,335.6c-11.4,16.5-18.3,25.9-69.3,25.8s-109-25.3-57.5-56.8c0,0,23.4-11.7,60.2-11.5"/>
		<path class="st16" d="M3071.4,220.6c97.6,29.3,108.4,60.2,105.9,80.7c0,0,0.2,27.6-101.1,55.4l0,0c0,0-59.4,22.8-169.1,10.8
			c-33.3-3.6-88.2-18-95.8-50.3c-5.6-23.7,17.3-47.8,25.5-56.5C2904.1,189.7,3038.4,213.9,3071.4,220.6z"/>
		
			<linearGradient id="SVGID_22_" gradientUnits="userSpaceOnUse" x1="2885.3528" y1="483.5475" x2="3131.8228" y2="759.8675" gradientTransform="matrix(1 0 0 -1 0 900)">
			<stop  offset="0.16" style="stop-color:#176862"/>
			<stop  offset="0.32" style="stop-color:#18716A"/>
			<stop  offset="0.56" style="stop-color:#1C887F"/>
			<stop  offset="0.76" style="stop-color:#209F95"/>
		</linearGradient>
		<path class="st26" d="M3068.4,221.3c98.1,29.3,107.9,64.4,105.9,80.4c0,0,0.2,27.5-101.1,55.2l0,0c0,0-59.4,22.7-169.1,10.7
			c-33.3-3.6-88.2-18-95.9-50.1c-5.6-23.6,17.2-47.6,25.5-56.3C2901,190.4,3035.3,214.6,3068.4,221.3z"/>
		<path class="st16" d="M2750.3,391.6c0,0-5.1-21.9,18.4-41c13.3-10.7,54.4-39.8,98.6-10c50.8,34.2,105.7,72.5,28.8,75.7
			S2758.4,420.4,2750.3,391.6z"/>
		
			<linearGradient id="SVGID_23_" gradientUnits="userSpaceOnUse" x1="2749.8613" y1="525.6942" x2="2934.282" y2="525.6942" gradientTransform="matrix(1 0 0 -1 0 900)">
			<stop  offset="0" style="stop-color:#0D5E59"/>
			<stop  offset="0.25" style="stop-color:#0E655B"/>
			<stop  offset="0.48" style="stop-color:#10715E"/>
		</linearGradient>
		<path class="st27" d="M2750.3,393.1c0,0-5.1-21.9,18.4-41c13.3-10.7,54.4-39.8,98.6-10c50.8,34.2,105.7,72.5,28.8,75.7
			S2758.4,422,2750.3,393.1z"/>
		<path class="st16" d="M2937.6,413.1c10.9,1.5,12.8,1,55.3,0.9c9.1,0,47.6,0,125-2.5c32.6-1,81.6-8.5,95-14.6
			c4.4-2,13.3-7,13.7-20.5c0.7-30.7-26.2-48.4-34.7-57c-7.9-8-27.9-17.8-33.2-19.9c-64.7-26.1-117.3-34.1-117.3-34.1
			c-12.6-2.9-111.7-24.2-168.3,35.3c-5.2,5.5-37.2,38.7-27.8,67.6C2856.2,401.6,2915.5,410,2937.6,413.1z"/>
		
			<linearGradient id="SVGID_24_" gradientUnits="userSpaceOnUse" x1="2985.4038" y1="473.4365" x2="3150.0837" y2="688.4465" gradientTransform="matrix(1 0 0 -1 0 900)">
			<stop  offset="4.000000e-02" style="stop-color:#0D6C59"/>
			<stop  offset="0.19" style="stop-color:#10735D"/>
			<stop  offset="0.41" style="stop-color:#198867"/>
			<stop  offset="0.67" style="stop-color:#27A977"/>
			<stop  offset="0.76" style="stop-color:#2CB67D"/>
		</linearGradient>
		<path class="st28" d="M2935.9,416c10.9,1.5,12.8,1,55.3,0.9c9.1,0,47.6,0,125-2.5c32.6-1,81.6-8.5,95-14.6c4.5-2,13.4-7,13.7-20.5
			c0.7-30.7-26.2-48.4-34.7-57c-7.9-8-27.9-17.8-33.2-19.9c-64.7-26.1-117.3-34.1-117.3-34.1c-12.6-2.9-111.7-24.2-168.3,35.3
			c-5.2,5.5-37.2,38.7-27.8,67.6C2854.4,404.5,2913.8,412.9,2935.9,416z"/>
		<path class="st22" d="M3059.8,543.2c0,0,0.3,23.1,13.2,55.3s26,55.1,13.5,70.7s-69.5,13-69.5,13S3005.4,566.1,3059.8,543.2z"/>
		
			<linearGradient id="SVGID_25_" gradientUnits="userSpaceOnUse" x1="1392.3738" y1="164.1453" x2="2007.7336" y2="320.8353" gradientTransform="matrix(1 0 0 -1 0 900)">
			<stop  offset="0" style="stop-color:#1B8275"/>
			<stop  offset="0.77" style="stop-color:#179579"/>
		</linearGradient>
		<path class="st29" d="M1367,672.3c0,0,50.4-64.9,151.2-33.5c38.6-44.6,94.4-46.7,130.9-2c13.9-38.5,48.3-27.4,94.4,1.5
			c45-22.8,89-0.5,103,11.7c74-37.5,75.1,8.1,84.7,15.2c42.9-17.3,70.8,7.1,70.8,7.1L1367,672.3z"/>
		
			<linearGradient id="SVGID_26_" gradientUnits="userSpaceOnUse" x1="1993.5933" y1="157.7437" x2="2339.3831" y2="334.4636" gradientTransform="matrix(1 0 0 -1 0 900)">
			<stop  offset="0" style="stop-color:#137963"/>
			<stop  offset="0.77" style="stop-color:#2A8E63"/>
		</linearGradient>
		<path class="st30" d="M1934.7,674.6c0,0,41-31.9,74.4-15c20.3-15.9,31.5-15.5,64.3-4.9c-38.4-39.1,6.6,10.5-15-16.6
			s3.8-36.5,18.8,0c0,0,4,16.5,9.2,12.3c-4.9-19.9-1-2.5-5.6-23.7s8.7-41.5,12.9-10.8c1,31.1,2.1,34.2,2.1,34.2s11.7-0.1,10.9-12.6
			s-5-26.4-6.7-37.3s27.6-36.7,40.8,9.8c2.1,13.3,2.4,23.4,8.7,0.3c11.9-54.5,57.9-27.9,42.2,15c0,0,55.9-60.4,95-11.2
			c15.7,33.9-12.9,48.2-15.4,52.4c0,0,1.4,9.4,13.3-4.2c17.8-14.3,38.3,11.2,38.3,11.2L1934.7,674.6z"/>
		
			<linearGradient id="SVGID_27_" gradientUnits="userSpaceOnUse" x1="2773.5933" y1="153.7437" x2="3119.3831" y2="330.4637" gradientTransform="matrix(1 0 0 -1 0 900)">
			<stop  offset="0" style="stop-color:#137963"/>
			<stop  offset="0.77" style="stop-color:#2A8E63"/>
		</linearGradient>
		<path class="st31" d="M2714.7,678.6c0,0,41-31.9,74.4-15c20.3-15.9,31.5-15.5,64.3-4.9c-38.4-39.1,6.6,10.5-15-16.6
			s3.8-36.5,18.8,0c0,0,4,16.5,9.2,12.3c-4.9-19.9-1-2.5-5.6-23.7s8.7-41.5,12.9-10.8c1,31.1,2.1,34.2,2.1,34.2s11.7-0.1,10.9-12.6
			s-5-26.4-6.7-37.3s27.6-36.7,40.8,9.8c2.1,13.3,2.4,23.4,8.7,0.3c11.9-54.5,57.9-27.9,42.2,15c0,0,55.9-60.4,95-11.2
			c15.7,33.9-12.9,48.2-15.4,52.4c0,0,1.4,9.4,13.3-4.2c17.8-14.3,38.3,11.2,38.3,11.2L2714.7,678.6z"/>
		
			<linearGradient id="SVGID_28_" gradientUnits="userSpaceOnUse" x1="16365.8281" y1="126.6186" x2="16711.5781" y2="303.3186" gradientTransform="matrix(-0.74 0 0 -1 15382.1104 900)">
			<stop  offset="0" style="stop-color:#137963"/>
			<stop  offset="0.77" style="stop-color:#2A8E63"/>
		</linearGradient>
		<path class="st32" d="M3274,676.6c0,0-30.5-30.3-55.4-14.2c-15.1-15.1-23.4-14.7-47.9-4.7c28.6-37.2-4.9,10,11.2-15.8
			s-2.8-34.7-13.9,0c0,0-3,15.6-6.9,11.6c3.6-18.9,0.8-2.3,4.2-22.5s-6.5-39.5-9.6-10.3c-0.8,29.5-1.6,32.5-1.6,32.5
			s-8.7-0.1-8.1-12s3.7-25.1,5-35.4s-20.5-34.8-30.4,9.3c-1.6,12.6-1.8,22.2-6.5,0.3c-8.8-51.7-43.1-26.5-31.4,14.3
			c0,0-41.6-57.3-70.7-10.6c-11.7,32.2,9.6,45.7,11.4,49.7c0,0-1,9-9.9-4c-13.3-13.6-28.5,10.6-28.5,10.6L3274,676.6z"/>
		<path class="st33" d="M1962.3,677.1c0,0,13.3-13.5,16.8-12.2s-3.6-11.9-14.3,2.9C1960.5,673.7,1962.3,677.1,1962.3,677.1z"/>
		<path class="st33" d="M1959.4,677.1c0,0,5.6-30.8,11.6-34s-9.5-7.9-12.7,12.9C1956.2,670.3,1959.4,677.1,1959.4,677.1z"/>
		<path class="st33" d="M1957.6,677.1c0,0-6.4-21.9-19.3-22.8s19.3,24,19.3,24"/>
		<path class="st34" d="M1825.2,674.7c0,0-13.3-5.4-16.8-4.9s3.6-4.8,14.3,1.2C1827,673.4,1825.2,674.7,1825.2,674.7z"/>
		<path class="st34" d="M1828.1,674.7c0,0-5.6-12.4-11.6-13.7s9.5-3.2,12.7,5.2C1831.3,672,1828.1,674.7,1828.1,674.7z"/>
		<path class="st34" d="M1829.9,674.7c4.8-5.7,11.9-9.1,19.3-9.2c12.9-0.3-19.3,9.7-19.3,9.7"/>
		<path class="st34" d="M329.8,677.8c0,0-18.5-16-23.5-14.5s5.1-14.1,20,3.4C332.3,673.8,329.8,677.8,329.8,677.8z"/>
		<path class="st34" d="M333.8,677.8c0,0-7.8-36.5-16.1-40.3s13.3-9.4,17.6,15.3C338.3,669.8,333.8,677.8,333.8,677.8z"/>
		<path class="st34" d="M336.3,677.8c0,0,9-26,27-27s-27,28.5-27,28.5"/>
		<path class="st33" d="M1581.8,674.8c0,0-18.5-16-23.5-14.5s5.1-14.1,20,3.4C1584.3,670.8,1581.8,674.8,1581.8,674.8z"/>
		<path class="st33" d="M1585.8,674.8c0,0-7.8-36.5-16.1-40.3s13.3-9.4,17.6,15.3C1590.3,666.8,1585.8,674.8,1585.8,674.8z"/>
		<path class="st33" d="M1588.3,674.8c0,0,9-26,27-27s-27,28.5-27,28.5"/>
		<path class="st34" d="M398.8,676c0,0-18.5-9.2-23.5-8.4s5.1-8.2,20,2C401.3,673.7,398.8,676,398.8,676z"/>
		<path class="st34" d="M402.8,676c0,0-7.8-21-16.1-23.2s13.3-5.4,17.6,8.8C407.3,671.3,402.8,676,402.8,676z"/>
		<path class="st34" d="M405.3,676c0,0,9-15,27-15.6s-27,16.4-27,16.4"/>
		<path class="st35" d="M810.8,675c0,0-18.5-9.2-23.5-8.4s5.1-8.2,20,2C813.3,672.7,810.8,675,810.8,675z"/>
		<path class="st35" d="M814.8,675c0,0-7.8-21-16.1-23.2s13.3-5.4,17.6,8.8C819.3,670.3,814.8,675,814.8,675z"/>
		<path class="st35" d="M817.3,675c0,0,9-15,27-15.6s-27,16.4-27,16.4"/>
		
			<linearGradient id="SVGID_29_" gradientUnits="userSpaceOnUse" x1="-432" y1="159.3931" x2="2265" y2="159.3931" gradientTransform="matrix(1 0 0 -1 0 900)">
			<stop  offset="0" style="stop-color:#0D5F3F"/>
			<stop  offset="7.000000e-02" style="stop-color:#206C39"/>
			<stop  offset="0.18" style="stop-color:#43842D"/>
			<stop  offset="0.34" style="stop-color:#4D832B"/>
			<stop  offset="0.63" style="stop-color:#698124"/>
			<stop  offset="0.96" style="stop-color:#917D1A"/>
		</linearGradient>
		<path class="st36" d="M2265,732.3l-3-60H-432l1.9,38.2l-0.9,94.8c0,0,116-4,648-18s786,10,894,18s306,3.4,272-22.3
			s86-23.7,189-17.7s250.2-15.6,437.6-3.8s253.4,13.8,253.4,13.8v-43H2265z"/>
		
			<linearGradient id="SVGID_30_" gradientUnits="userSpaceOnUse" x1="-154.3806" y1="419.5506" x2="-14.5606" y2="559.4706" gradientTransform="matrix(1 0 0 -1 0 900)">
			<stop  offset="0.23" style="stop-color:#91BCE1"/>
			<stop  offset="1" style="stop-color:#D7EEF4"/>
		</linearGradient>
		<path class="st37" d="M-159.1,400.5c0,0,2.9-17.6,39.8-29.7s68-18.5,100.1-4.6s25.3,45.4,18.5,49.1c-13.2,7.2-41.7,16.7-117.6,7.4
			C-163.9,417.2-159.1,400.5-159.1,400.5z"/>
		
			<linearGradient id="SVGID_31_" gradientUnits="userSpaceOnUse" x1="630.076" y1="657.634" x2="763.566" y2="791.2241" gradientTransform="matrix(1 0 0 -1 0 900)">
			<stop  offset="0.23" style="stop-color:#91BCE1"/>
			<stop  offset="1" style="stop-color:#D7EEF4"/>
		</linearGradient>
		<path class="st38" d="M622.9,165.4c0,0,2.9-13,39.8-21.9s68-13.7,100.1-3.4s25.3,33.5,18.5,36.2c-13.2,5.3-41.7,12.3-117.6,5.5
			C618.1,177.7,622.9,165.4,622.9,165.4z"/>
		
			<linearGradient id="SVGID_32_" gradientUnits="userSpaceOnUse" x1="730.7803" y1="670.0597" x2="806.3104" y2="745.6396" gradientTransform="matrix(1 0 0 -1 0 900)">
			<stop  offset="0.23" style="stop-color:#91BCE1"/>
			<stop  offset="1" style="stop-color:#D7EEF4"/>
		</linearGradient>
		<path class="st39" d="M730.9,187.5c0,0,1.5-12.2,20-20.6s34.1-12.8,50.1-3.2s12.7,31.5,9.3,34c-6.6,5-20.9,11.6-58.9,5.1
			C728.4,199.1,730.9,187.5,730.9,187.5z"/>
		
			<linearGradient id="SVGID_33_" gradientUnits="userSpaceOnUse" x1="-45.8032" y1="434.2632" x2="53.1668" y2="533.3032" gradientTransform="matrix(1 0 0 -1 0 900)">
			<stop  offset="0.23" style="stop-color:#91BCE1"/>
			<stop  offset="1" style="stop-color:#D7EEF4"/>
		</linearGradient>
		<path class="st40" d="M-49.1,409.1c0,0,2.1-12.5,28.2-21s48.2-13.1,70.8-3.3S67.8,417,63,419.6c-9.3,5.1-29.5,11.8-83.2,5.3
			C-52.5,421-49.1,409.1-49.1,409.1z"/>
		
			<linearGradient id="SVGID_34_" gradientUnits="userSpaceOnUse" x1="1091.4963" y1="3406.7583" x2="1290.8262" y2="3606.2185" gradientTransform="matrix(0.96 -6.000000e-02 -3.000000e-02 -0.5 111.29 1953.17)">
			<stop  offset="0.42" style="stop-color:#8EB7DD"/>
			<stop  offset="0.43" style="stop-color:#90B9DE"/>
			<stop  offset="0.68" style="stop-color:#B9DBF0"/>
			<stop  offset="0.88" style="stop-color:#D2F0FB"/>
			<stop  offset="1" style="stop-color:#DBF8FF"/>
		</linearGradient>
		<path class="st41" d="M1054.2,130.5c0,0,7.8-13.6,56.6-21.7s80.4-12.1,106.3,0.8s10.9,34.9-8.2,37.7s-98.2,5.3-145.1-3.3
			C1063.7,144.1,1047,140.1,1054.2,130.5z"/>
		
			<linearGradient id="SVGID_35_" gradientUnits="userSpaceOnUse" x1="-2191.54" y1="3406.5081" x2="-2051.01" y2="3547.1382" gradientTransform="matrix(0.57 -4.000000e-02 -3.000000e-02 -0.5 2534.1802 1807.91)">
			<stop  offset="0.42" style="stop-color:#8EB7DD"/>
			<stop  offset="0.43" style="stop-color:#90B9DE"/>
			<stop  offset="0.68" style="stop-color:#B9DBF0"/>
			<stop  offset="0.88" style="stop-color:#D2F0FB"/>
			<stop  offset="1" style="stop-color:#DBF8FF"/>
		</linearGradient>
		<path class="st42" d="M1182.3,152.7c0,0,3-9.4,23.2-14.3s33.3-7.1,44.4,2.5s5.2,24.8-2.8,26.4s-40.9,1.9-60.7-5
			C1186.5,162.4,1179.5,159.3,1182.3,152.7z"/>
		
			<linearGradient id="SVGID_36_" gradientUnits="userSpaceOnUse" x1="1552.3478" y1="1631.2905" x2="1711.9678" y2="1791.0205" gradientTransform="matrix(0.98 -3.000000e-02 -1.000000e-02 -0.48 13.81 1129.33)">
			<stop  offset="0.43" style="stop-color:#8EB7DD"/>
			<stop  offset="0.45" style="stop-color:#90B9DE"/>
			<stop  offset="0.69" style="stop-color:#B9DBF0"/>
			<stop  offset="0.88" style="stop-color:#D2F0FB"/>
			<stop  offset="1" style="stop-color:#DBF8FF"/>
		</linearGradient>
		<path class="st43" d="M1507.6,253.8c0,0,8.4-12.8,58-19s81.7-9.1,107.5,4.1s9.8,33.8-9.7,35.8s-99.5,2-146.6-7.7
			C1516.7,267,1500,262.7,1507.6,253.8z"/>
		
			<linearGradient id="SVGID_37_" gradientUnits="userSpaceOnUse" x1="2188.6194" y1="627.5506" x2="2328.4392" y2="767.4706" gradientTransform="matrix(1 0 0 -1 0 900)">
			<stop  offset="0.23" style="stop-color:#91BCE1"/>
			<stop  offset="1" style="stop-color:#D7EEF4"/>
		</linearGradient>
		<path class="st44" d="M2183.9,192.5c0,0,2.9-17.6,39.9-29.7s68-18.6,100.1-4.6s25.3,45.4,18.5,49.1c-13.2,7.2-41.7,16.7-117.6,7.4
			C2179.1,209.2,2183.9,192.5,2183.9,192.5z"/>
		
			<linearGradient id="SVGID_38_" gradientUnits="userSpaceOnUse" x1="2297.1968" y1="642.2632" x2="2396.1667" y2="741.3032" gradientTransform="matrix(1 0 0 -1 0 900)">
			<stop  offset="0.23" style="stop-color:#91BCE1"/>
			<stop  offset="1" style="stop-color:#D7EEF4"/>
		</linearGradient>
		<path class="st45" d="M2293.9,201.1c0,0,2.1-12.5,28.2-21s48.1-13.1,70.9-3.3s17.9,32.1,13.1,34.8c-9.3,5.1-29.5,11.8-83.2,5.3
			C2290.4,213,2293.9,201.1,2293.9,201.1z"/>
		
			<linearGradient id="SVGID_39_" gradientUnits="userSpaceOnUse" x1="3389.4036" y1="3084.9619" x2="3588.7336" y2="3284.4319" gradientTransform="matrix(0.96 -6.000000e-02 -3.000000e-02 -0.5 111.29 1953.17)">
			<stop  offset="0.42" style="stop-color:#8EB7DD"/>
			<stop  offset="0.43" style="stop-color:#90B9DE"/>
			<stop  offset="0.68" style="stop-color:#B9DBF0"/>
			<stop  offset="0.88" style="stop-color:#D2F0FB"/>
			<stop  offset="1" style="stop-color:#DBF8FF"/>
		</linearGradient>
		<path class="st46" d="M3273.1,151.5c0,0,7.8-13.6,56.6-21.7s80.4-12.1,106.3,0.8s10.9,34.9-8.2,37.7s-98.2,5.3-145.1-3.3
			C3282.7,165.1,3266,161.1,3273.1,151.5z"/>
		
			<linearGradient id="SVGID_40_" gradientUnits="userSpaceOnUse" x1="1723.5249" y1="3097.0603" x2="1864.0547" y2="3237.6904" gradientTransform="matrix(0.57 -4.000000e-02 -3.000000e-02 -0.5 2534.1802 1807.91)">
			<stop  offset="0.42" style="stop-color:#8EB7DD"/>
			<stop  offset="0.43" style="stop-color:#90B9DE"/>
			<stop  offset="0.68" style="stop-color:#B9DBF0"/>
			<stop  offset="0.88" style="stop-color:#D2F0FB"/>
			<stop  offset="1" style="stop-color:#DBF8FF"/>
		</linearGradient>
		<path class="st47" d="M3411.3,162.7c0,0,3-9.4,23.2-14.3s33.3-7.1,44.4,2.5s5.2,24.8-2.8,26.4s-40.9,1.9-60.7-5
			C3415.5,172.4,3408.5,169.3,3411.3,162.7z"/>
		
			<linearGradient id="SVGID_41_" gradientUnits="userSpaceOnUse" x1="1834.6669" y1="644.1848" x2="1994.287" y2="803.9148" gradientTransform="matrix(0.69 -2.000000e-02 -2.000000e-02 -0.53 2633.3999 836.89)">
			<stop  offset="0.43" style="stop-color:#8EB7DD"/>
			<stop  offset="0.45" style="stop-color:#90B9DE"/>
			<stop  offset="0.69" style="stop-color:#B9DBF0"/>
			<stop  offset="0.88" style="stop-color:#D2F0FB"/>
			<stop  offset="1" style="stop-color:#DBF8FF"/>
		</linearGradient>
		<path class="st48" d="M3880,405.9c0,0,5.8-13.9,40.8-20.2s57.6-9.1,76,5.7s7.3,37.2-6.4,39.2s-70.3,1.1-103.7-10.1
			C3886.6,420.5,3874.8,415.5,3880,405.9z"/>
		
			<linearGradient id="SVGID_42_" gradientUnits="userSpaceOnUse" x1="4393.3955" y1="648.1348" x2="4530.4556" y2="785.2948" gradientTransform="matrix(1 0 0 -1 0 900)">
			<stop  offset="0.57" style="stop-color:#8EB7DD"/>
			<stop  offset="0.57" style="stop-color:#90B9DE"/>
			<stop  offset="0.75" style="stop-color:#B9DBF0"/>
			<stop  offset="0.89" style="stop-color:#D2F0FB"/>
			<stop  offset="0.98" style="stop-color:#DBF8FF"/>
		</linearGradient>
		<path class="st49" d="M4388,173.2c0,0,2.9-16.2,39.6-27.3s67.6-17.1,99.5-4.3s25.1,41.8,18.4,45.2c-13.1,6.6-41.4,15.3-116.9,6.8
			C4383.1,188.6,4388,173.2,4388,173.2z"/>
		
			<linearGradient id="SVGID_43_" gradientUnits="userSpaceOnUse" x1="17438.6523" y1="159.3931" x2="21680.4434" y2="159.3931" gradientTransform="matrix(-0.67 0 0 -1 16777.0996 900)">
			<stop  offset="0" style="stop-color:#0D5F3F"/>
			<stop  offset="7.000000e-02" style="stop-color:#206C39"/>
			<stop  offset="0.18" style="stop-color:#43842D"/>
			<stop  offset="0.34" style="stop-color:#4D832B"/>
			<stop  offset="0.63" style="stop-color:#698124"/>
			<stop  offset="0.96" style="stop-color:#917D1A"/>
		</linearGradient>
		<path class="st50" d="M2256,732.3l3.2-60H5098l-2,38.2l1,94.8c0,0-122.2-4-682.8-18s-828.3,10-942.1,18s-322.5,3.4-286.6-22.3
			s-90.6-23.7-199.2-17.7s-263.6-15.6-461.1-3.8s-267,13.8-267,13.8v-43H2256z"/>
		
			<linearGradient id="SVGID_44_" gradientUnits="userSpaceOnUse" x1="19068.8555" y1="906.6186" x2="19192.625" y2="1416.1886" gradientTransform="matrix(-0.96 8.000000e-02 -9.000000e-02 -1 22728 -24.62)">
			<stop  offset="0" style="stop-color:#A3513F"/>
			<stop  offset="0.13" style="stop-color:#8E4C38"/>
			<stop  offset="0.41" style="stop-color:#573E27"/>
			<stop  offset="0.61" style="stop-color:#2C3319"/>
		</linearGradient>
		<path class="st51" d="M4300.3,283.9c0,0-26.8,21.8-23.8,49.7c0.5,4.9,1.5,20,11.6,25.7c7.1,4,15,1.5,16.2,1.1
			c14.8-4.9,22.1-25.1,29.2-44.8c5.9-16.1,8.1-28.5,16.5-30.6c1-0.3,4.3-1.1,6.5,0.8c6.9,5.8-1.8,32.7-12.5,52.2
			c-8.4,15.3-16.3,22.6-13.3,31.1c2.3,6.7,9.5,9.5,10.2,9.8c5.8,2.2,11.9,0.8,20.2-3.5c12-6.3,22.6-15,31.2-25.5
			c19.6-25.1,34.7-51.4,43.9-68.8l8.1,7.1c-3.9,8.5-7.8,17-11.7,25.5c1.5-3.2,8.4-17.1,23.7-22.1c5.1-1.6,10.6-2.1,15.9-1.4
			c-11.1,5.4-20.7,13.5-27.9,23.5c-9.6,13.7-9.3,23.7-18.7,42.7c-7,14.2-15.9,26.1-22.8,33.1c-23.7,24.4-58.2,26.8-75.7,26.6
			c-7.1,1.5-16.5,4.9-23.4,13.1c-13.8,16.4-8.3,41.5-1.4,71.3c11.3,49,38.5,107.4,49.9,118.9c10.6,10.8-111.4,37.4-145.5,29.7
			c-21.7,1.7-31.7-4.6-36.7-10c-30.4-32.7,41.6-116.1,11.7-201.5c-3.2-9.2-13.9-39.7-37.2-46.8c-13.7-4.1-19.2,3.7-38.2,3.3
			c-37-0.8-63.7-31.6-66-34.3c-20.9-24.8-29.6-62.2-29.6-62.2l0,0l16,1c1.3,6.6,8.8,41.3,35.3,52.6c3.1,1.4,17.6,7.6,25.6,0.8
			c11.2-9.5,1.4-37.6-0.2-40.2c-6-9.9-19.6-28.5-19.6-28.5l39.7,1.7c0.3,25,10.6,46.2,27.4,53.9c2.3,1,15.1,6.9,24.4,0.9
			c11.2-7.3,14.3-30.2,2.8-55.5l14-6.8c0,0,16.4,86.4,30.5,94.2c24.3,13.5,36.7-40.8,26.1-93.6l17-1.5c0,0-6,59.3,5.8,37.3
			s24.9-28.7,24.9-28.7l0,0"/>
		<path class="st16" d="M3956,220c0,0,32.7,6.2,175-5.1l-10.5-118.4c-3.4-0.8-28.3-4.5-88.4,20.7c-72.9,30.6-134.1,87.8-84.1,101.1"
			/>
		
			<linearGradient id="SVGID_45_" gradientUnits="userSpaceOnUse" x1="-4735.4731" y1="1318.887" x2="-4841.4131" y2="1533.6271" gradientTransform="matrix(0.96 -8.000000e-02 -9.000000e-02 -1 8741.5996 1180)">
			<stop  offset="8.000000e-02" style="stop-color:#0D6C59"/>
			<stop  offset="0.76" style="stop-color:#2CB67D"/>
		</linearGradient>
		<path class="st52" d="M3956.6,222.2c0,0,32.7,6.2,175-5.1l-10.5-118.4c-3.4-0.8-28.3-4.5-88.4,20.7
			c-72.9,30.6-134.2,87.8-84.1,101.1"/>
		
			<linearGradient id="SVGID_46_" gradientUnits="userSpaceOnUse" x1="-7834.9492" y1="3662.9268" x2="-7940.8892" y2="3877.6667" gradientTransform="matrix(0.69 -6.000000e-02 -5.000000e-02 -0.59 9563.3301 1978.3199)">
			<stop  offset="8.000000e-02" style="stop-color:#0D6C59"/>
			<stop  offset="0.76" style="stop-color:#2CB67D"/>
		</linearGradient>
		<path class="st53" d="M3885.1,273.9c0,0,23.5,3.3,126-5l-6.1-69.6c-2.5-0.4-20.3-2.3-63.8,13.2c-52.8,18.9-97.6,53.3-61.7,60.5"/>
		
			<linearGradient id="SVGID_47_" gradientUnits="userSpaceOnUse" x1="-14855.4268" y1="5302.9946" x2="-14961.3662" y2="5517.7344" gradientTransform="matrix(0.42 -4.000000e-02 -4.000000e-02 -0.45 10389.2002 2193.9099)">
			<stop  offset="8.000000e-02" style="stop-color:#0D6C59"/>
			<stop  offset="0.76" style="stop-color:#2CB67D"/>
		</linearGradient>
		<path class="st54" d="M3833.2,321.3c0,0,14.5,2.9,77.6-2.1l15.2-52.8c-1.5-0.4-32.6-3.3-59.2,8.1c-32.3,13.9-59.4,39.9-37.2,46"/>
		
			<linearGradient id="SVGID_48_" gradientUnits="userSpaceOnUse" x1="19307.5703" y1="1309.1439" x2="19432.0391" y2="1438.3839" gradientTransform="matrix(-0.96 8.000000e-02 -9.000000e-02 -1 22728 -24.62)">
			<stop  offset="0" style="stop-color:#0D5F3F"/>
			<stop  offset="0.16" style="stop-color:#07724A"/>
			<stop  offset="0.28" style="stop-color:#018455"/>
			<stop  offset="0.41" style="stop-color:#24995C"/>
			<stop  offset="0.56" style="stop-color:#43AC62"/>
			<stop  offset="0.68" style="stop-color:#56B766"/>
			<stop  offset="0.76" style="stop-color:#5DBB67"/>
		</linearGradient>
		<path class="st55" d="M3984.2,225.1c15.8,19.9,25.4,31.2,88.1,25.6s131.3-44.1,64.5-78.8c0,0-30.1-12.5-75.4-8.3"/>
		<path class="st16" d="M4138.8,63.4c-116.9,47.9-126.8,88.7-121.3,114.6c0,0,2.8,35.3,130.6,60.2l0,0c0,0,75.7,22.8,209.4-4.2
			c40.6-8.2,106.6-32.5,112.4-74.6c4.2-30.9-26.6-59.3-37.8-69.7C4341.2,5.8,4178.6,51.2,4138.8,63.4z"/>
		
			<linearGradient id="SVGID_49_" gradientUnits="userSpaceOnUse" x1="19031.207" y1="1246.3651" x2="19347.9277" y2="1601.4551" gradientTransform="matrix(-0.96 8.000000e-02 -9.000000e-02 -1 22728 -24.62)">
			<stop  offset="0.16" style="stop-color:#176862"/>
			<stop  offset="0.32" style="stop-color:#18716A"/>
			<stop  offset="0.56" style="stop-color:#1C887F"/>
			<stop  offset="0.76" style="stop-color:#209F95"/>
		</linearGradient>
		<path class="st56" d="M4142.6,63.9c-117.5,48.1-125.6,94-121.4,114.3c0,0,2.8,35.2,130.5,59.8l0,0c0,0,75.6,22.7,209.4-4.4
			c40.6-8.2,106.6-32.5,112.4-74.4c4.3-30.8-26.5-59.1-37.7-69.4C4345.1,6.4,4182.5,51.8,4142.6,63.9z"/>
		<path class="st16" d="M4553,247.9c0,0,3.9-28.6-27.2-50.4c-17.5-12.3-71.3-45.1-122.5-2.2c-58.7,49.3-122,104.1-27,100
			S4546.3,285.6,4553,247.9z"/>
		
			<linearGradient id="SVGID_50_" gradientUnits="userSpaceOnUse" x1="18847.2012" y1="1254.5536" x2="19084.1914" y2="1254.5536" gradientTransform="matrix(-0.96 8.000000e-02 -9.000000e-02 -1 22728 -24.62)">
			<stop  offset="0" style="stop-color:#0D5E59"/>
			<stop  offset="0.25" style="stop-color:#0E655B"/>
			<stop  offset="0.48" style="stop-color:#10715E"/>
		</linearGradient>
		<path class="st57" d="M4553.2,249.9c0,0,3.9-28.6-27.2-50.4c-17.5-12.3-71.4-45.1-122.5-2.2c-58.7,49.3-122,104.1-27,100
			S4546.5,287.6,4553.2,249.9z"/>
		<path class="st16" d="M4324.9,295.4c-13.3,3.1-15.6,2.6-68,7.1c-11.1,1-58.5,5.1-154.1,10.2c-40.2,2.2-101.4-2.1-118.5-8.5
			c-5.7-2.2-17.2-7.5-19.1-24.7c-4.3-39.3,26.8-64.8,36.3-76.7c8.8-11.1,32.4-25.7,38.7-29c76.7-40.4,140.5-56.2,140.5-56.2
			c15.2-5,134.8-43,211,27.2c7,6.4,50,45.6,41.8,83.6C4423.9,272.1,4351.7,289.1,4324.9,295.4z"/>
		
			<linearGradient id="SVGID_51_" gradientUnits="userSpaceOnUse" x1="19156.6172" y1="1237.0365" x2="19368.2383" y2="1513.3364" gradientTransform="matrix(-0.96 8.000000e-02 -9.000000e-02 -1 22728 -24.62)">
			<stop  offset="4.000000e-02" style="stop-color:#0D6C59"/>
			<stop  offset="0.19" style="stop-color:#10735D"/>
			<stop  offset="0.41" style="stop-color:#198867"/>
			<stop  offset="0.67" style="stop-color:#27A977"/>
			<stop  offset="0.76" style="stop-color:#2CB67D"/>
		</linearGradient>
		<path class="st58" d="M4327.3,299c-13.3,3.1-15.6,2.6-68,7.1c-11.1,1-58.5,5.1-154.1,10.3c-40.2,2.2-101.4-2.1-118.5-8.5
			c-5.7-2.1-17.2-7.5-19.1-24.7c-4.3-39.3,26.8-64.8,36.3-76.7c8.8-11.1,32.4-25.7,38.7-29c76.7-40.5,140.5-56.3,140.5-56.3
			c15.2-5,134.8-42.9,211,27.2c7,6.4,50,45.6,41.8,83.6C4426.3,275.6,4354.2,292.6,4327.3,299z"/>
		
			<linearGradient id="SVGID_52_" gradientUnits="userSpaceOnUse" x1="33014.8047" y1="5609.7598" x2="33226.4141" y2="5886.0493" gradientTransform="matrix(-0.35 3.000000e-02 -4.000000e-02 -0.44 15741.0498 1755.15)">
			<stop  offset="4.000000e-02" style="stop-color:#0D6C59"/>
			<stop  offset="0.19" style="stop-color:#10735D"/>
			<stop  offset="0.41" style="stop-color:#198867"/>
			<stop  offset="0.67" style="stop-color:#27A977"/>
			<stop  offset="0.76" style="stop-color:#2CB67D"/>
		</linearGradient>
		<path class="st59" d="M4022.7,323.2c-4.8,1.3-5.7,1-24.7,2.7c-4,0.4-21.3,1.8-56,3.5c-14.6,0.7-36.9-1.6-43.2-4.5
			c-2.1-1-6.3-3.4-7.1-11c-1.8-17.2,9.3-28.2,12.7-33.3c3.1-4.8,11.6-11,13.9-12.5c27.6-17.2,50.8-23.7,50.8-23.7
			c5.5-2.1,48.8-17.9,76.9,13.3c2.6,2.9,18.5,20.3,15.7,36.9C4058.5,313.6,4032.4,320.6,4022.7,323.2z"/>
		<path class="st22" d="M4189.1,475.1c0,0,2.3,29.6-10.1,72.2s-25.8,73.3-8.8,91.9s87,9.2,87,9.2S4258.5,498.7,4189.1,475.1z"/>
		
			<linearGradient id="SVGID_53_" gradientUnits="userSpaceOnUse" x1="3903.8562" y1="84.9788" x2="4469.7173" y2="366.5794" gradientTransform="matrix(1 0 0 -1 0 900)">
			<stop  offset="1.000000e-02" style="stop-color:#1C6C54"/>
			<stop  offset="0.77" style="stop-color:#4E8846"/>
		</linearGradient>
		<path class="st60" d="M4540,674.7c-18.3-18.9-89.8-55.6-119.9-30.1c-30.1-29.1-62.5-8.2-62.5-8.2c15-10.7,4.2-58.2-34.8-53.6
			c1.9-26.5-20.2-46.4-58.3-24.5c12.4-27-17.6-25-17.6-25s-20,5.1-9.6,25c-55.8-21.9-88.1-2-85.4,24.5c-57.1-4.6-73,42.9-50.9,53.6
			c0,0-47.5-20.9-91.6,8.2c-44.1-25.5-148.7,11.2-175.5,30.1l407.6,1v-0.4L4540,674.7z"/>
	</g>
</g>
</svg>
