<?xml version="1.0" encoding="utf-8"?>
<!-- Generator: Adobe Illustrator 25.2.3, SVG Export Plug-In . SVG Version: 6.00 Build 0)  -->
<svg version="1.1" id="Layer_1" xmlns="http://www.w3.org/2000/svg" xmlns:xlink="http://www.w3.org/1999/xlink" x="0px" y="0px"
	 viewBox="0 0 1600 900" style="enable-background:new 0 0 1600 900;" xml:space="preserve">
<style type="text/css">
	.st0{clip-path:url(#SVGID_2_);}
	.st1{fill:url(#SVGID_3_);}
	.st2{opacity:0.3;fill:url(#SVGID_4_);enable-background:new    ;}
	.st3{opacity:6.000000e-02;fill:url(#SVGID_5_);enable-background:new    ;}
	.st4{opacity:0.66;fill:#FFA7AC;enable-background:new    ;}
	.st5{opacity:0.29;fill:#FF82AD;enable-background:new    ;}
	.st6{fill:url(#SVGID_6_);}
	.st7{fill:url(#SVGID_7_);}
	.st8{fill:url(#SVGID_8_);}
	.st9{fill:url(#SVGID_9_);}
	.st10{opacity:6.000000e-02;fill:#CA707C;enable-background:new    ;}
	.st11{fill:url(#SVGID_10_);}
	.st12{opacity:0.15;fill:#CA707C;enable-background:new    ;}
	.st13{opacity:0.54;fill:#CA707C;enable-background:new    ;}
	.st14{fill:url(#SVGID_11_);}
	.st15{opacity:0.53;fill:#CA707C;enable-background:new    ;}
	.st16{fill:url(#SVGID_12_);}
	.st17{opacity:0.74;fill:#FFFFFF;enable-background:new    ;}
	.st18{opacity:0.53;fill:#FFFFFF;enable-background:new    ;}
	.st19{fill:url(#SVGID_13_);}
	.st20{opacity:0.49;fill:url(#SVGID_14_);enable-background:new    ;}
	.st21{fill:#7769A7;}
	.st22{opacity:0.27;}
	.st23{fill:#9F71A9;}
	.st24{fill:#3BAA6E;}
	.st25{fill:#A0C55C;}
	.st26{fill:#328F65;}
	.st27{opacity:0.39;}
	.st28{fill:#FFF28F;}
	.st29{opacity:0.25;}
	.st30{fill:#3C9A6E;}
	.st31{fill:#008847;}
	.st32{opacity:0.49;}
	.st33{fill:#59B54C;}
	.st34{fill:none;}
	.st35{opacity:0.25;fill:#3C9A6E;enable-background:new    ;}
	.st36{opacity:0.39;fill:#FFF28F;enable-background:new    ;}
	.st37{opacity:0.32;}
	.st38{opacity:0.4;}
	.st39{fill:#E8C482;}
	.st40{opacity:0.57;}
	.st41{opacity:0.39;fill:#E8C482;enable-background:new    ;}
	.st42{opacity:0.36;}
	.st43{fill:#FFFFFF;}
	.st44{opacity:0.25;fill:#FFFFFF;enable-background:new    ;}
	.st45{fill:#E5AF7B;}
	.st46{opacity:0.73;}
</style>
<g>
	<defs>
		<rect id="SVGID_1_" width="1600" height="900"/>
	</defs>
	<clipPath id="SVGID_2_">
		<use xlink:href="#SVGID_1_"  style="overflow:visible;"/>
	</clipPath>
	<g class="st0">
		
			<linearGradient id="SVGID_3_" gradientUnits="userSpaceOnUse" x1="800.075" y1="275.39" x2="800.075" y2="985.1799" gradientTransform="matrix(1 0 0 -1 0 900)">
			<stop  offset="0" style="stop-color:#CBDFF3"/>
			<stop  offset="7.000000e-02" style="stop-color:#B3D6EF"/>
			<stop  offset="0.23" style="stop-color:#86C4E7"/>
			<stop  offset="0.39" style="stop-color:#61B5E1"/>
			<stop  offset="0.55" style="stop-color:#43AADC"/>
			<stop  offset="0.7" style="stop-color:#2FA2D9"/>
			<stop  offset="0.85" style="stop-color:#229DD7"/>
			<stop  offset="1" style="stop-color:#1E9BD6"/>
		</linearGradient>
		<rect x="-84.1" y="-85.2" class="st1" width="1768.4" height="709.8"/>
		<g>
			
				<linearGradient id="SVGID_4_" gradientUnits="userSpaceOnUse" x1="758.405" y1="529.63" x2="758.405" y2="1155.5" gradientTransform="matrix(1 0 0 -1 0 900)">
				<stop  offset="0" style="stop-color:#CBDFF3"/>
				<stop  offset="7.000000e-02" style="stop-color:#B3D6EF"/>
				<stop  offset="0.23" style="stop-color:#86C4E7"/>
				<stop  offset="0.39" style="stop-color:#61B5E1"/>
				<stop  offset="0.55" style="stop-color:#43AADC"/>
				<stop  offset="0.7" style="stop-color:#2FA2D9"/>
				<stop  offset="0.85" style="stop-color:#229DD7"/>
				<stop  offset="1" style="stop-color:#1E9BD6"/>
			</linearGradient>
			<path class="st2" d="M1673.4,355.8l-1829.6,14.6l-0.2-236.9c142.2,34.1,463.5,109.3,570.7,119.1c177.5,16.2,504,17.9,502.5,0
				S757.6,265,421.3,199C139.5,143.7-89.6-25.5-156.5-79l-0.1-90.4c0,0,224.7,234.2,657.7,278s1172.2-364.1,1172.2-364.1l-0.2,202.3
				c-270.1,98.1-542.2,170-816.3,215.4c-61.1,10.1-122.4,19-183.7,26.5c63.8,2.3,127.6,3,191.4,2.2c269.8-3.7,539.3-35.8,808.8-96.5
				L1673.4,355.8z"/>
		</g>
		
			<linearGradient id="SVGID_5_" gradientUnits="userSpaceOnUse" x1="800.075" y1="678.73" x2="800.075" y2="707.41" gradientTransform="matrix(1 0 0 -1 0 900)">
			<stop  offset="0" style="stop-color:#CBDFF3"/>
			<stop  offset="7.000000e-02" style="stop-color:#B3D6EF"/>
			<stop  offset="0.23" style="stop-color:#86C4E7"/>
			<stop  offset="0.39" style="stop-color:#61B5E1"/>
			<stop  offset="0.55" style="stop-color:#43AADC"/>
			<stop  offset="0.7" style="stop-color:#2FA2D9"/>
			<stop  offset="0.85" style="stop-color:#229DD7"/>
			<stop  offset="1" style="stop-color:#1E9BD6"/>
		</linearGradient>
		<polygon class="st3" points="1642.8,192.6 -71.7,207.8 1671.8,221.3 		"/>
		<path class="st4" d="M2079.7,606.1l-48,6l-152.8,19H-522c0.7-4.5,12.6-84,13.4-89c0-0.1,0-0.1,0-0.2c13.4,3.2,103,31.6,101.5,28.6
			c170,6.1,218.8-19.3,285.2-24.3c104.7,26.9,212,40.3,290.5,43.5c84.8-6,93-28.2,115.1-33.5c110.6,1.6,261.2-25,457.6-48.4
			c91.4-10.6,126.3-10.2,167.3-2.3c28,5.4,58.8,14.3,112.5,25.6c2.1,0.1,4.3,0.3,6.8,0.4c43.9,2.3,146.4,5.4,206.5,23.2
			c-4.8,1.9,260.7,9,380,13.9c36.7,2.3,58-1,67.1,6.2c12,5.8,3.3,2,16.4,3c94.4-4.6,104.1,18.2,128.1,14.4
			C1910.6,595.2,2049.7,588.8,2079.7,606.1z"/>
		<path class="st5" d="M1027.9,531.3c61.4,12.7,83.9,9.1,153.8,14.4c-233.7,11-57.8-16.5-191.9,62.9c137.1,8.5,354.2-4,490.9-8.4
			c117.6,4.2,188.6,15.4,214.2-4.2l-6.6-13c8-1.8,18.9,4.7,24.4,8.8c0,0,78.8-0.1,76,0l3.7,1.3c38.6,13.5,48.2,16.9,55.3,15.6
			c50.2,2.3,126.5,0.2,184,3.3l-152.8,19H-522c0.7-4.5,12.6-84,13.4-89c19.8,10.3,105.3,60.1,120.8,66.6
			c24.5-3.5,62.3,14.2,69.9,12.2c31.6-2.1,76.6-0.7,85.1-12.2c40.8,0.2,118-29.7,147-37.7l-13.4-16.8l158,38.8
			c19,1.9,113.7,11.3,129.7,12.9l-55.7,7c60.7,8.9,163.2-0.8,223.1-8.4c-72.9,18.9,118.1,1.2,140.4,4.4
			c53.9-21.1,53-16.3,145.6-33.3c25.8-3.3,35.6-8.3,62.5-17.1c32.5,15.3,19,15.4,17.5,33.4c129.7,27.3,104.2,10.2,220.6-12
			c2.7,4.8,15-26.7,20.3-34.1c-8-5.8-42.9-27.2-54.4-40.4L1027.9,531.3z"/>
		
			<linearGradient id="SVGID_6_" gradientUnits="userSpaceOnUse" x1="701.4695" y1="-2.968274e-02" x2="1093.8595" y2="547.8503" gradientTransform="matrix(1 0 0 -1 0 900)">
			<stop  offset="0" style="stop-color:#FCB54B"/>
			<stop  offset="1" style="stop-color:#FCDB48"/>
		</linearGradient>
		<rect x="-52.1" y="596.4" class="st6" width="1710.6" height="323.2"/>
		
			<linearGradient id="SVGID_7_" gradientUnits="userSpaceOnUse" x1="1070.0742" y1="240.5302" x2="1072.6343" y2="150.0401" gradientTransform="matrix(1 0 0 -1 0 900)">
			<stop  offset="0" style="stop-color:#FCB54B"/>
			<stop  offset="1" style="stop-color:#FCDB48"/>
		</linearGradient>
		<polygon class="st7" points="909.9,707.9 1270.8,705.5 1098.5,719.3 1168.9,722.6 969.8,720.3 967.8,716 960.7,714.1 959.7,716 
			961,719.8 935.3,719.8 933.9,716.5 929.5,719.8 879.1,719.7 872,706.5 		"/>
		
			<linearGradient id="SVGID_8_" gradientUnits="userSpaceOnUse" x1="-70.25" y1="225.69" x2="1673" y2="225.69" gradientTransform="matrix(1 0 0 -1 0 900)">
			<stop  offset="0" style="stop-color:#FCB54B"/>
			<stop  offset="1" style="stop-color:#FCDB48"/>
		</linearGradient>
		<polygon class="st8" points="-70.3,664.9 1673,650.8 1673,667 -69.2,697.8 		"/>
		
			<linearGradient id="SVGID_9_" gradientUnits="userSpaceOnUse" x1="1053.1992" y1="264.571" x2="1381.1992" y2="509.631" gradientTransform="matrix(1 0 0 -1 0 900)">
			<stop  offset="0" style="stop-color:#FCB54B"/>
			<stop  offset="1" style="stop-color:#FCDB48"/>
		</linearGradient>
		<polygon class="st9" points="323.1,686 1280,690.1 1256.1,656.3 1494.9,658.7 1499.5,663.4 1517.6,664.9 1527.5,668.2 
			1662.2,675.3 1417.3,675.3 1410.8,670.6 1404.1,670.6 1397.6,675.3 1355.6,673 1333.6,667.9 1308.2,668.1 1294.2,674.9 
			1274.8,674.9 1280.3,679.1 1372.7,682.5 1283.7,684.8 1291.4,690.1 1434.8,692 1236.4,698.7 1221.4,696.3 1197.4,696.3 
			1185.8,701.5 1100.4,702.5 1054.1,706.7 1176.3,709.6 948.5,712 933.1,716.7 984.7,716.7 860.7,728.2 1115.5,729.6 1158.5,733.9 
			893.5,736.7 558.9,731 566.6,695.8 		"/>
		<polygon class="st10" points="-555.8,639.8 1170.9,653.3 -585.1,665.1 		"/>
		
			<linearGradient id="SVGID_10_" gradientUnits="userSpaceOnUse" x1="1071.5531" y1="-5.3296" x2="1047.8931" y2="164.8004" gradientTransform="matrix(1 0 0 -1 0 900)">
			<stop  offset="0" style="stop-color:#FCB54B"/>
			<stop  offset="1" style="stop-color:#FCDB48"/>
		</linearGradient>
		<path class="st11" d="M1270.9,788.3l-430.1,8.6l141.2,6.2l201.8,11.9c0,0-51.1-2.9-51.8-13.3S1270.9,788.3,1270.9,788.3z"/>
		<polygon class="st12" points="902.8,758 684.6,760.4 785.1,754.2 789.9,749.5 807.1,749.5 790.9,752.3 785.5,757.1 830.8,756.6 
			831.8,751.4 841.7,749.9 835.2,752.8 834.9,756.1 854.2,756.1 853.8,753.8 856.9,756.1 859.6,752.3 869.4,752.3 871.5,756.1 		"/>
		<polygon class="st13" points="1095.9,677.4 1136.3,677.2 1133.5,672.7 		"/>
		
			<linearGradient id="SVGID_11_" gradientUnits="userSpaceOnUse" x1="1172.7794" y1="192.3284" x2="1178.9594" y2="229.3784" gradientTransform="matrix(1 0 0 -1 0 900)">
			<stop  offset="0" style="stop-color:#D60C00"/>
			<stop  offset="1" style="stop-color:#FFAB00"/>
		</linearGradient>
		<path class="st14" d="M1226.9,675l-16.3,0.4l0,0l-24.5,0.6l0,0l-57,1.4c0,0,4.7-14.3,9.2-17.6c3.7-2.8,15.6-3.6,21-2.7
			c0.8,0.1,1.6,0.3,2.4,0.8c2.7,1.9,9.1,16.7,9.1,16.7h16.2v-0.2c0-0.3,0.1-1,0.3-1.9l0,0c0.5-2.7,1.6-7.1,3.7-7.4
			c3-0.5,15.9-1,16.9,0c0.6,0.4,0.8,1.2,0.7,1.9c0.3-0.5,4.1-7.6,5.4-7.1s12.5,10,12.9,11.9C1227.1,672.8,1227.1,673.9,1226.9,675z"
			/>
		<path class="st15" d="M1159.2,675l26.9,1l-57,1.4c0,0,4.7-14.3,9.2-17.6c3.7-2.8,15.6-3.6,21-2.7c0,0-16.9,1.2-18,3.1
			s-2.3,14.7-2.3,14.7h12.2l2.4-1.9h4.4L1159.2,675z"/>
		<path class="st15" d="M1210.7,675.4l-24.5,0.6l0.9-1.5v-0.2l0.3-1.9l0,0c0.5-2.7,1.6-7.1,3.7-7.4c3-0.5,15.9-1,16.9,0
			c0,0-13.5,0.5-15.2,1.9s-1.4,7.6-1.4,7.6L1210.7,675.4z"/>
		<path class="st13" d="M392.1,715.5c1,1.9,194.4-5.7,194.4-5.7h26.4l-52.5-1.4c0,0-128.3-0.5-142.9,1S391.1,713.6,392.1,715.5z"/>
		
			<linearGradient id="SVGID_12_" gradientUnits="userSpaceOnUse" x1="487.5843" y1="135.3559" x2="508.2743" y2="208.1259" gradientTransform="matrix(1 0 0 -1 0 900)">
			<stop  offset="0" style="stop-color:#D60C00"/>
			<stop  offset="1" style="stop-color:#FFAB00"/>
		</linearGradient>
		<path class="st16" d="M568.5,710.8l-23.3,0.7l-3.3,0.1l0,0l-100.6,3l-4.1-3.3l5.4-6.7l12.2-1.9l1.4,5.7c0,0,0.3-14.3,2.4-14.3
			s20.6-4.3,23.4-6.2s8.1-19,10.5-20c2.1-0.9,22.4-4.8,28.2-2.5c0.5,0.2,1,0.5,1.3,1c2.4,4.3,11.2,20,11.2,20s11.9-3.2,13.9,0.1
			s5,11.8,5,11.8s10.8-1.4,11.2,0c0.2,1,2.7,6.5,4.2,9.8l0,0L568.5,710.8z"/>
		<path class="st15" d="M513.3,710.3l28.5,1.3l-100.6,3l-4.1-3.3l5.4-6.7l12.2-1.9l1.4,5.7c0,0,0.3-14.3,2.4-14.3s20.6-4.3,23.4-6.2
			s8.1-19,10.5-20c2.1-0.9,22.4-4.8,28.2-2.5c0,0-24.4,2.9-24.8,4.8s-3.3,15.7-3.3,15.7l23.6-1.9l4.4-1.9l3.7,2.4l-34.9,2.9l-3,2.4
			c0,0-23.7,5.7-24.4,7.1s-0.7,8.1,0,10s43.7,4.8,43.7,2.8s0.3-7.1,0.3-7.1l10.1-2.4l13.9-0.5l-12.2,1.9l-3.7,3.3L513.3,710.3z"/>
		<polygon class="st15" points="544.1,705.1 545.2,711.5 541.8,711.6 541.8,704.6 548.9,700.3 		"/>
		<path class="st17" d="M567.3,708.2L567.3,708.2c0,0-4.6-8.3-5.2-9.3s-10.8,0-10.8,0s-5.8-11.9-7.1-12.4s-27.1,2.4-27.1,2.4
			l13.5-2.4l-8.8-20c2.4,4.3,11.2,20,11.2,20s11.9-3.2,13.9,0.1s5,11.8,5,11.8s10.8-1.4,11.2,0C563.3,699.4,565.8,704.8,567.3,708.2
			z"/>
		<path class="st18" d="M521,674.7c0,0-11.5,1.7-12,1.1s-0.3-5.5-0.3-6.2s11-2.7,12-1.1S521,674.7,521,674.7z"/>
		<path class="st18" d="M562,706.1c0,0-11.5,1.8-12,1.1s-0.3-5.5-0.3-6.2s11-2.7,12-1.1S562,706.1,562,706.1z"/>
		<path class="st18" d="M509.7,683c0,0-7.6,1.2-8,0.7s-0.2-3.7-0.2-4.1s7.3-1.8,8-0.7S509.7,683,509.7,683z"/>
		
			<linearGradient id="SVGID_13_" gradientUnits="userSpaceOnUse" x1="607.614" y1="148.1897" x2="611.804" y2="195.9696" gradientTransform="matrix(1 0 0 -1 0 900)">
			<stop  offset="0" style="stop-color:#D60C00"/>
			<stop  offset="1" style="stop-color:#FFAB00"/>
		</linearGradient>
		<polygon class="st19" points="577,709.8 577,705.1 580,702.7 592.9,702.7 593.6,705.1 593.6,709.8 599.3,709.8 600,708.4 
			602.4,708.4 603,709.8 608.1,709.8 608.8,705.1 616.6,696 620.3,700.3 618.6,703.2 626.1,703.2 627.4,707.4 629.5,707.4 
			640.6,707.4 642,705.1 645,707.4 646,709.8 		"/>
		
			<linearGradient id="SVGID_14_" gradientUnits="userSpaceOnUse" x1="831.7148" y1="145.5898" x2="829.3548" y2="215.0199" gradientTransform="matrix(1 0 0 -1 0 900)">
			<stop  offset="0" style="stop-color:#D60C00"/>
			<stop  offset="1" style="stop-color:#FFAB00"/>
		</linearGradient>
		<polygon class="st20" points="856,668 856,663.2 853.5,660.8 843.4,660.8 842.9,663.2 842.9,668 838.3,668 837.8,666.5 
			835.9,666.5 835.4,668 831.4,668 830.8,663.2 824.7,654.2 821.8,658.4 823.1,661.3 817.2,661.3 816.1,665.6 814.5,665.6 
			805.7,665.6 804.7,663.2 802.2,665.6 801.4,668 		"/>
		<path class="st21" d="M1398,490.3c0,0-7.2-6.1-5.6-10.5s8,5.7,8,5.7s-2-6.6,1.6-8.7s3.2,8.3,3.2,8.3s4.8-5.7,7.2-4.4
			s-7.2,11.8-7.2,11.8L1398,490.3z"/>
		<g class="st22">
			<path class="st21" d="M1401.7,487.3c-1.8,0.7-2.1,0-4.2-1.6c-1.2-0.8-2.7-1-4.2-0.7c1.3,2,2.8,3.8,4.6,5.3l7.2,2.2
				c0,0,1-1.1,2.3-2.7c-0.7-0.5-1.4-1.4-2.4-2.1C1402.3,485.7,1403.5,486.7,1401.7,487.3z"/>
		</g>
		<path class="st23" d="M1406.9,486.3c0,0,4.4-5.2,4.6-4.1S1406.7,490.3,1406.9,486.3z"/>
		<path class="st23" d="M1402.5,483.7c0,0-1-4.8,0.8-5.9C1404.5,477.6,1403.5,487.6,1402.5,483.7z"/>
		<path class="st21" d="M1538.2,418.9c0,0-7.5-5.6-6.2-10.1s8.3,5.1,8.3,5.1s-2.4-6.4,1.1-8.9s3.7,8.1,3.7,8.1s4.4-6,6.9-4.9
			s-6.4,12.3-6.4,12.3L1538.2,418.9z"/>
		<g class="st22">
			<path class="st21" d="M1541.8,415.7c-1.8,0.8-2.1,0.1-4.3-1.3c-1.3-0.7-2.8-0.8-4.2-0.4c1.4,1.9,3,3.6,4.9,5l7.3,1.7
				c0,0,1-1.2,2.2-2.9c-0.8-0.5-1.5-1.2-2.6-1.9C1542.3,414,1543.5,414.9,1541.8,415.7z"/>
		</g>
		<path class="st23" d="M1546.9,414.4c0,0,4.1-5.6,4.3-4.5S1546.9,418.3,1546.9,414.4z"/>
		<path class="st23" d="M1542.4,412c0,0-1.3-4.7,0.4-6C1544,405.8,1543.6,415.9,1542.4,412z"/>
		<path class="st21" d="M1456.3,393.1c0,0-7.5-5.6-6.2-10.1s8.3,5.1,8.3,5.1s-2.4-6.4,1.1-8.8s3.7,8,3.7,8s4.4-6,6.9-4.9
			s-6.4,12.3-6.4,12.3L1456.3,393.1z"/>
		<g class="st22">
			<path class="st21" d="M1459.9,389.9c-1.8,0.8-2.1,0.1-4.3-1.3c-1.3-0.7-2.8-0.8-4.2-0.4c1.4,1.9,3,3.6,4.9,5l7.3,1.7
				c0,0,1-1.2,2.2-2.9c-0.8-0.5-1.5-1.3-2.6-1.9C1460.4,388.2,1461.7,389.1,1459.9,389.9z"/>
		</g>
		<path class="st23" d="M1465.1,388.6c0,0,4.1-5.5,4.3-4.5S1465.1,392.5,1465.1,388.6z"/>
		<path class="st23" d="M1460.5,386.3c0,0-1.3-4.7,0.4-5.9C1462.1,380,1461.8,390.1,1460.5,386.3z"/>
		<path class="st21" d="M1554.5,596c0,0-8-9.7-4.6-14s9.2,9.6,9.2,9.6s-0.9-8.2,4.6-9.2s2,10.6,2,10.6s8-4.5,10.9-2
			s-12.9,10.4-12.9,10.4L1554.5,596z"/>
		<g class="st22">
			<path class="st21" d="M1560.4,594.2c-2.6,0-2.8-0.8-5.2-3.5c-1.3-1.4-3.5-2.2-5.4-2.5c1.2,2.8,2.8,5.4,4.7,7.8l9.1,5.3
				c0,0,1.7-0.9,3.9-2.1c-0.8-0.9-1.6-2.1-2.7-3.3C1561.7,592.6,1563,594.2,1560.4,594.2z"/>
		</g>
		<path class="st23" d="M1567.7,595.2c0,0,7.4-4.1,7.3-2.8S1566.3,599.6,1567.7,595.2z"/>
		<path class="st23" d="M1562.5,590.5c0,0,0-5.8,2.7-6.3C1566.8,584.4,1562.7,595.3,1562.5,590.5z"/>
		<path class="st24" d="M1364.9,562.8c0,0-19.5,14.4-25.1-24c-8.4-19.7-14.3-64.2,3.6-85.6c11.2-8.3,8.4,2.6,14.8,14.4
			s21.9,48.9,14.8,68.6S1364.9,562.8,1364.9,562.8z"/>
		<path class="st25" d="M1359.7,565c0,0-6-5.2-6.4-17.9s-11.2-11.8-12-26.2s1.6-15.3,0.4-24s-4.4-32.3,3.2-41.5
			c-2.8,6.1-7.6,17.5-5.6,36.7c1.6,20.5-2.8,23.6,1.2,34.5s7.6,10.1,8.4,18.8S1352.1,565,1359.7,565z"/>
		<path class="st25" d="M1362.9,554.9c0,0-10.4-20.1-6.8-29.7s-1.6-14-3.2-23.6s-2.4-5.3-1.2-14.4s-7.2-23.6,0.4-33.6
			c0.4-0.4-3.2,10.9,0.4,25.4s-2.4,13.5,2.4,23.2s7.6,16.2,4.8,23.6S1356.9,545.8,1362.9,554.9z"/>
		<path class="st26" d="M1358.1,565c0,0-6-5.2-6.4-17.9s-11.2-11.8-12-26.2s1.6-15.3,0.4-24s-4.4-32.3,3.2-41.5
			c-2.8,6.1-7.6,17.5-5.6,36.7c1.6,20.5-2.8,23.6,1.2,34.5s7.6,10.1,8.4,18.8S1350.5,565,1358.1,565z"/>
		<path class="st26" d="M1361.3,554.9c0,0-10.4-20.1-6.8-29.7s-1.6-14-3.2-23.6s-2.4-5.3-1.2-14.4s-7.2-23.6,0.4-33.6
			c0.4-0.4-3.2,10.9,0.4,25.4s-2.4,13.5,2.4,23.2s7.6,16.2,4.8,23.6S1355.3,545.8,1361.3,554.9z"/>
		<g class="st27">
			<path class="st28" d="M1368.5,499.9c2,14,2.1,15.5,4.4,8.6l0,0c-3.2-14.2-8.1-28-14.8-40.9c-4.4-8.2-4.4-15.9-7.7-17.1
				c0.3,5.2,1.4,10.4,3,15.4C1358.1,481.5,1366.5,485.9,1368.5,499.9z"/>
		</g>
		<g class="st29">
			<path class="st30" d="M1368.5,516c-5.6,9.2-10.4-1.3-10.4,7.4s-5.6,20.1-11.6,9.6s-3.6-17.9-7.2-33.6
				c-2.6-11.5-1.4-30.2-0.6-39.5c-12.2,23-6.6,61.1,1,78.8c5.6,38.5,25.1,24,25.1,24s0.8-7,8-26.7c2.7-7.5,2.2-17.5,0.1-27.7
				C1371.9,510.6,1370.5,512.7,1368.5,516z"/>
		</g>
		<path class="st24" d="M1457.6,504c0,0-21.7,9.9-20.3-29c-4.7-21.1-2.6-66.1,18.8-83.2c12.4-5.7,7.7,4.4,11.9,17.3
			s12.7,52.7,2.2,70.4S1457.6,504,1457.6,504z"/>
		<path class="st25" d="M1452.2,505c0,0-4.9-6.4-3-18.9s-8.8-14-7-28.3s4.3-14.6,4.7-23.5s1.5-32.6,10.6-40
			c-3.8,5.4-10.6,15.5-12,34.8c-2.1,20.5-7,22.5-5,34.1s5.6,11.5,4.8,20.2S1444.7,503.4,1452.2,505z"/>
		<path class="st25" d="M1457.1,495.8c0,0-6.6-22-1.3-30.6s0.9-14,1.1-23.8s-1.4-5.7,1.4-14.4s-2.8-24.7,6.4-32.9
			c0.5-0.3-5.1,10-4.1,24.9s-4.8,12.8-1.8,23.2s4.5,17.5,0.5,24.2S1452.9,485.5,1457.1,495.8z"/>
		<path class="st26" d="M1450.6,504.6c0,0-4.9-6.4-3-18.9s-8.8-14-7-28.3s4.3-14.6,4.7-23.5s1.5-32.7,10.6-40
			c-3.8,5.4-10.6,15.5-12,34.8c-2.1,20.5-7,22.5-5,34.1s5.6,11.5,4.8,20.2S1443.2,503,1450.6,504.6z"/>
		<path class="st26" d="M1455.5,495.5c0,0-6.6-21.9-1.3-30.6s1-14,1.1-23.8s-1.4-5.6,1.4-14.4s-2.8-24.7,6.4-32.9
			c0.5-0.3-5.1,10-4.1,24.9s-4.8,12.8-1.8,23.2s4.5,17.5,0.5,24.2S1451.3,485.2,1455.5,495.5z"/>
		<g class="st27">
			<path class="st28" d="M1472.4,443c-0.6,14.1-0.7,15.6,2.8,9.4l0,0c-0.4-17-4.6-35.3-7.2-43.3c-2.9-9-1.5-16.5-4.5-18.5
				c-0.6,5.2-0.5,10.5,0.2,15.7C1465.5,422.8,1473,428.9,1472.4,443z"/>
		</g>
		<g class="st29">
			<path class="st30" d="M1469.5,458.9c-7.1,7.8-9.9-3.5-11.5,5.1s-9.1,18.5-13,6.9s-0.3-18.3-1-34.5c-0.5-11.8,4-29.9,6.5-38.8
				c-16.1,19.9-17.4,58.5-13.1,77.5c-1.4,38.9,20.3,29,20.3,29s2-6.7,12.6-24.4c4-6.8,5.3-16.7,5-27.1
				C1473.9,454.2,1472.1,456.1,1469.5,458.9z"/>
		</g>
		<path class="st24" d="M1496,496c0,0,1.2-5.7,8.8-10.5s15.5-4.8,14.3-17s-1.6-46.8,10.4-50.3s34.3,0.9,31.9,32.8s-8.4,56.4-9.6,73
			s-10,30.2-28.3,34.5s-35.5-8.3-35.5-20.1S1496,496,1496,496z"/>
		<path class="st25" d="M1495.7,505.1c0,0,19.4-0.7,26.6-9.8s5.1-9.2,7.2-20.3s-1.8-19.7-2.7-26.5c-0.5-4-2.2-7.7-5.1-10.5
			c0,0,5.4,1.3,6.9,11.5s5.4,17.4,2.1,34.7s-11.1,18.4-16.4,19.7S1495.7,509.4,1495.7,505.1z"/>
		<path class="st25" d="M1493,516.3c6.9,0.1,13.8-0.4,20.6-1.6c10.2-2,14.1-4.9,18.8-11.5s9.3-14.8,9.3-24.3s-0.3-33.8-0.3-40.6
			s0-15.7-2.7-19.3s3.6-3.6,3.9,11.1s0.6,36.7,0.6,44.3c0,10.2-3.2,20.1-9,28.5c-7.2,10.5-10.5,11.8-18.8,13.8
			S1493,516.3,1493,516.3z"/>
		<path class="st25" d="M1489.6,538.8c0,0,12.6,1.4,23.1,2.7s20-3.3,26.6-13.4s9.6-32.8,10.5-42.6s3.3-57.4,0.3-63.9
			c1.5,4.3,3.6,5.9,3,23.6s-1.8,56.7-7.8,73.4s-13.2,23.6-24.8,24.6S1489.2,542.9,1489.6,538.8z"/>
		<path class="st31" d="M1494.1,504.7c0,0,19.4-0.6,26.6-9.8s5.1-9.2,7.2-20.3s-1.8-19.7-2.7-26.5c-0.4-4-2.2-7.7-5.1-10.5
			c0,0,5.4,1.3,6.9,11.5s5.4,17.4,2.1,34.7s-11.1,18.4-16.4,19.7S1494.1,509,1494.1,504.7z"/>
		<path class="st31" d="M1491.4,515.8c6.9,0.1,13.8-0.4,20.6-1.6c10.2-2,14.1-4.9,18.8-11.5s9.3-14.8,9.3-24.3s-0.3-33.8-0.3-40.6
			s0-15.7-2.7-19.3s3.6-3.6,3.9,11.1s0.6,36.7,0.6,44.2c0,10.2-3.2,20.1-9,28.5c-7.2,10.5-10.5,11.8-18.8,13.8
			S1491.4,515.8,1491.4,515.8z"/>
		<path class="st31" d="M1488,538.3c0,0,12.7,1.4,23.1,2.7s20-3.3,26.6-13.4s9.6-32.8,10.5-42.6s3.3-57.4,0.3-63.9
			c1.5,4.3,3.6,5.9,3,23.6s-1.8,56.7-7.8,73.4c-6,16.7-13.2,23.6-24.8,24.6S1487.6,542.5,1488,538.3z"/>
		<g class="st32">
			<path class="st33" d="M1501.2,516.5c2.4-10-4.1-15,4-14c10.8,1.3,24.3-17.5,24.3-32.8s-2.4-14.9-3.6-34.5
				c-0.6-10,3.1-15.1,6.9-17.8c-1.1,0.2-2.2,0.4-3.3,0.7c-12,3.5-11.6,38-10.4,50.3s-6.8,12.2-14.3,17S1496,496,1496,496
				s-8,30.6-8,42.4s17.1,24.5,35.5,20.1c0.1,0,0.2-0.1,0.3-0.1C1490,556.7,1498.8,526.3,1501.2,516.5z"/>
		</g>
		<g class="st27">
			<path class="st28" d="M1555.6,425.8c2,9.1,2.7,18.4,2.2,27.7c-1.2,21.9-10.8,77.3-16.3,88.3c-2.2,4.3-3.6,8.3-5.9,11.7
				c10.2-6.4,15.3-17.2,16.2-29.6c1.2-16.6,7.2-41.1,9.6-73C1562.2,439.1,1559.7,431.1,1555.6,425.8z"/>
		</g>
		<path class="st24" d="M1395.6,759.5c0,0,10.8-43.3,8-50.7s-11.6-7.9-17.9-17.9s-17.9-29.3-17.9-57.2s1.2-34.1-1.6-47.6
			s-10.4-22.7-2.8-42.8s13.6-44.1,21.5-48.1s4.8-6.6,15.5-4.8s25.9,11.4,25.9,28s-3.2,41.1-3.2,59.4s1.2,27.5,1.6,28.8
			s10-4.4,11.2-17s0-88.7,17.5-106.6s35.1-13.5,41.4,0s3.2,34.5-5.2,67.7s-8,57.3-4.8,91.3s-1.2,41.9-6.8,42.8s8.8,5.3,16.7-8.3
			s15.2-19.2,25.1-19.7s23.5,15.7,7.6,48.1c-8.4,10.5-10.4,12.2-12.3,19.7s-31.9,11.4-43,3.5s-12.8-14-14.7-4.4
			S1395.6,759.5,1395.6,759.5z"/>
		<path class="st24" d="M1519.9,656.8c0,0-12.8,0-7.6-14.8s12.3-24.5,16.7-33.2s6-15.3,23.5-13.1s25.9,9.2,16.3,30.6
			s-25.1,45.9-31.1,43.7S1519.9,656.8,1519.9,656.8z"/>
		<path class="st25" d="M1468.1,709.7c0,0-1.6,9.6,14.3,10s18.7,0,24.7-1.8s11.9-4.4,15.5-8.7c-3.2,1.3-2,10.5-14.8,11.4
			s-21.9,3.5-29.9,1.3S1467.7,719.2,1468.1,709.7z"/>
		<path class="st26" d="M1468.1,711c0,0-1.6,9.6,14.3,10s18.7,0,24.7-1.8s11.9-4.4,15.5-8.7c-3.2,1.3-2,10.5-14.8,11.4
			s-21.9,3.5-29.9,1.3S1467.7,720.6,1468.1,711z"/>
		<path class="st25" d="M1432.9,716.7c0,0,0-3.9,3-12.8c1.7-4.9,2.9-9.9,3.6-15.1c0,0,0.6,9.5-1.2,14.1s-2.7,13.1-2.7,14.1
			S1432.9,716.7,1432.9,716.7z"/>
		<path class="st25" d="M1426.3,604.3c0,0-1.2,13.5,7.6,29.7s10.8,49.8-0.4,56.4c0,0,15.5-9.2,10.4-31.5S1426.3,611.8,1426.3,604.3z
			"/>
		<path class="st25" d="M1406.7,492.5c2.6,9.1,2.6,18.9,0,28c-4.4,15.3-6.4,25.8-3.2,35.4s6.8,37.6,7.6,48.5s1.2,13.1,4,21
			s2.4,24.9-1.2,33.6s-2,10.1-3.2,18.4s-3.6,5.3,2,11.8s8.8,4.8,5.6,16.6s-0.4,20.5-0.4,26.7s-1.2-16.2,3.6-26.2
			c2.4-7.4,3.2-8.3-2-13.5s-8.8-5.2-6-19.2s6.4-24.9,6.4-31.5s-4.8-22.7-5.2-29.7s-4-45-6.8-54.6s-4.8-15.3-2.8-21.8
			S1416.3,510.4,1406.7,492.5z"/>
		<path class="st25" d="M1399.6,490.3c0,0,0.8,21-4,32.8c-4.8,11.8-7.6,21.8-10.8,28.8s0.4,18.8,2.4,24.9s4.8,29.3,4.8,40.2
			s-0.4,19.7,3.6,29.7s4.4,14,4,23.6s-1.6,16.2,2.8,24s3.6,9.6,3.6,9.6s-10.4-7.9-9.6-23.6s0.4-24.9-2.8-33.2s-4-14.4-4-24.5
			s-2.4-38.5-5.6-47.2s-4.4-18.3-0.8-26.7s10.8-25.8,12-33.2S1401.2,496,1399.6,490.3z"/>
		<path class="st25" d="M1463.7,475.4c0,0-6,20.5-6,35s2.4,33.2-2.4,44.6s-4,30.2-2.4,45.5s4,16.2-0.8,26.2s-7.2,25.8-8.4,32.3
			s-1.2-12.2,3.2-25.3s6.4-11.4,4.4-30.2s-2-37.1,0.8-49.8s4.4-18.3,3.2-30.6S1456.9,483.3,1463.7,475.4z"/>
		<path class="st25" d="M1476.1,472.4c2.7,10,2,20.6-2,30.2c-6.8,15.7-1.6,28-1.6,38s-4.4,41.1-5.6,51.6s-2.8,21-2.8,32.3
			s-7.2,28.8-10.4,36.7s3.6,15.3,0,25.8s-10,29.7-10,29.7s0.4-13.1,5.6-23.2s1.2-18.3,0.8-25.8s7.2-20.1,10.3-30.6s2-23.1,2.8-34.1
			s4.4-31.5,5.6-42.8s2.4-19.2,1.2-28s-2.8-21,0.8-30.1S1478.1,484.6,1476.1,472.4z"/>
		<path class="st25" d="M1485.6,472.8c0,0,0.8,21.9-1.6,31s2.4,26.2,0,39.8s-8.4,60.3-6.8,78.7s2.8,56.8-10,59.9
			c-0.4,1.3,12.4-5.7,9.6-33.2s-2.4-41.1,0-59.4s6.4-51.6,6-65.1S1482,480.2,1485.6,472.8z"/>
		<path class="st25" d="M1460.5,717.5c0,0-4-6.1,4.4-15.7s13.6-10.9,21.5-10.9s18.7,5.7,21.5-10.5s9.6-22.7,16.3-21.8
			c-1.2,0-10.4,1.8-11.2,12.7s-7.2,23.2-15.5,23.2s-16.7-1.3-22.3,1.8S1460.5,705.7,1460.5,717.5z"/>
		<path class="st25" d="M1460.5,717.5c0,0,2-10.9,16.3-8.3s22.3,0.9,31.1-7.4s21.9-27.1,20.7-40.6c0.8,4.8,3.6,5.7-4.8,21.8
			s-15.1,24.9-22.7,28s-13.5,2.6-23.1,1.3S1464.1,710.5,1460.5,717.5z"/>
		<path class="st25" d="M1397.6,491.6c-4.4,3-8.1,7.1-10.8,11.8c-4.4,7.9-3.6,13.1-5.6,24.5s-6.4,24.9-7.2,35.4s0,24,3.6,41.5
			s6.4,21.8,6.4,32.8s6,16.6,4.4,28.4s0.8,24.5,8.4,31c-0.8-0.4-13.6-0.4-10-30.6c-0.8-19.7-5.6-19.7-5.6-29.3
			c0.1-9.7-1.7-19.3-5.2-28.4c-3.6-9.2-6.4-28.4-3.6-48.5s8.8-31.9,8.8-40.2S1386.4,496,1397.6,491.6z"/>
		<path class="st25" d="M1426.7,608.3c-2.8,8.1-2.5,17,0.8,24.9c5.6,13.1,3.6,16.6,3.6,31s3.2,26.2-6.8,29.3
			c3.6-2.2,5.2-6.6,4.8-21.8s0.8-26.7-3.2-35S1420.3,614.8,1426.7,608.3z"/>
		<path class="st26" d="M1431.3,716.7c0,0,0-3.9,3-12.8c1.7-4.9,2.9-9.9,3.6-15.1c0,0,0.6,9.5-1.2,14.1s-2.7,13.1-2.7,14.1
			S1431.3,716.7,1431.3,716.7z"/>
		<path class="st26" d="M1424.7,604.3c0,0-1.2,13.5,7.6,29.7s10.8,49.8-0.4,56.4c0,0,15.5-9.2,10.4-31.5S1424.7,611.8,1424.7,604.3z
			"/>
		<path class="st26" d="M1405.1,492.5c2.6,9.1,2.6,18.9,0,28c-4.4,15.3-6.4,25.8-3.2,35.4s6.8,37.6,7.6,48.5s1.2,13.1,4,21
			s2.4,24.9-1.2,33.6s-2,10.1-3.2,18.4s-3.6,5.3,2,11.8s8.8,4.8,5.6,16.6s-0.4,20.5-0.4,26.7s-1.2-16.2,3.6-26.2
			c2.4-7.4,3.2-8.3-2-13.5s-8.8-5.2-6-19.2s6.4-24.9,6.4-31.5s-4.8-22.7-5.2-29.7s-4-45-6.8-54.6s-4.8-15.3-2.8-21.8
			S1414.7,510.4,1405.1,492.5z"/>
		<path class="st26" d="M1398,490.3c0,0,0.8,21-4,32.8c-4.8,11.8-7.6,21.8-10.8,28.8s0.4,18.8,2.4,24.9s4.8,29.3,4.8,40.2
			s-0.4,19.7,3.6,29.7s4.4,14,4,23.6s-1.6,16.2,2.8,24s3.6,9.6,3.6,9.6s-10.4-7.9-9.6-23.6s0.4-24.9-2.8-33.2s-4-14.4-4-24.5
			s-2.4-38.5-5.6-47.2s-4.4-18.3-0.8-26.7s10.8-25.8,12-33.2S1399.6,496,1398,490.3z"/>
		<path class="st26" d="M1462.1,475.4c0,0-6,20.5-6,35s2.4,33.2-2.4,44.6s-4,30.2-2.4,45.5s4,16.2-0.8,26.2s-7.2,25.8-8.4,32.3
			s-1.2-12.2,3.2-25.3s6.4-11.4,4.4-30.2s-2-37.1,0.8-49.8s4.4-18.3,3.2-30.6S1455.3,483.3,1462.1,475.4z"/>
		<path class="st26" d="M1474.5,472.4c2.7,10,2,20.6-2,30.2c-6.8,15.7-1.6,28-1.6,38s-4.4,41.1-5.6,51.6s-2.8,21-2.8,32.3
			s-7.2,28.8-10.4,36.7s3.6,15.3,0,25.8s-10,29.7-10,29.7s0.4-13.1,5.6-23.2s1.2-18.3,0.8-25.8s7.2-20.1,10.4-30.6s2-23.1,2.8-34.1
			s4.4-31.5,5.6-42.8s2.4-19.2,1.2-28s-2.8-21,0.8-30.1S1476.5,484.6,1474.5,472.4z"/>
		<path class="st26" d="M1484,472.8c0,0,0.8,21.9-1.6,31s2.4,26.2,0,39.8s-8.4,60.3-6.8,78.7s2.8,56.8-10,59.9
			c-0.4,1.3,12.4-5.7,9.6-33.2s-2.4-41.1,0-59.4s6.4-51.6,6-65.1S1480.4,480.2,1484,472.8z"/>
		<path class="st26" d="M1458.9,717.5c0,0-4-6.1,4.4-15.7s13.6-10.9,21.5-10.9s18.7,5.7,21.5-10.5s9.6-22.7,16.3-21.8
			c-1.2,0-10.4,1.8-11.2,12.7s-7.2,23.2-15.5,23.2s-16.7-1.3-22.3,1.8S1458.9,705.7,1458.9,717.5z"/>
		<path class="st26" d="M1458.9,717.5c0,0,2-10.9,16.3-8.3s22.3,0.9,31.1-7.4s21.9-27.1,20.7-40.6c0.8,4.8,3.6,5.7-4.8,21.8
			s-15.1,24.9-22.7,28s-13.6,2.6-23.1,1.3S1462.5,710.5,1458.9,717.5z"/>
		<path class="st26" d="M1396,491.6c-4.4,3-8.1,7.1-10.8,11.8c-4.4,7.9-3.6,13.1-5.6,24.5s-6.4,24.9-7.2,35.4s0,24,3.6,41.5
			s6.4,21.8,6.4,32.8s6,16.6,4.4,28.4s0.8,24.5,8.4,31c-0.8-0.4-13.6-0.4-10-30.6c-0.8-19.7-5.6-19.7-5.6-29.3
			c0.1-9.7-1.7-19.3-5.2-28.4c-3.6-9.2-6.4-28.4-3.6-48.5s8.8-31.9,8.8-40.2S1384.8,496,1396,491.6z"/>
		<path class="st25" d="M1522.3,658.5c0,0-5.6-5.7,0-17.5s6.8-13.1,12-22.7s7.6-19.2,14.3-19.2s0-3.1-7.6,9.2s-16.7,28-17.5,35.4
			s6,10.5,6,10.5s-0.8,0,6-10.9s6.8-6.6,3.2-0.9s-7.2,10.9-7.2,16.2s8.8,1.8,12.8-3.1s8.4-9.6,7.2-7.9S1541,662,1537,664.2
			s-2.8,5.2-5.6,0.4s-10.8-6.1-10.8-6.1H1522.3z"/>
		<path class="st26" d="M1425.1,608.3c-2.8,8.1-2.5,17,0.8,24.9c5.6,13.1,3.6,16.6,3.6,31s3.2,26.2-6.8,29.3
			c3.6-2.2,5.2-6.6,4.8-21.8s0.8-26.7-3.2-35S1418.7,614.8,1425.1,608.3z"/>
		<path class="st26" d="M1521.5,656.8c0,0-5.6-5.7,0-17.5s6.8-13.1,12-22.7s7.6-19.2,14.3-19.2s0-3-7.6,9.2s-16.7,28-17.5,35.4
			s6,10.5,6,10.5s-0.8,0,6-10.9s6.8-6.6,3.2-0.9s-7.2,10.9-7.2,16.2s8.8,1.8,12.8-3s8.4-9.6,7.2-7.9s-10.4,14.4-14.3,16.6
			s-2.8,5.3-5.6,0.4s-10.8-6.1-10.8-6.1L1521.5,656.8z"/>
		<path class="st34" d="M1494.8,676.4c8-13.5,15.2-19.2,25.1-19.7c0.4,0,0.9,0,1.3,0c5.1-1,9.7-1,7.9-2.2
			c-3.2-2.2-14.8-3.5-24.3-0.4s-9.2,9.6-13.6,21.4s-6.8,9.6-13.1,9.2C1472.5,685.6,1486.8,690,1494.8,676.4z"/>
		<path class="st35" d="M1473.3,725.4c-7.2-6.1-12-10-10.4-15.3s6-17.9,11.2-18.8s14.8-0.4,18.3-4.4s8.4-3.5,10.4-9.2
			s4-8.7,8.4-15.7c1.9-3,6.1-4.4,10.1-5.2c-0.4,0-0.9,0-1.3,0c-10,0.4-17.1,6.1-25.1,19.7s-22.3,9.2-16.7,8.3
			c-6.4-0.4-8,3.5-15.6,9.2s-8,14.4-8,16.2s-2.8,7.4-12.8,4.4s-16.3,3.1-22.3,9.6s-12,12.2-10.4,0.4s17.1-23.6,4.4-24.9
			c-21.1-0.4-35.1-39.8-37.5-50.7s1.6-22.3,1.2-34.5s-9.2-31-6-42s7.6-35.8,8.4-42.8s2.4-21.4,4-30.1c0.9-4.8,6.9-7.9,12-9.7
			c-5.3-0.2-4.3,2.1-10.8,5.3c-8,3.9-14,28-21.5,48.1s0,29.3,2.8,42.8s1.6,19.7,1.6,47.6s11.6,47.2,17.9,57.2s15.2,10.5,17.9,17.9
			s-8,50.7-8,50.7s59.8-26.2,61.8-35.8s3.6-3.5,14.7,4.4c1.9,1.3,4.1,2.2,6.3,2.8C1476.7,728.9,1475.1,727.1,1473.3,725.4z"/>
		<path class="st34" d="M1425.1,606.7c-0.2-1.1-0.5-2.2-0.9-3.2c0.1,1,0.3,2,0.5,3C1424.7,606.7,1424.9,606.7,1425.1,606.7z"/>
		<path class="st33" d="M1425.1,608.3c-0.3,1.1,0,0.2,0.7-1.8c-0.2,0.1-0.4,0.2-0.6,0.2C1425.2,607.2,1425.2,607.7,1425.1,608.3z"/>
		<path class="st36" d="M1420.3,529.2c-3.2,20.1-4.4,40.2-3.2,52.9c0.9,9,5.1,16.5,7.1,21.5c-0.8-8.6-1.2-17.2-1.1-25.8
			c0-18.4,3.2-42.8,3.2-59.4c0-6.9-2.8-13.5-7.7-18.3C1421.3,509.4,1421.8,519.4,1420.3,529.2z"/>
		<g class="st29">
			<path class="st30" d="M1435.4,628.8c-3.6-16.2,3.6-25.3,6.8-38.5s0-31.5,2.4-46.3s5.6-28,5.6-43.3c0-7.8,5.3-17,10.6-24.2
				c-2.7,1.8-5.1,3.9-7.4,6.3c-17.5,17.9-16.3,93.9-17.5,106.6c-0.9,9.9-6.9,15.5-9.7,16.9c0.3,10.3,13.3,40.8,13.3,40.8
				S1439,645,1435.4,628.8z"/>
		</g>
		<g class="st22">
			<path class="st30" d="M1367.3,526.5c-4.8,8.7-9.2,13.5-9.2,22.3c0,8.1-5.5,12.8-14.5,5.1c7.8,18.8,21.3,8.9,21.3,8.9
				s0.8-7,8-26.7c2.7-7.5,2.2-17.4,0.1-27.5C1371.6,515,1369.6,522.3,1367.3,526.5z"/>
		</g>
		<g class="st37">
			<path class="st30" d="M1440.9,650.5c-5.1-15.1-1.2-35.7,0.6-40.7s6.3-18.7,6-27.5s5.6-21.8,7.1-33.5s-1.4-31.7,0.1-53
				c0.7-10.4,5.2-17.1,9.6-21.4c-4.1,2.2-7.7,5.1-10.9,8.4c-17.5,17.9-16.3,93.9-17.5,106.6c-0.9,9.7-6.7,15.2-9.5,16.8
				C1427.1,619.7,1440.3,653,1440.9,650.5z"/>
		</g>
		<g class="st27">
			<path class="st28" d="M1494.1,504.7c-5.3,25.8-15.2,50.3-15.2,77.3s-3.6,59-2.4,77.8s4.4,22.3-2,26.7c-2.6,1.8-0.3,1.7,3.8-0.5
				c-1.7-0.3-2.2-1-0.3-1.3c5.6-0.9,10-8.7,6.8-42.8s-3.6-58.1,4.8-91.3c8.2-32.7,11.4-53.5,5.5-67
				C1495.9,488.5,1496,495.3,1494.1,504.7z"/>
		</g>
		<g class="st29">
			<path class="st30" d="M1528.3,657.6c-5.2-3.5-5.2-1.3-6-10.9s12-35,19.1-45.9c1.5-2.3,3.5-4.2,5.9-5.6
				c-12.7-0.3-14.4,5.7-18.3,13.5c-4.4,8.7-11.6,18.3-16.7,33.2s7.6,14.8,7.6,14.8s9,8.3,15.3,11.8
				C1532.2,665.1,1531.2,659.6,1528.3,657.6z"/>
		</g>
		<g class="st38">
			<path class="st28" d="M1570.3,602.9c1.4,3.8,1.5,9.2-2.2,16.7c-7.6,15.5-17.9,41.9-33,48.9c0.9,0.5,1.8,1,2.7,1.3
				c6,2.2,21.5-22.3,31.1-43.7C1574,614.8,1574,607.6,1570.3,602.9z"/>
		</g>
		<path class="st39" d="M1394,755.1c0,0-18.5,13.8-19.1,19.7s9.6,7.2,13.8,19s10.8,16.4,44.2,20.3s59.2,1.3,76.5,0.7
			s29.9-7.9,29.3-23s-1.8-25.6-15.5-27.5s-29.3-7.2-41.3-21.6s-23.3-24.9-35.9-24.9s-17.9-1.3-24.5,7.9S1399.3,751.2,1394,755.1z"/>
		<g class="st40">
			<path class="st39" d="M1509.5,811.9c-12.3,0-33.5-0.4-51.4-4.4s-43.4-2.6-41.1-6.6s8-22.7,3.6-30.6s0-9.2,5.2-18.3
				c4.8-8.4,4.5-26.8,5.3-33.7c-3.6,0.9-6.5,2.8-9.6,7.3c-6.6,9.2-22.1,25.6-27.5,29.5c0,0-18.5,13.8-19.1,19.7s9.6,7.2,13.8,19
				s10.8,16.4,44.2,20.3s59.2,1.3,76.5,0.7c4.8-0.1,9.6-0.9,14.2-2.5C1519.1,812.8,1515.9,811.9,1509.5,811.9z"/>
		</g>
		<path class="st41" d="M1378.4,780.4c0,0,6.8-0.9,11.6-5.2s8.8-11.8,10.8-14.9s2.8,8.3,1.2,13.1s-6.4,16.2-7.2,20.1
			c-0.6,2.5-1.8,4.8-3.6,6.6c0,0-2-6.1-4.4-9.6S1378.4,780.4,1378.4,780.4z"/>
		<path class="st41" d="M1435.4,733.7c0,0,4,1.7,11.9,0.4c5.7-0.9,11.4-1.5,17.1-1.8c1.2,0-5.2,0.9-10,3.1s-9.6,4.8-12.3,3.1
			S1435.4,733.7,1435.4,733.7z"/>
		<g class="st42">
			<path class="st43" d="M1535.6,417.2c-0.3,0.2-0.7,0.3-1,0.5c-12.4,7.9,4,26.7,1.2,44.1s5.2,40.2-10.8,55.9
				c-10.9,10.8-19.4,30.8-9.4,41.5c2.6,0,5.3-0.2,7.8-0.8c18.3-4.4,27.1-17.9,28.3-34.5s7.2-41.1,9.6-73
				C1563.4,424,1547.8,416.7,1535.6,417.2z"/>
		</g>
		<path class="st44" d="M1396,538.8c-5.2,11.8,1.2,71.7,3.6,96.1s-0.8,54.2,21.9,55.1s21.1-41.1,11.6-64.7c-3.8-9.4-5.9-14.8-6.8-19
			c-0.9,0.4-1.4,0.5-1.5,0.2c-0.4-1.3-1.6-10.5-1.6-28.8s3.2-42.8,3.2-59.4c0-13.9-10.6-22.9-20.4-26.5c-0.3,0.2-0.5,0.4-0.7,0.7
			C1398.3,500.8,1401.2,527,1396,538.8z"/>
		<path class="st44" d="M1520.3,669.9c-14.3,12.2-14,26.2-23.5,33.2s-20.7,3.5-28.7,6.6c-6.3,2.4-9.8,2.9-7.8,9.2
			c2,0.6,5.2,4.6,11.7,9.2c11.2,7.9,41,3.9,43-3.5s4-9.2,12.3-19.7c8.4-17.1,8.6-29.7,5.4-37.7c-1.4-1-3-2.1-4.4-3.2
			C1525.5,665.6,1522.8,667.6,1520.3,669.9z"/>
		<path class="st44" d="M1462.9,526.1c-5.2,13.5-0.8,56.8-8.4,67.7s-13.6,62-2.8,77.8c9.4,13.7,19.6,22.7,30.6,14.2
			c-4.5,0.8-7.3-0.6-4.3-1.1c5.6-0.9,10-8.7,6.8-42.8s-3.6-58.1,4.8-91.3s11.5-54.2,5.2-67.7c-2.1-4.6-5.8-8.3-10.5-10.3
			c-2,0.6-3.8,1.6-5.5,2.9C1465.3,485.5,1468.1,512.6,1462.9,526.1z"/>
		<path class="st24" d="M1527.5,648.9c7.2-3.1,14.8-39.3,28.3-47.6c6.2-3.8,11.9-0.3,16.3,4.9c-2.3-6.4-9.3-9.3-19.5-10.6
			c-17.5-2.2-19.1,4.4-23.5,13.1s-11.6,18.3-16.7,33.2s7.6,14.8,7.6,14.8c3.2,0,6.2,1.3,8.5,3.5
			C1526.1,654.3,1520.6,651.8,1527.5,648.9z"/>
		<path class="st44" d="M1555.8,601.3c-13.5,8.3-21.1,44.6-28.3,47.6c-6.8,2.9-1.4,5.5,0.9,11.4c2,1.9,3.6,4.3,4.6,6.9
			c1.5,1.1,3.2,2,4.9,2.7c6,2.2,21.5-22.3,31.1-43.7c4-9,4.8-15.4,3.2-20C1567.6,600.9,1561.9,597.5,1555.8,601.3z"/>
		<path class="st24" d="M1530,663.4C1530.8,663.9,1531.1,663.2,1530,663.4z"/>
		<path class="st24" d="M1528.4,660.3c0.1,0.3,0.2,0.6,0.3,0.9c0.2,0.9,0.6,1.7,1.3,2.3c1.1-0.2,0.8,0.5,0,0c-0.5,0.1-1,0.3-1.5,0.6
			c1.4,1.1,3,2.2,4.4,3.2C1531.9,664.6,1530.4,662.2,1528.4,660.3z"/>
		<path class="st24" d="M1530,663.4c-0.7-0.6-1.2-1.4-1.3-2.3c-0.1-0.3-0.2-0.6-0.3-0.9c-2.2-2.3-5.3-3.5-8.5-3.5c0,0,4,3.7,8.6,7.2
			C1529,663.7,1529.5,663.5,1530,663.4z"/>
		<g class="st42">
			<path class="st43" d="M1468,409.1c-2.9-9-1.5-16.5-4.5-18.5l0,0c-8.2,6.6-10.2,11.4-14.5,28s0,38.5,3.6,47.6
				c2.8,7.1,12.1,8.1,22-0.8C1477.3,445.9,1471.3,419.2,1468,409.1z"/>
		</g>
		<g class="st42">
			<path class="st43" d="M1538.6,791.8c-0.6-15.1-1.8-25.6-15.5-27.5s-29.3-7.2-41.3-21.6c-2.7-3.3-5.4-6.3-8-9.1
				c-2.6,0.4-5.1,1-7.5,1.9c-16.1,5.3-14.3,38.7,21.5,57c18.1,9.3,30.6,15.5,41.7,17C1535.5,805.7,1539,799.9,1538.6,791.8z"/>
		</g>
		<path class="st45" d="M1507.2,811.5c0,0,2.4-12.2,15.9-18.3s8.4-7.9,18.7-6.6s29.5,1.3,37.5,12.7s9.2,13.1,5.6,21.4
			s-15.6,11.4-26.3,11.8s-16-0.4-27.9-1.8S1507.6,825.9,1507.2,811.5z"/>
		<path class="st41" d="M1583.2,805c-2.3,5-13.8,17-20.3,13.9c-7.2-3.5-9.6-3.9-19.1,3.1s-12.8,6.1-30.7-3.5c-2.1-1.1-4-2.5-5.7-4.2
			c1.7,12,12.1,15.2,23.3,16.4c11.9,1.3,17.1,2.2,27.9,1.8s22.7-3.5,26.3-11.8C1587.7,814,1587.5,811.5,1583.2,805z"/>
		<g class="st37">
			<path class="st43" d="M1527.1,797.9c6.8,3.9,1.2,6.5,21.1,7.4c18.8,0.8,20.2-6.1,25.7-11.3c-9.3-6.2-23.6-6.4-32-7.5
				c-10.4-1.3-5.2,0.4-18.7,6.6c-0.3,0.2-0.7,0.3-1,0.5C1520.6,795.7,1521.8,794.8,1527.1,797.9z"/>
		</g>
		<g class="st46">
			<path class="st39" d="M1577.9,824.5c-8.1,6.2-16.1,7.2-42.7,5.6c-9.3-0.6-16-2.3-20.8-4.2c4.4,2.9,10.2,4.2,16.3,4.8
				c11.9,1.3,17.1,2.2,27.9,1.8s22.7-3.5,26.3-11.8c1.7-4,2.3-6.5,1.6-9.2C1584.8,815.9,1582.1,821.2,1577.9,824.5z"/>
		</g>
	</g>
</g>
</svg>
