<?xml version="1.0" encoding="utf-8"?>
<!-- Generator: Adobe Illustrator 25.2.3, SVG Export Plug-In . SVG Version: 6.00 Build 0)  -->
<svg version="1.1" id="Layer_1" xmlns="http://www.w3.org/2000/svg" xmlns:xlink="http://www.w3.org/1999/xlink" x="0px" y="0px"
	 viewBox="0 0 1600 900" style="enable-background:new 0 0 1600 900;" xml:space="preserve">
<style type="text/css">
	.st0{clip-path:url(#SVGID_2_);}
	.st1{fill:url(#SVGID_3_);}
	.st2{fill:#96D7E4;}
	.st3{fill:#75461C;}
	.st4{fill:#317037;}
	.st5{opacity:0.5;}
	.st6{fill:#6575B7;}
	.st7{fill:#43485C;}
	.st8{fill:#454755;}
	.st9{fill:#6C7192;}
	.st10{fill:#C3E7F2;}
	.st11{fill:#93ADB6;}
	.st12{fill:#FFFFFF;}
	.st13{fill:#E4EAF1;}
	.st14{fill:#ACB0B5;}
	.st15{opacity:0.4;}
	.st16{fill:#08486D;}
	.st17{fill:#737579;}
	.st18{fill:#355C7D;}
	.st19{fill:#B2D5DD;}
	.st20{opacity:0.4;fill:#355C7D;enable-background:new    ;}
	.st21{fill:url(#SVGID_4_);}
	.st22{fill:url(#SVGID_5_);}
	.st23{fill:url(#SVGID_6_);}
	.st24{fill:url(#SVGID_7_);}
	.st25{fill:url(#SVGID_8_);}
	.st26{fill:url(#SVGID_9_);}
	.st27{fill:url(#SVGID_10_);}
	.st28{fill:url(#SVGID_11_);}
	.st29{fill:#689601;}
	.st30{fill:#7AB101;}
	.st31{fill:#83BE01;}
	.st32{fill:#946A28;}
	.st33{fill:#785311;}
	.st34{fill:#93C223;}
	.st35{fill:#789D14;}
	.st36{fill:#BC965B;}
	.st37{fill:#7B8AA7;}
	.st38{opacity:0.44;}
	.st39{fill:none;}
	.st40{fill:#484949;}
	.st41{fill:#BABABA;}
</style>
<g>
	<defs>
		<rect id="SVGID_1_" width="1600" height="900"/>
	</defs>
	<clipPath id="SVGID_2_">
		<use xlink:href="#SVGID_1_"  style="overflow:visible;"/>
	</clipPath>
	<g class="st0">
		
			<linearGradient id="SVGID_3_" gradientUnits="userSpaceOnUse" x1="805.1789" y1="-124" x2="787.8189" y2="1320.92" gradientTransform="matrix(1 0 0 -1 0 900)">
			<stop  offset="0.28" style="stop-color:#DCFCFF"/>
			<stop  offset="0.45" style="stop-color:#B0FDFD"/>
			<stop  offset="0.78" style="stop-color:#57FFFA"/>
		</linearGradient>
		<polygon class="st1" points="1900.5,620 -308.5,617.8 -308.5,-100 1900.5,-97.8 		"/>
		<path class="st2" d="M181.4,612.3c0,0,53.1-99.5,141.6-95.3c28.1,1.3,46.9,10.6,90.4,57.6s57.2,89.7,119,78.4s186-90.8,264.4-92.3
			s66.5-10.4,127.8,5.2s159-4.7,159-4.7s200.9-69.9,463.8,102.7l-359.6,17.6l-782.3-10.8l-183.7-29.9L181.4,612.3z"/>
		<path class="st3" d="M218.6,490.5c0.1,4.9,1.1,9.7,3.1,14.2c4.9,10.2,13.2,9.9,14,9.8l-0.3-22.7l5.1,0.3v12.6
			c2.2,0.6,4.6,0.2,6.5-1.3c4.2-3.1,5.6-9.5,5.8-10.6l2.1,0.1c-0.4,2.1-0.9,4.1-1.3,6.2c1.5,1.5,3.8,2,5.8,1.3
			c3.6-1.4,5.1-6.5,5.3-7.1h1.6c0,0-1,14.3-13.4,9.6c-2.3,5-7.5,10.4-12.4,7.7c0.3,15.6,1.9,76.6,1.9,76.6h-5.7l-1-66.9
			c-1.4-0.1-8.2-0.8-13.6-9.6c-5.1-8.3-5.5-18.2-5.6-20.6L218.6,490.5z"/>
		<path class="st4" d="M205.1,461.9c0,0,44.5-30.1,70.2-1.6c22.7,24.8-0.2,36.2-15.4,35.5c-23.3,0.1-51.9-2-51.9-2
			S176.3,486.7,205.1,461.9z"/>
		
			<ellipse transform="matrix(0.4426 -0.8967 0.8967 0.4426 -289.0185 441.2655)" class="st4" cx="210.4" cy="453.1" rx="13.8" ry="11.1"/>
		<g id="house" class="st5">
			<g id="bg">
				<polygon class="st6" points="603.3,434.1 603.3,411 599.6,411 599.6,395.6 594.6,395.6 594.6,372.5 592.1,372.5 592.1,395.6 
					583.4,395.6 583.4,411 578.4,411 578.4,434.1 574.6,434.1 574.6,624 605.8,624 605.8,434.1 				"/>
				<polygon class="st7" points="612.1,434.1 612.1,411 607.1,411 607.1,395.6 599.6,395.6 599.6,411 603.3,411 603.3,434.1 
					605.8,434.1 605.8,624 615.8,624 615.8,434.1 				"/>
				<rect x="594.6" y="372.5" class="st7" width="1.3" height="23.1"/>
			</g>
			<g id="windows" class="st5">
				<rect x="578.4" y="441.8" class="st8" width="6.3" height="7.7"/>
				<rect x="595.9" y="441.8" class="st8" width="6.3" height="7.7"/>
				<rect x="588.4" y="441.8" class="st8" width="3.8" height="7.7"/>
				<rect x="578.4" y="457.2" class="st8" width="6.3" height="7.7"/>
				<rect x="595.9" y="457.2" class="st8" width="6.3" height="7.7"/>
				<rect x="588.4" y="457.2" class="st8" width="3.8" height="7.7"/>
				<rect x="578.4" y="472.6" class="st8" width="6.3" height="7.7"/>
				<rect x="595.9" y="472.6" class="st8" width="6.3" height="7.7"/>
				<rect x="588.4" y="472.6" class="st8" width="3.8" height="7.7"/>
				<rect x="578.4" y="488" class="st8" width="6.3" height="7.7"/>
				<rect x="595.9" y="488" class="st8" width="6.3" height="7.7"/>
				<rect x="588.4" y="488" class="st8" width="3.8" height="7.7"/>
				<rect x="578.4" y="503.4" class="st8" width="6.3" height="7.7"/>
				<rect x="595.9" y="503.4" class="st8" width="6.3" height="7.7"/>
				<rect x="588.4" y="503.4" class="st8" width="3.8" height="7.7"/>
				<rect x="578.4" y="518.8" class="st8" width="6.3" height="7.7"/>
				<rect x="595.9" y="518.8" class="st8" width="6.3" height="7.7"/>
				<rect x="588.4" y="518.8" class="st8" width="3.8" height="7.7"/>
				<rect x="578.4" y="534.2" class="st8" width="6.3" height="7.7"/>
				<rect x="595.9" y="534.2" class="st8" width="6.3" height="7.7"/>
				<rect x="588.4" y="534.2" class="st8" width="3.8" height="7.7"/>
				<rect x="578.4" y="549.6" class="st8" width="6.3" height="7.7"/>
				<rect x="595.9" y="549.6" class="st8" width="6.3" height="7.7"/>
				<rect x="588.4" y="549.6" class="st8" width="3.8" height="7.7"/>
				<rect x="578.4" y="565" class="st8" width="6.3" height="7.7"/>
				<rect x="595.9" y="565" class="st8" width="6.3" height="7.7"/>
				<rect x="588.4" y="565" class="st8" width="3.8" height="7.7"/>
				<rect x="578.4" y="580.4" class="st8" width="6.3" height="7.7"/>
				<rect x="595.9" y="580.4" class="st8" width="6.3" height="7.7"/>
				<rect x="588.4" y="580.4" class="st8" width="3.8" height="7.7"/>
				<rect x="578.4" y="595.8" class="st8" width="6.3" height="7.7"/>
				<rect x="595.9" y="595.8" class="st8" width="6.3" height="7.7"/>
				<rect x="588.4" y="595.8" class="st8" width="3.8" height="7.7"/>
				<rect x="578.4" y="611.2" class="st8" width="6.3" height="7.7"/>
				<rect x="595.9" y="611.2" class="st8" width="6.3" height="7.7"/>
				<rect x="588.4" y="611.2" class="st8" width="3.8" height="7.7"/>
				<rect x="589.6" y="416.2" class="st8" width="1.3" height="15.4"/>
				<rect x="593.4" y="416.2" class="st8" width="1.3" height="15.4"/>
				<rect x="597.1" y="416.2" class="st8" width="1.3" height="15.4"/>
				<rect x="585.9" y="416.2" class="st8" width="1.3" height="15.4"/>
				<rect x="582.1" y="416.2" class="st8" width="1.3" height="15.4"/>
			</g>
			<g id="light">
				<polygon class="st9" points="594.6,372.5 592.1,372.5 592.1,391.2 592.4,373.2 				"/>
				<polygon class="st9" points="599.6,395.6 583.4,395.6 583.4,409.8 583.8,396.7 				"/>
				<polygon class="st9" points="603.3,411 578.4,411 578.4,432.5 578.8,412 				"/>
				<polygon class="st9" points="574.6,434.1 574.6,605.8 575.2,435.2 605.8,434.1 				"/>
			</g>
		</g>
		<g id="house-2">
			<g id="bg-2">
				<rect x="754.8" y="324.6" class="st10" width="112.5" height="306.3"/>
				<rect x="867.2" y="324.6" class="st11" width="38.9" height="306.3"/>
			</g>
			<g id="windwos">
				<rect x="767.7" y="340.2" class="st11" width="34.6" height="20.8"/>
				<rect x="811" y="340.2" class="st11" width="17.3" height="20.8"/>
				<rect x="837" y="340.2" class="st11" width="17.3" height="20.8"/>
				<rect x="767.7" y="376.5" class="st11" width="34.6" height="20.8"/>
				<rect x="811" y="376.5" class="st11" width="17.3" height="20.8"/>
				<rect x="837" y="376.5" class="st11" width="17.3" height="20.8"/>
				<rect x="767.7" y="412.9" class="st11" width="34.6" height="20.8"/>
				<rect x="811" y="412.9" class="st11" width="17.3" height="20.8"/>
				<rect x="837" y="412.9" class="st11" width="17.3" height="20.8"/>
				<rect x="767.7" y="449.2" class="st11" width="34.6" height="20.8"/>
				<rect x="811" y="449.2" class="st11" width="17.3" height="20.8"/>
				<rect x="837" y="449.2" class="st11" width="17.3" height="20.8"/>
				<rect x="767.7" y="485.5" class="st11" width="34.6" height="20.8"/>
				<rect x="811" y="485.5" class="st11" width="17.3" height="20.8"/>
				<rect x="837" y="485.5" class="st11" width="17.3" height="20.8"/>
				<rect x="767.7" y="521.9" class="st11" width="34.6" height="20.8"/>
				<rect x="811" y="521.9" class="st11" width="17.3" height="20.8"/>
				<rect x="837" y="521.9" class="st11" width="17.3" height="20.8"/>
				<rect x="767.7" y="558.2" class="st11" width="34.6" height="20.8"/>
				<rect x="811" y="558.2" class="st11" width="17.3" height="20.8"/>
				<rect x="837" y="558.2" class="st11" width="17.3" height="20.8"/>
				<rect x="767.7" y="594.5" class="st11" width="34.6" height="20.8"/>
				<rect x="811" y="594.5" class="st11" width="17.3" height="20.8"/>
				<rect x="837" y="594.5" class="st11" width="17.3" height="20.8"/>
			</g>
			<polygon id="light-2" class="st12" points="867.2,324.6 754.8,324.6 754.8,593.7 757.2,327 			"/>
		</g>
		<g id="house-3">
			<g id="bg-3">
				<rect x="354" y="361.8" class="st13" width="100.5" height="262.9"/>
				<rect x="407.7" y="334.1" class="st13" width="31.6" height="17.3"/>
				<rect x="396.7" y="334.1" class="st14" width="11" height="17.3"/>
				<rect x="354" y="351.4" class="st14" width="106.6" height="10.4"/>
			</g>
			<g id="windows-2" class="st15">
				<rect x="366.2" y="375.6" class="st16" width="79.2" height="13.8"/>
				<rect x="366.2" y="403.3" class="st16" width="79.2" height="13.8"/>
				<rect x="366.2" y="431" class="st16" width="79.2" height="13.8"/>
				<rect x="366.2" y="458.7" class="st16" width="79.2" height="13.8"/>
				<rect x="366.2" y="514" class="st16" width="79.2" height="13.8"/>
				<rect x="366.2" y="541.7" class="st16" width="79.2" height="13.8"/>
				<rect x="366.2" y="569.4" class="st16" width="79.2" height="13.8"/>
				<rect x="366.2" y="597.1" class="st16" width="79.2" height="13.8"/>
				<rect x="366.2" y="486.3" class="st16" width="79.2" height="13.8"/>
			</g>
			<g id="light-3">
				<polygon class="st12" points="354,351.4 460.6,351.4 460.6,361.8 459.5,352.7 				"/>
				<polygon class="st12" points="407.7,334.1 439.3,334.1 439.3,349.9 437.7,335.9 				"/>
				<polygon class="st12" points="454.5,361.8 454.5,583.9 452.7,361.8 				"/>
			</g>
		</g>
		<g id="house-4">
			<g id="bg-4">
				<rect x="466.8" y="361.8" class="st13" width="100.5" height="262.9"/>
				<rect x="520.4" y="334.1" class="st13" width="31.6" height="17.3"/>
				<rect x="509.4" y="334.1" class="st14" width="11" height="17.3"/>
				<rect x="466.8" y="351.4" class="st14" width="106.6" height="10.4"/>
			</g>
			<g id="windows-3" class="st15">
				<rect x="478.9" y="375.6" class="st16" width="79.2" height="13.8"/>
				<rect x="478.9" y="403.3" class="st16" width="79.2" height="13.8"/>
				<rect x="478.9" y="431" class="st16" width="79.2" height="13.8"/>
				<rect x="478.9" y="458.7" class="st16" width="79.2" height="13.8"/>
				<rect x="478.9" y="514" class="st16" width="79.2" height="13.8"/>
				<rect x="478.9" y="541.7" class="st16" width="79.2" height="13.8"/>
				<rect x="478.9" y="569.4" class="st16" width="79.2" height="13.8"/>
				<rect x="478.9" y="597" class="st16" width="79.2" height="13.8"/>
				<rect x="478.9" y="486.4" class="st16" width="79.2" height="13.8"/>
			</g>
			<g id="light-4">
				<polygon class="st12" points="466.7,351.4 573.3,351.4 573.3,361.8 572.2,352.7 				"/>
				<polygon class="st12" points="520.4,334.1 552,334.1 552,349.9 550.4,335.9 				"/>
				<polygon class="st12" points="567.2,361.8 567.2,583.9 565.4,361.8 				"/>
			</g>
		</g>
		<g id="house-5">
			<g id="bg-5">
				<rect x="727.4" y="260.5" class="st17" width="33.5" height="10.1"/>
				<rect x="626.9" y="270.7" class="st13" width="100.5" height="256.2"/>
				<rect x="642.1" y="243.7" class="st13" width="31.6" height="16.9"/>
				<rect x="727.4" y="270.7" class="st14" width="27.4" height="256.2"/>
				<rect x="673.7" y="243.7" class="st14" width="11" height="16.9"/>
				<rect x="620.8" y="260.5" class="st14" width="106.6" height="10.1"/>
			</g>
			<g id="windows-4" class="st15">
				<rect x="636" y="284.1" class="st16" width="79.2" height="13.5"/>
				<rect x="636" y="311.1" class="st16" width="79.2" height="13.5"/>
				<rect x="636" y="338.1" class="st16" width="79.2" height="13.5"/>
				<rect x="636" y="365.1" class="st16" width="79.2" height="13.5"/>
				<rect x="636" y="419" class="st16" width="79.2" height="13.5"/>
				<rect x="636" y="446" class="st16" width="79.2" height="13.5"/>
				<rect x="636" y="473" class="st16" width="79.2" height="13.5"/>
				<rect x="636" y="499.9" class="st16" width="79.2" height="13.5"/>
				<rect x="636" y="392" class="st16" width="79.2" height="13.5"/>
			</g>
			<g id="light-5">
				<polygon class="st12" points="727.4,260.5 620.8,260.5 620.8,270.7 621.9,261.8 				"/>
				<polygon class="st12" points="673.7,243.7 642.1,243.7 642.1,259.1 643.7,245.4 				"/>
				<polygon class="st12" points="626.9,270.7 626.9,487.1 628.7,270.7 				"/>
			</g>
			<g id="shadow" class="st15">
				<rect x="626.9" y="270.7" class="st18" width="127.9" height="6.7"/>
			</g>
		</g>
		<g id="house-6">
			<g id="bg-6">
				<rect x="627.6" y="375" class="st13" width="127.1" height="251.9"/>
				<rect x="754.8" y="375" class="st14" width="43.5" height="251.9"/>
			</g>
			<g id="windows-5" class="st5">
				<rect x="641" y="389.9" class="st16" width="36.8" height="18.5"/>
				<rect x="704.6" y="389.9" class="st16" width="36.8" height="18.5"/>
				<rect x="684.5" y="389.9" class="st16" width="13.4" height="18.5"/>
				<rect x="641" y="419.5" class="st16" width="36.8" height="18.5"/>
				<rect x="704.6" y="419.5" class="st16" width="36.8" height="18.5"/>
				<rect x="684.5" y="419.5" class="st16" width="13.4" height="18.5"/>
				<rect x="641" y="449.1" class="st16" width="36.8" height="18.5"/>
				<rect x="704.6" y="449.1" class="st16" width="36.8" height="18.5"/>
				<rect x="684.5" y="449.1" class="st16" width="13.4" height="18.5"/>
				<rect x="641" y="478.8" class="st16" width="36.8" height="18.5"/>
				<rect x="704.6" y="478.8" class="st16" width="36.8" height="18.5"/>
				<rect x="684.5" y="478.8" class="st16" width="13.4" height="18.5"/>
				<rect x="641" y="508.4" class="st16" width="36.8" height="18.5"/>
				<rect x="704.6" y="508.4" class="st16" width="36.8" height="18.5"/>
				<rect x="684.5" y="508.4" class="st16" width="13.4" height="18.5"/>
				<rect x="641" y="538" class="st16" width="36.8" height="18.5"/>
				<rect x="704.6" y="538" class="st16" width="36.8" height="18.5"/>
				<rect x="684.5" y="538" class="st16" width="13.4" height="18.5"/>
				<rect x="641" y="567.7" class="st16" width="36.8" height="18.5"/>
				<rect x="704.6" y="567.7" class="st16" width="36.8" height="18.5"/>
				<rect x="684.5" y="567.7" class="st16" width="13.4" height="18.5"/>
				<rect x="641" y="597.3" class="st16" width="36.8" height="18.5"/>
				<rect x="704.6" y="597.3" class="st16" width="36.8" height="18.5"/>
				<rect x="684.5" y="597.3" class="st16" width="13.4" height="18.5"/>
			</g>
			<polygon id="light-6" class="st12" points="754.8,375 627.6,375 627.6,614.1 630.1,377.4 			"/>
		</g>
		<g id="house-7">
			<g id="bg-7">
				<rect x="8.3" y="311.6" class="st19" width="112.5" height="306.3"/>
				<rect x="120.7" y="311.6" class="st11" width="38.9" height="306.3"/>
			</g>
			<g id="windwos-2">
				<rect x="21.2" y="327.2" class="st11" width="34.6" height="20.8"/>
				<rect x="64.5" y="327.2" class="st11" width="17.3" height="20.8"/>
				<rect x="90.5" y="327.2" class="st11" width="17.3" height="20.8"/>
				<rect x="21.2" y="363.5" class="st11" width="34.6" height="20.8"/>
				<rect x="64.5" y="363.5" class="st11" width="17.3" height="20.8"/>
				<rect x="90.5" y="363.5" class="st11" width="17.3" height="20.8"/>
				<rect x="21.2" y="399.8" class="st11" width="34.6" height="20.8"/>
				<rect x="64.5" y="399.8" class="st11" width="17.3" height="20.8"/>
				<rect x="90.5" y="399.8" class="st11" width="17.3" height="20.8"/>
				<rect x="21.2" y="436.2" class="st11" width="34.6" height="20.8"/>
				<rect x="64.5" y="436.2" class="st11" width="17.3" height="20.8"/>
				<rect x="90.5" y="436.2" class="st11" width="17.3" height="20.8"/>
				<rect x="21.2" y="472.5" class="st11" width="34.6" height="20.8"/>
				<rect x="64.5" y="472.5" class="st11" width="17.3" height="20.8"/>
				<rect x="90.5" y="472.5" class="st11" width="17.3" height="20.8"/>
				<rect x="21.2" y="508.9" class="st11" width="34.6" height="20.8"/>
				<rect x="64.5" y="508.9" class="st11" width="17.3" height="20.8"/>
				<rect x="90.5" y="508.9" class="st11" width="17.3" height="20.8"/>
				<rect x="21.2" y="545.2" class="st11" width="34.6" height="20.8"/>
				<rect x="64.5" y="545.2" class="st11" width="17.3" height="20.8"/>
				<rect x="90.5" y="545.2" class="st11" width="17.3" height="20.8"/>
				<rect x="21.2" y="581.5" class="st11" width="34.6" height="20.8"/>
				<rect x="64.5" y="581.5" class="st11" width="17.3" height="20.8"/>
				<rect x="90.5" y="581.5" class="st11" width="17.3" height="20.8"/>
			</g>
			<polygon id="light-7" class="st12" points="120.7,311.6 8.3,311.6 8.3,580.7 10.7,314 			"/>
			<g id="shadow-2">
				<polygon class="st20" points="159.7,358.3 159.7,617.9 220.2,617.9 220.2,431 				"/>
			</g>
		</g>
		<g id="house-8">
			<g id="bg-8">
				<rect x="154.3" y="311.6" class="st19" width="112.5" height="306.3"/>
				<rect x="266.7" y="311.6" class="st11" width="38.9" height="306.3"/>
			</g>
			<g id="windwos-3">
				<rect x="167.2" y="327.2" class="st11" width="34.6" height="20.8"/>
				<rect x="210.5" y="327.2" class="st11" width="17.3" height="20.8"/>
				<rect x="236.4" y="327.2" class="st11" width="17.3" height="20.8"/>
				<rect x="167.2" y="363.5" class="st11" width="34.6" height="20.8"/>
				<rect x="210.5" y="363.5" class="st11" width="17.3" height="20.8"/>
				<rect x="236.4" y="363.5" class="st11" width="17.3" height="20.8"/>
				<rect x="167.2" y="399.8" class="st11" width="34.6" height="20.8"/>
				<rect x="210.5" y="399.8" class="st11" width="17.3" height="20.8"/>
				<rect x="236.4" y="399.8" class="st11" width="17.3" height="20.8"/>
				<rect x="167.2" y="436.2" class="st11" width="34.6" height="20.8"/>
				<rect x="210.5" y="436.2" class="st11" width="17.3" height="20.8"/>
				<rect x="236.4" y="436.2" class="st11" width="17.3" height="20.8"/>
				<rect x="167.2" y="472.5" class="st11" width="34.6" height="20.8"/>
				<rect x="210.5" y="472.5" class="st11" width="17.3" height="20.8"/>
				<rect x="236.4" y="472.5" class="st11" width="17.3" height="20.8"/>
				<rect x="167.2" y="508.9" class="st11" width="34.6" height="20.8"/>
				<rect x="210.5" y="508.9" class="st11" width="17.3" height="20.8"/>
				<rect x="236.4" y="508.9" class="st11" width="17.3" height="20.8"/>
				<rect x="167.2" y="545.2" class="st11" width="34.6" height="20.8"/>
				<rect x="210.5" y="545.2" class="st11" width="17.3" height="20.8"/>
				<rect x="236.4" y="545.2" class="st11" width="17.3" height="20.8"/>
				<rect x="167.2" y="581.5" class="st11" width="34.6" height="20.8"/>
				<rect x="210.5" y="581.5" class="st11" width="17.3" height="20.8"/>
				<rect x="236.4" y="581.5" class="st11" width="17.3" height="20.8"/>
			</g>
			<g id="shadow-3">
				<polygon class="st20" points="305.7,352.9 305.7,608.3 366.2,608.3 371.1,363.5 				"/>
			</g>
		</g>
		<g id="house-9">
			<g id="bg-9">
				<rect x="64.8" y="411" class="st17" width="26" height="7.9"/>
				<rect x="-13.2" y="418.9" class="st13" width="78" height="199"/>
				<rect x="-1.4" y="397.9" class="st13" width="24.5" height="13.1"/>
				<rect x="64.8" y="418.9" class="st14" width="21.3" height="199"/>
				<rect x="23.1" y="397.9" class="st14" width="8.6" height="13.1"/>
				<rect x="-18" y="411" class="st14" width="82.8" height="7.9"/>
			</g>
			<g id="windows-6" class="st15">
				<rect x="-6.1" y="429.4" class="st16" width="61.5" height="10.5"/>
				<rect x="-6.1" y="450.3" class="st16" width="61.5" height="10.5"/>
				<rect x="-6.1" y="471.3" class="st16" width="61.5" height="10.5"/>
				<rect x="-6.1" y="492.2" class="st16" width="61.5" height="10.5"/>
				<rect x="-6.1" y="534.1" class="st16" width="61.5" height="10.5"/>
				<rect x="-6.1" y="555" class="st16" width="61.5" height="10.5"/>
				<rect x="-6.1" y="576" class="st16" width="61.5" height="10.5"/>
				<rect x="-6.1" y="596.9" class="st16" width="61.5" height="10.5"/>
				<rect x="-6.1" y="513.1" class="st16" width="61.5" height="10.5"/>
			</g>
			<g id="light-8">
				<polygon class="st12" points="64.8,411 -18,411 -18,418.9 -17.1,412 				"/>
				<polygon class="st12" points="23.1,397.9 -1.4,397.9 -1.4,409.9 -0.2,399.3 				"/>
			</g>
			<g id="shadow-4" class="st15">
				<rect x="-13.2" y="418.9" class="st18" width="99.3" height="5.2"/>
			</g>
		</g>
		<g id="house-10">
			<g id="bg-10">
				<rect x="-12.6" y="422.2" class="st13" width="98.7" height="195.6"/>
				<rect x="86.1" y="422.2" class="st14" width="33.8" height="195.6"/>
			</g>
			<g id="windows-7" class="st5">
				<rect x="-2.2" y="433.7" class="st16" width="28.6" height="14.4"/>
				<rect x="47.1" y="433.7" class="st16" width="28.6" height="14.4"/>
				<rect x="31.5" y="433.7" class="st16" width="10.4" height="14.4"/>
				<rect x="-2.2" y="456.8" class="st16" width="28.6" height="14.4"/>
				<rect x="47.1" y="456.8" class="st16" width="28.6" height="14.4"/>
				<rect x="31.5" y="456.8" class="st16" width="10.4" height="14.4"/>
				<rect x="-2.2" y="479.8" class="st16" width="28.6" height="14.4"/>
				<rect x="47.1" y="479.8" class="st16" width="28.6" height="14.4"/>
				<rect x="31.5" y="479.8" class="st16" width="10.4" height="14.4"/>
				<rect x="-2.2" y="502.8" class="st16" width="28.6" height="14.4"/>
				<rect x="47.1" y="502.8" class="st16" width="28.6" height="14.4"/>
				<rect x="31.5" y="502.8" class="st16" width="10.4" height="14.4"/>
				<rect x="-2.2" y="525.8" class="st16" width="28.6" height="14.4"/>
				<rect x="47.1" y="525.8" class="st16" width="28.6" height="14.4"/>
				<rect x="31.5" y="525.8" class="st16" width="10.4" height="14.4"/>
				<rect x="-2.2" y="548.8" class="st16" width="28.6" height="14.4"/>
				<rect x="47.1" y="548.8" class="st16" width="28.6" height="14.4"/>
				<rect x="31.5" y="548.8" class="st16" width="10.4" height="14.4"/>
				<rect x="-2.2" y="571.8" class="st16" width="28.6" height="14.4"/>
				<rect x="47.1" y="571.8" class="st16" width="28.6" height="14.4"/>
				<rect x="31.5" y="571.8" class="st16" width="10.4" height="14.4"/>
				<rect x="-2.2" y="594.9" class="st16" width="28.6" height="14.4"/>
				<rect x="47.1" y="594.9" class="st16" width="28.6" height="14.4"/>
				<rect x="31.5" y="594.9" class="st16" width="10.4" height="14.4"/>
			</g>
			<polygon id="light-9" class="st12" points="86.1,422.2 -12.6,422.2 -12.6,607.9 -10.8,424.1 			"/>
		</g>
		
			<linearGradient id="SVGID_4_" gradientUnits="userSpaceOnUse" x1="99.1908" y1="823.8693" x2="148.4208" y2="873.1292" gradientTransform="matrix(1 0 0 -1 0 900)">
			<stop  offset="0.15" style="stop-color:#80CAD5"/>
			<stop  offset="0.82" style="stop-color:#D5EDF2"/>
		</linearGradient>
		<path class="st21" d="M98.7,48.3c0,0,1-7.4,13.3-12.5s22.8-7.8,33.5-2s8.4,19.2,6.2,20.8c-4.4,3-13.9,7-39.3,3.1
			C97.1,55.4,98.7,48.3,98.7,48.3z"/>
		
			<linearGradient id="SVGID_5_" gradientUnits="userSpaceOnUse" x1="-92.0157" y1="258.2548" x2="-11.0757" y2="339.2548" gradientTransform="matrix(0.97 -9.000000e-02 -7.000000e-02 -0.77 152.93 274.45)">
			<stop  offset="0.4" style="stop-color:#ABCBE9"/>
			<stop  offset="0.52" style="stop-color:#B8D5ED"/>
			<stop  offset="0.81" style="stop-color:#D1E9F5"/>
			<stop  offset="0.98" style="stop-color:#DAF0F8"/>
		</linearGradient>
		<path class="st22" d="M42,43.2c0,0,3.4-11.2,27.3-17.8s39.4-9.8,52.8,1s6.7,28.9-2.7,31.2s-48.5,4.1-72.1-3.2
			C47.3,54.4,38.8,51,42,43.2z"/>
		
			<linearGradient id="SVGID_6_" gradientUnits="userSpaceOnUse" x1="354.374" y1="761.256" x2="446.234" y2="853.176" gradientTransform="matrix(1 0 0 -1 0 900)">
			<stop  offset="0.15" style="stop-color:#80CAD5"/>
			<stop  offset="0.9" style="stop-color:#D5EDF2"/>
		</linearGradient>
		<path class="st23" d="M352.1,86.4c0,0,1.9-12.5,25.7-21.1s43.8-13.2,64.5-3.3s16.3,32.3,11.9,35c-8.5,5.1-26.8,11.8-75.7,5.3
			C349,98.3,352.1,86.4,352.1,86.4z"/>
		
			<linearGradient id="SVGID_7_" gradientUnits="userSpaceOnUse" x1="1209.3837" y1="809.6364" x2="1258.6136" y2="858.8964" gradientTransform="matrix(1 0 0 -1 0 900)">
			<stop  offset="0.15" style="stop-color:#80CAD5"/>
			<stop  offset="0.82" style="stop-color:#D5EDF2"/>
		</linearGradient>
		<path class="st24" d="M1208.9,62.5c0,0,1-7.4,13.3-12.5s22.8-7.8,33.5-2s8.4,19.2,6.2,20.8c-4.4,3-13.9,7-39.3,3.1
			C1207.3,69.6,1208.9,62.5,1208.9,62.5z"/>
		
			<linearGradient id="SVGID_8_" gradientUnits="userSpaceOnUse" x1="1042.2375" y1="107.8434" x2="1123.1775" y2="188.8434" gradientTransform="matrix(0.97 -9.000000e-02 -7.000000e-02 -0.77 152.93 274.45)">
			<stop  offset="0.4" style="stop-color:#ABCBE9"/>
			<stop  offset="0.52" style="stop-color:#B8D5ED"/>
			<stop  offset="0.81" style="stop-color:#D1E9F5"/>
			<stop  offset="0.98" style="stop-color:#DAF0F8"/>
		</linearGradient>
		<path class="st25" d="M1152.2,57.4c0,0,3.4-11.2,27.3-17.8s39.5-9.8,52.8,1s6.7,28.9-2.7,31.2s-48.6,4.1-72.1-3.2
			C1157.5,68.6,1149,65.3,1152.2,57.4z"/>
		
			<linearGradient id="SVGID_9_" gradientUnits="userSpaceOnUse" x1="1464.5792" y1="747.0308" x2="1556.4293" y2="838.9408" gradientTransform="matrix(1 0 0 -1 0 900)">
			<stop  offset="0.15" style="stop-color:#80CAD5"/>
			<stop  offset="0.9" style="stop-color:#D5EDF2"/>
		</linearGradient>
		<path class="st26" d="M1462.3,100.7c0,0,1.9-12.5,25.7-21.1s43.8-13.2,64.5-3.3s16.3,32.3,11.9,34.9c-8.5,5.1-26.8,11.8-75.8,5.3
			C1459.2,112.5,1462.3,100.7,1462.3,100.7z"/>
		
			<linearGradient id="SVGID_10_" gradientUnits="userSpaceOnUse" x1="48.609" y1="682.1609" x2="120.739" y2="754.331" gradientTransform="matrix(1 0 0 -1 0 900)">
			<stop  offset="0.11" style="stop-color:#C9E9F4"/>
			<stop  offset="0.92" style="stop-color:#C8E9F1"/>
		</linearGradient>
		<path class="st27" d="M46.3,176.6c0,0,1.5-9.2,20.5-15.5s35-9.7,51.5-2.4s13,23.7,9.5,25.7c-6.8,3.8-21.4,8.7-60.5,3.9
			C43.8,185.3,46.3,176.6,46.3,176.6z"/>
		
			<linearGradient id="SVGID_11_" gradientUnits="userSpaceOnUse" x1="1466.2582" y1="-99.9971" x2="1528.9783" y2="-37.2371" gradientTransform="matrix(0.97 -9.000000e-02 -7.000000e-02 -0.77 152.93 274.45)">
			<stop  offset="7.000000e-02" style="stop-color:#C7E8F0"/>
			<stop  offset="0.46" style="stop-color:#D1ECF4"/>
			<stop  offset="1" style="stop-color:#DAF0F8"/>
		</linearGradient>
		<path class="st28" d="M1559.6,206c0,0,2.7-8.2,21.8-13.1s31.5-7.2,42.2,0.7s5.3,21.2-2.2,22.9s-38.8,3-57.6-2.3
			C1563.8,214.2,1557.1,211.8,1559.6,206z"/>
		<path class="st29" d="M29.1,643h-330.2V484.1c5-3.9,12.8-8.2,22.5-7c13.9,1.9,25.5,14.5,28.3,31.2c1.8-0.6,3.8-0.6,5.7,0
			c4,1.5,5.5,5.7,5.7,6.3c0.7-1.8,5.2-14.8,16.9-18.8c12.1-4,26.8,3.4,33.9,18.8c1.1-1.4,5.3-6.2,11.3-6.3
			c7.6-0.1,15.1,7.5,16.9,18.8c11.4-10,26.7-12.5,39.6-6.2c15,7.2,24.2,24.9,22.6,43.8c3.6-1.3,7.6-1.3,11.3,0
			c8,3,11,11.3,11.3,12.5c0.5-0.6,10.3-10.2,22.6-6.3c9.6,3.1,16.5,13.1,16.9,25c11.7-14.2,31-16.7,45.2-6.2
			c14.6,10.8,19.6,32.5,11.2,50.1C23.7,640.3,26.6,641.3,29.1,643z"/>
		<path class="st29" d="M1565.9,614.2h330.2V455.4c-5-3.9-12.8-8.2-22.5-7c-13.9,1.9-25.5,14.5-28.3,31.2c-1.8-0.6-3.8-0.6-5.7,0
			c-4,1.5-5.5,5.7-5.7,6.3c-0.7-1.8-5.2-14.8-16.9-18.8c-12.1-4-26.8,3.4-33.9,18.8c-1.1-1.4-5.3-6.2-11.3-6.3
			c-7.6-0.1-15.2,7.5-16.9,18.8c-11.4-10-26.7-12.5-39.5-6.2c-15,7.2-24.2,24.9-22.6,43.8c-3.6-1.3-7.6-1.3-11.3,0
			c-8,3-11,11.3-11.3,12.6c-0.5-0.6-10.3-10.2-22.6-6.3c-9.6,3.1-16.5,13.1-16.9,25c-11.7-14.2-31-16.7-45.2-6.2
			c-14.5,10.8-19.5,32.5-11.2,50C1571.3,611.4,1568.4,612.5,1565.9,614.2z"/>
		<polygon class="st29" points="1908.5,608 -294.5,608 -299.5,774.8 1903.5,770.3 		"/>
		<rect x="-294.5" y="608" class="st30" width="2203" height="109.2"/>
		<rect x="-294.5" y="608" class="st31" width="2203" height="48.3"/>
		<rect x="339.1" y="409.6" class="st32" width="8.7" height="189.7"/>
		<rect x="339.1" y="409.6" class="st33" width="4.2" height="189.7"/>
		<polygon class="st32" points="315.9,497.3 318.5,494 343.3,521.4 343.2,527.8 		"/>
		<polygon class="st33" points="317.2,495.8 343.2,524.7 343.2,527.8 315.9,497.3 		"/>
		<polygon class="st32" points="312.6,435.7 314.7,432 343.5,455.1 343.3,460.5 		"/>
		<polygon class="st33" points="313.7,434 343.3,457.8 343.3,460.5 312.6,435.7 		"/>
		<polygon class="st32" points="374.9,457 377.2,460.8 344.7,488.7 341.3,486.1 		"/>
		<polygon class="st33" points="376,458.8 342.9,487.4 341.3,486.1 374.9,457 		"/>
		<polygon class="st32" points="374.9,511 377.2,514.5 343.3,543.7 343.2,538.3 		"/>
		<polygon class="st33" points="376,512.7 342.9,541.2 341.3,539.9 374.9,511 		"/>
		<path class="st34" d="M352,510.9c0,12.7,8,22.8,20.8,22.8c12.9,0,20.8-10.2,20.8-22.9s-8.1-22.8-20.8-22.8S352,498.3,352,510.9z"
			/>
		<path class="st34" d="M336.5,511c0,8.9,6.9,16,17.8,16c11.1,0,17.8-7.1,17.8-16s-6.9-16-17.8-16
			C343.5,495.1,336.5,502.2,336.5,511z"/>
		<path class="st34" d="M380,511.7c0,6.9,5.1,12.5,13,12.5s13.1-5.6,13.1-12.5s-5-12.5-13.1-12.5S380,504.8,380,511.7z"/>
		<path class="st35" d="M354.3,495.1c0.9,0,1.9,0.1,2.8,0.2l0,0c-5.4,0.8-9.5,5.5-9.4,11c0,6.2,4.5,11.3,11.6,11.3
			c1.1,0,2.1-0.1,3.2-0.4c7,6.7,18.1,6.4,24.9-0.5c2,1.7,4.6,2.6,7.3,2.6c6.8,0,10.9-4.7,10.9-10.6c0-0.4-0.1-0.9-0.1-1.3
			c0.5,1.4,0.8,2.9,0.8,4.4c0,6.9-5,12.5-13.1,12.5c-1,0-1.9-0.1-2.9-0.2c-5.9,9.6-18.5,12.6-28.1,6.8c-1.7-1.1-3.3-2.4-4.6-3.9
			c-1.1,0.2-2.1,0.2-3.2,0.2c-10.9,0-17.8-7.1-17.8-16S343.5,495.1,354.3,495.1z"/>
		<path class="st34" d="M357.2,460.5c0,11.9,7.7,21.5,20,21.5c12.4,0,20-9.6,20-21.5s-7.7-21.5-20-21.5
			C365.1,439,357.2,448.7,357.2,460.5z"/>
		<path class="st35" d="M372.3,439.6c-5.5,1.5-9.1,7.9-9.1,15c0,8.9,6.3,16.1,16.1,17c10.1,0.9,16.7-6.2,16.7-16
			c0-1.6-0.2-3.1-0.8-4.6c1.3,3,1.9,6.3,1.9,9.5c0,11.9-7.6,21.5-20,21.5c-12.2,0-20-9.6-20-21.5C357.2,450.4,363,441.8,372.3,439.6
			z"/>
		<path class="st34" d="M309.1,366c1,0,2,0.1,2.9,0.3c5.9-15.9,17.9-26.6,33.4-26.2c12.2,0.4,21.7,7.3,27.8,17.8
			c1.3-0.2,2.6-0.2,3.8-0.2c19.3,0.5,31.1,18.3,30.6,39.6c-0.5,21.5-12.8,38.5-32.3,37.9c-4.1-0.1-8.2-1.1-11.9-2.9
			c-12.2,9.5-29.5,8.7-40.7-1.9c-4.3,3.6-9.7,5.4-15.2,5.2c-16.1-0.5-28.9-14-28.9-35.6C278.6,378.9,293.3,365.5,309.1,366z"/>
		<path class="st35" d="M312.1,366.1C312.1,366.1,312.1,366.1,312.1,366.1C312.2,366.2,312.1,366.1,312.1,366.1
			C312.1,366.1,312.1,366.1,312.1,366.1z"/>
		<path class="st35" d="M309.1,366c0.9,0,1.9,0.1,2.8,0.3c-8.3,2.1-14.6,10.6-14.6,20.8c0,14,10.7,22.9,24.1,21.8
			c4.1-0.3,8-1.8,11.3-4.3c5.1,8.2,13.5,13.6,23,13.6c5.4,0,10.7-1.8,15.1-5c4.1,3.1,9.2,4.8,14.4,4.7c14.4,0,22.4-13,21.3-29.2
			c-0.4-5.7-2.1-11.3-4.8-16.3c4.2,6.8,6.4,15.5,6.2,25c-0.5,21.5-12.8,38.5-32.3,37.9c-4.1-0.1-8.2-1.1-11.9-2.9
			c-12.2,9.5-29.5,8.7-40.7-1.9c-4.3,3.6-9.7,5.4-15.2,5.2c-16.1-0.5-28.9-14-28.9-35.6C278.6,378.9,293.3,365.5,309.1,366z"/>
		<path class="st34" d="M298.9,434c0,8.2,5.3,14.8,13.7,14.8s13.7-6.6,13.7-14.8s-5.3-14.8-13.7-14.8S298.9,425.9,298.9,434z"/>
		<path class="st35" d="M309.2,419.6c-3.8,1-6.3,5.4-6.3,10.3c0,6.1,4.3,11.1,11,11.6c7,0.6,11.4-4.2,11.4-10.9
			c0-1.1-0.1-2.1-0.5-3.2c0.9,2.1,1.3,4.3,1.3,6.6c0,8.2-5.2,14.8-13.7,14.8s-13.7-6.6-13.7-14.8
			C298.9,427.1,302.9,421.2,309.2,419.6z"/>
		<path class="st34" d="M322.3,484.8c0,12.7,8.2,22.9,21.2,22.9s21.2-10.2,21.2-22.9s-8.2-22.8-21.2-22.8
			C330.6,462,322.3,472.2,322.3,484.8z"/>
		<path class="st35" d="M338.3,462.6c-5.9,1.5-9.7,8.4-9.7,15.9c0,9.4,6.7,17.1,17.1,18c10.8,0.9,17.7-6.6,17.7-17
			c0-1.7-0.2-3.3-0.7-4.9c1.3,3.2,2,6.7,2,10.1c0,12.7-8,22.9-21.2,22.9s-21.2-10.2-21.2-22.9C322.3,474.1,328.4,465,338.3,462.6z"
			/>
		<path class="st34" d="M283.5,490c1.6-11.5,10.6-19.7,22.4-17.8c1.8,0.3,3.6,0.8,5.3,1.6c3.9-2,8.5-2.7,12.8-1.9
			c12.7,2.1,19.3,13.3,17.6,25.5s-11,20.9-23.9,18.8c-2.7-0.4-5.4-1.4-7.8-2.8c-3.2,1.2-6.7,1.5-10.1,0.9
			C288,512.3,281.9,501.7,283.5,490z"/>
		<path class="st35" d="M283.5,490c1.6-11.5,10.6-19.7,22.4-17.8c1.8,0.3,3.6,0.8,5.3,1.6c0.1-0.1,0.3-0.1,0.4-0.2
			c-0.1,0.1-0.2,0.2-0.4,0.2c-1.6-0.7-3.3-1-5-1c-7.8,0-14.2,6.8-14.2,15.3s6.4,15.3,14.2,15.3c2,0,3.9-0.4,5.7-1.3
			c2.7,1.8,5.9,2.8,9.2,2.8c9.4,0,17-7.7,17-17c0,0,0-0.1,0-0.1c0-4.9-2.1-9.6-5.7-12.8c7.3,4.6,10.7,13.3,9.4,22.5
			c-1.7,12.3-11,20.9-23.9,18.8c-2.7-0.4-5.4-1.4-7.8-2.8c-3.2,1.2-6.7,1.5-10.1,0.9C288,512.3,281.9,501.7,283.5,490z"/>
		<path class="st35" d="M334.9,622.6c-5.3-5.4-8.2-12.6-8.3-20.2c0-16.9,14.7-30.6,32.8-30.6s32.8,13.7,32.8,30.6
			c0,7.5-3,14.8-8.2,20.2H334.9z"/>
		<path class="st35" d="M367.7,622.6c-1.4-3-2.2-6.3-2.2-9.6c0-12.9,11.2-23.4,25.1-23.4s25.1,10.5,25.1,23.4c0,3.3-0.7,6.6-2.2,9.6
			H367.7z"/>
		<path class="st35" d="M268,622.6c0.9-10.5,10.2-18.7,21.6-18.7s20.8,8.2,21.6,18.7H268z"/>
		<path class="st35" d="M300.3,622.6c-2.2-3.6-3.3-7.7-3.3-11.9c0-13.6,11.8-24.6,26.4-24.6s26.3,11,26.3,24.6
			c0,4.2-1.1,8.3-3.3,11.9L300.3,622.6z"/>
		<path class="st35" d="M411.2,622.6c-0.2-0.9-0.3-1.8-0.3-2.7c0-7.9,6.9-14.4,15.4-14.4s15.4,6.4,15.4,14.4c0,0.9-0.1,1.8-0.3,2.7
			H411.2z"/>
		<path class="st34" d="M406.3,613.7c-3.3,0-6.4,1.2-8.8,3.4c0-0.5,0.1-1,0.1-1.5c0-12.1-10.5-21.9-23.5-21.9
			c-2.2,0-4.3,0.3-6.4,0.8c-4.2-5.1-10.6-8-17.2-7.9c-10.2,0-18.7,6.4-20.4,14.8c-4-2.8-8.7-4.3-13.5-4.2c-12,0-19.1,8.7-19.3,19.4
			c-3.1-2.2-6.9-3.5-10.7-3.5c-7.9,0-13.5,4.1-16.1,9.5H268c0.9-10.5,10.2-18.7,21.6-18.7c2.7,0,5.4,0.5,8,1.5
			c2.6-11,13.1-19.2,25.7-19.2c2.6,0,5.1,0.3,7.6,1c6.2-9.7,16.9-15.5,28.4-15.4c13.2,0,24.6,7.3,29.7,17.8c0.5,0,1.1,0,1.6,0
			c12.7,0,23.1,8.8,24.8,20.2c3-2.7,6.8-4.2,10.8-4.2c8.5,0,15.4,6.4,15.4,14.4c0,0.9-0.1,1.8-0.3,2.7h-20.5
			C419.6,617.5,412.1,613.7,406.3,613.7z"/>
		<rect x="1386.1" y="409.6" class="st32" width="8.7" height="189.7"/>
		<rect x="1386.1" y="409.6" class="st33" width="4.2" height="189.7"/>
		<polygon class="st32" points="1362.9,497.3 1365.5,494 1390.3,521.4 1390.2,527.8 		"/>
		<polygon class="st33" points="1364.2,495.8 1390.2,524.7 1390.2,527.8 1362.9,497.3 		"/>
		<polygon class="st32" points="1359.6,435.7 1361.7,432 1390.5,455.1 1390.3,460.5 		"/>
		<polygon class="st33" points="1360.7,434 1390.3,457.8 1390.3,460.5 1359.6,435.7 		"/>
		<polygon class="st32" points="1421.9,457 1424.2,460.8 1391.7,488.7 1388.3,486.1 		"/>
		<polygon class="st33" points="1423,458.8 1389.9,487.4 1388.3,486.1 1421.9,457 		"/>
		<polygon class="st32" points="1421.9,511 1424.2,514.5 1390.3,543.7 1390.2,538.3 		"/>
		<polygon class="st33" points="1423,512.7 1389.9,541.2 1388.3,539.9 1421.9,511 		"/>
		<path class="st34" d="M1399,510.9c0,12.7,8,22.8,20.8,22.8c12.9,0,20.8-10.2,20.8-22.9s-8.1-22.8-20.8-22.8S1399,498.3,1399,510.9
			z"/>
		<path class="st34" d="M1383.5,511c0,8.9,6.8,16,17.8,16c11.1,0,17.8-7.1,17.8-16s-6.9-16-17.8-16
			C1390.5,495.1,1383.5,502.2,1383.5,511z"/>
		<path class="st34" d="M1427.1,511.7c0,6.9,5.1,12.5,13,12.5s13.1-5.6,13.1-12.5s-5-12.5-13.1-12.5
			C1432.2,499.2,1427.1,504.8,1427.1,511.7z"/>
		<path class="st35" d="M1401.3,495.1c0.9,0,1.9,0.1,2.8,0.2l0,0c-5.4,0.8-9.5,5.5-9.4,11c0,6.2,4.5,11.3,11.6,11.3
			c1.1,0,2.1-0.1,3.2-0.4c7,6.7,18.1,6.4,24.8-0.5c2,1.7,4.6,2.6,7.3,2.6c6.8,0,10.9-4.7,10.9-10.6c0-0.4-0.1-0.9-0.1-1.3
			c0.5,1.4,0.8,2.9,0.8,4.4c0,6.9-5,12.5-13.1,12.5c-1,0-1.9-0.1-2.9-0.2c-5.9,9.6-18.5,12.6-28.1,6.8c-1.7-1.1-3.3-2.4-4.6-3.9
			c-1.1,0.2-2.1,0.2-3.2,0.2c-10.9,0-17.8-7.1-17.8-16S1390.5,495.1,1401.3,495.1z"/>
		<path class="st34" d="M1404.2,460.5c0,11.9,7.7,21.5,20,21.5c12.4,0,20-9.6,20-21.5s-7.7-21.5-20-21.5
			C1412.1,439,1404.2,448.7,1404.2,460.5z"/>
		<path class="st35" d="M1419.3,439.6c-5.5,1.5-9.1,7.9-9.1,15c0,8.9,6.3,16.1,16.1,17c10.1,0.9,16.7-6.2,16.7-16
			c0-1.6-0.2-3.1-0.8-4.6c1.3,3,1.9,6.3,1.9,9.5c0,11.9-7.6,21.5-20,21.5c-12.2,0-20-9.6-20-21.5
			C1404.2,450.4,1410,441.8,1419.3,439.6z"/>
		<path class="st34" d="M1356.1,366c1,0,2,0.1,2.9,0.3c5.9-15.9,17.9-26.6,33.4-26.2c12.2,0.4,21.7,7.3,27.8,17.8
			c1.3-0.2,2.6-0.2,3.8-0.2c19.3,0.5,31.1,18.3,30.6,39.6c-0.5,21.5-12.8,38.5-32.3,37.9c-4.1-0.1-8.2-1.1-11.9-2.9
			c-12.2,9.5-29.5,8.7-40.7-1.9c-4.3,3.6-9.7,5.4-15.2,5.2c-16.1-0.5-28.9-14-28.9-35.6C1325.7,378.9,1340.3,365.5,1356.1,366z"/>
		<path class="st35" d="M1359.1,366.1C1359.1,366.1,1359.1,366.1,1359.1,366.1C1359.2,366.2,1359.1,366.1,1359.1,366.1
			C1359.1,366.1,1359.1,366.1,1359.1,366.1z"/>
		<path class="st35" d="M1356.1,366c0.9,0,1.9,0.1,2.8,0.3c-8.3,2.1-14.6,10.6-14.6,20.8c0,14,10.7,22.9,24.1,21.8
			c4.1-0.3,8-1.8,11.3-4.3c5.1,8.2,13.5,13.6,23,13.6c5.4,0,10.7-1.8,15.1-5c4.1,3.1,9.2,4.8,14.4,4.7c14.4,0,22.4-13,21.3-29.2
			c-0.4-5.7-2.1-11.3-4.8-16.3c4.2,6.8,6.4,15.5,6.2,25c-0.5,21.5-12.8,38.5-32.3,37.9c-4.1-0.1-8.2-1.1-11.9-2.9
			c-12.2,9.5-29.5,8.7-40.7-1.9c-4.3,3.6-9.7,5.4-15.2,5.2c-16.1-0.5-28.9-14-28.9-35.6C1325.7,378.9,1340.3,365.5,1356.1,366z"/>
		<path class="st34" d="M1345.9,434c0,8.2,5.3,14.8,13.7,14.8s13.7-6.6,13.7-14.8s-5.3-14.8-13.7-14.8S1345.9,425.9,1345.9,434z"/>
		<path class="st35" d="M1356.2,419.6c-3.8,1-6.3,5.4-6.3,10.3c0,6.1,4.3,11.1,11.1,11.6c7,0.6,11.4-4.2,11.4-10.9
			c0-1.1-0.1-2.1-0.5-3.2c0.9,2.1,1.3,4.3,1.3,6.6c0,8.2-5.2,14.8-13.7,14.8s-13.7-6.6-13.7-14.8
			C1345.9,427.1,1349.9,421.2,1356.2,419.6z"/>
		<path class="st34" d="M1369.3,484.8c0,12.7,8.2,22.9,21.2,22.9c13.2,0,21.2-10.2,21.2-22.9s-8.2-22.8-21.2-22.8
			C1377.7,462,1369.3,472.2,1369.3,484.8z"/>
		<path class="st35" d="M1385.3,462.6c-5.8,1.5-9.7,8.4-9.7,15.9c0,9.4,6.7,17.1,17.1,18c10.8,0.9,17.7-6.6,17.7-17
			c0-1.7-0.2-3.3-0.7-4.9c1.3,3.2,2,6.7,2,10.1c0,12.7-8,22.9-21.2,22.9c-13,0-21.2-10.2-21.2-22.9
			C1369.3,474.1,1375.4,465,1385.3,462.6z"/>
		<path class="st34" d="M1330.5,490c1.6-11.5,10.6-19.7,22.3-17.8c1.8,0.3,3.6,0.8,5.3,1.6c4-2,8.5-2.7,12.8-1.9
			c12.7,2.1,19.3,13.3,17.6,25.5s-11,20.9-23.9,18.8c-2.7-0.4-5.4-1.4-7.8-2.8c-3.2,1.2-6.7,1.5-10.1,0.9
			C1335,512.3,1328.9,501.7,1330.5,490z"/>
		<path class="st35" d="M1330.5,490c1.6-11.5,10.6-19.7,22.3-17.8c1.8,0.3,3.6,0.8,5.3,1.6c0.1-0.1,0.3-0.1,0.4-0.2
			c-0.1,0.1-0.2,0.2-0.4,0.2c-1.6-0.7-3.3-1-5-1c-7.8,0-14.2,6.8-14.2,15.3s6.4,15.3,14.2,15.3c2,0,3.9-0.4,5.7-1.3
			c2.7,1.8,5.9,2.8,9.2,2.8c9.4,0,17-7.7,17-17c0,0,0-0.1,0-0.1c0-4.9-2.1-9.6-5.7-12.8c7.3,4.6,10.7,13.3,9.4,22.5
			c-1.7,12.3-11,20.9-23.9,18.8c-2.7-0.4-5.4-1.4-7.8-2.8c-3.2,1.2-6.7,1.5-10.1,0.9C1335,512.3,1328.9,501.7,1330.5,490z"/>
		<path class="st35" d="M1381.8,622.6c-5.3-5.4-8.2-12.6-8.3-20.2c0-16.9,14.7-30.6,32.8-30.6s32.8,13.7,32.8,30.6
			c0,7.5-3,14.8-8.2,20.2H1381.8z"/>
		<path class="st35" d="M1414.7,622.6c-1.4-3-2.2-6.3-2.2-9.6c0-12.9,11.2-23.4,25.2-23.4s25.1,10.5,25.1,23.4
			c0,3.3-0.7,6.6-2.2,9.6H1414.7z"/>
		<path class="st35" d="M1315,622.6c0.9-10.5,10.2-18.7,21.6-18.7s20.8,8.2,21.6,18.7H1315z"/>
		<path class="st35" d="M1347.3,622.6c-2.2-3.6-3.3-7.7-3.3-11.9c0-13.6,11.8-24.6,26.3-24.6s26.3,11,26.3,24.6
			c0,4.2-1.1,8.3-3.3,11.9H1347.3z"/>
		<path class="st35" d="M1458.2,622.6c-0.2-0.9-0.3-1.8-0.3-2.7c0-7.9,6.9-14.4,15.4-14.4s15.4,6.4,15.4,14.4c0,0.9-0.1,1.8-0.3,2.7
			H1458.2z"/>
		<path class="st34" d="M1453.3,613.7c-3.3,0-6.4,1.2-8.8,3.4c0-0.5,0.1-1,0.1-1.5c0-12.1-10.5-21.9-23.5-21.9
			c-2.2,0-4.3,0.3-6.4,0.8c-4.2-5.1-10.6-8-17.2-7.9c-10.2,0-18.7,6.4-20.4,14.8c-4-2.8-8.7-4.3-13.6-4.2c-12,0-19.1,8.7-19.3,19.4
			c-3.1-2.2-6.9-3.5-10.7-3.5c-7.9,0-13.6,4.1-16.1,9.5h-2.3c0.9-10.5,10.2-18.7,21.6-18.7c2.7,0,5.4,0.5,8,1.5
			c2.6-11,13.1-19.2,25.7-19.2c2.6,0,5.1,0.3,7.6,1c6.2-9.7,16.9-15.5,28.4-15.4c13.2,0,24.6,7.3,29.7,17.8c0.6,0,1.1,0,1.6,0
			c12.7,0,23.1,8.8,24.8,20.2c3-2.7,6.8-4.2,10.8-4.2c8.5,0,15.4,6.4,15.4,14.4c0,0.9-0.1,1.8-0.3,2.7h-20.5
			C1466.6,617.5,1459.1,613.7,1453.3,613.7z"/>
		<polygon class="st32" points="1583.9,497.3 1586.5,494 1611.3,521.4 1611.2,527.8 		"/>
		<polygon class="st33" points="1585.2,495.8 1611.2,524.7 1611.2,527.8 1583.9,497.3 		"/>
		<polygon class="st32" points="1580.6,435.7 1582.7,432 1611.5,455.1 1611.3,460.5 		"/>
		<polygon class="st33" points="1581.7,434 1611.3,457.8 1611.3,460.5 1580.6,435.7 		"/>
		<path class="st34" d="M1577.1,366c1,0,2,0.1,2.9,0.3c5.9-15.9,17.9-26.6,33.4-26.2c12.2,0.4,21.7,7.3,27.8,17.8
			c1.3-0.2,2.6-0.2,3.8-0.2c19.3,0.5,31.1,18.3,30.6,39.6c-0.5,21.5-12.8,38.5-32.3,37.9c-4.1-0.1-8.2-1.1-11.9-2.9
			c-12.2,9.5-29.5,8.7-40.7-1.9c-4.3,3.6-9.7,5.4-15.2,5.2c-16.1-0.5-28.9-14-28.9-35.6C1546.7,378.9,1561.3,365.5,1577.1,366z"/>
		<path class="st35" d="M1580.1,366.1C1580.1,366.1,1580.1,366.1,1580.1,366.1C1580.2,366.2,1580.1,366.1,1580.1,366.1
			C1580.1,366.1,1580.1,366.1,1580.1,366.1z"/>
		<path class="st35" d="M1577.1,366c0.9,0,1.9,0.1,2.8,0.3c-8.3,2.1-14.6,10.6-14.6,20.8c0,14,10.7,22.9,24.1,21.8
			c4.1-0.3,8-1.8,11.3-4.3c5.1,8.2,13.5,13.6,23,13.6c5.4,0,10.7-1.8,15.1-5c4.1,3.1,9.2,4.8,14.4,4.7c14.4,0,22.4-13,21.3-29.2
			c-0.4-5.7-2.1-11.3-4.8-16.3c4.2,6.8,6.4,15.5,6.2,25c-0.5,21.5-12.8,38.5-32.3,37.9c-4.1-0.1-8.2-1.1-11.9-2.9
			c-12.2,9.5-29.5,8.7-40.7-1.9c-4.3,3.6-9.7,5.4-15.2,5.2c-16.1-0.5-28.9-14-28.9-35.6C1546.7,378.9,1561.3,365.5,1577.1,366z"/>
		<path class="st34" d="M1566.9,434c0,8.2,5.3,14.8,13.7,14.8s13.7-6.6,13.7-14.8s-5.3-14.8-13.7-14.8S1566.9,425.9,1566.9,434z"/>
		<path class="st35" d="M1577.2,419.6c-3.8,1-6.3,5.4-6.3,10.3c0,6.1,4.3,11.1,11.1,11.6c7,0.6,11.4-4.2,11.4-10.9
			c0-1.1-0.1-2.1-0.5-3.2c0.9,2.1,1.3,4.3,1.3,6.6c0,8.2-5.2,14.8-13.7,14.8s-13.7-6.6-13.7-14.8
			C1566.9,427.1,1570.9,421.2,1577.2,419.6z"/>
		<path class="st34" d="M1590.3,484.8c0,12.7,8.2,22.9,21.2,22.9c13.2,0,21.2-10.2,21.2-22.9s-8.2-22.8-21.2-22.8
			C1598.7,462,1590.3,472.2,1590.3,484.8z"/>
		<path class="st35" d="M1606.3,462.6c-5.8,1.5-9.7,8.4-9.7,15.9c0,9.4,6.7,17.1,17.1,18c10.8,0.9,17.7-6.6,17.7-17
			c0-1.7-0.2-3.3-0.7-4.9c1.3,3.2,2,6.7,2,10.1c0,12.7-8,22.9-21.2,22.9c-13,0-21.2-10.2-21.2-22.9
			C1590.3,474.1,1596.4,465,1606.3,462.6z"/>
		<path class="st34" d="M1551.5,490c1.6-11.5,10.6-19.7,22.3-17.8c1.8,0.3,3.6,0.8,5.3,1.6c4-2,8.5-2.7,12.8-1.9
			c12.7,2.1,19.3,13.3,17.6,25.5s-11,20.9-23.9,18.8c-2.7-0.4-5.4-1.4-7.8-2.8c-3.2,1.2-6.7,1.5-10.1,0.9
			C1556,512.3,1549.9,501.7,1551.5,490z"/>
		<path class="st35" d="M1551.5,490c1.6-11.5,10.6-19.7,22.3-17.8c1.8,0.3,3.6,0.8,5.3,1.6c0.1-0.1,0.3-0.1,0.4-0.2
			c-0.1,0.1-0.2,0.2-0.4,0.2c-1.6-0.7-3.3-1-5-1c-7.8,0-14.2,6.8-14.2,15.3s6.4,15.3,14.2,15.3c2,0,3.9-0.4,5.7-1.3
			c2.7,1.8,5.9,2.8,9.2,2.8c9.4,0,17-7.7,17-17c0,0,0-0.1,0-0.1c0-4.9-2.1-9.6-5.7-12.8c7.3,4.6,10.7,13.3,9.4,22.5
			c-1.7,12.3-11,20.9-23.9,18.8c-2.7-0.4-5.4-1.4-7.8-2.8c-3.2,1.2-6.7,1.5-10.1,0.9C1556,512.3,1549.9,501.7,1551.5,490z"/>
		<path class="st35" d="M1602.8,622.6c-5.3-5.4-8.2-12.6-8.3-20.2c0-16.9,14.7-30.6,32.8-30.6s32.8,13.7,32.8,30.6
			c0,7.5-3,14.8-8.2,20.2H1602.8z"/>
		<path class="st35" d="M1536,622.6c0.9-10.5,10.2-18.7,21.6-18.7s20.8,8.2,21.6,18.7H1536z"/>
		<path class="st35" d="M1568.3,622.6c-2.2-3.6-3.3-7.7-3.3-11.9c0-13.6,11.8-24.6,26.3-24.6s26.3,11,26.3,24.6
			c0,4.2-1.1,8.3-3.3,11.9H1568.3z"/>
		<path class="st34" d="M1674.3,613.7c-3.3,0-6.4,1.2-8.8,3.4c0-0.5,0.1-1,0.1-1.5c0-12.1-10.5-21.9-23.5-21.9
			c-2.2,0-4.3,0.3-6.4,0.8c-4.2-5.1-10.6-8-17.2-7.9c-10.2,0-18.7,6.4-20.4,14.8c-4-2.8-8.7-4.3-13.6-4.2c-12,0-19.1,8.7-19.3,19.4
			c-3.1-2.2-6.9-3.5-10.7-3.5c-7.9,0-13.6,4.1-16.1,9.5h-2.3c0.9-10.5,10.2-18.7,21.6-18.7c2.7,0,5.4,0.5,8,1.5
			c2.6-11,13.1-19.2,25.7-19.2c2.6,0,5.1,0.3,7.6,1c6.2-9.7,16.9-15.5,28.4-15.4c13.2,0,24.6,7.3,29.7,17.8c0.6,0,1.1,0,1.6,0
			c12.7,0,23.1,8.8,24.8,20.2c3-2.7,6.8-4.2,10.8-4.2c8.5,0,15.4,6.4,15.4,14.4c0,0.9-0.1,1.8-0.3,2.7h-20.5
			C1687.6,617.5,1680.1,613.7,1674.3,613.7z"/>
		<rect x="78.4" y="409.6" class="st32" width="8.7" height="189.7"/>
		<rect x="78.4" y="409.6" class="st33" width="4.2" height="189.7"/>
		<polygon class="st32" points="55.2,497.3 57.8,494 82.6,521.4 82.5,527.8 		"/>
		<polygon class="st33" points="56.5,495.8 82.5,524.7 82.5,527.8 55.2,497.3 		"/>
		<polygon class="st32" points="51.9,435.7 54,432 82.8,455.1 82.6,460.5 		"/>
		<polygon class="st33" points="53,434 82.6,457.8 82.6,460.5 51.9,435.7 		"/>
		<polygon class="st32" points="114.2,457 116.4,460.8 84,488.7 80.6,486.1 		"/>
		<polygon class="st33" points="115.3,458.8 82.2,487.4 80.6,486.1 114.2,457 		"/>
		<polygon class="st32" points="114.2,511 116.4,514.5 82.6,543.7 82.5,538.3 		"/>
		<polygon class="st33" points="115.3,512.7 82.2,541.2 80.6,539.9 114.2,511 		"/>
		<path class="st34" d="M91.3,510.9c0,12.7,8.1,22.8,20.8,22.8s20.8-10.2,20.8-22.9s-8-22.8-20.8-22.8S91.3,498.3,91.3,510.9z"/>
		<path class="st34" d="M75.8,511c0,8.9,6.8,16,17.8,16c11.1,0,17.8-7.1,17.8-16s-6.9-16-17.8-16C82.8,495.1,75.8,502.2,75.8,511z"
			/>
		<path class="st34" d="M119.3,511.7c0,6.9,5.1,12.5,13,12.5s13.1-5.6,13.1-12.5s-5-12.5-13.1-12.5
			C124.5,499.2,119.3,504.8,119.3,511.7z"/>
		<path class="st35" d="M93.6,495.1c0.9,0,1.9,0.1,2.8,0.2l0,0c-5.4,0.8-9.5,5.5-9.4,11c0,6.2,4.5,11.3,11.6,11.3
			c1.1,0,2.1-0.1,3.2-0.4c7,6.7,18.1,6.4,24.8-0.5c2,1.7,4.6,2.6,7.3,2.6c6.8,0,10.9-4.7,10.9-10.6c0-0.4,0-0.9-0.1-1.3
			c0.5,1.4,0.8,2.9,0.8,4.4c0,6.9-5,12.5-13.1,12.5c-1,0-1.9-0.1-2.9-0.2c-5.9,9.6-18.5,12.6-28.1,6.7c-1.7-1.1-3.3-2.4-4.6-3.9
			c-1.1,0.2-2.1,0.2-3.2,0.2c-10.9,0-17.8-7.1-17.8-16S82.8,495.1,93.6,495.1z"/>
		<path class="st34" d="M96.5,460.5c0,11.9,7.7,21.5,20,21.5c12.4,0,20-9.6,20-21.5s-7.7-21.5-20-21.5
			C104.4,439,96.5,448.7,96.5,460.5z"/>
		<path class="st35" d="M111.6,439.6c-5.5,1.5-9.1,7.9-9.1,15c0,8.9,6.3,16.1,16.1,17c10.1,0.9,16.7-6.2,16.7-16
			c0-1.6-0.2-3.1-0.7-4.6c1.3,3,1.9,6.3,1.9,9.5c0,11.9-7.6,21.5-20,21.5c-12.2,0-20-9.6-20-21.5
			C96.5,450.4,102.3,441.8,111.6,439.6z"/>
		<path class="st34" d="M48.4,366c1,0,2,0.1,3,0.3c5.9-15.9,17.9-26.6,33.4-26.2c12.2,0.4,21.7,7.3,27.8,17.8
			c1.3-0.2,2.6-0.2,3.8-0.2c19.3,0.5,31.1,18.3,30.6,39.6c-0.5,21.5-12.8,38.5-32.3,37.9c-4.1-0.1-8.2-1.1-11.9-2.9
			c-12.2,9.5-29.5,8.7-40.7-1.9c-4.3,3.6-9.7,5.4-15.2,5.2C30.8,435.1,18,421.6,18,400C17.9,378.9,32.5,365.5,48.4,366z"/>
		<path class="st35" d="M51.4,366.1C51.4,366.1,51.4,366.1,51.4,366.1C51.4,366.2,51.3,366.1,51.4,366.1
			C51.3,366.1,51.3,366.1,51.4,366.1z"/>
		<path class="st35" d="M48.4,366c0.9,0,1.9,0.1,2.8,0.3c-8.4,2.1-14.6,10.6-14.6,20.8c0,14,10.7,22.9,24.1,21.8
			c4.1-0.3,8-1.8,11.3-4.3c5.1,8.2,13.5,13.6,23,13.6c5.4,0,10.7-1.8,15.1-5c4.1,3.1,9.2,4.8,14.4,4.7c14.4,0,22.4-13,21.3-29.2
			c-0.4-5.7-2.1-11.3-4.8-16.3c4.2,6.8,6.4,15.5,6.2,25c-0.5,21.5-12.8,38.5-32.3,37.9c-4.1-0.1-8.2-1.1-11.9-2.9
			c-12.2,9.5-29.5,8.7-40.7-1.9c-4.3,3.6-9.7,5.4-15.2,5.2c-16.1-0.5-28.9-14-28.9-35.6C17.9,378.9,32.5,365.5,48.4,366z"/>
		<path class="st34" d="M38.2,434c0,8.2,5.3,14.8,13.7,14.8s13.7-6.6,13.7-14.8s-5.3-14.8-13.7-14.8S38.2,425.9,38.2,434z"/>
		<path class="st35" d="M48.5,419.6c-3.8,1-6.3,5.4-6.3,10.3c0,6.1,4.3,11.1,11.1,11.6c7,0.6,11.4-4.2,11.4-10.9
			c0-1.1-0.1-2.1-0.5-3.2c0.9,2.1,1.3,4.3,1.3,6.6c0,8.2-5.2,14.8-13.7,14.8s-13.7-6.6-13.7-14.8C38.2,427.1,42.2,421.2,48.5,419.6z
			"/>
		<path class="st34" d="M61.6,484.8c0,12.7,8.2,22.9,21.2,22.9c13.2,0,21.2-10.2,21.2-22.9S95.8,462,82.8,462
			C69.9,462,61.6,472.2,61.6,484.8z"/>
		<path class="st35" d="M77.5,462.6c-5.8,1.5-9.7,8.4-9.7,15.9c0,9.4,6.7,17.1,17.1,18c10.8,0.9,17.7-6.6,17.7-17
			c0-1.7-0.2-3.3-0.8-4.9c1.3,3.2,2,6.7,2,10.1c0,12.7-8,22.9-21.2,22.9c-13,0-21.2-10.2-21.2-22.9C61.6,474.1,67.7,465,77.5,462.6z
			"/>
		<path class="st34" d="M22.8,490c1.6-11.5,10.6-19.7,22.3-17.8c1.8,0.3,3.6,0.8,5.3,1.6c4-2,8.5-2.7,12.8-1.9
			c12.8,2.1,19.3,13.3,17.7,25.5s-11,20.9-23.9,18.8c-2.7-0.4-5.4-1.4-7.8-2.8c-3.2,1.2-6.7,1.5-10.1,0.9
			C27.3,512.3,21.2,501.7,22.8,490z"/>
		<path class="st35" d="M22.8,490c1.6-11.5,10.6-19.7,22.3-17.8c1.8,0.3,3.6,0.8,5.3,1.6l0.4-0.2c-0.1,0.1-0.2,0.2-0.4,0.2
			c-1.6-0.7-3.3-1-5-1c-7.8,0-14.2,6.8-14.2,15.3s6.4,15.3,14.2,15.3c2,0,3.9-0.4,5.7-1.3c2.7,1.8,5.9,2.8,9.2,2.8
			c9.4-0.1,16.9-7.7,16.9-17.1c0,0,0,0,0,0c0-4.9-2.1-9.6-5.7-12.8c7.3,4.6,10.7,13.3,9.4,22.5c-1.8,12.3-11,20.9-23.9,18.8
			c-2.7-0.4-5.4-1.4-7.8-2.8c-3.2,1.2-6.7,1.5-10.1,0.9C27.3,512.3,21.2,501.7,22.8,490z"/>
		<path class="st35" d="M74.1,622.6c-5.3-5.4-8.2-12.6-8.2-20.2c0-16.9,14.7-30.6,32.8-30.6s32.8,13.7,32.8,30.6
			c0,7.5-3,14.8-8.2,20.2H74.1z"/>
		<path class="st35" d="M107,622.6c-1.4-3-2.2-6.3-2.2-9.6c0-12.9,11.2-23.4,25.1-23.4s25.1,10.5,25.1,23.4c0,3.3-0.7,6.6-2.2,9.6
			H107z"/>
		<path class="st35" d="M7.3,622.6c0.9-10.5,10.2-18.7,21.6-18.7s20.8,8.2,21.6,18.7H7.3z"/>
		<path class="st35" d="M39.6,622.6c-2.2-3.6-3.3-7.7-3.3-11.9c0-13.6,11.8-24.6,26.3-24.6s26.3,11,26.3,24.6
			c0,4.2-1.1,8.3-3.3,11.9H39.6z"/>
		<path class="st35" d="M150.5,622.6c-0.2-0.9-0.3-1.8-0.3-2.7c0-7.9,6.9-14.4,15.4-14.4S181,612,181,619.9c0,0.9-0.1,1.8-0.3,2.7
			H150.5z"/>
		<path class="st34" d="M145.6,613.7c-3.3,0-6.4,1.2-8.8,3.4c0-0.5,0.1-1,0.1-1.5c0-12.1-10.5-21.9-23.4-21.9
			c-2.2,0-4.3,0.3-6.4,0.8c-4.2-5.1-10.6-8-17.2-7.9c-10.2,0-18.7,6.4-20.4,14.8c-4-2.8-8.7-4.3-13.5-4.2c-12,0-19.1,8.7-19.3,19.4
			c-3.1-2.2-6.9-3.5-10.7-3.5c-7.9,0-13.6,4.1-16.1,9.5H7.3c0.9-10.5,10.2-18.7,21.6-18.7c2.7,0,5.4,0.5,8,1.5
			c2.6-11,13.1-19.2,25.7-19.2c2.6,0,5.1,0.3,7.6,1c6.2-9.7,16.9-15.5,28.4-15.3c13.2,0,24.6,7.3,29.7,17.8c0.6,0,1.1,0,1.6,0
			c12.7,0,23.1,8.8,24.8,20.2c3-2.7,6.8-4.2,10.8-4.2c8.5,0,15.4,6.4,15.4,14.4c0,0.9-0.1,1.8-0.3,2.7h-20.5
			C158.9,617.5,151.4,613.7,145.6,613.7z"/>
		<polygon class="st36" points="-282.5,637.5 1889.1,636.4 1889.3,729.2 -304.5,733.6 		"/>
		<polygon class="st37" points="-304.8,701.2 1908.3,700.6 1904.7,905.9 -305.3,918 		"/>
		<g class="st38">
			<line class="st39" x1="1891.3" y1="672.8" x2="-300.7" y2="660"/>
			<line class="st39" x1="1253.5" y1="641.1" x2="1326.4" y2="695.6"/>
			<line class="st39" x1="1438.8" y1="696" x2="1367.6" y2="641.4"/>
			<line class="st39" x1="1448.6" y1="638.9" x2="1519.8" y2="693.5"/>
			<line class="st39" x1="1564.6" y1="643.1" x2="1635.8" y2="697.7"/>
			<line class="st39" x1="1170.7" y1="695.8" x2="1117.7" y2="641.9"/>
			<line class="st39" x1="886.7" y1="643.2" x2="889.9" y2="694.9"/>
			<line class="st39" x1="825.2" y1="642.7" x2="805.8" y2="694.2"/>
			<line class="st39" x1="962.2" y1="642.9" x2="997.7" y2="695.2"/>
			<line class="st39" x1="662.5" y1="694.2" x2="700.4" y2="641.1"/>
			<line class="st39" x1="555.6" y1="693.8" x2="609.7" y2="640.7"/>
			<line class="st39" x1="397.4" y1="693.5" x2="477.4" y2="641"/>
			<line class="st39" x1="226.9" y1="692.3" x2="309.3" y2="641.3"/>
			<line class="st39" x1="105.9" y1="692.9" x2="188.3" y2="641.9"/>
			<line class="st39" x1="-53.1" y1="691.5" x2="29.3" y2="640.5"/>
		</g>
		<polygon class="st40" points="-305.1,684 1893.3,687 1893.3,709.8 -305.8,705.8 		"/>
		<polygon class="st41" points="2,706.3 2,684.3 -77.4,684.5 -77.4,706 		"/>
		<polygon class="st41" points="185.1,706.7 185.1,684.7 105.6,684.9 105.7,706.3 		"/>
		<polygon class="st41" points="363.2,707.3 363.2,685 283.8,684.9 283.8,707 		"/>
		<polygon class="st41" points="537.3,707.7 537.2,685.2 457.8,685.1 458.1,707.4 		"/>
		<polygon class="st41" points="720.3,708.1 720.3,685.4 640.8,685.3 640.9,707.8 		"/>
		<polygon class="st41" points="909.1,708.2 909,685.6 829.6,685.5 829.6,707.9 		"/>
		<polygon class="st41" points="1083.1,708.2 1083.1,685.8 1003.6,685.7 1003.7,708.3 		"/>
		<polygon class="st41" points="1266.2,708.6 1266.1,686 1186.7,686 1186.7,708.3 		"/>
		<polygon class="st41" points="1444.3,709.3 1444.2,686.2 1364.8,686.2 1364.8,709 		"/>
		<polygon class="st41" points="1618.3,709.7 1618.3,686.5 1538.8,686.3 1538.9,709.3 		"/>
		<path class="st31" d="M1074.1,623.3l35.9-1c0,0,9.7-19.9,27.6-24c0,0-12.4-4.1-25.9,12.3c0,0,2.8-22.4,23.7-28.5
			c0,0-29.9-5.5-36.4,30c0,0,3.5-24.4-15.6-34.1c0,0,10.3,7.6,7.2,26.2c0,0-6.3-28.6-39.5-25.3c0,0,21.6,2.6,24,29.4
			c0,0-6.1-10.8-21.4-5.2C1053.5,603.2,1067.9,600.2,1074.1,623.3z"/>
		<path class="st31" d="M841.1,627.7l35.9-1c0,0,9.7-19.9,27.6-24c0,0-12.4-4.1-25.9,12.3c0,0,2.8-22.4,23.7-28.5
			c0,0-29.9-5.5-36.4,30c0,0,3.5-24.4-15.6-34.1c0,0,10.3,7.6,7.2,26.2c0,0-6.3-28.6-39.5-25.3c0,0,21.5,2.6,24,29.4
			c0,0-6.1-10.8-21.4-5.2C820.5,607.6,834.9,604.6,841.1,627.7z"/>
		<path class="st31" d="M490.8,633.6l39.2-1.1c0,0,10.6-21.7,30.2-26.3c0,0-13.5-4.5-28.4,13.5c0,0,3.1-24.5,25.9-31.2
			c0,0-32.7-6-39.8,32.8c0,0,3.8-26.7-17.1-37.3c0,0,11.3,8.3,7.9,28.7c0,0-6.9-31.3-43.2-27.7c0,0,23.6,2.8,26.3,32.2
			c0,0-6.7-11.8-23.4-5.7C468.3,611.6,484,608.3,490.8,633.6z"/>
	</g>
</g>
</svg>
