<?xml version="1.0" encoding="utf-8"?>
<!-- Generator: Adobe Illustrator 25.2.3, SVG Export Plug-In . SVG Version: 6.00 Build 0)  -->
<svg version="1.1" id="Layer_1" xmlns="http://www.w3.org/2000/svg" xmlns:xlink="http://www.w3.org/1999/xlink" x="0px" y="0px"
	 viewBox="0 0 1600 900" style="enable-background:new 0 0 1600 900;" xml:space="preserve">
<style type="text/css">
	.st0{clip-path:url(#SVGID_2_);}
	.st1{fill:#5A4914;}
	.st2{fill:#635321;}
	.st3{fill:#54461B;}
	.st4{fill:#493C16;}
	.st5{fill:#9F917C;}
	.st6{fill:#8D7E69;}
	.st7{fill:#7D6C4E;}
	.st8{fill:url(#SVGID_3_);}
	.st9{fill:#52410A;}
	.st10{fill:#57481B;}
	.st11{fill:#948671;}
	.st12{fill:#907F61;}
	.st13{fill:#6E6252;}
	.st14{fill:#847356;}
	.st15{fill:#847354;}
	.st16{fill:#382B05;}
	.st17{fill:#261B01;}
	.st18{opacity:0.67;fill:#261B01;enable-background:new    ;}
	.st19{fill:#190A02;}
	.st20{fill:#2B1D02;}
</style>
<g>
	<defs>
		<rect id="SVGID_1_" width="1600" height="900"/>
	</defs>
	<clipPath id="SVGID_2_">
		<use xlink:href="#SVGID_1_"  style="overflow:visible;"/>
	</clipPath>
	<g class="st0">
		<path class="st1" d="M153.9,577.7c0,4-4.5,7.3-10.1,7.3H-106c-5.6,0-10.1-3.3-10.1-7.3v-90.6c0-4.1,4.5-7.3,10.1-7.3h249.9
			c5.6,0,10.1,3.3,10.1,7.3V577.7z"/>
		<path class="st2" d="M-134.6,102.7c0,4,4.5,7.3,10.1,7.3h249.9c5.6,0,10.1-3.3,10.1-7.3V12.1c0-4.1-4.5-7.3-10.1-7.3h-249.9
			c-5.6,0-10.1,3.3-10.1,7.3L-134.6,102.7z"/>
		<path class="st1" d="M-134.2,339c0,4,4.5,7.3,10.1,7.3h249.9c5.6,0,10.1-3.3,10.1-7.3v-90.6c0-4-4.5-7.3-10.1-7.3h-249.9
			c-5.6,0-10.1,3.3-10.1,7.3V339z"/>
		<path class="st2" d="M-123.5,815.2c0,4,4.5,7.3,10.1,7.3h249.9c5.6,0,10.1-3.3,10.1-7.3v-90.6c0-4-4.5-7.3-10.1-7.3h-249.9
			c-5.6,0-10.1,3.3-10.1,7.3V815.2z"/>
		<path class="st3" d="M15.4,579c0.6,2,2,3.7,3.9,4.6C17.9,582.1,16.6,580.6,15.4,579z"/>
		<path class="st4" d="M15.4,579c0,0.2,0.1,0.4,0.2,0.6l0,0l0,0l0,0v0.1l0,0c0.7,1.6,1.8,2.9,3.3,3.7l0,0l0,0l0,0l0,0l0,0l0,0l0,0
			l0.2,0.1C17.9,582,16.6,580.6,15.4,579z"/>
		<path class="st5" d="M107.3,773.3c-12.2,0-22,2-22,4.4s9.9,4.3,22,4.3s22-2,22-4.3S119.5,773.3,107.3,773.3z"/>
		<path class="st6" d="M157.6,745.8c-16.8,0-30.4,2.7-30.4,6s13.6,6,30.4,6s30.4-2.7,30.4-6S174.4,745.8,157.6,745.8z"/>
		<path class="st6" d="M12.3,759.3C4.9,763.1-0.2,767-3,771c2.4,0.1,5,0.2,7.7,0.2c16.8,0,30.4-2.7,30.4-6
			C35,762.3,25.4,760,12.3,759.3z"/>
		<path class="st7" d="M4.6,759.1c-16.8,0-30.4,2.7-30.4,6c0,2.8,9.6,5.2,22.7,5.8c2.8-4,7.9-7.9,15.4-11.6
			C9.9,759.2,7.3,759.1,4.6,759.1z"/>
		<path class="st6" d="M66.8,748c-6.7,0-12.1,1.1-12.1,2.5s5.4,2.5,12.1,2.5s12.1-1.1,12.1-2.5S73.5,748,66.8,748z"/>
		<path class="st5" d="M185.1,762.2c-4.9,0-8.9,0.8-8.9,1.9s4,1.9,8.9,1.9s8.9-0.8,8.9-1.9S190,762.2,185.1,762.2z"/>
		<path class="st6" d="M48.7,774.8c-4.9,0-8.9,0.8-8.9,1.9s4,1.9,8.9,1.9s8.9-0.8,8.9-1.9S53.6,774.8,48.7,774.8z"/>
		<path class="st6" d="M170.3,727.1c-4.8,0.5-9.6,1-14.2,1.5l0,0c0,1,4,1.9,8.9,1.9s8.9-0.8,8.9-1.9
			C173.9,728,172.5,727.4,170.3,727.1z"/>
		<path class="st7" d="M165,726.7c-4.9,0-8.8,0.8-8.9,1.9c4.6-0.5,9.4-1,14.2-1.5C168.6,726.8,166.8,726.7,165,726.7z"/>
		
			<linearGradient id="SVGID_3_" gradientUnits="userSpaceOnUse" x1="-390.21" y1="522.33" x2="1892.0901" y2="522.33" gradientTransform="matrix(1 0 0 -1 0 900)">
			<stop  offset="0" style="stop-color:#D3BD94"/>
			<stop  offset="1" style="stop-color:#998675"/>
		</linearGradient>
		<rect x="-390.2" y="-22" class="st8" width="2282.3" height="799.4"/>
		<path class="st1" d="M280,219c0,4.1-4.5,7.3-10.1,7.3H20c-5.5-0.1-10-3.3-10-7.3v-90.7c0-4,4.5-7.3,10.1-7.3h249.8
			c5.6,0,10.1,3.3,10.1,7.3L280,219z"/>
		<path class="st2" d="M567.9,219c0,4.1-4.5,7.3-10.1,7.3H308c-5.6,0-10.1-3.3-10.1-7.3v-90.7c0-4,4.5-7.3,10.1-7.3h249.8
			c5.6,0,10.1,3.3,10.1,7.3V219z"/>
		<path class="st1" d="M855.9,219c0,4.1-4.5,7.3-10.1,7.3H595.9c-5.6,0-10.1-3.3-10.1-7.3v-90.7c0-4,4.5-7.3,10.1-7.3h249.9
			c5.6,0,10.1,3.3,10.1,7.3V219z"/>
		<path class="st2" d="M1143.8,219c0,4.1-4.5,7.3-10.1,7.3H883.8c-5.6,0-10.1-3.3-10.1-7.3v-90.7c0-4,4.5-7.3,10.1-7.3h249.9
			c5.6,0,10.1,3.3,10.1,7.3L1143.8,219z"/>
		<path class="st2" d="M1719.4,219c0,4.1-4.5,7.3-10.1,7.3h-249.9c-5.6,0-10.1-3.3-10.1-7.3v-90.7c0-4,4.5-7.3,10.1-7.3h249.9
			c5.6,0,10.1,3.3,10.1,7.3V219z"/>
		<path class="st2" d="M1739.1,455.3c0,4-4.5,7.3-10.1,7.3h-249.9c-5.6,0-10.1-3.3-10.1-7.3v-90.6c0-4,4.5-7.3,10.1-7.3h249.9
			c5.6,0,10.1,3.3,10.1,7.3V455.3z"/>
		<path class="st2" d="M1727.3,695.6c0,4.1-4.5,7.3-10.1,7.3h-249.9c-5.6,0-10.1-3.3-10.1-7.3V605c0-4,4.5-7.3,10.1-7.3h249.9
			c5.6,0,10.1,3.3,10.1,7.3L1727.3,695.6z"/>
		<path class="st2" d="M1431.8,219c0,4.1-4.5,7.3-10.1,7.3h-249.9c-5.6,0-10.1-3.3-10.1-7.3v-90.7c0-4,4.5-7.3,10.1-7.3h249.9
			c5.6,0,10.1,3.3,10.1,7.3V219z"/>
		<path class="st2" d="M441.9,577.7c0,4-4.5,7.3-10.1,7.3H181.9c-5.6,0-10.1-3.3-10.1-7.3v-90.6c0-4.1,4.5-7.3,10.1-7.3h249.9
			c5.6,0,10.1,3.3,10.1,7.3V577.7z"/>
		<path class="st9" d="M573.2,577.7c0,4-4.5,7.3-10.1,7.3H313.2c-5.6,0-10.1-3.3-10.1-7.3v-90.6c0-4.1,4.5-7.3,10.1-7.3h249.9
			c5.6,0,10.1,3.3,10.1,7.3V577.7z"/>
		<path class="st2" d="M861.1,577.7c0,4-4.5,7.3-10.1,7.3H601.2c-5.6,0-10.1-3.3-10.1-7.3v-90.6c0-4.1,4.5-7.3,10.1-7.3H851
			c5.6,0,10.1,3.3,10.1,7.3L861.1,577.7z"/>
		<path class="st1" d="M1305.7,577.7c0,4-4.5,7.3-10.1,7.3h-249.9c-5.6,0-10.1-3.3-10.1-7.3v-90.6c0-4.1,4.5-7.3,10.1-7.3h249.9
			c5.6,0,10.1,3.3,10.1,7.3V577.7z"/>
		<path class="st2" d="M1593.7,577.7c0,4-4.5,7.3-10.1,7.3h-249.9c-5.6,0-10.1-3.3-10.1-7.3v-90.6c0-4.1,4.5-7.3,10.1-7.3h249.9
			c5.6,0,10.1,3.3,10.1,7.3L1593.7,577.7z"/>
		<path class="st2" d="M1305.5,339c0,4,4.5,7.3,10.1,7.3h249.9c5.6,0,10.1-3.3,10.1-7.3v-90.6c0-4-4.5-7.3-10.1-7.3h-249.9
			c-5.6,0-10.1,3.3-10.1,7.3V339z"/>
		<path class="st1" d="M1017.6,339c0,4,4.5,7.3,10.1,7.3h249.9c5.6,0,10.1-3.3,10.1-7.3v-90.6c0-4-4.5-7.3-10.1-7.3h-249.9
			c-5.6,0-10.1,3.3-10.1,7.3V339z"/>
		<path class="st1" d="M613.3,459.2c0,4,4.5,7.3,10.1,7.3h249.9c5.6,0,10.1-3.3,10.1-7.3v-90.6c0-4-4.5-7.3-10.1-7.3H623.3
			c-5.6,0-10.1,3.3-10.1,7.3V459.2z"/>
		<path class="st2" d="M729.7,339c0,4,4.5,7.3,10.1,7.3h249.9c5.6,0,10.1-3.3,10.1-7.3v-90.6c0-4-4.5-7.3-10.1-7.3H739.7
			c-5.6,0-10.1,3.3-10.1,7.3L729.7,339z"/>
		<path class="st2" d="M441.7,339c0,4,4.5,7.3,10.1,7.3h249.9c5.6,0,10.1-3.3,10.1-7.3v-90.6c0-4-4.5-7.3-10.1-7.3H451.8
			c-5.6,0-10.1,3.3-10.1,7.3V339z"/>
		<path class="st2" d="M152.3,102.7c0,4,4.5,7.3,10.1,7.3h249.9c5.6,0,10.1-3.3,10.1-7.3V12.1c0-4.1-4.5-7.3-10.1-7.3H162.4
			c-5.6,0-10.1,3.3-10.1,7.3L152.3,102.7z"/>
		<path class="st2" d="M726.2,102.7c0,4,4.5,7.3,10.1,7.3h249.9c5.6,0,10.1-3.3,10.1-7.3V12.1c0-4.1-4.5-7.3-10.1-7.3H736.2
			c-5.6,0-10.1,3.3-10.1,7.3L726.2,102.7z"/>
		<path class="st2" d="M439.2,102.7c0,4,4.5,7.3,10.1,7.3h249.9c5.6,0,10.1-3.3,10.1-7.3V12.1c0-4.1-4.5-7.3-10.1-7.3H449.3
			c-5.6,0-10.1,3.3-10.1,7.3V102.7z"/>
		<path class="st2" d="M1300,102.7c0,4,4.5,7.3,10.1,7.3H1560c5.6,0,10.1-3.3,10.1-7.3V12.1c0-4.1-4.5-7.3-10.1-7.3h-249.9
			c-5.6,0-10.1,3.3-10.1,7.3V102.7z"/>
		<path class="st2" d="M1013.1,102.7c0,4,4.5,7.3,10.1,7.3H1273c5.6,0,10.1-3.3,10.1-7.3V12.1c0-4.1-4.5-7.3-10.1-7.3h-249.9
			c-5.6,0-10.1,3.3-10.1,7.3V102.7z"/>
		<path class="st2" d="M153.8,339c0,4,4.5,7.3,10.1,7.3h249.9c5.6,0,10.1-3.3,10.1-7.3v-90.6c0-4-4.5-7.3-10.1-7.3H163.8
			c-5.6,0-10.1,3.3-10.1,7.3L153.8,339z"/>
		<path class="st2" d="M151.4,579.8c0,4-4.5,7.3-10.1,7.3h-249.9c-5.6,0-10.1-3.3-10.1-7.3v-90.6c0-4,4.5-7.3,10.1-7.3h249.9
			c5.6,0,10.1,3.3,10.1,7.3V579.8z"/>
		<path class="st2" d="M-138.2,104.7c0,4.1,4.5,7.3,10.1,7.3h249.9c5.6,0,10.1-3.3,10.1-7.3V14.1c0-4-4.5-7.3-10.1-7.3h-249.9
			c-5.6,0-10.1,3.3-10.1,7.3V104.7z"/>
		<path class="st2" d="M-136.8,341c0,4,4.5,7.3,10.1,7.3h249.9c5.6,0,10.1-3.3,10.1-7.3v-90.6c0-4.1-4.5-7.3-10.1-7.3h-249.9
			c-5.6,0-10.1,3.3-10.1,7.3V341z"/>
		<path class="st2" d="M1177.3,696.5c0,4,4.5,7.3,10.1,7.3h249.9c5.6,0,10.1-3.3,10.1-7.3v-90.6c0-4-4.5-7.3-10.1-7.3h-249.9
			c-5.6,0-10.1,3.3-10.1,7.3V696.5z"/>
		<path class="st2" d="M889,699.3c0,4,4.5,7.3,10.1,7.3H1149c5.6,0,10.1-3.3,10.1-7.3v-90.6c0-4-4.5-7.3-10.1-7.3H899
			c-5.6,0-10.1,3.3-10.1,7.3L889,699.3z"/>
		<path class="st2" d="M156.8,696.5c0,4,4.5,7.3,10.1,7.3h249.9c5.6,0,10.1-3.3,10.1-7.3v-90.6c0-4-4.5-7.3-10.1-7.3H166.9
			c-5.6,0-10.1,3.3-10.1,7.3L156.8,696.5z"/>
		<path class="st9" d="M25.5,719.6c0,5,4.5,9.1,10.1,9.1h249.9c5.6,0,10.1-4.1,10.1-9.1v-112c0-5-4.5-9.1-10.1-9.1H35.6
			c-5.6,0-10.1,4.1-10.1,9.1L25.5,719.6z"/>
		<path class="st2" d="M1185.8,457.7c0,4,4.5,7.3,10.1,7.3h249.9c5.6,0,10.1-3.3,10.1-7.3v-90.6c0-4-4.5-7.3-10.1-7.3h-249.9
			c-5.6,0-10.1,3.3-10.1,7.3V457.7z"/>
		<path class="st2" d="M897.9,457.7c0,4,4.5,7.3,10.1,7.3h249.9c5.6,0,10.1-3.3,10.1-7.3v-90.6c0-4-4.5-7.3-10.1-7.3H907.9
			c-5.5,0-10.1,3.3-10.1,7.3V457.7z"/>
		<path class="st2" d="M753.3,577.7c0,4,4.5,7.3,10.1,7.3h249.9c5.6,0,10.1-3.3,10.1-7.3v-90.6c0-4-4.5-7.3-10.1-7.3H763.4
			c-5.6,0-10.1,3.3-10.1,7.3L753.3,577.7z"/>
		<path class="st1" d="M453.3,457.7c0,4,4.5,7.3,10.1,7.3h249.9c5.6,0,10.1-3.3,10.1-7.3v-90.6c0-4-4.5-7.3-10.1-7.3H463.3
			c-5.6,0-10.1,3.3-10.1,7.3V457.7z"/>
		<path class="st2" d="M165.3,457.7c0,4,4.5,7.3,10.1,7.3h249.9c5.6,0,10.1-3.3,10.1-7.3v-90.6c0-4-4.5-7.3-10.1-7.3H175.4
			c-5.6,0-10.1,3.3-10.1,7.3L165.3,457.7z"/>
		<path class="st1" d="M34,457.7c0,4,4.5,7.3,10.1,7.3H294c5.6,0,10.1-3.3,10.1-7.3v-90.6c0-4-4.5-7.3-10.1-7.3H44.1
			c-5.6,0-10.1,3.3-10.1,7.3L34,457.7z"/>
		<path class="st2" d="M1316.2,815.2c0,4,4.5,7.3,10.1,7.3h249.9c5.6,0,10.1-3.3,10.1-7.3v-90.6c0-4-4.5-7.3-10.1-7.3h-249.9
			c-5.6,0-10.1,3.3-10.1,7.3V815.2z"/>
		<path class="st2" d="M871.6,815.2c0,4,4.5,7.3,10.1,7.3h249.9c5.6,0,10.1-3.3,10.1-7.3v-90.6c0-4-4.5-7.3-10.1-7.3H881.6
			c-5.6,0-10.1,3.3-10.1,7.3V815.2z"/>
		<path class="st2" d="M583.6,815.2c0,4,4.5,7.3,10.1,7.3h249.9c5.6,0,10.1-3.3,10.1-7.3v-90.6c0-4-4.5-7.3-10.1-7.3H593.7
			c-5.6,0-10.1,3.3-10.1,7.3V815.2z"/>
		<path class="st2" d="M295.7,815.2c0,4,4.5,7.3,10.1,7.3h249.9c5.6,0,10.1-3.3,10.1-7.3v-90.6c0-4-4.5-7.3-10.1-7.3H305.8
			c-5.6,0-10.1,3.3-10.1,7.3V815.2z"/>
		<path class="st1" d="M7.7,815.2c0,4,4.5,7.3,10.1,7.3h249.9c5.6,0,10.1-3.3,10.1-7.3v-90.6c0-4-4.5-7.3-10.1-7.3H17.8
			c-5.6,0-10.1,3.3-10.1,7.3V815.2z"/>
		<path class="st10" d="M1159.4,613.4c-2.5,1.1-5,2.1-7.6,3.2c-11.3,28.9-27.5,58.2-48.8,87.2h46.3c5.6,0,10.1-3.3,10.1-7.3
			L1159.4,613.4z"/>
		<path class="st10" d="M313.4,660.3v36.2c0,4,4.5,7.3,10.1,7.3h15.7C329.7,689.9,321.1,675.3,313.4,660.3z"/>
		<rect x="-164" y="711.6" class="st11" width="1767.5" height="208.1"/>
		<path class="st6" d="M444.1,792.3c-12.1,0-22,2-22,4.3s9.9,4.3,22,4.3s22-2,22-4.3S456.3,792.3,444.1,792.3z"/>
		<path class="st6" d="M415.5,756.2c-16.8,0-30.4,2.7-30.4,6s13.6,6,30.4,6s30.4-2.7,30.4-6S432.3,756.2,415.5,756.2z"/>
		<path class="st6" d="M519.3,750H519c-5.3,0.6-10.8,1.1-16.7,1.6c-3.2,0.8-5,1.7-5,2.8c0,2.4,9.9,4.4,22,4.4c12.2,0,22-2,22-4.4
			S531.4,750,519.3,750z"/>
		<path class="st5" d="M578.9,783.4c-4.9,0-8.9,0.8-8.9,1.9s4,1.9,8.9,1.9s8.9-0.8,8.9-1.9S583.8,783.4,578.9,783.4z"/>
		<path class="st5" d="M480.5,776.5c-6.7,0-12.1,1.1-12.1,2.5s5.4,2.5,12.1,2.5s12-1.2,12-2.5S487.1,776.5,480.5,776.5z"/>
		<path class="st12" d="M1201.8,764.3c-1.2,0.6-1.9,1.3-1.8,2s0.7,1.2,1.8,1.8V764.3z"/>
		<path class="st6" d="M910.9,784.3c-1.3,0-2.7,0-4,0c-17.2,0.5-31,3.8-30.8,7.4c0.2,3.3,12.3,5.7,27.6,5.7c1.3,0,2.7,0,4,0
			c17.2-0.5,31-3.8,30.8-7.3C938.3,786.7,926.2,784.3,910.9,784.3z"/>
		<path class="st6" d="M1176.4,788.5c-1.3,0-2.7,0-4,0.1c-17.2,0.5-31,3.8-30.8,7.3c0.2,3.3,12.3,5.7,27.6,5.7c1.3,0,2.7,0,4-0.1
			c2.6-0.1,5.1-0.2,7.4-0.4c6.4-4,10.5-7.8,12.4-11.6C1187.6,788.8,1182,788.5,1176.4,788.5z"/>
		<path class="st7" d="M1193.1,789.6c-1.9,3.7-6,7.6-12.4,11.6c9.6-0.8,17.4-2.4,21.1-4.4V792C1199,790.8,1196.1,790,1193.1,789.6z"
			/>
		<path class="st6" d="M1071.1,748.3c-1,0-1.9,0-2.9,0c-12.5,0.3-22.5,2.7-22.3,5.3c0.2,2.4,8.9,4.2,20,4.2c1,0,1.9,0,2.9,0
			c12.5-0.3,22.5-2.7,22.3-5.3C1091,750.1,1082.3,748.3,1071.1,748.3z"/>
		<path class="st6" d="M803.9,797.5c-1,0-1.9,0-2.9,0c-12.5,0.3-22.5,2.7-22.3,5.3c0.2,2.4,8.9,4.2,20,4.2c1,0,1.9,0,2.9,0
			c12.5-0.3,22.5-2.7,22.3-5.3C823.8,799.2,815,797.5,803.9,797.5z"/>
		<path class="st6" d="M652.3,801.5c-1,0-1.9,0-2.9,0c-12.5,0.3-22.5,2.7-22.3,5.3c0.1,1.6,3.9,2.9,9.7,3.6H658
			c8.5-0.9,14.4-2.8,14.2-4.8C672.1,803.3,663.4,801.5,652.3,801.5z"/>
		<path class="st5" d="M1021.2,790.8h-1.5c-6.8,0.2-12.3,1.6-12.2,3.1s4.9,2.5,11.1,2.5h1.5c6.8-0.2,12.3-1.6,12.2-3.1
			S1027.4,790.8,1021.2,790.8z"/>
		<path class="st6" d="M999.1,744.1c-1.6,2-3.3,3.8-5.1,5.5c0.6,0,1.2,0,1.8,0h1.5c6.8-0.2,12.3-1.6,12.2-3.1
			C1009.3,745.2,1004.8,744.2,999.1,744.1z"/>
		<path class="st5" d="M1144.7,780.5h-1.1c-5.1,0.1-9.1,1.2-9,2.3s3.6,1.8,8.2,1.8h1.1c5-0.1,9.1-1.2,9-2.3
			S1149.2,780.5,1144.7,780.5z"/>
		<path class="st6" d="M685.5,794.9h-1.1c-5,0.1-9.1,1.2-9,2.3s3.6,1.8,8.2,1.8h1.1c5-0.1,9.1-1.2,9-2.3S690,794.9,685.5,794.9z"/>
		<path class="st6" d="M971.7,778.8h-1.1c-5,0.1-9.1,1.2-9,2.3s3.6,1.8,8.2,1.8h1.1c5-0.1,9.1-1.2,9-2.3S976.3,778.8,971.7,778.8z"
			/>
		<path class="st13" d="M519,750c-5.6-0.1-11.2,0.4-16.7,1.6C508.2,751.2,513.6,750.6,519,750z"/>
		<path class="st14" d="M1117.6,796.2c0,13.7-105.8,24.9-236.4,24.9S644.7,810,644.7,796.2s105.8-24.9,236.4-24.9
			S1117.6,782.5,1117.6,796.2z"/>
		<path class="st15" d="M1604.1,707.3H-164v253.7H26.1c-245.7-50.2-167.7-222.1,325.6-238.5c604.1-20.1,1519.5,128.2,1114.2,238.5
			h138.2L1604.1,707.3z"/>
		<path class="st16" d="M886.8,613.2c0,31.6-4.6,63-13.7,93.3H230.3c-9.1-30.3-13.7-61.7-13.7-93.3c0-181.5,150-328.7,335.1-328.7
			S886.8,431.7,886.8,613.2z"/>
		<path class="st16" d="M230.3,706.5l371.3-274.3L600,287.6c0,0,188.5,15.8,264,209.5c0,0,28.7,48.3,22.9,208.5l-1,1.9
			C885.9,707.4,259.1,708.5,230.3,706.5z"/>
		<path class="st17" d="M230.3,706.5l413.2-297.3L639,295.4c0,0-132.8-47.1-279.7,47.5c0,0-126.1,73-141.9,241.1
			C217.4,584,209.4,639.5,230.3,706.5z"/>
		<ellipse class="st18" cx="378.5" cy="666.2" rx="17.9" ry="6.2"/>
		<ellipse class="st18" cx="598.1" cy="635.9" rx="17.5" ry="6.1"/>
		<ellipse class="st18" cx="705.6" cy="457.7" rx="14.4" ry="5"/>
		<ellipse class="st18" cx="699.1" cy="552.8" rx="21.9" ry="7.6"/>
		<ellipse class="st18" cx="569" cy="554.8" rx="15.5" ry="4.4"/>
		<ellipse class="st18" cx="833.3" cy="618.4" rx="27.5" ry="9.6"/>
		<ellipse class="st18" cx="739.5" cy="659.8" rx="27.5" ry="9.6"/>
		<path class="st19" d="M673.6,306.9c0,0,151.6,52.2,195.2,199.7C908.3,640,887,705.5,887,705.5l-26.2-20.9
			c0,0,11.4-90.5-12.6-176.5C810.5,372.5,673.6,306.9,673.6,306.9z"/>
		<path class="st19" d="M230.3,706.5l45.5-45c0,0-38.8-77.5,8.2-194.7c50.4-125.9,170.5-168.3,170.5-168.3s-144,30-211.6,184.4
			C193,596.7,230.3,706.5,230.3,706.5"/>
		<polygon class="st20" points="860.8,684.6 841.1,706.9 889.5,707.5 		"/>
	</g>
</g>
</svg>
