<?xml version="1.0" encoding="utf-8"?>
<!-- Generator: Adobe Illustrator 25.2.3, SVG Export Plug-In . SVG Version: 6.00 Build 0)  -->
<svg version="1.1" id="Layer_1" xmlns="http://www.w3.org/2000/svg" xmlns:xlink="http://www.w3.org/1999/xlink" x="0px" y="0px"
	 viewBox="0 0 1600 900" style="enable-background:new 0 0 1600 900;" xml:space="preserve">
<style type="text/css">
	.st0{clip-path:url(#SVGID_2_);}
	.st1{fill:url(#SVGID_3_);}
	.st2{fill:url(#SVGID_4_);}
	.st3{fill:#724925;}
	.st4{fill:#B57E54;}
	.st5{fill:#D89261;}
	.st6{fill:#946134;}
	.st7{fill:#804F21;}
	.st8{fill:#9F7045;}
	.st9{fill:#5C9B32;}
	.st10{fill:#8CB121;}
	.st11{fill:#73A02C;}
	.st12{fill:#528F34;}
	.st13{fill:#77AA2A;}
	.st14{fill:#B78B01;}
	.st15{fill:#EA6000;}
	.st16{fill:#D35600;}
	.st17{fill:#F1EDE3;}
	.st18{fill:#E6DFCE;}
	.st19{fill:#368B38;}
	.st20{fill:#67A62E;}
</style>
<g>
	<defs>
		<rect id="SVGID_1_" width="1600" height="900"/>
	</defs>
	<clipPath id="SVGID_2_">
		<use xlink:href="#SVGID_1_"  style="overflow:visible;"/>
	</clipPath>
	<g class="st0">
		
			<linearGradient id="SVGID_3_" gradientUnits="userSpaceOnUse" x1="-556.7416" y1="201.4332" x2="2565.3684" y2="1773.8232" gradientTransform="matrix(1 0 0 -1 0 900)">
			<stop  offset="0" style="stop-color:#FFFFFF"/>
			<stop  offset="7.000000e-02" style="stop-color:#229D73"/>
			<stop  offset="0.32" style="stop-color:#23A97A"/>
			<stop  offset="0.39" style="stop-color:#23AD7C"/>
			<stop  offset="0.4" style="stop-color:#23AD7C"/>
			<stop  offset="0.72" style="stop-color:#23B477"/>
		</linearGradient>
		<path class="st1" d="M-460.9-129.4C348.4-187.5,815.8,19,1232.8-35.5c160.7-21,305.6-74.3,646,54.4l5.9,229.8L-461,245.3
			L-460.9-129.4z"/>
		
			<linearGradient id="SVGID_4_" gradientUnits="userSpaceOnUse" x1="16.3997" y1="279.5206" x2="2136.9897" y2="1347.5106" gradientTransform="matrix(1 0 0 -1 0 900)">
			<stop  offset="9.000000e-02" style="stop-color:#167863"/>
			<stop  offset="0.33" style="stop-color:#1A8065"/>
			<stop  offset="0.48" style="stop-color:#208664"/>
			<stop  offset="0.72" style="stop-color:#268C63"/>
		</linearGradient>
		<path class="st2" d="M45.2,240.5c0,0,84.3-294.2,377.7-169.4C372.3-90.8,679.2-107.4,726.4,54.4C756.7-90.8,874.8-59,962.4,90.8
			c57.3-97.2,205.7-17,229.3,23.8c60.7-90.7,219.2,77.9,219.2,77.9c37.4-10.2,113.4-25.1,201.5,0.4c34.9,10.2,68.1,25.5,98.3,45.6
			L45.2,240.5z"/>
		<polygon class="st3" points="-448,330.1 -449.5,1073.3 1916,1073.3 1923.4,330.1 		"/>
		<path class="st4" d="M-449.6,1024.5c0,0,271.4,7.2,724.1,33.8c334.5,26.6,1675.1-58.2,1748.9-151.8l-3.6-486.8l-2469.1-89.6
			L-449.6,1024.5z"/>
		<path class="st5" d="M-470.2,587c0,0,719.7,21.2,768.8,14c91.2-13.4,135.7-40.3,79-80.7s77-53.8,299.7-53.8
			s1215.2-10.6,1215.2-10.6l2.2-215.4h-2368L-470.2,587z"/>
		<path class="st6" d="M2226.3,810.6H-121.2c-136,0-230.6-55.6-184.3-108.2l269-305.7c28.1-31.9,101.8-53.2,184.3-53.2h1809.5
			c82.5,0,156.2,21.3,184.4,53.2l269,305.7C2457,755,2362.3,810.6,2226.3,810.6z"/>
		<polygon class="st7" points="1889.5,480.5 -13.7,480.5 -92.8,539.2 1932.5,540.2 		"/>
		<path class="st7" d="M717.8,499.9c0,5.4-6.2,9.7-13.8,9.7s-13.8-4.4-13.8-9.7s6.2-9.7,13.8-9.7S717.8,494.5,717.8,499.9z"/>
		<path class="st7" d="M805,543.2c0,5.4-6.2,9.7-13.8,9.7s-13.8-4.4-13.8-9.7s6.2-9.7,13.8-9.7S805,537.8,805,543.2z"/>
		<path class="st8" d="M764.9,570.7c0,3.9-4.5,7-10,7s-10-3.1-10-7s4.5-7,10-7S764.9,566.8,764.9,570.7z"/>
		<path class="st7" d="M1216.8,499.4c0,5.4-6.2,9.7-13.8,9.7s-13.8-4.4-13.8-9.7s6.2-9.7,13.8-9.7S1216.8,494,1216.8,499.4z"/>
		<path class="st7" d="M1303.9,542.6c0,5.4-6.2,9.7-13.8,9.7s-13.8-4.4-13.8-9.7s6.2-9.7,13.8-9.7S1303.9,537.3,1303.9,542.6z"/>
		<path class="st7" d="M958.5,357.4c0,5.4-6.2,9.7-13.8,9.7s-13.8-4.4-13.8-9.7s6.2-9.7,13.8-9.7S958.5,352,958.5,357.4z"/>
		<path class="st7" d="M996.2,532.9c0,5.4-6.2,9.7-13.8,9.7s-13.8-4.3-13.8-9.7s6.2-9.7,13.8-9.7S996.2,527.5,996.2,532.9z"/>
		<path class="st8" d="M1263.8,570.2c0,3.9-4.5,7-9.9,7s-10-3.1-10-7s4.4-7,10-7S1263.8,566.3,1263.8,570.2z"/>
		<path class="st7" d="M1430,567c0-5.4-6.2-9.7-13.8-9.7s-13.8,4.3-13.8,9.7s6.2,9.7,13.8,9.7S1430,572.4,1430,567z"/>
		<path class="st7" d="M1517.2,523.7c0-5.4-6.2-9.7-13.8-9.7s-13.8,4.3-13.8,9.7s6.2,9.7,13.8,9.7S1517.2,529.1,1517.2,523.7z"/>
		<path class="st8" d="M1477.1,496.1c0-3.9-4.4-7-9.9-7s-10,3.1-10,7s4.5,7,10,7S1477.1,500,1477.1,496.1z"/>
		<path class="st7" d="M1430,356.2c0,2.8-6.2,5-13.8,5s-13.8-2.2-13.8-5s6.2-5,13.8-5S1430,353.5,1430,356.2z"/>
		<path class="st7" d="M1517.2,378.4c0,2.8-6.2,5-13.8,5s-13.8-2.2-13.8-5s6.2-5,13.8-5S1517.2,375.7,1517.2,378.4z"/>
		<path class="st8" d="M1477.1,392.6c0,2-4.4,3.6-9.9,3.6s-10-1.6-10-3.6s4.5-3.6,10-3.6S1477.1,390.6,1477.1,392.6z"/>
		<ellipse class="st7" cx="819.5" cy="461" rx="71.9" ry="29.1"/>
		<ellipse class="st7" cx="1073.4" cy="461" rx="71.9" ry="29.1"/>
		<ellipse class="st7" cx="1330.6" cy="434.5" rx="71.9" ry="29.1"/>
		<ellipse class="st7" cx="1583.8" cy="459.7" rx="71.9" ry="29.1"/>
		<path class="st9" d="M792.1,204.7c-1.3-4.9-4.5-8.8-8.9-12c-4.3-3.3-5.7-9.1-3.4-14c2.5-5.1,3-11,1.6-16.5
			c-2.5-15.3-35.1-58.3-54.9-49.8c-18.1,6.2-24.8,51.1-18.5,64.4c2.2,4.8,7.1,7.8,13,10c5.8,2.3,7.7,7.7,5,12.4
			c-2.9,4.9-3.7,10.3-1.9,14.8s5.7,7.8,10.6,10.4c4.4,2.3,6.1,7.8,3.7,12.2c-0.1,0.1-0.1,0.2-0.2,0.3c-2.7,4.4-3.5,9.6-2.2,14.6
			c1.3,4.9,4.5,8.8,8.9,12c4.2,3.2,5.6,8.9,3.3,13.7c-2.5,4.9-3.1,10.5-1.8,15.9c3.3,14.9,27.3,40.6,47.9,35.5
			c19.8-3.9,31.9-36.6,25.7-49.7c-2.2-4.7-7.1-7.5-13-9.5c-5.8-2.1-7.6-7.4-4.9-12.2c2.9-5.1,3.7-10.4,2-14.9s-5.6-7.6-10.5-10.2
			c-4.4-2.3-6.1-7.7-3.8-12.1c0.1-0.2,0.2-0.3,0.3-0.5C792.5,215,793.3,209.7,792.1,204.7z"/>
		<path class="st10" d="M794,346.9c-35-80.6-30.1-140.8-63-217.6c-0.5-1.1-0.1-2.3,1-2.9c0.1-0.1,0.3-0.1,0.4-0.1
			c1.4-0.2,2.7,0.5,3.2,1.8c34.5,78,33.4,140.2,72.2,214.6c1.6,3.5,0.2,7.6-3.3,9.2c-0.1,0.1-0.3,0.1-0.4,0.2
			c-3.6,1.4-8.1-0.7-9.9-4.9L794,346.9z"/>
		<path class="st11" d="M847.7,193c1.8-4.4,5.6-7.4,10.5-8.8s6.5-6.1,4.3-11.5s-3.2-10.8-1.7-15.6c4-9.9,28.4-51.3,49.4-44.5
			c19.9,10.5,23.7,48.2,18.8,65.8c-2.2,6.7-6.1,12.7-11.5,17.3c-5.2,4.4-7.3,10.3-5,14.8c2.5,4.6,2.8,10,0.9,14.9
			c-2,5.4-6.1,9.7-11.3,12.2c-5,2.3-7,7-5,11.9s2.7,9.9,0.8,14.3c-1.9,4.4-5.8,7.6-10.5,8.7c-4.7,1.2-6.6,5.9-4.4,11.3
			s2.9,10.6,1.4,15.3c-4.2,11.5-25.8,30.7-45.1,25.4c-18.8-7-27.9-29-22.9-46.5c2.2-6.8,6.3-12.8,11.7-17.3
			c5.3-4.4,7.4-10.2,5.1-14.6c-2.5-4.5-2.9-9.9-1-14.8c2.1-5.3,6.2-9.7,11.4-12c5-2.2,7.1-6.9,5-11.8S845.9,197.4,847.7,193z"/>
		<path class="st10" d="M841.6,345.8c18.2-100.2,46.3-117.4,66.3-213.1c0.4-1.4-0.3-2.9-1.6-3.6c-1.2-0.4-2.5,0.5-2.9,2
			c-22.1,91.8-51.8,109.2-75.6,209.9c-1.3,4.5,0.7,9.2,4.6,10.9s7.9-0.9,9.1-5.8C841.5,346.1,841.5,345.9,841.6,345.8z"/>
		<path class="st12" d="M861.9,186.6c0-6.2-3.2-8.7-7.9-10.3c-4.5-2-4.3-8.9,0.3-16.3c4.8-8,7.7-16.8,7.7-22.8
			c-0.5-10.4-18.4-57.8-43-63.1c-22.1,2.9-41.1,44.6-43,63.1c0,6.2,3.5,10.8,9,14.6c5.2,4.1,5.2,10.2,0,15.4c-5.4,5.5-9,13.2-9,19.3
			s3.5,9.6,8.8,12.1c5,2.9,4.8,9.1-0.2,15.5c-5.2,6.9-8.6,15.7-8.6,21.8c0,6.2,3.3,8.8,8.1,10.4c4.6,2,4.4,8.7-0.3,16.1
			c-4.8,7.9-7.8,16.8-7.8,22.9c0.8,13,18.9,33.7,41.3,41.1c21.5,4.5,43.5-21.9,44.6-41.1c0-6.2-3.6-10.6-9-14.1
			c-5.2-3.8-5.1-10,0-15.4c5.4-5.8,9-13.8,9-19.9c0-6.2-3.5-9.4-8.7-11.7c-4.9-2.6-4.7-8.9,0.2-15.6
			C858.6,201.5,861.9,192.6,861.9,186.6z"/>
		<path class="st13" d="M810.2,347.7c-2.9-109.8,10.5-152,7.3-251.4c-0.1-1.8,1.1-3,2.6-2.9c1.6,0.4,2.7,1.8,2.7,3.5
			c5.9,102.6-5.5,150.2,3.6,251.7c0.5,5.3-2.8,9.9-7.3,10.1s-8.6-4.6-8.9-10.5C810.2,348,810.2,347.8,810.2,347.7z"/>
		<path class="st14" d="M855.3,352.1c-15.2-8.5-35.7-7.9-35.7-7.9s-21.2-0.6-36.4,8.3c6.4,3.1,19.9,5.3,35.6,5.3
			C835.2,357.8,849.2,355.4,855.3,352.1z"/>
		<path class="st15" d="M871.1,375.4c-0.9-11.5-7.6-18.7-15.8-23.3c-6.1,3.3-20.1,5.7-36.5,5.7c-6.8,0-13.5-0.4-20.2-1.3
			c-2.6,4.5-4.4,10.6-4.8,19c-0.5,12.2-0.7,49-0.2,91.7c8.5,1.8,17.1,2.6,25.8,2.6c22.4,0,41.9-5.5,52.3-13.5
			C872.4,418.2,872,386.6,871.1,375.4z"/>
		<path class="st16" d="M793.8,375.4c0.3-8.4,2.2-14.5,4.8-19c-3-0.4-5.9-1-8.8-1.7h-0.2c-1.2-0.3-2.2-0.6-3.2-0.9l-0.4-0.1
			c-1-0.3-1.9-0.7-2.9-1.2c-7.9,4.6-14.2,11.8-15.1,23s-1.3,43-0.6,81.1c6.1,4.6,15.2,8.3,26.2,10.6
			C793.2,424.4,793.3,387.6,793.8,375.4z"/>
		<path class="st17" d="M786.1,353.7l0.4,0.1L786.1,353.7z"/>
		<path class="st17" d="M789.7,354.7h0.2H789.7z"/>
		<path class="st18" d="M786.5,353.8c1,0.3,2,0.6,3.2,0.9C788.5,354.4,787.5,354.1,786.5,353.8z"/>
		<path class="st18" d="M783.2,352.5c0.9,0.4,1.9,0.8,2.9,1.2C785.1,353.3,784.1,352.9,783.2,352.5z"/>
		<path class="st18" d="M798.6,356.5c-3-0.4-5.9-1-8.8-1.7C792.7,355.5,795.7,356,798.6,356.5z"/>
		<path class="st16" d="M780,412.4c14.5,4.9,29.9,6.1,45,3.6C814.7,425.2,789.1,421.5,780,412.4z"/>
		<path class="st16" d="M859.4,448.9c0,0-35.9,9.4-69.5,4.7C800.4,465.3,855.1,461,859.4,448.9z"/>
		<path class="st9" d="M1099.6,219.8c1.2-4.6,4.3-8.3,8.4-11.3c4-3.1,5.4-8.6,3.2-13.2c-2.3-4.8-2.8-10.3-1.5-15.5
			c2.4-14.4,33.1-55,51.8-47c17,5.9,23.4,48.2,17.5,60.8c-2.1,4.5-6.7,7.4-12.3,9.4c-5.5,2.1-7.3,7.2-4.7,11.7
			c2.7,4.7,3.5,9.7,1.8,14s-5.4,7.4-10,9.9c-4.1,2.1-5.8,7.3-3.6,11.4c0.1,0.1,0.2,0.3,0.2,0.4c2.5,4.1,3.3,9.1,2.1,13.8
			c-1.2,4.6-4.3,8.3-8.4,11.3c-4,3-5.3,8.4-3.1,12.9c2.3,4.6,2.9,10,1.7,15c-3.2,14-25.8,38.3-45.2,33.5
			c-18.7-3.6-30.1-34.6-24.2-46.9c2.1-4.4,6.7-7.1,12.3-9s7.2-7,4.6-11.5c-2.7-4.8-3.5-9.9-1.9-14.1s5.3-7.2,9.9-9.6
			c4.1-2.2,5.7-7.2,3.6-11.4c-0.1-0.2-0.2-0.3-0.3-0.5C1099.2,229.6,1098.5,224.5,1099.6,219.8z"/>
		<path class="st10" d="M1097.8,353.9c33-76.1,28.4-132.8,59.4-205.3c0.5-1,0.1-2.2-0.9-2.7c-0.1-0.1-0.2-0.1-0.4-0.1
			c-1.3-0.2-2.6,0.5-3.1,1.7c-32.6,73.6-31.5,132.2-68.1,202.4c-1.5,3.3-0.1,7.2,3.1,8.7c0.1,0.1,0.2,0.1,0.4,0.2
			c3.4,1.3,7.6-0.7,9.4-4.6L1097.8,353.9z"/>
		<path class="st12" d="M1047.1,208.8c-1.8-4.2-5.5-7.2-9.9-8.3c-4.5-1.2-6.2-5.8-4-10.9s3-10.2,1.6-14.7
			c-3.7-9.3-26.8-48.4-46.6-42c-18.7,9.9-22.3,45.5-17.7,62.1c2,6.3,5.8,12,10.8,16.3c4.9,4.2,6.9,9.7,4.8,13.9
			c-2.3,4.3-2.6,9.4-0.9,14c1.9,5.1,5.7,9.2,10.6,11.5c4.7,2.2,6.7,6.6,4.7,11.2s-2.5,9.3-0.8,13.5c1.8,4.1,5.5,7.2,9.9,8.2
			c4.4,1.1,6.2,5.6,4.2,10.6s-2.8,10-1.4,14.4c3.9,10.9,24.3,28.9,42.6,23.9c17.7-6.6,26.3-27.3,21.6-43.8c-2.1-6.4-5.9-12-11-16.4
			c-5-4.2-7-9.6-4.8-13.8c2.4-4.3,2.7-9.4,0.9-13.9c-2-5-5.8-9.1-10.8-11.3c-4.8-2.1-6.7-6.5-4.7-11.1S1048.8,213,1047.1,208.8z"/>
		<path class="st10" d="M1052.9,352.9c-17.2-94.5-43.7-110.7-62.6-201c-0.4-1.3,0.2-2.8,1.5-3.4c1.2-0.3,2.4,0.5,2.7,1.8
			c0,0.1,0,0.1,0,0.2c20.8,86.6,48.8,103,71.3,198c1.2,4.3-0.7,8.7-4.3,10.3s-7.5-0.8-8.6-5.5L1052.9,352.9z"/>
		<path class="st19" d="M1033.8,202.7c0-5.9,3-8.2,7.5-9.7c4.3-1.9,4.1-8.4-0.2-15.3c-4.5-7.5-7.3-15.8-7.2-21.5
			c0.5-9.8,17.3-54.5,40.5-59.5c20.9,2.7,38.8,42,40.5,59.5c0,5.9-3.3,10.2-8.4,13.8c-4.9,3.9-4.9,9.7,0,14.5
			c5.1,5.2,8.5,12.5,8.5,18.2s-3.3,9.1-8.3,11.4c-4.7,2.7-4.5,8.6,0.2,14.6c4.9,6.6,8.1,14.8,8.1,20.5c0,5.9-3.1,8.3-7.6,9.8
			c-4.3,1.9-4.1,8.3,0.2,15.2c4.6,7.5,7.4,15.9,7.4,21.6c-0.7,12.3-17.9,31.8-38.9,38.8c-20.3,4.3-41.1-20.6-42.1-38.8
			c0-5.9,3.4-10,8.5-13.3c4.9-3.6,4.8-9.4,0-14.5c-5.1-5.5-8.5-13-8.4-18.7s3.3-8.8,8.2-11c4.6-2.5,4.4-8.4-0.2-14.7
			C1036.9,216.8,1033.8,208.4,1033.8,202.7z"/>
		<path class="st13" d="M1082.6,354.7c2.7-103.5-10-143.3-6.9-237.2c0.1-1.7-1-2.9-2.4-2.7c-1.5,0.4-2.6,1.7-2.6,3.3
			c-5.6,96.8,5.2,141.7-3.3,237.4c-0.4,5,2.6,9.3,6.9,9.5s8.1-4.4,8.4-9.9C1082.5,355,1082.5,354.8,1082.6,354.7z"/>
		<path class="st14" d="M1107.4,358.8c-14.3-8-33.7-7.5-33.7-7.5s-20-0.6-34.3,7.8c6.1,2.9,18.8,5,33.6,5
			C1088.4,364.2,1101.6,362,1107.4,358.8z"/>
		<path class="st15" d="M1122.2,380.9c-0.9-10.9-7.2-17.7-14.9-22c-5.7,3.1-19,5.4-34.4,5.4c-6.4,0-12.7-0.4-19-1.3
			c-2.4,4.2-4.2,10-4.5,17.9c-0.5,11.5-0.6,46.2-0.2,86.5c8,1.7,16.1,2.5,24.3,2.5c21.1,0,39.5-5.1,49.3-12.8
			C1123.5,421.2,1123.1,391.4,1122.2,380.9z"/>
		<path class="st16" d="M1049.4,380.9c0.3-7.9,2.1-13.7,4.5-17.9c-2.8-0.4-5.5-0.9-8.3-1.6h-0.2c-1.1-0.3-2.1-0.6-3-0.9l-0.4-0.1
			c-0.9-0.3-1.8-0.7-2.7-1.1c-7.4,4.4-13.4,11.1-14.3,21.6s-1.2,40.5-0.6,76.5c5.8,4.4,14.4,7.9,24.7,10
			C1048.8,427,1048.9,392.4,1049.4,380.9z"/>
		<path class="st17" d="M1105.3,360.3l-0.4,0.1L1105.3,360.3z"/>
		<path class="st17" d="M1101.9,361.3h-0.2H1101.9z"/>
		<path class="st18" d="M1104.9,360.4c-0.9,0.3-1.9,0.6-3,0.9C1103,361,1103.9,360.7,1104.9,360.4z"/>
		<path class="st18" d="M1108,359.2c-0.9,0.4-1.8,0.8-2.7,1.1C1106.2,360,1107.1,359.6,1108,359.2z"/>
		<path class="st18" d="M1093.4,362.9c2.8-0.4,5.5-0.9,8.3-1.6C1099,362,1096.2,362.6,1093.4,362.9z"/>
		<path class="st16" d="M1111,415.7c-13.7,4.6-28.2,5.8-42.4,3.4C1078.3,427.8,1102.4,424.3,1111,415.7z"/>
		<path class="st16" d="M1036.1,450.1c0,0,33.9,8.8,65.6,4.4C1091.7,465.6,1040.2,461.5,1036.1,450.1z"/>
		<path class="st9" d="M1355.9,193.2c1.2-4.6,4.3-8.3,8.4-11.3c4-3.1,5.4-8.6,3.2-13.2c-2.3-4.8-2.8-10.3-1.5-15.5
			c2.4-14.4,33.1-55,51.8-47c17,5.8,23.4,48.2,17.5,60.8c-2,4.5-6.7,7.4-12.3,9.4c-5.5,2.1-7.3,7.2-4.7,11.7c2.7,4.7,3.5,9.7,1.8,14
			s-5.4,7.4-10,9.9c-4.1,2.1-5.8,7.2-3.6,11.4c0.1,0.2,0.2,0.3,0.3,0.5c2.5,4.1,3.3,9.1,2.1,13.8c-1.2,4.6-4.3,8.3-8.4,11.3
			c-4,3-5.3,8.4-3.1,12.9c2.4,4.6,2.9,10,1.7,15c-3.2,14-25.8,38.3-45.2,33.5c-18.7-3.6-30.1-34.6-24.2-46.9c2.1-4.4,6.7-7.1,12.3-9
			s7.2-7,4.6-11.5c-2.7-4.8-3.5-9.9-1.9-14.1s5.3-7.2,9.9-9.6c4.1-2.2,5.7-7.3,3.6-11.4c-0.1-0.2-0.2-0.3-0.3-0.4
			C1355.5,203,1354.7,198,1355.9,193.2z"/>
		<path class="st10" d="M1354.1,327.4c33-76.1,28.4-132.8,59.4-205.3c0.5-1,0.1-2.2-0.9-2.7c-0.1-0.1-0.2-0.1-0.4-0.1
			c-1.3-0.2-2.6,0.5-3.1,1.7c-32.6,73.6-31.5,132.2-68.1,202.4c-1.5,3.3-0.1,7.2,3.1,8.7c0.1,0.1,0.2,0.1,0.4,0.2
			c3.4,1.3,7.6-0.7,9.4-4.6L1354.1,327.4z"/>
		<path class="st12" d="M1303.4,182.2c-1.7-4.1-5.3-7-9.9-8.3s-6.2-5.8-4-10.9s3-10.2,1.6-14.7c-3.7-9.3-26.8-48.4-46.6-42
			c-18.7,9.9-22.3,45.5-17.7,62.1c2,6.3,5.8,12,10.8,16.3c4.9,4.2,6.9,9.7,4.8,13.9c-2.3,4.3-2.6,9.4-0.9,14
			c1.9,5.1,5.7,9.2,10.6,11.5c4.7,2.2,6.7,6.6,4.7,11.2s-2.5,9.3-0.8,13.4c1.8,4.1,5.5,7.2,9.9,8.2c4.4,1.1,6.2,5.6,4.2,10.6
			s-2.8,10-1.3,14.4c3.9,10.9,24.3,28.9,42.5,23.9c17.7-6.6,26.3-27.3,21.6-43.8c-2.1-6.4-5.9-12-11-16.4c-5-4.2-7-9.6-4.8-13.8
			c2.4-4.3,2.7-9.4,0.9-13.9c-2-5-5.8-9.1-10.8-11.3c-4.8-2.1-6.7-6.5-4.7-11.1S1305.1,186.4,1303.4,182.2z"/>
		<path class="st10" d="M1309.2,326.3c-17.2-94.5-43.7-110.7-62.6-201c-0.4-1.3,0.2-2.8,1.5-3.4c1.2-0.4,2.3,0.5,2.7,1.9
			c20.8,86.6,48.8,103,71.3,198c1.2,4.3-0.7,8.7-4.3,10.3s-7.5-0.8-8.6-5.5C1309.3,326.6,1309.2,326.4,1309.2,326.3z"/>
		<path class="st19" d="M1290,176.1c0-5.9,3-8.2,7.5-9.7c4.3-1.9,4-8.4-0.2-15.4c-4.5-7.5-7.3-15.8-7.2-21.5
			c0.5-9.8,17.3-54.6,40.5-59.5c20.9,2.7,38.8,42.1,40.5,59.5c0,5.9-3.3,10.2-8.5,13.8c-4.9,3.9-4.9,9.7,0,14.5
			c5.1,5.2,8.5,12.5,8.5,18.2s-3.3,9.1-8.3,11.4c-4.7,2.7-4.5,8.6,0.2,14.6c4.9,6.6,8.1,14.8,8.1,20.5c0,5.9-3.1,8.3-7.6,9.8
			c-4.3,1.9-4.1,8.2,0.2,15.2c4.6,7.4,7.4,15.9,7.4,21.6c-0.7,12.3-17.9,31.8-38.9,38.8c-20.3,4.3-41.1-20.6-42.1-38.8
			c0-5.9,3.4-10,8.5-13.3c4.9-3.6,4.8-9.4,0-14.5c-5.1-5.5-8.5-13-8.4-18.7s3.3-8.9,8.2-11c4.6-2.5,4.4-8.4-0.2-14.7
			C1293.1,190.2,1290,181.8,1290,176.1z"/>
		<path class="st13" d="M1338.8,328.1c2.7-103.5-10-143.3-6.9-237.2c0.1-1.7-1-2.9-2.4-2.7c-1.5,0.4-2.6,1.7-2.6,3.3
			c-5.6,96.8,5.2,141.7-3.4,237.4c-0.4,5,2.6,9.3,6.9,9.5s8.1-4.4,8.4-9.9C1338.8,328.4,1338.8,328.3,1338.8,328.1z"/>
		<path class="st14" d="M1363.6,332.3c-14.3-8-33.7-7.5-33.7-7.5s-20-0.6-34.3,7.8c6.1,3,18.8,5,33.6,5
			C1344.6,337.6,1357.9,335.4,1363.6,332.3z"/>
		<path class="st15" d="M1378.5,354.3c-0.9-10.9-7.2-17.7-14.9-22c-5.7,3.1-19,5.4-34.4,5.4c-6.4,0-12.7-0.4-19-1.3
			c-2.4,4.2-4.2,10-4.5,17.9c-0.5,11.5-0.6,46.2-0.2,86.5c8,1.7,16.1,2.5,24.3,2.5c21.1,0,39.5-5.1,49.3-12.8
			C1379.7,394.7,1379.3,364.8,1378.5,354.3z"/>
		<path class="st16" d="M1305.7,354.3c0.3-7.9,2.1-13.7,4.5-17.9c-2.8-0.4-5.5-0.9-8.3-1.6h-0.2c-1.1-0.3-2.1-0.6-3-0.9
			c-0.1,0-0.3-0.1-0.4-0.1c-0.9-0.3-1.8-0.7-2.7-1.1c-7.4,4.4-13.4,11.1-14.3,21.6s-1.2,40.5-0.6,76.5c5.8,4.4,14.4,7.9,24.7,10
			C1305,400.5,1305.2,365.8,1305.7,354.3z"/>
		<path class="st17" d="M1361.5,333.7c-0.1,0-0.3,0.1-0.4,0.1C1361.3,333.8,1361.4,333.8,1361.5,333.7z"/>
		<path class="st17" d="M1358.1,334.8h-0.2H1358.1z"/>
		<path class="st18" d="M1361.1,333.9c-0.9,0.3-1.9,0.6-3,0.9C1359.2,334.5,1360.2,334.2,1361.1,333.9z"/>
		<path class="st18" d="M1364.2,332.6c-0.9,0.4-1.8,0.8-2.7,1.1C1362.5,333.4,1363.4,333.1,1364.2,332.6z"/>
		<path class="st18" d="M1349.7,336.4c2.8-0.4,5.5-0.9,8.3-1.6C1355.3,335.5,1352.5,336,1349.7,336.4z"/>
		<path class="st16" d="M1367.3,389.2c-13.7,4.6-28.2,5.8-42.4,3.4C1334.6,401.2,1358.7,397.8,1367.3,389.2z"/>
		<path class="st16" d="M1292.3,423.5c0,0,33.9,8.9,65.6,4.4C1348,439,1296.4,435,1292.3,423.5z"/>
		<path class="st9" d="M1615,187.3c1.4-5.2,4.8-9.4,9.5-12.8c4.5-3.5,6.1-9.7,3.6-14.9c-2.6-5.5-3.2-11.7-1.7-17.5
			c2.7-16.3,37.3-62.1,58.5-53c19.2,6.6,26.4,54.4,19.8,68.6c-2.3,5.1-7.5,8.3-13.9,10.7c-6.2,2.4-8.2,8.2-5.3,13.2
			c3,5.3,3.9,10.9,2.1,15.8s-6,8.3-11.3,11.1c-4.7,2.4-6.5,8.2-4.1,12.8c0.1,0.2,0.2,0.3,0.3,0.5c2.8,4.7,3.7,10.3,2.4,15.6
			c-1.4,5.2-4.8,9.3-9.5,12.8c-4.5,3.4-5.9,9.5-3.5,14.6c2.6,5.2,3.3,11.2,1.9,16.9c-3.6,15.8-29.1,43.3-51,37.8
			c-21.1-4.1-34-39-27.3-53c2.3-5,7.6-8,13.9-10.1c6.2-2.2,8.1-7.9,5.2-13c-3.1-5.4-4-11.1-2.1-15.9s6-8.1,11.1-10.8
			c4.7-2.4,6.5-8.2,4-12.9c-0.1-0.2-0.2-0.3-0.3-0.5C1614.5,198.4,1613.7,192.7,1615,187.3z"/>
		<path class="st10" d="M1613,338.8c37.3-85.9,32.1-149.9,67.1-231.7c0.5-1.1,0.1-2.5-1.1-3c-0.1-0.1-0.3-0.1-0.4-0.1
			c-1.5-0.2-2.9,0.5-3.4,1.9c-36.8,83-35.5,149.2-76.8,228.5c-1.7,3.7-0.2,8.1,3.5,9.8c0.1,0.1,0.3,0.1,0.4,0.2
			c3.9,1.5,8.6-0.8,10.6-5.2L1613,338.8z"/>
		<path class="st11" d="M1555.7,175c-1.9-4.7-6-7.9-11.2-9.3c-5-1.4-7-6.6-4.6-12.3s3.3-11.5,1.8-16.6
			c-4.2-10.5-30.3-54.6-52.6-47.4c-21.2,11.2-25.2,51.4-20,70.1c2.3,7.1,6.5,13.5,12.2,18.4c5.5,4.7,7.8,11,5.4,15.7
			c-2.6,4.9-3,10.7-1,15.8c2.2,5.7,6.5,10.4,12,13c5.3,2.5,7.5,7.5,5.3,12.7s-2.8,10.5-0.9,15.2s6,7.9,11.2,9.2s7,6.3,4.7,12
			s-3.1,11.3-1.5,16.3c4.4,12.3,27.4,32.6,48.1,27c20-7.4,29.7-30.9,24.3-49.5c-2.4-7.2-6.7-13.6-12.5-18.5
			c-5.6-4.7-7.9-10.8-5.4-15.5c2.7-4.8,3-10.6,1-15.7c-2.2-5.7-6.5-10.3-12-12.8c-5.4-2.4-7.6-7.4-5.3-12.6S1557.7,179.6,1555.7,175
			z"/>
		<path class="st10" d="M1562.3,337.6c-19.4-106.7-49.3-125-70.6-226.9c-0.5-1.5,0.3-3.1,1.7-3.8c1.3-0.4,2.6,0.6,3,2.2
			c23.5,97.7,55.1,116.3,80.5,223.5c1.4,4.8-0.8,9.8-4.8,11.6s-8.5-1-9.7-6.2C1562.4,337.9,1562.3,337.7,1562.3,337.6z"/>
		<path class="st12" d="M1540.7,168.1c0-6.6,3.4-9.2,8.4-11c4.8-2.1,4.6-9.4-0.3-17.3c-5.1-8.5-8.2-17.9-8.2-24.3
			c0.6-11.1,19.6-61.6,45.8-67.2c23.6,3,43.7,47.5,45.8,67.2c0,6.6-3.8,11.5-9.6,15.6c-5.6,4.4-5.5,10.9,0,16.4
			c5.8,5.9,9.6,14.1,9.6,20.6s-3.8,10.2-9.3,12.9c-5.3,3-5.1,9.6,0.2,16.5c5.6,7.4,9.2,16.7,9.1,23.2c0,6.6-3.5,9.3-8.6,11.1
			c-4.9,2.1-4.7,9.3,0.3,17.1c5.2,8.4,8.4,17.9,8.3,24.4c-0.8,13.8-20.2,35.9-44,43.8c-22.9,4.8-46.3-23.3-47.5-43.8
			c0-6.6,3.8-11.2,9.6-15c5.5-4.1,5.5-10.6,0-16.4c-5.8-6.2-9.6-14.7-9.5-21.1c0-6.6,3.7-10,9.2-12.4c5.2-2.8,5-9.5-0.2-16.6
			C1544.2,184,1540.7,174.5,1540.7,168.1z"/>
		<path class="st20" d="M1595.7,339.6c3-116.9-11.2-161.8-7.8-267.7c0.1-1.9-1.2-3.2-2.7-3c-1.7,0.4-2.9,1.9-2.9,3.7
			c-6.3,109.3,5.8,159.9-3.8,268c-0.5,5.6,2.9,10.5,7.8,10.7s9.1-5,9.5-11.1C1595.7,340,1595.7,339.8,1595.7,339.6z"/>
		<path class="st14" d="M1623.7,344.3c-16.2-9.1-38-8.4-38-8.4s-22.5-0.7-38.7,8.8c6.9,3.3,21.2,5.6,37.9,5.6
			C1602.3,350.4,1617.3,347.9,1623.7,344.3z"/>
		<path class="st15" d="M1640.5,369.2c-1-12.3-8.1-19.9-16.8-24.8c-6.5,3.5-21.4,6-38.8,6c-7.2,0-14.4-0.5-21.5-1.4
			c-2.7,4.8-4.7,11.3-5.1,20.2c-0.5,13-0.7,52.1-0.2,97.7c9,1.9,18.2,2.8,27.4,2.8c23.8,0,44.6-5.8,55.7-14.4
			C1641.9,414.7,1641.5,381,1640.5,369.2z"/>
		<path class="st16" d="M1558.3,369.2c0.4-8.9,2.3-15.5,5.1-20.2c-3.1-0.4-6.3-1-9.3-1.8h-0.2c-1.2-0.3-2.3-0.6-3.4-1l-0.5-0.1
			c-1-0.4-2.1-0.8-3.1-1.2c-8.4,4.9-15.1,12.5-16.1,24.4s-1.4,45.7-0.7,86.3c6.5,4.9,16.2,8.9,27.9,11.3
			C1557.6,421.3,1557.8,382.1,1558.3,369.2z"/>
		<path class="st16" d="M1627.9,408.5c-15.4,5.2-31.9,6.5-47.9,3.9C1591,422.1,1618.2,418.3,1627.9,408.5z"/>
		<path class="st16" d="M1543.3,447.4c0,0,38.3,10,74,5C1606.1,464.8,1547.9,460.3,1543.3,447.4z"/>
		<path class="st7" d="M503.1,756c0,3.6-7.3,6.5-16.4,6.5s-16.4-2.9-16.4-6.5s7.3-6.5,16.4-6.5S503.1,752.4,503.1,756z"/>
		<path class="st7" d="M606.6,785c0,3.6-7.3,6.5-16.4,6.5s-16.4-2.9-16.4-6.5s7.3-6.5,16.4-6.5S606.6,781.4,606.6,785z"/>
		<path class="st8" d="M559,803.5c0,2.6-5.3,4.7-11.8,4.7s-11.8-2.1-11.8-4.7s5.3-4.7,11.8-4.7S559,800.9,559,803.5z"/>
		<path class="st7" d="M1095.6,738.8c0,4-7.3,7.3-16.4,7.3s-16.4-3.2-16.4-7.3s7.3-7.3,16.4-7.3S1095.6,734.8,1095.6,738.8z"/>
		<path class="st7" d="M1199,771.1c0,4-7.3,7.3-16.4,7.3s-16.4-3.3-16.4-7.3s7.3-7.3,16.4-7.3S1199,767.1,1199,771.1z"/>
		<path class="st7" d="M788.9,633c0,4-7.3,7.3-16.4,7.3s-16.4-3.3-16.4-7.3s7.3-7.3,16.4-7.3S788.9,629,788.9,633z"/>
		<path class="st7" d="M833.7,763.8c0,4-7.3,7.3-16.4,7.3s-16.4-3.3-16.4-7.3s7.3-7.3,16.4-7.3S833.7,759.8,833.7,763.8z"/>
		<path class="st8" d="M1151.4,791.6c0,2.9-5.3,5.2-11.8,5.2s-11.8-2.3-11.8-5.2s5.3-5.2,11.8-5.2S1151.4,788.7,1151.4,791.6z"/>
		<path class="st7" d="M1348.8,803.7c0-3.8-7.3-6.9-16.4-6.9s-16.4,3.1-16.4,6.9s7.3,6.9,16.4,6.9S1348.8,807.5,1348.8,803.7z"/>
		<path class="st7" d="M1452.3,773.1c0-3.8-7.3-6.9-16.4-6.9s-16.4,3.1-16.4,6.9s7.3,6.9,16.4,6.9S1452.3,776.9,1452.3,773.1z"/>
		<ellipse class="st8" cx="1392.9" cy="753.6" rx="11.8" ry="5"/>
		<path class="st7" d="M1348.8,600.3c0,4.7-7.3,8.5-16.4,8.5s-16.4-3.8-16.4-8.5s7.3-8.4,16.4-8.4S1348.8,595.6,1348.8,600.3z"/>
		<path class="st7" d="M1452.3,637.8c0,4.7-7.3,8.4-16.4,8.4s-16.4-3.8-16.4-8.4s7.3-8.5,16.4-8.5S1452.3,633.2,1452.3,637.8z"/>
		<ellipse class="st8" cx="1392.9" cy="661.8" rx="11.8" ry="6.1"/>
		<ellipse class="st7" cx="623.8" cy="724.2" rx="85.3" ry="25.3"/>
		<ellipse class="st7" cx="925.3" cy="724.2" rx="85.3" ry="25.3"/>
		<ellipse class="st7" cx="1230.7" cy="701.2" rx="85.3" ry="25.3"/>
		<ellipse class="st7" cx="1531.3" cy="723" rx="85.3" ry="25.3"/>
		<path class="st9" d="M591.3,501.5c-1.5-4.3-5.4-7.6-10.6-10.4s-6.8-7.9-4-12.1c2.9-4.2,3.6-9.5,1.9-14.3
			c-3-13.3-41.6-50.6-65.2-43.2c-21.5,5.4-29.5,44.4-22,56c2.6,4.1,8.4,6.8,15.5,8.7c6.9,2,9.1,6.7,5.9,10.8
			c-3.4,4.3-4.4,8.9-2.3,12.9s6.7,6.8,12.5,9.1s7.3,7.1,4.3,10.9c-3.1,4-4.2,8.5-2.7,12.7s5.4,7.6,10.5,10.4s6.6,7.9,3.9,11.9
			c-2.9,4-3.7,9.1-2.1,13.8c4,12.9,32.4,35.3,56.9,30.8c23.5-3.4,37.9-31.8,30.5-43.2c-2.6-4.1-8.5-6.5-15.5-8.3
			c-6.9-1.8-9-6.4-5.8-10.6c3.4-4.4,4.4-9.1,2.4-13s-6.7-6.7-12.4-8.8s-7.2-7-4.2-10.9C591.7,510.4,592.8,505.8,591.3,501.5z"/>
		<path class="st10" d="M593.5,625.1c-41.5-70.1-35.8-122.3-74.8-189c-0.6-1.2,0.1-2.3,1.6-2.6c1.5-0.3,3,0.3,3.8,1.6
			c41,67.8,39.6,121.7,85.7,186.4c2,3.3-0.1,7-4.4,8.2s-9.6-0.6-11.8-4.2C593.7,625.3,593.6,625.2,593.5,625.1z"/>
		<path class="st11" d="M657.4,491.4c2.1-3.8,6.7-6.4,12.5-7.6c5.6-1.1,7.8-5.3,5.1-10s-3.7-9.4-2-13.6c4.7-8.6,33.8-44.6,58.7-38.7
			c23.6,9.1,28.1,41.9,22.3,57.2c-2.2,5.4-7.3,11-13.6,15c-6.2,3.9-8.6,9-6,12.8c2.9,3.7,3.3,8.8,1.1,12.9
			c-2.4,4.6-7.3,8.5-13.4,10.6c-5.9,2-8.4,6.1-5.9,10.3s3.2,8.6,1,12.4s-6.7,6.4-12.5,7.5c-5.6,1.1-7.8,5.2-5.2,9.8
			s3.5,9.3,1.7,13.3c-4.9,10-30.6,26.6-53.6,22c-22.3-6-33.1-25.2-27.2-40.3c2.3-5.4,7.4-11.1,13.9-15.1c6.3-3.8,8.8-8.8,6.1-12.7
			c-3-3.6-3.4-8.7-1.2-12.8c2.3-4.5,7.4-8.3,13.5-10.4c6-1.9,8.4-6,5.9-10.3S655.2,495.3,657.4,491.4z"/>
		<path class="st10" d="M650,624.1c21.6-87,55-102,78.8-185.1c0.4-1.3-0.4-2.6-1.7-3c-0.1,0-0.2,0-0.3-0.1c-1.4-0.3-2.9,0.4-3.4,1.8
			c-26.2,79.7-61.4,94.9-89.7,182.3c-1.5,3.9,0.8,8,5.4,9.5s9.4-0.8,10.8-5.1L650,624.1z"/>
		<path class="st12" d="M674.1,485.8c0-5.4-3.8-7.5-9.4-8.9c-5.4-1.7-5.1-7.7,0.3-14.1c5.6-6.9,9.1-14.6,9.1-19.8
			c-0.7-9.1-21.8-50.2-51-54.8c-26.3,2.5-48.8,38.7-51,54.8c0,5.4,4.2,9.4,10.7,12.7c6.2,3.5,6.2,8.9,0,13.4
			c-6.4,4.8-10.7,11.5-10.7,16.8s4.2,8.4,10.4,10.5c5.9,2.5,5.7,7.9-0.2,13.4c-6.2,6-10.2,13.6-10.2,18.9s3.9,7.6,9.6,9
			c5.5,1.8,5.2,7.6-0.3,14c-5.7,6.9-9.3,14.6-9.3,19.9c0.9,11.3,22.5,29.3,49,35.7c25.5,3.9,51.7-19,53-35.7
			c0-5.4-4.2-9.2-10.7-12.3c-6.2-3.3-6.1-8.7,0-13.3c6.4-5,10.7-12,10.6-17.3s-4.2-8.1-10.3-10.1c-5.8-2.3-5.6-7.7,0.3-13.5
			C670.2,498.8,674.2,491.1,674.1,485.8z"/>
		<path class="st13" d="M612.8,625.8c-3.4-95.3,12.5-132,8.7-218.4c0-1.4,1.2-2.5,2.6-2.5c0.1,0,0.3,0,0.4,0c1.7,0.1,3,1.4,3.3,3
			c7,89.1-6.5,130.5,4.2,218.6c0.6,4.6-3.3,8.6-8.7,8.7s-10.2-4-10.5-9.1C612.8,626,612.8,625.9,612.8,625.8z"/>
		<path class="st14" d="M666.3,629.6c-18-7.4-42.4-6.9-42.4-6.9s-25.1-0.5-43.2,7.2c7.6,2.7,23.6,4.6,42.3,4.6
			C642.4,634.5,659.1,632.5,666.3,629.6z"/>
		<path class="st15" d="M685.1,649.9c-1.1-10-9-16.3-18.7-20.3c-7.2,2.9-23.9,4.9-43.3,4.9c-8,0-16-0.4-24-1.2
			c-3,3.9-5.3,9.2-5.7,16.5c-0.6,10.6-0.8,42.5-0.2,79.7c10.1,1.5,20.3,2.3,30.6,2.3c26.6,0,49.7-4.8,62.1-11.8
			C686.6,687,686.1,659.5,685.1,649.9z"/>
		<path class="st16" d="M593.3,649.9c0.4-7.3,2.6-12.6,5.7-16.5c-3.9-0.4-7.4-0.9-10.4-1.5h-0.2c-1.4-0.3-2.6-0.5-3.8-0.8l-0.5-0.1
			c-1.3-0.3-2.4-0.7-3.4-1c-9.4,4-16.9,10.2-18,19.9s-1.5,37.3-0.7,70.4c7.3,4,18.1,7.3,31.1,9.3
			C592.5,692.4,592.8,660.5,593.3,649.9z"/>
		<path class="st17" d="M584.1,631l0.5,0.1L584.1,631z"/>
		<path class="st17" d="M588.4,631.9h0.2H588.4z"/>
		<path class="st18" d="M584.7,631.1c1.2,0.3,2.4,0.6,3.8,0.8C587,631.6,585.8,631.3,584.7,631.1z"/>
		<path class="st18" d="M580.7,629.9c1,0.4,2.1,0.7,3.4,1C582.9,630.6,581.7,630.3,580.7,629.9z"/>
		<path class="st18" d="M599,633.4c-3.9-0.4-7.3-0.9-10.4-1.5C591.6,632.5,595.1,633,599,633.4z"/>
		<path class="st16" d="M576.9,682c17.5,4.3,35.6,5.3,53.4,3.2C618.1,693.1,587.8,689.9,576.9,682z"/>
		<path class="st16" d="M671.2,713.6c0,0-42.7,8.2-82.6,4.1C601.2,727.9,666.1,724.2,671.2,713.6z"/>
		<path class="st9" d="M956.5,514.7c1.5-4,5.1-7.2,10-9.8s6.4-7.5,3.8-11.5c-2.7-4-3.4-9-1.8-13.5c2.8-12.5,39.3-47.8,61.5-40.8
			c20.2,5.1,27.8,41.8,20.8,52.8c-2.4,3.9-7.9,6.4-14.6,8.2c-6.5,1.9-8.6,6.3-5.6,10.1c3.2,4,4.1,8.4,2.2,12.1s-6.4,6.4-11.8,8.5
			s-6.8,6.7-4,10.3c3,3.8,4,8,2.5,12s-5.1,7.2-9.9,9.8s-6.3,7.4-3.7,11.2c2.8,3.7,3.5,8.6,2,13c-3.8,12.2-30.6,33.3-53.6,29.1
			c-22.2-3.2-35.7-30-28.8-40.8c2.5-3.8,8-6.2,14.6-7.8c6.5-1.7,8.5-6.1,5.5-10c-3.2-4.2-4.2-8.5-2.2-12.2s6.3-6.3,11.7-8.3
			s6.8-6.6,4-10.3C956,523,955,518.7,956.5,514.7z"/>
		<path class="st10" d="M954.3,631.2c39.2-66.1,33.7-115.3,70.6-178.3c0.6-1.1-0.1-2.2-1.5-2.4c-1.4-0.3-2.8,0.3-3.6,1.5
			c-38.7,63.9-37.3,114.8-80.8,175.8c-1.9,3.2,0.1,6.6,4.2,7.7s9-0.6,11.1-4C954.2,631.4,954.2,631.3,954.3,631.2z"/>
		<path class="st12" d="M894.1,505.1c-2-3.6-6.3-6.1-11.8-7.2c-5.3-1-7.3-5-4.8-9.5s3.5-8.9,1.9-12.8c-4.4-8.1-31.8-42-55.3-36.5
			c-22.3,8.6-26.5,39.5-21,53.9c2.1,5.1,6.9,10.4,12.8,14.2c5.8,3.6,8.1,8.4,5.6,12.1c-2.7,3.5-3.1,8.3-1,12.2
			c2.2,4.3,6.9,8,12.6,10c5.6,1.9,7.9,5.8,5.6,9.7s-3,8.1-0.9,11.7s6.3,6,11.8,7.1s7.4,4.9,4.9,9.2s-3.3,8.7-1.6,12.5
			c4.6,9.5,28.9,25.1,50.5,20.8c21-5.7,31.2-23.7,25.6-38.1c-2.1-5.1-7-10.4-13.1-14.2c-5.9-3.6-8.3-8.3-5.7-11.9
			c2.8-3.4,3.2-8.2,1.1-12.1c-2.2-4.3-7-7.9-12.8-9.8c-5.7-1.8-8-5.7-5.5-9.7S896.1,508.7,894.1,505.1z"/>
		<path class="st10" d="M901,630.3c-20.4-82.1-51.8-96.2-74.3-174.6c-0.4-1.2,0.3-2.5,1.5-2.8c0.1,0,0.2,0,0.3-0.1
			c1.3-0.3,2.7,0.4,3.2,1.7c24.7,75.2,58,89.5,84.7,172c1.5,3.7-0.8,7.6-5.1,9s-8.9-0.7-10.2-4.8C901.1,630.5,901,630.4,901,630.3z"
			/>
		<path class="st19" d="M878.3,499.8c0-5.1,3.6-7.1,8.9-8.4c5.1-1.6,4.8-7.3-0.3-13.3c-5.3-6.5-8.6-13.8-8.6-18.7
			c0.6-8.5,20.6-47.4,48.1-51.7c24.8,2.3,46,36.5,48.1,51.7c0,5.1-3.9,8.8-10,12c-5.8,3.4-5.8,8.4,0,12.6
			c6.1,4.5,10.1,10.9,10.1,15.8s-4,7.9-9.8,9.9c-5.6,2.3-5.4,7.4,0.2,12.7c5.8,5.7,9.6,12.9,9.6,17.8s-3.7,7.2-9,8.5
			c-5.2,1.7-4.9,7.2,0.3,13.2c5.4,6.5,8.8,13.8,8.8,18.7c-0.9,10.6-21.2,27.6-46.3,33.7c-24.1,3.7-48.8-17.9-50-33.7
			c0-5.1,4-8.7,10.1-11.6c5.8-3.2,5.7-8.2,0-12.6c-6.1-4.8-10-11.3-10-16.3s3.9-7.7,9.7-9.5c5.5-2.2,5.3-7.3-0.3-12.8
			C881.9,512.1,878.2,504.8,878.3,499.8z"/>
		<path class="st13" d="M936.2,631.8c3.2-89.9-11.8-124.5-8.2-206c0-1.3-1.1-2.4-2.4-2.4c-0.2,0-0.3,0-0.5,0
			c-1.6,0.1-2.8,1.3-3.1,2.8c-6.6,84.1,6.1,123-4,206.2c-0.5,4.3,3.1,8.1,8.2,8.2s9.6-3.8,10-8.6C936.2,632.1,936.2,632,936.2,631.8
			z"/>
		<path class="st14" d="M965.6,635.5c-17-7-40-6.5-40-6.5s-23.7-0.5-40.7,6.8c7.2,2.5,22.3,4.3,39.9,4.3
			C943.1,640.1,958.8,638.2,965.6,635.5z"/>
		<path class="st15" d="M983.3,654.6c-1-9.4-8.5-15.3-17.7-19.1c-6.8,2.7-22.5,4.7-40.9,4.7c-7.5,0-15.1-0.3-22.6-1.1
			c-2.9,3.7-5,8.7-5.4,15.5c-0.5,10-0.8,40.1-0.2,75.2c9.5,1.4,19.2,2.2,28.8,2.1c25.1,0,46.9-4.5,58.6-11.1
			C984.8,689.6,984.3,663.7,983.3,654.6z"/>
		<path class="st16" d="M896.8,654.6c0.4-6.9,2.5-11.9,5.4-15.5c-3.7-0.4-7-0.8-9.8-1.4h-0.2c-1.3-0.2-2.5-0.5-3.5-0.8l-0.5-0.1
			c-1.2-0.3-2.3-0.6-3.2-1c-8.8,3.8-15.9,9.6-16.9,18.8s-1.5,35.2-0.7,66.4c6.9,3.8,17.1,6.8,29.3,8.7
			C896,694.7,896.3,664.5,896.8,654.6z"/>
		<path class="st17" d="M963.2,636.7l-0.5,0.1L963.2,636.7z"/>
		<path class="st17" d="M959.1,637.6h-0.2H959.1z"/>
		<path class="st18" d="M962.7,636.8c-1.1,0.3-2.3,0.5-3.6,0.8C960.4,637.4,961.6,637.1,962.7,636.8z"/>
		<path class="st18" d="M966.4,635.8c-0.9,0.3-2,0.7-3.2,1C964.4,636.4,965.4,636.1,966.4,635.8z"/>
		<path class="st18" d="M949.1,639c3.6-0.4,6.9-0.8,9.8-1.4C956.1,638.2,952.8,638.6,949.1,639L949.1,639z"/>
		<path class="st16" d="M970,684.9c-16.5,4-33.6,5-50.4,3C931.2,695.3,959.8,692.3,970,684.9z"/>
		<path class="st16" d="M881,714.7c0,0,40.3,7.7,77.9,3.8C947.1,728.2,885.8,724.6,881,714.7z"/>
		<path class="st9" d="M1260.7,491.6c1.5-4,5.1-7.2,10-9.8s6.4-7.5,3.8-11.5c-2.7-4-3.4-9-1.8-13.5c2.8-12.5,39.2-47.8,61.5-40.8
			c20.2,5.1,27.8,41.8,20.8,52.8c-2.4,3.9-7.9,6.4-14.6,8.2c-6.5,1.9-8.6,6.3-5.5,10.1c3.2,4,4.1,8.4,2.2,12.1s-6.4,6.4-11.8,8.6
			c-5.3,2.2-6.8,6.6-4,10.3c3,3.8,4,8,2.5,12s-5.1,7.2-9.9,9.8s-6.3,7.4-3.7,11.2c2.8,3.7,3.5,8.6,2,13
			c-3.8,12.2-30.6,33.3-53.6,29.1c-22.1-3.2-35.7-30-28.8-40.8c2.5-3.8,8-6.2,14.6-7.8c6.5-1.7,8.5-6.1,5.4-10
			c-3.2-4.2-4.2-8.6-2.2-12.2s6.3-6.3,11.7-8.3s6.8-6.6,4-10.3C1260.3,499.9,1259.3,495.6,1260.7,491.6z"/>
		<path class="st10" d="M1258.6,608.1c39.2-66.1,33.8-115.3,70.6-178.3c0.6-1.1-0.1-2.2-1.5-2.4c-1.4-0.3-2.8,0.3-3.6,1.5
			c-38.7,63.9-37.3,114.8-80.8,175.8c-1.9,3.2,0.1,6.6,4.2,7.7s9-0.6,11.1-4L1258.6,608.1z"/>
		<path class="st12" d="M1198.4,482.1c-2-3.6-6.3-6.1-11.8-7.2c-5.3-1-7.3-5-4.8-9.5s3.5-8.9,1.9-12.8c-4.4-8.1-31.8-42-55.4-36.5
			c-22.3,8.6-26.5,39.5-21,53.9c2.1,5.1,6.8,10.4,12.8,14.2c5.8,3.6,8.2,8.4,5.6,12.1c-2.7,3.5-3.1,8.3-1,12.2
			c2.2,4.3,6.9,8,12.6,10c5.6,1.9,7.9,5.8,5.6,9.7s-3,8.1-0.9,11.7s6.3,6,11.8,7.1s7.4,4.9,4.9,9.2s-3.3,8.7-1.6,12.5
			c4.6,9.5,28.9,25.1,50.5,20.8c21-5.7,31.2-23.7,25.6-38.1c-2.1-5.1-7-10.5-13.1-14.2c-5.9-3.6-8.3-8.3-5.7-11.9
			c2.8-3.4,3.2-8.2,1.1-12.1c-2.2-4.3-6.9-7.9-12.8-9.8c-5.7-1.8-7.9-5.7-5.6-9.7S1200.4,485.7,1198.4,482.1z"/>
		<path class="st10" d="M1205.3,607.2c-20.4-82.1-51.8-96.1-74.3-174.6c-0.4-1.2,0.3-2.5,1.5-2.8c0.1,0,0.2,0,0.3-0.1
			c1.3-0.3,2.7,0.4,3.2,1.7c24.7,75.2,58,89.5,84.7,172c1.4,3.7-0.8,7.6-5.1,9s-8.9-0.7-10.2-4.8L1205.3,607.2z"/>
		<path class="st19" d="M1182.6,476.8c0-5.1,3.6-7.1,8.9-8.4c5.1-1.6,4.8-7.3-0.3-13.3c-5.3-6.5-8.6-13.8-8.6-18.7
			c0.6-8.5,20.6-47.4,48.1-51.7c24.8,2.3,46,36.5,48.1,51.7c0,5.1-3.9,8.8-10,12c-5.8,3.4-5.8,8.4,0,12.6
			c6.1,4.5,10.1,10.9,10.1,15.8s-4,7.9-9.8,9.9c-5.6,2.4-5.4,7.4,0.2,12.7c5.8,5.7,9.6,12.9,9.6,17.8s-3.7,7.2-9,8.5
			c-5.2,1.7-4.9,7.2,0.3,13.2c5.4,6.5,8.8,13.8,8.8,18.7c-0.9,10.6-21.2,27.6-46.3,33.7c-24.1,3.7-48.8-17.9-50-33.7
			c0-5.1,4-8.7,10.1-11.6c5.8-3.2,5.8-8.2,0-12.6c-6.1-4.8-10.1-11.3-10-16.3s3.9-7.7,9.7-9.5c5.5-2.2,5.3-7.3-0.2-12.8
			C1186.2,489,1182.5,481.7,1182.6,476.8z"/>
		<path class="st13" d="M1240.4,608.8c3.2-89.9-11.8-124.5-8.2-206c0-1.3-1.1-2.4-2.4-2.4c-0.2,0-0.3,0-0.5,0
			c-1.6,0.1-2.8,1.3-3.1,2.8c-6.6,84.1,6.1,123-4,206.2c-0.5,4.3,3.1,8.1,8.2,8.2s9.6-3.8,10-8.6
			C1240.4,609,1240.4,608.9,1240.4,608.8z"/>
		<path class="st14" d="M1269.9,612.4c-17-7-40-6.5-40-6.5s-23.7-0.5-40.7,6.8c7.2,2.6,22.3,4.3,39.9,4.3
			C1247.4,617,1263.1,615.1,1269.9,612.4z"/>
		<path class="st15" d="M1287.6,631.5c-1-9.4-8.5-15.3-17.7-19.1c-6.8,2.7-22.5,4.7-40.9,4.7c-7.5,0-15.1-0.3-22.6-1.1
			c-2.9,3.7-5,8.7-5.4,15.6c-0.6,10-0.8,40.1-0.2,75.2c9.5,1.4,19.2,2.2,28.8,2.1c25.1,0,46.9-4.5,58.6-11.1
			C1289,666.5,1288.6,640.6,1287.6,631.5z"/>
		<path class="st16" d="M1201.1,631.5c0.4-6.9,2.5-11.9,5.4-15.6c-3.7-0.4-7-0.8-9.8-1.4h-0.2c-1.3-0.3-2.5-0.5-3.6-0.8l-0.5-0.1
			c-1.2-0.3-2.3-0.6-3.2-1c-8.8,3.8-15.9,9.6-16.9,18.8s-1.4,35.2-0.7,66.4c6.9,3.8,17.1,6.8,29.3,8.7
			C1200.3,671.6,1200.5,641.5,1201.1,631.5z"/>
		<path class="st17" d="M1267.4,613.7l-0.5,0.1L1267.4,613.7z"/>
		<path class="st17" d="M1263.4,614.5h-0.2H1263.4z"/>
		<path class="st18" d="M1267,613.8c-1.1,0.3-2.3,0.5-3.6,0.8C1264.7,614.3,1265.9,614,1267,613.8z"/>
		<path class="st18" d="M1270.7,612.7c-0.9,0.3-2,0.7-3.2,1C1268.5,613.4,1269.6,613.1,1270.7,612.7z"/>
		<path class="st18" d="M1253.4,615.9c3.6-0.4,6.9-0.8,9.8-1.4C1260.3,615.1,1257,615.6,1253.4,615.9z"/>
		<path class="st16" d="M1274.3,661.8c-16.5,4-33.6,5-50.4,3C1235.4,672.3,1264,669.3,1274.3,661.8z"/>
		<path class="st16" d="M1185.3,691.7c0,0,40.3,7.7,77.9,3.8C1251.4,705.1,1190.1,701.6,1185.3,691.7z"/>
		<path class="st9" d="M1568.4,486.5c1.6-4.5,5.8-8.1,11.3-11.1s7.2-8.5,4.3-12.9c-3.1-4.5-3.8-10.1-2-15.2
			c3.2-14.1,44.3-53.9,69.4-46c22.8,5.7,31.4,47.2,23.4,59.6c-2.8,4.4-8.9,7.2-16.5,9.3c-7.3,2.1-9.7,7.1-6.3,11.5
			c3.6,4.6,4.7,9.5,2.5,13.7s-7.2,7.2-13.4,9.6s-7.7,7.5-4.5,11.6c3.3,4.3,4.5,9,2.8,13.5s-5.7,8.1-11.2,11.1s-7.1,8.4-4.1,12.7
			c3.1,4.2,3.9,9.7,2.2,14.7c-4.2,13.8-34.5,37.6-60.6,32.8c-25-3.6-40.3-33.9-32.5-46c2.8-4.3,9-7,16.5-8.8
			c7.3-1.9,9.6-6.8,6.2-11.3c-3.6-4.7-4.7-9.7-2.5-13.8s7.1-7.1,13.2-9.4c6-2.3,7.7-7.4,4.5-11.6
			C1567.9,495.9,1566.8,491,1568.4,486.5z"/>
		<path class="st10" d="M1566,618c44.3-74.6,38.1-130.2,79.7-201.2c0.7-1.2-0.1-2.5-1.7-2.8c-1.6-0.3-3.2,0.4-4.1,1.7
			c-43.7,72.1-42.2,129.6-91.2,198.4c-2.1,3.6,0.1,7.4,4.7,8.7s10.2-0.7,12.5-4.5C1565.8,618.2,1565.9,618.1,1566,618z"/>
		<path class="st11" d="M1498,475.7c-2.3-4.1-7.1-6.9-13.3-8.1c-6-1.2-8.3-5.7-5.4-10.7s4-10,2.2-14.4c-5-9.1-36-47.4-62.5-41.2
			c-25.1,9.7-29.9,44.6-23.7,60.9c2.3,5.8,7.7,11.7,14.5,16c6.6,4.1,9.2,9.5,6.4,13.6c-3.1,3.9-3.5,9.4-1.1,13.8
			c2.5,4.9,7.7,9,14.2,11.3c6.3,2.1,8.9,6.5,6.3,11s-3.4,9.1-1,13.2s7.2,6.8,13.3,8c6,1.1,8.3,5.5,5.6,10.4s-3.7,9.8-1.8,14.1
			c5.2,10.7,32.6,28.4,57.1,23.5c23.7-6.4,35.2-26.8,28.9-43c-2.4-5.8-7.9-11.8-14.8-16c-6.7-4.1-9.3-9.4-6.5-13.5
			c3.2-3.9,3.6-9.3,1.2-13.6c-2.5-4.8-7.8-8.9-14.4-11c-6.4-2.1-9-6.4-6.3-10.9S1500.3,479.8,1498,475.7z"/>
		<path class="st10" d="M1505.8,617c-23-92.6-58.5-108.5-83.8-197.1c-0.4-1.4,0.4-2.8,1.8-3.2c0.1,0,0.2,0,0.2-0.1
			c1.5-0.4,3.1,0.4,3.6,1.9c27.9,84.9,65.5,101,95.6,194.1c1.6,4.2-0.9,8.5-5.8,10.1s-10-0.8-11.5-5.4
			C1505.9,617.3,1505.9,617.1,1505.8,617z"/>
		<path class="st12" d="M1480.2,469.7c0-5.7,4.1-8,10-9.5c5.7-1.8,5.4-8.2-0.3-15c-6-7.4-9.7-15.5-9.7-21.1
			c0.7-9.6,23.2-53.5,54.3-58.3c28,2.6,51.9,41.2,54.3,58.3c0,5.7-4.4,10-11.3,13.5c-6.6,3.8-6.6,9.5,0,14.2
			c6.9,5.1,11.4,12.2,11.4,17.9s-4.5,8.9-11.1,11.2c-6.3,2.6-6.1,8.4,0.3,14.3c6.6,6.4,10.9,14.5,10.8,20.1s-4.2,8.1-10.2,9.6
			c-5.8,1.9-5.5,8.1,0.3,14.9c6.1,7.3,9.9,15.6,9.9,21.2c-1,12-24,31.2-52.2,38c-27.2,4.2-55-20.2-56.4-38c0-5.8,4.5-9.8,11.4-13.1
			c6.6-3.5,6.5-9.2,0-14.2c-6.8-5.4-11.3-12.7-11.3-18.4s4.4-8.7,10.9-10.8c6.2-2.4,5.9-8.2-0.3-14.4
			C1484.3,483.6,1480.1,475.3,1480.2,469.7z"/>
		<path class="st20" d="M1545.5,618.8c3.6-101.5-13.3-140.5-9.3-232.5c0.1-1.6-1.4-2.8-3.2-2.6c-1.8,0.1-3.2,1.5-3.5,3.2
			c-7.5,94.9,6.9,138.9-4.5,232.8c-0.6,4.9,3.5,9.1,9.2,9.3s10.8-4.3,11.2-9.7C1545.5,619,1545.5,618.9,1545.5,618.8z"/>
		<path class="st14" d="M1578.8,622.8c-19.2-7.9-45.1-7.3-45.1-7.3s-26.8-0.6-46,7.7c8.1,2.9,25.1,4.9,45,4.9
			C1553.3,628.1,1571.1,625.9,1578.8,622.8z"/>
		<path class="st15" d="M1598.7,644.4c-1.2-10.6-9.6-17.3-20-21.6c-7.7,3.1-25.4,5.3-46.1,5.3c-8.5,0-17-0.4-25.5-1.2
			c-3.3,4.1-5.6,9.8-6,17.6c-0.6,11.3-0.9,45.3-0.3,84.8c10.8,1.6,21.7,2.4,32.6,2.4c28.3,0,53-5,66.1-12.5
			C1600.4,684,1599.9,654.7,1598.7,644.4z"/>
		<path class="st16" d="M1501.1,644.4c0.4-7.8,2.8-13.4,6-17.6c-4.1-0.4-7.8-1-11.1-1.5h-0.2c-1.4-0.3-2.8-0.6-4-0.9l-0.5-0.1
			c-1.3-0.3-2.6-0.7-3.6-1.1c-10,4.3-18,10.9-19.1,21.2s-1.6,39.7-0.8,75c7.7,4.3,19.3,7.7,33.1,9.8
			C1500.2,689.7,1500.5,655.7,1501.1,644.4z"/>
		<path class="st17" d="M1576,624.3l-0.5,0.1L1576,624.3z"/>
		<path class="st17" d="M1571.4,625.3h-0.2H1571.4z"/>
		<path class="st18" d="M1575.4,624.4c-1.2,0.3-2.6,0.6-4,0.9C1572.9,625,1574.2,624.7,1575.4,624.4z"/>
		<path class="st18" d="M1579.6,623.2c-1.1,0.4-2.3,0.7-3.6,1.1C1577.3,623.9,1578.6,623.6,1579.6,623.2z"/>
		<path class="st18" d="M1560.1,626.8c4.1-0.4,7.8-1,11.1-1.5C1568,625.9,1564.2,626.4,1560.1,626.8z"/>
		<path class="st16" d="M1583.7,678.6c-18.6,4.5-37.9,5.7-56.9,3.4C1539.9,690.4,1572.2,687,1583.7,678.6z"/>
		<path class="st16" d="M1483.3,712.3c0,0,45.4,8.7,87.9,4.3C1557.8,727.5,1488.7,723.5,1483.3,712.3z"/>
	</g>
</g>
</svg>
