<svg id="a603aee2-bd7b-4999-aaa2-834f3881242f" data-name="Layer 1" xmlns="http://www.w3.org/2000/svg" xmlns:xlink="http://www.w3.org/1999/xlink" width="1600" height="900" viewBox="0 0 1600 900">
  <defs>
    <style>
      .b297f250-4a0f-4a1e-9d21-98b03a744ebd, .b9ff4566-68f8-4d4d-aa34-138322b1d615 {
        fill: none;
      }

      .ff7d9a5d-1962-41eb-bc19-f29497a5260d {
        clip-path: url(#a5cfadb5-d91d-4a8c-a6ab-e11afae10b13);
      }

      .ad63b30d-fa69-41b6-9261-9acf9ce1f45d {
        fill: #62bc97;
      }

      .f2fd9b39-72e0-461e-860a-40a82db4bae8 {
        clip-path: url(#ac853f01-b0ce-4d82-95d0-dd05f3e36b16);
      }

      .bbe24351-8f68-4a90-8a14-1eeece93a27e {
        fill: #85d3ae;
      }

      .ea77781f-9a87-40a2-9cf2-2ebb2050304a {
        fill: #c4bbbb;
      }

      .a3dcad89-4fa6-4ea1-a517-a2a327462278 {
        fill: #b88aba;
      }

      .ae14e736-c922-4dc1-80c8-060d36db4dc0 {
        fill: #4f7966;
      }

      .ba42b22f-b9dd-450e-a9dc-6a312218c530 {
        fill: #a278a3;
      }

      .ee1fe82a-458d-42b3-a8d5-bf55d2404cbd {
        clip-path: url(#bf19199e-91f3-4a1c-8bdc-d9407c05f881);
      }

      .bb9f0dd5-b403-464a-a72f-d5d17da455d7 {
        fill: url(#ea37a534-f256-40e3-a71b-d5dd58083581);
      }

      .e5821cd2-3dc8-49ce-8e0d-1f5845adbad2 {
        fill: url(#f58a88ad-83ee-4e24-8e71-599650c0ce31);
      }

      .e8fc5a4a-b743-4b8c-8a4f-71dc77089ec5 {
        fill: url(#fdc13337-b7f2-488e-8968-ebc9af6ba48e);
      }

      .f8f6dd19-89a7-40fe-a597-7ae2a6fba532 {
        fill: url(#eb6b0fbf-fd54-4d13-92e7-69781eb83b27);
      }

      .f9749ded-64b2-48ce-9f27-d51b80b5e970 {
        fill: #42c68d;
      }

      .ec6713f0-4730-446d-8817-a536aec5774d {
        fill: url(#bb8d5623-ed92-4473-8309-9b5717235bf4);
      }

      .a53a4409-927d-490d-9c99-fae202b02e8a {
        fill: url(#bc6c8857-f3cc-405f-968a-1f4a3821d4c7);
      }

      .b37d503b-d709-4f6d-8fd0-8db8c2db7fa0 {
        fill: url(#a17e82dc-6336-45a4-87d0-7b874be27964);
      }

      .eea81ab0-553c-4b6c-a663-c5429c2c7f9d {
        fill: url(#a2fb705f-32a7-4377-92d9-5015e5e205a0);
      }

      .b64f4396-f3a1-466f-ae8d-4ba760485301 {
        fill: url(#bd474299-f43a-45b3-8231-ba9f598caa94);
      }

      .f70cd207-2bd3-482e-8b59-68b5cea11fcb {
        fill: url(#a20b328a-82ca-40ca-877e-233763377cc8);
      }

      .fb506586-8fd4-425f-a8c2-1cd337ebde90 {
        fill: url(#a4229161-5ec0-4151-815c-ac790c938697);
      }

      .fc5341df-e87a-4784-8f2c-04426f64947a {
        fill: #09b1f2;
      }

      .a8d05165-fdef-400d-bd1d-23991097a1d0 {
        opacity: 0.1;
      }

      .b297f250-4a0f-4a1e-9d21-98b03a744ebd {
        stroke: #008cad;
        stroke-miterlimit: 10;
        stroke-width: 4px;
      }
    </style>
    <clipPath id="a5cfadb5-d91d-4a8c-a6ab-e11afae10b13">
      <rect class="b9ff4566-68f8-4d4d-aa34-138322b1d615" x="-1620" y="-920" width="1600" height="900"/>
    </clipPath>
    <clipPath id="ac853f01-b0ce-4d82-95d0-dd05f3e36b16">
      <rect class="b9ff4566-68f8-4d4d-aa34-138322b1d615" y="-920" width="1600" height="900"/>
    </clipPath>
    <clipPath id="bf19199e-91f3-4a1c-8bdc-d9407c05f881">
      <rect class="b9ff4566-68f8-4d4d-aa34-138322b1d615" x="-1620" width="1600" height="900"/>
    </clipPath>
    <linearGradient id="ea37a534-f256-40e3-a71b-d5dd58083581" x1="-790.04" y1="1021.22" x2="-821.5" y2="-879.72" gradientUnits="userSpaceOnUse">
      <stop offset="0.09" stop-color="#cbe9f6"/>
      <stop offset="0.24" stop-color="#cfe8f3"/>
      <stop offset="0.36" stop-color="#9cd6e9"/>
      <stop offset="0.46" stop-color="#7acae2"/>
      <stop offset="0.51" stop-color="#6dc5e0"/>
    </linearGradient>
    <linearGradient id="f58a88ad-83ee-4e24-8e71-599650c0ce31" x1="-1582.63" y1="891.94" x2="53.56" y2="244.01" gradientUnits="userSpaceOnUse">
      <stop offset="0.09" stop-color="#6ec0d3"/>
      <stop offset="0.45" stop-color="#6cc0d3"/>
      <stop offset="0.62" stop-color="#6dc1d5"/>
      <stop offset="0.69" stop-color="#72c5dc"/>
      <stop offset="0.72" stop-color="#78c9e3"/>
    </linearGradient>
    <linearGradient id="fdc13337-b7f2-488e-8968-ebc9af6ba48e" x1="-819.47" y1="-202.97" x2="455.6" y2="818.97" gradientUnits="userSpaceOnUse">
      <stop offset="0.49" stop-color="#93d4eb"/>
      <stop offset="0.57" stop-color="#8dd1e8"/>
      <stop offset="0.67" stop-color="#7dc9df"/>
      <stop offset="0.74" stop-color="#6ec2d6"/>
      <stop offset="0.88" stop-color="#6fc2d7"/>
    </linearGradient>
    <linearGradient id="eb6b0fbf-fd54-4d13-92e7-69781eb83b27" x1="14084" y1="26.57" x2="14207.77" y2="-482.99" gradientTransform="matrix(-0.96, 0.08, 0.09, 1, 13450.05, -539.46)" gradientUnits="userSpaceOnUse">
      <stop offset="0" stop-color="#a3513f"/>
      <stop offset="0.13" stop-color="#8e4c38"/>
      <stop offset="0.41" stop-color="#573e27"/>
      <stop offset="0.61" stop-color="#2c3319"/>
    </linearGradient>
    <linearGradient id="bb8d5623-ed92-4473-8309-9b5717235bf4" x1="14019.26" y1="-326.18" x2="14335.98" y2="-681.27" gradientTransform="matrix(-0.96, 0.08, 0.09, 1, 13450.05, -539.46)" gradientUnits="userSpaceOnUse">
      <stop offset="0.16" stop-color="#176862"/>
      <stop offset="0.32" stop-color="#18716a"/>
      <stop offset="0.56" stop-color="#1c887f"/>
      <stop offset="0.76" stop-color="#209f95"/>
    </linearGradient>
    <linearGradient id="bc6c8857-f3cc-405f-968a-1f4a3821d4c7" x1="13845.15" y1="-380.31" x2="14082.14" y2="-380.31" gradientTransform="matrix(-0.96, 0.08, 0.09, 1, 13450.05, -539.46)" gradientUnits="userSpaceOnUse">
      <stop offset="0" stop-color="#0d5e59"/>
      <stop offset="0.25" stop-color="#0e655b"/>
      <stop offset="0.48" stop-color="#10715e"/>
    </linearGradient>
    <linearGradient id="a17e82dc-6336-45a4-87d0-7b874be27964" x1="14147.77" y1="-313.23" x2="14359.39" y2="-589.53" gradientTransform="matrix(-0.96, 0.08, 0.09, 1, 13450.05, -539.46)" gradientUnits="userSpaceOnUse">
      <stop offset="0.04" stop-color="#0d6c59"/>
      <stop offset="0.19" stop-color="#10735d"/>
      <stop offset="0.41" stop-color="#198867"/>
      <stop offset="0.67" stop-color="#27a977"/>
      <stop offset="0.76" stop-color="#2cb67d"/>
    </linearGradient>
    <linearGradient id="a2fb705f-32a7-4377-92d9-5015e5e205a0" x1="-772.9" y1="944.32" x2="648.71" y2="228.35" gradientTransform="translate(-0.46 0.61)" gradientUnits="userSpaceOnUse">
      <stop offset="0.1" stop-color="#177e70"/>
      <stop offset="0.34" stop-color="#178877"/>
      <stop offset="0.5" stop-color="#169078"/>
      <stop offset="0.72" stop-color="#169679"/>
    </linearGradient>
    <linearGradient id="bd474299-f43a-45b3-8231-ba9f598caa94" x1="-1640" y1="832.39" x2="24.6" y2="832.39" gradientUnits="userSpaceOnUse">
      <stop offset="0.19" stop-color="#4ea40f"/>
      <stop offset="0.21" stop-color="#4ca40f"/>
      <stop offset="0.66" stop-color="#2c9b0a"/>
      <stop offset="0.91" stop-color="#209808"/>
    </linearGradient>
    <linearGradient id="a20b328a-82ca-40ca-877e-233763377cc8" x1="-2147.88" y1="761.44" x2="628.54" y2="761.44" gradientUnits="userSpaceOnUse">
      <stop offset="0.19" stop-color="#2a7717"/>
      <stop offset="0.21" stop-color="#2a7a19"/>
      <stop offset="0.44" stop-color="#2c9327"/>
      <stop offset="0.66" stop-color="#2da22f"/>
      <stop offset="0.83" stop-color="#2da732"/>
    </linearGradient>
    <linearGradient id="a4229161-5ec0-4151-815c-ac790c938697" x1="-2186" y1="698" x2="736.57" y2="687.39" xlink:href="#a20b328a-82ca-40ca-877e-233763377cc8"/>
  </defs>
  <g class="ff7d9a5d-1962-41eb-bc19-f29497a5260d">
    <g>
      <g>
        <rect class="b9ff4566-68f8-4d4d-aa34-138322b1d615" x="-3458.41" y="-1477.01" width="5524.15" height="3053.94" transform="translate(-1392.67 99.92) rotate(-180)"/>
        <polygon class="ad63b30d-fa69-41b6-9261-9acf9ce1f45d" points="384.33 257.44 -1718.66 257.75 -1706.08 -990.56 371.74 -990.87 384.33 257.44"/>
      </g>
      <rect class="b9ff4566-68f8-4d4d-aa34-138322b1d615" x="-2358.72" y="-1257.88" width="3628.63" height="2041.11"/>
      <rect class="b9ff4566-68f8-4d4d-aa34-138322b1d615" x="-2358.72" y="-1257.88" width="3628.63" height="2041.11"/>
    </g>
  </g>
  <g class="f2fd9b39-72e0-461e-860a-40a82db4bae8">
    <g>
      <rect class="b9ff4566-68f8-4d4d-aa34-138322b1d615" x="-626.22" y="-1119.83" width="2704.27" height="1495.02" transform="translate(1451.83 -744.64) rotate(-180)"/>
      <polygon class="bbe24351-8f68-4a90-8a14-1eeece93a27e" points="280.7 -836 274.83 -273.53 -633.22 171.18 -633.22 -1165.95 -178.98 -1165.95 280.7 -836"/>
      <polygon class="bbe24351-8f68-4a90-8a14-1eeece93a27e" points="1247.39 -834.72 1253.27 -272.25 2163.61 172.46 2163.61 -1164.66 1708.23 -1164.66 1247.39 -834.72"/>
      <polygon id="b17a3168-5bff-456e-821f-95fa341c984a" data-name="Grund" class="ea77781f-9a87-40a2-9cf2-2ebb2050304a" points="1253.36 -275.51 272.61 -275.37 -633.24 169.33 -635.44 398.19 2161.41 401.19 2161.41 169.19 1253.36 -275.51"/>
      <g id="ae94e28d-ce20-49fe-82b0-b731d37bc073" data-name="Grunda matt">
        <path class="a3dcad89-4fa6-4ea1-a517-a2a327462278" d="M1493.57,46l-345.4-253.36H404.48L48.34,37.57s-7.8,16.6,5.18,18.73l1434.23.91S1497.13,55.06,1493.57,46Z"/>
        <path class="ae14e736-c922-4dc1-80c8-060d36db4dc0" d="M1492.37,54.58,49.56,54.89s2.94,4.27,5.68,4.77L1483.3,58.8S1491.08,56.34,1492.37,54.58Z"/>
        <path class="ba42b22f-b9dd-450e-a9dc-6a312218c530" d="M442.9-189.95,193.2,9.88s-2.53,6.48,6.5,7l1142.49.45s6.78-3.35,3-9.85L1120-189.95Z"/>
      </g>
    </g>
  </g>
  <g class="ee1fe82a-458d-42b3-a8d5-bf55d2404cbd">
    <g>
      <rect class="bb9f0dd5-b403-464a-a72f-d5d17da455d7" x="-1637.51" y="-2.6" width="1675.92" height="898.38"/>
      <path class="e5821cd2-3dc8-49ce-8e0d-1f5845adbad2" d="M-2141.57,433.21c147.73-32.19,247.55-49.64,454.2-4.29,118.91,30.78,126.33,61.7,184.25,51.43,57.28-10.17,70.67-44.07,182-115.14,58.08-37.1,108.57-62.44,131.46-73,329.76-130.43,645.54-20.81,847.38,294.51,64.24-40.41,348.5-170.39,445.53-108.92,14.94,31.66-78.65,86.7-64.35,118.82,18,40.43,187.09-2,243.87-11.7C432,559.49,545.81,502.64,617.11,459.69c273.26-164,14.8-8.63,14.8-8.63q3.08,120.78,6.14,241.57l-2699.14-2.83Q-2101.33,561.51-2141.57,433.21Z"/>
      <path class="e8fc5a4a-b743-4b8c-8a4f-71dc77089ec5" d="M-633,663.41c133.47-94,327.66-115.38,451.67-141.14C-12.7,472.17-14.28,373.68,162,275.4c81.05-45.2,206-93.86,389.85-96.26q-2.41,239-4.85,478Z"/>
      <g>
        <path class="f8f6dd19-89a7-40fe-a597-7ae2a6fba532" d="M-95.14,293.22s-26.75,21.75-23.77,49.71c.52,4.92,1.47,20,11.64,25.74,7.08,4,15,1.47,16.21,1.07C-76.3,364.8-69,344.68-61.85,325c5.85-16.12,8.11-28.49,16.54-30.57,1-.25,4.29-1.06,6.51.79,6.91,5.76-1.82,32.75-12.55,52.2C-59.77,362.66-67.6,370-64.66,378.55c2.28,6.67,9.51,9.53,10.2,9.79,5.78,2.19,11.88.77,20.25-3.55A100.86,100.86,0,0,0-3,359.29c19.57-25.09,34.69-51.4,43.94-68.8L49,297.57,37.32,323c1.48-3.17,8.4-17.1,23.72-22.06a36.3,36.3,0,0,1,15.9-1.38,74.69,74.69,0,0,0-27.86,23.53c-9.63,13.68-9.26,23.72-18.72,42.74-7,14.16-15.94,26.06-22.75,33.08-23.7,24.41-58.23,26.84-75.67,26.58-7.13,1.54-16.55,4.93-23.42,13.15-13.74,16.44-8.31,41.44-1.4,71.31C-81.54,559-54.38,617.36-43,628.91c10.59,10.76-111.38,37.44-145.49,29.7-21.73,1.71-31.68-4.57-36.73-10-30.36-32.75,41.6-116.06,11.66-201.54-3.23-9.21-13.93-39.75-37.18-46.76-13.72-4.14-19.17,3.72-38.17,3.32-36.95-.79-63.72-31.57-66-34.26-20.93-24.74-29.6-62.23-29.6-62.23h0l16,1c1.31,6.59,8.77,41.3,35.28,52.66,3.14,1.34,17.64,7.55,25.59.79,11.19-9.51,1.37-37.64-.2-40.22-6-9.86-19.62-28.46-19.62-28.46l39.75,1.71c.3,25,10.6,46.16,27.44,53.9,2.24,1,15.09,6.94,24.36.89,11.22-7.31,14.28-30.2,2.84-55.46l14-6.75s16.44,86.4,30.48,94.2c24.32,13.52,36.75-40.78,26.15-93.6l17-1.48s-6,59.29,5.81,37.27,24.94-28.68,24.94-28.68h0"/>
        <path class="f9749ded-64b2-48ce-9f27-d51b80b5e970" d="M-256.65,72.69C-373.5,120.58-383.37,161.42-378,187.33c0,0,2.82,35.33,130.61,60.15h0S-171.71,270.3-38,243.24C2.59,235,68.6,210.7,74.37,168.66,78.61,137.73,47.79,109.28,36.65,99-54.17,15.16-216.77,60.54-256.65,72.69Z"/>
        <path class="ec6713f0-4730-446d-8817-a536aec5774d" d="M-252.77,73.21c-117.51,48.06-125.63,94-121.39,114.28,0,0,2.79,35.2,130.54,59.81h0S-168,270-34.27,242.92c40.58-8.21,106.6-32.5,112.39-74.38,4.27-30.81-26.52-59.12-37.66-69.36C-50.27,15.74-212.89,61.08-252.77,73.21Z"/>
        <path class="f9749ded-64b2-48ce-9f27-d51b80b5e970" d="M157.6,257.16s3.86-28.59-27.2-50.44c-17.52-12.33-71.35-45.11-122.49-2.2-58.69,49.26-122,104.09-27,100S150.94,294.94,157.6,257.16Z"/>
        <path class="a53a4409-927d-490d-9c99-fae202b02e8a" d="M157.78,259.19s3.85-28.6-27.21-50.45c-17.51-12.32-71.34-45.11-122.48-2.19-58.7,49.25-122,104.08-27,100S151.11,297,157.78,259.19Z"/>
        <path class="f9749ded-64b2-48ce-9f27-d51b80b5e970" d="M-70.55,304.74c-13.29,3.13-15.61,2.58-68,7.08-11.15,1-58.55,5.07-154.12,10.25-40.2,2.17-101.41-2.09-118.53-8.54-5.72-2.15-17.2-7.5-19.09-24.74-4.32-39.27,26.82-64.8,36.3-76.74,8.84-11.14,32.39-25.72,38.68-29,76.71-40.38,140.55-56.19,140.55-56.19,15.16-5,134.83-42.95,211,27.21,7,6.45,50.05,45.62,41.75,83.61C28.45,281.4-43.67,298.4-70.55,304.74Z"/>
        <path class="b37d503b-d709-4f6d-8fd0-8db8c2db7fa0" d="M-68.06,308.26c-13.28,3.13-15.61,2.59-68,7.09-11.15,1-58.56,5.06-154.13,10.24-40.2,2.18-101.41-2.09-118.53-8.54-5.71-2.15-17.2-7.5-19.09-24.73-4.32-39.27,26.83-64.81,36.3-76.74,8.84-11.14,32.39-25.73,38.69-29,76.7-40.38,140.54-56.18,140.54-56.18,15.16-5.05,134.83-43,211,27.2,7,6.45,50.06,45.62,41.75,83.62C30.94,284.93-41.18,301.93-68.06,308.26Z"/>
      </g>
      <path class="eea81ab0-553c-4b6c-a663-c5429c2c7f9d" d="M-767.72,663.14s79.69-73.66,223.14-35.79c74.91-57.77,194.45,0,194.45,0,22.32-73.71,130.7,5.06,130.7,5.06s25.5-37,154.6-2.92c105.2-16.87,130.7,22.77,130.7,22.77,44.63,1.8,283.71,10.88,283.71,10.88Z"/>
      <polygon class="b64f4396-f3a1-466f-ae8d-4ba760485301" points="-1640 945.89 24.6 955.09 23.02 726.22 -1637.51 709.69 -1640 945.89"/>
      <path class="f70cd207-2bd3-482e-8b59-68b5cea11fcb" d="M-2147.88,723.33v76.23c217.27-21,1528.9-28.89,1819.86-7.17,31.14-5.15,46.35-15.39,27-30.74s26.28-20.48,102.36-20.48c247.61-4.9,625.31-9.47,827.21,3.41V723.33"/>
      <rect class="fb506586-8fd4-425f-a8c2-1cd337ebde90" x="-2146.05" y="662.72" width="2693" height="60.49"/>
    </g>
  </g>
  <g>
    <rect class="fc5341df-e87a-4784-8f2c-04426f64947a" width="1600" height="900"/>
    <g class="a8d05165-fdef-400d-bd1d-23991097a1d0">
      <g>
        <g>
          <g>
            <ellipse class="b297f250-4a0f-4a1e-9d21-98b03a744ebd" cx="34.78" cy="39.13" rx="17.39" ry="19.57"/>
            <ellipse class="b297f250-4a0f-4a1e-9d21-98b03a744ebd" cx="69.57" cy="156.52" rx="17.39" ry="19.57"/>
            <path class="b297f250-4a0f-4a1e-9d21-98b03a744ebd" d="M121.74,156.52c0-10.8,7.79-19.56,17.39-19.56s17.39-8.76,17.39-19.57-7.78-19.56-17.39-19.56-17.39,8.76-17.39,19.56S114,137,104.35,137,87,128.2,87,117.39s7.78-19.56,17.39-19.56,17.39-8.76,17.39-19.57,7.79-19.56,17.39-19.56,17.39-8.76,17.39-19.57,7.79-19.56,17.39-19.56,17.39,8.75,17.39,19.56S183.52,58.7,173.91,58.7s-17.39,8.76-17.39,19.56,7.79,19.57,17.39,19.57,17.39-8.76,17.39-19.57,7.79-19.56,17.4-19.56,17.39,8.76,17.39,19.56S218.3,97.83,208.7,97.83s-17.4,8.76-17.4,19.56S183.52,137,173.91,137s-17.39,8.76-17.39,19.56-7.78,19.57-17.39,19.57-17.39-8.76-17.39-19.57"/>
            <path class="b297f250-4a0f-4a1e-9d21-98b03a744ebd" d="M0,293.48c9.6,0,17.39-8.76,17.39-19.57s7.79-19.56,17.39-19.56,17.39-8.76,17.39-19.57-7.78-19.56-17.39-19.56S17.39,224,17.39,234.78,9.6,254.35,0,254.35"/>
            <path class="b297f250-4a0f-4a1e-9d21-98b03a744ebd" d="M0,137c9.6,0,17.39-8.76,17.39-19.57s7.79-19.56,17.39-19.56,17.39-8.76,17.39-19.57S60,58.7,69.57,58.7,87,67.46,87,78.26,79.17,97.83,69.57,97.83s-17.4,8.76-17.4,19.56S44.39,137,34.78,137s-17.39,8.76-17.39,19.56S9.6,176.09,0,176.09"/>
            <path class="b297f250-4a0f-4a1e-9d21-98b03a744ebd" d="M0,58.7c9.6,0,17.39,8.76,17.39,19.56S9.6,97.83,0,97.83"/>
            <path class="b297f250-4a0f-4a1e-9d21-98b03a744ebd" d="M17.39,0C17.39,10.81,9.6,19.57,0,19.57"/>
            <path class="b297f250-4a0f-4a1e-9d21-98b03a744ebd" d="M87,0c0,10.81-7.79,19.57-17.39,19.57S52.17,10.81,52.17,0"/>
            <path class="b297f250-4a0f-4a1e-9d21-98b03a744ebd" d="M156.52,0c0,10.81-7.78,19.57-17.39,19.57s-17.39,8.75-17.39,19.56S114,58.7,104.35,58.7,87,49.94,87,39.13s7.78-19.56,17.39-19.56S121.74,10.81,121.74,0"/>
            <path class="b297f250-4a0f-4a1e-9d21-98b03a744ebd" d="M226.09,0c0,10.81-7.79,19.57-17.39,19.57S191.3,10.81,191.3,0"/>
          </g>
          <g>
            <ellipse class="b297f250-4a0f-4a1e-9d21-98b03a744ebd" cx="521.74" cy="273.91" rx="17.39" ry="19.57"/>
            <ellipse class="b297f250-4a0f-4a1e-9d21-98b03a744ebd" cx="486.96" cy="156.52" rx="17.39" ry="19.57"/>
            <path class="b297f250-4a0f-4a1e-9d21-98b03a744ebd" d="M434.78,156.52c0,10.81-7.78,19.57-17.39,19.57S400,184.85,400,195.65s7.79,19.57,17.39,19.57,17.39-8.76,17.39-19.57,7.79-19.56,17.39-19.56,17.4,8.76,17.4,19.56-7.79,19.57-17.4,19.57-17.39,8.76-17.39,19.56-7.78,19.57-17.39,19.57S400,263.11,400,273.91s-7.79,19.57-17.39,19.57-17.39-8.76-17.39-19.57,7.78-19.56,17.39-19.56S400,245.59,400,234.78s-7.79-19.56-17.39-19.56-17.39,8.76-17.39,19.56-7.79,19.57-17.39,19.57-17.4-8.76-17.4-19.57,7.79-19.56,17.4-19.56,17.39-8.76,17.39-19.57,7.78-19.56,17.39-19.56S400,167.33,400,156.52,407.79,137,417.39,137s17.39,8.76,17.39,19.56"/>
            <path class="b297f250-4a0f-4a1e-9d21-98b03a744ebd" d="M365.22,0c0,10.81-7.79,19.57-17.39,19.57s-17.4,8.75-17.4,19.56,7.79,19.57,17.4,19.57,17.39-8.76,17.39-19.57S373,19.57,382.61,19.57,400,10.81,400,0"/>
            <path class="b297f250-4a0f-4a1e-9d21-98b03a744ebd" d="M295.65,0c0,10.81,7.79,19.57,17.39,19.57S330.43,10.81,330.43,0"/>
            <path class="b297f250-4a0f-4a1e-9d21-98b03a744ebd" d="M504.35,0c0,10.81-7.79,19.57-17.39,19.57S469.57,10.81,469.57,0"/>
          </g>
          <g>
            <ellipse class="b297f250-4a0f-4a1e-9d21-98b03a744ebd" cx="1078.26" cy="273.91" rx="17.39" ry="19.57"/>
            <ellipse class="b297f250-4a0f-4a1e-9d21-98b03a744ebd" cx="1043.48" cy="156.52" rx="17.39" ry="19.57"/>
            <path class="b297f250-4a0f-4a1e-9d21-98b03a744ebd" d="M991.3,156.52c0,10.81-7.78,19.57-17.39,19.57s-17.39,8.76-17.39,19.56,7.79,19.57,17.39,19.57,17.39-8.76,17.39-19.57,7.79-19.56,17.4-19.56,17.39,8.76,17.39,19.56-7.79,19.57-17.39,19.57-17.4,8.76-17.4,19.56-7.78,19.57-17.39,19.57-17.39,8.76-17.39,19.56-7.78,19.57-17.39,19.57-17.39-8.76-17.39-19.57,7.79-19.56,17.39-19.56,17.39-8.76,17.39-19.57-7.78-19.56-17.39-19.56-17.39,8.76-17.39,19.56-7.79,19.57-17.39,19.57S887,245.59,887,234.78s7.78-19.56,17.39-19.56,17.39-8.76,17.39-19.57,7.79-19.56,17.39-19.56,17.39-8.76,17.39-19.57S964.31,137,973.91,137s17.39,8.76,17.39,19.56"/>
            <path class="b297f250-4a0f-4a1e-9d21-98b03a744ebd" d="M921.74,0c0,10.81-7.79,19.57-17.39,19.57S887,28.32,887,39.13s7.78,19.57,17.39,19.57,17.39-8.76,17.39-19.57,7.79-19.56,17.39-19.56S956.52,10.81,956.52,0"/>
            <path class="b297f250-4a0f-4a1e-9d21-98b03a744ebd" d="M852.17,0c0,10.81,7.79,19.57,17.4,19.57S887,10.81,887,0"/>
            <path class="b297f250-4a0f-4a1e-9d21-98b03a744ebd" d="M1060.87,0c0,10.81-7.79,19.57-17.39,19.57S1026.09,10.81,1026.09,0"/>
          </g>
          <g>
            <ellipse class="b297f250-4a0f-4a1e-9d21-98b03a744ebd" cx="591.3" cy="39.13" rx="17.39" ry="19.57"/>
            <ellipse class="b297f250-4a0f-4a1e-9d21-98b03a744ebd" cx="626.09" cy="156.52" rx="17.39" ry="19.57"/>
            <path class="b297f250-4a0f-4a1e-9d21-98b03a744ebd" d="M678.26,156.52c0-10.8,7.79-19.56,17.39-19.56S713,128.2,713,117.39s-7.78-19.56-17.39-19.56-17.39,8.76-17.39,19.56S670.47,137,660.87,137s-17.39-8.76-17.39-19.57,7.78-19.56,17.39-19.56,17.39-8.76,17.39-19.57,7.79-19.56,17.39-19.56S713,49.94,713,39.13s7.79-19.56,17.39-19.56,17.4,8.75,17.4,19.56S740,58.7,730.43,58.7,713,67.46,713,78.26s7.79,19.57,17.39,19.57,17.4-8.76,17.4-19.57,7.78-19.56,17.39-19.56,17.39,8.76,17.39,19.56-7.79,19.57-17.39,19.57-17.39,8.76-17.39,19.56S740,137,730.43,137,713,145.72,713,156.52s-7.78,19.57-17.39,19.57-17.39-8.76-17.39-19.57"/>
            <path class="b297f250-4a0f-4a1e-9d21-98b03a744ebd" d="M556.52,176.09c-9.6,0-17.39,8.76-17.39,19.56s-7.79,19.57-17.39,19.57-17.39,8.76-17.39,19.56-7.79,19.57-17.39,19.57-17.39-8.76-17.39-19.57,7.78-19.56,17.39-19.56,17.39-8.76,17.39-19.57,7.78-19.56,17.39-19.56,17.39-8.76,17.39-19.57S546.92,137,556.52,137s17.39-8.76,17.39-19.57,7.79-19.56,17.39-19.56,17.4-8.76,17.4-19.57,7.78-19.56,17.39-19.56,17.39,8.76,17.39,19.56-7.79,19.57-17.39,19.57-17.39,8.76-17.39,19.56S600.91,137,591.3,137s-17.39,8.76-17.39,19.56S566.13,176.09,556.52,176.09Z"/>
            <path class="b297f250-4a0f-4a1e-9d21-98b03a744ebd" d="M573.91,0c0,10.81-7.78,19.57-17.39,19.57s-17.39,8.75-17.39,19.56S531.34,58.7,521.74,58.7s-17.39,8.76-17.39,19.56,7.78,19.57,17.39,19.57,17.39-8.76,17.39-19.57,7.79-19.56,17.39-19.56,17.39,8.76,17.39,19.56-7.78,19.57-17.39,19.57-17.39,8.76-17.39,19.56S531.34,137,521.74,137s-17.39-8.76-17.39-19.57S496.56,97.83,487,97.83s-17.39-8.76-17.39-19.57S477.35,58.7,487,58.7s17.39-8.76,17.39-19.57,7.78-19.56,17.39-19.56S539.13,10.81,539.13,0"/>
            <path class="b297f250-4a0f-4a1e-9d21-98b03a744ebd" d="M643.48,0c0,10.81-7.79,19.57-17.39,19.57S608.7,10.81,608.7,0"/>
            <path class="b297f250-4a0f-4a1e-9d21-98b03a744ebd" d="M713,0c0,10.81-7.78,19.57-17.39,19.57s-17.39,8.75-17.39,19.56S670.47,58.7,660.87,58.7s-17.39-8.76-17.39-19.57,7.78-19.56,17.39-19.56S678.26,10.81,678.26,0"/>
            <path class="b297f250-4a0f-4a1e-9d21-98b03a744ebd" d="M782.61,0c0,10.81-7.79,19.57-17.39,19.57S747.83,10.81,747.83,0"/>
          </g>
        </g>
        <ellipse class="b297f250-4a0f-4a1e-9d21-98b03a744ebd" cx="1078.26" cy="586.96" rx="17.39" ry="19.57"/>
        <ellipse class="b297f250-4a0f-4a1e-9d21-98b03a744ebd" cx="1043.48" cy="469.57" rx="17.39" ry="19.57"/>
        <path class="b297f250-4a0f-4a1e-9d21-98b03a744ebd" d="M991.3,469.57c0,10.8-7.78,19.56-17.39,19.56s-17.39,8.76-17.39,19.57,7.79,19.56,17.39,19.56,17.39-8.76,17.39-19.56,7.79-19.57,17.4-19.57,17.39,8.76,17.39,19.57-7.79,19.56-17.39,19.56-17.4,8.76-17.4,19.57-7.78,19.56-17.39,19.56-17.39,8.76-17.39,19.57-7.78,19.56-17.39,19.56-17.39-8.76-17.39-19.56,7.79-19.57,17.39-19.57,17.39-8.76,17.39-19.56-7.78-19.57-17.39-19.57-17.39,8.76-17.39,19.57-7.79,19.56-17.39,19.56S887,558.63,887,547.83s7.78-19.57,17.39-19.57,17.39-8.76,17.39-19.56,7.79-19.57,17.39-19.57,17.39-8.76,17.39-19.56S964.31,450,973.91,450s17.39,8.76,17.39,19.57"/>
        <ellipse class="b297f250-4a0f-4a1e-9d21-98b03a744ebd" cx="1043.48" cy="313.04" rx="17.39" ry="19.57"/>
        <ellipse class="b297f250-4a0f-4a1e-9d21-98b03a744ebd" cx="591.3" cy="352.17" rx="17.39" ry="19.57"/>
        <ellipse class="b297f250-4a0f-4a1e-9d21-98b03a744ebd" cx="626.09" cy="469.57" rx="17.39" ry="19.57"/>
        <path class="b297f250-4a0f-4a1e-9d21-98b03a744ebd" d="M678.26,469.57c0-10.81,7.79-19.57,17.39-19.57S713,441.24,713,430.43s-7.78-19.56-17.39-19.56-17.39,8.76-17.39,19.56S670.47,450,660.87,450s-17.39-8.76-17.39-19.57,7.78-19.56,17.39-19.56,17.39-8.76,17.39-19.57,7.79-19.56,17.39-19.56S713,363,713,352.17s7.79-19.56,17.39-19.56,17.4,8.76,17.4,19.56-7.79,19.57-17.4,19.57S713,380.5,713,391.3s7.79,19.57,17.39,19.57,17.4-8.76,17.4-19.57,7.78-19.56,17.39-19.56,17.39,8.76,17.39,19.56-7.79,19.57-17.39,19.57-17.39,8.76-17.39,19.56S740,450,730.43,450,713,458.76,713,469.57s-7.78,19.56-17.39,19.56-17.39-8.76-17.39-19.56"/>
        <ellipse class="b297f250-4a0f-4a1e-9d21-98b03a744ebd" cx="626.09" cy="313.04" rx="17.39" ry="19.57"/>
        <ellipse class="b297f250-4a0f-4a1e-9d21-98b03a744ebd" cx="34.78" cy="352.17" rx="17.39" ry="19.57"/>
        <ellipse class="b297f250-4a0f-4a1e-9d21-98b03a744ebd" cx="69.57" cy="469.57" rx="17.39" ry="19.57"/>
        <path class="b297f250-4a0f-4a1e-9d21-98b03a744ebd" d="M121.74,469.57c0-10.81,7.79-19.57,17.39-19.57s17.39-8.76,17.39-19.57-7.78-19.56-17.39-19.56-17.39,8.76-17.39,19.56S114,450,104.35,450,87,441.24,87,430.43s7.78-19.56,17.39-19.56,17.39-8.76,17.39-19.57,7.79-19.56,17.39-19.56,17.39-8.76,17.39-19.57,7.79-19.56,17.39-19.56,17.39,8.76,17.39,19.56-7.78,19.57-17.39,19.57-17.39,8.76-17.39,19.56,7.79,19.57,17.39,19.57,17.39-8.76,17.39-19.57,7.79-19.56,17.4-19.56,17.39,8.76,17.39,19.56-7.79,19.57-17.39,19.57-17.4,8.76-17.4,19.56S183.52,450,173.91,450s-17.39,8.76-17.39,19.57-7.78,19.56-17.39,19.56-17.39-8.76-17.39-19.56"/>
        <path class="b297f250-4a0f-4a1e-9d21-98b03a744ebd" d="M0,606.52c9.6,0,17.39-8.76,17.39-19.56s7.79-19.57,17.39-19.57,17.39-8.76,17.39-19.56-7.78-19.57-17.39-19.57S17.39,537,17.39,547.83,9.6,567.39,0,567.39"/>
        <path class="b297f250-4a0f-4a1e-9d21-98b03a744ebd" d="M0,450c9.6,0,17.39-8.76,17.39-19.57s7.79-19.56,17.39-19.56,17.39-8.76,17.39-19.57,7.79-19.56,17.4-19.56S87,380.5,87,391.3s-7.79,19.57-17.39,19.57-17.4,8.76-17.4,19.56S44.39,450,34.78,450s-17.39,8.76-17.39,19.57S9.6,489.13,0,489.13"/>
        <path class="b297f250-4a0f-4a1e-9d21-98b03a744ebd" d="M0,371.74c9.6,0,17.39,8.76,17.39,19.56S9.6,410.87,0,410.87"/>
        <path class="b297f250-4a0f-4a1e-9d21-98b03a744ebd" d="M0,215.22c9.6,0,17.39-8.76,17.39-19.57s7.79-19.56,17.39-19.56,17.39,8.76,17.39,19.56,7.79,19.57,17.4,19.57S87,224,87,234.78s-7.79,19.57-17.39,19.57-17.4,8.76-17.4,19.56-7.78,19.57-17.39,19.57S17.39,302.24,17.39,313,9.6,332.61,0,332.61"/>
        <ellipse class="b297f250-4a0f-4a1e-9d21-98b03a744ebd" cx="69.57" cy="313.04" rx="17.39" ry="19.57"/>
        <ellipse class="b297f250-4a0f-4a1e-9d21-98b03a744ebd" cx="521.74" cy="586.96" rx="17.39" ry="19.57"/>
        <ellipse class="b297f250-4a0f-4a1e-9d21-98b03a744ebd" cx="486.96" cy="469.57" rx="17.39" ry="19.57"/>
        <path class="b297f250-4a0f-4a1e-9d21-98b03a744ebd" d="M434.78,469.57c0,10.8-7.78,19.56-17.39,19.56S400,497.89,400,508.7s7.79,19.56,17.39,19.56,17.39-8.76,17.39-19.56,7.79-19.57,17.39-19.57,17.4,8.76,17.4,19.57-7.79,19.56-17.4,19.56-17.39,8.76-17.39,19.57-7.78,19.56-17.39,19.56S400,576.15,400,587s-7.79,19.56-17.39,19.56-17.39-8.76-17.39-19.56,7.78-19.57,17.39-19.57S400,558.63,400,547.83s-7.79-19.57-17.39-19.57-17.39,8.76-17.39,19.57-7.79,19.56-17.39,19.56-17.4-8.76-17.4-19.56,7.79-19.57,17.4-19.57,17.39-8.76,17.39-19.56,7.78-19.57,17.39-19.57S400,480.37,400,469.57,407.79,450,417.39,450s17.39,8.76,17.39,19.57"/>
        <ellipse class="b297f250-4a0f-4a1e-9d21-98b03a744ebd" cx="486.96" cy="313.04" rx="17.39" ry="19.57"/>
        <path class="b297f250-4a0f-4a1e-9d21-98b03a744ebd" d="M573.91,313c0,10.81-7.78,19.57-17.39,19.57s-17.39,8.76-17.39,19.56-7.79,19.57-17.39,19.57-17.39,8.76-17.39,19.56,7.78,19.57,17.39,19.57,17.39-8.76,17.39-19.57,7.79-19.56,17.39-19.56,17.39,8.76,17.39,19.56-7.78,19.57-17.39,19.57-17.39,8.76-17.39,19.56S531.34,450,521.74,450s-17.39-8.76-17.39-19.57-7.79-19.56-17.39-19.56-17.39-8.76-17.39-19.57,7.78-19.56,17.39-19.56,17.39-8.76,17.39-19.57,7.78-19.56,17.39-19.56,17.39-8.76,17.39-19.57,7.79-19.56,17.39-19.56,17.39-8.76,17.39-19.57,7.79-19.56,17.39-19.56,17.4-8.76,17.4-19.57-7.79-19.56-17.4-19.56-17.39,8.76-17.39,19.56-7.78,19.57-17.39,19.57-17.39-8.76-17.39-19.57,7.79-19.56,17.39-19.56,17.39-8.76,17.39-19.57,7.79-19.56,17.39-19.56,17.4,8.76,17.4,19.56,7.78,19.57,17.39,19.57,17.39,8.76,17.39,19.56-7.79,19.57-17.39,19.57-17.39,8.76-17.39,19.56-7.79,19.57-17.4,19.57S573.91,302.24,573.91,313Z"/>
        <path class="b297f250-4a0f-4a1e-9d21-98b03a744ebd" d="M556.52,450c9.61,0,17.39-8.76,17.39-19.57s7.79-19.56,17.39-19.56,17.4-8.76,17.4-19.57,7.78-19.56,17.39-19.56,17.39,8.76,17.39,19.56-7.79,19.57-17.39,19.57-17.39,8.76-17.39,19.56S600.91,450,591.3,450s-17.39,8.76-17.39,19.57-7.78,19.56-17.39,19.56-17.39,8.76-17.39,19.57-7.79,19.56-17.39,19.56-17.39,8.76-17.39,19.57-7.79,19.56-17.39,19.56-17.39-8.76-17.39-19.56,7.78-19.57,17.39-19.57,17.39-8.76,17.39-19.56,7.78-19.57,17.39-19.57,17.39-8.76,17.39-19.56S546.92,450,556.52,450Z"/>
        <path class="b297f250-4a0f-4a1e-9d21-98b03a744ebd" d="M0,841.3c9.6,0,17.39,8.76,17.39,19.57S9.6,880.43,0,880.43"/>
        <path class="b297f250-4a0f-4a1e-9d21-98b03a744ebd" d="M278.26,802.17c-9.6,0-17.39-8.76-17.39-19.56S253.08,763,243.48,763s-17.39,8.76-17.39,19.57,7.78,19.56,17.39,19.56,17.39,8.76,17.39,19.57-7.79,19.56-17.39,19.56-17.39,8.76-17.39,19.57,7.78,19.56,17.39,19.56,17.39,8.76,17.39,19.57"/>
        <path class="b297f250-4a0f-4a1e-9d21-98b03a744ebd" d="M209,841.46c9.6,0,17.11-8.92,17.11-19.72s-7.79-19.57-17.39-19.57-17.4,8.76-17.4,19.57-7.78,19.56-17.39,19.56-17.39,8.76-17.39,19.57,7.79,19.56,17.39,19.56,17.39-8.75,17.39-19.56S199.37,841.46,209,841.46Z"/>
        <ellipse class="b297f250-4a0f-4a1e-9d21-98b03a744ebd" cx="173.91" cy="665.22" rx="17.39" ry="19.57"/>
        <ellipse class="b297f250-4a0f-4a1e-9d21-98b03a744ebd" cx="243.48" cy="626.09" rx="17.39" ry="19.57"/>
        <path class="b297f250-4a0f-4a1e-9d21-98b03a744ebd" d="M0,684.78c9.6,0,17.39-8.76,17.39-19.56S9.6,645.65,0,645.65"/>
        <path class="b297f250-4a0f-4a1e-9d21-98b03a744ebd" d="M0,763c9.6,0,17.39,8.76,17.39,19.57s7.79,19.56,17.39,19.56,17.39-8.76,17.39-19.56S44.39,763,34.78,763s-17.39-8.76-17.39-19.56,7.79-19.57,17.39-19.57,17.39,8.76,17.39,19.57S60,763,69.57,763,87,754.28,87,743.48s-7.79-19.57-17.39-19.57-17.4-8.76-17.4-19.56,7.79-19.57,17.4-19.57S87,676,87,665.22s-7.79-19.57-17.39-19.57-17.4-8.76-17.4-19.56,7.79-19.57,17.4-19.57S87,615.28,87,626.09s7.78,19.56,17.39,19.56,17.39-8.76,17.39-19.56,7.79-19.57,17.39-19.57,17.39-8.76,17.39-19.56,7.79-19.57,17.39-19.57,17.39-8.76,17.39-19.56-7.78-19.57-17.39-19.57-17.39,8.76-17.39,19.57-7.78,19.56-17.39,19.56-17.39,8.76-17.39,19.57-7.79,19.56-17.39,19.56S87,597.76,87,587s7.78-19.57,17.39-19.57,17.39-8.76,17.39-19.56-7.79-19.57-17.39-19.57S87,519.5,87,508.7s7.78-19.57,17.39-19.57,17.39,8.76,17.39,19.57,7.79,19.56,17.39,19.56,17.39-8.76,17.39-19.56,7.79-19.57,17.39-19.57,17.39-8.76,17.39-19.56S199.09,450,208.7,450s17.39,8.76,17.39,19.57-7.79,19.56-17.39,19.56-17.4,8.76-17.4,19.57,7.79,19.56,17.4,19.56,17.39-8.76,17.39-19.56,7.78-19.57,17.39-19.57,17.39-8.76,17.39-19.56S268.66,450,278.26,450s17.39-8.76,17.39-19.57,7.79-19.56,17.39-19.56,17.39-8.76,17.39-19.57-7.78-19.56-17.39-19.56-17.39,8.76-17.39,19.56-7.78,19.57-17.39,19.57-17.39,8.76-17.39,19.56S253.08,450,243.48,450s-17.39-8.76-17.39-19.57,7.78-19.56,17.39-19.56,17.39-8.76,17.39-19.57,7.79-19.56,17.39-19.56,17.39-8.76,17.39-19.57-7.78-19.56-17.39-19.56-17.39,8.76-17.39,19.56-7.79,19.57-17.39,19.57-17.39-8.76-17.39-19.57,7.78-19.56,17.39-19.56,17.39-8.76,17.39-19.57-7.79-19.56-17.39-19.56-17.39,8.76-17.39,19.56-7.79,19.57-17.39,19.57-17.4-8.76-17.4-19.57,7.79-19.56,17.4-19.56,17.39-8.76,17.39-19.57-7.79-19.56-17.39-19.56-17.4,8.76-17.4,19.56-7.78,19.57-17.39,19.57-17.39,8.76-17.39,19.56-7.78,19.57-17.39,19.57-17.39,8.76-17.39,19.56-7.79,19.57-17.39,19.57S87,363,87,352.17s7.78-19.56,17.39-19.56,17.39-8.76,17.39-19.57,7.79-19.56,17.39-19.56,17.39-8.76,17.39-19.57,7.79-19.56,17.39-19.56,17.39-8.76,17.39-19.57-7.78-19.56-17.39-19.56-17.39,8.76-17.39,19.56-7.78,19.57-17.39,19.57-17.39,8.76-17.39,19.56-7.79,19.57-17.39,19.57S87,284.72,87,273.91s7.78-19.56,17.39-19.56,17.39-8.76,17.39-19.57-7.79-19.56-17.39-19.56S87,206.46,87,195.65s7.78-19.56,17.39-19.56,17.39,8.76,17.39,19.56,7.79,19.57,17.39,19.57,17.39-8.76,17.39-19.57,7.79-19.56,17.39-19.56,17.39-8.76,17.39-19.57S199.09,137,208.7,137s17.39,8.76,17.39,19.56-7.79,19.57-17.39,19.57-17.4,8.76-17.4,19.56,7.79,19.57,17.4,19.57,17.39-8.76,17.39-19.57,7.78-19.56,17.39-19.56,17.39-8.76,17.39-19.57S268.66,137,278.26,137s17.39-8.76,17.39-19.57S303.44,97.83,313,97.83s17.39-8.76,17.39-19.57S322.65,58.7,313,58.7s-17.39,8.76-17.39,19.56-7.78,19.57-17.39,19.57-17.39,8.76-17.39,19.56S253.08,137,243.48,137s-17.39-8.76-17.39-19.57,7.78-19.56,17.39-19.56,17.39-8.76,17.39-19.57,7.79-19.56,17.39-19.56,17.39-8.76,17.39-19.57-7.78-19.56-17.39-19.56-17.39,8.75-17.39,19.56S253.08,58.7,243.48,58.7s-17.39-8.76-17.39-19.57,7.78-19.56,17.39-19.56S260.87,10.81,260.87,0"/>
        <path class="b297f250-4a0f-4a1e-9d21-98b03a744ebd" d="M0,528.26c9.6,0,17.39-8.76,17.39-19.56s7.79-19.57,17.39-19.57,17.39,8.76,17.39,19.57,7.79,19.56,17.4,19.56S87,537,87,547.83s-7.79,19.56-17.39,19.56-17.4,8.76-17.4,19.57-7.78,19.56-17.39,19.56-17.39,8.76-17.39,19.57,7.79,19.56,17.39,19.56,17.39,8.76,17.39,19.57-7.78,19.56-17.39,19.56-17.39,8.76-17.39,19.57S9.6,723.91,0,723.91"/>
        <path class="b297f250-4a0f-4a1e-9d21-98b03a744ebd" d="M191.3,626.09c0-10.81,7.79-19.57,17.4-19.57s17.39-8.76,17.39-19.56-7.79-19.57-17.39-19.57-17.4,8.76-17.4,19.57-7.78,19.56-17.39,19.56-17.39,8.76-17.39,19.57-7.78,19.56-17.39,19.56-17.39,8.76-17.39,19.57-7.79,19.56-17.39,19.56S87,693.54,87,704.35s7.78,19.56,17.39,19.56,17.39-8.76,17.39-19.56,7.79-19.57,17.39-19.57,17.39,8.76,17.39,19.57,7.79,19.56,17.39,19.56,17.39-8.76,17.39-19.56,7.79-19.57,17.4-19.57,17.39,8.76,17.39,19.57,7.78,19.56,17.39,19.56,17.39,8.76,17.39,19.57S268.66,763,278.26,763s17.39,8.76,17.39,19.57,7.79,19.56,17.39,19.56,17.39-8.76,17.39-19.56S322.65,763,313,763s-17.39-8.76-17.39-19.56,7.79-19.57,17.39-19.57,17.39-8.76,17.39-19.56-7.78-19.57-17.39-19.57-17.39-8.76-17.39-19.56-7.78-19.57-17.39-19.57-17.39,8.76-17.39,19.57-7.79,19.56-17.39,19.56-17.39-8.76-17.39-19.56-7.79-19.57-17.39-19.57S191.3,636.89,191.3,626.09Z"/>
        <path class="b297f250-4a0f-4a1e-9d21-98b03a744ebd" d="M278.26,723.91c-9.6,0-17.39-8.76-17.39-19.56s7.79-19.57,17.39-19.57h-.56c10.17.32,17.95,8.76,17.95,19.57S287.87,723.91,278.26,723.91Z"/>
        <path class="b297f250-4a0f-4a1e-9d21-98b03a744ebd" d="M347.83,723.91c-9.61,0-17.4,8.76-17.4,19.57S338.22,763,347.83,763s17.39-8.76,17.39-19.56,7.78-19.57,17.39-19.57S400,715.15,400,704.35s-7.79-19.57-17.39-19.57-17.39,8.76-17.39,19.57S358,724.23,347.83,723.91Z"/>
        <path class="b297f250-4a0f-4a1e-9d21-98b03a744ebd" d="M400,900c0-10.81-7.79-19.57-17.39-19.57s-17.39,8.76-17.39,19.57"/>
        <path class="b297f250-4a0f-4a1e-9d21-98b03a744ebd" d="M278.26,841.3c9.61,0,17.39,8.76,17.39,19.57s-7.5,19.72-17.11,19.72c-10.17-.31-17.67-8.91-17.67-19.72s7.79-19.57,17.39-19.57"/>
        <path class="b297f250-4a0f-4a1e-9d21-98b03a744ebd" d="M834.78,763c9.61,0,17.39,8.76,17.39,19.57s7.79,19.56,17.4,19.56S887,793.41,887,782.61,879.17,763,869.57,763s-17.4-8.76-17.4-19.56,7.79-19.57,17.4-19.57S887,715.15,887,704.35s-7.79-19.57-17.39-19.57-17.4-8.76-17.4-19.56-7.78-19.57-17.39-19.57"/>
        <path class="b297f250-4a0f-4a1e-9d21-98b03a744ebd" d="M904.07,723.75c-9.61,0-17.11,8.92-17.11,19.73S894.74,763,904.35,763s17.39-8.76,17.39-19.56,7.79-19.57,17.39-19.57,17.39-8.76,17.39-19.56-7.78-19.57-17.39-19.57-17.39,8.76-17.39,19.57S913.67,723.75,904.07,723.75Z"/>
        <path class="b297f250-4a0f-4a1e-9d21-98b03a744ebd" d="M956.52,900c0-10.81-7.78-19.57-17.39-19.57s-17.39,8.76-17.39,19.57"/>
        <path class="b297f250-4a0f-4a1e-9d21-98b03a744ebd" d="M834.78,841.3c9.61,0,17.39,8.76,17.39,19.57s-7.78,19.56-17.39,19.56h.57c-10.17-.31-18-8.75-18-19.56S825.18,841.3,834.78,841.3Z"/>
        <path class="b297f250-4a0f-4a1e-9d21-98b03a744ebd" d="M765.22,841.3c9.6,0,17.39-8.76,17.39-19.56s-7.79-19.57-17.39-19.57-17.39,8.76-17.39,19.57S740,841.3,730.43,841.3,713,850.06,713,860.87s7.79,19.56,17.39,19.56,17.4-8.75,17.4-19.56S755.05,841,765.22,841.3Z"/>
        <ellipse class="b297f250-4a0f-4a1e-9d21-98b03a744ebd" cx="730.43" cy="665.22" rx="17.39" ry="19.57"/>
        <ellipse class="b297f250-4a0f-4a1e-9d21-98b03a744ebd" cx="800" cy="626.09" rx="17.39" ry="19.57"/>
        <path class="b297f250-4a0f-4a1e-9d21-98b03a744ebd" d="M834.78,723.91c-9.6,0-17.39-8.76-17.39-19.56s7.5-19.73,17.11-19.73c10.17.32,17.67,8.92,17.67,19.73s-7.78,19.56-17.39,19.56"/>
        <path class="b297f250-4a0f-4a1e-9d21-98b03a744ebd" d="M834.78,645.65c-9.6,0-17.39,8.76-17.39,19.57S809.6,684.78,800,684.78s-17.39-8.76-17.39-19.56-7.79-19.57-17.39-19.57-17.39-8.76-17.39-19.56,7.78-19.57,17.39-19.57,17.39-8.76,17.39-19.56-7.79-19.57-17.39-19.57-17.39,8.76-17.39,19.57-7.79,19.56-17.4,19.56S713,615.28,713,626.09s-7.78,19.56-17.39,19.56-17.39,8.76-17.39,19.57-7.79,19.56-17.39,19.56-17.39,8.76-17.39,19.57,7.78,19.56,17.39,19.56,17.39-8.76,17.39-19.56,7.79-19.57,17.39-19.57S713,693.54,713,704.35s7.79,19.56,17.39,19.56,17.4-8.76,17.4-19.56,7.78-19.57,17.39-19.57,17.39,8.76,17.39,19.57,7.79,19.56,17.39,19.56,17.39,8.76,17.39,19.57S825.18,763,834.78,763"/>
        <path class="b297f250-4a0f-4a1e-9d21-98b03a744ebd" d="M608.7,626.09c0-10.81,7.78-19.57,17.39-19.57s17.39,8.76,17.39,19.57,7.78,19.56,17.39,19.56,17.39-8.76,17.39-19.56,7.79-19.57,17.39-19.57S713,597.76,713,587s7.79-19.57,17.39-19.57,17.4-8.76,17.4-19.56-7.79-19.57-17.4-19.57S713,537,713,547.83s-7.78,19.56-17.39,19.56-17.39,8.76-17.39,19.57-7.79,19.56-17.39,19.56-17.39-8.76-17.39-19.56,7.78-19.57,17.39-19.57,17.39-8.76,17.39-19.56-7.79-19.57-17.39-19.57-17.39-8.76-17.39-19.56,7.78-19.57,17.39-19.57,17.39,8.76,17.39,19.57,7.79,19.56,17.39,19.56S713,519.5,713,508.7s7.79-19.57,17.39-19.57,17.4-8.76,17.4-19.56S755.61,450,765.22,450s17.39,8.76,17.39,19.57-7.79,19.56-17.39,19.56-17.39,8.76-17.39,19.57,7.78,19.56,17.39,19.56,17.39-8.76,17.39-19.56,7.79-19.57,17.39-19.57,17.39-8.76,17.39-19.56S825.18,450,834.78,450s17.39-8.76,17.39-19.57,7.79-19.56,17.4-19.56S887,402.11,887,391.3s-7.79-19.56-17.39-19.56-17.4,8.76-17.4,19.56-7.78,19.57-17.39,19.57-17.39,8.76-17.39,19.56S809.6,450,800,450s-17.39-8.76-17.39-19.57,7.79-19.56,17.39-19.56,17.39-8.76,17.39-19.57,7.79-19.56,17.39-19.56,17.39-8.76,17.39-19.57-7.78-19.56-17.39-19.56-17.39,8.76-17.39,19.56S809.6,371.74,800,371.74s-17.39-8.76-17.39-19.57,7.79-19.56,17.39-19.56,17.39-8.76,17.39-19.57S809.6,293.48,800,293.48s-17.39,8.76-17.39,19.56-7.79,19.57-17.39,19.57-17.39-8.76-17.39-19.57,7.78-19.56,17.39-19.56,17.39-8.76,17.39-19.57-7.79-19.56-17.39-19.56-17.39,8.76-17.39,19.56-7.79,19.57-17.4,19.57S713,302.24,713,313s-7.78,19.57-17.39,19.57-17.39,8.76-17.39,19.56-7.79,19.57-17.39,19.57-17.39-8.76-17.39-19.57,7.78-19.56,17.39-19.56,17.39-8.76,17.39-19.57,7.79-19.56,17.39-19.56S713,284.72,713,273.91s7.79-19.56,17.39-19.56,17.4-8.76,17.4-19.57-7.79-19.56-17.4-19.56S713,224,713,234.78s-7.78,19.57-17.39,19.57-17.39,8.76-17.39,19.56-7.79,19.57-17.39,19.57-17.39-8.76-17.39-19.57,7.78-19.56,17.39-19.56,17.39-8.76,17.39-19.57-7.79-19.56-17.39-19.56-17.39-8.76-17.39-19.57,7.78-19.56,17.39-19.56,17.39,8.76,17.39,19.56,7.79,19.57,17.39,19.57S713,206.46,713,195.65s7.79-19.56,17.39-19.56,17.4-8.76,17.4-19.57S755.61,137,765.22,137s17.39,8.76,17.39,19.56-7.79,19.57-17.39,19.57-17.39,8.76-17.39,19.56,7.78,19.57,17.39,19.57,17.39-8.76,17.39-19.57,7.79-19.56,17.39-19.56,17.39-8.76,17.39-19.57S825.18,137,834.78,137s17.39-8.76,17.39-19.57,7.79-19.56,17.4-19.56S887,89.07,887,78.26,879.17,58.7,869.57,58.7s-17.4,8.76-17.4,19.56-7.78,19.57-17.39,19.57-17.39,8.76-17.39,19.56S809.6,137,800,137s-17.39-8.76-17.39-19.57S790.4,97.83,800,97.83s17.39-8.76,17.39-19.57,7.79-19.56,17.39-19.56,17.39-8.76,17.39-19.57-7.78-19.56-17.39-19.56-17.39,8.75-17.39,19.56S809.6,58.7,800,58.7s-17.39-8.76-17.39-19.57S790.4,19.57,800,19.57,817.39,10.81,817.39,0"/>
        <path class="b297f250-4a0f-4a1e-9d21-98b03a744ebd" d="M608.7,626.09c0,10.8,7.78,19.56,17.39,19.56s17.39,8.76,17.39,19.57-7.79,19.56-17.39,19.56-17.39,8.76-17.39,19.57,7.78,19.56,17.39,19.56,17.39,8.76,17.39,19.57S635.69,763,626.09,763s-17.39-8.76-17.39-19.56-7.79-19.57-17.4-19.57-17.39,8.76-17.39,19.57S581.7,763,591.3,763s17.4,8.76,17.4,19.57-7.79,19.56-17.4,19.56-17.39-8.76-17.39-19.56S566.13,763,556.52,763s-17.39-8.76-17.39-19.56-7.79-19.57-17.39-19.57-17.39,8.76-17.39,19.57S496.56,763,487,763s-17.39-8.76-17.39-19.56,7.78-19.57,17.39-19.57,17.39-8.76,17.39-19.56,7.78-19.57,17.39-19.57,17.39-8.76,17.39-19.56-7.79-19.57-17.39-19.57-17.39,8.76-17.39,19.57-7.79,19.56-17.39,19.56-17.39-8.76-17.39-19.56,7.78-19.57,17.39-19.57,17.39-8.76,17.39-19.56-7.79-19.57-17.39-19.57-17.39,8.76-17.39,19.57-7.79,19.56-17.4,19.56-17.39-8.76-17.39-19.56,7.79-19.57,17.39-19.57,17.4-8.76,17.4-19.56-7.79-19.57-17.4-19.57-17.39,8.76-17.39,19.57-7.78,19.56-17.39,19.56S400,615.28,400,626.09s7.79,19.56,17.39,19.56,17.39,8.76,17.39,19.57,7.79,19.56,17.39,19.56,17.4,8.76,17.4,19.57-7.79,19.56-17.4,19.56-17.39,8.76-17.39,19.57S442.57,763,452.17,763s17.4,8.76,17.4,19.57-7.79,19.56-17.4,19.56-17.39-8.76-17.39-19.56S427,763,417.39,763,400,771.8,400,782.61s7.79,19.56,17.39,19.56,17.39,8.76,17.39,19.57S427,841.3,417.39,841.3,400,832.54,400,821.74s-7.79-19.57-17.39-19.57-17.39,8.76-17.39,19.57-7.79,19.56-17.39,19.56-17.4-8.76-17.4-19.56,7.79-19.57,17.4-19.57,17.39-8.76,17.39-19.56S373,763,382.61,763,400,754.28,400,743.48s7.79-19.57,17.39-19.57,17.39-8.76,17.39-19.56-7.78-19.57-17.39-19.57S400,676,400,665.22s-7.79-19.57-17.39-19.57-17.39-8.76-17.39-19.56-7.79-19.57-17.39-19.57-17.4,8.76-17.4,19.57,7.79,19.56,17.4,19.56,17.39,8.76,17.39,19.57-7.79,19.56-17.39,19.56-17.4-8.76-17.4-19.56-7.78-19.57-17.39-19.57-17.39-8.76-17.39-19.56,7.79-19.57,17.39-19.57,17.39-8.76,17.39-19.56-7.78-19.57-17.39-19.57-17.39,8.76-17.39,19.57-7.78,19.56-17.39,19.56-17.39-8.76-17.39-19.56,7.79-19.57,17.39-19.57,17.39-8.76,17.39-19.56,7.79-19.57,17.39-19.57,17.39-8.76,17.39-19.56-7.78-19.57-17.39-19.57-17.39,8.76-17.39,19.57-7.78,19.56-17.39,19.56-17.39,8.76-17.39,19.57-7.79,19.56-17.39,19.56-17.39-8.76-17.39-19.56,7.78-19.57,17.39-19.57,17.39-8.76,17.39-19.56,7.79-19.57,17.39-19.57,17.39-8.76,17.39-19.56S303.44,450,313,450s17.39-8.76,17.39-19.57,7.79-19.56,17.4-19.56,17.39,8.76,17.39,19.56S357.43,450,347.83,450s-17.4,8.76-17.4,19.57,7.79,19.56,17.4,19.56,17.39-8.76,17.39-19.56S373,450,382.61,450,400,441.24,400,430.43s7.79-19.56,17.39-19.56,17.39,8.76,17.39,19.56S442.57,450,452.17,450s17.4-8.76,17.4-19.57-7.79-19.56-17.4-19.56-17.39-8.76-17.39-19.57,7.79-19.56,17.39-19.56,17.4-8.76,17.4-19.57-7.79-19.56-17.4-19.56-17.39,8.76-17.39,19.56-7.78,19.57-17.39,19.57S400,380.5,400,391.3s-7.79,19.57-17.39,19.57-17.39-8.76-17.39-19.57,7.78-19.56,17.39-19.56S400,363,400,352.17s7.79-19.56,17.39-19.56,17.39-8.76,17.39-19.57,7.79-19.56,17.39-19.56,17.4-8.76,17.4-19.57-7.79-19.56-17.4-19.56-17.39,8.76-17.39,19.56-7.78,19.57-17.39,19.57S400,302.24,400,313s-7.79,19.57-17.39,19.57-17.39,8.76-17.39,19.56-7.79,19.57-17.39,19.57-17.4-8.76-17.4-19.57,7.79-19.56,17.4-19.56,17.39-8.76,17.39-19.57-7.79-19.56-17.39-19.56-17.4,8.76-17.4,19.56-7.78,19.57-17.39,19.57-17.39-8.76-17.39-19.57,7.79-19.56,17.39-19.56,17.39-8.76,17.39-19.57-7.78-19.56-17.39-19.56-17.39,8.76-17.39,19.56-7.78,19.57-17.39,19.57-17.39-8.76-17.39-19.57,7.79-19.56,17.39-19.56,17.39-8.76,17.39-19.57,7.79-19.56,17.39-19.56,17.39-8.76,17.39-19.57-7.78-19.56-17.39-19.56-17.39,8.76-17.39,19.56-7.78,19.57-17.39,19.57-17.39,8.76-17.39,19.56-7.79,19.57-17.39,19.57-17.39-8.76-17.39-19.57,7.78-19.56,17.39-19.56,17.39-8.76,17.39-19.57,7.79-19.56,17.39-19.56,17.39-8.76,17.39-19.57S303.44,137,313,137s17.39-8.76,17.39-19.57,7.79-19.56,17.4-19.56,17.39,8.76,17.39,19.56S357.43,137,347.83,137s-17.4,8.76-17.4,19.56,7.79,19.57,17.4,19.57,17.39-8.76,17.39-19.57S373,137,382.61,137,400,128.2,400,117.39s7.79-19.56,17.39-19.56,17.39,8.76,17.39,19.56S442.57,137,452.17,137s17.4-8.76,17.4-19.57-7.79-19.56-17.4-19.56-17.39-8.76-17.39-19.57,7.79-19.56,17.39-19.56,17.4-8.76,17.4-19.57-7.79-19.56-17.4-19.56-17.39,8.75-17.39,19.56S427,58.7,417.39,58.7,400,67.46,400,78.26s-7.79,19.57-17.39,19.57-17.39-8.76-17.39-19.57S373,58.7,382.61,58.7,400,49.94,400,39.13s7.79-19.56,17.39-19.56S434.78,10.81,434.78,0"/>
        <path class="b297f250-4a0f-4a1e-9d21-98b03a744ebd" d="M573.91,626.09c0,10.8,7.79,19.56,17.39,19.56s17.4,8.76,17.4,19.57-7.79,19.56-17.4,19.56-17.39,8.76-17.39,19.57-7.78,19.56-17.39,19.56-17.39-8.76-17.39-19.56,7.79-19.57,17.39-19.57,17.39-8.76,17.39-19.56-7.78-19.57-17.39-19.57-17.39-8.76-17.39-19.56,7.79-19.57,17.39-19.57,17.39-8.76,17.39-19.56,7.79-19.57,17.39-19.57,17.4-8.76,17.4-19.56-7.79-19.57-17.4-19.57-17.39,8.76-17.39,19.57-7.78,19.56-17.39,19.56-17.39-8.76-17.39-19.56,7.79-19.57,17.39-19.57,17.39-8.76,17.39-19.56,7.79-19.57,17.39-19.57,17.4,8.76,17.4,19.57,7.78,19.56,17.39,19.56,17.39,8.76,17.39,19.57-7.79,19.56-17.39,19.56S608.7,576.15,608.7,587s-7.79,19.56-17.4,19.56S573.91,615.28,573.91,626.09Z"/>
        <g>
          <g>
            <path class="b297f250-4a0f-4a1e-9d21-98b03a744ebd" d="M1060.87,900c0-10.81,7.79-19.57,17.39-19.57s17.39-8.75,17.39-19.56,7.79-19.57,17.39-19.57"/>
            <path class="b297f250-4a0f-4a1e-9d21-98b03a744ebd" d="M852.17,900c0-10.81,7.79-19.57,17.4-19.57S887,889.19,887,900"/>
            <path class="b297f250-4a0f-4a1e-9d21-98b03a744ebd" d="M991.3,900c0-10.81,7.79-19.57,17.4-19.57s17.39-8.75,17.39-19.56-7.79-19.57-17.39-19.57-17.4,8.76-17.4,19.57-7.78,19.56-17.39,19.56-17.39-8.75-17.39-19.56-7.78-19.57-17.39-19.57-17.39,8.76-17.39,19.57-7.79,19.56-17.39,19.56S887,871.68,887,860.87s-7.79-19.57-17.39-19.57-17.4-8.76-17.4-19.56-7.78-19.57-17.39-19.57-17.39-8.76-17.39-19.56S809.6,763,800,763s-17.39,8.76-17.39,19.57,7.79,19.56,17.39,19.56,17.39,8.76,17.39,19.57S809.6,841.3,800,841.3s-17.39,8.76-17.39,19.57,7.79,19.56,17.39,19.56,17.39,8.76,17.39,19.57"/>
          </g>
          <g>
            <path class="b297f250-4a0f-4a1e-9d21-98b03a744ebd" d="M782.61,900c0-10.81-7.79-19.57-17.39-19.57s-17.39,8.76-17.39,19.57"/>
            <path class="b297f250-4a0f-4a1e-9d21-98b03a744ebd" d="M713,900c0-10.81-7.78-19.57-17.39-19.57s-17.39-8.75-17.39-19.56,7.79-19.57,17.39-19.57S713,832.54,713,821.74s7.79-19.57,17.39-19.57,17.4-8.76,17.4-19.56S755.61,763,765.22,763s17.39-8.76,17.39-19.56-7.79-19.57-17.39-19.57-17.39,8.76-17.39,19.57S740,763,730.43,763,713,754.28,713,743.48s-7.78-19.57-17.39-19.57-17.39,8.76-17.39,19.57S686.05,763,695.65,763,713,771.8,713,782.61s-7.78,19.56-17.39,19.56-17.39-8.76-17.39-19.56S670.47,763,660.87,763s-17.39,8.76-17.39,19.57,7.78,19.56,17.39,19.56,17.39,8.76,17.39,19.57-7.79,19.56-17.39,19.56-17.39,8.76-17.39,19.57,7.78,19.56,17.39,19.56,17.39,8.76,17.39,19.57"/>
          </g>
          <g>
            <path class="b297f250-4a0f-4a1e-9d21-98b03a744ebd" d="M226.09,900c0-10.81-7.79-19.57-17.39-19.57s-17.4,8.76-17.4,19.57"/>
            <path class="b297f250-4a0f-4a1e-9d21-98b03a744ebd" d="M17.39,900c0-10.81,7.79-19.57,17.39-19.57s17.39-8.75,17.39-19.56S60,841.3,69.57,841.3,87,832.54,87,821.74s-7.79-19.57-17.39-19.57-17.4,8.76-17.4,19.57S44.39,841.3,34.78,841.3s-17.39-8.76-17.39-19.56S9.6,802.17,0,802.17"/>
            <path class="b297f250-4a0f-4a1e-9d21-98b03a744ebd" d="M87,900c0-10.81-7.79-19.57-17.39-19.57s-17.4,8.76-17.4,19.57"/>
          </g>
          <g>
            <path class="b297f250-4a0f-4a1e-9d21-98b03a744ebd" d="M504.35,900c0-10.81,7.78-19.57,17.39-19.57s17.39-8.75,17.39-19.56,7.79-19.57,17.39-19.57,17.39,8.76,17.39,19.57-7.78,19.56-17.39,19.56-17.39,8.76-17.39,19.57"/>
            <path class="b297f250-4a0f-4a1e-9d21-98b03a744ebd" d="M573.91,900c0-10.81,7.79-19.57,17.39-19.57s17.4-8.75,17.4-19.56,7.78-19.57,17.39-19.57,17.39-8.76,17.39-19.56-7.79-19.57-17.39-19.57-17.39,8.76-17.39,19.57-7.79,19.56-17.4,19.56-17.39-8.76-17.39-19.56-7.78-19.57-17.39-19.57-17.39-8.76-17.39-19.56S531.34,763,521.74,763s-17.39,8.76-17.39,19.57,7.78,19.56,17.39,19.56,17.39,8.76,17.39,19.57-7.79,19.56-17.39,19.56-17.39-8.76-17.39-19.56-7.79-19.57-17.39-19.57-17.39,8.76-17.39,19.57S477.35,841.3,487,841.3s17.39,8.76,17.39,19.57-7.79,19.56-17.39,19.56-17.39,8.76-17.39,19.57"/>
            <path class="b297f250-4a0f-4a1e-9d21-98b03a744ebd" d="M643.48,900c0-10.81-7.79-19.57-17.39-19.57S608.7,889.19,608.7,900"/>
            <path class="b297f250-4a0f-4a1e-9d21-98b03a744ebd" d="M434.78,900c0-10.81,7.79-19.57,17.39-19.57s17.4-8.75,17.4-19.56-7.79-19.57-17.4-19.57-17.39,8.76-17.39,19.57-7.78,19.56-17.39,19.56S400,871.68,400,860.87s-7.79-19.57-17.39-19.57-17.39,8.76-17.39,19.57-7.79,19.56-17.39,19.56-17.4-8.75-17.4-19.56S322.65,841.3,313,841.3s-17.39-8.76-17.39-19.56-7.78-19.57-17.39-19.57"/>
            <path class="b297f250-4a0f-4a1e-9d21-98b03a744ebd" d="M295.65,900c0-10.81,7.79-19.57,17.39-19.57s17.39,8.76,17.39,19.57"/>
            <path class="b297f250-4a0f-4a1e-9d21-98b03a744ebd" d="M156.52,900c0-10.81-7.78-19.57-17.39-19.57s-17.39-8.75-17.39-19.56,7.79-19.57,17.39-19.57,17.39-8.76,17.39-19.56,7.79-19.57,17.39-19.57,17.39-8.76,17.39-19.56S199.09,763,208.7,763s17.39-8.76,17.39-19.56-7.79-19.57-17.39-19.57-17.4,8.76-17.4,19.57S183.52,763,173.91,763s-17.39-8.76-17.39-19.56-7.78-19.57-17.39-19.57-17.39,8.76-17.39,19.57S129.53,763,139.13,763s17.39,8.76,17.39,19.57-7.78,19.56-17.39,19.56-17.39-8.76-17.39-19.56S114,763,104.35,763,87,771.8,87,782.61s7.78,19.56,17.39,19.56,17.39,8.76,17.39,19.57S114,841.3,104.35,841.3,87,850.06,87,860.87s7.78,19.56,17.39,19.56,17.39,8.76,17.39,19.57"/>
          </g>
        </g>
      </g>
      <g>
        <g>
          <g>
            <ellipse class="b297f250-4a0f-4a1e-9d21-98b03a744ebd" cx="1147.83" cy="626.09" rx="17.39" ry="19.57"/>
            <ellipse class="b297f250-4a0f-4a1e-9d21-98b03a744ebd" cx="1182.61" cy="743.48" rx="17.39" ry="19.57"/>
            <path class="b297f250-4a0f-4a1e-9d21-98b03a744ebd" d="M1234.78,743.48c0-10.81,7.79-19.57,17.39-19.57s17.4-8.76,17.4-19.56-7.79-19.57-17.4-19.57-17.39,8.76-17.39,19.57-7.78,19.56-17.39,19.56S1200,715.15,1200,704.35s7.79-19.57,17.39-19.57,17.39-8.76,17.39-19.56,7.79-19.57,17.39-19.57,17.4-8.76,17.4-19.56,7.78-19.57,17.39-19.57,17.39,8.76,17.39,19.57-7.79,19.56-17.39,19.56-17.39,8.76-17.39,19.57,7.78,19.56,17.39,19.56,17.39-8.76,17.39-19.56,7.78-19.57,17.39-19.57,17.39,8.76,17.39,19.57-7.79,19.56-17.39,19.56-17.39,8.76-17.39,19.57-7.79,19.56-17.39,19.56-17.39,8.76-17.39,19.57-7.79,19.56-17.4,19.56-17.39-8.76-17.39-19.56"/>
            <path class="b297f250-4a0f-4a1e-9d21-98b03a744ebd" d="M1304.35,900c0-10.81,7.78-19.57,17.39-19.57s17.39-8.75,17.39-19.56-7.79-19.57-17.39-19.57-17.39,8.76-17.39,19.57-7.79,19.56-17.39,19.56-17.39,8.76-17.39,19.57"/>
            <path class="b297f250-4a0f-4a1e-9d21-98b03a744ebd" d="M1373.91,900c0-10.81-7.78-19.57-17.39-19.57s-17.39,8.76-17.39,19.57"/>
            <path class="b297f250-4a0f-4a1e-9d21-98b03a744ebd" d="M1165.22,900c0-10.81,7.78-19.57,17.39-19.57S1200,889.19,1200,900"/>
            <path class="b297f250-4a0f-4a1e-9d21-98b03a744ebd" d="M1113,841.3c9.61,0,17.39-8.76,17.39-19.56s7.79-19.57,17.4-19.57,17.39,8.76,17.39,19.57-7.79,19.56-17.39,19.56-17.4,8.76-17.4,19.57-7.78,19.56-17.39,19.56-17.39,8.76-17.39,19.57"/>
            <path class="b297f250-4a0f-4a1e-9d21-98b03a744ebd" d="M1130.43,900c0-10.81,7.79-19.57,17.4-19.57s17.39-8.75,17.39-19.56,7.78-19.57,17.39-19.57,17.39-8.76,17.39-19.56-7.79-19.57-17.39-19.57-17.39-8.76-17.39-19.56S1157.43,763,1147.83,763s-17.4,8.76-17.4,19.57-7.78,19.56-17.39,19.56-17.39-8.76-17.39-19.56S1087.87,763,1078.26,763s-17.39,8.76-17.39,19.57,7.79,19.56,17.39,19.56,17.39,8.76,17.39,19.57-7.78,19.56-17.39,19.56-17.39-8.76-17.39-19.56-7.79-19.57-17.39-19.57-17.39,8.76-17.39,19.57,7.78,19.56,17.39,19.56,17.39,8.76,17.39,19.57-7.79,19.56-17.39,19.56-17.39,8.76-17.39,19.57"/>
            <path class="b297f250-4a0f-4a1e-9d21-98b03a744ebd" d="M1095.65,626.09c0,10.8,7.79,19.56,17.39,19.56s17.39,8.76,17.39,19.57-7.78,19.56-17.39,19.56-17.39,8.76-17.39,19.57,7.79,19.56,17.39,19.56,17.39-8.76,17.39-19.56,7.79-19.57,17.4-19.57,17.39-8.76,17.39-19.56,7.78-19.57,17.39-19.57,17.39,8.76,17.39,19.57-7.79,19.56-17.39,19.56-17.39,8.76-17.39,19.57-7.79,19.56-17.39,19.56-17.4,8.76-17.4,19.57S1122.65,763,1113,763s-17.39-8.76-17.39-19.56-7.78-19.57-17.39-19.57-17.39,8.76-17.39,19.57S1053.08,763,1043.48,763s-17.39-8.76-17.39-19.56,7.78-19.57,17.39-19.57,17.39-8.76,17.39-19.56,7.79-19.57,17.39-19.57,17.39-8.76,17.39-19.56-7.78-19.57-17.39-19.57-17.39,8.76-17.39,19.57-7.79,19.56-17.39,19.56-17.39-8.76-17.39-19.56,7.78-19.57,17.39-19.57,17.39-8.76,17.39-19.56-7.79-19.57-17.39-19.57-17.39,8.76-17.39,19.57-7.79,19.56-17.39,19.56-17.4-8.76-17.4-19.56,7.79-19.57,17.4-19.57,17.39-8.76,17.39-19.56-7.79-19.57-17.39-19.57-17.4,8.76-17.4,19.57-7.78,19.56-17.39,19.56-17.39,8.76-17.39,19.57,7.79,19.56,17.39,19.56,17.39,8.76,17.39,19.57,7.79,19.56,17.4,19.56,17.39,8.76,17.39,19.57-7.79,19.56-17.39,19.56-17.4,8.76-17.4,19.57S999.09,763,1008.7,763s17.39,8.76,17.39,19.57-7.79,19.56-17.39,19.56-17.4-8.76-17.4-19.56S983.52,763,973.91,763s-17.39,8.76-17.39,19.57,7.79,19.56,17.39,19.56,17.39,8.76,17.39,19.57-7.78,19.56-17.39,19.56-17.39-8.76-17.39-19.56-7.78-19.57-17.39-19.57-17.39,8.76-17.39,19.57S914,841.3,904.35,841.3,887,832.54,887,821.74s7.78-19.57,17.39-19.57,17.39-8.76,17.39-19.56S929.53,763,939.13,763s17.39-8.76,17.39-19.56,7.79-19.57,17.39-19.57,17.39-8.76,17.39-19.56-7.78-19.57-17.39-19.57-17.39-8.76-17.39-19.56-7.78-19.57-17.39-19.57-17.39-8.76-17.39-19.56-7.79-19.57-17.39-19.57S887,615.28,887,626.09s7.78,19.56,17.39,19.56,17.39,8.76,17.39,19.57-7.79,19.56-17.39,19.56S887,676,887,665.22s-7.79-19.57-17.39-19.57-17.4-8.76-17.4-19.56,7.79-19.57,17.4-19.57S887,597.76,887,587s-7.79-19.57-17.39-19.57-17.4,8.76-17.4,19.57-7.78,19.56-17.39,19.56-17.39-8.76-17.39-19.56,7.79-19.57,17.39-19.57,17.39-8.76,17.39-19.56,7.79-19.57,17.4-19.57S887,519.5,887,508.7s-7.79-19.57-17.39-19.57-17.4,8.76-17.4,19.57-7.78,19.56-17.39,19.56-17.39,8.76-17.39,19.57S809.6,567.39,800,567.39s-17.39-8.76-17.39-19.56,7.79-19.57,17.39-19.57,17.39-8.76,17.39-19.56,7.79-19.57,17.39-19.57,17.39-8.76,17.39-19.56S860,450,869.57,450,887,441.24,887,430.43s7.78-19.56,17.39-19.56,17.39,8.76,17.39,19.56S914,450,904.35,450,887,458.76,887,469.57s7.78,19.56,17.39,19.56,17.39-8.76,17.39-19.56S929.53,450,939.13,450s17.39-8.76,17.39-19.57,7.79-19.56,17.39-19.56,17.39,8.76,17.39,19.56S999.09,450,1008.7,450s17.39-8.76,17.39-19.57-7.79-19.56-17.39-19.56-17.4-8.76-17.4-19.57,7.79-19.56,17.4-19.56,17.39-8.76,17.39-19.57-7.79-19.56-17.39-19.56-17.4,8.76-17.4,19.56-7.78,19.57-17.39,19.57-17.39,8.76-17.39,19.56-7.78,19.57-17.39,19.57-17.39-8.76-17.39-19.57,7.79-19.56,17.39-19.56,17.39-8.76,17.39-19.57,7.79-19.56,17.39-19.56S991.3,323.85,991.3,313s7.79-19.56,17.4-19.56,17.39-8.76,17.39-19.57-7.79-19.56-17.39-19.56-17.4,8.76-17.4,19.56-7.78,19.57-17.39,19.57-17.39,8.76-17.39,19.56-7.78,19.57-17.39,19.57-17.39,8.76-17.39,19.56-7.79,19.57-17.39,19.57S887,363,887,352.17s7.78-19.56,17.39-19.56,17.39-8.76,17.39-19.57-7.79-19.56-17.39-19.56S887,302.24,887,313s-7.79,19.57-17.39,19.57-17.4-8.76-17.4-19.57,7.79-19.56,17.4-19.56S887,284.72,887,273.91s-7.79-19.56-17.39-19.56-17.4,8.76-17.4,19.56-7.78,19.57-17.39,19.57-17.39-8.76-17.39-19.57,7.79-19.56,17.39-19.56,17.39-8.76,17.39-19.57,7.79-19.56,17.4-19.56S887,206.46,887,195.65s-7.79-19.56-17.39-19.56-17.4,8.76-17.4,19.56-7.78,19.57-17.39,19.57-17.39,8.76-17.39,19.56S809.6,254.35,800,254.35s-17.39-8.76-17.39-19.57,7.79-19.56,17.39-19.56,17.39-8.76,17.39-19.57,7.79-19.56,17.39-19.56,17.39-8.76,17.39-19.57S860,137,869.57,137,887,128.2,887,117.39s7.78-19.56,17.39-19.56,17.39,8.76,17.39,19.56S914,137,904.35,137,887,145.72,887,156.52s7.78,19.57,17.39,19.57,17.39-8.76,17.39-19.57S929.53,137,939.13,137s17.39-8.76,17.39-19.57,7.79-19.56,17.39-19.56,17.39,8.76,17.39,19.56S999.09,137,1008.7,137s17.39-8.76,17.39-19.57-7.79-19.56-17.39-19.56-17.4-8.76-17.4-19.57,7.79-19.56,17.4-19.56,17.39-8.76,17.39-19.57-7.79-19.56-17.39-19.56-17.4,8.75-17.4,19.56S983.52,58.7,973.91,58.7s-17.39,8.76-17.39,19.56-7.78,19.57-17.39,19.57-17.39-8.76-17.39-19.57,7.79-19.56,17.39-19.56,17.39-8.76,17.39-19.57,7.79-19.56,17.39-19.56S991.3,10.81,991.3,0"/>
          </g>
          <g>
            <path class="b297f250-4a0f-4a1e-9d21-98b03a744ebd" d="M1600,763c-9.6,0-17.39-8.76-17.39-19.56s7.79-19.57,17.39-19.57"/>
            <path class="b297f250-4a0f-4a1e-9d21-98b03a744ebd" d="M1547.83,743.48c0,10.8-7.79,19.56-17.4,19.56S1513,771.8,1513,782.61s7.79,19.56,17.39,19.56,17.4-8.76,17.4-19.56,7.78-19.57,17.39-19.57,17.39,8.76,17.39,19.57-7.79,19.56-17.39,19.56-17.39,8.76-17.39,19.57-7.79,19.56-17.4,19.56S1513,850.06,1513,860.87s-7.78,19.56-17.39,19.56-17.39-8.75-17.39-19.56,7.79-19.57,17.39-19.57,17.39-8.76,17.39-19.56-7.78-19.57-17.39-19.57-17.39,8.76-17.39,19.57-7.79,19.56-17.39,19.56-17.39-8.76-17.39-19.56,7.78-19.57,17.39-19.57,17.39-8.76,17.39-19.56,7.79-19.57,17.39-19.57,17.39-8.76,17.39-19.56,7.79-19.57,17.39-19.57,17.4,8.76,17.4,19.57"/>
            <path class="b297f250-4a0f-4a1e-9d21-98b03a744ebd" d="M1600,841.3c-9.6,0-17.39-8.76-17.39-19.56s7.79-19.57,17.39-19.57"/>
            <path class="b297f250-4a0f-4a1e-9d21-98b03a744ebd" d="M1582.61,900c0-10.81,7.79-19.57,17.39-19.57"/>
            <path class="b297f250-4a0f-4a1e-9d21-98b03a744ebd" d="M1513,900c0-10.81,7.79-19.57,17.39-19.57s17.4-8.75,17.4-19.56,7.78-19.57,17.39-19.57,17.39,8.76,17.39,19.57-7.79,19.56-17.39,19.56-17.39,8.76-17.39,19.57"/>
            <path class="b297f250-4a0f-4a1e-9d21-98b03a744ebd" d="M1443.48,900c0-10.81,7.78-19.57,17.39-19.57s17.39,8.76,17.39,19.57"/>
          </g>
        </g>
        <ellipse class="b297f250-4a0f-4a1e-9d21-98b03a744ebd" cx="1147.83" cy="313.04" rx="17.39" ry="19.57"/>
        <ellipse class="b297f250-4a0f-4a1e-9d21-98b03a744ebd" cx="1182.61" cy="430.43" rx="17.39" ry="19.57"/>
        <path class="b297f250-4a0f-4a1e-9d21-98b03a744ebd" d="M1234.78,430.43c0-10.8,7.79-19.56,17.39-19.56s17.4-8.76,17.4-19.57-7.79-19.56-17.4-19.56-17.39,8.76-17.39,19.56-7.78,19.57-17.39,19.57S1200,402.11,1200,391.3s7.79-19.56,17.39-19.56,17.39-8.76,17.39-19.57,7.79-19.56,17.39-19.56,17.4-8.76,17.4-19.57,7.78-19.56,17.39-19.56,17.39,8.76,17.39,19.56-7.79,19.57-17.39,19.57-17.39,8.76-17.39,19.56,7.78,19.57,17.39,19.57,17.39-8.76,17.39-19.57,7.78-19.56,17.39-19.56,17.39,8.76,17.39,19.56-7.79,19.57-17.39,19.57-17.39,8.76-17.39,19.56-7.79,19.57-17.39,19.57-17.39,8.76-17.39,19.56-7.79,19.57-17.4,19.57-17.39-8.76-17.39-19.57"/>
        <ellipse class="b297f250-4a0f-4a1e-9d21-98b03a744ebd" cx="1182.61" cy="586.96" rx="17.39" ry="19.57"/>
        <path class="b297f250-4a0f-4a1e-9d21-98b03a744ebd" d="M1113,567.39c9.61,0,17.39-8.76,17.39-19.56s7.79-19.57,17.4-19.57,17.39-8.76,17.39-19.56-7.79-19.57-17.39-19.57-17.4,8.76-17.4,19.57-7.78,19.56-17.39,19.56-17.39,8.76-17.39,19.57,7.79,19.56,17.39,19.56Z"/>
        <path class="b297f250-4a0f-4a1e-9d21-98b03a744ebd" d="M1113,371.74c9.61,0,17.39-8.76,17.39-19.57s-7.78-19.56-17.39-19.56h0c-9.6,0-17.39,8.76-17.39,19.56s-7.78,19.57-17.39,19.57-17.39,8.76-17.39,19.56,7.79,19.57,17.39,19.57,17.39-8.76,17.39-19.57S1103.44,371.74,1113,371.74Z"/>
        <path class="b297f250-4a0f-4a1e-9d21-98b03a744ebd" d="M1130.43,273.91c0,10.81-7.78,19.57-17.39,19.57s-17.39,8.76-17.39,19.56-7.78,19.57-17.39,19.57-17.39,8.76-17.39,19.56-7.79,19.57-17.39,19.57-17.39,8.76-17.39,19.56,7.78,19.57,17.39,19.57,17.39,8.76,17.39,19.56,7.79,19.57,17.39,19.57,17.39-8.76,17.39-19.57,7.79-19.56,17.39-19.56,17.39-8.76,17.39-19.57,7.79-19.56,17.4-19.56,17.39-8.76,17.39-19.57,7.78-19.56,17.39-19.56,17.39,8.76,17.39,19.56-7.79,19.57-17.39,19.57-17.39,8.76-17.39,19.56-7.79,19.57-17.39,19.57-17.4,8.76-17.4,19.56S1122.65,450,1113,450s-17.39,8.76-17.39,19.57-7.78,19.56-17.39,19.56-17.39,8.76-17.39,19.57-7.79,19.56-17.39,19.56-17.39,8.76-17.39,19.57,7.78,19.56,17.39,19.56,17.39-8.76,17.39-19.56,7.79-19.57,17.39-19.57,17.39-8.76,17.39-19.56,7.79-19.57,17.39-19.57,17.39-8.76,17.39-19.56,7.79-19.57,17.4-19.57,17.39,8.76,17.39,19.57,7.78,19.56,17.39,19.56S1200,497.89,1200,508.7s-7.79,19.56-17.39,19.56-17.39,8.76-17.39,19.57-7.79,19.56-17.39,19.56-17.4,8.76-17.4,19.57-7.78,19.56-17.39,19.56-17.39,8.76-17.39,19.57"/>
        <path class="b297f250-4a0f-4a1e-9d21-98b03a744ebd" d="M1600,450c-9.6,0-17.39-8.76-17.39-19.57s7.79-19.56,17.39-19.56"/>
        <path class="b297f250-4a0f-4a1e-9d21-98b03a744ebd" d="M1547.83,430.43c0,10.81-7.79,19.57-17.4,19.57S1513,458.76,1513,469.57s7.79,19.56,17.39,19.56,17.4-8.76,17.4-19.56,7.78-19.57,17.39-19.57,17.39,8.76,17.39,19.57-7.79,19.56-17.39,19.56-17.39,8.76-17.39,19.57-7.79,19.56-17.4,19.56S1513,537,1513,547.83s-7.78,19.56-17.39,19.56-17.39-8.76-17.39-19.56,7.79-19.57,17.39-19.57S1513,519.5,1513,508.7s-7.78-19.57-17.39-19.57-17.39,8.76-17.39,19.57-7.79,19.56-17.39,19.56-17.39-8.76-17.39-19.56,7.78-19.57,17.39-19.57,17.39-8.76,17.39-19.56,7.79-19.57,17.39-19.57,17.39-8.76,17.39-19.57,7.79-19.56,17.39-19.56,17.4,8.76,17.4,19.56"/>
        <path class="b297f250-4a0f-4a1e-9d21-98b03a744ebd" d="M1600,606.52c-9.6,0-17.39-8.76-17.39-19.56s7.79-19.57,17.39-19.57"/>
        <path class="b297f250-4a0f-4a1e-9d21-98b03a744ebd" d="M1600,684.78c-9.6,0-17.39-8.76-17.39-19.56s7.79-19.57,17.39-19.57"/>
        <path class="b297f250-4a0f-4a1e-9d21-98b03a744ebd" d="M1600,528.26c-9.6,0-17.39-8.76-17.39-19.56s7.79-19.57,17.39-19.57"/>
        <path class="b297f250-4a0f-4a1e-9d21-98b03a744ebd" d="M1234.78,900c0-10.81,7.79-19.57,17.39-19.57s17.4-8.75,17.4-19.56,7.78-19.57,17.39-19.57,17.39-8.76,17.39-19.56-7.79-19.57-17.39-19.57-17.39,8.76-17.39,19.57-7.79,19.56-17.4,19.56-17.39,8.76-17.39,19.57-7.78,19.56-17.39,19.56S1200,871.68,1200,860.87s7.79-19.57,17.39-19.57,17.39-8.76,17.39-19.56-7.78-19.57-17.39-19.57S1200,793.41,1200,782.61s7.79-19.57,17.39-19.57,17.39,8.76,17.39,19.57,7.79,19.56,17.39,19.56,17.4-8.76,17.4-19.56S1277.35,763,1287,763s17.39-8.76,17.39-19.56,7.78-19.57,17.39-19.57,17.39,8.76,17.39,19.57S1331.34,763,1321.74,763s-17.39,8.76-17.39,19.57,7.78,19.56,17.39,19.56,17.39-8.76,17.39-19.56,7.79-19.57,17.39-19.57,17.39-8.76,17.39-19.56,7.79-19.57,17.39-19.57,17.4-8.76,17.4-19.56,7.78-19.57,17.39-19.57,17.39-8.76,17.39-19.56-7.79-19.57-17.39-19.57-17.39,8.76-17.39,19.57-7.79,19.56-17.4,19.56-17.39,8.76-17.39,19.57-7.78,19.56-17.39,19.56-17.39-8.76-17.39-19.56,7.79-19.57,17.39-19.57,17.39-8.76,17.39-19.56,7.79-19.57,17.39-19.57,17.4-8.76,17.4-19.56-7.79-19.57-17.4-19.57-17.39,8.76-17.39,19.57-7.78,19.56-17.39,19.56-17.39-8.76-17.39-19.56,7.79-19.57,17.39-19.57,17.39-8.76,17.39-19.56-7.78-19.57-17.39-19.57-17.39,8.76-17.39,19.57-7.79,19.56-17.39,19.56-17.39-8.76-17.39-19.56,7.78-19.57,17.39-19.57,17.39-8.76,17.39-19.56-7.79-19.57-17.39-19.57-17.39,8.76-17.39,19.57-7.79,19.56-17.39,19.56-17.39,8.76-17.39,19.57-7.79,19.56-17.4,19.56-17.39,8.76-17.39,19.57-7.78,19.56-17.39,19.56S1200,636.89,1200,626.09s7.79-19.57,17.39-19.57,17.39-8.76,17.39-19.56,7.79-19.57,17.39-19.57,17.4-8.76,17.4-19.56,7.78-19.57,17.39-19.57,17.39-8.76,17.39-19.56-7.79-19.57-17.39-19.57-17.39,8.76-17.39,19.57-7.79,19.56-17.4,19.56-17.39,8.76-17.39,19.57-7.78,19.56-17.39,19.56S1200,558.63,1200,547.83s7.79-19.57,17.39-19.57,17.39-8.76,17.39-19.56-7.78-19.57-17.39-19.57S1200,480.37,1200,469.57s7.79-19.57,17.39-19.57,17.39,8.76,17.39,19.57,7.79,19.56,17.39,19.56,17.4-8.76,17.4-19.56S1277.35,450,1287,450s17.39-8.76,17.39-19.57,7.78-19.56,17.39-19.56,17.39,8.76,17.39,19.56S1331.34,450,1321.74,450s-17.39,8.76-17.39,19.57,7.78,19.56,17.39,19.56,17.39-8.76,17.39-19.56,7.79-19.57,17.39-19.57,17.39-8.76,17.39-19.57,7.79-19.56,17.39-19.56,17.4-8.76,17.4-19.57,7.78-19.56,17.39-19.56,17.39-8.76,17.39-19.57-7.79-19.56-17.39-19.56-17.39,8.76-17.39,19.56-7.79,19.57-17.4,19.57-17.39,8.76-17.39,19.56-7.78,19.57-17.39,19.57-17.39-8.76-17.39-19.57,7.79-19.56,17.39-19.56,17.39-8.76,17.39-19.57,7.79-19.56,17.39-19.56,17.4-8.76,17.4-19.57-7.79-19.56-17.4-19.56-17.39,8.76-17.39,19.56-7.78,19.57-17.39,19.57-17.39-8.76-17.39-19.57,7.79-19.56,17.39-19.56,17.39-8.76,17.39-19.57-7.78-19.56-17.39-19.56-17.39-8.76-17.39-19.57-7.79-19.56-17.39-19.56-17.39,8.76-17.39,19.56,7.78,19.57,17.39,19.57,17.39,8.76,17.39,19.56-7.79,19.57-17.39,19.57-17.39-8.76-17.39-19.57-7.79-19.56-17.39-19.56-17.39-8.76-17.39-19.57-7.79-19.56-17.4-19.56-17.39-8.76-17.39-19.57,7.79-19.56,17.39-19.56,17.4-8.76,17.4-19.57S1277.35,137,1287,137s17.39-8.76,17.39-19.57,7.78-19.56,17.39-19.56,17.39-8.76,17.39-19.57-7.79-19.56-17.39-19.56-17.39,8.76-17.39,19.56-7.79,19.57-17.39,19.57-17.39-8.76-17.39-19.57-7.79-19.56-17.4-19.56-17.39,8.76-17.39,19.56,7.79,19.57,17.39,19.57,17.4,8.76,17.4,19.56-7.79,19.57-17.4,19.57-17.39-8.76-17.39-19.57-7.78-19.56-17.39-19.56S1200,106.59,1200,117.39s7.79,19.57,17.39,19.57,17.39,8.76,17.39,19.56-7.78,19.57-17.39,19.57S1200,184.85,1200,195.65s7.79,19.57,17.39,19.57,17.39,8.76,17.39,19.56,7.79,19.57,17.39,19.57,17.4,8.76,17.4,19.56-7.79,19.57-17.4,19.57-17.39,8.76-17.39,19.56-7.78,19.57-17.39,19.57S1200,323.85,1200,313s7.79-19.56,17.39-19.56,17.39-8.76,17.39-19.57-7.78-19.56-17.39-19.56S1200,263.11,1200,273.91s-7.79,19.57-17.39,19.57-17.39-8.76-17.39-19.57,7.78-19.56,17.39-19.56,17.39-8.76,17.39-19.57-7.79-19.56-17.39-19.56-17.39,8.76-17.39,19.56-7.79,19.57-17.39,19.57-17.4-8.76-17.4-19.57,7.79-19.56,17.4-19.56,17.39-8.76,17.39-19.57,7.78-19.56,17.39-19.56,17.39-8.76,17.39-19.57S1192.21,137,1182.61,137s-17.39,8.76-17.39,19.56-7.79,19.57-17.39,19.57-17.4-8.76-17.4-19.57S1122.65,137,1113,137s-17.39,8.76-17.39,19.56-7.78,19.57-17.39,19.57-17.39,8.76-17.39,19.56-7.79,19.57-17.39,19.57-17.39,8.76-17.39,19.56,7.78,19.57,17.39,19.57,17.39-8.76,17.39-19.57,7.79-19.56,17.39-19.56,17.39-8.76,17.39-19.57,7.79-19.56,17.39-19.56,17.39,8.76,17.39,19.56-7.78,19.57-17.39,19.57-17.39,8.76-17.39,19.56,7.79,19.57,17.39,19.57,17.39,8.76,17.39,19.56"/>
        <path class="b297f250-4a0f-4a1e-9d21-98b03a744ebd" d="M1391.3,137c-9.6,0-17.39-8.76-17.39-19.57s-7.78-19.56-17.39-19.56-17.39,8.76-17.39,19.56,7.79,19.57,17.39,19.57,17.39,8.76,17.39,19.56-7.78,19.57-17.39,19.57-17.39,8.76-17.39,19.56,7.79,19.57,17.39,19.57,17.39,8.76,17.39,19.56,7.79,19.57,17.39,19.57"/>
        <path class="b297f250-4a0f-4a1e-9d21-98b03a744ebd" d="M1322,176.25c9.61,0,17.11-8.92,17.11-19.73S1331.34,137,1321.74,137s-17.39,8.76-17.39,19.56-7.79,19.57-17.39,19.57-17.39,8.76-17.39,19.56,7.78,19.57,17.39,19.57,17.39-8.76,17.39-19.57S1312.42,176.25,1322,176.25Z"/>
        <path class="b297f250-4a0f-4a1e-9d21-98b03a744ebd" d="M1269.57,0c0,10.81,7.78,19.57,17.39,19.57s17.39-8.76,17.39-19.57"/>
        <path class="b297f250-4a0f-4a1e-9d21-98b03a744ebd" d="M1391.3,58.7c-9.6,0-17.39-8.76-17.39-19.57s7.79-19.56,17.39-19.56h-.56c10.17.31,18,8.75,18,19.56S1400.91,58.7,1391.3,58.7Z"/>
        <path class="b297f250-4a0f-4a1e-9d21-98b03a744ebd" d="M1460.87,58.7c-9.61,0-17.39,8.76-17.39,19.56s7.78,19.57,17.39,19.57,17.39-8.76,17.39-19.57,7.79-19.56,17.39-19.56S1513,49.94,1513,39.13s-7.78-19.56-17.39-19.56-17.39,8.75-17.39,19.56S1471,59,1460.87,58.7Z"/>
        <ellipse class="b297f250-4a0f-4a1e-9d21-98b03a744ebd" cx="1495.65" cy="234.78" rx="17.39" ry="19.57"/>
        <ellipse class="b297f250-4a0f-4a1e-9d21-98b03a744ebd" cx="1426.09" cy="273.91" rx="17.39" ry="19.57"/>
        <path class="b297f250-4a0f-4a1e-9d21-98b03a744ebd" d="M1391.3,176.09c9.61,0,17.4,8.76,17.4,19.56s-7.51,19.73-17.11,19.73c-10.17-.32-17.68-8.92-17.68-19.73s7.79-19.56,17.39-19.56"/>
        <path class="b297f250-4a0f-4a1e-9d21-98b03a744ebd" d="M1391.3,254.35c9.61,0,17.4-8.76,17.4-19.57s7.78-19.56,17.39-19.56,17.39,8.76,17.39,19.56,7.78,19.57,17.39,19.57,17.39,8.76,17.39,19.56-7.79,19.57-17.39,19.57-17.39,8.76-17.39,19.56,7.78,19.57,17.39,19.57,17.39-8.76,17.39-19.57,7.79-19.56,17.39-19.56,17.39-8.76,17.39-19.57,7.79-19.56,17.39-19.56,17.4-8.76,17.4-19.57,7.78-19.56,17.39-19.56,17.39-8.76,17.39-19.57-7.79-19.56-17.39-19.56-17.39,8.76-17.39,19.56-7.79,19.57-17.4,19.57S1513,206.46,1513,195.65s-7.78-19.56-17.39-19.56-17.39,8.76-17.39,19.56-7.79,19.57-17.39,19.57-17.39-8.76-17.39-19.57-7.79-19.56-17.39-19.56-17.39-8.76-17.39-19.57S1400.91,137,1391.3,137"/>
        <path class="b297f250-4a0f-4a1e-9d21-98b03a744ebd" d="M1600,293.48c-9.6,0-17.39-8.76-17.39-19.57s-7.79-19.56-17.39-19.56-17.39,8.76-17.39,19.56-7.79,19.57-17.4,19.57S1513,302.24,1513,313s-7.78,19.57-17.39,19.57-17.39,8.76-17.39,19.56,7.79,19.57,17.39,19.57S1513,363,1513,352.17s7.79-19.56,17.39-19.56,17.4-8.76,17.4-19.57,7.78-19.56,17.39-19.56,17.39,8.76,17.39,19.56-7.79,19.57-17.39,19.57-17.39,8.76-17.39,19.56,7.78,19.57,17.39,19.57,17.39,8.76,17.39,19.56-7.79,19.57-17.39,19.57-17.39-8.76-17.39-19.57-7.79-19.56-17.4-19.56S1513,380.5,1513,391.3s-7.78,19.57-17.39,19.57-17.39,8.76-17.39,19.56S1470.47,450,1460.87,450s-17.39-8.76-17.39-19.57,7.78-19.56,17.39-19.56,17.39-8.76,17.39-19.57-7.79-19.56-17.39-19.56-17.39,8.76-17.39,19.56-7.79,19.57-17.39,19.57-17.39,8.76-17.39,19.56S1400.91,450,1391.3,450s-17.39,8.76-17.39,19.57-7.78,19.56-17.39,19.56-17.39,8.76-17.39,19.57,7.79,19.56,17.39,19.56,17.39-8.76,17.39-19.56,7.79-19.57,17.39-19.57,17.4-8.76,17.4-19.56,7.78-19.57,17.39-19.57,17.39,8.76,17.39,19.57-7.79,19.56-17.39,19.56-17.39,8.76-17.39,19.57-7.79,19.56-17.4,19.56-17.39,8.76-17.39,19.57,7.79,19.56,17.39,19.56,17.4-8.76,17.4-19.56,7.78-19.57,17.39-19.57,17.39,8.76,17.39,19.57-7.79,19.56-17.39,19.56-17.39,8.76-17.39,19.57,7.78,19.56,17.39,19.56,17.39-8.76,17.39-19.56,7.78-19.57,17.39-19.57,17.39,8.76,17.39,19.57-7.79,19.56-17.39,19.56-17.39,8.76-17.39,19.57,7.78,19.56,17.39,19.56,17.39-8.76,17.39-19.56,7.79-19.57,17.39-19.57S1513,597.76,1513,587s7.79-19.57,17.39-19.57,17.4-8.76,17.4-19.56,7.78-19.57,17.39-19.57,17.39,8.76,17.39,19.57-7.79,19.56-17.39,19.56-17.39,8.76-17.39,19.57-7.79,19.56-17.4,19.56S1513,615.28,1513,626.09s-7.78,19.56-17.39,19.56-17.39,8.76-17.39,19.57,7.79,19.56,17.39,19.56S1513,676,1513,665.22s7.79-19.57,17.39-19.57,17.4-8.76,17.4-19.56,7.78-19.57,17.39-19.57,17.39,8.76,17.39,19.57-7.79,19.56-17.39,19.56-17.39,8.76-17.39,19.57,7.78,19.56,17.39,19.56,17.39,8.76,17.39,19.57-7.79,19.56-17.39,19.56-17.39-8.76-17.39-19.56-7.79-19.57-17.4-19.57S1513,693.54,1513,704.35s-7.78,19.56-17.39,19.56-17.39,8.76-17.39,19.57S1470.47,763,1460.87,763s-17.39-8.76-17.39-19.56,7.78-19.57,17.39-19.57,17.39-8.76,17.39-19.56-7.79-19.57-17.39-19.57-17.39,8.76-17.39,19.57-7.79,19.56-17.39,19.56-17.39,8.76-17.39,19.57S1400.91,763,1391.3,763s-17.39,8.76-17.39,19.57-7.78,19.56-17.39,19.56-17.39,8.76-17.39,19.57,7.79,19.56,17.39,19.56,17.39-8.76,17.39-19.56,7.79-19.57,17.39-19.57,17.4-8.76,17.4-19.56,7.78-19.57,17.39-19.57,17.39,8.76,17.39,19.57-7.79,19.56-17.39,19.56-17.39,8.76-17.39,19.57-7.79,19.56-17.4,19.56-17.39,8.76-17.39,19.57,7.79,19.56,17.39,19.56,17.4-8.75,17.4-19.56,7.78-19.57,17.39-19.57,17.39,8.76,17.39,19.57-7.79,19.56-17.39,19.56-17.39,8.76-17.39,19.57"/>
        <path class="b297f250-4a0f-4a1e-9d21-98b03a744ebd" d="M1600,176.09c-9.6,0-17.39-8.76-17.39-19.57S1590.4,137,1600,137"/>
        <path class="b297f250-4a0f-4a1e-9d21-98b03a744ebd" d="M1600,254.35c-9.6,0-17.39-8.76-17.39-19.57s7.79-19.56,17.39-19.56"/>
        <path class="b297f250-4a0f-4a1e-9d21-98b03a744ebd" d="M1600,371.74c-9.6,0-17.39-8.76-17.39-19.57s7.79-19.56,17.39-19.56"/>
        <g>
          <g>
            <path class="b297f250-4a0f-4a1e-9d21-98b03a744ebd" d="M1165.22,0c0,10.81-7.79,19.57-17.39,19.57s-17.4,8.75-17.4,19.56S1122.65,58.7,1113,58.7s-17.39,8.76-17.39,19.56-7.78,19.57-17.39,19.57-17.39-8.76-17.39-19.57,7.79-19.56,17.39-19.56,17.39-8.76,17.39-19.57,7.79-19.56,17.39-19.56,17.39-8.76,17.39-19.57"/>
            <path class="b297f250-4a0f-4a1e-9d21-98b03a744ebd" d="M1200,0c0,10.81-7.79,19.57-17.39,19.57s-17.39,8.75-17.39,19.56S1173,58.7,1182.61,58.7,1200,67.46,1200,78.26s-7.79,19.57-17.39,19.57-17.39-8.76-17.39-19.57-7.79-19.56-17.39-19.56-17.4,8.76-17.4,19.56,7.79,19.57,17.4,19.57,17.39,8.76,17.39,19.56S1157.43,137,1147.83,137s-17.4-8.76-17.4-19.57-7.78-19.56-17.39-19.56-17.39,8.76-17.39,19.56S1087.87,137,1078.26,137s-17.39-8.76-17.39-19.57-7.79-19.56-17.39-19.56-17.39-8.76-17.39-19.57,7.78-19.56,17.39-19.56,17.39-8.76,17.39-19.57,7.79-19.56,17.39-19.56,17.39-8.76,17.39-19.57"/>
            <path class="b297f250-4a0f-4a1e-9d21-98b03a744ebd" d="M1373.91,0c0,10.81-7.78,19.57-17.39,19.57S1339.13,10.81,1339.13,0"/>
            <path class="b297f250-4a0f-4a1e-9d21-98b03a744ebd" d="M1234.78,0c0,10.81-7.78,19.57-17.39,19.57S1200,28.32,1200,39.13s7.79,19.57,17.39,19.57,17.39-8.76,17.39-19.57,7.79-19.56,17.39-19.56,17.4,8.75,17.4,19.56S1277.35,58.7,1287,58.7s17.39-8.76,17.39-19.57,7.78-19.56,17.39-19.56,17.39,8.75,17.39,19.56,7.79,19.57,17.39,19.57,17.39,8.76,17.39,19.56,7.79,19.57,17.39,19.57,17.4,8.76,17.4,19.56,7.78,19.57,17.39,19.57,17.39-8.76,17.39-19.57-7.79-19.56-17.39-19.56-17.39-8.76-17.39-19.57,7.78-19.56,17.39-19.56,17.39-8.76,17.39-19.57-7.79-19.56-17.39-19.56S1408.7,10.81,1408.7,0"/>
          </g>
          <g>
            <path class="b297f250-4a0f-4a1e-9d21-98b03a744ebd" d="M1443.48,0c0,10.81,7.78,19.57,17.39,19.57s17.39-8.76,17.39-19.57"/>
            <path class="b297f250-4a0f-4a1e-9d21-98b03a744ebd" d="M1513,0c0,10.81,7.79,19.57,17.39,19.57s17.4,8.75,17.4,19.56S1540,58.7,1530.43,58.7,1513,67.46,1513,78.26s-7.78,19.57-17.39,19.57-17.39,8.76-17.39,19.56S1470.47,137,1460.87,137s-17.39,8.76-17.39,19.56,7.78,19.57,17.39,19.57,17.39-8.76,17.39-19.57,7.79-19.56,17.39-19.56,17.39,8.76,17.39,19.56,7.79,19.57,17.39,19.57,17.4-8.76,17.4-19.57S1540,137,1530.43,137,1513,128.2,1513,117.39s7.79-19.56,17.39-19.56,17.4,8.76,17.4,19.56,7.78,19.57,17.39,19.57,17.39-8.76,17.39-19.57-7.79-19.56-17.39-19.56-17.39-8.76-17.39-19.57,7.78-19.56,17.39-19.56,17.39-8.76,17.39-19.57-7.79-19.56-17.39-19.56S1547.83,10.81,1547.83,0"/>
          </g>
          <g>
            <path class="b297f250-4a0f-4a1e-9d21-98b03a744ebd" d="M1600,58.7c-9.6,0-17.39,8.76-17.39,19.56s7.79,19.57,17.39,19.57"/>
            <path class="b297f250-4a0f-4a1e-9d21-98b03a744ebd" d="M1582.61,0c0,10.81,7.79,19.57,17.39,19.57"/>
          </g>
        </g>
      </g>
    </g>
  </g>
</svg>
