<?xml version="1.0" encoding="utf-8"?>
<!-- Generator: Adobe Illustrator 25.2.3, SVG Export Plug-In . SVG Version: 6.00 Build 0)  -->
<svg version="1.1" id="Layer_1" xmlns="http://www.w3.org/2000/svg" xmlns:xlink="http://www.w3.org/1999/xlink" x="0px" y="0px"
	 viewBox="0 0 1600 900" style="enable-background:new 0 0 1600 900;" xml:space="preserve">
<style type="text/css">
	.st0{clip-path:url(#SVGID_2_);}
	.st1{fill:url(#SVGID_3_);}
	.st2{fill:url(#SVGID_4_);}
	.st3{fill:url(#SVGID_5_);}
	.st4{fill:url(#SVGID_6_);}
	.st5{fill:url(#SVGID_7_);}
	.st6{fill:url(#SVGID_8_);}
	.st7{fill:url(#SVGID_9_);}
	.st8{fill:url(#SVGID_10_);}
	.st9{fill:url(#SVGID_11_);}
	.st10{fill:#68BC45;}
	.st11{fill:url(#SVGID_12_);}
	.st12{fill:url(#SVGID_13_);}
	.st13{fill:url(#SVGID_14_);}
	.st14{fill:url(#SVGID_15_);}
	.st15{fill:url(#SVGID_16_);}
	.st16{fill:url(#SVGID_17_);}
	.st17{fill:#995145;}
	.st18{fill:#633D35;}
	.st19{fill:url(#SVGID_18_);}
	.st20{fill:#6ABC46;}
	.st21{fill:url(#SVGID_19_);}
	.st22{fill:url(#SVGID_20_);}
	.st23{fill:url(#SVGID_21_);}
	.st24{fill:url(#SVGID_22_);}
	.st25{fill:url(#SVGID_23_);}
	.st26{fill:url(#SVGID_24_);}
	.st27{fill:url(#SVGID_25_);}
	.st28{fill:#42C68D;}
	.st29{fill:url(#SVGID_26_);}
	.st30{fill:url(#SVGID_27_);}
	.st31{fill:url(#SVGID_28_);}
	.st32{fill:url(#SVGID_29_);}
	.st33{fill:url(#SVGID_30_);}
	.st34{fill:url(#SVGID_31_);}
	.st35{fill:url(#SVGID_32_);}
	.st36{fill:url(#SVGID_33_);}
	.st37{fill:#874A41;}
	.st38{fill:url(#SVGID_34_);}
	.st39{fill:url(#SVGID_35_);}
	.st40{fill:url(#SVGID_36_);}
	.st41{fill:url(#SVGID_37_);}
	.st42{fill:url(#SVGID_38_);}
	.st43{fill:#3FB72C;}
	.st44{fill:#51B840;}
</style>
<g>
	<defs>
		<rect id="SVGID_1_" width="1600" height="900"/>
	</defs>
	<clipPath id="SVGID_2_">
		<use xlink:href="#SVGID_1_"  style="overflow:visible;"/>
	</clipPath>
	<g class="st0">
		
			<linearGradient id="SVGID_3_" gradientUnits="userSpaceOnUse" x1="829.96" y1="-121.22" x2="798.4999" y2="1779.7201" gradientTransform="matrix(1 0 0 -1 0 900)">
			<stop  offset="9.000000e-02" style="stop-color:#CBE9F6"/>
			<stop  offset="0.24" style="stop-color:#CFE8F3"/>
			<stop  offset="0.36" style="stop-color:#9CD6E9"/>
			<stop  offset="0.46" style="stop-color:#7ACAE2"/>
			<stop  offset="0.51" style="stop-color:#6DC5E0"/>
		</linearGradient>
		<rect x="-17.5" y="-2.6" class="st1" width="1675.9" height="898.4"/>
		
			<linearGradient id="SVGID_4_" gradientUnits="userSpaceOnUse" x1="1061.338" y1="757.1158" x2="1183.9181" y2="990.5658" gradientTransform="matrix(1 0 0 -1 0 900)">
			<stop  offset="7.000000e-02" style="stop-color:#81CCD8"/>
			<stop  offset="0.24" style="stop-color:#99D6E0"/>
			<stop  offset="0.54" style="stop-color:#CEEDF1"/>
		</linearGradient>
		<path class="st2" d="M988,79.7c116-56.6,335.6,24.7,139.7,38.9c0,0-28,3.2-93.4,0S944.2,96.9,988,79.7z"/>
		
			<linearGradient id="SVGID_5_" gradientUnits="userSpaceOnUse" x1="703.8626" y1="727.1986" x2="789.5927" y2="890.4586" gradientTransform="matrix(1 0 0 -1 0 900)">
			<stop  offset="0.15" style="stop-color:#95D1DA"/>
			<stop  offset="0.27" style="stop-color:#B1DFE6"/>
			<stop  offset="0.39" style="stop-color:#C4E9EF"/>
			<stop  offset="0.47" style="stop-color:#CBEDF2"/>
		</linearGradient>
		<path class="st3" d="M678.7,131.1c0,0,28.3-4.7,71.2-10.4s79.7,36.9-3.4,38.8C629.9,166.2,612.1,146,678.7,131.1z"/>
		
			<linearGradient id="SVGID_6_" gradientUnits="userSpaceOnUse" x1="467.97" y1="750.35" x2="558.45" y2="922.66" gradientTransform="matrix(1 0 0 -1 0 900)">
			<stop  offset="1.000000e-02" style="stop-color:#8AD4EC"/>
			<stop  offset="0.59" style="stop-color:#C3E9F5"/>
			<stop  offset="0.76" style="stop-color:#D4EFF8"/>
		</linearGradient>
		<path class="st4" d="M400.1,92.7c27.7-12.1,57.7-18,87.9-17.2c54.6,1.5,107.6,25.2,103.6,38.3c-3,10-40,16.4-61.3,16.4
			C451.7,129.9,339.1,139.9,400.1,92.7z"/>
		
			<linearGradient id="SVGID_7_" gradientUnits="userSpaceOnUse" x1="37.3774" y1="8.0412" x2="1673.5676" y2="655.9712" gradientTransform="matrix(1 0 0 -1 0 900)">
			<stop  offset="9.000000e-02" style="stop-color:#6EC0D3"/>
			<stop  offset="0.45" style="stop-color:#6CC0D3"/>
			<stop  offset="0.62" style="stop-color:#6DC1D5"/>
			<stop  offset="0.69" style="stop-color:#72C5DC"/>
			<stop  offset="0.72" style="stop-color:#78C9E3"/>
		</linearGradient>
		<path class="st5" d="M-521.6,433.2c147.7-32.2,247.6-49.6,454.2-4.3C51.5,459.7,59,490.6,116.9,480.4
			c57.3-10.2,70.7-44.1,182-115.1c58.1-37.1,108.6-62.4,131.5-73c329.8-130.4,645.5-20.8,847.4,294.5
			c64.2-40.4,348.5-170.4,445.5-108.9c14.9,31.7-78.7,86.7-64.3,118.8c18,40.4,187.1-2,243.9-11.7
			c149.2-25.4,263.1-82.3,334.4-125.2c273.3-164,14.8-8.6,14.8-8.6c2.1,80.5,4.1,161,6.1,241.6l-2699.2-2.9
			C-467.9,604.3-494.7,518.7-521.6,433.2z"/>
		
			<linearGradient id="SVGID_8_" gradientUnits="userSpaceOnUse" x1="800.5309" y1="1102.9711" x2="2075.6011" y2="81.0311" gradientTransform="matrix(1 0 0 -1 0 900)">
			<stop  offset="0.49" style="stop-color:#93D4EB"/>
			<stop  offset="0.57" style="stop-color:#8DD1E8"/>
			<stop  offset="0.67" style="stop-color:#7DC9DF"/>
			<stop  offset="0.74" style="stop-color:#6EC2D6"/>
			<stop  offset="0.88" style="stop-color:#6FC2D7"/>
		</linearGradient>
		<path class="st6" d="M987,663.4c133.5-94,327.7-115.4,451.7-141.1c168.6-50.1,167-148.6,343.3-246.9c81-45.2,206-93.9,389.8-96.3
			c-1.6,159.3-3.2,318.7-4.9,478L987,663.4z"/>
		
			<linearGradient id="SVGID_9_" gradientUnits="userSpaceOnUse" x1="421.0456" y1="1154.9595" x2="381.7457" y2="-87.3105" gradientTransform="matrix(1 0 0 -1 0 900)">
			<stop  offset="9.000000e-02" style="stop-color:#60C6CA"/>
			<stop  offset="0.24" style="stop-color:#59BFC1"/>
			<stop  offset="0.55" style="stop-color:#57BFBF"/>
			<stop  offset="0.64" style="stop-color:#5FC3C6"/>
			<stop  offset="0.7" style="stop-color:#67C7CC"/>
		</linearGradient>
		<path class="st7" d="M-432.1,649.6c0,0,677-480.3,1649-46.3v46.3H-432.1z"/>
		
			<linearGradient id="SVGID_10_" gradientUnits="userSpaceOnUse" x1="-126.0206" y1="-68.7445" x2="1057.2294" y2="697.3955" gradientTransform="matrix(1 0 0 -1 0 900)">
			<stop  offset="9.000000e-02" style="stop-color:#249971"/>
			<stop  offset="0.29" style="stop-color:#21A57D"/>
			<stop  offset="0.45" style="stop-color:#1DB28A"/>
			<stop  offset="0.64" style="stop-color:#1FB38C"/>
			<stop  offset="0.71" style="stop-color:#26B692"/>
			<stop  offset="0.73" style="stop-color:#29B895"/>
		</linearGradient>
		<path class="st8" d="M-526,554.8c0,0,511.5-150.4,804.8-14.6c345.1,224.5,465.1-110.4,1101.3,126.3L-526,663.4V554.8z"/>
		
			<linearGradient id="SVGID_11_" gradientUnits="userSpaceOnUse" x1="1256.2286" y1="263.11" x2="1265.9386" y2="444.1101" gradientTransform="matrix(1 0 0 -1 0 900)">
			<stop  offset="2.000000e-02" style="stop-color:#A78B40"/>
			<stop  offset="0.11" style="stop-color:#A18A41"/>
			<stop  offset="0.22" style="stop-color:#918644"/>
			<stop  offset="0.35" style="stop-color:#767F4A"/>
			<stop  offset="0.49" style="stop-color:#507652"/>
			<stop  offset="0.64" style="stop-color:#216B5B"/>
			<stop  offset="0.78" style="stop-color:#19675C"/>
			<stop  offset="0.97" style="stop-color:#14645C"/>
		</linearGradient>
		<path class="st9" d="M1313.3,501.4c-4.6,7.1-19.2,11.9-26.4,7c-0.9-0.8-2.3-1-3.4-0.4c-10.7,2.7-10.3,10.8-10.3,10.8
			c10.3,70.8,3.3,113.2,3.3,113.2h-32.3c-4.2-22.3,0.5-70.3,1.9-84.2c0.4-3.6-1.2-20.2-1.2-20.2s-2.5-10.7-4.4-13.5
			c-2.2-2.9-4.8-5.4-7.7-7.5c-26.9-1-17.4-3.6-17.4-3.6c1.4,0.9,16.7,0,18-0.7s-5.9-19.4-5.9-19.4h5.2c0.8,5.8,6.3,19.8,6.3,19.8
			c3.9,1.3,9.3-18.3,9.3-18.3h5.2c0,0-8.7,15.6-5,14.1s9.8-12.8,9.8-12.8h4c0,0-6.2,13-11.6,15.9s-2,4.8-2,4.8
			c16.1,6,16.2-20.7,16.2-20.7h2.8c-1.8,13.6,0.8,19.3,0.8,19.3c13.6,2,16.8-19.3,16.8-19.3l4.4-1.4c0.5,6-3.4,17.3-3.4,17.3
			s1.8,4.7,8.9,4.8c4.3,0.1,10.7-7.9,12.5-9.3L1313.3,501.4z"/>
		<path class="st10" d="M1314.1,467c0,0-8.1-15.4-38.2-13.4s-44.4,15.2,15.3,17.7C1291.2,471.3,1318.9,475.8,1314.1,467z"/>
		
			<linearGradient id="SVGID_12_" gradientUnits="userSpaceOnUse" x1="1252.6986" y1="419.4327" x2="1313.4287" y2="450.1328" gradientTransform="matrix(1 0 0 -1 0 900)">
			<stop  offset="0" style="stop-color:#2C6F40"/>
			<stop  offset="1" style="stop-color:#1B936C"/>
		</linearGradient>
		<path class="st11" d="M1314.1,467.5c0,0-8.2-15.4-38.7-13.4s-45,15.2,15.5,17.7C1290.9,471.8,1318.9,476.4,1314.1,467.5z"/>
		<path class="st10" d="M1208.1,481.8c0,0,14,2.9,56.3,4.5c40.5,1.5,41.4-5.2,41.4-5.2s8.8-15.3-27.7-19.9
			C1244.5,457,1182.6,468.9,1208.1,481.8z"/>
		
			<linearGradient id="SVGID_13_" gradientUnits="userSpaceOnUse" x1="1226.2815" y1="372.0792" x2="1275.2014" y2="458.9691" gradientTransform="matrix(1 0 0 -1 0 900)">
			<stop  offset="0" style="stop-color:#096946"/>
			<stop  offset="0.17" style="stop-color:#0E6D46"/>
			<stop  offset="0.38" style="stop-color:#1E7746"/>
			<stop  offset="0.61" style="stop-color:#388847"/>
			<stop  offset="0.86" style="stop-color:#5BA048"/>
			<stop  offset="1" style="stop-color:#73B048"/>
		</linearGradient>
		<path class="st12" d="M1208.1,482.6c0,0,14,3,56.3,4.6c40.5,1.5,41.4-5.2,41.4-5.2s8.8-15.5-27.7-20.1
			C1244.5,457.6,1182.6,469.6,1208.1,482.6z"/>
		<path class="st10" d="M1297.1,500.7c0,0,25.1,2.6,46.5,0s7.7-15.2,0-16.8c-8.1-1.6-27-2.3-49.3,9
			C1280,500.1,1297.1,500.7,1297.1,500.7z"/>
		
			<linearGradient id="SVGID_14_" gradientUnits="userSpaceOnUse" x1="1282.8623" y1="384.3255" x2="1347.4023" y2="416.4455" gradientTransform="matrix(1 0 0 -1 0 900)">
			<stop  offset="0" style="stop-color:#1F8969"/>
			<stop  offset="0.23" style="stop-color:#238B68"/>
			<stop  offset="0.43" style="stop-color:#2E9064"/>
			<stop  offset="0.63" style="stop-color:#40985D"/>
			<stop  offset="0.83" style="stop-color:#5AA453"/>
			<stop  offset="1" style="stop-color:#78B248"/>
		</linearGradient>
		<path class="st13" d="M1296.9,500.8c0,0,24.9,2.5,46,0s7.7-14.8,0-16.3c-8-1.6-26.7-2.2-48.9,8.7
			C1279.9,500.1,1296.9,500.8,1296.9,500.8z"/>
		
			<linearGradient id="SVGID_15_" gradientUnits="userSpaceOnUse" x1="1189.77" y1="396.2" x2="1220.05" y2="411.64" gradientTransform="matrix(1 0 0 -1 0 900)">
			<stop  offset="0" style="stop-color:#1F8969"/>
			<stop  offset="0.23" style="stop-color:#238B68"/>
			<stop  offset="0.43" style="stop-color:#2E9064"/>
			<stop  offset="0.63" style="stop-color:#40985D"/>
			<stop  offset="0.83" style="stop-color:#5AA453"/>
			<stop  offset="1" style="stop-color:#78B248"/>
		</linearGradient>
		<path class="st14" d="M1209.6,493.3c0,0-16.9-3.8-19.1,4.9c-0.6,2.6,3,3.4,10,3.5C1206.8,501.7,1229.6,496.5,1209.6,493.3z"/>
		<path class="st10" d="M1192.7,504.4c0,0,11,3.2,25.3-1c7.7-2.3,6.1-9.2-1.9-9.2S1185.3,499.7,1192.7,504.4z"/>
		
			<linearGradient id="SVGID_16_" gradientUnits="userSpaceOnUse" x1="1190.1001" y1="391.4397" x2="1225.5801" y2="406.2697" gradientTransform="matrix(1 0 0 -1 0 900)">
			<stop  offset="0" style="stop-color:#1F8969"/>
			<stop  offset="0.26" style="stop-color:#238B68"/>
			<stop  offset="0.5" style="stop-color:#2E9063"/>
			<stop  offset="0.72" style="stop-color:#40995C"/>
			<stop  offset="0.94" style="stop-color:#5AA551"/>
			<stop  offset="1" style="stop-color:#62A94E"/>
		</linearGradient>
		<path class="st15" d="M1192.1,505.1c0,0,11.2,3.3,25.9-1.1c7.9-2.3,6.2-9.4-1.9-9.4S1184.5,500.2,1192.1,505.1z"/>
		
			<linearGradient id="SVGID_17_" gradientUnits="userSpaceOnUse" x1="29.254" y1="156.829" x2="185.954" y2="801.999" gradientTransform="matrix(1 0 0 -1 0 900)">
			<stop  offset="0" style="stop-color:#A5533D"/>
			<stop  offset="0.24" style="stop-color:#7B533F"/>
			<stop  offset="0.55" style="stop-color:#415441"/>
		</linearGradient>
		<path class="st16" d="M68.3,270.8c74.9,58.6,12.7,185.9-37.5,48.9c-10.2-23.7-14-48.4-31.5-39.2c-7.9,9,5.7,46,21,72.1
			c12,20.5,22.4,29.9,19.7,42.3c-7,19.5-20.3,20.5-36.8,12.5C-54.4,375-73.1,322.3-99.2,283.7l-9.2,11l17.1,34.5
			c-4.1-11.7-27.8-36.2-51.2-28.2C-86,325-92.1,391-46.7,432.6c52,50.8,94,9.7,126,43.9c25.5,51.4,13.3,99.9-23.6,238.9l147.1,0.8
			c17.9,7.6,51.3,19.5,60.9,4.5c4.8-7.6,1.8-19.2,0.5-24.4c-21.6-93.5-43.2-146-33.8-222.9c1.3-6.9,10.9-56.9,40.7-70.5
			c16.4-7.5,24,2.9,47.3,0c84-14.5,102.7-117,107.2-147.8l-19.5,3.4c-0.9,9.5-6.4,59.3-37.7,78.6c-3.7,2.3-20.9,12.8-31.4,4.3
			c-24.8-31,8.8-82.5,17-99.3l-48.7,7.3c10.2,97.4-98.9,128-67.2,5.8l-17.9-7.8c0,0-11,123.9-27.4,136.6
			c-28.4,22-49.5-53-42.1-128.8h-21.1c11.2,97.8,7.7,53.5-36.9,15.9"/>
		<path class="st17" d="M228.3,551c-40.3,11.7-70.6,106.8-62.6,170.3l100.6-14.4c-14.9-59.3-20-80.9-31-129.5
			C232.1,559.5,232.1,552.9,228.3,551z"/>
		<path class="st18" d="M218.3,663.7c-0.9,0.2-1.9,0.1-2.8-0.1c-0.9-0.2-1.8-0.5-2.7-0.8c-1.7-0.8-3.4-1.7-4.9-2.9
			c-1.5-1.2-2.8-2.6-3.9-4.3c-0.5-0.9-0.9-1.8-1.2-2.8c-0.2-1-0.3-2.1-0.1-3.1c0.2-1,0.7-2,1.3-2.9c0.6-0.8,1.3-1.5,2.2-2.1
			c1.6-1.2,3.4-2.1,5.3-2.7c2-0.5,4.1-0.4,6.1,0.1c1.9,0.5,3.8,1.2,5.5,2.3c1.7,1,3.3,2.1,4.7,3.4c1.4,1.3,2.8,2.7,4,4.2
			c2.5,3,4.5,6.4,5.9,10c1.5,3.7,2,7.8,1.5,11.8c-0.4,2-1.1,4-2.1,5.8c-1.1,1.8-2.5,3.3-4.1,4.6c-3.2,2.4-6.9,4-10.8,4.8
			c-3.8,0.9-7.7,1.3-11.6,1c-8-0.5-15.3-4.4-20.2-10.8c-2.3-3.1-4.1-6.6-5.1-10.4c-1-3.7-1.4-7.5-1.3-11.4c0.2-3.8,0.9-7.5,2.1-11.1
			c1.1-3.6,2.7-7,4.7-10.2c-3.4,6.6-5.2,13.9-5.1,21.3c0.1,7.3,2.3,14.6,6.8,20.1c4.5,5.5,11.2,8.9,18.3,9.2c3.6,0.2,7.1-0.1,10.6-1
			c3.4-0.7,6.7-2.1,9.5-4.2c1.3-1,2.5-2.2,3.3-3.7c0.8-1.4,1.4-3,1.7-4.6c0.5-3.4,0-6.9-1.2-10.2c-1.2-3.4-3-6.5-5.2-9.3
			c-2.2-2.8-4.8-5.3-7.8-7.2c-2.9-1.9-6.4-3-9.7-2.5c-1.7,0.4-3.3,1.1-4.7,2.1c-0.7,0.5-1.3,1-1.9,1.7c-0.5,0.6-0.9,1.4-1.1,2.1
			c-0.3,1.7-0.1,3.4,0.8,4.9c0.9,1.6,2,3,3.4,4.2c1.4,1.2,2.9,2.3,4.5,3.2C214.6,663.3,216.5,663.7,218.3,663.7z"/>
		
			<linearGradient id="SVGID_18_" gradientUnits="userSpaceOnUse" x1="285.3386" y1="703.7114" x2="454.3586" y2="879.2014" gradientTransform="matrix(1 0 0 -1 0 900)">
			<stop  offset="0" style="stop-color:#0D5F3F"/>
			<stop  offset="0.16" style="stop-color:#06724B"/>
			<stop  offset="0.28" style="stop-color:#008355"/>
			<stop  offset="0.42" style="stop-color:#24985C"/>
			<stop  offset="0.56" style="stop-color:#43A961"/>
			<stop  offset="0.68" style="stop-color:#56B465"/>
			<stop  offset="0.76" style="stop-color:#5DB866"/>
		</linearGradient>
		<path class="st19" d="M257.3,92.8c0,0,35.7-21.3,91.7-21s118.9,47.4,101.5,77.3C439,235.1,131.5,192.9,257.3,92.8z"/>
		<path class="st20" d="M243.3-60.1c200.1,81.3,232.7,173.7,7.3,247.7c14.7,13.6-376.8,74.9-404.1-73
			C-142.9-104.6,167.7-88.7,243.3-60.1z"/>
		
			<linearGradient id="SVGID_19_" gradientUnits="userSpaceOnUse" x1="-50.9719" y1="632.5017" x2="341.5581" y2="1072.5817" gradientTransform="matrix(1 0 0 -1 0 900)">
			<stop  offset="0" style="stop-color:#0D5F3F"/>
			<stop  offset="0.27" style="stop-color:#157D66"/>
			<stop  offset="0.43" style="stop-color:#198A77"/>
			<stop  offset="0.76" style="stop-color:#1FA98A"/>
		</linearGradient>
		<path class="st21" d="M238.6-58.9c200,81,232.9,173.1,7.4,246.7c14.5,13.6-376.5,74.4-404.1-72.9
			C-147.6-103.6,163.4-87.3,238.6-58.9z"/>
		
			<linearGradient id="SVGID_20_" gradientUnits="userSpaceOnUse" x1="-196.5369" y1="543.7476" x2="-11.6369" y2="774.3575" gradientTransform="matrix(1 0 0 -1 0 900)">
			<stop  offset="0" style="stop-color:#0D5F3F"/>
			<stop  offset="0.33" style="stop-color:#0C7151"/>
			<stop  offset="0.34" style="stop-color:#0C7151"/>
			<stop  offset="0.76" style="stop-color:#077458"/>
		</linearGradient>
		<path class="st22" d="M-246.2,251c-13.4-52,84-165.3,178.4-92.6C9.6,220.6,93.3,290.2-24,296.1S-234,303.5-246.2,251z"/>
		
			<linearGradient id="SVGID_21_" gradientUnits="userSpaceOnUse" x1="-196.5404" y1="540.8803" x2="-11.6404" y2="771.4803" gradientTransform="matrix(1 0 0 -1 0 900)">
			<stop  offset="4.000000e-02" style="stop-color:#0D5E3F"/>
			<stop  offset="0.45" style="stop-color:#0D6F4F"/>
			<stop  offset="0.62" style="stop-color:#0B7455"/>
			<stop  offset="0.75" style="stop-color:#077B5E"/>
		</linearGradient>
		<path class="st23" d="M-246.2,253.9c-13.4-52,84-165.3,178.4-92.6C9.6,223.5,93.3,293.1-24,299S-234,306.3-246.2,253.9z"/>
		<path class="st20" d="M530,240.7c0,0-39.5,12.8-215.7,14.3l0.3-168.4c39.4-28,325.5,98.7,225,150.6"/>
		
			<linearGradient id="SVGID_22_" gradientUnits="userSpaceOnUse" x1="7560.9487" y1="658.0444" x2="7422.6987" y2="938.2744" gradientTransform="matrix(-1 0 0 -1 7954.8599 900)">
			<stop  offset="0" style="stop-color:#0D5F3F"/>
			<stop  offset="5.000000e-02" style="stop-color:#06724B"/>
			<stop  offset="9.000000e-02" style="stop-color:#008355"/>
			<stop  offset="0.26" style="stop-color:#24985C"/>
			<stop  offset="0.43" style="stop-color:#43A961"/>
			<stop  offset="0.57" style="stop-color:#56B465"/>
			<stop  offset="0.67" style="stop-color:#5DB866"/>
		</linearGradient>
		<path class="st24" d="M529.5,243.8c0,0-39.5,12.8-215.7,14.3l0.3-168.4c39.4-28,325.5,98.7,225,150.6"/>
		
			<linearGradient id="SVGID_23_" gradientUnits="userSpaceOnUse" x1="-103.3822" y1="748.6866" x2="480.8494" y2="748.6866" gradientTransform="matrix(1 0 0 -1 0 900)">
			<stop  offset="0" style="stop-color:#0D5F3F"/>
			<stop  offset="6.000000e-02" style="stop-color:#06724C"/>
			<stop  offset="9.000000e-02" style="stop-color:#008055"/>
			<stop  offset="0.23" style="stop-color:#1B9261"/>
			<stop  offset="0.41" style="stop-color:#3AA66F"/>
			<stop  offset="0.57" style="stop-color:#4DB378"/>
			<stop  offset="0.67" style="stop-color:#54B77B"/>
		</linearGradient>
		<path class="st25" d="M39.3,290.1c58.3,1.2,315.7,11.8,419.7-29.4c57.1-35.6-13.7-127.8-32-141C374.8,61.5,187,17.5,197.6,21.5
			C178.4,16.2,27.3-22.6-58.9,85.7C-148.9,194.6-95.4,274.1,39.3,290.1z"/>
		
			<linearGradient id="SVGID_24_" gradientUnits="userSpaceOnUse" x1="-147.0401" y1="721.5118" x2="544.7399" y2="769.3818" gradientTransform="matrix(1 0 0 -1 0 900)">
			<stop  offset="0.21" style="stop-color:#0E6747"/>
			<stop  offset="0.35" style="stop-color:#157A55"/>
			<stop  offset="0.55" style="stop-color:#20996C"/>
			<stop  offset="0.61" style="stop-color:#2B9F6D"/>
			<stop  offset="0.71" style="stop-color:#48AE71"/>
			<stop  offset="0.8" style="stop-color:#66BE74"/>
		</linearGradient>
		<path class="st26" d="M36.7,295.4c58.3,1.2,315.7,11.8,419.7-29.4c57.1-35.6-13.7-127.8-32-141C372.1,66.8,184.3,22.8,194.9,26.7
			C175.8,21.5,24.6-17.3-61.6,91C-151.6,199.9-98.1,279.4,36.7,295.4z"/>
		
			<linearGradient id="SVGID_25_" gradientUnits="userSpaceOnUse" x1="15686.4873" y1="877.6837" x2="15810.2568" y2="1387.2437" gradientTransform="matrix(-0.96 8.000000e-02 -9.000000e-02 -1 16702.6797 225.58)">
			<stop  offset="0" style="stop-color:#A3513F"/>
			<stop  offset="0.13" style="stop-color:#8E4C38"/>
			<stop  offset="0.41" style="stop-color:#573E27"/>
			<stop  offset="0.61" style="stop-color:#2C3319"/>
		</linearGradient>
		<path class="st27" d="M1524.9,293.2c0,0-26.8,21.8-23.8,49.7c0.5,4.9,1.5,20,11.6,25.7c7.1,4,15,1.5,16.2,1.1
			c14.8-4.9,22.1-25.1,29.2-44.8c5.8-16.1,8.1-28.5,16.5-30.6c1-0.3,4.3-1.1,6.5,0.8c6.9,5.8-1.8,32.8-12.6,52.2
			c-8.4,15.3-16.3,22.6-13.3,31.1c2.3,6.7,9.5,9.5,10.2,9.8c5.8,2.2,11.9,0.8,20.3-3.5c12-6.3,22.6-15,31.2-25.5
			c19.6-25.1,34.7-51.4,43.9-68.8l8.1,7.1l-11.7,25.4c1.5-3.2,8.4-17.1,23.7-22.1c5.1-1.6,10.6-2.1,15.9-1.4
			c-11.1,5.4-20.7,13.5-27.9,23.5c-9.6,13.7-9.3,23.7-18.7,42.7c-7,14.2-15.9,26.1-22.8,33.1c-23.7,24.4-58.2,26.8-75.7,26.6
			c-7.1,1.5-16.6,4.9-23.4,13.1c-13.7,16.4-8.3,41.4-1.4,71.3c11.3,49,38.5,107.4,49.9,118.9c10.6,10.8-111.4,37.4-145.5,29.7
			c-21.7,1.7-31.7-4.6-36.7-10c-30.4-32.8,41.6-116.1,11.7-201.5c-3.2-9.2-13.9-39.8-37.2-46.8c-13.7-4.1-19.2,3.7-38.2,3.3
			c-37-0.8-63.7-31.6-66-34.3c-20.9-24.7-29.6-62.2-29.6-62.2l0,0l16,1c1.3,6.6,8.8,41.3,35.3,52.7c3.1,1.3,17.6,7.5,25.6,0.8
			c11.2-9.5,1.4-37.6-0.2-40.2c-6-9.9-19.6-28.5-19.6-28.5l39.8,1.7c0.3,25,10.6,46.2,27.4,53.9c2.2,1,15.1,6.9,24.4,0.9
			c11.2-7.3,14.3-30.2,2.8-55.5l14-6.8c0,0,16.4,86.4,30.5,94.2c24.3,13.5,36.8-40.8,26.2-93.6l17-1.5c0,0-6,59.3,5.8,37.3
			s24.9-28.7,24.9-28.7l0,0"/>
		<path class="st28" d="M1180.6,229.4c0,0,32.7,6.2,175-5.1L1345,105.9c-3.4-0.8-28.3-4.5-88.3,20.7
			c-72.9,30.6-134.2,87.8-84.1,101.1"/>
		
			<linearGradient id="SVGID_26_" gradientUnits="userSpaceOnUse" x1="-7992.625" y1="1290.2682" x2="-8098.5649" y2="1505.0083" gradientTransform="matrix(0.96 -8.000000e-02 -9.000000e-02 -1 9083.54 888.28)">
			<stop  offset="8.000000e-02" style="stop-color:#0D6C59"/>
			<stop  offset="0.76" style="stop-color:#2CB67D"/>
		</linearGradient>
		<path class="st29" d="M1181.2,231.5c0,0,32.7,6.2,175-5.1L1345.7,108c-3.4-0.8-28.3-4.5-88.3,20.7
			c-72.9,30.6-134.2,87.8-84.1,101.1"/>
		
			<linearGradient id="SVGID_27_" gradientUnits="userSpaceOnUse" x1="-11047.9287" y1="-255.7967" x2="-11153.8691" y2="-41.0567" gradientTransform="matrix(0.69 -6.000000e-02 -5.000000e-02 -0.59 8816 -506.98)">
			<stop  offset="8.000000e-02" style="stop-color:#0D6C59"/>
			<stop  offset="0.76" style="stop-color:#2CB67D"/>
		</linearGradient>
		<path class="st30" d="M1109.8,283.2c0,0,23.5,3.3,126-5l-6.2-69.6c-2.5-0.4-20.3-2.3-63.8,13.2c-52.8,18.9-97.6,53.3-61.7,60.5"/>
		
			<linearGradient id="SVGID_28_" gradientUnits="userSpaceOnUse" x1="-18051.6582" y1="-1412.2786" x2="-18157.5977" y2="-1197.5386" gradientTransform="matrix(0.42 -4.000000e-02 -4.000000e-02 -0.45 8689.5303 -943.24)">
			<stop  offset="8.000000e-02" style="stop-color:#0D6C59"/>
			<stop  offset="0.76" style="stop-color:#2CB67D"/>
		</linearGradient>
		<path class="st31" d="M1057.8,330.6c0,0,14.5,2.9,77.6-2.1l15.2-52.8c-1.5-0.4-32.6-3.3-59.2,8.1c-32.3,13.9-59.4,39.9-37.2,46"/>
		
			<linearGradient id="SVGID_29_" gradientUnits="userSpaceOnUse" x1="15925.6104" y1="1280.0433" x2="16050.0801" y2="1409.2834" gradientTransform="matrix(-0.96 8.000000e-02 -9.000000e-02 -1 16702.6797 225.58)">
			<stop  offset="0" style="stop-color:#0D5F3F"/>
			<stop  offset="0.16" style="stop-color:#07724A"/>
			<stop  offset="0.28" style="stop-color:#018455"/>
			<stop  offset="0.41" style="stop-color:#24995C"/>
			<stop  offset="0.56" style="stop-color:#43AC62"/>
			<stop  offset="0.68" style="stop-color:#56B766"/>
			<stop  offset="0.76" style="stop-color:#5DBB67"/>
		</linearGradient>
		<path class="st32" d="M1208.8,234.4c15.8,19.9,25.4,31.2,88.1,25.6s131.3-44.1,64.5-78.8c0,0-30.1-12.5-75.3-8.3"/>
		<path class="st28" d="M1363.3,72.7c-116.8,47.9-126.7,88.7-121.3,114.6c0,0,2.8,35.3,130.6,60.2l0,0c0,0,75.7,22.8,209.4-4.2
			c40.6-8.2,106.6-32.5,112.3-74.6c4.2-30.9-26.6-59.4-37.7-69.7C1565.8,15.2,1403.2,60.5,1363.3,72.7z"/>
		
			<linearGradient id="SVGID_30_" gradientUnits="userSpaceOnUse" x1="15649.2305" y1="1217.287" x2="15965.9512" y2="1572.3771" gradientTransform="matrix(-0.96 8.000000e-02 -9.000000e-02 -1 16702.6797 225.58)">
			<stop  offset="0.16" style="stop-color:#176862"/>
			<stop  offset="0.32" style="stop-color:#18716A"/>
			<stop  offset="0.56" style="stop-color:#1C887F"/>
			<stop  offset="0.76" style="stop-color:#209F95"/>
		</linearGradient>
		<path class="st33" d="M1367.2,73.2c-117.5,48.1-125.6,94-121.4,114.3c0,0,2.8,35.2,130.5,59.8l0,0c0,0,75.6,22.7,209.3-4.4
			c40.6-8.2,106.6-32.5,112.4-74.4c4.3-30.8-26.5-59.1-37.7-69.4C1569.7,15.7,1407.1,61.1,1367.2,73.2z"/>
		<path class="st28" d="M1777.6,257.2c0,0,3.9-28.6-27.2-50.4c-17.5-12.3-71.3-45.1-122.5-2.2c-58.7,49.3-122,104.1-27,100
			S1770.9,294.9,1777.6,257.2z"/>
		
			<linearGradient id="SVGID_31_" gradientUnits="userSpaceOnUse" x1="15465.1504" y1="1224.8271" x2="15702.1396" y2="1224.8271" gradientTransform="matrix(-0.96 8.000000e-02 -9.000000e-02 -1 16702.6797 225.58)">
			<stop  offset="0" style="stop-color:#0D5E59"/>
			<stop  offset="0.25" style="stop-color:#0E655B"/>
			<stop  offset="0.48" style="stop-color:#10715E"/>
		</linearGradient>
		<path class="st34" d="M1777.8,259.2c0,0,3.8-28.6-27.2-50.4c-17.5-12.3-71.3-45.1-122.5-2.2c-58.7,49.3-122,104.1-27,100
			S1771.1,297,1777.8,259.2z"/>
		<path class="st28" d="M1549.4,304.7c-13.3,3.1-15.6,2.6-68,7.1c-11.2,1-58.6,5.1-154.1,10.3c-40.2,2.2-101.4-2.1-118.5-8.5
			c-5.7-2.1-17.2-7.5-19.1-24.7c-4.3-39.3,26.8-64.8,36.3-76.7c8.8-11.1,32.4-25.7,38.7-29c76.7-40.4,140.6-56.2,140.6-56.2
			c15.2-5,134.8-42.9,211,27.2c7,6.4,50,45.6,41.8,83.6C1648.4,281.4,1576.3,298.4,1549.4,304.7z"/>
		
			<linearGradient id="SVGID_32_" gradientUnits="userSpaceOnUse" x1="15774.5957" y1="1208.0021" x2="15986.2158" y2="1484.3021" gradientTransform="matrix(-0.96 8.000000e-02 -9.000000e-02 -1 16702.6797 225.58)">
			<stop  offset="4.000000e-02" style="stop-color:#0D6C59"/>
			<stop  offset="0.19" style="stop-color:#10735D"/>
			<stop  offset="0.41" style="stop-color:#198867"/>
			<stop  offset="0.67" style="stop-color:#27A977"/>
			<stop  offset="0.76" style="stop-color:#2CB67D"/>
		</linearGradient>
		<path class="st35" d="M1551.9,308.3c-13.3,3.1-15.6,2.6-68,7.1c-11.2,1-58.6,5.1-154.1,10.2c-40.2,2.2-101.4-2.1-118.5-8.5
			c-5.7-2.1-17.2-7.5-19.1-24.7c-4.3-39.3,26.8-64.8,36.3-76.7c8.8-11.1,32.4-25.7,38.7-29c76.7-40.4,140.5-56.2,140.5-56.2
			c15.2-5.1,134.8-43,211,27.2c7,6.4,50.1,45.6,41.8,83.6C1650.9,284.9,1578.8,301.9,1551.9,308.3z"/>
		
			<linearGradient id="SVGID_33_" gradientUnits="userSpaceOnUse" x1="29527.4023" y1="-1531.2626" x2="29739.0137" y2="-1254.9625" gradientTransform="matrix(-0.35 3.000000e-02 -4.000000e-02 -0.44 11472.1504 -1255.73)">
			<stop  offset="4.000000e-02" style="stop-color:#0D6C59"/>
			<stop  offset="0.19" style="stop-color:#10735D"/>
			<stop  offset="0.41" style="stop-color:#198867"/>
			<stop  offset="0.67" style="stop-color:#27A977"/>
			<stop  offset="0.76" style="stop-color:#2CB67D"/>
		</linearGradient>
		<path class="st36" d="M1247.3,332.5c-4.8,1.3-5.7,1-24.7,2.7c-4,0.4-21.3,1.8-56,3.5c-14.6,0.7-36.9-1.6-43.2-4.5
			c-2.1-1-6.3-3.4-7.1-11c-1.8-17.2,9.3-28.2,12.7-33.3c3.1-4.8,11.6-11,13.9-12.5c27.6-17.2,50.8-23.7,50.8-23.7
			c5.5-2.1,48.8-17.9,76.9,13.3c2.6,2.9,18.5,20.3,15.7,36.9C1283.1,323,1257,329.9,1247.3,332.5z"/>
		<path class="st37" d="M1413.7,484.5c0,0,2.3,29.6-10.1,72.2s-25.8,73.3-8.8,91.9s87,9.2,87,9.2S1483.1,508,1413.7,484.5z"/>
		
			<linearGradient id="SVGID_34_" gradientUnits="userSpaceOnUse" x1="-300.8209" y1="157.0018" x2="514.009" y2="567.3818" gradientTransform="matrix(1 0 0 -1 0 900)">
			<stop  offset="0.13" style="stop-color:#16595A"/>
			<stop  offset="0.21" style="stop-color:#226456"/>
			<stop  offset="0.34" style="stop-color:#3C7C4C"/>
			<stop  offset="0.34" style="stop-color:#3C7C4C"/>
			<stop  offset="0.55" style="stop-color:#4C8648"/>
			<stop  offset="0.72" style="stop-color:#528A46"/>
		</linearGradient>
		<path class="st38" d="M-247.4,420.8c0,0,110.5-30.9,85.7,45.9c80.3-45.2,126.4-3.4,115.8,39.5c61.4-6.8,115.8,79,72.1,102.7
			c0,0,62.6-31.6,125.2,15.8c71.4-31.3,196.8,0.4,244.7,62.7c-214.5-5.3-429-7.4-643.5-6.2L-247.4,420.8z"/>
		
			<linearGradient id="SVGID_35_" gradientUnits="userSpaceOnUse" x1="847.1017" y1="-44.3234" x2="2268.7117" y2="671.6466" gradientTransform="matrix(1 0 0 -1 -0.46 900.61)">
			<stop  offset="0.1" style="stop-color:#177E70"/>
			<stop  offset="0.34" style="stop-color:#178877"/>
			<stop  offset="0.5" style="stop-color:#169078"/>
			<stop  offset="0.72" style="stop-color:#169679"/>
		</linearGradient>
		<path class="st39" d="M852.3,663.1c0,0,79.7-73.7,223.1-35.8c74.9-57.8,194.4,0,194.4,0c22.3-73.7,130.7,5.1,130.7,5.1
			s25.5-37,154.6-2.9c105.2-16.9,130.7,22.8,130.7,22.8c44.6,1.8,283.7,10.9,283.7,10.9L852.3,663.1z"/>
		
			<linearGradient id="SVGID_36_" gradientUnits="userSpaceOnUse" x1="-20" y1="67.61" x2="1644.6" y2="67.61" gradientTransform="matrix(1 0 0 -1 0 900)">
			<stop  offset="0.19" style="stop-color:#4EA40F"/>
			<stop  offset="0.21" style="stop-color:#4CA40F"/>
			<stop  offset="0.66" style="stop-color:#2C9B0A"/>
			<stop  offset="0.91" style="stop-color:#209808"/>
		</linearGradient>
		<polygon class="st40" points="-20,945.9 1644.6,955.1 1643,726.2 -17.5,709.7 		"/>
		
			<linearGradient id="SVGID_37_" gradientUnits="userSpaceOnUse" x1="-527.88" y1="138.555" x2="2248.55" y2="138.555" gradientTransform="matrix(1 0 0 -1 0 900)">
			<stop  offset="0.19" style="stop-color:#2A7717"/>
			<stop  offset="0.21" style="stop-color:#2A7A19"/>
			<stop  offset="0.44" style="stop-color:#2C9327"/>
			<stop  offset="0.66" style="stop-color:#2DA22F"/>
			<stop  offset="0.83" style="stop-color:#2DA732"/>
		</linearGradient>
		<path class="st41" d="M-527.9,723.3v76.2c217.3-21,1528.9-28.9,1819.9-7.2c31.1-5.2,46.3-15.4,27-30.7s26.3-20.5,102.4-20.5
			c247.6-4.9,625.3-9.5,827.2,3.4v-21.3"/>
		
			<linearGradient id="SVGID_38_" gradientUnits="userSpaceOnUse" x1="-566" y1="202.0017" x2="2356.5701" y2="212.6117" gradientTransform="matrix(1 0 0 -1 0 900)">
			<stop  offset="0.19" style="stop-color:#2A7717"/>
			<stop  offset="0.21" style="stop-color:#2A7A19"/>
			<stop  offset="0.44" style="stop-color:#2C9327"/>
			<stop  offset="0.66" style="stop-color:#2DA22F"/>
			<stop  offset="0.83" style="stop-color:#2DA732"/>
		</linearGradient>
		<rect x="-526" y="662.7" class="st42" width="2693" height="60.5"/>
		<path class="st43" d="M93.5,762.9c0,0-27.3-40.3-11.2-26.7s15.1,26.7,15.1,26.7c-7.6-31.9,19.9-39.5,2.4,0c0,0,7.2-20.6,22.1-18.1
			s-19.6,18.1-19.6,18.1"/>
		<path class="st43" d="M330.7,708.9c0,0-18.4-3.5-11.5-7.2s13.1,7.2,13.1,7.2c-12-15.9,7.2-20.1,1.8,0c11.8-20.9,19.8-9.2,1.9,0"/>
		<path class="st44" d="M1523,756.6c0,0,7.2-34,22.8-32.5S1523,756.6,1523,756.6z"/>
		<path class="st44" d="M1495.3,754.7c0,0-28-35-27-45S1502.6,737.3,1495.3,754.7z"/>
		<path class="st44" d="M1510.3,754.6c0,0-19.8-29-15-37S1511,745.7,1510.3,754.6z"/>
		<path class="st44" d="M1438.2,754.7c0,0-1.8-46,21-51C1459.2,703.7,1436.4,747.8,1438.2,754.7z"/>
		<path class="st44" d="M1429.8,754.7c0,0-41.5-19.6-32.4-28S1405.2,724.9,1429.8,754.7z"/>
		<path class="st44" d="M880.6,679c-31.8-19.4-1.5-27.2-1.2,0.7"/>
		<path class="st44" d="M887.2,680.4c0,0-12.1-15.2-6.6-17.8S887.2,680.4,887.2,680.4z"/>
		<path class="st44" d="M891.4,679.3c0,0,6-14.8,12.6-13.4S897.4,678.7,891.4,679.3z"/>
		<path class="st44" d="M369.6,673.6c0,0-15-2-9.8-9.2S369.6,673.6,369.6,673.6z"/>
		<path class="st44" d="M370.1,674.5c0,0-3.7-11.1,5.2-10.4S370.1,674.5,370.1,674.5z"/>
	</g>
</g>
</svg>
