<?xml version="1.0" encoding="utf-8"?>
<!-- Generator: Adobe Illustrator 25.2.3, SVG Export Plug-In . SVG Version: 6.00 Build 0)  -->
<svg version="1.1" id="Layer_1" xmlns="http://www.w3.org/2000/svg" xmlns:xlink="http://www.w3.org/1999/xlink" x="0px" y="0px"
	 viewBox="0 0 1600 900" style="enable-background:new 0 0 1600 900;" xml:space="preserve">
<style type="text/css">
	.st0{clip-path:url(#SVGID_2_);}
	.st1{clip-path:url(#SVGID_4_);}
	.st2{fill:url(#SVGID_5_);}
	.st3{opacity:0.57;fill:#81AECF;enable-background:new    ;}
	.st4{fill:url(#SVGID_6_);}
	.st5{fill:url(#SVGID_7_);}
	.st6{opacity:0.56;fill:#FAFFFF;enable-background:new    ;}
	.st7{opacity:0.18;fill:#FAFFFF;enable-background:new    ;}
	.st8{opacity:0.56;}
	.st9{fill:#FAFFFF;}
	.st10{fill:#B2CF76;}
	.st11{opacity:0.33;}
	.st12{fill:#0F7F87;}
	.st13{fill:none;}
	.st14{fill:url(#SVGID_8_);}
	.st15{opacity:0.24;fill:#A87E88;enable-background:new    ;}
	.st16{fill:#603741;}
	.st17{opacity:0.25;fill:#020101;enable-background:new    ;}
	.st18{fill:#9DD6EA;}
	.st19{fill:#4F1626;}
	.st20{fill:url(#SVGID_9_);}
	.st21{fill:url(#SVGID_10_);stroke:#031C0F;stroke-miterlimit:10;}
	.st22{opacity:0.47;}
	.st23{fill:#169999;}
	.st24{opacity:0.2;}
	.st25{opacity:0.14;}
	.st26{fill:url(#SVGID_11_);}
	.st27{fill:#58B7B7;}
	.st28{opacity:0.58;}
	.st29{fill:url(#SVGID_12_);}
	.st30{fill:url(#SVGID_13_);}
	.st31{fill:url(#SVGID_14_);}
	.st32{fill:#FFFFB5;}
	.st33{fill:url(#SVGID_15_);}
	.st34{fill:url(#SVGID_16_);}
	.st35{fill:url(#SVGID_17_);}
	.st36{fill:#3BA347;}
	.st37{opacity:0.57;fill:#17563C;enable-background:new    ;}
	.st38{fill:#2B7A44;}
	.st39{opacity:0.62;}
	.st40{clip-path:url(#SVGID_19_);}
	.st41{opacity:0.65;fill:#737FA8;enable-background:new    ;}
	.st42{opacity:0.29;fill:#031C0F;enable-background:new    ;}
	.st43{fill:url(#SVGID_20_);}
	.st44{opacity:0.74;fill:url(#SVGID_21_);enable-background:new    ;}
	.st45{opacity:0.7;fill:#C99A5C;enable-background:new    ;}
	.st46{opacity:0.44;fill:#6E3100;enable-background:new    ;}
	.st47{opacity:0.47;fill:#984F00;enable-background:new    ;}
	.st48{opacity:0.31;fill:#E9D3B8;enable-background:new    ;}
	.st49{opacity:0.35;fill:#C56807;enable-background:new    ;}
	.st50{fill:#E9D3B8;}
	.st51{fill:#E2C39F;}
	.st52{fill:#D6A978;}
	.st53{fill:url(#SVGID_22_);}
	.st54{opacity:0.9;fill:url(#SVGID_23_);enable-background:new    ;}
	.st55{opacity:0.38;fill:url(#SVGID_24_);enable-background:new    ;}
	.st56{opacity:0.21;fill:#E9D3B8;enable-background:new    ;}
	.st57{fill:url(#SVGID_25_);}
	.st58{opacity:0.9;fill:url(#SVGID_26_);enable-background:new    ;}
	.st59{opacity:0.38;fill:url(#SVGID_27_);enable-background:new    ;}
	.st60{fill:url(#SVGID_28_);}
</style>
<g>
	<defs>
		<rect id="SVGID_1_" width="1600" height="900"/>
	</defs>
	<clipPath id="SVGID_2_">
		<use xlink:href="#SVGID_1_"  style="overflow:visible;"/>
	</clipPath>
	<g class="st0">
		<g>
			<defs>
				<rect id="SVGID_3_" x="-497.4" y="-12.5" width="2854.9" height="951.6"/>
			</defs>
			<clipPath id="SVGID_4_">
				<use xlink:href="#SVGID_3_"  style="overflow:visible;"/>
			</clipPath>
			<g class="st1">
				
					<linearGradient id="SVGID_5_" gradientUnits="userSpaceOnUse" x1="929.5049" y1="1031.49" x2="929.5049" y2="637.23" gradientTransform="matrix(1 0 0 -1 0 900)">
					<stop  offset="0.22" style="stop-color:#AEE4FF"/>
					<stop  offset="0.39" style="stop-color:#BAE8FF"/>
					<stop  offset="0.69" style="stop-color:#D8F2FF"/>
					<stop  offset="1" style="stop-color:#FFFFFF"/>
				</linearGradient>
				<rect x="-511.6" y="-131.5" class="st2" width="2882.1" height="394.3"/>
				<path class="st3" d="M2396.7,242.2l8.4-151.1c-0.9-26.6-418.8-28.1-436.5-30.7c-60.7-9-191.4-27.6-206.2-24
					c-20.5,5-85.7,25.4-91,27c-3.5,1-45.5-8.3-73.8-14.7c-17-3.9-34.7-3.4-51.4,1.3l-249.8,70.5c-5.1,1.4-10.5,1.2-15.4-0.7
					l-20.4-7.8c-13.2-5.2-27.8-6.1-41.6-2.8l-43.9,10.8c-6.8,1.6-14,0.3-19.8-3.6c-20.8-13.4-54-23.3-75.7-28.9
					c-13.4-3.4-27.1-1-39.7,7c-55.5,35-114.6,62.4-164.6,79.7c-49.1-5.8-87.2,15.5-161.3-27.4c-13.7-7.9-87.1-47.3-101.7-43.8
					c-23.7,5.6-27.1,13.7-49.8,27.1c-6.4,3.9-14.2,5.2-21.5,3.6L493.2,123c-15.1-3.4-30.8-2.4-45.3,2.8l-22.2,7.8
					c-5.4,1.9-11.3,2.2-16.9,0.7L136.5,63.7c-18.3-4.8-37.5-5.2-56.1-1.3C49.6,68.8,3.8,78.1,0,77.1c-5.8-1.6-76.8-22-99.1-27
					c-16.1-3.6-158.6,15-224.7,24c-19.2,2.6-193.5-18-194.5,8.6v195.4c-1.1,30.6,172.6-14.8,194.8-14.5l1267.4,19.4
					c11.2,0.2,21.3-6.2,28.5-16.4l996-16.6C1988.7,249.6,2397.8,272.8,2396.7,242.2z"/>
				
					<linearGradient id="SVGID_6_" gradientUnits="userSpaceOnUse" x1="1539.0352" y1="633.8729" x2="1908.925" y2="-6.8071" gradientTransform="matrix(1 0 0 -1 0 900)">
					<stop  offset="2.000000e-02" style="stop-color:#6BA688"/>
					<stop  offset="0.59" style="stop-color:#4C7D7D"/>
				</linearGradient>
				<path class="st4" d="M682.2,274.4c0,0,240.3,11.2,552.1-82.1s612.8-97,838.5,29.9c304.3-120.7,342.3-15.9,361.7,104.5H685.8
					L682.2,274.4z"/>
				
					<linearGradient id="SVGID_7_" gradientUnits="userSpaceOnUse" x1="9695.0869" y1="605.643" x2="10292.1875" y2="-428.5569" gradientTransform="matrix(-0.6 0 0 -1 6155.3901 900)">
					<stop  offset="2.000000e-02" style="stop-color:#6BA688"/>
					<stop  offset="0.59" style="stop-color:#4C7D7D"/>
				</linearGradient>
				<path class="st5" d="M1183.4,288.7c0,0-241.8,11.2-555.7-82.1s-616.8-97-843.9,29.9c-168.3-55.7-278.5-26.6-318.9,104.5h1714.8
					L1183.4,288.7z"/>
				<path class="st6" d="M945.5,61.6C638.3,133.2-187.8-43.6-510.1,29.3L-513,102C-283.1-41.8,545.6,153.7,945.5,61.6z"/>
				<path class="st7" d="M1080.9,37.9c304.1-84,985.5,58.5,1304.6-27.3v-72.8C2161.6,90.8,1476.8-70.4,1080.9,37.9z"/>
				<path class="st7" d="M739.9-9.5C430.4,51.8-153.4-150.3-477.9-88.2l-5.4,72.6C-248.7-151.7,337.1,69.3,739.9-9.5z"/>
				<path class="st6" d="M893.3,38.7c-1.8-9.9-14.1-18.3-31.4-18.3S825.6,38,827.1,48c1.7,10.7,19.2,8.5,34.8,9
					C885.9,57.9,895.3,49.4,893.3,38.7z"/>
				<g class="st8">
					<path class="st9" d="M962.3,22.8C959.5,8.3,940.7-4,914-4s-56,25.7-53.5,40.3c2.5,15.5,29.5,12.4,53.5,13.2
						C950.9,50.8,965.3,38.3,962.3,22.8z"/>
					<path class="st9" d="M971.6,38.7c-1.1-7-8.7-12.9-19.4-12.9s-22.5,12.4-21.5,19.5c1,7.5,11.8,6,21.5,6.4
						C967,52.3,972.8,46.3,971.6,38.7z"/>
				</g>
				<rect x="-504.7" y="288.5" class="st10" width="2862.2" height="769.5"/>
				<g class="st11">
					<path class="st12" d="M1468.9,606.6c7.8,0.5,15.6,1.1,23.3,1.8s15.5,1.4,23.3,2.2c15.5,1.7,31,3.5,46.5,5.6
						c15.5,2,30.9,4.5,46.3,7.1s30.7,5.5,46,8.8c7.6,1.7,15.2,3.4,22.8,5.3s15.2,3.8,22.7,5.9c7.5,2.1,15,4.3,22.5,6.7
						c3.7,1.2,7.4,2.4,11.1,3.7l5.5,2l5.5,2.1c14.6,5.6,29,12,42.3,20.3c6.7,4.1,12.9,9,18.5,14.5c2.8,2.7,5.3,5.8,7.5,9
						c2.2,3.3,3.9,6.8,5.1,10.5c-1.4-3.6-3.2-7.1-5.5-10.3c-2.3-3.1-4.9-6.1-7.7-8.7c-5.7-5.3-12-9.9-18.7-13.8
						c-13.4-8-27.8-14-42.3-19.3c-29.3-10.5-59.5-18.3-90-24.7c-15.2-3.3-30.5-6.3-45.9-9s-30.8-5.2-46.2-7.5s-30.9-4.5-46.3-6.5
						S1484.4,608.2,1468.9,606.6z"/>
				</g>
				<g class="st11">
					<path class="st12" d="M1527.5,627.5c6,0.7,12,1.4,17.9,2.3s11.9,1.7,17.9,2.6c11.9,1.8,23.8,3.8,35.7,6
						c23.7,4.2,47.3,9.2,70.8,14.8c23.4,5.8,46.7,12.2,69.3,20.6c11.4,4.1,22.4,9,33.1,14.7c5.3,2.9,10.4,6.2,15.2,9.9
						c1.2,1,2.4,1.9,3.5,2.9s2.2,2.1,3.2,3.2c2,2.2,3.8,4.7,5.2,7.4c-3-5.3-7.6-9.3-12.3-12.9c-4.9-3.5-10-6.6-15.4-9.2
						c-10.7-5.4-21.8-10-33.2-13.8c-11.3-3.9-22.8-7.5-34.4-10.8c-11.6-3.2-23.2-6.3-34.9-9.2c-23.4-5.7-46.9-10.7-70.5-15.5
						c-11.8-2.4-23.6-4.6-35.5-6.8C1551.2,631.5,1539.3,629.5,1527.5,627.5z"/>
				</g>
				<g class="st11">
					<path class="st12" d="M691.2,539.6c5.3-0.5,10.5-0.8,15.8-1.1s10.5-0.6,15.8-0.8c10.5-0.4,21.1-0.6,31.7-0.8
						c21.1-0.2,42.2,0.3,63.3,1.8s42.2,3.9,62.8,8.7c10.4,2.3,20.5,5.5,30.2,9.7c4.9,2.2,9.5,4.9,13.7,8c2.1,1.6,4.1,3.4,5.9,5.4
						c1.7,2,3.2,4.2,4.3,6.6c-2.6-4.6-6.3-8.4-10.7-11.3c-4.3-3-9-5.4-13.8-7.3c-9.8-3.9-19.8-6.8-30.2-8.8
						c-10.3-2.1-20.6-3.7-31.1-5c-10.4-1.3-20.9-2.3-31.4-3c-21-1.5-42-2.2-63.1-2.5c-10.5-0.2-21.1-0.2-31.6-0.1
						C712.3,539.1,701.8,539.4,691.2,539.6z"/>
				</g>
				<g class="st11">
					<path class="st12" d="M732.4,548.1c16.3-0.5,32.6-0.4,48.9,0.1s32.6,1.6,48.8,3.2c16.3,1.5,32.4,4,48.4,7.4
						c8,1.7,15.9,4,23.5,6.9c3.8,1.5,7.5,3.2,11.1,5.3c1.8,1,3.4,2.2,5,3.5c1.6,1.3,2.9,2.8,4.1,4.5c-2.6-3.1-5.9-5.6-9.5-7.4
						c-3.6-1.8-7.3-3.4-11.2-4.6c-7.7-2.5-15.5-4.5-23.5-6c-8-1.5-16-2.8-24-3.9s-16.1-2-24.2-2.8c-8.1-0.8-16.2-1.5-24.3-2.1
						s-16.2-1.2-24.3-1.7s-16.2-0.9-24.4-1.3S740.5,548.5,732.4,548.1z"/>
				</g>
				<rect x="-75.6" y="267.6" class="st13" width="1579.6" height="888.5"/>
				
					<linearGradient id="SVGID_8_" gradientUnits="userSpaceOnUse" x1="383.42" y1="-94.583" x2="2071.7708" y2="-94.583" gradientTransform="matrix(1 0 0 -1 0 900)">
					<stop  offset="0" style="stop-color:#85AF5C"/>
					<stop  offset="2.000000e-02" style="stop-color:#81AC5C"/>
					<stop  offset="0.2" style="stop-color:#61935C"/>
					<stop  offset="0.38" style="stop-color:#47805C"/>
					<stop  offset="0.57" style="stop-color:#35725C"/>
					<stop  offset="0.77" style="stop-color:#2A6A5C"/>
					<stop  offset="1" style="stop-color:#27675C"/>
				</linearGradient>
				<path class="st14" d="M2071.8,819.5c5.8-38.9-1189.5,34.1-1688.3,148.2c346.2,152.9,933.3,191.2,1610.2,212.5L2071.8,819.5z"/>
				<path class="st15" d="M620,893.9c0,0-23.8,10-24.1,15.5c0,0,34.3,40,123.7,4.3c2.6-1,1.6-7.3-1.2-6.8l-34.4,9.3l9-6.8
					c0.9-2.5-0.2-3.1-2.4-2.5C678,910.2,630.3,911.3,620,893.9z"/>
				<path class="st16" d="M623.4,881.9c0,0-4.6,7-2.8,10.1s41,22.4,82,8.7C702.7,900.7,635.3,901.7,623.4,881.9z"/>
				<path class="st16" d="M1043.2,896.3c-21.2,0-39.6-4.8-48.8-11.8c-4.2,5.2-14.5,8.8-26.4,8.8c-11.7,0-21.7-3.5-26.1-8.4
					c-1.5,1.5-2.4,3.6-2.4,5.7c0,7.8,12.8,14.1,28.5,14.1c12,0,22.2-3.6,26.4-8.8c9.2,7,27.6,11.8,48.8,11.8
					c30.4,0,55.1-9.8,55.1-21.9c0-2.1-0.7-4-1.9-5.7C1090.1,889.4,1068.7,896.3,1043.2,896.3z"/>
				<path class="st17" d="M965.3,865.4c0,0-9.9,5.3-10,7.3c0,0,13.7,11.4,46.6-1.7c1-0.4,0.4-2.2-0.7-2l-10.1,1.6l0.6-1.7
					c0.3-0.9-0.5-2-1.3-1.8C985.9,868.3,974.8,870.4,965.3,865.4z"/>
				<path class="st17" d="M1071.6,858.5c-0.8-0.2-5.9,9-37.4,7.4c5.3,2.1,11,3.2,16.8,3.1c0.6,0,1.1,0.5,1.1,1.2
					c0,0.4-0.3,0.8-0.6,1c-6.1,2.7-18.7,6.5-37.3,3.4l0,0c2.5,0.6,39.4,9.8,60.6-9.4C1074.8,865.2,1073.3,858.8,1071.6,858.5z"/>
				<path class="st17" d="M1085.3,873.5c-0.4-12-24.9-21.6-55.1-21.6c-21.2,0-39.9,5-48.8,19.9c-1.9,0.4-3.9,0.9-5.8,1.5
					c-3.6-1.2-7.3-2.3-11.2-3.4c-0.1-0.4-4.1-17.5-8.7-18.4l0,0c-19.9-23.6-76.1-40.7-142.2-40.7c-57.6,0-108.7,13.5-132.8,54.2
					c-28.7,5.5-49,19.2-49.5,35.3c-20.7,6.9-34.2,18.6-34.2,31.9v0.1c-0.8,2.2-1.2,4.4-1.2,6.7c0,21.2,34.8,38.4,77.7,38.4
					c32.6,0,60.4-9.9,72-24c25,19,75.2,32,133,32c82.1,0,148.8-26.2,150-58.8c1.7-5.2,1.6-10.8-0.2-15.9c8.6,1.8,17.4,2.7,26.3,2.7
					c30.4,0,55.1-9.8,55.1-21.9C1109.6,884.1,1100,877.4,1085.3,873.5z"/>
				<path class="st18" d="M1177.2,700.8c0.4,0,0.7-0.3,0.7-0.7c0-0.4-0.3-0.7-0.7-0.7c0,0,0,0,0,0c-0.4,0-0.7,0.3-0.7,0.7
					C1176.5,700.5,1176.8,700.8,1177.2,700.8C1177.2,700.8,1177.2,700.8,1177.2,700.8z"/>
				<path class="st18" d="M1177.2,700.8c0.4,0,0.7-0.3,0.7-0.7c0-0.4-0.3-0.7-0.7-0.7c0,0,0,0,0,0c-0.4,0-0.7,0.3-0.7,0.7
					C1176.5,700.5,1176.8,700.8,1177.2,700.8C1177.2,700.8,1177.2,700.8,1177.2,700.8z"/>
				<path class="st18" d="M1177.2,700.8c0.4,0,0.7-0.3,0.7-0.7c0-0.4-0.3-0.7-0.7-0.7c0,0,0,0,0,0c-0.4,0-0.7,0.3-0.7,0.7
					C1176.5,700.5,1176.8,700.8,1177.2,700.8C1177.2,700.8,1177.2,700.8,1177.2,700.8z"/>
				<path class="st18" d="M1177.2,700.8c0.4,0,0.7-0.3,0.7-0.7c0-0.4-0.3-0.7-0.7-0.7c0,0,0,0,0,0c-0.4,0-0.7,0.3-0.7,0.7
					C1176.5,700.5,1176.8,700.8,1177.2,700.8C1177.2,700.8,1177.2,700.8,1177.2,700.8z"/>
				<path class="st18" d="M1177.2,700.8c0.4,0,0.7-0.3,0.7-0.7c0-0.4-0.3-0.7-0.7-0.7c0,0,0,0,0,0c-0.4,0-0.7,0.3-0.7,0.7
					C1176.5,700.5,1176.8,700.8,1177.2,700.8C1177.2,700.8,1177.2,700.8,1177.2,700.8z"/>
				<path class="st19" d="M1074.4,865.1c-0.4-12-24.9-21.6-55.1-21.6c-21.2,0-39.9,5-48.8,19.9c-10.5,2-18,7-18.2,13
					c-7.6,2.5-12.6,6.8-12.6,11.7c0,7.8,12.8,14.1,28.5,14.1c12,0,22.2-3.6,26.4-8.8c9.2,7,27.6,11.8,48.8,11.8
					c30.4,0,55.1-9.8,55.1-21.9C1098.7,875.7,1089.1,869,1074.4,865.1z"/>
				
					<linearGradient id="SVGID_9_" gradientUnits="userSpaceOnUse" x1="-133.89" y1="-69.2158" x2="976.96" y2="-69.2158" gradientTransform="matrix(1 0 0 -1 0 900)">
					<stop  offset="0" style="stop-color:#408100"/>
					<stop  offset="0.24" style="stop-color:#367503"/>
					<stop  offset="0.65" style="stop-color:#1B570B"/>
					<stop  offset="1" style="stop-color:#013913"/>
				</linearGradient>
				<path class="st20" d="M-133.9,861.7c0.6-41.9,792.1-25.3,1110.8,172.8c-247.3,107.4-641.9,56.4-1094.2-26.5L-133.9,861.7z"/>
				
					<linearGradient id="SVGID_10_" gradientUnits="userSpaceOnUse" x1="841.3699" y1="509.25" x2="841.3699" y2="101.71" gradientTransform="matrix(1 0 0 -1 0 900)">
					<stop  offset="0" style="stop-color:#60A9AC"/>
					<stop  offset="2.000000e-02" style="stop-color:#66AFB2"/>
					<stop  offset="0.13" style="stop-color:#8BD6DC"/>
					<stop  offset="0.22" style="stop-color:#A2EEF5"/>
					<stop  offset="0.27" style="stop-color:#ABF7FF"/>
					<stop  offset="0.41" style="stop-color:#8DE6EC"/>
					<stop  offset="0.55" style="stop-color:#6BD2D6"/>
					<stop  offset="0.65" style="stop-color:#5DBCC2"/>
					<stop  offset="0.87" style="stop-color:#39848F"/>
					<stop  offset="1" style="stop-color:#215F6D"/>
				</linearGradient>
				<path class="st21" d="M2040.2,582.4c0,29.7-72.5,56.8-192.1,77.4c-27,77-510.2,138.4-1102.2,138.4
					c-609.4,0-1103.4-65-1103.4-145.2c0-41.1,129.4-78.1,337.4-104.5c-30.8-12.7-47.7-26.4-47.7-40.7c0-64.7,344-117.1,768.5-117.1
					c331.7,0,614.3,32,721.9,76.9C1774.8,478.3,2040.2,525.6,2040.2,582.4z"/>
				<g class="st22">
					<path class="st23" d="M603.9,413.3c-0.6,1.1-0.6,2.4,0,3.6c0.6,1.1,1.4,2,2.5,2.6c2.1,1.3,4.4,2.2,6.8,2.8
						c4.9,1.2,9.8,1.9,14.8,2.2c10,0.8,20.1,0.8,30.2,0.6c2.5,0,5-0.1,7.6-0.2s5-0.2,7.5-0.3c5-0.2,10-0.6,15-1.2
						c1.3-0.1,2.5-0.4,3.7-0.5s2.5-0.4,3.7-0.7c2.4-0.5,4.8-1.1,7.2-2c1.1-0.4,2.2-1,3.3-1.6c1-0.6,1.8-1.5,2.4-2.5
						c0.5-1.1,0.5-2.3,0-3.4c-0.5-1.2-1.2-2.2-2.1-3c1,0.8,1.9,1.7,2.5,2.9c0.7,1.2,0.8,2.6,0.3,3.9c-0.5,1.3-1.4,2.3-2.5,3.2
						c-1.1,0.8-2.2,1.4-3.4,2c-4.7,2-9.7,3.4-14.8,4.1c-10,1.5-20.2,2.3-30.3,2.4c-5.1,0.1-10.2,0-15.3-0.1
						c-5.1-0.2-10.2-0.5-15.2-1.2c-2.5-0.3-5.1-0.7-7.6-1.2c-2.5-0.5-5-1.2-7.4-2c-2.5-0.8-4.8-2-6.9-3.5c-1.1-0.8-1.9-1.9-2.4-3.1
						C603.1,415.7,603.2,414.4,603.9,413.3z"/>
				</g>
				<g class="st24">
					<path class="st23" d="M591,414.8c-0.9,1.4-1.3,3.1-1,4.7c0.4,1.6,1.2,3,2.4,4.1c2.5,2.1,5.4,3.7,8.5,4.6
						c6.3,1.9,12.8,3.2,19.4,3.9c13.2,1.3,26.5,1.9,39.8,1.8c6.6,0,13.3-0.1,19.9-0.4s13.2-0.8,19.8-1.7c1.6-0.3,3.3-0.5,4.9-0.8
						l2.4-0.5l2.4-0.6c3.2-0.7,6.3-1.9,9.2-3.4l1.1-0.6c0.3-0.2,0.7-0.5,1-0.7c0.7-0.5,1.3-1,1.8-1.5c1.1-1.1,1.9-2.6,2.1-4.1
						c0.2-1.6-0.1-3.2-0.8-4.7c-0.7-1.5-1.6-2.9-2.8-4.1c1.3,1.1,2.3,2.4,3.2,3.9c0.9,1.5,1.3,3.3,1.2,5c-0.2,1.8-0.9,3.4-2,4.8
						c-0.6,0.7-1.2,1.3-1.9,1.8c-0.3,0.3-0.7,0.6-1,0.8l-1.1,0.7c-2.9,1.7-6.1,3.1-9.4,4l-2.4,0.7l-2.5,0.6c-1.6,0.4-3.3,0.7-4.9,1
						c-13.3,2.3-26.7,2.8-40.1,2.9c-6.7,0-13.4-0.2-20.1-0.5s-13.4-0.9-20-2c-6.7-0.9-13.3-2.5-19.6-4.8c-0.8-0.4-1.5-0.7-2.3-1
						s-1.5-0.8-2.2-1.2c-1.5-0.9-2.8-1.9-4-3.1c-1.2-1.2-2-2.8-2.3-4.6C589.5,417.9,590,416.2,591,414.8z"/>
				</g>
				<g class="st25">
					<path class="st23" d="M577.6,415.3c-1.8,3.8-1.7,8.3,0.2,12.1c1.9,3.7,5.2,6.4,8.8,8.5c3.6,2.1,7.4,3.7,11.4,4.8
						c2,0.6,4,1.1,6,1.6s4.1,0.9,6.1,1.3c16.5,2.9,33.4,3.5,50.2,3.5c8.4-0.1,16.8-0.2,25.2-0.9c8.4-0.6,16.7-1.8,24.8-3.7
						c4-1,8-2.3,11.8-4c3.8-1.6,7.2-4,10-7c1.3-1.5,2.4-3.3,3.1-5.2c0.7-1.9,0.9-4,0.8-6c-0.2-2.1-0.6-4.1-1.4-6.1
						c-0.7-2-1.7-3.8-2.9-5.6c2.8,3.3,4.6,7.3,5.1,11.6c0.3,2.2,0.1,4.4-0.5,6.5c-0.7,2.1-1.7,4.1-3.1,5.8c-2.8,3.3-6.4,6-10.3,7.8
						l-2.9,1.4c-1,0.4-2,0.8-3,1.1s-2,0.7-3,1s-2,0.6-3.1,0.9c-8.3,2.1-16.7,3.6-25.2,4.3c-8.5,0.8-17,1-25.4,1.1s-17-0.2-25.4-0.8
						c-8.5-0.6-16.9-1.7-25.3-3.4c-4.2-0.9-8.3-2-12.3-3.4c-4.1-1.3-8-3.2-11.6-5.5c-3.6-2.4-6.9-5.4-8.7-9.4
						C575.3,423.6,575.5,419.1,577.6,415.3z"/>
				</g>
				
					<linearGradient id="SVGID_11_" gradientUnits="userSpaceOnUse" x1="949.1597" y1="593.6371" x2="949.1597" y2="172.6801" gradientTransform="matrix(1 0 0 -1 0 900)">
					<stop  offset="0.15" style="stop-color:#8EB65C"/>
					<stop  offset="0.32" style="stop-color:#8AB35C"/>
					<stop  offset="0.49" style="stop-color:#7EA95C"/>
					<stop  offset="0.66" style="stop-color:#699A5C"/>
					<stop  offset="0.83" style="stop-color:#4C845C"/>
					<stop  offset="1" style="stop-color:#28685C"/>
					<stop  offset="1" style="stop-color:#27675C"/>
				</linearGradient>
				<path class="st26" d="M-104.6,340.3c0,0,120.6-59.9,875.6-20.6c0,0,1313-22.6,1357.4,92.5c265.2,91.6,179.9,200.6-16.3,315.1
					h-509.3c108.5-21.4,167.4-46.4,179.4-72.5c328.9-52.1,258.2-160.5-424.2-187.8c-76.4-29.7-134-33-237.5-34.3
					c0,0,26.9-6.6-20.6-13.9c-66.7-10.3-321.4-12.8-321.4-12.8s-501.1,3.4-369.9,26.7c0,0-721.6,41.5-487,127.6l-5.1-11.5
					C-499.1,512.4-496.8,442.2-104.6,340.3z"/>
				<g class="st11">
					<path class="st12" d="M458.1,459.6c-20.3,1.2-40.7,2.5-61,4.1s-40.6,3.2-60.9,5.1s-40.6,3.9-60.8,6.1s-40.5,4.8-60.6,7.6
						c-40.3,5.5-80.5,12.3-120.1,21.9C75,509.4,55.4,515,36.6,522.6c-9.5,3.7-18.6,8.2-27.2,13.6c-4.3,2.7-8.3,5.8-12,9.3
						c-3.8,3.4-6.9,7.5-9.1,12.1c2.2-4.6,5.1-8.8,8.8-12.4c3.7-3.6,7.6-6.8,11.9-9.6c8.6-5.6,17.6-10.4,27.1-14.3
						c18.8-8,38.5-13.8,58.2-19c4.9-1.3,9.9-2.5,14.9-3.7c5-1.2,10-2.3,14.9-3.3c10-2.1,20-4.1,30-5.9c20.1-3.7,40.2-6.9,60.4-9.7
						s40.5-5.2,60.7-7.4s40.6-4.1,60.9-5.7s40.7-3,61-4.3c10.2-0.6,20.4-1.1,30.5-1.5C437.8,460.3,448,459.9,458.1,459.6z"/>
				</g>
				<g class="st11">
					<path class="st12" d="M379.3,479.4c-15.7,1.7-31.3,3.4-47,5.3s-31.3,3.7-46.9,5.8s-31.3,4.1-46.9,6.3s-31.2,4.6-46.7,7.2
						c-31.1,5-62.1,10.7-92.7,18c-15.3,3.5-30.5,7.9-45.3,13c-7.4,2.6-14.7,5.6-21.7,9.1c-0.9,0.4-1.8,0.9-2.6,1.4l-2.6,1.5
						c-1.6,1-3.4,2-4.9,3.2c-3.3,2.2-6.2,4.9-8.6,8c2.3-3.2,5.1-6,8.3-8.3c1.5-1.2,3.2-2.3,4.9-3.4l2.5-1.6c0.9-0.5,1.7-1,2.6-1.5
						c7-3.7,14.2-7,21.6-9.8c14.8-5.4,30-10.1,45.3-13.9c15.3-4,30.7-7.2,46.2-10.3s31-5.8,46.6-8.4s31.2-4.8,46.8-6.9
						s31.3-4.2,46.9-5.9s31.4-3.4,47.1-5l23.6-2.1C363.5,480.5,371.4,479.9,379.3,479.4z"/>
				</g>
				<path class="st27" d="M1414.5,493.2L1414.5,493.2z"/>
				<path class="st27" d="M860.5,442.4L860.5,442.4z"/>
				<path class="st27" d="M738.9,404.5c49,0.6,65.8-4.9,64.6-5.9s19.1-10.3,92,4.6c18.6,3.8,32.1,5.9,42.2,7
					c25.3-1.4,34.5-4.6,33.6-5.4c-1.2-1,19.1-10.3,92,4.6s67.7,3.8,83.4,4.6s57.2,8.3,57.2,8.3l8.2-1.1
					c53.1,2.6,66.5-13.3,82.8-12.4c15.7,0.9,55.4,4.8,55.4,4.8l11.2,1.6c10.8-1.5,103.5,7.5,102.8,6.9c-1.2-1,97.8,8,163.6,4.3
					c74.3-4.2,87.6-4.1,103.3-3.2s51.5-11.7,51.5-11.7c-29.2,24.3-39.7,2.8-23.8,47.2c0,0,4.7,16.6,9.2,17s-5,2.6-18.9-12.3
					c0,0-7.4,11.8-16.6,14.2c0,0,12.1-9,2.8-18.1c0,0-5.3,17.9-29.6,26.1c0,0,23.5-17.5,16.3-26.1c0,0-5.6,6-9.1,7.9
					c0,0,6.5-10.3,1.6-13c0,0-19,17.8-21.9,21.4c0,0,12.4-17.8,9.2-22.5c0,0-10.8,7.8-14.3,11c0,0,4.9-11,2.9-10.2
					c-3.5,1.4-10.6,30.1-26.5,32.3c0,0,4.7,12.9,3,6.7c0,0-6.4,19.2-11.8,20.9c0,0,8.3-5.4,5.8-8.2c0,0-21,17.6-35.8,18.5
					c0,0,20.1-10.2,18.6-16.5l-2.9-5.6c0,0-4.2,4-7.1,7.2c0,0-2.1,0.6-1-4.5c3-14.1,0.3,4.3-15.2,13.4c0,0,13.5-15.7,7.3-21.1
					c0,0-18,12.8-26.5,22.1c0,0,9-9.8,5-19.7c-1.6,2.5-10.9,9.9-11.8,15.4c0.9,1.3,1.9,2.1,2.9,2.2c4.6,0.4-5.1,2.6-18.9-12.3
					c0,0-7.4,11.8-16.6,14.2c0,0,9-6.7,5.5-14.4c-9.7,8-3.2,6.1-2.6-3.6c-0.4-0.4-4.8,17.5-29.7,26.1c0,0,23.5-17.5,16.3-26.1
					c0,0-5.6,6-9.1,7.9c1.1-1.8,2-3.8,2.7-5.8c-0.3-1.8-0.7-4.4-1.3-7.1c-0.7,0.6-5.6,5.3-10.7,10.2c0.2,6.1,0.8,12.1,2,14.3
					c0,0-2.9-5-5.9-10.5c-11.2,11-7.4,9.2-1.3-2.3c-1.5-2.7-2.8-5.4-3.8-7.6c-8,6-7.3,6.2-6.9,5.2c-1.4,1.9-2.8,3.5-4.1,4
					c0,0,5.1-5.4,4.1-11.8c-4.1,3.6-10.9,10.8-23.3,12.4c0,0,16.9-6.8,15.6-13.1c-0.4,0.3-10.6,7-15.3,8.5c2-1.3,3.9-3,5.4-4.9
					c0.3-1.1,0.4-2.2,0.5-3.3c-0.1-0.2-20.9,17.5-35.9,18.5c0,0,20.1-10.2,18.6-16.5l-2.8-5.6c0,0-4.2,4-7.1,7.2c0,0-2.1,0.6-1-4.5
					c3-14.1,0.3,4.3-15.2,13.4c0,0,13.5-15.7,7.3-21.1c0,0-18,12.8-26.5,22.1c0,0,9-9.8,5-19.7c-1.6,2.5-11.6,10.5-11.9,15.9
					c0,0-3-12.4,1.6-21.2c0,0-2.3,4.3-14.9,7.4c0.2-0.1,2-0.9,3.2-8.5c0,0-15.7,9.1-22.2,16.6c0,0,5.1-6.3,1.4-18.5
					c0,0-16.4,0.2-18.1,14.3c0,0-2.5-19.3-6.2-22.2c0,0-1.3,9.2-1.1,14.4s-3.1-5.6-4.2-7s-1.7,24.8,1.2,29.8
					c0,0-12.2-20.9-12.6-24.5c0,0-5.4,11.5-9.5,13.3c0,0,5.4-5.8,4-12.5c-1.9-0.3-3.7-0.8-5.3-1.7c-2.2,1.9-6.1,4.4-13.2,7.4
					c0,0,2.7-1.4,1.1-14.6c0,0-10,2.2-13.4,12.4c-1.4-6,1.3-3.5-5.2-1.8c1.7-1.4,3.2-3,4.4-4.8c-0.2-3,0.3-6,1.4-8.8
					c-0.2-0.4-0.3-0.9-0.6-1.3c-0.8-0.1-2.1-0.3-3.6-0.5c-2.6,5.3-10.1,17.1-28.4,23.4c0,0,21.9-16.3,17-25.1l-1.3-0.2
					c-1.6,1.7-5.7,5.7-8.4,7.2c1.6-2.5,2.7-5.2,3.3-8.1c-2-0.4-3.9-0.7-5.8-1.1c-5.8,5.5-15.8,15.1-17.8,17.5c0,0,8.8-12.6,9.7-19.4
					c-1.2-0.3-2.4-0.6-3.4-1c-3.5,2.5-9,6.7-11.3,8.8c0,0,4.9-11,2.9-10.2c-3.5,1.4-10.3,12.3-26.1,14.5c0,0,17.2-7,15.6-13.2
					c0,0-9.8,7-15.2,8.7c0,0,8.3-5.4,5.8-8.2c0,0-21,17.6-35.8,18.5c0,0,20.1-10.2,18.6-16.5l-2.9-5.6c0,0-4.2,4-7.1,7.2
					c0,0-2.1,0.6-1-4.5c3-14.1,0.3,4.3-15.2,13.4c0,0,13.5-15.7,7.3-21.1c0,0-5.6,4-12.1,9.2c1.2,2,2.6,3.5,3.9,3.7
					c2.9,0.3,0.1,1.2-6-1.9c-24.3,19.8-5.3,10.1-6.3-4.2c-0.9-0.7-1.8-1.5-2.7-2.3c-2.2,2.3-9.9,9.4-10.2,13.9c-0.7-3-1-6-1-9
					c-2.6,2.5-5.8,4.4-9.2,5.5c0,0,8.3-6.1,5.9-13.4c-2.2,1-4.5,1.9-6.8,2.5c-4,5.9-11.7,14-25.9,18.9c0,0,16-11.9,17.6-20.9
					c-24.6,16.8-5.1,13.4-11.4-7.7c-31.9,30.1-16,18.8-10.3,2.7c-12.1,6.7-5.2,21.6-9.6,1c-7.5,5.9-3.6,4.7-1.2-4.8
					c-0.2-0.6-0.3-1.2-0.5-1.7c-1.4,0.8-2.7,1.8-3.8,3c-0.6,7.4,0.8,11.6-2.9,2.5c-0.7,0.6-1.5,1.2-2.3,1.8
					c-0.4,7.6-0.1,21.2,1.9,24.8c0,0-7.3-12.5-10.8-19.8c-1.7,0.7-3.4,1.2-5.2,1.6c-1.8,3-4.1,6.2-6.1,7c1.7-1.9,2.9-4.2,3.7-6.6
					c-0.9,0.1-0.8,0.2,0-0.2c0.4-1.5,0.6-3,0.4-4.5c-1.2,0.4-0.9,0.4,0-0.2c-0.1-1.1-0.4-2.1-0.9-3.1c-7.3,5.3-20,13.3-29.8,13.9
					c4.6-2.4,9-5.2,13.2-8.4c0.4-1.9,0.7-5.3,0-11.3c-1.4,1.4-3.1,3.2-4.5,4.7c0,0-1.8,0.5-1.3-3.2c-3.6,2.3-6.3,5.8-7.7,9.8
					c-1.3-5.4,1.6-3-7.3,2.3c2.5-2.9,4.6-6.1,6.5-9.5c0-3.2,0.4-6.8,2-9.3c0,0-1.4-0.2-3.7-0.5c-5.2,3.9-17.4,13.1-24,20.3
					c0,0,9-9.8,5-19.7c-1.6,2.5-11.6,10.6-11.9,15.9c0,0-3-12.4,1.6-21.2c0,0-1.8,3.5-11.5,6.5l-0.2,1.6c0,0,4.6,16.6,9.2,17
					s-5,2.6-18.8-12.3c0,0-7.5,11.8-16.6,14.2c0,0,8.3-6.2,5.8-13.5c-3,2.9-1.5,2.3-0.3-0.8c-0.7-1.4-1.6-2.7-2.7-3.8
					c0,0-5.4,17.9-29.6,26.2c0,0,23.5-17.5,16.3-26.1c-1.9,2-6.4,6.5-9.1,7.9c0,0,6.5-10.4,1.5-13c0,0-3.1,2.9-6.9,6.6
					c0.1,6.5,0.7,13.4,2,15.7c0,0-3.3-5.6-6.5-11.5c-18.7,18-8.2,10.6-2.2-4.1c-1-1.9-1.9-3.7-2.6-5.3c-1.7,1.3-3.8,2.8-5.8,4.3
					c-1.6,2.4-3.4,4.7-5,5.4c0.9-1,1.6-2,2.2-3.2c-0.9,0.7-1.6,1.3-2.2,1.9c0,0,4.9-11,2.9-10.2c-3.5,1.4-10.3,12.3-26.1,14.5
					c0,0,16.8-6.8,15.6-13c-3.5,1.9-10.4,6.9-15.3,8.4c0,0,8.3-5.4,5.8-8.2c0,0-21,17.6-35.8,18.5c0,0,20.1-10.2,18.6-16.5l-2.8-5.6
					c0,0-4.2,4-7.1,7.2c0,0-2.1,0.6-1-4.5c3-14.1,0.3,4.3-15.2,13.4c0,0,13.5-15.7,7.3-21.1c0,0-18,12.8-26.5,22.1c0,0,9-9.8,5-19.7
					c-1.6,2.5-11.6,10.6-11.9,15.9c0,0-3-12.4,1.6-21.2c0,0-2.3,4.3-14.9,7.4c0.2-0.1,2-0.9,3.2-8.5c0,0-15.7,9.1-22.2,16.6
					c0,0,5.1-6.3,1.4-18.5c0,0-16.4,0.2-18.1,14.3c0,0-2.5-19.3-6.2-22.2c0,0-1.3,9.2-1.1,14.4s-3.1-5.6-4.2-7s-1.7,24.8,1.2,29.9
					c0,0-12.2-20.9-12.6-24.5c0,0-5.4,11.5-9.5,13.3c0,0,8.5-9.1,1.3-17.7c0,0-0.3,4.4-15.9,11c0,0,2.7-1.4,1.1-14.6
					c0,0-10,2.2-13.4,12.4c0,0-2.5-10.8,1.2-16.5c0,0-38.3-4.8-44.5-9.3S689.8,403.9,738.9,404.5z M1585.6,499.4
					c-0.2,1.5,3.1,11.2,6,15.3c-0.6-2.9-2.2-13,1.8-20.4C1593.3,494.2,1592,496.8,1585.6,499.4L1585.6,499.4z M1347.8,483.2
					c-0.2,0.8-0.6,1.5-1.2,2.1c1.1,1.6,2.2,2.7,3.3,2.8l0.4,0C1349.9,486.3,1349,484.6,1347.8,483.2z M1112.3,461.6
					c-0.5-1-0.8-2-1.1-3c0,0-1.1,2.4-2.7,5.1C1109.7,463.1,1111,462.4,1112.3,461.6L1112.3,461.6z"/>
				<g class="st28">
					
						<linearGradient id="SVGID_12_" gradientUnits="userSpaceOnUse" x1="1016.7903" y1="575.9421" x2="1016.7903" y2="575.9421" gradientTransform="matrix(1.19 -1.000000e-02 1.000000e-02 -1 -653.74 949.83)">
						<stop  offset="0" style="stop-color:#8EB65C"/>
						<stop  offset="0.24" style="stop-color:#65975C"/>
						<stop  offset="0.53" style="stop-color:#38745C"/>
						<stop  offset="0.68" style="stop-color:#27675C"/>
					</linearGradient>
					<path class="st29" d="M562,363.7L562,363.7z"/>
					
						<linearGradient id="SVGID_13_" gradientUnits="userSpaceOnUse" x1="698.0601" y1="555.8494" x2="698.0601" y2="555.8494" gradientTransform="matrix(1.19 -1.000000e-02 1.000000e-02 -1 -653.74 949.83)">
						<stop  offset="0" style="stop-color:#8EB65C"/>
						<stop  offset="0.24" style="stop-color:#65975C"/>
						<stop  offset="0.53" style="stop-color:#38745C"/>
						<stop  offset="0.68" style="stop-color:#27675C"/>
					</linearGradient>
					<path class="st30" d="M182.5,387L182.5,387z"/>
					
						<linearGradient id="SVGID_14_" gradientUnits="userSpaceOnUse" x1="612.15" y1="558.459" x2="1215.26" y2="558.459" gradientTransform="matrix(1.19 -1.000000e-02 1.000000e-02 -1 -653.74 949.83)">
						<stop  offset="0" style="stop-color:#8EB65C"/>
						<stop  offset="0.24" style="stop-color:#65975C"/>
						<stop  offset="0.53" style="stop-color:#38745C"/>
						<stop  offset="0.68" style="stop-color:#27675C"/>
					</linearGradient>
					<path class="st31" d="M99,413.6c33.6,1.1,45,6,44.1,6.8s13,8.9,62.9-0.8c9.6-2,19.2-3.4,28.9-4.3c17.3,1.9,23.6,4.8,23,5.4
						c-0.9,0.8,13,8.9,62.9-0.8s46.3-0.9,57.1-1.1s39.2-4.8,39.2-4.8l4-0.2c51.9-9.9,42.5-2.8,53.7-3c10.8-0.2,39.2-4.8,39.2-4.8
						l3.5-1c3.8,0.8,7.8,0.6,11.5-0.6c-0.9,0.8,6.4,1.6,56.4-8.1c19.4-3.8,30.7-4.7,37.9-4.5c8.5,1.6,11.8,3.3,11.3,3.7
						c-0.9,0.8,13,8.9,62.9-0.8s46.3-0.9,57.1-1.1s39.1-4.8,39.1-4.8l-2.8-26.9c0,0,3.3-13.2,6.5-13.4s-3.4-2.2-13,9.3
						c0,0-5-9.8-11.2-12c0,0,8.2,7.6,1.7,14.7c0,0-3.5-14.5-20-22c0,0,15.9,14.8,10.9,21.5c0,0-3.8-5-6.1-6.7c0,0,4.4,8.5,0.9,10.5
						c0,0-12.8-14.9-14.8-17.9c0,0,8.3,14.7,6.1,18.4c0,0-7.3-6.6-9.7-9.3c0,0,3.3,9,1.9,8.3c-2.4-1.3-6.9-10.2-17.7-12.5
						c0,0,11.7,6.1,10.5,11.1c0,0-6.7-5.9-10.3-7.5c0,0,5.6,4.6,3.9,6.8c0,0-14.2-14.8-24.3-16c0,0,13.7,8.9,12.6,13.9l-2,4.4
						c0,0-2.9-3.3-4.8-6c0,0-1.5-0.6-0.8,3.6c1.9,11.4,0.2-3.4-10.3-11.3c0,0,9.1,13.1,4.8,17.2c0,0-12.2-10.9-17.9-18.6
						c0,0,6.1,8.2,3.2,16c-1.1-2.1-7.3-8.3-8-12.8c0.7-1,1.3-1.6,2-1.7c3.1-0.2-3.4-2.2-13,9.3c0,0-5-9.8-11.2-12
						c0,0,6.1,5.7,3.6,11.8c-6.6-6.8-2.1-5-1.8,2.8c-0.3,0.3-3.1-14.3-20-21.9c0,0,15.9,14.8,10.9,21.5c0,0-3.8-5-6.1-6.7
						c0.7,1.5,1.4,3.1,1.8,4.7c-0.2,1.4-0.5,3.5-0.9,5.7c-0.5-0.5-3.8-4.4-7.2-8.5c0.2-4.9,0.6-9.7,1.5-11.5c0,0-2,3.9-4.2,8.3
						c-7.6-9.2-5-7.7-0.9,1.8c-1,2.1-2,4.3-2.7,6c-5.4-5.1-5-5.2-4.7-4.4c-0.7-1.3-1.6-2.5-2.8-3.4c0,0,3.4,4.5,2.7,9.6
						c-2.7-3.1-7.3-9-15.8-10.7c0,0,11.5,6,10.5,11c-0.3-0.3-7.2-6-10.3-7.3c1.4,1.2,2.7,2.5,3.7,4.1c0.2,0.9,0.3,1.8,0.3,2.7
						c-0.1,0.1-14.1-14.8-24.3-16c0,0,13.7,8.9,12.6,13.9l-2,4.4c0,0-2.8-3.3-4.8-6c0,0-1.5-0.6-0.8,3.6c1.9,11.4,0.2-3.4-10.3-11.3
						c0,0,9.1,13.1,4.8,17.2c0,0-12.2-10.9-17.9-18.6c0,0,6.1,8.2,3.2,16c-1.1-2.1-7.8-8.8-8-13.2c0,0-2.2,9.9,0.9,17.1
						c0,0-1.5-3.5-10.1-6.5c0.2,0.1,1.4,0.8,2.1,6.9c0,0-10.7-7.8-15-14c0,0,3.4,5.3,0.8,14.9c0,0-11.2-0.7-12.2-12.1
						c0,0-1.9,15.4-4.5,17.7c-0.4-3.9-0.6-7.7-0.6-11.6c0.2-4.2-2.2,4.4-2.9,5.5s-0.9-20,1.1-24c0,0-8.5,16.4-8.8,19.3
						c0,0-3.6-9.4-6.4-11c0,0,3.7,4.8,2.6,10.1c-1.3,0.2-2.5,0.6-3.7,1.2c-1.5-1.6-4.1-3.8-8.9-6.4c0,0,1.9,1.2,0.6,11.8
						c-4.5-1.8-7.9-5.6-9-10.4c-1,4.8,0.9,2.9-3.6,1.3c1.2,1.2,2.2,2.5,3,4c-0.2,2.4,0.1,4.8,0.9,7.1c-0.1,0.3-0.2,0.7-0.4,1
						c-0.6,0.1-1.4,0.1-2.5,0.3c-3.6-8.8-10.5-15.9-19.2-19.7c0,0,14.8,13.8,11.4,20.7l-0.9,0.1c-1.1-1.4-3.8-4.8-5.7-6.1
						c1,2.1,1.8,4.3,2.2,6.6c-1.3,0.2-2.7,0.5-4,0.7c-3.9-4.5-10.7-12.6-12-14.7c0,0,5.9,10.4,6.4,15.9c-0.9,0.2-1.6,0.5-2.3,0.7
						c-2.4-2.1-6.1-5.7-7.7-7.4c0,0,3.3,9,1.9,8.3c-2.4-1.3-6.9-10.2-17.7-12.5c0,0,11.7,6.1,10.5,11.1c0,0-6.7-5.9-10.3-7.5
						c0,0,5.6,4.6,3.9,6.8c0,0-14.2-14.8-24.3-16c0,0,13.7,8.9,12.6,13.9l-2,4.4c0,0-2.9-3.3-4.8-6c0,0-1.5-0.6-0.8,3.6
						c1.9,11.4,0.2-3.4-10.3-11.3c0,0,9,13.1,4.8,17.2c0,0-3.8-3.4-8.2-7.8c0.9-1.6,1.8-2.8,2.7-2.8c2-0.1,0-1-4.1,1.4
						c-16.4-16.7-3.5-8.3-4.4,3.2c-0.6,0.5-1.2,1.1-1.9,1.8c-1.5-1.9-6.7-7.8-6.8-11.5c-0.5,2.4-0.7,4.8-0.8,7.2
						c-1.7-2.1-3.8-3.7-6.3-4.7c0,0,5.6,5.2,3.9,11c-1.5-0.9-3-1.6-4.6-2.2c-3.9-7.1-10.1-12.7-17.5-16c0,0,10.9,10.1,11.8,17.4
						c-16.7-14.3-3.4-10.9-7.9,5.9c-21.5-25.2-10.7-15.7-7-2.5c-8.2-5.8-3.3-17.5-6.5-1.1c-5.1-4.9-2.4-3.9-0.9,3.8
						c-0.1,0.5-0.2,0.9-0.4,1.4c-0.9-0.7-1.7-1.6-2.4-2.5c-0.3-6,0.6-9.3-1.9-2.1c-0.5-0.5-1-1-1.5-1.5c-0.2-6.1,0.2-17.1,1.6-19.8
						c0,0-5.1,9.8-7.5,15.6c-1.1-0.6-2.3-1.1-3.6-1.4c-1.2-2.5-2.8-5.1-4.1-5.9c1.2,1.6,2,3.5,2.5,5.4c-0.6-0.1-0.6-0.2,0,0.2
						c0.3,1.2,0.3,2.4,0.2,3.7c-0.8-0.4-0.6-0.3,0,0.2c-0.1,0.8-0.3,1.7-0.6,2.5c-5-4.5-13.5-11.3-20.2-12.1
						c3.2,2.1,6.2,4.5,8.9,7.1c0.4,3,0.4,6.1-0.1,9.1c-0.9-1.2-2.1-2.6-3-4c0,0-1.2-0.5-0.9,2.5c-2.6-2.1-4.4-5-5.2-8.2
						c-0.9,4.3,1,2.4-5-2c1.7,2.5,3.1,5.1,4.3,7.8c-0.2,2.6,0.3,5.2,1.3,7.6c0,0-1,0.1-2.5,0.3c-3.5-3.3-11.8-11.1-16.2-17.1
						c0,0,6.1,8.2,3.2,16c-1.1-2.1-7.8-8.9-8-13.2c0,0-2.2,9.9,0.9,17.1c0,0-1.2-2.9-7.8-5.6l-0.1-1.3c0,0,3.3-13.2,6.5-13.4
						s-3.4-2.2-13,9.3c0,0-5-9.8-11.2-12c0,0,5.6,5.2,3.9,11.1c-2-2.4-1-1.9-0.2,0.7c-0.5,1.1-1.1,2.1-1.9,2.9c0,0-3.5-14.5-20-22
						c0,0,15.9,14.8,10.9,21.5c-1.3-1.7-4.3-5.4-6.1-6.7c0,0,4.4,8.5,0.9,10.5c0,0-2.1-2.4-4.7-5.5c0.1-5.3,0.6-10.7,1.5-12.6
						c0,0-2.3,4.4-4.5,9c-12.6-15-5.5-8.8-1.5,3.3c-0.7,1.5-1.3,2.9-1.8,4.1c-1.2-1.1-2.6-2.4-3.9-3.7c-1.1-2-2.3-3.9-3.4-4.5
						c0.6,0.8,1.1,1.7,1.5,2.6c-0.6-0.6-1.1-1.1-1.5-1.6c0,0,3.3,9,1.9,8.3c-2.4-1.3-6.9-10.2-17.7-12.5c0,0,11.4,6,10.6,11
						c-2.4-1.7-7-5.9-10.4-7.3c0,0,5.6,4.6,3.9,6.8c0,0-14.2-14.8-24.3-16c0,0,13.7,8.9,12.6,13.9l-2,4.4c0,0-2.9-3.3-4.8-6
						c0,0-1.5-0.6-0.8,3.6c1.9,11.4,0.2-3.4-10.3-11.3c0,0,9.1,13.1,4.8,17.2c0,0-12.2-10.9-17.9-18.6c0,0,6.1,8.2,3.2,16
						c-1.1-2.1-7.8-8.9-8-13.2c0,0-2.2,9.9,0.9,17.1c0,0-1.5-3.5-10.1-6.5c0.2,0.1,1.4,0.8,2.1,7c0,0-10.7-7.8-15-14
						c0,0,3.4,5.2,0.8,14.9c0,0-11.2-0.7-12.2-12.1c0,0-1.9,15.4-4.4,17.7c-0.4-3.9-0.6-7.7-0.6-11.6c0.2-4.2-2.2,4.4-2.9,5.5
						s-0.9-20,1.1-24c0,0-8.5,16.4-8.8,19.3c0,0-3.6-9.4-6.4-11c0,0,5.8,7.6,0.7,14.3c0,0-0.2-3.5-10.8-9.3c0,0,1.8,1.2,0.6,11.8
						c-4.5-1.8-7.9-5.6-9-10.4c0,0-1.8,8.6,0.7,13.3c0,0-26.2,2.7-30.5,6.1S65.4,412.5,99,413.6z M679,364.2
						c-0.1-1.2,2.3-8.9,4.2-12.1c-0.4,2.3-1.6,10.3,1,16.5C684.3,368.6,683.4,366.5,679,364.2z M516.2,369.6
						c-0.1-0.6-0.4-1.2-0.8-1.7c0.8-1.3,1.5-2.1,2.3-2.2h0.3C517.7,367.2,517.1,368.5,516.2,369.6L516.2,369.6z M355,379.5
						c-0.3,0.8-0.6,1.6-0.8,2.4c0,0-0.7-1.9-1.8-4.2C353.2,378.2,354.1,378.8,355,379.5z"/>
				</g>
				<path class="st32" d="M329.9,383.1c-1.2,0.4-2.6,0-3.5-0.9c-1.3,0.5-2.9,0.4-4.1-0.4c-1.7-1.3,0.4-2.4,0.4-2.4s-2.1-0.4-1.3-1.8
					c1-1.6,3.9-0.1,3.9-0.1s0.2-2.2,3-1.5s1.6,2.2,1.6,2.2s3.5-0.3,3.5,1.5s-2.4,1.3-2.4,1.3S332.1,382.4,329.9,383.1z"/>
				<path class="st32" d="M178.1,378.3c-1,0.6-2.3,0.6-3.3,0c-1,0.8-2.4,1-3.7,0.6c-1.9-0.7-0.5-2.2-0.5-2.2s-2,0.1-1.7-1.2
					c0.3-1.7,3.4-1.1,3.4-1.1s-0.6-2,2.1-2s2.1,1.5,2.1,1.5s2.9-1.1,3.6,0.5s-1.6,1.6-1.6,1.6c0.6,0.4,0.7,1.2,0.3,1.8
					C178.5,378,178.3,378.2,178.1,378.3z"/>
				<path class="st32" d="M313.5,370.5c-1,0.2-2.1-0.1-2.7-0.9c-1.1,0.3-2.3,0.2-3.2-0.5c-1.3-1.1,0.5-1.9,0.5-1.9s-1.7-0.5-0.9-1.5
					c1-1.2,3.1,0.1,3.1,0.1s0.4-1.7,2.5-1.1s1.1,1.8,1.1,1.8s2.8,0,2.7,1.4s-2,0.9-2,0.9S315.3,370.1,313.5,370.5z"/>
				<path class="st32" d="M447.8,379.3c-0.9,0.7-2.1,0.8-3.2,0.3c-0.9,0.8-2.2,1.2-3.5,0.9c-1.9-0.6-0.6-2.1-0.6-2.1s-1.9,0.3-1.7-1
					c0.2-1.6,3.1-1.3,3.1-1.3s-0.7-1.9,1.8-2.2s2.1,1.3,2.1,1.3s2.7-1.3,3.5,0.1s-1.4,1.8-1.4,1.8c0.6,0.4,0.7,1.2,0.3,1.7
					C448.1,379,448,379.2,447.8,379.3z"/>
				<path class="st32" d="M228.1,369.7c-1.3,0.6-2.8,0.4-3.9-0.5c-1.3,0.8-3,0.9-4.4,0.2c-2.1-1.1-0.2-2.7-0.2-2.7s-2.4-0.1-1.8-1.7
					c0.7-1.9,4.1-0.8,4.1-0.8s-0.3-2.4,2.8-2.1s2.2,2.1,2.2,2.1s3.6-0.8,4.1,1.1s-2.2,1.7-2.2,1.7S230.2,368.7,228.1,369.7z"/>
				<path class="st32" d="M205.1,365.6c-0.9,0.2-1.9-0.1-2.4-0.9c-1,0.3-2.1,0.1-2.9-0.5c-1.1-1,0.5-1.7,0.5-1.7s-1.5-0.5-0.8-1.4
					c0.9-1.1,2.8,0.1,2.8,0.1s0.4-1.6,2.3-0.9s0.9,1.7,0.9,1.7s2.5,0,2.4,1.3s-1.8,0.8-1.8,0.8S206.7,365.3,205.1,365.6z"/>
				<path class="st32" d="M425.3,370c-0.9,0.1-1.8-0.4-2.3-1.2c-1,0.2-2.1-0.2-2.8-0.9c-0.9-1.2,0.9-1.6,0.9-1.6s-1.4-0.7-0.5-1.5
					c1.2-1,2.9,0.5,2.9,0.5c0.4-0.8,1.5-1.2,2.3-0.7c0.1,0,0.1,0.1,0.2,0.1c1.8,0.9,0.6,1.8,0.6,1.8s2.6,0.4,2.2,1.6s-2,0.5-2,0.5
					S427,369.9,425.3,370z"/>
				<path class="st32" d="M267.2,384.9c-1.3,0.4-2.7,0-3.6-1c0,0-2.5,1-4.3-0.4s0.5-2.5,0.5-2.5s-2.2-0.5-1.3-1.8
					c1.1-1.7,4.1-0.2,4.1-0.2s0.3-2.3,3.2-1.6s1.6,2.3,1.6,2.3s3.7-0.3,3.7,1.6s-2.5,1.3-2.5,1.3S269.4,384.3,267.2,384.9z"/>
				<path class="st32" d="M409.1,369.1c-0.7,0.3-1.5,0.2-2.2-0.3c-0.8,0.4-1.7,0.4-2.5,0.1c-1.1-0.6,0-1.5,0-1.5s-1.3-0.1-0.9-1
					c0.5-1,2.3-0.4,2.3-0.4s0-1.4,1.6-1.1s1.1,1.2,1.1,1.2s2-0.4,2.2,0.6s-1.3,0.9-1.3,0.9S410.4,368.6,409.1,369.1z"/>
				<path class="st32" d="M290.7,379.2c-1,0.1-1.9-0.3-2.4-1.1c-1,0.2-2.1-0.1-3-0.8c-1-1.2,0.8-1.7,0.8-1.7s-1.5-0.6-0.6-1.4
					c1.1-1.1,2.9,0.4,2.9,0.4c0.4-0.9,1.4-1.3,2.3-0.9c0.1,0,0.2,0.1,0.3,0.1c1.9,0.8,0.8,1.8,0.8,1.8s2.6,0.2,2.3,1.5s-2,0.6-2,0.6
					S292.4,379,290.7,379.2z"/>
				<path class="st32" d="M419.1,341c-1.1,0.3-2.4,0-3.2-0.8c-1.2,0.5-2.6,0.3-3.7-0.4c-1.5-1.2,0.4-2.2,0.4-2.2s-2-0.4-1.2-1.6
					c1-1.5,3.6-0.1,3.6-0.1s0.2-2,2.7-1.4s1.5,2,1.5,2s3.1-0.3,3.2,1.4s-2.2,1.1-2.2,1.1S421,340.5,419.1,341z"/>
				<path class="st32" d="M288.1,346.3c-0.9,0.5-2.1,0.5-3,0c-0.9,0.7-2.2,0.9-3.3,0.6c-1.7-0.7-0.5-2-0.5-2s-1.8,0.1-1.6-1.1
					c0.3-1.5,3-1,3-1s-0.5-1.8,1.9-1.9s1.9,1.4,1.9,1.4s2.6-1,3.3,0.4s-1.5,1.5-1.5,1.5c0.5,0.4,0.7,1.1,0.3,1.6
					C288.5,346.1,288.3,346.2,288.1,346.3z"/>
				<path class="st32" d="M404,333.3c-0.9,0.2-1.9-0.1-2.5-0.8c-1,0.3-2.1,0.1-2.9-0.5c-1.1-1,0.5-1.7,0.5-1.7s-1.5-0.4-0.8-1.3
					c0.9-1.1,2.9,0.1,2.9,0.1s0.3-1.6,2.3-1s1,1.6,1,1.6s2.5,0,2.5,1.3s-1.8,0.8-1.8,0.8S405.5,333,404,333.3z"/>
				<path class="st32" d="M462.5,351.8c-0.8,0.6-2,0.7-2.9,0.3c-0.8,0.8-2,1.1-3.1,0.8c-1.7-0.5-0.6-1.9-0.6-1.9s-1.7,0.3-1.6-1
					c0.2-1.5,2.8-1.2,2.8-1.2s-0.6-1.7,1.6-2s2,1.2,2,1.2s2.5-1.2,3.1,0.1s-1.3,1.6-1.3,1.6c0.5,0.3,0.7,1,0.4,1.5
					C462.9,351.6,462.7,351.7,462.5,351.8z"/>
				<path class="st32" d="M337.7,347.3c-1.2,0.5-2.6,0.4-3.6-0.4c-1.2,0.7-2.7,0.8-4,0.2c-1.9-1-0.2-2.5-0.2-2.5s-2.2-0.1-1.6-1.5
					c0.6-1.8,3.8-0.7,3.8-0.7s-0.3-2.2,2.5-2s2,1.9,2,1.9s3.3-0.8,3.8,1s-2,1.6-2,1.6S339.7,346.4,337.7,347.3z"/>
				<path class="st32" d="M314.4,333.8c-0.8,0.2-1.7-0.1-2.2-0.8c-0.9,0.3-1.9,0.1-2.6-0.5c-1-1,0.5-1.6,0.5-1.6s-1.4-0.4-0.7-1.2
					c0.8-1,2.6,0.1,2.6,0.1s0.4-1.4,2.1-0.8s0.9,1.5,0.9,1.5s2.3,0,2.2,1.2s-1.7,0.7-1.7,0.7S315.8,333.5,314.4,333.8z"/>
				<path class="st32" d="M503.4,348.7c-0.8,0.2-1.7-0.1-2.3-0.7c-0.9,0.3-1.9,0.2-2.7-0.4c-1-0.9,0.5-1.6,0.5-1.6s-1.4-0.4-0.8-1.2
					c0.8-1,2.7,0,2.7,0s0.3-1.5,2.1-0.9s0.9,1.5,0.9,1.5s2.4-0.1,2.3,1.1s-1.7,0.8-1.7,0.8S504.9,348.3,503.4,348.7z"/>
				<path class="st32" d="M366.7,338.8c-0.7,0.2-1.5,0-2-0.5c-0.7,0.3-1.6,0.2-2.3-0.2c-0.9-0.7,0.3-1.3,0.3-1.3s-1.2-0.3-0.7-1
					c0.6-0.9,2.2-0.1,2.2-0.1s0.2-1.2,1.7-0.9s0.9,1.2,0.9,1.2s2-0.1,2,0.8s-1.3,0.7-1.3,0.7S367.9,338.4,366.7,338.8z"/>
				<path class="st32" d="M486.8,342c-0.7,0.3-1.4,0.2-2-0.3c-0.7,0.4-1.5,0.4-2.2,0.1c-1-0.6,0-1.3,0-1.3s-1.2-0.1-0.9-0.8
					c0.4-1,2.1-0.4,2.1-0.4s-0.1-1.2,1.5-1s1,1.1,1,1.1s1.9-0.4,2,0.6s-1.1,0.8-1.1,0.8S487.9,341.5,486.8,342z"/>
				<path class="st32" d="M385.2,342.6c-0.8,0.3-1.8,0.1-2.4-0.5c-0.9,0.4-1.9,0.4-2.8-0.1c-1.2-0.8,0.2-1.7,0.2-1.7s-1.5-0.2-1-1.1
					c0.6-1.1,2.7-0.3,2.7-0.3s0.1-1.5,2-1.2s1.2,1.4,1.2,1.4s2.4-0.4,2.5,0.9s-1.5,1-1.5,1S386.7,342.1,385.2,342.6z"/>
				<path class="st27" d="M1344,462.7c-0.3,0-0.6,0.2-0.5,0.5c0.9,3.8-1.8,38-1.8,38c-10,4.9-15,4.7-2.9,5.6s-1.5,10.2-4,10.2
					s39,4.1,8.6,8.8c-4.1,0.6,35.1,6.8,11.6,12.3c-8.6,2,22.5,8.1,16.7,15.8s20.9-13.7,31.2-15.8c8.7-1.8-5.4-3.5-9.9-4
					c-0.5,0-0.7-0.5-0.2-0.8c2.2-1.2,8-4,19.1-7.6c12.1-4-8.5-3.6-16.9-3.3c-0.6,0-0.8-0.7-0.2-0.8l13.7-4.2c0.5-0.1,0.5-0.7,0-0.8
					l-15.6-3.7c-0.5-0.1-0.5-0.6-0.1-0.8l13.1-5.8c0.5-0.2,0.3-0.8-0.2-0.8c-3-0.2-8.6-0.9-5.7-2.7c3.7-2.3,4.3-35.6,4.3-39.7
					c0-0.2-0.2-0.4-0.5-0.4L1344,462.7z"/>
				
					<linearGradient id="SVGID_15_" gradientUnits="userSpaceOnUse" x1="1501.8101" y1="508.16" x2="1501.8101" y2="508.16" gradientTransform="matrix(1 0 0 -1 0 900)">
					<stop  offset="0.12" style="stop-color:#27675C"/>
					<stop  offset="1" style="stop-color:#8EB65C"/>
				</linearGradient>
				<path class="st33" d="M1501.8,391.8L1501.8,391.8z"/>
				
					<linearGradient id="SVGID_16_" gradientUnits="userSpaceOnUse" x1="873.71" y1="537.38" x2="873.71" y2="537.38" gradientTransform="matrix(1 0 0 -1 0 900)">
					<stop  offset="0.12" style="stop-color:#27675C"/>
					<stop  offset="1" style="stop-color:#8EB65C"/>
				</linearGradient>
				<path class="st34" d="M873.7,362.6L873.7,362.6z"/>
				
					<linearGradient id="SVGID_17_" gradientUnits="userSpaceOnUse" x1="710.8888" y1="465.1901" x2="1901.3099" y2="465.1901" gradientTransform="matrix(1 0 0 -1 0 900)">
					<stop  offset="0.12" style="stop-color:#27675C"/>
					<stop  offset="1" style="stop-color:#8EB65C"/>
				</linearGradient>
				<path class="st35" d="M732.8,402.5c55.4-2.1,72-2.8,70.4-1.9s19.8,13.8,103.7,8.9c21.4-1.3,36.8-1.5,48.3-1.1
					c28.2,5.2,38,10.1,36.8,10.7c-1.5,0.9,19.8,13.8,103.6,8.9s76.3,6.1,94.1,7.6s65.3-0.2,65.3-0.2l9,2.4
					c59.8,5.2,72.3,24.1,90.8,25.6c17.7,1.5,62.7,3.2,62.7,3.2h12.8c11.9,3.1,117,7.6,116.2,8.1c-1.5,0.9,110.7,6.2,183.8,20
					c82.5,15.6,97.5,17.5,115.2,18.9s55.8,20.2,55.8,20.2c-29-30.2-44-8.9-19.4-53.7c0,0,7.8-17,12.9-16.7s-5.2-3.5-23,10.2
					c0,0-6.5-13.7-16.4-17.6c0,0,12.2,11.3,0.3,19.7c0,0-3.3-19.8-29.1-32.2c0,0,23.6,22.1,14.2,30.1c0,0-5.4-7.3-8.9-9.8
					c0,0,5.7,12-0.3,14c0,0-18.6-21.8-21.2-26c0,0,11.2,20.8,6.9,25.3c0,0-10.9-9.9-14.3-13.8c0,0,3.8,12.5,1.7,11.3
					c-3.7-2-7.3-33.6-24.7-38.2c0,0,7.3-13,4.4-6.6c0,0-4.3-21.4-10-24c0,0,8.4,7,5.3,9.6c0,0-20.8-21.9-37.2-25
					c0,0,21,13.9,18.3,20.4l-4.1,5.5c0,0-4.1-4.9-6.8-8.7c0,0-2.3-1-1.8,4.6c1.2,15.4,0.9-4.5-15-16.5c0,0,12.7,18.7,4.9,23.5
					c0,0-18.2-16.3-26.3-27.4c0,0,8.6,11.8,2.5,21.7c-1.4-2.9-10.7-12.2-10.9-18.1c1.3-1.2,2.5-1.9,3.6-1.9c5.2,0.3-5.3-3.5-23,10.2
					c0,0-6.5-13.7-16.4-17.6c0,0,9.1,8.5,3.9,16.1c-9.6-10-2.6-7-3.5,3.5c-0.5,0.4-2.7-19.3-29.2-32.1c0,0,23.6,22.1,14.2,30.1
					c0,0-5.4-7.3-8.9-9.8c1,2.1,1.7,4.3,2.2,6.5c-0.6,1.9-1.5,4.5-2.5,7.4c-0.7-0.8-5.5-6.5-10.4-12.4c1.1-6.4,2.7-12.8,4.5-14.9
					c0,0-4,4.9-8.3,10.3c-10.9-13.3-6.9-10.9-1.8,2.3c-2,2.7-4,5.3-5.5,7.5c-8.1-7.6-7.3-7.7-6.9-6.6c-1.2-2.2-2.6-4.1-4-4.9
					c0,0,4.8,6.5,2.8,13.1c-4-4.5-10.5-13-24.2-16.7c0,0,17.9,9.8,15.4,16.2c-0.4-0.4-10.8-9-15.8-11.3c0,0,3.8,3.1,5.3,6
					c0.1,1.2,0.1,2.4,0,3.6c-0.2,0.2-20.7-21.8-37.3-25c0,0,20.9,13.9,18.3,20.4l-4.1,5.5c0,0-4.1-4.9-6.8-8.7c0,0-2.3-1-1.9,4.6
					c1.2,15.4,1-4.5-14.9-16.5c0,0,12.7,18.7,4.9,23.5c0,0-18.2-16.3-26.3-27.4c0,0,8.6,11.8,2.5,21.7c-1.4-2.9-11.3-12.9-10.9-18.7
					c0,0-5.3,12.7-1.5,22.7c0,0-1.9-4.9-15.5-10.1c0.3,0.1,2.2,1.2,2.3,9.5c0,0-16.2-12-22.3-20.9c0,0,4.7,7.5-1.3,19.8
					c0,0-18.3-2.7-18-17.9c0,0-5.8,20.1-10.4,22.7c0,0-0.1-10,1-15.5s-4.3,5.5-5.8,6.8s1.9-26.5,5.9-31.5c0,0-16.8,20.4-17.8,24.1
					c0,0-4.3-13-8.6-15.5c0,0,5.2,6.9,2.5,13.8c-2.1,0-4.2,0.3-6.2,1c-2.2-2.3-6.2-5.6-13.6-9.9c0,0,2.8,1.9-1,15.7
					c0,0-10.8-3.8-13-15.1c-2.5,6.2,0.9,3.9-6.1,1.1c1.7,1.7,3.1,3.6,4.2,5.8c-0.7,3.2-0.6,6.5,0.2,9.6c-0.2,0.4-0.5,0.9-0.8,1.3
					h-4.1c-2.1-6-8.7-19.7-28.2-29.1c0,0,22,20.6,15.1,29.2h-1.5c-1.5-2-5.5-6.9-8.3-8.9c0,0,2.4,5,2.4,9.1
					c-2.2,0.1-4.5,0.2-6.7,0.3c-5.6-6.6-15.4-18.4-17.2-21.3c0,0,7.9,14.7,7.8,22c-1.4,0.2-2.8,0.3-4,0.5c-3.5-3.2-9.1-8.5-11.3-11
					c0,0,3.8,12.5,1.7,11.3c-3.7-2-9.6-14.6-27-19.3c0,0,18.2,10,15.4,16.4c0,0-9.9-8.9-15.7-11.5c0,0,8.4,6.9,5.3,9.6
					c0,0-20.8-21.9-37.2-25c0,0,21,13.9,18.3,20.4l-4.1,5.5c0,0-4.1-4.9-6.8-8.7c0,0-2.3-1-1.8,4.6c1.2,15.4,1-4.5-14.9-16.5
					c0,0,12.7,18.7,4.9,23.5c0,0-5.7-5.1-12.1-11.5c1.7-2,3.4-3.4,4.9-3.3c3.3,0.2,0.2-1.3-7,1.2c-24.1-24.7-4.4-11.5-7.8,3.5
					c-1.1,0.6-2.2,1.3-3.4,2c-2.1-2.8-9.7-11.4-9.3-16.3c-1.2,3-2,6.2-2.5,9.4c-2.6-3.1-5.8-5.6-9.5-7.3c0,0,8.3,7.7,4.5,15.1
					c-2.3-1.4-4.7-2.6-7.2-3.7c-3.5-6.9-10.9-16.7-26-24c0,0,16.1,15.1,16.4,24.8c-24.9-21.5-3.7-14.9-14,6.5
					c-31.1-36.8-15-22.4-11.2-4.4c-12.5-8.9-2.5-23.7-10.6-2.5c-7.5-7.3-3.3-5.5-2.1,4.9c-0.3,0.6-0.6,1.2-0.9,1.8
					c-1.3-1.1-2.5-2.3-3.6-3.6c0.5-8,2.7-12.2-2.8-3.1c-0.7-0.7-1.4-1.5-2.3-2.3c0.8-8.1,3.2-22.5,6-26c0,0-10,12.2-15.1,19.4
					c-1.8-1-3.7-1.8-5.6-2.5c-1.6-3.5-3.7-7.2-5.8-8.4c1.6,2.3,2.6,4.8,3.1,7.6c-1-0.3-0.9-0.3,0,0.2c0.2,1.6,0.2,3.3-0.3,4.9
					c-1.2-0.6-0.9-0.5-0.1,0.3c-0.3,1.1-0.8,2.2-1.5,3.2c-7.4-6.7-20.3-17.1-31.2-19.3c4.8,3.3,9.3,6.9,13.5,11
					c0.2,2.1,0,5.7-1.7,12c-1.3-1.7-3-3.8-4.3-5.7c0,0-1.9-0.8-1.9,3.2c-3.7-2.9-6.2-7-7.1-11.6c-2.2,5.6,1.3,3.4-7.8-3.5
					c2.3,3.5,4.2,7.2,5.8,11c-0.5,3.4-0.6,7.2,0.8,10.2h-4.2c-5.3-4.9-17.5-16.5-23.8-25.1c0,0,8.6,11.8,2.5,21.7
					c-1.4-2.9-11.3-12.9-10.9-18.7c0,0-5.3,12.7-1.5,22.7c0,0-1.5-4-11.8-8.6V381c0,0,7.8-17,12.9-16.7s-5.3-3.5-23,10.2
					c0,0-6.5-13.7-16.4-17.6c0,0,8.4,7.8,4.5,15.2c-2.9-3.5-1.4-2.6-0.5,0.8c-1,1.4-2.2,2.6-3.6,3.6c0,0-3.2-19.8-29.1-32.2
					c0,0,23.6,22.1,14.2,30.1c-1.8-2.4-6.1-7.8-8.9-9.8c0,0,5.7,12-0.3,14c0,0-3-3.5-6.8-8c1.2-6.9,2.9-14.1,4.7-16.4
					c0,0-4.5,5.5-9,11.3c-18.1-21.9-7.5-12.5-3.1,4.1c-1.4,1.9-2.7,3.7-3.7,5.2c-1.7-1.6-3.8-3.6-5.8-5.5c-1.4-2.8-3.1-5.5-4.8-6.5
					c0.8,1.2,1.5,2.4,2,3.7c-0.9-0.9-1.6-1.7-2.2-2.3c0,0,3.8,12.5,1.7,11.3c-3.7-2-9.6-14.6-27-19.3c0,0,17.7,9.7,15.5,16.1
					c-3.7-2.6-10.5-8.9-15.8-11.3c0,0,8.4,6.9,5.3,9.6c0,0-20.8-21.9-37.2-25c0,0,21,13.9,18.3,20.4l-4,5.5c0,0-4.1-4.9-6.8-8.7
					c0,0-2.3-1-1.8,4.6c1.2,15.4,0.9-4.5-15-16.5c0,0,12.7,18.7,4.9,23.5c0,0-18.1-16.3-26.3-27.4c0,0,8.6,11.8,2.5,21.7
					c-1.4-2.9-11.3-13-10.9-18.7c0,0-5.3,12.7-1.5,22.7c0,0-1.9-4.9-15.5-10.1c0.3,0.1,2.2,1.2,2.3,9.5c0,0-16.2-12-22.3-20.9
					c0,0,4.7,7.5-1.3,19.8c0,0-18.3-2.7-18-17.9c0,0-5.8,20.1-10.4,22.7c0,0-0.1-10,1-15.5s-4.3,5.5-5.8,6.8s1.9-26.5,5.9-31.5
					c0,0-16.8,20.4-17.8,24.1c0,0-4.3-13-8.6-15.5c0,0,8.2,10.9-1.3,19c0,0,0.3-4.7-16.1-14c0,0,2.8,1.9-1,15.7
					c0,0-10.8-3.8-13-15.1c0,0-4.4,11-1.2,17.7c-13.9,0.3-26.4,2.1-21.9,21.7C744.3,389.2,677.5,404.6,732.8,402.5z M1694.3,411
					c0-1.6,5.2-11.4,9-15.3c-1.1,3-4.4,13.4-1.2,21.9C1702.1,417.6,1701,414.7,1694.3,411L1694.3,411z M1425.6,392.4
					c-0.1-0.9-0.4-1.7-1-2.4c1.4-1.5,2.9-2.6,4.2-2.5h0.5C1428.5,389.4,1427.2,391.1,1425.6,392.4z M1158.7,380
					c-0.7,0.9-1.2,1.9-1.7,3c0,0-0.9-2.6-2.2-5.8C1156,378,1157.3,379,1158.7,380z"/>
				<path class="st36" d="M1453.4,417.9c-12.3,6.8-24.6,13.6-36.2,22.7c-2.8-19.7,27.8-48.5,42.7-60.6c9.8-7.9,20.3-14.3,31-18.2
					c5.1-1.9,10.5-3.3,15.9-4c2.6-0.3,12.2,1.5,14.4,0c-12.9,9.2-22.1,22.1-33,34.1S1466.3,410.9,1453.4,417.9"/>
				<path class="st37" d="M1519.3,358.8c-31,5.4-59,45.5-84.9,67.2c-5,4.2-10.1,7.7-14.5,12.7c-1.7-8.4,6.3-20.8,12.2-28.6
					c7.7-10.5,16.5-20.1,26.3-28.7C1477,365,1500.7,351.7,1519.3,358.8"/>
				<path class="st36" d="M1435.2,433.2c-6.5,1.6-12.3,5.4-18.1,8.2c4.1-16.6,30.7-27.4,42.7-36.3c16.7-12.4,32.4-18.7,48.1-14.4
					c6.5,1.8,13,3.3,19.5,4.8c-16.9,8.9-33.9,15.9-50.6,25.3C1461.7,429.4,1450.1,429.5,1435.2,433.2"/>
				<path class="st37" d="M1434.3,429.6c-6.1,3.6-12.3,7.1-18.3,11.4c5.3-3.8,10.9-14.4,17.6-19.3c8.4-6.3,17.7-10.2,26.1-16.5
					c16.7-12.4,32.4-18.7,48.1-14.4c5.6,1.5,11.5,2.5,16.9,4.3c-22-6.4-66.6,20.6-89.6,34.1L1434.3,429.6"/>
				<path class="st36" d="M1512.3,444.5c-12.4-2.1-28.6,1.1-42,2.1c-11.3,0.8-20.3-3.7-31-4.2c-9.2-0.5-18.5,3.9-23.9-5.2
					c3.8,6.4,21.4-7,26.8-9.7c10.6-5.4,20.8-8.5,31-8.3c9.7,0.3,19.5,2.2,27.1,6.9C1503.9,428.3,1510.8,444.3,1512.3,444.5"/>
				<path class="st37" d="M1510.8,442c-19.1-20.9-50-8.9-78.8-3.5c-7.3,1.4-14,3.6-20.3,0.9c10,4.3,20.3-6.7,30.4-11.9
					c10.6-5.4,20.8-8.5,31-8.3c9.7,0.3,19.4,2.2,27.1,6.9C1504.9,428.9,1510.1,435.8,1510.8,442"/>
				<path class="st36" d="M1428.8,425.5c-5,4.4-8.7,7.3-12.4,12.9c-4-34.4,29.6-77.9,60-96.3c6.7-4,13.4-7.4,20.3-8.9
					C1483.6,365,1454.6,402.6,1428.8,425.5"/>
				<path class="st37" d="M1476.4,342c6.7-4,12.9-7.5,19.6-7.8c-26,23.3-40.9,55.7-64.5,81.7c-5,5.5-10,11-14.8,16.6
					C1413.1,401.5,1449.6,358.2,1476.4,342"/>
				<path class="st36" d="M1419.6,440.3c0.5,0,1-0.1,1.5-0.3c4-1.4,18.7-30.2,21.7-35c15.7-25.4,29.8-53.8,29.2-80.5
					c-0.3-14.5-0.3-18.4,6.4-32.9c-6.9,5.2-12.6,11.9-16.6,19.6c-7.1,13.4-10.9,28.1-17.8,41.7c-13.9,27-31.1,44.7-28.7,72.1
					C1415.7,429.4,1414.7,440.3,1419.6,440.3"/>
				<path class="st37" d="M1422.2,430.7c26.3-36.3,33.8-77.2,45.3-116.3c2.4-8,4.9-17.2,10.9-24c-5.8,6.9-12.6,13.2-16.6,20.7
					c-6.7,12.6-10.1,25.9-16.2,38.5c-5.3,11-13.3,19.9-19.3,30.6c-7.6,13.5-5.1,22.2-4.5,35C1422,420.4,1421.8,425.6,1422.2,430.7"
					/>
				<path class="st36" d="M1414.3,429.3c1.3,5.1,3.3,9.4,6.2,9.7c8,1,13.3-26.2,16.2-34.3c13.7-37.3,7.4-82.5-29.4-81.3
					c8.2,13.6,9,32.4,6.5,51.2c-1.8,13.2-3.6,26.5-2.1,38.9C1412.2,418.8,1413,424.1,1414.3,429.3"/>
				<path class="st37" d="M1422,440.6c11.4-20.6,12.8-39.5,13.1-59.4c0.3-19.1-7.6-47.4-23-54c3.4,15.6,4,31.7,1.8,47.5
					c-2,15.2-5.2,39.6,0.2,54.8C1415.7,434.3,1418.3,438.2,1422,440.6"/>
				<path class="st38" d="M1424.1,439.1c0.7-1.2,1.6-2.4,2.6-3.4c2.6-2.8,5.5-5.4,8.7-7.6c4.5-3.2,9.3-6.1,14.2-8.6
					c5.4-2.9,11.5-5.8,17.6-9.3c5.8-3.3,11.8-6.4,17.9-9.1c2.8-1.2,5.5-2.2,8-3s4.9-1.4,7-1.9c3.3-0.9,6.7-1.5,10.1-1.6
					c2.3,0,3.6,0.3,3.5,0.4c-1.2,0.2-2.4,0.3-3.6,0.3c-3.4,0.5-6.7,1.2-10,2.2c-2.1,0.6-4.4,1.3-6.9,2.1s-5.1,1.9-7.8,3.1
					c-5.5,2.4-11.4,5.6-17.6,9.1s-12.3,6.4-17.7,9.2c-4.9,2.4-9.6,5.1-14.1,8.1c-3.1,2.1-6,4.4-8.8,7
					C1426.1,437.3,1425.1,438.2,1424.1,439.1"/>
				<path class="st38" d="M1501.7,402.8c-1.5,1-3,1.7-4.7,2.3c-3.8,1.3-7.7,2.3-11.7,2.9c-4.5,0.8-8.6,1.4-11.6,1.9s-4.8,1-4.8,0.9
					c1.5-0.7,3.1-1.3,4.8-1.6c3-0.7,7.1-1.4,11.6-2.2c3.9-0.6,7.8-1.5,11.5-2.6C1499.9,403.5,1501.7,402.6,1501.7,402.8"/>
				<path class="st38" d="M1518,358.4c-0.8,0.4-1.6,0.7-2.5,0.9c-1.6,0.5-3.9,1.2-6.7,2.3c-1.4,0.6-2.9,1.2-4.5,2
					c-0.8,0.4-1.6,0.8-2.4,1.4s-1.7,1.1-2.5,1.7c-3.8,2.6-7.4,5.5-10.8,8.5c-7.4,6.5-13.8,12.8-18.5,17.3s-7.6,7.3-7.8,7.1
					s2.5-3.2,7-8s10.8-11.3,18.3-17.8c3.5-3.1,7.2-5.9,11.1-8.5c0.9-0.6,1.8-1.1,2.6-1.7s1.8-1,2.6-1.4c1.5-0.7,3.1-1.4,4.7-1.9
					c2.2-0.8,4.6-1.4,6.9-1.8C1517.1,358.3,1518,358.3,1518,358.4"/>
				<path class="st38" d="M1501.3,373.3c0.1,0.2-5.3,4.2-12.4,8.2s-13.1,6.3-13.1,6s5.8-2.9,12.8-6.8S1501.2,373.1,1501.3,373.3"/>
				<path class="st38" d="M1430.9,425.6c0.7-1.2,1.5-2.4,2.3-3.6c1.5-2.3,3.5-5.6,5.9-9.8c1.2-2.1,2.5-4.4,4-6.9s3.1-5.1,4.7-7.9
					c3.3-5.5,6.7-11.7,10.6-18.1s7.6-12.4,11.3-17.8c3.3-4.7,6.9-9.3,10.7-13.6c2.6-2.9,5.4-5.6,8.4-8.1c1-1,2.2-1.8,3.4-2.5
					c0.2,0.2-4.6,3.9-10.9,11.3c-3.7,4.3-7.1,8.9-10.3,13.6c-3.6,5.3-7.3,11.3-11.2,17.7s-7.3,12.5-10.7,18
					c-1.7,2.8-3.3,5.4-4.8,7.8l-4.1,6.8c-2,3.3-4.1,6.6-6.4,9.7C1433,423.6,1432,424.7,1430.9,425.6"/>
				<path class="st38" d="M1472.1,371c0.1,0.1-1.3,1.7-3.6,4.3s-5.2,6.4-8.5,10.6s-6.3,7.9-8.6,10.5c-1.2,1.5-2.5,2.8-3.9,4
					c1.1-1.5,2.3-3,3.5-4.4c2.2-2.7,5.1-6.5,8.4-10.6s6.4-7.9,8.7-10.5C1469.3,373.4,1470.6,372.1,1472.1,371"/>
				<path class="st38" d="M1434.5,412.3c0.4-1.4,0.9-2.8,1.6-4.1c1-2.6,2.4-6.4,4.1-11.1c3.3-9.5,8.9-22.3,14-36.6
					c1.3-3.6,2.4-7.1,3.5-10.5c0.3-0.9,0.5-1.7,0.8-2.5s0.5-1.6,0.7-2.5c0.5-1.6,0.9-3.2,1.3-4.8c1.5-6.2,2.7-11.9,3.9-16.7
					c0.9-3.8,2.1-7.6,3.6-11.2c0.5-1.4,1.1-2.8,1.9-4c-0.3,1.4-0.8,2.8-1.3,4.1c-0.8,2.6-1.9,6.4-3,11.1s-2.1,10.4-3.6,16.7
					c-0.4,1.6-0.8,3.2-1.2,4.9c-0.2,0.8-0.5,1.7-0.7,2.5s-0.5,1.7-0.8,2.5c-1,3.4-2.2,7-3.5,10.6c-5.1,14.4-11,27.2-14.5,36.6
					c-1.8,4.7-3.4,8.5-4.6,11C1436,409.7,1435.3,411.1,1434.5,412.3"/>
				<g class="st39">
					<g>
						<defs>
							
								<rect id="SVGID_18_" x="1388.5" y="349.1" transform="matrix(0.6392 -0.769 0.769 0.6392 220.0716 1232.5175)" width="70.1" height="65.2"/>
						</defs>
						<clipPath id="SVGID_19_">
							<use xlink:href="#SVGID_18_"  style="overflow:visible;"/>
						</clipPath>
						<g class="st40">
							<path class="st38" d="M1426.8,433.6c0.4-1.4,0.9-2.7,1.6-4c1.5-3.5,2.6-7.2,3.5-10.9c0.3-1.1,0.5-2.4,0.7-3.6
								s0.3-2.5,0.4-3.9c0.3-2.7,0.5-5.6,0.7-8.6c0.5-6.5,0.5-13,0.1-19.5c-0.2-3.2-0.6-6.5-1.2-9.6c-0.6-3.1-1.1-6.1-1.6-8.9
								c-0.8-5-1.8-9.9-3.2-14.7c-0.8-3.1-2.2-6.1-4-8.8c-1.3-1.8-2.4-2.5-2.3-2.6s1.3,0.4,2.8,2c2.1,2.6,3.7,5.5,4.6,8.7
								c1.6,4.8,2.8,9.7,3.6,14.7c0.5,2.8,1.1,5.8,1.7,8.8c0.6,3.3,1.1,6.5,1.3,9.9c0.4,6.6,0.3,13.2-0.3,19.8
								c-0.3,3.1-0.6,6-0.9,8.8c-0.2,1.4-0.3,2.7-0.6,4s-0.5,2.5-0.8,3.7c-1,3.8-2.3,7.5-4.1,11
								C1428.4,431.1,1427.6,432.4,1426.8,433.6"/>
						</g>
					</g>
				</g>
				<path class="st41" d="M1452.3,437.4L1452.3,437.4l-1.1,12.9l1.5,0.7l-6.4,0.5l3.1-1.9l-4.8-21.4l-159.9,13.5h-0.1l-0.2,6.7h0.1
					v7.8c0,0.1,0,0.2,0,0.3v1.1l56,9.2h3.1v0.1l0,0c-2,3.9-3.9,7.7-4,8.2l24,10.5l39.6-0.1c0,0,0.1,0,0.1-0.1l28.3-14.6l1.1-3l0,0
					l0.5-1.3l0.7,1.7l0,0l0.7,1.8l18.4,9c0,0,0,0,0.1,0l25.7,0l15.6-6.5c-0.1-0.3,0.9-4.8-0.4-7.2l-1.2-1l-2.9-2.5
					c-0.3-0.5-3.3-2.2-3.6-2.7c6.9,2.4,20.1-7.9,20.1-7.9s-0.2-2.9-6.7-4.3C1506.7,448.6,1452.3,437.4,1452.3,437.4z"/>
				<path class="st42" d="M1257.7,432.7l21.9-3.9l185.9,2.4c0,0,33.7,24.9,27,23.9c0,0-45.2,11.7-61.3-1.1c0,0-14.6,15.9-52.3,14.5
					s-74-11.9-53.7-20.5c0,0-10.8,2.9-12.9,2.7s-51.8-12.8-51.8-12.8L1257.7,432.7z"/>
				
					<linearGradient id="SVGID_20_" gradientUnits="userSpaceOnUse" x1="1359.8475" y1="591.6444" x2="1524.8416" y2="591.6444" gradientTransform="matrix(0.9994 -3.385292e-02 -3.385292e-02 -0.9994 -59.2024 1066.0242)">
					<stop  offset="1.000000e-02" style="stop-color:#E3C878"/>
					<stop  offset="1" style="stop-color:#CC6922"/>
				</linearGradient>
				<path class="st43" d="M1280,433.5l0.2-24.2l51.7,5.7l74.2-1.5l33.9-9.4l4.8,21.4l-30.2,17.9c0,0-77.7-0.7-78.7-0.8
					S1280,433.5,1280,433.5z"/>
				
					<linearGradient id="SVGID_21_" gradientUnits="userSpaceOnUse" x1="1452.8075" y1="572.1" x2="1452.8075" y2="603.5734" gradientTransform="matrix(0.9994 -3.385292e-02 -3.385292e-02 -0.9994 -59.2024 1066.0242)">
					<stop  offset="0" style="stop-color:#720000"/>
					<stop  offset="0.19" style="stop-color:#760603"/>
					<stop  offset="0.43" style="stop-color:#82160A"/>
					<stop  offset="0.7" style="stop-color:#963017"/>
					<stop  offset="0.99" style="stop-color:#B15529"/>
					<stop  offset="1" style="stop-color:#B3572A"/>
				</linearGradient>
				<path class="st44" d="M1331.7,415.1c0,0,7.3,12.5,1.1,19.1l2.9,8.6l78.4,1c0,0-5.8-25.1-8.4-28.9
					C1405.1,414.1,1331.7,415.1,1331.7,415.1z"/>
				<path class="st45" d="M1280,417.6l58.2,4c0,0,10.9-2.3,13.9-2.8c0,0,1.8,1.8,0.1,2.2s47.6,1.5,47.6,1.5l-53.9,2.1l2.1,1.6l-60,5
					l7.9-3.7l-16.2-3.1L1280,417.6z"/>
				<path class="st46" d="M1440.9,409.5c0,0-84.9,32-105.2,33.3l78.4,1l30.5-18.1L1440.9,409.5z"/>
				<path class="st47" d="M1280,429c-2.1-6.8,98.9,3.8,98.4,4c-13.5,5.7-28,9-42.7,9.7l-56-9.2L1280,429z"/>
				<path class="st45" d="M1350.1,429.5c-1.8,2.7-4.7,4.5-8,4.8c-19.3,2.3-20.3,2.9,7,1.1c5.1-0.3,13.2-3.8,0.1-4
					C1349.2,431.4,1344.7,432.3,1350.1,429.5z"/>
				<path class="st48" d="M1412.9,438.9c-0.8-0.2,16.3-9,23.1-10.6l-10.8,0.6c0,0,11.8-9.1,18-10.1l-16.7,2.8c0,0-7.5,8.3-15.4,7.5
					C1411.1,429,1414.2,439.2,1412.9,438.9z"/>
				<path class="st49" d="M1280.4,420l35.2-4.3c1.2-0.1,1.8,1.9,0.7,2.6l-18.6,12.5c-1.1,0.7-0.6,2.8,0.7,2.6l52.9-5.9
					c1.4-0.2,1.8,2.3,0.4,2.7l-10.8,4.1c-1.3,0.5-1,2.7,0.3,2.8c14.8,0.2,49-0.7,66.7-12c0.5-0.3,1.2-0.1,1.5,0.4
					c0.1,0.1,0.1,0.3,0.1,0.4l4.1,16c0.3,0.7-0.1,1.5-0.9,1.8c-0.1,0-0.1,0-0.2,0.1l-76.8-1l-54.8-9.1c-0.7-0.1-1.2-0.7-1.1-1.5
					l0.1-10.7C1279.9,420.8,1279.8,420.1,1280.4,420z"/>
				<path class="st50" d="M1302.7,396.6l45.2-8.9c0.7,0,1.3,0,1.9,0.2l81.8,4.3c1.6,0.4,3,1.4,3.8,2.9l4.3,9c0,0-34,9.7-34.5,9.8
					l-74.5,3.1l-50.9-7.6l20.3-11.9C1300.9,396.9,1301.8,396.6,1302.7,396.6z"/>
				<path class="st51" d="M1327.9,391.6c0,0,18.8,21,109.9,8.4l1.3,2.8l-35.9,9.7l-69.8,0.5l-35.7-12.5l3.7-3.8L1327.9,391.6z"/>
				<path class="st52" d="M1301,397c0,0,5.3,26.9,136.7,6l0.6,1.3l-34.5,9.8l-72.7,3l-51-7.7L1301,397z"/>
				
					<linearGradient id="SVGID_22_" gradientUnits="userSpaceOnUse" x1="1339.3878" y1="460.7439" x2="1434.7211" y2="460.7439" gradientTransform="matrix(1 -1.745328e-03 -1.745328e-03 -1 -3.8292 910.96)">
					<stop  offset="0" style="stop-color:#CD6D25"/>
					<stop  offset="0.5" style="stop-color:#E3C878"/>
					<stop  offset="1" style="stop-color:#CC6922"/>
				</linearGradient>
				<path class="st53" d="M1334.8,451.1c0.3-1,8.6-16.9,8.6-16.9s19.8,6.9,21.4,6.9s36.2,1.5,36.2,1.5l29.2-4.9l-3.4,9.2l-28.4,14.6
					l-39.6,0.1L1334.8,451.1z"/>
				
					<linearGradient id="SVGID_23_" gradientUnits="userSpaceOnUse" x1="1363.3496" y1="456.4914" x2="1407.4381" y2="456.4914" gradientTransform="matrix(1 -1.745328e-03 -1.745328e-03 -1 -3.8292 910.96)">
					<stop  offset="0" style="stop-color:#720000"/>
					<stop  offset="0.19" style="stop-color:#760603"/>
					<stop  offset="0.43" style="stop-color:#82160A"/>
					<stop  offset="0.7" style="stop-color:#963017"/>
					<stop  offset="0.99" style="stop-color:#B15529"/>
					<stop  offset="1" style="stop-color:#B3572A"/>
				</linearGradient>
				<path class="st54" d="M1358.8,460.8c0.5-1,4.7-18.1,4.7-18.1l39.4,2.4c0,0-3.5,16.4-4.5,16.4l-39.6,0.1L1358.8,460.8z"/>
				<path class="st52" d="M1343.3,434.2l40.1-19.3l38.8,3l6.3,6.5c0,0-1.3,11.9,1.6,13.2l-27.8,9.3l-39.1-2.2L1343.3,434.2z"/>
				
					<linearGradient id="SVGID_24_" gradientUnits="userSpaceOnUse" x1="1347.9773" y1="477.1604" x2="1433.1539" y2="477.1604" gradientTransform="matrix(1 -1.745328e-03 -1.745328e-03 -1 -3.8292 910.96)">
					<stop  offset="0.32" style="stop-color:#720000"/>
					<stop  offset="0.61" style="stop-color:#9D391C;stop-opacity:0.6"/>
					<stop  offset="0.75" style="stop-color:#B3572A;stop-opacity:0.4"/>
				</linearGradient>
				<path class="st55" d="M1395.5,415.8c0,0,16.9,29.7-52.2,18.3l19.8,10.5l39.1,2.2c0,0-18.5-10.7,26.3-22.4l-6.3-6.5L1395.5,415.8
					z"/>
				<path class="st56" d="M1429,440.5l-1.2,3.4l-25,13.1l13.1-8.3l-5.8,2.5l5.8-4.4c0,0-19.3,13-36.6,12.1s1.5-1.1,1.5-1.1
					s10.1-0.8,17.5-3.7c0,0-19.3,3.5-36.1,2.6c0,0,38-5.2,33.4-5.3c-5.9-0.1-26.1,1.9-30.7,2.6c0,0-8.6,3-24.9-3.4
					c0,0,17.1,4.1,19.1,0.5c0,0-7.2,0.4-13-1.9c0,0,12.8,1,15.1-0.5l41.5,0.2L1429,440.5z"/>
				<path class="st48" d="M1342.6,435.6c0,0,10.7,8.1,19.3,9.5c0,0-14.5-1.2-17.8-3.4c0,0,2.6,4.5,4.8,5.2c0,0-7.2-1.6-10.2-4
					L1342.6,435.6z"/>
				
					<linearGradient id="SVGID_25_" gradientUnits="userSpaceOnUse" x1="6959.3999" y1="449" x2="7021.4102" y2="449" gradientTransform="matrix(-1 0 0 -1 8448 895.59)">
					<stop  offset="0" style="stop-color:#CD6D25"/>
					<stop  offset="0.5" style="stop-color:#E3C878"/>
					<stop  offset="1" style="stop-color:#CC6922"/>
				</linearGradient>
				<path class="st57" d="M1489.4,448.6c-0.2-0.6-5.6-10.5-5.6-10.5s-12.9,4.3-13.9,4.3s-23.5,1-23.5,1l-19-3l2.2,5.7l18.5,9h25.7
					L1489.4,448.6z"/>
				
					<linearGradient id="SVGID_26_" gradientUnits="userSpaceOnUse" x1="6974.98" y1="446.32" x2="7003.6602" y2="446.32" gradientTransform="matrix(-1 0 0 -1 8448 895.59)">
					<stop  offset="0" style="stop-color:#720000"/>
					<stop  offset="0.19" style="stop-color:#760603"/>
					<stop  offset="0.43" style="stop-color:#82160A"/>
					<stop  offset="0.7" style="stop-color:#963017"/>
					<stop  offset="0.99" style="stop-color:#B15529"/>
					<stop  offset="1" style="stop-color:#B3572A"/>
				</linearGradient>
				<path class="st58" d="M1473.8,454.7c-0.3-0.6-3.1-11.3-3.1-11.3l-25.6,1.6c0,0,2.3,10.2,2.9,10.2h25.7L1473.8,454.7z"/>
				<path class="st52" d="M1483.8,438.1l-26.1-11.9l-25.2,2l-4,4.1c0,0,0.9,7.4-1,8.2l18.1,5.7l25.4-1.5L1483.8,438.1z"/>
				
					<linearGradient id="SVGID_27_" gradientUnits="userSpaceOnUse" x1="6964.9902" y1="459.155" x2="7020.3701" y2="459.155" gradientTransform="matrix(-1 0 0 -1 8448 895.59)">
					<stop  offset="0.32" style="stop-color:#720000"/>
					<stop  offset="0.61" style="stop-color:#9D391C;stop-opacity:0.6"/>
					<stop  offset="0.75" style="stop-color:#B3572A;stop-opacity:0.4"/>
				</linearGradient>
				<path class="st59" d="M1449.8,426.8c0,0-10.9,18.5,34,11.3l-12.9,6.5l-25.4,1.5c0,0,12-6.7-17.1-13.9l4-4.1L1449.8,426.8z"/>
				<path class="st56" d="M1428.1,442.2l0.8,2.1l16.3,8.1l-8.5-5.1l3.8,1.5l-3.8-2.7c0,0,12.6,8,23.8,7.4s-1-0.7-1-0.7
					c-3.9-0.3-7.7-1.1-11.4-2.3c0,0,12.6,2.2,23.5,1.6c0,0-24.7-3.2-21.7-3.2c3.8-0.1,17,1.1,19.9,1.6c0,0,5.6,1.8,16.2-2.2
					c0,0-11.1,2.6-12.4,0.3c2.9,0.1,5.7-0.3,8.5-1.2c0,0-8.3,0.6-9.8-0.3l-27,0.2L1428.1,442.2z"/>
				<path class="st48" d="M1484.3,439c0,0-6.9,5.1-12.5,6c0,0,9.4-0.8,11.6-2.1c0,0-1.7,2.8-3.1,3.2c0,0,4.7-1,6.6-2.5L1484.3,439z"
					/>
				
					<linearGradient id="SVGID_28_" gradientUnits="userSpaceOnUse" x1="934.01" y1="207.5568" x2="934.01" y2="-51.46" gradientTransform="matrix(1 0 0 -1 0 900)">
					<stop  offset="0.15" style="stop-color:#8EB65C"/>
					<stop  offset="0.32" style="stop-color:#8AB35C"/>
					<stop  offset="0.49" style="stop-color:#7EA95C"/>
					<stop  offset="0.66" style="stop-color:#699A5C"/>
					<stop  offset="0.83" style="stop-color:#4C845C"/>
					<stop  offset="1" style="stop-color:#28685C"/>
					<stop  offset="1" style="stop-color:#27675C"/>
				</linearGradient>
				<path class="st60" d="M-36,736.7c365.9,94.4,1411.5,60.1,1670.1-16c180.4-29.3,312-37.8,373.1-16.3l-63,192.4l-2083.6,54.6
					L-36,736.7z"/>
			</g>
		</g>
	</g>
</g>
</svg>
