<?xml version="1.0" encoding="utf-8"?>
<!-- Generator: Adobe Illustrator 25.2.3, SVG Export Plug-In . SVG Version: 6.00 Build 0)  -->
<svg version="1.1" id="Layer_1" xmlns="http://www.w3.org/2000/svg" xmlns:xlink="http://www.w3.org/1999/xlink" x="0px" y="0px"
	 viewBox="0 0 1600 900" style="enable-background:new 0 0 1600 900;" xml:space="preserve">
<style type="text/css">
	.st0{clip-path:url(#SVGID_2_);}
	.st1{fill-rule:evenodd;clip-rule:evenodd;fill:url(#SVGID_3_);}
	.st2{fill:url(#SVGID_4_);}
	.st3{fill:url(#SVGID_5_);}
	.st4{fill:url(#SVGID_6_);}
	.st5{fill:url(#SVGID_7_);}
	.st6{fill:url(#SVGID_8_);}
	.st7{fill:url(#SVGID_9_);}
	.st8{fill:url(#SVGID_10_);}
	.st9{fill:url(#SVGID_11_);}
	.st10{fill:url(#SVGID_12_);}
	.st11{fill:url(#SVGID_13_);}
	.st12{fill-rule:evenodd;clip-rule:evenodd;fill:url(#SVGID_14_);}
	.st13{fill:url(#SVGID_15_);}
	.st14{fill:url(#SVGID_16_);}
	.st15{fill:url(#SVGID_17_);}
	.st16{fill:url(#SVGID_18_);}
	.st17{fill-rule:evenodd;clip-rule:evenodd;fill:url(#SVGID_19_);}
	.st18{fill-rule:evenodd;clip-rule:evenodd;fill:url(#SVGID_20_);}
	.st19{fill:url(#SVGID_21_);}
	.st20{fill:url(#SVGID_22_);}
	.st21{fill:url(#SVGID_23_);}
	.st22{fill:url(#SVGID_24_);}
	.st23{fill-rule:evenodd;clip-rule:evenodd;fill:url(#SVGID_25_);}
	.st24{fill:url(#SVGID_26_);}
	.st25{fill:url(#SVGID_27_);}
	.st26{fill:url(#SVGID_28_);}
	.st27{fill:url(#SVGID_29_);}
	.st28{fill:url(#SVGID_30_);}
	.st29{fill:url(#SVGID_31_);}
	.st30{fill-rule:evenodd;clip-rule:evenodd;fill:url(#SVGID_32_);}
	.st31{fill-rule:evenodd;clip-rule:evenodd;fill:url(#SVGID_33_);}
	.st32{fill-rule:evenodd;clip-rule:evenodd;fill:url(#SVGID_34_);}
	.st33{fill-rule:evenodd;clip-rule:evenodd;fill:url(#SVGID_35_);}
	.st34{fill-rule:evenodd;clip-rule:evenodd;fill:url(#SVGID_36_);}
	.st35{fill-rule:evenodd;clip-rule:evenodd;fill:url(#SVGID_37_);}
	.st36{fill-rule:evenodd;clip-rule:evenodd;fill:url(#SVGID_38_);}
	.st37{fill:url(#SVGID_39_);}
	.st38{fill:url(#SVGID_40_);}
	.st39{fill:url(#SVGID_41_);}
	.st40{fill:url(#SVGID_42_);}
	.st41{fill:url(#SVGID_43_);}
	.st42{fill-rule:evenodd;clip-rule:evenodd;fill:url(#SVGID_44_);}
	.st43{fill-rule:evenodd;clip-rule:evenodd;fill:url(#SVGID_45_);}
	.st44{fill-rule:evenodd;clip-rule:evenodd;fill:url(#SVGID_46_);}
	.st45{fill-rule:evenodd;clip-rule:evenodd;fill:url(#SVGID_47_);}
	.st46{fill-rule:evenodd;clip-rule:evenodd;fill:url(#SVGID_48_);}
	.st47{fill-rule:evenodd;clip-rule:evenodd;fill:url(#SVGID_49_);}
	.st48{fill-rule:evenodd;clip-rule:evenodd;fill:url(#SVGID_50_);}
	.st49{fill-rule:evenodd;clip-rule:evenodd;fill:#4E6D00;}
	.st50{fill:url(#SVGID_51_);}
	.st51{fill:url(#SVGID_52_);}
	.st52{fill:url(#SVGID_53_);}
	.st53{fill:url(#SVGID_54_);}
	.st54{fill:url(#SVGID_55_);}
	.st55{fill:url(#SVGID_56_);}
	.st56{fill:url(#SVGID_57_);}
	.st57{fill:url(#SVGID_58_);}
	.st58{fill:url(#SVGID_59_);}
	.st59{fill:url(#SVGID_60_);}
	.st60{fill-rule:evenodd;clip-rule:evenodd;fill:#58791C;}
	.st61{fill-rule:evenodd;clip-rule:evenodd;fill:#476F28;}
	.st62{fill:url(#SVGID_61_);}
	.st63{fill:url(#SVGID_62_);}
	.st64{fill:url(#SVGID_63_);}
	.st65{fill:url(#SVGID_64_);}
	.st66{fill:url(#SVGID_65_);}
	.st67{fill:url(#SVGID_66_);}
	.st68{fill:url(#SVGID_67_);}
	.st69{fill:url(#SVGID_68_);}
	.st70{fill-rule:evenodd;clip-rule:evenodd;fill:#565130;}
	.st71{fill-rule:evenodd;clip-rule:evenodd;fill:#6A624C;}
	.st72{fill-rule:evenodd;clip-rule:evenodd;fill:#588319;}
	.st73{fill-rule:evenodd;clip-rule:evenodd;fill:#6C9316;}
	.st74{fill-rule:evenodd;clip-rule:evenodd;fill:#619019;}
	.st75{fill:url(#SVGID_69_);}
	.st76{fill:url(#SVGID_70_);}
	.st77{fill:url(#SVGID_71_);}
	.st78{fill:url(#SVGID_72_);}
	.st79{fill:url(#SVGID_73_);}
	.st80{fill:none;}
	.st81{fill:url(#SVGID_74_);}
	.st82{fill-rule:evenodd;clip-rule:evenodd;fill:#003A17;}
	.st83{fill:#094C26;}
	.st84{fill:#FFFFFF;}
	.st85{fill:#FAF045;}
	.st86{fill:#FF1187;}
	.st87{fill:url(#SVGID_75_);}
	.st88{fill:url(#SVGID_76_);}
	.st89{fill:url(#SVGID_77_);}
	.st90{fill:#031C0F;}
	.st91{fill:#FF4216;}
</style>
<g>
	<defs>
		<rect id="SVGID_1_" width="1600" height="900"/>
	</defs>
	<clipPath id="SVGID_2_">
		<use xlink:href="#SVGID_1_"  style="overflow:visible;"/>
	</clipPath>
	<g class="st0">
		
			<linearGradient id="SVGID_3_" gradientUnits="userSpaceOnUse" x1="-1567.5487" y1="1286.72" x2="-1617.9386" y2="526.4599" gradientTransform="matrix(-1 0 0 -1 -1007.42 900)">
			<stop  offset="1.000000e-02" style="stop-color:#81C2FC"/>
			<stop  offset="0.61" style="stop-color:#FAE6C0"/>
			<stop  offset="1" style="stop-color:#FFFFD7"/>
		</linearGradient>
		<polygon class="st1" points="1730.8,634 -543.1,634 -543.1,-390.8 1730.8,-390.6 		"/>
		
			<linearGradient id="SVGID_4_" gradientUnits="userSpaceOnUse" x1="207.2482" y1="1027.1713" x2="177.7982" y2="740.7212" gradientTransform="matrix(1 0 0 -1 685.91 900)">
			<stop  offset="1.000000e-02" style="stop-color:#FFFFFF"/>
			<stop  offset="1" style="stop-color:#FCF5DE"/>
		</linearGradient>
		<path class="st2" d="M1140,49.8c0-3.5-18.2-6.6-45-8.2c0.4-0.3,0.6-0.7,0.7-1.2c9.1-7-14-24.5-35.6-7.9c5-2.4,6.4-5.3,7.8-7.9
			c9.2-16.3-29.7-39.9-66.2-16.8c-8.6,0-17.2,0.4-25.8,1.3C972.9-1.5,955.3-9.8,934-9.8c-2.8,0-5.6,0.1-8.3,0.4
			c-3.8-15.9-23.7-28-47.9-28c-16.8,0-31.6,5.9-40.3,14.8h-0.6c-13.3,0-34.2,9.1-35.5,20.8c-15,2.4-17.2,6.8-24.8,12.4
			c-5.6-2.9-13.5-4.7-22.2-4.7c-16.9,0-41.7,6.6-41.7,14.8c0,4.5-3,9.3,3.6,12c-11.8,3.5-10.1,7.5-10.1,12.7c0,0.5,9.5,1,9.7,1.4
			c-20,2-33.6,6.1-33.6,10.8c-3,0-17.5,6.2-8.4,8.3c-37.6,0.7-66.9,12.5-66.9,14.5c0,2.6,60.6,7.9,114.5,7.9
			c20.9,0,36.1-1.8,51.9-2.3c11.3,2.3,30.7-2.7,47.2-0.4c25.3,3.6,53-0.7,64.5-4.3c13.5,2.3,35.2,3.2,52.2,3.2c21.6,0,37.5-6,53-9.6
			c12.7,1.6,27.3-3.2,50.5-3.2c38.6,0,69.9-2.8,69.9-6.3c0-0.7-1.2-1.3-3.4-1.9c8.6-1.4,13.8-3.2,13.8-5.2c0-0.8-1-1.6-2.7-2.4
			C1131.7,54.4,1140,52.2,1140,49.8z"/>
		
			<linearGradient id="SVGID_5_" gradientUnits="userSpaceOnUse" x1="210.7355" y1="1004.3104" x2="184.0056" y2="744.2905" gradientTransform="matrix(1 0 0 -1 685.91 900)">
			<stop  offset="1.000000e-02" style="stop-color:#FFFFFF"/>
			<stop  offset="0.35" style="stop-color:#FCF5DE"/>
			<stop  offset="0.99" style="stop-color:#F0D9CF"/>
		</linearGradient>
		<path class="st3" d="M1132.3,63.1c0-3.5-18.2-6.6-45-8.2c0.4-0.3,0.6-0.7,0.6-1.2c9.1-7-14-24.5-35.6-7.9c5-2.4,6.4-5.3,7.8-7.9
			c8.4-15-23.5-36-57-21.6c-4.4,0,15-4.2,15,18.9c-3,0-31.8-13.9-36.9-13.9c-10.7,0.2-23.6,0.6-29,1.2c17.2-10.8-4.7-19.1-26-19.1
			c-2.8,0-5.6,0.1-8.3,0.4c-3.8-15.9-23.7-28-47.9-28c-16.8,0-31.6,5.9-40.3,14.8h-0.6c-13.3,0-29.5,9.1-30.8,20.8
			c-14.9,2.4,33.3,13.6,36.1,29.6c-19.7-16.9-79.1-21.8-87.9-21.8c-16.8,0-30.5,6.6-30.5,14.8c0,4.5,4.1,8.5,10.7,11.2
			c-11.8,3.5-19,8.2-19,13.4c0,0.5,0.1,1,0.3,1.4c-20,2-33.6,6.1-33.6,10.8c0,3,5.5,5.7,14.5,7.8c-37.6,0.7-64.5,2.4-64.5,4.4
			c0,2.6,43.6,4.7,97.5,4.7c20.9,0,40.2-0.3,56-0.9c11.4,2.3,26.5,3.7,43.1,3.7c21.7,0,40.8-2.4,52.3-6c15.3,2.5,30.8,3.7,46.3,3.7
			c21.6,0,41.3-2.1,56.9-5.7c12.7,1.6,33.2,2.6,56.3,2.6c38.6,0,69.9-2.8,69.9-6.3c0-0.7-1.2-1.3-3.4-1.9c8.6-1.4,13.8-3.2,13.8-5.2
			c0-0.8-1-1.6-2.7-2.4C1124,67.7,1132.3,65.5,1132.3,63.1z"/>
		
			<linearGradient id="SVGID_6_" gradientUnits="userSpaceOnUse" x1="-322.6497" y1="647.7438" x2="-324.4297" y2="624.6638" gradientTransform="matrix(1 0 0 -1 685.91 900)">
			<stop  offset="1.000000e-02" style="stop-color:#FFFFFF"/>
			<stop  offset="1" style="stop-color:#FCF5DE"/>
		</linearGradient>
		<path class="st4" d="M452,281.9c2.4-1.5,3.8-3,3.8-4.7c0-6.6-20.7-11.9-46.2-11.9c-8.4,0-16.7,0.6-25,1.9c0.4-1.1,0.6-2.2,0.6-3.3
			c0-10.3-15.1-18.6-33.7-18.6c-17.3,0-31.4,7.2-33.3,16.5c-3.3-0.1-6.7-0.2-10.2-0.2c-30.8,0-55.8,4-55.8,9c0,2.3,5.3,4.3,13.7,5.9
			c-38.8,1-66.3,3.3-66.3,6c0,3.6,47,6.5,105,6.5c9.3,0,18.3-0.1,27-0.2c-0.3,0.2-0.6,0.5-0.6,0.9c0,4.5,42.6,8.1,95.2,8.1
			s95.2-3.6,95.2-8.1C521.5,286,492,282.8,452,281.9z"/>
		
			<linearGradient id="SVGID_7_" gradientUnits="userSpaceOnUse" x1="-127.5543" y1="571.6303" x2="-128.7443" y2="556.2103" gradientTransform="matrix(1 0 0 -1 685.91 900)">
			<stop  offset="1.000000e-02" style="stop-color:#FFFFFF"/>
			<stop  offset="1" style="stop-color:#FCF5DE"/>
		</linearGradient>
		<path class="st5" d="M635.7,349.5c0.1-0.1,0.2-0.1,0.2-0.2c0-0.9-6.7-1.6-15.5-1.8c1.3-0.8,2-1.8,2-2.7c0-3.5-8.8-6.3-19.8-6.3
			c-1.8-0.4-3.6-0.7-5.4-0.9c2.9-0.6,4.7-1.4,4.7-2.4c0-1.7-5.7-3.1-12.8-3.2c-2.3-3.5-7.9-5.9-14.6-5.9c-1.5,0-3,0.1-4.5,0.4
			c-3.4-1.3-7-1.9-10.6-1.9c-8.9,0-16.2,3.5-16.2,7.7c0,0.2,0,0.3,0.1,0.5h-0.9c-6.9,0-13,0.9-16.9,2.3c-1.9-1-4-1.5-6.1-1.4
			c-5.2,0-9.3,2.5-9.3,5.7c0,0.6,0.2,1.1,0.4,1.6c-18.4,1-30.9,2.8-30.9,4.9c0,0.3,0.3,0.5,0.7,0.8c-11.2,0.6-18.9,1.7-18.9,3.1
			c0,1.9,15.5,3.5,34.6,3.5c12.8,0,23.9-0.7,29.9-1.7c2.7,1.8,10.7,3.1,20.2,3.1c4.3,0,8.5-0.3,12.7-0.9c8.5,1.1,17.1,1.6,25.7,1.5
			c7.4,0,14.2-0.3,19.7-0.8c7.1,1,14.3,1.4,21.5,1.3c14.4,0,26.1-1.4,26.1-3.1C651.8,351,645.2,349.9,635.7,349.5z"/>
		
			<linearGradient id="SVGID_8_" gradientUnits="userSpaceOnUse" x1="86.2525" y1="420.4569" x2="51.1825" y2="280.1569" gradientTransform="matrix(1 0 0 -1 93.43 900)">
			<stop  offset="0" style="stop-color:#819D00"/>
			<stop  offset="0.71" style="stop-color:#92A700"/>
			<stop  offset="0.99" style="stop-color:#A2B800"/>
		</linearGradient>
		<path class="st6" d="M389.7,629.5c0,0-18-18.6-25.9-15c-5.6,2.6,2.8-5.6,4-11.3c0.5-2.3-0.2-4.2-3.5-4.8
			c-4.6-0.8,19-20.6-5.8-11.5c21.4-16.1,0.8-17.6-6.3-14.6c-11.8,5-13,6.1-13,6.1s-0.1-25.1-10.5-11.6c0-17.8-12.6-9.3-15.2-2.3
			c-17.3-8.9-22.6-0.1-4.5,17.4c-14.8-3.7-14.5-9.8-17-1.6c-3.8,12.5,0.8,15,0.8,15s-4.5-1.9-9.4-3.4c-6.2-1.9-12.8-2.9-10.6,2
			c-1.4,9.2-15.3-11-17.7,0.3s-15.1,7.3-15.1,7.3s23.6-20,3-11.3s-19.9,9.8-19.9,9.8s14.9-10.1,3.9-10.1c26.1-6.3,20.8-11.2,2.9-8.6
			c24.6-10.8,5.2-20.2-1.2-16l-12.2,8c0,0,19.8-20.7-1.3-15.6c20.4-18.6-1.6-11.6-3-16.3c-2-6.9-5-11.1-9.3-7.1l-11.7,11
			c0,0,4.6-25.5-8-14.9c2.4-22.9-8.2-7.4-13.4-4.4c-3,1.7-16.2-0.9-6.2,6.6c-8.9-1.8-0.9,18-0.9,18s-11-12.7-11-6.1
			s-13.2-4.8-9.4,2.7s-6.8,8.6-6.8,8.6c-1.4-5.1-2.4-10.4-3-15.7c14,0,9.9-4.4,6.6-5.7l-12.7-5c0,0,16.4-8.3,4-8.3
			c15.2-11.5,1.1-9.7-6.6-9.6c-5.5,0.1-19.1-0.8-13,3.8c-12.6-2.9-7.9,8-7.9,8s-4.3-21.6-13.4-10.6c-11.5-17-13.1-6.7-14.9-1.2
			C71,523,71.5,526,71.5,526s-11.4,1.5-2.5,7.8c0,0,1.6,4.9-5.4,2.4s-5.1-23.6-15.4-2.9c-15.5-11.7-12.9-6-15.7-3.7
			c-5.9,4.8-19.8-6-7.4,7.2s-2.1,0.2-5.3,0.7s-11.6-8.4-11.6,2.1s-7.4,1.8-10.4,2.9c-3.7,1.4-6.1,3.1-5.8,5
			c0.3,2.2-24.2-0.2-3.3,9.9c-33.2-9.9-3.5,5.8-5.3,8.6c-3.7,5.5-30.5-0.2-7.2,10s-26.8-4-25-0.1c12.8,6.6-11.8,5.1-10.1,6.6
			c1.8,1.6-38.9,1.5-35.2,3.6c4.2,2.4,87.8,9.3,95.2,12.5c42.6,18.6,29.8,26.2,65.4,26.3C186.2,625.5,237.8,652.5,389.7,629.5z"/>
		
			<linearGradient id="SVGID_9_" gradientUnits="userSpaceOnUse" x1="-742.9804" y1="374.5932" x2="-786.4004" y2="478.8232" gradientTransform="matrix(-1 0 0 -1 -1007.42 900)">
			<stop  offset="0" style="stop-color:#587C0A"/>
			<stop  offset="0.99" style="stop-color:#77A200"/>
		</linearGradient>
		<path class="st7" d="M-21.9,529.2c0,0,13.7-21-1.5-19.6s-1.2-9-10.9-7.4s-9.5,0.9-9.5,0.9s15.8-15.2,8.3-18.6s-11.2,1.7-11.2,1.7
			s-4.1-6.8-8.2-2.4s-4.2,5.4-5.8,4.8s-5.5-8.3-6.9-8.2s16.1-8.6,12.5-11.3s-3.9-2.8-3.9-2.8s8.4-13.8,3.8-15.1
			c-2.6-0.8-5.5,0.1-7.3,2.1c0,0,0.6-10.5-8.1-5.7s-5.2,9.3-5.2,9.3s-14.2-5.6-12.7,0.9s2.9,6.4,1.5,6.5s-10.8-4-9.6,0.1
			s1,5.2,1,5.2s-6.5-7.3-10.9-3.3c-3,2.6-6.4,4.8-9.9,6.6c0,0,0.4-10-5.9-6.9s-10.1,2.8-10.6,1.6s-0.8-14.9,7.5-11.4
			s24.3,0.5,21-2.8s-3.7-3.3-3.7-3.3s13.8-10.7,4.2-14.2s-14.8-1.8-14.8-1.8s7.9-13.1-6.3-14.2s-20,3-20,3s5.4-7.9-3.8-6.6
			s-11.6,2.9-11.7,1.8s18.5-12.4,12.1-14.4s-9.9-0.1-9.9-0.1s5.4-12.4-0.8-14.5s-13,1.1-13,1.1s-3.8-6.6-9.3,0.4s-4.5,7.8-4.5,7.8
			s-8.9-3.3-9.7-0.8s-11-1.4-11-1.4s17.9-3.5,15.6-7.6s-2.9-4-2.9-4s4.8-10.2-3.5-8.7s-9.1,1.5-9.1,1.5s1-14.8-13.1-10.7
			s-15.2,14.9-15.2,14.9s-11-7.8-10.2,2.3s3.5,10.9,3.5,10.9s-13.4,0-12.4,8s3.7,10.1,3.7,10.1s-12.7,1.1-6,7.7l6.7,6.5
			c0,0-14.8-1.2-10.5,4.6s-11.5-3.3-12.5,2.5s2.8,3.1-1.5,5.9s-10.1,3.3-11.7-0.4s1.6-10.1,1.6-10.1s11.6-0.6,7.7-3.5
			s-4.5-3.4-4.5-3.4s-4-7.7,0.9-6.3s4.5-1.4,3-4.1s-4.3-6.3-1.1-3.7s16.6-2.4,9.9-4.7s-8.5-2.1-8.5-2.1s5.2-9-0.7-9.5
			s-6.5-0.9-6.5-0.9s7.4-18.7,1-18.6s-8.5,1.7-8.5,1.7s-3.7-14.9-10.5-9.1s-6.6,7.3-6.6,7.3s-15.4-6.3-11.9,3l3.6,9.2
			c0,0-16.1-2.9-14.8,3.2s1.5,6.5,1.5,6.5s-14.6,8.4-8.2,13.1s8,3.1,5.3,4.8s-23.1,6.3-14.9,15.6s15.1,8.2,15.1,8.2
			s-9.7,1.8-7.1,7.8s3.2,6.4,3.2,6.4s-12.5-1.8-11.9,2.5s2.6,1.7,0,4.3s-13.1-1.7-13.1-1.7s7.9-15,3.8-15.1l-4.1-0.1
			c0,0,9.2-14.1-0.5-12.8s-9.1-11.1-12.5-10.3l-3.4,0.8c0,0,10.5-12.8,0.5-13.8s-15.1,9-15.1,9s-11.3-6.1-10.2,2.3s1.2,8.9,1.2,8.9
			s-13.6,3.1-5.7,10s13.6,5.5,9.7,6.8s-14.6-0.1-15.4,2.8s1.5,7-1.4,3s2.8-18.8-4.1-17.7s-6.1-1.8-6.1-1.8s13.2-6.4,8.8-8.9
			s-7.4-2.7-4.5-3.4s14.6-8.4,7.3-10.6s-9.6-2-9.6-2s-0.8-1.4,0-9s0.3-15.3-2.6-15.5s-5.9-9.5-9.2,0.8c-2,6.2-2.1,12.8-0.4,19.1
			c0,0-11-12.4-12.7-3.1s-3.7,7-2.1,10.2s6.1,6.6-1.1,9.2s-14.9,6.5-11.5,10.5s-4.1-0.1-7.9,6.4s-3,7.9-3,7.9s-23.6-6.5-20.9,5.2
			s3.9,11.6,3.9,11.6s-41.2,6.5-36.5,19.4c2.6,7.5,9.2,13,17.1,14.2c0,0-28.4,2-18.8,12.1s17.1,10.4,17.1,10.4s422,122,426.7,103.9
			c43.2,2.3,90.4-32.2,82.8-37.2c-4.8-3.3-8.9-7.4-12.2-12.3c0,0,24.6-4.8,18.6-9.7c10.8-2.5,4.3-15,4.3-15s1.2-4.3-10.3-4.3
			C-6.2,526.4-17.2,522.9-21.9,529.2z"/>
		
			<linearGradient id="SVGID_10_" gradientUnits="userSpaceOnUse" x1="-200.8075" y1="419.0125" x2="-271.3674" y2="203.8124" gradientTransform="matrix(1 0 0 -1 93.43 900)">
			<stop  offset="0" style="stop-color:#92975B"/>
			<stop  offset="0.23" style="stop-color:#797E4B"/>
			<stop  offset="1" style="stop-color:#6F7260"/>
		</linearGradient>
		<path class="st8" d="M484.4,689.9c-13.9-41.1-22.3-51-50.5-60.2c-13.3-4.3-38.6-2.6-57.1-11.5c-18.5-3.1-71.1-7-71.1,3.7
			c-19.8-10.8-83.3-30.7-96.5-26.1c-23.1,1.5-56-15.1-75.9-11.7c-9.6-2.3-62.8,21.9-67.7,24.6c-25.6-16.4-21.2-49.4-43.3-54.6
			c-42.8,0-71-26.5-107.1-29.2c-37.6-12.1-71.7,0.7-83.2,0c-9.5-34.7-19-59.9-42.1-69.2s-75.8-22.5-134-34.3
			c-54.4-11-59.6-11.4-83.3-17.7c-27-7.2-50.7-28.3-98.9-45c-2.6-0.9-32.2-1.8-34.8-2.7c-22.3-7.8-47.2-14.9-55.2-14.9
			c0-2.9-14.8-22.2-27.6-26.9c-26-9.5-47.8-13.5-64.8-13.5v389.1H484.4z"/>
		
			<linearGradient id="SVGID_11_" gradientUnits="userSpaceOnUse" x1="-962.1836" y1="465.504" x2="-936.2336" y2="295.224" gradientTransform="matrix(-1 0 0 -1 -1007.42 900)">
			<stop  offset="0" style="stop-color:#605D2B"/>
			<stop  offset="1" style="stop-color:#687244"/>
		</linearGradient>
		<path class="st9" d="M-229.6,566.3c-24,10.6-54.9,21.6-94.4,31.4c-25,10-37.2,29.7-69.2,40.6c0,0,61.3-4.4,132.8-32
			c43.3-1.5,65.1-24,89.3-25.7C-132.8,578-116.8,563-93,563c12,0,31.6,6.2,75.3,3.5c-14.7,8.7-39.8,31.2-39.8,59.4
			c12.8-6.1,64.4-58.9,86.7-63.3c1.8,13.8,4.1,25.5-6.1,39.4c-3.4,4.7-4.2,22.5-12.5,30.1c41.6-7.9,64-35.3,88.2-37.6
			c-19.4,10.8,4.1,11.9,51.8,1.9c12.6,6.3,45.5,67.8,45.5,75.1c11.4-6.5,26.4-34.2,17.8-46.2c-3.1-4.4-1.4-10.2-8.1-22
			c3.4-1.6,17.6,4.8,23.1,5.9c11.6,6.9,67.3,28.5,74.9,37.5c10.7-8.2,22.7-9.4,42,1.3c-6.9-15.4-37.2-19-42.7-29
			c18.3,7.7,91.7-3.3,91.7,14.8c38.4,6.4,174.2,94.1,195.2,96.2l-1298.7-8.8V323.3c20.5-5.1,40.3-14.7,92.4,17.9
			c-39.7-6.2-70.4,3.7-81.6,16.9c22.5-4.9,143-3.6,157.3,8.5c8,6.7-62.2,4-8.3,26.9c22.7,9.7,53.1,29.6,75.5,35
			c20,4.8,77.1,8,96.2,12.3c0,8.3-160.9,24.8-141.7,34.9c34.9,16.6,109,2.9,147.5-2.9c10.4-1.6,18.2-2.5,21.9-2.2
			c23.1,2.1,18.1,4.8,38.5,9.9c26.8-5.1,74.2-5.7,85.7-6.1c8.1-14.1,26.6,3.3,29.3-2.6l28.1,53.3
			C-167.9,525-191.5,516.7-229.6,566.3z"/>
		
			<linearGradient id="SVGID_12_" gradientUnits="userSpaceOnUse" x1="-190.2353" y1="252.3669" x2="-156.5153" y2="194.2969" gradientTransform="matrix(1 0 0 -1 93.43 900)">
			<stop  offset="0" style="stop-color:#777C3D"/>
			<stop  offset="1" style="stop-color:#867C51"/>
		</linearGradient>
		<path class="st10" d="M-2.4,590.1c0,0-92.6,26.2-119.6,52.1c-48.4,0-176.8,11.7-176.8,11.7l173.3,0.5c0,0,60.8-19.2,69.4-27.5
			c3.1,13.1,15.8,25.3,15.8,25.3L20,676.3l118.5,22.5c0,0-158.1-63.4-170.8-75.5S-2.4,590.1-2.4,590.1z"/>
		
			<linearGradient id="SVGID_13_" gradientUnits="userSpaceOnUse" x1="-7110.0601" y1="139.525" x2="-5570.8301" y2="139.525" gradientTransform="matrix(-1 0 0 -1 -6519.98 900)">
			<stop  offset="0" style="stop-color:#B1C500"/>
			<stop  offset="1" style="stop-color:#5B6F00"/>
		</linearGradient>
		<path class="st11" d="M-949.2,594.8c0,0,485.2,3.3,763.4,72.5c282,19.5,775.8,62.7,775.8,62.7L-949.2,926.2V594.8z"/>
		
			<linearGradient id="SVGID_14_" gradientUnits="userSpaceOnUse" x1="773.9866" y1="403.1778" x2="809.1567" y2="370.1478" gradientTransform="matrix(1 0 0 -1 93.43 900)">
			<stop  offset="0" style="stop-color:#818317"/>
			<stop  offset="1" style="stop-color:#798B00"/>
		</linearGradient>
		<path class="st12" d="M841.4,530.8c0,0-14.5-10.7-1-14.8c-22.4-8.1-14.8-18.5-0.2-16c-10.3-7.3-1.3-16.9,9.9-19
			c3.5-16.3,16.5-7.4,21.8-5.4c-10.4-2-7.1-22.5,7.6-13.6c16-5.6,11.5,7.7,10.8,10.2c0,0,20.3-11.2,21.6,3.1
			c19.2-3.3,12.4,18.1,8.7,19.7c0,0,17.3,2.7,7.9,11.9s-6.3,1.8,0.5,4.8c2.5-1.9,14.6,4,3.7,4c8.4,2.8,9.8,6.6-2,4.1
			c7.9,3.6-2.2,3.4-3.9,5.4c1.1,0.9-3.9,4,2.5,2.5s9.7,1,1.1,2.6c4.5,1.7-10.8,8.7-11.7,9.1c0,0,23-1.8,2.8,4.3s-21,2.2-21,2.2
			s-39-2-49.5-8.9C836.1,541.2,825.4,535.3,841.4,530.8z"/>
		
			<linearGradient id="SVGID_15_" gradientUnits="userSpaceOnUse" x1="823.9526" y1="380.0857" x2="795.5626" y2="429.0457" gradientTransform="matrix(1 0 0 -1 93.43 900)">
			<stop  offset="0" style="stop-color:#957C17"/>
			<stop  offset="0.98" style="stop-color:#B1A200"/>
		</linearGradient>
		<path class="st13" d="M870.8,488.5c0,0-3.1-11.5,7.9-6.6c6-5.2,7.9-2.4,8-2.4s1.2-8.2,5.8-5c2.8-9.4,9.8,1.6,9.8,1.6
			s-2.1-15.3,12-1c10.8,0,6.7,7.6,6.7,7.6s10.7,5.1,3.6,12.3c15.9,0-5.6,4.5-5.6,4.5s11.3-16.3-9.7-12.4c-8.8-1.4-10.5,5.1-10.5,5.1
			s-1.3-6.9-10.5-6.5s-7.1,5.4-7.1,5.4S877,480.9,870.8,488.5z"/>
		
			<linearGradient id="SVGID_16_" gradientUnits="userSpaceOnUse" x1="791.4277" y1="419.1345" x2="775.9277" y2="445.8545" gradientTransform="matrix(1 0 0 -1 93.43 900)">
			<stop  offset="0" style="stop-color:#957C17"/>
			<stop  offset="0.98" style="stop-color:#B1A200"/>
		</linearGradient>
		<path class="st14" d="M867.2,480.9c0,0-9.8-6.2-4.5-8.9s5.2-2.7,5.2-2.7s-4.2-5.8-0.2-6.7s4.8-0.1,4.8-0.1s-6.6-9.9,2.4-10.2
			s10,5,10,5s5.5-4.8,7.3,1.8s-0.9,9.2-0.9,9.2s-3.2-10-7.8-6.2s-2.2,6.5-2.2,6.5c-3.1-1.3-6.7-0.3-8.6,2.4
			c-3.6,4.7,0.6,5.8,0.6,5.8S864.8,474.6,867.2,480.9z"/>
		
			<linearGradient id="SVGID_17_" gradientUnits="userSpaceOnUse" x1="829.3905" y1="337.2403" x2="774.8305" y2="431.3103" gradientTransform="matrix(1 0 0 -1 93.43 900)">
			<stop  offset="0" style="stop-color:#957C17"/>
			<stop  offset="0.98" style="stop-color:#B1A200"/>
		</linearGradient>
		<path class="st15" d="M896.3,522.5c1.4-2.5,14.1-17.7-2.5-17.7c2.8-11-8.1-2.7-8.1-2.7s-7.6-15.4-11-4.1
			c-9.9-8.5-13.5-0.1-13.5-0.1s6-17-9.6-10.9c-12.5-8.3-15.2,5.7-15.2,5.7c0-2.7,11.6-11,15.5,3.5c8-3.7,6.8,13.2,6.8,13.2
			s5.6-10.4,17-4.5c-2.8,2.4-4.1,5.9-3.7,9.5c0,0,6.4-12,14.7-3.2c9.5-8.2,4.6,15.2,4.6,15.2s19.9-6.5,9.6,8c4.4-1.1,9-0.8,13.8,0.1
			s-10-5.2-1.2-5.5s2.9-5.8,9.2-0.4c7.7,1.8,12.8-6.5,3.4-4.3c0.8-1.1-3.9-7.2,4.3-7.2s16.8-5,2.3-3c-0.5-3.4-15.7-13.1-14.5,0.1
			c-8.5,2.8-3.9,7.1-3.9,7.1S902.2,514.2,896.3,522.5z"/>
		
			<linearGradient id="SVGID_18_" gradientUnits="userSpaceOnUse" x1="1563.5236" y1="320.6978" x2="1443.7235" y2="527.2578" gradientTransform="matrix(1 0 0 -1 93.43 900)">
			<stop  offset="0" style="stop-color:#627E51"/>
			<stop  offset="0.99" style="stop-color:#9AAE00"/>
		</linearGradient>
		<path class="st16" d="M1461.8,455.9c-0.4-1.4-7.6-3-1.1-5.3c-4.2-4.2-9-11-0.2-7.9c-8.4-6.8,1.2-3.9,2.6-5
			c1.7-1.3,4.4-1.6,8.4-0.3c0,0-5-11.6,2.1-7.7c-4.3-12.5,3.4-4.8,6.9-5.1c-1.3-3.5-9.2-13,0.8-9.9c-9.2-10.9,4.3-5.1,7.3-6.2
			c2.6-0.9,11-6.5,8.2,0.1c5.3-9.1,3.9,2.2,5.6,4.4c-0.8-2.8,11-15.1,11-7.2c10.8-5.6,14.9,0.2,6.6,8.6c5.4-1.8,1.3,10.8,1.3,10.8
			c-0.1-1.5,3.8-4.3,8.3-5.9c2.1-0.7,4.4-7.6,6.3-1.2c4-7.4,6.9,1.8,7,7c-0.9-8.1,6-13.3,6-8.9c2.9,0,3.9,2.4,6.4,4.6
			c0.2-1.8-1.4-4.1-2.3-6.2c-1-2.3-0.4-8,2.6-5c3-8.9,3.8-0.1,5,0.5c1.7,0.9,2.8,2.5,3.2,4.4c0,0-1-7.6-0.1-13.3
			c0.6-4.1,2.2-7.1,5.8-5.3c7.8-7.3,6.9-1.8,6.4,6.4c3.6,0,4.3-10.7,12.1-8.6c7.4-11.9,15.9-7.6,10.7,3.6c6,0-3.6,8.6-3.6,8.6
			s10.7-10,10,0c3.2,0.1,8.6-1.8,4.6,2.2c7.8-1.1,1.9,5.6-0.3,7.8c0,0,10.5-8.5,8.1,1c-4.3,4.3,10.2-11.9,4.8,2.4
			c5.9-9.6,4-7.7,9.2-6.7s-2-13.1,2.2-8.9c-2.8-10.1,3.5-3.4,6-3.2c2.2,0.2,11-3.2,7.3,3.4c5.8-5.8,2,1.7,3.1,2.7
			c1.1-1.9-0.1-5.9,1.2-6.7c0.5-0.3,1.3-0.1,2.8,0.7c5.3-8.5,7.1-2.9,8.9,1.1c1.4,3,4.6,0.5,5.3,3c1.7-0.8,4.3,0.7,5.2,4.3
			c1.3-2.2,24.9-8,31.8,10.9c3.1,4.3,23.4,5.6,9.5,19.4c2.2,3.4,24.5-0.3,13.6,16.1c9.6,15.8-3.7,12-4.6,15.4
			c0,3.6-143.7,9.3-195.1,15.7s-75.7,2.9-75.7,2.9s-14.9-24.3-6.7-26.3c-2.6-6-3.1,0.3,8.4-2.1
			C1439.9,458.8,1462.2,457.7,1461.8,455.9z"/>
		
			<linearGradient id="SVGID_19_" gradientUnits="userSpaceOnUse" x1="1385.63" y1="483.3753" x2="1449.4398" y2="483.3753" gradientTransform="matrix(1 0 0 -1 93.43 900)">
			<stop  offset="0" style="stop-color:#7EAE44"/>
			<stop  offset="0.99" style="stop-color:#6F9232"/>
		</linearGradient>
		<path class="st17" d="M1479.1,409.9c3.3-8.7,14.2-1.5,11.6,1c2.9-8.4,13.7-9.3,19.2-3.8c9-3.2,5.5,10.1,5.5,10.1s12-8.5,10.1,0.5
			c2.6,4.5,1.8,4.5,1.8,4.5s6.7-7.9,11.1-2s4.4,7.3,4.4,7.3s-5.9-4.8-10-2s-4.4,4.2-4.4,4.2s-3.7-8.4-9.7-6.5s-6.7,4.8-6.7,4.8
			s0.3-16.7-7.5-15.6s-7.4,6.6-7.4,6.6s-3-9.9-6.2-3.8C1488.7,408.6,1483.6,409,1479.1,409.9z"/>
		
			<linearGradient id="SVGID_20_" gradientUnits="userSpaceOnUse" x1="1461.007" y1="493.2249" x2="1513.5035" y2="493.2249" gradientTransform="matrix(1 0 0 -1 93.43 900)">
			<stop  offset="0" style="stop-color:#799F42"/>
			<stop  offset="0.99" style="stop-color:#6F9232"/>
		</linearGradient>
		<path class="st18" d="M1566,413.8c0,0-1.2-12.8,3.9-11.3c3,0.9,5.6,2.8,7.4,5.4c0,0-2.7-8.2,4.7-10.9s7,3.9,7,3.9
			s7.4-19.5,9.3-10.5c1.1,5.4,0,11-3.1,15.6c0,0,10.1-5.9,8.2,1.2c9,0-1.8,8.9-1.8,8.9s-5.6-8.9-9.1-6.6s-3.9,7-3.9,7
			s-4.7-9.7-9.7-5.1c-3,2.8-4.6,6.8-4.3,10.9c0,0-2.7-7-8.6-2.7c-10.5-2.8-11.3,5.9-11.3,5.9S1551.6,414.9,1566,413.8z"/>
		
			<linearGradient id="SVGID_21_" gradientUnits="userSpaceOnUse" x1="165.5383" y1="492.5628" x2="60.9083" y2="672.9628" gradientTransform="matrix(0.81 0.22 0.26 -0.97 482.08 1105.86)">
			<stop  offset="0" style="stop-color:#687E28"/>
			<stop  offset="0.99" style="stop-color:#6F9F00"/>
		</linearGradient>
		<path class="st19" d="M612.8,545.7c0.1-2-7.7-6.5,0.6-7.5c-3.3-6.9-6.5-17.5,2.7-10.7c-7.3-11.7,2.7-4.9,4.9-5.9
			c2.5-1.2,5.7-0.8,9.8,2.2c0,0-1.6-17.1,5.2-9.7c-0.4-18.2,5.7-5.3,9.8-4.7c-0.3-5.1-6-20.3,4.5-13c-6.7-17.5,6.8-5.5,10.7-6
			c3.3-0.4,15.1-5.4,9.5,2.7c9.4-10.6,3.7,4.2,4.9,7.7c0-4,18.1-16.9,15.3-6.3c14.5-4.1,17.2,4.9,4.5,13.6
			c6.9-0.7-2.3,14.9-2.3,14.9c0.4-2.1,5.9-4.6,11.7-5.3c2.7-0.3,7.8-8.8,7.7,0.3c7.4-8.7,7.4,4.6,5.6,11.7
			c1.8-11.2,11.8-16,10.2-10.1c3.3,0.9,3.6,4.4,5.7,8.2c0.8-2.4-0.1-6-0.4-9.1c-0.3-3.3,2.5-10.9,4.8-5.9c6.7-11.1,4.5,1,5.6,2.2
			c2.6,2.7,2.1,6.9,2.1,6.9s1.7-10.6,4.7-17.9c2.2-5.3,5.1-8.9,8.7-5.3c11.7-7.4,8.7-0.3,5.1,10.6c4.1,1.1,8.8-13.1,17.1-7.8
			c12.9-13.7,21.2-5.3,11.1,8.1c6.9,1.9-7.2,10.4-7.2,10.4s16-10.1,11.5,3.1c3.7,1.1,10.6,0.2,4.6,4.3c9.4,0.9,0.2,8.2-3.2,10.5
			c0,0,15.2-8.2,9,3.9c-6.5,4.4,16.1-12.8,4.7,4.7c10.3-11.1,7.4-9.2,13.1-6.2s2.5-18.2,5.8-11.3c0.3-14.4,5.3-3.5,8.1-2.4
			c2.4,1,13.8-0.8,7.2,6.9c8.8-6,1.7,2.9,2.6,4.6c1.9-2.3,2-8,3.8-8.7c0.7-0.3,1.6,0.2,3,1.8c9.2-9.7,9.2-1.6,9.8,4.3
			c0.5,4.5,5.2,2.1,5,5.7c2.2-0.6,4.7,2.2,4.5,7.4c7.1-7.7,13.3-0.3,8.1,9.4c-1.3,4.8-141.8,57.2-203.6,49.9S570,604.2,570,604.2
			s12.4-53.2,22.7-53.4c-0.8-8.8-3.6-0.6,10.5-0.2C586.5,542.7,612.7,548.2,612.8,545.7z"/>
		
			<linearGradient id="SVGID_22_" gradientUnits="userSpaceOnUse" x1="72.8403" y1="564.6422" x2="26.2403" y2="644.9921" gradientTransform="matrix(0.81 0.22 0.26 -0.97 482.08 1105.86)">
			<stop  offset="0" style="stop-color:#659517"/>
			<stop  offset="0.98" style="stop-color:#9DBB00"/>
		</linearGradient>
		<path class="st20" d="M643.5,497.5c7-10.6,16.9,2.4,13.1,5c6.4-10.4,19.2-8.3,23.6,0.9c11.7-1.5,2.7,15.3,2.7,15.3
			s17-7.8,11.5,3.8c1.4,6.8,0.5,6.6,0.5,6.6s10.6-8.5,13.6,0.8s2.5,11.2,2.5,11.2s-5.2-8.3-10.9-5.8s-6.7,4.3-6.7,4.3
			s-1.2-12.5-8.8-11.7s-9.5,4.3-9.5,4.3s6.4-22.4-3-23.3s-10.9,6.6-10.9,6.6s0.1-14.2-5.8-7C655.1,498.8,649.1,497.8,643.5,497.5z"
			/>
		
			<linearGradient id="SVGID_23_" gradientUnits="userSpaceOnUse" x1="6.6781" y1="537.2819" x2="-20.4119" y2="583.9819" gradientTransform="matrix(0.81 0.22 0.26 -0.97 482.08 1105.86)">
			<stop  offset="0" style="stop-color:#659517"/>
			<stop  offset="0.98" style="stop-color:#9DBB00"/>
		</linearGradient>
		<path class="st21" d="M605,550.5c0,0,3.3-17.7,8.6-14c3.2,2.4,5.6,5.8,6.6,9.6c0,0-0.2-11.8,9.3-13.2s6.7,7.4,6.7,7.4
			s15.6-23.9,14.6-11.3c-0.6,7.6-3.9,14.6-9.2,20c0,0,13.8-4.7,9,4.1c10.4,2.8-5.3,11.4-5.3,11.4s-3.3-13.7-8.2-11.7s-7,8.2-7,8.2
			s-1.9-14.5-9.4-9.8s-8.9,13.3-8.9,13.3s-0.6-10.3-8.9-6.3c-11.2-7-15.2,4.4-15.2,4.4S587.9,547.5,605,550.5z"/>
		
			<linearGradient id="SVGID_24_" gradientUnits="userSpaceOnUse" x1="205.0368" y1="599.2119" x2="173.8268" y2="653.0219" gradientTransform="matrix(0.81 0.22 0.26 -0.97 482.08 1105.86)">
			<stop  offset="0" style="stop-color:#659517"/>
			<stop  offset="0.98" style="stop-color:#9DBB00"/>
		</linearGradient>
		<path class="st22" d="M775.6,532.3c0,0-6.1-8.1,0.3-7.8s0.2-1.9,0.3-2.8c0.4-2.5,0.9-4.3,1.8-3.5s6.4-6.3,6.5-0.2
			c3.7-13.6,3.1-0.5,4.5-0.7c3-0.2,10.2-0.1,5.5,3.1c5,3.4-2,12.4-2,12.4s7.9-4.8,8.5-0.1s6.1,1.8,6.1,1.8s7.2-9.2,8.7-3.1
			c0.7,2.8,1.1,5.6,1.3,8.5c0.2,2.5,7.5,3.8,3.4,6.6s-5.5-7.3-10.8,1c-1.8-4,0-9.3,0.5-9.8c3.8-3.4-7.5,4.5-7.5,4.5
			s-3.4-5.4-8.3-2.8s-6.3,5.8-6.3,5.8s5-13.7-1.1-11.8s-7.2,3.2-7.2,3.2s5.7-9.6,2.2-10S775.6,532.3,775.6,532.3z"/>
		
			<linearGradient id="SVGID_25_" gradientUnits="userSpaceOnUse" x1="369.88" y1="352.468" x2="589" y2="352.468" gradientTransform="matrix(1.13 0 0 -1 -62.47 900)">
			<stop  offset="0" style="stop-color:#959500"/>
			<stop  offset="0.99" style="stop-color:#887400"/>
		</linearGradient>
		<path class="st23" d="M377.3,598.2c-7.4,4-17.8-7.8-9.9-7.8s-7.1-11.4,3.3-11.4c-10.6-10.4,0.4-11.9,5.4-7c0-14.4,6.7-3.9,11-3
			c2-2.4-0.1-7.5,2.6-10.6c1.3-1.4,3.5-2.5,7.5-2.7c-11-5.7,11.9-14.4,6.8-16.2c-5.2,3.9-8.9,2.4-10.1-2.5c-6.3,0-9.7-2.2-11-3.5
			c-4.7-4.5,0-7.4,7.8-6.3c-5.4-11.6,4.3-19.5,13.2-12.8s3.1-3.7,10-4.3c-2.6-6.8,2.4-14.8,12.8-9.9c5.8-7.7,8.7-9.2,15.7-10.8
			c3.6-16.4,27.2-14.1,41.1-4.9c7.7-6,9.4,5.4,10.7,7.6c1.5-2.3,13-3.4,9.3,7c5.1-9,12.9-5.6,13.2-4.3c11.6,0,25.9-11.6,25.9,4.4
			c12.9,0.8,17.2-2.3,14.3,4.4c13-7.1,15.8-0.8,7.6,7.7c6.9,1.7-15.3,10.6-14.8,12c5.3-4,17.3-4.3,17.7-2c2.6,0.7,18.7-5.4,14.1,0.5
			c15.6,3.4,13.3,11.7-0.4,9c6.4,1.8,23.7,4.2,15.7,10.3c16,6,4.4,7.1,4.1,10c-0.4,4.1-4.2,6.8-13.2,5.9c8.9,6.7-9.8,5.8-17.5,6.8
			c0,0,17.1-0.2,12.7,3.1c13.4-1.7,6.7,3.8,1.2,6.1c5.3,2.3,20.4-1.5,6.8,6.8c9.7,3.8-5.1,4.7-11.5,4.7c25.8,15.2,0,22.2-17.9,14.5
			c-1,11.5-48,17.5-57.6,9.6c-2.1,12.5-135.8,9.5-147,4.9C357.8,614.4,356.2,613.8,377.3,598.2z"/>
		
			<linearGradient id="SVGID_26_" gradientUnits="userSpaceOnUse" x1="454.5193" y1="392.4983" x2="456.2093" y2="429.6982" gradientTransform="matrix(1.13 0 0 -1 -62.47 900)">
			<stop  offset="0" style="stop-color:#928800"/>
			<stop  offset="0.98" style="stop-color:#B39A00"/>
		</linearGradient>
		<path class="st24" d="M420.5,513.1c0,0-11.4-15.9,8-17.7c-1.3-17.3,19.4-5.8,19.4-5.8s-3.8-10.8,4.2-14.8s17.3,3.6,17.3,3.6
			s6.8-5.4,12.2-0.4s4.6,10.1,4.6,10.1s-9.3-6.5-20.2-4c-6.3,1.4-11.6,5.8-13.9,11.9c0,0,8.4-5,18.1-1.4s10.5,13.7,10.5,13.7
			s-4.2-9.4-17.3-7.2s-13.9,6.8-13.9,6.8s-2.1-9.4-10.1-8.7s-7.6,9-7.6,9S425.1,497.6,420.5,513.1z"/>
		
			<linearGradient id="SVGID_27_" gradientUnits="userSpaceOnUse" x1="423.4267" y1="369.9123" x2="424.5967" y2="395.8023" gradientTransform="matrix(1.13 0 0 -1 -62.47 900)">
			<stop  offset="0" style="stop-color:#928800"/>
			<stop  offset="0.98" style="stop-color:#B39A00"/>
		</linearGradient>
		<path class="st25" d="M387.2,533.6c0,0-10.3-6.3,7.4-7.7c-1.1-13.7,18.7-6.6,18.7-6.6s-3.5-8.6,3.8-11.7s15.8,2.8,15.8,2.8
			s6.1-4.3,11.1-0.3s4.2,8,4.2,8s-8.5-5.1-18.5-3.1s-12.7,9.4-12.7,9.4c5.2-2.4,11.1-2.8,16.5-1.1c5,1.4,8.8,5.7,9.6,10.8
			c0,0-3.9-7.4-15.8-5.7s-12.7,5.4-12.7,5.4s-1.9-7.4-9.2-6.9s-6.9,7.1-6.9,7.1S389.6,527.2,387.2,533.6z"/>
		
			<linearGradient id="SVGID_28_" gradientUnits="userSpaceOnUse" x1="525.0074" y1="323.1275" x2="527.4574" y2="377.0975" gradientTransform="matrix(1.13 0 0 -1 -62.47 900)">
			<stop  offset="0" style="stop-color:#928800"/>
			<stop  offset="0.98" style="stop-color:#B39A00"/>
		</linearGradient>
		<path class="st26" d="M473.7,584.5c-9.3-4.4-9.4-25.8,19.2-21.2c10.8-20.2,26.3-8.2,26.3-8.2s-6-17.8,18-22.6
			c12,0.5,19.2,12,19.2,12s1.1-19.2,16.7-7.3c19.8-19.1,24.2,4.1,21.9,4.6c0,0-10.5-13.5-21.3,4.2c-15,3.8-16.2,13-16.2,13
			s-9-7.7-17.4-3.9s-3.6,18.8-3.6,18.8s-10.8-12.5-24.5-9.6s-11.4,11.1-11.4,11.1S473.1,564.3,473.7,584.5z"/>
		
			<linearGradient id="SVGID_29_" gradientUnits="userSpaceOnUse" x1="426.8523" y1="378.6908" x2="428.3723" y2="411.9108" gradientTransform="matrix(1 0 0 -1 93.43 900)">
			<stop  offset="0" style="stop-color:#928800"/>
			<stop  offset="0.98" style="stop-color:#B39A00"/>
		</linearGradient>
		<path class="st27" d="M475.9,525.4c-4.8-4.9,1.5-22.6,19-14.7c13.2-15.1,19.8-3,19.8-3s1.4-15.5,18.6-16.1c7.8,2.1,9,12.6,9,12.6
			s20.8-13.6,14.2-1.8c18-11.6,8.2,7.7,6.6,7.8c0,0,1.3-3.4-9.8-2.3s-14.6,8.4-14.6,8.4s-3.6-7.6-10.3-5.6s-8,15-8,15
			s-3.3-11.8-13.3-11.4s-10.8,7.5-10.8,7.5S481.5,508.7,475.9,525.4z"/>
		
			<linearGradient id="SVGID_30_" gradientUnits="userSpaceOnUse" x1="447.0945" y1="327.7186" x2="448.3145" y2="354.4185" gradientTransform="matrix(1.13 0 0 -1 -62.47 900)">
			<stop  offset="0" style="stop-color:#928800"/>
			<stop  offset="0.98" style="stop-color:#B39A00"/>
		</linearGradient>
		<path class="st28" d="M474.1,566.4c0,0-1.5-32.6-35.1-9.6c-34.4-3.1-26.3,19.3-26.3,19.3c9.9-19.4,16.1-13.5,19.7-5.6
			c16-11.1,21.9-4.1,21.2-0.4C453.6,569.9,463.8,551.4,474.1,566.4z"/>
		
			<linearGradient id="SVGID_31_" gradientUnits="userSpaceOnUse" x1="476.2194" y1="349.5753" x2="477.4394" y2="376.5253" gradientTransform="matrix(1.13 0 0 -1 -62.47 900)">
			<stop  offset="0" style="stop-color:#928800"/>
			<stop  offset="0.98" style="stop-color:#B39A00"/>
		</linearGradient>
		<path class="st29" d="M515.9,534.3c0,0-9.5-14.7-14.5-0.3c-2.9-13.9-20.7-5.4-18.3,1c-8.6-0.8-9.1-9-19.4,1.7
			c-2.7,1.1-28.5-2.4-23.1,7.8c-13.1,7.7,7.2,9.7,7.2,9.7c0-16.8,25.3-15.3,28.9-7.4c16-11.1,22.9-5.2,22.2-1.5
			C499,545.3,498,526.1,515.9,534.3z"/>
		
			<linearGradient id="SVGID_32_" gradientUnits="userSpaceOnUse" x1="1206.9651" y1="469.5641" x2="1253.5551" y2="425.8041" gradientTransform="matrix(1 0 0 -1 93.43 900)">
			<stop  offset="0" style="stop-color:#BD7717"/>
			<stop  offset="1" style="stop-color:#D27E26"/>
		</linearGradient>
		<path class="st30" d="M1385,478.2c18.6-21.1-4.3-6.1-4.3-6.1s2.8-0.6,6.4-5c2.2-2.7-3.5-10-10.6-6.2c13.4-8.4,4.9-14.8,4.9-8.1
			c-5.3-5.3,2.3-9,2.3-9s3.3-7.4-4.2-8.5c0.8-1.7,13.2-4.9,2.4-7.9c5.1,0-3.2-16.6-7.9-11.8s-8.4-0.7-8.8-1
			c-1.3-1.4-6.5,3.8-7.8,8.4c-1.3-11.6,2.4-18.6,4.2-12.8c-6.8-6.8-5.6-0.8-7.2,0c-2.9,1.4-8,1.8-8,1.8s-3.6,6.8-2.8,2.1
			c0.7-3.8-6.3-10-0.6-10s-1.6-14.2-4.9-5.6c-1.7-4.8-6.1-14-12.7-4.3c5.8-11.1-4.8-4.7-6.3-3.3c-1.9-9.4-4.7-2.7-4.7-2.7
			s-4.3-5.4-8,0.5c-6.5,3.1-6.9,7.1-7.5,6.7c-2.9-2.1-14.3,0.8-12,6.4c-10.9-7.6-13.4,5.3-7.1,7.5c-18,5.2-2,8.1,4.4,10.5
			s-17,6.5-17,21s-11.7,17.2-11.7,17.2s2,16.7,11.7,28.8s19.5,11.3,19.5,11.3s-8.1,8.1,8.1,9.7c9.9,0.9,20-0.8,29.1-4.8
			c0,0,18.6-7.3,25.8-0.8S1406.2,473.8,1385,478.2z"/>
		
			<linearGradient id="SVGID_33_" gradientUnits="userSpaceOnUse" x1="1202.8196" y1="489.5565" x2="1292.0099" y2="489.5565" gradientTransform="matrix(1 0 0 -1 93.43 900)">
			<stop  offset="1.000000e-02" style="stop-color:#D48617"/>
			<stop  offset="1" style="stop-color:#DC7E26"/>
		</linearGradient>
		<path class="st31" d="M1373,426.4c8.9-5.6,3.2,9.3,3.2,9.3s18.4-23.1,3.3-20.3c5.9-2.1-1.9-9.8-7.7-4c-1.8-0.5-6.7-7.3-5.7-0.5
			c-6.3-6.6-13.9,3.3-13.9,3.3s1.4-11.1-4.6-7.3c0-7.8-9.8-9.6-8-3.9c-5.7-9.1-10.9,1.2-10.9,1.2s5.6-8.2-2.5-10.4
			c-1-0.3-2.5-10.7-7-3.2c-5.7-6.5-12.1-8.7-10.9,1.9c-14.1-1.2-11.9,5.8-11.9,5.8s4.5-4.3,13.9,0.1c6.4-8.1,0.6,8.3,7.3,4.1
			s5,5.9,5,5.9s-20.6,0.3-12.3,3.8c-11.6,1.9-11.4,11.3-3.1,9.6c-5,5,0.1,9.3,0.1,9.3s4.7-15.5,8.6-9.3c-1.6-10.7,4.1-3.4,6.7-3.8
			c0.4-0.1,3.5,6.8,3.9,6.8c2.6,0,2.1-6.7,3.8-6.3c5.3,1.2,7.2,3.8,7.2,3.8s0.6-9.5,4.6-7.2s6.8,14.4,6.8,14.4s4.6-14.6,9.6-6.7
			c3-13.4,5.2-1.9,7.8-1.6C1369.4,421.8,1375.9,413.7,1373,426.4z"/>
		
			<linearGradient id="SVGID_34_" gradientUnits="userSpaceOnUse" x1="1227.92" y1="453.3951" x2="1288.1707" y2="453.3951" gradientTransform="matrix(1 0 0 -1 93.43 900)">
			<stop  offset="0" style="stop-color:#A25B00"/>
			<stop  offset="1" style="stop-color:#B67926"/>
		</linearGradient>
		<path class="st32" d="M1367.2,446.9c3.2,5.6,8-5.3,12,1.5c0,0,8.5-10.5-6-8.3c6.9-5.9-10-12.8-9.2-3.3c-8.3-10-6,2.2-6.4,2.4
			c-2.9,1.1-4.9,3.9-5,7c0,0-3.4-13.2-6.8-7.6c1.2-10.5-10.1-6.3-9.5-1.8c-7.8-7.4-13.2,2.2-7.9,5.7c-12.6,4.6-4.5,10.5-4.5,10.5
			s2.7-7.3,10.8-1.5c-0.8-1.5,8.8-9.5,12.7,0.8c6.4-3.6,5.1,9,5.1,9S1364,441.2,1367.2,446.9z"/>
		
			<linearGradient id="SVGID_35_" gradientUnits="userSpaceOnUse" x1="1254.0597" y1="429.5467" x2="1305.7577" y2="429.5467" gradientTransform="matrix(1 0 0 -1 93.43 900)">
			<stop  offset="0" style="stop-color:#BD7717"/>
			<stop  offset="1" style="stop-color:#CA7226"/>
		</linearGradient>
		<path class="st33" d="M1386.6,470.2c2.3,4.1,6.3-1,10.1,0.4c0,0,7.9-8.6-4.6-6c6.3-5-7.7-9.3-7.6-2c-6.4-7.2-5.2,2.1-5.6,2.2
			c-8.9,2.8-4.7,5.7-4.7,5.7s-2-10-5.3-5.4c1.7-8.2-8.2-4.2-8-0.8c-6.2-5.2-11.4,2.5-7.1,4.9c-11,4.4-4.5,8.4-4.5,8.4
			s10.5-8.7,15.8-5.8c1.7,0.9-1.4,6.9,4.3,3.7s3.8,6.6,3.8,6.6S1384.3,466,1386.6,470.2z"/>
		
			<linearGradient id="SVGID_36_" gradientUnits="userSpaceOnUse" x1="1202.34" y1="440.0818" x2="1240.53" y2="440.0818" gradientTransform="matrix(1 0 0 -1 93.43 900)">
			<stop  offset="1.000000e-02" style="stop-color:#D48617"/>
			<stop  offset="1" style="stop-color:#DC7E26"/>
		</linearGradient>
		<path class="st34" d="M1323.9,468c0.1,4.7,4.6,2.1,6.6,5.1c0,0,8.3-3.9-1-7.5c6-1.4-2-11.8-4.4-5.3c-1.8-9.3-4.3-0.6-4.6-0.7
			c-7-1.7-5.2,2.8-5.2,2.8s2.1-9.8-1.7-7.2c4-6.4-4.1-7.6-5.1-4.4c-2.3-7.5-8.5-3.1-6.5,1c-8.9-1.4-6,5.3-6,5.3s10.1-2.7,12.7,2.3
			c0.8,1.6-3.3,5.4,1.6,5.3s0.2,7.6,0.2,7.6S1323.8,463.3,1323.9,468z"/>
		
			<linearGradient id="SVGID_37_" gradientUnits="userSpaceOnUse" x1="1344.09" y1="-435.3909" x2="1382.28" y2="-435.3909" gradientTransform="matrix(0.77 -0.36 -0.27 -0.61 119.34 634.38)">
			<stop  offset="1.000000e-02" style="stop-color:#D48617"/>
			<stop  offset="1" style="stop-color:#DC7E26"/>
		</linearGradient>
		<path class="st35" d="M1300.7,408.6c1.4,2.8,4.1-0.4,6.5,0.7c0,0,5.3-5.4-2.8-4.2c4.2-3-4.7-6.5-4.9-1.6c-3.9-5-3.4,1.2-3.7,1.2
			c-5.8,1.5-3.2,3.5-3.2,3.5s-1.1-6.7-3.3-3.8c1.3-5.3-5.2-3.1-5.1-0.9c-3.9-3.7-7.4,1.2-4.7,2.9c-7.2,2.4-3.1,5.4-3.1,5.4
			s7-5.3,10.4-3.1c1.1,0.7-1.1,4.5,2.7,2.6s2.3,4.5,2.3,4.5S1299.3,405.7,1300.7,408.6z"/>
		
			<linearGradient id="SVGID_38_" gradientUnits="userSpaceOnUse" x1="1309.6433" y1="456.3435" x2="1350.3333" y2="418.1335" gradientTransform="matrix(1 0 0 -1 93.43 900)">
			<stop  offset="0" style="stop-color:#C79F17"/>
			<stop  offset="1" style="stop-color:#C29226"/>
		</linearGradient>
		<path class="st36" d="M1377.7,485.7c0,0-11.5-9.8,2.3-15.1c-23-10.6-15.2-24.2-0.2-20.9c-10.6-9.5-1.3-22.1,10.1-24.8
			c0.3-1.8-6.1-4.6,1.1-4.6c-7.8-7.8-1.3-10.9,4.6-7c-4.2-9.3,7-4.4,10.7-2.6c-6.6-1.6-1.7-14,1.7-10.6c-2.9-9.2,4.4-3.8,8.1-2.4
			c1.4,0.6,2.8,1.4,4,2.4c16.3-7.3,11.7,10.1,11.1,13.3c0,0,1.2-4.8,3.8-2.3s2-7.5,5.2-2.3c2.1-7.6,9.7-7.6,8.4-0.3
			c10.5-4.4,4.3,3.7,4.7,8.8c3.4-0.7,7.9-5,7.9,0.4c4-4,8.1,0.6,4.2,4.5c7,0,1.2,4.4,1.1,6.8c0,2.3,14.9,1-0.9,6.6
			c10.3,0,6.2,8.6,5.1,9.2c0,0-7.3,7,2,5.1s-8,6.2-2.5,8.7s-6.4,2.3,0.5,6.3c2.5-2.5,14.9,5.3,3.8,5.3c8.6,3.7,10,8.6-2.1,5.3
			c8.1,4.7-2.3,4.4-4,7.1c1.1,1.1-4,5.2,2.5,3.3s9.9,1.3,1.1,3.4c4.6,2.2-11.1,11.4-12,11.9c0,0,12.4,4-8.3,12
			c-12.3,4.8-25.5,7.1-38.7,6.7c0,0,1.4-10.7-13.8-5.3C1384.1,519.9,1361.3,491.6,1377.7,485.7z"/>
		
			<linearGradient id="SVGID_39_" gradientUnits="userSpaceOnUse" x1="1347.4691" y1="464.8598" x2="1341.2291" y2="497.0998" gradientTransform="matrix(1 0 0 -1 93.43 900)">
			<stop  offset="0" style="stop-color:#B68B00"/>
			<stop  offset="1" style="stop-color:#E3B600"/>
		</linearGradient>
		<path class="st37" d="M1411.2,434.6c0,0-3.2-15,8.1-8.7c6.2-6.8,8.1-3.1,8.2-3.2s1.2-10.7,5.9-6.5c2.9-12.3,10,2.1,10,2.1
			s-2.1-19.9,12.3-1.3c11.1,0,6.9,9.9,6.9,9.9s11,6.6,3.7,16.1c16.3,0-5.8,5.8-5.8,5.8s11.5-21.3-9.9-16.2c-9-1.9-10.7,6.6-10.7,6.6
			s-1.3-9-10.7-8.5s-7.3,7.1-7.3,7.1S1417.6,424.6,1411.2,434.6z"/>
		
			<linearGradient id="SVGID_40_" gradientUnits="userSpaceOnUse" x1="1334.2351" y1="475.8388" x2="1314.5652" y2="509.7488" gradientTransform="matrix(1 0 0 -1 93.43 900)">
			<stop  offset="0" style="stop-color:#C79F17"/>
			<stop  offset="1" style="stop-color:#E3B600"/>
		</linearGradient>
		<path class="st38" d="M1407.4,424.6c0,0-10-8.1-4.7-11.6s5.3-3.5,5.3-3.6s-4.3-7.6-0.2-8.8s5-0.1,5-0.1s-6.8-12.9,2.4-13.3
			s10.2,6.6,10.2,6.6s5.6-6.2,7.5,2.3s-1,12.1-1,12.1s-3.3-13-8-8.1s-2.3,8.5-2.3,8.5s-5.2-2.9-8.8,3.2s0.6,7.5,0.6,7.5
			S1405,416.4,1407.4,424.6z"/>
		
			<linearGradient id="SVGID_41_" gradientUnits="userSpaceOnUse" x1="1336.3313" y1="448.9987" x2="1338.9214" y2="471.7887" gradientTransform="matrix(1 0 0 -1 93.43 900)">
			<stop  offset="0" style="stop-color:#C79F17"/>
			<stop  offset="1" style="stop-color:#E8C526"/>
		</linearGradient>
		<path class="st39" d="M1438.6,462.5c1.4-2.5,14.4-17.1-2.6-17.1c2.9-10.6-8.3-2.6-8.3-2.6s-7.8-15-11.3-4c-10.1-8.3-13.8,0-13.8,0
			s6.1-16.5-9.9-10.5c-12.8-8.1-15.6,5.5-15.6,5.5c0-2.6,11.9-10.7,15.8,3.4c8.2-3.6,7,12.8,7,12.8s5.8-10.1,17.4-4.4
			c-2.8,2.2-4.2,5.7-3.8,9.3c0,0,6.6-11.6,15.1-3.1c9.7-7.9,4.7,14.7,4.7,14.7s20.4-6.3,9.9,7.7c4.5-1.1,9.2-0.7,14.1,0.1
			s-10.2-5-1.2-5.4s3-5.6,9.4-0.4c7.8,1.7,13-6.3,3.5-4.2c0.8-1-4-7,4.4-7s17.2-4.9,2.3-2.9c-0.5-3.3-16-12.7-14.9,0.1
			c-8.7,2.7-4,6.9-4,6.9S1444.6,454.5,1438.6,462.5z"/>
		
			<linearGradient id="SVGID_42_" gradientUnits="userSpaceOnUse" x1="1317.5291" y1="425.6194" x2="1301.189" y2="448.9594" gradientTransform="matrix(1 0 0 -1 93.43 900)">
			<stop  offset="0" style="stop-color:#C79F17"/>
			<stop  offset="1" style="stop-color:#E8C526"/>
		</linearGradient>
		<path class="st40" d="M1416,462.3c5,1.6,3.8-4.5,7.7-5.7c0,0-1.2-11.1-8.2-1.7c0.6-7.4-13-2.2-7.1,3.1c-10.4-1.5-2.1,4.7-2.3,5
			c-4.2,7.4,1.1,7,1.1,7s-9.5-6.1-8.1-0.8c-5.3-7-9.3,1.8-6.4,4.2c-8.6-0.1-6.2,8.7-1.2,7.8c-0.2,2.3,1.5,4.3,3.8,4.6
			c0.2,0,0.4,0,0.6,0c0,0-0.3-8.3,5.9-9.4c2-0.3,4.5,5.9,6.1,0.2s8,2.6,8,2.6S1411,460.6,1416,462.3z"/>
		
			<linearGradient id="SVGID_43_" gradientUnits="userSpaceOnUse" x1="1362.2426" y1="436.9441" x2="1337.8926" y2="478.9341" gradientTransform="matrix(1 0 0 -1 93.43 900)">
			<stop  offset="0" style="stop-color:#C79F17"/>
			<stop  offset="1" style="stop-color:#E3B600"/>
		</linearGradient>
		<path class="st41" d="M1449.5,443.7c0.1,4.7,4.6,2.1,6.6,5.1c0,0,8.3-3.9-1-7.5c6-1.4-2-11.8-4.4-5.3c-1.8-9.3-4.3-0.6-4.6-0.7
			c-1.7-1.7-5.2,2.8-5.2,2.8s2.1-9.8-1.7-7.2c4-6.4-4.1-7.6-5.1-4.4c-2.3-7.5-8.5-3.1-6.5,1c-8.9-1.4-6,5.3-6,5.3s10.1-2.7,12.7,2.3
			c0.8,1.6-3.4,5.4,1.6,5.3s0.2,7.6,0.2,7.6S1449.3,438.9,1449.5,443.7z"/>
		
			<linearGradient id="SVGID_44_" gradientUnits="userSpaceOnUse" x1="974.8422" y1="459.3932" x2="1209.4537" y2="459.3932" gradientTransform="matrix(1 0 0 -1 93.43 900)">
			<stop  offset="0" style="stop-color:#7C6D00"/>
			<stop  offset="0.34" style="stop-color:#868100"/>
			<stop  offset="0.99" style="stop-color:#8D6D00"/>
		</linearGradient>
		<path class="st42" d="M1078.1,494.7c-17.8,12.9-9.6-31.4,9.7-26.1c2.8-4.6-2.8-16.5,10.1-17.5c-10.9-7.5,11.8-18.9,6.7-21.3
			c-5.1,5.1-8.8,3.2-10-3.3c-6.3,0-9.5-2.9-10.8-4.6c-4.6-5.9,0-9.8,7.7-8.3c-5.3-15.3,4.2-25.6,13-16.8s3.1-4.9,9.9-5.6
			c-2.6-8.9,2.3-19.4,12.7-13c5.7-10.1,8.6-12.1,15.4-14.1c3.6-21.5,26.8-18.5,40.6-6.4c7.6-7.8,9.2,7.1,10.6,10
			c1.5-3,12.9-4.5,9.1,9.2c5-11.8,12.7-7.3,13-5.6c11.4,0,25.5-15.2,25.5,5.7c12.7,1.1,16.9-3,14.2,5.7c12.9-9.4,15.6-1.1,7.5,10.1
			c6.8,2.2-15.1,13.9-14.6,15.8c5.3-5.3,12.8-3.5,13.1-0.5c2.5,0.9,15.3-4.5,10.8,3.4c15.4,4.5,20.5,10.5,6.9,7.1
			c6.3,2.4,23.4,5.6,15.4,13.5c15.8,7.9,4.3,9.3,4,13.2c-0.4,5.4-4.2,9-13,7.7c8.8,8.8-9.6,7.6-17.2,8.9c0,0,16.9-0.3,12.5,4.1
			c13.2-2.2,6.6,4.9,1.2,8c5.2,2.9,20.2-2,6.7,9c9.6,5-5.1,6.2-11.3,6.2c25.4,20,0,29.2-17.6,19.1c-1,15.1-47.4,23-56.9,12.6
			c-2,16.4-51.1,13.2-62.1,7.3C1141.8,529.1,1066.5,527.3,1078.1,494.7z"/>
		
			<linearGradient id="SVGID_45_" gradientUnits="userSpaceOnUse" x1="1049.2476" y1="532.8674" x2="1068.1975" y2="515.0773" gradientTransform="matrix(1 0 0 -1 93.43 900)">
			<stop  offset="0" style="stop-color:#BD7717"/>
			<stop  offset="1" style="stop-color:#D27E26"/>
		</linearGradient>
		<path class="st43" d="M1117.2,395.1c0,0-11.4-20.8,8.1-23.2c-1.3-22.7,19.5-7.6,19.5-7.6s-3.8-14.2,4.2-19.4s17.4,4.7,17.4,4.7
			s6.8-7.1,12.3-0.5s4.7,13.3,4.7,13.3s-9.3-8.5-20.3-5.2s-14,15.6-14,15.6s8.5-6.6,18.2-1.9s10.6,18,10.6,18s-4.2-12.3-17.4-9.5
			s-14,9-14,9s-2.1-12.3-10.2-11.4s-7.6,11.8-7.6,11.8S1121.8,374.7,1117.2,395.1z"/>
		
			<linearGradient id="SVGID_46_" gradientUnits="userSpaceOnUse" x1="1016.2048" y1="495.9044" x2="1032.5647" y2="480.5345" gradientTransform="matrix(1 0 0 -1 93.43 900)">
			<stop  offset="0" style="stop-color:#BD7717"/>
			<stop  offset="1" style="stop-color:#D27E26"/>
		</linearGradient>
		<path class="st44" d="M1083.7,422c0,0-10.3-8.2,7.4-10.1c-1.2-18,18.8-8.7,18.8-8.7s-3.5-11.3,3.9-15.4s15.9,3.8,15.9,3.8
			s6.2-5.6,11.2-0.4s4.3,10.5,4.3,10.5s-8.5-6.8-18.6-4.1s-12.8,12.4-12.8,12.4s7.7-5.3,16.6-1.5s9.7,14.3,9.7,14.3
			s-3.9-9.8-15.8-7.5s-12.8,7.1-12.8,7.1s-1.9-9.8-9.3-9s-7,9.4-7,9.4S1086.1,413.6,1083.7,422z"/>
		
			<linearGradient id="SVGID_47_" gradientUnits="userSpaceOnUse" x1="1071.6202" y1="447.0207" x2="1199.6035" y2="447.0207" gradientTransform="matrix(1 0 0 -1 93.43 900)">
			<stop  offset="0" style="stop-color:#867E00"/>
			<stop  offset="1" style="stop-color:#B67926"/>
		</linearGradient>
		<path class="st45" d="M1170.7,488.9c-9.4-5.7-9.5-33.9,19.3-27.8c10.8-26.5,26.5-10.7,26.5-10.7s-6-23.4,18-29.7
			c12,0.6,19.3,15.8,19.3,15.8s1.1-25.2,16.8-9.6c20-25.1,24.3,5.4,22,6c0,0-10.6-17.8-21.4,5.5c-15,5-16.3,17.1-16.3,17.1
			s-9-10.1-17.5-5s-3.6,24.6-3.6,24.6s-10.8-16.4-24.7-12.6s-11.4,14.5-11.4,14.5S1170.1,462.4,1170.7,488.9z"/>
		
			<linearGradient id="SVGID_48_" gradientUnits="userSpaceOnUse" x1="1116.3682" y1="516.5388" x2="1137.0981" y2="497.0688" gradientTransform="matrix(1 0 0 -1 93.43 900)">
			<stop  offset="0" style="stop-color:#BD7717"/>
			<stop  offset="1" style="stop-color:#D27E26"/>
		</linearGradient>
		<path class="st46" d="M1175.4,411.3c-4.8-6.5,1.5-29.7,19.1-19.4c13.3-19.9,19.9-4,19.9-4s1.4-20.4,18.8-21.1
			c7.8,2.8,9.1,16.6,9.1,16.6s20.9-17.9,14.3-2.4c18.2-15.2,8.3,10.1,6.6,10.2c0,0,1.3-4.5-9.8-3.1c-6.5,0.8-12.1,5-14.7,11.1
			c0,0-3.6-10-10.3-7.4s-8.1,19.6-8.1,19.6s-3.4-15.5-13.4-15s-10.9,9.9-10.9,9.9S1181.2,389.3,1175.4,411.3z"/>
		
			<linearGradient id="SVGID_49_" gradientUnits="userSpaceOnUse" x1="1014.9777" y1="440.3214" x2="1077.5699" y2="440.3214" gradientTransform="matrix(1 0 0 -1 93.43 900)">
			<stop  offset="0" style="stop-color:#7C6D00"/>
			<stop  offset="0.34" style="stop-color:#868100"/>
			<stop  offset="0.99" style="stop-color:#8D6D00"/>
		</linearGradient>
		<path class="st47" d="M1171,465.1c0,0-1.5-42.9-35.3-12.6c-34.6-4.1-26.5,25.3-26.5,25.3c10-25.5,16.2-17.8,19.8-7.4
			c16.1-14.5,22-5.4,21.3-0.6C1150.5,469.8,1160.8,445.4,1171,465.1z"/>
		
			<linearGradient id="SVGID_50_" gradientUnits="userSpaceOnUse" x1="1039.6199" y1="469.0925" x2="1119.72" y2="469.0925" gradientTransform="matrix(1 0 0 -1 93.43 900)">
			<stop  offset="0" style="stop-color:#867E00"/>
			<stop  offset="1" style="stop-color:#B67926"/>
		</linearGradient>
		<path class="st48" d="M1213.2,422.9c0,0-9.6-19.3-14.6-0.4c-2.9-18.3-20.8-7.1-18.4,1.4c-8.6-1-9.2-11.8-19.5,2.3
			c-2.7,1.5-28.7-3.1-23.2,10.3c-13.2,10.1,7.2,12.7,7.2,12.7c0-22.1,25.4-20.2,29-9.7c16-14.5,23-6.8,22.4-2
			C1196.1,437.4,1195.1,412.1,1213.2,422.9z"/>
		<path class="st49" d="M1063.5,449.3c0.1-2.4-8.2-9.8,0.7-6.5c-4.1-8.3,2.1-5.1,4.2-5c-9.5-8-7.9-11.8,2.3-11
			c2.1,0.2-6.7-13.7,4.9-6.9c8.5-8.5,3.8,5,4.8,5.9c1.8,1.7,1.8,0.3,3.6,3c2.2-3.6,1.8-12.7,5.9-8.5c5.5-5.5,12.7,3,8.1,7.6
			c8.3-2.1,9.2,5.4,3.7,7.1c1.9,0.2,1.5,2.7,0.5,5.1c-0.7,1.7-1.5,3.3-2.4,4.8c0-1.5,7.4-11.2,8.5-0.3c4.7-1.9,4.2-3.8,6.8-1.5
			c1.9,0.3,1.5-1.6,0.3-4.4c-0.6-1.4-1.4-3-2.3-4.6c-1.2-2.3-11.4-5.1-3.2-6.7c-9.4-3.2-1.4-5.5,1.6-4.9c9,1.8,9.9,1.8,9.9,1.8
			s-17.7-18.5-3.6-16.2c2.3-0.7,5.6-8.7,5.6-1c2.1-9.1,6.1,1.9,6.1,1.9c-0.7-3.3,2.4-14.8,6.7-7.4c5.7-10.2,5.7-0.1,8.2,2
			c1.6,1.3,12,1.3,3.8,6.1c14.5-1.4,13.8,8.3,1.1,11c9.9,2.8-9,6.8-9,12.6c2.7-4,4.7-2.4,9-1.7c2.3,0.4,9.4-3.9,6.3,2.2
			c13.7,0,4.8,5.9,0,11.1c-1.8,0-3.6,0.2-5.4,0.6c-6.6,1.6-9,5.7-9,5.7c0.9-0.9,15.1-4.8,11.7-1.4s17.9-1,6.6,6.1
			c-11.3,1.1-0.3,2.4-1,3.8s10.4,1.5-2.9,5c6.7,0-1.1,7.2-1.1,7.2s7.2-2.6,4.9,2.3c1.9-0.9,0,0,1.5,0.4c5.2-5.2,12.6-0.9,8.5,3.1
			c2.8,1,14.2,0.2,8.2,2.8s6.6,0.2,1.1,5.6c4.5,3,10.2,0.7,3.3,2.8c-1.8,1.3-3.6,2.5-5.6,3.5c9,11.8-18.1,10.6-24.4,18.7
			s-24.6,6.8-34.5,0.5s-8.3-27.1-24.4-21.7s-15.6-12.8-22.8-11C1065.6,480.3,1062.8,462.4,1063.5,449.3z"/>
		
			<linearGradient id="SVGID_51_" gradientUnits="userSpaceOnUse" x1="1035.2523" y1="425.9113" x2="1022.1123" y2="448.5513" gradientTransform="matrix(1 0 0 -1 93.43 900)">
			<stop  offset="0" style="stop-color:#446D00"/>
			<stop  offset="0.99" style="stop-color:#5B7C00"/>
		</linearGradient>
		<path class="st50" d="M1123.2,456.8c0,0-1.1-2-8.4-0.7s-10.3,2-10.3,2s5.6,0.9,6.9,0.9s1.3,1.6,1.3,3.6s2.2-0.7,6.9-0.7
			s4.7-1.3,5.8-1.3s-1.1,1.3,3.8,2.3s5.7,0.3,6.9-0.7s-1-1-3.3-1s-2.4-0.7-2.4-2.4s1.7-3.5-1.1-2.5S1122.4,454.3,1123.2,456.8z"/>
		
			<linearGradient id="SVGID_52_" gradientUnits="userSpaceOnUse" x1="1046.9738" y1="446.8906" x2="1032.6837" y2="471.5206" gradientTransform="matrix(1 0 0 -1 93.43 900)">
			<stop  offset="0" style="stop-color:#446D00"/>
			<stop  offset="0.99" style="stop-color:#5B7C00"/>
		</linearGradient>
		<path class="st51" d="M1137.4,437c0,0,14.8-11.1,11.4-8.2s4.6,0.1,1.7,2.5s-1.6,3.5-1.6,3.5s6.8,0.5,4.6,2.3s-3.4,1.5-3.4,1.5
			s-4.1-1.6-4.1,0c0.1,0.9-0.3,1.7-0.9,2.4c0,0-3.2-3.8-5.8-1.6s-2.6,3.1-2.6,3.1s-4-2.6-5.2-1.6s-2,5.1-1.2,5.8s3.7-3.2-2.5-2.1
			l-6.2,1c-1.3-1.3-2.8-2.3-4.5-3.1c-2.1-0.7-13.9-3.6-6-4s9.9,1.7,9.9,1.7s-0.2-2.7,3-1.3s4,0.6,4,0.6s-2.8-4,0.5-4h3.2
			C1131.7,435.4,1135.7,432.2,1137.4,437z"/>
		
			<linearGradient id="SVGID_53_" gradientUnits="userSpaceOnUse" x1="1061.3187" y1="420.4393" x2="1050.5687" y2="438.9693" gradientTransform="matrix(1 0 0 -1 93.43 900)">
			<stop  offset="0" style="stop-color:#446D00"/>
			<stop  offset="0.99" style="stop-color:#5B7C00"/>
		</linearGradient>
		<path class="st52" d="M1130.7,477.8c0,0-0.4-7.4,3.3-7.4s6.9-0.9,5.8-1.8s-0.4-5.8,1.9-5.8s5.9-2.3,5.9-2.3s5.2,0.7,6.9-0.7
			s5.2-0.6,3.4,0.9s-1.8,2.7-1.8,2.7s13.6-2.7,11.3-0.7c-1.8,1.6-4.1,2.5-6.5,2.4c-2.2,0-11.9-2.1-9.3,0.2s11,6.7,5.6,5.6
			s-8.6-3.6-8.6-2.4s3.2,3.5,1.7,4.7s-1.7-0.7-3.9-0.7s-4.1-0.9-4.1,0.9s-1.7,0.2-5.2,0.2s-3.7,0.4-3.7,1.8S1133,477.8,1130.7,477.8
			z"/>
		
			<linearGradient id="SVGID_54_" gradientUnits="userSpaceOnUse" x1="998.8853" y1="448.7614" x2="991.1852" y2="462.0515" gradientTransform="matrix(1 0 0 -1 93.43 900)">
			<stop  offset="0" style="stop-color:#386D17"/>
			<stop  offset="0.99" style="stop-color:#427C26"/>
		</linearGradient>
		<path class="st53" d="M1089.7,445c-1.2-2.1-1.4-4.7-0.5-6.9c1.6-3.6,2.8-5.5,4.4-3.3s3.5-3.2,6.7-0.5c1.9,1.5,3,3.8,3.2,6.1
			c0,0-2.5-4.8-5.1-2.5c-1.6,1.3-2.2,3.4-1.7,5.4c0,0-1.4-5.2-3.9-3.1s-0.9,4-0.9,4s-1.3,3.1-3.7,3.1s-1.9,2.4-1.9,2.4
			s-2.9-6.1-6.2-3.3c-1.9,1.7-4.1,3-6.4,4C1073.5,450.4,1075,441.9,1089.7,445z"/>
		
			<linearGradient id="SVGID_55_" gradientUnits="userSpaceOnUse" x1="1030.8613" y1="416.3808" x2="1020.4113" y2="434.4008" gradientTransform="matrix(1 0 0 -1 93.43 900)">
			<stop  offset="0" style="stop-color:#446D00"/>
			<stop  offset="0.99" style="stop-color:#5B7C00"/>
		</linearGradient>
		<path class="st54" d="M1122.8,471.7c0,0-6.7-4.7-6.7-2.9v3.1c0,0-7.3-2.2-10.1-1.5s1.3,2.9,4.1,2.9s2.8-0.7,2.8,1.6
			s3.2,2.5,4.5,1.5s-0.4-1.5,4.3-0.2s9.5-2.2,5.6-2.2s-4.5,0.5-3.9,0s6.3-5.3,4.7-4S1122.8,468.8,1122.8,471.7z"/>
		
			<linearGradient id="SVGID_56_" gradientUnits="userSpaceOnUse" x1="1082.5537" y1="403.9706" x2="1070.2938" y2="425.1206" gradientTransform="matrix(1 0 0 -1 93.43 900)">
			<stop  offset="0" style="stop-color:#446D00"/>
			<stop  offset="0.99" style="stop-color:#5B7C00"/>
		</linearGradient>
		<path class="st55" d="M1159.1,482.6c0,0,20.4-6.5,17.8-4.4l-2.6,2.2c0,0,13.1,2.4,8.6,3.1s-6.7,0-6.7,0s4,6.5,0.4,3.5
			s-5-2.9-5-2.9s-2.9-3.4-3.4,0s-3-0.2-3-0.2l-1.3,1.1c-2.2,1.8-9.5,1.5-8.4,0.5s0-2.2,1.7-2.5s-6.9-0.7-4.7-1.5s9.4-3.9,10.8-2.7
			S1159.1,482.6,1159.1,482.6z"/>
		
			<linearGradient id="SVGID_57_" gradientUnits="userSpaceOnUse" x1="1083.3386" y1="390.1692" x2="1067.1886" y2="418.0192" gradientTransform="matrix(1 0 0 -1 93.43 900)">
			<stop  offset="0" style="stop-color:#446D00"/>
			<stop  offset="0.99" style="stop-color:#5B7C00"/>
		</linearGradient>
		<path class="st56" d="M1154.2,492.5c0,0,28.1-7.7,24.6-5.1l-3.6,2.6c0,0,18,2.8,11.8,3.6s-9.2,0-9.2,0s5.5,7.6,0.6,4
			s-6.8-3.4-6.8-3.4s-4-3.9-4.7,0s-4.1-0.2-4.1-0.2l-1.8,1.3c-3,2.1-13,1.7-11.6,0.6s0-2.6,2.4-3s-9.5-0.9-6.5-1.7
			s12.9-4.6,14.8-3.2S1154.2,492.5,1154.2,492.5z"/>
		
			<linearGradient id="SVGID_58_" gradientUnits="userSpaceOnUse" x1="1040.7185" y1="459.9207" x2="1029.4186" y2="479.3907" gradientTransform="matrix(1 0 0 -1 93.43 900)">
			<stop  offset="0" style="stop-color:#446D00"/>
			<stop  offset="0.99" style="stop-color:#5B7C00"/>
		</linearGradient>
		<path class="st57" d="M1123.2,427.3c0,0-4-8.2-0.3-5.1c2,1.8,4.3,3.2,6.7,4.2c0,0-1.2-4.8,0.6-4.8s1.8,3,1.8,3s4.3-3.1,3.4,0
			c-0.5,1.5-0.8,3.1-0.8,4.7c0,0,4.3-4.9,4.3-1.8s-0.9,3.8-0.9,3.8c-0.8,0.7-2,0.7-2.8,0c-1.4-1.2-5.2-1.1-5.2-1.1s-2-4.4-2-1.7
			c0.1,1.5-1,2.9-2.5,3c-0.1,0-0.3,0-0.4,0c-0.9,0-1.7,1.8-4.5-0.5s-9.7-5.3-5.4-4.5c2.2,0.3,4.3,1,6.2,2.2
			C1121.5,428.6,1119.2,423.9,1123.2,427.3z"/>
		
			<linearGradient id="SVGID_59_" gradientUnits="userSpaceOnUse" x1="1060.174" y1="441.1365" x2="1051.174" y2="456.6465" gradientTransform="matrix(1 0 0 -1 93.43 900)">
			<stop  offset="0" style="stop-color:#446D00"/>
			<stop  offset="0.99" style="stop-color:#5B7C00"/>
		</linearGradient>
		<path class="st58" d="M1134.5,450.5c-1.2-1,5.2-4.5,8.3-4.5c1.9,0,3.7-0.5,5.4-1.5c2-1.1,4.5-0.9,6.3,0.6c3,2.5,11.1,3.8,6,3.8
			s-9.5-2.7-9.5-1.1s1.6,4.3,0.2,5.5s-2.4-2-3.7-3.1s0.9-1.5-1.3,0.4s-4.9,1.2-4.9-0.2s2.1-3.2,0-1.4S1135.9,451.7,1134.5,450.5z"/>
		
			<linearGradient id="SVGID_60_" gradientUnits="userSpaceOnUse" x1="1001.6152" y1="443.1972" x2="988.9752" y2="464.9772" gradientTransform="matrix(1 0 0 -1 93.43 900)">
			<stop  offset="0" style="stop-color:#446D00"/>
			<stop  offset="0.99" style="stop-color:#5B7C00"/>
		</linearGradient>
		<path class="st59" d="M1081.9,441.8c0,0-8.3-4.5-3.2-3.4s6.9,2.5,6.9,2.5c0.7-1.1,1.6-2.1,2.6-2.9c1.9-1.6,0.9,2.1,0.9,2.1
			s1.1-0.9,3.8-0.9s2.3,4.1,1.4,4.1s-1.2,0,0.9,1.8s1.7,5.1-0.4,3.3s-1.7-5.5-3-2.4c-0.7,1.7-1.6,3.4-2.6,4.9c0,0-3.3-3.5-1.3-5.3
			s1-3.3-0.9-1.7s-3.4,2.9-3.4,1.6s1-2.1,0-1.3s-7.7-0.7-5-0.9S1081.9,441.8,1081.9,441.8z"/>
		<path class="st60" d="M964.7,479.3c-1.8-9.1-12.3-35.5,19.8-13.5c-1-41.6,14.8-25.4,21.6-18c0,1-20.8-27.4,1.3-35.1
			c14.1-25,21.1,8.9,18.5,10.9c0.6-4.2,18.2-29.5,27-1.8c20.4,7.7-3.1,37.6-6.3,39.5c6.4-9.7,31.8-30.3,34.1-5.4
			c21.2-3.4,8.2,27.6,4.5,33.2c3.5-4.2,16-33.3,24,2.4c9.2-4.7,11-1,11.1,10.5c0,0-4.3-1.1,16.3-2c0,10.9-1,9.5-11.4,14.1
			c0,0,51.6,19.8-1.4,37.8s-173.4,19.8-204.8,12.6s-66.1-12-66.1-12c-5.9-6.8-14.3-28.8,9.5-24.2c14.4-26.2,22.9-6.7,24.3,2.1
			c0,0-2.7-15.3,11.7-13.5c12.5-11.5,16.4,3.5,17.1,8.1c0,0-3.6-13.5,9.9-13.5s15.3,3.6,15.3,3.6c-3.1-1.6-22.8-22.1-2.7-27.9
			C942.6,466.9,947.3,469.8,964.7,479.3z"/>
		<path class="st61" d="M941.8,523.6c0,0-22-27.8-9.3-28.3s14.6,4.1,14.6,4.1s-6.3-19.5-0.5-20s6.8,5.1,6.8,5.1s20-24.2,19.5-12.9
			s-1.5,13.3-1.5,13.3s25.8-18,18-6.7s-12.2,12.3-12.2,12.3s17.6-2.6,7.3,6.2s-10.3,3.6-11.2,8.8s-7.8,5.6-2.9,8.7
			c4.9,3.1,4.9,6.7,4.9,6.7s1.5-13.9,5.8-9.8s4.9,4.1,4.9,4.1s6.8-19,9.3-10.3s-0.5,9.3,2.4,8.8s3.4-9.3,7.8-9.8s-4.9-14.9,0.5-15.4
			s6.8-2.6,12,1.5c0.5,4.1-5.7,18-2.6,18.5s18.5-13.9,15.4-1c-3.1,12.9-6.2,12.3-6.2,12.3s19.6-11.3,13.4,0.5s-7.2,12.4-7.2,12.4
			s24.7-9.8,15.4,0.5s-9.8,9.8-9.8,9.8s-8.2-9.3-16.5-1.5s-17.7,22-75,22c-72.7,0-108.8-13.1-99-17.2s17.7-10,20.2-7.4
			s-9.3-17.5,2.6-8.7s13.3,8.7,13.3,8.7s-4.1-20.6,3.6-11.3s9.8,9.8,9.8,9.8s-3.6-20.6,4.6-13.9s6.7,12.9,6.7,12.9s5.8-5.7,6.9,1
			s-1.2,5.7,5,6.7s-13.4-24.1-2.6-24.6s12.3,9.3,12.3,9.3S937.3,517.4,941.8,523.6z"/>
		
			<linearGradient id="SVGID_61_" gradientUnits="userSpaceOnUse" x1="1007.6105" y1="361.1603" x2="947.8406" y2="464.2203" gradientTransform="matrix(1 0 0 -1 93.43 900)">
			<stop  offset="0" style="stop-color:#426D05"/>
			<stop  offset="0.99" style="stop-color:#7C9D0F"/>
		</linearGradient>
		<path class="st62" d="M1029.8,453.8c12.9-0.5,17.5,9.3,17.5,9.3s-2-22.6,5.7-23.7s5.2,7.7,5.2,7.7s12.3-16.5,17.5-7.2
			s1.6,15.9,1.6,15.9s18-11.3,14.9,2.1s-7.2,18-7.2,18s10.3-7.2,10.8-0.5s0.5,7.2,0.5,7.2s13.4-8.2,13.4,2.6s-3.6,16.5-3.6,16.5
			s-0.5-16.5-6.7-11.3s-7.2,5.7-7.2,5.7s4.1-17-4.1-12.4s-9.3,10.8-9.3,10.8s6.7-16.5-2.1-19s-19.6,4.1-19.6,4.1s13.9-14.9,9.8-21.6
			s-11.8,2-11.8,2l-1.6,8.7c0,0-10.8-10.3-15.4-5.1s-5.7,7.2-5.7,7.2s-3.6-16.5-9.3-11.8s-6.2,5.1-6.2,5.1s-5.7-6.7,0.5-11.3
			s6.2-1.5,6.2-1.5S1036.5,430.7,1029.8,453.8z"/>
		
			<linearGradient id="SVGID_62_" gradientUnits="userSpaceOnUse" x1="965.9622" y1="448.2029" x2="940.1422" y2="492.7229" gradientTransform="matrix(1 0 0 -1 93.43 900)">
			<stop  offset="0" style="stop-color:#536D2B"/>
			<stop  offset="0.99" style="stop-color:#6A9A0F"/>
		</linearGradient>
		<path class="st63" d="M1027.7,432.4c0,0-5.1-20.1,4.1-23.6s16,7.7,16,7.7s9.3-5.6,13.9,4.1s-1.5,16-1.5,16s0.5-16.4-8.3-10.8
			s-7.7,5.6-7.7,5.6s-0.5-13.9-6.7-12.3S1027.7,432.4,1027.7,432.4z"/>
		
			<linearGradient id="SVGID_63_" gradientUnits="userSpaceOnUse" x1="926.1264" y1="433.3937" x2="899.0364" y2="480.1137" gradientTransform="matrix(1 0 0 -1 93.43 900)">
			<stop  offset="0" style="stop-color:#426D05"/>
			<stop  offset="0.99" style="stop-color:#7C9D0F"/>
		</linearGradient>
		<path class="st64" d="M987.5,454.6c0,0-8.2-15.4,2.6-17s16.5,7.2,16.5,7.2s-3.1-12.3,8.2-14.4c0,0-17.5-3.1-12.8-11.8
			s9.8-8.7,9.8-8.7s-8.7,5.1-0.5,9.8s10.3,7.7,10.3,7.7s-8.8-0.5-4.1,9.2s6.7,11.8,6.7,11.8s-13.9-7.2-19-0.5s-4.6,8.7-4.6,8.7
			S994.7,437.6,987.5,454.6z"/>
		
			<linearGradient id="SVGID_64_" gradientUnits="userSpaceOnUse" x1="983.7529" y1="390.3059" x2="972.5829" y2="409.5559" gradientTransform="matrix(1 0 0 -1 93.43 900)">
			<stop  offset="0" style="stop-color:#426D05"/>
			<stop  offset="0.99" style="stop-color:#7C9D0F"/>
		</linearGradient>
		<path class="st65" d="M1064.9,497.3c0,0,11.4-16,11.4-11.4v4.6c0,0,24.5-1.8,15.1,1.5s-13.7,3.4-13.7,3.4s6.5,5.5,3.2,5.5
			s-8.3-6.4-8.3-4s-1.1-1.5-2.9,2.4s-11.3,8.7-9.4,4s2.3-5,0-3s-5.9,0.9-5.9,5v7.5c0,0-4.5,0-4.5-3.6s0-5.5,1.1-4.6
			S1056.3,494.2,1064.9,497.3z"/>
		
			<linearGradient id="SVGID_65_" gradientUnits="userSpaceOnUse" x1="901.7422" y1="363.4119" x2="881.3123" y2="398.6219" gradientTransform="matrix(1 0 0 -1 93.43 900)">
			<stop  offset="0" style="stop-color:#426D05"/>
			<stop  offset="0.99" style="stop-color:#7C9D0F"/>
		</linearGradient>
		<path class="st66" d="M979,510.6c0.7,1.7-29.6,1.4-20.2,1.4s13.7,3,13.7,3s-14.8,10.7-6.8,8.2s11.2-5.2,11.2-5.2s2,9,6.1,5.5
			l4.1-3.5c3.7,0,7.4,0.4,11,1.4c5.8,1.5,1.4-2.1-1.3-4.4s-13.5-2.3-7-2.3s15.1,0.3,15.1-2.4s-6.5-7.9-9-2.8c-2.5,5.2-5,3.3-5,0.6
			s-4.2-6.8-4.2-1.7S976.3,503.5,979,510.6z"/>
		
			<linearGradient id="SVGID_66_" gradientUnits="userSpaceOnUse" x1="861.4327" y1="355.9289" x2="841.1426" y2="390.909" gradientTransform="matrix(1 0 0 -1 93.43 900)">
			<stop  offset="0" style="stop-color:#426D05"/>
			<stop  offset="0.99" style="stop-color:#7C9D0F"/>
		</linearGradient>
		<path class="st67" d="M952.1,520.5c0,0-28.1-11-23-6.7l7.9,6.7c0,0-23.3,3.3-12.8,4.9c5.3,0.8,10.6,1.4,16,1.5c0,0-5,2.1-2.2,4.6
			s6.5-2.7,6.5-2.7s1.1,3.3,8.6,3.3s1.1-4-1.4-4s1.8,0.9,6.5-3s4.7-9.4,1.4-6.7l-3.2,2.7c0,0-5-11.9-5-7.6S947.4,516.5,952.1,520.5z
			"/>
		
			<linearGradient id="SVGID_67_" gradientUnits="userSpaceOnUse" x1="870.7343" y1="372.874" x2="849.3842" y2="409.694" gradientTransform="matrix(1 0 0 -1 93.43 900)">
			<stop  offset="0" style="stop-color:#426D05"/>
			<stop  offset="0.99" style="stop-color:#7C9D0F"/>
		</linearGradient>
		<path class="st68" d="M954.5,504.3c0,0-24-13.3-19.5-7.6s12.4,4.3,8.5,5.7s-22-1.9-17.3,2s9.2,2.9,9.2,2.9s6.7-1.1,3.4,1.7
			s-11.1,7.1-5.8,5.2c3.3-1.2,6.6-2.6,9.7-4.2c0,0-3.2,1.8,4,3.3c7.2,1.5,7.2-1.5,7.2-1.5s-1.4,7.6,1.8,7.6s3.6-6.7,3.6-6.7
			s8.1-0.5,13.7-5.2s2-8.1-2.5-4.3s0.9-11-1.8-5.5s-5.8,7-5.8,7c-0.3,2.2-2.1,3.8-4.3,3.7h-8.7c0,0-6.5-2.4-2.2-2.4
			S952.2,504.3,954.5,504.3z"/>
		
			<linearGradient id="SVGID_68_" gradientUnits="userSpaceOnUse" x1="924.8818" y1="385.4311" x2="910.6018" y2="410.0411" gradientTransform="matrix(1 0 0 -1 93.43 900)">
			<stop  offset="0" style="stop-color:#426D05"/>
			<stop  offset="0.99" style="stop-color:#7C9D0F"/>
		</linearGradient>
		<path class="st69" d="M1016.8,489.6c0,0-9.9,0.9-9.9,8.4s-24.9,9.3-15.7,9.3c5.3,0.1,10.5-0.6,15.7-1.8c0.3,2.5,2.4,4.3,5,4.2
			c4.6,0-1.2-6.6-1.2-6.6s-1.1-4.6,5.4-4.6s-3.4-8.4-0.3-5.7s12.9-2.7,12.9-2.7c-1.7-1.7-4.4-1.7-6.2-0.1c-3.3,2.8-0.5-8.5-3.3-6.1
			s-13.2,2.1-7.8,4L1016.8,489.6z"/>
		<path class="st70" d="M798.8,721c0,0-2.2-58-2.2-68.5c-0.2-6.3,0.3-12.6,1.4-18.8c1.8-8.6,7.2-14,14.6-20.3
			c16-6,24.8-18.2,17.5-22.8s0.7-18.1,0.7-18.1s-10.9-5.3-10.9,10.6s2.9,12.8-7.3,19.6s-18.2,6-21.9,15.1l-3.7,9
			c0,0-1.5-27.1-1.5-33.9s7.3-22.6-0.7-23.4s-12.4-3-13.9,1.5s0,28.6,0,34.7V648c0,0-4.6-0.8-13.3-13.4c-7-10-14-26.8-19.5-43.8
			c-20.4-43-21.2-37.7-21.2-37.7c-2.4,2.8,3.9,4.8,1.5,7.5c-3.4,1.7,10.7,38.2,13.9,45.2c2.2,7.5,13.9,36.2,20.4,44.5
			s17.5,19.6,17.5,19.6c4,21.8,3.1,40-0.7,55.8C769.6,725.6,801,728.6,798.8,721z"/>
		<path class="st71" d="M794,728c0,0.3,3.8,0.7,2.4-6.6c-1-5.4-7.3-19.6-7.3-26.1c0-16.9,4.7-33.4,3.5-43.1
			c-0.4-3.1,0.7-16.2,6.9-26.9c2.5-4.3,12.3-7.9,18.7-12.8c2.2-1.7,7.3-8.5,7.1-16.4c-0.1-6.3-5.5-14.2-5.2-14.6
			c0.5-1-1.2,21.9-6.6,24.5s-12.9,2.7-14.5,3.8c-7.2,4.8-18.5,15.3-19.4,10.1c-1.8-10,0.5-27.1-1.2-32.9
			c7.1,18.1,13.8-15.5,10.2-15.5s-23.3-16.1-23.3-5.6s6.8,81.8,6.1,86.3s-22.9-24.5-28-32S728.8,590,728.8,590
			c2.9,1.8,5.8,3.5,8.8,5.3c0,0-0.7-24.9-9.5-28.7s-10.2,2.3-10.2,2.3s14.6,51.3,24.8,64c8.2,15.9,24.9,35.7,29.2,38.5
			c2.2,6,3.6,31.9,1.4,37.2s-3.2,15.3-3.2,15.3c3,2,14.9,7.2,18.4,3.4c1.6-1.7-4-12.9-2.2-12.9S792.2,728.1,794,728z"/>
		<path class="st72" d="M808.2,586.5c0,0,18.3-2.3,25.1-0.8s16,13.4,16.8,6.3s1.5-13.4,5.3-7.1s13,11.8,18.3,7.1s4.6-10.2,4.6-10.2
			s23.6,7.1,24.4-1.6s0-11,0-11s35.8-7.9,28.2-22s-12.2-15-12.2-15s20.4-17.4,5.9-33.9c-0.1-17.2-6.3-16.8-12.8-16.4
			c0,0,9.9-7.1-9.1-15.7s-36.6,6.3-36.6,6.3s22.8-16.5,21.3-22.8c11.9-3.2,17.9-10.7,0.8-22.8l-12.2-11c0,0,4.6-26-7.6-31.5
			l-12.2-5.5c0,0,14.5-19.7-9.1-20.5c-4.9-17.6-18-5.9-23.6-0.8c0,0,6.1-33-12.2-31.5s-19.8,11-22.1,7.1s-8.4-24.4-17.5-16.5
			c-21.7-2.5-10.9,6.4-9.1,7.9c-5.3-7.4-31.3,8.1-22.1,30.7l3.8,14.9c0-4.1-28.2-12.8-32.7-2.3c-4.6,5.5-3.8,7.9-3.8,7.9
			s-18.8-2.1-21.1,10.5c-12.3,8.5-7.6,9.1-5.6,9.9c0,0-15.2-3.1-19.8,17.3c-17.4,13.8,0.5,21.1,2.3,22c0,0-21.3,15.7-17.5,22
			c2.4,3.8,5.8,6.8,9.9,8.6c0,0-20.6,27.5-10.7,36.2s16.8,10.3,16.8,10.3s-15.2,26.7-5.3,34.6c6.1,4.7,13.8,6.7,21.3,5.5
			c0,0-7.6,16.5-1.5,26.8s27.4,14.2,27.4,14.2s-22.1,7.1-12.2,14.9s22.8-7.1,22.8-3.1s-3.8,18,7.6,10.2s9.1-14.9,9.1-14.9
			s-9.1-2.4-13-8.7s-1.5-10.2-1.5-10.2s4.6,11.8,6.8,4.7s3-10.2,3-10.2s-0.8,7.1,9.1,8.7s15.2-7.9,15.2-7.9s6.1-0.8,7.6,6.3
			s15.2,3.9,16.8-1.6s7.6-7.1,7.6-7.1s-6.9,5.5,0.8,8.7s16-4.7,16-4.7s-9.1,13.4-5.3,18.1s11.4,1.6,11.4,1.6s4.6,3.2,9.1-1.6
			S808.2,586.5,808.2,586.5z"/>
		<path class="st73" d="M862.7,428.3c2.7-5.6,10.8-32.1-9.5-31.6c-1-16-14.6-9.1-19.7-8.2c7.6,0,13.3-18.9-0.5-15.7
			c2.3-17.2-19.2-7-19.2-7s17.3-28.3-3.2-31.5s-19.5,7.6-19.5,7.6s2.4-17.1-18.8-15.5s-11.4,29.3-11.4,29.3s-20.2-13.4-17.1,6.2
			s4.8,13,4.3,13c-7.2-0.5-6.5,8-9.8,19.6c0,0,7.6-8.7-12.2-15s-22.8,15.7-22.8,15.7s-6.7-11.9-17.3,0.6
			c-21.8-2.5-23.3,14.6-20.3,18.7c0,0,10.9-24.3,25.3-3.6c4.2-16.1,26.1,5.5,26.1,5.5s3.4-24.1,20.2-13.9s11.1,13.9,11.1,13.9
			s3.4-36.9,25.5-32.2c18.3-31.2,49.8,2.1,34.1,11.1c4.8-5.2-24.2-20-27.2,9.8c-26-12.3-9.5,17.5-9.5,17.5s-15.2-11-18.3,5.5
			c-17.9,8-7.4,19.5-3.1,22c0,0,2.7-25.3,23.3-14.3c10.7-11.6,24.7,9.6,24.7,9.6s-7.6-28.3,11.4-26.8c14.8,4.5,18.8,11.4,20.6,10.2
			c0,0-3.8-31.5,13.5-18.2C858.3,404.8,866.4,419.7,862.7,428.3z"/>
		<path class="st74" d="M789.9,518.1c7.1,0,14.7-31.9-18.6-25c-6.1-27.3-35.5-19.9-39.3-16.7c0,0,19.4-9.4-2.7-18.1
			c-9.4-44.3-34-10.9-27.7-2.4c0,0-5.5-17.6-23.8-10.5s-2.1,17.6-2.1,17.6s-12.1-9.9-16.7,0.3c-3,7.1-5.6,14.3-7.7,21.7
			c0,0,6.1-12.6,17.5-8.6s11.4,4.7,11.4,4.7s8.7-13.6,23.2-5.7s15.6,27.8,15.6,27.8s19.7-14.9,27.3-9.4c4.5,3.2,8.2,7.5,10.8,12.5
			c0,0,14.4-9.5,20.5-4s-1.4,25.3-1.4,25.3s19-7.9,29.7,0.8s13.7,14.9,13.7,14.9S829.5,492.9,789.9,518.1z"/>
		<path class="st73" d="M908.7,494.5c0,0,6.1-26.7-17.5-29.1s-28.9,11.8-28.9,11.8s2.3-21.2-19-18.1s-20.6,27.5-20.6,27.5
			s-0.8-13.4-12.2-7.1s-9.1,27.5-9.1,27.5s10.7-15.7,22.8-12.6s15.2,8.7,15.2,8.7s4.6-21.3,27.4-19.7s22.8,19.7,22.8,19.7
			S895.7,471.7,908.7,494.5z"/>
		<path class="st73" d="M751.8,546.4c0,0,0.8-24.4-16-26.7s-19.8,3.1-19.8,3.1s8.4-16.5-8.4-23.6s-23.6,5.5-23.6,5.5s3-14.2-9.9-9.4
			s-14.5,27.5-14.5,27.5s11.4-14.1,24.3-7.8c12.9,6.3,10.4,20.2,10.4,20.2s26.9-16.3,34.5-4.5s3.9,28.3,3.9,28.3
			S737.3,530.7,751.8,546.4z"/>
		<path class="st70" d="M1579.8,511.1c0,0-4.1-109.8-4.1-129.8c0-8.9,0-22.4,2.7-35.6c3.4-16.3,13.6-26.5,27.7-38.6
			c30.3-11.4,47-34.5,33.2-43.1s1.4-34.3,1.4-34.3s-20.7-10-20.7,20s5.6,24.3-13.8,37.1s-34.6,11.5-41.5,28.6l-6.9,17.1
			c0,0-2.8-51.4-2.8-64.2s13.8-42.9-1.4-44.3s-23.5-5.7-26.3,2.9s0,54.3,0,65.7v80c0,0-8.7-1.5-25.3-25.5
			c-13.2-19-26.6-50.8-37-83.1c-38.7-81.4-40.1-71.4-40.1-71.4c-4.6,5.2,7.4,9,2.8,14.3c-6.4,3.3,20.3,72.3,26.3,85.7
			c4.2,14.3,26.3,68.6,38.7,84.3s33.2,37.1,33.2,37.1c7.5,41.4,5.9,75.7-1.4,105.7C1524.5,519.7,1584,525.4,1579.8,511.1z"/>
		<path class="st71" d="M1570.7,524.3c0,0.5,7.2,1.3,4.6-12.5c-1.9-10.3-13.7-37.1-13.7-49.5c0-32.1,8.8-63.3,6.6-81.7
			c-0.7-5.9,1.3-30.6,13.1-50.9c4.8-8.1,23.4-14.9,35.4-24.3c4.1-3.2,13.8-16.1,13.5-31.1c-0.3-11.9-10.3-26.8-9.9-27.7
			c1-1.9-2.3,41.4-12.5,46.4s-24.4,5.1-27.6,7.3c-13.5,9.2-35,29-36.8,19.2c-3.3-18.9,1-51.4-2.3-62.4
			c13.5,34.3,26.3-29.4,19.3-29.4s-44.2-30.6-44.2-10.6s12.9,155,11.6,163.5s-43.4-46.4-53.1-60.7s-27.7-57.1-27.7-57.1
			c5.5,3.3,11.1,6.7,16.6,10c8.3,5-1.4-47.1-18-54.3s-19.4,4.3-19.4,4.3s27.7,97.1,47,121.4c15.6,30.2,47.2,67.6,55.2,73
			c4.1,11.4,6.8,60.5,2.7,70.5s-6,28.9-6,28.9c5.7,3.8,28.3,13.7,34.9,6.4c3-3.3-7.5-24.5-4.2-24.4
			C1559.1,498.4,1567.4,524.5,1570.7,524.3z"/>
		<path class="st72" d="M1597.6,256.2c0,0,34.6-4.4,47.6-1.5c13,3,30.3,25.3,31.7,11.9s2.9-25.4,10.1-13.4s24.5,22.3,34.6,13.4
			s8.7-19.4,8.7-19.4s44.8,13.5,46.2-3s0-20.9,0-20.9s67.8-14.9,53.4-41.7s-23.1-28.3-23.1-28.3s38.6-33,11.2-64.3
			c-0.2-32.7-11.9-31.7-24.2-31.1c0,0,18.8-13.4-17.3-29.8s-69.3,11.9-69.3,11.9s43.3-31.3,40.4-43.2c22.6-6.1,33.9-20.2,1.4-43.3
			L1726-67.2c0,0,8.7-49.2-14.4-59.6l-23.1-10.4c0,0,27.4-37.3-17.3-38.8c-9.3-33.4-34-11.1-44.8-1.5c0,0,11.5-62.6-23.1-59.6
			s-37.5,20.9-41.8,13.4s-15.9-46.2-33.2-31.3c-41.1-4.8-20.7,12.1-17.3,14.9c-10-14.1-59.3,15.3-41.8,58.1l7.2,28.3
			c0-7.7-53.4-24.3-62-4.4c-8.7,10.4-7.2,14.9-7.2,14.9s-35.6-4-40,19.9c-23.3,16-14.4,17.2-10.6,18.8c0,0-28.9-6-37.5,32.8
			c-33,26.2,1,40,4.3,41.7c0,0-40.4,29.8-33.2,41.7c4.5,7.2,11,13,18.8,16.4c0,0-39,52.2-20.2,68.6s31.8,19.4,31.8,19.4
			s-28.9,50.7-10.1,65.6s40.4,10.4,40.4,10.4s-14.4,31.3-2.9,50.7s52,26.8,52,26.8s-41.8,13.4-23.1,28.3s43.3-13.4,43.3-5.9
			s-7.2,34.2,14.4,19.4s17.3-28.3,17.3-28.3s-17.3-4.5-24.5-16.4s-2.9-19.4-2.9-19.4s8.7,22.4,13,9s5.8-19.4,5.8-19.4
			s-1.4,13.4,17.3,16.4s28.9-14.9,28.9-14.9s11.6-1.5,14.4,11.9c2.9,13.4,28.8,7.4,31.8-3s14.4-13.4,14.4-13.4s-13,10.4,1.4,16.4
			s30.3-9,30.3-9s-17.3,25.4-10.1,34.3s21.6,3,21.6,3s8.6,6,17.3-3S1597.6,256.2,1597.6,256.2z"/>
		<path class="st74" d="M1563,126.6c13.4,0,27.9-60.4-35.2-47.4c-11.6-51.7-67.3-37.7-74.5-31.6c0,0,36.7-17.9-5.1-34.3
			c-17.8-84-64.5-20.7-52.6-4.5c0,0-10.5-33.3-45.1-19.9s-4,33.3-4,33.3s-22.9-18.8-31.6,0.6c-5.8,13.4-10.6,27.1-14.6,41.2
			c0,0,11.5-23.8,33.2-16.4s21.6,8.9,21.6,8.9s16.4-25.7,43.9-10.8s29.7,52.6,29.7,52.6s37.4-28.2,51.8-17.8
			c8.6,6.2,15.6,14.3,20.4,23.7c0,0,27.3-18.1,38.8-7.6s-2.7,47.9-2.7,47.9s36.1-14.9,56.3,1.5s26,28.3,26,28.3
			S1638,78.8,1563,126.6z"/>
		<path class="st73" d="M1788.1,81.8c0,0,11.5-50.7-33.2-55.1S1700.1,49,1700.1,49s4.3-40.3-36.1-34.3s-39,52.2-39,52.2
			s-1.4-25.3-23.1-13.5s-17.3,52.2-17.3,52.2s20.2-29.8,43.3-23.9s28.8,16.4,28.8,16.4s8.6-40.3,52-37.3s43.3,37.3,43.3,37.3
			S1763.5,38.6,1788.1,81.8z"/>
		<path class="st73" d="M1490.8,180.2c0,0,1.4-46.2-30.3-50.7s-37.5,5.9-37.5,5.9s15.9-31.3-15.9-44.7s-44.7,10.4-44.7,10.4
			s5.8-26.8-18.8-17.9s-27.4,52.2-27.4,52.2s21.7-26.8,46.2-14.9s19.7,38.3,19.7,38.3s51-30.9,65.5-8.5s7.2,53.7,7.2,53.7
			S1463.4,150.4,1490.8,180.2z"/>
		
			<linearGradient id="SVGID_69_" gradientUnits="userSpaceOnUse" x1="-1717.2303" y1="235.8984" x2="-1760.4104" y2="-27.5216" gradientTransform="matrix(-1 0 0 -1 -1007.42 900)">
			<stop  offset="0" style="stop-color:#7AB711"/>
			<stop  offset="1" style="stop-color:#5B6F00"/>
		</linearGradient>
		<path class="st75" d="M2298,422.1c0,0-692.7-34.1-1720.2,142.2c-406.7,69.8-690.1,130-946.5,209.9c-52.1,5.8-108.7,2.1-149.7,12
			c-255.2,61.6-343.8,120.3-356.7,140H2298V422.1z"/>
		
			<linearGradient id="SVGID_70_" gradientUnits="userSpaceOnUse" x1="-1692.666" y1="318.1983" x2="-1727.606" y2="29.3083" gradientTransform="matrix(-1 0 0 -1 -1007.42 900)">
			<stop  offset="1.000000e-02" style="stop-color:#8ED10D"/>
			<stop  offset="0.34" style="stop-color:#9ACC00"/>
			<stop  offset="1" style="stop-color:#798800"/>
		</linearGradient>
		<path class="st76" d="M2298,481.4c0,0-553.9-23.6-829.6,1.2c174.7,4.5,568.8,93,757,151.2c-87.2-5.3-725.4-106-967.9-106
			c-310.3,34.9-443.1,8.7-804.8,73.4c48.9,0,943.9-114.6,1226.3,35c-257.4-53-1195.2-5.4-1378.5,11.8
			c-42.5,4-469.7,116.3-488.3,117.7c-55.2,7.9,182.4-66.1,274.5-85.6c-113.6,0-247,52.7-318.1,61c-71.9,8.5-156.7,38-202.3,60.9
			c-27.9,12.5-21.3,26.7,61.8,36.3c12.5,1.4,436.9-54.8,605.5-29.3c-121.1,0-248.7,13.2-371,20.4c-159.9,9.5-220.6,16.6-236,17.3
			c-115.3,5.3-257-4.6-197.3-41.8C-669,825.8-844.7,862.4-898,926.2h3196V481.4z"/>
		
			<linearGradient id="SVGID_71_" gradientUnits="userSpaceOnUse" x1="-1922.3381" y1="260.9185" x2="-1951.7783" y2="17.5786" gradientTransform="matrix(-1 0 0 -1 -1007.42 900)">
			<stop  offset="0" style="stop-color:#7AB711"/>
			<stop  offset="1" style="stop-color:#5B6F00"/>
		</linearGradient>
		<path class="st77" d="M-399.4,785.8c0,0-19.8,5.2-26.6,19.3s102.3,17.7,192.8,4.1c87.6-13.2,486.5-62.8,831.2-84.7
			c374.5-23.7,741.2,40.3,959.4,97.1c83.4,21.7,181.5,49.8,340.9,104.5H2298V817.4c-49.9-10.6-3.7-62.8-217.9-72.9
			c84.2-20.4,21.8-41.8-164.3-68.1c-73.9,29.4-137.8,45.3-181,42c-233,39.9-517.9,16.5-538.7-4.2c-28.3-6,313.5-88.8,462.2-69.5
			c19.1-15-352.2-13.5-630-13.5c99.7,20.5,107.9,21.4,166.4,48.8c-72.2-30.1-152.7,35.8-385.8,2.9
			c-190.1-26.8-359.4,22.6-567.5,48.2s-433.8,64.1-483.2,69.4C-321.5,808.9-427,816.5-399.4,785.8z"/>
		
			<linearGradient id="SVGID_72_" gradientUnits="userSpaceOnUse" x1="1727.7213" y1="151.4" x2="1923.3414" y2="28.44" gradientTransform="matrix(1 0 0 -1 93.43 900)">
			<stop  offset="1.000000e-02" style="stop-color:#536D00"/>
			<stop  offset="1" style="stop-color:#5D7900"/>
		</linearGradient>
		<path class="st78" d="M1874.1,733l424,30.2v156c0,0-726.9-122.9-751.3-125.2c-181.5-17.3-154.1-36-154.8-37
			C1392,757,1367,728.6,1874.1,733z"/>
		
			<linearGradient id="SVGID_73_" gradientUnits="userSpaceOnUse" x1="261.2302" y1="176.44" x2="253.1102" y2="-61.85" gradientTransform="matrix(1 0 0 -1 93.43 900)">
			<stop  offset="0" style="stop-color:#6EAA0F"/>
			<stop  offset="0.62" style="stop-color:#5B6F00"/>
		</linearGradient>
		<path class="st79" d="M117.3,868.5c0,0,145.5-32.3,394.8-81.1C802,730.6,1001.7,827,1001.7,827s68.8,31.8,105.6,99.2H812.8
			c0,0-86.6-73.4-241.4-105.4c111.8,65.5,110.5,105.4,110.5,105.4H-411.8C-411.8,926.2-2.7,903.5,117.3,868.5z"/>
		<rect x="-486.6" y="-323.2" class="st80" width="2174.1" height="1222.9"/>
		
			<linearGradient id="SVGID_74_" gradientUnits="userSpaceOnUse" x1="-950.3522" y1="1453.4808" x2="-1206.7122" y2="1000.1608" gradientTransform="matrix(-0.96 -0.61 -0.56 0.88 -605.28 -944.49)">
			<stop  offset="0" style="stop-color:#A3DB40"/>
			<stop  offset="0.21" style="stop-color:#91CE3C"/>
			<stop  offset="0.73" style="stop-color:#67B034"/>
			<stop  offset="1" style="stop-color:#57A431"/>
		</linearGradient>
		<path class="st81" d="M-533.8,764.2c0.1,2.4,0.2,4.7,0.3,7.1c92.3,59.4,149.3,83.5,168.4,95.9c-21.5-0.1-47-15.2-165.6-50.3
			c0.1,1.9,0.3,3.8,0.4,5.7c83,38.3,165.5,73,181.3,79.1c-16.2,2.5-67.6-9-178.5-44.2c0.1,0.8,0.2,1.7,0.2,2.5
			c43.6,19.9,81,36.6,113.5,50.3c32.4-1.9,64.8-3.3,97.3-3.3c35.3,0.1,70.6,2,105.9,2.7s70.4,1.1,105.6,1.3
			c11.3,0.1,22.6,0.1,33.8,0.2c40.9-18.4,87.6-37.3,142-45.3c-48-11-102.7,11-178.1,18.9c41.8-34.2,103.2-36.5,172-71.1
			c-97.4-0.7-142,18.4-200.8,37C-73.7,794.8,2.8,775.4,36.9,752c-14.5,0-124.2,26.2-196.6,64.5c0.1-10.5,40.8-69.4,109.7-142.8
			c-13.3-0.9-113.3,71.5-148,129.1c-10.1-35.8,24.9-119.1,31.3-175.7c-42.7,35.2-76.9,146.7-92.1,170.6
			c-13.2-23.9-41.1-101.2-66.2-193.5c-1,120.1,25.6,169.5,42.6,203.1c-7.1-1.9-78.5-67.3-175.7-144.1
			c79.3,98.5,134.6,143.9,149.4,156.7c-11.6,2.5-134-77.3-221.9-126c79.3,60.5,156.8,130.6,195.7,146.1
			C-348.9,841.4-430.8,809.8-533.8,764.2z"/>
		<path class="st82" d="M143.3,812.2c0,0,21.5-24.8,59.3-28.9s54.7-2.9,54.7-2.9s-69.9,23-89.1,29.8S143.3,812.2,143.3,812.2z"/>
		<path class="st82" d="M121.5,825.9c0.7,0.4,4.7,2.4,4.7,2.4s13.1-3,30.7,6.5s40.5,32.1,40.5,32.1s-37.3-11.8-47.7-18
			c-8.7-5.4-17.1-11.3-25-17.8c-1.3-1.4-6.8-4.3-6.8-4.3S118,823.9,121.5,825.9z"/>
		<path class="st82" d="M101,835.5l7.2,5.8c0,0,5.9-1.5,15.8,8.2s26.3,53.3,26.3,53.3s-21-26.9-26.8-35s-16.1-19-16.7-21.1
			c-0.3-1.5-0.3-3.1,0-4.7c0,0-7.1-6.2-8-6.3S99,833.5,101,835.5z"/>
		<path class="st82" d="M80.1,845.1c0,0,8.4,1.7,10.3,3.6c0,0,2.3-2.2,9.2,4.5c10.9,10.6,30.5,66.5,30.5,66.5s-29.8-44.6-32.7-49.4
			s-9-16-7.1-20c0,0-8.9-4-13.4-3.8S80.1,845.1,80.1,845.1z"/>
		<path class="st82" d="M125.9,821.2c0,0,6.4-7,6.2-7.7s7.3-18.1,23.6-36s38.3-34.2,38.3-34.2s-51.5,61-54.6,64.2s-4.8,4.9-5.4,5.7
			s-3.4,5.6-4.7,6.8S125.4,822.7,125.9,821.2z"/>
		<path class="st82" d="M103.4,831.8c0,0,2.9-8.5,4.3-10.3s13.8-28,25.9-43.7s35.4-38.2,34.8-37.6s-36,49.7-40.7,56.8
			s-15.5,22-17.3,24.2c-1.9,2.5-3.5,5.3-4.5,8.3C105.5,831.1,103.4,833.9,103.4,831.8z"/>
		<path class="st82" d="M109,922.3c0,0-25.8-21.3-32.9-33s-8.4-20.1-10.3-22.2s-13.9-7.1-13.9-7.1s-0.2-2.3,1.4-1.9s13,6.3,14.1,6.8
			s11.3,4.8,15.8,9.7S106.2,910.1,109,922.3z"/>
		<path class="st82" d="M12.1,880.9c0,0,9.5,0.8,12.4,2.1c0,0,21.2-3.9,36.3,9.3S90.5,932,90.5,932s-38.9-30.7-47.9-36.7
			s-12.1-5-15-6.9s-0.3-0.3-2.9-1.9s-11.4-4-15.5-3.7S7.5,880.6,12.1,880.9z"/>
		<path class="st82" d="M-47.4,922.8c26.6-18.5,47.5-32.8,54.7-37.5c26.6-17.2,136.3-72,136.3-72l-0.3-1.1
			c0,0-111.1,53.6-137.7,70.8c-7.6,4.9-29.9,20.1-57.9,39.1L-47.4,922.8z"/>
		<path class="st82" d="M11.6,902.9c2.6,3.2,10.6,9,19,16.1c4.7,4,18.4,12.7,29.5,19.7l9.3,1.4c-6.9-8.3-14.5-15.9-22.8-22.9
			c-10-7.9-21.6-13.7-34-16.8c-1.4-1.2-23.4-4.9-23.4-4.9l-3.1,2.3C-13.8,897.7,9,899.7,11.6,902.9z"/>
		<path class="st82" d="M84.9,841.4c0,0,3.2-10.3,5.3-13.1s15.1-38.8,22.7-51c6.7-10.5,14.2-20.4,22.4-29.7c0,0-14.7,25.1-16.9,29.4
			S94,824.7,92.4,827.2s-1.5,2-2.2,3.7s-3.4,8.8-3.4,9.6S85.5,841.9,84.9,841.4z"/>
		<path class="st82" d="M59.4,854.1c0,0,2.7-11,4.9-12.8c2.2-1.8,18.2-48.7,25.2-59.7s12.6-19.6,12.6-19.6s-11.9,31.3-14,36.9
			S69.4,839,67,841.1s-5,9.5-6.1,12.6C60.9,853.8,60.3,855.7,59.4,854.1z"/>
		<path class="st82" d="M22.4,872.8c2.9-8.7,6.9-17,11.8-24.8c3.2-16.1,21.3-39.3,24.4-43.8c6-8.5,21.1-28.6,21.1-28.6
			s-30.2,54-32.9,58.2s-5.2,13-8.4,14.8S29.8,861,28,864.8s-2.7,8.6-3.6,9.4S20.7,874,22.4,872.8z"/>
		<path class="st82" d="M-3,889c0,0,4.8-19.1,6.8-21.7s22.6-46.4,31.7-58S52.8,787,52.8,787s-16.2,29.7-18.4,33.2
			s-24.1,44.1-26.6,47.4s-2.9,2.9-3.8,5s-4.3,14.1-4.6,15S-2.3,890.3-3,889z"/>
		<path class="st82" d="M-28.9,905.9c0,0,5.2-16.6,7.2-20.6s23.1-57,28.6-67s12.9-21.1,12.9-21.1S6.1,832.8,4.4,836.4
			s-21,47.5-23.4,49.8s-7.5,17.9-7.7,19.5S-31.2,909-28.9,905.9z"/>
		<path class="st82" d="M-23.7,730.6c0,0,9.5-27.3,36.8-47.6s40.3-27.3,40.3-27.3s-46.2,48.4-58.9,62S-23.7,730.6-23.7,730.6z"/>
		<path class="st82" d="M-36.4,750.3c0.6,0,4.2-0.5,4.2-0.5s9-8.2,24.8-9.6s39,3.8,39,3.8S0.4,752.9-9,753.4
			c-7.9,0.3-15.7-0.1-23.5-1c-1.4-0.3-6.2,0.1-6.2,0.1S-39.5,750.5-36.4,750.3z"/>
		<path class="st82" d="M-49.2,766.5l6.9,0.8c0,0,4-3.8,14-1.6s34,25.3,34,25.3s-23-9.2-29.5-12.2s-17.2-5.9-18.2-7.1
			c-0.7-1-1.1-2.1-1.2-3.3c0,0-7-1.1-7.7-0.7S-51.2,766-49.2,766.5z"/>
		<path class="st83" d="M291.9,674L139,912.1l-12.1-0.3c0,0,154.2-230.2,158.1-240.7S291.9,674,291.9,674z"/>
		<path class="st83" d="M193.2,807.7c0,0,22-56.2,2.6-81c-1-1.3-2.1-2.4-3.3-3.5c-25-22.4,1.2,1.1,1.2,1.1S175.6,767.5,193.2,807.7z
			"/>
		<path class="st83" d="M193.9,819.8c0,0,74.7-1.7,89.2-18.7C283.1,801.1,223.4,783.5,193.9,819.8z"/>
		<path class="st84" d="M272.6,651.5l-23.7-49.2c0,0-40.6,16.2-41.8,32s51.5,29,51.5,29L272.6,651.5z"/>
		<path class="st84" d="M285.1,666.4c0,0,48.6-3.5,49.4-20.1s-35.3-53.9-45.2-40.4s-16.6,45.5-16.6,45.5L285.1,666.4z"/>
		<path class="st84" d="M285.1,666.4c0,0,61.3,3.3,50.2,29.3s-36.3,36.1-59.3-4.2"/>
		<path class="st84" d="M252.3,670.4c0,0-35.5-16.2-54.4-11.9s10.4,60,17.2,51.9s42.3-17.1,42.3-17.1L252.3,670.4z"/>
		<path class="st84" d="M265,672.3c0,0-29,40-21.2,52s50.2,24.4,48.7,5.1s-8.1-48.9-8.1-48.9L265,672.3z"/>
		<ellipse class="st85" cx="265" cy="672.3" rx="20.8" ry="22.5"/>
		<path class="st83" d="M39.2,601.8l16.3,345.1l14.9,9c0,0-23.5-338.6-20.7-351.5S39.2,601.8,39.2,601.8z"/>
		<path class="st83" d="M64,805.3c0,0,13.4-70.6,54.6-79.3c2.1-0.5,4.3-0.7,6.5-0.8c46.4-2.2-2.2,0.1-2.2,0.1S114.2,780.5,64,805.3z
			"/>
		<path class="st83" d="M54.5,816.5c0,0-89.8-59-95.2-86.5C-40.7,730,44.5,759,54.5,816.5z"/>
		<path class="st86" d="M78.8,595l64-28.8c0,0,37.9,46.7,28,62.7s-83.4-11.9-83.4-11.9L78.8,595z"/>
		<path class="st86" d="M53,599.8c0,0-56.6-40.8-45.8-57.2s81.4-24.3,83.8-3.8S78.8,595,78.8,595L53,599.8z"/>
		<path class="st86" d="M53,599.8c0,0-77-44-82-10.7s18.4,62.4,75.2,41.6"/>
		<path class="st86" d="M90.1,628.8c0,0,54.8,11.9,74.7,30.4s-55.5,49.3-57.9,36.4s-39.3-48.9-39.3-48.9L90.1,628.8z"/>
		<path class="st86" d="M73.2,620.9c0,0,6.7,60.4-11.3,66S-16.7,671.5-1,654.3s44.8-40.5,44.8-40.5L73.2,620.9z"/>
		
			<ellipse transform="matrix(0.2952 -0.9554 0.9554 0.2952 -541.6515 507.5334)" class="st85" cx="73.2" cy="620.9" rx="26.4" ry="30.3"/>
		
			<linearGradient id="SVGID_75_" gradientUnits="userSpaceOnUse" x1="-273.6646" y1="1385.1521" x2="-225.5846" y2="1296.7621" gradientTransform="matrix(0.85 0.53 0.53 -0.85 -580.94 1786.8101)">
			<stop  offset="0" style="stop-color:#76B50A"/>
			<stop  offset="0.75" style="stop-color:#1A7A0A"/>
		</linearGradient>
		<path class="st87" d="M-169.3,620.9c0,0-11.6-31.2-3.7-47.4c7.7-15.5,30.4-29.6,54.6-48.2c25.7-25.5,73.1-52.1,128.1-62.2
			C-80.2,547.1-157.4,607.6-169.3,620.9z"/>
		
			<linearGradient id="SVGID_76_" gradientUnits="userSpaceOnUse" x1="-1052.3584" y1="1507.0358" x2="-992.6885" y2="1397.3457" gradientTransform="matrix(-0.65 -0.76 0.76 -0.65 -1819.25 706.76)">
			<stop  offset="0" style="stop-color:#76B50A"/>
			<stop  offset="0.23" style="stop-color:#72B30A"/>
			<stop  offset="0.45" style="stop-color:#67AB0A"/>
			<stop  offset="0.66" style="stop-color:#539F0A"/>
			<stop  offset="0.88" style="stop-color:#388D0A"/>
			<stop  offset="1" style="stop-color:#25810A"/>
		</linearGradient>
		<path class="st88" d="M-169.3,620.9c0,0,39.3,2.9,59.4-5.2S-1.4,542.2,9.7,463.1C-88.5,541.6-158.8,607.9-169.3,620.9z"/>
		
			<linearGradient id="SVGID_77_" gradientUnits="userSpaceOnUse" x1="-379.8463" y1="1133.3251" x2="-319.9463" y2="1023.2151" gradientTransform="matrix(0.99 0.12 0.12 -0.99 41.25 1724.6)">
			<stop  offset="0" style="stop-color:#76B50A"/>
			<stop  offset="0.21" style="stop-color:#6CAB0A"/>
			<stop  offset="0.56" style="stop-color:#50920A"/>
			<stop  offset="1" style="stop-color:#25690A"/>
		</linearGradient>
		<path class="st89" d="M9.7,463.1c0,0-164.6,140.7-179,157.8s-76.2,64-163.8,204c-6-0.9-6.8-4-6.8-4s57.8-98.6,168.1-203.4
			C-152.7,599.4-22.6,484.6,9.7,463.1z"/>
		<path class="st90" d="M-223.9,973.3c70.7-42.8,183.5-102.6,326.2-149c-191.8,29-319,96.1-376,147.5
			C-257.1,972.2-240.5,972.7-223.9,973.3z"/>
		<path class="st90" d="M-226.9,973.2c91.3-65.9,222.2-171.9,294.7-243c-142.6,55-293.6,168-366.6,240.9
			C-274.8,971.5-250.9,972.4-226.9,973.2z"/>
		<path class="st90" d="M-181.5,974.5c4.9,0.1,9.9,0.2,14.8,0.3c112-35.3,257-87.3,312.8-105.2C-40.8,887.9-170.7,937.8-242,972.7
			C-221.8,973.4-201.6,974.1-181.5,974.5z"/>
		<path class="st83" d="M427.5,708.1l-30.2,206l-7.9,3.9c0,0,33.3-201.3,32.8-209.4S427.5,708.1,427.5,708.1z"/>
		<path class="st83" d="M402.2,828.1c0,0-2-43.9-21.8-53.4c-1-0.5-2.1-0.9-3.1-1.2c-22.7-6.1,1.1,0.3,1.1,0.3S379.1,808,402.2,828.1
			z"/>
		<path class="st83" d="M406.1,835.8c0,0,48-26.3,52.5-42.2C458.6,793.6,414.7,802.2,406.1,835.8z"/>
		<path class="st91" d="M408.4,700l-29.7-24c0,0-21.7,24.2-17.8,34.8s41.8,1.4,41.8,1.4L408.4,700z"/>
		<path class="st91" d="M420.8,705.5c0,0,30.5-18.7,26.2-29.7s-38.5-23.1-41.1-11s2.5,35.2,2.5,35.2L420.8,705.5z"/>
		<path class="st91" d="M420.8,705.5c0,0,40.8-18.5,41,2s-13,35.7-39.7,17.3"/>
		<path class="st91" d="M400.7,719.1c0,0-27.7,1.5-38.8,10.6s24.2,35.4,26.2,27.9s22.5-25.4,22.5-25.4L400.7,719.1z"/>
		<path class="st91" d="M409.5,716.1c0,0-7.2,35.7,1.3,40.9s39.7-1.1,33.1-13.1s-19.5-29-19.5-29L409.5,716.1z"/>
		<ellipse class="st85" cx="409.5" cy="716.1" rx="15" ry="16.2"/>
		<rect x="-486.6" y="-323.2" class="st80" width="2174.1" height="1222.9"/>
	</g>
</g>
</svg>
