<?xml version="1.0" encoding="utf-8"?>
<!-- Generator: Adobe Illustrator 25.2.3, SVG Export Plug-In . SVG Version: 6.00 Build 0)  -->
<svg version="1.1" id="Layer_1" xmlns="http://www.w3.org/2000/svg" xmlns:xlink="http://www.w3.org/1999/xlink" x="0px" y="0px"
	 viewBox="0 0 1600 900" style="enable-background:new 0 0 1600 900;" xml:space="preserve">
<style type="text/css">
	.st0{clip-path:url(#SVGID_2_);}
	.st1{fill:#422F29;}
	.st2{fill:#614F4B;}
	.st3{fill:#CD4645;}
	.st4{fill:url(#SVGID_3_);}
	.st5{fill:url(#SVGID_4_);}
	.st6{fill:url(#SVGID_5_);}
	.st7{fill:url(#SVGID_6_);}
	.st8{fill:url(#SVGID_7_);}
	.st9{fill:url(#SVGID_8_);stroke:url(#SVGID_9_);stroke-width:0.21;stroke-miterlimit:10;}
	.st10{fill:url(#SVGID_10_);stroke:url(#SVGID_11_);stroke-width:0.21;stroke-miterlimit:10;}
	.st11{fill:url(#SVGID_12_);}
	.st12{fill:url(#SVGID_13_);}
	.st13{fill:url(#SVGID_14_);}
	.st14{fill:#6B574A;}
	.st15{fill:#604E43;}
	.st16{fill:#5FDE85;}
	.st17{fill:url(#SVGID_15_);stroke:url(#SVGID_16_);stroke-width:0.25;stroke-miterlimit:10;}
	.st18{fill:url(#SVGID_17_);stroke:url(#SVGID_18_);stroke-width:0.25;stroke-miterlimit:10;}
	.st19{fill:#32965B;}
	.st20{fill:url(#SVGID_19_);stroke:url(#SVGID_20_);stroke-width:0.25;stroke-miterlimit:10;}
	.st21{fill:url(#SVGID_21_);}
	.st22{fill:#55868E;}
	.st23{fill:#62A3B2;}
	.st24{fill:#538778;}
	.st25{fill:url(#SVGID_22_);}
	.st26{fill:url(#SVGID_23_);}
	.st27{fill:#4B787F;}
	.st28{fill:url(#SVGID_24_);stroke:url(#SVGID_25_);stroke-width:0.21;stroke-miterlimit:10;}
	.st29{fill:url(#SVGID_26_);stroke:url(#SVGID_27_);stroke-width:0.21;stroke-miterlimit:10;}
	.st30{fill:#548489;}
	.st31{fill:url(#SVGID_28_);stroke:url(#SVGID_29_);stroke-width:0.21;stroke-miterlimit:10;}
	.st32{fill:url(#SVGID_30_);stroke:url(#SVGID_31_);stroke-width:0.21;stroke-miterlimit:10;}
	.st33{fill:url(#SVGID_32_);}
</style>
<g>
	<defs>
		<rect id="SVGID_1_" width="1600" height="900"/>
	</defs>
	<clipPath id="SVGID_2_">
		<use xlink:href="#SVGID_1_"  style="overflow:visible;"/>
	</clipPath>
	<g class="st0">
		<path class="st1" d="M708.1,529.7L708.1,529.7c0-0.1,0-0.2,0-0.2v-0.1c0,0,0,0,0-0.1c0-0.1,0-0.1,0-0.2c0,0,0-0.1,0-0.1l0,0v0V529
			v-0.1c0,0,0-0.1,0-0.1v-0.1v0l0,0l0-0.1v-0.1c0,0,0-0.1,0-0.1l0.1-0.1l0.1-0.1l0.1-0.1l0,0h0.1l0.1-0.1h0.1l0,0l0.1,0.1
			c-0.2,0.1-0.3,0.3-0.5,0.5l-0.1,0.2v0.1l0,0l0,0v0.1l0,0.1v0.1v0.1l0,0v0v0.1c0,0,0,0.1,0,0.2v0.1v0.1
			C708.2,529.6,708.2,529.6,708.1,529.7L708.1,529.7C708.2,529.7,708.2,529.7,708.1,529.7L708.1,529.7L708.1,529.7z"/>
		<path class="st2" d="M709.2,528C709.2,528,709.2,528,709.2,528C709,528,709.1,527.9,709.2,528C709.2,527.9,709.1,527.9,709.2,528
			C709.3,527.9,709.2,528,709.2,528z"/>
		<path class="st3" d="M706.9,530.7c-0.4,0.2-1,0.1-1.2-0.4c-0.2-0.4-0.1-1,0.4-1.2c0.3-0.2,0.7-0.1,1,0.1
			C707.4,529.7,707.3,530.3,706.9,530.7z"/>
		
			<linearGradient id="SVGID_3_" gradientUnits="userSpaceOnUse" x1="17355.2539" y1="1388.53" x2="17355.2539" y2="-616.8" gradientTransform="matrix(-1 0 0 -1 18159.5488 900)">
			<stop  offset="0.21" style="stop-color:#A2D9D8"/>
			<stop  offset="0.22" style="stop-color:#7FB7CC"/>
			<stop  offset="0.24" style="stop-color:#649BC2"/>
			<stop  offset="0.25" style="stop-color:#5088BB"/>
			<stop  offset="0.26" style="stop-color:#447CB6"/>
			<stop  offset="0.27" style="stop-color:#4078B5"/>
			<stop  offset="0.36" style="stop-color:#437AB6"/>
			<stop  offset="0.41" style="stop-color:#4B82B8"/>
			<stop  offset="0.45" style="stop-color:#5A8FBC"/>
			<stop  offset="0.49" style="stop-color:#6EA2C1"/>
			<stop  offset="0.52" style="stop-color:#89BBC8"/>
			<stop  offset="0.55" style="stop-color:#A9D8D0"/>
			<stop  offset="0.56" style="stop-color:#ADDCD1"/>
			<stop  offset="0.57" style="stop-color:#B5DFD5"/>
			<stop  offset="0.6" style="stop-color:#CAE8E1"/>
			<stop  offset="0.63" style="stop-color:#ECF7F4"/>
			<stop  offset="0.64" style="stop-color:#FFFFFF"/>
			<stop  offset="1" style="stop-color:#C7E5D2"/>
		</linearGradient>
		<rect x="-19.6" y="-17.2" class="st4" width="1647.8" height="784.8"/>
		
			<linearGradient id="SVGID_4_" gradientUnits="userSpaceOnUse" x1="16461.5977" y1="341.2205" x2="18429.7188" y2="107.5905" gradientTransform="matrix(-1 0 0 -1 18159.5605 900)">
			<stop  offset="0" style="stop-color:#4B9A45"/>
			<stop  offset="0.49" style="stop-color:#27B373"/>
			<stop  offset="0.64" style="stop-color:#2AB16F"/>
			<stop  offset="0.79" style="stop-color:#33AB64"/>
			<stop  offset="0.94" style="stop-color:#42A050"/>
			<stop  offset="1" style="stop-color:#4B9A45"/>
		</linearGradient>
		<path class="st5" d="M1518.8,488c-214.8-20.8-342.3-74.6-857.7,98.2c-343.8,119.4-890.3,70.4-965.6,19.3V759h1751.6
			c20.5,5.2,128.4,30.8,206.4-31.7c0.9-0.7,1.7-1.4,2.6-2.1C1682.6,703.1,1757.3,511,1518.8,488z"/>
		
			<linearGradient id="SVGID_5_" gradientUnits="userSpaceOnUse" x1="16444.6094" y1="318.9625" x2="18453.8105" y2="80.4424" gradientTransform="matrix(-1 0 0 -1 18159.5605 900)">
			<stop  offset="0" style="stop-color:#418840"/>
			<stop  offset="0.35" style="stop-color:#2DA363"/>
			<stop  offset="0.65" style="stop-color:#23A76A"/>
			<stop  offset="0.76" style="stop-color:#27A666"/>
			<stop  offset="0.87" style="stop-color:#32A25C"/>
			<stop  offset="0.98" style="stop-color:#469C4A"/>
			<stop  offset="1" style="stop-color:#4B9A45"/>
		</linearGradient>
		<path class="st6" d="M1624.4,597.1c0,0-450.7-103.6-987.7,18.7c-354.8,80.8-890.3,70.4-965.6,19.3v153.5h1751.6l61.3,0.2
			c23.6,3.2,72.6,6.7,127-15.9c18.1-7.5,92.2-38.3,97-78.4C1717.3,617.9,1651.5,606.1,1624.4,597.1z"/>
		
			<linearGradient id="SVGID_6_" gradientUnits="userSpaceOnUse" x1="17675.0898" y1="264.2" x2="17679.9004" y2="264.2" gradientTransform="matrix(-1 0 0 -1 18159.5488 900)">
			<stop  offset="0" style="stop-color:#A5573F"/>
			<stop  offset="7.000000e-02" style="stop-color:#A1715B"/>
			<stop  offset="0.13" style="stop-color:#9E8672"/>
			<stop  offset="0.63" style="stop-color:#918D7A"/>
			<stop  offset="0.98" style="stop-color:#777C65"/>
		</linearGradient>
		<rect x="479.6" y="627.6" class="st7" width="4.8" height="16.4"/>
		
			<linearGradient id="SVGID_7_" gradientUnits="userSpaceOnUse" x1="17737.6094" y1="257.56" x2="17742.4199" y2="257.56" gradientTransform="matrix(-1 0 0 -1 18159.5605 900)">
			<stop  offset="0" style="stop-color:#A5573F"/>
			<stop  offset="7.000000e-02" style="stop-color:#A1715B"/>
			<stop  offset="0.13" style="stop-color:#9E8672"/>
			<stop  offset="0.63" style="stop-color:#918D7A"/>
			<stop  offset="0.98" style="stop-color:#777C65"/>
		</linearGradient>
		<rect x="417.1" y="634.2" class="st8" width="4.8" height="16.4"/>
		
			<linearGradient id="SVGID_8_" gradientUnits="userSpaceOnUse" x1="17696.2813" y1="242.8192" x2="17809.2324" y2="384.2592" gradientTransform="matrix(-1 0 0 -1 18159.5605 900)">
			<stop  offset="0" style="stop-color:#398F97"/>
			<stop  offset="0.27" style="stop-color:#23A49E"/>
			<stop  offset="0.51" style="stop-color:#15B2A2"/>
			<stop  offset="0.59" style="stop-color:#15ADA4"/>
			<stop  offset="0.69" style="stop-color:#17A0A9"/>
			<stop  offset="0.79" style="stop-color:#1989B2"/>
			<stop  offset="0.86" style="stop-color:#1B75BA"/>
		</linearGradient>
		
			<linearGradient id="SVGID_9_" gradientUnits="userSpaceOnUse" x1="17717.373" y1="283.7944" x2="17758.5469" y2="311.9979" gradientTransform="matrix(-1 0 0 -1 18159.5605 900)">
			<stop  offset="0" style="stop-color:#2483C5"/>
			<stop  offset="1" style="stop-color:#2483C5;stop-opacity:0"/>
		</linearGradient>
		<path class="st9" d="M429.9,581.5c-4.8-26.6-16.3-21.8-20.3,3.4c-2.1,13.5-4.4,26.5-5.2,32.4c-0.4,2.6-0.2,5.3,0.7,7.8
			c6.2,17.9,29.6,10.9,29.6-1.2C434.8,610.5,434.4,606.2,429.9,581.5z"/>
		
			<linearGradient id="SVGID_10_" gradientUnits="userSpaceOnUse" x1="17625.832" y1="246.3733" x2="17759.2715" y2="413.4732" gradientTransform="matrix(-1 0 0 -1 18159.5605 900)">
			<stop  offset="0" style="stop-color:#398F97"/>
			<stop  offset="0.27" style="stop-color:#23A49E"/>
			<stop  offset="0.51" style="stop-color:#15B2A2"/>
			<stop  offset="0.59" style="stop-color:#15ADA4"/>
			<stop  offset="0.69" style="stop-color:#17A0A9"/>
			<stop  offset="0.79" style="stop-color:#1989B2"/>
			<stop  offset="0.86" style="stop-color:#1B75BA"/>
		</linearGradient>
		
			<linearGradient id="SVGID_11_" gradientUnits="userSpaceOnUse" x1="17650.7813" y1="294.816" x2="17699.3809" y2="328.0921" gradientTransform="matrix(-1 0 0 -1 18159.5605 900)">
			<stop  offset="0" style="stop-color:#2483C5"/>
			<stop  offset="1" style="stop-color:#2483C5;stop-opacity:0"/>
		</linearGradient>
		<path class="st10" d="M494.4,564.2c-5.7-31.5-19.2-25.8-24,4c-2.5,15.9-5.2,31.4-6.1,38.3c-0.5,3.1-0.2,6.3,0.8,9.2
			c7.3,21.2,35,12.8,35-1.4C500.1,598.4,499.6,593.4,494.4,564.2z"/>
		
			<linearGradient id="SVGID_12_" gradientUnits="userSpaceOnUse" x1="17725.2129" y1="2343.6196" x2="18007.6719" y2="2573.3696" gradientTransform="matrix(-0.99 0.13 -0.13 -0.99 18361.5508 699.09)">
			<stop  offset="0" style="stop-color:#7FC796"/>
			<stop  offset="0" style="stop-color:#287239"/>
			<stop  offset="0" style="stop-color:#119D4A"/>
			<stop  offset="0.12" style="stop-color:#2DA367"/>
			<stop  offset="0.58" style="stop-color:#16A34A"/>
			<stop  offset="0.96" style="stop-color:#36B24A"/>
		</linearGradient>
		<path class="st11" d="M493.5,643.4c-1.7-1.6-4-2.5-6.3-2.3c-1.7,0.1-3.4,0.8-4.7,1.9c0-0.2-1.1-4.6-5-5.7s-9.1,1.5-10.8,6.5
			c-0.1-16.5-15.9-5-17.7-0.2c-4.7-14.6-16.2-2.9-14.8,2.7c-1.4-3.5-5.4-5.1-8.8-3.7c-3.1,1.3-4.8,4.7-4,8c-3.7-1.8-5.5-1.7-6.5-1
			c-1.8,1.1-2.5,4.8-2.5,4.8l0,0L493.5,643.4z"/>
		
			<linearGradient id="SVGID_13_" gradientUnits="userSpaceOnUse" x1="16491.0977" y1="191.67" x2="18173.0273" y2="-7.99" gradientTransform="matrix(-1 0 0 -1 18159.5605 900)">
			<stop  offset="0" style="stop-color:#64B66A"/>
			<stop  offset="0" style="stop-color:#1E542A"/>
			<stop  offset="0" style="stop-color:#337A3C"/>
			<stop  offset="0" style="stop-color:#166839"/>
			<stop  offset="0" style="stop-color:#21592C"/>
			<stop  offset="0.23" style="stop-color:#33763A"/>
			<stop  offset="0.56" style="stop-color:#19925D"/>
			<stop  offset="0.66" style="stop-color:#1D965F"/>
			<stop  offset="0.75" style="stop-color:#28A063"/>
			<stop  offset="0.81" style="stop-color:#32A967"/>
			<stop  offset="0.86" style="stop-color:#31A261"/>
			<stop  offset="1" style="stop-color:#4B9A45"/>
		</linearGradient>
		<path class="st12" d="M1471.7,637.9c27.6,3.5,66.7,9.2,113.7,18.8c42,8.6,50.5,14.6,56.6,21.2c37.3,40.6-20.1,145.7-28.3,160.5
			l-213.9,33.9l-698.4-4.5c0,0-739.8,17.7-749.5-33.9c-4-21.2,40.2-93,304.4-67.9C691.5,807.4,1084.8,616,1471.7,637.9z"/>
		
			<linearGradient id="SVGID_14_" gradientUnits="userSpaceOnUse" x1="16554.9688" y1="248.72" x2="16554.9688" y2="707.11" gradientTransform="matrix(-1 0 0 -1 18159.5605 900)">
			<stop  offset="0.25" style="stop-color:#5C4C3A"/>
			<stop  offset="0.98" style="stop-color:#777C65"/>
			<stop  offset="0.99" style="stop-color:#806A4F"/>
		</linearGradient>
		<path class="st13" d="M1833.7,321.3c0,0,5.1,37.4-67.2,56.1c0,0,5.5,62.8-100,94.8c0,0-62.6,21.1-54.6,63.3c0,0,2.2,78.6-16,116.4
			c0,0-151.3,12.4-168,10.2c0,0,57.7-46,52.4-190.9c0,0-38-78-39.7-87.9c0,0-37,4.1-49.3,0c0,0-18.9,4.1-15.6-51.7
			c0,0,41.9,80.5,73.9,8.2l12.3-2.5c0,0-14.8,84.6,37,72.3c0,0,8.2-66.5,6.6-69l23.8-3.3c0,0-0.8,66.5,14,38.6
			c0,0,21.4-32.9,19.7-39.4l15.6,1.9c0,0-26.3,60.8-39.8,67.3s-6.4,84.8,24.6,69c0,0,44.4-116.4,43.3-136.8l18.7,1.2
			c0,0-35.1,93.6,11.1,104.1c0,0,60.4,0.8,98.6-30.4c0,0,29.7-34.7,23.3-76.4l14.8-7.1c0,0-3.5,23.4-1.4,26.9c0,0,33.3,5,54.5-31.8
			L1833.7,321.3z"/>
		<path class="st14" d="M1375.8,336.4c0,0-14.7,55.9,22.4,47.7c0,0-12.2,2.9-19.6-48.1L1375.8,336.4z"/>
		<path class="st14" d="M1505.8,351.9c0,0-4.1,48.9-9.4,59.1C1496.9,409.8,1518.1,407.3,1505.8,351.9z"/>
		<path class="st15" d="M1589.2,398.4c0,0-13.3,58.3-32.1,78C1557,476.4,1602,475,1589.2,398.4z"/>
		<path class="st14" d="M1484.2,505.2c0,0,36.4,15.8,46.2,84.8c0,0,5.4,43,1.1,59.3c0,0-77.7,11.7-102.4,12.3
			c0,0,48.9-51,51.5-158.4L1484.2,505.2z"/>
		<path class="st16" d="M1782.5,248.3c-0.8-2.6,76.4-62.4,28.4-143c0,0-49.9-135.4-249.6-92.2c0,0-204.5,30.7-304.3,173.7
			c0,0-18.7,19.1-4.8,29.5s83,27.7,83,27.7l200.7,3.5L1782.5,248.3z"/>
		
			<linearGradient id="SVGID_15_" gradientUnits="userSpaceOnUse" x1="16264.042" y1="588.8652" x2="17071.1113" y2="964.7252" gradientTransform="matrix(-1 0 0 -1 18159.5605 900)">
			<stop  offset="0.13" style="stop-color:#005B38"/>
			<stop  offset="0.33" style="stop-color:#1F753A"/>
			<stop  offset="0.64" style="stop-color:#48983E"/>
			<stop  offset="0.79" style="stop-color:#58A53F"/>
			<stop  offset="0.89" style="stop-color:#59A641"/>
			<stop  offset="0.92" style="stop-color:#5CA948"/>
			<stop  offset="0.95" style="stop-color:#61AD53"/>
			<stop  offset="0.97" style="stop-color:#69B464"/>
			<stop  offset="0.99" style="stop-color:#73BD7A"/>
			<stop  offset="1" style="stop-color:#7EC793"/>
		</linearGradient>
		
			<linearGradient id="SVGID_16_" gradientUnits="userSpaceOnUse" x1="16333.5791" y1="771.7576" x2="16913.3789" y2="771.7576" gradientTransform="matrix(-1 0 0 -1 18159.5605 900)">
			<stop  offset="0" style="stop-color:#277948"/>
			<stop  offset="1" style="stop-color:#03654A"/>
		</linearGradient>
		<path class="st17" d="M1781.7,250.1c-0.9-2.6,76.4-62.4,28.4-143c0,0-49.9-135.3-249.6-92.2c0,0-204.5,30.7-304.3,173.8
			c0,0-18.7,19.1-4.9,29.5s83,27.7,83,27.7l200.7,3.5L1781.7,250.1z"/>
		
			<linearGradient id="SVGID_17_" gradientUnits="userSpaceOnUse" x1="16781.5098" y1="506.4896" x2="17031.7402" y2="767.9396" gradientTransform="matrix(-1 0 0 -1 18159.5605 900)">
			<stop  offset="0.13" style="stop-color:#005B38"/>
			<stop  offset="0.33" style="stop-color:#1F753A"/>
			<stop  offset="0.64" style="stop-color:#48983E"/>
			<stop  offset="0.79" style="stop-color:#58A53F"/>
		</linearGradient>
		
			<linearGradient id="SVGID_18_" gradientUnits="userSpaceOnUse" x1="16793.4707" y1="640.3571" x2="17005.4082" y2="640.3571" gradientTransform="matrix(-1 0 0 -1 18159.5605 900)">
			<stop  offset="0" style="stop-color:#277948"/>
			<stop  offset="1" style="stop-color:#03654A"/>
		</linearGradient>
		<path class="st18" d="M1348.4,207.1c0,0-94.6-93.7-183.1,57.8c0,0-51.1,81.6,66.9,75.7c0,0,100.3,1,118-7.9
			c1-3.9,16.7-60,15.7-66.9S1348.4,207.1,1348.4,207.1z"/>
		<path class="st19" d="M1743.7,186.6c0,0,162.5,88.2,68.2,149.5c0,0-17.8,13.2-115.9,13.2c0,0-351.4,13-406.9-8.8
			c0,0-76-15.7-50.8-75c0,0,59.4-195.6,296.8-176.7C1535.2,88.9,1590.4,89.5,1743.7,186.6z"/>
		
			<linearGradient id="SVGID_19_" gradientUnits="userSpaceOnUse" x1="16422.7246" y1="409.8258" x2="16852.6836" y2="839.7958" gradientTransform="matrix(-1 0 0 -1 18159.5605 900)">
			<stop  offset="0.13" style="stop-color:#1A704D"/>
			<stop  offset="0.37" style="stop-color:#1D724C"/>
			<stop  offset="0.53" style="stop-color:#257A4A"/>
			<stop  offset="0.67" style="stop-color:#348647"/>
			<stop  offset="0.78" style="stop-color:#499842"/>
			<stop  offset="0.85" style="stop-color:#58A53F"/>
			<stop  offset="0.92" style="stop-color:#59A641"/>
			<stop  offset="0.94" style="stop-color:#5CA948"/>
			<stop  offset="0.96" style="stop-color:#61AD53"/>
			<stop  offset="0.98" style="stop-color:#69B464"/>
			<stop  offset="0.99" style="stop-color:#73BD7A"/>
			<stop  offset="1" style="stop-color:#7EC793"/>
		</linearGradient>
		
			<linearGradient id="SVGID_20_" gradientUnits="userSpaceOnUse" x1="16319.7344" y1="676.6135" x2="16928.0547" y2="676.6135" gradientTransform="matrix(-1 0 0 -1 18159.5605 900)">
			<stop  offset="0" style="stop-color:#277948"/>
			<stop  offset="1" style="stop-color:#03654A"/>
		</linearGradient>
		<path class="st20" d="M1742.1,189.6c0,0,162.5,88.2,68.2,149.6c0,0-17.8,13.2-115.9,13.2c0,0-351.4,13-406.8-8.8
			c0,0-76-15.7-50.8-75c0,0,59.4-195.6,296.8-176.7C1533.6,91.8,1588.8,92.5,1742.1,189.6z"/>
		
			<linearGradient id="SVGID_21_" gradientUnits="userSpaceOnUse" x1="16634.252" y1="618.937" x2="16785.4727" y2="960.207" gradientTransform="matrix(-1 4.000000e-02 -4.000000e-02 -1 18241.2109 758.39)">
			<stop  offset="0" style="stop-color:#0A512E"/>
			<stop  offset="0.66" style="stop-color:#107053"/>
		</linearGradient>
		<path class="st21" d="M1631.3,681.3c-4-16.1-15.3-26.6-26.3-26.3c-2.2,0-7,0.6-12.6,5.2c-0.1-0.7-1.9-17.5-11.8-23
			c-9.8-5.4-23.9,1.9-29.5,19.7c3.3-60.8-40.4-24.5-46.1-7.7c-9.2-55.6-41.7-17-39.1,4c-2.7-10.8-9.9-18.1-17.1-18.1
			c-9.6-0.1-18.8,12.7-17.3,28.8c-9.2-8.1-14-8.3-16.7-6.4c-5,3.4-7.7,16.7-7.7,16.7L1631.3,681.3z"/>
		<path class="st22" d="M348.8,586.7c0,0,1.1,8.2-14.7,12.3c0,0,1.2,13.8-21.8,20.8c0,0-13.6,4.6-11.9,13.9c0,0,0.5,17.2-3.5,25.5
			c0,0-33,2.7-36.7,2.2c0,0,12.6-10.1,11.5-41.9c0,0-8.3-17.1-8.7-19.3c0,0-8.1,0.9-10.8,0c0,0-4.1,0.9-3.4-11.3
			c0,0,9.2,17.7,16.1,1.8l2.7-0.5c0,0-3.2,18.6,8.1,15.9c0,0,1.8-14.6,1.4-15.1l5.2-0.7c0,0-0.2,14.6,3,8.5c0,0,4.7-7.2,4.3-8.7
			l3.4,0.4c0,0-5.7,13.3-8.7,14.8s-1.4,18.6,5.4,15.1c0,0,9.7-25.5,9.5-30l4.1,0.3c0,0-7.7,20.5,2.4,22.8c0,0,13.2,0.2,21.5-6.7
			c0,0,6.5-7.6,5.1-16.8l3.3-1.5c0,0-0.8,5.1-0.3,5.9c0,0,7.3,1.1,11.9-7L348.8,586.7z"/>
		<path class="st23" d="M248.8,590c0,0-3.2,12.3,4.9,10.5c0,0-2.7,0.6-4.3-10.5L248.8,590z"/>
		<path class="st23" d="M277.2,593.4c0,0-0.9,10.7-2,13C275.2,606.1,279.9,605.6,277.2,593.4z"/>
		<path class="st23" d="M295.4,603.6c0,0-2.9,12.8-7,17.1C288.4,620.7,298.2,620.4,295.4,603.6z"/>
		<path class="st23" d="M272.5,627c0,0,8,3.5,10.1,18.6c0,0,1.2,9.4,0.2,13c0,0-17,2.6-22.4,2.7c0,0,10.7-11.2,11.3-34.8L272.5,627z
			"/>
		<path class="st24" d="M371.9,569.2c-2.9-12.8-13.1-17.1-23.7-17.8c0.1-4.5-1-8.8-3.4-12.6c0,0-10.9-29.7-54.5-20.2
			c0,0-27.3,4.1-49.6,20.9c-6,4.3-11.4,9.5-16,15.3c-7,0.3-15.6,4.7-23.9,18.9c0,0-8.2,13.2,5.7,16.1c3.5,1,7.2,1.3,10.9,1
			c0,0,10.9,0.1,18.7-0.5c20.5,3.2,84.2,0.8,84.2,0.8c17,0,23-1.8,24.7-2.6c17.2-1.3,27-3.7,27-3.7c0.6-0.1,1.3-0.3,1.9-0.5
			C387.6,581.3,371.9,569.2,371.9,569.2z"/>
		
			<linearGradient id="SVGID_22_" gradientUnits="userSpaceOnUse" x1="17896.7832" y1="1294.1367" x2="17968.5137" y2="1456.0067" gradientTransform="matrix(-1 8.000000e-02 -8.000000e-02 -1 18323.6504 594.73)">
			<stop  offset="0" style="stop-color:#277948"/>
			<stop  offset="0.27" style="stop-color:#35B486"/>
		</linearGradient>
		<path class="st25" d="M343.4,659.3c-0.4-0.5-4.2-9.6-9.5-9.5c-2.5,0.1-4.9,1-6.8,2.6c0-0.3-1.3-7.5-6.8-9.7s-13,1.4-15.8,9.3
			c1-26.5-22.4-9.6-25.3-2.2c-5.7-23.9-23-6.3-21.3,2.7c-1.6-4.6-5.7-7.6-9.6-7.4c-5.2,0.2-10.1,6-9,12.9c-5.1-3.3-7.7-3.2-9.2-2.4
			c-2.7,1.6-4,7.4-4,7.4l0,0L343.4,659.3z"/>
		
			<linearGradient id="SVGID_23_" gradientUnits="userSpaceOnUse" x1="17380.7383" y1="-406.9435" x2="17769.2715" y2="469.9188" gradientTransform="matrix(-1 0 0 -1 18159.5605 900)">
			<stop  offset="0.13" style="stop-color:#22441F"/>
			<stop  offset="0.54" style="stop-color:#3B7639"/>
			<stop  offset="1" style="stop-color:#03654A"/>
		</linearGradient>
		<path class="st26" d="M1474,793c-18.3-20.8-51.2-59.6-62.8-55.4c38.4,38,36.6,61.7,36.6,61.7s-33.2-45.9-69.8-49.1
			c44.3,28.1,52.3,42.8,52.3,58.5c0,4.3-5.2-21.8-53.7-15.1c-10.5,3.2-40.6-16.7-40.6-16.5c17.5,37.2,63.4,26.9,80.9,34.8
			c45.6,20.7-864.2-5.3-990.8-11.8c-711.3-36.5-869.2-26.2-892,17.4c-16.9,32.2-7,76.3,15.2,102.1c53.1,61.6,170.5,9.1,452.2,20.4
			c34.3,1.4,87.6,4.3,167.6,4.3c86.8-0.1,150.3-3.7,162.8-4.3c216.5-10.8,1228.7,64.1,1267.9,0.2c10.7-17.5,34-101.5,29.7-109.4
			C1610.4,795.1,1507.6,831.3,1474,793z"/>
		<path class="st27" d="M39.5,520.5c0,0,7.6,30.9,13.8,42.7s7.5,58.7-6.9,90.5l-2.5,10.5h49.5c0,0,13-37.2,10.3-53.6
			s-2.8-25.3,13.5-32.7s27.6-8.8,32.6-25l5-16.2c0,0,20-3,22.5-22.1l-2.5-1.5c0,0,2.5,11.8-15,16.2c-7.5-1.5-2.5-13.3-2.5-13.3h-6.3
			l-2.5,13.3c0,0-8.8,25-27.6,25s-17.5-3-17.5-3l2.5-29.4l-6.3,1.5c0,0,0,44.2-11.3,36.8S78.1,547,78.1,547l11.4-26.5l-5-1.5
			l-8.8,20.6L74.5,519l-10-1.5l2.5,33.9c0,0-6.2,16.2-11.3-4.5s-7.5-29.5-7.5-29.5L39.5,520.5z"/>
		
			<linearGradient id="SVGID_24_" gradientUnits="userSpaceOnUse" x1="16906.0098" y1="357.1804" x2="17389.5996" y2="825.0304" gradientTransform="matrix(-1 0 0 -1 17103.5605 900)">
			<stop  offset="0" style="stop-color:#398F97"/>
			<stop  offset="0.27" style="stop-color:#23A49E"/>
			<stop  offset="0.51" style="stop-color:#15B2A2"/>
			<stop  offset="0.59" style="stop-color:#15ADA4"/>
			<stop  offset="0.69" style="stop-color:#17A0A9"/>
			<stop  offset="0.79" style="stop-color:#1989B2"/>
			<stop  offset="0.86" style="stop-color:#1B75BA"/>
		</linearGradient>
		
			<linearGradient id="SVGID_25_" gradientUnits="userSpaceOnUse" x1="17979.9941" y1="471.6099" x2="18175.9297" y2="471.6099" gradientTransform="matrix(-1 0 0 -1 18159.5605 900)">
			<stop  offset="0" style="stop-color:#2483C5"/>
			<stop  offset="1" style="stop-color:#2483C5;stop-opacity:0"/>
		</linearGradient>
		<path class="st28" d="M179.5,441.9c0,0-6.7-82.7-83-66.4c-80.2,25-104,50.1-112.7,70.7C-10,478.5,161.1,512.7,179.5,441.9z"/>
		
			<linearGradient id="SVGID_26_" gradientUnits="userSpaceOnUse" x1="16847.25" y1="305.1575" x2="17247.9102" y2="794.0175" gradientTransform="matrix(-1 0 0 -1 17103.5605 900)">
			<stop  offset="0" style="stop-color:#398F97"/>
			<stop  offset="0.27" style="stop-color:#23A49E"/>
			<stop  offset="0.51" style="stop-color:#15B2A2"/>
			<stop  offset="0.59" style="stop-color:#15ADA4"/>
			<stop  offset="0.69" style="stop-color:#17A0A9"/>
			<stop  offset="0.79" style="stop-color:#1989B2"/>
			<stop  offset="0.86" style="stop-color:#1B75BA"/>
		</linearGradient>
		
			<linearGradient id="SVGID_27_" gradientUnits="userSpaceOnUse" x1="17914.4648" y1="398.3158" x2="18045.6934" y2="398.3158" gradientTransform="matrix(-1 0 0 -1 18159.5605 900)">
			<stop  offset="0" style="stop-color:#2483C5"/>
			<stop  offset="1" style="stop-color:#2483C5;stop-opacity:0"/>
		</linearGradient>
		<path class="st29" d="M220.5,535.2c-27.5,6.4-46.9,6.7-58.8,5.9c-3.4-0.2-6.7-0.7-10-1.5c-14.4-3.4-36.9-14.4-37.7-29.3
			c-0.3-7.2,4.1-15.1,15.2-23.4c4.4-3.3,22.8-20.9,53.4-24.3c13.8-1.5,27.8-0.1,41.1,4.1c11.7,4.7,20.1,16.5,21.2,30
			C246.3,513.6,236.1,530.5,220.5,535.2z"/>
		<path class="st30" d="M-6,502.7c0,0-4,10.6,13.9,17c8.1-0.4,4.2-12,4.2-12l6.6,0.8l1.1,12.6c0,0,6.3,24.4,26.1,26.9
			s18.8-0.5,18.8-0.5l0.8-27.7l6.4,2.2c0,0-5.1,41,7.6,35.7s12.2-11,12.2-11l-0.2-0.7c0.4-0.5,0.8-1,1.1-1.5c1-1.7,1.7-3.6,2-5.6
			l0.4,1.3l3.7-19h7.3c-1.2,4-2.7,8-4,12c-2.1,6.2-3.3,12.6-5,18.9c-1.1,3.7-2.5,7.2-3.6,10.9c-0.7,0.6-1.3,1.3-1.7,2.1
			c-10.5,18.5-7.4,40.6-3.3,60.7c1.7,8.4,3.3,16.9,6.2,25.1c0.1,2.3,0.2,4.6,0.3,6.9l-32.6-4.1c0,0-9.4-36.2-4.6-51.1
			s5.7-23.1-10.6-32.1s-27.9-11.8-31.3-27.5l-3.4-15.7c0,0-20.7-5.3-21.1-23.5L-6,502.7z"/>
		
			<linearGradient id="SVGID_28_" gradientUnits="userSpaceOnUse" x1="14621.6113" y1="980.5565" x2="14939.4014" y2="1368.3065" gradientTransform="matrix(-1.33 0 0 -1.26 19668.25 1780.73)">
			<stop  offset="0" style="stop-color:#398F97"/>
			<stop  offset="0.32" style="stop-color:#43B0A8"/>
			<stop  offset="0.51" style="stop-color:#47BEB0"/>
			<stop  offset="0.59" style="stop-color:#44B9B1"/>
			<stop  offset="0.67" style="stop-color:#3CACB3"/>
			<stop  offset="0.77" style="stop-color:#2E95B6"/>
			<stop  offset="0.86" style="stop-color:#1B75BA"/>
			<stop  offset="0.86" style="stop-color:#1B75BA"/>
		</linearGradient>
		
			<linearGradient id="SVGID_29_" gradientUnits="userSpaceOnUse" x1="17976.9102" y1="2404.5078" x2="18116.25" y2="2404.5078" gradientTransform="matrix(-0.99 0.12 -0.12 -0.99 18351.7695 664.12)">
			<stop  offset="0" style="stop-color:#2483C5"/>
			<stop  offset="1" style="stop-color:#2483C5;stop-opacity:0"/>
		</linearGradient>
		<path class="st31" d="M186.6,486.4c-29.1,6-49.7,6.3-62.3,5.5c-3.6-0.2-7.1-0.6-10.6-1.4c-15.3-3.2-39.1-13.5-39.9-27.4
			c-0.4-6.7,4.4-14.1,16.1-21.9c4.6-3.1,24.1-19.5,56.6-22.8c14.6-1.4,29.4-0.1,43.5,3.9c12.4,4.4,21.3,15.5,22.5,28.1
			C213.9,466.2,203.2,482,186.6,486.4z"/>
		
			<linearGradient id="SVGID_30_" gradientUnits="userSpaceOnUse" x1="14451.0117" y1="-592.2808" x2="14865.8711" y2="-308.1608" gradientTransform="matrix(-1.32 -0.16 0.16 -1.25 19321.2598 2167.8198)">
			<stop  offset="0" style="stop-color:#398F97"/>
			<stop  offset="0.33" style="stop-color:#50B2AA"/>
			<stop  offset="0.51" style="stop-color:#59C0B1"/>
			<stop  offset="0.58" style="stop-color:#55BBB2"/>
			<stop  offset="0.67" style="stop-color:#4AAEB3"/>
			<stop  offset="0.76" style="stop-color:#3797B6"/>
			<stop  offset="0.86" style="stop-color:#1D77BA"/>
			<stop  offset="0.86" style="stop-color:#1B75BA"/>
		</linearGradient>
		
			<linearGradient id="SVGID_31_" gradientUnits="userSpaceOnUse" x1="17999.0215" y1="417.119" x2="18223.0078" y2="417.119" gradientTransform="matrix(-1 0 0 -1 18159.5605 900)">
			<stop  offset="0" style="stop-color:#2483C5"/>
			<stop  offset="1" style="stop-color:#2483C5;stop-opacity:0"/>
		</linearGradient>
		<path class="st32" d="M149.6,503.3c-16-22.9-37.3-27.5-56.2-47.9S39.9,402.9-21,441.2c-48.6,46.8-61.7,77.1-5.5,86.9
			s154.6,13.7,154.6,13.7S183.1,551.1,149.6,503.3z"/>
		
			<linearGradient id="SVGID_32_" gradientUnits="userSpaceOnUse" x1="22197.6035" y1="442.7147" x2="23047.9844" y2="1134.4147" gradientTransform="matrix(-0.76 0 0 -0.87 16983.4609 1080.01)">
			<stop  offset="0" style="stop-color:#7FC796"/>
			<stop  offset="0" style="stop-color:#287239"/>
			<stop  offset="0" style="stop-color:#119D4A"/>
			<stop  offset="0.12" style="stop-color:#2DA367"/>
			<stop  offset="0.58" style="stop-color:#16A34A"/>
			<stop  offset="0.96" style="stop-color:#36B24A"/>
		</linearGradient>
		<path class="st33" d="M172.2,663.9c-0.6-1.1-5.2-9.4-13.5-10.1c-5.6-0.5-9.8,2.9-11.1,4.1c-0.1-0.6-1.2-15.2-9.6-20.2
			s-20.8,1-26,16.2c4.5-52.5-34.3-22.3-39.7-8c-6.4-48.3-35.7-15.9-34,2.4c-2-9.4-8.1-15.9-14.3-16.2c-8.3-0.3-16.6,10.4-15.7,24.4
			c-7.7-7.3-11.9-7.5-14.3-6c-4.5,2.8-7.1,14.2-7.1,14.2l0,0L172.2,663.9z"/>
	</g>
</g>
</svg>
