<?xml version="1.0" encoding="utf-8"?>
<!-- Generator: Adobe Illustrator 25.2.3, SVG Export Plug-In . SVG Version: 6.00 Build 0)  -->
<svg version="1.1" id="Layer_1" xmlns="http://www.w3.org/2000/svg" xmlns:xlink="http://www.w3.org/1999/xlink" x="0px" y="0px"
	 viewBox="0 0 1600 900" style="enable-background:new 0 0 1600 900;" xml:space="preserve">
<style type="text/css">
	.st0{clip-path:url(#SVGID_2_);}
	.st1{fill:url(#SVGID_3_);}
	.st2{fill:#B3D180;}
	.st3{opacity:0.38;}
	.st4{opacity:0.69;}
	.st5{fill:url(#SVGID_4_);}
	.st6{fill:url(#SVGID_5_);}
	.st7{fill:url(#SVGID_6_);}
	.st8{opacity:0.54;}
	.st9{fill:url(#SVGID_7_);}
	.st10{fill:url(#SVGID_8_);}
	.st11{fill:url(#SVGID_9_);}
	.st12{opacity:0.36;fill:#1F7C77;enable-background:new    ;}
	.st13{opacity:0.75;fill:url(#SVGID_10_);enable-background:new    ;}
	.st14{opacity:0.64;fill:#ABC921;enable-background:new    ;}
	.st15{opacity:0.72;fill:#86A835;enable-background:new    ;}
	.st16{fill:#77A72C;}
	.st17{fill:#794A1F;}
	.st18{fill:#65C2EE;}
	.st19{fill:#39A2D4;}
	.st20{fill:#5F2C0F;}
	.st21{fill:#569432;}
	.st22{fill:#90C158;}
	.st23{fill:#4F8130;}
	.st24{fill:#677D2B;}
	.st25{fill:#80B328;}
	.st26{opacity:0.36;fill:#88D1F2;enable-background:new    ;}
	.st27{fill:#6B5D54;}
	.st28{fill:#8B7063;}
	.st29{fill:#847067;}
	.st30{fill:#9B897F;}
	.st31{fill:#AB9790;}
	.st32{fill:#508A31;}
	.st33{fill:#7C4C24;}
	.st34{fill:#8EC25A;}
	.st35{fill:#509833;}
	.st36{fill:#D9D9D9;}
	.st37{fill:#3C3C3B;}
	.st38{fill:#88D1F2;}
	.st39{fill:#2C8F3C;}
	.st40{opacity:0.36;fill:#64BAD8;enable-background:new    ;}
	.st41{fill:#6B5D52;}
	.st42{fill:#A7938A;}
	.st43{fill:#948077;}
	.st44{fill:#77A82C;}
	.st45{fill:#6F6F6E;}
	.st46{fill:#958474;}
	.st47{fill:#A39081;}
	.st48{fill:#44762E;}
	.st49{fill:#366322;}
	.st50{fill:#ABC921;}
	.st51{fill:#AFCA35;}
	.st52{fill:#529232;}
	.st53{fill:#A1927B;}
	.st54{fill:#ADA18B;}
	.st55{fill:#867666;}
	.st56{fill:#ADA08D;}
	.st57{fill:#726658;}
	.st58{fill:#8B7E6B;}
	.st59{fill:#C9BDB1;}
	.st60{fill:#ABA08C;}
	.st61{fill:#A39379;}
	.st62{fill:#C9BEAA;}
	.st63{opacity:9.000000e-02;fill:#FFFFFF;enable-background:new    ;}
	.st64{opacity:0.21;fill:#FFFFFF;enable-background:new    ;}
	.st65{opacity:0.43;fill:#FFFFFF;enable-background:new    ;}
	.st66{fill:#477831;}
	.st67{fill:url(#SVGID_11_);}
	.st68{fill:#22A02E;}
	.st69{fill:#FFFFB5;}
	.st70{fill:url(#SVGID_12_);}
	.st71{fill:url(#SVGID_13_);}
	.st72{clip-path:url(#SVGID_15_);}
	.st73{fill:#032616;}
	.st74{fill:#011C24;}
	.st75{fill:#042F33;}
</style>
<g>
	<defs>
		<rect id="SVGID_1_" width="1600" height="900"/>
	</defs>
	<clipPath id="SVGID_2_">
		<use xlink:href="#SVGID_1_"  style="overflow:visible;"/>
	</clipPath>
	<g class="st0">
		
			<linearGradient id="SVGID_3_" gradientUnits="userSpaceOnUse" x1="806.42" y1="513.86" x2="806.42" y2="900.5" gradientTransform="matrix(1 0 0 -1 0 900)">
			<stop  offset="0.23" style="stop-color:#FFFFFF"/>
			<stop  offset="0.34" style="stop-color:#E3FBFD"/>
			<stop  offset="0.56" style="stop-color:#B3F5FA"/>
			<stop  offset="0.75" style="stop-color:#90F0F8"/>
			<stop  offset="0.9" style="stop-color:#7BEDF6"/>
			<stop  offset="1" style="stop-color:#73ECF6"/>
		</linearGradient>
		<rect y="-0.5" class="st1" width="1612.8" height="386.6"/>
		<polygon class="st2" points="1608.5,879.3 2.9,879.3 0,227.9 1608.5,246 		"/>
		<g class="st3">
			<g class="st4">
				
					<linearGradient id="SVGID_4_" gradientUnits="userSpaceOnUse" x1="1356.36" y1="606.65" x2="1356.36" y2="606.65" gradientTransform="matrix(1 0 0 -1 0 900)">
					<stop  offset="3.000000e-02" style="stop-color:#8BC259"/>
					<stop  offset="0.23" style="stop-color:#84BB57"/>
					<stop  offset="0.53" style="stop-color:#6FA853"/>
					<stop  offset="0.88" style="stop-color:#4E894B"/>
					<stop  offset="1" style="stop-color:#417D48"/>
				</linearGradient>
				<path class="st5" d="M1356.4,293.4L1356.4,293.4z"/>
				
					<linearGradient id="SVGID_5_" gradientUnits="userSpaceOnUse" x1="874.39" y1="606.28" x2="874.39" y2="606.28" gradientTransform="matrix(1 0 0 -1 0 900)">
					<stop  offset="3.000000e-02" style="stop-color:#8BC259"/>
					<stop  offset="0.23" style="stop-color:#84BB57"/>
					<stop  offset="0.53" style="stop-color:#6FA853"/>
					<stop  offset="0.88" style="stop-color:#4E894B"/>
					<stop  offset="1" style="stop-color:#417D48"/>
				</linearGradient>
				<path class="st6" d="M874.4,293.7L874.4,293.7z"/>
				
					<linearGradient id="SVGID_6_" gradientUnits="userSpaceOnUse" x1="1199.1514" y1="561.684" x2="1199.1514" y2="625.64" gradientTransform="matrix(1 0 0 -1 0 900)">
					<stop  offset="3.000000e-02" style="stop-color:#8BC259"/>
					<stop  offset="0.23" style="stop-color:#84BB57"/>
					<stop  offset="0.53" style="stop-color:#6FA853"/>
					<stop  offset="0.88" style="stop-color:#4E894B"/>
					<stop  offset="1" style="stop-color:#417D48"/>
				</linearGradient>
				<path class="st7" d="M766.5,315.7c42.4,3.2,56.4,8.9,55.3,9.6s15.7,9.9,79.7,3.1c16.3-1.7,28.2-2.5,36.9-2.6
					c21.8,3,29.4,6.3,28.6,6.9c-1.2,0.7,15.7,9.9,79.7,3.1s58.7,1.9,72.3,2.4s50-2.5,50-2.5l-0.1-2c66.5-6.9,59.3,1.8,73.5,2.3
					c13.6,0.5,50-2.5,50-2.5l-0.6-12.6c9.2,2,12.6,3.7,12,4c-1.2,0.7,15.7,9.9,79.7,3.1c24.8-2.6,39.2-2.9,48.3-2.3
					c10.7,2.2,14.6,4.1,14,4.5c-1.2,0.7,15.7,9.9,79.7,3.1s58.7,1.9,72.3,2.4s50-2.5,50-2.5l-1.3-27.5c0,0,5.3-13.3,9.3-13.3
					s-4.2-2.5-17.2,8.6c0,0-5.5-10.2-13.2-12.9c0,0,9.7,8.2,1,15c0,0-3.2-15-23.4-23.6c0,0,18.9,16.1,12,22.5c0,0-4.4-5.4-7.2-7.1
					c0,0,4.8,9,0.3,10.7c0,0-15-16-17.2-19.1c0,0,9.3,15.5,6.2,19.1c0,0-8.7-7.2-11.4-10c0,0,3.4,9.4,1.7,8.6
					c-2.9-1.4-7.9-10.9-21.3-13.8c0,0,14.3,7,12.3,12c0,0-7.9-6.4-12.4-8.2c0,0,6.7,5,4.4,7.2c0,0-16.8-16-29.4-17.8
					c0,0,16.5,9.9,14.8,14.9l-2.9,4.4c0,0-3.3-3.6-5.5-6.5c0,0-1.8-0.7-1.3,3.6c1.5,11.8,0.6-3.5-12-12.1c0,0,10.4,13.9,4.6,17.8
					c0,0-14.5-11.8-21.1-20c0,0,7,8.7,2.7,16.5c-1.2-2.2-8.6-8.9-9-13.5c0.7-0.9,1.6-1.4,2.7-1.6c4,0-4.2-2.5-17.2,8.6
					c0,0-5.5-10.2-13.2-12.9c0,0,7.3,6.1,3.6,12.2c-7.8-7.3-2.3-5.3-2.5,2.8c-0.4,0.3-2.8-14.7-23.5-23.5c0,0,18.9,16.1,12,22.5
					c0,0-4.4-5.4-7.2-7.2c0.8,1.6,1.5,3.2,1.9,4.9c-0.4,1.4-1,3.5-1.7,5.8c-0.5-0.6-4.4-4.8-8.4-9.1c0.6-5,1.6-9.9,2.9-11.6
					c0,0-2.9,3.9-6,8.2c-8.8-9.8-5.7-8.1-1.3,1.8c-1.5,2.1-2.9,4.2-3.9,5.9c-6.4-5.5-5.8-5.6-5.5-4.8c-0.8-1.4-1.9-2.7-3.2-3.6
					c0,0,3.9,4.8,2.6,10c-3.2-3.3-8.5-9.6-19.1-11.9c0,0,14,6.9,12.4,11.9c-0.3-0.3-8.6-6.5-12.5-8.1c1.6,1.2,3.1,2.7,4.3,4.4
					c0.1,0.9,0.2,1.8,0.2,2.7c-0.1,0.1-16.6-15.9-29.4-17.8c0,0,16.5,9.9,14.8,14.9l-2.9,4.4c0,0-3.3-3.6-5.5-6.4
					c0,0-1.8-0.7-1.3,3.6c1.5,11.8,0.6-3.5-12-12.1c0,0,10.4,13.9,4.6,17.8c0,0-14.5-11.8-21.1-20c0,0,7,8.7,2.7,16.5
					c-1.2-2.2-9.1-9.5-9-13.9c0,0-3.6,9.9-0.3,17.5c0,0-1.6-3.7-12.3-7.2c0.2,0.1,1.7,0.9,2.1,7.2c0,0-12.8-8.6-17.8-15.2
					c0,0,3.9,5.5-0.3,15.2c0,0-14.1-1.4-14.5-13c0,0-3.7,15.6-7.1,17.7c-0.2-4-0.2-7.9,0.2-11.9c0.7-4.3-3.1,4.4-4.2,5.4
					s0.5-20.4,3.4-24.4c0,0-12.2,16.2-12.8,19.1c0,0-3.8-9.8-7.1-11.6c0,0,4.2,5.1,2.4,10.5c-1.6,0.1-3.2,0.4-4.8,1
					c-1.7-1.7-4.9-4.1-10.8-7.1c0,0,2.2,1.3-0.2,12.1c0,0-8.4-2.5-10.5-11.1c-1.7,4.8,0.8,3-4.6,1.1c1.4,1.2,2.5,2.7,3.4,4.3
					c-0.4,2.5-0.2,5,0.5,7.3c-0.2,0.3-0.4,0.7-0.6,1l-3.2,0.1c-1.8-4.6-7.3-14.8-22.7-21.3c0,0,17.6,15,12.6,21.8l-1.2,0.1
					c-1.3-1.5-4.4-5.1-6.7-6.5c1.1,2.1,1.9,4.5,2.2,6.9c-1.7,0.1-3.4,0.3-5.1,0.5c-4.5-4.9-12.4-13.5-14-15.7c0,0,6.6,11,6.8,16.6
					c-1.1,0.2-2.1,0.4-3,0.6c-2.8-2.3-7.3-6.1-9.1-8c0,0,3.4,9.4,1.7,8.6c-2.9-1.4-7.9-10.9-21.3-13.8c0,0,14.3,7,12.3,12
					c0,0-7.9-6.4-12.4-8.2c0,0,6.7,5,4.4,7.2c0,0-16.8-16-29.4-17.8c0,0,16.5,9.9,14.8,14.9l-2.9,4.4c0,0-3.3-3.6-5.5-6.5
					c0,0-1.8-0.7-1.3,3.6c1.5,11.8,0.6-3.5-12-12.1c0,0,10.4,13.9,4.6,17.8c0,0-4.5-3.7-9.7-8.4c1.2-1.6,2.5-2.7,3.6-2.7
					c2.5,0,0.1-1-5.3,1.1c-19.4-18-3.8-8.7-5.8,3c-0.8,0.5-1.6,1.1-2.5,1.7c-1.7-2.1-7.8-8.4-7.7-12.1c-0.8,2.4-1.3,4.8-1.6,7.3
					c-2.1-2.3-4.6-4.1-7.5-5.2c0,0,6.6,5.6,4,11.4c-1.8-1-3.7-1.9-5.7-2.6c-2.9-5.1-8.9-12.4-20.8-17.4c0,0,12.9,11,13.5,18.4
					c-19.9-15.6-3.4-11.3-10.5,5.5c-25.1-27-12.3-16.6-8.7-3c-9.9-6.4-2.8-18.1-8.2-1.6c-6-5.3-2.8-4.1-1.4,3.9
					c-0.2,0.5-0.4,0.9-0.6,1.4c-1.1-0.8-2-1.7-2.9-2.7c0.1-6.1,1.6-9.5-2.3-2.3c-0.6-0.5-1.2-1.1-1.8-1.6c0.3-6.2,1.7-17.4,3.7-20.1
					c0,0-7.3,9.7-10.8,15.4c-1.4-0.7-2.9-1.2-4.4-1.7c-1.3-2.6-3.1-5.4-4.7-6.2c1.3,1.7,2.2,3.6,2.7,5.7c-0.8-0.2-0.7-0.2,0,0.2
					c0.3,1.2,0.3,2.5,0,3.7c-1-0.4-0.7-0.3,0,0.2c-0.2,0.9-0.5,1.7-1,2.5c-5.9-4.9-16.2-12.4-24.6-13.6c3.8,2.3,7.4,4.9,10.7,7.8
					c0.2,1.6,0.2,4.4-0.9,9.2c-1.1-1.2-2.4-2.8-3.5-4.2c0,0-1.5-0.5-1.3,2.5c-2.9-2.1-5-5.1-5.8-8.6c-1.5,4.4,1.1,2.5-6.1-2.4
					c1.9,2.6,3.5,5.3,4.8,8.2c-0.3,2.6-0.2,5.5,1,7.8l-3.2,0.1c-4.2-3.5-14-12-19.1-18.4c0,0,7,8.7,2.7,16.5
					c-1.2-2.2-9.1-9.5-9-13.9c0,0-3.6,10-0.3,17.5c0,0-1.3-3-9.4-6.2l-0.1-1.4c0,0,5.3-13.3,9.3-13.3s-4.2-2.5-17.2,8.6
					c0,0-5.5-10.2-13.2-12.9c0,0,6.7,5.7,4,11.5c-2.3-2.6-1.2-2-0.3,0.7c-0.7,1.1-1.6,2.1-2.7,2.9c0,0-3.2-15-23.4-23.6
					c0,0,18.9,16.1,12,22.5c-1.4-1.8-5-5.8-7.2-7.2c0,0,4.8,9,0.3,10.8c0,0-2.4-2.6-5.5-5.9c0.6-5.3,1.7-10.9,3-12.7
					c0,0-3.3,4.4-6.5,8.9c-14.7-16.1-6.2-9.3-2.2,3.2c-1,1.5-2,2.9-2.7,4.1c-1.4-1.1-3.1-2.6-4.6-4c-1.2-2.1-2.6-4.1-3.9-4.8
					c0.7,0.9,1.2,1.8,1.7,2.8c-0.7-0.6-1.3-1.2-1.8-1.7c0,0,3.4,9.4,1.7,8.6c-2.9-1.4-7.9-10.9-21.4-13.8c0,0,13.9,6.8,12.4,11.8
					c-2.9-1.8-8.4-6.4-12.5-8c0,0,6.7,5,4.4,7.2c0,0-16.8-16-29.4-17.8c0,0,16.5,9.9,14.8,14.9l-3,4.2c0,0-3.3-3.6-5.5-6.5
					c0,0-1.8-0.7-1.3,3.6c1.5,11.8,0.6-3.5-12-12.1c0,0,10.4,13.9,4.6,17.8c0,0-14.5-11.8-21.1-20c0,0,7,8.7,2.7,16.5
					c-1.2-2.2-9.1-9.5-9-13.9c0,0-3.6,9.9-0.3,17.5c0,0-1.6-3.7-12.3-7.2c0.2,0.1,1.7,0.9,2.1,7.2c0,0-12.8-8.6-17.8-15.2
					c0,0,3.9,5.5-0.3,15.2c0,0-14.1-1.4-14.5-13c0,0-3.7,15.6-7.1,17.7c-0.2-4-0.2-7.9,0.2-11.9c0.7-4.3-3.1,4.4-4.2,5.4
					s0.5-20.4,3.4-24.3c0,0-12.2,16.2-12.8,19.1c0,0-3.8-9.8-7.1-11.6c0,0,6.6,8-0.3,14.6c0,0,0.1-3.6-12.8-10.2
					c0,0,2.2,1.3-0.2,12.1c0,0-8.4-2.5-10.5-11.1c0,0-3,8.6-0.3,13.6c0,0-33.4,1.1-39.1,4.3S724.2,312.5,766.5,315.7z M1504.4,301
					c-0.1-1.2,3.6-8.9,6.4-12c-0.7,2.3-2.9,10.4-0.1,16.8C1510.7,305.8,1509.7,303.6,1504.4,301z M1298,296.6
					c-0.1-0.7-0.4-1.3-0.9-1.8c1-1.2,2.1-2.1,3.1-2.1h0.4C1300.1,294.2,1299.2,295.5,1298,296.6z M1093.2,296.7
					c-0.5,0.8-0.9,1.6-1.2,2.4c0,0-0.8-2-1.9-4.4C1091.1,295.3,1092.1,296,1093.2,296.7L1093.2,296.7z"/>
			</g>
			<g class="st8">
				
					<linearGradient id="SVGID_7_" gradientUnits="userSpaceOnUse" x1="228.73" y1="644.28" x2="228.73" y2="644.28" gradientTransform="matrix(1 0 0 -1 0 900)">
					<stop  offset="3.000000e-02" style="stop-color:#8BC259"/>
					<stop  offset="0.21" style="stop-color:#77B055"/>
					<stop  offset="0.53" style="stop-color:#5A944E"/>
					<stop  offset="0.8" style="stop-color:#478349"/>
					<stop  offset="1" style="stop-color:#417D48"/>
				</linearGradient>
				<path class="st9" d="M228.7,255.7L228.7,255.7z"/>
				
					<linearGradient id="SVGID_8_" gradientUnits="userSpaceOnUse" x1="670.07" y1="637.77" x2="670.07" y2="637.77" gradientTransform="matrix(1 0 0 -1 0 900)">
					<stop  offset="3.000000e-02" style="stop-color:#8BC259"/>
					<stop  offset="0.21" style="stop-color:#77B055"/>
					<stop  offset="0.53" style="stop-color:#5A944E"/>
					<stop  offset="0.8" style="stop-color:#478349"/>
					<stop  offset="1" style="stop-color:#417D48"/>
				</linearGradient>
				<path class="st10" d="M670.1,262.2L670.1,262.2z"/>
				
					<linearGradient id="SVGID_9_" gradientUnits="userSpaceOnUse" x1="372.4036" y1="579.522" x2="372.4036" y2="671.09" gradientTransform="matrix(1 0 0 -1 0 900)">
					<stop  offset="3.000000e-02" style="stop-color:#8BC259"/>
					<stop  offset="0.21" style="stop-color:#77B055"/>
					<stop  offset="0.53" style="stop-color:#5A944E"/>
					<stop  offset="0.8" style="stop-color:#478349"/>
					<stop  offset="1" style="stop-color:#417D48"/>
				</linearGradient>
				<path class="st11" d="M768.1,293.1c-38.9,3.8-51.9,11.3-50.9,12.2s-14.7,13.1-73.1,3.1c-14.9-2.5-25.7-3.6-33.7-3.9
					c-20,3.7-27.2,8.1-26.4,8.9c1,1-14.7,13.1-73.1,3.2s-53.8,1.9-66.3,2.3S399,315,399,315l0.2-2.7c-60.7-10.1-54.4,1.7-67.4,2.1
					c-12.5,0.5-45.7-4-45.7-4l1-16.9c-8.5,2.5-11.7,4.8-11.2,5.3c1,1-14.7,13.1-73.1,3.1c-22.7-3.8-35.8-4.4-44.2-3.7
					c-9.9,2.8-13.5,5.3-13,5.8c1,1-14.6,13.1-73.1,3.2s-53.8,1.9-66.3,2.3s-45.7-4-45.7-4l2.1-36.9c0,0-4.5-17.9-8.1-17.9
					s3.9-3.3,15.5,11.8c0,0,5.4-13.7,12.5-17.1c0,0-9.2,10.9-1.4,20.2c0,0,3.4-20.1,22.2-31.4c0,0-17.8,21.4-11.7,30.1
					c0,0,4.2-7.2,6.8-9.5c0,0-4.7,12-0.6,14.4c0,0,14.3-21.3,16.3-25.4c0,0-9,20.7-6.3,25.6c0,0,8.2-9.5,10.8-13.3
					c0,0-3.4,12.6-1.9,11.5c2.7-1.9,7.6-14.5,20-18.2c0,0-13.3,9.2-11.7,15.9c0,0,7.5-8.5,11.7-10.9c0,0-6.3,6.6-4.3,9.6
					c0,0,15.9-21.2,27.5-23.6c0,0-15.5,13-14,19.9l2.5,5.9c0,0,3.2-4.8,5.3-8.6c0,0,1.7-0.9,1,4.9c-1.7,15.8-0.4-4.7,11.4-16.1
					c0,0-9.9,18.5-4.8,23.8c0,0,13.7-15.7,20-26.6c0,0-6.7,11.6-3,22.1c1.2-2.9,8.2-11.9,8.7-18c-0.8-1.3-1.6-2.1-2.4-2.1
					c-3.6,0,3.9-3.3,15.5,11.8c0,0,5.3-13.7,12.5-17.1c0,0-6.8,8.1-3.7,16.3c7.3-9.7,2.2-7,2.2,3.8c0.3,0.4,3-19.7,22.3-31.3
					c0,0-17.8,21.4-11.7,30.1c0,0,4.2-7.1,6.8-9.5c-0.8,2.1-1.4,4.4-1.9,6.6c0.3,1.9,0.8,4.8,1.3,7.7c0.5-0.8,4.2-6.3,8-12.1
					c-0.4-6.7-1.2-13.3-2.3-15.6c0,0,2.5,5.3,5.2,11.1c8.4-13,5.5-10.8,1.1,2.4c1.3,2.9,2.5,5.7,3.4,8c6.1-7.4,5.5-7.5,5.2-6.3
					c1-2.2,2.1-4.1,3.1-4.8c0,0-3.8,6.4-2.7,13.3c3-4.4,8.1-12.8,17.9-15.7c0,0-13.1,9-11.7,15.7c0.3-0.4,8.1-8.7,11.7-10.7
					c-1.6,1.7-3,3.7-4.1,5.8c-0.2,1.2-0.2,2.4-0.2,3.6c0.1,0.2,15.7-21.1,27.6-23.5c0,0-15.5,13-14,19.9l2.5,5.9
					c0,0,3.2-4.8,5.3-8.6c0,0,1.7-0.9,1,4.8c-1.8,15.8-0.4-4.7,11.4-16.1c0,0-9.9,18.5-4.8,23.9c0,0,13.6-15.7,20-26.6
					c0,0-6.7,11.6-3,22.1c1.2-2.9,8.7-12.6,8.7-18.5c0,0,3,13.4-0.3,23.4c0,0,1.6-4.9,11.5-9.5c-0.2,0.1-1.6,1.1-2.2,9.6
					c0,0,12-11.4,16.8-20.2c0,0-3.7,7.4-0.2,20.4c0,0,13-1.7,13.7-17.3c0,0,2.9,21,5.9,23.9c0.3-5.3,0.4-10.6,0.2-15.9
					c-0.5-5.7,2.7,5.9,3.6,7.3s0.2-27.4-2.3-32.7c0,0,10.6,21.9,11.1,25.8c0,0,3.8-13.1,6.9-15.5c0,0-4,6.8-2.6,14.1
					c1.5,0.1,3,0.6,4.3,1.4c1.6-2.3,4.6-5.4,10.1-9.3c0,0-2.1,1.7-0.2,16.2c0,0,7.8-3.3,10-14.8c1.4,6.5-0.9,4,4.2,1.5
					c-1.4,1.7-2.4,3.6-3.3,5.7c0.3,3.3,0.1,6.6-0.7,9.8c0.1,0.5,0.3,0.9,0.5,1.3l2.9,0.2c1.8-6.1,7.2-19.7,21.5-28.3
					c0,0-16.6,19.9-12.3,29.1l1.1,0.1c1.2-2,4.2-6.8,6.3-8.7c-1.1,3-1.9,6-2.3,9.2c1.6,0.2,3.1,0.4,4.6,0.7
					c4.3-6.5,11.8-18,13.3-20.9c0,0-6.4,14.6-6.8,22.2c1,0.3,1.9,0.5,2.8,0.8c2.6-3.1,6.9-8.1,8.6-10.7c0,0-3.4,12.6-1.9,11.5
					c2.7-1.9,7.5-14.5,20-18.2c0,0-13.3,9.2-11.7,15.9c0,0,7.5-8.5,11.6-10.9c0,0-6.3,6.6-4.3,9.6c0,0,15.9-21.3,27.5-23.6
					c0,0-15.5,13-14,19.8l2.5,5.9c0,0,3.2-4.8,5.3-8.6c0,0,1.7-0.9,1,4.9c-1.7,15.8-0.4-4.7,11.4-16.1c0,0-9.9,18.5-4.8,23.8
					c0,0,4.3-4.9,9.2-11.2c-1.1-2.1-2.2-3.7-3.2-3.7c-2.3,0-0.1-1.4,4.8,1.6c18.3-24,3.7-11.6,5.2,4.1c0.7,0.7,1.5,1.5,2.3,2.3
					c1.6-2.8,7.4-11.2,7.4-16.2c0.7,3.2,1.1,6.5,1.2,9.8c2-2.9,4.4-5.6,7.1-6.9c0,0-6.3,7.4-4.1,15.3c1.6-1.3,3.4-2.4,5.3-3.4
					c3.9-9.6,10.8-17.7,19.6-23.1c0,0-12.1,14.6-13,24.6c18.7-20.7,3.5-15.1,9.4,7.5c23.9-36,11.8-22.1,8.1-3.9
					c9.3-8.4,3.1-24.2,7.5-2c5.7-7.1,2.6-5.5,1.1,5.2c0.2,0.6,0.3,1.3,0.5,1.9c1-1.1,1.9-2.3,2.7-3.5c0.1-8.2-1.2-12.7,2.1-3
					c0.5-0.7,1.1-1.5,1.7-2.2c-0.1-8.4-0.9-23.3-2.7-27c0,0,6.3,13.1,9.4,20.8c1.3-0.9,2.6-1.6,4.1-2.2c1.3-3.5,3-7.1,4.5-8.3
					c-1.3,2.4-2.2,4.9-2.6,7.6c0.7-0.2,0.6-0.3,0,0.2c-0.3,1.7-0.3,3.3-0.1,5c0.9-0.6,0.7-0.5,0,0.3c0.2,1.1,0.4,2.3,0.9,3.4
					c5.6-6.5,15.2-16.4,23-18c-3.6,3.1-7,6.6-10,10.4c-0.3,2.1-0.3,5.9,0.5,12.4c1-1.6,2.3-3.7,3.4-5.6c0,0,1.4-0.7,1.1,3.4
					c3-3.2,4.9-7.2,5.6-11.5c1.2,5.9-1.1,3.4,5.7-3.1c-1.8,3.5-3.4,7.2-4.7,11c0.2,3.5,0,7.5-1.2,10.5l2.9,0.2
					c4-4.7,13.2-16,18.1-24.4c0,0-6.7,11.6-3,22.1c1.2-2.9,8.7-12.6,8.7-18.5c0,0,3,13.4-0.3,23.4c0,0,1.3-4,8.8-8.1l0.1-1.8
					c0,0-4.5-17.9-8.1-17.9s3.9-3.3,15.5,11.8c0,0,5.3-13.7,12.5-17.1c0,0-6.3,7.5-4,15.4c2.2-3.5,1.1-2.6,0.3,0.9
					c0.6,1.4,1.3,2.7,2.3,3.9c0,0,3.4-20.1,22.2-31.4c0,0-17.8,21.3-11.7,30.1c1.4-2.4,4.8-7.7,6.8-9.5c0,0-4.7,12-0.6,14.4
					c0,0,2.3-3.4,5.2-7.8c-0.4-7.2-1.2-14.6-2.3-17.1c0,0,2.8,5.9,5.7,12.1c14-21.4,6-12.4,1.9,4.4c0.9,2,1.7,4,2.3,5.5
					c1.3-1.5,2.9-3.4,4.4-5.3c1.2-2.8,2.5-5.4,3.8-6.4c-0.7,1.2-1.2,2.4-1.6,3.7c0.7-0.9,1.2-1.6,1.7-2.3c0,0-3.4,12.6-1.8,11.5
					c2.7-1.9,7.5-14.5,20-18.2c0,0-13,9-11.8,15.7c2.7-2.4,7.9-8.5,11.7-10.6c0,0-6.3,6.6-4.3,9.5c0,0,15.9-21.2,27.5-23.6
					c0,0-15.5,13-14,19.9l2.5,5.9c0,0,3.2-4.8,5.3-8.6c0,0,1.7-0.9,1,4.9c-1.7,15.8-0.4-4.7,11.4-16.1c0,0-10,18.5-4.8,23.9
					c0,0,13.7-15.7,20-26.6c0,0-6.7,11.6-3,22.1c1.2-2.9,8.7-12.6,8.7-18.5c0,0,3,13.4-0.3,23.5c0,0,1.6-4.9,11.5-9.5
					c-0.2,0.1-1.6,1.1-2.2,9.6c0,0,12-11.4,16.8-20.2c0,0-3.7,7.4-0.2,20.4c0,0,13-1.7,13.7-17.3c0,0,2.9,21,5.9,23.9
					c0.3-5.3,0.4-10.6,0.2-15.9c-0.5-5.7,2.7,5.9,3.6,7.3s0.2-27.4-2.3-32.7c0,0,10.6,21.9,11.1,25.8c0,0,3.8-13.1,6.9-15.5
					c0,0-6.3,10.7-0.2,19.6c0,0,0.1-4.9,12.1-13.5c0,0-2.1,1.7-0.2,16.2c0,0,7.8-3.3,10-14.8c0,0,2.5,11.6-0.2,18.3
					c0,0,30.5,1.9,35.7,6.3S807,289.3,768.1,293.1z M92.9,264.2c0.1-1.6-3-12.1-5.4-16.2c0.6,3.1,2.3,14.1-0.4,22.6
					C87,270.5,88,267.6,92.9,264.2z M282,260.8c0.1-0.9,0.4-1.7,0.9-2.4c-0.9-1.7-1.9-2.8-2.8-2.8h-0.4
					C280.1,257.4,280.9,259.2,282,260.8z M469.6,263.5c0.4,1.1,0.8,2.1,1,3.3c0,0,0.8-2.7,1.9-5.8
					C471.6,261.6,470.6,262.5,469.6,263.5L469.6,263.5z"/>
			</g>
		</g>
		<path class="st12" d="M-84.5,182.8c0,0,155.2,22.1,389.9-25.4c9-1.8,18.2-2.3,27.3-1.5c30.5,2.7,101.5,9.7,131.9,18.9l87.2-6
			c12.5-0.9,25-0.4,37.5,1.2l48.8,6.8l367.9-29.7c18.3-1.5,36.7-1.4,55,0.2c38.7,3.4,105.3,9.1,110.5,8.6
			c7.4-0.6,98.4-8.9,126.9-10.9c26.9-1.8,328.8,16.9,328.8,16.9l5.4,84.3L-86.7,235.8L-84.5,182.8z"/>
		
			<linearGradient id="SVGID_10_" gradientUnits="userSpaceOnUse" x1="596.8754" y1="1045.0964" x2="1016.2097" y2="318.7936" gradientTransform="matrix(1 0 0 -1 0 900)">
			<stop  offset="1.000000e-02" style="stop-color:#25476F"/>
			<stop  offset="2.000000e-02" style="stop-color:#2B4F71"/>
			<stop  offset="0.1" style="stop-color:#426F79"/>
			<stop  offset="0.18" style="stop-color:#548780"/>
			<stop  offset="0.26" style="stop-color:#619884"/>
			<stop  offset="0.35" style="stop-color:#69A387"/>
			<stop  offset="0.46" style="stop-color:#6BA688"/>
			<stop  offset="1" style="stop-color:#427B83"/>
		</linearGradient>
		<path class="st13" d="M5.5,196.4c0,0,98.5,30.6,626.9,21.9c531.3-5.5,407.2-37.6,973.1-21.9V241l-1600-5L5.5,196.4z"/>
		<path class="st14" d="M940.4,332.5c-17.5,0-370.8-4.1-733.4,40.7s-388.6,68.7-315.5,79.4s138.2,7.6,50.6,22.3
			s-174.6,30.8-127.9,50.1c46.7,19.3,413.1,71.7,308.5,85.9s-233.9,24.4-157.1,45.6C51,680.1,408.7,716.3,391.3,717
			c-78.5,3.3-52.4,24.8,27.7,34.2s97,24.2,457.6,22.9s765.7-61.5,701.8-96.3s-201.8-23.5-152.7-50.8
			c38.1-21.1,318.3-106.2,310.7-150.1C1722.7,397.7,1381.4,333,940.4,332.5z"/>
		<path class="st15" d="M801,355.4c0,0-302.8,5.6-434.3,19.8S49,423.9,70.3,426.8s24.9,13,24.9,13l-87.5,14l53.4,3.4l-38.7,5.9
			l22.7,2c0,0-25.8,4.6-22.1,4.9s20,1.6,20,1.6s-146.5,15.5-121.4,19.3s211.3,16.4,197.5,18.6s-1.8,5.7-1.8,5.7L87.2,525h43.9
			c0,0-20.6,4.8-19.3,5.3s23.8,1.1,23.8,1.1s32.4,35.7,91.1,52.3s130.8,34.8,104.1,38.4s-90.1,9.8-73.8,11.4s36.9,7.3,31.4,7.6
			s-9.5,1.1-0.9,1.6s25.2,7.3,21.8,7.9s41.5,28.9,98.9,46s208.8,41.9,271,45.2s302.4,2.2,302.4,2.2l21.5,6.5l-3.7-13.1l50.4,15.3
			l-11.9-12l33.8,6l-11.5-8.7c0,0,214.5-4,238.4-36s12.8-34.3,12.8-34.3l58-5.4l-52.7-5.7l21.8-4.2l-21.8-2.6l18.2-6
			c0,0,263.6-103.8,280.7-147.8s-25.1-77.2-107.8-85.4l16.9-10l-30.2,3.9l31.8-15l-69.5,11.8l85.1-28.9c0,0-139.5,15.4-166.6,16.2
			s-187.7-23.8-262-26.9S801,355.4,801,355.4z"/>
		<path class="st16" d="M1433.1,417.6c0,0-456.6-76.4-1050.7-21.5C160.8,416.6,34.8,489,283.7,562.8s145,67.3,112.4,78.2
			s-51,43.4,210.5,72.2s768.9,1.1,674.7-51.2S1883.6,482.1,1433.1,417.6z"/>
		<path class="st17" d="M1416.9,426.1c0,0-444.4-82.4-1023.7-21C177.7,428,55.9,490.5,298.5,562.4s141.6,68.8,109.9,79.4
			s-47.5,36.6,207.2,64.7s746.6,3.5,654.8-47.5S1855.8,488.9,1416.9,426.1z"/>
		<path class="st18" d="M1407.3,428.2c0,0-871-57.7-1002.6,5.3c-189.6,90.7-335,58.1-96.6,128.8s140,69,108.8,79.4
			s-48.7,31.8,201.6,59.4s735.1,6.2,644.8-43.8c-84.7-47,483.5-146.2,198.8-210.1C1443.5,442.9,1433.8,432,1407.3,428.2z"/>
		<path class="st18" d="M407.5,434.3c567.5-63.8,999.8,1.8,999.8,1.8c78.1,10.8,124.7,24.4,145.3,39.9
			c-8.1-17.8-95.7-21.3-145.3-47.8c0,0-435.8-72.2-1001.4,5.1c-138.3,18.9-239.6,18.1-228.3,57.6
			C184.2,455.5,281.8,448.4,407.5,434.3z"/>
		<path class="st19" d="M427.6,461.1c198.2-81,971.4-20.6,1006.1,19.9c40.9,5.7,79,16.6,104.9,25.3c12.6-10.4,18.3-20.6,13.9-30.4
			c-20.6-15.4-67.2-29.1-145.3-39.9c-0.7-2.9-836.6-80.7-1001.4-2.8c-113.3,53.6-221.9,21.7-228.3,57.6c2.8,10,12.6,20.5,30.5,31.3
			C234.7,494.9,322,477.9,427.6,461.1z"/>
		<path class="st19" d="M399.4,654.4c-0.6,7.2,16.6,16.2,74.4,26.6l0,0C418.2,670.6,400.2,661.6,399.4,654.4z"/>
		<path class="st20" d="M456.4,439.8c-166.8-66.9,1132-31.8,963,27c80,6.1,111.6,3.1,134.5,13.1c0.5-23.8,11.8-22.1-91.8-35.3
			c17.7-46.8-1136.3-96.9-1057.1-11.5c-189.9,20.3-296.3,20.4-196.3,89.4C160.4,458.5,368.6,460.1,456.4,439.8z"/>
		<path class="st21" d="M1286,388.2c-0.2-1.9-25-67.6-25-67.6s28.6,32.9,33.5,55.3c0,0,6.3-33.1,11.2-41.2c0,0,5.3,33.3,3,51
			S1286.9,398.1,1286,388.2z"/>
		<path class="st22" d="M1297,410.1c0,0-38.2-22.5-42.2-47.4c0,0,18.5,2.1,26.5,13.5c0,0-5.6-22.8-24.5-32.4c0,0,20.1,3.6,27.3,16
			c0,0-3.6-26.4-14.9-34.9c0,0,28.5,13.9,31,53.5c0,0,18.1-36,33.8-41.3C1334,337.1,1332.4,390.2,1297,410.1z"/>
		<path class="st23" d="M1573.7,486.6c0-2.7-6.7-38.3-17.4-52.6s-22.1-28.5-35-29.6c0,0,17.1-1,30.1,11.7s24.2,39.1,25.6,51.4
			S1573.7,486.6,1573.7,486.6z"/>
		<path class="st24" d="M1572.3,478.4c-2-9.1-2.2-18.4-0.5-27.6c2.8-15.7,0.3-42-10.9-53.8c0,0,17.6,16.3,22.8,38.9
			s-10.1,40-8.9,50.7L1572.3,478.4z"/>
		<path class="st24" d="M1574.3,485.2c0,0,17.4-42,27.1-43.3s23.5-9.3,24.1-14.2s4.3,10.6-17.7,23.3S1588.8,483.7,1574.3,485.2z"/>
		<path class="st25" d="M1577.9,461.3c0,0,9-26.1,9.4-39.5s24.8-16.2,28.2-27.4c0,0-0.3,15.5-9.7,24.9s-24.1,66.9-32.1,67.4
			C1573.7,486.7,1575.5,468.8,1577.9,461.3z"/>
		<path class="st26" d="M270,523.2c-31.1-38.7,315.3-66.5,434.2-64.7c0,0,329.9-8.8,594.4,12.5c-263-24.8-616.3-15.4-616.3-15.4
			c-115.9-1.7-453.7,25.4-423.4,63.1c7.5,9.3,29.9,20.4,58.3,32.1C294.1,540.7,276.5,531.3,270,523.2z"/>
		<path class="st26" d="M521.3,660.1c30.3-11.3-4.5-30.2-56.5-51.2c41.5,17.8,65.8,33.6,39.4,43.4c-40.3,15.1-37,22.2-14.6,27.9
			C488.1,675.5,496.9,669.2,521.3,660.1z"/>
		<path class="st27" d="M1486.7,396.9c0,0,3.4,18.4,3.8,18.7s16.8,5,16.8,5l0.4-21.1L1486.7,396.9z"/>
		<polygon class="st28" points="1507.7,399.4 1525.1,418.6 1517.9,430.6 1507.3,420.5 		"/>
		<polygon class="st29" points="1490.5,415.6 1479,422.3 1483.6,434.7 1517.9,430.6 1507.3,420.5 		"/>
		<polygon class="st30" points="1479,422.3 1468,400.4 1486.7,396.9 1490.5,415.6 		"/>
		<polygon class="st30" points="1479,422.3 1450.6,423.2 1448.8,433.3 1483.6,434.7 		"/>
		<polygon class="st31" points="1448.9,404.8 1450.6,423.2 1479,422.3 1468,400.4 		"/>
		<polygon class="st29" points="1448.9,404.8 1450.5,423.8 1448.8,433.3 1440.8,425.1 		"/>
		<path class="st32" d="M1309.3,403.6c-0.1,0-0.2-0.1-0.2-0.2c-1.3-52,11.3-89.8,11.4-90.2c0-0.1,0.1-0.1,0.3-0.1
			c0.1,0,0.2,0.1,0.1,0.2c-0.1,0.4-12.7,38.1-11.4,90.1C1309.5,403.5,1309.4,403.6,1309.3,403.6
			C1309.3,403.6,1309.3,403.6,1309.3,403.6L1309.3,403.6z"/>
		<path class="st33" d="M1312.9,346L1312.9,346c-1.6-0.2-2.7-1.6-2.5-3.2c0,0,0-0.1,0-0.1l5.6-24.8c0.5-1.6,2.1-2.6,3.8-2.2l0,0
			c1.6,0.2,2.7,1.6,2.5,3.2c0,0.1,0,0.1,0,0.2l-5.6,24.8C1316.2,345.4,1314.5,346.4,1312.9,346z"/>
		<path class="st34" d="M1313.8,410.7c0,0,0.2-29.1,21.6-36.6c0,0-28.7,1.6-24.3,36.6H1313.8z"/>
		<path class="st35" d="M1309.8,404c0,0-2.2-57.3-13-58.8c0,0,6.7,13.7,9.1,65.4L1309.8,404z"/>
		<path class="st32" d="M1307.7,410.7c0,0-3.4-46.9,20.4-65.4c0,0-16.2,13.2-16.3,65.4H1307.7z"/>
		<path class="st34" d="M1309.3,410.7c0,0-8.5-58.9-16-53.8s-4.8,16.5-4.8,16.5s4.1-17.1,6.5-12.5s9.6,49.8,9.6,49.8H1309.3z"/>
		<path class="st36" d="M1314.9,341.6c-0.8,0.7-0.3-3.9-0.1-4.6s-1.7,4.7-3,4.6c-0.6,0,0.4-6.3,1.6-12.8l-3.1,13.8
			c-0.3,1.6,0.8,3.1,2.4,3.3c0,0,0.1,0,0.1,0l0,0c1.6,0.4,3.3-0.6,3.8-2.2l2-9C1317.5,337.1,1316.3,339.4,1314.9,341.6z"/>
		<path class="st37" d="M1317.3,316.8c-0.6,0.7-1,1.4-1.2,2.3c-0.4,1.4-4.4,20.4-3.9,19.9S1318.9,317.1,1317.3,316.8z"/>
		<path class="st38" d="M800.7,523.1c0,0-150.9,4.5-146.5,16.2c4.1,10.9,21.1,31.9,137.3,34c0,0-9.6,11.4,19.3,20.5
			c27,8.5,96.7,21.4,180.8,1.7c61.9-14.5-19.5-47.1-19.5-47.1s60.8-28.7,11-33.6S800.7,523.1,800.7,523.1z"/>
		<path class="st39" d="M1307.7,403.5c-0.1,0-0.2-0.1-0.2-0.1c-10.9-51.1-5.5-90.2-5.5-90.6c0-0.1,0.1-0.2,0.2-0.2c0,0,0,0,0,0
			c0.1,0,0.2,0.1,0.2,0.2c-0.1,0.4-5.4,39.5,5.5,90.5C1307.9,403.4,1307.8,403.5,1307.7,403.5
			C1307.7,403.5,1307.7,403.5,1307.7,403.5L1307.7,403.5z"/>
		<path class="st33" d="M1300.6,344.5L1300.6,344.5c-1.5,0-2.7-1.1-2.8-2.6l0.8-22.7c0.2-1.5,1.5-2.6,3-2.5l0,0
			c1.5,0,2.7,1.1,2.8,2.6l-0.8,22.6C1303.5,343.6,1302.1,344.7,1300.6,344.5z"/>
		<path class="st32" d="M1303.4,410.4c0,0,1-29-20.1-37.3c0,0,29.4,2.5,23.4,37.3L1303.4,410.4z"/>
		<path class="st35" d="M1309,408.7c0,0-13.5-61-24.5-60.9c0,0,8.6,11.1,20.5,61.8L1309,408.7z"/>
		<path class="st34" d="M1307.3,410.6c0,0-4.7-46.6,18.6-65.6c0,0-15.8,13.5-14.5,65.8L1307.3,410.6z"/>
		<path class="st34" d="M1283.2,359.9c8.1,0.9,25.8,50.7,25.8,50.7h-5.8c0,0-14.4-42.8-17.6-47L1283.2,359.9z"/>
		<path class="st36" d="M1302.8,342.3c-0.6,0.7-2.1-4-2.1-3.4s-2,3.4-2.1,2.3c0-0.5-0.3-6.1-0.3-12l-0.5,12.6c0,1.5,1.3,2.7,2.8,2.6
			l0,0c1.5,0.1,2.8-1,3-2.5l0.3-8.2C1303.3,337.3,1303.2,342,1302.8,342.3z"/>
		<path class="st37" d="M1299.7,318.2c-0.4,0.7-0.6,1.4-0.7,2.2c-0.1,1.3-0.5,18.7-0.1,18.1S1299.5,323.8,1299.7,318.2z"/>
		<path class="st32" d="M299.1,438.5c-0.1,0-0.2-0.1-0.2-0.2c-1.3-52,11.3-89.8,11.4-90.2c0-0.1,0.1-0.2,0.3-0.1
			c0.1,0,0.2,0.1,0.1,0.2c0,0,0,0,0,0c-0.1,0.4-12.7,38.1-11.4,90.1C299.3,438.4,299.2,438.5,299.1,438.5L299.1,438.5z"/>
		<path class="st33" d="M302.7,380.9L302.7,380.9c-1.6-0.2-2.7-1.6-2.5-3.2c0,0,0-0.1,0-0.1l5.6-24.8c0.5-1.6,2.1-2.6,3.8-2.2l0,0
			c1.6,0.2,2.7,1.6,2.5,3.2c0,0.1,0,0.1,0,0.2l-5.6,24.8C306,380.3,304.4,381.2,302.7,380.9z"/>
		<path class="st34" d="M303.6,445.6c0,0,0.2-29.1,21.6-36.6c0,0-28.7,1.6-24.3,36.6H303.6z"/>
		<path class="st35" d="M299.6,439c0,0-2.2-57.3-13-58.8c0,0,6.7,13.7,9.1,65.4L299.6,439z"/>
		<path class="st32" d="M297.6,445.6c0,0-3.4-46.9,20.4-65.4c0,0-16.1,13.2-16.2,65.4H297.6z"/>
		<path class="st34" d="M299.1,445.6c0,0-8.5-58.9-16-53.8s-4.8,16.4-4.8,16.4s4.1-17.1,6.5-12.4s9.6,49.8,9.6,49.8H299.1z"/>
		<path class="st36" d="M304.8,376.5c-0.8,0.7-0.3-3.9-0.1-4.6s-1.6,4.7-3,4.6c-0.6,0,0.4-6.3,1.6-12.8l-3.1,13.8
			c-0.3,1.6,0.8,3.1,2.4,3.3c0,0,0.1,0,0.1,0l0,0c1.6,0.4,3.3-0.6,3.8-2.2l2-9C307.4,372,306.1,374.3,304.8,376.5z"/>
		<path class="st37" d="M307.1,351.8c-0.6,0.7-1,1.4-1.2,2.3c-0.4,1.4-4.4,20.5-3.9,19.9S308.8,352.1,307.1,351.8z"/>
		<path class="st39" d="M285.4,438.4c-0.1,0-0.2-0.1-0.2-0.1c-11.3-53-5.7-93.5-5.7-93.9c0-0.1,0.1-0.2,0.2-0.2
			c0.1,0,0.2,0.1,0.2,0.2c0,0,0,0,0,0c0,0.4-5.6,40.9,5.7,93.8C285.6,438.3,285.5,438.4,285.4,438.4
			C285.4,438.4,285.4,438.4,285.4,438.4L285.4,438.4z"/>
		<path class="st33" d="M278.1,377.3L278.1,377.3c-1.5,0.1-2.8-1.2-2.9-2.7c0,0,0,0,0,0l0.9-23.5c0.2-1.5,1.5-2.7,3.1-2.6l0,0
			c1.6,0,2.8,1.2,2.9,2.7l-0.9,23.5C281,376.3,279.6,377.4,278.1,377.3z"/>
		<path class="st32" d="M280.9,445.5c0,0,1.1-30.1-20.8-38.6c0,0,30.5,2.6,24.2,38.7L280.9,445.5z"/>
		<path class="st35" d="M286.8,443.8c0,0-14-63.2-25.4-63.1c0,0,8.9,11.5,21.3,64.1L286.8,443.8z"/>
		<path class="st34" d="M284.9,445.8c0,0-4.8-48.4,19.3-68c0,0-16.4,13.7-15,67.9L284.9,445.8z"/>
		<path class="st34" d="M260,393.1c8.4,1,26.8,52.5,26.8,52.5l-6.1,0.2c0,0-14.9-44.6-18.2-48.9L260,393.1z"/>
		<path class="st36" d="M280.4,375c-0.6,0.8-2.1-4.1-2.2-3.5s-2,3.5-2.2,2.4c0-0.5-0.3-6.3-0.3-12.5l-0.5,13.1
			c0,1.5,1.3,2.8,2.8,2.7c0,0,0,0,0,0l0,0c1.5,0.1,2.9-1,3.1-2.5l0.3-8.5C280.8,369.8,280.7,374.6,280.4,375z"/>
		<path class="st37" d="M277.1,350c-0.4,0.7-0.7,1.5-0.7,2.3c-0.1,1.4-0.5,19.4-0.1,18.7S276.9,355.8,277.1,350z"/>
		<path class="st26" d="M892.4,615.1c-149.1,0-270-33.7-270-75.3c0-23.7,39.1-44.8,100.3-58.6C643.8,494.4,591,518.4,591,545.9
			c0,41.6,120.9,75.3,270,75.3c64.3,0,123.4-6.3,169.7-16.8C990.2,611.3,942.9,615.1,892.4,615.1z"/>
		<path class="st40" d="M878.6,485.2c-47.7,0-92.1,3.5-129.6,9.5c31.3-3.3,62.8-4.9,94.3-4.8c133.9,0,242.5,27.5,242.5,61.4
			c0,21.8-45,41-112.9,51.9c87.1-9.3,148.2-31.1,148.2-56.5C1121.2,512.7,1012.6,485.2,878.6,485.2z"/>
		<path class="st26" d="M855.6,608.3c-116.3-7.9-208.3-41.3-205.5-74.6c1.7-19.3,34.8-34.3,85-42c-58.7,6.6-98.5,22.2-100.3,42.8
			c-2.8,32.5,89.3,65.2,205.6,73c7.5,0.5,15,0.9,22.3,1.2L855.6,608.3z"/>
		<path class="st41" d="M667.7,538.8l53.4-58.8c0,0,81.5,3.1,122.3-3.5s114,15.7,114,15.7l43.9,29.3l-3.8,13.3l-101.2,38.5
			c0,0-160.4-4-182.6-10.3S667.7,538.8,667.7,538.8z"/>
		<path class="st42" d="M866,515l91.5-22.7c0,0-73.2-22.3-114-15.7S721.2,480,721.2,480l21.4,27.8L866,515z"/>
		<path class="st29" d="M721,564.4c38.1,5.5,175.5,9,175.5,9L866,515l-123.4-7.2L721,564.4z"/>
		<polygon class="st43" points="997.6,534.9 1001.3,521.6 957.4,492.3 866,515 896.5,573.3 		"/>
		<path class="st44" d="M861.7,479.5c0,0.3-0.8,0.5-1.8,0.5s-1.8-0.2-1.8-0.5s0.8-0.5,1.8-0.5S861.7,479.2,861.7,479.5z"/>
		<path class="st44" d="M938.5,492.6c0,0.3-0.8,0.5-1.9,0.5s-1.9-0.2-1.9-0.5s0.8-0.5,1.9-0.5S938.5,492.3,938.5,492.6z"/>
		<path class="st44" d="M903.1,501.8c0,0.3-0.8,0.5-1.9,0.5s-1.9-0.2-1.9-0.5s0.8-0.5,1.9-0.5S903.1,501.5,903.1,501.8z"/>
		<ellipse class="st44" cx="879.3" cy="506.6" rx="1.9" ry="0.5"/>
		<polygon class="st45" points="721.2,480 743.5,505.2 866,515 742.6,507.8 		"/>
		<path class="st46" d="M1000.5,553.4l-12.3-18.2c-0.3-1.5-13.6-3.5-13.6-3.5l-7.8-3.6c0,0-104.8,1.2-107.1,3.5
			s-61.7,41.6-60.3,44.5s15.2,13.4,15.2,13.4l82,11.9c7.5,0,27.4-4.4,34.9-3.8s50.8-0.6,50.8-0.6l33.2-17.2
			C1015.4,579,1004.6,560.4,1000.5,553.4z"/>
		<path class="st47" d="M931.4,597.6c7.5,0.6,50.8-0.6,50.8-0.6l31.9-16.5l0,0c0,0-31.9,10.7-33.3,10.2s-12.6-32.4-12.6-33.2
			s-2.3,5.8-4.3,8.1s-149.4,23.8-149.4,23.8l82,11.9C904,601.4,923.9,597,931.4,597.6z"/>
		<path class="st46" d="M966.8,528.6c0,0,0,32.6-3.3,36.3s-94.1,16.3-94.1,16.3l92.7-17.2L966.8,528.6z"/>
		<path class="st47" d="M962.5,529.3c-4.8,0.2-96.6,1.1-100.8,4s-37.1,21.8-28.1,21.3s27.7-6.3,22.1-1.4s-17.3,7.8-4,8.5
			s37.3,0.1,32.3,1.9s66.4-1.7,70.7-3.2S965.8,529.1,962.5,529.3z"/>
		<path class="st47" d="M1000.5,553.4l-12.3-18.2c-0.1-0.3-0.5-0.5-1.2-0.8c0.2,0.9,0.5,1.8,0.9,2.6c0,0,18.1,30.2,14.1,34.4
			s-18.7,9.6-15.3,9.3s20.6,0,13.3,1.5s-14.5,3.2-4.7,2.3c6.3-0.8,12.5-2.1,18.6-3.9l1.4-0.7C1015.4,579,1004.6,560.4,1000.5,553.4z
			"/>
		<path class="st29" d="M973.3,532c0,0,14.1,2,13,3.3s-14.4,23.3-11.9,21.3s6.5,29.3,4.7,23.7s-10-23.5-10-23.5L973.3,532z"/>
		<path class="st38" d="M1209.7,500.1c-24.8,0-31,5.6-40.6,8.9c-1.9,1-3.7,2.2-5.4,3.4c10.9,0.2,39.8-1.4,36.6,1.1
			s-13.4,3.7-18.3,7.6c-0.6,0.5-1.1,1.9-0.3,2.1c9.4,1.9,18.9,2.9,28.5,3c26.9,0,47.4-3.2,47.4-10.5S1234.5,500.1,1209.7,500.1z"/>
		<path class="st48" d="M1206.7,497.9c-23.6,0-42.8,5.7-42.8,12.7c0,0.2,0,0.4,0,0.6c13.7-1.2,36.7-3,33.7-0.6
			c-3.1,2.4-11.6,5.1-16.3,8.8c-0.4,0.3-0.4,0.8-0.1,1.2c0.1,0.2,0.3,0.3,0.5,0.3c8.2,1.7,16.6,2.5,25,2.4
			c23.6,0,42.8-5.7,42.8-12.7S1230.4,497.9,1206.7,497.9z"/>
		<path class="st36" d="M1230,514.9c-2.4-1.6-4.9-3-7.6-4.1c-1.5-0.6-3-1.2-4.5-1.7c-1.3-0.4-2.5-0.7-3.8-0.9
			c-1.1-0.2-2.1-0.3-3.2-0.2c0.1-0.1,0.2-0.2,0.4-0.3c0.3-0.2,0.6-0.3,0.9-0.3c0.4-0.1,0.8-0.2,1.3-0.3c2.6-0.5,5.3-0.7,8-0.7
			c3.1,0,6,0.2,8.1,0.3c1.1,0.1,2.2,0.2,3.4,0.1c-1.1-0.4-2.2-0.6-3.3-0.6c-2.7-0.4-5.4-0.6-8.1-0.6c-2.7,0-5.5,0.3-8.1,1
			c-0.5,0.1-1,0.3-1.4,0.4c-0.4,0.1-0.7,0.3-1,0.5c-0.1,0.1-0.3,0.3-0.4,0.4c-0.1-0.5-0.4-1.1-0.7-1.5c-0.8-1.3-1.8-2.4-3-3.3
			c-1.2-0.9-2.6-1.6-4-2.1c-1.1-0.3-1.8-0.4-1.8-0.3c-0.1,0.3,2.7,0.9,5.3,3c1.5,1.2,2.9,2.6,4,4.2l-1-0.5c-0.4-0.2-0.9-0.4-1.6-0.7
			s-1.3-0.5-2.1-0.8s-1.6-0.6-2.6-0.8s-2-0.5-3-0.8c-2.3-0.5-4.7-0.9-7.1-1.1c-2.4-0.2-4.8-0.3-7.2-0.3c-1.1,0-2.1,0.1-3.1,0.2
			s-1.9,0.2-2.7,0.3s-1.6,0.2-2.2,0.4s-1.2,0.2-1.7,0.3c-0.5,0.1-0.9,0.2-1.4,0.4c0,0.1,2-0.2,5.3-0.5c0.8-0.1,1.7-0.1,2.7-0.2
			s2-0.1,3.1-0.1c2.2,0,4.6,0.1,7,0.3s4.8,0.6,7,1.1c1.1,0.2,2.1,0.5,3,0.7s1.8,0.5,2.6,0.7c2.6,0.8,4.3,1.4,4.9,1.5l0,0l0,0
			c-0.3,0.1-0.9,0.5-1.8,0.9c-0.6,0.3-1.3,0.7-2.1,1.2c-0.9,0.5-1.7,1.1-2.4,1.8c-0.7,0.7-1.3,1.6-1.8,2.5c-0.3,0.8-0.5,1.6-0.6,2.4
			c-0.1,0.8,0,1.5,0.3,2.2c0.1-0.7,0.2-1.4,0.3-2.2c0.3-1.7,1.2-3.2,2.4-4.4c1.3-1.1,2.8-2.2,4.3-3.1c0.6-0.4,1.2-0.8,1.7-1.4
			c0.4,0.1,1.6,0.3,3.3,0.6c1.1,0.2,2.3,0.6,3.7,1s2.8,1,4.4,1.7c3,1.4,5.7,2.8,7.6,3.9c1,0.6,2.1,1.2,3.2,1.6
			C1232,516.2,1231,515.5,1230,514.9z"/>
		<path class="st26" d="M1251.3,502.9c10.3,3,16.5,6.6,16.5,10.7c0,9.6-34.8,17.3-77.9,17.5c1.5,0,3,0,4.5,0c42.5,0,77-7.5,77-16.9
			C1271.4,509.9,1263.8,505.9,1251.3,502.9z"/>
		<path class="st26" d="M1150.6,511.6c0-8.9,28-16,62.4-16c7.3,0,14.3,0.3,20.8,0.9c-9-1.1-18-1.7-27.1-1.6
			c-33.8,0-61.3,7.2-61.3,16c0,6.6,15.3,12.3,37.2,14.7C1163.6,522.8,1150.6,517.6,1150.6,511.6z"/>
		<path class="st38" d="M569.7,451.2c-24.8,0-31,5.6-40.6,8.9c-1.9,1-3.7,2.2-5.4,3.4c10.9,0.2,39.8-1.4,36.5,1.1
			s-13.3,3.7-18.3,7.6c-0.6,0.5-1.1,1.9-0.3,2.1c9.4,1.9,18.9,2.9,28.5,3c26.9,0,47.4-3.2,47.4-10.5S594.5,451.2,569.7,451.2z"/>
		<path class="st48" d="M566.8,449c-23.6,0-42.8,5.7-42.8,12.7c0,0.2,0,0.4,0,0.6c13.7-1.2,36.8-3,33.7-0.6s-11.6,5.1-16.3,8.8
			c-0.4,0.3-0.4,0.8-0.1,1.2c0.1,0.2,0.3,0.3,0.5,0.3c8.2,1.7,16.6,2.5,25,2.4c23.6,0,42.8-5.7,42.8-12.7S590.4,449,566.8,449z"/>
		<path class="st36" d="M590,466c-2.4-1.6-4.9-3-7.6-4.1c-1.5-0.6-3-1.2-4.5-1.7c-1.3-0.4-2.5-0.7-3.8-0.9c-1.1-0.2-2.1-0.3-3.2-0.2
			c0.1-0.1,0.2-0.2,0.4-0.3c0.3-0.2,0.6-0.3,0.9-0.3c0.4-0.1,0.8-0.2,1.3-0.3c2.6-0.5,5.3-0.7,8-0.7c3.1,0,6,0.2,8.1,0.3
			c1.1,0.1,2.2,0.2,3.4,0.1c-1.1-0.4-2.2-0.6-3.3-0.6c-2.7-0.4-5.4-0.6-8.1-0.6c-2.7,0-5.5,0.3-8.1,1c-0.5,0.1-1,0.3-1.3,0.4
			c-0.4,0.1-0.7,0.3-1,0.5c-0.2,0.1-0.3,0.2-0.4,0.4c-0.1-0.5-0.4-1.1-0.7-1.5c-1.6-2.6-4-4.5-6.9-5.4c-1.1-0.3-1.8-0.4-1.8-0.3
			s2.7,0.9,5.3,3c1.5,1.2,2.9,2.6,4,4.2c-0.2-0.1-0.5-0.3-1-0.5s-0.9-0.4-1.5-0.7s-1.3-0.5-2.1-0.8s-1.7-0.6-2.6-0.8s-2-0.5-3-0.8
			c-2.3-0.5-4.7-0.9-7.1-1.1c-2.4-0.3-4.8-0.4-7.3-0.3c-1.1,0-2.1,0.1-3.1,0.2s-1.9,0.2-2.7,0.3s-1.6,0.2-2.2,0.4s-1.2,0.2-1.7,0.4
			c-0.5,0.1-0.9,0.2-1.4,0.4c0,0.1,2-0.2,5.3-0.5c0.8-0.1,1.7-0.1,2.7-0.2s2-0.1,3.1-0.1c2.2,0,4.5,0.1,7,0.3s4.8,0.6,7,1.1
			c1.1,0.2,2.1,0.4,3,0.7s1.8,0.5,2.6,0.7c2.6,0.8,4.3,1.4,4.9,1.5l0,0l0,0c-0.3,0.1-0.9,0.5-1.8,0.9c-0.6,0.3-1.3,0.7-2.1,1.2
			c-0.9,0.5-1.7,1.1-2.5,1.8c-0.7,0.7-1.3,1.6-1.8,2.5c-0.3,0.8-0.5,1.6-0.6,2.4c-0.1,1.4,0.2,2.3,0.3,2.2s0-0.9,0.3-2.1
			c0.3-1.7,1.2-3.2,2.4-4.4c1.3-1.1,2.8-2.2,4.3-3.1c0.6-0.4,1.2-0.8,1.7-1.4c0.5,0.1,1.6,0.3,3.3,0.6c1.1,0.2,2.3,0.6,3.7,1
			s2.8,1,4.4,1.7c3,1.4,5.7,2.8,7.6,3.9c1,0.6,2.1,1.2,3.2,1.6C592,467.2,591,466.6,590,466z"/>
		<path class="st49" d="M609.5,461.7c0-4.8-8.8-8.9-21.8-11.1c5,1.3,9.6,2.6,11.8,3.5c5.8,2.3,7.5,5,7.9,5.6c0.9,0.7,1,1.9,0.4,2.8
			c-0.1,0.1-0.2,0.3-0.4,0.4c-1.4,1.4-1.4,1.9-3.8,2.5c-2.3,0.8-4.7,1.5-7.1,2c-3.9,0.8-5.9,2.1-8.1,2.5c-4.8,1-9.8,1.6-14.7,1.7
			c-7.1,0-5.7,0.8-10.9,0.6s-4-0.6-10.2-0.6s-6.1-0.9-7.1-2.2c-0.3-0.3-0.4-0.7-0.4-1.2c-1.3,0.7-2.5,1.5-3.6,2.4
			c-0.4,0.3-0.4,0.8-0.1,1.2c0.1,0.2,0.3,0.3,0.5,0.3c8.2,1.7,16.6,2.5,25,2.4C590.4,474.4,609.5,468.7,609.5,461.7z"/>
		<path class="st26" d="M611.4,454c10.3,3,16.5,6.7,16.5,10.7c0,9.6-34.8,17.3-77.9,17.5c1.5,0,3,0,4.5,0c42.5,0,77-7.5,77-16.9
			C631.4,461,623.8,457,611.4,454z"/>
		<path class="st26" d="M510.6,462.7c0-8.9,28-16,62.4-16c7.3,0,14.3,0.3,20.8,0.9c-9-1.1-18-1.7-27.1-1.6c-33.8,0-61.3,7.2-61.3,16
			c0,6.6,15.3,12.3,37.2,14.7C523.6,473.9,510.6,468.7,510.6,462.7z"/>
		<path class="st38" d="M1227.1,591.1c18,0,22.4,5.6,29.5,8.8c1.4,1.1,2.7,2.2,3.9,3.4c-7.9,0.2-28.8-1.4-26.5,1.1s9.7,3.7,13.3,7.6
			c0.4,0.5,0.8,1.9,0.2,2.1c-6.7,1.9-13.7,2.9-20.6,3c-19.5,0-34.4-3.2-34.4-10.5S1209.1,591.1,1227.1,591.1z"/>
		<path class="st48" d="M1229.3,588.8c17.1,0,31,5.7,31,12.7c0,0.2,0,0.4,0,0.6c-9.9-1.2-26.6-3-24.4-0.6s8.4,5.1,11.8,8.8
			c0.3,0.4,0.3,1.1-0.2,1.4c0,0-0.1,0-0.1,0.1c-5.9,1.6-12,2.5-18.1,2.4c-17.1,0-31-5.7-31-12.7S1212.1,588.8,1229.3,588.8z"/>
		<path class="st36" d="M1212.4,605.9c1.7-1.5,3.5-2.9,5.5-4.2c1-0.6,2.1-1.2,3.3-1.7c0.9-0.4,1.8-0.7,2.8-0.9
			c0.8-0.2,1.6-0.3,2.3-0.2c-0.1-0.1-0.2-0.2-0.3-0.3c-0.2-0.1-0.4-0.3-0.7-0.3c-0.3-0.1-0.6-0.2-1-0.3c-1.9-0.5-3.8-0.7-5.8-0.7
			c-2.3,0-4.3,0.2-5.8,0.3c-0.8,0.1-1.6,0.2-2.4,0.1c0.8-0.4,1.6-0.6,2.4-0.7c1.9-0.4,3.9-0.6,5.9-0.6c2,0,4,0.3,5.9,1
			c0.4,0.1,0.7,0.3,1,0.4c0.3,0.1,0.5,0.3,0.7,0.5c0.1,0.1,0.2,0.3,0.3,0.4c0.1-0.5,0.3-1.1,0.5-1.5c0.5-1.2,1.2-2.3,2.1-3.3
			c0.8-0.9,1.8-1.6,2.9-2.1c0.8-0.3,1.3-0.3,1.3-0.3s-1.9,0.9-3.8,3c-1.1,1.3-2.1,2.7-2.9,4.2c0.2-0.1,0.4-0.3,0.7-0.5
			c0.4-0.2,0.7-0.5,1.1-0.7c0.4-0.2,0.9-0.5,1.5-0.8s1.2-0.6,1.9-0.8s1.4-0.5,2.2-0.8c1.7-0.5,3.4-0.9,5.1-1.2
			c1.7-0.2,3.5-0.3,5.2-0.3c0.8,0,1.6,0.1,2.3,0.2s1.4,0.2,2,0.3c0.5,0.1,1.1,0.2,1.6,0.4c0.4,0.1,0.8,0.2,1.2,0.3
			c0.4,0.1,0.7,0.2,1,0.4c-1.3-0.1-2.6-0.3-3.8-0.5c-0.6-0.1-1.3-0.2-2-0.2s-1.4-0.1-2.2-0.1c-1.7,0-3.4,0.1-5.1,0.3
			c-1.7,0.2-3.4,0.6-5.1,1.1c-0.8,0.2-1.5,0.5-2.2,0.7s-1.3,0.5-1.9,0.7c-1.9,0.8-3.1,1.4-3.5,1.5l0,0l0,0c0.2,0.1,0.7,0.5,1.3,0.9
			c0.4,0.3,1,0.7,1.5,1.2c0.7,0.5,1.3,1.1,1.8,1.8c0.6,0.8,1,1.6,1.3,2.5c0.2,0.8,0.4,1.6,0.4,2.4c0.1,0.8,0,1.5-0.2,2.2
			c-0.1,0,0-0.9-0.2-2.2c-0.2-1.6-0.8-3.1-1.7-4.4c-1-1.1-2-2.1-3.1-3.1c-0.5-0.4-0.9-0.9-1.2-1.4c-0.3,0.1-1.2,0.3-2.4,0.7
			c-0.9,0.3-1.8,0.6-2.7,1c-1.1,0.5-2.1,1.1-3.2,1.7c-2.2,1.4-4.1,2.8-5.5,3.9c-0.7,0.6-1.5,1.2-2.3,1.6
			C1210.9,607.2,1211.6,606.5,1212.4,605.9z"/>
		<path class="st49" d="M1198.2,601.5c0-4.8,6.4-8.9,15.8-11.1c-2.9,1-5.8,2.2-8.6,3.5c-2.5,1.2-4.5,3.2-5.8,5.6
			c-0.7,0.9-0.7,2.3,0,3.2c1,1.4,1,1.9,2.8,2.5c1.7,0.8,3.4,1.5,5.1,2c2.8,0.8,4.3,2.2,5.9,2.5c3.5,1,7.1,1.6,10.7,1.7
			c5.1,0,4.2,0.8,7.9,0.6s2.9-0.7,7.4-0.7s4.4-0.9,5.1-2.2c0.2-0.4,0.3-0.8,0.3-1.2c0.9,0.7,1.8,1.5,2.6,2.3
			c0.3,0.4,0.3,1.1-0.2,1.4c0,0-0.1,0-0.1,0.1c-5.9,1.6-12,2.5-18.1,2.4C1212.1,614.2,1198.2,608.5,1198.2,601.5z"/>
		<path class="st26" d="M1196.9,593.9c-7.5,3-12,6.7-12,10.7c0,9.6,25.2,17.3,56.5,17.5c-1.1,0-2.1,0-3.2,0
			c-30.8,0-55.8-7.5-55.8-16.9C1182.4,600.8,1187.9,596.9,1196.9,593.9z"/>
		<path class="st26" d="M1269.9,602.5c0-8.8-20.3-16-45.3-16c-5,0-10.1,0.3-15.1,0.9c6.5-1.1,13.1-1.7,19.6-1.7
			c24.5,0,44.4,7.2,44.4,16c0,6.6-11.1,12.3-27,14.7C1260.6,613.8,1269.9,608.5,1269.9,602.5z"/>
		<path class="st38" d="M504.6,547.2c15,0,18.7,5.6,24.6,8.9c1.2,1.1,2.3,2.2,3.3,3.4c-6.6,0.2-24.1-1.4-22.1,1.1
			c2,2.5,8.1,3.7,11.1,7.6c0.3,0.5,0.7,1.9,0.2,2.1c-5.6,1.9-11.4,2.9-17.2,3c-16.3,0-28.7-3.2-28.7-10.5S489.6,547.2,504.6,547.2z"
			/>
		<path class="st48" d="M506.4,545c14.3,0,25.9,5.7,25.9,12.7c0,0.2,0,0.4,0,0.6c-8.3-1.2-22.3-3-20.4-0.6s7,5.1,9.9,8.8
			c0.3,0.4,0.2,1.3-0.2,1.5c-4.9,1.6-10,2.5-15.1,2.4c-14.3,0-25.9-5.7-25.9-12.7S492.1,545,506.4,545z"/>
		<path class="st36" d="M492.3,562c1.4-1.5,2.9-2.9,4.6-4.2c0.9-0.6,1.8-1.2,2.7-1.7c0.7-0.4,1.5-0.7,2.3-0.9c0.6-0.2,1.3-0.3,2-0.2
			c-0.1-0.1-0.1-0.2-0.2-0.3c-0.2-0.1-0.4-0.3-0.6-0.3c-0.2-0.1-0.5-0.2-0.8-0.3c-1.6-0.5-3.2-0.7-4.8-0.7c-1.6,0-3.3,0.1-4.9,0.3
			c-1.3,0.1-2,0.2-2,0.1c0.6-0.3,1.3-0.6,2-0.7c1.6-0.4,3.3-0.6,4.9-0.6c1.7,0,3.4,0.3,4.9,1c0.3,0.1,0.6,0.3,0.8,0.4
			c0.2,0.1,0.4,0.3,0.6,0.5c0.1,0.1,0.2,0.3,0.2,0.4c0.1-0.5,0.2-1.1,0.4-1.5c0.4-1.2,1-2.3,1.8-3.3c0.6-0.9,1.5-1.6,2.4-2.1
			c0.7-0.3,1.1-0.3,1.1-0.2s-1.6,0.9-3.2,3c-1,1.3-1.8,2.7-2.4,4.2c0.1-0.1,0.3-0.3,0.6-0.5c0.3-0.2,0.6-0.5,0.9-0.7
			c0.4-0.2,0.8-0.5,1.3-0.8s1-0.6,1.6-0.8s1.2-0.5,1.8-0.8c1.4-0.5,2.8-0.9,4.3-1.2c1.4-0.2,2.9-0.3,4.3-0.3c0.7,0,1.3,0.1,1.9,0.2
			c0.6,0.1,1.1,0.2,1.6,0.3c0.5,0.1,0.9,0.2,1.3,0.4c0.3,0.1,0.7,0.2,1,0.3c0.5,0.2,0.8,0.4,0.8,0.4c-1.1-0.1-2.2-0.3-3.2-0.5
			c-0.5-0.1-1-0.2-1.6-0.2s-1.2-0.1-1.9-0.1c-1.4,0-2.9,0.1-4.3,0.3c-1.4,0.2-2.8,0.6-4.2,1.1c-0.6,0.2-1.3,0.5-1.8,0.7
			s-1.1,0.5-1.6,0.7c-1.6,0.8-2.6,1.4-3,1.5l0,0l0,0c0.2,0.1,0.6,0.5,1.1,0.9c0.4,0.3,0.8,0.7,1.3,1.2c0.6,0.5,1.1,1.1,1.5,1.8
			c0.5,0.8,0.8,1.6,1.1,2.5c0.2,0.8,0.3,1.6,0.4,2.4c0.1,0.7,0,1.5-0.2,2.2c-0.1,0,0-0.9-0.2-2.2c-0.1-1.6-0.6-3.1-1.4-4.4
			c-0.8-1.1-1.6-2.1-2.6-3.1c-0.4-0.4-0.7-0.9-1-1.4c-0.3,0.1-1,0.3-2,0.6c-0.8,0.3-1.5,0.6-2.2,1c-0.9,0.5-1.8,1.1-2.6,1.7
			c-1.6,1.2-3.1,2.5-4.6,3.9c-1.2,1.1-1.9,1.7-1.9,1.6C491,563.3,491.6,562.6,492.3,562z"/>
		<path class="st49" d="M480.5,557.7c0-4.8,5.3-8.9,13.2-11.1c-2.5,1-4.8,2.2-7.1,3.5c-2.1,1.3-3.8,3.3-4.8,5.6
			c-0.6,1-0.6,2.2,0,3.2c0.8,1.4,0.9,1.9,2.3,2.5c1.4,0.8,2.8,1.5,4.3,2c2.4,0.8,3.6,2.2,4.9,2.5c2.9,1,5.9,1.6,8.9,1.7
			c4.3,0,3.5,0.8,6.6,0.6s2.4-0.7,6.2-0.7s3.7-0.9,4.3-2.2c0.2-0.4,0.3-0.8,0.3-1.2c0.8,0.7,1.5,1.5,2.2,2.3
			c0.3,0.4,0.2,1.3-0.2,1.5c-4.9,1.6-10,2.5-15.1,2.4C492.1,570.4,480.5,564.7,480.5,557.7z"/>
		<path class="st26" d="M479.4,550c-6.3,3-10,6.7-10,10.7c0,9.6,21,17.3,47.2,17.5c-0.9,0-1.8,0-2.7,0c-25.7,0-46.6-7.5-46.6-16.9
			C467.2,557,471.8,553,479.4,550z"/>
		<path class="st26" d="M540.4,558.7c0-8.8-16.9-16-37.8-16c-4.2,0-8.4,0.3-12.6,0.9c5.4-1.1,10.9-1.7,16.4-1.7
			c20.5,0,37.1,7.2,37.1,16c0,6.6-9.3,12.3-22.5,14.7C532.5,569.9,540.4,564.7,540.4,558.7z"/>
		<path class="st20" d="M463.6,625.1c-3.9,9.5-31.7,11.7-46.5,16.1c-24.6,7.3-37.3,22.9,49.4,38.3L463.6,625.1z"/>
		<path class="st50" d="M851.4,348.2c0.2-0.8-2.3-18.3-17.5-27.6c0,0,12.1,4.2,15.2,9.4c0,0-6.2-21.4-11.2-26.5
			c0,0,18.1,16.1,19.7,27.2c0,0,2-21.8-6.3-37.6c0,0,16.6,25.1,16.6,37.3c0,0-0.9-20.4,3.8-27c0,0,0,22.5,3.1,26.5l11.8-29.3
			l-2.5,29c0,0,3.8-7.6,11.2-9c0,0-8.8,8.9-7.5,27.6L851.4,348.2z"/>
		<path class="st51" d="M618.5,705.7c0.5,0.5-3.3,10.2-42.3,12.5c0,0,31.6,0.1,39-2.3c0,0-13,11.2-25.7,13.2c0,0,45.7-5.5,48.1-11.8
			c0,0,8.7,13.2-11,20.7c0,0,40.2-11.2,38.3-18.4c0,0,0.7,11.8,14.3,16.7c0,0-3.5-13.2,4.1-14.9l35.9,19.7l-11-17.6
			c0,0,11.4,5.3,31.2,7.7c0,0-24.6-7.1-24.2-17.8L618.5,705.7z"/>
		<path class="st50" d="M234,386.1c0-0.8-0.6-15.2-20-27.2l16.6,6.3l-14.1-44.7l22.4,41.4l11.7-45.8v49l17.2-33.5
			c0,0-7.4,41.7-4.6,54.5L234,386.1z"/>
		<path class="st51" d="M905.6,720.3c0.2,0.3-4.2,8.7-10,12.9l10.6-4.1l-1.3,15.5l11.8-15.3l23.3,16.9L927.5,728l25.8,12.4
			c0,0-18-15.4-18.5-20.2L905.6,720.3z"/>
		<path class="st16" d="M482.7,694.6c0-0.8-0.6-15.3-20-27.2l16.6,6.3L465.2,629l22.4,41.4l11.7-45.8v49l17.2-33.5
			c0,0-7.4,41.7-4.6,54.5L482.7,694.6z"/>
		<path class="st50" d="M1360.2,609.3c0-0.8-0.6-15.3-20-27.2l16.6,6.3l-14.1-44.7l22.4,41.4l11.7-45.7v49l17.2-33.5
			c0,0-7.4,41.7-4.6,54.5L1360.2,609.3z"/>
		<path class="st50" d="M546.3,355.4c0,0-2.8-19.1-12.6-24c0,0,11.1,2.5,12.6,6.5l-8.3-28.6l13.8,29.1c0,0,0-12.8,6.8-17.1
			c0,0-4,21,0,34L546.3,355.4z"/>
		<path class="st50" d="M239.9,577c0,0-2.8-19.1-12.6-24c0,0,11.1,2.5,12.6,6.5l-8.3-28.6l13.8,29.1c0,0,0-12.8,6.8-17.2
			c0,0-4,21,0,34L239.9,577z"/>
		<path class="st16" d="M196.1,610.3c0-0.4-14.4-56.1-26.6-64.5c0,0,26.9,12.5,33.5,64.5H196.1z"/>
		<path class="st52" d="M205.4,543.8l-9.2,66.4h10.4C206.6,610.3,209,553.5,205.4,543.8z"/>
		<path class="st52" d="M190.5,552.5c0,0,17.2,30.2,14.3,57.8h-7.6C197.2,610.3,200.6,575.2,190.5,552.5z"/>
		<path class="st16" d="M225,552.7c0,0-21.9,30.1-23.3,57.6h7.6C209.3,610.3,211.3,575.3,225,552.7z"/>
		<path class="st16" d="M1423.7,585c0-0.8-0.6-15.2-20-27.2l16.6,6.3l-14.1-44.7l22.4,41.4l11.7-45.8l-4.3,47.2l21.5-31.7
			c0,0-19.4,41.7-16.6,54.5L1423.7,585z"/>
		<path class="st16" d="M1420.6,585c0-0.4-14.4-56.1-26.6-64.5c0,0,26.9,12.5,33.5,64.5L1420.6,585z"/>
		<path class="st52" d="M1429.8,518.6l-9.2,66.4h10.4C1431,585,1433.4,528.3,1429.8,518.6z"/>
		<path class="st52" d="M1414.9,527.3c0,0,17.2,30.2,14.3,57.8h-7.6C1421.6,585,1425,549.9,1414.9,527.3z"/>
		<path class="st16" d="M1449.4,527.5c0,0-21.9,30.1-23.2,57.6h7.6C1433.8,585.1,1435.8,550.1,1449.4,527.5z"/>
		<path class="st53" d="M1362.9,358.4l-19.7,5.7c0,0-11.2,8.8-8.9,10.5s12.1,4.3,12.1,4.3s9-2.2,12.1-2.1c2.4,0.2,4.9,0.6,7.2,1.4
			c1.1,0.4,11,0,11.6-0.3s5.6-5,6-5.9S1371.9,357.7,1362.9,358.4z"/>
		<path class="st54" d="M1362.9,358.4L1362.9,358.4l-18.8,5.4c-0.1,2.9-0.5,5.7-1.1,8.5l20-3.8L1362.9,358.4z"/>
		<path class="st55" d="M1375.5,363.7c0,1,0,1.9-0.1,2.9c-0.3,0.9-0.1,3-0.1,3.9s-3.9,0.8-6.5-0.4c-1.9-0.8-3.9-1.2-5.9-1.4l-20,3.8
			l-8.7,2.2c2.3,1.7,12.1,4.3,12.1,4.3s9-2.2,12.1-2.1c2.4,0.2,4.9,0.6,7.2,1.4c1.1,0.4,11,0,11.6-0.3s5.6-5,6-5.9
			C1383.5,371.5,1380.1,367.3,1375.5,363.7z"/>
		<path class="st56" d="M337,590.6c0,0-28.9-1.1-31-1.4s-16.9-2.5-20-2.5s-16.6,4.1-17.5,3.8s-11.4,3.8-11.4,3.8v12.5l-1.8,19.1
			c0,0,17.8,12.8,18.1,13.6s28,7.6,32.6,7.6s31.6-5.2,49.4-7.1s42.1-2.5,42.1-2.5l11.1-23.7C408.6,614,354.5,589.8,337,590.6z"/>
		<path class="st57" d="M255.3,626c0,0,17.8,12.8,18.1,13.6s28,7.6,32.6,7.6s31.6-5.2,49.4-7.1s42.1-2.5,42.1-2.5l11.1-23.7
			c0,0-42.4,7.1-56.5,5.7s-22.1-4.1-25.5-3.8s-17.2,4.1-24.9,3.8s-21.5-5.4-24.9-5.7s-19.6-19.6-19.6-19.6v12.5L255.3,626z"/>
		<path class="st58" d="M303.6,619.7L303.6,619.7c-0.7,0-1.3,0-1.9,0c-7.7-0.3-21.5-5.4-24.9-5.7s-19.6-19.6-19.6-19.6v12.5
			l-1.8,19.1c0,0,17.8,12.8,18.1,13.6s25.7,7.1,31.9,7.6L303.6,619.7z"/>
		<path class="st59" d="M408.6,614L408.6,614c0,0-44.9-20.1-66.1-23.1c-13.8,1.3-36.8,3.3-38.7,3.5c-2.6,0.3,18.9,3.1,22.1,3.7
			s5.5,1.9,1.8,2.2s-10.8-1.4-5.8,0.8s39.8,11.7,57.3,11.8S408.6,614,408.6,614z"/>
		<path class="st51" d="M353.8,624c-6.8,4.3-6.8,17.2-6.8,17.2l-2.4-31.7l-3.1,31.2h-0.2c-1-8.8-1.3-16.2-1.3-16.2
			c-1.4,5.5-2.1,11.1-2.1,16.7l-8.9-21.6l3.4,21.1c-1.5-4.1-12.6-6.5-12.6-6.5c9.8,4.9,10.6,25.6,10.6,25.6l11-0.1h12.4
			C349.8,646.4,353.8,624,353.8,624z"/>
		<path class="st50" d="M1344.2,622.5c0,0-18-10.6-20-22.4c0,0,8.7,1,12.5,6.4c0,0-2.7-10.8-11.6-15.3c0,0,9.5,1.7,12.9,7.6
			c0,0-1.7-12.5-7-16.5c0,0,13.5,6.6,14.6,25.3c0,0,8.6-17,16-19.5C1361.7,587.9,1360.9,613,1344.2,622.5z"/>
		<path class="st60" d="M1432.5,400.4c0,0-13.2,3.6-17.1,9.5c-3.3,5-4.2,5.3-7.2,6.8c-3.2,1.7-7.8,4.5-7.8,4.5l3.2,10.4
			c0,0,10.8,2.5,17,3.6s17.6,2.3,19.1,1.1s13.3-11.1,13.3-11.1s9-8.1,9-9.1s-5-9.8-5-9.8L1432.5,400.4z"/>
		<path class="st57" d="M1452.3,422.2c0,0-12.9,9-14.4,10.1s-12.9,0-19.1-1.2c-5.4-1-14.3-3-16.5-3.5l1.2,4.1c0,0,10.8,2.5,17,3.6
			s17.6,2.3,19.1,1.1s13.3-11.1,13.3-11.1s9-8.1,9-9.1c-0.1-0.5-0.3-0.9-0.5-1.3C1458.6,417.5,1452.3,422.2,1452.3,422.2z"/>
		<path class="st61" d="M1415.4,410c-3.3,5-4.2,5.3-7.2,6.8c-3.2,1.7-7.8,4.5-7.8,4.5l1.9,6.4l0,0c0,0,17.7-8.2,18.9-8.9
			s11.3-18.3,11.3-18.3S1419.3,404,1415.4,410z"/>
		<path class="st62" d="M1421.2,418.7l40.2-3.7l0,0c-1.3-2.7-4.6-8.5-4.6-8.5l-24.3-6.1L1421.2,418.7z"/>
		<path class="st21" d="M1349.1,610.3c-0.1-1.6-21-56.9-21-56.9s24.1,27.7,28.1,46.5c0,0,5.3-27.9,9.4-34.6c0,0,4.5,28,2.5,43
			S1349.9,618.7,1349.1,610.3z"/>
		<path class="st21" d="M262.1,441.7c-0.1-1.6-21-56.9-21-56.9s24.1,27.6,28.1,46.5c0,0,5.3-27.9,9.4-34.6c0,0,4.5,28,2.5,42.9
			S262.9,450.1,262.1,441.7z"/>
		<path class="st34" d="M165.8,533.5c0,0-0.2-35.2-26.2-44.3c0,0,34.6,2,29.3,44.3H165.8z"/>
		<path class="st35" d="M175.3,533.4c0,0,5.9-75.5-6.9-78.8c0,0,7.2,16.3,1.4,78.8H175.3z"/>
		<path class="st32" d="M176.4,533.5c0,0-4.1-56.8,24.6-79.1c0,0-19.5,15.9-19.6,79.1H176.4z"/>
		<path class="st34" d="M173.5,533.5c0,0-10.3-71.3-19.4-65s-5.8,19.9-5.8,19.9s5-20.6,7.9-15s11.6,60.2,11.6,60.2L173.5,533.5z"/>
		<path class="st32" d="M178.1,527.6c-0.1,0-0.2-0.1-0.2-0.2c4.4-62.8,23.9-107.2,24.1-107.6c0.1-0.1,0.2-0.2,0.3-0.1
			c0.1,0,0.2,0.1,0.2,0.2c0,0,0,0,0,0c-0.2,0.4-19.6,44.8-24.1,107.5C178.3,527.5,178.2,527.6,178.1,527.6
			C178.1,527.6,178.1,527.6,178.1,527.6L178.1,527.6z"/>
		<path class="st33" d="M189,458.5L189,458.5c-1.8-0.4-3.1-2.1-2.7-4c0-0.1,0-0.2,0.1-0.3l9.6-29.3c0.8-1.9,2.8-2.9,4.8-2.4l0,0
			c1.9,0.4,3.1,2.1,2.7,4c0,0.1,0,0.2-0.1,0.3l-9.6,29.3C193.1,458.1,191,459.1,189,458.5z"/>
		<path class="st36" d="M192,453.4c-1.1,0.8,0.1-4.8,0.4-5.6s-2.5,5.5-4.1,5.3c-0.8-0.1,1.2-7.6,3.4-15.3l-5.3,16.4
			c-0.5,1.8,0.6,3.7,2.4,4.2c0.1,0,0.2,0,0.3,0.1l0,0c2,0.6,4-0.5,4.8-2.4l3.5-10.6C195,449.2,192.5,453,192,453.4z"/>
		<path class="st37" d="M197.7,423.8c-0.8,0.7-1.4,1.6-1.7,2.6c-0.6,1.7-7.6,24.2-7,23.6S199.6,424.3,197.7,423.8z"/>
		<path class="st32" d="M172.5,526.8c0.1,0,0.2-0.1,0.2-0.2c0,0,0,0,0,0c-12.4-61.9-37.4-104.1-37.6-104.6c-0.1-0.1-0.2-0.1-0.3-0.1
			c-0.1,0-0.2,0.1-0.1,0.3c0,0,0,0,0,0c0.3,0.4,25.2,42.5,37.6,104.4C172.3,526.7,172.4,526.8,172.5,526.8L172.5,526.8z"/>
		<path class="st33" d="M152.8,459.3L152.8,459.3c1.8-0.5,2.8-2.4,2.2-4.1c0-0.1-0.1-0.2-0.1-0.4l-13.3-28.2c-1-1.8-3.2-2.6-5.1-1.9
			l0,0c-1.8,0.5-2.8,2.4-2.2,4.1c0,0.1,0.1,0.2,0.1,0.4l13.3,28.2C148.7,459.2,150.9,460,152.8,459.3z"/>
		<path class="st36" d="M149.3,454.5c1.2,0.7-0.8-4.7-1.1-5.5s3.2,5.2,4.7,4.9c0.7-0.2-2.2-7.4-5.4-14.8l7.4,15.7
			c0.7,1.7,0,3.6-1.7,4.4c-0.1,0.1-0.2,0.1-0.4,0.1l0,0c-1.9,0.7-4.1,0-5.1-1.9l-4.8-10.2C145.7,450.6,148.6,454.2,149.3,454.5z"/>
		<path class="st37" d="M139.8,425.6c0.8,0.7,1.5,1.5,2,2.5c0.8,1.6,10.6,23.3,9.9,22.7S138,426.4,139.8,425.6z"/>
		<path class="st21" d="M170.7,533.4c0,0-15-65.1-39.7-77.3C131,456.1,169.7,468.2,170.7,533.4z"/>
		<path class="st35" d="M169.8,533.4c3.5-19.2,16.7-35.2,34.9-42.3c0,0-27.5,14.8-28.4,41.9L169.8,533.4z"/>
		<path class="st34" d="M176.2,533.4c0,0-3-70.8-24-107.5c0,0,19.8,94.6,17.4,107.6L176.2,533.4z"/>
		<path class="st21" d="M171.9,533.5c0,0,2.5-67.9,17.6-98.3l-13,98.3L171.9,533.5z"/>
		<path class="st21" d="M172.7,533.5c0,0,4.7-37.8,34.8-53.8c0,0,5.9-0.2,10.9,18.5l-10.4-13c0,0-24.4,15.1-29.9,48.2L172.7,533.5z"
			/>
		<path class="st34" d="M204.5,558.2c0,0-0.2-35.2-26.2-44.3c0,0,34.6,2,29.3,44.3H204.5z"/>
		<path class="st35" d="M214,558.1c0,0,5.9-75.5-6.9-78.8c0,0,7.2,16.4,1.4,78.8H214z"/>
		<path class="st32" d="M215.1,558.2c0,0-4.1-56.7,24.6-79.1c0,0-19.5,15.9-19.6,79.1H215.1z"/>
		<path class="st34" d="M212.2,558.2c0,0-10.3-71.3-19.4-65S187,513,187,513s5-20.6,7.9-15s11.6,60.2,11.6,60.2L212.2,558.2z"/>
		<path class="st32" d="M216.8,552.3c-0.1,0-0.2-0.1-0.2-0.2c0,0,0,0,0,0c4.4-62.8,23.9-107.2,24.1-107.6c0.1-0.1,0.2-0.2,0.3-0.1
			c0.1,0,0.2,0.1,0.1,0.3c0,0,0,0,0,0c-0.2,0.4-19.6,44.8-24.1,107.5C217,552.2,216.9,552.3,216.8,552.3
			C216.8,552.3,216.8,552.3,216.8,552.3L216.8,552.3z"/>
		<path class="st33" d="M227.7,483.2L227.7,483.2c-1.8-0.3-3.1-2.1-2.7-4c0-0.1,0-0.2,0.1-0.3l9.6-29.3c0.8-1.9,2.8-2.9,4.8-2.4l0,0
			c1.9,0.4,3.1,2.1,2.7,4c0,0.1,0,0.2-0.1,0.3l-9.6,29.3C231.8,482.7,229.7,483.7,227.7,483.2z"/>
		<path class="st36" d="M230.7,478.1c-1.1,0.8,0.1-4.8,0.4-5.6s-2.5,5.5-4.1,5.3c-0.8-0.1,1.2-7.6,3.4-15.3l-5.3,16.4
			c-0.5,1.8,0.5,3.7,2.4,4.2c0.1,0,0.2,0,0.3,0.1l0,0c2,0.6,4-0.4,4.8-2.3l3.5-10.6C233.7,473.9,231.2,477.7,230.7,478.1z"/>
		<path class="st37" d="M236.4,448.5c-0.8,0.7-1.4,1.6-1.7,2.6c-0.6,1.7-7.6,24.2-6.9,23.6S238.3,449,236.4,448.5z"/>
		<path class="st32" d="M211.2,551.5c0.1,0,0.2-0.1,0.2-0.2c0,0,0,0,0,0C199,489.3,174,447.2,173.8,446.7c-0.1-0.1-0.2-0.1-0.3-0.1
			c-0.1,0-0.2,0.2-0.1,0.3c0,0,0,0,0,0c0.3,0.4,25.2,42.5,37.6,104.4C210.9,551.5,211.1,551.5,211.2,551.5
			C211.2,551.5,211.2,551.5,211.2,551.5L211.2,551.5z"/>
		<path class="st33" d="M191.5,483.9L191.5,483.9c1.8-0.5,2.7-2.4,2.2-4.1c0-0.1-0.1-0.3-0.1-0.4l-13.3-28.2c-1-1.8-3.2-2.6-5.1-1.9
			l0,0c-1.8,0.5-2.7,2.4-2.2,4.1c0,0.1,0.1,0.3,0.1,0.4l13.3,28.2C187.4,483.9,189.6,484.7,191.5,483.9z"/>
		<path class="st36" d="M188,479.2c1.2,0.7-0.8-4.7-1.1-5.5s3.2,5.2,4.7,4.9c0.7-0.2-2.2-7.4-5.4-14.9l7.4,15.7
			c0.7,1.7,0,3.6-1.7,4.4c-0.1,0.1-0.2,0.1-0.4,0.1l0,0c-1.9,0.8-4.1,0-5.1-1.9l-4.8-10.2C184.4,475.3,187.4,478.9,188,479.2z"/>
		<path class="st37" d="M178.5,450.3c0.8,0.7,1.5,1.5,2,2.5c0.8,1.6,10.6,23.3,9.9,22.7S176.7,451.1,178.5,450.3z"/>
		<path class="st21" d="M209.4,558.1c0,0-15-65.1-39.7-77.3C169.7,480.8,208.4,492.9,209.4,558.1z"/>
		<path class="st35" d="M208.5,558.1c3.5-19.2,16.7-35.2,34.9-42.3c0,0-27.5,14.8-28.4,41.8L208.5,558.1z"/>
		<path class="st34" d="M214.9,558.1c0,0-3-70.8-24-107.5c0,0,19.8,94.6,17.4,107.6L214.9,558.1z"/>
		<path class="st21" d="M210.6,558.2c0,0,2.5-67.9,17.6-98.3l-13.1,98.3L210.6,558.2z"/>
		<path class="st21" d="M211.4,558.2c0,0,4.7-37.8,34.8-53.8c0,0,5.9-0.2,10.9,18.5l-10.4-13c0,0-24.4,15.1-29.9,48.2L211.4,558.2z"
			/>
		<path class="st63" d="M1414.9-5.4c0,0-790.7,158.9-1378.6-0.6l-91.7,1.6c0,0,123.8,97.4,829.7,95.2s697.7-59.1,857.1-88.3
			L1414.9-5.4z"/>
		<path class="st64" d="M1119.9-11.3c0,0-449.5,90.3-783.7-0.3l-52.1,0.9c0,0,70.5,63.1,471.6,54.1c397.9-9,393.7-40.2,487.2-50.2
			L1119.9-11.3z"/>
		<path class="st65" d="M778.1,121.7c26.2,6.7,756.1-4.1,837.2-99.5v56.2c5.1,8.8-187.2,54.2-384.6,49.4
			c65.8-3.3,214.9-25.5,245.8-37.1C1397.1,107.8,978.6,130.5,778.1,121.7z"/>
		<path class="st65" d="M662.9,107.4C534.4,108.3,111.6,104.3,1.3,34l-11.8-4.8V97c0,0,100.6,35.4,344.1,39.5
			c-33.7,2.2-271.2-26.9-332.3-62C163.3,111.6,410.7,115.3,662.9,107.4z"/>
		<path class="st66" d="M1683.4,70.2h-0.7v-0.4c0-3-0.3-6-0.8-9c0.9-0.2,1.8-0.5,2.8-0.8c8-2.6,13.6-7.5,12.5-10.9s-8.5-4-16.5-1.4
			c-1,0.3-1.9,0.7-2.8,1c-6.6-14.1-19.5-24.1-34.8-27c3.4-5.9,5.2-12.7,5.2-19.5c0-12.6-6-24.3-16.2-31.7c3.5-5.8,4.5-11.3,2.1-13.2
			c-2.7-2.1-8.7,1.3-13.7,7.6c-3.4-0.9-6.8-1.4-10.3-1.4c-11.4,0-22.1,5.1-29.3,13.9c-5.1-8.6-14.3-13.9-24.3-13.9
			c-2.7,0-5.5,0.4-8.1,1.2c-9.4-21.3-26.5-38.3-47.9-47.7c0.9-4,0.4-7.3-1.3-7.9s-3.9,1.7-5.5,5.3c-4.8-1.6-9.8-2.9-14.9-3.7
			c0.3-0.8,0.7-1.7,1-2.6c2.6-8.1,2-15.6-1.3-16.7s-8.2,4.6-10.8,12.7c-0.6,1.8-1,3.6-1.3,5.5c-0.7,0-1.3,0-2,0
			c-3.5,0-7,0.2-10.5,0.6c-0.2-4.5-1.8-8-3.7-8s-3.7,4-3.7,8.9v0.2c-26.6,5.4-49.5,22.2-62.6,46c-3.7-1.7-7.7-2.6-11.7-2.6
			c-14.6,0.1-26.8,11.3-28.2,25.8c-9.5-5.6-21-6.5-31.2-2.5c-1.5-5.3-4.4-9-6.7-8.5s-3.2,5.8-1.8,11.6c0.1,0.5,0.2,0.9,0.3,1.3
			c-1.9,1.4-3.7,3-5.3,4.8c-0.1-0.2-0.3-0.5-0.4-0.7c-3.2-5-7.5-8-9.6-6.6s-1.2,6.6,2.1,11.6c0.8,1.2,1.6,2.3,2.6,3.4
			c-2.8,5.3-4.2,11.2-4.2,17.1c0,6,1.5,12,4.3,17.3c-8.1,5.1-13,14-13,23.6c0,0.2,0,0.4,0,0.5c-8.5-1.6-17.4,0.3-24.6,5.1
			c-0.4-0.3-0.7-0.6-1.1-1c-3.9-3-8-4.1-9.3-2.4s0.8,5.3,4.6,8.3c-1.8,1.9-3.3,4-4.6,6.2c-3.3-2-6.3-2.5-7.4-1.2
			c-1.2,1.6,0.8,5.2,4.4,8.1c-1,3.3-1.5,6.7-1.5,10.1c-0.1,18.6,14.8,33.8,33.4,33.9c0,0,0,0,0,0c0.9,0,1.9,0,2.8-0.1
			c4.7,22.7,24.6,39,47.8,39.1c5.3,0,10.5-0.9,15.4-2.5c12.8,23.3,37.3,37.7,63.8,37.8c13.1,0,25.9-3.5,37.1-10.2
			c7.8,25.6,31.4,44.2,59.2,44.2c25.5-0.1,48.3-15.8,57.6-39.5c6.1,2.6,12.6,3.9,19.2,3.9c22.4-0.1,42.1-15,48.2-36.6
			c0.7,0.1,1.3,0.1,2,0.1c16.6-0.1,29.9-13.6,29.8-30.2c0,0,0,0,0,0c0-4.5-1-8.9-2.8-12.9c9.8-4.8,17.7-12.9,22.5-22.7
			c1.3,0.2,2.7,0.3,4.1,0.4c13.8,0.9,25.3-3.1,25.7-9S1697.2,71.1,1683.4,70.2z"/>
		
			<linearGradient id="SVGID_11_" gradientUnits="userSpaceOnUse" x1="-543.9" y1="685.4152" x2="-283.62" y2="685.4152" gradientTransform="matrix(-1 0 0 -1 1069.75 900)">
			<stop  offset="0" style="stop-color:#3C2415"/>
			<stop  offset="1" style="stop-color:#8B5E3C"/>
		</linearGradient>
		<path class="st67" d="M1436.8,126.9c20.1,22.9,25.8,48.7,25.7,72.9c0,9.4,0.1,23.9-0.2,38.2c0.4,10.9,0.6,21.9,0.5,32.8
			c0,19.2-1.2,38.3-3.6,57.4c-0.9,7.3-3.3,14.3-7,20.7c-4.1,6.7-9,12.9-14.7,18.3c-7.1,6.9-14.7,13.3-22.8,19
			c-5.1,3.8-10.8,6.7-16.8,8.8c0.8,0.5,1.8,0.9,2.8,1c8.4,1.7,17.4,1.3,25.9,0.5c9.6-0.9,19.1-2.3,28.7-3.5c9-1.1,17.9-1.8,26.8-0.2
			c4.6,0.8,9,2.1,13.4,3.1c4.5,1,9,1.9,13.6,2.5c19.8,2.6,39.9,2.6,59.9,2.9c7.2,0.1,14.4,0.2,21.5,0c-15.4-5-30.5-11-45.2-17.9
			c-28.9-14-34.4-14.6-45.1-56.9c-12.8-50.3-1.3-94.9,2.5-117.4s35.6-72.4,35.6-72.4l75.2-39l-10.2-11c0,0-51.1,27.1-56.7,25
			s13-33.9,13-33.9L1548,65c0,0-41.9,98.3-43.7,100.8s-6.2,11-12.4,6.8s-4.6-136-4.6-136l-32.2,9.4c0,0,2.8,56.8-0.6,60.2
			s-42.7-25-45.2-30.5s3.7-44.1,3.7-44.1l-8-3.8c0,0-2.2,35.6-5.6,39S1371,47.7,1371,47.7l-6.8,15.3
			C1364.1,62.9,1416.7,104,1436.8,126.9z"/>
		<path class="st68" d="M1816.8,130.7c-0.1-1.7-0.4-3.4-1-5c1-0.1,2-0.4,2.9-0.7c-15.7-9.3-34.2-14.2-53.8-8.7
			c-0.6,0.2-1.2-0.6-0.7-1c2.9-2,4.4-4.7,6.3-7.2c-3.8-1.9-8.3-1.4-12.4-0.3c-0.3,0.2-0.7,0.1-0.8-0.2c-0.2-0.3-0.1-0.6,0.2-0.8
			c3.1-3.2,6.9-5.9,9.6-9.3c-5.9-1.6-11.9-0.3-17.4,1.7c-0.5,0.2-1.1-0.4-0.8-0.8c4.8-5.8,14.2-9.3,16.7-16.3
			c-6.1,0-10.5,2.7-14.7,6.3c-3.4,2.9-6.7,5.8-11.4,7.2c-0.4,0.1-1-0.3-0.8-0.7c0.8-1.7,1.6-3.5,2.1-5.3c0.4-1.3,1.5-4.8,0.3-6
			s-5.7-0.8-7.5-0.5c-2.1,0.5-4.1,1.3-5.8,2.5c-0.3,0.2-0.6,0.1-0.8-0.2c-0.1-0.2-0.1-0.3,0-0.5c2.1-3.9,3.7-9.8-0.7-13.2
			c-4.8-3.8-12-0.4-16.2,2.4c-0.3,0.2-0.7,0.2-0.9-0.1c-3.7-5.8-8.2-19.1-18.7-13.3c-0.3,0.2-0.8,0-0.9-0.3c0-0.1-0.1-0.1-0.1-0.2
			c-0.3-2.5-2.6-4.2-3.9-6.4c-4.4,1.5-8.2,4.3-10.9,8.1c-0.4,0.6-1.4,0.2-1.3-0.5c1.5-5.9,3-11.9,3.3-18c0.3-5.7-0.2-12.7-5.9-16.6
			c-9.8,13.1-2.3,28.5-5.5,42.8c-0.1,0.6-1.1,0.4-1.3,0c-2.8-5.6-10-3.8-14.2-0.5c-0.5,0.4-1.3,0-1.1-0.6c0.5-1.6,0.2-3.2,0.6-4.8
			c-5.6,1-10.3,3.8-14.7,6.8c-0.6,0.4-1.5-0.1-1.1-0.7c2.5-3.7,5.5-7.3,7.2-11.3c0.3-0.8,0.6-1.6,0.8-2.4c0.3-1.3,1-2.4-0.6-2.9
			c-1.9-0.5-4.6,0-6.3,0.7c-6.6,2.5-10.3,8.8-15.3,13c-0.3,0.3-0.8,0.2-1.1-0.1c0,0-0.1-0.1-0.1-0.2c-0.8-3.1-1.3-6.3-1.5-9.5
			c0-2.4-0.3-4.8-0.8-7.1c-1.7-6.4-10.2-8.4-16.8-10c-0.4-0.1-0.7-0.5-0.4-0.8c1.8-2,3.4-4.2,3.6-6.8c0-0.5,0-0.9,0-1.4
			c-0.2-0.9-0.8-1.2-1.8-1c-1.7-0.3-3.5-0.3-5.3,0.1c-0.6,0.1-1.1-0.4-0.8-0.9c2.7-3.5,12.4-9.1,8-13.7c-3.7-3.8-13.1-1.1-17.2,0.9
			c-0.7,0.3-1.3-0.4-0.8-0.9c3.3-3.3,7.7-5.9,9.8-10c-7.4-2.4-15.3-1.7-22.6,0.9c-0.7,0.2-1.3-0.4-0.8-0.9c2.6-2.4,3.9-5.6,5.5-8.6
			c-7.8-2.2-15.4,2.5-21.7,5.8c-0.6,0.3-1.2-0.4-0.8-0.8c5-4.9,10.3-9.9,12.4-16.2c-5.6,0.4-10.9,2.9-14.9,6.9
			c-0.5,0.4-1.3-0.1-0.9-0.6c2-3,3.1-6.5,3.3-10.1c-2.9,2.1-5.4,4.7-7.3,7.7c-0.2,0.3-0.6,0.3-0.9,0.1c-0.1-0.1-0.1-0.1-0.2-0.2
			c-2.4-5.7-3.3-11.9-7.2-17.1c-9.9,9.4-2,23.1-0.3,33.9l0,0c0,0,0,0.1,0,0.1c0.1,0.5-0.8,0.6-1,0.1c-1.8-4.8-9.2-7.2-14.5-8.3
			c-5.1-1-13-1.8-16.9,2.1c-0.3,0.2-0.6,0.2-0.8-0.1c0,0-0.1-0.1-0.1-0.1c-0.4-1.6-1.1-4.3-3.4-4.7c-1.6-0.3-3.2,0.7-4.3,1.4
			c-2.5,1.8-4.7,3.9-6.5,6.3c-0.3,0.4-1.2,0.3-1.2-0.3c0.5-7.8,2-15.6,2.1-23.5s-1-16.5-7.4-22.7c-15.8,15.5-6.2,36.8-2.8,54.6
			c0.1,0.6-0.9,0.8-1.1,0.3c-2.3-5.7-5.6-13.6-14.6-11.1c-0.2,0.1-0.5,0-0.6-0.2c-3.8-5-11-1-14.4,2.3c-0.4,0.4-1.2,0-1-0.5
			c1.2-2.4,0.3-4.6,0-7c-5.1,0.8-9.8,3.2-13.4,6.8c-0.5,0.5-1.3-0.1-1-0.6c4.2-6.9,9.7-13.4,12.9-20.8c1.4-3.3,3.2-8,1.9-11.6
			c-0.4-1.2-0.7-0.8-2.1-0.4c-1,0.3-2,0.6-2.9,1c-1.8,0.7-3.6,1.6-5.3,2.5c-13.6,7.6-21,20.5-30.6,31.2c-0.4,0.4-1.2,0.2-1.1-0.4
			c0.3-1.7,0.8-4.3-1.3-5.3c-1.4-0.7-3.3-0.4-4.8-0.1c-3.6,0.8-6.9,2.4-9.9,4.5c-0.5,0.3-1.2,0-1-0.5c0.8-2.5,0.1-5.3,0-7.9
			c-6.2-0.1-10.9,4.7-13.3,9c-0.2,0.3-0.7,0.3-1,0.1c-0.1-0.1-0.2-0.2-0.2-0.4c0.1-10.5,2.4-21.8-2.9-31.7
			c-9,10.9-13.5,24.2-12,37.4c0.1,0.5-0.7,0.7-1.1,0.4c-6.7-4.8-17-7.3-22.7-0.1c-0.3,0.3-0.7,0.3-1,0.1c-4.4-4.1-9.6-2.1-12.6,2
			c-0.3,0.3-0.7,0.3-1,0.1c0,0-0.1-0.1-0.1-0.1c-1.1-1.5-2.9-2.6-4.5-3.8c-3.3,3.2-4.7,7.5-6.2,11.5c-0.2,0.5-1.1,0.5-1.2,0
			c-1.8-6.4-2.3-13-3.6-19.5c-1.2-6.1-2.8-12.6-7.6-17.5c-9.5,14-2.5,32.8,4.7,46.5c0.3,0.5-0.4,1.1-1,0.6c-1.8-1.3-3.8-2.3-5.9-3.1
			c-1.1,5.5,2,10.6,5.2,15.3c0.4,0.6-0.5,1-1,0.7c-2.4-1.7-8.7-5.9-11.1-2c-1.8,3-0.4,7.4,1.5,10.1c4.3,6,12.4,10,19.7,13.1
			c0.7,0.3,0.2,1.1-0.5,1c-3.9-0.5-8.2-0.5-11.7,1.2c-3.3,1.7-5.6,4.8-6.2,8.4c-0.1,0.4-0.9,0.5-1.2,0.1c-0.9-1.7-2.8-2.2-4.4-3.1
			c-2.8,3.4-3.7,7.2-3.8,11.4c0,0.6-1,0.7-1.2,0.1c-2.3-5.6-3.4-11.5-5.6-17.1c-0.9-2.7-2.3-5.2-4.1-7.4c-0.4-0.5-2.3-2.8-3.2-2.7
			s-1.9,2.2-2.3,2.7c-3,4.7-3.3,10.3-2.6,15.5c1.3,10.5,6.5,22.2,15.4,29.8c0.5,0.4-0.1,1-0.7,0.8c-5.7-2.6-12.6-1.9-14.4,4
			c-0.1,0.4-0.7,0.4-1,0.1c-1.3-1.4-3.1-3.3-5.3-3.6c-3-0.4-4.1,2.3-4.7,4.2c-0.2,0.5-0.9,0.3-1-0.1c-0.7-4.9-1.2-10.1-4-14.5
			c-0.3-0.5-0.6-1.3-1.2-1.6s-0.7,0-1.3,0.7c-0.7,0.8-1.2,1.7-1.6,2.6c-0.8,1.7-1.2,3.5-1.3,5.4c-0.7,7.7,2,16,6,22.9
			c0.2,0.3-0.2,0.6-0.6,0.4c-3.4-1.7-8.2-2.7-9.1,1.7c-0.2,0.8-0.2,1.7-0.1,2.6c3.7,2,7.8,3,12,3c0.5,0,1,0,1.4,0
			c4.4,12.7,18.4,22,35,22c4.8,0,9.5-0.8,14-2.3c6.6,13.9,22.8,23.8,41.8,23.8c20.2,0,37.3-11.2,43-26.6c8.4,4.1,17.6,6.2,27,6.1
			c13,0.1,25.6-4,36-11.8c6.9,1.7,14.1,2.6,21.2,2.6c15.4,0.1,30.5-4,43.7-11.8c6-0.7,11.6-3.2,16.2-7c3.5,4.5,8,8.1,13.2,10.3
			c7.9,3.4,16.6,4.2,25,2.2c3.5,2.8,7.3,5.1,11.4,6.8c19.5,8.5,42.6,4.8,57.2-7.6c5.8,7.6,13.6,13.5,22.4,17.2
			c18.8,8,40.2,7.1,58.2-2.5c3,2.5,6.3,4.6,9.9,6.1c16.4,7.1,36.1,3.4,47.4-8.1c0.6,0.3,1.3,0.6,1.9,0.9c12.9,5.6,28.8,1.4,35.5-9.5
			c1.2-1.9,2.1-4.1,2.6-6.3c3.6-0.6,6.2-2.1,6-3.4C1822.2,131.1,1819.8,130.5,1816.8,130.7z"/>
		<path class="st69" d="M1408.8,136.6c-1.6,0.7-2.6-1.1-2.6-1.1c-1,0.6-2.3,0.4-3-0.5c-0.7-0.8-0.6-2.1,0.2-2.8c0,0,0,0,0.1,0
			c-0.8-0.2-1.3-1-1.1-1.9c0-0.1,0-0.1,0.1-0.2c0.8-1.9,2.9-0.2,2.9-0.2s0.2-2.6,2.2-1.8c1,0.3,1.6,1.3,1.3,2.3
			c0,0.1-0.1,0.2-0.1,0.3c0,0,2.6-0.3,2.6,1.8s-1.8,1.5-1.8,1.5S1410.4,135.9,1408.8,136.6z"/>
		<path class="st69" d="M1295.8,131c-0.7,0.7-1.7,0.7-2.4,0c0,0,0,0,0,0c0,0-1.3,1.6-2.7,0.8s-0.4-2.6-0.4-2.6
			c-0.6,0.1-1.2-0.3-1.3-0.9c0-0.2,0-0.3,0-0.5c0.3-2,2.5-1.3,2.5-1.3s-0.4-2.3,1.5-2.4c0.8-0.1,1.5,0.4,1.6,1.2c0,0.2,0,0.4,0,0.5
			c0,0,2.2-1.3,2.7,0.5c0.3,0.7,0,1.6-0.7,1.9c-0.2,0.1-0.3,0.1-0.5,0.1C1296.6,129.2,1296.5,130.3,1295.8,131z"/>
		<path class="st69" d="M1396.6,121.8c-1.3,0.4-2-1.1-2-1.1c-0.8,0.4-1.9,0.2-2.4-0.6c-0.5-0.7-0.4-1.7,0.3-2.2c0,0,0,0,0.1,0
			c-0.6-0.2-1-1-0.7-1.6c0,0,0-0.1,0-0.1c0.7-1.5,2.3,0.1,2.3,0.1s0.3-2.1,1.8-1.3c0.8,0.3,1.2,1.1,0.9,1.9c0,0.1-0.1,0.2-0.1,0.2
			c0,0,2.1-0.1,2,1.6s-1.5,1-1.5,1S1397.9,121.4,1396.6,121.8z"/>
		<path class="st69" d="M1496.5,132.1c-0.5,0.7-1.5,0.9-2.3,0.4c0,0-0.1-0.1-0.1-0.1c0,0-1.2,1.7-2.6,1.1s-0.5-2.5-0.5-2.5
			s-1.4,0.4-1.3-1.2c0.2-1.9,2.3-1.5,2.3-1.5s-0.5-2.2,1.4-2.5s1.6,1.6,1.6,1.6s2-1.5,2.6,0.2c0.3,0.8,0,1.6-0.8,2
			c-0.1,0-0.2,0.1-0.2,0.1C1497.2,130.3,1497.1,131.4,1496.5,132.1z"/>
		<path class="st69" d="M1333.1,120.9c-1.6,1.2-2.9-0.5-2.9-0.5s-1.7,1.6-3.3,0.3s-0.1-3.2-0.1-3.2c-0.8,0-1.5-0.8-1.4-1.6
			c0-0.1,0-0.3,0.1-0.4c0.5-2.3,3-0.9,3-0.9s-0.2-2.9,2.1-2.5c1,0.1,1.8,1,1.7,2c0,0.2,0,0.3-0.1,0.4c0,0,2.7-1,3.1,1.3
			s-1.6,2-1.6,2C1334.2,118.8,1334,120.1,1333.1,120.9z"/>
		<path class="st69" d="M1316,116c-1.2,0.4-1.8-1-1.8-1c-0.8,0.4-1.7,0.1-2.2-0.6c-0.5-0.6-0.3-1.5,0.3-2c0,0,0,0,0,0
			c-0.6-0.2-0.9-0.9-0.6-1.5c0,0,0-0.1,0-0.1c0.7-1.3,2.1,0.2,2.1,0.2s0.3-1.9,1.7-1.1c0.7,0.3,1.1,1.1,0.8,1.8
			c0,0.1-0.1,0.2-0.1,0.2c0,0,1.9,0,1.8,1.5s-1.4,0.9-1.4,0.9S1317.2,115.7,1316,116z"/>
		<path class="st69" d="M1479.8,121.2c-1.3,0.1-1.7-1.4-1.7-1.4c-0.9,0.2-1.7-0.3-2.1-1.1c-0.4-0.7-0.1-1.5,0.5-1.9
			c0.1,0,0.1-0.1,0.2-0.1c0,0-1.1-0.8-0.4-1.7c0.9-1.2,2.1,0.6,2.1,0.6s0.6-1.8,1.9-0.7s0.4,2.1,0.4,2.1s1.9,0.4,1.6,1.9
			s-1.5,0.6-1.5,0.6S1481,121.1,1479.8,121.2z"/>
		<path class="st69" d="M1362.1,138.8c-1.7,0.8-2.7-1.2-2.7-1.2c-1,0.7-2.4,0.5-3.2-0.4c-0.7-0.9-0.6-2.3,0.3-3c0,0,0,0,0,0
			c-0.8-0.2-1.3-1.1-1.1-1.9c0-0.1,0.1-0.2,0.1-0.2c0.8-2,3.1-0.2,3.1-0.2s0.2-2.7,2.4-1.9c1,0.3,1.6,1.3,1.3,2.3
			c0,0.1-0.1,0.2-0.1,0.4c0,0,2.7-0.3,2.7,1.9s-1.8,1.6-1.8,1.6S1363.8,138.1,1362.1,138.8z"/>
		<path class="st69" d="M1467.8,120.2c-0.5,0.3-1.3,0.2-1.6-0.3c-0.5,0.5-1.3,0.5-1.8,0.1c-0.8-0.8,0-1.7,0-1.7
			c-0.5,0-0.8-0.4-0.7-0.9c0-0.1,0-0.2,0.1-0.2c0.3-1.2,1.7-0.4,1.7-0.4s0-1.6,1.2-1.3c0.6,0,1,0.5,0.9,1.1c0,0.1,0,0.2-0.1,0.3
			c0,0,1.5-0.5,1.7,0.7s-0.9,1.1-0.9,1.1C1468.4,119.1,1468.3,119.8,1467.8,120.2z"/>
		<path class="st69" d="M1379.6,132.1c-1.3,0.2-1.8-1.3-1.8-1.3c-0.9,0.3-1.8-0.1-2.2-0.9c-0.4-0.7-0.2-1.5,0.5-2c0,0,0.1,0,0.1,0
			c-0.6-0.3-0.8-1.1-0.5-1.6c0,0,0,0,0-0.1c0.8-1.3,2.2,0.4,2.2,0.4s0.5-1.9,1.9-0.9c0.7,0.3,1,1.2,0.7,1.9c0,0.1-0.1,0.1-0.1,0.2
			c0,0,2,0.3,1.7,1.8c0,0.5-0.3,0.9-0.8,1c-0.2,0-0.5-0.1-0.6-0.2C1380.6,130.4,1380.9,131.8,1379.6,132.1z"/>
		<path class="st69" d="M1475.2,87c-1.5,0.7-2.4-1-2.4-1c-0.9,0.6-2.1,0.4-2.8-0.4c-0.6-0.8-0.5-1.9,0.3-2.6c0,0,0,0,0,0
			c-0.7-0.2-1.2-1-1-1.7c0-0.1,0-0.1,0.1-0.2c0.7-1.8,2.7-0.2,2.7-0.2s0.2-2.4,2-1.6c0.9,0.2,1.4,1.2,1.2,2.1c0,0.1-0.1,0.2-0.1,0.3
			c0,0,2.3-0.3,2.4,1.6s-1.6,1.4-1.6,1.4S1476.6,86.4,1475.2,87z"/>
		<path class="st69" d="M1377.7,93.3c-0.6,0.6-1.6,0.6-2.2,0c0,0,0,0,0,0c0,0-1.2,1.5-2.5,0.7s-0.3-2.3-0.3-2.3
			c-0.5,0.1-1.1-0.2-1.2-0.8c0-0.2,0-0.4,0-0.5c0.2-1.8,2.3-1.2,2.3-1.2s-0.4-2.1,1.4-2.2c0.7-0.1,1.4,0.4,1.5,1.1
			c0,0.2,0,0.3,0,0.5c0,0,2-1.2,2.4,0.5c0.3,0.7,0,1.4-0.7,1.7c-0.1,0.1-0.3,0.1-0.4,0.1C1378.4,91.6,1378.3,92.6,1377.7,93.3z"/>
		<path class="st69" d="M1463.9,77.9c-1.2,0.4-1.8-1-1.8-1c-0.8,0.4-1.7,0.1-2.2-0.5c-0.5-0.6-0.3-1.6,0.3-2c0,0,0,0,0,0
			c-0.6-0.2-0.9-0.9-0.7-1.5c0,0,0-0.1,0-0.1c0.7-1.3,2.1,0.1,2.1,0.1s0.3-1.9,1.7-1.2c0.7,0.2,1.1,1,0.9,1.7c0,0.1-0.1,0.2-0.1,0.3
			c0,0,1.9,0,1.8,1.5s-1.3,0.9-1.3,0.9S1465.1,77.5,1463.9,77.9z"/>
		<path class="st69" d="M1507.5,99.8c-0.5,0.7-1.4,0.8-2.1,0.4c0,0-0.1-0.1-0.1-0.1c0,0-1,1.6-2.3,1s-0.4-2.2-0.4-2.2
			s-1.3,0.3-1.2-1.1c0.1-1.8,2.1-1.4,2.1-1.4s-0.4-2,1.2-2.3s1.4,1.4,1.4,1.4s1.8-1.4,2.3,0.1c0.3,0.7,0,1.5-0.7,1.8
			c-0.1,0-0.2,0.1-0.3,0.1C1508.1,98.1,1508.1,99.1,1507.5,99.8z"/>
		<path class="st69" d="M1414.6,94.4c-1.5,1.1-2.7-0.5-2.7-0.5s-1.6,1.5-3,0.2s-0.1-2.9-0.1-2.9c-0.8-0.1-1.3-0.7-1.3-1.5
			c0-0.1,0-0.2,0.1-0.3c0.5-2.1,2.8-0.8,2.8-0.8s-0.2-2.6,1.9-2.3c1,0.1,1.7,0.9,1.6,1.9c0,0.1,0,0.3-0.1,0.4c0,0,2.5-0.9,2.8,1.2
			s-1.5,1.9-1.5,1.9C1415.7,92.6,1415.4,93.8,1414.6,94.4z"/>
		<path class="st69" d="M1397.2,78.5c-1.1,0.3-1.7-1-1.7-1c-0.7,0.3-1.6,0.1-2-0.6c-0.4-0.6-0.3-1.4,0.3-1.8c0,0,0,0,0.1,0
			c-0.5-0.2-0.8-0.8-0.6-1.3c0-0.1,0-0.1,0.1-0.2c0.6-1.2,1.9,0.1,1.9,0.1s0.3-1.7,1.6-1c0.6,0.2,1,1,0.7,1.6c0,0.1,0,0.1-0.1,0.2
			c0,0,1.7,0,1.6,1.4s-1.2,0.8-1.2,0.8S1398.3,78.2,1397.2,78.5z"/>
		<path class="st69" d="M1537.9,96c-1.1,0.4-1.7-0.9-1.7-0.9c-0.7,0.4-1.5,0.2-2-0.4c-0.4-0.6-0.3-1.4,0.3-1.9c0,0,0,0,0,0
			c-0.5-0.2-0.8-0.7-0.6-1.3c0-0.1,0-0.1,0.1-0.2c0.6-1.2,2,0,2,0s0.2-1.7,1.6-1.1c0.6,0.2,1,0.9,0.8,1.6c0,0.1-0.1,0.1-0.1,0.2
			c0,0,1.8-0.1,1.7,1.3s-1.3,0.9-1.3,0.9S1539,95.6,1537.9,96z"/>
		<path class="st69" d="M1436.2,84.4c-0.9,0.4-1.5-0.6-1.5-0.6c-0.5,0.3-1.3,0.2-1.7-0.2c-0.4-0.5-0.3-1.2,0.2-1.6c0,0,0,0,0,0
			c-0.4-0.1-0.7-0.6-0.6-1c0,0,0-0.1,0-0.1c0.4-1.1,1.6-0.1,1.6-0.1s0.1-1.4,1.3-1c0.5,0.1,0.9,0.7,0.7,1.2c0,0.1,0,0.1-0.1,0.2
			c0,0,1.4-0.2,1.4,1s-1,0.8-1,0.8C1436.9,83.5,1436.7,84.1,1436.2,84.4z"/>
		<path class="st69" d="M1525.5,88.1c-0.5,0.3-1.1,0.2-1.5-0.3c-0.5,0.4-1.2,0.5-1.7,0.1c-0.8-0.7,0-1.6,0-1.6
			c-0.4,0-0.7-0.4-0.7-0.8c0-0.1,0-0.2,0.1-0.2c0.3-1.1,1.6-0.4,1.6-0.4s0-1.4,1.1-1.2c0.5,0.1,0.9,0.5,0.8,1c0,0.1,0,0.2-0.1,0.2
			c0,0,1.4-0.5,1.5,0.7c0.1,0.4-0.1,0.8-0.5,1c-0.1,0-0.2,0-0.4,0C1526.1,87.2,1526,87.8,1525.5,88.1z"/>
		<path class="st69" d="M1450,88.9c-1.1,0.6-1.8-0.6-1.8-0.6c-0.6,0.5-1.5,0.5-2.1-0.1c-0.5-0.6-0.5-1.5,0.1-2c0,0,0,0,0,0
			c-0.5-0.1-0.9-0.6-0.8-1.2c0-0.1,0-0.1,0-0.2c0.5-1.3,2-0.3,2-0.3s0-1.8,1.5-1.4c0.7,0.1,1.1,0.7,1,1.4c0,0.1,0,0.2-0.1,0.3
			c0,0,1.8-0.4,1.8,1s-1.2,1.1-1.2,1.1C1450.9,87.7,1450.7,88.5,1450,88.9z"/>
		
			<linearGradient id="SVGID_12_" gradientUnits="userSpaceOnUse" x1="-95.3" y1="125.8435" x2="794.74" y2="125.8435" gradientTransform="matrix(1 0 0 -1 0 900)">
			<stop  offset="0" style="stop-color:#1A560B"/>
			<stop  offset="0.22" style="stop-color:#267525"/>
			<stop  offset="0.52" style="stop-color:#38A44D"/>
			<stop  offset="0.99" style="stop-color:#95BE4D"/>
		</linearGradient>
		<path class="st70" d="M783,786.7C666.6,724,444.9,679.8,300.3,678.3C99.1,579.4-87.3,596.5-95.2,689.6l5.6,34.7l-5.8-0.1
			l46.5,212.6L794.7,913C780.7,908.2,764.8,794.9,783,786.7z"/>
		
			<linearGradient id="SVGID_13_" gradientUnits="userSpaceOnUse" x1="434.28" y1="117.6425" x2="1634.52" y2="117.6425" gradientTransform="matrix(1 0 0 -1 0 900)">
			<stop  offset="0.28" style="stop-color:#38A44D"/>
			<stop  offset="1" style="stop-color:#1A560B"/>
		</linearGradient>
		<path class="st71" d="M1634.5,674.7c-234.7-83.6-430.7,74-430.7,74c-71.1,0.1-143-9.8-359.2,18.6
			c-453.5,77.6-339.9,99.3-407.4,93.7l-3,50.9l1181.9,2.5C1615.6,905.7,1634.5,674.7,1634.5,674.7z"/>
	</g>
</g>
<g>
	<defs>
		<rect id="SVGID_14_" x="160" y="-920" width="1600" height="900"/>
	</defs>
	<clipPath id="SVGID_15_">
		<use xlink:href="#SVGID_14_"  style="overflow:visible;"/>
	</clipPath>
	<g class="st72">
		<path class="st73" d="M321.7,543c0,0-2-149.1-184.3-105.8c0,0,82.3-120.3,198-24c0,0-2-120.3-125.5-182.8
			c0,0,112.8-40.9,201.5,182.8c0,0-44.6-228.5-70.1-242.9c0,0,92.8-4.8,104.2,235.7c0,0,14.4-146.7-34.1-235.7
			c0,0,100.7,19.3,68.2,228.5c0,0,45.9-192.4,167.5-173.2c0,0-129.2,141.9-132.3,235.7c0,0,71.5-93.8,153.8-64.9
			c0,0-148.9,84.2-153.8,166l-87.3,60.1L321.7,543z"/>
		<path class="st74" d="M1613,549.5c0,0-239.4,3-247-47.1s199.3-8.7,283.8,23.8c-257.3-155.7-122.5-64.6-197.1-120.2
			s-14.1-105.4,115.6-25c107.2,82.2,138.7,106.2,138.7,106.2S1617,363,1578.2,295.3s34.1-135.3,121.3-21.6c6.5-43.5,7-47.7,7-47.7
			s-7.5,65-1.4-10.4s92.3-50.5,68.2,63.5c40.2-48.9-13.9,8.5,45.3-44.4s148.2-28.6,78.7,76.5s-47.8,75.1-47.8,75.1l-49.9,67
			l148.3-89.1c103-52.8,156.8-24.8,45.6,63.7c-73.3,49.1-136,87.9-136,87.9s67.3-16.1,176.1-46.3c108.8-30.1,121.2,43.5-4.2,70.1
			C1878.3,542,1613,549.4,1613,549.5"/>
		<path class="st75" d="M1462.6,371.5c0,0,205.1,147.3,231.3,158.9C1693.9,530.4,1484.2,370.6,1462.6,371.5"/>
		<path class="st75" d="M1640.3,538.8c0,0-242.3-25.4-247.6-28.8S1614.6,529.5,1640.3,538.8"/>
		<path class="st75" d="M1652.2,332.3l-52.3-21.6C1599.9,310.7,1628.1,312.9,1652.2,332.3"/>
		<path class="st75" d="M1519.1,403.4c0,0-28.4-32.3-30.4-40.3S1515.2,380.5,1519.1,403.4"/>
		<path class="st75" d="M1554,436.5l-66.8-13.3C1487.2,423.2,1522.1,422.7,1554,436.5"/>
		<path class="st75" d="M1586.7,450.9c0.2,0.1-16.2-26.5-12.7-39.9s7.2,27.5,12.9,40"/>
		<path class="st75" d="M1496.7,492.1l68.5,34.4C1565.1,526.6,1537,522.8,1496.7,492.1"/>
		<path class="st75" d="M1464.7,515.4c0,0-48-18.2-55.4-25.2S1457.2,505.5,1464.7,515.4"/>
		<path class="st75" d="M1524.8,526.3c0,0-64.5,10.5-78.7,10.4S1484.5,526.1,1524.8,526.3"/>
	</g>
</g>
</svg>
