<?xml version="1.0" encoding="utf-8"?>
<!-- Generator: Adobe Illustrator 25.2.3, SVG Export Plug-In . SVG Version: 6.00 Build 0)  -->
<svg version="1.1" id="Layer_1" xmlns="http://www.w3.org/2000/svg" xmlns:xlink="http://www.w3.org/1999/xlink" x="0px" y="0px"
	 viewBox="0 0 1600 900" style="enable-background:new 0 0 1600 900;" xml:space="preserve">
<style type="text/css">
	.st0{clip-path:url(#SVGID_2_);}
	.st1{fill:url(#SVGID_3_);}
	.st2{opacity:0.65;}
	.st3{fill:#E6F6FF;}
	.st4{fill:#FFFFFF;}
	.st5{fill:#ADE0FF;}
	.st6{fill:#D9F1FF;}
	.st7{fill:url(#SVGID_4_);}
	.st8{fill:url(#SVGID_5_);}
	.st9{fill:url(#SVGID_6_);}
	.st10{fill:url(#SVGID_7_);}
	.st11{fill:url(#SVGID_8_);}
	.st12{fill:url(#SVGID_9_);}
	.st13{fill:url(#SVGID_10_);}
	.st14{fill:url(#SVGID_11_);}
	.st15{fill:#68BC45;}
	.st16{fill:url(#SVGID_12_);}
	.st17{fill:url(#SVGID_13_);}
	.st18{fill:url(#SVGID_14_);}
	.st19{fill:url(#SVGID_15_);}
	.st20{fill:#995145;}
	.st21{fill:#633D35;}
	.st22{fill:url(#SVGID_16_);}
	.st23{fill:#6ABC46;}
	.st24{fill:url(#SVGID_17_);}
	.st25{fill:url(#SVGID_18_);}
	.st26{fill:url(#SVGID_19_);}
	.st27{fill:url(#SVGID_20_);}
	.st28{fill:url(#SVGID_21_);}
	.st29{fill:url(#SVGID_22_);}
	.st30{fill:url(#SVGID_23_);stroke:url(#SVGID_24_);stroke-width:0.26;stroke-miterlimit:10;}
	.st31{fill:url(#SVGID_25_);}
	.st32{fill:url(#SVGID_26_);}
	.st33{fill:url(#SVGID_27_);}
	.st34{fill:url(#SVGID_28_);}
	.st35{fill:url(#SVGID_29_);}
	.st36{fill:url(#SVGID_30_);}
	.st37{fill:url(#SVGID_31_);}
	.st38{fill:url(#SVGID_32_);}
	.st39{fill:url(#SVGID_33_);}
	.st40{fill:url(#SVGID_34_);}
	.st41{fill:url(#SVGID_35_);}
	.st42{fill:#6B574A;}
	.st43{fill:#604E43;}
	.st44{fill:#684528;}
	.st45{fill:#5FDE85;}
	.st46{fill:url(#SVGID_36_);stroke:url(#SVGID_37_);stroke-width:0.25;stroke-miterlimit:10;}
	.st47{fill:url(#SVGID_38_);stroke:url(#SVGID_39_);stroke-width:0.25;stroke-miterlimit:10;}
	.st48{fill:#32965B;}
	.st49{fill:url(#SVGID_40_);stroke:url(#SVGID_41_);stroke-width:0.25;stroke-miterlimit:10;}
	.st50{fill:url(#SVGID_42_);}
	.st51{fill:url(#SVGID_43_);}
</style>
<g>
	<defs>
		<rect id="SVGID_1_" width="1600" height="900"/>
	</defs>
	<clipPath id="SVGID_2_">
		<use xlink:href="#SVGID_1_"  style="overflow:visible;"/>
	</clipPath>
	<g class="st0">
		
			<linearGradient id="SVGID_3_" gradientUnits="userSpaceOnUse" x1="759.3809" y1="-300.78" x2="764.9009" y2="1165.74" gradientTransform="matrix(1 0 0 -1 0 900)">
			<stop  offset="0.25" style="stop-color:#E6FFFF"/>
			<stop  offset="0.64" style="stop-color:#A0DCFF"/>
			<stop  offset="0.93" style="stop-color:#68C0FF"/>
		</linearGradient>
		<rect x="-121.5" y="-49.6" class="st1" width="1767.2" height="1042.8"/>
		<g class="st2">
			<path class="st3" d="M1310.1,216.2c-2.3,4.2-5.4,8-9,11.1c-11.6,10.4-28.9,15.4-46.3,14.1l-9.4-0.7l-1.7,1.8
				c-15.2,15.7-40.6,23.3-64.8,18.6c-7.4-1.4-15.2-3.2-21.8-6.4c-6-2.9-12.2-8-12.6-13.8c-1.6,2.3-4.7,4.7-6.2,6
				c-13.4,10.6-28.2,10.3-45.4,9.3c-18.8-1.1-39.6-9.2-40.1-26.1c0-1-0.1-1.7-0.3-3.4c-8.4,4.2-14.4,8.8-24.8,10.4
				c-8.8,1.4-17.8,0.7-26.3-2c-6.5-2.1-12.2-5.9-16.7-11c-2.2-2.5-3.9-5.4-5.1-8.6c-1.1-3.1-1.5-6.5-1-9.8
				c1.8-12.2,13.9-24.8,29.2-23c-5.9-11.4,1.1-23.5,12.4-32s27.9-14,42-8.7c1.6-19.3,24-33.2,48.2-35.1s49,11.6,55.3,30.3
				c33.4-12.4,78.4,5.8,85.6,34.4c22.9-10.3,55.1,3.1,61.5,23.1c0.4,1.3,0.8,2.7,0.9,4.1C1314.3,204.9,1313.1,211,1310.1,216.2z"/>
			<path class="st4" d="M1312.6,194.8c-7.3-12.7-23.9-19.8-37.7-20.6c-20.2-1.2-28,6.2-28,6.2c-1.6-16-10.9-30.8-40.4-38.2
				s-45,4.9-45,4.9c-1.5-11.7-10-21.6-22-28.1c-13.7-7.5-33-7.7-47.8-2.3c-16.1,5.9-21.3,17.8-20.3,31.7c-6.2-2.5-15.2-2.1-16.7-2.3
				c-13.2-1.1-26.6,4.9-34.8,12.8c-3.9,3.7-6.8,8.1-7.8,12.9c-0.4,1.8,0.3,11,3.4,14.8c-6.4,0-12.7,1.2-18.7,3.7
				c-15.5,6.2-17.4,24.8-17.3,25.3c-1.1-3.1-1.5-6.5-1-9.8c1.8-12.2,13.9-24.8,29.2-23c-5.9-11.4,1.1-23.5,12.4-32
				c11.3-8.5,27.9-14,42-8.7c1.6-19.3,24-33.2,48.2-35.1s49,11.6,55.3,30.3c33.4-12.4,78.4,5.8,85.6,34.4
				C1274.1,161.4,1306.3,174.8,1312.6,194.8z"/>
			<path class="st4" d="M1117.9,154.1c0,0,40.1-29.9,80.8,0.6C1198.7,154.7,1163.4,139.8,1117.9,154.1z"/>
			<path class="st4" d="M1057.3,186c0,0,47.1-38.3,94.8,0.7C1152.1,186.8,1110.7,167.8,1057.3,186z"/>
			<path class="st4" d="M1215.9,186.1c0,0,32.3-24.1,65.1,0.5C1281,186.6,1252.6,174.7,1215.9,186.1z"/>
			<path class="st4" d="M1018.5,153.2c29.5-16,65.1-1.1,65.1-1.1C1050.8,127.5,1018.5,153.2,1018.5,153.2z"/>
			<path class="st5" d="M1310.1,216.2c-2.3,4.2-5.4,8-9,11.1c-11.6,10.4-28.9,15.4-46.3,14.1l-9.4-0.7l-1.7,1.8
				c-15.2,15.7-40.6,23.3-64.8,18.6c-7.4-1.4-15.2-3.2-21.8-6.4c-6-2.9-12.2-8-12.6-13.8c-1.6,2.3-4.7,4.7-6.2,6
				c-13.4,10.6-28.2,10.3-45.4,9.3c-18.8-1.1-39.6-9.2-40.1-26.1c0-1-0.1-1.7-0.3-3.4c-8.4,4.2-14.4,8.8-24.8,10.4
				c-8.8,1.4-17.8,0.7-26.3-2c-6.5-2.1-12.2-5.9-16.7-11c15.2,2.4,52.2,9.6,71.3-5.5c-1.3,1,9.6,10.1,10.4,10.7
				c11.3,8.3,26.8,11,41.8,10.4c7.7-0.4,15.3-1.5,22.8-3.3c5.4-1.3,10.5-3.5,15.2-6.6c7.8,11.1,33,18.4,63.7,11.1
				c0,0,21.8-4.9,29.5-18.5C1239.2,222.2,1280.9,231.2,1310.1,216.2z"/>
			<path class="st5" d="M1214.3,212.4c0,0,32,20.5,68.2,0C1282.5,212.4,1249.5,250.9,1214.3,212.4z"/>
			<path class="st5" d="M1020.8,212.6c0,0,27.7,12.6,59.1,0C1079.9,212.6,1051.3,236.3,1020.8,212.6z"/>
			<path class="st5" d="M1101.7,217.3c0,0,43.4,25.3,92.5,0C1194.1,217.3,1149.3,264.8,1101.7,217.3z"/>
		</g>
		<g class="st2">
			<path class="st3" d="M306.7,208.8c-15.8,10.5-26.8,9.6-40.5-3.5c-14.6,14.5-24.6,17.3-44.7,12.5c-11.9,13-26.3,11.3-34.8-4.1
				c-12.9,15.3-18.4,16.9-37.6,11.8C129,240,119,239.8,99.7,224.2c-14.3,0.1-13.3-13.4-7.2-20.1c4.1-4.5,10.5-5.9,16.3,1.6
				c-2-16,35.5-23,39.4-7.4c-3.4-16.3,3.9-25.8,20.5-26.8c-2.9-4.3-5.1-8.9-6.6-13.8c-11.9-39,32.7-73.6,69.8-44.7
				c30.5-17.1,64.9,1.5,70,32.5c0.9,5.5,0.9,11,0,16.5c17.2-9.8,29.4-4.3,35.6,5.9l0,0C348.4,186.1,340.3,219.4,306.7,208.8z"/>
			<path class="st4" d="M301.8,145.5c-3.9-5.9-7.1-20.4-26.9-26.4c-34.1-10.4-66.1,21.1-75.8,38.6c1.9-16,18.6-35.2,25.8-39.3
				c-62.3-22.7-63,39.3-63,39.3l0,0c-11.9-39,32.7-73.6,69.8-44.7C262.2,95.9,296.7,114.5,301.8,145.5z"/>
			<path class="st5" d="M306.7,208.8c-15.8,10.5-26.8,9.6-40.5-3.5c-14.6,14.5-24.6,17.3-44.7,12.5c-11.9,13-26.3,11.3-34.8-4.1
				c-12.9,15.3-18.4,16.9-37.6,11.8C129,240,119,239.8,99.7,224.2c-14.3,0.1-13.3-13.4-7.2-20.1c0,0-6,18.7,11.8,15.7
				c17.2-2.9,24.2-11.3,24.6-11.8c-2.9,6-12.2,14.2-17.2,17.8c5.7,3.3,18.2,7.6,36.5-6.7c10.7,0.6,26.1-5.2,37.3-16.4
				c-11.4,3-26-7.5-27.5-12c17,6,35.3,8.3,70.8-7.9c-11.1,8.6-25.6,20.6-38,23.2c3.6,10.6,18.4,16.5,28.6,5.1
				c11.1,3.8,28.2,4.8,44.8-12.2c12.8,6.8,31.3,11.2,39.6-0.6c-8.7,1-30.6-1.4-39.6-16.4c15.8,8.3,39.3,1.8,56.1-15
				c-0.4,8.4-4.9,16.7-9.8,20c6.7,2.8,29.7-3.5,27-19.1C348.4,186.1,340.3,219.4,306.7,208.8z"/>
			<path class="st6" d="M211.3,159.4c-1-2.5,2.6-9,5-10.9c2.8-2.1,8.3-1.8,10,1.7c-1-4.8,1.1-9.7,5.3-12.3c2.5-1.7,9.4-5.4,10.8-0.2
				c-0.5-4.3,10.3-9.4,13.8-10.4c3-0.8,11.4,0.3,8.7,5.1c1.7-0.2,3.1-1.3,4.8-1.7c2.8-0.7,5.7-0.7,8.5-0.1c2.9,0.6,6.8,1.7,6.7,5.2
				c0,1.1-1.6,2.7-1.1,3.8c0.3,0.7,1.2,0.1,1.5,0.6c2.1,2.6,3.3,4.8,2.5,8.4c-1.2,5.8-8.4,12.4-14.8,10.4c-2.8-0.9-4.2-5.8-6.2-8.3
				c-2,7.4-12.5,6.3-18,5c-3.2-0.8-5.7-3.4-9-2.6c-3,0.7-6.1,4.1-7,7c-3.5-0.6-6.9-2.6-10.6-2c-4.3,0.7-4.6,3.7-7.4,6.1
				c-1.9,1.6-0.9,0.2-2.8-0.8s-4.5-0.2-6.4-0.5c0.3-0.1,0.7-0.1,1.1-0.2L211.3,159.4z"/>
			<path class="st6" d="M169.4,146.9c-0.1-4.5,1.4-3.9,4.6-5.6c2.7-1.5,3.8-5.6,6-8.1c1.3-1.5,7.5-3.9,6.4,0.1
				c-0.4-5.9,10.4-12,15.5-9.9c2.9,1.2,3.3,4.5,1.7,6.8c-2.6-1.3-8.2-0.7-10,1.8c-2,2.7-0.1,3.7-3.1,4.9s-4.5,0.7-6.4,3.6
				c-2.1,3.3-0.1,4.1-0.4,7.2c-3-0.4-5.4,0-6.5,3.3c-0.8,2.3,0.2,2.9,0.6,5.2c0.3,1.9-0.1,3.4,1.1,5.2c1,1.5,2.6,2.4,3.3,4.1
				c-3.3,1.3-8.5-3.7-9.8-6.2C170.5,155.4,169.5,151.2,169.4,146.9z"/>
		</g>
		
			<linearGradient id="SVGID_4_" gradientUnits="userSpaceOnUse" x1="-1057.333" y1="-500.7009" x2="736.0769" y2="486.4091" gradientTransform="matrix(1 0 0 -1 0 900)">
			<stop  offset="0" style="stop-color:#76CCD2"/>
			<stop  offset="0" style="stop-color:#78BBCE"/>
			<stop  offset="0" style="stop-color:#7BA5C8"/>
			<stop  offset="0.26" style="stop-color:#78A8C6"/>
			<stop  offset="0.33" style="stop-color:#75ABC4"/>
			<stop  offset="0.34" style="stop-color:#75ABC4"/>
			<stop  offset="0.56" style="stop-color:#87C7CA"/>
			<stop  offset="0.69" style="stop-color:#8DD1CC"/>
		</linearGradient>
		<path class="st7" d="M-763.9,504.4c66.9-34.8,136.9-63.4,209.1-85.5c157.3-47.7,287.2-50.5,389.9-46c86.3,3.7,270,17.6,756.5,161
			c314,92.5,579.8,187.6,579.8,187.7c0,0,0,0.1-0.1,0.1l0.1,200.3l-2033.3-44V545.1L-763.9,504.4z"/>
		
			<linearGradient id="SVGID_5_" gradientUnits="userSpaceOnUse" x1="2232.9844" y1="306.1635" x2="2296.3843" y2="567.2335" gradientTransform="matrix(-0.78 0 0 -1 1943.26 900)">
			<stop  offset="0" style="stop-color:#A3513F"/>
			<stop  offset="8.000000e-02" style="stop-color:#9F513F"/>
			<stop  offset="0.18" style="stop-color:#915040"/>
			<stop  offset="0.27" style="stop-color:#7B4F40"/>
			<stop  offset="0.37" style="stop-color:#5D4E41"/>
			<stop  offset="0.47" style="stop-color:#364C43"/>
			<stop  offset="0.49" style="stop-color:#2D4C43"/>
		</linearGradient>
		<path class="st8" d="M192.9,403.3c0,0-13,9.7-12.7,23.9c0,2.5-0.1,10.1,4.3,13.4c2.1,1.5,4.8,1.9,7.3,1.2c6.9-1.8,11-11.6,15-21.1
			c3.3-7.8,4.8-13.9,8.7-14.6c1-0.3,2.1,0,2.9,0.7c2.9,3.2-2.1,16.3-7.7,25.6c-4.4,7.3-8.3,10.6-7.3,15c0.6,2.3,2.2,4.2,4.2,5.4
			c2.5,1.4,5.3,0.9,9.3-0.9c5.8-2.7,10.9-6.6,15.1-11.4c8.4-10.2,16-21.1,22.6-32.6l3.4,3.9l-6.3,12.2c0.8-1.5,4.5-8.2,11.6-10
			c2.4-0.6,4.9-0.6,7.3,0c-5.4,2.3-10,5.9-13.6,10.6c-4.9,6.4-5.1,11.5-10.2,20.6c-3.1,5.7-7,11-11.6,15.6
			c-11.7,11.2-27.4,10.9-35.3,10c-4.2,0.5-8.2,2.4-11.1,5.6c-6.8,7.7-5.4,20.4-3.4,35.7c3.2,25,13.2,55.5,17.9,61.8
			c4.4,5.9-51.9,13.9-67,8.5c-9.9-0.1-14.2-3.7-16.2-6.6c-12.4-17.7,23.4-56.3,13.2-100.5c-1.1-4.8-4.7-20.5-15-25
			c-6-2.7-8.8,1-17.4,0c-16.7-2-27.6-18.6-28.5-20c-8.5-13.3-11-32.5-11-32.5l0,0l7.2,1.2c0.3,3.4,2.3,21.1,13.9,27.9
			c1.4,0.8,7.7,4.6,11.6,1.5c5.4-4.3,2.1-18.8,1.5-20.2c-2.3-5.1-7.8-15.1-7.8-15.1l17.9,2.6c-0.8,12.6,3,23.6,10.3,28.2
			c1,0.6,6.6,4.1,11,1.5c5.4-3.2,7.7-14.5,3.5-27.7l6.6-2.8c0,0,4,44,10.1,48.5c10.5,7.8,18.2-18.8,15.5-45.8h7.8
			c0,0-5.1,29.5,1.2,18.9s12.4-13.3,12.4-13.3l0,0"/>
		
			<linearGradient id="SVGID_6_" gradientUnits="userSpaceOnUse" x1="2340.8936" y1="511.7232" x2="2416.1836" y2="589.8932" gradientTransform="matrix(-0.78 0 0 -1 1943.26 900)">
			<stop  offset="0" style="stop-color:#0D5F3F"/>
			<stop  offset="0.16" style="stop-color:#07724A"/>
			<stop  offset="0.28" style="stop-color:#018455"/>
			<stop  offset="0.41" style="stop-color:#24995C"/>
			<stop  offset="0.56" style="stop-color:#43AC62"/>
			<stop  offset="0.68" style="stop-color:#56B766"/>
			<stop  offset="0.76" style="stop-color:#5DBB67"/>
		</linearGradient>
		<path class="st9" d="M123.3,340c0,0-13.1-7.6-33.8-7.5s-43.8,16.8-37.4,27.5s10.3,16.8,38.9,16.7S152.2,360.4,123.3,340z"/>
		
			<linearGradient id="SVGID_7_" gradientUnits="userSpaceOnUse" x1="68.9145" y1="568.6758" x2="275.079" y2="568.6758" gradientTransform="matrix(1 0 0 -1 0 900)">
			<stop  offset="4.000000e-02" style="stop-color:#0D5E3F"/>
			<stop  offset="0.45" style="stop-color:#0D6F4F"/>
			<stop  offset="0.62" style="stop-color:#0C7455"/>
			<stop  offset="0.75" style="stop-color:#0A7A5D"/>
		</linearGradient>
		<path class="st10" d="M128.5,285.8c-55.1,19-60.6,41.8-59.4,52.2c0,0-0.1,17.8,56.8,35.8l0,0c0,0,33.3,14.7,95,7
			c18.7-2.4,49.5-11.7,53.8-32.5c3.1-15.3-9.7-30.9-14.3-36.5C222.4,265.7,147,281.4,128.5,285.8z"/>
		
			<linearGradient id="SVGID_8_" gradientUnits="userSpaceOnUse" x1="2003.6935" y1="617.8465" x2="2176.7737" y2="811.8865" gradientTransform="matrix(-0.78 8.000000e-02 -0.11 -0.99 1809.99 834.52)">
			<stop  offset="0" style="stop-color:#0D5F3F"/>
			<stop  offset="0.27" style="stop-color:#157D66"/>
			<stop  offset="0.43" style="stop-color:#198A77"/>
			<stop  offset="0.76" style="stop-color:#23AB8C"/>
		</linearGradient>
		<path class="st11" d="M66,264.2c-52.8,24.7-55.8,47.8-53.6,58c0,0,1.8,17.7,60.2,29.5l0,0c0,0,34.7,11.1,95.1-3.1
			c18.3-4.3,48-16.8,50.1-37.9c1.5-15.5-12.9-29.6-18.1-34.7C157.3,234.4,83.9,257.9,66,264.2z"/>
		
			<linearGradient id="SVGID_9_" gradientUnits="userSpaceOnUse" x1="2088.1931" y1="474.0665" x2="2168.9231" y2="574.7565" gradientTransform="matrix(-0.78 0 0 -1 1943.26 900)">
			<stop  offset="0" style="stop-color:#0D5F3F"/>
			<stop  offset="0.16" style="stop-color:#07724A"/>
			<stop  offset="0.28" style="stop-color:#018455"/>
			<stop  offset="0.41" style="stop-color:#24995C"/>
			<stop  offset="0.56" style="stop-color:#43AC62"/>
			<stop  offset="0.68" style="stop-color:#56B766"/>
			<stop  offset="0.76" style="stop-color:#5DBB67"/>
		</linearGradient>
		<path class="st12" d="M331.5,372.7c0,0,2.9-14.2-10.3-26.5c-7.4-6.9-30.5-25.7-55.4-6.4c-28.5,22.1-59.3,46.8-16.1,48.9
			S327,391.3,331.5,372.7z"/>
		
			<linearGradient id="SVGID_10_" gradientUnits="userSpaceOnUse" x1="2118.3569" y1="447.0426" x2="2199.0872" y2="547.7227" gradientTransform="matrix(-0.78 0 0 -1 1943.26 900)">
			<stop  offset="0" style="stop-color:#0D5F3F"/>
			<stop  offset="0.16" style="stop-color:#07724A"/>
			<stop  offset="0.28" style="stop-color:#018455"/>
			<stop  offset="0.41" style="stop-color:#24995C"/>
			<stop  offset="0.56" style="stop-color:#43AC62"/>
			<stop  offset="0.68" style="stop-color:#56B766"/>
			<stop  offset="0.76" style="stop-color:#5DBB67"/>
		</linearGradient>
		<path class="st13" d="M307.9,399.6c0,0,2.9-14.2-10.3-26.5c-7.4-6.9-30.5-25.7-55.4-6.4c-28.5,22.1-59.3,46.8-16.1,48.9
			S303.4,418.3,307.9,399.6z"/>
		
			<linearGradient id="SVGID_11_" gradientUnits="userSpaceOnUse" x1="2048.3374" y1="444.5247" x2="2129.0676" y2="545.2047" gradientTransform="matrix(-0.78 0 0 -1 1943.26 900)">
			<stop  offset="4.000000e-02" style="stop-color:#0D5E3F"/>
			<stop  offset="0.45" style="stop-color:#0D6F4F"/>
			<stop  offset="0.62" style="stop-color:#0C7455"/>
			<stop  offset="0.75" style="stop-color:#0A7A5D"/>
		</linearGradient>
		<path class="st14" d="M362.6,402.3c0,0,2.9-14.2-10.3-26.5c-7.4-6.9-30.5-25.7-55.4-6.4c-28.5,22.1-59.4,46.8-16.1,48.9
			S358.1,421,362.6,402.3z"/>
		<path class="st15" d="M22.9,392.6c0,0,14.6,4.5,79.4,5.1l-0.1-59.8c-1.5-0.5-12.7-3.5-40.8,6.5c-34.2,12.2-64.2,38.2-42,47"/>
		
			<linearGradient id="SVGID_12_" gradientUnits="userSpaceOnUse" x1="-4224.2524" y1="488.1874" x2="-4280.2422" y2="601.6774" gradientTransform="matrix(0.78 0 0 -1 3327.9099 900)">
			<stop  offset="0" style="stop-color:#0D5F3F"/>
			<stop  offset="5.000000e-02" style="stop-color:#07724A"/>
			<stop  offset="9.000000e-02" style="stop-color:#018455"/>
			<stop  offset="0.25" style="stop-color:#24995C"/>
			<stop  offset="0.42" style="stop-color:#43AC62"/>
			<stop  offset="0.57" style="stop-color:#56B766"/>
			<stop  offset="0.67" style="stop-color:#5DBB67"/>
		</linearGradient>
		<path class="st16" d="M-18,399.6c0,0,14.6,4.5,79.4,5.1l-0.1-59.8c-1.5-0.5-12.7-3.5-40.8,6.5c-34.2,12.2-64.2,38.1-42,47"/>
		<path class="st15" d="M203.6,410.1c-6.1,1-7.2,0.6-31.1,0.6c-5.1,0-26.7,0-70.2-1.6c-18.3-0.7-45.8-5.5-53.3-9.4
			c-2.5-1.3-7.5-4.5-7.7-13.2c-0.4-19.9,14.7-31.3,19.5-36.9c4.4-5.2,15.7-11.5,18.7-12.9c36.3-16.9,65.8-22,65.8-22
			c7.1-1.9,62.7-15.6,94.5,22.8c2.9,3.5,20.9,25,15.6,43.7C249.3,402.8,216,408.1,203.6,410.1z"/>
		
			<linearGradient id="SVGID_13_" gradientUnits="userSpaceOnUse" x1="2286.2415" y1="464.2502" x2="2339.9414" y2="638.2202" gradientTransform="matrix(-0.78 0 0 -1 1943.26 900)">
			<stop  offset="0" style="stop-color:#0D5F3F"/>
			<stop  offset="0.16" style="stop-color:#07724A"/>
			<stop  offset="0.28" style="stop-color:#018455"/>
			<stop  offset="0.41" style="stop-color:#24995C"/>
			<stop  offset="0.56" style="stop-color:#43AC62"/>
			<stop  offset="0.68" style="stop-color:#56B766"/>
			<stop  offset="0.76" style="stop-color:#5DBB67"/>
		</linearGradient>
		<path class="st17" d="M201.2,410.3c-6.1,1-7.2,0.6-31.1,0.6c-5.1,0-26.7,0-70.2-1.6c-18.3-0.7-45.8-5.5-53.3-9.4
			c-2.5-1.3-7.5-4.5-7.7-13.2c-0.4-19.9,14.7-31.3,19.5-36.9c4.4-5.2,15.7-11.5,18.7-12.9c36.3-16.9,65.8-22,65.8-22
			c7.1-1.9,62.7-15.6,94.5,22.8c2.9,3.5,20.9,25,15.6,43.7C247,403,213.6,408.3,201.2,410.3z"/>
		
			<linearGradient id="SVGID_14_" gradientUnits="userSpaceOnUse" x1="-104.9771" y1="469.2526" x2="2305.083" y2="-76.1474" gradientTransform="matrix(1 0 0 -1 0 900)">
			<stop  offset="0" style="stop-color:#76CCD2"/>
			<stop  offset="0" style="stop-color:#78BBCE"/>
			<stop  offset="0" style="stop-color:#7BA5C8"/>
			<stop  offset="0.17" style="stop-color:#7EA8C7"/>
			<stop  offset="0.32" style="stop-color:#89B0C5"/>
			<stop  offset="0.33" style="stop-color:#8AB1C5"/>
			<stop  offset="0.48" style="stop-color:#88B6C6"/>
			<stop  offset="0.65" style="stop-color:#82C4CA"/>
			<stop  offset="0.73" style="stop-color:#7ECDCC"/>
			<stop  offset="0.77" style="stop-color:#80CCC3"/>
			<stop  offset="0.82" style="stop-color:#86C8AB"/>
			<stop  offset="0.9" style="stop-color:#90C283"/>
			<stop  offset="0.98" style="stop-color:#9DBA4C"/>
			<stop  offset="1" style="stop-color:#A0B841"/>
		</linearGradient>
		<path class="st18" d="M320.3,665.7c106.1-45,305.1-116.9,575-179.5c396.9-92.1,798-30.1,799-30.1l0,0c0,0,0,13,0.1,25.7
			c0,18.7,0,32.7-0.1,39.1c-0.2,31.3,0,88.9,0,120.2c0.1,38.6,0.1,98.5,0,191.1H-18.9C91.1,770.5,204.3,714.9,320.3,665.7z"/>
		
			<linearGradient id="SVGID_15_" gradientUnits="userSpaceOnUse" x1="1232.9163" y1="277.4436" x2="1268.3962" y2="423.5536" gradientTransform="matrix(1 0 0 -1 0 900)">
			<stop  offset="0" style="stop-color:#82533E"/>
			<stop  offset="0.38" style="stop-color:#585440"/>
			<stop  offset="0.52" style="stop-color:#485441"/>
		</linearGradient>
		<path class="st19" d="M1238.7,517.8c19,11.8,4.1,41.5-9.8,10.7c-2.8-5.5-3.6-10.5-8.3-8.6c-2.1,2,1.5,10.1,5.5,15.8
			c3.1,4.5,5.9,6.5,5.2,9.3c-2.5,4.8-5,4.3-9.6,2.8c-14.6-6.8-19.9-18.4-26.8-27.2l-2.4,2.4l4.5,7.6c-0.5-2.4-8.6-8.2-13.4-6.2
			c12.6,3.2,15.2,21.8,25.1,28.9c20.4,17.4,52.9-16.4,26.9,62.1l38.5,0.2c4.7,1.7,13.4,4.3,16,1c1.3-1.7,0.5-4.2,0.1-5.4
			c-4.3-14.2-7.6-25.1-8.9-34c-1.1-10.6-1.8-23.1,10.7-30.4c4.3-1.7,6.3,0.6,12.4,0c21-2.9,26.8-24.2,28.1-32.5l-5.1,0.8
			c-2.5,25.5-34,25.7-13.7-3.6l-12.8,1.6c2.8,21.2-25.9,28.2-17.6,1.3l-4.7-1.7c0,0-2.9,27.2-7.2,30c-7.4,4.8-13-11.6-11-28.3h-5.5
			c2.8,20.7,2.6,12.5-9.7,3.5"/>
		<path class="st20" d="M1280.6,579.3c-10.4,2.9-18.3,22-16.4,37.4l26.3-3.2C1285.9,599.7,1284.6,590.4,1280.6,579.3z"/>
		<path class="st21" d="M1278,604.1c-0.9,0-1.8-0.2-2.6-0.7c-0.4-0.2-0.7-0.5-1-0.9c-0.4-0.4-0.5-0.9-0.5-1.4c0.8-2,3.3-2.2,5-1.5
			c1.7,0.8,3.1,2.1,4,3.8c0.5,0.9,0.7,1.9,0.5,2.8c-0.2,1-0.8,1.9-1.7,2.4c-0.8,0.5-1.7,0.8-2.7,1c-0.5,0.1-0.9,0.2-1.4,0.2h-1.4
			c-1.9,0-3.7-0.7-5.2-1.9c-0.7-0.6-1.3-1.4-1.7-2.3c-0.2-0.4-0.3-0.9-0.4-1.3l-0.1-0.7V603c0-1.8,0.7-3.6,1.8-5
			c-0.9,1.5-1.4,3.2-1.3,5v0.7l0.2,0.6c0.1,0.4,0.3,0.8,0.4,1.2c0.4,0.8,0.9,1.5,1.6,2c2.6,2.2,6.8,2,9.6,0.4
			c0.7-0.4,1.2-1.1,1.3-1.8c0.1-0.8,0-1.6-0.4-2.3c-0.8-1.5-2-2.7-3.6-3.5c-0.7-0.4-1.6-0.5-2.4-0.4c-0.8,0.2-1.7,0.6-1.9,1.3
			c-0.1,0.4,0,0.8,0.3,1.1c0.3,0.3,0.6,0.7,0.9,0.9C1276.2,603.7,1277.1,604,1278,604.1z"/>
		
			<linearGradient id="SVGID_16_" gradientUnits="userSpaceOnUse" x1="1296.0162" y1="396.4936" x2="1338.8262" y2="440.9536" gradientTransform="matrix(1 0 0 -1 0 900)">
			<stop  offset="0" style="stop-color:#0D5F3F"/>
			<stop  offset="0.16" style="stop-color:#06724B"/>
			<stop  offset="0.28" style="stop-color:#008355"/>
			<stop  offset="0.42" style="stop-color:#24985C"/>
			<stop  offset="0.56" style="stop-color:#43A961"/>
			<stop  offset="0.68" style="stop-color:#56B465"/>
			<stop  offset="0.76" style="stop-color:#5DB866"/>
		</linearGradient>
		<path class="st22" d="M1288.2,478.7c0,0,9.3-4.7,24-4.6s31.2,10.4,26.6,17C1336.3,509.6,1255.3,501.1,1288.2,478.7z"/>
		<path class="st23" d="M1284.5,445.2c39.2,11.8,43.1,25.8,42.3,32.2c0,0,0.1,11-40.4,22.1c5.8,2.4-97.8,17.2-105.9-16
			C1183.5,433.8,1269.2,439.7,1284.5,445.2z"/>
		
			<linearGradient id="SVGID_17_" gradientUnits="userSpaceOnUse" x1="1209.7705" y1="376.6595" x2="1308.4305" y2="487.2595" gradientTransform="matrix(1 0 0 -1 0 900)">
			<stop  offset="0" style="stop-color:#0D5F3F"/>
			<stop  offset="0.27" style="stop-color:#157D66"/>
			<stop  offset="0.43" style="stop-color:#198A77"/>
			<stop  offset="0.76" style="stop-color:#1FA98A"/>
		</linearGradient>
		<path class="st24" d="M1283.3,445.4c39.2,11.7,43.1,25.7,42.3,32.1c0,0,0.1,11-40.4,22l0,0c4.9,2.6-98,16.8-105.9-16
			C1182.2,434.1,1268.2,440,1283.3,445.4z"/>
		
			<linearGradient id="SVGID_18_" gradientUnits="userSpaceOnUse" x1="1170.4583" y1="359.7514" x2="1216.3483" y2="416.9914" gradientTransform="matrix(1 0 0 -1 0 900)">
			<stop  offset="0" style="stop-color:#0D5F3F"/>
			<stop  offset="0.33" style="stop-color:#0C7151"/>
			<stop  offset="0.34" style="stop-color:#0C7151"/>
			<stop  offset="0.76" style="stop-color:#077458"/>
		</linearGradient>
		<path class="st25" d="M1156.3,513.5c-2.7-13.9,23.4-35.4,46.8-20.3c20.3,13.7,42.2,28.9,11.5,30.2S1159.5,525,1156.3,513.5z"/>
		
			<linearGradient id="SVGID_19_" gradientUnits="userSpaceOnUse" x1="1170.4619" y1="359.1184" x2="1216.3519" y2="416.3484" gradientTransform="matrix(1 0 0 -1 0 900)">
			<stop  offset="4.000000e-02" style="stop-color:#0D5E3F"/>
			<stop  offset="0.45" style="stop-color:#0D6F4F"/>
			<stop  offset="0.62" style="stop-color:#0B7455"/>
			<stop  offset="0.75" style="stop-color:#077B5E"/>
		</linearGradient>
		<path class="st26" d="M1156.3,514.1c-2.7-13.9,23.4-35.4,46.8-20.3c20.3,13.7,42.2,29,11.5,30.2S1159.5,525.6,1156.3,514.1z"/>
		<path class="st23" d="M1359.7,511.2c0,0-10.4,2.8-56.5,3.1l0.1-37c7.7-6.3,85.5,20.8,59,33.1"/>
		
			<linearGradient id="SVGID_20_" gradientUnits="userSpaceOnUse" x1="-3090.2405" y1="387.2397" x2="-3122.9304" y2="453.4897" gradientTransform="matrix(-1 0 0 -1 -1765.14 900)">
			<stop  offset="0" style="stop-color:#0D5F3F"/>
			<stop  offset="5.000000e-02" style="stop-color:#06724B"/>
			<stop  offset="9.000000e-02" style="stop-color:#008355"/>
			<stop  offset="0.26" style="stop-color:#24985C"/>
			<stop  offset="0.43" style="stop-color:#43A961"/>
			<stop  offset="0.57" style="stop-color:#56B465"/>
			<stop  offset="0.67" style="stop-color:#5DB866"/>
		</linearGradient>
		<path class="st27" d="M1359.5,511.9c0,0-10.4,2.8-56.5,3.2l0.1-37c7.7-6.3,85.5,20.8,59,33.1"/>
		
			<linearGradient id="SVGID_21_" gradientUnits="userSpaceOnUse" x1="1094.37" y1="408.4248" x2="1570.96" y2="408.4248" gradientTransform="matrix(1 0 0 -1 0 900)">
			<stop  offset="0" style="stop-color:#0D5F3F"/>
			<stop  offset="6.000000e-02" style="stop-color:#06724C"/>
			<stop  offset="9.000000e-02" style="stop-color:#008055"/>
			<stop  offset="0.12" style="stop-color:#038159"/>
			<stop  offset="0.3" style="stop-color:#188672"/>
			<stop  offset="0.31" style="stop-color:#208A77"/>
			<stop  offset="0.39" style="stop-color:#63ADA0"/>
			<stop  offset="0.46" style="stop-color:#9BCAC2"/>
			<stop  offset="0.53" style="stop-color:#C6E1DC"/>
			<stop  offset="0.59" style="stop-color:#E5F2EF"/>
			<stop  offset="0.64" style="stop-color:#F8FBFB"/>
			<stop  offset="0.67" style="stop-color:#FFFFFF"/>
		</linearGradient>
		<path class="st28" d="M1231.1,522c21.4,0.9,28,0.4,72.1-0.6c13-0.4,32.6-3.4,37.9-5.8c14.8-7.5-3.5-28.2-8.4-31
			c-14.7-13.2-62.9-22.3-60.1-21.6c-5-1.2-44.6-9.7-67.2,14.1C1179.1,504.1,1201,519.2,1231.1,522z"/>
		
			<linearGradient id="SVGID_22_" gradientUnits="userSpaceOnUse" x1="1100.4183" y1="395.735" x2="1469.5883" y2="421.285" gradientTransform="matrix(1 0 0 -1 0 900)">
			<stop  offset="0.23" style="stop-color:#12704F"/>
			<stop  offset="0.44" style="stop-color:#12704F"/>
			<stop  offset="0.54" style="stop-color:#2E8A5B"/>
			<stop  offset="0.71" style="stop-color:#56AF6D"/>
			<stop  offset="0.8" style="stop-color:#66BE74"/>
		</linearGradient>
		<path class="st29" d="M1230.4,523.2c21.4,0.9,28,0.4,72-0.6c13-0.4,32.6-3.4,37.9-5.8c14.8-7.5-3.5-28.2-8.4-31
			c-14.7-13.2-62.9-22.3-60.1-21.6c-5-1.2-44.6-9.7-67.2,14.1C1178.4,505.3,1200.3,520.3,1230.4,523.2z"/>
		
			<linearGradient id="SVGID_23_" gradientUnits="userSpaceOnUse" x1="203.0011" y1="1005.3783" x2="300.2812" y2="-2065.8516" gradientTransform="matrix(1.06 0 0 -1.44 155.12 215.59)">
			<stop  offset="0" style="stop-color:#76CCD2"/>
			<stop  offset="0" style="stop-color:#6FC4C0"/>
			<stop  offset="0" style="stop-color:#5DB193"/>
			<stop  offset="0" style="stop-color:#40914A"/>
			<stop  offset="0" style="stop-color:#3D8E42"/>
			<stop  offset="3.000000e-02" style="stop-color:#4C9945"/>
			<stop  offset="9.000000e-02" style="stop-color:#64AC49"/>
			<stop  offset="0.15" style="stop-color:#75B94C"/>
			<stop  offset="0.22" style="stop-color:#80C04D"/>
			<stop  offset="0.31" style="stop-color:#83C34E"/>
			<stop  offset="0.37" style="stop-color:#7FC056"/>
			<stop  offset="0.43" style="stop-color:#7BBC61"/>
			<stop  offset="0.53" style="stop-color:#068241"/>
			<stop  offset="1" style="stop-color:#047D3F"/>
		</linearGradient>
		
			<linearGradient id="SVGID_24_" gradientUnits="userSpaceOnUse" x1="-1084.37" y1="136.7177" x2="1581.5602" y2="136.7177" gradientTransform="matrix(1.06 0 0 -1 155.82 899.9)">
			<stop  offset="0" style="stop-color:#76CCD2"/>
			<stop  offset="0" style="stop-color:#6FC4C0"/>
			<stop  offset="0" style="stop-color:#5DB193"/>
			<stop  offset="0" style="stop-color:#40914A"/>
			<stop  offset="0" style="stop-color:#3D8E42"/>
			<stop  offset="1.000000e-02" style="stop-color:#3C9443"/>
			<stop  offset="3.000000e-02" style="stop-color:#39A547"/>
			<stop  offset="6.000000e-02" style="stop-color:#38B049"/>
			<stop  offset="0.1" style="stop-color:#37B34A"/>
			<stop  offset="0.1" style="stop-color:#40B451"/>
			<stop  offset="0.12" style="stop-color:#51B55F"/>
			<stop  offset="0.14" style="stop-color:#5CB568"/>
			<stop  offset="0.17" style="stop-color:#63B66D"/>
			<stop  offset="0.26" style="stop-color:#65B66F"/>
			<stop  offset="0.29" style="stop-color:#6FBA63"/>
			<stop  offset="0.37" style="stop-color:#7EC04F"/>
			<stop  offset="0.45" style="stop-color:#88C443"/>
			<stop  offset="0.53" style="stop-color:#8BC53F"/>
			<stop  offset="0.62" style="stop-color:#91C73D"/>
			<stop  offset="0.76" style="stop-color:#A3CD36"/>
			<stop  offset="0.91" style="stop-color:#C1D72B"/>
			<stop  offset="1" style="stop-color:#D6DE23"/>
		</linearGradient>
		<path class="st30" d="M-990.3,708.6c116.7-26.4,269-57.4,448-84c85.8-12.8,376-54.2,772-64.6c665-17.6,1165.5,64.2,1341.1,95.6
			c106.5,19,194.8,37.6,256.4,51.2l0.2,260.2l-2817.5,1.8L-990.3,708.6z"/>
		
			<linearGradient id="SVGID_25_" gradientUnits="userSpaceOnUse" x1="515.9661" y1="498.3399" x2="597.4962" y2="-2075.8203" gradientTransform="matrix(1 0 0 -1 0 900)">
			<stop  offset="0" style="stop-color:#76CCD2"/>
			<stop  offset="0" style="stop-color:#6AC4C0"/>
			<stop  offset="0" style="stop-color:#4CAE93"/>
			<stop  offset="0" style="stop-color:#1C8A4A"/>
			<stop  offset="0" style="stop-color:#178743"/>
			<stop  offset="0" style="stop-color:#1E8B41"/>
			<stop  offset="3.000000e-02" style="stop-color:#399C3A"/>
			<stop  offset="5.000000e-02" style="stop-color:#4DA834"/>
			<stop  offset="7.000000e-02" style="stop-color:#59B031"/>
			<stop  offset="9.000000e-02" style="stop-color:#5DB230"/>
			<stop  offset="0.12" style="stop-color:#53A632"/>
			<stop  offset="0.2" style="stop-color:#409035"/>
			<stop  offset="0.28" style="stop-color:#327F37"/>
			<stop  offset="0.39" style="stop-color:#277439"/>
			<stop  offset="0.54" style="stop-color:#226D3A"/>
			<stop  offset="0.96" style="stop-color:#206B3A"/>
			<stop  offset="0.98" style="stop-color:#226C3C"/>
			<stop  offset="0.98" style="stop-color:#297142"/>
			<stop  offset="0.99" style="stop-color:#347A4D"/>
			<stop  offset="0.99" style="stop-color:#45865C"/>
			<stop  offset="0.99" style="stop-color:#5B9670"/>
			<stop  offset="1" style="stop-color:#77AA88"/>
			<stop  offset="1" style="stop-color:#97C1A6"/>
			<stop  offset="1" style="stop-color:#BBDCC7"/>
			<stop  offset="1" style="stop-color:#C8E5D2"/>
		</linearGradient>
		<path class="st31" d="M-409.8,726c0,0,309.8-108.6,1104.2-82.1c651.4,21.7,767.9,84.7,767.9,84.7l-331.8,163.9H413.7L-358,755.9
			L-409.8,726z"/>
		
			<linearGradient id="SVGID_26_" gradientUnits="userSpaceOnUse" x1="-697.72" y1="58.425" x2="1255.12" y2="58.425" gradientTransform="matrix(1 0 0 -1 0 900)">
			<stop  offset="0" style="stop-color:#76CCD2"/>
			<stop  offset="0" style="stop-color:#6AC4C0"/>
			<stop  offset="0" style="stop-color:#4CAE93"/>
			<stop  offset="0" style="stop-color:#1C8A4A"/>
			<stop  offset="0" style="stop-color:#178743"/>
			<stop  offset="1.000000e-02" style="stop-color:#1F8448"/>
			<stop  offset="3.000000e-02" style="stop-color:#2B7F4F"/>
			<stop  offset="5.000000e-02" style="stop-color:#2F7D51"/>
			<stop  offset="0.48" style="stop-color:#267344"/>
			<stop  offset="0.96" style="stop-color:#206B3A"/>
			<stop  offset="0.98" style="stop-color:#226C3C"/>
			<stop  offset="0.98" style="stop-color:#297142"/>
			<stop  offset="0.99" style="stop-color:#347A4D"/>
			<stop  offset="0.99" style="stop-color:#45865C"/>
			<stop  offset="0.99" style="stop-color:#5B9670"/>
			<stop  offset="1" style="stop-color:#77AA88"/>
			<stop  offset="1" style="stop-color:#97C1A6"/>
			<stop  offset="1" style="stop-color:#BBDCC7"/>
			<stop  offset="1" style="stop-color:#C8E5D2"/>
		</linearGradient>
		<path class="st32" d="M-610.8,659.5c260.9,14,482.6,34.8,654.4,54.2c471.3,53,851.2,125.8,1046.1,164.2h0.1l-1700.6,145.9V659.5z"
			/>
		
			<linearGradient id="SVGID_27_" gradientUnits="userSpaceOnUse" x1="36.79" y1="213.84" x2="57.17" y2="213.84" gradientTransform="matrix(1 0 0 -1 0 900)">
			<stop  offset="3.000000e-02" style="stop-color:#403F2F"/>
			<stop  offset="0.39" style="stop-color:#555644"/>
			<stop  offset="1" style="stop-color:#777B65"/>
		</linearGradient>
		<rect x="36.8" y="653.7" class="st33" width="20.4" height="65"/>
		
			<linearGradient id="SVGID_28_" gradientUnits="userSpaceOnUse" x1="-174.5278" y1="263.7262" x2="183.1722" y2="472.3663" gradientTransform="matrix(1 0 0 -1 0 900)">
			<stop  offset="0.15" style="stop-color:#1E6C36"/>
			<stop  offset="0.33" style="stop-color:#166C36"/>
			<stop  offset="0.44" style="stop-color:#0D6C37"/>
			<stop  offset="0.96" style="stop-color:#70BE44"/>
		</linearGradient>
		<path class="st34" d="M-19.7,546.8c0,0-8.6-14.1,19.3-129.1s96.4-61.9,107.1,14.8s10.7,154.9,10.7,154.9
			c-15,103.3-139.6,73-138.3,16.2L-19.7,546.8z"/>
		
			<linearGradient id="SVGID_29_" gradientUnits="userSpaceOnUse" x1="840.3607" y1="335.7317" x2="823.3707" y2="264.2317" gradientTransform="matrix(0.9966 8.298215e-02 8.298215e-02 -0.9966 331.9261 838.0959)">
			<stop  offset="0" style="stop-color:#1EAB4B"/>
			<stop  offset="8.000000e-02" style="stop-color:#2EAF4C"/>
			<stop  offset="0.26" style="stop-color:#4AB54F"/>
			<stop  offset="0.43" style="stop-color:#5EB951"/>
			<stop  offset="0.61" style="stop-color:#6ABC52"/>
			<stop  offset="0.78" style="stop-color:#6EBD52"/>
		</linearGradient>
		<path class="st35" d="M1155,601.4c0.3-1,3.4-12.8,9.3-15.1c4-1.5,6.7,2.2,7.5,3.3c4-15.6,13.7-14.3,17-2.6
			c14.2-6.7,9.8,1.5,14.6,13c24.3-10.3,16.5,18.2,16.5,18.2l7.6,0.6l-86.8-11.1"/>
		
			<linearGradient id="SVGID_30_" gradientUnits="userSpaceOnUse" x1="-1327.29" y1="17.8961" x2="2345.8701" y2="17.8961" gradientTransform="matrix(1 0 0 -1 0 900)">
			<stop  offset="0" style="stop-color:#76CCD2"/>
			<stop  offset="0" style="stop-color:#6AC4C0"/>
			<stop  offset="0" style="stop-color:#4CAE93"/>
			<stop  offset="0" style="stop-color:#1C8A4A"/>
			<stop  offset="0" style="stop-color:#178743"/>
			<stop  offset="1.000000e-02" style="stop-color:#136D36"/>
			<stop  offset="2.000000e-02" style="stop-color:#10592D"/>
			<stop  offset="4.000000e-02" style="stop-color:#0E4D27"/>
			<stop  offset="5.000000e-02" style="stop-color:#0D4925"/>
			<stop  offset="0.25" style="stop-color:#085028"/>
			<stop  offset="0.57" style="stop-color:#055429"/>
			<stop  offset="0.74" style="stop-color:#07552B"/>
			<stop  offset="0.8" style="stop-color:#0E5A31"/>
			<stop  offset="0.84" style="stop-color:#19633B"/>
			<stop  offset="0.88" style="stop-color:#2A7049"/>
			<stop  offset="0.91" style="stop-color:#40805D"/>
			<stop  offset="0.93" style="stop-color:#5C9474"/>
			<stop  offset="0.96" style="stop-color:#7CAD90"/>
			<stop  offset="0.98" style="stop-color:#A0C8B0"/>
			<stop  offset="1" style="stop-color:#C8E5D2"/>
		</linearGradient>
		<path class="st36" d="M-930.9,1064.9c-5.8-46.7,562-144.9,1546-315.1c94.8-16.4,251.7-42.9,456.4-57.6
			c140.1-10.1,253.3-11.1,316.8-10.8c102.6,0.4,278.3,5.2,356.3,10.6c5.3,114-40.9,218.5-35.6,332.5
			c-784.2-2-1466.8,23.1-1947.2,40.4C-675.8,1080.7-927.1,1095.8-930.9,1064.9z"/>
		
			<linearGradient id="SVGID_31_" gradientUnits="userSpaceOnUse" x1="868.4054" y1="65.812" x2="1027.4955" y2="435.502" gradientTransform="matrix(1 0 0 -1 0 900)">
			<stop  offset="0" style="stop-color:#76CCD2"/>
			<stop  offset="0" style="stop-color:#6AC4C0"/>
			<stop  offset="0" style="stop-color:#4CAE93"/>
			<stop  offset="0" style="stop-color:#1C8A4A"/>
			<stop  offset="0" style="stop-color:#178743"/>
			<stop  offset="1.000000e-02" style="stop-color:#136D36"/>
			<stop  offset="2.000000e-02" style="stop-color:#10592D"/>
			<stop  offset="4.000000e-02" style="stop-color:#0E4D27"/>
			<stop  offset="5.000000e-02" style="stop-color:#0D4925"/>
			<stop  offset="0.13" style="stop-color:#0E5028"/>
			<stop  offset="0.34" style="stop-color:#0F5B2E"/>
			<stop  offset="0.57" style="stop-color:#105F30"/>
			<stop  offset="0.74" style="stop-color:#126032"/>
			<stop  offset="0.8" style="stop-color:#196538"/>
			<stop  offset="0.84" style="stop-color:#246E42"/>
			<stop  offset="0.88" style="stop-color:#357A51"/>
			<stop  offset="0.91" style="stop-color:#4B8A64"/>
			<stop  offset="0.94" style="stop-color:#679E7C"/>
			<stop  offset="0.96" style="stop-color:#87B699"/>
			<stop  offset="0.99" style="stop-color:#ABD0B9"/>
			<stop  offset="1" style="stop-color:#C8E5D2"/>
		</linearGradient>
		<path class="st37" d="M833.3,718.1c0,0-14-34.5,27.8-25.3c-22.8-44.7,38.8-52.9,53.3-24.5c24.3-68.5,61-15.9,52.3-0.1
			c33.9-33,51.5,17.5,51.5,17.5l3.5,10.4L833.3,718.1z"/>
		
			<linearGradient id="SVGID_32_" gradientUnits="userSpaceOnUse" x1="605.06" y1="939.356" x2="1925.1001" y2="939.356" gradientTransform="matrix(0.91 -0.14 -8.000000e-02 -0.51 -308.94 1365.1599)">
			<stop  offset="0" style="stop-color:#76CCD2"/>
			<stop  offset="0" style="stop-color:#6AC4C0"/>
			<stop  offset="0" style="stop-color:#4CAE93"/>
			<stop  offset="0" style="stop-color:#1C8A4A"/>
			<stop  offset="0" style="stop-color:#178743"/>
			<stop  offset="1.000000e-02" style="stop-color:#136D36"/>
			<stop  offset="2.000000e-02" style="stop-color:#10592D"/>
			<stop  offset="4.000000e-02" style="stop-color:#0E4D27"/>
			<stop  offset="5.000000e-02" style="stop-color:#0D4925"/>
			<stop  offset="0.13" style="stop-color:#0E5028"/>
			<stop  offset="0.34" style="stop-color:#0F5B2E"/>
			<stop  offset="0.57" style="stop-color:#105F30"/>
			<stop  offset="0.74" style="stop-color:#126032"/>
			<stop  offset="0.8" style="stop-color:#196538"/>
			<stop  offset="0.84" style="stop-color:#246E42"/>
			<stop  offset="0.88" style="stop-color:#357A51"/>
			<stop  offset="0.91" style="stop-color:#4B8A64"/>
			<stop  offset="0.94" style="stop-color:#679E7C"/>
			<stop  offset="0.96" style="stop-color:#87B699"/>
			<stop  offset="0.99" style="stop-color:#ABD0B9"/>
			<stop  offset="1" style="stop-color:#C8E5D2"/>
		</linearGradient>
		<path class="st38" d="M698.9,698.9c2.4,2.3,3.7,5.4,3.6,8.7c12.1-8.3,27.6-12,38.7-9.1c9.2,2.5,15.5,9.6,17.2,16.1
			c1.4,5.7-1.1,9.3,2.3,11c4.2,2.1,12.4-1.7,21-4.4c19-6,36.1-5.4,53.7-4.7c0,0,5.5-3.3,43.5,2.2l6.1,0.8
			c-137,21-280.8,44.6-417.8,65.6c3.6-4.8,8-8.8,13-12c20.6-13.2,47.4-11.6,51.8-11.2c-1.3-1.8-1.9-3.9-1.8-6.1
			c0.5-9.2,15.3-16.5,23.5-20.5c15.8-7.8,32-10.5,42.8-11.4c0.1-5.8,2.9-11.3,7.7-14.6c9.9-7.3,29-8.9,44.5-1.9
			c1.5-2.2,6.5-8.5,16.7-11.9C676.9,691.5,692.2,692.3,698.9,698.9z"/>
		
			<linearGradient id="SVGID_33_" gradientUnits="userSpaceOnUse" x1="-1795.49" y1="230.9904" x2="2204.0801" y2="230.9904" gradientTransform="matrix(1 0 0 -1 0 900)">
			<stop  offset="0.26" style="stop-color:#66993D"/>
			<stop  offset="0.36" style="stop-color:#58933C"/>
			<stop  offset="0.45" style="stop-color:#488C3B"/>
		</linearGradient>
		<path class="st39" d="M-215.2,688.8c0,0-0.8-1.9-1.7-4.9c-4.8-16.1-12.8-64.4,77.1-32.7c0-56.5,52.4-27.4,57.6-10.5
			c23-48,85.9,2.5,67.5,12.8c76.3-35.9,87.4,29.2,62.8,35.4c88.9-6.3,38.2,31.4,38.2,31.4"/>
		
			<linearGradient id="SVGID_34_" gradientUnits="userSpaceOnUse" x1="-927.84" y1="1782.214" x2="3071.72" y2="1782.214" gradientTransform="matrix(0.72 2.000000e-02 2.000000e-02 -0.66 -398.09 1874.6)">
			<stop  offset="0.26" style="stop-color:#66993D"/>
			<stop  offset="0.36" style="stop-color:#58933C"/>
			<stop  offset="0.45" style="stop-color:#488C3B"/>
		</linearGradient>
		<path class="st40" d="M109.4,723.6c-0.4-1.1-0.8-2.2-1.1-3.3c-3.1-10.8-7.8-42.9,56.2-19.8c1.3-37.4,38.4-16.8,41.7-5.6
			c17.6-31.2,61.8,3.7,48.3,10.1c55.8-21.8,62.3,21.4,44.4,25c64.2-2,26.8,21.7,26.8,21.7"/>
		
			<linearGradient id="SVGID_35_" gradientUnits="userSpaceOnUse" x1="-7815.252" y1="212.1" x2="-7815.252" y2="667.01" gradientTransform="matrix(-1 0 0 -1 -6186.7598 900)">
			<stop  offset="0.25" style="stop-color:#604023"/>
			<stop  offset="0.66" style="stop-color:#51361C"/>
			<stop  offset="0.93" style="stop-color:#442E17"/>
		</linearGradient>
		<path class="st41" d="M1850.2,360.4c0,0,4.9,37.1-65,55.7c0,0,5.3,62.3-96.8,94.1c0,0-60.5,20.9-52.8,62.8c0,0,2.1,78-15.5,115.5
			c0,0-146.4,12.3-162.6,10.1c0,0,55.8-45.7,50.7-189.5c0,0-36.8-77.4-38.4-87.2c0,0-35.8,4.1-47.7,0c0,0-18.3,4.1-15.1-51.3
			c0,0,40.5,79.9,71.5,8.1l11.9-2.5c0,0-14.3,84,35.8,71.7c0,0,8-66,6.4-68.5l23-3.3c0,0-0.8,66,13.5,38.3c0,0,20.7-32.6,19.1-39.1
			l15,1.9c0,0-21,62.4-34,68.8s3.5,65,19.3,66.5c0,0,43-115.5,41.9-135.8l18.1,1.2c0,0-33.9,92.9,10.8,103.3c0,0,58.4,0.8,95.4-30.1
			c0,0,28.8-34.4,22.6-75.8l14.4-7c0,0-3.4,23.2-1.4,26.7c0,0,32.2,4.9,52.7-31.6L1850.2,360.4z"/>
		<path class="st42" d="M1407.1,375.4c0,0-14.2,55.4,21.7,47.4c0,0-11.8,2.8-18.9-47.8L1407.1,375.4z"/>
		<path class="st42" d="M1533,390.8c0,0-3.9,48.6-9.1,58.7C1524.3,448.2,1544.8,445.8,1533,390.8z"/>
		<path class="st43" d="M1613.6,436.9c0,0-12.9,57.8-31.1,77.4C1582.5,514.3,1626,513,1613.6,436.9z"/>
		<path class="st44" d="M1512,543c0,0,35.3,15.7,44.7,84.2c0,0,5.3,42.6,1,58.8c0,0-75.2,11.6-99,12.2c0,0,47.3-50.6,49.8-157.2
			L1512,543z"/>
		<path class="st45" d="M1801.1,285.6c-0.8-2.5,73.9-61.9,27.5-141.9c0,0-48.3-134.3-241.5-91.4c0,0-197.8,30.5-294.4,172.4
			c0,0-18.1,19-4.7,29.3c13.4,10.3,80.4,27.5,80.4,27.5l194.2,3.4L1801.1,285.6z"/>
		
			<linearGradient id="SVGID_36_" gradientUnits="userSpaceOnUse" x1="-8097.5605" y1="585.1711" x2="-7316.5806" y2="948.8811" gradientTransform="matrix(-1 0 0 -1 -6186.7598 900)">
			<stop  offset="0.13" style="stop-color:#115638"/>
			<stop  offset="0.32" style="stop-color:#135938"/>
			<stop  offset="0.45" style="stop-color:#1B6139"/>
			<stop  offset="0.56" style="stop-color:#28703A"/>
			<stop  offset="0.65" style="stop-color:#3B853C"/>
			<stop  offset="0.74" style="stop-color:#53A03F"/>
			<stop  offset="0.75" style="stop-color:#58A53F"/>
			<stop  offset="0.87" style="stop-color:#59A641"/>
			<stop  offset="0.91" style="stop-color:#5CA948"/>
			<stop  offset="0.94" style="stop-color:#61AD53"/>
			<stop  offset="0.96" style="stop-color:#69B464"/>
			<stop  offset="0.98" style="stop-color:#73BD7A"/>
			<stop  offset="1" style="stop-color:#7EC793"/>
		</linearGradient>
		
			<linearGradient id="SVGID_37_" gradientUnits="userSpaceOnUse" x1="-8029.5103" y1="762.3666" x2="-7468.4834" y2="762.3666" gradientTransform="matrix(-1 0 0 -1 -6186.7598 900)">
			<stop  offset="0" style="stop-color:#277948"/>
			<stop  offset="1" style="stop-color:#03654A"/>
		</linearGradient>
		<path class="st46" d="M1799.9,258.5c-0.8-2.5,73.9-61.9,27.5-141.9c0,0-48.3-134.3-241.5-91.4c0,0-197.8,30.5-294.4,172.4
			c0,0-18.1,19-4.7,29.3s80.4,27.5,80.4,27.5l194.2,3.4L1799.9,258.5z"/>
		<path class="st45" d="M1378.1,247.6c0,0-91.5-93-177.1,57.3c0,0-49.5,81,64.7,75.1c0,0,97.1,1,114.2-7.8
			c1-3.9,16.2-59.5,15.2-66.4S1378.1,247.6,1378.1,247.6z"/>
		
			<linearGradient id="SVGID_38_" gradientUnits="userSpaceOnUse" x1="-7597.4185" y1="469.6788" x2="-7352.3687" y2="725.7188" gradientTransform="matrix(-1 0 0 -1 -6186.7598 900)">
			<stop  offset="0.13" style="stop-color:#03492C"/>
			<stop  offset="0.54" style="stop-color:#327C37"/>
			<stop  offset="0.85" style="stop-color:#58A53F"/>
		</linearGradient>
		
			<linearGradient id="SVGID_39_" gradientUnits="userSpaceOnUse" x1="-7584.5273" y1="600.7635" x2="-7379.436" y2="600.7635" gradientTransform="matrix(-1 0 0 -1 -6186.7598 900)">
			<stop  offset="0" style="stop-color:#277948"/>
			<stop  offset="1" style="stop-color:#03654A"/>
		</linearGradient>
		<path class="st47" d="M1380.6,247.1c0,0-91.5-93-177.1,57.3c0,0-49.5,81,64.7,75.2c0,0,97.1,1,114.2-7.8
			c1-3.9,16.2-59.5,15.2-66.4S1380.6,247.1,1380.6,247.1z"/>
		<path class="st48" d="M1763.1,226.8c0,0,157.2,87.6,66,148.4c0,0-17.2,13.1-112.1,13.1c0,0-340,12.9-393.7-8.7
			c0,0-73.5-15.6-49.2-74.5c0,0,57.4-194.1,287.2-175.4C1561.4,129.8,1614.8,130.4,1763.1,226.8z"/>
		
			<linearGradient id="SVGID_40_" gradientUnits="userSpaceOnUse" x1="-7944.0527" y1="376.3825" x2="-7525.5225" y2="794.9225" gradientTransform="matrix(-1 0 0 -1 -6186.7598 900)">
			<stop  offset="0.13" style="stop-color:#115638"/>
			<stop  offset="0.39" style="stop-color:#135938"/>
			<stop  offset="0.56" style="stop-color:#1B6139"/>
			<stop  offset="0.7" style="stop-color:#28703A"/>
			<stop  offset="0.82" style="stop-color:#3B853C"/>
			<stop  offset="0.94" style="stop-color:#53A03F"/>
			<stop  offset="0.96" style="stop-color:#58A53F"/>
			<stop  offset="0.98" style="stop-color:#59A641"/>
			<stop  offset="0.99" style="stop-color:#5CA948"/>
			<stop  offset="0.99" style="stop-color:#61AD53"/>
			<stop  offset="0.99" style="stop-color:#69B464"/>
			<stop  offset="1" style="stop-color:#73BD7A"/>
			<stop  offset="1" style="stop-color:#7EC793"/>
		</linearGradient>
		
			<linearGradient id="SVGID_41_" gradientUnits="userSpaceOnUse" x1="-8042.8911" y1="636.7485" x2="-7454.2773" y2="636.7485" gradientTransform="matrix(-1 0 0 -1 -6186.7598 900)">
			<stop  offset="0" style="stop-color:#277948"/>
			<stop  offset="1" style="stop-color:#03654A"/>
		</linearGradient>
		<path class="st49" d="M1761.5,229.7c0,0,157.2,87.6,66,148.4c0,0-17.2,13.1-112.1,13.1c0,0-340,12.9-393.7-8.8
			c0,0-73.5-15.6-49.2-74.5c0,0,57.4-194.1,287.2-175.4C1559.8,132.7,1613.2,133.4,1761.5,229.7z"/>
		
			<linearGradient id="SVGID_42_" gradientUnits="userSpaceOnUse" x1="-275.9568" y1="-163.8617" x2="419.4132" y2="401.7483" gradientTransform="matrix(1 0 0 -1 0 900)">
			<stop  offset="9.000000e-02" style="stop-color:#0F4C27"/>
			<stop  offset="0.28" style="stop-color:#053D1C"/>
			<stop  offset="0.3" style="stop-color:#043B1B"/>
		</linearGradient>
		<path class="st50" d="M-253.9,900.8c1.1-2.1,10.1-18.2,26.3-19.5c11-0.9,19.1,5.5,21.7,7.8c0.1-1.2,2.2-29.3,18.6-39.1
			c16.1-9.7,38.5-9.3,49,20.1c7.9-84,68.8-32.4,79.5-4.7c12.1-93.3,69.4-31,66.4,4.2c3.9-18.1,15.7-30.8,27.8-31.3
			c16.2-0.7,32.6,20,30.9,46.9c14.9-14.1,23.1-14.7,27.8-11.7c8.7,5.4,14,27.4,14,27.4H-253.9L-253.9,900.8z"/>
		
			<linearGradient id="SVGID_43_" gradientUnits="userSpaceOnUse" x1="959.7097" y1="-429.8696" x2="2741.7598" y2="1019.6404" gradientTransform="matrix(1 0 0 -1 0 900)">
			<stop  offset="9.000000e-02" style="stop-color:#0F4C27"/>
			<stop  offset="0.28" style="stop-color:#053D1C"/>
			<stop  offset="0.3" style="stop-color:#043B1B"/>
		</linearGradient>
		<path class="st51" d="M1016.4,912.3c2.9-5.5,25.8-47.2,67.3-50.6c28.3-2.4,48.9,14.4,55.5,20.3c0.2-3.2,5.5-75.8,47.5-101.3
			c41.4-25.1,103.9,4.4,130.8,80.4c-23.8-262.1,171.1-112.2,198.4-40.6c30.9-241.6,178.1-100.5,170.2-9.3c10-47,39.9-59.5,71.1-60.9
			c41.4-1.8,83.5,51.8,79.2,121.5c38.3-36.6,59.2-38,71.3-30.4c22.4,13.9,35.8,70.9,35.8,70.9L1016.4,912.3L1016.4,912.3z"/>
	</g>
</g>
</svg>
