<?xml version="1.0" encoding="utf-8"?>
<!-- Generator: Adobe Illustrator 25.2.3, SVG Export Plug-In . SVG Version: 6.00 Build 0)  -->
<svg version="1.1" id="Layer_1" xmlns="http://www.w3.org/2000/svg" xmlns:xlink="http://www.w3.org/1999/xlink" x="0px" y="0px"
	 viewBox="0 0 1600 900" style="enable-background:new 0 0 1600 900;" xml:space="preserve">
<style type="text/css">
	.st0{clip-path:url(#SVGID_2_);}
	.st1{fill:#422F29;}
	.st2{fill:#614F4B;}
	.st3{fill:#CD4645;}
	.st4{fill:url(#SVGID_3_);}
	.st5{fill:url(#SVGID_4_);}
	.st6{fill:url(#SVGID_5_);}
	.st7{fill:url(#SVGID_6_);}
	.st8{fill:url(#SVGID_7_);stroke:url(#SVGID_8_);stroke-width:0.21;stroke-miterlimit:10;}
	.st9{fill:url(#SVGID_9_);}
	.st10{fill:url(#SVGID_10_);}
	.st11{fill:none;}
</style>
<g>
	<defs>
		<rect id="SVGID_1_" width="1600" height="900"/>
	</defs>
	<clipPath id="SVGID_2_">
		<use xlink:href="#SVGID_1_"  style="overflow:visible;"/>
	</clipPath>
	<g class="st0">
		<path class="st1" d="M754.9,249.6L754.9,249.6c0-0.1,0-0.2,0-0.3s0-0.2,0-0.3s0-0.1,0-0.2v-0.2c0-0.1,0.1-0.3,0.1-0.4l0.1-0.2
			v-0.1v-0.1c0-0.1,0.1-0.2,0.1-0.3s0.1-0.2,0.1-0.3c0-0.1,0.1-0.2,0.1-0.3l0.1-0.3v-0.1l0.1-0.1l0.1-0.3c0-0.1,0.1-0.2,0.1-0.3
			l0.1-0.2c0-0.1,0.1-0.1,0.2-0.2l0.2-0.2c0.1-0.1,0.2-0.2,0.3-0.3l0.2-0.1l0.2-0.1l0.3-0.2l0.2-0.1h0.1l0.4,0.3
			c-0.5,0.4-0.9,0.8-1.3,1.3l-0.3,0.4l-0.2,0.2l-0.1,0.1l-0.1,0.1l-0.1,0.2l-0.1,0.2c0,0.1-0.1,0.2-0.1,0.2c0,0.1-0.1,0.2-0.1,0.2
			c0,0,0,0.1,0,0.1v0.1l-0.1,0.2c0,0.1-0.1,0.3-0.1,0.4l-0.1,0.2c0,0.1,0,0.1,0,0.2c0,0,0,0.1,0,0.1c0,0,0,0.1,0,0.1
			C754.9,249.5,754.9,249.5,754.9,249.6C754.9,249.6,754.9,249.6,754.9,249.6L754.9,249.6z"/>
		<path class="st2" d="M757.9,244.7c0,0-0.1,0-0.2-0.1s-0.2-0.2-0.1-0.2s0.1,0,0.2,0.1S757.9,244.7,757.9,244.7z"/>
		<path class="st3" d="M751.4,252.2c-1.2,1.4-3,1.8-4,1s-0.8-2.7,0.4-4.1s3-1.8,4-1S752.6,250.8,751.4,252.2z"/>
		
			<linearGradient id="SVGID_3_" gradientUnits="userSpaceOnUse" x1="4177.9253" y1="3474.77" x2="4177.9253" y2="-2087.4399" gradientTransform="matrix(-1 0 0 -1 5199.5498 900)">
			<stop  offset="0.21" style="stop-color:#A2D9D8"/>
			<stop  offset="0.22" style="stop-color:#7FB7CC"/>
			<stop  offset="0.24" style="stop-color:#649BC2"/>
			<stop  offset="0.25" style="stop-color:#5088BB"/>
			<stop  offset="0.26" style="stop-color:#447CB6"/>
			<stop  offset="0.27" style="stop-color:#4078B5"/>
			<stop  offset="0.36" style="stop-color:#437AB6"/>
			<stop  offset="0.41" style="stop-color:#4B82B8"/>
			<stop  offset="0.45" style="stop-color:#5A8FBC"/>
			<stop  offset="0.49" style="stop-color:#6EA2C1"/>
			<stop  offset="0.52" style="stop-color:#89BBC8"/>
			<stop  offset="0.55" style="stop-color:#A9D8D0"/>
			<stop  offset="0.56" style="stop-color:#ADDCD1"/>
			<stop  offset="0.57" style="stop-color:#B5DFD5"/>
			<stop  offset="0.6" style="stop-color:#CAE8E1"/>
			<stop  offset="0.63" style="stop-color:#ECF7F4"/>
			<stop  offset="0.64" style="stop-color:#FFFFFF"/>
			<stop  offset="1" style="stop-color:#C7E5D2"/>
		</linearGradient>
		<rect x="-1263.6" y="-1267.3" class="st4" width="4570.4" height="2176.8"/>
		
			<linearGradient id="SVGID_4_" gradientUnits="userSpaceOnUse" x1="1699.1696" y1="569.8956" x2="7158.1997" y2="-78.1544" gradientTransform="matrix(-1 0 0 -1 5199.5601 900)">
			<stop  offset="0" style="stop-color:#4B9A45"/>
			<stop  offset="0.49" style="stop-color:#27B373"/>
			<stop  offset="0.64" style="stop-color:#2AB16F"/>
			<stop  offset="0.79" style="stop-color:#33AB64"/>
			<stop  offset="0.94" style="stop-color:#42A050"/>
			<stop  offset="1" style="stop-color:#4B9A45"/>
		</linearGradient>
		<path class="st5" d="M3003.6,133.7C2407.7,76.2,2054.2-73,624.5,406.2C-329,737.4-1844.9,601.4-2053.8,459.7v425.7h4858.5
			c56.8,14.5,356.2,85.4,572.5-87.9c2.4-1.9,4.8-3.9,7.2-5.8C3457.9,730.4,3665,197.6,3003.6,133.7z"/>
		
			<linearGradient id="SVGID_5_" gradientUnits="userSpaceOnUse" x1="1652.05" y1="508.0796" x2="7225.0195" y2="-153.5004" gradientTransform="matrix(-1 0 0 -1 5199.5601 900)">
			<stop  offset="0" style="stop-color:#418840"/>
			<stop  offset="0.35" style="stop-color:#2DA363"/>
			<stop  offset="0.65" style="stop-color:#23A76A"/>
			<stop  offset="0.76" style="stop-color:#27A666"/>
			<stop  offset="0.87" style="stop-color:#32A25C"/>
			<stop  offset="0.98" style="stop-color:#469C4A"/>
			<stop  offset="1" style="stop-color:#4B9A45"/>
		</linearGradient>
		<path class="st6" d="M3296.4,436.5c0,0-1250.1-287.3-2739.6,52C-427.5,712.7-1912.7,683.7-2121.6,542v425.7H2737l169.9,0.5
			c65.3,9,201.4,18.5,352.4-44.1c50.1-20.8,255.8-106.1,269.1-217.5C3553.9,494.1,3371.6,461.4,3296.4,436.5z"/>
		
			<linearGradient id="SVGID_6_" gradientUnits="userSpaceOnUse" x1="5065.0601" y1="356.195" x2="5078.3999" y2="356.195" gradientTransform="matrix(-1 0 0 -1 5199.5601 900)">
			<stop  offset="0" style="stop-color:#A5573F"/>
			<stop  offset="7.000000e-02" style="stop-color:#A1715B"/>
			<stop  offset="0.13" style="stop-color:#9E8672"/>
			<stop  offset="0.63" style="stop-color:#918D7A"/>
			<stop  offset="0.98" style="stop-color:#777C65"/>
		</linearGradient>
		<rect x="121.2" y="521.1" class="st7" width="13.3" height="45.5"/>
		
			<linearGradient id="SVGID_7_" gradientUnits="userSpaceOnUse" x1="4928.3677" y1="306.7919" x2="5298.4976" y2="770.2819" gradientTransform="matrix(-1 0 0 -1 5199.5601 900)">
			<stop  offset="0" style="stop-color:#398F97"/>
			<stop  offset="0.27" style="stop-color:#23A49E"/>
			<stop  offset="0.51" style="stop-color:#15B2A2"/>
			<stop  offset="0.59" style="stop-color:#15ADA4"/>
			<stop  offset="0.69" style="stop-color:#17A0A9"/>
			<stop  offset="0.79" style="stop-color:#1989B2"/>
			<stop  offset="0.86" style="stop-color:#1B75BA"/>
		</linearGradient>
		
			<linearGradient id="SVGID_8_" gradientUnits="userSpaceOnUse" x1="4997.665" y1="441.1944" x2="5132.2173" y2="533.35" gradientTransform="matrix(-1 0 0 -1 5199.5601 900)">
			<stop  offset="0" style="stop-color:#2483C5"/>
			<stop  offset="1" style="stop-color:#2483C5;stop-opacity:0"/>
		</linearGradient>
		<path class="st8" d="M161.9,345.2c-15.7-87.3-53.3-71.6-66.4,11.1c-7,44.1-14.3,87-17,106.3c-1.3,8.6-0.6,17.3,2.2,25.6
			c20.2,58.8,97,35.6,97.1-3.9C177.9,440.1,176.5,426.3,161.9,345.2z"/>
		
			<linearGradient id="SVGID_9_" gradientUnits="userSpaceOnUse" x1="4996.5957" y1="1559.3943" x2="5780.0654" y2="2196.6643" gradientTransform="matrix(-0.99 0.13 -0.13 -0.99 5336.8301 1560.22)">
			<stop  offset="0" style="stop-color:#7FC796"/>
			<stop  offset="0" style="stop-color:#287239"/>
			<stop  offset="0" style="stop-color:#119D4A"/>
			<stop  offset="0.12" style="stop-color:#2DA367"/>
			<stop  offset="0.58" style="stop-color:#16A34A"/>
			<stop  offset="0.96" style="stop-color:#36B24A"/>
		</linearGradient>
		<path class="st9" d="M159.5,564.8c-8.3-8.3-21.6-8.8-30.5-1.3c-0.1-0.5-3.1-12.8-13.9-15.9c-10.6-3-25.1,4.1-29.9,18
			c-0.2-45.8-44.1-13.8-49.1-0.6c-13-40.5-45-8-41,7.3c-3.5-7.7-11.6-12.4-19.2-11.6c-10.1,1-19.1,11.6-16.5,23.4
			c-10.1-5-15.2-4.6-18-2.9c-5.1,3.1-7.1,13.3-7.1,13.3l0,0L159.5,564.8z"/>
		
			<linearGradient id="SVGID_10_" gradientUnits="userSpaceOnUse" x1="1781.0118" y1="155.0651" x2="6446.2222" y2="-398.745" gradientTransform="matrix(-1 0 0 -1 5199.5601 900)">
			<stop  offset="0" style="stop-color:#64B66A"/>
			<stop  offset="0" style="stop-color:#1E542A"/>
			<stop  offset="0" style="stop-color:#337A3C"/>
			<stop  offset="0" style="stop-color:#166839"/>
			<stop  offset="0" style="stop-color:#21592C"/>
			<stop  offset="0.23" style="stop-color:#33763A"/>
			<stop  offset="0.56" style="stop-color:#19925D"/>
			<stop  offset="0.66" style="stop-color:#1D965F"/>
			<stop  offset="0.75" style="stop-color:#28A063"/>
			<stop  offset="0.81" style="stop-color:#32A967"/>
			<stop  offset="0.86" style="stop-color:#31A261"/>
			<stop  offset="1" style="stop-color:#4B9A45"/>
		</linearGradient>
		<path class="st10" d="M2872.7,549.6c76.5,9.7,185.1,25.6,315.3,52.3c116.5,23.9,140.1,40.4,157.1,58.9
			c103.4,112.6-55.8,404.2-78.6,445.2l-593.4,94l-1937.3-12.5c0,0-2052.1,49.2-2078.9-94c-11-58.9,111.6-258.1,844.2-188.5
			C708.6,1019.7,1799.6,489,2872.7,549.6z"/>
		<rect x="-1209.3" y="-1219.7" class="st11" width="4438" height="2496.4"/>
	</g>
</g>
</svg>
