<?xml version="1.0" encoding="utf-8"?>
<!-- Generator: Adobe Illustrator 25.2.3, SVG Export Plug-In . SVG Version: 6.00 Build 0)  -->
<svg version="1.1" id="Layer_1" xmlns="http://www.w3.org/2000/svg" xmlns:xlink="http://www.w3.org/1999/xlink" x="0px" y="0px"
	 viewBox="0 0 1600 900" style="enable-background:new 0 0 1600 900;" xml:space="preserve">
<style type="text/css">
	.st0{clip-path:url(#SVGID_2_);}
	.st1{fill:#B57E54;}
	.st2{fill:#946134;}
	.st3{fill:#804F21;}
	.st4{fill:#9F7045;}
	.st5{fill:#5C9B32;}
	.st6{fill:#8CB121;}
	.st7{fill:#528F34;}
	.st8{fill:#B78B01;}
	.st9{fill:#EA6000;}
	.st10{fill:#D35600;}
	.st11{fill:#F1EDE3;}
	.st12{fill:#E6DFCE;}
</style>
<g>
	<defs>
		<rect id="SVGID_1_" width="1600" height="900"/>
	</defs>
	<clipPath id="SVGID_2_">
		<use xlink:href="#SVGID_1_"  style="overflow:visible;"/>
	</clipPath>
	<g class="st0">
		<path class="st1" d="M-1647.7,1405.9c0,0,838.7,22.2,2237.9,104.4c1033.8,82.2,5177.2-179.9,5405.4-469.2l-11.2-1504.5
			l-7631-276.9L-1647.7,1405.9z"/>
		<path class="st2" d="M6622.9,744.9H-632.5c-420.2,0-712.9-171.8-569.7-334.4l831.5-944.8c86.9-98.7,314.6-164.5,569.8-164.5
			h5592.4c255.1,0,482.9,65.8,569.7,164.5l831.5,944.8C7335.7,573.2,7043.1,744.9,6622.9,744.9z"/>
		<path class="st3" d="M1297,576.1c0,11.1-22.7,20.2-50.6,20.2s-50.6-9-50.6-20.2s22.7-20.1,50.6-20.1S1297,565,1297,576.1z"/>
		<path class="st3" d="M1616.8,665.8c0,11.1-22.7,20.2-50.6,20.2s-50.6-9-50.6-20.2s22.7-20.2,50.6-20.2S1616.8,654.7,1616.8,665.8z
			"/>
		<path class="st4" d="M1469.8,723c0,8-16.3,14.5-36.5,14.5s-36.5-6.5-36.5-14.5s16.3-14.5,36.5-14.5S1469.8,714.9,1469.8,723z"/>
		<ellipse class="st3" cx="1670.1" cy="477.9" rx="263.8" ry="78.1"/>
		<path class="st5" d="M1569.4-210.4c-4.8-13.1-16.7-23.6-32.8-32.2c-15.7-8.5-20.9-24.5-12.5-37.5c8.7-13.4,11.3-29,5.8-44.2
			c-9.3-41-128.7-156.5-201.6-133.6c-66.3,16.6-91,137.1-68.1,173c8,12.8,26,21,47.8,26.9c21.2,6,28.2,20.6,18.2,33.3
			c-10.5,13.3-13.5,27.6-7.1,39.8s20.8,20.9,38.8,28c17.5,7.1,22.4,21.8,13.1,33.6c-9.7,12.4-13,26.3-8.2,39.2s16.6,23.5,32.6,32.2
			c15.6,8.7,20.5,24.4,12,36.8c-8.8,12.8-11.6,27.8-6.4,42.6c12.3,39.9,100.3,109.1,175.8,95.3c72.6-10.4,117-98.4,94.3-133.5
			c-8.1-12.6-26.1-20.2-47.9-25.5c-21.2-5.5-28-19.9-17.9-32.8c10.6-13.6,13.7-28,7.3-40.1s-20.6-20.6-38.4-27.3
			c-17.3-6.8-22.2-21.5-13-33.7C1570.9-183.1,1574.2-197.3,1569.4-210.4z"/>
		<path class="st6" d="M1576.5,171.4C1448-45.1,1465.9-206.4,1345.2-412.7c-1.9-3.6,0.3-7.2,5-8s9.8,1.4,11.9,4.8
			c126.8,209.4,122.4,376.2,264.8,576c6.1,10.3-0.3,21.5-13.6,25.3s-29.6-1.9-36.4-13.1C1576.9,172,1576.7,171.7,1576.5,171.4z"/>
		<path class="st7" d="M1825.6-259c0.1-16.7-11.8-23.3-29.1-27.6c-16.6-5.3-15.8-23.8,0.9-43.7c17.4-21.4,28.2-45.1,28.2-61.2
			c-2-28-67.4-155.2-157.7-169.3c-81.3,7.7-150.8,119.7-157.7,169.3c-0.1,16.7,12.9,29,32.9,39.3c19.1,11,19.1,27.5,0.1,41.3
			c-19.9,14.8-33.1,35.5-33,51.9c-0.1,16.7,13,25.8,32.2,32.6c18.3,7.7,17.6,24.3-0.7,41.6c-19.2,18.6-31.6,42.1-31.5,58.4
			c0,16.7,12.1,23.5,29.7,28c16.9,5.4,16,23.5-0.9,43.2c-17.7,21.2-28.8,45.2-28.7,61.4c2.9,34.9,69.5,90.5,151.6,110.3
			c78.9,12.2,159.7-58.7,163.8-110.3c0.1-16.7-13.1-28.3-33-37.9c-19-10.3-18.8-26.8,0.1-41.3c19.9-15.6,33-37,32.8-53.3
			c0.1-16.7-12.9-25.2-31.8-31.3c-18-7.1-17.2-23.9,0.8-41.8C1813.6-218.8,1825.7-242.7,1825.6-259z"/>
		<path class="st8" d="M1801.4,185.4c-55.7-22.9-131-21.3-131-21.3s-77.6-1.6-133.5,22.3c23.6,8.4,73,14.2,130.6,14.2
			C1727.6,200.7,1779.2,194.4,1801.4,185.4z"/>
		<path class="st9" d="M1859.3,248.1c-3.4-30.9-27.8-50.3-57.9-62.6c-22.3,9-73.8,15.2-133.9,15.2c-24.7,0.1-49.5-1.1-74.1-3.6
			c-9.4,12-16.3,28.4-17.6,51c-1.8,32.7-2.5,131.4-0.7,246.2c31.3,4.7,62.9,7.1,94.5,7c82.2,0,153.7-14.6,192-36.4
			C1864.1,363,1862.7,278,1859.3,248.1z"/>
		<path class="st10" d="M1575.9,248.1c1.3-22.5,8.1-38.9,17.6-51c-11.9-1.2-22.8-2.8-32.2-4.5l-0.6-0.1c-4.2-0.8-8.1-1.6-11.7-2.5
			c-0.5-0.1-1.1-0.2-1.6-0.4c-3.9-1-7.5-2-10.6-3.1c-28.9,12.4-52.1,31.5-55.5,61.6s-4.8,115.3-2.3,217.7
			c22.5,12.4,55.9,22.4,96,28.6C1573.4,379.5,1574.1,280.8,1575.9,248.1z"/>
		<path class="st11" d="M1547.4,189.6c0.5,0.1,1.1,0.2,1.6,0.4C1548.5,189.8,1547.9,189.7,1547.4,189.6z"/>
		<path class="st11" d="M1560.7,192.5l0.6,0.1L1560.7,192.5z"/>
		<path class="st12" d="M1549,190c3.6,0.9,7.4,1.7,11.7,2.5C1556.4,191.7,1552.6,190.8,1549,190z"/>
		<path class="st12" d="M1536.9,186.5c3.1,1.1,6.6,2.1,10.6,3.1C1543.5,188.6,1540,187.6,1536.9,186.5z"/>
		<path class="st12" d="M1593.4,197.1c-11.9-1.2-22.8-2.8-32.2-4.5C1570.7,194.3,1581.5,195.9,1593.4,197.1z"/>
		<path class="st10" d="M1525.1,347.3c0,0,75.9,21.2,165.2,9.8C1652.3,381.6,1558.6,371.8,1525.1,347.3z"/>
		<path class="st10" d="M1816.6,445.2c0,0-131.9,25.2-255.2,12.6C1600.1,489.2,1800.8,477.7,1816.6,445.2z"/>
	</g>
</g>
</svg>
