<?xml version="1.0" encoding="utf-8"?>
<!-- Generator: Adobe Illustrator 25.2.3, SVG Export Plug-In . SVG Version: 6.00 Build 0)  -->
<svg version="1.1" id="Layer_1" xmlns="http://www.w3.org/2000/svg" xmlns:xlink="http://www.w3.org/1999/xlink" x="0px" y="0px"
	 viewBox="0 0 1600 900" style="enable-background:new 0 0 1600 900;" xml:space="preserve">
<style type="text/css">
	.st0{clip-path:url(#SVGID_2_);}
	.st1{fill:url(#SVGID_3_);}
	.st2{fill:url(#SVGID_4_);}
	.st3{fill:url(#SVGID_5_);}
	.st4{fill:#92E05F;}
	.st5{opacity:0.49;fill:#A5EB98;enable-background:new    ;}
	.st6{opacity:0.53;fill:url(#SVGID_6_);enable-background:new    ;}
	.st7{fill:url(#SVGID_7_);}
	.st8{fill:#3EAF77;}
	.st9{fill:url(#SVGID_8_);}
	.st10{fill:url(#SVGID_9_);}
	.st11{fill:url(#SVGID_10_);}
	.st12{fill:url(#SVGID_11_);}
	.st13{opacity:0.56;fill:#C28A73;enable-background:new    ;}
	.st14{fill:#CE856B;}
	.st15{fill:#3BEAA2;}
	.st16{fill:url(#SVGID_12_);}
	.st17{fill:url(#SVGID_13_);}
	.st18{fill:url(#SVGID_14_);}
	.st19{fill:url(#SVGID_15_);}
	.st20{fill:url(#SVGID_16_);}
	.st21{opacity:0.36;fill:#B46747;enable-background:new    ;}
	.st22{fill:#B46747;}
	.st23{fill:#602D0B;}
	.st24{fill:#A8E533;}
	.st25{fill:url(#SVGID_17_);}
	.st26{fill:url(#SVGID_18_);}
	.st27{fill:url(#SVGID_19_);}
	.st28{fill:url(#SVGID_20_);}
	.st29{fill:url(#SVGID_21_);}
	.st30{fill:#7BE57F;}
	.st31{fill:url(#SVGID_22_);}
	.st32{fill:url(#SVGID_23_);}
	.st33{fill:url(#SVGID_24_);}
	.st34{fill:url(#SVGID_25_);}
	.st35{fill:url(#SVGID_26_);}
	.st36{fill:#6BBA2D;}
	.st37{fill:#83CC54;}
	.st38{fill:#899B1C;}
	.st39{fill:#256F41;}
	.st40{fill:#489439;}
	.st41{fill:#77481E;stroke:#3A1F08;stroke-width:0.75;stroke-miterlimit:10;}
	.st42{fill:#9B5C32;stroke:#49260C;stroke-width:0.75;stroke-miterlimit:10;}
	.st43{opacity:0.54;fill:#794B1B;enable-background:new    ;}
	.st44{fill:#794B1B;}
	.st45{fill:#A56E49;}
	.st46{fill:#5B2E10;}
	.st47{fill:#7A4C1C;}
	.st48{fill:none;}
	.st49{fill:#825026;}
	.st50{fill:url(#SVGID_27_);}
	.st51{fill:#29621F;}
	.st52{fill:#5F9F14;}
	.st53{fill:#6AAB1B;}
	.st54{fill:#70A415;}
	.st55{fill:#32742A;}
	.st56{fill:#437E16;}
	.st57{fill:#397622;}
	.st58{fill:#488D31;}
	.st59{fill:#458B2B;}
</style>
<g>
	<defs>
		<rect id="SVGID_1_" width="1600" height="900"/>
	</defs>
	<clipPath id="SVGID_2_">
		<use xlink:href="#SVGID_1_"  style="overflow:visible;"/>
	</clipPath>
	<g class="st0">
		
			<linearGradient id="SVGID_3_" gradientUnits="userSpaceOnUse" x1="668.0432" y1="33.6514" x2="966.813" y2="1510.6614" gradientTransform="matrix(1 0 0 -1 0 900)">
			<stop  offset="0.33" style="stop-color:#F5F7FD"/>
			<stop  offset="0.52" style="stop-color:#CDEBFD"/>
			<stop  offset="0.72" style="stop-color:#A8DFFD"/>
			<stop  offset="0.83" style="stop-color:#9ADBFD"/>
		</linearGradient>
		<rect x="-25.6" y="-11" class="st1" width="1658.9" height="411.6"/>
		
			<linearGradient id="SVGID_4_" gradientUnits="userSpaceOnUse" x1="1091.1725" y1="750.6676" x2="1151.4924" y2="811.0276" gradientTransform="matrix(1 0 0 -1 0 900)">
			<stop  offset="0.15" style="stop-color:#82CDD9"/>
			<stop  offset="0.82" style="stop-color:#D7EEF4"/>
		</linearGradient>
		<path class="st2" d="M1090.6,115.2c0,0,1.2-9.2,16.3-15.4s27.8-9.6,41-2.4s10.3,23.6,7.6,25.5c-5.4,3.7-17,8.7-48.1,3.9
			C1088.6,123.9,1090.6,115.2,1090.6,115.2z"/>
		
			<linearGradient id="SVGID_5_" gradientUnits="userSpaceOnUse" x1="1364.2078" y1="692.5522" x2="1458.8079" y2="787.2122" gradientTransform="matrix(1 0 0 -1 0 900)">
			<stop  offset="0.15" style="stop-color:#82CDD9"/>
			<stop  offset="0.9" style="stop-color:#D7EEF4"/>
		</linearGradient>
		<path class="st3" d="M1361.9,153.6c0,0,1.9-12.9,26.4-21.8s45.1-13.6,66.3-3.4s16.8,33.3,12.2,36.1c-8.8,5.3-27.6,12.2-77.9,5.4
			C1358.7,165.8,1361.9,153.6,1361.9,153.6z"/>
		<path class="st4" d="M-30.1,367.2c0,0,609.3-2.4,1039.3,22C1315.6,406.7,1630,408,1630,408l8.4,273.8l-16.8,213.4l-1747,27.3
			L-30.1,367.2z"/>
		<path class="st5" d="M517,389.6c0,0,191,48.9,620,47.4s559.7,4.5,559.7,4.5l-77.7-46.3l-538.7-2l-102.4-2.3L517,389.6z"/>
		
			<linearGradient id="SVGID_6_" gradientUnits="userSpaceOnUse" x1="604.5036" y1="99.5269" x2="1613.2236" y2="1151.597" gradientTransform="matrix(1 0 0 -1 0 900)">
			<stop  offset="3.000000e-02" style="stop-color:#77C4F9"/>
			<stop  offset="0.33" style="stop-color:#8ACBF7"/>
			<stop  offset="0.87" style="stop-color:#B4DAF3"/>
		</linearGradient>
		<path class="st6" d="M215.3,232.3c0,0,460.9,79.4,700.5-5.3c228.7-80.9,482.2,171.9,964.3,99.7l40.6,75L215.3,390.9V232.3z"/>
		
			<linearGradient id="SVGID_7_" gradientUnits="userSpaceOnUse" x1="328.1863" y1="375.9336" x2="821.4162" y2="890.3635" gradientTransform="matrix(1 0 0 -1 0 900)">
			<stop  offset="1.000000e-02" style="stop-color:#987CE4"/>
			<stop  offset="0.23" style="stop-color:#919FDF"/>
			<stop  offset="0.45" style="stop-color:#8BBCDB"/>
			<stop  offset="0.64" style="stop-color:#87CDD9"/>
			<stop  offset="0.78" style="stop-color:#86D3D8"/>
		</linearGradient>
		<path class="st7" d="M141.9,276.5c0,0,172,48.4,317.6-171.3c0,0,58.8-81.2,148.2-77.3c71.8,3.1,215.5,74.8,260.4,292
			c0,0,10.7,52,4.9,77.8l-738-10.6L141.9,276.5z"/>
		<path class="st8" d="M77.4,299.2c0,0,0.6-49.2,30.2-55.5s48.2,18.2,48.2,18.2s7.1-24.5,28.3-27.7s37.9,23,37.9,23
			s43.7-13.5,46.9,25.4c0,0,38.5-16.6,45.6,31.7c0,0,27.6-5.5,31.5,27.8c0,0,51.4-9.5,43.7,27c0,0,40.5-7.9,27,26.2H119.8
			L77.4,299.2z"/>
		
			<linearGradient id="SVGID_8_" gradientUnits="userSpaceOnUse" x1="-112.258" y1="438.3835" x2="288.492" y2="562.3934" gradientTransform="matrix(1 0 0 -1 0 900)">
			<stop  offset="3.000000e-02" style="stop-color:#219F68"/>
			<stop  offset="0.84" style="stop-color:#3FE28C"/>
			<stop  offset="0.94" style="stop-color:#43EA90"/>
		</linearGradient>
		<path class="st9" d="M-119.2,426.1c0,0-46.4-37.7,32.3-53c0,0-26.2-27.5,0-50.9c0,0,19.2-19.4,52.4-7.1c0,0,38.3-40.7,91.7-15.3
			c0,0,47.4-15.3,78.6,3.1s20.2,55.9,20.2,55.9s45.7-17.8,64.9,21.5c0,0,60.6-13.3,60.6,26.4c0,0,46-11.6,80.7,27.3
			c0,0,64-26.2,49.9-2.8l-24.2,11.2l-496-9.2L-119.2,426.1z"/>
		
			<linearGradient id="SVGID_9_" gradientUnits="userSpaceOnUse" x1="659.4302" y1="340.3899" x2="956.9301" y2="639.7098" gradientTransform="matrix(1 0 0 -1 0 900)">
			<stop  offset="3.000000e-02" style="stop-color:#2EB691"/>
			<stop  offset="0.85" style="stop-color:#42D984"/>
		</linearGradient>
		<path class="st10" d="M557.3,399.7c0,0-5.7-69.3,58.5-96.3c27.6-11.6,39.4,4.8,39.4,4.8s19.3-21.7,43.4-19.2s46.6,27.2,46.6,27.2
			s50.7-14.4,66.7,5.6c0,0,8,7.6,3.2,18.2c0,0,69.1-19.8,76.4,29.7c0,0,41-5,48.2,29.4c0,0,55.9-28.5,81.8,19.3
			c0,0,54.3-1.4,68.6,18.6l-17.4,0.1l-504.1-4.5L557.3,399.7z"/>
		
			<linearGradient id="SVGID_10_" gradientUnits="userSpaceOnUse" x1="474.4236" y1="359.3076" x2="516.5737" y2="595.3676" gradientTransform="matrix(1 0 0 -1 0 900)">
			<stop  offset="0.55" style="stop-color:#5FC687"/>
			<stop  offset="0.62" style="stop-color:#67CA89"/>
			<stop  offset="0.73" style="stop-color:#7DD68D"/>
			<stop  offset="0.85" style="stop-color:#9EE793"/>
		</linearGradient>
		<path class="st11" d="M281,430.2c0,0-10-27.4,24-39.1c0,0-19.5-20.3,0-37.6c0,0,14.2-14.3,38.9-5.3c0,0,22.8-33.2,68-11.3
			c0,0,35.1-11.3,58.3,2.3s19.3,35.9,19.3,35.9s30.7-15.7,50.2,8.5c0,0,36.2-7.8,40.4,19.5c0,0,41.5-17.3,57.6,16.5
			c0,0,53.4-8.4,72.4,14.4h-45.3l-362-1.4L281,430.2z"/>
		
			<linearGradient id="SVGID_11_" gradientUnits="userSpaceOnUse" x1="-2184.6123" y1="450.8703" x2="-2188.9224" y2="671.8503" gradientTransform="matrix(-1 0 0 -1 -1420.73 900)">
			<stop  offset="0" style="stop-color:#907D61"/>
			<stop  offset="0.36" style="stop-color:#6D6B4D"/>
			<stop  offset="0.58" style="stop-color:#5E6345"/>
		</linearGradient>
		<path class="st12" d="M662.9,434.7c-0.2-0.5,1.2-0.9,2.5-2.7c1-1.3,1.9-2.7,2.6-4.2c1.1-4.4,4.6-9.7,6-11.7
			c4.6-6.2,6.8-15.6,10.3-31.1c2-8.8,3.5-17.7,4.5-26.7c0.3-15.5-1.9-27.2-6.3-33.9c-4.7-7.4-8.9-15-12.5-23c0,0-25.8,1.2-28,0
			s-8.5-6.7-7.3-21.1l-0.4-3.5l6.6,1.9c0,0,2,12.9,10.5,13.9c10.1,1.4,21.7-4.8,20-13.9h7.4c0,0-2.3,26.5,8.9,32.1
			c8.3,2.2,13.2-1.3,12.8-16.8l-0.4-15.5h13.2c0,0-0.8,16.5,0,17.5s6.6,11.2,12.8-9.8c5.3-14.8,2.3-7.7,2.3-7.7l7.2,0.2
			c0,0-3.2,16.3-13.8,26.5c-7,9.8-7.2,26.2-1.9,32c5.7,5.8,15.3,9,22.6-25.4c4.9-22.8,6.2-33.1,6.2-33.1l10.2-0.1
			c0,0-4.2,27.2-3.4,32c0.9,5.4,1.3,22,23.5,15c53.3-15.3-8-37.5-0.4-50.1c2.2-3.6,36.5,36,39.7,26.3c5-15.2,7.8-23.9,7.8-23.9
			l8.3-0.2c0,0,0.4,8.9-1.3,11.3c2.7,0.2,24.7-1.7,34.5-6.5c8.8-4.3,20.2-10.5,21.1-12.9c2.2-0.1,9,0.1,11.2,0
			c-1.7,4.4-4.6,6.1-6.7,7.8c-8.1,6.2-25.4,14.5-55.1,18.6c-2.4,0.2-4.7,0.5-7,1c0,0.1-0.1,0.9-0.1,0.9s-1.2,22.4-27.7,33.1
			c-23.7,9.4-34.1,14.2-40.1,18s-10.2,7.8-9.2,20.8c0.9,10.4,0.4,20.8-1.7,31c-2.4,11.8-6.8,23.1-13,33.5
			c-20.4,0.7-33.5,0.8-41.9,0.7c-16.8-0.2-26.4-1-31.5,0.2C666,435,663.2,435.3,662.9,434.7z"/>
		<path class="st13" d="M685.9,378.2c5.2,2.2,14.5,6.2,19.4,11.2c18,18.3,5.8,42.4,4.4,45l-47.6,0.6c3-3,5.5-6.6,7.2-10.6
			C676.1,409.1,684.5,390.4,685.9,378.2z"/>
		<path class="st14" d="M744.2,305.4c0,0-8.8,34.6-15.7,34.4C735.6,343.3,749,333.7,744.2,305.4z"/>
		<path class="st15" d="M876.6,201.4c-2-14.9-7.4-37.5-23.7-55.9c-43.8-49.8-127.8-26.6-154.6-19.2C632,144.6,589,188.6,568,214.2
			l-10.4,8.2c55,10.1,110.8,14.7,166.6,14c48.6-0.7,97.2-5.4,145-14.3L876.6,201.4z"/>
		
			<linearGradient id="SVGID_12_" gradientUnits="userSpaceOnUse" x1="-2112.3379" y1="625.231" x2="-2238.1477" y2="923.3309" gradientTransform="matrix(-1 0 0 -1 -1420.73 900)">
			<stop  offset="0.26" style="stop-color:#55B093"/>
			<stop  offset="0.39" style="stop-color:#61C489"/>
			<stop  offset="0.56" style="stop-color:#6DDB7D"/>
			<stop  offset="0.68" style="stop-color:#72E379"/>
		</linearGradient>
		<path class="st16" d="M876,200.5c-2-14.4-7.4-36.1-23.4-53.8c-43.4-47.9-126.5-25.6-153-18.5c-65.6,17.7-108.1,60-129,84.7
			l-10.3,7.9c54.4,9.7,109.6,14.2,164.9,13.5c48.1-0.6,96.1-5.2,143.5-13.7L876,200.5z"/>
		<path class="st15" d="M604.9,208.9c0,0-60.7-13.9-87.6,28.5c-17.5,33-20.6,43.6,87.6,37.7C623.2,222.3,604.9,208.9,604.9,208.9z"
			/>
		
			<linearGradient id="SVGID_13_" gradientUnits="userSpaceOnUse" x1="-1893.7581" y1="557.1619" x2="-2036.6082" y2="697.062" gradientTransform="matrix(-1 0 0 -1 -1420.73 900)">
			<stop  offset="0.23" style="stop-color:#2FAC76"/>
			<stop  offset="0.54" style="stop-color:#31AD79"/>
			<stop  offset="0.74" style="stop-color:#36B281"/>
			<stop  offset="0.88" style="stop-color:#3DB98E"/>
		</linearGradient>
		<path class="st17" d="M603.4,210.1c0,0-59-14.2-85.1,29c-17,33.5-20.1,44.4,85.1,38.3C621.1,223.8,603.4,210.1,603.4,210.1z"/>
		<path class="st15" d="M863.6,271.1c1.8,0,54.9-3.7,54.9-3.7s32.9-6.9,14-23.7c-4.8-2.3-8.9-5.8-12-10.2c-3.8-5.5-2.8-8.2-5.2-13.3
			c-7.6-16.1-33.2-21.5-33.2-21.5l0,0c0,0-44.9-10.5-70.7,3.4c-2.9,1.6,6,5.8,4.9,7.3c-11.9,15.7,25.1,61.7,25.1,61.7H863.6z"/>
		
			<linearGradient id="SVGID_14_" gradientUnits="userSpaceOnUse" x1="-2282.2012" y1="621.3197" x2="-2320.8811" y2="760.2797" gradientTransform="matrix(-1 0 0 -1 -1420.73 900)">
			<stop  offset="0.26" style="stop-color:#55B093"/>
			<stop  offset="0.39" style="stop-color:#61C489"/>
			<stop  offset="0.56" style="stop-color:#6DDB7D"/>
			<stop  offset="0.68" style="stop-color:#72E379"/>
		</linearGradient>
		<path class="st18" d="M836.8,271.4c1.8,0,100.1-2,100.1-2s17.8-2.7,7.9-19.3c-5.8-8.3-10-14.6-13.6-20c-3.6-5.5-13.4-13.9-20-18.6
			C895,198.7,864,197.9,864,197.9l0,0c0,0-33.5-7.1-58.3,6.8c-2.8,1.6-4.1,2.4-5.2,3.8c-11.5,15.8,24.3,61.9,24.3,61.9L836.8,271.4z
			"/>
		<path class="st15" d="M859.2,228.9c0,0-30.2-25.2-61.9-35c-34.6-14.8-80.4-47.9-135.9-32.6c-42.9,14.3-75,34-94,70.6
			c-9.3,21.2-10.7,46.9,59.9,43.4l196.8,0.3C824.2,275.6,901.1,269.8,859.2,228.9z"/>
		
			<linearGradient id="SVGID_15_" gradientUnits="userSpaceOnUse" x1="-2121.8059" y1="582.7983" x2="-2181.0059" y2="786.5383" gradientTransform="matrix(-1 0 0 -1 -1420.73 900)">
			<stop  offset="7.000000e-02" style="stop-color:#39A57E"/>
			<stop  offset="0.67" style="stop-color:#72E379"/>
		</linearGradient>
		<path class="st19" d="M863.4,232.4c0,0-30.5-25.6-62.6-35.6c-35-15-81.3-48.7-137.5-33.1c-43.4,14.5-75.9,34.6-95.1,71.7
			c-9.4,21.6-10.8,47.6,60.6,44.1l199.1,0.3C827.9,279.9,905.8,274,863.4,232.4z"/>
		<path class="st14" d="M634.5,279.5c0,0-0.9,14.4,5.7,20.2c2,2,3.5,2,5.9,2c-4.2-1.7-7.3-5.4-8.2-9.9c-0.9-4.1-1.5-8.2-1.8-12.4
			L634.5,279.5L634.5,279.5z"/>
		<path class="st14" d="M700.2,279.6c0.3,2.6,0.5,10.5,0.3,12.3c-0.5,7.8-1,16.6-5.7,18.9c-1.1,0.5-2.4,0.7-3.6,0.5l-1.8-0.2
			c2.2,2.9,4.2,3.1,4.8,3.2c3.9,0.2,8.5-5.2,9.7-13.9c0.7-4.1,1-8.3,0.8-12.5c-0.2-3.5-0.7-8.2-0.7-8.2l0,0L700.2,279.6z"/>
		
			<linearGradient id="SVGID_16_" gradientUnits="userSpaceOnUse" x1="-1950.8634" y1="429.4509" x2="-1959.1732" y2="855.1909" gradientTransform="matrix(-1 0 0 -1 -1782.11 900)">
			<stop  offset="0" style="stop-color:#A3513F"/>
			<stop  offset="0.14" style="stop-color:#A0513F"/>
			<stop  offset="0.26" style="stop-color:#95503F"/>
			<stop  offset="0.38" style="stop-color:#835040"/>
			<stop  offset="0.48" style="stop-color:#6B4F41"/>
			<stop  offset="0.59" style="stop-color:#4B4D42"/>
			<stop  offset="0.67" style="stop-color:#2D4C43"/>
		</linearGradient>
		<path class="st20" d="M54.2,448.8c-0.3-0.7,1.8-1.8,3.5-4.4c1.2-1.8,2-3.9,2.3-6c1.5-6.3,7.5-13.9,9.4-16.7
			c6.2-8.9,9.2-22.3,14-44.4c2.8-12.6,4.8-25.3,6.1-38.1c0.4-22.1-2.5-38.8-8.5-48.4c-6.4-10.5-12.1-21.5-17-32.8c0,0-35,1.7-38,0
			s-11.5-9.6-10-30.1l-0.5-4.9l9,2.6c0,0,2.8,18.4,14.3,19.8c13.7,2,29.4-6.9,27.1-19.8h10c0,0-3.1,37.8,12,45.7
			c11.3,3.1,17.9-1.8,17.4-23.9l-0.5-22.1h17.9c0,0-1,23.5,0,24.9s9,15.9,17.4-14c7.2-21.1,3.1-10.9,3.1-10.9l9.7,0.2
			c0,0-4.4,23.2-18.7,37.8c-9.5,14-9.7,37.3-2.6,45.6c7.7,8.3,20.7,12.8,30.7-36.2c6.7-32.5,8.4-47.1,8.4-47.1l13.8-0.2
			c0,0-5.6,38.8-4.6,45.6c1.3,7.7,1.8,31.3,32,21.4c15.7-2.4,47.1-11.1,60.2-37.3c4.9-22.2,3.8-30.8,3.8-30.8l11.3-0.3
			c0,0-0.3,12.8-2.6,16.3c7,0.5,14-1.1,20.1-4.6c11.6-6.7,16.3-18.1,17.5-21.5l9-0.4c-2.1,6.1-5.2,11.7-9.1,16.8
			c-8.9,11.2-21.3,17.4-30.4,18.9c-1.8,0.3-9,1.3-9,1.6c0,0.1,0.5,0.1,0.5,0.1s-2.3,33.6-38.4,49c-32.2,13.4-46.3,20.2-54.5,25.6
			s-13.8,11.1-12.5,29.6c1.3,14.8,0.5,29.7-2.3,44.3c-3.2,16.8-9.2,32.9-17.7,47.7c-27.7,1-45.5,1.1-56.9,0.9
			c-22.9-0.2-35.9-1.5-42.8,0.3C58.6,448.7,54.6,449.7,54.2,448.8z"/>
		<path class="st21" d="M90.2,334.4c8.7,5.5,16.1,12.8,21.7,21.4c24.5,37.3,7.8,86.4,5.9,91.7l-64.7,1.3c4.6-7,8.7-14.3,12.4-21.9
			C82.6,392.7,88.4,359.3,90.2,334.4z"/>
		<path class="st22" d="M164.8,263.8c0,0-12,49.4-21.4,49C153.1,317.9,171.2,304.2,164.8,263.8z"/>
		<path class="st23" d="M97.7,393.8c1.2,0.2,2.4,0.3,3.6,0.3c1.2,0,2.3-0.2,3.4-0.7c0.5-0.3,0.9-0.7,1.2-1.2
			c0.2-0.5,0.4-1.1,0.3-1.6c-0.1-1.2-0.5-2.3-1-3.3c-1-2.1-2.3-4.1-3.9-5.9c-1.5-1.8-3.3-3.3-5.2-4.5c-1-0.6-2-0.9-3.2-1
			c-1,0-2,0.6-2.6,1.5c-1.1,2-1.7,4.3-1.8,6.5c-0.1,4.7,0.5,9.4,1.8,14v-0.1c2.5,4.5,5.5,8.9,9.5,12c1,0.8,2.1,1.4,3.2,1.9
			c1.1,0.5,2.3,0.5,3.4,0c1.1-0.6,1.9-1.5,2.5-2.5c0.6-1.1,1.1-2.3,1.5-3.5c1.3-5,1.9-10.1,1.6-15.3c-0.1-5.2-0.2-10.4-0.2-15.7
			c0.3,5.2,0.5,10.4,0.8,15.6c0.4,5.3-0.1,10.6-1.3,15.7c-0.4,1.3-0.9,2.5-1.5,3.7c-0.7,1.3-1.7,2.3-2.9,3c-1.4,0.6-2.9,0.6-4.2,0
			c-1.3-0.5-2.5-1.2-3.5-2c-2.1-1.7-4-3.6-5.6-5.7c-1.6-2.1-3-4.3-4.3-6.6v-0.1v-0.1c-1.4-4.7-1.9-9.5-1.8-14.4c0-2.5,0.7-4.9,2-7.1
			l0.3-0.4c0.1-0.1,0.2-0.2,0.3-0.4c0.1-0.1,0.2-0.2,0.4-0.3l0.4-0.3c0.3-0.2,0.6-0.3,1-0.4c0.3-0.1,0.7-0.1,1-0.1
			c1.3,0.1,2.5,0.5,3.6,1.2c2.1,1.3,3.9,2.9,5.4,4.8c1.6,1.9,2.8,3.9,3.8,6.1c0.5,1.1,0.8,2.3,0.9,3.5c0,0.6-0.1,1.3-0.4,1.8
			c-0.3,0.6-0.8,1-1.3,1.3c-1.1,0.5-2.3,0.7-3.6,0.6C100.1,394.3,98.9,394.1,97.7,393.8z"/>
		<path class="st24" d="M365.1,114.2c-2.9-19.2-10.2-48.6-33.5-72C270.9-18.7,150.7,7.9,112.7,17.5C23.3,40-46.4,102.7-71.8,130.8
			l-14.8,10.6c77.9,13,156.8,19,235.8,18.1c68.8-0.8,137.4-7,205.2-18.4L365.1,114.2z"/>
		
			<linearGradient id="SVGID_17_" gradientUnits="userSpaceOnUse" x1="-1918.8439" y1="556.66" x2="-1925.434" y2="983.0899" gradientTransform="matrix(-1 0 0 -1 -1782.11 900)">
			<stop  offset="0.52" style="stop-color:#0B5A42"/>
			<stop  offset="0.54" style="stop-color:#105F41"/>
			<stop  offset="0.69" style="stop-color:#419233"/>
			<stop  offset="0.82" style="stop-color:#66B829"/>
			<stop  offset="0.93" style="stop-color:#7CCF23"/>
			<stop  offset="1" style="stop-color:#84D721"/>
		</linearGradient>
		<path class="st25" d="M365.2,117.1c-2.9-19.3-10.5-48.5-33.4-72.3c-61.9-64.4-180.4-34.4-218.3-24.8
			C19.9,43.7-40.7,100.6-70.4,133.7l-14.7,10.6c77.7,13,156.4,19.1,235.2,18.2c68.6-0.9,137-7,204.6-18.5L365.2,117.1z"/>
		<path class="st24" d="M408.5,145.5c0,0-37.9-37.2-96.8-61.9c-70.6-29.7-137.2-60-228.3-39.4C12.1,66.1-41.3,96.3-73,152.2
			c-15.4,32.5-17.8,71.8,99.7,66.5l327.4,0.5C354.1,219.2,486.2,219.2,408.5,145.5z"/>
		
			<linearGradient id="SVGID_18_" gradientUnits="userSpaceOnUse" x1="-1920.0958" y1="580.8884" x2="-2064.8059" y2="1091.9784" gradientTransform="matrix(-1 0 0 -1 -1782.11 900)">
			<stop  offset="0.15" style="stop-color:#0E5747"/>
			<stop  offset="0.22" style="stop-color:#165F45"/>
			<stop  offset="0.35" style="stop-color:#2C7740"/>
			<stop  offset="0.5" style="stop-color:#519C37"/>
			<stop  offset="0.68" style="stop-color:#82D02B"/>
			<stop  offset="0.79" style="stop-color:#A6F522"/>
		</linearGradient>
		<path class="st26" d="M412.2,152.5c0,0-53.7-52.5-106.4-68.1C248.3,61.1,175.6,21.9,83.3,46C12,68.5-41.5,99.6-73.1,157.1
			c-15.4,33.4-17.8,73.9,99.6,68.4l327.3,0.5C353.9,226,481.9,217,412.2,152.5z"/>
		<path class="st22" d="M15.7,226.2c0,0-1.3,21.3,7.7,29.6c2.7,2.9,4.8,2.8,8,2.9c-5.8-2.6-10-7.8-11.2-14.1
			c-1.3-6.3-2.1-12.6-2.3-19h-2.2V226.2z"/>
		<path class="st22" d="M105.1,225.4c0.4,3.7,0.5,16.7,0.4,19.2c-0.6,11.1-1.3,23.7-7.8,26.9c-1.5,0.7-3.2,1-4.8,0.7l-2.4-0.3
			c3,4.1,5.7,4.5,6.6,4.5c5.3,0.3,11.6-7.4,13.1-19.9c1-5.9,1.3-11.9,1.1-17.9c-0.2-5-1.1-13.4-1.1-13.4H105.1z"/>
		
			<linearGradient id="SVGID_19_" gradientUnits="userSpaceOnUse" x1="409.5166" y1="277.9219" x2="694.5867" y2="779.2119" gradientTransform="matrix(1 0 0 -1 0 900)">
			<stop  offset="8.000000e-02" style="stop-color:#21607B"/>
			<stop  offset="0.28" style="stop-color:#238C77"/>
			<stop  offset="0.48" style="stop-color:#25AF74"/>
			<stop  offset="0.64" style="stop-color:#27C472"/>
			<stop  offset="0.74" style="stop-color:#27CC71"/>
		</linearGradient>
		<path class="st27" d="M162.9,494.4c0,0-47.3-35.6,8.7-69.9c42.2-25.8,92.6-19.9,92.6-19.9s19.2-28.6,68.2-28.6
			c48.3,0,70.7,27.9,70.7,27.9s53.3-17.7,86.5,3.7c36,23.3,30.6,25.3,30.6,25.3s55.9-9.4,79.9,49.5c0,0,224.9,10.7,234.9,26
			l-277.2-6l-395,0.1L162.9,494.4z"/>
		
			<linearGradient id="SVGID_20_" gradientUnits="userSpaceOnUse" x1="-4.6516" y1="259.5381" x2="297.4572" y2="505.439" gradientTransform="matrix(1 0 0 -1 0 900)">
			<stop  offset="0.15" style="stop-color:#108937"/>
			<stop  offset="0.33" style="stop-color:#1C9C45"/>
			<stop  offset="0.69" style="stop-color:#3BCC67"/>
			<stop  offset="0.73" style="stop-color:#3FD26C"/>
		</linearGradient>
		<path class="st28" d="M-90.4,499.6c0,0,73.7-87.6,155.1-62.3c0,0,65.6-45.2,113.9,11.6c0,0,84.5-5,100.8,28.2
			c0,0,78.6-6.6,101,31.5l22,14.9l-500.9,1.7L-90.4,499.6z"/>
		
			<linearGradient id="SVGID_21_" gradientUnits="userSpaceOnUse" x1="-708.4847" y1="399.4934" x2="-490.5747" y2="699.7634" gradientTransform="matrix(-1 0 0 -1 1031.83 900)">
			<stop  offset="2.000000e-02" style="stop-color:#10A159"/>
			<stop  offset="0.23" style="stop-color:#12A45A"/>
			<stop  offset="0.35" style="stop-color:#17AC5E"/>
			<stop  offset="0.46" style="stop-color:#20BB64"/>
			<stop  offset="0.55" style="stop-color:#2CCF6D"/>
			<stop  offset="0.59" style="stop-color:#33DA71"/>
		</linearGradient>
		<path class="st29" d="M1859.3,402.4c0,0-22.8-18.3-66.8-12.1c0,0-8,2.5-5.6-7.4c2.1-8.5-0.7-20.2-24.8-13.6
			c-13.6,3.7-24.8,12.4-24.8,12.4s-3.2,1.9,0-5.6s-0.8-13.6-12.8-13.6s-23.2,6.2-23.2,6.2s-8-11.2-28.8-12.4s-30.4,3.7-30.4,3.7
			s-4.8-15.6-30.4-16.7c-13.6-0.6-25.6,8.7-25.6,8.7s-32-4.3-56.8,14.3c0,0-5.6-7.4-19.2-6.2s-25.6,18-31.2,33.5l-1.4,6.8
			L1859.3,402.4z"/>
		<path class="st30" d="M1039.9,439c0,0-14.8-8.1-18.8-7.4s4.1-7.2,16,1.8C1041.9,437,1039.9,439,1039.9,439z"/>
		<path class="st30" d="M1043.1,439c0,0-6.2-18.6-12.9-20.5s10.6-4.8,14.1,7.8C1046.7,434.9,1043.1,439,1043.1,439z"/>
		<path class="st30" d="M1045.1,439c0,0,7.2-13.2,21.6-13.7s-21.6,14.5-21.6,14.5"/>
		
			<linearGradient id="SVGID_22_" gradientUnits="userSpaceOnUse" x1="868.0076" y1="601.978" x2="904.7603" y2="631.8859" gradientTransform="matrix(0.9912 0.1323 0.1323 -0.9912 -39.6408 920.254)">
			<stop  offset="0.18" style="stop-color:#108937"/>
			<stop  offset="0.32" style="stop-color:#109730"/>
			<stop  offset="0.72" style="stop-color:#11B81F"/>
			<stop  offset="0.94" style="stop-color:#11C418"/>
		</linearGradient>
		<path class="st31" d="M915,437.3c0,0-11.3,0-17.1-3.8s8.1-2,19.2-0.2c0,0-1-0.9-9.6-5.4s-6.2-8,0.6-4.8c4.7,2.4,9.3,5.2,13.6,8.3
			c0,0-12.4-10.1-12.5-12.1s2.2-2,13.7,10.6c0,0-10.5-10.6-8.3-15.8s10.2,14.6,10.2,14.6s-7-21.3-2.1-22.2s3.8,21.2,3.8,21.2
			s4.8-12.3,12.2-12.1s-9.6,13.2-11.2,13.4c0,0,0.7,0.9,3.1,0.4s9.2-7,13.1-7.2s9.6,4.4-12.9,14.7L915,437.3z"/>
		
			<linearGradient id="SVGID_23_" gradientUnits="userSpaceOnUse" x1="227.8351" y1="486.4413" x2="311.8346" y2="554.8138" gradientTransform="matrix(0.9912 0.1323 0.1323 -0.9912 -39.6408 920.254)">
			<stop  offset="0.18" style="stop-color:#108937"/>
			<stop  offset="0.49" style="stop-color:#47AB50"/>
			<stop  offset="0.94" style="stop-color:#94DA73"/>
		</linearGradient>
		<path class="st32" d="M284,465.8c0,0-26,0.1-39.1-8.8s18.5-4.7,43.9-0.4c0,0-2.4-2.1-22-12.3s-14.1-18.4,1.5-11s31,19,31,19
			s-28.3-23.1-28.6-27.6s5.1-4.7,31.2,24.3c0,0-24.1-24.2-18.9-36s23.3,33.5,23.3,33.5s-15.9-48.6-4.9-50.7s8.7,48.5,8.7,48.5
			s10.9-28.1,27.9-27.6s-22,30.1-25.6,30.6c0,0,1.5,2,7,0.9s21.1-16,30-16.6c9-0.6,21.9,10.1-29.5,33.6L284,465.8z"/>
		<path class="st30" d="M701.2,437.1c0,0-11.7-8-14.8-7.2s3.2-7,12.6,1.7C702.8,435.1,701.2,437.1,701.2,437.1z"/>
		<path class="st30" d="M703.7,437.1c0,0-4.9-18.1-10.2-20s8.4-4.7,11.1,7.6C706.6,433.1,703.7,437.1,703.7,437.1z"/>
		<path class="st30" d="M705.3,437.1c0,0,5.7-12.9,17-13.4s-17,14.2-17,14.2"/>
		<path class="st30" d="M289.6,512.7c0,0-11.7-8-14.8-7.2s3.2-7,12.6,1.7C291.2,510.7,289.6,512.7,289.6,512.7z"/>
		<path class="st30" d="M289.6,513.6c0,0-4.9-18.1-10.2-20s8.4-4.7,11.1,7.6C292.4,509.6,289.6,513.6,289.6,513.6z"/>
		<path class="st30" d="M289.9,511.9c0,0,5.6-12.9,17-13.4s-17,14.2-17,14.2"/>
		<path class="st30" d="M562.3,491.6c0,0-11.7-8-14.8-7.2s3.2-7,12.6,1.7C563.9,489.6,562.3,491.6,562.3,491.6z"/>
		<path class="st30" d="M564.8,491.6c0,0-4.9-18.1-10.2-20s8.4-4.6,11.1,7.6C567.6,487.6,564.8,491.6,564.8,491.6z"/>
		<path class="st30" d="M566.4,491.6c0,0,5.7-12.9,17-13.4s-17,14.2-17,14.2"/>
		<path class="st30" d="M570.9,436.9c0,0-9.5-6.9-12-6.3s2.6-6.1,10.2,1.5C572.2,435.2,570.9,436.9,570.9,436.9z"/>
		<path class="st30" d="M573,436.9c0,0-4-15.8-8.2-17.4s6.8-4.1,9,6.6C575.3,433.4,573,436.9,573,436.9z"/>
		<path class="st30" d="M574.3,436.9c0,0,4.6-11.3,13.8-11.7s-13.8,12.3-13.8,12.3"/>
		<path class="st30" d="M972.3,511.5c0,0,14.8-8.2,18.8-7.4s-4.1-7.2-16,1.8C970.3,509.5,972.3,511.5,972.3,511.5z"/>
		<path class="st30" d="M969.1,511.5c0,0,6.2-18.6,12.9-20.5s-10.6-4.8-14.1,7.8C965.5,507.4,969.1,511.5,969.1,511.5z"/>
		<path class="st30" d="M967,511.5c0,0-7.2-13.2-21.6-13.7s21.6,14.5,21.6,14.5"/>
		
			<linearGradient id="SVGID_24_" gradientUnits="userSpaceOnUse" x1="258.2831" y1="446.8802" x2="295.0519" y2="476.8092" gradientTransform="matrix(-0.99 0.13 -0.13 -0.99 1424.51 919.16)">
			<stop  offset="0.18" style="stop-color:#108937"/>
			<stop  offset="0.32" style="stop-color:#109730"/>
			<stop  offset="0.72" style="stop-color:#11B81F"/>
			<stop  offset="0.94" style="stop-color:#11C418"/>
		</linearGradient>
		<path class="st33" d="M1097.1,509.8c0,0,11.4,0,17.1-3.9s-8.1-2-19.2-0.2c0,0,1-0.9,9.7-5.4s6.2-8-0.6-4.8
			c-4.7,2.4-9.3,5.2-13.6,8.3c0,0,12.4-10.1,12.5-12.1s-2.2-2-13.7,10.6c0,0,10.5-10.6,8.3-15.8s-10.2,14.6-10.2,14.6
			s7-21.3,2.1-22.2s-3.8,21.2-3.8,21.2s-4.8-12.3-12.2-12.1s9.6,13.2,11.2,13.4c0,0-0.7,0.9-3.1,0.4s-9.2-7-13.1-7.3
			s-9.6,4.4,12.9,14.7L1097.1,509.8z"/>
		<path class="st30" d="M1310.9,509.6c0,0,11.7-8,14.8-7.2s-3.2-7-12.6,1.7C1309.3,507.6,1310.9,509.6,1310.9,509.6z"/>
		<path class="st30" d="M1308.4,509.6c0,0,4.9-18.1,10.2-20s-8.4-4.7-11.1,7.6C1305.6,505.6,1308.4,509.6,1308.4,509.6z"/>
		<path class="st30" d="M1306.8,509.6c0,0-5.7-12.9-17-13.4s17,14.2,17,14.2"/>
		<path class="st30" d="M1449.8,564.1c0,0,11.7-8,14.8-7.2s-3.2-7-12.6,1.7C1448.3,562.1,1449.8,564.1,1449.8,564.1z"/>
		<path class="st30" d="M1447.3,564.1c0,0,4.9-18.2,10.2-20s-8.4-4.7-11.1,7.6C1444.5,560.1,1447.3,564.1,1447.3,564.1z"/>
		<path class="st30" d="M1445.7,564.1c0,0-5.7-12.9-17-13.4s17,14.2,17,14.2"/>
		<path class="st30" d="M1441.2,509.4c0,0,9.4-6.9,12-6.3s-2.6-6.1-10.2,1.5C1439.9,507.7,1441.2,509.4,1441.2,509.4z"/>
		<path class="st30" d="M1439.2,509.4c0,0,4-15.8,8.2-17.4s-6.8-4.1-9,6.6C1436.9,505.9,1439.2,509.4,1439.2,509.4z"/>
		<path class="st30" d="M1437.9,509.4c0,0-4.6-11.3-13.8-11.7s13.8,12.4,13.8,12.4"/>
		
			<linearGradient id="SVGID_25_" gradientUnits="userSpaceOnUse" x1="-400.8528" y1="375.3228" x2="-103.3528" y2="674.6528" gradientTransform="matrix(-1 0 0 -1 1031.83 900)">
			<stop  offset="3.000000e-02" style="stop-color:#2EB691"/>
			<stop  offset="0.77" style="stop-color:#42D984"/>
		</linearGradient>
		<path class="st34" d="M1534.8,364.8c0,0,5.7-69.3-58.5-96.3c-27.6-11.6-39.4,4.8-39.4,4.8s-19.3-21.7-43.4-19.2
			c-24.1,2.5-46.6,27.2-46.6,27.2s-50.6-14.4-66.7,5.6c0,0-8,7.6-3.2,18.2c0,0-69.1-19.8-76.4,29.7c0,0-41-5-48.2,29.4
			c0,0-58.2-17.8-81.8,19.3c0,0-54.3-1.4-68.6,18.6l17.4,0.1l504.1-4.5L1534.8,364.8z"/>
		
			<linearGradient id="SVGID_26_" gradientUnits="userSpaceOnUse" x1="-595.7226" y1="407.6601" x2="-455.2526" y2="654.6701" gradientTransform="matrix(-1 0 0 -1 1031.83 900)">
			<stop  offset="0" style="stop-color:#21607B"/>
			<stop  offset="0.23" style="stop-color:#238C77"/>
			<stop  offset="0.45" style="stop-color:#25AF74"/>
			<stop  offset="0.62" style="stop-color:#27C472"/>
			<stop  offset="0.74" style="stop-color:#27CC71"/>
		</linearGradient>
		<path class="st35" d="M1801,401.7c0,0,47.4-35.6-8.7-69.8c-42.2-25.8-92.6-19.8-92.6-19.8s-32.6-16-68.5-17.4
			s-70.4,16.7-70.4,16.7s-59-6.5-86.2,6.6c-38.7,18.6-29.7,30.8-29.7,30.8s-30.1-5.5-63.9,35.8c0,0-63.4-10.6-71.9,17.3l96.9,8.3
			l395,0.1L1801,401.7z"/>
		<path class="st36" d="M1674.2,435.3c0,0-90.2-8.1-189.9-5.8c0,0-80.2-4.2-139.4,1.1c0,0-103.4-0.5-123.3,2.6
			c0,0-96.2-0.6-123.6,2.9l-26.9,1.4l614.4,1.4L1674.2,435.3z"/>
		<path class="st37" d="M279,643c-27.5,26.9,49.9,37.1,74.3,42.3s349.8-10.4,432.5-6s274.5,12.9,334.9,25s69.2,25,71.6,32.7
			s-44,32.9-92.7,41.5s89.7,22.4,159.1,27.6s291.2,3.6,359.3-6.1c22.7-3.2,36.3-3.1,44.4-1.6l4.3-107c0,0-197.1,2.6-268.6,0
			s-290.3-8.6-547.8-64.7c-221.6-48.3-456.7-57.6-517.9-59.3C361.7,591,306.4,616,279,643z"/>
		<path class="st38" d="M1158.7,907.9c-76.2-0.8-393.5,6.8-418.8-39.4c-2.3-3.9-2.8-8.5-1.4-12.8c-4.2,7.2-5.3,15.3-2.3,24.6
			c17.6,53.3,343.5,35.6,419.7,36.4s524.9-13.9,524.9-13.9v-8.7C1643.4,895.3,1231.5,908.7,1158.7,907.9z"/>
		<path class="st39" d="M1680.9,875.1c-23,0.3-191.7,3-479.4,8.2c-310.3,5.7-370.1-25.8-403.7-29.9c-24.7-3,5-28.8,40.2-43.5
			c12.7-5.3,26.2-9.2,38-10l1.9-0.1c42.5-3,34.5-8.4,32.9-8.4s-46.9-1.7-14.1-5.8s15.3-12.5,7-10.3s-46.9,0.6-16-5.8l1.2-0.3
			c22-4.8-25.7-4-45.4-3.6c-4.8,0.1-8,0.2-8,0.2c-293-10.3-639.5,46.2-648.9,47.5s-54,10.2-38.3,0s11.7-10.5,2-5.3s-33.6,3.5-25-2.9
			s-4.3-10.9-6.3-5.3s-66.9,20.2-40.3,9.9s23.9-22.7,23.9-22.7c-57.8-1.2-115.3-7.4-172-18.6c-71.9-14.3-115.1-31.5-115.1-31.5
			c-20.6-6.5-26.7-17.3-26.5-28.1c-48.9,69.6,0,147.5,0,147.5s102.9-3.7,180.9-7.1c43.3-1.9,78.9-3.7,85-4.8c15-2.7-8,5.8-9.8,9.6
			c-0.3,0.5-0.1,0.9,0.5,1.2c1.6,0.8,4.8,0.7,8.7,0c8.8-1.4,21.4-5.1,28.3-5.9c10-1.1-11.1,4.3-2.3,6.4s33.4-5.9,33.4-5.9
			s174.2-21.4,254.5-30s290.8-33.6,326-32.7s145.5-9.5,183,0c8.1,2,5.1,4.8-4.2,8.5c-29.9,11.5-125,31.1-134.5,60.3
			c-1.4,4.3-0.8,8.9,1.5,12.8c25.2,46.2,342.5,38.6,418.8,39.4c72.8,0.7,484.7-12.6,522.2-13.8l2.7-0.1v-19L1680.9,875.1z"/>
		<path class="st40" d="M1672.5,810.5c0.8-1.3,1.2-2.8,1.1-4.4c-0.3-2.5-2.2-5.5-9.2-7.3c-0.6-0.2-1.3-0.3-2-0.4
			c-8.1-1.6-21.7-1.7-44.4,1.6c-68.1,9.7-289.9,11.3-359.3,6.1s-207.8-19-159.1-27.6s95-33.8,92.7-41.5s-11.1-20.6-71.6-32.7
			s-252.2-20.7-334.9-25s-408,11.2-432.5,6S251.5,669.9,279,643s82.8-52,53.4-75.6l0,0c0,0-4.5,0-12.9,0.1l-3.8,0
			c-18.3,0.3-50.4,1.3-91.3,4.4C113.9,580.4-60.2,604.7-193.8,674c0,0-16.8,17.4-17.2,34.8c-0.2,10.8,6,21.5,26.5,28.1
			c0,0,43.2,17.2,115.1,31.5c56.7,11.2,114.2,17.5,172,18.7c0,0,2.6,12.4-23.9,22.7s38.3-4.2,40.3-9.9s14.9-1.1,6.3,5.3
			s15.3,8.1,25,2.9s13.7-4.8-2,5.3s28.9,1.3,38.3,0s355.9-57.8,648.9-47.5c0,0,3.2-0.1,8-0.2c19.7-0.5,67.4-1.3,45.4,3.6l-1.2,0.3
			c-30.9,6.3,7.8,8,16,5.8s25.8,6.1-7,10.3s12.5,5.8,14.1,5.8s9.5,5.4-32.9,8.4l-1.9,0.1c-11.8,0.8-25.3,4.7-38,10
			c-35.2,14.7-64.9,40.5-40.2,43.5c33.6,4.1,93.5,35.6,403.7,29.9c287.7-5.3,456.4-7.9,479.4-8.2h2.7l-2.7-15.9L1672.5,810.5z"/>
		<path class="st41" d="M1250.8-193c37.7,155.6,158.9,615.5,205.7,795.2c0,0,0.7,24.4,16.7,85.6s24.6,83.8,25.3,97.2
			s7.2,66.8,30.2,160.6l185.9-86C1674,754.2,1625.8,585,1575.2,378c0,0,218.1-64.2,234.3-97.1c0,0,12.2-25,8.5-48
			c2.7-5,3.8-10.7,3-16.3c-1.2-9.8,5-76.2,5.8-84.2s2.8-19,0.7-40.9s2.2-22.4,2.2-22.4s-2.9-4.1-5.4,7.7s0.9,22.5-0.7,33
			c0,0-4.6-11.9-6.3-21.8c0,0-0.8,2.5,4,26.8c3.6,18.1-2,10.1,1.9,58.9c0,0-8.8-35.3-10.1-42.6c-1.5-8.2-2.7-13-1-54.4
			c0.6-13.8-6.2-38.6-6.2-38.6s7,39.5,1.1,52.5c0,0-1.9,5.8-1.6,9.9c0,0-14.8-39.5-16.7-48.7l-0.8-0.1
			c12.2,34.8,30.7,118.1,17.3,154.6c-2.7,1.4,2.5-29.5,0.9-37.7s-7.5-33.6-7.2-36.4c0,0-2.5-0.5,2.4,25.1c0,0-7.9-13.4-9.4-17
			c0,0-3-3.9,5,13.7s5.7,66.3,5.3,70.9c-21.4,22.7-209.5,50.6-239.3,68.5c-0.8,5.2-4.3-4.4-10-4.4c-20.8-90.4-110.2-455.4-139.9-557
			L1250.8-193z"/>
		<path class="st42" d="M1521.4,653.6c-90.7-213.6-187.7-665.4-228.8-866l120.2-55.6c29.3,99.7,119.7,468.9,139.9,557
			c5.8-0.1,4.6,3,10.3,0.5c37.8-12.6,214.7-42.3,238.9-64.6c0.4-4.6,2.7-53.2-5.3-70.9s-5-13.7-5-13.7c1.5,3.6,9.4,17,9.4,17
			c-5-25.6-2.4-25.1-2.4-25.1c-0.3,2.9,5.6,28.2,7.2,36.4s-3.6,39.1-0.9,37.7c13.3-36.6-5.2-119.8-17.3-154.6l0.8,0.1
			c1.9,9.2,16.7,48.7,16.7,48.7c-0.3-4.1,1.6-9.9,1.6-9.9c5.9-13.1-1.1-52.5-1.1-52.5s6.7,24.8,6.2,38.6c-1.7,41.4-0.5,46.3,1,54.4
			c1.3,7.2,10.1,42.6,10.1,42.6c-3.9-48.8,1.8-40.8-1.9-58.9c-4.9-24.3-4-26.8-4-26.8c1.7,9.9,6.3,21.8,6.3,21.8
			c1.6-10.5-1.8-21.1,0.7-33s5.4-7.7,5.4-7.7s-4.4,0.5-2.2,22.4s0,32.9-0.7,40.9s-6.9,74.4-5.8,84.2c0.8,5.6-0.3,11.4-3,16.3
			c3.7,23-10.2,49-10.2,49c-18,43.3-232.6,96-232.6,96c50.7,207.5,98.6,375.6,139.4,481.5l-119.7,55.4
			C1595.9,914.6,1530.8,679.1,1521.4,653.6z"/>
		<path class="st43" d="M1552.3,642c8.7,29.7,16,84,29.3,126c8,26.5,9.3,38.3,28.6,86c0,0,9.2,20,11.1,51.6l4.8-2.2
			c1.5-17.7-31-92.8-35.8-116.1c-15.9-50.3-24.2-102.6-36.8-148.1L1552.3,642z"/>
		<path class="st44" d="M1570.8,609.4c22.4,75.9,51.7,145,72,240.8c0,0-15.6-70.5-22.9-97.6c-13.3-52-37.5-105.5-47.5-153.6
			C1570.8,585.6,1570.8,609.4,1570.8,609.4z"/>
		<path class="st44" d="M1574,537.3c0,0,17.8,72.7,26.8,102.9S1573.5,560.4,1574,537.3z"/>
		<path class="st44" d="M1576.7,516.4c26.2,42.6,94.6,356.2,97.2,362l-3.5,4.5c0,0-25.1-124.2-72.9-302.9c0,0-14.9-48.4-20.7-57.2
			L1576.7,516.4z"/>
		<path class="st44" d="M1815.1,242.3c-274,121.4-281.4,42.1-207.7,305.7c-25.4-103.2-93.9-145.6,97.6-208.6
			C1771.3,310,1819.9,302.6,1815.1,242.3z"/>
		<path class="st44" d="M1373.3-253.6c49.5,59.1,161.5,745,181.5,791c-17.8-183.7-113.1-615.1-167.9-797.2c0,0,9.4,33.5,10.8,45.3
			c0.9,6.9-24.2-48.6-24.2-48.6L1373.3-253.6z"/>
		<path class="st44" d="M1395.2-270.4c19.4,97.9,115.8,419.9,142.9,551.7c-10.6-62.1-115.2-465.3-138.2-550.7L1395.2-270.4z"/>
		<path class="st44" d="M1325.2-232.5c0,0,107,309.9,161.1,537.8c0,0-120.6-529.7-156.8-548L1325.2-232.5z"/>
		<path class="st44" d="M1329.8-204.9c7.3,71.6,155.1,624.9,207.2,712l21.7,83.5C1558.7,590.6,1350.3-53.9,1329.8-204.9z"/>
		<path class="st45" d="M1508.8,558.7c0,0,46.6,101.6,48.4,120.4c8.9,55.2,23.2,115.9,47.9,172.7c13.4,27.6,11.4,47.8,6.2,37.4
			c-20.9-41.7-39.5-119.2-53.7-166.4C1545,672.2,1518.3,595.7,1508.8,558.7z"/>
		<path class="st45" d="M1562.9,618.2c12.6,58.6,69.2,178.6,81.7,264.1c2.4-53.4-121.7-380.5-130.5-408L1562.9,618.2z"/>
		<path class="st45" d="M1622.8,699.7c-5.7-37.3-57.3-183.1-67.6-235.2C1555.2,464.5,1604.4,606.7,1622.8,699.7z"/>
		<path class="st45" d="M1574.7,576.6c0,0,25.4,79.9,36.5,107.1C1613,690.5,1565.8,522.7,1574.7,576.6z"/>
		<path class="st45" d="M1338.6-40.4c18.6,59.2,123.8,423.4,134.3,493.9c4.9,31.8,61.3,159.7,56.6,173.3
			C1453.5,460.5,1382.8,130.7,1338.6-40.4z"/>
		<path class="st45" d="M1460.3,306.9c12.6,58.6,69.2,178.6,81.7,264.1c-14.4-97.2-191.1-647.6-203.3-708.1L1460.3,306.9z"/>
		<path class="st45" d="M1520.1,388.3c-9.5-52.6-122.2-471.9-140.4-535.3C1379.7-147,1501.8,295.3,1520.1,388.3z"/>
		<path class="st45" d="M1472,265.2c0,0,25.4,79.9,36.5,107.1C1510.3,379.1,1463.2,211.3,1472,265.2z"/>
		<path class="st46" d="M1450.3,468.8c7.3,25.7,14.3,51.6,20.9,77.5c3.3,13,6.4,26,9.3,39.1s5.5,26.2,7.8,39.4s4.3,26.4,6.2,39.7
			l5.3,39.8c1.8,13.3,3.7,26.5,6.1,39.7c1.3,6.6,2.5,13.2,3.9,19.7c1.3,6.6,2.9,13,4.4,19.6h-0.1c-1.6-6.5-3.4-13-4.8-19.5
			s-2.8-13.1-4.1-19.7c-2.5-13.2-4.6-26.4-6.5-39.6c-3.6-26.5-6.8-53.1-11.3-79.5c-2.3-13.2-4.8-26.3-7.7-39.4s-5.9-26.1-9.1-39.1
			C1464.3,520.4,1457.4,494.5,1450.3,468.8L1450.3,468.8z"/>
		<path class="st46" d="M1480.7,565.6c7.7,30.2,15.9,60.2,24.1,90.2l24.6,90.1l12.2,45l12,45.1c3.9,15.1,7.8,30.1,11.5,45.2
			c3.8,15.1,7.4,30.2,10.6,45.5h-0.1c-7-30.3-14.9-60.4-22.9-90.5l-12-45.1l-12.1-45.1l-24.3-90.1c-8-30.1-16.2-60.1-23.7-90.3
			L1480.7,565.6z"/>
		<path class="st46" d="M1633.2,368.4c-4.9,1.7-9.7,3.7-14.4,6c-4.7,2.2-9.2,4.7-13.6,7.5c-4.4,2.7-8.6,5.8-12.4,9.3
			c-3.9,3.4-7.2,7.4-10,11.7c-2.8,4.4-4.4,9.3-4.8,14.5c-0.1,5.2,0.3,10.3,1.2,15.4c1.5,10.3,3.7,20.4,6,30.5
			c4.6,20.3,10,40.3,15.5,60.4s11.2,40,17.1,60h-0.1c-6.3-19.8-12.1-39.8-17.8-59.8c-2.8-10-5.6-20-8.2-30.1s-5.1-20.2-7.4-30.3
			s-4.4-20.3-5.9-30.6c-0.8-5.2-1.2-10.4-1.2-15.6c0.4-5.3,2.1-10.3,5-14.8c2.8-4.4,6.3-8.4,10.2-11.8c3.9-3.4,8.1-6.5,12.6-9.2
			c4.4-2.7,9-5.2,13.7-7.4C1623.4,371.9,1628.2,370,1633.2,368.4L1633.2,368.4z"/>
		<path class="st46" d="M1565.6,424.5c3.6,18.5,8.3,36.8,13.6,54.9s11,36.1,16.7,54.1s11.2,36,16.2,54.2l3.7,13.7l3.4,13.7l3.2,13.8
			l3.1,13.8c4.3,18.4,8.7,36.7,13.3,55s9.1,36.6,13.8,54.9c2.3,9.1,4.6,18.3,7,27.4c1.3,4.5,2.8,9,4.5,13.3c1.7,4.4,3.7,8.7,5.6,13
			c3.9,8.6,7.8,17.2,11.1,26c3.3,8.8,6,17.9,7.9,27.2h-0.1c-2.1-9.2-4.8-18.2-8.2-27c-3.3-8.8-7.3-17.4-11.3-25.9
			c-2-4.3-3.9-8.6-5.7-13c-1.8-4.4-3.3-8.9-4.6-13.4c-2.5-9.1-4.8-18.2-7.2-27.4c-9.3-36.6-18.4-73.2-26.8-110l-3.1-13.8l-3.2-13.8
			l-3.4-13.7l-3.6-13.7c-5-18.2-10.4-36.2-16.1-54.2s-11.3-36-16.5-54.1s-9.8-36.4-13.4-55L1565.6,424.5z"/>
		<path class="st46" d="M1541.7,412.6c6.5,22.9,13.6,45.6,20.7,68.3l21.1,68.2l10.4,34.2l5.1,17.1l5,17.1
			c3.2,11.5,6.4,22.9,9.4,34.4c1.6,5.7,2.9,11.5,4.4,17.3s2.7,11.6,4,17.4h-0.1c-5.7-23.1-12-46-18.7-68.9l-5-17.1l-5-17.1
			l-10.2-34.2l-20.8-68.3C1555,458.4,1548.1,435.6,1541.7,412.6L1541.7,412.6z"/>
		<path class="st46" d="M1545.3,463.2c4,16.4,8.3,32.6,12.9,48.8l3.4,12.2l3.5,12.1c2.3,8.1,4.7,16.1,7.1,24.2l29.1,96.7l7.2,24.2
			l7.1,24.2l6.9,24.3c2.3,8.1,4.5,16.2,6.7,24.3c4.3,16.3,8.6,32.6,12.5,48.9l1.5,6.1l1.4,6.2l2.7,12.3c1,4.1,1.7,8.3,2.5,12.4
			l2.4,12.4h-0.1c-6.5-33-14.9-65.7-23.8-98.1c-2.2-8.1-4.4-16.2-6.7-24.3l-6.9-24.3l-7-24.2l-7.1-24.2l-28.8-96.8
			c-2.4-8.1-4.7-16.2-7-24.2l-3.5-12.1l-3.4-12.2C1553.4,495.9,1549.2,479.6,1545.3,463.2L1545.3,463.2z"/>
		<path class="st46" d="M1523.5,660.6c4.9,11.8,9.7,23.7,14.3,35.7s9.2,23.9,13.5,36c1.1,3,2.2,6,3.2,9.1c1.1,3,2.1,6,3.2,9.1l3,9.1
			c1,3,1.9,6.1,2.9,9.2l1.4,4.6l1.3,4.6c0.9,3.1,1.8,6.2,2.6,9.3s1.6,6.2,2.4,9.3l2,9.4h-0.1c-3-12.4-6.6-24.7-10.5-36.9
			c-1-3-1.9-6.1-2.9-9.2l-3-9.1c-1-3-2-6.1-3.1-9.1s-2.1-6.1-3.1-9.1c-4.2-12.1-8.7-24.1-13.2-36.1s-9.2-23.9-14-35.8L1523.5,660.6z
			"/>
		<path class="st46" d="M1513.9,576.3c1.5,14.5,4.9,28.7,8.4,42.8s7.5,28.1,11.5,42.1c8.1,28,16.6,55.8,24.8,83.8c2,7,4.1,14,6,21
			l2.9,10.5l2.8,10.6l1.4,5.3l1.3,5.3c0.8,3.5,1.7,7.1,2.5,10.7l2.2,10.7c0.7,3.6,1.3,7.2,2.1,10.7c2.9,14.2,6.7,28.3,10.8,42.3
			c2.1,7,4.2,13.9,6.5,20.8c2.3,6.9,4.6,13.8,7,20.7h-0.1c-5.2-13.6-9.9-27.4-14.1-41.3c-4.3-13.9-8.1-28-11.2-42.3
			c-0.8-3.6-1.4-7.2-2.1-10.7l-2.2-10.7c-0.7-3.5-1.7-7.1-2.5-10.6l-1.3-5.3l-1.4-5.3l-2.7-10.6l-2.8-10.5c-1.9-7-3.9-14-5.9-21
			c-8-28-16.5-55.9-24.5-83.9c-4-14-7.9-28-11.3-42.2s-6.8-28.4-8.2-42.9L1513.9,576.3z"/>
		<path class="st46" d="M1557.3,640c1.8,11.2,4.1,22.3,6.5,33.4s4.8,22.2,7.4,33.3c5.1,22.1,10.5,44.2,16.2,66.2
			c2.9,11,5.9,21.9,9.1,32.8c1.7,5.4,3.2,10.9,5,16.3l1.3,4c0.5,1.3,1,2.7,1.4,4c1,2.7,2,5.3,3,8c4,10.6,8.2,21.2,11.3,32.2
			c1.6,5.5,3,11,4.2,16.5s2.3,11.1,3.3,16.7h-0.1c-2.3-11.1-4.8-22.2-8.1-33.1s-7.5-21.4-11.6-32c-8.3-21.2-14-43.3-19.7-65.3
			s-10.9-44.1-15.9-66.3c-2.5-11.1-4.9-22.2-7.2-33.3s-4.5-22.3-6.3-33.5L1557.3,640z"/>
		<path class="st46" d="M1552.8,289.1c-0.2,0.5-0.2,1-0.2,1.5c0,0.5,0,1.1,0,1.6c0.1,1.1,0.2,2.1,0.3,3.2c0.3,2.1,0.6,4.3,1,6.4
			c0.8,4.2,1.7,8.4,2.7,12.6c0.5,2.1,1,4.2,1.6,6.3l1.5,6.3c0.9,4.2,2,8.4,2.8,12.6h-0.1c-1.4-4.1-2.6-8.2-3.7-12.4l-0.8-3.1
			l-0.7-3.1c-0.5-2.1-0.9-4.2-1.4-6.3c-0.9-4.2-1.7-8.4-2.4-12.7c-0.3-2.1-0.6-4.3-0.8-6.4c-0.1-1.1-0.2-2.1-0.2-3.2
			c0-0.5,0-1.1,0-1.6c0-0.6,0.1-1.1,0.3-1.6L1552.8,289.1z"/>
		<path class="st46" d="M1562.3,294.7c32.3-8.3,64.6-16.4,97-24.3l24.3-5.9l24.3-5.7c8.1-1.8,16.3-3.6,24.4-5.4l12.2-2.6l12.3-2.4
			v0.1c-16.3,3.6-32.5,7.3-48.7,11.2l-48.7,11.5c-32.4,7.8-64.8,15.6-97.2,23.6L1562.3,294.7z"/>
		<path class="st46" d="M1403.4-289.1c3.6,12.8,7.2,25.6,10.6,38.4s6.9,25.6,10.3,38.5c6.8,25.7,13.5,51.4,20.2,77.1
			c13.3,51.4,26.5,102.9,39.5,154.4l19.4,77.3l19,77.4l9.3,38.8l9.1,38.8c5.9,25.9,12,51.8,16.9,77.9h-0.1c-1.4-6.5-2.7-13-4-19.5
			l-4.4-19.4c-2.9-13-6-25.9-9-38.8l-9.3-38.7l-9.4-38.7l-19-77.4l-19.2-77.3c-12.9-51.6-25.9-103.1-39.2-154.5
			c-6.6-25.7-13.3-51.4-20-77.1c-3.4-12.9-6.8-25.7-10.2-38.5S1406.8-276.3,1403.4-289.1L1403.4-289.1z"/>
		<path class="st46" d="M1528.6,337.5c-2.3-6.6-4.3-13.3-6.2-20.1s-3.7-13.5-5.3-20.3c-3.4-13.6-6.6-27.2-9.6-40.9
			c-6.1-27.3-11.9-54.8-17.6-82.2c-11.4-54.9-22.6-109.8-34.5-164.5s-24.4-109.4-38.9-163.5c-7.3-27.1-15-54-24-80.5
			c-4.5-13.2-9.4-26.4-14.8-39.3s-11.6-25.5-19.3-37.3l0.1,0c7.8,11.6,14,24.3,19.6,37.1s10.4,26,15,39.3
			c9.2,26.5,17,53.4,24.4,80.4c14.5,54.1,26.9,108.8,38.7,163.6s22.9,109.7,34.2,164.6c5.7,27.4,11.3,54.9,17.4,82.2
			c3,13.7,6.2,27.3,9.5,40.9c1.7,6.8,3.4,13.6,5.3,20.3c1.9,6.8,3.8,13.5,6.1,20.1L1528.6,337.5z"/>
		<path class="st46" d="M1351.1-278.9c27.8,108,55.4,216.1,82.8,324.2c13.7,54.1,27.2,108.2,40.7,162.3
			c6.7,27.1,13.3,54.2,19.8,81.3c3.3,13.6,6.5,27.1,9.6,40.7c1.6,6.8,3.1,13.6,4.6,20.4c0.7,3.4,1.5,6.8,2.2,10.2l1,5.1l0.8,5.2
			h-0.1l-0.9-5.1l-1.1-5.1c-0.7-3.4-1.5-6.8-2.3-10.2c-1.5-6.8-3.2-13.6-4.8-20.4c-3.2-13.6-6.5-27.1-9.8-40.7
			c-6.6-27.1-13.3-54.1-20.1-81.2c-13.4-54.1-26.9-108.2-40.5-162.3l-40.9-162.2L1351.1-278.9L1351.1-278.9z"/>
		<path class="st46" d="M1324.2-272.6c13.6,43.8,27.1,87.6,40.4,131.4c13.3,43.9,26.4,87.8,39.4,131.7c6.5,22,12.9,44,19.3,66
			s12.6,44.1,18.8,66.1c3.1,11,6.2,22.1,9.1,33.1s6,22.1,9,33.2l8.7,33.3l8.3,33.4h-0.1c-11.3-44.4-23.5-88.6-35.9-132.7
			s-25.1-88.2-37.9-132.1s-25.9-87.9-39.2-131.8s-26.5-87.7-40-131.5L1324.2-272.6z"/>
		<path class="st46" d="M1325.3-232.5c10.1,45.5,20.4,91,30.8,136.4s20.9,90.8,31.5,136.2l16.2,68c5.4,22.7,11,45.3,16.5,67.9
			c5.6,22.6,11.2,45.2,17.2,67.8c1.5,5.6,3,11.3,4.5,16.9l2.3,8.4l2.4,8.4c3.2,11.2,6.4,22.4,10.6,33.3h-0.1
			c-4.3-10.8-7.6-22-10.9-33.2l-2.4-8.4l-2.3-8.4c-1.6-5.6-3.1-11.2-4.6-16.9c-6.1-22.5-11.8-45.1-17.5-67.7s-11.1-45.3-16.5-67.9
			l-16-68.1C1365.7-50.6,1345.2-141.5,1325.3-232.5L1325.3-232.5z"/>
		<path class="st46" d="M1278.9-251.6c5.7,11.7,9.9,24.1,14,36.4s7.7,24.9,11.3,37.4c7.1,25,13.7,50.2,20.2,75.5
			c12.8,50.5,24.9,101.1,37,151.8l18.1,76c6,25.3,12.1,50.7,18.2,76c6.1,25.3,12.3,50.6,18.8,75.8c3.2,12.6,6.6,25.2,10.2,37.7
			c3.6,12.5,7.2,25,11.6,37.3h-0.1c-8.8-24.5-15.6-49.7-22.3-74.8s-12.9-50.4-19.2-75.7s-12.2-50.6-18.2-76l-17.9-76
			c-11.9-50.7-24-101.3-36.7-151.8c-6.4-25.2-12.9-50.4-20-75.5c-3.6-12.5-7.2-25-11.2-37.4S1284.6-239.9,1278.9-251.6L1278.9-251.6
			z"/>
		<path class="st46" d="M1513.1,470.3l47.7,142l11.9,35.5l11.8,35.6L1596,719c3.8,11.9,7.7,23.8,11.1,35.8h-0.1
			c-1.8-6-3.8-11.9-5.7-17.8l-5.9-17.8l-11.8-35.5l-23.5-71.1L1513,470.3L1513.1,470.3z"/>
		<path class="st46" d="M1500.4,757c3.8,13.9,8.1,27.6,12.3,41.4s8.3,27.6,12.2,41.4l2.9,10.4l2.8,10.4l2.6,10.5
			c0.9,3.5,1.7,7,2.5,10.5s1.5,7.1,2.2,10.6s1.3,7.1,1.9,10.6s1,7.1,1.5,10.7l0.3,2.7l0.1,2.7l0.3,5.4h-0.1
			c-1-14.4-3.9-28.5-7.2-42.5c-0.8-3.5-1.6-7-2.5-10.5l-2.6-10.5l-2.7-10.5l-2.8-10.4c-3.8-13.9-7.9-27.7-11.9-41.5
			S1504,771,1500.4,757L1500.4,757z"/>
		<path class="st46" d="M1279.2-87.9l47.5,175.1l24,87.5c8,29.1,16.1,58.3,24.5,87.3c2.1,7.3,4.2,14.5,6.5,21.7
			c0.6,1.8,1.1,3.6,1.8,5.4c0.2,0.5,0.3,0.9,0.5,1.3c0.1,0.2,0.2,0.4,0.3,0.6s0.1,0.2,0.1,0.3s0.1,0.1-0.1,0c-0.8,0-0.6,0.4-0.6,0.3
			c0-0.4-0.1-0.9-0.1-1.3l-0.3-1.4c-0.7-3.7-1.6-7.4-2.4-11.1c-3.4-14.7-7.2-29.4-10.8-44c-7.3-29.3-14.8-58.6-22.3-87.9
			l-45.4-175.7h0.1c15.5,58.4,30.9,116.9,46,175.5c7.6,29.3,15.1,58.6,22.6,87.9c3.7,14.7,7.4,29.3,10.8,44.1
			c0.8,3.7,1.7,7.4,2.4,11.1l0.3,1.4c0.1,0.5,0.2,1,0.2,1.5c0-0.1,0.2,0.6-0.8,0.5c-0.3-0.2-0.2-0.2-0.3-0.3
			c-0.1-0.1-0.1-0.2-0.2-0.4c-0.1-0.2-0.2-0.5-0.3-0.7c-0.2-0.5-0.3-0.9-0.5-1.4c-0.6-1.8-1.2-3.6-1.8-5.4
			c-2.3-7.2-4.3-14.5-6.4-21.8c-16.6-58.2-32.3-116.6-48.1-174.9s-31.4-116.8-47-175.2L1279.2-87.9z"/>
		<path class="st45" d="M1606.2,556.1c0.2-0.6-56-184.6-47.5-197.3c2-6.4,0.6,8.6,14.9,64.8S1608.4,555.1,1606.2,556.1z"/>
		<path class="st45" d="M1506.2,263.3c0,0-83.5-375.7-104.7-422.6s-33.1-71.3-27.6-79.9S1501.9,179.9,1506.2,263.3z"/>
		<path class="st45" d="M1413.4-234.9c0,0-6-5.2-1,9c33.7,63.7,116.8,437.6,125.4,461.8C1522.1,184.4,1445.1-173,1413.4-234.9z"/>
		<path class="st45" d="M1563.1,316.7c0,0-0.7-9.1-3.3-2s5.8,37.5,9.3,35.9S1563.1,316.7,1563.1,316.7z"/>
		<path class="st47" d="M1791.5,141.2c16.4,31,15.3,40.6,10.6,83.7c-8.3,12.6-37.2,12.5-43.1,22.8c-0.5,1.8-196.2,48.2-197.5,47.1
			s-6.6-6.2-8.7-5.8c0,0-1.3,15.8,7.7,21.9s199.9-59.4,204.2-65.6s43.2-5.6,41.1-17.8S1806.3,167.1,1791.5,141.2z"/>
		<polygon class="st48" points="1442.5,985.4 2040.5,764.1 1751,-369.1 1153.1,-147.8 		"/>
		<path class="st49" d="M1269.8-212.4c0,0,28.7,49.1,36,102.9c36.2,198.9,174.4,671.7,201.1,859.6c4.7,22.5-22.2-27.2-29.1-73.3
			c-58.2-251.9-149.7-645.3-223.7-884.6C1251.1-213.3,1269.8-212.4,1269.8-212.4z"/>
		<path class="st49" d="M1508.7,676.9c8.7,22.7,66.5,242.2,71.8,276.3c0,0-20.2,16.3-24-26.7S1486.4,605,1508.7,676.9z"/>
		
			<linearGradient id="SVGID_27_" gradientUnits="userSpaceOnUse" x1="-6742.7568" y1="-1763.7721" x2="-6635.877" y2="-3012.072" gradientTransform="matrix(-0.97 0.24 -0.24 -0.97 -5802.04 -850.47)">
			<stop  offset="0.26" style="stop-color:#0E390D"/>
			<stop  offset="0.43" style="stop-color:#103D0F"/>
			<stop  offset="0.59" style="stop-color:#184815"/>
			<stop  offset="0.74" style="stop-color:#255A1F"/>
			<stop  offset="0.89" style="stop-color:#36742E"/>
			<stop  offset="0.91" style="stop-color:#397830"/>
		</linearGradient>
		<path class="st50" d="M1692.5,46.8c2.1,41-20.9,24-29.2,12.6c0,0-7.4-11.8-31.3,2.6s-19.3-25.1-31.8-28.2
			c-8.7-10.3-22.4-7.9-30.5-4.8s-6.3-7.7-11.5,7c-5.4,17.9-17.5,15.8-22.1,11.8c2.5,41.8-15.4,10.1-30.5,2.5
			c-12.3-4.9-15.4-8.6-27.1,15.1s-29.6,0.7-43.2-5.5c-18.1,33.3-42.3,11.4-49.9,2.9c-18.8-4.6-22.2-5.3-26.7,12.1
			c-16.3,10-31.7,23.2-46.3,17.6c3.1,34.4-22.1,30.4-34.1,17.9c-16.6,4.2-9.8-3.8-26.5,12.8c-21.3-10.2-46.2-26.2-42.4-10.9
			c13.8,20.1-2.8,30.2-9.6,33.1c11.5,27.3-26.6,20.4-36.4,11.9c21.7,42.7-45.2,57.1-64.9,13.5c-11.6-15.6-25.1-12.2-29.9-0.7
			c-23.8,23.6-75.6-16-75.6-16c-7.5,49.2-68.6,29.3-79.4,4.1c-19.3,15.2-79.6-14.3-46.5-53.6c-15.5-0.3-21.9-10-21.2-19.6
			c-9.8,40.8-40,21.3-45.1,0.9c-17.3,18.9-43.7-3-34.6-32.5c-16-2.4-9.6-16.4-1-21.7c-20.7,5.2-15.1-10.7-15.1-10.7
			c-17.8,37.6-36.7,19.5-42.2,10.6c-30.3,10.7-33.3-1-29-14.5c-58.8,15.8-58.5-22.6-33.5-37.1c-62.5-12.3-42.4-25.9-29.4-28
			c-25.6-24.5-17.2-39.3,6.4-37.3c0,0-33.3-23.1-9.7-34.2c-40.2-20-14.4-66.4,13.1-66.3c-43.3-5.9-6.9-80.3,17.3-76
			c-30.1-45.3,20.3-81.7,40.7-66.1c2.7-24.5,46-18.5,59.4-9.1c0,0,131.5-51.3,118.4-99.3c0,0,77-5.9,51.4-48s-6.3-88.4,39.5-91.7
			s148-52.3,148-52.3s97.8,30.1,101.8,37.2s-55.3-6.4,3.9,7.1s58.1,43.1,92.3,16.8s189.3,17.8,195.7,86s15.5-128,83.4-96.6
			s41.3-40.7,99.5,28.6s51.3-44.3,67.9-12s210.1,229.5,150.7,301.4s-12.8,150.4-87.8,181.6S1782,73.5,1692.5,46.8z"/>
		<path class="st51" d="M1291-27.9c0,0-22.2,44.8-39.4,33.2c47.3,53.2-22.7,29.1-22.7,29.1c22.5,27.4,18.7,30.6-3.3,38.8
			c31.3,15.5,8.9,40.7-15.2,33.3c-9,31.7-19.5,15.9-40.2,27.2c-20.2,44.3-64.8,17.5-66.6,5.1c-23.3,16.3-40.4,15.6-43.2-5.8
			c-21,15.1-49.3,16.9-48.7-11.9c-13.1-10.7-16.7-14.5-8.8-30c-12.1-11.8-14.7,3.7-14.7,3.7c2.7,21.3-27.3,47.2-38.6,23.1
			c-37.8,10.7-72.8,1.1-41.5-30.1c-29.3-2.5-30.9,6.8-43.6-17.8c-16.2,8.2-24.5,11.5-29.4-8.1c-1.9,28.7-48.7,28.2-39.1-16
			c-22.1-9.2-39.6-23.2-14.2-35.7C747.4,8.9,745.1,20.5,738.4-6c-32.7,15.6-58.7,15.9-51.9-9.1c0,0-12.9,26.6-27.6-16.4
			c-20.5-3.5-67.5-35-24-43.9c-7.4-24.3,131.9-10.1,127.6-53.3s10.7-67.8,10.7-67.8l90.5-59.5l57.9,12.5c0,0,74.5-20.4,88.5-0.9
			c0,0-30.9-29.4,43.9-59.2s118.3-64.1,128.9-21.9s70.4,26,70.4,26s8-67.1,73.6-76.1s88-8,88-8l49.1-17.8l123.5-12.6l56.2,98.9
			l-54.3,111.2l-106.4,26.7l-22.5,42.6l-22.3,72.4c0,0-11.5,11.5-49.8,19.8s-89.7,13.9-89.7,13.9L1291-27.9z"/>
		<path class="st52" d="M1169.7-138.4c0,0,13.3-9.8,23.2,2c-1.8-18.3,3.8-20.4,8.7-22.9c-16.1-25.7,27.8-39.9,40.3-25.6
			c2-16.7,41-6.4,46.2,5.9c4.5-12.1,47.6,9.4,36.6,39.3c0,0,8.7,6.9-1.6,15.3c13-8.4,37.8,5.4,36.2,15.5
			c16.4-11.2,34.9,18.4,16.3,32.1c8.1-0.7,13.2,11.6,2.2,25.3c32-15.1,54.5,2.5,20.8,18.1c-9.6,10.2-6.4,14.5-5.6,37
			s-62.3,42.1-69.1-12.4c0.2-13,1.5-15.9-12.3-9.2c-22.3,14-33.5-20-33.7-34.2c-9.7-11.2-15.7-7.7-24,0.2
			c-8.1,14.3-19.5,21-28.2,21.9c-12,4.3-13,8.4-15.9,18.9c0,0,4.1,5.4-5.9,9.2s-10.1,6.4-0.7,13.8s5.7,17.3-8.2,22
			c-13.5,6.6-8,9.1,2.9,11.6s33.5,23.9,5.6,36.1c-18.8,4.7-24.8,2.3-24.8,2.3s-8.8-2.3-2.1,8.3s10.6,39.4-44.1,32.4
			c-6.8-8-8.9-10.7-18.8-1.1c-11,16.3-37-2.4-36.1-20.7c-1.8-7.3-2.6-10.3-11.7-5.5c-20,10.8-64.2-14.9-32.9-54.5c0,0,6.7-8.8-6.4-1
			c-15.4,9.7-35.8,5.1-41.9-8.2c-6.9,8.2-30.2-8-30.8-24c0,0-71.5,8.2-39.5-28.9c0,0-62.8-36.6,2.7-52.4c0,0,4.2-37.9,32.5-18.5
			c-3.2-4.4-2.6-10.3-0.7-10.8c-36.8,6.6-24-8.2-22.4-15.4c-17.6-4.3-11.5-35-2.5-37.2c-8-15.4,40-59.8,62-18.8
			c4.4-12.7,19.5-10,21.5,3.7c3.4-22.2,26.3-16.3,30-10.8c-23.4-34.2,30.9-50.4,40.2-24.3c8.1-14.3,54.1-11.6,51.6,30.4
			c0,0,7.7,3.2,25.6,3.3C1170.2-169.5,1178.4-156,1169.7-138.4z"/>
		<path class="st53" d="M1381-52.9c0,0,17,34.1-33.6,21.9c-6.5-14-14.4-9.2-26.4,0.2c-23.8-4.7-49.5-32.5,4.6-38.8
			c-5-8-6.8-17.6-33.4-3.7c-28.1,8.4-22.6-5.7-36.8,0.7s-20.5,20.7-26.4,30s-31.5,24.9-54.3,12.2s-34.8,14.4-13.5,21.2
			s15.6,17.4,2.5,28.5c19.1,13,14.2,20.6,0.1,27.6c5.5,24.9-14.8,19.3-23.3,18.6c-7.2,19.5-23.1,21.3-38.3,14.1
			c-20.2,2.7-40.2-8-34.3-23.6c-5-8-11.4-3.5-15.8-11.7s0.9-26.5,19-29.6c12.7-12.4,3-15-7.5-5.9s-24.9,14.9-29.5-12.4
			C1019.1,17.2,992.7,23,1004-10c-10,2.2-11,10-18.8-5.6s-22.7-3.4-25.8-9.7s0.4-25.6,11.4-29.8s-5.4-3.6-5.4-3.6
			s-42.7,30.7-32.3-5.4L917-71.8c0,0,4.8-40.7,36.6-16c-2.4-6.5-4.2-13.8-4.2-13.8s-13.9-31.3,24.5-28.8
			c43.6-15.9,98.1-45.2,113-9.9c43.3,19,55.1,60,78.9,47s43.4-13.7,53-29.6s55.6-43,62.4-24.9s9.2,36.7,13.9,28.5
			s26.7-13.8,27.3-5.4c14.2-6.4,40.8,3.3,36,17.2c15.2-11.6,36.1,14.4,16.9,29.8C1389.1-72.7,1381-52.9,1381-52.9z"/>
		<path class="st54" d="M1631.3-53.5c9.9,66.5-73.4,31.1-75.9,3.1c-18.8,23.8-31-15.6-35.1-41.1c-18.3-14.5-17.4-6.3-25.1,1
			s-11.2,2.5-18-2s-6.1,2.8-4.9,12s-12.3,9.4-19.7,11.3s3.1,5.6,13,16.9s-3.2,31.3-13.8,20.3s-11.7-10.8-22.6-9.1
			s-13.9-10.3-12.1-21.4s-8.4-20.2-19.3-22.8s-12.2-27.7,1.2-30s17.7-16.1,2.2-19.7s-13.9-28.4,3.4-31.6
			c-24.9-31.9-9.4-44.3,20.5-47.6c-1.8-39.9,32.6-6,34.4,1c-12.8-46.7,19.6-38.9,28.2-27.2l19-14.3c0,0-25.6-39.2,18.7-51.4
			s36.8,20.8,36.8,20.8c14.8,9.7,16.3,11.2,19.1-4.8s17-13.2,27.1-13.6s13.2-1.2-2.8-11s-43.2-50.7,47.2-45.8
			c8.5-24.4,82.3-36.3,75,11c-1.6,16.2,11.5,23.3,26.6,15.9c15.9-8.6,18.4,1.3,22,6.8c5.2-28.9,69.9-40.8,61.9-0.6
			c-3.7,16.8-8,22.2-8,22.2s-5.8,12.8,9.2,9.7s30.1,5.9,15.7,23.3c-16.7,4.2-12.6,20.6,6.6,20.3c20-5.8,24.3,11.2,21.7,23.5
			c16.4-2,40.2,31.3,14.5,45.2c-11.6,11.4-3.7,11.5,10.6,10.1c19.9-6,21.2,5.3,13,19c18.4,2.8,48.6,55.8-3,61.3
			c0,0-14.4-3.5-10.5,3.3s21.8,1.3,17.4,10.9s-18.2,31.1-56.4,8.8c-3.9,15.8,9.7,7.3-4.2,19.2c35.6,6.9,31.1,25,12.7,37.1
			c-15.8,13.5-6.9,21.9,0.3,37.1s-25,30.7-40.8,21.9s-21.1-3.1-20.8,11.6s-26.4,16.1-33.4,1.9c0,0-8.3,65.8-64.9,6.7
			c-39,6.6-24.1-51.3-13.8-54.9c0,0,19.2-8.8-1.1-22.4s-15.4-15.9-16.5-25.2s-4.4-22.3-11.2-8.9C1667.1-19,1627.3-29.2,1631.3-53.5z
			"/>
		<path class="st55" d="M847.9-160c6.6,21.6,53.5-16,33.3,22.8c45.2,27.7,10.3,26.8-1,29.6C914-69.6,856-77.8,856-77.8
			c15.9,18.8,28.7,32.7,13.6,54.3c48.4,10.9,16.1,8.5,7.1,28.3c60.2,24.4,62.4,70.3,5.3,39.9c-15.8,7.5-32.2,5.4-39.7-5.8
			c-7.3,23-12,15.3-19,2.2C801.5,69.2,743,33,780.7,8.6c5.9-13.8-13.2-25.6-21.3-15.7c-11.2,8.9-13.1-9.9-24.6,0
			s-52.1,22.7-32.9-19.8c36.3-18.8,1.9-18.9-14.3-16.6c0,0-71.7,7.5-7.7-30.5c0,0,13.5-16.5,42-10.5c15.6-8.3,28.3,8.7,41.3-17.4
			l20.9-9.6l0,0c0,0-19-27.6,26.4-21C826.5-166,839.7-186.9,847.9-160z"/>
		<path class="st55" d="M1497.3-45.6c0.7,4.4,56.3-16.3,35.3,17.9c36.7,14.2,55.4,27.3,17,34.7c-19.5,21.6-37.5,29.8-57.9,14.7
			c-18.8,10.1-32.8,20.3-46.4-0.8c-8.3,14.3-21.9,10.5-38.8,1.2c11.3,35.7-15.3,32.4-35.3,24c-38.1,18.5-56.9,4.9-48.4-8.2
			s69.1,6.5,70.1-34.5c18.8-26.5,43.5-46.3,63.9-26.3C1490.2-50.5,1493.5-70.2,1497.3-45.6z"/>
		<ellipse transform="matrix(0.97 -0.2431 0.2431 0.97 20.0567 291.0126)" class="st56" cx="1189.1" cy="64.2" rx="15" ry="11"/>
		<ellipse transform="matrix(0.97 -0.2431 0.2431 0.97 13.0705 281.2365)" class="st56" cx="1146" cy="87.7" rx="13" ry="12.2"/>
		<ellipse transform="matrix(0.97 -0.2431 0.2431 0.97 10.7962 271.1789)" class="st56" cx="1104.1" cy="91.8" rx="6.5" ry="6.1"/>
		<ellipse transform="matrix(0.97 -0.2431 0.2431 0.97 16.4397 257.3837)" class="st56" cx="1051.1" cy="62.1" rx="5.2" ry="8.7"/>
		<ellipse transform="matrix(0.97 -0.2431 0.2431 0.97 26.095 241.863)" class="st56" cx="993" cy="15.2" rx="9.6" ry="9.1"/>
		<ellipse transform="matrix(0.97 -0.2431 0.2431 0.97 34.4541 265.9426)" class="st56" cx="1094.7" cy="-6.6" rx="24.1" ry="5.5"/>
		<ellipse transform="matrix(0.97 -0.2431 0.2431 0.97 0.5587 239.0805)" class="st57" cx="969" cy="117.3" rx="13.9" ry="13.1"/>
		<ellipse transform="matrix(0.97 -0.2431 0.2431 0.97 12.055 227.3458)" class="st57" cx="927.2" cy="64.8" rx="7.6" ry="7.2"/>
		<ellipse transform="matrix(0.97 -0.2431 0.2431 0.97 -2.2145 221.3568)" class="st57" cx="895.8" cy="119.7" rx="8.5" ry="15.5"/>
		<ellipse transform="matrix(0.97 -0.2431 0.2431 0.97 20.3477 215.4665)" class="st58" cx="883.2" cy="25.3" rx="10.7" ry="10.1"/>
		<ellipse transform="matrix(0.97 -0.2431 0.2431 0.97 24.3271 201.4356)" class="st59" cx="828.3" cy="2.2" rx="7.6" ry="7.1"/>
		<ellipse transform="matrix(0.97 -0.2431 0.2431 0.97 19.8919 172.2829)" class="st59" cx="708" cy="5.5" rx="8" ry="7.5"/>
	</g>
</g>
</svg>
