<?xml version="1.0" encoding="utf-8"?>
<!-- Generator: Adobe Illustrator 25.2.3, SVG Export Plug-In . SVG Version: 6.00 Build 0)  -->
<svg version="1.1" id="Layer_1" xmlns="http://www.w3.org/2000/svg" xmlns:xlink="http://www.w3.org/1999/xlink" x="0px" y="0px"
	 viewBox="0 0 1600 900" style="enable-background:new 0 0 1600 900;" xml:space="preserve">
<style type="text/css">
	.st0{clip-path:url(#SVGID_2_);}
	.st1{fill:url(#SVGID_3_);}
	.st2{fill:url(#SVGID_4_);}
	.st3{fill:url(#SVGID_5_);}
	.st4{fill:url(#SVGID_6_);}
	.st5{fill:url(#SVGID_7_);stroke:url(#SVGID_8_);stroke-width:0.26;stroke-miterlimit:10;}
	.st6{fill:url(#SVGID_9_);}
	.st7{fill:url(#SVGID_10_);}
	.st8{fill:url(#SVGID_11_);}
	.st9{fill:url(#SVGID_12_);}
	.st10{fill:url(#SVGID_13_);}
	.st11{fill:url(#SVGID_14_);}
	.st12{fill:url(#SVGID_15_);}
	.st13{fill:url(#SVGID_16_);}
	.st14{fill:url(#SVGID_17_);}
	.st15{fill:url(#SVGID_18_);}
	.st16{fill:url(#SVGID_19_);}
	.st17{fill:url(#SVGID_20_);}
	.st18{fill:url(#SVGID_21_);}
	.st19{fill:#77481E;stroke:#3A1F08;stroke-width:0.75;stroke-miterlimit:10;}
	.st20{fill:#9B5C32;stroke:#49260C;stroke-width:0.75;stroke-miterlimit:10;}
	.st21{opacity:0.54;fill:#794B1B;enable-background:new    ;}
	.st22{fill:#794B1B;}
	.st23{fill:#A56E49;}
	.st24{fill:#5B2E10;}
	.st25{fill:#7A4C1C;}
	.st26{fill:none;}
	.st27{fill:#825026;}
	.st28{fill:url(#SVGID_22_);}
	.st29{fill:#29621F;}
	.st30{fill:#5F9F14;}
	.st31{fill:#6AAB1B;}
	.st32{fill:#70A415;}
	.st33{fill:#93BF24;}
	.st34{fill:#32742A;}
	.st35{fill:#578B14;}
	.st36{fill:#437E16;}
	.st37{fill:#397622;}
	.st38{fill:#488D31;}
	.st39{fill:url(#SVGID_23_);}
	.st40{fill:#CE856B;}
	.st41{fill:#3BEAA2;}
	.st42{fill:url(#SVGID_24_);}
	.st43{fill:url(#SVGID_25_);}
	.st44{fill:url(#SVGID_26_);}
	.st45{fill:url(#SVGID_27_);}
	.st46{fill:#663F14;}
</style>
<g>
	<defs>
		<rect id="SVGID_1_" width="1600" height="900"/>
	</defs>
	<clipPath id="SVGID_2_">
		<use xlink:href="#SVGID_1_"  style="overflow:visible;"/>
	</clipPath>
	<g class="st0">
		
			<linearGradient id="SVGID_3_" gradientUnits="userSpaceOnUse" x1="796.5049" y1="1333.67" x2="796.5049" y2="-548.0301" gradientTransform="matrix(1 0 0 -1 0 900)">
			<stop  offset="0.3" style="stop-color:#90E7DE"/>
			<stop  offset="0.33" style="stop-color:#94E7DF"/>
			<stop  offset="0.55" style="stop-color:#ABE7E5"/>
			<stop  offset="0.76" style="stop-color:#B9E7E9"/>
			<stop  offset="0.94" style="stop-color:#BEE7EA"/>
		</linearGradient>
		<rect x="-47.5" class="st1" width="1688.1" height="825.8"/>
		
			<linearGradient id="SVGID_4_" gradientUnits="userSpaceOnUse" x1="-372.3792" y1="-270.0033" x2="979.5007" y2="474.0868" gradientTransform="matrix(1 0 0 -1 0 900)">
			<stop  offset="0" style="stop-color:#76CCD2"/>
			<stop  offset="0" style="stop-color:#78BBCE"/>
			<stop  offset="0" style="stop-color:#7BA5C8"/>
			<stop  offset="0.26" style="stop-color:#78A8C6"/>
			<stop  offset="0.33" style="stop-color:#75ABC4"/>
			<stop  offset="0.34" style="stop-color:#75ABC4"/>
			<stop  offset="0.56" style="stop-color:#87C7CA"/>
			<stop  offset="0.69" style="stop-color:#8DD1CC"/>
		</linearGradient>
		<path class="st2" d="M-159.3,523.9c51.4-22.2,104.4-40.3,158.7-54.1c119.4-30.2,218-32,295.9-29.2
			c65.5,2.4,204.9,11.1,574.2,101.9c238.3,58.6,440.1,118.8,440,118.8l0,0v126.8l-1543.1-27.7V549.7L-159.3,523.9z"/>
		
			<linearGradient id="SVGID_5_" gradientUnits="userSpaceOnUse" x1="-196.37" y1="308.59" x2="997.19" y2="308.59" gradientTransform="matrix(1 0 0 -1 0 900)">
			<stop  offset="0" style="stop-color:#76CCD2"/>
			<stop  offset="0" style="stop-color:#6FBBCA"/>
			<stop  offset="0" style="stop-color:#5E92B6"/>
			<stop  offset="0.22" style="stop-color:#6EAECC"/>
			<stop  offset="0.42" style="stop-color:#7AC5DD"/>
			<stop  offset="0.62" style="stop-color:#7CC9D3"/>
			<stop  offset="0.73" style="stop-color:#7ECDCC"/>
			<stop  offset="0.77" style="stop-color:#80CCC3"/>
			<stop  offset="0.82" style="stop-color:#86C8AB"/>
			<stop  offset="0.9" style="stop-color:#90C283"/>
			<stop  offset="0.98" style="stop-color:#9DBA4C"/>
			<stop  offset="1" style="stop-color:#A0B841"/>
		</linearGradient>
		<path class="st3" d="M-52.6,444.7c81.5,10.6,162.2,26.8,241.4,48.6c154.4,42.6,219.1,83.5,461,160.9
			c57.8,18.5,86.6,27.7,122.4,36.9c120.5,30.9,244.4,46.7,368.8,46.9L-52.6,699V444.7z"/>
		
			<linearGradient id="SVGID_6_" gradientUnits="userSpaceOnUse" x1="501.4362" y1="422.6831" x2="2027.1962" y2="77.3931" gradientTransform="matrix(1 0 0 -1 0 900)">
			<stop  offset="0" style="stop-color:#76CCD2"/>
			<stop  offset="0" style="stop-color:#78BBCE"/>
			<stop  offset="0" style="stop-color:#7BA5C8"/>
			<stop  offset="0.17" style="stop-color:#7EA8C7"/>
			<stop  offset="0.32" style="stop-color:#89B0C5"/>
			<stop  offset="0.33" style="stop-color:#8AB1C5"/>
			<stop  offset="0.48" style="stop-color:#88B6C6"/>
			<stop  offset="0.65" style="stop-color:#82C4CA"/>
			<stop  offset="0.73" style="stop-color:#7ECDCC"/>
			<stop  offset="0.77" style="stop-color:#80CCC3"/>
			<stop  offset="0.82" style="stop-color:#86C8AB"/>
			<stop  offset="0.9" style="stop-color:#90C283"/>
			<stop  offset="0.98" style="stop-color:#9DBA4C"/>
			<stop  offset="1" style="stop-color:#A0B841"/>
		</linearGradient>
		<path class="st4" d="M770.7,626c67.2-28.5,193.2-74,364-113.7c251.3-58.3,505.2-19,505.8-19l0,0c0,0,0,8.2,0,16.3
			c0,11.8,0,20.7,0,24.7c-0.1,19.8,0,56.3,0,76.1c0,24.4,0.1,62.4,0,121H556C625.6,692.4,697.3,657.2,770.7,626z"/>
		
			<linearGradient id="SVGID_7_" gradientUnits="userSpaceOnUse" x1="792.1185" y1="1111.8015" x2="853.6985" y2="-832.5385" gradientTransform="matrix(1.06 0 0 -1.44 -121.46 1023.21)">
			<stop  offset="0" style="stop-color:#76CCD2"/>
			<stop  offset="0" style="stop-color:#6FC4C0"/>
			<stop  offset="0" style="stop-color:#5DB193"/>
			<stop  offset="0" style="stop-color:#40914A"/>
			<stop  offset="0" style="stop-color:#3D8E42"/>
			<stop  offset="3.000000e-02" style="stop-color:#4C9945"/>
			<stop  offset="9.000000e-02" style="stop-color:#64AC49"/>
			<stop  offset="0.15" style="stop-color:#75B94C"/>
			<stop  offset="0.22" style="stop-color:#80C04D"/>
			<stop  offset="0.31" style="stop-color:#83C34E"/>
			<stop  offset="0.37" style="stop-color:#7FC056"/>
			<stop  offset="0.43" style="stop-color:#7BBC61"/>
			<stop  offset="0.53" style="stop-color:#068241"/>
			<stop  offset="1" style="stop-color:#047D3F"/>
		</linearGradient>
		
			<linearGradient id="SVGID_8_" gradientUnits="userSpaceOnUse" x1="-20.7527" y1="214.5436" x2="1667.0874" y2="214.5436" gradientTransform="matrix(1.06 0 0 -1 -121.28 900.08)">
			<stop  offset="0" style="stop-color:#76CCD2"/>
			<stop  offset="0" style="stop-color:#6FC4C0"/>
			<stop  offset="0" style="stop-color:#5DB193"/>
			<stop  offset="0" style="stop-color:#40914A"/>
			<stop  offset="0" style="stop-color:#3D8E42"/>
			<stop  offset="1.000000e-02" style="stop-color:#3C9443"/>
			<stop  offset="3.000000e-02" style="stop-color:#39A547"/>
			<stop  offset="6.000000e-02" style="stop-color:#38B049"/>
			<stop  offset="0.1" style="stop-color:#37B34A"/>
			<stop  offset="0.1" style="stop-color:#40B451"/>
			<stop  offset="0.12" style="stop-color:#51B55F"/>
			<stop  offset="0.14" style="stop-color:#5CB568"/>
			<stop  offset="0.17" style="stop-color:#63B66D"/>
			<stop  offset="0.26" style="stop-color:#65B66F"/>
			<stop  offset="0.29" style="stop-color:#6FBA63"/>
			<stop  offset="0.37" style="stop-color:#7EC04F"/>
			<stop  offset="0.45" style="stop-color:#88C443"/>
			<stop  offset="0.53" style="stop-color:#8BC53F"/>
			<stop  offset="0.62" style="stop-color:#91C73D"/>
			<stop  offset="0.76" style="stop-color:#A3CD36"/>
			<stop  offset="0.91" style="stop-color:#C1D72B"/>
			<stop  offset="1" style="stop-color:#D6DE23"/>
		</linearGradient>
		<path class="st5" d="M-143.1,651c73.9-16.7,170.3-36.3,283.6-53.2c54.3-8.1,238-34.3,488.7-40.9c421-11.1,737.9,40.7,849,60.5
			c67.4,12,123.3,23.8,162.3,32.4l0.1,164.7L-143,815.7L-143.1,651z"/>
		
			<linearGradient id="SVGID_9_" gradientUnits="userSpaceOnUse" x1="726.267" y1="422.5396" x2="777.8769" y2="-1207.1106" gradientTransform="matrix(1 0 0 -1 0 900)">
			<stop  offset="0" style="stop-color:#76CCD2"/>
			<stop  offset="0" style="stop-color:#6AC4C0"/>
			<stop  offset="0" style="stop-color:#4CAE93"/>
			<stop  offset="0" style="stop-color:#1C8A4A"/>
			<stop  offset="0" style="stop-color:#178743"/>
			<stop  offset="0" style="stop-color:#1E8B41"/>
			<stop  offset="3.000000e-02" style="stop-color:#399C3A"/>
			<stop  offset="5.000000e-02" style="stop-color:#4DA834"/>
			<stop  offset="7.000000e-02" style="stop-color:#59B031"/>
			<stop  offset="9.000000e-02" style="stop-color:#5DB230"/>
			<stop  offset="0.12" style="stop-color:#53A632"/>
			<stop  offset="0.2" style="stop-color:#409035"/>
			<stop  offset="0.28" style="stop-color:#327F37"/>
			<stop  offset="0.39" style="stop-color:#277439"/>
			<stop  offset="0.54" style="stop-color:#226D3A"/>
			<stop  offset="0.96" style="stop-color:#206B3A"/>
			<stop  offset="0.98" style="stop-color:#226C3C"/>
			<stop  offset="0.98" style="stop-color:#297142"/>
			<stop  offset="0.99" style="stop-color:#347A4D"/>
			<stop  offset="0.99" style="stop-color:#45865C"/>
			<stop  offset="0.99" style="stop-color:#5B9670"/>
			<stop  offset="1" style="stop-color:#77AA88"/>
			<stop  offset="1" style="stop-color:#97C1A6"/>
			<stop  offset="1" style="stop-color:#BBDCC7"/>
			<stop  offset="1" style="stop-color:#C8E5D2"/>
		</linearGradient>
		<path class="st6" d="M140.2,682.8c0,0,196.1-68.7,699-52c412.4,13.8,486.2,53.6,486.2,53.6l-210,103.8H661.6L173,701.7
			L140.2,682.8z"/>
		
			<linearGradient id="SVGID_10_" gradientUnits="userSpaceOnUse" x1="-55.01" y1="115.28" x2="1181.29" y2="115.28" gradientTransform="matrix(1 0 0 -1 0 900)">
			<stop  offset="0" style="stop-color:#76CCD2"/>
			<stop  offset="0" style="stop-color:#6AC4C0"/>
			<stop  offset="0" style="stop-color:#4CAE93"/>
			<stop  offset="0" style="stop-color:#1C8A4A"/>
			<stop  offset="0" style="stop-color:#178743"/>
			<stop  offset="1.000000e-02" style="stop-color:#1F8448"/>
			<stop  offset="3.000000e-02" style="stop-color:#2B7F4F"/>
			<stop  offset="5.000000e-02" style="stop-color:#2F7D51"/>
			<stop  offset="0.48" style="stop-color:#267344"/>
			<stop  offset="0.96" style="stop-color:#206B3A"/>
			<stop  offset="0.98" style="stop-color:#226C3C"/>
			<stop  offset="0.98" style="stop-color:#297142"/>
			<stop  offset="0.99" style="stop-color:#347A4D"/>
			<stop  offset="0.99" style="stop-color:#45865C"/>
			<stop  offset="0.99" style="stop-color:#5B9670"/>
			<stop  offset="1" style="stop-color:#77AA88"/>
			<stop  offset="1" style="stop-color:#97C1A6"/>
			<stop  offset="1" style="stop-color:#BBDCC7"/>
			<stop  offset="1" style="stop-color:#C8E5D2"/>
		</linearGradient>
		<path class="st7" d="M0,669.4c165.2,8.9,305.5,22.1,414.3,34.3c298.4,33.5,538.9,79.7,662.3,103.9h0.1L0,900V669.4z"/>
		
			<linearGradient id="SVGID_11_" gradientUnits="userSpaceOnUse" x1="627.3555" y1="314.1331" x2="89.3055" y2="-116.5369" gradientTransform="matrix(1 0 0 -1 0 900)">
			<stop  offset="0" style="stop-color:#76CCD2"/>
			<stop  offset="0" style="stop-color:#6AC4C0"/>
			<stop  offset="0" style="stop-color:#4CAE93"/>
			<stop  offset="0" style="stop-color:#1C8A4A"/>
			<stop  offset="0" style="stop-color:#178743"/>
			<stop  offset="1.000000e-02" style="stop-color:#136D36"/>
			<stop  offset="2.000000e-02" style="stop-color:#10592D"/>
			<stop  offset="3.000000e-02" style="stop-color:#0E4D27"/>
			<stop  offset="4.000000e-02" style="stop-color:#0D4925"/>
			<stop  offset="9.000000e-02" style="stop-color:#0F4C27"/>
			<stop  offset="0.7" style="stop-color:#053D1C"/>
			<stop  offset="0.77" style="stop-color:#043B1B"/>
		</linearGradient>
		<path class="st8" d="M314.2,806.1c1.1,2.6,1.6,5.5,1.2,8.4c7.2-5.9,15.9-7.2,21.6-3c4.8,3.5,7.6,10.9,8,17
			c0.3,5.3-1.3,8.3,0.3,10.3c2.1,2.5,6.8,0.2,11.7-1.2c10.7-2.9,19.9,0,29.3,3.1c0,0,3.6,1,23.7,11.1h-1.3
			c-76-4.1-152.2,0.8-227,14.8c-0.1-1.1-1.4-14.2,8.7-22.8c8.1-6.7,19.5-8,28.8-3.2c-0.5-1.9-0.7-3.9-0.5-5.8
			c1-8.3,9.6-12.9,14.3-15.5c7.4-3.9,15.7-5.5,24-4.6c0.2-2.2,1-8.4,5.3-12.2c5.9-5.3,16.4-4.2,24.1,4.4c1-1.8,4.2-6.9,10-8.6
			C302.9,796.4,311,799.1,314.2,806.1z"/>
		
			<linearGradient id="SVGID_12_" gradientUnits="userSpaceOnUse" x1="-31.0776" y1="90.0639" x2="411.2025" y2="449.8139" gradientTransform="matrix(1 -9.000000e-02 -9.000000e-02 -1 13.13 1079.23)">
			<stop  offset="9.000000e-02" style="stop-color:#0F4C27"/>
			<stop  offset="0.28" style="stop-color:#053D1C"/>
			<stop  offset="0.3" style="stop-color:#043B1B"/>
		</linearGradient>
		<path class="st9" d="M-20.7,885.6c0.6-1.2,5.5-10.8,15.8-12.4c5-0.7,10,0.4,14.2,3.1c0-0.7-0.1-16.5,9.9-22.9
			c9.8-6.3,25.9-1.4,34.1,14.5c-11-56,40.4-28,48.6-13.2c3.1-52.8,42.7-21.3,42.5-1.4c1.6-10.4,8.4-18.1,16.2-19.1
			c10.3-1.3,21.8,9.3,22.1,24.5c8.8-8.8,14-9.5,17.2-8.1C205.6,853,210,865,210,865l0,0L-20.7,885.6z"/>
		
			<linearGradient id="SVGID_13_" gradientUnits="userSpaceOnUse" x1="-301.61" y1="80.7432" x2="2023.7899" y2="80.7432" gradientTransform="matrix(1 0 0 -1 0 900)">
			<stop  offset="0" style="stop-color:#76CCD2"/>
			<stop  offset="0" style="stop-color:#6AC4C0"/>
			<stop  offset="0" style="stop-color:#4CAE93"/>
			<stop  offset="0" style="stop-color:#1C8A4A"/>
			<stop  offset="0" style="stop-color:#178743"/>
			<stop  offset="1.000000e-02" style="stop-color:#136D36"/>
			<stop  offset="2.000000e-02" style="stop-color:#10592D"/>
			<stop  offset="4.000000e-02" style="stop-color:#0E4D27"/>
			<stop  offset="5.000000e-02" style="stop-color:#0D4925"/>
			<stop  offset="0.25" style="stop-color:#085028"/>
			<stop  offset="0.57" style="stop-color:#055429"/>
			<stop  offset="0.74" style="stop-color:#07552B"/>
			<stop  offset="0.8" style="stop-color:#0E5A31"/>
			<stop  offset="0.84" style="stop-color:#19633B"/>
			<stop  offset="0.88" style="stop-color:#2A7049"/>
			<stop  offset="0.91" style="stop-color:#40805D"/>
			<stop  offset="0.93" style="stop-color:#5C9474"/>
			<stop  offset="0.96" style="stop-color:#7CAD90"/>
			<stop  offset="0.98" style="stop-color:#A0C8B0"/>
			<stop  offset="1" style="stop-color:#C8E5D2"/>
		</linearGradient>
		<path class="st10" d="M-50.7,943.6c-3.6-31.7,355.8-98.5,978.8-214.3c60-11.2,159.4-29.2,288.9-39.2c88.7-6.9,160.3-7.5,200.6-7.3
			c65,0.3,176.2,3.5,225.6,7.2c3.3,77.5-25.9,148.6-22.6,226.1c-496.4-1.4-928.6,15.7-1232.7,27.5
			C110.8,954.3-48.2,964.5-50.7,943.6z"/>
		
			<linearGradient id="SVGID_14_" gradientUnits="userSpaceOnUse" x1="-106.8655" y1="-116.8086" x2="386.3545" y2="284.3714" gradientTransform="matrix(1 0 0 -1 0 900)">
			<stop  offset="9.000000e-02" style="stop-color:#0F4C27"/>
			<stop  offset="0.28" style="stop-color:#053D1C"/>
			<stop  offset="0.3" style="stop-color:#043B1B"/>
		</linearGradient>
		<path class="st11" d="M-90.3,902.3c0.8-1.7,7.1-15.1,18.5-16.2c7.8-0.8,13.4,4.6,15.2,6.5c0.1-1,1.5-24.2,13-32.3
			c11.3-8,28.5,1.4,35.9,25.7c-6.5-83.7,46.9-35.8,54.4-13c8.5-77.2,48.9-32.1,46.7-3c2.7-15,10.9-19,19.5-19.5
			c11.4-0.6,22.9,16.5,21.7,38.8c10.5-11.7,16.2-12.1,19.6-9.7c6.1,4.5,9.8,22.6,9.8,22.6L-90.3,902.3L-90.3,902.3z"/>
		
			<linearGradient id="SVGID_15_" gradientUnits="userSpaceOnUse" x1="1067.3628" y1="116.4588" x2="1168.0728" y2="350.4988" gradientTransform="matrix(1 0 0 -1 0 900)">
			<stop  offset="0" style="stop-color:#76CCD2"/>
			<stop  offset="0" style="stop-color:#6AC4C0"/>
			<stop  offset="0" style="stop-color:#4CAE93"/>
			<stop  offset="0" style="stop-color:#1C8A4A"/>
			<stop  offset="0" style="stop-color:#178743"/>
			<stop  offset="1.000000e-02" style="stop-color:#136D36"/>
			<stop  offset="2.000000e-02" style="stop-color:#10592D"/>
			<stop  offset="4.000000e-02" style="stop-color:#0E4D27"/>
			<stop  offset="5.000000e-02" style="stop-color:#0D4925"/>
			<stop  offset="0.13" style="stop-color:#0E5028"/>
			<stop  offset="0.34" style="stop-color:#0F5B2E"/>
			<stop  offset="0.57" style="stop-color:#105F30"/>
			<stop  offset="0.74" style="stop-color:#126032"/>
			<stop  offset="0.8" style="stop-color:#196538"/>
			<stop  offset="0.84" style="stop-color:#246E42"/>
			<stop  offset="0.88" style="stop-color:#357A51"/>
			<stop  offset="0.91" style="stop-color:#4B8A64"/>
			<stop  offset="0.94" style="stop-color:#679E7C"/>
			<stop  offset="0.96" style="stop-color:#87B699"/>
			<stop  offset="0.99" style="stop-color:#ABD0B9"/>
			<stop  offset="1" style="stop-color:#C8E5D2"/>
		</linearGradient>
		<path class="st12" d="M1045.1,710.1c0,0-8.8-21.8,17.6-16c-14.4-28.3,24.6-33.5,33.8-15.5c15.4-43.3,38.7-10.1,33.1-0.1
			c21.4-20.9,32.6,11.1,32.6,11.1l2.2,6.6L1045.1,710.1z"/>
		
			<linearGradient id="SVGID_16_" gradientUnits="userSpaceOnUse" x1="385.39" y1="594.1274" x2="1221.0699" y2="594.1274" gradientTransform="matrix(0.91 -0.14 -8.000000e-02 -0.51 252.21 1135.4)">
			<stop  offset="0" style="stop-color:#76CCD2"/>
			<stop  offset="0" style="stop-color:#6AC4C0"/>
			<stop  offset="0" style="stop-color:#4CAE93"/>
			<stop  offset="0" style="stop-color:#1C8A4A"/>
			<stop  offset="0" style="stop-color:#178743"/>
			<stop  offset="1.000000e-02" style="stop-color:#136D36"/>
			<stop  offset="2.000000e-02" style="stop-color:#10592D"/>
			<stop  offset="4.000000e-02" style="stop-color:#0E4D27"/>
			<stop  offset="5.000000e-02" style="stop-color:#0D4925"/>
			<stop  offset="0.13" style="stop-color:#0E5028"/>
			<stop  offset="0.34" style="stop-color:#0F5B2E"/>
			<stop  offset="0.57" style="stop-color:#105F30"/>
			<stop  offset="0.74" style="stop-color:#126032"/>
			<stop  offset="0.8" style="stop-color:#196538"/>
			<stop  offset="0.84" style="stop-color:#246E42"/>
			<stop  offset="0.88" style="stop-color:#357A51"/>
			<stop  offset="0.91" style="stop-color:#4B8A64"/>
			<stop  offset="0.94" style="stop-color:#679E7C"/>
			<stop  offset="0.96" style="stop-color:#87B699"/>
			<stop  offset="0.99" style="stop-color:#ABD0B9"/>
			<stop  offset="1" style="stop-color:#C8E5D2"/>
		</linearGradient>
		<path class="st13" d="M891.3,713.7c1.5,1.4,2.3,3.4,2.3,5.5c7.7-5.2,17.5-7.6,24.5-5.7c5.8,1.6,9.8,6.1,10.9,10.2
			c0.9,3.6-0.7,5.9,1.4,7c2.7,1.3,7.8-1.1,13.3-2.8c12-3.8,22.9-3.4,34-3c0,0,3.5-2,27.5,1.4l3.8,0.5
			C922.3,740,831.3,755,744.5,768.3c2.3-3,5.1-5.6,8.3-7.6c13-8.4,30-7.3,32.8-7.1c-0.8-1.1-1.2-2.5-1.1-3.9
			c0.3-5.8,9.7-10.4,14.9-13c8.5-4,17.7-6.5,27.1-7.2c0-3.7,1.9-7.1,4.9-9.2c6.3-4.6,18.4-5.6,28.2-1.2c2.6-3.6,6.3-6.2,10.6-7.5
			C877.3,709.1,887,709.6,891.3,713.7z"/>
		
			<linearGradient id="SVGID_17_" gradientUnits="userSpaceOnUse" x1="1228.4254" y1="650.91" x2="1228.4254" y2="298.49" gradientTransform="matrix(1 0 0 -1 0 900)">
			<stop  offset="0.18" style="stop-color:#BCEDE4"/>
			<stop  offset="0.23" style="stop-color:#B8ECE4"/>
			<stop  offset="0.27" style="stop-color:#ADEAE3"/>
			<stop  offset="0.3" style="stop-color:#A0E7E2"/>
		</linearGradient>
		<path class="st14" d="M1165.7,332.5c0,0,34.7-34.5,87.2-24.6s44.4,38.6,19,40.4s-75.3,2.1-86.2,0S1161.9,346.7,1165.7,332.5z"/>
		
			<linearGradient id="SVGID_18_" gradientUnits="userSpaceOnUse" x1="444.4455" y1="617.33" x2="444.4455" y2="510.51" gradientTransform="matrix(1 0 0 -1 0 900)">
			<stop  offset="0.15" style="stop-color:#BCEDE4"/>
			<stop  offset="0.25" style="stop-color:#B8ECE4"/>
			<stop  offset="0.34" style="stop-color:#ADEAE3"/>
			<stop  offset="0.42" style="stop-color:#9DE7E1"/>
		</linearGradient>
		<path class="st15" d="M400,311.6c0,0,37-23.9,80.1-17c40,19.5,16.2,39.1-23.1,36.9c-41.6-2.3-57-3.5-57-3.5S373.4,323.6,400,311.6
			z"/>
		
			<linearGradient id="SVGID_19_" gradientUnits="userSpaceOnUse" x1="803.4074" y1="591.12" x2="803.4074" y2="342.83" gradientTransform="matrix(1 0 0 -1 0 900)">
			<stop  offset="0.15" style="stop-color:#BCEDE4"/>
			<stop  offset="0.21" style="stop-color:#B8ECE4"/>
			<stop  offset="0.27" style="stop-color:#ADEAE3"/>
			<stop  offset="0.31" style="stop-color:#A0E7E2"/>
		</linearGradient>
		<path class="st16" d="M750.2,363.7c1.4-4.4,36-23.9,71.2-16.4c36.5,11.4,51.6,33.8,16.5,36.4c-24.2,1.6-48.5,0.6-72.5-3.2
			C756.8,379.1,745.7,377.7,750.2,363.7z"/>
		
			<linearGradient id="SVGID_20_" gradientUnits="userSpaceOnUse" x1="1137.5497" y1="-44.8599" x2="1126.7997" y2="-90.1299" gradientTransform="matrix(0.9966 8.298215e-02 8.298215e-02 -0.9966 195.9861 428.4159)">
			<stop  offset="0" style="stop-color:#1EAB4B"/>
			<stop  offset="8.000000e-02" style="stop-color:#2EAF4C"/>
			<stop  offset="0.26" style="stop-color:#4AB54F"/>
			<stop  offset="0.43" style="stop-color:#5EB951"/>
			<stop  offset="0.61" style="stop-color:#6ABC52"/>
			<stop  offset="0.78" style="stop-color:#6EBD52"/>
		</linearGradient>
		<path class="st17" d="M1299.1,585.3c0.2-0.7,2.2-8.1,5.9-9.5c2.5-1,4.3,1.4,4.7,2.1c2.5-9.9,8.7-9,10.8-1.7c9-4.2,6.2,1,9.2,8.2
			c15.4-6.5,10.5,11.6,10.5,11.6l4.8,0.4l-54.9-7"/>
		
			<linearGradient id="SVGID_21_" gradientUnits="userSpaceOnUse" x1="1401.5216" y1="61.848" x2="1841.7516" y2="419.918" gradientTransform="matrix(1 0 0 -1 0 900)">
			<stop  offset="9.000000e-02" style="stop-color:#0F4C27"/>
			<stop  offset="0.28" style="stop-color:#053D1C"/>
			<stop  offset="0.3" style="stop-color:#043B1B"/>
		</linearGradient>
		<path class="st18" d="M1415.5,735c0.7-1.3,6.4-11.5,16.6-12.4c7-0.6,12.1,3.5,13.7,5c0-0.8,1.4-18.5,11.8-24.8s24.4-5.9,31,12.7
			c5-53.2,43.6-20.5,50.3-3c7.7-59.1,44-19.6,42,2.7c2.5-11.5,9.9-19.5,17.6-19.8c10.2-0.4,20.6,12.7,19.6,29.7
			c9.5-9,14.6-9.3,17.6-7.4c5.5,3.4,8.8,17.3,8.8,17.3L1415.5,735L1415.5,735z"/>
		<path class="st19" d="M1219.8-187.9c37.7,155.6,158.9,615.5,205.7,795.2c0,0,0.7,24.4,16.7,85.6s24.6,83.8,25.3,97.2
			s7.2,66.8,30.2,160.6l185.9-86c-40.6-105.3-88.8-274.5-139.4-481.5c0,0,218.1-64.2,234.3-97.1c0,0,12.2-25,8.5-48
			c2.7-5,3.8-10.7,3-16.3c-1.2-9.8,5-76.2,5.8-84.2s2.8-19,0.7-40.9s2.2-22.4,2.2-22.4s-2.9-4.1-5.4,7.7s0.9,22.5-0.7,33
			c0,0-4.6-11.9-6.3-21.8c0,0-0.8,2.5,4,26.8c3.6,18.1-2,10.1,1.9,58.9c0,0-8.8-35.3-10.1-42.6c-1.5-8.1-2.7-13-1-54.4
			c0.6-13.8-6.2-38.6-6.2-38.6s7,39.4,1.1,52.5c0,0-1.9,5.8-1.6,9.9c0,0-14.8-39.5-16.7-48.7l-0.8-0.1
			c12.2,34.7,30.7,118,17.4,154.5c-2.7,1.4,2.5-29.5,0.9-37.7s-7.5-33.6-7.2-36.4c0,0-2.5-0.5,2.4,25.1c0,0-7.9-13.4-9.4-17
			c0,0-3-3.9,5,13.7s5.7,66.3,5.3,70.9c-21.4,22.7-209.5,50.6-239.3,68.5c-0.8,5.3-4.3-4.4-10-4.4c-20.8-90.4-110.2-455.4-139.9-557
			L1219.8-187.9z"/>
		<path class="st20" d="M1490.3,658.7c-90.7-213.6-187.7-665.4-228.8-866l120.2-55.6c29.3,99.7,119.7,468.9,139.9,557
			c5.8-0.1,4.6,3,10.3,0.5c37.8-12.6,214.7-42.3,238.9-64.6c0.4-4.6,2.7-53.2-5.3-70.9s-5-13.7-5-13.7c1.5,3.6,9.4,17,9.4,17
			c-5-25.6-2.4-25.1-2.4-25.1c-0.3,2.9,5.6,28.2,7.2,36.4s-3.6,39.2-0.9,37.7c13.4-36.5-5.1-119.7-17.3-154.6l0.8,0.1
			c1.9,9.2,16.7,48.7,16.7,48.7c-0.3-4.1,1.6-9.9,1.6-9.9c5.9-13.1-1.1-52.5-1.1-52.5s6.7,24.8,6.2,38.6c-1.7,41.4-0.5,46.3,1,54.4
			c1.3,7.2,10.1,42.6,10.1,42.6c-3.9-48.8,1.8-40.8-1.9-58.9c-4.9-24.3-4-26.8-4-26.8c1.7,9.9,6.3,21.8,6.3,21.8
			c1.6-10.5-1.8-21.1,0.7-33s5.4-7.7,5.4-7.7s-4.4,0.5-2.2,22.4s0,32.9-0.7,40.9s-6.9,74.4-5.8,84.2c0.8,5.6-0.3,11.4-3,16.3
			c3.7,23-10.2,49-10.2,49c-18,43.3-232.6,96-232.6,96c50.7,207.6,98.6,375.6,139.4,481.5L1563.8,920
			C1564.8,919.7,1499.8,684.2,1490.3,658.7z"/>
		<path class="st21" d="M1521.2,647.2c8.7,29.7,16.1,84,29.3,126c8,26.5,9.3,38.3,28.6,86c0,0,9.2,20,11.1,51.6l4.8-2.2
			c1.5-17.7-31-92.8-35.8-116.1c-15.9-50.3-24.2-102.6-36.8-148.1L1521.2,647.2z"/>
		<path class="st22" d="M1539.8,614.5c22.4,75.9,51.7,145,72,240.8c0,0-15.6-70.5-22.9-97.6c-13.3-52-37.5-105.5-47.5-153.6
			C1539.8,590.7,1539.8,614.5,1539.8,614.5z"/>
		<path class="st22" d="M1542.9,542.5c0,0,17.8,72.7,26.8,102.9S1542.4,565.6,1542.9,542.5z"/>
		<path class="st22" d="M1545.6,521.6c26.2,42.6,94.6,356.2,97.2,362l-3.5,4.5c0,0-25.1-124.2-72.9-302.9c0,0-14.9-48.4-20.7-57.2
			L1545.6,521.6z"/>
		<path class="st22" d="M1784,247.4c-274,121.4-281.4,42.1-207.7,305.7c-25.3-103.1-93.9-145.6,97.6-208.6
			C1740.2,315.2,1788.9,307.7,1784,247.4z"/>
		<path class="st22" d="M1342.3-248.4c49.5,59,161.5,745,181.5,791c-17.8-183.7-113.1-615.1-167.9-797.2c0,0,9.4,33.5,10.8,45.3
			c0.9,6.9-24.2-48.5-24.2-48.5L1342.3-248.4z"/>
		<path class="st22" d="M1364.1-265.2c19.4,97.9,115.8,419.9,142.9,551.7c-10.6-62.1-115.2-465.3-138.2-550.7L1364.1-265.2z"/>
		<path class="st22" d="M1294.2-227.4c0,0,107,309.9,161.1,537.8c0,0-120.6-529.7-156.8-548L1294.2-227.4z"/>
		<path class="st22" d="M1298.8-199.8c7.3,71.7,155.1,624.9,207.2,712l21.7,83.5C1527.7,595.7,1319.3-48.7,1298.8-199.8z"/>
		<path class="st23" d="M1477.8,563.8c0,0,46.6,101.6,48.4,120.4c8.9,55.2,23.2,115.9,47.9,172.7c13.4,27.6,11.4,47.8,6.2,37.4
			c-20.9-41.7-39.5-119.2-53.7-166.4C1513.9,677.3,1487.2,600.8,1477.8,563.8z"/>
		<path class="st23" d="M1531.9,623.3c12.6,58.6,69.2,178.6,81.7,264.1c2.4-53.4-121.7-380.5-130.5-408L1531.9,623.3z"/>
		<path class="st23" d="M1591.7,704.8c-5.7-37.3-57.3-183.1-67.6-235.2C1524.1,469.6,1573.4,611.8,1591.7,704.8z"/>
		<path class="st23" d="M1543.6,581.7c0,0,25.4,79.9,36.5,107.1C1581.9,695.6,1534.8,527.8,1543.6,581.7z"/>
		<path class="st23" d="M1307.5-35.3c18.6,59.3,123.8,423.4,134.3,493.9c4.9,31.8,61.3,159.7,56.6,173.3
			C1422.4,465.6,1351.7,135.8,1307.5-35.3z"/>
		<path class="st23" d="M1429.2,312c12.6,58.6,69.2,178.6,81.7,264.1c-14.4-97.2-191.1-647.6-203.3-708.2L1429.2,312z"/>
		<path class="st23" d="M1489,393.5c-9.5-52.6-122.2-471.9-140.4-535.3C1348.6-141.9,1470.7,300.4,1489,393.5z"/>
		<path class="st23" d="M1440.9,270.4c0,0,25.4,79.9,36.5,107.1C1479.2,384.3,1432.1,216.4,1440.9,270.4z"/>
		<path class="st24" d="M1419.2,473.9c7.3,25.7,14.3,51.6,20.9,77.5c3.3,13,6.4,26,9.3,39.1s5.5,26.2,7.8,39.4s4.3,26.4,6.2,39.7
			l5.3,39.8c1.8,13.3,3.7,26.5,6.1,39.7c1.3,6.6,2.5,13.1,3.9,19.7s2.9,13,4.4,19.6h-0.1c-1.6-6.5-3.4-13-4.8-19.5
			s-2.8-13.1-4.1-19.7c-2.5-13.2-4.6-26.4-6.5-39.6c-3.6-26.5-6.8-53.1-11.3-79.5c-2.3-13.2-4.8-26.3-7.7-39.4s-5.9-26.1-9.1-39.1
			C1433.2,525.5,1426.4,499.7,1419.2,473.9L1419.2,473.9z"/>
		<path class="st24" d="M1449.6,570.7c7.7,30.2,15.9,60.2,24.1,90.2l24.6,90.1l12.2,45l12,45.1c3.9,15.1,7.8,30.2,11.5,45.3
			c3.8,15.1,7.4,30.2,10.6,45.5h-0.1c-7-30.3-14.9-60.4-22.9-90.5l-12-45.1l-12.1-45.1l-24.3-90.1c-8-30.1-16.2-60.1-23.7-90.3
			L1449.6,570.7z"/>
		<path class="st24" d="M1602.2,373.5c-4.9,1.7-9.7,3.7-14.4,6c-4.7,2.2-9.2,4.7-13.6,7.5c-4.4,2.7-8.6,5.9-12.4,9.3
			c-3.9,3.4-7.2,7.4-10,11.8c-2.8,4.4-4.4,9.3-4.8,14.5c-0.1,5.2,0.3,10.3,1.2,15.4c1.5,10.3,3.7,20.4,6,30.5
			c4.6,20.3,10,40.3,15.5,60.4s11.2,40,17.1,60h-0.1c-6.3-19.8-12.1-39.8-17.8-59.8c-2.8-10-5.6-20-8.2-30.1s-5.1-20.1-7.4-30.3
			s-4.4-20.3-5.9-30.6c-0.8-5.2-1.2-10.4-1.2-15.6c0.4-5.3,2.1-10.3,5-14.8c2.8-4.4,6.3-8.4,10.2-11.8c3.9-3.4,8.1-6.5,12.6-9.2
			c4.4-2.7,9-5.2,13.7-7.4C1592.4,377.1,1597.2,375.1,1602.2,373.5L1602.2,373.5z"/>
		<path class="st24" d="M1534.6,429.6c3.6,18.5,8.3,36.8,13.6,54.9s11,36.1,16.7,54.1s11.2,36,16.2,54.2l3.7,13.7l3.4,13.7l3.2,13.8
			l3.1,13.8c4.3,18.4,8.7,36.7,13.3,55s9.1,36.6,13.8,54.9c2.3,9.1,4.6,18.3,7,27.4c1.3,4.5,2.8,9,4.5,13.3c1.7,4.4,3.7,8.7,5.6,13
			c3.9,8.6,7.8,17.2,11.1,26c3.3,8.8,6,17.9,7.9,27.2h-0.1c-2.1-9.2-4.8-18.2-8.2-27c-3.3-8.8-7.3-17.4-11.3-25.9
			c-2-4.3-3.9-8.6-5.7-13c-1.8-4.4-3.3-8.9-4.6-13.4c-2.5-9.1-4.8-18.2-7.2-27.4c-9.3-36.6-18.4-73.2-26.8-110l-3.1-13.8l-3.2-13.8
			l-3.4-13.6l-3.6-13.7c-4.9-18.2-10.4-36.2-16.1-54.2s-11.3-36-16.5-54.1S1538,448.2,1534.6,429.6L1534.6,429.6z"/>
		<path class="st24" d="M1510.7,417.8c6.5,22.9,13.6,45.6,20.7,68.3l21.1,68.2l10.4,34.1l5.1,17.1l5,17.1
			c3.2,11.5,6.4,22.9,9.4,34.5c1.6,5.7,2.9,11.5,4.4,17.3s2.7,11.6,4,17.4h-0.1c-5.7-23.1-12-46-18.7-68.9l-5-17.1l-5.1-17.1
			l-10.2-34.2l-20.8-68.3c-6.9-22.8-13.9-45.5-20.3-68.5L1510.7,417.8z"/>
		<path class="st24" d="M1514.2,468.3c4,16.4,8.3,32.6,12.9,48.8l3.4,12.2l3.5,12.1c2.3,8.1,4.7,16.2,7.1,24.2l29.1,96.7l7.2,24.2
			l7.1,24.2l6.9,24.3c2.3,8.1,4.5,16.2,6.7,24.3c4.3,16.3,8.6,32.6,12.5,48.9l1.5,6.1l1.4,6.2l2.7,12.3c0.9,4.1,1.7,8.2,2.5,12.4
			l2.4,12.4h-0.1c-6.5-33-14.9-65.7-23.8-98.1c-2.2-8.1-4.4-16.2-6.7-24.3l-6.9-24.2l-7-24.3l-7.1-24.2l-28.8-96.8
			c-2.4-8.1-4.7-16.2-7-24.3l-3.5-12.1l-3.4-12.2C1522.3,501,1518.1,484.7,1514.2,468.3L1514.2,468.3z"/>
		<path class="st24" d="M1492.5,665.7c4.9,11.8,9.7,23.7,14.3,35.7s9.2,23.9,13.5,36c1.1,3,2.2,6,3.2,9c1,3,2.1,6,3.2,9.1l3,9.1
			c1,3,1.9,6.1,2.9,9.2l1.4,4.6l1.3,4.6c0.9,3.1,1.8,6.2,2.6,9.3s1.6,6.2,2.4,9.3l2,9.4h-0.1c-3-12.5-6.6-24.7-10.5-36.9
			c-1-3-1.9-6.1-2.9-9.2l-3-9.1c-1-3-2-6.1-3.1-9.1s-2.1-6.1-3.1-9.1c-4.2-12.1-8.7-24.1-13.2-36.1s-9.2-23.9-14-35.8L1492.5,665.7z
			"/>
		<path class="st24" d="M1482.8,581.4c1.5,14.5,4.9,28.7,8.4,42.8s7.5,28.1,11.5,42.1c8.1,28,16.6,55.8,24.8,83.8c2,7,4.1,14,6,21
			l2.9,10.5l2.8,10.6l1.4,5.3l1.3,5.3c0.8,3.5,1.7,7.1,2.5,10.7l2.2,10.7c0.7,3.6,1.3,7.2,2.1,10.7c2.9,14.2,6.7,28.3,10.8,42.3
			c2.1,7,4.2,13.9,6.5,20.8c2.3,6.9,4.6,13.8,7.1,20.7h-0.1c-5.2-13.6-9.9-27.4-14.1-41.4c-4.3-13.9-8.1-28-11.2-42.3
			c-0.8-3.5-1.4-7.2-2.1-10.7l-2.2-10.7c-0.7-3.6-1.6-7.1-2.4-10.6l-1.3-5.3l-1.4-5.3l-2.7-10.5l-2.8-10.5c-1.9-7-3.9-14-5.9-21
			c-8-28-16.5-55.9-24.5-83.9c-4-14-7.9-28-11.3-42.2S1484.1,596,1482.8,581.4L1482.8,581.4z"/>
		<path class="st24" d="M1526.2,645.1c1.8,11.2,4.1,22.3,6.5,33.5s4.8,22.2,7.4,33.3c5.1,22.1,10.5,44.2,16.2,66.2
			c2.9,11,5.9,21.9,9.1,32.8c1.7,5.4,3.2,10.9,5,16.3l1.3,4c0.5,1.3,1,2.7,1.4,4c1,2.7,2,5.3,3,8c4,10.6,8.2,21.2,11.3,32.2
			c1.6,5.5,3,11,4.2,16.5s2.3,11.1,3.3,16.7h-0.1c-2.3-11.1-4.8-22.2-8.1-33.1s-7.5-21.4-11.6-32c-8.3-21.2-14-43.3-19.7-65.3
			s-10.9-44.1-15.9-66.3c-2.5-11.1-4.9-22.2-7.2-33.3s-4.5-22.3-6.3-33.5L1526.2,645.1z"/>
		<path class="st24" d="M1521.8,294.2c-0.2,0.5-0.2,1-0.2,1.6c0,0.5,0,1.1,0,1.6c0.1,1.1,0.2,2.1,0.3,3.2c0.3,2.1,0.6,4.3,1,6.4
			c0.8,4.2,1.7,8.4,2.7,12.6c0.5,2.1,1,4.2,1.6,6.3l1.5,6.3c0.9,4.2,2,8.4,2.8,12.6h-0.1c-1.4-4.1-2.6-8.2-3.7-12.4l-0.8-3.1
			l-0.7-3.1c-0.5-2.1-0.9-4.2-1.4-6.3c-0.9-4.2-1.7-8.4-2.4-12.7c-0.3-2.1-0.6-4.3-0.8-6.4c-0.1-1.1-0.2-2.1-0.2-3.2
			c0-0.5,0-1.1,0-1.6c0-0.6,0.1-1.1,0.3-1.6L1521.8,294.2z"/>
		<path class="st24" d="M1531.3,299.9c32.3-8.3,64.6-16.4,97-24.3l24.3-5.9l24.3-5.7c8.1-1.8,16.3-3.6,24.4-5.4l12.2-2.6l12.3-2.4
			v0.1c-16.3,3.6-32.5,7.3-48.7,11.2l-48.7,11.5c-32.4,7.8-64.8,15.6-97.1,23.6L1531.3,299.9z"/>
		<path class="st24" d="M1372.3-284c3.6,12.8,7.2,25.6,10.6,38.4s6.9,25.7,10.3,38.5c6.8,25.7,13.5,51.4,20.2,77.1
			c13.3,51.4,26.5,102.9,39.5,154.4l19.4,77.3l19,77.4l9.3,38.8l9.1,38.8c5.9,25.9,12,51.8,16.9,77.9h-0.1c-1.3-6.5-2.7-13-4-19.5
			l-4.4-19.4c-2.9-13-6-25.9-9-38.8l-9.3-38.8l-9.4-38.7l-19-77.4l-19.2-77.3c-12.9-51.5-26-103-39.2-154.4
			c-6.6-25.7-13.3-51.4-20-77.1c-3.4-12.9-6.8-25.7-10.2-38.5C1379.3-258.3,1375.8-271.1,1372.3-284L1372.3-284z"/>
		<path class="st24" d="M1497.5,342.7c-2.3-6.6-4.3-13.3-6.2-20.1s-3.7-13.5-5.3-20.3c-3.4-13.6-6.6-27.2-9.6-40.9
			c-6.1-27.3-11.9-54.8-17.6-82.2c-11.4-54.9-22.6-109.8-34.5-164.5s-24.3-109.4-38.9-163.5c-7.3-27.1-15-54-24-80.5
			c-4.5-13.3-9.4-26.4-14.8-39.3c-5.5-12.9-11.5-25.6-19.3-37.3l0.1-0.1c7.8,11.6,14,24.3,19.6,37.1s10.4,26,15,39.3
			c9.2,26.5,17,53.4,24.4,80.4c14.5,54.1,26.9,108.8,38.7,163.6s23,109.7,34.2,164.6c5.7,27.4,11.3,54.9,17.4,82.2
			c3,13.7,6.2,27.3,9.5,40.9c1.7,6.8,3.4,13.6,5.3,20.3c1.9,6.8,3.8,13.5,6.1,20.1L1497.5,342.7z"/>
		<path class="st24" d="M1320-273.8c27.8,108,55.4,216.1,82.8,324.2c13.7,54.1,27.2,108.2,40.7,162.3c6.7,27.1,13.3,54.2,19.8,81.3
			c3.3,13.6,6.5,27.1,9.6,40.7c1.6,6.8,3.1,13.6,4.6,20.4c0.7,3.4,1.5,6.8,2.2,10.2l1,5.1l0.8,5.2h-0.1l-0.9-5.1l-1.1-5.1
			c-0.7-3.4-1.5-6.8-2.3-10.2c-1.5-6.8-3.2-13.6-4.8-20.4c-3.2-13.6-6.5-27.1-9.8-40.7c-6.6-27.1-13.3-54.1-20.1-81.2
			c-13.4-54.1-26.9-108.2-40.5-162.3L1361-111.6l-41.2-162.2L1320-273.8z"/>
		<path class="st24" d="M1293.2-267.5c13.6,43.8,27.1,87.6,40.4,131.4S1360-48.3,1373-4.3c6.5,22,12.9,44,19.3,66s12.6,44,18.8,66.1
			c3.1,11,6.2,22.1,9.1,33.1s6,22.1,9,33.2l8.7,33.3l8.3,33.4h-0.1c-11.3-44.4-23.5-88.6-36-132.7s-25.2-88.1-38-132.1
			s-25.9-87.9-39.1-131.8s-26.5-87.7-40-131.5L1293.2-267.5z"/>
		<path class="st24" d="M1294.2-227.4c10.1,45.5,20.4,90.9,30.8,136.4s20.9,90.8,31.5,136.2l16.2,68c5.4,22.7,11,45.3,16.5,67.9
			c5.6,22.6,11.2,45.2,17.2,67.8c1.5,5.6,3,11.3,4.5,16.9l2.3,8.4l2.4,8.4c3.2,11.2,6.4,22.4,10.6,33.3h-0.1
			c-4.3-10.9-7.6-22-10.9-33.2l-2.4-8.4l-2.3-8.4c-1.6-5.6-3.1-11.2-4.6-16.9c-6-22.5-11.8-45.1-17.5-67.7s-11.1-45.3-16.5-67.9
			l-16-68.1c-21.1-90.8-41.7-181.7-61.7-272.8L1294.2-227.4z"/>
		<path class="st24" d="M1247.9-246.5c5.7,11.7,9.9,24.1,14,36.4s7.7,24.9,11.3,37.4c7.1,25,13.7,50.2,20.2,75.4
			c12.8,50.5,24.9,101.1,37,151.8l18.1,76c6,25.3,12.1,50.7,18.2,76c6.1,25.3,12.3,50.6,18.8,75.8c3.2,12.6,6.6,25.2,10.2,37.7
			c3.6,12.5,7.2,25,11.6,37.3h-0.1c-8.8-24.5-15.6-49.7-22.3-74.8s-12.9-50.4-19.2-75.7s-12.2-50.6-18.2-76l-17.9-76
			c-11.9-50.7-24-101.3-36.7-151.8c-6.4-25.2-12.9-50.4-20-75.5c-3.6-12.5-7.2-25-11.2-37.4S1253.5-234.7,1247.9-246.5L1247.9-246.5
			z"/>
		<path class="st24" d="M1482.1,475.5l47.7,142l11.9,35.5l11.8,35.6l11.5,35.6c3.8,11.9,7.7,23.8,11.1,35.8h-0.1
			c-1.8-6-3.8-11.9-5.7-17.8l-5.9-17.8l-11.8-35.5l-23.5-71.1L1482.1,475.5L1482.1,475.5z"/>
		<path class="st24" d="M1469.4,762.1c3.8,13.9,8.1,27.6,12.3,41.4s8.3,27.6,12.2,41.5l2.9,10.4l2.8,10.4l2.6,10.5
			c0.9,3.5,1.7,7,2.5,10.5s1.5,7,2.2,10.6s1.3,7.1,1.9,10.6s1,7.1,1.5,10.7l0.3,2.7l0.1,2.7l0.3,5.4h-0.1c-1-14.4-3.9-28.5-7.2-42.5
			c-0.8-3.5-1.6-7-2.5-10.5l-2.6-10.5l-2.7-10.5l-2.8-10.4c-3.8-13.9-7.9-27.7-11.9-41.5S1472.9,776.1,1469.4,762.1L1469.4,762.1z"
			/>
		<path class="st24" d="M1248.2-82.8l47.5,175.1l24,87.5c8.1,29.1,16.1,58.3,24.5,87.3c2.1,7.3,4.2,14.5,6.5,21.7
			c0.6,1.8,1.1,3.6,1.8,5.4c0.2,0.5,0.3,0.9,0.5,1.3c0.1,0.2,0.2,0.4,0.3,0.6l0.1,0.3c0,0,0.1,0.1-0.1,0c-0.8,0-0.6,0.4-0.6,0.3
			c0-0.4-0.1-0.9-0.1-1.3l-0.3-1.4c-0.7-3.7-1.6-7.4-2.4-11c-3.4-14.7-7.2-29.4-10.8-44c-7.3-29.3-14.8-58.6-22.3-87.9l-45.4-175.7
			h0.1c15.5,58.5,30.9,116.9,46,175.5c7.6,29.3,15.1,58.6,22.6,87.9c3.7,14.7,7.4,29.3,10.8,44c0.8,3.7,1.7,7.4,2.4,11.1l0.3,1.4
			c0.1,0.5,0.2,1,0.2,1.5c0-0.1,0.2,0.6-0.8,0.5c-0.3-0.2-0.2-0.2-0.3-0.3c-0.1-0.1-0.1-0.2-0.2-0.4c-0.1-0.2-0.2-0.5-0.3-0.7
			c-0.2-0.5-0.3-0.9-0.5-1.4c-0.6-1.8-1.2-3.6-1.8-5.4c-2.3-7.2-4.3-14.5-6.4-21.8c-16.6-58.2-32.3-116.6-48.1-174.9
			s-31.4-116.8-47-175.2L1248.2-82.8z"/>
		<path class="st23" d="M1575.1,561.3c0.2-0.6-56-184.6-47.5-197.3c2-6.4,0.6,8.6,14.9,64.8S1577.3,560.3,1575.1,561.3z"/>
		<path class="st23" d="M1570.2,499.5c-1.4-0.9,56,236,62.7,247.8C1630.3,721.2,1574.3,511,1570.2,499.5z"/>
		<path class="st23" d="M1475.2,268.5c0,0-83.5-375.7-104.7-422.6s-33.1-71.3-27.6-79.9S1470.8,185,1475.2,268.5z"/>
		<path class="st23" d="M1382.3-229.8c0,0-5.9-5.2-1,9c33.7,63.8,116.8,437.6,125.4,461.8C1491,189.6,1414-167.9,1382.3-229.8z"/>
		<path class="st23" d="M1532.1,321.9c0,0-0.7-9.1-3.3-2s5.8,37.5,9.3,35.9S1532.1,321.9,1532.1,321.9z"/>
		<path class="st25" d="M1760.5,146.4c16.4,31,15.3,40.6,10.6,83.7c-8.3,12.6-37.2,12.5-43.1,22.8c-0.5,1.8-196.2,48.2-197.5,47.1
			s-6.6-6.2-8.7-5.8c0,0-1.3,15.8,7.7,21.9s199.9-59.4,204.2-65.6s43.2-5.6,41.1-17.8S1775.3,172.3,1760.5,146.4z"/>
		<polygon class="st26" points="1411.4,990.5 2009.4,769.2 1720,-364 1122,-142.7 		"/>
		<path class="st27" d="M1238.7-207.2c0,0,28.7,49.1,36,102.9c36.2,198.9,174.4,671.7,201.1,859.6c4.7,22.5-22.2-27.2-29.1-73.3
			C1388.4,430,1297,36.6,1222.9-202.6C1220-208.2,1238.7-207.2,1238.7-207.2z"/>
		<path class="st27" d="M1477.7,682c8.7,22.7,66.5,242.2,71.8,276.3c0,0-20.2,16.3-24-26.7S1455.3,610.1,1477.7,682z"/>
		
			<linearGradient id="SVGID_22_" gradientUnits="userSpaceOnUse" x1="-275.7579" y1="-1436.015" x2="-168.8779" y2="-2684.325" gradientTransform="matrix(-0.99 0.15 -0.15 -0.99 634.3 -2129.05)">
			<stop  offset="0.26" style="stop-color:#0E390D"/>
			<stop  offset="0.43" style="stop-color:#103D0F"/>
			<stop  offset="0.59" style="stop-color:#184815"/>
			<stop  offset="0.74" style="stop-color:#255A1F"/>
			<stop  offset="0.89" style="stop-color:#36742E"/>
			<stop  offset="0.91" style="stop-color:#397830"/>
		</linearGradient>
		<path class="st28" d="M1577.5,118.3c-1.8,41-23.1,21.9-30.3,9.8c0,0-6.2-12.4-31.4-0.4s-16.9-26.8-28.9-31.1
			c-7.7-11.1-21.6-9.9-29.9-7.7s-5.6-8.3-12.1,5.9c-7.1,17.3-18.9,14-23.1,9.6c-1.5,41.9-16.3,8.6-30.6-0.4
			c-11.7-6.1-14.5-10-28.4,12.4s-29.5-2.1-42.5-9.5c-21.2,31.4-43.2,7.3-50-1.8c-18.3-6.4-21.6-7.4-27.7,9.5
			c-17.1,8.4-33.7,20.1-47.8,13.1c-0.2,34.6-24.9,28.2-35.6,14.6c-16.9,2.6-9.4-4.7-27.6,10.3c-20.2-12.2-43.5-30.5-41.2-14.8
			c11.9,21.3-5.7,29.8-12.7,32c8.8,28.2-28.4,17.8-37.4,8.4c17.6,44.5-50.4,52.6-65.9,7.3c-10.1-16.6-23.8-14.6-29.7-3.5
			c-26,21.2-73.7-23.1-73.7-23.1c-12.1,48.3-71.1,22.7-79.4-3.5c-20.7,13.3-77.8-21.7-41.2-57.8c-15.4-1.7-20.9-12.1-19.3-21.5
			c-13.6,39.7-41.9,17.4-45-3.4c-19,17.2-43.2-7.2-31.3-35.6c-15.7-3.9-8-17.3,1-21.7c-21.1,3.2-14-12.1-14-12.1
			c-21.3,35.8-38.3,16-43,6.5c-31.2,7.8-33-4.1-27.5-17.2c-60,10.1-56.1-28.1-29.9-40.2c-61.1-18.1-39.8-29.7-26.6-30.6
			c-23.2-26.8-13.4-40.8,9.9-36.6c0,0-31-26.2-6.4-35c-38.2-23.7-8.1-67.5,19.3-64.7c-42.6-10,0.7-80.6,24.4-74
			c-25.7-47.9,27.9-79.4,46.8-62c5-24.1,47.6-14.1,60-3.4c0,0,135.8-38.6,127.3-87.7c0,0,77.2,1.5,55.8-42.9s2.1-88.6,48-87.6
			s152.3-38,152.3-38s94.5,39.2,97.8,46.7s-54.5-11.6,3.2,7.4s53.8,48.4,90.3,25.5s186.8,35.7,186.6,104.1s27.5-126,92.2-88.3
			s45-36.6,96.3,37.9s55.2-39.2,68.8-5.5s187.4,248.4,121.5,314.4s-27,148.5-104.6,172.4S1664.1,153.4,1577.5,118.3z"/>
		<path class="st29" d="M1184.9,5.9c0,0-26.3,42.5-42.4,29.3c42,57.4-25.4,26.8-25.4,26.8c19.8,29.4,15.7,32.2-7,38.3
			c29.7,18.4,5,41.4-18.3,31.7c-12,30.7-20.9,14-42.6,23.3c-24.3,42.2-66.2,11.3-66.8-1.3c-24.8,14-41.8,11.7-42.5-9.8
			c-22.3,13-50.6,12.2-47.3-16.4c-12-11.9-15.3-16-6-30.8c-10.9-12.9-15,2.3-15,2.3c0.7,21.5-31.7,44.4-40.6,19.3
			c-38.6,7.1-72.6-5.8-38.4-33.9c-29-5.2-31.4,3.8-41.7-21.8c-16.9,6.6-25.5,9.1-28.5-10.9c-4.7,28.4-51.1,23.4-37.4-19.6
			c-21.1-11.3-37.2-26.9-10.7-36.9c-34.1-4.5-37.5,6.9-41.6-20.1c-34,12.4-59.9,10.3-50.8-14c0,0-15.4,25.2-25.9-18.9
			c-20-5.4-63.9-41.3-19.8-46c-5.1-24.9,132.3,2.4,132.1-40.9s17.1-66.4,17.1-66.4l95.7-50.7l56.5,17.9c0,0,76.1-13.3,88.2,7.4
			c0,0-27.9-32.2,49.3-54.8s123.9-52.6,130.4-9.6s67.7,32.5,67.7,32.5s14.3-66,80.5-68.8s88.4,0.4,88.4,0.4l50.5-13l124.1-0.8
			l46.5,103.7L1498.7-141l-108.5,16.5l-26.5,40.2l-29.1,69.9c0,0-12.5,10.3-51.5,15S1192.6,6,1192.6,6L1184.9,5.9z"/>
		<path class="st30" d="M1074.6-115.5c0,0,14.2-8.5,22.9,4.1c-0.1-18.4,5.7-19.9,10.8-21.9c-13.6-27.1,31.5-37.1,42.6-21.7
			c3.6-16.4,41.4-2.5,45.4,10.2c5.7-11.6,46.4,13.9,32.7,42.6c0,0,8,7.7-3,15c13.8-7.2,37.1,9,34.6,18.9c17.4-9.6,33,21.6,13.2,33.5
			c8.1,0,12,12.8-0.2,25.4c33.3-12,54,7.7,19,20c-10.5,9.2-7.8,13.9-9.1,36.3s-66,36-67.6-18.9c1.4-12.9,3-15.7-11.4-10.3
			c-23.5,11.8-31.5-23.1-30.3-37.3c-8.6-12-14.9-9.2-23.9-2.1c-9.4,13.5-21.4,19.1-30.1,19.2c-12.3,3.1-13.8,7.2-17.6,17.3
			c0,0,3.6,5.8-6.8,8.6s-10.6,5.4-2,13.6s4,17.8-10.3,21.2c-14,5.3-8.9,8.3,1.8,11.8s31.1,27,2.2,36.5c-19.1,2.9-25,0-25,0
			s-8.6-3.1-2.8,8s6.8,40.2-47,28.1c-6-8.6-7.8-11.5-18.6-2.9c-12.5,15.2-36.6-5.9-34-24c-1.1-7.4-1.6-10.5-11.1-6.6
			c-20.9,8.9-62.5-21-27.6-57.3c0,0,7.5-8.1-6.3-1.6c-16.2,8.2-36.1,1.7-40.9-12.2c-7.6,7.5-29.3-10.8-28.3-26.8
			c0,0-72,1.4-36.6-32.5c0,0-59-42.4,7.6-51.9c0,0,7.8-37.3,34.1-15.3c-2.7-4.7-1.6-10.5,0.4-10.8c-37.3,3.1-23.2-10.4-20.8-17.4
			c-17.1-6-8.1-35.9,1.1-37.3c-6.5-16.1,45.5-55.7,63.5-12.8c5.6-12.3,20.3-8.1,21.1,5.7c5.5-21.8,27.8-13.8,30.9-7.9
			c-20.1-36.3,35.6-47.3,42.3-20.4c9.4-13.5,55-6.4,48.5,35.1c0,0,7.3,4,25.1,5.7C1078-146.5,1084.9-132.3,1074.6-115.5z"/>
		<path class="st31" d="M1276.8-10.4c0,0,13.7,35.5-35.5,18.6c-5.2-14.5-13.4-10.5-26.3-2.3c-23.3-6.9-46.2-37.1,8.3-38.2
			c-4.2-8.4-5.1-18.1-32.9-6.8c-28.7,5.8-21.9-7.8-36.7-2.8s-22.3,18.7-29.2,27.4s-33.7,21.8-55.2,7s-36,11-15.4,19.8
			s13.9,18.8-0.2,28.6c17.8,14.7,12.2,21.8-2.5,27.5c3.1,25.3-16.6,17.8-24.9,16.3c-9,18.8-25,19-39.4,10.4
			c-20.4,0.7-39.3-11.7-31.9-26.8c-4.2-8.4-11-4.6-14.6-13.1s3.4-26.3,21.7-27.7c13.8-11.2,4.5-14.6-6.9-6.6S929,33.4,927,5.8
			c-17.1,19.2-44,22.5-29.5-9.2c-10.2,1.3-12,8.9-18.2-7.4S857-16.4,854.5-23s2.8-25.5,14.2-28.6s-5.1-4.1-5.1-4.1
			s-45.4,26.5-31.6-8.4l-15.3-9.1c0,0,8.6-40,38-12.4c-1.8-6.7-2.9-14.2-2.9-14.2s-10.9-32.5,27.1-26.4
			c44.9-11.7,102-35.7,113.4,0.9c41.3,23,49.1,65,74.1,54.2s44.5-9.5,55.5-24.5s59.5-37.6,64.5-18.8s5.7,37.5,11.2,29.7
			s27.9-11.2,27.7-2.8c14.8-5,40.3,7.1,34.2,20.6c16.2-10.1,34.6,17.7,14,31.3C1286.8-29.3,1276.8-10.4,1276.8-10.4z"/>
		<path class="st32" d="M1526.1,12.6c3.5,67.1-76.1,24-75.9-4.1c-21,21.9-29.4-18.5-31.1-44.2c-16.8-16.2-16.7-7.9-25.1-1.4
			s-11.4,1.4-17.7-3.7s-6.3,2.2-6,11.5s-13.1,8.3-20.7,9.4s2.6,5.9,11.3,18.1s-6.1,30.9-15.7,18.9s-10.6-11.8-21.6-11.2
			s-12.8-11.6-10-22.4s-6.5-20.9-17-24.5s-9.5-28.7,4-29.7s19.2-14.4,4-19.4s-11.1-29.5,6.3-31.2c-21.8-34.2-5.2-45,24.9-45.4
			c2-39.9,33-2.9,34.1,4.2c-8.3-47.7,23.2-36.8,30.6-24.4l20.3-12.4c0,0-21.8-41.5,23.5-49.4s34.6,24.3,34.6,24.3
			c13.8,11,15.2,12.7,19.5-3s18.2-11.5,28.2-10.9s13.3,0.1-1.7-11.2c-15-11.3-38.2-54.6,51.3-41.1c10.8-23.5,85.4-28.4,73.6,18.1
			c-3.1,16,9.2,24.3,24.9,18.4c16.6-7.1,18.2,3,21.3,8.8c7.9-28.2,73.4-34,61.7,5.2c-5.3,16.4-10,21.3-10,21.3s-7,12.2,8.2,10.6
			s29.4,8.7,13.4,24.7c-17,2.6-14.4,19.3,4.6,20.9c20.4-3.8,23.1,13.5,19.4,25.5c16.5-0.4,37,35,10.2,46.3
			c-12.6,10.3-4.8,11.1,9.6,11c20.4-4.1,20.6,7.3,11.2,20.2c18.1,4.5,43.1,60.2-8.8,60.7c0,0-14-4.9-10.7,2.3s21.5,3.3,16.3,12.5
			s-21,29.2-57,3.4c-5.4,15.4,9,8.2-6,18.7c34.8,10.3,28.6,27.8,9.1,38.1c-17,12-9,21.2-3.3,36.9s-27.8,28.2-42.7,17.9
			s-20.7-5.1-21.8,9.6s-27.8,13.5-33.4-1.2c0,0-14.5,64.7-65.2,0.5c-39.4,2.9-19.2-53.3-8.5-56c0,0,20-7,1-22.4
			s-13.8-17.3-14.1-26.6s-2.3-22.6-10.3-9.9C1558.4,50.4,1519.8,36.5,1526.1,12.6z"/>
		<path class="st33" d="M1788.2-18.1c0,0,9,30.2-25,17.7c-9,13.9-19.6,1.9-24.4-22.3c4.2,20.2-14.1,2.1-14.1,2.1
			c13.1,13.6,24.3,35.9,8,52.9c19.8,20.9-7.3,61.5-38.2,25.6c-10.2,27.6-30.6,9.9-32.3-1.3c-21.3,34.5-50.2-10.1-35.2-28
			c-28.4-19.6-24.4-44.2-1.2-44.6c-14.4-21.8-4.8-24.3,14.4-22c20.4-18.7,13.4-28.1,1.1-29.3c-11.8,17.4-25.8,12.3-32.5,4.9
			c-4.5,43.4-33.3,29-41,21.8c-31.3,19.3-46.9-10.6-27.3-27.1c-10-0.6-30.8,16.1-40-8.5c-11.3-1.4,3.1,13.1-12.4,13.3
			c36.3,5.9,26.9,38.6-5.1,24.7c-5.9,26.9-44.4,21.3-41-21.9c-28.1-3-43-27.8-20.1-37.6c-32.9-5.4-56.1-34.2-0.6-33.2
			c16.8,1.6,28.9,0.8,17.5-8.9s-0.3-16.9,1.3-20.7s7.5-1.5-7-9.7s-7-23.9-2.6-24.6c0,0-11.9-4.3-13.3-15s-11.1-29.2,27.3-39.2
			s34.6,24.3,34.6,24.3l12.6,8.5c2.5-3.7,4.8-7.5,6.9-11.4c4.2-7.8-1.4-12.9,35.7-11.1S1802.2-180.9,1788.2-18.1z"/>
		<path class="st34" d="M756.3-167.5c4.6,22.2,54.7-10.8,31,25.9c42.3,31.8,7.7,27.6-3.8,29.4c30.1,41-26.9,27.3-26.9,27.3
			c14,20.2,25.5,35.3,8.4,55.3c47.2,15.4,15.2,10,4.4,28.8c57.6,30,55.4,75.9,1.5,40.2c-16.5,6-32.6,2.4-39-9.6
			c-9.4,22.3-13.4,14.1-19.2,0.3c-24.4,26.1-79.2-15.5-39.3-36.2c7.2-13.1-10.7-26.8-19.7-17.6c-12,7.8-12.1-11.1-24.5-2.3
			s-54,17.7-30.9-22.9c38-15.2,3.7-18.6-12.7-17.9c0,0-72.1,0.6-4.7-31.1c0,0,15-15.2,42.8-6.5c16.3-6.8,27.3,11.3,42.8-13.4
			l21.7-7.6l0,0c0,0-16.3-29.3,28.3-18.4C735.5-175.6,750.6-195.1,756.3-167.5z"/>
		<path class="st34" d="M1392,7.9c0.3,4.4,57.6-10.9,33.4,21.2c35.2,17.6,52.6,32.5,13.6,36.2c-21.4,19.7-40.2,26.1-59,9.2
			c-19.7,8.3-34.6,17.1-46.1-5.2c-9.6,13.5-22.8,8.4-38.7-2.5c7.9,36.6-18.3,30.8-37.4,20.6c-39.7,14.8-57.2-0.6-47.4-12.7
			s68.1,13.1,73-27.7c21.3-24.6,47.7-42,66.1-20.1C1385.3,2.4,1390.5-17,1392,7.9z"/>
		
			<ellipse transform="matrix(0.9887 -0.1498 0.1498 0.9887 15.5151 224.2611)" class="st35" cx="1496.3" cy="9.1" rx="19.1" ry="17.9"/>
		<ellipse transform="matrix(0.9887 -0.1501 0.1501 0.9887 -1.045 162.263)" class="st36" cx="1074.7" cy="88.1" rx="15" ry="11"/>
		
			<ellipse transform="matrix(0.9887 -0.1501 0.1501 0.9887 -4.442 155.7099)" class="st36" cx="1029.6" cy="107.3" rx="13" ry="12.2"/>
		
			<ellipse transform="matrix(0.9887 -0.1501 0.1501 0.9887 -4.9492 149.3959)" class="st36" cx="987.5" cy="107.5" rx="6.5" ry="6.1"/>
		
			<ellipse transform="matrix(0.9887 -0.1501 0.1501 0.9887 -0.3144 141.4972)" class="st36" cx="937.5" cy="72.8" rx="5.2" ry="8.7"/>
		<ellipse transform="matrix(0.9887 -0.1501 0.1501 0.9887 6.912 132.9016)" class="st36" cx="884.1" cy="20.6" rx="9.6" ry="9.1"/>
		
			<ellipse transform="matrix(0.9887 -0.1501 0.1501 0.9887 9.8952 148.2739)" class="st36" cx="987.5" cy="8.6" rx="24.1" ry="5.5"/>
		
			<ellipse transform="matrix(0.9887 -0.1501 0.1501 0.9887 -8.3761 128.9829)" class="st37" cx="850.5" cy="120" rx="13.9" ry="13.1"/>
		<ellipse transform="matrix(0.9887 -0.1498 0.1498 0.9887 -0.383 122.8093)" class="st37" cx="815" cy="63.9" rx="7.6" ry="7.2"/>
		
			<ellipse transform="matrix(0.9887 -0.1501 0.1501 0.9887 -8.5181 117.9624)" class="st37" cx="777.4" cy="115.4" rx="8.5" ry="15.5"/>
		
			<ellipse transform="matrix(0.9887 -0.1501 0.1501 0.9887 5.7186 116.3501)" class="st38" cx="773.9" cy="20.3" rx="10.7" ry="10.1"/>
		
			<linearGradient id="SVGID_23_" gradientUnits="userSpaceOnUse" x1="4988.2153" y1="199.7005" x2="4980.9155" y2="573.8105" gradientTransform="matrix(-1 0 0 -1 5059.27 900)">
			<stop  offset="0" style="stop-color:#907D61"/>
			<stop  offset="0.36" style="stop-color:#6D6B4D"/>
			<stop  offset="0.58" style="stop-color:#5E6345"/>
		</linearGradient>
		<path class="st39" d="M-99.8,675.8c-0.3-0.8,2.1-1.5,4.2-4.6c2-2.9,4.1-5.7,4.5-7.1c1.9-7.4,7.8-16.4,10.2-19.7
			c7.8-10.6,11.4-26.4,17.5-52.7c3.4-14.9,6-30,7.7-45.2c0.4-26.2-3.2-46-10.6-57.4c-8-12.5-15-25.5-21.2-38.9c0,0-43.6,2-47.3,0
			s-14.3-11.4-12.4-35.7l-0.6-5.9l11.2,3.1c0,0,3.4,21.8,17.8,23.5c17.1,2.4,36.7-8.1,33.8-23.5h12.4c0,0-3.8,44.8,15,54.3
			c14,3.7,22.3-2.2,21.7-28.4l-0.6-26.2h22.3c0,0-1.3,27.9,0,29.6s11.2,18.9,21.7-16.6c8.9-25,3.8-13,3.8-13l12.1,0.3
			c0,0-5.4,27.6-23.3,44.9c-11.8,16.6-12.1,44.3-3.2,54.1c9.6,9.8,25.8,15.2,38.3-42.9c8.3-38.5,10.5-56,10.5-56l17.2-0.2
			c0,0-7,46-5.8,54.1c1.6,9.1,2.2,37.2,39.9,25.4c90.3-25.9-13.6-63.4-0.6-84.9c3.7-6.1,61.8,60.9,67.2,44.5
			c8.5-25.7,13.2-40.4,13.2-40.4l14-0.4c0,0,0.6,15.1-2.2,19.2c4.5,0.3,41.9-2.9,58.5-11c14.8-7.3,34.2-17.8,35.8-21.9
			c3.8-0.1,15.2,0.2,19,0c-2.9,7.5-7.8,10.4-11.3,13.2c-13.8,10.5-43,24.5-93.3,31.5c-1.6,0.2-8.1,0.7-11.9,1.7
			c0,0.1-0.2,1.5-0.2,1.5s-2,37.8-47,56.1c-40,16-57.6,24-67.8,30.4S53,543.7,54.6,565.7c1.6,17.6,0.6,35.3-2.9,52.6
			c-4,20-11.5,39.2-22,56.6C-4.8,676-27,676.1-41.2,676c-28.5-0.3-44.8-1.8-53.3,0.3C-94.6,676.3-99.4,677-99.8,675.8z"/>
		<path class="st40" d="M37.7,457c0,0-14.9,58.6-26.6,58.2C23.2,521.2,45.8,504.9,37.7,457z"/>
		<path class="st41" d="M261.9,280.8c-3.5-25.3-12.6-63.5-40.1-94.6C147.6,102,5.4,141.2-40,153.7
			c-112.3,31.1-185,105.5-220.6,148.9l-17.7,13.9c93,17,187.5,25,282.1,23.8c82.4-1.1,164.5-9.2,245.5-24.2L261.9,280.8z"/>
		
			<linearGradient id="SVGID_24_" gradientUnits="userSpaceOnUse" x1="5110.5703" y1="494.876" x2="4897.5703" y2="999.536" gradientTransform="matrix(-1 0 0 -1 5059.27 900)">
			<stop  offset="0.26" style="stop-color:#55B093"/>
			<stop  offset="0.39" style="stop-color:#61C489"/>
			<stop  offset="0.56" style="stop-color:#6DDB7D"/>
			<stop  offset="0.68" style="stop-color:#72E379"/>
		</linearGradient>
		<path class="st42" d="M260.9,279.4c-3.4-24.3-12.5-61.1-39.7-91.1C147.8,107.2,7.1,145-37.9,157.1
			C-148.9,187-220.9,258.7-256.2,300.4l-17.5,13.4c92.1,16.4,185.6,24.1,279.1,22.9c81.5-1.1,162.7-8.8,242.9-23.3L260.9,279.4z"/>
		<path class="st41" d="M239.8,399c3.1,0,92.9-6.3,92.9-6.3s55.8-11.6,23.8-40.1c-8.1-4-15.1-9.9-20.3-17.3
			c-6.4-9.3-4.7-13.9-8.7-22.5c-12.9-27.2-56.1-36.4-56.1-36.4l0,0c0,0-76-17.8-119.7,5.8c-4.9,2.6,10.2,9.8,8.3,12.3
			C139.9,321.1,202.6,399,202.6,399H239.8z"/>
		
			<linearGradient id="SVGID_25_" gradientUnits="userSpaceOnUse" x1="4823.0117" y1="488.2577" x2="4757.5215" y2="723.5077" gradientTransform="matrix(-1 0 0 -1 5059.27 900)">
			<stop  offset="0.26" style="stop-color:#55B093"/>
			<stop  offset="0.39" style="stop-color:#61C489"/>
			<stop  offset="0.56" style="stop-color:#6DDB7D"/>
			<stop  offset="0.68" style="stop-color:#72E379"/>
		</linearGradient>
		<path class="st43" d="M194.4,399.4c3,0,169.5-3.3,169.5-3.3s30.2-4.6,13.3-32.6c-9.8-14-17-24.8-23-33.9
			c-6.2-9.4-22.8-23.6-33.9-31.4c-27.3-21.7-79.9-23.1-79.9-23.1l0,0c0,0-56.6-12-98.8,11.6c-4.7,2.6-7,4-8.8,6.5
			c-19.5,26.7,41.1,104.9,41.1,104.9L194.4,399.4z"/>
		<path class="st41" d="M232.5,327.4c0,0-51.1-42.6-104.7-59.3c-58.6-25-136.1-81-230.1-55.1c-72.6,24.2-127,57.6-159.2,119.4
			c-15.7,35.9-18.2,79.3,101.4,73.5l333.2,0.5C173.1,406.5,303.4,396.8,232.5,327.4z"/>
		
			<linearGradient id="SVGID_26_" gradientUnits="userSpaceOnUse" x1="5094.5361" y1="423.046" x2="4994.3164" y2="767.966" gradientTransform="matrix(-1 0 0 -1 5059.27 900)">
			<stop  offset="7.000000e-02" style="stop-color:#39A57E"/>
			<stop  offset="0.67" style="stop-color:#72E379"/>
		</linearGradient>
		<path class="st44" d="M239.5,333.4c0,0-51.7-43.3-106-60.3C74.3,247.6-4.1,190.7-99.3,217c-73.4,24.6-128.5,58.6-161,121.4
			c-15.9,36.5-18.4,80.7,102.6,74.7l337.1,0.5C179.5,413.7,311.3,403.8,239.5,333.4z"/>
		
			<linearGradient id="SVGID_27_" gradientUnits="userSpaceOnUse" x1="-1847.1899" y1="259.989" x2="2578.6597" y2="259.989" gradientTransform="matrix(1 0 0 -1 0 900)">
			<stop  offset="0.26" style="stop-color:#66993D"/>
			<stop  offset="0.36" style="stop-color:#58933C"/>
			<stop  offset="0.45" style="stop-color:#488C3B"/>
		</linearGradient>
		<path class="st45" d="M-98.5,661.8c0,0-0.9-2.1-1.9-5.5c-5.3-17.8-14.1-71.3,85.3-36.2c0-62.5,58-30.3,63.7-11.7
			c25.4-53.1,95,2.7,74.7,14.2c84.5-39.7,96.7,32.3,69.5,39.2c98.4-6.9,42.2,34.7,42.2,34.7"/>
		<path class="st46" d="M1349.7,318.9c0,0,32.7,14.7,31.1,47.7c0,0-8.3,9.9-19-0.8l3.6,12.3c0,0,29.9,9.1,23.2-19.2
			c0,0,1.2-46.5-41-48.1L1349.7,318.9z"/>
	</g>
</g>
</svg>
