<svg id="ae63c346-2141-4700-ba6b-04db29ca3cfe" data-name="Layer 1" xmlns="http://www.w3.org/2000/svg" width="242" height="268" viewBox="0 0 242 268">
  <defs>
    <style>
      .af7bd082-50a0-41c1-a667-1a8ba76a2438 {
        fill: #3b3be0;
      }
    </style>
  </defs>
  <path class="af7bd082-50a0-41c1-a667-1a8ba76a2438" d="M13.49,162.55c.13,39.43,21.14,78.22,72.1,87.72,46.89,8.74,83.8-6.57,89.57-9.16a29,29,0,0,0,24.31,13.2h.18a29,29,0,0,0,29-29V42.71a29,29,0,0,0-29-29h-.18a29,29,0,0,0-29,29V151.8h-.25s-.14,6.2,0,15.44-21.51,30-60.93,28.3S72,162.18,72,162.18h0c.09-.9.14-1.81.14-2.73V42.71a29,29,0,0,0-29-29h-.79a29,29,0,0,0-29,29V159.45C13.32,160.5,13.39,161.53,13.49,162.55Z"/>
</svg>
