<svg id="a3f4ebdd-4fd9-4cee-9733-71ac94f7604e" data-name="Layer 1" xmlns="http://www.w3.org/2000/svg" width="242" height="268" viewBox="0 0 242 268">
  <defs>
    <style>
      .bfc0770d-a6ad-45ab-87cd-3e5258e0ff7f {
        fill: #f4406f;
      }
    </style>
  </defs>
  <path class="bfc0770d-a6ad-45ab-87cd-3e5258e0ff7f" d="M175.29,241.29a19.31,19.31,0,0,1,4-3c3.91-2.21,7.78-4.49,11.55-7,1.84-1.2,3.67-2.45,5.46-3.73.69-.49,1.37-1,2.05-1.5l.2-.16a213.45,213.45,0,0,0,18.37-17.47c1.31-1.41,2.53-2.9,3.83-4.31l.62-.76c.34-.47.69-.93,1-1.41,1.21-1.77,2.18-3.68,3.33-5.49l.47-.94c.09-.27.2-.52.28-.78.8-2.6,1.49-5.15,2.23-7.64V42.71a29,29,0,0,0-29-29h-.18a29,29,0,0,0-29,29V151.8h-.25s-.14,6.2,0,15.44-21.51,30-60.93,28.3S72,162.18,72,162.18h0c.09-.9.14-1.81.14-2.73V42.71a29,29,0,0,0-29-29h-.79a29,29,0,0,0-29,29V159.45c0,1.05.07,2.08.17,3.1.13,39.43,21.14,78.22,72.1,87.72,46.89,8.74,83.8-6.57,89.57-9.16Z"/>
</svg>
