<svg id="b3ee4bf1-d5a9-4818-967d-f0810ef76547" data-name="Layer 1" xmlns="http://www.w3.org/2000/svg" width="242" height="268" viewBox="0 0 242 268">
  <defs>
    <style>
      .ab27a973-c4e1-4e2f-8e5a-62b46a382a0d {
        fill: #ff0;
      }
    </style>
  </defs>
  <path class="ab27a973-c4e1-4e2f-8e5a-62b46a382a0d" d="M199.65,5.69h-.18a37.07,37.07,0,0,0-37,37V149.79a8.41,8.41,0,0,0-.25,1.82c0,.26-.14,6.41,0,15.62-.74,3.74-15.22,20.42-48.32,20.42-1.4,0-2.84,0-4.26-.1-10.79-.47-18.78-3.47-23.72-8.91C79.63,171.75,80,162.75,80,162.73v-.08c.1-1.14.15-2.19.15-3.2V42.71a37.07,37.07,0,0,0-37-37h-.79a37.07,37.07,0,0,0-37,37V159.45c0,1.14.06,2.32.18,3.52.14,22.58,6.55,43.12,18.54,59.41,13.7,18.61,34.48,31,60.08,35.75a167.07,167.07,0,0,0,30.51,2.81h0a169.92,169.92,0,0,0,58-10.18,36.82,36.82,0,0,0,26.84,11.55h.18a37.07,37.07,0,0,0,37-37V42.71A37.07,37.07,0,0,0,199.65,5.69Zm29,219.6a29,29,0,0,1-29,29h-.18a29,29,0,0,1-24.31-13.2c-5.77,2.59-42.68,17.9-89.57,9.16-51-9.5-72-48.29-72.1-87.72-.1-1-.17-2.05-.17-3.1V42.71a29,29,0,0,1,29-29h.79a29,29,0,0,1,29,29V159.45c0,.92,0,1.83-.14,2.73h0s-2.18,31.63,37.24,33.36,61.07-19,60.93-28.3,0-15.44,0-15.44h.25V42.71a29,29,0,0,1,29-29h.18a29,29,0,0,1,29,29Z"/>
</svg>
