<svg id="b4c2c2eb-5d01-49e8-888c-6c8f5cafa2f3" data-name="Layer 1" xmlns="http://www.w3.org/2000/svg" width="240" height="268.57" viewBox="0 0 240 268.57">
  <defs>
    <style>
      .abcf96bf-d677-4da8-be5c-806f83dcea1e {
        fill: #999;
      }
    </style>
  </defs>
  <path class="abcf96bf-d677-4da8-be5c-806f83dcea1e" d="M219.48,52.68c-15.71-21.59-41.19-34.94-67.58-39s-53.58.44-78.68,9.54a54.75,54.75,0,0,1-7.07,2.24A30.34,30.34,0,0,0,41.8,13.16h0A30.41,30.41,0,0,0,11.38,43.57V226.05A30.42,30.42,0,0,0,41.8,256.46h0a30.42,30.42,0,0,0,30.41-30.41V103.54a33.66,33.66,0,0,1,10-16.23c7.94-7.17,18.47-10.82,29-12.91s21.5-2.81,32-.64,20.64,7.4,27.49,15.69c2.64,3.19,4.8,6.81,7.89,9.58,4.28,3.82,10,5.67,15.73,6.28a34.4,34.4,0,0,0,19.61-3.37c8.12-4.3,13.48-13.28,14.52-22.33C229.56,70,225,60.29,219.48,52.68Z"/>
</svg>
