<svg id="eaa3212c-c841-40b0-a960-8b78314bf359" data-name="Layer 1" xmlns="http://www.w3.org/2000/svg" width="240" height="268.57" viewBox="0 0 240 268.57">
  <defs>
    <style>
      .bfd274af-7122-4fd7-8788-f6dd122ef2ec {
        fill: #f4406f;
      }
    </style>
  </defs>
  <path class="bfd274af-7122-4fd7-8788-f6dd122ef2ec" d="M219.48,52.68c-15.71-21.59-41.19-34.94-67.58-39s-53.58.44-78.68,9.54a54.75,54.75,0,0,1-7.07,2.24A30.34,30.34,0,0,0,41.8,13.16h0A30.41,30.41,0,0,0,11.38,43.57V226.05A30.42,30.42,0,0,0,41.8,256.46h0a30.42,30.42,0,0,0,30.41-30.41V103.54a33.66,33.66,0,0,1,10-16.23c7.94-7.17,18.47-10.82,29-12.91s21.5-2.81,32-.64,20.64,7.4,27.49,15.68c2.64,3.2,4.8,6.82,7.89,9.58,4.28,3.83,10,5.68,15.73,6.29a34.4,34.4,0,0,0,19.61-3.37c8.12-4.3,13.48-13.28,14.52-22.33C229.56,70,225,60.29,219.48,52.68Z"/>
</svg>
