<svg id="fad63a2f-53b4-47a3-a489-2aacc109a825" data-name="Layer 1" xmlns="http://www.w3.org/2000/svg" width="240" height="268.57" viewBox="0 0 240 268.57">
  <defs>
    <style>
      .b1792620-038c-4dc4-8e7b-cccdec9f1559 {
        fill: #ff0;
      }
    </style>
  </defs>
  <path class="b1792620-038c-4dc4-8e7b-cccdec9f1559" d="M226,48c-16.13-22.16-42.67-37.56-72.82-42.25a139.33,139.33,0,0,0-21.31-1.62C112.24,4.11,91.61,8,70.49,15.65l-1.7.62a38,38,0,0,0-27-11.11A38.46,38.46,0,0,0,3.38,43.57V226.05a38.42,38.42,0,0,0,76.83,0V104.64a26,26,0,0,1,7.36-11.39c5.73-5.17,14-8.77,25.17-11a86.86,86.86,0,0,1,16.91-1.8A59.45,59.45,0,0,1,141.6,81.6c9.51,2,17.65,6.56,22.94,12.94.76.92,1.51,1.94,2.31,3a47.26,47.26,0,0,0,6.41,7.44c5.08,4.55,12.07,7.41,20.21,8.27a48.31,48.31,0,0,0,5.08.27A40.9,40.9,0,0,0,217.67,109c10.15-5.37,17.32-16.29,18.73-28.48C237.89,67.55,231.54,55.66,226,48Zm2.5,31.63c-1,9-6.4,18-14.52,22.33a34.4,34.4,0,0,1-19.61,3.37c-5.71-.61-11.45-2.46-15.73-6.29-3.09-2.76-5.25-6.38-7.89-9.58-6.85-8.28-16.95-13.5-27.49-15.68s-21.49-1.47-32,.64-21,5.74-29,12.91a33.66,33.66,0,0,0-10,16.23V226.05a30.42,30.42,0,0,1-60.83,0V43.57A30.39,30.39,0,0,1,66.15,25.41a54.75,54.75,0,0,0,7.07-2.24c25.1-9.1,52.3-13.64,78.68-9.54s51.87,17.46,67.58,39.05C225,60.29,229.56,70,228.45,79.61Z"/>
</svg>
