<svg id="b0149aac-9124-41c9-8698-02b3a5bfe916" data-name="Layer 1" xmlns="http://www.w3.org/2000/svg" width="251.43" height="305.71" viewBox="0 0 251.43 305.71">
  <defs>
    <style>
      .a5c35ba5-15ac-4816-9cfb-47fd82b45cb5 {
        fill: #f4406f;
      }
    </style>
  </defs>
  <path class="a5c35ba5-15ac-4816-9cfb-47fd82b45cb5" d="M95,103.85c-2.93-11.57,4.81-25.46,38.43-28.34,0,0,26.74-1.76,39.55,12s24,21.61,45.79,9.92,18.58-41.79-2.24-58.76-61.48-34.26-114-21.78S29.86,78.39,29.86,101.13s1.92,27.86,9.6,38.42S60.28,162.61,84.29,170s89.67,21.13,90,35.22S162.43,223.45,150.9,226s-46.43,1-76.85-24c0,0-12.49-22.42-37.47-15.69s-27.86,33.62-22.1,43.55,23.38,33,58.93,47.71,78.77,25.3,125.21,1.28,45.79-86.78,34.26-104.39S214,139.55,143.86,121C143.86,121,97.74,114.58,95,103.85Z"/>
</svg>
