<svg id="eb3002f8-b2b1-4727-be2c-b7583a78de12" data-name="Layer 1" xmlns="http://www.w3.org/2000/svg" width="251.43" height="305.71" viewBox="0 0 251.43 305.71">
  <defs>
    <style>
      .f8c2a4a4-8b45-430e-a91f-92997455af5e {
        fill: #ff0;
      }
    </style>
  </defs>
  <path class="f8c2a4a4-8b45-430e-a91f-92997455af5e" d="M239.58,170.08c-.68-1-1.35-2.07-2-3.11-11.18-17.44-22.74-35.47-91.66-53.72a6.15,6.15,0,0,0-.95-.19c-19.18-2.67-38.57-8.12-42.33-11.83a8.57,8.57,0,0,1,1.48-6.89c2.35-3.29,9.35-9.07,29.92-10.85.23,0,1.1-.06,2.41-.06,5.12,0,22.48.69,30.7,9.54s18.11,18.16,32.66,18.16c7,0,14.46-2.17,22.78-6.64A35.24,35.24,0,0,0,241.52,76c1.5-15.63-6.13-32.32-19.91-43.56-10.27-8.37-39-27.84-83.63-27.84A161.59,161.59,0,0,0,100.7,9.12,101.91,101.91,0,0,0,39.94,50.6C26.61,69.73,21.86,89.24,21.86,101.13c0,23.14,1.87,30.39,11.13,43.13,11.4,15.67,27.87,26.9,49,33.36,5.16,1.59,11.94,3.39,19.8,5.48,12.88,3.43,28.91,7.69,41.93,12.2,17.17,5.95,21.57,9.73,22.6,10.91-.15,5.35-3.25,8.92-17.11,12a41.52,41.52,0,0,1-8.24.69c-7.8,0-35-1.62-60.8-22.27-3.17-4.82-14.48-19.58-34.41-19.58a43.1,43.1,0,0,0-11.22,1.53C21.78,182,12.1,190.4,7.23,202.22c-4.48,10.87-4.35,23.59.34,31.66,4.49,7.74,22.31,34.32,62.77,51.08,26.52,11,49,16.11,70.81,16.11h0A131.89,131.89,0,0,0,202.29,286C228.52,272.39,239.42,249,244,231.79,250.72,206,246.88,181.23,239.58,170.08Zm-41,108.77c-46.44,24-89.67,13.45-125.21-1.28s-53.16-37.78-58.93-47.71S11.6,193,36.58,186.31,74.05,202,74.05,202c30.42,25,65.32,26.58,76.85,24s23.7-6.73,23.38-20.82-66-27.86-90-35.22-37.14-19.86-44.83-30.43-9.6-15.69-9.6-38.42S50,29.39,102.55,16.9s93.19,4.81,114,21.78,24,47.07,2.24,58.76-33,3.85-45.79-9.92-39.55-12-39.55-12C99.83,78.39,92.09,92.28,95,103.85,97.74,114.58,143.86,121,143.86,121c70.13,18.57,77.49,35.87,89,53.48S245.05,254.84,198.62,278.85Z"/>
</svg>
