<svg id="a2b74a46-cc43-4422-8a5e-24150d81359e" data-name="Layer 1" xmlns="http://www.w3.org/2000/svg" width="251.43" height="305.71" viewBox="0 0 251.43 305.71">
  <defs>
    <style>
      .abf9bcaa-9f02-4367-a782-36d7fc17c2fa {
        fill: #3b3be0;
      }
    </style>
  </defs>
  <path class="abf9bcaa-9f02-4367-a782-36d7fc17c2fa" d="M84.29,170c5.68,1.74,13.69,3.84,22.61,6.21,3-1.52,61.32,20.8,64.65,20.8,0,0,36.83-22.77,50.76-36,10.22-9.7-49.14-32.25-78.45-40,0,0-46.12-6.4-48.84-17.13-2.93-11.57,4.81-25.46,38.43-28.34,0,0,26.74-1.76,39.55,12s24,21.61,45.79,9.92,18.58-41.79-2.24-58.76-61.48-34.26-114-21.78S29.86,78.39,29.86,101.13s1.92,27.86,9.6,38.42S60.28,162.61,84.29,170Z"/>
</svg>
