<svg id="ba369025-1bea-47e4-bbe7-7a891f9469d1" data-name="Layer 1" xmlns="http://www.w3.org/2000/svg" width="320" height="468" viewBox="0 0 320 468">
  <defs>
    <style>
      .b1a70e28-5b82-4ff5-87bd-43532b7d5d0f {
        fill: #fff;
      }
    </style>
  </defs>
  <path class="b1a70e28-5b82-4ff5-87bd-43532b7d5d0f" d="M314.06,34.32a39.19,39.19,0,0,0-72-8.13L170.18,156.25,71.34,29.8a37.48,37.48,0,0,0-52.46-6.57,37.65,37.65,0,0,0-7.06,52.13L128.68,231.29,33.24,403.87A39.2,39.2,0,0,0,67.51,462h0a39.22,39.22,0,0,0,34.33-20.23L310.7,64.13A39,39,0,0,0,314.06,34.32ZM303.7,60.26,94.84,437.93a31.2,31.2,0,0,1-42.4,12.21h0a31.2,31.2,0,0,1-12.2-42.4l97.94-177.11L18.22,70.56A29.48,29.48,0,0,1,65,34.73l106.28,136L249.1,30.07a31.19,31.19,0,0,1,42.39-12.21h0A31.21,31.21,0,0,1,303.7,60.26Z"/>
</svg>
