<svg id="fdd34a12-a463-4f13-8be6-6a5e45861eef" data-name="Layer 1" xmlns="http://www.w3.org/2000/svg" width="170.05" height="266.5" viewBox="0 0 170.05 266.5">
  <defs>
    <style>
      .ee50047c-b5de-460f-bcfd-3229727008b9 {
        opacity: 0.5;
      }

      .f231249d-7398-457f-9c5a-672a92d652af {
        fill: #fff;
      }

      .a15a117c-79b3-4e7f-a959-dbf960250ec5 {
        fill: #ff0043;
        stroke: #700000;
        stroke-miterlimit: 10;
        stroke-width: 2px;
      }
    </style>
  </defs>
  <g>
    <path class="ee50047c-b5de-460f-bcfd-3229727008b9" d="M86.37,261.46a28.2,28.2,0,0,1,.12-56.4h.35a27.18,27.18,0,0,1,19.65,8.32,28.19,28.19,0,0,1-20,48.08Z"/>
    <path class="ee50047c-b5de-460f-bcfd-3229727008b9" d="M78.17,202.5a17.61,17.61,0,0,1-17.6-17.59V174.63a76.63,76.63,0,0,1,1.51-17.08,50.94,50.94,0,0,1,5-13.6c0-.06.07-.12.1-.19A53,53,0,0,1,76,132.28c2.66-2.71,5.83-5.75,9.51-9.26l1.7-1.62c3.91-3.7,7.14-6.75,10.43-10a100.57,100.57,0,0,0,8.71-9.61,45.78,45.78,0,0,0,5.7-9.29,22.07,22.07,0,0,0,1.87-9.16v-.24A24,24,0,0,0,112,73.4a25.25,25.25,0,0,0-5.18-7.76,22.55,22.55,0,0,0-7.48-4.88,26.07,26.07,0,0,0-9.67-1.86c-8,0-14,2.22-18.64,7a31.44,31.44,0,0,0-8.1,15A19,19,0,0,1,56.31,92,16.33,16.33,0,0,1,46,95.17,21.35,21.35,0,0,1,42.71,95L23.76,93.16c-2.13-.08-8.43-.78-12.36-6-4.15-5.53-3.26-12-2.69-14.5,4-18,12.84-32.74,26.12-43.85C49.85,16.34,68.48,10,90.22,10h.56A91,91,0,0,1,119.4,14.7a73.65,73.65,0,0,1,24.48,13.89,64.63,64.63,0,0,1,16.8,22.84,75.7,75.7,0,0,1,6.15,30v.11a71.46,71.46,0,0,1-4.34,25.75,78.28,78.28,0,0,1-11.85,20.42c-.16.19-.32.38-.49.55l-19.9,20.62-.39.37-3.35,3c-3.25,3.06-5.87,5.68-7.78,7.77a20.78,20.78,0,0,0-3.22,4.74A16.86,16.86,0,0,0,114,170a72.17,72.17,0,0,0-.59,10v4.91a17.61,17.61,0,0,1-17.6,17.59Z"/>
    <g>
      <path class="f231249d-7398-457f-9c5a-672a92d652af" d="M81.37,256.46a28.2,28.2,0,0,1,.12-56.4h.35a27.18,27.18,0,0,1,19.65,8.32,28.19,28.19,0,0,1-20,48.08Z"/>
      <path class="a15a117c-79b3-4e7f-a959-dbf960250ec5" d="M81.61,208.06A20.25,20.25,0,1,0,95.78,214,19.32,19.32,0,0,0,81.61,208.06Z"/>
      <path class="f231249d-7398-457f-9c5a-672a92d652af" d="M73.17,197.5a17.61,17.61,0,0,1-17.6-17.59V169.63a76.63,76.63,0,0,1,1.51-17.08,50.94,50.94,0,0,1,5-13.6c0-.06.07-.12.1-.19A53,53,0,0,1,71,127.28c2.66-2.71,5.83-5.75,9.51-9.26l1.7-1.62c3.91-3.7,7.14-6.75,10.43-10a100.57,100.57,0,0,0,8.71-9.61,45.78,45.78,0,0,0,5.7-9.29,22.07,22.07,0,0,0,1.87-9.16v-.24A24,24,0,0,0,107,68.4a25.25,25.25,0,0,0-5.18-7.76,22.55,22.55,0,0,0-7.48-4.88,26.07,26.07,0,0,0-9.67-1.86c-8,0-14,2.22-18.64,7a31.44,31.44,0,0,0-8.1,15A19,19,0,0,1,51.31,87,16.33,16.33,0,0,1,41,90.17,21.35,21.35,0,0,1,37.71,90L18.76,88.16c-2.13-.08-8.43-.78-12.36-6-4.15-5.53-3.26-12-2.69-14.5,4.05-18,12.84-32.74,26.12-43.85C44.85,11.34,63.48,5,85.22,5h.56A91,91,0,0,1,114.4,9.7a73.65,73.65,0,0,1,24.48,13.89,64.63,64.63,0,0,1,16.8,22.84,75.7,75.7,0,0,1,6.15,30v.11a71.46,71.46,0,0,1-4.34,25.75,78.28,78.28,0,0,1-11.85,20.42c-.16.19-.32.38-.49.55l-19.9,20.62-.39.37-3.35,3c-3.25,3.06-5.87,5.68-7.78,7.77a20.78,20.78,0,0,0-3.22,4.74A16.86,16.86,0,0,0,109,165a72.17,72.17,0,0,0-.59,10v4.91a17.61,17.61,0,0,1-17.6,17.59Z"/>
      <path class="a15a117c-79b3-4e7f-a959-dbf960250ec5" d="M148.35,49.64a56.78,56.78,0,0,0-14.69-20,65.91,65.91,0,0,0-21.77-12.37A83.41,83.41,0,0,0,85.22,13C65.37,13,48.49,18.71,35,29.92c-11.85,9.92-19.78,23.2-23.45,39.49-.32,1.42-.84,5.09,1.29,7.93,1.93,2.58,5.73,2.83,6.44,2.83L38.7,82a13.48,13.48,0,0,0,2.25.13,8.6,8.6,0,0,0,5.42-1.48,11.21,11.21,0,0,0,3.73-6.57A39.29,39.29,0,0,1,60.28,55.31c6.25-6.38,14.18-9.41,24.36-9.41a34.5,34.5,0,0,1,12.69,2.45,30.66,30.66,0,0,1,10.18,6.7,33.1,33.1,0,0,1,6.83,10.24,32,32,0,0,1,2.57,12.95,29.94,29.94,0,0,1-2.57,12.56,53.86,53.86,0,0,1-6.77,11,108.47,108.47,0,0,1-9.34,10.31c-3.48,3.41-7,6.76-10.5,10.05-4.45,4.25-8.12,7.73-11.08,10.76a44.32,44.32,0,0,0-7.54,9.79,42.76,42.76,0,0,0-4.19,11.41,68.7,68.7,0,0,0-1.35,15.39v10.38a9.63,9.63,0,0,0,9.6,9.6H90.82a9.63,9.63,0,0,0,9.6-9.6v-4.77a81.12,81.12,0,0,1,.64-11.15,25.09,25.09,0,0,1,2.26-7.66,28.83,28.83,0,0,1,4.51-6.64c2.06-2.25,4.83-5,8.25-8.25l3.41-3.09,19.91-20.62A70.58,70.58,0,0,0,150,99.44a63.8,63.8,0,0,0,3.8-22.87A67.5,67.5,0,0,0,148.35,49.64Z"/>
    </g>
  </g>
</svg>
