<svg id="bb5df345-c8b0-42f3-9164-45b37844e3af" data-name="Layer 1" xmlns="http://www.w3.org/2000/svg" width="248.72" height="220.85" viewBox="0 0 248.72 220.85">
  <defs>
    <style>
      .e3d594ba-1bb0-4b72-b32d-787d3dad92ce {
        opacity: 0.5;
      }

      .e3387646-0c90-458b-adde-7f2bdae200aa {
        fill: #fff;
      }

      .fea921eb-3c7e-4813-a069-4bbd30ae25d1 {
        fill: #f5c6bf;
      }

      .e1aa90d4-fadd-44d1-b778-e1fefe0b087f {
        fill: #fff1f0;
      }

      .a84cf71c-f471-4555-b028-f0d75051ffb6 {
        fill: #f1a9a6;
      }

      .bc79926c-98ce-432a-907d-ac111b527d27 {
        fill: #a52020;
      }

      .ebee036d-ec8f-46f6-a220-b46ed2fdcb4a {
        fill: #7d0800;
      }

      .ae049ab4-b5b4-42f4-8cff-186035109fc3 {
        fill: #cc3d3a;
      }

      .a136f00d-7b4d-495a-8386-231671a69581 {
        fill: #600200;
      }

      .f2732133-e1d2-4096-89cd-79c70cc4954c {
        fill: #280100;
      }

      .a0eae5a9-dcaa-4496-bb66-2944dab1e6f8 {
        fill: #ffaad8;
      }

      .f3fc5a92-ba15-4acd-b969-f21074183a57 {
        fill: #ef81c3;
      }

      .b013e6d0-bac0-496e-9f94-e8cbe000f397 {
        fill: #4c0000;
      }

      .b044bc95-ca0a-4568-abeb-2a2cb80dc9b3 {
        fill: #280000;
      }

      .b6862b6e-7094-46db-b25d-452d86899862 {
        fill: #ff8f8f;
      }

      .a7a6f965-b5c0-4a18-9f97-9d27b1d5875b {
        fill: #ffdcdc;
      }

      .aa263ea2-82af-44ed-af68-2ce26c6724e7 {
        fill: #f96969;
      }

      .ab1082de-c248-4ed2-8d56-94c22e13b6de {
        fill: #d83030;
      }

      .b9b7827a-af72-40a8-a4ee-b111b9fb8908 {
        fill: #d8d8d8;
      }

      .aa024d18-d9db-419f-b8c3-335e1ae57102 {
        fill: #0e3eaa;
      }

      .f2bafa1b-164b-4ca0-bb3a-560c9c5eed01 {
        fill: #003dc6;
      }

      .bf697dd7-9c37-4c88-951f-79a5045800fe {
        fill: #002066;
      }

      .bcbfe644-d1ad-4c9d-a721-641bbd268865 {
        fill: #f88092;
      }

      .bcd6c477-759b-40d6-a189-aedb41a0c828 {
        fill: #ffc7d4;
      }

      .b5c2c8ba-c334-466d-97b9-fb712c15896a {
        fill: #e8627f;
      }

      .a57bd419-4a51-4021-9dbf-0a87d54c1569 {
        fill: #72081d;
      }

      .a2718fe0-7472-448a-b748-82ba387d867d {
        fill: #592525;
      }

      .b6c5be12-cfd1-4167-beb5-a98da0f3cab9 {
        fill: #381212;
      }

      .a177554c-9d96-4ae5-ae06-3a49251211ee {
        fill: #1e0707;
      }
    </style>
  </defs>
  <g>
    <path class="e3d594ba-1bb0-4b72-b32d-787d3dad92ce" d="M125.48,217.25c-3.69,0-8.27-.43-11.54-3.61-2.92-1.06-7-3.25-8.06-8.43-.82-4.09,1.57-9.57,7.08-16.29a27.82,27.82,0,0,1,3.89-4,60.24,60.24,0,0,1-9.22-3.57A90.24,90.24,0,0,1,99.77,194a16.5,16.5,0,0,1-6.85,12.42C87.48,210.16,77.81,211,74.55,211q-.61,0-1.14,0c-5.76-.26-9.89-1.63-12.55-4.18-4.58-1.81-7.43-5.52-7.43-10.09,0-1.71,0-4.58,6.38-11.92a37.53,37.53,0,0,1,6-5.7c.62-1.36,1.41-2.94,2.42-4.91.81-1.59,1.65-3.22,2.08-4.26.43-1.2-.18-5.2-.54-7.59-.15-1-.29-1.94-.41-2.84a60.62,60.62,0,0,1-.39-13.17h-.56a19.37,19.37,0,0,1-9.8-2.42A17,17,0,0,1,53.2,139c-9.4-5-16.35-10.77-21.19-17.53C21,106.09,21.91,88.67,27.68,78a12.17,12.17,0,0,1-3-5.77c-.05-.21-.12-.46-.15-.56-.53-1.42-1-2.65-4.05-5.89-5.4-5.71-10.31-11.59-10.95-20.61-.62-8.68,3.37-14.88,11.86-18.4,1.15-.48,2.16-.84,3.06-1.15a14.18,14.18,0,0,0,3.95-1.84l.23-.3C37.8,10.45,49.06,9,53.52,9a23.59,23.59,0,0,1,4.39.41c12.57,2.44,15.87,11.34,17.46,15.62.39,1.05.77,2,1.14,3a70.28,70.28,0,0,1,10.28-.73,71.39,71.39,0,0,1,40.15,12c.82-.33,1.64-.64,2.46-.95a64.36,64.36,0,0,0,7-3A25.67,25.67,0,0,1,148.16,32a18.3,18.3,0,0,1,11.44,4.2c5.49,4.22,8.65,10.08,10.16,18.88a50.7,50.7,0,0,0,4.14,3.53s1.51,1.21,1.88,1.52l1.78,0a61.82,61.82,0,0,1,28.23,6.45,19.67,19.67,0,0,1,7-5.56,21.15,21.15,0,0,1,9.08-2.18c7.47,0,13.1,4.74,13.1,11v.3a20.67,20.67,0,0,1,7.88,9,21.22,21.22,0,0,1-.68,18.68,17.79,17.79,0,0,1-5.22,6,70.37,70.37,0,0,1,2.75,13.06l.06.41c2.54,21-6.09,41.6-13.48,51.29.64,7.62-1.49,15.88-3,20.64a42.22,42.22,0,0,1-4.68,10.38,14.33,14.33,0,0,1-6.24,9.35c-1.64,1-6.63,3.93-16.19,4.31-.85,0-1.68.05-2.47.05-6.32,0-10.75-1-13.76-3.25a14.15,14.15,0,0,1-8-4.83,9.86,9.86,0,0,1-1.7-8.7l.09-.29a25,25,0,0,1,1.64-3.89l-.2,0c-4.46.36-8,.54-11.1.54-1.16,0-2.29,0-3.4-.08a65.8,65.8,0,0,0-5.08,8.26c-.51,5.1-4.21,9.68-6.07,11.16-4.42,3.54-10.54,4.31-15.93,4.77C128.42,217.18,126.86,217.25,125.48,217.25Z"/>
    <path class="e3387646-0c90-458b-adde-7f2bdae200aa" d="M120.06,211.83c-3.69,0-8.27-.43-11.53-3.61-2.93-1.06-7-3.25-8.07-8.43-.81-4.09,1.57-9.56,7.08-16.28a27.86,27.86,0,0,1,3.89-4,60.24,60.24,0,0,1-9.22-3.57,90.24,90.24,0,0,1-7.86,12.66A16.49,16.49,0,0,1,87.5,201c-5.44,3.72-15.11,4.54-18.37,4.54l-1.14,0c-5.76-.27-9.89-1.64-12.55-4.18-4.58-1.81-7.43-5.53-7.43-10.1,0-1.71,0-4.58,6.38-11.92a37.53,37.53,0,0,1,6-5.7c.62-1.36,1.41-2.94,2.42-4.91.81-1.59,1.65-3.22,2.09-4.26.42-1.2-.19-5.2-.55-7.59-.15-1-.29-1.94-.41-2.83a60.74,60.74,0,0,1-.39-13.18H63a19.27,19.27,0,0,1-9.8-2.42,17,17,0,0,1-5.37-4.93c-9.4-5-16.35-10.77-21.19-17.53-11-15.33-10.1-32.75-4.33-43.38a12.35,12.35,0,0,1-3-5.77c-.05-.21-.11-.46-.15-.56-.53-1.42-1-2.65-4.05-5.88C9.67,54.69,4.76,48.81,4.12,39.79,3.5,31.11,7.49,24.92,16,21.39c1.15-.48,2.17-.83,3.06-1.15A14.45,14.45,0,0,0,23,18.41a3.55,3.55,0,0,1,.23-.31C32.39,5,43.64,3.6,48.1,3.6A23.59,23.59,0,0,1,52.49,4C65.06,6.45,68.37,15.35,70,19.63c.39,1.05.77,2.05,1.14,3a73.13,73.13,0,0,1,50.43,11.26c.82-.33,1.64-.64,2.46-.95a63.53,63.53,0,0,0,7-3,25.76,25.76,0,0,1,11.78-3.33,18.3,18.3,0,0,1,11.44,4.19c5.49,4.22,8.65,10.08,10.16,18.88a50.7,50.7,0,0,0,4.14,3.53s1.51,1.21,1.88,1.52l1.78,0a62,62,0,0,1,28.23,6.45,19.7,19.7,0,0,1,7-5.56,21.07,21.07,0,0,1,9.07-2.18c7.47,0,13.1,4.75,13.1,11v.3a20.81,20.81,0,0,1,7.89,9.05,21.28,21.28,0,0,1-.69,18.69,17.82,17.82,0,0,1-5.21,5.94,71.17,71.17,0,0,1,2.74,13.06l.06.41c2.54,21-6.09,41.6-13.48,51.29.65,7.62-1.48,15.88-3,20.64a42.22,42.22,0,0,1-4.68,10.38,14.35,14.35,0,0,1-6.23,9.35c-1.65,1-6.64,3.93-16.2,4.31-.85,0-1.68,0-2.47,0-6.31,0-10.75-1-13.76-3.25a14.15,14.15,0,0,1-8-4.83,9.89,9.89,0,0,1-1.7-8.7l.09-.29a26,26,0,0,1,1.64-3.89l-.2,0c-4.46.37-8,.54-11.1.54-1.16,0-2.29,0-3.4-.08a65.24,65.24,0,0,0-5.08,8.27c-.51,5.09-4.21,9.67-6.07,11.15-4.42,3.54-10.54,4.32-15.93,4.77C123,211.76,121.44,211.83,120.06,211.83Z"/>
    <g>
      <g>
        <g>
          <path class="fea921eb-3c7e-4813-a069-4bbd30ae25d1" d="M205.36,76.12c-.62-3.62,0-9.58,5.89-12.43,5.27-2.54,9.28-.82,9.28.75,0,2.28-9.11,2.08-8.83,7.85C211.09,73,205.36,76.12,205.36,76.12Z"/>
          <path class="e1aa90d4-fadd-44d1-b778-e1fefe0b087f" d="M218.87,62.8c-1.65-.62-4.4-.66-7.62.89-5.91,2.85-6.51,8.81-5.89,12.43l1-.56C205.71,68.12,210.67,63.07,218.87,62.8Z"/>
          <path class="a84cf71c-f471-4555-b028-f0d75051ffb6" d="M218.48,62.67c1.25,1,1.09,1.92-1.14,2.39-2.65.57-10,2.81-8.66,9.2a18.46,18.46,0,0,0,3-2c-.28-5.77,8.83-5.57,8.83-7.85C220.53,63.76,219.77,63.05,218.48,62.67Z"/>
          <path class="bc79926c-98ce-432a-907d-ac111b527d27" d="M205.11,76.62l-.07-.45c-.76-4.4.44-10.06,6.07-12.78a12.55,12.55,0,0,1,5.31-1.32c2.78,0,4.43,1.21,4.43,2.37s-1.4,1.64-3.18,2.31c-2.59,1-5.8,2.2-5.64,5.53v.12l-.08.1c-.64.77-5.85,3.59-6.44,3.91Zm11.31-13.9a11.81,11.81,0,0,0-5,1.26c-5.11,2.47-6.34,7.54-5.79,11.63a54.1,54.1,0,0,0,5.76-3.45c-.09-3.69,3.46-5,6.06-6,1.42-.54,2.77-1,2.77-1.7S218.85,62.72,216.42,62.72Z"/>
        </g>
        <path class="fea921eb-3c7e-4813-a069-4bbd30ae25d1" d="M220.53,70.61c-9.07-2.13-13.85,2.68-15.49,6.12,0,0,8.36,13.77,11.6,16.39,1.93.54,9.17.62,12.16-4.92A12.05,12.05,0,0,0,220.53,70.61Zm.6,16.88c-3.9.37-4.84-4.12-4.57-6.34,1.21-3.3,5.75-2.94,7.34-.09C225.14,83.29,224.72,87.15,221.13,87.49Z"/>
        <path class="e1aa90d4-fadd-44d1-b778-e1fefe0b087f" d="M222.36,73.23c4.23,1.66,6.66,5.2,7.89,9.45a12,12,0,0,0-9.72-12.07c-9.07-2.13-13.85,2.68-15.49,6.12l1.2,1.94C209.48,73.26,215.24,70.45,222.36,73.23Z"/>
        <path class="a84cf71c-f471-4555-b028-f0d75051ffb6" d="M218.09,79.13a4.1,4.1,0,0,1,4.16.28,4.38,4.38,0,0,1,1.38,1.23c-1-3.8-6-5.28-8.65-4.33a9,9,0,0,0-6.39,6.31c1.28,1.94,4,5.51,5.29,7.25C214.59,86,214.6,81.47,218.09,79.13Z"/>
        <path class="a84cf71c-f471-4555-b028-f0d75051ffb6" d="M230.24,82c-.67,4.69-4.65,6.63-8.4,5.41a3.89,3.89,0,0,1-.71.13c-3.9.37-4.84-4.12-4.57-6.34.91-2.48,3.69-2.89,5.69-1.74a4.1,4.1,0,0,0-4.16-.28c-3.49,2.34-4,6.33-4.72,10.21a23.91,23.91,0,0,0,3.27,3.78c1.93.54,9.17.62,12.16-4.92A12.18,12.18,0,0,0,230.24,82Z"/>
        <path class="bc79926c-98ce-432a-907d-ac111b527d27" d="M215,86.81h-.66c0-.26.05-6.36,4.12-8.07l.25.61C215.05,80.89,215,86.75,215,86.81Z"/>
        <path class="bc79926c-98ce-432a-907d-ac111b527d27" d="M218.9,93.69h0a9.28,9.28,0,0,1-2.34-.26l-.06,0-.06,0c-3.25-2.63-11.33-15.91-11.67-16.47l-.09-.15.07-.16a12.43,12.43,0,0,1,11.5-6.83,19.43,19.43,0,0,1,4.36.53,12.38,12.38,0,0,1,8.49,18.07C226.42,93.3,220.61,93.69,218.9,93.69Zm-2.11-.87a9.29,9.29,0,0,0,2.11.21h0c1.62,0,7.11-.36,9.61-5a11.72,11.72,0,0,0-8.06-17.12,18.7,18.7,0,0,0-4.21-.52,11.81,11.81,0,0,0-10.83,6.3C206.33,78.22,213.78,90.31,216.79,92.82Zm3.89-5a3.84,3.84,0,0,1-3-1.32,7.44,7.44,0,0,1-1.47-5.41l0-.07A3.81,3.81,0,0,1,220,78.47a4.83,4.83,0,0,1,4.19,2.43,5.35,5.35,0,0,1,.16,4.9,3.8,3.8,0,0,1-3.18,2Zm-3.79-6.61a6.8,6.8,0,0,0,1.32,4.85,3.2,3.2,0,0,0,2.89,1.08,3.14,3.14,0,0,0,2.66-1.67,4.73,4.73,0,0,0-.15-4.28A4.19,4.19,0,0,0,220,79.12,3.18,3.18,0,0,0,216.89,81.23Z"/>
      </g>
      <g>
        <path class="fea921eb-3c7e-4813-a069-4bbd30ae25d1" d="M99,161.23c-1.88,6.07-10.4,21.54-13.85,24.08s-17-2.2-17.78-3.84,4-9.42,5.74-13.52.33-10.08-.33-15.07-1.31-16.15,2.62-19C79.46,134.52,99,161.23,99,161.23Z"/>
        <path class="e1aa90d4-fadd-44d1-b778-e1fefe0b087f" d="M75.12,155.74c-1.15-7.86-1.61-13.33,1.79-21.08a3.88,3.88,0,0,0-1.47-.79c-3.93,2.86-3.27,14-2.62,19s2.05,11,.33,15.07-6.47,11.88-5.74,13.52a5.17,5.17,0,0,0,2.13,1.43c0-4.06,3.58-9.43,5.38-14.27C76.4,165.68,76.39,163.5,75.12,155.74Z"/>
        <path class="a84cf71c-f471-4555-b028-f0d75051ffb6" d="M75.44,133.87a5,5,0,0,0-1,1c6.76,18.27,8.94,18.94,13,28.37,1.64,3.77-3.87,16.16-10,22.26,3.2.67,6.27.84,7.66-.2,3.45-2.54,12-18,13.85-24.08C99,161.23,79.46,134.52,75.44,133.87Z"/>
        <path class="bc79926c-98ce-432a-907d-ac111b527d27" d="M82,186.38c-5,0-14.17-3.17-14.89-4.77-.52-1.16,1-4.29,3.37-8.93.92-1.81,1.8-3.52,2.36-4.86,1.39-3.3.7-7.85,0-12.24-.14-.92-.27-1.8-.38-2.66-.35-2.64-1.84-16,2.75-19.32l.11-.08.14,0c4.1.67,23,26.4,23.81,27.5l.09.13,0,.16c-1.81,5.82-10.3,21.53-14,24.25A5.74,5.74,0,0,1,82,186.38Zm-6.49-52.16c-4.24,3.36-2.58,17.05-2.37,18.61.11.86.24,1.73.38,2.65.68,4.49,1.38,9.12-.08,12.6-.57,1.35-1.45,3.08-2.38,4.9-1.69,3.29-3.79,7.4-3.36,8.36s8.82,4.38,14.3,4.38a5.12,5.12,0,0,0,3-.67c3.26-2.41,11.67-17.51,13.68-23.76C93.25,153.9,78.94,135.2,75.52,134.22Z"/>
      </g>
      <g>
        <path class="ebee036d-ec8f-46f6-a220-b46ed2fdcb4a" d="M85,185.46c1,1.64.3,6.17-2.57,8.14s-10.41,3.11-14,3-7.66-1-7.17-3c-1.89-.13-4.22-.91-4.22-2.26S64.63,180.33,67.52,180,82.79,183.37,85,185.46Z"/>
        <path class="ae049ab4-b5b4-42f4-8cff-186035109fc3" d="M67.52,180c-2.89.35-10.51,9.93-10.51,11.28a1.26,1.26,0,0,0,.33.83c2.86-4.42,8.35-10.2,10.2-10.81,1.76-.42,7.39.68,11.51,1.37C74.67,181.1,69.3,179.76,67.52,180Z"/>
        <path class="ae049ab4-b5b4-42f4-8cff-186035109fc3" d="M61.17,193.72a1.77,1.77,0,0,0,1,1.54c-1-1.17,2.79-6.82,5.33-9.68A14.27,14.27,0,0,0,61.17,193.72Z"/>
        <path class="a136f00d-7b4d-495a-8386-231671a69581" d="M67.54,185.58c-4.25.3-6.4,4.32-8.54,7.5a11.23,11.23,0,0,0,2.17.64C62.13,190.51,64.2,187.94,67.54,185.58Z"/>
        <path class="a136f00d-7b4d-495a-8386-231671a69581" d="M85,185.46A18.05,18.05,0,0,0,80,183a7,7,0,0,1-2.48,7.59c-4.55,3.64-10.23,4.75-15.73,4.37,1.18,1,4,1.49,6.64,1.61,3.6.16,11.14-1,14-3S86,187.1,85,185.46Z"/>
        <path class="f2732133-e1d2-4096-89cd-79c70cc4954c" d="M61.52,193.88l-.65-.08c.58-4.39,6.67-8.22,6.67-8.22S62.07,189.77,61.52,193.88Z"/>
        <path class="f2732133-e1d2-4096-89cd-79c70cc4954c" d="M69.13,196.89h-.75c-1.75-.09-6-.44-7.18-2a1.61,1.61,0,0,1-.34-1c-1.8-.19-4.18-1-4.18-2.55,0-.87,2.19-3.86,4.25-6.23,1.34-1.54,4.66-5.14,6.55-5.37,3-.37,15.43,3.38,17.72,5.56l0,.07c1.11,1.78.32,6.54-2.66,8.58S72.83,196.89,69.13,196.89ZM68,180.28a2.33,2.33,0,0,0-.4,0c-2.77.33-10.22,9.93-10.22,10.95s2,1.81,3.91,1.93l.39,0-.09.38a.94.94,0,0,0,.18.85c.72,1,3.22,1.62,6.68,1.78l.72,0c3.7,0,10.47-1.11,13.09-2.91s3.35-6.2,2.5-7.66C82.58,183.7,71.39,180.28,68,180.28Z"/>
      </g>
      <g>
        <path class="fea921eb-3c7e-4813-a069-4bbd30ae25d1" d="M65.45,128.21a63.23,63.23,0,0,1,14.66,15.57c5.17,7.78,8.42,13.25,19.45,20.35a52.18,52.18,0,0,0,32.23,8.74c11.25,5.68,19.12,6.33,33.76,5.13s23.81-5.57,29.49-12.34,26-23,29.28-35.51.44-29.83-7.21-41.79-23.38-27.25-52-24.3-41.51,3.13-41.51,3.13Z"/>
        <path class="e1aa90d4-fadd-44d1-b778-e1fefe0b087f" d="M155.82,69.63c21.18-6.17,45.31.64,58.32,14.51-8.47-11-23.7-22.69-49-20.08-7.43.76-13.79,1.34-19.15,1.78C149.22,68.67,153,70.56,155.82,69.63Z"/>
        <path class="a84cf71c-f471-4555-b028-f0d75051ffb6" d="M217.11,88.36c-.88-1.38-1.87-2.8-3-4.24,4,8.6,6.91,17.37,6.91,27.13a65.1,65.1,0,0,1-5.57,28.52,82.18,82.18,0,0,1-5,10.36c6.23-6.5,12.19-13.72,13.83-20C227.6,117.7,224.76,100.32,217.11,88.36Z"/>
        <path class="a84cf71c-f471-4555-b028-f0d75051ffb6" d="M199.85,114.47c-15.08,9.83-15.51,27.26-18.37,43.81-1,5.94-17.46,7.38-19.76,1.81-3.93-9.18-4.26-23-16.38-24.26,4.91,8.52,9.83,24.58-1,27.86-14.42,4.26-25-10.58-33.54-21.07-2,6.23,2.08,12.22,4,18.12.73,2.21.57,3.35-.13,4.45-1.92,3-14.34-2.05-21.15-5.34a69.23,69.23,0,0,0,6,4.28,52.18,52.18,0,0,0,32.23,8.74c11.25,5.68,19.12,6.33,33.76,5.13s23.81-5.57,29.49-12.34c1.5-1.78,4-4.22,6.94-7.07-2.85-4.83-5.3-9.77-5.52-15.55C195.81,133.54,197.88,123.65,199.85,114.47Z"/>
        <path class="bc79926c-98ce-432a-907d-ac111b527d27" d="M155.18,178.84a47.22,47.22,0,0,1-23.46-5.64c-.92,0-1.82.05-2.7.05a51.9,51.9,0,0,1-29.64-8.85c-10.5-6.75-13.95-12-18.73-19.21L79.84,144a63,63,0,0,0-14.59-15.48l-.29-.23,58.49-61.39h.14c.13,0,13.21-.21,41.49-3.13,2.39-.24,4.77-.37,7.06-.37a52.24,52.24,0,0,1,29.12,8.29,54.7,54.7,0,0,1,16.13,16.54c7.64,12,10.62,29.24,7.25,42.05-2.42,9.18-13.85,20.27-22.2,28.36-3,2.93-5.62,5.45-7.14,7.27-6.08,7.24-15.8,11.32-29.73,12.46C161.37,178.67,158.06,178.84,155.18,178.84Zm-23.32-6.3.08,0a46.74,46.74,0,0,0,23.24,5.6c2.87,0,6.15-.16,10.34-.5,13.74-1.13,23.32-5.13,29.27-12.23,1.55-1.84,4.16-4.38,7.19-7.32,8.3-8,19.65-19,22-28.06,3.32-12.65.37-29.72-7.17-41.53C209.68,77.35,196.12,64,172.14,64a69.86,69.86,0,0,0-7,.36c-26.76,2.76-39.93,3.1-41.4,3.14l-57.8,60.65A64.3,64.3,0,0,1,80.39,143.6l.81,1.23c4.73,7.16,8.15,12.34,18.54,19A51.23,51.23,0,0,0,129,172.6q1.35,0,2.76-.06Z"/>
      </g>
      <g>
        <path class="fea921eb-3c7e-4813-a069-4bbd30ae25d1" d="M199.9,114.39s-15.13,21.66-7.48,47.66c-.48,6.76-8,18.41-10.54,21.2.87,1.74,20.37,8.63,22,7.81s3.72-4.92,5.36-10,3.93-14.36,2-20.65c5.08-4.09,16.8-25.48,14.14-47.39Z"/>
        <path class="e1aa90d4-fadd-44d1-b778-e1fefe0b087f" d="M193.74,164.69a27.72,27.72,0,0,0,2.68,3.87c-5.91-16-4.2-38.19,3.34-54-3.41,4.8-14.23,24-7.34,47.48-.48,6.76-8,18.41-10.54,21.2a4.27,4.27,0,0,0,1.59,1.12C188,179.1,192.86,171,193.74,164.69Z"/>
        <path class="a84cf71c-f471-4555-b028-f0d75051ffb6" d="M225.35,113l-4.27.09c.29,25.5-10.59,42.55-21.34,55.17a18.8,18.8,0,0,0,7.87-3.93c-2,8.19-4.26,17.1-10.41,25,3.8,1.22,6.07,2,6.69,1.72,1.64-.82,3.72-4.92,5.36-10s3.93-14.36,2-20.65C216.29,156.32,228,134.93,225.35,113Z"/>
        <path class="bc79926c-98ce-432a-907d-ac111b527d27" d="M206.54,163.38a31.43,31.43,0,0,0,5.49-4.19l.47.46A19.3,19.3,0,0,1,206.54,163.38Z"/>
        <path class="bc79926c-98ce-432a-907d-ac111b527d27" d="M191.72,160.76l.64-.16a28.67,28.67,0,0,0,3.39,7.12S192.57,164.12,191.72,160.76Z"/>
        <path class="bc79926c-98ce-432a-907d-ac111b527d27" d="M203.53,191.43c-3.58,0-21.07-6.28-21.94-8l-.11-.2.16-.17c2.41-2.61,9.93-14.17,10.45-20.93-4-13.49-1.77-25.83.76-33.81a45,45,0,0,1,7.05-13.89,60.06,60.06,0,0,0-6.44,14.11c-2.49,7.9-4.65,20.12-.72,33.46v.12c-.49,6.73-7.82,18.17-10.45,21.18,1.87,1.8,20,8.21,21.45,7.5s3.5-4.58,5.18-9.8c1.28-4,4-13.87,2-20.45l-.07-.21.18-.14c2.51-2,6.71-8.48,9.87-16.88,2.69-7.17,5.63-18.27,4.18-30.26l.64-.08c2.61,21.52-8.59,42.88-14.11,47.59,2,6.75-.75,16.66-2,20.63-1.38,4.28-3.56,9.21-5.52,10.19A1.29,1.29,0,0,1,203.53,191.43Z"/>
      </g>
      <g>
        <path class="fea921eb-3c7e-4813-a069-4bbd30ae25d1" d="M145.43,135.82a24,24,0,0,1,9.41,24.86C151.4,177.29,143.53,180,136.9,195.4c-6.72-.49-17.81-8.11-17.68-8.93,1.21-4.18,8-16.14,8-21.47-15-9-16.42-22.38-16.42-22.38Z"/>
        <path class="e1aa90d4-fadd-44d1-b778-e1fefe0b087f" d="M128.84,167.62a50.2,50.2,0,0,0,8.63-1.14c-10.24-1.48-22.56-13.17-26.66-23.86,1,6.12,4.74,15.41,16.42,22.38,0,5.33-6.8,17.29-8,21.47,0,.18.48.68,1.36,1.36C122.8,182.65,127.59,175.33,128.84,167.62Z"/>
        <path class="a84cf71c-f471-4555-b028-f0d75051ffb6" d="M145.68,136c8.34,10.1,5.85,23.15.53,32.73-5,9.14-12.93,15.62-16.07,24.71a21.9,21.9,0,0,0,6.76,2c6.63-15.4,14.5-18.11,17.94-34.72A24,24,0,0,0,145.68,136Z"/>
        <path class="bc79926c-98ce-432a-907d-ac111b527d27" d="M126,164.64l.35-.55a21.64,21.64,0,0,0,5.28,2.21A13.35,13.35,0,0,1,126,164.64Z"/>
        <path class="bc79926c-98ce-432a-907d-ac111b527d27" d="M137.11,195.74h-.24c-6.35-.47-16.56-7.24-17.78-8.8a.66.66,0,0,1-.19-.51v0a61.12,61.12,0,0,1,2.81-6.69c2.27-4.95,5.08-11.08,5.18-14.5a38,38,0,0,1-10.24-8.91,26,26,0,0,1-5.85-13.72A30.34,30.34,0,0,0,117.29,156a37.43,37.43,0,0,0,10.11,8.7l.16.1V165c0,3.53-2.91,9.87-5.24,15a63.52,63.52,0,0,0-2.75,6.51c.61,1,10.62,8,17.12,8.58a74.18,74.18,0,0,1,8.48-14.42c4-5.58,7.36-10.4,9.35-20a24.34,24.34,0,0,0-9.15-24.84,22.4,22.4,0,0,1,9.16,11.7,25.3,25.3,0,0,1,.63,13.27c-2,9.74-5.63,14.85-9.46,20.26a73.47,73.47,0,0,0-8.5,14.52Z"/>
      </g>
      <g>
        <path class="a0eae5a9-dcaa-4496-bb66-2944dab1e6f8" d="M128.62,72.58c3.31,2.83,12.13,3.44,14.53,2.87.11-2.54-3.18-23-3.18-23-4.9,1.32-12.55,3.53-14.84,7.12S128.62,72.58,128.62,72.58Z"/>
        <path class="f3fc5a92-ba15-4acd-b969-f21074183a57" d="M125.36,64.61c1.17,3.48,3.26,8,3.26,8,3.31,2.83,12.13,3.44,14.53,2.87.06-1.47-1-8.91-1.92-14.93C136.75,64.37,131.9,67.42,125.36,64.61Z"/>
        <path class="bc79926c-98ce-432a-907d-ac111b527d27" d="M140.74,76h0c-3,0-9.43-.66-12.33-3.14l-.07-.08c-.24-.39-5.87-9.61-3.49-13.33,2.2-3.44,8.83-5.6,15-7.26l.35-.1.06.36c.13.84,3.29,20.5,3.18,23v.25l-.24.05A11.26,11.26,0,0,1,140.74,76Zm-11.87-3.61c2.58,2.17,8.5,3,11.87,3h0a12.79,12.79,0,0,0,2.08-.13c-.07-3.11-2.69-19.64-3.11-22.29-3.85,1-12,3.31-14.31,6.88C123.32,63,128.45,71.67,128.87,72.36Z"/>
      </g>
      <g>
        <path class="a84cf71c-f471-4555-b028-f0d75051ffb6" d="M126.71,69a40.31,40.31,0,0,0,1.91,3.57c3.31,2.83,12.13,3.44,14.53,2.87a48.62,48.62,0,0,0-.52-5.21C138.37,71,132,71.42,126.71,69Z"/>
        <path class="bc79926c-98ce-432a-907d-ac111b527d27" d="M140.74,76c-3,0-9.43-.66-12.33-3.14l-.07-.08a39.41,39.41,0,0,1-1.92-3.6l-.39-.81.82.37a22.51,22.51,0,0,0,9.33,1.79,36.75,36.75,0,0,0,6.39-.58l.34-.06.05.34a47,47,0,0,1,.52,5.26v.25l-.24.05A11.32,11.32,0,0,1,140.74,76Zm-11.87-3.61c2.58,2.17,8.5,3,11.87,3a12.87,12.87,0,0,0,2.08-.13c0-.73-.17-2.26-.47-4.55a38.1,38.1,0,0,1-6.17.53,24,24,0,0,1-8.79-1.51C128.11,71.08,128.74,72.14,128.87,72.36Z"/>
      </g>
      <g>
        <path class="fea921eb-3c7e-4813-a069-4bbd30ae25d1" d="M119.22,45.46c3.58-3.28,8.75-3.85,15.87-7.54s10.41-2.46,13.61,0,6,6.39,7.12,15.65c2.13,2.79,4.15,4.34,7.62,7.13,3.88,3.12,6.31,5,6.56,9.91s-2.92,9.12-8.22,12.73C157.89,86,155,87.23,150,91.83c-4.32,4-5.66,6.56-7.62,5.41s-1.72-3.93-2.54-9.75-2.67-8.76-4.24-17.86c-1.14-6.66.48-15.16.48-15.16-1.41.74-5.09,4.34-6.73,8.93C126.9,61.19,119.22,45.46,119.22,45.46Z"/>
        <path class="e1aa90d4-fadd-44d1-b778-e1fefe0b087f" d="M170,70.61c-.25-4.91-2.68-6.79-6.56-9.91-3.47-2.79-5.49-4.34-7.62-7.13-1.14-9.26-3.93-13.19-7.12-15.65s-6.48-3.69-13.61,0-12.29,4.26-15.87,7.54l.89,1.78c4.83-2.8,11.14-5,16-7.39,5.8-2.91,10.25-.88,11.66.28,4.63,3.81,4.56,8.58,6.38,15.3,1.91,7,4.7,9,7.33,11.34a34.78,34.78,0,0,1-3-8.17c4.26,4.92,11.61,8.82,8.66,16-2.29,4.91-6.47,8.15-12,12.37a12.45,12.45,0,0,0-2.26,2.33c3.36-2.69,5.8-3.9,8.87-6C167.08,79.73,170.24,75.53,170,70.61Z"/>
        <path class="a84cf71c-f471-4555-b028-f0d75051ffb6" d="M143.48,93.36c-.72-.71-.58-3.09-1.13-7.34s-2.45-8.12-3.24-15.61c-1.26-11.92-1-20.26,5.26-27.38-6.23,2.67-14.54,9-19.21,13.88,1.68,3,3.29,5.68,4.2,6.49,1.64-4.59,5.32-8.19,6.73-8.93,0,0-1.62,8.5-.48,15.16,1.57,9.1,3.42,12,4.24,17.86s.57,8.6,2.54,9.75,3.3-1.44,7.62-5.41a53.43,53.43,0,0,1,4.12-3.44C151,89.87,144.55,94.45,143.48,93.36Z"/>
        <path class="bc79926c-98ce-432a-907d-ac111b527d27" d="M136.08,56.6l-.65-.07c1-9.07,8.94-13.5,8.94-13.5S137,47.85,136.08,56.6Z"/>
        <path class="bc79926c-98ce-432a-907d-ac111b527d27" d="M155.31,52.22l.65-.08c1.3,10.54,5.45,14.59,5.5,14.63S156.64,63,155.31,52.22Z"/>
        <path class="bc79926c-98ce-432a-907d-ac111b527d27" d="M143.31,97.84a2.07,2.07,0,0,1-1.09-.32c-1.65-1-1.87-2.89-2.26-6.41-.12-1-.25-2.22-.44-3.57a47.06,47.06,0,0,0-1.7-7.24,84.76,84.76,0,0,1-2.53-10.62c-.95-5.49,0-12.29.35-14.52a19.66,19.66,0,0,0-6,8.35l-.17.46-.36-.32c-2.48-2.23-9.9-17.4-10.21-18l-.11-.22.18-.16c2.13-1.95,4.74-2.94,8-4.19a72.09,72.09,0,0,0,7.89-3.4,17.57,17.57,0,0,1,7.8-2.36,9.73,9.73,0,0,1,6.16,2.39c2.88,2.22,6,5.83,7.24,15.78,2,2.55,3.83,4.05,6.91,6.53l.77.61c3.77,3,6.26,5,6.51,10,.23,4.7-2.58,9.07-8.37,13-1.07.73-2.08,1.36-3.05,2a51.21,51.21,0,0,0-8.68,6.5c-1.2,1.09-2.14,2.06-3,2.92C145.53,96.77,144.49,97.84,143.31,97.84Zm-6.77-44-.13.66c0,.09-1.6,8.52-.47,15a85.06,85.06,0,0,0,2.51,10.55,48.59,48.59,0,0,1,1.72,7.33c.19,1.35.33,2.54.44,3.59.38,3.41.57,5.12,1.94,5.92a1.55,1.55,0,0,0,.76.23c.9,0,1.92-1.06,3.48-2.65.79-.82,1.79-1.84,3-3A52.6,52.6,0,0,1,158.57,85c1-.6,2-1.23,3-2,5.59-3.8,8.3-8,8.08-12.44-.23-4.7-2.5-6.52-6.26-9.54l-.77-.61c-3.15-2.53-5-4.06-7.08-6.71l-.05-.07v-.09c-1.21-9.78-4.22-13.29-7-15.43a9.13,9.13,0,0,0-5.76-2.26,17,17,0,0,0-7.5,2.29,70.38,70.38,0,0,1-8,3.43c-3.14,1.19-5.64,2.14-7.65,3.9.9,1.83,7.1,14.35,9.6,17.26,1.69-4.28,5.16-7.81,6.71-8.62Z"/>
      </g>
      <g>
        <path class="a84cf71c-f471-4555-b028-f0d75051ffb6" d="M35.18,57.75c2.87,4.26,8.61,7.07,13.28,4s5.15-16.6,5.15-16.6-1.94-15.62-6.24-16.39S35.18,57.75,35.18,57.75Z"/>
        <path class="bc79926c-98ce-432a-907d-ac111b527d27" d="M44.19,63.38h0c-3.4,0-7-2.14-9.27-5.45l-.08-.12,0-.15c0-.07,2-7.34,4.4-14.51,5-14.72,7.22-14.72,8-14.72l.22,0c4.48.8,6.43,16,6.51,16.67v.05c0,.56-.54,13.75-5.3,16.87A8,8,0,0,1,44.19,63.38Zm-8.65-5.69c2.12,3.06,5.5,5,8.64,5h0a7.35,7.35,0,0,0,4.09-1.23c4.38-2.87,5-15.66,5-16.32-.54-4.3-2.64-15.49-6-16.08h-.11C44.23,29.08,38.61,46.13,35.54,57.69Z"/>
      </g>
      <g>
        <path class="a0eae5a9-dcaa-4496-bb66-2944dab1e6f8" d="M37.26,54.55A9.42,9.42,0,0,0,45,59.63c2.12-1.88,6-11.77,6.28-13.73s-.65-11.83-3.88-13.47C45.37,34.64,37.26,54.55,37.26,54.55Z"/>
        <path class="f3fc5a92-ba15-4acd-b969-f21074183a57" d="M37.26,54.55A9.42,9.42,0,0,0,45,59.63c1.3-1.15,3.28-5.32,4.67-8.83-4.22,3.26-7.79.31-9.4-3.39C38.56,51.37,37.26,54.55,37.26,54.55Z"/>
        <path class="bc79926c-98ce-432a-907d-ac111b527d27" d="M45.08,60l-.15,0a9.84,9.84,0,0,1-8-5.26l-.07-.13.06-.14c.33-.82,8.16-20,10.17-22.22L47.3,32l.22.12C51,33.91,51.8,44.21,51.58,46c-.25,1.94-4.17,12-6.39,13.93Zm-7.46-5.44a9.07,9.07,0,0,0,7.24,4.75c2.1-2.08,5.84-11.61,6.07-13.43s-.64-11.11-3.48-13C45.36,35.68,38.34,52.8,37.62,54.54Z"/>
      </g>
      <g>
        <path class="fea921eb-3c7e-4813-a069-4bbd30ae25d1" d="M47.94,34c1.15.93,2.68,9.4,2.1,15.14C52.83,48.49,67.09,36.25,66.1,34s-2.7-6.17-4.58-11.25-4-8.61-10.74-9.91c-5.49-1.07-14.25,1-21.14,11.8C25.51,28,23,28.22,19.43,29.7S12.65,33,13.09,39.15c.45,6.29,4.26,10.57,8.52,15.08s5.17,6.84,5.94,8.93.41,3.4,2.22,3.52,5-2.05,7.08-6.88,2.34-7.66,4.92-12C45.13,42.24,47.23,39.79,47.94,34Z"/>
        <path class="e1aa90d4-fadd-44d1-b778-e1fefe0b087f" d="M24.73,30a11.86,11.86,0,0,1-2.9,5c4.48-1.14,6.29-4.49,10-10,5.62-8.34,12.54-11.27,18.29-10.24,9,1.61,8.09,6.69,13.5,13.47-.65-1.61-1.36-3.42-2.1-5.42-1.89-5.08-4-8.61-10.74-9.91-5.49-1.07-14.25,1-21.14,11.8C25.51,28,23,28.22,19.43,29.7S12.65,33,13.09,39.15a18.46,18.46,0,0,0,4.27,10.23C13.93,43.29,10.14,32.43,24.73,30Z"/>
        <path class="a84cf71c-f471-4555-b028-f0d75051ffb6" d="M46.69,19.16c0,8.48-2.79,17.25-8.85,26.22-3.69,7.09-2.3,11.14-5.25,16.06-1.31,2.29-2.41,1.61-3.6-.62-3.48-6.22-7.62-7.58-12.46-12.56a53.3,53.3,0,0,0,5.08,6c4.26,4.5,5.17,6.84,5.94,8.93s.41,3.4,2.22,3.52,5-2.05,7.08-6.88,2.34-7.66,4.92-12c3.36-5.59,5.46-8,6.17-13.82,1.15.93,2.68,9.4,2.1,15.14,1.29-.31,5-3.08,8.57-6.19a11.57,11.57,0,0,1-2.09-4.14C54.55,31.28,50.62,21.87,46.69,19.16Z"/>
        <path class="bc79926c-98ce-432a-907d-ac111b527d27" d="M25.1,31.78C25.25,31.5,29,25,30,23.5l.53.38C28.77,26.86,25.1,31.78,25.1,31.78Z"/>
        <path class="bc79926c-98ce-432a-907d-ac111b527d27" d="M47.7,37.1,47.05,37A71.65,71.65,0,0,0,48.1,22.37,52.58,52.58,0,0,1,47.7,37.1Z"/>
        <path class="bc79926c-98ce-432a-907d-ac111b527d27" d="M29.91,67h-.17c-1.53-.11-1.76-1-2-2.21a13.37,13.37,0,0,0-.44-1.53c-.76-2-1.61-4.31-5.88-8.82-4.6-4.87-8.16-9.09-8.61-15.28s3-8.3,6.54-9.77c.93-.39,1.78-.69,2.61-1a21.58,21.58,0,0,0,7.48-4c7-11,15.41-12.16,18.71-12.16a14.31,14.31,0,0,1,2.74.26c7.2,1.39,9.23,5.41,11,10.12,1.92,5.16,3.65,9.11,4.58,11.23a1.67,1.67,0,0,1-.21,1.38C64.33,39,52.8,48.83,50.12,49.46l-.45.11,0-.46c.51-5.07-.64-11.93-1.58-14.17-.68,4.32-2.23,6.81-4.5,10.47-.5.81-1,1.65-1.59,2.59a33,33,0,0,0-3.11,7.12c-.5,1.46-1,3-1.79,4.8C35.18,64.58,32,67,29.91,67ZM48.1,12.93c-3.19,0-11.35,1.15-18.18,11.89l0,.05,0,0A22.15,22.15,0,0,1,22.13,29c-.82.29-1.67.58-2.58,1-3.47,1.44-6.55,3.23-6.13,9.13S17.33,49.22,21.85,54c4.36,4.61,5.24,7,6,9a13.4,13.4,0,0,1,.47,1.6c.28,1.16.4,1.64,1.46,1.71h.12c1.47,0,4.58-1.82,6.64-6.69.77-1.81,1.28-3.31,1.77-4.76a33.57,33.57,0,0,1,3.17-7.24c.57-1,1.09-1.79,1.59-2.61,2.47-4,4-6.36,4.54-11.09l.07-.58.46.37c1.28,1,2.69,9.33,2.27,14.9,3-1.38,13.4-10.12,15.18-13.69.28-.56.23-.77.2-.82-.93-2.13-2.67-6.1-4.59-11.27-2-5.49-4.22-8.49-10.49-9.71A14,14,0,0,0,48.1,12.93Z"/>
      </g>
      <g>
        <path class="fea921eb-3c7e-4813-a069-4bbd30ae25d1" d="M84.78,132.68A81.32,81.32,0,0,0,104,132c7.57-1.39,19.34-3.82,27.53-17.37,9-14.88,2.41-30.48.66-38.45s1.42-23.49-15.62-35.07S79.73,29.49,68.37,32.06c-6.67,1.51-13.9,3.64-20.32,18.19C40.4,67.57,35.7,66.91,30.35,76.47c-4.48,8-5.08,22,3.6,34.09S58.57,128.71,67.06,132a54,54,0,0,1,16.71,10.19Z"/>
        <path class="e1aa90d4-fadd-44d1-b778-e1fefe0b087f" d="M39.78,68.69c4.7-4.5,7.81-10.9,10.39-16.63,2.9-6.44,5.41-13.26,18.47-16.79,17.07-4.63,37,.28,50.48,8.14l.22,0c-.88-.72-1.83-1.42-2.85-2.12-17-11.58-36.81-11.63-48.17-9.06C61.65,33.78,54.42,35.91,48,50.46,40.35,67.77,35.65,67.12,30.3,76.68c-4,7.11-4.9,18.95,1.07,30C27.8,93.6,28.19,79.79,39.78,68.69Z"/>
        <path class="a84cf71c-f471-4555-b028-f0d75051ffb6" d="M28.19,98.58a36.26,36.26,0,0,0,5.71,12.18c5.56,7.76,14.08,13,21.72,16.67-.49-2.88-1.19-4.67-1.64-7.55C43.35,116.85,31.28,110.35,28.19,98.58Z"/>
        <path class="a84cf71c-f471-4555-b028-f0d75051ffb6" d="M132.12,76.4c-1.7-7.74,1.23-22.57-14.17-34,10.61,11.3,9.12,23.36,8.76,34.25-.38,11.74,3.88,15.65,1.26,29.13-3.38,11.24-9.79,22-43.25,27.13.39,0,2.19.16,2.71.18a76.58,76.58,0,0,0,16.5-.83c7.57-1.39,19.34-3.83,27.53-17.37C140.46,100,133.87,84.38,132.12,76.4Z"/>
        <path class="bc79926c-98ce-432a-907d-ac111b527d27" d="M83.72,142.41a55.93,55.93,0,0,0-10.28-6.86,62.06,62.06,0,0,0-6.55-3l-.55-.21C57.9,129,42.19,122.9,33.64,111,24.8,98.62,25.57,84.46,30,76.52a40.76,40.76,0,0,1,6.25-8.29c3.35-3.65,6.81-7.42,11.44-17.91,6.23-14.1,13-16.66,20.54-18.37,12.7-2.88,32.1-2,48.44,9.11,13.58,9.23,14.45,20.87,15.08,29.38a43.43,43.43,0,0,0,.68,5.89c.26,1.21.65,2.64,1.06,4.14,2.37,8.69,5.94,21.82-1.76,34.56-8.45,14-21,16.28-27.75,17.52-8.84,1.63-19.27.33-19.27.33a92,92,0,0,0,19.15-1c7.11-1.31,19-3.5,27.31-17.22,7.56-12.49,4-25.46,1.69-34-.41-1.52-.8-3-1.07-4.18a45,45,0,0,1-.7-6c-.62-8.37-1.47-19.83-14.79-28.88-16.17-11-35.36-11.87-47.92-9-7.38,1.67-14,4.17-20.09,18C43.62,61.17,40,65.16,36.74,68.67a40.33,40.33,0,0,0-6.16,8.17c-4.34,7.76-5.08,21.63,3.59,33.73,8.44,11.79,24,17.87,32.4,21.14l.55.21a62.12,62.12,0,0,1,6.45,3A37.83,37.83,0,0,1,83.72,142.41Z"/>
      </g>
      <g>
        <path class="fea921eb-3c7e-4813-a069-4bbd30ae25d1" d="M54,118.38s-2.49,8.73,3.65,12.29,17.64-2.22,17.64-2.22Z"/>
        <path class="a84cf71c-f471-4555-b028-f0d75051ffb6" d="M53.86,119.17c-1,3-.41,9.06,3.8,11.5,5.8,3.36,16.36-1.59,17.53-2.17C62.09,131.3,54,129.44,53.86,119.17Z"/>
        <path class="bc79926c-98ce-432a-907d-ac111b527d27" d="M63,132.21A10.75,10.75,0,0,1,57.5,131a8.57,8.57,0,0,1-3.9-5,12.47,12.47,0,0,1,.41-7.59,15.49,15.49,0,0,0,.27,7.55,7.89,7.89,0,0,0,3.55,4.46,10.06,10.06,0,0,0,5.07,1.15c5.76,0,12.32-3,12.4-3.09S68.78,132.21,63,132.21Z"/>
      </g>
      <g>
        <path class="b013e6d0-bac0-496e-9f94-e8cbe000f397" d="M60.2,108.92a16.76,16.76,0,0,1-1.76,8.23c-1.59,3.44-2.25,6.6,1.11,8.69s8.06.27,12.15-3.12,8.25-8.79,13.77-11C81.7,110.54,60.2,108.92,60.2,108.92Z"/>
        <path class="b044bc95-ca0a-4568-abeb-2a2cb80dc9b3" d="M65.22,109.32c-.5,2.86-.2,6,2.44,7.83a12.77,12.77,0,0,0,8.54,1.38c2.76-2.66,5.73-5.39,9.27-6.79C82.87,110.91,71.81,109.88,65.22,109.32Z"/>
        <g>
          <path class="b6862b6e-7094-46db-b25d-452d86899862" d="M71,114.91c-8-1.57-12,3-13.85,7a4.54,4.54,0,0,0,2.41,3.93c3.36,2.09,8.06.27,12.15-3.12,2-1.64,4-3.76,6.16-5.76C76.45,114.24,72.46,114.56,71,114.91Z"/>
          <path class="a7a6f965-b5c0-4a18-9f97-9d27b1d5875b" d="M68.66,115.75a12.9,12.9,0,0,0-4.41,5.68c3.41-5,7.14-6.35,12.08-6a8.18,8.18,0,0,0-5.34-.5c-8-1.57-12,3-13.85,7a4.32,4.32,0,0,0,.13,1C60,117.93,64.41,115.4,68.66,115.75Z"/>
          <path class="aa263ea2-82af-44ed-af68-2ce26c6724e7" d="M76,115.26c-.19,1.24-3.08,4.79-6.52,7-4.21,2.81-8.41,4-12.06,1.25a5,5,0,0,0,2.09,2.3c3.36,2.09,8.06.27,12.15-3.12,2-1.64,4-3.76,6.16-5.76A3.83,3.83,0,0,0,76,115.26Z"/>
          <path class="ab1082de-c248-4ed2-8d56-94c22e13b6de" d="M64.25,121.43s2-6.36,7.57-7l.08.65C66.75,115.67,64.27,121.37,64.25,121.43Z"/>
          <path class="ab1082de-c248-4ed2-8d56-94c22e13b6de" d="M62.8,127.05h0a6.38,6.38,0,0,1-3.42-.93,4.87,4.87,0,0,1-2.57-4.2v-.08l0-.07c1.62-3.42,4.86-7.5,11.06-7.5a16.1,16.1,0,0,1,3.09.31,9.42,9.42,0,0,1,2.1-.23c2.44,0,4.24.88,5.06,2.46l.12.22-.19.17c-.81.75-1.61,1.53-2.38,2.28-1.31,1.27-2.54,2.46-3.79,3.5C68.73,125.61,65.49,127.05,62.8,127.05ZM57.47,122a4.23,4.23,0,0,0,2.25,3.58,5.72,5.72,0,0,0,3.08.84c2.54,0,5.63-1.4,8.69-3.93,1.23-1,2.45-2.2,3.75-3.46.71-.69,1.45-1.41,2.21-2.11-1-1.56-2.88-1.89-4.36-1.89a9.06,9.06,0,0,0-2,.22l-.07,0-.07,0a16.32,16.32,0,0,0-3-.31C62.09,114.92,59,118.75,57.47,122Z"/>
        </g>
        <path class="bc79926c-98ce-432a-907d-ac111b527d27" d="M62.8,127.05h0a6.38,6.38,0,0,1-3.42-.93c-3.73-2.33-2.72-5.91-1.23-9.11A16.33,16.33,0,0,0,59.88,109l0-.39.39,0c.88.07,21.58,1.64,25.34,2.84l.87.28-.85.34c-3.79,1.5-6.89,4.52-9.9,7.43-1.3,1.27-2.53,2.47-3.78,3.5C68.73,125.61,65.49,127.05,62.8,127.05Zm-2.24-17.78a17.48,17.48,0,0,1-1.82,8c-1.43,3.09-2.31,6.22,1,8.27a5.72,5.72,0,0,0,3.08.84c2.54,0,5.63-1.4,8.69-3.93,1.23-1,2.45-2.2,3.75-3.46,2.81-2.73,5.71-5.55,9.21-7.18C79.47,110.77,63.25,109.48,60.56,109.27Z"/>
      </g>
      <g>
        <path class="a84cf71c-f471-4555-b028-f0d75051ffb6" d="M61.6,68.89c-3,5.26-7.91,8.1-11,6.36s-3-7.41,0-12.66,7.76-8.58,10.8-6.84S64.61,63.64,61.6,68.89Z"/>
        <path d="M61.08,69.8c-2.73,4.75-7.39,7.19-10.43,5.45s-3.28-7-.56-11.75,7.39-7.19,10.43-5.45S63.8,65.06,61.08,69.8Z"/>
        <path class="e3387646-0c90-458b-adde-7f2bdae200aa" d="M60.81,70.26c-2.57,4.5-7.06,6.77-10,5.07s-3.26-6.72-.69-11.21,7.07-6.77,10-5.07S63.39,65.77,60.81,70.26Z"/>
        <path class="b9b7827a-af72-40a8-a4ee-b111b9fb8908" d="M50.17,64l-.07.11c-2.57,4.49-2.27,9.51.69,11.21s7.45-.57,10-5.07a14.55,14.55,0,0,0,.85-1.73C57,69.5,51.91,68.64,50.17,64Z"/>
        <path d="M53,76.22a4.67,4.67,0,0,1-2.35-.6A5.69,5.69,0,0,1,48,70.79,12.49,12.49,0,0,1,49.82,64c2-3.53,5.21-5.8,8.12-5.8a4.58,4.58,0,0,1,2.35.61c3.11,1.78,3.47,7,.81,11.66C59.08,74,55.89,76.22,53,76.22Zm5-17.4c-2.64,0-5.68,2.19-7.55,5.46a11.79,11.79,0,0,0-1.69,6.47A5,5,0,0,0,51,75.05a4.09,4.09,0,0,0,2,.52c2.64,0,5.68-2.2,7.55-5.47C63,65.77,62.76,60.94,60,59.33A4.11,4.11,0,0,0,57.94,58.82Z"/>
      </g>
      <g>
        <path class="aa024d18-d9db-419f-b8c3-335e1ae57102" d="M59.85,70.32c-1.29,2.52-3.76,3.83-5.51,2.93s-2.12-3.68-.82-6.19,3.77-3.83,5.52-2.92S61.15,67.81,59.85,70.32Z"/>
        <path class="f2bafa1b-164b-4ca0-bb3a-560c9c5eed01" d="M53.24,67.67c-1,2.34-.51,4.75,1.1,5.58s4.22-.41,5.51-2.93a7.3,7.3,0,0,0,.6-1.58A7.15,7.15,0,0,1,53.24,67.67Z"/>
        <path d="M59.49,69.9c-.44,1.49-1.7,2.43-2.81,2.1S55,70.19,55.49,68.7s1.7-2.42,2.81-2.09S59.94,68.42,59.49,69.9Z"/>
        <path class="e3387646-0c90-458b-adde-7f2bdae200aa" d="M58.26,67.64a.81.81,0,1,1-1.54-.47.81.81,0,1,1,1.54.47Z"/>
        <path class="bf697dd7-9c37-4c88-951f-79a5045800fe" d="M55.54,73.86a3,3,0,0,1-1.35-.32c-1.91-1-2.34-4-1-6.63,1-2,2.89-3.39,4.6-3.39a3,3,0,0,1,1.36.32,3.44,3.44,0,0,1,1.72,2.74,6.7,6.7,0,0,1-.76,3.89C59.1,72.5,57.25,73.86,55.54,73.86Zm2.29-9.68c-1.47,0-3.08,1.21-4,3-1.21,2.35-.91,4.93.68,5.74a2.2,2.2,0,0,0,1,.25c1.47,0,3.09-1.21,4-3a6,6,0,0,0,.7-3.5,2.8,2.8,0,0,0-1.37-2.24A2.24,2.24,0,0,0,57.83,64.18Z"/>
      </g>
      <g>
        <path class="fea921eb-3c7e-4813-a069-4bbd30ae25d1" d="M62.72,56.61c1.57,3.51-.06,10.48-2.11,14-1.76,0-4.26.35-5.73,1.56-1.86-.49-3.79-.16-4.61,1.06S38.38,94.33,37.73,96.74s1.42,7.55,10.76,10.91c6.39,2.3,12.45,1.8,25.18,4.64a26.89,26.89,0,0,0,27-9.07S76.36,50.31,62.72,56.61Z"/>
        <path class="e1aa90d4-fadd-44d1-b778-e1fefe0b087f" d="M63.21,57.53c1,2.57,1.41,6.67-.65,12,1.66.37,5.88,1.72,7.6,4.83-2.25-1.15-6.88-3.4-12.5-2.25,1.6.65,7.67,5.48,8.08,10-2.09-2.33-7.84-8.74-13-8.55-1.22-.38-1.07-1.33-1.07-1.33a4.12,4.12,0,0,1,3.13,0c1-1.11,4-1.95,5.83-1.7C62,68.65,64,60.62,63.21,57.53Z"/>
        <g>
          <g>
            <path class="a84cf71c-f471-4555-b028-f0d75051ffb6" d="M96.28,60.47c8.83-.65,14.82,11.12,12,20.82-1.67,5.28-18.61,7.82-22.12,1C84.72,76.83,86.24,61,96.28,60.47Z"/>
            <path d="M96.13,63.09c8.15-.58,13.69,10,11.09,18.72-1.54,4.75-17.18,7-20.43.87C85.45,77.8,86.85,63.56,96.13,63.09Z"/>
            <path class="e3387646-0c90-458b-adde-7f2bdae200aa" d="M96.07,64.49c8-.54,13.38,9.4,10.84,17.59-1.5,4.47-16.8,6.61-20,.82C85.63,78.31,87,64.93,96.07,64.49Z"/>
            <path class="b9b7827a-af72-40a8-a4ee-b111b9fb8908" d="M87.17,73.69a20.27,20.27,0,0,0-.23,9.21c3.17,5.79,18.47,3.65,20-.82a15.08,15.08,0,0,0-.07-8.85C105.23,81.22,89.62,82.66,87.17,73.69Z"/>
            <g>
              <path class="aa024d18-d9db-419f-b8c3-335e1ae57102" d="M103.68,77.5c0,4.07-2.48,7.37-5.53,7.37s-5.53-3.3-5.53-7.37,2.48-7.38,5.53-7.38S103.68,73.42,103.68,77.5Z"/>
              <path class="f2bafa1b-164b-4ca0-bb3a-560c9c5eed01" d="M92.64,77c0,.15,0,.3,0,.46,0,4.07,2.48,7.37,5.53,7.37s5.53-3.3,5.53-7.37a9.49,9.49,0,0,0-.18-1.87C102.4,80.08,94.9,82.33,92.64,77Z"/>
              <path d="M102.4,78.73c0,2.64-1.61,4.79-3.59,4.79s-3.59-2.15-3.59-4.79,1.61-4.79,3.59-4.79S102.4,76.08,102.4,78.73Z"/>
              <path class="e3387646-0c90-458b-adde-7f2bdae200aa" d="M99.42,75.92a1.54,1.54,0,1,1-1.52-1.77A1.67,1.67,0,0,1,99.42,75.92Z"/>
              <path class="bf697dd7-9c37-4c88-951f-79a5045800fe" d="M98.15,85.2c-3.23,0-5.85-3.45-5.85-7.7s2.62-7.71,5.85-7.71S104,73.25,104,77.5,101.38,85.2,98.15,85.2Zm0-14.75c-2.87,0-5.2,3.16-5.2,7s2.33,7,5.2,7,5.2-3.17,5.2-7S101,70.45,98.15,70.45Z"/>
            </g>
            <path d="M95.71,86.74c-4.47,0-7.77-1.34-9-3.68l0-.07c-.94-3.3-.54-10.54,2.67-15a8.51,8.51,0,0,1,6.75-3.81c.21,0,.43,0,.64,0a10.21,10.21,0,0,1,8.23,4.5,15.69,15.69,0,0,1,2.3,13.53C106.26,85,100.61,86.74,95.71,86.74Zm-8.46-4c1.17,2.1,4.25,3.31,8.46,3.31,5.15,0,10.14-1.88,10.89-4.11A15,15,0,0,0,104.4,69a9.59,9.59,0,0,0-7.71-4.24l-.6,0a7.92,7.92,0,0,0-6.26,3.54C86.87,72.49,86.34,79.52,87.25,82.78Z"/>
          </g>
          <path class="bc79926c-98ce-432a-907d-ac111b527d27" d="M106.07,66c-.08-.21-2.67-5.15-8.21-5.25s-7.54,3.69-7.61,3.85c0,0,1.62-4.62,7.62-4.51S106.07,66,106.07,66Z"/>
        </g>
        <path class="a84cf71c-f471-4555-b028-f0d75051ffb6" d="M97.69,99.74a24,24,0,0,1-23.8,6.92c-11.9-3-22.39-2.64-33.43-9.18C38.6,101,38,95.91,37.73,96.74c-.66,2.4,1.42,7.55,10.76,10.91,6.39,2.3,12.45,1.8,25.18,4.64a26.89,26.89,0,0,0,27-9.07A6.55,6.55,0,0,1,97.69,99.74Z"/>
        <path class="bc79926c-98ce-432a-907d-ac111b527d27" d="M80,113.34a29.38,29.38,0,0,1-6.44-.73c-6-1.34-10.58-1.94-14.27-2.43A51.69,51.69,0,0,1,48.38,108c-9.39-3.38-11.71-8.62-11-11.31.67-2.47,11.87-22.53,12.59-23.6.83-1.24,2.74-1.73,4.8-1.24,1.68-1.27,4.35-1.49,5.62-1.52,2-3.62,2.86-9.27,2.33-12.15l.64-.12c.56,3-.32,9-2.49,12.76l-.1.16h-.18c-1.14,0-3.95.18-5.53,1.48l-.13.11-.17,0c-1.84-.49-3.55-.12-4.25.93s-11.83,21-12.5,23.4,1.65,7.32,10.56,10.52a50.58,50.58,0,0,0,10.82,2.19c3.7.49,8.3,1.1,14.32,2.44A26.77,26.77,0,0,0,100.42,103l.52.39A27.53,27.53,0,0,1,80,113.34Z"/>
        <path class="bc79926c-98ce-432a-907d-ac111b527d27" d="M100.4,103.64a6.55,6.55,0,0,1-2.93-4.57,8.5,8.5,0,0,0,3.28,4,27.68,27.68,0,0,0,5.82,2.66A16.76,16.76,0,0,1,100.4,103.64Z"/>
      </g>
      <path class="bc79926c-98ce-432a-907d-ac111b527d27" d="M65.49,81.48c0-.06-3.22-5.4-8.13-8a11.49,11.49,0,0,0-3.79-1.24l.09-.65A12.24,12.24,0,0,1,57.81,73C62.77,75.64,65.49,81.48,65.49,81.48Z"/>
      <path class="bc79926c-98ce-432a-907d-ac111b527d27" d="M69.31,73.54a16.6,16.6,0,0,0-10-2.53l-.06-.65A14.46,14.46,0,0,1,69.31,73.54Z"/>
      <path class="bc79926c-98ce-432a-907d-ac111b527d27" d="M62.82,58.62c-.29-2.29-1.15-3.2-3.16-3.36s-4.25,2.28-4.27,2.3,2.09-3.12,4.32-3,3.43,1.32,3.76,3.92Z"/>
      <g>
        <path class="bcbfe644-d1ad-4c9d-a721-641bbd268865" d="M46,70.39C51,70,54,72.93,59.88,80.58s9.75,15.92,5.9,21.66-8.87,4.07-11.12,3.33-5.15-2.17-8-2.44c-3-.29-7.64.2-9.88-3.79s-2-10.48-.33-16.27S41.11,71,46,70.39Z"/>
        <path class="bcd6c477-759b-40d6-a189-aedb41a0c828" d="M46.25,71.93c6.62-.29,11.54,8.88,17.11,14.13.29.23.3.39.61.57a55,55,0,0,0-4.09-6C54,72.93,51,70,46,70.39c-4.92.65-7.92,6.89-9.56,12.68l-.21.77C37.85,80.26,42.29,72.1,46.25,71.93Z"/>
        <path class="b5c2c8ba-c334-466d-97b9-fb712c15896a" d="M63,85.05c1.49,3.62,1.51,8-1.59,10.14-2.62,1.64-6.71,1-9-1.28-3.85-2.65-5.73-2.08-8.36,0-2.94,2.3-8.23,1.61-8.77-4.42-.32,3.76.08,7.34,1.51,9.88,2.24,4,6.83,3.5,9.88,3.79,2.83.27,5.7,1.69,8,2.44s7.27,2.41,11.12-3.33C68.89,97.61,67,91.32,63,85.05Z"/>
        <path class="a57bd419-4a51-4021-9dbf-0a87d54c1569" d="M58.77,106.71a13.36,13.36,0,0,1-4.2-.82c-.66-.22-1.35-.48-2.07-.76a23,23,0,0,0-5.85-1.67c-.47,0-1-.07-1.53-.1-2.95-.15-6.63-.34-8.61-3.85C34,95.11,34.71,88.09,36.16,83c1.55-5.51,4.52-12.21,9.83-12.92.33,0,.64,0,.94,0,4.49,0,7.57,3.06,13.21,10.36,7.24,9.39,9.28,17,5.91,22C64.14,105.26,61.69,106.71,58.77,106.71Zm-11.84-36a8.71,8.71,0,0,0-.87,0c-5.2.68-8,8.09-9.27,12.44-1.8,6.35-1.69,12.49.29,16,1.8,3.21,5.14,3.37,8.08,3.52l1.55.1a24,24,0,0,1,6,1.71c.72.28,1.4.54,2,.75a12.61,12.61,0,0,0,4,.79c2.69,0,5-1.34,6.73-4,4-6-1-14.9-5.88-21.28C54.12,73.66,51.14,70.68,46.93,70.68Z"/>
      </g>
      <g>
        <path class="b013e6d0-bac0-496e-9f94-e8cbe000f397" d="M57.38,91.15c.95,2.85.28,5.63-1.5,6.22s-4-1.24-4.93-4.08-.27-5.64,1.5-6.23S56.44,88.3,57.38,91.15Z"/>
        <path class="b044bc95-ca0a-4568-abeb-2a2cb80dc9b3" d="M57.38,91.15a6.54,6.54,0,0,0-3-3.91c1.5,1.68,2.1,3.9,1.39,5.53-1.25,2.54-4.12,1.68-5.18-1.52a8.55,8.55,0,0,0,.4,2c.95,2.84,3.16,4.67,4.93,4.08S58.33,94,57.38,91.15Z"/>
        <path class="a57bd419-4a51-4021-9dbf-0a87d54c1569" d="M50.35,92.27c-.71-4,.92-10.19.92-10.19s-1,6.15-.27,10.08Z"/>
        <path class="a57bd419-4a51-4021-9dbf-0a87d54c1569" d="M55.19,97.81c-1.81,0-3.68-1.82-4.55-4.42a7.84,7.84,0,0,1-.28-4.14,3.25,3.25,0,0,1,2-2.5,2.34,2.34,0,0,1,.79-.13c1.82,0,3.69,1.82,4.55,4.42,1,3,.24,6-1.7,6.64A2.4,2.4,0,0,1,55.19,97.81Zm-2-10.53a1.85,1.85,0,0,0-.58.09,2.62,2.62,0,0,0-1.56,2,7,7,0,0,0,.27,3.78c.76,2.3,2.41,4,3.92,4a1.66,1.66,0,0,0,.59-.1c1.6-.53,2.18-3.14,1.29-5.81C56.31,89,54.65,87.28,53.14,87.28Z"/>
      </g>
      <g>
        <path class="b013e6d0-bac0-496e-9f94-e8cbe000f397" d="M45.91,91.47c-.22,3-1.76,5.33-3.44,5.21S39.59,94,39.8,91s1.76-5.33,3.44-5.21S46.12,88.48,45.91,91.47Z"/>
        <path class="b044bc95-ca0a-4568-abeb-2a2cb80dc9b3" d="M45,87c1.7,6.86-4.65,8.42-5,2.71A11.06,11.06,0,0,0,39.8,91c-.21,3,1,5.52,2.67,5.64s3.22-2.21,3.44-5.21A7.31,7.31,0,0,0,45,87Z"/>
        <path class="a57bd419-4a51-4021-9dbf-0a87d54c1569" d="M45.6,90.48a24.73,24.73,0,0,0-2.08-8.31,18.66,18.66,0,0,1,2.73,8.28Z"/>
        <path class="a57bd419-4a51-4021-9dbf-0a87d54c1569" d="M42.59,97h-.15a2.92,2.92,0,0,1-2.31-1.92A8.27,8.27,0,0,1,39.48,91c.22-3.17,1.9-5.64,3.79-5.5a2.92,2.92,0,0,1,2.31,1.93,8.21,8.21,0,0,1,.65,4.06C46,94.59,44.41,97,42.59,97Zm.53-10.85c-1.46,0-2.8,2.2-3,4.9a7.67,7.67,0,0,0,.59,3.74,2.33,2.33,0,0,0,1.77,1.55c1.49.1,2.89-2.13,3.09-4.9A7.61,7.61,0,0,0,45,87.72a2.33,2.33,0,0,0-1.77-1.56Z"/>
      </g>
      <g>
        <path class="a2718fe0-7472-448a-b748-82ba387d867d" d="M91.86,51.93c.87-4,4-6.61,8.08-5.08,5,1.89,7,9.83,6.39,11.69C103.41,54.79,97.76,48.54,91.86,51.93Z"/>
        <path class="b6c5be12-cfd1-4167-beb5-a98da0f3cab9" d="M93.5,48.44a8.14,8.14,0,0,0-1.64,3.49c5.9-3.39,11.55,2.86,14.47,6.61a3.08,3.08,0,0,0,.12-1.14C104.84,51.68,99.67,46.08,93.5,48.44Z"/>
        <path class="a177554c-9d96-4ae5-ae06-3a49251211ee" d="M106.44,59.21l-.36-.47c-3.92-5-7.42-7.45-10.71-7.45a6.65,6.65,0,0,0-3.35.93l-.64.36.16-.72c.77-3.51,3.17-5.78,6.12-5.78a6.94,6.94,0,0,1,2.4.46c5.16,2,7.3,10.09,6.58,12.11ZM95.37,50.63c3.37,0,6.9,2.33,10.76,7.13.11-2.56-2-9-6.3-10.6a6.14,6.14,0,0,0-2.17-.42c-2.43,0-4.46,1.77-5.3,4.56A7.25,7.25,0,0,1,95.37,50.63Z"/>
      </g>
      <g>
        <path class="a2718fe0-7472-448a-b748-82ba387d867d" d="M55.46,49.15c1.49-5,5.7-10.22,10.51-9.24s3,6.5,2.89,6.89C66.73,42.7,61.28,43.63,55.46,49.15Z"/>
        <path class="b6c5be12-cfd1-4167-beb5-a98da0f3cab9" d="M57.27,45.08a17.35,17.35,0,0,0-1.81,4.07c5.82-5.52,11.27-6.45,13.4-2.35a10.8,10.8,0,0,0,.4-2.73C66.48,38.61,60.11,41.94,57.27,45.08Z"/>
        <path class="a177554c-9d96-4ae5-ae06-3a49251211ee" d="M54.8,50.22l.34-1.17c1.42-4.76,5.19-9.58,9.64-9.58a6.54,6.54,0,0,1,1.25.12,4.22,4.22,0,0,1,2.87,1.83c.79,1.25.89,3,.33,5.26,0,.08,0,.14,0,.16l-.17,1L68.57,47a4.13,4.13,0,0,0-3.87-2.36c-2.55,0-5.75,1.7-9,4.79Zm10-10.1c-3.77,0-7,3.82-8.6,7.93,3.06-2.66,6.06-4.12,8.52-4.12a4.69,4.69,0,0,1,4,2,5.65,5.65,0,0,0-.37-4.17,3.62,3.62,0,0,0-2.45-1.54A6.07,6.07,0,0,0,64.78,40.12Z"/>
      </g>
      <g>
        <path class="ebee036d-ec8f-46f6-a220-b46ed2fdcb4a" d="M183,181.83c-1.92.6-7.82,6.11-9.62,11.74-.38,1.37,3.06,2.73,5.68,2.62-.05,1.91,4.32,2.95,11.26,2.68s10.48-2.19,12-3.06,2.4-3.87,2.13-5.13-4.21-4.16-8.09-5.85S186.27,181.46,183,181.83Z"/>
        <path class="ae049ab4-b5b4-42f4-8cff-186035109fc3" d="M186.29,185.85c-4.31,4.94-7.34,9.8-5.6,12a1.81,1.81,0,0,1-1.62-1.78C179,194.79,180.45,190.39,186.29,185.85Z"/>
        <path class="ae049ab4-b5b4-42f4-8cff-186035109fc3" d="M183.68,183.36c2.21-.5,8.8.68,15,2.74-.65-.34-1.62-1-2.29-1.27-3.87-1.69-10.08-3.37-13.32-3-1.92.6-7.82,6.11-9.62,11.74a1.14,1.14,0,0,0,.47,1.11C176.55,188.93,181.48,184.2,183.68,183.36Z"/>
        <path class="a136f00d-7b4d-495a-8386-231671a69581" d="M204.44,190.68c-.23-1-2.92-3.17-6-4.84a6.46,6.46,0,0,1-.32,4.4c-3.34,6.39-11.21,7.69-18.08,7.32,1.62,1,5.3,1.51,10.33,1.31,6.93-.27,10.48-2.19,12-3.06S204.71,191.94,204.44,190.68Z"/>
        <path class="a136f00d-7b4d-495a-8386-231671a69581" d="M186.25,185.88a17.18,17.18,0,0,0-10.07,9.93,9.55,9.55,0,0,0,2.74.39C179.87,191.9,182,189.24,186.25,185.88Z"/>
        <path class="f2732133-e1d2-4096-89cd-79c70cc4954c" d="M178.85,196.68c-.42-5.28,7.44-10.83,7.44-10.83s-7.18,5.84-6.79,10.78Z"/>
        <path class="f2732133-e1d2-4096-89cd-79c70cc4954c" d="M188.23,199.24h0c-4.62,0-7.8-.66-8.95-1.85a1.75,1.75,0,0,1-.49-.86h0c-2.19,0-4.62-.87-5.43-1.94a1.22,1.22,0,0,1-.26-1.11c1.83-5.72,7.85-11.34,9.84-12H183a8.22,8.22,0,0,1,1-.06c3.5,0,9,1.59,12.45,3.08s7.94,4.55,8.27,6.08c.29,1.38-.65,4.51-2.28,5.48-1.18.7-4.75,2.82-12.12,3.11C189.63,199.23,188.91,199.24,188.23,199.24Zm-8.8-3.39v.35a1,1,0,0,0,.33.74c1,1,4.1,1.64,8.48,1.64h0c.67,0,1.38,0,2.1,0,7.21-.28,10.67-2.34,11.81-3,1.32-.78,2.22-3.63,2-4.78s-4-3.91-7.9-5.62c-3.35-1.47-8.76-3-12.18-3a9.18,9.18,0,0,0-.94,0c-1.87.62-7.65,6.13-9.38,11.52a.62.62,0,0,0,.16.53c.71.93,3.2,1.75,5.2,1.67Z"/>
      </g>
      <g>
        <path class="ebee036d-ec8f-46f6-a220-b46ed2fdcb4a" d="M119.61,185.32c3.19.62,12.76,4.29,18,8.54.87,1.21-1.34,5-2.57,6-2.25,1.8-6.18,2.41-11.06,2.82s-9.87.29-9.54-2c-2.5-.81-4.84-1.18-5.13-2.62S116.38,184.92,119.61,185.32Z"/>
        <path class="ae049ab4-b5b4-42f4-8cff-186035109fc3" d="M121.24,191.22c-1,1.35-7.72,9.37-5.29,11.09a1.44,1.44,0,0,1-1.54-1.67C114.75,198.48,117.27,194.58,121.24,191.22Z"/>
        <path class="ae049ab4-b5b4-42f4-8cff-186035109fc3" d="M119.22,186.69c1.7-.3,9,2.51,13.42,3.92a55.83,55.83,0,0,0-13-5.29c-3.23-.4-10.61,11.27-10.33,12.7a1.44,1.44,0,0,0,.32.64C111.68,194.72,116.65,187.15,119.22,186.69Z"/>
        <path class="a136f00d-7b4d-495a-8386-231671a69581" d="M112.51,200.07l1.76.53c.68-3,3.46-6.4,7-9.38A13.17,13.17,0,0,0,112.51,200.07Z"/>
        <path class="a136f00d-7b4d-495a-8386-231671a69581" d="M137.58,193.86a34.9,34.9,0,0,0-5.26-3.43c-.4,7.71-9,11.85-16.79,11.79,1.71.74,5.09.71,8.42.43,4.88-.41,8.81-1,11.06-2.82C136.24,198.84,138.45,195.07,137.58,193.86Z"/>
        <path class="f2732133-e1d2-4096-89cd-79c70cc4954c" d="M114.07,201c0-4.36,7.17-9.81,7.17-9.81s-6.51,5.74-6.51,9.81Z"/>
        <path class="f2732133-e1d2-4096-89cd-79c70cc4954c" d="M120.06,203.16c-3,0-4.86-.42-5.61-1.29a1.54,1.54,0,0,1-.39-1l-1.17-.36c-2-.58-3.66-1.08-3.93-2.43-.22-1.13,2.77-6,5.28-9.09,1.5-1.83,3.63-4,5.2-4h.22c3.5.67,13,4.45,18.13,8.6l.06.07c1,1.43-1.35,5.38-2.63,6.41-2.27,1.81-6.13,2.47-11.24,2.9C122.52,203.1,121.21,203.16,120.06,203.16Zm-.62-17.52c-1,0-2.69,1.34-4.69,3.78-3,3.68-5.27,7.92-5.14,8.54.19,1,1.71,1.41,3.47,1.93l1.43.44.26.09,0,.27a.94.94,0,0,0,.21.76c.42.48,1.65,1.06,5.12,1.06,1.13,0,2.43-.06,3.86-.18,5-.42,8.75-1.05,10.89-2.76,1.24-1,3.13-4.51,2.53-5.49-5.35-4.34-14.89-7.88-17.79-8.43Z"/>
      </g>
    </g>
  </g>
</svg>
