<svg id="b465d3c0-3a19-4054-b6cd-3f528a333815" data-name="Layer 1" xmlns="http://www.w3.org/2000/svg" width="157.95" height="235.54" viewBox="0 0 157.95 235.54">
  <defs>
    <style>
      .bd017ace-df00-49d7-875a-2d3256ef958e {
        opacity: 0.5;
      }

      .f26001ba-0fda-473e-96e8-40e7f0165bc6 {
        fill: #fff;
      }

      .ecd2bc00-3d91-4a58-b654-879653ad2de7 {
        fill: #ffe400;
      }

      .a924db67-4799-48fa-815b-2f89d7a2bf5a {
        fill: #f0c318;
      }

      .a1321323-6a1c-4d45-8686-375085a48098 {
        fill: #ffcc05;
      }

      .b7b94f1a-5c95-4645-a9b6-1fe95e388184 {
        fill: #fceb75;
        stroke: #a38c31;
        stroke-width: 0.81px;
      }

      .a179ce76-2a6d-47eb-8e9a-aac2ca7872fe, .ada7555a-a9e2-47a0-a31e-649ada8b28bf, .b1dffaea-2a73-4ad1-8a66-e87beaebadb4, .b3a80087-aba6-477f-838d-a6ca7ab166e5, .b41c3425-1038-49a3-ab23-79005ce01357, .b7b94f1a-5c95-4645-a9b6-1fe95e388184, .b92bec83-3020-456d-b957-3c598d0af648 {
        stroke-miterlimit: 10;
      }

      .b8023ff0-f1d6-4878-a5c0-77854f806dec {
        fill: #fdcb08;
      }

      .a179ce76-2a6d-47eb-8e9a-aac2ca7872fe, .b3a80087-aba6-477f-838d-a6ca7ab166e5, .b41c3425-1038-49a3-ab23-79005ce01357, .b92bec83-3020-456d-b957-3c598d0af648 {
        fill: none;
      }

      .a179ce76-2a6d-47eb-8e9a-aac2ca7872fe, .b41c3425-1038-49a3-ab23-79005ce01357, .b92bec83-3020-456d-b957-3c598d0af648 {
        stroke: #6c3314;
      }

      .b92bec83-3020-456d-b957-3c598d0af648 {
        stroke-width: 0.77px;
      }

      .a50fe02e-4bad-4ccc-a1e6-65740a6ecc2a {
        fill: #020202;
      }

      .ada7555a-a9e2-47a0-a31e-649ada8b28bf, .b1dffaea-2a73-4ad1-8a66-e87beaebadb4 {
        fill: #4ca5dc;
        stroke: #0c2735;
      }

      .ada7555a-a9e2-47a0-a31e-649ada8b28bf {
        stroke-width: 0.76px;
      }

      .a25f7e65-eea4-4b7a-8c85-a05792c6e8b7, .b980f4f5-1f1f-493e-afa7-4f16c5f4c4a3 {
        fill: #f9f9f9;
      }

      .b980f4f5-1f1f-493e-afa7-4f16c5f4c4a3 {
        opacity: 0.58;
      }

      .b1dffaea-2a73-4ad1-8a66-e87beaebadb4 {
        stroke-width: 0.57px;
      }

      .b711444c-e49c-4a18-b396-ea580fcd8508 {
        fill: #f37a20;
      }

      .a3a7ee2d-4772-4ba7-9b6b-e8b3f4d24039 {
        fill: #e56f25;
      }

      .beb4d0d3-282c-47ba-89e6-065eb562cd58 {
        fill: #a45125;
      }

      .bdb7adea-3bc6-4b2a-86c3-b22b50a8b926 {
        fill: #3f150b;
      }

      .a2cb1aba-aab4-41c1-96a9-e2c067e4c7a8 {
        fill: #f6aeb7;
      }

      .fb519866-c032-4137-831b-939733e9a6d6 {
        fill: #e17b7a;
      }

      .f23b5f36-beed-42c3-b94d-a23b28caf882 {
        fill: #bb5427;
      }

      .b3a80087-aba6-477f-838d-a6ca7ab166e5, .b41c3425-1038-49a3-ab23-79005ce01357 {
        stroke-width: 0.96px;
      }

      .a6e2b376-2aa0-4c62-b69b-616d0c8b5e13 {
        fill: #f5841f;
      }

      .b3a80087-aba6-477f-838d-a6ca7ab166e5 {
        stroke: #7d3e21;
      }

      .ac1bc518-9128-46b2-8723-b281956e4d86 {
        fill: #b55a27;
      }

      .a179ce76-2a6d-47eb-8e9a-aac2ca7872fe {
        stroke-width: 0.76px;
      }

      .a3ee136f-85f7-41a7-9920-8cfe07d52378 {
        fill: #d76d27;
      }
    </style>
  </defs>
  <g>
    <path class="bd017ace-df00-49d7-875a-2d3256ef958e" d="M105.3,233.14l-.55,0c-.33,0-.66-.07-1-.13l-.27-.05a11.65,11.65,0,0,1-6.26-3.52,28.25,28.25,0,0,1-4.4-6.08c-.21-.29-.58-.79-1.1-1.44l-.33-.38a11.7,11.7,0,0,1-1.62.16c-.51.05-1,.07-1.49.07a10.27,10.27,0,0,1-7.43-2.7,10,10,0,0,1-1.73.44,11.82,11.82,0,0,1-2.53.28c-.34,0-.7,0-1.07-.05A14.72,14.72,0,0,1,70,218l-1.44-.58a29,29,0,0,0-4.48.5,4.91,4.91,0,0,0-.5.17c-.38.14-.86.34-1.38.55-4.38,1.77-8.29,3.23-11.84,3.23a11,11,0,0,1-3.77-.63,9.37,9.37,0,0,1-2.07-1.05,2,2,0,0,1-.26-.18,8.71,8.71,0,0,1-3.62-6.32,9.3,9.3,0,0,1,.41-3.72,9.24,9.24,0,0,1,.44-6.82c0-.06.11-.24.13-.26.1-.22.21-.43.33-.64l.21-.35.18-.28c.16-.24.32-.47.52-.72a11.19,11.19,0,0,1,7.09-4,23.77,23.77,0,0,1,4.78-.42h.85c1,0,2,0,3.11.07l1.7,0c-.58-1.28-1.3-3-2.22-5.54h0a28.91,28.91,0,0,1-8.44-7A33.28,33.28,0,0,1,42,169.69c-.05-.18-.1-.37-.16-.55-8.36-13-10.06-27.42-4.62-39.7l.29-.66c.07-.17.14-.33.22-.49l.06-.13a25.65,25.65,0,0,1,4.6-6.82q.42-.44.84-.84c-4-2-7.21-5.24-8.39-9a14.07,14.07,0,0,1-.07-9.11h0a37.42,37.42,0,0,1,4.37-10.53l.55-1.13L38,90.15a54,54,0,0,1-5.23,1.57,15.18,15.18,0,0,1-3.42.74h-.16a25.39,25.39,0,0,1-4.51.41,23.72,23.72,0,0,1-4.15-.36l-.36-.06-.55-.12-.48-.11a15.09,15.09,0,0,1-3.75-1.39,15.92,15.92,0,0,1-4.83-3.58l-.18-.21a14,14,0,0,1-2.9-14.6,16.62,16.62,0,0,1,5.73-7.64c.31-.25.63-.48.95-.7l.32-.2c.35-.23.69-.43,1-.63a22.2,22.2,0,0,1,11.07-2.67,33,33,0,0,1,4.29.29,15.69,15.69,0,0,1,3.82-6.15,8,8,0,0,1-1.64-9.06c0-.11.11-.23.17-.34A8.81,8.81,0,0,1,33,43a7.94,7.94,0,0,1,2.17-5.31,8,8,0,0,1,5-6.88l.21-.3a16.71,16.71,0,0,1,8.87-7,7.65,7.65,0,0,1-.86-2.22,8,8,0,0,1,2.57-7.82A18.48,18.48,0,0,1,63.05,8.67,17.45,17.45,0,0,1,66.34,9h.1a7.8,7.8,0,0,1,.91-.58,8,8,0,0,1,7.3-.25c5.62,2.65,9.25,6.22,10.79,10.6.47.13,1,.28,1.44.43a30.77,30.77,0,0,1,14.23,9.28,33,33,0,0,1,5.16,8s0,.12.08.18c.34.72.7,1.56,1.05,2.44a46.5,46.5,0,0,1,3.74,18.41,29.6,29.6,0,0,1-1.09,8c1.35,8.56-.34,15.64-5.14,21.57-3.84,5.16-8.63,7.81-12.14,9.74l-.14.08.73,17.24c4.87,1.25,10.76,4.68,16.5,12.87a99.43,99.43,0,0,1,6.3,8.2c2.91-6.21,6.25-11,10-14.26,1.1-1.08,3.87-3.59,7.76-3.59a8.73,8.73,0,0,1,4,1c.22.11.42.23.63.35l.68-.14a8.75,8.75,0,0,1,2.16-.26,8.56,8.56,0,0,1,6.25,2.66,10,10,0,0,1,2.61,7.18l.34.17a8.5,8.5,0,0,1,3.09,2.56c5.47,6.58,2.74,17.26-9.81,38.82l-.17.27a68.21,68.21,0,0,1-8.16,11.53,45.42,45.42,0,0,1-6.38,6.25,57,57,0,0,1-26.17,12,14,14,0,0,0,.87,2.58,13.64,13.64,0,0,0,2.57.59l.38.05a48.31,48.31,0,0,1,11,2.37c3.51,1.32,5.7,3.49,6.5,6.45l0,.05a8.31,8.31,0,0,1,0,4.61,5.18,5.18,0,0,1-.17.56c0,.2.06.4.08.6a8.64,8.64,0,0,1-4,8.16,9.39,9.39,0,0,1-1.17.6,9.17,9.17,0,0,1-3.09.81l-.66,0h-.07a10.52,10.52,0,0,1-1.12-.07,9.06,9.06,0,0,1-1.51,2.76,8.73,8.73,0,0,1-6,3.25l-.23,0c-.25,0-.49,0-.74,0Z"/>
    <path class="f26001ba-0fda-473e-96e8-40e7f0165bc6" d="M100.3,228.14l-.55,0c-.33,0-.66-.07-1-.13l-.27-.05a11.65,11.65,0,0,1-6.26-3.52,28.25,28.25,0,0,1-4.4-6.08c-.21-.29-.58-.79-1.1-1.44l-.33-.38a11.7,11.7,0,0,1-1.62.16c-.51.05-1,.07-1.49.07a10.27,10.27,0,0,1-7.43-2.7,10,10,0,0,1-1.73.44,11.82,11.82,0,0,1-2.53.28c-.34,0-.7,0-1.07-.05A14.72,14.72,0,0,1,65,213l-1.44-.58a29,29,0,0,0-4.48.5,4.91,4.91,0,0,0-.5.17c-.38.14-.86.34-1.38.55-4.38,1.77-8.29,3.23-11.84,3.23a11,11,0,0,1-3.77-.63,9.37,9.37,0,0,1-2.07-1.05,2,2,0,0,1-.26-.18,8.71,8.71,0,0,1-3.62-6.32,9.3,9.3,0,0,1,.41-3.72,9.24,9.24,0,0,1,.44-6.82c0-.06.11-.24.13-.26.1-.22.21-.43.33-.64l.21-.35.18-.28c.16-.24.32-.47.52-.72a11.19,11.19,0,0,1,7.09-4,23.77,23.77,0,0,1,4.78-.42h.85c1,0,2,0,3.11.07l1.7,0c-.58-1.28-1.3-3-2.22-5.54h0a28.91,28.91,0,0,1-8.44-7A33.28,33.28,0,0,1,37,164.69c-.05-.18-.1-.37-.16-.55-8.36-13-10.06-27.42-4.62-39.7l.29-.66c.07-.17.14-.33.22-.49l.06-.13a25.65,25.65,0,0,1,4.6-6.82q.42-.44.84-.84c-4-2-7.21-5.24-8.39-9a14.07,14.07,0,0,1-.07-9.11h0a37.42,37.42,0,0,1,4.37-10.53l.55-1.13L33,85.15a54,54,0,0,1-5.23,1.57,15.18,15.18,0,0,1-3.42.74h-.16a25.39,25.39,0,0,1-4.51.41,23.72,23.72,0,0,1-4.15-.36l-.36-.06-.55-.12-.48-.11a15.09,15.09,0,0,1-3.75-1.39A15.92,15.92,0,0,1,5.6,82.26l-.18-.21a14,14,0,0,1-2.9-14.6,16.62,16.62,0,0,1,5.73-7.64c.31-.25.63-.48.95-.7l.32-.2c.35-.23.69-.43,1-.63a22.2,22.2,0,0,1,11.07-2.67,33,33,0,0,1,4.29.29,15.69,15.69,0,0,1,3.82-6.15,8,8,0,0,1-1.64-9.06c0-.11.11-.23.17-.34A8.81,8.81,0,0,1,28,38a7.94,7.94,0,0,1,2.17-5.31,8,8,0,0,1,5-6.88l.21-.3a16.71,16.71,0,0,1,8.87-7,7.65,7.65,0,0,1-.86-2.22,8,8,0,0,1,2.57-7.82A18.48,18.48,0,0,1,58.05,3.67,17.45,17.45,0,0,1,61.34,4h.1a7.8,7.8,0,0,1,.91-.58,8,8,0,0,1,7.3-.25c5.62,2.65,9.25,6.22,10.79,10.6.47.13,1,.28,1.44.43a30.77,30.77,0,0,1,14.23,9.28,33,33,0,0,1,5.16,8s0,.12.08.18c.34.72.7,1.56,1.05,2.44a46.5,46.5,0,0,1,3.74,18.41,29.6,29.6,0,0,1-1.09,8c1.35,8.56-.34,15.64-5.14,21.57-3.84,5.16-8.63,7.81-12.14,9.74l-.14.08.73,17.24c4.87,1.25,10.76,4.68,16.5,12.87a99.43,99.43,0,0,1,6.3,8.2c2.91-6.21,6.25-11,10-14.26,1.1-1.08,3.87-3.59,7.76-3.59a8.73,8.73,0,0,1,4,1c.22.11.42.23.63.35l.68-.14a8.75,8.75,0,0,1,2.16-.26,8.56,8.56,0,0,1,6.25,2.66,10,10,0,0,1,2.61,7.18l.34.17a8.5,8.5,0,0,1,3.09,2.56c5.47,6.58,2.74,17.26-9.81,38.82l-.17.27a68.21,68.21,0,0,1-8.16,11.53,45.42,45.42,0,0,1-6.38,6.25,57,57,0,0,1-26.17,12,14,14,0,0,0,.87,2.58,13.64,13.64,0,0,0,2.57.59l.38.05a48.31,48.31,0,0,1,11,2.37c3.51,1.32,5.7,3.49,6.5,6.45l0,.05a8.31,8.31,0,0,1,0,4.61,5.18,5.18,0,0,1-.17.56c0,.2.06.4.08.6a8.64,8.64,0,0,1-4,8.16,9.39,9.39,0,0,1-1.17.6,9.17,9.17,0,0,1-3.09.81l-.66,0h-.07a10.52,10.52,0,0,1-1.12-.07,9.06,9.06,0,0,1-1.51,2.76,8.73,8.73,0,0,1-6,3.25l-.23,0c-.25,0-.49,0-.74,0Z"/>
    <g>
      <path class="ecd2bc00-3d91-4a58-b654-879653ad2de7" d="M53.09,118.85s-10.42-3.46-14.81,12.6c-4.58,16.72,8.78,33.11,8.78,33.11Z"/>
      <path class="ecd2bc00-3d91-4a58-b654-879653ad2de7" d="M113.74,146.52s4.51-18.08,13.3-25.11-6.15,25.09-6.15,25.09,10.54-25.09,14.94-25.09c5.89,0-8.79,29.1-8.79,30.11S136.92,129,142,130.44c2.24.66-2.13,16.29-23.33,45.63l-10.07-4.48.84-23.05A6.34,6.34,0,0,0,113.74,146.52Z"/>
      <path class="ecd2bc00-3d91-4a58-b654-879653ad2de7" d="M62.88,90.3s-7,17.06-15.82,43.15c-8.18,24.3-4.24,48.79,33.67,49.68,0,0,40.56,2.64,41.91-14.55l-17.57-29.11L84.85,120.41s-14.94-5-5.27-33.12Z"/>
      <path class="a924db67-4799-48fa-815b-2f89d7a2bf5a" d="M78.68,88.07s-4.12,12.13-2.34,20.25,6.23,10.13,6.23,10.13l-9.08,5.45s-5.36-16.82.3-33.15A46.58,46.58,0,0,0,78.68,88.07Z"/>
      <path class="a1321323-6a1c-4d45-8686-375085a48098" d="M44.58,162s15.87,17.21,33.51,17.64c6.1.15,15.87.88,21.7-5l21.65-18.08,4.72,2s15.82-15,15.82-28.1c0,0,3.59,1.8-2.16,14.45s-11.49,23.61-18.53,29.42c0,0-13.23,12.34-30.86,13.22C84.27,187.84,49.87,185.77,44.58,162Z"/>
      <path class="b7b94f1a-5c95-4645-a9b6-1fe95e388184" d="M114.46,148.39A94,94,0,0,0,126.6,159c4.39,3,4.83,10.54-10.11,4.52,0,0,14.94,7,0,7l-6.15-1s18.9,9.53-10.55,5c0,0-11.86-1.51-18-12.55l11.79-15.53Z"/>
      <path class="b8023ff0-f1d6-4878-a5c0-77854f806dec" d="M74.31,142.49s-4.4-22.08,7-25.09c0,0,7.91-5,23.73,18.06,0,0,7.91,12,11.42,15s7.91,12.05-7.91,9c0,0,10.55,10-7,6,0,0,4.4,16.05-16.59.94C85,166.51,77,159.55,74.31,142.49Z"/>
      <path class="ecd2bc00-3d91-4a58-b654-879653ad2de7" d="M61.44,93.72a42.42,42.42,0,0,0,16.68-5.58c12.13-7,22.15-11.92,18.68-28.32,0,0,3.88-7.25-1.51-22S78.61,21.07,72.72,20.56c0,0,3.22-5.59-6.49-10.16,0,0-.38,3,2.57,7.11,0,0-7.85-10.67-17.66-3.05,0,0,9.81,2.55,11.28,4.58,0,0-7.36-2-9.81,3.55,0,0,5.89.51,7.85,1.53a5.09,5.09,0,0,0-4.91,2.54s-13.73-6.1-15.7,10.16l1,10.16-.5,5.08S29.06,56.64,35,65.27L56.53,92.2Z"/>
      <path class="a924db67-4799-48fa-815b-2f89d7a2bf5a" d="M96,41.17s1.76,15.47-2.16,18c0,0,2.72,21.71-27.1,30.41l-1,3.2s8-1.61,13.89-5.67c0,0,10.3-5.59,12.75-8.64s7.08-7.25,4-18.61C96.37,59.87,100.6,54.66,96,41.17Z"/>
      <path class="b92bec83-3020-456d-b957-3c598d0af648" d="M41.93,30c6-7.68,13.62-3.36,13.62-3.36a5.09,5.09,0,0,1,4.91-2.54c-1.47-1-7.85-1.53-7.85-1.53C55.06,17,62.42,19,62.42,19c-2-2-11.28-4.58-11.28-4.58C60,6.84,68.57,17.2,68.57,17.2a10.29,10.29,0,0,1-2.34-6.8c9.71,4.57,6.49,10.16,6.49,10.16s14.72,0,21.29,14.23c7.23,15.66,2.79,25,2.79,25a29.47,29.47,0,0,1,.46,9C94.33,81.5,85.18,83.43,80.08,87.12s-14.85,6.12-14.85,6.12L59.9,89.91,35.56,66a8.1,8.1,0,0,1-2.23-6.55c.33-4.28,6.26-7,6.26-7l1-7.46s-.26-2.55-.62-6.82C40,38.14,39.65,32.93,41.93,30Z"/>
      <g>
        <path class="a50fe02e-4bad-4ccc-a1e6-65740a6ecc2a" d="M74.19,37.84s4.42.5,6.87-3.05a6.84,6.84,0,0,1-4.9,4.06s-2,.51-2.46,0S74.19,37.84,74.19,37.84Z"/>
        <path class="a50fe02e-4bad-4ccc-a1e6-65740a6ecc2a" d="M75.17,41.39s5.4.51,7.36-1.52c0,0-.49,3.05-6.37,2.54Z"/>
        <path class="a50fe02e-4bad-4ccc-a1e6-65740a6ecc2a" d="M76.65,44.44A5.07,5.07,0,0,0,82,46a4.43,4.43,0,0,1-5.39-.51Z"/>
      </g>
      <ellipse class="a924db67-4799-48fa-815b-2f89d7a2bf5a" cx="67.06" cy="48.66" rx="9.26" ry="15.43"/>
      <ellipse class="a50fe02e-4bad-4ccc-a1e6-65740a6ecc2a" cx="68.31" cy="48.76" rx="8.83" ry="14.99"/>
      <ellipse class="f26001ba-0fda-473e-96e8-40e7f0165bc6" cx="68.31" cy="49.78" rx="7.85" ry="13.46"/>
      <g>
        <ellipse class="ada7555a-a9e2-47a0-a31e-649ada8b28bf" cx="69.83" cy="53.46" rx="7.62" ry="5.98" transform="translate(6.26 114.23) rotate(-81.15)"/>
        <ellipse cx="69.83" cy="53.46" rx="5.59" ry="4.39" transform="translate(6.26 114.23) rotate(-81.15)"/>
        <ellipse class="a25f7e65-eea4-4b7a-8c85-a05792c6e8b7" cx="73.41" cy="54.84" rx="1.3" ry="1.56" transform="translate(4.11 114.78) rotate(-77.62)"/>
        <ellipse class="b980f4f5-1f1f-493e-afa7-4f16c5f4c4a3" cx="71.63" cy="48.64" rx="2.13" ry="2.5" transform="translate(8.55 107.94) rotate(-77.41)"/>
      </g>
      <ellipse class="a924db67-4799-48fa-815b-2f89d7a2bf5a" cx="46.6" cy="45.66" rx="14.79" ry="6.16" transform="translate(-10.4 77.41) rotate(-73.54)"/>
      <g>
        <path class="a50fe02e-4bad-4ccc-a1e6-65740a6ecc2a" d="M44.66,36.14s-4.66.49-6.52-3c0,0,.43,3,4.3,3.93,0,0,1.93.5,2.53,0S44.66,36.14,44.66,36.14Z"/>
        <path class="a50fe02e-4bad-4ccc-a1e6-65740a6ecc2a" d="M43.31,39.61s-5.68.5-7.33-1.47c0,0-.07,3,6.12,2.46Z"/>
        <path class="a50fe02e-4bad-4ccc-a1e6-65740a6ecc2a" d="M41.39,42.58a6.63,6.63,0,0,1-6,1.47,5.09,5.09,0,0,0,5.83-.48Z"/>
      </g>
      <ellipse class="a50fe02e-4bad-4ccc-a1e6-65740a6ecc2a" cx="45.71" cy="46.54" rx="14.79" ry="6.16" transform="translate(-11.87 77.2) rotate(-73.54)"/>
      <ellipse class="f26001ba-0fda-473e-96e8-40e7f0165bc6" cx="45.38" cy="47.48" rx="13.28" ry="5.48" transform="translate(-13.05 77.48) rotate(-73.47)"/>
      <g>
        <ellipse class="b1dffaea-2a73-4ad1-8a66-e87beaebadb4" cx="45.63" cy="50.12" rx="6.99" ry="3.6" transform="translate(-14.1 82.17) rotate(-75.9)"/>
        <ellipse cx="45.63" cy="50.12" rx="5.13" ry="2.65" transform="translate(-14.1 82.17) rotate(-75.9)"/>
        <ellipse class="b980f4f5-1f1f-493e-afa7-4f16c5f4c4a3" cx="47.61" cy="46.04" rx="2" ry="1.48" transform="matrix(0.04, -1, 1, 0.04, -0.33, 91.73)"/>
        <ellipse class="a25f7e65-eea4-4b7a-8c85-a05792c6e8b7" cx="47.97" cy="51.07" rx="1.1" ry="0.8" transform="translate(-12.79 85.96) rotate(-76.66)"/>
      </g>
      <path class="b711444c-e49c-4a18-b396-ea580fcd8508" d="M77.07,68.87c-.58-4.88-6-4.75-11.79-4.37S54.12,56.38,52,54.26,45.37,53,41.06,59s-9.51,6.5-9.51,6.5-11.8-4.5-18.39.62-1.65,10.75-1.65,10.75c3.42,3.74,9.38,2.87,12.17,2.62s6.6-3.12,10-2.62,11.42,3.87,11.42,3.87c-.13,6.74-16.52,24.63.25,27.6,16.23,2.88,19.57-11.75,21.35-20.12S78,76.51,77.07,68.87Z"/>
      <path class="a3a7ee2d-4772-4ba7-9b6b-e8b3f4d24039" d="M14.26,78.8s-.86-5.14,8.81-5.65,22.4,6.48,29.28,4.51,13.77-3.29,16.45-9.85a2.51,2.51,0,0,1,3.43-1,8.7,8.7,0,0,0,4.42.48s1.1,1.55-.19,5.87-7.6,7.89-9.1,13S64.83,99,60.93,103.22,55,109,47,108.71s-9.5-4.57-9.55-6.35.35-5.34,3.36-10.8S45,82.48,45.12,80.74c0,0-11.19-4.35-12.64-4.32a46.65,46.65,0,0,1-9.38,3.12C18.27,80.51,14.67,79.12,14.26,78.8Z"/>
      <path class="beb4d0d3-282c-47ba-89e6-065eb562cd58" d="M71,69.22a29.19,29.19,0,0,1-12.5,8.25c-7.85,2.54-10.31,3-18.16.5s-12.26-4.57-21.58-3c0,0-.84,1.15,1.3.83s12.08.08,17.41,2.17,6.68,3.52,12.14,3,14.21-4.37,16.94-6.48a53.35,53.35,0,0,0,5.13-4.59Z"/>
      <path class="bdb7adea-3bc6-4b2a-86c3-b22b50a8b926" d="M48.09,81S46.66,89.47,43,95.09s1,10.77,7.52,9.18,8.75-5.15,13.22-20.14c0,0,2.28-8.81,6.09-12.18C69.78,72,58,81.5,48.09,81Z"/>
      <path class="b92bec83-3020-456d-b957-3c598d0af648" d="M18.72,75.8s12.51-.61,17.49,1.66l8.91,3.28s4.75.65,7.63-.18,13.31-3.77,18.93-10.65L69.8,68s3.2,2.34,2.94,3.1"/>
      <path class="b92bec83-3020-456d-b957-3c598d0af648" d="M28.59,64.61s7.79,3.33,11,3.33"/>
      <path class="a2cb1aba-aab4-41c1-96a9-e2c067e4c7a8" d="M46.17,88.25s2.24-3.6,7.06-1.64a7.56,7.56,0,0,1,9.62-1,50.19,50.19,0,0,1-2.4,7.86c-1.61,3.93-4,9.82-10.43,10.8s-8.83-2.94-8-6.87S44.73,94.81,46.17,88.25Z"/>
      <path class="fb519866-c032-4137-831b-939733e9a6d6" d="M47,87.46s3.88-.65,4.16,1.41l1.47-1.77s8.2-2.24,7.06,8l1.87-4.8,1.34-3.68.29-.81a5.92,5.92,0,0,0-3.75-1.76,7.13,7.13,0,0,0-5.77,2l-.39.5A5.49,5.49,0,0,0,47,87.46Z"/>
      <path class="b92bec83-3020-456d-b957-3c598d0af648" d="M48.09,81s-2.39,10.28-4.7,13.43-2.8,8.36,2.35,9.82a10.8,10.8,0,0,0,12.4-5.53S60.69,93,63.4,85.1a67.8,67.8,0,0,1,5.15-11.95"/>
      <path class="b92bec83-3020-456d-b957-3c598d0af648" d="M46,88.39a6.24,6.24,0,0,1,7.24-1.78"/>
      <path class="b92bec83-3020-456d-b957-3c598d0af648" d="M50.4,89.91s2.75-4.63,6.38-5.58a6.77,6.77,0,0,1,6.07,1.3"/>
      <path class="f23b5f36-beed-42c3-b94d-a23b28caf882" d="M37.4,99.82A9.39,9.39,0,0,0,47,106.16s6.11,1.24,10.07-2.27c3.44-3,5.84-7.35,8.07-16.89A27.36,27.36,0,0,1,75,72.13l2.14-1.69s-.29,4.84-3.58,7.2-6.46,8.33-6.84,12S64,102.91,57.54,106.7s-15.6,3.85-19.59-1.77A5.88,5.88,0,0,1,37.4,99.82Z"/>
      <path class="b92bec83-3020-456d-b957-3c598d0af648" d="M45.12,80.74a35.41,35.41,0,0,1-4.07,10.15c-3.16,5.37-4.38,10.2-3.58,13.11.66,2.37,4.35,5.27,8.52,5.37s16.58.82,20.43-17.83a22.48,22.48,0,0,1,8.12-14.76s4.49-4.94,1.82-10c0,0-2.13-4.11-9.93-2.35-6,1.35-14.22-10.22-14.22-10.22S48.64,50,42.77,56.88,34.46,66.8,27.23,64.3c0,0-8.13-2.28-13.45,1.38s-6,9.89.48,13.12,18.57-2.16,18.57-2.16"/>
      <path class="a50fe02e-4bad-4ccc-a1e6-65740a6ecc2a" d="M63,29.91s1.85-4.27,8.23-4.27,8.83,6.1,8.83,6.1-3.07-5.3-8.4-5.44S63.63,29.61,63,29.91Z"/>
      <path class="a50fe02e-4bad-4ccc-a1e6-65740a6ecc2a" d="M42.31,30.57a6.39,6.39,0,0,1,6.15-3.91c4.77,0,6.6,5.59,6.6,5.59s-2.29-4.86-6.28-5S42.76,30.3,42.31,30.57Z"/>
      <path class="b92bec83-3020-456d-b957-3c598d0af648" d="M58.74,29s-3.92,1.52-3.19-2.29"/>
      <path class="bdb7adea-3bc6-4b2a-86c3-b22b50a8b926" d="M50.65,82S38.38,98.3,47.71,104.56c0,0-10-.07-4.91-10.33A89.72,89.72,0,0,0,48.19,81Z"/>
      <path class="a1321323-6a1c-4d45-8686-375085a48098" d="M52.2,118.85s-5.46,15-6.61,19.84-2.28,16.63-.4,23.26c0,0-4.72-7.92-5.82-11.69C37.4,143.49,43.27,116.29,52.2,118.85Z"/>
      <path class="b41c3425-1038-49a3-ab23-79005ce01357" d="M44.14,160.64C37,150,34.76,137.47,40,126.77s12.25-7.92,12.25-7.92"/>
      <path class="a6e2b376-2aa0-4c62-b69b-616d0c8b5e13" d="M71,184.78s.38,3.66-2,9.4-1.78,6.38-.9,7.06,5.86,2.87,5.75,4.65c0,0-.08,1.37-4,.38-3.29-.84-1.88-2.46-8.68-1.9-5.65.47-7.72,2.93-14.63,4.24-6.06,1.15-.79-4.08-.79-4.08l.11-1.31s-3.66.21-1.62-2.45,14.89-.32,18.49-1.36c0,0,1.94-1.52,1.36-6.58a24.48,24.48,0,0,0-4.75-12.91S66.91,184.31,71,184.78Z"/>
      <path class="a1321323-6a1c-4d45-8686-375085a48098" d="M63.86,190.61s.12-1.31,1.88-.43,1.86.27,2.69-.31a1.19,1.19,0,0,1,1.77.75s1.63-4.19.79-5.84a59,59,0,0,0-8.78-3.42c-3.52-.88-2.56-1-2.56-1S63.1,188.42,63.86,190.61Z"/>
      <path class="ecd2bc00-3d91-4a58-b654-879653ad2de7" d="M75.07,146.52s4.26,10,11,10,0-10,0-10,6.5,7,11.44,5-2-10.5-2-10.5,9.62,5.55,13.13.46c0,0-.82-3.1-10.07-14.59S82.59,114.76,77,119.4,71.44,141.53,75.07,146.52Z"/>
      <path class="b3a80087-aba6-477f-838d-a6ca7ab166e5" d="M79.58,117.4s8.85-5.11,18.93,9.49c0,0,7,8.71,10.73,14.66a51.85,51.85,0,0,0,8.29,10s5.77,6.95-1.59,8.47c0,0-5.6.52-7.36-.48,0,0,4,3.77,2.91,5.9s-9.94.12-9.94.12,1.43,5.82-1.92,7.42-16-4.3-21.81-17.46C73.43,145.5,66.4,125.42,79.58,117.4Z"/>
      <path class="b41c3425-1038-49a3-ab23-79005ce01357" d="M56.48,107.74s-.88.88-4.13,10.46c-3.47,10.22-11.74,33.62-7.34,45.15,0,0,3.54,11.4,12.35,15.81,0,0,15,8.82,31.7,8.4a49,49,0,0,0,30-11.05s6.17-4.41,12.84-15.87c7-12.08,14.43-26.89,10-30.2,0,0-4.1-3.31-16.14,23.14,0,0,11-21.43,11.38-30.11S125.49,133.74,121,146.31c0,0,10.46-20.94,8.7-25.35s-14.11,15-16.13,26.23"/>
      <path class="b41c3425-1038-49a3-ab23-79005ce01357" d="M79.45,87.68s-4,10.36-2.89,20.06c0,0,1,7,4.12,9.21"/>
      <path class="a6e2b376-2aa0-4c62-b69b-616d0c8b5e13" d="M74.56,184s8.08,8.15,11.09,13.26c0,0,2.58,4.79,1.4,5.7s-5.46,3-5.86,4.39,1.7,1.78,5.43.91c0,0,2.45-.75,3-.12a31.57,31.57,0,0,1,4.74,5.54c1.39,2.4,3.54,6.36,6.19,6.45,0,0,1.16,0,.94-2.14-.24-2.33,1.53-6,7.12-4.18a3.11,3.11,0,0,0,2.3.07c.85-.53-.62-3-1.89-3.49,0,0,2.13,0,2.52-1.24s-4.88-2.65-10.68-3.31-7.8-2.43-8.58-3.77a19.06,19.06,0,0,1-2.83-8.77c-.09-3.92,1.18-6,2.71-8.42l3.53-2.65-7-1.76H79l-7.06-.88Z"/>
      <path class="a1321323-6a1c-4d45-8686-375085a48098" d="M82.6,193s-.11-1,1.66-.16a1.92,1.92,0,0,0,2.64-.88s1.69-1.76,2.61,0a9.65,9.65,0,0,1,1.73-5.5,21.28,21.28,0,0,1,4.48-4.2l.88-1.76-6.69-.56-4.77.56-10.43-.88-3.95-.44,2.72,5.05,3.7,2.54A56.25,56.25,0,0,1,82.6,193Z"/>
      <path class="ac1bc518-9128-46b2-8723-b281956e4d86" d="M101.5,217.51s.15-4.62,5.56-4.07a83.07,83.07,0,0,0-8.69-3s-1.77,0-.89.88A42.64,42.64,0,0,1,101.5,217.51Z"/>
      <path class="ac1bc518-9128-46b2-8723-b281956e4d86" d="M45.75,204.53A6,6,0,0,1,49,203.41a7.88,7.88,0,0,0-3.13-.19Z"/>
      <path class="a179ce76-2a6d-47eb-8e9a-aac2ca7872fe" d="M109.05,210.4a49.56,49.56,0,0,0-7.6-2.15"/>
      <path class="a3ee136f-85f7-41a7-9920-8cfe07d52378" d="M89.31,207.94s5.48,5.3,7.93,9.86c0,0,1.15,2.33,3.34,2.34l.72-.37a13.06,13.06,0,0,1-4.7-4c-1.76-2.65-5-7-5-7S89.08,206.31,89.31,207.94Z"/>
      <path class="a3ee136f-85f7-41a7-9920-8cfe07d52378" d="M97.24,210.4s-.64-.82,1.13-.82S111,213.64,111,213.64l-.83.5-2.15-.57-7-2.23Z"/>
      <path class="a3ee136f-85f7-41a7-9920-8cfe07d52378" d="M44,208.52s8.71-4.22,14.37-4.67,7.82-.51,12.91,1.73c0,0,1.84,1,2.58-.12,0,0,.27,1.07-2.58,1.27l-2.59-.88a30.51,30.51,0,0,0-3.7-1.37,30.43,30.43,0,0,0-8.39.86C54.28,206.05,46,210.12,44,208.52Z"/>
      <path class="a3ee136f-85f7-41a7-9920-8cfe07d52378" d="M44,201.71s1.51.81,5.92.81c0,0,1.76,0,0,.87l-2.15-.25-3.14,0S43.33,202.66,44,201.71Z"/>
      <path class="a3ee136f-85f7-41a7-9920-8cfe07d52378" d="M83.08,193.07a26.63,26.63,0,0,1,4.73,6.8c1.74,3.54-1,4-1,4s-5.83,3.8-5.53,4.33l-.13-.82a17.17,17.17,0,0,1,3.6-2.83l3-2-1.22-3.35Z"/>
      <path class="a3ee136f-85f7-41a7-9920-8cfe07d52378" d="M70.2,190.62s-2.52,2.24-3.58,7.49c-.88,4.41,6.85,6.72,6.85,6.72a4.72,4.72,0,0,0-2-1.66c-1.36-.65-3.62-1.8-3.81-2.55s-1,.18-.14-2.49,2.72-7.26,2.72-7.26Z"/>
      <path class="a179ce76-2a6d-47eb-8e9a-aac2ca7872fe" d="M73.81,182.76s6.92,7.42,8.79,10.22c1.28,1.92,3.81,5,4.5,7.69,0,0,.68,1.85,0,2.3-1,.58-5.4,3.05-5.86,4.39s1.55,1.28,3.19,1.31,4.19-1.28,5.12-.63a40.2,40.2,0,0,1,5.11,6c1.11,1.68,3.45,5.15,4.49,5.62s2.89,1.34,2.4-2.18c0,0-3.49-5.75-4.2-6.4,0,0-1.14-1.09,2.34-.3,0,0,9.36,3.11,10,3.27,1.48.35,2-.9.6-2.3a11,11,0,0,1-1.22-1.38s2.88-.16,2.49-1.59-8.57-2.72-10.65-3-7.15-1.12-8.58-3.77-4.6-9.89-.81-16l3-4.21"/>
      <path class="a179ce76-2a6d-47eb-8e9a-aac2ca7872fe" d="M71.23,185s-.37,5.34-1.39,6.79-2.26,6.12-2.52,7.31,1,2.64,3.44,3.68,3.34,2.78,3,3.08c-.57.6-2.33,1.75-5.75-.35-2.76-1.69-7.87-1.63-12.37.1s-7.26,2.77-10.29,3.13-1.07-2.54-1.07-2.54A7.13,7.13,0,0,1,49,203.41c3.08-.45-3.77-.2-3.77-.2s-2.33-.3-1.26-2,4.57-1.73,5.9-1.73,11,.21,11,.21a2.64,2.64,0,0,0,2.92-2.14c.61-2.49.69-6.69-.23-7.68s-3.82-9.22-3.82-9.22"/>
      <path class="a3ee136f-85f7-41a7-9920-8cfe07d52378" d="M100.13,207.81l8.92,2.59s2,0,1.8-.43S101,206.93,100.13,207.81Z"/>
    </g>
  </g>
</svg>
