<svg id="abddd162-4938-4b26-8a2b-97e1adde4d72" data-name="Layer 1" xmlns="http://www.w3.org/2000/svg" width="237.88" height="151.73" viewBox="0 0 237.88 151.73">
  <defs>
    <style>
      .e7013348-fcf8-4e90-84d0-06e54b112a60 {
        opacity: 0.5;
      }

      .a56b9cfc-5b7e-46fb-83f0-dfb4293d08d6 {
        fill: #fff;
      }

      .e21bde6f-4a7a-47f5-ba24-9df9e612ad5c {
        fill: #e57f01;
      }

      .bb6bc314-07b4-421b-aa93-e0c211fcc2bb, .e21bde6f-4a7a-47f5-ba24-9df9e612ad5c {
        stroke: #c67b0c;
      }

      .b84a3889-8113-4918-9463-10e1d330cbe4, .bb6bc314-07b4-421b-aa93-e0c211fcc2bb, .e21bde6f-4a7a-47f5-ba24-9df9e612ad5c {
        stroke-miterlimit: 10;
        stroke-width: 2px;
      }

      .bb6bc314-07b4-421b-aa93-e0c211fcc2bb {
        fill: #faa800;
      }

      .b84a3889-8113-4918-9463-10e1d330cbe4 {
        fill: #a53c0d;
        stroke: #a04100;
      }

      .bd5255b4-e2fd-4d49-8e03-71a228c1a7c0 {
        fill: #fcd057;
      }
    </style>
  </defs>
  <g>
    <path class="e7013348-fcf8-4e90-84d0-06e54b112a60" d="M119.88,148.85a8,8,0,0,1-6.8-3.78l-.08-.13a8,8,0,0,1-11.44-1.83,8,8,0,0,1-4.76,1.58,8.44,8.44,0,0,1-1.86-.22,8,8,0,0,1-2.84-1.31l-.16.19a8,8,0,0,1-6.11,2.85,7.47,7.47,0,0,1-1.41-.13l-5.3-.94a8,8,0,0,1-3.89-1.88l-1.14.46a7.93,7.93,0,0,1-3,.6,8,8,0,0,1-7.74-6c-1.27.31-2.61.57-4,.77a8.56,8.56,0,0,1-1.12.08,8,8,0,0,1-7.43-5,2,2,0,0,1-.1-.26l-6.46-1.77a8,8,0,0,1-4.4-3.06A8,8,0,0,1,36.23,128l-.18-.11-2.61.85a8,8,0,0,1-7.61-1.47,8,8,0,0,1-6.44-7.2,41.13,41.13,0,0,1,.45-8.82,8,8,0,0,1-3.5-5.48,8.28,8.28,0,0,1-1.6-.92,8,8,0,0,1-2.57-9.59l1.26-2.92A8,8,0,0,1,11.54,81.8l.39-.61a9.15,9.15,0,0,1-.7-1.12A8,8,0,0,1,14,69.71a20.6,20.6,0,0,0,3.72-3.34,8,8,0,0,1-2.39-11.73l8-10.69A8,8,0,0,1,23.64,40c1.63-5.1,6.8-9.11,12.28-12a8,8,0,0,1,5-5.1c1.53-.54,3.15-1,4.8-1.44,1.82-.47,3.74-.86,5.68-1.18l1.07-.17c2.09-.32,4.22-.54,6.36-.68a8,8,0,0,1,5.77-2.87c2.16-.1,4.33-.16,6.47-.2a8,8,0,0,1,12.16-5.29l6,3.83,5-3.58a8,8,0,0,1,10.62,1.15A49.29,49.29,0,0,1,122,7.89h.47a8,8,0,0,1,6.84,3.84l2.5,0c1.47,0,3,0,4.42.05l5.36-1.25a7.59,7.59,0,0,1,1.82-.21,8,8,0,0,1,5.47,2.16l3.05.29c2.56.28,5,.57,7.4.88a8.07,8.07,0,0,1,2.8-.51,7.52,7.52,0,0,1,.82.05l5.24.54a8,8,0,0,1,4.39,1.89l7-1.7a7.72,7.72,0,0,1,1.9-.23,8,8,0,0,1,6.78,3.75c1,.09,1.88.2,2.77.32,1.46.21,2.86.47,4.16.79.37.09.72.17,1.06.27q1.11.3,2.16.66a26,26,0,0,1,4.32,1.91A8,8,0,0,1,206.78,28a8,8,0,0,1,3.16,3.68c5.39,2.56,11,6.36,14.3,11.83a8,8,0,0,1,.86,6.22L229.61,56a8,8,0,0,1,0,9.29c-.16.22-.33.44-.51.65L233,78.3a8,8,0,0,1-7.63,10.4h-.09l1.57,6.81a8,8,0,0,1-3.07,8.25v.41a8,8,0,0,1-8,8.35,8.13,8.13,0,0,1-1.3-.1l0,5.3a8,8,0,0,1-9.77,7.85l-.78,2a8,8,0,0,1-7.47,5.16,6.62,6.62,0,0,1-.77,0,8,8,0,0,1-4.31-1.78,7.73,7.73,0,0,1-1.36.12,7.94,7.94,0,0,1-2.39-.37l-.86-.27a14.85,14.85,0,0,1-7.58,8.79,8,8,0,0,1-7.61-.49,8,8,0,0,1-4.26,1.23h-3l-.62,0a8,8,0,0,1-6.06,3.42h-.51a8,8,0,0,1-4.42-1.33,8,8,0,0,1-5.58,4.55,7.9,7.9,0,0,1-1.73.19,8,8,0,0,1-5.44-2.14,16.33,16.33,0,0,1-8.67,3.08H131a8.71,8.71,0,0,1-1.36-.1,8,8,0,0,1-4.28,1.24Z"/>
    <path class="a56b9cfc-5b7e-46fb-83f0-dfb4293d08d6" d="M114.88,143.85a8,8,0,0,1-6.8-3.78l-.08-.13a8,8,0,0,1-11.44-1.83,8,8,0,0,1-4.76,1.58,8.44,8.44,0,0,1-1.86-.22,8,8,0,0,1-2.84-1.31l-.16.19a8,8,0,0,1-6.11,2.85,7.47,7.47,0,0,1-1.41-.13l-5.3-.94a8,8,0,0,1-3.89-1.88l-1.14.46a7.93,7.93,0,0,1-3,.6,8,8,0,0,1-7.74-6c-1.27.31-2.61.57-4,.77a8.56,8.56,0,0,1-1.12.08,8,8,0,0,1-7.43-5,2,2,0,0,1-.1-.26l-6.46-1.77a8,8,0,0,1-4.4-3.06A8,8,0,0,1,31.23,123l-.18-.11-2.61.85a8,8,0,0,1-7.61-1.47,8,8,0,0,1-6.44-7.2,41.13,41.13,0,0,1,.45-8.82,8,8,0,0,1-3.5-5.48,8.28,8.28,0,0,1-1.6-.92,8,8,0,0,1-2.57-9.59l1.26-2.92A8,8,0,0,1,6.54,76.8l.39-.61a9.15,9.15,0,0,1-.7-1.12A8,8,0,0,1,9,64.71a20.6,20.6,0,0,0,3.72-3.34,8,8,0,0,1-2.39-11.73l8-10.69A8,8,0,0,1,18.64,35c1.63-5.1,6.8-9.11,12.28-12a8,8,0,0,1,5-5.1c1.53-.54,3.15-1,4.8-1.44,1.82-.47,3.74-.86,5.68-1.18l1.07-.17c2.09-.32,4.22-.54,6.36-.68a8,8,0,0,1,5.77-2.87c2.16-.1,4.33-.16,6.47-.2A8,8,0,0,1,78.21,6.06l6,3.83,5-3.58A8,8,0,0,1,99.85,7.46,49.29,49.29,0,0,1,117,2.89h.47a8,8,0,0,1,6.84,3.84l2.5,0c1.47,0,3,0,4.42,0L136.6,5.5a7.59,7.59,0,0,1,1.82-.21,8,8,0,0,1,5.47,2.16l3.05.29c2.56.28,5,.57,7.4.88a8.07,8.07,0,0,1,2.8-.51,7.52,7.52,0,0,1,.82.05l5.24.54a8,8,0,0,1,4.39,1.89l7-1.7a7.72,7.72,0,0,1,1.9-.23,8,8,0,0,1,6.78,3.75c1,.09,1.88.2,2.77.32,1.46.21,2.86.47,4.16.79.37.09.72.17,1.06.27q1.11.3,2.16.66a26,26,0,0,1,4.32,1.91A8,8,0,0,1,201.78,23a8,8,0,0,1,3.16,3.68c5.39,2.56,11,6.36,14.3,11.83a8,8,0,0,1,.86,6.22L224.61,51a8,8,0,0,1,0,9.29c-.16.22-.33.44-.51.65L228,73.3a8,8,0,0,1-7.63,10.4h-.09l1.57,6.81a8,8,0,0,1-3.07,8.25v.41a8,8,0,0,1-8,8.35,8.13,8.13,0,0,1-1.3-.1l0,5.3a8,8,0,0,1-9.77,7.85l-.78,2a8,8,0,0,1-7.47,5.16,6.62,6.62,0,0,1-.77,0,8,8,0,0,1-4.31-1.78,7.73,7.73,0,0,1-1.36.12,7.94,7.94,0,0,1-2.39-.37l-.86-.27a14.85,14.85,0,0,1-7.58,8.79,8,8,0,0,1-7.61-.49,8,8,0,0,1-4.26,1.23h-3l-.62,0a8,8,0,0,1-6.06,3.42h-.51a8,8,0,0,1-4.42-1.33,8,8,0,0,1-5.58,4.55,7.9,7.9,0,0,1-1.73.19,8,8,0,0,1-5.44-2.14,16.33,16.33,0,0,1-8.67,3.08H126a8.71,8.71,0,0,1-1.36-.1,8,8,0,0,1-4.28,1.24Z"/>
    <g>
      <path class="e21bde6f-4a7a-47f5-ba24-9df9e612ad5c" d="M35.33,116.08l14.28-6.15c-4.35.76-8.29,9.48-8.29,9.48L48,121.22l11.09-3.72c0,4.54-5.87,8.7-5.87,8.7,10.79-1.51,16.46-8,16.46-8l-3.59,13.06,13.43-5.49-4,6.43,5.29.95,9.09-10.78,1.89,9.27c3.59-4.54,11.73-7,11.73-7l-.38,8.89,8.89-11c-1.51,6.25,2.84,13.25,2.84,13.25h5.48l4.92-10.6c4.54,4.17.76,9.46.76,9.46,5.67-.19,10.78-8.7,10.78-8.7l3.6,7.76c0-5.68,8.51-11.54,8.51-11.54l3.22,8.13,3.4-13.24,3.78,9.84h3l5.3-9.46c3.78.75,3.21,9.46,3.21,9.46,4.92-2.27,4.55-11.92,4.55-11.92l9.64,3c-2.27-2.64.76-9.27.76-9.27,4,1.14,5.68,11,5.68,11l5.1-13.43,4.92,6.43-.12-21.19,9.39,7.94-.54-12.27,3.79,5-3.79-16.42L214,77.32l-4.15-11.73c2.71-.18,10.47,10.11,10.47,10.11l-8-25.47c-1.63-5.59-11.56-11.37-11.56-11.37,4.34-.72,11.56,3.79,11.56,3.79-5.42-9-21.66-12.45-21.66-12.45l6.86-.37-12.1-5.23,8.3-1.26c-7.4-4.16-20.58-3.07-20.58-3.07l3.25-3.61L158.76,21l3.61-4.33-5.23-.55c-7.4,5.42-25.94,3.43-25.94,3.43l7.22-6.25-26.71,6.25c-.73-2.64,5.77-8.66,5.77-8.66-12.27.72-24.55,9.63-24.55,9.63l1-7.7-9.38,6.73L73.92,12.81l3.36,6.73a166.85,166.85,0,0,0-17.33,0l1,2.77a64.42,64.42,0,0,0-22.39,3.13l5.54.6S28.18,31.46,26.26,37.48h3.25l-12.76,17L27.1,49.39l-3.61,7.7L26.62,56S20,67.17,13.36,71.43l9.48-3.69S15.8,77,13.36,81l4.37.29L21,78.43,14.52,93.38l7.66-6.44s-.1,7.38-2.93,12.58c0,0,4.54-1.13,6.14-3.87,0,0-3.59,11.73-3,18.73,0,0,2.84-10.6,6.71-10.6L26,116.08,30,114.75l4.63-6Z"/>
      <path class="bb6bc314-07b4-421b-aa93-e0c211fcc2bb" d="M213.59,49.41c-4-4.87-11.4-10.18-11.4-10.18a49.91,49.91,0,0,1,10.19,3.42c-5.42-9-21.66-12.45-21.66-12.45l6.86-.37-12.1-5.23,8.3-1.26c-7.4-4.16-20.58-3.07-20.58-3.07l3.25-3.61L158.76,21l3.61-4.33-5.23-.55c-7.4,5.42-25.94,3.43-25.94,3.43l7.22-6.25-26.71,6.25c-.73-2.64,5.77-8.66,5.77-8.66-12.27.72-24.55,9.63-24.55,9.63l1-7.7-9.38,6.73L73.92,12.81l3.36,6.73a166.85,166.85,0,0,0-17.33,0l1,2.77a64.42,64.42,0,0,0-22.39,3.13l5.54.6S28.18,31.46,26.26,37.48h3.25l-12.76,17L27.1,49.39l-3.61,7.7L26.62,56S20,67.17,13.36,71.43l9.48-3.69-.15.2c2.64-2,5.55-3.86,7.77-4.46L24.21,77.1l5.25,1.42L32.58,74,30.31,85.33s7.38-6.1,8.09-6.24l1.28,4.68S36.13,88,36.13,93.13l3.55,1.77s5.11-11.41,15-11.84c0,0-1.28,12.91,0,15.75H57l5.53-8.51,1.56,11.63h4.68l12.62-7.8-4.67,15.75s6-8.94,10.22-9.23c0,0,7.66,10.22,7.66,14.34H98.7l6.67-10.08A33.54,33.54,0,0,1,107.5,117l3.69.85s7-10.07,7.38-16c0,0,4.54,8.65,5,12.77l3.69-.14.71-7.24,3.12,4.83,4.12-.15V101.22s6.67,8.09,7.37,12.2l3.84-.56s-1-11.35-2.42-15.47c0,0,9.65,6.81,12.92,12.49L155.74,100l6.39-.86,2.41,8.38H167s.85-7.24,1.13-9.09,6.39.15,7.24,4.4c0,0,.85-11.21,3.69-12.2s7.66,3.12,7.66,3.12l-.85-11.06,8.51,4.82-2.27-7.66s12.35-6.39,12.77-6.39-3-3.26-3-3.26l-8.94.14,15.47-2.41-9.51-4.54s7.95-1.28,12.63,2L205,56.81l9.09,1.85-6.25-6,10.3,3Z"/>
      <path class="b84a3889-8113-4918-9463-10e1d330cbe4" d="M53.3,47.12s3.4,4.35,6.43,4.26l-2,3.78s4.54,3.88,6.44,1.89,2.36-4.44,2.36-2.36,2.27,8.51,3.79,7.38a5.35,5.35,0,0,1,3-1.23c.29,0,1.7,2,2.84,3.21s8.89.76,8.89.76-1.7.66,0,2.18,7.85,1.6,7.66,0-.38.66,3,2.45,4.16,5.3,5.3,2,7.19-2.74,7.19-2.74-5.4.28-3,1.61,9.46,4.06,10.21,1.89-.75-4.64.48-2.84,1.23,3.12,6.62,3.12,7.09-2.55,10.59-4c0,0-2.17,3-1,3.4s4.83-2.08,4.83-2.08-3,1.23.47,2,6.81-4.54,6.72-4.82,1,4.35,5.1,3.68a11.28,11.28,0,0,0,6.53-3.87s-.85,2,2.18,1.79,7.66-4.06,7.66-4.06,2.84,2.17,5,1.23,2.93-4.73,3.12-5.11-.28-.38.85.38,2.37,1.89,2.65.94,0-4.92.38-3.59,3.22,3,3.5,2.74,5.77-2.84,7-3.88,4.07-2.27,5.3-3.12a10.74,10.74,0,0,0,2.27-2.36s-5.58-2.56-8.89-2.56-5.49,2.56-2.75-2.08,1.52-2.55.19-2-2.74,4.54-2.36-.38.38-4.54-.76-3.79-1.61,1.14-1.89-2.46-.76-2.36-2.46-.66,1.13,3.79-5.2,1.89-4.92-1-7.48-2S160,34.45,160,33.88s-4.17,6.9-5.3,1-.95-8.32-1.51-6.81-.19,2.46-2.08,3.59-2.65-4.16-3.79-1.23-.47,5.49-1.61,1.8-1.89-7-2.74-3.88-4.35-.85-6.24,1.52-3.22-2.76-3.22-2.76.66-1.43-1.61,0-1.42.46-3.21,0-1-2.19-4.21,0-6,.39-6.29-1.12,1.69-4.07-1.33,0-14.28,11.16-13.81,6,.1-5.3-.94-2.65S99.27,34.07,98,31s-1.33-.66-3.79,1.14-.66-1.42-4.82,1.42-4.73,5.86-5,2.83S84.42,31,82,33.69s-3.12-.66-4.07-2.08-.19.38-2.65,2.74-5.77,6.72-6.62,2.93S70.8,32.84,67,36.15,61.53,27.16,61,33A19.56,19.56,0,0,1,58,42.11s-1-8.33-1.7-4S52.35,42.58,53.3,47.12Z"/>
      <path class="bd5255b4-e2fd-4d49-8e03-71a228c1a7c0" d="M99.76,105.31c-.3,0-.76-1.55-.72-4.16a27.12,27.12,0,0,1,2.23-9.88,34.1,34.1,0,0,1,5.28-8.58c1.66-2,2.91-3,3.15-2.77s-.54,1.57-1.82,3.72a69.07,69.07,0,0,0-4.47,8.53,42.85,42.85,0,0,0-2.74,9.14C100.23,103.73,100.1,105.29,99.76,105.31Z"/>
      <path class="bd5255b4-e2fd-4d49-8e03-71a228c1a7c0" d="M95.32,88c-.29-.12-.3-.88,0-2a18,18,0,0,1,1.59-4.22,16.54,16.54,0,0,1,1.33-2.13,11.1,11.1,0,0,1,1.38-1.56c.88-.8,1.59-1.11,1.82-.9s0,.91-.52,1.9c-.25.49-.54,1.07-.88,1.7l-1.08,2.07c-.77,1.48-1.5,2.83-2.13,3.78S95.62,88.11,95.32,88Z"/>
      <path class="bd5255b4-e2fd-4d49-8e03-71a228c1a7c0" d="M67.66,100.08c-.28-.14.39-2.31,1.92-5.64.77-1.67,1.76-3.61,3-5.72a66.76,66.76,0,0,1,4.27-6.66c.84-1.14,1.7-2.23,2.59-3.23a35.59,35.59,0,0,1,2.72-2.76,28.62,28.62,0,0,1,5.31-3.85,29.77,29.77,0,0,1,4-1.85c1-.36,1.53-.49,1.6-.35s-.35.54-1.18,1.14-2,1.41-3.5,2.45a37,37,0,0,0-4.72,4c-.82.83-1.65,1.73-2.47,2.71s-1.64,2-2.44,3.11c-1.61,2.19-3,4.38-4.31,6.39S72,93.67,71,95.21C69.15,98.3,68,100.22,67.66,100.08Z"/>
      <path class="bd5255b4-e2fd-4d49-8e03-71a228c1a7c0" d="M87.68,80.56c-.31-.06-.49-.73-.43-1.78a13.13,13.13,0,0,1,3.16-7.4c.73-.77,1.33-1.11,1.59-.93s.14.85-.19,1.79-.85,2.15-1.43,3.5-1.09,2.56-1.54,3.45S88,80.63,87.68,80.56Z"/>
      <path class="bd5255b4-e2fd-4d49-8e03-71a228c1a7c0" d="M110.08,108.82c-.28-.16.43-2,1.75-4.74s3.26-6.55,5.24-10.76c1-2.11,1.88-4.13,2.65-6,.38-.94.75-1.82,1.06-2.65l.47-1.21.41-1.12c1-2.86,1.64-4.68,2-4.61.15,0,.2.52.15,1.4,0,.22,0,.47-.05.73s-.08.55-.12.86c-.1.61-.21,1.32-.39,2.08L123,84c-.1.42-.23.84-.35,1.29-.24.89-.55,1.81-.88,2.8-.69,1.94-1.54,4.05-2.55,6.2a89.47,89.47,0,0,1-5.91,10.58C111.56,107.47,110.36,109,110.08,108.82Z"/>
      <path class="bd5255b4-e2fd-4d49-8e03-71a228c1a7c0" d="M138.17,93.86c-.62.19-2.06-2.84-3.87-6.49s-3.3-6.66-2.76-7c.26-.18,1,.36,1.9,1.42a22.39,22.39,0,0,1,2.94,4.6,22.79,22.79,0,0,1,1.84,5.14C138.5,92.86,138.47,93.77,138.17,93.86Z"/>
      <path class="bd5255b4-e2fd-4d49-8e03-71a228c1a7c0" d="M165.75,99.46c-.33,0-.77-1.44-1.88-3.62-.56-1.1-1.27-2.39-2.09-3.83s-1.72-3-2.73-4.6a48.61,48.61,0,0,0-5.8-7.64c-1.68-1.81-2.88-2.81-2.7-3.11s1.71.29,3.79,1.89A28.92,28.92,0,0,1,161,86.17,47.9,47.9,0,0,1,163.67,91a31.69,31.69,0,0,1,1.72,4.2,11.9,11.9,0,0,1,.59,3C166,99,165.91,99.44,165.75,99.46Z"/>
      <path class="bd5255b4-e2fd-4d49-8e03-71a228c1a7c0" d="M174.65,91c-.66,0-.9-4.22-2.48-9-.2-.59-.4-1.17-.61-1.73s-.41-1.08-.63-1.57a16.2,16.2,0,0,0-1.31-2.46c-.85-1.33-1.67-2-1.52-2.28,0-.07.13-.11.28-.11A1.62,1.62,0,0,1,169,74a5.42,5.42,0,0,1,1.87,1.19,10.74,10.74,0,0,1,2,2.58,16.36,16.36,0,0,1,.82,1.68c.26.59.5,1.22.71,1.86a19.81,19.81,0,0,1,1,6.87C175.31,90,175,91,174.65,91Z"/>
      <path class="bd5255b4-e2fd-4d49-8e03-71a228c1a7c0" d="M175.56,78.18c-.22.23-.76.11-1.45-.22s-1.52-.86-2.41-1.41-1.68-1-2.3-1.33-1-.65-1-1,.52-.6,1.4-.62a6.16,6.16,0,0,1,3.13.95,7.51,7.51,0,0,1,2.29,2.16C175.64,77.41,175.78,78,175.56,78.18Z"/>
      <path class="bd5255b4-e2fd-4d49-8e03-71a228c1a7c0" d="M204.22,68.15c-.11.33-1.57.06-3.89-.06-1.16-.07-2.53-.1-4.07,0s-3.22.18-5,.37-3.48.42-5,.6-2.94.36-4.09.54c-2.3.35-3.7.77-3.85.47-.07-.14.2-.44.78-.83A12.63,12.63,0,0,1,181.73,68a31.63,31.63,0,0,1,4.15-1c1.56-.31,3.29-.61,5.14-.8a36.75,36.75,0,0,1,5.26-.21,22.78,22.78,0,0,1,4.29.57,16.16,16.16,0,0,1,1.61.46c.46.18.85.33,1.16.49C204,67.75,204.27,68,204.22,68.15Z"/>
      <path class="bd5255b4-e2fd-4d49-8e03-71a228c1a7c0" d="M190.46,62.33c.22.62-2.42,2.09-5.63,3.85s-5.88,3.16-6.28,2.65c-.19-.26.25-1,1.16-1.84a20.64,20.64,0,0,1,8.58-4.67C189.53,62,190.35,62,190.46,62.33Z"/>
      <path class="bd5255b4-e2fd-4d49-8e03-71a228c1a7c0" d="M54.57,76.51c-.2-.24.36-1.09,1.54-2.18a20.87,20.87,0,0,1,2.21-1.73,24.52,24.52,0,0,1,3-1.71,24.85,24.85,0,0,1,3.19-1.27A21.37,21.37,0,0,1,67.24,69c1.58-.24,2.59-.15,2.66.15s-.8.8-2.2,1.43l-2.44,1.08c-.91.41-1.91.86-3,1.36s-2,1-2.89,1.46l-2.37,1.24C55.69,76.38,54.78,76.77,54.57,76.51Z"/>
      <path class="bd5255b4-e2fd-4d49-8e03-71a228c1a7c0" d="M59.42,89.88c-.31,0-.46-1.33-.36-3.41a30,30,0,0,1,.43-3.64,24.48,24.48,0,0,1,1.23-4.4,18,18,0,0,1,2.22-4.06,13.65,13.65,0,0,1,2.65-2.74,8.06,8.06,0,0,1,2.22-1.26c.58-.2.94-.21,1-.08.16.31-.85,1.08-2.11,2.54a20.84,20.84,0,0,0-2,2.73,24.78,24.78,0,0,0-1.83,3.72,64.81,64.81,0,0,0-2.2,7.44C60.17,88.69,59.75,89.92,59.42,89.88Z"/>
      <path class="bd5255b4-e2fd-4d49-8e03-71a228c1a7c0" d="M37.75,76.69c-.14-.08-.09-.47.15-1.14.05-.17.12-.35.2-.55s.19-.41.3-.63a14.61,14.61,0,0,1,.83-1.48l.53-.83c.19-.29.42-.57.64-.87.43-.6,1-1.19,1.51-1.82A29.15,29.15,0,0,1,46,65.79a28.22,28.22,0,0,1,4.73-2.68,22.85,22.85,0,0,1,2.21-.84c.36-.11.69-.23,1-.31l1-.24a14,14,0,0,1,1.67-.29c.25,0,.48-.07.69-.08h.59c.7,0,1.1.07,1.13.23s-.32.38-1,.65l-.53.21-.61.25c-.45.19-1,.36-1.5.61l-.86.35-.92.42c-.64.27-1.29.63-2,1a42.58,42.58,0,0,0-4.3,2.65,40.17,40.17,0,0,0-3.91,3.2c-.56.54-1.1,1.05-1.57,1.56-.24.25-.48.49-.7.73l-.62.69c-.41.44-.74.86-1.06,1.22l-.44.5-.37.43C38.21,76.52,37.89,76.77,37.75,76.69Z"/>
      <path class="bd5255b4-e2fd-4d49-8e03-71a228c1a7c0" d="M47.17,62.12c-.18-.25.23-.94,1.27-1.59A9,9,0,0,1,53,59.34a11.75,11.75,0,0,1,4.47.85c1.06.45,1.64.92,1.56,1.23s-.82.4-1.91.38-2.54-.15-4.09-.14a22.07,22.07,0,0,0-3.92.39C48.05,62.24,47.35,62.39,47.17,62.12Z"/>
      <path class="bd5255b4-e2fd-4d49-8e03-71a228c1a7c0" d="M31.68,70.45c-.26-.14.24-1.74,1.52-4.1l.51-.92c.18-.32.39-.64.6-1,.41-.67.89-1.36,1.4-2.09a48.07,48.07,0,0,1,3.68-4.46A45.89,45.89,0,0,1,43.6,54c.7-.56,1.35-1.09,2-1.54.32-.23.63-.46.93-.66l.89-.57c2.27-1.43,3.83-2,4-1.78.36.58-5,4.3-10.33,10.08S32.28,70.77,31.68,70.45Z"/>
      <path class="bd5255b4-e2fd-4d49-8e03-71a228c1a7c0" d="M28.64,57.74c0-.34,1.1-.64,2.69-1.42A20.06,20.06,0,0,0,34,54.74a29.76,29.76,0,0,0,3-2.4c1-.92,2-1.85,2.92-2.69s1.73-1.55,2.37-2.18,1.11-1.15,1.46-1.53.57-.61.73-.55.2.39.08,1a7.3,7.3,0,0,1-1,2.17,22,22,0,0,1-2.13,2.64,36.08,36.08,0,0,1-2.9,2.92,20,20,0,0,1-3.42,2.49,13,13,0,0,1-3.25,1.3,7.46,7.46,0,0,1-2.36.23C29,58,28.65,57.89,28.64,57.74Z"/>
      <path class="bd5255b4-e2fd-4d49-8e03-71a228c1a7c0" d="M34.07,47.57c-.2-.24.74-1.45,2.56-3.11.46-.41,1-.85,1.53-1.3s1.18-.92,1.83-1.4c1.33-.94,2.82-1.92,4.46-2.85a52,52,0,0,1,4.73-2.36c.75-.31,1.46-.61,2.14-.85s1.31-.47,1.9-.65c2.35-.72,3.88-.9,4-.61.21.64-5.3,2.88-11.61,6.48S34.51,48.07,34.07,47.57Z"/>
      <path class="bd5255b4-e2fd-4d49-8e03-71a228c1a7c0" d="M40.89,31.4c-.08-.2,1.26-1,3.66-1.83l.94-.3c.33-.1.68-.18,1-.28.72-.2,1.5-.35,2.31-.52a46,46,0,0,1,5.37-.68,66.47,66.47,0,0,1,9.75.09c2.48.21,4,.48,4,.72s-1.55.4-4,.51-5.88.16-9.61.41c-1.87.13-3.63.32-5.23.53-.8.12-1.56.21-2.26.35-.36.06-.7.11-1,.18l-.94.18C42.47,31.25,41,31.64,40.89,31.4Z"/>
      <path class="bd5255b4-e2fd-4d49-8e03-71a228c1a7c0" d="M28.32,43.58c-.13-.29.35-.82,1.18-1.49s2-1.49,3.34-2.37,2.54-1.65,3.48-2.16,1.62-.75,1.84-.51-.08.91-.79,1.77a15.3,15.3,0,0,1-3.24,2.83,15.59,15.59,0,0,1-3.87,1.89C29.19,43.86,28.45,43.87,28.32,43.58Z"/>
      <path class="bd5255b4-e2fd-4d49-8e03-71a228c1a7c0" d="M81.84,25.34c-.18.18-.81-.19-1.92-.4a19.44,19.44,0,0,0-2-.26l-2.58-.23c-3.65-.34-6.66-.53-6.69-1,0-.24.74-.51,2-.67a22.55,22.55,0,0,1,4.86-.05,24.66,24.66,0,0,1,2.66.38,9.17,9.17,0,0,1,2.18.68,3.87,3.87,0,0,1,1.29.95C81.86,25,81.92,25.26,81.84,25.34Z"/>
      <path class="bd5255b4-e2fd-4d49-8e03-71a228c1a7c0" d="M96.27,29.08c-.22-.06-.21-1,.2-2.56.1-.38.23-.8.39-1.23s.35-.89.56-1.36A21.63,21.63,0,0,1,99.08,21a21.79,21.79,0,0,1,2.14-2.62c.37-.37.72-.72,1.07-1s.68-.57,1-.81c1.26-.93,2.17-1.3,2.31-1.12.3.42-2.56,2.82-5.08,6.55S96.76,29.2,96.27,29.08Z"/>
      <path class="bd5255b4-e2fd-4d49-8e03-71a228c1a7c0" d="M110.13,19.38c.43.23-.36,2.45-1.3,5.14s-1.72,4.91-2.2,4.83c-.24-.05-.35-.68-.27-1.66a15,15,0,0,1,.83-3.75,15.28,15.28,0,0,1,1.69-3.44C109.44,19.69,109.92,19.26,110.13,19.38Z"/>
      <path class="bd5255b4-e2fd-4d49-8e03-71a228c1a7c0" d="M131,15.77c.25.42-2.45,2.44-5.56,5.12s-5.52,5-5.9,4.7c-.18-.15.19-.95,1-2.08a24.91,24.91,0,0,1,3.75-3.94,24.52,24.52,0,0,1,4.48-3.1C130.07,15.82,130.91,15.57,131,15.77Z"/>
      <path class="bd5255b4-e2fd-4d49-8e03-71a228c1a7c0" d="M127.08,22.17c.17.45-1.33,1.44-3.35,2.2s-3.79,1-4,.58,1.33-1.44,3.34-2.2S126.91,21.72,127.08,22.17Z"/>
      <path class="bd5255b4-e2fd-4d49-8e03-71a228c1a7c0" d="M157.93,17.42c.24.4-3.85,3.29-9.35,6s-10.28,4.24-10.45,3.81,4.24-2.66,9.67-5.37S157.68,17,157.93,17.42Z"/>
      <path class="bd5255b4-e2fd-4d49-8e03-71a228c1a7c0" d="M156.9,26.7c-.1-.21,1.13-1,3.33-1.95l.86-.35c.31-.12.63-.22,1-.34.65-.24,1.37-.44,2.12-.66a50.32,50.32,0,0,1,5-1.09,59.17,59.17,0,0,1,9.19-.71c2.35,0,3.81.19,3.82.42s-1.43.51-3.75.81-5.5.65-9,1.2c-1.74.28-3.39.6-4.88.92-.74.17-1.45.32-2.11.49l-.95.24-.88.23C158.39,26.51,157,26.93,156.9,26.7Z"/>
      <path class="bd5255b4-e2fd-4d49-8e03-71a228c1a7c0" d="M193.3,28.94c-.06.24-1.63,0-4.15.14-1.27.05-2.79.15-4.48.27s-3.54.25-5.49.43c-7.77.68-14,1.77-14.15,1.29-.05-.23,1.46-.8,4-1.42a70.36,70.36,0,0,1,10-1.6c2-.18,3.86-.28,5.57-.3s3.26,0,4.58.1a15,15,0,0,1,3.07.54C193,28.61,193.32,28.82,193.3,28.94Z"/>
      <path class="bd5255b4-e2fd-4d49-8e03-71a228c1a7c0" d="M182.18,33.12c-.13.48-3.87-.14-8.48-.63s-8.4-.7-8.42-1.2c0-.23.94-.49,2.5-.63a31,31,0,0,1,6.1.1,32.41,32.41,0,0,1,6,1.2C181.36,32.44,182.24,32.9,182.18,33.12Z"/>
      <path class="bd5255b4-e2fd-4d49-8e03-71a228c1a7c0" d="M209.6,50.31c-.41.51-5.22-2.79-11.3-6.55s-11.14-6.66-10.87-7.25c.14-.29,1.59.06,3.81,1a60.46,60.46,0,0,1,15.81,9.84C208.84,48.91,209.8,50.07,209.6,50.31Z"/>
    </g>
  </g>
</svg>
