<svg id="ef03f17e-293a-4da1-ac25-5f2444220a11" data-name="Layer 1" xmlns="http://www.w3.org/2000/svg" width="217.49" height="145.89" viewBox="0 0 217.49 145.89">
  <defs>
    <style>
      .af32a9c0-0f68-491a-8979-12eb43607631 {
        fill: #020202;
        opacity: 0.5;
      }

      .a315b143-b2a2-4d2e-adbe-e015dff7dae6 {
        fill: #fff;
      }

      .a38d2b09-250c-46ba-8ccb-714525d558cb, .a539c4f9-29d7-4e41-87ff-23885180ffb2, .fbf3c57b-9c84-416b-826b-07c206fe0bd9 {
        fill: #c68740;
      }

      .a38d2b09-250c-46ba-8ccb-714525d558cb, .e6d4d031-fcb2-41b7-9b29-12788852a0c4, .fbf3c57b-9c84-416b-826b-07c206fe0bd9 {
        stroke: #8c5b2a;
        stroke-miterlimit: 10;
      }

      .e6d4d031-fcb2-41b7-9b29-12788852a0c4, .fbf3c57b-9c84-416b-826b-07c206fe0bd9 {
        stroke-width: 0.5px;
      }

      .ae2f0898-28d5-4199-a9aa-97e1eaf41269 {
        fill: #a66727;
      }

      .af7b4934-f62c-4d60-8e8d-f9abbe42b502 {
        fill: #eaae65;
      }

      .b7c92a8f-7e75-4da5-9d1f-8814f227ae96 {
        fill: #f2bb7e;
      }

      .bc2763ff-b38e-46e8-ac97-fe5a4aea79c8 {
        fill: #e29952;
      }

      .e6d4d031-fcb2-41b7-9b29-12788852a0c4 {
        fill: #bf7a33;
      }

      .a38d2b09-250c-46ba-8ccb-714525d558cb {
        stroke-width: 0.25px;
      }

      .adcc3fb2-acaf-4a0d-9dc4-380b96fb10ad {
        fill: #b57136;
      }

      .a38b62f4-bfea-46b0-8385-54b79118ea0e {
        fill: #a56738;
      }

      .a4de8b2a-265c-4e4b-ba68-b7cec7ebbd94 {
        fill: #d8914d;
      }
    </style>
  </defs>
  <g>
    <path class="af32a9c0-0f68-491a-8979-12eb43607631" d="M139.48,143.73l-1.15,0c-.6,0-1.19,0-1.77-.06l-1.08-.05-1.91-.14-.9-.08c-.91-.08-1.8-.18-2.69-.3l-.69-.1-2-.31-.74-.14-.26-.05c-.56-.11-1.1-.21-1.64-.33l-1-.23-1.54-.38-1-.27-1.54-.46-.19-.06-.76-.24c-.64-.21-1.29-.45-1.92-.69-.39-.14-.78-.3-1.17-.45l-.46.07-.56.07c-.37,0-.77.06-1.2.06H113a13.62,13.62,0,0,1-4.4-.85l-.1,0a17.54,17.54,0,0,1-2.1-.94A13.38,13.38,0,0,1,99.69,127C99,126,98.42,125,97.82,124c-12,7.49-22.62,11.14-32.31,11.14-20.06,0-32.73-15.14-44-30.65-26.19-36.09-6.38-79.37-2.15-87.68,2-4,4.1-8,8.9-8.39A95.73,95.73,0,0,1,44.35,7.16c15.87,0,45.05,3.68,67.88,27.38,12.53-11.54,27.63-17.8,43.28-17.8a57.75,57.75,0,0,1,27.26,6.88h.51a12.88,12.88,0,0,1,9.21,3.76,15.05,15.05,0,0,1,3.35,5l.06.16a8.51,8.51,0,0,1,.29.85A58.52,58.52,0,0,1,212,59.5l.2.7c.28,1,.54,2.1.76,3.12l.06.29c.11.52.2,1,.3,1.56,0,.27.09.53.13.8.15.9.28,1.83.39,2.77,0,0,.06.52.08.71,0,.49.1,1,.14,1.51l.06,1q.08,1.17.09,2.34v.17c0,.33,0,.66,0,1s0,.92,0,1.39,0,.8,0,1.2c0,.61-.06,1.23-.11,1.86s-.08,1-.14,1.59-.09.83-.14,1.25-.13,1-.2,1.44-.14,1-.22,1.42q-.17,1-.36,2c-.08.38-.16.75-.25,1.12-.12.56-.26,1.13-.4,1.69,0,0-.18.73-.25,1-.2.76-.42,1.52-.66,2.27-.09.31-.2.64-.3,1-.22.65-.44,1.3-.67,2l-.24.65c-.3.8-.62,1.61-1,2.42-.12.29-.25.57-.37.86-.3.7-.63,1.41-1,2.12l-.2.44c-.4.82-.83,1.65-1.27,2.47l-.4.74c-.42.76-.85,1.53-1.31,2.29l-.15.25c-.49.82-1,1.64-1.56,2.46l-.4.61c-.57.85-1.12,1.63-1.69,2.42l-.05.08c-.63.85-1.25,1.66-1.89,2.46l-.51.63c-.61.76-1.25,1.53-1.91,2.29a2,2,0,0,1-.19.22c-.68.78-1.41,1.56-2.22,2.39q-.28.3-.57.57l-.21.21c-.55.54-1.09,1.07-1.65,1.58l-.81.73-.13.11c-.54.48-1.07.94-1.6,1.38l-1,.82c-.57.45-1.13.88-1.71,1.31l-.24.18-.7.52c-.69.49-1.38,1-2.09,1.43l-.11.08-.52.35c-.88.57-1.81,1.14-2.75,1.69l-.58.33-.19.1c-.68.38-1.37.77-2.06,1.13l-1.06.54-1.84.89-1.13.52-1.85.8-1.09.45-2.05.78-.9.33c-1,.35-2,.68-3,1l-.41.12c-.88.26-1.72.51-2.58.74l-1.06.26c-.64.17-1.29.33-2,.47l-1.17.26-1.87.37-1.17.21-1.92.31-1.07.16c-.8.1-1.59.2-2.39.28l-.59.07c-1,.1-1.95.17-2.92.24l-.93,0-2,.09-1.12,0h-1.78Z"/>
    <path class="a315b143-b2a2-4d2e-adbe-e015dff7dae6" d="M134.48,138.73l-1.15,0c-.6,0-1.19,0-1.77-.06l-1.08-.05-1.91-.14-.9-.08c-.91-.08-1.8-.18-2.69-.3l-.69-.1-2-.31-.74-.14-.26-.05c-.56-.11-1.1-.21-1.64-.33l-1-.23-1.54-.38-1-.27-1.54-.46-.19-.06-.76-.24c-.64-.21-1.29-.45-1.92-.69-.39-.14-.78-.3-1.17-.45l-.46.07-.56.07c-.37,0-.77.06-1.2.06H108a13.62,13.62,0,0,1-4.4-.85l-.1,0a17.54,17.54,0,0,1-2.1-.94A13.38,13.38,0,0,1,94.69,122C94,121,93.42,120,92.82,119c-12,7.49-22.62,11.14-32.31,11.14-20.06,0-32.73-15.14-44-30.65-26.19-36.09-6.38-79.37-2.15-87.68,2-3.95,4.1-8,8.9-8.39A95.73,95.73,0,0,1,39.35,2.16c15.87,0,45.05,3.68,67.88,27.38,12.53-11.54,27.63-17.8,43.28-17.8a57.75,57.75,0,0,1,27.26,6.88h.51a12.88,12.88,0,0,1,9.21,3.76,15.05,15.05,0,0,1,3.35,5l.06.16a8.51,8.51,0,0,1,.29.85A58.52,58.52,0,0,1,207,54.5l.2.7c.28,1,.54,2.1.76,3.12l.06.29c.11.52.2,1,.3,1.56,0,.27.09.53.13.8.15.9.28,1.83.39,2.77,0,0,.06.52.08.71,0,.49.1,1,.14,1.51l.06,1q.08,1.17.09,2.34v.17c0,.33,0,.66,0,1s0,.92,0,1.39,0,.8,0,1.2c0,.61-.06,1.23-.11,1.86s-.08,1-.14,1.59-.09.83-.14,1.25-.13,1-.2,1.44-.14,1-.22,1.42q-.17,1-.36,2c-.08.38-.16.75-.25,1.12-.12.56-.26,1.13-.4,1.69,0,0-.18.73-.25,1-.2.76-.42,1.52-.66,2.27-.09.31-.2.64-.3,1-.22.65-.44,1.3-.67,2l-.24.65c-.3.8-.62,1.61-1,2.42-.12.29-.25.57-.37.86-.3.7-.63,1.41-1,2.12l-.2.44c-.4.82-.83,1.65-1.27,2.47l-.4.74c-.42.76-.85,1.53-1.31,2.29l-.15.25c-.49.82-1,1.64-1.56,2.46l-.4.61c-.57.85-1.12,1.63-1.69,2.42l-.05.08c-.63.85-1.25,1.66-1.89,2.46l-.51.63c-.61.76-1.25,1.53-1.91,2.29a2,2,0,0,1-.19.22c-.68.78-1.41,1.56-2.22,2.39q-.28.3-.57.57l-.21.21c-.55.54-1.09,1.07-1.65,1.58l-.81.73-.13.11c-.54.48-1.07.94-1.6,1.38l-1,.82c-.57.45-1.13.88-1.71,1.31l-.24.18-.7.52c-.69.49-1.38,1-2.09,1.43l-.11.08-.52.35c-.88.57-1.81,1.14-2.75,1.69l-.58.33-.19.1c-.68.38-1.37.77-2.06,1.13l-1.06.54-1.84.89-1.13.52-1.85.8-1.09.45-2.05.78-.9.33c-1,.35-2,.68-3,1l-.41.12c-.88.26-1.72.51-2.58.74l-1.06.26c-.64.17-1.29.33-2,.47l-1.17.26-1.87.37-1.17.21-1.92.31-1.07.16c-.8.1-1.59.2-2.39.28l-.59.07c-1,.1-1.95.17-2.92.24l-.93,0-2,.09-1.12,0h-1.78Z"/>
    <g>
      <g>
        <path class="fbf3c57b-9c84-416b-826b-07c206fe0bd9" d="M91.3,110.48c2.49-1.64,1.63-2.19,2.48-2.76,1.27-.85,1.28.19,3.74-1.6,26.75-19.43,25.83-45.49,7.41-67.21C72.9,1.15,24,11.44,24,11.44,23.84,10-3.92,57.7,23,94.8,40.93,119.5,56.59,133.43,91.3,110.48Z"/>
        <path class="ae2f0898-28d5-4199-a9aa-97e1eaf41269" d="M68.69,111.77c7.5-1.25,11-3.87,17.61-8.18,1.58-1,1.24-1.33,2.13-2,.56-.41,1.35-.55,2.23-1.2,8.07-5.84,13.5-12.17,15.71-17,4.37-9.6,3.36-25.73-9.48-41.34C78.6,19.8,43.28,15.24,32.23,23.28c-.62-.41-23.78,31.22-.83,65.42C43.74,107.08,53.91,114.24,68.69,111.77Z"/>
        <path class="af7b4934-f62c-4d60-8e8d-f9abbe42b502" d="M24.55,58.07a12.11,12.11,0,0,0,1.95,7.8c.85,1.19,2,2.24,2.34,3.67.37,1.71-.6,3.42-.64,5.16-.06,2.26,1.47,4.41,2.34,6.42,1.53,3.52,4.43,6.63,7.29,9.12a14.77,14.77,0,0,1,3.79,4.44c1.45,3,1.57,5.25,4.26,7.53a18.09,18.09,0,0,0,6.93,3.28c1.56.48,3.21.65,4.75,1.2s2.7,1.66,4.16,2.5c3.13,1.81,7,2.42,10.17.67,2.43-1.34,5.79-2.62,7.31-5.1.63-1,3.66-4.23,1.61-8.28-.68-1.36-2.51-4.32-4-5.16-2-1.15-3.07-.15-4.31-.5-1.54-.43-2.79-1.7-3.65-3.92-.22-.58-.5-2.47,0-6.93.36-3.5-4-6.84-5.45-7.43-4.35-1.76-4.36-6.43-7.42-9.3-1.66-1.55-3.89-2.59-5-4.59S50.38,54,49.7,51.8c-1.26-4.2-5.89-6.25-8.81-9.52-2.38-2.67-3.6-6.16-4.68-9.57a8.68,8.68,0,0,0-1.93-3.81c-1-1-2.86-1.34-3.89-.33a4.2,4.2,0,0,0-.91,1.72L28.25,33.9c-1.06,3.13-1.63,5.76-.62,9,.7,2.29.27,3.81-.77,5.87A24.49,24.49,0,0,0,24.55,58.07Z"/>
        <path class="b7c92a8f-7e75-4da5-9d1f-8814f227ae96" d="M32.14,78.47c1.08,2.06,3.36,3.69,5.65,3.27s3.94-2.94,4-5.34A10.68,10.68,0,0,0,39,69.87c-1.5-1.87-3.31-3.49-4.77-5.41s-3.37-9.57-6.16-9.25c-4.69.54.81,7.87,1.6,9.6a18.17,18.17,0,0,1,1.13,6.85A16,16,0,0,0,32.14,78.47Z"/>
        <path class="b7c92a8f-7e75-4da5-9d1f-8814f227ae96" d="M57.16,99.5a3.58,3.58,0,0,0,2.44-3.18,4.72,4.72,0,0,0-1.67-3.77c-1.1-1-3-1.91-4.49-1.6A3.25,3.25,0,0,0,51,95a6.18,6.18,0,0,0,1.67,2.81C53.83,99,55.54,100,57.16,99.5Z"/>
        <path class="af7b4934-f62c-4d60-8e8d-f9abbe42b502" d="M94,46.56c-3.71-1.48-5.07-2.43-6.15-6.23a7.87,7.87,0,0,0-6.45-5.76c-7.33-1-1.89-7.19-9.19-7.55-7.45-.37-9.85-2.28-10.72-3.13a7.74,7.74,0,0,0-9.72-.62c-2.21,1.47-2.64-1.22-6.4-1.58-2.19-.2-5.18,1.6-7.44.38C36,21,34.31,24.53,35.54,26.34a6.21,6.21,0,0,0,1.24,1.31c2,1.59,2.35,3,3.25,5.22,1,2.42,3.07,4.28,5.11,5.83,2.65,2,5.6,3.89,7.21,6.81C55.3,50.83,54.79,57,60.11,61c1.72,1.29,3.63,2.44,4.91,4.18,2.06,2.81,2.49,6.09,5,8.6a22.46,22.46,0,0,0,6.52,4.41c7.35,3.49,3.4,7.31,7.61,13.33,1.49,2.11,5.47,4.62,11.07,1.69,3.31-1.73,6.89-4.91,7.83-8.68.82-3.29,2.21-6.53,1.13-10-.86-2.75-2.39-5.38-2.33-8.25a29.59,29.59,0,0,1,.59-3.85C103.48,56,100,49,94,46.56Z"/>
        <path class="bc2763ff-b38e-46e8-ac97-fe5a4aea79c8" d="M84.17,91.47c1.49,2.11,5.47,4.62,11.07,1.69,3.31-1.73,6.89-4.91,7.83-8.68.24-1,.54-2,.81-3-.36.32-.7.68-1,1-2.49,2.63-5.69,4.8-9.3,5.17S86,86.24,84.69,82.86c-1.39-3.63.37-8.23-2-11.31-1.44-1.87-4-2.5-6.34-2.56s-4.73.34-7.07,0a11.32,11.32,0,0,1-2.49-.67A16.78,16.78,0,0,0,70,73.73a22.46,22.46,0,0,0,6.52,4.41C83.91,81.63,80,85.45,84.17,91.47Z"/>
        <path class="bc2763ff-b38e-46e8-ac97-fe5a4aea79c8" d="M50.55,87.49C48.8,83,42.29,85.46,39,86a29.84,29.84,0,0,0-4.78.7,38.14,38.14,0,0,0,3.62,3.58,14.77,14.77,0,0,1,3.79,4.44c1.45,3,1.57,5.25,4.26,7.53a18.09,18.09,0,0,0,6.93,3.28c1.56.48,3.21.65,4.75,1.2s2.7,1.66,4.16,2.5c3.13,1.81,7,2.42,10.17.67,2.43-1.34,5.79-2.62,7.31-5.1.63-1,3.65-4.23,1.61-8.28-.68-1.36-2.51-4.32-4-5.16a4.48,4.48,0,0,0-1-.42c-.78,1.38,0,3.21.81,4.62s1.87,3.34,1.08,4.89-3.36,1.82-5,.92-2.86-2.48-4.33-3.68-3.62-2-5.26-1c-2,1.17-2,4.06-3.24,6-1.81,2.81-6.32,3-8.8.72s-3-6.14-1.89-9.3C50,91.88,51.39,89.62,50.55,87.49Z"/>
        <path class="bc2763ff-b38e-46e8-ac97-fe5a4aea79c8" d="M49.71,51.81a3.51,3.51,0,0,1-1.57,2.71c-2.09,1.28-4.74-.17-7.19-.16a6.17,6.17,0,0,0-5.89,5.24,6.23,6.23,0,0,0,4.42,6.54,23.26,23.26,0,0,0,4.58.32,5,5,0,0,1,4,1.87,6.07,6.07,0,0,1,.48,4.09,6.55,6.55,0,0,0,.37,4.12c.7,1.22,2.67,1.75,3.49.61.54-.73.38-1.81.89-2.57.91-1.35,3.11-.66,4.21.54S59.42,78,61,78.53c1.95.71,4.19-.92,4.62-2.94a4.48,4.48,0,0,0,0-1.59,9.34,9.34,0,0,0-2.19-1.46c-2.56-1-3.62-3.08-4.68-5.18L58,67.07c-2.43-1-5.07-2.12-6.28-4.44A7.78,7.78,0,0,1,51,58.58C50,56.54,50.37,54,49.71,51.81Z"/>
        <path class="bc2763ff-b38e-46e8-ac97-fe5a4aea79c8" d="M60.83,45.31c-.48-1.62-2.41-2.37-4.09-2.31s-3.32.67-5,.77a3.22,3.22,0,0,1-.62,0,10.79,10.79,0,0,1,1.23,1.75,42.24,42.24,0,0,1,2.87,7.85,29.78,29.78,0,0,0,6.33,4.73A15.31,15.31,0,0,1,65.89,61,31,31,0,0,1,68,64.08a4.34,4.34,0,0,0,3,2c1.24.1,2.59-1,2.33-2.22-.3-1.39-2.11-1.72-3.15-2.68A4.8,4.8,0,0,1,69,57.08a20.74,20.74,0,0,0,.46-4.42c-.15-1.48-1.13-3-2.62-3.18a5.89,5.89,0,0,0-2.58.69,2.78,2.78,0,0,1-2.59,0,2.7,2.7,0,0,1-.81-2.31A7.6,7.6,0,0,0,60.83,45.31Z"/>
        <path class="bc2763ff-b38e-46e8-ac97-fe5a4aea79c8" d="M81.18,55.58a2.46,2.46,0,0,0,1.24,2.6,20.46,20.46,0,0,0,2.84,1.23,3.13,3.13,0,0,1,2,2.22c.14,1.25-.91,2.56-.35,3.68.73,1.47,3.16.8,4.35,1.92,1.44,1.37-.06,4,1,5.7.72,1.13,2.35,1.32,3.63.93s2.4-1.22,3.65-1.71a7.52,7.52,0,0,1,3.67-.45,14.36,14.36,0,0,1-1.3-5.44,13.53,13.53,0,0,1,.28-2.19,17,17,0,0,0-3.56-.66,8.84,8.84,0,0,1-3.81-1.13,3.48,3.48,0,0,1-1.66-3.4c.28-1.38,1.6-2.27,2.34-3.48a6.76,6.76,0,0,0,.66-4.5A13.58,13.58,0,0,0,94.94,47c-.32-.16-.64-.31-1-.45-3.56-1.42-5-2.38-6-5.81-.93.47-2,1.87-2.79,2.41-1,.69-2.07,1.6-2.11,2.83s.9,2.13,1.7,3,1.56,2.08,1.11,3.18C85.11,54,81.79,53.68,81.18,55.58Z"/>
        <path class="bc2763ff-b38e-46e8-ac97-fe5a4aea79c8" d="M56.05,28.26c1,1.52,3.53,1.08,4.63,2.5.93,1.21.26,3.06,1,4.4s2.49,1.64,4,1.63a22.18,22.18,0,0,0,4.59-.51,6.55,6.55,0,0,0,3.07-1.34,2.77,2.77,0,0,0,.85-3c-.62-1.37-2.4-1.66-3.9-1.71s-3.27-.22-4-1.5a6.43,6.43,0,0,1-.53-2.6,9.24,9.24,0,0,1-4.25-2.19,7.39,7.39,0,0,0-5.29-2,2.34,2.34,0,0,1,.38,1A7.25,7.25,0,0,1,56,25.57,3.23,3.23,0,0,0,56.05,28.26Z"/>
        <path class="bc2763ff-b38e-46e8-ac97-fe5a4aea79c8" d="M95.24,93.16c3.31-1.73,6.89-4.91,7.83-8.68.22-.89.48-1.77.72-2.66l-.46.18-4,1.59A7.47,7.47,0,0,0,96.84,85,9.45,9.45,0,0,0,95,88.69a4.72,4.72,0,0,1-2.5,3.13,4.84,4.84,0,0,1-3.86-.8c-1.32-.75-3.92-1.87-5.4-1a15.64,15.64,0,0,0,.9,1.5C85.66,93.58,89.64,96.09,95.24,93.16Z"/>
        <path class="b7c92a8f-7e75-4da5-9d1f-8814f227ae96" d="M45.38,27.87a3,3,0,0,0-1.16,2.58,6.31,6.31,0,0,0,.91,2.78A15,15,0,0,0,55.87,40.7c1.34.2,3,.07,3.64-1.1a2.93,2.93,0,0,0-.73-3.26c-.8-.89-1.85-1.5-2.65-2.39-1-1.13-1.52-2.61-2.4-3.84-1.09-1.54-2.13-1.57-3.77-1.82S47,26.77,45.38,27.87Z"/>
      </g>
      <g>
        <g>
          <g>
            <path class="e6d4d031-fcb2-41b7-9b29-12788852a0c4" d="M105.4,122.16c14.73,12.87,57.51,13.23,80.12-12.66s19.88-58.17-1.75-77.07-54-17.26-76.6,8.63S91,109.58,105.4,122.16Z"/>
            <path class="a38d2b09-250c-46ba-8ccb-714525d558cb" d="M110.75,125.7c2-1.82,7.38-33.83,27.05-55.51,14.58-16.06,38.65-32.59,44.75-36.9a2.45,2.45,0,0,0,.89-2.87A7.14,7.14,0,0,0,181.82,28a5.49,5.49,0,0,0-5.44-1.11,1,1,0,0,0-.24.09c-2,.9-25.67,8.19-48.34,35.2-21.69,25.83-25.14,57.1-25.14,57.1s-.58,4.71,2.55,6.42C107.54,127,109.63,126.75,110.75,125.7Z"/>
            <path class="adcc3fb2-acaf-4a0d-9dc4-380b96fb10ad" d="M138.8,70.41C153,54,176.45,37.6,182.55,33.29a2.45,2.45,0,0,0,.89-2.87,6.34,6.34,0,0,0-.68-1.26c-15.06,5.35-30.55,18-40.62,27.47a121.45,121.45,0,0,0-27.68,40.24c-3.08,7.37-5.81,19.21-8.19,29.31,1.9.7,3.53.41,4.48-.48C112.7,123.88,121.13,90.75,138.8,70.41Z"/>
            <path class="a38b62f4-bfea-46b0-8385-54b79118ea0e" d="M185.52,109.5c15-17.16,18.83-37.13,13.43-54.15C197.56,69.15,191.8,83.41,183.6,93c-13,15.32-39.22,32.56-69.46,34.17C133,134.5,166.43,131.36,185.52,109.5Z"/>
          </g>
          <path class="a539c4f9-29d7-4e41-87ff-23885180ffb2" d="M143.11,82.8c-13.89,7.43-17.87,28.38-17.87,28.38S132,96.1,137.36,90.25C140.17,87.17,154.7,76.61,143.11,82.8Z"/>
          <path class="a539c4f9-29d7-4e41-87ff-23885180ffb2" d="M164.62,102.94A10.35,10.35,0,0,0,168,96.18c.51-5.23-.37-7.68,2.48-11,3.33-3.91,7.22-4.17,8.67-5.27s2.78-3.44,1.67-4.44-9.23,3.73-12.56,7.56-2.56,9.36-5.18,15.12c-3.27,7.22-19.35,9.45-19.35,9.45s-2.7.55-2,2.22C142.26,111.23,157.35,109.42,164.62,102.94Z"/>
          <path class="a4de8b2a-265c-4e4b-ba68-b7cec7ebbd94" d="M109.73,45.26c5.93-8.62,18.35-12.56,13.11-13.15-3.17-.36-7.32,4.34-15.24,11.42-9.49,8.47-6.48,22.91-5.33,22.62,1.65-.42-.69-4.72,1.44-12.81C105.21,47.64,108.58,46.93,109.73,45.26Z"/>
          <path class="a539c4f9-29d7-4e41-87ff-23885180ffb2" d="M113.84,64c1.33-3.67,2.67-8.67,9.34-11.34,5.06-2.86,9.48-6.66,7.87-8-.87-1.33-14.54,5.82-18.21,15.75s-6.91,17.48-5.45,17.48S112.51,67.64,113.84,64Z"/>
          <path class="a539c4f9-29d7-4e41-87ff-23885180ffb2" d="M163.94,70.44c1-2,1.89-5.82,4.35-9.4,2.94-4.25,4.89-5.38,9.53-8.36s9.42-4.43,9-5.21c-1.09-1.93-8.14.55-14.66,6.16-3,2.57-6.73,5.73-9.08,16.75C162.94,70.89,163.69,71,163.94,70.44Z"/>
          <path class="a539c4f9-29d7-4e41-87ff-23885180ffb2" d="M100.13,80.5c-2.9,9.54-1,25.31,0,27L100.41,93S103,71,100.13,80.5Z"/>
        </g>
        <path class="a4de8b2a-265c-4e4b-ba68-b7cec7ebbd94" d="M132.8,38c2.55-.67,7.08-6.89,12-8.45,7-2.2,10.33.67,12,.11s.68-3.2-7.89-3.44S130.24,38.63,132.8,38Z"/>
      </g>
    </g>
  </g>
</svg>
