<svg id="b784b0bd-24e8-4f3e-b6d4-9c2071467e28" data-name="Layer 1" xmlns="http://www.w3.org/2000/svg" xmlns:xlink="http://www.w3.org/1999/xlink" width="167.78" height="261.64" viewBox="0 0 167.78 261.64">
  <defs>
    <style>
      .f0ce52f3-2fd8-44de-aa8a-ae22a86e2bb0 {
        fill: none;
      }

      .b5586964-d3ee-4155-8ef1-7e8b99e949d3 {
        opacity: 0.5;
      }

      .f276aafb-d3db-4e4e-ac0e-781d63ae2be8 {
        fill: #fff;
      }

      .e414dcf1-2f37-401d-8d54-d373ad6156f1 {
        fill: #efe800;
        stroke: #938c00;
      }

      .a236ab1b-b1a3-45f1-ae64-250de41b2085, .e237e7f1-c666-476a-beb3-8cedfed7f099, .e414dcf1-2f37-401d-8d54-d373ad6156f1 {
        stroke-miterlimit: 10;
        stroke-width: 2px;
      }

      .a3ff86ea-cb71-43fc-9ae8-b151f1bf264f {
        fill: #fffef3;
      }

      .f6c306a1-326e-4b15-aefc-15b5ba309952 {
        fill: #ff0;
      }

      .af22d4f3-d2c7-47e5-925c-02bda5ae3032 {
        fill: #e7242b;
      }

      .bb143b8b-5f66-4ed0-bac9-7877e526d37c, .e237e7f1-c666-476a-beb3-8cedfed7f099 {
        fill: #ed152e;
      }

      .e237e7f1-c666-476a-beb3-8cedfed7f099 {
        stroke: #700;
      }

      .af24487b-3499-49c8-b91e-bb04620aad94 {
        clip-path: url(#ab85ec03-65cf-4a4b-bc60-6357f4f20fce);
      }

      .b793005f-e97d-478f-9f07-f25a59a18b8b {
        opacity: 0.43;
      }

      .bd08f4af-cf5e-4120-8d44-c060593b486f {
        opacity: 0.12;
      }

      .a94a86cd-52a8-40c9-9e86-596e1b9ecc16 {
        opacity: 0.21;
      }

      .a236ab1b-b1a3-45f1-ae64-250de41b2085 {
        fill: #bbefff;
        stroke: #008e87;
      }

      .b9997c22-f838-491a-ae5c-1b571585a217 {
        fill: #f74239;
        opacity: 0.96;
        isolation: isolate;
      }

      .f32fbe6d-79cd-4a7d-8606-fc4805bd853a {
        opacity: 0.49;
      }

      .a54741c2-9e2e-414c-be77-26761ee2523a {
        opacity: 0.29;
      }

      .a5870e5d-6206-4d76-b46c-7838a2f5a241 {
        clip-path: url(#b679a2f1-22bb-4b02-906e-98a111acfd9e);
      }

      .a078a8c7-ec53-4916-8b0d-5caff3e01580 {
        opacity: 0.65;
      }

      .b7c557c8-b201-4f3a-9fbc-3bd5bc3fd5dc {
        fill: #e25c56;
      }

      .f6b6e69e-864f-4bb8-a5b1-366a2deb0c86 {
        opacity: 0.46;
      }

      .a86c4250-b10f-4385-bbd4-c98618e45f2f {
        fill: #ff574a;
      }
    </style>
    <clipPath id="ab85ec03-65cf-4a4b-bc60-6357f4f20fce">
      <path class="f0ce52f3-2fd8-44de-aa8a-ae22a86e2bb0" d="M61.31,141.53l4.83-.24-6-124.47a4.78,4.78,0,0,0-4.46-4.5h-.2L10.77,13l.08,4.82,42.44-.61a2.08,2.08,0,0,1,2.11,2Z"/>
    </clipPath>
    <clipPath id="b679a2f1-22bb-4b02-906e-98a111acfd9e">
      <path class="f0ce52f3-2fd8-44de-aa8a-ae22a86e2bb0" d="M56,213h0v8.51A7.83,7.83,0,0,0,61.27,229a44.47,44.47,0,0,0,13,1.74,36.12,36.12,0,0,0,10.58-1.13,9.23,9.23,0,0,0,6.57-8.88V213h0c0-9.08,1.58-41.63,8.83-80.54,6.41-34.24,14.68-51.55,14.68-51.55H32.49s8.27,17.31,14.68,51.55C54.38,171.36,56,203.91,56,213Z"/>
    </clipPath>
  </defs>
  <g>
    <path class="b5586964-d3ee-4155-8ef1-7e8b99e949d3" d="M51.72,257.32A8,8,0,0,1,44,251.53c-1.23-4.29-1.08-10.91,3.41-15.41.86-.84,1.59-1.44,2.12-1.88h0c0-.36.08-.93.1-1.76a542.13,542.13,0,0,0-9.15-94.12C33.4,100,20.75,80.21,20.62,80a8,8,0,0,1,6.7-12.38H54.49L52.68,30.26l-36.83.53a8,8,0,0,1-8-7.86L7.77,18.1A8,8,0,0,1,10,12.4,8,8,0,0,1,15.65,10l45-.65H61a12.78,12.78,0,0,1,12,12s2.25,46.35,2.25,46.35h21a34.78,34.78,0,1,1,33.85,42.77,35.54,35.54,0,0,1-6.29-.56,238,238,0,0,0-7.13,28.51,542.63,542.63,0,0,0-9.14,94.11c0,.82.06,1.38.1,1.74h0c.54.46,1.29,1.08,2.13,1.91,4.49,4.5,4.64,11.12,3.41,15.41a8,8,0,0,1-7.69,5.79Z"/>
    <path class="f276aafb-d3db-4e4e-ac0e-781d63ae2be8" d="M46.72,252.32A8,8,0,0,1,39,246.53c-1.23-4.29-1.08-10.91,3.41-15.41.86-.84,1.59-1.44,2.12-1.88h0c0-.36.08-.93.1-1.76a542.13,542.13,0,0,0-9.15-94.12C28.4,95,15.75,75.21,15.62,75a8,8,0,0,1,6.7-12.38H49.49L47.68,25.26l-36.83.53a8,8,0,0,1-8-7.86L2.77,13.1A8,8,0,0,1,5,7.4,8,8,0,0,1,10.65,5l45-.65H56a12.78,12.78,0,0,1,12,12s2.25,46.35,2.25,46.35h21a34.78,34.78,0,1,1,33.85,42.77,35.54,35.54,0,0,1-6.29-.56,238,238,0,0,0-7.13,28.51,542.63,542.63,0,0,0-9.14,94.11c0,.82.06,1.38.1,1.74h0c.54.46,1.29,1.08,2.13,1.91,4.49,4.5,4.64,11.12,3.41,15.41a8,8,0,0,1-7.69,5.79Z"/>
    <g>
      <g>
        <circle class="e414dcf1-2f37-401d-8d54-d373ad6156f1" cx="125.23" cy="70.63" r="26.78"/>
        <circle class="a3ff86ea-cb71-43fc-9ae8-b151f1bf264f" cx="125.23" cy="70.63" r="24.71" transform="translate(35.45 182.93) rotate(-80.78)"/>
        <g>
          <path class="f6c306a1-326e-4b15-aefc-15b5ba309952" d="M125.34,67.72a36.86,36.86,0,0,1-1-11.29c.31-6.84-1.06-8.63,2.34-8.52a14,14,0,0,1,7,2c1.76,1,3.52,2.19,1.92,4.18s-6.88,10.91-8,12.31S125.72,69,125.34,67.72Z"/>
          <path class="f6c306a1-326e-4b15-aefc-15b5ba309952" d="M122.17,72.61s-15.55,5.11-16.37,7.07,1.56,5.55,3.36,6.95,3.67,2.62,4.49,1.84S124.67,71.78,122.17,72.61Z"/>
          <path class="f6c306a1-326e-4b15-aefc-15b5ba309952" d="M128.7,70.92a1,1,0,0,1-.32-1.64,10.25,10.25,0,0,1,2.15-1.36c3.24-1.57,12.35-5.59,13.79-5.16s2.62.15,3.17,4.22.51,5.54-1.29,5.43-10.51-.67-12.82-.79A16.8,16.8,0,0,1,128.7,70.92Z"/>
          <path class="f6c306a1-326e-4b15-aefc-15b5ba309952" d="M113.26,52.68s1.84,2.85,3.83,6.36,4.73,8.29,5.63,8.8,1.48-.55,1.33-2.39-.71-15.47-1.22-16.13-3-.86-4.84,0S113.54,51.78,113.26,52.68Z"/>
          <path class="f6c306a1-326e-4b15-aefc-15b5ba309952" d="M103.69,66.63s-1.76,4.53-.63,7.73,1.17,4.62,3.32,3.6,13.8-6,15.36-6.14.78-1.83-.43-1.95S105.33,66,103.69,66.63Z"/>
          <path class="f6c306a1-326e-4b15-aefc-15b5ba309952" d="M124.63,73.58s-.31-1.21-1.56.12-7.31,13.83-7.82,14.77,1,3.28,3.4,3.67,6.17,1.64,6.8.31S124.59,75.22,124.63,73.58Z"/>
          <path class="f6c306a1-326e-4b15-aefc-15b5ba309952" d="M112,53.61s-6.45,3.83-7.5,8-1.37,4,2.81,4.73,11.8,1.91,13.56,2.54S119,63,117.13,60.22,113.3,53.77,112,53.61Z"/>
          <path class="f6c306a1-326e-4b15-aefc-15b5ba309952" d="M128,71.59s8.79.78,12.15,1.25,7.35-.47,6.88,3.24-1.41,3.44-2.07,5-3.4,6.1-4.5,5.94-6.09-6.57-8.28-8.91S126.55,71.43,128,71.59Z"/>
          <path class="f6c306a1-326e-4b15-aefc-15b5ba309952" d="M127.87,68.54a.63.63,0,0,1-.62-1c1.52-2.07,6.09-8.24,7.07-9.76,1.17-1.84,2.7-5.2,4.53-4.22a13.13,13.13,0,0,1,4.77,5.12c1.29,2.22,1.25,2.26-.51,3.55s-11.52,4.34-13.24,5.39A6.73,6.73,0,0,1,127.87,68.54Z"/>
          <path class="f6c306a1-326e-4b15-aefc-15b5ba309952" d="M126.7,72.61s-.78-1-.82,2.26.82,7.39.67,9a32.4,32.4,0,0,0,.39,7.26,2.73,2.73,0,0,0,3.59,2c2.11-.67,9.69-3.56,9-4.93S127.8,74.36,126.7,72.61Z"/>
        </g>
      </g>
      <path class="af22d4f3-d2c7-47e5-925c-02bda5ae3032" d="M125.07,70.64H22.32s13.5,20.55,21.08,61.25a549.71,549.71,0,0,1,9.28,95.65h0c-.12,6.85-1.82,6.53-4.58,9.24s-1.38,7.54-1.38,7.54h53.91s1.38-4.78-1.38-7.54-4.46-2.39-4.58-9.24h0A549.71,549.71,0,0,1,104,131.89C111.57,91.19,125.07,70.64,125.07,70.64Z"/>
      <g>
        <g>
          <g>
            <path id="a1f68388-fd60-4efa-bd3d-2e694d12d1ab" data-name="SVGID" class="e237e7f1-c666-476a-beb3-8cedfed7f099" d="M61.31,141.53l4.83-.24-6-124.47a4.78,4.78,0,0,0-4.46-4.5h-.2L10.77,13l.08,4.82,42.44-.61a2.08,2.08,0,0,1,2.11,2Z"/>
            <g class="af24487b-3499-49c8-b91e-bb04620aad94">
              <g class="b793005f-e97d-478f-9f07-f25a59a18b8b">
                <path class="bb143b8b-5f66-4ed0-bac9-7877e526d37c" d="M64.72,142.83l4.86.93-6-130.39a4.77,4.77,0,0,0-4.46-4.5H59L7.33,9,6.8,14.22l48.8-.36a3.38,3.38,0,0,1,2.83,2.55Z"/>
              </g>
            </g>
            <g class="af24487b-3499-49c8-b91e-bb04620aad94">
              <g class="bd08f4af-cf5e-4120-8d44-c060593b486f">
                <path class="f276aafb-d3db-4e4e-ac0e-781d63ae2be8" d="M58,144.86l4.82-.25-6-124.47c-.16-2.43-.16-4.46-2.55-4.62l-53.7.29L.6,20.63l48.59.53a2.07,2.07,0,0,1,2.11,2Z"/>
              </g>
            </g>
          </g>
          <g class="a94a86cd-52a8-40c9-9e86-596e1b9ecc16">
            <path class="f276aafb-d3db-4e4e-ac0e-781d63ae2be8" d="M47.82,16c-4.26,1.17-10,.32-15.24.57-6,.24-13.58,1.62-19.34-.09-.85-.24-1-1.66,0-1.82C22,13.41,38.37,13.54,48,14.22,50.17,14.39,48.18,15.85,47.82,16Z"/>
          </g>
          <g class="a94a86cd-52a8-40c9-9e86-596e1b9ecc16">
            <path class="f276aafb-d3db-4e4e-ac0e-781d63ae2be8" d="M58.72,26.91c1.62,4.34,1.26,9.61,1.54,14.15.28,4.9,1.54,11.39.77,16.29-.16.93-1.91.45-2.31-.32-1.83-3.29-1-8.35-1.26-12.08-.61-7.74-1.58-11.88-1.05-17.55C56.69,24.15,58.72,26.91,58.72,26.91Z"/>
          </g>
        </g>
        <g>
          <path class="a236ab1b-b1a3-45f1-ae64-250de41b2085" d="M125.07,70.64H22.32s13.5,20.55,21.08,61.25a549.71,549.71,0,0,1,9.28,95.65h0c-.12,6.85-1.82,6.53-4.58,9.24s-1.38,7.54-1.38,7.54h53.91s1.38-4.78-1.38-7.54-4.46-2.39-4.58-9.24h0A549.71,549.71,0,0,1,104,131.89C111.57,91.19,125.07,70.64,125.07,70.64Z"/>
          <path class="b9997c22-f838-491a-ae5c-1b571585a217" d="M56,213h0v8.51A7.83,7.83,0,0,0,61.27,229a44.47,44.47,0,0,0,13,1.74,36.12,36.12,0,0,0,10.58-1.13,9.23,9.23,0,0,0,6.57-8.88V213h0c0-9.08,1.58-41.63,8.83-80.54,6.41-34.24,14.68-51.55,14.68-51.55H32.49s8.27,17.31,14.68,51.55C54.38,171.36,56,203.91,56,213Z"/>
          <g class="f32fbe6d-79cd-4a7d-8606-fc4805bd853a">
            <path class="f276aafb-d3db-4e4e-ac0e-781d63ae2be8" d="M26.62,73.36c7.05.89,14.1.85,21.2,1.09,3.52.13,7,.45,10.61.53,3.86.08,7.79,1.22,11.48-.2a.51.51,0,0,0,0-1C62.57,71.7,53.65,72.27,46,72c-4-.12-8,0-12,.12-2.63.08-5.1-.4-7.49.73-.25.08-.09.45.16.49Z"/>
          </g>
          <g class="f32fbe6d-79cd-4a7d-8606-fc4805bd853a">
            <path class="f276aafb-d3db-4e4e-ac0e-781d63ae2be8" d="M83.89,74.29c6.4.85,12.77,1.18,19.21,1.42,4.54.16,12.16,2.07,16-1a.61.61,0,0,0-.12-.94c-1.62-.89-2.56-.64-4.46-.56-3.12.12-6.36-.33-9.48-.45a121.23,121.23,0,0,0-21,.45c-.61.08-.85,1-.16,1.09Z"/>
          </g>
          <g class="f32fbe6d-79cd-4a7d-8606-fc4805bd853a">
            <path class="f276aafb-d3db-4e4e-ac0e-781d63ae2be8" d="M85.91,238.89c-4.78-.37-9.52-.53-14.34-.49a51.79,51.79,0,0,1-7.87-.28c-2.91-.41-5.43-2.15-8.1-3.24-3.45-1.42-5,4.25-1.54,5.59,10.45,4.05,21.44,2.88,32.1.08.93-.24.65-1.58-.25-1.66Z"/>
          </g>
          <g class="f32fbe6d-79cd-4a7d-8606-fc4805bd853a">
            <path class="f276aafb-d3db-4e4e-ac0e-781d63ae2be8" d="M92.08,240.19a2.46,2.46,0,0,1,.52,0c-.36-.08-.73-.21-1.09-.29.2.12.16.08-.16-.12a2.74,2.74,0,0,0,1.21.73,3.2,3.2,0,0,0,2,.08,2.52,2.52,0,0,0,.61-4.54,3.34,3.34,0,0,0-2.64-.36,6.17,6.17,0,0,0-1.54.81,1.95,1.95,0,0,0,1.06,3.65Z"/>
          </g>
          <g class="a54741c2-9e2e-414c-be77-26761ee2523a">
            <path class="f276aafb-d3db-4e4e-ac0e-781d63ae2be8" d="M81.09,236.86c-3.32.16-6.6-1.21-9.85-1.94-3.52-.81-6.52-2.52-9.85-3.77-4.86-1.87-7.7,5.67-3.44,8.18,6.2,3.73,17.51,3.37,23.75-.28a1.2,1.2,0,0,0-.61-2.19Z"/>
          </g>
          <g class="a54741c2-9e2e-414c-be77-26761ee2523a">
            <path class="f276aafb-d3db-4e4e-ac0e-781d63ae2be8" d="M79.63,74.74c7.74,1.54,17.88,3.36,25.46.48a.63.63,0,0,0,0-1.21c-3.69-1.46-7.83-1.3-11.76-1.46-4.54-.2-9.24-.61-13.7.24a1,1,0,0,0,0,1.95Z"/>
          </g>
          <path class="f276aafb-d3db-4e4e-ac0e-781d63ae2be8" d="M92.56,75c7.22.77,16.25,3.53,23.06,0,.57-.28.21-1-.28-1-3.44-.45-7,0-10.5,0-4.13,0-8.14,0-12.28.36-.44,0-.4.61,0,.69Z"/>
          <path class="f276aafb-d3db-4e4e-ac0e-781d63ae2be8" d="M67.07,238.6c-.57-.08-1.1-.6-1.62-.81-.77-.32-1.54-.64-2.31-.93a12.8,12.8,0,0,1-2.11-1c-.61-.33-.65-.81-1.18-1.3a1.92,1.92,0,0,0-3,.37c-1.37,2.55,1.5,4.25,3.53,4.94a11.33,11.33,0,0,0,3.69.53c1,0,1.9-.45,2.8-.49.68,0,.93-1.17.16-1.3Z"/>
          <g>
            <g class="a5870e5d-6206-4d76-b46c-7838a2f5a241">
              <g class="a078a8c7-ec53-4916-8b0d-5caff3e01580">
                <path class="b7c557c8-b201-4f3a-9fbc-3bd5bc3fd5dc" d="M77.12,230.78l.12.12c-1,2.56-2.07,5.07-3.08,7.62,4.14-2.83,6.16-3.6,7-8.22,1.46-7.38.08-18.49-.24-25.82-.73-15.16.08-30.24.2-45.36,0-7.41,2.64-36,4.06-42.72,1.66-8,2.51-16.17,3.52-24.23a55.2,55.2,0,0,0,.61-11.56c-.32-4.13-1.62-8.1-1.82-12.24-.33-6.68-5.35-12.28-12.28-12.28-6.45,0-51.44,10.91-51.11,17.59.2,4.06,5.51,6.77,6.32,10.74.65,3.25,8.35,44.22,7.7,52.78-.61,8,8.71,17.3,8.55,25.33-.36,16.21,5.88,32.67,8.31,48.92,1,7-5.23,13.37-3.53,19.62.86,3.16,11.31,5.63,14.23,7.33a10,10,0,0,0,4.58,1.22c5.92,0-4.62.24,1.74.08a6,6,0,0,0,5.07-8.92Z"/>
              </g>
            </g>
            <g class="a5870e5d-6206-4d76-b46c-7838a2f5a241">
              <g class="a078a8c7-ec53-4916-8b0d-5caff3e01580">
                <path class="b7c557c8-b201-4f3a-9fbc-3bd5bc3fd5dc" d="M72.3,226.65l.12.12-1.83,8c3.61-3.49-7.78-114.26-7.49-121.11.32-8.15-1.83-17.55-2.15-25.7a57.59,57.59,0,0,0-1.3-11.51c-1-4-3-7.74-3.85-11.75-1.42-6.53-7.3-11.23-14.15-10.1-6.36,1.06-49,19.22-47.54,25.74.85,3.93,6.57,5.76,8,9.57C3.27,93,17.62,132.17,18.39,140.72c.73,8,11.47,15.65,12.61,23.59,2.35,16.09,11.14,31.25,16.25,46.9,2.19,6.68-2.92,14-.24,19.94,1.33,3,12.07,3.69,15.23,4.9a9.9,9.9,0,0,0,4.75.45c5.83-1-4.5,1,1.7-.21a6,6,0,0,0,3.61-9.64Z"/>
              </g>
            </g>
            <g class="a5870e5d-6206-4d76-b46c-7838a2f5a241">
              <g class="f6b6e69e-864f-4bb8-a5b1-366a2deb0c86">
                <path class="a86c4250-b10f-4385-bbd4-c98618e45f2f" d="M130.58,58.93c-5.84-4-14.55.32-17.75,4.54-4.26,5.55-9.65,28.62-10.38,30.64a150.91,150.91,0,0,0-5.23,17.71c-3,12.45-3.89,21.53-7.5,37-1.17,5-2.22,21.44-3.24,27.56-1,5.84-1.13,18.81-1.7,24.72-.49,5.52.61,28.46,1.18,33.56.85,7.5,9.16,12.49,17.3,12.49,6.93,0,6.49-6.16,5.51-13.66-.44-3.61-1.9-7.46-5.47-9.12-1.13-.53-2.23-1-3.4-1.46-9-2.47.93,1,.48.69L104.8,228c2.31,3.77.81,5,1.1,1.09a36.83,36.83,0,0,1,1.17-4.94,82,82,0,0,0,1.62-13.79,198.07,198.07,0,0,1,2.56-23.95c1.58-9.12,3.89-17.91,4.5-27.2.6-8.87.73-17.63,2.06-26.42,1.3-8.59,2.15-17.19,4-25.7,1.22-5.59,3-10.94,3.86-16.62a147.3,147.3,0,0,1,2.59-14.83c.53-2.19.93-4.46,1.46-6.65.28-1.25,1.54-1.7,2.67-3.4,1.5-2.31.25-5.23-1.78-6.65Z"/>
              </g>
            </g>
            <g class="a5870e5d-6206-4d76-b46c-7838a2f5a241">
              <g class="f6b6e69e-864f-4bb8-a5b1-366a2deb0c86">
                <path class="a86c4250-b10f-4385-bbd4-c98618e45f2f" d="M133.82,58.93c-5.83-4-14.55.32-17.75,4.54-4.26,5.55-9.65,28.62-10.38,30.64a150.86,150.86,0,0,0-5.22,17.71c-3,12.45-3.9,21.53-7.5,37-1.18,5-2.23,21.44-3.25,27.56-1,5.84-1.13,18.81-1.7,24.72-.48,5.52.61,28.46,1.18,33.56.85,7.5,9.16,12.49,17.3,12.49,6.94,0,6.49-6.16,5.52-13.66-.45-3.61-1.91-7.46-5.47-9.12-1.14-.53-2.23-1-3.41-1.46-9-2.47.93,1,.49.69L108,228c2.32,3.77.82,5,1.1,1.09a36.83,36.83,0,0,1,1.17-4.94,83.05,83.05,0,0,0,1.63-13.79,196.06,196.06,0,0,1,2.55-23.95c1.58-9.12,3.89-17.91,4.5-27.2.61-8.87.73-17.63,2.07-26.42,1.29-8.59,2.14-17.19,4-25.7,1.21-5.59,3-10.94,3.85-16.62.73-5,1.38-10,2.59-14.83.53-2.19.93-4.46,1.46-6.65.28-1.25,1.54-1.7,2.68-3.4,1.54-2.31.24-5.23-1.79-6.65Z"/>
              </g>
            </g>
          </g>
          <path class="f276aafb-d3db-4e4e-ac0e-781d63ae2be8" d="M100.63,93.63c-4.87,8-6,19.49-8.31,28.41a198.1,198.1,0,0,0-4.7,23.42c-1.42,10.5-2.43,21-3.2,31.58-.61,8.19-1.38,16.66-.53,24.84.24,2.48,4.13,2.56,3.93,0-1.46-18.19,1.34-37.24,3.53-55.32A210.34,210.34,0,0,1,95.76,123c1.34-5.76,2.15-11.67,3.45-17.43.85-3.73,2.23-7.94,1.86-11.79-.08-.25-.32-.33-.44-.12Z"/>
        </g>
      </g>
    </g>
  </g>
</svg>
