<svg id="aacd43ad-fc12-40d4-96a4-000c9b643afd" data-name="Layer 1" xmlns="http://www.w3.org/2000/svg" width="270.1" height="196" viewBox="0 0 270.1 196">
  <defs>
    <style>
      .b77a348e-b4c3-4eb6-84ab-9079f905acc4 {
        opacity: 0.5;
      }

      .ed6af6de-38f1-4ab9-a4dc-a508fcad47c3 {
        fill: #fff;
      }

      .a390ab15-f69b-4130-9fb8-d6534b74f2dc, .ba9e086e-f22e-4431-8543-a07268847aeb {
        fill: #ffc400;
      }

      .a390ab15-f69b-4130-9fb8-d6534b74f2dc {
        stroke: #666800;
      }

      .a390ab15-f69b-4130-9fb8-d6534b74f2dc, .fdb874f7-1a4c-4b65-85db-312ce2f4ba6d {
        stroke-miterlimit: 10;
        stroke-width: 0.75px;
      }

      .fdb874f7-1a4c-4b65-85db-312ce2f4ba6d {
        fill: #6fa0ef;
        stroke: #6b6b6b;
      }
    </style>
  </defs>
  <g>
    <path class="b77a348e-b4c3-4eb6-84ab-9079f905acc4" d="M128.56,191.68a31,31,0,0,1-19.64-6.74,59.11,59.11,0,0,1-19.76,3.31h-.87c-6.76,0-14.82-1.76-20.37-6.32a61.68,61.68,0,0,1-16.82,2.73c-.94,0-1.89,0-2.81-.1-7.56-.55-18.64-2-27.77-8.27a20.89,20.89,0,0,1-9.37-14.17,19.74,19.74,0,0,1,4.55-15.39c7-8.51,16.73-13,28.08-13,.84,0,1.68,0,2.54.07A14.12,14.12,0,0,1,52,129.11a8.7,8.7,0,0,1-2.75-4c-2.53-7.77,5.75-11.53,10.2-13.55,2.23-1,4.89-2.12,7.71-3.27-3-.21-5.89-.45-8.32-.73C53.93,107,44.88,106,44.88,97.79s9.11-9.25,14-9.8c2.4-.28,5.21-.52,8.18-.73C64.28,86.12,61.64,85,59.43,84,55,82,46.68,78.21,49.19,70.44c.45-1.4,2.43-6,9-6,3.16,0,8.13,1,15.44,2.86-2.34-2-4.56-3.88-6.38-5.55-3.59-3.29-10.28-9.41-5.51-16a8.42,8.42,0,0,1,7-3.49c3.43,0,7,1.73,17.21,8.06-1.6-2.58-3.09-5-4.29-7.16C79,38.64,74.7,31,81.27,26.22a8.32,8.32,0,0,1,5-1.62c4.59,0,7.59,2.72,16.65,13.47-.73-3-1.4-5.79-1.89-8.19-1-4.8-2.82-13.72,5-16.23a8.11,8.11,0,0,1,2.56-.4c6.23,0,8.83,5.78,11.13,10.88,1,2.17,2,4.73,3.13,7.42.22-3,.46-5.89.73-8.32.56-4.86,1.58-13.91,9.79-13.91s9.24,9.08,9.8,14c.27,2.41.51,5.23.72,8.21,1.1-2.69,2.17-5.25,3.15-7.41,2.3-5.1,4.91-10.88,11.1-10.88a8.27,8.27,0,0,1,2.57.4c7.79,2.52,6,11.45,5,16.25-.49,2.4-1.16,5.22-1.89,8.17,9.07-10.75,12.07-13.47,16.66-13.47a8.38,8.38,0,0,1,4.91,1.58c6.66,4.77,2.17,12.69-.25,17-1.21,2.14-2.72,4.62-4.34,7.22C190.92,44,194.5,42.23,198,42.23a8.45,8.45,0,0,1,7,3.53c4.75,6.6-2,12.74-5.55,16-1.81,1.66-4,3.54-6.32,5.5,7.29-1.81,12.25-2.86,15.4-2.86,6.56,0,8.54,4.57,9,6C220,78.17,211.7,81.93,207.25,84c-2.23,1-4.89,2.12-7.71,3.26,3.07.22,6,.46,8.46.74,4.87.56,13.93,1.58,13.93,9.79s-9.11,9.25-14,9.8c-2.4.28-5.22.52-8.19.74,1.91.77,3.74,1.53,5.42,2.26.47,0,1,0,1.42,0,11.81,0,23.06,4.92,29.9,12.81,6.37.3,13.24,1.4,19,6a22.62,22.62,0,0,1,8.63,18,25.11,25.11,0,0,1-9.4,19.32c-9.66,7.86-21.5,11.19-31.81,13.4a118.71,118.71,0,0,1-24.48,2.87h0a71.61,71.61,0,0,1-16.54-1.81,39.68,39.68,0,0,1-17.68,8.28,34.92,34.92,0,0,1-6.57.61,33.91,33.91,0,0,1-13.79-2.84A30.29,30.29,0,0,1,128.56,191.68Z"/>
    <path class="ed6af6de-38f1-4ab9-a4dc-a508fcad47c3" d="M123.56,186.68a31,31,0,0,1-19.64-6.74,59.11,59.11,0,0,1-19.76,3.31h-.87c-6.76,0-14.82-1.76-20.37-6.32a61.68,61.68,0,0,1-16.82,2.73c-.94,0-1.89,0-2.81-.1-7.56-.55-18.64-2-27.77-8.27a20.89,20.89,0,0,1-9.37-14.17,19.74,19.74,0,0,1,4.55-15.39c7-8.51,16.73-13,28.08-13,.84,0,1.68,0,2.54.07A14.12,14.12,0,0,1,47,124.11a8.7,8.7,0,0,1-2.75-4c-2.53-7.77,5.75-11.53,10.2-13.55,2.23-1,4.89-2.12,7.71-3.27-3-.21-5.89-.45-8.32-.73C48.93,102,39.88,101,39.88,92.79s9.11-9.25,14-9.8c2.4-.28,5.21-.52,8.18-.73C59.28,81.12,56.64,80,54.43,79,50,77,41.68,73.21,44.19,65.44c.45-1.4,2.43-6,9-6,3.16,0,8.13,1.05,15.44,2.86-2.34-2-4.56-3.88-6.38-5.55-3.59-3.29-10.28-9.41-5.51-16a8.42,8.42,0,0,1,7-3.49c3.43,0,7,1.73,17.21,8.06-1.6-2.58-3.09-5-4.29-7.16C74,33.64,69.7,26,76.27,21.22a8.32,8.32,0,0,1,5-1.62c4.59,0,7.59,2.72,16.65,13.47-.73-3-1.4-5.79-1.89-8.19-1-4.8-2.82-13.72,5-16.23a8.11,8.11,0,0,1,2.56-.4c6.23,0,8.83,5.78,11.13,10.88,1,2.17,2,4.73,3.13,7.42.22-3,.46-5.89.73-8.32.56-4.86,1.58-13.91,9.79-13.91s9.24,9.08,9.8,14c.27,2.41.51,5.23.72,8.21,1.1-2.69,2.17-5.25,3.15-7.41,2.3-5.1,4.91-10.88,11.1-10.88a8.27,8.27,0,0,1,2.57.4c7.79,2.52,6,11.45,5,16.25-.49,2.4-1.16,5.22-1.89,8.17,9.07-10.75,12.07-13.47,16.66-13.47a8.38,8.38,0,0,1,4.91,1.58c6.66,4.77,2.17,12.69-.25,17-1.21,2.14-2.72,4.62-4.34,7.22C185.92,39,189.5,37.23,193,37.23a8.45,8.45,0,0,1,7,3.53c4.75,6.6-2,12.74-5.55,16-1.81,1.66-4,3.54-6.32,5.5,7.29-1.81,12.25-2.86,15.4-2.86,6.56,0,8.54,4.57,9,6C215,73.17,206.7,76.93,202.25,79c-2.23,1-4.89,2.12-7.71,3.26,3.07.22,6,.46,8.46.74,4.87.56,13.93,1.58,13.93,9.79s-9.11,9.25-14,9.8c-2.4.28-5.22.52-8.19.74,1.91.77,3.74,1.53,5.42,2.26.47,0,1,0,1.42,0,11.81,0,23.06,4.92,29.9,12.81,6.37.3,13.24,1.4,19,6a22.62,22.62,0,0,1,8.63,18,25.11,25.11,0,0,1-9.4,19.32c-9.66,7.86-21.5,11.19-31.81,13.4a118.71,118.71,0,0,1-24.48,2.87h0a71.61,71.61,0,0,1-16.54-1.81,39.68,39.68,0,0,1-17.68,8.28,34.92,34.92,0,0,1-6.57.61,33.91,33.91,0,0,1-13.79-2.84A30.29,30.29,0,0,1,123.56,186.68Z"/>
    <g>
      <g>
        <path class="a390ab15-f69b-4130-9fb8-d6534b74f2dc" d="M208.93,92.74c0,3.15-42.89,2.92-43.36,5.91s40.36,16.06,39.42,19-41.66-10.54-43.05-7.84,33.43,27.8,31.64,30.27-36.4-23-38.57-20.72,23.26,36.71,20.73,38.52-27.52-33-30.28-31.64,10.78,42.1,7.84,43-15.89-39.92-19-39.41-2.75,43.36-5.91,43.36-2.92-42.9-5.91-43.36-16.06,40.36-19,39.41,10.54-41.65,7.84-43S83.5,159.68,81,157.9s22.91-36.35,20.73-38.52S65,142.64,63.23,140.11s33-27.52,31.65-30.28-42.11,10.78-43,7.84,39.92-15.89,39.41-19S47.88,96,47.88,92.79s42.9-2.92,43.36-5.91S50.86,70.82,51.8,67.9s41.65,10.54,43.05,7.83S61.42,47.93,63.21,45.46s36.43,22.92,38.52,20.73S78.53,29.48,81,27.67s27.52,33,30.27,31.64-10.77-42.1-7.83-43,15.89,39.92,19,39.42,2.75-43.36,5.91-43.36,2.89,42.84,5.91,43.31,16.06-40.36,19-39.42-10.54,41.65-7.84,43.05,27.8-33.43,30.27-31.64S152.72,64,154.9,66.14s36.71-23.26,38.53-20.73-33,27.52-31.65,30.27,42.11-10.77,43.05-7.83-39.92,15.89-39.41,19S208.93,89.58,208.93,92.74Z"/>
        <circle class="ba9e086e-f22e-4431-8543-a07268847aeb" cx="128.38" cy="92.74" r="46.1"/>
      </g>
      <path class="fdb874f7-1a4c-4b65-85db-312ce2f4ba6d" d="M245.54,130.58c-4.94-3.92-11.72-4.26-17.39-4.36h-.74c-9.44-15-37.55-17.59-45.34-3a14.43,14.43,0,0,0-5.49-7.7,8.77,8.77,0,0,0-5.42-1.5,21.78,21.78,0,0,0-2.29-11.14c-3.47-6.44-9.88-7.46-15.58-6.44a22,22,0,0,0-15,11.14,15.75,15.75,0,0,0-1.47,4.26c-3.21-2.87-7.7-3.92-11.46-3.92-6,0-13.57,2.65-16.29,9.88a10.43,10.43,0,0,0-.46,6.21c-3-2.42-7-1.84-9.69.91a22.14,22.14,0,0,0-1.38-3.1c-3.76-6.67-11.81-7.12-17.69-6.54-6.59.68-22.44,7.46-24.28,17.47a6.49,6.49,0,0,0-1.91-1.37c-3.13-1.5-6.68,1.73-7.23,5.75a.54.54,0,0,1-.08.34c-10.54-1.94-21.44-.34-29.41,9.3-5.41,6.67-2.83,13.9,3.13,17.92,7.05,4.83,15.93,6.31,23.81,6.88,6.49.45,13.09-1.15,19.42-3.11l2.21-.68c3.29,6,12.64,7.46,17.87,7.46,6.5.1,15.3-1,22.34-4.84a22.41,22.41,0,0,0,17.87,8.28,23,23,0,0,0,14.74-6.09c5.68,4.25,13.45,5,19.42,3.92a31.78,31.78,0,0,0,14.74-7.13,19.22,19.22,0,0,0,2.29-2.18c13.45,4.25,27.86,2.87,41.5,0,9.7-2.08,20.16-5,28.49-11.82C252.31,149.31,253.89,137.35,245.54,130.58Z"/>
    </g>
  </g>
</svg>
