<svg id="bb15f700-dc1b-42d0-aa5d-aaad21b204a7" data-name="Layer 1" xmlns="http://www.w3.org/2000/svg" width="241.8" height="155.63" viewBox="0 0 241.8 155.63">
  <defs>
    <style>
      .f766390f-c3fe-486b-bf70-5f4cbad6f8d4 {
        opacity: 0.5;
      }

      .ec1aa8d1-735d-4235-8d28-57b8d38ec65f {
        fill: #fff;
      }

      .e03425cc-55fa-4782-a62e-e81f008b92c8 {
        fill: #ff7900;
      }

      .aed05bb2-bffa-448a-8d03-e0ae6fab7ccf, .bd2622da-0f39-4aa5-b218-509cabb58590, .e03425cc-55fa-4782-a62e-e81f008b92c8 {
        stroke: #722e00;
        stroke-miterlimit: 10;
        stroke-width: 2px;
      }

      .a471c3f5-c409-4360-a52d-bf50f7eadd28 {
        fill: #ea6b03;
      }

      .b9c1ac2b-6c3e-40e8-a823-0e2347ad0de2 {
        fill: #c65500;
      }

      .e8bb82ac-b11d-4d32-8852-433ca0eacb99 {
        fill: #584a27;
      }

      .a83dbe26-43c3-4b82-b765-658f617476de {
        fill: #7f7a41;
      }

      .aed05bb2-bffa-448a-8d03-e0ae6fab7ccf {
        fill: #db5a03;
      }

      .bd2622da-0f39-4aa5-b218-509cabb58590, .bf4a292c-fae6-47d3-a359-f696ae870d8a {
        fill: #fff3bf;
      }

      .b7e4072a-07c1-45d2-9e5c-896003a6e102 {
        fill: #fe8d03;
      }

      .e8f8b003-d834-4a28-a65e-ce0d27a7bf31 {
        fill: #fe9a01;
      }

      .e8c9deb5-0dee-4e61-94f4-8e3a89f77633 {
        fill: #ffad01;
      }

      .b366bf4b-9b0f-496f-9150-d3c861145184 {
        fill: #febc0f;
      }

      .af502f0b-e558-4d73-933e-1a5390f40f55 {
        fill: #f79a01;
      }

      .ad4be7ed-7ab5-478f-8f59-740529f3bfd3 {
        fill: #fed18e;
      }

      .b1ed50b9-7af3-44da-8d0b-8b7c818c88b7 {
        fill: #ffd67a;
      }
    </style>
  </defs>
  <g>
    <path class="f766390f-c3fe-486b-bf70-5f4cbad6f8d4" d="M158.5,153.47c-17,0-32.61-3.37-43.09-9.15-10.56,6.06-23,9.13-37.08,9.13a68.46,68.46,0,0,1-49.87-21.24C15.23,118.42,8,99.6,8,79.22A80.61,80.61,0,0,1,10.47,59C18.58,27.76,45.85,6.75,78.33,6.75c30.24,0,56.16,18.21,66.05,46.38a78.82,78.82,0,0,1,4.33,26.09c0,.8,0,1.6,0,2.41,1.37-.39,2.69-.7,3.93-1,1.52-.35,3-.68,4.23-1.11a47.29,47.29,0,0,1,4.8-1.2A19.1,19.1,0,0,0,166.29,77c1-.55,2.11-1.23,3.25-1.94a38.81,38.81,0,0,1,7.94-4.14c2.08-.76,4.13-1.42,6.21-2a33.74,33.74,0,0,0,4.72-1.78A34.89,34.89,0,0,1,194.55,65c.82-.21,1.59-.43,2.36-.65.93-.26,1.85-.52,2.79-.76l.17,0c1.73-.45,3.37-.87,4.84-1.41a7.3,7.3,0,0,0,1.61-.73l.34-.32a7.66,7.66,0,0,1,.88-.74,16.4,16.4,0,0,1,3.91-2.5,7.53,7.53,0,0,1,1-.37,10.72,10.72,0,0,1,1.81-.43,10.38,10.38,0,0,1,1.25-.13,11,11,0,0,1,3.93-2.52,14.57,14.57,0,0,1,4-.91,14.07,14.07,0,0,1,1.53-.07h1.28a7.44,7.44,0,0,1,4,1.18,7.33,7.33,0,0,1,3,3.88l.1.29c6.7,19.42,6.75,38.07.11,53.86-7.05,16.78-21.26,29.25-41.08,36.07A67.49,67.49,0,0,1,178,152,128.09,128.09,0,0,1,158.5,153.47Z"/>
    <path class="ec1aa8d1-735d-4235-8d28-57b8d38ec65f" d="M153.91,148.88c-17,0-32.62-3.37-43.09-9.15-10.56,6.06-23,9.13-37.08,9.13a68.46,68.46,0,0,1-49.87-21.24C10.64,113.83,3.36,95,3.36,74.63a80.61,80.61,0,0,1,2.52-20.2C14,23.17,41.26,2.16,73.74,2.16c30.24,0,56.16,18.21,66.05,46.38a78.82,78.82,0,0,1,4.33,26.09q0,1.2,0,2.4c1.37-.38,2.69-.69,3.93-1,1.52-.35,2.95-.68,4.23-1.11a47.29,47.29,0,0,1,4.8-1.2,19.55,19.55,0,0,0,4.65-1.36c1-.55,2.11-1.23,3.25-1.94a38.81,38.81,0,0,1,7.94-4.14c2.08-.76,4.13-1.42,6.21-2a33.74,33.74,0,0,0,4.72-1.78A34.89,34.89,0,0,1,190,60.45c.82-.21,1.59-.43,2.36-.65.93-.26,1.85-.52,2.79-.76l.17,0c1.73-.45,3.37-.87,4.84-1.41a6.92,6.92,0,0,0,1.6-.73l.35-.32a7.66,7.66,0,0,1,.88-.74,16.72,16.72,0,0,1,3.91-2.51,9.19,9.19,0,0,1,1-.36,10.72,10.72,0,0,1,1.81-.43,10.38,10.38,0,0,1,1.25-.13,11,11,0,0,1,3.93-2.52,14.57,14.57,0,0,1,4-.91,14.07,14.07,0,0,1,1.53-.07h1.28a7.44,7.44,0,0,1,4,1.18,7.33,7.33,0,0,1,3,3.88l.1.29c6.7,19.42,6.75,38.07.11,53.86-7,16.78-21.26,29.25-41.08,36.07a67.49,67.49,0,0,1-14.38,3.23A128.09,128.09,0,0,1,153.91,148.88Z"/>
    <g>
      <g>
        <g>
          <path class="e03425cc-55fa-4782-a62e-e81f008b92c8" d="M136.77,74.63c0,38.55-22.16,66.88-63,66.88-34.81,0-63-28.3-63-66.88A72.91,72.91,0,0,1,13,56.28C20.36,27.88,44.77,9.5,73.74,9.5,100.84,9.5,124,25.63,132.86,51A71.54,71.54,0,0,1,136.77,74.63Z"/>
          <path class="a471c3f5-c409-4360-a52d-bf50f7eadd28" d="M132.43,50.94a61.82,61.82,0,0,0-3.45-8c0,.43,0,.87.06,1.3a15.19,15.19,0,0,0,.8,3.91c.33.9,1,1.56,1.39,2.42a2.78,2.78,0,0,1-.23,2.33,3.77,3.77,0,0,1-2.06,1.65c-1.06.5-2.12.93-2.39,2.23a16.73,16.73,0,0,0,.1,4.24,15.79,15.79,0,0,1-.36,3.36,18.19,18.19,0,0,1-.77,3.28,13.46,13.46,0,0,1-1.62,2.89,4.16,4.16,0,0,0-.73,2.82c.1,1.29.43,2.48.6,3.74a3.69,3.69,0,0,1-.6,2.69,3.94,3.94,0,0,1-2.42,1.63,10.82,10.82,0,0,0-3.15.73c-.37.2-.7.5-.54,1a5.44,5.44,0,0,1,.3.83,12.74,12.74,0,0,1-.1,1.63c.07,1.29.37,2.62-.16,3.85A7.29,7.29,0,0,1,114.74,92a5.51,5.51,0,0,0-2,3c-.17.9,0,1.82-.13,2.72a8.18,8.18,0,0,1-1.36,3.68c-1.56,2.33-3.89,3.92-5.68,6-.79,1-.63,2.36-1.32,3.39a1.86,1.86,0,0,1-1.2.82,3.58,3.58,0,0,0-1.92.5,22.6,22.6,0,0,0-1.73,1.66,2.39,2.39,0,0,1-1.23.66,13.83,13.83,0,0,1-3.15,0,5.43,5.43,0,0,0-2.88.3,5.22,5.22,0,0,0-1.13,1.3,7.57,7.57,0,0,1-2.69,2.12c-2.35,1.06-4.61-.36-6.87-.93a7.67,7.67,0,0,0-4.14-.1c-1.1.33-2.06,1-3.19,1.26a10,10,0,0,1-4.11,0,43,43,0,0,0-4.48-.53,14.4,14.4,0,0,1-4-.4c-1.1-.36-2.13-.89-3.19-1.32a10.52,10.52,0,0,0-4.38-1,8.54,8.54,0,0,1-3.88-.53,3.32,3.32,0,0,1-1.39-1.06,6.75,6.75,0,0,1-.57-1.36c-.23-.69-.49-1.33-1.36-1.36-.56,0-1.09.2-1.62.17-.9,0-1.79-1.06-2.19-1.79a17.38,17.38,0,0,1-.83-2.59,5.52,5.52,0,0,0-2.32-3.12A17,17,0,0,1,37,102c-1.92-1.69-1.19-4.35-1.12-6.6a4.53,4.53,0,0,0-1.2-3.62,10.11,10.11,0,0,0-3.35-1.62,6.5,6.5,0,0,1-2.82-2A9.38,9.38,0,0,1,27,84.68c-.29-1.32-.43-2.65-.69-4a7,7,0,0,0-1.26-3.52c-.7-.76-1.5-1.55-1.3-2.68.23-1.43,1.13-2.76.87-4.22a6.65,6.65,0,0,0-1.43-2.58,5,5,0,0,1-1-2.92c0-2.46,3-4.48,1.63-7-.56-1-1.43-2-1.59-3.22a7.42,7.42,0,0,1,.26-3.71,21.13,21.13,0,0,1,1.69-3.36,12.88,12.88,0,0,0,1.73-3.58c.56-2.29-.33-4.54-1-6.7a15.46,15.46,0,0,1-.6-3.65,63.38,63.38,0,0,0-11,22.73A72.31,72.31,0,0,0,11.17,74.6c0,38.45,28,66.65,62.57,66.65,40.57,0,62.57-28.24,62.57-66.65A72,72,0,0,0,132.43,50.94Z"/>
          <path class="b9c1ac2b-6c3e-40e8-a823-0e2347ad0de2" d="M136.31,74.5c0,38.32-22,66.42-62.57,66.42-34.54,0-62.57-28.14-62.57-66.42a73.1,73.1,0,0,1,2.25-18.22,27.29,27.29,0,0,0,.43,6.37c1,5.31,3.62,10.25,4.38,15.63.67,4.54,0,9.22.73,13.73,1,5.68,4.22,10.69,7.4,15.5s6.7,9.88,12.14,11.71c2.23.73,4.65.89,6.7,2a23.15,23.15,0,0,1,4.32,3.68c5.54,5.24,13.17,8,20.8,8.4a52.82,52.82,0,0,0,22.33-4.22,32.08,32.08,0,0,1,6.3-2.15c1.69-.3,3.45-.3,5.14-.7,4.48-1.1,7.67-5.11,9.69-9.26s3.28-8.69,5.74-12.57c2.16-3.42,5.21-6.24,7.1-9.82s2.52-8,3-12.18c.7-5.5,1.36-11,2.06-16.49a68.9,68.9,0,0,0,.79-13.83c0-.33-.06-.7-.1-1A70,70,0,0,1,136.31,74.5Z"/>
          <g>
            <path class="e8bb82ac-b11d-4d32-8852-433ca0eacb99" d="M106.85,66.83A3.49,3.49,0,0,1,108.6,68c.47.66.4,1.59.8,2.29a2.65,2.65,0,0,0,2.66,1.13,3.9,3.9,0,0,0,3.35-2.95c.06-.4.1-.8.2-1.2a5.38,5.38,0,0,1,.56-1.16,11.19,11.19,0,0,1,1.09-1.36,2.59,2.59,0,0,0,.47-.56,2,2,0,0,0,.16-.73,1.44,1.44,0,0,0-1.32-2c-.8-.13-1.56-.23-2.33-.36a1.31,1.31,0,0,1-.56-.2,1.21,1.21,0,0,1-.33-.57c-.17-.56-.3-1.12-.5-1.65a2.53,2.53,0,0,0-1.13-1.3,3.33,3.33,0,0,0-1.26-.2,2.09,2.09,0,0,0-1.59.47,2.61,2.61,0,0,0-.43,1.49,3.53,3.53,0,0,1-.93,2.32,7.8,7.8,0,0,1-1.53.93,2.44,2.44,0,0,0-1.22,1.23,1.85,1.85,0,0,0,.49,1.72,7.84,7.84,0,0,0,1.6,1.56"/>
            <path class="a83dbe26-43c3-4b82-b765-658f617476de" d="M116.57,62.49a3.35,3.35,0,0,0-2.56-.93c-.56,0-1.29,0-1.56-.53a1.52,1.52,0,0,1-.1-.77,3.06,3.06,0,0,0-.46-1.79,1.56,1.56,0,0,0-1.63-.66c-.83.26-1.12,1.29-1.26,2.16s-.4,1.89-1.22,2.19c-.34.13-.73.06-1.1.19a2.19,2.19,0,0,0-1.13,2.49,2.45,2.45,0,0,0,2,1.6,4.08,4.08,0,0,1,1.7.36c1.09.7.63,2.55,1.59,3.42a2.07,2.07,0,0,0,1.86.3,3.16,3.16,0,0,0,2.15-2.92c0-.8-.26-1.83.4-2.29a10.41,10.41,0,0,1,1-.37A1.63,1.63,0,0,0,116.57,62.49Z"/>
            <path class="e8bb82ac-b11d-4d32-8852-433ca0eacb99" d="M114.15,64.31a1.44,1.44,0,0,0-.24-1,2,2,0,0,0-.59-.47l-.67-.36a4.38,4.38,0,0,0-1.56-.57h-.43a2.25,2.25,0,0,0-1,.6,1.75,1.75,0,0,0-.43.7,2.06,2.06,0,0,0-.17.53,2.66,2.66,0,0,0,0,.69,2.36,2.36,0,0,0,.37,1.07,1.74,1.74,0,0,0,.69.49,3.09,3.09,0,0,0,1.93.44,2.48,2.48,0,0,0,.66-.24,3.31,3.31,0,0,0,.5-.3,2.21,2.21,0,0,0,.5-.59A3.55,3.55,0,0,0,114.15,64.31Z"/>
            <path class="a83dbe26-43c3-4b82-b765-658f617476de" d="M113.28,64.28a.92.92,0,0,0-.16-.73,1.63,1.63,0,0,0-.43-.33l-.47-.27a2.66,2.66,0,0,0-1.09-.4h-.3a1.55,1.55,0,0,0-.73.47,2.09,2.09,0,0,0-.33.53,1.9,1.9,0,0,0-.14.4,2.67,2.67,0,0,0,0,.49,1.4,1.4,0,0,0,.27.8.94.94,0,0,0,.5.33,2.2,2.2,0,0,0,1.36.3,1.45,1.45,0,0,0,.49-.2,1.62,1.62,0,0,0,.37-.23A2.71,2.71,0,0,0,113,65,1.4,1.4,0,0,0,113.28,64.28Z"/>
          </g>
        </g>
        <g>
          <path class="aed05bb2-bffa-448a-8d03-e0ae6fab7ccf" d="M107.64,97.69s-10.75,22.66,2.66,33,45.05,14.47,72.82,7.24-9.79-43.73-9.79-43.73Z"/>
          <g>
            <path class="bd2622da-0f39-4aa5-b218-509cabb58590" d="M219.55,56.25c-1.76.17-3.25.63-4,2.32-.33.77-.66,1.73-1.56,2-1.06.27-1.92-1-3-.8a9.32,9.32,0,0,0-4.24,2.62,11.94,11.94,0,0,1-4,2.16,48.86,48.86,0,0,1-5.81,1.69c-1.72.43-3.38,1-5.11,1.43a31.06,31.06,0,0,0-4.91,1.63,43.7,43.7,0,0,1-5.74,2.18c-2,.57-3.88,1.2-5.8,1.9-3.69,1.29-6.77,3.84-10.19,5.67s-7.07,1.92-10.58,3.08-7.47,1.63-11,3a29.66,29.66,0,0,1-4.64,1.76,29.05,29.05,0,0,0-5.24,1.36c-1.73.7-3.26,1.73-4.95,2.46s-3.78,1.09-5.57,1.89-3.62,1.52-5.41,2.32c-.93.4-1.82.83-2.79,1.16-.49.17-1.19.57-1.72.4A12.91,12.91,0,0,0,111,95.7a3.1,3.1,0,0,0-2.13.93c-.39.33-.83.69-1.22,1.09,12.6,34,46.58,50.2,77.76,39.48,37.23-12.81,48.51-45.55,36.4-80.65l-.1-.3A16,16,0,0,0,219.55,56.25Z"/>
            <path class="b7e4072a-07c1-45d2-9e5c-896003a6e102" d="M206.61,62.35a12,12,0,0,1-4,2.13c-1.89.69-3.85,1.19-5.77,1.69-1.73.43-3.39,1-5.11,1.39a28.27,28.27,0,0,0-4.91,1.63,41,41,0,0,1-5.74,2.16c-2,.56-3.88,1.19-5.81,1.89-3.68,1.29-6.77,3.84-10.18,5.64s-7.07,1.92-10.59,3.05-7.46,1.62-11,3a26.77,26.77,0,0,1-4.65,1.72A29.49,29.49,0,0,0,133.65,88c-1.72.7-3.25,1.73-4.94,2.46s-3.78,1.06-5.57,1.86c-1.17.53-2.36,1-3.55,1.52,10.18,26.51,36.95,39.12,61.57,30.69,29.56-10.15,38.55-36.1,28.93-63.9-.06-.23-.16-.43-.23-.66A12.68,12.68,0,0,0,206.61,62.35Z"/>
            <path class="e8f8b003-d834-4a28-a65e-ce0d27a7bf31" d="M206.61,62.35a12,12,0,0,1-4,2.13c-1.89.69-3.85,1.19-5.77,1.69-1.73.43-3.39,1-5.11,1.39a28.27,28.27,0,0,0-4.91,1.63,41,41,0,0,1-5.74,2.16c-2,.56-3.88,1.19-5.81,1.89-3.68,1.29-6.77,3.84-10.18,5.64s-7.07,1.92-10.59,3.05-7.46,1.62-11,3a26.77,26.77,0,0,1-4.65,1.72A29.49,29.49,0,0,0,133.65,88c-1.72.7-3.25,1.73-4.94,2.46s-3.78,1.06-5.57,1.86c-.27.1-.5.23-.77.33,9.52,24.95,34.67,36.79,57.76,28.86,27.71-9.52,36.1-33.77,27.14-59.82C207,62,206.81,62.16,206.61,62.35Z"/>
            <path class="e8c9deb5-0dee-4e61-94f4-8e3a89f77633" d="M130.17,90.72c.23.56.5,1.13.76,1.69a7.16,7.16,0,0,0,.77,1.33c.43.56.83,1.16,1.29,1.72a2.17,2.17,0,0,0,1.89.87c.6-.07,1.13-.4,1.73-.24a3.09,3.09,0,0,0,1.46.3.69.69,0,0,1,.63.24,6,6,0,0,1,1.59,1.59c.43.76.73,1.59,1.19,2.32a21,21,0,0,0,2,2.42c1.53,1.76,3.12,3.45,4.75,5.14.4.4.79.83,1.19,1.23.07.1.3-.16.37-.23l.39-.3a2.1,2.1,0,0,1,1.4-.3,6.31,6.31,0,0,1,2.65,1.79,7.12,7.12,0,0,0,1.53,1.07,4.19,4.19,0,0,0,2.62.06,13.68,13.68,0,0,1,2.62-.53,6.22,6.22,0,0,1,2.56.43,16,16,0,0,0,2.58,1,7.31,7.31,0,0,0,2.09,0c.77-.07,1.53-.2,2.26-.33.56-.1,1.09-.27,1.62-.37a4.24,4.24,0,0,0,2.49-.69,17.08,17.08,0,0,1,3.49-3.09,2.06,2.06,0,0,1,2.29.07,4.82,4.82,0,0,0,2.78,1,2.24,2.24,0,0,0,1.06-.17,3.37,3.37,0,0,0,.53-.46c.5-.5,1-1.06,1.43-1.56a9.27,9.27,0,0,1,1.56-1.43,5,5,0,0,1,1.92-.76c.6-.13,1.23-.1,1.86-.2a3.18,3.18,0,0,0,1.79-1.06,6.14,6.14,0,0,0,1.3-2.23c.3-.89.53-1.82.83-2.75a7.48,7.48,0,0,1,1.06-2.09c.53-.76,1.13-1.46,1.69-2.16a23.28,23.28,0,0,0,1.73-2.35,17.71,17.71,0,0,0,1-2.06,11.93,11.93,0,0,0,.9-4.28,2.23,2.23,0,0,0-.6-1.86,7,7,0,0,0-1.82-.76c-.14-.07-.34-.13-.4-.26-.17-.44-.43-.8-.6-1.23a4.81,4.81,0,0,1-.36-2.09,9.57,9.57,0,0,1,.39-1.93,14.19,14.19,0,0,0,.53-2.35,2.6,2.6,0,0,1-1.92.13,3.1,3.1,0,0,1-1.43-1.39,14.15,14.15,0,0,1-1.29-5.34c0-.47-.07-.9-.1-1.36l-2.49.69a28.27,28.27,0,0,0-4.91,1.63,39.69,39.69,0,0,1-5.74,2.15c-2,.57-3.88,1.2-5.8,1.9-3.69,1.29-6.77,3.84-10.19,5.64S158,80.9,154.49,82s-7.47,1.62-11,3a26.67,26.67,0,0,1-4.64,1.72,29.05,29.05,0,0,0-5.24,1.36c-1.33.53-2.52,1.26-3.79,1.89A2.77,2.77,0,0,1,130.17,90.72Z"/>
            <path class="b366bf4b-9b0f-496f-9150-d3c861145184" d="M219.45,56.28c-1.56.17-2.89.53-3.72,1.76a19.27,19.27,0,0,1,.86,3.12c.34,1.73.5,3.45.77,5.21a33.85,33.85,0,0,0,1.13,5.11c.39,1.42.79,2.85,1.09,4.28a29.29,29.29,0,0,1,.6,8.46,19.57,19.57,0,0,1-.83,4.08,29.76,29.76,0,0,0-1.59,4.44c-.27,1.5-.24,3-.44,4.52a15.74,15.74,0,0,1-1.19,4.38,20.63,20.63,0,0,1-2.06,3.55,13.75,13.75,0,0,0-2.12,3.55c-.3.92-.43,1.92-.76,2.85a4.92,4.92,0,0,1-1.73,2.35c-.63.5-1.36.87-2,1.33a19.91,19.91,0,0,0-1.79,1.49c-1.07,1-2,2.16-3.09,3.22a23,23,0,0,1-3.58,2.86c-1.4,1-2.79,2-4.25,2.82s-2.95,1.45-4.38,2.22-2.92,1.69-4.44,2.49a17.41,17.41,0,0,1-4.42,1.69,15.22,15.22,0,0,1-4.57,0,19.08,19.08,0,0,0-2.82-.13,19.57,19.57,0,0,0-2.56.46,15.67,15.67,0,0,1-4.48.53c-2.72-.17-5-1.66-7.56-2.39a10.65,10.65,0,0,0-4.35-.36,26.38,26.38,0,0,1-4.15.4,10.19,10.19,0,0,1-4.14-1.3c-.73-.4-1.43-.86-2.16-1.26s-1.46-.73-2.12-1.16a43.2,43.2,0,0,1-3.72-2.72,24.2,24.2,0,0,0-4.18-2.66,19.43,19.43,0,0,1-6.53-5.67,37.82,37.82,0,0,1-2.86-3.75,46.4,46.4,0,0,1-2.25-4.38,18.8,18.8,0,0,0-3.35-4.38,27.24,27.24,0,0,1-3-3.88A37.17,37.17,0,0,1,114.84,96a2.39,2.39,0,0,1-1.56.33,12.63,12.63,0,0,0-2.22-.76,3.1,3.1,0,0,0-2.12.93c-.4.33-.83.7-1.23,1.09,12.57,33.84,46.55,50,77.7,39.32,37.19-12.77,48.47-45.39,36.39-80.35l-.1-.3C220.91,56.22,220.14,56.22,219.45,56.28Z"/>
            <path class="af502f0b-e558-4d73-933e-1a5390f40f55" d="M219.45,56.28a9,9,0,0,0-1.69.33,1.33,1.33,0,0,1,.16.87,9.35,9.35,0,0,0-.26,1.13,1.2,1.2,0,0,0,.49,1.12l.4.3a3.21,3.21,0,0,1,.3.67,1.84,1.84,0,0,1,.33,1.16,2,2,0,0,1-.23.76c-.2.43.2.36.5.53,1,.5.69,1.43.43,2.29a7.33,7.33,0,0,0,.56,4.61,35.08,35.08,0,0,1,1.36,5.24,5.06,5.06,0,0,1,.07,2.26,4.06,4.06,0,0,0-.2,1.23,1.83,1.83,0,0,0,.6,1.16c.83.93.3,2.29-.07,3.32a6.61,6.61,0,0,0-.73,2.72c.07.79.33,1.59.33,2.38a5.45,5.45,0,0,1-.56,2.16,6.83,6.83,0,0,0-.7,1.56,3.1,3.1,0,0,0,.3,2.16c.2.4.43.76.6,1.19a2.47,2.47,0,0,1-.7,2.59s.07.1,0,.13a3.44,3.44,0,0,0-2.25,2.59c-.24,1-.34,2.06-.67,3.05-.56,1.69-.79,3.58-2.22,4.85-.43.39-1.16.82-1.39,1.39-.14.4-.2.8-.34,1.16a2,2,0,0,0-.16,1c.1.76.53,1.89-.37,2.35s-1.89.33-2.75.73c-.63.27-.6,1.06-.86,1.59-.14.27-.53.34-.8.37a1.93,1.93,0,0,0-1.33.5,2.49,2.49,0,0,0-.3,1,1.52,1.52,0,0,1-.46,1.06c-.5.37-1.06.63-1.59,1a12.94,12.94,0,0,0-1.3,1.07c-.49.46-1,.93-1.49,1.42a2.39,2.39,0,0,0-.83,1.13,2.76,2.76,0,0,1-.6,1.36,3.36,3.36,0,0,1-1.42.47c-1.59.29-2.72,1.49-4.08,2.25s-2.62.6-4.05.86a4.08,4.08,0,0,0-2.36,1.5c-.46.56-.89,1.16-1.39,1.69a6.71,6.71,0,0,1-3.95,1.89c-1.62.23-3.28.17-4.94.4a10.26,10.26,0,0,0-2.72.7,8.6,8.6,0,0,1-2.16.73,6.71,6.71,0,0,1-2.45-.17,4.8,4.8,0,0,0-2.72-.17,2.37,2.37,0,0,1-1.83.24,9.36,9.36,0,0,1-1.26-1c-1.49-1-3.48.67-5,1a2.86,2.86,0,0,1-2-.2,18.65,18.65,0,0,0-1.73-1.1c-.76-.33-1.66.13-2.45.27a2.71,2.71,0,0,1-1.43-.2c-.43-.2-.83-.53-1.26-.7a1.86,1.86,0,0,0-1.82.47s-.07,0-.1,0a8.21,8.21,0,0,0-4.72-3.79,14.74,14.74,0,0,1-4.21-1.42c-1.49-.87-3.32-1.3-4.68-2.36-1.09-.86-2.22-2.29-3.71-2.45,0,0,0,0,0-.07,0-1,.1-2.69-.73-3.42s-2.58-.43-3.68-.33c0,0-.06,0-.06,0-.3-1.46-1.43-2-2.59-2.72a3.19,3.19,0,0,1-1.69-2.66c0-.46.16-1.16-.24-1.49a2.14,2.14,0,0,0-2-.36c-.66.26-1.36,1-2.09.59-1.06-.59-1-1.85-.69-2.82a4.42,4.42,0,0,0,.23-1.16,2.09,2.09,0,0,0-.63-1.26,4.32,4.32,0,0,1-.93-1.16c-.6-1.16-.76-2.62-1.46-3.72a5.62,5.62,0,0,0-1.59-1.56,3.76,3.76,0,0,1-1.1-1c-.59-1-.79-2.09-1.29-3.12a17.26,17.26,0,0,1-1-2.85h0a3.15,3.15,0,0,0-2.13.93c-.39.33-.83.7-1.22,1.09,12.57,33.84,46.51,50,77.7,39.32,37.19-12.77,48.47-45.39,36.39-80.35l-.1-.3C220.91,56.22,220.14,56.22,219.45,56.28Z"/>
          </g>
        </g>
        <g>
          <path class="ad4be7ed-7ab5-478f-8f59-740529f3bfd3" d="M78.32,17.35s18.24,3.31,29.27,16.42c0,0,3.84,4,4.76,2.27s-6.26-11-14.66-15a51.74,51.74,0,0,0-18.62-4.94C77.28,16,72.87,16.43,78.32,17.35Z"/>
          <path class="ad4be7ed-7ab5-478f-8f59-740529f3bfd3" d="M47.05,21.14c4.68-3.05,9.3-4.59,12.69-4.62,5.78-.05-4.68,2.21-11,6.35C44.88,25.44,41.71,24.61,47.05,21.14Z"/>
          <path class="b1ed50b9-7af3-44da-8d0b-8b7c818c88b7" d="M161,85.13s7.12,14.32,5.89,30.42c0,0,2.1,1.64,2.39-.92,1.19-10.48-3.37-26.77-6.18-29.89C163.08,84.74,160.71,81.66,161,85.13Z"/>
          <path class="b1ed50b9-7af3-44da-8d0b-8b7c818c88b7" d="M151.84,88s3.49,10.94.87,22.25c0,0,1.31,1.39,1.79-.4,2-7.31.52-19.38-1.13-21.9C153.37,87.94,152,85.49,151.84,88Z"/>
          <path class="b1ed50b9-7af3-44da-8d0b-8b7c818c88b7" d="M140.43,90.28a36.12,36.12,0,0,0-.67,17.11s-1,1.07-1.38-.3c-1.53-5.63-.4-14.91.87-16.85C139.25,90.24,140.29,88.36,140.43,90.28Z"/>
          <path class="b1ed50b9-7af3-44da-8d0b-8b7c818c88b7" d="M171.22,81s11.39,11.21,15.48,26.84c0,0,2.52.86,2-1.65C186.37,95.93,176.75,82,173.07,80,173.07,80,169.82,77.85,171.22,81Z"/>
          <path class="b1ed50b9-7af3-44da-8d0b-8b7c818c88b7" d="M183.09,76.12s8.78,6.3,13.14,16.3c0,0,1.77.32,1.14-1.3-2.61-6.64-10.49-14.92-13.16-15.9C184.21,75.22,181.82,74.13,183.09,76.12Z"/>
          <path class="b1ed50b9-7af3-44da-8d0b-8b7c818c88b7" d="M192.43,71.57a35.35,35.35,0,0,1,12.11,11.52s1.43.06.76-1.15c-2.76-5-9.86-10.71-12.08-11.2C193.22,70.74,191.22,70.13,192.43,71.57Z"/>
        </g>
      </g>
      <path class="bf4a292c-fae6-47d3-a359-f696ae870d8a" d="M209.83,60s1.26-.56,1.92-.13,2,1,2.46.56A5.38,5.38,0,0,0,215.73,58a14,14,0,0,1,.5,1.63,10.55,10.55,0,0,1-1.33,2.52l-3.28-.33-1.53-1Z"/>
      <polygon class="bf4a292c-fae6-47d3-a359-f696ae870d8a" points="114.78 95.96 119.55 93.94 120.05 95.17 115.24 96.92 114.78 95.96"/>
    </g>
  </g>
</svg>
