<svg id="a4064641-4a53-40da-99fa-4ed110dbcaa2" data-name="Layer 1" xmlns="http://www.w3.org/2000/svg" width="208.8" height="130.28" viewBox="0 0 208.8 130.28">
  <defs>
    <style>
      .ee866df0-56ae-4af5-8c90-b85f65ad2ff8 {
        opacity: 0.5;
      }

      .f45b9196-d127-4e91-ab3f-f0bd8413fc6a {
        fill: #fff;
      }

      .a3d178d9-d5c3-49e0-8f76-9cb8866518dd, .ebc32285-120a-48af-867e-0bc35983378c {
        fill: #ecd6ad;
      }

      .ebc32285-120a-48af-867e-0bc35983378c {
        stroke: #000;
        stroke-miterlimit: 10;
        stroke-width: 2px;
      }

      .bde3c754-2273-41e6-84e7-42e9467136e3 {
        fill: #f4882f;
      }

      .ff06f5b3-a720-4601-a899-d19379d16c12 {
        fill: #c7672b;
      }

      .a2181d9f-dd8f-4fff-8b99-f0e84f1ba9c7 {
        fill: #e5872f;
      }

      .a4c5a8d8-3c81-45b5-8eaf-67fe698b9c5d {
        fill: #f1e5bb;
      }

      .a0a0fd16-8478-48d5-85b2-9bf845ec90ba {
        fill: #ed944a;
      }

      .aabd1a1a-048e-4e00-9b77-699c7237a019 {
        fill: #cc5831;
      }

      .a68b00c9-c32f-4dd8-ba71-2f0e3690cf48 {
        fill: #951607;
      }

      .b40c80d3-107c-41cc-992f-2939b1b79c6b {
        fill: #e6e7e8;
      }

      .e0b39dbb-02f4-4bfa-bbeb-c42fba70291e {
        fill: #1d4a23;
      }

      .bc8f83b2-d71d-4a47-8614-7c6860640a8a {
        fill: #64a02a;
      }

      .a7678376-b48e-4be0-b548-3375426fd180 {
        fill: #8bb93c;
      }

      .a75174bf-c9ef-403d-a292-b502f3e981b0 {
        fill: #e2ef95;
      }

      .bead7501-9109-4ae7-871f-855be8e7165b {
        fill: #f1b416;
      }

      .a3c6728c-6ed4-4bb6-bbf9-0173ad69fcc8 {
        fill: #fae452;
      }

      .e4d42be9-4424-42d2-999c-3d6d96b8e7a8 {
        fill: #f9d136;
      }

      .e9762124-3492-4d22-b886-d73b747e66df {
        fill: #ed7272;
      }

      .a33189e6-8619-4405-8dc5-48e553ac5c1a {
        fill: #f4a4a4;
      }

      .a82efd3d-96a4-4159-a95b-8974acd782cb {
        fill: #d61f16;
      }

      .fc3c7ab2-49e9-4dbb-898b-f1fb50ba43aa {
        fill: #a51f13;
      }

      .b23b996f-8bfb-4015-8556-6258458de300 {
        fill: #f42121;
      }

      .abb0bd2d-f38f-4714-896b-0f200b4c0473 {
        fill: #b81f21;
      }

      .ed368b2b-496c-4f1d-bace-3389d8b7c512 {
        fill: #c5f37c;
      }

      .a14380ae-9ad8-4fe5-b7c8-bdd33e39984a {
        fill: #4a9e00;
      }

      .a8fbe2eb-e9b6-403c-a1d3-25da38d79ae7 {
        fill: #98d54f;
      }

      .bc0ef204-8e19-47bf-9099-afbee3f9a2c6 {
        fill: #bae34c;
      }

      .a648e2a3-1292-4b49-9163-2c6be03d91b6 {
        fill: #4db034;
      }

      .ff8438f1-baf5-481b-a4dd-9f1b8622ec0c {
        fill: #6dbf31;
      }

      .fdfbf32d-834b-4b55-aada-29a8e2708aa6 {
        fill: #adda2b;
      }

      .bfb29e2a-5de7-4433-8129-bb7beb79aea7 {
        fill: #d6f781;
      }

      .a7ab30eb-12ff-480e-b7a3-39b14ecfddf1 {
        fill: #f1b4b8;
      }

      .f43ea21f-17db-41cf-9453-045f429f5471 {
        fill: #9d639f;
      }

      .e4b08c6d-e2ef-4f22-86bb-c35b10d0ec0b {
        fill: #f5b1f8;
      }

      .b8e99a4f-d6af-42f1-abb3-44f41870fead {
        fill: #b76eb7;
      }

      .a1e764cf-9770-42a6-b394-c5beaec1046b {
        fill: #f79afc;
      }

      .f5487ff0-243b-4512-b771-7d243c28b2e4 {
        fill: #d27cd0;
      }

      .aa688e06-4ff9-4a74-9de1-c2103110a14d {
        fill: #b26eb2;
      }
    </style>
  </defs>
  <g>
    <path class="ee866df0-56ae-4af5-8c90-b85f65ad2ff8" d="M93.46,127l-1.66,0h-.16c-.08,0-1.88,0-4-.12l-.73,0a21.25,21.25,0,0,1-6.1-.75L80.4,126c-5.37-1.51-44.29-14.14-61.29-19.67a7.43,7.43,0,0,1-1.13-.46,13.21,13.21,0,0,1-1.47-.88,10.11,10.11,0,0,1-4.77-8.34c0-.71.07-4.56.21-11.44a7.55,7.55,0,0,1,0-.83,8,8,0,0,1,2.34-5.78,14,14,0,0,1,4.69-3,8,8,0,0,1-1.37-.24l-.69-.18A7.66,7.66,0,0,1,16.1,75a7.87,7.87,0,0,1-1.18-.55,8.22,8.22,0,0,1-2.08-1.56,6.14,6.14,0,0,1-.42-.47,7.88,7.88,0,0,1-.62-.78,8.73,8.73,0,0,1-1.06-2.1,9.08,9.08,0,0,1-.36-1.23,9.64,9.64,0,0,1-.15-2.77A11.4,11.4,0,0,1,11.15,62c.11-.27.24-.54.37-.79A20.85,20.85,0,0,1,14.44,57l.11-.13.66-.71.41-.43.7-.7.86-.81a10.25,10.25,0,0,1-5-8.53,2.44,2.44,0,0,1,0-.27c0-.74.14-7.15.21-11.5,0-.16,0-.32,0-.48a8,8,0,0,1,2.34-5.84c1-1,4-3.46,9.81-4.29,2.07-.32,32.75-5.81,80-14.32l1-.18.5-.08c.13,0,3.37-.4,7.53-.48l.8,0h.88c.49,0,1,0,1.49,0,1.81,0,3.53.14,5.12.32a36.27,36.27,0,0,1,4.48.76l.34.08c8.1,2,49.73,12.91,51.5,13.37,17.38,4.42,18.46,4.94,19.24,5.32,4.08,2,5.5,4.85,6,7a7.74,7.74,0,0,1,.28,2.09V50.52a8,8,0,0,1-.21,1.83,9.86,9.86,0,0,1-4.57,6,15.7,15.7,0,0,1,1.47,3.8,8,8,0,0,1,.14,3.29,7.92,7.92,0,0,1,.29,4.35.52.52,0,0,0,0,.11c0,.22,0,.43-.05.65a8.61,8.61,0,0,1-.42,4.72A8.14,8.14,0,0,1,199,77.56a16.5,16.5,0,0,1-1.08,2,11.67,11.67,0,0,1,2.92,2.35,9.22,9.22,0,0,1,2.06,3.71,8.85,8.85,0,0,1,.3,3.07v12.82a8.09,8.09,0,0,1-.21,1.83c-.44,1.87-2.27,6.41-9.75,8.06-3.43.75-79,12.91-94.16,15.33a7.66,7.66,0,0,1-1.26.11h-.47C96,127,94.77,127,93.46,127Z"/>
    <path class="f45b9196-d127-4e91-ab3f-f0bd8413fc6a" d="M88.46,122l-1.66,0h-.16c-.08,0-1.88,0-4-.12l-.73,0a21.25,21.25,0,0,1-6.1-.75L75.4,121c-5.37-1.51-44.29-14.14-61.29-19.67a7.43,7.43,0,0,1-1.13-.46,13.21,13.21,0,0,1-1.47-.88,10.11,10.11,0,0,1-4.77-8.34c0-.71.07-4.56.21-11.44a7.55,7.55,0,0,1,0-.83,8,8,0,0,1,2.34-5.78,14,14,0,0,1,4.69-3,8,8,0,0,1-1.37-.24l-.69-.18A7.66,7.66,0,0,1,11.1,70a7.87,7.87,0,0,1-1.18-.55,8.22,8.22,0,0,1-2.08-1.56,6.14,6.14,0,0,1-.42-.47,7.88,7.88,0,0,1-.62-.78,8.73,8.73,0,0,1-1.06-2.1,9.08,9.08,0,0,1-.36-1.23,9.64,9.64,0,0,1-.15-2.77A11.4,11.4,0,0,1,6.15,57c.11-.27.24-.54.37-.79A20.85,20.85,0,0,1,9.44,52l.11-.13.66-.71.41-.43.7-.7.86-.81a10.25,10.25,0,0,1-5-8.53,2.44,2.44,0,0,1,0-.27c0-.74.14-7.15.21-11.5,0-.16,0-.32,0-.48a8,8,0,0,1,2.34-5.84c1-1,4-3.46,9.81-4.29C21.55,18,52.23,12.51,99.47,4l1-.18.5-.08c.13,0,3.37-.4,7.53-.48l.8,0h.88c.49,0,1,0,1.49,0,1.81,0,3.53.14,5.12.32a36.27,36.27,0,0,1,4.48.76l.34.08c8.1,2,49.73,12.91,51.5,13.37,17.38,4.42,18.46,4.94,19.24,5.32,4.08,2,5.5,4.85,6,7a7.74,7.74,0,0,1,.28,2.09V45.52a8,8,0,0,1-.21,1.83,9.86,9.86,0,0,1-4.57,6,15.7,15.7,0,0,1,1.47,3.8,8,8,0,0,1,.14,3.29,7.92,7.92,0,0,1,.29,4.35.52.52,0,0,0,0,.11c0,.22,0,.43-.05.65a8.61,8.61,0,0,1-.42,4.72A8.14,8.14,0,0,1,194,72.56a16.5,16.5,0,0,1-1.08,2,11.67,11.67,0,0,1,2.92,2.35,9.22,9.22,0,0,1,2.06,3.71,8.85,8.85,0,0,1,.3,3.07V96.53a8.09,8.09,0,0,1-.21,1.83c-.44,1.87-2.27,6.41-9.75,8.06-3.43.75-79,12.91-94.16,15.33a7.66,7.66,0,0,1-1.26.11h-.47C91,122,89.77,122,88.46,122Z"/>
    <g>
      <path class="ebc32285-120a-48af-867e-0bc35983378c" d="M190.49,31.76h0c-.15-.63-1.06-1.17-1.64-1.45-1.14-.55-17.8-4.78-17.8-4.78s-44.58-11.72-51.63-13.41-17.49-.43-17.49-.43-77.47,14-81.31,14.54-5.29,2-5.29,2a.14.14,0,0,0,.08,0c0,.63-.2,11.25-.2,12.35s1.72,2,1.72,2l6.32,2a4.21,4.21,0,0,0-.59,1.57h0v0h0v.27A3.69,3.69,0,0,0,23.6,49a25.79,25.79,0,0,0-2.86,3.33c.08,0,.19,0,.27,0-.51.36-.94.71-1.41,1.06h0c-.16.12-.27.24-.43.36s-.08.07-.12.07c-.19.16-.39.32-.59.51l0,0a20.76,20.76,0,0,0-4.66,5.26h0c-.08.11-.12.23-.2.35v0a.9.9,0,0,1-.15.31v0a1,1,0,0,0-.08.28v0a.59.59,0,0,0,0,.28v0c0,.08,0,.16,0,.23v.36s0,.11,0,.15,0,0,0,.08,0,.08.08.16,0,0,0,.08,0,.08.07.11,0,0,0,.08.08.08.12.08,0,0,.08,0,.08,0,.12.08.07,0,.11,0,.08,0,.16,0,.08,0,.12,0a.24.24,0,0,1,.16,0,.29.29,0,0,1,.15,0h.9a9.33,9.33,0,0,0,1.34-.27c1.45-.43,2.9-.78,4.31-1.14a5.83,5.83,0,0,1-.08.83c.35.39.71.74,1.1,1.13a.71.71,0,0,1,.19-.23,2.59,2.59,0,0,1,3.14-.55,2.2,2.2,0,0,1,1.33-.16s.08.08.12.08a1.51,1.51,0,0,1,.67,1.45,9.86,9.86,0,0,0-1.88,1.73,2.2,2.2,0,0,1-1.73-.4c-1-.78-2.59-.62-3.92-.54a16.23,16.23,0,0,0,3.61,4.66,2.07,2.07,0,0,1,.94-.39l-.08,1.72c-.08,1.93,1.25,3.77,3.61,5.34-4.32.74-7.22,1.25-7.88,1.37-3.81.55-5.3,2-5.3,2a.14.14,0,0,0,.08,0c0,.62-.19,11.25-.19,12.35s1.72,2,1.72,2,58.49,19,61.08,19.61l.59.11v.08a19.91,19.91,0,0,0,4.74.4c2,.11,3.65.11,3.65.11H87a37.33,37.33,0,0,0,4.79-.11c.62,0,1.06,0,1.06,0s90.32-14.51,93.69-15.25,3.69-2.08,3.69-2.08V83.2a.65.65,0,0,0,0-.39h0c-.16-.63-1.06-1.18-1.65-1.45s-7.37-2.12-12.35-3.42a4.56,4.56,0,0,0,.08-.78l.12-2.86a5.64,5.64,0,0,1-1.33,3.33h0a5.74,5.74,0,0,0,1.33-3.33v0l.71.35.31-.23a2.58,2.58,0,0,1,1.92-.47,9.54,9.54,0,0,0,.78-1.38,2.4,2.4,0,0,1,3.45-1c1.53.86,2.67-1,3.34-2.67a4,4,0,0,1-1.49-.55h.66a.3.3,0,0,0,.2,0h.08c.08,0,.15,0,.23,0a.15.15,0,0,0,.12,0,.15.15,0,0,0,.12,0,.18.18,0,0,0,.12,0s.07,0,.07,0,.08,0,.12,0,0,0,.08,0a.14.14,0,0,0,.08,0s0,0,.08,0,0,0,.08,0l0,0s0,0,.08,0l0,0,.08-.08a0,0,0,0,1,0,0s0,0,0-.07v0a.83.83,0,0,0-.08-.79h0s0-.11-.08-.15h0a.87.87,0,0,1-.12-.2h0a9.29,9.29,0,0,0-1-1.1,3.15,3.15,0,0,0,.95-1,1.28,1.28,0,0,1,.15.28.78.78,0,0,0,.12.19,4,4,0,0,0-.16-.74,4.59,4.59,0,0,0,.28-.79s-.08.12-.16.2a2.27,2.27,0,0,1-.23.31A3.55,3.55,0,0,0,185.71,62a15,15,0,0,1-3.45-2.39,9.77,9.77,0,0,1,3,.51,3.67,3.67,0,0,1,2.19-.9c-.43-1.69-1.33-3.61-3-2.87a2.3,2.3,0,0,1-3.29-1.25s0-.12,0-.16a12,12,0,0,0,1.34-.51V51.72c.23-.12.47-.2.7-.32,1.33-.66,3.45-1.84,3.45-3.64v-.12a.78.78,0,0,1,.28,0c3.37-.74,3.68-2.08,3.68-2.08V32.19A1.62,1.62,0,0,1,190.49,31.76ZM27.28,32.7,22.23,31Zm-2.7,36h0c.27,2.43,2.78,4.75,6.74,6.51h0C27.32,73.44,24.81,71.16,24.58,68.73Zm2.27,14.9c-2.07-.71-3.8-1.29-5.05-1.73ZM189.28,84a7.35,7.35,0,0,1-2,1L120.71,96.25l67.12-11.64A4.78,4.78,0,0,0,189.28,84Zm-2.2-20a2.31,2.31,0,0,1-1.84.27c-.2-.15-.43-.35-.67-.55l.2-.08A2.43,2.43,0,0,1,187.08,64ZM149.56,40.5c-.07,0-.15,0-.23,0l38.93-6.74a7.21,7.21,0,0,0,1.45-.66,7.55,7.55,0,0,1-2,1S169.6,37.09,149.56,40.5Z"/>
      <g>
        <g>
          <path class="bde3c754-2273-41e6-84e7-42e9467136e3" d="M14.9,79.24s1.49-1.49,5.29-2S101.5,62.65,101.5,62.65s10.43-1.25,17.48.44,51.68,13.4,51.68,13.4,16.66,4.24,17.79,4.79,3.38,2-.54,3.37l-92,15.95s-8.19,1-12.43.55S16.39,80.69,14.9,79.24Z"/>
          <path class="ff06f5b3-a720-4601-a899-d19379d16c12" d="M86.44,101.15a70.56,70.56,0,0,0,10.79-.86c4.5-.86,90.09-15.33,90.09-15.33s2.74-.86,2.74-2.27V96.41s-.27,1.33-3.68,2.08-93.7,15.25-93.7,15.25-4.82.23-6.16.16Z"/>
          <path class="a2181d9f-dd8f-4fff-8b99-f0e84f1ba9c7" d="M15,79.24s2,.7,5,2c6.39,2.63,57.87,18.62,59.28,18.9s5.68,1.45,7.17,1l.08,12.79a65.13,65.13,0,0,1-9-.67c-2.58-.63-61.08-19.6-61.08-19.6s-1.72-.87-1.72-2S15,79.24,15,79.24Z"/>
          <path class="a4c5a8d8-3c81-45b5-8eaf-67fe698b9c5d" d="M19,79.43s1.41-1.37,5.06-1.88,77.51-13.29,77.51-13.29,10-1.17,16.7.39,49.24,12.28,49.24,12.28,15.88,3.88,17,4.39,3.21,1.8-.55,3.09L96.17,99s-7.8.9-11.84.51S20.38,80.81,19,79.43Z"/>
          <path class="a0a0fd16-8478-48d5-85b2-9bf845ec90ba" d="M78.05,99.82a31.54,31.54,0,0,0,8.39,1.33c3.45-.15,6.9-.35,8.28-.51v12.75a32,32,0,0,1-8.2.54c-4.94-.19-7-.07-8.39-.51Z"/>
          <path class="a3d178d9-d5c3-49e0-8f76-9cb8866518dd" d="M118.2,64.65c-.2-.11,49.28,12.28,49.28,12.28s15.88,3.88,17,4.39,3.21,1.8-.55,3.09L96.17,99S147.05,79.71,118.2,64.65Z"/>
        </g>
        <g>
          <path class="aabd1a1a-048e-4e00-9b77-699c7237a019" d="M176.26,74.22c-.23,6.66-14,11.57-30.7,11S115.49,78.65,115.73,72s14-11.57,30.7-10.94S176.54,67.56,176.26,74.22Z"/>
          <path class="a68b00c9-c32f-4dd8-ba71-2f0e3690cf48" d="M145.56,85.16c-16.7-.63-30.07-6.55-29.83-13.21l-.12,2.86c-.23,6.66,13.1,12.58,29.8,13.21s30.46-4.27,30.7-11l.11-2.86C176,80.88,162.27,85.79,145.56,85.16Z"/>
          <path class="b40c80d3-107c-41cc-992f-2939b1b79c6b" d="M132.71,70.93c-.36,1-1.77.47-4.12-.24s-3.22-3-2.9-4,1.76-.23,4.11.47S133.06,70,132.71,70.93Z"/>
          <path class="b40c80d3-107c-41cc-992f-2939b1b79c6b" d="M152,65.83c0,1.06-.31,2.35-2.66,1.8-2.55-.58-6.12-1.09-6.08-2.15s1.26-2.43,3.69-2.32S152,64.77,152,65.83Z"/>
          <path class="b40c80d3-107c-41cc-992f-2939b1b79c6b" d="M154.39,75.24c-.12.74-3.49,1.84-5,1.65-2.28-.28-4-1.34-3.85-2.32s2.12-1.57,4.4-1.29S154.54,74.26,154.39,75.24Z"/>
          <path class="b40c80d3-107c-41cc-992f-2939b1b79c6b" d="M170.26,69.79c0,.71-2.11,1.69-4.94,1.57S160,70.1,160,69.4s2.35-1.18,5.18-1.06S170.3,69.08,170.26,69.79Z"/>
          <path class="b40c80d3-107c-41cc-992f-2939b1b79c6b" d="M158,70.18A1.85,1.85,0,0,1,156,72c-1.37,0-3.45-1-3.45-1.69s1.34-.35,2.55-1.1S158,69.52,158,70.18Z"/>
          <path class="b40c80d3-107c-41cc-992f-2939b1b79c6b" d="M126,77.55c0,.79,1.53,2,3.53,2.12S134,78.1,134,77.32s-2.35-1-4.31-1.06S126,76.77,126,77.55Z"/>
          <path class="b40c80d3-107c-41cc-992f-2939b1b79c6b" d="M138,70.61c0,.79,1.57.71,3.57.79s4,.15,4-.67a2.74,2.74,0,0,0-2.74-2.55C140.9,68.1,138.08,69.83,138,70.61Z"/>
          <path class="b40c80d3-107c-41cc-992f-2939b1b79c6b" d="M159.56,65.91c0,.74-1.25,1.29-2.74,1.25s-2.67-.7-2.67-1.45,1.26-1.29,2.74-1.25S159.56,65.16,159.56,65.91Z"/>
          <path class="b40c80d3-107c-41cc-992f-2939b1b79c6b" d="M173.52,73.48c0,.74-1.26,1.29-2.75,1.25s-2.66-.71-2.66-1.45,1.88-1.73,3.37-1.65A1.88,1.88,0,0,1,173.52,73.48Z"/>
          <path class="b40c80d3-107c-41cc-992f-2939b1b79c6b" d="M126.39,74.14c0,.94-1.72,1-3.8.94s-4.31-1.8-4.27-2.74,2.31-.71,4.39-.67S126.43,73.2,126.39,74.14Z"/>
          <path class="b40c80d3-107c-41cc-992f-2939b1b79c6b" d="M140,64.14c.43,1.06-.43,2.36-2,2.87s-3.14.07-3.57-1,.43-2.36,2-2.87S139.61,63.05,140,64.14Z"/>
        </g>
        <g>
          <path class="aabd1a1a-048e-4e00-9b77-699c7237a019" d="M73.31,70c-.2,5.37-11.29,9.33-24.74,8.82s-24.23-5.26-24-10.67,11.29-9.33,24.74-8.82S73.51,64.58,73.31,70Z"/>
          <path class="a68b00c9-c32f-4dd8-ba71-2f0e3690cf48" d="M48.57,78.81c-13.48-.51-24.23-5.26-24-10.67l-.08,2.32c-.19,5.37,10.55,10.15,24,10.62S73,77.63,73.23,72.26L73.31,70C73.11,75.36,62,79.28,48.57,78.81Z"/>
          <path class="b40c80d3-107c-41cc-992f-2939b1b79c6b" d="M38.18,67.32c-.27.78-1.41.39-3.33-.2a3,3,0,0,1-2.31-3.21c.27-.78,1.41-.2,3.33.39S38.46,66.54,38.18,67.32Z"/>
          <path class="b40c80d3-107c-41cc-992f-2939b1b79c6b" d="M53.75,63.2c0,.87-.24,1.89-2.16,1.45s-4.9-.86-4.9-1.72,1-2,2.94-1.88S53.79,62.34,53.75,63.2Z"/>
          <path class="b40c80d3-107c-41cc-992f-2939b1b79c6b" d="M55.67,70.77c-.08.63-2.82,1.49-4,1.33-1.84-.23-3.22-1.06-3.1-1.88s1.69-1.25,3.53-1S55.79,70,55.67,70.77Z"/>
          <path class="b40c80d3-107c-41cc-992f-2939b1b79c6b" d="M68.49,66.38c0,.55-1.69,1.37-4,1.25s-4.31-1-4.31-1.56,1.88-.95,4.19-.87S68.49,65.83,68.49,66.38Z"/>
          <path class="b40c80d3-107c-41cc-992f-2939b1b79c6b" d="M58.53,66.69A1.46,1.46,0,0,1,57,68.14c-1.1,0-2.78-.82-2.78-1.33s1.06-.27,2-.9S58.57,66.14,58.53,66.69Z"/>
          <path class="b40c80d3-107c-41cc-992f-2939b1b79c6b" d="M42.5,67.05c0,.62,1.25.58,2.86.62s3.25.12,3.25-.51a2.24,2.24,0,0,0-2.19-2.07C44.81,65.05,42.53,66.42,42.5,67.05Z"/>
          <path class="b40c80d3-107c-41cc-992f-2939b1b79c6b" d="M67.78,72.73c0,.82-1.68,1.41-3.72,1.33s-3.65-.78-3.61-1.6,1-1.85,3.06-1.77S67.82,71.91,67.78,72.73Z"/>
          <path class="b40c80d3-107c-41cc-992f-2939b1b79c6b" d="M59.82,63.24c0,.59-1,1.06-2.23,1s-2.16-.59-2.16-1.17,1-1.06,2.24-1S59.86,62.65,59.82,63.24Z"/>
          <path class="b40c80d3-107c-41cc-992f-2939b1b79c6b" d="M71.08,69.36c0,.59-1,1.06-2.24,1s-2.16-.59-2.16-1.18,1.53-1.37,2.71-1.33S71.12,68.73,71.08,69.36Z"/>
          <path class="b40c80d3-107c-41cc-992f-2939b1b79c6b" d="M59.39,75.47c0,.59-1,.44-2.19.4S55,75.28,55,74.69s1-1.06,2.24-1A2.42,2.42,0,0,1,59.39,75.47Z"/>
          <path class="b40c80d3-107c-41cc-992f-2939b1b79c6b" d="M44.1,61.83c.36.86-.35,1.88-1.57,2.31a2.31,2.31,0,0,1-2.9-.78c-.35-.86.36-1.88,1.57-2.31S43.75,61,44.1,61.83Z"/>
        </g>
        <g>
          <path class="aabd1a1a-048e-4e00-9b77-699c7237a019" d="M120.16,83.2c-.24,5.92-12.47,10.31-27.33,9.76S66.1,87.16,66.29,81.2s12.47-10.31,27.33-9.76S120.4,77.28,120.16,83.2Z"/>
          <path class="a68b00c9-c32f-4dd8-ba71-2f0e3690cf48" d="M92.83,93C78,92.41,66.1,87.16,66.29,81.2l-.08,2.55C66,89.67,77.86,95,92.76,95.51s27.09-3.8,27.32-9.76l.08-2.55C120,89.16,107.73,93.51,92.83,93Z"/>
          <path class="b40c80d3-107c-41cc-992f-2939b1b79c6b" d="M81.39,80.3c-.32.86-1.57.43-3.69-.2s-2.86-2.7-2.55-3.57,1.57-.19,3.69.4S81.7,79.43,81.39,80.3Z"/>
          <path class="b40c80d3-107c-41cc-992f-2939b1b79c6b" d="M98.56,75.75c0,.94-.28,2.08-2.35,1.61-2.24-.51-5.41-1-5.41-1.92s1.13-2.16,3.25-2.08S98.6,74.81,98.56,75.75Z"/>
          <path class="b40c80d3-107c-41cc-992f-2939b1b79c6b" d="M103.85,79.59a1.66,1.66,0,0,1-1.72,1.61c-1.22,0-3.1-.9-3.06-1.49s1.17-.31,2.27-1S103.89,79,103.85,79.59Z"/>
          <path class="b40c80d3-107c-41cc-992f-2939b1b79c6b" d="M86.13,80c0,.71,1.41.63,3.18.71s3.56.12,3.6-.59a2.42,2.42,0,0,0-2.43-2.27C88.72,77.79,86.17,79.32,86.13,80Z"/>
          <path class="b40c80d3-107c-41cc-992f-2939b1b79c6b" d="M105.26,75.83c0,.66-1.13,1.17-2.43,1.1s-2.39-.63-2.35-1.3,1.14-1.17,2.43-1.1S105.3,75.16,105.26,75.83Z"/>
          <path class="b40c80d3-107c-41cc-992f-2939b1b79c6b" d="M87.93,74.22c.4.94-.39,2.08-1.76,2.55s-2.78.08-3.18-.86.4-2.08,1.77-2.55S87.54,73.28,87.93,74.22Z"/>
        </g>
        <g>
          <path class="e0b39dbb-02f4-4bfa-bbeb-c42fba70291e" d="M38.07,74.14c.07,0,.11,0,.19,0a7.59,7.59,0,0,0,.39-.7,2,2,0,0,1,3.18-.4,2.09,2.09,0,0,1,2,.2h.35A2.15,2.15,0,0,1,45.28,73c2.74,0,5.21.94,5.68,3.25a15,15,0,0,0,1.81.86,1.92,1.92,0,0,1,1,1.69v.35a19,19,0,0,0,2.7.51,16.12,16.12,0,0,0,5.22-.74v-.12a1.76,1.76,0,0,1,.78-1.45,1.73,1.73,0,0,1,.2-2.51,8.7,8.7,0,0,1,2.07-1.33,2.1,2.1,0,0,1,2.79.7,2,2,0,0,1,0,2A1.8,1.8,0,0,1,68,77.43a1.91,1.91,0,0,1,.74,1.42,9.42,9.42,0,0,1,2.47,1.05c2.55,1.57,3.1,3.38,6.35,3.45a34,34,0,0,1,9.45-2,5.3,5.3,0,0,1-2.15-1.18,3.54,3.54,0,0,1-2.36.35c-1.8-.23-1.84-2.78-.39-3.57a12.52,12.52,0,0,1,1.69-.7,1.39,1.39,0,0,1,.55-.16c.43-.12.82-.23,1.25-.39a2,2,0,0,1,2.51,1.88c1.29.75,3.37.55,4.74.9a1.85,1.85,0,0,1,1.38,2.16h.15a2.23,2.23,0,0,1,2.16,1.57c1.65,4.15,8.9,2.19,12,.82a2.67,2.67,0,0,1,1.72-.19c.08-.08.2-.16.28-.24l-1.3-1.18a1.91,1.91,0,0,1,.47-3.05,4.44,4.44,0,0,1,.39-.24,1.78,1.78,0,0,1,.59-1.53l0,0a2.37,2.37,0,0,1,.9-.47s0-.08.08-.12c1.61-2,5.1-.07,3.49,2a5.67,5.67,0,0,0-.31.55,2,2,0,0,1-1,1.69s0,0-.08,0c.2.19.43.43.63.66a30.65,30.65,0,0,1,8.82.08,2.08,2.08,0,0,1,1.92,3,4.85,4.85,0,0,0,1.41-.55,3,3,0,0,1,1.84-.15,2.06,2.06,0,0,1,1.61-.12,1.78,1.78,0,0,1,1.29-.27,2.39,2.39,0,0,1,2.24-1,3.29,3.29,0,0,1,.39-.28c1.29-4.39,4.9-7.17,9.8-7.57a2.17,2.17,0,0,1,2.2,2.16,6.19,6.19,0,0,1,0,1.73,1.49,1.49,0,0,1,.66.82c.08.12.16.2.24.31a2.41,2.41,0,0,1,.39,1.45v.12a11.56,11.56,0,0,1,3.37.24c.32-.4.71-.79,1.06-1.18a4.24,4.24,0,0,1,2.28-3.49,2,2,0,0,1,1.41-.19,10.26,10.26,0,0,0,1.37-1.81c1.29-2.35,4.51-.55,4.12,1.65v0a11.65,11.65,0,0,1,4.74-.75A2.93,2.93,0,0,1,168,76.57c.12-.08.28-.15.39-.23a1.74,1.74,0,0,1,1.49-.28A5.91,5.91,0,0,1,172,76,20.35,20.35,0,0,1,173.67,74a9.27,9.27,0,0,1-3-1.33c-2.07-1.45,0-4.82,2.12-3.37a5,5,0,0,0,2.32,1s0,0,0,0a2.17,2.17,0,0,1,1.77-1,8.64,8.64,0,0,1,3.25.67c1-1.92,2.94-3.06,5.41-4.16a3.63,3.63,0,0,0,2.32-2.63s-.08.12-.16.2a2.11,2.11,0,0,1-2.78.71,5.88,5.88,0,0,0-3.85-.55c-2.58.51-3.6-3.22-1-3.73a10.34,10.34,0,0,1,5.26.28,3.64,3.64,0,0,1,2.19-.9c-.43-1.69-1.33-3.61-3-2.87a2.3,2.3,0,0,1-3.29-1.25c-1.69-5-3.33-.43-5.68-2.16-.4-.31-.79-.59-1.18-.9-.24,0-.63.12-1.14.24a2.25,2.25,0,0,1-2.74-1.49s0-.08-.08-.12l-1.22.35a2.21,2.21,0,0,1-2.74-2.62c1-4.67-2.31-2.12-3.53-1.61a11.46,11.46,0,0,1-1.8.59A7.35,7.35,0,0,1,160,49a4.25,4.25,0,0,1-3,3.1s0,.08-.08.08a2,2,0,0,1-3.45-1.37,2.7,2.7,0,0,1,.2-1,2.12,2.12,0,0,1,1.49-1.37,1.81,1.81,0,0,1,.74-.15c.4-.2.2-.87.48-1.3a1.18,1.18,0,0,1,.11-.19,1.85,1.85,0,0,1-.74-1.22c-1-1.72-2.16-1.84-3.45-.31a2.28,2.28,0,0,1-3.84-1.49c-.24-1.41-.79-2.12-1.61-2.16-.9,3.06-3.29,4.55-7.06,4.78a2.15,2.15,0,0,1-2-3.05,2.36,2.36,0,0,1-2.59-1.22,2.34,2.34,0,0,1-.74.12h-.16a2,2,0,0,1-2.23.63L129.37,42a2.07,2.07,0,0,1-1.6-2.07v-.2a2.29,2.29,0,0,1-2.83-.86c-.55-.9-1.84-.12-2.58.62a1.74,1.74,0,0,1-.36,1.14c-.15.2-.35.39-.51.59-.31,1.1-.47,2.27-.74,3.33a6.83,6.83,0,0,1-5.69,5.25c-1.29.2-3-.54-2.82-2.07.47-3.53,2.59-5.49,4.78-8-1.88-1.26-4.27-1.53-5.84.86a2.28,2.28,0,0,1-4.15-.78,1.71,1.71,0,0,1-.43.08,7.13,7.13,0,0,1-.83,1.56,2.31,2.31,0,0,1-4.11-.51,4.73,4.73,0,0,1,0-3.8,2.05,2.05,0,0,1-.47-.51s0-.08-.07-.12a2.25,2.25,0,0,1-1.26.4,9.45,9.45,0,0,1-.16,1.45,2.33,2.33,0,0,1-3.33,1.29c-.08,0-.12-.08-.19-.08a5.61,5.61,0,0,1-3.45,3c-2.12.71-4.9.55-6.55-1a4.2,4.2,0,0,1-1.06-2.94c-2.2,2-5.8,2.24-9.49-.16A2.93,2.93,0,0,1,75,38c-.16,0-.32,0-.47,0-.55,4.27-2.91,8.11-8.39,6.39C65,44,64,42.46,64.84,41.29a1.4,1.4,0,0,1-.47-.24c-1.21,2.08-3.68,3.37-7.05,3a2.92,2.92,0,0,1-1.06-.31c-.55,1.65-1.89,2.82-4.43,2.47-1.77-.24-3.06-.79-3.77-2.12-.47,1.73-2,2.94-4.7,3.1a4.38,4.38,0,0,1-.24,1,2.06,2.06,0,0,1,1.81.08,13.33,13.33,0,0,0,4.66,1.33c2.59.47,1.41,4.2-1.17,3.76a20.74,20.74,0,0,1-4.51-1.17,4.28,4.28,0,0,1-3.73,0,4.26,4.26,0,0,1-2.08.59,6.46,6.46,0,0,1-4.66-1.65c-.78,1.29-3,1.84-3.88.35a7.39,7.39,0,0,1,0,1.33,2.38,2.38,0,0,1-3.41,1.89A2.54,2.54,0,0,1,23.09,54a1,1,0,0,0-.16-.27c-.43.35-.82.7-1.21,1.06a5.9,5.9,0,0,1-.43,2.58,2.53,2.53,0,0,1-1.69,1.49,6,6,0,0,1-.2.67,2.18,2.18,0,0,1-.58.9,19.82,19.82,0,0,0,3.45,0,7.74,7.74,0,0,1,4.82,1.69c2,1.52-.94,4.27-2.94,2.74-1-.78-2.59-.63-3.92-.55A16.41,16.41,0,0,0,23.83,69a2,2,0,0,1,2.2-.16,4.49,4.49,0,0,0,3.06.71A21,21,0,0,0,32.69,68c2.4-1.06,4.4,2.27,2,3.33-1.25.55-2.51,1.21-3.8,1.68a15.07,15.07,0,0,0,1.84.59,2.31,2.31,0,0,1,3.06-.94"/>
          <path class="bc8f83b2-d71d-4a47-8614-7c6860640a8a" d="M180.89,64a6.09,6.09,0,0,0,3.92-.32,2.07,2.07,0,0,1,2.7.91.78.78,0,0,0,.12.19,3.27,3.27,0,0,0-2-2.74c-2.31-1.3-4.11-2.51-4.86-4.51a9.21,9.21,0,0,1-3.33.43,1.93,1.93,0,0,1-1.65-1.1v0a6,6,0,0,0-2.43.83c-2.27,1.33-4-2.2-1.68-3.49A10.07,10.07,0,0,1,174.81,53a20.94,20.94,0,0,1-2-3.06,2.34,2.34,0,0,1-3,.43,9.35,9.35,0,0,0-1.41-.94,2.49,2.49,0,0,0-.19.4,2.39,2.39,0,0,1-3.45,1.05,19.16,19.16,0,0,0-2.51-1.29,5.61,5.61,0,0,0,0,.82c.11,2.24-3.34,3.85-4.28,1.38-.74-1.93-3.56-4.51-5.29-7.06a10.54,10.54,0,0,1-3.37,0v.12a2.69,2.69,0,0,1-.59,1.41l-.27.27a1.73,1.73,0,0,1-.79.79,5.5,5.5,0,0,1-.15,1.72,2.33,2.33,0,0,1-2.47,2c-5.18-.74-8.51-4.16-8.94-9.17a4.23,4.23,0,0,1,0-.71c-.28-.23-.51-.47-.79-.7-.9-.87-2.08-2.83-2.82-1a2.42,2.42,0,0,1-3.45,1,3.66,3.66,0,0,0-1.33-.62,2.22,2.22,0,0,1-2.28,2.86,30.21,30.21,0,0,1-8.78-.51l-.7.63s0,0,.07,0a2,2,0,0,1,.83,1.76,2,2,0,0,0,.23.59c1.37,2.12-2.35,3.76-3.72,1.72,0,0,0-.08-.08-.11a2,2,0,0,1-.82-.55l0,0A1.68,1.68,0,0,1,112,44.7c-.12-.08-.24-.2-.36-.28a1.87,1.87,0,0,1-.08-3.05c.47-.4,1-.75,1.45-1.1l-.23-.24a2.63,2.63,0,0,1-1.69-.31c-2.94-1.57-9.91-4-12.07,0a2.37,2.37,0,0,1-2.35,1.41.24.24,0,0,1-.16,0,2,2,0,0,1-1.65,2c-1.37.28-3.45,0-4.82.59a2.12,2.12,0,0,1-2.74,1.72L86.09,45a2.64,2.64,0,0,1-.51-.19A8.77,8.77,0,0,1,84,44a2,2,0,0,1,.87-3.52,3.18,3.18,0,0,1,2.27.51,5.76,5.76,0,0,1,2.31-1,32.39,32.39,0,0,1-9.17-2.59c-3.25-.12-4,1.65-6.78,3a12.42,12.42,0,0,1-2.59.9,1.92,1.92,0,0,1-.9,1.37,1.86,1.86,0,0,1-.67,1.26,2,2,0,0,1-.19,2,2.16,2.16,0,0,1-2.83.51,8.23,8.23,0,0,1-1.88-1.49,1.72,1.72,0,0,1,.12-2.51,1.87,1.87,0,0,1-.59-1.49.15.15,0,0,1,0-.12,16.72,16.72,0,0,0-5.1-1.1,21.3,21.3,0,0,0-2.74.32V40l0,.28a2,2,0,0,1-1.18,1.61c-.66.19-1.25.51-1.88.74-.74,2.27-3.33,3-6,2.86A1.88,1.88,0,0,1,45.2,44a2.15,2.15,0,0,0-.12-.7,2.1,2.1,0,0,1-1.88-1.18,6.49,6.49,0,0,0-4.94,1.22c-.78.63-1.45.39-2.35.43a14.37,14.37,0,0,0-3.57.67c1.26.54,2.39,1.29,3.57,1.92,2.23,1.21-.16,4.43-2.39,3.21a18.32,18.32,0,0,0-3.37-1.76,4.62,4.62,0,0,0-3.14.51A2,2,0,0,1,24.85,48a18.48,18.48,0,0,0-4.15,4.39c1.33.16,2.86.4,4-.27,2.19-1.37,4.78,1.53,2.58,2.94a8,8,0,0,1-5,1.33,25,25,0,0,0-3.45-.15,2.14,2.14,0,0,1,.47.94,3.7,3.7,0,0,1,.07.66,2.36,2.36,0,0,1,1.49,1.61A5.68,5.68,0,0,1,21,62c.36.39.71.74,1.1,1.14a.59.59,0,0,1,.2-.24,2.62,2.62,0,0,1,3.17-.55,2.24,2.24,0,0,1,3.18,2.08,8,8,0,0,1-.16,1.33c1.06-1.41,3.18-.74,3.8.59A6.62,6.62,0,0,1,37.09,65a3.69,3.69,0,0,1,2,.7,4.4,4.4,0,0,1,3.69.32,23.12,23.12,0,0,1,4.67-.91c2.58-.27,3.29,3.53.7,3.81a14.79,14.79,0,0,0-4.78,1,2.12,2.12,0,0,1-1.81,0c0,.35.08.66.12,1,2.71.35,4.08,1.64,4.31,3.37a4.81,4.81,0,0,1,4-1.88c2.59-.16,3.77,1.06,4.12,2.78a2.46,2.46,0,0,1,1.1-.23c3.45-.16,5.72,1.29,6.66,3.45a3,3,0,0,1,.51-.2c-.74-1.22.47-2.71,1.73-3,5.68-1.33,7.52,2.63,7.56,6.94a2,2,0,0,0,.47.08,3.62,3.62,0,0,1,.71-.55c4-2.12,7.53-1.69,9.49.47a4.36,4.36,0,0,1,1.45-2.86c1.8-1.45,4.62-1.41,6.62-.59a5.19,5.19,0,0,1,3.06,3.25c.08,0,.16,0,.2-.07,1.21-.59,3.06.11,3.17,1.52a8.77,8.77,0,0,1,0,1.45,2.56,2.56,0,0,1,1.22.48s0-.08.08-.12a1.75,1.75,0,0,1,.55-.47,4.78,4.78,0,0,1,.43-3.81,2.33,2.33,0,0,1,4.15-.23,5,5,0,0,1,.63,1.61l.43.11a2.33,2.33,0,0,1,4.24-.51c1.29,2.47,3.68,2.4,5.72,1.26-1.88-2.59-3.72-4.71-3.76-8.23,0-1.53,1.8-2.16,3-1.89a6.33,6.33,0,0,1,5,5.61c.16,1.1.16,2.27.35,3.37a6,6,0,0,1,.44.63,1.48,1.48,0,0,1,.19,1.14c.63.78,1.84,1.64,2.47.78A2.37,2.37,0,0,1,125,83.9v-.19a2.28,2.28,0,0,1,1.88-2c1-.24,1.85-.43,2.79-.67a2.07,2.07,0,0,1,2.15.79h0a.39.39,0,0,1,.16,0,2.52,2.52,0,0,1,.75.16,2.48,2.48,0,0,1,2.74-1,2.26,2.26,0,0,1,2.35-2.9c3.69.47,5.88,2.12,6.39,5.21.87,0,1.49-.66,1.88-2a2.35,2.35,0,0,1,4-1.26c1.1,1.57,2.24,1.53,3.49-.08a2.05,2.05,0,0,1,.9-1.17,2,2,0,0,0-.11-.2c-.24-.47,0-1.1-.32-1.33a1.71,1.71,0,0,1-.74-.2,1.87,1.87,0,0,1-1.3-1.45,2.65,2.65,0,0,1-.07-.94,2.12,2.12,0,0,1,3.6-1.14s0,.08.08.12A4,4,0,0,1,158,76.26a1.43,1.43,0,0,1,.43-.08c2.39-.16,4.59-1.57,7.06-1.21a4,4,0,0,1,1.37.43,2.15,2.15,0,0,1,.79.15c.39.12.78.28,1.17.43,0,0,0-.07.08-.11a2.4,2.4,0,0,1,2.94-1.3,10.59,10.59,0,0,0,1.1.32c.39-.28.82-.55,1.29-.83,1.22-.74,2.08-.08,2.9.32.12-.08.2-.16.32-.24a2.58,2.58,0,0,1,1.92-.47,9.76,9.76,0,0,0,.78-1.37,2.4,2.4,0,0,1,3.45-1.06c1.53.86,2.67-1,3.33-2.67a3.42,3.42,0,0,1-2.07-1,10.44,10.44,0,0,1-5.26-.08C176.93,66.93,178.38,63.28,180.89,64Z"/>
          <path class="a7678376-b48e-4be0-b548-3375426fd180" d="M173.6,58.7c-2-1.14-3.69-2.2-4.36-4a8,8,0,0,1-2.94.39,1.9,1.9,0,0,1-1.49-.94v0a5.07,5.07,0,0,0-2.15.74c-2,1.18-3.53-1.92-1.53-3.09a7.78,7.78,0,0,1,2.78-1,20.23,20.23,0,0,1-1.8-2.71,2.06,2.06,0,0,1-2.67.39,8.4,8.4,0,0,0-1.25-.82c0,.12-.12.23-.16.35a2.11,2.11,0,0,1-3.06.94,23.31,23.31,0,0,0-2.23-1.13,4.57,4.57,0,0,0,0,.74c.12,2-2.9,3.41-3.8,1.22-.67-1.69-3.18-4-4.75-6.24a8.27,8.27,0,0,1-3,0v.12a2.45,2.45,0,0,1-.51,1.25l-.23.24a1.49,1.49,0,0,1-.67.71,5.05,5.05,0,0,1-.12,1.52,2,2,0,0,1-2.19,1.77c-4.59-.63-7.57-3.61-8-8.08a3.39,3.39,0,0,1,0-.63c-.24-.19-.47-.39-.71-.62-.82-.75-1.88-2.47-2.5-.86a2.12,2.12,0,0,1-3.06.94,5,5,0,0,0-1.18-.59,2,2,0,0,1-2,2.55,27.58,27.58,0,0,1-7.8-.4,6.19,6.19,0,0,1-.63.55,0,0,0,0,1,0,0,1.72,1.72,0,0,1,.75,1.57,3.5,3.5,0,0,0,.19.51c1.22,1.84-2.07,3.37-3.29,1.53,0,0,0-.08-.08-.12a1.66,1.66,0,0,1-.74-.47l0,0a1.51,1.51,0,0,1-.39-1.37c-.12-.08-.2-.16-.32-.24a1.71,1.71,0,0,1-.12-2.74l1.26-1-.24-.24a2.53,2.53,0,0,1-1.49-.23c-2.62-1.37-8.82-3.49-10.7.08a2.15,2.15,0,0,1-2.08,1.29.26.26,0,0,1-.15,0,1.76,1.76,0,0,1-1.45,1.81c-1.22.27-3.1,0-4.28.54a1.89,1.89,0,0,1-2.43,1.57c-.35-.11-.74-.27-1.1-.39a1.26,1.26,0,0,1-.47-.2,7.72,7.72,0,0,1-1.41-.7,1.74,1.74,0,0,1,.75-3.14,2.9,2.9,0,0,1,2,.43,5.26,5.26,0,0,1,2-.9,28.17,28.17,0,0,1-8.15-2.27c-2.9-.08-3.57,1.49-6,2.74a8,8,0,0,1-2.27.79,1.8,1.8,0,0,1-.79,1.21,1.71,1.71,0,0,1-.58,1.14A1.79,1.79,0,0,1,70,45a1.89,1.89,0,0,1-2.51.47,7.57,7.57,0,0,1-1.69-1.29,1.53,1.53,0,0,1,.08-2.23,1.7,1.7,0,0,1-.55-1.34v-.12a15.46,15.46,0,0,0-4.51-.94,16.32,16.32,0,0,0-2.43.32v0l0,.23a1.65,1.65,0,0,1-1,1.41c-.59.2-1.14.43-1.69.67-.67,2-2.94,2.71-5.33,2.55a1.72,1.72,0,0,1-1.61-1.37,1.72,1.72,0,0,0-.12-.63,1.85,1.85,0,0,1-1.68-1.06,5.67,5.67,0,0,0-4.36,1.1c-.7.55-1.29.35-2.07.39a11,11,0,0,0-3.14.63c1.1.47,2.16,1.13,3.18,1.68,2,1.1-.12,3.92-2.12,2.87a15.31,15.31,0,0,0-3-1.53,4,4,0,0,0-2.78.47A1.76,1.76,0,0,1,30.66,47,16.4,16.4,0,0,0,27,50.93c1.18.12,2.55.36,3.53-.27,1.92-1.26,4.27,1.33,2.31,2.59a7.35,7.35,0,0,1-4.43,1.21,21.1,21.1,0,0,0-3.06-.12,2.2,2.2,0,0,1,.43.83,2.89,2.89,0,0,1,.08.58,2.21,2.21,0,0,1,1.34,1.42,5.14,5.14,0,0,1,.11,2.31c.32.35.63.67,1,1,0-.08.12-.16.16-.24a2.3,2.3,0,0,1,2.78-.51,2,2,0,0,1,2.83,1.85,3.93,3.93,0,0,1-.16,1.17,2,2,0,0,1,3.37.51,5.94,5.94,0,0,1,4.27-1.21,3.74,3.74,0,0,1,1.81.62,4.06,4.06,0,0,1,3.29.24,17.92,17.92,0,0,1,4.12-.82c2.31-.28,2.94,3.09.63,3.37a11.83,11.83,0,0,0-4.24.94,1.7,1.7,0,0,1-1.61,0c0,.31.08.59.12.86,2.39.28,3.61,1.45,3.84,3A4.25,4.25,0,0,1,53,68.54c2.31-.16,3.37.94,3.65,2.43a3.52,3.52,0,0,1,1-.24c3.06-.16,5.09,1.14,6,3a2.59,2.59,0,0,1,.43-.16c-.67-1.09.39-2.39,1.49-2.66,5.06-1.22,6.7,2.31,6.74,6.11.16,0,.28,0,.43.08a3,3,0,0,1,.63-.51C76.88,74.69,80,75,81.78,77A4,4,0,0,1,83,74.42a6,6,0,0,1,5.88-.55,4.49,4.49,0,0,1,2.75,2.86s.12,0,.19-.08c1.1-.55,2.75.08,2.83,1.33a7,7,0,0,1,0,1.3,1.91,1.91,0,0,1,1.06.43s0-.08.07-.08a5.94,5.94,0,0,1,.47-.43,4.22,4.22,0,0,1,.36-3.37,2.07,2.07,0,0,1,3.68-.24,6.5,6.5,0,0,1,.59,1.45.71.71,0,0,1,.39.12,2.07,2.07,0,0,1,3.77-.47c1.13,2.2,3.29,2.12,5.09,1.06-1.68-2.31-3.33-4.16-3.41-7.29,0-1.38,1.57-1.92,2.71-1.69a5.59,5.59,0,0,1,4.47,4.94c.15,1,.15,2,.31,3,.16.2.27.39.39.55a1.53,1.53,0,0,1,.2,1c.59.66,1.65,1.45,2.19.66a2.09,2.09,0,0,1,2.59-.62v-.16a2.06,2.06,0,0,1,1.65-1.76c.82-.2,1.64-.4,2.47-.63a1.77,1.77,0,0,1,1.92.7h.12a1.92,1.92,0,0,1,.66.12,2.25,2.25,0,0,1,2.43-.94A2,2,0,0,1,130.94,73c3.29.4,5.25,1.85,5.73,4.59.74,0,1.29-.59,1.64-1.84a2.08,2.08,0,0,1,3.53-1.14c1,1.37,2,1.37,3.06-.12a1.87,1.87,0,0,1,.78-1s-.08-.12-.12-.16c-.19-.43,0-1-.27-1.18a1.51,1.51,0,0,1-.67-.15,1.74,1.74,0,0,1-1.17-1.26,2.86,2.86,0,0,1-.08-.82,1.86,1.86,0,0,1,3.17-1l.08.08a3.55,3.55,0,0,1,2.32,2.9,6.22,6.22,0,0,1,.9,1.53,10,10,0,0,1,1.53.58c1,.51,3.72,3,3.29-1.21a2.06,2.06,0,0,1,2.67-2.2l1,.36s0-.08.08-.12a2.15,2.15,0,0,1,2.59-1.18,5.58,5.58,0,0,0,1,.28c.35-.24.75-.47,1.14-.71,2.27-1.37,3.25,2.79,5.25-1.57a2.13,2.13,0,0,1,3.06-.94c1.37.75,2.35-.9,2.94-2.39a3.09,3.09,0,0,1-1.84-.94,9.48,9.48,0,0,1-4.67,0c-2.23-.59-.94-3.84,1.3-3.25a5.52,5.52,0,0,0,3.45-.32,1.82,1.82,0,0,1,2.39.79c0,.08.08.12.11.19C175.28,60.15,174.81,59.36,173.6,58.7Z"/>
          <path class="a75174bf-c9ef-403d-a292-b502f3e981b0" d="M113.73,83c-2.27,1.45-5.1-.86-6.78-2.08a1.81,1.81,0,0,0-1.33-.31c-.4,0-1.22,1.18-1.65.82a3.13,3.13,0,0,0-3.53-.9C98.75,81,98,83,97.93,84.57a.41.41,0,0,0,.82,0,3.88,3.88,0,0,1,2-3.41c1.41-.79,2.16.55,3,1.1,1,.66,1.81-1.38,3.06-.51,2,1.41,4.9,3.37,7.41,1.76C114.67,83.24,114.16,82.69,113.73,83Z"/>
        </g>
        <g>
          <path class="bead7501-9109-4ae7-871f-855be8e7165b" d="M16.74,62.26c-12.12,3.41,7.76-21.13,43-23.13,63.35-3.57,71.78-18.82,72-6.07.11,9.09,23.68,8.74,52,29.91,21.64,16.19-49.51-13.92-82.29,17.8C82.64,99,79.86,44.5,16.74,62.26Z"/>
          <path class="a3c6728c-6ed4-4bb6-bbf9-0173ad69fcc8" d="M19.76,59.64c-5,1.13-4.59-1.77-.16-6.2-7.1,5.69-8.66,10.47-2.86,8.82,63.12-17.8,65.9,36.7,84.64,18.55.39-.36.79-.71,1.14-1.06C83.19,95.86,81.35,45.68,19.76,59.64Z"/>
          <path class="a3c6728c-6ed4-4bb6-bbf9-0173ad69fcc8" d="M104.4,78.18s-.08,0-.08.08c31.72-25.72,92.13-2.79,82.33-12.74C177.4,67.59,124.75,55.83,104.4,78.18Z"/>
          <path class="e4d42be9-4424-42d2-999c-3d6d96b8e7a8" d="M24.23,51.52c5.6-3.65,20.74-10.11,22.5-8.43.94.9-13,4.9-13.21,5.69s.7,1.29,2.39,1.13,7-1.68,5.8-.62c-1,.86-12.58,5.13,5.76,5.21,1.93,1.25-12.7.39-19.09,2-6.58,1.65,1-1,3.06-2.43,1.88-1.26-6.86,2.12-8.86,2.27s1.57-1.6,4-2.74c2.27-1.06.08-1.49-2.59-.63S21.56,53.28,24.23,51.52Z"/>
        </g>
        <g>
          <g>
            <path class="e9762124-3492-4d22-b886-d73b747e66df" d="M126.55,55.4c0,2.75,2.82,4.55,4.59,5.57a22.84,22.84,0,0,0,7,2.47,66.85,66.85,0,0,0,14.5,1.49c14.39,0,26-4.27,26-9.57S168,45.05,153.6,45.05a20.86,20.86,0,0,0-6.66.86c-.51.2-.63.47-.59.75h0c.12.63,1.14,1.33.51,1.41a3.1,3.1,0,0,1-.86,0,22,22,0,0,0-5.3-.63C132.47,47.6,126.55,51.8,126.55,55.4Z"/>
            <g>
              <path class="a33189e6-8619-4405-8dc5-48e553ac5c1a" d="M146.82,47.36h-.16c-.27-.35-.55-.74-.27-1.09C146.66,46.82,147.33,47.33,146.82,47.36Z"/>
              <path class="a33189e6-8619-4405-8dc5-48e553ac5c1a" d="M131.14,60.26a24.51,24.51,0,0,0,7,2.51,66.85,66.85,0,0,0,14.5,1.49c14.08,0,25.52-4.11,26-9.21,0,.12,0,.23,0,.35,0,5.29-11.64,9.57-26,9.57a66.85,66.85,0,0,1-14.5-1.49,24,24,0,0,1-7-2.51c-1.77-1-4.59-2.82-4.59-5.57a1,1,0,0,1,0-.35C126.79,57.6,129.45,59.28,131.14,60.26Z"/>
            </g>
            <path class="a82efd3d-96a4-4159-a95b-8974acd782cb" d="M131.14,61a23.63,23.63,0,0,0,7,2.51A66.85,66.85,0,0,0,152.62,65c14.39,0,26-4.28,26-9.57v4.08c0,5.29-11.64,9.57-26,9.57a67.48,67.48,0,0,1-14.5-1.49,25.17,25.17,0,0,1-7-2.47c-1.77-1-4.59-2.83-4.59-5.57V55.44C126.55,58.15,129.37,59.91,131.14,61Z"/>
            <path class="fc3c7ab2-49e9-4dbb-898b-f1fb50ba43aa" d="M173.05,57c.59-1.53,1.17-2.39-.32-3.8a18.28,18.28,0,0,0-5.25-3c-1.76-.75-4.7-1.65-6-2a33.4,33.4,0,0,0-7.56-.94,32.8,32.8,0,0,0-3.89.08,22.7,22.7,0,0,1,5.49-.32,31.78,31.78,0,0,1,7.57.94,61.59,61.59,0,0,1,6,2c1.45.63,3.8,1.53,5.25,3s.86,2.28.31,3.8-2.15,1.93-4.5,2.59a6.55,6.55,0,0,1-1.06.08C171.13,58.81,172.5,58.38,173.05,57Z"/>
            <path class="fc3c7ab2-49e9-4dbb-898b-f1fb50ba43aa" d="M132.27,51.91c1.14-.9,3.38-1.41,5.06-1.92.55-.16,1.18-.27,1.81-.39-.12,0-.2,0-.32.08-1.68.47-3.92,1-5.06,1.92s-3.13,3.45,0,5.84a18.59,18.59,0,0,0,9.73,3.88,63.49,63.49,0,0,0,10.54,1,50.49,50.49,0,0,0,7.92-.47,12.34,12.34,0,0,1,1.61-.19,18.09,18.09,0,0,1-3.1.51,52.56,52.56,0,0,1-7.92.47,65,65,0,0,1-10.54-1,18.64,18.64,0,0,1-9.76-3.92C129.14,55.36,131.14,52.81,132.27,51.91Z"/>
            <g>
              <path class="fc3c7ab2-49e9-4dbb-898b-f1fb50ba43aa" d="M144.74,53.09c-.94-.75-3-2.2-4.27-1.22s1.61,1.53,2.15,1.57a9.3,9.3,0,0,0,2.12-.35Z"/>
              <path class="fc3c7ab2-49e9-4dbb-898b-f1fb50ba43aa" d="M144.74,55.09c-1.21-.2-4.82-1.33-5.41.43-.67,2.08,2.55,1.37,3.33.9s1.38-.9,2.08-1.33Z"/>
              <path class="fc3c7ab2-49e9-4dbb-898b-f1fb50ba43aa" d="M146.15,57.05c-.94.43-2.74,1.06-2.62,2.35.11,1.65,1.6.35,2-.39a8,8,0,0,0,.62-2Z"/>
              <path class="fc3c7ab2-49e9-4dbb-898b-f1fb50ba43aa" d="M163.36,52.89c.79,0,3,.32,3-.9s-1.6-.94-2.19-.47a2.1,2.1,0,0,0-.83,1.37Z"/>
              <path class="fc3c7ab2-49e9-4dbb-898b-f1fb50ba43aa" d="M161.72,51.8c.55-.55,1.68-3.06,0-2.71-1.22.27-.39,2,0,2.71Z"/>
              <path class="fc3c7ab2-49e9-4dbb-898b-f1fb50ba43aa" d="M158.58,51a2.53,2.53,0,0,0,.82-2,1,1,0,0,0-1.21-.78c-1.37.39-.24,2.15.31,2.78Z"/>
              <path class="fc3c7ab2-49e9-4dbb-898b-f1fb50ba43aa" d="M155.68,50.46c.31-1-.47-2.78-1.73-2s1.06,1.73,1.73,2Z"/>
            </g>
            <g>
              <path class="a33189e6-8619-4405-8dc5-48e553ac5c1a" d="M145,52.62c-.94-.75-3.06-2.2-4.28-1.22s1.61,1.53,2.16,1.57a9.88,9.88,0,0,0,2.12-.35Z"/>
              <path class="a33189e6-8619-4405-8dc5-48e553ac5c1a" d="M145,54.66c-1.22-.2-4.83-1.34-5.41.43-.67,2.08,2.54,1.37,3.33.9s1.33-.94,2.08-1.33Z"/>
              <path class="a33189e6-8619-4405-8dc5-48e553ac5c1a" d="M146.39,56.58c-.94.39-2.75,1.06-2.63,2.35.12,1.65,1.61.35,2-.39a8.63,8.63,0,0,0,.63-2Z"/>
              <path class="a33189e6-8619-4405-8dc5-48e553ac5c1a" d="M163.6,52.42c.78,0,3,.32,3-.9s-1.61-.94-2.2-.47a2.26,2.26,0,0,0-.82,1.37Z"/>
              <path class="a33189e6-8619-4405-8dc5-48e553ac5c1a" d="M162,51.32c.55-.54,1.69-3,0-2.7-1.21.27-.43,2,0,2.7Z"/>
              <path class="a33189e6-8619-4405-8dc5-48e553ac5c1a" d="M158.86,50.5a2.53,2.53,0,0,0,.82-2,1,1,0,0,0-1.22-.78c-1.37.39-.23,2.15.32,2.78Z"/>
              <path class="a33189e6-8619-4405-8dc5-48e553ac5c1a" d="M155.91,50c.32-1-.47-2.82-1.72-2s1.1,1.73,1.72,2Z"/>
            </g>
            <path class="a33189e6-8619-4405-8dc5-48e553ac5c1a" d="M160.19,56.26c0-1-.2-1-.79-1.49s-1-.35-1.8-.7a6.43,6.43,0,0,0-2.27-.67c-.87-.08-1,.08-1.77,0s-1.06-.12-1.64-.23-.79.19-.51.9-.2.86.27,1.25.2.2,1,.59a7,7,0,0,0,1.61.59,12,12,0,0,0,2,.31,3.57,3.57,0,0,0,2-.11,3.75,3.75,0,0,1,1.42-.28C160.15,56.46,160.19,56.26,160.19,56.26Z"/>
            <path class="fc3c7ab2-49e9-4dbb-898b-f1fb50ba43aa" d="M145.92,48.07a3.09,3.09,0,0,0,.86,0c.63-.08-.39-.74-.51-1.41Z"/>
            <path class="fc3c7ab2-49e9-4dbb-898b-f1fb50ba43aa" d="M131.1,60.93a0,0,0,0,1,0,0c.47.27,1,.55,1.49.78v4.08a10.56,10.56,0,0,1-1.49-.78s-.08,0-.16-.08C131,63.6,131.06,62.26,131.1,60.93Z"/>
            <path class="fc3c7ab2-49e9-4dbb-898b-f1fb50ba43aa" d="M128.67,59.28c0,1.3-.08,2.63-.16,4a5.08,5.08,0,0,1-2-3.76V55.4A5.42,5.42,0,0,0,128.67,59.28Z"/>
            <path class="b23b996f-8bfb-4015-8556-6258458de300" d="M157.52,64.77l1.41-.12c0,1.38,0,2.71,0,4.08l-1.37.12"/>
          </g>
          <g>
            <path class="e9762124-3492-4d22-b886-d73b747e66df" d="M125.26,62.65c0,2.83-2.94,4.59-4.79,5.61a24.57,24.57,0,0,1-7.13,2.43A67.93,67.93,0,0,1,98.52,72C83.82,71.75,72,67.2,72.06,61.83s11-10.35,25.75-10.11a21.88,21.88,0,0,1,6.83,1c.5.19.62.47.58.78h0c-.11.63-1.17,1.33-.55,1.41a3.47,3.47,0,0,0,.91,0,23.68,23.68,0,0,1,5.41-.55C119.34,54.62,125.34,59,125.26,62.65Z"/>
            <g>
              <path class="a33189e6-8619-4405-8dc5-48e553ac5c1a" d="M104.71,54.15h.16c.27-.36.55-.79.27-1.14C104.87,53.56,104.16,54.07,104.71,54.15Z"/>
              <path class="a33189e6-8619-4405-8dc5-48e553ac5c1a" d="M120.51,67.52A24.87,24.87,0,0,1,113.38,70a67.31,67.31,0,0,1-14.82,1.29c-14.39-.23-26-4.59-26.43-9.8,0,.12,0,.23,0,.39C72,67.24,83.86,71.79,98.52,72a70.26,70.26,0,0,0,14.82-1.3,24.57,24.57,0,0,0,7.13-2.43c1.85-1,4.71-2.82,4.79-5.61v-.39C125,64.89,122.28,66.54,120.51,67.52Z"/>
            </g>
            <path class="a82efd3d-96a4-4159-a95b-8974acd782cb" d="M120.51,68.26a24.57,24.57,0,0,1-7.13,2.43A67.93,67.93,0,0,1,98.56,72c-14.7-.24-26.5-4.79-26.43-10.16L72.06,66C72,71.4,83.82,76,98.48,76.14a69.6,69.6,0,0,0,14.82-1.29,24.87,24.87,0,0,0,7.13-2.43c1.81-1,4.71-2.79,4.75-5.61l.08-4.16C125.22,65.44,122.32,67.24,120.51,68.26Z"/>
            <path class="abb0bd2d-f38f-4714-896b-0f200b4c0473" d="M80.68,66c-2.39-.75-4-1.18-4.55-2.75s-1.17-2.43.36-3.88S80.41,57,81.9,56.38c1.8-.74,4.82-1.61,6.19-2a32.24,32.24,0,0,1,7.76-.82c1.89,0,5.41,0,6.32.7,1.33,1,.19,2.32-1.22,3.18a10.81,10.81,0,0,1-5.49.71,10.57,10.57,0,0,0-4.9.51,6.17,6.17,0,0,0-2.82,2,2.31,2.31,0,0,0-.47,2,1,1,0,0,1-.51,1.45A20.67,20.67,0,0,1,84,65.6,5.66,5.66,0,0,1,80.68,66Z"/>
            <path class="fc3c7ab2-49e9-4dbb-898b-f1fb50ba43aa" d="M77.78,63.52c-.55-1.57-1.18-2.43.35-3.88a17.88,17.88,0,0,1,5.41-2.94c1.81-.75,4.86-1.61,6.2-2a31.81,31.81,0,0,1,7.76-.83,34.91,34.91,0,0,1,4,.12,24,24,0,0,0-5.57-.39,32.42,32.42,0,0,0-7.76.82,50.78,50.78,0,0,0-6.19,2c-1.49.63-3.89,1.49-5.41,2.94s-1,2.31-.36,3.88,2.2,2,4.55,2.75a8.66,8.66,0,0,0,1.06.11C79.7,65.44,78.29,65,77.78,63.52Z"/>
            <path class="fc3c7ab2-49e9-4dbb-898b-f1fb50ba43aa" d="M119.49,59c-1.13-.94-3.41-1.53-5.13-2a18.59,18.59,0,0,0-1.84-.43c.11,0,.23,0,.31.08,1.72.51,4,1.09,5.13,2s3.14,3.56,0,6a19.19,19.19,0,0,1-10,3.84,67.48,67.48,0,0,1-10.78.86A49,49,0,0,1,89,68.69a16,16,0,0,0-1.64-.23,28.9,28.9,0,0,0,3.13.59,55.05,55.05,0,0,0,8.12.62,63.48,63.48,0,0,0,10.78-.86,18.86,18.86,0,0,0,10-3.84C122.63,62.58,120.63,60,119.49,59Z"/>
            <g>
              <path class="fc3c7ab2-49e9-4dbb-898b-f1fb50ba43aa" d="M106.71,60c1-.79,3.14-2.2,4.39-1.18s-1.64,1.53-2.23,1.57a8,8,0,0,1-2.16-.39Z"/>
              <path class="fc3c7ab2-49e9-4dbb-898b-f1fb50ba43aa" d="M106.67,62.07c1.26-.2,5-1.26,5.53.51.67,2.11-2.59,1.37-3.41.86s-1.37-.94-2.12-1.37Z"/>
              <path class="fc3c7ab2-49e9-4dbb-898b-f1fb50ba43aa" d="M86.29,61.83c-1.14-.7-3.53-1.57-4.55-.12-1.14,1.65,2,1.57,2.74,1.3a4.86,4.86,0,0,0,1.81-1.18Z"/>
              <path class="fc3c7ab2-49e9-4dbb-898b-f1fb50ba43aa" d="M87.74,59.48c-.79,0-3.06.27-3.06-1S86.33,57.56,87,58a2.88,2.88,0,0,1,.79,1.45Z"/>
              <path class="fc3c7ab2-49e9-4dbb-898b-f1fb50ba43aa" d="M89.42,58.42c-.55-.55-1.68-3.14,0-2.74,1.22.27.39,2,0,2.74Z"/>
              <path class="fc3c7ab2-49e9-4dbb-898b-f1fb50ba43aa" d="M92.6,57.64a2.54,2.54,0,0,1-.78-2,1.06,1.06,0,0,1,1.25-.79c1.41.4.2,2.24-.39,2.83Z"/>
              <path class="fc3c7ab2-49e9-4dbb-898b-f1fb50ba43aa" d="M95.62,57.17c-.32-1.06.51-2.87,1.76-2s-1.1,1.68-1.76,2Z"/>
            </g>
            <g>
              <path class="a33189e6-8619-4405-8dc5-48e553ac5c1a" d="M106.48,59.52c1-.79,3.13-2.2,4.39-1.18s-1.65,1.53-2.24,1.57a9.7,9.7,0,0,1-2.15-.39Z"/>
              <path class="a33189e6-8619-4405-8dc5-48e553ac5c1a" d="M106.44,61.6c1.25-.2,4.94-1.26,5.53.55.66,2.11-2.59,1.37-3.41.86s-1.38-1-2.12-1.41Z"/>
              <path class="a33189e6-8619-4405-8dc5-48e553ac5c1a" d="M105.62,65.56a6.94,6.94,0,0,1-.59-2h0c.94.43,2.78,1.13,2.66,2.43"/>
              <path class="a33189e6-8619-4405-8dc5-48e553ac5c1a" d="M86.05,61.32c-1.13-.7-3.53-1.57-4.55-.12-1.13,1.61,2,1.57,2.79,1.26a4.56,4.56,0,0,0,1.76-1.14Z"/>
              <path class="a33189e6-8619-4405-8dc5-48e553ac5c1a" d="M87.5,59c-.82,0-3.06.27-3.06-1s1.65-.94,2.28-.47A3.2,3.2,0,0,1,87.5,59Z"/>
              <path class="a33189e6-8619-4405-8dc5-48e553ac5c1a" d="M89.15,58c-.55-.55-1.69-3.14,0-2.74,1.25.23.39,2,0,2.74Z"/>
              <path class="a33189e6-8619-4405-8dc5-48e553ac5c1a" d="M92.36,57.13a2.54,2.54,0,0,1-.78-2,1.06,1.06,0,0,1,1.25-.79c1.42.4.2,2.24-.39,2.83Z"/>
              <path class="a33189e6-8619-4405-8dc5-48e553ac5c1a" d="M95.34,56.66c-.31-1,.51-2.87,1.77-2s-1.1,1.72-1.77,2Z"/>
            </g>
            <path class="a33189e6-8619-4405-8dc5-48e553ac5c1a" d="M90.91,63c0-1,.2-1.06.83-1.49s1.06-.35,1.88-.71a6.66,6.66,0,0,1,2.31-.66c.9-.08,1.06.11,1.81,0s1.09-.11,1.64-.19.79.19.51.94.2.9-.27,1.29-.24.2-1.06.59a5.5,5.5,0,0,1-1.65.55,20.34,20.34,0,0,1-2.12.31,4,4,0,0,1-2.07-.15,5.33,5.33,0,0,0-1.45-.32C91,63.2,90.91,63,90.91,63Z"/>
            <path class="fc3c7ab2-49e9-4dbb-898b-f1fb50ba43aa" d="M105.62,54.85a3.47,3.47,0,0,1-.91,0c-.62-.08.43-.78.55-1.41Z"/>
            <path class="fc3c7ab2-49e9-4dbb-898b-f1fb50ba43aa" d="M120.55,68.22a.14.14,0,0,1-.08,0c-.51.28-1,.55-1.56.79l-.08,4.15a14.31,14.31,0,0,0,1.57-.78s.07,0,.15-.08Z"/>
            <path class="fc3c7ab2-49e9-4dbb-898b-f1fb50ba43aa" d="M123,66.58c0,1.33,0,2.66.08,4a5.12,5.12,0,0,0,2.08-3.8l.08-4.16A5.16,5.16,0,0,1,123,66.58Z"/>
          </g>
        </g>
        <g>
          <g>
            <path class="ed368b2b-496c-4f1d-bace-3389d8b7c512" d="M132.74,57.91c0,1.73-2,2.82-3.29,3.45a18.25,18.25,0,0,1-5,1.53,54.58,54.58,0,0,1-10.42.94c-10.36,0-18.71-2.66-18.71-5.92S103.69,52,114,52,132.74,54.66,132.74,57.91Z"/>
            <path class="a14380ae-9ad8-4fe5-b7c8-bdd33e39984a" d="M114,52.27c10.2,0,18.47,2.58,18.7,5.8v-.16c0-3.29-8.38-5.92-18.7-5.92s-18.7,2.67-18.7,5.92v.16C95.58,54.85,103.85,52.27,114,52.27Z"/>
            <path class="a8fbe2eb-e9b6-403c-a1d3-25da38d79ae7" d="M132.51,57c-.16,1.61-2,2.67-3.29,3.25a18.35,18.35,0,0,1-5,1.53,54.62,54.62,0,0,1-10.43.94c-9.29,0-17-2.15-18.47-5v.19c0,3.29,8.39,5.92,18.71,5.92a54.58,54.58,0,0,0,10.42-.94,18.25,18.25,0,0,0,5-1.53c1.26-.63,3.29-1.76,3.29-3.45A2,2,0,0,0,132.51,57Z"/>
            <path class="bc0ef204-8e19-47bf-9099-afbee3f9a2c6" d="M125.22,57.91c0,1-1.22,1.69-2,2.08a11.61,11.61,0,0,1-3,.94,33.14,33.14,0,0,1-6.24.55c-6.15,0-11.17-1.57-11.17-3.53s5-3.53,11.17-3.53S125.22,56,125.22,57.91Z"/>
            <path class="a14380ae-9ad8-4fe5-b7c8-bdd33e39984a" d="M129.45,61.4a18.59,18.59,0,0,1-5,1.53,54.29,54.29,0,0,1-10.42.94C103.65,63.87,95.3,61.2,95.3,58v2.51c0,3.29,8.39,5.92,18.71,5.92a55.4,55.4,0,0,0,10.42-.94,19,19,0,0,0,5-1.53c1.26-.63,3.29-1.76,3.29-3.45V58C132.74,59.64,130.71,60.73,129.45,61.4Z"/>
            <path class="a648e2a3-1292-4b49-9163-2c6be03d91b6" d="M101.54,64.85a44.92,44.92,0,0,0,10.15,1.49V63.83a44.36,44.36,0,0,1-10.15-1.49Z"/>
            <path class="ff8438f1-baf5-481b-a4dd-9f1b8622ec0c" d="M124.86,65.36a19.33,19.33,0,0,0,3.93-1.18V61.67a19.33,19.33,0,0,1-3.93,1.18Z"/>
            <g>
              <path class="fdfbf32d-834b-4b55-aada-29a8e2708aa6" d="M118.79,55.68c-.08,0-2.32,1.56-3,.11S118.79,55.68,118.79,55.68Z"/>
              <path class="fdfbf32d-834b-4b55-aada-29a8e2708aa6" d="M116.55,60.26c-.08,0-2.31,1.57-3,.12S116.55,60.26,116.55,60.26Z"/>
              <path class="fdfbf32d-834b-4b55-aada-29a8e2708aa6" d="M119.85,55.75c0,.08-2.08,1.81-.55,2.63S119.85,55.75,119.85,55.75Z"/>
              <path class="fdfbf32d-834b-4b55-aada-29a8e2708aa6" d="M118.2,58.11c0,.08-2.08,1.8-.55,2.62S118.2,58.11,118.2,58.11Z"/>
              <path class="fdfbf32d-834b-4b55-aada-29a8e2708aa6" d="M108.71,55.36c0,.08.16,2.59-1.61,2.24S108.71,55.36,108.71,55.36Z"/>
              <path class="fdfbf32d-834b-4b55-aada-29a8e2708aa6" d="M108.2,57.87c0,.08.16,2.59-1.6,2.24S108.2,57.87,108.2,57.87Z"/>
              <path class="fdfbf32d-834b-4b55-aada-29a8e2708aa6" d="M111.61,55.09c0,.08.51,2.55,2.12,1.88S111.61,55.09,111.61,55.09Z"/>
              <path class="fdfbf32d-834b-4b55-aada-29a8e2708aa6" d="M122.47,56.77c0,.08.51,2.55,2.12,1.89S122.47,56.77,122.47,56.77Z"/>
              <path class="fdfbf32d-834b-4b55-aada-29a8e2708aa6" d="M120,60c0-.08.4-2.55,2-2S120,60,120,60Z"/>
              <path class="fdfbf32d-834b-4b55-aada-29a8e2708aa6" d="M113.61,59c0-.08.4-2.55,2-2S113.61,59,113.61,59Z"/>
              <path class="fdfbf32d-834b-4b55-aada-29a8e2708aa6" d="M112,60.38c-.08,0-2-1.84-2.94-.47S112,60.38,112,60.38Z"/>
              <path class="fdfbf32d-834b-4b55-aada-29a8e2708aa6" d="M112.24,59s-1.14-2.39-2.55-1.41S112.24,59,112.24,59Z"/>
            </g>
            <g>
              <path class="bfb29e2a-5de7-4433-8129-bb7beb79aea7" d="M118.47,55.4c-.07,0-2.31,1.57-3,.12S118.47,55.4,118.47,55.4Z"/>
              <path class="bfb29e2a-5de7-4433-8129-bb7beb79aea7" d="M116.24,60c-.08,0-2.31,1.57-3,.12S116.24,60,116.24,60Z"/>
              <path class="bfb29e2a-5de7-4433-8129-bb7beb79aea7" d="M119.53,55.48c0,.08-2.07,1.8-.55,2.63S119.53,55.48,119.53,55.48Z"/>
              <path class="bfb29e2a-5de7-4433-8129-bb7beb79aea7" d="M117.93,57.79c0,.08-2.08,1.81-.55,2.63S117.93,57.79,117.93,57.79Z"/>
              <path class="bfb29e2a-5de7-4433-8129-bb7beb79aea7" d="M108.4,55.09c0,.08.16,2.59-1.61,2.23S108.4,55.09,108.4,55.09Z"/>
              <path class="bfb29e2a-5de7-4433-8129-bb7beb79aea7" d="M107.89,57.6c0,.08.16,2.58-1.61,2.23S107.89,57.6,107.89,57.6Z"/>
              <path class="bfb29e2a-5de7-4433-8129-bb7beb79aea7" d="M111.3,54.81c0,.08.51,2.55,2.12,1.89S111.3,54.81,111.3,54.81Z"/>
              <path class="bfb29e2a-5de7-4433-8129-bb7beb79aea7" d="M122.12,56.5c0,.08.51,2.55,2.12,1.88S122.12,56.5,122.12,56.5Z"/>
              <path class="bfb29e2a-5de7-4433-8129-bb7beb79aea7" d="M119.69,59.71c0-.07.39-2.54,2-2S119.69,59.71,119.69,59.71Z"/>
              <path class="bfb29e2a-5de7-4433-8129-bb7beb79aea7" d="M113.3,58.7c0-.08.39-2.55,2-2S113.3,58.7,113.3,58.7Z"/>
              <path class="bfb29e2a-5de7-4433-8129-bb7beb79aea7" d="M111.69,60.11c-.08,0-2-1.85-2.94-.47S111.69,60.11,111.69,60.11Z"/>
              <path class="bfb29e2a-5de7-4433-8129-bb7beb79aea7" d="M111.93,58.73s-1.14-2.39-2.55-1.41S111.93,58.73,111.93,58.73Z"/>
            </g>
          </g>
          <g>
            <path class="ed368b2b-496c-4f1d-bace-3389d8b7c512" d="M186.57,47.76c0,1.8-2.11,3-3.45,3.64A18.58,18.58,0,0,1,177.87,53a56.84,56.84,0,0,1-11,1c-10.9,0-19.68-2.78-19.68-6.23s8.82-6.24,19.68-6.24S186.57,44.31,186.57,47.76Z"/>
            <path class="a14380ae-9ad8-4fe5-b7c8-bdd33e39984a" d="M166.85,41.8c10.75,0,19.45,2.7,19.68,6.11v-.15c0-3.45-8.82-6.24-19.68-6.24s-19.68,2.79-19.68,6.24v.15C147.45,44.54,156.15,41.8,166.85,41.8Z"/>
            <path class="a8fbe2eb-e9b6-403c-a1d3-25da38d79ae7" d="M186.3,46.74c-.16,1.68-2.16,2.78-3.45,3.45a19.35,19.35,0,0,1-5.25,1.61,57.72,57.72,0,0,1-11,1c-9.8,0-17.92-2.28-19.45-5.26v.2c0,3.45,8.82,6.23,19.68,6.23a56.84,56.84,0,0,0,11-1,20,20,0,0,0,5.25-1.61c1.34-.66,3.45-1.84,3.45-3.64A1.59,1.59,0,0,0,186.3,46.74Z"/>
            <path class="bc0ef204-8e19-47bf-9099-afbee3f9a2c6" d="M178.61,47.76c0,1.06-1.25,1.76-2.07,2.15a11,11,0,0,1-3.14,1,33.46,33.46,0,0,1-6.55.59c-6.51,0-11.76-1.68-11.76-3.72S160.34,44,166.85,44,178.61,45.68,178.61,47.76Z"/>
            <path class="a648e2a3-1292-4b49-9163-2c6be03d91b6" d="M153.68,55.05a49.65,49.65,0,0,0,10.7,1.57V54a44.62,44.62,0,0,1-10.7-1.57v2.67Z"/>
            <path class="ff8438f1-baf5-481b-a4dd-9f1b8622ec0c" d="M178.26,55.6a19.81,19.81,0,0,0,4.16-1.22V51.72a19.78,19.78,0,0,1-4.16,1.21Z"/>
            <g>
              <path class="fdfbf32d-834b-4b55-aada-29a8e2708aa6" d="M171.91,45.37c-.08,0-2.43,1.64-3.14.11S171.91,45.37,171.91,45.37Z"/>
              <path class="fdfbf32d-834b-4b55-aada-29a8e2708aa6" d="M169.52,50.23c-.08,0-2.43,1.64-3.14.11S169.52,50.23,169.52,50.23Z"/>
              <path class="fdfbf32d-834b-4b55-aada-29a8e2708aa6" d="M173,45.48c0,.08-2.16,1.92-.55,2.75S173,45.48,173,45.48Z"/>
              <path class="fdfbf32d-834b-4b55-aada-29a8e2708aa6" d="M171.28,47.91c0,.08-2.15,1.92-.55,2.75S171.28,47.91,171.28,47.91Z"/>
              <path class="fdfbf32d-834b-4b55-aada-29a8e2708aa6" d="M161.25,45.09c0,.08.15,2.71-1.69,2.35S161.25,45.09,161.25,45.09Z"/>
              <path class="fdfbf32d-834b-4b55-aada-29a8e2708aa6" d="M160.7,47.72c0,.08.15,2.7-1.69,2.35S160.7,47.72,160.7,47.72Z"/>
              <path class="fdfbf32d-834b-4b55-aada-29a8e2708aa6" d="M164.3,44.78c0,.08.51,2.66,2.24,2S164.3,44.78,164.3,44.78Z"/>
              <path class="fdfbf32d-834b-4b55-aada-29a8e2708aa6" d="M175.71,46.54c0,.08.51,2.67,2.24,2S175.71,46.54,175.71,46.54Z"/>
              <path class="fdfbf32d-834b-4b55-aada-29a8e2708aa6" d="M173.16,50c0-.08.44-2.7,2.16-2S173.16,50,173.16,50Z"/>
              <path class="fdfbf32d-834b-4b55-aada-29a8e2708aa6" d="M166.42,48.85c0-.07.43-2.7,2.16-2S166.42,48.85,166.42,48.85Z"/>
              <path class="fdfbf32d-834b-4b55-aada-29a8e2708aa6" d="M164.7,50.34c-.08,0-2.16-2-3.1-.51S164.7,50.34,164.7,50.34Z"/>
              <path class="fdfbf32d-834b-4b55-aada-29a8e2708aa6" d="M165,48.93c-.08,0-1.18-2.51-2.66-1.49S165,48.93,165,48.93Z"/>
            </g>
            <g>
              <path class="bfb29e2a-5de7-4433-8129-bb7beb79aea7" d="M171.56,45.09c-.08,0-2.43,1.65-3.14.12S171.56,45.09,171.56,45.09Z"/>
              <path class="bfb29e2a-5de7-4433-8129-bb7beb79aea7" d="M169.21,49.91c-.08,0-2.44,1.65-3.14.12S169.21,49.91,169.21,49.91Z"/>
              <path class="bfb29e2a-5de7-4433-8129-bb7beb79aea7" d="M172.69,45.17c0,.08-2.15,1.92-.54,2.74S172.69,45.17,172.69,45.17Z"/>
              <path class="bfb29e2a-5de7-4433-8129-bb7beb79aea7" d="M170.93,47.64c0,.08-2.16,1.92-.55,2.74S170.93,47.64,170.93,47.64Z"/>
              <path class="bfb29e2a-5de7-4433-8129-bb7beb79aea7" d="M160.93,44.78c0,.08.16,2.7-1.68,2.35S160.93,44.78,160.93,44.78Z"/>
              <path class="bfb29e2a-5de7-4433-8129-bb7beb79aea7" d="M160.38,47.44c0,.08.16,2.71-1.68,2.36S160.38,47.44,160.38,47.44Z"/>
              <path class="bfb29e2a-5de7-4433-8129-bb7beb79aea7" d="M164,44.5c0,.08.51,2.67,2.24,2S164,44.5,164,44.5Z"/>
              <path class="bfb29e2a-5de7-4433-8129-bb7beb79aea7" d="M175.4,46.27c0,.08.51,2.66,2.23,2S175.4,46.27,175.4,46.27Z"/>
              <path class="bfb29e2a-5de7-4433-8129-bb7beb79aea7" d="M172.81,49.64c0-.08.43-2.71,2.16-2S172.81,49.64,172.81,49.64Z"/>
              <path class="bfb29e2a-5de7-4433-8129-bb7beb79aea7" d="M166.11,48.58c0-.08.43-2.7,2.15-2S166.11,48.58,166.11,48.58Z"/>
              <path class="bfb29e2a-5de7-4433-8129-bb7beb79aea7" d="M164.38,50c-.08,0-2.15-2-3.09-.51S164.38,50,164.38,50Z"/>
              <path class="bfb29e2a-5de7-4433-8129-bb7beb79aea7" d="M164.66,48.62c-.08,0-1.18-2.51-2.67-1.49S164.66,48.62,164.66,48.62Z"/>
            </g>
          </g>
          <g>
            <path class="ed368b2b-496c-4f1d-bace-3389d8b7c512" d="M91.23,58c0,1.8-2.12,3-3.45,3.64a18.64,18.64,0,0,1-5.26,1.61,56.74,56.74,0,0,1-11,1c-10.9,0-19.68-2.78-19.68-6.23s8.82-6.23,19.68-6.23S91.23,54.58,91.23,58Z"/>
            <path class="a14380ae-9ad8-4fe5-b7c8-bdd33e39984a" d="M71.55,52.07c10.74,0,19.44,2.7,19.68,6.12V58c0-3.45-8.82-6.23-19.68-6.23S51.87,54.58,51.87,58v.16C52.1,54.81,60.8,52.07,71.55,52.07Z"/>
            <path class="a8fbe2eb-e9b6-403c-a1d3-25da38d79ae7" d="M91,57c-.15,1.69-2.15,2.78-3.45,3.45a19.25,19.25,0,0,1-5.25,1.61,57.64,57.64,0,0,1-11,1c-9.8,0-17.91-2.28-19.44-5.26V58c0,3.45,8.82,6.23,19.68,6.23a56.74,56.74,0,0,0,11-1,20.4,20.4,0,0,0,5.26-1.6c1.33-.67,3.45-1.85,3.45-3.65A1.55,1.55,0,0,0,91,57Z"/>
            <path class="bc0ef204-8e19-47bf-9099-afbee3f9a2c6" d="M83.31,58c0,1.06-1.26,1.76-2.08,2.15a11.36,11.36,0,0,1-3.14,1,33.35,33.35,0,0,1-6.54.58C65,61.75,59.78,60.07,59.78,58S65,54.3,71.55,54.3,83.31,56,83.31,58Z"/>
            <path class="a14380ae-9ad8-4fe5-b7c8-bdd33e39984a" d="M87.78,61.67a18.64,18.64,0,0,1-5.26,1.61,56.74,56.74,0,0,1-11,1c-10.9,0-19.68-2.78-19.68-6.23v2.66c0,3.45,8.82,6.24,19.68,6.24a57.54,57.54,0,0,0,11-1,19.05,19.05,0,0,0,5.26-1.65c1.33-.67,3.45-1.84,3.45-3.64V58C91.23,59.83,89.11,61,87.78,61.67Z"/>
            <path class="a648e2a3-1292-4b49-9163-2c6be03d91b6" d="M58.33,65.32A49.75,49.75,0,0,0,69,66.89V64.22a44.21,44.21,0,0,1-10.71-1.57Z"/>
            <path class="ff8438f1-baf5-481b-a4dd-9f1b8622ec0c" d="M82.92,65.87a19,19,0,0,0,4.15-1.22V62a19,19,0,0,1-4.15,1.21Z"/>
            <g>
              <path class="fdfbf32d-834b-4b55-aada-29a8e2708aa6" d="M76.56,55.64c-.07,0-2.43,1.64-3.13.11S76.56,55.64,76.56,55.64Z"/>
              <path class="fdfbf32d-834b-4b55-aada-29a8e2708aa6" d="M74.17,60.5c-.08,0-2.43,1.65-3.13.12S74.17,60.5,74.17,60.5Z"/>
              <path class="fdfbf32d-834b-4b55-aada-29a8e2708aa6" d="M77.66,55.75c0,.08-2.15,1.93-.55,2.75S77.66,55.75,77.66,55.75Z"/>
              <path class="fdfbf32d-834b-4b55-aada-29a8e2708aa6" d="M75.94,58.19c0,.07-2.16,1.92-.55,2.74S75.94,58.19,75.94,58.19Z"/>
              <path class="fdfbf32d-834b-4b55-aada-29a8e2708aa6" d="M65.9,55.36c0,.08.16,2.71-1.68,2.36S65.9,55.36,65.9,55.36Z"/>
              <path class="fdfbf32d-834b-4b55-aada-29a8e2708aa6" d="M65.39,58c0,.08.16,2.7-1.68,2.35S65.39,58,65.39,58Z"/>
              <path class="fdfbf32d-834b-4b55-aada-29a8e2708aa6" d="M69,55.05c0,.08.51,2.67,2.23,2S69,55.05,69,55.05Z"/>
              <path class="fdfbf32d-834b-4b55-aada-29a8e2708aa6" d="M80.41,56.81c0,.08.51,2.67,2.23,2S80.41,56.81,80.41,56.81Z"/>
              <path class="fdfbf32d-834b-4b55-aada-29a8e2708aa6" d="M77.82,60.22c0-.07.43-2.7,2.16-2S77.82,60.22,77.82,60.22Z"/>
              <path class="fdfbf32d-834b-4b55-aada-29a8e2708aa6" d="M71.08,59.13c0-.08.43-2.71,2.15-2S71.08,59.13,71.08,59.13Z"/>
              <path class="fdfbf32d-834b-4b55-aada-29a8e2708aa6" d="M69.39,60.62c-.08,0-2.16-2-3.1-.51S69.39,60.62,69.39,60.62Z"/>
              <path class="fdfbf32d-834b-4b55-aada-29a8e2708aa6" d="M69.66,59.2S68.49,56.7,67,57.72,69.66,59.2,69.66,59.2Z"/>
            </g>
            <g>
              <path class="bfb29e2a-5de7-4433-8129-bb7beb79aea7" d="M76.21,55.36c-.08,0-2.43,1.65-3.13.12S76.21,55.36,76.21,55.36Z"/>
              <path class="bfb29e2a-5de7-4433-8129-bb7beb79aea7" d="M73.86,60.18c-.08,0-2.43,1.65-3.14.12S73.86,60.18,73.86,60.18Z"/>
              <path class="bfb29e2a-5de7-4433-8129-bb7beb79aea7" d="M77.35,55.44c0,.08-2.16,1.92-.55,2.75S77.35,55.44,77.35,55.44Z"/>
              <path class="bfb29e2a-5de7-4433-8129-bb7beb79aea7" d="M75.62,57.91c0,.08-2.15,1.92-.55,2.75S75.62,57.91,75.62,57.91Z"/>
              <path class="bfb29e2a-5de7-4433-8129-bb7beb79aea7" d="M65.59,55.05c0,.08.15,2.7-1.69,2.35S65.59,55.05,65.59,55.05Z"/>
              <path class="bfb29e2a-5de7-4433-8129-bb7beb79aea7" d="M65,57.72c0,.07.16,2.7-1.69,2.35S65,57.72,65,57.72Z"/>
              <path class="bfb29e2a-5de7-4433-8129-bb7beb79aea7" d="M68.65,54.77c0,.08.5,2.67,2.23,2S68.65,54.77,68.65,54.77Z"/>
              <path class="bfb29e2a-5de7-4433-8129-bb7beb79aea7" d="M80.05,56.54c0,.08.51,2.66,2.24,2S80.05,56.54,80.05,56.54Z"/>
              <path class="bfb29e2a-5de7-4433-8129-bb7beb79aea7" d="M77.47,59.91c0-.08.43-2.7,2.15-2S77.47,59.91,77.47,59.91Z"/>
              <path class="bfb29e2a-5de7-4433-8129-bb7beb79aea7" d="M70.76,58.85c0-.08.43-2.7,2.16-2S70.76,58.85,70.76,58.85Z"/>
              <path class="bfb29e2a-5de7-4433-8129-bb7beb79aea7" d="M69,60.3c-.08,0-2.16-2-3.1-.51S69,60.3,69,60.3Z"/>
              <path class="bfb29e2a-5de7-4433-8129-bb7beb79aea7" d="M69.31,58.89s-1.17-2.51-2.66-1.49S69.31,58.89,69.31,58.89Z"/>
            </g>
          </g>
        </g>
        <g>
          <g>
            <path class="a7ab30eb-12ff-480e-b7a3-39b14ecfddf1" d="M107.18,49.17c11.84,3.13,20.63,8,19.68,10.9s-11.33,2.62-23.17-.51a78.32,78.32,0,0,1-11.64-4A25.17,25.17,0,0,1,86.8,52.7c-1.26-.94-3.26-2.55-2.75-4C85,45.8,95.34,46,107.18,49.17ZM90,53a19.2,19.2,0,0,0,4.35,2.35,66.88,66.88,0,0,0,9.65,3.3c9.8,2.58,18.35,2.78,19.17.43s-6.47-6.39-16.27-9-18.35-2.78-19.17-.43C87.31,50.85,89,52.19,90,53Z"/>
            <path class="f43ea21f-17db-41cf-9453-045f429f5471" d="M106.4,51.56c-8.74-2.31-16.55-2.71-18.66-1.1a1.43,1.43,0,0,1,0-.82c.78-2.35,9.37-2.16,19.17.43s17,6.63,16.27,9a1.64,1.64,0,0,1-.51.66C121.85,57.32,115.1,53.87,106.4,51.56Z"/>
            <path class="f45b9196-d127-4e91-ab3f-f0bd8413fc6a" d="M103.81,59.17c11,2.9,20.27,3,21.17.35s-6.94-7.14-17.91-10S86.8,46.42,85.9,49.13c-.51,1.53,1.56,3.06,2.54,3.8a22.43,22.43,0,0,0,4.83,2.63A70.63,70.63,0,0,0,103.81,59.17ZM107,49.83c10.35,2.75,18.42,7.14,17.6,9.57s-10.27,2.16-20.62-.59a75,75,0,0,1-10.47-3.56,25.08,25.08,0,0,1-4.7-2.55c-1.41-1.06-2.79-2.32-2.39-3.45C87.15,46.82,96.6,47.09,107,49.83Z"/>
            <path class="e4b08c6d-e2ef-4f22-86bb-c35b10d0ec0b" d="M98.05,59.91c-.75-.23-1.49-.51-2.24-.74l.63-1.89c.75.28,1.49.51,2.24.75Z"/>
            <path class="e4b08c6d-e2ef-4f22-86bb-c35b10d0ec0b" d="M94.36,58.62c-1-.4-2-.79-3-1.22a1.53,1.53,0,0,1-.35-.16l.63-1.88c.12,0,.23.12.35.16,1,.43,2,.82,3,1.21Z"/>
            <path class="b8e99a4f-d6af-42f1-abb3-44f41870fead" d="M118.2,56a57.05,57.05,0,0,0-11.8-4.43,57.17,57.17,0,0,0-13.25-2.08L93.66,48A57.8,57.8,0,0,1,106.91,50a57.05,57.05,0,0,1,11.8,4.43Z"/>
            <path class="a1e764cf-9770-42a6-b394-c5beaec1046b" d="M103.77,59.32c11.25,3,21.13,3.18,22.07.43s-7.44-7.41-18.7-10.39S86,46.19,85.07,48.93c-.51,1.53,1.61,3.14,2.63,3.88a25.38,25.38,0,0,0,5,2.75A81.56,81.56,0,0,0,103.77,59.32Zm3.3-9.8c11.13,2.94,19.44,7.53,18.54,10.19s-10.66,2.4-21.8-.54a82.36,82.36,0,0,1-11-3.77,25.77,25.77,0,0,1-5-2.7c-1.53-1.14-3-2.47-2.55-3.73C86.17,46.31,95.93,46.58,107.07,49.52Z"/>
            <path class="f5487ff0-243b-4512-b771-7d243c28b2e4" d="M116,54.85a63.31,63.31,0,0,0-9.57-3.33c-.94-.23-1.88-.47-2.78-.71l.51-1.48c.9.19,1.84.43,2.78.66a63.16,63.16,0,0,1,9.56,3.33Z"/>
          </g>
          <g>
            <path class="aa688e06-4ff9-4a74-9de1-c2103110a14d" d="M109,44.07c-.2,2,2.31,3.49,3.88,4.39a25.4,25.4,0,0,0,6.43,2.43,79.71,79.71,0,0,0,13.72,2.39c13.68,1.3,25.13-.74,25.68-4.5l5.21.51-.35,3c-.55,4.63-14.47,7.06-31,5.49A102.71,102.71,0,0,1,116,54.89,30.79,30.79,0,0,1,108.2,52c-1.92-1.1-5-2.94-4.7-5.37l.35-3Z"/>
            <path class="a7ab30eb-12ff-480e-b7a3-39b14ecfddf1" d="M134.9,38c16.58,1.57,29.6,6.59,29,11.18s-14.46,7-31,5.49a102.9,102.9,0,0,1-16.58-2.9,30.6,30.6,0,0,1-7.76-2.95c-1.93-1.09-5-2.94-4.71-5.37C104.4,38.94,118.28,36.47,134.9,38ZM113,48.46a25.4,25.4,0,0,0,6.43,2.43,79.71,79.71,0,0,0,13.72,2.39c13.72,1.3,25.21-.74,25.68-4.54s-10.31-8-24-9.26-25.2.75-25.67,4.55C108.79,46,111.34,47.56,113,48.46Z"/>
            <path class="f43ea21f-17db-41cf-9453-045f429f5471" d="M134.43,41.88c-12.27-1.18-22.78.35-25.17,3.41A2.39,2.39,0,0,1,109,44c.47-3.8,12-5.84,25.68-4.55s24.46,5.45,24,9.26a2.61,2.61,0,0,1-.51,1.17C156.58,46.46,146.7,43.05,134.43,41.88Z"/>
            <path class="f45b9196-d127-4e91-ab3f-f0bd8413fc6a" d="M133,54.19c15.37,1.45,27.84-.83,28.35-5.22S150.23,40,134.82,38.58s-27.83.83-28.38,5.22c-.32,2.43,2.86,4.23,4.39,5.09a29.43,29.43,0,0,0,7.1,2.67A90,90,0,0,0,133,54.19Zm1.8-15.06c14.55,1.37,26.43,5.84,26,9.8S147.6,55,133.06,53.64a91.58,91.58,0,0,1-14.9-2.59,30.25,30.25,0,0,1-6.94-2.63c-2.15-1.21-4.31-2.74-4.12-4.58C107.58,39.92,120.24,37.76,134.78,39.13Z"/>
            <path class="e4b08c6d-e2ef-4f22-86bb-c35b10d0ec0b" d="M125.45,56.89c-1.06-.16-2.11-.35-3.17-.55l.35-3.06c1.06.2,2.12.4,3.18.55Z"/>
            <path class="e4b08c6d-e2ef-4f22-86bb-c35b10d0ec0b" d="M120.2,55.91c-1.41-.31-2.86-.63-4.27-1a4.63,4.63,0,0,1-.51-.15l.35-3.06c.16,0,.31.08.51.15,1.41.4,2.82.71,4.27,1Z"/>
            <path class="b8e99a4f-d6af-42f1-abb3-44f41870fead" d="M151.33,45.4a69.06,69.06,0,0,0-16.9-3.52,69.23,69.23,0,0,0-18.19.43l.27-2.39a67.56,67.56,0,0,1,18.2-.44A69.5,69.5,0,0,1,151.6,43Z"/>
            <path class="a1e764cf-9770-42a6-b394-c5beaec1046b" d="M132.94,54.42c15.76,1.49,29-.9,29.56-5.33s-11.88-9.25-27.64-10.74-29.05.9-29.56,5.33c-.31,2.47,2.94,4.31,4.51,5.21a31.56,31.56,0,0,0,7.41,2.79A96.87,96.87,0,0,0,132.94,54.42Zm1.88-15.8c15.61,1.49,27.88,6.16,27.37,10.43S148.58,55.6,133,54.15a90.75,90.75,0,0,1-15.64-2.75A31.29,31.29,0,0,1,110,48.66c-2.32-1.3-4.63-2.9-4.39-4.94C106.12,39.45,119.22,37.17,134.82,38.62Z"/>
            <path class="f5487ff0-243b-4512-b771-7d243c28b2e4" d="M148.07,44.35a79.41,79.41,0,0,0-13.64-2.47c-1.33-.12-2.63-.2-3.88-.28l.27-2.39c1.26.08,2.59.16,3.89.27A78.39,78.39,0,0,1,148.35,42Z"/>
          </g>
          <g>
            <path class="aa688e06-4ff9-4a74-9de1-c2103110a14d" d="M42.93,52c.23,1.18,2.23,1.73,3.49,2a25,25,0,0,0,4.82.47,66.84,66.84,0,0,0,9.8-.63c9.57-1.29,17-4.19,16.7-6.5l3.65-.47.31,1.84c.47,2.82-8.55,6.35-20.19,7.92a79.47,79.47,0,0,1-11.84.78,26.43,26.43,0,0,1-5.84-.59c-1.53-.35-4-1-4.2-2.47l-.31-1.84Z"/>
            <path class="a7ab30eb-12ff-480e-b7a3-39b14ecfddf1" d="M59.47,44.5c11.65-1.57,21.45-.55,21.92,2.28S72.84,53.13,61.2,54.7a79.47,79.47,0,0,1-11.84.78,26.43,26.43,0,0,1-5.84-.59c-1.53-.35-4-1-4.2-2.47C38.77,49.6,47.83,46.07,59.47,44.5ZM46.42,54a24.77,24.77,0,0,0,4.82.47,66.84,66.84,0,0,0,9.8-.63c9.6-1.29,17.09-4.23,16.7-6.54s-8.51-3.18-18.11-1.89S42.53,49.64,42.93,52C43.12,53.17,45.12,53.68,46.42,54Z"/>
            <path class="f5487ff0-243b-4512-b771-7d243c28b2e4" d="M43.48,54.89a29.07,29.07,0,0,0,5.84.59,79.47,79.47,0,0,0,11.84-.78c6.66-.91,12.46-2.43,16.15-4.12l.31,1.84c-3.64,1.69-9.48,3.22-16.15,4.12a79.47,79.47,0,0,1-11.84.78,25.84,25.84,0,0,1-5.84-.59,5.16,5.16,0,0,1-.75-.19l-.31-1.84C43,54.77,43.24,54.85,43.48,54.89Z"/>
            <path class="f43ea21f-17db-41cf-9453-045f429f5471" d="M59.86,46.86c-8.58,1.17-15.48,3.6-16.54,5.8a1.26,1.26,0,0,1-.39-.71c-.4-2.31,7-5.25,16.7-6.55s17.72-.47,18.11,1.89a1.15,1.15,0,0,1-.16.78C75.82,46.23,68.41,45.72,59.86,46.86Z"/>
            <path class="f45b9196-d127-4e91-ab3f-f0bd8413fc6a" d="M61.12,54.34C71.9,52.89,80,49.68,79.5,47s-9.25-3.6-20-2.19-18.86,4.66-18.39,7.33c.24,1.49,2.75,2.08,4,2.35a23.5,23.5,0,0,0,5.34.51A68.41,68.41,0,0,0,61.12,54.34Zm-1.53-9.17c10.19-1.37,19.13-.51,19.52,1.92s-7.84,5.57-18,6.94a74.21,74.21,0,0,1-10.66.71,22.09,22.09,0,0,1-5.22-.51c-1.68-.4-3.45-1-3.65-2.08C41.16,49.72,49.4,46.54,59.59,45.17Z"/>
            <path class="b8e99a4f-d6af-42f1-abb3-44f41870fead" d="M72.06,46.42a55.64,55.64,0,0,0-12.2.44,54.29,54.29,0,0,0-12.35,3l-.23-1.45a54.77,54.77,0,0,1,12.35-3A56.1,56.1,0,0,1,71.82,45Z"/>
            <path class="a1e764cf-9770-42a6-b394-c5beaec1046b" d="M61.16,54.5c11-1.49,19.64-4.9,19.21-7.61s-9.8-3.68-20.86-2.19-19.64,4.9-19.17,7.6c.27,1.49,2.82,2.12,4.08,2.4a28.28,28.28,0,0,0,5.56.55A76.85,76.85,0,0,0,61.16,54.5Zm-1.65-9.64c10.94-1.45,20.19-.55,20.62,2.07s-8.07,5.92-19,7.41a74.91,74.91,0,0,1-11.21.75,22.3,22.3,0,0,1-5.49-.55c-1.81-.43-3.69-1-3.92-2.27C40.07,49.64,48.61,46.35,59.51,44.86Z"/>
            <path class="f5487ff0-243b-4512-b771-7d243c28b2e4" d="M69.63,46.27a62,62,0,0,0-9.77.59c-.94.11-1.84.27-2.7.43l-.24-1.45c.87-.16,1.81-.32,2.71-.44a63,63,0,0,1,9.76-.58Z"/>
          </g>
        </g>
        <g>
          <path class="bde3c754-2273-41e6-84e7-42e9467136e3" d="M15.33,28.27s1.49-1.49,5.29-2,81.31-14.54,81.31-14.54,10.43-1.26,17.49.43,51.67,13.41,51.67,13.41,16.66,4.23,17.8,4.78,3.37,2-.55,3.37l-92,16s-8.19,1-12.42.55S16.78,29.76,15.33,28.27Z"/>
          <path class="ff06f5b3-a720-4601-a899-d19379d16c12" d="M86.88,50.23a69.67,69.67,0,0,0,10.78-.87c4.51-.86,89.85-15.68,89.85-15.68s3-.51,3-1.92V45.48s-.27,1.34-3.68,2.08-93.7,15.25-93.7,15.25-4.82.24-6.16.16Z"/>
          <path class="a2181d9f-dd8f-4fff-8b99-f0e84f1ba9c7" d="M15.37,28.31s2,.71,5,2c6.39,2.63,57.87,18.62,59.28,18.9s5.69,1.45,7.18,1L86.91,63a64.91,64.91,0,0,1-9-.67c-2.59-.63-61.08-19.6-61.08-19.6s-1.73-.86-1.73-2S15.37,28.31,15.37,28.31Z"/>
          <path class="a4c5a8d8-3c81-45b5-8eaf-67fe698b9c5d" d="M19.36,28.47s1.42-1.37,5.06-1.88S101.93,13.3,101.93,13.3s10-1.18,16.7.39S167.87,26,167.87,26s15.88,3.88,17,4.39,3.21,1.8-.55,3.1L96.56,48s-7.8.9-11.84.51S20.82,29.84,19.36,28.47Z"/>
          <path class="a0a0fd16-8478-48d5-85b2-9bf845ec90ba" d="M78.49,48.89a31.82,31.82,0,0,0,8.39,1.34c3.45-.16,6.9-.36,8.27-.51v12.7A32.27,32.27,0,0,1,87,63c-4.94-.2-7-.08-8.39-.51Z"/>
          <path class="a3d178d9-d5c3-49e0-8f76-9cb8866518dd" d="M118.63,13.69C118.44,13.57,167.87,26,167.87,26s15.88,3.88,17,4.39,3.21,1.8-.55,3.1L96.56,48S147.49,28.78,118.63,13.69Z"/>
        </g>
      </g>
    </g>
  </g>
</svg>
