<svg id="ab6e4ac7-1a26-403d-a9df-606cd8f4ef83" data-name="Layer 1" xmlns="http://www.w3.org/2000/svg" width="212.95" height="225.01" viewBox="0 0 212.95 225.01">
  <defs>
    <style>
      .af9d9541-afed-4509-86c4-2240caea5b29 {
        opacity: 0.5;
      }

      .f94157ed-126d-4c55-9a06-f53357e8047a {
        fill: #fff;
      }

      .a32d5a92-9989-4563-9522-6bb0da02dcc7, .b2a5827e-294a-4814-9d71-896c6ad700ca {
        fill: #5118aa;
      }

      .b2a5827e-294a-4814-9d71-896c6ad700ca, .f238a9a8-23b6-4086-aec4-a21100d3aafb {
        stroke: #7a00ba;
        stroke-miterlimit: 10;
        stroke-width: 2px;
      }

      .f238a9a8-23b6-4086-aec4-a21100d3aafb, .fceb0dc9-4f9e-4d83-848d-46803055fe5d {
        fill: #935dd8;
      }

      .b2d30183-2713-4061-9788-5543d5d38983 {
        fill: #6532b7;
      }

      .e4f309ac-a446-49c4-a1da-c35e9fb6bf85 {
        fill: #bdebf9;
      }
    </style>
  </defs>
  <g>
    <path class="af9d9541-afed-4509-86c4-2240caea5b29" d="M61.76,222.13c-6.12,0-10.85-1.52-14-4.51-3.41-3.13-4.79-7.67-3.83-12.73A16.45,16.45,0,0,1,45.16,201c-.59,0-1.18.05-1.77.05a27.55,27.55,0,0,1-16.73-5.78,31.53,31.53,0,0,1-11.89-31.17c3.33-16.54,15.25-26.63,27.34-33.2-5.71-1.56-22.72-7.22-28.32-20.31a45.92,45.92,0,0,1-2.62-28.34,35.52,35.52,0,0,1,3.64-9.3,8.69,8.69,0,0,1-4.26-2.67C7,66.29,7.43,60,7.64,58.22c1.62-14.36,9.57-22.89,21.79-23.37l1.59,0c11.67,0,19.19,5.31,22.35,15.78A38.55,38.55,0,0,1,59.2,25.49C69.7,8.52,94.78,7.66,99.7,7.66H100c24.51.6,41.11,17.47,42.48,32.76,1,11.62-3.28,23.19-7.11,33.39-2.2,5.9-5.2,13.88-4.51,16.92a15.29,15.29,0,0,0,2.23-3.11c.6-1,1.27-2.35,2-3.74,3.79-7.46,9.52-18.74,20.94-18.74a16.17,16.17,0,0,1,2.68.23,15.33,15.33,0,0,1,10.54,6.33c4.4,6.31,3.12,14.74,1.88,21.25A27.31,27.31,0,0,1,185,88.86c10.46,0,25.05,8.61,25.22,24.77s-7,25.92-21.24,28.85a31.61,31.61,0,0,1-6.33.68h0c-9.28,0-15.26-4.87-17.57-10.78a37.2,37.2,0,0,1-18,4.13H146a62.12,62.12,0,0,1-9.35-1,44,44,0,0,0,7.74,3.19l6.47,2c11.82,3.58,18.33,5.55,25,10.43,10.42,7.69,24.07,27.81,16.41,49.12-4,11.11-16.17,16.54-26.51,17l-.94,0c-11.84,0-25-9.38-27.49-19.68-2.63-10.86,4.7-22.41,8-26.88a1.57,1.57,0,0,0-.13.2,6.54,6.54,0,0,1,.56-.74v0c-12.24-2.7-22.39-6-30.89-10a29.08,29.08,0,0,1,2.81,7.73,43.48,43.48,0,0,1-2.78,26c-7.18,16.12-25.33,18.28-35.66,18.57l0,.41a7.55,7.55,0,0,1-3.57,5.92,24.18,24.18,0,0,1-8.13,2.94A36.72,36.72,0,0,1,61.76,222.13Zm97.74-48.26a15.76,15.76,0,0,1-.3,4.92c-1.46,8.71-.39,10.88.38,11.4l.17.1a11,11,0,0,0,5.12,1.42,4.5,4.5,0,0,0,3.21-1c1.11-1.18.5-3.63.18-4.63,0-.09,0-.17-.08-.25s-.12-.31-.18-.47l-.15-.39C165.34,178.81,162.51,175.65,159.5,173.87ZM69.78,172.4a23.38,23.38,0,0,1-3.37,16.21L69,188c11.45-2.73,16.54-4.58,16.48-8.37v-.41c-.28-4-2.72-6.56-7-10.66-4-3.9-9-8.74-10.29-16.18v0c-.89.2-1.79.39-2.7.56a61.6,61.6,0,0,0-7.14,1.76,26.43,26.43,0,0,1,11.37,17.44C69.75,172.19,69.77,172.3,69.78,172.4ZM41,172.71a3.62,3.62,0,0,0,2.37,1.39,3.17,3.17,0,0,0,1.35-.38l.13-.07a3.65,3.65,0,0,0,1.11-.8,2.11,2.11,0,0,0,.33-.49.59.59,0,0,1,0-.08c.86-2-.38-5.88-1.32-7.57A7.67,7.67,0,0,1,43.51,163a15.55,15.55,0,0,0-2.33,3.21c-1.1,2.09-1.36,4.12-.72,5.59,0,0,0,0,0,.06A3,3,0,0,0,41,172.71Zm13.56-115c.28,9.77-5.24,16.92-9.47,22.39-2.38,3.08-4.84,6.27-4.78,8.18.23,7.38,4.36,11.12,12.27,11.12,5,0,9.11-1.7,10.68-3,.59-2.18.35-10-4-23.12-.29-.89-.59-1.78-.89-2.67C57,66.51,55.6,62.21,54.58,57.75Z"/>
    <path class="f94157ed-126d-4c55-9a06-f53357e8047a" d="M57,217.35c-6.12,0-10.85-1.52-14-4.51-3.41-3.13-4.79-7.67-3.83-12.73a16.23,16.23,0,0,1,1.27-3.92q-.89.06-1.77.06a27.48,27.48,0,0,1-16.73-5.79A31.52,31.52,0,0,1,10,159.3c3.33-16.54,15.24-26.63,27.34-33.2C31.62,124.53,14.6,118.88,9,105.79A45.92,45.92,0,0,1,6.39,77.45,35.52,35.52,0,0,1,10,68.15a8.83,8.83,0,0,1-4.27-2.67c-3.53-4-3.11-10.23-2.9-12.05,1.62-14.35,9.56-22.88,21.79-23.36l1.58,0c11.68,0,19.2,5.31,22.36,15.78a38.49,38.49,0,0,1,5.83-25.11C64.92,3.74,90,2.88,94.92,2.88h.27c24.52.6,41.12,17.47,42.48,32.76,1.06,11.62-3.28,23.19-7.1,33.39-2.21,5.89-5.2,13.88-4.51,16.92a15.29,15.29,0,0,0,2.23-3.11c.6-1,1.27-2.35,2-3.74,3.79-7.46,9.52-18.74,20.94-18.74a17.4,17.4,0,0,1,2.68.22,15.45,15.45,0,0,1,10.54,6.33c4.4,6.32,3.12,14.74,1.88,21.26a27.29,27.29,0,0,1,13.92-4.1c10.46,0,25,8.61,25.21,24.78s-7,25.92-21.23,28.85a31.76,31.76,0,0,1-6.33.68h0c-9.29,0-15.26-4.87-17.57-10.79a37.2,37.2,0,0,1-18,4.14h-1.13a62,62,0,0,1-9.35-1A43.68,43.68,0,0,0,139.6,134l6.47,2c11.82,3.58,18.33,5.54,25,10.43,10.42,7.69,24.07,27.81,16.41,49.11-4,11.12-16.18,16.55-26.51,17l-.94,0c-11.84,0-25-9.38-27.49-19.68-2.63-10.86,4.7-22.41,8-26.88l-.14.2a6.92,6.92,0,0,1,.57-.74v0c-12.24-2.7-22.39-6-30.89-10a29.08,29.08,0,0,1,2.81,7.73,43.56,43.56,0,0,1-2.78,26c-7.18,16.12-25.33,18.28-35.67,18.57,0,.13,0,.27,0,.41A7.57,7.57,0,0,1,70.83,214a24.17,24.17,0,0,1-8.14,2.94A36.55,36.55,0,0,1,57,217.35Zm97.74-48.26a15.78,15.78,0,0,1-.3,4.92c-1.46,8.71-.39,10.88.38,11.39l.17.11a11,11,0,0,0,5.12,1.42,4.54,4.54,0,0,0,3.21-1c1.11-1.18.49-3.63.18-4.63l-.08-.26-.18-.46-.15-.39C160.56,174,157.73,170.87,154.72,169.09ZM65,167.62a23.38,23.38,0,0,1-3.38,16.21l2.59-.62c11.45-2.73,16.54-4.59,16.48-8.37v-.41c-.28-4-2.72-6.56-7-10.67-4-3.89-9.06-8.73-10.29-16.17v-.05q-1.34.32-2.7.57a62.29,62.29,0,0,0-7.15,1.76A26.41,26.41,0,0,1,65,167.31C65,167.41,65,167.51,65,167.62Zm-28.76.31a3.62,3.62,0,0,0,2.37,1.39,3.07,3.07,0,0,0,1.34-.38l.14-.07a4,4,0,0,0,1.11-.8,1.8,1.8,0,0,0,.32-.49.2.2,0,0,0,0-.08c.87-2-.37-5.88-1.31-7.58a7.24,7.24,0,0,1-1.52-1.67,15.24,15.24,0,0,0-2.33,3.22c-1.1,2.08-1.37,4.12-.72,5.59l0,.06A3.16,3.16,0,0,0,36.24,167.93ZM49.79,53c.29,9.77-5.23,16.92-9.46,22.39-2.38,3.08-4.84,6.26-4.78,8.17.23,7.39,4.36,11.13,12.27,11.13,5,0,9.11-1.7,10.68-3,.59-2.18.35-10-4-23.12-.3-.89-.59-1.78-.89-2.67C52.26,61.73,50.82,57.43,49.79,53Z"/>
    <g>
      <g>
        <path class="b2a5827e-294a-4814-9d71-896c6ad700ca" d="M86,119.31a29.76,29.76,0,0,0,9.54,16.76s-2,2.64-1.55,7.71c.6,7.06,9.14,10.34,11.37,20.87a35.88,35.88,0,0,1-2.27,21.28c-7.62,17.13-32.81,13.49-38.92,14.21a27.58,27.58,0,0,0-6,1.24c-2.67,1-3.79,2.47-1.32,4.63s9.9,1.4,9.9,1.4a16.6,16.6,0,0,1-5.38,1.91c-3.12.52-16.57,1.68-14.77-7.78,2.75-14.41,42-7.39,41.71-26.83v-.52c-.72-13.49-15.57-17-17.36-27.86-1.2-7.26.87-9.9.87-9.9"/>
        <path class="f238a9a8-23b6-4086-aec4-a21100d3aafb" d="M180.23,91.72c-8.5,0-14.85,6.75-22.07,11.26-9.19,5.71-16.33,10.3-25.55,5,0,0-.08,0-.12-.08,1.52-.52,3.43-1.44,7.26-5.51,3.2-3.39,9.34-17.76,9.46-17.76v.08c1,6.82.08,7.78.08,7.78s-2.27-.88-5,5-.87,9.18,2.44,8.31c1.12-.28,2.67-1.6,4.27-3.48a41.84,41.84,0,0,0,6.11-9.86h0A22.07,22.07,0,0,0,158.56,88c1.59-8.26,3.35-18.32-5.91-19.84s-13.81,11.74-17.73,18.52c-4.71,8.19-8.5,7.11-8.5,7.11a7.51,7.51,0,0,1-5.75-2c-9.1-9.74,11.3-34.25,9.38-55.4C129,24.26,114.73,11,95.09,10.53c0,0-25.15-.36-34.17,14.21s-3.64,27.71.87,41.4,6.27,26.62,2.6,30.45c-7.59,8.07-35.77,10.58-36.49-12.81-.35-11.1,18-18.88,13.54-35.17C39.76,42.55,36.17,37.28,25,37.72c-10.18.39-13.61,8.82-14.49,16.6-.64,5.47,2.08,9.7,3.91,3.11,2.52-9.18,6-10.77,8.5-11.09H23c3.44-.2,14.53,5.75-.67,18.72-11.14,9.46-11.3,25.79-6.27,37.56s24.67,16.29,24.67,16.29c8.5,2.07,24.23-.32,24.23-.32h0a29.75,29.75,0,0,1-11.74,8.62c-14.93,5.87-32,15.17-35.76,33.61a24,24,0,0,0,9,23.55,19.59,19.59,0,0,0,23.63.52c.36-.24.72-.52,1-.76a16.15,16.15,0,0,0,6.26-15.32c-1.91-11.94-13.89-15.41-12.17-14.73s9.54,15.92-1.76,21.63c-.8.4-6.9,3.79-12.89-2.59a10,10,0,0,1-2-3h0c-4.11-9.42,4.35-24.63,30.66-29.54,20.44-3.79,25.19-15.44,25.39-16.08-.08.4,1.35.4,5.39,5.74,12,16,32.65,24,59.39,29.07,8.19,1.55,15.45,5.18,20.68,18,.2.52.4,1,.56,1.47h0s0,.08,0,.16c4.11,13-8,19.48-19.52,13.26-9.9-5.39-2.27-24.43-4.51-21.84h0c-.16.24-8.94,11.7-6.79,20.6,1.76,7.11,12.34,14.21,20.68,13.85s17.05-4.67,19.64-11.93c6.43-17.89-6.11-34.73-13.73-40.36-6.59-4.83-13.37-6.39-29.18-11.26-20.44-6.26-28-21.59-29.82-26-.28-.72-.44-1.16-.44-1.2.4.24,37.16,20.16,54.53,3.11,9.86-9.7,25.83-21.51,27.46-8,1,8-4.63,13.89-10.26,14.37a7.88,7.88,0,0,1-3.11-.32,5,5,0,0,1-1-.48h0l-.48-.36a0,0,0,0,1,0,0c-2.11-1.95-.28-5.47.32-6,4.15-4,9.26-4.19,2.44-3.79-14.41.76-14,21.72,5.75,17.65,11.81-2.44,15.2-10.06,15.12-21.28S186.94,91.72,180.23,91.72Z"/>
        <path class="a32d5a92-9989-4563-9522-6bb0da02dcc7" d="M157.08,92.56h0a39.38,39.38,0,0,1-6.11,9.86c-1.6,1.88-3.15,3.2-4.27,3.48-3.31.87-5.23-2.44-2.44-8.31s5-5,5-5,.88-1-.08-7.78a.3.3,0,0,0,.08-.16c3.48-5.55,5.55-6.87,5.55-6.87s3.36-1.83,3.64,3.48A38.88,38.88,0,0,1,157.08,92.56Z"/>
        <path class="fceb0dc9-4f9e-4d83-848d-46803055fe5d" d="M151,102.42c-1.6,1.88-3.15,3.2-4.27,3.48-3.31.87-5.23-2.44-2.44-8.31s5-5,5-5C153.77,93.48,152.73,98.15,151,102.42Z"/>
        <path class="a32d5a92-9989-4563-9522-6bb0da02dcc7" d="M170.41,194.55c-4.15,5.91-8.78,9.1-19.68,5.19-8.3-3-12.49-14.29-4-29.38h0c2.27-2.59-5.39,16.45,4.51,21.84,11.5,6.22,23.63-.28,19.52-13.26h0C171.25,180.22,174.24,189.08,170.41,194.55Z"/>
        <path class="fceb0dc9-4f9e-4d83-848d-46803055fe5d" d="M79.84,194.11c-11.7,7-17.49,4.63-21.6,7.31-2.67,1-3.79,2.47-1.32,4.63s9.9,1.4,9.9,1.4a16.6,16.6,0,0,1-5.38,1.91c-3.12.52-16.57,1.68-14.77-7.78,2.75-14.41,42-7.39,41.71-26.83C88.38,174.71,91.53,187.09,79.84,194.11Z"/>
        <path class="a32d5a92-9989-4563-9522-6bb0da02dcc7" d="M51.18,184.13c-13.82,4.47-21.4-8.5-22.52-14a10.8,10.8,0,0,0,2,3c6,6.38,12.09,3,12.89,2.59,11.3-5.71,3.47-21,1.76-21.63s10.26,2.75,12.17,14.73A16.24,16.24,0,0,1,51.18,184.13Z"/>
        <path class="a32d5a92-9989-4563-9522-6bb0da02dcc7" d="M71,106.05c-.4,1.08-.72,2.2-1.16,3.28a67.73,67.73,0,0,1-3,6.74A8.16,8.16,0,0,1,65,118.75s-15.73,2.39-24.23.32c0,0-19.64-4.51-24.67-16.29s-4.87-28.1,6.27-37.56C37.52,52.29,26.43,46.3,23,46.5c2.12-.2,4.36-.32,6.31.8a6.55,6.55,0,0,1,3,4.71c.75,4.31-1.48,8.22-4,11.49-1.43,1.84-13.21,9.66-11.53,25.35,1.23,11.5,3.39,16.21,13.53,21,8.62,4.07,24,3.23,28.66,1.75a28.09,28.09,0,0,0,11.3-6.34c.2-.2.6-.8.88-.44S71.1,105.78,71,106.05Z"/>
        <path class="a32d5a92-9989-4563-9522-6bb0da02dcc7" d="M179.27,124.82a7.68,7.68,0,0,1-4.59-2,3.57,3.57,0,0,0,1,.48,7.2,7.2,0,0,0,3.11.32c5.63-.44,11.22-6.39,10.26-14.37-1.63-13.53-17.56-1.72-27.46,8-17.37,17.05-54.09-2.87-54.53-3.11a26.62,26.62,0,0,1-.6-8.07c.36-4.43,20.76,13.58,34.93,12,15.89-1.72,33.09-17.48,38.12-18,6.31-.64,13.57-.4,12.42,11.09C190.81,122.78,181.79,125.1,179.27,124.82Z"/>
        <path class="b2d30183-2713-4061-9788-5543d5d38983" d="M132.65,108c.16.12-12.3-10.14-13.65-19,.48.76.32,1.52,1.83,2.83-.44-1.27,3.72,9.94,12.18,15.93C132.93,107.69,132.73,107.89,132.65,108Z"/>
        <path class="e4f309ac-a446-49c4-a1da-c35e9fb6bf85" d="M145.26,72.32s4.83-4.83,9.82-1.71c6.71,4.15-.08,2.23-2.31,1.08C151.09,70.73,146,72,145.26,72.32Z"/>
        <path class="e4f309ac-a446-49c4-a1da-c35e9fb6bf85" d="M167.54,98.23a36.31,36.31,0,0,1,12-3.31c5.63-.32,11.06,2.71,10.58,2.19-.88-1-6.23-3.87-11-3.71C173.8,94,167.54,98.23,167.54,98.23Z"/>
        <path class="e4f309ac-a446-49c4-a1da-c35e9fb6bf85" d="M125,138.23S114,131.4,109.86,125s-6.59-16-6.63-15c-.44,11.13.84,11.69,4.83,17.24A39.8,39.8,0,0,0,125,138.23Z"/>
        <path class="e4f309ac-a446-49c4-a1da-c35e9fb6bf85" d="M156.6,150.48s9.3,6.47,13.17,10.5,5.63,6.19,5.31,5.55c-3.55-7.62-5.55-8-9.1-11.38C159.35,149.92,156.6,150.48,156.6,150.48Z"/>
        <path class="e4f309ac-a446-49c4-a1da-c35e9fb6bf85" d="M56.69,194.67s-5.23.92-7.19,3.59a6.92,6.92,0,0,0-1.16,5.55s-.36-1.83,3-5.27S56.69,194.67,56.69,194.67Z"/>
        <path class="e4f309ac-a446-49c4-a1da-c35e9fb6bf85" d="M65,122.18S62,126,41,135.79c-21.44,10.06-19.12,22.4-19.12,22.4s1.27-6.95,10.18-14.65,21.31-10.9,27-14.89S65,122.18,65,122.18Z"/>
        <path class="e4f309ac-a446-49c4-a1da-c35e9fb6bf85" d="M28.34,93.92s7.55,15.21,29.3,9.26c20.88-5.71-3.51,8.1-18.48,2.68C30.34,102.66,28.34,93.92,28.34,93.92Z"/>
        <path class="e4f309ac-a446-49c4-a1da-c35e9fb6bf85" d="M25.67,39.71s10.46.48,13.45,7.83c2,5-.08,8.26-.36,8.58C38.76,56.08,40.88,45.78,25.67,39.71Z"/>
        <path class="b2d30183-2713-4061-9788-5543d5d38983" d="M73.37,18s4.35,2.27-2,4.95S67.54,17.48,73.37,18Z"/>
        <path class="b2d30183-2713-4061-9788-5543d5d38983" d="M80.76,20.83s2.47,1.84-2.68,3.15S76.8,20,80.76,20.83Z"/>
        <path class="b2d30183-2713-4061-9788-5543d5d38983" d="M137.72,96.24s2.95.79-1,3.71S133.89,96.87,137.72,96.24Z"/>
        <path class="b2d30183-2713-4061-9788-5543d5d38983" d="M97.6,113.12s2.83-2.47,3.07,4.71S95.6,118,97.6,113.12Z"/>
        <path class="b2d30183-2713-4061-9788-5543d5d38983" d="M179,185.45s3-.88,1.08,3.67S176,188,179,185.45Z"/>
        <path class="b2d30183-2713-4061-9788-5543d5d38983" d="M76.16,189.12s1.84,1.36-3,2.44S72.85,188.6,76.16,189.12Z"/>
        <path class="b2d30183-2713-4061-9788-5543d5d38983" d="M64.83,192.84s1.71,1.55-2.28,2.15S61.91,192,64.83,192.84Z"/>
        <path class="b2d30183-2713-4061-9788-5543d5d38983" d="M71.61,193.12s.84.51-1.47,1.15S70.06,193,71.61,193.12Z"/>
        <path class="b2d30183-2713-4061-9788-5543d5d38983" d="M65,24.94s2.23.2-.68,3.2S62.19,26.06,65,24.94Z"/>
        <path class="b2d30183-2713-4061-9788-5543d5d38983" d="M115.6,77s-5.07,1.64-2.35-5.14S120.43,73,115.6,77Z"/>
        <path class="b2d30183-2713-4061-9788-5543d5d38983" d="M120.35,62.78s-2.11.8-1-2.55S122.35,60.83,120.35,62.78Z"/>
        <path class="b2d30183-2713-4061-9788-5543d5d38983" d="M14.21,51.09s-2.11.8-1-2.56S16.21,49.13,14.21,51.09Z"/>
        <path class="b2d30183-2713-4061-9788-5543d5d38983" d="M12.22,53.8s-1.08.52-.52-1.67S13.21,52.53,12.22,53.8Z"/>
        <path class="b2d30183-2713-4061-9788-5543d5d38983" d="M113.13,100.51s-1,1.47-1.84-1.16S113.53,98.31,113.13,100.51Z"/>
        <path class="b2d30183-2713-4061-9788-5543d5d38983" d="M175.32,193.32s-1.68.63-.8-2S176.88,191.76,175.32,193.32Z"/>
        <path class="b2d30183-2713-4061-9788-5543d5d38983" d="M180,181.62s-1.2,1.32-1.68-2.08S180.63,179.26,180,181.62Z"/>
        <path class="b2d30183-2713-4061-9788-5543d5d38983" d="M77,118.55s-1.63.64-.8-2S78.52,117,77,118.55Z"/>
        <path class="b2d30183-2713-4061-9788-5543d5d38983" d="M75.33,109.57s-1.64.64-.8-2S76.88,108,75.33,109.57Z"/>
        <path class="b2d30183-2713-4061-9788-5543d5d38983" d="M115.84,66.26s-1.51.52-.72-1.72S117.28,64.94,115.84,66.26Z"/>
        <path class="b2d30183-2713-4061-9788-5543d5d38983" d="M124.31,52.64s-1.68.64-.8-2S125.9,51.09,124.31,52.64Z"/>
        <path class="b2d30183-2713-4061-9788-5543d5d38983" d="M122.51,101.94s-.56,2.6-2.6,0S122.07,99,122.51,101.94Z"/>
        <path class="b2d30183-2713-4061-9788-5543d5d38983" d="M133.45,146.49s.24,2.76-3.48.28S131.69,143.46,133.45,146.49Z"/>
        <path class="b2d30183-2713-4061-9788-5543d5d38983" d="M144.22,146.93s.8,2.87-3.67,1S141.79,144.06,144.22,146.93Z"/>
        <path class="b2d30183-2713-4061-9788-5543d5d38983" d="M98.92,125.18s-1.52,2.15-2.36-1.08S99.72,122.26,98.92,125.18Z"/>
        <path class="b2d30183-2713-4061-9788-5543d5d38983" d="M125.62,108s-.48,1.72-2.11-.56S125.3,105.82,125.62,108Z"/>
        <path class="b2d30183-2713-4061-9788-5543d5d38983" d="M104.47,128.49s-.88,1.56-1.92-1S104.71,126.29,104.47,128.49Z"/>
        <path class="b2d30183-2713-4061-9788-5543d5d38983" d="M23,95.12s-1.15,1.35-1.67-1.36S23.63,93,23,95.12Z"/>
        <path class="b2d30183-2713-4061-9788-5543d5d38983" d="M196.48,112.88s-1.44,1-1.32-1.72S197.59,111,196.48,112.88Z"/>
        <path class="b2d30183-2713-4061-9788-5543d5d38983" d="M117.88,97s-2.28,3.12-3.59-2.15S119,92.6,117.88,97Z"/>
        <path class="b2d30183-2713-4061-9788-5543d5d38983" d="M72.21,120.35s-4.59,1.43-2.11-4.6S76.56,116.75,72.21,120.35Z"/>
        <path class="b2d30183-2713-4061-9788-5543d5d38983" d="M22.36,81.9s-3.64,1.2-1.68-3.83S25.83,78.91,22.36,81.9Z"/>
        <path class="b2d30183-2713-4061-9788-5543d5d38983" d="M69.58,129.37s-3.79.44-.88-4.11S73.57,127.17,69.58,129.37Z"/>
        <path class="b2d30183-2713-4061-9788-5543d5d38983" d="M22.83,173.12s-2.31,3.07-3.59-2.16S24,168.69,22.83,173.12Z"/>
        <path class="b2d30183-2713-4061-9788-5543d5d38983" d="M27.07,178.75s-1,1.59-2.08-1.48S27.35,176.27,27.07,178.75Z"/>
        <path class="b2d30183-2713-4061-9788-5543d5d38983" d="M110.29,93.92s-1.63,2.35-2.67-1.44S111.05,90.65,110.29,93.92Z"/>
        <path class="b2d30183-2713-4061-9788-5543d5d38983" d="M20.2,88.45s-2.32,1.56-2-2.07S22,85.82,20.2,88.45Z"/>
        <path class="b2d30183-2713-4061-9788-5543d5d38983" d="M195.44,107.77s-2.32,1.56-1.92-2.07S197.28,105.1,195.44,107.77Z"/>
        <path class="b2d30183-2713-4061-9788-5543d5d38983" d="M113.93,88.09s-4,2.2-2.72-4.43C112.37,77.51,118.92,84.26,113.93,88.09Z"/>
        <path class="b2d30183-2713-4061-9788-5543d5d38983" d="M71.26,25.1s3.43,1.2-1.28,4.07S66.82,25.46,71.26,25.1Z"/>
        <path class="b2d30183-2713-4061-9788-5543d5d38983" d="M90.69,19.51s1.76,1.72-3,2.2S87.42,18.48,90.69,19.51Z"/>
        <path class="b2d30183-2713-4061-9788-5543d5d38983" d="M76.92,26.5s1.16.68-1.15,1.52S75.13,26.34,76.92,26.5Z"/>
        <path class="b2d30183-2713-4061-9788-5543d5d38983" d="M62.19,33.2s1.32-.23.12,1.88S60.76,34.24,62.19,33.2Z"/>
        <path class="b2d30183-2713-4061-9788-5543d5d38983" d="M94.77,17.52s.79,1-1.64,1S93.17,16.72,94.77,17.52Z"/>
        <path class="b2d30183-2713-4061-9788-5543d5d38983" d="M93.25,13.76s.64.68-1.4.72S92,13.33,93.25,13.76Z"/>
        <path class="b2d30183-2713-4061-9788-5543d5d38983" d="M84.39,23s.72.55-1.24.95S83,22.71,84.39,23Z"/>
        <path class="b2d30183-2713-4061-9788-5543d5d38983" d="M141.11,89.41s.92,0-.52,1.52S139.83,90,141.11,89.41Z"/>
        <path class="b2d30183-2713-4061-9788-5543d5d38983" d="M141.83,92.76s1.68.2-.2,2S139.83,93.32,141.83,92.76Z"/>
        <path class="b2d30183-2713-4061-9788-5543d5d38983" d="M147.22,150.36s.52,1.6-1.88.68S145.82,148.81,147.22,150.36Z"/>
        <path class="b2d30183-2713-4061-9788-5543d5d38983" d="M79.12,17.52s1.32.76-1.8,1.83S76.88,17.44,79.12,17.52Z"/>
        <path class="b2d30183-2713-4061-9788-5543d5d38983" d="M88.5,14s4.15,4.24-3.35,4.75S82.39,11.13,88.5,14Z"/>
        <path class="e4f309ac-a446-49c4-a1da-c35e9fb6bf85" d="M82,136.11c1,.6.84,6.55-4.71,4.79C72.13,139.31,77.56,130.48,82,136.11Z"/>
        <path class="b2d30183-2713-4061-9788-5543d5d38983" d="M79.12,135.47c2,0,3.31,4.55,0,4.59C75,140.06,76.09,135.43,79.12,135.47Z"/>
        <path class="e4f309ac-a446-49c4-a1da-c35e9fb6bf85" d="M92,134c1,.6.84,6.54-4.63,4.79C82.31,137.19,87.62,128.37,92,134Z"/>
        <path class="b2d30183-2713-4061-9788-5543d5d38983" d="M89.18,133.32c2,0,3.27,4.55,0,4.59C85.11,138,86.18,133.32,89.18,133.32Z"/>
        <path class="e4f309ac-a446-49c4-a1da-c35e9fb6bf85" d="M80.68,146.21c.43,1-2.88,5.51-6.27,1.28C71.33,143.58,80.36,139.55,80.68,146.21Z"/>
        <path class="b2d30183-2713-4061-9788-5543d5d38983" d="M78.88,144.22c1.6,1,.12,5.27-2.52,3.51C73.17,145.61,76.52,142.62,78.88,144.22Z"/>
        <path class="e4f309ac-a446-49c4-a1da-c35e9fb6bf85" d="M83,156.51c-.72.8-6.23-.44-3.59-5.27C81.75,146.81,89,153.52,83,156.51Z"/>
        <path class="b2d30183-2713-4061-9788-5543d5d38983" d="M84.07,154c-.32,1.87-4.83,2.23-4.23-.92C80.52,149.33,84.63,151.24,84.07,154Z"/>
        <path class="e4f309ac-a446-49c4-a1da-c35e9fb6bf85" d="M90.89,159.19c.44.95-2.83,5.5-6.14,1.27C81.71,156.51,90.54,152.52,90.89,159.19Z"/>
        <path class="b2d30183-2713-4061-9788-5543d5d38983" d="M89.1,157.19c1.56,1,.12,5.27-2.48,3.51C83.47,158.59,86.78,155.59,89.1,157.19Z"/>
        <path class="e4f309ac-a446-49c4-a1da-c35e9fb6bf85" d="M95,165.21c.44,1-2.84,5.51-6.15,1.28C85.79,162.58,94.61,158.59,95,165.21Z"/>
        <path class="b2d30183-2713-4061-9788-5543d5d38983" d="M93.17,163.26c1.56,1,.12,5.27-2.48,3.51C87.54,164.65,90.85,161.66,93.17,163.26Z"/>
        <path class="e4f309ac-a446-49c4-a1da-c35e9fb6bf85" d="M95.21,173.24c-.2.83-4.91,2.15-5.07-2.2C90,167.05,98.44,168.81,95.21,173.24Z"/>
        <path class="b2d30183-2713-4061-9788-5543d5d38983" d="M94.93,171.08c.6,1.44-2.68,3.43-3.64,1C90.18,169.24,94.13,168.93,94.93,171.08Z"/>
        <path class="e4f309ac-a446-49c4-a1da-c35e9fb6bf85" d="M91.41,142.66c.8.72-.4,6.19-5.11,3.59C82,143.86,88.46,136.71,91.41,142.66Z"/>
        <path class="b2d30183-2713-4061-9788-5543d5d38983" d="M89,141.54c1.83.32,2.19,4.79-.88,4.19C84.39,145.05,86.22,141,89,141.54Z"/>
        <path class="e4f309ac-a446-49c4-a1da-c35e9fb6bf85" d="M93.89,149.53c.72.67-.36,5.9-4.75,3.43C85.15,150.68,91.13,143.82,93.89,149.53Z"/>
        <path class="b2d30183-2713-4061-9788-5543d5d38983" d="M91.65,148.49c1.68.32,2,4.59-.8,4C87.42,151.84,89.1,147.93,91.65,148.49Z"/>
        <path class="e4f309ac-a446-49c4-a1da-c35e9fb6bf85" d="M99,155.39c.8.72-.4,6.19-5.11,3.6C89.54,156.59,96,149.41,99,155.39Z"/>
        <path class="b2d30183-2713-4061-9788-5543d5d38983" d="M96.56,154.28c1.84.31,2.2,4.79-.88,4.19C92,157.79,93.81,153.72,96.56,154.28Z"/>
        <path class="e4f309ac-a446-49c4-a1da-c35e9fb6bf85" d="M103.11,162c.8.72-.4,6.19-5.11,3.59C93.65,163.18,100.16,156,103.11,162Z"/>
        <path class="b2d30183-2713-4061-9788-5543d5d38983" d="M100.71,160.86c1.84.32,2.2,4.79-.87,4.19C96.12,164.37,98,160.3,100.71,160.86Z"/>
        <path class="e4f309ac-a446-49c4-a1da-c35e9fb6bf85" d="M104.63,169.56c.71.64-.36,5.47-4.51,3.16C96.28,170.6,102,164.29,104.63,169.56Z"/>
        <path class="b2d30183-2713-4061-9788-5543d5d38983" d="M102.47,168.57c1.64.28,2,4.19-.76,3.71C98.44,171.68,100,168.09,102.47,168.57Z"/>
        <path class="e4f309ac-a446-49c4-a1da-c35e9fb6bf85" d="M104.23,176.75c.72.68-.36,5.71-4.75,3.31C95.49,177.87,101.51,171.24,104.23,176.75Z"/>
        <path class="b2d30183-2713-4061-9788-5543d5d38983" d="M102,175.75c1.68.28,2,4.39-.8,3.87C97.76,179,99.44,175.19,102,175.75Z"/>
        <path class="e4f309ac-a446-49c4-a1da-c35e9fb6bf85" d="M95.76,177c.68.6-.35,5.31-4.39,3.07C87.62,178,93.21,171.84,95.76,177Z"/>
        <path class="b2d30183-2713-4061-9788-5543d5d38983" d="M93.65,176c1.6.28,1.88,4.11-.76,3.59C89.74,179,91.29,175.55,93.65,176Z"/>
        <path class="e4f309ac-a446-49c4-a1da-c35e9fb6bf85" d="M145.5,190c-.16.6-2.67.52-2.31-2.75C143.47,184.21,147.54,187.37,145.5,190Z"/>
        <path class="b2d30183-2713-4061-9788-5543d5d38983" d="M145.58,188.33c.16,1.19-1.67,2-1.91,0C143.35,185.89,145.38,186.53,145.58,188.33Z"/>
        <path class="e4f309ac-a446-49c4-a1da-c35e9fb6bf85" d="M165.94,197.83c-.6.28-2.36-1.76.52-4C169.05,191.88,169.49,197.55,165.94,197.83Z"/>
        <path class="b2d30183-2713-4061-9788-5543d5d38983" d="M167.3,196.63c-.84,1-2.76.12-1.36-1.56C167.66,193,168.61,195.15,167.3,196.63Z"/>
        <path class="e4f309ac-a446-49c4-a1da-c35e9fb6bf85" d="M149.89,194.79c.12.76-3.27,2.44-4.71-1.43C143.91,189.84,151.13,190.48,149.89,194.79Z"/>
        <path class="b2d30183-2713-4061-9788-5543d5d38983" d="M149.05,192.92c.88,1.19-1.07,3.35-2.55,1.31C144.7,191.76,147.78,191,149.05,192.92Z"/>
        <path class="e4f309ac-a446-49c4-a1da-c35e9fb6bf85" d="M150.81,196c-.28-.76,3.15-3,5.43.64C158.36,200,150.25,200.5,150.81,196Z"/>
        <path class="b2d30183-2713-4061-9788-5543d5d38983" d="M152.09,197.75c-1.2-1.08.56-3.56,2.59-1.76C157.12,198.15,153.88,199.38,152.09,197.75Z"/>
        <path class="e4f309ac-a446-49c4-a1da-c35e9fb6bf85" d="M163.58,197.11c.6.48-1,4.31-4.59,2.79C155.68,198.42,161.75,193.08,163.58,197.11Z"/>
        <path class="b2d30183-2713-4061-9788-5543d5d38983" d="M161.67,196.47c1.48.12,1.32,3.19-1.16,3C157.56,199.14,159.47,196.19,161.67,196.47Z"/>
        <path class="e4f309ac-a446-49c4-a1da-c35e9fb6bf85" d="M101.75,183.93c.48.8-1.51,5.51-4.75,2.4C94,183.46,100.51,178.07,101.75,183.93Z"/>
        <path class="b2d30183-2713-4061-9788-5543d5d38983" d="M100,182.54c1.39.6.83,4.67-1.52,3.63C95.72,184.93,98,181.58,100,182.54Z"/>
        <path class="e4f309ac-a446-49c4-a1da-c35e9fb6bf85" d="M94.09,183.54c.28.67-1.92,4.19-4,1.31C88.18,182.22,94,178.71,94.09,183.54Z"/>
        <path class="b2d30183-2713-4061-9788-5543d5d38983" d="M92.93,182.22c1,.64,0,3.83-1.68,2.71C89.26,183.62,91.49,181.18,92.93,182.22Z"/>
        <path class="e4f309ac-a446-49c4-a1da-c35e9fb6bf85" d="M96,191.92c-.4.72-4.27,1.59-3-2.28C94.05,186.13,99.72,188.21,96,191.92Z"/>
        <path class="b2d30183-2713-4061-9788-5543d5d38983" d="M96.44,190c0,1.28-3,2.88-3,.68C93.49,188.09,96.52,188.05,96.44,190Z"/>
        <path class="e4f309ac-a446-49c4-a1da-c35e9fb6bf85" d="M64,117.51c-.56.76-6,.64-4.27-3.71C61.36,109.85,69.3,114.12,64,117.51Z"/>
        <path class="b2d30183-2713-4061-9788-5543d5d38983" d="M64.67,115.32c0,1.55-4.27,2.55-4.19-.08C60.6,112,64.79,113,64.67,115.32Z"/>
        <path class="e4f309ac-a446-49c4-a1da-c35e9fb6bf85" d="M56.21,118.79c-.48.68-5.31.56-3.76-3.27C53.85,112,60.88,115.79,56.21,118.79Z"/>
        <path class="b2d30183-2713-4061-9788-5543d5d38983" d="M56.8,116.87c0,1.4-3.75,2.28-3.67-.08C53.17,114,56.88,114.8,56.8,116.87Z"/>
        <path class="e4f309ac-a446-49c4-a1da-c35e9fb6bf85" d="M48.82,118.79c-.52.64-5.55.52-4-3.11C46.39,112.36,53.69,116,48.82,118.79Z"/>
        <path class="b2d30183-2713-4061-9788-5543d5d38983" d="M49.46,117c0,1.32-3.91,2.16-3.87-.08C45.67,114.2,49.58,115,49.46,117Z"/>
        <path class="e4f309ac-a446-49c4-a1da-c35e9fb6bf85" d="M40.4,118.23c-.76.28-5-1.84-1.92-3.87C41.32,112.48,45.91,118.07,40.4,118.23Z"/>
        <path class="b2d30183-2713-4061-9788-5543d5d38983" d="M41.8,117.11c-.64,1-4.36,0-3.28-1.59C39.84,113.6,42.83,115.68,41.8,117.11Z"/>
        <path class="e4f309ac-a446-49c4-a1da-c35e9fb6bf85" d="M32,115.12c-.72-.36-1.48-3.68,2.23-2.48C37.64,113.76,35.53,118.47,32,115.12Z"/>
        <path class="b2d30183-2713-4061-9788-5543d5d38983" d="M33.85,115.6c-1.24-.08-2.75-2.68-.64-2.56C35.77,113.24,35.73,115.75,33.85,115.6Z"/>
        <path class="e4f309ac-a446-49c4-a1da-c35e9fb6bf85" d="M24.27,107.53c.52.6,0,4-3,1.48C18.48,106.69,22.2,103.14,24.27,107.53Z"/>
        <path class="b2d30183-2713-4061-9788-5543d5d38983" d="M22.71,106.41c1.16.52,1.56,3.52-.35,2.6C20,107.89,21,105.58,22.71,106.41Z"/>
        <path class="e4f309ac-a446-49c4-a1da-c35e9fb6bf85" d="M29.38,110.81c.68.39,1.56,3.63-2,2.19C24.11,111.68,25.87,107.33,29.38,110.81Z"/>
        <path class="b2d30183-2713-4061-9788-5543d5d38983" d="M27.58,110.21c1.2.16,2.72,2.75.72,2.47C25.91,112.32,25.79,109.89,27.58,110.21Z"/>
        <path class="e4f309ac-a446-49c4-a1da-c35e9fb6bf85" d="M16.61,102.9c-.4-.6.16-3.59,2.63-1C21.48,104.26,18.16,107.13,16.61,102.9Z"/>
        <path class="b2d30183-2713-4061-9788-5543d5d38983" d="M17.88,104.1c-.95-.6-1.15-3.35.44-2.32C20.24,103,19.28,105.06,17.88,104.1Z"/>
        <path class="e4f309ac-a446-49c4-a1da-c35e9fb6bf85" d="M15.37,95.48c.24-.48,3,.48,2.24,3.35C16.93,101.5,12.86,97.11,15.37,95.48Z"/>
        <path class="b2d30183-2713-4061-9788-5543d5d38983" d="M15.09,97c0-1.15,2-1.19,2.08.72C17.25,100,15.13,98.71,15.09,97Z"/>
        <path class="e4f309ac-a446-49c4-a1da-c35e9fb6bf85" d="M108.26,112.76c.2.92,5.19,2.8,5.23-1.72C113.53,106.85,104.75,107.73,108.26,112.76Z"/>
        <path class="b2d30183-2713-4061-9788-5543d5d38983" d="M108.46,110.57c-.56,1.43,2.87,3.91,3.79,1.51C113.41,109.13,109.26,108.37,108.46,110.57Z"/>
        <path class="e4f309ac-a446-49c4-a1da-c35e9fb6bf85" d="M115.52,116.47c.2.8,4.59,2.48,4.63-1.51C120.19,111.28,112.45,112,115.52,116.47Z"/>
        <path class="b2d30183-2713-4061-9788-5543d5d38983" d="M115.72,114.52c-.52,1.23,2.52,3.43,3.36,1.31C120.07,113.28,116.4,112.6,115.72,114.52Z"/>
        <path class="e4f309ac-a446-49c4-a1da-c35e9fb6bf85" d="M122.55,119.27c.24.8,4.79,2.55,4.71-1.32C127.18,114.36,119.24,114.88,122.55,119.27Z"/>
        <path class="b2d30183-2713-4061-9788-5543d5d38983" d="M122.67,117.35c-.48,1.2,2.71,3.39,3.51,1.4C127.14,116.31,123.35,115.52,122.67,117.35Z"/>
        <path class="e4f309ac-a446-49c4-a1da-c35e9fb6bf85" d="M131.09,122.06c.56.52,5.19.2,3.2-2.79C132.41,116.55,126.18,119.87,131.09,122.06Z"/>
        <path class="b2d30183-2713-4061-9788-5543d5d38983" d="M130.25,120.55c.2,1.11,4,1.63,3.56-.2C133.37,118.11,129.85,118.87,130.25,120.55Z"/>
        <path class="e4f309ac-a446-49c4-a1da-c35e9fb6bf85" d="M140.23,122.26c.8-.08,2.72-2.75-1.11-3.07C135.64,118.91,135.76,123.9,140.23,122.26Z"/>
        <path class="b2d30183-2713-4061-9788-5543d5d38983" d="M138.36,122c1.15.4,3.47-1.4,1.51-2.07C137.52,119.11,136.6,121.42,138.36,122Z"/>
        <path class="e4f309ac-a446-49c4-a1da-c35e9fb6bf85" d="M153.41,120.15c.75-.24,2.19-3.64-1.68-3.16C148.14,117.39,149.25,122.9,153.41,120.15Z"/>
        <path class="b2d30183-2713-4061-9788-5543d5d38983" d="M151.49,120.23c1.24.2,3.23-2.28,1.12-2.6C150.09,117.23,149.61,120,151.49,120.23Z"/>
        <path class="e4f309ac-a446-49c4-a1da-c35e9fb6bf85" d="M161.87,111.32c-.64.32-1.4,3.24,2,2.24C167.06,112.6,165.18,108.45,161.87,111.32Z"/>
        <path class="b2d30183-2713-4061-9788-5543d5d38983" d="M163.58,110.92c-1.15,0-2.55,2.32-.59,2.24C165.3,113.08,165.34,110.81,163.58,110.92Z"/>
        <path class="e4f309ac-a446-49c4-a1da-c35e9fb6bf85" d="M144.22,119.67c-.75.2-2.19,3.39,1.6,3.07C149.33,122.42,148.34,117.15,144.22,119.67Z"/>
        <path class="b2d30183-2713-4061-9788-5543d5d38983" d="M146.1,119.63c-1.2-.24-3.19,2.07-1.12,2.43C147.42,122.54,147.94,120,146.1,119.63Z"/>
        <path class="e4f309ac-a446-49c4-a1da-c35e9fb6bf85" d="M155.88,115.36c-.76.47-1.64,3.79,2.44,2.07C162.07,115.79,159.75,111.56,155.88,115.36Z"/>
        <path class="b2d30183-2713-4061-9788-5543d5d38983" d="M157.92,114.6c-1.36.24-3,3-.68,2.55C160,116.59,160,114.16,157.92,114.6Z"/>
        <path class="e4f309ac-a446-49c4-a1da-c35e9fb6bf85" d="M169.61,109c.56-.36,1.12-3-1.87-1.72C165,108.49,166.78,112,169.61,109Z"/>
        <path class="b2d30183-2713-4061-9788-5543d5d38983" d="M168.1,109.57c1-.16,2.15-2.36.47-2C166.5,107.89,166.58,109.85,168.1,109.57Z"/>
        <path class="e4f309ac-a446-49c4-a1da-c35e9fb6bf85" d="M173.92,104.46c0-.4-2.27-.48-2.59,1.67C171,108.09,175.2,106.29,173.92,104.46Z"/>
        <path class="b2d30183-2713-4061-9788-5543d5d38983" d="M173.64,105.54c.36-.76-1.07-1.4-1.67-.08C171.21,107,173.13,106.69,173.64,105.54Z"/>
        <path class="e4f309ac-a446-49c4-a1da-c35e9fb6bf85" d="M178.71,102.1c0-.4-2.07-1-2.87,1.08C175.08,105,179.59,104.14,178.71,102.1Z"/>
        <path class="b2d30183-2713-4061-9788-5543d5d38983" d="M178.19,103.1c.52-.68-.75-1.6-1.63-.48C175.52,104,177.48,104.1,178.19,103.1Z"/>
        <path class="e4f309ac-a446-49c4-a1da-c35e9fb6bf85" d="M183.66,101c.12-.36-1.83-1.4-3,.43S184.1,103.22,183.66,101Z"/>
        <path class="b2d30183-2713-4061-9788-5543d5d38983" d="M183,101.9c.64-.56-.39-1.71-1.51-.79C180.19,102.22,182,102.74,183,101.9Z"/>
        <path class="e4f309ac-a446-49c4-a1da-c35e9fb6bf85" d="M13.93,91.41c-.08-.56,1.24-2.56,2.16.07C16.89,94,13.69,95,13.93,91.41Z"/>
        <path class="b2d30183-2713-4061-9788-5543d5d38983" d="M14.45,92.68c-.48-.76.24-2.79,1-1.55C16.41,92.64,15.13,93.8,14.45,92.68Z"/>
        <path class="e4f309ac-a446-49c4-a1da-c35e9fb6bf85" d="M16.13,82.7c0,.6-1.76,2.28-2.08-.52C13.69,79.59,17.05,79.23,16.13,82.7Z"/>
        <path class="b2d30183-2713-4061-9788-5543d5d38983" d="M15.89,81.35c.32.79-.8,2.71-1.32,1.31C13.93,81,15.41,80.07,15.89,81.35Z"/>
        <path class="e4f309ac-a446-49c4-a1da-c35e9fb6bf85" d="M13.73,86.42c-.08-.6,1.4-2.52,2.16.19C16.57,89.13,13.29,90,13.73,86.42Z"/>
        <path class="b2d30183-2713-4061-9788-5543d5d38983" d="M14.17,87.69c-.44-.76.4-2.79,1.12-1.51C16.13,87.77,14.81,88.89,14.17,87.69Z"/>
        <path class="e4f309ac-a446-49c4-a1da-c35e9fb6bf85" d="M16.77,75.68c.36-.12,1.39,1.59-.36,2.79S14.61,75.4,16.77,75.68Z"/>
        <path class="b2d30183-2713-4061-9788-5543d5d38983" d="M15.93,76.36c.52-.64,1.68.28.8,1.31C15.69,78.91,15.13,77.23,15.93,76.36Z"/>
        <path class="e4f309ac-a446-49c4-a1da-c35e9fb6bf85" d="M19,71.17c.36-.12,1.4,1.59-.36,2.79S16.81,70.89,19,71.17Z"/>
        <path class="b2d30183-2713-4061-9788-5543d5d38983" d="M18.12,71.85c.52-.64,1.68.27.8,1.31C17.88,74.4,17.33,72.76,18.12,71.85Z"/>
        <path class="e4f309ac-a446-49c4-a1da-c35e9fb6bf85" d="M21.84,67.49c.32,0,.72,1.8-1,2.48C19.2,70.57,20.16,66.74,21.84,67.49Z"/>
        <path class="b2d30183-2713-4061-9788-5543d5d38983" d="M21,67.93c.6-.44,1.28.68.32,1.4C20.08,70.21,20.08,68.57,21,67.93Z"/>
        <path class="e4f309ac-a446-49c4-a1da-c35e9fb6bf85" d="M24.91,64.82c.32,0,.6,1.64-1.12,2S23.31,64,24.91,64.82Z"/>
        <path class="b2d30183-2713-4061-9788-5543d5d38983" d="M24.07,65.1c.6-.32,1.24.72.24,1.28C23.07,67,23.15,65.54,24.07,65.1Z"/>
        <path class="e4f309ac-a446-49c4-a1da-c35e9fb6bf85" d="M92.65,193.2c.4.27-1,3.19-3.43,2.35C86.9,194.79,91.57,190.48,92.65,193.2Z"/>
        <path class="b2d30183-2713-4061-9788-5543d5d38983" d="M91.33,192.92c1,0,.76,2.19-1,2.23C88.22,195.15,89.78,192.88,91.33,192.92Z"/>
        <path class="e4f309ac-a446-49c4-a1da-c35e9fb6bf85" d="M87.7,191.56c.36.4-1.36,3.43-3.83,2.07C81.63,192.44,86.94,188.33,87.7,191.56Z"/>
        <path class="b2d30183-2713-4061-9788-5543d5d38983" d="M86.38,191c1.08.12.48,2.59-1.27,2.36C82.91,193,84.79,190.76,86.38,191Z"/>
        <path class="e4f309ac-a446-49c4-a1da-c35e9fb6bf85" d="M81.63,196.39c-.48.32-3-.24-1-2.28C82.47,192.32,85,195.19,81.63,196.39Z"/>
        <path class="b2d30183-2713-4061-9788-5543d5d38983" d="M82.55,195.39c-.44.8-2.67.88-1.91-.44C81.51,193.36,83.23,194.19,82.55,195.39Z"/>
        <path class="e4f309ac-a446-49c4-a1da-c35e9fb6bf85" d="M85.67,197.63c-.52.28-3.32-.2-1.12-1.84S89.46,196.63,85.67,197.63Z"/>
        <path class="b2d30183-2713-4061-9788-5543d5d38983" d="M86.7,196.79c-.48.64-3,.72-2.15-.36C85.55,195.15,87.46,195.83,86.7,196.79Z"/>
        <path class="e4f309ac-a446-49c4-a1da-c35e9fb6bf85" d="M80.52,198.86c-.44.16-2.48-.52-.56-1.59C81.71,196.27,83.51,198.46,80.52,198.86Z"/>
        <path class="b2d30183-2713-4061-9788-5543d5d38983" d="M81.39,198.26c-.43.48-2.35.28-1.59-.51C80.76,196.83,82.11,197.59,81.39,198.26Z"/>
        <path class="e4f309ac-a446-49c4-a1da-c35e9fb6bf85" d="M77.28,197.87c-.48.16-2.63-.8-.48-2S80.56,197.59,77.28,197.87Z"/>
        <path class="b2d30183-2713-4061-9788-5543d5d38983" d="M78.32,197.23c-.52.52-2.55.16-1.68-.72C77.76,195.43,79.16,196.43,78.32,197.23Z"/>
        <path class="e4f309ac-a446-49c4-a1da-c35e9fb6bf85" d="M55.85,166.33c.2.52-1,3-2.44.76C52.13,165.05,55.61,162.74,55.85,166.33Z"/>
        <path class="b2d30183-2713-4061-9788-5543d5d38983" d="M55.09,165.29c.64.52.12,2.84-1,1.92C52.85,166.13,54.13,164.45,55.09,165.29Z"/>
        <path class="e4f309ac-a446-49c4-a1da-c35e9fb6bf85" d="M52.61,166.25c0,.52-1.91,2.32-2.55-.12C49.46,163.9,53.45,163,52.61,166.25Z"/>
        <path class="b2d30183-2713-4061-9788-5543d5d38983" d="M52.21,165.09c.44.68-.71,2.56-1.47,1.4C49.86,165.09,51.58,164.06,52.21,165.09Z"/>
        <path class="e4f309ac-a446-49c4-a1da-c35e9fb6bf85" d="M54.09,162c.24.28.08,2.24-1.4,1.12C51.38,162.06,53.05,159.7,54.09,162Z"/>
        <path class="b2d30183-2713-4061-9788-5543d5d38983" d="M53.33,161.5c.56.2.8,1.84-.12,1.52C52.09,162.58,52.53,161.18,53.33,161.5Z"/>
        <path class="e4f309ac-a446-49c4-a1da-c35e9fb6bf85" d="M51.38,162.1c.16.32-.64,2-1.68.56S51.1,159.74,51.38,162.1Z"/>
        <path class="b2d30183-2713-4061-9788-5543d5d38983" d="M50.82,161.42c.48.32.16,1.84-.6,1.28C49.26,162,50.14,160.9,50.82,161.42Z"/>
        <path class="e4f309ac-a446-49c4-a1da-c35e9fb6bf85" d="M89.54,190.24c-.52.48-3.64-.48-1.44-3.47C90.06,184,93.45,188.49,89.54,190.24Z"/>
        <path class="b2d30183-2713-4061-9788-5543d5d38983" d="M90.5,188.68c-.44,1.2-3.12,1.28-2.4-.71C89,185.57,91.21,186.93,90.5,188.68Z"/>
        <path class="e4f309ac-a446-49c4-a1da-c35e9fb6bf85" d="M50.58,183c.8-.2,2.63-4-1.2-3.68C45.83,179.54,46.15,185.81,50.58,183Z"/>
        <path class="b2d30183-2713-4061-9788-5543d5d38983" d="M48.7,182.94c1.2.32,3.43-2.32,1.48-2.84C47.74,179.46,46.91,182.54,48.7,182.94Z"/>
        <path class="e4f309ac-a446-49c4-a1da-c35e9fb6bf85" d="M45.39,179.7c.64,0,2.71-3-.36-3.59C42.23,175.55,41.44,181.3,45.39,179.7Z"/>
        <path class="b2d30183-2713-4061-9788-5543d5d38983" d="M43.91,179.26c.88.56,3.11-1.35,1.6-2.27C43.75,176,42.55,178.51,43.91,179.26Z"/>
        <path class="e4f309ac-a446-49c4-a1da-c35e9fb6bf85" d="M39,181.54c.64.16,3.51-2,.76-3.51C37.28,176.67,34.77,181.9,39,181.54Z"/>
        <path class="b2d30183-2713-4061-9788-5543d5d38983" d="M37.76,180.7c.68.8,3.36-.36,2.24-1.68A1.4,1.4,0,0,0,37.76,180.7Z"/>
        <path class="e4f309ac-a446-49c4-a1da-c35e9fb6bf85" d="M43.23,184.53c.64.16,3.52-2,.76-3.51C41.48,179.62,39,184.85,43.23,184.53Z"/>
        <path class="b2d30183-2713-4061-9788-5543d5d38983" d="M42,183.69c.67.8,3.35-.35,2.23-1.67C42.79,180.46,40.88,182.54,42,183.69Z"/>
        <path class="e4f309ac-a446-49c4-a1da-c35e9fb6bf85" d="M55.05,177.07c.44-.56-.2-3.91-2.92-1.56C49.7,177.63,53.37,181.3,55.05,177.07Z"/>
        <path class="b2d30183-2713-4061-9788-5543d5d38983" d="M53.69,178.15c1-.48,1.24-3.36-.48-2.56C51.1,176.55,52.13,178.86,53.69,178.15Z"/>
        <path class="e4f309ac-a446-49c4-a1da-c35e9fb6bf85" d="M55.29,173.32c.36.2,2.23-1.88.68-3.52C54.57,168.33,52.73,173.48,55.29,173.32Z"/>
        <path class="b2d30183-2713-4061-9788-5543d5d38983" d="M54.61,172.44c.36.84,2-.2,1.44-1.56C55.33,169.2,54.05,171.2,54.61,172.44Z"/>
        <path class="e4f309ac-a446-49c4-a1da-c35e9fb6bf85" d="M51.5,172.64c.43.16,2.31-2.28.35-3.71C50.06,167.61,48.58,173.2,51.5,172.64Z"/>
        <path class="b2d30183-2713-4061-9788-5543d5d38983" d="M50.58,171.84c.48.8,2.27-.52,1.43-1.84C51,168.41,49.78,170.68,50.58,171.84Z"/>
        <path class="e4f309ac-a446-49c4-a1da-c35e9fb6bf85" d="M50.66,174.15c.2-.59-1.68-2.63-3.32.08C45.87,176.79,50.66,177.83,50.66,174.15Z"/>
        <path class="b2d30183-2713-4061-9788-5543d5d38983" d="M49.78,175.47c.8-.76-.08-2.87-1.4-1.59C46.75,175.43,48.58,176.63,49.78,175.47Z"/>
        <path class="e4f309ac-a446-49c4-a1da-c35e9fb6bf85" d="M155.84,93.12c.44-.44.28-3.55-2.11-1.87C151.53,92.8,154,96.67,155.84,93.12Z"/>
        <path class="b2d30183-2713-4061-9788-5543d5d38983" d="M154.64,93.84c.88-.24,1.36-2.83-.08-2.4C152.77,92,153.33,94.28,154.64,93.84Z"/>
        <path class="e4f309ac-a446-49c4-a1da-c35e9fb6bf85" d="M152.41,91.33c.2-.36-.68-2.16-2-.68S151.93,93.8,152.41,91.33Z"/>
        <path class="b2d30183-2713-4061-9788-5543d5d38983" d="M151.69,92c.6-.32.28-2-.68-1.39C149.85,91.29,150.81,92.52,151.69,92Z"/>
        <path class="e4f309ac-a446-49c4-a1da-c35e9fb6bf85" d="M157.6,82.38c.16.64-1.64,3.16-3.08.28C153.25,80,157.72,78.31,157.6,82.38Z"/>
        <path class="b2d30183-2713-4061-9788-5543d5d38983" d="M156.84,81c.72.75-.16,3.23-1.36,2C154,81.43,155.76,79.87,156.84,81Z"/>
        <path class="e4f309ac-a446-49c4-a1da-c35e9fb6bf85" d="M156.64,85.62c.48,0,1.52,2.75-.92,3.67C153.53,90.17,153.92,84.38,156.64,85.62Z"/>
        <path class="b2d30183-2713-4061-9788-5543d5d38983" d="M155.44,86.22c.76-.64,2.12,1,.84,2.11C154.72,89.65,154.28,87.13,155.44,86.22Z"/>
        <path class="e4f309ac-a446-49c4-a1da-c35e9fb6bf85" d="M152.17,86.57a1.49,1.49,0,0,1-.92,2.48C149.57,89.41,150.29,85.42,152.17,86.57Z"/>
        <path class="b2d30183-2713-4061-9788-5543d5d38983" d="M151.29,86.85c.6-.35,1.48,1,.48,1.6C150.53,89.17,150.37,87.37,151.29,86.85Z"/>
        <path class="e4f309ac-a446-49c4-a1da-c35e9fb6bf85" d="M152.49,84.94c-.12.48-2.24,1-2.08-1.56C150.57,81.07,154.12,82.54,152.49,84.94Z"/>
        <path class="b2d30183-2713-4061-9788-5543d5d38983" d="M152.49,83.7c.2.84-1.32,1.84-1.6.4C150.53,82.34,152.25,82.38,152.49,83.7Z"/>
      </g>
      <g>
        <ellipse class="f94157ed-126d-4c55-9a06-f53357e8047a" cx="73.93" cy="62.15" rx="4.87" ry="6.55"/>
        <ellipse class="f94157ed-126d-4c55-9a06-f53357e8047a" cx="109.94" cy="62.15" rx="4.87" ry="6.55"/>
        <g>
          <circle cx="73.93" cy="62.15" r="4.03"/>
          <path class="f94157ed-126d-4c55-9a06-f53357e8047a" d="M76.44,60.75a.92.92,0,1,1-.91-.92A.92.92,0,0,1,76.44,60.75Z"/>
        </g>
        <g>
          <circle cx="109.86" cy="62.19" r="4.03"/>
          <path class="f94157ed-126d-4c55-9a06-f53357e8047a" d="M112.37,60.75a.92.92,0,1,1-.92-.92A.93.93,0,0,1,112.37,60.75Z"/>
        </g>
        <path d="M68.18,54.92a.51.51,0,0,1-.24,0,.46.46,0,0,1-.16-.56c.08-.12,2-3.15,6.91-2.47a.42.42,0,1,1-.12.83c-4.39-.59-6.07,2-6.07,2.08A.49.49,0,0,1,68.18,54.92Z"/>
        <path d="M115.6,54.92a.51.51,0,0,0,.24,0,.46.46,0,0,0,.16-.56c-.08-.12-2-3.15-6.9-2.47a.42.42,0,1,0,.12.83c4.39-.59,6.06,2,6.06,2.08A.36.36,0,0,0,115.6,54.92Z"/>
        <path d="M92.21,76C88.58,76,84.51,74,84,69.29a.46.46,0,1,1,.92-.12c.4,4.07,4,5.91,7.26,5.91h.12c3.23,0,6.63-1.88,6.91-5.91a.46.46,0,1,1,.92,0c-.32,4.59-4.28,6.71-7.83,6.79C92.33,76,92.25,76,92.21,76Z"/>
      </g>
    </g>
  </g>
</svg>
