<svg id="ec7361e3-18cd-4d92-9d26-a772c9b615d9" data-name="Layer 1" xmlns="http://www.w3.org/2000/svg" xmlns:xlink="http://www.w3.org/1999/xlink" width="230.55" height="254.75" viewBox="0 0 230.55 254.75">
  <defs>
    <style>
      .bb732d5b-d1a0-47c4-aa67-5a225e174eb3 {
        opacity: 0.5;
      }

      .b5408583-9ae6-43ad-829c-463c3585ee68 {
        fill: #fff;
      }

      .a5211abf-e12e-4a95-b359-e945175089fd, .a53a2623-9f95-4b64-a473-0a16e6f83a0a, .f8a32b0c-6ce9-4308-b82d-31134439d550 {
        fill: #8f6f73;
      }

      .a0b3db98-a405-44fd-9a93-2562a2b923b7, .a53a2623-9f95-4b64-a473-0a16e6f83a0a, .b3c4b9b7-760d-4ae7-a747-2412936baf90, .f8a32b0c-6ce9-4308-b82d-31134439d550, .fac6d0c8-60d8-4a93-93cf-65315a90b9f3 {
        stroke: #262626;
      }

      .a0b3db98-a405-44fd-9a93-2562a2b923b7, .a5211abf-e12e-4a95-b359-e945175089fd, .a53a2623-9f95-4b64-a473-0a16e6f83a0a, .ac514d9c-a7a1-41b9-becb-c4b0cc5ae441, .ad769a7c-8bb0-4bfb-9172-1ad84d83be5f, .af2310a5-a427-499e-9131-4ac2d8f1f87c, .b3b43a7d-1c03-4a82-9b7b-4a094da6f5d6, .b3c4b9b7-760d-4ae7-a747-2412936baf90, .b687159b-5368-46f7-9732-da6f79b0cb7a, .bb5b88d7-7b82-46b7-87b3-32523b994842, .bbe6bd4c-9865-4a77-917d-ffb2d4a7f52c, .e047d1e2-83b6-4ec0-84d0-cbf19f63ab46, .e82fbfba-0899-4aab-9a34-370d0bc1bcc7, .ea24a5eb-299d-4a98-9de6-67d37e8d5b17, .eb7e9d29-465d-42cb-b578-0da90a6d9787, .f67745a8-8340-4777-8cd2-2d027854cc9e, .f8a32b0c-6ce9-4308-b82d-31134439d550, .f8cd530f-90c9-4d68-a92c-400b93f8c877, .fac6d0c8-60d8-4a93-93cf-65315a90b9f3, .fe793f3d-d63b-4219-b540-0c0aee327b12 {
        stroke-miterlimit: 10;
      }

      .a0b3db98-a405-44fd-9a93-2562a2b923b7, .a5211abf-e12e-4a95-b359-e945175089fd, .ac514d9c-a7a1-41b9-becb-c4b0cc5ae441, .ad769a7c-8bb0-4bfb-9172-1ad84d83be5f, .af2310a5-a427-499e-9131-4ac2d8f1f87c, .b3c4b9b7-760d-4ae7-a747-2412936baf90, .bb5b88d7-7b82-46b7-87b3-32523b994842, .e047d1e2-83b6-4ec0-84d0-cbf19f63ab46, .e82fbfba-0899-4aab-9a34-370d0bc1bcc7, .ea24a5eb-299d-4a98-9de6-67d37e8d5b17, .eb7e9d29-465d-42cb-b578-0da90a6d9787, .f67745a8-8340-4777-8cd2-2d027854cc9e, .f8a32b0c-6ce9-4308-b82d-31134439d550 {
        stroke-width: 0.58px;
      }

      .b3c4b9b7-760d-4ae7-a747-2412936baf90, .f4428b43-555c-4e81-8899-8e37a6441a46 {
        fill: #f5f2ef;
      }

      .e940c8ed-5c3b-4d58-92e4-a52b4f1f607b {
        fill: #bfb19d;
      }

      .b4d686de-1ea2-499c-ac1e-0b3c4910f931, .e047d1e2-83b6-4ec0-84d0-cbf19f63ab46 {
        fill: #907175;
      }

      .a5211abf-e12e-4a95-b359-e945175089fd, .b3b43a7d-1c03-4a82-9b7b-4a094da6f5d6, .bb5b88d7-7b82-46b7-87b3-32523b994842 {
        stroke: #232323;
      }

      .af2310a5-a427-499e-9131-4ac2d8f1f87c, .bbe6bd4c-9865-4a77-917d-ffb2d4a7f52c, .e82fbfba-0899-4aab-9a34-370d0bc1bcc7 {
        fill: #f38590;
      }

      .bbe6bd4c-9865-4a77-917d-ffb2d4a7f52c, .e82fbfba-0899-4aab-9a34-370d0bc1bcc7 {
        stroke: #712313;
      }

      .bbe6bd4c-9865-4a77-917d-ffb2d4a7f52c {
        stroke-width: 0.55px;
      }

      .af2310a5-a427-499e-9131-4ac2d8f1f87c {
        stroke: #bc554a;
      }

      .ea24a5eb-299d-4a98-9de6-67d37e8d5b17, .f67745a8-8340-4777-8cd2-2d027854cc9e {
        stroke: #302f2f;
      }

      .ea24a5eb-299d-4a98-9de6-67d37e8d5b17 {
        fill: url(#e315ce8c-70a0-4b77-b094-c8d3f5a9f3e9);
      }

      .a3a1eb13-a698-4790-ba1c-b072cbcd8a77 {
        fill: url(#fe7c7ab6-6cca-4b49-a2a1-a7a63f45e178);
      }

      .b949314b-7efd-4188-9014-11dc2f9fdb65 {
        fill: #252624;
      }

      .f8cd530f-90c9-4d68-a92c-400b93f8c877 {
        stroke: #353535;
        fill: url(#aca11ba7-1987-4879-9a85-76bfdf901a58);
      }

      .b687159b-5368-46f7-9732-da6f79b0cb7a, .f8cd530f-90c9-4d68-a92c-400b93f8c877, .fac6d0c8-60d8-4a93-93cf-65315a90b9f3, .fe793f3d-d63b-4219-b540-0c0aee327b12 {
        stroke-width: 0.78px;
      }

      .f3ac7605-5a99-4214-8624-452d7999b56e {
        fill: url(#bc682247-4e08-42bb-a828-84ef475483b8);
      }

      .b956fb58-8028-4646-8c60-c81819c8acfb {
        fill: url(#abc6cf7e-4953-4dc2-8934-a230be1526ac);
      }

      .b8e8a6f9-7509-4de2-9bb0-efaf36c2423e {
        fill: #030303;
      }

      .ad31f64f-a25d-4749-8f55-76069cd0c0e2 {
        fill: #fcfdff;
      }

      .a74f2108-2765-4e44-bfe8-796cf57479f6 {
        fill: #ee3e3d;
      }

      .eb7e9d29-465d-42cb-b578-0da90a6d9787 {
        fill: #f28087;
        stroke: #922f1e;
      }

      .a0b3db98-a405-44fd-9a93-2562a2b923b7, .ac514d9c-a7a1-41b9-becb-c4b0cc5ae441, .ad769a7c-8bb0-4bfb-9172-1ad84d83be5f, .b3b43a7d-1c03-4a82-9b7b-4a094da6f5d6, .b687159b-5368-46f7-9732-da6f79b0cb7a, .b873a46e-3577-4cb7-83dc-b8a695a49c22, .bb5b88d7-7b82-46b7-87b3-32523b994842, .f67745a8-8340-4777-8cd2-2d027854cc9e, .fac6d0c8-60d8-4a93-93cf-65315a90b9f3, .fe793f3d-d63b-4219-b540-0c0aee327b12 {
        fill: none;
      }

      .ac8fd096-7258-490b-ad6c-988d85ca46f5 {
        fill: #302f2f;
      }

      .b6fe8dfc-2064-4c31-bb49-5b6872d5084f {
        fill: #795961;
      }

      .b670d608-ad12-4b63-9a9f-6e8ca2b14137 {
        fill: #422f2a;
      }

      .a53a2623-9f95-4b64-a473-0a16e6f83a0a, .b3b43a7d-1c03-4a82-9b7b-4a094da6f5d6 {
        stroke-width: 0.39px;
      }

      .f66b4ee2-d203-4a82-8ae2-e218bc1c36ad {
        fill: #262626;
      }

      .a0204c31-794d-49b9-b6bb-8af214cf6dd8 {
        fill: #75555c;
      }

      .ba213a16-4679-4c16-9e25-e919dacc43b1 {
        fill: #3d2d2b;
      }

      .ad769a7c-8bb0-4bfb-9172-1ad84d83be5f {
        stroke: #1b1c1c;
      }

      .f2e20aec-82d1-428a-a2b9-57467301b27d {
        fill: #74545b;
      }

      .b35207b2-79a2-4820-80b9-c720a7e41408 {
        fill: #232323;
      }

      .b9f34043-f440-4fed-87a6-02efba56b492 {
        fill: #3a2528;
      }

      .bc511161-ee93-4f43-9423-19dba1c4bdee {
        fill: #593f44;
      }

      .a19af4c9-b69c-4b71-a1f4-ba001ae81a98 {
        fill: #282827;
      }

      .ac514d9c-a7a1-41b9-becb-c4b0cc5ae441, .e047d1e2-83b6-4ec0-84d0-cbf19f63ab46, .fe793f3d-d63b-4219-b540-0c0aee327b12 {
        stroke: #282827;
      }

      .b687159b-5368-46f7-9732-da6f79b0cb7a {
        stroke: #30302f;
      }
    </style>
    <linearGradient id="e315ce8c-70a0-4b77-b094-c8d3f5a9f3e9" x1="94.21" y1="152.75" x2="120.56" y2="152.75" gradientTransform="translate(-53.98 -51.38) rotate(-3.54)" gradientUnits="userSpaceOnUse">
      <stop offset="0" stop-color="#4e1211"/>
      <stop offset="0.31" stop-color="#471312"/>
      <stop offset="0.69" stop-color="#200d0c"/>
      <stop offset="0.98" stop-color="#680c0c"/>
    </linearGradient>
    <linearGradient id="fe7c7ab6-6cca-4b49-a2a1-a7a63f45e178" x1="96.56" y1="107.38" x2="85.66" y2="145.25" gradientTransform="translate(-53.98 -51.38) rotate(-3.54)" gradientUnits="userSpaceOnUse">
      <stop offset="0" stop-color="#4a240d"/>
      <stop offset="0.05" stop-color="#684834"/>
      <stop offset="0.12" stop-color="#8d7465"/>
      <stop offset="0.18" stop-color="#ad9b90"/>
      <stop offset="0.25" stop-color="#c7bab2"/>
      <stop offset="0.32" stop-color="#dbd3cd"/>
      <stop offset="0.39" stop-color="#eae4e0"/>
      <stop offset="0.46" stop-color="#f2efeb"/>
      <stop offset="0.54" stop-color="#f5f2ef"/>
    </linearGradient>
    <linearGradient id="aca11ba7-1987-4879-9a85-76bfdf901a58" x1="134.85" y1="108.27" x2="126.88" y2="139.76" gradientTransform="translate(-53.98 -51.38) rotate(-3.54)" gradientUnits="userSpaceOnUse">
      <stop offset="0" stop-color="#4a240d"/>
      <stop offset="0.54" stop-color="#f5f2ef"/>
    </linearGradient>
    <linearGradient id="bc682247-4e08-42bb-a828-84ef475483b8" x1="93.63" y1="113.61" x2="91.02" y2="137.86" gradientTransform="translate(-46.58 -57.34)" gradientUnits="userSpaceOnUse">
      <stop offset="0" stop-color="#4a240d"/>
      <stop offset="0.64" stop-color="#9b6a33"/>
    </linearGradient>
    <linearGradient id="abc6cf7e-4953-4dc2-8934-a230be1526ac" x1="130.83" y1="117.8" x2="128.22" y2="142.05" gradientTransform="translate(-46.39 -59.65)" xlink:href="#bc682247-4e08-42bb-a828-84ef475483b8"/>
  </defs>
  <g>
    <path class="bb732d5b-d1a0-47c4-aa67-5a225e174eb3" d="M80.92,251.87a16.72,16.72,0,0,1-4.71-.71,12.41,12.41,0,0,1-1.49.09,12.61,12.61,0,0,1-2.44-.24,13.72,13.72,0,0,1-4.46-1.7,8.66,8.66,0,0,1-.89-.07,10.66,10.66,0,0,1-1.38-.25,10.89,10.89,0,0,1-5.46-2.91,16.51,16.51,0,0,1-4.24.56,15.74,15.74,0,0,1-4.16-.56,14.36,14.36,0,0,1-4.22.66,12.8,12.8,0,0,1-8.55-3.24,12.16,12.16,0,0,1-1.32-.75,10.83,10.83,0,0,1-2.32-1.91,13.44,13.44,0,0,1-3.23-11.49.43.43,0,0,0,0,0A13.74,13.74,0,0,1,35,222l5.5-12.78c0-4.92-.26-9.79-.44-12.4-.68-10.07-3-17.47-5.44-25.3-2.9-9.27-5.89-18.86-6-32.46v-.69c0-.18-.05-.36-.06-.53a7.92,7.92,0,0,1,.11-2.53A98.32,98.32,0,0,1,30,122.05a8,8,0,0,1-.31-5.4A19.56,19.56,0,0,1,31,113.49a23.67,23.67,0,0,1-6.68-6.15,8,8,0,0,1-4.94-2.92,32,32,0,0,1-3.19-4.82,8,8,0,0,1-4.36-5,33.62,33.62,0,0,1-1-4.79,8,8,0,0,1-2.62-4.15,24.61,24.61,0,0,1-.22-9.1,8,8,0,0,1,.37-3.32l1-2.87.21-.73c.19-.6.41-1.2.66-1.83.65-1.92.65-1.93.65-1.93a9.27,9.27,0,0,1,1.2-2,64.28,64.28,0,0,1,5.59-8.29,67.08,67.08,0,0,0-.93-7.85c-1.43-5.72-1.2-13.67.64-22.4l.26-1.24c1.35-6.46,3.38-16.22,14.21-16.22a22.74,22.74,0,0,1,7.11,1.3,8,8,0,0,1,1.8.84c4.2,2.64,8.43,5.42,12.56,8.24,2.8,1.92,5.63,3.91,8.44,5.95,3.65-.31,7.22-.38,9.26-.39H71a31.09,31.09,0,0,1,6.84.84c1.31.18,2.61.42,3.89.71,3.93-2.76,11.59-8.06,16.13-10.74a8.3,8.3,0,0,1,1.58-.71c4.62-1.51,7.87-2.38,10.82-2.38,9.76,0,11.73,8.69,12.91,13.88a41.81,41.81,0,0,1,.94,15.29c-.12,1.44-.25,2.94-.33,4.81-.26,6.09-2,14.66-3,19.1L123,69.25a8.39,8.39,0,0,1,1.23,2.38l2.58,8.07a8,8,0,0,1-1.19,7.21,17.18,17.18,0,0,1-1.09,3.58,8,8,0,0,1-2.74,3.28c-.41,2.23-.86,3.86-.93,4.09a7.89,7.89,0,0,1-2.54,4,8.4,8.4,0,0,1-1.18,1.87,7.94,7.94,0,0,1-3.3,2.32l-.44.56c0,.12.07.24.1.36a8,8,0,0,1-2.63,8.18q.54,1.11,1,2.31l.4.81,6.36,10c3.07,4.57,6.19,9.11,9.2,13.5,4.51,6.57,9.18,13.36,13.71,20.29l3.08,4.5c.56.81,1.11,1.69,1.67,2.67l.48.67a28.13,28.13,0,0,1,3.05,5.79c3.23,7,4.59,14.62,4.26,24.08v1.42c.75.08,1.58.16,2.47.23a30.81,30.81,0,0,0,4.66-.53l2.25-.5a153.67,153.67,0,0,1,15.41-3.32c1.1-.21,2.06-.39,2.47-.49a8.09,8.09,0,0,1,3.44-.12c.83,0,1.64-.06,2.42-.06s1.61,0,2.38.07l.68.05c.48,0,.94.08,1.39.13l.44.05a26.15,26.15,0,0,1,10.17,3.4c.36.22.7.43,1,.64l.23.16.78.58.32.25c.5.39.88.72,1.14,1l.6.22c.3.12.62.24.89.36l.42.18c.16.06.53.23,1,.45l.05,0,1.09.56a35.12,35.12,0,0,1,5.88,3.91l.14.11c.94.77,5.13,4.3,7.15,7.7a9.86,9.86,0,0,1,1.87,5,25.46,25.46,0,0,1,2.82,6.28,8,8,0,0,1-4,9.42,29.66,29.66,0,0,1-11.33,2.85,8,8,0,0,1-4.36,1.46,8.46,8.46,0,0,1-.87,0,8.28,8.28,0,0,1-1.2-.09h0a41.93,41.93,0,0,1-9.69-1.63l-.72-.23-1-.34a8.06,8.06,0,0,1-1.55.15,8.19,8.19,0,0,1-2.24-.32c-.59-.17-3.63-1-7.09-1.87l-3.16-.41a8,8,0,0,1-3.2.67c-.41,0-1,0-2.68-.15-4-.26-7.21-.48-9.75-.66a8.11,8.11,0,0,1-3.32.93c-.13,0-1.32.06-3.14.06a61.71,61.71,0,0,1-14.77-1.6c-3.06,2.78-7.82,3.88-11.19,4.65l-.07,0-2.46.54a9.48,9.48,0,0,1-1.05.15l-1.81.12c-1.64.16-3.35.24-5.09.24h-.18c-1.22.09-2.46.13-3.69.13h-.59A19.07,19.07,0,0,1,106.26,245L105,245a19.19,19.19,0,0,1-3.66-.47,16.66,16.66,0,0,1-3.68.43,13.22,13.22,0,0,1-4.18-.66,16.87,16.87,0,0,1-2.07,2.86,11.43,11.43,0,0,1-7.8,4.46A14.49,14.49,0,0,1,80.92,251.87Z"/>
    <path class="b5408583-9ae6-43ad-829c-463c3585ee68" d="M75.92,246.87a16.72,16.72,0,0,1-4.71-.71,12.41,12.41,0,0,1-1.49.09,12.61,12.61,0,0,1-2.44-.24,13.72,13.72,0,0,1-4.46-1.7,8.66,8.66,0,0,1-.89-.07,10.66,10.66,0,0,1-1.38-.25,10.89,10.89,0,0,1-5.46-2.91,16.51,16.51,0,0,1-4.24.56,15.74,15.74,0,0,1-4.16-.56,14.36,14.36,0,0,1-4.22.66,12.8,12.8,0,0,1-8.55-3.24,12.16,12.16,0,0,1-1.32-.75,10.83,10.83,0,0,1-2.32-1.91,13.44,13.44,0,0,1-3.23-11.49.43.43,0,0,0,0,0A13.74,13.74,0,0,1,30,217l5.5-12.78c0-4.92-.26-9.79-.44-12.4-.68-10.07-3-17.47-5.44-25.3-2.9-9.27-5.89-18.86-6-32.46v-.69c0-.18-.05-.36-.06-.53a7.92,7.92,0,0,1,.11-2.53A98.32,98.32,0,0,1,25,117.05a8,8,0,0,1-.31-5.4A19.56,19.56,0,0,1,26,108.49a23.67,23.67,0,0,1-6.68-6.15,8,8,0,0,1-4.94-2.92,32,32,0,0,1-3.19-4.82,8,8,0,0,1-4.36-5,33.62,33.62,0,0,1-1-4.79,8,8,0,0,1-2.62-4.15,24.61,24.61,0,0,1-.22-9.1,8,8,0,0,1,.37-3.32l1-2.87.21-.73c.19-.6.41-1.2.66-1.83l.65-1.93a9.27,9.27,0,0,1,1.2-2,64.28,64.28,0,0,1,5.59-8.29,67.08,67.08,0,0,0-.93-7.85c-1.43-5.72-1.2-13.67.64-22.4l.26-1.24c1.35-6.46,3.38-16.22,14.21-16.22a22.74,22.74,0,0,1,7.11,1.3,8,8,0,0,1,1.8.84c4.2,2.64,8.43,5.42,12.56,8.24,2.8,1.92,5.63,3.91,8.44,6,3.65-.31,7.22-.38,9.26-.39H66a31.09,31.09,0,0,1,6.84.84c1.31.18,2.61.42,3.89.71,3.93-2.76,11.59-8.06,16.13-10.74a8.3,8.3,0,0,1,1.58-.71c4.62-1.51,7.87-2.38,10.82-2.38,9.76,0,11.73,8.69,12.91,13.88a41.81,41.81,0,0,1,.94,15.29c-.12,1.44-.25,2.94-.33,4.81-.26,6.09-2,14.66-3,19.1L118,64.25a8.39,8.39,0,0,1,1.23,2.38l2.58,8.07a8,8,0,0,1-1.19,7.21,17.18,17.18,0,0,1-1.09,3.58,8,8,0,0,1-2.74,3.28c-.41,2.23-.86,3.86-.93,4.09a7.89,7.89,0,0,1-2.54,4,8.4,8.4,0,0,1-1.18,1.87,7.94,7.94,0,0,1-3.3,2.32l-.44.56c0,.12.07.24.1.36a8,8,0,0,1-2.63,8.18q.54,1.11,1,2.31l.4.81,6.36,10c3.07,4.57,6.19,9.11,9.2,13.5,4.51,6.57,9.18,13.36,13.71,20.29l3.08,4.5c.56.81,1.11,1.69,1.67,2.67l.48.67a28.13,28.13,0,0,1,3.05,5.79c3.23,7,4.59,14.62,4.26,24.08v1.42c.75.08,1.58.16,2.47.23a30.81,30.81,0,0,0,4.66-.53l2.25-.5a153.67,153.67,0,0,1,15.41-3.32c1.1-.21,2.06-.39,2.47-.49a8.09,8.09,0,0,1,3.44-.12c.83,0,1.64-.06,2.42-.06s1.61,0,2.38.07l.68.05c.48,0,.94.08,1.39.13l.44.05a26.15,26.15,0,0,1,10.17,3.4c.36.22.7.43,1,.64l.23.16.78.58.32.25c.5.39.88.72,1.14,1l.6.22c.3.12.62.24.89.36l.42.18c.16.06.53.23,1,.45l.05,0,1.09.56a35.12,35.12,0,0,1,5.88,3.91l.14.11c.94.77,5.13,4.3,7.15,7.7a9.86,9.86,0,0,1,1.87,5,25.46,25.46,0,0,1,2.82,6.28,8,8,0,0,1-4,9.42,29.66,29.66,0,0,1-11.33,2.85,8,8,0,0,1-4.36,1.46,8.46,8.46,0,0,1-.87,0,8.28,8.28,0,0,1-1.2-.09h0a41.93,41.93,0,0,1-9.69-1.63l-.72-.23-1-.34a8.06,8.06,0,0,1-1.55.15,8.19,8.19,0,0,1-2.24-.32c-.59-.17-3.63-1-7.09-1.87l-3.16-.41a8,8,0,0,1-3.2.67c-.41,0-1,0-2.68-.15-4-.26-7.21-.48-9.75-.66a8.11,8.11,0,0,1-3.32.93c-.13,0-1.32.06-3.14.06a61.71,61.71,0,0,1-14.77-1.6c-3.06,2.78-7.82,3.88-11.19,4.65l-.07,0-2.46.54a9.48,9.48,0,0,1-1,.15l-1.81.12c-1.64.16-3.35.24-5.09.24h-.18c-1.22.09-2.46.13-3.69.13h-.59A19.07,19.07,0,0,1,101.26,240L100,240a19.19,19.19,0,0,1-3.66-.47,16.66,16.66,0,0,1-3.68.43,13.22,13.22,0,0,1-4.18-.66,16.87,16.87,0,0,1-2.07,2.86,11.43,11.43,0,0,1-7.8,4.46A14.49,14.49,0,0,1,75.92,246.87Z"/>
    <g>
      <path class="f8a32b0c-6ce9-4308-b82d-31134439d550" d="M34,93.36c.15,1.57.3,3.16.43,4.78.14,1.79.26,3.56.37,5.29l5.1,1.95a20.93,20.93,0,0,1-2,1.93c-1.34,1.18-2.09,1.55-2.84,2.19a8.89,8.89,0,0,0-2.66,4.42l1.39.11a89.15,89.15,0,0,0-2.15,20c.15,23.47,9.83,33.92,11.41,57.27.6,9,1.09,25.23-1.94,27.78-2.19,1-8.12,2.31-5.46,10.68.84,1.33,1.45,1.33,2.79,1.94,3.39,4.25,8.25.61,8.25.61s2.54,2.79,9.22,0c1.82-2.19,4.12-5,4.73-13.59,0,0,1.33-17.14,1.23-17.86l-.11-.71a31.05,31.05,0,0,0,2,3.18,32.58,32.58,0,0,0,7.45,7.53,56.27,56.27,0,0,1-1.55,5.53c-.53,1.59-1.09,3-1.67,4.4a9.78,9.78,0,0,0-6.15,3.14c-2.74,3.23-2.88,8.45-1.32,9.28.54.28,1.83.29,5.25-3.17,1.94,3.27,6.23,2.55,7.25,2,3.26,1.13,7.24,1.43,9.38-1a17.86,17.86,0,0,0,3-4.38s.1,2,3.47,2.75C90,233,94.31,232,96.15,231.25c6.73,1.94,11,0,13.36-2.76,0,0,11.22,1.23,18.88-3.36,4.49-2.86,5.81-4.9,5.81-4.9s4.39,4.49,21.33,3.88l-4.8-1.94s19.28,2,21.43,2L167,221.45s18.47,3.27,20.92,4.7l-2-4a16,16,0,0,0,9.79,5.2l6.43.92-4.39-3.06s8.68,3.26,16.94-.41c0,0-1.74-6.73-6.94-9.18,0,0,3.47.1,4.08.81S204,203.19,189.5,203.91l5.82-.31s-5.41-5.61-16.94-3.88-23.47,4.7-24.28,4.8-10.51-.51-13.27-1.94a125.15,125.15,0,0,0-.3-14.28c-.61-4.8-2.25-14.49-7.55-22.25l-16.43-24-12-17.76L100,117.08a35.29,35.29,0,0,0-2.67-5.83,35.65,35.65,0,0,0-5.7-7.45Z"/>
      <path class="b3c4b9b7-760d-4ae7-a747-2412936baf90" d="M113.56,177a23.17,23.17,0,0,0-7.55,3.66c-2,1.57-4,3.73-4.3,3.46s.39-1.05.09-1.34-1.6.77-2,.46c-.56-.43,1.26-2.77,1.59-6.39a6.78,6.78,0,0,0,0-2.62c-1.29-3.59-10.13-1.3-16.26-4.58-3.16-1.69-6.85-5.53-8.67-15.16,4.66-7.58,8.16-22.89,8.16-22.89l1,2.92.59-.59C96,116.9,89,109.47,89,109.47s-4.73-.54-6.2.38c-20.21,8.27-22.71-1.79-24.15-1.89s-11.52-4.11-11.52-4.11l-1.41,11.39,2.46-1.33-1.4,10.79,3.67-2.48s-6.13,9.49,1.06,21.22S63.76,161,65.34,166.92s.87,8.06.87,8.06l-2.45-3.33,1.05,4c1,4,.35,12.44.35,12.44s-2.45-4.73-2.63-5.26,2.28,13.49,2.28,13.49l-2.28-3.68,1,9a12.52,12.52,0,0,0,1.33,3.08,13.3,13.3,0,0,0,4.47,4.41C79.7,215.8,83,221.43,89.16,220.53c3-.43,2.84-1.84,7.83-4a35,35,0,0,1,13.28-2.82h.88c-1.48-1.34-5.72-5.56-6.1-11.87a15.27,15.27,0,0,1,.34-4.26l-2.46,6a12.79,12.79,0,0,1-.6-5.67,42.6,42.6,0,0,1,1.3-5.26c.19-.68.36-1.24.47-1.62l-.83.69c-1,.84-2,1.67-3,2.49a11.12,11.12,0,0,1,1.14-5.41,13.06,13.06,0,0,1,2.39-3.22,47.72,47.72,0,0,1,3.88-3.31c-.12-.21-4.37,2.55-4.73,2.09s2.78-4.14,7.26-6.21A12.78,12.78,0,0,1,113.56,177Z"/>
      <path class="e940c8ed-5c3b-4d58-92e4-a52b4f1f607b" d="M45.87,110l2.09.2a18.84,18.84,0,0,0,24.29,2.7c1-.24,1.88-.47,2.47-.63s1.31-.39,2.6-.79l1.89-.6-.64-1.39-6.2.38S57.79,119,48.6,108.47l-2.38-.92Z"/>
      <path class="b4d686de-1ea2-499c-ac1e-0b3c4910f931" d="M68,220.77c-1.18.35-5.63,1.83-7.43,6-.11.26-1.91,4.53,0,6.44a2.89,2.89,0,0,0,2.39.93c.79-.2,1.09-1,1.8-.93a1.54,1.54,0,0,1,1.06.73l.86.26q1.08.33,2.13.6a8.15,8.15,0,0,0,2.85,1.33,8.35,8.35,0,0,0,3.39.13,6.09,6.09,0,0,0,1.59-.07,7.59,7.59,0,0,0,2.39-.92c5-3.1,9.68-20.54,9.68-20.54.87-3.26,2.25-8.27,4.08-14.48q.78-5.56,1.55-11.14l1.87,4.34L97.45,180s1.69,5.13,1.69,4.54,1.69-15.77,1.69-15.77l1.5,3.75s2.26-9.86.94-17.74-1.13-5.92-1.13-5.92l-23-2c-5.12,8.23-6.38,15-6.57,19.66,0,1.15.29,6.12,1,16,.63,9.13.72,9.88.59,12.1,0,0,0,.55-.09,1.13a97.65,97.65,0,0,1-2.78,15.42A83.37,83.37,0,0,1,68,220.77Z"/>
      <g>
        <path class="f8a32b0c-6ce9-4308-b82d-31134439d550" d="M21,56.61s-.76-12.25-1.65-15.81-1.16-10,.71-18.8S22.37,8.87,31.39,11.79q6,3.78,12.3,8.08Q49.77,24,55.31,28.14C34.69,45,27.92,51.47,27,53.43c-.46,1-1.47,2.07-3.5,4.26-.23.25-.69.73-1.21.66C21.48,58.24,21.09,56.82,21,56.61Z"/>
        <path id="ad968833-159d-4818-a81f-78a440fea17c" data-name="f" class="a5211abf-e12e-4a95-b359-e945175089fd" d="M47.62,29.47c-.4.19-10.71,4.56-18.11,13.23C22.27,51.49,14.42,59.63,12.09,67s-1.22,11.63-1.22,11.63L15.17,74s-3.35,4.31-.7,13.33l2.44-5.44s-2.49,4.75,3.7,12.58l.88-6s1.93,6.42,4,8.79c0,0,3,6.81,22.88,11.66a16.5,16.5,0,0,0,8.21,5c8.55,2.1,15.37-4,16-4.59,1,0,12.45-.24,21-6.85,5.38-6.09,7.18-10.81,7.18-10.81s.94,5.07.38,6c0,0,5.8-6.12,5.32-12.17v-.1s1.88,1.56,1.59,5.35c0,0,2.66-9.49.63-13.45a18.08,18.08,0,0,1,3.45,4.92s2.58-5.63-1.3-14.13-3.5-7.46-3.5-7.46,3.06-12.76,3.38-20.43,1.46-9.72-.41-18S108,12.91,96.94,16.53c-6,3.51-18,12.11-18,12.11l-1,1s-6.46-2.85-11.91-2.83S50.47,27.26,47.62,29.47Z"/>
        <path class="f4428b43-555c-4e81-8899-8e37a6441a46" d="M23.54,90.49c.61-3.2,4.26-5.82,4.46-6,8.62-8.66,20.85-8.35,24.1-8.16,15.13.86,31.54-2.43,41.31,7.88,1.66,1.75,4.93,5.3,4.53,9.58-.74,7.72-12.89,12.14-15.26,13a34.42,34.42,0,0,1-9.85,2l3.35-3.59a22.43,22.43,0,0,1-17.69,7.07l-8.94-4.47a52.76,52.76,0,0,1-11.37-2.64A46.25,46.25,0,0,1,29.92,101a11.42,11.42,0,0,1-2.63-2.18c-.57-.67-1.36-1.79-1.36-1.79h0a10.16,10.16,0,0,1-1-1.18,7.41,7.41,0,0,1-1.45-3.27A7.29,7.29,0,0,1,23.54,90.49Z"/>
        <path class="bbe6bd4c-9865-4a77-917d-ffb2d4a7f52c" d="M43.88,31.33a73.47,73.47,0,0,0-7.8-10.22,74,74,0,0,0-9.31-8.56,37.32,37.32,0,0,0-2.66,11.34,38.11,38.11,0,0,0,4.18,19.93A36.67,36.67,0,0,1,43.88,31.33Z"/>
        <path class="af2310a5-a427-499e-9131-4ac2d8f1f87c" d="M63.46,86.52S57.47,83,54.77,79c-1.05-3.82,2-4.72,3.35-5.32s9.37-2.18,13.1.18c2.88,2,5.34,3.79,1.77,7.18S65.28,87.7,63.46,86.52Z"/>
        <path class="ea24a5eb-299d-4a98-9de6-67d37e8d5b17" d="M49.16,89.88a12.14,12.14,0,0,0,3.38,1,11.36,11.36,0,0,0,4.94-.27,20.18,20.18,0,0,0,3.32-1.45c.75-.38.67-.42,1.23-.67a1.68,1.68,0,0,0,.73-.44,1.32,1.32,0,0,0,.26-.9,12.09,12.09,0,0,0,6.87,4.22,11.74,11.74,0,0,0,5.74-.32,14.28,14.28,0,0,1-5.92,8.57,12.61,12.61,0,0,1-4.9,1.86c-3.22.5-5.44.19-7.16-.68S54.92,98.62,53,96A42,42,0,0,1,49.16,89.88Z"/>
        <g>
          <path class="a3a1eb13-a698-4790-ba1c-b072cbcd8a77" d="M35.69,68.28s-.22-3.56,3.71-9.34c2-2.87,5-4.36,7.81-3.82,3.69.71,5.55,5.39,6.76,8.46a8.06,8.06,0,0,1,.55,2.16,7.42,7.42,0,0,1-.24,2.82c-1,2.9-6.93,3.43-7.38,3.47C41.56,72.45,37.37,69.59,35.69,68.28Z"/>
          <path class="b949314b-7efd-4188-9014-11dc2f9fdb65" d="M35.69,68.28a10.8,10.8,0,0,1,.58-3.47,21.71,21.71,0,0,1,1.34-3.28,28.53,28.53,0,0,1,1.82-3.05A10,10,0,0,1,42,56a6.67,6.67,0,0,1,7-.51A8.26,8.26,0,0,1,51.64,58a18.94,18.94,0,0,1,1.74,3.14,29.75,29.75,0,0,1,1.28,3.35,8,8,0,0,1,.1,3.65,3.5,3.5,0,0,1-.88,1.72A5.79,5.79,0,0,1,52.37,71,12.79,12.79,0,0,1,48.94,72a14.62,14.62,0,0,1-7.08-.34A18,18,0,0,1,35.69,68.28Zm0,0c3.76,2.78,8.59,4.27,13.13,3.17a13.6,13.6,0,0,0,3.24-1.1,5.18,5.18,0,0,0,1.32-1A2.72,2.72,0,0,0,54.06,68a7.3,7.3,0,0,0-.12-3.32,27.91,27.91,0,0,0-1.27-3.22,18.41,18.41,0,0,0-1.64-3,7.59,7.59,0,0,0-2.36-2.36,5.16,5.16,0,0,0-3.18-.68,7.22,7.22,0,0,0-3.16,1.08c-2,1.18-3.23,3.23-4.38,5.25A15.9,15.9,0,0,0,35.69,68.28Z"/>
        </g>
        <path class="f8cd530f-90c9-4d68-a92c-400b93f8c877" d="M74.1,69.22s-.22-3.56,3.71-9.34c2-2.87,5-4.36,7.8-3.82,3.7.7,5.56,5.39,6.77,8.46a8.06,8.06,0,0,1,.55,2.16,7.42,7.42,0,0,1-.24,2.82c-1,2.9-6.93,3.43-7.38,3.46C80,73.39,75.78,70.53,74.1,69.22Z"/>
        <ellipse class="f3ac7605-5a99-4214-8624-452d7999b56e" cx="46.08" cy="65.28" rx="5.45" ry="5.93" transform="translate(-3.95 2.97) rotate(-3.54)"/>
        <ellipse class="b956fb58-8028-4646-8c60-c81819c8acfb" cx="83.47" cy="67.16" rx="5.45" ry="5.93" transform="translate(-3.99 5.29) rotate(-3.54)"/>
        <ellipse class="b8e8a6f9-7509-4de2-9bb0-efaf36c2423e" cx="46.12" cy="65.9" rx="3.25" ry="2.95" transform="translate(-3.98 2.98) rotate(-3.54)"/>
        <ellipse class="b8e8a6f9-7509-4de2-9bb0-efaf36c2423e" cx="83.81" cy="67.7" rx="3.25" ry="2.95" transform="translate(-4.02 5.31) rotate(-3.54)"/>
        <ellipse class="b5408583-9ae6-43ad-829c-463c3585ee68" cx="81.84" cy="65.17" rx="1.5" ry="1.48" transform="translate(-3.87 5.18) rotate(-3.54)"/>
        <ellipse class="ad31f64f-a25d-4749-8f55-76069cd0c0e2" cx="43.88" cy="64.11" rx="1.43" ry="1.24" transform="translate(-3.88 2.83) rotate(-3.54)"/>
        <path class="a74f2108-2765-4e44-bfe8-796cf57479f6" d="M58.52,83s5.93,2.16,12.29-5.74l1.12-3.09a6.24,6.24,0,0,1,.84.61,5.44,5.44,0,0,1,1.69,2.82c.17,1.28-.67,2.29-1.85,3.71A18.61,18.61,0,0,1,66.42,86c-.68.35-1.26.61-1.67.78a15.4,15.4,0,0,1-4.09-2A15.85,15.85,0,0,1,58.52,83Z"/>
        <path class="eb7e9d29-465d-42cb-b578-0da90a6d9787" d="M54.68,97.46s4.17-5,8.18-1.74c3-1.21,4.55-1.23,7.57,2.47C69.46,99,60.49,106.23,54.68,97.46Z"/>
        <path class="a74f2108-2765-4e44-bfe8-796cf57479f6" d="M68.31,95.91s-3.22,7.42-11.67,3c5.26,4.58,10.53,1.76,13.18-.68C69.82,98.27,69.5,96.45,68.31,95.91Z"/>
        <path class="f67745a8-8340-4777-8cd2-2d027854cc9e" d="M42.63,83.15s6.14,13.64,20.13,4.9l.1-1.08S73.35,99.14,83,84.32"/>
        <path class="ac8fd096-7258-490b-ad6c-988d85ca46f5" d="M40.09,83.3a5.54,5.54,0,0,0,2.6-1,9.55,9.55,0,0,0,1.09-.86c.35-.32.67-.67,1-1-.08.23-.2.45-.3.68s-.26.43-.41.63a4.78,4.78,0,0,1-1.1,1,3.84,3.84,0,0,1-1.42.58A2.56,2.56,0,0,1,40.09,83.3Z"/>
        <path class="ac8fd096-7258-490b-ad6c-988d85ca46f5" d="M81.69,81.44a3.79,3.79,0,0,0,.81,1.2,7.92,7.92,0,0,0,1.06.94c.74.61,1.58,1.1,2.39,1.77A5.22,5.22,0,0,1,84.44,85a5.62,5.62,0,0,1-1.36-.79A4.07,4.07,0,0,1,82,83,2.21,2.21,0,0,1,81.69,81.44Z"/>
        <path class="e940c8ed-5c3b-4d58-92e4-a52b4f1f607b" d="M37.6,105c-1-.52-2-1-2.85-1.57A8.48,8.48,0,0,0,37.6,105Z"/>
        <path class="e940c8ed-5c3b-4d58-92e4-a52b4f1f607b" d="M95.85,99.49c1-1.26,1.61-2.72,2.44-4.06a1.24,1.24,0,0,1,.48-.44c.23-.47.43-.93.6-1.36,0-.19-.09-.38-.15-.58a17.61,17.61,0,0,0-1.28-3.25A34.31,34.31,0,0,1,86,101a33.41,33.41,0,0,1-7.94,3.18l-.23-1.91c-18.31,14.18-28.57,5.29-32.47,1.43a9.38,9.38,0,0,1-7.18,1.43L37.6,105a43.09,43.09,0,0,0,6.31,2.56,42.54,42.54,0,0,0,4.71,1.21,16.34,16.34,0,0,0,7.1,4.44,16.1,16.1,0,0,0,6.52.61A20.2,20.2,0,0,0,71.31,110a19.81,19.81,0,0,0,3.32-3.26l-1.8,2.44.37,0a1.07,1.07,0,0,1,.32,0l1.7-.09a1.28,1.28,0,0,1,.45-.17,80.65,80.65,0,0,0,8.45-1.6,28.29,28.29,0,0,0,5.11-2.19c1.24-.7,2.44-1.48,3.61-2.3A31.12,31.12,0,0,0,95.85,99.49Z"/>
        <path class="b6fe8dfc-2064-4c31-bb49-5b6872d5084f" d="M97.44,90,101,82.2s1.75,2.7,1.55,3.69c0,0,1.9-5.6,1.35-7.75s1.24,1.61,1.24,1.61,1.24-6.92.33-9.24l1.66.69a59,59,0,0,0-7.89-17.39c-5.51-7.79-20-24.55-20-24.55s9.63,4,22.22,23.68a37.67,37.67,0,0,1,4.9,6.26,78.83,78.83,0,0,1,4.3,9.33c1.82,4.3,2.12,5.28,2.27,6.6a15.51,15.51,0,0,1-.8,6.76,9.2,9.2,0,0,0-3.42-5,16.14,16.14,0,0,1,.8,3.71,19.71,19.71,0,0,1-.3,5.05,33.48,33.48,0,0,1-1,4.57,5,5,0,0,0-.4-3.22,4.86,4.86,0,0,0-1.23-1.52,17.67,17.67,0,0,1-.74,4.18,18.26,18.26,0,0,1-4.41,7.38c-.27-.72-.3-1-.25-1.08l.08-.2h0L101,90.36l-2.26,4.43Z"/>
        <path d="M39,51.11a7.24,7.24,0,0,1,2.45-2.91A7,7,0,0,1,49,47.79a9.61,9.61,0,0,1,1.57,1.1,12.93,12.93,0,0,1,1.26,1.42c-.6-.23-1.13-.53-1.67-.78l-.83-.33a4.7,4.7,0,0,0-.82-.29,8.83,8.83,0,0,0-3.27-.47A11.57,11.57,0,0,0,39,51.11Z"/>
        <path d="M77.75,51.19a6.67,6.67,0,0,1,3-2.5,7.68,7.68,0,0,1,4-.66,8.51,8.51,0,0,1,3.76,1.35A10.68,10.68,0,0,1,90,50.62a11.48,11.48,0,0,1,1.17,1.53c-.63-.22-1.17-.51-1.72-.76s-1.09-.49-1.65-.67a13.8,13.8,0,0,0-3.26-.78,10.94,10.94,0,0,0-3.32.17A17.42,17.42,0,0,0,77.75,51.19Z"/>
        <path class="b670d608-ad12-4b63-9a9f-6e8ca2b14137" d="M73.81,67.68a22.35,22.35,0,0,1,2.27-7.94,14.35,14.35,0,0,1,2.56-3.54,7.85,7.85,0,0,1,4.22-2.31A6.69,6.69,0,0,1,87.73,55a10.53,10.53,0,0,1,3,3.38,15.19,15.19,0,0,1,1.89,8.12,29.5,29.5,0,0,0-3.91-6.73,9.77,9.77,0,0,0-2.59-2.27A4.1,4.1,0,0,0,83.37,57c-1.87.29-3.71,2.1-5.22,4.08S75.28,65.36,73.81,67.68Z"/>
        <path class="b670d608-ad12-4b63-9a9f-6e8ca2b14137" d="M37.48,63.31a12.07,12.07,0,0,1,1.73-7.16,8.27,8.27,0,0,1,2.95-2.83,7.07,7.07,0,0,1,4.24-.83,8.11,8.11,0,0,1,3.89,1.59,10.12,10.12,0,0,1,2.64,3,11.71,11.71,0,0,1,1.56,7.19A22.36,22.36,0,0,0,51,58.47,8.2,8.2,0,0,0,46,55.58a5.77,5.77,0,0,0-4.9,2.06A23.87,23.87,0,0,0,37.48,63.31Z"/>
        <path class="a74f2108-2765-4e44-bfe8-796cf57479f6" d="M26.77,12.55c.66,2,1.3,4.17,1.85,6.57.39,1.72.69,3.36.92,4.91h0q-.15,4.54-.31,9.11l-.33,9a70.69,70.69,0,0,1,8.56-7.27,71.9,71.9,0,0,1,6.13-4c-.54-.85-1.32-2-2.29-3.35a60,60,0,0,0-5.22-6.42c-1-1-2.39-2.31-5.22-4.89C29.17,14.69,27.76,13.43,26.77,12.55Z"/>
        <path class="e82fbfba-0899-4aab-9a34-370d0bc1bcc7" d="M88.39,35.42s6.3-12.37,16.16-17.15c.63,3.87,5,23.27-3.44,32.78C99.46,49.59,89.27,35.37,88.39,35.42Z"/>
        <path id="beb1546b-ee9e-4665-857b-56fe1906ce27" data-name="f" class="a74f2108-2765-4e44-bfe8-796cf57479f6" d="M104.55,18.46c.72.61-3.25,4.8-5.18,10.4-1.87,5.42-2,12.6,2.16,22.17-2.18-2.45-4.41-5.06-6.65-7.81S90.7,38,88.81,35.4A49.94,49.94,0,0,1,96.25,25C99.47,21.53,103.84,17.85,104.55,18.46Z"/>
      </g>
      <path class="a53a2623-9f95-4b64-a473-0a16e6f83a0a" d="M71.18,210.84C70,210.31,63,207,61.29,200c-.88-3.58,0-6.49,1.62-12,.51-1.74,1.84-6.2,3.33-6.14.54,0,.91.64,1.11.94,1,1.53,2.83,3.62,6.65,6.07a74.13,74.13,0,0,1-.62,11.42A74.16,74.16,0,0,1,71.18,210.84Z"/>
      <path class="f66b4ee2-d203-4a82-8ae2-e218bc1c36ad" d="M46.36,232.77a18.27,18.27,0,0,1-.08-3.22,12.57,12.57,0,0,1,.57-3.16,5.21,5.21,0,0,1,1.74-2.66,4.63,4.63,0,0,1,3-.77,4.56,4.56,0,0,0-3,.88,5.07,5.07,0,0,0-1.56,2.64,15.41,15.41,0,0,0-.19,6.2Z"/>
      <path class="a0204c31-794d-49b9-b6bb-8af214cf6dd8" d="M103.59,158.59c-.06-2.67-1.42-11-1.42-11l-.84-2.46L99.56,162l-1.14-.53L97,176.06,94.7,175l-.79,11.08-1.41-.86s-4,28.72-8.58,36.52c-1.42,7.1-4.61,11.83-6.75,12.44a10.58,10.58,0,0,1-2.52.37,9.23,9.23,0,0,1-3.07-.48,16.76,16.76,0,0,1,.13,2c0,.34.41.86.19,1.29-.06.11-.15.21-.12.33s.36.25.63.28a9.36,9.36,0,0,0,1.61.51,10.44,10.44,0,0,0,3.85,0c2.27-.49,3.69-3.26,4.9-6a93.84,93.84,0,0,0,4.73-13.62c.7-2.44,1.77-6,3.3-10.35,0,0,3.21-12.85,3.11-14.42s0-5.26,0-5.26l2,4.45,1.38-13.75L99,184.24l1.77-16.18,1.58,3.84S103.65,161.26,103.59,158.59Z"/>
      <path class="ba213a16-4679-4c16-9e25-e919dacc43b1" d="M107.72,214.17c.24,0,8.14-.43,13.82.8"/>
      <path class="ba213a16-4679-4c16-9e25-e919dacc43b1" d="M54,107.7c-.31-.1-5.17-5.22-5.39-6"/>
      <path class="ad769a7c-8bb0-4bfb-9172-1ad84d83be5f" d="M102.28,146.93a62.77,62.77,0,0,1,1.12,7.24,60.85,60.85,0,0,1,0,11.9c-.36,3.69-.86,6.47-.86,6.47L101,168.79l-1.77,15.77L97.4,180,96,193.43s-2-4.86-2-4.34c.22,2.93-.75,5.85-.72,8.8,0,2.43-1.91,10.08-9,30.15,0,0-2.88,10.75-6.81,10.62"/>
      <path class="bb5b88d7-7b82-46b7-87b3-32523b994842" d="M77.65,148.49h0c-1.65,3.51-2.93,6.25-3,6.4-3.38,7.44-1.7,18.27-1.28,23.25a133.69,133.69,0,0,1,.33,18.59,75.49,75.49,0,0,1-5.74,24,9.82,9.82,0,0,0-6.15,3.14,9.58,9.58,0,0,0-1.76,3.2,10.57,10.57,0,0,0-.42,5.07"/>
      <path d="M100.86,119.37l-1.6-2.44.64-.25a58.22,58.22,0,0,1,.55,6.46,31.85,31.85,0,0,1-.07,3.24,11.21,11.21,0,0,1-.63,3.22l-.12.31-.25-.26-2.82-2.87.29-.12a33,33,0,0,1-.62,4,25.74,25.74,0,0,1-1.13,3.85,15.07,15.07,0,0,1-1.85,3.56,8.22,8.22,0,0,1-3,2.63A8.25,8.25,0,0,0,93.18,138a14.83,14.83,0,0,0,1.76-3.57,26.64,26.64,0,0,0,1-3.85,30.84,30.84,0,0,0,.54-3.94l0-.38.27.27,2.93,2.86-.38.05a10.65,10.65,0,0,0,.53-3.09,30.86,30.86,0,0,0,0-3.19,59,59,0,0,0-.67-6.37L99,115.24l.89,1.29,1.66,2.4Z"/>
      <path class="f2e20aec-82d1-428a-a2b9-57467301b27d" d="M168.26,222.54l14.3,1.87-.75-4.29s-3.88-3.4-19.72-2.06l2.39,1.8s-18.07-.77-19.71-1.06.29,1.32.29,1.32l-8.51-4.89s3.58-7.32,4.18-13.15a97.93,97.93,0,0,0,.15-13.15c0-1-1.64-13.74-5.68-19.42s-15.12-22-15.12-22l-13-19.57-7.44-11.72a15.47,15.47,0,0,0-1.32-3.18,29.78,29.78,0,0,0-2.2-3.24c-.41-.57-.76-1-1-1.35-.54-.71-.9-1.26-1.68-2.35-1.41-2-1.51-2.11-1.77-2.18-.79-.19-1.37.51-2.92,1.43a15.91,15.91,0,0,1-3.13,1.43,9.13,9.13,0,0,1,5.36,5.1,33.52,33.52,0,0,1,.81,3.81,12,12,0,0,0,.56,2.81,8,8,0,0,0,1.37,2.36L93.68,119l.25,6.13s14.09,16,17.82,22.11c6.72,7.46,17.78,23.3,19.72,29.13s7.92,15.68,0,34.2c-3.88,8.22-8.07,13.73-19.27,11.95-.9,1.05-5.21,7.89-15.53,4.69-.6.69-5.38,2.37-6.58-2.43a6.26,6.26,0,0,1-2.54-.57,6.6,6.6,0,0,1-1.29-.79,2.2,2.2,0,0,0-.82,1.58s0,0,0,.5c.1,1.07.09,1.09.11,1.2a2.53,2.53,0,0,0,.81,1.65,5.87,5.87,0,0,0,2,.77,1.36,1.36,0,0,1,.65.34c.29.28.28.66.38.81a3.88,3.88,0,0,0,2.71,1.45,5.83,5.83,0,0,0,3.7-.65,21,21,0,0,0,5.29.68,12.2,12.2,0,0,0,4.1-.5,10.2,10.2,0,0,0,4.58-3.23c1.16.16,2.84.34,4.87.42a42.11,42.11,0,0,0,10.82-.8,34.67,34.67,0,0,0,5.09-1.81c1.76-.7,2.88-1.24,2.94-2s-.87-1.06-.87-1.9.9-1.56,1.74-2a19.31,19.31,0,0,0,3.86,2.35c1.18.53,3.74,1.54,12.51,2,1.38.06,3.15.13,5.23.15l-4.95-1.8L171,224Z"/>
      <polygon class="e940c8ed-5c3b-4d58-92e4-a52b4f1f607b" points="88.5 109.18 82.79 109.85 81.82 110.39 88.78 109.5 88.5 109.18"/>
      <path class="a0204c31-794d-49b9-b6bb-8af214cf6dd8" d="M60.09,228.91a10.38,10.38,0,0,0-.43,2.53,5.2,5.2,0,0,0,.28,2.65,3.94,3.94,0,0,0,2.88,2.2,3.46,3.46,0,0,0,2-.38,11.79,11.79,0,0,0,1.33,1,7.19,7.19,0,0,0,2.67,1.22,4.87,4.87,0,0,0,4-1c-.08-.83-.17-1.66-.25-2.49A35.71,35.71,0,0,1,69,233.9a29.07,29.07,0,0,1-4.08-1.38A14.63,14.63,0,0,1,60.09,228.91Z"/>
      <path class="b35207b2-79a2-4820-80b9-c720a7e41408" d="M38.51,231.42a14.61,14.61,0,0,1,1.67-6.83,6.41,6.41,0,0,1,2.46-2.52,5.84,5.84,0,0,1,3.41-.61,5.7,5.7,0,0,0-3.34.74,6.1,6.1,0,0,0-2.27,2.53,14.14,14.14,0,0,0-1.34,6.69Z"/>
      <path class="f2e20aec-82d1-428a-a2b9-57467301b27d" d="M63,162.36a18.22,18.22,0,0,1,3.26,12.47l-2.92-4.06c.28.92.65,2.22,1,3.79a35.36,35.36,0,0,1,.83,3.72,32.53,32.53,0,0,1,.15,4.65c0,1.22,0,2.89-.15,4.9l-2.68-5.62q.72,5,1.6,10.08.34,2,.69,3.87l-2.64-4.73c.22,1.59.43,3.2.64,4.81q.45,3.38.85,6.7L62,199.78c-.85,11.93-1.7,20.69-2,22.95a25.55,25.55,0,0,1-1,4c-.31.89-.64,1.61-.79,2a11.63,11.63,0,0,1-.79,1.51,10.54,10.54,0,0,1-1,1.24c-.41.46-.78.83-1.06,1.09l-.79.25a11.89,11.89,0,0,1-4.61.77,6.79,6.79,0,0,1-1.76-.37,6.48,6.48,0,0,1-1.3-.65l.95-3s8.77.59,9.28-4.58,1.51-28.09,1.51-28.09v-3.18l2.26,2.59-.57-9.27,1.79.8-1.22-9.66,1.72-.9L61,164.93l2.59,2.39Z"/>
      <path class="b9f34043-f440-4fed-87a6-02efba56b492" d="M109.74,133.06l4.2,7.18s-2.15-.69-6.22,3.32-2.66,3.67-2.66,3.67A14.68,14.68,0,0,1,109.74,133.06Z"/>
      <path class="b9f34043-f440-4fed-87a6-02efba56b492" d="M121.54,150s-5,.5-6.91,6.36-2,9.2-4.89,12.12-4.68,8.58-4.68,8.58,6.69-7.53,10.61-8.58,14-6.22,14-6.22Z"/>
      <path class="b9f34043-f440-4fed-87a6-02efba56b492" d="M140.7,188.53c-.63-.2-19.37-5.52-26.07-4.8C121.26,189,125.86,192.09,130,195S140.7,198,140.7,198Z"/>
      <path class="b9f34043-f440-4fed-87a6-02efba56b492" d="M141.74,205.67a9,9,0,0,1,5.23,7.06l1.25-8-7.05-1.84Z"/>
      <path class="b9f34043-f440-4fed-87a6-02efba56b492" d="M153.48,204.79l4.17-.77s.34,7.57,2,10.73A15.37,15.37,0,0,1,153.48,204.79Z"/>
      <path class="b9f34043-f440-4fed-87a6-02efba56b492" d="M169.3,201s8.17-1.47,9-1.69-3.44,6.55-3.6,8.88,1.07,7.88,0,9.26c0,0-1.32-4.45-2.9-5.55s-1.79-4.86-2.12-7.88Z"/>
      <path class="b9f34043-f440-4fed-87a6-02efba56b492" d="M136.52,214.08c-.91-3.07-6.61-3.79-10-4.19-2.58-.3-5.47.47-5.59.15,0-.06,0-.13.08-.15.39-.3,3.11,2.2,11.63,12a10.6,10.6,0,0,0,2.31-2.52C135.58,218.41,137.1,216.06,136.52,214.08Z"/>
      <path class="b9f34043-f440-4fed-87a6-02efba56b492" d="M94,191.72s-8.55,2.15-12,2.63a52.51,52.51,0,0,0-6.06,1.2s6.53.6,11.53,1.2a35.9,35.9,0,0,1,5.73,1.49h0Z"/>
      <path class="b9f34043-f440-4fed-87a6-02efba56b492" d="M73.65,180.74s5.82,2.8,9.07,3.1a3.89,3.89,0,0,0,1.21-.05c2.69-.61-7.69,4.16-9.28,4Z"/>
      <path class="b9f34043-f440-4fed-87a6-02efba56b492" d="M74.1,156.83s.37.36,6,2.07l11.61,3.54s-5.38,1.55-8.8,1.27-4-.45-5.5,0l-4.89,1.52S72.39,158.05,74.1,156.83Z"/>
      <path class="bc511161-ee93-4f43-9423-19dba1c4bdee" d="M35.08,109.18s2.66.2,4.85,3.37c2.21,2.9,3.72,4.87,5.78,5.51a2.75,2.75,0,0,0,.41.11c-3.06-.17-.14,0-.14,0s-1.74,1.36-6.2-2.13c-2.59-1.89-5.17-3.23-5.8-3.24S34.38,109.65,35.08,109.18Z"/>
      <path class="bc511161-ee93-4f43-9423-19dba1c4bdee" d="M31.52,131.93s2.13.71,8.23,2.84,7.52,1,7.52,1l-14,5.56c-.38-1.43-.74-3-1-4.62S31.69,133.43,31.52,131.93Z"/>
      <path class="b9f34043-f440-4fed-87a6-02efba56b492" d="M37.75,160.87s4.53,1,11.33,6.36c7.58,4.76,8.6,5.78,8.6,5.78s-.79-1.7-7.25-1.7-9.62.95-10.52-.94S37.75,160.87,37.75,160.87Z"/>
      <path class="b9f34043-f440-4fed-87a6-02efba56b492" d="M44.12,195s2.72-.81,7.7,3.9,5.77,5,5.77,5S46.27,200,44.12,202.3Z"/>
      <path class="b9f34043-f440-4fed-87a6-02efba56b492" d="M111.58,69.07a35.56,35.56,0,0,0-6.21,2.58,36.32,36.32,0,0,0-9.2,7A52.43,52.43,0,0,1,107.65,77a53.93,53.93,0,0,1,6.51.19Z"/>
      <path class="f66b4ee2-d203-4a82-8ae2-e218bc1c36ad" d="M88.28,229.47a8.41,8.41,0,0,1,1.38-6,8.1,8.1,0,0,1,5-3.38,8,8,0,0,0-5.85,9.3Z"/>
      <path class="bc511161-ee93-4f43-9423-19dba1c4bdee" d="M81.59,31.27S79.83,36,77.25,42.1l-2.59,6.09s6.92-6.93,10.49-9.47l3.56-2.54S83.79,31.61,81.59,31.27Z"/>
      <path class="bc511161-ee93-4f43-9423-19dba1c4bdee" d="M62.62,27.37A38.75,38.75,0,0,1,77.74,28.9a78.27,78.27,0,0,1-3.21,12.88,78.55,78.55,0,0,1-6.2,13.69A43.06,43.06,0,0,0,69,44.64a31.42,31.42,0,0,0-4.15-14A29.35,29.35,0,0,0,62.62,27.37Z"/>
      <path class="bc511161-ee93-4f43-9423-19dba1c4bdee" d="M47.54,29.49a18.13,18.13,0,0,1,3.16-1.35,18.67,18.67,0,0,1,4.14-.81c1.69,3.38,2.2,10,2.87,12.35a28.53,28.53,0,0,1,.81,5.57c-1.73-2.08-3.52-4.38-5.3-6.89C51,35.28,49.15,32.3,47.54,29.49Z"/>
      <path class="bc511161-ee93-4f43-9423-19dba1c4bdee" d="M13.31,63.55a26.24,26.24,0,0,1,14.92,7.23,42,42,0,0,0-17.38,0Z"/>
      <path class="b5408583-9ae6-43ad-829c-463c3585ee68" d="M184.21,199.79a15.08,15.08,0,0,1,5,.51c2.82.79,5.81,2.54,5.59,3.33-.11.4-1.14.72-5.3.28l-.23,1.16a1.25,1.25,0,0,1,.18-.91c.28-.36.86-.49,3.29-.17,1.08.14,1.62.21,2.31.36a25.9,25.9,0,0,1,4.31,1.39,27.75,27.75,0,0,1,6.34,3.94c3.06,2.51,5.73,5.69,5.46,6,0,.06-.22,0-.36-.06-.65-.12-1.36-.21-2.13-.28a24.93,24.93,0,0,0-2.81-.07,10.71,10.71,0,0,1,5.23,3A10.9,10.9,0,0,1,214,225a14.59,14.59,0,0,1-5.33,1.13,20.68,20.68,0,0,1-3.56-.34c-1.82-.25-4.44-.57-7.7-.87l4.61,3.24c-2.59-.44-4.73-.93-6.31-1.33A28.93,28.93,0,0,1,190,225a19.52,19.52,0,0,1-3.86-2.55c.39,1,.79,2,1.18,3L182.69,224a23.11,23.11,0,0,1-2.41-7.44A25,25,0,0,1,184.21,199.79Z"/>
      <path class="e940c8ed-5c3b-4d58-92e4-a52b4f1f607b" d="M180.57,218.41c.09.6.2,1.24.36,1.91a22.49,22.49,0,0,0,1.42,4.21l5.29,1.11-1.47-3.48a19.94,19.94,0,0,0,4.25,3,25.13,25.13,0,0,0,6.27,2.16,45.29,45.29,0,0,0,5.3.93q-2.3-1.73-4.61-3.43s10.13,3.16,17.56,0c-.12-.39-2.8-3-8.44-4S194.71,219,194.71,219l-.26,3.38-7.8-2.77-1.13-3.12h-5.31Z"/>
      <g>
        <path d="M57.1,85.23a8.92,8.92,0,0,0-2.53.33,10.93,10.93,0,0,0-2.37.9,14.55,14.55,0,0,0-4,3.05,23.49,23.49,0,0,0-3.09,4c-.42.74-.86,1.48-1.26,2.23s-.75,1.55-1.16,2.32c.27-.82.58-1.63.86-2.45s.74-1.57,1.12-2.36a21.1,21.1,0,0,1,3.06-4.23A13.89,13.89,0,0,1,52,86,9.25,9.25,0,0,1,57.1,85.23Z"/>
        <path d="M54.73,82a20.35,20.35,0,0,0-3.49,1c-1.15.38-2.27.83-3.37,1.32a39.51,39.51,0,0,0-6.31,3.48A32.43,32.43,0,0,0,36,92.31l-1.25,1.31L33.65,95c-.19.24-.39.46-.58.7l-.51.76c-.33.5-.68,1-1,1.5a25.72,25.72,0,0,1,4.06-6.08,28.94,28.94,0,0,1,5.54-4.82,35.33,35.33,0,0,1,6.51-3.39A25,25,0,0,1,54.73,82Z"/>
        <path d="M51.64,80a22.84,22.84,0,0,0-3-.3,29,29,0,0,0-3,0,26.23,26.23,0,0,0-5.79,1,27.42,27.42,0,0,0-2.77,1A25.61,25.61,0,0,0,34.56,83a27.78,27.78,0,0,0-4.73,3.54c.32-.38.65-.75,1-1.12a9.63,9.63,0,0,1,1-1.08l1.15-1c.38-.33.82-.58,1.23-.87A19,19,0,0,1,36.88,81a24.23,24.23,0,0,1,2.85-1,21.29,21.29,0,0,1,6-.8A20.1,20.1,0,0,1,51.64,80Z"/>
        <path d="M79.4,87.81A13.88,13.88,0,0,1,84,90.42a22.14,22.14,0,0,1,3.59,3.9,24.63,24.63,0,0,1,1.38,2.25A21,21,0,0,1,90.11,99c.36.8.62,1.65.92,2.47s.47,1.69.67,2.54c-.35-.81-.63-1.63-1-2.43s-.67-1.61-1.08-2.37A30.18,30.18,0,0,0,87,94.7a24.65,24.65,0,0,0-3.38-3.9A17.56,17.56,0,0,0,79.4,87.81Z"/>
        <path d="M84.09,87.81A17.28,17.28,0,0,1,90,89.57a19.5,19.5,0,0,1,5,3.59,11.46,11.46,0,0,1,1,1.15,10.36,10.36,0,0,1,1,1.21l.88,1.28c.28.44.51.9.75,1.36A24.44,24.44,0,0,1,99.92,101c.33,1,.56,2,.81,3-.4-.95-.68-1.93-1.11-2.85a23.71,23.71,0,0,0-1.37-2.71,20.89,20.89,0,0,0-3.68-4.77A20.33,20.33,0,0,0,89.75,90,22.27,22.27,0,0,0,84.09,87.81Z"/>
        <path class="b873a46e-3577-4cb7-83dc-b8a695a49c22" d="M84.3,83.39c.28.15,12.66-2.92,21.7,10.14"/>
      </g>
      <path class="f2e20aec-82d1-428a-a2b9-57467301b27d" d="M49.33,109.47l.09,1.67c-2.09-.43-3.78-.87-5-1.21a22.88,22.88,0,0,1-2.65-1,6.52,6.52,0,0,1-2.1-1.24,7.23,7.23,0,0,1-.86-1l-.46-1.14a41.07,41.07,0,0,0,11,3.84Z"/>
      <path class="bb5b88d7-7b82-46b7-87b3-32523b994842" d="M140.83,202.58s6.94,3.74,19.44.58,27.18-6.83,35,.44l-2.58.39s11.15.8,19,12.46l-5.88-1.2s6.42.73,9.08,9.57c0,0-8.79,4.54-17.56,0l5.28,3.43s-11.38.12-16.2-5.39l1.41,3.29s-15.63-4.59-19.61-3.61l3.9,1.67s-19.32-1.19-20.37-1.62,4.18,1.75,4.18,1.75-15.69.86-21.77-4.11"/>
      <path class="b3b43a7d-1c03-4a82-9b7b-4a094da6f5d6" d="M34.91,225.83s-.89,4.68,3.53,5.85c1.55,1.39,3.62,3.18,8.26.71,0,0,4,3.2,9.61-.59,1.12-1.37,3.74-5.94,4-9.67.34-3,1.09-12.13,1.09-12.13L62,199.78l1.5,3-1.37-11.15L65,196.81l-2.18-13.88,2.37,4.9s.38-8.63,0-10.39-1.62-6.32-1.62-6.32L66.21,175a25.11,25.11,0,0,0,0-4.29,55.09,55.09,0,0,0-1.57-5.89c-.38-.83-1.88-3.77-1.88-3.77"/>
      <path class="bb5b88d7-7b82-46b7-87b3-32523b994842" d="M62.22,201.72a18.61,18.61,0,0,0,9,9.12"/>
      <path class="a19af4c9-b69c-4b71-a1f4-ba001ae81a98" d="M119.15,228.57c-1.56.07-3.14.21-4.73.22a15.87,15.87,0,0,1-4.74-.57l.22-.06A12.31,12.31,0,0,1,103,232a11.67,11.67,0,0,1-7.74-1.23h0v0a4.86,4.86,0,0,1-.15-4,4.59,4.59,0,0,1,2.85-2.68h0a10,10,0,0,1,1.23-.44,2.27,2.27,0,0,0,1.1-.66,2.38,2.38,0,0,1-1.1.68,8.38,8.38,0,0,0-1.21.46h0a4.59,4.59,0,0,0-2.77,2.68,4.72,4.72,0,0,0,.22,3.84l0,0a11.45,11.45,0,0,0,7.6,1.08,11.83,11.83,0,0,0,6.66-3.78l.08-.1.14,0a15.53,15.53,0,0,0,4.61.48c1.57,0,3.13-.21,4.71-.31Z"/>
      <path class="ac514d9c-a7a1-41b9-becb-c4b0cc5ae441" d="M91.7,104c1,1.81,2.7,2.69,3.58,4,2.63,4,3.94,7.45,6.13,11.39,11.39,17.53,22.79,32.87,33.74,50.39,6.57,10.08,6.57,21.47,5.26,32.86a32.44,32.44,0,0,1-7.12,18.61"/>
      <path class="f2e20aec-82d1-428a-a2b9-57467301b27d" d="M87.05,107.88l1.32.51a21,21,0,0,0,5.1-1.2c-.17-.65-.21-.82-.21-.82l-2.51-.23S87.52,107.75,87.05,107.88Z"/>
      <path class="b9f34043-f440-4fed-87a6-02efba56b492" d="M100.7,118.4a88.81,88.81,0,0,0-9.19,3.8C88.46,123.83,88,125,88,125s1.67-.17,3.86-.25c3.21-.13,3.72.23,7,.2,2.94,0,6.08-.32,6.08-.32h0Q102.8,121.53,100.7,118.4Z"/>
      <path class="f66b4ee2-d203-4a82-8ae2-e218bc1c36ad" d="M83.19,231.81a12.28,12.28,0,0,1-1.42,3.68A7.59,7.59,0,0,1,79,238.3a6.33,6.33,0,0,1-3.86.72,9.83,9.83,0,0,1-1.92-.42c-.3-.11-.62-.21-.91-.34l-.45-.19-.22-.1c-.22-.13-.15-.25-.19-.32a13.65,13.65,0,0,1,.29-3.89,12.46,12.46,0,0,1,1.34-3.64,6.65,6.65,0,0,1,6.44-3.53,7.09,7.09,0,0,0-3.7.86,7,7,0,0,0-2.6,2.75A11.83,11.83,0,0,0,72,233.8a13.12,13.12,0,0,0-.22,3.79c0,.07.06.17,0,.09l.22.09.44.18c.29.13.6.21.9.32a9.78,9.78,0,0,0,1.85.37,5.91,5.91,0,0,0,3.6-.73c2.15-1.28,3.32-3.79,3.82-6.2Z"/>
      <path class="fac6d0c8-60d8-4a93-93cf-65315a90b9f3" d="M77.87,238.49a9.56,9.56,0,0,1-5.71-.66"/>
      <path class="a19af4c9-b69c-4b71-a1f4-ba001ae81a98" d="M60.13,229.82a10.07,10.07,0,0,0-.18,3.1,3.58,3.58,0,0,0,1.28,2.61,3.88,3.88,0,0,0,2.93.38l.39-.09.09,0s.09-.06,0,0,0-.07,0-.12c0-.25.05-.52.07-.79,0-.53.1-1.07.17-1.6a13.14,13.14,0,0,1,2.1-6.06,6.11,6.11,0,0,1,2.49-2,7.07,7.07,0,0,1,3.15-.52,7.09,7.09,0,0,0-3.12.59,6,6,0,0,0-2.39,2,12.79,12.79,0,0,0-1.91,6c-.06.53-.1,1.06-.13,1.59,0,.27,0,.54,0,.82A.9.9,0,0,1,65,236l0,0s0,.05-.07.06l-.07,0h-.05l-.1,0-.4.09a4.23,4.23,0,0,1-3.27-.38A4,4,0,0,1,59.43,233a10.7,10.7,0,0,1,.13-3.29Z"/>
      <path class="fe793f3d-d63b-4219-b540-0c0aee327b12" d="M64.63,236.09a10,10,0,0,0,7.53,1.78"/>
      <path class="b687159b-5368-46f7-9732-da6f79b0cb7a" d="M114.63,198s7.68,14.4,15.06,20.61c5.23,5.73,6.76,6.79-6.57,9.61-11.9.9-13.56-.19-13.56-.19"/>
      <path class="a0b3db98-a405-44fd-9a93-2562a2b923b7" d="M111.15,213.71a18.4,18.4,0,0,1-6.31-14.33l-1.16,1.68-.75,2.52-.42-2.24c-.84-4.21,1.08-9.71,1.08-9.71l-3.34,2.58a12.7,12.7,0,0,1,.58-3.87,14.23,14.23,0,0,1,6.17-7.67l-4.07,1.69,1.41-1.69a16.17,16.17,0,0,1,5.27-4.48,12.33,12.33,0,0,1,4-1.16,11.85,11.85,0,0,1,8,.05"/>
      <path class="e047d1e2-83b6-4ec0-84d0-cbf19f63ab46" d="M70.5,213.53s-10.55,2.69-9.62,6.54c.88,2.68,1.18,2.21,4.13,1.45l2.95-.75Z"/>
      <path class="e047d1e2-83b6-4ec0-84d0-cbf19f63ab46" d="M89.81,211.93s6.71-3.28,8.66-.78a4,4,0,0,1,.58,4.57L92.58,219l-3.42,1.54-2.23-.29Z"/>
      <path class="f8a32b0c-6ce9-4308-b82d-31134439d550" d="M91.86,205.36l0,0a13.4,13.4,0,0,0,5.69,5.08,13,13,0,0,0,10.14-.28l3,3.32s-6.9.31-11.43,2.34-10.74,4.84-10.74,4.84a7.13,7.13,0,0,0-2.6,3,7.23,7.23,0,0,0-.6,2.9"/>
      <line class="a0b3db98-a405-44fd-9a93-2562a2b923b7" x1="90.36" y1="209.82" x2="94.76" y2="208.72"/>
    </g>
  </g>
</svg>
