<svg xmlns="http://www.w3.org/2000/svg" width="165.76" height="202.06" viewBox="0 0 165.76 202.06">
  <defs>
    <style>
      .f009cab2-21c3-42e6-b87c-77cc5f2e80b3 {
        isolation: isolate;
      }

      .ac900315-0047-4b62-8b92-df0b014050e7, .ad23c677-dae6-4cb4-b1f6-45db4b27993a, .b8486b23-2846-4e59-9809-f855385c0300, .e997b38b-8744-4b53-bdd0-f261fe4a0766, .f3a67124-fb36-41fb-94c2-f00fc2388d29 {
        opacity: 0.5;
      }

      .ee97861b-264c-4a22-a76f-c9b71e0fa6f4 {
        fill: #fff;
      }

      .eafafc0c-0707-4117-9621-39109ff1cd2b {
        fill: #ffa836;
      }

      .ad70e536-b1fd-4bfd-b60e-6e6f493dd151 {
        fill: #ffe783;
      }

      .bdbcb5da-478b-4c87-8e42-a0fc7278ff4a, .f4616b13-8c29-4a1c-878d-c16f98b2bd7a {
        fill: #d9a436;
      }

      .f4616b13-8c29-4a1c-878d-c16f98b2bd7a {
        opacity: 0.8;
      }

      .a410bae5-68df-4799-ad43-632f37af28db, .a5bad2d3-ce6f-4c34-9933-ec600e4a6a80, .ac900315-0047-4b62-8b92-df0b014050e7, .b373798b-1f5b-46c2-a6d4-c8a25d79dca9, .b3df133a-2f99-4570-b6bd-e0398050fef1, .b8486b23-2846-4e59-9809-f855385c0300, .ba684b96-eda8-425f-b6b8-c8e0b43aa474, .bdbcb5da-478b-4c87-8e42-a0fc7278ff4a, .bde2e2e1-0f1e-4032-aa54-234488967f46, .e997b38b-8744-4b53-bdd0-f261fe4a0766, .f3a67124-fb36-41fb-94c2-f00fc2388d29, .f4616b13-8c29-4a1c-878d-c16f98b2bd7a, .f8d21996-3b3b-41b7-b0d1-ff3ab1a1a798 {
        mix-blend-mode: multiply;
      }

      .bc7ee245-31e4-42cd-94e0-a78413bf7fed, .f3a67124-fb36-41fb-94c2-f00fc2388d29 {
        fill: #7a270b;
      }

      .b072d433-2e49-4695-9564-2f8ba1d8f76f {
        fill: #33302f;
      }

      .bde2e2e1-0f1e-4032-aa54-234488967f46 {
        fill: #3e402f;
      }

      .e9c8bdc0-504f-41b1-9236-5719cfd8f544 {
        fill: #6d6d6d;
      }

      .a5a11ac2-806f-4c01-8723-ef8cc9a6cb09, .b8486b23-2846-4e59-9809-f855385c0300 {
        fill: #964625;
      }

      .ecbf0a0e-7d4c-46fa-b59d-90219d36ae2a {
        fill: #e9e2dc;
      }

      .a9307bc2-7c7a-4cd2-88c2-9b383c3d2a20, .aaf391bf-d641-4ba6-84bb-4c323fb3e6e2, .b373798b-1f5b-46c2-a6d4-c8a25d79dca9, .bc69c151-c510-4fe6-8e1e-72342452d8e3, .e997b38b-8744-4b53-bdd0-f261fe4a0766 {
        fill: #bba29e;
      }

      .b373798b-1f5b-46c2-a6d4-c8a25d79dca9, .f8d21996-3b3b-41b7-b0d1-ff3ab1a1a798 {
        opacity: 0.7;
      }

      .a5bad2d3-ce6f-4c34-9933-ec600e4a6a80 {
        fill: #e4a685;
      }

      .bb5518ed-1f5a-43cd-b3f5-b55bd423f907 {
        fill: #fff8f3;
      }

      .ad45d0e2-07cc-499d-be87-4aa16d664e27 {
        fill: #92860c;
      }

      .b3df133a-2f99-4570-b6bd-e0398050fef1 {
        opacity: 0.79;
      }

      .b05569f6-5dce-4ccd-84c2-7aefdf5d9e31 {
        fill: #a6a60d;
      }

      .a410bae5-68df-4799-ad43-632f37af28db, .bc69c151-c510-4fe6-8e1e-72342452d8e3, .bdbcb5da-478b-4c87-8e42-a0fc7278ff4a {
        opacity: 0.6;
      }

      .af83d579-5ec0-4f45-afa1-604790666435 {
        fill: #030a07;
      }

      .b1d6499a-ad23-49c0-ba87-3eb3b155e606 {
        mix-blend-mode: screen;
      }

      .f8a96d60-9f7e-4a8d-b799-a0260ec89f93 {
        fill: #e0910e;
      }

      .b090f37f-ca57-4adf-bc50-6ab1dbdf2bb1 {
        fill: #301609;
      }

      .ab5afe74-4ab7-4f83-919c-3eaaf20b0bac {
        fill: #dbd2c6;
      }

      .bdf3ff97-1a27-4cd1-98af-43900748e342, .f8d21996-3b3b-41b7-b0d1-ff3ab1a1a798 {
        fill: #72442c;
      }

      .a9307bc2-7c7a-4cd2-88c2-9b383c3d2a20 {
        opacity: 0.4;
      }

      .aaf391bf-d641-4ba6-84bb-4c323fb3e6e2 {
        opacity: 0.2;
      }

      .a7ba5963-1e9b-4a55-aeb5-dbc1f550687d {
        fill: #d37959;
      }
    </style>
  </defs>
  <g class="f009cab2-21c3-42e6-b87c-77cc5f2e80b3">
    <g id="b733bfb3-76fe-4525-9b9c-954f1079b9b8" data-name="Layer 1">
      <g>
        <path class="ad23c677-dae6-4cb4-b1f6-45db4b27993a" d="M95.61,198.46a8.16,8.16,0,0,1-6.18-2.88c-.22-.25-.44-.51-.65-.77a8.05,8.05,0,0,1-12.48-1.33,20.89,20.89,0,0,1-2.51-5.58,8,8,0,0,1-5.34-5.11,8.06,8.06,0,0,1-12.89,4.34c-.28-.22-.55-.46-.81-.71h0a11.45,11.45,0,0,1-1.44-1.75,8,8,0,0,1-7.39-5l-.07-.16a18.22,18.22,0,0,1-.74-2.39,7.12,7.12,0,0,1-1-.41,8.32,8.32,0,0,1-2.53-1.92,8.12,8.12,0,0,1-2-6.36c0-.14,0-.29.07-.43a16.83,16.83,0,0,1,10-12.52,12.49,12.49,0,0,1,3.39-1.78,16,16,0,0,1,5.13-.8q.52,0,1,0c0-.1-.07-.19-.1-.29-.17-.48-.34-1-.51-1.44l-1.08-.51a47.17,47.17,0,0,1-6.66-3.9,63.56,63.56,0,0,1-11-9.43,42.63,42.63,0,0,1-10.55-21.73c-.13-.22-.26-.45-.38-.68-1.81-3.7-2.39-8.19-1.79-13.8.3-2.86.81-5.57,1.3-8.19l0-.18q0-.33-.09-.63c-.11-.77-.18-1.63-.22-2.6,0-.17,0-.35,0-.53,0-.72,0-1.36,0-2,0-.19,0-.38,0-.57s0-.33.05-.49c.08-.89.2-1.7.34-2.46a30.33,30.33,0,0,1,1.63-5.45c-.39-4.67,1.8-8.35,2.93-10.25l.46-.76a20.18,20.18,0,0,0,1.93-3.7l-.67-.29c-.22-.1-.44-.21-.66-.29a21.41,21.41,0,0,0-4-.59c-1.44-.07-2.63-.11-3.73-.11-1.31,0-2.51,0-3.61.16l-.94,1A8.17,8.17,0,0,1,8,57.5c0-.65,0-1.26,0-1.87v-1a39.07,39.07,0,0,1,1.37-12c.18-.57.38-1.16.61-1.74l.12-.3c.16-.4.35-.84.56-1.3l.08-.17.15-.29A18.87,18.87,0,0,1,19.17,30a18.74,18.74,0,0,1,8.4-1.91,24.75,24.75,0,0,1,3.2.22c.52-1.48,1.11-2.81,1.66-4,.18-.38.35-.77.52-1.16h0a8.93,8.93,0,0,1,.59-1.1,8.16,8.16,0,0,1,2.87-2.82,21.2,21.2,0,0,1,11.94-6.84h.06A23.22,23.22,0,0,1,54,10.18a49.71,49.71,0,0,1,6-1.07L60.76,9a29.71,29.71,0,0,1,4.29-.38c.36,0,.7,0,1,0a6.28,6.28,0,0,1,.75,0,8.11,8.11,0,0,1,7.29,4.61,4.84,4.84,0,0,1,.21.47,10.17,10.17,0,0,1,2.1,1.66,8.15,8.15,0,0,1,1.93,3.33A32,32,0,0,1,82,22.59a44.54,44.54,0,0,1,6.68,12.16c1.06,2.93,1.8,5.81,2.52,8.6A73,73,0,0,0,93.41,51a13.31,13.31,0,0,0,2.81,4.66l.25.23.39.36.28.22.46.34,0,0a8.13,8.13,0,0,1,5.51,5.75,7.64,7.64,0,0,1,.24,1.63,24.74,24.74,0,0,1,1.72,1.8,2.37,2.37,0,0,1,.27.28,8.13,8.13,0,0,1,2.73,6l0,.08c.64,1.07,1.39,2.31,2.09,3.67l.44.35A50.44,50.44,0,0,1,121.6,89.44c2.64,4.3,5.89,9.59,7.21,15.68.35.6.67,1.17,1,1.73a75.28,75.28,0,0,1,4.69,10.56c.07.15.12.3.18.45.28.81.57,1.63.82,2.45a91.47,91.47,0,0,1,3.46,14.88l.3,2c.41,2.7.85,5.65,1.07,8.69.93.78,1.83,1.57,2.71,2.35l1.45,1.26a82.1,82.1,0,0,1,7.09,6.86c4.31,4.72,8.7,9.87,10.84,16.38a.42.42,0,0,1,0,.1,8.27,8.27,0,0,1-1,7.09,15.82,15.82,0,0,1,.19,1.86,8.22,8.22,0,0,1-8.23,8.58,8.4,8.4,0,0,1-1.51-.14,8.24,8.24,0,0,1-4.92,1.62c-.5,0-1,0-1.49-.05a7.94,7.94,0,0,1-1.06,1.47,8.24,8.24,0,0,1-6.12,2.73h-.37A40.3,40.3,0,0,1,127.82,194a8.26,8.26,0,0,1-5.48,2.09A9.17,9.17,0,0,1,121,196c-5.22-.89-8.85-4.36-11.26-6.65l-.5-.48q-.63-.6-1.26-1.23a7.93,7.93,0,0,1-2.69.47h-.45a10.86,10.86,0,0,1-1.17,1.32,8.08,8.08,0,0,1-8,9Z"/>
        <path class="ee97861b-264c-4a22-a76f-c9b71e0fa6f4" d="M90.61,193.46a8.16,8.16,0,0,1-6.18-2.88c-.22-.25-.44-.51-.65-.77a8.05,8.05,0,0,1-12.48-1.33,20.89,20.89,0,0,1-2.51-5.58,8,8,0,0,1-5.34-5.11,8.06,8.06,0,0,1-12.89,4.34c-.28-.22-.55-.46-.81-.71h0a11.45,11.45,0,0,1-1.44-1.75,8,8,0,0,1-7.39-5l-.07-.16a18.22,18.22,0,0,1-.74-2.39,7.12,7.12,0,0,1-1-.41,8.32,8.32,0,0,1-2.53-1.92,8.12,8.12,0,0,1-2-6.36c0-.14,0-.29.07-.43a16.83,16.83,0,0,1,10-12.52,12.49,12.49,0,0,1,3.39-1.78,16,16,0,0,1,5.13-.8q.52,0,1,0c0-.1-.07-.19-.1-.29-.17-.48-.34-1-.51-1.44l-1.08-.51a47.17,47.17,0,0,1-6.66-3.9,63.56,63.56,0,0,1-11-9.43,42.63,42.63,0,0,1-10.55-21.73c-.13-.22-.26-.45-.38-.68-1.81-3.7-2.39-8.19-1.79-13.8.3-2.86.81-5.57,1.3-8.19l0-.18q0-.33-.09-.63c-.11-.77-.18-1.63-.22-2.6,0-.17,0-.35,0-.53,0-.72,0-1.36,0-2,0-.19,0-.38,0-.57s0-.33.05-.49c.08-.89.2-1.7.34-2.46a30.33,30.33,0,0,1,1.63-5.45c-.39-4.67,1.8-8.35,2.93-10.25l.46-.76a20.18,20.18,0,0,0,1.93-3.7l-.67-.29c-.22-.1-.44-.21-.66-.29a21.41,21.41,0,0,0-4-.59c-1.44-.07-2.63-.11-3.73-.11-1.31,0-2.51,0-3.61.16l-.94,1A8.17,8.17,0,0,1,3,52.5c0-.65,0-1.26,0-1.87v-1a39.07,39.07,0,0,1,1.37-12c.18-.57.38-1.16.61-1.74l.12-.3c.16-.4.35-.84.56-1.3l.08-.17.15-.29A18.87,18.87,0,0,1,14.17,25a18.74,18.74,0,0,1,8.4-1.91,24.75,24.75,0,0,1,3.2.22c.52-1.48,1.11-2.81,1.66-4,.18-.38.35-.77.52-1.16h0a8.93,8.93,0,0,1,.59-1.1,8.16,8.16,0,0,1,2.87-2.82A21.2,21.2,0,0,1,43.35,7.36h.06A23.22,23.22,0,0,1,49,5.18a49.71,49.71,0,0,1,6-1.07L55.76,4a29.71,29.71,0,0,1,4.29-.38c.36,0,.7,0,1,0a6.28,6.28,0,0,1,.75,0,8.11,8.11,0,0,1,7.29,4.61,4.84,4.84,0,0,1,.21.47,10.17,10.17,0,0,1,2.1,1.66,8.15,8.15,0,0,1,1.93,3.33A32,32,0,0,1,77,17.59a44.54,44.54,0,0,1,6.68,12.16c1.06,2.93,1.8,5.81,2.52,8.6A73,73,0,0,0,88.41,46a13.31,13.31,0,0,0,2.81,4.66l.25.23.39.36.28.22.46.34,0,0a8.13,8.13,0,0,1,5.51,5.75,7.64,7.64,0,0,1,.24,1.63,24.74,24.74,0,0,1,1.72,1.8,2.37,2.37,0,0,1,.27.28,8.13,8.13,0,0,1,2.73,6l0,.08c.64,1.07,1.39,2.31,2.09,3.67l.44.35A50.44,50.44,0,0,1,116.6,84.44c2.64,4.3,5.89,9.59,7.21,15.68.35.6.67,1.17,1,1.73a75.28,75.28,0,0,1,4.69,10.56c.07.15.12.3.18.45.28.81.57,1.63.82,2.45a91.47,91.47,0,0,1,3.46,14.88l.3,2c.41,2.7.85,5.65,1.07,8.69.93.78,1.83,1.57,2.71,2.35l1.45,1.26a82.1,82.1,0,0,1,7.09,6.86c4.31,4.72,8.7,9.87,10.84,16.38a.42.42,0,0,1,0,.1,8.27,8.27,0,0,1-1,7.09,15.82,15.82,0,0,1,.19,1.86,8.22,8.22,0,0,1-8.23,8.58,8.4,8.4,0,0,1-1.51-.14,8.24,8.24,0,0,1-4.92,1.62c-.5,0-1,0-1.49-.05a7.94,7.94,0,0,1-1.06,1.47,8.24,8.24,0,0,1-6.12,2.73h-.37A40.3,40.3,0,0,1,122.82,189a8.26,8.26,0,0,1-5.48,2.09A9.17,9.17,0,0,1,116,191c-5.22-.89-8.85-4.36-11.26-6.65l-.5-.48q-.63-.6-1.26-1.23a7.93,7.93,0,0,1-2.69.47H99.8a10.86,10.86,0,0,1-1.17,1.32,8.08,8.08,0,0,1-8,9Z"/>
        <g id="e3a76481-277a-4320-bf83-59bbee4ad58b" data-name="itm6y317">
          <g>
            <path class="eafafc0c-0707-4117-9621-39109ff1cd2b" d="M78.93,162.89a3,3,0,0,0-.35-.93.18.18,0,0,0-.06-.24l-.12,0a3.54,3.54,0,0,0-1.71-1.23,7.37,7.37,0,0,0-2.61-.09,2.49,2.49,0,0,1-1.9-.81c-.44-3.1-1.1-6.26-.89-9.41a39,39,0,0,0,.41-3.9,1,1,0,0,0-.61-.91c-.94-.43-7.45-.54-6.65,1.36a.16.16,0,0,0,.11.09c.41,1.77.86,3.53,1.22,5.31.18.87.41,1.83.57,2.8a.27.27,0,0,0,0,.32,12.91,12.91,0,0,1,.15,1.84h0a.25.25,0,0,0,0,.36,5.07,5.07,0,0,1,0,.56v0a6.31,6.31,0,0,1-4.72,1c-1.52-.32-2.8-1.45-4.16-2.14a10.14,10.14,0,0,0-7-.58c-1.47.5-2.94,2-2.56,3.65s1.91,1.44,3.24,1.12a4.74,4.74,0,0,0-1.81,3.31c-.09,2.15,1.77,2.32,3.31,1.63,1.2-.54,2.06-1.55,3.36-1.93a11.06,11.06,0,0,1,2.75-.2,13.7,13.7,0,0,0-1.8,1.25c-1.46,1.21-3.18,4-1,5.58s4.61-1.07,6-2.42c1.63-1.54,3.26-1.77,5.43-2a14.85,14.85,0,0,0,5-1.26c1.68.48,3.57,1.22,5.23.38A2.42,2.42,0,0,0,78.93,162.89Z"/>
            <path class="ad70e536-b1fd-4bfd-b60e-6e6f493dd151" d="M67,162.3c-3.65.62-7.62,1-9.95,4.29-.35.49.45.94.79.47,2.08-2.88,6-3.59,9.2-4.62A.07.07,0,1,0,67,162.3Z"/>
            <path class="ad70e536-b1fd-4bfd-b60e-6e6f493dd151" d="M65.8,159.83a9.62,9.62,0,0,1-4,.62c-1.43-.09-2.82-.39-4.24-.5-2.25-.17-5,.33-6.45,2.16-.4.48.26,1.17.69.7,3.71-4.12,9.93.18,14-2.81C66,159.94,65.9,159.79,65.8,159.83Z"/>
            <path class="ad70e536-b1fd-4bfd-b60e-6e6f493dd151" d="M66.75,152.18a.13.13,0,0,0-.25,0,10.5,10.5,0,0,0,.39,3.25c.27,1.21.53,3.06-.82,3.75,0,0,0,.08,0,.06C69,158.22,67.39,154.3,66.75,152.18Z"/>
            <path class="ad70e536-b1fd-4bfd-b60e-6e6f493dd151" d="M63.53,159.44c-2.7.64-4.85-1.21-7.21-2.15-1.71-.69-4.35-1.31-5.87.08-.3.27.08.67.4.52,4.36-2,8.4,3.18,12.73,1.71A.08.08,0,0,0,63.53,159.44Z"/>
            <path class="ad70e536-b1fd-4bfd-b60e-6e6f493dd151" d="M77.43,161.76c-.59-.84-1.6-.84-2.55-.87-1.64-.06-3-.07-3.95-1.61a0,0,0,1,0-.06,0A3.65,3.65,0,0,0,73,161.44a6.59,6.59,0,0,0,1.53.24c.88.09,1.72.3,2.59.43C77.34,162.13,77.56,162,77.43,161.76Z"/>
            <path class="f4616b13-8c29-4a1c-878d-c16f98b2bd7a" d="M57.66,159.48c1.55.18,3.08.53,4.64.68a13.48,13.48,0,0,0,1.71.09,25.82,25.82,0,0,1-4.55-1.39c-.57-.12-1.14-.25-1.71-.33a9.85,9.85,0,0,0-4,0A5.36,5.36,0,0,1,52,159a1.17,1.17,0,0,1-.92-.38A2.71,2.71,0,0,0,49,157.25a2.83,2.83,0,0,0-1,2.69c.34,1.44,1.78,1.44,3.07,1.15A9.65,9.65,0,0,1,57.66,159.48Z"/>
            <path class="f4616b13-8c29-4a1c-878d-c16f98b2bd7a" d="M64.55,146.78c.41,1.77.86,3.53,1.22,5.31.07.3.13.62.2.93.17-.27.36-1.71.61-1.52,1.14.87,1.84.62,2.34,1.49.89,1.5-.06,4.94,1.81,5.69.78.31,1.39,1.6,2.33,1.49a3,3,0,0,1-.88-.62c-.44-3.1-1.1-6.26-.89-9.41a39,39,0,0,0,.41-3.9,1,1,0,0,0-.61-.91c-.94-.43-7.45-.54-6.65,1.36A.16.16,0,0,0,64.55,146.78Z"/>
            <path class="f4616b13-8c29-4a1c-878d-c16f98b2bd7a" d="M58.9,163.87a13.7,13.7,0,0,0-1.8,1.25l-.05,0a16,16,0,0,1,4.41-2.29c1.88-.58,4.26-.13,5.85-1.38-.11.09-2.44.1-2.94.25a7,7,0,0,1-1.82.3c-1.78.07-3.63-.36-5.39.07a12,12,0,0,0-2.81,1.13,1.87,1.87,0,0,1-1.06.27,2.45,2.45,0,0,1-1.32-.59,1.57,1.57,0,0,0-2.18.1,3.91,3.91,0,0,0-.31,1.35c-.09,2.15,1.77,2.32,3.31,1.63,1.2-.54,2.06-1.55,3.36-1.93A11.06,11.06,0,0,1,58.9,163.87Z"/>
            <path class="f4616b13-8c29-4a1c-878d-c16f98b2bd7a" d="M78.93,162.89a3,3,0,0,0-.35-.93.18.18,0,0,0-.06-.24l-.12,0h0a.81.81,0,0,1-.28.23,2,2,0,0,1-1,.33c-.68,0-1.09.52-1.66.76-1.16.5-2.48-.92-3.63-.81-.91.08-1.43.89-2.17,1.27a1.06,1.06,0,0,1-.25.09.2.2,0,0,1-.17.11,33.37,33.37,0,0,0-4.68.66,10.13,10.13,0,0,0-4.15,2.45c-.45.43-1,1-1.7.83s-1.55-.81-2.43-.31a3.49,3.49,0,0,0-1.15.95,2.31,2.31,0,0,0,1,2.47c2.13,1.56,4.61-1.07,6-2.42,1.63-1.54,3.26-1.77,5.43-2a14.85,14.85,0,0,0,5-1.26c1.68.48,3.57,1.22,5.23.38A2.42,2.42,0,0,0,78.93,162.89Z"/>
            <path class="f3a67124-fb36-41fb-94c2-f00fc2388d29" d="M78.93,162.89a3,3,0,0,0-.35-.93.18.18,0,0,0-.06-.24l-.12,0a3.54,3.54,0,0,0-1.71-1.23,7.37,7.37,0,0,0-2.61-.09,2.49,2.49,0,0,1-1.9-.81c-.44-3.1-1.1-6.26-.89-9.41a39,39,0,0,0,.41-3.9,1,1,0,0,0-.61-.91c-.94-.43-7.45-.54-6.65,1.36a.16.16,0,0,0,.11.09c.41,1.77.86,3.53,1.22,5.31.18.87.41,1.83.57,2.8a.27.27,0,0,0,0,.32,12.91,12.91,0,0,1,.15,1.84h0a.25.25,0,0,0,0,.36,5.07,5.07,0,0,1,0,.56v0a6.31,6.31,0,0,1-4.72,1c-1.52-.32-2.8-1.45-4.16-2.14a10.14,10.14,0,0,0-7-.58c-1.47.5-2.94,2-2.56,3.65s1.91,1.44,3.24,1.12a4.74,4.74,0,0,0-1.81,3.31c-.09,2.15,1.77,2.32,3.31,1.63,1.2-.54,2.06-1.55,3.36-1.93a11.06,11.06,0,0,1,2.75-.2,13.7,13.7,0,0,0-1.8,1.25c-1.46,1.21-3.18,4-1,5.58s4.61-1.07,6-2.42c1.63-1.54,3.26-1.77,5.43-2a14.85,14.85,0,0,0,5-1.26c1.68.48,3.57,1.22,5.23.38A2.42,2.42,0,0,0,78.93,162.89Zm-1.45,2c-1.39.77-3.23-.11-4.76-.29a.2.2,0,0,0-.23-.07l-.14,0h-.07a.17.17,0,0,0-.13.08,22.92,22.92,0,0,1-4.2,1,17.17,17.17,0,0,0-4,.68c-2.24.89-3.36,3.34-5.7,4.07-1.52.47-2.49-.56-2.49-2a2.8,2.8,0,0,1,.62-1.71,3.65,3.65,0,0,1,2.64.4,0,0,0,0,0,0-.06,2.91,2.91,0,0,0-2.35-.73,10.78,10.78,0,0,1,1.72-1.43h0a7,7,0,0,1,1.08.14,2.88,2.88,0,0,1,1.18.84s.09,0,.07,0a1.93,1.93,0,0,0-.9-1,2.89,2.89,0,0,0-.9-.3,13.62,13.62,0,0,1,1.43-.83,3.16,3.16,0,0,0,.7-.27l0-.05.25-.09a2.1,2.1,0,0,1,.65.14,2.9,2.9,0,0,1,1.15,1s.09,0,.07,0a2.17,2.17,0,0,0-.94-1.19L62,163l.51-.14a12.82,12.82,0,0,1,1.34-.21,2.08,2.08,0,0,1,1,.17,3.64,3.64,0,0,1,1.07,1c.06.07.15,0,.12-.1a3.12,3.12,0,0,0-1.13-1.22,5.39,5.39,0,0,0,2-.67c.08-.05,0-.18-.06-.14a11.53,11.53,0,0,1-2.7.53,1.47,1.47,0,0,0-.62.07,11,11,0,0,0-2.32.46h0a1.16,1.16,0,0,0-.47.07.12.12,0,0,0-.07.14c-.26.1-.5.21-.75.33-2,.15-4-.1-5.73,1.14a9.94,9.94,0,0,1-2.09,1.16c-1.6.62-2.24-.68-1.84-2.15a4.18,4.18,0,0,1,1.55-2.2l.05,0a2.28,2.28,0,0,1,1.21.36,2.09,2.09,0,0,1,.76,1.27.08.08,0,0,0,.16,0A2.3,2.3,0,0,0,52.24,161a7.37,7.37,0,0,1,1.95-.84.15.15,0,0,0,.06,0,1.3,1.3,0,0,1,.92.62,3.92,3.92,0,0,1,.44,1,.06.06,0,1,0,.12,0,2.38,2.38,0,0,0-1-1.75,9.76,9.76,0,0,1,2-.23s0,0,0,0c.23.29.6.43.84.75a1.84,1.84,0,0,1,.28,1.32c0,.11.18.13.2,0a2.07,2.07,0,0,0-.19-1.38,2.19,2.19,0,0,0-.6-.71h0A16.12,16.12,0,0,1,59,160a.13.13,0,0,0,.07.19,1.41,1.41,0,0,1,.85,1.56c0,.08.13.1.14,0a1.73,1.73,0,0,0-.58-1.69,10.57,10.57,0,0,0,5.3,0c.08,0,0-.13,0-.12-3.54.55-6.91-1.43-10.45-.52a7.55,7.55,0,0,0-2.14,1,13,13,0,0,1-2.05.31c-2.21.08-1.53-2.23-.55-3.16a3.63,3.63,0,0,1,1.25-.75l0,0a2.71,2.71,0,0,1,1.5,2.43c0,.07.12.12.15,0,.37-.83-.43-2.08-1.15-2.67a7.24,7.24,0,0,1,2.14-.16s0,0,0,0a3.1,3.1,0,0,1,.71.54,2.32,2.32,0,0,1,.41.87.08.08,0,0,0,.15,0,2,2,0,0,0-.32-1.07,1.25,1.25,0,0,0-.25-.27,16.31,16.31,0,0,1,2.07.38h0a.19.19,0,0,0,.05.1c.23.2.48.24.64.54a1.71,1.71,0,0,1,.06,1.07s0,.07.06,0a1.8,1.8,0,0,0,.14-1.12,1,1,0,0,0-.13-.34c1.71.7,3.14,2,5,2.34a5.6,5.6,0,0,0,3.64-.71.15.15,0,0,0,.13.07,6.19,6.19,0,0,1,1.28-.26,5.07,5.07,0,0,1,1.42.43c.08,0,.12-.09.06-.13a4.35,4.35,0,0,0-1.72-.7.28.28,0,0,0,.1-.15v-.06a.17.17,0,0,0,0-.17c0-.18,0-.36,0-.54a2.38,2.38,0,0,1,2.26-.22.07.07,0,0,0,0-.12,3.06,3.06,0,0,0-2.32-.25,11.23,11.23,0,0,0-.21-1.62,3.57,3.57,0,0,1,2.1-.19c.07,0,.09-.12,0-.13a6.16,6.16,0,0,0-2.18-.09c-.1-.49-.21-1-.3-1.44a2.73,2.73,0,0,0,2.36-.65c.08-.07,0-.22-.12-.15a2.66,2.66,0,0,1-2.34.3h0a42.23,42.23,0,0,0-1.61-6.11c.5-1.22,2.5-1.05,3.59-1.05l1.46,0c1.24,0,1.6.31,1.41,1.57a26.68,26.68,0,0,0-.11,6.44c.09,1.16.28,2.31.37,3.47a10.74,10.74,0,0,0,.29,2,7.32,7.32,0,0,0-.77-.68s0,0,0,0c.8.88,1,2.23,2.4,2.38h.23a2.16,2.16,0,0,0-.79,2.25c0,.12.2.07.18-.06a1.58,1.58,0,0,1,1.26-2,.18.18,0,0,0,.15-.15c.42,0,.83,0,1.24,0a2.79,2.79,0,0,0-1.1,2,.1.1,0,0,0,.2.06,4,4,0,0,1,.54-1.21,1.46,1.46,0,0,1,1.23-.59.27.27,0,0,0,.12-.06,2.67,2.67,0,0,1,1.12.64,1.91,1.91,0,0,0-.76.52.07.07,0,0,0,.1.09,1.2,1.2,0,0,1,.7-.3,1,1,0,0,1,.24,0A2,2,0,0,1,77.48,164.92Z"/>
            <g>
              <path class="b072d433-2e49-4695-9564-2f8ba1d8f76f" d="M50.48,158.69c-.07-.44-.43-1.18-.94-1.17a.36.36,0,0,0-.3-.08,8.6,8.6,0,0,0-6.69,7c0,.07.06.13.11.12a.11.11,0,0,0,.16,0c1.94-2.12,4.12-3.74,7.11-3.83a.12.12,0,0,0,.1-.05s0,0,.07,0A2.43,2.43,0,0,0,50.48,158.69Z"/>
              <path class="b072d433-2e49-4695-9564-2f8ba1d8f76f" d="M56.13,168h0c-2.21,1.66-2.68,5.8-.72,7.76,0,0,.07,0,.11,0a1.17,1.17,0,0,1,.05.11.07.07,0,0,0,.13-.06c-.36-2.23,1.09-4.36,3-5.51h0a.25.25,0,0,0,.22-.2C59.18,168.77,57.36,166.68,56.13,168Z"/>
              <path class="b072d433-2e49-4695-9564-2f8ba1d8f76f" d="M52.62,165a0,0,0,0,1,0,0,.49.49,0,0,0,0-.12,2.37,2.37,0,0,0-1-1.68c-.38-.28-1.19-.58-1.54-.11-2.62,2.25-3,5.42-1.81,8.53,0,.06.14.06.13,0s0-.27,0-.41a8.58,8.58,0,0,1,4.15-6.11h0l0,0Z"/>
              <path class="b072d433-2e49-4695-9564-2f8ba1d8f76f" d="M79.15,162.76a2,2,0,0,0-2.53.69c-.45.55-.7,1.73.28,1.85h0c1.94.26,3.93,1.29,4.47,3.26a.09.09,0,0,0,.18,0c0-.11,0-.21,0-.31s.07,0,.07-.09C81.93,165.93,81.22,163.43,79.15,162.76Z"/>
            </g>
            <path class="bde2e2e1-0f1e-4032-aa54-234488967f46" d="M50.48,158.69c-.07-.44-.43-1.18-.94-1.17a.36.36,0,0,0-.3-.08,8.6,8.6,0,0,0-6.69,7c0,.07.06.13.11.12a.11.11,0,0,0,.16,0c1.94-2.12,4.12-3.74,7.11-3.83a.12.12,0,0,0,.1-.05s0,0,.07,0A2.43,2.43,0,0,0,50.48,158.69Zm-7.22,4.69a11.19,11.19,0,0,1,1.37-2.54,7.37,7.37,0,0,1,4.7-2.74.34.34,0,0,0,.12,0,1.44,1.44,0,0,1,.38.95,4.35,4.35,0,0,1-.13,1.39A7.66,7.66,0,0,0,43.26,163.38Z"/>
            <path class="bde2e2e1-0f1e-4032-aa54-234488967f46" d="M56.13,168h0c-2.21,1.66-2.68,5.8-.72,7.76,0,0,.07,0,.11,0a1.17,1.17,0,0,1,.05.11.07.07,0,0,0,.13-.06c-.36-2.23,1.09-4.36,3-5.51h0a.25.25,0,0,0,.22-.2C59.18,168.77,57.36,166.68,56.13,168Zm-1,6.6a6.39,6.39,0,0,1,1.27-6.51c1-.2,1.91.91,1.9,1.84C56.91,170.7,55.11,172.74,55.17,174.59Z"/>
            <path class="bde2e2e1-0f1e-4032-aa54-234488967f46" d="M52.62,165a0,0,0,0,1,0,0,.49.49,0,0,0,0-.12,2.37,2.37,0,0,0-1-1.68c-.38-.28-1.19-.58-1.54-.11-2.62,2.25-3,5.42-1.81,8.53,0,.06.14.06.13,0s0-.27,0-.41a8.58,8.58,0,0,1,4.15-6.11h0l0,0Zm-4.3,5.65a10.1,10.1,0,0,1-.27-3.35,7.38,7.38,0,0,1,2.27-4s0,0,0,0a1,1,0,0,1,.49,0,1.85,1.85,0,0,1,.67.38,2.13,2.13,0,0,1,.74,1.25A7.26,7.26,0,0,0,48.32,170.67Z"/>
            <path class="bde2e2e1-0f1e-4032-aa54-234488967f46" d="M79.15,162.76a2,2,0,0,0-2.53.69c-.45.55-.7,1.73.28,1.85h0c1.94.26,3.93,1.29,4.47,3.26a.09.09,0,0,0,.18,0c0-.11,0-.21,0-.31s.07,0,.07-.09C81.93,165.93,81.22,163.43,79.15,162.76ZM77,165.17a0,0,0,0,0,0,0,1.17,1.17,0,0,1-.35-.71,1.46,1.46,0,0,1,.42-.85,2.47,2.47,0,0,1,.73-.6,1.5,1.5,0,0,1,1.15-.11c1.75.75,2.29,2.65,2.45,4.52C80.72,165.91,78.47,165.15,77,165.17Z"/>
            <path class="e9c8bdc0-504f-41b1-9236-5719cfd8f544" d="M48.91,158.13c-2.88.55-4.92,3.09-6,5.66,0,0,0,0,0,0,1.37-2.24,3.34-4.64,6.12-5.12C49.42,158.62,49.27,158.06,48.91,158.13Z"/>
            <path class="e9c8bdc0-504f-41b1-9236-5719cfd8f544" d="M50.59,163.67a6.15,6.15,0,0,0-2.25,7.26,0,0,0,1,0,0,0,6.22,6.22,0,0,1,2.64-6.5C51.5,164.11,51.07,163.36,50.59,163.67Z"/>
            <path class="e9c8bdc0-504f-41b1-9236-5719cfd8f544" d="M56.79,168.21a6.07,6.07,0,0,0-1.62,7c0,.06.09.2.07.14-.48-2.31,0-5.09,2-6.56A.39.39,0,1,0,56.79,168.21Z"/>
            <path class="e9c8bdc0-504f-41b1-9236-5719cfd8f544" d="M78.14,163.06c-.54,0-.93.67-.4.72a4.39,4.39,0,0,1,3.57,4.12,0,0,0,1,0,.07,0C81.39,165.73,80.61,163.22,78.14,163.06Z"/>
          </g>
          <g>
            <path class="eafafc0c-0707-4117-9621-39109ff1cd2b" d="M95.56,162.93a.15.15,0,0,0,0-.19c-.59-.58-1.29-.89-1.58-1.74-.21-.62-.25-1.34-.42-2-.4-1.54-.89-3.06-1.3-4.6a21.93,21.93,0,0,1-.72-5,1.65,1.65,0,0,0-.64-1.41c-1-.69-3.47.64-4.37,1.15-1.19.69-1.89,1.8-1.18,3a24.18,24.18,0,0,0,1.75,4.7c.94,2,2.06,4.94.72,7a5.32,5.32,0,0,1-4.12,1.15,19.4,19.4,0,0,0-4.19-.69,4.92,4.92,0,0,0-4.67,3s0,.07.07.07a2.31,2.31,0,0,0,1.25,3.12,2.71,2.71,0,0,0,2.32-.36c.6-.32,1.14-.7,1.77-1a4.71,4.71,0,0,1,1.62-.29,6.71,6.71,0,0,0-.89.37c-2.17,1.11-4.13,3.83-3.15,6.32a3.37,3.37,0,0,0,2.57,1.94,2.83,2.83,0,0,0,2.35-1.15c1-1.13,1.63-2.53,2.94-3.42s2.85-1.09,4.08-2.11a.08.08,0,0,0,0,0c.24-.13.48-.25.73-.36a13.47,13.47,0,0,1-1.72,4,3.85,3.85,0,0,0-.15,4.44c1.15,1.45,3.33.75,4.45-.29a4.93,4.93,0,0,0,1.17-3,20.91,20.91,0,0,1,.88-4.3s0,0,0-.08a13.78,13.78,0,0,0,1.09-2.13,5.41,5.41,0,0,0,.27-1c1.16.15,1.53,1.53,2.59,1.9a1.88,1.88,0,0,0,2.29-1.49.14.14,0,0,0,.11-.16C101.12,165.68,98.38,162.88,95.56,162.93Z"/>
            <path class="ad70e536-b1fd-4bfd-b60e-6e6f493dd151" d="M89.93,165.09c-1.45,2.45-4,3.1-6.46,4-1.89.68-4.4,1.92-4.74,4.15,0,.28.32.6.55.32a10,10,0,0,1,2.7-2.77,22.84,22.84,0,0,1,3.61-1.49,7.11,7.11,0,0,0,4.5-4.15C90.13,165.06,90,165,89.93,165.09Z"/>
            <path class="ad70e536-b1fd-4bfd-b60e-6e6f493dd151" d="M91.72,165.82c0-.07-.14,0-.13,0a16.06,16.06,0,0,1-.51,5.61,19,19,0,0,1-1.14,2.81,4.77,4.77,0,0,0-.82,2.18.31.31,0,0,0,.57.16A13.45,13.45,0,0,0,91.72,165.82Z"/>
            <path class="ad70e536-b1fd-4bfd-b60e-6e6f493dd151" d="M88.44,156.62c-.07-.11-.21,0-.17.1a11.28,11.28,0,0,1,.85,4.41,4.5,4.5,0,0,1-1.48,3.37,6.29,6.29,0,0,1-4.92,1.05c-1.9-.27-4.16-.86-5.76.57-.37.33.11.92.53.68,2.42-1.44,5.26,0,7.89-.48A6.28,6.28,0,0,0,89.93,162,7.82,7.82,0,0,0,88.44,156.62Z"/>
            <path class="ad70e536-b1fd-4bfd-b60e-6e6f493dd151" d="M93.77,162.68c-.1,0-.17.12-.07.17,1.11.59,2.2,1.14,3.27,1.81a21.8,21.8,0,0,1,3.16,2.9.23.23,0,0,0,.38-.22C100,164.51,96,163.53,93.77,162.68Z"/>
            <path class="f4616b13-8c29-4a1c-878d-c16f98b2bd7a" d="M100.17,167.61c-.71-.18-1.23.08-1.88-.33s-1.08-1.36-1.73-1.88a13.39,13.39,0,0,0-2.2-1.47A7.69,7.69,0,0,1,94.6,168c-.35,1.69-1.24,3.36-1.41,5.07a8.4,8.4,0,0,1-.56,3.11c-.4.78-1.43.43-2,.25-1-.31-1.27.26-2.1.55a.75.75,0,0,1-.51,0,3,3,0,0,0,.64,2c1.15,1.45,3.33.75,4.45-.29a4.93,4.93,0,0,0,1.17-3,20.91,20.91,0,0,1,.88-4.3s0,0,0-.08a13.78,13.78,0,0,0,1.09-2.13,5.41,5.41,0,0,0,.27-1c1.16.15,1.53,1.53,2.59,1.9a1.88,1.88,0,0,0,2.29-1.49.14.14,0,0,0,.11-.16l0-.16A5,5,0,0,0,100.17,167.61Z"/>
            <path class="f4616b13-8c29-4a1c-878d-c16f98b2bd7a" d="M86.58,155.84a2.53,2.53,0,0,1,.13-.22c.84-1.15,2.31.19,3.16.89a2.9,2.9,0,0,1,.75-1.63.27.27,0,0,1,.42.05,15,15,0,0,1,1.12,3.71c.28,1.3.61,3.08,1.93,3.74a4.27,4.27,0,0,0,1.47.42s0-.05,0-.06c-.59-.58-1.29-.89-1.58-1.74-.21-.62-.25-1.34-.42-2-.4-1.54-.89-3.06-1.3-4.6a21.93,21.93,0,0,1-.72-5,1.65,1.65,0,0,0-.64-1.41c-1-.69-3.47.64-4.37,1.15-1.19.69-1.89,1.8-1.18,3A20.57,20.57,0,0,0,86.58,155.84Z"/>
            <path class="f4616b13-8c29-4a1c-878d-c16f98b2bd7a" d="M89.75,170.88c.24-.13.48-.25.73-.36a13.21,13.21,0,0,1-1.11,2.95A7.93,7.93,0,0,0,91,170.63a12.27,12.27,0,0,0,0-4.48,7.62,7.62,0,0,1-2.61,3.49c-1.68,1.11-3.93,1.48-5.33,3-.63.69-1.28,2-2.43,1.64-.5-.13-.68-.62-1.26-.71a5,5,0,0,1-.93-.22c-.2-.06-.41-.2-.41-.43,0-1.24,1.59-2.47,2.53-3a7.81,7.81,0,0,1,2.27-1,28.93,28.93,0,0,0,3.07-.52,6.49,6.49,0,0,0,4-4.32A5.13,5.13,0,0,1,88,165.74a14.06,14.06,0,0,1-4.85,1.33,13.8,13.8,0,0,0-3.43.61c-.39.15-1,.49-1.45.34a1.09,1.09,0,0,1-.68-.6,1.81,1.81,0,0,0-2.26-.89,4.42,4.42,0,0,0-.47.86s0,.07.07.07a2.31,2.31,0,0,0,1.25,3.12,2.71,2.71,0,0,0,2.32-.36c.6-.32,1.14-.7,1.77-1a4.71,4.71,0,0,1,1.62-.29,6.71,6.71,0,0,0-.89.37c-2.17,1.11-4.13,3.83-3.15,6.32a3.37,3.37,0,0,0,2.57,1.94,2.83,2.83,0,0,0,2.35-1.15c1-1.13,1.63-2.53,2.94-3.42s2.85-1.09,4.08-2.11A.08.08,0,0,0,89.75,170.88Z"/>
            <g class="ac900315-0047-4b62-8b92-df0b014050e7">
              <path class="bc7ee245-31e4-42cd-94e0-a78413bf7fed" d="M95.56,162.93a.15.15,0,0,0,0-.19c-.59-.58-1.29-.89-1.58-1.74-.21-.62-.25-1.34-.42-2-.4-1.54-.89-3.06-1.3-4.6a21.93,21.93,0,0,1-.72-5,1.65,1.65,0,0,0-.64-1.41c-1-.69-3.47.64-4.37,1.15-1.19.69-1.89,1.8-1.18,3a24.18,24.18,0,0,0,1.75,4.7c.94,2,2.06,4.94.72,7a5.32,5.32,0,0,1-4.12,1.15,19.4,19.4,0,0,0-4.19-.69,4.92,4.92,0,0,0-4.67,3s0,.07.07.07a2.31,2.31,0,0,0,1.25,3.12,2.71,2.71,0,0,0,2.32-.36c.6-.32,1.14-.7,1.77-1a4.71,4.71,0,0,1,1.62-.29,6.71,6.71,0,0,0-.89.37c-2.17,1.11-4.13,3.83-3.15,6.32a3.37,3.37,0,0,0,2.57,1.94,2.83,2.83,0,0,0,2.35-1.15c1-1.13,1.63-2.53,2.94-3.42s2.85-1.09,4.08-2.11a.08.08,0,0,0,0,0c.24-.13.48-.25.73-.36a13.47,13.47,0,0,1-1.72,4,3.85,3.85,0,0,0-.15,4.44c1.15,1.45,3.33.75,4.45-.29a4.93,4.93,0,0,0,1.17-3,20.91,20.91,0,0,1,.88-4.3s0,0,0-.08a13.78,13.78,0,0,0,1.09-2.13,5.41,5.41,0,0,0,.27-1c1.16.15,1.53,1.53,2.59,1.9a1.88,1.88,0,0,0,2.29-1.49.14.14,0,0,0,.11-.16C101.12,165.68,98.38,162.88,95.56,162.93Zm5.39,5.14c-.1.8-.9,1.84-1.82,1.44a3.44,3.44,0,0,1-1-.85,2.06,2.06,0,0,0-1.62-.81,6.57,6.57,0,0,0-.12-1.8c0-.05-.08,0-.08,0a7.67,7.67,0,0,1-1,3.91,7.66,7.66,0,0,0-.75,1.84c-.78,1.53-.7,3.38-1.11,5-.62,2.53-4.92,3.24-4.87,0a5.61,5.61,0,0,1,1-2.6,2.06,2.06,0,0,1,2.21.11c.08.07.2-.05.14-.14a1.91,1.91,0,0,0-2-.53,11.18,11.18,0,0,0,.85-1.59l0-.12a1.35,1.35,0,0,1,1.67,0,.09.09,0,0,0,.13-.12,1.45,1.45,0,0,0-1.66-.33,9.5,9.5,0,0,0,.33-2.27.08.08,0,0,0,.1,0,1.88,1.88,0,0,1,1.06-.55,3.11,3.11,0,0,1,1,.15.08.08,0,0,0,.06-.14,1.77,1.77,0,0,0-2.27.35A18.7,18.7,0,0,0,91,166.5c0-.08-.14-.09-.13,0a16.21,16.21,0,0,1-.31,3.54,8.12,8.12,0,0,0-2.18,1.34c-1.71.71-3.4,1.26-4.6,2.84a10.81,10.81,0,0,1-2.25,2.56c-1.67,1.13-3.29-.8-3.49-2.39h.09c.86-.34,1.5.15,2.1.75a.07.07,0,0,0,.11-.08c-.42-.63-1.51-1.52-2.32-1.07a4.35,4.35,0,0,1,1.62-3.11.19.19,0,0,0,.19.06,2.48,2.48,0,0,1,.54-.12,1.47,1.47,0,0,1,.74.28,2.37,2.37,0,0,1,.93,1.1c0,.09.18,0,.16-.07a2.7,2.7,0,0,0-1-1.37,1.79,1.79,0,0,0-.93-.35,9,9,0,0,1,1.59-.87,10.61,10.61,0,0,0,1.07.08,1.43,1.43,0,0,1,1.2,1.17s0,0,.05,0a1.28,1.28,0,0,0-.72-1.35,3,3,0,0,0-.64-.26,10.31,10.31,0,0,1,1.5-.38c.3,0,.59-.13.86-.2a3.9,3.9,0,0,1,.76.22,2.52,2.52,0,0,1,1,.93.07.07,0,0,0,.12-.05,2.11,2.11,0,0,0-1.13-1.34,7.63,7.63,0,0,0,3.34-2.73c.06-.08-.07-.18-.13-.1a6.74,6.74,0,0,1-3.83,2.63H85.2a1,1,0,0,0-.39,0s-.06,0-.08.07c-.79.17-1.55.3-2.31.51a5.36,5.36,0,0,0-3.6.67c-1,.61-2,1.18-3.08.29s-.69-2.12-.29-3.13a4.47,4.47,0,0,1,1.41-1.18c1.08.33,1.17,1.45,1.19,2.4a.06.06,0,0,0,.11,0,2.09,2.09,0,0,0-.88-2.61,6.22,6.22,0,0,1,2.63-.42c.16.27.4.49.55.78a1.72,1.72,0,0,1,.05,1.56c0,.09.08.16.13.08a2.7,2.7,0,0,0-.18-2.38,12.46,12.46,0,0,1,2.25.45l.16,0a2,2,0,0,1,.26,1.9c0,.09.12.15.16.06a2.21,2.21,0,0,0,0-1.83,4.74,4.74,0,0,0,1.94.15,1.23,1.23,0,0,1,.27,1.16c0,.05.07.07.08,0a1.35,1.35,0,0,0,0-1.24l.3-.09a6.72,6.72,0,0,0,1.68-1,.18.18,0,0,0,.26,0c1.62-1.42,1-3.92.46-5.72,0-.11-.07-.22-.11-.33a1.78,1.78,0,0,0,2.14-.72c.07-.08,0-.19-.13-.13a3,3,0,0,1-2.12.51c-.68-2-1.67-3.81-2.44-5.73a.12.12,0,0,0,0-.1c-1-2,1.45-3,2.92-3.48.65-.23,2.13-.87,2.41.17a23.83,23.83,0,0,1,.25,3.3,55.25,55.25,0,0,0,1.8,6.91,8.88,8.88,0,0,0,.57,2.35A5,5,0,0,0,95.23,163l-.2,0s0,0,0,.05a10,10,0,0,1,4,2.14,1.72,1.72,0,0,0-1,.21,1.89,1.89,0,0,0-.81,1.11.07.07,0,0,0,.13.05,1.7,1.7,0,0,1,.8-.89,4.68,4.68,0,0,1,1.18-.11h0a7.93,7.93,0,0,1,.86,1.16.92.92,0,0,0-.79.16,1.53,1.53,0,0,0-.55,1.09.05.05,0,0,0,.1,0c.19-.53.78-1.53,1.43-.9l0,0a9.73,9.73,0,0,1,.46,1Z"/>
              <path class="bc7ee245-31e4-42cd-94e0-a78413bf7fed" d="M91.39,176c-.71-.54-2.19-.66-2.59.34,0,0,0,.09.09.07a2.22,2.22,0,0,1,1.2-.5,4.54,4.54,0,0,1,1.26.2C91.42,176.16,91.45,176.07,91.39,176Z"/>
              <path class="bc7ee245-31e4-42cd-94e0-a78413bf7fed" d="M93.19,166.85a1.31,1.31,0,0,0-1.76.39c-.06.1.06.24.16.16a1.81,1.81,0,0,1,1.52-.37C93.21,167.05,93.28,166.9,93.19,166.85Z"/>
              <path class="bc7ee245-31e4-42cd-94e0-a78413bf7fed" d="M91.61,162.48a3.79,3.79,0,0,1-2.72.71.07.07,0,0,0,0,.13,2.22,2.22,0,0,0,2.81-.75S91.66,162.43,91.61,162.48Z"/>
              <path class="bc7ee245-31e4-42cd-94e0-a78413bf7fed" d="M91.12,160.69a3.13,3.13,0,0,1-2.07.55.08.08,0,0,0,0,.16,1.91,1.91,0,0,0,2.22-.59A.08.08,0,0,0,91.12,160.69Z"/>
              <path class="bc7ee245-31e4-42cd-94e0-a78413bf7fed" d="M89.58,154.89a2.81,2.81,0,0,1-2.58.23c-.06,0-.1.07,0,.11a1.94,1.94,0,0,0,2.75-.2C89.77,154.94,89.66,154.85,89.58,154.89Z"/>
            </g>
            <path class="b072d433-2e49-4695-9564-2f8ba1d8f76f" d="M77,167.82a1.62,1.62,0,0,0-1.24-1.29.29.29,0,0,0-.21-.06c-4.09.74-5.23,5.13-4.52,8.73,0,0,0,0,0,0s.06,0,.06,0a5.58,5.58,0,0,1,5.17-5.11.28.28,0,0,0,.27-.24C77.16,169.48,77.12,168.37,77,167.82Z"/>
            <path class="b072d433-2e49-4695-9564-2f8ba1d8f76f" d="M79.61,174.32c-.51-.42-1.36-.62-1.75,0l-.07,0c-2.82,2.56-1.47,7.06.24,9.78a0,0,0,0,0,.09,0,1,1,0,0,0-.05-.16s.06,0,.05-.08a8.9,8.9,0,0,1,2.41-7.43.17.17,0,0,0,0-.15s0,0,0,0C80.82,175.62,80.06,174.69,79.61,174.32Z"/>
            <path class="b072d433-2e49-4695-9564-2f8ba1d8f76f" d="M88.65,178.06a.11.11,0,0,0,0,.08c-1,2.34.16,5.42,1.79,7.18h0s0,0,0,.06.2.07.17,0a7.53,7.53,0,0,1,1.51-6.41.17.17,0,0,0,0-.21C92.82,177,89.29,176.47,88.65,178.06Z"/>
            <path class="b072d433-2e49-4695-9564-2f8ba1d8f76f" d="M102,169.05a2,2,0,0,0-2.41-1c-.69.15-1.62.92-.93,1.63h0c1.36,1.41,2.28,3.46,1.48,5.34,0,.1.08.16.15.09a1.16,1.16,0,0,0,.2-.24.09.09,0,0,0,.12,0C102.23,173.26,103.23,170.86,102,169.05Z"/>
            <g>
              <path class="bde2e2e1-0f1e-4032-aa54-234488967f46" d="M77,167.82a1.62,1.62,0,0,0-1.24-1.29.29.29,0,0,0-.21-.06c-4.09.74-5.23,5.13-4.52,8.73,0,0,0,0,0,0s.06,0,.06,0a5.58,5.58,0,0,1,5.17-5.11.28.28,0,0,0,.27-.24C77.16,169.48,77.12,168.37,77,167.82Zm-5.76,5.68c.28-3,.91-5.79,4.43-6.57l.07,0a2,2,0,0,1,.67,1.22,2.37,2.37,0,0,1,0,.88,2.18,2.18,0,0,1-.19.48A6,6,0,0,0,71.23,173.5Z"/>
              <path class="bde2e2e1-0f1e-4032-aa54-234488967f46" d="M79.61,174.32c-.51-.42-1.36-.62-1.75,0l-.07,0c-2.82,2.56-1.47,7.06.24,9.78a0,0,0,0,0,.09,0,1,1,0,0,0-.05-.16s.06,0,.05-.08a8.9,8.9,0,0,1,2.41-7.43.17.17,0,0,0,0-.15s0,0,0,0C80.82,175.62,80.06,174.69,79.61,174.32Zm-1.75,8.91a15.45,15.45,0,0,1-1.26-3.39c-.21-1.69.18-4,1.49-5.16a.19.19,0,0,0,.06-.17,1.22,1.22,0,0,1,1.25.35,3.31,3.31,0,0,1,.53.7c.14.22.18.49.3.71C78.29,177.86,77.59,180.78,77.86,183.23Z"/>
              <path class="bde2e2e1-0f1e-4032-aa54-234488967f46" d="M88.65,178.06a.11.11,0,0,0,0,.08c-1,2.34.16,5.42,1.79,7.18h0s0,0,0,.06.2.07.17,0a7.53,7.53,0,0,1,1.51-6.41.17.17,0,0,0,0-.21C92.82,177,89.29,176.47,88.65,178.06Zm1.67,6.73a21.26,21.26,0,0,1-1.35-2.9A7,7,0,0,1,89,178c.8-.63,3-.68,2.85.65,0,0,0,0,0,0h0A7.11,7.11,0,0,0,90.32,184.79Z"/>
              <path class="bde2e2e1-0f1e-4032-aa54-234488967f46" d="M102,169.05a2,2,0,0,0-2.41-1c-.69.15-1.62.92-.93,1.63h0c1.36,1.41,2.28,3.46,1.48,5.34,0,.1.08.16.15.09a1.16,1.16,0,0,0,.2-.24.09.09,0,0,0,.12,0C102.23,173.26,103.23,170.86,102,169.05Zm-3.18.55v0a1.2,1.2,0,0,1,.17-.79,1.5,1.5,0,0,1,.86-.4,2.29,2.29,0,0,1,.94,0,1.48,1.48,0,0,1,1,.63c.91,1.67.15,3.5-.89,5.06C101.29,172.49,100,170.5,98.84,169.6Z"/>
            </g>
            <path class="e9c8bdc0-504f-41b1-9236-5719cfd8f544" d="M75.17,167.2c-3.09.78-4.16,3.86-4.12,6.75,0,.08.13.1.14,0,.4-2.67,1.4-5.09,4.23-5.89A.46.46,0,0,0,75.17,167.2Z"/>
            <path class="e9c8bdc0-504f-41b1-9236-5719cfd8f544" d="M78.63,174.56c-2.71,1-2.13,5-1.46,7.12,0,.08.16,0,.13,0a7.12,7.12,0,0,1-.11-3.58A4.94,4.94,0,0,1,79,175.24.41.41,0,0,0,78.63,174.56Z"/>
            <path class="e9c8bdc0-504f-41b1-9236-5719cfd8f544" d="M89.68,177.71c-1.54,1.51-.61,5.15.48,6.67,0,.07.19,0,.15-.07a7.54,7.54,0,0,1-.57-3.18,18.68,18.68,0,0,1,.6-3A.4.4,0,0,0,89.68,177.71Z"/>
            <path class="e9c8bdc0-504f-41b1-9236-5719cfd8f544" d="M100.91,168.41c-.33-.13-.55.29-.42.55s.37.54.54.83a3.16,3.16,0,0,1,.27,1.52,7.57,7.57,0,0,1-.68,2.64c0,.1.11.19.17.1C101.77,172.79,103.05,169.25,100.91,168.41Z"/>
          </g>
          <g>
            <path class="a5a11ac2-806f-4c01-8723-ef8cc9a6cb09" d="M149.8,170.21c-1.7-5.13-5.58-9.58-9.17-13.51a73.5,73.5,0,0,0-6.41-6.19c-2.21-1.91-4.41-4-6.8-5.66.07-4.47-.76-9.09-1.4-13.51a84.66,84.66,0,0,0-3.17-13.62,71.14,71.14,0,0,0-5.1-12.07c-.53-1-1.1-1.93-1.68-2.88a.28.28,0,0,0,.07-.24c-.9-5-3.73-9.62-6.35-13.89a44,44,0,0,0-9.16-11.07,17.58,17.58,0,0,0-1.69-1.22,42.14,42.14,0,0,0-2.63-4.86,13.66,13.66,0,0,0-3.44-3.9,10.1,10.1,0,0,0,2.14,0,.15.15,0,0,0,0-.28h-.1A28.93,28.93,0,0,0,90.64,63a13.71,13.71,0,0,0-3.78-2.47,6.55,6.55,0,0,0,3.49-.81c.11-.06,0-.21-.08-.19l-.32.06c-4.43-2.32-7.21-6-9-10.7-2-5.32-2.87-11-4.81-16.36a36.48,36.48,0,0,0-5.46-10c-2-2.63-4.7-5.22-8.09-5.85.94-.18,1.86-.44,2.77-.68l.2.08a.12.12,0,0,0,.12-.19,4.55,4.55,0,0,0-1.8-.86h0a6,6,0,0,0-4.06-.81,16.75,16.75,0,0,0,2.11-2.48.09.09,0,0,0-.11-.13l-.25.16s0,0-.08-.06A19.07,19.07,0,0,0,56,12a42.5,42.5,0,0,0-5,.89,13.3,13.3,0,0,0-6.53,3.62c.19-.38.37-.76.53-1.14h0c0-.11-.08-.2-.18-.17-3.49.63-7.91,3.47-8.91,7.11,0,0,0,0,0-.07-.09-.35-.12-.71-.18-1.07a.15.15,0,0,0-.28,0s0,0,0,.06a.09.09,0,0,0-.08,0,40.48,40.48,0,0,0-2.45,6.23A6.25,6.25,0,0,0,33.9,33c1.34,1.88.93,4.19,2,6.17.62,1.12,1.53,2,2.1,3.19a10.55,10.55,0,0,1,.83,2.89c-.5,5,.85,10.21-.56,15.19a28.05,28.05,0,0,1-3.24,6.45c-1.2,2-2.3,4-1.67,6.42,0,0,0,.07,0,.11s.19.25.27.11h0a.15.15,0,0,0,.13-.16.11.11,0,0,1,0,0,16.53,16.53,0,0,1,1.78-2.47,23.67,23.67,0,0,0-4,9.17,18.28,18.28,0,0,0-.15,6c.08.59.17,1.2.27,1.82-.55,3-1.17,6-1.5,9.1s-.36,6.62,1,9.38a.23.23,0,0,0,.21.11h.09c.1,0,.2-.06.21-.17.06-.27.12-.53.19-.79a34.42,34.42,0,0,0,9,21.46,56.22,56.22,0,0,0,9.65,8.24A38.16,38.16,0,0,0,56,138.47c1.16.55,2.34,1.1,3.46,1.74,2.55,3.33,2.31,8,5.63,10.86a.2.2,0,0,0,.34-.14c0-.7.11-1.4.11-2.1a12.62,12.62,0,0,0,3,2.88.23.23,0,0,0,.39-.16c0-.61,0-1.24,0-1.85a8.66,8.66,0,0,0,2.62,2.4.23.23,0,0,0,.35-.2,10.62,10.62,0,0,1,1.17-4.82,7.77,7.77,0,0,0,1.16-2.82,17,17,0,0,1,1.27,2.21,10,10,0,0,0,3.65,4.07c1.06.63,2.28,1,3.39,1.5a22.21,22.21,0,0,1,3.35,2.07.13.13,0,0,0,0,.06c0,.15.28.16.3,0a6.75,6.75,0,0,0,0-1.62,4.89,4.89,0,0,0,2.86,1.77c.14,0,.32-.07.3-.23-.08-.82,0-1.69,0-2.52a7.09,7.09,0,0,0,2.45,2,.23.23,0,0,0,.34-.2,6.63,6.63,0,0,1,.58-3.68c.1-.2.2-.4.28-.61.27.52.56,1,.86,1.53,2.27,6.9,4.94,13.48,9.08,19.5a49.38,49.38,0,0,0,6.8,8c2.15,2,4.54,4.53,7.59,5.05a.23.23,0,0,0,.27-.15,8.7,8.7,0,0,0-1-6,20,20,0,0,0,6,3.48A34.1,34.1,0,0,0,133.25,183a.26.26,0,0,0,.26-.26,15.14,15.14,0,0,0-1.1-4.29,9.12,9.12,0,0,0-1.59-2.55c3.56,1.42,7.33,2.95,11.11,2.95a.26.26,0,0,0,.26-.25,7,7,0,0,0-.9-4.25,12.2,12.2,0,0,0,2.76,1.64,10.86,10.86,0,0,0,4,1.17c.05.29.51.28.5,0-.11-2.51-1.58-4.93-2.76-7.11a10.64,10.64,0,0,0,1.18.26,4.72,4.72,0,0,0,2.31.26s0,0,0,0C149.55,170.6,149.88,170.47,149.8,170.21Z"/>
            <path class="b8486b23-2846-4e59-9809-f855385c0300" d="M149.8,170.21c-1.7-5.13-5.58-9.58-9.17-13.51a73.5,73.5,0,0,0-6.41-6.19c-2.21-1.91-4.41-4-6.8-5.66.07-4.47-.76-9.09-1.4-13.51a84.66,84.66,0,0,0-3.17-13.62,71.14,71.14,0,0,0-5.1-12.07c-.53-1-1.1-1.93-1.68-2.88a.28.28,0,0,0,.07-.24c-.9-5-3.73-9.62-6.35-13.89a44,44,0,0,0-9.16-11.07,17.58,17.58,0,0,0-1.69-1.22,42.14,42.14,0,0,0-2.63-4.86,13.66,13.66,0,0,0-3.44-3.9,10.1,10.1,0,0,0,2.14,0,.15.15,0,0,0,0-.28h-.1A28.93,28.93,0,0,0,90.64,63a13.71,13.71,0,0,0-3.78-2.47,6.55,6.55,0,0,0,3.49-.81c.11-.06,0-.21-.08-.19l-.32.06c-4.43-2.32-7.21-6-9-10.7-2-5.32-2.87-11-4.81-16.36a36.48,36.48,0,0,0-5.46-10c-2-2.63-4.7-5.22-8.09-5.85.94-.18,1.86-.44,2.77-.68l.2.08a.12.12,0,0,0,.12-.19,4.55,4.55,0,0,0-1.8-.86h0a6,6,0,0,0-4.06-.81,16.75,16.75,0,0,0,2.11-2.48.09.09,0,0,0-.11-.13l-.25.16s0,0-.08-.06A19.07,19.07,0,0,0,56,12a42.5,42.5,0,0,0-5,.89,13.3,13.3,0,0,0-6.53,3.62c.19-.38.37-.76.53-1.14h0c0-.11-.08-.2-.18-.17-3.49.63-7.91,3.47-8.91,7.11,0,0,0,0,0-.07-.09-.35-.12-.71-.18-1.07a.15.15,0,0,0-.28,0s0,0,0,.06a.09.09,0,0,0-.08,0,40.48,40.48,0,0,0-2.45,6.23A6.25,6.25,0,0,0,33.9,33c1.34,1.88.93,4.19,2,6.17.62,1.12,1.53,2,2.1,3.19a10.55,10.55,0,0,1,.83,2.89c-.5,5,.85,10.21-.56,15.19a28.05,28.05,0,0,1-3.24,6.45c-1.2,2-2.3,4-1.67,6.42,0,0,0,.07,0,.11s.19.25.27.11h0a.15.15,0,0,0,.13-.16.11.11,0,0,1,0,0,16.53,16.53,0,0,1,1.78-2.47,23.67,23.67,0,0,0-4,9.17,18.28,18.28,0,0,0-.15,6c.08.59.17,1.2.27,1.82-.55,3-1.17,6-1.5,9.1s-.36,6.62,1,9.38a.23.23,0,0,0,.21.11h.09c.1,0,.2-.06.21-.17.06-.27.12-.53.19-.79a34.42,34.42,0,0,0,9,21.46,56.22,56.22,0,0,0,9.65,8.24A38.16,38.16,0,0,0,56,138.47c1.16.55,2.34,1.1,3.46,1.74,2.55,3.33,2.31,8,5.63,10.86a.2.2,0,0,0,.34-.14c0-.7.11-1.4.11-2.1a12.62,12.62,0,0,0,3,2.88.23.23,0,0,0,.39-.16c0-.61,0-1.24,0-1.85a8.66,8.66,0,0,0,2.62,2.4.23.23,0,0,0,.35-.2,10.62,10.62,0,0,1,1.17-4.82,7.77,7.77,0,0,0,1.16-2.82,17,17,0,0,1,1.27,2.21,10,10,0,0,0,3.65,4.07c1.06.63,2.28,1,3.39,1.5a22.21,22.21,0,0,1,3.35,2.07.13.13,0,0,0,0,.06c0,.15.28.16.3,0a6.75,6.75,0,0,0,0-1.62,4.89,4.89,0,0,0,2.86,1.77c.14,0,.32-.07.3-.23-.08-.82,0-1.69,0-2.52a7.09,7.09,0,0,0,2.45,2,.23.23,0,0,0,.34-.2,6.63,6.63,0,0,1,.58-3.68c.1-.2.2-.4.28-.61.27.52.56,1,.86,1.53,2.27,6.9,4.94,13.48,9.08,19.5a49.38,49.38,0,0,0,6.8,8c2.15,2,4.54,4.53,7.59,5.05a.23.23,0,0,0,.27-.15,8.7,8.7,0,0,0-1-6,20,20,0,0,0,6,3.48A34.1,34.1,0,0,0,133.25,183a.26.26,0,0,0,.26-.26,15.14,15.14,0,0,0-1.1-4.29,9.12,9.12,0,0,0-1.59-2.55c3.56,1.42,7.33,2.95,11.11,2.95a.26.26,0,0,0,.26-.25,7,7,0,0,0-.9-4.25,12.2,12.2,0,0,0,2.76,1.64,10.86,10.86,0,0,0,4,1.17c.05.29.51.28.5,0-.11-2.51-1.58-4.93-2.76-7.11a10.64,10.64,0,0,0,1.18.26,4.72,4.72,0,0,0,2.31.26s0,0,0,0C149.55,170.6,149.88,170.47,149.8,170.21Zm-39.53-57.32a7.29,7.29,0,0,1-5.07-2.47c2.66,4,5.24,8.32,4.8,13a.26.26,0,0,1-.34.25c-3.75-.69-6.92-3.43-8.88-6.69a12.56,12.56,0,0,1,.26,5.44.27.27,0,0,1-.39.16c-4.47-2.62-6.54-7.11-8.3-11.72a21.79,21.79,0,0,1,.14,6.35c0,.18-.25.22-.39.16-4.8-2.23-5-7.82-6.53-12.29.07,3,.16,6.18-1.39,8.85a.28.28,0,0,1-.42.06c-5.17-4.1-4.29-11-5.37-16.87-.77,5.22-1.55,10.46-1,15.74,0,.24-.3.35-.46.19-2.54-2.67-3.06-6.56-3.24-10.33a48.9,48.9,0,0,1-1.11,6.34.28.28,0,0,1-.45.12c-3.09-3-3.22-7.81-3-12.21a23,23,0,0,1-2.38,5.74.27.27,0,0,1-.42.05c-4.7-3.89-2.65-10.67-2.45-16.2a51.17,51.17,0,0,1-3,9.6.27.27,0,0,1-.46,0,9.59,9.59,0,0,1-1.17-5,21.74,21.74,0,0,1-1.18,2.49.27.27,0,0,1-.46,0,20.83,20.83,0,0,1-1.12-16.94c1-2.46,2.51-4.22,5.23-4.67s5.46.28,8,1.07a3.44,3.44,0,0,0-1.23-1.85c-.22-.2,0-.48.26-.45,1.33.2,2.43,1.09,3.74,1.28.87.13.86-4.44.87-5a.26.26,0,0,1,.49-.14,8.07,8.07,0,0,0,1.17,1.37c.49.45.69.15.93-.4a10.07,10.07,0,0,0,.61-3,.27.27,0,0,1,.5-.13,6.39,6.39,0,0,0,2.18,2.32h0l.39.25a.24.24,0,0,1,.08.36c4.18,5.66,11.19,7.48,17.36,10.2A16.78,16.78,0,0,1,104,83.51c1.64,2.22,3.21,4.8,3.49,7.6a.26.26,0,0,1-.45.19c-1.46-1.63-2.59-3.75-4.54-4.82,1.52,2.8,3.19,5.49,4.56,8.37,1.09,2.31,2.49,4.71,2.3,7.35a.27.27,0,0,1-.45.19c-2.06-2.23-3.49-5-5.71-7.06,1.48,3.06,2.84,6.16,4.31,9.23,1.22,2.56,2.81,5.17,3,8.06A.25.25,0,0,1,110.27,112.89Z"/>
            <path class="b8486b23-2846-4e59-9809-f855385c0300" d="M96.69,95.74a14.28,14.28,0,0,1,.07,4.66.26.26,0,0,1-.39.16c-2.29-1.74-3.56-4.31-4.8-6.84-.87-1.75-1.91-3.4-2.87-5.1.76,2.5,1.19,5,.18,7.64a.27.27,0,0,1-.45.12c-3.53-3.4-4.85-8.15-6.28-12.7l0-.05a8.75,8.75,0,0,1-.37-.83,11.07,11.07,0,0,1-2.28,6.77.28.28,0,0,1-.38,0c-3-2.33-4-6.25-4.63-10a29.51,29.51,0,0,0,1.28,9.65c.46,1.31.94,3,2,4,1.79,1.58,2.87-1.42,3.4-2.7a.28.28,0,0,1,.49-.07c2.69,4.55,4.22,10,9,12.84A9.25,9.25,0,0,0,91.43,99a.27.27,0,0,1,.5-.14c1.8,3.25,3.48,6.86,6.63,9a22.43,22.43,0,0,0-.66-8.59C97.56,98.08,97.14,96.91,96.69,95.74Z"/>
            <path class="b8486b23-2846-4e59-9809-f855385c0300" d="M90.27,59.48l-.32.06a17.66,17.66,0,0,1-4.49-3.33,38.85,38.85,0,0,0-8.67,2.42A38.32,38.32,0,0,0,65.67,66a76.14,76.14,0,0,1-6.11,5.54,14.89,14.89,0,0,1,3.75.38,15.4,15.4,0,0,1,3,.31c1-.81,1.41-2.43,1.82-3.53a.27.27,0,0,1,.45-.12L71,70.49a19.14,19.14,0,0,0,2.14-4.83.26.26,0,0,1,.44-.12c.64.68,1.21,1.42,1.88,2.06a11.31,11.31,0,0,0,1.24-3.54.26.26,0,0,1,.33-.19,18.1,18.1,0,0,0,5.15,1.38c-.52-.89-1.13-1.73-1.71-2.59a.27.27,0,0,1,.23-.41,18.6,18.6,0,0,0,6.93-1.4c-.25-.13-.5-.26-.77-.37a6.55,6.55,0,0,0,3.49-.81C90.46,59.61,90.38,59.46,90.27,59.48Z"/>
            <path class="b8486b23-2846-4e59-9809-f855385c0300" d="M92.87,67.59a10.1,10.1,0,0,0,2.14,0,.15.15,0,0,0,0-.28h-.1q-.24-.33-.51-.66C92.3,65.73,90.15,65,88,64.24c.39.65.86,1.25,1.27,1.89.12.19-.08.48-.3.39a45.69,45.69,0,0,1-4.89-2.71c2.52,3.32,4.84,6.83,9.3,7.54.31.05.23.52-.07.52a26.94,26.94,0,0,1-11.58-2.49,23.37,23.37,0,0,0,2.5,1.81,27.4,27.4,0,0,0,9.17,3.49,45,45,0,0,1,5.35,1.74c-.6-1.16-1.82-3.84-2.47-4.93A13.66,13.66,0,0,0,92.87,67.59Z"/>
            <path class="b8486b23-2846-4e59-9809-f855385c0300" d="M149.8,170.21c-1.7-5.13-5.58-9.58-9.17-13.51a73.5,73.5,0,0,0-6.41-6.19c-2.21-1.91-4.41-4-6.8-5.66.07-4.47-.76-9.09-1.4-13.51a84.66,84.66,0,0,0-3.17-13.62c-.24-.74-.49-1.47-.75-2.2.57,2.88,1.16,5.78,1.57,8.69a20.62,20.62,0,0,1-.14,8.39.27.27,0,0,1-.49.06,23,23,0,0,0-3.73-6.72,16.63,16.63,0,0,1,.12,4.17.26.26,0,0,1-.48.06c-2.37-4-4.07-9.17-8.18-11.81,1.54,4.22,4.15,8,4.75,12.57,0,.22-.24.3-.4.23-3.77-1.72-6.07-5.41-9-8.26a24.28,24.28,0,0,0,4.59,7.82,26.07,26.07,0,0,0,7,6.24,10.33,10.33,0,0,0,.4-4.07.27.27,0,0,1,.49-.14c3.24,4.44,6,10,5.56,15.63a.27.27,0,0,1-.34.26,21.38,21.38,0,0,1-7.47-4,26.93,26.93,0,0,1-5.75-5.73c-3.35-4.79-4.59-10.82-8.55-15.19.64,3,2.18,5.9,1.44,9a.27.27,0,0,1-.39.16A25.28,25.28,0,0,1,94,121.66c.16,1.52.27,3,.48,4.56,0,.19-.11.4-.32.33-6.09-2-6.83-8.91-7.8-14.45a22.19,22.19,0,0,0-1,4.76c0,.15-.18.32-.34.25-3.93-1.65-4.74-6.93-6-10.72-.47,4-.47,8.68,2,11.91a9.64,9.64,0,0,0,2.87,2.44,12.6,12.6,0,0,1,1.45.78c1.31,1,1.68,3.08,2.51,4.45a10.62,10.62,0,0,0,6.45,4.92,13.45,13.45,0,0,1,3.44,1.23,13.91,13.91,0,0,1,2.5,2.16c2,2.06,4.07,3.93,5.94,6.08s3.86,4.68,5.87,6.95a.26.26,0,0,1-.26.44c-5.67-1.44-7.73-7-11.28-11,.24,1.44.63,2.85.92,4.27a.27.27,0,0,1-.33.33c-4.64-.77-6.81-5-9.16-8.64a21.09,21.09,0,0,0,2.7,9c.15.24-.14.47-.37.36-3.6-1.74-5.25-5.36-6.83-8.82A116.14,116.14,0,0,0,81,121.34c.73,2.91,1.43,5.83,1.89,8.8,0,.25-.24.47-.44.26-5.9-6-6.77-14.05-8.17-21.94-.27,2.26-.29,4.66-1.57,6.57a.27.27,0,0,1-.46,0c-2.38-3.49-2.93-7.31-3.62-11.34-.55,1.28-1,2.6-1.62,3.86a.26.26,0,0,1-.41,0c-2.61-2.54-3.91-6.23-4.37-9.83-.53,2.38-1.07,4.94-.18,7.2.75,1.9,2.48,3,3.7,4.55a4.25,4.25,0,0,1,.25.39,5.92,5.92,0,0,0,1-.26.27.27,0,0,1,.33.19,13,13,0,0,0,2.68,6c1.12,1.35,2.32,2.46,2.65,4.25a23,23,0,0,0,2.22,6,12.44,12.44,0,0,1,1.54,5,.27.27,0,0,1-.4.23,15.53,15.53,0,0,1-7.58-7.5c-1.2-2.65-1.23-5.7-2.41-8.34-.13.61-.27,1.24-.37,1.86.27,1.87.68,4.07-.32,5.78a.27.27,0,0,1-.36.09c-6-3.51-4.13-11.3-4.84-17.13a61.8,61.8,0,0,0-2,7.62c-.06.28-.42.22-.51,0a17.65,17.65,0,0,1-.87-9.68,77.86,77.86,0,0,0,1.37-9,13.72,13.72,0,0,1-2.73,4.15.28.28,0,0,1-.42,0c-2.61-3.44-2.36-8.3-1.63-12.48a22.74,22.74,0,0,0-2.51,14.23c0,.28-.36.5-.49.21,0,0,0,0,0-.07a24.85,24.85,0,0,1-.4-19.35,29.78,29.78,0,0,1,5.72-8.93,11.8,11.8,0,0,0-2.11,1c-3.93,4.19-7,9-7.88,14.93a27.94,27.94,0,0,0,.2,10.07c.63,2.89,1.91,6.79,4.54,8.43a3.43,3.43,0,0,1,1.37,2.54c.24,1.36.4,2.71.76,4,.71,2.66,1.6,5.49,3.69,7.4a3.67,3.67,0,0,0,.35-.72c.06-.21.39-.29.49-.07a46.5,46.5,0,0,0,3.16,5.36c.28-.33.59-.62.88-.94a.28.28,0,0,1,.17-.2h0a.27.27,0,0,1,.42.06l.38.73a17.61,17.61,0,0,0,4.32,4.46c.07-.31.15-.62.2-.94s.38-.24.49-.07c3.29,5.22,8.86,9.19,14.5,11.7.65-.43,1.3-.84,1.91-1.33a.27.27,0,0,1,.45.12,12.39,12.39,0,0,0,5,6.65.29.29,0,0,1,.14.23,7,7,0,0,1-.71,2.68.28.28,0,0,1-.42.05,10.12,10.12,0,0,1-1.52-1.55c-.1.57-.21,1.13-.3,1.7a.28.28,0,0,1-.4.16,6.09,6.09,0,0,1-1.6-1.51c0,.51.07,1,.14,1.54a.28.28,0,0,1-.34.26,11.1,11.1,0,0,1-7.11-6.13.28.28,0,0,1,.16-.4c1.27-.49,2.6-.78,3.87-1.26-6.74.64-14-.44-19.53-4.18-5.3-1.35-9.85-4.41-13.94-8.24C42.57,125,36.21,120,35,113.19c-.05-.27.94,1.43,1.14,1.62a12.43,12.43,0,0,0,2.43,1.79,10,10,0,0,0,.46-2.34,8.33,8.33,0,0,0-.06-2.63c-.07-.14-.13-.29-.2-.43a10.31,10.31,0,0,1-.14,1.45.27.27,0,0,1-.33.19c-2-.66-2.07-3.06-2.68-4.73-.11-.3.33-.45.49-.21a1.84,1.84,0,0,0,.26.29,3.8,3.8,0,0,0,.93-2.11.27.27,0,0,1,.2-.24,8.81,8.81,0,0,1,.12-1.43,15.34,15.34,0,0,0,3.3,7.19c1,1.28,3.39,4.3,4.78,1.83a8.77,8.77,0,0,0,.66-5.6c-.38-1.93-2-3.49-2-5.53-.15,2,.73,3.91.37,5.88a10.07,10.07,0,0,1-.59,2.52c-1-.38-2-2.23-2.48-3.17a12.67,12.67,0,0,1-1.35-3.83A36.44,36.44,0,0,1,40,97a17.61,17.61,0,0,1-2.75,5.06.27.27,0,0,1-.45-.19c0-1,.08-2.08.18-3.12-.71,1.64-1.43,3.27-2,5-.06.2-.39.29-.48.07A10.15,10.15,0,0,1,34,97.92a20.61,20.61,0,0,0-1.1,2.8.27.27,0,0,1-.53-.07c-.19-1.72-.4-3.78.83-5.19,1.73-2,4.58-2.44,6.55-4.14a25.84,25.84,0,0,0,7.86-13.06c-3,3.93-6.09,8.25-10.38,10.68a.27.27,0,0,1-.4-.23,12.8,12.8,0,0,1,1.09-5.45A26.25,26.25,0,0,1,34,88.18a.27.27,0,0,1-.45-.11c-.79-2-1.67-4-2.37-6a17.89,17.89,0,0,0,.12,4c.08.59.17,1.2.27,1.82-.55,3-1.17,6-1.5,9.1s-.36,6.62,1,9.38a.23.23,0,0,0,.21.11h.09c.1,0,.2-.06.21-.17.06-.27.12-.53.19-.79a34.42,34.42,0,0,0,9,21.46,56.22,56.22,0,0,0,9.65,8.24A38.16,38.16,0,0,0,56,138.47c1.16.55,2.34,1.1,3.46,1.74,2.55,3.33,2.31,8,5.63,10.86a.2.2,0,0,0,.34-.14c0-.7.11-1.4.11-2.1a12.62,12.62,0,0,0,3,2.88.23.23,0,0,0,.39-.16c0-.61,0-1.24,0-1.85a8.66,8.66,0,0,0,2.62,2.4.23.23,0,0,0,.35-.2,10.62,10.62,0,0,1,1.17-4.82,7.77,7.77,0,0,0,1.16-2.82,17,17,0,0,1,1.27,2.21,10,10,0,0,0,3.65,4.07c1.06.63,2.28,1,3.39,1.5a22.21,22.21,0,0,1,3.35,2.07.13.13,0,0,0,0,.06c0,.15.28.16.3,0a6.75,6.75,0,0,0,0-1.62,4.89,4.89,0,0,0,2.86,1.77c.14,0,.32-.07.3-.23-.08-.82,0-1.69,0-2.52a7.09,7.09,0,0,0,2.45,2,.23.23,0,0,0,.34-.2,6.63,6.63,0,0,1,.58-3.68c.1-.2.2-.4.28-.61.27.52.56,1,.86,1.53,2.27,6.9,4.94,13.48,9.08,19.5a49.38,49.38,0,0,0,6.8,8c2.15,2,4.54,4.53,7.59,5.05a.23.23,0,0,0,.27-.15,8.7,8.7,0,0,0-1-6,20,20,0,0,0,6,3.48A34.1,34.1,0,0,0,133.25,183a.26.26,0,0,0,.26-.26,15.14,15.14,0,0,0-1.1-4.29,9.12,9.12,0,0,0-1.59-2.55c3.56,1.42,7.33,2.95,11.11,2.95a.26.26,0,0,0,.26-.25,7,7,0,0,0-.9-4.25,12.2,12.2,0,0,0,2.76,1.64,10.86,10.86,0,0,0,4,1.17c.05.29.51.28.5,0-.11-2.51-1.58-4.93-2.76-7.11a10.64,10.64,0,0,0,1.18.26,4.72,4.72,0,0,0,2.31.26s0,0,0,0C149.55,170.6,149.88,170.47,149.8,170.21Z"/>
            <g>
              <path class="ecbf0a0e-7d4c-46fa-b59d-90219d36ae2a" d="M149.8,170.21c-1.7-5.13-5.58-9.58-9.17-13.51a73.5,73.5,0,0,0-6.41-6.19c-2.21-1.91-4.41-4-6.8-5.66a3.28,3.28,0,0,0,0,.34.25.25,0,0,1-.29.24,1.79,1.79,0,0,1-.62-.24c.2.63.39,1.27.55,1.92a35.44,35.44,0,0,1,.9,5.34,7.85,7.85,0,0,1-.53,4.47c-.16.3-.59.06-.5-.23a43.56,43.56,0,0,1-7-4.39c-1.17-.84-2.33-1.72-3.45-2.63a48.2,48.2,0,0,1,3.28,4c.85,1.26,1.82,2.93,1.42,4.51a.24.24,0,0,1-.35.15,23.35,23.35,0,0,1-6.2-2.18,51.64,51.64,0,0,1-6.11-3.12c-3.37-2.07-6.52-4.67-8.35-8.2a18.56,18.56,0,0,0,2.52,4.51l.16,0a.25.25,0,0,1-.06.49c-2.35-.08-4.7-1.22-6.9-2a32.73,32.73,0,0,1-3.77-1.48l-.53-.27a20.88,20.88,0,0,0,.95,2.24L93,149c.27.52.56,1,.86,1.53,2.27,6.9,4.94,13.48,9.08,19.5a49.38,49.38,0,0,0,6.8,8c2.15,2,4.54,4.53,7.59,5.05a.23.23,0,0,0,.27-.15,8.7,8.7,0,0,0-1-6,20,20,0,0,0,6,3.48A34.1,34.1,0,0,0,133.25,183a.26.26,0,0,0,.26-.26,15.14,15.14,0,0,0-1.1-4.29,9.12,9.12,0,0,0-1.59-2.55c3.56,1.42,7.33,2.95,11.11,2.95a.26.26,0,0,0,.26-.25,7,7,0,0,0-.9-4.25,12.2,12.2,0,0,0,2.76,1.64,10.86,10.86,0,0,0,4,1.17c.05.29.51.28.5,0-.11-2.51-1.58-4.93-2.76-7.11a10.64,10.64,0,0,0,1.18.26,4.72,4.72,0,0,0,2.31.26s0,0,0,0C149.55,170.6,149.88,170.47,149.8,170.21Z"/>
              <path class="ecbf0a0e-7d4c-46fa-b59d-90219d36ae2a" d="M90.27,59.48l-.32.06c-4.43-2.32-7.21-6-9-10.7-2-5.32-2.87-11-4.81-16.36a36.48,36.48,0,0,0-5.46-10c-2-2.63-4.7-5.22-8.09-5.85.94-.18,1.86-.44,2.77-.68l.2.08a.12.12,0,0,0,.12-.19,4.55,4.55,0,0,0-1.8-.86h0a6,6,0,0,0-4.06-.81,16.75,16.75,0,0,0,2.11-2.48.09.09,0,0,0-.11-.13l-.25.16s0,0-.08-.06A19.07,19.07,0,0,0,56,12a42.5,42.5,0,0,0-5,.89,13.3,13.3,0,0,0-6.53,3.62c.19-.38.37-.76.53-1.14h0c0-.11-.08-.2-.18-.17-3.49.63-7.91,3.47-8.91,7.11,0,0,0,0,0-.07-.09-.35-.12-.71-.18-1.07a.15.15,0,0,0-.28,0s0,0,0,.06a.09.09,0,0,0-.08,0,40.48,40.48,0,0,0-2.45,6.23A6.25,6.25,0,0,0,33.9,33c1.34,1.88.93,4.19,2,6.17.62,1.12,1.53,2,2.1,3.19a10.55,10.55,0,0,1,.83,2.89c-.5,5,.85,10.21-.56,15.19a28.05,28.05,0,0,1-3.24,6.45c-1.2,2-2.3,4-1.67,6.42,0,0,0,.07,0,.11s.19.25.27.11h0a.15.15,0,0,0,.13-.16.11.11,0,0,1,0,0,16.53,16.53,0,0,1,1.78-2.47,23.67,23.67,0,0,0-4,9.17,18.28,18.28,0,0,0-.15,6c.08.59.17,1.2.27,1.82l.16.83a12,12,0,0,0,1.38,3.86.19.19,0,0,0,.35-.1,18.27,18.27,0,0,0,2.63-4.06,8.84,8.84,0,0,0,.38,2.94.29.29,0,0,0,.48.12,18.18,18.18,0,0,0,3.41-4.08,8.5,8.5,0,0,0,.34,2.31.3.3,0,0,0,.36.21,7.29,7.29,0,0,0,4.12-3.76,3.52,3.52,0,0,0,.49,1.6c.09-.28.18-.57.28-.86.37-1.1.77-2.17,1.17-3.23,1.38-3.7,3.17-7.43,6.35-9.92,3.36-2.63,7.67-2.72,11.72-2.16l.47.06a11.89,11.89,0,0,0,1.71-5.55A6.11,6.11,0,0,0,71,69v0a.14.14,0,0,0,.26.08c.6-1.45,1.42-3.43,1.11-5.1A13.54,13.54,0,0,0,75,66a.24.24,0,0,0,.35-.2,22.45,22.45,0,0,0,.06-3.37A7.4,7.4,0,0,0,78,63.61l.9.42c.13.06.32,0,.31-.17a6.41,6.41,0,0,0-1.28-3.3,9.07,9.07,0,0,0,4.09.86,10.43,10.43,0,0,0,1.85-.16A.21.21,0,0,0,84,61c-.06-.37-.13-.73-.21-1.09a11.31,11.31,0,0,0,2.44.53l.61,0a6.55,6.55,0,0,0,3.49-.81C90.46,59.61,90.38,59.46,90.27,59.48Z"/>
              <path class="e997b38b-8744-4b53-bdd0-f261fe4a0766" d="M90.27,59.48l-.32.06-.62-.34A9.37,9.37,0,0,1,86.08,59a10.58,10.58,0,0,1-4.75-2.61,7.92,7.92,0,0,1,1.15,3.51.27.27,0,0,1-.27.27,9.15,9.15,0,0,1-5-1.51,12.58,12.58,0,0,1-1.88-1.91,12.35,12.35,0,0,1,1.18,3.08c0,.18-.13.41-.33.33a6.57,6.57,0,0,1-2.43-1.81,12.75,12.75,0,0,1,.72,5.2.27.27,0,0,1-.4.23,12.59,12.59,0,0,1-4.23-4.38,23.71,23.71,0,0,1-1.34-2.67A16.61,16.61,0,0,1,69.11,65a.28.28,0,0,1-.45.12,16,16,0,0,1-3.56-5.58A23.19,23.19,0,0,1,65.1,70a.27.27,0,0,1-.49.06,22.1,22.1,0,0,1-3.67-8.21c-.35,2.56-.75,5.2-2.28,7.32a.27.27,0,0,1-.42,0,8.4,8.4,0,0,1-2-4.94A33.74,33.74,0,0,1,53,71.57a.28.28,0,0,1-.37.09,3.63,3.63,0,0,1-1.23-2.14,41.65,41.65,0,0,1-1.49,5.84,32.41,32.41,0,0,1-3.32,5.91.27.27,0,0,1-.49-.06c-.74-2-.31-4,.09-6-1.19,1.69-2.68,3.16-4,4.76-.15.19-.45,0-.45-.19,0-2.57,1.2-4.94,1.4-7.47a15.55,15.55,0,0,1-5.45,4.94.27.27,0,0,1-.41-.23c.09-3.15,1.37-6.38,2.4-9.33a24.13,24.13,0,0,1,3.74-7.25c.14-.17.38-.05.44.12.83,2.13.62,5,2.58,6.52,1.16-2.69.43-5.83,2.41-8.24a.27.27,0,0,1,.42,0c.92,1.56,1.33,3.41,2.39,4.89.08.1,1.17,1.69,1.54,1.11a6.45,6.45,0,0,0,.49-.89,14.94,14.94,0,0,0,1-2.75c.78-3.21,1.72-7.37.53-10.62q-.68,2.93-1.52,5.8a.27.27,0,0,1-.51,0c-.81-2.82-2-5.94-1.66-8.92a4.27,4.27,0,0,1,1.37-3c1.29-1.12,2.83-2.2,3.3-4a4.43,4.43,0,0,0-1.89-4.9c-.59-.44-.9-1-.42-1.63A4.22,4.22,0,0,1,56.37,33a3.75,3.75,0,0,1,2.47.73c-.35-.22-2-2.27-1.48-2.42s1.67,1.19,2,1.55c.62.61,2.07,1.54,2.41,2.26A57.89,57.89,0,0,0,58,28.53c-.51-.79-2-1.87-2.08-2.85,0-1.31,1.31-.09,1.74.25-1.5-3.12-4.25-8-8.43-5.8-1.83,1-2.87,3.08-4.78,3.87-1.66.69-2.26-.14-2.93-1.42a13.35,13.35,0,0,0-1.22,3.59c0,.16-.32.28-.45.11a4.32,4.32,0,0,1-.74-4c-.53.39-1,.82-1.55,1.23a.28.28,0,0,1-.45-.12,6.31,6.31,0,0,1,.11-3.62,7.44,7.44,0,0,0-1.32,2.56s0,0,0-.07c-.09-.35-.12-.71-.18-1.07a.15.15,0,0,0-.28,0s0,0,0,.06a.09.09,0,0,0-.08,0,40.48,40.48,0,0,0-2.45,6.23A6.25,6.25,0,0,0,33.9,33c1.34,1.88.93,4.19,2,6.17.62,1.12,1.53,2,2.1,3.19a10.55,10.55,0,0,1,.83,2.89c-.5,5,.85,10.21-.56,15.19a28.05,28.05,0,0,1-3.24,6.45c-1.2,2-2.3,4-1.67,6.42,0,0,0,.07,0,.11s.19.25.27.11a.15.15,0,0,0,.13-.16.11.11,0,0,1,0,0,16.53,16.53,0,0,1,1.78-2.47,23.67,23.67,0,0,0-4,9.17,18.28,18.28,0,0,0-.15,6c.08.59.17,1.2.27,1.82l.16.83a12,12,0,0,0,1.38,3.86.19.19,0,0,0,.35-.1,18.27,18.27,0,0,0,2.63-4.06,8.84,8.84,0,0,0,.38,2.94.29.29,0,0,0,.48.12,18.18,18.18,0,0,0,3.41-4.08,8.5,8.5,0,0,0,.34,2.31.3.3,0,0,0,.36.21,7.29,7.29,0,0,0,4.12-3.76,3.52,3.52,0,0,0,.49,1.6c.09-.28.18-.57.28-.86.37-1.1.77-2.17,1.17-3.23,1.38-3.7,3.17-7.43,6.35-9.92,3.36-2.63,7.67-2.72,11.72-2.16l.47.06a11.89,11.89,0,0,0,1.71-5.55A6.11,6.11,0,0,0,71,69v0a.14.14,0,0,0,.26.08c.6-1.45,1.42-3.43,1.11-5.1A13.54,13.54,0,0,0,75,66a.24.24,0,0,0,.35-.2,22.45,22.45,0,0,0,.06-3.37A7.4,7.4,0,0,0,78,63.61l.9.42c.13.06.32,0,.31-.17a6.41,6.41,0,0,0-1.28-3.3,9.07,9.07,0,0,0,4.09.86,10.43,10.43,0,0,0,1.85-.16A.21.21,0,0,0,84,61c-.06-.37-.13-.73-.21-1.09a11.31,11.31,0,0,0,2.44.53l.61,0a6.55,6.55,0,0,0,3.49-.81C90.46,59.61,90.38,59.46,90.27,59.48Z"/>
            </g>
            <g class="ba684b96-eda8-425f-b6b8-c8e0b43aa474">
              <path class="ecbf0a0e-7d4c-46fa-b59d-90219d36ae2a" d="M149.8,170.21c-1.7-5.13-5.58-9.58-9.17-13.51a73.5,73.5,0,0,0-6.41-6.19c-2.21-1.91-4.41-4-6.8-5.66a3.28,3.28,0,0,0,0,.34.25.25,0,0,1-.29.24,1.79,1.79,0,0,1-.62-.24c.2.63.39,1.27.55,1.92a35.44,35.44,0,0,1,.9,5.34,7.85,7.85,0,0,1-.53,4.47c-.16.3-.59.06-.5-.23a43.56,43.56,0,0,1-7-4.39c-1.17-.84-2.33-1.72-3.45-2.63a48.2,48.2,0,0,1,3.28,4c.85,1.26,1.82,2.93,1.42,4.51a.24.24,0,0,1-.35.15,23.35,23.35,0,0,1-6.2-2.18,51.64,51.64,0,0,1-6.11-3.12c-3.37-2.07-6.52-4.67-8.35-8.2a18.56,18.56,0,0,0,2.52,4.51l.16,0a.25.25,0,0,1-.06.49c-2.35-.08-4.7-1.22-6.9-2a32.73,32.73,0,0,1-3.77-1.48l-.53-.27a20.88,20.88,0,0,0,.95,2.24L93,149c.27.52.56,1,.86,1.53,2.27,6.9,4.94,13.48,9.08,19.5a49.38,49.38,0,0,0,6.8,8c2.15,2,4.54,4.53,7.59,5.05a.23.23,0,0,0,.27-.15,8.7,8.7,0,0,0-1-6,20,20,0,0,0,6,3.48A34.1,34.1,0,0,0,133.25,183a.26.26,0,0,0,.26-.26,15.14,15.14,0,0,0-1.1-4.29,9.12,9.12,0,0,0-1.59-2.55c3.56,1.42,7.33,2.95,11.11,2.95a.26.26,0,0,0,.26-.25,7,7,0,0,0-.9-4.25,12.2,12.2,0,0,0,2.76,1.64,10.86,10.86,0,0,0,4,1.17c.05.29.51.28.5,0-.11-2.51-1.58-4.93-2.76-7.11a10.64,10.64,0,0,0,1.18.26,4.72,4.72,0,0,0,2.31.26s0,0,0,0C149.55,170.6,149.88,170.47,149.8,170.21Z"/>
              <path class="e997b38b-8744-4b53-bdd0-f261fe4a0766" d="M142.1,174.9c-.73-1-1.53-1.89-2.36-2.81-1.44-1.59-3-3.13-4.26-4.86-.72-1-1.4-1.95-2.08-2.95,1,2.05,1.83,4.2,1.44,6.4a.26.26,0,0,1-.39.16c-3-2.3-6.5-3.65-9.64-5.69a64.54,64.54,0,0,1-8-6.51c-.25-.24.12-.61.38-.38a9.61,9.61,0,0,0,5.76,2.7,20.55,20.55,0,0,0-1.5-5.72c-.14-.25.2-.56.42-.32a10.64,10.64,0,0,0,7.11,3.23c-.42-2.53-.18-5.12-.61-7.65a17.33,17.33,0,0,0-1.49-4.44c.1.35.2.7.28,1.05a35.44,35.44,0,0,1,.9,5.34,7.85,7.85,0,0,1-.53,4.47c-.16.3-.59.06-.5-.23a43.56,43.56,0,0,1-7-4.39c-1.17-.84-2.33-1.72-3.45-2.63a48.2,48.2,0,0,1,3.28,4c.85,1.26,1.82,2.93,1.42,4.51a.24.24,0,0,1-.35.15,23.35,23.35,0,0,1-6.2-2.18,51.64,51.64,0,0,1-6.11-3.12c-3.37-2.07-6.52-4.67-8.35-8.2a18.56,18.56,0,0,0,2.52,4.51l.16,0a.25.25,0,0,1-.06.49c-2.35-.08-4.7-1.22-6.9-2a32.73,32.73,0,0,1-3.77-1.48l-.53-.27a20.88,20.88,0,0,0,.95,2.24L93,149c.27.52.56,1,.86,1.53,2.27,6.9,4.94,13.48,9.08,19.5a49.38,49.38,0,0,0,6.8,8c2.15,2,4.54,4.53,7.59,5.05a.23.23,0,0,0,.27-.15,8.7,8.7,0,0,0-1-6,20,20,0,0,0,6,3.48A34.1,34.1,0,0,0,133.25,183a.26.26,0,0,0,.26-.26,15.14,15.14,0,0,0-1.1-4.29,9.12,9.12,0,0,0-1.59-2.55c3.56,1.42,7.33,2.95,11.11,2.95a.26.26,0,0,0,.26-.25,7,7,0,0,0-.9-4.25A7.6,7.6,0,0,0,142.1,174.9Z"/>
              <path class="e997b38b-8744-4b53-bdd0-f261fe4a0766" d="M140.56,176.49a61.32,61.32,0,0,1-7.1-2,34.26,34.26,0,0,1-4.49-2.54q-3-1.86-6-3.85c-3.25-2.21-6.41-4.54-9.53-6.92a31.63,31.63,0,0,0,5.25,6.33c.24.19,4.64,3.76,4.35,3.66-9.35-3.21-16.55-9.67-20.17-16.43a14.41,14.41,0,0,1-1-1.93,11.65,11.65,0,0,0,2.3,1.73,12.64,12.64,0,0,1-1.38-2.07.27.27,0,0,1,.36-.37,51.53,51.53,0,0,0,14.52,5.39c-1-.39-2-.85-3-1.3a51.64,51.64,0,0,1-6.11-3.12c-3.37-2.07-6.52-4.67-8.35-8.2a18.56,18.56,0,0,0,2.52,4.51l.16,0a.25.25,0,0,1-.06.49c-2.35-.08-4.7-1.22-6.9-2a32.73,32.73,0,0,1-3.77-1.48l-.53-.27a20.88,20.88,0,0,0,.95,2.24L93,149c.27.52.56,1,.86,1.53,2.27,6.9,4.94,13.48,9.08,19.5a49.38,49.38,0,0,0,6.8,8c2.15,2,4.54,4.53,7.59,5.05a.23.23,0,0,0,.27-.15,8.7,8.7,0,0,0-1-6,20,20,0,0,0,6,3.48A34.1,34.1,0,0,0,133.25,183a.26.26,0,0,0,.26-.26,15.14,15.14,0,0,0-1.1-4.29,9.12,9.12,0,0,0-1.59-2.55c3.56,1.42,7.33,2.95,11.11,2.95a.26.26,0,0,0,.26-.25,7.53,7.53,0,0,0,0-1.58Z"/>
              <path class="b373798b-1f5b-46c2-a6d4-c8a25d79dca9" d="M141.29,174.31a7.6,7.6,0,0,0,.81.59c-.73-1-1.53-1.89-2.36-2.81-1.44-1.59-3-3.13-4.26-4.86-.72-1-1.4-1.95-2.08-2.95,1,2.05,1.83,4.2,1.44,6.4a.26.26,0,0,1-.39.16c-3-2.3-6.5-3.65-9.64-5.69-.51-.33-1-.68-1.51-1,3.5,2.52,3.54,3.82,12.22,8.24a12.08,12.08,0,0,1,4.41,3.47c.63.93-8.93-1.77-10-2.06a45.3,45.3,0,0,1-8.1-3.15,47.82,47.82,0,0,1-13.67-10.1,45,45,0,0,1-5.64-7.54c-.17-.26.19-.52.42-.32a3.44,3.44,0,0,0,1.7.92c-.19-.59-.44-1.15-.68-1.73-.11-.26.27-.44.45-.26a22.62,22.62,0,0,0,15.59,6.6,28.28,28.28,0,0,1-5.32-2,51.64,51.64,0,0,1-6.11-3.12c-3.37-2.07-6.52-4.67-8.35-8.2a18.56,18.56,0,0,0,2.52,4.51l.16,0a.25.25,0,0,1-.06.49c-2.35-.08-4.7-1.22-6.9-2a32.73,32.73,0,0,1-3.77-1.48l-.53-.27a20.88,20.88,0,0,0,.95,2.24L93,149c.27.52.56,1,.86,1.53,2.27,6.9,4.94,13.48,9.08,19.5a49.38,49.38,0,0,0,6.8,8c2.15,2,4.54,4.53,7.59,5.05a.23.23,0,0,0,.27-.15,8.7,8.7,0,0,0-1-6,20,20,0,0,0,6,3.48A34.1,34.1,0,0,0,133.25,183a.26.26,0,0,0,.26-.26,15.14,15.14,0,0,0-1.1-4.29,9.12,9.12,0,0,0-1.59-2.55c3.56,1.42,7.33,2.95,11.11,2.95a.26.26,0,0,0,.26-.25A7,7,0,0,0,141.29,174.31ZM115,180.75c-3.17-.86-5.85-3.85-7.85-6.31a44.17,44.17,0,0,1-4.48-6.43,15.82,15.82,0,0,1-3.09-5.61.27.27,0,0,1,.49-.21c4.75,6.4,12.6,10.33,15.26,18.23A.27.27,0,0,1,115,180.75Zm1-7.64c-8.55-4.81-15-12.71-18.93-21.61a.26.26,0,0,1,0-.27c-.12-.24-.23-.47-.33-.73s.28-.44.45-.25c3.76,3.95,6.67,8.62,10.67,12.37,3.18,3,7.06,5.89,8.51,10.19A.27.27,0,0,1,116,173.11Zm15.09,7.71c0,.16-.08.37-.26.34a21.29,21.29,0,0,1-6-1.61c.38.2.77.4,1.15.58s0,.61-.26.46A22.85,22.85,0,0,1,119,176c-.15-.15,0-.48.19-.46a11.94,11.94,0,0,0,1.34,0,4.53,4.53,0,0,1-.39-3,.27.27,0,0,1,.39-.16C124.22,174.54,130.09,176,131.1,180.82Z"/>
              <path class="ecbf0a0e-7d4c-46fa-b59d-90219d36ae2a" d="M61,69.16c-.52.83-1.25,1.69-1.92.71-.61.58-1.68,1.93-2.49,1.36a3,3,0,0,1-1.16-2.31,13.72,13.72,0,0,1-3.54,4.88c-.18.14-.37-.06-.4-.23s0-.47-.07-.7a51.18,51.18,0,0,1-3.78,7.9c-1.22,2.24-2.74,4.8-5.19,5.85a.26.26,0,0,1-.39-.15,8.94,8.94,0,0,1,.41-5C41.22,83.27,40,85.14,38.8,87a.27.27,0,0,1-.5-.13A18.49,18.49,0,0,1,40,79.93a12.71,12.71,0,0,1-2,1.35.27.27,0,0,1-.37-.37c1.22-2.22,2.82-4.18,4.2-6.29a32.56,32.56,0,0,1-6.06,5.23.26.26,0,0,1-.4-.23,14.26,14.26,0,0,1,.5-3.34,14.76,14.76,0,0,0-1.3,5.66,8.72,8.72,0,0,0,1.86-1.52c.22-.23.54,0,.42.32-.92,2-1.87,4.14-3.75,5.35a.27.27,0,0,1-.39-.16c-1.37-3.35-.77-7.29.52-10.57a18.69,18.69,0,0,1,5.5-7.91A18.92,18.92,0,0,0,34.87,70c-.2.14-.44-.1-.39-.3.64-2.48,3-4.15,4.05-6.47.93-2.1,3.47-2.67,4.62-4.64.1-.19.45-.18.48.06a15,15,0,0,0,1.47,5.11c1.57-2,2.4-4.48,3.66-6.69a.27.27,0,0,1,.46,0,9.34,9.34,0,0,0,1.25,2.31,7.82,7.82,0,0,1,.22-2.15.27.27,0,0,1,.39-.17,7.85,7.85,0,0,0,2.45.89c-.37-1.38-1.18-2.69-1.58-4.07-.3-1.05-.56-2.11-.86-3.16a37.61,37.61,0,0,1-.69,5.4c0,.25-.35.23-.49.06a11.92,11.92,0,0,1-1.5-3.65c-.77,3.22-1,6.55-2.28,9.65-.08.18-.38.3-.49.06-.89-1.94-.89-4.05-1.29-6.1a4.64,4.64,0,0,1-2.41,2.57.27.27,0,0,1-.35-.25,14.55,14.55,0,0,1,.43-4c.21-.7.94-1,1.55-1.23a8.31,8.31,0,0,0,4.24-3.48,10,10,0,0,1,2.06-3.29c2.22-1.87,5.78-3.8,4.64-7.33-1-3.22-4.64-.23-6.29.74S44.88,41,44.55,38.75a11.74,11.74,0,0,0-.81-3.81,5.29,5.29,0,0,1-.9-2.88c.06-.44.3-1.18.84-1.2s.74.88.84,1.22c.72,2.38.78,4.88,2.17,7,.26-.77.33-1.58.53-2.37a.26.26,0,0,1,.32-.19c1.13.37,3,1.26,4.14.56,1.36-.84,1.66-2.9,1.67-4.37,0-2.69-.72-6.71-3.72-7.61a.26.26,0,0,1-.19-.25c.2-2.73,3-.52,4.47.78-.57-1.81-1.63-4-3.48-4.47-2.46-.59-3.7,1.6-4.64,3.43-.35.69-1.11,2.57-2.24,2.1s-1.34-1.5-2-2.32c.09,2.32,1,5,0,7.12-.72,1.42-1.92,1.66-2.44,0-.6-2-.52-4-1.42-5.88-.28-.59-.66-1.49-1.31-1.76-1-.43-1.67.85-1.9,1.58A16,16,0,0,0,34,28l.28-.41a.27.27,0,0,1,.49.21,20.75,20.75,0,0,0-.67,5.49c1.14,1.84.82,4,1.87,5.93.62,1.12,1.53,2,2.1,3.19a10.55,10.55,0,0,1,.83,2.89c-.5,5,.85,10.21-.56,15.19a28.05,28.05,0,0,1-3.24,6.45c-1.2,2-2.3,4-1.67,6.42,0,0,0,.07,0,.11s.19.25.27.11h0a.15.15,0,0,0,.13-.16.11.11,0,0,1,0,0,16.53,16.53,0,0,1,1.78-2.47,23.67,23.67,0,0,0-4,9.17,18.28,18.28,0,0,0-.15,6c.08.59.17,1.2.27,1.82l.16.83a12,12,0,0,0,1.38,3.86.19.19,0,0,0,.35-.1,18.27,18.27,0,0,0,2.63-4.06,8.84,8.84,0,0,0,.38,2.94.29.29,0,0,0,.48.12,18.18,18.18,0,0,0,3.41-4.08,8.5,8.5,0,0,0,.34,2.31.3.3,0,0,0,.36.21,7.29,7.29,0,0,0,4.12-3.76,3.52,3.52,0,0,0,.49,1.6c.09-.28.18-.57.28-.86.37-1.1.77-2.17,1.17-3.23,1.38-3.7,3.17-7.43,6.35-9.92,2.68-2.1,6-2.58,9.25-2.4A6.94,6.94,0,0,1,61,69.16Z"/>
              <path class="e997b38b-8744-4b53-bdd0-f261fe4a0766" d="M61,69.16c-.52.83-1.25,1.69-1.92.71-.61.58-1.68,1.93-2.49,1.36a3,3,0,0,1-1.16-2.31,13.72,13.72,0,0,1-3.54,4.88c-.18.14-.37-.06-.4-.23s0-.47-.07-.7a51.18,51.18,0,0,1-3.78,7.9c-1.22,2.24-2.74,4.8-5.19,5.85a.26.26,0,0,1-.39-.15,8.94,8.94,0,0,1,.41-5C41.22,83.27,40,85.14,38.8,87a.27.27,0,0,1-.5-.13A18.49,18.49,0,0,1,40,79.93a12.71,12.71,0,0,1-2,1.35.27.27,0,0,1-.37-.37c1.22-2.22,2.82-4.18,4.2-6.29a32.56,32.56,0,0,1-6.06,5.23c-.17.12,0-.57,0-.76a15.71,15.71,0,0,1,.62-3.56,19.35,19.35,0,0,0-1.78,6.41,8.72,8.72,0,0,0,1.86-1.52c.22-.23.54,0,.42.32-.92,2-1.87,4.14-3.75,5.35a.27.27,0,0,1-.39-.16c-1.37-3.35-.77-7.29.52-10.57a18.69,18.69,0,0,1,5.5-7.91A18.92,18.92,0,0,0,34.87,70c-.2.14-.44-.1-.39-.3.64-2.48,3-4.15,4.05-6.47.93-2.1,3.47-2.67,4.62-4.64.1-.19.45-.18.48.06a15,15,0,0,0,1.47,5.11c1.57-2,2.4-4.48,3.66-6.69a.27.27,0,0,1,.46,0,9.34,9.34,0,0,0,1.25,2.31,7.82,7.82,0,0,1,.22-2.15.27.27,0,0,1,.39-.17,7.85,7.85,0,0,0,2.45.89c-.37-1.38-1.18-2.69-1.58-4.07-.3-1.05-.56-2.11-.86-3.16a37.61,37.61,0,0,1-.69,5.4c0,.25-.35.23-.49.06a11.92,11.92,0,0,1-1.5-3.65c-.77,3.22-1,6.55-2.28,9.65-.08.18-.38.3-.49.06-.89-1.94-.89-4.05-1.29-6.1a4.64,4.64,0,0,1-2.41,2.57.27.27,0,0,1-.35-.25,14.55,14.55,0,0,1,.43-4c.21-.7.94-1,1.55-1.23a8.31,8.31,0,0,0,4.24-3.48,10,10,0,0,1,2.06-3.29c2.22-1.87,5.78-3.8,4.64-7.33-1-3.22-4.64-.23-6.29.74S44.88,41,44.55,38.75a11.74,11.74,0,0,0-.81-3.81,5.29,5.29,0,0,1-.9-2.88c.06-.44.3-1.18.84-1.2s.74.88.84,1.22c.72,2.38.78,4.88,2.17,7,.26-.77.33-1.58.53-2.37a.26.26,0,0,1,.32-.19c1.13.37,3,1.26,4.14.56,1.36-.84,1.66-2.9,1.67-4.37,0-2.69-.72-6.71-3.72-7.61a.26.26,0,0,1-.19-.25c.2-2.73,3-.52,4.47.78-.57-1.81-1.63-4-3.48-4.47-2.46-.59-3.7,1.6-4.64,3.43-.35.69-1.11,2.57-2.24,2.1s-1.34-1.5-2-2.32c.09,2.32,1,5,0,7.12-.72,1.42-1.92,1.66-2.44,0-.6-2-.52-4-1.42-5.88-.28-.59-.66-1.49-1.31-1.76a.9.9,0,0,0-.38-.08c-.88,1.08-1.32,3.05-1.74,4.39a.24.24,0,0,1,.27.32c-.31.89-.25,3-1.32,3.39A7.6,7.6,0,0,0,33.9,33c1.34,1.88.93,4.19,2,6.17.62,1.12,1.53,2,2.1,3.19a10.55,10.55,0,0,1,.83,2.89c-.5,5,.85,10.21-.56,15.19a28.05,28.05,0,0,1-3.24,6.45c-1.2,2-2.3,4-1.67,6.42,0,0,0,.07,0,.11s.19.25.27.11a.15.15,0,0,0,.13-.16.11.11,0,0,1,0,0,16.53,16.53,0,0,1,1.78-2.47,23.67,23.67,0,0,0-4,9.17,18.28,18.28,0,0,0-.15,6c.08.59.17,1.2.27,1.82l.16.83a12,12,0,0,0,1.38,3.86.19.19,0,0,0,.35-.1,18.27,18.27,0,0,0,2.63-4.06,8.84,8.84,0,0,0,.38,2.94.29.29,0,0,0,.48.12,18.18,18.18,0,0,0,3.41-4.08,8.5,8.5,0,0,0,.34,2.31.3.3,0,0,0,.36.21,7.29,7.29,0,0,0,4.12-3.76,3.52,3.52,0,0,0,.49,1.6c.09-.28.18-.57.28-.86.37-1.1.77-2.17,1.17-3.23,1.38-3.7,3.17-7.43,6.35-9.92,2.68-2.1,6-2.58,9.25-2.4A6.94,6.94,0,0,1,61,69.16Z"/>
            </g>
            <path class="a5a11ac2-806f-4c01-8723-ef8cc9a6cb09" d="M53.22,24.26c-.2-.39-.39-.88-.63-1.36-.39-1-1.13-2.16-2.26-2.3a3.48,3.48,0,0,0-2.66,1.16c-1,.83-1.73,1.83-2.65,2.69a4.06,4.06,0,0,1-1.52.91c-.75.24-1.24-.48-1.69-.95-.09-.09-.22,0-.17.13a2.24,2.24,0,0,0,.13.27c.38,1.22.67,3.45,1.95,3.88s1.73-1.22,2.17-2A29.15,29.15,0,0,1,48.31,23c.52-.65,1.5-1.66,2.44-1.25a6.47,6.47,0,0,1,2.3,2.64C53.11,24.47,53.27,24.37,53.22,24.26Z"/>
            <path class="a5a11ac2-806f-4c01-8723-ef8cc9a6cb09" d="M38.85,28a.07.07,0,0,0,0-.07A15.25,15.25,0,0,0,37.67,25c-.29-.57-.75-1.5-1.47-1.61-1.23-.19-1.46,2.54-1.68,3.38a6,6,0,0,0-.27.89c0,.09.12.16.17.07.2-.44.42-.88.66-1.3.51-.89,1.13-.63,1.76-.11.82.69,1.35,1.62,2.12,2.35,0,0,.14,0,.12-.07A3,3,0,0,0,38.85,28Z"/>
            <g>
              <path class="a5bad2d3-ce6f-4c34-9933-ec600e4a6a80" d="M53.86,33.18c.14-.07.15-1,.16-1.11a5.05,5.05,0,0,0-.15-1.16,14,14,0,0,0-1-2.43c-1.36-2.26-4-4.78-6.27-2.73a6.42,6.42,0,0,0-1.38,2.44,11.18,11.18,0,0,0,.06,5.13,8.08,8.08,0,0,0,1.25,2.25,7.6,7.6,0,0,1-1.08-4.09c.26,1,.19,2.88,1.82,4.51a3.52,3.52,0,0,0,4.23.63,2.58,2.58,0,0,0,.37,1.53c-.24-4.06,3.69-5.27,3.69-5.27A3.16,3.16,0,0,0,53.86,33.18Z"/>
              <g>
                <path class="bb5518ed-1f5a-43cd-b3f5-b55bd423f907" d="M53.19,30.55c.92,2.92-.46,5.62-2.65,6.08s-4-1.5-4.68-4.38.06-5.66,1.87-6.25S52.27,27.64,53.19,30.55Z"/>
                <path class="bc7ee245-31e4-42cd-94e0-a78413bf7fed" d="M53,30.54c.62,2.06.21,4.62-1.88,5.76-2.78,1.52-4.53-2-5.06-4s-.47-4.66,1.25-5.9c2.36-1.7,5,2.11,5.69,4.18,0,.12.51.17.47,0-.79-2.34-3.24-5.14-5.57-4.72-2.52.46-2.63,4.2-2.17,6.4s2,4.75,4.71,4.52c3.06-.26,3.65-4,3-6.2C53.4,30.46,52.91,30.39,53,30.54Z"/>
              </g>
              <g>
                <g class="ba684b96-eda8-425f-b6b8-c8e0b43aa474">
                  <path class="ad45d0e2-07cc-499d-be87-4aa16d664e27" d="M51,35.77c1.71-.22,2.74-2.29,2.08-4.8s-2.65-4.55-4.17-4.27-2.26,2.48-1.66,5S49.31,36,51,35.77Zm-3.63-4.38c-.54-2.32.19-4.33,1.58-4.58s3.22,1.6,3.85,3.92-.34,4.23-2,4.43S47.94,33.71,47.39,31.39Z"/>
                </g>
                <g class="b3df133a-2f99-4570-b6bd-e0398050fef1">
                  <path class="b05569f6-5dce-4ccd-84c2-7aefdf5d9e31" d="M51,35.77c1.71-.22,2.74-2.29,2.08-4.8s-2.65-4.55-4.17-4.27-2.26,2.48-1.66,5S49.31,36,51,35.77Z"/>
                </g>
                <g class="a410bae5-68df-4799-ad43-632f37af28db">
                  <path class="b05569f6-5dce-4ccd-84c2-7aefdf5d9e31" d="M48.27,31.9c-.39-1.72.2-3.16,1.33-3.29h.24a.73.73,0,0,1,.45-.63c.47-.13,1.13.4,1.46,1.18a2.19,2.19,0,0,1,.18,1,4.74,4.74,0,0,1,.54,1.28c.43,1.69-.33,3.11-1.54,3.26S48.65,33.61,48.27,31.9Z"/>
                </g>
                <path class="af83d579-5ec0-4f45-afa1-604790666435" d="M48.78,31.77c.29,1.28,1.12,2.19,2,2.08S52.29,32.66,52,31.4s-1.29-2.19-2.16-2.1S48.5,30.49,48.78,31.77Z"/>
                <path class="ee97861b-264c-4a22-a76f-c9b71e0fa6f4" d="M50.41,29.82c.43.6,1.11.91,1.47.66s.25-.95-.17-1.52-1.08-1-1.41-.7S50,29.23,50.41,29.82Z"/>
                <g class="b1d6499a-ad23-49c0-ba87-3eb3b155e606">
                  <path class="f8a96d60-9f7e-4a8d-b799-a0260ec89f93" d="M47.82,30.84c.15,1,.61,3,2.08,3.47.85.28-1,.67-1.87-1.37C47.33,31.37,47.64,29.54,47.82,30.84Z"/>
                </g>
                <g class="b1d6499a-ad23-49c0-ba87-3eb3b155e606">
                  <path class="f8a96d60-9f7e-4a8d-b799-a0260ec89f93" d="M47.74,29.71c.21,0,.25.57-.05.55S47.45,29.7,47.74,29.71Z"/>
                </g>
              </g>
              <path class="b090f37f-ca57-4adf-bc50-6ab1dbdf2bb1" d="M46.52,26.81s-1.24,1.06-.88,4.82a8.52,8.52,0,0,0,3.39,5,12.77,12.77,0,0,1-2.1-1.33c-.64-.59-.94,1.4-.53,2.55C46.4,37.88,43.27,30.38,46.52,26.81Z"/>
              <path class="bc7ee245-31e4-42cd-94e0-a78413bf7fed" d="M45.38,32.31a1.37,1.37,0,0,1,0-.17c0-.1-.07-.25-.1-.46a6.45,6.45,0,0,1-.08-.74,3.61,3.61,0,0,1,0-.47,4.43,4.43,0,0,1,0-.51,5.54,5.54,0,0,1,0-.56l0-.29c0-.1,0-.2.06-.3a6,6,0,0,1,.31-1.23,2.81,2.81,0,0,1,.69-1.09,3.24,3.24,0,0,1,1.21-.65,3,3,0,0,1,.32-.08l.3,0c.21,0,.43,0,.64,0a3.18,3.18,0,0,1,1.24.38,5.63,5.63,0,0,1,1.16,1,9.08,9.08,0,0,1,.92,1.15,6.83,6.83,0,0,1,.59,1,7.37,7.37,0,0,1,.31.71,3.58,3.58,0,0,1,.14.48,1.66,1.66,0,0,0,0,.16s-.09-.23-.28-.62a4.24,4.24,0,0,0-.37-.67c-.07-.13-.17-.25-.28-.41s-.23-.34-.36-.51A10,10,0,0,0,51,27.27a4.75,4.75,0,0,0-1.08-.82,2.81,2.81,0,0,0-1.15-.34,2.73,2.73,0,0,0-.57,0l-.31,0-.27.07a3.57,3.57,0,0,0-1.07.6,2.48,2.48,0,0,0-.68,1,5.56,5.56,0,0,0-.34,1.12l-.06.28c0,.09,0,.18,0,.27s0,.36-.07.53,0,.34,0,.5a3.39,3.39,0,0,0,0,.44,5.48,5.48,0,0,0,0,.74,3.54,3.54,0,0,0,0,.47Z"/>
              <g>
                <path class="ee97861b-264c-4a22-a76f-c9b71e0fa6f4" d="M54.16,34.41c.2.09.15.49-.11.89s-.67.64-.88.54-.15-.49.12-.89S54,34.31,54.16,34.41Z"/>
                <path class="ee97861b-264c-4a22-a76f-c9b71e0fa6f4" d="M55.18,33.87c.07.08,0,.24-.12.36s-.3.13-.36,0,0-.25.11-.36S55.11,33.77,55.18,33.87Z"/>
                <path class="bc7ee245-31e4-42cd-94e0-a78413bf7fed" d="M51.88,37.46a2.76,2.76,0,0,1,0-.88,4.25,4.25,0,0,1,2.89-3.27l.23-.07A6.48,6.48,0,0,0,51.88,37.46Z"/>
              </g>
            </g>
            <g>
              <path class="a5bad2d3-ce6f-4c34-9933-ec600e4a6a80" d="M38.7,34.81a2.94,2.94,0,0,0,.21-.84A5.8,5.8,0,0,0,39,33a17.23,17.23,0,0,0-.23-2.15c-.44-2.08-1.53-4.67-2.93-3.57a4.61,4.61,0,0,0-1,1.59A13.26,13.26,0,0,0,34.25,33a10.29,10.29,0,0,0,.39,2,9.47,9.47,0,0,1-.09-3.46,9.5,9.5,0,0,0,.43,4c.78,2,2.11,1.47,2.11,1.47a3.25,3.25,0,0,0,0,1.29C37.44,35,39.61,35,39.61,35A1.14,1.14,0,0,0,38.7,34.81Z"/>
              <g>
                <path class="bb5518ed-1f5a-43cd-b3f5-b55bd423f907" d="M38.65,32.59c.15,2.51-.87,4.31-2.06,4.17s-1.9-2.1-1.92-4.52.68-4.43,1.69-4.49S38.51,30.08,38.65,32.59Z"/>
                <path class="bc7ee245-31e4-42cd-94e0-a78413bf7fed" d="M38.54,32.52c.08,1.76-.42,3.68-1.63,4.1-1.61.55-2.12-2.61-2.15-4.33s.29-3.78,1.32-4.35c1.41-.79,2.32,2.8,2.46,4.58,0,.11.24.26.23.14-.13-2-1.08-4.78-2.33-5s-1.84,2.68-1.85,4.52.47,4.18,1.91,4.63c1.61.5,2.34-2.27,2.27-4.17C38.77,32.56,38.53,32.4,38.54,32.52Z"/>
              </g>
              <g class="ba684b96-eda8-425f-b6b8-c8e0b43aa474">
                <path class="ab5afe74-4ab7-4f83-919c-3eaaf20b0bac" d="M38.65,32.59c-.14-2.51-1.28-4.89-2.29-4.84s-1.7,2.07-1.69,4.49.74,4.38,1.92,4.52S38.8,35.1,38.65,32.59Zm-2.18,3.35c-1-.12-1.57-1.84-1.59-4s.6-3.92,1.46-4,1.78,2,1.94,4.25S37.51,36.06,36.47,35.94Z"/>
              </g>
              <g>
                <path class="b05569f6-5dce-4ccd-84c2-7aefdf5d9e31" d="M35.47,32.12c0,2.12.56,3.84,1.47,4.07S38.62,35,38.56,32.9s-.85-4.19-1.66-4.31S35.45,30,35.47,32.12Z"/>
                <g class="ba684b96-eda8-425f-b6b8-c8e0b43aa474">
                  <path class="ad45d0e2-07cc-499d-be87-4aa16d664e27" d="M36.94,36.19c.91.22,1.68-1.17,1.62-3.29s-.85-4.19-1.66-4.31S35.45,30,35.47,32.12,36,36,36.94,36.19Zm-1.38-4.27c0-2,.59-3.36,1.35-3.24s1.48,2,1.54,4-.66,3.25-1.52,3S35.58,33.87,35.56,31.92Z"/>
                </g>
                <g class="a410bae5-68df-4799-ad43-632f37af28db">
                  <path class="b05569f6-5dce-4ccd-84c2-7aefdf5d9e31" d="M36.94,36.19c.91.22,1.68-1.17,1.62-3.29s-.85-4.19-1.66-4.31S35.45,30,35.47,32.12,36,36,36.94,36.19Zm-1-5.8c.3-.53.33-.15.22.35a6.31,6.31,0,0,0,0,3.34c.23.55.55.81.57,1s-.69.17-1-1A6.58,6.58,0,0,1,36,30.39Z"/>
                </g>
                <g class="a410bae5-68df-4799-ad43-632f37af28db">
                  <path class="b05569f6-5dce-4ccd-84c2-7aefdf5d9e31" d="M36,32.52c0-1.44.47-2.44,1.07-2.28l.12.05c.06-.22.17-.39.3-.39s.54.57.62,1.27a2.54,2.54,0,0,1,0,.79,5.82,5.82,0,0,1,.14,1.13c0,1.43-.53,2.37-1.17,2.21S36,34,36,32.52Z"/>
                </g>
                <path class="af83d579-5ec0-4f45-afa1-604790666435" d="M36.24,32.53c0,1.07.33,2,.81,2.11s.9-.59.88-1.66-.41-2-.87-2.14S36.24,31.46,36.24,32.53Z"/>
                <path class="ee97861b-264c-4a22-a76f-c9b71e0fa6f4" d="M37.05,31.09c.2.77.64,1.3.92,1.15s.33-.93.12-1.67-.6-1.36-.88-1.18S36.85,30.32,37.05,31.09Z"/>
                <g class="b1d6499a-ad23-49c0-ba87-3eb3b155e606">
                  <path class="f8a96d60-9f7e-4a8d-b799-a0260ec89f93" d="M35.85,31.58c0,.84,0,2.5.68,3.21.4.41-.58.3-.81-1.51C35.54,31.89,35.9,30.52,35.85,31.58Z"/>
                </g>
                <g class="b1d6499a-ad23-49c0-ba87-3eb3b155e606">
                  <path class="f8a96d60-9f7e-4a8d-b799-a0260ec89f93" d="M35.94,30.67c.11,0,.06.51-.09.43S35.79,30.61,35.94,30.67Z"/>
                </g>
              </g>
              <path class="bc7ee245-31e4-42cd-94e0-a78413bf7fed" d="M34.42,32.18V32c0-.09,0-.22,0-.39s0-.38,0-.6,0-.24,0-.37,0-.27.07-.4a3.67,3.67,0,0,1,.09-.43c0-.07,0-.14,0-.22l.06-.22a6.2,6.2,0,0,1,.3-.89,1.91,1.91,0,0,1,.49-.7,1.16,1.16,0,0,1,.7-.24,1.28,1.28,0,0,1,.17,0l.16,0a1.61,1.61,0,0,1,.33.15,2,2,0,0,1,.59.58,4.3,4.3,0,0,1,.49,1,9.37,9.37,0,0,1,.35,1.11A10,10,0,0,1,38.63,32c0,.17,0,.31,0,.41v.14a5.15,5.15,0,0,0-.07-.55,4.83,4.83,0,0,0-.11-.62c0-.11-.06-.23-.1-.38s-.08-.32-.13-.49c-.1-.33-.22-.69-.35-1.05a6.22,6.22,0,0,0-.47-.9,1.54,1.54,0,0,0-.85-.66l-.16,0h-.15a1.2,1.2,0,0,0-.62.22,1.65,1.65,0,0,0-.47.61,5.08,5.08,0,0,0-.3.8l-.06.21-.06.21-.09.4c0,.13,0,.26-.07.38a2.21,2.21,0,0,0-.06.34,5,5,0,0,0-.07.58,3.61,3.61,0,0,0,0,.39Z"/>
              <path class="bc7ee245-31e4-42cd-94e0-a78413bf7fed" d="M37.19,37.72a3.46,3.46,0,0,1,.09-.7,2.26,2.26,0,0,1,1.88-1.9h.12A3.84,3.84,0,0,0,37.19,37.72Z"/>
            </g>
            <g class="a410bae5-68df-4799-ad43-632f37af28db">
              <path class="bdf3ff97-1a27-4cd1-98af-43900748e342" d="M114.11,123.66a.11.11,0,0,0-.2.08c.9,3.14,2.09,6.12,2.46,9.38-3.08-1.86-5.14-4.92-7.23-7.78a.09.09,0,0,0-.15.09c1.88,3.1,4.11,6.84,7.56,8.39.16.07.41,0,.39-.22A28,28,0,0,0,114.11,123.66Z"/>
              <path class="bdf3ff97-1a27-4cd1-98af-43900748e342" d="M90.08,90.68c0-.07-.14,0-.12,0a12.72,12.72,0,0,1-.44,9.09,14.67,14.67,0,0,1-4.93-6.29,25,25,0,0,1-1.67-7.63,0,0,0,0,0-.08,0A20.61,20.61,0,0,0,84.28,94a14,14,0,0,0,5.08,6.25c0,.22.38.34.49.11A11.45,11.45,0,0,0,90.08,90.68Z"/>
              <path class="bdf3ff97-1a27-4cd1-98af-43900748e342" d="M97.89,100.11s-.12,0-.09,0a7.65,7.65,0,0,1-.13,5.7,17,17,0,0,1-2.29-3c-.6-1.16-.92-2.46-1.43-3.65,0-.07-.12,0-.1,0,.53,2.29,1.28,5.84,3.69,6.93a.24.24,0,0,0,.47.07A7.66,7.66,0,0,0,97.89,100.11Z"/>
              <path class="bdf3ff97-1a27-4cd1-98af-43900748e342" d="M116.36,118.11c-.47-1.46-.71-3-1.25-4.42a24.66,24.66,0,0,0-1.72-3.59l-.55-.95a5,5,0,0,0,.72.4.23.23,0,0,0,.34-.2,22.67,22.67,0,0,0-1.56-7.9c-1.24-3-3.24-5.58-5-8.27a.14.14,0,0,0-.24.14c1.31,2.62,3.08,5,4.36,7.61a21.12,21.12,0,0,1,1.92,8c-.37-.19-.73-.4-1.08-.62-1.29-2-2.75-3.95-4.21-5.85a.08.08,0,1,0-.13.08c1.62,2.25,3.19,4.54,4.58,6.94a32.19,32.19,0,0,1,2.11,4.29c.51,1.31.73,2.69,1.13,4-.61-.41-1.3-.74-1.92-1.15a9.44,9.44,0,0,1-2.54-2.42,0,0,0,0,0,0,0,13.19,13.19,0,0,0,2.18,2.42A6.66,6.66,0,0,0,116,118.4a.13.13,0,0,0,.12,0A.2.2,0,0,0,116.36,118.11Z"/>
              <path class="bdf3ff97-1a27-4cd1-98af-43900748e342" d="M41.85,74.62A25,25,0,0,1,36,79.22c.05-3.07,1.25-5.7,2.63-8.42a.07.07,0,1,0-.12-.08c-1.73,2.85-3.13,5.54-3.06,9a.28.28,0,0,0,.41.24A16.71,16.71,0,0,0,42,74.74C42,74.66,41.93,74.55,41.85,74.62Z"/>
              <path class="bdf3ff97-1a27-4cd1-98af-43900748e342" d="M45.09,106.64c0-.08-.14-.06-.14,0a20.75,20.75,0,0,1-.77,5.71,10.89,10.89,0,0,1-3.9-4.94A32.33,32.33,0,0,1,39,101.65c0-.08-.15-.06-.13,0a23.08,23.08,0,0,0,1.3,6.63,10.66,10.66,0,0,0,4,4.66.24.24,0,0,0,.35-.14A14.38,14.38,0,0,0,45.09,106.64Z"/>
              <path class="bdf3ff97-1a27-4cd1-98af-43900748e342" d="M38.53,110.77c0-.1-.2-.08-.19,0a10.92,10.92,0,0,1-.22,3.6,8.13,8.13,0,0,1-2.93-5.31c0-.06-.11,0-.11,0a7.87,7.87,0,0,0,3.08,6,.29.29,0,0,0,.41-.17A8.53,8.53,0,0,0,38.53,110.77Z"/>
              <path class="bdf3ff97-1a27-4cd1-98af-43900748e342" d="M149.8,170.21c-1.7-5.13-5.58-9.58-9.17-13.51a73.5,73.5,0,0,0-6.41-6.19c-2.21-1.91-4.41-4-6.8-5.66.07-4.47-.76-9.09-1.4-13.51a84.66,84.66,0,0,0-3.17-13.62,71.14,71.14,0,0,0-5.1-12.07c-.53-1-1.1-1.93-1.68-2.88a.28.28,0,0,0,.07-.24c-.9-5-3.73-9.62-6.35-13.89a44,44,0,0,0-9.16-11.07,17.58,17.58,0,0,0-1.69-1.22,42.14,42.14,0,0,0-2.63-4.86,13.66,13.66,0,0,0-3.44-3.9,10.1,10.1,0,0,0,2.14,0,.15.15,0,0,0,0-.28h-.1A28.93,28.93,0,0,0,90.64,63a13.71,13.71,0,0,0-3.78-2.47,6.55,6.55,0,0,0,3.49-.81c.11-.06,0-.21-.08-.19l-.32.06c-4.43-2.32-7.21-6-9-10.7-2-5.32-2.87-11-4.81-16.36a36.48,36.48,0,0,0-5.46-10c-2-2.63-4.7-5.22-8.09-5.85.94-.18,1.86-.44,2.77-.68l.2.08a.12.12,0,0,0,.12-.19,4.55,4.55,0,0,0-1.8-.86h0a6,6,0,0,0-4.06-.81,16.75,16.75,0,0,0,2.11-2.48.09.09,0,0,0-.11-.13l-.25.16s0,0-.08-.06A19.07,19.07,0,0,0,56,12a42.5,42.5,0,0,0-5,.89,13.3,13.3,0,0,0-6.53,3.62c.19-.38.37-.76.53-1.14h0c0-.11-.08-.2-.18-.17-3.49.63-7.91,3.47-8.91,7.11,0,0,0,0,0-.07-.09-.35-.12-.71-.18-1.07a.15.15,0,0,0-.28,0s0,0,0,.06a.09.09,0,0,0-.08,0,40.48,40.48,0,0,0-2.45,6.23A6.25,6.25,0,0,0,33.9,33c1.34,1.88.93,4.19,2,6.17.62,1.12,1.53,2,2.1,3.19a10.55,10.55,0,0,1,.83,2.89c-.5,5,.85,10.21-.56,15.19a28.05,28.05,0,0,1-3.24,6.45c-1.2,2-2.3,4-1.67,6.42,0,0,0,.07,0,.11s.19.25.27.11h0a.15.15,0,0,0,.13-.16.11.11,0,0,1,0,0,16.53,16.53,0,0,1,1.78-2.47,23.67,23.67,0,0,0-4,9.17,18.28,18.28,0,0,0-.15,6c.08.59.17,1.2.27,1.82-.55,3-1.17,6-1.5,9.1s-.36,6.62,1,9.38a.23.23,0,0,0,.21.11h.09c.1,0,.2-.06.21-.17.06-.27.12-.53.19-.79a34.42,34.42,0,0,0,9,21.46,56.22,56.22,0,0,0,9.65,8.24A38.16,38.16,0,0,0,56,138.47c1.16.55,2.34,1.1,3.46,1.74,2.55,3.33,2.31,8,5.63,10.86a.2.2,0,0,0,.34-.14c0-.7.11-1.4.11-2.1a12.62,12.62,0,0,0,3,2.88.23.23,0,0,0,.39-.16c0-.61,0-1.24,0-1.85a8.66,8.66,0,0,0,2.62,2.4.23.23,0,0,0,.35-.2,10.62,10.62,0,0,1,1.17-4.82,7.77,7.77,0,0,0,1.16-2.82,17,17,0,0,1,1.27,2.21,10,10,0,0,0,3.65,4.07c1.06.63,2.28,1,3.39,1.5a22.21,22.21,0,0,1,3.35,2.07.13.13,0,0,0,0,.06c0,.15.28.16.3,0a6.75,6.75,0,0,0,0-1.62,4.89,4.89,0,0,0,2.86,1.77c.14,0,.32-.07.3-.23-.08-.82,0-1.69,0-2.52a7.09,7.09,0,0,0,2.45,2,.23.23,0,0,0,.34-.2,6.63,6.63,0,0,1,.58-3.68c.1-.2.2-.4.28-.61.27.52.56,1,.86,1.53,2.27,6.9,4.94,13.48,9.08,19.5a49.38,49.38,0,0,0,6.8,8c2.15,2,4.54,4.53,7.59,5.05a.23.23,0,0,0,.27-.15,8.7,8.7,0,0,0-1-6,20,20,0,0,0,6,3.48A34.1,34.1,0,0,0,133.25,183a.26.26,0,0,0,.26-.26,15.14,15.14,0,0,0-1.1-4.29,9.12,9.12,0,0,0-1.59-2.55c3.56,1.42,7.33,2.95,11.11,2.95a.26.26,0,0,0,.26-.25,7,7,0,0,0-.9-4.25,12.2,12.2,0,0,0,2.76,1.64,10.86,10.86,0,0,0,4,1.17c.05.29.51.28.5,0-.11-2.51-1.58-4.93-2.76-7.11a10.64,10.64,0,0,0,1.18.26,4.72,4.72,0,0,0,2.31.26s0,0,0,0C149.55,170.6,149.88,170.47,149.8,170.21ZM91.86,150a9.3,9.3,0,0,0-.24,2.87,9.08,9.08,0,0,1-2.46-2l0,0c-.09-.07-.26-.07-.27.07a16,16,0,0,0,0,2.85,5.43,5.43,0,0,1-2.77-1.88l0,0c0-.12,0-.24-.08-.35a.08.08,0,0,0-.16,0,4.41,4.41,0,0,0-.06,2.17c-1.76-1.67-3.88-2.33-6-3.4s-3.29-3.25-4.45-5.35-2.61-2.69-4.74-3.13a20.08,20.08,0,0,1-4.15-1.26c-1.16-.52-2.26-1.13-3.44-1.6-.09,0-.14.1-.06.15a25.36,25.36,0,0,0,6.67,3.06,9.59,9.59,0,0,1,4,1.44,4,4,0,0,1,.36.35c-.14.35-.23.7-.36,1.06a21.55,21.55,0,0,1-1.36,2.61,8.89,8.89,0,0,0-.75,3.91,9.14,9.14,0,0,1-2.93-3.1c0-.09-.17,0-.15.06a3.71,3.71,0,0,0,.24.66s0,0,0,.08a11.79,11.79,0,0,0-.11,1.79c-1.14-1.15-2.58-2-3.4-3.44,0-.07-.18,0-.15.07a4.6,4.6,0,0,0,.31.72l0,.06a15,15,0,0,0-.16,2,11.69,11.69,0,0,1-1.75-2.52,25.66,25.66,0,0,1-1.17-3.43,11.63,11.63,0,0,0-1.69-3.66,13.86,13.86,0,0,1,1.23.9c.12.09.27-.06.17-.17-2.54-2.63-6.23-3.57-9.24-5.52a61.34,61.34,0,0,1-10.13-8.1A35.34,35.34,0,0,1,35,117.25a41,41,0,0,1-3-12.6c.33-.93.75-1.82,1.13-2.73A10.44,10.44,0,0,0,35,106.66a.28.28,0,0,0,.5-.07,20.56,20.56,0,0,0,1-4.79.06.06,0,0,0-.12,0,28,28,0,0,1-1.16,4.09c-1.61-2.92-1.7-5.79-1.4-9.11,0-.06-.09-.07-.11,0a14,14,0,0,0-.5,4.55l0,0a17.8,17.8,0,0,0-1.3,2.76.12.12,0,0,0-.1.13s0,.08,0,.12c-.16.47-.32.94-.45,1.42a8.48,8.48,0,0,0-.41-2.25,21.09,21.09,0,0,1-.31-3.46c-.08-3.8.77-7.55,1.19-11.31a12,12,0,0,0,1.38,3.86.19.19,0,0,0,.35-.1,18.27,18.27,0,0,0,2.63-4.06,8.84,8.84,0,0,0,.38,2.94.29.29,0,0,0,.48.12,18.18,18.18,0,0,0,3.41-4.08,8.5,8.5,0,0,0,.34,2.31.3.3,0,0,0,.36.21c2.16-.68,3.43-2.37,4.41-4.31a0,0,0,1,0-.08-.05,10.25,10.25,0,0,1-4.21,3.68,11.91,11.91,0,0,1,1-7.42c0-.09-.1-.14-.15-.06a12.09,12.09,0,0,0-1.63,5,41.29,41.29,0,0,1-3.49,4,11.37,11.37,0,0,1-.28-3.44,33.8,33.8,0,0,0,1.84-5.71.11.11,0,0,0-.22-.06c-.73,1.87-1.36,3.77-2.17,5.61A38.91,38.91,0,0,1,33.38,92c-1.09-4.1-2-8-1.22-12.3.7-3.86,2.81-7.27,4.92-10.51.55-.55,1.11-1.09,1.68-1.63.08-.08,0-.19-.12-.12-1.77,1.58-3.86,3-4.93,5.14,0-2.44,1.29-4.37,2.56-6.46A24.16,24.16,0,0,0,39,60.23a23,23,0,0,0,.38-7.72c-.14-2.1-.27-4.18-.28-6.28.1.05.26,0,.25-.14a13.71,13.71,0,0,0-.22-1.75c0-.14,0-.29,0-.44s-.08-.07-.11,0a9.77,9.77,0,0,0-1.44-3.33,10.61,10.61,0,0,1-1.76-3.08c-.31-1.08-.23-2.21-.61-3.29a11.74,11.74,0,0,0-1.39-2.26A5.27,5.27,0,0,1,33.23,28c.36-2.17,1.42-4.15,2.12-6.21a2.76,2.76,0,0,0,.37,1.36c.08.12.3.08.29-.08s0-.19,0-.28c1.6-3.78,4.81-5.54,8.38-7.13a4.09,4.09,0,0,0-.7,1.69s0,0,0,.06a8.67,8.67,0,0,0-.53.81c-.05.07.07.17.13.1a13.92,13.92,0,0,1,7.8-5A65.43,65.43,0,0,1,61.3,11.94a12.46,12.46,0,0,0-1.89,2.26.11.11,0,0,0,0,.09,8.78,8.78,0,0,0-1,.27.07.07,0,0,0,0,.13c2.28-.52,4.24.26,6.32,1.11,0,0,.06,0,0-.06l.15.08c-1.56.07-3,.83-4.59.93a.08.08,0,1,0,0,.15,9,9,0,0,0,1.36-.09l0,0c4.3.58,7.5,4.37,9.79,7.74a40.88,40.88,0,0,1,5.37,11.61c2.49,8.62,3.59,19.16,12.39,23.47a11.8,11.8,0,0,1-6,0s-.07.06,0,.07a11.22,11.22,0,0,0,2.91.69,20.92,20.92,0,0,1,4.37,3.11,49.14,49.14,0,0,0,3.85,3.65c-.72-.07-1.44-.07-2.17-.09-1.16-.06-2.31-.25-3.47-.38-.08,0-.09.11,0,.13a22.75,22.75,0,0,0,3.6.69,21,21,0,0,1,3.66,4.56c.66,1.09,1.16,2.51,1.89,3.65a38.54,38.54,0,0,0-7.74-3c-3.88-1.17-8.44-2.55-10.65-6.27,0,0-.08,0-.07,0,1.41,3.18,4.9,4.68,8,5.84,3.79,1.44,7.81,2.25,11.22,4.53,4.22,2.82,7.4,7.12,10.11,11.34,1.28,2,2.44,4.07,3.56,6.16a40.21,40.21,0,0,1,2.86,7c-.25-.4-.51-.79-.78-1.19a40.81,40.81,0,0,0-3.87-5.34s-.1,0-.07,0c.93,1.79,2.22,3.42,3.32,5.12s2.24,3.6,3.27,5.45a70,70,0,0,1,5.26,12.35A85.45,85.45,0,0,1,125.43,131c.72,4.59.88,9.22,1.45,13.82l-.35,0-.09,0a23.07,23.07,0,0,0-3.9-7.26c-.05-.06-.14,0-.1.08a30.22,30.22,0,0,1,4.87,13.45c.21,1.66.51,3.56-.14,5.15a52.24,52.24,0,0,1-11.91-8.32c-3.38-3-6.94-6.4-9.32-10.27l.67.36a.23.23,0,0,0,.32-.12.19.19,0,0,0,.12-.22,23.27,23.27,0,0,0-3.24-10,.1.1,0,0,0-.17.1,29.61,29.61,0,0,1,2.87,9.65c-5.92-3.24-10.14-8.79-12.88-14.88,0-.07-.16,0-.13.06a36,36,0,0,0,4.55,8.13c-3.62-.75-7.14-2.09-9.24-5.32-1.72-2.67-2-5.9-3.23-8.78a12.94,12.94,0,0,0,.74-4.67s-.06,0-.07,0a18,18,0,0,1-.81,3.37c-.19.6-.64,3-1.49,3a.15.15,0,0,0-.11.08,14,14,0,0,1-4.34-7.75c-.52-2.93-.25-6-.4-8.9,0,0,0,0-.06,0-.18,3.14-.54,6.31,0,9.44s2.42,5.56,4.8,7.73a.2.2,0,0,0,.32-.2c.55.12,1.11-1.17,1.28-1.63a22.74,22.74,0,0,0,3.25,9.12c2.18,3.17,6.06,4.5,9.73,5a24.84,24.84,0,0,0,7.17,6.28c2.13,4.07,5.64,7.45,9,10.51l1.19,1a27.73,27.73,0,0,0,2.88,4,9.34,9.34,0,0,1,2.09,4.76,25.88,25.88,0,0,1-6.1-2.25,57.14,57.14,0,0,1-5.41-2.74A26.67,26.67,0,0,1,100,144a30,30,0,0,0,2.85,1.17c.22.08.41-.16.37-.37a23.67,23.67,0,0,0-2.53-6.47c0-.08-.21,0-.17.07a33,33,0,0,1,2,6,26,26,0,0,1-5.24-2.7,13.55,13.55,0,0,1-4.11-5.65c0-.07-.13,0-.11,0a12.06,12.06,0,0,0,6.39,7.66,12,12,0,0,0,2.39,5.37c-1.82-.46-3.57-1.07-5.36-1.67a24.17,24.17,0,0,1-5.86-2.59c-3.77-2.5-5.14-7.2-7.92-10.56a.43.43,0,0,1,0,0,3.81,3.81,0,0,0,1.41.5.27.27,0,0,0,.54,0h0s0-.08,0-.15a20.17,20.17,0,0,0-2.34-9.28c0-.07-.17,0-.14.06a28.38,28.38,0,0,1,1.9,8.69c-.68-.39-1.6-.43-2.29-.79a10.4,10.4,0,0,1-2.15-1.59,16.28,16.28,0,0,1-3.35-4.62,37.15,37.15,0,0,1-3.32-11c1.26-3.32.81-7.27,1.13-10.74,0,0-.07,0-.08,0-.95,3.61,0,7.81-1.77,11.18a33,33,0,0,1-3.13-5.6,13.87,13.87,0,0,1-.73-5.85c.12-.62.22-1.24.34-1.85,0-.11-.13-.19-.18-.08a11,11,0,0,0-.67,2.16c-.17.73-.53,3.28-1.67,2.21a12,12,0,0,1-3.18-4.86c-1.2-3.78.21-8,.57-11.81a0,0,0,0,0-.08,0c-.71,4.89-2.79,9.83.13,14.43a16.33,16.33,0,0,0,1.93,2.38c.32.36.86.94,1.42.79s.7-.88.85-1.29c0-.15.09-.31.14-.47A14,14,0,0,0,72.1,117h0c0,.22.35.35.47.11s.15-.3.22-.46A25.65,25.65,0,0,0,76,127.74a13.91,13.91,0,0,0,6.31,6.33c-.1.92-.23,1.85-.34,2.77,0,.22,0,1.7-.46,1.55a18.76,18.76,0,0,1-2.15-.84,25.31,25.31,0,0,1-5.51-3.64,21.2,21.2,0,0,1-7.28-10.75,9.45,9.45,0,0,0-.51-4.35.1.1,0,1,0-.2.06,23.42,23.42,0,0,1-.27,7.92c-3.14-2.72-4.49-6.75-5.43-10.67a28,28,0,0,0,.13-4.76c0-.11-.14-.11-.16,0-.3,2.47-.12,5-1,7.36-.48,1.38-2.63-1.62-2.87-2a21.9,21.9,0,0,1-2.12-3.2c-2.32-4.4-2.08-9.57-1.75-14.4a19.92,19.92,0,0,0,1.68,3.54c.77,1.27,2-.53,2.31-1.19a22.42,22.42,0,0,0,1.4-5.67c0-.09-.13-.13-.15,0-.34,1.21-.67,2.42-1,3.63a10.74,10.74,0,0,1-.79,2.11c-.14.28-.94,1.55-1.43.63-.24-.44-.41-1-.62-1.42a16.2,16.2,0,0,1-1.64-6.86c0-2.12.74-4.25,1.07-6.33a.06.06,0,0,0-.12,0c-.76,2.53-1.63,5-1.53,7.74a12.08,12.08,0,0,0,.49,2.86,30.84,30.84,0,0,1-1,4,7.79,7.79,0,0,0-.43,3.37c-1.71-2.9-4-5.6-4.94-8.83-1.19-3.92.46-8.08,1.76-11.76,1.25-3.5,2.83-7,5.53-9.68,3.81-3.72,9-3.06,13.9-3.06.15,0,.18-.23,0-.26-4.55-.82-9.66-1.14-13.51,1.88-3.18,2.49-5,6.22-6.35,9.92-1.45,3.86-3.07,8.09-2.31,12.27.71,3.94,3.77,7.26,6.07,10.4a.07.07,0,0,1,0,.05c.07.2.42.18.4-.06a13.5,13.5,0,0,1,.6-4.92c0-.09,0-.18.07-.27a26.2,26.2,0,0,0,.53,9.9,15.13,15.13,0,0,0,2.6,5.16c1,1.36,2.09,3.07,3.84,3.57a.24.24,0,0,0,.25-.1A12,12,0,0,0,60,117.3a17.4,17.4,0,0,0,1.53,4.79,13.63,13.63,0,0,0,4.15,5.37.24.24,0,0,0,.35-.14c.15-1,.35-2.11.48-3.19.61,3.31,2.77,6.21,5.11,8.54a23.59,23.59,0,0,0,10.31,6.15.15.15,0,0,0,.18-.14c.14-1.32.4-2.61.59-3.91,2.28,3.68,4.16,8,7.72,10.57a11.47,11.47,0,0,0,1.28.81,20.88,20.88,0,0,0,.95,2.24A9.93,9.93,0,0,0,91.86,150Zm25.4,30.67a5.09,5.09,0,0,1,.08,1.29c0,.89-.37.66-1,.45-2-.68-3.69-2.27-5.22-3.67a58.22,58.22,0,0,1-4.53-4.63A57.53,57.53,0,0,1,99,162.71c-1.69-3.32-2.72-6.93-4.12-10.37.55.84,1.11,1.67,1.66,2.49a95.33,95.33,0,0,0,6.4,8.43,66.61,66.61,0,0,0,7.25,7.2,42.74,42.74,0,0,0,3.66,2.9.09.09,0,0,0,0,0c.84,1.45,1.68,3,2.39,4.49A12.82,12.82,0,0,1,117.26,180.67Zm14.13-3a11.91,11.91,0,0,1,1.31,3.27c.07.26.49,1.54.07,1.51a21.19,21.19,0,0,1-2.22-.32c-1.13-.22-2.24-.49-3.36-.78a25.64,25.64,0,0,1-11.35-5.63,17.82,17.82,0,0,0-1.33-1.91,15.48,15.48,0,0,0,3.65,1.73.21.21,0,0,0,.26-.15,8.18,8.18,0,0,0-.73-5.27,88.81,88.81,0,0,0,11.13,5l.82.32C130.2,176.15,130.89,176.79,131.39,177.62Zm15.76-7.84a7.52,7.52,0,0,0-1.64-.38,49.27,49.27,0,0,0-4.4-6.67c-1.89-2.43-4-4.68-6.07-6.93a83.57,83.57,0,0,0-6.89-6.94.06.06,0,1,0-.09.08c3.89,4.39,8.22,8.41,11.93,12.95a50.94,50.94,0,0,1,4.62,6.84c1.34,2.34,3.13,5.12,3.45,7.87a15.93,15.93,0,0,1-7.47-3.36,45.31,45.31,0,0,0-4.8-4.8,16.13,16.13,0,0,0-2.15-4.2,69.61,69.61,0,0,0-5.35-7.32c0-.07-.17,0-.12.1,1.48,2.19,2.92,4.4,4.42,6.58a20.65,20.65,0,0,1,2.46,4.25.17.17,0,0,0-.05.27l.21.23a5.31,5.31,0,0,1,.17,2.62c-1.67-1.08-3.52-1.91-5.26-2.88s-3.69-2.15-5.47-3.34a46.83,46.83,0,0,1-9.57-8.3c-.09-.09-.21,0-.13.13,5.28,6.67,12.74,11.2,20.33,14.8a.19.19,0,0,0,.28-.1.21.21,0,0,0,.24-.15,4.23,4.23,0,0,0,.13-2c1,1,2.17,2,3.2,3a12.21,12.21,0,0,1,1.93,2.59c.19.34,1.33,3.58.41,3.57-3,0-6-1.28-8.75-2.25-2.54-.89-5.08-1.77-7.58-2.77a46.31,46.31,0,0,1-14.5-8.79c-4.35-4-7.55-8.84-11.07-13.56,0-.06-.15,0-.11.07a48.67,48.67,0,0,0,7.9,10.76,39.38,39.38,0,0,0,9.94,8.1l.23.12c.2.72.36,1.43.5,2.17a8.31,8.31,0,0,1,.14,1.73c0,.6,0,1.18-.73.94a18.1,18.1,0,0,1-5.33-3,59.29,59.29,0,0,1-7.67-7.36,88.26,88.26,0,0,1-6.83-9c-2-2.89-3.65-6-5.43-9a31.56,31.56,0,0,0,3.8,1.5c2.2.76,4.55,1.9,6.9,2a.25.25,0,0,0,.06-.49l-.16,0a18.56,18.56,0,0,1-2.52-4.51c1.83,3.53,5,6.13,8.35,8.2a51.64,51.64,0,0,0,6.11,3.12,23.35,23.35,0,0,0,6.2,2.18.24.24,0,0,0,.35-.15c.4-1.58-.57-3.25-1.42-4.51a48.2,48.2,0,0,0-3.28-4c1.12.91,2.28,1.79,3.45,2.63a43.56,43.56,0,0,0,7,4.39c-.09.29.34.53.5.23a7.85,7.85,0,0,0,.53-4.47,35.44,35.44,0,0,0-.9-5.34c-.16-.65-.35-1.29-.55-1.92a1.79,1.79,0,0,0,.62.24.25.25,0,0,0,.29-.24c1.83,1.94,4.05,3.57,6.05,5.32s4.15,3.8,6.1,5.84a71,71,0,0,1,5.59,6.65,24.82,24.82,0,0,1,4,7.14A12.91,12.91,0,0,0,147.15,169.78Z"/>
              <path class="bdf3ff97-1a27-4cd1-98af-43900748e342" d="M54.85,53.64a12,12,0,0,1-1.45,4.28c-1.52-2.27-1.72-4.58-1.92-7.29a.07.07,0,1,0-.13,0c-.1,2.88.09,5.57,1.83,8a.28.28,0,0,0,.48,0,9.43,9.43,0,0,0,1.4-5C55.06,53.5,54.87,53.51,54.85,53.64Z"/>
              <path class="bdf3ff97-1a27-4cd1-98af-43900748e342" d="M74.43,59.7s-.08,0-.07,0a10.43,10.43,0,0,1,.54,5.67,13.27,13.27,0,0,1-5.37-6.51.08.08,0,0,0-.16,0A11.64,11.64,0,0,0,75,66a.24.24,0,0,0,.35-.2C75.41,63.64,75.71,61.57,74.43,59.7Z"/>
              <path class="bdf3ff97-1a27-4cd1-98af-43900748e342" d="M76.31,58.81a.06.06,0,1,0-.08.08,10.67,10.67,0,0,1,2.5,4.65c-.87-.34-1.71-.74-2.58-1.1-.08,0-.13.11-.06.15A29.75,29.75,0,0,0,78.9,64c.13.06.32,0,.31-.17A7.57,7.57,0,0,0,76.31,58.81Z"/>
            </g>
            <path class="eafafc0c-0707-4117-9621-39109ff1cd2b" d="M51.72,36.83c-1.36.29-2.37,1.88-3.26,2.8a8.91,8.91,0,0,1-4.83,2.42c2.55-4-.46-10.4-4.76-11.87a.17.17,0,0,0-.26-.1l0,0h0a11.25,11.25,0,0,1-4.75,2.2c-2.19.42-4.51-.19-6.64-.64-3.19-.67-6.42-1-9.43.5S12.9,37,12,40c-1.24,4-1,8.37-1,12.51a.13.13,0,0,0,.21.09.1.1,0,0,0,.1,0c.48-.49.92-1,1.4-1.43.68-.53,1.36-1.05,2.07-1.54a48.94,48.94,0,0,1,10.89-.4,28.55,28.55,0,0,1,5.74.87c1.26.33,2.42,1.09,3.68,1.4,3.57,1.48,6.87,1.41,9.76-1.47,1.45-1.46,2.45-3.3,3.95-4.72,1.33-1.27,3.12-1.85,4.49-3.05C54.91,40.76,54.51,36.22,51.72,36.83Z"/>
            <path class="f3a67124-fb36-41fb-94c2-f00fc2388d29" d="M51.72,36.83c-1.36.29-2.37,1.88-3.26,2.8a8.91,8.91,0,0,1-4.83,2.42c2.55-4-.46-10.4-4.76-11.87a.17.17,0,0,0-.26-.1l0,0h0a11.25,11.25,0,0,1-4.75,2.2c-2.19.42-4.51-.19-6.64-.64-3.19-.67-6.42-1-9.43.5S12.9,37,12,40c-1.24,4-1,8.37-1,12.51a.13.13,0,0,0,.21.09.1.1,0,0,0,.1,0c.48-.49.92-1,1.4-1.43.68-.53,1.36-1.05,2.07-1.54a48.94,48.94,0,0,1,10.89-.4,28.55,28.55,0,0,1,5.74.87c1.26.33,2.42,1.09,3.68,1.4,3.57,1.48,6.87,1.41,9.76-1.47,1.45-1.46,2.45-3.3,3.95-4.72,1.33-1.27,3.12-1.85,4.49-3.05C54.91,40.76,54.51,36.22,51.72,36.83Zm-.43,5.87A14.4,14.4,0,0,0,48,45.09c-1.13,1.22-2,2.66-3.1,3.92a7.89,7.89,0,0,1-4.41,2.62c-1.83.36-3.67-.34-5.44-.69a30.74,30.74,0,0,0-4-1.5,25.79,25.79,0,0,0-5.4-.72c-3.35-.17-7.09-.41-10.38.51a25,25,0,0,1,5.14-2.76,21,21,0,0,1,11.47-.74c3.57.68,7.17,1.79,10.78.84,3.41-.9,6.29-3.89,8.7-6.34.17.24.31.54.5.76a.11.11,0,0,0,.18-.05,1.38,1.38,0,0,0-.45-1.57.73.73,0,0,0-.74,0,9.29,9.29,0,0,0-.85.53S50,40,50,40a1.82,1.82,0,0,1,.84-.14c-3,3-5.87,6.3-10.35,6.63-3.9.28-7.72-1.32-11.58-1.69a20,20,0,0,0-9.76,1.6,21.32,21.32,0,0,0-4.88,3,9.71,9.71,0,0,0-3.07,2.68c.3-7.27,0-18.08,8.86-20.31,3.58-.91,7.24.58,10.77,1,2.69.34,6.13-.21,7.93-2.45,4,2.37,6.3,7.32,4.18,11.8l-.19,0a.09.09,0,0,0,0,.18H43a.23.23,0,0,0,.39,0v0c2.61-.07,4.73-1.6,6.45-3.47,1.06-1.15,2.63-2.48,3.49-.36S52.85,41.75,51.29,42.7Z"/>
            <path class="bc7ee245-31e4-42cd-94e0-a78413bf7fed" d="M37.06,33.39a.18.18,0,0,0-.21,0,.12.12,0,0,0-.09,0l-.43.53a5.31,5.31,0,0,0-1.86,3,.33.33,0,0,0,.48.37,3.64,3.64,0,0,0,1.66-1.63c0-.11.27-.45.18-.36-.37.39-2.71,2.31,0-1.29.32-.14.19,1.06.25.76A2.83,2.83,0,0,0,37.06,33.39Z"/>
            <path class="f8d21996-3b3b-41b7-b0d1-ff3ab1a1a798" d="M53.22,24.26c-.2-.39-.39-.88-.63-1.36-.39-1-1.13-2.16-2.26-2.3a3.48,3.48,0,0,0-2.66,1.16c-1,.83-1.73,1.83-2.65,2.69a4.06,4.06,0,0,1-1.52.91c-.75.24-1.24-.48-1.69-.95-.09-.09-.22,0-.17.13a2.24,2.24,0,0,0,.13.27c.38,1.22.67,3.45,1.95,3.88s1.73-1.22,2.17-2A29.15,29.15,0,0,1,48.31,23c.52-.65,1.5-1.66,2.44-1.25a6.47,6.47,0,0,1,2.3,2.64C53.11,24.47,53.27,24.37,53.22,24.26Zm-5.3-1.68A16.42,16.42,0,0,0,45.45,26c-.33.55-1,2.56-1.86,1.73a6.75,6.75,0,0,1-1.26-2.16c1.05.84,2.54-.12,3.54-1.12a19.7,19.7,0,0,1,2.81-2.67,2.24,2.24,0,0,1,1.07-.41A5.23,5.23,0,0,0,47.92,22.58Z"/>
            <path class="f8d21996-3b3b-41b7-b0d1-ff3ab1a1a798" d="M38.85,28a.07.07,0,0,0,0-.07A15.25,15.25,0,0,0,37.67,25c-.29-.57-.75-1.5-1.47-1.61-1.23-.19-1.46,2.54-1.68,3.38a6,6,0,0,0-.27.89c0,.09.12.16.17.07.2-.44.42-.88.66-1.3.51-.89,1.13-.63,1.76-.11.82.69,1.35,1.62,2.12,2.35,0,0,.14,0,.12-.07A3,3,0,0,0,38.85,28Zm-2.42-2.65c-.62-.33-1.12,0-1.49.57.34-1.06.84-2.41,1.45-1.83A9.57,9.57,0,0,1,38,26.68,5.86,5.86,0,0,0,36.43,25.32Z"/>
            <path class="bdbcb5da-478b-4c87-8e42-a0fc7278ff4a" d="M51.72,36.83c-1.36.29-2.37,1.88-3.26,2.8a8.91,8.91,0,0,1-4.83,2.42c2.55-4-.46-10.4-4.76-11.87a.17.17,0,0,0-.26-.1l0,0h0l-.11.08a2.26,2.26,0,0,1,.72,1.23c.21,1.5-1,1.57-2.07,1.89-2,.55-2.3,1.81-3.43,3.47-1,1.39.88,1.64,1.78,1.42A3,3,0,0,0,38,35.8c.15-1.29,1.07-4.37,2.87-2.45a6.43,6.43,0,0,1,.94,6C40.22,43.55,33.3,42.53,30,42a63.39,63.39,0,0,0-7-.88,14.29,14.29,0,0,0-6.24.9c-4.1,1.84-3.75,8.18-5,7.1s.52-9.31.85-10.46c.11-.37.21-.76.31-1.16A17.73,17.73,0,0,0,12,40c-1.24,4-1,8.37-1,12.51a.13.13,0,0,0,.21.09.1.1,0,0,0,.1,0c.48-.49.92-1,1.4-1.43.68-.53,1.36-1.05,2.07-1.54a48.94,48.94,0,0,1,10.89-.4,28.55,28.55,0,0,1,5.74.87c1.26.33,2.42,1.09,3.68,1.4,3.57,1.48,6.87,1.41,9.76-1.47,1.45-1.46,2.45-3.3,3.95-4.72,1.33-1.27,3.12-1.85,4.49-3.05C54.91,40.76,54.51,36.22,51.72,36.83Z"/>
            <path class="ad70e536-b1fd-4bfd-b60e-6e6f493dd151" d="M52.56,37.84c-.46-.34-1.2.06-1.59.31-1.54,1-2.53,2.67-4.09,3.59,0,0,0,.07,0,0a11,11,0,0,0,2.51-1.9,11,11,0,0,1,1.64-1.15c1-.54,1.18-.08,1.73.69a.14.14,0,0,0,.24,0A1.24,1.24,0,0,0,52.56,37.84Z"/>
            <path class="f4616b13-8c29-4a1c-878d-c16f98b2bd7a" d="M37.05,33.32a5.19,5.19,0,0,0-.52.19,11.33,11.33,0,0,0-1,1c-.49.61-1.63,1.92-1.37,2.8.5,1.71,2.84-1.09,3.16-1.67C37.58,35.26,38.5,33,37.05,33.32Z"/>
            <path class="f4616b13-8c29-4a1c-878d-c16f98b2bd7a" d="M41.52,32.76a8,8,0,0,1,1.4,3.89,8.7,8.7,0,0,1-2.45,6.75,9.61,9.61,0,0,0,5.25-2,16.41,16.41,0,0,1-2.09.62c2.49-3.93-.34-10.14-4.5-11.77A13.71,13.71,0,0,1,41.52,32.76Z"/>
            <path class="f4616b13-8c29-4a1c-878d-c16f98b2bd7a" d="M53.85,37.86a3.62,3.62,0,0,1-1.7,3.58.27.27,0,0,1-.4-.23,7.74,7.74,0,0,0-.12-1.45c-.4-1.35-1.39.22-1.63.44a26,26,0,0,1-2.67,2.22,14.84,14.84,0,0,1-6.44,3c-4.61.72-9.19-1.39-13.81-1.28a21.47,21.47,0,0,0-14.19,5.43c-1,.91-1.56.73-1.94.07,0,1,0,1.94,0,2.89a.13.13,0,0,0,.21.09.1.1,0,0,0,.1,0c.48-.49.92-1,1.4-1.43.68-.53,1.36-1.05,2.07-1.54a48.94,48.94,0,0,1,10.89-.4,28.55,28.55,0,0,1,5.74.87c1.26.33,2.42,1.09,3.68,1.4,3.57,1.48,6.87,1.41,9.76-1.47,1.45-1.46,2.45-3.3,3.95-4.72,1.33-1.27,3.12-1.85,4.49-3.05A4,4,0,0,0,53.85,37.86Zm-8.58,9.36c-1.36,3-4.61,3.88-7.55,3.28-2.49-.51-5.13-1.59-7.61-2.14a38.46,38.46,0,0,0-7.56-.88c-.29,0-.22-.42,0-.51,5.18-2.1,10.53,0,15.74.79,3.3.53,4.51.87,8.05-2.27C46.48,45.36,45.33,47.08,45.27,47.22Z"/>
            <path class="ad70e536-b1fd-4bfd-b60e-6e6f493dd151" d="M38.52,31.48a21.11,21.11,0,0,1-6.45,2.09c-2.05.14-4.88-.93-6.86-1.33a9.82,9.82,0,0,0-8.11,1.51c-4.42,3.15-5.41,10.39-5.35,15.5,0,.11.17.14.19,0,1-5.56,3.48-12.67,9.58-14.29,2.93-.78,6.3,1,9.29,1,2.56.06,4.16-2.37,6.4-3.28C38.26,32.33,38.74,31.38,38.52,31.48Z"/>
            <path class="a9307bc2-7c7a-4cd2-88c2-9b383c3d2a20" d="M73.9,42.53c.25,2.06.35,4.77-1,4.36a10.41,10.41,0,0,1-3.44-2.53,9.07,9.07,0,0,1-1.35-1.59,10.59,10.59,0,0,0,1.65,3.33,5.53,5.53,0,0,0,.68.69s0,0,0,0,0,.23,0,.34a3.58,3.58,0,0,1,.33,1.58c0,.89.25,2.76-.7,3.31-.77.46-2.41-1.16-2.92-1.65a9.17,9.17,0,0,1-1.64-2.1c.58,2.62,2.12,5.32,4.86,6.05A.9.9,0,0,0,71.77,54c.92-2.18.33-4.49-.46-6.61a3.09,3.09,0,0,0,2,.33.55.55,0,0,0,.9-.12C75.06,46,74.56,44.09,73.9,42.53Z"/>
            <path class="aaf391bf-d641-4ba6-84bb-4c323fb3e6e2" d="M65.56,20.16a5.43,5.43,0,0,0-1-1.42,1.71,1.71,0,0,1,0,1.4c-.62,1.13-2.91.7-3.92.61a9.77,9.77,0,0,1-2.5-.58,10.15,10.15,0,0,0,3.89,1.66,3.2,3.2,0,0,0,3.12-.63.57.57,0,0,0,.12-.15A.71.71,0,0,0,65.56,20.16Z"/>
            <path class="aaf391bf-d641-4ba6-84bb-4c323fb3e6e2" d="M75.49,33.93A5.63,5.63,0,0,1,75.3,37a.27.27,0,0,1-.33.19,6.13,6.13,0,0,1-2.84-2.49c-.38-.56-.78-1.12-1.13-1.7a16.63,16.63,0,0,0,1.12,3.15c.53,1,1.82,2.18,3,1.91a.67.67,0,0,0,1-.37A4.55,4.55,0,0,0,75.49,33.93Z"/>
            <path class="aaf391bf-d641-4ba6-84bb-4c323fb3e6e2" d="M79.37,48.09a5.77,5.77,0,0,1,.44,2.69l-.4-.1A4.47,4.47,0,0,1,78,49.77a6,6,0,0,1-1.08-1.32v0a.14.14,0,0,0-.06-.1,8.59,8.59,0,0,1-.45-.84,9.27,9.27,0,0,0,1.88,3.73,7.76,7.76,0,0,0,2.06,1.87C80.76,51.57,80,49.54,79.37,48.09Z"/>
            <path class="bc69c151-c510-4fe6-8e1e-72342452d8e3" d="M63.06,52.41a10.74,10.74,0,0,0-.22-4.48,17.21,17.21,0,0,1-1.3,5.4.28.28,0,0,1-.45.12A11.72,11.72,0,0,1,59,49.59a14,14,0,0,1-1-3.49.22.22,0,0,0-.16,0c.21-1.41-.47-3-1-4.34a18.46,18.46,0,0,1-.27,5.1.27.27,0,0,1-.45.12,6.91,6.91,0,0,1-1.25-2.09,4.13,4.13,0,0,0,.44,1.77,7.9,7.9,0,0,0,1.28,1.59l.4-.42v0a3.35,3.35,0,0,0,.69-1.2c0,3.31,1.11,7.34,4,9.18A19.28,19.28,0,0,0,63.06,52.41Z"/>
            <path class="bc69c151-c510-4fe6-8e1e-72342452d8e3" d="M60.38,61.73a6.94,6.94,0,0,0-.58-6.15,11.22,11.22,0,0,1,0,3.47.26.26,0,0,1-.39.23c-1.2-.6-1.87-2.14-2.41-3.29-.07-.15-.12-.3-.18-.46C57.13,58,58.23,60.62,60.38,61.73Z"/>
            <path class="ee97861b-264c-4a22-a76f-c9b71e0fa6f4" d="M56.16,12.87c-5.59,0-10.2,2.13-13.21,7a.13.13,0,0,0,.21.15c3.76-3.48,8.13-5.42,13-6.82A.15.15,0,0,0,56.16,12.87Z"/>
            <path class="ee97861b-264c-4a22-a76f-c9b71e0fa6f4" d="M37.21,22.8a10.38,10.38,0,0,1,3-3.52,16.55,16.55,0,0,0,2.35-2,.18.18,0,0,0-.18-.07,7.48,7.48,0,0,0-5.24,5.47A.14.14,0,0,0,37.21,22.8Z"/>
            <path class="ee97861b-264c-4a22-a76f-c9b71e0fa6f4" d="M63.14,15.26c-1.92-.27-4.09-.85-6-.59a11.09,11.09,0,0,0-5.77,2.91c-.14.12-1.34,1.33-1.19,1.22,3-2.18,10.37-2.86,14-3C64.39,15.78,63.41,15.3,63.14,15.26Z"/>
            <path class="ee97861b-264c-4a22-a76f-c9b71e0fa6f4" d="M65.32,19.32c-1.56-3.26-5.69-2.36-8.47-1.72a.17.17,0,0,0,0,.33c2.87.08,5.63.06,8.1,1.71C65.2,19.78,65.41,19.51,65.32,19.32Z"/>
            <path class="ee97861b-264c-4a22-a76f-c9b71e0fa6f4" d="M67.09,20.7c-.08-.05-.15.06-.1.13a43.36,43.36,0,0,1,7.85,14c.11.3.63.28.59-.08A20.09,20.09,0,0,0,67.09,20.7Z"/>
            <path class="ee97861b-264c-4a22-a76f-c9b71e0fa6f4" d="M68.53,33.11c-.09-.08-.26,0-.18.14A43.15,43.15,0,0,1,73.12,43a.29.29,0,0,0,.56-.08C73.57,39,71.29,35.75,68.53,33.11Z"/>
            <path class="ee97861b-264c-4a22-a76f-c9b71e0fa6f4" d="M76.83,40.71a.19.19,0,0,0-.33.2c1.17,2.57,1.18,5.7,2.87,8.05.06.09.24.07.23-.06A18.83,18.83,0,0,0,76.83,40.71Z"/>
            <path class="ee97861b-264c-4a22-a76f-c9b71e0fa6f4" d="M87.92,58.74a11.34,11.34,0,0,1-4.33-3.59c-1-1.39-1.74-3-2.64-4.41-.09-.15-.38-.05-.3.14,1.15,3.14,3.25,7.95,7.17,8.23A.2.2,0,0,0,87.92,58.74Z"/>
            <path class="ee97861b-264c-4a22-a76f-c9b71e0fa6f4" d="M77.3,51.87a.23.23,0,0,0-.36.28c1.48,2.28,2.71,4.8,4.51,6.86a.13.13,0,0,0,.22-.13A17.75,17.75,0,0,0,77.3,51.87Z"/>
            <path class="ee97861b-264c-4a22-a76f-c9b71e0fa6f4" d="M147.82,169.06c-1.27-4.5-5.34-8.57-8.37-12a60.5,60.5,0,0,0-11.32-10.24c-.2-.15-.38.18-.19.33,7.82,5.93,13.5,14.4,19.36,22.15A.29.29,0,0,0,147.82,169.06Z"/>
            <path class="ee97861b-264c-4a22-a76f-c9b71e0fa6f4" d="M147,175.08c-2.9-8.72-9.76-16.53-16.42-22.65-.18-.17-.44.09-.28.28,6.1,6.78,12,14.44,16.21,22.58A.27.27,0,0,0,147,175.08Z"/>
            <path class="a7ba5963-1e9b-4a55-aeb5-dbc1f550687d" d="M72.73,76.67c-3.66-3.46-8-5.63-12.79-2.81a.18.18,0,0,0,.14.32A17.17,17.17,0,0,1,72.49,77C72.68,77.12,72.9,76.83,72.73,76.67Z"/>
            <path class="a7ba5963-1e9b-4a55-aeb5-dbc1f550687d" d="M105.75,88.63a18.21,18.21,0,0,0-7.06-9C94.9,76.91,90.16,76,86,74a.15.15,0,0,0-.15.25c6.81,4.4,15.55,6.79,19.32,14.59C105.35,89.17,105.84,89,105.75,88.63Z"/>
            <path class="a7ba5963-1e9b-4a55-aeb5-dbc1f550687d" d="M101.69,87c-.11-.12-.33,0-.24.18a63.49,63.49,0,0,1,7.16,14.58c.11.34.7.31.66-.09C108.6,95.68,105.46,91.45,101.69,87Z"/>
            <path class="a7ba5963-1e9b-4a55-aeb5-dbc1f550687d" d="M103.46,97c-.15-.17-.44.06-.31.23,3.29,4.31,4.65,10.17,6.49,15.2a.23.23,0,0,0,.46-.06C110.3,106.6,107.12,101.19,103.46,97Z"/>
            <path class="a7ba5963-1e9b-4a55-aeb5-dbc1f550687d" d="M104.54,109.46c-.13-.18-.42,0-.31.18A41.47,41.47,0,0,1,109,121.51c.06.29.47.2.49-.07C109.81,116.68,107.24,113.12,104.54,109.46Z"/>
          </g>
        </g>
      </g>
    </g>
  </g>
</svg>
