<svg id="e26b6aa2-4f83-49ea-ba62-80979f72d61b" data-name="Layer 1" xmlns="http://www.w3.org/2000/svg" width="244.33" height="198.06" viewBox="0 0 244.33 198.06">
  <defs>
    <style>
      .a1c390e0-6cec-45fa-a6db-bc723705cb4a {
        opacity: 0.5;
      }

      .a098d1c0-c38c-4be7-a0dc-75e10bee2667, .f335186b-ecd8-4443-b4dc-de16a7d182bb, .f3c89aac-6ccc-4bb6-9a5c-a2a8af9a49c5 {
        fill: #fff;
      }

      .a9481915-047a-418b-8cbf-bee9bb06a258 {
        fill: #ef6576;
      }

      .bce4c6b6-af7b-4cd1-bd60-1317d5204821 {
        fill: #f9838d;
      }

      .e24cd404-2127-4ca8-8f6d-3da0d48f7e10 {
        fill: #bc3344;
      }

      .a562606c-4b23-4fc1-b9f0-96fc3b9fb18c {
        fill: #f48ea2;
      }

      .f5b42d09-f6e2-4093-9fb5-92b797a815c2 {
        fill: #f7a1b1;
      }

      .a8e26b3c-0246-4d7a-aaa0-41fecf2f3d02 {
        fill: #c44961;
      }

      .b66473fe-61f8-4a35-9929-0301cc4edd3c {
        fill: #6b1524;
      }

      .ed4f03c7-99c2-4c1c-96b8-dc12864d682a {
        fill: #efe8e8;
      }

      .b1fc8916-22ca-45d2-9778-e6edca24d7a3 {
        fill: #c14453;
      }

      .b663955e-d69a-4468-8a19-e3c21aec377d, .b9816a9a-3235-4c40-8330-cdcb1dd3346e {
        fill: #132836;
      }

      .bdad4571-4c3d-484b-b8a8-54fbab5b43d2 {
        fill: #ff99a5;
      }

      .f3c89aac-6ccc-4bb6-9a5c-a2a8af9a49c5 {
        opacity: 0.35;
      }

      .b1022792-1b6b-4825-a00f-89111c73e4e5 {
        fill: #e26d7b;
      }

      .a098d1c0-c38c-4be7-a0dc-75e10bee2667, .b1022792-1b6b-4825-a00f-89111c73e4e5, .b9816a9a-3235-4c40-8330-cdcb1dd3346e {
        fill-rule: evenodd;
      }

      .b13b6c99-35ab-41bf-b9ae-ce5cbf65b298 {
        fill: #0f2938;
      }

      .ab320fb5-37ca-40ae-9f36-a6eb33b13873 {
        fill: #f48a71;
      }
    </style>
  </defs>
  <g>
    <path class="a1c390e0-6cec-45fa-a6db-bc723705cb4a" d="M66.65,194.82a32,32,0,0,1-19.06-5.73c-8.36-2.84-13.68-11-15.55-18.37-5.77-7.22-9.71-16.37-11.68-21.6l-.14-.36-.32-.91c-.2-.54-.39-1.1-.58-1.65l-.19-.58c-.28-.84-.54-1.65-.77-2.41l-.85-2.94-.7-2.53C13.46,125.49,8,102.4,9,85.4c.06-1.08.12-2.29.18-3.6v-.2c.49-10.54,1.31-28.2,8-43.44,8.6-19.6,24.72-30,46.61-30h.16c16.64,0,29.18,5.19,37.33,15.44,11,13.78,13.06,35.79,6.22,65.42a255.21,255.21,0,0,1-9.65,30.79q-1,2.67-1.86,5.14c1.53-1.35,3.15-2.74,4.85-4.1a7,7,0,0,1,.64-.57l.43-.34c8.74-6.86,17-11.23,24.54-13l.44-.1A32.86,32.86,0,0,1,134,106c.86,0,1.72,0,2.57.11a53.82,53.82,0,0,1,28.72,11.32l.1.08c1.53,1.2,3,2.47,4.51,3.87l.07.07c1.13,1.06,2.1,2,3,2.92.64.65,1.52,1.53,1.83,1.77a29,29,0,0,1,2.42,2.11l.84.78c.28.26.5.45.73.64a7,7,0,0,0,1,.74l0,0,.22.11a3.36,3.36,0,0,0,.8-.37l.24-.14c.17-.11.31-.22.46-.33s.21-.16.32-.24l.58-.49.3-.26c.27-.26.53-.49.78-.75l.22-.23c.31-.33.64-.69,1-1.08.71-.81,1.47-1.63,2.33-2.49l.45-.43.08-.08c.64-.63,1.26-1.2,1.86-1.73l.34-.31.09-.07a4.78,4.78,0,0,1,.42-.34,51.57,51.57,0,0,1,17.48-9.55c.25-.1.52-.19.79-.27l.64-.18.85-.22.47-.11a47.39,47.39,0,0,1,5.58-1.07c.52-.06,1.05-.13,1.58-.17l1-.08c.92-.07,1.77-.1,2.53-.1a27.73,27.73,0,0,1,8.38,1.17,14.73,14.73,0,0,1,10.63,15.78,15.59,15.59,0,0,1-14.12,14c-.26,0-.51.06-.75.09h-.12l-.61.1-.12,0-.56.12-.11,0-.47.13-.15,0-.39.13-.15.06a3.46,3.46,0,0,0-.43.17l-.7.32-.49.26c-2.69,1.49-6.13,4.45-11.5,9.91l-2.46,2.53-2.3,2.42c-.63.67-1.32,1.33-2.08,2l-.17.16c-.72.64-1.47,1.26-2.24,1.85l-.12.09q-1.2.9-2.43,1.68l0,0a30,30,0,0,1-2.8,1.57l-.32.16a4.9,4.9,0,0,1-.52.24,31.81,31.81,0,0,1-13.37,2.88,42,42,0,0,1-22.31-7l-.33-.22c-.31-.2-.6-.4-.9-.61l-.58-.39-.74-.55-.63-.47-.79-.63s-.39-.31-.51-.42c-.45-.37-.86-.73-1.25-1.09-1.3-1.18-2.55-2.38-3.65-3.44-1.74-1.69-3.37-3.27-5-4.56l-.36-.3c-2.91-2.31-4.55-2.62-5.65-2.62a8.94,8.94,0,0,0-3.86,1.07c-.33.16-.66.34-1,.53s-.59.35-.88.53l-.3.19c-.21.13-.41.27-.61.41l-.36.24-.52.37c-.44.32-.84.62-1.25.94l0,0-.84.68-.09.07c-.59.49-1.22,1-1.86,1.6l-.33.29c-3.63,3.27-7.32,7.27-10.57,10.79a109.14,109.14,0,0,1-10.41,10.4,31.69,31.69,0,0,1-2.81,4.73C95.24,187.89,80.56,194.82,66.65,194.82Z"/>
    <path class="f335186b-ecd8-4443-b4dc-de16a7d182bb" d="M61.78,190c-7.36,0-13.91-2-19.05-5.73-8.36-2.83-13.69-11-15.56-18.37-5.77-7.22-9.71-16.37-11.67-21.6l-.15-.36L15,143l-.58-1.65-.19-.59c-.28-.83-.54-1.65-.77-2.41l-.85-2.94-.7-2.52C8.59,120.62,3.12,97.53,4.12,80.53c.06-1.08.12-2.29.18-3.6v-.19c.49-10.55,1.31-28.21,8-43.45,8.61-19.6,24.72-30,46.61-30h.16c16.64,0,29.18,5.19,37.33,15.44,11,13.78,13.06,35.79,6.22,65.42A255.21,255.21,0,0,1,93,114.89c-.64,1.78-1.26,3.49-1.85,5.15,1.52-1.36,3.14-2.74,4.84-4.11.2-.2.42-.39.64-.57L97,115c8.74-6.87,17-11.24,24.54-13l.44-.1a33.55,33.55,0,0,1,7.16-.82c.86,0,1.73,0,2.57.11a53.82,53.82,0,0,1,28.72,11.32l.1.08c1.53,1.2,3,2.47,4.51,3.87l.08.08c1.12,1.05,2.1,2,3,2.92.64.64,1.53,1.52,1.83,1.76a27.5,27.5,0,0,1,2.42,2.11l.84.78c.28.26.5.45.73.64a7,7,0,0,0,1,.74l.05,0,.21.1a3.54,3.54,0,0,0,.81-.37l.23-.14.46-.32a3.92,3.92,0,0,0,.32-.25l.59-.48.29-.27c.28-.26.53-.49.78-.75l.22-.23c.31-.32.64-.68,1-1.07.71-.82,1.47-1.64,2.33-2.5l.45-.43.08-.08c.65-.62,1.26-1.19,1.87-1.73.11-.1.22-.21.34-.3l.08-.08c.14-.11.28-.23.42-.33A51.42,51.42,0,0,1,203,106.76c.26-.1.52-.19.79-.27l.64-.18.85-.22.47-.11a47.39,47.39,0,0,1,5.58-1.07l1.58-.17,1-.08c.93-.06,1.77-.1,2.53-.1a28.16,28.16,0,0,1,8.39,1.17,14.73,14.73,0,0,1,10.62,15.78,15.58,15.58,0,0,1-14.11,14c-.27,0-.52.06-.76.09l-.11,0-.62.1-.12,0-.56.12-.11,0-.47.13-.15,0-.39.14-.15.05-.42.17-.7.32-.5.26c-2.69,1.49-6.13,4.45-11.5,9.91l-2.45,2.53c-.75.78-1.51,1.57-2.31,2.42-.63.67-1.31,1.34-2.08,2l-.17.16c-.72.65-1.47,1.26-2.23,1.85l-.13.09q-1.2.9-2.43,1.68l0,0c-.92.57-1.87,1.1-2.81,1.56l-.32.16a4.9,4.9,0,0,1-.52.24,31.81,31.81,0,0,1-13.37,2.88,42.06,42.06,0,0,1-22.31-7l-.33-.22-.9-.6-.57-.4c-.25-.17-.5-.36-.75-.55l-.63-.47-.78-.63-.52-.42c-.44-.37-.86-.73-1.25-1.08-1.3-1.18-2.55-2.39-3.64-3.45-1.75-1.69-3.38-3.27-5-4.56l-.36-.3c-2.91-2.31-4.55-2.62-5.65-2.62a8.93,8.93,0,0,0-3.85,1.07c-.34.17-.67.34-1,.53s-.59.35-.88.53l-.3.19-.61.41-.36.24-.52.37c-.44.32-.84.62-1.24.94l0,0-.85.68-.09.08c-.59.48-1.22,1-1.86,1.59l-.33.3c-3.63,3.27-7.31,7.26-10.57,10.79a108.93,108.93,0,0,1-10.41,10.39,31.69,31.69,0,0,1-2.81,4.73C90.37,183,75.69,190,61.78,190Z"/>
    <g>
      <g>
        <path class="a9481915-047a-418b-8cbf-bee9bb06a258" d="M84.22,138.39s26-31.06,46.8-29.18,30.34,15.62,34.11,18.44S174.69,140,186,127s28.38-16.15,36.38-13.64,6,13.33-1.88,14.12-12.55,4.23-26.34,18.81-32.3,6.74-40.93-1.1-15.68-17.87-28.85-10.35S98.49,162.31,91.27,164.5,84.22,138.39,84.22,138.39Z"/>
        <path class="bce4c6b6-af7b-4cd1-bd60-1317d5204821" d="M84.22,138.39s26-31.06,46.8-29.18,30.34,15.62,34.11,18.44S174.69,140,186,127s28.38-16.15,36.38-13.64,4.86,9-3,9.78-12.7-.55-26.5,14-24.77,12.09-33.4,4.25S140,119.22,122.16,130c-13,7.83-27.91,22.9-35.12,25.09S84.22,138.39,84.22,138.39Z"/>
        <path class="e24cd404-2127-4ca8-8f6d-3da0d48f7e10" d="M90.5,164.86a2.87,2.87,0,0,1-2-.94C83.92,159.36,84,139.25,84,138.39v-.08l.06-.07c.24-.29,24.75-29.34,45.13-29.34.63,0,1.26,0,1.87.08,17.14,1.55,26.54,11,31.59,16a29.53,29.53,0,0,0,2.64,2.47c.57.43,1.18,1,1.84,1.62,2.07,1.95,4.65,4.37,8.1,4.37,3.29,0,6.75-2.15,10.59-6.58,9.3-10.71,22.29-14.52,30.58-14.52a20.56,20.56,0,0,1,6.05.81,6.93,6.93,0,0,1,5.21,7.55,7.85,7.85,0,0,1-7.14,7c-7.68.77-12.33,4.1-26.19,18.74-5.18,5.47-11.39,8.25-18.45,8.25h0c-9.24,0-17.83-4.82-22.8-9.33-1.18-1.08-2.34-2.2-3.47-3.29-5.13-5-10-9.66-16.39-9.66a17.51,17.51,0,0,0-8.72,2.63C117.62,139,110.9,146.26,105,152.68c-5.44,5.89-10.13,11-13.64,12A3.12,3.12,0,0,1,90.5,164.86Zm-6-26.38c0,1.45.08,20.83,4.34,25.11a2.28,2.28,0,0,0,2.42.69c3.38-1,8-6.08,13.42-11.92,6-6.44,12.69-13.75,19.61-17.7a18,18,0,0,1,9-2.69c6.6,0,11.52,4.76,16.72,9.79,1.12,1.09,2.28,2.21,3.46,3.28,4.9,4.45,13.38,9.21,22.48,9.21h0a24.22,24.22,0,0,0,18.1-8.1c14-14.75,18.67-18.11,26.5-18.89a7.4,7.4,0,0,0,6.72-6.6,6.49,6.49,0,0,0-4.89-7,20,20,0,0,0-5.91-.79c-8.19,0-21,3.76-30.22,14.36-3.94,4.54-7.52,6.74-10.95,6.74-3.64,0-6.29-2.49-8.43-4.49a22.91,22.91,0,0,0-1.79-1.59,29.55,29.55,0,0,1-2.69-2.52c-5-5-14.33-14.34-31.3-15.87-.6-.06-1.21-.08-1.83-.08C109.47,109.37,85.76,136.94,84.45,138.48Z"/>
      </g>
      <g>
        <path class="a562606c-4b23-4fc1-b9f0-96fc3b9fb18c" d="M76.34,139.33s8.11-6.23,14.35,1.06,6.57,19.24.27,28C82.65,180,58.82,187.31,46.47,177c-6.94-1.53-11.41-9.65-12-15.76C42.12,161.79,72.34,149.8,76.34,139.33Z"/>
        <path class="f5b42d09-f6e2-4093-9fb5-92b797a815c2" d="M76.34,139.33s6.35-5.73,12.58,1.56,3.79,16.07-2.51,24.87c-8.31,11.6-26.07,21.35-38.42,11-6.93-1.53-12.93-9.44-13.52-15.55C42.12,161.79,72.34,149.8,76.34,139.33Z"/>
        <path class="a8e26b3c-0246-4d7a-aaa0-41fecf2f3d02" d="M61.78,182.16c-6.18,0-11.51-1.72-15.42-5-6.78-1.53-11.48-9.3-12.12-16l0-.28.28,0a5,5,0,0,0,.56,0c8,0,37.18-11.55,41.07-21.74l0-.06,0,0a13.27,13.27,0,0,1,7.33-2.53,9.38,9.38,0,0,1,7.34,3.62c6.38,7.46,6.51,19.64.29,28.32C85.5,176.44,73.15,182.16,61.78,182.16Zm-27.05-20.7c.72,6.31,5.37,13.86,11.79,15.28h0l0,0c3.83,3.21,9.07,4.9,15.16,4.9,11,0,23.51-5.76,29-13.41,6.09-8.51,6-20.43-.26-27.74a9,9,0,0,0-7-3.45,13,13,0,0,0-7,2.39c-4.13,10.57-33.21,22-41.48,22h-.32Z"/>
      </g>
      <path class="e24cd404-2127-4ca8-8f6d-3da0d48f7e10" d="M49.44,177.27a25.72,25.72,0,0,1-3.75-.26l.07-.47A29,29,0,0,0,59,175.18,23.24,23.24,0,0,1,49.44,177.27Z"/>
      <g>
        <path class="a9481915-047a-418b-8cbf-bee9bb06a258" d="M68.69,164.11c-5.16,3.25-18.11,8.39-27.63,3.45S24.24,146.27,21.18,136s-10.11-37-9-55,.23-69.62,46.8-69.73,41.87,45,35.87,71-17.52,45.16-16,57.39C80.69,145.68,78.1,158.19,68.69,164.11Z"/>
        <path class="bce4c6b6-af7b-4cd1-bd60-1317d5204821" d="M68.69,164.11c-5.16,3.25-18.11,8.39-27.63,3.45S24.24,146.27,21.18,136s-10.11-37-9-55,.23-69.62,46.8-69.73,36.3,47.42,30.3,73.41-15.36,44.85-12.38,61.83C78.73,152.51,78.1,158.19,68.69,164.11Z"/>
        <path class="e24cd404-2127-4ca8-8f6d-3da0d48f7e10" d="M50.18,169.84A19.93,19.93,0,0,1,41,167.77c-9.84-5.1-17.2-22.3-20-31.66C19.24,130.36,10.73,100.7,11.89,81c.07-1.16.13-2.47.2-3.89.46-10,1.24-26.76,7.35-40.68C26.81,19.62,40.1,11.08,58.93,11h.18c14.1,0,24.6,4.2,31.2,12.5,9.41,11.83,11,31.62,4.72,58.82a249,249,0,0,1-9.38,29.89c-4.17,11.47-7.47,20.53-6.61,27.42,2,6.33-.93,18.8-10.22,24.65C65.55,166.36,58,169.84,50.18,169.84ZM59.11,11.5h-.18C40.3,11.55,27.16,20,19.87,36.61,13.8,50.45,13,67.15,12.56,77.12c-.07,1.43-.13,2.73-.2,3.9-1.15,19.63,7.33,49.22,9.05,55,2.77,9.29,10.06,26.35,19.76,31.38a19.36,19.36,0,0,0,9,2c7.66,0,15.17-3.43,18.39-5.46,9.1-5.73,12-17.93,10-24.15-.88-7,2.43-16.16,6.63-27.69a248,248,0,0,0,9.36-29.83c6.25-27,4.69-46.71-4.63-58.42C83.44,15.64,73.06,11.5,59.11,11.5Z"/>
      </g>
      <g>
        <g>
          <path class="a9481915-047a-418b-8cbf-bee9bb06a258" d="M123.4,109.84c-7.39,1.73-14.93,6.41-21.41,11.49,5.81.9,15,4.67,14.27,19.56a49.53,49.53,0,0,1,8.1-6,17.73,17.73,0,0,1,8.87-2.65C135.62,126.69,137.24,115.38,123.4,109.84Z"/>
          <path class="bce4c6b6-af7b-4cd1-bd60-1317d5204821" d="M123.4,109.84a37.81,37.81,0,0,0-6.93,2.41h0c-1.37.62-2.74,1.32-4.1,2.07,0,0,0,0,0,0-1.35.76-2.69,1.57-4,2.43h0c-.88.57-1.74,1.16-2.6,1.77h0c-1.28.9-2.53,1.84-3.74,2.79,4.82.75,12,3.48,13.83,12.9,2.14-1.54,4.27-3,6.34-4.23,4.65-2.8,8.82-3.9,12.6-3.86C135.24,120.54,133.18,113.75,123.4,109.84Z"/>
          <path class="e24cd404-2127-4ca8-8f6d-3da0d48f7e10" d="M116,141.44l0-.56c.7-14.8-8.52-18.45-14.07-19.32l-.54-.08.43-.33c7.82-6.15,15.06-10,21.5-11.54h.07l.07,0c5.28,2.12,8.8,5.25,10.48,9.32,2.32,5.63.41,11.22-.52,13.36l-.06.14h-.16a17.53,17.53,0,0,0-8.76,2.63,48.44,48.44,0,0,0-8,6Zm-13.44-20.25c5.67,1,14.41,4.91,14,19.16a47.91,47.91,0,0,1,7.72-5.69,18,18,0,0,1,8.84-2.69c.92-2.18,2.65-7.51.45-12.85-1.61-3.93-5-7-10.15-9C117.14,111.56,110.14,115.3,102.56,121.19Z"/>
        </g>
        <g>
          <path class="a9481915-047a-418b-8cbf-bee9bb06a258" d="M171.1,132.55c-2.5-1.4-4.41-3.73-6-4.9-1.71-1.28-4.59-4.79-9.17-8.43,1.62,14.76-6.92,17.37-11.69,17.7,3,2.46,5.88,5.51,8.94,8.29a36.45,36.45,0,0,0,4.44,3.42C172.6,147.31,172.06,137.63,171.1,132.55Z"/>
          <path class="bce4c6b6-af7b-4cd1-bd60-1317d5204821" d="M171.1,132.55h0a23.89,23.89,0,0,1-4.48-3.59l-.2-.19-.1-.09-.27-.25h0l-.26-.24-.06,0-.26-.22a.1.1,0,0,1,0,0l-.27-.21c-.12-.08-.23-.18-.36-.28l-.12-.11c-.09-.08-.18-.15-.27-.24l-.14-.12-.29-.28-.12-.11-.39-.38h0a85.78,85.78,0,0,0-7.48-6.91c.89,8.08-1.27,12.51-4.19,14.93,2.81,2.48,5.34,5.13,7.71,7.29a27,27,0,0,0,6.93,4.7C172.29,142.6,171.81,136.31,171.1,132.55Z"/>
          <path class="e24cd404-2127-4ca8-8f6d-3da0d48f7e10" d="M157.59,148.87l-.07-.05a36.07,36.07,0,0,1-4.47-3.43c-1.18-1.07-2.34-2.2-3.46-3.28-1.86-1.8-3.62-3.5-5.46-5l-.46-.37.59,0a12.21,12.21,0,0,0,8.69-4c2.49-3,3.43-7.49,2.78-13.41l-.06-.56.44.35a76.15,76.15,0,0,1,6.52,6,28.21,28.21,0,0,0,2.64,2.47c.57.43,1.18,1,1.84,1.62a20.79,20.79,0,0,0,4.11,3.26l.09,0,0,.11c.9,4.77.34,8.41-1.73,11.14-2.25,3-6.26,4.72-11.93,5.22Zm-12.72-11.76c1.7,1.42,3.33,3,5,4.66,1.12,1.08,2.28,2.2,3.45,3.27a35,35,0,0,0,4.34,3.35c5.49-.5,9.36-2.19,11.52-5,2-2.59,2.51-6.08,1.66-10.65a22.39,22.39,0,0,1-4.11-3.27,22.91,22.91,0,0,0-1.79-1.59,30.79,30.79,0,0,1-2.7-2.52,76.4,76.4,0,0,0-6-5.57c.55,5.77-.44,10.21-2.94,13.2A12.42,12.42,0,0,1,144.87,137.11Z"/>
        </g>
        <g>
          <path class="a9481915-047a-418b-8cbf-bee9bb06a258" d="M190.23,122.8A41.25,41.25,0,0,0,186,127a24,24,0,0,1-6,5.29c4.21,1.86,11.08,7,6.74,19.65a26.89,26.89,0,0,0,7.47-5.65c3.1-3.28,5.75-6,8.07-8.25C202.52,133.5,201.33,123.38,190.23,122.8Z"/>
          <path class="bce4c6b6-af7b-4cd1-bd60-1317d5204821" d="M190.23,122.8h0c-.74.63-1.46,1.3-2.17,2a1.37,1.37,0,0,1-.17.17l-.87.91c-.35.37-.7.75-1,1.14s-.49.56-.74.83l-.15.17-.71.74-.08.08-.67.65-.09.09c-.24.22-.47.43-.71.63l-.07.06c-.48.42-.95.79-1.41,1.12a.05.05,0,0,1,0,0,16.13,16.13,0,0,1-1.38.9,12.91,12.91,0,0,1,7.9,9.58,49.64,49.64,0,0,0,5-4.7,84,84,0,0,1,8-7.53C199.3,126.18,196.2,123.11,190.23,122.8Z"/>
          <path class="e24cd404-2127-4ca8-8f6d-3da0d48f7e10" d="M186.26,152.43l.19-.54c4.24-12.41-2.32-17.46-6.62-19.37l-.42-.19.4-.23a23.87,23.87,0,0,0,6-5.23,40.91,40.91,0,0,1,4.28-4.25l.07-.06h.1a12.17,12.17,0,0,1,8.82,3.86c3.59,4.06,3.49,10,3.38,11.65v.09l-.06.07c-2.19,2.12-4.76,4.74-8.07,8.24a27.29,27.29,0,0,1-7.54,5.7Zm-5.82-20.15c4.36,2.08,10.5,7.23,6.63,19.21a26.94,26.94,0,0,0,6.89-5.34c3.29-3.47,5.84-6.08,8-8.2.11-1.77.15-7.36-3.26-11.21a11.66,11.66,0,0,0-8.41-3.7,40.56,40.56,0,0,0-4.15,4.14A25.54,25.54,0,0,1,180.44,132.28Z"/>
        </g>
        <g>
          <path class="a9481915-047a-418b-8cbf-bee9bb06a258" d="M222.36,113.38c-3.76-1.18-9.53-1.11-15.76.65,3.26,1.37,8.23,5.27,5.65,16a19.86,19.86,0,0,1,8.23-2.5C228.32,126.71,230.36,115.89,222.36,113.38Z"/>
          <path class="bce4c6b6-af7b-4cd1-bd60-1317d5204821" d="M227,117.52a7,7,0,0,0-4.65-4.14l-.75-.21-.27-.06-.53-.12-.35-.06-.5-.09-.39,0-.49-.06-.43,0-.5,0-.46,0-.5,0h-1.51l-.52,0-.54,0-.52,0-.56,0-.52.06-.58.06-.53.07-.6.09-.53.09-.63.11-.52.1-.64.13-.52.12-.67.16-.51.13-.68.19h0c2.52,1.06,6.08,3.65,6.35,9.73,2.09-.32,4.13-.37,6.43-.6C224.19,122.68,227.22,120.06,227,117.52Z"/>
          <g>
            <path class="bce4c6b6-af7b-4cd1-bd60-1317d5204821" d="M188.06,124.8c.71-.7,1.43-1.37,2.17-2C189.49,123.43,188.77,124.1,188.06,124.8Z"/>
            <path class="bce4c6b6-af7b-4cd1-bd60-1317d5204821" d="M187,125.88l.87-.91Z"/>
            <path class="bce4c6b6-af7b-4cd1-bd60-1317d5204821" d="M207.8,113.71l.67-.16Z"/>
            <path class="bce4c6b6-af7b-4cd1-bd60-1317d5204821" d="M206.61,114l.68-.19Z"/>
            <path class="bce4c6b6-af7b-4cd1-bd60-1317d5204821" d="M183.54,129.58l.09-.09Z"/>
            <path class="bce4c6b6-af7b-4cd1-bd60-1317d5204821" d="M185.09,128l.15-.17Z"/>
            <path class="bce4c6b6-af7b-4cd1-bd60-1317d5204821" d="M214.62,112.64l.54,0Z"/>
            <path class="bce4c6b6-af7b-4cd1-bd60-1317d5204821" d="M209,113.43l.64-.13Z"/>
            <path class="bce4c6b6-af7b-4cd1-bd60-1317d5204821" d="M212.44,112.84l.58-.06Z"/>
            <path class="bce4c6b6-af7b-4cd1-bd60-1317d5204821" d="M182.76,130.27l.07-.06Z"/>
            <path class="bce4c6b6-af7b-4cd1-bd60-1317d5204821" d="M213.54,112.72l.56,0Z"/>
            <path class="bce4c6b6-af7b-4cd1-bd60-1317d5204821" d="M211.31,113l.6-.09Z"/>
            <path class="bce4c6b6-af7b-4cd1-bd60-1317d5204821" d="M210.15,113.2l.63-.11Z"/>
            <path class="bce4c6b6-af7b-4cd1-bd60-1317d5204821" d="M108.34,116.76c1.31-.86,2.65-1.67,4-2.43C111,115.09,109.65,115.9,108.34,116.76Z"/>
            <path class="bce4c6b6-af7b-4cd1-bd60-1317d5204821" d="M164.38,127c.09.09.18.16.27.24C164.56,127.18,164.47,127.11,164.38,127Z"/>
            <path class="bce4c6b6-af7b-4cd1-bd60-1317d5204821" d="M164,126.62l.29.28Z"/>
            <path class="bce4c6b6-af7b-4cd1-bd60-1317d5204821" d="M112.36,114.32c1.36-.75,2.73-1.45,4.1-2.07C115.09,112.87,113.72,113.57,112.36,114.32Z"/>
            <path class="bce4c6b6-af7b-4cd1-bd60-1317d5204821" d="M163.44,126.13l.39.38Z"/>
            <path class="bce4c6b6-af7b-4cd1-bd60-1317d5204821" d="M105.74,118.53c.86-.61,1.72-1.2,2.6-1.77C107.46,117.33,106.6,117.92,105.74,118.53Z"/>
            <path class="bce4c6b6-af7b-4cd1-bd60-1317d5204821" d="M215.68,112.6h0Z"/>
            <path class="bce4c6b6-af7b-4cd1-bd60-1317d5204821" d="M164.77,127.37c.13.1.24.2.36.28C165,127.57,164.9,127.47,164.77,127.37Z"/>
            <path class="bce4c6b6-af7b-4cd1-bd60-1317d5204821" d="M165.77,128.17l.26.24Z"/>
            <path class="bce4c6b6-af7b-4cd1-bd60-1317d5204821" d="M166.42,128.76l.2.19Z"/>
            <path class="bce4c6b6-af7b-4cd1-bd60-1317d5204821" d="M181.31,131.41a.05.05,0,0,0,0,0A.05.05,0,0,1,181.31,131.41Z"/>
            <path class="bce4c6b6-af7b-4cd1-bd60-1317d5204821" d="M165.13,127.65l.27.21Z"/>
            <path class="bce4c6b6-af7b-4cd1-bd60-1317d5204821" d="M165.45,127.9l.26.22Z"/>
            <path class="bce4c6b6-af7b-4cd1-bd60-1317d5204821" d="M166.05,128.42l.27.25Z"/>
            <path class="bce4c6b6-af7b-4cd1-bd60-1317d5204821" d="M219.57,112.79l.39,0Z"/>
            <path class="bce4c6b6-af7b-4cd1-bd60-1317d5204821" d="M221.34,113.11l.27.06Z"/>
            <path class="bce4c6b6-af7b-4cd1-bd60-1317d5204821" d="M218.65,112.69l.43,0Z"/>
            <path class="bce4c6b6-af7b-4cd1-bd60-1317d5204821" d="M184.38,128.76l-.08.08Z"/>
            <path class="bce4c6b6-af7b-4cd1-bd60-1317d5204821" d="M227,117.52c-.14-1.6-1.56-3.17-4.65-4.14A7,7,0,0,1,227,117.52Z"/>
            <path class="bce4c6b6-af7b-4cd1-bd60-1317d5204821" d="M220.46,112.93l.35.06Z"/>
            <path class="bce4c6b6-af7b-4cd1-bd60-1317d5204821" d="M217.69,112.62l.46,0Z"/>
            <path class="bce4c6b6-af7b-4cd1-bd60-1317d5204821" d="M216.7,112.59h0Z"/>
            <path class="bce4c6b6-af7b-4cd1-bd60-1317d5204821" d="M108.34,116.76Z"/>
            <path class="bce4c6b6-af7b-4cd1-bd60-1317d5204821" d="M105.73,118.54h0Z"/>
            <path class="bce4c6b6-af7b-4cd1-bd60-1317d5204821" d="M112.34,114.33s0,0,0,0S112.35,114.33,112.34,114.33Z"/>
            <path class="bce4c6b6-af7b-4cd1-bd60-1317d5204821" d="M116.46,112.25h0Z"/>
            <path class="bce4c6b6-af7b-4cd1-bd60-1317d5204821" d="M166.32,128.67l.1.09Z"/>
            <path class="bce4c6b6-af7b-4cd1-bd60-1317d5204821" d="M166,128.41h0Z"/>
            <path class="bce4c6b6-af7b-4cd1-bd60-1317d5204821" d="M165.71,128.12l.06,0Z"/>
            <path class="bce4c6b6-af7b-4cd1-bd60-1317d5204821" d="M166.62,129a23.89,23.89,0,0,0,4.48,3.59A23.89,23.89,0,0,1,166.62,129Z"/>
            <path class="bce4c6b6-af7b-4cd1-bd60-1317d5204821" d="M163.44,126.13Z"/>
            <path class="bce4c6b6-af7b-4cd1-bd60-1317d5204821" d="M164.65,127.26l.12.11Z"/>
            <path class="bce4c6b6-af7b-4cd1-bd60-1317d5204821" d="M163.83,126.51l.12.11Z"/>
            <path class="bce4c6b6-af7b-4cd1-bd60-1317d5204821" d="M164.24,126.9l.14.12Z"/>
            <path class="bce4c6b6-af7b-4cd1-bd60-1317d5204821" d="M165.4,127.86a.1.1,0,0,0,0,0A.1.1,0,0,1,165.4,127.86Z"/>
            <polygon class="bce4c6b6-af7b-4cd1-bd60-1317d5204821" points="190.23 122.8 190.23 122.8 190.23 122.8 190.23 122.8"/>
            <path class="bce4c6b6-af7b-4cd1-bd60-1317d5204821" d="M179.93,132.31h0a16.13,16.13,0,0,0,1.38-.9A16.13,16.13,0,0,1,179.93,132.31Z"/>
            <path class="bce4c6b6-af7b-4cd1-bd60-1317d5204821" d="M182.83,130.21c.24-.2.47-.41.71-.63C183.3,129.8,183.07,130,182.83,130.21Z"/>
            <path class="bce4c6b6-af7b-4cd1-bd60-1317d5204821" d="M183.63,129.49l.67-.65Z"/>
            <path class="bce4c6b6-af7b-4cd1-bd60-1317d5204821" d="M187.89,125a1.37,1.37,0,0,0,.17-.17A1.37,1.37,0,0,1,187.89,125Z"/>
            <path class="bce4c6b6-af7b-4cd1-bd60-1317d5204821" d="M186,127c.34-.39.69-.77,1-1.14C186.67,126.25,186.32,126.63,186,127Z"/>
            <path class="bce4c6b6-af7b-4cd1-bd60-1317d5204821" d="M185.24,127.85c.25-.27.49-.54.74-.83C185.73,127.31,185.49,127.58,185.24,127.85Z"/>
            <path class="bce4c6b6-af7b-4cd1-bd60-1317d5204821" d="M181.35,131.39c.46-.33.93-.7,1.41-1.12C182.28,130.69,181.81,131.06,181.35,131.39Z"/>
            <path class="bce4c6b6-af7b-4cd1-bd60-1317d5204821" d="M185.09,128l-.71.74Z"/>
            <path class="bce4c6b6-af7b-4cd1-bd60-1317d5204821" d="M216.19,112.59h0Z"/>
            <path class="bce4c6b6-af7b-4cd1-bd60-1317d5204821" d="M218.15,112.65l.5,0Z"/>
            <path class="bce4c6b6-af7b-4cd1-bd60-1317d5204821" d="M213,112.78l.52-.06Z"/>
            <path class="bce4c6b6-af7b-4cd1-bd60-1317d5204821" d="M211.91,112.91l.53-.07Z"/>
            <path class="bce4c6b6-af7b-4cd1-bd60-1317d5204821" d="M214.1,112.68l.52,0Z"/>
            <path class="bce4c6b6-af7b-4cd1-bd60-1317d5204821" d="M215.16,112.62l.52,0Z"/>
            <path class="bce4c6b6-af7b-4cd1-bd60-1317d5204821" d="M210.78,113.09l.53-.09Z"/>
            <path class="bce4c6b6-af7b-4cd1-bd60-1317d5204821" d="M217.19,112.6l.5,0Z"/>
            <path class="bce4c6b6-af7b-4cd1-bd60-1317d5204821" d="M220,112.84l.5.09Z"/>
            <path class="bce4c6b6-af7b-4cd1-bd60-1317d5204821" d="M207.29,113.84l.51-.13Z"/>
            <polygon class="bce4c6b6-af7b-4cd1-bd60-1317d5204821" points="206.6 114.03 206.6 114.03 206.61 114.03 206.6 114.03"/>
            <path class="bce4c6b6-af7b-4cd1-bd60-1317d5204821" d="M220.81,113l.53.12Z"/>
            <path class="bce4c6b6-af7b-4cd1-bd60-1317d5204821" d="M219.08,112.73l.49.06Z"/>
            <path class="bce4c6b6-af7b-4cd1-bd60-1317d5204821" d="M209.63,113.3l.52-.1Z"/>
            <path class="bce4c6b6-af7b-4cd1-bd60-1317d5204821" d="M221.61,113.17l.75.21Z"/>
            <path class="bce4c6b6-af7b-4cd1-bd60-1317d5204821" d="M208.47,113.55l.52-.12Z"/>
          </g>
          <path class="e24cd404-2127-4ca8-8f6d-3da0d48f7e10" d="M211.89,130.47l.13-.53c2.55-10.55-2.36-14.36-5.51-15.7l-.62-.26.65-.18a36.87,36.87,0,0,1,9.84-1.45,20.56,20.56,0,0,1,6.05.81,6.93,6.93,0,0,1,5.21,7.55,7.85,7.85,0,0,1-7.14,7,19.69,19.69,0,0,0-8.14,2.48Zm-4.6-16.39c3.21,1.58,7.51,5.58,5.3,15.46a20.26,20.26,0,0,1,7.87-2.28,7.4,7.4,0,0,0,6.72-6.6,6.49,6.49,0,0,0-4.89-7,20,20,0,0,0-5.91-.79A36.39,36.39,0,0,0,207.29,114.08Z"/>
        </g>
      </g>
      <g>
        <path class="a9481915-047a-418b-8cbf-bee9bb06a258" d="M14.52,108.32A276.34,276.34,0,0,0,21.18,136c.46,1.54,1,3.22,1.66,5,25.42,13.06,46.8-.23,56.22-8a92.67,92.67,0,0,1,4.54-15.74C47.17,137.1,24.31,119.26,14.52,108.32Z"/>
        <g>
          <path class="bce4c6b6-af7b-4cd1-bd60-1317d5204821" d="M19.59,130.45c-.06-.23-.13-.47-.19-.71C19.46,130,19.53,130.22,19.59,130.45Z"/>
          <path class="bce4c6b6-af7b-4cd1-bd60-1317d5204821" d="M20.27,132.88l-.09-.29Z"/>
          <path class="bce4c6b6-af7b-4cd1-bd60-1317d5204821" d="M19.24,129.14c-.09-.32-.17-.65-.26-1C19.07,128.49,19.15,128.82,19.24,129.14Z"/>
          <path class="bce4c6b6-af7b-4cd1-bd60-1317d5204821" d="M20.6,134.05l-.06-.21Z"/>
          <path class="bce4c6b6-af7b-4cd1-bd60-1317d5204821" d="M21.9,138.32c-.1-.3-.19-.6-.29-.89C21.71,137.72,21.8,138,21.9,138.32Z"/>
          <path class="bce4c6b6-af7b-4cd1-bd60-1317d5204821" d="M19.91,131.62c0-.13-.07-.27-.11-.4C19.84,131.35,19.88,131.49,19.91,131.62Z"/>
          <path class="bce4c6b6-af7b-4cd1-bd60-1317d5204821" d="M20.91,135.11a.49.49,0,0,0,0-.11A.49.49,0,0,1,20.91,135.11Z"/>
          <path class="bce4c6b6-af7b-4cd1-bd60-1317d5204821" d="M21.52,137.14c-.12-.37-.23-.74-.34-1.1C21.29,136.4,21.4,136.77,21.52,137.14Z"/>
          <path class="bce4c6b6-af7b-4cd1-bd60-1317d5204821" d="M18.85,127.68l-.36-1.39Z"/>
          <path class="bce4c6b6-af7b-4cd1-bd60-1317d5204821" d="M22.34,139.59c-.12-.33-.23-.66-.34-1C22.11,138.93,22.22,139.26,22.34,139.59Z"/>
          <path class="bce4c6b6-af7b-4cd1-bd60-1317d5204821" d="M21.61,137.43l-.09-.29Z"/>
          <path class="bce4c6b6-af7b-4cd1-bd60-1317d5204821" d="M22,138.6l-.1-.28Z"/>
          <path class="bce4c6b6-af7b-4cd1-bd60-1317d5204821" d="M21.18,136c-.09-.29-.18-.61-.27-.93C21,135.43,21.09,135.75,21.18,136Z"/>
          <path class="bce4c6b6-af7b-4cd1-bd60-1317d5204821" d="M22.4,139.79l-.06-.2Z"/>
          <path class="bce4c6b6-af7b-4cd1-bd60-1317d5204821" d="M19.4,129.74c0-.2-.11-.4-.16-.6C19.29,129.34,19.35,129.54,19.4,129.74Z"/>
          <path class="bce4c6b6-af7b-4cd1-bd60-1317d5204821" d="M19,128.16c0-.16-.09-.32-.13-.48C18.89,127.84,18.94,128,19,128.16Z"/>
          <path class="bce4c6b6-af7b-4cd1-bd60-1317d5204821" d="M19.8,131.22l-.21-.77Z"/>
          <path class="bce4c6b6-af7b-4cd1-bd60-1317d5204821" d="M18.49,126.29a1.8,1.8,0,0,0,0-.19A1.8,1.8,0,0,1,18.49,126.29Z"/>
          <path class="bce4c6b6-af7b-4cd1-bd60-1317d5204821" d="M20.87,135c-.08-.31-.18-.62-.27-.95C20.69,134.38,20.79,134.69,20.87,135Z"/>
          <path class="bce4c6b6-af7b-4cd1-bd60-1317d5204821" d="M20.54,133.84q-.13-.47-.27-1Q20.41,133.38,20.54,133.84Z"/>
          <path class="bce4c6b6-af7b-4cd1-bd60-1317d5204821" d="M20.18,132.59l-.27-1Z"/>
          <path class="bce4c6b6-af7b-4cd1-bd60-1317d5204821" d="M14.52,108.32c1.18,6.43,2.6,12.6,3.92,17.78a1.8,1.8,0,0,1,0,.19l.36,1.39c0,.16.09.32.13.48.09.33.17.66.26,1s.11.4.16.6.13.48.19.71l.21.77c0,.13.08.27.11.4l.27,1,.09.29q.14.5.27,1l.06.21c.09.33.19.64.27.95a.49.49,0,0,1,0,.11c.09.32.18.64.27.93s.22.73.34,1.1l.09.29c.1.29.19.59.29.89l.1.28c.11.33.22.66.34,1l.06.2c.15.4.29.81.44,1.22,23.34,12,43.27,1.77,53.67-6a94.82,94.82,0,0,1,3.09-15.7C45.48,135.78,23.94,118.86,14.52,108.32Z"/>
        </g>
        <path class="e24cd404-2127-4ca8-8f6d-3da0d48f7e10" d="M44.64,146.74a47.57,47.57,0,0,1-21.9-5.52l-.09,0,0-.09c-.63-1.71-1.19-3.38-1.66-5a275.82,275.82,0,0,1-6.67-27.75l-.15-.82.56.62C22,116.28,34.35,126,52.22,126c9.88,0,20.4-3,31.27-8.94l.54-.3-.21.58c-1.9,5.36-3.78,11-4.53,15.71l0,.08-.06.06C73.09,138.22,60.46,146.74,44.64,146.74ZM23,140.84a47.08,47.08,0,0,0,21.61,5.43c15.61,0,28.1-8.39,34.2-13.44a89.83,89.83,0,0,1,4.34-15.12c-10.75,5.78-21.16,8.71-31,8.71-17.59,0-29.93-9.28-37.32-17.33A276.54,276.54,0,0,0,21.41,136C21.88,137.53,22.42,139.17,23,140.84Z"/>
      </g>
      <path class="b66473fe-61f8-4a35-9929-0301cc4edd3c" d="M58.78,96.6h-.6c-12.3-.3-15.26-6.5-18.12-12.49L40,84c-2.77-5.8-8.95-11.89-9-12l-.24-.24h.45c.21,0,21.41.26,37.4.26,9.38,0,15.15-.08,17.16-.26l.82-.07-.63.33c-2.51,1.32-7.34,6.48-10.56,11.27a32,32,0,0,0-1.68,3C71.33,90.89,68.36,96.6,58.78,96.6Z"/>
      <path class="ed4f03c7-99c2-4c1c-96b8-dc12864d682a" d="M31.24,71.84c2.59,2.52,15.11,14,28.67,14,7.93,0,14.85-3.89,20.59-11.57a59.17,59.17,0,0,1-9.79.63C56.28,74.92,35.28,72.35,31.24,71.84Z"/>
      <g>
        <path class="bce4c6b6-af7b-4cd1-bd60-1317d5204821" d="M25.77,67.6S36.45,82.49,60.34,81s27.5-11.4,27.5-11.4Z"/>
        <path class="b1fc8916-22ca-45d2-9778-e6edca24d7a3" d="M57.06,81.34c-21.46,0-31.38-13.46-31.48-13.61l.38-.27c.11.15,10.89,14.77,34.37,13.31S87.58,69.61,87.62,69.51l.44.17c-.15.41-4,10.07-27.7,11.56C59.23,81.31,58.13,81.34,57.06,81.34Z"/>
      </g>
      <path class="b1fc8916-22ca-45d2-9778-e6edca24d7a3" d="M21.34,70.35A7.89,7.89,0,0,1,25,67.69a6.87,6.87,0,0,1,4.93.14C25.31,66.69,21.38,70.32,21.34,70.35Z"/>
      <path class="b1fc8916-22ca-45d2-9778-e6edca24d7a3" d="M89.88,73.33a10.09,10.09,0,0,0-5.73-5.51,7,7,0,0,1,3.71,1.75A6.68,6.68,0,0,1,89.88,73.33Z"/>
      <path class="b663955e-d69a-4468-8a19-e3c21aec377d" d="M84,27.89c0-.09-6.2-9.77-11-9.47,0,0,3.61-2.57,6.62.72C82.4,22.17,84,27.89,84,27.89Z"/>
      <path class="bdad4571-4c3d-484b-b8a8-54fbab5b43d2" d="M88.22,136s5.64,2.36,7.87,10.7c3.77-2.47,18.32-13.38,18.32-13.38-1.85-3.08-5-9.55-12.42-10.49C98.68,125.69,88.22,136,88.22,136Z"/>
      <path class="b1fc8916-22ca-45d2-9778-e6edca24d7a3" d="M55.71,118.15a17.31,17.31,0,0,1-9.47-3.36c.07,0,6.25,4.06,12.33,2.55,3.26-.81,5.93-3.06,7.92-6.69a18.83,18.83,0,0,1-2.27,3.92,11.59,11.59,0,0,1-5.54,3.23A12.74,12.74,0,0,1,55.71,118.15Z"/>
      <path class="f3c89aac-6ccc-4bb6-9a5c-a2a8af9a49c5" d="M105.73,120.1s23.06-20.63,48.7,0C146,116.17,132.63,107.37,105.73,120.1Z"/>
      <path class="b663955e-d69a-4468-8a19-e3c21aec377d" d="M33.4,26.43c0-.08,3.21-8.5,9-8.2,0,0-2.73-.87-3.72-.54C34.05,19.19,33.4,26.43,33.4,26.43Z"/>
      <g>
        <path class="b1022792-1b6b-4825-a00f-89111c73e4e5" d="M69.77,38.93c-6.17,5.5-4.69,17.63,1.57,22.13,3.16,2.27,9.91,1.82,12.86-4.53,1.66-3.58,3.16-9.77.38-15.06C82.14,36.86,75.48,33.85,69.77,38.93Z"/>
        <g>
          <path class="a098d1c0-c38c-4be7-a0dc-75e10bee2667" d="M70.66,42.09c-5,5.23-3.41,15.49,1.19,19.34a5.81,5.81,0,0,0,4.75,1.33c5.67-1.06,9.24-8,8.7-13.77a13.14,13.14,0,0,0-1.58-5.17C81.42,39.63,75.1,37.44,70.66,42.09Z"/>
          <path class="b13b6c99-35ab-41bf-b9ae-ce5cbf65b298" d="M70.69,42.11a11.49,11.49,0,0,0-2.09,3.42,14.73,14.73,0,0,0-.83,3.93,16.49,16.49,0,0,0,1.52,7.76c1.13,2.32,2.94,4.59,5.41,5a5,5,0,0,0,1.8,0l.9-.24.87-.36a9.4,9.4,0,0,0,3-2.3,13.91,13.91,0,0,0,3.33-6.89,13,13,0,0,0-.8-7.66A8.41,8.41,0,0,0,78,39.77a7.54,7.54,0,0,0-3.94.2A8.66,8.66,0,0,0,70.69,42.11Zm-.06,0A8.75,8.75,0,0,1,74,39.85a7.63,7.63,0,0,1,4-.25,8.74,8.74,0,0,1,6.12,4.93,14.24,14.24,0,0,1-2.34,15.23,10.11,10.11,0,0,1-3.25,2.44,6.58,6.58,0,0,1-4,.62,6.31,6.31,0,0,1-3.48-2,12.9,12.9,0,0,1-2.19-3.41,17.06,17.06,0,0,1-1.32-8,14.89,14.89,0,0,1,.89-3.95A11.88,11.88,0,0,1,70.63,42.06Z"/>
        </g>
        <path class="b9816a9a-3235-4c40-8330-cdcb1dd3346e" d="M69.79,53.09c.54,3.73,3.1,8,6.76,7.31,1.35-.27,2.61-1.4,3.73-3,2.32-3.41,2.63-9.19.14-12.31a5.24,5.24,0,0,0-7-1.42C70.57,45.46,69.26,49.38,69.79,53.09Z"/>
        <path class="a098d1c0-c38c-4be7-a0dc-75e10bee2667" d="M74.79,42.89A3.27,3.27,0,0,0,73,46.64c.31,1.64,1.64,2.62,3,2.18a3.28,3.28,0,0,0,1.81-3.76C77.43,43.43,76.1,42.45,74.79,42.89Z"/>
      </g>
      <g>
        <path class="b1022792-1b6b-4825-a00f-89111c73e4e5" d="M35.17,35.57C29,41.07,30.48,53.19,36.74,57.7,39.9,60,46.65,59.52,49.6,53.16c1.66-3.57,3.16-9.77.37-15C47.54,33.49,40.88,30.48,35.17,35.57Z"/>
        <g>
          <path class="a098d1c0-c38c-4be7-a0dc-75e10bee2667" d="M36.06,38.72c-5,5.24-3.41,15.49,1.19,19.35A5.8,5.8,0,0,0,42,59.4c5.67-1.06,9.25-8,8.71-13.77a13.23,13.23,0,0,0-1.58-5.18C46.82,36.26,40.5,34.07,36.06,38.72Z"/>
          <path class="b13b6c99-35ab-41bf-b9ae-ce5cbf65b298" d="M36.09,38.75A11.6,11.6,0,0,0,34,42.17a15.48,15.48,0,0,0-.83,3.92,16.66,16.66,0,0,0,1.53,7.77c1.13,2.32,2.94,4.58,5.41,5a5.18,5.18,0,0,0,1.8,0l.9-.25.87-.35a9.51,9.51,0,0,0,3-2.3A14,14,0,0,0,50,49a13,13,0,0,0-.8-7.67,8.42,8.42,0,0,0-5.79-4.93,7.43,7.43,0,0,0-3.94.2A8.37,8.37,0,0,0,36.09,38.75Zm-.06,0a8.64,8.64,0,0,1,3.38-2.21,7.63,7.63,0,0,1,4-.26,8.77,8.77,0,0,1,6.12,4.94A14.23,14.23,0,0,1,47.2,56.4,10,10,0,0,1,44,58.83a6.45,6.45,0,0,1-4,.62,6.25,6.25,0,0,1-3.48-2A12.22,12.22,0,0,1,34.31,54a17.08,17.08,0,0,1-1.32-8,15,15,0,0,1,.89-4A11.83,11.83,0,0,1,36,38.7Z"/>
        </g>
        <path class="b9816a9a-3235-4c40-8330-cdcb1dd3346e" d="M35.19,49.72c.54,3.74,3.1,8,6.76,7.31,1.35-.26,2.61-1.39,3.72-3,2.33-3.41,2.64-9.19.15-12.31a5.25,5.25,0,0,0-7-1.43C36,42.1,34.66,46,35.19,49.72Z"/>
        <path class="a098d1c0-c38c-4be7-a0dc-75e10bee2667" d="M40.19,39.53a3.26,3.26,0,0,0-1.82,3.75c.31,1.64,1.63,2.61,3,2.18a3.27,3.27,0,0,0,1.82-3.76C42.83,40.06,41.5,39.09,40.19,39.53Z"/>
      </g>
      <path class="ab320fb5-37ca-40ae-9f36-a6eb33b13873" d="M46,91.85s2.52-3.21,9.85-1.84c0,0,9.4-2.52,12.6,2.29C68.48,92.3,59.78,100.78,46,91.85Z"/>
      <path class="b66473fe-61f8-4a35-9929-0301cc4edd3c" d="M53.7,88.9a2.46,2.46,0,0,1,1-.19,3.08,3.08,0,0,1,1,.23,3.51,3.51,0,0,1,1.58,1.42,5.62,5.62,0,0,1,.63,2c0,.33,0,.67,0,1s-.06.66-.13,1h0a15.34,15.34,0,0,0-.24-1.91,6.07,6.07,0,0,0-.68-1.79,3.34,3.34,0,0,0-1.33-1.33A3,3,0,0,0,53.71,89Z"/>
    </g>
  </g>
</svg>
