<svg id="e9e64125-43c0-4556-847d-382a6713b442" data-name="Layer 1" xmlns="http://www.w3.org/2000/svg" xmlns:xlink="http://www.w3.org/1999/xlink" width="275.7" height="239.14" viewBox="0 0 275.7 239.14">
  <defs>
    <style>
      .b56eaf9e-2db5-45c6-805b-cc2c1238b1e2 {
        opacity: 0.5;
      }

      .a045120e-2803-494e-bb11-1afcc07b2aad, .ae5a6527-dc21-4d5a-8ce9-2ab5f2580a85, .bd43030b-02fa-412f-b0c3-4a5c2057b5e5, .e00d0bf1-bb8c-423f-9054-e763a044b865 {
        fill: #fff;
      }

      .a4d0550e-8c5c-47ae-b261-5fc024cc0fa4 {
        fill: #7c0079;
        stroke: #3a0d0d;
        stroke-miterlimit: 10;
        stroke-width: 2px;
      }

      .b068f275-e6b8-4a28-91a4-0a25d354fa37 {
        fill: #bc2424;
      }

      .ae5a6527-dc21-4d5a-8ce9-2ab5f2580a85 {
        opacity: 0.6;
      }

      .aa86db89-ce0a-45ef-a759-2f8249d50bfe {
        fill: gray;
      }

      .a045120e-2803-494e-bb11-1afcc07b2aad, .aa86db89-ce0a-45ef-a759-2f8249d50bfe {
        opacity: 0.26;
      }

      .ec5f76de-dd0b-4b9c-9ccb-bec4f2eccb3e {
        fill: #2b2b2b;
      }

      .b4389c78-66b6-41fd-9728-8a9b4518d4b1 {
        fill: url(#bed30db6-79d6-4121-a306-12802df2f6a0);
      }

      .e3641d46-c07c-4b99-b4de-2960cf307b31 {
        fill: url(#b8e88673-a47c-488f-8671-bd5da9d53382);
      }

      .b6f24a17-7a9b-4fd2-be7b-ad80ec277d21 {
        fill: url(#bde2e8db-4927-432e-aacc-496a2ed934f5);
      }

      .a377f7df-bed6-4dce-b47d-0f4b830ecf8a {
        fill: url(#bcd32dbc-3929-4589-aa4c-afa06467133c);
      }

      .a8fce7e4-79ff-4b55-9925-b3568a29b39f {
        fill: #ad1e1e;
      }

      .b8b4b5e8-cfb4-4c6c-a4b9-d125cbeb1792 {
        fill: #a01818;
      }

      .b1d17b4e-de69-457b-a300-e680606991b9 {
        fill: #911414;
      }

      .b80015be-fda6-427a-9664-96bc2caea852 {
        fill: #ce2929;
      }

      .ef76ef09-ad61-4267-b09c-7c501ab5716d {
        fill: #e84242;
      }

      .b332f457-2033-4875-943f-e1be77f74083 {
        fill: url(#a3a4f978-0f1f-4afa-8a53-2ae68958f700);
      }

      .f5b8628c-f28e-4970-9a8b-24e2bd1b6d8d {
        fill: #bf2121;
      }

      .a1cc10f2-0997-426a-9cd6-0b84e46ad2c5 {
        fill: url(#afbffa72-78c1-4408-a9be-09570d1fa381);
      }

      .ee426e59-9021-4346-8132-149663d66c6c {
        fill: url(#fea2dcf6-2015-4a55-aeef-4718a834fe11);
      }

      .e87a8b37-3520-4d5e-b086-f93c4d1d257b {
        fill: url(#af09c264-5538-4a4a-9b88-441c2f076d6c);
      }

      .bb6f449e-800d-4ece-b317-7ab600843bd9 {
        fill: url(#a089a385-ce58-4262-90cb-24f3d6b81359);
      }

      .e3544ec1-c269-4f08-b46a-806a3d66d6b1 {
        fill: url(#ea6bed61-cf62-498f-a628-5e5170ed1486);
      }

      .ea9544bf-f588-4581-ba6f-3a359eef4e7e {
        fill: url(#ee843b2f-d071-4e02-86d1-f9d7b3e67630);
      }

      .a8c2529a-ed59-4e4f-bd89-3b65cdd7e197 {
        fill: #323232;
      }

      .b39f823c-fa87-482a-a3a1-c575e9dacac6 {
        fill: #282828;
      }

      .b6545b01-a2c3-4c91-91af-4b894477ce01 {
        fill: #191a1c;
      }

      .ab49f1c4-97e7-4e28-92b3-137d0f19e5cd {
        fill: #1c1c1c;
      }

      .a8acb560-7f4f-450b-89c4-5205c0cd7ea9 {
        fill: #dd3636;
      }

      .f788af9d-39e1-4dd8-8116-30fbe9054639 {
        fill: #3a0d0d;
      }

      .bd43030b-02fa-412f-b0c3-4a5c2057b5e5 {
        opacity: 0.68;
      }
    </style>
    <linearGradient id="bed30db6-79d6-4121-a306-12802df2f6a0" data-name="  30" x1="-3241.46" y1="-797.25" x2="-3242.43" y2="-797.63" gradientTransform="matrix(0.58, -0.27, -0.35, -0.77, 1831.19, -1363.2)" gradientUnits="userSpaceOnUse">
      <stop offset="0" stop-color="#e52a21"/>
      <stop offset="0.29" stop-color="#fb423c"/>
      <stop offset="0.68" stop-color="#ed332d"/>
      <stop offset="1" stop-color="#e52a21"/>
    </linearGradient>
    <linearGradient id="b8e88673-a47c-488f-8671-bd5da9d53382" x1="-2859.67" y1="-950.5" x2="-2860.64" y2="-950.87" gradientTransform="matrix(0.64, 0.02, 0.03, -0.85, 2019.97, -630.08)" xlink:href="#bed30db6-79d6-4121-a306-12802df2f6a0"/>
    <linearGradient id="bde2e8db-4927-432e-aacc-496a2ed934f5" x1="-2050.6" y1="-884.52" x2="-2051.57" y2="-884.9" gradientTransform="matrix(0.38, 0.51, 0.69, -0.5, 1417.64, 720.53)" xlink:href="#bed30db6-79d6-4121-a306-12802df2f6a0"/>
    <linearGradient id="bcd32dbc-3929-4589-aa4c-afa06467133c" x1="-2369.98" y1="-970.65" x2="-2370.94" y2="-971.03" gradientTransform="matrix(0.54, 0.34, 0.45, -0.72, 1817.81, 222.86)" xlink:href="#bed30db6-79d6-4121-a306-12802df2f6a0"/>
    <linearGradient id="a3a4f978-0f1f-4afa-8a53-2ae68958f700" data-name="  32" x1="-352.55" y1="165.65" x2="-339.74" y2="179.94" gradientTransform="matrix(-0.87, -0.49, -0.49, 0.87, 30.61, -241.31)" gradientUnits="userSpaceOnUse">
      <stop offset="0" stop-color="#fb423c"/>
      <stop offset="0.29" stop-color="#fb423c"/>
      <stop offset="0.68" stop-color="#fb423c"/>
      <stop offset="1" stop-color="#ef3531"/>
    </linearGradient>
    <linearGradient id="afbffa72-78c1-4408-a9be-09570d1fa381" x1="-229.3" y1="239.28" x2="-203.39" y2="251.39" xlink:href="#a3a4f978-0f1f-4afa-8a53-2ae68958f700"/>
    <linearGradient id="fea2dcf6-2015-4a55-aeef-4718a834fe11" x1="-269.93" y1="178.5" x2="-276.95" y2="188.21" xlink:href="#a3a4f978-0f1f-4afa-8a53-2ae68958f700"/>
    <linearGradient id="af09c264-5538-4a4a-9b88-441c2f076d6c" x1="-2170.49" y1="-905.7" x2="-2171.41" y2="-906.06" gradientTransform="matrix(0.45, 0.45, 0.61, -0.6, 1593.1, 546.37)" xlink:href="#bed30db6-79d6-4121-a306-12802df2f6a0"/>
    <linearGradient id="a089a385-ce58-4262-90cb-24f3d6b81359" x1="-2217.99" y1="-1337.61" x2="-2218.95" y2="-1337.99" gradientTransform="matrix(0.27, 0.62, 0.78, -0.34, 1660.09, 1031.25)" xlink:href="#bed30db6-79d6-4121-a306-12802df2f6a0"/>
    <linearGradient id="ea6bed61-cf62-498f-a628-5e5170ed1486" x1="-1593.21" y1="1117.88" x2="-1594.18" y2="1117.51" gradientTransform="matrix(0.63, -0.13, -0.17, -0.83, 1388.02, 825.17)" xlink:href="#bed30db6-79d6-4121-a306-12802df2f6a0"/>
    <linearGradient id="ee843b2f-d071-4e02-86d1-f9d7b3e67630" x1="-1081.74" y1="1988.08" x2="-1082.71" y2="1987.7" gradientTransform="matrix(0.59, -0.27, -0.35, -0.77, 1596.27, 1361.84)" xlink:href="#bed30db6-79d6-4121-a306-12802df2f6a0"/>
  </defs>
  <g>
    <path class="b56eaf9e-2db5-45c6-805b-cc2c1238b1e2" d="M128.52,236.26a21.69,21.69,0,0,1-18.26-33.41,9.74,9.74,0,0,1,13.48-3,9.74,9.74,0,0,1,2.93,13.56,2,2,0,0,0-.3,1.09,2.15,2.15,0,0,0,2.15,2.19,2.2,2.2,0,0,0,2.2-2.19V195.28c0-.14,0-.28,0-.42V191a7.29,7.29,0,0,1,1-3.75V127.4A225.52,225.52,0,0,0,106.06,129c-.13.14-.26.28-.4.41a7.76,7.76,0,0,1-5.07,2.08h-.19A7.51,7.51,0,0,1,94,128a175.69,175.69,0,0,0-49.23-7h-.27a7.9,7.9,0,0,1-5.24,2,7.59,7.59,0,0,1-6.1-3.08l-14.12-2.5a7.75,7.75,0,0,1-3.54.84,7.63,7.63,0,0,1-4.92-13.47c.21-.18.74-.66,1.44-1.31l.44-.37,1-.89c4.1-3.67,6.79-6.12,9.57-8.66l2.63-2.4c4.66-4.23,8.12-7.34,11.23-10.08,3.62-3.18,7-6.08,10.08-8.63a111.71,111.71,0,0,1,9.17-7q1.89-1.28,4-2.45a41.24,41.24,0,0,1,12.11-4.78,53.73,53.73,0,0,1,9.62-1.13c2.63-.15,5.61-.31,10-.87,1-.13,2-.27,3.07-.43a93.44,93.44,0,0,1-3.74-11c-2.48-9-3-16.76-1.61-22.9C91.19,14.67,95.62,9.61,101.69,8a15.19,15.19,0,0,1,3.94-.53c14.61,0,20.24,20.58,22.08,27.34a91.53,91.53,0,0,1,2.84,14.93l1.42.21.49-7.72a7.1,7.1,0,0,1,.23-1.38A8.32,8.32,0,0,1,140,34.5l.56,0,.52,0a8.19,8.19,0,0,1,7.39,6.65,6.82,6.82,0,0,1,.14,1l.53,7.9c1.51-.12,3.05-.19,4.6-.19h1a92.63,92.63,0,0,1,2.86-15.12C159.4,28,165,7.42,179.63,7.42a15.33,15.33,0,0,1,4,.53c6.07,1.66,10.5,6.73,12.14,13.9,1.41,6.14.87,13.85-1.61,22.91a94.36,94.36,0,0,1-4.27,12.33c2.77.4,4.94.6,6.87.77h.23l1.43.07a49.14,49.14,0,0,1,5.39.62,47.62,47.62,0,0,1,8.36,2.26,41.53,41.53,0,0,1,5.07,2.27,53.17,53.17,0,0,1,5.06,3.12c1.46,1,3.05,2.18,4.86,3.58.4.31.83.64,1.25,1l1.17.92.36.29c.73.58,1.47,1.18,2.21,1.8,3.74,3.1,7.17,6.15,10.45,9.32.48.46.94.92,1.4,1.38l9.19,9.35,14.26,14.53c.3.3.72.73,1.22,1.26a3,3,0,0,1,.3.32l.06.06c.52.56.94,1,1.24,1.36l.41.51a8,8,0,0,1,1.66,3.71,7.71,7.71,0,0,1-1.13,5.41,7.52,7.52,0,0,1-6.36,3.47h0a7.53,7.53,0,0,1-3.22-.72,7.12,7.12,0,0,1-2-1.32c-1.11-.11-2.22-.16-3.32-.16A32.52,32.52,0,0,0,245.68,124c-.65.23-1.3.48-1.94.74a7.38,7.38,0,0,1-.81,1.73,7.49,7.49,0,0,1-6.38,3.5,7.68,7.68,0,0,1-5.23-2.06,159.19,159.19,0,0,0-21.8-1.51c-2,0-4.08,0-6.1.12a158.58,158.58,0,0,0-24.53,2.87,7.68,7.68,0,0,1-2.29,2.18,7.56,7.56,0,0,1-9.74-1.57c-5.87-.9-11.82-1.57-17.77-2v48.93a7.15,7.15,0,0,1,1.12,2.93,8.37,8.37,0,0,1,.73,3.46,8.21,8.21,0,0,1-1.37,4.61,7.22,7.22,0,0,1,.68,3.07v3.82c0,.22,0,.43,0,.64v19.1a21.66,21.66,0,0,1-21.7,21.7Z"/>
    <path class="e00d0bf1-bb8c-423f-9054-e763a044b865" d="M124,231.72a21.7,21.7,0,0,1-18.27-33.41,9.74,9.74,0,0,1,13.48-3,9.74,9.74,0,0,1,2.93,13.56,2.14,2.14,0,0,0-.3,1.09,2.16,2.16,0,0,0,2.16,2.2,2.2,2.2,0,0,0,2.19-2.2V190.74c0-.14,0-.28,0-.42V186.5a7.2,7.2,0,0,1,1-3.75V122.86a225.53,225.53,0,0,0-25.69,1.59c-.13.14-.27.27-.41.4a7.73,7.73,0,0,1-5.07,2.09h-.19a7.51,7.51,0,0,1-6.39-3.51,176.29,176.29,0,0,0-49.23-7H40a8,8,0,0,1-2.37,1.46,7.81,7.81,0,0,1-2.86.55,7.59,7.59,0,0,1-6.11-3.08l-14.12-2.5a7.74,7.74,0,0,1-2.47.78,9.28,9.28,0,0,1-1.06.07A7.63,7.63,0,0,1,4,103a7.74,7.74,0,0,1,2.07-2.74L7.5,98.93a5.07,5.07,0,0,1,.44-.37l1-.9C13,94,15.73,91.54,18.51,89l2.64-2.4c4.65-4.23,8.11-7.34,11.22-10.08,3.62-3.18,7-6.08,10.09-8.62a108.84,108.84,0,0,1,9.17-7c1.25-.85,2.57-1.66,4-2.45a41,41,0,0,1,12.11-4.78,54.45,54.45,0,0,1,9.62-1.13c2.62-.14,5.6-.31,10-.87,1-.13,2-.27,3.07-.42a97.9,97.9,0,0,1-3.74-11c-2.47-9.06-3-16.76-1.61-22.91,1.65-7.17,6.08-12.24,12.15-13.89a14.86,14.86,0,0,1,3.95-.54c14.6,0,20.23,20.58,22.08,27.34A93.82,93.82,0,0,1,126,45.16c.51.06,1,.13,1.41.2l.5-7.72a7.09,7.09,0,0,1,.22-1.38A8.29,8.29,0,0,1,135.43,30a5.07,5.07,0,0,1,.55,0l.52,0a8.2,8.2,0,0,1,7.4,6.65,8.46,8.46,0,0,1,.14,1l.52,7.9c1.51-.12,3.06-.18,4.61-.18h1A92.83,92.83,0,0,1,153,30.22c1.85-6.76,7.48-27.34,22.08-27.34a14.86,14.86,0,0,1,3.95.54c6.07,1.65,10.5,6.72,12.15,13.89,1.41,6.15.86,13.85-1.61,22.91a96,96,0,0,1-4.28,12.34c2.78.39,4.94.59,6.87.76h.23c.34,0,.81,0,1.43.06a49.06,49.06,0,0,1,5.4.63,47,47,0,0,1,8.36,2.26,40.57,40.57,0,0,1,5.06,2.27,51.94,51.94,0,0,1,5.06,3.12c1.47,1,3,2.17,4.87,3.58.4.3.82.63,1.25,1l1.17.92.35.29c.73.59,1.47,1.18,2.21,1.8,3.74,3.1,7.17,6.16,10.45,9.32.48.47,1,.92,1.41,1.39l9.19,9.35,14.25,14.52,1.23,1.26.3.32.05.06c.52.56.95,1,1.24,1.36.15.17.28.34.41.51a8,8,0,0,1,1.66,3.71,7.75,7.75,0,0,1-1.12,5.41,7.54,7.54,0,0,1-6.36,3.47h0a7.64,7.64,0,0,1-5.2-2c-1.11-.1-2.22-.16-3.31-.16a32.32,32.32,0,0,0-10.62,1.76c-.65.22-1.3.47-1.93.74a7.57,7.57,0,0,1-10.42,4.51,7.42,7.42,0,0,1-2-1.35A159.34,159.34,0,0,0,205,121.86c-2,0-4.07,0-6.09.12a159.94,159.94,0,0,0-24.54,2.87,7.57,7.57,0,0,1-12,.62c-5.87-.9-11.82-1.58-17.77-2V172.4a7.32,7.32,0,0,1,1.13,2.92,8.6,8.6,0,0,1,.72,3.46A8.34,8.34,0,0,1,145,183.4a7.29,7.29,0,0,1,.68,3.06v3.82c0,.22,0,.43,0,.64V210a21.68,21.68,0,0,1-21.7,21.7Z"/>
    <path class="a4d0550e-8c5c-47ae-b261-5fc024cc0fa4" d="M260.58,112.18a.68.68,0,0,0-.16-.33l-.19-.21v0c-.27-.3-.67-.75-1.16-1.27l-.11-.13h0l-.09-.08c-.64-.69-1.13-1.17-1.41-1.46-.94-1-1.9-1.93-2.85-2.91q-5.76-5.85-11.19-11.4L238.11,89l-2.58-2.63L234.26,85,233,83.78c-3.42-3.3-6.82-6.28-10.07-9-.81-.68-1.62-1.33-2.41-2-.4-.31-.79-.63-1.19-.93s-.78-.62-1.17-.92c-1.55-1.2-3.06-2.32-4.54-3.34a47.08,47.08,0,0,0-4.36-2.7,35.57,35.57,0,0,0-4.18-1.87A40.11,40.11,0,0,0,198,61.17a40.54,40.54,0,0,0-4.59-.53l-1.2-.06h-.41l.41,0,1.2.08c.74.06,1.75.16,3,.35-3.59-.47-7.13-.49-13.69-1.51-3-.47-5.77-1-8.3-1.58a76.39,76.39,0,0,0,8.19-19.63c2.31-8.45,2.57-14.83,1.53-19.36-1.12-4.89-3.75-7.64-7-8.52C170.9,8.72,164.81,14.6,160,32.14a75.69,75.69,0,0,0-2.94,21.07,50.3,50.3,0,0,0-12.35-.41c-2.72.25-4.53.66-6.9.83l-1-15.53s-.18-.85-.81-.9-.81.9-.81.9l-1,15.58h0c-4.68-.18-5.95-1-10.07-1.43a41.13,41.13,0,0,0-5-.07,78.31,78.31,0,0,0-2.95-20C111.38,14.6,105.3,8.72,99.06,10.42c-3.23.88-5.86,3.63-7,8.52-1,4.53-.78,10.91,1.53,19.36A79.15,79.15,0,0,0,101,56.63c-3.53.79-7.85,1.62-12.82,2.25-9.89,1.27-13.27.63-18.92,1.89a34,34,0,0,0-10.07,4c-1.14.63-2.33,1.36-3.57,2.2a104.92,104.92,0,0,0-8.56,6.53C44,76,40.69,78.87,37.17,82S29.93,88.43,26,92s-6.87,6.28-12.25,11.1l-1.39,1.24v0c-.82.76-1.43,1.31-1.64,1.49a.33.33,0,0,0-.12.15.35.35,0,0,0,.1.45.48.48,0,0,0,.34.06.6.6,0,0,0,.33-.16l1.25-1.12,22.89,4c-.5.69-.88,1.2-1,1.38a.41.41,0,0,0-.09.18.32.32,0,0,0,.18.39.5.5,0,0,0,.34,0,.71.71,0,0,0,.29-.23l1.26-1.7a183.19,183.19,0,0,1,59.45,8.6c-.18.69-.31,1.18-.37,1.38a.75.75,0,0,0,0,.2.32.32,0,0,0,.32.29.44.44,0,0,0,.3-.14.65.65,0,0,0,.19-.32l.39-1.48a233.3,233.3,0,0,1,34.93-2.12l2.79.08v70.65c-.64.07-1,.15-1,.15v3.83h0V210a9.44,9.44,0,1,1-17.38-5.07,2.5,2.5,0,1,0-4.22-2.69,14.44,14.44,0,1,0,26.59,7.8V190.29h0v-3.82h0q-.6-.11-1.17-.15v-7.1a5.92,5.92,0,0,1,1.07,0c.08.18.2.31.34.31s.44-.32.44-.76-.16-.76-.44-.76a.41.41,0,0,0-.34.28,5,5,0,0,1-1.07.09v-2h1.21l-.85-.85h-.36V115.78a232.45,232.45,0,0,1,30,3.14c.23.82.4,1.43.45,1.65a.68.68,0,0,0,.08.18.32.32,0,0,0,.42.1.54.54,0,0,0,.2-.28.63.63,0,0,0,0-.36l-.39-1.44a166,166,0,0,1,62.33-2.21L231.7,118a.41.41,0,0,0,.15.13.32.32,0,0,0,.42-.1.54.54,0,0,0,0-.34.67.67,0,0,0-.17-.32l-1-1.16a39.07,39.07,0,0,1,7.65-3.61,40.89,40.89,0,0,1,19.85-1.6c.05.06.11.11.15.17l1.18,1.31a.58.58,0,0,0,.15.12.32.32,0,0,0,.43-.1A.52.52,0,0,0,260.58,112.18Zm-93.36,6.29h0q-3.19-11.89-6.38-23.79h0Q164,106.57,167.22,118.47ZM147.27,94.33c-1.69,0-3.39,0-5.1,0C143.88,94.29,145.58,94.3,147.27,94.33Zm6.81.13c-1.93,0-3.89-.09-5.86-.12C150.19,94.37,152.14,94.41,154.08,94.46Zm63,4.75-1.39-.2Zm3,.47-1.61-.26Zm2.49.42.65.12-1.85-.33Zm-62.44-5.44c-1.62-.07-3.26-.12-4.9-.17C156.88,94.54,158.51,94.59,160.14,94.66ZM215,98.92l1.68,1.9L215,98.92Zm14.91,2.66c1,.21,1.92.44,2.87.67C231.76,102,230.81,101.79,229.86,101.58ZM224,100.36l2.25.43Zm2.93.57,2.39.52Zm9.09,2.14c-1.05-.27-2.09-.54-3.12-.79Zm8.12,2.38-1.63-.51Zm-2.57-.8-1.69-.5ZM254,109l-1-.38Zm-2.2-.85-1-.36Zm-2.26-.83-1.1-.38Zm-2.31-.81-2.29-.76C245.75,106,246.52,106.24,247.27,106.5Zm9,3.37-1-.42Zm-230.59-8-2,.39Zm-4.35.9-1.73.37Zm-4.43,1-1.21.29Zm21.62-3.94-1.72.21Zm-4.43.59-1.74.26Zm-4.23.67-1.9.33C28.57,101.3,29.21,101.2,29.85,101.09ZM43,99.33l-1.55.16ZM77.69,89l0,0c.17-.26.33-.53.51-.79l.59-.86C78.43,87.82,78.06,88.38,77.69,89Zm31,6.26-3.8.24Zm7.7-.4-3.94.19Zm7.9-.29c-1.38,0-2.75.08-4.12.14C121.55,94.6,122.92,94.56,124.3,94.52Zm3.78-.1,1.9,0,4.49-.07h0C132.32,94.33,130.2,94.37,128.08,94.42Zm9.21-.13h0Zm99.12,8.9,2.59.72Zm20.87,7.1,1.09.45h0Z"/>
    <g>
      <g>
        <path class="b068f275-e6b8-4a28-91a4-0a25d354fa37" d="M182.58,38.3c-3.27,11.93-8.44,21.69-13.39,26.17-2.32,2.1-4.58,3-6.58,2.5-6.22-1.7-7.39-17.3-2.59-34.83S170.9,8.72,177.13,10.42c3.23.88,5.86,3.63,7,8.52C185.15,23.47,184.89,29.85,182.58,38.3Z"/>
        <path class="ae5a6527-dc21-4d5a-8ce9-2ab5f2580a85" d="M179,39.77c-2.55,8.53-6.4,15.51-10,18.88-.84-.45-1.68-.89-2.54-1.31q-3.09-1.53-6.33-2.81c-.74-4.88,0-12.07,2.27-19.73,3.87-12.94,8.48-17.2,13.08-15.83h0C180,20.37,182.86,26.86,179,39.77Z"/>
        <path class="aa86db89-ce0a-45ef-a759-2f8249d50bfe" d="M179,39.77c-2.55,8.53-6.4,15.51-10,18.88-.84-.45-1.68-.89-2.54-1.31,1.22-1.69,2.85-4,5-7,7.87-10.81,5.58-25.09,4-31.41C180,20.37,182.86,26.86,179,39.77Z"/>
      </g>
      <g>
        <path class="b068f275-e6b8-4a28-91a4-0a25d354fa37" d="M93.61,38.3C96.88,50.23,102.06,60,107,64.47c2.32,2.1,4.59,3,6.58,2.5,6.22-1.7,7.39-17.3,2.6-34.83S105.3,8.72,99.06,10.42c-3.23.88-5.86,3.63-7,8.52C91,23.47,91.3,29.85,93.61,38.3Z"/>
        <path class="ae5a6527-dc21-4d5a-8ce9-2ab5f2580a85" d="M97.19,39.77c2.55,8.53,6.4,15.51,10,18.88.84-.45,1.68-.89,2.54-1.31q3.09-1.53,6.33-2.81c.74-4.88,0-12.07-2.27-19.73C110,21.86,105.35,17.6,100.75,19h0C96.15,20.37,93.33,26.86,97.19,39.77Z"/>
        <path class="aa86db89-ce0a-45ef-a759-2f8249d50bfe" d="M97.19,39.77c2.55,8.53,6.4,15.51,10,18.88.84-.45,1.68-.89,2.54-1.31-1.22-1.69-2.85-4-5-7-7.87-10.81-5.58-25.09-4-31.41C96.15,20.37,93.33,26.86,97.19,39.77Z"/>
      </g>
      <g>
        <path class="ec5f76de-dd0b-4b9c-9ccb-bec4f2eccb3e" d="M136.79,38.1s-.18-.85-.81-.9h0c-.58,0-.81.9-.81.9l-1.08,17h3.83Z"/>
        <path class="b4389c78-66b6-41fd-9728-8a9b4518d4b1" d="M230.7,115.75a.8.8,0,0,1-.11.41.55.55,0,0,1-.36.22c.74.82,1.29,1.42,1.47,1.63a.41.41,0,0,0,.15.13.32.32,0,0,0,.42-.1.54.54,0,0,0,0-.34.67.67,0,0,0-.17-.32C231.67,116.83,231.19,116.29,230.7,115.75Z"/>
        <path class="e3641d46-c07c-4b99-b4de-2960cf307b31" d="M167.88,118.1a.76.76,0,0,1-.28.32.48.48,0,0,1-.42,0c.3,1.07.52,1.86.58,2.12a.68.68,0,0,0,.08.18.32.32,0,0,0,.42.1.54.54,0,0,0,.2-.28.63.63,0,0,0,0-.36Z"/>
        <path class="b6f24a17-7a9b-4fd2-be7b-ad80ec277d21" d="M36.53,109.16a.74.74,0,0,1-.43,0,.48.48,0,0,1-.29-.31c-.65.9-1.13,1.56-1.3,1.77a.41.41,0,0,0-.09.18.32.32,0,0,0,.18.39.5.5,0,0,0,.34,0,.71.71,0,0,0,.29-.23Z"/>
        <path class="a377f7df-bed6-4dce-b47d-0f4b830ecf8a" d="M96.92,117.12a.67.67,0,0,1-.4.12.48.48,0,0,1-.39-.18c-.27,1.08-.48,1.87-.56,2.13a.75.75,0,0,0,0,.2.32.32,0,0,0,.32.29.44.44,0,0,0,.3-.14.65.65,0,0,0,.19-.32C96.55,118.52,96.73,117.82,96.92,117.12Z"/>
        <path class="a8fce7e4-79ff-4b55-9925-b3568a29b39f" d="M167.34,118.93A231.47,231.47,0,0,0,96,117.84q3.55-11.15,7.09-22.28c10-.69,20.45-1.14,31.45-1.26q13.68-.14,26.29.38Q164.09,106.8,167.34,118.93Z"/>
        <path class="b8b4b5e8-cfb4-4c6c-a4b9-d125cbeb1792" d="M35.57,109.22A183.23,183.23,0,0,1,96,117.84q3.55-11.15,7.09-22.28-12.82.22-26.47,1c-11.38.65-22.31,1.57-32.77,2.69Z"/>
        <path class="b8b4b5e8-cfb4-4c6c-a4b9-d125cbeb1792" d="M160.84,94.68q3.25,12.12,6.5,24.25a166.19,166.19,0,0,1,63.19-2.35L214.94,98.91a130.7,130.7,0,0,0-54.1-4.23Z"/>
        <path class="b1d17b4e-de69-457b-a300-e680606991b9" d="M11.94,105l23.63,4.18,8.29-10c-5,.46-10.39,1.17-16.12,2.21S16.75,103.72,11.94,105Z"/>
        <path class="b1d17b4e-de69-457b-a300-e680606991b9" d="M230.53,116.58a39.12,39.12,0,0,1,8.24-4,40.89,40.89,0,0,1,20.49-1.49,168.26,168.26,0,0,0-44.32-12.21Z"/>
        <path class="b80015be-fda6-427a-9664-96bc2caea852" d="M105.78,55.48A172.75,172.75,0,0,0,71.52,98.72,187.1,187.1,0,0,0,11.94,105C25.58,92.12,37.71,81.59,47.57,73.41,55.34,67,60.88,62.64,69.28,60.77c5.65-1.26,9-.62,18.92-1.89A137.06,137.06,0,0,0,105.78,55.48Z"/>
        <path class="ef76ef09-ad61-4267-b09c-7c501ab5716d" d="M164,55.11a131.82,131.82,0,0,1,35.3,42.47,168,168,0,0,1,59.95,13.54,413,413,0,0,0-37.47-36.8c-7.24-6.18-12.89-10.44-21.08-12.49-5.64-1.41-8.93-.91-18-2.32A125.88,125.88,0,0,1,164,55.11Z"/>
        <path class="b332f457-2033-4875-943f-e1be77f74083" d="M192.21,60.58l1.2.06a40.54,40.54,0,0,1,4.59.53,40.11,40.11,0,0,1,7.06,1.91A35.57,35.57,0,0,1,209.24,65a47.08,47.08,0,0,1,4.36,2.7c1.48,1,3,2.14,4.54,3.34.39.3.78.6,1.17.92s.79.62,1.19.93c.79.64,1.6,1.29,2.41,2,3.25,2.69,6.65,5.67,10.07,9L234.26,85l1.27,1.29L238.11,89l5.32,5.41q5.41,5.53,11.19,11.4c.95,1,1.91,2,2.85,2.91.28.29.77.77,1.41,1.46s1.05,1.13,1.36,1.48l-.58.53c-.31-.34-.77-.86-1.35-1.47s-1.14-1.16-1.41-1.44l-2.85-2.91L242.89,94.91l-5.3-5.45L235,86.82l-1.26-1.3-1.26-1.26c-3.38-3.31-6.74-6.31-9.95-9-.8-.69-1.6-1.34-2.38-2L219,72.29l-1.16-.93c-1.53-1.21-3-2.35-4.48-3.38a45.11,45.11,0,0,0-4.29-2.75A33.89,33.89,0,0,0,205,63.32a40.5,40.5,0,0,0-7-2,44.55,44.55,0,0,0-4.56-.62l-1.2-.08-.41,0Z"/>
        <path class="f5b8628c-f28e-4970-9a8b-24e2bd1b6d8d" d="M13.78,103.07C19.16,98.25,22.12,95.53,26,92s7.62-6.9,11.14-10S44,76,47.08,73.49A104.92,104.92,0,0,1,55.64,67a46.64,46.64,0,0,1,7.09-4,37.23,37.23,0,0,1,4.82-1.77c.56-.16,1-.26,1.29-.33l.44-.11-.44.12c-.29.08-.72.19-1.28.36a37.6,37.6,0,0,0-4.78,1.84,47.34,47.34,0,0,0-7,4.08c-2.6,1.79-5.41,4-8.44,6.63S41,79.25,37.53,82.38s-7.17,6.51-11,10.09-7.1,6.59-12.19,11.17l-2.09,1.87-.47-.61Z"/>
        <path class="a1cc10f2-0997-426a-9cd6-0b84e46ad2c5" d="M70.45,99.68l.51-.91c.07-.12.26-.48.51-.9l1-1.75c.35-.59.7-1.16,1-1.74l.51-.86.26-.42.27-.42,2.11-3.28c.18-.26.35-.53.52-.8s.34-.53.52-.79l1.07-1.54,2.09-3c.16-.25.34-.49.52-.73l.53-.7,1-1.4,1-1.36.5-.67c.17-.23.33-.45.51-.66l2-2.52c.66-.82,1.3-1.62,1.94-2.39s1.28-1.51,1.9-2.23c1.24-1.43,2.44-2.75,3.57-4,2.27-2.46,4.3-4.51,6-6.15s3-2.9,3.93-3.74l1.4-1.27-1.38,1.3c-.89.85-2.2,2.12-3.86,3.79s-3.64,3.75-5.87,6.24c-1.12,1.24-2.3,2.58-3.52,4-.61.72-1.23,1.47-1.87,2.24s-1.25,1.59-1.9,2.41l-2,2.53-.5.67-.49.67-1,1.37c-.34.47-.68.93-1,1.41-.18.23-.35.47-.52.71s-.35.47-.52.72l-2,3-1,1.54c-.18.26-.34.53-.51.79l-.51.81L75.12,93l-.27.42-.25.43-.5.86-1,1.73L72,98.2c-.25.42-.44.77-.51.9-.17.32-.34.62-.49.91Z"/>
        <path class="ee426e59-9021-4346-8132-149663d66c6c" d="M165.34,56.15c.86.69,2.13,1.71,3.73,3.08a129.8,129.8,0,0,1,12.71,12.45c2.5,2.81,5.12,6,7.74,9.57.32.45.66.89,1,1.35l1,1.39.49.71.48.72c.33.48.65,1,1,1.46,1.28,2,2.58,4,3.82,6.19.15.27.31.54.47.81s.3.55.46.82l.92,1.66c.23.41.54,1,.9,1.7l-.58.43-.14-.27c-.44-.84-.65-1.27-.79-1.53-.31-.55-.61-1.1-.91-1.65l-.45-.83c-.16-.27-.31-.54-.47-.8-1.21-2.16-2.49-4.21-3.74-6.2l-1-1.46c-.16-.24-.32-.48-.47-.72l-.49-.71-1-1.4c-.32-.46-.64-.9-1-1.35-2.57-3.58-5.14-6.79-7.59-9.63A135.48,135.48,0,0,0,169,59.32c-1.57-1.39-2.82-2.43-3.67-3.14L164,55.11Z"/>
        <path class="e87a8b37-3520-4d5e-b086-f93c4d1d257b" d="M71.76,98.76a.67.67,0,0,1-.42,0,.49.49,0,0,1-.31-.21c-.54.93-.92,1.65-1.06,1.89a.37.37,0,0,0-.06.19.3.3,0,0,0,.23.35.44.44,0,0,0,.33-.06.68.68,0,0,0,.26-.27Z"/>
        <path class="bb6f449e-800d-4ece-b317-7ab600843bd9" d="M13,104.82a.78.78,0,0,1-.41-.13.61.61,0,0,1-.23-.4c-.82.76-1.43,1.31-1.64,1.49a.33.33,0,0,0-.12.15.35.35,0,0,0,.1.45.48.48,0,0,0,.34.06.6.6,0,0,0,.33-.16Z"/>
        <path class="e3544ec1-c269-4f08-b46a-806a3d66d6b1" d="M199.49,97a.68.68,0,0,1-.2.37.46.46,0,0,1-.4.13L200,99.46a.52.52,0,0,0,.12.16.31.31,0,0,0,.43,0,.46.46,0,0,0,.12-.31.66.66,0,0,0-.08-.36Z"/>
        <path class="ea9544bf-f588-4581-ba6f-3a359eef4e7e" d="M259,110.22a.84.84,0,0,1-.12.41.57.57,0,0,1-.37.22l1.47,1.64a.58.58,0,0,0,.15.12.32.32,0,0,0,.43-.1.52.52,0,0,0,.05-.33.68.68,0,0,0-.16-.33Z"/>
        <g>
          <g>
            <path class="a8c2529a-ed59-4e4f-bd89-3b65cdd7e197" d="M136.85,178.34a4.22,4.22,0,0,0,1.73-.08v1a5.45,5.45,0,0,0-1.73,0Z"/>
            <polygon class="a8c2529a-ed59-4e4f-bd89-3b65cdd7e197" points="136.65 175.56 137.65 175.56 138.5 176.41 136.65 176.41 136.65 175.56"/>
            <path class="a8c2529a-ed59-4e4f-bd89-3b65cdd7e197" d="M139.14,178.78c0,.44-.2.76-.44.76s-.44-.36-.44-.76.2-.76.44-.76S139.14,178.38,139.14,178.78Z"/>
          </g>
          <path class="b39f823c-fa87-482a-a3a1-c575e9dacac6" d="M133.43,186.5a14.41,14.41,0,0,1,5,0A11.71,11.71,0,0,1,133.43,186.5Z"/>
          <rect class="ec5f76de-dd0b-4b9c-9ccb-bec4f2eccb3e" x="134.47" y="91.65" width="2.82" height="99.48"/>
          <g>
            <path class="b6545b01-a2c3-4c91-91af-4b894477ce01" d="M138.46,190.29v-3.83a15.66,15.66,0,0,1-5,0v3.83A8.11,8.11,0,0,0,138.46,190.29Z"/>
            <path class="ab49f1c4-97e7-4e28-92b3-137d0f19e5cd" d="M133.44,190.27V210a9.44,9.44,0,1,1-17.38-5.07,2.5,2.5,0,1,0-4.22-2.69,14.44,14.44,0,1,0,26.59,7.8V190.27A8.21,8.21,0,0,1,133.44,190.27Z"/>
          </g>
        </g>
        <path class="a8acb560-7f4f-450b-89c4-5205c0cd7ea9" d="M71.52,98.72a531.38,531.38,0,0,1,127.79-1.14A189.79,189.79,0,0,0,179,68.46c-8.7-10.22-13-13-17.76-14.36a48,48,0,0,0-16.48-1.3c-3.94.36-6,1.06-10.57.88s-5.95-1-10.07-1.43a40.74,40.74,0,0,0-13.82,1.33c-7,2.11-11.29,6.92-16,12.64A282.6,282.6,0,0,0,71.52,98.72Z"/>
      </g>
      <g>
        <circle class="f788af9d-39e1-4dd8-8116-30fbe9054639" cx="117.38" cy="66.53" r="4.11" transform="translate(32.53 171.43) rotate(-80.58)"/>
        <path class="e00d0bf1-bb8c-423f-9054-e763a044b865" d="M119.33,65a1.3,1.3,0,1,1-1.3-1.3A1.3,1.3,0,0,1,119.33,65Z"/>
        <path class="e00d0bf1-bb8c-423f-9054-e763a044b865" d="M120.2,68.05a.44.44,0,0,1-.44.43.43.43,0,1,1,0-.86A.44.44,0,0,1,120.2,68.05Z"/>
      </g>
      <g>
        <circle class="f788af9d-39e1-4dd8-8116-30fbe9054639" cx="156.79" cy="66.53" r="4.11" transform="translate(65.48 210.31) rotate(-80.58)"/>
        <path class="e00d0bf1-bb8c-423f-9054-e763a044b865" d="M158.74,65a1.3,1.3,0,1,1-1.3-1.3A1.31,1.31,0,0,1,158.74,65Z"/>
        <path class="e00d0bf1-bb8c-423f-9054-e763a044b865" d="M159.6,68.05a.43.43,0,0,1-.43.43.44.44,0,0,1-.44-.43.44.44,0,0,1,.44-.43A.43.43,0,0,1,159.6,68.05Z"/>
      </g>
      <g>
        <path class="f788af9d-39e1-4dd8-8116-30fbe9054639" d="M135.41,73.66c.8,1.55,0,6.1,0,6.1s-3.72-2.22-4.52-3.77-.45-3.32.79-4S134.61,72.12,135.41,73.66Z"/>
        <path class="f788af9d-39e1-4dd8-8116-30fbe9054639" d="M140.19,75.92c-.73,1.58-4.8,3.76-4.8,3.76s-.51-4.3.22-5.88,2.35-2.39,3.62-1.8S140.92,74.34,140.19,75.92Z"/>
      </g>
      <g>
        <path class="f788af9d-39e1-4dd8-8116-30fbe9054639" d="M169.82,75.38a29.49,29.49,0,0,0-3.54-.4,33.06,33.06,0,0,0-3.59,0,23.44,23.44,0,0,0-3.54.53,15,15,0,0,0-3.33,1.25h0a.2.2,0,0,1-.29-.09.21.21,0,0,1,.08-.29A15.76,15.76,0,0,1,159,75a23.48,23.48,0,0,1,3.62-.65,30.11,30.11,0,0,1,3.68-.13,30.62,30.62,0,0,1,3.67.31.43.43,0,0,1-.13.86h0Z"/>
        <path class="f788af9d-39e1-4dd8-8116-30fbe9054639" d="M168.25,81.41a23.72,23.72,0,0,0-2.79-1,24.59,24.59,0,0,0-2.91-.69,19.63,19.63,0,0,0-3-.26,13.13,13.13,0,0,0-2.93.36h0a.21.21,0,0,1-.26-.15.2.2,0,0,1,.15-.26,13,13,0,0,1,3-.49,19.81,19.81,0,0,1,3.08.16,25.85,25.85,0,0,1,3,.6,25.12,25.12,0,0,1,2.94,1,.43.43,0,1,1-.32.8h0Z"/>
      </g>
      <g>
        <path class="f788af9d-39e1-4dd8-8116-30fbe9054639" d="M104.69,76.17a28.81,28.81,0,0,1,3.63-.65,32.14,32.14,0,0,1,3.67-.23,26.59,26.59,0,0,1,3.67.31,16.64,16.64,0,0,1,3.52,1.07.22.22,0,0,1,.11.29.2.2,0,0,1-.27.11h0a15.23,15.23,0,0,0-3.44-.93,23.67,23.67,0,0,0-3.57-.2,30.36,30.36,0,0,0-3.57.33,29,29,0,0,0-3.5.73h0a.43.43,0,1,1-.24-.83Z"/>
        <path class="f788af9d-39e1-4dd8-8116-30fbe9054639" d="M106.64,82.09a27.27,27.27,0,0,1,2.84-1.22,26.84,26.84,0,0,1,2.94-.87,19.51,19.51,0,0,1,3-.45,13.3,13.3,0,0,1,3.08.2.22.22,0,0,1-.08.43h0a12.73,12.73,0,0,0-3-.09,18.29,18.29,0,0,0-2.92.54,25.41,25.41,0,0,0-2.83,1,26.53,26.53,0,0,0-2.69,1.27h0a.43.43,0,0,1-.42-.76Z"/>
      </g>
      <circle class="a045120e-2803-494e-bb11-1afcc07b2aad" cx="125.65" cy="79.1" r="3.43"/>
      <path class="a045120e-2803-494e-bb11-1afcc07b2aad" d="M151.2,79.12a3.43,3.43,0,1,1-3.42-3.43A3.43,3.43,0,0,1,151.2,79.12Z"/>
      <path class="bd43030b-02fa-412f-b0c3-4a5c2057b5e5" d="M133.63,84.45s-1.11,3.78.67,4.11,1.55-2.33,1.55-2.33.25,2.85,2,2.44c1.44-.33.22-4,.22-4Z"/>
      <path class="f788af9d-39e1-4dd8-8116-30fbe9054639" d="M130.71,81.31c.14.16.34.38.52.56a6.91,6.91,0,0,0,.6.5,6,6,0,0,0,1.31.76,7.35,7.35,0,0,0,3,.54,10.75,10.75,0,0,0,3.11-.48,8.19,8.19,0,0,0,1.42-.63,5.74,5.74,0,0,0,.66-.43c.2-.14.43-.34.58-.47l.11-.09a.57.57,0,0,1,.81.07.58.58,0,0,1,.09.58,4.82,4.82,0,0,1-.53.93,6.07,6.07,0,0,1-.67.76A6.85,6.85,0,0,1,140,85.07a8.71,8.71,0,0,1-3.88.89,7.32,7.32,0,0,1-3.95-1,6.16,6.16,0,0,1-1.56-1.36,6,6,0,0,1-.57-.85,4.79,4.79,0,0,1-.4-1,.58.58,0,0,1,.39-.71.56.56,0,0,1,.58.17Z"/>
    </g>
  </g>
</svg>
