<svg id="bd9cc717-2b78-464f-b90c-1728365d3acd" data-name="Layer 1" xmlns="http://www.w3.org/2000/svg" width="216.02" height="222.8" viewBox="0 0 216.02 222.8">
  <defs>
    <style>
      .bb788d54-c66c-47fe-9a87-48ccfbc1301a {
        opacity: 0.5;
      }

      .e2d90865-0aff-445e-b1bc-f6c0d066c94b {
        fill: #fff;
      }

      .b80fe941-8502-482d-a782-f32d56692739 {
        fill: #702d32;
      }

      .eb02cb9b-9804-4403-9916-786e97132bc6 {
        fill: #6b6b6a;
      }

      .a8c9e57b-2c15-42d4-b139-3fecf7f2f001 {
        fill: #ffcb0f;
      }

      .b46cb05d-b19b-432e-9d6a-69fb38dc57b3 {
        fill: #00798b;
      }

      .b39b9fbb-33e0-4114-93cd-74cb999d21bc {
        fill: #e4051f;
      }

      .a253a865-8958-44aa-97af-136d05fa778f {
        fill: #6d6c6b;
      }

      .e996d1e8-dd5a-471f-a089-2fb487d5b501 {
        fill: #706e6d;
      }

      .a2848448-cc6b-4abb-9836-2cadf8012b80 {
        fill: #766a6b;
      }

      .e11d73c2-85fc-4b99-92ec-2b5d6e7636ef {
        fill: #f9e0d6;
      }

      .f2026dfd-29a4-43ee-84e2-a0ac1e84d7b0 {
        fill: #fbc69a;
      }

      .fff03104-1f2b-4068-868c-57134688d6a8 {
        fill: #e3e5dd;
      }

      .b22a9dba-ed2e-498f-96ed-9eaf42e4c819 {
        fill: #7ea0a8;
      }

      .fde512d7-eced-4701-bde5-d90bbb0c5a6e {
        fill: #e2a7af;
      }

      .f494a402-bc0b-4e9b-9d78-b4c634775a2c {
        fill: #d77c85;
      }

      .abcc1cd8-a6f6-4377-931a-96b94c715f6e {
        fill: #c3d200;
      }

      .ad5f3ac2-07da-4432-a5fa-a76c0149ca87 {
        fill: #720d03;
      }

      .a5b12359-5f0f-4783-99be-356d083384b9 {
        fill: #e10a1f;
      }

      .a27e9603-e820-4920-a72e-db9d762535d6 {
        fill: #d91a21;
      }

      .a298efa1-9dfd-4813-b627-ef3494c389e9 {
        fill: #cf0b21;
      }

      .b727a078-e6e4-4378-b62e-4402f5e252b9 {
        fill: #d82420;
      }

      .a443df8c-1e71-4618-adda-296531ef90a6 {
        fill: #bc0f21;
      }

      .b5630e28-f4df-4e67-ae17-31563fac14dd {
        fill: #9f1924;
      }

      .f85a59a7-4634-4382-8651-2b8220c1ce71 {
        fill: #2d7a71;
      }

      .ee806c0b-9d71-4385-8863-e5e0acaaed81 {
        fill: #db9f18;
      }

      .ae1a1f9c-b1ba-40a7-b6b9-363af4299eb7 {
        fill: #b4900d;
      }

      .a7579725-7ddc-4912-902a-bebe858c6ab0 {
        fill: #a71b29;
      }

      .bba7b829-822e-42e9-834c-9f526943aa6c {
        fill: #814a29;
      }

      .a04d90ca-1252-468c-bba9-f87208a35f17 {
        fill: #45855f;
      }

      .a1124b50-7f0a-4e3e-8e27-0f0c8b3d06f3 {
        fill: #378870;
      }

      .a6bdecb6-5c3a-4310-b8aa-c322edce7893 {
        fill: #ef9d91;
      }

      .e746fccf-2e44-4a16-81a8-0928633b23df {
        fill: #ffca0f;
      }

      .e7ec5260-cb7a-4ba8-9a20-8f4c3b08b7b2 {
        fill: #fec80f;
      }

      .b602f0b3-d6b7-4039-8dcb-1eff11080a3c {
        fill: #ffc80f;
      }

      .bd7a7050-fadb-40ae-809a-f89eaace4676 {
        fill: #fdc010;
      }

      .fd7999f3-6052-4140-87e9-80c42c5bb7f2 {
        fill: #900b09;
      }

      .a17bc111-749f-42fe-bf9c-8ff42ee78f02 {
        fill: #fff596;
      }

      .bdb5354b-d4e9-4de5-903e-e487d37b937c {
        fill: #e4061f;
      }

      .ee1c5d30-0a8d-4cfd-834c-c87a8f013649 {
        fill: #e5091f;
      }

      .b641b473-77f0-4305-92e0-ae668c8427b0 {
        fill: #e5081f;
      }

      .f7647eae-64dd-442e-95f7-c4b6965cac39 {
        fill: #e50b1f;
      }

      .ea94c685-e650-4fd0-aae3-ae6dba9a4681 {
        fill: #ffed7c;
      }

      .b71cc015-03d9-4e85-97ee-0f5c43bbe8fb {
        fill: #ffea73;
      }

      .a351d1d9-edf5-4b68-ada3-931a0c40cbf4 {
        fill: #ffe35e;
      }

      .e6635116-ec20-4133-82a2-dee89a872a0d {
        fill: #ffdb43;
      }

      .e41980b3-f328-4123-b583-0bd92cb1bc00 {
        fill: #fffd96;
      }

      .a59046a5-27db-4ea0-887b-55296627fd31 {
        fill: #01798a;
      }

      .b700b43b-2455-435f-be93-8fa7c24df7ec {
        fill: #047b88;
      }

      .b495c66e-1d44-4e09-80d9-317607583551 {
        fill: #057b88;
      }

      .a1aac9d7-cec2-45c4-a1ae-cb7ac905738a {
        fill: #f2f476;
      }

      .f8863faf-7187-4eed-9c4f-af61dd5a6972 {
        fill: #dfe648;
      }

      .bf851672-a805-45d7-82c4-ed629e4671b3 {
        fill: #d9e239;
      }

      .a8d9884b-a4f9-4a23-bfd0-732faf4e27f3 {
        fill: #d0db20;
      }

      .f37085df-0c2f-45b2-9357-474df0359092 {
        fill: #00b9ca;
      }

      .a5dc8aa5-1c66-439a-b630-fffbdf24d147 {
        fill: #bfd102;
      }

      .b2a5165e-7276-4984-89f1-80f053f95f6a {
        fill: #b7cd08;
      }

      .e44b7da4-b8fc-49d0-afec-e1f36f28b3b7 {
        fill: #b8cd07;
      }

      .f82654b8-6ef7-4d7e-b4c4-a55340b8a88c {
        fill: #009aab;
      }
    </style>
  </defs>
  <g>
    <path class="bb788d54-c66c-47fe-9a87-48ccfbc1301a" d="M92.69,219.2a8.61,8.61,0,0,1-7.52-4.31,8.44,8.44,0,0,1-5.76-10.5,8.66,8.66,0,0,1-1.54-5.34A8.83,8.83,0,0,1,81,192.78a12.82,12.82,0,0,1,1.58-1.24,22,22,0,0,1,6.54-3.07,12.71,12.71,0,0,1,3.53-.51c.41,0,.82,0,1.24.06a9.81,9.81,0,0,1,4.71,1.77A70.33,70.33,0,0,1,114,184.34a67.12,67.12,0,0,1,9.22-1.37c1.58-.12,3.25-.18,5-.18.73,0,1.45,0,2.18,0a68.7,68.7,0,0,1,7,.58,97.21,97.21,0,0,1,19.51,4.77c2.87,1,5.74,2,8.52,3l3.95,1.42a93.61,93.61,0,0,0,9.24,2.92,27.92,27.92,0,0,0,6.47,1h.16a12.34,12.34,0,0,0,6.23-1.58,7.46,7.46,0,0,0,3.4-3.46,7.25,7.25,0,0,0,.11-6.25,10.79,10.79,0,0,0-3.55-4.35,23.13,23.13,0,0,0-6.94-3.54,44.88,44.88,0,0,0-8-1.81,102.23,102.23,0,0,1-12.65-2.66,9.37,9.37,0,0,1-6.19,3.4,11.48,11.48,0,0,1-1.44.09,12.15,12.15,0,0,1-3.34-.48,22,22,0,0,1-7.68-4,9,9,0,0,1-3.7-7,8.61,8.61,0,0,1,.1-1.55q-2.47-1.51-4.82-3.18a9.38,9.38,0,0,1-6.11,2.21,10.49,10.49,0,0,1-2.79-.39,13.14,13.14,0,0,1-3.64-1.62,25.07,25.07,0,0,1-7.49-7.41,9.26,9.26,0,0,1-1.42-7.72,8.78,8.78,0,0,1,1-2.31c-.68-.44-1.4-.88-2.14-1.33A133.81,133.81,0,0,0,98,133.53c-7-3-14.72-5.9-23.6-8.8-6.61-2.16-13.47-4.2-20.76-6.19a9.62,9.62,0,0,1-3.41,8.12,15.09,15.09,0,0,1-3.51,2.23,7.19,7.19,0,0,1-.76.32,12.23,12.23,0,0,1-1.52,1.66l-1.51,1.35a15,15,0,0,1-3.8,2.47,8,8,0,0,1-6.68-.11A8.5,8.5,0,0,1,30,132.77c-.3,0-.56,0-.78,0h-.51a8.34,8.34,0,0,1-6.59-3.13A8.09,8.09,0,0,1,20.46,126c-.44-.35-.88-.69-1.33-1a30.58,30.58,0,0,1-3.93-3.53A25,25,0,0,1,8.71,108a16.68,16.68,0,0,1,.44-7.39,12.56,12.56,0,0,1,.17-1.32c.1-.53.19-1,.29-1.52.13-.69.26-1.37.37-2.06.41-2.65.71-4.68,1-6.58s.49-4,.74-6.36c.17-1.71.31-3.42.45-5.13l0-.35q.29-3.52.54-7.06c.09-1.25.17-2.52.23-3.78.1-2.14.19-4.27.29-6.41l.22-5.14c.31-6.83.42-13.54.51-21,.05-3.75,0-7.6,0-11.32,0-1.6,0-3.19,0-4.78a11,11,0,0,1,.38-3.24,8.35,8.35,0,0,1,8.07-6A11.48,11.48,0,0,1,25.1,9c3.89.9,8.16,1.74,13.46,2.64,3.89.67,7.77,1.26,11.55,1.76s7.41.92,11,1.32c3.38.39,6.37.7,9.15,1s5.53.47,8.25.67l.32,0q5.16.39,10.32.74c1.2.09,2.41.14,3.62.2l3.23.17c1.7.09,3.41.19,5.11.25,2.7.11,5.4.19,8.1.26a13,13,0,0,1,1.31.12A17.17,17.17,0,0,1,113,17.9a21.6,21.6,0,0,1,6,.89,25.67,25.67,0,0,1,12.93,8.56c.39.46.76.94,1.14,1.41.19.24.38.49.58.73a8.11,8.11,0,0,1,4.52,2.31A8.34,8.34,0,0,1,140.54,38c0,.22,0,.5,0,.83A8,8,0,0,1,143,46.54a11.29,11.29,0,0,1-2.32,4.63c-.74.92-1.5,1.79-2.21,2.6A9.37,9.37,0,0,1,137.14,55a12.44,12.44,0,0,1-3.62,5.44,9.35,9.35,0,0,1-10.82,1.16A27.31,27.31,0,0,1,119,59.22c.24,1.89.51,4,.84,6.13s.66,4.05,1,6.07l.34,2c.6,3.51,1.35,7.34,2.35,12,2.4,11.18,5.37,22.84,8.82,34.65.83,2.84,1.64,5.56,2.45,8.19a7.69,7.69,0,0,1,.83,0,8.86,8.86,0,0,1,4.58,1.29,14.59,14.59,0,0,1,2,1.42,26.45,26.45,0,0,1,5.62,6.89,14.91,14.91,0,0,1,1.71,4.68,10.07,10.07,0,0,1-.58,5.59l.81.5a8.64,8.64,0,0,1,6.88-3.4,9.09,9.09,0,0,1,2.35.31,12.56,12.56,0,0,1,2.14.76,22.51,22.51,0,0,1,6,4,12.63,12.63,0,0,1,3.07,4.21,10.17,10.17,0,0,1,.76,2.72l1.92.44c2.37.51,4.8.9,6.86,1.21a55.26,55.26,0,0,1,13.45,3.66,36.85,36.85,0,0,1,9.81,6,26.76,26.76,0,0,1,8.24,12.07A23.74,23.74,0,0,1,207.41,203a25.92,25.92,0,0,1-16.27,10,29.75,29.75,0,0,1-5.72.54h0a36.43,36.43,0,0,1-5.09-.37,69.6,69.6,0,0,1-13.72-3.51c-2.47-.86-4.94-1.75-7.4-2.64l-4.92-1.77a113.08,113.08,0,0,0-12.4-3.76,65.08,65.08,0,0,0-9-1.47c-1.6-.15-3.21-.22-4.78-.22-1.26,0-2.53,0-3.77.14a47.7,47.7,0,0,0-12.48,2.66q-2.44.87-4.84,2a9.51,9.51,0,0,1-.67,5.39,11.3,11.3,0,0,1-2.31,3.45A21.63,21.63,0,0,1,96,218.58a10.86,10.86,0,0,1-1.41.42A9.46,9.46,0,0,1,92.69,219.2Z"/>
    <path class="e2d90865-0aff-445e-b1bc-f6c0d066c94b" d="M87.69,214.2a8.61,8.61,0,0,1-7.52-4.31,8.44,8.44,0,0,1-5.76-10.5,8.66,8.66,0,0,1-1.54-5.34A8.83,8.83,0,0,1,76,187.78a12.82,12.82,0,0,1,1.58-1.24,22,22,0,0,1,6.54-3.07,12.71,12.71,0,0,1,3.53-.51c.41,0,.82,0,1.24.06a9.81,9.81,0,0,1,4.71,1.77A70.33,70.33,0,0,1,109,179.34a67.12,67.12,0,0,1,9.22-1.37c1.58-.12,3.25-.18,5-.18.73,0,1.45,0,2.18,0a68.7,68.7,0,0,1,7,.58,97.21,97.21,0,0,1,19.51,4.77c2.87,1,5.74,2,8.52,3l3.95,1.42a93.61,93.61,0,0,0,9.24,2.92,27.92,27.92,0,0,0,6.47,1h.16a12.34,12.34,0,0,0,6.23-1.58,7.46,7.46,0,0,0,3.4-3.46,7.25,7.25,0,0,0,.11-6.25,10.79,10.79,0,0,0-3.55-4.35,23.13,23.13,0,0,0-6.94-3.54,44.88,44.88,0,0,0-8-1.81,102.23,102.23,0,0,1-12.65-2.66,9.37,9.37,0,0,1-6.19,3.4,11.48,11.48,0,0,1-1.44.09,12.15,12.15,0,0,1-3.34-.48,22,22,0,0,1-7.68-4,9,9,0,0,1-3.7-7,8.61,8.61,0,0,1,.1-1.55q-2.47-1.51-4.82-3.18a9.38,9.38,0,0,1-6.11,2.21,10.49,10.49,0,0,1-2.79-.39,13.14,13.14,0,0,1-3.64-1.62,25.07,25.07,0,0,1-7.49-7.41,9.26,9.26,0,0,1-1.42-7.72,8.78,8.78,0,0,1,1-2.31c-.68-.44-1.4-.88-2.14-1.33A133.81,133.81,0,0,0,93,128.53c-7-3-14.72-5.9-23.6-8.8-6.61-2.16-13.47-4.2-20.76-6.19a9.62,9.62,0,0,1-3.41,8.12,15.09,15.09,0,0,1-3.51,2.23,7.19,7.19,0,0,1-.76.32,12.23,12.23,0,0,1-1.52,1.66l-1.51,1.35a15,15,0,0,1-3.8,2.47,8,8,0,0,1-6.68-.11A8.5,8.5,0,0,1,25,127.77c-.3,0-.56,0-.78,0h-.51a8.34,8.34,0,0,1-6.59-3.13A8.09,8.09,0,0,1,15.46,121c-.44-.35-.88-.69-1.33-1a30.58,30.58,0,0,1-3.93-3.53A25,25,0,0,1,3.71,103a16.68,16.68,0,0,1,.44-7.39,12.56,12.56,0,0,1,.17-1.32c.1-.53.19-1,.29-1.52.13-.69.26-1.37.37-2.06.41-2.65.71-4.68,1-6.58s.49-4,.74-6.36c.17-1.71.31-3.42.45-5.13l0-.35q.28-3.52.54-7.06c.09-1.25.17-2.52.23-3.78.1-2.14.19-4.27.29-6.41l.22-5.14c.31-6.83.42-13.54.51-21C9,25.2,9,21.35,9,17.63c0-1.6,0-3.19,0-4.78a11,11,0,0,1,.38-3.24,8.35,8.35,0,0,1,8.07-6A11.48,11.48,0,0,1,20.1,4C24,4.86,28.26,5.7,33.56,6.6c3.89.67,7.77,1.26,11.55,1.76s7.41.92,11,1.32c3.38.39,6.37.7,9.15,1s5.53.47,8.25.67l.32,0q5.16.39,10.32.74c1.2.09,2.41.14,3.62.2l3.23.17c1.7.09,3.41.19,5.11.25,2.7.11,5.4.19,8.1.26a13,13,0,0,1,1.31.12A17.17,17.17,0,0,1,108,12.9a21.6,21.6,0,0,1,6,.89,25.67,25.67,0,0,1,12.93,8.56c.39.46.76.94,1.14,1.41.19.24.38.49.58.73a8.11,8.11,0,0,1,4.52,2.31A8.34,8.34,0,0,1,135.54,33c0,.22,0,.5,0,.83A8,8,0,0,1,138,41.54a11.29,11.29,0,0,1-2.32,4.63c-.74.92-1.5,1.79-2.21,2.6A9.37,9.37,0,0,1,132.14,50a12.44,12.44,0,0,1-3.62,5.44,9.35,9.35,0,0,1-10.82,1.16A27.31,27.31,0,0,1,114,54.22c.24,1.89.51,4,.84,6.13s.66,4.05,1,6.07l.34,2c.6,3.51,1.35,7.34,2.35,12,2.4,11.18,5.37,22.84,8.82,34.65.83,2.84,1.64,5.56,2.45,8.19a7.69,7.69,0,0,1,.83,0,8.86,8.86,0,0,1,4.58,1.29,14.59,14.59,0,0,1,2,1.42,26.45,26.45,0,0,1,5.62,6.89,14.91,14.91,0,0,1,1.71,4.68,10.07,10.07,0,0,1-.58,5.59l.81.5a8.64,8.64,0,0,1,6.88-3.4,9.09,9.09,0,0,1,2.35.31,12.56,12.56,0,0,1,2.14.76,22.51,22.51,0,0,1,6,4,12.63,12.63,0,0,1,3.07,4.21,10.17,10.17,0,0,1,.76,2.72l1.92.44c2.37.51,4.8.9,6.86,1.21a55.26,55.26,0,0,1,13.45,3.66,36.85,36.85,0,0,1,9.81,6,26.76,26.76,0,0,1,8.24,12.07A23.74,23.74,0,0,1,202.41,198a25.92,25.92,0,0,1-16.27,10,29.75,29.75,0,0,1-5.72.54h0a36.43,36.43,0,0,1-5.09-.37,69.6,69.6,0,0,1-13.72-3.51c-2.47-.86-4.94-1.75-7.4-2.64l-4.92-1.77a113.08,113.08,0,0,0-12.4-3.76,65.08,65.08,0,0,0-9-1.47c-1.6-.15-3.21-.22-4.78-.22-1.26,0-2.53,0-3.77.14a47.7,47.7,0,0,0-12.48,2.66q-2.44.87-4.84,2a9.51,9.51,0,0,1-.67,5.39,11.3,11.3,0,0,1-2.31,3.45A21.63,21.63,0,0,1,91,213.58a10.86,10.86,0,0,1-1.41.42A9.46,9.46,0,0,1,87.69,214.2Z"/>
    <g>
      <path class="b80fe941-8502-482d-a782-f32d56692739" d="M104.8,23.14a97.25,97.25,0,0,0-.32,11.45c.07,2.49.11,5,.32,7.46.19,2.23.36,4.47.57,6.7q.3,3,.68,6.06c.28,2.26.57,4.52.92,6.77.43,2.73.91,5.46,1.37,8.19.71,4.14,1.54,8.26,2.42,12.37q3.83,17.77,9,35.21c2,6.79,4.07,13.55,6.34,20.25.13.36.28.71.41,1.07s0,.64-.46.62a.82.82,0,0,1-.52-.32,63.94,63.94,0,0,0-12.25-9.2,143.41,143.41,0,0,0-17.07-8.59c-7.94-3.43-16.07-6.37-24.29-9.06-11-3.59-22.17-6.7-33.42-9.5C31.9,101,25.32,99.49,18.71,98.06c-1.54-.33-3.09-.62-4.63-.93-.22-.14-.44,0-.65,0l-.29,0a1.86,1.86,0,0,1-.57-.07.49.49,0,0,1-.29-.32,1.35,1.35,0,0,1-.07-1.11c.22-1.25.48-2.48.68-3.73q.52-3.37,1-6.76c.29-2.18.54-4.38.76-6.57.2-1.89.35-3.77.5-5.66.2-2.38.38-4.75.55-7.13.09-1.33.18-2.66.24-4,.18-3.85.34-7.7.52-11.56.32-7.07.42-14.16.51-21.24.07-5.4,0-10.8,0-16.2,0-1.37,0-1.4,1.33-1.1,4.61,1.07,9.25,1.94,13.91,2.74,3.94.67,7.89,1.28,11.85,1.8,3.71.5,7.44.92,11.16,1.34,3.1.35,6.2.68,9.31,1,2.9.27,5.8.49,8.7.71q5.19.4,10.38.76c1.72.11,3.43.19,5.15.27,2.35.13,4.69.26,7,.36,2.73.11,5.47.19,8.2.26.4,0,.77,0,1,.44.15.14-.1.37.11.5a7.37,7.37,0,0,1,0,.94C105,23,104.88,23,104.8,23.14Z"/>
      <path class="eb02cb9b-9804-4403-9916-786e97132bc6" d="M151.85,156a2.5,2.5,0,0,0,1,.56,89.44,89.44,0,0,0,13.38,4c2.43.52,4.89.93,7.35,1.3a47.55,47.55,0,0,1,11.53,3.12,28.75,28.75,0,0,1,7.71,4.66,18.71,18.71,0,0,1,5.85,8.46A15.85,15.85,0,0,1,196,193.17a18.17,18.17,0,0,1-11.43,6.92,24.56,24.56,0,0,1-8.16.1,63.82,63.82,0,0,1-12.19-3.14c-4.11-1.43-8.18-3-12.27-4.4a120.6,120.6,0,0,0-13.27-4,74.4,74.4,0,0,0-10-1.65,59.28,59.28,0,0,0-9.88-.09,55.72,55.72,0,0,0-14.55,3.1,70.57,70.57,0,0,0-15.87,8.12,2.68,2.68,0,0,0-.3.28.35.35,0,0,1-.55,0,1.68,1.68,0,0,1,.51-1.25.63.63,0,0,1,.41-.21c1.9-1.18,3.8-2.37,5.77-3.44a63.11,63.11,0,0,1,16.54-6.32,56.64,56.64,0,0,1,8.11-1.2,60.35,60.35,0,0,1,6.31-.14,61.33,61.33,0,0,1,6.18.53,90,90,0,0,1,17.93,4.4c4.14,1.42,8.25,2.94,12.37,4.42a103,103,0,0,0,10,3.15,35.86,35.86,0,0,0,8.3,1.21,20.35,20.35,0,0,0,10.38-2.6,15.44,15.44,0,0,0,6.77-7.13,15.19,15.19,0,0,0,.21-12.65,18.82,18.82,0,0,0-6-7.58,31,31,0,0,0-9.3-4.8,53.92,53.92,0,0,0-9.41-2.15A94.63,94.63,0,0,1,160.46,160c-2.6-.74-5.15-1.59-7.67-2.56a2.57,2.57,0,0,0-1-.3.91.91,0,0,1-.54-1.29C151.47,155.74,151.68,155.71,151.85,156Z"/>
      <path class="a8c9e57b-2c15-42d4-b139-3fecf7f2f001" d="M105,22.79a.81.81,0,0,1,0-.95,4.05,4.05,0,0,1,3.15-.07,14.55,14.55,0,0,1,5.52,3.36l.23.23.1.11c.31.39.77.68.88,1.21,1.84,2,3.51,4.19,5.28,6.26a25.47,25.47,0,0,0,4.48,4.26,14,14,0,0,0,5,2.39,6.14,6.14,0,0,1,.62.19,3.39,3.39,0,0,1-.76,1.38c-.63.79-1.3,1.56-2,2.32-.32.37-.49.39-.92.16a19.73,19.73,0,0,1-4-2.89,28.94,28.94,0,0,1-4-4.73c-.7-1-1.35-2.05-2-3.06a24.35,24.35,0,0,0-4-4.72.73.73,0,0,1-.58-.17c-2-2-4.06-3.93-6.75-5A.45.45,0,0,1,105,22.79Z"/>
      <path class="a8c9e57b-2c15-42d4-b139-3fecf7f2f001" d="M12.57,97l.61,0c.33.15.2.55.41.77.95,2.44,2.83,4.19,4.49,6.11.17.2.49.31.41.66A25.46,25.46,0,0,0,23,108.4c.72.49,1.48.94,2.22,1.41a42.37,42.37,0,0,1,4.21,3,21.29,21.29,0,0,1,4.82,5.37c.64,1,.64,1-.23,1.83-.44.4-.88.8-1.33,1.19a7.88,7.88,0,0,1-1.81,1.22c-.3-.14-.26-.43-.31-.64a13.41,13.41,0,0,0-2.13-4.42,23.81,23.81,0,0,0-4.23-4.51c-.83-.7-1.68-1.38-2.54-2-1.69-1.32-3.34-2.66-4.9-4.13a3.32,3.32,0,0,1-.91-.57,18.39,18.39,0,0,1-2.77-3.68,7.05,7.05,0,0,1-1-4.21C12.16,97.73,12.11,97.24,12.57,97Z"/>
      <path class="b46cb05d-b19b-432e-9d6a-69fb38dc57b3" d="M105,22.79a7.29,7.29,0,0,1,2.47,1.09,31.42,31.42,0,0,1,4.4,3.66,1.72,1.72,0,0,1,.24.34,2.5,2.5,0,0,1,.49.71l1.08,2c1,1.95,1.85,4,2.72,6,.55,1.28,1.12,2.57,1.72,3.83a16.9,16.9,0,0,0,2.54,3.85A8.83,8.83,0,0,0,124.34,47a2,2,0,0,1,.31.17,4.54,4.54,0,0,1-1.39,2.28,1.36,1.36,0,0,1-1.66.19c-3-1.68-5.5-3.85-6.56-7.31-.78-2.54-1.61-5.07-2.46-7.59a39.62,39.62,0,0,0-2.31-5.41,20.35,20.35,0,0,0-2.21-3.44,9.35,9.35,0,0,0-3.26-2.76Z"/>
      <path class="b46cb05d-b19b-432e-9d6a-69fb38dc57b3" d="M18.49,104.52a30,30,0,0,1-4-4.46,6.47,6.47,0,0,1-1.1-2.25.4.4,0,0,1,0-.42.21.21,0,0,1,.27,0,11.53,11.53,0,0,0,3.3,3.48,26.83,26.83,0,0,0,5.37,2.85,81.41,81.41,0,0,0,8.17,2.71c.94.28,1.88.55,2.82.84a10.81,10.81,0,0,1,4.95,3.23,25.4,25.4,0,0,1,2.06,2.79,1.65,1.65,0,0,1-.34,2.34,7.23,7.23,0,0,1-1.69,1,.28.28,0,0,1-.36-.12,1,1,0,0,1,0-.1,9,9,0,0,0-3.26-4.15,19.23,19.23,0,0,0-3.51-2.11c-1.61-.76-3.27-1.41-4.94-2.06a50.73,50.73,0,0,1-7.31-3.44A3.34,3.34,0,0,0,18.49,104.52Z"/>
      <path class="b39b9fbb-33e0-4114-93cd-74cb999d21bc" d="M12.57,97a6.65,6.65,0,0,0,.48,4.7A14.89,14.89,0,0,0,15.32,105l.81,1a1.24,1.24,0,0,1,.38.64,9.09,9.09,0,0,0,2.13,2.57q2.1,1.82,4.17,3.69a20.73,20.73,0,0,1,1.55,1.56,7.59,7.59,0,0,1,1.82,3.84,1,1,0,0,1-.74,1.29,6.15,6.15,0,0,1-1.65.24c-.42,0-.53-.07-.43-.47a2.33,2.33,0,0,0-.38-1.8,9.39,9.39,0,0,0-2.13-2.44c-.61-.52-1.26-1-1.9-1.49A20.89,20.89,0,0,1,16.06,111a17,17,0,0,1-4.44-9.22,8,8,0,0,1,.66-5Z"/>
      <path class="b39b9fbb-33e0-4114-93cd-74cb999d21bc" d="M113.58,25.39c-.74-.58-1.47-1.17-2.23-1.73a11.52,11.52,0,0,0-2.55-1.41,6.7,6.7,0,0,0-2.87-.47l-.94.06c-.18-.14,0-.29,0-.44a11.19,11.19,0,0,1,6.82.09,17.62,17.62,0,0,1,9,6c.61.73,1.19,1.48,1.78,2.22a11,11,0,0,0,2.23,2.07,4.38,4.38,0,0,0,1.41.68,1.59,1.59,0,0,0,.72,0c.65-.12.65-.11.65.48a4.72,4.72,0,0,1-.16,1.45c-.26.77-.56,1-1.32.86a7.85,7.85,0,0,1-3.55-1.5A14.26,14.26,0,0,1,120.66,32q-1.92-2.09-3.83-4.19a6,6,0,0,0-1.66-1.44c-.57-.06-.88-.54-1.33-.81h0A1.14,1.14,0,0,0,113.58,25.39Z"/>
      <path class="b39b9fbb-33e0-4114-93cd-74cb999d21bc" d="M127.45,139.66c.31-1.47.6-2.95.94-4.41a12.08,12.08,0,0,1,.93-2.67,3.21,3.21,0,0,1,.8-1.1.79.79,0,0,1,1-.09,6.38,6.38,0,0,1,.86.61,18,18,0,0,1,3.9,4.78,7,7,0,0,1,.81,2.15,1.67,1.67,0,0,1-1.39,2.09,12.91,12.91,0,0,1-2.7.3,14.3,14.3,0,0,1-3.74-.52c-.37.22-1-.07-1.19.48a.24.24,0,0,1-.25.13c-.37-.26-.31-.65-.29-1A1.25,1.25,0,0,1,127.45,139.66Z"/>
      <path class="b39b9fbb-33e0-4114-93cd-74cb999d21bc" d="M127.32,140.33c0,.35-.11.73.17,1,.27.15.05.47.23.65a25.35,25.35,0,0,1,0,3.26,10.35,10.35,0,0,1-.61,2.87,1.63,1.63,0,0,1-2.23,1.15,5.26,5.26,0,0,1-1.43-.64,17.19,17.19,0,0,1-5.12-5.07c-.69-1.05-.53-1.53.58-2.07a8.11,8.11,0,0,1,1.79-.57,31.2,31.2,0,0,1,5-.63l.94-.06A.48.48,0,0,1,127.32,140.33Z"/>
      <path class="b39b9fbb-33e0-4114-93cd-74cb999d21bc" d="M87.52,198.2c.11.24.31.23.53.2a14.45,14.45,0,0,1,3.89.83,7.9,7.9,0,0,1,1.59.8,1.27,1.27,0,0,1,.5,1.74,3.64,3.64,0,0,1-.71,1,13.5,13.5,0,0,1-5.08,3.27,1.76,1.76,0,0,1-.3.1.73.73,0,0,1-.94-.47,4.16,4.16,0,0,1-.29-1.53,23,23,0,0,1,.3-4c0-.38.09-.77.13-1.15s-.22-.6,0-.9A.35.35,0,0,1,87.52,198.2Z"/>
      <path class="b39b9fbb-33e0-4114-93cd-74cb999d21bc" d="M151.34,155.94a2,2,0,0,0,.45,1.24,14.92,14.92,0,0,1,.9,3,8.48,8.48,0,0,1,.11,1.88,1.25,1.25,0,0,1-1.25,1.29,3.85,3.85,0,0,1-1.55-.15,14.21,14.21,0,0,1-4.9-2.53c-.79-.63-1-1,0-1.92a7.63,7.63,0,0,1,1.86-1.16c.91-.43,1.84-.84,2.76-1.26.33-.43.85-.41,1.31-.57l.08-.27C151.48,155.49,151.45,155.69,151.34,155.94Z"/>
      <path class="b39b9fbb-33e0-4114-93cd-74cb999d21bc" d="M151.34,155.94c0-.18,0-.36-.23-.46a8.46,8.46,0,0,1-.34-2.17,18.74,18.74,0,0,1-.08-3.35,3.56,3.56,0,0,1,.24-1.12.77.77,0,0,1,1.06-.56,4.65,4.65,0,0,1,.79.28,14.6,14.6,0,0,1,3.9,2.6,4.87,4.87,0,0,1,1.21,1.57,1.26,1.26,0,0,1-.53,1.8,9.5,9.5,0,0,1-3,1.16,12.42,12.42,0,0,1-2.5.27Z"/>
      <path class="b39b9fbb-33e0-4114-93cd-74cb999d21bc" d="M87.52,198.2l-.47,0a.34.34,0,0,1-.52-.05,2,2,0,0,0-.82-.42,27.15,27.15,0,0,1-3.19-1.6,6.05,6.05,0,0,1-1.24-1c-.57-.62-.56-1,0-1.5a5.59,5.59,0,0,1,.66-.52,14.77,14.77,0,0,1,4.24-2A4.59,4.59,0,0,1,88,191a1.22,1.22,0,0,1,1.28,1.36,8.26,8.26,0,0,1-.38,2.79c-.16.54-.36,1.06-.54,1.59-.09.13,0,.31-.17.42A4.29,4.29,0,0,1,87.52,198.2Z"/>
      <path class="a253a865-8958-44aa-97af-136d05fa778f" d="M151,155.75a2.17,2.17,0,0,1-1.31.57,2.76,2.76,0,0,0-1.09-.59,72.2,72.2,0,0,1-12.69-7.34,60.77,60.77,0,0,1-7.57-6.48,2,2,0,0,0-.63-.54.46.46,0,0,1-.18-.21c0-.1,0-.21,0-.31s.11-.32.32-.28.66.15,1,.23c-.1.23,0,.39.17.55.89.84,1.75,1.72,2.67,2.53a69.36,69.36,0,0,0,18.76,11.65Z"/>
      <path class="e996d1e8-dd5a-471f-a089-2fb487d5b501" d="M86.53,198.19l.52.05c.22.24.38.5.09.8a2.33,2.33,0,0,0-.88.53c-1,.76-2.07,1.54-3.11,2.31a2.37,2.37,0,0,1-.53.31.39.39,0,0,1-.47-.14.38.38,0,0,1,0-.49,4.55,4.55,0,0,1,.69-.62Z"/>
      <path class="a2848448-cc6b-4abb-9836-2cadf8012b80" d="M127.32,140.33l-.64-.07-.67-1a.65.65,0,0,0,.46-.62l1,1C127.54,139.91,127.4,140.11,127.32,140.33Z"/>
      <path class="e11d73c2-85fc-4b99-92ec-2b5d6e7636ef" d="M113.84,25.59a2.94,2.94,0,0,1,1.33.81l-.3.28A3.16,3.16,0,0,1,113.84,25.59Z"/>
      <path class="f2026dfd-29a4-43ee-84e2-a0ac1e84d7b0" d="M16.51,106.64a.94.94,0,0,1-.38-.64,1.19,1.19,0,0,1,.67.63Z"/>
      <path class="fff03104-1f2b-4068-868c-57134688d6a8" d="M112.57,28.59a1.6,1.6,0,0,1-.49-.71.55.55,0,0,1,.52.36Z"/>
      <path class="b22a9dba-ed2e-498f-96ed-9eaf42e4c819" d="M13.65,97.38l-.2,0a.22.22,0,0,1,0-.36.62.62,0,0,1,.64.14C13.92,97.2,13.72,97.16,13.65,97.38Z"/>
      <path class="fde512d7-eced-4701-bde5-d90bbb0c5a6e" d="M127.56,141.16a.21.21,0,0,1,.18.21l0,.65c-.18-.18-.15-.43-.23-.65Z"/>
      <path class="f494a402-bc0b-4e9b-9d78-b4c634775a2c" d="M88.18,197.14c0-.17,0-.33.17-.42a.26.26,0,0,1,.07.19Z"/>
      <path class="b39b9fbb-33e0-4114-93cd-74cb999d21bc" d="M16.16,96.55a9.51,9.51,0,0,1-2.37-.42c-.36-.1-.42-.27-.24-.63a5.93,5.93,0,0,1,.93-1.39,7.73,7.73,0,0,1,.54-.86,62.81,62.81,0,0,1,4.59-5.19q7.23-7.78,14.91-15.12c5-4.8,10.11-9.5,15.39-14,2-1.73,4.06-3.43,6.08-5.17a1.18,1.18,0,0,1,1-.45,21.8,21.8,0,0,1,2.29,2.32l.68.79c1.2,1.33,2.38,2.66,3.59,4,.68.75,1.39,1.48,2,2.26.81,1,1.7,1.86,2.54,2.81,1.27,1.44,2.52,2.91,3.79,4.36.64.74,1.3,1.46,1.94,2.2q1.62,1.88,3.21,3.76c.47.56,1,1.1,1.44,1.67,1.33,1.62,2.73,3.18,4.09,4.79,1.21,1.45,2.4,2.92,3.6,4.38s2.34,2.78,3.5,4.19c1.31,1.6,2.6,3.21,3.9,4.82l2.87,3.61c1.13,1.43,2.26,2.85,3.38,4.29q2.49,3.2,4.94,6.4c1.34,1.75,2.67,3.51,4,5.29q3.65,5,7.24,9.93c1.07,1.47,2.09,3,3.13,4.47l3.19,4.57c.14.2.25.42.38.63s0,.27-.23.22l-3.8-2.94a6.91,6.91,0,0,0-.62-.44h0a158.81,158.81,0,0,0-18-12.52,161.57,161.57,0,0,0-26.95-12.52,166.43,166.43,0,0,0-23.8-6.57q-8.2-1.63-16.53-2.44c-3-.3-6-.5-9-.69a5.69,5.69,0,0,1-1.14-.32c-.15-.09-.28-.24-.47-.21A28.56,28.56,0,0,1,16.16,96.55Z"/>
      <path class="a8c9e57b-2c15-42d4-b139-3fecf7f2f001" d="M123.76,134.63c-1.4-1.91-2.63-3.93-3.93-5.91l-.41-.6c-.89-1.13-1.61-2.39-2.5-3.52-4.27-6.18-8.74-12.21-13.34-18.15Q98.84,100.32,94,94.31C92,92,90.2,89.65,88.21,87.41A1.43,1.43,0,0,1,88,87c-.62-.75-1.23-1.52-1.88-2.26-4.33-5-8.65-10-13-15-3.2-3.66-6.44-7.29-9.68-10.93C61.7,56.89,60,55,58.31,53.16a6.41,6.41,0,0,1-.45-.58c0-.39.34-.59.61-.81A299,299,0,0,1,95.69,25.7c.88-.51,1.74-1,2.67-1.47.32-.11.59-.32.91-.42a5.32,5.32,0,0,1,.78-.32,20.62,20.62,0,0,1,3.35-1.22c.37-.13.56,0,.5.41-.18,1.11-.11,2.24-.21,3.35-.19,1.93-.14,3.86-.16,5.79,0,1.47,0,2.94,0,4.42.07,1.92.21,3.84.32,5.77.06,1.19.13,2.38.24,3.57.18,2,.35,4,.6,6,.17,1.43.31,2.86.49,4.28.21,1.67.44,3.34.69,5,.3,2,.63,3.94,1,5.91.43,2.52.86,5,1.34,7.55.87,4.51,1.82,9,2.84,13.47s2.15,9.13,3.32,13.68q4.13,16,9.24,31.78c.13.4.23.81.35,1.21C124.05,134.63,124,134.67,123.76,134.63Z"/>
      <path class="abcc1cd8-a6f6-4377-931a-96b94c715f6e" d="M13.64,93c.21-1.28.44-2.55.64-3.83s.39-2.7.56-4.06.34-3,.5-4.49c.12-1,.23-2.08.35-3.13.09-.8.11-1.6.21-2.4.16-1.25.19-2.52.29-3.78.11-1.43.24-2.86.35-4.29a1.49,1.49,0,0,0,0-.21c.09-1.68.17-3.36.27-5,.11-1.92.23-3.84.34-5.77,0-.1,0-.21,0-.31.09-2.8.14-5.61.28-8.41.15-3.15.13-6.31.24-9.46.26-7.75.14-15.5.17-23.24V13.37c.39,0,.53.27.72.44C22,17,25.22,20.18,28.47,23.43,32,27,35.55,30.53,39.06,34.12c3.28,3.36,6.5,6.78,9.75,10.18q1.56,1.64,3.09,3.3c.29.3.55.62.87,1-.87.73-1.69,1.44-2.52,2.12-1.91,1.55-3.74,3.17-5.55,4.83-2.51,2.3-5,4.65-7.33,7.1-3.34,3.5-6.58,7.09-9.66,10.83A165.36,165.36,0,0,0,15.79,89.89c-.68,1.06-1.3,2.16-1.94,3.24C13.65,93.22,13.58,93.17,13.64,93Z"/>
      <path class="b46cb05d-b19b-432e-9d6a-69fb38dc57b3" d="M19.29,13l2.48.5c3.26.67,6.51,1.31,9.8,1.84,1.9.3,3.79.66,5.69,1,1.69.26,3.39.47,5.09.71,1.32.18,2.63.39,3.95.56s2.78.32,4.17.49L55,18.6c.76.09,1.53.11,2.3.22,1,.16,2,.18,2.92.28s2,.23,3,.34c.8.09,1.6.1,2.4.21,1.15.16,2.31.18,3.46.28s2.51.23,3.76.35l.32,0c1.46.09,2.94.11,4.4.29s2.94.08,4.4.33l.21,0c1.71.08,3.43.16,5.14.26l5.87.35.74,0,7.33.25a1.27,1.27,0,0,1-.78.42c-3,1.06-6,2.16-9,3.37-4.39,1.79-8.66,3.82-12.86,6-3.54,1.85-7,3.85-10.38,6-4.11,2.57-8.07,5.33-11.93,8.25-.81.62-1.61,1.26-2.41,1.88-.28.21-.4.22-.64,0-.92-1-1.84-1.92-2.75-2.89-.25-.26-.47-.53-.71-.78l-7.28-7.59c-7-7.36-14.27-14.5-21.53-21.63-.47-.47-1-.9-1.47-1.35A.56.56,0,0,1,19.29,13Z"/>
      <path class="abcc1cd8-a6f6-4377-931a-96b94c715f6e" d="M57,53.32c-1.16,1-2.34,1.89-3.49,2.86-3.25,2.73-6.43,5.52-9.58,8.36-1.77,1.59-3.53,3.21-5.27,4.83q-7.83,7.34-15.25,15.07c-2.81,2.94-5.54,6-8.31,8.93-.18,0-.27,0-.2-.2C16.1,91,17.45,89,18.81,86.94c1.84-2.73,3.75-5.41,5.76-8s4-5.12,6.15-7.59c2.28-2.66,4.66-5.23,7.08-7.76,3.15-3.29,6.46-6.42,9.88-9.42,1.61-1.41,3.23-2.8,4.88-4.15,1-.79.77-.84,1.65.08s1.66,1.8,2.49,2.7A.84.84,0,0,1,57,53.32Z"/>
      <path class="ad5f3ac2-07da-4432-a5fa-a76c0149ca87" d="M23.77,96.73a18.41,18.41,0,0,1,3.56.2,1.69,1.69,0,0,0,.32,0c1.64,0,3.27.25,4.9.39.94.08,1.88.19,2.82.28,1.39.14,2.77.37,4.15.56,1.11.15,2.21.3,3.32.47,1.41.23,2.82.45,4.23.72,1.92.37,3.83.77,5.75,1.17C54.9,101,57,101.45,59,102s4.06,1.09,6.06,1.7c2.44.75,4.89,1.47,7.28,2.38,1.93.74,3.87,1.44,5.8,2.17,2.26.85,4.47,1.83,6.68,2.8,2.85,1.27,5.67,2.59,8.43,4,3.25,1.72,6.47,3.49,9.58,5.45,1.93,1.21,3.86,2.41,5.73,3.7,2.36,1.64,4.69,3.31,6.9,5.14.7.58,1.42,1.15,2.11,1.73a1.25,1.25,0,0,1,.47.55,3.47,3.47,0,0,1-1.46-.76c-2.1-1.4-4.29-2.68-6.45-4-.56-.35-1.17-.61-1.76-.91a20.75,20.75,0,0,1-2-1.17,13.77,13.77,0,0,1-1.94-1c-1.15-.57-2.31-1.1-3.43-1.71a241.82,241.82,0,0,0-28-12.36,240.62,240.62,0,0,0-30.55-8.94c-6.44-1.41-12.92-2.62-19.46-3.41-.45-.06-1,0-1.24-.59C22.46,96.28,23.12,96.73,23.77,96.73Z"/>
      <path class="b46cb05d-b19b-432e-9d6a-69fb38dc57b3" d="M98.49,24.34a5.91,5.91,0,0,1-.52.35A276.53,276.53,0,0,0,68.79,44c-3.7,2.78-7.33,5.66-10.93,8.56a7.84,7.84,0,0,1-1.27-1.24c-.7-.74-1.38-1.5-2.06-2.25-.28-.3-.28-.45,0-.69q1-.82,2.07-1.62A164.15,164.15,0,0,1,73.86,35.31c2.21-1.28,4.48-2.48,6.75-3.65A156,156,0,0,1,97.16,24.4c.29-.11.6-.19.9-.28S98.51,24,98.49,24.34Z"/>
      <path class="b39b9fbb-33e0-4114-93cd-74cb999d21bc" d="M21.87,97l4.25.6c1.59.22,3.18.43,4.76.69s3.3.56,4.95.89c2.33.45,4.66.92,7,1.44s4.76,1.11,7.13,1.71c3.76,1,7.49,2,11.2,3.15,3.15,1,6.27,2,9.37,3.09,4.19,1.47,8.33,3.08,12.43,4.79,2.91,1.21,5.78,2.51,8.64,3.84,3.05,1.42,6,3,9,4.46a6.33,6.33,0,0,1,.61.39c0,.37-.18.36-.43.22-.77-.32-1.55-.63-2.31-1-3.47-1.6-7-3-10.57-4.38-2.28-.9-4.6-1.7-6.89-2.54-3.92-1.43-7.88-2.72-11.84-4-3.4-1.1-6.8-2.15-10.24-3.1-3-.84-6-1.73-9.08-2.57-1.92-.54-3.85-1-5.78-1.53-2.67-.68-5.35-1.38-8-2-4-1-8.09-1.93-12.14-2.84-2.49-.57-5-1-7.49-1.57a1,1,0,0,1-.26-.15,4.88,4.88,0,0,1,1.74-.23c1.05,0,2.1,0,3.14,0a1.24,1.24,0,0,0,.9-.2c.14-.11.28-.22.47-.12a.53.53,0,0,1,.29.52c-1.17.42-2.37,0-3.55.15-.14,0,.07.19,0,.08s0-.07.07-.08A6.15,6.15,0,0,1,21.87,97Z"/>
      <path class="a5b12359-5f0f-4783-99be-356d083384b9" d="M94.06,94.22c1,1.24,2.08,2.46,3.09,3.71q4.59,5.67,9,11.48c2.44,3.2,4.84,6.44,7.17,9.73,1.07,1.51,2.12,3,3.18,4.57.18.26.33.53.49.8s0,.23-.19.22c-1.27-1.75-2.54-3.51-3.82-5.26q-2.79-3.8-5.6-7.58C106,110,104.51,108,103,106.13s-2.85-3.63-4.28-5.44l-3.49-4.45-1.41-1.81C93.78,94.21,93.87,94.17,94.06,94.22Z"/>
      <path class="a27e9603-e820-4920-a72e-db9d762535d6" d="M94.06,94.22l-.2.21c-1.09-1.18-2-2.45-3-3.7-.79-1-1.6-1.92-2.4-2.88-.22-.27-.51-.48-.47-.89a16.57,16.57,0,0,1,2,2.26c1.32,1.53,2.59,3.1,3.88,4.65C93.92,94,94,94.11,94.06,94.22Z"/>
      <path class="a298efa1-9dfd-4813-b627-ef3494c389e9" d="M100.79,122.22a.45.45,0,0,0,.43-.22c.48.06.8.42,1.21.61.72.35,1.43.74,2.14,1.11,0,.19,0,.3-.22.2s-.27-.07-.39-.12l-2.47-1.15A1.61,1.61,0,0,1,100.79,122.22Z"/>
      <path class="b727a078-e6e4-4378-b62e-4402f5e252b9" d="M116.83,124.73l.19-.22a24.08,24.08,0,0,1,2.4,3.61.59.59,0,0,1-.42-.27Z"/>
      <path class="a443df8c-1e71-4618-adda-296531ef90a6" d="M104.35,123.92l.22-.2,1.91,1q.09.08.06.15s0,.07-.06.07A8.16,8.16,0,0,1,104.35,123.92Z"/>
      <path class="b5630e28-f4df-4e67-ae17-31563fac14dd" d="M106.48,125v-.22l1.31.74a1.22,1.22,0,0,1,.61.51A4,4,0,0,1,106.48,125Z"/>
      <path class="f85a59a7-4634-4382-8651-2b8220c1ce71" d="M98.49,24.34c-.09-.18-.26-.2-.43-.22a2.51,2.51,0,0,1,1.27-.46.15.15,0,0,1,0,.17c0,.05,0,.08-.06.08A1.79,1.79,0,0,1,98.49,24.34Z"/>
      <path class="ee806c0b-9d71-4385-8863-e5e0acaaed81" d="M123.76,134.63l.21-.22c.26.23.22.56.37,1A1.22,1.22,0,0,1,123.76,134.63Z"/>
      <path class="ae1a1f9c-b1ba-40a7-b6b9-363af4299eb7" d="M14.9,93.17l.2.2a2.1,2.1,0,0,1-.62.74A1.14,1.14,0,0,1,14.9,93.17Z"/>
      <path class="a7579725-7ddc-4912-902a-bebe858c6ab0" d="M122.48,135.06l.23-.22a.65.65,0,0,1,.4.64h0A.63.63,0,0,1,122.48,135.06Z"/>
      <path class="bba7b829-822e-42e9-834c-9f526943aa6c" d="M13.64,93l.21.17a.42.42,0,0,1-.07.18,1.16,1.16,0,0,1-.24.14c0-.09-.08-.18-.07-.26S13.58,93,13.64,93Z"/>
      <path class="ad5f3ac2-07da-4432-a5fa-a76c0149ca87" d="M118.06,131.68a.67.67,0,0,1,.62.44A.65.65,0,0,1,118.06,131.68Z"/>
      <path class="a04d90ca-1252-468c-bba9-f87208a35f17" d="M99.32,23.91v-.25a.87.87,0,0,1,.73-.17A1.5,1.5,0,0,1,99.32,23.91Z"/>
      <path class="a1124b50-7f0a-4e3e-8e27-0f0c8b3d06f3" d="M13.44,97v.36l0,.46a1.29,1.29,0,0,1-.25-.83Z"/>
      <path class="a7579725-7ddc-4912-902a-bebe858c6ab0" d="M123.11,135.48l.09.05c0,.07,0,.05-.09-.05Z"/>
      <path class="a6bdecb6-5c3a-4310-b8aa-c322edce7893" d="M113.58,25.39c.14,0,.25.05.28.21A.33.33,0,0,1,113.58,25.39Z"/>
      <path class="e746fccf-2e44-4a16-81a8-0928633b23df" d="M44.85,74.5c.55.36,1,.61,1.42.93a1.24,1.24,0,0,0,1.53.14,10.76,10.76,0,0,1,1.27-.49.2.2,0,0,1,.25.23,13.34,13.34,0,0,1-.39,1.41,1.2,1.2,0,0,0,.32,1.42,5.51,5.51,0,0,1,1,1.31,9.24,9.24,0,0,1-1.9.2,1,1,0,0,0-.94.54c-.31.51-.64,1-.95,1.48-.33,0-.33-.27-.39-.45-.15-.39-.3-.78-.43-1.18a1,1,0,0,0-.85-.8c-.59-.11-1.15-.3-1.72-.45,0-.23.1-.33.23-.44l1.23-1a.83.83,0,0,0,.32-.73C44.84,76,44.85,75.31,44.85,74.5Z"/>
      <path class="e7ec5260-cb7a-4ba8-9a20-8f4c3b08b7b2" d="M35.44,89c.17.39,0,.64-.09.9a1,1,0,0,0,.22,1c.17.21.33.44.47.63-.1.22-.26.19-.38.18a1.32,1.32,0,0,0-1.52.82.51.51,0,0,1-.37.34,1.05,1.05,0,0,1-.33-.61,1,1,0,0,0-.85-.8,4.14,4.14,0,0,1-.74-.23c.09-.35.39-.48.62-.65a.87.87,0,0,0,.39-.8,1.84,1.84,0,0,1,0-.93c.37-.07.57.23.83.38a.94.94,0,0,0,.89.09C34.87,89.21,35.14,89.13,35.44,89Z"/>
      <path class="b602f0b3-d6b7-4039-8dcb-1eff11080a3c" d="M71,84.49a2.42,2.42,0,0,1,.9.5.57.57,0,0,0,.59.05c.25-.11.52-.19.79-.28s.3.08.25.21A1.64,1.64,0,0,0,73.92,87c.16.13.06.35-.14.38h-.11a1.45,1.45,0,0,0-1.67.94.22.22,0,0,1-.4,0A1.5,1.5,0,0,0,70.11,87a.22.22,0,0,1-.11-.39,1.67,1.67,0,0,0,.88-1.93S70.93,84.57,71,84.49Z"/>
      <path class="bd7a7050-fadb-40ae-809a-f89eaace4676" d="M95.93,111.91c-.05.37-.2.78.16,1.13.12.11,0,.28-.17.27a1.06,1.06,0,0,0-.89.59c-.09-.06-.17-.09-.2-.14a.91.91,0,0,0-.72-.66.17.17,0,0,1-.07-.31,1.07,1.07,0,0,0,.45-1c.29-.19.47.09.7.1S95.64,111.74,95.93,111.91Z"/>
      <path class="fd7999f3-6052-4140-87e9-80c42c5bb7f2" d="M21.87,97a5.56,5.56,0,0,1-1.35-.11A13.55,13.55,0,0,0,19,96.7s-.05-.08,0-.09a.13.13,0,0,1,.09,0,4.41,4.41,0,0,1,.52,0H22.7c.36.07.76-.1,1.07.2l-1.34,0A.62.62,0,0,0,21.87,97Z"/>
      <path class="a17bc111-749f-42fe-bf9c-8ff42ee78f02" d="M118.48,119.69c-.57-1.39-1.15-2.78-1.71-4.18-1.87-4.72-3.56-9.51-5.11-14.35-1.35-4.19-2.64-8.41-3.72-12.69-.51-2-1-4-1.53-6-.76-3.16-1.47-6.34-2-9.54-.49-2.68-1-5.36-1.42-8.06-.29-1.83-.47-3.67-.7-5.51-.2-1.63-.41-3.26-.57-4.9-.13-1.25-.13-2.51-.27-3.77-.19-1.67-.1-3.36-.24-5a79.31,79.31,0,0,1-.1-8.72c0-1.44.08-2.88.18-4.31s.27-3,.41-4.49c.56.07.11.62.38.83.09,2.24.08,4.49.28,6.71a40.86,40.86,0,0,0,.32,4.29,1.66,1.66,0,0,1,0,.32,35.77,35.77,0,0,0,.27,3.87c.11,1.71.37,3.4.55,5.11.1.9.17,1.81.26,2.71.08.73.15,1.46.25,2.19.18,1.28.4,2.55.55,3.84.12,1,.26,2.08.43,3.11.23,1.31.42,2.62.62,3.94.3,1.89.58,3.8.92,5.69.4,2.27.81,4.54,1.27,6.8.6,2.91,1.21,5.82,1.87,8.71.74,3.24,1.5,6.48,2.32,9.69.87,3.39,1.81,6.76,2.76,10.13q1.8,6.36,3.88,12.64c0,.16.06.34.1.51S118.9,119.71,118.48,119.69Z"/>
      <path class="bdb5354b-d4e9-4de5-903e-e487d37b937c" d="M83.18,74.15c-.29-.77-.51-1.32-.71-1.88a1,1,0,0,0-.87-.79c-.58-.1-1.15-.29-1.75-.45.11-.42.48-.53.73-.75l1.12-1c0-.45,0-.91,0-1.36,0-.07,0-.14,0-.21,0-.27-.14-.64.09-.79s.54.21.81.34c.46.24.82.77,1.34.76a5,5,0,0,0,1.38-.49l.69-.25a.19.19,0,0,1,.23.24,5.39,5.39,0,0,1-.23.81,1.82,1.82,0,0,0,.48,2.42,3.76,3.76,0,0,1,.53.65c.16.22.06.4-.22.41-.56,0-1.13,0-1.69,0a.74.74,0,0,0-.68.39C84,72.85,83.66,73.4,83.18,74.15Z"/>
      <path class="ee1c5d30-0a8d-4cfd-834c-c87a8f013649" d="M81.15,47.81c-.31-.43-.3-.9-.65-1.19s-.78-.09-1-.43c.06-.08.08-.15.13-.19a1.43,1.43,0,0,0,.78-1.56c0-.22.15-.31.34-.21l.09.05a1.2,1.2,0,0,0,1.53.15c.26-.12.39,0,.34.3,0,0,0,.08,0,.11a1.08,1.08,0,0,0,.3,1.41c.07.06.08.18.14.3-.36.29-.87,0-1.18.32A11.44,11.44,0,0,0,81.15,47.81Z"/>
      <path class="b641b473-77f0-4305-92e0-ae668c8427b0" d="M97.07,59.23a1.35,1.35,0,0,1,.27.09,1.26,1.26,0,0,0,1.61.22c.23-.14.47.06.35.3-.35.7,0,1.19.43,1.67,0,0,0,.12,0,.19s0,.06,0,.07c-.37.13-.81-.08-1.12.17a4,4,0,0,0-.7.87c-.35-.07-.36-.36-.43-.56a.8.8,0,0,0-.72-.66.94.94,0,0,1-.65-.28c0-.06.06-.14.11-.17A1.47,1.47,0,0,0,97,59.48C97,59.42,97,59.35,97.07,59.23Z"/>
      <path class="f7647eae-64dd-442e-95f7-c4b6965cac39" d="M102.94,93.1c-.32.23-.75,0-1.07.24s-.31.63-.68.75c-.06,0-.14-.07-.15-.11a1.24,1.24,0,0,0-1.12-1.07c-.14,0-.24-.23-.1-.32a1.6,1.6,0,0,0,.62-1.61.35.35,0,0,1,.43.06,1,1,0,0,0,1.33.1.86.86,0,0,1,.27,0c.11.06.13.11.1.19A1.39,1.39,0,0,0,103,93S102.94,93.05,102.94,93.1Z"/>
      <path class="ea94c685-e650-4fd0-aae3-ae6dba9a4681" d="M118.48,119.69c.19-.09.21-.28.24-.46a19.73,19.73,0,0,1,1,3c.08.22,0,.26-.21.21-.31-.74-.62-1.48-.92-2.22A4.13,4.13,0,0,1,118.48,119.69Z"/>
      <path class="b71cc015-03d9-4e85-97ee-0f5c43bbe8fb" d="M102,29a.52.52,0,0,1-.19-.42.46.46,0,0,0-.19-.41,3.74,3.74,0,0,1,.12-1.41,5.28,5.28,0,0,0,.09-.9q.09-.16.18,0Z"/>
      <path class="a351d1d9-edf5-4b68-ada3-931a0c40cbf4" d="M119.55,122.41l.21-.21a5.42,5.42,0,0,1,.57,1.7A5.06,5.06,0,0,1,119.55,122.41Z"/>
      <path class="e6635116-ec20-4133-82a2-dee89a872a0d" d="M102.05,25.83h-.18a1.6,1.6,0,0,1,0-.31c0-.06.06-.11.09-.17a.7.7,0,0,1,.09.17C102.06,25.62,102.05,25.72,102.05,25.83Z"/>
      <path class="e41980b3-f328-4123-b583-0bd92cb1bc00" d="M17,82.39,17,82c.16-.19,0-.46.17-.66a8.29,8.29,0,0,1,.29-1.86c.3-1.72.59-3.45.8-5.18.18-1.46.38-2.91.56-4.37.1-.8.11-1.6.21-2.4.15-1.22.14-2.45.28-3.66.23-2,.14-3.92.34-5.87.11-1.15,0-2.31.08-3.47.1-4,.27-8,.14-12-.1-3.19-.07-6.37-.22-9.56-.08-1.64,0-3.29-.2-4.92s0-3.51-.33-5.24v-.11c0-1.5-.2-3-.27-4.5,0-.23-.32-.57.21-.61.31,1.23.63,2.44.92,3.67.58,2.42,1.09,4.85,1.44,7.31.26,1.87.55,3.74.77,5.62.15,1.32.18,2.65.29,4,.35,4.16.23,8.34.17,12.51,0,1.78-.16,3.57-.36,5.34-.09.8-.13,1.61-.21,2.41-.36,3.41-.87,6.8-1.47,10.18-.75,4.21-1.76,8.36-2.9,12.47-.1.37-.23.74-.35,1.11-.09.13,0,.31-.16.43a.57.57,0,0,1,0,.18C16.8,82.85,16.93,82.6,17,82.39Z"/>
      <path class="a59046a5-27db-4ea0-887b-55296627fd31" d="M28.65,54.14a2.22,2.22,0,0,1,1,.5c1.5.94.88.91,2.53.29a2.59,2.59,0,0,1,1-.32c.09.4-.14.74-.21,1.1s-.42.89-.29,1.3a4.07,4.07,0,0,0,.79,1.1c.14.19.32.37.46.57A.51.51,0,0,1,34,59c0,.14-.15.14-.24.14-.52,0-1.05.1-1.57.1a1,1,0,0,0-.93.55c-.24.43-.52.83-.78,1.24a.51.51,0,0,1-.34.28,6.65,6.65,0,0,1-.54-1.32c-.36-1-.36-1-1.42-1.26l-1.12-.29a.2.2,0,0,1-.08-.33c.43-.36.85-.74,1.3-1.05a1,1,0,0,0,.44-1.08A6.63,6.63,0,0,1,28.65,54.14Z"/>
      <path class="b700b43b-2455-435f-be93-8fa7c24df7ec" d="M43.05,48.69c.38-.4.73-.63.87-1A3.49,3.49,0,0,0,44,46.6c.29-.15.46.08.63.21a.87.87,0,0,0,1.06.11,3.9,3.9,0,0,1,.57-.21c.05.1.11.17.09.21a1.49,1.49,0,0,0,.37,1.87s0,.13.06.22c-.18.23-.44.14-.66.14a.82.82,0,0,0-.85.46,2.09,2.09,0,0,1-.29.44c-.08.12-.3.09-.32,0C44.53,49.13,43.91,48.82,43.05,48.69Z"/>
      <path class="b495c66e-1d44-4e09-80d9-317607583551" d="M27.37,31.45c.06,0,.1,0,.13,0a1.75,1.75,0,0,0,1.92.27c.16-.09.28.11.23.24a1.5,1.5,0,0,0,.42,1.78s0,.13,0,.2S30,34,30,34a1.48,1.48,0,0,0-1.68.91.18.18,0,0,1-.33,0,1,1,0,0,1,0-.1,1.37,1.37,0,0,0-1.27-1.16c-.31-.06-.31-.18-.05-.4l.09-.06a1.15,1.15,0,0,0,.61-1.31A1.44,1.44,0,0,1,27.37,31.45Z"/>
      <path class="a1aac9d7-cec2-45c4-a1ae-cb7ac905738a" d="M17,82.39c0,.17.05.35.22.45-.22.77-.43,1.53-.64,2.3-.37,0-.3-.19-.2-.4A11.31,11.31,0,0,1,17,82.39Z"/>
      <path class="f8863faf-7187-4eed-9c4f-af61dd5a6972" d="M16.37,84.74c0,.15,0,.31.2.4-.28.84-.55,1.69-.83,2.54-.06.09-.12.1-.19,0A16.63,16.63,0,0,1,16.37,84.74Z"/>
      <path class="bf851672-a805-45d7-82c4-ed629e4671b3" d="M19.1,17.63c-.24.15-.14.41-.21.61-.22-.52-.22-.52-.11-1.35A.81.81,0,0,1,19.1,17.63Z"/>
      <path class="a8d9884b-a4f9-4a23-bfd0-732faf4e27f3" d="M15.55,87.7l.19,0a4.17,4.17,0,0,1-.56,1.21A1.54,1.54,0,0,1,15.55,87.7Z"/>
      <path class="a1aac9d7-cec2-45c4-a1ae-cb7ac905738a" d="M17.21,81.35c0,.24.06.49-.17.66A.7.7,0,0,1,17.21,81.35Z"/>
      <path class="a1aac9d7-cec2-45c4-a1ae-cb7ac905738a" d="M17.24,82.66a.44.44,0,0,1,.16-.44A.43.43,0,0,1,17.24,82.66Z"/>
      <path class="f37085df-0c2f-45b2-9357-474df0359092" d="M92.36,23.06a28.62,28.62,0,0,0-3.32.39h-.11c-1,.09-2,.18-3,.24a15.28,15.28,0,0,0-1.78.16,11.83,11.83,0,0,1-1.89.06,6.67,6.67,0,0,0-1.66.15,2.93,2.93,0,0,1-.84.05H68A4.93,4.93,0,0,1,66.81,24a5.15,5.15,0,0,0-1-.08,11.55,11.55,0,0,1-2.82-.2.74.74,0,0,0-.21,0,21.25,21.25,0,0,1-3.66-.27,20.48,20.48,0,0,1-2.7-.31,16.77,16.77,0,0,0-1.87-.24q-4.87-.63-9.69-1.67c-3.18-.69-6.32-1.51-9.43-2.43s-6-2-9-3.17c-.59-.22-1.16-.49-1.73-.75a6.19,6.19,0,0,1-.56-.3.5.5,0,0,1,.53-.09c1.43.35,2.85.73,4.28,1.06q3.26.76,6.54,1.46c2.08.44,4.16.88,6.25,1.27,1.89.35,3.76.75,5.66,1,1.38.21,2.74.52,4.12.75,1.17.19,2.35.33,3.52.5s2.41.38,3.62.55c.72.11,1.45.19,2.18.28,1,.13,2,.27,3,.38s1.82.11,2.71.27c1.1.19,2.23.09,3.32.35a.51.51,0,0,0,.21,0c1.27-.08,2.51.27,3.77.24a5.57,5.57,0,0,1,1.77.15,2.54,2.54,0,0,0,.73,0l2.63,0a5.87,5.87,0,0,1,1.67.14,2.93,2.93,0,0,0,.84,0c1.82,0,3.65,0,5.47,0a18.16,18.16,0,0,0,2.2-.13A22.24,22.24,0,0,1,92,22.86C92.19,22.73,92.38,22.69,92.36,23.06Z"/>
      <path class="a5dc8aa5-1c66-439a-b630-fffbdf24d147" d="M70.39,31s0-.07,0-.09c.67-.51,1.24-1.06.83-2,.4-.18.57,0,.74.19a.85.85,0,0,0,1.06.12,2.92,2.92,0,0,1,.49-.19.19.19,0,0,1,.25.23c0,.1-.06.2-.1.3A1.13,1.13,0,0,0,74,31a1.24,1.24,0,0,1,.23.36c-.21.24-.47.18-.69.17a.89.89,0,0,0-.93.54,3.25,3.25,0,0,1-.31.42c-.08.11-.25.06-.26,0C71.92,31.5,71.15,31.25,70.39,31Z"/>
      <path class="b2a5165e-7276-4984-89f1-80f053f95f6a" d="M38.91,23c0,.44-.09.91.3,1.22-.19.28-.51.13-.69.29s-.33.35-.55.59c-.22-.46-.46-.88-1-.93.06-.33.38-.38.44-.59a5.54,5.54,0,0,0,.12-.71A2.41,2.41,0,0,0,38.91,23Z"/>
      <path class="e44b7da4-b8fc-49d0-afec-e1f36f28b3b7" d="M52.3,43a.44.44,0,0,1-.38.2c-.3,0-.38.5-.68.4s-.21-.43-.47-.52-.36-.29-.11-.53.17-.37.22-.57.13-.19.23-.12a.84.84,0,0,0,.8,0c.1,0,.25,0,.2.16C52,42.42,52.16,42.7,52.3,43Z"/>
      <path class="f82654b8-6ef7-4d7e-b4c4-a55340b8a88c" d="M92.36,23.06c-.08-.17-.25-.18-.41-.2.09-.06.17-.16.26-.17.76-.06,1.51,0,2.34,0-.09.1-.12.15-.14.15C93.71,22.8,93.06,23.12,92.36,23.06Z"/>
    </g>
  </g>
</svg>
