<svg id="fdcc0838-93b7-482d-9d06-6a377f44179f" data-name="Layer 1" xmlns="http://www.w3.org/2000/svg" width="167.11" height="249.34" viewBox="0 0 167.11 249.34">
  <defs>
    <style>
      .b0a93409-2ec9-49db-bc18-f11f9cca307d {
        opacity: 0.5;
      }

      .aa5bd909-e4f3-4854-b77c-f02f5d8376dd, .bfaa94ef-498e-45b5-b86f-3e34b4e37a7c, .f7d6bd27-6a9d-4e9d-b48a-20ff47db2758 {
        fill: #fff;
      }

      .bee0b486-5740-4a1e-b1c8-052b40a14d94 {
        fill: #705038;
      }

      .abb62900-07c3-4fc6-919e-464502ce2b94 {
        fill: #d3d1d1;
        stroke: #333232;
      }

      .a15de3fc-8bfe-40f0-a28d-ccda5f07a79e, .aa5bd909-e4f3-4854-b77c-f02f5d8376dd, .abb62900-07c3-4fc6-919e-464502ce2b94, .b0a7245b-39d9-41a5-8e69-5292becdf427, .b2da39c5-3cf3-4ebc-9740-0aa6f8ff02e1, .b3813fc8-3c74-4ba5-8904-554c12c26d52, .ba72137a-a05a-4523-a5f7-a96f84ad72a4, .bc019459-9e29-4610-bd47-73163f4101c5, .ebd7e7eb-a872-4eef-b646-86e12b46ee32, .f4c8da7d-5939-46ed-ac96-cb736ed13526, .f7d6bd27-6a9d-4e9d-b48a-20ff47db2758, .fa77edca-6174-4fd5-a9b1-f0291c22052e, .fad44d0d-6ce1-4412-a89e-accf40f65c10 {
        stroke-miterlimit: 10;
      }

      .a15de3fc-8bfe-40f0-a28d-ccda5f07a79e, .abb62900-07c3-4fc6-919e-464502ce2b94, .f4c8da7d-5939-46ed-ac96-cb736ed13526 {
        stroke-width: 1.21px;
      }

      .bf2f120b-99b9-4610-912e-be5ebd9489a1, .ebd7e7eb-a872-4eef-b646-86e12b46ee32 {
        fill: #825737;
      }

      .ebd7e7eb-a872-4eef-b646-86e12b46ee32 {
        stroke: #301801;
        stroke-width: 1.23px;
      }

      .aa359cfc-02f0-4a37-bd36-d59f552929ca {
        fill: #865c3e;
      }

      .e76195cb-daa1-4570-80e5-eb06a26128cc {
        fill: #825c41;
      }

      .adcc0a9c-b96f-4c0d-aa21-bce2e324abfc {
        fill: #5d422c;
      }

      .b2da39c5-3cf3-4ebc-9740-0aa6f8ff02e1 {
        fill: #654223;
        stroke: #280901;
      }

      .b2da39c5-3cf3-4ebc-9740-0aa6f8ff02e1, .b3813fc8-3c74-4ba5-8904-554c12c26d52, .ba72137a-a05a-4523-a5f7-a96f84ad72a4, .bc019459-9e29-4610-bd47-73163f4101c5, .f7d6bd27-6a9d-4e9d-b48a-20ff47db2758, .fa77edca-6174-4fd5-a9b1-f0291c22052e, .fad44d0d-6ce1-4412-a89e-accf40f65c10 {
        stroke-width: 0.87px;
      }

      .b3813fc8-3c74-4ba5-8904-554c12c26d52 {
        fill: #f49499;
        stroke: #2b1401;
      }

      .b5028ee9-8340-49be-b66a-53042e4f6e7a {
        fill: #c9a27b;
      }

      .af57fc49-63b0-4166-acf5-0365ddf1c965, .e5352d2d-af64-4568-b847-22eeb9b7318c {
        fill: #969595;
      }

      .a438a9c4-a2d4-44ae-a050-bbfc726ad855, .fad44d0d-6ce1-4412-a89e-accf40f65c10 {
        fill: #3b1e15;
      }

      .fad44d0d-6ce1-4412-a89e-accf40f65c10 {
        stroke: #190101;
      }

      .aa5bd909-e4f3-4854-b77c-f02f5d8376dd, .bc019459-9e29-4610-bd47-73163f4101c5, .f7d6bd27-6a9d-4e9d-b48a-20ff47db2758 {
        stroke: #0a0a0a;
      }

      .b0a7245b-39d9-41a5-8e69-5292becdf427, .fa77edca-6174-4fd5-a9b1-f0291c22052e {
        fill: #441b0d;
        stroke: #0c0401;
      }

      .bd037e27-13d3-4487-b8b3-7dd9f910b916 {
        fill: #a37d5a;
      }

      .b0e9be19-d589-4f9e-8311-d78e16da077f {
        fill: #000213;
      }

      .aa5bd909-e4f3-4854-b77c-f02f5d8376dd, .b0a7245b-39d9-41a5-8e69-5292becdf427 {
        stroke-width: 0.81px;
      }

      .a15de3fc-8bfe-40f0-a28d-ccda5f07a79e, .ba72137a-a05a-4523-a5f7-a96f84ad72a4, .bc019459-9e29-4610-bd47-73163f4101c5 {
        fill: none;
      }

      .eb86f7fd-ad59-4d4d-ad10-e4f061af7a2e {
        fill: #993340;
      }

      .b759185b-27c2-4c72-9dd4-be979efaa0cb {
        fill: #58392d;
      }

      .ea8dceda-50af-4981-b72a-e61b97064a72 {
        fill: #815648;
        opacity: 0.51;
      }

      .af57fc49-63b0-4166-acf5-0365ddf1c965 {
        opacity: 0.72;
      }

      .ba72137a-a05a-4523-a5f7-a96f84ad72a4 {
        stroke: #280303;
      }

      .a15de3fc-8bfe-40f0-a28d-ccda5f07a79e {
        stroke: #351802;
      }

      .f4c8da7d-5939-46ed-ac96-cb736ed13526 {
        fill: #4c4a4a;
        stroke: #33302d;
      }

      .ead99cb2-99ee-46e3-af8a-5a8e2cd9fec7 {
        fill: #302f2f;
      }
    </style>
  </defs>
  <g>
    <g class="b0a93409-2ec9-49db-bc18-f11f9cca307d">
      <path d="M93.12,245.74a43.26,43.26,0,0,1-11.84-1.45A8.06,8.06,0,0,1,76.94,241c-2.37.2-4.64.29-6.78.29a38.76,38.76,0,0,1-9.85-1,8,8,0,0,1-5.44-10.27c.41-1.22.86-2.4,1.33-3.49,2.46-5.75,5.41-9.05,8.1-10.94.62-5.28.87-17.05-5.33-33.68-6.49-17.43-7-31.15-6.28-39.75,0-.38,0-.74,0-1.08l0-.37A16.94,16.94,0,0,1,46,142.11a13.29,13.29,0,0,1-2-.14,8,8,0,0,1-3.44-14.41,8,8,0,0,1-.93-13.14,11,11,0,0,1-1-1.11,13,13,0,0,1-.92-1.12,17.39,17.39,0,0,1-6.94-7.47,14.56,14.56,0,0,0-2.65,1.39,13.66,13.66,0,0,1-7,2.42l-.93,0a12.44,12.44,0,0,1-11.61-7.72,14.5,14.5,0,0,1,2.62-15.29c.17-.18.34-.36.52-.53a13.43,13.43,0,0,1,2.43-1.87,18.76,18.76,0,0,0,5.71-8.26c2.28-7,5.64-11.21,8.13-13.52.09-.17.18-.34.28-.5a6.74,6.74,0,0,1,0-1.27c0-.24,0-.47.08-.71a14.34,14.34,0,0,1,.48-2.6q-.15-.36-.27-.75a8.83,8.83,0,0,1,1.87-8.06,21.08,21.08,0,0,1,2.11-1.95l.35-.29c.2-.76.45-1.63.76-2.59a44.43,44.43,0,0,1,4.28-10.54,53.31,53.31,0,0,1,5.31-8.21,49.7,49.7,0,0,1,3.64-4.32l.88-.92a37.09,37.09,0,0,1,8.07-6.36,23.22,23.22,0,0,1,2.08-1.1,8,8,0,0,1,9.43,12.41A48.62,48.62,0,0,0,61,33.23l-.06.11c-.43.88-.84,1.84-1.23,2.87a15.66,15.66,0,0,1,2.71-.53,8.22,8.22,0,0,1,1-.06,8,8,0,0,1,7.16,4.15c.14.28.27.57.39.86l.5-.69.07-.09c.26-.38.5-.74.74-1.12l.05-.08c.42-.67.83-1.42,1.23-2.22A43.38,43.38,0,0,0,77,21.93c.08-1.68.09-3.32,0-5a8,8,0,0,1,6-8.07,7.78,7.78,0,0,1,2-.26A8,8,0,0,1,92.12,13c.49.95,4.69,9.71,3,23,0,0,0,.31-.05.45s0,.24,0,.35c-.18,1.39-.43,2.8-.74,4.17,0,.23-.12.54-.2.86,0,0-.07.28-.07.28A40.51,40.51,0,0,1,82.72,62.35a26.72,26.72,0,0,1,6.84,10c2.46,5.87,3.21,6.38,4,6.93.39.27.79.55,1.22.87a17.32,17.32,0,0,1,6.41,13.1c.33,7.28-4.26,12.76-11.26,13.38l-.59,0,.69,2a44.45,44.45,0,0,0,7.13-1.78c.92-.47,1.94-.94,3-1.43l.62-.29L101,105a23.34,23.34,0,0,1,4.62-2.47l0,0a21.41,21.41,0,0,1,10.54-3.11c.46,0,.93,0,1.4,0,5.74,0,11.07,2.16,15.88,6.43a.67.67,0,0,0,.22-.16,3.63,3.63,0,0,0,.11-1.67,8,8,0,0,1,7.8-8.7h.16a8.1,8.1,0,0,1,6.15,2.87,16.37,16.37,0,0,1,3.63,7.89,8.14,8.14,0,0,1,3.17,5.44c0,.11,0,.22,0,.33a8,8,0,0,1,2,6.85,15.77,15.77,0,0,1-9.08,11.58,59,59,0,0,1,1.34,6.32c.31,1.76.55,3.44.71,5l0,.28c0,.35.07.78.1,1.21l.05.71c0,.41,0,.84.07,1.28,0,.26,0,.56,0,.88s0,.78,0,1.18,0,.64,0,1c0,.53,0,1.11,0,1.69v.18c-.11,4.69-.81,16.38-5.05,25.33-.63,1.65-1.33,3.28-2.07,4.87-1.47,3.73-3,8.22-4.13,11.83-.51,2-1,4.09-1.32,6.21-.07.53-.21,1.82-.21,1.82,0,.26-.06.53-.08.8-.37,4.52-.71,8.43-1,11.6-.08.93-.18,1.93-.29,2.91-.06.64-.12,1.22-.18,1.73a19.36,19.36,0,0,1,3,14.22,8,8,0,0,1-5.71,6.11,34,34,0,0,1-9,1.13h-1.25l-.58,0-.69-.05-1.43-.1a25.33,25.33,0,0,1-6.46-1,8,8,0,0,1-1.76-.8,13,13,0,0,1-.31,2.07,8,8,0,0,1-6.17,6A60.88,60.88,0,0,1,93.12,245.74Zm13.51-25.31a26.27,26.27,0,0,1,2,3,16.83,16.83,0,0,1,1.55-3.13,19.22,19.22,0,0,1,5.12-5.83c.29-2.21.65-4.9,1-6.75a64.07,64.07,0,0,0-.58-15.88c-.13-.74-.27-1.43-.4-2.08-.3-1.21-.63-2.33-1-3.4a27.8,27.8,0,0,1-1.28,5.35,28.53,28.53,0,0,1-1.22,3.12c-.86,2-1.81,3.79-2.73,5.56l-.16.31a53.55,53.55,0,0,0-1.45,7.67l-.1.72c0,.23-.06.45-.08.69-.1.94-.19,2-.27,3C106.85,215.32,106.72,218.27,106.63,220.43ZM85.19,183.31a34.82,34.82,0,0,0,.69,6.59c.06.24.11.48.16.73l.25-6.33v0c-.27-.28-.54-.59-.8-.92Z"/>
      <path d="M148.82,117.17c-1.33,2.2-5.22,3-7.11,3a5,5,0,0,1-.88-.25c.25-.13.49-.26.72-.41l.21-.06c2.89-.77,6-8,4.7-7-3.88,2.82-4.48,1.85-4.48,1.85,3.78-6.07.27-10.47-.18-11,0-.06-.05-.05-.05-.05.82,9.25-6.7,11-10.68,11.2a18.13,18.13,0,0,0-2.06-1.88h0c-4.52-4.4-8.85-5.44-12.44-5.18a13,13,0,0,0-6.88,2h0l-.8.41a14.92,14.92,0,0,0-3.33,1.72c-.31.22-.63.42-1,.62-1.58.73-3.1,1.41-4.17,2h0a58.52,58.52,0,0,1-14.5,3,15.21,15.21,0,0,0-2.22-2.52l-9.84-27.9c-.12-1.44-.21-2.81-.29-4.12,0-.15,0-.31,0-.46.06-.73.12-1.43.16-2.11v0c2.19,4.29-.2,5,3.19,11.17S84.67,99,89.24,98.62c3.4-.3,4.11-3,4-5.22h0A9.23,9.23,0,0,0,90,86.51c-2.49-1.86-3.92-1.82-7.81-11.11s-9.75-9.55-9.75-9.55h0c-.15-.34-.31-.69-.5-1.06l0,0,0-.05a10.18,10.18,0,0,0-1.49-2.78h0c9-5.82,13.7-12.68,15.86-21.69l.06-.25c.07-.26.13-.52.18-.79a35.18,35.18,0,0,0,.62-3.52c0-.1,0-.2,0-.3a2.3,2.3,0,0,1,0-.26h0v-.05C88.64,23.78,85,16.6,85,16.6c.09,2,.07,4,0,5.79a51.27,51.27,0,0,1-4.21,17.44c-.53,1.07-1.08,2.09-1.67,3a.1.1,0,0,1,0,.05q-.48.78-1,1.5l0,.07c-.34.48-.68.94-1,1.38l-.38.47-.65.78-.46.51-.37.39a35.24,35.24,0,0,1-6.34,5.1,39.28,39.28,0,0,1-6,3.09h0a4.4,4.4,0,0,0-1-.68c-1.17-7.21.88-10.88,1.43-11.72h0l.13-.19a7.27,7.27,0,0,0-6,4.35l0,0,0,.06a12,12,0,0,0-1,4.33A8.44,8.44,0,0,0,49.61,46q0-.66.06-1.35l.26-2.36h0a38.54,38.54,0,0,1,1.64-7.08l.5-1.41a43.15,43.15,0,0,1,1.71-4v0a55.46,55.46,0,0,1,7.39-11.26s-.5.23-1.34.72a29.06,29.06,0,0,0-6.41,5.08c-.16.15-.32.33-.47.49l-.27.28a41.08,41.08,0,0,0-3.13,3.71A46.22,46.22,0,0,0,44.89,36s0,0,0,.08a36.75,36.75,0,0,0-3.58,8.87,37,37,0,0,0-1.33,5.2l.17-.08a11,11,0,0,0-2.5,1.65,12.83,12.83,0,0,0-1.35,1.23l.16,0a3.49,3.49,0,0,0-.27.37,9.84,9.84,0,0,0,3.7,0c0,.35-.08.71-.11,1.07a6.77,6.77,0,0,0-3.49,5.46c0,.14,0,.26-.06.4h.06a2.88,2.88,0,0,0,0,.41c1.23-.31,2.42-.68,3.52-1.07a17.06,17.06,0,0,0-5.36,6.67,1.19,1.19,0,0,0-.08.16c-1.45,1.08-4.74,4.14-6.95,11a26.83,26.83,0,0,1-8.8,12.43,5.15,5.15,0,0,0-1.47,1.07h0c-3.18,3.28-1.85,10,3.4,9.68,3.19-.22,2.62-1.72,9.22-4,4.45-1.53,4-14.9,3.91-17.11l0-.13a52.83,52.83,0,0,0,1.41,5.21v.06c.78,2.45,1.53,4.49,1.77,5.77.16.79.26,1.45.33,2a14.68,14.68,0,0,0-.45,3.86c0,5,3.39,9,6.68,9.64a4.18,4.18,0,0,0,1.22,2.17c.5.7,1.3,1.27,3.14,1.54a8.77,8.77,0,0,0,1.11.15l.09,1,.31.09c.15,2.18-.07,7.14-4.7,9.87,0,0,3.91.24,5-1.66s2.12,10.6-4.34,15c0,0,8.73,1.36,11-11,0,0,2.6,3.22,1.06,5.9-.85,1.48.47.47,1.7-2.32,0,.06,0,.11.05.16l1.3,9.33c0,1.53.09,3,.28,4.69,0,.13,0,1.46,0,1.46v.11c-.68,7.13-.48,20,5.77,36.76,9.84,26.4,4.92,42,4.92,42s-4.13-.1-7.84,8.58c-.38.87-.75,1.83-1.1,2.89,0,0,5.47,1.51,17.82,0a12.51,12.51,0,0,0,.25-1.84c.21-2.58,0-7.34-3.32-10.71,0,0,3.13-18.84.9-28.36-1.32-5.58-1-14.21-.54-20.4a21,21,0,0,0,2.2,1.38l.17.1c.23.14.5.28.78.42a19.21,19.21,0,0,0,9.18,2.56c.29.44.59.89.9,1.33h0a14,14,0,0,0,1.68,2.06l.18.19a18.4,18.4,0,0,1,1.7,3.32l-.86,22.48c-.86,6.52-2.45,12.74-5.3,16a8.59,8.59,0,0,0,4.66.81v-.06h0l-.18.88v-.46s-3.57-.3-4.49-1.17c0,0-4.59,2.21-4.55,8.63,0,0,.74.12,1.92.28a15.61,15.61,0,0,0-1.92,6.56s8,2.47,20,0c0,0,1.59-6.61-5.12-13.31l-.3.13.3-.13h0s.17-6.2.53-11.21c.09-1.08.19-2.19.3-3.29,0-.32.07-.62.11-.89a59.6,59.6,0,0,1,2-10.36c1-2,2.12-4,3-6.1a18.82,18.82,0,0,0,.91-2.33,19.83,19.83,0,0,0,1-4.38,8.24,8.24,0,0,0-.17-3.94h0a29.89,29.89,0,0,1-.52-3.71A14.65,14.65,0,0,0,108,177a28.08,28.08,0,0,0,7.93-1.4,18.26,18.26,0,0,0,5.12-2.12l0,0,.2-.11c-2.38,3.45-.06,7.35,1.75,14.6.15.74.3,1.54.46,2.41a72.28,72.28,0,0,1,.66,18.27c-.55,3.33-1.44,10.64-1.44,10.64a12.13,12.13,0,0,0-5.71,5.09c-2,3-1.19,5.25-1.19,5.25a17.72,17.72,0,0,0,4.58.68h.08c.44,0,.89.07,1.36.09l.75.06v0a27.63,27.63,0,0,0,8.16-.81s1.24-6.05-3.57-10c0,0,.17-.78.62-5.18.1-.92.2-1.86.27-2.74.26-2.79.6-6.54,1-11.57,0-.36.07-.72.1-1.08.08-.74.16-1.43.24-2.06.39-2.25.89-4.67,1.52-7.16,1.1-3.64,2.79-8.57,4.51-12.89q1.13-2.39,2-4.77c.05-.11.1-.23.15-.33,2.82-6,4.12-14.72,4.28-22.14v-.11c0-.52,0-1,0-1.53,0-.28,0-.56,0-.83s0-.71,0-1.05l0-.81-.06-1.11c0-.2,0-.4-.05-.59q0-.56-.09-1.08c0-.07,0-.15,0-.22-.14-1.39-.36-2.91-.64-4.49A51.53,51.53,0,0,0,136.87,124c-.27-.59-.55-1.17-.84-1.75h0C147.07,126.71,148.82,117.17,148.82,117.17Zm-66.3-3.63-.06-.07a20,20,0,0,1-4-5.51,48.41,48.41,0,0,0,4.3,5.83Zm-4.68-7c-.25-.57-.49-1.19-.73-1.86-.34-1.24-1.52-5.68-2.44-10.56h0c0-.33-.08-.65-.13-1A92.52,92.52,0,0,0,77.84,106.56ZM94.4,182.8c0,.49,0,1.26.06,2.28,0-1,0-1.79-.07-2.28Zm-1.77,40.9v-.1a8.7,8.7,0,0,0,5.24,0C96.65,224.08,94,224.91,92.63,223.7Z"/>
      <path d="M61.15,18.49Z"/>
      <path d="M61.15,18.49Z"/>
    </g>
    <g>
      <path class="bfaa94ef-498e-45b5-b86f-3e34b4e37a7c" d="M88.12,240.74a43.26,43.26,0,0,1-11.84-1.45A8.06,8.06,0,0,1,71.94,236c-2.37.2-4.64.29-6.78.29a38.76,38.76,0,0,1-9.85-1,8,8,0,0,1-5.44-10.27c.41-1.22.86-2.4,1.33-3.49,2.46-5.75,5.41-9.05,8.1-10.94.62-5.28.87-17.05-5.33-33.68-6.49-17.43-7-31.15-6.28-39.75,0-.38,0-.74,0-1.08l0-.37A16.94,16.94,0,0,1,41,137.11a13.29,13.29,0,0,1-2-.14,8,8,0,0,1-3.44-14.41,8,8,0,0,1-.93-13.14,11,11,0,0,1-1-1.11,13,13,0,0,1-.92-1.12,17.39,17.39,0,0,1-6.94-7.47,14.56,14.56,0,0,0-2.65,1.39,13.66,13.66,0,0,1-7,2.42l-.93,0A12.44,12.44,0,0,1,3.53,95.84,14.5,14.5,0,0,1,6.15,80.55c.17-.18.34-.36.52-.53A13.43,13.43,0,0,1,9.1,78.15a18.76,18.76,0,0,0,5.71-8.26c2.28-7,5.64-11.21,8.13-13.52.09-.17.18-.34.28-.5a6.74,6.74,0,0,1,0-1.27c0-.24,0-.47.08-.71a14.34,14.34,0,0,1,.48-2.6q-.15-.36-.27-.75a8.83,8.83,0,0,1,1.87-8.06,21.08,21.08,0,0,1,2.11-1.95l.35-.29c.2-.76.45-1.63.76-2.59a44.43,44.43,0,0,1,4.28-10.54,53.31,53.31,0,0,1,5.31-8.21,49.7,49.7,0,0,1,3.64-4.32l.88-.92A37.09,37.09,0,0,1,50.78,7.3a23.22,23.22,0,0,1,2.08-1.1,8,8,0,0,1,9.43,12.41A48.62,48.62,0,0,0,56,28.23l-.06.11c-.43.88-.84,1.84-1.23,2.87a15.66,15.66,0,0,1,2.71-.53,8.22,8.22,0,0,1,1-.06,8,8,0,0,1,7.16,4.15c.14.28.27.57.39.86l.5-.69.07-.09c.26-.38.5-.74.74-1.12l.05-.08c.42-.67.83-1.42,1.23-2.22A43.38,43.38,0,0,0,72,16.93c.08-1.68.09-3.32,0-5a8,8,0,0,1,6-8.07,7.78,7.78,0,0,1,2-.26A8,8,0,0,1,87.12,8c.49.95,4.69,9.71,3,23,0,0,0,.31-.05.45s0,.24,0,.35c-.18,1.39-.43,2.8-.74,4.17,0,.23-.12.54-.2.86,0,0-.07.28-.07.28A40.51,40.51,0,0,1,77.72,57.35a26.72,26.72,0,0,1,6.84,10c2.46,5.87,3.21,6.38,4,6.93.39.27.79.55,1.22.87a17.32,17.32,0,0,1,6.41,13.1c.33,7.28-4.26,12.76-11.26,13.38l-.59,0,.69,2a44.45,44.45,0,0,0,7.13-1.78c.92-.47,1.94-.94,3-1.43l.62-.29L96,100a23.34,23.34,0,0,1,4.62-2.47l0,0a21.41,21.41,0,0,1,10.54-3.11c.46,0,.93,0,1.4,0,5.74,0,11.07,2.16,15.88,6.43a.67.67,0,0,0,.22-.16,3.63,3.63,0,0,0,.11-1.67,8,8,0,0,1,7.8-8.7h.16a8.1,8.1,0,0,1,6.15,2.87,16.37,16.37,0,0,1,3.63,7.89,8.14,8.14,0,0,1,3.17,5.44c0,.11,0,.22,0,.33a8,8,0,0,1,2,6.85,15.77,15.77,0,0,1-9.08,11.58,59,59,0,0,1,1.34,6.32c.31,1.76.55,3.44.71,5l0,.28c0,.35.07.78.1,1.21l.05.71c0,.41,0,.84.07,1.28,0,.26,0,.56,0,.88s0,.78,0,1.18,0,.64,0,1c0,.53,0,1.11,0,1.69v.18c-.11,4.69-.81,16.38-5.05,25.33-.63,1.65-1.33,3.28-2.07,4.87-1.47,3.73-3,8.22-4.13,11.83-.51,2-1,4.09-1.32,6.21-.07.53-.21,1.82-.21,1.82,0,.26-.06.53-.08.8-.37,4.52-.71,8.43-1,11.6-.08.93-.18,1.93-.29,2.91-.06.64-.12,1.22-.18,1.73a19.36,19.36,0,0,1,3,14.22,8,8,0,0,1-5.71,6.11,34,34,0,0,1-9,1.13h-1.25l-.58,0-.69-.05-1.43-.1a25.33,25.33,0,0,1-6.46-1,8,8,0,0,1-1.76-.8,13,13,0,0,1-.31,2.07,8,8,0,0,1-6.17,6A60.88,60.88,0,0,1,88.12,240.74Zm13.51-25.31a26.27,26.27,0,0,1,2,3,16.83,16.83,0,0,1,1.55-3.13,19.22,19.22,0,0,1,5.12-5.83c.29-2.21.65-4.9,1-6.75a64.07,64.07,0,0,0-.58-15.88c-.13-.74-.27-1.43-.4-2.08-.3-1.21-.63-2.33-1-3.4a27.8,27.8,0,0,1-1.28,5.35,28.53,28.53,0,0,1-1.22,3.12c-.86,2-1.81,3.79-2.73,5.56l-.16.31a53.55,53.55,0,0,0-1.45,7.67l-.1.72c0,.23-.06.45-.08.69-.1.94-.19,2-.27,3C101.85,210.32,101.72,213.27,101.63,215.43ZM80.19,178.31a34.82,34.82,0,0,0,.69,6.59c.06.24.11.48.16.73l.25-6.33v0c-.27-.28-.54-.59-.8-.92Z"/>
      <path class="bfaa94ef-498e-45b5-b86f-3e34b4e37a7c" d="M143.82,112.17c-1.33,2.2-5.22,3-7.11,3a5,5,0,0,1-.88-.25c.25-.13.49-.26.72-.41l.21-.06c2.89-.77,6-8,4.7-7-3.88,2.82-4.48,1.85-4.48,1.85,3.78-6.07.27-10.47-.18-11,0-.06-.05-.05-.05-.05.82,9.25-6.7,11-10.68,11.2a18.13,18.13,0,0,0-2.06-1.88h0c-4.52-4.4-8.85-5.44-12.44-5.18a13,13,0,0,0-6.88,2h0l-.8.41a14.92,14.92,0,0,0-3.33,1.72c-.31.22-.63.42-1,.62-1.58.73-3.1,1.41-4.17,2h0a58.52,58.52,0,0,1-14.5,3,15.21,15.21,0,0,0-2.22-2.52l-9.84-27.9c-.12-1.44-.21-2.81-.29-4.12,0-.15,0-.31,0-.46.06-.73.12-1.43.16-2.11v0c2.19,4.29-.2,5,3.19,11.17S79.67,94,84.24,93.62c3.4-.3,4.11-3,4-5.22h0A9.23,9.23,0,0,0,85,81.51c-2.49-1.86-3.92-1.82-7.81-11.11s-9.75-9.55-9.75-9.55h0c-.15-.34-.31-.69-.5-1.06l0,0,0,0a10.18,10.18,0,0,0-1.49-2.78h0c9-5.82,13.7-12.68,15.86-21.69l.06-.25c.07-.26.13-.52.18-.79a35.18,35.18,0,0,0,.62-3.52c0-.1,0-.2,0-.3a2.3,2.3,0,0,1,0-.26h0v-.05C83.64,18.78,80,11.6,80,11.6c.09,2,.07,4,0,5.79a51.27,51.27,0,0,1-4.21,17.44c-.53,1.07-1.08,2.09-1.67,3a.1.1,0,0,1,0,.05q-.48.78-1,1.5l0,.07c-.34.48-.68.94-1,1.38l-.38.47-.65.78-.46.51-.37.39a35.24,35.24,0,0,1-6.34,5.1,39.28,39.28,0,0,1-6,3.09h0a4.4,4.4,0,0,0-1-.68c-1.17-7.21.88-10.88,1.43-11.72h0l.13-.19a7.27,7.27,0,0,0-6,4.35l0,0,0,.06a12,12,0,0,0-1,4.33A8.44,8.44,0,0,0,44.61,41q0-.66.06-1.35l.26-2.36h0a38.54,38.54,0,0,1,1.64-7.08l.5-1.41a43.15,43.15,0,0,1,1.71-4v0a55.46,55.46,0,0,1,7.39-11.26s-.5.23-1.34.72a29.06,29.06,0,0,0-6.41,5.08c-.16.15-.32.33-.47.49l-.27.28a41.08,41.08,0,0,0-3.13,3.71A46.22,46.22,0,0,0,39.89,31s0,.05,0,.08a36.75,36.75,0,0,0-3.58,8.87,37,37,0,0,0-1.33,5.2l.17-.08a11,11,0,0,0-2.5,1.65,12.83,12.83,0,0,0-1.35,1.23l.16,0a3.49,3.49,0,0,0-.27.37,9.84,9.84,0,0,0,3.7,0c0,.35-.08.71-.11,1.07a6.77,6.77,0,0,0-3.49,5.46c0,.14-.05.26-.06.4h.06a2.88,2.88,0,0,0,0,.41c1.23-.31,2.42-.68,3.52-1.07a17.06,17.06,0,0,0-5.36,6.67l-.08.16c-1.45,1.08-4.74,4.14-6.95,11a26.83,26.83,0,0,1-8.8,12.43,5.15,5.15,0,0,0-1.47,1.07h0c-3.18,3.28-1.85,10,3.4,9.68,3.19-.22,2.62-1.72,9.22-4,4.45-1.53,4-14.9,3.91-17.11l0-.13a52.83,52.83,0,0,0,1.41,5.21v.06c.78,2.45,1.53,4.49,1.77,5.77.16.79.26,1.45.33,2a14.68,14.68,0,0,0-.45,3.86c0,5,3.39,9,6.68,9.64a4.18,4.18,0,0,0,1.22,2.17c.5.7,1.3,1.27,3.14,1.54a8.77,8.77,0,0,0,1.11.15l.09,1,.31.09c.15,2.18-.07,7.14-4.7,9.87,0,0,3.91.24,5-1.66s2.12,10.6-4.34,15c0,0,8.73,1.36,11-11,0,0,2.6,3.22,1.06,5.9-.85,1.48.47.47,1.7-2.32,0,.06,0,.11.05.16l1.3,9.33c0,1.53.09,3,.28,4.69,0,.13,0,1.46,0,1.46v.11c-.68,7.13-.48,20,5.77,36.76,9.84,26.4,4.92,42,4.92,42s-4.13-.1-7.84,8.58c-.38.87-.75,1.83-1.1,2.89,0,0,5.47,1.51,17.82,0a12.51,12.51,0,0,0,.25-1.84c.21-2.58,0-7.34-3.32-10.71,0,0,3.13-18.84.9-28.36-1.32-5.58-1-14.21-.54-20.4a21,21,0,0,0,2.2,1.38l.17.1c.23.14.5.28.78.42a19.21,19.21,0,0,0,9.18,2.56c.29.44.59.89.9,1.33h0a14,14,0,0,0,1.68,2.06l.18.19a18.4,18.4,0,0,1,1.7,3.32l-.86,22.48c-.86,6.52-2.45,12.74-5.3,16a8.59,8.59,0,0,0,4.66.81v-.06h0l-.18.88v-.46s-3.57-.3-4.49-1.17c0,0-4.59,2.21-4.55,8.63,0,0,.74.12,1.92.28a15.61,15.61,0,0,0-1.92,6.56s8,2.47,20,0c0,0,1.59-6.61-5.12-13.31l-.3.13.3-.13h0s.17-6.2.53-11.21c.09-1.08.19-2.19.3-3.29,0-.32.07-.62.11-.89a59.6,59.6,0,0,1,2-10.36c1-2,2.12-4,3-6.1a18.82,18.82,0,0,0,.91-2.33,19.83,19.83,0,0,0,1-4.38,8.24,8.24,0,0,0-.17-3.94h0a29.89,29.89,0,0,1-.52-3.71A14.65,14.65,0,0,0,103,172a28.08,28.08,0,0,0,7.93-1.4,18.26,18.26,0,0,0,5.12-2.12l0,0,.2-.11c-2.38,3.45-.06,7.35,1.75,14.6.15.74.3,1.54.46,2.41a72.28,72.28,0,0,1,.66,18.27c-.55,3.33-1.44,10.64-1.44,10.64a12.13,12.13,0,0,0-5.71,5.09c-2,3-1.19,5.25-1.19,5.25a17.72,17.72,0,0,0,4.58.68h.08c.44,0,.89.07,1.36.09l.75.06v0a27.63,27.63,0,0,0,8.16-.81s1.24-6.05-3.57-10c0,0,.17-.78.62-5.18.1-.92.2-1.86.27-2.74.26-2.79.6-6.54,1-11.57,0-.36.07-.72.1-1.08.08-.74.16-1.43.24-2.06.39-2.25.89-4.67,1.52-7.16,1.1-3.64,2.79-8.57,4.51-12.89q1.13-2.39,2-4.77c.05-.11.1-.23.15-.33,2.82-6,4.12-14.72,4.28-22.14v-.11c0-.52,0-1,0-1.53,0-.28,0-.56,0-.83s0-.71,0-1.05l0-.81-.06-1.11c0-.2,0-.4-.05-.59q0-.56-.09-1.08c0-.07,0-.15,0-.22-.14-1.39-.36-2.91-.64-4.49A51.53,51.53,0,0,0,131.87,119c-.27-.59-.55-1.17-.84-1.75h0C142.07,121.71,143.82,112.17,143.82,112.17Zm-66.3-3.63-.06-.07a20,20,0,0,1-4-5.51,48.41,48.41,0,0,0,4.3,5.83Zm-4.68-7c-.25-.57-.49-1.19-.73-1.86-.34-1.24-1.52-5.68-2.44-10.56h0c0-.33-.08-.65-.13-1A92.52,92.52,0,0,0,72.84,101.56ZM89.4,177.8c0,.49,0,1.26.06,2.28,0-1,0-1.79-.07-2.28Zm-1.77,40.9v-.1a8.7,8.7,0,0,0,5.24,0C91.65,219.08,89,219.91,87.63,218.7Z"/>
      <path class="bfaa94ef-498e-45b5-b86f-3e34b4e37a7c" d="M56.15,13.49Z"/>
      <path class="bfaa94ef-498e-45b5-b86f-3e34b4e37a7c" d="M56.15,13.49Z"/>
    </g>
    <g id="ac7adc62-107f-43dc-ba5e-56ec255e055b" data-name="g">
      <path class="bee0b486-5740-4a1e-b1c8-052b40a14d94" d="M89.37,177.22s1.49,30.18-6.18,38.95a9,9,0,0,0,5.28.68s.08,1.05,3.37-18.74l1-22.65S88,169.33,89.37,177.22Z"/>
      <path class="abb62900-07c3-4fc6-919e-464502ce2b94" d="M123.69,109.45s14.17,1.32,13.06-11.21c0,0,4.27,4.57.23,11.05,0,0,.6,1,4.48-1.85,1.3-.94-1.81,6.28-4.7,7-4.23,1.13,4.87,1.3,7.06-2.32,0,0-1.75,9.54-12.78,5.1C131,117.27,123.33,113,123.69,109.45Z"/>
      <path class="ebd7e7eb-a872-4eef-b646-86e12b46ee32" d="M56.78,131.1s-5.15,16.67,4.69,43.08,4.92,42,4.92,42-5.14.21-8.94,11.47c0,0,5.47,1.51,17.82,0,0,0,1.7-7.18-3.07-12.55,0,0,3.13-18.84.9-28.36s.22-27.92.22-27.92Z"/>
      <path class="bf2f120b-99b9-4610-912e-be5ebd9489a1" d="M50.54,58.58S64.73,56.49,68.3,82.39s9,24.47,12.61,29.78c0,0,12.81-.84,19.65-5.63s21.2-4.7,27.59,5.63,13.13,26.06,4.53,54.63c0,0-7.12,10.94-8.55,28.29s-1.9,19.49-1.9,19.49a17,17,0,0,1,1.9,9.75s-7.76,2-13.26.28c0,0-1.85-5,6.9-10.34,0,0,3.28-15.32.78-28.91s-4.22-11.26-2.19-17c0,0-5.62,3.91-18.12,2.35S73.86,175.35,62,153.16s-1.78-19.84-11.44-40.63l1.87-30Z"/>
      <path class="aa359cfc-02f0-4a37-bd36-d59f552929ca" d="M80,11.6c1.42,34.54-24,40.14-24,40.14l8.59,5.76C91.51,39.69,80,11.6,80,11.6Z"/>
      <path class="e76195cb-daa1-4570-80e5-eb06a26128cc" d="M46.19,51.37s-7.47-16.95,10-37.88c0,0-20.52,10.69-21.55,38.22C34.6,51.71,41.14,55.35,46.19,51.37Z"/>
      <path class="adcc0a9c-b96f-4c0d-aa21-bce2e324abfc" d="M80,11.6A51.42,51.42,0,0,1,75.69,35c-5.36,11.8-18,16.23-18,16.23,3.91,2.62,3.28,4.33,14.67-6.11C84.14,34.34,80,11.6,80,11.6Z"/>
      <path class="adcc0a9c-b96f-4c0d-aa21-bce2e324abfc" d="M56.15,13.49S40.13,26.23,38.38,44l.22,9-3.72,1.69S33.55,42,39.85,31,51.75,15.67,56.15,13.49Z"/>
      <path class="adcc0a9c-b96f-4c0d-aa21-bce2e324abfc" d="M68.84,48.31s1.88,1.1,1.83,4.42l1.86-1.85s-.84-3-2.37-3.74l-1.5-.2Z"/>
      <path class="adcc0a9c-b96f-4c0d-aa21-bce2e324abfc" d="M76.9,39.15a2.45,2.45,0,0,1,2.17,2.19l1.13-2.68s-2.09-2.67-3-2Z"/>
      <path class="adcc0a9c-b96f-4c0d-aa21-bce2e324abfc" d="M79.51,29.27s2.33-.7,2.69.86l.2-2.55a2,2,0,0,0-2.68.1C78.54,29,79.51,29.27,79.51,29.27Z"/>
      <path class="adcc0a9c-b96f-4c0d-aa21-bce2e324abfc" d="M37.89,40.65a7.74,7.74,0,0,1,6.77-.89l.27-2.48s-4.54-.61-7.06,1.95S37.89,40.65,37.89,40.65Z"/>
      <path class="adcc0a9c-b96f-4c0d-aa21-bce2e324abfc" d="M41.86,30.56a5.63,5.63,0,0,1,4.61-.16l.7-2s-3.44-1-5.67,1.32S41.86,30.56,41.86,30.56Z"/>
      <g>
        <path class="b2da39c5-3cf3-4ebc-9740-0aa6f8ff02e1" d="M67.43,60.85s5.86.27,9.75,9.55S82.5,79.65,85,81.51a9.23,9.23,0,0,1,3.2,6.89c0,1.47-10.37,2.52-10.37,2.52L69.48,72.08Z"/>
        <path class="b3813fc8-3c74-4ba5-8904-554c12c26d52" d="M68.8,67s5.35,3.65,5.66,8.81,3.79,7,5.75,7.13,6.91,1.08,7.6,3.34,1,6.9-3.57,7.3-8.93-1.17-12.31-7.35-1-6.88-3.19-11.17C68.74,75.1,68.91,68.5,68.8,67Z"/>
      </g>
      <g>
        <path class="b2da39c5-3cf3-4ebc-9740-0aa6f8ff02e1" d="M30.11,60.91s-4.78,2.49-7.69,11.45A27,27,0,0,1,12.3,85.76l-.17.1S9.19,93.32,14.28,92s12.91-11,12.91-11l1.87-8.21Z"/>
        <path class="b3813fc8-3c74-4ba5-8904-554c12c26d52" d="M28.11,71.52s-2.24.9-4.66,8.4a10.88,10.88,0,0,1-7.79,4.27C8.51,85,8.88,96,15.53,95.55c3.19-.22,2.62-1.72,9.22-4,4.85-1.66,3.89-17.43,3.89-17.43Z"/>
      </g>
      <path class="bf2f120b-99b9-4610-912e-be5ebd9489a1" d="M72.21,100s-4.34-15.38-3.65-22.66a53.62,53.62,0,0,0,0-13c-.18-.65-1.33-9.65-12.33-13.68,0,0-1-7.11,1.54-11.77,0,0-5.55.79-6,8.69s2.58-8.78-13.5-6.15c0,0,4.07,1.7,4.92,2.7,0,0-7.13-1.47-11.92,3.71,0,0,4.72.8,7.63-.25,0,0-7.24,2-7.7,7.58A30.86,30.86,0,0,0,42.07,51.3s-11.31,2.77-13.67,13c-1.85,8,2.8,17.52,3.49,21.1a27.07,27.07,0,0,1,.44,6.88c0,2,2.14,7.35,6.12,8.66,0,0,1.82,5,8.71,3.71,0,0,4.47-4,11,18.58l13-11.18Z"/>
      <path class="b5028ee9-8340-49be-b66a-53042e4f6e7a" d="M59.13,94.85s6.05,18.37,6.84,34.3c.69,13.76,11.33,24.95,11.33,24.95s38.05,11,46.87-10.76c0,0,4.49,16.58-7.81,25-9,6.18-34.86,3.4-41.43-.51-6.11-3.63-9.66-6.68-15.15-19.42s-3.66-10.56-4.08-15S54.6,122.88,54,120.9l-2.55-17.13S52,95.84,59.13,94.85Z"/>
      <path class="abb62900-07c3-4fc6-919e-464502ce2b94" d="M44.2,104.74s1.46,7.39-4.58,11c0,0,3.91.24,5-1.66s2.12,10.6-4.34,15c0,0,8.73,1.36,11-11,0,0,2.6,3.22,1.06,5.9-1.91,3.32,7.15-5.91,1.46-19.53L53,101.65Z"/>
      <g>
        <path class="e5352d2d-af64-4568-b847-22eeb9b7318c" d="M52,104.58s2.48,4.16,1.38,11.29c0,0,0,3.22-3.39-2.47,0,0,1.21,12.36-8.95,15.31,0,0,7.87,1,9.93-11a5,5,0,0,1,1.95,5.27s2.54-2.92,2.52-10.53c0-7.19-3-10.07-3-10.07Z"/>
        <path class="e5352d2d-af64-4568-b847-22eeb9b7318c" d="M44,105.73s5.29,1.76,8-1.15l1.1-2.23-.31-.62a10.64,10.64,0,0,1-6,2.47c-3.89.45-3,.13-3,.13Z"/>
      </g>
      <path class="bfaa94ef-498e-45b5-b86f-3e34b4e37a7c" d="M33.47,85.06s-.65.36-1.21,2.73A12.89,12.89,0,0,0,35,98.36a15.14,15.14,0,0,0,3.49,2.54s1,4.07,7.32,3.89,13.36-8.88,14.12-11.51c0,0-.54-5.32-7.87-7.57C52,85.71,40,82.28,33.47,85.06Z"/>
      <path class="fad44d0d-6ce1-4412-a89e-accf40f65c10" d="M33.33,83.75S43.26,80.46,53,84.9c0,0,.4,6.93-10.23,9C42.73,93.92,33.76,92.67,33.33,83.75Z"/>
      <circle class="f7d6bd27-6a9d-4e9d-b48a-20ff47db2758" cx="57.33" cy="71.93" r="5.91"/>
      <circle class="fa77edca-6174-4fd5-a9b1-f0291c22052e" cx="57.75" cy="71.99" r="3.39"/>
      <path class="bd037e27-13d3-4487-b8b3-7dd9f910b916" d="M56.91,98s6.81,15.85,6.33,32.21,13.09,26.63,13.09,26.63-5.68,7.62-12.06.24c0,0,5.5,10.56,16.43,12.82l4.23.87a147.22,147.22,0,0,1-9.36-21.64,33.71,33.71,0,0,1-8.14-15.74c-2.24-10-.67-23.85-5.46-33.57l-2.84-5Z"/>
      <circle class="bfaa94ef-498e-45b5-b86f-3e34b4e37a7c" cx="59.38" cy="70.2" r="1.18"/>
      <path class="b0e9be19-d589-4f9e-8311-d78e16da077f" d="M55.29,61.59s2.37-2.12,8,2.11C63.25,63.7,59.79,56.38,55.29,61.59Z"/>
      <path class="b0e9be19-d589-4f9e-8311-d78e16da077f" d="M29.29,64.84s1.88-4.39,7.78-4.57C37.07,60.27,31,57,29.29,64.84Z"/>
      <g>
        <ellipse class="aa5bd909-e4f3-4854-b77c-f02f5d8376dd" cx="34.66" cy="70.63" rx="5.75" ry="5.29" transform="translate(-39.87 95.83) rotate(-82.54)"/>
        <ellipse class="b0a7245b-39d9-41a5-8e69-5292becdf427" cx="35.04" cy="70.68" rx="3.3" ry="3.04" transform="translate(-39.59 96.26) rotate(-82.54)"/>
        <ellipse class="bfaa94ef-498e-45b5-b86f-3e34b4e37a7c" cx="36.52" cy="68.93" rx="1.15" ry="1.06" transform="translate(-36.57 96.19) rotate(-82.54)"/>
      </g>
      <path class="bee0b486-5740-4a1e-b1c8-052b40a14d94" d="M59.8,94s5.89-5.53,7.63-10.45c0,0,1.45,4.71-13.07,17.46Z"/>
      <path class="abb62900-07c3-4fc6-919e-464502ce2b94" d="M49.73,56.18s-4.61.93-7.51,7.17c0,0-1.71-2.79,1.49-8,0,0-5.09.77-6.81,4a11.6,11.6,0,0,1,5.17-8.14,45.79,45.79,0,0,1-10.78,4.34s-1.05-5.73,7.6-8c0,0-6.39,1.27-7.74.65,0,0,3.59-5.76,12-4.11,0,0-4.74-2.5-5.59-2.85s11.25-3.29,13.64,6c0,0,0-8,7.07-8.78,0,0-2.9,3.63-1.56,11.91C56.74,50.53,63.34,53.81,49.73,56.18Z"/>
      <path class="bc019459-9e29-4610-bd47-73163f4101c5" d="M42.48,93.87S42,99.2,45.93,100,55.08,95.31,56,91.69l-.61-.08a4,4,0,0,1,1.53.2"/>
      <path class="f7d6bd27-6a9d-4e9d-b48a-20ff47db2758" d="M43.62,98.55s-.69,2-3.73,1.38-5.63-3.23-5.75-8l-.69.41,1.17-.72"/>
      <path class="eb86f7fd-ad59-4d4d-ad10-e4f061af7a2e" d="M12.43,85.9a6,6,0,0,1,3.9-1.61c2.73-.27,6.47-2.36,7.5-5.07.87-2.27,2-5.41,4.14-7.41l.41,2.29a36.14,36.14,0,0,1-.11,8s.1-4.82-.78-5.91S24.11,81,23.7,82.05s-3.07,2.46-6.78,2.75S12.43,85.9,12.43,85.9Z"/>
      <path class="b759185b-27c2-4c72-9dd4-be979efaa0cb" d="M35.58,83.48s7.71-2.56,15.25.89c0,0,.32,5.39-7.95,7C42.88,91.38,35.9,90.42,35.58,83.48Z"/>
      <path class="ea8dceda-50af-4981-b72a-e61b97064a72" d="M38.37,83a13.66,13.66,0,0,1,9.05.53s.19,3.2-4.71,4.16C42.71,87.73,38.57,87.16,38.37,83Z"/>
      <path class="a438a9c4-a2d4-44ae-a050-bbfc726ad855" d="M33.33,83.75a21.14,21.14,0,0,1,6-8.21"/>
      <path class="a438a9c4-a2d4-44ae-a050-bbfc726ad855" d="M53,84.9s.82-5.73-1.12-8.43C51.84,76.47,53.33,82.77,53,84.9Z"/>
      <path class="a438a9c4-a2d4-44ae-a050-bbfc726ad855" d="M53.12,78.23a11.88,11.88,0,0,1,7.33-.14"/>
      <path class="a438a9c4-a2d4-44ae-a050-bbfc726ad855" d="M30.21,76.54a18.34,18.34,0,0,1,7.79.33"/>
      <path class="af57fc49-63b0-4166-acf5-0365ddf1c965" d="M32.14,92.9s1.88,6,6.64,7.34c0,0,1.39,3.44,7.2,2.85s10.53-4.78,13.61-11.41a3.5,3.5,0,0,1-.46,3.17c-3.24,4.74-6.68,9.94-13.36,9.94s-6-2-7.32-3.89A10.68,10.68,0,0,1,32.14,92.9Z"/>
      <path class="ba72137a-a05a-4523-a5f7-a96f84ad72a4" d="M33.47,85.06s-1.7,1.16-1.7,6.2,3.39,9,6.68,9.64c0,0,.58,4.27,7.32,3.89s9.23-4,14-10.8c0,0,1.27-4.71-6.93-8"/>
      <path class="e5352d2d-af64-4568-b847-22eeb9b7318c" d="M35.5,96.9s3.19,4.11,6.73,2.92c0,0,2-1.11.93-1.69C43.16,98.13,40.62,100.8,35.5,96.9Z"/>
      <path class="e5352d2d-af64-4568-b847-22eeb9b7318c" d="M43.55,98s.75,2.06,3.74,1.86,6.9-4.42,7.7-6.22C55,93.6,50.13,100.69,43.55,98Z"/>
      <path class="bd037e27-13d3-4487-b8b3-7dd9f910b916" d="M104.74,156.39s-1.51,8.91-4.17,11.2c0,0,25.31,5,23.6-24.25,0,0,5.15,21.9-11.76,26.62s-14.3.6-14.89-2l5.34-11.35Z"/>
      <path class="eb86f7fd-ad59-4d4d-ad10-e4f061af7a2e" d="M69.6,74.13s.7-4.1,2.93-1.45c1.54,1.84-1,7.82,6,11.29,0,0,5.92.58,8.43,2.32a2,2,0,0,1,.82,1.13s.37-2.35-3.19-3.45a21.89,21.89,0,0,0-5.14-.84c-1.6-.11-4.6-2.77-4.83-5.29s-1-5.53-2.43-7.12-2.38-2.84-3.2-3.23v7.59L69.72,77a12.89,12.89,0,0,1,.31,2,9.83,9.83,0,0,0-.2-3.3C69.4,74.25,69.6,74.13,69.6,74.13Z"/>
      <path class="bee0b486-5740-4a1e-b1c8-052b40a14d94" d="M56,150.57s4,14.68,11.46,19.57c0,0,1.44,14,2.94,21.7s1.9,18.94,0,23.19l1.3.06s3.52-17.08.78-29.33c0,0-1.75-12.87-.15-19.39a37,37,0,0,1-8-9.28c-3-5.26-7.82-15-8.3-19.22s-.27-.56-.27-.56S55.55,147.52,56,150.57Z"/>
      <path class="bf2f120b-99b9-4610-912e-be5ebd9489a1" d="M70.37,130.22s.32,5.21,3.88,15.26,8.89,24.48,13.22,28.7,3.84,17.19,3.62,20.24-2.33,21.13-3.62,24.13c0,0,4.23.68,6.06-.22,0,0,.29-10.78.94-15.39s1.32-10.6,4.12-14.76,4.18-12.34,1-16.24c-2.33-2.86-3-2.72-.82-7s7.79-13.64,6.56-23.05"/>
      <path class="bee0b486-5740-4a1e-b1c8-052b40a14d94" d="M104.87,152l.58-8.58c-1.46,1.07-2.14,6.73-3.34,10.33-1.34,4.85-3.71,8.41-8.46,14.94,0,0-2.33,3.35,5,8.85,0,0,2.09,3.38-3.83,13.09s-1.34,27.66-1.34,27.66.25-20.62,3.46-27,5.71-12.34,4.16-15.85S102.1,158.51,104.87,152Z"/>
      <path class="bee0b486-5740-4a1e-b1c8-052b40a14d94" d="M103.89,104.82s20.29-.34,25.72,16.71,4.06,36.81,0,44.75-9.34,22.6-7.38,48.3c0,0,1.94-21.94,2.68-25.7s4.7-15.6,7.77-22.08c4.3-9.07,5.08-24.67,3.64-32.09s-3.58-18.65-12.31-27.15S107.22,103.09,103.89,104.82Z"/>
      <path class="bee0b486-5740-4a1e-b1c8-052b40a14d94" d="M68.51,64.41s-1,9.89-1.08,20.07c-.12,9.15,3.49,28.1,18.92,29.81,1.06.12-6.56-2.37-5.44-2.12l-3.45-3.7c-1.55-1.65-5.87-5.47-7.8-19.33A132.12,132.12,0,0,1,68.51,64.41Z"/>
      <polygon class="b759185b-27c2-4c72-9dd4-be979efaa0cb" points="80.91 112.17 86.85 114.49 83.08 112.17 80.91 112.17"/>
      <path class="e5352d2d-af64-4568-b847-22eeb9b7318c" d="M136.75,98.24s3.88,4.28,0,11.22c0,0,1.94.47,4.59-1.63a11.59,11.59,0,0,1-5.51,7.13s3.86,1.67,7.75-2.2c0,0-1.89,5.33-6.36,5.33-6.21,0-6.19-1.58-6.19-1.58s6.88,1.72,9.61-.41c0,0-6.84,1.24-7.11-1.8,0,0,6.08-2.35,6.38-4.32,0,0-8,2.82-7.46,1.07.28-.87,5.53-4.21,5-9C137,98.14,136.75,98.24,136.75,98.24Z"/>
      <path class="e5352d2d-af64-4568-b847-22eeb9b7318c" d="M38.73,48.05s-6.62,1.05-7.19,6.69c0,0,3.27-4,5.53-5.23S38.73,48.05,38.73,48.05Z"/>
      <path class="e5352d2d-af64-4568-b847-22eeb9b7318c" d="M37.33,58.35s2.39-5,5.09-6.46l-.35-.59A12.46,12.46,0,0,0,37.33,58.35Z"/>
      <path class="e5352d2d-af64-4568-b847-22eeb9b7318c" d="M44.1,55.08l.34.54s-2.44,3.84-2.22,7.1C42.22,62.72,41,59.92,44.1,55.08Z"/>
      <path class="e5352d2d-af64-4568-b847-22eeb9b7318c" d="M51.51,49S53,40.4,58.18,38.81c0,0-2.71-.24-5.92,4.2C52.26,43,51,47,51.51,49Z"/>
      <path class="e5352d2d-af64-4568-b847-22eeb9b7318c" d="M38.31,41.29a14.26,14.26,0,0,1,6.62,2.63l1.11.8s-.24.39-1.7-.19S38,41.31,38,41.31Z"/>
      <path class="a15de3fc-8bfe-40f0-a28d-ccda5f07a79e" d="M58.2,51.57s6.81,2.61,8.69,8.15c0,0,3.1,5.52,1.88,14.89s3.22,25,4.3,27.54,6.79,9.29,7.84,10,12.91-2.16,14.52-3c2.32-1.25,6.82-3,9.26-4.73s10.94-4.72,19.32,3.15,11.8,21.06,12.69,29.77a67.58,67.58,0,0,1-6.22,34.61c-6.08,12.8-7.41,29.24-7.28,32.1s-1,10.18-1,10.18-2.91,1.47-4.43.05c0,0,.89-7.32,1.44-10.65A65.64,65.64,0,0,0,118.09,183c-1.82-7.27-4.14-11.17-1.73-14.63,0,0-7.49,4.35-15.68,3.62"/>
      <path class="a15de3fc-8bfe-40f0-a28d-ccda5f07a79e" d="M84.93,170.78s-13,.81-22.3-16.68c0,0-6.73-10.69-6.93-20.7l-1.61-11.59"/>
      <path class="a15de3fc-8bfe-40f0-a28d-ccda5f07a79e" d="M73.49,135.83s.89,19.94,12.3,36.29c0,0,4.9,4,5.33,14.42s-3.18,31-3.65,32a8.58,8.58,0,0,0,6.06-.22s0-19.92,2.78-25.32,6.19-11.19,5-17.19-.36-9.06,1.11-15.89,3.27-8.33,3.06-16.47"/>
      <path class="a15de3fc-8bfe-40f0-a28d-ccda5f07a79e" d="M89.37,177.22s1.54,32.23-6.18,38.95a8.59,8.59,0,0,0,4.66.81"/>
      <path class="a15de3fc-8bfe-40f0-a28d-ccda5f07a79e" d="M35.17,54.33a16.85,16.85,0,0,0-6.77,9.93s-1.31,4.46,1.71,15.3c0,0,2.32,6.34,2.13,7.61"/>
      <path class="a15de3fc-8bfe-40f0-a28d-ccda5f07a79e" d="M124.17,143.34s4.53,18.18-7.47,24.68"/>
      <path class="f4c8da7d-5939-46ed-ac96-cb736ed13526" d="M83.19,216.17s-4.59,2.21-4.55,8.63c0,0,2.58.41,5.82.73s3.22-8.19,3.22-8.19S84.11,217,83.19,216.17Z"/>
      <path class="f4c8da7d-5939-46ed-ac96-cb736ed13526" d="M66.39,216.17s-5-.12-8.94,11.47c0,0,6,1.42,17.82,0,0,0,1.74-7.71-3.07-12.55C72.2,215.09,68.73,217.84,66.39,216.17Z"/>
      <path class="f4c8da7d-5939-46ed-ac96-cb736ed13526" d="M87.47,218.55a15.7,15.7,0,0,0-8.83,13.09s8,2.47,20,0c0,0,1.59-6.61-5.12-13.31C93.53,218.33,89.11,220.44,87.47,218.55Z"/>
      <path class="f4c8da7d-5939-46ed-ac96-cb736ed13526" d="M117.77,214.27s-7.19,2.74-6.9,10.34c0,0,8.06,1.89,14.93,0,0,0,1.24-6.05-3.57-10C122.23,214.58,118.43,215.81,117.77,214.27Z"/>
      <path class="ead99cb2-99ee-46e3-af8a-5a8e2cd9fec7" d="M84.72,232.32s0-5.86,3.61-9.43c0,0-.86,6.67-.81,9.58Z"/>
      <path class="ead99cb2-99ee-46e3-af8a-5a8e2cd9fec7" d="M63.92,228.25s.17-5.12,2.59-7.95a72.2,72.2,0,0,0,0,7.95Z"/>
      <path class="ead99cb2-99ee-46e3-af8a-5a8e2cd9fec7" d="M115.45,225.29s.29-5.29,2.6-7.26c0,0-1.09,5.93-.41,7.42Z"/>
      <path class="ead99cb2-99ee-46e3-af8a-5a8e2cd9fec7" d="M84.46,218.8s-3,3.44-3.44,5.48l3.44-3.82Z"/>
      <path class="a15de3fc-8bfe-40f0-a28d-ccda5f07a79e" d="M57.72,51.22a37.13,37.13,0,0,0,12.37-8.15C75.18,37.65,80.72,28.19,80,11.6c0,0,3.72,7.3,2.18,18.78S75.91,50.11,65.4,56.93"/>
      <path class="a15de3fc-8bfe-40f0-a28d-ccda5f07a79e" d="M44.61,40.9a36.83,36.83,0,0,1,4.16-16.17s3.92-8.81,7.38-11.24h0s-7.46,3.32-13.74,13.37-7.47,18.25-7.47,18.25"/>
      <line class="a15de3fc-8bfe-40f0-a28d-ccda5f07a79e" x1="34.6" y1="48.33" x2="34.6" y2="49.37"/>
    </g>
  </g>
</svg>
