<svg id="bc4978d5-3cfd-41f1-8b87-1493318e30f2" data-name="Layer 1" xmlns="http://www.w3.org/2000/svg" width="220.69" height="165.34" viewBox="0 0 220.69 165.34">
  <defs>
    <style>
      .ba4a765d-62b4-4934-b1ba-9eb508b26a18, .bda154ce-4993-4ee5-b44a-e0033cdadaee {
        opacity: 0.5;
      }

      .f6fbcfa2-f3c7-4378-a880-400b81071cba {
        fill: #fff;
      }

      .b1076aa5-d77b-4c73-aae1-70fdb99859cd {
        fill: #e1e1e5;
        stroke: #c4c4c6;
        stroke-miterlimit: 10;
        stroke-width: 2px;
      }
    </style>
  </defs>
  <g>
    <path class="ba4a765d-62b4-4934-b1ba-9eb508b26a18" d="M98.85,162.46c-27.15,0-50.06-7.73-66.25-22.37C17.28,126.25,8.84,106.74,8.84,85.17S17.28,44.1,32.6,30.25C48.79,15.61,71.7,7.88,98.85,7.88c57.34,0,118,39.73,118,77.29,0,18.7-14.16,38.35-38.85,53.91C154.42,153.94,125.57,162.46,98.85,162.46Z"/>
    <path class="f6fbcfa2-f3c7-4378-a880-400b81071cba" d="M93.85,157.46c-27.15,0-50.06-7.73-66.25-22.37C12.28,121.25,3.84,101.74,3.84,80.17S12.28,39.1,27.6,25.25C43.79,10.61,66.7,2.88,93.85,2.88c57.34,0,118,39.73,118,77.29,0,18.7-14.16,38.35-38.85,53.91C149.42,148.94,120.57,157.46,93.85,157.46Z"/>
    <g>
      <path class="b1076aa5-d77b-4c73-aae1-70fdb99859cd" d="M93.84,149.46c-53,0-82-31-82-69.29s29-69.29,82-69.29,110,36.84,110,69.29C203.84,113.5,146.85,149.46,93.84,149.46Z"/>
      <g class="bda154ce-4993-4ee5-b44a-e0033cdadaee">
        <path class="f6fbcfa2-f3c7-4378-a880-400b81071cba" d="M94.08,27.87a5.69,5.69,0,0,1,5.68-5.69c45.16,0,92.9,31.16,92.9,60.63a5.69,5.69,0,0,1-11.37,0c0-10-9.66-22.44-25.18-32.28-16.7-10.6-37.72-16.92-56.29-16.92A5.75,5.75,0,0,1,94.08,27.87Z"/>
        <path class="f6fbcfa2-f3c7-4378-a880-400b81071cba" d="M80.49,35.66a6.74,6.74,0,1,1,6.74-6.74A6.74,6.74,0,0,1,80.49,35.66Z"/>
      </g>
    </g>
  </g>
</svg>
