<svg id="be3a3cfd-71ed-484e-b90f-cd38f89740fe" data-name="Layer 1" xmlns="http://www.w3.org/2000/svg" width="204.44" height="184.35" viewBox="0 0 204.44 184.35">
  <defs>
    <style>
      .b5e3ce22-fc2d-4c81-8259-821cce1af2b4 {
        opacity: 0.5;
      }

      .b7c8fe13-406d-46d3-877a-7e9b4b8908b3 {
        fill: #fff;
      }

      .f193fb5d-cb0a-4a33-b016-9a7f3d0cbad9 {
        fill: #f49000;
      }

      .aecc6dca-d549-4d4d-9dfa-187e72b6dddb {
        fill: #ffb114;
      }

      .ab04f7ae-2674-4c63-8fb7-e331140ae44b {
        fill: #e58200;
      }

      .a35c6202-6a39-4ea0-b16a-32b40c3b620f {
        fill: #fda002;
      }

      .a6826864-6d6e-46e9-93d5-2098f4c41c17 {
        fill: #ffc100;
      }

      .a19bb1ed-f622-4f71-a230-42fd6041c873 {
        fill: #fece02;
      }
    </style>
  </defs>
  <g>
    <path class="b5e3ce22-fc2d-4c81-8259-821cce1af2b4" d="M104.71,182.19c-34.23,0-64-5.94-79.65-15.89C12.83,158.52,6.9,147.65,7.43,134c.94-24.21,8.16-51.92,22.09-84.71C32.85,41.43,37,32.51,44.59,26.06a30.2,30.2,0,0,1,15.46-7l.14-.14a30.41,30.41,0,0,1,2.74-2.43l.32-.23A29.87,29.87,0,0,1,81.1,10,23.06,23.06,0,0,1,90.82,12a26.49,26.49,0,0,1,15-4.86h1.49a26.46,26.46,0,0,1,15.33,5.15A23,23,0,0,1,133,10a29.87,29.87,0,0,1,17.85,6.32l.32.23A30.41,30.41,0,0,1,153.88,19c.62.62,1.13,1.16,1.54,1.62a30.72,30.72,0,0,1,9.43,5.49c7.56,6.45,11.75,15.37,15.08,23.22C193.86,82.07,201.08,109.78,202,134c.29,7.48-1.78,21.62-18.87,32.33C160.85,180.31,131,182.19,104.71,182.19Z"/>
    <path class="b7c8fe13-406d-46d3-877a-7e9b4b8908b3" d="M99.71,177.19c-34.23,0-64-5.94-79.65-15.89C7.83,153.52,1.9,142.65,2.43,129c.94-24.21,8.16-51.92,22.09-84.71C27.85,36.43,32,27.51,39.59,21.06a30.2,30.2,0,0,1,15.46-7l.14-.14a30.41,30.41,0,0,1,2.74-2.43l.32-.23A29.87,29.87,0,0,1,76.1,5,23.06,23.06,0,0,1,85.82,7a26.49,26.49,0,0,1,15-4.86h1.49a26.46,26.46,0,0,1,15.33,5.15A23,23,0,0,1,128,5a29.87,29.87,0,0,1,17.85,6.32l.32.23A30.41,30.41,0,0,1,148.88,14c.62.62,1.13,1.16,1.54,1.62a30.72,30.72,0,0,1,9.43,5.49c7.56,6.45,11.75,15.37,15.08,23.22C188.86,77.07,196.08,104.78,197,129c.29,7.48-1.78,21.62-18.87,32.33C155.85,175.31,126,177.19,99.71,177.19Z"/>
    <g>
      <g>
        <path class="f193fb5d-cb0a-4a33-b016-9a7f3d0cbad9" d="M135.35,124.27c-.87-9.88-1.86-19.75-2.85-29.62a575.75,575.75,0,0,0-9.32-61.58C119,13.13,108.63,10.3,101.82,10.17h-.52a18.24,18.24,0,0,0-14,6.22c-3,3.42-5.72,8.67-7.41,16.68a575.75,575.75,0,0,0-9.32,61.58c-1,9.87-2,19.74-2.85,29.62C67.36,129,67,134,69.29,138.19a14.31,14.31,0,0,0,9,7.07c7.18,1.69,39.38,1.69,46.56,0a14.31,14.31,0,0,0,9-7.07C136.09,134,135.76,129,135.35,124.27Z"/>
        <path class="aecc6dca-d549-4d4d-9dfa-187e72b6dddb" d="M89,16.62s12-12.09,26.35,1.11A29.38,29.38,0,0,0,101.87,14C93.85,14,89,16.62,89,16.62Z"/>
        <path class="ab04f7ae-2674-4c63-8fb7-e331140ae44b" d="M87,16.79s18.8,4.27,29.83.94l.56.86,2.15,3.54-34.16-.52.88-4Z"/>
      </g>
      <g>
        <path class="f193fb5d-cb0a-4a33-b016-9a7f3d0cbad9" d="M31.55,116.65c0,6.15,2,14.23,15.59,21.54C59.74,145,67.61,146,71,142.13s3.52-12.63,4.23-18c1.84-13.9,4.18-34.47,5-41.31,1.43-11.82,3.4-24.89,7.25-44.74,1-4.93,2.47-10,1.44-14.87-.72-3.44-2.64-6.68-5.27-8.28C76.9,11,67.93,13.36,62.07,18.48S52.83,31,49.93,38.17C39.58,64,31.59,91.27,31.55,116.65Z"/>
        <path class="ab04f7ae-2674-4c63-8fb7-e331140ae44b" d="M62.81,17.86s9.26,3.94,25.32,2.68h0l.27.72-20.55,5-9.08-4.36a26.27,26.27,0,0,1,2.09-2.28A23.16,23.16,0,0,1,62.81,17.86Z"/>
        <path class="aecc6dca-d549-4d4d-9dfa-187e72b6dddb" d="M65.92,17.09a14,14,0,0,1,4.35-2.16c4.76-1.54,12.18-2.26,16.8,5.32,0,0-3-2.48-9-3.62A29.12,29.12,0,0,0,65.92,17.09Z"/>
      </g>
      <g>
        <path class="f193fb5d-cb0a-4a33-b016-9a7f3d0cbad9" d="M172.51,116.65c0,6.15-2,14.23-15.58,21.54-12.6,6.77-20.47,7.81-23.85,3.94s-3.52-12.63-4.23-18c-1.85-13.9-4.18-34.47-5-41.31-1.44-11.82-3.4-24.89-7.25-44.74-1-4.93-2.47-10-1.44-14.87.72-3.44,2.64-6.68,5.27-8.28,6.75-3.88,15.72-1.55,21.58,3.57S151.24,31,154.14,38.17C164.49,64,172.48,91.27,172.51,116.65Z"/>
        <path class="ab04f7ae-2674-4c63-8fb7-e331140ae44b" d="M141.26,17.86S132,21.8,115.94,20.54h0l-.27.72,20.54,5,9.09-4.36a26.27,26.27,0,0,0-2.09-2.28A23.16,23.16,0,0,0,141.26,17.86Z"/>
        <path class="aecc6dca-d549-4d4d-9dfa-187e72b6dddb" d="M138.15,17.09a14,14,0,0,0-4.35-2.16c-4.76-1.54-12.18-2.26-16.8,5.32,0,0,3-2.48,9-3.62A29.12,29.12,0,0,1,138.15,17.09Z"/>
      </g>
      <g>
        <ellipse class="ab04f7ae-2674-4c63-8fb7-e331140ae44b" cx="99.75" cy="30.43" rx="37.03" ry="9.76"/>
        <path class="a35c6202-6a39-4ea0-b16a-32b40c3b620f" d="M75.59,24.24s30-6.09,51.07,1Z"/>
      </g>
      <path class="f193fb5d-cb0a-4a33-b016-9a7f3d0cbad9" d="M189,129.3c-1-26.7-10.11-55.15-21.46-81.89-3.18-7.49-6.85-15.09-12.91-20.26s-15.12-7.29-21.71-3C130.38,26,128.6,29.46,128,33.1c-.84,5.22-55.74,5.22-56.57,0-.59-3.64-2.38-7.12-4.94-8.91-6.59-4.33-15.65-2.21-21.71,3S35.06,39.92,31.88,47.41C20.52,74.15,11.46,102.6,10.42,129.3c-.25,6.47.74,16.85,13.93,25.25,15.79,10,46.23,14.64,75.36,14.64,28.76,0,54.83-2.51,74.19-14.64C187.15,146.24,189.28,135.77,189,129.3Z"/>
      <g>
        <g>
          <path class="a6826864-6d6e-46e9-93d5-2098f4c41c17" d="M133.5,142.55c-.87-9.88-1.86-19.75-2.85-29.62a575.73,575.73,0,0,0-9.31-61.58c-4.22-19.94-14.56-22.77-21.36-22.9h-.53c-6.81.13-17.15,3-21.36,22.9a573.21,573.21,0,0,0-9.31,61.58c-1,9.87-2,19.74-2.85,29.62-.42,4.72-.74,9.75,1.51,13.92a14.31,14.31,0,0,0,9,7.07c7.18,1.69,39.38,1.69,46.57,0a14.31,14.31,0,0,0,9-7.07C134.24,152.3,133.91,147.27,133.5,142.55Z"/>
          <path class="aecc6dca-d549-4d4d-9dfa-187e72b6dddb" d="M133.5,142.55c-.87-9.88-1.86-19.75-2.85-29.62a575.73,575.73,0,0,0-9.31-61.58c-2.47-11.68-7-17.49-11.78-20.33-.12-.07-.4-.33-.35-.21,7.54,19.23,23.46,139-43.28,111.74-.23-.09-.05.5-.07.74-.37,4.5-.56,9.23,1.58,13.18a14.31,14.31,0,0,0,9,7.07c7.18,1.69,39.38,1.69,46.57,0a14.31,14.31,0,0,0,9-7.07C134.24,152.3,133.91,147.27,133.5,142.55Z"/>
          <path class="a35c6202-6a39-4ea0-b16a-32b40c3b620f" d="M133.5,142.55c-.87-9.88-1.86-19.75-2.85-29.62-1.45-14.4-3.31-28.75-5.76-43l-.3-1.75c-1-5.63-4-22.5-3.25-16.83,3.88,30.55,5.53,57.47,5.53,76,0,26.08-14.14,32.31-25.31,33.87-14.63,2-28.8.83-27.87,1.3l.19.09a12.92,12.92,0,0,0,2.55.91c7.18,1.69,39.38,1.69,46.57,0a14.31,14.31,0,0,0,9-7.07C134.24,152.3,133.91,147.27,133.5,142.55Z"/>
          <path class="a19bb1ed-f622-4f71-a230-42fd6041c873" d="M81.65,53.32c-2.68,12-5.25,24-6.44,36.17a75.63,75.63,0,0,0-.45,9.63c.1,3.21-.53,9.9,4.77,12.09,2.73,1.13,6.85-.5,9.36-8.46,3.7-11.72,5-24.09,6.68-36.27,3.21-22.71.76-27.88-.43-29.13C93.17,35.25,85.84,34.69,81.65,53.32Z"/>
          <path class="b7c8fe13-406d-46d3-877a-7e9b4b8908b3" d="M86.7,44.05a29.57,29.57,0,0,0-1.3,3.06c-1,3.17-1.22,6.07-.39,6.57,2.34,1.42,4.8-5.92,5.13-7C91.38,42.81,88.13,40.88,86.7,44.05Z"/>
        </g>
        <g>
          <path class="a6826864-6d6e-46e9-93d5-2098f4c41c17" d="M183,131.88c0,6.15-2,14.23-15.59,21.54-12.6,6.77-20.47,7.81-23.85,3.94s-3.51-12.63-4.23-18c-1.84-13.9-4.18-34.47-5-41.32-1.43-11.81-3.4-24.88-7.24-44.73-1-4.93-2.48-10-1.45-14.88.73-3.43,2.64-6.67,5.27-8.28,6.75-3.87,15.73-1.54,21.59,3.58s9.24,12.47,12.14,19.69C175,79.18,183,106.5,183,131.88Z"/>
          <path class="aecc6dca-d549-4d4d-9dfa-187e72b6dddb" d="M183,131.88c0,6.15-2,14.23-15.59,21.54-12.6,6.77-20.47,7.81-23.85,3.94s-3.51-12.39-4.2-17.79c0-.08-.1-.25,0-.23,20.15,6.66,30.92-14.2,28.15-44-1.87-20.13-8.75-56.36-25.45-66.83,0,0,.07,0,.11,0l.42.09a22.85,22.85,0,0,1,9.93,5.05c5.86,5.13,9.24,12.47,12.14,19.69C175,79.18,183,106.5,183,131.88Z"/>
          <path class="a35c6202-6a39-4ea0-b16a-32b40c3b620f" d="M183,131.88c0,6.15-2,14.23-15.59,21.54a62.94,62.94,0,0,1-12.19,5.24,25.51,25.51,0,0,1-2.71.64l-.48.08c-1.79.28,18.13-6.46,22.7-23.63,4.91-18.48-3.71-57.68-10.1-82.35-.07-.24.18.47.28.7C175.16,79.67,183,106.73,183,131.88Z"/>
          <path class="a19bb1ed-f622-4f71-a230-42fd6041c873" d="M139.54,92.73c1.8,1.67,5.21,1.07,6-4.15a99.82,99.82,0,0,0-1.92-29.75c-1.48-6.66-3.77-13.43-8.34-18.49-2.42-2.67-6.93-4-5.39,7.71,1.27,9.64,3.2,16.18,4.21,22.08C137.88,92.64,139.06,92.29,139.54,92.73Z"/>
          <path class="b7c8fe13-406d-46d3-877a-7e9b4b8908b3" d="M131.88,50.91a18.76,18.76,0,0,1-.55-2.33c-.31-2.35-.07-4.37.62-4.58,2-.6,2.77,4.86,2.88,5.63C135.21,52.52,132.51,53.32,131.88,50.91Z"/>
        </g>
        <g>
          <path class="a6826864-6d6e-46e9-93d5-2098f4c41c17" d="M16.36,131.88c0,6.15,2,14.23,15.59,21.54,12.6,6.77,20.47,7.81,23.85,3.94s3.51-12.63,4.22-18c1.85-13.9,4.19-34.47,5-41.32,1.43-11.81,3.4-24.88,7.24-44.73,1-4.93,2.48-10,1.44-14.88C73,35,71.09,31.74,68.45,30.13c-6.74-3.87-15.72-1.54-21.58,3.58S37.63,46.18,34.73,53.4C24.39,79.18,16.39,106.5,16.36,131.88Z"/>
          <path class="aecc6dca-d549-4d4d-9dfa-187e72b6dddb" d="M16.36,131.88c0,6.15,2,14.23,15.59,21.54,12.6,6.77,20.47,7.81,23.85,3.94S59.31,145,60,139.57c0-.08.11-.25,0-.23-20.14,6.66-30.91-14.2-28.14-44C33.75,75.25,40.63,39,57.33,28.55c0,0-.08,0-.12,0l-.41.09a22.85,22.85,0,0,0-9.93,5.05C41,38.84,37.63,46.18,34.73,53.4,24.39,79.18,16.39,106.5,16.36,131.88Z"/>
          <path class="a35c6202-6a39-4ea0-b16a-32b40c3b620f" d="M16.36,131.88c0,6.15,2,14.23,15.59,21.54a62.94,62.94,0,0,0,12.19,5.24,25,25,0,0,0,2.71.64l.48.08c1.78.28-18.13-6.46-22.7-23.63-4.92-18.48,3.71-57.68,10.1-82.35.06-.24-.19.47-.28.7C24.24,79.67,16.39,106.73,16.36,131.88Z"/>
          <path class="a19bb1ed-f622-4f71-a230-42fd6041c873" d="M59.86,92.73c-1.8,1.67-5.21,1.07-6-4.15a99.82,99.82,0,0,1,1.92-29.75c1.48-6.66,3.77-13.43,8.34-18.49,2.42-2.67,6.93-4,5.39,7.71-1.27,9.64-3.2,16.18-4.21,22.08C61.51,92.64,60.34,92.29,59.86,92.73Z"/>
          <path class="b7c8fe13-406d-46d3-877a-7e9b4b8908b3" d="M67.51,50.91a20.78,20.78,0,0,0,.56-2.33c.31-2.35.07-4.37-.62-4.58-2-.6-2.78,4.86-2.88,5.63C64.18,52.52,66.89,53.32,67.51,50.91Z"/>
        </g>
      </g>
    </g>
  </g>
</svg>
