<svg id="befa5299-4f94-4294-9c2d-4294cf0b23fc" data-name="Layer 1" xmlns="http://www.w3.org/2000/svg" width="125" height="179" viewBox="0 0 125 179">
  <defs>
    <style>
      .ee05a8de-79ab-4ace-b9af-76afa44a4281 {
        opacity: 0.5;
      }

      .a8f7907e-7847-4295-8036-1f23b09f53b9 {
        fill: #fff;
      }

      .bc8c0ae1-44c1-4f9a-a15d-a07b484c42b7, .bf71590b-01f1-49f9-82ce-1033c7b1d2d5, .faf31835-b07d-428b-8f4c-63783442ab50 {
        fill: #d15227;
      }

      .bf71590b-01f1-49f9-82ce-1033c7b1d2d5, .faf31835-b07d-428b-8f4c-63783442ab50 {
        stroke: #812319;
        stroke-miterlimit: 10;
      }

      .bf71590b-01f1-49f9-82ce-1033c7b1d2d5 {
        stroke-width: 2px;
      }

      .b1181774-3c3b-4fc8-b8cc-df0a397fd3e5 {
        fill: #a33a23;
      }

      .b7767c74-5fd8-4987-a53b-e2018ae5e631 {
        fill: #e89c51;
        opacity: 0.47;
      }

      .ba0e7d92-27f0-455d-a84e-f30286e3179b {
        fill: #933020;
      }

      .f1ae9090-1074-4c72-9c6d-cb2cd5383b19 {
        fill: #d9e9d8;
      }

      .ae2a6912-9cbc-4b41-af5b-704fe6576ae7 {
        fill: #224922;
      }

      .ff519d46-ff6c-4a46-8c2b-f73e08f1b407 {
        fill: #542615;
      }

      .b3499688-dd14-48b4-aaac-22e81f8abcae {
        fill: #142515;
      }

      .bf2cdcfc-158b-40e4-9f09-46de2426e5f4 {
        fill: #213f1f;
      }

      .f896274c-2ba9-494b-9d47-dc100377a079 {
        fill: #e2f0e1;
      }
    </style>
  </defs>
  <g>
    <path class="ee05a8de-79ab-4ace-b9af-76afa44a4281" d="M106.39,177.21c-1,0-1.93,0-2.87-.1a23.18,23.18,0,0,1-3.41-.47c-.53-.12-1.06-.26-1.56-.42A14.11,14.11,0,0,1,95.72,175a10,10,0,0,1-1.28-.82c-.22-.16-.42-.32-.61-.48a10.3,10.3,0,0,1-3.59-6c0-.12,0-.28-.07-.44a9.81,9.81,0,0,1-.08-1.64c0-.69,0-1.36,0-2l0-.67c0-.53,0-1.06-.08-1.58l0-.69c-.05-.61-.1-1.22-.16-1.82l0-.26c-.08-.78-.16-1.48-.25-2.17l-.08-.55c-.07-.53-.15-1-.23-1.55,0,0-.12-.77-.13-.85-.7,0-1.39,0-2.07,0l-.21,0c-.66,0-1.3-.08-1.93-.14l-.57-.07c-.51,0-1-.11-1.56-.19l-.55-.09-.15,0c-.46-.07-.93-.16-1.4-.25l-.59-.13-.17,0c-.46-.1-.89-.21-1.33-.32l-.8-.21-1.25-.37-.84-.28c-.39-.13-.79-.27-1.18-.42l-.85-.33c-.36-.14-.75-.31-1.13-.48l-.84-.38c-.38-.19-.75-.37-1.11-.57l-.08,0c-.25-.12-.49-.25-.73-.38s-.73-.43-1.09-.65l-.14-.08-.62-.38c-.36-.24-.73-.49-1.09-.75l-.11-.08c-.2-.13-.39-.27-.57-.41-.39-.28-.75-.58-1.12-.88l-.11-.1-.16.29c-.24.42-.45.82-.65,1.22l-.18.37c-.09.19-.18.37-.26.56l-.18.4c-.08.18-.16.37-.23.56l-.16.39-.21.55-.34,1,0,.12c-.15.45-.28.87-.4,1.29l-.09.32c-.05.19-.09.36-.14.54l-.09.38c0,.15-.08.32-.12.49l-.07.35c0,.18-.07.35-.11.5l-.15.81,0,.26c0,.31-.09.6-.13.87l0,.3-.08.68-.07.62-.06.81,0,.9v.61a7.3,7.3,0,0,1-2.38,5.48,22.37,22.37,0,0,1-5,3.34c-.54.27-1.13.53-1.74.78-.83.34-1.71.65-2.61.93a31.58,31.58,0,0,1-5.93,1.22,23.35,23.35,0,0,1-2.44.14h-.08a16.79,16.79,0,0,1-3.21-.29c-4.86-1-6.93-4.41-7.25-7.29a9.93,9.93,0,0,1,2.37-7.62c2.65-3.11,7.18-4.63,11.1-5.39l0-.18c.09-.43.19-.84.28-1.24L44,150c.12-.54.25-1.06.38-1.58l.09-.35c.11-.42.21-.81.32-1.21,0,0,.32-1.19.42-1.52l.15-.52c.1-.36.44-1.47.44-1.47.3-1,.61-1.91.92-2.82,0,0,.36-1.05.48-1.37,0,0,.37-1,.48-1.32l.16-.43.39-1,.1-.27.48-1.2.47-1.14.66-1.51.46-1c.31-.68.61-1.33.9-1.94l.59-1.21.42-.82.33-.65-.1-.39c-.11-.48-.21-1-.3-1.52l0-.18c-.13-.82-.22-1.6-.28-2.36l-.37-.34-.24-.22c-.24-.23-.44-.44-.65-.65l-.26-.28c-.18-.18-.38-.42-.59-.66l-.17-.19c-.24-.29-.46-.58-.68-.86l-.09-.12c-.24-.33-.48-.68-.71-1l-.07-.11c-.2-.31-.38-.62-.56-.93l-.17-.31c-.13-.25-.27-.51-.39-.77s-.11-.23-.16-.35c-.14-.3-.25-.54-.34-.79l-.17-.41-.26-.75-.15-.48c-.07-.26-.14-.5-.2-.75s-.08-.31-.11-.47-.12-.55-.16-.81-.06-.31-.08-.46-.07-.58-.1-.87c0-.11,0-.26,0-.41,0-.43,0-.86,0-1.29,0-.28,0-.57,0-.85l-.22-.33c-.22-.33-.43-.66-.64-1l0-.07c-.12-.21-.25-.42-.36-.63l-.07-.12L42,106.41c-.19.2-.39.39-.6.58s-.35.29-.54.43A8.87,8.87,0,0,1,40,108c-.21.13-.43.25-.65.36s-.46.23-.87.39c-.22.09-.44.16-.66.23s-.57.17-.88.24l-.58.11c-.27,0-.55.08-.83.11l-.55,0H33.69l-.78-.07-.49-.06-.62-.11-.46-.09-.67-.16-.34-.09c-.61-.18-1.26-.39-1.93-.65l-.26-.11-.65-.26-.85-.38-.33-.16-.55-.27-.29-.15-.52-.27-.35-.19-.75-.42-.8-.47-.69-.42-.77-.48-1.3-.86-.92-.64a18.18,18.18,0,0,1-2.12.12,22.48,22.48,0,0,1-3.43-.27,8.28,8.28,0,0,1-5.4-2.7,9.62,9.62,0,0,1-2.31-5A12.08,12.08,0,0,1,4.93,89a10.66,10.66,0,0,1-.33-1.9,10.28,10.28,0,0,1,0-2.22,9.88,9.88,0,0,1,1.52-4.26A9.59,9.59,0,0,1,7.45,79a9.44,9.44,0,0,1,1.4-1.17,11,11,0,0,1,2.05-1.13,12,12,0,0,1,1.75-.6L13,76a8.67,8.67,0,0,1,1.81-3.26,9.07,9.07,0,0,1,12.62-1.3,8.3,8.3,0,0,1,2.77,9.48,6.67,6.67,0,0,0-.23.81c.14.65.25,1.35.34,2.1.05.47.1,1,.13,1.43l3.52,2.43,8.68-6.74.26-.37.55-.73.26-.33.53-.65.26-.3c.25-.29.5-.56.74-.82l0,0c.27-.28.53-.54.8-.8l.22-.21c-.29-.32-.58-.67-.87-1l-.3-.38c-.32-.42-.63-.83-.92-1.24l-.1-.14c-.31-.45-.61-.94-.94-1.48a3.72,3.72,0,0,1-.19-.34c-.26-.45-.48-.85-.69-1.26,0,0-.15-.29-.2-.4-.26-.54-.5-1.06-.71-1.59l-.12-.3c-.18-.46-.34-.91-.49-1.36-.06-.17-.11-.33-.16-.49-.14-.47-.27-.93-.39-1.41,0-.09-.06-.21-.09-.34-.13-.54-.24-1.12-.34-1.72,0-.15,0-.27-.06-.39-.07-.52-.13-1-.17-1.46,0-.2,0-.36,0-.51,0-.66-.07-1.26-.07-1.82s0-1.18.07-1.87c0-.17,0-.34,0-.51.05-.51.11-1,.19-1.52,0-.1,0-.22.05-.33.09-.59.22-1.19.36-1.8l.09-.34c.13-.53.27-1,.42-1.48.06-.18.09-.3.13-.41.21-.6.42-1.17.64-1.71l.08-.18c.19-.45.42-.94.68-1.48.07-.13.14-.26.2-.39.26-.49.52-1,.79-1.42l.11-.17c.25-.41.54-.87.88-1.35s.42-.68.66-1,.45-.64.68-1l.2-.27.53-.67.27-.32.51-.59.29-.3.39-.4h-.26a12.36,12.36,0,0,1-4.89-1.09,23.37,23.37,0,0,1-10.66-9.84,26.26,26.26,0,0,1-1.22-2.43,23.53,23.53,0,0,1-1.31-3.78,19,19,0,0,1-.47-2.62,14.88,14.88,0,0,1,.78-7.06A11.27,11.27,0,0,1,40.6,5.38h.09A16,16,0,0,1,44,5.76c4.29.94,8.26,3.49,11.79,7.59.6.71,1.19,1.46,1.76,2.24s1,1.49,1.55,2.28c.24.37.47.75.7,1.13.43.73.86,1.49,1.27,2.27A62.62,62.62,0,0,1,64,27.43c.24.6.46,1.17.65,1.69.33.88.59,1.64.79,2.23l.82-.1.66-.07L68,31.1l.48,0c.51,0,1,0,1.55,0,.69,0,1.41,0,2.21.08l.48,0c.68.05,1.38.13,2.06.22l.31.05c.68.11,1.32.22,2,.36l.32.06c.61.14,1.27.31,2,.52l.37.11c2.68-6.74,9.83-20.95,22.83-22.94a18.94,18.94,0,0,1,2.86-.22,15,15,0,0,1,4,.53A11.88,11.88,0,0,1,117,16.13c1.83,3.78,1.75,8.46-.21,13.2A23.67,23.67,0,0,1,103,42.48a13.84,13.84,0,0,1-4.48.81,10.64,10.64,0,0,1-3.69-.65c.2.25.39.5.58.76l.31.43c.19.27.38.55.56.83l.29.44c.19.31.37.62.55.93l.23.4c.2.36.4.74.58,1.13a2.12,2.12,0,0,1,.11.21c.23.48.44.95.63,1.43.05.11.1.24.15.37.13.35.27.71.39,1.07,0,.15.1.3.14.45l0,.08c.1.32.2.64.29,1s.1.37.14.56c.09.34.16.65.23,1s.08.41.12.6c.06.34.11.66.16,1v.07c0,.17,0,.34.07.52,0,.36.08.72.11,1.07s0,.36,0,.51c0,.56,0,1.09,0,1.61s0,1.11-.06,1.73c0,.15,0,.52,0,.52,0,.42-.08.83-.14,1.24,0,.17,0,.35-.08.53q-.1.67-.24,1.32c0,.13,0,.25-.08.36-.12.55-.26,1.1-.43,1.65,0,.13-.07.25-.11.36-.14.44-.28.84-.42,1.24-.07.17-.13.33-.19.49-.16.4-.32.8-.5,1.19l-.16.36c-.25.53-.5,1-.76,1.5l-.13.25c-.22.38-.46.79-.72,1.2l-.21.33c-.27.41-.51.76-.75,1.1l-.27.37c-.19.26-.39.51-.6.77l1.1.19,1,.19.66.13.91.2.68.15.83.2.66.16.8.2,1.38.37,1.27.36,1.17.35,1.11.35.93.3L108,79a9.76,9.76,0,0,1,3.61,2.21,9.66,9.66,0,0,1,3,6.4,20.53,20.53,0,0,1,0,2.6s0,.16,0,.22c-.06.73-.15,1.44-.27,2.16l-.07.4c-.12.63-.26,1.25-.42,1.87l-.14.54c-.16.56-.34,1.14-.54,1.71a36.32,36.32,0,0,1-1.38,3.41c-.15.33-.3.65-.46,1-.32.64-.64,1.27-1,1.87a1.28,1.28,0,0,0-.11.2,7.51,7.51,0,0,1,1.38,2.49,8,8,0,0,1-1,6.8c-.13.21-.27.42-.43.63l.79.83,2.19,2.36.65.67.62.63.56.54.3.27.24.21.52.45c5.34,4.26,8,8.42,8,12.71a9.48,9.48,0,0,1-2.26,6.33c-.27.37-.57.74-.89,1.14l-.3.37-.08.08c-.3.36-.61.71-.92,1l-.43.46c-.36.37-.72.73-1.09,1.08-.1.11-.2.2-.31.3-.44.41-.92.83-1.42,1.25l-.37.3-.08.06-1.06.82-.56.41c-.34.24-.7.49-1,.72l-.53.35c-.52.33-1,.65-1.57,1l-.46.25c-.38.22-.78.43-1.19.64l-.69.34c-.32.16-.67.33-1,.49l-.08,0-.62.27-.26.11q.12,1.09.24,2.22s.26,2.4.26,2.4c.1,1,.19,1.91.27,2.76,7.74,1.15,15.48,3.5,15.08,10.8-.18,3.41-2.54,9.12-16.25,9.12Z"/>
    <path class="a8f7907e-7847-4295-8036-1f23b09f53b9" d="M102.8,173.62c-1,0-1.93,0-2.87-.1a24.61,24.61,0,0,1-3.41-.47c-.53-.12-1.06-.26-1.56-.42a14.11,14.11,0,0,1-2.83-1.21,11.16,11.16,0,0,1-1.28-.82c-.22-.16-.42-.32-.61-.48a10.33,10.33,0,0,1-3.59-6c0-.12-.05-.29-.07-.44A9,9,0,0,1,86.5,162c0-.68,0-1.36,0-2l0-.68c0-.52-.05-1-.08-1.57l0-.69c0-.61-.09-1.22-.15-1.82l0-.26c-.07-.78-.16-1.48-.25-2.17l-.07-.56c-.08-.52-.15-1-.23-1.54,0,0-.12-.78-.14-.85-.69,0-1.38,0-2.07-.05l-.21,0c-.65,0-1.29-.08-1.92-.14l-.57-.07c-.51-.05-1-.12-1.56-.19l-.56-.1-.15,0L77,149l-.59-.13-.17,0-1.33-.32-.8-.21-1.25-.37-.85-.28q-.58-.19-1.17-.42L70,146.9l-1.13-.48L68,146l-1.12-.56-.08,0-.72-.38L65,144.4l-.13-.08c-.21-.13-.42-.25-.62-.39-.37-.23-.73-.49-1.09-.74l-.12-.08-.57-.41c-.38-.29-.74-.58-1.11-.88l-.12-.1s-.15.28-.15.28c-.24.42-.45.83-.65,1.23l-.18.37c-.09.18-.18.37-.26.56l-.18.4-.24.56-.15.39c-.07.18-.15.37-.21.55,0,0-.29.8-.34.95l0,.13c-.15.45-.27.87-.39,1.29l-.09.32c0,.19-.09.36-.14.54l-.09.38c0,.15-.08.32-.12.49l-.07.35c0,.18-.08.34-.11.5l-.15.81,0,.26c0,.31-.1.59-.13.87l0,.3-.08.67-.06.63-.06.8,0,.91v.42h0s0,.18,0,.2a7.33,7.33,0,0,1-2.38,5.47,22.07,22.07,0,0,1-5.05,3.35c-.54.27-1.13.53-1.74.78-.83.34-1.71.65-2.61.93a31.58,31.58,0,0,1-5.93,1.22,23.35,23.35,0,0,1-2.44.14H37a16.61,16.61,0,0,1-3.2-.29c-4.86-1-6.94-4.42-7.26-7.3a10,10,0,0,1,2.38-7.61c2.65-3.11,7.18-4.64,11.09-5.39l0-.18c.09-.43.18-.84.28-1.25l.08-.37c.12-.53.25-1.05.38-1.57l.09-.35c.1-.42.21-.82.31-1.21,0,0,.33-1.19.43-1.52l.15-.52c.1-.36.44-1.48.44-1.48.3-1,.6-1.9.92-2.82,0,0,.36-1,.48-1.36l.48-1.33.16-.42.38-1,.11-.27c.15-.4.32-.8.48-1.2l.47-1.14.65-1.52.47-1c.31-.69.61-1.33.9-1.94l.59-1.21.41-.82L49,123l-.1-.39c-.11-.48-.21-1-.31-1.52l0-.18a22.88,22.88,0,0,1-.28-2.36l-.37-.34-.24-.22c-.24-.23-.45-.44-.65-.65l-.27-.28c-.17-.18-.38-.42-.58-.66l-.17-.2c-.24-.29-.47-.57-.68-.85l-.09-.12c-.25-.33-.48-.68-.71-1l-.07-.11c-.2-.31-.39-.62-.56-.94-.06-.1-.12-.2-.17-.3l-.4-.77a3.73,3.73,0,0,0-.16-.35c-.13-.3-.24-.54-.34-.79l-.16-.42-.26-.75-.15-.47c-.08-.26-.14-.51-.2-.75L42,108.1c-.06-.29-.11-.55-.15-.81s-.06-.31-.08-.46-.08-.58-.1-.87c0-.12,0-.27,0-.42,0-.42-.05-.85-.05-1.28s0-.57,0-.85l-.22-.33c-.23-.33-.44-.66-.64-1l0-.07q-.2-.31-.36-.63a.75.75,0,0,1-.07-.12l-1.86,1.55a8.08,8.08,0,0,1-.6.57,5.75,5.75,0,0,1-.54.44,8.87,8.87,0,0,1-.86.59,7,7,0,0,1-.66.36c-.13.06-.45.23-.86.39l-.66.23c-.28.09-.57.17-.88.24l-.59.11-.82.11c-.17,0-.36,0-.55,0l-.53,0H30.1l-.79-.07-.48-.06-.63-.11-.45-.09-.67-.17-.34-.09c-.61-.17-1.26-.39-1.93-.64l-.26-.11c-.22-.08-.43-.17-.65-.27,0,0-.68-.29-.85-.38l-.33-.15-.55-.27-.3-.15-.51-.27-.35-.19-.75-.42-.8-.47-.69-.42-.77-.48-1.3-.86-.92-.64a18.4,18.4,0,0,1-2.13.11,22.61,22.61,0,0,1-3.42-.26,8.25,8.25,0,0,1-5.4-2.7,9.61,9.61,0,0,1-2.31-5,12.13,12.13,0,0,1-1.19-6.36A13,13,0,0,1,1,83.46a11,11,0,0,1,0-2.22,9.7,9.7,0,0,1,2.83-5.88,10.15,10.15,0,0,1,1.4-1.18,11.87,11.87,0,0,1,2-1.12,12.89,12.89,0,0,1,1.75-.6l.34-.08a8.39,8.39,0,0,1,1.81-3.26,9.08,9.08,0,0,1,12.61-1.31,8.28,8.28,0,0,1,2.77,9.48c0,.15-.13.45-.22.81.14.66.25,1.36.34,2.11.05.47.1,1,.13,1.42l3.51,2.44L39,77.33l.27-.37.55-.73.26-.33.53-.65.26-.3c.24-.29.49-.57.74-.83l0,0c.27-.28.53-.55.8-.8l.22-.21c-.29-.32-.58-.67-.87-1l-.3-.38c-.33-.42-.63-.83-.92-1.25a1,1,0,0,1-.1-.14c-.31-.45-.62-.93-.94-1.47l-.2-.34c-.25-.45-.47-.85-.68-1.26l-.2-.41c-.27-.53-.5-1.06-.72-1.58l-.11-.3c-.19-.47-.35-.91-.5-1.36,0-.18-.1-.33-.15-.49q-.22-.7-.39-1.41c0-.09-.06-.22-.09-.35-.13-.53-.25-1.12-.34-1.72,0-.14,0-.26-.06-.38-.08-.52-.13-1-.17-1.46,0-.2,0-.36-.05-.51,0-.67-.07-1.26-.07-1.83s0-1.17.08-1.86c0-.17,0-.34,0-.51,0-.51.11-1,.18-1.52,0-.1,0-.22,0-.34.1-.59.22-1.19.37-1.79,0-.11.05-.22.08-.34.14-.53.28-1,.43-1.49.06-.18.09-.29.13-.4.2-.61.41-1.17.64-1.71l.08-.18c.19-.45.42-1,.68-1.48l.2-.39c.26-.5.52-1,.79-1.42l.1-.17c.25-.42.55-.87.88-1.35s.43-.68.67-1,.45-.65.67-1l.21-.28.52-.66.27-.32.52-.59a4,4,0,0,1,.29-.3l.39-.4h-.26a12.4,12.4,0,0,1-4.9-1.09A23.34,23.34,0,0,1,28.29,25a26.36,26.36,0,0,1-1.23-2.43,23.82,23.82,0,0,1-1.3-3.78,19.55,19.55,0,0,1-.47-2.62,14.88,14.88,0,0,1,.78-7.06A11.27,11.27,0,0,1,37,1.79h.09a15.85,15.85,0,0,1,3.34.38c4.3.94,8.27,3.49,11.79,7.59.61.71,1.2,1.46,1.77,2.24s1,1.49,1.55,2.28l.7,1.13c.43.72.85,1.48,1.27,2.26a63.91,63.91,0,0,1,2.85,6.17c.24.6.46,1.17.65,1.69.33.88.59,1.64.78,2.23l.83-.1.65-.07c.36,0,.72-.06,1.08-.08l.49,0c.51,0,1,0,1.55,0,.68,0,1.41,0,2.21.08l.47,0c.68.06,1.39.13,2.06.23l.31,0c.69.1,1.33.22,2,.36l.31.06c.61.14,1.28.31,2,.52l.37.11C78.76,22.14,85.9,7.93,98.91,5.94a19,19,0,0,1,2.86-.23,14.62,14.62,0,0,1,4,.54,11.88,11.88,0,0,1,7.59,6.29c1.83,3.77,1.75,8.46-.21,13.19a23.66,23.66,0,0,1-13.8,13.15,13.62,13.62,0,0,1-4.48.81,10.64,10.64,0,0,1-3.69-.64c.19.25.39.5.57.75l.32.44c.19.26.37.54.56.82l.29.45c.19.31.37.62.55.93l.23.4c.2.36.39.74.58,1.12a2,2,0,0,0,.11.21c.23.49.44,1,.63,1.44,0,.11.1.24.15.37l.39,1.07c0,.15.1.3.14.44l0,.09c.1.32.2.63.28,1s.1.38.15.57.16.65.23,1l.12.6c.06.34.11.66.16,1v.06c0,.18,0,.35.07.52,0,.37.08.72.11,1.08s0,.36,0,.51c0,.56,0,1.08,0,1.6s0,1.12-.06,1.74c0,.15,0,.52,0,.52,0,.42-.09.83-.14,1.24,0,.16,0,.34-.08.53q-.11.66-.24,1.32c0,.13,0,.25-.08.36-.12.55-.27,1.1-.43,1.64,0,.14-.08.25-.11.37-.14.44-.28.84-.43,1.24l-.18.48c-.16.41-.32.81-.5,1.2l-.16.36c-.25.53-.5,1-.76,1.5-.05.1-.1.17-.14.24-.21.39-.46.8-.71,1.21l-.21.33c-.27.41-.51.75-.76,1.1l-.27.37c-.19.25-.38.51-.59.77l1.09.19,1,.18.67.14.91.2.68.15.82.19.66.17.81.2,1.37.37,1.27.36,1.17.35,1.11.34.94.31.84.28A9.84,9.84,0,0,1,108,77.57a9.69,9.69,0,0,1,3,6.4,20.54,20.54,0,0,1,0,2.6c0,.05,0,.16,0,.22-.06.73-.15,1.44-.27,2.15l-.07.4c-.12.63-.26,1.25-.42,1.88,0,.16-.09.35-.15.54-.15.56-.34,1.13-.53,1.71-.4,1.13-.86,2.28-1.38,3.41-.15.33-.31.65-.46,1-.32.64-.64,1.26-1,1.87l-.11.2a7.71,7.71,0,0,1,1.39,2.49,8,8,0,0,1-1,6.8l-.43.63.79.83,2.19,2.36.64.67.63.63.56.54.3.27.23.21.53.45c5.33,4.26,8,8.42,8,12.71a9.6,9.6,0,0,1-2.26,6.33c-.28.37-.57.74-.89,1.14l-.31.36-.07.09c-.3.36-.61.71-.92,1l-.43.45c-.36.38-.72.74-1.09,1.09l-.31.3c-.44.41-.92.83-1.42,1.24l-.37.31-.08.06-1.06.82-.56.4c-.34.25-.7.49-1.06.73l-.53.35c-.51.33-1,.65-1.56,1l-.46.25c-.38.21-.78.43-1.19.64l-.69.34-1,.49-.08,0-.62.28-.27.11c.09.73.17,1.47.25,2.22,0,0,.25,2.4.25,2.4.1,1,.2,1.9.28,2.75,7.73,1.16,15.48,3.51,15.08,10.81-.19,3.41-2.54,9.12-16.25,9.12Z"/>
    <g>
      <path class="a8f7907e-7847-4295-8036-1f23b09f53b9" d="M108,121.41c-4-3.21-7.47-8.47-13-12.3,1.06.08,1.79.08,1.79.08s5.72-4.15,4-4.82c-4.28-1.72-4.52,1.77-4.52,1.77l-1.47-1.88s9.51-10.78,8.94-19.84A2.6,2.6,0,0,0,102,82.15c-3.54-1.21-12.63-4-19.9-3.75a15.74,15.74,0,0,0-3.38-5.34c6.62-3.67,11-10.2,11-17.65a20,20,0,0,0-8.85-16.28c.47-1.05,1.07-2.44,1.83-4.24,6.78-16.06,16.1-21.59,19.14-18.71,4.82,4.53-3.3,11.49-3.3,11.49s2.34-4.73-.93-5c-5.91-.54-8.84,12.3-.67,9.46,11.3-3.93,15.2-20.93,3-19.06S81.73,34.37,81.73,34.37s-.79,2.27-1.43,4.32a25.31,25.31,0,0,0-13.9-4.06,25.7,25.7,0,0,0-9.48,1.78c-.62-2.23-1.59-5.28-1.59-5.28S49.71,11.55,38.91,9.19s-7.13,14.69,2.9,19.06c7.25,3.15,4.49-9.73-.72-9.43-2.88.17-.75,5-.75,5s-7.27-7.25-3.08-11.56c2.65-2.73,11,3.14,17.16,19.37.87,2.28,1.51,3.9,2,5a24.25,24.25,0,0,0-4.66,2.6,11.07,11.07,0,0,0-4.56,4.24c-.21.31-.4.6-.58.9a19,19,0,0,0-3.58,11c0,7.93,5,14.81,12.32,18.32-.71.5-1.52,1.11-2.36,1.83-1.93.17-5.15,1.41-8.66,6.76L30.59,93l-11-7.64a1.74,1.74,0,0,1,.05-.22A17.3,17.3,0,0,0,19,78.26a33.37,33.37,0,0,1,.87-3.42,1.15,1.15,0,0,0-.37-1.31,1.94,1.94,0,0,0-2.89.35,1.42,1.42,0,0,0-.33.75,7.77,7.77,0,0,0,0,2.58s-.6,2.39-1.5,3l-1.94-1S6.28,79,8.66,84.68c0,0-.74,3.43.9,4.47,0,0-.3,3.14,1.49,3.14,0,0,3.79.73,6.33-.47,2,1.55,12.83,9.84,16,5.82l11.89-10c-.07.33-.13.66-.17,1a14,14,0,0,0,4.07,12.59,10.72,10.72,0,0,0-.44,3c0,4.33,2.66,8.21,6.84,10.78a18,18,0,0,0,1.21,8.74,92.25,92.25,0,0,0-10.64,30.88s-13,.63-12.48,5.72c.26,2.34,11.21,1.27,16.37-3.38,0,0-.54-15.78,10.81-26.13a39.69,39.69,0,0,0,3.41,3.89c6.48,6.52,17,8.93,27,7.48a85.05,85.05,0,0,1,2.47,20s-.52,3.63,6.76,4.15c10.38.75,20.78-3.63-3.12-6.23,0,0-.67-8.85-2-18.71,7-1.8,13.29-5.56,17.3-11.17C112.65,130.24,115.77,127.64,108,121.41ZM83.62,85.29A52,52,0,0,1,97.06,87.5a38.91,38.91,0,0,1-3.38,9.74c-2.6,5.2-3,2.08-5.67,7a3,3,0,0,0-.39,1.26c-.33-.09-.66-.19-1-.27,0-.33,0-.66,0-1a10.82,10.82,0,0,0-1.47-5.41,13.38,13.38,0,0,0-3.08-4.27,23.41,23.41,0,0,0,1.44-9.3Z"/>
      <g>
        <g>
          <path class="bf71590b-01f1-49f9-82ce-1033c7b1d2d5" d="M54.82,75.73s-4.88-2-10.5,6.59L30.59,93,18.47,84.59s-3.26,4.19-1.4,7c0,0,12.82,10.48,16.31,6.06L52,82Z"/>
          <g>
            <path class="bf71590b-01f1-49f9-82ce-1033c7b1d2d5" d="M11.05,92.29s9.25,1.79,8.51-4.78a7.59,7.59,0,0,1,0-2.4A17.3,17.3,0,0,0,19,78.26a33.37,33.37,0,0,1,.87-3.42,1.15,1.15,0,0,0-.37-1.31,1.94,1.94,0,0,0-2.89.35,1.42,1.42,0,0,0-.33.75,7.77,7.77,0,0,0,0,2.58s-.6,2.39-1.5,3l-1.94-1S6.28,79,8.66,84.68c0,0-.74,3.43.9,4.47C9.56,89.15,9.26,92.29,11.05,92.29Z"/>
            <path class="bc8c0ae1-44c1-4f9a-a15d-a07b484c42b7" d="M9.11,84.53a6.44,6.44,0,0,1,6.78,0s1.43-1.79-1.41-4.33C14.48,80.2,6.72,77.66,9.11,84.53Z"/>
            <path class="bc8c0ae1-44c1-4f9a-a15d-a07b484c42b7" d="M9.26,84.08s-1,3.73.75,4.92c0,0-.45,2.39,1.34,3.14,0,0,3.13.89,5.22-.3,0,0,.85-2.41-.32-3.07,0,0,1.38-1.86-.64-4.69C15.61,84.08,11.8,81.54,9.26,84.08Z"/>
            <path class="b1181774-3c3b-4fc8-b8cc-df0a397fd3e5" d="M9.18,84.43s1.91-1.28,6.67,0c0,0,1.16-1.06-.55-3.39l-.82-.84s1.77,2.26,1.17,3.75C15.65,84,11.33,82.25,9.18,84.43Z"/>
            <path class="b1181774-3c3b-4fc8-b8cc-df0a397fd3e5" d="M10.6,91.84s4,.6,5.68-.15a4.7,4.7,0,0,0,0-2.92s1,.28.25,3.11a8.23,8.23,0,0,1-5.6.26S10.82,92.13,10.6,91.84Z"/>
            <path class="b1181774-3c3b-4fc8-b8cc-df0a397fd3e5" d="M19.33,73.75s-.74,4-1.34,4.93A16.58,16.58,0,0,1,18.88,85a6.72,6.72,0,0,0,0,2.53,3.4,3.4,0,0,1-2,4.19s3.27-.25,2.57-4.46a6.16,6.16,0,0,1,.15-2.37,21.79,21.79,0,0,0-.71-6.46A33.09,33.09,0,0,1,19.75,75C19.93,74.8,19.83,74.1,19.33,73.75Z"/>
            <path class="b7767c74-5fd8-4987-a53b-e2018ae5e631" d="M8.87,84.53s-1.24-5.14,4-4.84l1.62.65-1.35-.81a1.18,1.18,0,0,0-.61-.13C11.24,79.46,6.93,80.05,8.87,84.53Z"/>
            <path class="b7767c74-5fd8-4987-a53b-e2018ae5e631" d="M9.33,88.68a12.22,12.22,0,0,1,.08-4,13,13,0,0,1,5.73-.42,10.17,10.17,0,0,0-6,.18c-.31.13-.24.33-.28.66A5.48,5.48,0,0,0,9.33,88.68Z"/>
            <path class="b7767c74-5fd8-4987-a53b-e2018ae5e631" d="M11,92.08s-.82-.23-1-2.67c0,0,4.61.36,6.07-.56a40.14,40.14,0,0,0-6.3.32S9.54,92,11,92.08Z"/>
            <path class="b1181774-3c3b-4fc8-b8cc-df0a397fd3e5" d="M16.42,85.58s0,2.38-.59,2.68a17.09,17.09,0,0,1-6.12.44s-.57-.1-.6-.89c0,0-.22.59.76,1.35a38.66,38.66,0,0,0,6.38-.39A3.28,3.28,0,0,0,16.42,85.58Z"/>
            <path class="b7767c74-5fd8-4987-a53b-e2018ae5e631" d="M19.21,73.67s-2-.32-2.25.7a3.62,3.62,0,0,0-.16,2.89s-.23,2.94-2,3.25A4.76,4.76,0,0,0,16.5,77.2s-.43-2.71.46-3.31A1.55,1.55,0,0,1,19.21,73.67Z"/>
          </g>
        </g>
        <g>
          <path class="bf71590b-01f1-49f9-82ce-1033c7b1d2d5" d="M57.57,122.45a91.24,91.24,0,0,0-11.43,32.21s-13,.63-12.48,5.72c.26,2.34,11.21,1.27,16.37-3.38,0,0-.78-22.6,19-31.44S57.57,122.45,57.57,122.45Z"/>
          <path class="bf71590b-01f1-49f9-82ce-1033c7b1d2d5" d="M56,113.09s-3.78,9.57,8.24,21.67,38,10,48.4-4.52c0,0,3.12-2.6-4.68-8.83S94.43,101.15,71.84,105,56,113.09,56,113.09Z"/>
          <path class="ba0e7d92-27f0-455d-a84e-f30286e3179b" d="M79,123.28a3.58,3.58,0,0,1-2.48,6.52c-10.53-1.46-19.44-3.18-13.27,3,12,12.1,38.81,12,49.2-2.56,0,0,1.91-2.83-5.88-9.06S95.74,103,73.16,106.86C61,109,69,116.64,79,123.28Z"/>
          <ellipse class="bf71590b-01f1-49f9-82ce-1033c7b1d2d5" cx="67.7" cy="104.26" rx="18.97" ry="14.03"/>
          <path class="bf71590b-01f1-49f9-82ce-1033c7b1d2d5" d="M83.81,122.19a90.63,90.63,0,0,1,9.87,40s-.52,3.63,6.76,4.15c10.38.75,20.78-3.63-3.12-6.23,0,0-2.34-30.92-6.76-41.57"/>
          <path class="b1181774-3c3b-4fc8-b8cc-df0a397fd3e5" d="M86.15,103.22c0,7.75-8.49,14-19,14s13.25-5.24,13.25-13S56.71,89.19,67.18,89.19,86.15,95.47,86.15,103.22Z"/>
          <path class="bf71590b-01f1-49f9-82ce-1033c7b1d2d5" d="M58.09,72s-11.43,5.72-13,16.63,7.27,19.23,23.38,17.15,19-23.95,10.28-32.76S58.09,72,58.09,72Z"/>
          <path class="b1181774-3c3b-4fc8-b8cc-df0a397fd3e5" d="M51.8,76.62s14.6,10,24.47,4.51c0,0,4.48,16.74-17.14,23.13,0,0,19.3,3.51,22.86-12.47S74.44,71,74.44,71L58.09,72Z"/>
          <path class="bf71590b-01f1-49f9-82ce-1033c7b1d2d5" d="M80.49,78.52C88,77.69,98.22,80.85,102,82.15a2.6,2.6,0,0,1,1.76,2.27c.57,9.06-8.94,19.84-8.94,19.84l1.47,1.88s.24-3.49,4.52-1.77c1.67.67-4,4.82-4,4.82s-11.43,0-8.79-4.93,3.07-1.82,5.67-7a38.91,38.91,0,0,0,3.38-9.74,52,52,0,0,0-13.44-2.21,3,3,0,0,1-2.52-1.48C80,81.89,78.4,78.75,80.49,78.52Z"/>
          <g>
            <path class="faf31835-b07d-428b-8f4c-63783442ab50" d="M55.33,31.13S49.71,11.55,38.91,9.19s-7.13,14.69,2.9,19.06c7.25,3.15,4.49-9.73-.72-9.43-2.88.17-.75,5-.75,5s-7.27-7.25-3.08-11.56c2.65-2.73,11,3.14,17.16,19.37S55.33,31.13,55.33,31.13Z"/>
            <path class="faf31835-b07d-428b-8f4c-63783442ab50" d="M81.73,34.37S87.79,14.91,100,13s8.31,15.13-3,19.06c-8.17,2.84-5.24-10,.67-9.46,3.27.3.93,5,.93,5s8.12-7,3.3-11.49c-3-2.88-12.36,2.65-19.14,18.71S81.73,34.37,81.73,34.37Z"/>
            <ellipse class="bf71590b-01f1-49f9-82ce-1033c7b1d2d5" cx="66.4" cy="55.41" rx="23.38" ry="20.79"/>
            <g>
              <g>
                <path class="f1ae9090-1074-4c72-9c6d-cb2cd5383b19" d="M86.67,48.66c.84,5.53-.29,8.52-5,9.23s-8.48-4-9.32-9.49,0-8.64,4.67-9.36S85.82,43.13,86.67,48.66Z"/>
                <path class="ae2a6912-9cbc-4b41-af5b-704fe6576ae7" d="M86.67,48.66A19.87,19.87,0,0,1,86.94,52a7.33,7.33,0,0,1-.72,3.28,5,5,0,0,1-2.53,2.24,8.21,8.21,0,0,1-3.37.66,8,8,0,0,1-5.88-3.45,14,14,0,0,1-2.57-6.4,20.6,20.6,0,0,1-.25-3.43,7.7,7.7,0,0,1,.78-3.46,4.91,4.91,0,0,1,2.75-2.25,7.8,7.8,0,0,1,3.45-.43,8.38,8.38,0,0,1,5.57,3.67A14.36,14.36,0,0,1,86.67,48.66Zm0,0a13.5,13.5,0,0,0-2.6-6.14,8,8,0,0,0-5.52-3.29c-2.1-.07-4.55.72-5.41,2.61a7.1,7.1,0,0,0-.58,3.09,21.6,21.6,0,0,0,.29,3.28,14.32,14.32,0,0,0,2.3,6,7.41,7.41,0,0,0,5.2,3.46,8,8,0,0,0,3.23-.45,4.63,4.63,0,0,0,2.52-2A7.1,7.1,0,0,0,86.9,52,18.81,18.81,0,0,0,86.67,48.66Z"/>
              </g>
              <g>
                <ellipse class="ff519d46-ff6c-4a46-8c2b-f73e08f1b407" cx="79.42" cy="48.78" rx="4.82" ry="5.72" transform="translate(-6.46 12.55) rotate(-8.69)"/>
                <ellipse class="b3499688-dd14-48b4-aaac-22e81f8abcae" cx="79.37" cy="48.84" rx="2.4" ry="2.85" transform="translate(-6.46 12.55) rotate(-8.69)"/>
                <ellipse class="f1ae9090-1074-4c72-9c6d-cb2cd5383b19" cx="77.54" cy="46.84" rx="1.43" ry="1.75" transform="translate(-6.18 12.25) rotate(-8.69)"/>
              </g>
            </g>
            <g>
              <g>
                <path class="f1ae9090-1074-4c72-9c6d-cb2cd5383b19" d="M47.18,43.46C41.72,51.52,45.15,56,48.52,57s7.36-2.57,8.93-7.94,1.66-9-1.7-10S49.65,39.81,47.18,43.46Z"/>
                <path class="ae2a6912-9cbc-4b41-af5b-704fe6576ae7" d="M47.18,43.46a16.09,16.09,0,0,0-2.58,5.76,7.75,7.75,0,0,0,0,3.11A5.62,5.62,0,0,0,46,55a5.55,5.55,0,0,0,2.54,1.55,4.19,4.19,0,0,0,2.83-.24,9.83,9.83,0,0,0,4.24-4.18,20.83,20.83,0,0,0,2.13-5.81,15.32,15.32,0,0,0,.47-3.06,4.66,4.66,0,0,0-.7-2.87A4,4,0,0,0,54.88,39a5.46,5.46,0,0,0-3.07.27A10.77,10.77,0,0,0,47.18,43.46Zm0,0a11.45,11.45,0,0,1,4.58-4.31,5.89,5.89,0,0,1,3.16-.43,4.32,4.32,0,0,1,2.92,1.41,5.08,5.08,0,0,1,1,3.15,15.06,15.06,0,0,1-.31,3.23,31.24,31.24,0,0,1-.77,3.14,15,15,0,0,1-1.3,3,10.08,10.08,0,0,1-4.77,4.5,4.8,4.8,0,0,1-3.38.11,6.05,6.05,0,0,1-4-4.87,8.45,8.45,0,0,1,.19-3.21A17.65,17.65,0,0,1,47.18,43.46Z"/>
              </g>
              <g>
                <ellipse class="ff519d46-ff6c-4a46-8c2b-f73e08f1b407" cx="51.77" cy="48.16" rx="5.72" ry="3.57" transform="translate(-8.99 84.31) rotate(-73.68)"/>
                <ellipse class="b3499688-dd14-48b4-aaac-22e81f8abcae" cx="51.8" cy="48.22" rx="2.85" ry="1.78" transform="translate(-9.03 84.38) rotate(-73.68)"/>
                <ellipse class="f1ae9090-1074-4c72-9c6d-cb2cd5383b19" cx="53.5" cy="46.37" rx="1.75" ry="1.06" transform="translate(-6.03 84.68) rotate(-73.68)"/>
              </g>
            </g>
            <g>
              <path class="bf2cdcfc-158b-40e4-9f09-46de2426e5f4" d="M50.29,59.05s3.12,4.68,11.44,4.16a49.72,49.72,0,0,0,14.54-3.12S71.6,69.44,61.21,70,50.29,59.05,50.29,59.05Z"/>
              <path class="f896274c-2ba9-494b-9d47-dc100377a079" d="M52.37,61.65s5.72,4.67,18.81.76c.94-.28.6,0,.6,0s-1.74,3.4-9,5S52.37,61.65,52.37,61.65Z"/>
            </g>
          </g>
          <path class="b7767c74-5fd8-4987-a53b-e2018ae5e631" d="M53.62,94.52a2.27,2.27,0,0,0,1.6-.85c.53-.9-.33-2-1.23-2.51s-2-.93-2.39-1.9c-1.18-3,4.35-4.55,1.87-7.93-1.62-2.2-3.42-.89-4.78.84-1.53,1.92-3.49,5.75-3,8.25C46.52,95.26,49.72,95.33,53.62,94.52Z"/>
          <path class="b7767c74-5fd8-4987-a53b-e2018ae5e631" d="M61.25,48.84s-8.62,8.42-3.81,8.28S62.86,55.25,61.25,48.84Z"/>
        </g>
      </g>
    </g>
  </g>
</svg>
