<svg id="b8c602b7-8f79-457d-b609-475532e4dd3f" data-name="Layer 1" xmlns="http://www.w3.org/2000/svg" width="202.79" height="326.09" viewBox="0 0 202.79 326.09">
  <defs>
    <style>
      .a14f47ee-f8fb-4386-bd6c-40c856e9cae5 {
        opacity: 0.5;
      }

      .bdbd8720-a1d1-452a-a22c-40a542d7df39 {
        fill: #fff;
      }

      .aa8a58ce-9642-4caa-8f10-6411e3ce2bc1, .ae65840b-6c4b-45ca-bf8e-f470c8564a68, .b7571949-0e02-454d-ab51-1bd63f6df165, .b7b27fc9-25fe-471e-9f23-7a561a5358e0 {
        fill: #ffc658;
      }

      .aa8a58ce-9642-4caa-8f10-6411e3ce2bc1 {
        stroke: #b9812c;
      }

      .a8d538eb-e3f4-4f73-9b0f-1210abffe66a, .aa8a58ce-9642-4caa-8f10-6411e3ce2bc1, .abf1e762-982f-4faa-a778-d73bdd8db73e, .ae65840b-6c4b-45ca-bf8e-f470c8564a68, .b3077b3c-d564-40e7-a328-6e458d9de72f, .b7571949-0e02-454d-ab51-1bd63f6df165, .e332f6b7-f5a0-4fa5-9884-47230cae62c2 {
        stroke-miterlimit: 10;
      }

      .a8d538eb-e3f4-4f73-9b0f-1210abffe66a, .aa8a58ce-9642-4caa-8f10-6411e3ce2bc1, .abf1e762-982f-4faa-a778-d73bdd8db73e {
        stroke-width: 2px;
      }

      .b035d305-d79e-4b33-9df1-35788efd3192 {
        fill: #e2a942;
      }

      .a05f240f-248d-4da1-b930-88d6f131e1c0 {
        fill: #531515;
      }

      .b7571949-0e02-454d-ab51-1bd63f6df165 {
        stroke: #549141;
      }

      .a8d538eb-e3f4-4f73-9b0f-1210abffe66a, .b3077b3c-d564-40e7-a328-6e458d9de72f {
        fill: #ee4a88;
        stroke: #be1e60;
      }

      .abf1e762-982f-4faa-a778-d73bdd8db73e {
        fill: #e12a76;
        stroke: #901a4a;
      }

      .fc04d18a-46c6-49ea-9fa5-e6217dae7fff {
        fill: #c31d68;
      }

      .f7799219-58c3-4e50-9595-dc79fc95cdce {
        fill: #c01e68;
      }

      .ff176a4e-8171-4441-b211-35f4f6c990b7 {
        fill: #a91f60;
      }

      .e332f6b7-f5a0-4fa5-9884-47230cae62c2, .e5d2189f-640a-41af-b088-d72a580f240d {
        fill: #f5b1a3;
      }

      .a76ba993-37a2-43be-b85d-2c2f8f4946a0 {
        fill: #cd7b6e;
      }

      .a2ec8869-bd59-4aed-a3e2-306a3d9a120f {
        fill: #db6c53;
      }

      .ac3f7497-cdd9-4f04-b1a0-dba9457d16c9 {
        fill: #f9c0b2;
        opacity: 0.67;
      }

      .ab5bc59e-ea7f-4a95-805f-3e2c992a861a {
        fill: #361212;
      }

      .e332f6b7-f5a0-4fa5-9884-47230cae62c2 {
        stroke: #b67474;
        stroke-width: 0.75px;
      }

      .bb42b318-e206-491b-8484-f86969f34596 {
        fill: #ffe4b6;
      }

      .ecae52c9-c8be-48d8-884d-3d17ec18d2bd {
        fill: #bea2b5;
      }

      .e7a98256-25e9-4dcd-9090-d13a087e97da {
        fill: none;
      }

      .accb7b77-f66a-4c62-833a-461fb1f2073a {
        fill: #e82860;
      }

      .b065e5e5-d1ae-4fc8-8722-251c51871686 {
        fill: #e7ca54;
      }

      .b7578097-fce4-43e0-a587-5206e619d4f9 {
        fill: #a3c5e8;
      }

      .a9571212-8601-4608-af4f-0c4da4aaa947 {
        fill: #c3def2;
      }

      .ae65840b-6c4b-45ca-bf8e-f470c8564a68 {
        stroke: #ffc658;
        stroke-width: 0.5px;
      }
    </style>
  </defs>
  <g>
    <path class="a14f47ee-f8fb-4386-bd6c-40c856e9cae5" d="M64.46,321.77c-7.57,0-13.52-2.82-17.69-8.37-2.12-2.83-8.61-4.51-17.37-4.51-3.5,0-6.56.25-8.59.42-1.21.1-2,.16-2.74.16a9.36,9.36,0,0,1-3.29-18.2c8.68-3.32,15.68-10,20.82-20,1.64-8.48,3.26-21.65,5.12-36.8,1.15-9.36,2.34-19.05,3.69-29,.15-1.11.32-2.19.49-3.25,0-.24,0-.49.08-.73a10.78,10.78,0,0,1-1.53.12,9.94,9.94,0,0,1-4.6-1.14,10,10,0,0,1-7.58-8.62,10.35,10.35,0,0,1-.15-6.33v0c-.1-3.6,1.77-7,5.4-10,1.46-1.17,4.16-3.52,4.68-4a15.64,15.64,0,0,1,2.45-1.92l.12-.42c1-3.69,2.7-9.87,4.91-16.65.33-1,.64-1.94,1-2.86a18.94,18.94,0,0,1-3.41-10c-.33-6.78,2.06-12.86,4.9-18.45a14.05,14.05,0,0,1,.2-3.28l0-.2a24.54,24.54,0,0,1-.28-4.59c.11-3.22,1.28-6.33,2.8-10.06l.38-.94a18,18,0,0,1,.13-6.92A31.33,31.33,0,0,1,57,88.06L57,88A19,19,0,0,1,60.59,75.4a21.69,21.69,0,0,1,6-5.34,37,37,0,0,1,1-15.4,49,49,0,0,1,3.32-8.57c.07-.76.17-1.51.29-2.24a9.74,9.74,0,0,1-3.54-5.72l-.73-3.68a9.74,9.74,0,0,1,9.4-11.64A9.69,9.69,0,0,1,86,14.25a9.83,9.83,0,0,1,4.75,1.23l.06-.11a9.72,9.72,0,0,1,16.79-.8A9.73,9.73,0,0,1,122,21.35l.26,1.51h.42a9.74,9.74,0,0,1,9.53,11.66l-.72,3.61a9.75,9.75,0,0,1-4.09,6.16l.06.39a12.71,12.71,0,0,1,.64,3c2.62,5.83,4.72,13.27,3.14,20.36a22,22,0,0,1,6.54,5.15A18.92,18.92,0,0,1,142,85.57l0,.06a31.75,31.75,0,0,1,3.1,7,17.91,17.91,0,0,1,.52,6.91c.15.3.3.63.43.91,1.73,3.63,3.08,6.67,3.37,9.89a25,25,0,0,1,0,4.59c0,.07,0,.14,0,.2a17,17,0,0,1,.08,6.92c2.79,6,5.21,12.57,4.52,19.75a18.87,18.87,0,0,1-3.66,9.55c.11.34.21.69.32,1,2.07,6.81,3.63,13,4.57,16.7a.83.83,0,0,0,0,.15l.19.16a9.86,9.86,0,0,1,1,1,12,12,0,0,1,1.26,1.11c.5.49,3.21,2.94,4.6,4.1,3.58,3,5.37,6.47,5.2,10.07v0a10.39,10.39,0,0,1-.28,6.32,9.84,9.84,0,0,1-.85,2.93,10,10,0,0,1-6.91,5.53,9.81,9.81,0,0,1-4.41,1.05,7.63,7.63,0,0,1-.84,0c5.15,21.93,11.81,52,14.62,66.72,6.89,7,15.67,11.86,21.09,14.86s11.56,6.39,9.79,13.85a9.81,9.81,0,0,1-8.44,7.41,11.44,11.44,0,0,1-11,7.07h0c-2.61,0-5.6-.68-9.7-2.21a5.18,5.18,0,0,0-1.75-.38c-1.35,0-3.07,1.16-5.73,3.06-3.69,2.64-8.75,6.25-15.66,6.25a23.08,23.08,0,0,1-11.85-3.54,5.53,5.53,0,0,0-3-.94c-2.16,0-5.09,1.42-8.19,2.91-4.65,2.25-9.92,4.79-16.39,4.79a24.35,24.35,0,0,1-11.76-3.09,9.69,9.69,0,0,0-4.77-1c-3.57,0-8,1.05-12.21,2.08C74.48,320.56,69.44,321.77,64.46,321.77Z"/>
    <path class="bdbd8720-a1d1-452a-a22c-40a542d7df39" d="M58.65,316c-7.58,0-13.53-2.82-17.69-8.37-2.12-2.83-8.61-4.51-17.37-4.51-3.5,0-6.56.25-8.59.42-1.21.1-2,.16-2.75.16A9.36,9.36,0,0,1,9,285.46c8.68-3.32,15.68-10,20.81-20,1.65-8.48,3.27-21.65,5.13-36.8,1.15-9.37,2.33-19.05,3.69-29,.15-1.11.32-2.19.49-3.25,0-.25,0-.49.07-.73a10.55,10.55,0,0,1-1.52.11A9.9,9.9,0,0,1,33,194.7a10,10,0,0,1-6.75-5.58,9.69,9.69,0,0,1-.83-3,10.35,10.35,0,0,1-.15-6.33v-.05c-.1-3.59,1.77-7,5.39-9.95,1.46-1.17,4.17-3.52,4.69-4a16,16,0,0,1,2.45-1.91l.12-.43c1-3.68,2.7-9.86,4.91-16.64.32-1,.64-1.94,1-2.86a19,19,0,0,1-3.42-10c-.33-6.78,2.07-12.86,4.9-18.45a15.19,15.19,0,0,1,.2-3.28,1.23,1.23,0,0,0,0-.2,24.54,24.54,0,0,1-.28-4.59c.11-3.23,1.28-6.33,2.8-10.06l.38-.94a18,18,0,0,1,.13-6.92,31.15,31.15,0,0,1,2.69-7.18l0-.06a18.94,18.94,0,0,1,3.55-12.59,21.77,21.77,0,0,1,6-5.35,37,37,0,0,1,1-15.39,48.24,48.24,0,0,1,3.32-8.57c.07-.76.17-1.51.29-2.25a9.69,9.69,0,0,1-3.54-5.71l-.73-3.69A9.72,9.72,0,0,1,70.48,17a9.72,9.72,0,0,1,9.66-8.57,9.84,9.84,0,0,1,4.75,1.24L85,9.56a9.71,9.71,0,0,1,16.78-.8,9.72,9.72,0,0,1,14.42,6.78l.26,1.51h.41a9.73,9.73,0,0,1,9.54,11.65l-.72,3.62a9.79,9.79,0,0,1-4.09,6.16l.06.39a12.71,12.71,0,0,1,.64,3c2.61,5.82,4.71,13.27,3.14,20.36a22,22,0,0,1,6.54,5.15,18.92,18.92,0,0,1,4.26,12.37l0,.06a31.33,31.33,0,0,1,3.1,7,18.07,18.07,0,0,1,.52,6.9c.14.31.3.63.43.91,1.73,3.64,3.08,6.68,3.37,9.89a25.08,25.08,0,0,1,0,4.6,1.36,1.36,0,0,0,0,.2,17,17,0,0,1,.08,6.92c2.79,6,5.21,12.57,4.52,19.74a19,19,0,0,1-3.66,9.56c.11.34.21.69.32,1,2.07,6.81,3.63,13,4.57,16.7a.83.83,0,0,0,0,.15l.19.16a9.7,9.7,0,0,1,1,1,13.25,13.25,0,0,1,1.26,1.12c.5.49,3.21,2.94,4.6,4.1,3.57,3,5.37,6.47,5.2,10.07v0a10.34,10.34,0,0,1-.27,6.33,10,10,0,0,1-7.76,8.46,9.81,9.81,0,0,1-4.41,1.05,7.63,7.63,0,0,1-.84,0c5.15,21.93,11.81,52,14.62,66.72,6.89,7,15.67,11.86,21.09,14.86s11.56,6.39,9.79,13.85a9.83,9.83,0,0,1-8.44,7.41,11.44,11.44,0,0,1-11,7.07h0c-2.61,0-5.6-.68-9.7-2.21a5.28,5.28,0,0,0-1.75-.38c-1.36,0-3.07,1.16-5.73,3.06-3.69,2.64-8.75,6.25-15.66,6.25a23.12,23.12,0,0,1-11.86-3.54,5.51,5.51,0,0,0-3-.94c-2.16,0-5.09,1.42-8.19,2.91-4.65,2.24-9.92,4.79-16.39,4.79a24.32,24.32,0,0,1-11.76-3.09,9.71,9.71,0,0,0-4.77-1c-3.57,0-8,1.05-12.21,2.07C68.67,314.74,63.63,316,58.65,316Z"/>
    <g>
      <path class="aa8a58ce-9642-4caa-8f10-6411e3ce2bc1" d="M44.61,253.38c-1.33,1.37-6.56,30.92-32.32,40.76C8.6,295.55,38.79,289.2,48.4,302s31.72-5.8,46.59,2.33,24.83-12.29,39.6-3.5,18.64-11.65,33.49-6.11,4.55-4.84,15.14-5.25-31-10.76-38.49-40.32S44.61,253.38,44.61,253.38Z"/>
      <path class="b035d305-d79e-4b33-9df1-35788efd3192" d="M92.58,279.09c.63-2.3,2.38-4.67,4.76-4.62a6.73,6.73,0,0,1,3.89,1.92,107.39,107.39,0,0,1,11.65,11c2.79,3,5.68,6.43,9.7,7.38l-.76-14.3a2.88,2.88,0,0,1,.28-1.77,2.65,2.65,0,0,1,1.57-.94c5.69-1.58,11.63,1.19,16.66,4.28s10.16,6.7,16.06,7a2.8,2.8,0,0,0,2.36-.71c.89-1.12-.15-2.7-1.14-3.73q-6.29-6.48-12.86-12.68c6.32-.39,11.07,7.58,17.35,6.7-.73-2-2.58-3.42-4.33-4.68l-19.49-14a28.16,28.16,0,0,0-8-4.52,25.6,25.6,0,0,0-9.2-.56c-9,.64-17.82,2.15-26.68,3.66-10.15,1.73-11.6,8.93-10.09,18.21a47.58,47.58,0,0,0,2.39,8c1.45,4.18,2,8.75,3.74,12.78C94.26,292.59,91,284.8,92.58,279.09Z"/>
      <path class="b035d305-d79e-4b33-9df1-35788efd3192" d="M85.27,274.78a2.76,2.76,0,0,0-2.43.65c-9,6.24-12.74,18.42-22.16,24,1.18-4.82,3.65-9.22,5.57-13.8s3.32-9.64,2.23-14.49c-11.82,1.3-18.44,15.14-29.78,18.7A24.92,24.92,0,0,0,48.93,272c.32-3.68-.18-7.47.89-11a17.79,17.79,0,0,1,4.89-7.45c4.44-4.3,11.52-7.08,16.74-3.78,4.87,3.07,5.73,9.68,6.07,15.43a3.46,3.46,0,0,0,.88,2.53c.66.55,1.63.51,2.43.84A3.26,3.26,0,0,1,82.65,272a4.59,4.59,0,0,1-2.54,3.23"/>
      <path class="a05f240f-248d-4da1-b930-88d6f131e1c0" d="M115.86,61.74s-.81,4.72.43,6.16,5.67,2.1,8.53,5.49,1.77,7.37,2.18,8.74,2.54,4.21,3.35,7.15-.23,4.44.17,6.18,3.59,7,3.86,9.92-.44,3.78.17,6.07-.68,7.88-3.94,11.45-19.2,11.66-31.22,5.19S95,61.89,95,61.89s-1.77-32.16-1.47-32.17,11.12,7.67,11.12,7.67l6,2.46S119.21,52.74,115.86,61.74Z"/>
      <path class="a05f240f-248d-4da1-b930-88d6f131e1c0" d="M70.7,51.38a27.35,27.35,0,0,0-.4,13.45c.41,1.82.65,3.68.12,4.37-1.15,1.51-5.54,2.43-8.2,6S60.87,82.63,60.54,84s-2.3,4.35-2.94,7.33.48,4.43.18,6.18-3.19,7.18-3.29,10.13.66,3.75.18,6.06,1.12,7.84,4.59,11.21,19.83,10.55,31.46,3.41S91.3,62,91.3,62s-.07-32.21-.36-32.2-12.26,4-12.26,4l-1.86,5.35S73,43.17,70.7,51.38Z"/>
      <path class="b7571949-0e02-454d-ab51-1bd63f6df165" d="M77.46,90.14a8.18,8.18,0,0,0-7.28,3.76c-2.62,4.17-10.12,33.51-11.75,37.61s-3.36,7.82-6.72,18.12-5.43,19-5.94,20.21l-.51,1.23,4.49,1.51s5.71-13.75,8-17.5S64.47,141.39,65.6,137s1.32-4.46,3.59-10.55,8.24-22.27,9.27-29.18S77.46,90.14,77.46,90.14Z"/>
      <path class="b3077b3c-d564-40e7-a328-6e458d9de72f" d="M71.47,88.2a21.05,21.05,0,0,0-8.67,9.12c-3.26,6.53-6.4,17-8.5,20.94s-4.88,9.59-4.61,15.15,4.78,9.69,12.12,10,13-2.19,13.79-11.26a259.06,259.06,0,0,1,4-26.39c1.1-5.29,2.59-10.19,1.85-11.36S71.47,88.2,71.47,88.2Z"/>
      <path class="b7571949-0e02-454d-ab51-1bd63f6df165" d="M111.43,89.31a8.18,8.18,0,0,1,7.2,3.89c2.53,4.23,9.44,33.72,11,37.85s3.2,7.88,6.35,18.25,5.05,19.08,5.54,20.32l.48,1.25-4.52,1.42s-5.43-13.87-7.62-17.66-6.47-13.82-7.51-18.23-1.23-4.48-3.38-10.62-7.79-22.43-8.68-29.36S111.43,89.31,111.43,89.31Z"/>
      <path class="b3077b3c-d564-40e7-a328-6e458d9de72f" d="M119.33,88.92a21,21,0,0,1,8.23,9.52c2.95,6.68,5.59,17.23,7.5,21.32s4.43,9.81,3.89,15.34-5.22,9.46-12.57,9.47-12.93-2.8-13.25-11.9a258.3,258.3,0,0,0-2.71-26.54c-.85-5.35-2.11-10.31-1.32-11.44S119.33,88.92,119.33,88.92Z"/>
      <path class="abf1e762-982f-4faa-a778-d73bdd8db73e" d="M60.17,165.24S51.27,175.67,47.81,201c-3.68,26.93-6.29,53.49-9.11,67.38-1.43,7-5.29,9.71-5.29,11.07,0,4.6,15.41-7.28,15.6-5.81s-2.18,11.52,4.63,11.52S68,276.91,73.1,276.91s6.86,7,13.73,7.91,11.84-7.91,16.25-8.09,18.72,8.25,23.07,6.64,4.08-8.81,7.34-8.09,19.79,5.76,21.19,6.05c18.35,3.79-2.06-8.64.46-9.2,1.3-.29-19.32-92.52-22.63-101.35S105.2,142.09,90,143.19,60.17,165.24,60.17,165.24Z"/>
      <path class="fc04d18a-46c6-49ea-9fa5-e6217dae7fff" d="M108,167.89s3,26.62,4.55,40.83S118,263.9,119,263.9s-4.34-64.87-5.51-76.7S112,167.89,112,167.89Z"/>
      <path class="fc04d18a-46c6-49ea-9fa5-e6217dae7fff" d="M75.93,171.26s-3.52,26.62-5.29,40.83-6.42,55.18-7.55,55.18,5.06-64.87,6.42-76.7,1.77-19.31,1.77-19.31Z"/>
      <path class="fc04d18a-46c6-49ea-9fa5-e6217dae7fff" d="M97.48,157s.44,32.67-1.33,46.88-.33,69.89-1.45,69.89S89.84,188,91.2,176.21,92.83,157,92.83,157Z"/>
      <path class="fc04d18a-46c6-49ea-9fa5-e6217dae7fff" d="M123.13,173.41c.14.41,9,45.66,9.1,43.73s-5.93-43.73-5.93-43.73Z"/>
      <path class="f7799219-58c3-4e50-9595-dc79fc95cdce" d="M84,92.52s-6,2.67-6.16,3.8-.14,6.9-.73,8.13a16.35,16.35,0,0,0-1.33,7.92c.44,3,4.56,5.64,4.7,6.47s1.51,7.51,1.39,12.37-2.63,13.72-2.63,13.72,3.23,3.46,13.1,2.58,16-4.47,16.38-5.08-3-3.81-2.62-11.07a58.5,58.5,0,0,1,2.33-13.1c.35-1.23,4.08-1.75,5-6.41.7-3.69-.27-9.64-.12-10.38.88-4.16.13-9.57-.89-10.23s-8.13-2.95-8.8-2.76-5.27,6.06-5.27,6.06l-8.58,3.14Z"/>
      <path class="ff176a4e-8171-4441-b211-35f4f6c990b7" d="M81.59,118a13.2,13.2,0,0,0,4.75.11,36.68,36.68,0,0,1,7.77-.11c.8.1,4.51,1.73,8.74,1.16s6.46-2.53,5.53-2.62-13,1.27-15.43.88S76.74,115.47,81.59,118Z"/>
      <path class="e5d2189f-640a-41af-b088-d72a580f240d" d="M98.77,85.52c-.82-2,.23-8.07.23-8.07l-4.54,1.4-4-2.49s-.5,6.12-1.8,7.86a52.23,52.23,0,0,1-5.14,5.13,16.56,16.56,0,0,1,3.67,4.77c1.81,3.29,4.16,9,4.16,9a47.45,47.45,0,0,1,5-6.76c2.57-2.72,7.58-7.41,7.58-7.41S99.59,87.53,98.77,85.52Z"/>
      <path class="a76ba993-37a2-43be-b85d-2c2f8f4946a0" d="M94.56,78.12l-4.22-.93-.54.44s1.06,3.4,4.33,3.84h0A4.58,4.58,0,0,0,98.78,79L99,77.45Z"/>
      <path class="e5d2189f-640a-41af-b088-d72a580f240d" d="M109.43,56.6s1-1.92,2.61-1.93,1.79,3.14.35,6.07c-1.59,3.22-3.34,3.48-3.61,2.28S109.43,56.6,109.43,56.6Z"/>
      <path class="a76ba993-37a2-43be-b85d-2c2f8f4946a0" d="M110.26,58.42s1-2.92,1.87-2.86.84,2.59.35,3.93a8.77,8.77,0,0,1-.75,1.71,18.46,18.46,0,0,0,.75-3c.09-1-.33-2.08-.8-1.52a2.6,2.6,0,0,0-.5,1.56,11.85,11.85,0,0,1-.08,2.84c-.22.9-1.23.85-1.41-.26A4.2,4.2,0,0,1,110.26,58.42Z"/>
      <path class="e5d2189f-640a-41af-b088-d72a580f240d" d="M90.9,35C73.24,36.58,74.74,51.17,76.59,59.57s4.63,11.91,9.06,15.74a19.09,19.09,0,0,0,7.57,4,4.86,4.86,0,0,0,3.15-.2,16.83,16.83,0,0,0,6.38-4.92c3.7-4.54,6.13-8.91,6.5-17.5S108.55,33.49,90.9,35Z"/>
      <path class="e5d2189f-640a-41af-b088-d72a580f240d" d="M76.24,58.4s-1.37-1.72-2.9-1.45-1.22,3.4.71,6c2.12,2.9,3.89,2.85,4,1.63S76.24,58.4,76.24,58.4Z"/>
      <path class="a76ba993-37a2-43be-b85d-2c2f8f4946a0" d="M75.74,60.34s-1.53-2.71-2.34-2.5-.37,2.7.34,3.93a8.91,8.91,0,0,0,1,1.56,19.45,19.45,0,0,1-1.27-2.83c-.26-1,0-2.11.53-1.64a2.52,2.52,0,0,1,.76,1.45,12,12,0,0,0,.57,2.77c.38.85,1.36.63,1.35-.49A4.18,4.18,0,0,0,75.74,60.34Z"/>
      <g>
        <path class="a2ec8869-bd59-4aed-a3e2-306a3d9a120f" d="M94.8,67a5.5,5.5,0,0,1-1.21.52,5.6,5.6,0,0,1-1.29-.3c-.48-.22-.83-.14-.76.27s.85.39,1.07.6a1.82,1.82,0,0,0,1.07.53,1.77,1.77,0,0,0,1-.71c.18-.24,1-.36,1-.78S95.23,66.71,94.8,67Z"/>
        <path class="ac3f7497-cdd9-4f04-b1a0-dba9457d16c9" d="M92.57,67.12a2.09,2.09,0,0,0,1.1.12c.59-.09,1-.39.87-.56S92,66.54,92.57,67.12Z"/>
      </g>
      <path class="a05f240f-248d-4da1-b930-88d6f131e1c0" d="M96.89,52.29a34.92,34.92,0,0,1,5.64-1.77c1.31-.06,3.44,1.26,3.68,1.24s-1.42-2.57-3.92-2.64-5.72,1.38-5.83,1.81S96.27,52.53,96.89,52.29Z"/>
      <path class="a05f240f-248d-4da1-b930-88d6f131e1c0" d="M87.93,53.08s-4.55-.93-5.85-.76-3.18,1.83-3.41,1.85,1-2.78,3.4-3.28,5.87.37,6.06.77S88.59,53.2,87.93,53.08Z"/>
      <g>
        <path class="bdbd8720-a1d1-452a-a22c-40a542d7df39" d="M80.48,58.87a7.17,7.17,0,0,0,.37,2.05,4.25,4.25,0,0,0,3.88,1.74c2.15-.23,2.59-.59,3-.86s.78-.56.81-1.1-.48-4.37-4-4.71S80.19,57.93,80.48,58.87Z"/>
        <path class="a05f240f-248d-4da1-b930-88d6f131e1c0" d="M81.76,59.14a2.61,2.61,0,1,1,2.83,2.37A2.62,2.62,0,0,1,81.76,59.14Z"/>
        <path class="a2ec8869-bd59-4aed-a3e2-306a3d9a120f" d="M87.71,61.84s0-.06,0,0a5.49,5.49,0,0,1-3.8.55,4.26,4.26,0,0,1-3.14-1.75,0,0,0,0,0,0,0c.08.46.56,1.77,3.12,2.18S87.4,62.21,87.71,61.84Z"/>
        <path class="bdbd8720-a1d1-452a-a22c-40a542d7df39" d="M85,58.21a.61.61,0,0,1,.56-.67.62.62,0,1,1,.11,1.23A.62.62,0,0,1,85,58.21Z"/>
        <path class="ab5bc59e-ea7f-4a95-805f-3e2c992a861a" d="M88.22,59.23a4,4,0,0,0-3.52-2.55c-3-.39-4,1.42-4.11,1.74a2.33,2.33,0,0,0-.11.47,7.7,7.7,0,0,1-1.21-.84c-.41-.4-.42-.5-.42-.5s1-2.43,5.22-2.3C86.39,55.32,88.29,57.58,88.22,59.23Z"/>
      </g>
      <g>
        <path class="bdbd8720-a1d1-452a-a22c-40a542d7df39" d="M105.13,56.71a7,7,0,0,1,0,2.08,4.26,4.26,0,0,1-3.52,2.39c-2.16.15-2.65-.13-3-.33s-.87-.42-1-.94-.29-4.4,3.09-5.33S105.25,55.73,105.13,56.71Z"/>
        <path class="a05f240f-248d-4da1-b930-88d6f131e1c0" d="M103.92,57.2A2.61,2.61,0,1,0,101.55,60,2.6,2.6,0,0,0,103.92,57.2Z"/>
        <path class="a2ec8869-bd59-4aed-a3e2-306a3d9a120f" d="M98.53,60.89s0-.06,0,0a5.55,5.55,0,0,0,3.84-.12,4.27,4.27,0,0,0,2.78-2.27,0,0,0,0,1,0,0c0,.47-.25,1.84-2.7,2.69S98.9,61.2,98.53,60.89Z"/>
        <path class="bdbd8720-a1d1-452a-a22c-40a542d7df39" d="M103.37,56.61a.62.62,0,0,0-.67-.57.62.62,0,1,0,.1,1.24A.62.62,0,0,0,103.37,56.61Z"/>
        <path class="ab5bc59e-ea7f-4a95-805f-3e2c992a861a" d="M97.58,58.41a4,4,0,0,1,3-3.13c2.85-.9,4.21.71,4.35,1a2.73,2.73,0,0,1,.19.45,7.65,7.65,0,0,0,1-1c.34-.46.33-.56.33-.56s-1.41-2.23-5.55-1.36C98.7,54.24,97.22,56.8,97.58,58.41Z"/>
      </g>
      <path class="e332f6b7-f5a0-4fa5-9884-47230cae62c2" d="M137.18,171.73l-.11.25a8.06,8.06,0,0,0-.39,3.26c.23,1.46.74,3.11,1,4.47s.57,3.5.78,4,.8.55,1.23-.12.11-2.47,0-3.07-.31-1.84.24-1.81,2.66,2.25,3.4,3a45.06,45.06,0,0,0,4.22,3.85c1,.78,1.86,1.18,2.2.7s-.3-1.34-.9-1.87-4-3.59-4-3.94,5.43,4.66,6.17,5.09,2-.2.74-1.67-5.25-5.24-5.18-5.48,4.72,4.28,5.34,4.74,1.29-.09.71-1.22-4.79-4.74-4.89-5.22.93.4,1.91,1.26,2.3,2,2.74,1.72-.24-1.43-1.77-2.71-4.47-3.94-5.2-4.67a29.41,29.41,0,0,0-4.06-2.75l-.22-.33c-.41-.64-1.15-.29-1.89.07l-.81.39C137.61,170.06,136.86,170.62,137.18,171.73Z"/>
      <path class="e332f6b7-f5a0-4fa5-9884-47230cae62c2" d="M50.06,172l.1.26a8,8,0,0,1,.33,3.26c-.26,1.46-.8,3.1-1.1,4.45s-.65,3.49-.86,4-.81.54-1.23-.14-.07-2.47.08-3.07.35-1.83-.2-1.81-2.71,2.2-3.47,3a43.94,43.94,0,0,1-4.29,3.76c-1.06.76-1.88,1.15-2.21.66s.32-1.34.94-1.86,4.09-3.5,4.08-3.86-5.52,4.55-6.27,5-2-.24-.71-1.69,5.36-5.13,5.29-5.37-4.8,4.19-5.44,4.63-1.28-.11-.68-1.23,4.89-4.65,5-5.12-.94.38-1.94,1.22-2.34,2-2.77,1.66.26-1.42,1.82-2.67,4.56-3.85,5.3-4.56a28.49,28.49,0,0,1,4.11-2.67l.22-.32c.43-.63,1.16-.27,1.9.1l.8.4C49.66,170.36,50.4,170.92,50.06,172Z"/>
      <path class="b7b27fc9-25fe-471e-9f23-7a561a5358e0" d="M70.88,88.79s1.32,14.59,22.29,15.56,26-14.55,26.16-15.43-.18-1.23-3-1.43-6.48-1.84-7-1.91a15.68,15.68,0,0,0-3.79-.26,29.57,29.57,0,0,0-4.19.49,7.9,7.9,0,0,1-2.51-.29s-1.41,3.47-6,3.26S88.38,86,88,85s-2.13-.58-3.09-.28a7.82,7.82,0,0,1-3.7.75,37.6,37.6,0,0,0-4.69.13,13.94,13.94,0,0,0-3.66.93l-2,.25Z"/>
      <path class="bb42b318-e206-491b-8484-f86969f34596" d="M72.84,86.52s1.59,14.18,19.79,16.2,24.89-15.11,24.89-15.11l-1.22-.12A22.93,22.93,0,0,1,93.68,102C76.14,101.56,74.05,86.1,74.05,86.1Z"/>
      <path class="bb42b318-e206-491b-8484-f86969f34596" d="M81.19,85.46s2.12,7.48,12.24,7.75,11.25-7.83,11.25-7.83l-.89.08s-.75,7.35-10.66,7.06c-8.81-.25-11.07-7.09-11.07-7.09Z"/>
      <path class="a8d538eb-e3f4-4f73-9b0f-1210abffe66a" d="M106.09,135.4s14,6.53,19,15.34,11,30.82,12.49,39.95c.09.56-20.22,2-32.66-12.15-10.78-12.23-5.63-20.75-5.63-20.75s-7.69,21-22,27.45-28.39,9.51-27.66,7.86,5.66-49.82,32-58.24A98.9,98.9,0,0,0,106.09,135.4Z"/>
      <path class="b7571949-0e02-454d-ab51-1bd63f6df165" d="M136.34,169.43l.27.64.39,1.7-.41,1.42a27.66,27.66,0,0,1,4.8,1.35,29.61,29.61,0,0,1,3.83,2.7,29.27,29.27,0,0,1-1.27-4.08,10.4,10.4,0,0,0-.25-2.43,16,16,0,0,1-2.56-2.35"/>
      <path class="b7571949-0e02-454d-ab51-1bd63f6df165" d="M50.66,170.41a6.18,6.18,0,0,0-.2,3.2,9,9,0,0,0-3.71.67,30.31,30.31,0,0,0-5.33,3.14s2.43-3.42,2.82-4.91a8.62,8.62,0,0,0,.38-2.19,3.38,3.38,0,0,0,1.6-1.9"/>
      <path class="ecae52c9-c8be-48d8-884d-3d17ec18d2bd" d="M115,101.79s3.19,21.69,3.05,25.49-1.45,6.53.32,11.45,8,5.2,8,5.2-5.21-5.31-5.41-10.16a112.53,112.53,0,0,0-2.67-18.85C116.81,108.62,115,101.79,115,101.79Z"/>
      <path class="ecae52c9-c8be-48d8-884d-3d17ec18d2bd" d="M118.65,95.8s6.44,23.28,7.16,28.71-.37,8.5.87,13.29,3.54,5.69,3.54,5.69,3.23-2.9.26-12.86S118.65,95.8,118.65,95.8Z"/>
      <path class="ecae52c9-c8be-48d8-884d-3d17ec18d2bd" d="M71.12,94.87S64.68,118.15,64,123.58s.37,8.5-.88,13.29-3.54,5.69-3.54,5.69-3.23-2.9-.25-12.86S71.12,94.87,71.12,94.87Z"/>
      <path class="ecae52c9-c8be-48d8-884d-3d17ec18d2bd" d="M122.79,93.41s5.56,8.46,7.39,17.17,7.14,15.53,7.7,23.11-4.41,8.58-4.41,8.58,3.46-2.21,1.05-12.21-4.55-16.6-6.24-23.15A69.37,69.37,0,0,0,122.79,93.41Z"/>
      <path class="ecae52c9-c8be-48d8-884d-3d17ec18d2bd" d="M76.58,102.06s-5,21.34-5.19,25.14.9,6.63-1.28,11.38-7.38,4.26-7.38,4.26,4.56-4.61,5.17-9.42a113.27,113.27,0,0,1,4.24-18.56C74.16,108.7,76.58,102.06,76.58,102.06Z"/>
      <path class="ecae52c9-c8be-48d8-884d-3d17ec18d2bd" d="M69.48,93.05s-6.25,8-8.81,16.48-8.42,14.88-9.61,22.38,3.94,9,3.94,9-3.54-2.58-.29-12.35,5.92-16.15,8.16-22.53A69.39,69.39,0,0,1,69.48,93.05Z"/>
      <path class="e7a98256-25e9-4dcd-9090-d13a087e97da" d="M45.61,266.68a4.73,4.73,0,0,0-2.42,1"/>
      <path class="b7b27fc9-25fe-471e-9f23-7a561a5358e0" d="M106.09,135.4S97,191.1,49.27,191.23l-.9,5.82s47.56,5.87,57.72-61.65Z"/>
      <path class="b7b27fc9-25fe-471e-9f23-7a561a5358e0" d="M97.44,163.25s7.2,27.85,39.8,26.87l1.29,7.12s-31.38,2.81-41.6-31Z"/>
      <path class="a05f240f-248d-4da1-b930-88d6f131e1c0" d="M92.08,38.39S77,42.57,76.59,59.57c0,0-9.52-28.36,9.06-33.23,22.55-5.92,28,9.85,27,20.29a24.91,24.91,0,0,1-3.08,10.08S113.29,44.59,92.08,38.39Z"/>
      <path class="accb7b77-f66a-4c62-833a-461fb1f2073a" d="M87.71,69.07c0,.24,5.24,1.74,5.24,1.74l.18.2a.63.63,0,0,0,.9,0l.08-.07a1.55,1.55,0,0,1,.5-.31l5-1.9s-2.92,2-4.08,2.63a4.08,4.08,0,0,1-3.15.35C90.33,71.4,87.71,69.07,87.71,69.07Z"/>
      <path class="accb7b77-f66a-4c62-833a-461fb1f2073a" d="M91.53,72.28c-.18-.21,1.53,2.39,2.93,1.34a9.47,9.47,0,0,0,1.59-1.34C95.86,72.28,93.26,74.33,91.53,72.28Z"/>
      <g>
        <path class="b065e5e5-d1ae-4fc8-8722-251c51871686" d="M113,43a2.78,2.78,0,0,1,0,.58c-.32-2-2.32-3.8-5.41-5.14l-.69-.29a29,29,0,0,0-5-1.44l-.84-.16c-.67-.12-1.37-.22-2.08-.31C98,36.11,97,36,96,36c-.81,0-1.64-.06-2.48-.06-.57,0-1.14,0-1.69,0-1,0-2.06.11-3,.21-.57.06-1.14.13-1.7.21l-.7.12A31.43,31.43,0,0,0,80.67,38c-.27.1-.53.2-.78.31A11,11,0,0,0,74.76,42c.49-1.69,2.17-3.22,4.67-4.43.24-.12.49-.23.76-.34a28.29,28.29,0,0,1,6.18-1.79l.69-.12.49-.08,1.09-.14c1.06-.13,2.16-.22,3.29-.27l1,0h2c.37,0,.74,0,1.09,0,1.13,0,2.23.15,3.28.28l1,.14.68.11c.27,0,.54.09.8.15a26.77,26.77,0,0,1,5.85,1.76c.22.1.44.19.65.3C111.2,39,113,40.91,113,43Z"/>
        <path class="b065e5e5-d1ae-4fc8-8722-251c51871686" d="M98.58,23.94c-2.28-.23-4.4,2.38-4.74,5.83v0a8.75,8.75,0,0,0,0,2.05,7,7,0,0,0,1,2.92A4.07,4.07,0,0,0,96,36c1,.05,2,.14,2.89.25a4.09,4.09,0,0,0,1.33-1,6,6,0,0,0,.78-1.05,8.4,8.4,0,0,0,1.06-3.06l.06-.51C102.47,27.15,100.87,24.16,98.58,23.94Zm.67,11.16a2.51,2.51,0,0,1-1.71.5A2.62,2.62,0,0,1,96,34.82a5.63,5.63,0,0,1-1.29-4.43c.25-2.69,1.95-4.74,3.78-4.56s3.11,2.51,2.86,5.2A5.58,5.58,0,0,1,99.25,35.1Z"/>
        <path class="b065e5e5-d1ae-4fc8-8722-251c51871686" d="M107.4,28.05c-1.83-.64-4,.69-5.32,3.08a9,9,0,0,0-.66,1.48,8.52,8.52,0,0,0-.4,1.58,9.24,9.24,0,0,0-.1,1.16,7.56,7.56,0,0,0,.07,1.18l.84.16a5.12,5.12,0,0,1-.11-1.19,6.78,6.78,0,0,1,.38-2.12c.88-2.56,3-4.14,4.74-3.52s2.43,3.19,1.56,5.75a6.89,6.89,0,0,1-.83,1.65,5.65,5.65,0,0,1-.72.87l.69.29a6.43,6.43,0,0,0,.68-.86,9,9,0,0,0,1.07-2.17C110.42,32.11,109.57,28.82,107.4,28.05Z"/>
        <path class="b065e5e5-d1ae-4fc8-8722-251c51871686" d="M87.1,36.36a7.83,7.83,0,0,0,0-1.07c0-.27-.07-.55-.13-.84a7.77,7.77,0,0,0-.36-1.29,8.39,8.39,0,0,0-.93-1.9h0c-1.36-2.09-3.39-3.21-5.1-2.59-2.16.8-3,4.09-1.81,7.37a8,8,0,0,0,.7,1.51,6.89,6.89,0,0,0,.46.73c.25-.11.51-.21.78-.31a5.41,5.41,0,0,1-.48-.76,5.75,5.75,0,0,1-.45-1c-.91-2.55-.24-5.13,1.49-5.76s3.87.92,4.78,3.47a7.69,7.69,0,0,1,.36,1.51,6.41,6.41,0,0,1,0,1.07Z"/>
        <path class="b065e5e5-d1ae-4fc8-8722-251c51871686" d="M88.64,35.07a2.66,2.66,0,0,0,1.86.49,2.55,2.55,0,0,0,1.43-.76C90.8,34.85,89.7,34.94,88.64,35.07Zm5.2-5.3a1,1,0,0,0,0-.16c-.49-3.44-2.72-6-5-5.64s-3.74,3.4-3.25,6.84c0,.15,0,.3.07.44h0a8.27,8.27,0,0,0,1.29,3.19,6,6,0,0,0,.62.76,4.37,4.37,0,0,0,1.25.94l3-.21a4.13,4.13,0,0,0,1.07-1.16,6.85,6.85,0,0,0,1-2.92A9.17,9.17,0,0,0,93.84,29.77Zm-1.91,5c-1.13.05-2.23.14-3.29.27a5.69,5.69,0,0,1-2.12-3.89c-.38-2.69.79-5.08,2.62-5.34s3.6,1.7,4,4.38A5.52,5.52,0,0,1,91.93,34.8Z"/>
        <g>
          <g>
            <path class="b065e5e5-d1ae-4fc8-8722-251c51871686" d="M93.43,20.47l-2-2.79a.43.43,0,0,1,0-.46l1.76-3.37a.42.42,0,0,1,.75,0l1.76,3.26a.43.43,0,0,1,0,.41l-1.56,2.92A.42.42,0,0,1,93.43,20.47Z"/>
            <ellipse class="b7578097-fce4-43e0-a587-5206e619d4f9" cx="93.57" cy="17.3" rx="1.11" ry="1.79"/>
            <ellipse class="a9571212-8601-4608-af4f-0c4da4aaa947" cx="93.57" cy="16.77" rx="0.78" ry="1.26"/>
          </g>
          <ellipse class="b065e5e5-d1ae-4fc8-8722-251c51871686" cx="93.79" cy="25.22" rx="0.22" ry="5.92"/>
        </g>
        <g>
          <g>
            <path class="b065e5e5-d1ae-4fc8-8722-251c51871686" d="M104.4,23.24l-1-3.29a.42.42,0,0,1,.11-.44l2.74-2.62a.42.42,0,0,1,.71.24l.63,3.65a.42.42,0,0,1-.13.4l-2.39,2.25A.43.43,0,0,1,104.4,23.24Z"/>
            <ellipse class="b7578097-fce4-43e0-a587-5206e619d4f9" cx="105.53" cy="20.27" rx="1.78" ry="1.11" transform="translate(53.31 114.19) rotate(-71.8)"/>
            <ellipse class="a9571212-8601-4608-af4f-0c4da4aaa947" cx="105.71" cy="19.78" rx="1.26" ry="0.78" transform="matrix(0.31, -0.95, 0.95, 0.31, 53.9, 114.02)"/>
          </g>
          <ellipse class="b065e5e5-d1ae-4fc8-8722-251c51871686" cx="103.23" cy="27.85" rx="5.91" ry="0.22" transform="translate(44.01 116.88) rotate(-71.47)"/>
        </g>
        <g>
          <g>
            <path class="b065e5e5-d1ae-4fc8-8722-251c51871686" d="M112.63,31.58l.28-3.42a.44.44,0,0,1,.26-.37l3.49-1.42a.43.43,0,0,1,.58.49l-.72,3.63a.42.42,0,0,1-.27.32l-3,1.21A.43.43,0,0,1,112.63,31.58Z"/>
            <ellipse class="b7578097-fce4-43e0-a587-5206e619d4f9" cx="114.75" cy="29.24" rx="1.77" ry="1.11" transform="translate(19.53 99.64) rotate(-50.77)"/>
            <ellipse class="a9571212-8601-4608-af4f-0c4da4aaa947" cx="115.09" cy="28.85" rx="1.25" ry="0.79" transform="translate(19.96 99.76) rotate(-50.77)"/>
          </g>
          <path class="b065e5e5-d1ae-4fc8-8722-251c51871686" d="M110.05,35.59c-2.08,2.5-2.32,2.29-2.41,2.21s0,0,2.08-2.5a39.61,39.61,0,0,1,3.93-4.38A40,40,0,0,1,110.05,35.59Z"/>
        </g>
        <g>
          <g>
            <path class="b065e5e5-d1ae-4fc8-8722-251c51871686" d="M74.82,31.54l-.28-3.42a.47.47,0,0,0-.27-.37l-3.49-1.42a.42.42,0,0,0-.57.49l.72,3.63a.43.43,0,0,0,.26.32l3,1.21A.43.43,0,0,0,74.82,31.54Z"/>
            <ellipse class="b7578097-fce4-43e0-a587-5206e619d4f9" cx="72.69" cy="29.21" rx="1.11" ry="1.77" transform="translate(-2.09 52.56) rotate(-39.23)"/>
            <ellipse class="a9571212-8601-4608-af4f-0c4da4aaa947" cx="72.35" cy="28.81" rx="0.79" ry="1.25" transform="translate(-1.91 52.25) rotate(-39.23)"/>
          </g>
          <path class="b065e5e5-d1ae-4fc8-8722-251c51871686" d="M77.39,35.55c2.08,2.5,2.33,2.29,2.42,2.21s0,0-2.08-2.5a38,38,0,0,0-3.94-4.38A40,40,0,0,0,77.39,35.55Z"/>
        </g>
        <g>
          <g>
            <path class="b065e5e5-d1ae-4fc8-8722-251c51871686" d="M82.41,24.16l-2.86-1.83a.42.42,0,0,1-.2-.41l.37-3.8a.42.42,0,0,1,.69-.29l2.84,2.33a.47.47,0,0,1,.16.39l-.35,3.29A.43.43,0,0,1,82.41,24.16Z"/>
            <ellipse class="b7578097-fce4-43e0-a587-5206e619d4f9" cx="81.34" cy="21.17" rx="1.11" ry="1.78" transform="translate(-2.08 31.41) rotate(-21.59)"/>
            <ellipse class="a9571212-8601-4608-af4f-0c4da4aaa947" cx="81.16" cy="20.68" rx="0.78" ry="1.26" transform="translate(-1.92 31.31) rotate(-21.59)"/>
          </g>
          <ellipse class="b065e5e5-d1ae-4fc8-8722-251c51871686" cx="84.51" cy="28.42" rx="0.22" ry="5.91" transform="translate(-4.49 33.68) rotate(-21.97)"/>
        </g>
      </g>
      <circle class="b7b27fc9-25fe-471e-9f23-7a561a5358e0" cx="109.66" cy="66.93" r="1.14"/>
      <circle class="b7b27fc9-25fe-471e-9f23-7a561a5358e0" cx="76.81" cy="68.14" r="1.11"/>
      <line class="ae65840b-6c4b-45ca-bf8e-f470c8564a68" x1="109.66" y1="62.9" x2="109.66" y2="66.18"/>
      <line class="ae65840b-6c4b-45ca-bf8e-f470c8564a68" x1="76.58" y1="64.54" x2="76.81" y2="69.25"/>
    </g>
  </g>
</svg>
