<svg id="bc42577f-9c1f-448f-b059-a278c8d714f6" data-name="Layer 1" xmlns="http://www.w3.org/2000/svg" width="294.64" height="234.3" viewBox="0 0 294.64 234.3">
  <defs>
    <style>
      .e8c02e5d-9ecd-4782-b3ce-15dbf4b1073d {
        opacity: 0.5;
      }

      .e22665da-9c9d-42bc-bd10-ebe4b5b4e350 {
        fill: #fff;
      }

      .b500c728-ed52-46eb-a5c4-64d532f5b6b4 {
        fill: #bfbfbf;
      }

      .a733cb51-ac9e-4ace-b14a-a35cfcd55d62 {
        fill: #9c9c9c;
      }

      .a7f47146-3f8d-4f1f-b703-7d52ecf08ead {
        fill: #515151;
      }

      .feb38e72-d8ac-460b-884b-b6dbcf770f79 {
        fill: #37363b;
      }

      .b45f9497-9a23-49a9-be57-6f034cafa35b {
        fill: #1e1d22;
      }

      .bac7eebe-b66d-4970-8bd6-7787db4e3e5d {
        fill: #e2e2e2;
      }

      .f9e82ea2-e460-4c46-a691-47f539539378 {
        fill: #bfbbbb;
      }

      .a32bc88d-0723-429d-85bb-ba5d210f9903 {
        fill: #676565;
      }

      .a35890fd-e2d3-437c-9cfd-53002196ca08 {
        fill: #c5c6c4;
      }

      .edf58614-9e02-4f5d-affb-b704b1af8967 {
        fill: #323232;
      }

      .b574dec0-ccf8-4457-81b7-6960dd7d81b8 {
        fill: #703100;
      }

      .f685f645-7dd2-41c8-9bf9-ce0529bf704c {
        fill: #542000;
      }

      .e1ec5bf3-8ec2-4e6f-bea5-f66ee305e6c0 {
        opacity: 0.3;
      }

      .b479fa8d-1a25-45d4-af88-07d36d9064be {
        fill: #231103;
      }

      .b34ce5f0-30b2-4474-b2c5-fada1ca1a70a {
        fill: #383838;
      }

      .f6a8fd2d-b22f-44d2-be32-b35abff5af97 {
        fill: #6d0004;
      }

      .f22e86d7-95c2-4c48-a8b5-0298c4bf0e0b {
        fill: #370002;
      }

      .f4993993-0002-40bc-aed6-a2bda40a562b {
        fill: #ff7676;
      }

      .ef6361e2-d2c3-4e37-a58d-67f221acfdc8 {
        fill: #e55757;
      }

      .ba8d33a7-0dfc-4f0d-accf-4c30d9c767e1 {
        fill: #bf2028;
      }

      .bfac31c5-62d6-4c32-9d1a-b3fe09db367c {
        fill: #ff999a;
      }

      .bfcff3e5-ff13-40e9-95c6-a9a9ae435fa1 {
        fill: #ea7572;
      }
    </style>
  </defs>
  <g>
    <path class="e8c02e5d-9ecd-4782-b3ce-15dbf4b1073d" d="M154.74,230l-1.76,0-.62,0-1.36-.08-.39,0-.9-.07-1.36-.13-1.43-.17h-.06c-.79-.11-1.56-.23-2.29-.37L144,229l-.33-.07-1-.23-.11,0c-2.6-.65-6.29-1.92-8.31-5.42l0-.07-.3-.07-.45-.12c-.31-.08-.69-.19-1.05-.31l-.39-.14c-.4-.14-.77-.3-1.12-.46l-.4-.19c-.41-.2-.81-.43-1.2-.67l-.23-.14a11.88,11.88,0,0,1-3.81-4,10.89,10.89,0,0,1-.93-2.14l-.11-.36c-.06-.2-.12-.41-.16-.61a14.76,14.76,0,0,1,.91-8.7c.17-.42-.35-2.66-.66-4s-.73-3.14-1-5.08c-.15-.88-.28-1.66-.41-2.38a74.38,74.38,0,0,1-1.2-15.73,57.78,57.78,0,0,0-1.53-11.87A78.7,78.7,0,0,1,100,138.92a68.77,68.77,0,0,1-2.84-7.75,68.12,68.12,0,0,1-10.91-2.68,36.37,36.37,0,0,0-4.05-1.12c-.94.29-1.93.66-3,1a34.54,34.54,0,0,1-11.4,2.7h-.59c-5.59,0-8.56-2.45-10.06-4.51C54.61,123.07,55,119,55.63,116.3A41.43,41.43,0,0,1,25,100.09C12.79,84.34,9.19,64.24,14.9,43.49c.34-1.21,1-3.51,1.46-5.62a9.94,9.94,0,0,1-4.31-6.34,10.33,10.33,0,0,1,.39-5.72,11.12,11.12,0,0,1-2-6.91c.32-5.55,5.1-9.58,11.38-9.58,2.14,0,9.6.63,15.68,8.78,6.2,8.33,5.59,15.37,4.88,23.52-.13,1.51-.27,3.07-.38,4.81-.67,10.4-.08,15.43,2.16,18.57a4,4,0,0,0,3.16,2,7,7,0,0,0,3.83-1.71c3.12-2.44,6-6.15,9.14-10.07A88.51,88.51,0,0,1,71.39,42.92,38.87,38.87,0,0,1,77,38.87a8,8,0,0,1,2.59-4.18l.68-.58a18.84,18.84,0,0,1,2.76-2,8,8,0,0,1,4.58-4.71l.89-.35a22.56,22.56,0,0,1,5.35-1.42A8,8,0,0,1,100,22.73a7.91,7.91,0,0,1,2.44.38l.89.29a23.61,23.61,0,0,1,12.12,9.07l.84.19a24.46,24.46,0,0,1,9.32-1.82c8.7,0,12.33,5.82,13.92,9.59q1-.06,2.13-.06a51.72,51.72,0,0,1,15.69,2.71l.11,0c9.47,3.16,14,11.88,17.29,18.26.35.69.7,1.37,1.05,2,.53,1,1.18,2,1.87,3,11.82-3.79,22.68-5.71,32.33-5.71a64.45,64.45,0,0,1,11.44,1c14.77,2.7,27.9,11.42,37,24.56a68.47,68.47,0,0,1,12,40.68c.17,1.51.3,3,.44,4.55.59,6.58,1.13,12.72,4.87,20.47.49,1,.9,1.92,1.26,2.78,2.91,2,5.3,5.47,6.9,10,2.19,6.26,2.26,14.08,2.26,14.95a14.12,14.12,0,0,0,.19,2.53l.14.14a8,8,0,0,1-2.71,13.52,21.87,21.87,0,0,1-2.51,5.35l-.44.66a8,8,0,0,1-2.18,2.15,18.3,18.3,0,0,1-6.53,6.82l-.78.47A8,8,0,0,1,260,201.21l.37-.83c1.12-2.48,1.12-2.48-1-7-.67-1.39-1.4-3-2.21-4.83-5.36-12.52-.25-20.75,2.21-24.7l.26-.41c-.24-.37-.47-.74-.69-1.12a136.32,136.32,0,0,1-8.15,11.87l-.55.73a109.7,109.7,0,0,0,5.32,17c3.4,8.23,5.67,22.78-2,29.11a5.58,5.58,0,0,1-.69.51c-.24.16-.54.34-.8.48a25.76,25.76,0,0,1-3,1.28,6.09,6.09,0,0,1-.75.28l-.36.12-.44.13c-.82.24-1.64.46-2.44.64l-.62.12c-.77.16-1.46.28-2.14.38l-1,.13c-.92.12-1.77.2-2.59.26l-.42,0c-1.14.06-2.17.09-3.12.09s-1.85,0-2.8-.07l-1-.05-.32,0c-7.08-.49-11-1.74-13.21-2.9l-.7.09c-.33,0-.71.09-1.08.12l-.53.05a6.82,6.82,0,0,1-.79.07h-.19l-.75,0h-.33l-.56,0h-.28l-.54,0A31.22,31.22,0,0,1,201.91,221c-.5-.18-1-.38-1.44-.59l-.24-.11a8,8,0,0,1-4.38-9.56l.07-.24c.1-.34.19-.7.28-1l.05-.25c.07-.29.12-.52.16-.75l.06-.32c0-.23.07-.45.1-.66l0-.28c.5-4.31-.84-7.89-2.71-12.84-.38-1-.77-2.05-1.16-3.12a67,67,0,0,1-2.53-9.58l-1.45,0a58.51,58.51,0,0,1-13.06-1.5c-.18.62-.36,1.28-.55,2-1.92,6.84-.89,18.2.09,22.76a16.56,16.56,0,0,0,1,2.91,18.82,18.82,0,0,1,1.68,9.16c-.24,3.28-2,9.08-11.14,11.61-.26.09-.52.16-.79.23l-.35.08c-.78.18-1.64.34-2.71.49l-.76.11-.87.11-1.15.12-.71.06q-.93.07-1.95.12h-.08c-.75,0-1.55,0-2.38,0Z"/>
    <path class="e22665da-9c9d-42bc-bd10-ebe4b5b4e350" d="M149.74,225l-1.76,0-.62,0-1.36-.08-.39,0-.9-.07-1.36-.13-1.43-.17h-.06c-.79-.11-1.56-.23-2.29-.37L139,224l-.33-.07-1-.23-.11,0c-2.6-.65-6.29-1.92-8.31-5.42l0-.07-.3-.07-.45-.12c-.31-.08-.69-.19-1-.31l-.39-.14c-.4-.14-.77-.3-1.12-.46l-.4-.19c-.41-.2-.81-.43-1.2-.67l-.23-.14a11.88,11.88,0,0,1-3.81-4,10.89,10.89,0,0,1-.93-2.14l-.11-.36c-.06-.2-.12-.41-.16-.61a14.76,14.76,0,0,1,.91-8.7c.17-.42-.35-2.66-.66-4s-.73-3.14-1-5.08c-.15-.88-.28-1.66-.41-2.38a74.38,74.38,0,0,1-1.2-15.73,57.78,57.78,0,0,0-1.53-11.87A78.7,78.7,0,0,1,95,133.92a68.77,68.77,0,0,1-2.84-7.75,68.12,68.12,0,0,1-10.91-2.68,36.37,36.37,0,0,0-4.05-1.12c-.94.29-1.93.66-3,1a34.54,34.54,0,0,1-11.4,2.7h-.59c-5.59,0-8.56-2.45-10.06-4.51C49.61,118.07,50,114,50.63,111.3A41.43,41.43,0,0,1,20,95.09C7.79,79.34,4.19,59.24,9.9,38.49c.34-1.21,1-3.51,1.46-5.62a9.94,9.94,0,0,1-4.31-6.34,10.33,10.33,0,0,1,.39-5.72,11.12,11.12,0,0,1-2-6.91c.32-5.55,5.1-9.58,11.38-9.58,2.14,0,9.6.63,15.68,8.78,6.2,8.33,5.59,15.37,4.88,23.52-.13,1.51-.27,3.07-.38,4.81-.67,10.4-.08,15.43,2.16,18.57a4,4,0,0,0,3.16,2,7,7,0,0,0,3.83-1.71c3.12-2.44,6-6.15,9.14-10.07A88.51,88.51,0,0,1,66.39,37.92,38.87,38.87,0,0,1,72,33.87a8,8,0,0,1,2.59-4.18l.68-.58a18.84,18.84,0,0,1,2.76-2,8,8,0,0,1,4.58-4.71l.89-.35a22.56,22.56,0,0,1,5.35-1.42A8,8,0,0,1,95,17.73a7.91,7.91,0,0,1,2.44.38l.89.29a23.61,23.61,0,0,1,12.12,9.07l.84.19a24.46,24.46,0,0,1,9.32-1.82c8.7,0,12.33,5.82,13.92,9.59q1-.06,2.13-.06a51.72,51.72,0,0,1,15.69,2.71l.11,0c9.47,3.16,14,11.88,17.29,18.26.35.69.7,1.37,1.05,2,.53,1,1.18,2,1.87,3,11.82-3.79,22.68-5.71,32.33-5.71a64.45,64.45,0,0,1,11.44,1c14.77,2.7,27.9,11.42,37,24.56a68.47,68.47,0,0,1,12,40.68c.17,1.51.3,3,.44,4.55.59,6.58,1.13,12.72,4.87,20.47.49,1,.9,1.92,1.26,2.78,2.91,2,5.3,5.47,6.9,10,2.19,6.26,2.26,14.08,2.26,14.95a14.12,14.12,0,0,0,.19,2.53l.14.14a8,8,0,0,1-2.71,13.52,21.87,21.87,0,0,1-2.51,5.35l-.44.66a8,8,0,0,1-2.18,2.15,18.3,18.3,0,0,1-6.53,6.82l-.78.47A8,8,0,0,1,255,196.21l.37-.83c1.12-2.48,1.12-2.48-1-7-.67-1.39-1.4-3-2.21-4.83-5.36-12.52-.25-20.75,2.21-24.7l.26-.41c-.24-.37-.47-.74-.69-1.12a136.32,136.32,0,0,1-8.15,11.87l-.55.73a109.7,109.7,0,0,0,5.32,17c3.4,8.23,5.67,22.78-2,29.11a5.58,5.58,0,0,1-.69.51c-.24.16-.54.34-.8.48a25.76,25.76,0,0,1-3,1.28,6.09,6.09,0,0,1-.75.28l-.36.12-.44.13c-.82.24-1.64.46-2.44.64l-.62.12c-.77.16-1.46.28-2.14.38l-1,.13c-.92.12-1.77.2-2.59.26l-.42,0c-1.14.06-2.17.09-3.12.09s-1.85,0-2.8-.07l-1-.05-.32,0c-7.08-.49-11-1.74-13.21-2.9l-.7.09c-.33,0-.71.09-1.08.12l-.53.05a6.82,6.82,0,0,1-.79.07h-.19l-.75,0h-.33l-.56,0h-.28l-.54,0A31.22,31.22,0,0,1,196.91,216c-.5-.18-1-.38-1.44-.59l-.24-.11a8,8,0,0,1-4.38-9.56l.07-.24c.1-.34.19-.7.28-1l.05-.25c.07-.29.12-.52.16-.75l.06-.32c0-.23.07-.45.1-.66l0-.28c.5-4.31-.84-7.89-2.71-12.84-.38-1-.77-2.05-1.16-3.12a67,67,0,0,1-2.53-9.58l-1.45,0a58.51,58.51,0,0,1-13.06-1.5c-.18.62-.36,1.28-.55,2-1.92,6.84-.89,18.2.09,22.76a16.56,16.56,0,0,0,1,2.91,18.82,18.82,0,0,1,1.68,9.16c-.24,3.28-2,9.08-11.14,11.61-.26.09-.52.16-.79.23l-.35.08c-.78.18-1.64.34-2.71.49l-.76.11-.87.11-1.15.12-.71.06q-.93.07-1.95.12h-.08c-.75,0-1.55,0-2.38,0Z"/>
    <g>
      <g>
        <path class="b500c728-ed52-46eb-a5c4-64d532f5b6b4" d="M252.83,133.3s4.61,16.62,11.38,24.17c1.41.77,2.24-.42-.89-6.91-5.37-11.12-5.15-19.56-6.09-27.75C254.37,126.78,252.83,133.3,252.83,133.3Z"/>
        <path class="a733cb51-ac9e-4ace-b14a-a35cfcd55d62" d="M252.83,133.3s4.61,16.62,11.38,24.17c.77.42,1.37.25,1.24-1-5.63-6.1-10.26-21.28-10.55-29.34A44,44,0,0,0,252.83,133.3Z"/>
        <path class="a7f47146-3f8d-4f1f-b703-7d52ecf08ead" d="M264.87,158h0a1.69,1.69,0,0,1-.79-.24l-.08-.06c-6.74-7.51-11.4-24.12-11.44-24.28l0-.07v-.08c.07-.26,1.58-6.62,4.44-10.58l.44-.61.08.74c.17,1.49.3,3,.44,4.49.62,6.94,1.25,14.11,5.63,23.17,1.87,3.87,2.54,6.27,2,7.15A.8.8,0,0,1,264.87,158Zm-.48-.72a1.14,1.14,0,0,0,.48.15h0a.22.22,0,0,0,.21-.11c.15-.25.46-1.45-2-6.59-4.42-9.16-5.06-16.38-5.68-23.36-.12-1.28-.22-2.49-.35-3.71a36.88,36.88,0,0,0-3.9,9.67C253.47,134.49,258,150.06,264.39,157.24Z"/>
      </g>
      <g>
        <path class="feb38e72-d8ac-460b-884b-b6dbcf770f79" d="M264.6,156.06c-1.19.49-.9,3.33-2.94,6.65s-5.76,8.57-1.92,17.52,6.52,11.13,3.2,18.54c3.45-2,6.52-7.16,4.09-16.11,1.79,2.56,2.43,9,2.43,9s4.35-6.39.76-13.55c2.69,3.58,4.48,4.35,4.48,4.35s-1.79-1.54-1.79-7.68a42,42,0,0,0-1.79-12.21C269.53,158,266.82,155.14,264.6,156.06Z"/>
        <path class="b45f9497-9a23-49a9-be57-6f034cafa35b" d="M269.07,172.81a31.8,31.8,0,0,0-.76,8.44c-1.15-1.53-2.59-4.77-3.74-6.31.38,2.69.67,6.7-.1,9.38-1.92-5.37-5.75-10.74-3.07-16.88,1.47-3.66,3.28-7.32,3.1-11.32-1.07.61-.86,3.36-2.84,6.59s-5.76,8.57-1.92,17.52,6.52,11.13,3.2,18.54c3.45-2,6.52-7.16,4.09-16.11,1.79,2.56,2.43,9,2.43,9s4.35-6.39.76-13.55c2.69,3.58,4.48,4.35,4.48,4.35a3,3,0,0,1-.49-.67C271.65,179.82,270.79,175.68,269.07,172.81Z"/>
        <path d="M262.3,199.48l.37-.82c2.62-5.85,1.45-8.33-1.11-13.75-.63-1.32-1.34-2.81-2.09-4.56-3.72-8.69-.48-13.89,1.65-17.32l.29-.47a15.91,15.91,0,0,0,1.78-4.37c.34-1.22.59-2.1,1.3-2.39a2.51,2.51,0,0,1,1-.2c2.15,0,4.48,2.68,5.93,6.83a42.43,42.43,0,0,1,1.81,12.3c0,5.88,1.67,7.44,1.69,7.46l1.31,1.17-1.61-.69a11,11,0,0,1-3.34-2.88,14.81,14.81,0,0,1-1.55,12l-.45.66-.08-.79a36.09,36.09,0,0,0-1.28-6.4c1.55,9.17-3.2,12.83-4.81,13.78Zm3.16-43.3a1.93,1.93,0,0,0-.75.15c-.46.19-.67.95-1,2a16.74,16.74,0,0,1-1.84,4.51l-.29.47c-2.07,3.34-5.21,8.38-1.61,16.79.75,1.74,1.45,3.23,2.08,4.54,2.43,5.14,3.71,7.86,1.51,13.32,2.07-1.6,5.7-5.88,3.16-15.24l-.43-1.59.94,1.35c1.44,2,2.14,6.37,2.38,8.22a13.78,13.78,0,0,0,.33-12.53l.48-.3a19.5,19.5,0,0,0,3.27,3.51,16,16,0,0,1-1.1-6.67,41.9,41.9,0,0,0-1.77-12.11C269.5,158.76,267.33,156.18,265.46,156.18Z"/>
      </g>
      <g>
        <path class="b500c728-ed52-46eb-a5c4-64d532f5b6b4" d="M192,164.5s.64,10.74,3.58,18.93,6.27,14.45,3.33,24.42c5.11,2.31,13.81,2.43,19.69-.89,1.66-12.66-1.79-20-5.24-26s-6.52-19.18-6.52-19.18Z"/>
        <path class="bac7eebe-b66d-4970-8bd6-7787db4e3e5d" d="M192.73,168.21c-.2-.78-.49-1.67-.68-2.61.24,3,1.12,11.22,3.49,17.83,2.94,8.18,6.27,14.45,3.33,24.42a15.27,15.27,0,0,0,2,.74C207.23,196.17,196.39,186.55,192.73,168.21Z"/>
        <path class="a733cb51-ac9e-4ace-b14a-a35cfcd55d62" d="M213.32,181c-3.45-6-6.52-19.18-6.52-19.18l-5.18.93c1.67,8.53,2.93,17.29,6.46,25.41,3.14,7,3.42,16.83-3.79,21.14,4.68.62,10.16,0,14.27-2.34C220.22,194.3,216.77,187,213.32,181Z"/>
        <path class="a7f47146-3f8d-4f1f-b703-7d52ecf08ead" d="M207.7,209.81h0a22.46,22.46,0,0,1-8.95-1.69l-.23-.11.07-.24c2.54-8.62.35-14.46-2.2-21.22-.37-1-.75-2-1.12-3-2.92-8.13-3.59-18.9-3.6-19v-.26L207,161.48l.07.27c0,.13,3.1,13.2,6.49,19.11s7,13.4,5.28,26.14l0,.14-.13.07A22.72,22.72,0,0,1,207.7,209.81Zm-8.49-2.12a24,24,0,0,0,19.08-.91c1.61-12.47-1.85-19.77-5.22-25.64-3.16-5.5-6-17.09-6.49-19l-14.31,2.59c.12,1.67.9,11.23,3.54,18.59.37,1,.75,2,1.12,3C199.49,193.14,201.7,199,199.21,207.69Z"/>
      </g>
      <path class="a7f47146-3f8d-4f1f-b703-7d52ecf08ead" d="M193.71,176.13l-.4-.42a7.47,7.47,0,0,1,3.79-1.86,5.76,5.76,0,0,1,3.27.4S196.09,173.79,193.71,176.13Z"/>
      <path class="a7f47146-3f8d-4f1f-b703-7d52ecf08ead" d="M195.92,177.84a8.21,8.21,0,0,0,6-1.19,2.38,2.38,0,0,1-1.34,1.33,5.9,5.9,0,0,1-2.45.56A4.12,4.12,0,0,1,195.92,177.84Z"/>
      <path class="a7f47146-3f8d-4f1f-b703-7d52ecf08ead" d="M197.63,182.39a16.82,16.82,0,0,1-2.65-.21l.09-.57a14,14,0,0,0,9.08-1.37A10.27,10.27,0,0,1,197.63,182.39Z"/>
      <g>
        <polygon points="207.62 209.82 208.56 209.12 208.81 209.28 209.46 209.76 207.62 209.82"/>
        <g>
          <path class="e22665da-9c9d-42bc-bd10-ebe4b5b4e350" d="M212.55,203c-3.58.84-4,6.48-4,6.48l0,0A22,22,0,0,0,218.4,207C218.36,206.94,216.1,202.17,212.55,203Z"/>
          <path class="f9e82ea2-e460-4c46-a691-47f539539378" d="M213.63,202.91c.49,1.26,1,2.63.2,3.66a6.16,6.16,0,0,1-5.23,2.74c0,.1,0,.16,0,.16l0,0A22,22,0,0,0,218.4,207C218.36,207,216.55,203.13,213.63,202.91Z"/>
          <path class="a32bc88d-0723-429d-85bb-ba5d210f9903" d="M208.55,209.8l-.08-.07.17-.23-.19.22-.16-.12v-.15c0-.24.44-5.87,4.19-6.74a4.4,4.4,0,0,1,.88-.1c3.23,0,5.21,4.13,5.29,4.31l.12.24-.24.13a22.13,22.13,0,0,1-9.89,2.5Zm4.82-6.61a3.82,3.82,0,0,0-.75.08c-2.89.68-3.58,4.82-3.72,5.94a21.75,21.75,0,0,0,9.12-2.29C217.55,206.06,215.82,203.19,213.37,203.19Z"/>
        </g>
        <g>
          <path class="e22665da-9c9d-42bc-bd10-ebe4b5b4e350" d="M202.86,201.65a4.66,4.66,0,0,0-3,1.5,27.73,27.73,0,0,1-1,4.7,22.53,22.53,0,0,0,9.65,1.66l.07,0C208.27,208.39,206.92,201.65,202.86,201.65Z"/>
          <path class="f9e82ea2-e460-4c46-a691-47f539539378" d="M205.23,202.55c.8,4.79-2.49,5.94-6.11,5.4a22.7,22.7,0,0,0,9.4,1.56l.07,0C208.34,208.64,207.48,204.42,205.23,202.55Z"/>
          <path class="a32bc88d-0723-429d-85bb-ba5d210f9903" d="M207.7,209.81h0a22.45,22.45,0,0,1-8.94-1.69l-.23-.11.07-.24a27.94,27.94,0,0,0,1-4.65V203l.08-.08a4.89,4.89,0,0,1,3.21-1.58c3.92,0,5.4,5.73,5.89,7.61.05.18.08.32.11.41l.06.19-.27.21-.12,0Zm-8.49-2.12a22,22,0,0,0,8.48,1.55h.53l0-.12c-.46-1.77-1.86-7.17-5.32-7.17a4.16,4.16,0,0,0-2.75,1.35A27.56,27.56,0,0,1,199.21,207.69Z"/>
        </g>
      </g>
      <g>
        <path class="b500c728-ed52-46eb-a5c4-64d532f5b6b4" d="M121.56,153.06S125,163.48,125,173s.55,10.91,1.51,16.77,2.78,9.51,1.24,13.44-.46,6.21,4,7a8.71,8.71,0,0,0,9.25-3.72c1.76-2.59-3.8-28.21-3.8-28.21l-1.73-15.05Z"/>
        <path class="bac7eebe-b66d-4970-8bd6-7787db4e3e5d" d="M129.13,194.54c-2.3-8.83-1.62-17.89-2.39-26.71-.32-4.93-2.34-9.57-4.36-14.17l-.82-.6S125,163.48,125,173s.55,10.91,1.51,16.77,2.78,9.51,1.24,13.44c-.85,2.19-1.16,3.2-.26,4.39A15.56,15.56,0,0,0,129.13,194.54Z"/>
        <path class="a733cb51-ac9e-4ace-b14a-a35cfcd55d62" d="M137.2,178.27l-1.73-15.05-6.65-4.86c.09.34.17.69.23,1,2.41,9.4,2.76,20.79,4.5,30.81,3,17-2.79,17.83-6.11,17.66.63,1.18,2,1.95,4.31,2.34a8.71,8.71,0,0,0,9.25-3.72C142.76,203.89,137.2,178.27,137.2,178.27Z"/>
        <path class="a7f47146-3f8d-4f1f-b703-7d52ecf08ead" d="M133.71,210.66h0a11.72,11.72,0,0,1-2-.18c-2.31-.39-3.78-1.18-4.47-2.42s-.62-2.83.2-4.95c1.07-2.72.46-5.36-.32-8.71-.31-1.35-.66-2.89-.94-4.58-.15-.91-.29-1.71-.41-2.45-.71-4.06-1.09-6.29-1.09-14.36,0-9.37-3.35-19.76-3.38-19.86l-.27-.85,14.72,10.77,1.74,15.17c.57,2.61,5.54,25.78,3.76,28.4A8.78,8.78,0,0,1,133.71,210.66ZM122.09,153.8c.79,2.67,3.15,11.29,3.15,19.21s.39,10.23,1.08,14.26c.13.74.27,1.55.42,2.46.27,1.67.62,3.19.93,4.54.8,3.44,1.43,6.16.3,9-.76,2-.84,3.41-.24,4.46s1.94,1.77,4.07,2.14a11.54,11.54,0,0,0,1.91.16,8.2,8.2,0,0,0,7-3.76c1.39-2-2.3-20.89-3.84-28l-1.72-15Z"/>
      </g>
      <path class="a7f47146-3f8d-4f1f-b703-7d52ecf08ead" d="M129.54,191.44a6.86,6.86,0,0,1-3.09-.72l.25-.52a7.14,7.14,0,0,0,5.86,0,3.55,3.55,0,0,1-2.31,1.19C130,191.42,129.79,191.44,129.54,191.44Z"/>
      <path class="a7f47146-3f8d-4f1f-b703-7d52ecf08ead" d="M125.88,185l-.5-.3a5.71,5.71,0,0,1,3.75-2.61,4.57,4.57,0,0,1,3.08.44C132.16,182.54,127.8,181.79,125.88,185Z"/>
      <path class="a7f47146-3f8d-4f1f-b703-7d52ecf08ead" d="M126.41,188.64l-.37-.44a6,6,0,0,1,3.39-1.13,5.28,5.28,0,0,1,2.79.66S128.2,187.14,126.41,188.64Z"/>
      <g>
        <path class="e22665da-9c9d-42bc-bd10-ebe4b5b4e350" d="M132.69,204.53a6.54,6.54,0,0,0-5.48,2.74c.45,1.51,1.91,2.48,4.54,2.93a9,9,0,0,0,6.7-1.18C137.82,207.74,136,204.68,132.69,204.53Z"/>
        <path class="f9e82ea2-e460-4c46-a691-47f539539378" d="M135.63,205.57c.44,2.33-4.17,4.8-8.4,1.67l0,0c.45,1.51,1.91,2.48,4.54,2.93a9,9,0,0,0,6.7-1.18A9.44,9.44,0,0,0,135.63,205.57Z"/>
        <path class="a32bc88d-0723-429d-85bb-ba5d210f9903" d="M133.71,210.66h0a11.72,11.72,0,0,1-2-.18c-2.71-.46-4.27-1.48-4.77-3.13l0-.14.09-.12a6.86,6.86,0,0,1,5.72-2.85c3.43.16,5.34,3.31,6,4.65l.11.23-.21.14A8.83,8.83,0,0,1,133.71,210.66Zm-6.18-3.33c.47,1.33,1.87,2.18,4.27,2.59a9,9,0,0,0,6.27-1c-.71-1.35-2.45-4-5.39-4.1A6.22,6.22,0,0,0,127.53,207.33Z"/>
      </g>
      <g>
        <path class="a35890fd-e2d3-437c-9cfd-53002196ca08" d="M98.1,113s.51,30.05,34.78,51a149.14,149.14,0,0,0,30.44,0s18.18,9.31,38.12.84c-.32,3.62-.85,7.31,3.18,12.4s11.38,16.43,12.41,21c.89,3.46-1.41,9.85-.9,11.38s17.65,4.86,27.11,0c2.94-2.43,2.94-11.51-.38-19.56s-6.65-20.08-6.14-22.38,19.44-21.36,20.46-45.91-15.09-52-42.2-56.94-62.37,13.06-71.61,18.64S98.1,113,98.1,113Z"/>
        <g>
          <path class="bac7eebe-b66d-4970-8bd6-7787db4e3e5d" d="M214.09,186.49c-4.43-6.67-10.23-12.72-10.23-18.1,0-11.5,5.12-31.13,11.56-46.83-5.8,10.5-10,20.56-11.18,25.93-1,6-2.92,17.39-2.8,17.34-.32,3.62-.85,7.31,3.18,12.4s11.38,16.43,12.41,21c.89,3.46-1.41,9.85-.9,11.38.1.3.82.66,2,1C221.65,199.48,220,195.46,214.09,186.49Z"/>
          <path class="bac7eebe-b66d-4970-8bd6-7787db4e3e5d" d="M143.37,83.49c-1.41.86-3.45,2.14-5.89,3.7,3.17.31,6.21,2.44,8.45.84,24.93-18.8,62.24-26.45,82.09-17.65,1.28.57,2.69.82,4,1.27A46.75,46.75,0,0,0,215,64.85C187.87,59.9,152.61,77.91,143.37,83.49Z"/>
        </g>
        <g>
          <path class="a733cb51-ac9e-4ace-b14a-a35cfcd55d62" d="M168.56,146.73c-.77,5.75-6.91,8.82-11.89,10-10,2.3-22.64.77-28.78-9.21-3.43,8.24-13.91.36-16.67-2.5a79.92,79.92,0,0,0,21.66,19,149.14,149.14,0,0,0,30.44,0s18,9.19,37.76,1c.89-8.62,3.48-16.89,5.84-25.16C197.72,151,180.45,157.09,168.56,146.73Z"/>
          <path class="a733cb51-ac9e-4ace-b14a-a35cfcd55d62" d="M125.38,117.38s16.58,5.44,20.8-3.39c1.15-2.68,1.28-7.93,2.43-10.23,5.7-9.27,13.72-18.21,12.06-29a151.88,151.88,0,0,0-17.3,8.7C134.13,89.08,98.1,113,98.1,113a41.12,41.12,0,0,0,1.41,8.59C107.46,123.51,115.79,122.81,125.38,117.38Z"/>
          <path class="a733cb51-ac9e-4ace-b14a-a35cfcd55d62" d="M257.18,121.79c.77-18.53-8.22-38.71-24.34-49.61,17.95,14.57,21.46,64.87-5.51,96.17,2.72,9.69,6.94,18.47,8.75,28.63.93,5.56-1.63,10.13-2.86,15.1a26.29,26.29,0,0,0,10-2.44c2.94-2.43,2.94-11.51-.38-19.56s-6.65-20.08-6.14-22.38S256.16,146.34,257.18,121.79Z"/>
        </g>
        <path class="a7f47146-3f8d-4f1f-b703-7d52ecf08ead" d="M230.14,212.47c-6.89,0-13.88-1.54-14.28-2.74-.24-.71,0-2.18.38-4,.45-2.4,1-5.4.51-7.35-1-4.46-8.09-15.55-12.35-20.92-3.93-5-3.61-8.6-3.29-12.13a45.13,45.13,0,0,1-17.35,3.4,50,50,0,0,1-20.49-4.39,156.8,156.8,0,0,1-15.79.78h0a125,125,0,0,1-14.63-.79h-.06l-.06,0C115,153.36,106.42,140,102.37,130.73,98,120.66,97.81,113.05,97.81,113v-.16l.13-.09c.36-.24,36.14-24,45.28-29.48,11.17-6.76,38.46-19.54,61.81-19.54a55.76,55.76,0,0,1,10,.86c12.66,2.32,24,9.86,31.84,21.24a60.31,60.31,0,0,1,10.6,36c-.81,19.51-12.94,35.64-18.12,42.53a20.69,20.69,0,0,0-2.35,3.43c-.49,2.2,2.83,14.23,6.12,22.21s3.45,17.3.31,19.9l-.06,0C239.23,212,233.89,212.47,230.14,212.47Zm-28.37-48.09-.08.91c-.31,3.42-.64,7,3.16,11.76,4.29,5.42,11.45,16.61,12.46,21.15.53,2.06,0,5.13-.5,7.59a12,12,0,0,0-.41,3.76c.29.7,6.36,2.35,13.74,2.35,3.68,0,8.9-.43,12.94-2.5,2.61-2.2,3-10.86-.49-19.21-3.1-7.52-6.71-20-6.15-22.55.11-.52.88-1.55,2.45-3.65,5.15-6.85,17.2-22.88,18-42.21,1-23.89-14.43-51.61-42-56.64a54.65,54.65,0,0,0-9.9-.85c-23.22,0-50.39,12.72-61.51,19.45-8.85,5.35-42.7,27.78-45.13,29.38a52.31,52.31,0,0,0,4.52,17.41c4,9.19,12.48,22.4,30.07,33.18a125.07,125.07,0,0,0,14.5.79,156,156,0,0,0,15.8-.79l.09,0,.08,0a49,49,0,0,0,20.31,4.37,44.79,44.79,0,0,0,17.57-3.53Z"/>
      </g>
      <path class="a7f47146-3f8d-4f1f-b703-7d52ecf08ead" d="M201.49,168l-.58,0a110,110,0,0,1,7.65-33.39,61.09,61.09,0,0,1,6.86-13.05A111,111,0,0,0,201.49,168Z"/>
      <path class="a7f47146-3f8d-4f1f-b703-7d52ecf08ead" d="M203.86,173.12a3.93,3.93,0,0,1,1.42-2.66,8.67,8.67,0,0,1,4.57-2,15.42,15.42,0,0,1,4.24.8C206.37,167.61,204,172.9,203.86,173.12Z"/>
      <path class="a7f47146-3f8d-4f1f-b703-7d52ecf08ead" d="M206.47,174.18a6.82,6.82,0,0,1,1.45-1.75,13.27,13.27,0,0,1,3.81-1.52,5.87,5.87,0,0,1,3.42.21A13.3,13.3,0,0,0,206.47,174.18Z"/>
      <path class="a7f47146-3f8d-4f1f-b703-7d52ecf08ead" d="M210.31,177.78a12.65,12.65,0,0,1-1.36-.07,9,9,0,0,1-2.57-1.14,13.82,13.82,0,0,0,9.56-.56,5.5,5.5,0,0,1-2.84,1.49A14.63,14.63,0,0,1,210.31,177.78Z"/>
      <g>
        <path d="M215.8,209.49a1.94,1.94,0,0,1,0-.36l.58,0,0,.32Z"/>
        <g>
          <path class="e22665da-9c9d-42bc-bd10-ebe4b5b4e350" d="M233.2,205.23c-3.35.39-5.95,6.87-5.95,6.87a37.48,37.48,0,0,0,13.15-1.3h0S236.56,204.85,233.2,205.23Z"/>
          <path class="f9e82ea2-e460-4c46-a691-47f539539378" d="M234,205.26c1,1,2.12,2.45,1.3,4.23-.67,1.47-5.06,2.4-8,2.1a4.68,4.68,0,0,0-.08.51,37.48,37.48,0,0,0,13.15-1.3S237.15,205.76,234,205.26Z"/>
          <path class="a32bc88d-0723-429d-85bb-ba5d210f9903" d="M230.14,212.47h0c-.95,0-1.93,0-2.91-.08l-.4,0L227,212c.11-.27,2.73-6.65,6.19-7s7.32,5.46,7.47,5.7l.2.31-.35.12A34.62,34.62,0,0,1,230.14,212.47Zm-2.47-.63c.83,0,1.66.06,2.47.06a34,34,0,0,0,9.8-1.26c-.84-1.2-4-5.43-6.7-5.12C230.87,205.79,228.65,209.57,227.67,211.84Z"/>
        </g>
        <g>
          <path class="e22665da-9c9d-42bc-bd10-ebe4b5b4e350" d="M227.25,212.1s-2.23-7.89-5.56-8-5.63,5-5.63,5h0l0,.31a.88.88,0,0,0,0,.2C216.4,210.45,221.29,211.76,227.25,212.1Z"/>
          <path class="f9e82ea2-e460-4c46-a691-47f539539378" d="M227.25,212.1s-2-7.11-5.06-7.94a3.52,3.52,0,0,1,.53,4.54c-1.05,1.37-4,1.44-6.56,1C216.66,210.52,221.45,211.77,227.25,212.1Z"/>
          <path class="a32bc88d-0723-429d-85bb-ba5d210f9903" d="M227.54,212.41l-.31,0c-5.69-.33-11-1.57-11.37-2.66a1.4,1.4,0,0,1-.06-.24l0-.34c0-.26,2.37-5.36,5.8-5.36h.14c3.55.14,5.83,8.23,5.83,8.31Zm-11.19-3.23,0,.24,0,.13c.24.57,4.46,1.85,10.46,2.24-.73-2.36-2.76-7.33-5.18-7.42h-.11C218.72,204.37,216.63,208.6,216.35,209.18Z"/>
        </g>
      </g>
      <g>
        <path class="b500c728-ed52-46eb-a5c4-64d532f5b6b4" d="M168.4,146.78l-39.93.52s2.3,11.8,3.84,19.47,2.11,19.66,3.45,24.75,3.45,12.41,3.45,14.07c-2.49,2.71-3.83,6.64-2.78,8.47s9.59,2.87,15.63,2.59,12.28-1.44,12.57-5.28-1.54-5.24-2.5-9.72-2.52-17.59,0-26.73,3.09-12.27,3.09-12.27S170.71,159.57,168.4,146.78Z"/>
        <path class="bac7eebe-b66d-4970-8bd6-7787db4e3e5d" d="M142,206c-.37-.62-2.89-7.51-4.52-17.4-2.14-13-2.08-23.4-8.68-39.59.7,3.56,2.32,11.85,3.5,17.72,1.53,7.68,2.11,19.66,3.45,24.75s3.45,12.41,3.45,14.07c-2.41,2.63-3.74,6.39-2.86,8.28A18.76,18.76,0,0,1,142,206Z"/>
        <path class="a733cb51-ac9e-4ace-b14a-a35cfcd55d62" d="M168.4,146.78s-.86,7.88-5.1,1.07c.95,6.23-1.67,13.76-4.55,20.19-3.71,8.29-5.09,14.65-3.91,23.4,1.7,12.6,2.26,16.56-2.78,25.21,5.27-.47,12.32-1.91,12.57-5.28.29-3.84-1.54-5.24-2.5-9.72s-2.52-17.59,0-26.73,3.09-12.27,3.09-12.27S170.71,159.57,168.4,146.78Z"/>
        <path class="a7f47146-3f8d-4f1f-b703-7d52ecf08ead" d="M150,217c-5.58,0-12.79-.94-13.86-2.78s.16-5.86,2.74-8.72c-.07-1.41-1.35-6.15-2.49-10.34-.33-1.24-.66-2.45-1-3.55a98.51,98.51,0,0,1-1.71-11.87c-.49-4.52-1-9.19-1.75-12.89-1.51-7.59-3.81-19.35-3.83-19.47a60.67,60.67,0,0,1,2.16,8c.72,3.66,1.56,7.92,2.24,11.34.74,3.73,1.26,8.41,1.75,12.93a98.52,98.52,0,0,0,1.7,11.79c.29,1.11.62,2.31,1,3.54,1.23,4.56,2.51,9.27,2.51,10.61v.11l-.08.08c-2.43,2.65-3.71,6.45-2.74,8.13s9.26,2.74,15.37,2.45c7.94-.38,12.07-2.07,12.29-5a10.4,10.4,0,0,0-1.08-5.3,25.16,25.16,0,0,1-1.41-4.34c-.84-3.93-2.64-17.29,0-26.87,2.52-9,3.08-12.21,3.09-12.24l0-.13.12-.07c.06,0,5.52-3.23,3.28-15.62a39,39,0,0,1,1.1,6.85c-.34,6.51-3.32,8.78-4,9.2-.13.68-.82,4.12-3.08,12.17-2.45,8.76-1.07,21.7,0,26.59a24.49,24.49,0,0,0,1.37,4.25,11,11,0,0,1,1.12,5.55c-.24,3.28-4.56,5.15-12.83,5.54C151.44,217,150.75,217,150,217Z"/>
      </g>
      <path class="a7f47146-3f8d-4f1f-b703-7d52ecf08ead" d="M165.55,162.68l-.57-.06a35.15,35.15,0,0,0-1.68-14.77,15.86,15.86,0,0,1,2,5.92A35.67,35.67,0,0,1,165.55,162.68Z"/>
      <g>
        <g>
          <path class="e22665da-9c9d-42bc-bd10-ebe4b5b4e350" d="M151.34,209.21c-4.07.48-5.46,7.32-5.46,7.32a51.73,51.73,0,0,0,6.18.12,38.62,38.62,0,0,0,6.69-.82S155.42,208.73,151.34,209.21Z"/>
          <path class="f9e82ea2-e460-4c46-a691-47f539539378" d="M153.06,209.44c1.37,2.05,2.26,4.17.15,5.57s-4.75,1.19-7.32,1.5v0a51.73,51.73,0,0,0,6.18.12,38.62,38.62,0,0,0,6.69-.82S156.31,210.64,153.06,209.44Z"/>
          <path class="a32bc88d-0723-429d-85bb-ba5d210f9903" d="M150,217h0c-1.35,0-2.74,0-4.14-.16l-.31,0,0-.3c0-.08,1.43-7.06,5.71-7.56s7.57,6.49,7.7,6.78l.15.32-.34.08a38.51,38.51,0,0,1-6.74.82C151.42,217,150.72,217,150,217Zm-3.76-.71c1.27.09,2.53.13,3.76.13h0c.71,0,1.4,0,2.05,0a40.14,40.14,0,0,0,6.28-.73c-.71-1.36-3.61-6.53-7-6.13S146.57,214.94,146.24,216.27Z"/>
        </g>
        <g>
          <path class="e22665da-9c9d-42bc-bd10-ebe4b5b4e350" d="M136.43,214.06c.72,1.24,4.93,2.13,9.45,2.47,0,0-1.53-8.11-4.8-8.61-1.33-.24-3.86,1.71-5,3.89A3.66,3.66,0,0,0,136.43,214.06Z"/>
          <path class="f9e82ea2-e460-4c46-a691-47f539539378" d="M141.41,208c1,1.41,2.18,3.64,1.19,5.3-1.37,1.91-5.92.62-6.45,0a2.47,2.47,0,0,0,.28.79c.72,1.24,4.93,2.13,9.45,2.47C145.88,216.53,144.45,209,141.41,208Z"/>
          <path class="a32bc88d-0723-429d-85bb-ba5d210f9903" d="M146.23,216.85l-.37,0c-2-.15-8.62-.8-9.68-2.62a4,4,0,0,1-.36-2.42l0-.1c1.16-2.27,3.8-4.31,5.28-4.05,3.49.54,5,8.77,5,8.85Zm-9.84-4.95a3.34,3.34,0,0,0,.29,2c.57,1,4.11,1.91,8.85,2.3-.52-2.41-2.1-7.64-4.49-8h-.19C139.7,208.19,137.46,209.84,136.39,211.9Z"/>
        </g>
      </g>
      <path class="a7f47146-3f8d-4f1f-b703-7d52ecf08ead" d="M136.81,186.49a3.25,3.25,0,0,1,1.86-1.92,8.64,8.64,0,0,1,3.84-.68,9.88,9.88,0,0,1,2.82,1.09C139.69,183.21,136.84,186.46,136.81,186.49Z"/>
      <path class="a7f47146-3f8d-4f1f-b703-7d52ecf08ead" d="M142.7,193.6a9.6,9.6,0,0,1-3.55-.64,9,9,0,0,1-2.36-2.2c4.72,4.48,11.55,1,11.62.92a5.58,5.58,0,0,1-2.79,1.57A13.13,13.13,0,0,1,142.7,193.6Z"/>
      <path class="a7f47146-3f8d-4f1f-b703-7d52ecf08ead" d="M140.52,190.07a4.74,4.74,0,0,1-1.75-.78,9.46,9.46,0,0,0,6.49-1.12,2.85,2.85,0,0,1-1.56,1.34,10.14,10.14,0,0,1-3,.56Z"/>
      <g>
        <g>
          <path class="b500c728-ed52-46eb-a5c4-64d532f5b6b4" d="M128.64,46a20.34,20.34,0,0,0-1.13-5.65c-1.18-3.48-2.46-6.15-6.87-6.15s-8.21,1.64-9.74,3.8C114,40.3,128.64,46,128.64,46Z"/>
          <path class="a733cb51-ac9e-4ace-b14a-a35cfcd55d62" d="M127.51,40.3c-1.1-3.26-2.3-5.8-6.05-6.11,1.51,2.89,2.24,6.67.92,9.25,3.43,1.42,6.26,2.51,6.26,2.51A20.34,20.34,0,0,0,127.51,40.3Z"/>
          <path class="a7f47146-3f8d-4f1f-b703-7d52ecf08ead" d="M129,46.39l-.42-.16c-.6-.23-14.74-5.68-17.82-8l-.24-.18.18-.24c1.67-2.35,5.69-3.93,10-3.93,4.63,0,6,2.89,7.16,6.37A20.54,20.54,0,0,1,129,45.94Zm-17.62-8.51c3.13,2.16,14.57,6.67,17,7.61a21.37,21.37,0,0,0-1.08-5.09c-1.14-3.36-2.35-5.94-6.58-5.94C116.68,34.46,113,35.82,111.33,37.88Z"/>
        </g>
        <g>
          <path class="a35890fd-e2d3-437c-9cfd-53002196ca08" d="M62.29,101.48s-1.92,6.36-3.15,10.25S58,118,62.63,117.82s8.48-2.33,12.71-3.56,10.33,3,20.07,3.93,23.28,2.16,32.3-16.51S129,45.27,129,45.27A49.66,49.66,0,0,0,105.46,35c-3.28-5.84-6.77-7.79-9.64-8.71,1.85,2.56,3.9,6.25,3.9,6.25s-4.62-6.15-13.18-2.77c2,.52,8.34,3.9,8.34,3.9S86.8,30.2,80.64,35.43a68.24,68.24,0,0,1,8.62.93,34.88,34.88,0,0,0-17.41,7.82C64,51,58.8,61,51.28,66.88s-14.77,3.69-18.87-2S28,51.57,28.72,40.9,31,25,25.85,18.07s-12-6.09-12.11-3.69,3.83,4.58,4,5.74c-1.51,1.91-2.94,3.08-2.6,4.72s2.53,1.84,4.58,1.3c1.37,2.11.21,7.11-1.85,14.56S11,70,26.6,90C36.08,102.18,51.21,105.38,62.29,101.48Z"/>
          <path class="bac7eebe-b66d-4970-8bd6-7787db4e3e5d" d="M97.31,35.89c-2.06-3.74-3.66-4.74-6.92-6.2,1.53-.2,2.83-.33,4.29-.44a12,12,0,0,0-8.14.54c2,.52,8.34,3.9,8.34,3.9S86.8,30.2,80.64,35.43a68.24,68.24,0,0,1,8.62.93,34.88,34.88,0,0,0-17.41,7.82C64,51,58.8,61,51.28,66.88s-14.77,3.69-18.87-2S28,51.57,28.72,40.9c.66-10.34,2.22-15.54-2.43-22.21-.14-.21-.29-.41-.44-.62C21.19,11.82,15.27,11.88,14,13.69c1.94-1.06,5.35.68,7.27,2.05a15.28,15.28,0,0,1,6.43,10.83c1.28,13.73-4.68,25,2,38,2.47,4.92,8.32,9,14.57,7.75,9.26-1.84,14.09-7,19-14,7.38-10.67,16.56-19.48,31.23-20.81-2-2-5-2.47-7.5-3.29A22,22,0,0,1,97.31,35.89Z"/>
          <path class="a733cb51-ac9e-4ace-b14a-a35cfcd55d62" d="M95.83,70.3c-1,7.39-6.53,12.72-12.27,11.92S74,74.77,75,67.39s6.53-12.72,12.27-11.92S96.87,62.92,95.83,70.3Z"/>
          <path class="a733cb51-ac9e-4ace-b14a-a35cfcd55d62" d="M104.54,112.56a78.23,78.23,0,0,1-17.57-1c-3.2-.47-6.09-1.31-9.31-.92-6.27.78-13.53,7.33-19.11,5.21.31,1.31,1.48,2,4.08,1.93,4.65-.14,8.48-2.33,12.71-3.56s10.33,3,20.07,3.93c7.86.75,18.2,1.68,26.64-7.79-2.18-3.06-4-6.27-4.16-10.38C116.53,110.68,107.21,112.38,104.54,112.56Z"/>
          <g>
            <path class="a733cb51-ac9e-4ace-b14a-a35cfcd55d62" d="M62.18,101.85c6-2.94,11.89-5.69,17.13-9.81-1.23-1.23-2.46-2.87-2.87-2.87a42,42,0,0,1-35.33,4.65C28.81,89.72,19.83,75.63,17,63.33c-.44-2.1-.91-4.13-1.4-6.13A51.87,51.87,0,0,0,26.6,90c9.48,12.19,24.61,15.39,35.69,11.49Z"/>
            <path class="a733cb51-ac9e-4ace-b14a-a35cfcd55d62" d="M23.11,22.31a7.5,7.5,0,0,1-7.75,1,2.43,2.43,0,0,0-.18,1.51c.2,1,1.08,1.44,2.18,1.54C20.07,26.23,23.11,25.29,23.11,22.31Z"/>
            <path class="a733cb51-ac9e-4ace-b14a-a35cfcd55d62" d="M103.41,35.64s21.9,7,12,20.3c4.7-2.09,9.9-2.35,14.76-3.53C129.51,48,129,45.27,129,45.27A49.66,49.66,0,0,0,105.46,35c-3.09-5.5-6.36-7.55-9.13-8.54C100.17,29.31,101.56,31.74,103.41,35.64Z"/>
          </g>
          <path class="a7f47146-3f8d-4f1f-b703-7d52ecf08ead" d="M102.62,118.94c-2.58,0-5.06-.23-7.24-.44a55,55,0,0,1-11.7-2.64A24.8,24.8,0,0,0,77,114.35a5.74,5.74,0,0,0-1.6.21c-1.35.39-2.68.89-4,1.37a27.54,27.54,0,0,1-8.83,2.2c-2,.05-3.32-.35-4-1.24-.91-1.24-.45-3.26.18-5.25,1-3.17,2.47-8,3-9.67a29.11,29.11,0,0,1-9,1.39h0A33.41,33.41,0,0,1,26.35,90.18C15.7,76.47,12.59,58.87,17.62,40.62c1.83-6.65,3.14-11.93,2-14.13a7.6,7.6,0,0,1-1.78.22c-1.64,0-2.71-.66-2.95-1.81-.3-1.45.6-2.52,1.75-3.88.26-.3.53-.62.81-1a7.16,7.16,0,0,0-1.32-1.45c-1.24-1.17-2.78-2.62-2.68-4.24.07-1.2,1.46-2,3.39-2,1.2,0,5.42.4,9.26,5.56,4.38,5.89,4,10.46,3.33,18.05-.14,1.56-.28,3.18-.4,5-.69,10.84-.32,18.19,3.64,23.73,2.49,3.48,5.92,5.4,9.67,5.4a14.26,14.26,0,0,0,8.76-3.41c3.88-3,7.09-7.11,10.49-11.42A80.89,80.89,0,0,1,71.64,44a35.57,35.57,0,0,1,15.69-7.58,48.36,48.36,0,0,0-6.67-.63l-.9,0,.68-.58a12.59,12.59,0,0,1,8.39-3,16.61,16.61,0,0,1,3.17.31,40.18,40.18,0,0,0-5.54-2.46l-.92-.23.89-.35a13.82,13.82,0,0,1,5.09-1,11,11,0,0,1,6.82,2.33c-.75-1.27-1.79-3-2.77-4.31L95,25.73l.89.28c2.52.81,6.26,2.6,9.74,8.73,13.5,1.81,23.4,10.21,23.5,10.29l.08.07,0,.11c.07.37,7.71,38.06-1.26,56.61C120.57,117.17,110,118.94,102.62,118.94ZM77,113.73a24.91,24.91,0,0,1,6.83,1.54,54.88,54.88,0,0,0,11.58,2.62c2.17.2,4.63.44,7.18.44,7.78,0,17.63-1.91,24.82-16.78,8.64-17.88,1.67-53.9,1.23-56.12-1-.79-10.5-8.44-23.25-10.1l-.15,0-.08-.14c-3-5.34-6.19-7.32-8.57-8.25,1.68,2.45,3.35,5.46,3.37,5.49l-.52.34a10.47,10.47,0,0,0-8-3.67,12.82,12.82,0,0,0-4,.7c1.25.48,3.08,1.36,4.62,2.13a17.25,17.25,0,0,1,2.79,1.79s-1.53-.32-3.55-.64a16.16,16.16,0,0,0-2.51-.2,12.08,12.08,0,0,0-7.31,2.27c2.73.1,7.57.89,7.79.92l2.26.37-2.28.24a34.86,34.86,0,0,0-17.24,7.76,81,81,0,0,0-10,11.18c-3.42,4.34-6.65,8.45-10.59,11.53a15,15,0,0,1-9.14,3.54A12.43,12.43,0,0,1,32.16,65c-4.07-5.69-4.45-13.15-3.75-24.13.12-1.81.26-3.44.39-5,.65-7.43,1-11.92-3.2-17.62-3.68-4.93-7.64-5.31-8.77-5.31-1.56,0-2.73.61-2.78,1.45-.08,1.34,1.35,2.68,2.49,3.77.81.76,1.44,1.36,1.54,1.91l0,.13-.08.11c-.31.4-.62.76-.92,1.11-1.08,1.28-1.86,2.2-1.62,3.35s1.57,1.33,2.35,1.33a7.35,7.35,0,0,0,1.85-.26l.22-.06L20,26c1.48,2.29.18,7.58-1.81,14.81-5,18.06-1.91,35.47,8.63,49a32.79,32.79,0,0,0,26,12.94h0a28.14,28.14,0,0,0,9.38-1.55l.58-.2-.18.58c0,.06-1.93,6.4-3.15,10.26-.78,2.48-.86,3.88-.27,4.7s1.65,1,3.46,1a26.58,26.58,0,0,0,8.63-2.16c1.3-.48,2.64-1,4-1.38A6.16,6.16,0,0,1,77,113.73Z"/>
        </g>
        <g>
          <path class="edf58614-9e02-4f5d-affb-b704b1af8967" d="M77.2,66.34l18,4.56s1.14-9.88-6-12C82.76,57,78.14,63.47,77.2,66.34Z"/>
          <path class="e22665da-9c9d-42bc-bd10-ebe4b5b4e350" d="M94.39,73.31c-1.64,6-6.92,9.81-11.79,8.48s-7.49-7.28-5.85-13.29S83.67,58.69,88.54,60,96,67.3,94.39,73.31Z"/>
          <path class="e22665da-9c9d-42bc-bd10-ebe4b5b4e350" d="M76.58,69.18c-1.26,5.77,1.34,11.33,6,12.61s9.45-2,11.42-7.32C89.67,78,78.6,79.14,76.58,69.18Z"/>
          <g>
            <path class="b574dec0-ccf8-4457-81b7-6960dd7d81b8" d="M91.12,73c-.73,3.66-3.5,6.15-6.2,5.57s-4.31-4-3.58-7.68,3.5-6.16,6.2-5.57S91.84,69.33,91.12,73Z"/>
            <path class="f685f645-7dd2-41c8-9bf9-ce0529bf704c" d="M84.5,74.27a7.6,7.6,0,0,1-3.25-2.86c-.47,3.45,1.1,6.59,3.67,7.15s5.41-1.86,6.17-5.44A6.68,6.68,0,0,1,84.5,74.27Z"/>
            <path class="edf58614-9e02-4f5d-affb-b704b1af8967" d="M89.83,74.16c-.5,2.52-2.34,4.26-4.11,3.88s-2.79-2.74-2.29-5.26,2.33-4.26,4.1-3.88S90.33,71.64,89.83,74.16Z"/>
            <path class="e22665da-9c9d-42bc-bd10-ebe4b5b4e350" d="M88.89,71.34a1.84,1.84,0,0,1-2.34,1.23,2,2,0,0,1-1.28-2.39A1.84,1.84,0,0,1,87.61,69,1.93,1.93,0,0,1,88.89,71.34Z"/>
            <g class="e1ec5bf3-8ec2-4e6f-bea5-f66ee305e6c0">
              <path class="e22665da-9c9d-42bc-bd10-ebe4b5b4e350" d="M85.24,76a.86.86,0,0,1-1.08.57.9.9,0,0,1-.59-1.1.85.85,0,0,1,1.08-.57A.9.9,0,0,1,85.24,76Z"/>
            </g>
            <path class="b479fa8d-1a25-45d4-af88-07d36d9064be" d="M84.47,78.79c-2.65-.85-4.17-4.35-3.45-8,.76-3.84,3.72-6.45,6.59-5.83s4.58,4.28,3.83,8.08-3.72,6.45-6.59,5.83ZM87.8,65.72l-.32-.08C85,65.09,82.34,67.47,81.65,71s.79,6.74,3.33,7.28,5.13-1.84,5.82-5.31C91.45,69.63,90.14,66.47,87.8,65.72Z"/>
          </g>
          <path class="edf58614-9e02-4f5d-affb-b704b1af8967" d="M84.58,82.36a7.58,7.58,0,0,1-2.06-.28A8.6,8.6,0,0,1,77,77a13,13,0,0,1-.5-8.6c1.42-5.2,5.67-9,10.11-9a8,8,0,0,1,2.06.27,8.67,8.67,0,0,1,5.57,5.06,13,13,0,0,1,.5,8.61C93.27,78.59,89,82.36,84.58,82.36Zm2-22.3c-4.17,0-8.17,3.59-9.51,8.52a12.31,12.31,0,0,0,.47,8.2,8,8,0,0,0,5.16,4.71,7.19,7.19,0,0,0,1.9.26c4.17,0,8.17-3.59,9.51-8.52a12.31,12.31,0,0,0-.47-8.2,8,8,0,0,0-5.16-4.71A7.19,7.19,0,0,0,86.56,60.06Z"/>
        </g>
        <path class="a7f47146-3f8d-4f1f-b703-7d52ecf08ead" d="M92.67,58.58c-5.27-5.95-11.11-1.1-11.36-.89A5.28,5.28,0,0,1,84,55.54a7.83,7.83,0,0,1,6.07.24C91.1,56.27,92.67,58.58,92.67,58.58Z"/>
        <g>
          <path class="b34ce5f0-30b2-4474-b2c5-fada1ca1a70a" d="M98,53.48s-4.82-6-14.56-5C86.18,43.84,93.67,43.23,98,53.48Z"/>
          <path class="edf58614-9e02-4f5d-affb-b704b1af8967" d="M99.11,55.4l-1.38-1.73a16.08,16.08,0,0,0-12.12-5c-.71,0-1.44,0-2.17.11l-.61.07.32-.53A6.66,6.66,0,0,1,88.86,45c3.73,0,7.16,3.06,9.4,8.4ZM85.61,48a17.34,17.34,0,0,1,11.38,4c-2.11-4.16-5-6.5-8.13-6.5A6,6,0,0,0,84,48.09Q84.83,48,85.61,48Z"/>
        </g>
        <path class="a7f47146-3f8d-4f1f-b703-7d52ecf08ead" d="M58.55,102.8l-.12-.6c.13,0,12.88-2.63,20.45-10.76l.45.42C71.63,100.14,58.68,102.78,58.55,102.8Z"/>
        <path class="a7f47146-3f8d-4f1f-b703-7d52ecf08ead" d="M81.59,94.15c-1.14-.87-2.29-1.89-3.25-2.79a8.14,8.14,0,0,1-1.86-2.68s4.59,4.77,7.59,6.37A7.89,7.89,0,0,1,81.59,94.15Z"/>
        <g>
          <path class="f6a8fd2d-b22f-44d2-be32-b35abff5af97" d="M79.08,91.67a37,37,0,0,1-13.36,8.59c-1.17,3.41-4.09,12.13-3.43,12.29.82.21,8.61-5.43,13.12-10.66a51.38,51.38,0,0,0,6.09-8.21Z"/>
          <path class="f22e86d7-95c2-4c48-a8b5-0298c4bf0e0b" d="M79.08,91.67a31.74,31.74,0,0,1-7.55,5.82,16.89,16.89,0,0,0-1.15,9.37,51.44,51.44,0,0,0,5-5,51.38,51.38,0,0,0,6.09-8.21Z"/>
          <g>
            <path class="f4993993-0002-40bc-aed6-a2bda40a562b" d="M75.41,101.89c.63-.73,1.2-1.41,1.71-2a10.53,10.53,0,0,0-8.32.89c-4.7,2.87-6.51,11.82-6.51,11.82C63.11,112.76,70.9,107.12,75.41,101.89Z"/>
            <path class="ef6361e2-d2c3-4e37-a58d-67f221acfdc8" d="M72.4,99.47c.53,3.86-2.36,6.2-5.12,8.57-1.39.84-2.84,2.46-4.48,2.51-.35,1.2-.51,2-.51,2,.82.21,8.61-5.43,13.12-10.66.63-.73,1.2-1.41,1.71-2A11.89,11.89,0,0,0,72.4,99.47Z"/>
            <path class="ba8d33a7-0dfc-4f0d-accf-4c30d9c767e1" d="M62.34,112.87h0l-.13,0-.28-.07,0-.29c.08-.37,1.9-9.12,6.66-12a9.76,9.76,0,0,1,5.15-1.39,12.88,12.88,0,0,1,3.42.48l.45.12-.3.37c-.56.69-1.12,1.36-1.71,2C71.21,107.23,63.53,112.87,62.34,112.87ZM73.79,99.68A9.09,9.09,0,0,0,69,101c-3.92,2.39-5.81,9.26-6.26,11.14,1.74-.81,8.31-5.61,12.48-10.44.48-.56.94-1.11,1.4-1.67A12.3,12.3,0,0,0,73.79,99.68Z"/>
          </g>
          <path class="a7f47146-3f8d-4f1f-b703-7d52ecf08ead" d="M62.34,112.87h0l-.13,0a.39.39,0,0,1-.25-.2c-.13-.23-.5-.92,3.47-12.49l0-.13.13,0c3.84-1.52,9.26-4.23,13.26-8.52l.2-.21,2.83,2.36-.12.22a51,51,0,0,1-6.12,8.26C71.21,107.23,63.53,112.87,62.34,112.87ZM66,100.5c-2.55,7.43-3.45,10.88-3.47,11.72,1.35-.47,8.33-5.48,12.69-10.53a56.54,56.54,0,0,0,5.93-7.93l-2-1.67A37.92,37.92,0,0,1,66,100.5Z"/>
        </g>
        <path class="a7f47146-3f8d-4f1f-b703-7d52ecf08ead" d="M19.23,26.57l-.15-.6a10.65,10.65,0,0,0,3.68-1.69A5.91,5.91,0,0,1,19.23,26.57Z"/>
        <path class="a7f47146-3f8d-4f1f-b703-7d52ecf08ead" d="M25,43.48a7.13,7.13,0,0,1-4-1.36s3.91,1.9,7.56,0l.26.56A9,9,0,0,1,25,43.48Z"/>
        <path class="a7f47146-3f8d-4f1f-b703-7d52ecf08ead" d="M21.36,56.06c.15,0,3.51,1.14,7.11-2.31l.43.44C24.6,58,21.36,56.06,21.36,56.06Z"/>
        <path class="a7f47146-3f8d-4f1f-b703-7d52ecf08ead" d="M25.78,72.05s4.64-1.12,6.57-7l.59.2C30.89,71.47,25.78,72.05,25.78,72.05Z"/>
        <path class="a7f47146-3f8d-4f1f-b703-7d52ecf08ead" d="M39.91,82.51c0-.07,2.18-6.71-.77-12.4l.55-.29C42.76,75.76,39.91,82.51,39.91,82.51Z"/>
        <path class="a7f47146-3f8d-4f1f-b703-7d52ecf08ead" d="M58.18,82.86c0-.1.72-10.17-8-15l.29-.54C59.56,72.35,58.18,82.86,58.18,82.86Z"/>
        <path class="a7f47146-3f8d-4f1f-b703-7d52ecf08ead" d="M71.79,64.9a14.25,14.25,0,0,0-11.61-7.14l0-.62A13.5,13.5,0,0,1,71.79,64.9Z"/>
        <g>
          <path class="b500c728-ed52-46eb-a5c4-64d532f5b6b4" d="M163.51,62.3c-3.18-5.95-6.57-13.94-13.64-16.3-20-6.36-27.08,1.94-33.54,6.56-6.77.51-9.43,6.77-9.43,6.77L118.69,106c10.94,15.42,23,10.07,25.54,4.53s2.15-8.51,9.43-8.92,9.13-4.2,11-12.1,6.46-9.64,7-12.82S166.68,68.25,163.51,62.3Z"/>
          <path class="bac7eebe-b66d-4970-8bd6-7787db4e3e5d" d="M149.87,46c-20-6.36-27.08,1.94-33.54,6.56a11.33,11.33,0,0,0-8.51,5.15c1.21-.63,5.43-4.45,4.85-.1,5.62-5,9.67-8.16,15.66-10.14,8.81-2.92,21.54-1.47,26.66,5,4.93,6.15,9.23,16.27,16.19,21.85-1.31-3.13-5.19-7.35-7.67-12C160.33,56.35,156.94,48.36,149.87,46Z"/>
          <path class="a733cb51-ac9e-4ace-b14a-a35cfcd55d62" d="M164.24,85c-1.59,5.25-2.27,13.39-9.78,14.11-2.56.75-5.7.76-7.47,2.77-2.46,2-3.45,6-4.92,7.79a9.85,9.85,0,0,1-10.1,3.37c-3.91-1.21-7.43-4.16-10-7.22-1.53-1.8-4.42-5.81-4.42-5.81.16,4.11.72,8,4.54,10.38,0-.07.11-.12.16-.19,9.88,10,19.73,5.24,22,.29,2.56-5.54,2.15-8.51,9.43-8.92s9.13-4.2,11-12.1c1.64-7,5.43-9.16,6.64-11.76A15.87,15.87,0,0,0,164.24,85Z"/>
          <path class="a7f47146-3f8d-4f1f-b703-7d52ecf08ead" d="M134.37,116.4c-3.08,0-7.9-1.12-13-6.63a24.6,24.6,0,0,1-2.42-4c6.64,9.37,13.19,10.25,16.5,9.95a10.41,10.41,0,0,0,8.51-5.37c.46-1,.84-1.94,1.16-2.77,1.49-3.73,2.39-6,8.53-6.33,6.91-.39,8.81-3.81,10.69-11.86a20.92,20.92,0,0,1,4.88-9.32c1.06-1.28,1.9-2.28,2.09-3.48.3-1.84-1.64-4.56-3.88-7.71a62.85,62.85,0,0,1-4.19-6.45l-1.11-2.12c-2.91-5.62-6.21-12-12.35-14-17.53-5.58-25,.17-31,4.8-.79.61-1.54,1.18-2.29,1.72l-.07,0h-.09c-6.5.49-9.14,6.52-9.17,6.58a7.51,7.51,0,0,1,2.18-4,11.08,11.08,0,0,1,6.86-3.17c.72-.52,1.44-1.07,2.21-1.66,6.1-4.71,13.69-10.57,31.53-4.9,6.39,2.13,9.75,8.62,12.71,14.34.38.73.74,1.44,1.11,2.12a60.35,60.35,0,0,0,4.14,6.38c2.32,3.26,4.33,6.08,4,8.17-.22,1.36-1.1,2.43-2.23,3.78a20,20,0,0,0-4.75,9.06c-1.91,8.2-4,11.93-11.25,12.34-5.75.32-6.5,2.2-8,5.94-.34.84-.71,1.78-1.19,2.8-1.17,2.55-4.42,5.3-9,5.72A9.71,9.71,0,0,1,134.37,116.4Z"/>
        </g>
        <path class="a7f47146-3f8d-4f1f-b703-7d52ecf08ead" d="M112.67,57.61a10.72,10.72,0,0,1,2.41-4.15,18.41,18.41,0,0,1,2.14-1.94l.37.49A21.71,21.71,0,0,0,112.67,57.61Z"/>
        <g>
          <path class="bfac31c5-62d6-4c32-9d1a-b3fe09db367c" d="M149.87,52.53c-5.75-3.7-16.14-2.19-24.21,4.92s-14,24.6-14,24.6l2.7-6.62s3.35,5.64,5.51,17.84,6.46,15,11,16.62,10.15.92,11.38-3.92,3.39-7.16,9.85-7.77c6.77-.62,7.79-3.7,8.92-7.39s2.87-11.62,4.65-14.52C160.39,71.74,155.61,56.22,149.87,52.53Z"/>
          <path class="bfcff3e5-ff13-40e9-95c6-a9a9ae435fa1" d="M123.92,95.63c-.93-11.56-2.22-14.47,1.47-24.73,3.28-8.61,14.94-16.58,22.73-13.29,6.69,2.75,12.69,15.29,17.15,18.37-5.08-4.89-9.78-19.84-15.4-23.45s-16.14-2.19-24.21,4.92-14,24.6-14,24.6l2.7-6.62s3.35,5.64,5.51,17.84,6.46,15,11,16.62c4.26,1.55,9.53,1,11.14-3.16C137.82,115.28,125,108.39,123.92,95.63Z"/>
          <path class="a7f47146-3f8d-4f1f-b703-7d52ecf08ead" d="M135.15,111a13.35,13.35,0,0,1-4.46-.8c-4.44-1.62-9-4.24-11.17-16.85-1.78-10-4.39-15.67-5.21-17.26-1.51,3.49-2.38,6-2.41,6.08a22.37,22.37,0,0,1,1.68-5.94c2.47-5.79,6.77-14.49,11.88-19,7.76-6.84,18.32-9,24.57-4.95,3.16,2,6,7.49,8.75,12.78,2.39,4.6,4.65,8.94,7,11l.2.17-.14.22c-1.27,2.07-2.54,6.83-3.56,10.66-.38,1.43-.74,2.78-1,3.79-1.1,3.58-2.13,7-9.19,7.6-6.6.63-8.46,3.14-9.58,7.54a6.1,6.1,0,0,1-3.12,4A9.06,9.06,0,0,1,135.15,111ZM114.62,75.35c.4.71,3.49,6.49,5.5,17.87,2.17,12.29,6.51,14.83,10.78,16.38a10.53,10.53,0,0,0,8.17-.1,5.45,5.45,0,0,0,2.81-3.61c1.19-4.68,3.15-7.34,10.11-8,6.65-.61,7.58-3.65,8.66-7.17.3-1,.66-2.35,1-3.77,1-3.74,2.24-8.36,3.51-10.6-2.38-2.2-4.61-6.49-7-11-2.72-5.21-5.52-10.61-8.54-12.55-6-3.87-16.27-1.76-23.83,4.9C121.15,61.84,117.12,69.66,114.62,75.35Z"/>
        </g>
        <g>
          <path class="b500c728-ed52-46eb-a5c4-64d532f5b6b4" d="M73.27,79.26l8.62,5.26,9.38-1.4C84,78.1,73.27,79.26,73.27,79.26Z"/>
          <path class="a7f47146-3f8d-4f1f-b703-7d52ecf08ead" d="M91.65,83.37c-7.11-4.9-18.46-4.05-18.57-4a11.77,11.77,0,0,1,4.62-.61,32.94,32.94,0,0,1,11.69,2.66A10.28,10.28,0,0,1,91.65,83.37Z"/>
        </g>
      </g>
    </g>
  </g>
</svg>
