<svg id="ed4dfc77-ca3b-4c35-8015-252540e23521" data-name="Layer 1" xmlns="http://www.w3.org/2000/svg" width="202.39" height="242.38" viewBox="0 0 202.39 242.38">
  <defs>
    <style>
      .e0ad5c2b-25c6-4d35-90c4-59227581918a {
        opacity: 0.5;
      }

      .eedce7a7-0964-45bd-8ccf-6df477312143 {
        fill: #fff;
      }

      .edf2b640-c6b2-470f-8555-1bc50676c5b8 {
        fill: #183f06;
      }

      .f70d2b92-c150-4498-90cc-9a97935f06fb {
        fill: #487412;
      }

      .ba5d73a7-28f3-49d0-a633-c78e6e7301d3 {
        fill: #4d7918;
      }

      .b2dfdc01-7581-4f74-90c4-51b47d1d0e4b {
        fill: #20470c;
      }

      .b6272be4-37e9-4b6d-8b6b-055a1a57d866 {
        fill: #244b10;
      }

      .b6a6357e-395b-4818-93f6-a9ceaddbc406 {
        fill: #274d12;
      }

      .a92ec07c-c40e-4aae-9da6-742f728c9846 {
        fill: #274d13;
      }

      .af58be46-42e8-471b-884c-4bb8fe71d26b {
        fill: #254b15;
      }

      .ed7d613a-bbdc-4a97-8fbf-15785a6458a6 {
        fill: #294e1a;
      }

      .a259107c-cdf6-42d6-a134-17483cf1afd9 {
        fill: #345a1d;
      }

      .ff71e03e-d402-499b-9212-7befcbb272f5 {
        fill: #375c22;
      }

      .bcd39c07-3d3e-4166-be2f-cd7a1515b32e {
        fill: #365c1d;
      }

      .f267a14b-0fec-4dc8-bec0-f33a55d493b7 {
        fill: #31571c;
      }

      .b5e07226-5f54-478d-aeb9-bca9594aa130 {
        fill: #284e19;
      }

      .ae523198-7130-4a3b-9719-d4c99c1da623 {
        fill: #355b1f;
      }

      .b59b0cb5-86c6-4781-99ac-e7872fc1b1a6 {
        fill: #6f805a;
      }

      .f2737697-3576-4525-82b4-ca37e24c58c9 {
        fill: #325623;
      }

      .b4b2066a-9557-4afc-8814-280806bca03d {
        fill: #375c20;
      }

      .f7b69621-4d91-41f5-a007-78630c1c568b {
        fill: #776a3e;
      }

      .b102c535-3c85-4677-ab74-6118eab39edf {
        fill: #aec5b3;
      }

      .a681cdfc-56c9-4f24-826b-039c4cd8176a {
        fill: #abdd52;
      }

      .ac70cc1e-3fa3-48b8-ad74-4cdd3140ae3e {
        fill: #9aa98f;
      }

      .ab4982d1-4d16-485c-932d-33fd640e0b39 {
        fill: #c1d8bd;
      }

      .e1c83f06-277d-4151-92f6-f1bf86f16e8a {
        fill: #a5b29b;
      }

      .acb6ebeb-2834-4b21-be30-403d3cb3e554 {
        fill: #5c9e16;
      }

      .bc8f12bb-6ca9-4275-aa7f-9021f1dcd5ab {
        fill: #71b226;
      }

      .a4326409-4802-465e-84b6-fe6ee031cfb3 {
        fill: #1c4207;
      }

      .a9d8785f-4ec2-417a-918a-0a68c47fd99f {
        fill: #1c4307;
      }

      .e5414dcc-15a3-4050-aa7b-d2ad787c8f90 {
        fill: #487512;
      }

      .e84a7740-47c9-4424-a663-88b9f898e9a2 {
        fill: #467211;
      }

      .be19cfc7-2600-4d65-9650-715d7792c508 {
        fill: #a9db51;
      }

      .ac5333e0-e471-47e8-ab5f-1d91136ec42a {
        fill: #aadc51;
      }

      .bb0ee1f5-ac49-473a-9648-b6acd5f46175 {
        fill: #a7da50;
      }

      .fd90519e-cb5d-4c97-8c9f-de896a4e6ce6 {
        fill: #4e7d16;
      }

      .e647cff0-4c4b-4a0e-80c2-cf9e43b97aad {
        fill: #28530b;
      }

      .b64bfce8-0771-4f36-a0c6-0959c3abb889 {
        fill: #244e0c;
      }

      .aaa5268d-f7e9-4df2-be8a-672985f6e606 {
        fill: #7c922e;
      }

      .a85dc75d-fd17-470f-a6e2-715c39250f84 {
        fill: #93c848;
      }

      .e1fa6a43-4db0-463c-a4c3-a48804b591a7 {
        fill: #78aa3a;
      }

      .e5fe9632-3eba-443a-9aed-6c1fc221abcb {
        fill: #5e8d2c;
      }

      .b4a00441-decf-441a-8729-6075078eaad1 {
        fill: #376418;
      }

      .bec0dd86-917f-42c5-9c8f-6b2500695e9d {
        fill: #3e7810;
      }

      .bf11dfb7-4b9b-4d0c-816c-16da0186172d {
        fill: #357621;
      }

      .b745d352-b738-4ebc-a722-83f1b0fb8c7d {
        fill: #4a8219;
      }

      .ac13c73c-12a4-4957-9499-89a7aaa4897d {
        fill: #83af3c;
      }

      .ab462f46-9198-42a8-952d-a455416c9889 {
        fill: #56912d;
      }

      .fdc9d44c-1741-4948-9e85-2f080093f39e {
        fill: #aadc52;
      }

      .ae329921-40af-4624-8025-b4270f66410d {
        fill: #a9dc51;
      }

      .e30810e1-6c54-4157-a767-b28d792c4121 {
        fill: #a8db51;
      }

      .eacc62f8-31ff-422b-96d0-dc212f060ab2 {
        fill: #a0d44d;
      }

      .eb6a64d0-aa2c-43e4-a320-05070074780d {
        fill: #97cd48;
      }

      .ea10a9da-2fda-4d30-9ea4-0627e45ea265 {
        fill: #8ec644;
      }

      .f60723a3-fbaa-46db-93f7-aee5710e0dce {
        fill: #5ba12d;
      }

      .e15e3881-a859-472b-b9f1-4edb37729577 {
        fill: #609526;
      }

      .b07c135b-8798-4587-b8ca-87515a1dbc16 {
        fill: #89c040;
      }

      .a053bf27-3b59-4c21-82a3-650ad48e350c {
        fill: #87bb3d;
      }

      .b159d2eb-0675-43c5-b137-c235f3762a4f {
        fill: #76b439;
      }

      .b62b54f3-d33d-477f-a3a9-a3dcd65734bb {
        fill: #76a933;
      }

      .f1b3c738-e01b-4915-996b-407da11f4995 {
        fill: #73891f;
      }

      .fedb9d43-7ba7-414d-b0c3-12d590d3ee50 {
        fill: #98d74f;
      }

      .bfe36530-2e4e-470d-b79a-67b74d24e6d0 {
        fill: #8ac745;
      }

      .a4a18607-681c-458d-ad6f-4887b003318e {
        fill: #77a32f;
      }

      .bff6773b-d834-4cfd-bc3c-786b7c7d8ba9 {
        fill: #88b73b;
      }

      .bcc0379c-019c-4741-b16e-e46b1e1f0bde {
        fill: #28500e;
      }

      .e1ebbfb2-988c-4736-8f76-76238b1fff34 {
        fill: #8fbd42;
      }

      .f8edb30f-2645-4d02-889a-c16c852cd292 {
        fill: #7aa838;
      }

      .a4987fe0-6beb-475e-adb0-fb28d13430ab {
        fill: #1b4207;
      }

      .b1ca98e2-0074-4495-8dd6-3dd25c5c0040 {
        fill: #1a4207;
      }

      .a3a3ab8f-75d1-4fc1-9509-46568b22db18 {
        fill: #26500c;
      }

      .abe02cdf-7dc1-4402-bca5-2a01569843ce {
        fill: #1f4708;
      }

      .f0318ffa-78d4-4c40-b99c-72ffc005639f {
        fill: #467412;
      }

      .f76e660a-ea54-4846-bb02-2ed079c22959 {
        fill: #1a4107;
      }

      .a62cadee-f35b-4d06-97f3-5ec44fde796e {
        fill: #254c10;
      }

      .e50df887-a709-4826-81a2-7dedae7dfcc5 {
        fill: #234c0c;
      }

      .a9352ce4-76ec-4064-9fb1-dd4b05e4c956 {
        fill: #2d5316;
      }

      .b2b742ea-6e02-4178-aaf3-1deb54a8f1af {
        fill: #2f5812;
      }

      .b1a88cc7-2251-4277-815b-004dd8c7bb51 {
        fill: #33571e;
      }

      .bc5b571b-923c-4b2d-9db3-3f48f6f51e31 {
        fill: #30551a;
      }

      .a47f2ecc-a55c-43aa-99eb-4e4a83398e5b {
        fill: #44682b;
      }

      .a52564ec-fdd2-46c9-95d0-654fec9dbcc7 {
        fill: #aadd52;
      }

      .a2314461-ce49-4187-87ab-4d37103c7d6b {
        fill: #92c848;
      }

      .b4485e04-6638-4d12-b12b-31092b78a9b7 {
        fill: #617b23;
      }

      .ad01b4df-756b-4541-ad8d-333e1a6b0070 {
        fill: #89bf43;
      }

      .b439d21b-fdc9-4f32-9c5c-445384a04602 {
        fill: #87dc52;
      }

      .a1acb864-a266-459a-a20c-88dc48fa1072 {
        fill: #5a892a;
      }

      .f25a4792-4aec-4eb3-96d7-797b89178879 {
        fill: #3a6719;
      }

      .b402e379-08e9-4ea8-8bc0-63d0e27175f6 {
        fill: #5fad3b;
      }

      .a4036e89-b4ea-41a0-b61f-bd3be31784bb {
        fill: #8e9f34;
      }

      .aea8e1d3-5aac-4690-aec8-ff82cc7296d1 {
        fill: #326217;
      }

      .af1a7b6e-d944-471d-8248-d005c839c9da {
        fill: #739a32;
      }

      .ab8664eb-3964-48fd-bbb2-ad831763f5a5 {
        fill: #597f25;
      }

      .f85ddd05-dd33-47eb-bab7-81dd2d606cc7 {
        fill: #87b33e;
      }

      .afbdd4b2-bebb-462c-99ad-10ce07fdf176 {
        fill: #9cbe43;
      }

      .a81ad524-ce12-49f1-80dd-0202ea13df21 {
        fill: #a3d54e;
      }

      .b282a358-336e-47f5-a300-93c35c94943d {
        fill: #9dcd4b;
      }

      .a16b338a-f14a-4437-96b9-b7583a8c8580 {
        fill: #8fc044;
      }

      .b1b3a674-5313-46cb-bee3-e32266590caa {
        fill: #709f34;
      }

      .ad132dee-e5a5-4dee-861d-89bbfba59879 {
        fill: #88b941;
      }

      .b3564246-208e-41e3-9918-fc8a2c819e3c {
        fill: #6c9b32;
      }

      .b6cb4a33-57b2-4097-bfb3-ae3533fd61f9 {
        fill: #396418;
      }

      .eac4a186-917e-4a61-b0a9-fb6bd68237e9 {
        fill: #548126;
      }

      .adcc9434-46df-4b1f-b61f-f6c17eb084d0 {
        fill: #618b2b;
      }

      .b0af091a-70eb-4a8d-85fb-0719f28895bd {
        fill: #527d1d;
      }

      .f6e239bc-25e5-4d8e-8cfd-f5c58713e1af {
        fill: #88b93c;
      }

      .f3672596-4830-4c8a-8d1c-c8ad5b04fba1 {
        fill: #9acf4a;
      }

      .ade4a4bd-aae9-4c58-a6b5-17d15a638834 {
        fill: #72a12d;
      }

      .e0374c05-7023-44ed-85a7-c6ea7b0256e2 {
        fill: #87ba3d;
      }

      .a24d143c-f216-4b7e-951b-9af693b44188 {
        fill: #5f8d21;
      }

      .b20ad83a-50bf-4e25-b73f-a2def23e411c {
        fill: #70a22e;
      }

      .a8486215-ade1-4f75-b598-3e2fa16e2f44 {
        fill: #8bba3d;
      }

      .fbb937ad-81e6-4c09-8b63-dbf3253f47af {
        fill: #8dc544;
      }

      .ffad37b4-f78f-42cb-91ac-53d4f482a536 {
        fill: #70a831;
      }

      .f9d39ec0-26d2-4bdd-a1f9-f8c26142be5f {
        fill: #83c946;
      }

      .a7ddd14c-6707-4e36-b40f-60c670b1dcd9 {
        fill: #8fc144;
      }

      .a027de7d-6f5f-4ffb-9456-85bbe9f2e3ef {
        fill: #669831;
      }

      .a0fb27c0-644c-4a85-b5b1-7d649ce9a98e {
        fill: #487420;
      }

      .b286c6d3-3551-4b11-9558-d2451c1a814c {
        fill: #92c245;
      }

      .bc5aa637-3557-4d26-af05-2e9f2337703d {
        fill: #73a236;
      }

      .b8d6290d-a449-43e0-9270-ddeb74f5a076 {
        fill: #568226;
      }

      .b6620bed-1a52-4527-b708-61f94888f262 {
        fill: #8cbc42;
      }

      .bf4ddf39-a94c-43f3-9dbd-0bd0f8c4b047 {
        fill: #386217;
      }

      .aabddfbc-e766-4823-9712-5b8975fe4057 {
        fill: #45701e;
      }

      .f049870f-ea27-452a-96e1-a3d7bb7f2db9 {
        fill: #afccbc;
      }

      .bbb71176-b11a-4a1d-a7cb-97d8766af4fd {
        fill: #7d955d;
      }

      .f610d26f-6864-4ee8-819e-158b33a83d08 {
        fill: #30511d;
      }
    </style>
  </defs>
  <g>
    <g class="e0ad5c2b-25c6-4d35-90c4-59227581918a">
      <path d="M88.48,239.5a8.17,8.17,0,0,1-6.84-3.75,12.59,12.59,0,0,1-1.66-3.3c-.7-1.95-1.2-3.81-1.68-5.61l0-.16a7.61,7.61,0,0,1-.87-.51A8,8,0,0,1,74,218.3c.07-.44.15-.88.22-1.3s.12-.62.16-.93a47.38,47.38,0,0,0,.32-7,108.75,108.75,0,0,0-.85-11.76c-.32-2.72-.74-5.5-1.24-8.29a33.89,33.89,0,0,1-8.46,1.21h-.48a32.84,32.84,0,0,1-17.17-4.89,42.75,42.75,0,0,1-12.19-11.32,61.54,61.54,0,0,1-9.06-17.76,74.11,74.11,0,0,1-3.15-14.18c-.32-2.65-.45-5.23-.55-7.43-.17-3.64-.36-6.92-.6-10-.22-2.9-.44-5.25-.68-7.39a93,93,0,0,0-3.37-17.45A37.45,37.45,0,0,0,11,88.21a8.3,8.3,0,0,1-1.87-2.3,8.12,8.12,0,0,1-.92-8.34,1,1,0,0,1,0-.1,8.1,8.1,0,0,1,7.25-4.57,8,8,0,0,1,4.72,1.53l.27.18A138.37,138.37,0,0,1,63.85,92a94.1,94.1,0,0,1,5.59-9.61,120.52,120.52,0,0,1,15-18.3,178.93,178.93,0,0,1,35.33-27.5,217,217,0,0,1,43.9-20.24,196.12,196.12,0,0,1,22.29-6l.19-.14A9.08,9.08,0,0,1,187.83,9a8.07,8.07,0,0,1,10.3,12.1c-.19.25-.39.48-.59.7-.43.57-.88,1.13-1.32,1.69-.71.9-1.38,1.75-2,2.58a63.65,63.65,0,0,0-8.87,18.19,113.86,113.86,0,0,0-3.33,13.8c-.66,3.62-1.23,7.4-1.73,11.56-.41,3.41-.76,7-1.08,10.85-.41,4.89-.7,9.26-.9,13.34L178.19,97c-.12,2.44-.24,4.88-.38,7.31-.2,3.33-.59,6.81-1.15,10.35a110.52,110.52,0,0,1-4.1,17,92.65,92.65,0,0,1-12.4,25.06,66,66,0,0,1-14.66,15.18,49.75,49.75,0,0,1-17.94,8.5A45.6,45.6,0,0,1,117,181.59h0c-1.22,0-2.46-.05-3.7-.15a51,51,0,0,1-13.76-3.05c-.59,3-1.07,5.62-1.47,8.12,0,.21-.08.41-.12.58-.07.65-.17,1.22-.25,1.71,0,.26-.09.51-.13.77-.16,1.25-.34,2.49-.51,3.73l-.17,1.17c0,.1,0,.2,0,.29a38827961531580.67,38827961531580.67,0,0,1-.26,2.16,8.53,8.53,0,0,1-.12,1,9,9,0,0,1-.14,1.17,7.87,7.87,0,0,1-.12,1.2,9,9,0,0,1-.13,1.26,9.83,9.83,0,0,1-.13,1.41s0,.1,0,.15a8.16,8.16,0,0,1-.12,1.71,9.53,9.53,0,0,1-.11,1.2c0,.07,0,.14,0,.21a12.27,12.27,0,0,1-.1,1.38,4.36,4.36,0,0,1,0,.51,13.53,13.53,0,0,1-.09,1.81c0,.21,0,.41,0,.62a18.74,18.74,0,0,1-.11,2.5v.21c0,.63,0,1.26,0,1.89a85.87,85.87,0,0,0,.34,9.94l0,.34a8.37,8.37,0,0,1,.12,1,7.59,7.59,0,0,1,.14,1.08l.22,1.11a8.13,8.13,0,0,1-7.65,10.83Z"/>
      <path d="M191.87,15.94h0a.69.69,0,0,0-.38.31c-.6.45-1.2.89-1.79,1.35a1.81,1.81,0,0,1-.82.37,189,189,0,0,0-22.7,6,207.38,207.38,0,0,0-42.27,19.5A172,172,0,0,0,90.13,69.71a113.82,113.82,0,0,0-14,17.1,76.92,76.92,0,0,0-8.49,16.75.87.87,0,0,1-.2.36l-.38-.25A130.81,130.81,0,0,0,18.51,82.38a5.25,5.25,0,0,1-2.71-1.19.39.39,0,0,0-.28-.22c0-.06-.07-.11-.11,0s0,.14.11.18h0c.07.09.11.21.24.25.31.19.14.64.48.83a3.32,3.32,0,0,1,.83.84,45.64,45.64,0,0,1,7.42,14.38,98.7,98.7,0,0,1,3.69,19c.29,2.56.51,5.12.7,7.68.27,3.42.46,6.84.62,10.26.1,2.29.23,4.57.5,6.84a65,65,0,0,0,2.81,12.63,53.7,53.7,0,0,0,7.88,15.49,35,35,0,0,0,9.91,9.25A24.73,24.73,0,0,0,64,182.27a27.8,27.8,0,0,0,9.2-1.79,43,43,0,0,0,5.24-2.43c0,.16.1.33.14.5l.81,3.44a1.84,1.84,0,0,0,0,.33q1.49,7,2.35,14.08a120.69,120.69,0,0,1,.9,12.6,59.08,59.08,0,0,1-.38,8.09c-.1.8-.29,1.59-.42,2.45a1.54,1.54,0,0,0,.66-.93c.24-.68.45-1.37.68-2.06h.1c0,.09,0,.22.12.27a2.67,2.67,0,0,1,.69,1.25c.63,1.78,1.08,3.61,1.58,5.43.57,2.1,1.09,4.21,1.82,6.26a4.41,4.41,0,0,0,.82,1.56c0,.12.12.22.2.16s0-.21,0-.3h0c-.19-.92-.37-1.85-.56-2.77a1.09,1.09,0,0,0-.1-.69l0-.23v-.13a1.23,1.23,0,0,0-.1-.71h0c0-.24,0-.48,0-.72a93.85,93.85,0,0,1-.38-10.86c0-.86,0-1.71,0-2.57a10.89,10.89,0,0,0,.1-2.28,2.9,2.9,0,0,0,0-.88,5,5,0,0,0,.11-1.5v-.13a1.84,1.84,0,0,0,0-.62,1.28,1.28,0,0,0,0-.27,4.43,4.43,0,0,0,.06-1v-.13a1.78,1.78,0,0,0,0-.61,2.27,2.27,0,0,0,.1-1V204h0l.06-.44a.27.27,0,0,0,0-.32h0l0-.82h0a1,1,0,0,0,0-.47,1.77,1.77,0,0,0,.1-.85V201a.77.77,0,0,0,0-.45,1.59,1.59,0,0,0,.1-.86l0-.36a1.69,1.69,0,0,0,.1-.83,1.06,1.06,0,0,0,0-.47,1.64,1.64,0,0,0,.1-.85l0-.33a1.28,1.28,0,0,0,.1-.72l0-.36a1.21,1.21,0,0,0,.1-.7l0-.36a1.66,1.66,0,0,0,.11-.83c0-.17.08-.34.11-.51.23-1.6.46-3.2.67-4.81.13-.95.35-1.89.41-2.85,0-.15.09-.3.12-.45.46-2.9,1-5.79,1.58-8.67.23-1.14.44-2.28.66-3.42.36-1.56.71-3.12,1.08-4.67a6.85,6.85,0,0,1,.41-1.52c.77.41,1.5.81,2.24,1.19a46.46,46.46,0,0,0,17.78,5.32,37.63,37.63,0,0,0,11.78-.9,41.68,41.68,0,0,0,15.06-7.15A58.43,58.43,0,0,0,153.63,152,85.13,85.13,0,0,0,165,129.11a101.13,101.13,0,0,0,3.8-15.72c.5-3.17.87-6.35,1.06-9.56.21-3.46.35-6.93.53-10.39.22-4.55.54-9.08.92-13.61q.45-5.58,1.11-11.14c.49-4,1.07-8,1.8-12a122.49,122.49,0,0,1,3.57-14.76,71.89,71.89,0,0,1,10-20.44c1.23-1.74,2.61-3.36,3.88-5.06.14,0,.19-.16.26-.27s.13-.1.1-.18S191.9,15.88,191.87,15.94ZM25.19,88.76h0a0,0,0,0,1,0,0ZM128.56,72v0h0Zm-1.71-7.13,0,0,0,0h0l0,0h0Zm0-.13h0l0,0S126.84,64.77,126.83,64.77Zm20.47-14.4h0l0,0Zm12.25,8.73h0v0ZM125.3,89.28h0l0,0,0,0ZM97.55,134.12h0Zm-.37,4.42h0ZM86,184.14a1.8,1.8,0,0,1,0,.61,1.74,1.74,0,0,0,0,.39,2.1,2.1,0,0,1-.08.56,1.76,1.76,0,0,0-.06.39,1.73,1.73,0,0,0,0,.45v.05s0,0-.06,0a.69.69,0,0,0-.12.39,1.84,1.84,0,0,1-.08.66,1.57,1.57,0,0,0,0,.3,1.8,1.8,0,0,1-.13.69,10.53,10.53,0,0,0-.29,2.37,2.05,2.05,0,0,1-.07.74,2,2,0,0,0-.05.43,1.57,1.57,0,0,0,.05.53v.2L85,193a.67.67,0,0,0-.12.39,2.56,2.56,0,0,1-.08.78,1.75,1.75,0,0,0-.05.4c0,.19,0,.38,0,.57s0,.19-.07.28a2,2,0,0,0-.05.48,2.49,2.49,0,0,1-.07.77.5.5,0,0,0,0,.12l-.11-.14h0c-.06-1.13-.22-2.25-.36-3.37-.07-.55-.1-1.11-.21-1.65a1.59,1.59,0,0,0,.07-.39,43.6,43.6,0,0,0-.61-4.55c-.53-3.44-1.27-6.85-2-10.26l-.06-.16c.37,0,.62-.25.88-.44a48.5,48.5,0,0,0,6.33-5.65l.06-.07h0a.65.65,0,0,0-.11.22c-.64,2.82-1.11,5.67-1.6,8.52C86.52,180.58,86.17,182.34,86,184.14ZM66.29,136.9h0l0,0h0v0Zm17.3,54.85v0h0s0,0,0,0Zm29.42-89a.25.25,0,0,1,0-.08l0,0A.21.21,0,0,0,113,102.78Zm-57.72,16.7h0ZM40.7,109.21h0Zm42.61,106h0v0h0S83.3,215.22,83.31,215.21Zm.54-9v0h0Zm3.82-2.38h0v0s0,0,0,0ZM18.57,84.06h0Zm64,133.32a.13.13,0,0,0,0,0v0S82.64,217.39,82.61,217.38Zm.64-1v0Zm104-195.71v0s0,0,0,0Z"/>
      <path d="M126.84,72.9a8,8,0,0,1-7.15-4.43h0a8,8,0,1,1,9,4.21A7.71,7.71,0,0,1,126.84,72.9Z"/>
      <polygon points="126.84 64.89 126.84 64.89 126.84 64.9 126.84 64.89 126.84 64.89"/>
    </g>
    <g>
      <path class="eedce7a7-0964-45bd-8ccf-6df477312143" d="M83.48,234.5a8.17,8.17,0,0,1-6.84-3.75,12.59,12.59,0,0,1-1.66-3.3c-.7-1.95-1.2-3.81-1.68-5.61l0-.16a7.61,7.61,0,0,1-.87-.51A8,8,0,0,1,69,213.3c.07-.44.15-.88.22-1.3s.12-.62.16-.93a47.38,47.38,0,0,0,.32-7,108.75,108.75,0,0,0-.85-11.76c-.32-2.72-.74-5.5-1.24-8.29a33.89,33.89,0,0,1-8.46,1.21h-.48a32.84,32.84,0,0,1-17.17-4.89,42.75,42.75,0,0,1-12.19-11.32,61.54,61.54,0,0,1-9.06-17.76,74.11,74.11,0,0,1-3.15-14.18c-.32-2.65-.45-5.23-.55-7.43-.17-3.64-.36-6.92-.6-10-.22-2.9-.44-5.25-.68-7.39a93,93,0,0,0-3.37-17.45A37.45,37.45,0,0,0,6,83.21a8.3,8.3,0,0,1-1.87-2.3,8.12,8.12,0,0,1-.92-8.34,1,1,0,0,1,0-.1,8.1,8.1,0,0,1,7.25-4.57,8,8,0,0,1,4.72,1.53l.27.18A138.37,138.37,0,0,1,58.85,87a94.1,94.1,0,0,1,5.59-9.61,120.52,120.52,0,0,1,15-18.3,178.93,178.93,0,0,1,35.33-27.5,217,217,0,0,1,43.9-20.24A196.12,196.12,0,0,1,181,5.4l.19-.14A9.08,9.08,0,0,1,182.83,4a8.07,8.07,0,0,1,10.3,12.1c-.19.25-.39.48-.59.7-.43.57-.88,1.13-1.32,1.69-.71.9-1.38,1.75-2,2.58a63.65,63.65,0,0,0-8.87,18.19,113.86,113.86,0,0,0-3.33,13.8c-.66,3.62-1.23,7.4-1.73,11.56-.41,3.41-.76,7-1.08,10.85-.41,4.89-.7,9.26-.9,13.34L173.19,92c-.12,2.44-.24,4.88-.38,7.31-.2,3.33-.59,6.81-1.15,10.35a110.52,110.52,0,0,1-4.1,17,92.65,92.65,0,0,1-12.4,25.06,66,66,0,0,1-14.66,15.18,49.75,49.75,0,0,1-17.94,8.5A45.6,45.6,0,0,1,112,176.59h0c-1.22,0-2.46-.05-3.7-.15a51,51,0,0,1-13.76-3.05c-.59,3-1.07,5.62-1.47,8.12,0,.21-.08.41-.12.58-.07.65-.17,1.22-.25,1.71,0,.26-.09.51-.13.77-.16,1.25-.34,2.49-.51,3.73l-.17,1.17c0,.1,0,.2,0,.29a38827961531578.67,38827961531578.67,0,0,1-.26,2.16,8.53,8.53,0,0,1-.12,1,9,9,0,0,1-.14,1.17,7.87,7.87,0,0,1-.12,1.2,9,9,0,0,1-.13,1.26,9.83,9.83,0,0,1-.13,1.41s0,.1,0,.15a8.16,8.16,0,0,1-.12,1.71,9.53,9.53,0,0,1-.11,1.2c0,.07,0,.14,0,.21a12.27,12.27,0,0,1-.1,1.38,4.36,4.36,0,0,1,0,.51,13.53,13.53,0,0,1-.09,1.81c0,.21,0,.41,0,.62a18.74,18.74,0,0,1-.11,2.5v.21c0,.63,0,1.26,0,1.89a85.87,85.87,0,0,0,.34,9.94l0,.34a8.37,8.37,0,0,1,.12,1,7.59,7.59,0,0,1,.14,1.08l.22,1.11a8.13,8.13,0,0,1-7.65,10.83Z"/>
      <path class="eedce7a7-0964-45bd-8ccf-6df477312143" d="M186.87,10.94h0a.69.69,0,0,0-.38.31c-.6.45-1.2.89-1.79,1.35a1.81,1.81,0,0,1-.82.37,189,189,0,0,0-22.7,6,207.38,207.38,0,0,0-42.27,19.5A172,172,0,0,0,85.13,64.71a113.82,113.82,0,0,0-14,17.1,76.92,76.92,0,0,0-8.49,16.75.87.87,0,0,1-.2.36L62,98.67A130.81,130.81,0,0,0,13.51,77.38a5.25,5.25,0,0,1-2.71-1.19.39.39,0,0,0-.28-.22c0-.06-.07-.11-.11,0s0,.14.11.18h0c.07.09.11.21.24.25.31.19.14.64.48.83a3.32,3.32,0,0,1,.83.84,45.64,45.64,0,0,1,7.42,14.38,98.7,98.7,0,0,1,3.69,19c.29,2.56.51,5.12.7,7.68.27,3.42.46,6.84.62,10.26.1,2.29.23,4.57.5,6.84a65,65,0,0,0,2.81,12.63,53.7,53.7,0,0,0,7.88,15.49,35,35,0,0,0,9.91,9.25A24.73,24.73,0,0,0,59,177.27a27.8,27.8,0,0,0,9.2-1.79,43,43,0,0,0,5.24-2.43c0,.16.1.33.14.5l.81,3.44a1.84,1.84,0,0,0,0,.33q1.49,7,2.35,14.08a120.69,120.69,0,0,1,.9,12.6,59.08,59.08,0,0,1-.38,8.09c-.1.8-.29,1.59-.42,2.45a1.54,1.54,0,0,0,.66-.93c.24-.68.45-1.37.68-2.06h.1c0,.09,0,.22.12.27a2.67,2.67,0,0,1,.69,1.25c.63,1.78,1.08,3.61,1.58,5.43.57,2.1,1.09,4.21,1.82,6.26a4.41,4.41,0,0,0,.82,1.56c0,.12.12.22.2.16s0-.21,0-.3h0c-.19-.92-.37-1.85-.56-2.77a1.09,1.09,0,0,0-.1-.69l0-.23v-.13a1.23,1.23,0,0,0-.1-.71h0c0-.24,0-.48,0-.72a93.85,93.85,0,0,1-.38-10.86c0-.86,0-1.71,0-2.57a10.89,10.89,0,0,0,.1-2.28,2.9,2.9,0,0,0,0-.88,5,5,0,0,0,.11-1.5v-.13a1.84,1.84,0,0,0,0-.62,1.28,1.28,0,0,0,0-.27,4.43,4.43,0,0,0,.06-1v-.13a1.78,1.78,0,0,0,0-.61,2.27,2.27,0,0,0,.1-1V199h0l.06-.44a.27.27,0,0,0,0-.32h0l0-.82h0a1,1,0,0,0,0-.47,1.77,1.77,0,0,0,.1-.85V196a.77.77,0,0,0,0-.45,1.59,1.59,0,0,0,.1-.86l0-.36a1.69,1.69,0,0,0,.1-.83,1.06,1.06,0,0,0,0-.47,1.64,1.64,0,0,0,.1-.85l0-.33a1.28,1.28,0,0,0,.1-.72l0-.36a1.21,1.21,0,0,0,.1-.7l0-.36a1.66,1.66,0,0,0,.11-.83c0-.17.08-.34.11-.51.23-1.6.46-3.2.67-4.81.13-.95.35-1.89.41-2.85,0-.15.09-.3.12-.45.46-2.9,1-5.79,1.58-8.67.23-1.14.44-2.28.66-3.42.36-1.56.71-3.12,1.08-4.67a6.85,6.85,0,0,1,.41-1.52c.77.41,1.5.81,2.24,1.19a46.46,46.46,0,0,0,17.78,5.32,37.63,37.63,0,0,0,11.78-.9,41.68,41.68,0,0,0,15.06-7.15A58.43,58.43,0,0,0,148.63,147,85.13,85.13,0,0,0,160,124.11a101.13,101.13,0,0,0,3.8-15.72c.5-3.17.87-6.35,1.06-9.56.21-3.46.35-6.93.53-10.39.22-4.55.54-9.08.92-13.61q.45-5.58,1.11-11.14c.49-4,1.07-8,1.8-12a122.49,122.49,0,0,1,3.57-14.76,71.89,71.89,0,0,1,10-20.44c1.23-1.74,2.61-3.36,3.88-5.06.14,0,.19-.16.26-.27s.13-.1.1-.18S186.9,10.88,186.87,10.94ZM20.19,83.76h0a0,0,0,0,1,0,0ZM123.56,67v0h0Zm-1.71-7.13,0,0,0,0h0l0,0h0Zm0-.13h0l0,0S121.84,59.77,121.83,59.77Zm20.47-14.4h0l0,0Zm12.25,8.73h0v0ZM120.3,84.28h0l0,0,0,0ZM92.55,129.12h0Zm-.37,4.42h0ZM81,179.14a1.8,1.8,0,0,1,0,.61,1.74,1.74,0,0,0,0,.39,2.1,2.1,0,0,1-.08.56,1.76,1.76,0,0,0-.06.39,1.73,1.73,0,0,0,0,.45v.05s0,0-.06,0a.69.69,0,0,0-.12.39,1.84,1.84,0,0,1-.08.66,1.57,1.57,0,0,0,0,.3,1.8,1.8,0,0,1-.13.69,10.53,10.53,0,0,0-.29,2.37,2.05,2.05,0,0,1-.07.74,2,2,0,0,0-.05.43,1.57,1.57,0,0,0,.05.53v.2L80,188a.67.67,0,0,0-.12.39,2.56,2.56,0,0,1-.08.78,1.75,1.75,0,0,0-.05.4c0,.19,0,.38,0,.57s0,.19-.07.28a2,2,0,0,0-.05.48,2.49,2.49,0,0,1-.07.77.5.5,0,0,0,0,.12l-.11-.14h0c-.06-1.13-.22-2.25-.36-3.37-.07-.55-.1-1.11-.21-1.65a1.59,1.59,0,0,0,.07-.39,43.6,43.6,0,0,0-.61-4.55c-.53-3.44-1.27-6.85-2-10.26l-.06-.16c.37,0,.62-.25.88-.44a48.5,48.5,0,0,0,6.33-5.65l.06-.07h0a.65.65,0,0,0-.11.22c-.64,2.82-1.11,5.67-1.6,8.52C81.52,175.58,81.17,177.34,81,179.14ZM61.29,131.9h0l0,0h0v0Zm17.3,54.85v0h0s0,0,0,0Zm29.42-89a.25.25,0,0,1,0-.08l0,0A.21.21,0,0,0,108,97.78Zm-57.72,16.7h0ZM35.7,104.21h0Zm42.61,106h0v0h0S78.3,210.22,78.31,210.21Zm.54-9v0h0Zm3.82-2.38h0v0s0,0,0,0ZM13.57,79.06h0Zm64,133.32a.13.13,0,0,0,0,0v0S77.64,212.39,77.61,212.38Zm.64-1v0Zm104-195.71v0h0Z"/>
      <path class="eedce7a7-0964-45bd-8ccf-6df477312143" d="M121.84,67.9a8,8,0,0,1-7.15-4.43h0a8,8,0,1,1,9,4.21A7.71,7.71,0,0,1,121.84,67.9Z"/>
      <polygon class="eedce7a7-0964-45bd-8ccf-6df477312143" points="121.84 59.89 121.84 59.9 121.84 59.9 121.84 59.9 121.84 59.89"/>
    </g>
    <g>
      <path class="edf2b640-c6b2-470f-8555-1bc50676c5b8" d="M73.43,173.05a43,43,0,0,1-5.24,2.43,27.8,27.8,0,0,1-9.2,1.79,24.73,24.73,0,0,1-13.39-3.74,35,35,0,0,1-9.91-9.25,53.7,53.7,0,0,1-7.88-15.49A65,65,0,0,1,25,136.16c-.27-2.27-.4-4.55-.5-6.84-.16-3.42-.35-6.84-.62-10.26-.19-2.56-.41-5.12-.7-7.68a98.7,98.7,0,0,0-3.69-19A45.64,45.64,0,0,0,12.07,78a3.32,3.32,0,0,0-.83-.84c-.34-.19-.17-.64-.48-.83a.14.14,0,0,1,0-.18,5.25,5.25,0,0,0,2.71,1.19A130.81,130.81,0,0,1,62,98.67l.38.25a.87.87,0,0,0,.2-.36,76.92,76.92,0,0,1,8.49-16.75,113.82,113.82,0,0,1,14-17.1,172,172,0,0,1,33.78-26.26A207.38,207.38,0,0,1,161.18,19a189,189,0,0,1,22.7-6,1.81,1.81,0,0,0,.82-.37c.59-.46,1.19-.9,1.79-1.35.13-.05.16,0,.13.13-1.27,1.7-2.65,3.32-3.88,5.06a71.89,71.89,0,0,0-10,20.44,122.49,122.49,0,0,0-3.57,14.76c-.73,4-1.31,8-1.8,12q-.66,5.55-1.11,11.14c-.38,4.53-.7,9.06-.92,13.61-.18,3.46-.32,6.93-.53,10.39-.19,3.21-.56,6.39-1.06,9.56a101.13,101.13,0,0,1-3.8,15.72A85.13,85.13,0,0,1,148.63,147a58.43,58.43,0,0,1-12.88,13.38,41.68,41.68,0,0,1-15.06,7.15,37.63,37.63,0,0,1-11.78.9,46.46,46.46,0,0,1-17.78-5.32c-.74-.38-1.47-.78-2.24-1.19a6.85,6.85,0,0,0-.41,1.52c-.37,1.55-.72,3.11-1.08,4.67-.27,0-.24-.23-.28-.41a29.84,29.84,0,0,1,.65-3.26c.22-1,.44-2,.7-3a1.19,1.19,0,0,1,.32-.71c.27-.13.35.17.53.24a47.2,47.2,0,0,0,19,6.39,36.22,36.22,0,0,0,18-2.76,44.71,44.71,0,0,0,12.12-7.73,63.43,63.43,0,0,0,12-14.45A86.15,86.15,0,0,0,159,123.83,99.28,99.28,0,0,0,163.21,105c.34-2.68.57-5.36.69-8.06s.23-5.48.39-8.22c.19-3.41.38-6.83.66-10.24.39-4.85.82-9.7,1.39-14.54a167.78,167.78,0,0,1,4.13-22.81,82.35,82.35,0,0,1,6.59-17.4,61.66,61.66,0,0,1,4.74-7.68c.11-.14.28-.23.39-.38s0-.06.08-.06-.05,0-.07,0-.26.22-.37.35c-1,1-2.1,1.73-3.15,2.6-3.14,2.57-6.25,5.18-9.28,7.88s-5.75,5.22-8.57,7.89-5.67,5.52-8.42,8.36-5.67,6-8.38,9.1c-1.13,1.29-2.25,2.58-3.46,4A25.6,25.6,0,0,1,147,53.91a25.17,25.17,0,0,1,6.88-.23c.26,0,.53,0,.68.33a.22.22,0,0,1-.11.17,1.49,1.49,0,0,1-.66.09c-1,0-2.05-.19-3.08-.13a2.8,2.8,0,0,0-.71.06,30.26,30.26,0,0,0-5.59.88,27.76,27.76,0,0,0-3.78,1.33,4.86,4.86,0,0,0-2.1,1.64.34.34,0,0,1-.19.07.25.25,0,0,1-.24-.16.72.72,0,0,1,.22-.59q2.44-3.07,5-6.06c1.85-2.2,3.79-4.32,5.7-6.47.59-.66,1.2-1.29,1.79-1.93,2.54-2.75,5.17-5.4,7.86-8,1.77-1.71,3.54-3.42,5.4-5l1.83-1.63c.33-.2.55-.52.86-.75a5.89,5.89,0,0,0,.73-.59l.07,0,.16,0a.19.19,0,0,1,.09,0c-.06,0-.08,0-.13,0a.32.32,0,0,1-.17,0,.24.24,0,0,1-.11-.24.92.92,0,0,1,.43-.48c2.54-1.93,4.86-4.12,7.32-6.14s5-4.05,7.5-6c-4,.8-7.92,1.78-11.83,2.84-3.27.88-6.51,1.87-9.72,2.94q-8.48,2.84-16.68,6.37c-3.71,1.61-7.38,3.3-11,5.13A209.71,209.71,0,0,0,114,42.35,187.55,187.55,0,0,0,95.79,55.82,146,146,0,0,0,83.4,67.54a105,105,0,0,0-12.59,16,69.63,69.63,0,0,0-9.25,21.09,49.52,49.52,0,0,0-1.31,8.65c-.07,1.27-.12,2.54-.09,3.81A43.5,43.5,0,0,0,62,128.69a49.59,49.59,0,0,0,10.24,18.18,73.48,73.48,0,0,0,12,11c.21.16.4.33.63.49.22-.18.13-.58.48-.66.16,0,.2.17.24.31a6.19,6.19,0,0,1-.63,2.49c-.27.08-.27-.14-.32-.29.17-.71-.18-1.1-.73-1.5A76.81,76.81,0,0,1,73.84,150c-.84-.87-1.61-1.79-2.42-2.68a4.71,4.71,0,0,1-.44-.56c-.14-.18-.31-.34-.44-.54a3.07,3.07,0,0,0-.41-.47,52.25,52.25,0,0,1-6.45-10.18c-.58-1.21-1.09-2.44-1.57-3.68-.21-.71-.55-1.36-.72-2.08a42,42,0,0,1-1.93-9.27,47,47,0,0,1-.08-7.5,53.34,53.34,0,0,1,2.45-12.65,1,1,0,0,0-.47-1.31,128.3,128.3,0,0,0-13.75-8.45,132.05,132.05,0,0,0-22.7-9.54q-5.22-1.65-10.58-2.8l-.74-.17c1.36,1,2.7,2.14,4.05,3.23.73.59,1.44,1.21,2.17,1.82a1.15,1.15,0,0,1,.37.45c0,.31-.25.2-.39.28a.62.62,0,0,1-.27,0,8.77,8.77,0,0,1-1.91-1.47c-1.24-1-2.53-2-3.74-3.09a1.2,1.2,0,0,1-.26-.29s0-.1,0,0,.06,0,.07.06a1.85,1.85,0,0,0,.36.38,28.06,28.06,0,0,1,2.71,4.36,56.45,56.45,0,0,1,5.21,14.82,127,127,0,0,1,2.13,14c.33,3.21.6,6.42.79,9.64.15,2.48.3,5,.39,7.43A66.83,66.83,0,0,0,29,150.13a50.51,50.51,0,0,0,9.35,16.32,31.78,31.78,0,0,0,9,7.25,24.21,24.21,0,0,0,9.16,2.74,26.88,26.88,0,0,0,14.1-2.8c.7-.32,1.39-.68,2.07-1a.76.76,0,0,1,.62-.15A.38.38,0,0,1,73.43,173.05Z"/>
      <path class="f70d2b92-c150-4498-90cc-9a97935f06fb" d="M73.43,173.05a1.1,1.1,0,0,0-.13-.56,1.25,1.25,0,0,1-.32-.71c-.72-2.83-1.48-5.65-2.3-8.45a3.56,3.56,0,0,0-1.17-1.78A30.51,30.51,0,0,0,59.67,156a36.11,36.11,0,0,0-8.19-1.91,20.25,20.25,0,0,0-9,.85c-.24.08-.59.35-.75,0s.25-.51.52-.62a17.07,17.07,0,0,1,5.63-1.27,35.39,35.39,0,0,1,16.6,3.18A33.17,33.17,0,0,1,69.33,159c-.34-1-.62-1.86-.92-2.73-1.17-3.31-2.43-6.59-3.7-9.87a7.16,7.16,0,0,0-2.4-3.2A32.23,32.23,0,0,0,54,138.58a35.87,35.87,0,0,0-8.49-2.09,20.8,20.8,0,0,0-9.56.82c-.24.08-.6.35-.75,0s.25-.51.53-.62a18.26,18.26,0,0,1,6.1-1.27,35.57,35.57,0,0,1,15.16,2.9,33.85,33.85,0,0,1,5.6,3c-1.2-2.74-2.46-5.37-3.79-8-1.2-2.35-2.46-4.66-3.75-7a4.69,4.69,0,0,0-1.37-1.4,24.07,24.07,0,0,0-12.56-5,12.59,12.59,0,0,0-5.74.5,1.68,1.68,0,0,1-.32.09c-.17,0-.37.06-.46-.15s.11-.34.27-.45a2,2,0,0,1,.3-.14,13.42,13.42,0,0,1,5.24-.85,21.29,21.29,0,0,1,5.54.73,26.68,26.68,0,0,1,6.69,2.68c-.7-1.26-1.43-2.39-2.16-3.51q-3.54-5.44-7.45-10.63a7.66,7.66,0,0,0-3-2.35,20,20,0,0,0-3.84-1.38c-.19,0-.4,0-.49-.27s.15-.21.28-.27a10.84,10.84,0,0,1,3.8,1.13,4.91,4.91,0,0,0,1.55.65.62.62,0,0,1,.3,0,6.23,6.23,0,0,1,1.43,1.6A161.91,161.91,0,0,1,55.51,126c1.87,3.29,3.65,6.62,5.29,10,2.69,5.63,5.12,11.37,7.24,17.25A182.54,182.54,0,0,1,73.68,172a35.35,35.35,0,0,1,1,4.57c0,.17,0,.37-.27.38l-.81-3.44C73.53,173.38,73.48,173.21,73.43,173.05Z"/>
      <path class="ba5d73a7-28f3-49d0-a633-c78e6e7301d3" d="M74.38,177c.14-.11.1-.27.12-.41.36.1.33.43.39.69,1.06,4.88,1.84,9.8,2.44,14.75a112.14,112.14,0,0,1,.78,16.17,21.52,21.52,0,0,1-.34,3.4c-.09.24-.12.49-.19.73s.09.07.07,0,0-.34.06-.51a7.13,7.13,0,0,1,.3-1.31c.07-.15.08-.43.38-.26a1.47,1.47,0,0,1,0,1.55c-.13,0-.08-.18-.12-.27a.12.12,0,1,0-.1,0c-.23.69-.44,1.38-.68,2.06a1.54,1.54,0,0,1-.66.93c.13-.86.32-1.65.42-2.45a59.08,59.08,0,0,0,.38-8.09,120.69,120.69,0,0,0-.9-12.6q-.86-7.1-2.35-14.08A1.84,1.84,0,0,1,74.38,177Z"/>
      <path class="b2dfdc01-7581-4f74-90c4-51b47d1d0e4b" d="M78.42,211.82a5.13,5.13,0,0,0-.11-1.61.33.33,0,0,1-.06-.19,2.44,2.44,0,0,0,0-.54c-.07-2.38.22-4.75.28-7.13a1.92,1.92,0,0,1,.27-1.07c.35-.07.3.22.33.4a5.62,5.62,0,0,1,0,.82c0,2.83-.33,5.65-.28,8.48a2,2,0,0,0,.26,1,14.2,14.2,0,0,1,1.06,3c.8,2.81,1.55,5.63,2.31,8.45a2,2,0,0,0,.14.58,1.82,1.82,0,0,0,.08.29,2.49,2.49,0,0,0-.16-.55,3.23,3.23,0,0,1-.07-.69.86.86,0,0,1,.11-.5.12.12,0,0,1,.18,0l0,.23c.11.22,0,.47.1.69l.56,2.77c0,.13,0,.17-.15.14a4.41,4.41,0,0,1-.82-1.56c-.73-2-1.25-4.16-1.82-6.26-.5-1.82-1-3.65-1.58-5.43A2.67,2.67,0,0,0,78.42,211.82Z"/>
      <path class="b6272be4-37e9-4b6d-8b6b-055a1a57d866" d="M82.79,222.49h-.12a.14.14,0,0,1-.19,0,.87.87,0,0,1-.11-.41,2.22,2.22,0,0,0-.13-.77,12.29,12.29,0,0,1-.27-2.42c-.28-4-.16-8-.14-12,0-.59.1-1.18.15-1.77a2.74,2.74,0,0,0,.11-.57c0-.3,0-.6,0-.9a5.82,5.82,0,0,1,.06-1,3.6,3.6,0,0,0,.08-1.18,4.73,4.73,0,0,1,0-.75c0-.1,0-.2.08-.3a7.51,7.51,0,0,0,0-.82,1.52,1.52,0,0,1,.1-.63.15.15,0,0,1,.27.11v.22a3.55,3.55,0,0,1,0,.86,1.78,1.78,0,0,1,0,.61.46.46,0,0,0-.06.3,4.68,4.68,0,0,1,0,1.06,1.84,1.84,0,0,1,0,.62.47.47,0,0,0-.06.31,7.29,7.29,0,0,1,0,1.32,2.9,2.9,0,0,1,0,.88c-.15.75,0,1.52-.1,2.28s0,1.71,0,2.57a93.85,93.85,0,0,0,.38,10.86c0,.24,0,.48,0,.72s0,.48.1.71Z"/>
      <path class="b6a6357e-395b-4818-93f6-a9ceaddbc406" d="M87.27,167.74c0,.14,0,.31.13.41-.22,1.14-.43,2.28-.66,3.42-.58,2.88-1.12,5.77-1.58,8.67,0,.15-.08.3-.12.45-.28,0-.25-.24-.3-.42a33.34,33.34,0,0,1,.65-4.22c.45-2.55.94-5.09,1.5-7.61C87,168.18,86.92,167.85,87.27,167.74Z"/>
      <path class="a92ec07c-c40e-4aae-9da6-742f728c9846" d="M84.89,180.25c0,.15,0,.33.15.44-.06,1-.28,1.9-.41,2.85-.21,1.61-.44,3.21-.67,4.81,0,.17-.07.34-.11.51s0,.57-.11.83l0,.36a.25.25,0,0,1-.22,0,.33.33,0,0,1-.14-.17,10.15,10.15,0,0,1,.21-2.34c.29-2.19.6-4.37,1-6.55C84.58,180.75,84.53,180.4,84.89,180.25Z"/>
      <path class="af58be46-42e8-471b-884c-4bb8fe71d26b" d="M83.47,190.05h.12a1,1,0,0,1,0,.7l0,.36c-.12.22,0,.49-.1.72l0,.33c-.14.27,0,.58-.1.85a1.06,1.06,0,0,1,0,.47c-.12.26,0,.56-.1.83l0,.36c-.12.27,0,.58-.1.86a.77.77,0,0,1,0,.45c-.42-.12-.23-.49-.3-.75a2.81,2.81,0,0,1,.06-.65,2.13,2.13,0,0,0,.08-.71,2.24,2.24,0,0,1,.06-.52,2.32,2.32,0,0,0,.06-.83,4.63,4.63,0,0,1,.18-1.48,2.93,2.93,0,0,0,.12-.72A.42.42,0,0,1,83.47,190.05Z"/>
      <path class="ed7d613a-bbdc-4a97-8fbf-15785a6458a6" d="M82.91,195.15c.08.27-.08.58.14.83v.14c-.12.27,0,.57-.1.85a1,1,0,0,1,0,.47c-.12.24,0,.5,0,.75s0,.26,0,.39l-.06.44s-.08.06-.12,0v-.14a.57.57,0,0,1-.12-.18,3.44,3.44,0,0,1-.06-.72,2.56,2.56,0,0,1,.06-.62,1.76,1.76,0,0,0,.07-.4,4.87,4.87,0,0,0,0-.54C82.68,196,82.42,195.48,82.91,195.15Z"/>
      <path class="a259107c-cdf6-42d6-a134-17483cf1afd9" d="M82.29,207.5c0-.67,0-1.33,0-2a.36.36,0,0,1,.11-.28A10.89,10.89,0,0,1,82.29,207.5Z"/>
      <path class="ff71e03e-d402-499b-9212-7befcbb272f5" d="M82.42,204.34v-1.5a.08.08,0,0,1,.12,0A5,5,0,0,1,82.42,204.34Z"/>
      <path class="a259107c-cdf6-42d6-a134-17483cf1afd9" d="M82.55,202.09v-1.23a.08.08,0,0,1,.12,0A3.63,3.63,0,0,1,82.55,202.09Z"/>
      <path class="bcd39c07-3d3e-4166-be2f-cd7a1515b32e" d="M82.69,200.12l0-1q.06-.08.12,0A2.27,2.27,0,0,1,82.69,200.12Z"/>
      <path class="f267a14b-0fec-4dc8-bec0-f33a55d493b7" d="M83.21,194.31c0-.28-.11-.58.1-.83A1.69,1.69,0,0,1,83.21,194.31Z"/>
      <path class="f267a14b-0fec-4dc8-bec0-f33a55d493b7" d="M83.08,195.53c0-.29-.11-.6.1-.86A1.59,1.59,0,0,1,83.08,195.53Z"/>
      <path class="b5e07226-5f54-478d-aeb9-bca9594aa130" d="M83.74,189.69c0-.28-.12-.58.11-.83A1.66,1.66,0,0,1,83.74,189.69Z"/>
      <path class="ae523198-7130-4a3b-9719-d4c99c1da623" d="M83,197c0-.29-.11-.59.1-.85A1.77,1.77,0,0,1,83,197Z"/>
      <path class="a259107c-cdf6-42d6-a134-17483cf1afd9" d="M82.82,198.24c0-.27-.11-.56.1-.8l0,.82Z"/>
      <path class="f267a14b-0fec-4dc8-bec0-f33a55d493b7" d="M83.35,193c0-.29-.12-.59.1-.85A1.64,1.64,0,0,1,83.35,193Z"/>
      <path class="b59b0cb5-86c6-4781-99ac-e7872fc1b1a6" d="M186.62,11.38l-.13-.13a.69.69,0,0,1,.38-.31.11.11,0,0,1,0,.17C186.81,11.22,186.76,11.34,186.62,11.38Z"/>
      <path class="f2737697-3576-4525-82b4-ca37e24c58c9" d="M83.61,190.75l0-.7h.12A1.21,1.21,0,0,1,83.61,190.75Z"/>
      <path class="b4b2066a-9557-4afc-8814-280806bca03d" d="M82.92,223.41c-.2-.21-.12-.45-.1-.69A1.09,1.09,0,0,1,82.92,223.41Z"/>
      <path class="f2737697-3576-4525-82b4-ca37e24c58c9" d="M83.48,191.83c0-.25-.1-.51.1-.72A1.28,1.28,0,0,1,83.48,191.83Z"/>
      <path class="b4b2066a-9557-4afc-8814-280806bca03d" d="M82.79,222.36c-.2-.22-.11-.47-.1-.71A1.23,1.23,0,0,1,82.79,222.36Z"/>
      <path class="f7b69621-4d91-41f5-a007-78630c1c568b" d="M10.8,76.19c0,.06,0,.12,0,.18s-.17-.16-.24-.25a.09.09,0,0,1,0-.1s0,0,0,0A.39.39,0,0,1,10.8,76.19Z"/>
      <path class="b102c535-3c85-4677-ab74-6118eab39edf" d="M83.33,226.32c.09,0,.11-.08.15-.14.09.09.17.21,0,.3S83.34,226.44,83.33,226.32Z"/>
      <path class="a681cdfc-56c9-4f24-826b-039c4cd8176a" d="M82.82,198.24s.05,0,.07,0a.27.27,0,0,1,0,.32Z"/>
      <path class="ac70cc1e-3fa3-48b8-ad74-4cdd3140ae3e" d="M186.88,11.11v-.17c0-.06.08-.09.11,0S187,11.07,186.88,11.11Z"/>
      <path class="ab4982d1-4d16-485c-932d-33fd640e0b39" d="M78.2,211.55c0-.09,0-.22.06-.21s.07.13,0,.21h-.1Z"/>
      <path class="e1c83f06-277d-4151-92f6-f1bf86f16e8a" d="M10.52,76v.15c-.08,0-.15-.1-.11-.18S10.5,75.91,10.52,76Z"/>
      <path class="a259107c-cdf6-42d6-a134-17483cf1afd9" d="M82.79,199.15h-.12V199h.12Z"/>
      <path class="a259107c-cdf6-42d6-a134-17483cf1afd9" d="M82.66,200.86h-.12l.12-.13Z"/>
      <path class="a259107c-cdf6-42d6-a134-17483cf1afd9" d="M82.53,202.84h-.12l.12-.13Z"/>
      <path class="acb6ebeb-2834-4b21-be30-403d3cb3e554" d="M154.56,54a8.38,8.38,0,0,0-2.22-.23,27.65,27.65,0,0,0-10.08,1.54c-.66.24-1.3.52-2.1.84.25-.34.41-.58.6-.8,1.4-1.59,2.78-3.21,4.21-4.79s2.84-3.11,4.27-4.66c3.37-3.67,6.91-7.19,10.47-10.67,2.07-2,4.21-4,6.34-5.95,1.55-1.42,3.13-2.82,4.72-4.2,1.89-1.63,3.79-3.25,5.72-4.84,1.78-1.47,3.57-2.91,5.37-4.34.14,0,.17,0,.15.13-.84,1.29-1.72,2.55-2.52,3.86a70.73,70.73,0,0,0-4.41,8.46,81.16,81.16,0,0,0-3.17,8.5c-1.1,3.48-2,7-2.73,10.56-.53,2.49-1,5-1.4,7.49-.27,1.61-.45,3.25-.71,4.87-.31,1.92-.49,3.86-.75,5.79-.19,1.45-.28,2.92-.43,4.38-.12,1.18-.28,2.35-.35,3.53,0,.72-.12,1.44-.18,2.16-.1,1.46-.23,2.92-.36,4.38-.05.7-.07,1.4-.12,2.1-.06.94-.14,1.88-.18,2.82-.07,1.87-.21,3.73-.29,5.59,0,.7-.07,1.4-.1,2.1-.09,2-.16,4-.28,6-.09,1.49-.22,3-.39,4.45q-.36,3.09-.87,6.17-.79,4.67-2,9.24a96.75,96.75,0,0,1-3.7,11.17,88,88,0,0,1-3.75,8.13,73.18,73.18,0,0,1-7,11,66.2,66.2,0,0,1-4.38,5.08,48.82,48.82,0,0,1-9.75,8,38.35,38.35,0,0,1-13.39,5.29c-1.42.27-2.85.43-4.29.56a33.27,33.27,0,0,1-4.35.06,39.77,39.77,0,0,1-6.24-.81A50.11,50.11,0,0,1,91,162.16l-1.85-1a1.88,1.88,0,0,1,0-1.28c1.09-4.37,2.35-8.69,3.5-13A7.3,7.3,0,0,1,95.56,143a55.55,55.55,0,0,1,28.08-11,31.28,31.28,0,0,1,13.14,1.26c.29.1.57.22.86.34a25,25,0,0,0-7.95-2,43.89,43.89,0,0,0-7.43-.07,54,54,0,0,0-11.7,2.14,58.14,58.14,0,0,0-7.84,2.91,48.25,48.25,0,0,0-7.21,4.08c-.21.14-.42.43-.69.2s-.08-.49,0-.74c1.2-3.84,2.56-7.61,4-11.38,1.27-3.42,2.64-6.8,4-10.17a7.87,7.87,0,0,1,2.47-2.86,41.66,41.66,0,0,1,10.17-6.28A56.74,56.74,0,0,1,130.06,105a49.81,49.81,0,0,1,8.45-.66,27.73,27.73,0,0,1,9.33,1.79,29.26,29.26,0,0,0-8.6-2,44.73,44.73,0,0,0-4.48-.1,49.64,49.64,0,0,0-9.71,1.24,57.1,57.1,0,0,0-14,5,45.47,45.47,0,0,0-5.18,3.14,2.61,2.61,0,0,1-.27.19c-.15.08-.32.2-.48.05s0-.29,0-.44c.26-.68.57-1.33.87-2,2-4.38,4.07-8.72,6.3-13,1.62-3.12,3.28-6.21,5-9.25a7.36,7.36,0,0,1,2.06-2.1,38.52,38.52,0,0,1,18.56-7.79,23.78,23.78,0,0,1,9.54.37c.28.07.55.17.82.26a1.76,1.76,0,0,1,.39.14,10.64,10.64,0,0,0-1.24-.46c-.5-.15-1-.29-1.52-.4s-1-.23-1.49-.29a25.45,25.45,0,0,0-4.26-.31,40.18,40.18,0,0,0-13.77,2.94,33,33,0,0,0-5.4,2.74.34.34,0,0,1-.11.07c-.19.09-.4.32-.59.12s0-.41.12-.6c1.2-2,2.46-4,3.72-6,3.45-5.39,7.12-10.61,11-15.72.68-.89,1.34-1.79,2.08-2.63a8,8,0,0,1,2.26-1.59,28.09,28.09,0,0,1,9.81-3.28,37.69,37.69,0,0,1,4.87-.17,15.24,15.24,0,0,1,5.92,1.51,15.09,15.09,0,0,0-4.84-1.61C155,54.13,154.74,54.14,154.56,54Z"/>
      <path class="acb6ebeb-2834-4b21-be30-403d3cb3e554" d="M85.31,157.74a1,1,0,0,0-.14.44.8.8,0,0,1-.21.45c-.9-.67-1.8-1.33-2.68-2-1.81-1.4-3.54-2.89-5.21-4.44-1.31-1.23-2.57-2.52-3.79-3.85A57.2,57.2,0,0,1,68,141.67a47.23,47.23,0,0,1-5.71-11.38,42.17,42.17,0,0,1-1.75-7c-.23-1.4-.37-2.82-.47-4.24S60,116.33,60,115c0-1.51.17-3,.34-4.52a51.72,51.72,0,0,1,1.42-7.28A60.21,60.21,0,0,1,64.57,95a79.5,79.5,0,0,1,5.57-10.67Q72.49,80.55,75.2,77c1.35-1.79,2.77-3.51,4.21-5.22A142,142,0,0,1,89.66,61.05c1.77-1.7,3.63-3.31,5.5-4.9,3.19-2.73,6.48-5.32,9.86-7.8q5.43-4,11.16-7.58c2.74-1.71,5.5-3.37,8.31-5,2.53-1.43,5.09-2.78,7.67-4.11C135.4,30,138.69,28.48,142,27q4.55-2,9.17-3.85c2.8-1.09,5.63-2.11,8.47-3.09a185.56,185.56,0,0,1,17.94-5.16c1.7-.4,3.42-.76,5.13-1.13a1.87,1.87,0,0,1,.44,0c-.68.55-1.28,1.05-1.89,1.52-1.82,1.42-3.6,2.87-5.37,4.34q-3.15,2.61-6.22,5.29c-.62.55-1.32,1-2,1.53a1.67,1.67,0,0,0-.23.23c-.32.59-.93.86-1.42,1.25-2.49,2-5,4.1-7.39,6.25s-4.74,4.31-7.06,6.52c-1.56,1.48-3.11,3-4.6,4.53-1.11,1.15-2.23,2.29-3.33,3.46-.14.16-.26.4-.52.32s-.22-.36-.24-.57a7.49,7.49,0,0,0-.09-1.77,24.78,24.78,0,0,0-4.3-11.18,24.09,24.09,0,0,1,3.79,10.28c0,1.18.2,2.35,0,3.54a2.92,2.92,0,0,1-.75,1.69c-3.29,3.53-6.39,7.21-9.43,11-2.36,2.91-4.63,5.89-6.85,8.91-.13.18-.26.42-.49.39s-.28-.37-.3-.59c-.14-1.09-.15-2.19-.36-3.26a2.7,2.7,0,0,0-.08-.39A36.22,36.22,0,0,0,118,52.64a35.37,35.37,0,0,1,5.6,14.79c.18,1.57.11,3.16.14,4.74a2.64,2.64,0,0,1-.53,1.64c-4.17,5.9-8.09,12-11.71,18.23-1,1.71-2,3.44-2.91,5.16,0,.08-.08.16-.13.23s-.2.33-.4.29-.22-.25-.22-.42c0-.55-.12-1.09-.14-1.64a47.85,47.85,0,0,0-2-11.64A61.07,61.07,0,0,0,98.1,67.65c-.46-.72-.92-1.44-1.4-2.15.83,1.31,1.64,2.64,2.39,4s1.46,2.76,2.13,4.16a55.44,55.44,0,0,1,4.71,15,64.17,64.17,0,0,1,.51,10.91,7.37,7.37,0,0,1-1,3.67c-1.27,2.18-2.26,4.51-3.35,6.79q-2,4.11-3.71,8.3c-1.14,2.71-2.26,5.43-3.3,8.18a4.93,4.93,0,0,1-.27.67c-.08.15-.13.37-.36.31s-.25-.24-.27-.42c0-.35,0-.7,0-1a51.35,51.35,0,0,0-.64-6.54,52.23,52.23,0,0,0-1.77-7.69,65.24,65.24,0,0,0-5-11.76,85.43,85.43,0,0,0-4.92-7.95,75.49,75.49,0,0,1,4.57,8.2,60.9,60.9,0,0,1,5.37,16.4,40.24,40.24,0,0,1,.71,8,7.56,7.56,0,0,1,.06,1.84,4,4,0,0,0,0,1,40.7,40.7,0,0,1-.27,4.81,20.42,20.42,0,0,1-.88,4.56c-2.21,6.45-4,13-5.65,19.63C85.6,157,85.64,157.45,85.31,157.74Z"/>
      <path class="bc8f12bb-6ca9-4275-aa7f-9021f1dcd5ab" d="M35.7,104.21c.88.26,1.77.49,2.63.8a14.23,14.23,0,0,1,3.56,1.81,7.68,7.68,0,0,1,1.54,1.78c2.57,3.36,5,6.84,7.27,10.39.79,1.21,1.57,2.43,2.27,3.68-.17.16-.26,0-.36,0a25.23,25.23,0,0,0-8.74-3.13,26.17,26.17,0,0,0-2.93-.28,14.14,14.14,0,0,0-5.8.81c-.2.08-.42.11-.54.32,0,.2.18.15.31.1a12.32,12.32,0,0,1,2.48-.61l.71-.07a22.68,22.68,0,0,1,10.19,1.9,23.43,23.43,0,0,1,6,3.69,6.41,6.41,0,0,1,1.34,1.92q2.61,4.62,4.91,9.4c.79,1.64,1.53,3.3,2.29,5-.16.16-.27,0-.35,0a30,30,0,0,0-6.19-3.32,32.85,32.85,0,0,0-5.12-1.65,39.32,39.32,0,0,0-5.49-.92,30.94,30.94,0,0,0-4.08-.08,17.82,17.82,0,0,0-5.94,1.25c-.2.08-.49.11-.5.49.7-.18,1.35-.44,2-.62a19.5,19.5,0,0,1,6.58-.59,35.18,35.18,0,0,1,7.79,1.44,37.32,37.32,0,0,1,7,2.94,21.29,21.29,0,0,1,4.43,3,2.55,2.55,0,0,0,.31.24,3.68,3.68,0,0,1,1.24,1.81c1.3,3.28,2.61,6.56,3.74,9.9.42,1.22.82,2.45,1.26,3.66-.18.11-.28,0-.38-.07a34,34,0,0,0-10.07-4.58,37.74,37.74,0,0,0-5.46-1.11,10.94,10.94,0,0,0-2.29-.17,2.88,2.88,0,0,1-1-.09,1.13,1.13,0,0,0-.45,0,24,24,0,0,0-6.53,1c-.44.15-.86.33-1.29.51-.13.06-.29.11-.27.31s.15.07.23,0a16.47,16.47,0,0,1,5-1.09,18.36,18.36,0,0,1,2-.09,43.93,43.93,0,0,1,4.57.46,37.16,37.16,0,0,1,6.21,1.65,31.61,31.61,0,0,1,9,4.83c.31.24.6.51.9.76a3.5,3.5,0,0,1,1.14,1.86c.87,2.94,1.63,5.9,2.4,8.87a1.09,1.09,0,0,1,0,.26c-1.29.66-2.56,1.35-3.9,1.91A29.11,29.11,0,0,1,62,176.49a23.45,23.45,0,0,1-12.57-1.63,28.9,28.9,0,0,1-7.9-5.05,38.79,38.79,0,0,1-6.18-7,56.08,56.08,0,0,1-7.8-16.89,69.27,69.27,0,0,1-1.79-8.42c-.21-1.4-.36-2.82-.45-4.24-.12-1.75-.19-3.51-.27-5.26-.1-2.28-.23-4.55-.39-6.83s-.31-4.33-.53-6.48c-.26-2.49-.52-5-.87-7.44A101.37,101.37,0,0,0,21.33,97a53.81,53.81,0,0,0-4.86-13.18c-.81-1.51-1.73-3-2.67-4.38a.14.14,0,0,1,0-.2C15,80.1,16.1,81.05,17.24,82c.8.64,1.54,1.35,2.38,2a9.58,9.58,0,0,1,2,1.62c.6.51,1.21,1,1.76,1.57,3,2.68,5.89,5.48,8.73,8.34.49.49.88,1.09,1.41,1.54,1.39,1.39,2.65,2.89,4,4.3l.11.15c.23.38.6.64.86,1,.51.54,1,1.13,1.48,1.67.15.16.34.35.2.58s-.4.13-.59,0a16.88,16.88,0,0,0-4.53-1.06,13.11,13.11,0,0,0-7.13,1,11,11,0,0,1,5.9-.81A4.47,4.47,0,0,1,35.7,104.21Z"/>
      <path class="bc8f12bb-6ca9-4275-aa7f-9021f1dcd5ab" d="M20.19,83.76c-.94-.89-2-1.7-3-2.51-1.36-1.11-2.73-2.21-4.06-3.39,1,.21,2,.42,3,.65A123,123,0,0,1,29.5,82.43q5.14,1.83,10.13,4.07c3,1.38,6,2.85,9,4.44A126.56,126.56,0,0,1,61.83,99.2c.44.31.44.31.29.79a59,59,0,0,0-2.1,8.68c-.21,1.37-.34,2.74-.46,4.12s-.12,2.76-.11,4.14A43.15,43.15,0,0,0,61,127.77c.18.68.4,1.34.59,2-.18.39,0,.81-.06,1.21a2.66,2.66,0,0,1-.11.84c-.39.19-.43-.19-.53-.37-1.14-2.05-2.3-4.1-3.52-6.1q-2.73-4.52-5.77-8.81a2.55,2.55,0,0,1-.46-1.41,20.17,20.17,0,0,1,3.47-12.1,22.92,22.92,0,0,0-3.72,8.8,18.4,18.4,0,0,0-.24,2c0,.24,0,.59-.32.66s-.4-.24-.54-.43q-2.32-3.15-4.81-6.18c-1.49-1.81-3-3.61-4.6-5.32-.33-.36-.6-.76-1-1.1a1.13,1.13,0,0,1-.28-.85c0-.77,0-1.54,0-2.31a15.61,15.61,0,0,1,2.36-6.44,16.12,16.12,0,0,0-2.61,6.52,4.13,4.13,0,0,0-.09,1.11c0,.27.11.65-.2.76s-.49-.23-.68-.43c-1.32-1.31-2.65-2.62-4-4-2.71-2.75-5.61-5.29-8.57-7.76C24,87,22.63,85.9,21.25,84.82A4.64,4.64,0,0,1,20.19,83.76Z"/>
      <path class="a681cdfc-56c9-4f24-826b-039c4cd8176a" d="M82.91,195.15a3.91,3.91,0,0,0-.13,1.32,1.71,1.71,0,0,0,0,.55.44.44,0,0,1,0,.28l0,.62a2.9,2.9,0,0,0-.05.78.26.26,0,0,1,0,.19l0,.62a3.38,3.38,0,0,0,0,.9.34.34,0,0,1,0,.19l0,.75c-.14.4,0,.82-.1,1.22l0,1a4.23,4.23,0,0,0,0,.94,1,1,0,0,1,0,.42,108.08,108.08,0,0,0,.26,16.49c.11.21,0,.47.1.68l0,.37c.09.17,0,.35,0,.53s.18.45-.18.51c-.62-1.85-1.07-3.74-1.59-5.62-.45-1.65-.86-3.31-1.44-4.92a2.83,2.83,0,0,0-.62-1.22c-.18-.17-.11-.36-.1-.55,0-2.65.19-5.3.32-7.95,0-.22,0-.44,0-.66a.84.84,0,0,0,.05-.52,16.72,16.72,0,0,1,0-2.74,3,3,0,0,1,0-.67,2.91,2.91,0,0,0,.09-.93.74.74,0,0,1,0-.21,3.22,3.22,0,0,1,0-.63,3,3,0,0,0,.08-.94,2.76,2.76,0,0,1,0-.64,3.1,3.1,0,0,0,.08-1c.11-.62.11-1.25.17-1.87a2,2,0,0,0,.09-.73,4.21,4.21,0,0,1,0-.62,2,2,0,0,0,.09-.69,2.61,2.61,0,0,1,0-.48,1.56,1.56,0,0,0,.09-.47v-.29a2,2,0,0,1,0-.48,1.62,1.62,0,0,0,.07-.58,3.15,3.15,0,0,1,.06-.61,2.15,2.15,0,0,0,.07-.62c.12-1.17.29-2.33.43-3.5a2,2,0,0,0,.1-.6,2.52,2.52,0,0,1,.06-.48,2.36,2.36,0,0,0,.08-.45c0-.06,0-.12,0-.18a2.14,2.14,0,0,1,.06-.35,1.55,1.55,0,0,0,.07-.43,1.09,1.09,0,0,1,0-.18,1.58,1.58,0,0,1,.05-.38,2.46,2.46,0,0,0,.07-.6c.51-3.43,1.06-6.84,1.7-10.24.3-1.59.6-3.18.93-4.77.07-.5.25-1,.31-1.49.21-.68.29-1.39.46-2.08a1.43,1.43,0,0,1,.31-.7,20.52,20.52,0,0,0,.55-2.47,34.89,34.89,0,0,1,1.12-5c1-4,2.15-8,3.41-12,1.76-5.58,3.64-11.12,5.82-16.56q2.78-7,5.9-13.76,2.91-6.32,6.22-12.42,3.49-6.44,7.36-12.67c1.94-3.1,4-6.15,6-9.17,2.27-3.36,4.65-6.63,7.12-9.84,2.19-2.84,4.43-5.64,6.75-8.38q3.24-3.81,6.59-7.51c2.43-2.69,4.95-5.3,7.51-7.86q3-3,6-5.78c2.67-2.43,5.38-4.82,8.17-7.13a.84.84,0,0,1,.58-.26c.11,0,.19.08.14.21l-2.06,1.94a231.51,231.51,0,0,0-23.65,25.55c-.11.14-.19.29-.29.43a6.15,6.15,0,0,1-1.29,1.82c-1.88,2.36-3.66,4.79-5.43,7.24q-4,5.49-7.59,11.2c-2,3.19-4,6.46-5.89,9.73-1.43,2.45-2.78,4.93-4.14,7.41-1.68,3.08-3.26,6.22-4.8,9.37-2,4.2-3.93,8.48-5.76,12.78Q100.44,124.15,98,131c-1.64,4.51-3.1,9.08-4.54,13.66-1.56,5-2.91,10-4.2,15.07-.09.35,0,.76-.34,1-.4,1.21-.62,2.46-.91,3.7-.25,1.08-.54,2.16-.69,3.27a25.82,25.82,0,0,0-.64,2.87c-.63,3-1.16,6-1.68,9,0,.22,0,.44-.06.66a22.78,22.78,0,0,0-.49,2.84c-.33,2.14-.61,4.29-.91,6.44a4.43,4.43,0,0,0,0,.52l0,.23c-.12.22,0,.47-.11.69a9,9,0,0,0-.16,1.55c-.13.26,0,.56-.1.82l0,.49c-.11.22,0,.48-.1.7Z"/>
      <path class="bc8f12bb-6ca9-4275-aa7f-9021f1dcd5ab" d="M71.47,147.16c.55.6,1.11,1.18,1.65,1.79a67.7,67.7,0,0,0,7,6.63c1.37,1.15,2.79,2.26,4.25,3.3.39.28.6.55.39,1a.66.66,0,0,0,0,.2,20.86,20.86,0,0,1-.51,2.71,2.63,2.63,0,0,1-.83,1.59,54.49,54.49,0,0,1-6.6,5.92c-.26.19-.49.47-.87.38a.92.92,0,0,1-.34-.61c-1.12-4.65-2.41-9.25-4-13.77a10.76,10.76,0,0,1-.39-2.53,2.94,2.94,0,0,0-.09-1,4.17,4.17,0,0,1,0-.71c0-1.39,0-2.79,0-4.18C71.16,147.64,71,147.28,71.47,147.16Z"/>
      <path class="a4326409-4802-465e-84b6-fe6ee031cfb3" d="M88.87,160.77a27.28,27.28,0,0,1,.71-3.07A281.42,281.42,0,0,1,102.06,120a265.51,265.51,0,0,1,16-32.6,249.05,249.05,0,0,1,17-25.56c.93-1.23,1.88-2.43,2.82-3.65.08-.1.19-.18.28-.28l.12.15c.25.28.24-.16.4-.14a23.69,23.69,0,0,1,4.9-2.34,22.64,22.64,0,0,1,6.14-1.35,9.74,9.74,0,0,1,1.1-.12h.53c.14,0,.28,0,.42,0a6.61,6.61,0,0,0,1.66.08,1.42,1.42,0,0,1,.41,0c.23,0,.47.07.68-.06V54c.23,0,.47-.06.68.12-.27,0-.14.32-.32.35s-.51-.07-.75,0c-.82,0-1.63,0-2.44,0a25.72,25.72,0,0,0-9.2,2c-.9.37-1.75.82-2.62,1.24a9.76,9.76,0,0,0-3.62,3c-3.84,5.07-7.54,10.24-11,15.57-1.65,2.54-3.25,5.11-4.83,7.69,0,.08-.07.16-.16.37l1.3-.78a36.92,36.92,0,0,1,8.31-3.6,39.16,39.16,0,0,1,5.63-1.28,24.37,24.37,0,0,1,3.07-.31c.66,0,1.32-.12,2-.1a24.44,24.44,0,0,1,6.75.93c.62.2,1.23.47,1.84.71.1,0,.2.09.21.22-.2.19-.38,0-.55,0a17.82,17.82,0,0,0-4.08-1,26.56,26.56,0,0,0-4.8-.08,30.4,30.4,0,0,0-5.26.8,39.23,39.23,0,0,0-10,3.77A34.25,34.25,0,0,0,118.34,88a5.43,5.43,0,0,0-1.11,1.46L114,95.33c-1.72,3.14-3.32,6.34-4.88,9.56-1.39,2.87-2.75,5.74-4,8.67.16.12.26,0,.35-.08a46.33,46.33,0,0,1,9.24-5.13,56.8,56.8,0,0,1,9.05-3,62.45,62.45,0,0,1,6.39-1.17,44.69,44.69,0,0,1,8-.35,27,27,0,0,1,9.89,2.18l.3.13a.16.16,0,0,1,.07.22.21.21,0,0,1-.17.06l-.37-.14a24,24,0,0,0-5.45-1.44,33,33,0,0,0-6.36-.35c-1.31.07-2.62.18-3.93.34a52.24,52.24,0,0,0-7.22,1.38,56.84,56.84,0,0,0-8.68,3,48.81,48.81,0,0,0-8.45,4.7,28.2,28.2,0,0,0-4.22,3.56,2.52,2.52,0,0,0-.52.83c-1.73,4.22-3.42,8.46-5,12.75q-1.38,3.84-2.68,7.71c-.23.65-.41,1.32-.61,2,.23.1.31,0,.41-.1a45.82,45.82,0,0,1,8.5-4.72,59.43,59.43,0,0,1,10.56-3.42c1.71-.38,3.44-.66,5.17-.91a44.74,44.74,0,0,1,8-.36,27.46,27.46,0,0,1,10.41,2.26c.13.06.13.06.33.35-.18.12-.33,0-.49-.05a24.83,24.83,0,0,0-6.3-1.55,33.82,33.82,0,0,0-5.51-.2c-1.29.06-2.58.17-3.86.33a52.19,52.19,0,0,0-6.9,1.33,59.26,59.26,0,0,0-8.27,2.82,49.09,49.09,0,0,0-9.15,5,32.61,32.61,0,0,0-4,3.33,1.93,1.93,0,0,0-.51.83c-.81,2.75-1.61,5.51-2.35,8.29q-.76,2.88-1.49,5.79a3.28,3.28,0,0,0-.22,1.35C89,161.1,89,160.85,88.87,160.77Z"/>
      <path class="a9d8785f-4ec2-417a-918a-0a68c47fd99f" d="M164,29.81c-1,.74-2,1.57-2.9,2.39q-5.51,4.71-10.68,9.8-7.55,7.38-14.36,15.43a235.81,235.81,0,0,0-18.39,24.73q-6.19,9.59-11.45,19.71A240,240,0,0,0,90.3,140.54q-2.67,8.47-4.72,17.12a.69.69,0,0,1-.13.37.33.33,0,0,0-.14-.29c.22-1.4.62-2.77,1-4.14,1.07-4.22,2.24-8.41,3.56-12.56.51-1.63,1-3.26,1.58-4.87a10.25,10.25,0,0,0,.46-2.24c.05-.46.13-.91.16-1.37.32,0,.25.26.26.46s0,.38-.12.53c.19-.13.09-.34.13-.52.36-1.22.83-2.4,1.26-3.59a4.79,4.79,0,0,0,.26-1.54,49,49,0,0,0-.49-7.06,4.23,4.23,0,0,1,0-.79c.06-.21,0-.5.31-.55a22.05,22.05,0,0,1,.4,2.79,41.56,41.56,0,0,1,.29,4.86.3.3,0,0,0,.15.31,1.46,1.46,0,0,0,.27-.56c1-2.75,2.14-5.47,3.27-8.18q1.2-2.85,2.49-5.66,2.19-4.83,4.58-9.56a2.63,2.63,0,0,1,.21-.41,6,6,0,0,0,1-3.67c0-1.91,0-3.82,0-5.73,0-1.22-.19-2.44-.34-3.66a50.16,50.16,0,0,0-1.21-6.31A54.34,54.34,0,0,0,102.05,76a74.18,74.18,0,0,0-5.54-10.46c-.08-.13-.15-.26-.22-.4s0-.08,0-.12c.73.36,3.86,5.49,6.07,10a56.4,56.4,0,0,1,4,11.11A55.35,55.35,0,0,1,108,97.78a11.18,11.18,0,0,0,1-1.62c1.84-3.34,3.78-6.63,5.78-9.88s4-6.37,6.17-9.49c.76-1.13,1.55-2.23,2.34-3.34a1.44,1.44,0,0,0,.3-.85c0-1.27,0-2.55,0-3.82a9,9,0,0,1-.1-1.37c.13-.11,0-.37.2-.43a.24.24,0,0,1,.15.13A26.42,26.42,0,0,1,124,72a1.42,1.42,0,0,0,.21-1.06c0-1.16-.24-2.31-.27-3.47a.73.73,0,0,1,.27-.47,6.11,6.11,0,0,1,.26,1.34c.16.92.07,1.87.28,2.79.18,0,.24-.11.31-.21,2.08-2.91,4.27-5.73,6.5-8.52q2.37-3,4.84-5.82c1.69-2,3.38-3.92,5.15-5.81a2.43,2.43,0,0,0,.63-1.51c.13-1.17-.08-2.32,0-3.48.14-.11,0-.36.19-.43a.21.21,0,0,1,.17.12c.17.44,0,.92.15,1.35.08.74,0,1.48,0,2.12,0-.41,0-.93,0-1.45.11-.26,0-.58.25-.8.2.26.11.55.12.83,0,.45,0,.9,0,1.33.26.07.32-.07.4-.17s.19-.23.3-.34c2.29-2.34,4.51-4.74,6.87-7,1.57-1.5,3.13-3,4.74-4.47q2.76-2.52,5.61-5c2.06-1.77,4.14-3.51,6.31-5.15a1,1,0,0,1,.17-.1l.13.14s.06.06,0,.09,0,0,0,0h0a10.2,10.2,0,0,1-.9.69,3.75,3.75,0,0,1-.8.69A10.2,10.2,0,0,1,164,29.81Z"/>
      <path class="e5414dcc-15a3-4050-aa7b-d2ad787c8f90" d="M71.32,152.21v.64c.16.3,0,.64.12.93a14.14,14.14,0,0,0,.53,3c1.51,4.38,2.73,8.85,3.82,13.36a.84.84,0,0,0,.28.57,5.93,5.93,0,0,1,.24.71c.7,3.41,1.44,6.82,2,10.26a43.6,43.6,0,0,1,.61,4.55c0,.22,0,.45-.23.58-.36-.14-.34-.48-.37-.77q-.8-5.81-2-11.55A162.13,162.13,0,0,0,72,158.09a158.89,158.89,0,0,0-6.18-16c-1.9-4.25-4-8.39-6.32-12.45a154.11,154.11,0,0,0-11.05-16.85c-2.7-3.58-5.58-7-8.57-10.35-2.5-2.78-5.15-5.4-7.82-8-1.23-1.21-2.52-2.38-3.85-3.49-.43-.52-1-.86-1.49-1.36l-1-.84-.13-.1a1.45,1.45,0,0,1-.18-.17.39.39,0,0,1-.11-.29.23.23,0,0,1,.18-.15c1,.75,1.92,1.59,2.86,2.4,3.53,3,6.74,6.34,10,9.62.06.06.14.1.26.21a6.72,6.72,0,0,0,.07-1.06c0-.26-.08-.53.12-.76a5.61,5.61,0,0,1,.19.67,3.56,3.56,0,0,1,0,.93,2.65,2.65,0,0,0-.06-1.42c0-.34.12-.47.45-.3,0,.77,0,1.54,0,2.31a1.14,1.14,0,0,0,.34.87c1.67,1.86,3.32,3.73,4.91,5.66,2,2.37,3.85,4.82,5.77,7.37a5,5,0,0,0,.19-.92,19.66,19.66,0,0,1,1.62-6.39,23.78,23.78,0,0,1,2.44-4.35,2.56,2.56,0,0,1,.2-.26s.08,0,.13,0c.15.19,0,.32-.1.46a25.44,25.44,0,0,0-2.7,5.76,16,16,0,0,0-.8,4.9c0,.59,0,1.19,0,1.78a1.31,1.31,0,0,0,.29.85q2.4,3.38,4.6,6.89,1.74,2.75,3.36,5.57c.6,1.05,1.18,2.1,1.77,3.15.54.39.64,1,1,1.55A145,145,0,0,1,69.76,150c.06-1.24.18-2.66.39-4.06a.29.29,0,0,1,.15-.21,1,1,0,0,1,.36.43,8,8,0,0,1-.12,2c-.13,1-.05,2-.19,2.94-.09.6.31,1.13.45,1.7a6,6,0,0,1,.25.75,1.07,1.07,0,0,0,.1.5c0-.09-.06-.15-.07-.23,0-.24,0-.47-.06-.71S70.86,152.36,71.32,152.21Z"/>
      <path class="bc8f12bb-6ca9-4275-aa7f-9021f1dcd5ab" d="M70.3,145.72l-.45,4.88c-.44-1.08-.85-2.06-1.24-3-.67-1.74-1.42-3.44-2.18-5.15q-1.59-3.6-3.38-7.13c-.31-.6-.63-1.2-.95-1.8,0-.53-.27-1.09.14-1.59.35.82.7,1.64,1.07,2.46A50.38,50.38,0,0,0,70,145.24C70.08,145.4,70.18,145.56,70.3,145.72Z"/>
      <path class="e84a7740-47c9-4424-a663-88b9f898e9a2" d="M25.43,88l-.13.13c-.07.09-.15,0-.22,0,.14.07.21.21.33.3l.15.08h0c.42.28.71.7,1.14,1,.49.44,1,.88,1.45,1.35,1.86,1.74,3.66,3.55,5.4,5.39,2.72,2.87,5.31,5.84,7.77,8.94a.68.68,0,0,1,.22.59l-.14.16a17,17,0,0,0-4.57-1.79c-.23,0-.47-.11-.7-.14a3.13,3.13,0,0,0-.91-.13,4.26,4.26,0,0,0-1.23-.13,3.69,3.69,0,0,1,1.15.12c.26.06.55,0,.78.15l.06.08c-.06.11-.16.12-.27.13a10.39,10.39,0,0,1-1.76-.17,11,11,0,0,0-6.15.89l-.24.11a.12.12,0,0,1-.17-.05.14.14,0,0,1,.07-.21,13.26,13.26,0,0,1,1.42-.69,12.56,12.56,0,0,1,3.79-.69,19.61,19.61,0,0,1,6.15.84,8.57,8.57,0,0,0,1.29.45c.12-.18,0-.26-.11-.35l-1.45-1.61a.53.53,0,0,1-.19-.33c-.17-.4-.57-.61-.8-1h0c-1.31-1.51-2.66-3-4-4.43-3.23-3.45-6.65-6.71-10.15-9.88-1.13-.95-2.21-2-3.36-2.9-.13-.11-.34-.22-.28-.47s.29,0,.44,0c.57.23.89.76,1.36,1.11,1.26.94,2.48,1.93,3.71,2.91C25.33,87.84,25.37,87.92,25.43,88Z"/>
      <path class="be19cfc7-2600-4d65-9650-715d7792c508" d="M150.86,54.21A27.78,27.78,0,0,0,138.75,58l-.12,0a.17.17,0,0,1-.21,0,4.19,4.19,0,0,1,1.94-1.68,26.23,26.23,0,0,1,7.81-2.16,17.56,17.56,0,0,1,1.77-.13,3.09,3.09,0,0,1,.86,0C150.89,54.08,150.9,54.13,150.86,54.21Z"/>
      <path class="ac5333e0-e471-47e8-ab5f-1d91136ec42a" d="M70.94,153.64c-.19-.53-.35-1.08-.58-1.6a2.34,2.34,0,0,1-.18-1.35c.13-1,0-2.1.22-3.14a4.81,4.81,0,0,1,.26-1.4l.43.51a7.12,7.12,0,0,1,.08,2.21,12.66,12.66,0,0,0,0,2.22c.08.65-.09,1.3-.05,1.95C71,153.23,71.32,153.54,70.94,153.64Z"/>
      <path class="bb0ee1f5-ac49-473a-9648-b6acd5f46175" d="M62.24,131.88c0,.37,0,.74,0,1.11,0,.17.05.36-.12.48l-.81-1.57c0-.65,0-1.31,0-2,0-.21.1-.21.24-.15C61.76,130.49,62.09,131.16,62.24,131.88Z"/>
      <path class="fd90519e-cb5d-4c97-8c9f-de896a4e6ce6" d="M71.08,153.11a57.83,57.83,0,0,1,0-6.45c.12.17.25.34.38.5-.2.2-.14.45-.14.68,0,1.46,0,2.91,0,4.37-.24.28-.07.62-.13.93C71.13,153.19,71.1,153.17,71.08,153.11Z"/>
      <path class="e647cff0-4c4b-4a0e-80c2-cf9e43b97aad" d="M19.75,83.76A5.65,5.65,0,0,0,21.09,85c.78.69,1.58,1.36,2.36,2.06a.16.16,0,0,1-.14.13c-.83-.72-1.68-1.43-2.5-2.18a6.48,6.48,0,0,1-1.19-1.09Z"/>
      <path class="b64bfce8-0771-4f36-a0c6-0959c3abb889" d="M84.13,162.89a16.59,16.59,0,0,1,.64-2.79c0,.14,0,.3.13.4a22.38,22.38,0,0,1-.63,2.81C84.1,163.21,84.25,163,84.13,162.89Z"/>
      <path class="aaa5268d-f7e9-4df2-be8a-672985f6e606" d="M150.86,54.11l-.92,0a1.06,1.06,0,0,1,.63-.1,24.37,24.37,0,0,1,3.31.13c.05,0,.07,0,.06.08a.09.09,0,0,1-.06,0l-.39,0a6.83,6.83,0,0,1-1.69,0l-.42,0C151.22,54.09,151,54.22,150.86,54.11Z"/>
      <path class="a85dc75d-fd17-470f-a6e2-715c39250f84" d="M164,29.81a16.55,16.55,0,0,1,1.88-1.56c.13-.06.15,0,.12.11-.6.55-1.18,1.12-1.83,1.61Z"/>
      <path class="e1fa6a43-4db0-463c-a4c3-a48804b591a7" d="M166,28.36l-.12-.11.79-.66a.12.12,0,0,1,.19,0A4.15,4.15,0,0,1,166,28.36Z"/>
      <path class="e5fe9632-3eba-443a-9aed-6c1fc221abcb" d="M166.88,27.6h-.19c.3-.24.53-.57.93-.66A1.71,1.71,0,0,1,166.88,27.6Z"/>
      <path class="b4a00441-decf-441a-8729-6075078eaad1" d="M167.75,26.79a.56.56,0,0,1,.47-.36,1,1,0,0,1-.48.49s-.05-.06,0-.09S167.73,26.79,167.75,26.79Z"/>
      <path class="bec0dd86-917f-42c5-9c8f-6b2500695e9d" d="M182,16l-.15-.13a.7.7,0,0,1,.39-.27h0A.45.45,0,0,1,182,16Z"/>
      <path class="bf11dfb7-4b9b-4d0c-816c-16da0186172d" d="M153.88,54.21a.2.2,0,0,0,0-.11h.67C154.36,54.31,154.11,54.21,153.88,54.21Z"/>
      <path class="b745d352-b738-4ebc-a722-83f1b0fb8c7d" d="M13.82,79.23l0,.2a.42.42,0,0,1-.24-.42h0A.41.41,0,0,1,13.82,79.23Z"/>
      <path class="ac13c73c-12a4-4957-9499-89a7aaa4897d" d="M138.42,58l.21,0s-.08.09-.13.13-.15.13-.22,0,0-.14,0-.22Z"/>
      <path class="ab462f46-9198-42a8-952d-a455416c9889" d="M167.75,26.79a.62.62,0,0,0,0,.13h-.13V26.8Z"/>
      <path class="bec0dd86-917f-42c5-9c8f-6b2500695e9d" d="M182.25,15.59l.06-.06a.06.06,0,0,1,0,0l0,0Z"/>
      <path class="b745d352-b738-4ebc-a722-83f1b0fb8c7d" d="M13.56,79l-.06,0s0,0,.05,0Z"/>
      <path class="a681cdfc-56c9-4f24-826b-039c4cd8176a" d="M41.53,105.76a29.4,29.4,0,0,0-2.09-2.63c-2.77-3.32-5.66-6.54-8.74-9.58-.89-.88-1.76-1.78-2.64-2.67,0-.12,0-.18.16-.14,2,1.66,3.86,3.45,5.71,5.27s3.67,3.66,5.41,5.58c2.91,3.2,5.71,6.5,8.34,9.93q3.48,4.53,6.61,9.28,3.51,5.34,6.56,11a153.78,153.78,0,0,1,9.59,21.37,161.73,161.73,0,0,1,5.2,17.53c.89,3.77,1.62,7.58,2.25,11.41.26,1.55.47,3.12.7,4.68A6.17,6.17,0,0,1,79,189c.2,1.47.3,3,.49,4.43,0,.46,0,.92,0,1.38a2.91,2.91,0,0,0-.12,1c0,.22,0,.43,0,.64a2.3,2.3,0,0,0-.12.82v.22a4.86,4.86,0,0,1,0,.66c-.18.86-.06,1.75-.23,2.61,0,.16,0,.35-.13.49-.23,2.8-.36,5.6-.43,8.41-.07.13,0,.3-.09.43a.2.2,0,0,0,0,.11,15.38,15.38,0,0,0-.54,1.71c-.12,0-.17,0-.13-.12a75.41,75.41,0,0,0,.27-9.74c0-1.88-.19-3.76-.35-5.64-.13-1.51-.26-3-.44-4.51-.24-2-.52-4-.82-6q-.55-3.57-1.28-7.11a15.36,15.36,0,0,0-.52-2.23,15.38,15.38,0,0,0-.47-2.32q-1.75-7.65-4.18-15.14-2.66-8.18-6-16.06-2.32-5.38-5-10.6-3.51-6.8-7.61-13.24-3.87-6.07-8.29-11.79A13.67,13.67,0,0,0,41.53,105.76Z"/>
      <path class="fdc9d44c-1741-4948-9e85-2f080093f39e" d="M52.74,153.64a25.55,25.55,0,0,1,4.35.67,36.55,36.55,0,0,1,9.17,3.35,32.4,32.4,0,0,1,3,1.81,1.67,1.67,0,0,1,.75,1c.08.32.19.62.33,1.1a34.71,34.71,0,0,0-18-7.83C52.39,153.46,52.59,153.62,52.74,153.64Z"/>
      <path class="ae329921-40af-4624-8025-b4270f66410d" d="M52.08,137.17a26.28,26.28,0,0,1,4.05,1.33A32.49,32.49,0,0,1,62.6,142a2.63,2.63,0,0,1,1.06,1.59.61.61,0,0,1-.47-.25,27.78,27.78,0,0,0-7-4.32,44.82,44.82,0,0,0-4.48-1.7C51.72,137,51.92,137.13,52.08,137.17Z"/>
      <path class="e30810e1-6c54-4157-a767-b28d792c4121" d="M53.92,124.64a24.71,24.71,0,0,0-9.26-4.49l-.5-.15c0-.11,0-.19.14-.11a7.91,7.91,0,0,1,1.92.4A24.19,24.19,0,0,1,52.66,123a3.3,3.3,0,0,1,1.41,1.5C54.09,124.62,54.05,124.69,53.92,124.64Z"/>
      <path class="eacc62f8-31ff-422b-96d0-dc212f060ab2" d="M36.12,103.93a13.44,13.44,0,0,1,4.4,1.34,2.32,2.32,0,0,1,.87.65c-.19.27-.36,0-.49-.07a20.16,20.16,0,0,0-3.14-1.34,8.49,8.49,0,0,0-1.79-.43l0,0C36,103.94,36,103.86,36.12,103.93Z"/>
      <path class="eb6a64d0-aa2c-43e4-a320-05070074780d" d="M52.08,137.17c-.14,0-.3,0-.4.12L49,136.63c0-.25.14-.18.27-.13A13.32,13.32,0,0,1,52.08,137.17Z"/>
      <path class="ea10a9da-2fda-4d30-9ea4-0627e45ea265" d="M52.74,153.64c-.13,0-.3,0-.4.13-.66,0-1.31-.17-2-.13-.06-.07,0-.13,0-.17a3.17,3.17,0,0,1,.87,0C51.77,153.57,52.27,153.41,52.74,153.64Z"/>
      <path class="f60723a3-fbaa-46db-93f7-aee5710e0dce" d="M51.28,153.5l-.92,0a2.68,2.68,0,0,1-1.32,0l-.37,0A7.88,7.88,0,0,1,51.28,153.5Z"/>
      <path class="e15e3881-a859-472b-b9f1-4edb37729577" d="M45.62,136.1c-.52-.19-1.07-.06-1.59-.2a3.67,3.67,0,0,1,1.71.08A.34.34,0,0,1,45.62,136.1Z"/>
      <path class="b07c135b-8798-4587-b8ca-87515a1dbc16" d="M46.79,136.11a6.38,6.38,0,0,1,1.45.16c0,.12,0,.19-.16.13a10.93,10.93,0,0,1-1.28-.17.07.07,0,0,1,0-.08S46.78,136.11,46.79,136.11Z"/>
      <path class="a053bf27-3b59-4c21-82a3-650ad48e350c" d="M48.08,136.4l.16-.14a4.88,4.88,0,0,1,1.07.24c-.1,0-.21,0-.27.13A3.63,3.63,0,0,1,48.08,136.4Z"/>
      <path class="b159d2eb-0675-43c5-b137-c235f3762a4f" d="M42.71,119.75c-.41,0-.79-.18-1.2-.17a1.71,1.71,0,0,1,1.2,0s.06.05,0,.08S42.72,119.75,42.71,119.75Z"/>
      <path class="b62b54f3-d33d-477f-a3a9-a3dcd65734bb" d="M46.79,136.11s0,.08,0,.12a11.82,11.82,0,0,0-1.18-.13l.12-.12C46.09,136,46.47,135.86,46.79,136.11Z"/>
      <path class="f1b3c738-e01b-4915-996b-407da11f4995" d="M49,153.52h1.32a.49.49,0,0,0,0,.12C49.93,153.61,49.46,153.78,49,153.52Z"/>
      <path class="fedb9d43-7ba7-414d-b0c3-12d590d3ee50" d="M44.3,119.89l-.14.11-.66-.13a.07.07,0,0,1,0-.08s0,0,0,0C43.77,119.77,44.06,119.7,44.3,119.89Z"/>
      <path class="bfe36530-2e4e-470d-b79a-67b74d24e6d0" d="M43.5,119.75v.12l-.79-.12s0-.08,0-.12C43,119.65,43.26,119.55,43.5,119.75Z"/>
      <path class="a4a18607-681c-458d-ad6f-4887b003318e" d="M53.92,124.64l.15-.14.1.08c.06.06.14.15.09.21s-.18,0-.27-.05A.36.36,0,0,1,53.92,124.64Z"/>
      <path class="bff6773b-d834-4cfd-bc3c-786b7c7d8ba9" d="M77.64,211.8l.13.12a.84.84,0,0,1-.2.54C77.54,212.23,77.47,212,77.64,211.8Z"/>
      <path class="bcc0379c-019c-4741-b16e-e46b1e1f0bde" d="M78.85,201.26a22.86,22.86,0,0,1,.24-3.2c.33.37-.09.83.14,1.22a28.68,28.68,0,0,1-.24,3.33C78.9,202.17,79.12,201.69,78.85,201.26Z"/>
      <path class="e1ebbfb2-988c-4736-8f76-76238b1fff34" d="M82.42,223.53c.19-.14.08-.36.13-.54s.09,0,.1,0l0,.73c0,.12.13.29-.13.29C82.52,223.88,82.39,223.73,82.42,223.53Z"/>
      <path class="f8edb30f-2645-4d02-889a-c16c852cd292" d="M82.56,224.06c.11-.07.11-.18.13-.29a1.09,1.09,0,0,1,.1.76A.83.83,0,0,1,82.56,224.06Z"/>
      <path class="b4b2066a-9557-4afc-8814-280806bca03d" d="M82.65,223l-.1,0v-.5h.12Z"/>
      <path class="ba5d73a7-28f3-49d0-a633-c78e6e7301d3" d="M78.33,210.1a.47.47,0,0,1,.09-.43A.4.4,0,0,1,78.33,210.1Z"/>
      <path class="a259107c-cdf6-42d6-a134-17483cf1afd9" d="M82.29,202.57a3,3,0,0,1,.1-1.22A2.41,2.41,0,0,1,82.29,202.57Z"/>
      <path class="bcd39c07-3d3e-4166-be2f-cd7a1515b32e" d="M82.42,200.47a2,2,0,0,1,.1-1c0,.32,0,.64,0,1A.07.07,0,0,1,82.42,200.47Z"/>
      <path class="ff71e03e-d402-499b-9212-7befcbb272f5" d="M82.16,204.55a2.09,2.09,0,0,1,.09-1c0,.32,0,.64,0,1C82.23,204.61,82.2,204.62,82.16,204.55Z"/>
      <path class="b4b2066a-9557-4afc-8814-280806bca03d" d="M82.52,222.12a1.07,1.07,0,0,1-.1-.68C82.61,221.64,82.52,221.89,82.52,222.12Z"/>
      <path class="a259107c-cdf6-42d6-a134-17483cf1afd9" d="M82.16,204.55h.11c0,.14,0,.29-.11.4Z"/>
      <path class="a259107c-cdf6-42d6-a134-17483cf1afd9" d="M82.42,200.47h.11l-.11.13Z"/>
      <path class="a259107c-cdf6-42d6-a134-17483cf1afd9" d="M82.55,198.89v-.14c0-.06.08-.06.11,0s0,.09,0,.13Z"/>
      <path class="f267a14b-0fec-4dc8-bec0-f33a55d493b7" d="M83.08,193.34a1.53,1.53,0,0,1,.1-.82C83.17,192.8,83.29,193.09,83.08,193.34Z"/>
      <path class="f267a14b-0fec-4dc8-bec0-f33a55d493b7" d="M83,194.53a1.06,1.06,0,0,1,.1-.7C83.05,194.07,83.14,194.32,83,194.53Z"/>
      <path class="f2737697-3576-4525-82b4-ca37e24c58c9" d="M83.34,191a1.18,1.18,0,0,1,.11-.69C83.44,190.52,83.54,190.76,83.34,191Z"/>
      <path class="bcd39c07-3d3e-4166-be2f-cd7a1515b32e" d="M82.66,198.75h-.11a1.57,1.57,0,0,1,.1-.83Z"/>
      <path class="ae523198-7130-4a3b-9719-d4c99c1da623" d="M82.69,197a.86.86,0,0,1,.09-.57l0,.57C82.76,197.1,82.73,197.1,82.69,197Z"/>
      <path class="a259107c-cdf6-42d6-a134-17483cf1afd9" d="M82.69,197h.11a.27.27,0,0,1-.12.26Z"/>
      <path class="edf2b640-c6b2-470f-8555-1bc50676c5b8" d="M154.17,54.47a.31.31,0,0,1,.22-.11,3.38,3.38,0,0,0,.45,0c.38-.05-.21-.18,0-.24a2.53,2.53,0,0,1,.38,0,11.51,11.51,0,0,1,3.6,1,14.44,14.44,0,0,1,1.47.74c.13.06.3.11.26.42-.7-.28-1.34-.64-2-.87a14.82,14.82,0,0,0-2.15-.57C155.64,54.64,154.9,54.57,154.17,54.47Z"/>
      <path class="a9d8785f-4ec2-417a-918a-0a68c47fd99f" d="M93.61,119.5c-.19.15-.1.37-.13.55-.31,0-.27-.31-.3-.52a60.86,60.86,0,0,0-5.46-16.93c-.39-1-1-1.94-1.41-2.92a5.56,5.56,0,0,0-.46-.87c-.07-.1-.12-.2-.2-.3s-.14-.26-.18-.41c0,0,0,0,0,0s.15.36.28.5l.14.22c.16.26.28.54.43.8.49,1.07,1.1,2.09,1.52,3.19a56.29,56.29,0,0,1,5,20.83,30.33,30.33,0,0,1,0,4.86c0,.22,0,.5-.28.62a8.6,8.6,0,0,1-.06-2.68c-.14-1.29,0-2.58-.15-3.87-.13-1.74-.31-3.48-.59-5.21a58.51,58.51,0,0,0-2.56-10.11c-.6-1.74-1.3-3.44-2.06-5.12a84.17,84.17,0,0,0-5.55-10.23c-.05-.1-.14-.17-.1-.34.24-.07.33.14.43.28.66,1,1.33,1.91,2,2.89a77.81,77.81,0,0,1,5,9,61.65,61.65,0,0,1,3.64,10c.48,1.75.82,3.54,1.16,5.32C93.61,119.24,93.6,119.37,93.61,119.5Z"/>
      <path class="a4987fe0-6beb-475e-adb0-fb28d13430ab" d="M123.56,67c0,.15,0,.31-.12.41A33,33,0,0,0,122,61a38.47,38.47,0,0,0-3.54-7.41l-.62-1c-.06-.1-.14-.18,0-.32.24,0,.34.23.45.4.81,1.2,1.56,2.43,2.27,3.7a35,35,0,0,1,2.59,5.88,33.34,33.34,0,0,1,1.11,4.26,3.44,3.44,0,0,1,0,.46c0,.14,0,.31-.13.41-.37-.23-.31-.64-.38-1s-.09-.54-.16-.81a12.09,12.09,0,0,0-.36-1.69c-.11-.31-.15-.64-.27-1s-.3-.85-.39-1.29l-.39-1c-.08-.25-.2-.48-.29-.73a.2.2,0,0,1-.06-.11s0-.06,0-.06c-.15.11.05.15.05.23,0,.27.2.49.27.75l.39,1.05c.1.44.27.86.39,1.3s.16.65.28,1c.17.63.27,1.29.43,1.92,0,.21,0,.43.06.64A.54.54,0,0,1,123.56,67Z"/>
      <path class="b1ca98e2-0074-4495-8dd6-3dd25c5c0040" d="M142.3,45.37c0,.15,0,.31-.14.41a23.77,23.77,0,0,0-1-4.48,27.9,27.9,0,0,0-2.82-5.85c-.08-.13-.19-.24-.18-.41.19-.14.26,0,.35.14a27.17,27.17,0,0,1,1.54,2.45A24.27,24.27,0,0,1,142.93,46a5.77,5.77,0,0,1,0,.72c0,.27.1.57-.12.81a.29.29,0,0,1-.12-.15c-.05-.22,0-.47-.13-.67a2.6,2.6,0,0,1,0-.4,4.79,4.79,0,0,0-.11-1c-.07-.47-.16-.93-.25-1.4A7.71,7.71,0,0,0,142,43c0,.09.07.18.09.29a6.8,6.8,0,0,0,.18.75C142.22,44.48,142.54,44.91,142.3,45.37Z"/>
      <path class="a3a3ab8f-75d1-4fc1-9509-46568b22db18" d="M92.42,126.47c0,.68,0,1.36,0,2,0,.21-.07.44.12.61a1.22,1.22,0,0,1,.19,1.06,14.94,14.94,0,0,1-.38,2.82.13.13,0,0,1-.18.1c0-.18,0-.39-.14-.54.07-.86.17-1.73.21-2.59s0-1.87.06-2.81C92.32,126.93,92.24,126.68,92.42,126.47Z"/>
      <path class="abe02cdf-7dc1-4402-bca5-2a01569843ce" d="M23.31,87.19l.14-.13a15.4,15.4,0,0,1,1.42,1.26c.78.74,1.62,1.41,2.36,2.19,1,1.09,2.22,2,3.21,3.11S32.6,95.79,33.6,97c0,.12,0,.17-.13.13a8.25,8.25,0,0,1-1-1.08c-1.43-1.44-2.85-2.91-4.33-4.31s-3-2.93-4.61-4.29A1.73,1.73,0,0,1,23.31,87.19Z"/>
      <path class="e647cff0-4c4b-4a0e-80c2-cf9e43b97aad" d="M33.47,97.08,33.6,97c.7.6,1.25,1.34,1.89,2s1.13,1.27,1.69,1.91c.15.18.39.31.38.59a.48.48,0,0,1-.17-.1Z"/>
      <path class="e647cff0-4c4b-4a0e-80c2-cf9e43b97aad" d="M37.55,101.44c.34.26.73.47.8,1C38.06,102.1,37.68,101.87,37.55,101.44Z"/>
      <path class="f0318ffa-78d4-4c40-b99c-72ffc005639f" d="M38.87,99.06c-.21-.19-.09-.44-.13-.67a5.21,5.21,0,0,1,.33-1.79,15.85,15.85,0,0,1,2.28-4.85,3.62,3.62,0,0,1,.22-.32c.06-.07.15-.11.23,0a.14.14,0,0,1,0,.17l-.21.34a15,15,0,0,0-2.22,5.77c0,.2-.08.39-.12.58-.3,0-.42.11-.39.4A.3.3,0,0,1,38.87,99.06Z"/>
      <path class="f76e660a-ea54-4846-bb02-2ed079c22959" d="M84.13,162.89c.16.11.11.28.14.42a5.78,5.78,0,0,1-.29,1.42c-.09.06-.2.07-.28.15a2.84,2.84,0,0,0-.23.25,48.5,48.5,0,0,1-6.33,5.65c-.27.2-.52.48-.92.44a.33.33,0,0,1-.14-.55A52.93,52.93,0,0,0,83.6,164,2.54,2.54,0,0,0,84.13,162.89Z"/>
      <path class="a62cadee-f35b-4d06-97f3-5ec44fde796e" d="M83.6,164.74c.12-.23.25,0,.38,0-.19,1-.37,2.06-.57,3.09-.63,3.17-1.18,6.36-1.67,9.55-.13.85-.27,1.69-.41,2.53-.11.17,0,.38-.1.56l0,.36a.39.39,0,0,0,0,.24.7.7,0,0,1-.05.32l0,.36c-.12,0-.18-.06-.22-.16a1.35,1.35,0,0,1-.06-.49,1.76,1.76,0,0,1,.06-.39,2.1,2.1,0,0,0,.08-.56,1.74,1.74,0,0,1,0-.39,1.8,1.8,0,0,0,0-.61c.14-1.8.49-3.56.8-5.33.49-2.85,1-5.7,1.6-8.52C83.47,165.1,83.69,165,83.6,164.74Z"/>
      <path class="e50df887-a709-4826-81a2-7dedae7dfcc5" d="M79.23,199.28c-.24-.39,0-.82-.14-1.22l0-.63a.39.39,0,0,0,.06-.28,2.29,2.29,0,0,1,0-.69l0-.61c.14-.31,0-.65.1-1v-1.39a2.68,2.68,0,0,1,.08-1.09c0-.16,0-.33,0-.49a.93.93,0,0,1,0-.29,2.49,2.49,0,0,0,.07-.77,2,2,0,0,1,.05-.48c0-.09,0-.19.07-.28s0-.38,0-.57a1.75,1.75,0,0,1,.05-.4,2.56,2.56,0,0,0,.08-.78A.67.67,0,0,1,80,188a.17.17,0,0,1,.2,0,.8.8,0,0,1,0,.31,1.32,1.32,0,0,1,0,.52l0,.5a.51.51,0,0,0-.05.34,1,1,0,0,1,0,.35l0,.5c-.12.22,0,.47-.1.7l0,.62c-.11.22,0,.47-.09.7a12.46,12.46,0,0,1-.16,1.93c-.15.31,0,.66-.11,1l0,.62c-.14.31,0,.65-.1,1l0,.62c-.07.08,0,.19-.06.29a2.69,2.69,0,0,1,0,.8Z"/>
      <path class="a9352ce4-76ec-4064-9fb1-dd4b05e4c956" d="M80.17,188.2v-.26a1,1,0,0,1-.17-.74,2,2,0,0,1,.05-.43,2.05,2.05,0,0,0,.07-.74,10.53,10.53,0,0,1,.29-2.37,1.8,1.8,0,0,0,.13-.69,1.57,1.57,0,0,1,0-.3,1.84,1.84,0,0,0,.08-.66.69.69,0,0,1,.12-.39.12.12,0,0,1,.17,0l.12.13v.14c-.07.14,0,.3-.09.44l0,.48c-.1.18,0,.39-.09.56-.07,1.23-.28,2.44-.43,3.66-.1.18,0,.39-.1.57l0,.61C80.24,188.26,80.2,188.26,80.17,188.2Z"/>
      <path class="b2b742ea-6e02-4178-aaf3-1deb54a8f1af" d="M79.39,197c0-.33-.12-.66.1-1A2,2,0,0,1,79.39,197Z"/>
      <path class="b2b742ea-6e02-4178-aaf3-1deb54a8f1af" d="M79.26,198.66l0-1a.08.08,0,0,1,.12,0A2.1,2.1,0,0,1,79.26,198.66Z"/>
      <path class="b2b742ea-6e02-4178-aaf3-1deb54a8f1af" d="M79.52,195.37c0-.33-.12-.67.11-1A2,2,0,0,1,79.52,195.37Z"/>
      <path class="b1a88cc7-2251-4277-815b-004dd8c7bb51" d="M79.92,191.15c0-.24-.1-.49.1-.7A1.06,1.06,0,0,1,79.92,191.15Z"/>
      <path class="b1a88cc7-2251-4277-815b-004dd8c7bb51" d="M79.79,192.47c0-.24-.1-.49.09-.7A1.13,1.13,0,0,1,79.79,192.47Z"/>
      <path class="b1a88cc7-2251-4277-815b-004dd8c7bb51" d="M80.17,188.2h.1a.78.78,0,0,1-.09.56Z"/>
      <path class="b1a88cc7-2251-4277-815b-004dd8c7bb51" d="M80.31,187.59c0-.2-.07-.4.1-.57A.82.82,0,0,1,80.31,187.59Z"/>
      <path class="bc5b571b-923c-4b2d-9db3-3f48f6f51e31" d="M81.23,180.46c0-.2-.07-.4.1-.56A.79.79,0,0,1,81.23,180.46Z"/>
      <path class="bc5b571b-923c-4b2d-9db3-3f48f6f51e31" d="M80.84,183.36c0-.19-.08-.39.09-.56A.78.78,0,0,1,80.84,183.36Z"/>
      <path class="bc5b571b-923c-4b2d-9db3-3f48f6f51e31" d="M81,182.32c0-.15,0-.32.09-.44A.53.53,0,0,1,81,182.32Z"/>
      <path class="a47f2ecc-a55c-43aa-99eb-4e4a83398e5b" d="M80.06,190l0-.42c0-.06.06-.07.1,0A.55.55,0,0,1,80.06,190Z"/>
      <path class="bc5b571b-923c-4b2d-9db3-3f48f6f51e31" d="M81.1,181.38V181a.06.06,0,0,1,.1,0A.55.55,0,0,1,81.1,181.38Z"/>
      <path class="b1a88cc7-2251-4277-815b-004dd8c7bb51" d="M80.14,189.52H80a.26.26,0,0,1,.11-.27Z"/>
      <path class="bcc0379c-019c-4741-b16e-e46b1e1f0bde" d="M79.36,197.7h-.12l.12-.13A.19.19,0,0,1,79.36,197.7Z"/>
      <path class="a9352ce4-76ec-4064-9fb1-dd4b05e4c956" d="M81.19,181h-.1l.11-.13Z"/>
      <path class="fd90519e-cb5d-4c97-8c9f-de896a4e6ce6" d="M71.45,153.78c-.23-.28-.08-.62-.12-.93C71.56,153.14,71.42,153.47,71.45,153.78Z"/>
      <path class="a681cdfc-56c9-4f24-826b-039c4cd8176a" d="M126.45,131.74a53.88,53.88,0,0,0-16.22,3.18,51.17,51.17,0,0,0-13.3,6.86c-1.06.78-2.05,1.65-3,2.52-.14,0-.21,0-.17-.17.23-.77.47-1.55.69-2.32a1.38,1.38,0,0,1,.61-.67,44.78,44.78,0,0,1,7.92-4.55,57.49,57.49,0,0,1,14-4.31,37.55,37.55,0,0,1,5.88-.67c1.12-.1,2.25,0,3.37,0C126.36,131.57,126.46,131.59,126.45,131.74Z"/>
      <path class="a681cdfc-56c9-4f24-826b-039c4cd8176a" d="M132.79,104.45a56.09,56.09,0,0,0-24.79,9,30.15,30.15,0,0,0-4,3.16c-.14,0-.19,0-.17-.15a6.67,6.67,0,0,0,.29-.74,4.13,4.13,0,0,1,1.85-2.28,50.9,50.9,0,0,1,11.32-5.81,58.57,58.57,0,0,1,11.57-3,20.65,20.65,0,0,1,2.94-.32c.26-.11.56,0,.82-.09l1,0c.19,0,.43-.19.54.13l-.75,0C133.26,104.46,133,104.34,132.79,104.45Z"/>
      <path class="a52564ec-fdd2-46c9-95d0-654fec9dbcc7" d="M140.17,78.74a38.6,38.6,0,0,0-21.5,8.57c-.12,0-.17,0-.13-.12l.46-.8a4.47,4.47,0,0,1,2.29-2.34,37.82,37.82,0,0,1,11.2-4.5,35.06,35.06,0,0,1,6.77-1,2.75,2.75,0,0,1,.86,0C140.2,78.6,140.22,78.66,140.17,78.74Z"/>
      <path class="a2314461-ce49-4187-87ab-4d37103c7d6b" d="M126.45,131.74c-.18-.18-.41-.1-.62-.11l-3,0a1.28,1.28,0,0,1,.7-.1,48.39,48.39,0,0,1,5.9.15c0,.11,0,.17-.11.12Z"/>
      <path class="b4485e04-6638-4d12-b12b-31092b78a9b7" d="M140.17,78.64l-.91,0a.47.47,0,0,1,.36-.1,15.55,15.55,0,0,1,3.43.2,9.82,9.82,0,0,1-1.7,0C141,78.6,140.56,78.77,140.17,78.64Z"/>
      <path class="ad01b4df-756b-4541-ad8d-333e1a6b0070" d="M134.23,104.31c-.15-.16-.37-.06-.54-.13a3.24,3.24,0,0,1,1.35-.08c.12.09.31,0,.42.12A2.85,2.85,0,0,1,134.23,104.31Z"/>
      <path class="b439d21b-fdc9-4f32-9c5c-445384a04602" d="M135.46,104.22c-.14,0-.31,0-.42-.12a18.43,18.43,0,0,1,2.23,0v.08Z"/>
      <path class="a1acb864-a266-459a-a20c-88dc48fa1072" d="M129.36,131.78l.11-.12,1.46.12s0,0,0,.07,0,0,0,0A4.2,4.2,0,0,1,129.36,131.78Z"/>
      <path class="f25a4792-4aec-4eb3-96d7-797b89178879" d="M138.45,104.09c.47-.1.88.19,1.33.16a2.2,2.2,0,0,1-1.32,0s-.05,0,0-.08Z"/>
      <path class="edf2b640-c6b2-470f-8555-1bc50676c5b8" d="M151.8,54.25h1.69A2.71,2.71,0,0,1,151.8,54.25Z"/>
      <path class="b402e379-08e9-4ea8-8bc0-63d0e27175f6" d="M138.45,104.09a.37.37,0,0,1,0,.11l-1.19,0v-.08Z"/>
      <path class="a4036e89-b4ea-41a0-b61f-bd3be31784bb" d="M140.17,78.64a2.48,2.48,0,0,1,1.18.09h-1.18A.33.33,0,0,0,140.17,78.64Z"/>
      <path class="aea8e1d3-5aac-4690-aec8-ff82cc7296d1" d="M130.94,131.89a.41.41,0,0,0,0-.11c.27,0,.52.15.79.17C131.46,132,131.19,132.13,130.94,131.89Z"/>
      <path class="af1a7b6e-d944-471d-8248-d005c839c9da" d="M103.87,116.45l.17.15a.83.83,0,0,1-.33.35A.5.5,0,0,1,103.87,116.45Z"/>
      <path class="ad01b4df-756b-4541-ad8d-333e1a6b0070" d="M132.66,104.22c-.26.2-.54.11-.82.09A1.36,1.36,0,0,1,132.66,104.22Z"/>
      <path class="ab8664eb-3964-48fd-bbb2-ad831763f5a5" d="M118.54,87.19l.13.12a.67.67,0,0,1-.06.12c0,.06-.13.15-.2.11s0-.18,0-.27A.44.44,0,0,1,118.54,87.19Z"/>
      <path class="ad01b4df-756b-4541-ad8d-333e1a6b0070" d="M132.79,104.45c.21-.19.45-.11.69-.09A1,1,0,0,1,132.79,104.45Z"/>
      <path class="f85ddd05-dd33-47eb-bab7-81dd2d606cc7" d="M93.73,144.13l.17.17c-.05.1-.14.24-.21.19S93.63,144.25,93.73,144.13Z"/>
      <path class="afbdd4b2-bebb-462c-99ad-10ce07fdf176" d="M150.86,54.11c.18,0,.37-.08.52.1h-.52Z"/>
      <path class="a681cdfc-56c9-4f24-826b-039c4cd8176a" d="M92.28,133.07c.09-1.08.19-2.15.28-3.23a5.77,5.77,0,0,0,0-.72,46.9,46.9,0,0,0-.09-7.68,55.84,55.84,0,0,0-2.55-12.72,57.5,57.5,0,0,0-2.08-5.53c-.06-.14-.1-.29-.15-.43s-.11-.28.13-.27a55.18,55.18,0,0,1,3.39,8.19,53.34,53.34,0,0,1,2.17,9.06,1.63,1.63,0,0,0,.11.31c.11,1.07.21,2.13.33,3.2.17,1.72.24,3.45.24,5.18a2.24,2.24,0,0,1-.19.76l-1.44,4C92.3,133.24,92.24,133.21,92.28,133.07Z"/>
      <path class="fdc9d44c-1741-4948-9e85-2f080093f39e" d="M106.31,90.88a48.49,48.49,0,0,0-1.79-8.94c-.36-1.2-.77-2.38-1.15-3.56-.05-.14-.12-.29.13-.28a50.65,50.65,0,0,1,2.38,6.9,54.38,54.38,0,0,1,1.55,8.2c.17,1.61.22,3.24.28,4.86a1.18,1.18,0,0,1-.12.64c-.32.57-.63,1.15-1,1.72-.11-1.49.1-3,0-4.47s-.12-3-.25-4.53C106.3,91.24,106.39,91.05,106.31,90.88Z"/>
      <path class="a81ad524-ce12-49f1-80dd-0202ea13df21" d="M123.68,65.57l.42,1.84c.13,1.24.25,2.48.34,3.72a1.48,1.48,0,0,1-.6,1.37,41.21,41.21,0,0,0-.18-5.47c-.07-.13,0-.29-.08-.41l0-.63C123.53,65.83,123.36,65.62,123.68,65.57Z"/>
      <path class="b282a358-336e-47f5-a300-93c35c94943d" d="M142.79,47.37l0,.13v1.56a.54.54,0,0,1-.38.61c.11-1,.06-1.87.08-2.79,0-.2-.2-.44.14-.56l0,.38C142.8,46.91,142.69,47.16,142.79,47.37Z"/>
      <path class="a16b338a-f14a-4437-96b9-b7583a8c8580" d="M103.5,78.1c-.11.06-.11.17-.13.28-.4-1-.8-1.94-1.19-2.91-.06-.14,0-.16.12-.13A25,25,0,0,1,103.5,78.1Z"/>
      <path class="b1b3a674-5313-46cb-bee3-e32266590caa" d="M102.3,75.34l-.12.13a10.81,10.81,0,0,1-.79-1.73.08.08,0,0,1,.14,0C101.79,74.27,102.09,74.78,102.3,75.34Z"/>
      <path class="ad132dee-e5a5-4dee-861d-89bbfba59879" d="M142.67,46.32c-.18.16-.08.38-.14.56a5.16,5.16,0,0,1-.13-1.46c-.05-.14,0-.18.14-.15C142.54,45.62,142.73,46,142.67,46.32Z"/>
      <path class="b3564246-208e-41e3-9918-fc8a2c819e3c" d="M142.54,45.27l-.14.15-.1-.05a11.56,11.56,0,0,0-.15-1.43c-.05-.13,0-.16.12-.11Z"/>
      <path class="b6cb4a33-57b2-4097-bfb3-ae3533fd61f9" d="M101,73a2.22,2.22,0,0,1-.46-1,2.86,2.86,0,0,1,.59,1C101.09,73,101,73,101,73Z"/>
      <path class="eac4a186-917e-4a61-b0a9-fb6bd68237e9" d="M101,73h.13l.4.79h-.14A1.83,1.83,0,0,1,101,73Z"/>
      <path class="adcc9434-46df-4b1f-b61f-f6c17eb084d0" d="M92.28,133.07l.14.14a.46.46,0,0,1-.19.43c-.12-.18,0-.36,0-.54Z"/>
      <path class="acb6ebeb-2834-4b21-be30-403d3cb3e554" d="M106.31,90.88a.64.64,0,0,1,.08.54A.58.58,0,0,1,106.31,90.88Z"/>
      <path class="acb6ebeb-2834-4b21-be30-403d3cb3e554" d="M123.58,66.62a.39.39,0,0,1,.08.41l-.1,0Z"/>
      <path class="b0af091a-70eb-4a8d-85fb-0719f28895bd" d="M78.73,186.18a12.84,12.84,0,0,1,.31,2c.14,1.12.3,2.24.36,3.37a4.36,4.36,0,0,0,.2.79l-.24,1.1a4.24,4.24,0,0,1-.2-1.54c-.15-1.37-.33-2.73-.45-4.1a4.08,4.08,0,0,1-.12-1.1C78.78,186.59,78.68,186.37,78.73,186.18Z"/>
      <path class="f6e239bc-25e5-4d8e-8cfd-f5c58713e1af" d="M51.15,111.46a24,24,0,0,0-.15,3.6c0,.09.07.25-.13.22,0,0-.08-.09-.11-.14a7.91,7.91,0,0,0,0-1.82c0-.67.2-1.32.25-2C51.14,111.3,51.2,111.32,51.15,111.46Z"/>
      <path class="f3672596-4830-4c8a-8d1c-c8ad5b04fba1" d="M28.22,90.74l-.16.14c-.53-.38-.94-.9-1.44-1.32,0-.12,0-.17.13-.13A13,13,0,0,1,28.22,90.74Z"/>
      <path class="ade4a4bd-aae9-4c58-a6b5-17d15a638834" d="M38.87,99.06v-.39c.2.17.12.4.12.61,0,.45,0,.91,0,1.37-.26,0-.24-.17-.25-.31C38.7,99.91,38.94,99.5,38.87,99.06Z"/>
      <path class="e0374c05-7023-44ed-85a7-c6ea7b0256e2" d="M26.75,89.43l-.13.13a4.45,4.45,0,0,1-1.07-1C26.06,88.67,26.36,89.11,26.75,89.43Z"/>
      <path class="be19cfc7-2600-4d65-9650-715d7792c508" d="M50.77,113.32a3.22,3.22,0,0,1,0,1.82.6.6,0,0,1-.09-.49C50.77,114.21,50.71,113.76,50.77,113.32Z"/>
      <path class="a24d143c-f216-4b7e-951b-9af693b44188" d="M51.15,111.46l-.13-.12a5.45,5.45,0,0,1,.3-1.08A2.86,2.86,0,0,1,51.15,111.46Z"/>
      <path class="b20ad83a-50bf-4e25-b73f-a2def23e411c" d="M25.43,88.5a5.93,5.93,0,0,1-.85-.75c.41,0,.5.3.72.36l.13.24a.1.1,0,0,1,0,.1S25.44,88.5,25.43,88.5Z"/>
      <path class="a8486215-ade1-4f75-b598-3e2fa16e2f44" d="M71.08,153.11l.11,0,0,.78c0,.14.09.29-.15.25l-.13-.53C71.13,153.5,71,153.28,71.08,153.11Z"/>
      <path class="fd90519e-cb5d-4c97-8c9f-de896a4e6ce6" d="M71.07,154.17c.11,0,.12-.15.15-.25a.32.32,0,0,1,.1.29c0,.09.05.25-.09.25S71.08,154.3,71.07,154.17Z"/>
      <path class="fbb937ad-81e6-4c09-8b63-dbf3253f47af" d="M25.43,88.5v-.14a.2.2,0,0,1,.13.15A.3.3,0,0,1,25.43,88.5Z"/>
      <path class="ffad37b4-f78f-42cb-91ac-53d4f482a536" d="M35.19,103.92c-.44,0-.87-.18-1.33-.17a2.09,2.09,0,0,1,1.33,0s.06,0,0,.08S35.21,103.92,35.19,103.92Z"/>
      <path class="f9d39ec0-26d2-4bdd-a1f9-f8c26142be5f" d="M35.19,103.92v-.12c.31,0,.64-.08.93.13L36,104Z"/>
      <path class="b2b742ea-6e02-4178-aaf3-1deb54a8f1af" d="M79.35,194.88c0,.33.12.67-.1,1A2,2,0,0,1,79.35,194.88Z"/>
      <path class="b2b742ea-6e02-4178-aaf3-1deb54a8f1af" d="M79.22,196.46l0,.84a.07.07,0,0,1-.11,0A1.52,1.52,0,0,1,79.22,196.46Z"/>
      <path class="bcc0379c-019c-4741-b16e-e46b1e1f0bde" d="M79.13,197.3h.11l-.12.13A.2.2,0,0,1,79.13,197.3Z"/>
      <path class="a7ddd14c-6707-4e36-b40f-60c670b1dcd9" d="M87.81,102.49c-.11.05-.12.16-.13.27l-1.49-3.18a.11.11,0,0,1,.16,0A27.93,27.93,0,0,1,87.81,102.49Z"/>
      <path class="a027de7d-6f5f-4ffb-9456-85bbe9f2e3ef" d="M86.35,99.6l-.16,0a1.68,1.68,0,0,1-.37-.77l0,0A1.88,1.88,0,0,1,86.35,99.6Z"/>
      <path class="a0fb27c0-644c-4a85-b5b1-7d649ce9a98e" d="M85.31,97.87a.84.84,0,0,1,.4.63c.05.07.05.12,0,.17a1.57,1.57,0,0,1-.38-.8Z"/>
      <path class="a027de7d-6f5f-4ffb-9456-85bbe9f2e3ef" d="M85.69,98.67l0-.17a.38.38,0,0,1,.14.28l0,0Z"/>
      <path class="a0fb27c0-644c-4a85-b5b1-7d649ce9a98e" d="M85.31,97.87c-.06,0-.13-.12-.1-.13s.07.08.1.13Z"/>
      <path class="b286c6d3-3551-4b11-9558-d2451c1a814c" d="M123.68,65.57c-.16.1-.1.28-.14.42a16.37,16.37,0,0,1-.4-2c-.06-.14,0-.17.13-.16A9.07,9.07,0,0,1,123.68,65.57Z"/>
      <path class="bc5aa637-3557-4d26-af05-2e9f2337703d" d="M122.6,61.63l.41,1.31s0,.13-.12.13a6.51,6.51,0,0,1-.4-1.32C122.43,61.61,122.49,61.6,122.6,61.63Z"/>
      <path class="b8d6290d-a449-43e0-9270-ddeb74f5a076" d="M122.6,61.63l-.11.12a4.35,4.35,0,0,1-.39-1.06c0-.14,0-.16.13-.12Z"/>
      <path class="b6620bed-1a52-4527-b708-61f94888f262" d="M122.89,63.07l.12-.13.26.92-.13.16A3.1,3.1,0,0,1,122.89,63.07Z"/>
      <path class="bf4ddf39-a94c-43f3-9dbd-0bd0f8c4b047" d="M122.23,60.57l-.13.12a1.26,1.26,0,0,1-.26-.8h0A1.56,1.56,0,0,1,122.23,60.57Z"/>
      <path class="bf4ddf39-a94c-43f3-9dbd-0bd0f8c4b047" d="M121.84,59.89s-.12-.12-.09-.13.06.09.09.14Z"/>
      <path class="aabddfbc-e766-4823-9712-5b8975fe4057" d="M142.27,43.83l-.12.11a2.58,2.58,0,0,1-.23-1C142.19,43.16,142.14,43.53,142.27,43.83Z"/>
      <path class="acb6ebeb-2834-4b21-be30-403d3cb3e554" d="M142.79,47.37a.92.92,0,0,1-.08-.67A.87.87,0,0,1,142.79,47.37Z"/>
      <path class="f049870f-ea27-452a-96e1-a3d7bb7f2db9" d="M83.61,165.14l-.17-.16.16-.24C83.8,164.86,83.71,165,83.61,165.14Z"/>
      <path class="bc5b571b-923c-4b2d-9db3-3f48f6f51e31" d="M80.84,181.61a.88.88,0,0,1,.1-.59v.59Z"/>
      <path class="bc5b571b-923c-4b2d-9db3-3f48f6f51e31" d="M81.1,179.76a.9.9,0,0,1,.1-.58C81.21,179.38,81.28,179.59,81.1,179.76Z"/>
      <path class="bc5b571b-923c-4b2d-9db3-3f48f6f51e31" d="M81,180.68a.84.84,0,0,1,.1-.58C81.08,180.3,81.15,180.51,81,180.68Z"/>
      <path class="bbb71176-b11a-4a1d-a7cb-97d8766af4fd" d="M79.6,192.39c-.32-.2-.23-.5-.2-.79l.21.27A.92.92,0,0,1,79.6,192.39Z"/>
      <path class="b1a88cc7-2251-4277-815b-004dd8c7bb51" d="M79.65,191.63a1.64,1.64,0,0,1,.1-.85C79.75,191.07,79.86,191.37,79.65,191.63Z"/>
      <path class="b1a88cc7-2251-4277-815b-004dd8c7bb51" d="M79.91,189.13a1.51,1.51,0,0,1,.11-.84C80,188.57,80.13,188.87,79.91,189.13Z"/>
      <path class="b1a88cc7-2251-4277-815b-004dd8c7bb51" d="M80,187.94a1.72,1.72,0,0,1,.11-.84v.84Z"/>
      <path class="a47f2ecc-a55c-43aa-99eb-4e4a83398e5b" d="M79.78,190.18a1.13,1.13,0,0,1,.1-.7v.69C79.86,190.22,79.82,190.22,79.78,190.18Z"/>
      <path class="b1a88cc7-2251-4277-815b-004dd8c7bb51" d="M79.78,190.18h.11l-.11.13Z"/>
      <path class="f610d26f-6864-4ee8-819e-158b33a83d08" d="M80.7,182.66a1.21,1.21,0,0,1,.11-.72C80.8,182.19,80.91,182.45,80.7,182.66Z"/>
      <path class="b1a88cc7-2251-4277-815b-004dd8c7bb51" d="M80.18,186.75a1.27,1.27,0,0,1,.1-.72C80.27,186.28,80.38,186.54,80.18,186.75Z"/>
      <path class="bc5b571b-923c-4b2d-9db3-3f48f6f51e31" d="M80.57,183.59a1.33,1.33,0,0,1,.11-.71C80.67,183.12,80.77,183.38,80.57,183.59Z"/>
    </g>
  </g>
</svg>
