<svg id="fe60597d-dcc4-4ff0-a4aa-e5dbf8c21bff" data-name="Layer 1" xmlns="http://www.w3.org/2000/svg" width="212.76" height="244.59" viewBox="0 0 212.76 244.59">
  <defs>
    <style>
      .f1bb76fc-95b2-4db8-b4f4-1c4ffc5cc0d7 {
        opacity: 0.5;
      }

      .a760afd5-6e6d-4d00-b0dd-d0da1b5e3777, .aeaf6771-b0ab-448b-8bae-f856e47affc6, .b0823645-cdaa-4446-8766-6841176593b4, .e56020bd-5575-44aa-8bd3-4c88c37992de {
        fill: #fff;
      }

      .eb4ce15f-f4f7-4a9a-b6f3-ed9d59a8b208 {
        fill: #e8e8e8;
      }

      .b0823645-cdaa-4446-8766-6841176593b4, .b193b2fa-c07a-42cb-a32d-f0f648bacc89, .e03ec099-cffc-4e91-b6f3-ea66c4d6e4a5, .eb4ce15f-f4f7-4a9a-b6f3-ed9d59a8b208, .f4b628eb-ca1c-47e2-b662-1a3874cdad81, .fa414373-bba3-4056-b8ae-1ef57450d88f, .fe8e8474-8b90-4752-b6eb-78a6db4c4d71 {
        stroke: #161616;
      }

      .a760afd5-6e6d-4d00-b0dd-d0da1b5e3777, .a97938e6-478a-4a95-92e7-ba46b5ba7a86, .b0823645-cdaa-4446-8766-6841176593b4, .b1363cfb-74ad-4172-bf42-bb961aca2bd3, .b193b2fa-c07a-42cb-a32d-f0f648bacc89, .e03ec099-cffc-4e91-b6f3-ea66c4d6e4a5, .e4df4697-53d9-4eb1-bddc-b35cfeb78bf2, .e56020bd-5575-44aa-8bd3-4c88c37992de, .eb4ce15f-f4f7-4a9a-b6f3-ed9d59a8b208, .f4b628eb-ca1c-47e2-b662-1a3874cdad81, .fa414373-bba3-4056-b8ae-1ef57450d88f, .fe8e8474-8b90-4752-b6eb-78a6db4c4d71 {
        stroke-miterlimit: 10;
      }

      .a97938e6-478a-4a95-92e7-ba46b5ba7a86, .b0823645-cdaa-4446-8766-6841176593b4, .b1363cfb-74ad-4172-bf42-bb961aca2bd3, .e03ec099-cffc-4e91-b6f3-ea66c4d6e4a5, .eb4ce15f-f4f7-4a9a-b6f3-ed9d59a8b208, .fa414373-bba3-4056-b8ae-1ef57450d88f {
        stroke-width: 0.78px;
      }

      .b193b2fa-c07a-42cb-a32d-f0f648bacc89, .e03ec099-cffc-4e91-b6f3-ea66c4d6e4a5, .fe8e8474-8b90-4752-b6eb-78a6db4c4d71 {
        fill: #6b1230;
      }

      .ecf444ad-f1bd-4ab9-bffd-85981d14bc78 {
        fill: #020206;
      }

      .a760afd5-6e6d-4d00-b0dd-d0da1b5e3777, .b1363cfb-74ad-4172-bf42-bb961aca2bd3, .e56020bd-5575-44aa-8bd3-4c88c37992de {
        stroke: #111;
      }

      .e56020bd-5575-44aa-8bd3-4c88c37992de {
        stroke-width: 0.96px;
      }

      .a2d94f1f-f593-4e3b-8819-378c926e9118 {
        fill: #8e8e8d;
      }

      .a0185fcd-6143-4ce0-b900-7ee004f42c80 {
        fill: #282828;
      }

      .afa79dfe-382c-4880-aeee-db59dc670329 {
        fill: #5b031e;
      }

      .fe8e8474-8b90-4752-b6eb-78a6db4c4d71 {
        stroke-width: 0.92px;
      }

      .b4e74f5c-5bce-4a06-9c5a-bce61dc332b0 {
        fill: #726f70;
        opacity: 0.53;
      }

      .f8e1cb0f-922e-4766-8a0b-4d6860c05747 {
        fill: #bfbfbf;
      }

      .a760afd5-6e6d-4d00-b0dd-d0da1b5e3777, .e4df4697-53d9-4eb1-bddc-b35cfeb78bf2 {
        stroke-width: 0.86px;
      }

      .b09530ce-8604-4b79-b32b-661dfe556025, .e4df4697-53d9-4eb1-bddc-b35cfeb78bf2 {
        fill: #519fe2;
      }

      .e4df4697-53d9-4eb1-bddc-b35cfeb78bf2 {
        stroke: #030d54;
      }

      .acbdfd72-786b-4b61-8c5c-132a34387554 {
        fill: #00001e;
      }

      .fc627171-08cc-46cc-849d-a06c8a4e584d {
        fill: #fafaff;
      }

      .b3b5f418-f6a5-4711-ba45-cf1745053f80 {
        fill: #ededed;
      }

      .fa414373-bba3-4056-b8ae-1ef57450d88f {
        fill: #181818;
      }

      .e131d596-ab94-409b-9700-3e284096b03a {
        fill: #918e8f;
        opacity: 0.68;
      }

      .bb706e5b-1fab-4366-8ca1-284635e33599 {
        fill: #383838;
      }

      .f4b628eb-ca1c-47e2-b662-1a3874cdad81 {
        fill: #efefef;
      }

      .b193b2fa-c07a-42cb-a32d-f0f648bacc89, .f4b628eb-ca1c-47e2-b662-1a3874cdad81 {
        stroke-width: 1.16px;
      }

      .a97938e6-478a-4a95-92e7-ba46b5ba7a86, .b1363cfb-74ad-4172-bf42-bb961aca2bd3 {
        fill: none;
      }

      .a97938e6-478a-4a95-92e7-ba46b5ba7a86 {
        stroke: #232323;
      }
    </style>
  </defs>
  <g>
    <path class="f1bb76fc-95b2-4db8-b4f4-1c4ffc5cc0d7" d="M169.12,241.71a32.08,32.08,0,0,1-8-1,8,8,0,0,1-5.78-8.82c.84-6,4.92-10,7.69-12l-4.62-34.25c-2.14-1.09-5-2.62-8.13-4.58a8,8,0,0,1-1.69,5.85c-.38.61-2.78,4.86-9.67,25.69l-1,3.1c-.56,1.72-1.06,3.25-1.45,4.48a11.46,11.46,0,0,1-.46,9.56,13,13,0,0,1-5.45,7.35,8.25,8.25,0,0,1-1.57.79,24.79,24.79,0,0,1-8.59,1.54,23,23,0,0,1-9-1.76,8,8,0,0,1-4.52-9,18.94,18.94,0,0,1,7.85-12c.59-2.29,1.57-5.91,3.18-11.72,1.1-4,2.3-8.23,3.39-12.1l2.77-9.79c-1.37-2.23-2.83-4.95-4.38-8.11l-.14-.23a8.28,8.28,0,0,1-.75-1.63c0-.09-.09-.18-.13-.28a80,80,0,0,1-17,1.74c-1,0-2.06,0-3.1-.05-.15.24-.3.49-.45.72l-.23,7.29a8.4,8.4,0,0,1-.06,1.88L96.75,219.5a10.82,10.82,0,0,1,1.19,5.88A24,24,0,0,1,96,232.67a8.11,8.11,0,0,1-1.88,2.65c-3.16,2.94-7.64,4.49-12.95,4.49a30.54,30.54,0,0,1-7.09-.84,7.94,7.94,0,0,1-5.19-4.2,27.74,27.74,0,0,1-4.69.4,25.53,25.53,0,0,1-6.35-.75,8,8,0,0,1-5.89-7c-.62-6.92,3.65-12.09,7.47-14.93l-.78-23.66c-.27-1.52-1-6-1.92-11.1-.33-1.93-1-6-1-6-.55-3.26-1-6.07-1.39-8.37a13.74,13.74,0,0,1-1.82-2.19,29.27,29.27,0,0,1-2.45-3.67c-1.51-2.13-3.55-6.38-4.7-14.56,0,0,0-.13,0-.17-.09-.71-.19-1.47-.28-2.27-1.25-9.08-.81-17.94-.39-26.51.13-2.5.25-5.06.34-7.58L39.13,91.59l-.21.12a13.81,13.81,0,0,1-3.48,1.37,13.17,13.17,0,0,1-2.38.47,17.66,17.66,0,0,1-2,.12,12.47,12.47,0,0,1-7.48-2.23,10,10,0,0,1-2.39-2.39L21,88.87a10.53,10.53,0,0,1-1.28-2.66,11.47,11.47,0,0,1-1.81-1,14.71,14.71,0,0,1-5.73-2.72A10.32,10.32,0,0,1,8,76.59a8.43,8.43,0,0,1-.35-1.44A8.3,8.3,0,0,1,8.8,69.27c.1-.17.21-.33.32-.49a13.11,13.11,0,0,1-.27-2.93c0-.1,0-.27,0-.37s0-.51.06-.81S9,64.26,9,64s.05-.32.08-.44a13.2,13.2,0,0,1,1.62-4.19,5.3,5.3,0,0,1,.28-.47c.11-.18.24-.35.36-.53s.36-.5.59-.79l.28-.34c.21-.25.44-.51.69-.76l.32-.34.09-.09a13.59,13.59,0,0,1,2.52-2l.49-.29h0l.19-.11a11.5,11.5,0,0,1,3.32-1.22c.18-.33.36-.65.54-.95a17.75,17.75,0,0,1,.28-1.82l0-.12c.09-.37.19-.72.29-1.06a28.8,28.8,0,0,1,.28-3.25,21.49,21.49,0,0,1-9.62-13.34,8,8,0,0,1,3.84-8.57A17.41,17.41,0,0,1,24.29,21a21.22,21.22,0,0,1,4.08.41,8.84,8.84,0,0,1,.93-.62l.29-.27A17.3,17.3,0,0,1,33.79,18c.33-1.5.76-3,1.27-4.59A8,8,0,0,1,45.25,8.31a24.57,24.57,0,0,1,11.23,8.78C57.9,17.54,59,18,59,18a33.63,33.63,0,0,1,5.51,2.63,18.42,18.42,0,0,1,1.59,1,8,8,0,0,1,1.67,1.61l.28.22a65.5,65.5,0,0,1,6.47,6.26l0,.05a52.67,52.67,0,0,1,5.51,7.16,21,21,0,0,1,1.42,2.42l0,.09c.4.76.74,1.43,1,2.07a7.93,7.93,0,0,1,1.06,1.75l2.1,4.68c0,.11.09.21.13.32a8,8,0,0,1,1.67,5h0a24.55,24.55,0,0,0,.27,3.36,28.31,28.31,0,0,0,1.75,5.65c.06.08.11.16.17.23l.86.93A7.94,7.94,0,0,1,92.53,67l.91,1.61,2.13,3.77a7.86,7.86,0,0,1,.74,1.75q1.22,2.51,2.21,4.83l0,.09c.89,2.11,1.62,4.08,2.18,5.88l0,.09c.29,1,.54,1.87.74,2.73l1.56,1.58a18.81,18.81,0,0,0,1.82,1.24l6.66,2.7a58.35,58.35,0,0,0,8.81,1.81l4.67.43c.76,0,1.51.07,2.24.09a52.76,52.76,0,0,0,8.39-.72l.13,0c1.09-.28,2.19-.55,3.29-.81l1.55-.35a43.47,43.47,0,0,1,11.07-1.46l1.67,0a8.65,8.65,0,0,1,.88,0h0a28.59,28.59,0,0,1,18,7.42l.31.27a29.62,29.62,0,0,1,3.25,3.35c.48.21,1,.45,1.6.73s1.36.64,2.09,1l.09,0c1.35.69,2.66,1.43,3.91,2.2l.29.18c.79.49,1.51,1,2.2,1.45a41.22,41.22,0,0,1,5.6,4.64c.76.77,1.44,1.52,2.06,2.27l.08.1a25,25,0,0,1,3.67,6c.21.5.4,1,.59,1.5.06.16.12.31.17.48.26.7.5,1.43.72,2.18l0,.1h0a49.8,49.8,0,0,1,1.4,6.2l0,.09c.09.62.18,1.21.25,1.79a1.15,1.15,0,0,1,0,.16c.07.53.13,1.07.18,1.61,4.66,3,7.42,7,8.24,11.71s.34,7.4-.53,9.92a7.91,7.91,0,0,1,1.49,3,8,8,0,0,1-1.71,7.14,8.24,8.24,0,0,1-1.4,1.3,8.79,8.79,0,0,1-4.91,1.62h-.92a14.57,14.57,0,0,1-7.08-2.62,47.32,47.32,0,0,1-7-5.67,23.76,23.76,0,0,1-4.92-6.36c-.17.65-.34,1.36-.49,2.07,0,.18-.05.35-.08.53l-.14,2.46c.11.27.21.49.29.67a6,6,0,0,0,.63,1c1.9,2.37,3.12,6.38,3.61,11.91,0,.06.06.72.06.73l0,.58c0,.28,0,.58,0,.88s0,1.12,0,1.12a35.49,35.49,0,0,1-.28,5.47s0,.46,0,.46a8,8,0,0,1,.16,2.77l-.25,2.23-.37,19.32v4.09c0,.21,0,.43,0,.65s0,.65-.1,1l-.06,2.9a19.15,19.15,0,0,1,1.3,3.21,14.08,14.08,0,0,1,.58,3.06,9.84,9.84,0,0,1-1.51,6.53l-.05.06a14.1,14.1,0,0,1-2.13,6.23,8,8,0,0,1-2.33,2.37A21.14,21.14,0,0,1,169.12,241.71Z"/>
    <path class="aeaf6771-b0ab-448b-8bae-f856e47affc6" d="M164.12,236.71a32.08,32.08,0,0,1-8-1,8,8,0,0,1-5.78-8.82c.84-6,4.92-10,7.69-12l-4.62-34.25c-2.14-1.09-5-2.62-8.13-4.58a8,8,0,0,1-1.69,5.85c-.38.61-2.78,4.86-9.67,25.69l-1,3.1c-.56,1.72-1.06,3.25-1.45,4.48a11.46,11.46,0,0,1-.46,9.56,13,13,0,0,1-5.45,7.35,8.25,8.25,0,0,1-1.57.79,24.79,24.79,0,0,1-8.59,1.54,23,23,0,0,1-9-1.76,8,8,0,0,1-4.52-9,18.94,18.94,0,0,1,7.85-12c.59-2.29,1.57-5.91,3.18-11.72,1.1-4,2.3-8.23,3.39-12.1l2.77-9.79c-1.37-2.23-2.83-4.95-4.38-8.11l-.14-.23a8.28,8.28,0,0,1-.75-1.63c0-.09-.09-.18-.13-.28a80,80,0,0,1-17,1.74c-1,0-2.06,0-3.1-.05-.15.24-.3.49-.45.72l-.23,7.29a8.4,8.4,0,0,1-.06,1.88L91.75,214.5a10.82,10.82,0,0,1,1.19,5.88A24,24,0,0,1,91,227.67a8.11,8.11,0,0,1-1.88,2.65c-3.16,2.94-7.64,4.49-12.95,4.49a30.54,30.54,0,0,1-7.09-.84,7.94,7.94,0,0,1-5.19-4.2,27.74,27.74,0,0,1-4.69.4,25.53,25.53,0,0,1-6.35-.75,8,8,0,0,1-5.89-7c-.62-6.92,3.65-12.09,7.47-14.93l-.78-23.66c-.27-1.52-1-6-1.92-11.1-.33-1.93-1-6-1-6-.55-3.26-1-6.07-1.39-8.37a13.74,13.74,0,0,1-1.82-2.19,29.27,29.27,0,0,1-2.45-3.67c-1.51-2.13-3.55-6.38-4.7-14.56,0,0,0-.13,0-.17-.09-.71-.19-1.47-.28-2.27-1.25-9.08-.81-17.94-.39-26.51.13-2.5.25-5.06.34-7.58L34.13,86.59l-.21.12a13.81,13.81,0,0,1-3.48,1.37,13.17,13.17,0,0,1-2.38.47,17.66,17.66,0,0,1-2,.12,12.47,12.47,0,0,1-7.48-2.23,10,10,0,0,1-2.39-2.39L16,83.87a10.53,10.53,0,0,1-1.28-2.66,11.47,11.47,0,0,1-1.81-1,14.71,14.71,0,0,1-5.73-2.72A10.32,10.32,0,0,1,3,71.59a8.43,8.43,0,0,1-.35-1.44A8.3,8.3,0,0,1,3.8,64.27c.1-.17.21-.33.32-.49a13.11,13.11,0,0,1-.27-2.93c0-.1,0-.27,0-.37s0-.51.06-.81S4,59.26,4,59s0-.32.08-.44a13.2,13.2,0,0,1,1.62-4.19A5.3,5.3,0,0,1,6,53.91c.11-.18.24-.35.36-.53s.36-.5.59-.79l.28-.34c.21-.25.44-.51.69-.76l.32-.34.09-.09a13.59,13.59,0,0,1,2.52-2l.49-.29h0l.19-.11a11.5,11.5,0,0,1,3.32-1.22c.18-.33.36-.65.54-.95a17.75,17.75,0,0,1,.28-1.82l0-.12c.09-.37.19-.72.29-1.06a28.8,28.8,0,0,1,.28-3.25A21.49,21.49,0,0,1,6.63,26.87a8,8,0,0,1,3.84-8.57A17.41,17.41,0,0,1,19.29,16a21.22,21.22,0,0,1,4.08.41,8.84,8.84,0,0,1,.93-.62l.29-.27A17.3,17.3,0,0,1,28.79,13c.33-1.5.76-3,1.27-4.59A8,8,0,0,1,40.25,3.31a24.57,24.57,0,0,1,11.23,8.78C52.9,12.54,54,13,54,13a33.63,33.63,0,0,1,5.51,2.63,18.42,18.42,0,0,1,1.59,1,8,8,0,0,1,1.67,1.61l.28.22a65.5,65.5,0,0,1,6.47,6.26l0,.05a52.67,52.67,0,0,1,5.51,7.16,21,21,0,0,1,1.42,2.42l0,.09c.4.76.74,1.43,1,2.07a7.93,7.93,0,0,1,1.06,1.75l2.1,4.68c0,.11.09.21.13.32a8,8,0,0,1,1.67,5h0a24.55,24.55,0,0,0,.27,3.36,28.31,28.31,0,0,0,1.75,5.65c.06.08.11.16.17.23l.86.93A7.94,7.94,0,0,1,87.53,62l.91,1.61,2.13,3.77a7.86,7.86,0,0,1,.74,1.75q1.22,2.51,2.21,4.83l0,.09c.89,2.11,1.62,4.08,2.18,5.88l0,.09c.29,1,.54,1.87.74,2.73l1.56,1.58a18.81,18.81,0,0,0,1.82,1.24l6.66,2.7a58.35,58.35,0,0,0,8.81,1.81l4.67.43c.76,0,1.51.07,2.24.09a52.76,52.76,0,0,0,8.39-.72l.13,0c1.09-.28,2.19-.55,3.29-.81l1.55-.35a43.47,43.47,0,0,1,11.07-1.46l1.67,0a8.65,8.65,0,0,1,.88,0h0a28.59,28.59,0,0,1,18,7.42l.31.27a29.62,29.62,0,0,1,3.25,3.35c.48.21,1,.45,1.6.73s1.36.64,2.09,1l.09,0c1.35.69,2.66,1.43,3.91,2.2l.29.18c.79.49,1.51,1,2.2,1.45a41.22,41.22,0,0,1,5.6,4.64c.76.77,1.44,1.52,2.06,2.27l.08.1a25,25,0,0,1,3.67,6c.21.5.4,1,.59,1.5.06.16.12.31.17.48.26.7.5,1.43.72,2.18l0,.1h0a49.8,49.8,0,0,1,1.4,6.2l0,.09c.09.62.18,1.21.25,1.79a1.15,1.15,0,0,1,0,.16c.07.53.13,1.07.18,1.61,4.66,3,7.42,7,8.24,11.71s.34,7.4-.53,9.92a7.91,7.91,0,0,1,1.49,3,8,8,0,0,1-1.71,7.14,8.24,8.24,0,0,1-1.4,1.3,8.79,8.79,0,0,1-4.91,1.62h-.92a14.57,14.57,0,0,1-7.08-2.62,47.32,47.32,0,0,1-7-5.67,23.76,23.76,0,0,1-4.92-6.36c-.17.65-.34,1.36-.49,2.07,0,.18-.05.35-.08.53l-.14,2.46c.11.27.21.49.29.67a6,6,0,0,0,.63,1c1.9,2.37,3.12,6.38,3.61,11.91,0,.06.06.72.06.73l0,.58c0,.28,0,.58,0,.88s0,1.12,0,1.12a35.49,35.49,0,0,1-.28,5.47s0,.46,0,.46a8,8,0,0,1,.16,2.77l-.25,2.23-.37,19.32v4.09c0,.21,0,.43,0,.65s0,.65-.1,1l-.06,2.9a19.15,19.15,0,0,1,1.3,3.21,14.08,14.08,0,0,1,.58,3.06,9.84,9.84,0,0,1-1.51,6.53l-.05.06a14.1,14.1,0,0,1-2.13,6.23,8,8,0,0,1-2.33,2.37A21.14,21.14,0,0,1,164.12,236.71Z"/>
    <g id="a34de692-c9b4-4cb3-ac66-89eb7424f442" data-name="z">
      <g>
        <path class="eb4ce15f-f4f7-4a9a-b6f3-ed9d59a8b208" d="M29,27.33s-8.09-5.81-14.53-2.1c0,0,1.74,8.4,10.59,9.83l6.66-2.76Z"/>
        <path class="e03ec099-cffc-4e91-b6f3-ea66c4d6e4a5" d="M17.55,26.91A20.59,20.59,0,0,0,27.68,32.3l-3.06,1.3A9.91,9.91,0,0,1,17.55,26.91Z"/>
      </g>
      <path class="aeaf6771-b0ab-448b-8bae-f856e47affc6" d="M35.55,72.45a11.29,11.29,0,0,1,6.94-4.25l10.43,3.13,7.13-5.54,3.57-9.89L50.06,30.42l-.9-1.58s-14-6.76-24.11,8.31A54.11,54.11,0,0,0,24,44.87l-.28,3.74s-2.54,3.41-2.61,5Z"/>
      <path class="ecf444ad-f1bd-4ab9-bffd-85981d14bc78" d="M29,39.08s.55,6.82-1.3,9.53a18.16,18.16,0,0,0,4.61-12.1S29.72,34.86,29,39.08Z"/>
      <path class="e56020bd-5575-44aa-8bd3-4c88c37992de" d="M28.87,41.31s-1.75-.93-1.19-4.53a9.56,9.56,0,0,0-3.18,3.41s-1.29-4,0-6.94a18.49,18.49,0,0,1,5.3-1.72l-5.18-1.15s.17-5.29,4.36-7.94l2.73,2.65-1.91-3.5a10.78,10.78,0,0,1,6.09-2.24L46.31,19s6.17,1.32,10.15,4.17c0,0-.33,3.35-1.33,4.2,0,0,2.43-1.58,2.87-2.68,0,0,9,7.39,12.47,15.55l-3.64,3.33,4.52-2,2.1,4.68a39.56,39.56,0,0,1-4.2,3.68,10.56,10.56,0,0,0,5.3-1.74s-.18,10.9,5.21,15.76l-2,2.42,2.54-.86s8.88,15,8.88,22.65c0,0-7.8-10.09-9.53-13.9-1.63-3.59-12.15-10-12.15-10L60.43,44.29,51.89,31,45,25.38l-6.91,3.2s-3.33,0-5.43,7.21C32.62,35.79,30.42,40.2,28.87,41.31Z"/>
      <path class="a2d94f1f-f593-4e3b-8819-378c926e9118" d="M117.71,157.27s7.28,15.64,10.06,19.39c0,0-10.54,36.85-11.15,40.49,0,0,1.21.36,5,1.09a18.22,18.22,0,0,1,1.82,3.45,4.83,4.83,0,0,0-.61-5.63s10.79-34.67,14.55-39.15c0,0-5-13-4.12-23.28L130,150.36Z"/>
      <path class="a2d94f1f-f593-4e3b-8819-378c926e9118" d="M60.69,212.94l1.89-1.35L61.63,183s-5.12-29.34-5.39-32.62l15.25,4.42,2.56,14s-4.59,19-4.86,23.49l-1.35,17.54s1.22,3.51.54,5.13C68.38,215,62,213.08,60.69,212.94Z"/>
      <path d="M60.69,212.94s-6.24,3.25-5.75,8.75a19,19,0,0,0,11.14-.84s2.65-1.38,2.3-5.88Z"/>
      <path d="M77.69,218s-5.74,1.08-6.62,8.21c0,0,8.41,2.15,12.61-1.76A16.47,16.47,0,0,0,85,219.72Z"/>
      <path d="M116.62,217.15s-5.37,1.06-6.93,8.19a16.28,16.28,0,0,0,11.54,0s2.21-1.43,2.18-3.65l-1.82-3.45Z"/>
      <path d="M164.26,220.35s-5.29,2.74-6,7.63c0,0,8.12,2.26,13.3-1.17,0,0,1.85-2.9.29-5.12Z"/>
      <path class="aeaf6771-b0ab-448b-8bae-f856e47affc6" d="M40.13,55.49l-.29-21.32,8.55-6.36S59.8,32.3,65.9,51.2c0,0,17.3,29.81,25.42,38s30.65,11.13,41.4,8.4,20.41-4.64,29.6,3.4,14.55,27.93,8.05,44.55A35.42,35.42,0,0,0,169.21,166s3.78,6.08,3.56,12l-.68,36s4.48,6.49-.22,7.61l-7.61-1.34,2.31-2.18-5.79-42.92s-24.95-13.55-31-22.72c0,0-14.3,10.7-41.69,8.56,0,0-.28,3.86-2.85,6.14l-1.57,49.5a10.38,10.38,0,0,1,1.28,3L77.69,218l-6.42-59.48s-4.18-.61-6.22-2c0,0-10.06.34-14.39-11.23S47.57,117,48.39,97.8c.71-16.54-6.16-25.95-8.07-28.24a1.35,1.35,0,0,1-.25-1.28l.85-2.7-.79-10.09"/>
      <path class="a0185fcd-6143-4ce0-b900-7ee004f42c80" d="M22.89,79.73a7.68,7.68,0,0,0,7.11,0c3.9-2,4.24-6.76,7.34-9.4s2.86-7.33,1-8.59-5.5-.92-5.5-.92-3.44-1.72-5.28-6.88-9.4,2-9.4,2-2.34-2.41-5.5,2.52a5.12,5.12,0,0,0,0,5.5s-.23,3.9-1.72,5,3.44,4.58,8.37,3.78A3.86,3.86,0,0,1,22,76.06,8.58,8.58,0,0,0,22.89,79.73Z"/>
      <path class="afa79dfe-382c-4880-aeee-db59dc670329" d="M21.94,72.65s7.62-1.64,9.92-8.74h.68s4.05,9.51-4.43,13.81c0,0-4.88,1.84-4.7-3.41A2.7,2.7,0,0,0,21.94,72.65Z"/>
      <path class="fe8e8474-8b90-4752-b6eb-78a6db4c4d71" d="M23.72,63.23s1.56-1.37,2.65-.76,1.42-2-.68-2S23.72,63.23,23.72,63.23Z"/>
      <path class="b4e74f5c-5bce-4a06-9c5a-bce61dc332b0" d="M16.55,58s4.32-3.78,8.66-3.6c0,0,.88.37,1.61,2.43s2.72,4.66,7.08,4.36a6.93,6.93,0,0,1-4.3-3.39c-1.62-2.86-1.33-5.3-4.39-5.71s-6.19,3.21-7,3.82c0,0-1.62-1.68-4.28.92s-2.38,5.37-1.22,7.1c0,0-.84-4.26,2-6.44S16.55,58,16.55,58Z"/>
      <path class="f8e1cb0f-922e-4766-8a0b-4d6860c05747" d="M38.47,62.18s9.35,2.6,13.85-.31a11.41,11.41,0,0,0,4.85-8.2s3.12,8-3.55,12.66S41.2,70.7,41.2,70.7l-.8-1.09a1.06,1.06,0,0,0-1.3-.34,8.76,8.76,0,0,0-2.83,2.47l2.33-5.61Z"/>
      <path class="ecf444ad-f1bd-4ab9-bffd-85981d14bc78" d="M36.68,61.5s3.4,3.53-1,8.59-3.34,8.67-8.41,9.11-4.08-2.22-4.36-3-.79-3.26-1.9-3.55c0,0-2.25-.43-.41.79,0,0,1.54.87,1.72,4.63s6.32,2.64,7.72,1.7,3.17-2.54,5.55-7.28c0,0,3-2.73,3.82-5.21S39.77,61.92,36.68,61.5Z"/>
      <path class="ecf444ad-f1bd-4ab9-bffd-85981d14bc78" d="M11.85,68.16s.09,3.46,8.53,2.91,11.33-6.83,11.33-6.83-1.26,7.45-12.37,8.5c0,0-6.83.91-8.64-3.39C10.7,69.35,9.83,68,11.85,68.16Z"/>
      <path class="ecf444ad-f1bd-4ab9-bffd-85981d14bc78" d="M21.11,64.63s-.23-5.89,4.27-6.26a3,3,0,0,1,2.51,2.13,3.37,3.37,0,0,0-4.17-.76A5.66,5.66,0,0,0,21.11,64.63Z"/>
      <g>
        <ellipse class="a760afd5-6e6d-4d00-b0dd-d0da1b5e3777" cx="41.08" cy="46.79" rx="5.49" ry="4.46" transform="translate(-15.95 71.78) rotate(-72.38)"/>
        <ellipse class="e4df4697-53d9-4eb1-bddc-b35cfeb78bf2" cx="41.08" cy="46.79" rx="3.15" ry="2.56" transform="translate(-15.95 71.78) rotate(-72.38)"/>
        <ellipse class="acbdfd72-786b-4b61-8c5c-132a34387554" cx="40.95" cy="47.27" rx="2.16" ry="1.76" transform="translate(-10.03 83.51) rotate(-84.5)"/>
        <ellipse class="fc627171-08cc-46cc-849d-a06c8a4e584d" cx="40.52" cy="45.56" rx="0.68" ry="0.65"/>
        <ellipse class="fc627171-08cc-46cc-849d-a06c8a4e584d" cx="40.92" cy="49.02" rx="0.44" ry="0.41"/>
      </g>
      <path class="a760afd5-6e6d-4d00-b0dd-d0da1b5e3777" d="M26.32,43.63s-2-.92-2.86,2.77a7.19,7.19,0,0,0,.73,5,7.58,7.58,0,0,0,2.54-4.6S27.05,44.27,26.32,43.63Z"/>
      <path class="b09530ce-8604-4b79-b32b-661dfe556025" d="M24.67,46.94a3.62,3.62,0,0,0,.74,2.72c.17.23,1.19-2.79,1.19-2.79l0-2S25.12,44.69,24.67,46.94Z"/>
      <path class="acbdfd72-786b-4b61-8c5c-132a34387554" d="M26.57,45.56a1.58,1.58,0,0,0-1.36,1.71c0,1.58.68,2,.68,2a7.58,7.58,0,0,0,.84-2.5c.07-1.09.07-1.24.07-1.24"/>
      <ellipse class="fc627171-08cc-46cc-849d-a06c8a4e584d" cx="25.87" cy="45.98" rx="0.5" ry="0.62"/>
      <path class="ecf444ad-f1bd-4ab9-bffd-85981d14bc78" d="M33.9,56.05s9.24,1.38,13.49-6.37A19.07,19.07,0,0,0,49.3,35.23s6,9.38-.91,18.48C42.49,61.5,33.9,56.05,33.9,56.05Z"/>
      <path class="ecf444ad-f1bd-4ab9-bffd-85981d14bc78" d="M38.47,38.31s5.62-3.08,7.43,2.34c0,0,.05-4.1-3.41-5.42C39.71,34.17,38.47,38.31,38.47,38.31Z"/>
      <path class="ecf444ad-f1bd-4ab9-bffd-85981d14bc78" d="M24.12,42.93s1.07-2.18,2.68.26c0,0-.2-2.86-1.61-2.44C24,41.11,24.12,42.93,24.12,42.93Z"/>
      <path class="ecf444ad-f1bd-4ab9-bffd-85981d14bc78" d="M40.13,61s9-1.7,11.58-6.8a27.33,27.33,0,0,0,2.34-15.1s2.74,3.3.66,14.16S40.13,61,40.13,61Z"/>
      <path class="ecf444ad-f1bd-4ab9-bffd-85981d14bc78" d="M35.27,29.72S37,38.29,33.43,43.19c0,0,5-7.38,4.55-14.73C38,28.46,35,27.84,35.27,29.72Z"/>
      <path class="ecf444ad-f1bd-4ab9-bffd-85981d14bc78" d="M41.2,70.7s4.11-.79,8.92-2.23c2-.6,4.11-1.32,6.11-2.14,0,0,.28,6.13-11.39,10.82C44.84,77.15,42.23,71.69,41.2,70.7Z"/>
      <path class="ecf444ad-f1bd-4ab9-bffd-85981d14bc78" d="M66.48,52.06s-5,17-15.82,26c0,0,5.65-.26,12.46-7.42S71.25,60.5,71.25,60.5Z"/>
      <path class="b3b5f418-f6a5-4711-ba45-cf1745053f80" d="M16.54,72.76s1.27,2.9,8.19.53,7.56-6.74,7.56-6.74l-1-1s-1.43,3.86-5,5.22A23.31,23.31,0,0,1,16.54,72.76Z"/>
      <path class="b3b5f418-f6a5-4711-ba45-cf1745053f80" d="M23.43,75.19s1.17,2,4.46.59a8.34,8.34,0,0,0,4.74-6.55c.08-1.64.15-2.46.15-2.46l.59.18s.53,4.29-1.53,7.27S29,77.66,27.23,78,23.44,77.55,23.43,75.19Z"/>
      <g>
        <path class="ecf444ad-f1bd-4ab9-bffd-85981d14bc78" d="M29,22.44l7.29,7.82a33.79,33.79,0,0,0-2.84,4.17L26.6,24.7S27.77,22.57,29,22.44Z"/>
        <path class="ecf444ad-f1bd-4ab9-bffd-85981d14bc78" d="M35.89,19.35l-2,.29s.66,7.6,2.37,9.2L38,28.46Z"/>
        <path class="ecf444ad-f1bd-4ab9-bffd-85981d14bc78" d="M48.39,28.36s2.54-5.12,2.8-7.92l4.21,2S53.88,28.81,51.89,31Z"/>
        <path class="ecf444ad-f1bd-4ab9-bffd-85981d14bc78" d="M56.23,34.1a31.58,31.58,0,0,0,7.39-4s4.56,5.41,5.7,7.76l1.15,2.35L63.9,46.3S59.07,35.91,56.23,34.1Z"/>
        <path class="ecf444ad-f1bd-4ab9-bffd-85981d14bc78" d="M74.55,48.15a12.88,12.88,0,0,1-7.16,5.52L73,63.23A41.65,41.65,0,0,0,77.46,61S74.25,54.24,74.55,48.15Z"/>
        <path class="ecf444ad-f1bd-4ab9-bffd-85981d14bc78" d="M78.63,62.7l-3.57,3.63s2.4,5.41,5.55,8.61l3-3.61-3.32-5.86-2.54.86,2-2.42Z"/>
        <polygon class="ecf444ad-f1bd-4ab9-bffd-85981d14bc78" points="83.27 78.88 86.17 77.15 88.11 82.38 86.48 83.36 83.27 78.88"/>
      </g>
      <g>
        <path class="fa414373-bba3-4056-b8ae-1ef57450d88f" d="M184.79,138.24s-5.28,6,2.65,13.49,9.77,6,9.77,6-3-2.29-2.07-5.26,1.84-3.65,1-8.31-5.56-7-8.07-8.15C188.11,136,185.14,136,184.79,138.24Z"/>
        <path class="b0823645-cdaa-4446-8766-6841176593b4" d="M165.91,105s15.09,5.5,19.16,15.13S188,141.25,188,141.25s-3.56-2.63-3.39-6.76c.16-3.82-.12-12-10.52-18.49-.84-.51-1.73-1-2.7-1.51Z"/>
      </g>
      <path class="e131d596-ab94-409b-9700-3e284096b03a" d="M44.84,77.15a37.57,37.57,0,0,1,3.24,19.28c0,16.73-3.22,33.29,2.8,49.95a27.45,27.45,0,0,0,2.68,4.35,12.71,12.71,0,0,0,4.14,3.89c11.72,5.35,20.2,5.07,31.83,6.53,12.36.72,27.09-.13,40.26-8.62l-6-8.13s-17.88,14.13-53.56,4.22c0,0-12.15-7.64-13.63-39.79,0,0-1.17-27.24-5.26-35.16Z"/>
      <path class="aeaf6771-b0ab-448b-8bae-f856e47affc6" d="M89.17,133.9s3.39,26.54-3.92,33.33l-1.57,49.5s1.41,2,1.28,3L77.69,218l-6.42-59.48-2.86-26Z"/>
      <path class="aeaf6771-b0ab-448b-8bae-f856e47affc6" d="M116.62,134.87s12.53,16.77,13.17,17.66,6.72,10.14,31,22.72l5.79,42.92-2.31,2.18,7.61,1.34s2.69-.59,2.14-2.81a25.39,25.39,0,0,0-1.92-4.8l.68-36S174.09,170,171,163c0,0-3.59-4-3.85-12.6,0,0,3.33-11.21,3.73-14.24S132,125.51,132,125.51Z"/>
      <path class="ecf444ad-f1bd-4ab9-bffd-85981d14bc78" d="M96,92.66s5.82,24.41-6.09,44.27c0,0,16.1-19.35,14-41.08Z"/>
      <path class="ecf444ad-f1bd-4ab9-bffd-85981d14bc78" d="M114.42,98s3.85,19.72-5.58,36.82c0,0,10.77-16.58,10.62-36.35Z"/>
      <path class="ecf444ad-f1bd-4ab9-bffd-85981d14bc78" d="M125.25,98.58s5.06,20.38-1.21,34c0,0,6-10.84,6.55-22.7s-2.31-11.46-2.31-11.46Z"/>
      <path class="ecf444ad-f1bd-4ab9-bffd-85981d14bc78" d="M91.17,161.35s7.84-8.08,10.28-27.88c0,0,2.06,16.71-5.14,27.9Z"/>
      <path class="ecf444ad-f1bd-4ab9-bffd-85981d14bc78" d="M104.26,161s14.42-13,16.09-39c0,0,.54,27.07-10.15,38.2Z"/>
      <path class="ecf444ad-f1bd-4ab9-bffd-85981d14bc78" d="M48.37,92.66s13.36-3.08,17.39-9.85c0,0-8.65,14.18-17.72,17.15Z"/>
      <path class="ecf444ad-f1bd-4ab9-bffd-85981d14bc78" d="M75.06,66.33A22.88,22.88,0,0,1,63.62,78s12.11-3.35,13.84-7.77Z"/>
      <path class="ecf444ad-f1bd-4ab9-bffd-85981d14bc78" d="M47.56,86s9-1.07,11.45-5.4c0,0-4.12,6.9-10.83,9.47Z"/>
      <path class="ecf444ad-f1bd-4ab9-bffd-85981d14bc78" d="M82,76.29s-.14,22.65-26.52,30.42c0,0,15.83,0,25.43-11.43s4.77-13,4.77-13Z"/>
      <path class="ecf444ad-f1bd-4ab9-bffd-85981d14bc78" d="M47.56,115.45s7.71,8.4,26.49-4.71c0,0-9.25,13.26-26.77,12.24Z"/>
      <path class="ecf444ad-f1bd-4ab9-bffd-85981d14bc78" d="M88.82,86.39s.21,21.55-12.29,31.12c0,0,13.66-9.27,16.81-26.57Z"/>
      <path class="ecf444ad-f1bd-4ab9-bffd-85981d14bc78" d="M48.25,134.86s16.85,1,27.43-11c0,0-5.51,12.26-26.22,17.55C49.46,141.46,47.84,136.76,48.25,134.86Z"/>
      <path class="ecf444ad-f1bd-4ab9-bffd-85981d14bc78" d="M89.2,157.81S84.71,166.4,75.68,167c0,0,7.09.84,11.63-2.82A42.66,42.66,0,0,0,89.2,157.81Z"/>
      <path class="ecf444ad-f1bd-4ab9-bffd-85981d14bc78" d="M92.37,108.73s2.3,20.41-12.12,29.15c0,0,13.19-2.82,14.42-21.43C94.67,116.45,94.36,108.58,92.37,108.73Z"/>
      <path class="ecf444ad-f1bd-4ab9-bffd-85981d14bc78" d="M53.81,151.07s10.61-3.31,13.5-7.9c0,0,3.63,6.46-7.57,12.34C59.74,155.51,55,153.79,53.81,151.07Z"/>
      <path class="ecf444ad-f1bd-4ab9-bffd-85981d14bc78" d="M73.52,179.35S72.32,176,78,173,85,178.21,85,178.21s-2.52-5.33-6.94-3.06S73.52,179.35,73.52,179.35Z"/>
      <path class="ecf444ad-f1bd-4ab9-bffd-85981d14bc78" d="M74.54,188.8s.6-4.3,6.4-4.3c3.76,0,3.59,5.49,3.59,5.49s-1.89-4.63-5-3.41A54.13,54.13,0,0,0,74.54,188.8Z"/>
      <path class="ecf444ad-f1bd-4ab9-bffd-85981d14bc78" d="M127,148.75s7.93-40,40.61-41.1l3.08,6.36s-13.64-3-26.85,10.22S127,148.75,127,148.75Z"/>
      <path class="ecf444ad-f1bd-4ab9-bffd-85981d14bc78" d="M135,158.24s-1.12-17.05,16.89-31c0,0-15.65,22.14-13.7,33.72Z"/>
      <path class="ecf444ad-f1bd-4ab9-bffd-85981d14bc78" d="M135.9,96.84s5.65,9.27,4.09,18c0,.22-.09.44-.14.66-2,8.87,5.34-10.41.41-19.52Z"/>
      <path class="ecf444ad-f1bd-4ab9-bffd-85981d14bc78" d="M145.35,166.23s3.07-29.62,26.38-24.77c0,0-20.68,1-22.9,27Z"/>
      <path class="ecf444ad-f1bd-4ab9-bffd-85981d14bc78" d="M172.66,122.42s-16.8-.14-23.83,20.14c0,0,10.49-16.75,24.14-17.81Z"/>
      <path class="ecf444ad-f1bd-4ab9-bffd-85981d14bc78" d="M146.28,95.27s7.19,4.28,4.82,11.91c0,0,5.13-7.13,0-11.6l-2.76-.31Z"/>
      <path class="ecf444ad-f1bd-4ab9-bffd-85981d14bc78" d="M70.37,150.36s4.71,6,19.24,4.34c0,0-4.73,5.32-18.54,2"/>
      <path class="ecf444ad-f1bd-4ab9-bffd-85981d14bc78" d="M155.63,172.31s1.44-11.6,12.59-14.52l.28-4.77S151.29,159.22,155.63,172.31Z"/>
      <path class="ecf444ad-f1bd-4ab9-bffd-85981d14bc78" d="M161.9,183.57s.06-11.83,11-12.84l.14,2.87S164.23,177.1,161.9,183.57Z"/>
      <path class="ecf444ad-f1bd-4ab9-bffd-85981d14bc78" d="M163.43,194.88s3.38-5.43,8.3-2.65c0,0-8.25,3-7.84,6.08Z"/>
      <path class="ecf444ad-f1bd-4ab9-bffd-85981d14bc78" d="M172.3,203.35s-1.76-3.74-5.62-.76c0,0,5.76,1.81,5.62,5.23Z"/>
      <path class="ecf444ad-f1bd-4ab9-bffd-85981d14bc78" d="M76.12,203.47a7.7,7.7,0,0,1,8.09-3.53s-4.31-3.67-8.48-.11Z"/>
      <path class="ecf444ad-f1bd-4ab9-bffd-85981d14bc78" d="M121.38,164.92A12.29,12.29,0,0,0,133.44,161s-2.45,7.39-10.28,7.51l-1.78-2.94"/>
      <path class="ecf444ad-f1bd-4ab9-bffd-85981d14bc78" d="M126.55,174.77s8-.49,8.84-4l1.21,4S127.78,177,126.55,174.77Z"/>
      <path class="ecf444ad-f1bd-4ab9-bffd-85981d14bc78" d="M125.11,186s4.17,1.43,8.93-2.46c0,0-2.3,5-10,6.42Z"/>
      <path class="ecf444ad-f1bd-4ab9-bffd-85981d14bc78" d="M173,181s-8.88,1.16-9.54,5.08c0,0,7.22-4.25,9.23-2.46Z"/>
      <path class="ecf444ad-f1bd-4ab9-bffd-85981d14bc78" d="M123.74,144.4s-2.28-6.81,3.67-14.29c0,0-3,13.25-2,16.47"/>
      <path class="ecf444ad-f1bd-4ab9-bffd-85981d14bc78" d="M59.63,171.37s1.19-5.72,8.78-6.64c0,0-4.45-3.87-9.79.7Z"/>
      <path class="ecf444ad-f1bd-4ab9-bffd-85981d14bc78" d="M63.52,178s6.34.07,7.76,3l.92-4.15S69.18,173,63.52,178Z"/>
      <path class="ecf444ad-f1bd-4ab9-bffd-85981d14bc78" d="M61.84,189.31s2.2-5.38,8.22-2.53c0,0-4.1-4.79-8.33-.75Z"/>
      <path class="ecf444ad-f1bd-4ab9-bffd-85981d14bc78" d="M120.61,202.06s2.46,4.83,5.75,2.95l-1.06,3.24S120.33,204.92,120.61,202.06Z"/>
      <path class="ecf444ad-f1bd-4ab9-bffd-85981d14bc78" d="M62.17,199.27s2.64-3.39,6.72-3.08c0,0-6.71,3.39-6.63,5.87Z"/>
      <path class="ecf444ad-f1bd-4ab9-bffd-85981d14bc78" d="M69.42,140.92l.64,4.86a27.25,27.25,0,0,0,17.4,3S71.51,148.14,69.42,140.92Z"/>
      <path class="ecf444ad-f1bd-4ab9-bffd-85981d14bc78" d="M174,116s-.82-4.57,2.42-5.45l-2-1.29s-2.94,1.16-2.69,5.4Z"/>
      <path class="ecf444ad-f1bd-4ab9-bffd-85981d14bc78" d="M177.77,118.75s-.63-4.27,3.2-4.46l1.56,1.71s-3.66.73-3.39,4Z"/>
      <path class="ecf444ad-f1bd-4ab9-bffd-85981d14bc78" d="M182.53,124.67s.1-3.41,3.08-3.18l.68,2a2.49,2.49,0,0,0-3.22,2.11Z"/>
      <path class="ecf444ad-f1bd-4ab9-bffd-85981d14bc78" d="M184.5,131.42s1.42-1.73,3.2-.94l-.25-1.75S184,129,184.5,131.42Z"/>
      <path class="ecf444ad-f1bd-4ab9-bffd-85981d14bc78" d="M184.94,137.07a2.86,2.86,0,0,1,3.17-1.36v-1.07s-3.4,0-3.36,1.79Z"/>
      <path class="bb706e5b-1fab-4366-8ca1-284635e33599" d="M184.83,138.19s-2.26,8.72,5.35,14.2c0,0,4.31,4.79,7.07,5.31,0,0-1.43,1.41-7.73-4.18S181.19,143.78,184.83,138.19Z"/>
      <path class="ecf444ad-f1bd-4ab9-bffd-85981d14bc78" d="M169.06,106.33s-1.55.89-1.27,1.94l1.92,2.13s.26-2.74,1.25-3.14Z"/>
      <path class="f4b628eb-ca1c-47e2-b662-1a3874cdad81" d="M48.13,32.3c2.21-17.1-10.47-21.42-10.47-21.42-5.19,15.75,2.69,20,2.69,20"/>
      <path class="b193b2fa-c07a-42cb-a32d-f0f648bacc89" d="M46.4,31.53s-4.7-1.15-5.66-9.12-.48-7.69-.48-7.69,5.47,5.19,6.14,8.41S47.07,30.47,46.4,31.53Z"/>
      <path class="a97938e6-478a-4a95-92e7-ba46b5ba7a86" d="M48.39,28.36s6.06,2.71,9.51,7.41,9.33,18,11.18,21.15,13.21,21,20,29.72,18.42,10.3,26.1,11.6c0,0,11.29,1.53,22-1.68,0,0,15.35-4.91,24.72,4.13a38.32,38.32,0,0,1,11,21.25,41.85,41.85,0,0,1-2.33,22.91s-3,8.23-2.42,12.94A24.84,24.84,0,0,0,171,163c1.48,1.84,2.6,9.92,1.76,15.08l-.68,36s4.57,6.79-.22,7.61l-7.61-1.34,2.31-2.18-5.79-42.92s-31.31-13.19-40.43-37.91"/>
      <path class="a97938e6-478a-4a95-92e7-ba46b5ba7a86" d="M129.79,152.53S116,163.85,88.1,161.09"/>
      <path class="a97938e6-478a-4a95-92e7-ba46b5ba7a86" d="M118.18,158.27s5.17,12.53,9.59,18.39l-11.15,40.49,5,1.09,1.82,3.45s2.37-2.09-.61-5.63c0,0,11.07-35.67,14.55-39.15,0,0-4.91-15.61-4.22-20.46"/>
      <path class="a97938e6-478a-4a95-92e7-ba46b5ba7a86" d="M89.17,136.93s3.31,22.37-3.92,30.3l-1.57,49.5s1.47,1.63,1.28,3L77.69,218l-9.17-84.54"/>
      <path class="a97938e6-478a-4a95-92e7-ba46b5ba7a86" d="M71.27,158.53s-4.21-.6-6.22-2c-1.53-1-8,1.27-13.27-8.47,0,0-5.59-5.92-4.07-34.14s-.23-34.79-7.31-44.33c0,0-.93-1.31-3.81,1.46"/>
      <path class="a97938e6-478a-4a95-92e7-ba46b5ba7a86" d="M56.79,154.08,61.63,183l.95,28.61-1.89,1.35,7.69,2a7.35,7.35,0,0,0-.54-5.13S69,185.53,73,174.35"/>
      <path class="a97938e6-478a-4a95-92e7-ba46b5ba7a86" d="M40.4,69.61s16.16-2,16.5-12.6"/>
      <path class="a97938e6-478a-4a95-92e7-ba46b5ba7a86" d="M24.42,39.91a20.35,20.35,0,0,0-.42,5"/>
      <path class="a97938e6-478a-4a95-92e7-ba46b5ba7a86" d="M23.36,49s-2.19,2.54-2.25,4.61"/>
      <path class="b1363cfb-74ad-4172-bf42-bb961aca2bd3" d="M21.3,74.22c.68.56,1,3.81,1,3.81s-.34,3.13,4.95,2.57,8.32-8.15,8.32-8.15c1.82-1.32,4.64-5.29,4.29-7.82s-1.91-3.75-5.22-3.84-4.32-2-5.54-4c-1.44-2.42-.65-4.36-3.62-4.64-3.49-.32-7.27,3.78-7.27,3.78-.46-.58-2.09-1.74-4.91,1.61a5.18,5.18,0,0,0-.59,6.41s0,3.17-.9,4-1.69.25-1.09,1.48,1.74,3,6.24,3.47c0,0,7.4.2,11.69-3.71,3.61-3.28,3.08-5.53,3.08-5.53l-1.23-.27,2.46.6"/>
      <path class="b1363cfb-74ad-4172-bf42-bb961aca2bd3" d="M31.86,63.91s1.62.12,1.57,4.29-1.87,7.71-4.75,9.37-4.94.11-5.25-1.58l-.38-2.19"/>
    </g>
  </g>
</svg>
