<svg id="b7b3a190-7888-4856-9a01-fa5b4d333f74" data-name="Layer 1" xmlns="http://www.w3.org/2000/svg" width="216.31" height="253.74" viewBox="0 0 216.31 253.74">
  <defs>
    <style>
      .ae92a1b2-ec09-4a4b-a860-5a716426d568, .b0155472-ef0a-49ee-b93e-021696842214, .b18efd2c-a31d-4bf2-8629-be3338d0c00d, .b375e7c7-4fcd-452f-b99b-fb4f751a1f8e, .b606310f-68be-4f18-aab7-e4b39b979b8e, .b71b7336-a570-46c7-a48e-c45c4403c252, .bb3026f7-ecf3-41f3-980f-71f8bbbd5922, .bbe781f3-1933-4842-a022-2ef66d830c05, .e1cf1a9d-f61d-41f9-b2dc-8e9f92f012fe, .e539b610-4381-495f-9e51-19577c1abb68, .f3f249d2-c7e4-4b56-871f-de467d383c1b, .f87e2a69-9ded-4217-a675-0b1c5f686fc0, .feddda61-cc93-458f-87cb-3d60ac28b5d3 {
        fill-rule: evenodd;
      }

      .e1cf1a9d-f61d-41f9-b2dc-8e9f92f012fe {
        opacity: 0.5;
      }

      .b71b7336-a570-46c7-a48e-c45c4403c252, .e539b610-4381-495f-9e51-19577c1abb68, .f3f249d2-c7e4-4b56-871f-de467d383c1b {
        fill: #fff;
      }

      .b18efd2c-a31d-4bf2-8629-be3338d0c00d, .feddda61-cc93-458f-87cb-3d60ac28b5d3 {
        fill: #2c7099;
        stroke-width: 0.75px;
      }

      .b18efd2c-a31d-4bf2-8629-be3338d0c00d {
        stroke: #0c3d56;
      }

      .b18efd2c-a31d-4bf2-8629-be3338d0c00d, .e539b610-4381-495f-9e51-19577c1abb68, .f3f249d2-c7e4-4b56-871f-de467d383c1b, .feddda61-cc93-458f-87cb-3d60ac28b5d3 {
        stroke-miterlimit: 10;
      }

      .f87e2a69-9ded-4217-a675-0b1c5f686fc0 {
        fill: #f4fbff;
      }

      .b0155472-ef0a-49ee-b93e-021696842214 {
        fill: #8bb6d4;
      }

      .e539b610-4381-495f-9e51-19577c1abb68 {
        stroke: #0f2938;
      }

      .bb3026f7-ecf3-41f3-980f-71f8bbbd5922 {
        fill: #132836;
      }

      .f3f249d2-c7e4-4b56-871f-de467d383c1b, .feddda61-cc93-458f-87cb-3d60ac28b5d3 {
        stroke: #397faa;
      }

      .b375e7c7-4fcd-452f-b99b-fb4f751a1f8e {
        fill: #355668;
      }

      .b606310f-68be-4f18-aab7-e4b39b979b8e {
        fill: #ff415a;
      }

      .ae92a1b2-ec09-4a4b-a860-5a716426d568 {
        fill: #4b718c;
      }

      .bbe781f3-1933-4842-a022-2ef66d830c05 {
        fill: #154c68;
      }
    </style>
  </defs>
  <g>
    <path class="e1cf1a9d-f61d-41f9-b2dc-8e9f92f012fe" d="M169.79,250.5a8.3,8.3,0,0,1-2.35-.34c-21.14-6.25-22.31-23.5-23-33.81a53.12,53.12,0,0,0-.91-7.88l-.67-.09c-33-4.68-63.65-24.59-81.89-52.74a50.63,50.63,0,0,0-10.07,9.89c-.36.48-.73,1.05-1.12,1.64-2.39,3.58-5.67,8.49-11.51,8.49h-.45c-2.55-.09-7.93-1.31-9.84-9.73a39.84,39.84,0,0,1-.83-9.06c0-8,1.7-19.75,6.39-29.7a14.81,14.81,0,0,0-3.34,1.44l-.36.21c-3.31,2-7.19,4.11-11.29,4.11-6,0-10.35-4.36-10.61-10.59,0-.27,0-.57,0-.88v-.27c0-.37,0-.77.08-1.19,2.55-25.85,21.93-44.13,39.26-52.88C54.72,37.57,76,19.82,92.54,13.48A70.81,70.81,0,0,1,117.76,8.4a51.49,51.49,0,0,1,30.78,10c10.4,7.54,14.89,17.85,18.6,28.22,1.27-.12,2.53-.18,3.75-.18,13.05,0,21,7.14,21.79,13.86a9.37,9.37,0,0,1-7.07,10.41c-1.85.47-4.23,1.14-7.41,2.1a8.49,8.49,0,0,1-1.39.58c-6.77,2.07-13.76,4.64-20.51,7.11l-3.13,1.15c-.56,4.47,1.19,9.51,3.45,12.8l3.42-.26c4.25-.33,7.92-.61,10.43-.61a18.62,18.62,0,0,1,3,.2,49.73,49.73,0,0,1,17,6.2,9.08,9.08,0,0,1,4.34,9.29c-1.14,6.41-7.46,7.8-12.07,8.82-.52.11-1.21.26-1.49.34-3.24,1.14-7.26,3.92-11.14,6.61-1.16.8-2.31,1.6-3.45,2.37a41.7,41.7,0,0,1-19.92,7.16c-.45,10.34-1.36,19.54-2,25.2,1.38,3.08,6.91,11,11.14,15.79,1.15,1.31,2.21,2.57,3.17,3.75,3.51-.1,7.79-1.94,12.31-3.89,5.72-2.46,12.2-5.25,19.19-5.25A25.33,25.33,0,0,1,207.77,177a37.25,37.25,0,0,1,3.82,3.9,8.25,8.25,0,0,1,1.76,7.15,8.08,8.08,0,0,1-.54,1.64,8.24,8.24,0,0,1-7.44,4.88c-2.9,0-5.78,3.09-9.84,7.76-3,3.45-6.48,7.46-11,9.77,0,.35,0,.7,0,1,0,5.79-2.25,11-4.22,15.56-1.4,3.25-2.72,6.33-2.9,8.78a4.13,4.13,0,0,0,.22,1.1,8.65,8.65,0,0,1-7.84,11.93Z"/>
    <path class="b71b7336-a570-46c7-a48e-c45c4403c252" d="M164.62,245.34a8.18,8.18,0,0,1-2.34-.34c-21.14-6.26-22.31-23.51-23-33.81a52.18,52.18,0,0,0-.9-7.89l-.67-.08c-33-4.68-63.65-24.6-81.9-52.74a50.52,50.52,0,0,0-10.06,9.89c-.36.48-.73,1-1.13,1.63-2.39,3.59-5.66,8.49-11.51,8.49h-.44c-2.55-.09-7.93-1.31-9.84-9.73a40.31,40.31,0,0,1-.84-9.06c0-8,1.71-19.75,6.39-29.69A15,15,0,0,0,25,123.44l-.35.21c-3.31,2-7.19,4.11-11.3,4.11-6,0-10.34-4.36-10.61-10.59,0-.28,0-.57,0-.88,0-.09,0-.27,0-.27,0-.38,0-.77.08-1.19C5.4,89,24.78,70.7,42.1,62,49.56,32.41,70.83,14.66,87.37,8.32A70.9,70.9,0,0,1,112.6,3.24a51.39,51.39,0,0,1,30.77,10c10.41,7.53,14.9,17.85,18.61,28.22,1.27-.12,2.53-.19,3.75-.19,13.05,0,21,7.15,21.79,13.87a9.39,9.39,0,0,1-7.07,10.41c-1.85.46-4.23,1.14-7.41,2.1a8.21,8.21,0,0,1-1.4.57c-6.76,2.08-13.75,4.64-20.51,7.12L148,76.52c-.56,4.47,1.19,9.51,3.46,12.79l3.41-.26c4.26-.32,7.93-.6,10.44-.6a18.4,18.4,0,0,1,3,.2,49.5,49.5,0,0,1,17,6.2,9.05,9.05,0,0,1,4.33,9.29c-1.13,6.41-7.45,7.8-12.07,8.81l-1.48.34c-3.25,1.15-7.26,3.93-11.15,6.62-1.15.8-2.3,1.6-3.45,2.37a41.72,41.72,0,0,1-19.91,7.16c-.46,10.34-1.36,19.54-2,25.2,1.38,3.08,6.91,11,11.14,15.78,1.15,1.32,2.21,2.58,3.17,3.76,3.5-.1,7.78-1.94,12.31-3.89,5.71-2.47,12.19-5.26,19.19-5.26a25.32,25.32,0,0,1,17.18,6.79,36.34,36.34,0,0,1,3.83,3.9,8.28,8.28,0,0,1,1.76,7.15,8.51,8.51,0,0,1-.54,1.64,8.28,8.28,0,0,1-7.44,4.88c-2.91,0-5.78,3.09-9.84,7.75-3,3.46-6.49,7.47-11,9.78,0,.34,0,.69,0,1,0,5.8-2.25,11-4.22,15.56-1.4,3.26-2.73,6.33-2.9,8.79a4.67,4.67,0,0,0,.21,1.1,8.64,8.64,0,0,1-7.84,11.93Z"/>
    <g>
      <path class="b18efd2c-a31d-4bf2-8629-be3338d0c00d" d="M130.67,97.92c11.08,1.29,32.26-1.78,36.34-1.12a41.57,41.57,0,0,1,13.9,5c3,1.91-5.35,2.93-7.4,3.64-5.43,1.87-11.07,6.26-16.58,10-4.51,3-17.14,10.07-31,2.38C126.31,108.64,124.36,102.69,130.67,97.92Z"/>
      <path class="b18efd2c-a31d-4bf2-8629-be3338d0c00d" d="M149.57,182c16.75,4.23,33.93-20.8,50.56-.82-13.29.13-18.58,20.51-29.33,19.38-.79-.08-1.59.52-1.23,1.2,6.29,11.78-8.89,23.33-4.94,35.37-25-7.41-11.95-32.39-21.5-42.19Q146.36,188.43,149.57,182Z"/>
      <path class="f87e2a69-9ded-4217-a675-0b1c5f686fc0" d="M196.44,177.42a27.35,27.35,0,0,1,3.69,3.64c-13.29.13-18.58,20.16-29.33,19.05-.79-.09-1.59.51-1.23,1.17,6.29,11.57-8.89,22.92-4.94,34.74-25-7.27-11.95-31.81-21.5-41.43l.56-1.11c10.16,11-2,31.27,18.79,40.26-2.8-10.31,12.16-22.7,5.87-34.27-.36-.67.44-1.26,1.23-1.18,10.74,1.11,17.1-19.84,30.3-17.42A29.49,29.49,0,0,0,196.44,177.42Z"/>
      <path class="b18efd2c-a31d-4bf2-8629-be3338d0c00d" d="M53.38,66.09c-18.29,6.39-39.81,24.17-42.31,49.53-.72,7.29,7,2.37,9.74.72,11.1-6.61,28.5-2.85,36.85,0C56.85,100.71,54.19,81.75,53.38,66.09Z"/>
      <path class="f87e2a69-9ded-4217-a675-0b1c5f686fc0" d="M53.38,66.09c-18.29,6.39-39.81,24.17-42.31,49.53-.18,1.77.14,2.66.75,3a3.22,3.22,0,0,1,0-.43c2.45-24.84,23.59-43.23,41.64-50C53.45,67.49,53.41,66.79,53.38,66.09Z"/>
      <path class="b18efd2c-a31d-4bf2-8629-be3338d0c00d" d="M148.16,194.8a30.5,30.5,0,0,1-9.3.24c-34.62-4.91-67.35-27.9-83.1-61.63-5.06-10.83-7.65-25.5-8.39-35.11,1-4.8-.17-11.51-.12-15.37.6-4,.82-8.19,1.46-12.16,5-31,26.11-48.79,41.62-54.74,18.07-6.92,34.31-6.14,48.2,3.93,10.21,7.4,13.6,18.36,17.74,30.24,1.08,3.09,7.69,7,12.95,10.15-11.08,3.41-22.17,7.87-33.25,11.7l-3.74,22.56c.88,1.42,1.46,4.2.94,8.9,1.32,16.88-.35,38.18-1.91,51.45-.4,3.36,8.71,15.71,13.27,20.91,3.09,3.52,9.11,10.71,8.23,13C152.37,191.21,150.43,193.45,148.16,194.8Z"/>
      <path class="f87e2a69-9ded-4217-a675-0b1c5f686fc0" d="M147.35,193.77a29.94,29.94,0,0,1-9.07.23,107.65,107.65,0,0,1-79.07-55.65l2.37.32a108,108,0,0,0,67.75,52.09C134.56,192.07,141.92,194,147.35,193.77Z"/>
      <path class="b71b7336-a570-46c7-a48e-c45c4403c252" d="M95.06,65.33c-10.65.8-11.46,8.49-4.42,19.62,1.88,3-11.24,20.67-10.48,28.53,1.88,19.41,10.66,37.44,27.54,53,7.24,6.68,14.26,13.17,24.34,15,8.64,1.56,11.63-4.61,6.16-12.82-.46-.63-.92-1.26-1.37-1.91h0c-3.48-4.91-6.52-10-6.29-11.95,1.56-13.28,3.2-39.83,1.88-56.7C123.93,85,116.8,75.67,108.32,62.56,103.23,63.28,100.14,64.62,95.06,65.33Z"/>
      <g>
        <path class="b0155472-ef0a-49ee-b93e-021696842214" d="M96.54,32.54c-4.93,6.72-.28,17.94,7.32,20.74a9.56,9.56,0,0,0,12.06-7.4c.79-3.8.74-10.07-3.49-14.45A10.34,10.34,0,0,0,96.54,32.54Z"/>
        <path class="e539b610-4381-495f-9e51-19577c1abb68" d="M98.27,35.34c-3.79,6.19.49,15.59,6.21,18.17a6.57,6.57,0,0,0,5.22.13c5.56-2.36,7.46-9.83,5.41-15.21a12.9,12.9,0,0,0-3-4.56C108.71,30.43,101.64,29.85,98.27,35.34Z"/>
        <path class="bb3026f7-ecf3-41f3-980f-71f8bbbd5922" d="M100,47.74c1.51,3.44,5.26,6.93,8.83,5.36a6.45,6.45,0,0,0,3.06-3.78c1.51-3.81.34-9.39-3-11.78a5.89,5.89,0,0,0-7.59.32C98.8,40.28,98.46,44.34,100,47.74Z"/>
        <path class="b71b7336-a570-46c7-a48e-c45c4403c252" d="M102.72,35.12a3.08,3.08,0,0,0-.9,4,2.61,2.61,0,0,0,3.6,1.37,3.07,3.07,0,0,0,.91-4A2.63,2.63,0,0,0,102.72,35.12Z"/>
      </g>
      <path class="b18efd2c-a31d-4bf2-8629-be3338d0c00d" d="M63.83,96.7c-10.59,7.6-21.34,16.18-27.11,27.06S29.1,151,30.9,158.83s5.56.19,8.2-3.38,9.31-11,17-14.82c3.23-1.6,6.66-6.26,7.41-10.84,1.13-6.86.44-16.2,5.17-20.2C71.41,105.33,71.64,97.55,63.83,96.7Z"/>
      <path class="f87e2a69-9ded-4217-a675-0b1c5f686fc0" d="M62.29,98.62l-.07.06,0,0-.69.5,0,0,0,0-.55.4h0l0,0h0l-.15.11c-9.57,7.09-19.06,15.1-24.27,25.1-5.5,10.55-7.28,26.43-5.56,34,.61,2.68,1.45,3.49,2.39,3.27a10.08,10.08,0,0,1-.69-2.1c-1.72-7.61.06-23.49,5.55-34A58.3,58.3,0,0,1,50.6,110.54c4-3.65,8.3-7.22,12.61-10.47a18.39,18.39,0,0,1,3.48.43h0a15.1,15.1,0,0,1,3.76,1.31,17.74,17.74,0,0,0-8.16-3.19Z"/>
      <path class="f3f249d2-c7e4-4b56-871f-de467d383c1b" d="M141.62,69.28c-4.78,9.59-.24,22.2,5.79,28,2.11,2-4.94,4.63-12.23,2.33-6.16-1.93-11.94-6.16-18.06-7.32l-7.67-1.91s-9.29-1.16-5.83-13.15"/>
      <path class="b375e7c7-4fcd-452f-b99b-fb4f751a1f8e" d="M110.92,69.13c6.41,4.26,17.35,24.44,24.87,26.67,6.3,1.87,8.87,1.67,6.88,0-4.11-3.44-8.12-17.69-4.6-23.88C131.59,72.68,117.4,68.37,110.92,69.13Z"/>
      <path class="b606310f-68be-4f18-aab7-e4b39b979b8e" d="M128.53,72.31c-2.15-.43-10.11-1.47-12.3-1.31,4.91,4.36,11.17,14.9,17,20.54C135.36,90.23,134,76,128.53,72.31Z"/>
      <path class="feddda61-cc93-458f-87cb-3d60ac28b5d3" d="M148,52.53c2.3-.35,10.19-2.31,14.42-2.77,14.16-1.58,19.18,7,16.07,7.81-12.57,3.13-39.85,13.28-48,13.17-6.81-.1-23.35-2.92-22.6-7.47"/>
      <path class="ae92a1b2-ec09-4a4b-a860-5a716426d568" d="M108.32,62.56c-3.85,1.3-10.29,2.7-8.27,2.71,4,0,8.1,0,12.35-3.14a4.7,4.7,0,0,0,2-2.61C114.54,58.5,112.06,61.31,108.32,62.56Z"/>
      <path class="b0155472-ef0a-49ee-b93e-021696842214" d="M148.9,43.87a10.94,10.94,0,0,0-4.14-.47c-5.8.37-10.82,3.32-16.57,7,4.95-4.73,11.72-8.45,16.2-8.32A7,7,0,0,1,148.9,43.87Z"/>
      <path class="bbe781f3-1933-4842-a022-2ef66d830c05" d="M91.39,30.38c-.27,2-1,.8-1.18-2.13a13.11,13.11,0,0,1,.87-6.19C92.45,19.3,98.94,20,101.8,21c.7.25-2.48.6-3.8.93a10.66,10.66,0,0,0-4.13,2A14.62,14.62,0,0,0,91.39,30.38Z"/>
    </g>
  </g>
</svg>
