<svg id="b24b29f9-29cc-4905-bc76-8cf1a23a3db3" data-name="Layer 1" xmlns="http://www.w3.org/2000/svg" width="181.11" height="189.78" viewBox="0 0 181.11 189.78">
  <defs>
    <style>
      .a6b2f022-a027-4c9e-b2bd-dec4a508d0f5, .a9dd0b9a-dc55-41ec-adb9-eda03b99b7a6, .b75539f5-ea74-4537-bdf5-20f97c2e845b, .baddc851-2313-472d-a1c1-176576eade52, .befdc544-0511-4a61-9820-80eaf74dd4d3, .e4fe2ebe-7cbe-4645-9ff6-71dbeb34c8cd, .ebb79798-17c2-4d46-acc4-784a73cdf8cf, .f0f7e30d-0190-4cd8-913d-b04e07b87dd7, .f4733a6e-0149-49b7-a595-b187a15340a5, .f8c89f61-1d37-4b29-a8c3-b8166f3aa32c, .f9c831e6-234e-4694-970a-09271aebc51c, .fec4cf7d-5080-42ee-b78f-975d8f2da1b3 {
        fill-rule: evenodd;
      }

      .b75539f5-ea74-4537-bdf5-20f97c2e845b {
        opacity: 0.5;
      }

      .a9dd0b9a-dc55-41ec-adb9-eda03b99b7a6, .f8c89f61-1d37-4b29-a8c3-b8166f3aa32c {
        fill: #fefefe;
      }

      .baddc851-2313-472d-a1c1-176576eade52, .f9c831e6-234e-4694-970a-09271aebc51c, .fec4cf7d-5080-42ee-b78f-975d8f2da1b3 {
        fill: #6cc4cc;
      }

      .e4fe2ebe-7cbe-4645-9ff6-71dbeb34c8cd, .f9c831e6-234e-4694-970a-09271aebc51c, .fec4cf7d-5080-42ee-b78f-975d8f2da1b3 {
        stroke: #489599;
      }

      .a6b2f022-a027-4c9e-b2bd-dec4a508d0f5, .e4fe2ebe-7cbe-4645-9ff6-71dbeb34c8cd, .eaa5e7a7-5740-4777-a995-5e40d4da2fa6, .f9c831e6-234e-4694-970a-09271aebc51c, .fec4cf7d-5080-42ee-b78f-975d8f2da1b3 {
        stroke-miterlimit: 10;
      }

      .f4733a6e-0149-49b7-a595-b187a15340a5 {
        fill: #7dd2d9;
      }

      .e4fe2ebe-7cbe-4645-9ff6-71dbeb34c8cd, .ebb79798-17c2-4d46-acc4-784a73cdf8cf {
        fill: #45aab3;
      }

      .a6b2f022-a027-4c9e-b2bd-dec4a508d0f5, .eaa5e7a7-5740-4777-a995-5e40d4da2fa6 {
        fill: #8a8787;
        stroke: #545454;
      }

      .a6b2f022-a027-4c9e-b2bd-dec4a508d0f5 {
        stroke-width: 0.5px;
      }

      .fec4cf7d-5080-42ee-b78f-975d8f2da1b3 {
        stroke-width: 0.75px;
      }

      .f0f7e30d-0190-4cd8-913d-b04e07b87dd7 {
        fill: #94e4eb;
      }

      .befdc544-0511-4a61-9820-80eaf74dd4d3 {
        fill: #b2f1f7;
      }

      .eaa5e7a7-5740-4777-a995-5e40d4da2fa6 {
        stroke-width: 0.25px;
      }

      .a9dd0b9a-dc55-41ec-adb9-eda03b99b7a6 {
        opacity: 0.38;
      }
    </style>
  </defs>
  <g>
    <path class="b75539f5-ea74-4537-bdf5-20f97c2e845b" d="M97.51,186.18c-4,0-7.68-.08-10.62-.14-2,0-3.65-.08-4.94-.08s-2.67,0-4.4,0c-2.47,0-5.42.08-8.67.08-25.31,0-55-2.46-59.68-21.64a27.59,27.59,0,0,1-.59-3.36l0-.31c0-.18,0-.35,0-.53,0-.33-.06-.72-.08-1.11v-.6c0-.39,0-.76,0-1.14,0-.2,0-.41,0-.61s0-.72,0-1.08l0-.61c0-.36.05-.71.09-1.07l.06-.59.12-1L9,151.5c0-.08,0-.16,0-.25a104,104,0,0,1,2.62-11.16c.38-1.35.74-2.67,1.06-3.94,2.08-8.24,6.55-23.58,13.78-37C25.35,92.9,23.13,86,21,79.36,15.65,62.94,10.16,46,18.59,32.07,23.76,23.55,33.31,17.84,47.7,14.7a8,8,0,0,1,3.53-2.35C58.42,10,69.62,8.6,82,8.6S105.5,10,112.69,12.35a7.91,7.91,0,0,1,3.53,2.36c14.39,3.14,23.93,8.84,29.1,17.36,8.43,13.9,2.94,30.87-2.38,47.29a157.79,157.79,0,0,0-5.41,19.38,34.79,34.79,0,0,1,4.24,2.29c1.51-4.79,3.77-10.66,8.91-15.53a35.41,35.41,0,0,1,13.11-8.06,8.21,8.21,0,0,1,2.3-.34,8,8,0,0,1,8,8.25,8,8,0,0,1-1.14,14,11.52,11.52,0,0,0-4.15,3.57c-1.15,1.89-.93,8.38-.75,13.59,0,1,.07,2,.09,3.1.12,4.3,0,25.18-12.67,38.82a27.93,27.93,0,0,1-.75,6.07c-4.36,17.72-29.8,20.17-38.43,21l-.41,0-3.24.26-.39,0-3.23.19h-.14C105.36,186.1,101.64,186.18,97.51,186.18ZM51.78,36c-7.76,1.57-12.64,4-14.51,7.2-3.53,6,.57,19.43,6,34.27.85-1.16,1.68-2.14,2.31-2.89a46.41,46.41,0,0,1,11-9.36,8,8,0,0,1,6.63-4.52C64.76,55.56,68.82,47.39,83,47.39s18.26,8.16,19.76,13.35a8,8,0,0,1,6.62,4.53l.7.44.53.34c.66.43,1.31.88,2,1.35l.63.47c.46.35.9.69,1.32,1l.68.55,1.21,1,.67.62c.41.38.8.76,1.19,1.15l.1.1.45.46c.59.62,1.12,1.21,1.61,1.79l.86,1c5.09-14.09,8.71-26.6,5.33-32.4-1.87-3.21-6.74-5.63-14.5-7.2C104.93,38.31,94,39.61,82,39.61S59,38.31,51.78,36Z"/>
    <path class="f8c89f61-1d37-4b29-a8c3-b8166f3aa32c" d="M92.51,181.18c-4,0-7.68-.08-10.62-.14-2,0-3.65-.08-4.94-.08s-2.67,0-4.4,0c-2.47,0-5.42.08-8.67.08-25.31,0-55-2.46-59.68-21.64a27.59,27.59,0,0,1-.59-3.36l0-.31c0-.18,0-.35,0-.53,0-.33-.06-.72-.08-1.11v-.6c0-.39,0-.76,0-1.14,0-.2,0-.41,0-.61s0-.72,0-1.08l0-.61c0-.36,0-.71.09-1.07l.06-.59.12-1L4,146.5c0-.08,0-.16,0-.25a104,104,0,0,1,2.62-11.16c.38-1.35.74-2.67,1.06-3.94,2.08-8.24,6.55-23.58,13.78-37C20.35,87.9,18.13,81,16,74.36,10.65,57.94,5.16,41,13.59,27.07,18.76,18.55,28.31,12.84,42.7,9.7a8,8,0,0,1,3.53-2.35C53.42,5,64.62,3.6,77,3.6S100.5,5,107.69,7.35a7.91,7.91,0,0,1,3.53,2.36c14.39,3.14,23.93,8.84,29.1,17.36,8.43,13.9,2.94,30.87-2.38,47.29a157.79,157.79,0,0,0-5.41,19.38A34.79,34.79,0,0,1,136.77,96c1.51-4.79,3.77-10.66,8.91-15.53a35.41,35.41,0,0,1,13.11-8.06,8.21,8.21,0,0,1,2.3-.34,8,8,0,0,1,8,8.25,8,8,0,0,1-1.14,14,11.52,11.52,0,0,0-4.15,3.57c-1.15,1.89-.93,8.38-.75,13.59,0,1,.07,2,.09,3.1.12,4.3,0,25.18-12.67,38.82a27.93,27.93,0,0,1-.75,6.07c-4.36,17.72-29.8,20.17-38.43,21l-.41,0-3.24.26-.39,0-3.23.19h-.14C100.36,181.1,96.64,181.18,92.51,181.18ZM46.78,31c-7.76,1.57-12.64,4-14.51,7.2-3.53,6,.57,19.43,6,34.27.85-1.16,1.68-2.14,2.31-2.89a46.41,46.41,0,0,1,11-9.36,8,8,0,0,1,6.63-4.52C59.76,50.56,63.82,42.39,78,42.39s18.26,8.16,19.76,13.35a8,8,0,0,1,6.62,4.53l.7.44.53.34c.66.43,1.31.88,2,1.35l.63.47c.46.35.9.69,1.32,1l.68.55,1.21,1,.67.62c.41.38.8.76,1.19,1.15l.1.1.45.46c.59.62,1.12,1.21,1.61,1.79l.86,1c5.09-14.09,8.71-26.6,5.33-32.4-1.87-3.21-6.74-5.63-14.5-7.2C99.93,33.31,89,34.61,77,34.61S54,33.31,46.78,31Z"/>
    <g>
      <path class="f9c831e6-234e-4694-970a-09271aebc51c" d="M121.2,99.18c6.19,0,11.4,3.47,13.87,5.45s6.7,2.24,8.19-2.47,3-11.15,7.92-15.86a27.62,27.62,0,0,1,9.91-6.2s-.36,3.24.63,4.52a11.69,11.69,0,0,0,2.94,2.4A19.47,19.47,0,0,0,157,93.7c-2.73,4.47-2.09,12.18-1.83,21.1s-2,29.23-16.36,37.91S121.2,99.18,121.2,99.18Z"/>
      <path class="f4733a6e-0149-49b7-a595-b187a15340a5" d="M122.34,113c-.13-1.23-.24-2.42-.36-3.55a24.55,24.55,0,0,1,4.74,1.38c7.25,2.19,16,2.46,18.21-6a35.83,35.83,0,0,1,7.67-14.93c-1.91,3.69-4.71,6.66-6.16,12.46s-4.58,14.9-16.85,12.33c-2.86-.61-5.25-1.16-7.25-1.67Z"/>
      <path class="ebb79798-17c2-4d46-acc4-784a73cdf8cf" d="M121.2,99.18c6.19,0,11.4,3.47,13.87,5.45s6.7,2.24,8.19-2.47,3-11.15,7.92-15.86a27.62,27.62,0,0,1,9.91-6.2,14.62,14.62,0,0,0-.05,2c-16.72,5.58-14,19.3-18.38,24.15s-12.67,4.83-19.85-2.35a10.46,10.46,0,0,0-3.07-1.22c-.26-3.34,1.46-3.49,1.46-3.49Z"/>
      <path class="f4733a6e-0149-49b7-a595-b187a15340a5" d="M129.87,129.51c13.55-6.31,17.81-17.8,18-24.11s5-15.78,10-17.82-4.09,1.77-5.38,8.54c-4.8,25.13,1,29.86-23.93,45.64Z"/>
      <path class="ebb79798-17c2-4d46-acc4-784a73cdf8cf" d="M163.49,86.25C155,89.72,153,95.48,152.22,114.92c-.73,17.27-16.52,26-23.91,29.12,2.56,7.13,6,11.39,10.48,8.67,14.37-8.68,16.6-29,16.36-37.91s-.9-16.63,1.83-21.1A19.47,19.47,0,0,1,164.66,87a13.16,13.16,0,0,1-1.17-.77Zm-37.24,31.48c-.46.29-1.94,9.75,8.81,4.92s12.07-18,9.47-12.24-10.77,8.34-18.28,7.32Z"/>
      <path class="a6b2f022-a027-4c9e-b2bd-dec4a508d0f5" d="M77,20.82c62.77,0,60.26,16.84,44.75,58.32-2.1,5.64-2.65,10.82-1.65,15.66,1.71,8.15,4.08,11.54,4.08,11.54C118.67,70.55,178.34,14.71,77,14.71S35.24,70.55,29.78,106.34c0,0,2.38-3.39,4.08-11.54,1-4.84.46-10-1.65-15.66C16.71,37.66,14.18,20.82,77,20.82Z"/>
      <path class="fec4cf7d-5080-42ee-b78f-975d8f2da1b3" d="M41.22,83.19h71.47c3.34.5,6.91,5.33,8.65,7.91,7.8,11.57,13.74,28.52,17.14,42,1.72,6.81,4.59,14.86,3.89,21.87H11.54c-.7-7,2.16-15.06,3.89-21.87,3.41-13.49,9.34-30.44,17.14-42,3.12-4.62,6.13-7.53,8.65-7.91Z"/>
      <path class="e4fe2ebe-7cbe-4645-9ff6-71dbeb34c8cd" d="M77,11.6c-11.76,0-22.12,1.33-28.21,3.34v8.33c6.09,2,16.45,3.34,28.21,3.34s22.14-1.33,28.23-3.34V14.94c-6.09-2-16.46-3.34-28.23-3.34Z"/>
      <path class="f4733a6e-0149-49b7-a595-b187a15340a5" d="M77,11.6c-11.76,0-22.12,1.33-28.21,3.34V19.8A153.81,153.81,0,0,0,77,22.08a154,154,0,0,0,28.23-2.28V14.94c-6.09-2-16.46-3.34-28.23-3.34Z"/>
      <path class="f4733a6e-0149-49b7-a595-b187a15340a5" d="M48.12,83.19h57.67c2.69.5,5.57,5.33,7,7.91,6.29,11.57,11.09,28.52,13.84,42,2.18,10.76,6.69,24.61-1.49,32.61H28.79c-8.18-8-3.67-21.85-1.48-32.61,2.74-13.49,7.53-30.44,13.83-42,2.52-4.62,5-7.53,7-7.91Z"/>
      <path class="f0f7e30d-0190-4cd8-913d-b04e07b87dd7" d="M94,83.19h4.07c2,.5,4.07,5.33,5.1,7.91,4.61,11.57,8.12,28.52,10.12,42,1.61,10.76,4.91,24.61-1.08,32.61h-6.8c4.83-8,2.18-21.85.88-32.61-1.62-13.49-4.46-30.44-8.17-42-.84-2.58-2.53-7.41-4.12-7.91Z"/>
      <path class="ebb79798-17c2-4d46-acc4-784a73cdf8cf" d="M142.06,147.74a25.22,25.22,0,0,1-.11,9.81C137.34,176.27,89.36,173,77,173,64,173,16.4,175.57,12,157.55a25.21,25.21,0,0,1-.12-9.81C22.92,151.28,41,153,77,153s54-1.67,65.11-5.21Z"/>
      <path class="baddc851-2313-472d-a1c1-176576eade52" d="M110.39,172.47q-3.44.32-6.86.47c3.55-5.74,4.72-10.93,4.65-20.59,2.65-.12,5.12-.27,7.46-.44h0c.13,6.82-1,15.58-5.25,20.56Z"/>
      <path class="f0f7e30d-0190-4cd8-913d-b04e07b87dd7" d="M47,94c-4.46,11.38-7.87,26.7-9.9,39.1-.64,3.93-1.53,8.27-2.09,12.59,4.71.39,10.06.69,16.16.9.33-4.61.92-9.29,1.35-13.49,1.24-12.4,3.33-27.72,6.06-39.1Zm48.29,0c2.73,11.38,4.82,26.7,6.06,39.1.42,4.2,1,8.88,1.35,13.49,6.1-.21,11.45-.51,16.16-.9-.56-4.32-1.44-8.66-2.08-12.59-2-12.4-5.45-27.72-9.91-39.1Z"/>
      <path class="befdc544-0511-4a61-9820-80eaf74dd4d3" d="M104.26,94c4.07,11.38,7.18,26.7,9,39.1.61,4,1.44,8.46,1.94,12.86q-3.45.24-7.34.43c-.41-4.55-1.1-9.16-1.6-13.29-1.49-12.4-4-27.72-7.29-39.1Z"/>
      <path class="ebb79798-17c2-4d46-acc4-784a73cdf8cf" d="M41.22,83.19h71.47a7.78,7.78,0,0,1,3.74,2c-3.14,3.12-10.77,3-39.48,3s-36.32.11-39.47-3a7.73,7.73,0,0,1,3.74-2Z"/>
      <path class="fec4cf7d-5080-42ee-b78f-975d8f2da1b3" d="M44.94,84.78H111.1c1.77-1.29,5.31-1.62-1.76-10S89.13,60.26,78,60.26,53.78,66.39,46.71,74.78s-3.53,8.71-1.77,10Z"/>
      <path class="f4733a6e-0149-49b7-a595-b187a15340a5" d="M89.1,84.78h22c1.77-1.29,5.31-1.62-1.76-10-5.86-7-15.88-12.35-25.46-14,9.56,10.46,9.52,18.7,5.22,24Z"/>
      <path class="eaa5e7a7-5740-4777-a995-5e40d4da2fa6" d="M78,54.15c7.61,0,8.33,4.06,9,6.87.13.57.26,1.14.41,1.67,1.36,4.67,5.53,4.72,9.24,4.78h.5l.06-3.76h-.53c-2.4,0-5.08-.07-5.67-2.06-.13-.44-.23-.93-.34-1.44-.91-4.11-2-9.82-12.62-9.82S66.31,56.1,65.41,60.21c-.11.51-.23,1-.35,1.44-.58,2-3.28,2-5.68,2.06h-.52l.06,3.76h.51c3.71-.06,7.87-.11,9.23-4.78.16-.53.28-1.1.41-1.67.62-2.81,1.35-6.87,9-6.87Z"/>
      <path class="a9dd0b9a-dc55-41ec-adb9-eda03b99b7a6" d="M94.56,65.45c-4.55-1.52-4.32-5-6.19-9.78S77.65,50.85,76.46,51.5s7.44.14,10.25,3.65.84,9.25,7.85,10.3Z"/>
      <path class="a9dd0b9a-dc55-41ec-adb9-eda03b99b7a6" d="M74.87,53.87c-3.66.77-5.17,1.65-6.14,4.37-1.29,3.62-2.41,7-5.25,7.75s2-.16,3.87-6.89c1.77-6.43,8.05-5.34,7.52-5.23Z"/>
      <path class="befdc544-0511-4a61-9820-80eaf74dd4d3" d="M107.89,78.17c1,4.84-8.77,4.84-8.77,4.84s4.58-5.78,1.79-10.36c-3.38-5.55,6,.54,7,5.52Z"/>
      <path class="befdc544-0511-4a61-9820-80eaf74dd4d3" d="M77,14.52c-11.76,0-22.12.58-28.21,1.48v2.15c7.14.63,17.14,1,28.21,1s21.08-.38,28.23-1V16c-6.09-.9-16.46-1.48-28.23-1.48Z"/>
      <path class="a9dd0b9a-dc55-41ec-adb9-eda03b99b7a6" d="M110.2,20.21c17,3.48,22.31,13.37,23.13,19.52s-2.05,21.59-9.67,38.42c4.33-7.23,13.54-29.36,11.11-39.88S121.16,19.1,110.2,20.21Z"/>
      <path class="a9dd0b9a-dc55-41ec-adb9-eda03b99b7a6" d="M43.7,20.21c-17,3.48-22.3,13.37-23.12,19.52s2.06,21.59,9.68,38.42c-4.34-7.23-13.55-29.36-11.12-39.88S32.74,19.1,43.7,20.21Z"/>
    </g>
  </g>
</svg>
