<svg id="a7c6d6ec-3dd8-4024-bd46-8cd41702ad9e" data-name="Layer 1" xmlns="http://www.w3.org/2000/svg" width="217.23" height="237.64" viewBox="0 0 217.23 237.64">
  <defs>
    <style>
      .e5c06e1f-8023-467e-acf6-28f5167dd4e7 {
        opacity: 0.5;
      }

      .bd07a1f7-b776-497b-acfb-3337dc00ee22 {
        fill: #fff;
      }

      .ac2c607c-abd2-442e-80b2-004eb477796f {
        fill: #7a3b1d;
      }

      .b6592a30-6f2a-415a-9e05-b37f3ea48c0c, .e1382b9b-b3c9-4bcb-af35-f6301fa1f454 {
        fill: #f9b698;
      }

      .e1382b9b-b3c9-4bcb-af35-f6301fa1f454 {
        opacity: 0.13;
      }

      .a1876ce4-2204-40aa-8751-283dd5ad1c61 {
        fill: #f2a66d;
      }

      .b3cf00d6-6ae9-46c1-9e1a-20173aab978b {
        fill: #23110a;
      }

      .b6592a30-6f2a-415a-9e05-b37f3ea48c0c {
        opacity: 0.61;
      }

      .f38f7786-f7f5-42e0-8141-63a0fe35665b {
        fill: #ce5627;
      }

      .a515311e-f14c-46ab-ba2c-3cd5268ac1e3 {
        fill: #888984;
      }

      .beaf87ee-f49b-4439-b8eb-75acce3d2d13 {
        fill: #ffc709;
      }
    </style>
  </defs>
  <g>
    <path class="e5c06e1f-8023-467e-acf6-28f5167dd4e7" d="M65.53,234.76a45.76,45.76,0,0,1-8.12-.74c-7.45-1.35-14-5.28-18.75-8.88-7.45-1.12-13-7.77-20.92-18-11.57-15-11.41-24.34-8.3-30,.85-10.27,5.57-19.75,13.73-27.55,8.34-8,14.28-10.7,17.47-12.16l.24-.11c1.07-2.36,3.51-7.47,9.65-7.47a10,10,0,0,1,1.64.14A9.19,9.19,0,0,1,58.3,134a24.64,24.64,0,0,0,12-7.68,19.62,19.62,0,0,0,2.87-4c-4.26-2.93-4.84-6.6-4.51-9.29.73-5.94,5.39-8.3,7.81-9.46.56-.91,1.39-2.46,2-3.67A80.34,80.34,0,0,1,86.59,87c7.61-9.45,20-12.81,28.39-12.81a28.83,28.83,0,0,1,3.12.16,36.76,36.76,0,0,1,14.34,4.78L164,45.49A14.26,14.26,0,0,1,159.65,38a10.69,10.69,0,0,1,2.1-8.7,11.42,11.42,0,0,1,4.95-3.65,10.65,10.65,0,0,1,2-4.2,11.42,11.42,0,0,1,9.07-4.4,13,13,0,0,1,5,1,14.32,14.32,0,0,1,5.43-6.56,8,8,0,0,1,4.45-1.36,8.09,8.09,0,0,1,2.24.32c.24-.08.49-.14.75-.2l.27-.25a8,8,0,0,1,10.69-.24l5.16,4.43a8,8,0,0,1,1.36,10.63l0,.05a8,8,0,0,1,.47,7.66,16.39,16.39,0,0,1-2.36,3.64,13.19,13.19,0,0,1,1.53,4.17,11.46,11.46,0,0,1-2.94,9.93,10.8,10.8,0,0,1-4.17,2.76,11.36,11.36,0,0,1-2.77,5,10.67,10.67,0,0,1-7.87,3.4,13.83,13.83,0,0,1-8-2.85,8,8,0,0,1-2.35,1l-30.4,38.56a36,36,0,0,1,6.14,12.46c2.39,9.23,1,23.52-7.74,33.07a79.66,79.66,0,0,1-11.56,9.93c-1.09.82-2.5,1.87-3.31,2.56-.78,2.57-2.42,7.54-8.18,9.16a9.52,9.52,0,0,1-2.59.36,9.73,9.73,0,0,1-7.29-3.4,19.74,19.74,0,0,0-3.46,3.42,24.62,24.62,0,0,0-5.78,13,9.2,9.2,0,0,1,5,5.44c1.56,4.69-.3,8.82-5.53,12.27,0,.09,0,.18-.08.26-1,3.38-2.76,9.66-9.37,19.1C91.92,228.05,79.52,234.76,65.53,234.76Z"/>
    <path class="bd07a1f7-b776-497b-acfb-3337dc00ee22" d="M60.53,229.76a45.76,45.76,0,0,1-8.12-.74c-7.45-1.35-14-5.28-18.75-8.88-7.45-1.12-13-7.77-20.92-18-11.57-15-11.41-24.34-8.3-30,.85-10.27,5.57-19.75,13.73-27.55,8.34-8,14.28-10.7,17.47-12.16l.24-.11c1.07-2.36,3.51-7.47,9.65-7.47a10,10,0,0,1,1.64.14A9.19,9.19,0,0,1,53.3,129a24.64,24.64,0,0,0,12-7.68,19.62,19.62,0,0,0,2.87-4c-4.26-2.93-4.84-6.6-4.51-9.29.73-5.94,5.39-8.3,7.81-9.46.56-.91,1.39-2.46,2-3.67A80.34,80.34,0,0,1,81.59,82c7.61-9.45,20-12.81,28.39-12.81a28.83,28.83,0,0,1,3.12.16,36.76,36.76,0,0,1,14.34,4.78L159,40.49A14.26,14.26,0,0,1,154.65,33a10.69,10.69,0,0,1,2.1-8.7,11.42,11.42,0,0,1,4.95-3.65,10.65,10.65,0,0,1,2-4.2,11.42,11.42,0,0,1,9.07-4.4,13,13,0,0,1,5,1,14.32,14.32,0,0,1,5.43-6.56,8,8,0,0,1,4.45-1.36,8.09,8.09,0,0,1,2.24.32c.24-.08.49-.14.75-.2l.27-.25a8,8,0,0,1,10.69-.24l5.16,4.43a8,8,0,0,1,1.36,10.63l0,.05a8,8,0,0,1,.47,7.66,16.39,16.39,0,0,1-2.36,3.64,13.19,13.19,0,0,1,1.53,4.17,11.46,11.46,0,0,1-2.94,9.93,10.8,10.8,0,0,1-4.17,2.76,11.36,11.36,0,0,1-2.77,5,10.67,10.67,0,0,1-7.87,3.4,13.83,13.83,0,0,1-8-2.85,8,8,0,0,1-2.35,1l-30.4,38.56a36,36,0,0,1,6.14,12.46c2.39,9.23,1,23.52-7.74,33.07a79.66,79.66,0,0,1-11.56,9.93c-1.09.82-2.5,1.87-3.31,2.56-.78,2.57-2.42,7.54-8.18,9.16a9.52,9.52,0,0,1-2.59.36,9.73,9.73,0,0,1-7.29-3.4,19.74,19.74,0,0,0-3.46,3.42,24.62,24.62,0,0,0-5.78,13,9.2,9.2,0,0,1,5,5.44c1.56,4.69-.3,8.82-5.53,12.27,0,.09,0,.18-.08.26-1,3.38-2.76,9.66-9.37,19.1C86.92,223.05,74.52,229.76,60.53,229.76Z"/>
    <g>
      <path class="ac2c607c-abd2-442e-80b2-004eb477796f" d="M88.88,206.29c9.32-13.31,7.57-18.66,10-20.39s4.46-2.51,3.92-4.13-5.31-.52-5.43-6.2,2.1-13.18,7.68-19.9,9.76-7.57,12.3-6.73,3,4.32,5,3.75,2.28-2.65,3.12-5.19,9.89-7.26,16.18-14.15,7.83-18.23,5.91-25.66c-2.8-10.79-12.74-17.7-14.51-18.86-1.41-1.57-9.74-10.35-20.83-11.48-7.64-.78-18.62,2.44-24.47,9.71S78.67,104,76.28,105.19s-4.41,1.79-4.67,3.87,3.26,2,4.47,4.42,1,6.64-4.78,13.17-12.89,9.87-18.52,10.61-5.28-4.15-7-4.43-2.14,1.81-3.48,4.5-6.9,1.76-18.65,13-13.5,24.9-9.39,36.88c3.78,11,15.18,18.85,17.08,20.1,1.52,1.69,11,11.78,22.45,13.85C66.31,223.41,79.56,219.61,88.88,206.29Z"/>
      <path class="e1382b9b-b3c9-4bcb-af35-f6301fa1f454" d="M101,92.22c-5.12,0-12.89,8.5-12.3,13.69.12,1.11.9,1.88,1.21,2.94a11.72,11.72,0,0,1,.06,4.34,20.73,20.73,0,0,1-2.34,8.63c-3.22,5.69-8.57,10.73-12.86,15.62-4.13,4.7-8.64,9.46-14.41,12.12-2.81,1.3-5.62,2.44-8.39.79s-4.24-2.49-6,1c-.88,1.82-1.87,5.58.44,6.78,2.12,1.11,6.34-.6,8.4-1.36,12.85-4.72,23.32-17,32.68-26.5a66.47,66.47,0,0,0,13.58-20.45C102.38,107,109.18,92.2,101,92.22Z"/>
      <path class="a1876ce4-2204-40aa-8751-283dd5ad1c61" d="M85.2,162.17a1.19,1.19,0,0,1-.8-.31L69.69,148.57a1.18,1.18,0,0,1-.09-1.69,1.2,1.2,0,0,1,1.69-.09L86,160.08a1.2,1.2,0,0,1-.81,2.09Z"/>
      <path class="b3cf00d6-6ae9-46c1-9e1a-20173aab978b" d="M79.77,135.72s-.22-2.43-2.08-2-8.15,6.13-12.52,11.14-10.08,7.94-13.83,4.84,1.18-8.14,2.69-7.3,1.47,3.13.11,3.75-2,1.82-.4,2.28,6.1-1.93,9.5-6,12.77-13,16.69-10,.37,7.11-1.31,6.3A1.6,1.6,0,0,1,79.77,135.72Z"/>
      <path class="b3cf00d6-6ae9-46c1-9e1a-20173aab978b" d="M94.84,148.66s2.43-.15,2.33,1.75-4.83,9-9.12,14.06-6.32,11.16-2.7,14.4,7.88-2.39,6.81-3.76-3.31-1-3.72.46-1.5,2.23-2.19.74,1-6.33,4.48-10.3,11-14.6,7.36-18-7.07.71-6,2.25A1.6,1.6,0,0,0,94.84,148.66Z"/>
      <path class="b3cf00d6-6ae9-46c1-9e1a-20173aab978b" d="M70.49,175.26,58,164.56v0a22.44,22.44,0,0,0-7.64,10.48C48.17,182,41.21,191,41.21,191l5.69,4.88s7.85-8.24,14.37-11.48a22.38,22.38,0,0,0,9.2-9.14Z"/>
      <path class="b6592a30-6f2a-415a-9e05-b37f3ea48c0c" d="M23.68,154.08c-.76.8-1.46,1.65-2.14,2.52s-1.33,1.75-1.94,2.67a29.89,29.89,0,0,0-3.07,5.81,15.12,15.12,0,0,0-1.12,6.4A34.64,34.64,0,0,0,16.46,178a59.57,59.57,0,0,0,11.88,23.26,52.9,52.9,0,0,0,9.54,9,59.08,59.08,0,0,0,11.46,6.43,47.51,47.51,0,0,0,6.2,2.18,33.14,33.14,0,0,0,6.48,1.1,22.45,22.45,0,0,0,6.54-.48,17.82,17.82,0,0,0,3.11-1.06,13.63,13.63,0,0,0,1.46-.78,9,9,0,0,0,1.32-1,9.28,9.28,0,0,1-1.3,1,14.48,14.48,0,0,1-1.44.82,17,17,0,0,1-3.11,1.13,22.53,22.53,0,0,1-6.6.62,32.26,32.26,0,0,1-6.55-1,47.93,47.93,0,0,1-6.29-2.12c-1-.42-2-.88-3-1.35s-2-1-3-1.52-1.93-1.09-2.87-1.68-1.86-1.21-2.75-1.86a53.34,53.34,0,0,1-9.68-9.07,59.36,59.36,0,0,1-7.25-11.1A61.9,61.9,0,0,1,18,184.41,51.75,51.75,0,0,1,16,178.06a34.51,34.51,0,0,1-1-6.57,13.33,13.33,0,0,1,0-1.67,15.41,15.41,0,0,1,.23-1.66,18.26,18.26,0,0,1,1-3.18,30.37,30.37,0,0,1,3.21-5.8A38.8,38.8,0,0,1,23.68,154.08Z"/>
      <path class="e1382b9b-b3c9-4bcb-af35-f6301fa1f454" d="M140.56,102a3.61,3.61,0,0,0-1.57-1c-1.64-.39-3.08,1.47-3,3.16s1,3.18,1.81,4.68a20.14,20.14,0,0,1,.56,16.92c-2,4.7-5.79,8.43-9.77,11.65a78.61,78.61,0,0,1-10.75,7.32A1.28,1.28,0,0,0,119,146a3.35,3.35,0,0,0,1.86-.46,48.26,48.26,0,0,0,7.58-4.93c3.14-2.33,6.28-4.66,9.4-7a26.48,26.48,0,0,0,6.14-5.85C149.22,120,147.12,108.31,140.56,102Z"/>
      <path class="b6592a30-6f2a-415a-9e05-b37f3ea48c0c" d="M118.34,83.24a16.25,16.25,0,0,0-1.58-.75,19.3,19.3,0,0,0-3.34-1,20.65,20.65,0,0,0-7-.26,25.14,25.14,0,0,0-6.75,1.9,24.73,24.73,0,0,0-5.89,3.8A36.89,36.89,0,0,0,89,92a61.33,61.33,0,0,0-4,5.74c-.61,1-1.21,2-1.8,3s-1.17,2-1.81,3c-.16.23-.33.45-.51.68l-.55.66c-.38.43-.77.85-1.19,1.24a15.21,15.21,0,0,1-1.28,1.13q-.34.27-.69.51a6.84,6.84,0,0,1-.71.44l-.33.18.26.27a7.2,7.2,0,0,1,.76,1,11.11,11.11,0,0,1,.63,1.12,11.85,11.85,0,0,1,.84,2.43,12.94,12.94,0,0,1,.09,5.15A18.86,18.86,0,0,1,77,123.42a28.39,28.39,0,0,1-2.77,4.44c-.52.71-1.08,1.38-1.65,2-.28.33-.59.65-.88,1s-.59.65-.9,1c-1.22,1.27-2.52,2.46-3.84,3.61a65.9,65.9,0,0,1-8.5,6.25c1.53-.86,3-1.83,4.46-2.84s2.85-2.08,4.21-3.21a53,53,0,0,0,3.92-3.57c.31-.31.61-.63.92-1s.61-.64.9-1c.58-.66,1.16-1.34,1.69-2a27.8,27.8,0,0,0,2.87-4.49,18.21,18.21,0,0,0,1.74-5,13.39,13.39,0,0,0-.07-5.35,11.72,11.72,0,0,0-.87-2.56,12.31,12.31,0,0,0-.66-1.18,7.83,7.83,0,0,0-.59-.83l.46-.3c.25-.17.49-.34.72-.52.47-.37.91-.76,1.34-1.17a16.44,16.44,0,0,0,1.22-1.28c.19-.22.39-.44.57-.67l.28-.35.26-.36c.67-1,1.24-2,1.83-3s1.17-2,1.78-3a60.2,60.2,0,0,1,3.93-5.71,35.9,35.9,0,0,1,4.74-5,24.46,24.46,0,0,1,5.74-3.8c.52-.24,1.05-.47,1.59-.66l.82-.29.82-.26a24.59,24.59,0,0,1,3.38-.75,21,21,0,0,1,6.9.11,20.42,20.42,0,0,1,3.33,1,14.38,14.38,0,0,1,3.09,1.6A10.78,10.78,0,0,0,118.34,83.24Z"/>
      <rect class="b3cf00d6-6ae9-46c1-9e1a-20173aab978b" x="186.05" y="21.68" width="2.4" height="15.15" transform="translate(43.07 152.26) rotate(-49.35)"/>
      <rect class="b3cf00d6-6ae9-46c1-9e1a-20173aab978b" x="179.16" y="29.69" width="2.4" height="15.15" transform="translate(34.58 149.83) rotate(-49.35)"/>
      <rect class="b3cf00d6-6ae9-46c1-9e1a-20173aab978b" x="180.93" y="23.72" width="2.4" height="15.15" transform="translate(39.73 149.09) rotate(-49.35)"/>
      <rect class="b3cf00d6-6ae9-46c1-9e1a-20173aab978b" x="174.05" y="31.74" width="2.4" height="15.15" transform="translate(31.25 146.66) rotate(-49.35)"/>
      <path class="f38f7786-f7f5-42e0-8141-63a0fe35665b" d="M192.21,35.11s-.8,2,.11,3.11,4.51,3.92,6.69,1.61.18-5.75-1.84-6.75a3.08,3.08,0,0,0-3.39.2Z"/>
      <path class="f38f7786-f7f5-42e0-8141-63a0fe35665b" d="M185.28,42.88s-.81,2,.11,3.12,4.51,3.92,6.68,1.61.18-5.75-1.83-6.76a3.1,3.1,0,0,0-3.4.2Z"/>
      <path class="f38f7786-f7f5-42e0-8141-63a0fe35665b" d="M175.73,27.4s-1.86,1.1-3.1.36-4.56-3.86-2.6-6.36,5.65-1,7,.79a3.08,3.08,0,0,1,.3,3.39Z"/>
      <path class="f38f7786-f7f5-42e0-8141-63a0fe35665b" d="M168.76,35.25s-1.86,1.09-3.1.36-4.56-3.86-2.6-6.36,5.65-1.05,6.95.79a3.07,3.07,0,0,1,.31,3.38Z"/>
      <polygon class="ac2c607c-abd2-442e-80b2-004eb477796f" points="177.66 46.91 169.09 39.55 193.62 14.23 198.65 18.55 177.66 46.91"/>
      <polygon class="b3cf00d6-6ae9-46c1-9e1a-20173aab978b" points="192.94 24.87 190.94 23.16 190.15 22.48 188.29 20.89 88.65 127.3 95.27 132.98 96.06 133.66 102.67 139.34 192.94 24.87"/>
      <polygon class="ac2c607c-abd2-442e-80b2-004eb477796f" points="192.94 24.87 190.94 23.16 190.15 22.48 188.29 20.89 185.07 24.32 190.02 28.57 192.94 24.87"/>
      <polygon class="a515311e-f14c-46ab-ba2c-3cd5268ac1e3" points="170.02 40.4 168.72 41.79 175.25 47.3 176.36 45.89 170.02 40.4"/>
      <path class="ac2c607c-abd2-442e-80b2-004eb477796f" d="M191.89,16.77l-4.18-3.59s-3.86,2.58-2,4.61a22.19,22.19,0,0,0,3.9,3.36Z"/>
      <path class="b3cf00d6-6ae9-46c1-9e1a-20173aab978b" d="M186.2,18.37s2.69-2.1,4.17-3.4,1.95-1.8,1.95-1.8l.92.68-5.84,5.69Z"/>
      <path class="ac2c607c-abd2-442e-80b2-004eb477796f" d="M197.18,20.59l4.18,3.59s-2,4.2-4.26,2.69a22.21,22.21,0,0,1-3.9-3.36Z"/>
      <path class="b3cf00d6-6ae9-46c1-9e1a-20173aab978b" d="M195.51,25.72s1.8-2.91,2.94-4.51S200,19.08,200,19.08l-.77-.85-5,6.42Z"/>
      <polygon class="bd07a1f7-b776-497b-acfb-3337dc00ee22" points="54.23 170.34 54.07 170.21 73.14 146.25 174.53 37.24 174.66 37.39 73.29 146.38 54.23 170.34"/>
      <polygon class="bd07a1f7-b776-497b-acfb-3337dc00ee22" points="64.61 179.26 64.46 179.13 85.27 156.66 181.83 36.85 181.96 37.01 85.42 156.79 64.61 179.26"/>
      <polygon class="bd07a1f7-b776-497b-acfb-3337dc00ee22" points="61.07 176.22 60.93 176.09 81.73 153.62 187.11 27.6 187.28 27.7 81.88 153.75 61.07 176.22"/>
      <polygon class="bd07a1f7-b776-497b-acfb-3337dc00ee22" points="58.03 173.6 57.87 173.48 76.94 149.51 182.67 30.25 182.81 30.41 77.09 149.64 58.03 173.6"/>
      <polygon class="f38f7786-f7f5-42e0-8141-63a0fe35665b" points="192.53 28.36 184.84 21.77 196.44 10.88 201.59 15.31 192.53 28.36"/>
      <polygon class="ac2c607c-abd2-442e-80b2-004eb477796f" points="189.56 25.82 187.79 24.3 198.46 12.62 199.4 13.43 189.56 25.82"/>
      <path class="beaf87ee-f49b-4439-b8eb-75acce3d2d13" d="M55.48,171.42a1.75,1.75,0,1,1-.19-2.47A1.75,1.75,0,0,1,55.48,171.42Z"/>
      <path class="beaf87ee-f49b-4439-b8eb-75acce3d2d13" d="M59,174.47a1.75,1.75,0,1,1-.19-2.46A1.75,1.75,0,0,1,59,174.47Z"/>
      <path class="beaf87ee-f49b-4439-b8eb-75acce3d2d13" d="M62.6,177.53a1.75,1.75,0,1,1-.19-2.47A1.76,1.76,0,0,1,62.6,177.53Z"/>
      <path class="beaf87ee-f49b-4439-b8eb-75acce3d2d13" d="M66.16,180.59a1.75,1.75,0,1,1-2.65-2.28,1.75,1.75,0,1,1,2.65,2.28Z"/>
    </g>
  </g>
</svg>
