<svg id="b17358dc-7d9c-40aa-ba9d-d2e660096d03" data-name="Layer 1" xmlns="http://www.w3.org/2000/svg" xmlns:xlink="http://www.w3.org/1999/xlink" width="184.04" height="241.07" viewBox="0 0 184.04 241.07">
  <defs>
    <style>
      .a0a4e277-abc7-4786-96ba-4e5bdcca075f {
        mask: url(#b02d7eba-be3e-42d4-a3c5-72c74d862b96);
      }

      .a9b9eec1-4fe9-4e12-9f37-5029d60e50c7 {
        opacity: 0.8;
        mix-blend-mode: multiply;
        fill: url(#b2e79a06-8fda-45bf-818a-481e63bf6edf);
      }

      .a6efb4af-2b91-4712-be3a-5620f7d03daa, .ee0ed5b1-bc7a-40f9-becd-b5988b2a7858 {
        opacity: 0.5;
      }

      .bb44cb40-89ec-43e3-99a2-c475023e817b, .ee0ed5b1-bc7a-40f9-becd-b5988b2a7858, .f90305ff-c973-4c11-9a61-0601857d887b {
        fill: #fff;
      }

      .a277c118-073c-4955-ae4d-259166125a66 {
        fill: #e05a00;
      }

      .b9575830-cf70-4399-8f05-63a1d966dc52 {
        fill: #a54300;
      }

      .e8f306b7-06e6-48e3-a730-925787b56fbe {
        fill: #ff6700;
      }

      .ed1271f1-b396-4f4a-8f77-eea88ba5607d {
        mask: url(#a8cc9929-f8e4-4ca3-bd0a-fc94a813400b);
      }

      .f90305ff-c973-4c11-9a61-0601857d887b {
        opacity: 0.3;
      }

      .fc24c546-0cb1-4f44-af49-9efcdf53206c {
        filter: url(#b743ce4c-a7d6-4edc-9ac0-64921808424e);
      }
    </style>
    <filter id="b743ce4c-a7d6-4edc-9ac0-64921808424e" x="24.74" y="-9240" width="111.39" height="32766" filterUnits="userSpaceOnUse" color-interpolation-filters="sRGB">
      <feFlood flood-color="#fff" result="bg"/>
      <feBlend in="SourceGraphic" in2="bg"/>
    </filter>
    <mask id="b02d7eba-be3e-42d4-a3c5-72c74d862b96" x="24.74" y="-9240" width="111.39" height="32766" maskUnits="userSpaceOnUse">
      <g class="fc24c546-0cb1-4f44-af49-9efcdf53206c"/>
    </mask>
    <linearGradient id="b2e79a06-8fda-45bf-818a-481e63bf6edf" x1="899.35" y1="287.66" x2="944.16" y2="365.96" gradientTransform="translate(-755.85 -443.9) rotate(11.71)" gradientUnits="userSpaceOnUse">
      <stop offset="0" stop-color="#fff"/>
      <stop offset="1"/>
    </linearGradient>
    <mask id="a8cc9929-f8e4-4ca3-bd0a-fc94a813400b" x="24.74" y="17.44" width="111.39" height="91.87" maskUnits="userSpaceOnUse">
      <g class="a0a4e277-abc7-4786-96ba-4e5bdcca075f">
        <path class="a9b9eec1-4fe9-4e12-9f37-5029d60e50c7" d="M134.56,46.8c7.24,23.65-11.12,50.25-41,59.41s-60-2.6-67.24-26.26,11.12-50.25,41-59.4S127.31,23.15,134.56,46.8Z"/>
      </g>
    </mask>
  </defs>
  <g>
    <path class="a6efb4af-2b91-4712-be3a-5620f7d03daa" d="M99.4,237.47a9.51,9.51,0,0,1-2.58-.36,9.7,9.7,0,0,1-2.3-1,15.83,15.83,0,0,1-2,.13,10.12,10.12,0,0,1-9.3-5.27,9.5,9.5,0,0,1-.41-8C44.61,211.09,13,153.91,13,108.6c0-52.22,37.74-94.7,84.13-94.7s84.12,42.48,84.12,94.7c0,24.77-7.71,52.48-20.61,74.12-12.28,20.58-28.26,34.38-45.88,39.9a11.62,11.62,0,0,1-.73,8.16,9.9,9.9,0,0,1-6.32,5.21,9.59,9.59,0,0,1-2.5.33h0a10.3,10.3,0,0,1-1.27-.08A8.89,8.89,0,0,1,99.4,237.47Z"/>
    <path class="bb44cb40-89ec-43e3-99a2-c475023e817b" d="M89.1,227.18a9.43,9.43,0,0,1-2.57-.36,10.14,10.14,0,0,1-2.3-1,14.24,14.24,0,0,1-2,.14A10.12,10.12,0,0,1,73,220.71a9.47,9.47,0,0,1-.42-8C34.31,200.8,2.75,143.61,2.75,98.3c0-52.22,37.74-94.7,84.12-94.7S171,46.08,171,98.3c0,24.78-7.7,52.49-20.61,74.12C138.1,193,122.12,206.81,104.5,212.33a11.54,11.54,0,0,1-.72,8.15,9.94,9.94,0,0,1-6.32,5.22A9.66,9.66,0,0,1,95,226h0a8.77,8.77,0,0,1-1.28-.09A8.91,8.91,0,0,1,89.1,227.18Z"/>
    <g>
      <g>
        <path class="a277c118-073c-4955-ae4d-259166125a66" d="M86.75,211.27c0-3.14-3.13-6.81,2-6.81s2,3.67,2,6.81-.9,5.69-2,5.69S86.75,214.42,86.75,211.27Z"/>
        <path class="a277c118-073c-4955-ae4d-259166125a66" d="M96.5,214.35a8.62,8.62,0,0,0-2.57-3.18,7.56,7.56,0,0,0-1.76-1.44,8.51,8.51,0,0,0-2.21-.14c-.78,0-1.56,0-2.34.07a3.66,3.66,0,0,0-1.52.12,1.81,1.81,0,0,0-.3.25,10.16,10.16,0,0,0-2.6,1.9c-1,.91-3.68,3.49-2.9,5,.53,1,2.47.88,3.37.63s2.09-1,3-.59,1,1.61,2,1.91,1.15-.43,1.52-1.14,1-1.51,2-1.2,1.91,1.5,3.1,1.19S96.94,215.41,96.5,214.35Z"/>
        <path class="b9575830-cf70-4399-8f05-63a1d966dc52" d="M89.62,210.35c-.8-.18-1.7,0-2.23-.16s-2.17.27-1.78-1.35c.2-.81,1.08-.68,1.53-.71a14,14,0,0,0,1.53-.26,2.86,2.86,0,0,1,1.77.32c.25.15,1.29,0,1.41.18C92.94,209.84,90.28,210.5,89.62,210.35Z"/>
        <path class="b9575830-cf70-4399-8f05-63a1d966dc52" d="M96.31,215.37c-.18-1.25-2-1.86-3.1-1.7a23.83,23.83,0,0,1-4.17.74c-1.57-.06-3.23-.54-4.83-.51s-4.63,1.23-3.41,2.91l-.16-.25c1.14,1.64,3.06.49,4.5.09.6-.17,1.66-.39,2.16.13s1.28,2.17,2,1.28c1.15-1.32,2.21-2.53,4-1.46,1.27.75,3.22.9,2.92-1.23C96.17,214.43,96.37,215.85,96.31,215.37Z"/>
      </g>
      <path class="e8f306b7-06e6-48e3-a730-925787b56fbe" d="M162.76,98.3c0,47.76-30.24,108.51-75.89,108.51C49.08,206.81,11,146.06,11,98.3S45,11.84,86.87,11.84,162.76,50.55,162.76,98.3Z"/>
      <g class="ed1271f1-b396-4f4a-8f77-eea88ba5607d">
        <path class="f90305ff-c973-4c11-9a61-0601857d887b" d="M134.56,46.8c7.24,23.65-11.12,50.25-41,59.41s-60-2.6-67.24-26.26,11.12-50.25,41-59.4S127.31,23.15,134.56,46.8Z"/>
      </g>
      <path class="ee0ed5b1-bc7a-40f9-becd-b5988b2a7858" d="M29.68,87.39A35.39,35.39,0,0,1,26.45,80a36.91,36.91,0,0,1-.74-18.51,79.1,79.1,0,0,1,19.36-19.9q2.81,6.16,6,12.35C40.47,63.05,32.57,74.83,29.68,87.39Zm36-60.09a147.7,147.7,0,0,0-13.11,8.36q1.81,6.71,4.14,13.46A141.44,141.44,0,0,1,69,40.06C67.75,35.79,66.65,31.53,65.69,27.3ZM58.07,52.91q2,5.51,4.35,11a131.48,131.48,0,0,1,11.31-9.76q-2-5.26-3.61-10.51A137.41,137.41,0,0,0,58.07,52.91ZM53,57.39c-10.5,9.47-18,21.6-20.28,34.42a41.16,41.16,0,0,0,9.71,8.86c1.21-12.13,7.28-23.76,16.3-33.19Q55.68,62.44,53,57.39Z"/>
    </g>
  </g>
</svg>
