<svg id="acf2fb8d-c936-4098-9cb2-4a60313b47e0" data-name="Layer 1" xmlns="http://www.w3.org/2000/svg" width="165.95" height="220.34" viewBox="0 0 165.95 220.34">
  <defs>
    <style>
      .be1c0c0f-5092-439e-9507-0b4e242241fb {
        opacity: 0.5;
      }

      .aebbaded-16eb-4e25-a859-a8fe33967a11, .afefa8b1-d46f-4867-8718-c0dc9f9343df, .e410e227-d0b8-4194-a621-3ebdd9626732, .e465a956-5120-46b4-ba6e-935a0dc8b331 {
        fill: #fff;
      }

      .b2edba5a-2212-4f65-bdb5-e8a0657c6809 {
        fill: #c6c6e5;
        stroke: #524187;
        stroke-miterlimit: 10;
        stroke-width: 0.5px;
      }

      .b6fa263a-64d1-4ee2-b31e-20757f9d53d0 {
        fill: #7b26d3;
      }

      .a2f3fb58-eb84-4e03-8645-2db39f3235b6 {
        fill: #b0a8ed;
      }

      .bf68e717-9750-4c6b-926f-9bde4a09a20d {
        fill: #8c84c0;
      }

      .abaee9b1-0a3f-428b-8b66-22d9109d45b1 {
        fill: #a496d7;
      }

      .a30a0d07-63f7-413f-943a-c696897f4825 {
        fill: #cfbafe;
      }

      .b9a44b56-daaf-4de0-910e-44fb2d092365 {
        fill: #4d4d82;
      }

      .e410e227-d0b8-4194-a621-3ebdd9626732 {
        opacity: 0.76;
      }

      .e465a956-5120-46b4-ba6e-935a0dc8b331 {
        opacity: 0.23;
      }

      .afefa8b1-d46f-4867-8718-c0dc9f9343df {
        opacity: 0.19;
      }
    </style>
  </defs>
  <g>
    <path class="be1c0c0f-5092-439e-9507-0b4e242241fb" d="M63.29,217.46c-10.64,0-24.7-12.59-33.92-25.06A103.37,103.37,0,0,1,8.86,130.79c0-1.47.05-2.94.14-4.36,0-.24,0-.49,0-.73.09-1.17.22-2.29.37-3.41,0-.11,0-.22.05-.33a59.08,59.08,0,0,1,1.25-6.49l.06-.26c0-.16.1-.37.15-.55a52.58,52.58,0,0,1,3.45-9.32c.07-.17.15-.34.23-.51.54-1.07,1.15-2.18,1.88-3.39.12-.2.48-.76.48-.76.48-.77,1-1.52,1.49-2.26l.6-.85c.54-.73,1.09-1.43,1.64-2.12l.53-.66c.67-.8,1.38-1.6,2.11-2.37.27-.3.56-.6.86-.89l.38-.39.92-.91c.48-.46,1-.93,1.48-1.38l.48-.43A87.9,87.9,0,0,1,38.71,80c.15-.11.29-.2.45-.3l.72-.44c2-1.24,4-2.45,5.95-3.62C54.08,70.73,59.49,67.25,59.49,64c0-.76,0-1.51,0-2.26,0,0,0-1.71,0-2.18l0-.85-.09-2.13-.07-1.12c0-.62-.09-1.21-.13-1.78L59,53l-.18-1.73c0-.38-.19-1.61-.19-1.61l-.16-1.19c-.2-1.29-.42-2.52-.67-3.66,0,0-.2-.89-.28-1.19l0-.17c-.1-.38-.17-.67-.25-.94,0,0-.07-.25-.09-.29L57,41.64c-.15-.51-.33-1-.51-1.44l-.18-.5-.13-.29c-.06-.14-.31-.66-.31-.66l-.19-.36-.22-.33a22.79,22.79,0,0,1-3-.44c-.59-.09-1.15-.19-1.68-.31-.31-.07-.63-.16-1-.25-.63-.18-1.2-.35-1.72-.55-.35-.13-.68-.27-1-.42a17.44,17.44,0,0,1-1.56-.78q-.54-.3-1-.6A14.46,14.46,0,0,1,43,33.62c-.34-.29-.67-.58-1-.88a12.85,12.85,0,0,1-1.3-1.49A9.77,9.77,0,0,1,40,30.1a11.52,11.52,0,0,1-.91-1.76,12.39,12.39,0,0,1-.65-1.82,10.59,10.59,0,0,1-.31-1.7A11.28,11.28,0,0,1,38,22.43a9.43,9.43,0,0,1,.21-1.52C39.27,15.2,44.46,9.58,54.11,9.58h64.43c8.55,0,12.53,4.26,14.14,6.81a12.8,12.8,0,0,1,1.26,11.1,10.69,10.69,0,0,1-.53,1.32c-.14.3-.31.6-.48.9s-.43.69-.61,1a13.09,13.09,0,0,1-.87,1.13A12,12,0,0,1,130.34,33c-.28.27-.57.52-.88.78s-.81.62-1.24.91-.66.42-1,.61-.77.42-1.21.64-.69.3-1,.43c-.49.2-.88.34-1.3.48l-.59.18a23.43,23.43,0,0,1-5.93,1.11l-.19.29-.18.32c-.15.29-.3.62-.46,1-.06.19-.13.38-.21.58-.18.45-.35.92-.5,1.43l-.15.42c-1.09,3.67-2.32,10.36-2.32,21.89,0,3.22,5.41,6.7,13.66,11.63,1.86,1.11,3.77,2.25,5.68,3.45l1,.63.48.31a89.16,89.16,0,0,1,11.08,8.26l.72.65,1.29,1.2c.43.42.88.87,1.33,1.33l.19.19.67.69c.76.81,1.49,1.63,2.17,2.45l.45.56c.6.74,1.14,1.44,1.66,2.15.21.28.41.57.61.86l.07.11c.47.67.92,1.34,1.35,2l.11.16.54.87c.5.84,1,1.74,1.47,2.64l.29.54c.07.15.15.3.21.45a49.43,49.43,0,0,1,2.45,5.94s.16.44.2.59c.29.86.56,1.79.86,2.9.05.17.1.34.14.52a3.38,3.38,0,0,1,.08.34,54.88,54.88,0,0,1,1.21,6.23c0,.22.08.44.11.67l.05.43c.13,1,.25,2,.32,3.06,0,.2,0,.4,0,.61.09,1.4.13,2.85.13,4.3,0,33.73-17.05,61.12-33.1,75.61l-.21.2-.87.75-1.1,1-.68.55c-.45.37-.91.73-1.35,1.08l-.13.1c-6.41,4.92-12.13,7.43-17,7.43Z"/>
    <path class="aebbaded-16eb-4e25-a859-a8fe33967a11" d="M56.59,210.76c-10.63,0-24.69-12.59-33.91-25.06A103.27,103.27,0,0,1,2.17,124.1c0-1.48,0-2.94.13-4.37,0-.24,0-.48,0-.72.1-1.18.23-2.3.38-3.42,0-.11,0-.22,0-.33A56.81,56.81,0,0,1,4,108.77l.06-.26c0-.15.1-.36.16-.55a52.08,52.08,0,0,1,3.44-9.32q.11-.26.24-.51c.53-1.06,1.15-2.17,1.88-3.38l.47-.77q.72-1.16,1.5-2.25c.24-.35.42-.6.6-.85.54-.74,1.08-1.44,1.64-2.12.21-.28.37-.47.52-.66.68-.81,1.39-1.61,2.11-2.38.27-.29.57-.59.86-.89l.39-.39.92-.91c.47-.46,1-.92,1.47-1.38l.48-.43A89.33,89.33,0,0,1,32,73.32l.45-.29.72-.45c2-1.23,4-2.44,6-3.62,8.24-4.93,13.65-8.4,13.65-11.62,0-.77,0-1.52,0-2.26,0,0,0-1.71-.05-2.19l0-.84-.1-2.13-.07-1.12c0-.63-.08-1.21-.13-1.79l-.06-.75c0-.38-.17-1.73-.17-1.73,0-.39-.2-1.62-.2-1.62,0-.36-.16-1.17-.16-1.19-.19-1.29-.41-2.52-.66-3.66l-.28-1.19,0-.17c-.1-.38-.17-.66-.25-.93,0,0-.07-.25-.08-.3a4.72,4.72,0,0,1-.18-.53c-.16-.51-.34-1-.51-1.43-.07-.17-.13-.34-.19-.51l-.12-.29-.32-.66L49,31.7l-.22-.33a24.84,24.84,0,0,1-3-.45c-.58-.09-1.15-.19-1.67-.31-.32-.07-.64-.15-1-.25-.63-.17-1.2-.35-1.73-.55-.35-.13-.68-.27-1-.41q-.84-.37-1.56-.78c-.36-.21-.68-.4-1-.6a17.72,17.72,0,0,1-1.48-1.1c-.34-.28-.67-.58-1-.87a14.76,14.76,0,0,1-1.3-1.49,12.43,12.43,0,0,1-.81-1.15,13.46,13.46,0,0,1-.9-1.76,10.43,10.43,0,0,1-.65-1.82,12.35,12.35,0,0,1-.32-1.7,11.46,11.46,0,0,1-.1-2.39,11,11,0,0,1,.2-1.53c1.09-5.7,6.27-11.33,15.92-11.33h64.44c8.54,0,12.52,4.27,14.13,6.81a12.74,12.74,0,0,1,1.26,11.1,10,10,0,0,1-.53,1.33,9.69,9.69,0,0,1-.48.89c-.22.38-.42.69-.61,1s-.54.76-.86,1.14-.7.77-1.11,1.17-.57.52-.89.77a12.34,12.34,0,0,1-1.24.91c-.32.22-.65.42-1,.62s-.76.42-1.21.63l-1,.44c-.49.19-.88.34-1.31.48l-.59.17a22.59,22.59,0,0,1-5.93,1.11l-.18.29a3.54,3.54,0,0,0-.19.33c-.15.29-.3.61-.45,1l-.21.58c-.18.45-.35.92-.51,1.43,0,.14-.09.29-.14.43-1.09,3.66-2.32,10.36-2.32,21.89,0,3.22,5.41,6.69,13.66,11.62,1.86,1.11,3.76,2.26,5.68,3.45l1,.63.47.32a88.42,88.42,0,0,1,11.08,8.26l.73.64,1.28,1.2c.44.42.89.88,1.33,1.33l.19.19c.23.23.45.46.67.7.77.81,1.49,1.63,2.17,2.44l.45.56c.6.74,1.14,1.44,1.66,2.16.21.28.41.56.61.85l.08.11c.47.67.91,1.35,1.35,2l.1.16c.18.29.37.58.54.87.5.84,1,1.74,1.48,2.65l.28.53c.08.15.15.3.22.45a53.72,53.72,0,0,1,2.45,5.94s.15.44.2.59c.28.86.55,1.79.85,2.9.06.18.1.35.15.52s.05.23.08.34a57.35,57.35,0,0,1,1.21,6.24c0,.22.07.44.1.66l.05.44c.13,1,.25,2,.32,3.06,0,.2,0,.4,0,.6.08,1.41.13,2.85.13,4.31,0,33.73-17.05,61.11-33.1,75.6l-.22.2-.87.76-1.1.94-.68.55c-.45.37-.9.74-1.35,1.08l-.13.11c-6.4,4.92-12.13,7.42-17,7.42Z"/>
    <g>
      <path class="b2edba5a-2212-4f65-bdb5-e8a0657c6809" d="M79.63,200.05h23c9.21,0,43.73-29.93,43.73-76S95.74,80.36,95.74,57.34s4.6-36.82,13.8-36.82,10.46-6.93,2.31-6.93H47.41c-8.14,0-6.91,6.93,2.3,6.93S63.5,34.31,63.5,57.34,12.88,78.06,12.88,124.1s34.53,76,43.71,76Z"/>
      <path class="b6fa263a-64d1-4ee2-b31e-20757f9d53d0" d="M80.31,196.18c11.14,0,13,2.41,21.92,2.41s42.39-29.64,42.39-75.24S94.75,81.57,94.75,58.76s5.26-38,14.16-38,10.14-6.85,2.24-6.85H48.68c-7.88,0-6.68,6.85,2.24,6.85S65,34.19,65,57s-49,22.85-49,68.46,32.74,73.15,41.67,73.15S69.15,196.18,80.31,196.18Z"/>
      <path class="a2f3fb58-eb84-4e03-8645-2db39f3235b6" d="M80.31,196.18c11.14,0,13,2.41,21.92,2.41s42.39-29.64,42.39-75.24S94.75,81.57,94.75,58.76s5.26-38,14.16-38,10.14-6.85,2.24-6.85H48.68c-7.88,0-6.68,6.85,2.24,6.85S65,34.19,65,57s-49,22.85-49,68.46,32.74,73.15,41.67,73.15S69.15,196.18,80.31,196.18Z"/>
      <path class="bf68e717-9750-4c6b-926f-9bde4a09a20d" d="M102.23,198.59H57.61c8.93,0,11.54-2.41,22.7-2.41S93.31,198.59,102.23,198.59Z"/>
      <path class="abaee9b1-0a3f-428b-8b66-22d9109d45b1" d="M52.25,130.31C30.38,110.39,74.6,96.12,74.49,65.52,74.39,33.47,65,57,65,57c0,22.82-49,22.85-49,68.46s32.74,73.15,41.67,73.15C57.61,198.59,136.09,206.68,52.25,130.31Z"/>
      <path class="abaee9b1-0a3f-428b-8b66-22d9109d45b1" d="M99.89,27.1c2.15-4.28,5-6.58,8.67-6.58L82.8,17.82l-32.11,2.7c3.34,0,6.05,1.94,8.13,5.57C62.32,32.15,64,42.94,64,57.34,64,57.34,68.09,31.58,99.89,27.1Z"/>
      <path class="a30a0d07-63f7-413f-943a-c696897f4825" d="M83.28,17.47,109,20.52c9.07,0,10.28-6.56,2.26-6.56H48c-8,0-6.8,6.56,2.25,6.56Z"/>
      <path class="bf68e717-9750-4c6b-926f-9bde4a09a20d" d="M80.27,19.46c15.92-.14,29.05,1.06,29.05,1.06,4.18,0,6.71-1.46,7.44-3-1.76-.29-1.46-1.24-3.08-1.49-12.79-1.92-28.08-.94-68.6-.8-1.64.07-1.06,1.12-2.82,1.19-.11,1.93,2.53,4.12,7.67,4.12C49.93,20.52,64.36,19.59,80.27,19.46Z"/>
      <g>
        <path class="b9a44b56-daaf-4de0-910e-44fb2d092365" d="M101.34,25.8H57.93a14.67,14.67,0,0,0-1.66-2.18H103A15.31,15.31,0,0,0,101.34,25.8Z"/>
        <path class="b9a44b56-daaf-4de0-910e-44fb2d092365" d="M38.14,82.11c1.18-.74,2.34-1.46,3.5-2.15h76c1.16.69,2.33,1.41,3.5,2.15Z"/>
        <path class="b9a44b56-daaf-4de0-910e-44fb2d092365" d="M144.13,143.87c-.17.73-.33,1.47-.5,2.19h-128c-.19-.72-.34-1.46-.51-2.19Z"/>
        <path class="b9a44b56-daaf-4de0-910e-44fb2d092365" d="M99.47,29.64c-.28.69-.53,1.4-.77,2.17H60.56c-.24-.77-.51-1.48-.77-2.17Z"/>
        <path class="e410e227-d0b8-4194-a621-3ebdd9626732" d="M18.16,102.94A45,45,0,0,1,29.93,88.43h99.39a44.78,44.78,0,0,1,11.77,14.51Z"/>
        <path class="e410e227-d0b8-4194-a621-3ebdd9626732" d="M145.79,125.25a92.72,92.72,0,0,1-1.33,14.52H14.8a91.55,91.55,0,0,1-1.32-14.52Z"/>
        <path class="b9a44b56-daaf-4de0-910e-44fb2d092365" d="M14.47,111.11c.25-1,.54-2,.86-2.91h128.6c.32.93.6,1.91.86,2.91Z"/>
        <path class="b9a44b56-daaf-4de0-910e-44fb2d092365" d="M145.93,117c.12,1,.25,1.91.31,2.91H13c.08-1,.19-2,.32-2.91Z"/>
        <path class="b9a44b56-daaf-4de0-910e-44fb2d092365" d="M46.14,194.83c-1.13-.86-2.3-1.82-3.48-2.89H116.6q-1.78,1.6-3.47,2.89Z"/>
      </g>
      <path class="e465a956-5120-46b4-ba6e-935a0dc8b331" d="M114.65,87.86c8.4,4.68,23.43,26.91,26.52,34.89,6.38,16.45-3.69,42.62-19.13,42.62S92.51,156,92.51,141.89s21.15-11.75,18.12-24.17-12.76-22.49-8.72-29.86S114.65,87.86,114.65,87.86Z"/>
      <path class="afefa8b1-d46f-4867-8718-c0dc9f9343df" d="M43.11,87.22C43,82.11,7.05,115,22.7,143.29c12.09,21.91,3.16-14.08,5.06-22.59C30.79,107.28,43.19,91.63,43.11,87.22Z"/>
    </g>
  </g>
</svg>
