<svg id="ba683a18-1983-45e3-b104-bb34b002ffe8" data-name="Layer 1" xmlns="http://www.w3.org/2000/svg" width="186.12" height="323.03" viewBox="0 0 186.12 323.03">
  <defs>
    <style>
      .a71af75b-b56f-4524-83b1-b17ee267f25c {
        opacity: 0.5;
      }

      .ac91510c-b3c2-47b1-bff0-fa780c1f9be9, .b518e820-7e5b-42c4-bc6f-efedaca33094, .bf3be678-f1e5-408a-a304-901d89cb4970, .bf6b7392-ebd2-43c5-8325-00a82e55f28d, .f7f77bd6-0ec1-4947-8978-12f2c42a4f9c {
        fill: #fff;
      }

      .a0d4b58d-db14-4404-9b0e-892d428087b2 {
        opacity: 0.11;
      }

      .a5ea720d-44f6-4151-a45a-61380c1a9ff4 {
        fill: #ffc19f;
      }

      .ff13d59b-b1f8-424c-9706-a5131466eed9 {
        fill: #8892a0;
      }

      .a047a9b0-2bcc-49e0-913a-f247421d8604 {
        fill: #3d300b;
      }

      .bf156f4a-a30f-48bd-8d9b-359e36528ab8 {
        fill: #1c3651;
      }

      .ed7d6f4b-7e33-43b0-ac63-b2b90accdda6 {
        fill: #e0e0e0;
      }

      .a4cf3508-1393-4cff-b8bd-ed61a5ee857d {
        fill: #222e42;
      }

      .e0567f64-f6af-42a6-8e21-e77e1bdcd334 {
        fill: #18b29c;
      }

      .bf4f25e0-d4f2-4984-a67d-1d49dc7d64fb {
        fill: #822020;
        opacity: 0.23;
      }

      .b662c07f-7d48-43e3-842c-cccfbc25a58b {
        fill: #84220f;
      }

      .ba1f7859-6eed-489b-b915-f5be13864a9d {
        fill: #e0956c;
      }

      .fac2e1dd-4247-4612-b8d9-2a0c2b73d930 {
        fill: #701608;
      }

      .eadf6f45-7d1d-4e6a-be93-3ffe48f810f2 {
        fill: #dd6b5b;
      }

      .a6b4f3d2-0b79-4dca-8e85-93a3077fdf4d {
        fill: #c4735b;
      }

      .e88981db-dd94-4b24-b588-fa10f3a9bc15, .ff65f645-468c-41ed-af9e-c668516f865b {
        fill: #4c0b00;
      }

      .b448299b-ac79-4eae-b149-d62b252a3385 {
        fill: #fbfdff;
      }

      .a8b6cc49-79aa-4cc8-84a3-27f9b1c6f09d, .ac91510c-b3c2-47b1-bff0-fa780c1f9be9, .b448299b-ac79-4eae-b149-d62b252a3385, .b6937b2f-625e-40fc-b1ca-7f4b331ba17f, .bdfb2d0d-2927-4f8e-aa16-70a66087db06, .bf6b7392-ebd2-43c5-8325-00a82e55f28d, .e88981db-dd94-4b24-b588-fa10f3a9bc15 {
        fill-rule: evenodd;
      }

      .b6937b2f-625e-40fc-b1ca-7f4b331ba17f {
        fill: #6c1e19;
      }

      .a8b6cc49-79aa-4cc8-84a3-27f9b1c6f09d {
        fill: #3f0f0d;
      }

      .b5571259-36de-455a-a186-fe19d7f80d21 {
        fill: #991d05;
        opacity: 0.14;
      }

      .aea74fd9-ff1e-467a-86b1-dfc5e0139ffb {
        fill: #2fc1a8;
      }

      .bdfb2d0d-2927-4f8e-aa16-70a66087db06 {
        fill: #0f8470;
      }

      .bf3be678-f1e5-408a-a304-901d89cb4970, .bf6b7392-ebd2-43c5-8325-00a82e55f28d {
        stroke: #115645;
      }

      .a4c740f2-52bf-495e-90c5-7b3f9065d299, .b011b123-ddc6-4996-94ae-03fdc5f3509b, .bf3be678-f1e5-408a-a304-901d89cb4970, .bf6b7392-ebd2-43c5-8325-00a82e55f28d {
        stroke-miterlimit: 10;
      }

      .bf6b7392-ebd2-43c5-8325-00a82e55f28d {
        stroke-width: 0.25px;
      }

      .bf3be678-f1e5-408a-a304-901d89cb4970 {
        stroke-width: 0.75px;
      }

      .f7f77bd6-0ec1-4947-8978-12f2c42a4f9c {
        opacity: 0.26;
      }

      .a4c740f2-52bf-495e-90c5-7b3f9065d299, .b011b123-ddc6-4996-94ae-03fdc5f3509b {
        fill: none;
      }

      .b011b123-ddc6-4996-94ae-03fdc5f3509b {
        stroke: #8e6c21;
      }

      .e40331d9-0a1a-42d4-acae-c98662ade112 {
        opacity: 0.43;
      }

      .f12d45d2-1c2c-45f7-af23-d74fd6375e95 {
        opacity: 0.31;
      }

      .b6397c9d-49b7-4e26-a380-0ab5ccb60680 {
        fill: #8e6c21;
      }

      .a4c740f2-52bf-495e-90c5-7b3f9065d299 {
        stroke: #421f08;
        stroke-width: 0.5px;
      }
    </style>
  </defs>
  <g>
    <path class="a71af75b-b56f-4524-83b1-b17ee267f25c" d="M116.6,320.15c-15,0-29.23-.61-40-1.73-11.34-1.18-25.45-2.64-25.45-14.4,0-.22,0-.48,0-.76-.11-.88-.15-1.75-.18-2.61v-.42a11.33,11.33,0,0,1,1.4-5.88l.06-.15c.1-.25.21-.51.33-.76l.39-.79c.18-.31.32-.55.47-.79l.42-.65c.21-.31.38-.53.55-.75s.33-.42.54-.66.4-.44.6-.65.4-.4.61-.6.6-.52.88-.74l.72-.54h0a13.48,13.48,0,0,1,1.6-.95l.54-.26c.61-.27,2-.94,2-.94a11.25,11.25,0,0,1,1.34-1.24,13.12,13.12,0,0,1,2.38-1.44l.5-.23.34-.14a14.88,14.88,0,0,1,2.47-1.46,14.1,14.1,0,0,1,2.2-1.43l0,0c0-4.45-.27-14.94-.58-27.94-.59-24.83-1.4-58.84-1.34-81.91l0-5.59a13.23,13.23,0,0,1-.68-1.88c-.08-.25-.15-.52-.21-.78a14.26,14.26,0,0,1-.34-2.82,90.56,90.56,0,0,1,.73-11,53.92,53.92,0,0,0,.51-6.82l-.1-2.33c0-.77-.12-2.51-.12-2.51-.08-1.73-.19-3.59-.3-5.56l-.21-3.4-.1-1.52-2.43,1.4a10.34,10.34,0,0,1-5.2,1.4H61l-3.15,1.41-1.77.76c-2.35,1.21-9.34,4.31-14.63,4.31-.29,0-.57,0-.84,0C32,133.87,26,123.65,24.88,120.19c-.41-1.27-.78-2.54-1.13-3.81l-.23-.85c-.33-1.24-.64-2.45-.91-3.66l-.07-.32c-.25-1.11-.48-2.22-.7-3.32l-.15-.77c-.22-1.16-.42-2.29-.6-3.4l-.07-.44c-.17-1.05-.32-2-.46-3l-.1-.65c-.15-1.09-.29-2.11-.42-3.12,0,0-.51-4-.55-4.28a10.7,10.7,0,0,1-.39-1.4l-.4-2a8.55,8.55,0,0,1-.14-.86l-.7-.94-.38-.54-.41-.6,1.6-1.09a1.62,1.62,0,0,0,0-.19L17,86.11c-.15-.21-.29-.43-.43-.65l-.85-1.37-.43-.74-.4-.69-.39-.73-.73-1.36-.38-.77L13,79.06l-.68-1.46-.66-1.48-.61-1.46-.56-1.44c-.08-.19-.55-1.47-.55-1.47l-.46-1.36c-2.28-7-1.52-13,1.81-16.56a10.13,10.13,0,0,1,6.15-7.28,11.14,11.14,0,0,1,2.49-1.7,12,12,0,0,1,5.36-1.27h.53a11.86,11.86,0,0,1,4.79,1.2c5.57.41,9,4.75,11,8.7,3.14.61,8,2.93,9.43,11.27.11.69.21,1.34.31,2l0,.29c.08.62.15,1.11.21,1.57,0,.12,0,.31,0,.5,0,.47.1.87.13,1.24,0,0,0,.68,0,.69,0,.42,0,.74.07,1,0,.15,0,.67,0,.68,0,.33,0,.66,0,1s0,.43,0,.64c0,.41,0,.73,0,1l-.06.68s0,.13,0,.16c0,.31-.06.6-.1.88s-.06.42-.1.65c-.07.46-.13.78-.2,1.1l-.18.74c-.07.29-.16.62-.27,1-.06.19-.13.42-.21.66s-.22.61-.34.9-.19.47-.29.7-.26.56-.39.81-.23.46-.34.66l0,.23.42,1.33c.13.39.5,1.44.5,1.44l.3.83c.16.43.32.86.49,1.28l.31.8,1.19-.68A11.91,11.91,0,0,1,53.75,89c5.3-3.79,11.61-8.45,14.59-11a12.52,12.52,0,0,1,2.14-1.44c.2-.17.41-.33.62-.49a12.67,12.67,0,0,1,1.34-.84c.24-.14.48-.27.73-.39a14.87,14.87,0,0,1,2.51-.93c1.73-.46,3.48-.8,5.34-1.17,1.13-.23,2.31-.46,3.55-.73-.1-.21-.35-.78-.38-.85a18.71,18.71,0,0,1-8.42-8.8c-.2-.44-.37-.88-.52-1.32a13.29,13.29,0,0,1-.5-1.46,14.39,14.39,0,0,1-.32-1.49,12.1,12.1,0,0,1-.22-1.39,11.89,11.89,0,0,1-.07-1.63,12.23,12.23,0,0,1,0-1.42A12.9,12.9,0,0,1,74.41,52a13.39,13.39,0,0,1,.29-1.34,14,14,0,0,1,.65-1.8A12.86,12.86,0,0,1,76,47.46l.06-.11c-.64-3.94-1.37-8.72-1.67-11.13a10.32,10.32,0,0,1,.42-4.48,17.91,17.91,0,0,1,1-2.36l.11-.23A21.23,21.23,0,0,1,77.12,27l.19-.29a25.83,25.83,0,0,1,1.56-2.15l.27-.31a25,25,0,0,1,1.84-2,3.07,3.07,0,0,1,.26-.25l.45-.41c.1-.1.49-.43.56-.49.67-.57,1.37-1.1,2.09-1.6l.45-.29.45-.29.12-.15c.56-.67,1.11-1.27,1.65-1.82l.12-.12c.51-.52,1-1,1.55-1.46l.26-.22c.61-.53,1.18-1,1.74-1.4l.16-.12c.49-.36,1-.71,1.53-1l.34-.22c.66-.4,1.24-.73,1.8-1l.11-.06c.55-.27,1.11-.51,1.7-.74l.51-.19a14.39,14.39,0,0,1,2.5-.64,26.59,26.59,0,0,1,4.45-.33c7.46,0,17.94,2.15,23.52,3.43A10.45,10.45,0,0,1,135.37,22l.16.18c.28.29.55.6.8.9l.43.51c.24.31.47.61.68.9s.25.34.37.52c.23.33.42.64.61.94l.33.55c.22.39.44.81.63,1.21l.16.34a10.49,10.49,0,0,1,.9,4.34c0,2.4-.2,7.19-.38,11.16.12.16.24.33.35.5a16.61,16.61,0,0,1,1.74,14.48,18.56,18.56,0,0,1-7.33,9.71l-.19.61c-.09.29-.15.47-.21.63s-.2.54-.21.55c-.08.23-.17.44-.25.62-.15.35-.32.69-.5,1l1.76.59,1.56.53.62.21a11.63,11.63,0,0,1,1.73.38l2.41.73c10.43,3.1,14.35,4.54,17.05,6.94,2,1.8,3.44,3.52,8.84,18,2.2,5.88,4.65,12.86,5.14,14.5l1,2.34a11.94,11.94,0,0,1,.06,9.24s.32,1.76.32,1.77l.39,2.23c.08.44.28,1.66.28,1.66.1.62.31,2,.31,2,.08.58.15,1.1.22,1.58v0l0,.06c.17.43.32.85.46,1.26l.1.32c.16.51.3,1,.42,1.48l.09.39c.12.55.22,1.09.28,1.61,0,.14.06.49.06.51.12,1.2.22,2.48.31,3.76l.06.92c.07,1.23.12,2.47.15,3.7v.63c0,1.07,0,2.14,0,3.2V153c0,1.17,0,2.3-.06,3.41l0,.79c0,1-.07,1.93-.11,2.85l0,.59c0,1-.1,2-.16,3,0,0-.16,2.77-.17,3,5,7.87,7.19,12.89,7.58,17.63,0,.05.1.49.12.66s.08.5.11.77,0,.7,0,1a8.75,8.75,0,0,1,0,1.22c0,.3-.06.62-.11.95s-.1.6-.18,1a.94.94,0,0,1,0,.16c-.08.32-.18.67-.3,1s-.21.61-.34.95c0,0,0,.08,0,.12-.05.46-.12.93-.2,1.42,0,0,0,.31,0,.31-.08.47-.18,1-.29,1.48a.19.19,0,0,0,0,.08c-.11.47-.23.94-.36,1.4l-.06.24c-.17.57-.33,1.06-.49,1.53l-.1.25q-.26.72-.54,1.35l-.16.36a15.45,15.45,0,0,1-.94,1.72l-.3.46a12.87,12.87,0,0,1-1.51,1.86,11.23,11.23,0,0,1-9.2,6.84,10.9,10.9,0,0,1-1.14.07h-.2a11.55,11.55,0,0,1-2.2-.21,12.52,12.52,0,0,1-9.06-7.21,15.73,15.73,0,0,1-.8-2.49l-.55-.34c.81,32.57,1.55,68.52,1.65,77.93l0,0a13.74,13.74,0,0,1,2.21,1.43,14.73,14.73,0,0,1,2.47,1.46l.69.3.2.1a12.44,12.44,0,0,1,1.9,1.1l.43.31a11.25,11.25,0,0,1,1.34,1.24l2.08,1a14.89,14.89,0,0,1,2.06,1.16l.11.08.56.42c.34.26.66.53,1,.81.16.14.35.33.54.53s.47.49.69.75.35.41.52.64.37.48.54.72l.46.72c.12.19.27.45.42.72s.27.52.39.78.18.37.25.54c4.15,2.31,6.24,5.68,6.24,10.07,0,11.76-14.11,13.22-25.45,14.4C145.84,319.54,131.64,320.15,116.6,320.15Zm-6.45-32.24c2.13,0,4.29,0,6.45,0h1.63c0-.28,0-.56,0-.86a10.43,10.43,0,0,1-2.13-5.37s0-.39-.05-.43c-.21-2.1-.93-8.28-1.9-16.48-1,8.6-1.78,14.95-2,16.8a10.35,10.35,0,0,1-2.15,5.48C110.1,287.32,110.13,287.62,110.15,287.91Z"/>
    <path class="b518e820-7e5b-42c4-bc6f-efedaca33094" d="M110.09,313.64c-15,0-29.23-.61-40-1.73-11.34-1.18-25.45-2.65-25.45-14.41,0-.21,0-.47,0-.75-.1-.89-.14-1.75-.17-2.61l0-.43a11.51,11.51,0,0,1,1.4-5.87l.06-.15c.11-.25.22-.51.34-.76s.24-.52.39-.79.32-.55.47-.79.25-.42.41-.65.39-.53.56-.75.33-.43.54-.66.4-.45.6-.65l.6-.6c.32-.29.6-.52.89-.74a8.44,8.44,0,0,1,.72-.54h0a14.2,14.2,0,0,1,1.59-.95l.55-.26,2-.94A9.93,9.93,0,0,1,57,277.37a13.12,13.12,0,0,1,2.38-1.44c.19-.1.34-.16.5-.23l.34-.14a13.62,13.62,0,0,1,2.47-1.46,13.41,13.41,0,0,1,2.2-1.43l0,0c0-4.45-.26-14.94-.57-27.94C63.77,219.88,63,185.87,63,162.8l0-5.59a14.26,14.26,0,0,1-.69-1.88c-.07-.26-.14-.52-.2-.78a13.55,13.55,0,0,1-.34-2.82,90.28,90.28,0,0,1,.73-11,55.87,55.87,0,0,0,.51-6.82s-.1-2.32-.1-2.34c0-.77-.12-2.51-.12-2.51-.09-1.72-.19-3.58-.31-5.55l-.2-3.4-.1-1.52L59.8,120a10.34,10.34,0,0,1-5.2,1.4h-.07l-3.15,1.41-1.77.76c-2.35,1.21-9.34,4.31-14.64,4.31l-.83,0c-8.62-.52-14.66-10.73-15.77-14.19-.42-1.27-.78-2.55-1.13-3.82L17,109c-.32-1.24-.63-2.46-.9-3.66L16,105c-.25-1.11-.48-2.22-.69-3.32l-.15-.77c-.22-1.17-.42-2.29-.61-3.41l-.07-.44c-.17-1-.31-2-.45-3l-.1-.66c-.15-1.08-.29-2.11-.42-3.11L13,86.08a9.32,9.32,0,0,1-.38-1.4l-.41-2c0-.29-.1-.57-.13-.86l-.7-.94L11,80.34l-.4-.6,1.6-1.09c0-.07,0-.13,0-.19L10.47,79.6c-.15-.22-.29-.43-.43-.66s-.71-1.12-.85-1.36l-.43-.74-.4-.69L8,75.42l-.72-1.37-.38-.76-.37-.74L5.8,71.09l-.65-1.48-.61-1.46L4,66.71l-.54-1.48L3,63.87c-2.28-7-1.53-13,1.81-16.55A10.1,10.1,0,0,1,10.93,40a10.81,10.81,0,0,1,2.49-1.7,11.88,11.88,0,0,1,5.36-1.27h.53a11.7,11.7,0,0,1,4.79,1.2c5.57.41,9,4.75,11,8.69,3.14.62,8,2.93,9.43,11.28.11.69.21,1.34.3,2l0,.29c.08.62.15,1.11.2,1.57,0,.12,0,.31.06.5,0,.46.09.86.13,1.23,0,0,.05.69.05.7,0,.42,0,.74.07,1,0,.15,0,.68,0,.69,0,.33,0,.66,0,1s0,.43,0,.64c0,.41,0,.73-.05,1s0,.45,0,.67c0,0,0,.14,0,.17,0,.3-.06.6-.1.88s-.06.42-.1.65c-.07.45-.14.78-.2,1.09l-.18.74c-.07.29-.17.63-.27,1s-.14.43-.22.66-.22.62-.33.91-.19.47-.3.69-.26.57-.38.82-.23.45-.34.66L43,78l.42,1.33c.13.39.5,1.43.5,1.43l.3.84c.16.43.32.85.49,1.28l.31.8L46.16,83a8.37,8.37,0,0,1,1.08-.54c5.3-3.79,11.6-8.45,14.59-11A12.26,12.26,0,0,1,64,70.06c.21-.17.41-.33.63-.49a12.67,12.67,0,0,1,1.34-.84c.24-.14.48-.27.73-.39a13.77,13.77,0,0,1,2.51-.93c1.72-.46,3.48-.81,5.34-1.17,1.12-.23,2.31-.46,3.55-.73-.1-.21-.35-.79-.38-.85a18.75,18.75,0,0,1-8.42-8.8c-.2-.44-.37-.88-.53-1.32s-.36-1-.49-1.46a12.59,12.59,0,0,1-.32-1.49c-.1-.48-.18-.94-.23-1.39a13.24,13.24,0,0,1-.06-1.63,12.2,12.2,0,0,1,0-1.42,12.9,12.9,0,0,1,.24-1.65,11.59,11.59,0,0,1,.29-1.35,12.84,12.84,0,0,1,.65-1.79A10.61,10.61,0,0,1,69.51,41l.06-.11c-.64-3.94-1.37-8.73-1.67-11.13a10.47,10.47,0,0,1,.41-4.48,18.78,18.78,0,0,1,1-2.36l.11-.23a23.28,23.28,0,0,1,1.23-2.19l.19-.29A26.52,26.52,0,0,1,72.36,18l.26-.32c.6-.71,1.21-1.36,1.84-2l.27-.26.44-.41.57-.49c.67-.56,1.37-1.1,2.09-1.59l.45-.29.45-.29.12-.15q.84-1,1.65-1.83l.12-.12c.51-.51,1-1,1.55-1.45l.25-.23c.62-.52,1.19-1,1.75-1.39l.16-.12c.49-.36,1-.71,1.53-1l.34-.21c.65-.4,1.24-.73,1.79-1l.12,0c.55-.27,1.11-.52,1.7-.74l.51-.19a14.39,14.39,0,0,1,2.5-.64,26.59,26.59,0,0,1,4.45-.33c7.46,0,17.93,2.15,23.52,3.43a10.44,10.44,0,0,1,7,5.43,10.6,10.6,0,0,1,1.1,3.78l.16.18c.28.29.55.59.8.89l.42.52c.25.31.48.6.69.9l.37.52c.23.33.42.63.6.94l.34.55c.22.39.44.8.62,1.21a3.54,3.54,0,0,1,.16.34,10.43,10.43,0,0,1,.91,4.34c0,2.4-.2,7.19-.38,11.16.12.16.24.33.35.5A16.59,16.59,0,0,1,135.64,52a18.61,18.61,0,0,1-7.33,9.71l-.19.62c-.09.29-.15.47-.21.63s-.2.53-.21.55c-.09.22-.17.44-.25.62-.15.35-.32.69-.5,1l1.76.58,1.56.54.62.21a10.5,10.5,0,0,1,1.73.38l2.41.73c10.43,3.1,14.35,4.54,17.05,6.94,2,1.8,3.44,3.52,8.84,18,2.2,5.88,4.65,12.85,5.14,14.5l1,2.34a11.94,11.94,0,0,1,.06,9.24l.32,1.76.39,2.23c.08.45.28,1.67.28,1.67.09.62.3,2,.3,2,.09.58.16,1.1.22,1.58v0a.08.08,0,0,0,0,0c.17.44.32.86.45,1.27l.11.31c.16.51.3,1,.42,1.48,0,.1.07.3.09.4.12.55.22,1.08.28,1.6,0,.15.05.49.06.52.12,1.2.22,2.48.3,3.75l.06.93c.07,1.23.13,2.47.16,3.7v.63c0,1.07,0,2.14,0,3.2v.75c0,1.16,0,2.29-.06,3.41l0,.79c0,1-.07,1.93-.11,2.85l0,.59c0,1-.1,2-.16,3,0,0-.16,2.77-.17,3,5,7.86,7.19,12.89,7.58,17.63l.12.65c0,.26.08.51.11.78s.05.7.05,1a10.43,10.43,0,0,1,0,1.21c0,.31-.06.63-.11,1s-.1.6-.18.95c0,.06,0,.11,0,.17-.08.32-.18.67-.3,1s-.21.61-.35,1c0,0,0,.07,0,.12,0,.46-.12.93-.2,1.41,0,0-.05.32-.05.32-.08.47-.18,1-.3,1.47,0,0,0,.06,0,.09-.11.47-.23.94-.36,1.4l-.07.24c-.16.56-.32,1.06-.49,1.53a2.5,2.5,0,0,1-.09.25c-.17.48-.36.93-.54,1.35l-.16.36a18.46,18.46,0,0,1-.94,1.72l-.3.46a12.8,12.8,0,0,1-1.52,1.86,11.21,11.21,0,0,1-9.2,6.84,10.69,10.69,0,0,1-1.13.06h-.2a11.47,11.47,0,0,1-2.2-.21,12.53,12.53,0,0,1-9.06-7.21,14.77,14.77,0,0,1-.8-2.49l-.56-.34c.82,32.57,1.56,68.52,1.66,77.92l0,0a13.78,13.78,0,0,1,2.21,1.44,14.09,14.09,0,0,1,2.47,1.46l.69.3.2.09a13.36,13.36,0,0,1,1.9,1.11l.42.31a10.62,10.62,0,0,1,1.35,1.24l2.07,1a13,13,0,0,1,2.06,1.16l.12.08.56.42a12.61,12.61,0,0,1,1,.81l.53.53c.25.25.48.49.7.75s.34.41.52.63.37.49.53.73.31.46.47.72.27.45.42.72.27.52.39.78.17.37.25.54c4.14,2.31,6.24,5.67,6.24,10.06,0,11.76-14.11,13.23-25.45,14.41C139.33,313,125.13,313.64,110.09,313.64Zm-6.46-32.24c2.14,0,4.29,0,6.46,0h1.62c0-.28,0-.56.06-.86a10.43,10.43,0,0,1-2.13-5.37s0-.39,0-.43c-.22-2.11-.93-8.28-1.9-16.48-1,8.6-1.79,14.95-2,16.8a10.35,10.35,0,0,1-2.15,5.48Z"/>
    <g>
      <path class="a0d4b58d-db14-4404-9b0e-892d428087b2" d="M55.1,297.5c0,3.16,24.62,5.72,55,5.72s55-2.56,55-5.72-24.62-5.72-55-5.72S55.1,294.34,55.1,297.5Z"/>
      <path class="a5ea720d-44f6-4151-a45a-61380c1a9ff4" d="M158.59,132.23c-.2-5.9-5.37-31-6.74-32.34-1.12-1.12-5.51-5.57-7.63-6.61-.22,2.57-2.22,17.59-2.55,24.55-.19,4,4.56,15.29,6,20C149.19,137.67,157.57,132.93,158.59,132.23Z"/>
      <g>
        <polygon class="ff13d59b-b1f8-424c-9706-a5131466eed9" points="123.32 282.68 138.61 282.12 138.08 270.02 122.33 270.63 123.32 282.68"/>
        <path class="a047a9b0-2bcc-49e0-913a-f247421d8604" d="M157.46,289.06a4.73,4.73,0,0,1,2.48,3.57c-.08,2.73-13.4,2.78-19.63,1.56-2.61-.51-7.24-2.36-10.06-2.85-3.81-.67-7.2-1.59-8.51-3,0-.41.23-4.34.5-8.08,0-.6.14-.9.87-.75.66,1,2.89,1.62,4.59,1a7,7,0,0,0,3.16-2.49c.54-.68,7.9-1.88,9-.78C142.58,281.52,148.67,285.08,157.46,289.06Z"/>
        <path class="bf156f4a-a30f-48bd-8d9b-359e36528ab8" d="M160.2,295.94a13.29,13.29,0,0,0,.22-2.65c0-.34-.37-.83-.5-1,.58,2.76-12.34,2.88-19.48,1.46-2.61-.52-5.88-2.19-8.69-2.7-3.67-.65-8.7-1.5-10-2.9-.27,0-.21.31-.22.61,0,1.21,0,2.3.19,2.39,3.59,1.62,8.14,2.3,10.8,3.14s5.06,1.83,7.71,2.47C145.11,297.92,159.21,297.8,160.2,295.94Z"/>
        <path class="ed7d6f4b-7e33-43b0-ac63-b2b90accdda6" d="M152,285.61c-1.55-1.17-6.83-1.54-10.8,1.41a.31.31,0,0,0,0,.47.41.41,0,0,0,.27.13.39.39,0,0,0,.25-.08c3.61-2.69,8.51-2.44,9.86-1.41a.4.4,0,0,0,.52,0A.32.32,0,0,0,152,285.61Zm-3.51-1.15a.4.4,0,0,0,.52,0,.32.32,0,0,0,0-.48c-2-1.51-6.3-1.34-10.51,1.94a.33.33,0,0,0,0,.48.39.39,0,0,0,.27.11.33.33,0,0,0,.25-.08C142.65,283.47,146.71,283.11,148.45,284.46Zm-2.65-1.59a.38.38,0,0,0,.52,0,.32.32,0,0,0,0-.48c-2-2-6.53-1.07-10.6,2a.32.32,0,0,0,0,.47.36.36,0,0,0,.27.12.38.38,0,0,0,.25-.07C140,282.1,144.09,281.19,145.8,282.87Z"/>
      </g>
      <path class="a4cf3508-1393-4cff-b8bd-ed61a5ee857d" d="M108.45,173.66l.67-26.21,27.78-1.08c1.13,28.42,3,115.19,3.09,127.38-3.7,2.07-18.74,1.29-20,.37-.63-6.45-8.58-72.25-11.22-95.22C108.77,178.83,108.46,174.07,108.45,173.66Z"/>
      <g>
        <polygon class="ff13d59b-b1f8-424c-9706-a5131466eed9" points="92.02 282.68 76.73 282.12 77.27 270.02 93.02 270.63 92.02 282.68"/>
        <path class="a047a9b0-2bcc-49e0-913a-f247421d8604" d="M57.88,289.06a4.69,4.69,0,0,0-2.47,3.57c.08,2.73,13.4,2.78,19.62,1.56,2.61-.51,7.25-2.36,10.06-2.85,3.82-.67,7.2-1.59,8.51-3,0-.41-.23-4.34-.49-8.08,0-.6-.14-.9-.87-.75-.67,1-2.9,1.62-4.6,1a7,7,0,0,1-3.16-2.49c-.54-.68-7.9-1.88-9-.78C72.76,281.52,66.68,285.08,57.88,289.06Z"/>
        <path class="bf156f4a-a30f-48bd-8d9b-359e36528ab8" d="M55.15,295.94a12.55,12.55,0,0,1-.22-2.65c0-.34.36-.83.5-1-.58,2.76,12.33,2.88,19.48,1.46,2.6-.52,5.87-2.19,8.68-2.7,3.68-.65,8.71-1.5,10-2.9.27,0,.22.31.23.61,0,1.21,0,2.3-.19,2.39-3.6,1.62-8.14,2.3-10.81,3.14s-5,1.83-7.71,2.47C70.23,297.92,56.14,297.8,55.15,295.94Z"/>
        <path class="ed7d6f4b-7e33-43b0-ac63-b2b90accdda6" d="M63.33,286.09a.4.4,0,0,0,.52,0c1.35-1,6.25-1.28,9.87,1.41a.37.37,0,0,0,.24.08.41.41,0,0,0,.28-.13.32.32,0,0,0,0-.47c-4-2.95-9.26-2.58-10.81-1.41A.32.32,0,0,0,63.33,286.09Zm13.11.3a.37.37,0,0,0,.26.08.38.38,0,0,0,.26-.11.31.31,0,0,0,0-.48c-4.2-3.28-8.55-3.45-10.51-1.94a.33.33,0,0,0,0,.48.4.4,0,0,0,.52,0C68.64,283.11,72.69,283.47,76.44,286.39ZM79.13,285a.37.37,0,0,0,.25.07.36.36,0,0,0,.27-.12.31.31,0,0,0-.05-.47c-4.06-3.12-8.62-4-10.6-2a.33.33,0,0,0,0,.48.4.4,0,0,0,.53,0C71.26,281.19,75.37,282.1,79.13,285Z"/>
      </g>
      <path class="a4cf3508-1393-4cff-b8bd-ed61a5ee857d" d="M106.89,173.66l-.67-26.21L73.69,147c-1.12,28.42,1.75,114.58,1.66,126.77,3.71,2.07,18.74,1.29,20,.37.63-6.45,8.81-72.76,11.45-95.73C106.81,178.32,106.88,174.07,106.89,173.66Z"/>
      <path class="a4cf3508-1393-4cff-b8bd-ed61a5ee857d" d="M114.2,197.72s-3.18,1.19-3.28-.64c-.85-4.75-5.11-4.66-6.19-.27-.42,1.69-3.87.62-3.87.62l-1.48-48.9,13.34.28Z"/>
      <path class="e0567f64-f6af-42a6-8e21-e77e1bdcd334" d="M156.06,110c-.48-1.69-9-25.89-10.91-27.62-1.72-1.53-11.84-4.32-15.62-5.5.13,2.45.17,24.43,2.24,30.23.16.45,7,8.4,7.92,9.48C143.1,115.14,155.07,110.79,156.06,110Z"/>
      <path class="a5ea720d-44f6-4151-a45a-61380c1a9ff4" d="M34.75,117.47c2.33.13,8.12-2,10.25-3.24C44.12,103.59,33.52,88.34,31.31,74c-.85-.14-8.93,1.28-9.36,1.84,1.8,8.9,2.09,21.48,6.33,34.66C29,112.82,32.86,117.35,34.75,117.47Z"/>
      <path class="a5ea720d-44f6-4151-a45a-61380c1a9ff4" d="M155.27,126.36c-2-.56-7.36.52-9.41,1.32-1,10.62,5.53,27.54,5,42,.71.3,7.93.36,8.4-.1,0-9.08,1.84-21.5.41-35.23C159.43,132,156.89,126.81,155.27,126.36Z"/>
      <path class="a5ea720d-44f6-4151-a45a-61380c1a9ff4" d="M42.69,115.08c6-1.93,30.62-14.2,31.65-16.1.85-1.57,3.87-8.4,4.37-11-2.69.5-18.59,2.62-25.8,4.26-4.12.93-14.43,9.46-18.84,12.38C34.61,106.25,41.7,114.15,42.69,115.08Z"/>
      <path class="e0567f64-f6af-42a6-8e21-e77e1bdcd334" d="M52.12,91.78c4.56-3.23,12.49-9,16.43-12.32a2.17,2.17,0,0,1,3,.25c2.88,3.35,8.82,10.53,11.31,14.75A2.17,2.17,0,0,1,82,97.52c-5.53,2.7-15.28,7.9-21.7,9.92a2.18,2.18,0,0,1-2.41-.8,68.24,68.24,0,0,1-6.53-12.3A2.18,2.18,0,0,1,52.12,91.78Z"/>
      <path class="e0567f64-f6af-42a6-8e21-e77e1bdcd334" d="M139.56,82.61c0-1.49-5.47-3.88-6.89-4.39a164.65,164.65,0,0,0-19.51-6.07c-2.12-.47-10.12.19-10.17.19s-13,.58-15,1.26c-6.87,2.28-12.13,2.82-16.12,3.88a3.5,3.5,0,0,0-2.59,3.83c2.14,16.31,3.78,40.57,4.22,52.23.19,5-1.31,11.7-1.23,18A3.49,3.49,0,0,0,75,154.92c12.28,2.8,45.73,3.73,60.33-.16a3.51,3.51,0,0,0,2.61-3.6c-.41-6.38-1.92-14.85-2.23-19.77C134.92,119.67,139.32,98.82,139.56,82.61Z"/>
      <path class="a5ea720d-44f6-4151-a45a-61380c1a9ff4" d="M115.68,73.1c0-.11-.05-.21-.06-.32l-3.52-1.12c-3.2-1-11.2-1.08-14.63.14a29,29,0,0,1-4.45.92c0,.19,0,1.34,0,1.53.25,4.86,11.37,14,11.37,14S115.93,78,115.68,73.1Z"/>
      <path class="a5ea720d-44f6-4151-a45a-61380c1a9ff4" d="M105.4,79.73c-4.68.39-8.67-1.77-8.92-4.82l-1.23-15,16.93-1.39,1.23,15C113.66,76.57,110.07,79.35,105.4,79.73Z"/>
      <path class="bf4f25e0-d4f2-4984-a67d-1d49dc7d64fb" d="M113.14,70.73a15.49,15.49,0,0,1-9.64,1.77C100,72,98.16,70.4,96,68.75l-.38-4.84c1.89-1.8,5.77-2.72,10.07-2.15a16.33,16.33,0,0,1,7,2.53Z"/>
      <g>
        <path class="b662c07f-7d48-43e3-842c-cccfbc25a58b" d="M121.68,23.79c-3.36-7.33-19.21-6.51-21.34-6.4s-18.21,1.16-20.48,8.8c-.36,1.22,5,21.29,7.29,24.74A16.26,16.26,0,0,0,92.25,55c2.73,1.37,4.74,2.54,8.07,3,.2,0,4.48-.22,4.68-.27,3.26-.86,5.12-2.25,7.67-3.92a16.38,16.38,0,0,0,4.6-4.65C119.1,45.51,122.21,25,121.68,23.79Z"/>
        <g>
          <path class="a5ea720d-44f6-4151-a45a-61380c1a9ff4" d="M80.83,44.4c2.24-.39,4.14,1.53,5.33,4.81,1.33,3.69.13,5.87-.74,6.38-1.65,1-5.1-.64-6.71-4.12C77.26,48.34,78.18,44.86,80.83,44.4Z"/>
          <path class="ba1f7859-6eed-489b-b915-f5be13864a9d" d="M82.1,47.7c1.1-.61,2.6.16,3.34,1.71s.45,3.31-.66,3.92-2.59-.16-3.33-1.72S81,48.31,82.1,47.7Z"/>
        </g>
        <g>
          <path class="a5ea720d-44f6-4151-a45a-61380c1a9ff4" d="M122.83,42c-2.27-.13-3.94,2-4.74,5.39-.9,3.81.54,5.84,1.46,6.25,1.75.78,5-1.23,6.19-4.86C126.83,45.49,125.52,42.14,122.83,42Z"/>
          <path class="ba1f7859-6eed-489b-b915-f5be13864a9d" d="M121.94,45.41c-1.16-.48-2.56.45-3.11,2.08s-.07,3.34,1.09,3.82,2.56-.46,3.12-2.09S123.11,45.88,121.94,45.41Z"/>
        </g>
        <path class="a5ea720d-44f6-4151-a45a-61380c1a9ff4" d="M122.15,31.46c-3.41-8.25-19.26-7.44-21.39-7.34S82.55,25.3,80.33,33.87c-.35,1.36,5.2,23.92,7.47,27.82a17.12,17.12,0,0,0,5.13,4.62c2.74,1.56,4.76,2.89,8.09,3.45.21,0,4.49-.22,4.68-.27,3.26-.94,5.11-2.49,7.65-4.35A17.31,17.31,0,0,0,117.92,60C119.72,55.83,122.68,32.76,122.15,31.46Z"/>
        <g>
          <path class="fac2e1dd-4247-4612-b8d9-2a0c2b73d930" d="M95.73,59.26a40.08,40.08,0,0,1,6.52-.89l1.21-.07a31.67,31.67,0,0,1,6.63.28,7.21,7.21,0,0,1-3.39,3.09,12,12,0,0,1-3.58.69h-.07a12.24,12.24,0,0,1-3.62-.25A6.94,6.94,0,0,1,95.73,59.26Z"/>
          <path class="eadf6f45-7d1d-4e6a-be93-3ffe48f810f2" d="M103.06,62.41h.07a11.39,11.39,0,0,0,3.5-.69l.07,0-.06,0a7.61,7.61,0,0,0-3.62-.59,7.76,7.76,0,0,0-3.53,1l-.06,0,.07,0A11.27,11.27,0,0,0,103.06,62.41Z"/>
          <path class="b518e820-7e5b-42c4-bc6f-efedaca33094" d="M109,58.43c-.44.79-3.16.92-6.06,1.09s-5.44.31-6-.5c1.19-.16,3.17-.52,5.37-.65l1.21-.07A30.23,30.23,0,0,1,109,58.43Z"/>
        </g>
        <path class="a6b4f3d2-0b79-4dca-8e85-93a3077fdf4d" d="M102,53.33a1.84,1.84,0,0,1-1.46-.51c-.35-.45-.18-1.21.05-2.16.11-.51.25-1.09.32-1.69a.24.24,0,0,1,.28-.22.25.25,0,0,1,.22.27,17,17,0,0,1-.34,1.75c-.18.8-.34,1.48-.14,1.75s1.65.4,2.27.08a.24.24,0,0,1,.34.11.25.25,0,0,1-.11.33A3.38,3.38,0,0,1,102,53.33Z"/>
        <path class="ff65f645-468c-41ed-af9e-c668516f865b" d="M86.67,38.93a7.31,7.31,0,0,1,3-2.93c4.61-1.91,6.7,1.36,6.7,1.36s-.43-1.54-.15-1.44c.57.2,1.24,3.14,1.17,3.37s-.32.33-.72.24c-2.05-.45-4-1.19-6.64-.34a12.1,12.1,0,0,0-2.54,1.21c-.21.13-.79.56-.85.46A2.92,2.92,0,0,1,86.67,38.93Z"/>
        <path class="ff65f645-468c-41ed-af9e-c668516f865b" d="M116.74,38.14a7.13,7.13,0,0,0-3-2.93c-4.6-1.91-6.69,1.36-6.69,1.36s.42-1.55.14-1.45c-.57.21-1.23,3.14-1.16,3.38s.31.32.71.23c2-.45,4-1.18,6.64-.33A12.24,12.24,0,0,1,116,39.6c.21.14.78.57.85.47A2.93,2.93,0,0,0,116.74,38.14Z"/>
        <g>
          <path class="b448299b-ac79-4eae-b149-d62b252a3385" d="M113.39,41.24c2.69,1,3.58,4.16,2.07,5.82a5.59,5.59,0,0,1-3.91,1.34c-2.27.11-4.31-.89-4.64-1.93a4,4,0,0,1,.64-3.23A4.73,4.73,0,0,1,113.39,41.24Z"/>
          <path class="b6937b2f-625e-40fc-b1ca-7f4b331ba17f" d="M115.37,41.8a3.79,3.79,0,0,1,0,5.31,3.63,3.63,0,0,0,.46-3.25,4.3,4.3,0,0,0-3.3-2.66,4.79,4.79,0,0,0-5.26,2.42A5.25,5.25,0,0,1,115.37,41.8Z"/>
          <path class="a8b6cc49-79aa-4cc8-84a3-27f9b1c6f09d" d="M112,42.54a2.64,2.64,0,1,1-3.36,1.53A2.61,2.61,0,0,1,112,42.54Z"/>
          <path class="ac91510c-b3c2-47b1-bff0-fa780c1f9be9" d="M112.78,43.23a.74.74,0,0,1,.42,1,.69.69,0,0,1-.92.41.72.72,0,0,1-.42-.94A.71.71,0,0,1,112.78,43.23Z"/>
        </g>
        <g>
          <path class="b448299b-ac79-4eae-b149-d62b252a3385" d="M96.16,43.89a4,4,0,0,1,1,3.14c-.21,1.07-2.12,2.3-4.39,2.45a5.51,5.51,0,0,1-4-.89c-1.7-1.47-1.18-4.73,1.38-6A4.74,4.74,0,0,1,96.16,43.89Z"/>
          <path class="b6937b2f-625e-40fc-b1ca-7f4b331ba17f" d="M96.44,44.25a4.78,4.78,0,0,0-5.5-1.81,4.3,4.3,0,0,0-3,3,3.63,3.63,0,0,0,.83,3.18,3.79,3.79,0,0,1-.57-5.28A5.24,5.24,0,0,1,96.44,44.25Z"/>
          <path class="a8b6cc49-79aa-4cc8-84a3-27f9b1c6f09d" d="M93.77,43.59a2.64,2.64,0,1,1-3.37,1.53A2.61,2.61,0,0,1,93.77,43.59Z"/>
          <path class="ac91510c-b3c2-47b1-bff0-fa780c1f9be9" d="M94.51,44.28a.74.74,0,0,1,.42.95.72.72,0,0,1-.93.42.74.74,0,0,1-.42-.95A.72.72,0,0,1,94.51,44.28Z"/>
        </g>
        <path class="ff65f645-468c-41ed-af9e-c668516f865b" d="M93.69,25c-.12-.62.34-4.21-1.06-5.94a14.65,14.65,0,0,0-14.39,9.32c.55,4.36,2.27,15,2.52,16,1,.39,2.21,2.54,2.88,5a8.87,8.87,0,0,0,.77.79,82.71,82.71,0,0,1-.53-13A25.89,25.89,0,0,1,85.74,34c0-1.73-.94-5.2,1.66-6.8A25.42,25.42,0,0,1,93.69,25Z"/>
        <path class="ff65f645-468c-41ed-af9e-c668516f865b" d="M107.77,24.22c0-.63-.83-4.14.37-6a14.65,14.65,0,0,1,15.37,7.61c-.05,4.39-.55,15.11-.68,16.18-1,.49-1.9,2.77-2.29,5.25a10,10,0,0,1-.67.87,84.19,84.19,0,0,0-1-13,27.38,27.38,0,0,0-2.2-2.84c-.18-1.72.34-5.27-2.43-6.57A26,26,0,0,0,107.77,24.22Z"/>
        <path class="e88981db-dd94-4b24-b588-fa10f3a9bc15" d="M83.61,25.05c1.58-6.48,8.25-11.13,10.85-11.56,6.46-1.06,22.27,2.58,24,3-2.56,6-9.35,12.3-16.62,12.76C93,29.79,87.2,25.26,83.61,25.05Z"/>
        <path class="ff65f645-468c-41ed-af9e-c668516f865b" d="M101.6,54.5c-.35,0-6.86,1-7.85,4.87a.18.18,0,0,0,.21.23l8.19-1.31a.53.53,0,0,0,.43-.41h0a.19.19,0,0,1,.36,0l.11.29a.19.19,0,0,0,.17.11l8,.67a.19.19,0,0,0,.2-.23c-.23-1-1.55-4.28-8.84-4.29Z"/>
      </g>
      <g>
        <path class="a5ea720d-44f6-4151-a45a-61380c1a9ff4" d="M32.07,57.83c1.5-1.78,1.94.52,2.21,2.13C36,70,34.85,71.91,31.07,76.59c-1.61,3.9-6.09,3.13-8,1.76C19.27,75.56,14.94,67,12.87,60.64c-.75-2.32-1-6-.37-6.23,1.21-.42,1.83,3,2.77,5.26a11.91,11.91,0,0,0,2.57,3.64c-.27-.87-1.88-4.79-2.13-5.61-.84-2.85-1.25-7.87-.71-8.07,2-.72,2.32,3.52,3.44,6.93.37,1.1,1.94,4.55,2.72,6a58.41,58.41,0,0,0-1.37-6.07C18.55,51.64,17.46,48,18,47.68c2.26-1.12,3.41,2.84,5.06,8.35.39,1.31,1.56,4.88,1.91,5.87.19-.28,0-2.69-.56-5.21-.86-3.63-2.78-7.56-1.36-8,.94-.29,2.85,2.49,4.43,7.12,1.06,3.11,2,6.91,3.05,10C32.21,66.42,30.47,59.73,32.07,57.83Z"/>
        <path class="b5571259-36de-455a-a186-fe19d7f80d21" d="M26.74,69.65c-.26,1.63.82,2.7.23,3-.83.45-1.95-1.08-1.69-2.46.5-2.77,3.37-4,2.72-3.43A5.85,5.85,0,0,0,26.74,69.65Z"/>
      </g>
      <g>
        <path class="a5ea720d-44f6-4151-a45a-61380c1a9ff4" d="M156,175.21a.36.36,0,0,0,.16-.09.35.35,0,0,0,.11-.15.5.5,0,0,0-.17.08A.46.46,0,0,0,156,175.21Z"/>
        <path class="a5ea720d-44f6-4151-a45a-61380c1a9ff4" d="M150.39,167.21c-.93,4.39-1,9.83-.06,12a35.6,35.6,0,0,0,3.71,6.36c1.21,1.67,2.79-.9,2.32-2.42-.35-1.13-1.08-2.67-1.77-4.69-.14-.28-.66-3.07.13-3.93C157.12,171.94,150.73,166.82,150.39,167.21Z"/>
        <path class="ba1f7859-6eed-489b-b915-f5be13864a9d" d="M166.18,178c1.84,3.07.64,6.07-.79,6.85s-3-4.08-4.82-7.15-2.69-4.62-1.27-5.41S164.33,174.92,166.18,178Z"/>
        <path class="a5ea720d-44f6-4151-a45a-61380c1a9ff4" d="M160,163.74c-2.11-1.82-7.93-1.31-9.59,3.47,0,1.32,1.1,2.77,3.47,8.58,2.07,4.24,3.42,6.83,4.28,8.94.72,3.35,1,7.49,1.53,8.69s2.54,1.75,2.7.28c.22-2.1.58-7.57.32-8.93-.22-1.08-1.35-4.17-2.28-6.69.17-.26,2.61,5.2,3,6.69.31,1.16-.75,5.91,1,6,1.42-1.27,2.67-7.23,2.08-8.9-.42-1.2-1.87-4.93-2.59-6.5,1.1,1,2.73,5.17,3.1,6.69.94-1.61.32-2.18.29-3.08C167.2,176.43,165.89,172.66,160,163.74Z"/>
      </g>
      <polygon class="aea74fd9-ff1e-467a-86b1-dfc5e0139ffb" points="130.36 118.72 122.41 121.46 114.35 118.27 114.07 104.41 129.73 104.02 130.36 118.72"/>
      <path class="bdfb2d0d-2927-4f8e-aa16-70a66087db06" d="M112.84,66.67c0,2.19,2.67,10.94-6,16,0,0,11.18-4.7,8.9-13.56C115.69,69.13,115.69,68.3,112.84,66.67Z"/>
      <path class="bdfb2d0d-2927-4f8e-aa16-70a66087db06" d="M96,68.84c.9,5.84-1.66,9.84,5.7,13.65C100,83.52,90.12,80.71,94,70.9,94,70.9,93.28,70.37,96,68.84Z"/>
      <path class="bf6b7392-ebd2-43c5-8325-00a82e55f28d" d="M112.84,66.67s6.47,10.2-4.68,15c-.88.39-2,1.22-2,2.19l-1.42,4s3.64-4.29,6.67-4.36,5.06,3.14,7.15,1.77a4.1,4.1,0,0,1,0-3.86C119.69,79.38,120.87,70.21,112.84,66.67Z"/>
      <path class="bf6b7392-ebd2-43c5-8325-00a82e55f28d" d="M96,68.84S90.33,79,100.46,82.1c.93.29,3,1.13,2.83,2.71l.73,3.13s-3.67-2.77-6.7-2.85-5.06,3.14-7.14,1.77a4.12,4.12,0,0,0,0-3.86C89.08,81,88,72.38,96,68.84Z"/>
      <path class="bf3be678-f1e5-408a-a304-901d89cb4970" d="M139.5,112.27h18a0,0,0,0,1,0,0v5.27a1.08,1.08,0,0,1-1.08,1.08H139.5a0,0,0,0,1,0,0v-6.35a0,0,0,0,1,0,0Z" transform="translate(-33.43 67.67) rotate(-23.15)"/>
      <path class="bf3be678-f1e5-408a-a304-901d89cb4970" d="M44,98.16H61.12A.87.87,0,0,1,62,99v5.82a0,0,0,0,1,0,0H44a0,0,0,0,1,0,0V98.16A0,0,0,0,1,44,98.16Z" transform="translate(-8.44 198.15) rotate(-120)"/>
      <path class="f7f77bd6-0ec1-4947-8978-12f2c42a4f9c" d="M85.53,43.33h15.08a0,0,0,0,1,0,0v4.19a5.67,5.67,0,0,1-5.67,5.67H91.19a5.67,5.67,0,0,1-5.67-5.67V43.33A0,0,0,0,1,85.53,43.33Z" transform="matrix(1, -0.07, 0.07, 1, -3.27, 6.92)"/>
      <path class="f7f77bd6-0ec1-4947-8978-12f2c42a4f9c" d="M103.76,42h15.08a0,0,0,0,1,0,0v4.19a5.67,5.67,0,0,1-5.67,5.67h-3.75a5.67,5.67,0,0,1-5.67-5.67V42A0,0,0,0,1,103.76,42Z" transform="translate(-3.13 8.25) rotate(-4.19)"/>
      <path class="b011b123-ddc6-4996-94ae-03fdc5f3509b" d="M85.46,43.4h15.08a0,0,0,0,1,0,0v4.19a5.67,5.67,0,0,1-5.67,5.67H91.12a5.67,5.67,0,0,1-5.67-5.67V43.4a0,0,0,0,1,0,0Z" transform="translate(-3.28 6.92) rotate(-4.19)"/>
      <path class="b011b123-ddc6-4996-94ae-03fdc5f3509b" d="M103.76,42.18h15.08a0,0,0,0,1,0,0v4.19A5.67,5.67,0,0,1,113.17,52h-3.75a5.67,5.67,0,0,1-5.67-5.67V42.18a0,0,0,0,1,0,0Z" transform="translate(-3.14 8.25) rotate(-4.19)"/>
      <g class="e40331d9-0a1a-42d4-acae-c98662ade112">
        <path class="b518e820-7e5b-42c4-bc6f-efedaca33094" d="M97.43,43.57a22.13,22.13,0,0,1-2.79,4.23,22.49,22.49,0,0,1-3.56,3.61,22.52,22.52,0,0,1,2.79-4.24A23.29,23.29,0,0,1,97.43,43.57Z"/>
        <path class="b518e820-7e5b-42c4-bc6f-efedaca33094" d="M94.25,50.38a4.76,4.76,0,0,1,.91-2.07,4.65,4.65,0,0,1,1.7-1.48A4.58,4.58,0,0,1,96,48.9,4.5,4.5,0,0,1,94.25,50.38Z"/>
      </g>
      <g class="f12d45d2-1c2c-45f7-af23-d74fd6375e95">
        <path class="b518e820-7e5b-42c4-bc6f-efedaca33094" d="M115.71,43a23.11,23.11,0,0,1-2.79,4.23,22.1,22.1,0,0,1-3.57,3.6,23.28,23.28,0,0,1,2.79-4.23A22.92,22.92,0,0,1,115.71,43Z"/>
        <path class="b518e820-7e5b-42c4-bc6f-efedaca33094" d="M112.53,49.8a4.75,4.75,0,0,1,.9-2.07,4.68,4.68,0,0,1,1.71-1.48,4.69,4.69,0,0,1-.9,2.07A4.77,4.77,0,0,1,112.53,49.8Z"/>
      </g>
      <line class="b011b123-ddc6-4996-94ae-03fdc5f3509b" x1="100.16" y1="42.87" x2="103.42" y2="42.71"/>
      <line class="b011b123-ddc6-4996-94ae-03fdc5f3509b" x1="100.26" y1="44.89" x2="103.52" y2="44.74"/>
      <rect class="b6397c9d-49b7-4e26-a380-0ab5ccb60680" x="118.54" y="41.44" width="1.49" height="1.07" transform="translate(-2.75 8.82) rotate(-4.19)"/>
      <rect class="b6397c9d-49b7-4e26-a380-0ab5ccb60680" x="83.62" y="43.89" width="1.49" height="1.07" transform="translate(-3.02 6.28) rotate(-4.19)"/>
      <rect class="b6397c9d-49b7-4e26-a380-0ab5ccb60680" x="22.5" y="79.58" width="10.25" height="2.04" transform="translate(-15.4 7.06) rotate(-11.41)"/>
      <path class="a4c740f2-52bf-495e-90c5-7b3f9065d299" d="M167.05,182c.88-1.56.28-2.13.25-3-.1-2.58-1.4-6.35-7.32-15.27a4,4,0,0,0-.52-.36c.42-8.19,1.35-18.18.22-29a13.7,13.7,0,0,0-1.21-3.79c-.36-3.36-1.38-9.18-2.53-14.87l.69-.29a1.54,1.54,0,0,0,.81-2L156,110l.06,0c-.48-1.69-9-25.89-10.91-27.62-1.72-1.53-11.84-4.32-15.62-5.5,0,.07,0,.15,0,.24-3-1.09-6.71-2.35-10.63-3.47a10.41,10.41,0,0,0-6.06-7l-.09-1.1.59-.43A17.31,17.31,0,0,0,117.92,60a37,37,0,0,0,1.56-6.36l.07,0c1.75.78,5-1.23,6.2-4.86,1.08-3.28-.23-6.63-2.92-6.78.13-1.07.63-11.79.68-16.18a14.7,14.7,0,0,0-6.61-6.38,19.86,19.86,0,0,0,1.59-3c-1.76-.4-17.56-4-24-3-1.92.32-6.07,2.94-8.74,6.91a14.46,14.46,0,0,0-3.57,2.39l-.12.1-.14.13-.07.07a13.65,13.65,0,0,0-3.58,5.32c.55,4.36,2.27,15,2.52,16h0c-2.61.5-3.51,4-2.07,7.06,1.61,3.48,5.06,5.1,6.71,4.12l.1-.06a37,37,0,0,0,2.28,6.16,17.12,17.12,0,0,0,5.13,4.62c1.06.6,2,1.17,3,1.67l.06.77h0v.08h0a10.66,10.66,0,0,0-5,4.3,18.37,18.37,0,0,0-3,.46c-6.87,2.28-12.13,2.82-16.12,3.88A3.5,3.5,0,0,0,69.78,79a2.15,2.15,0,0,0-1.23.5c-3.94,3.32-11.87,9.09-16.43,12.32a2.2,2.2,0,0,0-.56.58L51.37,92,46.92,94.6a1.55,1.55,0,0,0-.77,1.26c-1.83,1.24-3.77,2.66-5.6,4-2.6-6.09-5.73-12.69-7.71-19.28h0l-.4-2-.16,0c-.24-.92-.46-1.84-.64-2.75C35,71.69,35.87,69.51,34.28,60c-.27-1.61-.7-3.91-2.21-2.13s.14,8.59-1.5,8c-1-3.08-2-6.88-3.05-10-1.58-4.63-3.49-7.41-4.43-7.12-1.42.44.5,4.37,1.36,8,.59,2.52.75,4.93.56,5.21-.35-1-1.52-4.56-1.91-5.87-1.65-5.51-2.79-9.47-5.06-8.35-.58.29.51,4,1.75,8.84a58.41,58.41,0,0,1,1.37,6.07c-.78-1.48-2.35-4.93-2.72-6C17.32,53.15,17,48.91,15,49.63c-.54.2-.13,5.22.71,8.07.25.82,1.86,4.74,2.13,5.61a11.76,11.76,0,0,1-2.56-3.64c-.95-2.25-1.57-5.68-2.78-5.26-.64.22-.38,3.91.37,6.23,1.92,5.9,5.81,13.75,9.43,17,.15.92.3,1.87.44,2.85l-.34.07.4,2,.22,0c1.08,8,2,17.79,5.26,27.92.75,2.33,4.58,6.86,6.47,7,2.33.13,8.12-2,10.25-3.24v0c2.34-.95,5.59-2.43,9.08-4.1l.51.88,5.8-3.35-.12-.2h0a92.14,92.14,0,0,0,11.19-4.71c1,11.85,1.72,23.69,2,30.81.19,5-1.31,11.7-1.23,18a3.46,3.46,0,0,0,1.27,2.64c-.53,33.58,1.92,108.27,1.84,119.55a7.07,7.07,0,0,0,1.72.61L77,276.87a2.6,2.6,0,0,0-1.5.42,17,17,0,0,1-3.88,4.1,4,4,0,0,0-2.58,1,.33.33,0,0,0,0,.48.39.39,0,0,0,.44.05l-.15.09a5.1,5.1,0,0,0-2.9.91.33.33,0,0,0,0,.48.4.4,0,0,0,.52,0,3.16,3.16,0,0,1,1-.49c-.43.26-.88.53-1.35.79a6.16,6.16,0,0,0-3.11.85.32.32,0,0,0-.05.48.4.4,0,0,0,.52,0,3.31,3.31,0,0,1,.94-.43c-2.07,1.1-4.37,2.21-6.91,3.36a4.85,4.85,0,0,0-2.47,3.4.75.75,0,0,1,0-.21c-.14.21-.52.7-.5,1a12.55,12.55,0,0,0,.22,2.65c1,1.86,15.09,2,20,.78,2.66-.64,5.09-1.64,7.71-2.47s7.21-1.52,10.81-3.14c.2-.09.23-1.18.19-2.39,0-.3,0-.62-.23-.61h0c0-1-.26-4.49-.5-7.84,0-.59-.14-.89-.83-.75l.4-4.83a8.06,8.06,0,0,0,2.66-.57c.5-5.13,5.76-48,9.23-77a1.13,1.13,0,0,0,.16-.35c1.08-4.38,5.31-4.48,6.19.24,3.4,28.81,8.58,71.91,9.09,77.07a8,8,0,0,0,2.65.57l.4,4.83c-.68-.14-.78.16-.82.75-.24,3.35-.48,6.86-.5,7.84h0c-.27,0-.21.31-.22.61,0,1.21,0,2.3.19,2.39,3.59,1.62,8.14,2.3,10.8,3.14s5.06,1.83,7.71,2.47c4.9,1.2,19,1.08,20-.78a13.29,13.29,0,0,0,.22-2.65c0-.34-.37-.83-.5-1a.74.74,0,0,1,0,.21,4.82,4.82,0,0,0-2.47-3.4c-2.53-1.15-4.84-2.26-6.9-3.36a3.24,3.24,0,0,1,.93.43.4.4,0,0,0,.52,0,.32.32,0,0,0,0-.48,6.16,6.16,0,0,0-3.11-.85L147.5,284a2.94,2.94,0,0,1,.95.49.4.4,0,0,0,.52,0,.32.32,0,0,0,0-.48A5.07,5.07,0,0,0,146,283l-.14-.09a.38.38,0,0,0,.43-.05.32.32,0,0,0,0-.48,4,4,0,0,0-2.58-1,17.38,17.38,0,0,1-3.88-4.1,2.58,2.58,0,0,0-1.5-.42l-.11-2.51a7.07,7.07,0,0,0,1.72-.61c-.08-11.29-1.7-86.61-2.83-120.22a3.54,3.54,0,0,0,.74-2.37c-.41-6.38-1.92-14.85-2.23-19.77s.26-11.28,1.06-18.29l2.46,2.88-.21.09,2.5,5.85.75-.33c.8,3.22,2.32,7.4,3.6,10.95.64,9.51,4.62,22.08,5,33.62a6.3,6.3,0,0,0-.47,1.05c-.93,4.39-1,9.83-.06,12a35.6,35.6,0,0,0,3.71,6.36c1.21,1.67,2.79-.9,2.32-2.42-.35-1.13-1.07-2.67-1.77-4.69a7.13,7.13,0,0,1-.28-1.79c1.81,3.71,3,6.08,3.83,8,.72,3.35,1,7.49,1.53,8.69s2.54,1.75,2.7.28c.22-2.1.58-7.57.32-8.93-.22-1.08-1.35-4.17-2.28-6.69.17-.26,2.61,5.2,3,6.69.31,1.16-.75,5.91,1,6,1.13-1,2.15-5,2.23-7.42A5,5,0,0,0,167.05,182ZM113.23,71.33m-17,.8M69.55,282.87a2.7,2.7,0,0,1,.73-.5l-.76.52Zm76.25,0,0,0-.76-.52A2.75,2.75,0,0,1,145.8,282.87Z"/>
    </g>
  </g>
</svg>
