<svg id="bf652538-c0ed-45b7-b1af-cf619f7c6951" data-name="Layer 1" xmlns="http://www.w3.org/2000/svg" xmlns:xlink="http://www.w3.org/1999/xlink" width="250" height="250" viewBox="0 0 250 250">
  <defs>
    <style>
      .e24dbcfb-a245-4cf3-ae03-438e82e13712 {
        opacity: 0.5;
      }

      .f66aec52-0cdc-40af-a4f8-fbb908521bc6 {
        fill: #fff;
      }

      .aa4a620e-a4bf-425a-916d-5abb5a62f147, .b941eaa0-fcff-4fbb-8aef-a5663d120bde {
        stroke: #7f472b;
        stroke-miterlimit: 10;
      }

      .aa4a620e-a4bf-425a-916d-5abb5a62f147 {
        stroke-width: 0.5px;
        fill: url(#e95c776f-bc8d-47b7-9f99-3ed7868c74e2);
      }

      .b23be142-de8f-46e9-b40f-80165ac4f3f2 {
        fill: #603004;
        opacity: 0.06;
      }

      .b941eaa0-fcff-4fbb-8aef-a5663d120bde {
        fill: #323232;
      }
    </style>
    <linearGradient id="e95c776f-bc8d-47b7-9f99-3ed7868c74e2" x1="192.11" y1="54.96" x2="84.5" y2="159.17" gradientTransform="translate(122.44 -50.69) rotate(45)" gradientUnits="userSpaceOnUse">
      <stop offset="0.33" stop-color="#fadc36"/>
      <stop offset="0.53" stop-color="#fac93a"/>
      <stop offset="0.78" stop-color="#fbb73f"/>
      <stop offset="0.95" stop-color="#fbb040"/>
    </linearGradient>
  </defs>
  <g>
    <path class="e24dbcfb-a245-4cf3-ae03-438e82e13712" d="M127.49,242.93a16.44,16.44,0,0,1-11.7-4.84L16.94,139.24a16.54,16.54,0,0,1,0-23.4L115.79,17a16.56,16.56,0,0,1,23.4,0l55.47,55.47c.28.29,1.16,1.13,2.47,2.39,7,6.77,25.65,24.7,36.12,36.2l4.78,4.79a16.43,16.43,0,0,1,4.46,8.14,10.87,10.87,0,0,1,.3,5.32,16.45,16.45,0,0,1-4.75,9.94l-98.85,98.85A16.46,16.46,0,0,1,127.49,242.93Z"/>
    <path class="f66aec52-0cdc-40af-a4f8-fbb908521bc6" d="M122.41,237.85a16.44,16.44,0,0,1-11.7-4.84L11.86,134.16a16.54,16.54,0,0,1,0-23.4l98.85-98.85a16.56,16.56,0,0,1,23.4,0l55.47,55.47c.28.29,1.16,1.13,2.47,2.39,7,6.77,25.65,24.7,36.12,36.2l4.78,4.79a16.39,16.39,0,0,1,4.46,8.14,10.87,10.87,0,0,1,.3,5.32,16.5,16.5,0,0,1-4.75,9.94L134.11,233A16.46,16.46,0,0,1,122.41,237.85Z"/>
    <g>
      <g>
        <rect class="aa4a620e-a4bf-425a-916d-5abb5a62f147" x="46.13" y="46.18" width="152.56" height="152.56" rx="6.28" transform="translate(-50.74 122.42) rotate(-45)"/>
        <path class="b23be142-de8f-46e9-b40f-80165ac4f3f2" d="M227.64,122.46a7.83,7.83,0,0,1-2.5,5.14l-98.22,98.22a6.37,6.37,0,0,1-9,0L19,127a6.4,6.4,0,0,1,0-9c69.76,57.39,150.29,12.49,163.35-43.37C184.89,77.06,230.13,120,227.64,122.46Z"/>
      </g>
      <polygon class="b941eaa0-fcff-4fbb-8aef-a5663d120bde" points="175.57 98.24 148.25 74.03 148.25 107.23 56.26 107.23 56.26 137.69 148.25 137.69 148.25 170.89 175.57 146.68 202.9 122.46 175.57 98.24"/>
    </g>
  </g>
</svg>
