<svg id="e7d2b47f-a908-4b16-a287-93ae30bc555e" data-name="Layer 1" xmlns="http://www.w3.org/2000/svg" width="251.6" height="248.76" viewBox="0 0 251.6 248.76">
  <defs>
    <style>
      .f1444b90-4213-408b-b4d2-306b77fc3b92 {
        opacity: 0.5;
      }

      .f0326df8-8a8a-4226-88ac-97752ca4b54a {
        fill: #fff;
      }

      .b8275d04-dbe9-46cd-b1ca-23f329262a49 {
        fill: #252820;
        stroke: #181915;
      }

      .a4a24551-900c-4f03-90ad-f9300934d68e, .a752b93b-acdf-4730-829e-a36d9e6ee5ef, .aabcc8d3-a071-480a-a660-38f36ef01177, .b123f4dc-dac4-45a1-881f-0d622f317d3f, .b8275d04-dbe9-46cd-b1ca-23f329262a49, .ba5fe953-c953-4712-b068-54f08390e0c0, .e228f85d-f98c-4b7c-9df3-4ed16f973d5a, .f3ace44d-5d33-4380-8991-ba738cd1a589, .fa76fe16-80b2-489a-a170-0a1364bc273b, .fbad72ad-a7de-4c69-b027-1ac36d2b1a59 {
        stroke-miterlimit: 10;
      }

      .fbad72ad-a7de-4c69-b027-1ac36d2b1a59 {
        fill: #c1a381;
        stroke: #6b4e2d;
      }

      .a4a24551-900c-4f03-90ad-f9300934d68e, .a752b93b-acdf-4730-829e-a36d9e6ee5ef, .aabcc8d3-a071-480a-a660-38f36ef01177, .fbad72ad-a7de-4c69-b027-1ac36d2b1a59 {
        stroke-width: 2px;
      }

      .f7291ad7-f57e-41b9-9434-d3429fca4d5e {
        fill: #d1b293;
      }

      .ac271acb-5e4c-4194-8322-f18bb71dcf6b {
        fill: #af8f72;
      }

      .a4a24551-900c-4f03-90ad-f9300934d68e {
        fill: #bab0a8;
        stroke: #51473f;
      }

      .b8d7a33a-0a57-4bfa-b3d9-da75054179e2 {
        fill: #8e847c;
      }

      .b561c0fd-5236-4ef8-9595-8d7dbffa70ab {
        fill: #cec4be;
      }

      .e228f85d-f98c-4b7c-9df3-4ed16f973d5a {
        fill: #5b2424;
      }

      .e228f85d-f98c-4b7c-9df3-4ed16f973d5a, .f3ace44d-5d33-4380-8991-ba738cd1a589 {
        stroke: #702828;
      }

      .ba5fe953-c953-4712-b068-54f08390e0c0 {
        fill: #edd9d6;
      }

      .a752b93b-acdf-4730-829e-a36d9e6ee5ef, .b123f4dc-dac4-45a1-881f-0d622f317d3f, .ba5fe953-c953-4712-b068-54f08390e0c0, .fa76fe16-80b2-489a-a170-0a1364bc273b {
        stroke: #2b3a16;
      }

      .aabcc8d3-a071-480a-a660-38f36ef01177 {
        fill: #cfc5bc;
        stroke: #6c4e2d;
      }

      .e742ac30-f910-44e4-9d01-9ad34accc935 {
        fill: #9d938a;
      }

      .b123f4dc-dac4-45a1-881f-0d622f317d3f {
        fill: #89817a;
      }

      .bb9bd623-b17d-4b84-8b77-6804b84c8231 {
        fill: #181411;
      }

      .fa76fe16-80b2-489a-a170-0a1364bc273b {
        fill: #7a6b67;
      }

      .e7f2fc93-0a86-441b-ae95-2f61008845d9, .f3ace44d-5d33-4380-8991-ba738cd1a589 {
        fill: #f7ebeb;
      }

      .af2882f5-a6ef-414f-ad9f-b40b5bd29527 {
        fill: #280d0d;
      }

      .a752b93b-acdf-4730-829e-a36d9e6ee5ef {
        fill: #c4a939;
      }

      .e108fc91-9ffc-4879-9f5e-7682a58a4e08 {
        fill: #e2c754;
      }

      .bf35190d-ab2d-46a5-8215-bc8b493e6137 {
        fill: #efda81;
      }
    </style>
  </defs>
  <g>
    <path class="f1444b90-4213-408b-b4d2-306b77fc3b92" d="M116.84,245.88c-8.21,0-10.58-4.27-11.26-6.82,0-.2-.1-.4-.13-.6a8.71,8.71,0,0,1-.73-2.91,9,9,0,0,1,4.16-8.2,18.54,18.54,0,0,0,2-3.71c-.06-1.94,0-4.2.08-6.78.14-4.9.33-11.37-.48-16a14.94,14.94,0,0,1-1.45-2.6c-.47,4.28-1.26,7.24-2.86,9.47-.88,1.24-1.16,2.85-1.61,5.83-.1.67-.2,1.37-.33,2.11a9.64,9.64,0,0,1,1,4.34q0,.36,0,.72a15.38,15.38,0,0,1-3,10.36,9.31,9.31,0,0,1-5.69,4.52l-9.6,2.55a9,9,0,0,1-10.84-6c-.15-.2-.29-.4-.42-.61a8.74,8.74,0,0,1-.48-8.49,24.07,24.07,0,0,1,6.49-8.25l1-8.73c-1-2.87-1.36-6.69-.94-11.4.11-5.51-2.8-18.86-5.79-29.19l-1.23-.08c-.38,0-.76-.05-1.16-.05s-1.08,0-1.62.08h-.2c-.76.05-1.54.11-2.38.11-7,0-11.49-4.62-11.49-11.77A25.5,25.5,0,0,1,61.57,141l-.15-.19c-.5,0-1,.06-1.51.06-5.74,0-10.67-2.36-13.47-6-3.18-1.25-6.64-4.13-8-10.61-.07-.32-.17-.66-.27-1a16.36,16.36,0,0,1-.57-8.62,14,14,0,0,1,1.75-4.11c0-.2-.09-.4-.13-.6-.59-2.59-1.56-6.84-4.12-14.93a34,34,0,0,1-10,1.55,28,28,0,0,1-11.91-2.55,9.16,9.16,0,0,1-2.38-14.94,79.87,79.87,0,0,1,17.54-13c-11.84-17-11.15-40.09-10.08-50.43a8.72,8.72,0,0,1,17.27-.58c0,.1,0,.2.05.3C37.46,28.65,42,39.82,48.7,48.07l.08,0c4.65-3.23,9-4.81,13.44-4.81a18.16,18.16,0,0,1,6.3,1.15,37.59,37.59,0,0,1,5.08,2.41l1.25.66C79.93,41.89,86.59,32,89.94,15.74a1.69,1.69,0,0,0,0-.24A8.66,8.66,0,0,1,98.5,8.71a8.92,8.92,0,0,1,2.63.4,8.19,8.19,0,0,1,6.1,8.05c.37,8.82-.14,22-4.7,34.4a22.13,22.13,0,0,1,2.29-.13,18.33,18.33,0,0,1,4.83.63c11.33,3,11.71,13.36,11.88,17.77l0,.79a53.27,53.27,0,0,0,10.12,2.07l.54.08a111.69,111.69,0,0,0,19.41,1.75c12.21,0,21.92-2.14,29.72-3.85,5.52-1.21,10.28-2.26,14.61-2.26a23.94,23.94,0,0,1,2.86.16,27.73,27.73,0,0,1,11.35,3.75,7.07,7.07,0,0,1,1.3.69A36.71,36.71,0,0,1,221,82.64c.35.49.69,1,1,1.49,7.52,10.81,16.43,31,17,66.32a8.62,8.62,0,0,1,.32,1.85c.14,2.76.45,5.84,1.65,7.71a22,22,0,0,0,1.73,2.16,22.77,22.77,0,0,1,5.07,8.12,20.46,20.46,0,0,1,.81,7.25A39.27,39.27,0,0,1,236,204.6a8,8,0,0,1-13.3-4.64c-2.1,5.66-3.79,11.5-5.5,17.56a8,8,0,0,1-.12,7.09,10.74,10.74,0,0,1-3.47,3.92c-2.05,7.16-7.65,11.83-15.52,12.44-.21,0-.41,0-.62,0h-2.34a9.29,9.29,0,0,1-7.78-4.19,8.37,8.37,0,0,1-1.72-2.1,8.48,8.48,0,0,1,0-8.44,78,78,0,0,1,7.1-10,8.42,8.42,0,0,1,.42-.92c5.9-11.14,11.82-30.42,5.8-36.44-.76-.76-1.51-1.51-2.23-2.25l-2.9,6.42a162.92,162.92,0,0,0-7.86,22.9,8,8,0,0,1,.33,7.91,10.7,10.7,0,0,1-3.49,3.91c-2.06,7.16-7.67,11.83-15.5,12.44-.21,0-.41,0-.62,0h-2.34a9.29,9.29,0,0,1-7.78-4.19,8.44,8.44,0,0,1-1.71-10.56,74.22,74.22,0,0,1,6-8.59,7.8,7.8,0,0,1,.7-1.81c5.9-11.14,11.83-30.42,5.8-36.43-1.18-1.18-2.35-2.38-3.53-3.6a43.35,43.35,0,0,1-14.89,3,31.86,31.86,0,0,1-5-.4,33.56,33.56,0,0,0-5.23-.39c-.57,0-1.14,0-1.73,0,0,.4-.09.8-.13,1.2-.31,3-.6,5.91-.67,8.72,0,1.31,0,2.62,0,3.93,0,5.25,0,11.15-2.19,16.94-.23,3.22-.82,12.06-.76,19v.2c0,1.13,0,2.14.08,3a11.42,11.42,0,0,1,1.93,3.08,9.38,9.38,0,0,1,.77,3.4,8.54,8.54,0,0,1-1,7.31,8.38,8.38,0,0,1-1.64,1.82c-.15.4-.31.81-.48,1.2a13.89,13.89,0,0,1-9.48,7.84A28.28,28.28,0,0,1,116.84,245.88Z"/>
    <path class="f0326df8-8a8a-4226-88ac-97752ca4b54a" d="M111.84,240.88c-8.21,0-10.58-4.27-11.26-6.82,0-.2-.1-.4-.13-.6a8.71,8.71,0,0,1-.73-2.91,9,9,0,0,1,4.16-8.2,18.54,18.54,0,0,0,2-3.71c-.06-1.94,0-4.2.08-6.78.14-4.9.33-11.37-.48-16a14.94,14.94,0,0,1-1.45-2.6c-.47,4.28-1.26,7.24-2.86,9.47-.88,1.24-1.16,2.85-1.61,5.83-.1.67-.2,1.37-.33,2.11a9.64,9.64,0,0,1,1,4.34q0,.36,0,.72a15.38,15.38,0,0,1-3,10.36,9.31,9.31,0,0,1-5.69,4.52l-9.6,2.55a9,9,0,0,1-10.84-6c-.15-.2-.29-.4-.42-.61a8.74,8.74,0,0,1-.48-8.49,24.07,24.07,0,0,1,6.49-8.25l1-8.73c-1-2.87-1.36-6.69-.94-11.4.11-5.51-2.8-18.86-5.79-29.19l-1.23-.08c-.38,0-.76-.05-1.16-.05s-1.08,0-1.62.08h-.2c-.76.05-1.54.11-2.38.11-7,0-11.49-4.62-11.49-11.77A25.5,25.5,0,0,1,56.57,136l-.15-.19c-.5,0-1,.06-1.51.06-5.74,0-10.67-2.36-13.47-6-3.18-1.25-6.64-4.13-8-10.61-.07-.32-.17-.66-.27-1a16.36,16.36,0,0,1-.57-8.62,14,14,0,0,1,1.75-4.11c0-.2-.09-.4-.13-.6-.59-2.59-1.56-6.84-4.12-14.93a34,34,0,0,1-10,1.55A28,28,0,0,1,8.16,89.05,9.16,9.16,0,0,1,5.78,74.11a79.87,79.87,0,0,1,17.54-13c-11.84-17-11.15-40.09-10.08-50.43a8.72,8.72,0,0,1,17.27-.58c0,.1,0,.2,0,.3C32.46,23.65,37,34.82,43.7,43.07l.08,0c4.65-3.23,9-4.81,13.44-4.81a18.16,18.16,0,0,1,6.3,1.15,37.59,37.59,0,0,1,5.08,2.41l1.25.66C74.93,36.89,81.59,27,84.94,10.74a1.69,1.69,0,0,0,0-.24A8.66,8.66,0,0,1,93.5,3.71a8.92,8.92,0,0,1,2.63.4,8.19,8.19,0,0,1,6.1,8.05c.37,8.82-.14,22-4.7,34.4a22.13,22.13,0,0,1,2.29-.13,18.33,18.33,0,0,1,4.83.63c11.33,3,11.71,13.36,11.88,17.77l0,.79a53.27,53.27,0,0,0,10.12,2.07l.54.08a111.69,111.69,0,0,0,19.41,1.75c12.21,0,21.92-2.14,29.72-3.85,5.52-1.21,10.28-2.26,14.61-2.26a23.94,23.94,0,0,1,2.86.16,27.73,27.73,0,0,1,11.35,3.75,7.07,7.07,0,0,1,1.3.69A36.71,36.71,0,0,1,216,77.64c.35.49.69,1,1,1.49,7.52,10.81,16.43,31,17,66.32a8.62,8.62,0,0,1,.32,1.85c.14,2.76.45,5.84,1.65,7.71a22,22,0,0,0,1.73,2.16,22.77,22.77,0,0,1,5.07,8.12,20.46,20.46,0,0,1,.81,7.25A39.27,39.27,0,0,1,231,199.6a8,8,0,0,1-13.3-4.64c-2.1,5.66-3.79,11.5-5.5,17.56a8,8,0,0,1-.12,7.09,10.74,10.74,0,0,1-3.47,3.92c-2.05,7.16-7.65,11.83-15.52,12.44-.21,0-.41,0-.62,0h-2.34a9.29,9.29,0,0,1-7.78-4.19,8.37,8.37,0,0,1-1.72-2.1,8.48,8.48,0,0,1,0-8.44,78,78,0,0,1,7.1-10,8.42,8.42,0,0,1,.42-.92c5.9-11.14,11.82-30.42,5.8-36.44-.76-.76-1.51-1.51-2.23-2.25l-2.9,6.42a162.92,162.92,0,0,0-7.86,22.9,8,8,0,0,1,.33,7.91,10.7,10.7,0,0,1-3.49,3.91c-2.06,7.16-7.67,11.83-15.5,12.44-.21,0-.41,0-.62,0h-2.34a9.29,9.29,0,0,1-7.78-4.19,8.44,8.44,0,0,1-1.71-10.56,74.22,74.22,0,0,1,6-8.59,7.8,7.8,0,0,1,.7-1.81c5.9-11.14,11.83-30.42,5.8-36.43-1.18-1.18-2.35-2.38-3.53-3.6a43.35,43.35,0,0,1-14.89,3,31.86,31.86,0,0,1-5-.4,33.56,33.56,0,0,0-5.23-.39c-.57,0-1.14,0-1.73,0,0,.4-.09.8-.13,1.2-.31,3-.6,5.91-.67,8.72,0,1.31,0,2.62,0,3.93,0,5.25,0,11.15-2.19,16.94-.23,3.22-.82,12.06-.76,19v.2c0,1.13,0,2.14.08,3a11.42,11.42,0,0,1,1.93,3.08,9.38,9.38,0,0,1,.77,3.4,8.54,8.54,0,0,1-1,7.31,8.38,8.38,0,0,1-1.64,1.82c-.15.4-.31.81-.48,1.2a13.89,13.89,0,0,1-9.48,7.84A28.28,28.28,0,0,1,111.84,240.88Z"/>
    <g>
      <path class="b8275d04-dbe9-46cd-b1ca-23f329262a49" d="M89.48,213.67c-.11,0,0-.19.11-.22a2.3,2.3,0,0,1,2.22.45,1.47,1.47,0,0,1,0,2.1,1.87,1.87,0,0,1-1.11.32,2.53,2.53,0,0,1-2-.69,1.36,1.36,0,0,1,.08-1.95"/>
      <g>
        <path class="fbad72ad-a7de-4c69-b027-1ac36d2b1a59" d="M74.44,64.55l-.65.43C49.9,80.58,70.93,52.5,70.93,52.5c.36-.66,15.9-11.38,21.85-40.14V12.3a.73.73,0,0,1,1.44.11C94.74,24.33,93.65,51.8,74.44,64.55Z"/>
        <path class="f7291ad7-f57e-41b9-9434-d3429fca4d5e" d="M74.34,64c-.22.15-.34.83-.55,1-.49-.92-1-1.93-1.44-3-.19-.42,23.4-21.06,21.4-49.87,0,0,0,.52,0,.5.17-.84.44-1,.44-.16C94.32,24.18,93.55,51.26,74.34,64Z"/>
      </g>
      <g>
        <path class="fbad72ad-a7de-4c69-b027-1ac36d2b1a59" d="M37.69,64.76l.62.47c22.75,17,3.58-12.29,3.58-12.29-.31-.68-15.08-12.31-19.25-41.38v-.05a.72.72,0,0,0-1.43,0C20,23.4,19.41,50.89,37.69,64.76Z"/>
        <path class="ac271acb-5e4c-4194-8322-f18bb71dcf6b" d="M21.2,11.53c-.79,11.74-1.66,38.82,16.62,52.7.21.16.29.85.49,1,.54-.89,1.08-1.87,1.61-3,.21-.41-21.93-22.42-18.23-51.06"/>
      </g>
      <path class="a4a24551-900c-4f03-90ad-f9300934d68e" d="M203.84,76.28c1,.76,28.13,21.35,21.1,96.66l-.94-5.47s3.92-61.2-20.16-85.85Z"/>
      <g>
        <g>
          <path class="b8275d04-dbe9-46cd-b1ca-23f329262a49" d="M170.53,204.24s1.88,12.22-8.87,13.06h-2.34a1.18,1.18,0,0,1-1.09-1.77l.49-.74-1.35.44a.48.48,0,0,1-.62-.66,73.09,73.09,0,0,1,6.84-9.49c5.66-6.86,10.57.17,10.57.17S172.52,208.43,170.53,204.24Z"/>
          <path class="b8275d04-dbe9-46cd-b1ca-23f329262a49" d="M158.72,214.79c.91-2.6,3.26-5.44,5.26-7.45"/>
        </g>
        <path class="a4a24551-900c-4f03-90ad-f9300934d68e" d="M194.87,96.37a32.2,32.2,0,0,1-3.75,7.66c-7.78,12.61-11.54,26.8-12.66,41.26a4.46,4.46,0,0,0,.07,1.46,4.55,4.55,0,0,0,.85,1.47l4.16,5.48c1.86,2.46,3.81,5.21,3.43,8.19a11.67,11.67,0,0,1-1.1,3.25q-2.19,4.85-4.36,9.68c-4.51,10-7.2,20.32-10.17,30.78a8.52,8.52,0,0,1-6.84,0l-.76-.34c-.08,0-.17-.09-.15-.16s.07,0,.11,0l-.11-1.15s17.47-32.81,4.39-45.86a264.45,264.45,0,0,1-18.93-21.11c-2.38-2.94-4.18-5.23-5.41-6.67-3.45-4-13.44-2.34-15.8-1.17l61.34-47.48c2.14,1.92,4.34,3.92,5.46,6.48A12.11,12.11,0,0,1,194.87,96.37Z"/>
        <path class="b8d7a33a-0a57-4bfa-b3d9-da75054179e2" d="M174.75,182.57c-2.7,7.89-4.73,16.47-9.62,23l-.77-.34c-.08,0-.16-.09-.14-.16s.07,0,.1,0l-.11-1.15s17.47-32.81,4.4-45.86a263,263,0,0,1-18.94-21.11c1.37-.47,2.79-.28,4.25-.47,15.44-2,40.82.13,16.51,16.3-3.9,2.59,6.37,7.2,7.46,11.89C179.28,170.65,176.74,176.76,174.75,182.57Z"/>
      </g>
      <g>
        <path class="b8275d04-dbe9-46cd-b1ca-23f329262a49" d="M78.27,222.63a.8.8,0,0,1-.93-1.12,15,15,0,0,1,8-7.63l3.55-1.36-.22,7.36Z"/>
        <path class="b8275d04-dbe9-46cd-b1ca-23f329262a49" d="M79.82,225.45a.93.93,0,0,1-1.07-1.32,14.92,14.92,0,0,1,7.85-7.36l2.24-.86c.62-.23,1.59-3.17,1.57-2.51l1.84,3.13a7.41,7.41,0,0,1-1.88,5.23c-.16.16-.1.9-1.11,1.19Z"/>
      </g>
      <g>
        <path class="b8275d04-dbe9-46cd-b1ca-23f329262a49" d="M113.43,221.3s-2.37,6.14-5.07,7.69,3.14,5.06,10.79-.14l.85-7.56s3.76,2.53,2.83.31-5.19-4-5.19-4Z"/>
        <path class="b8275d04-dbe9-46cd-b1ca-23f329262a49" d="M113.84,223.7s-2.38,6.14-5.08,7.69c-1.91,1.09,2.38,2.2,7.76.91a6,6,0,0,0,3.89-8.61h0s3.76,2.52,2.82.31-5.19-4-5.19-4Z"/>
      </g>
      <path class="a4a24551-900c-4f03-90ad-f9300934d68e" d="M99.06,162.38c-3.3,7.14-1.42,31.59-4.39,35.72s-2.59,8.59-3.9,14.16a5.38,5.38,0,0,1-4.68,4.47,1.7,1.7,0,0,1-1.46-.46,1.77,1.77,0,0,1-.53-1.48l1.66-14.49a1.85,1.85,0,0,0-.25-1.17c-1.42-2.18-.91-8.28-.84-9V190c.28-9.76-6.2-33.12-8.19-38.31-.35-.91,3.24-.23,5-.1a4.33,4.33,0,0,0,.71,0C88.26,150.81,101.76,156.57,99.06,162.38Z"/>
      <path class="b8d7a33a-0a57-4bfa-b3d9-da75054179e2" d="M89.32,200.55a29.43,29.43,0,0,1-1.06,5.15l-2.82,10.57a1.75,1.75,0,0,1-.54-1.48l1.66-14.49a1.73,1.73,0,0,0-.25-1.17c-1.42-2.18-.91-8.28-.84-9V190c.28-9.76-6.19-33.12-8.19-38.31-.35-.91,3.24-.23,5-.1,0,.27.1.52.15.73,1.65,7,3,14,4.3,21.07.71,3.9,1.39,7.8,2.07,11.71a40.59,40.59,0,0,1,.74,6.12c0,1.63-.13,3.27-.15,4.91C89.37,197.61,89.45,199.08,89.32,200.55Z"/>
      <path class="a4a24551-900c-4f03-90ad-f9300934d68e" d="M207.76,118.06c-.64,16.32-4.31,31-15.88,28.27-22.79-5.43-35,11.21-51.68,8.53s-34.72,6.36-34.72,6.36c-28.42,10.05-40.15-23.43-40.33-28.79s-5.26-24.26-5.26-24.26c-2.3-6.28.33-12.69,3.91-17.83.81-1.17,1.68-2.27,2.54-3.3a54.37,54.37,0,0,1,7.53-7.32c6.18-17.74,20-27.28,28.71-24.94,6.55,1.77,5.71,7.89,6,12.31a6.66,6.66,0,0,0,1,3.59c2.72,3.52,16.17,5,16.17,5,35.6,6.3,56-5.47,67-4.13s12.53,7.86,12.53,7.86S208.48,99.74,207.76,118.06Z"/>
      <path class="b8d7a33a-0a57-4bfa-b3d9-da75054179e2" d="M108.3,67.75a9.79,9.79,0,0,0-1.64-6c-1-1.66-3.44-1.79-5.38-1.89a12.31,12.31,0,0,0-5.62,1.32c-6.74,3-12,9-15.08,15.83-1.59,3.5-2.81,7.43-5.78,9.84a18.57,18.57,0,0,1-5.74,2.8c-1.75.61-3.5,1.23-5.26,1.81.79-1.17,1.65-2.27,2.5-3.3a53.5,53.5,0,0,1,7.4-7.32c6.06-17.74,20.17-27.63,28.74-25.29,6.44,1.77,5.52,7.8,5.86,12.22Z"/>
      <path class="b8d7a33a-0a57-4bfa-b3d9-da75054179e2" d="M208.08,117.6c-.64,16.32-4.31,31-15.89,28.27-22.79-5.43-35,11.21-51.68,8.53s-34.71,6.36-34.71,6.36C77.38,170.81,65.65,137.33,65.47,132s-5.27-24.27-5.27-24.27C57.38,100,62,92.1,66.65,86.58c1.8,5,1.58,11.77,2.84,16.37,2.16,7.86,5.71,15.26,8.09,23,2.2,7.21,3.72,15.39,9.74,19.92,5.09,3.82,12.09,3.89,18.31,2.57s12.15-3.87,18.44-4.76c9.9-1.41,20.12,1.32,29.92-.63,7.48-1.48,14.39-5.64,22-6,4.42-.22,8.9.86,13.24,0,5.7-1.16,10.24-5.55,13.51-10.37C204.71,123.77,206.35,120.65,208.08,117.6Z"/>
      <g>
        <g>
          <path class="b8275d04-dbe9-46cd-b1ca-23f329262a49" d="M201.32,214.94s1.88,12.22-8.87,13.06h-2.34a1.18,1.18,0,0,1-1.09-1.77l.49-.74-1.35.44a.48.48,0,0,1-.62-.66,73.09,73.09,0,0,1,6.84-9.49C200,208.92,205,216,205,216S203.31,219.13,201.32,214.94Z"/>
          <path class="b8275d04-dbe9-46cd-b1ca-23f329262a49" d="M189.51,225.49c.91-2.6,3.26-5.44,5.26-7.45"/>
        </g>
        <path class="a4a24551-900c-4f03-90ad-f9300934d68e" d="M202.11,74.71a29.45,29.45,0,0,1,7.41,7.58c5.85,8.19,10.43,20.33,10,30.59-.56,14.58-8.38,28.18-9.5,42.64a4.14,4.14,0,0,0,.06,1.45,4.66,4.66,0,0,0,.86,1.47l4.15,5.49c1.87,2.45,3.82,5.21,3.43,8.19a11.64,11.64,0,0,1-1.09,3.25l-4,8.89-.36.78c-4.5,10-7.2,20.32-10.16,30.79a8.85,8.85,0,0,1-7.61-.36c-.08,0-.16-.09-.14-.17s.07,0,.11,0l-.11-1.14s17.47-32.81,4.39-45.86-20.89-23.77-24.35-27.78-13.43-2.35-15.8-1.18"/>
        <path class="b561c0fd-5236-4ef8-9595-8d7dbffa70ab" d="M209.28,155.52a4.14,4.14,0,0,0,.06,1.45,4.47,4.47,0,0,0,.86,1.47l4.15,5.49c1.86,2.45,3.82,5.21,3.43,8.19a11.64,11.64,0,0,1-1.09,3.25c-1.34,3-2.68,5.92-4,8.89a77.09,77.09,0,0,0,1.51-7.89c.58-5.8-1.58-10.46-7.1-19.16s2.85-21.76,7.1-45.85a42.39,42.39,0,0,0-5.45-29.07c5.85,8.19,10.43,20.33,10,30.59C218.22,127.46,210.4,141.06,209.28,155.52Z"/>
      </g>
      <path class="a4a24551-900c-4f03-90ad-f9300934d68e" d="M127.82,132.44q-2.32,15.1-3.93,30.32c-.33,3.12-.64,6.24-.72,9.37-.17,6.48.58,13.28-2.1,19.19,0,0-1,12-.88,21.07,0,0,0,.05,0,.07,0,1.94.09,3.73.22,5.24v0h0a15.09,15.09,0,0,0,.66,3.65s-5,3.21-6.65.45,1.18-20.1-1.7-30.11c0,0-1.91.41-3.2-10.06s-9.38-40.77-9.38-40.77"/>
      <path class="b561c0fd-5236-4ef8-9595-8d7dbffa70ab" d="M119.19,212.25c-.3-6.24-.89-16-1.69-18.37-1.21-3.54,3-8.88,2.67-19.9-.29-8.59,5.26-31.33,6-41.06l.6-.62q-2.31,15.12-3.93,30.33c-.33,3.11-.64,6.23-.72,9.36-.17,6.49.58,13.28-2.09,19.2C120.08,191.19,119.11,203.18,119.19,212.25Z"/>
      <path class="b8275d04-dbe9-46cd-b1ca-23f329262a49" d="M225.71,150.94l.52-1.35c-.59,3.46-2.52,6.52-3.85,9.77-2.09,5.13-2.62,11.12-.27,16.14.82,1.76,2,3.35,2.81,5.09a17,17,0,0,1,.66,13.11,31.4,31.4,0,0,0,10.08-21.52,12.57,12.57,0,0,0-.44-4.45c-1.05-3.28-4.05-5.5-5.91-8.4-2.19-3.4-2.7-7.58-2.91-11.62"/>
      <path class="b8d7a33a-0a57-4bfa-b3d9-da75054179e2" d="M72.35,123.06s5-10.87,4.91-42.08l2.95-6.13s5.37,45.61-4.84,51.6h0l-4.54-1.84"/>
      <ellipse class="e228f85d-f98c-4b7c-9df3-4ed16f973d5a" cx="62.84" cy="114.4" rx="2.05" ry="3.04"/>
      <path class="ba5fe953-c953-4712-b068-54f08390e0c0" d="M84.11,99.05c0,19.73-6.6,35.73-14.73,35.73s-14.73-16-14.73-35.73a71.27,71.27,0,0,1,3.61-23.44,92.78,92.78,0,0,0-1.62,20.56c.51,19.73,6.22,35.62,12.76,35.5s11.42-16.21,10.91-35.94c-.35-13.34-3.07-24.92-6.82-31C79.62,69.06,84.11,82.78,84.11,99.05Z"/>
      <g>
        <path class="aabcc8d3-a071-480a-a660-38f36ef01177" d="M75.37,65.23S85.08,63,102.05,80.3a1.36,1.36,0,0,1-.37,2.17c-3.54,1.71-12.85,4.4-25.56-5.66l-.75-12.43"/>
        <path class="e742ac30-f910-44e4-9d01-9ad34accc935" d="M100.16,82.13a.61.61,0,0,0,.1-1.2,23.64,23.64,0,0,1-11.68-6.67c-4.73-5.21-11.61-6.62-14.36-7a.61.61,0,0,0-.59.93C75.87,71.85,84.43,83.72,100.16,82.13Z"/>
      </g>
      <g>
        <path class="aabcc8d3-a071-480a-a660-38f36ef01177" d="M40.31,64.69s-10.58-2.21-29,15.23a1.16,1.16,0,0,0,.29,1.89C15.15,83.5,25.2,86.52,39,76.6a1.18,1.18,0,0,0,.49-.87l.78-11.88"/>
        <path class="e742ac30-f910-44e4-9d01-9ad34accc935" d="M13.24,81.52a.49.49,0,0,1-.05-1c3.44-.72,9.1-2.51,13.35-6.82,6.52-6.64,16.82-7.11,16.82-7.11S33.85,83.9,13.24,81.52Z"/>
      </g>
      <path class="a4a24551-900c-4f03-90ad-f9300934d68e" d="M77,85.82C69.69,109.24,64,111.23,64,111.29s-2.79.08-6.31-.05h0c-5.47-.2-12.68-.86-13.9-2.84-2-3.27-.88-4.64-6.52-22.19C30,63.59,39.81,63.37,40.71,57.59c1-6.46.5-5.82,0-6.35,2.54.76,5.87-.42,7.63-1.65,6.31-4.38,10.14-3.54,12.45-2.71,3.59,1.3,7.31,4.36,10.65,4.36.87,0,1.3,1.43,3.93,7.38A36,36,0,0,1,77,85.82Z"/>
      <path class="b8d7a33a-0a57-4bfa-b3d9-da75054179e2" d="M58,112.36c-5.46-.2-12.68-.86-13.9-2.85-2-3.27,0-5.9-6-22.93-7.76-21.84,1.72-22.2,2.62-28,1-6.46,1.41-6.26.9-6.78,3,.5,6.16-1.3,7.92-2.23.17,1.24.95,6,.91,7.53-.17,6.45-7.7,8.17-4.93,13.54.94,1.83,3.51,6.1,4.18,10,.77,4.51-4.75,13.26-3.32,17.6,1.77,5.32,4.55,11,9.81,12.93A3.46,3.46,0,0,1,58,112.36Z"/>
      <ellipse class="b123f4dc-dac4-45a1-881f-0d622f317d3f" cx="54.91" cy="122.89" rx="7.93" ry="5.02"/>
      <ellipse class="bb9bd623-b17d-4b84-8b77-6804b84c8231" cx="54.91" cy="119.41" rx="7.93" ry="5.02"/>
      <path class="fa76fe16-80b2-489a-a170-0a1364bc273b" d="M53,110.67c3,.3,5.71-1.54,8.49-2.65,1.18-.47,2.63-.77,3.62,0a3.29,3.29,0,0,1,.89,1.33c1.47,3.43.85,7.36.21,11a3.25,3.25,0,0,1-1,2.15c-1.07.79-2.54,0-3.74-.57a11.34,11.34,0,0,0-6-1c-3.09.31-6,1.89-9.09,1.89-3.39,0-4.5-2.28-5.12-5.19-.38-1.82-1.37-4.13-.9-6C42,105,49.16,110.29,53,110.67Z"/>
      <ellipse class="bb9bd623-b17d-4b84-8b77-6804b84c8231" cx="46.28" cy="114.91" rx="2.17" ry="3.22" transform="translate(-21.68 11.34) rotate(-11.34)"/>
      <ellipse class="bb9bd623-b17d-4b84-8b77-6804b84c8231" cx="62.16" cy="114.67" rx="3.22" ry="2.35" transform="translate(-61.58 155.93) rotate(-79.98)"/>
      <g>
        <path class="f3ace44d-5d33-4380-8991-ba738cd1a589" d="M75.81,79.28c-.66,4.37-3.12,6.1-5.66,6.1-3.12,0-5.26.48-5.71-4.23-.6-6.22,3.5-9.42,6.62-9.42S76.39,75.47,75.81,79.28Z"/>
        <ellipse class="af2882f5-a6ef-414f-ad9f-b40b5bd29527" cx="70.54" cy="79" rx="3.53" ry="4.36"/>
        <ellipse class="e7f2fc93-0a86-441b-ae95-2f61008845d9" cx="71.44" cy="75.38" rx="0.9" ry="1.12"/>
      </g>
      <g>
        <path class="f3ace44d-5d33-4380-8991-ba738cd1a589" d="M36.34,79.07c.66,4.36,3.12,6.1,5.66,6.1,3.12,0,5.27.47,5.72-4.24.59-6.22-3.51-9.42-6.63-9.42S35.76,75.25,36.34,79.07Z"/>
        <ellipse class="af2882f5-a6ef-414f-ad9f-b40b5bd29527" cx="41.61" cy="78.78" rx="3.53" ry="4.36"/>
        <ellipse class="e7f2fc93-0a86-441b-ae95-2f61008845d9" cx="40.71" cy="75.16" rx="0.9" ry="1.12"/>
      </g>
      <g>
        <path class="a752b93b-acdf-4730-829e-a36d9e6ee5ef" d="M76.19,148.78c0,2.51-.86,3.4-2.25,3.67a16.88,16.88,0,0,1-3.81,0c-.52,0-1.07-.06-1.63-.06-.76,0-1.48.05-2.17.1-3.19.21-5.52.46-5.52-3.67,0-5,3.44-12.29,7.69-12.29a4,4,0,0,1,1.63.36C73.59,138.37,76.19,144.41,76.19,148.78Z"/>
        <path class="e108fc91-9ffc-4879-9f5e-7682a58a4e08" d="M75.88,148.68c0,2.42-1.17,3.12-2.49,3.38-.65-.05-1.33-.09-2-.09-.53,0-1,0-1.54.05a14.44,14.44,0,0,1-3.61-.18c-1.32-.26-2.11-.9-2.11-3.32,0-4.21,1.71-10.21,5-11.67C73.44,138.07,75.88,144.47,75.88,148.68Z"/>
        <ellipse class="bf35190d-ab2d-46a5-8215-bc8b493e6137" cx="73.2" cy="144.37" rx="1.72" ry="3.69" transform="translate(-26.95 17.21) rotate(-11.34)"/>
        <ellipse class="bb9bd623-b17d-4b84-8b77-6804b84c8231" cx="68.62" cy="135.54" rx="2.32" ry="1.31"/>
        <ellipse class="bb9bd623-b17d-4b84-8b77-6804b84c8231" cx="68.62" cy="133.07" rx="1.31" ry="2.32"/>
      </g>
    </g>
  </g>
</svg>
