<svg id="b468d281-5c52-46e3-a135-6a840fe7f656" data-name="Layer 1" xmlns="http://www.w3.org/2000/svg" width="75.58" height="242.95" viewBox="0 0 75.58 242.95">
  <defs>
    <style>
      .a19ad082-fbab-4263-964a-8914712e1b47 {
        opacity: 0.5;
      }

      .beaf170d-4494-4cb7-94c8-ecc50be3dff8 {
        fill: #fff;
      }

      .aedab4b7-0f5a-4fbd-aa52-0da234ed5179, .b10e93cc-2149-4cfa-870a-6642600556de {
        fill: #febf32;
      }

      .b10e93cc-2149-4cfa-870a-6642600556de {
        stroke: #7c4100;
        stroke-miterlimit: 10;
        stroke-width: 2px;
      }

      .addcee8b-a73c-4910-a848-8eff353260dd {
        fill: #ba7648;
      }

      .aae9f873-9f77-4994-88ac-01fa46b9ae67 {
        fill: #d0a384;
      }

      .bd39f054-48a2-4ec1-9188-837d38122e3a {
        fill: #d1a385;
      }

      .ae7988fb-727d-4af7-a6cf-ba7d1166ce39 {
        fill: #e7d0c1;
      }

      .ec64f51c-2e12-48ce-8290-db4e0646c7b5 {
        fill: #434444;
      }

      .b1392486-f863-481a-83fa-8e58472fb808 {
        fill: #a2480a;
      }

      .a70bd6f5-90f6-483d-b464-03be3ac57558 {
        fill: #fcfcfc;
      }

      .e3628865-42cc-4bf0-aee2-ebbac5e78605 {
        fill: #f22f08;
      }

      .a529a17c-13c4-479e-8620-7e1c1adc4a14 {
        fill: #cbcbcb;
      }

      .f85b3989-d52e-4abb-8b11-29e94952751d {
        fill: #f29555;
      }

      .b9081a8b-1646-43df-9196-8b369997c340 {
        fill: #d12205;
      }

      .aa2985e7-7205-44a1-81f2-d0e387ecef65 {
        fill: #00aff2;
      }

      .e6fabd30-872f-4645-83d9-bf1b5a3cbcd1 {
        fill: #ab5b23;
      }

      .a323cfe2-13c4-46f9-9b93-bd09cda90055 {
        fill: #ad1804;
      }

      .a55cb74e-7015-4617-b888-eacc556f7490 {
        fill: #833a08;
      }

      .f5c9aded-a6cf-44b3-9e77-3099d356399a {
        fill: #b7b7b7;
      }

      .aa36ef70-b18b-4df9-a740-244abb07fdfe {
        fill: #d5d5d5;
      }

      .af6347a4-9c35-4fc2-95a4-9aca357c7b52 {
        fill: #3d3e3e;
      }

      .be685290-830d-4b8b-97bb-c5bb1ed78558 {
        fill: #696969;
      }

      .eb57fc06-a465-4dce-ba69-1f276da488c4 {
        fill: #ac5b23;
      }

      .a307036a-4f72-4702-b560-3c9f052a308b {
        fill: #b2b2b2;
      }

      .f12b3524-1832-43e5-bcd7-44a8069cb178 {
        fill: #f19349;
      }

      .e7b7a8f1-f47c-43fa-b6b9-6b87c578e0cc {
        fill: #d3d3d3;
      }

      .a17f506a-e57c-4764-9a8b-ed0971e39bab {
        fill: #9b5514;
      }

      .a37235f1-509f-4cd3-98ef-4ff924f06579 {
        fill: #ffa300;
      }

      .b52571ac-eb01-42c7-b3d4-b01072aadd81 {
        fill: #b0702c;
      }

      .bebadcc7-d6c3-4438-a7c5-3b84d91ebefd {
        fill: #a76623;
      }

      .f4b884c5-d7af-43d6-a286-706e2b73f206 {
        fill: #084251;
      }

      .bd1601f3-37a3-458e-b6cd-9108633a6661 {
        fill: #74948d;
      }

      .f79fb168-86fe-46a1-ba94-502c25dfe678 {
        fill: #91905f;
      }

      .abeb667e-ae56-4100-8b63-6459df3467bf {
        fill: #4ba8de;
      }

      .a40333ef-ff61-4029-81a9-372a7411eae1 {
        fill: #8bb9be;
      }

      .b51d9370-faff-41d9-a83e-3e0d815127bf {
        fill: #7ca19f;
      }
    </style>
  </defs>
  <g>
    <path class="a19ad082-fbab-4263-964a-8914712e1b47" d="M73.63,184.92a71,71,0,0,0-1.83-10.51,50.56,50.56,0,0,0-4.43-11.62,29.49,29.49,0,0,0-6.79-8.69c-.46-.39-.94-.77-1.42-1.11V43.11a9.5,9.5,0,0,0,.54-1.86,8.68,8.68,0,0,0,.13-1.83A8.48,8.48,0,0,0,60.19,37a8.68,8.68,0,0,0-.53-3.06l2.09-11.43c0-.06,0-.13.08-.19a8,8,0,0,0-2.62-9.72,8.93,8.93,0,0,0-2.63-1.35A23.37,23.37,0,0,0,48.9,10h-.7a8.62,8.62,0,0,0-1.83.2l-.14,0a9.45,9.45,0,0,0-7.58,5.19,11.26,11.26,0,0,0-1.06,3.4,8.14,8.14,0,0,0-.19,2V22a8.47,8.47,0,0,0,.06,1.13,8.73,8.73,0,0,0,.14,1.4c.08.83.22,1.55.32,2.14l0,.17c.19,1,.4,1.95.62,2.89.31,1.33.65,2.59,1,3.81l.08.31a10.59,10.59,0,0,0-.36,1.62,9.11,9.11,0,0,0,0,2c0,.23,0,.47,0,.71a8.64,8.64,0,0,0,1.43,4.78V149.85a17.7,17.7,0,0,0-6.21-2.34,8.85,8.85,0,0,0-1.93-.22H31.11a8.19,8.19,0,0,0-2,.24c-.38.06-.82.14-1.3.26a18.54,18.54,0,0,0-8.36,4.7,21.57,21.57,0,0,0-1.6,1.66A29.11,29.11,0,0,0,15.66,157a37.45,37.45,0,0,0-3.22,5.66,53.13,53.13,0,0,0-2,5c-.28.79-.53,1.6-.77,2.41l-.16.5c-.4,1.33-.71,2.6-1,3.9-.21.91-.36,1.77-.5,2.53l-.16.89c-.15.85-.31,1.71-.44,2.57-.09.6-.15,1.21-.21,1.81a7.46,7.46,0,0,0-.14,1c0,.21,0,.42-.07.65s-.05.42-.06.65,0,.49-.06.74-.05.52-.06.8a6.58,6.58,0,0,0-.06.9,8.44,8.44,0,0,0,0,1,8.08,8.08,0,0,0-.06,1.48,7,7,0,0,0-.06.92v4.57A8.77,8.77,0,0,0,6.65,196a87.13,87.13,0,0,0,1,10.09,69.69,69.69,0,0,0,2.57,10.71,44.35,44.35,0,0,0,5.27,11.08,24.68,24.68,0,0,0,7,7.11,16.91,16.91,0,0,0,9.24,2.88h.12a16.93,16.93,0,0,0,9.25-2.81l.82-.55A17.05,17.05,0,0,0,48.4,236h.4a17.34,17.34,0,0,0,9.65-3,25.42,25.42,0,0,0,7.38-7.68,46,46,0,0,0,5.52-12.56A71.77,71.77,0,0,0,74,195.17,81.21,81.21,0,0,0,73.63,184.92Z"/>
    <path class="beaf170d-4494-4cb7-94c8-ecc50be3dff8" d="M68.63,179.92a71,71,0,0,0-1.83-10.51,50.56,50.56,0,0,0-4.43-11.62,29.49,29.49,0,0,0-6.79-8.69c-.46-.39-.94-.77-1.42-1.11V38.11a9.5,9.5,0,0,0,.54-1.86,8.68,8.68,0,0,0,.13-1.83A8.48,8.48,0,0,0,55.19,32a8.68,8.68,0,0,0-.53-3.06l2.09-11.43c0-.06,0-.13.08-.19a8,8,0,0,0-2.62-9.72A8.93,8.93,0,0,0,51.58,6.2,23.37,23.37,0,0,0,43.9,5h-.7a8.62,8.62,0,0,0-1.83.2l-.14,0a9.45,9.45,0,0,0-7.58,5.19,11.26,11.26,0,0,0-1.06,3.4,8.14,8.14,0,0,0-.19,2V17a8.47,8.47,0,0,0,.06,1.13,8.73,8.73,0,0,0,.14,1.4c.08.83.22,1.55.32,2.14l0,.17c.19,1,.4,1.95.62,2.89.31,1.33.65,2.59,1,3.81l.08.31a10.59,10.59,0,0,0-.36,1.62,9.11,9.11,0,0,0,0,2c0,.23,0,.47,0,.71a8.64,8.64,0,0,0,1.43,4.78V144.85a17.7,17.7,0,0,0-6.21-2.34,8.85,8.85,0,0,0-1.93-.22H26.11a8.19,8.19,0,0,0-2,.24c-.38.06-.82.14-1.3.26a18.54,18.54,0,0,0-8.36,4.7,21.57,21.57,0,0,0-1.6,1.66A29.11,29.11,0,0,0,10.66,152a37.45,37.45,0,0,0-3.22,5.66,53.13,53.13,0,0,0-2,5c-.28.79-.53,1.6-.77,2.41l-.16.5c-.4,1.33-.71,2.6-1,3.9-.21.91-.36,1.77-.5,2.53l-.16.89c-.15.85-.31,1.71-.44,2.57-.09.6-.15,1.21-.21,1.81a7.46,7.46,0,0,0-.14,1c0,.21,0,.42-.07.65s-.05.42-.06.65,0,.49-.06.74-.05.52-.06.8a6.58,6.58,0,0,0-.06.9,8.44,8.44,0,0,0-.05,1,8.08,8.08,0,0,0-.06,1.48,7,7,0,0,0-.06.92v4.57A8.77,8.77,0,0,0,1.65,191a87.13,87.13,0,0,0,1,10.09A69.69,69.69,0,0,0,5.2,211.84a44.35,44.35,0,0,0,5.27,11.08,24.68,24.68,0,0,0,7,7.11,16.91,16.91,0,0,0,9.24,2.88h.12a16.93,16.93,0,0,0,9.25-2.81l.82-.55A17.05,17.05,0,0,0,43.4,231h.4a17.34,17.34,0,0,0,9.65-3,25.42,25.42,0,0,0,7.38-7.68,46,46,0,0,0,5.52-12.56A71.77,71.77,0,0,0,69,190.17,81.21,81.21,0,0,0,68.63,179.92Z"/>
    <g>
      <path class="b10e93cc-2149-4cfa-870a-6642600556de" d="M60.67,180.72a63.74,63.74,0,0,0-1.62-9.32,42.9,42.9,0,0,0-3.71-9.81,21.88,21.88,0,0,0-5-6.4,11.05,11.05,0,0,0-4.23-2.33V35.9a1,1,0,0,0,0-.17.26.26,0,0,1,.2-.31.78.78,0,0,0,.21-1.32c-.06-.05-.17-.05-.17-.16a.79.79,0,0,0,.34-1.1c-.08-.15,0-.18.08-.26a.77.77,0,0,0,0-1.34,1.52,1.52,0,0,0-.33-.18c-.25-.09-.3-.24-.25-.5.3-1.58.58-3.16.87-4.74q1-5.71,2.08-11.42c0-.22.06-.41.38-.35a1.62,1.62,0,0,0-.35-.21,18,18,0,0,0-3-.69,20,20,0,0,0-2.79-.1c-.13,0-.28-.05-.4,0-.35,0-.69.1-1,.13a1.41,1.41,0,0,0-1.19.84,4,4,0,0,0-.36,1.44c0,.14,0,.28,0,.42v.94c.06.17,0,.35,0,.52s0,.23,0,.35,0,.24,0,.34,0,.43.07.64a16.25,16.25,0,0,0,.27,1.7c.15.85.34,1.69.54,2.53.29,1.28.64,2.54,1,3.81.24.87.53,1.73.8,2.6,0,.07.06.11-.06.16a.76.76,0,0,0-.43,1.15c0,.09,0,.15-.06.2a.72.72,0,0,0-.4.66.9.9,0,0,0,.41.81.8.8,0,0,0-.41.8.74.74,0,0,0,.44.66l1,.56a.4.4,0,0,1,0,.15.4.4,0,0,0,0-.15c0,.16,0,.32,0,.48V152.5a.23.23,0,0,0,0-.14.23.23,0,0,1,0,.14v0H43.2c-.12,0-.24-.05-.35,0a9.79,9.79,0,0,0-2.87.79A12.81,12.81,0,0,0,36.27,156c-.16.16-.23.12-.33,0a17.12,17.12,0,0,0-2.71-3,10.24,10.24,0,0,0-5.57-2.64c-.11-.08-.23,0-.35,0h-1c-.12,0-.24,0-.35,0-.41.06-.81.12-1.22.22a10.87,10.87,0,0,0-4.82,2.79c-.37.35-.72.72-1.06,1.11a22.08,22.08,0,0,0-1.63,2.09A29.1,29.1,0,0,0,14.7,161c-.64,1.38-1.2,2.79-1.71,4.23-.3.86-.55,1.72-.81,2.59-.35,1.12-.62,2.26-.89,3.4-.21.91-.36,1.83-.53,2.75s-.32,1.72-.44,2.59c-.11.71-.17,1.42-.25,2.13-.08.09,0,.19,0,.29l0,.23c-.08.09,0,.19,0,.29v.28c-.08.09,0,.2,0,.3h0l0,.33c-.08.11,0,.23-.05.34v.34c-.08.11,0,.24,0,.35s0,.27,0,.4,0,.27,0,.41,0,.29,0,.44,0,.35-.05.52,0,.38,0,.57,0,.43,0,.64,0,.6,0,.9h0v.57h0v0s0,0,0,0v1h0v0s0,0,0,0v1.49s0,0,0,0v0h0v1s0,0,0,0v0h0v.57h0a77.28,77.28,0,0,0,.91,10,60.43,60.43,0,0,0,2.27,9.47,36.77,36.77,0,0,0,4.3,9.12,16.83,16.83,0,0,0,4.73,4.89,8.67,8.67,0,0,0,9.91,0,15.8,15.8,0,0,0,4.06-3.93c.16-.21.23-.18.39,0a13.14,13.14,0,0,0,2.18,1.83A9.58,9.58,0,0,0,43.58,223a9.39,9.39,0,0,0,5.48-1.66A17.94,17.94,0,0,0,54.12,216a38.15,38.15,0,0,0,4.54-10.41A63.92,63.92,0,0,0,61,189.92,72.48,72.48,0,0,0,60.67,180.72ZM39.14,161.46v0l0,0Zm-.3-.54Zm-1.73,55.93h0l0,0Zm7.72,5.62h0ZM41.7,153.26h0Z"/>
      <path class="b10e93cc-2149-4cfa-870a-6642600556de" d="M9.63,184.42a2.72,2.72,0,0,0,0-.64A1.73,1.73,0,0,0,9.63,184.42Z"/>
      <path class="b10e93cc-2149-4cfa-870a-6642600556de" d="M40.43,17.38a2.27,2.27,0,0,0,0-.52A1.31,1.31,0,0,0,40.43,17.38Z"/>
      <path class="b10e93cc-2149-4cfa-870a-6642600556de" d="M40.4,15.92l0-.42C40.35,15.64,40.4,15.78,40.4,15.92Z"/>
    </g>
    <g>
      <path class="addcee8b-a73c-4910-a848-8eff353260dd" d="M9.57,188.35v-1.49a.08.08,0,0,1,.09,0,3.82,3.82,0,0,1,0,1.43A.06.06,0,0,1,9.57,188.35Z"/>
      <path class="aae9f873-9f77-4994-88ac-01fa46b9ae67" d="M9.62,186.86h0v-1a.06.06,0,0,1,.09,0A1.32,1.32,0,0,1,9.62,186.86Z"/>
      <path class="bd39f054-48a2-4ec1-9188-837d38122e3a" d="M9.57,188.35h0a1.33,1.33,0,0,1,0,.94.06.06,0,0,1-.09,0Z"/>
      <path class="ae7988fb-727d-4af7-a6cf-ba7d1166ce39" d="M9.62,185.89h0v-.57h0A.47.47,0,0,1,9.62,185.89Z"/>
      <path class="ae7988fb-727d-4af7-a6cf-ba7d1166ce39" d="M9.57,189.32h0a.47.47,0,0,1,0,.57h0Z"/>
      <path class="ec64f51c-2e12-48ce-8290-db4e0646c7b5" d="M43.42,13.05a20,20,0,0,1,2.79.1,18,18,0,0,1,3,.69,1.62,1.62,0,0,1,.35.21c-.32-.06-.34.13-.38.35q-1,5.72-2.08,11.42c-.29,1.58-.57,3.16-.87,4.74,0,.26,0,.41.25.5a1.52,1.52,0,0,1,.33.18.77.77,0,0,1,0,1.34c-.13.08-.16.11-.08.26a.79.79,0,0,1-.34,1.1c0,.11.11.11.17.17a.77.77,0,0,1-.21,1.31.26.26,0,0,0-.2.31,1,1,0,0,1,0,.17v117a.3.3,0,0,1,.07.24c0,.11,0,.21,0,.31q0,.74,0,1.47c0,.09,0,.17,0,.26v15.33a5.58,5.58,0,0,0,0,.71c0,6.13,0,12.26,0,18.39,0,1.4-.12,2.79-.25,4.18-.18,1.91-.46,3.8-.81,5.68q-.49,2.55-1.23,5a40.23,40.23,0,0,1-1.85,5A27.62,27.62,0,0,1,38,216.09a2.91,2.91,0,0,0-.45.48,1,1,0,0,1-.19.21c-.08.06-.16.16-.25.08s0-.18,0-.25c.44-.75.82-1.52,1.2-2.3a42.72,42.72,0,0,0,2.38-6.17,58.79,58.79,0,0,0,1.55-6.25c.27-1.4.49-2.81.67-4.22.15-1.17.28-2.34.37-3.51.06-.69.11-1.38.14-2.07,0-1.21.12-2.41.11-3.62a.47.47,0,0,1,0-.17,1.08,1.08,0,0,0,0-.31v-4.66a1,1,0,0,0,0-.34,3.38,3.38,0,0,1,0-.55c.08-3.64.06-7.28.06-10.92,0-.14,0-.28,0-.43,0-5.86,0-11.73,0-17.6a2.36,2.36,0,0,0,0-.46.74.74,0,0,1,0-.26.33.33,0,0,1,.08-.25v0c.06-.08,0-.18,0-.27V34.63a.67.67,0,0,0,0-.28l-1-.56a.74.74,0,0,1-.44-.66.8.8,0,0,1,.41-.8.9.9,0,0,1-.41-.81.72.72,0,0,1,.4-.66c.11-.05.09-.11.06-.2a.76.76,0,0,1,.43-1.15c.12-.05.08-.09.06-.16-.27-.87-.56-1.73-.8-2.6-.35-1.27-.7-2.53-1-3.81-.2-.84-.39-1.68-.54-2.53a16.25,16.25,0,0,1-.27-1.7c0-.21,0-.43-.07-.64s0-.24,0-.34l0-.35c0-.17,0-.35,0-.52v-.94c.05-.14,0-.28,0-.42a4,4,0,0,1,.36-1.44A1.41,1.41,0,0,1,42,13.22c.35,0,.69-.09,1-.13C43.15,13,43.29,13.11,43.42,13.05Z"/>
      <path class="b1392486-f863-481a-83fa-8e58472fb808" d="M43.65,188.35c0,1.05,0,2.11-.07,3.16-.09,1.56-.21,3.11-.38,4.65q-.35,3.24-1,6.44-.53,2.63-1.29,5.19a43.57,43.57,0,0,1-3.16,7.87c-.21.39-.43.78-.68,1.22.38-.23.53-.61.85-.83.08.11,0,.2,0,.28-.18.32-.35.64-.54.95s-.54.88-.83,1.3a.28.28,0,0,0,0,.42,11.65,11.65,0,0,0,4.71,3.07,6.62,6.62,0,0,0,2.21.38,1.29,1.29,0,0,1,.39,0H44c.06,0,.15,0,.17.08s-.07.12-.11.15a9.42,9.42,0,0,0,3.08-.68,12.46,12.46,0,0,0,3.47-2.27,22.6,22.6,0,0,0,4.57-6.15,42.73,42.73,0,0,0,3.4-8.8,58.63,58.63,0,0,0,1.48-7.3c.19-1.3.31-2.6.43-3.91a74.11,74.11,0,0,0,.21-8.16c0-1.16-.11-2.33-.21-3.5-.16-1.9-.38-3.8-.7-5.69a56.9,56.9,0,0,0-1.85-7.71,41.81,41.81,0,0,0-2.48-6.13A25.78,25.78,0,0,0,52,157.16a14.14,14.14,0,0,0-4.1-3.32,7.66,7.66,0,0,0-1.32-.55.62.62,0,0,1-.37-.2v-.23a11.05,11.05,0,0,1,4.23,2.33,21.88,21.88,0,0,1,5,6.4,42.9,42.9,0,0,1,3.71,9.81,63.74,63.74,0,0,1,1.62,9.32,72.48,72.48,0,0,1,.31,9.2,63.92,63.92,0,0,1-2.32,15.68A38.15,38.15,0,0,1,54.12,216a17.94,17.94,0,0,1-5.06,5.35A9.39,9.39,0,0,1,43.58,223a9.58,9.58,0,0,1-5.21-1.76,13.14,13.14,0,0,1-2.18-1.83c-.16-.17-.23-.2-.39,0a15.8,15.8,0,0,1-4.06,3.93,8.67,8.67,0,0,1-9.91,0,16.83,16.83,0,0,1-4.73-4.89,36.77,36.77,0,0,1-4.3-9.12,60.43,60.43,0,0,1-2.27-9.47,77.28,77.28,0,0,1-.91-10v-5.47c.06-.21,0-.43,0-.64v-.57c.07-.17,0-.35.05-.52v-.44c.06-.14,0-.28,0-.41l0-.4c.06-.11,0-.23,0-.35v-.34c.07-.11,0-.23.05-.34l0-.33c.05-.09,0-.2,0-.3v-.28c.06-.09,0-.2,0-.29l0-.23c.06-.09,0-.19,0-.29.08-.71.14-1.42.25-2.13.12-.87.28-1.73.44-2.59s.32-1.84.53-2.75c.27-1.14.54-2.28.89-3.4.26-.87.51-1.73.81-2.59.51-1.44,1.07-2.85,1.71-4.23a29.1,29.1,0,0,1,2.52-4.45,22.08,22.08,0,0,1,1.63-2.09c.34-.39.69-.76,1.06-1.11a10.85,10.85,0,0,1,4.83-2.79,12.26,12.26,0,0,1,1.21-.22c.11,0,.24,0,.35,0h1c.11.06.24,0,.35,0A10.24,10.24,0,0,1,33.23,153a17.12,17.12,0,0,1,2.71,3c.1.15.17.19.33,0A12.81,12.81,0,0,1,40,153.36a9.79,9.79,0,0,1,2.87-.79c.11,0,.24,0,.35,0h.45v.23c-.15.12-.33.08-.5.1a10.88,10.88,0,0,0-1.68.3.27.27,0,0,1,.23,0c0,.17-.13.17-.23.2a11.34,11.34,0,0,0-4.73,3c-.19.18-.22.32-.06.53.29.39.53.81.79,1.22.47.81.91,1.64,1.32,2.48.05.1.18.22,0,.35-.19,0-.22-.23-.3-.31.26.48.49,1,.72,1.55a55.05,55.05,0,0,1,3.47,12c.29,1.67.53,3.35.71,5a28.22,28.22,0,0,1,.2,3.05c0,.07,0,.15,0,.21V183c.05.64,0,1.27,0,1.91v.42c0,.11-.06.11-.11,0a.54.54,0,0,1-.05-.33c0-.83,0-1.66-.07-2.49-.08-1.34-.19-2.69-.34-4-.24-2.11-.57-4.2-1-6.28a51.75,51.75,0,0,0-3.36-10.54,28.14,28.14,0,0,0-4.19-6.77,12.9,12.9,0,0,0-4.05-3.29,7.66,7.66,0,0,0-3.52-.83,7.4,7.4,0,0,0-1.24.17,7.44,7.44,0,0,0-2.26.66,12,12,0,0,0-3.16,2.18,22,22,0,0,0-4.16,5.62,44.31,44.31,0,0,0-3.81,10,66.45,66.45,0,0,0-1.65,8.86c-.16,1.34-.27,2.69-.37,4-.2,2.59-.18,5.18-.15,7.76,0,1.23.11,2.45.2,3.67.19,2.44.49,4.87.92,7.28a61,61,0,0,0,1.78,7.38A42.11,42.11,0,0,0,15.7,215a24.12,24.12,0,0,0,3.6,5.44,12.25,12.25,0,0,0,4.46,3.34,8.32,8.32,0,0,0,1.16.39,8,8,0,0,0,5.88-.84,14.52,14.52,0,0,0,4.4-4,29,29,0,0,0,3.47-5.95,53.58,53.58,0,0,0,3.61-12.13c.37-2,.64-4.06.84-6.1.12-1.27.21-2.54.28-3.82.06-1.07.12-2.14.11-3.22,0-.1-.07-.29.16-.29A2.53,2.53,0,0,1,43.65,188.35Z"/>
      <path class="a70bd6f5-90f6-483d-b464-03be3ac57558" d="M43.65,34.35a.74.74,0,0,1,0,.33V152.2c0,.1,0,.21,0,.3V34.83C43.64,34.67,43.65,34.51,43.65,34.35Z"/>
      <path class="a70bd6f5-90f6-483d-b464-03be3ac57558" d="M9.67,183.78a2.72,2.72,0,0,1,0,.64A1.73,1.73,0,0,1,9.67,183.78Z"/>
      <path class="a70bd6f5-90f6-483d-b464-03be3ac57558" d="M40.4,16.86a2.27,2.27,0,0,1,0,.52A1.31,1.31,0,0,1,40.4,16.86Z"/>
      <path class="a70bd6f5-90f6-483d-b464-03be3ac57558" d="M9.73,182.69a1.8,1.8,0,0,1-.05.52C9.7,183,9.64,182.86,9.73,182.69Z"/>
      <path class="a70bd6f5-90f6-483d-b464-03be3ac57558" d="M40.43,15.5l0,.42C40.4,15.78,40.35,15.64,40.43,15.5Z"/>
      <path class="a70bd6f5-90f6-483d-b464-03be3ac57558" d="M43.42,13.05a1.36,1.36,0,0,1-.4,0C43.14,13,43.29,13.06,43.42,13.05Z"/>
      <path class="a70bd6f5-90f6-483d-b464-03be3ac57558" d="M9.78,181.84a1,1,0,0,1,0,.41C9.75,182.11,9.7,182,9.78,181.84Z"/>
      <path class="a70bd6f5-90f6-483d-b464-03be3ac57558" d="M9.9,180.41a.78.78,0,0,1-.05.34C9.87,180.64,9.82,180.52,9.9,180.41Z"/>
      <path class="a70bd6f5-90f6-483d-b464-03be3ac57558" d="M27.66,150.34a1,1,0,0,1-.35,0C27.43,150.31,27.55,150.26,27.66,150.34Z"/>
      <path class="a70bd6f5-90f6-483d-b464-03be3ac57558" d="M9.84,181.09a.69.69,0,0,1,0,.35C9.81,181.33,9.76,181.2,9.84,181.09Z"/>
      <path class="a70bd6f5-90f6-483d-b464-03be3ac57558" d="M26.3,150.3a1,1,0,0,1-.35,0C26.06,150.26,26.18,150.31,26.3,150.3Z"/>
      <path class="a70bd6f5-90f6-483d-b464-03be3ac57558" d="M43.2,152.53a1,1,0,0,1-.35,0C43,152.48,43.08,152.54,43.2,152.53Z"/>
      <path class="a70bd6f5-90f6-483d-b464-03be3ac57558" d="M40.45,17.73a.65.65,0,0,1,0,.34C40.41,18,40.46,17.84,40.45,17.73Z"/>
      <path class="a70bd6f5-90f6-483d-b464-03be3ac57558" d="M10,179.78a.78.78,0,0,1,0,.3C9.92,180,9.88,179.87,10,179.78Z"/>
      <path class="a70bd6f5-90f6-483d-b464-03be3ac57558" d="M10.07,178.69a.57.57,0,0,1,0,.29C10,178.89,10,178.78,10.07,178.69Z"/>
      <path class="a70bd6f5-90f6-483d-b464-03be3ac57558" d="M10,179.21a.48.48,0,0,1,0,.29C10,179.4,9.93,179.3,10,179.21Z"/>
      <path class="e3628865-42cc-4bf0-aee2-ebbac5e78605" d="M43.81,222.57a7.08,7.08,0,0,0-1.13-.09A9.55,9.55,0,0,1,38.87,221a13.58,13.58,0,0,1-2.45-2,.24.24,0,0,1,0-.36c.31-.45.61-.91.91-1.37a2,2,0,0,1,.53-.43A17.21,17.21,0,0,0,41.76,213a27.79,27.79,0,0,0,3.63-6.41,44.12,44.12,0,0,0,2.66-9.21c.22-1.19.39-2.4.52-3.61s.2-2.29.26-3.44c.08-1.6.06-3.2,0-4.8,0-1.21-.13-2.43-.26-3.64-.17-1.68-.42-3.34-.75-5a41,41,0,0,0-1.44-5.43,5.91,5.91,0,0,1-.25-.94v-15.4a2.35,2.35,0,0,1,0-.26c.14-.07.23,0,.33.1a13.31,13.31,0,0,1,1.38,1.1,22.32,22.32,0,0,1,4.22,5.44,41.2,41.2,0,0,1,3.77,9.38,58.17,58.17,0,0,1,1.58,7.75c.2,1.41.34,2.83.44,4.25s.14,2.6.17,3.9c0,.64.07,1.28,0,1.91-.06,1.32-.07,2.65-.15,4-.12,1.83-.28,3.66-.55,5.47a57.83,57.83,0,0,1-1.43,7,47.66,47.66,0,0,1-1.88,5.63,31.38,31.38,0,0,1-3.67,6.73,16.92,16.92,0,0,1-3.91,3.92,8.51,8.51,0,0,1-1.79,1s0,0,0,0,0,0,0,0,.1,0,.1.07c-.19.17-.41.11-.62.08A1,1,0,0,0,43.81,222.57Z"/>
      <path class="a529a17c-13c4-479e-8620-7e1c1adc4a14" d="M38.56,214.68a48,48,0,0,0,2.13-5.32,60.31,60.31,0,0,0,2.22-9.19,73.31,73.31,0,0,0,.86-7.82c.09-1.47.15-2.95.15-4.42V34.45a15.06,15.06,0,0,0,1.47.78c.45.18.54.46.54.92q0,76.1,0,152.18a59.14,59.14,0,0,1-.59,8.19,52.09,52.09,0,0,1-2.07,9,33,33,0,0,1-4.4,9c-.07.1-.15.19-.23.29S38.53,214.74,38.56,214.68Z"/>
      <path class="f85b3989-d52e-4abb-8b11-29e94952751d" d="M44.85,222.46h-.26l1-.57a14.07,14.07,0,0,0,3.6-3.06A25,25,0,0,0,52.48,214a38.54,38.54,0,0,0,2.12-4.79,49.52,49.52,0,0,0,1.67-5.61c.37-1.53.66-3.07.91-4.62.18-1.08.32-2.17.44-3.25.08-.75.13-1.51.19-2.26.1-1.34.14-2.67.18-4,0-.68,0-1.37,0-2.05,0-1.12-.05-2.24-.11-3.36,0-1-.13-1.9-.23-2.85-.17-1.62-.38-3.23-.66-4.83s-.66-3.38-1.1-5a47.39,47.39,0,0,0-2.12-6.25A33.51,33.51,0,0,0,51,159.83a19.9,19.9,0,0,0-3.21-3.76,7.57,7.57,0,0,0-1.6-1.21v-1.48c.13-.1.25,0,.38,0a11.65,11.65,0,0,1,4.06,2.54A21.94,21.94,0,0,1,55,161.76a40.55,40.55,0,0,1,3.15,7.77,58.29,58.29,0,0,1,1.66,7.38c.24,1.55.44,3.11.56,4.67.11,1.39.18,2.77.24,4.16,0,1.15.06,2.31,0,3.45s-.06,2.17-.14,3.25c-.1,1.41-.23,2.81-.4,4.2q-.36,2.93-1,5.8a47.72,47.72,0,0,1-2.35,7.66,33,33,0,0,1-3,5.76,18.88,18.88,0,0,1-4,4.51,10.09,10.09,0,0,1-4.5,2.13C45.12,222.52,45,222.58,44.85,222.46Z"/>
      <path class="b9081a8b-1646-43df-9196-8b369997c340" d="M46.16,170.52c.4,1,.72,2.1,1,3.17s.61,2.38.83,3.59c.18,1,.34,2,.48,3s.21,1.9.3,2.85a56.34,56.34,0,0,1,.14,6.75c0,1.15-.13,2.3-.24,3.45a55,55,0,0,1-.89,5.73c-.26,1.26-.59,2.49-.95,3.72a40.9,40.9,0,0,1-1.75,4.71,30,30,0,0,1-2,3.79,21.54,21.54,0,0,1-3.65,4.42,13.68,13.68,0,0,1-2.12,1.57l.51-.93a.6.6,0,0,0,.13-.28,29.65,29.65,0,0,0,2.42-3.45,36.53,36.53,0,0,0,3.34-7.67,52.12,52.12,0,0,0,1.75-7.61c.21-1.36.36-2.73.49-4.1.22-2.41.22-4.82.22-7.24,0-5,0-10.08,0-15.11Z"/>
      <path class="a529a17c-13c4-479e-8620-7e1c1adc4a14" d="M42.78,13.38a9.93,9.93,0,0,1,2-.09,14.5,14.5,0,0,1,3.34.5l.09.05c-.6.06-1.16.11-1.72.18a13.1,13.1,0,0,0-3,.63,2.94,2.94,0,0,0-.87.47,1,1,0,0,0-.38.93,59,59,0,0,0,2,9.67c.44,1.6.93,3.19,1.45,4.77,0,.06,0,.12.06.24-.59-.33-1.12-.66-1.69-.91a1.63,1.63,0,0,1-1-1.18c-.77-2.61-1.51-5.23-2-7.9a20.53,20.53,0,0,1-.49-5.07.61.61,0,0,1,0-.3.28.28,0,0,1,.09.29,24.59,24.59,0,0,0,.46,4.61.13.13,0,0,0,0,.06c-.11-.7-.22-1.41-.26-2.12a17.86,17.86,0,0,1,0-3.27,1.7,1.7,0,0,1,1.57-1.46,4.16,4.16,0,0,1,.93-.06C43.26,13.37,43,13.5,42.78,13.38Z"/>
      <path class="aa2985e7-7205-44a1-81f2-d0e387ecef65" d="M44.77,26.3c-.18-.66-.37-1.31-.55-2a65.69,65.69,0,0,1-1.46-6.65c-.08-.55-.13-1.1-.2-1.64a.76.76,0,0,1,.38-.8,5.19,5.19,0,0,1,1.83-.68c.62-.15,1.25-.23,1.88-.32.23,0,.26,0,.22.26l-2,11.8Z"/>
      <path class="e6fabd30-872f-4645-83d9-bf1b5a3cbcd1" d="M44.85,222.46a7.21,7.21,0,0,0,2.4-.66,13.37,13.37,0,0,0,4.62-3.59,25.67,25.67,0,0,0,3.8-6,43.9,43.9,0,0,0,2.76-7.62,61,61,0,0,0,1.29-6.12c.18-1.1.32-2.21.43-3.33.12-1.28.22-2.57.29-3.85.09-1.7.12-3.39.09-5.08,0-1.21-.08-2.43-.17-3.64a64.3,64.3,0,0,0-1.88-11.54,44.61,44.61,0,0,0-2.61-7.35,28.85,28.85,0,0,0-3.2-5.41,14.51,14.51,0,0,0-5.13-4.43,4.75,4.75,0,0,0-1.38-.5v-.29a10.89,10.89,0,0,1,4,2.21,20.83,20.83,0,0,1,4.48,5.54,36.82,36.82,0,0,1,3,6.59,53.66,53.66,0,0,1,2,7.49q.36,1.88.6,3.78c.12,1.09.25,2.17.34,3.27s.12,1.94.17,2.92c.09,1.78.06,3.56,0,5.33,0,1.12-.1,2.23-.2,3.35-.06.69-.12,1.39-.19,2.09-.1,1-.25,2-.4,2.92-.2,1.3-.45,2.59-.73,3.87a50.59,50.59,0,0,1-1.75,6.06,36.49,36.49,0,0,1-1.5,3.66,28.94,28.94,0,0,1-2.33,4.14,23,23,0,0,1-2,2.52,14.45,14.45,0,0,1-2.54,2.22,9.47,9.47,0,0,1-4,1.64,6.49,6.49,0,0,1-1.26.11c.06-.14.23-.08.3-.21l-.3,0c.2-.1.42,0,.63,0S44.72,222.56,44.85,222.46Z"/>
      <path class="a529a17c-13c4-479e-8620-7e1c1adc4a14" d="M47.92,14.14a7.55,7.55,0,0,0,.83-.05c.2,0,.22.05.19.22-.15.85-.31,1.7-.46,2.55-.51,2.78-1,5.55-1.52,8.33-.31,1.69-.62,3.38-1,5.07-.32-.93-.64-1.86-.88-2.81a1.18,1.18,0,0,1,0-.56l1.62-8.26c.27-1.38.56-2.75.81-4.14C47.62,14.29,47.67,14.12,47.92,14.14Z"/>
      <path class="a323cfe2-13c4-46f9-9b93-bd09cda90055" d="M43.65,153a.37.37,0,0,1,.05.27v17.6a2.11,2.11,0,0,1,0,.26,1.61,1.61,0,0,0,0,.31v7.66a.52.52,0,0,1,0,.32c-.13-.08-.12-.21-.13-.32-.27-2.35-.62-4.68-1.11-7a52.28,52.28,0,0,0-3.18-10.18.67.67,0,0,1-.1-.44c.19-.08.23.09.29.18a22.83,22.83,0,0,1,1.39,2.26,36.79,36.79,0,0,1,2.7,6.29,1.32,1.32,0,0,1,.09.3.59.59,0,0,1,0,.26c0-2,0-3.95,0-5.9,0-3.73,0-7.46,0-11.18a4.22,4.22,0,0,1,0-.62A.12.12,0,0,1,43.65,153Z"/>
      <path class="a55cb74e-7015-4617-b888-eacc556f7490" d="M39.13,161.44c.25.6.5,1.21.74,1.82A52.52,52.52,0,0,1,42.22,171c.32,1.38.6,2.77.83,4.17.16,1,.29,2,.42,3.07a10.87,10.87,0,0,0,.18,1.12v-7.88c0-.11,0-.22,0-.33,0,.22,0,.44,0,.66q0,3.23,0,6.45c0,1.42,0,2.84,0,4.25a2.17,2.17,0,0,1-.1-.91c-.06-.76-.13-1.51-.2-2.27s-.21-1.66-.31-2.5q-.23-1.65-.54-3.27c-.15-.83-.33-1.65-.51-2.48a51.43,51.43,0,0,0-1.44-5.17,37.67,37.67,0,0,0-1.86-4.68c-.12-.26-.23-.52-.36-.83.25.17.31.44.51.57A.68.68,0,0,1,39.13,161.44Z"/>
      <path class="f5c9aded-a6cf-44b3-9e77-3099d356399a" d="M47.92,14.14c-.25,0-.24.25-.27.42L47,17.93c-.37,1.9-.75,3.8-1.12,5.7-.25,1.28-.5,2.55-.74,3.82a2.41,2.41,0,0,1-.17-.58A11.36,11.36,0,0,1,45.22,25c.33-1.92.66-3.83,1-5.75.27-1.55.53-3.11.81-4.66,0-.11,0-.23.1-.32s.21-.12.33-.13Z"/>
      <path class="a529a17c-13c4-479e-8620-7e1c1adc4a14" d="M46.26,35.21a.8.8,0,0,1-.6-.1l-2.82-1.53c-.48-.26-.52-.63-.11-1a.13.13,0,0,1,.14-.08,9,9,0,0,1,1.49.75c.55.28,1.08.59,1.63.87a.92.92,0,0,1,.54.86C46.51,35.14,46.4,35.19,46.26,35.21Z"/>
      <path class="a529a17c-13c4-479e-8620-7e1c1adc4a14" d="M46.26,33.72a.68.68,0,0,1-.52-.07c-1-.53-1.94-1-2.9-1.56-.48-.25-.52-.63-.11-1a.13.13,0,0,1,.14-.07,2.21,2.21,0,0,1,.72.32c.77.42,1.54.85,2.32,1.25a1,1,0,0,1,.62.9C46.52,33.65,46.4,33.7,46.26,33.72Z"/>
      <path class="a529a17c-13c4-479e-8620-7e1c1adc4a14" d="M46.67,32.39a.58.58,0,0,1-.54,0l-3-1.6a.54.54,0,0,1,0-1,.15.15,0,0,1,.15-.06c.71.3,1.36.72,2,1.07.36.18.7.39,1.06.57a.74.74,0,0,1,.47.87C46.82,32.31,46.78,32.38,46.67,32.39Z"/>
      <path class="aa36ef70-b18b-4df9-a740-244abb07fdfe" d="M42.78,13.38h.85a8.85,8.85,0,0,0-1.05.18,2.48,2.48,0,0,0-1.14.55,1.2,1.2,0,0,0-.35.79,9.83,9.83,0,0,0,0,2.3c0,.37,0,.75,0,1.13.06.63.1,1.26.18,1.89a.41.41,0,0,1,0,.19c-.16-.82-.32-1.65-.44-2.49a24.18,24.18,0,0,1-.12-2.55,2.33,2.33,0,0,1,.08-.59c.23-.95.64-1.28,1.69-1.39Z"/>
      <path class="af6347a4-9c35-4fc2-95a4-9aca357c7b52" d="M47.13,14.31c-.14.87-.28,1.74-.43,2.61-.45,2.58-.89,5.16-1.34,7.74-.13.74-.27,1.48-.4,2.21a.57.57,0,0,1-.05-.49c.29-1.69.6-3.37.89-5.05s.58-3.43.87-5.14c.11-.62.23-1.24.34-1.87C47,14.18,47.07,14.14,47.13,14.31Z"/>
      <path class="be685290-830d-4b8b-97bb-c5bb1ed78558" d="M43.25,29.74l-.13,0c0-.05-.1-.09,0-.13a.7.7,0,0,1,.53,0c1,.55,2.05,1.09,3.07,1.66a.66.66,0,0,1,.05,1.13c-.11.06-.16.06-.11-.08l.12-.13c.16-.46.09-.62-.33-.86l-2.81-1.51A1.49,1.49,0,0,0,43.25,29.74Z"/>
      <path class="be685290-830d-4b8b-97bb-c5bb1ed78558" d="M46.26,33.72c.07-.08.2-.1.23-.22a.67.67,0,0,0-.41-.81l-2.82-1.52a.84.84,0,0,0-.41-.11l-.12,0c-.08-.06-.09-.12,0-.14a.75.75,0,0,1,.55,0c1,.55,2.06,1.1,3.08,1.66a.64.64,0,0,1,.12,1A.17.17,0,0,1,46.26,33.72Z"/>
      <path class="be685290-830d-4b8b-97bb-c5bb1ed78558" d="M46.26,35.21c.07-.08.21-.1.23-.23a.67.67,0,0,0-.43-.81c-.92-.49-1.83-1-2.75-1.48a1.07,1.07,0,0,0-.46-.14l-.12,0c-.08-.06-.09-.12,0-.14a.75.75,0,0,1,.55,0c1,.55,2.06,1.09,3.08,1.66a.64.64,0,0,1,.12,1A.17.17,0,0,1,46.26,35.21Z"/>
      <path class="eb57fc06-a465-4dce-ba69-1f276da488c4" d="M41.7,153.26c-.14-.11-.31,0-.52-.09a8.26,8.26,0,0,1,2.47-.42V153a.48.48,0,0,1-.37.12,7.85,7.85,0,0,0-1.29.17C41.88,153.29,41.79,153.34,41.7,153.26Z"/>
      <path class="a55cb74e-7015-4617-b888-eacc556f7490" d="M43.65,188.35v-.58a.42.42,0,0,1-.09-.29v-1.8a.46.46,0,0,1,.09-.3c0-.8,0-1.6,0-2.41.07.07.05.16.05.25v4.88C43.7,188.19,43.72,188.28,43.65,188.35Z"/>
      <path class="a307036a-4f72-4702-b560-3c9f052a308b" d="M38.56,214.68l.06.07-.22.32A.61.61,0,0,1,38.56,214.68Z"/>
      <path class="e3628865-42cc-4bf0-aee2-ebbac5e78605" d="M24.92,224.18a7.25,7.25,0,0,1-2.19-.86,15.2,15.2,0,0,1-4.88-4.63,33,33,0,0,1-4-7.79,55.42,55.42,0,0,1-2.38-8.49c-.32-1.57-.58-3.15-.77-4.74-.16-1.32-.31-2.63-.4-4-.08-1.05-.13-2.1-.18-3.15-.08-1.82-.06-3.64,0-5.46,0-1.44.12-2.88.25-4.31.11-1.17.22-2.33.37-3.48s.38-2.57.62-3.85a56.41,56.41,0,0,1,2.16-8.19,35.31,35.31,0,0,1,4.15-8.48,20.07,20.07,0,0,1,2-2.49,12.35,12.35,0,0,1,3.76-2.77,6.72,6.72,0,0,1,2.28-.66c-.06.25-.35.21-.5.4a10.76,10.76,0,0,1,1.92.79,11.73,11.73,0,0,1,2.64,1.88,23.12,23.12,0,0,1,4.77,6.54,44.24,44.24,0,0,1,3.35,9,64.83,64.83,0,0,1,1.34,6.6c.22,1.4.37,2.81.5,4.22.1,1.21.17,2.41.23,3.62,0,.66,0,1.33.05,2s.07,1.2,0,1.8c-.06,1.3,0,2.6-.12,3.9a76.19,76.19,0,0,1-1.44,11.17A50.35,50.35,0,0,1,35,213.61a27.23,27.23,0,0,1-3.85,6.29,13.68,13.68,0,0,1-4.57,3.71A5.42,5.42,0,0,1,24.92,224.18Z"/>
      <path class="f85b3989-d52e-4abb-8b11-29e94952751d" d="M24.92,224.18c.44-.19.91-.31,1.35-.5a11.43,11.43,0,0,0,2.55-1.55c.25-.2.5-.4.73-.62A20.63,20.63,0,0,0,33,217.2a36.29,36.29,0,0,0,2.41-4.68,46.07,46.07,0,0,0,1.6-4.39,56.62,56.62,0,0,0,1.53-6c.23-1.17.44-2.36.61-3.54.14-1,.27-2,.36-3s.17-1.82.23-2.74c0-.68.07-1.36.12-2s0-1.54.06-2.31a13,13,0,0,0,0-1.76c0-.81,0-1.62,0-2.42,0-1-.08-2-.18-3-.11-1.19-.23-2.39-.37-3.58a62.15,62.15,0,0,0-1.45-7.77,45.77,45.77,0,0,0-2.41-7.2,32.71,32.71,0,0,0-3-5.45,19.34,19.34,0,0,0-2.94-3.38,11.61,11.61,0,0,0-4-2.41c-.19-.07-.4-.11-.63-.18.24-.19.53-.24.74-.42a6.67,6.67,0,0,1,4,.33,10.72,10.72,0,0,1,3.49,2.23,21.71,21.71,0,0,1,4.18,5.48,43.26,43.26,0,0,1,4,10,61.93,61.93,0,0,1,1.4,6.57q.34,2.19.54,4.41c.1,1.11.18,2.23.23,3.35,0,.65,0,1.31.05,2,0,.06,0,.13,0,.18v2.39a3.3,3.3,0,0,0,0,.94c0,1.45-.12,2.9-.22,4.35-.08,1.29-.21,2.59-.36,3.88q-.39,3.27-1.09,6.5a56.42,56.42,0,0,1-1.64,6,36.18,36.18,0,0,1-4,8.53,16.71,16.71,0,0,1-4.92,5.09,8.42,8.42,0,0,1-5.28,1.35A4.43,4.43,0,0,1,24.92,224.18Z"/>
      <path class="e3628865-42cc-4bf0-aee2-ebbac5e78605" d="M41.7,153.26l.24,0a5.14,5.14,0,0,1,1.35.21.61.61,0,0,1,.35.19v11.31c-.13,0-.16-.08-.21-.16A24.66,24.66,0,0,0,41,161.3a16.05,16.05,0,0,0-3.28-2.93,1.61,1.61,0,0,1-.28-.24c-.31-.49-.63-1-.95-1.45-.06-.09,0-.14,0-.19a12.63,12.63,0,0,1,2.84-2.25A10.07,10.07,0,0,1,41.7,153.26Z"/>
      <path class="b9081a8b-1646-43df-9196-8b369997c340" d="M37.41,158.13a12.63,12.63,0,0,1,2,1.53,21.85,21.85,0,0,1,3.95,4.88c.08.13.09.29.24.38v5.89c-.12-.1-.1-.24-.14-.36a46,46,0,0,0-1.77-4.52,33.31,33.31,0,0,0-2.11-3.84,3.08,3.08,0,0,0-.49-.65l-.29-.52a21.59,21.59,0,0,0-1.08-2.15Z"/>
      <path class="aa36ef70-b18b-4df9-a740-244abb07fdfe" d="M44.27,150.05v-.31c0-4.93,0-9.85,0-14.77-.12-13.78,0-27.56-.07-41.33-.08-13.61,0-27.22-.06-40.82,0-2.13,0-4.26,0-6.4,0-.1-.05-.23.1-.32.06.48.14.94.18,1.41.09.9.16,1.81.23,2.71,0,.3,0,.59,0,.88.05.62,0,1.24.07,1.85.07,1,.09,2,.13,3.07,0,.53,0,1.07,0,1.6.07.83,0,1.67.06,2.5s0,1.35,0,2c.08,1.76,0,3.52.07,5.28.09,2.64,0,5.27.05,7.91s.1,5.52,0,8.28c-.08,3.93,0,7.86-.06,11.79,0,2.24,0,4.49,0,6.73-.07,1.84,0,3.68-.06,5.51-.07,1.6,0,3.2,0,4.79s0,3-.06,4.54c-.07,1.35,0,2.7-.06,4s0,2.45,0,3.67,0,2.5-.06,3.74,0,2.24-.06,3.36,0,2.19-.06,3.28,0,2.23-.05,3.34,0,1.94-.06,2.9,0,2-.06,3,0,1.92-.06,2.88S44.37,149.09,44.27,150.05Z"/>
      <path class="f12b3524-1832-43e5-bcd7-44a8069cb178" d="M43.64,153.61c-.56-.2-1.14-.25-1.7-.4a10.68,10.68,0,0,1,1.7-.22Z"/>
      <path class="e7b7a8f1-f47c-43fa-b6b9-6b87c578e0cc" d="M42.85,32.55a.56.56,0,0,1,.44.05l3,1.62a.51.51,0,0,1,.21.76c-.1-.09,0-.23-.08-.35-.09-.28-.33-.37-.55-.49C44.86,33.6,43.88,33,42.85,32.55Z"/>
      <path class="e7b7a8f1-f47c-43fa-b6b9-6b87c578e0cc" d="M42.85,31.06a.52.52,0,0,1,.44.06l3,1.62a.5.5,0,0,1,.21.76s0,0,0-.07a.8.8,0,0,0-.51-.75c-1-.5-1.9-1-2.85-1.53Z"/>
      <path class="e7b7a8f1-f47c-43fa-b6b9-6b87c578e0cc" d="M43.25,29.74a.59.59,0,0,1,.43.09l2.94,1.59a.5.5,0,0,1,.17.84.81.81,0,0,0-.55-.9C45.23,30.85,44.24,30.29,43.25,29.74Z"/>
      <path class="a17f506a-e57c-4764-9a8b-ed0971e39bab" d="M36.85,188.11c0,1.06,0,2.11-.07,3.16-.08,1.39-.2,2.76-.37,4.14a48,48,0,0,1-1.51,7.43,28.51,28.51,0,0,1-3.71,8.27,12.32,12.32,0,0,1-3.55,3.57,6.57,6.57,0,0,1-3.94,1.08,7,7,0,0,1-3.91-1.55,14.75,14.75,0,0,1-3.67-4.35,28.85,28.85,0,0,1-2.48-5.6,44.4,44.4,0,0,1-1.51-6c-.26-1.45-.47-2.9-.61-4.36-.09-.95-.16-1.89-.19-2.84s-.11-2.17-.09-3.25c0-1.39,0-2.77.16-4.16a52.34,52.34,0,0,1,1.6-9.55A32.57,32.57,0,0,1,15.75,167,16.58,16.58,0,0,1,19,162.65a7.67,7.67,0,0,1,4.28-2.16,6,6,0,0,1,3.22.45,10.28,10.28,0,0,1,3.92,3.14,20.13,20.13,0,0,1,2.39,3.81,35.55,35.55,0,0,1,2.32,6.33,50.05,50.05,0,0,1,1.07,5.12c.18,1.19.33,2.39.42,3.59.07.95.13,1.89.18,2.84C36.85,186.55,36.82,187.33,36.85,188.11Z"/>
      <path class="a37235f1-509f-4cd3-98ef-4ff924f06579" d="M34.34,173.1c.28,1.06.58,2.12.81,3.2.34,1.56.61,3.12.8,4.71.16,1.34.28,2.68.35,4s.12,2.64.08,4c-.05,1.9-.15,3.79-.37,5.68a48.5,48.5,0,0,1-1.61,8.18,27.76,27.76,0,0,1-3.54,7.87,11.5,11.5,0,0,1-3.74,3.7,5.86,5.86,0,0,1-6.3-.1,12.11,12.11,0,0,1-3.84-4,27.84,27.84,0,0,1-3.06-6.79A45.51,45.51,0,0,1,12.41,197c-.23-1.51-.41-3-.52-4.53-.08-1.12-.13-2.24-.16-3.36a.12.12,0,0,1,0-.12c.28-.37.6-.7.91-1,.69-.76,1.37-1.52,2.1-2.23.08-.08.15-.25.32-.11a5.9,5.9,0,0,1,0,1.11c0,.26,0,.53,0,.8,0,.66,0,1.32,0,2a28.71,28.71,0,0,0,.71,5.85,18.19,18.19,0,0,0,1.71,4.71,8.25,8.25,0,0,0,2,2.54,3.54,3.54,0,0,0,4.77-.06,9.3,9.3,0,0,0,2.41-3.43,23.32,23.32,0,0,0,1.76-6.77,29.38,29.38,0,0,0,.17-5,26,26,0,0,0-1.24-7.15,14.23,14.23,0,0,0-1.15-2.7,1.57,1.57,0,0,1-.18-.42c0-.18.15-.25.28-.33,1.34-.78,2.7-1.52,4.11-2.17,1.16-.54,2.33-1,3.52-1.49a1,1,0,0,1,.44-.12C34.33,173,34.3,173.06,34.34,173.1Z"/>
      <path class="b52571ac-eb01-42c7-b3d4-b01072aadd81" d="M34.34,173.1l-.06-.12a.81.81,0,0,1-.17-.39,32.48,32.48,0,0,0-2.08-5,16.6,16.6,0,0,0-3.27-4.48,7.88,7.88,0,0,0-2.86-1.78,5.77,5.77,0,0,0-4.89.54,10.53,10.53,0,0,0-3,2.69,23.34,23.34,0,0,0-3.43,6.39,43.2,43.2,0,0,0-2.27,9.36c-.18,1.34-.3,2.69-.4,4s-.1,2.86-.11,4.28a.78.78,0,0,1-.07.45v.11l-.22.17a4.52,4.52,0,0,1,0-.9c0-.64,0-1.27,0-1.9a27.43,27.43,0,0,1,.12-2.87c.14-1.78.35-3.56.66-5.32a44.1,44.1,0,0,1,1.76-6.87,26.41,26.41,0,0,1,2.83-5.92,14.52,14.52,0,0,1,2-2.52,8.28,8.28,0,0,1,3.71-2.18,6,6,0,0,1,4,.41,10.07,10.07,0,0,1,3.55,2.93,20,20,0,0,1,2.57,4.15,33.74,33.74,0,0,1,1.69,4.35C34.54,172.9,34.33,172.94,34.34,173.1Z"/>
      <path class="bebadcc7-d6c3-4438-a7c5-3b84d91ebefd" d="M11.51,186.52v2.8a.2.2,0,0,1-.06-.18V186.7A.21.21,0,0,1,11.51,186.52Z"/>
      <path class="a37235f1-509f-4cd3-98ef-4ff924f06579" d="M11.74,189c0-1.07,0-2.14,0-3.2.06-1.31.15-2.62.28-3.92a50,50,0,0,1,1-6.19,39,39,0,0,1,1.74-5.6,23.17,23.17,0,0,1,2.82-5.23,10.47,10.47,0,0,1,3.75-3.34,5.81,5.81,0,0,1,5.84.27,11.25,11.25,0,0,1,3.45,3.35,25.12,25.12,0,0,1,3,6,13.84,13.84,0,0,1,.58,1.79,47.7,47.7,0,0,0-5.62,2.48c-.86.44-1.69.93-2.54,1.4A.37.37,0,0,0,26,177a.07.07,0,0,1-.09,0c-.31-.35-.53-.76-.83-1.12a5.8,5.8,0,0,0-1.75-1.48,3.36,3.36,0,0,0-3.66.29,6.56,6.56,0,0,0-1.89,2.07,18.09,18.09,0,0,0-2.23,6c-.13.67-.27,1.35-.34,2a1.06,1.06,0,0,0,0,.31.79.79,0,0,1,0,.3.28.28,0,0,1-.08.11c-.67.59-1.23,1.28-1.85,1.91S12.25,188.58,11.74,189Z"/>
      <path class="f4b884c5-d7af-43d6-a286-706e2b73f206" d="M15,185.61v-.12c.11,0,.14-.27.32-.13a2.37,2.37,0,0,1,0,.88,28.79,28.79,0,0,0-.09,3.22,27,27,0,0,0,1.3,8,13.11,13.11,0,0,0,2,3.9,5.32,5.32,0,0,0,1.76,1.54,3,3,0,0,0,3.2-.15,6.16,6.16,0,0,0,1.74-1.71,15.2,15.2,0,0,0,2.12-4.78,26,26,0,0,0,.83-4.71,28.4,28.4,0,0,0,.12-3.57,29.64,29.64,0,0,0-.94-6.68,16.87,16.87,0,0,0-1.5-3.81.89.89,0,0,1-.14-.35.16.16,0,0,1,.21-.14l.06,0a21.71,21.71,0,0,1,2.47,8.51,30.07,30.07,0,0,1-.7,10.48,16.49,16.49,0,0,1-2,4.85A7.33,7.33,0,0,1,24,202.79a3.59,3.59,0,0,1-4.71-.09,8.61,8.61,0,0,1-2.17-2.84,21,21,0,0,1-1.92-6.23,31.17,31.17,0,0,1-.37-4.92A22.58,22.58,0,0,1,15,186C15,185.85,15,185.73,15,185.61Z"/>
      <path class="bd1601f3-37a3-458e-b6cd-9108633a6661" d="M25.89,177a.22.22,0,0,0-.18.13.08.08,0,0,1-.08,0c-.31-.4-.57-.85-.91-1.23A4.31,4.31,0,0,0,22,174.28a1.3,1.3,0,0,0-.59,0,3.72,3.72,0,0,0-2.14,1.05,10.91,10.91,0,0,0-2.58,4.19,21.5,21.5,0,0,0-.87,3c0,.08,0,.17-.11.22s-.17.09-.26,0a18.39,18.39,0,0,1,.68-2.65,14.44,14.44,0,0,1,1.78-3.74,5.79,5.79,0,0,1,2.28-2.11,3.42,3.42,0,0,1,3.53.29,6.6,6.6,0,0,1,2.07,2.26Z"/>
      <path class="bd1601f3-37a3-458e-b6cd-9108633a6661" d="M15.44,182.81l.25-.06c.09.11.05.24,0,.36-.13.68-.24,1.36-.33,2a.26.26,0,0,1-.11.16c-.11,0-.15.17-.28.17l.05-.28c.06-.09,0-.21,0-.3A10.58,10.58,0,0,1,15.44,182.81Z"/>
      <path class="f79fb168-86fe-46a1-ba94-502c25dfe678" d="M15.1,184.91c0,.1,0,.21,0,.3A.45.45,0,0,1,15.1,184.91Z"/>
      <path class="abeb667e-ae56-4100-8b63-6459df3467bf" d="M15.28,185.32l.05-.11a1.11,1.11,0,0,1,.25-.32c1.21-1.12,2.42-2.24,3.7-3.29a58.22,58.22,0,0,1,5.27-3.85c.28-.18.56-.36.85-.53.08,0,.16-.11.26-.08h.05a18.57,18.57,0,0,1,2.12,6,28.54,28.54,0,0,1,.5,6.32A25,25,0,0,1,26.46,199a9.62,9.62,0,0,1-2.16,3.26,3.65,3.65,0,0,1-2.78,1.17,3.63,3.63,0,0,1-2.13-.94,9.55,9.55,0,0,1-2.51-3.72,22.65,22.65,0,0,1-1.56-6.17,30.86,30.86,0,0,1-.2-4.9C15.14,186.87,15.22,186.1,15.28,185.32Z"/>
      <path class="a40333ef-ff61-4029-81a9-372a7411eae1" d="M25.66,177.14A54.83,54.83,0,0,0,20.1,181c-1.08.87-2.14,1.75-3.15,2.7l-1.62,1.48a17.13,17.13,0,0,1,.31-2.15l0-.31a25.59,25.59,0,0,1,.68-2.57,13.62,13.62,0,0,1,1.93-3.87,5.25,5.25,0,0,1,2.31-1.91,2.05,2.05,0,0,1,.77-.17,1.49,1.49,0,0,1,.63,0,3.36,3.36,0,0,1,1.83.74A6.77,6.77,0,0,1,25.66,177.14Z"/>
      <path class="b51d9370-faff-41d9-a83e-3e0d815127bf" d="M22,174.24h-.63A.77.77,0,0,1,22,174.24Z"/>
      <path class="aedab4b7-0f5a-4fbd-aa52-0da234ed5179" d="M17.3,188.72a9.44,9.44,0,0,1,.87-4.11,2.92,2.92,0,0,1,.9-1.13,1.28,1.28,0,0,1,1.61,0,3.27,3.27,0,0,1,1,1.44,9.07,9.07,0,0,1,.7,3.21,10.39,10.39,0,0,1-.65,4.42,3.64,3.64,0,0,1-.92,1.4,1.34,1.34,0,0,1-2,0,4.71,4.71,0,0,1-1.21-2.26A11.09,11.09,0,0,1,17.3,188.72Z"/>
    </g>
  </g>
</svg>
