<svg id="b78fb6ca-4b07-4515-a1da-2161940e60e7" data-name="Layer 1" xmlns="http://www.w3.org/2000/svg" width="208.62" height="166.09" viewBox="0 0 208.62 166.09">
  <defs>
    <style>
      .a0bec2c6-36f9-4ca0-b213-14cca6c8f1b2 {
        opacity: 0.5;
      }

      .fbd0fbdd-fe67-4944-bc1e-a41d6556f217 {
        fill: #fff;
      }

      .aca0dc42-2876-4428-adcb-1e0780b36bef {
        fill: #07353a;
      }

      .ecbf96ec-5bbd-44bc-a82e-7632396a904c {
        fill: #105a66;
      }

      .a957a52e-f7c0-4b4a-819d-f0dd3084a976 {
        fill: #cff3ff;
        stroke: #307382;
        stroke-miterlimit: 10;
      }

      .b4014ae2-4dc6-4490-bba7-e1c05314ed8f {
        fill: #b0deea;
      }

      .a2037c49-db21-4d2e-be34-30414c726d84 {
        fill: #4b6166;
      }

      .a8f06f07-4a37-41da-99ab-3f33067d9fcb {
        fill: #050505;
      }

      .fb36058a-7a56-497e-9c25-0e130d521734 {
        fill: #474747;
      }

      .f04b3bf4-9e54-4860-b4e9-b8dd9844ce6b {
        fill: #1d2a2d;
      }

      .f4e123eb-f4ef-4780-976c-0a17f1beeb0b {
        fill: #16272b;
      }

      .e1fd570b-5a70-40e5-84f4-4b170927237c {
        fill: #daecef;
      }
    </style>
  </defs>
  <g>
    <path class="a0bec2c6-36f9-4ca0-b213-14cca6c8f1b2" d="M128.69,161.77a6.48,6.48,0,0,1-3.64-1.11l-8-5.42a6.53,6.53,0,0,1-2.26-8.22l-4.81,3.65a6.53,6.53,0,0,1-9.28-9l.65-.92-4.22-4.32-14.51,9.61.86,2a6.53,6.53,0,0,1-11,6.84l-5.55-6.43-7.53,2.63a6.53,6.53,0,0,1-5.55-11.75l7.41-4.5-1.83-18.44a6.43,6.43,0,0,1,.07-1.81c-9-2.82-16.68-8-21.18-14.39l-16.49,2.42a6.2,6.2,0,0,1-1,.07A6.53,6.53,0,0,1,18.7,90l15.47-5.47a40.37,40.37,0,0,1,9-21.44L13,47a6.54,6.54,0,0,1-2.05-9.82C16,30.78,21.57,27,27.48,26A21.29,21.29,0,0,1,40,21.66c15,0,25.88,17,31.9,29.46q1.44.06,2.91.21a34.93,34.93,0,0,1,16,6C86.82,42.82,89.66,30,99.39,20,107,12.2,114,8.4,120.62,8.4c5.71,0,10.69,2.9,14,8.16,4.92,7.77,5.75,20.26,1.89,28.43-2,4.27-4.06,12.27-5.83,21a265.35,265.35,0,0,0,22.66-29.37c6.56-10.12,16-15.92,26-15.92a23.32,23.32,0,0,1,19.78,10.74c3.18,5,7.38,15.77-.18,32.06-9,19.33-29.68,28.23-47,32.33l.21.06c2.14.65,4.26,1.35,6.3,2.11a88.42,88.42,0,0,1,12,5.48c2,1.11,4,2.32,5.83,3.57a65.93,65.93,0,0,1,10.54,8.83,59.15,59.15,0,0,1,4.25,4.9,59.91,59.91,0,0,1,6.23,9.92l.36.73a46.46,46.46,0,0,1,1.8,4.3c2,5.69,1.78,10.32-.66,13.76-1.53,2.16-4.59,4.73-10.48,4.73h0c-11.65,0-32.66-10.7-49.21-20.81l-7.48,14.94,2.23,2.88a6.52,6.52,0,0,1-5.16,10.53ZM117.3,136.21a6.54,6.54,0,0,1,1.45,2.66l3.69-7.52-6.27-6.25-.41,0a6.3,6.3,0,0,1-1.61-.21,6.46,6.46,0,0,1-2.64.56,6.59,6.59,0,0,1-2.89-.67,6.81,6.81,0,0,1-1.08.54Zm-40.54-4.74,7.06-5.12-3-6.29-4.91,2.18Z"/>
    <path class="fbd0fbdd-fe67-4944-bc1e-a41d6556f217" d="M124.61,157.69a6.48,6.48,0,0,1-3.64-1.11l-8.06-5.42a6.53,6.53,0,0,1-2.25-8.22l-4.82,3.64a6.53,6.53,0,0,1-9.27-9l.65-.91L93,132.37,78.49,142l.86,2a6.53,6.53,0,0,1-10.95,6.84l-5.55-6.43L55.31,147a6.43,6.43,0,0,1-2.15.36,6.53,6.53,0,0,1-3.39-12.11l7.41-4.5-1.83-18.45a6.36,6.36,0,0,1,.07-1.8c-9-2.82-16.68-8-21.18-14.4l-16.5,2.43a6.16,6.16,0,0,1-.95.07,6.53,6.53,0,0,1-2.17-12.69l15.47-5.47a40.23,40.23,0,0,1,9-21.44L8.89,43a6.53,6.53,0,0,1-2.06-9.82C11.92,26.7,17.49,22.92,23.4,21.86a21.32,21.32,0,0,1,12.52-4.28c15,0,25.89,17,31.9,29.46,1,0,1.94.1,2.92.2a35.15,35.15,0,0,1,16,6c-4-14.5-1.18-27.34,8.55-37.31,7.62-7.81,14.56-11.6,21.22-11.6,5.72,0,10.7,2.9,14,8.16,4.92,7.77,5.75,20.26,1.89,28.43-2,4.26-4.06,12.27-5.83,21a266.57,266.57,0,0,0,22.66-29.37c6.55-10.12,16-15.92,26-15.92A23.32,23.32,0,0,1,195,27.37c3.18,5,7.38,15.77-.18,32.06-9,19.33-29.68,28.23-47,32.33l.22.06c2.14.64,4.26,1.35,6.3,2.11a89.5,89.5,0,0,1,12,5.47c2,1.12,4,2.33,5.84,3.58a66.37,66.37,0,0,1,10.54,8.83,59.13,59.13,0,0,1,10.47,14.81l.36.74a41.43,41.43,0,0,1,1.8,4.29c2,5.69,1.79,10.33-.65,13.77-1.53,2.16-4.59,4.73-10.48,4.73h0c-11.66,0-32.67-10.7-49.21-20.82l-7.48,14.95,2.23,2.87a6.53,6.53,0,0,1-5.16,10.54Zm-11.39-25.57a6.67,6.67,0,0,1,1.45,2.66l3.69-7.52L112.09,121h-.41a6.23,6.23,0,0,1-1.61-.2,6.46,6.46,0,0,1-2.64.56,6.59,6.59,0,0,1-2.89-.67,6.1,6.1,0,0,1-1.09.53Zm-40.54-4.73,7-5.12-3-6.29-4.91,2.18Z"/>
    <g>
      <path class="aca0dc42-2876-4428-adcb-1e0780b36bef" d="M55.3,60.7a100.78,100.78,0,0,0-6.88-14.23A55.68,55.68,0,0,0,38.85,34a23.85,23.85,0,0,0-6.45-4.46,13.62,13.62,0,0,0-7.68-1.1,16.27,16.27,0,0,0-7.12,3.24A33,33,0,0,0,12,37.19a32.73,32.73,0,0,1,5.57-5.65,16.41,16.41,0,0,1,7.15-3.4,13.87,13.87,0,0,1,7.86,1,24,24,0,0,1,6.65,4.43,56.27,56.27,0,0,1,9.87,12.5,101.75,101.75,0,0,1,7.18,14.26Z"/>
      <polygon class="ecbf96ec-5bbd-44bc-a82e-7632396a904c" points="75.91 99.03 87.97 124.37 67.2 139.44 73.34 146.56 70.34 139.54 92.31 124.99 81.16 97.8 75.91 99.03"/>
      <polygon class="ecbf96ec-5bbd-44bc-a82e-7632396a904c" points="108.32 100.89 93.59 120.05 108.36 136.49 101.9 141.38 105.7 136.01 89.82 119.79 104.12 98.91 108.32 100.89"/>
      <polygon class="ecbf96ec-5bbd-44bc-a82e-7632396a904c" points="94.62 100.88 64.9 114.09 66.92 136.06 53.16 140.86 64.09 134.22 61.85 111.69 92.45 95.57 94.62 100.88"/>
      <path class="a957a52e-f7c0-4b4a-819d-f0dd3084a976" d="M112.89,86.1s25.67-25,41.87-50c16.57-25.59,48.53-10.35,34.17,20.58S122.18,89.5,116.85,88.55C116.85,88.55,106.33,89.08,112.89,86.1Z"/>
      <path class="b4014ae2-4dc6-4490-bba7-e1c05314ed8f" d="M129.86,81.18S144.56,63.7,154,46.38c9.66-17.71,27.08-8,18.54,13.35s-37.61,23.58-40.54,23C132,82.76,126.16,83.32,129.86,81.18Z"/>
      <path class="a957a52e-f7c0-4b4a-819d-f0dd3084a976" d="M116.43,83s4.41-32.81,10.11-44.88-2-42.8-26.56-17.64,12.25,63.07,12.25,63.07S115.45,89.66,116.43,83Z"/>
      <path class="a2037c49-db21-4d2e-be34-30414c726d84" d="M119.77,99.33c-2.61,9.21-11,14.9-21.18,12S82.22,98.66,84.82,89.46,97.8,75.13,108,78,122.37,90.13,119.77,99.33Z"/>
      <path class="a8f06f07-4a37-41da-99ab-3f33067d9fcb" d="M105.89,81.77l.15-.54.5-1.38a8.19,8.19,0,0,1,.38-.89c.14-.31.28-.64.44-1l.53-1,.28-.52.3-.5.6-1c.22-.32.43-.63.63-.94l.3-.44.31-.41.55-.75c.35-.46.66-.83.86-1.1l.33-.41-.23.48c-.15.3-.37.72-.61,1.24-.12.26-.24.55-.38.84l-.2.46-.2.49c-.13.33-.27.67-.4,1s-.25.71-.37,1.07l-.18.53-.15.53c-.1.35-.2.7-.29,1s-.14.66-.21,1a8.12,8.12,0,0,0-.16.87c-.08.54-.14,1-.18,1.31l0,.49a3.62,3.62,0,0,1-1,.77C106.88,83.24,106.22,83.21,105.89,81.77Z"/>
      <path class="a8f06f07-4a37-41da-99ab-3f33067d9fcb" d="M112.29,85.18l.35-.37,1-.9c.4-.36.9-.75,1.42-1.18s1.1-.85,1.69-1.25c1.16-.83,2.35-1.58,3.23-2.14l1.49-.94-1.23,1.25c-.73.76-1.71,1.76-2.62,2.81-.47.51-.89,1.05-1.3,1.54s-.76,1-1,1.4l-.68,1-.24.4a3.35,3.35,0,0,1-1.22.13C112.53,86.85,112,86.5,112.29,85.18Z"/>
      <path class="a8f06f07-4a37-41da-99ab-3f33067d9fcb" d="M111.26,80.87a3.87,3.87,0,0,1,.14-.38c.1-.22.24-.54.42-.91a5.09,5.09,0,0,1,.3-.56c.11-.2.22-.4.35-.6a10.33,10.33,0,0,1,.81-1.12,8.31,8.31,0,0,1,1.59-1.52c.22-.15.4-.23.53-.31l.19-.1-.17.23c-.1.16-.25.35-.42.62a11.54,11.54,0,0,0-1,2.08c-.16.38-.26.79-.37,1.14-.05.18-.08.36-.12.52s-.07.31-.09.45l-.08.64c0,.16,0,.24,0,.24l-.24.12a4.27,4.27,0,0,1-.58.24C112,81.78,111.47,81.89,111.26,80.87Z"/>
      <path class="a8f06f07-4a37-41da-99ab-3f33067d9fcb" d="M116.54,86.85l.35,0,.91-.06c.38,0,.81,0,1.27,0s1,0,1.43.06c1,0,1.92.17,2.63.26l1.18.17-1.16.24c-.7.15-1.62.36-2.51.63-.45.12-.88.28-1.29.41s-.78.28-1.09.41l-.74.33-.27.13a2.91,2.91,0,0,1-.79-.69A1.31,1.31,0,0,1,116.54,86.85Z"/>
      <path class="a8f06f07-4a37-41da-99ab-3f33067d9fcb" d="M118.31,90.59l.23.09.64.21c.26.09.58.17.93.26s.71.18,1.09.25c.76.16,1.53.28,2.11.36l1,.14-.94.27c-.57.16-1.34.37-2.12.54-.4.09-.79.16-1.17.23s-.73.12-1,.15l-.75.08-.29,0a2.46,2.46,0,0,1-.38-1A1.63,1.63,0,0,1,118.31,90.59Z"/>
      <path class="a8f06f07-4a37-41da-99ab-3f33067d9fcb" d="M95.77,107.15l-1.61,6-1-6.12a2.8,2.8,0,0,1,.91-.45A1.52,1.52,0,0,1,95.77,107.15Z"/>
      <path class="a8f06f07-4a37-41da-99ab-3f33067d9fcb" d="M92.25,106.43l-2.75,4.92.23-5.63S91.48,105,92.25,106.43Z"/>
      <path class="a8f06f07-4a37-41da-99ab-3f33067d9fcb" d="M88.92,103l-.91.16-.93.13c-.34,0-.7.1-1.06.13-.73.07-1.45.13-2,.14l-.9,0,.79-.43c.47-.25,1.08-.62,1.67-1,.3-.18.59-.39.86-.57l.74-.5.7-.52a3.2,3.2,0,0,1,.75.65A1.58,1.58,0,0,1,88.92,103Z"/>
      <path class="a8f06f07-4a37-41da-99ab-3f33067d9fcb" d="M117.46,96.31l5.47,2.19-5.88.4S116.09,97.23,117.46,96.31Z"/>
      <path class="a8f06f07-4a37-41da-99ab-3f33067d9fcb" d="M117.8,100.19l.23.17.6.47c.25.2.51.46.79.72l.41.44.21.22.19.24a10.78,10.78,0,0,1,1.2,1.85c.13.26.22.49.29.64l.11.24-.2-.17c-.13-.11-.3-.28-.52-.46a9.91,9.91,0,0,0-1.71-1.09l-.24-.12-.25-.1-.47-.2c-.33-.1-.61-.21-.87-.27l-.62-.15-.23,0a3.43,3.43,0,0,1-.06-1A1.47,1.47,0,0,1,117.8,100.19Z"/>
      <path class="a8f06f07-4a37-41da-99ab-3f33067d9fcb" d="M115.09,104.37l.24.18.58.54a1.53,1.53,0,0,1,.18.18l.18.21.36.45c.11.16.22.34.33.51l.16.27.13.28c.08.19.17.37.24.56l.16.56c0,.09,0,.17.07.26l0,.25.07.47c0,.28,0,.52,0,.68V110l-.12-.23c-.08-.15-.17-.36-.31-.59l-.24-.36-.13-.19c0-.06-.11-.12-.16-.19l-.33-.37-.39-.33-.18-.16-.21-.13-.39-.25-.4-.18-.17-.08-.18-.06-.53-.16-.21,0a4.16,4.16,0,0,1,0-1A1.42,1.42,0,0,1,115.09,104.37Z"/>
      <path class="a8f06f07-4a37-41da-99ab-3f33067d9fcb" d="M112.15,108.34l-.13.22c-.07.15-.19.36-.3.62a8.3,8.3,0,0,0-.32.93,6.68,6.68,0,0,0-.05,3.37,6.44,6.44,0,0,0,.22.74l.11.28-.2-.22a6.28,6.28,0,0,1-.5-.63,7.55,7.55,0,0,1-1.09-2.26,8.66,8.66,0,0,1-.28-1.38,9.08,9.08,0,0,1-.06-1.24c0-.36,0-.67,0-.89l.05-.33a2.15,2.15,0,0,1,.31-.14,1.94,1.94,0,0,1,.72-.12A1.59,1.59,0,0,1,112.15,108.34Z"/>
      <path class="a8f06f07-4a37-41da-99ab-3f33067d9fcb" d="M108.35,110.74l-.11.14-.25.37c-.11.16-.19.36-.31.58l-.13.36-.07.19,0,.19-.09.4,0,.41,0,.19v.55c0,.22.06.4.08.53l0,.21-.14-.16c-.08-.1-.22-.24-.36-.44l-.21-.32-.12-.18-.1-.2-.21-.43c-.06-.16-.11-.31-.16-.48l-.08-.24-.06-.25c0-.17-.07-.33-.1-.5s-.07-.63-.06-.9,0-.5,0-.66l0-.24a2.18,2.18,0,0,1,2.46.88Z"/>
      <path class="a8f06f07-4a37-41da-99ab-3f33067d9fcb" d="M103.25,110.42l-.13.17-.31.47c-.13.2-.25.44-.41.7s-.28.56-.41.86a15.75,15.75,0,0,0-.64,1.71c-.08.24-.12.45-.16.59l-.07.23-.05-.23c0-.14-.08-.35-.13-.61a16.49,16.49,0,0,1-.24-1.91c0-.35,0-.71,0-1.05s0-.66,0-.93,0-.51.06-.67l0-.26a2.61,2.61,0,0,1,1-.09A1.84,1.84,0,0,1,103.25,110.42Z"/>
      <path class="a8f06f07-4a37-41da-99ab-3f33067d9fcb" d="M101.62,78.63l-.13-.36c-.07-.24-.18-.58-.26-1a10.71,10.71,0,0,1-.19-1.41,9.62,9.62,0,0,1,.07-1.6,8.61,8.61,0,0,1,.85-2.73c.18-.34.33-.61.45-.79l.19-.29-.08.33a7.06,7.06,0,0,0-.17.87,7.88,7.88,0,0,0,.07,2.59,6.63,6.63,0,0,0,.38,1.26,6.32,6.32,0,0,0,.51,1c.16.28.33.49.43.65l.19.23-.13.3a3.27,3.27,0,0,1-.36.63,1.42,1.42,0,0,1-.68.52A1.4,1.4,0,0,1,101.62,78.63Z"/>
      <path class="a8f06f07-4a37-41da-99ab-3f33067d9fcb" d="M99.13,110.36l-.13.21c-.08.14-.19.34-.32.59l-.1.2-.09.21-.2.47c-.07.16-.11.34-.18.51a5.62,5.62,0,0,0-.15.55l-.13.57-.08.55,0,.28a2.17,2.17,0,0,0,0,.26l0,.48c0,.3,0,.55,0,.73v.29l-.12-.26c-.07-.16-.2-.39-.31-.68l-.18-.48-.09-.26-.08-.28c0-.2-.1-.4-.16-.6l-.11-.64a4.81,4.81,0,0,1-.08-.65c0-.21,0-.43,0-.64v-.88l0-.26c0-.33,0-.62.07-.81l0-.31a2.35,2.35,0,0,1,1-.2A1.6,1.6,0,0,1,99.13,110.36Z"/>
      <path class="fb36058a-7a56-497e-9c25-0e130d521734" d="M98.92,85.81c-.8,12.34-14.7,21.5-31,20.44S35.69,94.66,36.49,82.31s10-31,33.58-28.57C86.36,55.4,99.71,73.46,98.92,85.81Z"/>
      <path class="fb36058a-7a56-497e-9c25-0e130d521734" d="M50.3,80.26,16.79,92.1l36.43-5.36S56.46,82,50.3,80.26Z"/>
      <g>
        <path class="fb36058a-7a56-497e-9c25-0e130d521734" d="M189.2,133.82c-3,2.26-7.44,3.3-8.18,2.87-.92-.53,4.07-3.22,6.22-7a2,2,0,0,0,.11-.2,52.44,52.44,0,0,0-5.53-8.82,10.47,10.47,0,0,1-.76,1.34c-2.91,4.25-10.89,6.32-12,5.69s4.86-3.85,7.43-8.31a34.06,34.06,0,0,0,1.53-3.09,59.72,59.72,0,0,0-9.5-8,10.89,10.89,0,0,1-.73,2.36c-2.35,5.36-10.85,9.35-12.22,8.87s4.64-5.31,6.57-10.85a35.68,35.68,0,0,0,1-3.65,82,82,0,0,0-11.11-5.07,11,11,0,0,1-.19,2.79c-1.15,5.75-8.59,11.46-10,11.29s3.39-6.19,4.09-12a40.13,40.13,0,0,0,.24-4,110.89,110.89,0,0,0-12.12-2.86,9.23,9.23,0,0,1,.08,1.18c0,4.64-4.91,10.21-6.05,10.3s1.68-5.32,1.33-9.94c-.06-.78-.16-1.55-.28-2.3a93.08,93.08,0,0,0-11.25-.89c-11,1.79-2.44,13.94-2.44,13.94C124.41,117.15,199.65,163.51,189.2,133.82Z"/>
        <path class="a2037c49-db21-4d2e-be34-30414c726d84" d="M141.86,114.13c1.44.17,8.88-5.54,10-11.29a11,11,0,0,0,.19-2.79c-2-.74-4-1.39-5.89-2a40.13,40.13,0,0,1-.24,4C145.25,107.94,140.43,114,141.86,114.13Z"/>
        <path class="a2037c49-db21-4d2e-be34-30414c726d84" d="M128.1,106.7c1.14-.09,6-5.66,6.05-10.3a9.23,9.23,0,0,0-.08-1.18c-1.74-.31-3.39-.56-4.92-.76.12.75.22,1.52.28,2.3C129.78,101.38,127,106.78,128.1,106.7Z"/>
        <path class="a2037c49-db21-4d2e-be34-30414c726d84" d="M162.15,108.77c-1.93,5.54-7.93,10.37-6.57,10.85s9.87-3.51,12.22-8.87a10.89,10.89,0,0,0,.73-2.36q-2.62-1.77-5.34-3.27A35.68,35.68,0,0,1,162.15,108.77Z"/>
        <path class="a2037c49-db21-4d2e-be34-30414c726d84" d="M169.07,127.74c1.1.63,9.08-1.44,12-5.69a10.47,10.47,0,0,0,.76-1.34,55.24,55.24,0,0,0-3.79-4.37,34.06,34.06,0,0,1-1.53,3.09C173.93,123.89,168,127.1,169.07,127.74Z"/>
        <path class="fb36058a-7a56-497e-9c25-0e130d521734" d="M181,136.69c.74.43,5.19-.61,8.18-2.87a37.75,37.75,0,0,0-1.52-3.63l-.33-.66a2,2,0,0,1-.11.2C185.09,133.47,180.1,136.16,181,136.69Z"/>
      </g>
      <polygon class="ecbf96ec-5bbd-44bc-a82e-7632396a904c" points="103.23 102.99 126.28 125.94 116.56 145.74 124.61 151.16 119.86 145.03 130 124.78 107.16 98.8 103.23 102.99"/>
      <g>
        <g>
          <ellipse class="fbd0fbdd-fe67-4944-bc1e-a41d6556f217" cx="64.7" cy="70.9" rx="9.71" ry="10.88"/>
          <path class="f04b3bf4-9e54-4860-b4e9-b8dd9844ce6b" d="M74.45,70.9a11.74,11.74,0,0,1-2.57,7.58,9.64,9.64,0,0,1-7.18,3.78,9.8,9.8,0,0,1-7.65-3.39,12.2,12.2,0,0,1,0-15.93,9.82,9.82,0,0,1,7.65-3.39,9.67,9.67,0,0,1,7.18,3.77A11.78,11.78,0,0,1,74.45,70.9Zm-.1,0a11.53,11.53,0,0,0-2.65-7.42,8.92,8.92,0,0,0-14,0,11.79,11.79,0,0,0,0,14.82,8.91,8.91,0,0,0,14,0A11.54,11.54,0,0,0,74.35,70.9Z"/>
        </g>
        <ellipse class="f4e123eb-f4ef-4780-976c-0a17f1beeb0b" cx="65.17" cy="71.18" rx="6.22" ry="6.97"/>
        <ellipse class="e1fd570b-5a70-40e5-84f4-4b170927237c" cx="68.14" cy="67.86" rx="1.95" ry="2.19"/>
      </g>
      <path class="aca0dc42-2876-4428-adcb-1e0780b36bef" d="M38.09,88.24a27.91,27.91,0,0,0,7.2,2.49,27,27,0,0,0,7.66.44l1-.07c.32,0,.63-.1,1-.15.63-.12,1.27-.2,1.9-.36a24.94,24.94,0,0,0,3.67-1.19,25.5,25.5,0,0,0,3.49-1.69,14.11,14.11,0,0,0,1.63-1l1.6-1.11-1.57,1.16a11.64,11.64,0,0,1-1.6,1.1,25.24,25.24,0,0,1-3.45,1.82A26,26,0,0,1,56.85,91c-.63.18-1.28.27-1.92.42-.32.06-.63.14-1,.19l-1,.1a27.55,27.55,0,0,1-7.85-.21,28.4,28.4,0,0,1-7.54-2.34Z"/>
      <path class="aca0dc42-2876-4428-adcb-1e0780b36bef" d="M64.41,56.71a101.91,101.91,0,0,0-6.89-14.23A55.84,55.84,0,0,0,48,30a23.63,23.63,0,0,0-6.45-4.46,13.53,13.53,0,0,0-7.68-1.1,16.07,16.07,0,0,0-7.11,3.24,33,33,0,0,0-5.65,5.56,32.79,32.79,0,0,1,5.57-5.66,16.39,16.39,0,0,1,7.15-3.39,13.9,13.9,0,0,1,7.87,1,24,24,0,0,1,6.64,4.43,56.37,56.37,0,0,1,9.88,12.5,102.79,102.79,0,0,1,7.17,14.26Z"/>
    </g>
  </g>
</svg>
