<svg id="f7f414b3-89aa-4ac9-8354-ca9cce734da7" data-name="Layer 1" xmlns="http://www.w3.org/2000/svg" width="197.86" height="255.5" viewBox="0 0 197.86 255.5">
  <defs>
    <style>
      .badc3b61-6b9d-49c0-aed2-fb78c1fd291f {
        opacity: 0.5;
      }

      .b6afc026-4552-472c-a870-313ac6820fd5 {
        fill: #fff;
      }

      .bf90dcca-693c-45c0-b4d9-4a4898b88016, .fe2ed169-8ece-4f8c-b356-d5b115db69b4 {
        fill: #f48455;
      }

      .a85837c9-aeed-4e24-a8f6-2975cd597ca3, .fe2ed169-8ece-4f8c-b356-d5b115db69b4 {
        stroke: #7b1415;
      }

      .a71c5521-ee3d-4e5d-af33-87ac88c82047, .a85837c9-aeed-4e24-a8f6-2975cd597ca3, .b14d9ef3-60e0-452f-800d-ead3318eec18, .e015cd8b-e9c9-4f4a-b0a4-95f5d6a84804, .fe2ed169-8ece-4f8c-b356-d5b115db69b4 {
        stroke-miterlimit: 10;
      }

      .baee6d42-ce2d-4777-9747-f28d21e6d436 {
        fill: #dd794e;
      }

      .a71c5521-ee3d-4e5d-af33-87ac88c82047 {
        fill: #8c361e;
        stroke: #4d1615;
      }

      .b14d9ef3-60e0-452f-800d-ead3318eec18 {
        fill: #edbcbc;
      }

      .b14d9ef3-60e0-452f-800d-ead3318eec18, .e015cd8b-e9c9-4f4a-b0a4-95f5d6a84804 {
        stroke: #5b3026;
      }

      .e015cd8b-e9c9-4f4a-b0a4-95f5d6a84804 {
        fill: #c35929;
      }

      .b6b172d5-e095-4b4b-ae7b-0f31df763eaf {
        fill: #96431b;
        opacity: 0.4;
      }

      .a20f5465-c9ba-41a4-983d-29c756932e15 {
        fill: #b33c28;
      }

      .a85837c9-aeed-4e24-a8f6-2975cd597ca3 {
        fill: none;
      }

      .b5ccb0db-7799-4d1b-a391-a708eb44be24 {
        fill: #f29f7a;
      }

      .f968cea4-3408-41b2-8891-810020079f12 {
        fill: #621511;
      }

      .bc19c8de-76f3-4100-97d0-df9fc3cab315 {
        fill: #9f5737;
      }

      .b919dcf3-793e-430b-8805-6840a5862fe4 {
        fill: #3c1212;
      }

      .bd1d5ad7-fdda-48be-9117-b4da02872972 {
        fill: #6f0f10;
      }

      .e1215c7a-5731-4a1f-8683-f4b17fa278b5 {
        fill: #2d090d;
      }

      .e785f71e-7f7c-4b39-92d1-ee9fdc4e4f3f {
        fill: #4f1211;
      }

      .e8396869-26bd-465e-8199-e4900625ed94 {
        fill: #ef5556;
      }

      .b7f09a3a-af23-4ed1-82c7-dfb65d0c067f {
        fill: #642627;
      }

      .ef82272c-5fff-4343-9859-a2fee4b4eeab {
        fill: #391212;
      }

      .aabf7bd9-3d2c-4d91-ba55-b3b1148f7e2e {
        fill: #951b1e;
      }
    </style>
  </defs>
  <g>
    <path class="badc3b61-6b9d-49c0-aed2-fb78c1fd291f" d="M57.54,250.7a8.52,8.52,0,0,1-6.94-3.81,16.17,16.17,0,0,1-1.32-2.55c-3.71-2.19-6.09-5.9-6.87-10.86a14.23,14.23,0,0,1,3.05-11.63,15.86,15.86,0,0,1,8.36-4.93c.32-6.87.59-19.29.68-37.3-2.67-9.71-4.59-18.49-5.53-23.69a14.89,14.89,0,0,1-2.34-2.3,12.11,12.11,0,0,1-3.71.56,16.61,16.61,0,0,1-4.14-.56C33.94,152.41,23,147.87,22.7,132c-.18-.4-.35-.81-.52-1.23,0,0-.25-.61-.3-.75A31.43,31.43,0,0,1,20.55,126a9.9,9.9,0,0,1-.73-.85,20.67,20.67,0,0,1-2.48-2.9C10.31,114,7.46,106,9.1,98.9a18.28,18.28,0,0,1,7.17-10.58,39.16,39.16,0,0,1-.76-11.25,33.41,33.41,0,0,1,1-10c-.37-1-.79-2.12-1.26-3.54-.67-2-1.19-3.58-1.49-4.93-2.92-10.28-3.58-17.52-2.27-24.94.91-5.19,3.06-17.36,12.58-17.36a9.35,9.35,0,0,1,2,.21c6.62,1.44,7.82,7.75,8.7,12.35a60.72,60.72,0,0,0,1.55,6.71,20.62,20.62,0,0,0,2.72,5.88,38.55,38.55,0,0,1,4.89-1.77,37.7,37.7,0,0,1,5.67-2.23,32.65,32.65,0,0,1,9.24-1.35,27.86,27.86,0,0,1,11.47,2.32l.86.4c1.84-9.25,4.53-19.68,7.9-24.36,3-4.2,6.71-4.82,8.65-4.82,8.47,0,10.9,9.49,11.94,13.55,0,.12.06.24.09.37a102.51,102.51,0,0,1,2.52,17.56,84.84,84.84,0,0,0,.83,9.26,143.83,143.83,0,0,1,1.77,18.45,53.82,53.82,0,0,1-1.6,13.63c1.71,4.63,4,12.31,3.29,18.15a24.13,24.13,0,0,1-4.5,11.47c3.16,3.23,6.83,8.22,6.93,14l.74,1.13c1.49,2.27,3.73,5.7,6.39,9.64,5.8,8.45,14.27,20.13,21.44,27.42,11.25,11.46,20.36,24.44,25,35.64.35.77.65,1.5.92,2.2a24.47,24.47,0,0,0-1-9.27c-4.89-16.8-12.85-27-26.6-34.21-4.94-2.59-7.34-7.49-6.11-12.49,2-8.17,12.91-12.58,22.15-12.58a26.49,26.49,0,0,1,17.95,6.56,68.25,68.25,0,0,1,19.28,28.79c.37,1,.69,1.91,1,2.85a102,102,0,0,1,4.08,21,62.21,62.21,0,0,1-.16,12.72A45.17,45.17,0,0,1,192,215.69a47.6,47.6,0,0,1-8.79,16.61A35,35,0,0,1,166.4,244l-.42.13c-.41.14-.87.28-1.33.42A38.26,38.26,0,0,1,154,246.38h-.77c-2.87,1.26-9.67,2.82-35.29,3.77-14.38.53-28.18.61-28.31.61h0c-.33,0-.66,0-1-.05a9.09,9.09,0,0,1-2.85.48Z"/>
    <path class="b6afc026-4552-472c-a870-313ac6820fd5" d="M52.24,245.39a8.48,8.48,0,0,1-6.94-3.81A15.34,15.34,0,0,1,44,239c-3.72-2.19-6.1-5.9-6.87-10.86a14.18,14.18,0,0,1,3-11.62,15.93,15.93,0,0,1,8.37-4.94c.31-6.87.58-19.28.67-37.29-2.67-9.72-4.59-18.49-5.52-23.7a14.48,14.48,0,0,1-2.34-2.3,12.16,12.16,0,0,1-3.71.57,17.1,17.1,0,0,1-4.15-.56c-4.84-1.23-15.82-5.77-16.08-21.61-.18-.4-.35-.81-.52-1.22,0,0-.25-.61-.3-.75a31,31,0,0,1-1.32-4.1,7.51,7.51,0,0,1-.74-.85A19,19,0,0,1,12,116.9c-7-8.18-9.88-16.23-8.24-23.31A18.21,18.21,0,0,1,11,83a39.5,39.5,0,0,1-.76-11.25,33.45,33.45,0,0,1,1.05-10c-.38-1-.8-2.12-1.27-3.54-.66-2-1.19-3.57-1.49-4.92C5.57,43,4.91,35.76,6.22,28.35,7.14,23.15,9.28,11,18.81,11a9.19,9.19,0,0,1,2,.21c6.62,1.44,7.82,7.74,8.7,12.35A63.65,63.65,0,0,0,31,30.26a20.53,20.53,0,0,0,2.72,5.87,40.11,40.11,0,0,1,4.89-1.76,36.07,36.07,0,0,1,5.67-2.23,32.68,32.68,0,0,1,9.25-1.36A27.85,27.85,0,0,1,65,33.1l.86.4c1.85-9.25,4.53-19.67,7.9-24.36,3-4.19,6.72-4.82,8.65-4.82,8.47,0,10.91,9.49,12,13.55,0,.12.06.25.08.37A100.66,100.66,0,0,1,97,35.8a86.93,86.93,0,0,0,.83,9.26,143.83,143.83,0,0,1,1.77,18.45A53.32,53.32,0,0,1,98,77.14c1.71,4.64,4,12.31,3.29,18.16a24.08,24.08,0,0,1-4.49,11.46c3.15,3.24,6.82,8.22,6.93,13.95l.73,1.13c1.49,2.27,3.74,5.7,6.39,9.64,5.81,8.45,14.28,20.13,21.44,27.42,11.25,11.46,20.37,24.44,25,35.65q.52,1.14.93,2.19a24.62,24.62,0,0,0-1-9.26c-4.9-16.8-12.85-27-26.6-34.22-5-2.58-7.35-7.49-6.12-12.49,2-8.17,12.91-12.58,22.15-12.58a26.47,26.47,0,0,1,17.95,6.56,68.38,68.38,0,0,1,19.28,28.79c.37,1,.69,1.91,1,2.86A100.39,100.39,0,0,1,189,187.35a61.41,61.41,0,0,1-.16,12.71,45.37,45.37,0,0,1-2.14,10.33,47.39,47.39,0,0,1-8.79,16.6,34.92,34.92,0,0,1-16.77,11.72l-.42.14c-.41.13-.87.28-1.33.41a38.26,38.26,0,0,1-10.69,1.81h-.76c-2.88,1.27-9.68,2.82-35.3,3.77-14.38.54-28.17.61-28.31.62h0a8.06,8.06,0,0,1-1-.06,8.84,8.84,0,0,1-2.85.49Z"/>
    <path class="fe2ed169-8ece-4f8c-b356-d5b115db69b4" d="M152.51,220.33s19.71-11.83,12.89-35.23c-5.94-20.4-16.07-31.66-30.82-39.37-8.24-4.3,12.72-15,24.4-4.64,9.72,8.67,19.19,22,21.51,47,1.95,20.93-8.71,44.71-33.59,44.3C124.07,232,143.58,218.54,152.51,220.33Z"/>
    <path class="baee6d42-ce2d-4777-9747-f28d21e6d436" d="M152,224s11.52-3.74,14.93-12.11,6.61-21.58,2.31-32.36-6.6-20.7-1.87-20.59,7.85,4.55,9.32,9.77,6.73,25.33,1.84,39.15-11.88,20.08-20.1,22.79-11.54,1.78-11.54,1.78,1.07-9.09,3.09-8.76Z"/>
    <path class="a71c5521-ee3d-4e5d-af33-87ac88c82047" d="M57.7,170.17s-.07,43.4-1.33,49.25c0,0-12.23-1.22-10.87,7.44s9.17,5.32,24.34,5.49l6.86-26.92-2-24.3S64.38,162.13,57.7,170.17Z"/>
    <path class="bf90dcca-693c-45c0-b4d9-4a4898b88016" d="M55.74,144.75s6,5.71,11.54,27.56A170.27,170.27,0,0,0,84,212.94s5.78-29,8-31.26,15.63-7.66,15.74-8-1.54-16-1.54-16.73-4.41-16.84-4.41-16.84-5.24-16.91-6.88-16.23-7.65,7-10.18,9.4S66.86,142.85,55.74,144.75Z"/>
    <path class="fe2ed169-8ece-4f8c-b356-d5b115db69b4" d="M88.78,225.66a65.4,65.4,0,0,1-22.47-27.3c-8-18.28-14-46.19-14.76-52.22s30.52-23.53,36.25-23.27,5.92-1.73,7.83,1,18.4,28.83,28.67,39.55,24.57,29.91,26.67,38.4,1.11,26.76-3.8,29.65C142.6,234.21,102.21,241.3,88.78,225.66Z"/>
    <path class="fe2ed169-8ece-4f8c-b356-d5b115db69b4" d="M95.63,123.91s17.14,27.27,30.57,41,25,31.08,26.26,43.84S151.29,229.3,145,233s-60.8,4-60.8,4,.2-7.42,4.55-11.3a9.19,9.19,0,0,1,5.94-2.3c10.13-.38,11.89,2,11.89,2s-19.42-20.69-16.73-36.83c2.54-15.19,14-16.56,14-16.56"/>
    <path class="b14d9ef3-60e0-452f-800d-ead3318eec18" d="M87.58,109.94s9.34,7,7.33,12.76c-.76,2.18-12.63,13.16-18.37,15.76-12,5.43-22.3,7-26.49,6s-7.11-13.38-7.11-13.38l20-5.3,14-8.31S87,109.39,87.58,109.94Z"/>
    <path class="e015cd8b-e9c9-4f4a-b0a4-95f5d6a84804" d="M85.79,105.1a9.54,9.54,0,0,1,1,4.53c-.15,2.31-14.58,11.15-18.17,13.45s-17,7.83-21.16,6.87,3.36-9.82,3.36-9.82l10-9.06,12.8-4S84,103.66,85.79,105.1Z"/>
    <path class="bf90dcca-693c-45c0-b4d9-4a4898b88016" d="M77.55,116.73s3.86-6,4.18-7.33,4-3.17,4-3.17,1.2,2,.56,3.48S81.73,114.46,77.55,116.73Z"/>
    <path class="b6b172d5-e095-4b4b-ae7b-0f31df763eaf" d="M94.89,123.89a57,57,0,0,1-4.54,9c-2.5,3.55-7.79,7.65-18.19,12s-19.42,3.77-19.78,2.94-.69-2.34-.17-2.67,7.53.52,19.75-4.76c13.43-5.81,16.85-10.76,18.42-11.94C91.24,127.8,94.89,123.89,94.89,123.89Z"/>
    <path class="a20f5465-c9ba-41a4-983d-29c756932e15" d="M81.33,60.36S74,61.53,76.49,46s3.81-24.29,5.13-23.18,3.85,7.92,5.17,20.56S85.65,60.08,81.33,60.36Z"/>
    <path class="fe2ed169-8ece-4f8c-b356-d5b115db69b4" d="M20.31,87.44c-2-12.77-2.55-23.87.66-25.81-1.14.69-4.65-11.63-4.23-10.38C14,41.62,13.57,35.57,14.58,29.82,15.91,22.3,17.7,19.22,19,19.49c1.9.42,1.78,6.17,3.94,13.24,3.25,10.67,9.33,13.88,11.29,14,2.41.13,4.49-2.45,6.69-3.89a25.2,25.2,0,0,1,5.83-2.54,21.84,21.84,0,0,1,14.77.54C69.14,44.32,72,48.14,72,48.14s4-27.57,8.69-34c2.17-3,3.82-.61,5.48,5.88,1.64,7.87,2.22,12.25,2.35,16.11a94.09,94.09,0,0,0,.94,10.39,133.29,133.29,0,0,1,1.65,17.2c0,1.86-.22,9.82-2.19,13.57,0,0,4.7,11.07,4,17s-4.64,15.21-26.58,17.58c0,0-8.79,10.08-13.83,10.63,0,0-3.81,12.81-13.64,10.7C30.22,132.41,24.05,124.71,23,116,23,116-.23,96,20.31,87.44Z"/>
    <path class="fe2ed169-8ece-4f8c-b356-d5b115db69b4" d="M73,58.59s-1.16-7.81-1-10.45"/>
    <path class="fe2ed169-8ece-4f8c-b356-d5b115db69b4" d="M20,62.29s5.24-15.63,21.62-19.94"/>
    <path class="a85837c9-aeed-4e24-a8f6-2975cd597ca3" d="M21.26,114.68a15.41,15.41,0,0,0,5,1.66c2.37.23,2.19-.21,5.67-.22s5.68.93,8.18.49,10.74-2.89,13.72-8.6,3.67-7.5,4.62-9.66"/>
    <path class="b5ccb0db-7799-4d1b-a391-a708eb44be24" d="M18.26,110.06s-3.15-6.09-3.47-7.28a7.31,7.31,0,0,1,2-6.22C19.08,94.09,27,90.77,34,90.88s7.43.64,14.46,3.27,10.38,4,10.38,4-3.84,8.29-6.47,11.55S43.71,116.2,39,116.06s-9.18-.15-10.69,0a11.83,11.83,0,0,1-5.76-.84C20.68,114.24,20.51,112.9,18.26,110.06Z"/>
    <path class="fe2ed169-8ece-4f8c-b356-d5b115db69b4" d="M15.8,104.06s1.71,10.38,8.46,11.7,4.15,0,7,.36,2.88.79,6.84.7,12-2.35,17.34-12.44"/>
    <path class="fe2ed169-8ece-4f8c-b356-d5b115db69b4" d="M57.93,98.75s.25,11.18-3.59,20.41-7.74,12.93-10.25,14S26.23,136.29,22.7,114.8"/>
    <path class="f968cea4-3408-41b2-8891-810020079f12" d="M49.34,56.94s-2.22,0,0-1.54,5.64-3.09,9.4-.83A17.28,17.28,0,0,1,65.14,62c.68,1.46-3.17-2.69-5-4.25A9.65,9.65,0,0,0,49.34,56.94Z"/>
    <path class="f968cea4-3408-41b2-8891-810020079f12" d="M28.24,61.15s1.13,0,.23-1.53c-1.31-2.31-4.22-2.12-6-.68a7.65,7.65,0,0,0-3,6.37c0,1.26,1.35-3.16,3-4.56C24,59.55,25.78,58.52,28.24,61.15Z"/>
    <path class="bc19c8de-76f3-4100-97d0-df9fc3cab315" d="M67.08,77.54c0,8.45,2.29,12.67-11.32,12.5-8-.11-11.21,6.81-13.15-10.22-1-8.41,1.79-16.45,11.76-17.49C61,61.64,67.08,69.08,67.08,77.54Z"/>
    <path class="bc19c8de-76f3-4100-97d0-df9fc3cab315" d="M32,78.93c1,10.32-.58,11.72-4.44,12.78-3.29.91-5,3-8-9.19-1.68-6.91-1.48-15.35,2.76-16.88C25.62,64.44,31.33,71.68,32,78.93Z"/>
    <path class="b6afc026-4552-472c-a870-313ac6820fd5" d="M30.88,80.62c1.09,10.53-.21,10.44-4,11.25-2.79.6-4.48,1.09-6.77-8.4-1.51-6.26-1.34-13.93,2.18-15.28C25.07,67.13,30,72,30.88,80.62Z"/>
    <path class="b6afc026-4552-472c-a870-313ac6820fd5" d="M67,77.8c.64,3.93.52,5.22-.12,9.8-.42,3-1.71,3.55-2,3.75-2.57,1.9-5.11-1.63-8.85-1.51-6,.19-6.67,1.93-8.61,1C46,90.09,45,87.56,44.21,80.74c-.89-7.41,1.67-14.5,10.95-15.42C61.31,64.71,66,71.48,67,77.8Z"/>
    <g>
      <ellipse class="b919dcf3-793e-430b-8805-6840a5862fe4" cx="26.72" cy="82.74" rx="3.66" ry="8.22" transform="translate(-13.53 5.67) rotate(-9.68)"/>
      <ellipse class="bd1d5ad7-fdda-48be-9117-b4da02872972" cx="26.77" cy="82.93" rx="3.05" ry="7.32" transform="translate(-13.56 5.68) rotate(-9.68)"/>
      <path class="e1215c7a-5731-4a1f-8683-f4b17fa278b5" d="M28.52,83.17c.2,1.77-.51,3.29-1.56,3.41s-2.08-1.22-2.27-3,.56-2.81,1.62-2.92S28.33,81.4,28.52,83.17Z"/>
      <ellipse class="b6afc026-4552-472c-a870-313ac6820fd5" cx="26.81" cy="80.74" rx="1.04" ry="1.22" transform="translate(-16.93 7.77) rotate(-12.57)"/>
    </g>
    <path class="e785f71e-7f7c-4b39-92d1-ee9fdc4e4f3f" d="M25.77,116.83s3,15.57,14.63,11.8,14.77-22.4,14.77-22.4a18.55,18.55,0,0,1-11.23,9.65c-4.34,1.74-7.21.69-12.14.62C29.38,116.47,27.2,117,25.77,116.83Z"/>
    <path class="e8396869-26bd-465e-8199-e4900625ed94" d="M27.6,116.83s-1.69,6.35-1.69,7.92-1.13,12.61,9.65,15.35-.2-14,1-22.38a.7.7,0,0,0-.52-.89C33.27,116.08,28.16,115.93,27.6,116.83Z"/>
    <path class="b7f09a3a-af23-4ed1-82c7-dfb65d0c067f" d="M15.27,98.16a38.43,38.43,0,0,0,7.91,1.15c5.06.3,9.21.27,10.76.26s4.25.75,4.11,1.6-3.67,7.65-12.82,7.72-11.09-8.3-10.89-9.07A2.36,2.36,0,0,1,15.27,98.16Z"/>
    <path class="ef82272c-5fff-4343-9859-a2fee4b4eeab" d="M28.6,105.65a3.34,3.34,0,0,1,1.84-3c1.9-.84,3.67-1.59,4.48-.77s-4.58,4.93-6.29,4"/>
    <path class="ef82272c-5fff-4343-9859-a2fee4b4eeab" d="M15.8,102s-.42-1.23.51-.52,3.17,2.08,3.52,3.71S16.68,105.16,15.8,102Z"/>
    <path class="aabf7bd9-3d2c-4d91-ba55-b3b1148f7e2e" d="M26,109,29.53,115l-1.08-6.4a7.57,7.57,0,0,1-1.29.21c-.81.07-1.18.08-1.18.08"/>
    <path class="fe2ed169-8ece-4f8c-b356-d5b115db69b4" d="M59.7,151.65s5.29,6.3,8,23,.54,44.32.54,44.32a14.88,14.88,0,0,0-14,5.05c-5.85,6.93-1.85,12.9-1.85,12.9l28,.49s.81.1,1.46-9.14,8.66-51.5,9.23-66,.59-16.6.59-16.6"/>
    <g>
      <ellipse class="b919dcf3-793e-430b-8805-6840a5862fe4" cx="53.98" cy="81.25" rx="5.3" ry="8.37" transform="translate(-7.98 5.91) rotate(-5.84)"/>
      <ellipse class="bd1d5ad7-fdda-48be-9117-b4da02872972" cx="54" cy="81.46" rx="4.42" ry="7.44" transform="translate(-6.86 4.99) rotate(-4.97)"/>
      <path class="e1215c7a-5731-4a1f-8683-f4b17fa278b5" d="M56.48,82.23a2.8,2.8,0,0,1-3,2.84,3.33,3.33,0,0,1-2.6-3.62,2.43,2.43,0,0,1,3-2.34A2.85,2.85,0,0,1,56.48,82.23Z"/>
      <ellipse class="b6afc026-4552-472c-a870-313ac6820fd5" cx="54.55" cy="79.34" rx="1.2" ry="1.55" transform="translate(-37.94 106.1) rotate(-71.62)"/>
    </g>
  </g>
</svg>
