<svg id="aae84506-7181-40ad-ba7a-90669468e8f1" data-name="Layer 1" xmlns="http://www.w3.org/2000/svg" width="189.71" height="227.06" viewBox="0 0 189.71 227.06">
  <defs>
    <style>
      .aed2b678-9d4d-4eeb-9500-a0bca3b2dbee {
        opacity: 0.5;
      }

      .f2ebb40a-dbfa-45c5-b192-51543099331c {
        fill: #fff;
      }

      .f8c8959a-1fd4-472d-b1b9-0412dd43be26 {
        fill: #0047ad;
      }

      .a0f62dcb-9b98-4973-8c56-242e987832e2, .f8c8959a-1fd4-472d-b1b9-0412dd43be26 {
        stroke: #001f6d;
      }

      .a0f62dcb-9b98-4973-8c56-242e987832e2, .f8c8959a-1fd4-472d-b1b9-0412dd43be26, .fe588a7d-1468-4d30-af3b-aa0e55667028 {
        stroke-miterlimit: 10;
        stroke-width: 2px;
      }

      .a0f62dcb-9b98-4973-8c56-242e987832e2 {
        fill: #00378e;
      }

      .fe588a7d-1468-4d30-af3b-aa0e55667028 {
        fill: #00479b;
        stroke: #003091;
      }

      .ba057bed-e5d7-4eca-b335-7c2a91fcf0a9 {
        fill: #57a3ff;
      }

      .a866982b-1444-42dc-aa52-78a4136b854a {
        fill: #001b51;
      }
    </style>
  </defs>
  <g>
    <path class="aed2b678-9d4d-4eeb-9500-a0bca3b2dbee" d="M19.14,221.3a9.83,9.83,0,0,1-9.09-13.56c2.15-5.26,4.49-10.42,6.29-14.34,1.15-2.46,5.65-11.74,6.81-14,.41-.81,2-3.89,2.91-5.65a23.39,23.39,0,0,1-3.69-14.9A9,9,0,0,1,29.1,151a77,77,0,0,1,3.27-16.85,7.83,7.83,0,0,1,.4-1.05,8.3,8.3,0,0,1,.28-1.06c.32-1,.66-2,1-3,7.72-21.17,22-44.11,39.32-63,.67-.74,1.43-1.57,2.23-2.43a7.86,7.86,0,0,1,1.08-1,8.28,8.28,0,0,1,.92-1.15,320.65,320.65,0,0,1,23.93-23q.38-.32.78-.6a9.2,9.2,0,0,1,.72-.67c21.15-17.91,39.1-27,53.35-27a28.16,28.16,0,0,1,19.51,7.3c6.41,5.81,15.25,18.12,2.41,35.27a9.09,9.09,0,0,1-3.13,2.63,9,9,0,0,1-3.88,6.95c-2,1.36-4.08,2.91-6.41,4.73l-11.2,9.24q-3.28,2.82-6.72,5.81L144,84.74a8.94,8.94,0,0,1-1.62,1.11,8.61,8.61,0,0,1-1.32,1.45c-2.79,2.45-5.31,4.72-7.7,7-.13.12-.26.24-.4.35a3.59,3.59,0,0,1-.39.39c-4.26,4-8,7.79-11.51,11.56l-.43.44-.39.46-.71.78c-5,5.39-9.74,10.68-14.38,15.79-3.33,3.67-6.57,7.24-9.7,10.67l-.33.34-.3.35-4,4.43c-6.52,7.14-12.69,13.9-18.13,19.42l-9,11.19a9.06,9.06,0,0,1-3.72,6q-.77.54-1.53,1a9,9,0,0,1-6.75,11.92,21.86,21.86,0,0,1-3.56.42L30.78,211.47l-.21.34L27.93,216l-.6.92A9.78,9.78,0,0,1,19.14,221.3Z"/>
    <path class="f2ebb40a-dbfa-45c5-b192-51543099331c" d="M14.64,216.8a9.84,9.84,0,0,1-9.1-13.56C7.7,198,10,192.82,11.84,188.9c1.15-2.46,5.65-11.74,6.81-14,.4-.81,2-3.89,2.91-5.65a23.4,23.4,0,0,1-3.69-14.91,9,9,0,0,1,6.73-7.81,76.86,76.86,0,0,1,3.27-16.85,9.41,9.41,0,0,1,.39-1.05c.08-.35.17-.71.28-1.06.33-1,.67-2,1-3,7.71-21.17,22-44.12,39.32-63l2.23-2.44a8.46,8.46,0,0,1,1.08-1A8.28,8.28,0,0,1,73.12,57,318.69,318.69,0,0,1,97.05,34a7.36,7.36,0,0,1,.78-.6,9,9,0,0,1,.71-.67c21.16-17.91,39.11-27,53.36-27a28.17,28.17,0,0,1,19.51,7.3c6.41,5.81,15.25,18.12,2.41,35.27A9.09,9.09,0,0,1,170.69,51a9,9,0,0,1-3.88,6.95c-2,1.36-4.08,2.91-6.42,4.73L149.2,71.88q-3.28,2.82-6.72,5.81l-2.95,2.55a8.94,8.94,0,0,1-1.62,1.11,8.61,8.61,0,0,1-1.32,1.45c-2.79,2.45-5.31,4.72-7.7,7-.13.12-.26.24-.4.35s-.26.26-.39.39c-4.26,4-8,7.78-11.51,11.56-.14.15-.29.3-.44.44s-.25.31-.38.45-.69.77-.72.79q-7.41,8.08-14.37,15.79c-3.33,3.67-6.57,7.24-9.7,10.67l-.33.34-.3.35-4,4.43c-6.52,7.14-12.69,13.89-18.13,19.42l-9,11.19a9,9,0,0,1-3.71,6c-.51.35-1,.7-1.53,1a9,9,0,0,1-6.75,11.92,21.86,21.86,0,0,1-3.56.42L26.28,207l-.21.34-2.64,4.18-.6.92A9.78,9.78,0,0,1,14.64,216.8Z"/>
    <g>
      <g>
        <g id="ab76a086-c9b3-47e4-9e72-45477d1ef1bd" data-name="3">
          <path class="f8c8959a-1fd4-472d-b1b9-0412dd43be26" d="M133.64,73.43c-6.11-1.37-12.17-2.33-17.71-3A57.29,57.29,0,0,1,130.65,76c-2.61,2.29-5.26,4.66-7.89,7.12-2-.62-4-1.2-5.89-1.71q2.58,1.24,5.07,2.48c-4,3.79-8.07,7.79-12,12-3.13-.5-6.24-.88-9.32-1.12q4.35,1,8.45,2.06l-.68.75c-8.53,9.29-16.6,18.29-24.09,26.48a77.35,77.35,0,0,0-8.85-2.27c2.89.89,5.63,1.89,8.23,3-22.62,24.73-38.54,43.05-46.29,38.05-4.52-3-5.64-15.13-.93-30.58,2.25,2.13,4.59,4.14,7,6q-3.45-4-6.37-7.93c.29-.88.6-1.78.93-2.69C44.43,110.1,56.92,88,75.52,67.71c.7-.77,1.43-1.58,2.21-2.42,2.31,2.49,4.68,4.85,7.09,7q-2.75-4.68-5.15-9.13a313,313,0,0,1,23.25-22.35q1.9,2.28,3.89,4.43c-.86-1.91-1.67-3.8-2.45-5.66,21.16-17.91,46.5-33,61-19.89,8.33,7.55,7.42,15,1.24,23.2a60.94,60.94,0,0,0-19.2.51,56.9,56.9,0,0,1,14.29,7.05C153.07,56.43,143.87,64.58,133.64,73.43Z"/>
          <g>
            <path class="a0f62dcb-9b98-4973-8c56-242e987832e2" d="M37.64,162.25c2.67,1.81,7.92,4,12.66,2.34-5.3,3.73-10.22,4.92-14.3,1.22C33.92,163.93,37.64,162.25,37.64,162.25Z"/>
            <path class="a0f62dcb-9b98-4973-8c56-242e987832e2" d="M26.82,155.22c1.5,3.71,6.52,9.31,9.68,10.37-.63,2.79-1.38,3.12-2.79,3.07S26.05,162.92,26.82,155.22Z"/>
            <path class="a0f62dcb-9b98-4973-8c56-242e987832e2" d="M45.47,176.06c-3.84-1.13-7.08-5.26-8.44-8.31-2.72.9-3,1.67-2.79,3.07S37.87,177.56,45.47,176.06Z"/>
          </g>
          <path class="fe588a7d-1468-4d30-af3b-aa0e55667028" d="M141.2,38.22q-5.88,4.77-11.46,9.87c-.94.84-10.34,9.08-10.34,9.08s-17.25,17.2-19,19C97,79.91,81.25,99.5,78.25,103.56c-12,16.23-22.86,34.18-33.09,51.59-5.1,8.72-9.38,16.93-14.5,25.66C28.12,185.19,26,190,23.4,194.36l-2,3.26-2,3.26-1,1.63-2,3.24-.51.81-.53.8,0,.06a.82.82,0,0,1-1.14.24.84.84,0,0,1-.32-1c1.94-4.71,4-9.36,6.15-14,1.08-2.3,5.52-11.47,6.66-13.74.58-1.14,3.51-6.79,3.51-6.79l3.61-6.74,1.86-3.34c.62-1.11,1.24-2.22,1.87-3.33,1.25-2.22,2.53-4.42,3.83-6.62a523.53,523.53,0,0,1,33.91-50.88q4.64-6.09,9.46-12t9.94-11.64c6.78-7.63,13.86-15,21.28-22,3.72-3.5,7.5-6.93,11.4-10.22s37.79-26,38-25.6S149,31.84,141.2,38.22Z"/>
        </g>
        <polygon class="ba057bed-e5d7-4eca-b335-7c2a91fcf0a9" points="158.89 49.25 132.69 71.93 121.47 70.71 133.57 73.11 161.01 50.46 158.89 49.25"/>
        <polygon class="ba057bed-e5d7-4eca-b335-7c2a91fcf0a9" points="128.39 75.26 129.95 76.15 122.66 82.7 117.42 81.2 121.97 81.75 128.39 75.26"/>
        <polygon class="ba057bed-e5d7-4eca-b335-7c2a91fcf0a9" points="120.07 83.49 121.17 84.08 109.78 95.42 102.66 94.56 109.12 94.32 120.07 83.49"/>
        <polygon class="ba057bed-e5d7-4eca-b335-7c2a91fcf0a9" points="108.25 97.08 106.46 96.65 83.73 122.58 76.78 121.71 84.29 123.64 108.25 97.08"/>
        <path class="ba057bed-e5d7-4eca-b335-7c2a91fcf0a9" d="M80.76,123.87,82.82,125s-23.1,26.74-33.64,34.2C49.18,159.23,75.45,133.75,80.76,123.87Z"/>
      </g>
      <path class="a866982b-1444-42dc-aa52-78a4136b854a" d="M164.65,20.08q-12.9,8.22-25,17.52T116.1,57c-15.15,13.57-29,28.53-40.44,45.4C63.72,118.9,52.54,135.94,42,153.33s-20.3,35.34-27.77,54.33a258.61,258.61,0,0,1,11.89-28.18c4.54-9.15,9.47-18.09,14.56-26.93s10.58-17.46,16.13-26,11.32-17,17.28-25.28l4.5-6.19c1.51-2.06,3-4.17,4.62-6.12L88,83c1.68-1.93,3.41-3.82,5.11-5.73a256,256,0,0,1,22-21.38q11.58-10.05,24-19.07l6.25-4.4c2.12-1.43,4.21-2.89,6.35-4.28C155.9,25.33,160.23,22.63,164.65,20.08Z"/>
    </g>
  </g>
</svg>
