<svg xmlns="http://www.w3.org/2000/svg" width="226.58" height="230.37" viewBox="0 0 226.58 230.37">
  <defs>
    <style>
      .bef2d5f0-41c9-4f5c-9a69-8c2c1240be55 {
        isolation: isolate;
      }

      .badb7d88-876d-43f7-b9eb-e2968e12df55 {
        opacity: 0.5;
      }

      .a1d42d7e-116f-4eab-9a7a-83ddd937bbf2 {
        fill: #fff;
      }

      .eaa14d3b-18aa-4541-ac7f-a81086e75ec9 {
        fill: #645ca8;
      }

      .e13df87a-f7c8-4286-b053-bf5ebaca3572 {
        fill: #8054a0;
        stroke: #3c286f;
      }

      .a174042a-2148-4cb2-ab44-babaec7769de, .b6ba442f-f42a-4e3f-80bc-84b72d572d94, .b809ca1b-6b59-4620-aa6c-0322f18af9c9, .bb04a8a8-15f5-46c2-958d-457bf59d51e0, .e13df87a-f7c8-4286-b053-bf5ebaca3572 {
        stroke-miterlimit: 10;
      }

      .b6ba442f-f42a-4e3f-80bc-84b72d572d94, .e13df87a-f7c8-4286-b053-bf5ebaca3572 {
        stroke-width: 2px;
      }

      .a597c605-6f1e-423f-aea6-51fbf3e6609d {
        fill: #f5aecd;
      }

      .b809ca1b-6b59-4620-aa6c-0322f18af9c9 {
        fill: #f5d072;
      }

      .a174042a-2148-4cb2-ab44-babaec7769de, .b809ca1b-6b59-4620-aa6c-0322f18af9c9, .bb04a8a8-15f5-46c2-958d-457bf59d51e0 {
        stroke: #70645a;
      }

      .b4c9e5cc-fd92-4cac-8e5b-5925d4004127 {
        fill: #dbb45c;
      }

      .a4ff210b-83f4-4e9f-ad1d-da70a4df7014, .b4c9e5cc-fd92-4cac-8e5b-5925d4004127, .fcc510cf-8fec-49fb-906c-41f008408598 {
        mix-blend-mode: multiply;
      }

      .fcc510cf-8fec-49fb-906c-41f008408598 {
        fill: #773c19;
      }

      .b6ba442f-f42a-4e3f-80bc-84b72d572d94 {
        fill: #d0802a;
        stroke: #5a3513;
      }

      .e15b87fd-2b34-40b8-bf9f-9d1d16aa692e {
        fill: #214080;
      }

      .a4ff210b-83f4-4e9f-ad1d-da70a4df7014 {
        fill: #c8b1d5;
      }

      .a174042a-2148-4cb2-ab44-babaec7769de, .f0e95edf-7c3b-4666-a696-be362fd33b11 {
        fill: #f6fbfd;
      }

      .b4226128-2fce-4220-9997-2c8f089a3030 {
        fill: #451f16;
      }

      .bb04a8a8-15f5-46c2-958d-457bf59d51e0 {
        fill: #7b6747;
      }
    </style>
  </defs>
  <g class="bef2d5f0-41c9-4f5c-9a69-8c2c1240be55">
    <g id="ac314adb-c27d-4f6a-bfef-3fb545fde735" data-name="Layer 1">
      <g>
        <path class="badb7d88-876d-43f7-b9eb-e2968e12df55" d="M224.18,202.84a8.48,8.48,0,0,0,0-2.41l-.07-.43c-.05-.33-.13-.73-.22-1.15l-.05-.26c0-.14-.06-.28-.1-.42l-.06-.26c-.1-.41-.21-.8-.31-1.12l-.13-.43a8.14,8.14,0,0,0-.87-1.89,8.34,8.34,0,0,0-.67-2.07l-.63-1.31c-.06-.12-.12-.24-.19-.36l-.71-1.31a8,8,0,0,0-1.25-1.72,8.2,8.2,0,0,0-1-1.78l-.84-1.09c-.1-.13-.2-.24-.3-.36l-.94-1.07a8.12,8.12,0,0,0-1.5-1.32,8.29,8.29,0,0,0-1.49-1.53l-1-.82c-.12-.1-.25-.19-.38-.28l-1.12-.79a7.83,7.83,0,0,0-1.7-.88,7.84,7.84,0,0,0-1.75-1.1l-1.15-.54c-.14-.06-.28-.13-.42-.18l-1.23-.49q-.34-.14-.72-.24a8.14,8.14,0,0,0-.93-.21l-.18,0a8.53,8.53,0,0,0-1.8-.63l-1.21-.27-.41-.08-1.27-.21-.45-.05-.27,0-.6,0-.49,0a8.48,8.48,0,0,0-1.81-.24l-1.41,0-1.49,0a7.85,7.85,0,0,0-1.75.24c-.16,0-.33,0-.5,0a8.21,8.21,0,0,0-1.21.09l-1.24.18L186,174l-1.26.23-.37.08a8.55,8.55,0,0,0-1.35.45,9.4,9.4,0,0,0-1.63.3l-1.22.37-.26.09-1.32.45a8.17,8.17,0,0,0-1.49.71,7.93,7.93,0,0,0-1.31.41l-2.58,1.11a8.34,8.34,0,0,0-.89.47,9.1,9.1,0,0,0-1,.29l-2.42.89-.23.09a6.41,6.41,0,0,0-.75.35,6.65,6.65,0,0,0-.93.2l-2.62.76c-.26.08-.51.18-.75.28a7.93,7.93,0,0,0-.89.13l-2.65.54c-.22,0-.44.12-.65.18a7.14,7.14,0,0,0-.93.06l-1.13.12-1.21.11c-.25,0-.49.06-.74.1s-.51-.05-.77-.06l-1.07,0-1.13-.07-.49,0h-.08l-.49-.14-1-.22-1.13-.34-.09,0-.3-.2-.31-.17-.15-.09-.22-.16-.37-.3h0v0l-.23-.35-.09-.14-.07-.16s-.2-.48-.21-.51l-.07-.14c0-.13,0-.26,0-.4l-.05-.46s0-.46,0-.46v-.42s0-.69,0-.74q0-.33,0-.66c.05-.14.08-.29.12-.43l2.38.09h.35a8.28,8.28,0,0,0,1.23-.1,8.66,8.66,0,0,0,1.25.1h.32l2.48-.09a9.1,9.1,0,0,0,1.58-.2l.61,0h0c.29,0,.65,0,.94-.05l2.49-.27a9.4,9.4,0,0,0,1.51-.31h.05a8.78,8.78,0,0,0,1.53-.13l2.47-.45a8.47,8.47,0,0,0,1.59-.43,9.19,9.19,0,0,0,1.5-.23l2.47-.63a8.77,8.77,0,0,0,1.54-.54,8.92,8.92,0,0,0,1.53-.35l2.45-.82a7.76,7.76,0,0,0,1.5-.66,8.06,8.06,0,0,0,1.58-.5l2.39-1a9,9,0,0,0,1.56-.86,7.75,7.75,0,0,0,1.55-.63l2.3-1.23a9.23,9.23,0,0,0,1.54-1,9.3,9.3,0,0,0,1.47-.76s1.28-.84,1.34-.89l1.1-.77a8.67,8.67,0,0,0,1.37-1.19,8.19,8.19,0,0,0,1.52-1l1.12-1,1-.91a8.15,8.15,0,0,0,.92-.94,8.45,8.45,0,0,0,1.15-.84l2.1-1.8a9.6,9.6,0,0,0,1.13-1.17,9,9,0,0,0,1.29-1l1-1,1.12-1.11a9.7,9.7,0,0,0,1.15-1.41,9.33,9.33,0,0,0,1.38-1.36l1-1.17.21-.27.87-1.16a8.86,8.86,0,0,0,1.12-2,9.33,9.33,0,0,0,1.25-1.78l.22-.41c.16-.3.34-.66.52-1,0,0,.21-.44.25-.55l.23-.52c.15-.35.27-.64.34-.83l.17-.44a9.17,9.17,0,0,0,.59-2.59,9.14,9.14,0,0,0,.73-2.58l.07-.52c0-.26.05-.5.07-.75l0-.26s.05-.9.05-.9c0-.76,0-1.47,0-1.93,0-.06,0-.66,0-.66a8.89,8.89,0,0,0-.76-3,9,9,0,0,0-.74-2.94v0s-.16-.36-.38-.79a16.49,16.49,0,0,0-1-1.78l-.06-.09a18.4,18.4,0,0,0-1.14-1.5l-.37-.43-.08-.09a8.66,8.66,0,0,0-2.11-1.72,8.68,8.68,0,0,0-1.89-1.57,20.21,20.21,0,0,0-1.87-1l-.38-.17c-.36-.17-.7-.31-1-.43l-.32-.12a8.56,8.56,0,0,0-2-.55,8.61,8.61,0,0,0-2.05-.65l-1.27-.23-.48-.07-1.19-.15a9.64,9.64,0,0,0-1.08-.06c-.31,0-.62,0-.93,0a8.62,8.62,0,0,0-1.53-.14h-.47l-.61,0c-.35,0-.75,0-1.1.08l-.91.09-.62.09a8.42,8.42,0,0,0-1.84.47,8.27,8.27,0,0,0-1.78.29l-1.27.36-.29.09-1.19.39a8.29,8.29,0,0,0-1.61.71,8.73,8.73,0,0,0-1.62.52l-1.22.53-1.35.63a9.47,9.47,0,0,0-1.48.88,9.7,9.7,0,0,0-1.52.66l-2.31,1.32a8.68,8.68,0,0,0-1.4,1,8.77,8.77,0,0,0-1.42.75l-2.26,1.51a8.5,8.5,0,0,0-1.26,1,8.12,8.12,0,0,0-1.38.85l-2.18,1.66a9.07,9.07,0,0,0-1.2,1.11l-.3.19a20.56,20.56,0,0,0,.16-17.35c11.16-7.08,13.94-19.87,12.48-30.27a86.5,86.5,0,0,0-2-8.94c-1.05-4.06-3.52-13.57-2.47-16,.67-1.23,16.2-30.29.68-42.17a20.3,20.3,0,0,0-12.65-4.1c-10.44,0-23.08,6.49-37.58,19.29-9.16,8.09-15.13,19.85-19,30.64a24.15,24.15,0,0,0-3.55-1L98,56a35.73,35.73,0,0,1,.55-9.67c4.27-3.23,6.78-8.79,7.39-10.26,3.34-8.07.55-12.56-1.41-14.52a9.13,9.13,0,0,0-6.49-2.69C89.48,18.86,84.5,30.61,84,32a15.94,15.94,0,0,0-1.28,8.55,50.74,50.74,0,0,0-1.41,17.09c-.61.23-1.21.47-1.79.74a35.94,35.94,0,0,1-4.06-10.39,24.84,24.84,0,0,0,2.64-10.08c.65-10.4-4.12-13.87-7-15a9.1,9.1,0,0,0-3.37-.65c-2.62,0-8.93,1.19-10.9,12.2a23.79,23.79,0,0,0,.43,11.84,84.27,84.27,0,0,0-17.82-7.13,51.88,51.88,0,0,0-13.11-2c-9.5,0-14.21,4.11-16.49,7.55-3.34,5-3.54,12-.54,19,4.83,11.37,10.34,19.48,16.85,24.78,1.34,1.09,3.67,4.76,4.21,17.12.6,13.53,9.47,27.17,27.94,27.27a23,23,0,0,0,3.31,7.81C66.41,148.14,74.91,153,83.2,153a21.36,21.36,0,0,0,15.18-6.33,24.15,24.15,0,0,0,1.67-1.83,16,16,0,0,0,2.11.31c.58,0,1.1.08,1.58.1l0,.14s.26,1,.28,1a8.76,8.76,0,0,0,.71,1.76,9.17,9.17,0,0,0,.6,2.13l.61,1.44.18.38.64,1.33a9,9,0,0,0,1.13,1.74,9.59,9.59,0,0,0,1,1.9l.85,1.22c.07.11.15.21.23.32s.93,1.21,1,1.26a7.75,7.75,0,0,0,1.28,1.28,8.69,8.69,0,0,0,1.25,1.54l1,1,.25.24,1,.9a9.06,9.06,0,0,0,1.5,1.06,9.75,9.75,0,0,0,1.42,1.21l1.11.76.25.16,1.14.72a8.56,8.56,0,0,0,1.5.71,9,9,0,0,0,1.51,1l1.18.57.23.11,1.34.6a9,9,0,0,0,1.39.44,9.11,9.11,0,0,0,1.62.73l.37.12a8.61,8.61,0,0,0-.05,1.68,8.24,8.24,0,0,0-.37,2.34v.48c0,.38,0,.82,0,1.29V179c0,.12,0,.24,0,.36v.24c0,.47.07.94.11,1.29l0,.48a8.83,8.83,0,0,0,.72,2.57,8.6,8.6,0,0,0,.64,2.75l.15.35c.2.51.42.94.58,1.26l.1.21.26.49.27.46a10.26,10.26,0,0,0,.55.88l.25.38a8.32,8.32,0,0,0,1.81,1.93,8.38,8.38,0,0,0,1.8,2l.29.24c.29.23.63.48,1,.73l.15.11.36.24.38.24c.25.16.48.29.69.41l.43.24a8.35,8.35,0,0,0,2,.81,7.84,7.84,0,0,0,2,.91l1.23.36.51.13,1.24.27a8.82,8.82,0,0,0,1.78.19h.14a8.53,8.53,0,0,0,1.84.32l1.25.07H153l1.38,0a8.22,8.22,0,0,0,1.58-.15,9.08,9.08,0,0,0,.91.05,6.74,6.74,0,0,0,.77,0l1.25-.11,1.47-.18a7.68,7.68,0,0,0,1.61-.35,8.84,8.84,0,0,0,1.63-.18l2.48-.53a8.55,8.55,0,0,0,1.6-.52,9.29,9.29,0,0,0,1.52-.29l2.45-.74a8.14,8.14,0,0,0,1.46-.6,8.25,8.25,0,0,0,1.51-.41l2.43-.91a8.67,8.67,0,0,0,1.4-.69,8,8,0,0,0,1.43-.47l2.4-1.06a7.85,7.85,0,0,0,.95-.51,6,6,0,0,0,.83-.24l1.11-.39,1.12-.35.76-.29c.23,0,.45,0,.67-.09l1.21-.24,1.08-.18q.39-.06.75-.15l.45,0,1.3,0,1.19,0,.54,0,.63.14,1,.16,1,.21.62.1.55.25.93.36.92.42a4.87,4.87,0,0,0,.53.21l.29.23,1,.72.82.66c.19.14.37.28.57.4a3.71,3.71,0,0,0,.23.32l.84,1,.71.91c.15.18.3.35.46.52s.22.47.34.7l.59,1.07.54,1.13a7.63,7.63,0,0,0,.42.73,7.55,7.55,0,0,0,.19.79l.18.59.09.38.09.43s.09.54.09.54c0,.26.1.51.16.76a8.86,8.86,0,0,0-.07.9c0,.06,0,.53,0,1,0,0,0,.51-.05.58s-.08.61-.08.61a9,9,0,0,0-.06,1,9.25,9.25,0,0,0-.32.93l-.36,1.33c-.18.55-.32,1-.43,1.36h0a8.24,8.24,0,0,0-.24,1,.13.13,0,0,0,0,.06,8.9,8.9,0,0,0-.52,1l-.58,1.33c-.23.48-.43.9-.6,1.28h0a8.35,8.35,0,0,0,2.67,10.41,8.15,8.15,0,0,0,4.76,1.52h0a8.32,8.32,0,0,0,7.48-4.75l.65-1.39c0-.07.71-1.62.71-1.62a7.87,7.87,0,0,0,.59-2,8.51,8.51,0,0,0,.83-1.78l.47-1.49c0-.11.07-.22.1-.33l.41-1.52a8.6,8.6,0,0,0,.3-2.17,8.32,8.32,0,0,0,.53-2.06l.06-.47c0-.3.08-.67.12-1.06,0,0,0-.4,0-.46.08-1.05.1-2.08.1-2.15A8.3,8.3,0,0,0,224.18,202.84ZM127.4,151l-.87-.77-.8-.77c-.18-.18-.37-.34-.56-.5s-.27-.39-.42-.58l-.72-.94-.67-.95a5.79,5.79,0,0,0-.43-.55c-.1-.25-.2-.48-.31-.72l-.55-1.12s-.48-1.12-.48-1.14-.12-.21-.17-.33a8.73,8.73,0,0,0,6.38-3.18,24.51,24.51,0,0,0,8.78,1.55h0a32.19,32.19,0,0,0,13.1-2.94c-.09.12-.17.24-.25.37a8.91,8.91,0,0,0-1.22,1.16l-1.88,2.21a9.07,9.07,0,0,0-1,1.43,9.26,9.26,0,0,0-1.17,1.25l-1.77,2.36a8.74,8.74,0,0,0-.91,1.52,9.05,9.05,0,0,0-1.14,1.4l-1.61,2.51a8.36,8.36,0,0,0-.85,1.69,8.33,8.33,0,0,0-1,1.45l-.24.43-1.18-.38c-.22-.07-.45-.11-.68-.16a8.29,8.29,0,0,0-.84-.43l-1-.46-1-.48c-.25-.12-.5-.22-.76-.32l-.68-.47-1-.59-.92-.63c-.2-.13-.41-.24-.62-.35A7.94,7.94,0,0,0,127.4,151Zm46.8-12,2.24-1.68c.28-.22.54-.46.79-.7a9.92,9.92,0,0,0,1-.53l2.42-1.6c.24-.17.46-.34.68-.52a9.37,9.37,0,0,0,.9-.44l2.37-1.33a8.25,8.25,0,0,0,.76-.49c.33-.11.64-.23,1-.37l1.09-.51,1.12-.48a8.29,8.29,0,0,0,.84-.43,7,7,0,0,0,.76-.18l1.07-.34,1.21-.34.47-.16.71-.07.26,0,.62-.07.87,0,.48-.05.49.09,1,.12.88.17.45.08h0l.33.15.39.16.29.13.32.18.14.09h0v.38l0,.37s-.05.43-.06.46l0,.42c-.06.13-.13.26-.19.4l-.21.54-.16.36-.19.39-.29.55q-.18.34-.33.69c-.16.18-.32.36-.47.56l-.78,1-.82,1c-.19.24-.37.48-.54.73s-.52.44-.77.68l-.94.94-1.05,1a9.86,9.86,0,0,0-.69.76,9.29,9.29,0,0,0-.95.7l-2.25,1.94a8.33,8.33,0,0,0-.83.85,8.67,8.67,0,0,0-1.07.76l-1.12,1-1.09.93a8.14,8.14,0,0,0-.67.64,7.83,7.83,0,0,0-.79.47l-1,.7-1.06.7a7.17,7.17,0,0,0-.76.57c-.27.11-.54.22-.81.36l-2.37,1.26q-.39.21-.75.45a7,7,0,0,0-.87.32l-2.46,1a8,8,0,0,0-.88.44,8.48,8.48,0,0,0-.87.21l-2.45.82a7.68,7.68,0,0,0-.88.35,7.94,7.94,0,0,0-1,.18l-2.47.62c-.31.08-.62.18-.92.29s-.63.06-1,.11l-2.48.44a9,9,0,0,0-.93.23h0c-.29,0-.65,0-.93.05l-2.5.27-.65.1a3.73,3.73,0,0,0,.26-.3l1.78-2.33.21-.3c.16-.23.31-.47.45-.71a9.29,9.29,0,0,0,.83-.83l1.93-2.24a7.44,7.44,0,0,0,.67-.92,6.7,6.7,0,0,0,.89-.79s2-2.08,2-2.1a8.42,8.42,0,0,0,.71-.87,8.25,8.25,0,0,0,.93-.75l2.1-2a8.28,8.28,0,0,0,.75-.82,9.11,9.11,0,0,0,.95-.68l2.12-1.79.32-.28a7.14,7.14,0,0,0,.54-.56A9,9,0,0,0,174.2,139Z"/>
        <path class="a1d42d7e-116f-4eab-9a7a-83ddd937bbf2" d="M219.18,197.84a8.48,8.48,0,0,0,0-2.41l-.07-.43c-.05-.33-.13-.73-.22-1.15l-.05-.26c0-.14-.06-.28-.1-.42l-.06-.26c-.1-.41-.21-.8-.31-1.12l-.13-.43a8.14,8.14,0,0,0-.87-1.89,8.34,8.34,0,0,0-.67-2.07l-.63-1.31c-.06-.12-.12-.24-.19-.36l-.71-1.31a8,8,0,0,0-1.25-1.72,8.2,8.2,0,0,0-1-1.78l-.84-1.09c-.1-.13-.2-.24-.3-.36l-.94-1.07a8.12,8.12,0,0,0-1.5-1.32,8.29,8.29,0,0,0-1.49-1.53l-1-.82c-.12-.1-.25-.19-.38-.28l-1.12-.79a7.83,7.83,0,0,0-1.7-.88,7.84,7.84,0,0,0-1.75-1.1l-1.15-.54c-.14-.06-.28-.13-.42-.18l-1.23-.49q-.34-.14-.72-.24a8.14,8.14,0,0,0-.93-.21l-.18,0a8.53,8.53,0,0,0-1.8-.63l-1.21-.27-.41-.08-1.27-.21-.45-.05-.27,0-.6,0-.49,0a8.48,8.48,0,0,0-1.81-.24l-1.41,0-1.49,0a7.85,7.85,0,0,0-1.75.24c-.16,0-.33,0-.5,0a8.21,8.21,0,0,0-1.21.09l-1.24.18L181,169l-1.26.23-.37.08a8.55,8.55,0,0,0-1.35.45,9.4,9.4,0,0,0-1.63.3l-1.22.37-.26.09-1.32.45a8.17,8.17,0,0,0-1.49.71,7.93,7.93,0,0,0-1.31.41l-2.58,1.11a8.34,8.34,0,0,0-.89.47,9.1,9.1,0,0,0-1,.29l-2.42.89-.23.09a6.41,6.41,0,0,0-.75.35,6.65,6.65,0,0,0-.93.2l-2.62.76c-.26.08-.51.18-.75.28a7.93,7.93,0,0,0-.89.13l-2.65.54c-.22,0-.44.12-.65.18a7.14,7.14,0,0,0-.93.06l-1.13.12-1.21.11c-.25,0-.49.06-.74.1s-.51-.05-.77-.06l-1.07,0-1.13-.07-.49,0h-.08l-.49-.14-1-.22-1.13-.34-.09,0-.3-.2-.31-.17-.15-.09-.22-.16-.37-.3h0v0l-.23-.35-.09-.14-.07-.16s-.2-.48-.21-.51l-.07-.14c0-.13,0-.26,0-.4l-.05-.46s0-.46,0-.46v-.42s0-.69,0-.74q0-.33,0-.66c.05-.14.08-.29.12-.43l2.38.09h.35a8.28,8.28,0,0,0,1.23-.1,8.66,8.66,0,0,0,1.25.1h.32l2.48-.09a9.1,9.1,0,0,0,1.58-.2l.61,0h0c.29,0,.65,0,.94-.05l2.49-.27a9.4,9.4,0,0,0,1.51-.31h.05a8.78,8.78,0,0,0,1.53-.13l2.47-.45a8.47,8.47,0,0,0,1.59-.43,9.19,9.19,0,0,0,1.5-.23l2.47-.63a8.77,8.77,0,0,0,1.54-.54,8.92,8.92,0,0,0,1.53-.35l2.45-.82a7.76,7.76,0,0,0,1.5-.66,8.06,8.06,0,0,0,1.58-.5l2.39-1a9,9,0,0,0,1.56-.86,7.75,7.75,0,0,0,1.55-.63l2.3-1.23a9.23,9.23,0,0,0,1.54-1,9.3,9.3,0,0,0,1.47-.76s1.28-.84,1.34-.89l1.1-.77a8.67,8.67,0,0,0,1.37-1.19,8.19,8.19,0,0,0,1.52-1l1.12-1,1-.91a8.15,8.15,0,0,0,.92-.94,8.45,8.45,0,0,0,1.15-.84l2.1-1.8a9.6,9.6,0,0,0,1.13-1.17,9,9,0,0,0,1.29-1l1-1,1.12-1.11a9.7,9.7,0,0,0,1.15-1.41,9.33,9.33,0,0,0,1.38-1.36l1-1.17.21-.27.87-1.16a8.86,8.86,0,0,0,1.12-2,9.33,9.33,0,0,0,1.25-1.78l.22-.41c.16-.3.34-.66.52-1,0,0,.21-.44.25-.55l.23-.52c.15-.35.27-.64.34-.83l.17-.44a9.17,9.17,0,0,0,.59-2.59,9.14,9.14,0,0,0,.73-2.58l.07-.52c0-.26.05-.5.07-.75l0-.26s.05-.9.05-.9c0-.76,0-1.47,0-1.93,0-.06,0-.66,0-.66a8.89,8.89,0,0,0-.76-3,9,9,0,0,0-.74-2.94v0s-.16-.36-.38-.79a16.49,16.49,0,0,0-1-1.78l-.06-.09a18.4,18.4,0,0,0-1.14-1.5l-.37-.43-.08-.09a8.66,8.66,0,0,0-2.11-1.72,8.68,8.68,0,0,0-1.89-1.57,20.21,20.21,0,0,0-1.87-1l-.38-.17c-.36-.17-.7-.31-1-.43l-.32-.12a8.56,8.56,0,0,0-2-.55,8.61,8.61,0,0,0-2.05-.65l-1.27-.23-.48-.07-1.19-.15a9.64,9.64,0,0,0-1.08-.06c-.31,0-.62,0-.93,0a8.62,8.62,0,0,0-1.53-.14h-.47l-.61,0c-.35,0-.75,0-1.1.08l-.91.09-.62.09a8.42,8.42,0,0,0-1.84.47,8.27,8.27,0,0,0-1.78.29l-1.27.36-.29.09-1.19.39a8.29,8.29,0,0,0-1.61.71,8.73,8.73,0,0,0-1.62.52l-1.22.53-1.35.63a9.47,9.47,0,0,0-1.48.88,9.7,9.7,0,0,0-1.52.66l-2.31,1.32a8.68,8.68,0,0,0-1.4,1,8.77,8.77,0,0,0-1.42.75l-2.26,1.51a8.5,8.5,0,0,0-1.26,1,8.12,8.12,0,0,0-1.38.85l-2.18,1.66a9.07,9.07,0,0,0-1.2,1.11l-.3.19a20.56,20.56,0,0,0,.16-17.35C168.69,96.6,171.47,83.81,170,73.41a86.5,86.5,0,0,0-2-8.94c-1.05-4.06-3.52-13.57-2.47-16,.67-1.23,16.2-30.29.68-42.17a20.3,20.3,0,0,0-12.65-4.1c-10.44,0-23.08,6.49-37.58,19.29-9.16,8.09-15.13,19.85-19,30.64a24.15,24.15,0,0,0-3.55-1L93,51a35.73,35.73,0,0,1,.55-9.67c4.27-3.23,6.78-8.79,7.39-10.26,3.34-8.07.55-12.56-1.41-14.52a9.13,9.13,0,0,0-6.49-2.69C84.48,13.86,79.5,25.61,79,27a15.94,15.94,0,0,0-1.28,8.55,50.74,50.74,0,0,0-1.41,17.09c-.61.23-1.21.47-1.79.74a35.94,35.94,0,0,1-4.06-10.39,24.84,24.84,0,0,0,2.64-10.08c.65-10.4-4.12-13.87-7-15a9.1,9.1,0,0,0-3.37-.65c-2.62,0-8.93,1.19-10.9,12.2a23.79,23.79,0,0,0,.43,11.84,84.27,84.27,0,0,0-17.82-7.13,51.88,51.88,0,0,0-13.11-2c-9.5,0-14.21,4.11-16.49,7.55-3.34,5-3.54,12-.54,19C9.07,70.07,14.58,78.18,21.09,83.48c1.34,1.09,3.67,4.76,4.21,17.12.6,13.53,9.47,27.17,27.94,27.27a23,23,0,0,0,3.31,7.81C61.41,143.14,69.91,148,78.2,148a21.36,21.36,0,0,0,15.18-6.33,24.15,24.15,0,0,0,1.67-1.83,16,16,0,0,0,2.11.31c.58,0,1.1.08,1.58.1l0,.14s.26,1,.28,1a8.76,8.76,0,0,0,.71,1.76,9.17,9.17,0,0,0,.6,2.13l.61,1.44.18.38.64,1.33a9,9,0,0,0,1.13,1.74,9.59,9.59,0,0,0,1,1.9l.85,1.22c.07.11.15.21.23.32s.93,1.21,1,1.26a7.75,7.75,0,0,0,1.28,1.28,8.69,8.69,0,0,0,1.25,1.54l1,1,.25.24,1,.9a9.06,9.06,0,0,0,1.5,1.06,9.75,9.75,0,0,0,1.42,1.21l1.11.76.25.16,1.14.72a8.56,8.56,0,0,0,1.5.71,9,9,0,0,0,1.51,1l1.18.57.23.11,1.34.6a9,9,0,0,0,1.39.44,9.11,9.11,0,0,0,1.62.73l.37.12a8.61,8.61,0,0,0,0,1.68,8.24,8.24,0,0,0-.37,2.34v.48c0,.38,0,.82,0,1.29V174c0,.12,0,.24,0,.36v.24c0,.47.07.94.11,1.29l0,.48a8.83,8.83,0,0,0,.72,2.57,8.6,8.6,0,0,0,.64,2.75l.15.35c.2.51.42.94.58,1.26l.1.21.26.49.27.46a10.26,10.26,0,0,0,.55.88l.25.38a8.32,8.32,0,0,0,1.81,1.93,8.38,8.38,0,0,0,1.8,2l.29.24c.29.23.63.48,1,.73l.15.11.36.24.38.24c.25.16.48.29.69.41l.43.24a8.35,8.35,0,0,0,2,.81,7.84,7.84,0,0,0,2,.91l1.23.36.51.13,1.24.27a8.82,8.82,0,0,0,1.78.19h.14a8.53,8.53,0,0,0,1.84.32l1.25.07H148l1.38,0a8.22,8.22,0,0,0,1.58-.15,9.08,9.08,0,0,0,.91.05,6.74,6.74,0,0,0,.77,0l1.25-.11,1.47-.18a7.68,7.68,0,0,0,1.61-.35,8.84,8.84,0,0,0,1.63-.18l2.48-.53a8.55,8.55,0,0,0,1.6-.52,9.29,9.29,0,0,0,1.52-.29l2.45-.74a8.14,8.14,0,0,0,1.46-.6,8.25,8.25,0,0,0,1.51-.41l2.43-.91a8.67,8.67,0,0,0,1.4-.69,8,8,0,0,0,1.43-.47l2.4-1.06a7.85,7.85,0,0,0,.95-.51,6,6,0,0,0,.83-.24l1.11-.39,1.12-.35.76-.29c.23,0,.45,0,.67-.09l1.21-.24,1.08-.18q.39-.06.75-.15l.45,0,1.3,0,1.19,0,.54,0,.63.14,1,.16,1,.21.62.1.55.25.93.36.92.42a4.87,4.87,0,0,0,.53.21l.29.23,1,.72.82.66c.19.14.37.28.57.4a3.71,3.71,0,0,0,.23.32l.84,1,.71.91c.15.18.3.35.46.52s.22.47.34.7l.59,1.07.54,1.13a7.63,7.63,0,0,0,.42.73,7.55,7.55,0,0,0,.19.79l.18.59.09.38.09.43s.09.54.09.54c0,.26.1.51.16.76a8.86,8.86,0,0,0-.07.9c0,.06,0,.53,0,1,0,0,0,.51-.05.58s-.08.61-.08.61a9,9,0,0,0-.06,1,9.25,9.25,0,0,0-.32.93l-.36,1.33c-.18.55-.32,1-.43,1.36h0a8.24,8.24,0,0,0-.24,1,.13.13,0,0,0,0,.06,8.9,8.9,0,0,0-.52,1l-.58,1.33c-.23.48-.43.9-.6,1.28h0a8.35,8.35,0,0,0,2.67,10.41,8.15,8.15,0,0,0,4.76,1.52h0a8.32,8.32,0,0,0,7.48-4.75l.65-1.39c0-.07.71-1.62.71-1.62a7.87,7.87,0,0,0,.59-2,8.51,8.51,0,0,0,.83-1.78l.47-1.49c0-.11.07-.22.1-.33l.41-1.52a8.6,8.6,0,0,0,.3-2.17,8.32,8.32,0,0,0,.53-2.06l.06-.47c0-.3.08-.67.12-1.06,0,0,0-.4,0-.46.08-1.05.1-2.08.1-2.15A8.3,8.3,0,0,0,219.18,197.84ZM122.4,146l-.87-.77-.8-.77c-.18-.18-.37-.34-.56-.5s-.27-.39-.42-.58l-.72-.94-.67-.95a5.79,5.79,0,0,0-.43-.55c-.1-.25-.2-.48-.31-.72l-.55-1.12s-.48-1.12-.48-1.14-.12-.21-.17-.33a8.73,8.73,0,0,0,6.38-3.18,24.51,24.51,0,0,0,8.78,1.55h0a32.19,32.19,0,0,0,13.1-2.94c-.09.12-.17.24-.25.37a8.91,8.91,0,0,0-1.22,1.16l-1.88,2.21a9.07,9.07,0,0,0-1,1.43,9.26,9.26,0,0,0-1.17,1.25l-1.77,2.36a8.74,8.74,0,0,0-.91,1.52,9.05,9.05,0,0,0-1.14,1.4l-1.61,2.51a8.36,8.36,0,0,0-.85,1.69,8.33,8.33,0,0,0-1,1.45l-.24.43-1.18-.38c-.22-.07-.45-.11-.68-.16a8.29,8.29,0,0,0-.84-.43l-1-.46-1-.48c-.25-.12-.5-.22-.76-.32l-.68-.47-1-.59-.92-.63c-.2-.13-.41-.24-.62-.35A7.94,7.94,0,0,0,122.4,146Zm46.8-12,2.24-1.68c.28-.22.54-.46.79-.7a9.92,9.92,0,0,0,1-.53l2.42-1.6c.24-.17.46-.34.68-.52a9.37,9.37,0,0,0,.9-.44l2.37-1.33a8.25,8.25,0,0,0,.76-.49c.33-.11.64-.23,1-.37l1.09-.51,1.12-.48a8.29,8.29,0,0,0,.84-.43,7,7,0,0,0,.76-.18l1.07-.34,1.21-.34.47-.16.71-.07.26,0,.62-.07.87,0,.48,0,.49.09,1,.12.88.17.45.08h0l.33.15.39.16.29.13.32.18.14.09h0v.38l0,.37s-.05.43-.06.46l0,.42c-.06.13-.13.26-.19.4l-.21.54-.16.36-.19.39-.29.55q-.18.34-.33.69c-.16.18-.32.36-.47.56l-.78,1-.82,1c-.19.24-.37.48-.54.73s-.52.44-.77.68l-.94.94-1.05,1a9.86,9.86,0,0,0-.69.76,9.29,9.29,0,0,0-.95.7l-2.25,1.94a8.33,8.33,0,0,0-.83.85,8.67,8.67,0,0,0-1.07.76l-1.12,1-1.09.93a8.14,8.14,0,0,0-.67.64,7.83,7.83,0,0,0-.79.47l-1,.7-1.06.7a7.17,7.17,0,0,0-.76.57c-.27.11-.54.22-.81.36l-2.37,1.26q-.39.21-.75.45a7,7,0,0,0-.87.32l-2.46,1a8,8,0,0,0-.88.44,8.48,8.48,0,0,0-.87.21l-2.45.82a7.68,7.68,0,0,0-.88.35,7.94,7.94,0,0,0-1,.18l-2.47.62c-.31.08-.62.18-.92.29s-.63.06-1,.11l-2.48.44a9,9,0,0,0-.93.23h0c-.29,0-.65,0-.93.05l-2.5.27-.65.1a3.73,3.73,0,0,0,.26-.3l1.78-2.33.21-.3c.16-.23.31-.47.45-.71a9.29,9.29,0,0,0,.83-.83l1.93-2.24a7.44,7.44,0,0,0,.67-.92,6.7,6.7,0,0,0,.89-.79s2-2.08,2-2.1a8.42,8.42,0,0,0,.71-.87,8.25,8.25,0,0,0,.93-.75l2.1-2a8.28,8.28,0,0,0,.75-.82,9.11,9.11,0,0,0,.95-.68l2.12-1.79.32-.28a7.14,7.14,0,0,0,.54-.56A9,9,0,0,0,169.2,134Z"/>
        <g>
          <g>
            <path class="eaa14d3b-18aa-4541-ac7f-a81086e75ec9" d="M206.85,214.71l.66-1.38c.31-.69.61-1.39.61-1.39h0a.25.25,0,0,1,.35-.15.37.37,0,0,1,.1.45l-.62,1.42L207.3,215a.24.24,0,0,1-.36.13.37.37,0,0,1-.09-.45Z"/>
            <path class="eaa14d3b-18aa-4541-ac7f-a81086e75ec9" d="M209.22,209.08l.48-1.49.4-1.49v0c0-.17.19-.27.32-.22a.33.33,0,0,1,.15.4l-.41,1.54-.48,1.49a.25.25,0,0,1-.33.2.34.34,0,0,1-.14-.41Z"/>
            <path class="eaa14d3b-18aa-4541-ac7f-a81086e75ec9" d="M210.7,203.05s0-.2.06-.49.08-.68.11-1.07c.06-.77.07-1.55.07-1.55h0a.33.33,0,0,1,.26-.34.29.29,0,0,1,.25.32h0s0,.8-.07,1.6c0,.41-.08.81-.12,1.1s-.06.5-.06.5a.29.29,0,0,1-.29.28A.3.3,0,0,1,210.7,203.05Z"/>
            <path class="eaa14d3b-18aa-4541-ac7f-a81086e75ec9" d="M210.75,196.88s0-.19-.08-.48-.13-.65-.2-1-.18-.73-.27-1l-.13-.45h0a.38.38,0,0,1,.15-.44.23.23,0,0,1,.33.18h0l.14.46c.09.27.18.66.28,1s.17.79.21,1.07.07.48.07.48a.34.34,0,0,1-.2.39C210.91,197.16,210.78,197.05,210.75,196.88Z"/>
            <path class="eaa14d3b-18aa-4541-ac7f-a81086e75ec9" d="M209,191.23l-.64-1.32-.68-1.24v0a.39.39,0,0,1,.08-.47.23.23,0,0,1,.37.07h0l.7,1.29c.32.66.63,1.32.63,1.32a.39.39,0,0,1-.09.47A.23.23,0,0,1,209,191.23Z"/>
            <path class="eaa14d3b-18aa-4541-ac7f-a81086e75ec9" d="M206.15,186.34l-.85-1.1-.89-1h0a.44.44,0,0,1,0-.5.25.25,0,0,1,.39,0h0l.92,1.05.86,1.1a.42.42,0,0,1,0,.49A.24.24,0,0,1,206.15,186.34Z"/>
            <path class="eaa14d3b-18aa-4541-ac7f-a81086e75ec9" d="M202.49,182.42l-1-.82-1-.73h0a.4.4,0,0,1-.1-.48c.09-.18.26-.24.39-.15h0l1.08.76,1,.82a.42.42,0,0,1,.08.49A.26.26,0,0,1,202.49,182.42Z"/>
            <path class="eaa14d3b-18aa-4541-ac7f-a81086e75ec9" d="M198.21,179.62l-1.15-.53-1.16-.46h0a.39.39,0,0,1-.18-.46c.06-.2.23-.31.38-.25h0l1.19.47,1.15.54a.37.37,0,0,1,.15.47A.29.29,0,0,1,198.21,179.62Z"/>
            <path class="eaa14d3b-18aa-4541-ac7f-a81086e75ec9" d="M193.53,177.92l-1.21-.26-1.21-.19h0a.36.36,0,0,1-.25-.43.35.35,0,0,1,.35-.33h0l1.25.21,1.21.26a.38.38,0,0,1,.23.44C193.85,177.82,193.69,178,193.53,177.92Z"/>
            <path class="eaa14d3b-18aa-4541-ac7f-a81086e75ec9" d="M188.66,177.26l-1.25,0-1.23,0h0c-.17,0-.3-.16-.3-.38a.4.4,0,0,1,.32-.4h0l1.26,0,1.25,0c.17,0,.29.17.28.39A.37.37,0,0,1,188.66,177.26Z"/>
            <path class="eaa14d3b-18aa-4541-ac7f-a81086e75ec9" d="M183.72,177.5l-1.25.2-1.22.25h0a.33.33,0,0,1-.36-.34.42.42,0,0,1,.29-.47h0l1.26-.24,1.24-.19c.18,0,.32.14.34.35A.4.4,0,0,1,183.72,177.5Z"/>
            <path class="eaa14d3b-18aa-4541-ac7f-a81086e75ec9" d="M178.81,178.58l-1.23.38-1.2.43h0c-.18.07-.37-.06-.41-.3a.48.48,0,0,1,.26-.54h0l1.23-.42,1.23-.38a.33.33,0,0,1,.39.31A.46.46,0,0,1,178.81,178.58Z"/>
            <path class="eaa14d3b-18aa-4541-ac7f-a81086e75ec9" d="M174,180.37l-2.39,1.06c-.2.09-.4,0-.46-.28a.51.51,0,0,1,.25-.59h0l2.39-1h0c.19-.08.38,0,.44.28A.51.51,0,0,1,174,180.37Z"/>
            <path class="eaa14d3b-18aa-4541-ac7f-a81086e75ec9" d="M169.18,182.42l-2.42.91c-.2.08-.41-.06-.46-.32a.52.52,0,0,1,.28-.6h0l2.43-.88c.2-.08.4.07.45.32A.51.51,0,0,1,169.18,182.42Z"/>
            <path class="eaa14d3b-18aa-4541-ac7f-a81086e75ec9" d="M164.3,184.17l-2.45.74a.39.39,0,0,1-.47-.37.57.57,0,0,1,.32-.62h0l2.45-.72c.21-.06.42.11.46.38A.55.55,0,0,1,164.3,184.17Z"/>
            <path class="eaa14d3b-18aa-4541-ac7f-a81086e75ec9" d="M159.36,185.56l-2.48.53c-.23,0-.43-.15-.46-.43a.54.54,0,0,1,.36-.61h0l2.47-.5c.23,0,.43.14.46.42A.56.56,0,0,1,159.36,185.56Z"/>
            <path class="eaa14d3b-18aa-4541-ac7f-a81086e75ec9" d="M154.36,186.5l-1.24.15-1.26.12c-.24,0-.44-.21-.45-.51a.56.56,0,0,1,.43-.59h0l1.23-.1,1.25-.14c.23,0,.43.19.44.49A.54.54,0,0,1,154.36,186.5Z"/>
            <path class="eaa14d3b-18aa-4541-ac7f-a81086e75ec9" d="M149.33,186.87l-1.24,0-1.27-.07a.51.51,0,0,1-.4-.6.53.53,0,0,1,.49-.55h0l1.22.08,1.24,0a.49.49,0,0,1,.41.57C149.78,186.63,149.57,186.88,149.33,186.87Z"/>
            <path class="eaa14d3b-18aa-4541-ac7f-a81086e75ec9" d="M144.31,186.44l-1.22-.26-1.23-.36a.6.6,0,0,1-.33-.72.5.5,0,0,1,.58-.45h0l1.16.35,1.22.28a.58.58,0,0,1,.34.68C144.8,186.29,144.56,186.5,144.31,186.44Z"/>
            <path class="eaa14d3b-18aa-4541-ac7f-a81086e75ec9" d="M139.46,184.8l-.35-.19a3.9,3.9,0,0,1-.36-.22l-.42-.26c-.28-.2-.56-.39-.76-.55l-.33-.27a.69.69,0,0,1-.13-.85.44.44,0,0,1,.68-.21h0l0,0,.31.25c.18.15.44.33.7.51l.37.25c.12.08.25.14.35.21l.35.2a.65.65,0,0,1,.21.8A.46.46,0,0,1,139.46,184.8Z"/>
            <path class="eaa14d3b-18aa-4541-ac7f-a81086e75ec9" d="M135.29,181.21l-.24-.37a3.83,3.83,0,0,1-.25-.39c-.1-.16-.19-.33-.29-.5-.17-.35-.35-.68-.45-1s-.19-.45-.19-.45a.77.77,0,0,1,.22-.89.45.45,0,0,1,.69.24h0v0l.17.41c.09.24.25.55.4.86l.24.42.11.2.12.18c.15.22.24.37.24.37a.74.74,0,0,1-.08.89A.43.43,0,0,1,135.29,181.21Z"/>
            <path class="eaa14d3b-18aa-4541-ac7f-a81086e75ec9" d="M133.08,175.4l-.05-.49c0-.27-.07-.72-.09-1.13s0-.82,0-1.13v-.51a.64.64,0,0,1,.54-.69c.29,0,.52.28.52.65h0v0s0,.19,0,.47,0,.66,0,1,0,.71.07,1l.05.48a.7.7,0,0,1-.44.77C133.38,176,133.12,175.75,133.08,175.4Z"/>
            <path class="eaa14d3b-18aa-4541-ac7f-a81086e75ec9" d="M133.29,168.87s0-.2.09-.49.15-.7.23-1.09c.18-.79.4-1.57.4-1.57a.57.57,0,0,1,.7-.47.72.72,0,0,1,.34.87h0s-.21.74-.38,1.48c-.08.38-.17.73-.22,1l-.1.48c-.07.38-.36.62-.65.55A.67.67,0,0,1,133.29,168.87Z"/>
            <path class="eaa14d3b-18aa-4541-ac7f-a81086e75ec9" d="M135,162.67l.55-1.45.12-.29.11-.26.19-.46.18-.44a.55.55,0,0,1,.78-.34.79.79,0,0,1,.23,1h0s-.07.18-.19.44-.12.29-.19.46-.07.17-.11.25l-.1.25-.56,1.44a.54.54,0,0,1-.75.36A.76.76,0,0,1,135,162.67Z"/>
            <path class="eaa14d3b-18aa-4541-ac7f-a81086e75ec9" d="M137.47,156.93l.7-1.35.74-1.36a.53.53,0,0,1,.83-.22.86.86,0,0,1,.14,1h0v0l-.72,1.3-.71,1.34a.53.53,0,0,1-.81.24A.85.85,0,0,1,137.47,156.93Z"/>
            <path class="eaa14d3b-18aa-4541-ac7f-a81086e75ec9" d="M140.46,151.59l1.62-2.51a.54.54,0,0,1,.87-.14A.91.91,0,0,1,143,150h0l-1.64,2.48a.52.52,0,0,1-.85.13A.91.91,0,0,1,140.46,151.59Z"/>
            <path class="eaa14d3b-18aa-4541-ac7f-a81086e75ec9" d="M143.81,146.62l1.77-2.35a.54.54,0,0,1,.89-.06,1,1,0,0,1,0,1.14h0l-1.77,2.33a.54.54,0,0,1-.89.06A1,1,0,0,1,143.81,146.62Z"/>
            <path class="eaa14d3b-18aa-4541-ac7f-a81086e75ec9" d="M147.43,142l1.87-2.2a.56.56,0,0,1,.92,0,1,1,0,0,1-.06,1.16h0l-1.89,2.18a.54.54,0,0,1-.9,0A1,1,0,0,1,147.43,142Z"/>
            <path class="eaa14d3b-18aa-4541-ac7f-a81086e75ec9" d="M151.25,137.59l2-2.06a.57.57,0,0,1,.94.08,1,1,0,0,1-.12,1.19h0l-2,2.05a.56.56,0,0,1-.92-.09A1,1,0,0,1,151.25,137.59Z"/>
            <path class="eaa14d3b-18aa-4541-ac7f-a81086e75ec9" d="M155.26,133.5l2-1.94a.59.59,0,0,1,.95.15,1,1,0,0,1-.17,1.22h0L156,134.85a.57.57,0,0,1-.94-.16A1,1,0,0,1,155.26,133.5Z"/>
            <path class="eaa14d3b-18aa-4541-ac7f-a81086e75ec9" d="M159.41,129.66l2.12-1.8a.6.6,0,0,1,1,.22,1,1,0,0,1-.22,1.23h0l-2.13,1.79a.59.59,0,0,1-.95-.22A1.06,1.06,0,0,1,159.41,129.66Z"/>
            <path class="eaa14d3b-18aa-4541-ac7f-a81086e75ec9" d="M163.71,126.1l2.19-1.66a.61.61,0,0,1,1,.29,1.08,1.08,0,0,1-.28,1.24h0l-2.19,1.64a.61.61,0,0,1-1-.3A1.08,1.08,0,0,1,163.71,126.1Z"/>
            <path class="eaa14d3b-18aa-4541-ac7f-a81086e75ec9" d="M168.15,122.82l2.25-1.5a.64.64,0,0,1,1,.37,1.08,1.08,0,0,1-.35,1.25h0l-2.26,1.49a.63.63,0,0,1-1-.37A1.09,1.09,0,0,1,168.15,122.82Z"/>
            <path class="eaa14d3b-18aa-4541-ac7f-a81086e75ec9" d="M172.73,119.87l2.32-1.32a.66.66,0,0,1,1,.47,1.09,1.09,0,0,1-.41,1.25h0l-2.32,1.3a.66.66,0,0,1-1-.47A1.08,1.08,0,0,1,172.73,119.87Z"/>
            <path class="eaa14d3b-18aa-4541-ac7f-a81086e75ec9" d="M177.45,117.32l1.18-.56,1.22-.53a.7.7,0,0,1,.94.59,1.08,1.08,0,0,1-.51,1.22h0l-1.17.51-1.19.55a.69.69,0,0,1-.94-.56A1.06,1.06,0,0,1,177.45,117.32Z"/>
            <path class="eaa14d3b-18aa-4541-ac7f-a81086e75ec9" d="M182.32,115.28l1.23-.39,1.26-.36c.42-.12.81.2.89.73a1,1,0,0,1-.63,1.15h0l-1.19.33-1.22.4c-.41.13-.81-.18-.9-.7A1.06,1.06,0,0,1,182.32,115.28Z"/>
            <path class="eaa14d3b-18aa-4541-ac7f-a81086e75ec9" d="M187.36,114l.39,0,.88-.1c.31,0,.65,0,.89,0l.41,0c.42,0,.76.4.76.94a1,1,0,0,1-.78,1h-.41c-.23,0-.51,0-.82.05l-.84.08-.39.06c-.42.06-.78-.33-.81-.86A1,1,0,0,1,187.36,114Z"/>
            <path class="eaa14d3b-18aa-4541-ac7f-a81086e75ec9" d="M192.5,113.86l1.23.15,1.28.23a.94.94,0,0,1,.62,1.12c-.08.55-.49.92-.92.84h0L193.5,116l-1.23-.16a.9.9,0,0,1-.65-1.08A.88.88,0,0,1,192.5,113.86Z"/>
            <path class="eaa14d3b-18aa-4541-ac7f-a81086e75ec9" d="M197.51,115l.37.14c.21.08.53.23.84.37.6.29,1.18.65,1.18.65a1.1,1.1,0,0,1,.33,1.33.75.75,0,0,1-1.07.48h0s-.52-.32-1.06-.59c-.27-.12-.53-.25-.76-.33l-.36-.15a1,1,0,0,1-.46-1.25C196.66,115.1,197.11,114.81,197.51,115Z"/>
            <path class="eaa14d3b-18aa-4541-ac7f-a81086e75ec9" d="M202.11,117.94l.08.09c.05.06.12.12.21.24a9.81,9.81,0,0,1,.65.85,10.22,10.22,0,0,1,.55.95c.14.27.23.46.23.46h0a1.2,1.2,0,0,1-.32,1.39.7.7,0,0,1-1.09-.33h0a8,8,0,0,0-.61-1.12c-.18-.26-.37-.51-.51-.68l-.2-.22-.08-.09a1.2,1.2,0,0,1,0-1.42A.68.68,0,0,1,202.11,117.94Z"/>
            <path class="eaa14d3b-18aa-4541-ac7f-a81086e75ec9" d="M204.67,123.86s0,.2,0,.49,0,.8,0,1.22c0,.11,0,.22,0,.33v.32c0,.19,0,.34-.05.52,0,.33-.07.55-.07.55-.08.57-.49,1-.93.91a1,1,0,0,1-.67-1.13h0v0l.05-.43c0-.11,0-.31,0-.49v-.51c0-.36,0-.71,0-1s0-.48,0-.48h0a1.06,1.06,0,0,1,.73-1.15C204.24,122.92,204.63,123.3,204.67,123.86Z"/>
            <path class="eaa14d3b-18aa-4541-ac7f-a81086e75ec9" d="M203.71,130.61l-.17.45c0,.13-.11.29-.2.48s-.16.37-.24.57c-.18.36-.35.73-.49,1s-.24.44-.24.44a.74.74,0,0,1-1.14.34,1.2,1.2,0,0,1-.21-1.43h0l0,0,.21-.39c.13-.24.28-.56.44-.89.07-.16.14-.31.2-.46a4.07,4.07,0,0,0,.18-.44l.18-.45a.78.78,0,0,1,1.09-.53A1.12,1.12,0,0,1,203.71,130.61Z"/>
            <path class="eaa14d3b-18aa-4541-ac7f-a81086e75ec9" d="M200.69,136.2l-.88,1.17-1,1.17a.71.71,0,0,1-1.17,0,1.26,1.26,0,0,1,.06-1.48h0l0,0,.88-1.06c.44-.59.89-1.17.89-1.17a.7.7,0,0,1,1.16-.07A1.24,1.24,0,0,1,200.69,136.2Z"/>
            <path class="eaa14d3b-18aa-4541-ac7f-a81086e75ec9" d="M196.85,140.71l-1,1-1,1a.72.72,0,0,1-1.17-.19,1.29,1.29,0,0,1,.2-1.48h0l1-.94,1-1a.71.71,0,0,1,1.16.15A1.27,1.27,0,0,1,196.85,140.71Z"/>
            <path class="eaa14d3b-18aa-4541-ac7f-a81086e75ec9" d="M192.7,144.61l-2.11,1.82h0a.72.72,0,0,1-1.16-.26,1.27,1.27,0,0,1,.26-1.49h0l2.11-1.81h0a.72.72,0,0,1,1.16.27A1.27,1.27,0,0,1,192.7,144.61Z"/>
            <path class="eaa14d3b-18aa-4541-ac7f-a81086e75ec9" d="M188.49,148.24l-1.06.92-1.06.91a.74.74,0,0,1-1.18-.26,1.3,1.3,0,0,1,.27-1.51h0l1.05-.9,1-.9h0a.73.73,0,0,1,1.17.26A1.29,1.29,0,0,1,188.49,148.24Z"/>
            <path class="eaa14d3b-18aa-4541-ac7f-a81086e75ec9" d="M184.12,151.8l-1.11.78-1.16.77a.76.76,0,0,1-1.15-.46,1.29,1.29,0,0,1,.42-1.48h0l1.1-.72,1.12-.77a.75.75,0,0,1,1.15.41A1.27,1.27,0,0,1,184.12,151.8Z"/>
            <path class="eaa14d3b-18aa-4541-ac7f-a81086e75ec9" d="M179.5,154.76,177.16,156a.79.79,0,0,1-1.12-.58,1.27,1.27,0,0,1,.51-1.45h0l2.34-1.24a.78.78,0,0,1,1.11.58A1.26,1.26,0,0,1,179.5,154.76Z"/>
            <path class="eaa14d3b-18aa-4541-ac7f-a81086e75ec9" d="M174.73,157.17l-2.42,1a.82.82,0,0,1-1.09-.69,1.24,1.24,0,0,1,.6-1.42h0l2.42-1a.82.82,0,0,1,1.08.7A1.24,1.24,0,0,1,174.73,157.17Z"/>
            <path class="eaa14d3b-18aa-4541-ac7f-a81086e75ec9" d="M169.83,159.14l-2.44.81c-.48.16-.95-.2-1-.8a1.21,1.21,0,0,1,.68-1.36h0l2.44-.81c.48-.16.95.19,1,.79A1.23,1.23,0,0,1,169.83,159.14Z"/>
            <path class="eaa14d3b-18aa-4541-ac7f-a81086e75ec9" d="M164.88,160.68l-2.47.62c-.48.12-.93-.27-1-.87a1.19,1.19,0,0,1,.74-1.32h0l2.47-.63c.48-.12.93.28,1,.88A1.18,1.18,0,0,1,164.88,160.68Z"/>
            <path class="eaa14d3b-18aa-4541-ac7f-a81086e75ec9" d="M159.89,161.85l-2.49.44c-.48.09-.92-.34-1-.95a1.17,1.17,0,0,1,.8-1.27h0l2.49-.44c.48-.09.91.34,1,1A1.18,1.18,0,0,1,159.89,161.85Z"/>
            <path class="eaa14d3b-18aa-4541-ac7f-a81086e75ec9" d="M154.86,162.65l-2.49.27c-.49.06-.9-.4-.92-1a1.13,1.13,0,0,1,.86-1.21h0l2.49-.27c.49,0,.9.4.92,1A1.13,1.13,0,0,1,154.86,162.65Z"/>
            <path class="eaa14d3b-18aa-4541-ac7f-a81086e75ec9" d="M149.83,163.11l-2.5.09a1,1,0,0,1-.87-1.09,1.1,1.1,0,0,1,.91-1.16h0l2.5-.09c.49,0,.87.47.86,1.09A1.1,1.1,0,0,1,149.83,163.11Z"/>
            <path class="eaa14d3b-18aa-4541-ac7f-a81086e75ec9" d="M144.79,163.19l-2.49-.09a1,1,0,0,1-.81-1.16,1.06,1.06,0,0,1,1-1.09h0l2.48.1a1,1,0,0,1,.82,1.16A1.05,1.05,0,0,1,144.79,163.19Z"/>
            <path class="eaa14d3b-18aa-4541-ac7f-a81086e75ec9" d="M139.77,162.9l-2.47-.3a1,1,0,0,1-.75-1.23,1,1,0,0,1,1-1h0l2.47.3a1,1,0,0,1,.75,1.22C140.71,162.5,140.25,163,139.77,162.9Z"/>
            <path class="eaa14d3b-18aa-4541-ac7f-a81086e75ec9" d="M134.78,162.18l-2.43-.53a1.06,1.06,0,0,1-.67-1.29,1,1,0,0,1,1-.92l2.44.52a1.07,1.07,0,0,1,.67,1.29c-.1.62-.57,1-1.05.93Z"/>
            <path class="eaa14d3b-18aa-4541-ac7f-a81086e75ec9" d="M129.87,161l-2.39-.78a1.12,1.12,0,0,1-.58-1.35c.15-.59.64-.95,1.1-.8l2.38.77a1.12,1.12,0,0,1,.59,1.36.93.93,0,0,1-1.1.81Z"/>
            <path class="eaa14d3b-18aa-4541-ac7f-a81086e75ec9" d="M125.07,159.26l-1.16-.52-1.17-.57a1.16,1.16,0,0,1-.45-1.42c.19-.57.7-.86,1.14-.64h0l1.11.53,1.16.52a1.16,1.16,0,0,1,.49,1.4.88.88,0,0,1-1.14.69Z"/>
            <path class="eaa14d3b-18aa-4541-ac7f-a81086e75ec9" d="M120.44,156.89l-1.1-.68-1.11-.76a1.22,1.22,0,0,1-.31-1.47.8.8,0,0,1,1.18-.46h0l1,.71,1.09.68a1.2,1.2,0,0,1,.35,1.46.82.82,0,0,1-1.17.52Z"/>
            <path class="eaa14d3b-18aa-4541-ac7f-a81086e75ec9" d="M116.08,153.78l-1-.88-1-1a1.27,1.27,0,0,1-.12-1.52.76.76,0,0,1,1.2-.23l0,0,.92.89,1,.88a1.27,1.27,0,0,1,.18,1.51.77.77,0,0,1-1.2.3Z"/>
            <path class="eaa14d3b-18aa-4541-ac7f-a81086e75ec9" d="M112.19,149.81s-.43-.55-.85-1.11-.85-1.21-.85-1.21a1.31,1.31,0,0,1,.1-1.52.73.73,0,0,1,1.2.06l0,0,.76,1.09.85,1.1a1.29,1.29,0,0,1,0,1.52.73.73,0,0,1-1.2,0Z"/>
            <path class="eaa14d3b-18aa-4541-ac7f-a81086e75ec9" d="M109,144.9l-.64-1.32c-.3-.72-.61-1.44-.61-1.44a1.26,1.26,0,0,1,.36-1.45.73.73,0,0,1,1.13.37l0,.06s.28.64.55,1.28l.64,1.31a1.27,1.27,0,0,1-.29,1.48.73.73,0,0,1-1.16-.29Z"/>
            <path class="eaa14d3b-18aa-4541-ac7f-a81086e75ec9" d="M106.73,139.17s0-.19-.12-.46c0-.08,0-.17-.07-.26l-.06-.25-.13-.57c-.09-.42-.15-.82-.2-1.12l-.08-.51a1.14,1.14,0,0,1,.67-1.27c.45-.14.89.21,1,.78v0s0,.18.06.45.11.63.18,1c0,.17.08.35.12.53l.06.25.06.19.12.46a1.23,1.23,0,0,1-.52,1.38.77.77,0,0,1-1.06-.6Z"/>
            <path class="eaa14d3b-18aa-4541-ac7f-a81086e75ec9" d="M105.88,132.65s0-.2,0-.49,0-.73.07-1.15c.07-.83.19-1.66.19-1.66.08-.57.51-1,1-.89a1,1,0,0,1,.66,1.16h0s-.1.75-.16,1.49c0,.37,0,.71,0,1l0,.5a1,1,0,0,1-.86,1.06.91.91,0,0,1-.8-1Z"/>
          </g>
          <g>
            <g>
              <path class="e13df87a-f7c8-4286-b053-bf5ebaca3572" d="M142.51,125.18c-4.89,2.8-18.63,6.47-24.65-5.57l-.9-1.86c8.88,9.58,15.11,2.27,11.63-7.82,4.45,6,14,9.62,16.15,3.72,3.41-12.53-9.38-18.43-19.75-21.11,9.49,1.14,20.12,4.41,24.53,12.9C154.88,115.69,147.4,122.37,142.51,125.18Z"/>
              <path class="a597c605-6f1e-423f-aea6-51fbf3e6609d" d="M139.63,120.68c-4.31,2.39-19.49,7.32-24.71-5.19-.22-.54,1.13-1,.88-1.59-4.58-9.34-8-20.82-8.54-21.57a78.46,78.46,0,0,1,15.59.14c8.36,1,17.72,3.72,21.61,10.92C149.18,112.09,143.93,118.29,139.63,120.68Z"/>
            </g>
            <g>
              <path class="e13df87a-f7c8-4286-b053-bf5ebaca3572" d="M92.33,127.8a18,18,0,0,1-4.56,8.12c-11.92,11.69-31.17-4.59-26.12-16,2.82-6.43,11.12-13.5,17.87-18.47-6.89,6.59-15.2,17.14-10.77,26.72,3.67,6.19,11.23-.92,11.23-.92s-.91,6.42,4.59,7.11C87.82,134.72,90.6,131,92.33,127.8Z"/>
              <path class="a597c605-6f1e-423f-aea6-51fbf3e6609d" d="M93.51,125a16.54,16.54,0,0,1-4.1,7.44c-10.74,10.71-28.1-4.2-23.55-14.7,2.54-5.88,10-12.36,16.11-16.92,4.77-3.57,8.68-6,8.68-6S96.93,112.65,93.51,125Z"/>
            </g>
            <g>
              <path class="e13df87a-f7c8-4286-b053-bf5ebaca3572" d="M158.49,44.61c3.73-6.86,11-25.78,2.85-32s-22.86-.37-40.07,14.83S99.34,74.65,99.34,75.27a24,24,0,0,0,.53,9.38c.78-10.17,3.67-30.67,14.36-44.73,14.71-19.35,24.89-22.69,33.62-19.39s6.7,25.75-7.41,34.51c10.18-2.1,17.05,4.53,11,12.23s-25.95,15-26.57,15-16.48,5.5-22.8,7.69a18.26,18.26,0,0,0,5.79,5.84c55.72,17.35,55.24-13.82,54.19-21.3S154.77,51.48,158.49,44.61Zm-5.93,43.44c-.61,7.06-10.36,18.72-48.2,3a285.51,285.51,0,0,1,29.28-9.2C146.93,78.71,153.16,81,152.56,88.05Z"/>
              <path class="a597c605-6f1e-423f-aea6-51fbf3e6609d" d="M99.58,90.85s-.06-32.23,15-52,25.4-23.16,34.31-19.79,6.84,26.28-7.56,35.22c10.39-2.14,17.4,4.63,11.26,12.49s-26.47,15.32-27.11,15.32S99.58,90.85,99.58,90.85Z"/>
              <path class="a597c605-6f1e-423f-aea6-51fbf3e6609d" d="M104.36,91.5s16-6.57,29.28-10,19.54-.94,18.93,6.73S142.22,108.57,104.36,91.5Z"/>
            </g>
            <g>
              <path class="e13df87a-f7c8-4286-b053-bf5ebaca3572" d="M40.94,103.08c2-7.4,42.51-7.08,50.61-7.08.57-.74,1-1.39,1.45-1.94-22,2.45-57.56.28-58.75-9.59-1.23-10.11,6-8,6-8S17.74,64.15,21.5,56.37s12.14-9.86,33.28.73c18.71,9.36,35.43,31,39,35.8.29-.41.43-.64.43-.64S69.39,51.8,32.31,41.84C10.23,35.92,7.77,46.56,11.6,55.58s8.47,16.76,14.54,21.69,6.88,16.83,7.15,23,4.08,22,24.55,19.33c8.84-1.14,16.84-6.4,23.07-12C57.65,124.84,39.05,110.07,40.94,103.08Z"/>
              <path class="a597c605-6f1e-423f-aea6-51fbf3e6609d" d="M96.49,94.64S77.06,67.21,55,56.13s-30.82-8.89-34.75-.74,19.62,21,19.62,21-7.59-2.21-6.31,8.37S73.69,97.5,96.49,94.64Z"/>
              <path class="a597c605-6f1e-423f-aea6-51fbf3e6609d" d="M93,96c-.7.15-49.71-2.63-53.42,7.57C36.64,111.51,64.47,130,93,96Z"/>
            </g>
            <path class="b809ca1b-6b59-4620-aa6c-0322f18af9c9" d="M112.26,128.85c-3.19,1.51-8,1-13-1.33a41,41,0,0,1-15.61-13c-8.63-11.74-.92-20.37-.92-20.37L97,89.2a12.75,12.75,0,0,1,6.38,1.26,19.94,19.94,0,0,1,6.47,4.8C116.3,102.24,118.87,125.73,112.26,128.85Z"/>
            <path class="b4c9e5cc-fd92-4cac-8e5b-5925d4004127" d="M112.26,128.85c-3.19,1.51-8,1-13-1.33,9.74,2.41,13.6-.45,12.47-13.72-1.28-15-13-18.72-13-18.72l2.55-5.41c2,.89,6.4,3.15,8.65,5.59C116.3,102.24,118.87,125.73,112.26,128.85Z"/>
            <path class="fcc510cf-8fec-49fb-906c-41f008408598" d="M93.22,98.85C87.6,101,81.72,100.26,78,97.28a9.87,9.87,0,0,1-3-4.11c-2.38-6.13,1.91-13.51,9.59-16.5a16.85,16.85,0,0,1,11.52-.44,10.72,10.72,0,0,1,6.69,6.12C105.19,88.47,100.89,95.86,93.22,98.85Z"/>
            <path class="b6ba442f-f42a-4e3f-80bc-84b72d572d94" d="M105.29,77.09c.18,11-6.61,19.46-18.91,20.37a23.29,23.29,0,0,1-11-1.86A17.07,17.07,0,0,1,71.12,93c-3.4-2.89-4.65-6.79-1.8-10.47a13.73,13.73,0,0,1,.91-1s-5.51-17.8,10.83-22a24,24,0,0,1,10.79-.55C100.82,60.76,105.15,68.87,105.29,77.09Z"/>
            <path class="e15b87fd-2b34-40b8-bf9f-9d1d16aa692e" d="M87.12,64.29a.41.41,0,0,1-.39-.27c-.07-.17-6.58-17.42,1.12-33a.42.42,0,0,1,.55-.19.42.42,0,0,1,.19.56c-7.54,15.25-1.16,32.17-1.09,32.34a.41.41,0,0,1-.24.53A.35.35,0,0,1,87.12,64.29Z"/>
            <path class="e15b87fd-2b34-40b8-bf9f-9d1d16aa692e" d="M86.56,35.61c3,1.23,10.1-10.65,7.35-13.4S82.53,34,86.56,35.61Z"/>
            <path class="e15b87fd-2b34-40b8-bf9f-9d1d16aa692e" d="M73.47,66.62a.4.4,0,0,1-.29-.12c-.13-.13-13-13.36-12.12-30.72a.4.4,0,0,1,.43-.39.41.41,0,0,1,.39.43c-.84,17,11.76,30,11.88,30.1a.41.41,0,0,1,0,.58A.4.4,0,0,1,73.47,66.62Z"/>
            <path class="e15b87fd-2b34-40b8-bf9f-9d1d16aa692e" d="M61.71,40.5c3.25-.07,5-13.78,1.39-15.21S57.34,40.59,61.71,40.5Z"/>
            <path class="a4ff210b-83f4-4e9f-ad1d-da70a4df7014" d="M97.13,72.26c0,4.28-2.55,7.74-5.69,7.74s-5.69-3.46-5.69-7.74,2.54-7.74,5.69-7.74S97.13,68,97.13,72.26Z"/>
            <path class="a4ff210b-83f4-4e9f-ad1d-da70a4df7014" d="M82.26,74c0,4.28-2.54,7.75-5.69,7.75S70.88,78.27,70.88,74s2.55-7.74,5.69-7.74S82.26,69.72,82.26,74Z"/>
            <path class="a4ff210b-83f4-4e9f-ad1d-da70a4df7014" d="M105.29,77.09c.18,11-6.61,19.46-18.91,20.37a23.29,23.29,0,0,1-11-1.86c16.59,1.93,28-3.13,26.81-18.88-.83-10.84-6.42-15.7-10.32-17.8C100.82,60.76,105.15,68.87,105.29,77.09Z"/>
            <g>
              <path class="a174042a-2148-4cb2-ab44-babaec7769de" d="M94.58,64.29c4.33.11,7.83,4.47,7.79,9.45s-3.59,8.69-7.92,8.58-7.8-4.24-7.77-9.22S90.26,64.18,94.58,64.29Z"/>
              <g>
                <path class="b4226128-2fce-4220-9997-2c8f089a3030" d="M96.05,77.19a4.63,4.63,0,0,1-4.61-4.54,4.45,4.45,0,0,1,4.48-4.52,4.63,4.63,0,0,1,4.61,4.54A4.44,4.44,0,0,1,96.05,77.19Z"/>
                <path class="a1d42d7e-116f-4eab-9a7a-83ddd937bbf2" d="M92.66,72.3a1.26,1.26,0,0,1-1.3-1,.94.94,0,0,1,.94-1.09,1.26,1.26,0,0,1,1.31,1A.94.94,0,0,1,92.66,72.3Z"/>
              </g>
            </g>
            <g>
              <path class="a174042a-2148-4cb2-ab44-babaec7769de" d="M73.94,66c4.32.12,7.83,4.47,7.79,9.45s-3.6,8.69-7.92,8.58S66,79.77,66,74.79,69.61,65.87,73.94,66Z"/>
              <g>
                <path class="b4226128-2fce-4220-9997-2c8f089a3030" d="M75.4,78.88a4.63,4.63,0,0,1-4.61-4.54,4.44,4.44,0,0,1,4.49-4.51,4.62,4.62,0,0,1,4.61,4.54A4.45,4.45,0,0,1,75.4,78.88Z"/>
                <path class="a1d42d7e-116f-4eab-9a7a-83ddd937bbf2" d="M72,74a1.26,1.26,0,0,1-1.31-1,.94.94,0,0,1,1-1.09,1.24,1.24,0,0,1,1.3,1A.94.94,0,0,1,72,74Z"/>
              </g>
            </g>
            <path class="bb04a8a8-15f5-46c2-958d-457bf59d51e0" d="M107.46,100.32a12.29,12.29,0,0,0-4,1.28,4.19,4.19,0,0,0-2.18,3.44.69.69,0,0,0,.17.52.7.7,0,0,0,.34.15,6.41,6.41,0,0,0,7.08-3.37,8.52,8.52,0,0,0,.51-1.47c.31-1.2,1.19-6.2-.51-6.66S107.51,99.25,107.46,100.32Z"/>
            <path class="bb04a8a8-15f5-46c2-958d-457bf59d51e0" d="M82,110.12a12,12,0,0,1,3.42,1c1.14.49,2.07,1.35,2,2.31a.43.43,0,0,1-.16.35,1.06,1.06,0,0,1-.33.1c-2.57.44-5.5-.55-6.62-2.27a4.51,4.51,0,0,1-.48-1c-.29-.81-.72-3.52.17-4.63S79.77,106,82,110.12Z"/>
            <path class="bb04a8a8-15f5-46c2-958d-457bf59d51e0" d="M84.76,116.62a11.57,11.57,0,0,1,3.57,0,3,3,0,0,1,2.69,1.7.44.44,0,0,1,0,.4,1,1,0,0,1-.28.2c-2.31,1.22-5.41,1.1-7-.29a5,5,0,0,1-.76-.84c-.54-.73-1.81-3.33-1.31-4.71S81.33,113.14,84.76,116.62Z"/>
            <path class="bb04a8a8-15f5-46c2-958d-457bf59d51e0" d="M111.76,106.17a12.24,12.24,0,0,0-4,1.28,4.16,4.16,0,0,0-2.19,3.43.58.58,0,0,0,.52.68,6.41,6.41,0,0,0,7.07-3.38,8.42,8.42,0,0,0,.51-1.46c.31-1.21,1.19-6.2-.51-6.67S111.81,105.09,111.76,106.17Z"/>
            <path class="bb04a8a8-15f5-46c2-958d-457bf59d51e0" d="M114.92,115.49c-1.2.42-6.52.55-4.07,6.6s5.56,9.6,6.11,6.26-5-6.61-2-7.67S116.44,115,114.92,115.49Z"/>
            <path class="bb04a8a8-15f5-46c2-958d-457bf59d51e0" d="M92.84,123.74s-2.88,7.74,5,8.4-1.11-2.5-1.62-3.07.48-2.85.48-2.85Z"/>
            <path class="b4226128-2fce-4220-9997-2c8f089a3030" d="M76.57,84.76c0-.16,7.75,3.72,12.86.5a.57.57,0,0,1,.83.73c-2.37,4.59-8,12.43-13.66-1.41"/>
            <path class="f0e95edf-7c3b-4666-a696-be362fd33b11" d="M79.54,86.34s4.95,1.39,7.51.3c.25-.1.09-.2,0,0-.76,1.69-4.67,4.37-7.51-.3"/>
            <ellipse class="a1d42d7e-116f-4eab-9a7a-83ddd937bbf2" cx="136.18" cy="37.32" rx="6.13" ry="5.13" transform="translate(29.22 129.49) rotate(-56.08)"/>
            <ellipse class="a1d42d7e-116f-4eab-9a7a-83ddd937bbf2" cx="41.2" cy="62.21" rx="5.13" ry="6.13" transform="translate(-33.27 66.78) rotate(-60)"/>
            <ellipse class="a1d42d7e-116f-4eab-9a7a-83ddd937bbf2" cx="76.57" cy="122.54" rx="4.86" ry="4.07" transform="translate(-67.39 134.98) rotate(-62.94)"/>
            <ellipse class="a1d42d7e-116f-4eab-9a7a-83ddd937bbf2" cx="127.21" cy="109.43" rx="4.07" ry="4.86" transform="translate(-38.58 135.35) rotate(-49.59)"/>
          </g>
        </g>
      </g>
    </g>
  </g>
</svg>
