<svg xmlns="http://www.w3.org/2000/svg" width="227" height="260.73" viewBox="0 0 227 260.73">
  <defs>
    <style>
      .bbf7d99b-16c1-4cac-b8c2-f8d2ca9be234 {
        isolation: isolate;
      }

      .be06cdef-f6a2-410a-b8e6-a995d3aa6634 {
        opacity: 0.5;
      }

      .ab87aef9-03f6-4f0f-8fc1-0e18e7fbb156, .bf138572-70e4-423a-a2b7-69e01227edd7 {
        fill: #fff;
      }

      .abf96e8c-664b-4ec7-a6d7-b1bfaae556d4 {
        fill: #003b49;
      }

      .b9c53119-985b-4ec6-aab9-bb0e63d16e14, .bd988b99-e5fe-4e7e-a95b-5b004dca8174 {
        fill: #f23636;
        stroke: #a50e0e;
      }

      .a506d27a-b556-4d90-b19d-3cf80ce7228e, .a646fe33-5391-46e1-a099-83605a8b6764, .aa06ef71-2be8-4adc-92c0-02a20e6e1a43, .aacd47e1-416d-4cf5-b7fe-6b8ca34c12b5, .b9c53119-985b-4ec6-aab9-bb0e63d16e14, .bd988b99-e5fe-4e7e-a95b-5b004dca8174, .bda5c746-f3ba-49f2-87b5-5c1e9cf83061, .bdc22007-ddc5-4e72-90da-672e2b12102f, .e7ed6fff-34fa-4df0-bdab-6d781b348f4a, .e852f5c5-1509-4a0a-849b-d67b2d5963cf, .f203f78e-84ff-4fdb-8394-46ddbd8f1d13, .faf1cc1a-29e7-4c53-bfdc-db9c05bcb923, .fe09ef58-19d9-4375-8579-c7055a996fe6 {
        stroke-miterlimit: 10;
      }

      .b9c53119-985b-4ec6-aab9-bb0e63d16e14 {
        stroke-width: 2.56px;
      }

      .fef4beac-465c-4b50-b57f-8cc57884fa61 {
        fill: #f4a800;
      }

      .bdc22007-ddc5-4e72-90da-672e2b12102f, .e7ed6fff-34fa-4df0-bdab-6d781b348f4a {
        fill: #ea2424;
      }

      .a506d27a-b556-4d90-b19d-3cf80ce7228e, .e7ed6fff-34fa-4df0-bdab-6d781b348f4a, .fe09ef58-19d9-4375-8579-c7055a996fe6 {
        stroke: #000;
      }

      .a506d27a-b556-4d90-b19d-3cf80ce7228e, .bda5c746-f3ba-49f2-87b5-5c1e9cf83061, .e7ed6fff-34fa-4df0-bdab-6d781b348f4a {
        stroke-width: 2px;
      }

      .b9cfeb5d-d770-433e-9593-e8849309bd4a {
        fill: #f95353;
      }

      .b5d0e953-2ce1-4988-94f7-12e1e0829afa {
        fill: #b52121;
      }

      .bda5c746-f3ba-49f2-87b5-5c1e9cf83061 {
        fill: #c4000c;
        stroke: #680710;
      }

      .b7f8c947-abc2-4a7c-80ed-75a3df84f91b {
        fill: #e83d56;
      }

      .b40a8057-463f-4323-a1ee-acadd91c00f3 {
        fill: #ff83a1;
      }

      .bd988b99-e5fe-4e7e-a95b-5b004dca8174 {
        stroke-width: 1.9px;
      }

      .ac1d6723-49ad-4db7-b677-76b40ccf527c {
        fill: #fc7c7c;
      }

      .a9c90510-500d-4974-affd-756a3f0ba1f9 {
        fill: #571094;
      }

      .f203f78e-84ff-4fdb-8394-46ddbd8f1d13 {
        fill: #d6d6d0;
        stroke: #8e888a;
      }

      .f84396f6-ca30-46ca-9a75-7760699f10bc {
        fill: #efefed;
        opacity: 0.6;
      }

      .bdc22007-ddc5-4e72-90da-672e2b12102f {
        stroke: #af0404;
        stroke-width: 1.98px;
      }

      .eabf3a52-925e-49dc-8136-4c474430c658 {
        fill: #ff4824;
      }

      .aacd47e1-416d-4cf5-b7fe-6b8ca34c12b5 {
        fill: #8b8c88;
        stroke: #383535;
      }

      .a506d27a-b556-4d90-b19d-3cf80ce7228e, .fe09ef58-19d9-4375-8579-c7055a996fe6 {
        fill: #32332e;
      }

      .bf01ab1e-9f62-4062-bd45-65b943b6541b {
        fill: #ff4821;
      }

      .e156c8a7-eafa-403b-a636-3278103d729d {
        fill: #ff4822;
      }

      .f3d2ff6b-24da-41c4-833f-73e007d1628a, .fb7e113d-2f68-457b-a91d-2480c73ee9e6 {
        fill: #d7f7ff;
      }

      .f3d2ff6b-24da-41c4-833f-73e007d1628a {
        opacity: 0.25;
      }

      .bb5de6e5-cca3-4fcc-bbe8-f4351545e3dd {
        fill: #9f1dfd;
      }

      .aa06ef71-2be8-4adc-92c0-02a20e6e1a43 {
        fill: #25a4d6;
        stroke: #0b5b68;
      }

      .a72e30ca-8059-405d-8760-29304c321770 {
        fill: #9ae9f7;
      }

      .bcedcc2b-e53b-4ca1-a7b0-870fbd28df00 {
        fill: #defcff;
      }

      .b4e96bed-7eea-428d-961a-7385adeb1abf {
        fill: #931ad8;
      }

      .bbda004c-6e55-4964-b2c8-c903ae597eee {
        fill: #e5bfff;
      }

      .a6c262c6-fd1c-448e-a329-fe9123e7c0de {
        fill: #5a1197;
      }

      .b7588501-c472-4325-abaa-8064ea4ea6dd {
        fill: #941ad9;
      }

      .e41453d3-db2b-464b-8bc3-29bb97d842cd {
        fill: #b132ff;
      }

      .fb7e113d-2f68-457b-a91d-2480c73ee9e6 {
        opacity: 0.37;
      }

      .e852f5c5-1509-4a0a-849b-d67b2d5963cf {
        fill: #8aeeff;
        stroke: #044a66;
        stroke-width: 1.61px;
      }

      .ab87aef9-03f6-4f0f-8fc1-0e18e7fbb156 {
        mix-blend-mode: soft-light;
      }

      .e761d60f-eba6-4b4b-a7d1-31c94f499e68 {
        fill: #5c0f95;
      }

      .a646fe33-5391-46e1-a099-83605a8b6764, .faf1cc1a-29e7-4c53-bfdc-db9c05bcb923 {
        fill: #ff9022;
        stroke: #c96a0a;
      }

      .a646fe33-5391-46e1-a099-83605a8b6764 {
        stroke-width: 0.82px;
      }

      .faf1cc1a-29e7-4c53-bfdc-db9c05bcb923 {
        stroke-width: 0.82px;
      }
    </style>
  </defs>
  <g class="bbf7d99b-16c1-4cac-b8c2-f8d2ca9be234">
    <g id="ae010a20-94ff-4427-a6e3-85a29a1cb8e1" data-name="Layer 1">
      <g>
        <g class="be06cdef-f6a2-410a-b8e6-a995d3aa6634">
          <path d="M93.38,84.51A17.5,17.5,0,0,0,97.77,84a15.83,15.83,0,0,0,20.48-8.06,15.87,15.87,0,0,0,9.27-14.41,15.71,15.71,0,0,0-.85-5.06,18.1,18.1,0,0,0,5.09.73h0A18.19,18.19,0,0,0,145,51.41a16.15,16.15,0,0,0,4.7-31.33,18.17,18.17,0,0,0-31.49-3,18,18,0,0,0-2.54,5.31A16.14,16.14,0,0,0,109,43.57a17.73,17.73,0,0,0-9.1-2.51,17.92,17.92,0,0,0-16.34,10.8,17.8,17.8,0,0,0,9.81,32.65Z"/>
          <path d="M223.24,92.77V89a13.8,13.8,0,0,0-2.34-7.78A11,11,0,0,0,215.63,77a12.47,12.47,0,0,0-3.46-.8,183.28,183.28,0,0,0-75.74,0,11.13,11.13,0,0,0-9,5.2,13.89,13.89,0,0,0-2.2,7.57v3.79c0,6.72,4.44,12,10.27,12.54v44.94h-25l1.43-11.83a11.55,11.55,0,0,0,5.24-9.66v-.88a11.45,11.45,0,0,0-2.42-7.06,9.67,9.67,0,0,0-7.7-4.39,11.28,11.28,0,0,0-1.42-.09h-5.07a14.6,14.6,0,0,0,5.16-9.76A13.34,13.34,0,0,0,93.13,85.29a14.65,14.65,0,0,0-20.6,17,13.38,13.38,0,0,0-1.4,5.94,13.2,13.2,0,0,0,2.76,8.09H73a11.09,11.09,0,0,0-1.4.09,9.66,9.66,0,0,0-7.7,4.32c-.17.24-.33.48-.48.73a11.44,11.44,0,0,0-2,6.4v.88a11.55,11.55,0,0,0,5.24,9.66l0,.2a16.21,16.21,0,0,0-7-1.58h-2a16.21,16.21,0,0,0-16.2,16.2v4a28.37,28.37,0,0,0-12.82,23.41,27.37,27.37,0,0,0,1.94,10.16,8,8,0,0,0-5,7.5l.09,8a6.41,6.41,0,0,0,.07,1l0,5.61a10,10,0,0,0,1.35,4.53L10.32,241.21a8.41,8.41,0,0,0,6.81,13.28h35.3A10.26,10.26,0,0,0,59,252.06c.39.23.78.45,1.19.66A23.13,23.13,0,0,0,91,245.66a30.45,30.45,0,0,0,31.22,9.68A30.63,30.63,0,0,0,141,242.89a30.57,30.57,0,0,0,33.39,12.45,30.47,30.47,0,0,0,23.15-21.9,8,8,0,0,0,5.27-7.53v-5.16l10.27,0a8,8,0,0,0,8-8l0-3.33,0-20.1a8,8,0,0,0-1.48-4.63,8.07,8.07,0,0,0-4-3.08l.1-23.08a7.74,7.74,0,0,0-.44-2.66V104.89C219.85,103.44,223.24,98.64,223.24,92.77Z"/>
        </g>
        <g>
          <path class="bf138572-70e4-423a-a2b7-69e01227edd7" d="M88.38,79.51A17.5,17.5,0,0,0,92.77,79a15.83,15.83,0,0,0,20.48-8.06,15.87,15.87,0,0,0,9.27-14.41,15.71,15.71,0,0,0-.85-5.06,18.1,18.1,0,0,0,5.09.73h0A18.19,18.19,0,0,0,140,46.41a16.15,16.15,0,0,0,4.7-31.33,18.17,18.17,0,0,0-31.49-3,18,18,0,0,0-2.54,5.31A16.14,16.14,0,0,0,104,38.57a17.73,17.73,0,0,0-9.1-2.51,17.92,17.92,0,0,0-16.34,10.8,17.8,17.8,0,0,0,9.81,32.65Z"/>
          <path class="bf138572-70e4-423a-a2b7-69e01227edd7" d="M218.24,87.77V84a13.8,13.8,0,0,0-2.34-7.78A11,11,0,0,0,210.63,72a12.47,12.47,0,0,0-3.46-.8,183.28,183.28,0,0,0-75.74,0,11.13,11.13,0,0,0-9,5.2,13.89,13.89,0,0,0-2.2,7.57v3.79c0,6.72,4.44,12,10.27,12.54v44.94h-25l1.43-11.83a11.55,11.55,0,0,0,5.24-9.66v-.88a11.45,11.45,0,0,0-2.42-7.06,9.67,9.67,0,0,0-7.7-4.39,11.28,11.28,0,0,0-1.42-.09H95.56a14.6,14.6,0,0,0,5.16-9.76A13.34,13.34,0,0,0,88.13,80.29a14.65,14.65,0,0,0-20.6,17,13.38,13.38,0,0,0-1.4,5.94,13.2,13.2,0,0,0,2.76,8.09H68a11.09,11.09,0,0,0-1.4.09,9.66,9.66,0,0,0-7.7,4.32c-.17.24-.33.48-.48.73a11.44,11.44,0,0,0-2,6.4v.88a11.55,11.55,0,0,0,5.24,9.66l0,.2a16.21,16.21,0,0,0-7-1.58h-2a16.21,16.21,0,0,0-16.2,16.2v4a28.37,28.37,0,0,0-12.82,23.41,27.37,27.37,0,0,0,1.94,10.16,8,8,0,0,0-5,7.5l.09,8a6.41,6.41,0,0,0,.07,1l0,5.61a10,10,0,0,0,1.35,4.53L5.32,236.21a8.41,8.41,0,0,0,6.81,13.28h35.3A10.26,10.26,0,0,0,54,247.06c.39.23.78.45,1.19.66A23.13,23.13,0,0,0,86,240.66a30.45,30.45,0,0,0,31.22,9.68A30.63,30.63,0,0,0,136,237.89a30.57,30.57,0,0,0,33.39,12.45,30.47,30.47,0,0,0,23.15-21.9,8,8,0,0,0,5.27-7.53v-5.16l10.27,0a8,8,0,0,0,8-8l0-3.33,0-20.1a8,8,0,0,0-1.48-4.63,8.07,8.07,0,0,0-4-3.08l.1-23.08a7.74,7.74,0,0,0-.44-2.66V99.89C214.85,98.44,218.24,93.64,218.24,87.77Z"/>
        </g>
        <g>
          <rect class="abf96e8c-664b-4ec7-a6d7-b1bfaae556d4" x="43.82" y="207.53" width="35.19" height="27.26"/>
          <rect class="abf96e8c-664b-4ec7-a6d7-b1bfaae556d4" x="65.13" y="193.65" width="124.66" height="27.26"/>
          <g>
            <path class="b9c53119-985b-4ec6-aab9-bb0e63d16e14" d="M49.86,207.75H36.7a2.74,2.74,0,0,0-2.22,1.19l-22.64,31.9a.41.41,0,0,0,.29.65h35.3a2.55,2.55,0,0,0,2.41-2.67v-30Z"/>
            <polygon class="fef4beac-465c-4b50-b57f-8cc57884fa61" points="48.17 239.76 48.17 209.16 46.12 209.16 41.43 239.76 48.17 239.76"/>
            <polygon class="fef4beac-465c-4b50-b57f-8cc57884fa61" points="39.53 239.76 45.07 209.16 43.05 209.16 32.04 239.76 39.53 239.76"/>
            <polygon class="fef4beac-465c-4b50-b57f-8cc57884fa61" points="30.6 239.76 41.61 209.16 39.17 209.16 22.53 239.76 30.6 239.76"/>
            <polygon class="fef4beac-465c-4b50-b57f-8cc57884fa61" points="20.97 239.76 37.82 209.16 35.85 209.16 14.61 239.76 20.97 239.76"/>
          </g>
          <polygon class="e7ed6fff-34fa-4df0-bdab-6d781b348f4a" points="100.2 122.52 95.95 157.5 72.64 157.5 71.99 152.1 68.4 122.52 100.2 122.52"/>
          <polygon class="b9cfeb5d-d770-433e-9593-e8849309bd4a" points="90.39 124.29 87.53 159.26 72.99 159.97 72.44 153.91 68.92 124.29 90.39 124.29"/>
          <polygon class="b5d0e953-2ce1-4988-94f7-12e1e0829afa" points="99.34 126.82 95.71 158.65 93.36 159.86 93.04 153.8 95.93 124.83 99.34 126.82"/>
          <rect class="bda5c746-f3ba-49f2-87b5-5c1e9cf83061" x="64.42" y="119.34" width="39.75" height="7.95" rx="3.54"/>
          <rect class="b7f8c947-abc2-4a7c-80ed-75a3df84f91b" x="64.87" y="119.46" width="38.77" height="5.4" rx="2.4"/>
          <rect class="b40a8057-463f-4323-a1ee-acadd91c00f3" x="65.24" y="119.42" width="38.08" height="3.78" rx="1.68"/>
          <ellipse class="bd988b99-e5fe-4e7e-a95b-5b004dca8174" cx="54" cy="175.68" rx="22.33" ry="20.68"/>
          <ellipse class="ac1d6723-49ad-4db7-b677-76b40ccf527c" cx="57.67" cy="175.33" rx="22.33" ry="20.68"/>
          <path class="a9c90510-500d-4974-affd-756a3f0ba1f9" d="M202.32,203.06,44.45,205.14l0-44.62a6.27,6.27,0,0,1,6-6.45l35.36-.71,116.76.06Z"/>
          <path class="f203f78e-84ff-4fdb-8394-46ddbd8f1d13" d="M95.46,93.47a5.33,5.33,0,0,0-8.61-4.2,6.66,6.66,0,1,0-9.63,9.14,5.33,5.33,0,1,0,6.56,8,6.54,6.54,0,0,0,2.35.44,6.66,6.66,0,0,0,6.38-8.57A5.33,5.33,0,0,0,95.46,93.47Z"/>
          <path class="f84396f6-ca30-46ca-9a75-7760699f10bc" d="M91.57,95.25a3.66,3.66,0,0,0-5.91-2.89,4.57,4.57,0,1,0-6.6,6.28,3.65,3.65,0,1,0,4.49,5.45,4.56,4.56,0,0,0,6.19-4.27,4.71,4.71,0,0,0-.19-1.31A3.66,3.66,0,0,0,91.57,95.25Z"/>
          <path class="f203f78e-84ff-4fdb-8394-46ddbd8f1d13" d="M106.68,48.64a7.86,7.86,0,0,0-3.11.64,9.79,9.79,0,0,0-18.34,3.15A9.8,9.8,0,1,0,93.5,70.05a7.83,7.83,0,0,0,13.18-5.73,7.84,7.84,0,0,0,0-15.68Z"/>
          <path class="f84396f6-ca30-46ca-9a75-7760699f10bc" d="M103.4,50.35a6.06,6.06,0,0,0-2.38.49,7.5,7.5,0,0,0-14,2.41,7.5,7.5,0,1,0,6.33,13.5,6,6,0,0,0,10.09-4.39,6,6,0,0,0,0-12Z"/>
          <path class="f203f78e-84ff-4fdb-8394-46ddbd8f1d13" d="M134,14.16a10.17,10.17,0,0,0-16,9.24,8.14,8.14,0,0,0,.33,16.27,10.15,10.15,0,0,0,16.78.13,10.29,10.29,0,0,0,1.07-2,8.14,8.14,0,1,0,2.13-15.62A10.17,10.17,0,0,0,134,14.16Z"/>
          <path class="f84396f6-ca30-46ca-9a75-7760699f10bc" d="M132.17,16a7.67,7.67,0,0,0-12,7,6.14,6.14,0,0,0,.25,12.27,7.56,7.56,0,0,0,2,2A7.67,7.67,0,0,0,133,35.28a7.44,7.44,0,0,0,.81-1.49A6.14,6.14,0,1,0,135.44,22,7.63,7.63,0,0,0,132.17,16Z"/>
          <g>
            <circle class="bdc22007-ddc5-4e72-90da-672e2b12102f" cx="66.83" cy="227.68" r="15.17"/>
            <circle class="eabf3a52-925e-49dc-8136-4c474430c658" cx="65.7" cy="227.48" r="14.8"/>
            <circle class="aacd47e1-416d-4cf5-b7fe-6b8ca34c12b5" cx="65.87" cy="227.68" r="6.79"/>
            <path class="fe09ef58-19d9-4375-8579-c7055a996fe6" d="M63.15,227.68A2.72,2.72,0,1,0,65.87,225,2.72,2.72,0,0,0,63.15,227.68Z"/>
            <path class="ac1d6723-49ad-4db7-b677-76b40ccf527c" d="M66,214.07s-10.1,0-12.32,8.48c0,0-.59.37.74.44s2.07-7.52,12.17-7.22C66.56,215.77,68.69,215.18,66,214.07Z"/>
            <path class="ac1d6723-49ad-4db7-b677-76b40ccf527c" d="M63.89,239.75s-10-1.75-10.65-10.49c0,0-.52-.46.8-.31s.73,7.77,10.73,9.23C64.77,238.18,66.77,239.14,63.89,239.75Z"/>
          </g>
          <g>
            <circle class="bdc22007-ddc5-4e72-90da-672e2b12102f" cx="162.92" cy="220.35" r="22.67"/>
            <circle class="bf01ab1e-9f62-4062-bd45-65b943b6541b" cx="161.36" cy="220.92" r="22.49"/>
            <circle class="aacd47e1-416d-4cf5-b7fe-6b8ca34c12b5" cx="161.48" cy="220.35" r="10.15"/>
            <path class="a506d27a-b556-4d90-b19d-3cf80ce7228e" d="M157.42,220.35a4.06,4.06,0,1,0,4.06-4.06A4.06,4.06,0,0,0,157.42,220.35Z"/>
            <path class="ac1d6723-49ad-4db7-b677-76b40ccf527c" d="M180.32,223s-2.6,14.87-15.65,15.94c0,0-.69.77-.46-1.2s11.6-1.1,13.76-16C178,221.68,179.39,218.68,180.32,223Z"/>
            <path class="ac1d6723-49ad-4db7-b677-76b40ccf527c" d="M162.33,201.17s-15.09,0-18.39,12.66c0,0-.89.55,1.1.66s3.08-11.23,18.17-10.79C163.21,203.7,166.41,202.82,162.33,201.17Z"/>
          </g>
          <g>
            <circle class="bdc22007-ddc5-4e72-90da-672e2b12102f" cx="110.79" cy="220.35" r="22.67"/>
            <circle class="e156c8a7-eafa-403b-a636-3278103d729d" cx="109.24" cy="220.92" r="22.49"/>
            <circle class="aacd47e1-416d-4cf5-b7fe-6b8ca34c12b5" cx="109.35" cy="220.35" r="10.15"/>
            <path class="fe09ef58-19d9-4375-8579-c7055a996fe6" d="M105.29,220.35a4.06,4.06,0,1,0,4.06-4.06A4.06,4.06,0,0,0,105.29,220.35Z"/>
            <path class="ac1d6723-49ad-4db7-b677-76b40ccf527c" d="M128.19,223s-2.6,14.87-15.65,15.94c0,0-.69.77-.46-1.2s11.6-1.1,13.76-16C125.84,221.68,127.26,218.68,128.19,223Z"/>
            <path class="ac1d6723-49ad-4db7-b677-76b40ccf527c" d="M110.2,201.17s-15.09,0-18.39,12.66c0,0-.88.55,1.1.66S96,203.26,111.08,203.7C111.08,203.7,114.28,202.82,110.2,201.17Z"/>
          </g>
          <path class="f3d2ff6b-24da-41c4-833f-73e007d1628a" d="M140.75,153.25H96.25l-38.67.44-7.16,21.37s3.76-11.61,35.69-16.85A374.26,374.26,0,0,1,140.75,153.25Z"/>
          <polygon class="bb5de6e5-cca3-4fcc-bbe8-f4351545e3dd" points="200.53 182.31 45.08 182.5 45.11 164.52 85.78 164.23 200.67 164.21 200.53 182.31"/>
          <path class="aa06ef71-2be8-4adc-92c0-02a20e6e1a43" d="M207.08,92.36h-75.7c-1.75,0-3.16-2.06-3.16-4.59V84c0-2.53,1.41-4.59,3.16-4.59a175.92,175.92,0,0,1,75.7,0,2.75,2.75,0,0,1,2.24,1.35,5.76,5.76,0,0,1,.92,3.24v3.79C210.24,90.3,208.83,92.36,207.08,92.36Z"/>
          <path class="a72e30ca-8059-405d-8760-29304c321770" d="M206.66,87.78H131.83a3,3,0,0,1-3.13-2.92V82.44a3,3,0,0,1,3.13-2.93,196.07,196.07,0,0,1,37.48-3.9,187.32,187.32,0,0,1,37.35,3.9,3.31,3.31,0,0,1,2.21.86,2.8,2.8,0,0,1,.91,2.07v2.42A3,3,0,0,1,206.66,87.78Z"/>
          <path class="bcedcc2b-e53b-4ca1-a7b0-870fbd28df00" d="M206.1,84.86H132.18c-1.71,0-3.09-.9-3.09-2V81.19c0-1.1,1.38-2,3.09-2,10.85-1.44,23.2-3.58,37.13-3.58s26.18,2.08,36.79,3.58a4.24,4.24,0,0,1,2.19.59,1.75,1.75,0,0,1,.9,1.41v1.66C209.19,84,207.81,84.86,206.1,84.86Z"/>
          <rect class="b4e96bed-7eea-428d-961a-7385adeb1abf" x="138.49" y="92.78" width="63.61" height="98.14"/>
          <path class="b4e96bed-7eea-428d-961a-7385adeb1abf" d="M28.79,207.94l-.08-14.54,94,.43a15.77,15.77,0,0,1,14.69-9.41c11.26-.2,70.59-.15,70.59-.15l.06,23.18Z"/>
          <path class="bbda004c-6e55-4964-b2c8-c903ae597eee" d="M28.69,201.31l-.09-8.06,94,.43a15.74,15.74,0,0,1,14.68-9.41c11.27-.21,70.6-.15,70.6-.15l.06,16.69Z"/>
          <path class="a6c262c6-fd1c-448e-a329-fe9123e7c0de" d="M201.39,93.22,139,93.11l-.1,91.21,9.15.16S155.41,121.67,201.39,93.22Z"/>
          <path class="b7588501-c472-4325-abaa-8064ea4ea6dd" d="M52.68,140h2a8.2,8.2,0,0,1,8.2,8.2v45a0,0,0,0,1,0,0H44.48a0,0,0,0,1,0,0v-45A8.2,8.2,0,0,1,52.68,140Z"/>
          <path class="e41453d3-db2b-464b-8bc3-29bb97d842cd" d="M52.83,142.35h1.58a4.06,4.06,0,0,1,4.06,4.06v20.06a0,0,0,0,1,0,0H48.77a0,0,0,0,1,0,0V146.41A4.06,4.06,0,0,1,52.83,142.35Z"/>
          <rect class="b4e96bed-7eea-428d-961a-7385adeb1abf" x="116.84" y="116.88" width="3.34" height="179.02" transform="translate(324.43 87.07) rotate(89.77)"/>
          <path class="fb7e113d-2f68-457b-a91d-2480c73ee9e6" d="M202.1,92.78s-41.52,18.18-54,91.7l4.15-.16S160.47,149,202.1,111Z"/>
          <path class="e852f5c5-1509-4a0a-849b-d67b2d5963cf" d="M194.71,107.28v27.21a4.68,4.68,0,0,1-4.8,4.55H153.73a4.9,4.9,0,0,1-2.39-.6,4.51,4.51,0,0,1-2.41-3.95V107.28a4.68,4.68,0,0,1,4.8-4.56h36.18a4.86,4.86,0,0,1,3.13,1.11A4.43,4.43,0,0,1,194.71,107.28Z"/>
          <polygon class="ab87aef9-03f6-4f0f-8fc1-0e18e7fbb156" points="149.32 116.41 149.4 129.79 194.47 120.66 194.71 107.28 149.32 116.41"/>
          <path class="e761d60f-eba6-4b4b-a7d1-31c94f499e68" d="M84.78,192.94h1.07a4.31,4.31,0,0,1,4.31,4.31V222a3.56,3.56,0,0,1-3.56,3.56H84A3.56,3.56,0,0,1,80.47,222V197.25a4.31,4.31,0,0,1,4.31-4.31Z" transform="translate(294.58 123.95) rotate(90)"/>
          <g>
            <path class="a646fe33-5391-46e1-a099-83605a8b6764" d="M95.38,205.69H96A2.35,2.35,0,0,1,98.3,208v16.83A2.16,2.16,0,0,1,96.14,227h-1A2.16,2.16,0,0,1,93,224.87V208a2.35,2.35,0,0,1,2.35-2.35Z" transform="translate(331.59 233.87) rotate(118.1)"/>
            <path class="faf1cc1a-29e7-4c53-bfdc-db9c05bcb923" d="M140.83,179.67h.63a2.54,2.54,0,0,1,2.54,2.54v76.3a2.1,2.1,0,0,1-2.1,2.1h-1.51a2.1,2.1,0,0,1-2.1-2.1v-76.3A2.54,2.54,0,0,1,140.83,179.67Z" transform="translate(361.28 78.99) rotate(90)"/>
          </g>
        </g>
      </g>
    </g>
  </g>
</svg>
