<svg xmlns="http://www.w3.org/2000/svg" xmlns:xlink="http://www.w3.org/1999/xlink" width="199.45" height="208.45" viewBox="0 0 199.45 208.45">
  <defs>
    <style>
      .ee8bf152-6316-4d6f-8052-fcaa308f3196 {
        isolation: isolate;
      }

      .b177b305-68f7-46a9-ae53-066c8cf88ce9, .bef5b0a6-84de-462a-9881-edfaba47161a {
        opacity: 0.5;
      }

      .a3afac9d-827a-4529-8e9a-51b61016774e, .aab2c5fe-16cd-454f-9aff-7860f02d9260 {
        fill: #fff;
      }

      .b30a3bf2-d641-46e6-b47e-ec9f832ff355 {
        fill: #e39424;
      }

      .b37fde0c-aa21-448b-9acd-588b6732d854 {
        fill: #e89f34;
      }

      .ab4f3ae0-f1c8-4bd4-b077-496cee3bdfde {
        fill: #e8bf34;
      }

      .b901fb68-4e6c-4f32-abf6-4e0a64878fa3 {
        fill: #bf881b;
      }

      .b6f67b70-9d07-4efb-a651-ef3c68358a5f {
        fill: #a06918;
      }

      .a70d0900-00f2-4fc5-9260-7a8685cc0610 {
        fill: #f69d35;
      }

      .ec58ab06-525e-4897-a79d-d830127baead, .f1abb072-836a-47de-83da-cccd7aa33509 {
        fill: #d77c4f;
      }

      .a40a054e-4dd2-4c0f-a589-8cb9e64ebb6b {
        fill: #f37a21;
      }

      .ea3f9453-621e-4a29-8eeb-521a0a037ee2 {
        fill: #aa070f;
      }

      .f44d4a6e-b37b-4e3d-a039-3213b2660a12 {
        fill: #7c0914;
      }

      .ab600f97-80b2-4c0b-ac48-8038e52220e4 {
        fill: #870613;
      }

      .b70ba2da-54be-4e67-a99c-08cb63a44cff {
        opacity: 0.7;
      }

      .a803f977-601d-4a56-a098-f8bc9b5da017 {
        fill: #c60307;
      }

      .ee35ae75-ae7c-4d0c-9f0f-48537f89eb65 {
        fill: #592d19;
      }

      .b177b305-68f7-46a9-ae53-066c8cf88ce9, .e49bef1d-8eb7-4eca-ab1b-268180ed9e31 {
        mix-blend-mode: screen;
      }

      .b177b305-68f7-46a9-ae53-066c8cf88ce9 {
        fill: url(#e771ad25-49f9-4231-b0d8-8d922b837297);
      }

      .bd35f8e0-74c6-45c7-b80c-84f0eaa0215f, .e4eef7d2-f798-478b-9e35-fb081e451563 {
        fill: #ffca58;
      }

      .e4eef7d2-f798-478b-9e35-fb081e451563 {
        stroke: #7f5711;
      }

      .a3afac9d-827a-4529-8e9a-51b61016774e, .a4fbe222-6a40-465b-9c7c-bd3091a8af1b, .ab16d972-55bf-4a42-a295-7683cda12c22, .b4d8a9ad-6951-4ed7-8935-1b888b7f7e08, .e4eef7d2-f798-478b-9e35-fb081e451563 {
        stroke-miterlimit: 10;
      }

      .a9140717-0ed9-4814-91d1-208db6369fe5, .e49bef1d-8eb7-4eca-ab1b-268180ed9e31, .f1abb072-836a-47de-83da-cccd7aa33509 {
        opacity: 0.6;
      }

      .a9140717-0ed9-4814-91d1-208db6369fe5 {
        mix-blend-mode: multiply;
      }

      .e0018699-dd50-481e-bf62-cdf5515ac10f {
        fill: #d6a138;
      }

      .ae66cd36-58da-4004-a316-2edcaf532ddc {
        fill: url(#b97f30dd-339a-4bca-aebd-75430a83b6b8);
      }

      .aaef19fc-c37b-4625-b78a-f9264bb6e777 {
        fill: #5d2e15;
      }

      .a4fbe222-6a40-465b-9c7c-bd3091a8af1b {
        fill: #e2142b;
        stroke: #543605;
      }

      .e49bef1d-8eb7-4eca-ab1b-268180ed9e31 {
        fill: #ffdfd0;
      }

      .ec7cf42c-910f-480d-9046-153a921e0e92 {
        opacity: 0.4;
      }

      .b7add947-b6e0-4937-a991-549a5653d021 {
        fill: url(#b2c36e50-5e10-40cb-b1a5-282757b7b47a);
      }

      .b4d8a9ad-6951-4ed7-8935-1b888b7f7e08, .b55aebcb-7c3b-42b4-92f7-4d254dbd5c92 {
        fill: #c68318;
      }

      .ab16d972-55bf-4a42-a295-7683cda12c22, .b4d8a9ad-6951-4ed7-8935-1b888b7f7e08 {
        stroke: #ad6e09;
      }

      .ab16d972-55bf-4a42-a295-7683cda12c22 {
        fill: #fcb122;
      }

      .a3afac9d-827a-4529-8e9a-51b61016774e {
        stroke: #724c4c;
        stroke-width: 0.5px;
      }

      .a32ec28d-0e67-4518-8411-48b55e58ac5c {
        fill: #606060;
      }

      .f6a56c75-8880-43c7-ae22-03478d0c39d7 {
        fill: #450806;
      }

      .e101fa59-fd67-4ca2-9256-37df7dadab35 {
        fill: #f9efef;
      }

      .ab00734c-2855-43e0-a380-5ab7979b6594 {
        fill: #7f5711;
      }

      .bdbc2226-8e9b-4d64-afd7-62c870084e17 {
        fill: #ede7d1;
      }

      .a3ec7cd6-ba88-48e7-8905-546619cc81f6, .b15561ff-bb9d-449f-89a4-30416957a1e0 {
        fill: #b95c31;
      }

      .a3ec7cd6-ba88-48e7-8905-546619cc81f6 {
        opacity: 0.3;
      }

      .b694226f-3b79-4430-a593-320ffeb4bf45 {
        fill: #fff595;
        opacity: 0.1;
      }

      .a8ce788c-7b75-4619-bf52-e1ebdd9c6c2e {
        fill: #efd13f;
      }
    </style>
    <radialGradient id="e771ad25-49f9-4231-b0d8-8d922b837297" cx="42.76" cy="-3.62" r="19.4" gradientTransform="translate(-11.58 125.08) rotate(-4.69)" gradientUnits="userSpaceOnUse">
      <stop offset="0.61" stop-color="#9f511a"/>
      <stop offset="0.63" stop-color="#964d19"/>
      <stop offset="0.99"/>
    </radialGradient>
    <radialGradient id="b97f30dd-339a-4bca-aebd-75430a83b6b8" cx="130.06" cy="-31.06" r="0.14" gradientTransform="translate(-11.58 125.08) rotate(-4.69)" gradientUnits="userSpaceOnUse">
      <stop offset="0.1" stop-color="#f6a142"/>
      <stop offset="0.21" stop-color="#f39a41"/>
      <stop offset="0.38" stop-color="#ec863c"/>
      <stop offset="0.58" stop-color="#e06536"/>
      <stop offset="0.8" stop-color="#cf382d"/>
      <stop offset="0.88" stop-color="#c82629"/>
    </radialGradient>
    <radialGradient id="b2c36e50-5e10-40cb-b1a5-282757b7b47a" cx="97.92" cy="-98.79" fx="89.12605783296719" r="16.53" gradientTransform="translate(-11.58 125.08) rotate(-4.69)" gradientUnits="userSpaceOnUse">
      <stop offset="0.12" stop-color="#e68a69"/>
      <stop offset="0.12" stop-color="#e68a69"/>
      <stop offset="0.17" stop-color="#e67e61"/>
      <stop offset="0.51" stop-color="#e52629"/>
      <stop offset="0.61" stop-color="#dd2629"/>
      <stop offset="0.76" stop-color="#c8272a"/>
      <stop offset="0.84" stop-color="#ba272a"/>
    </radialGradient>
  </defs>
  <g class="ee8bf152-6316-4d6f-8052-fcaa308f3196">
    <g id="f9f6abfe-80e4-4f33-a134-0678f4b04ee4" data-name="Layer 1">
      <g>
        <path class="bef5b0a6-84de-462a-9881-edfaba47161a" d="M80.41,204.85a7.88,7.88,0,0,1-3.47-.81,26.71,26.71,0,0,1-3.19-1.85,8.85,8.85,0,0,1-.89.05,7.69,7.69,0,0,1-2.22-.32q-1.22-.36-2.4-.84a7.76,7.76,0,0,1-1,.6,7.84,7.84,0,0,1-7.48-.08A21.14,21.14,0,0,1,55,197.88a6.69,6.69,0,0,1-.9-.27,14.41,14.41,0,0,1-2.7-1.33H50.9a7.86,7.86,0,0,1-2.82-.52,12.63,12.63,0,0,1-3.16-1.8h-.16l-.57,0a8.16,8.16,0,0,1-2.21-.49,7.78,7.78,0,0,1-5-2.18,16,16,0,0,1-3.57-5.15c-.21-.19-.41-.4-.61-.61s-.43-.5-.63-.76a9.1,9.1,0,0,1-1.05.07H31a8.94,8.94,0,0,1-1.46-.16c-.25.06-.52.12-.78.16a8.08,8.08,0,0,1-1.2.09,7.82,7.82,0,0,1-4.75-1.61,7.85,7.85,0,0,1-6.65-5.7,7.83,7.83,0,0,1-4.81-6c-.13-.79-.21-1.58-.26-2.37a7.84,7.84,0,0,1-1.77-5.1,28.23,28.23,0,0,1,1.11-7.29,7.83,7.83,0,0,1-1-9.41,33.43,33.43,0,0,1,3.42-4.7,7.82,7.82,0,0,1,2.64-7.07c.49-.42,1-.83,1.52-1.2A7.83,7.83,0,0,1,24.76,128h.43c.41,0,.85,0,1.31-.06a20.24,20.24,0,0,1,3.17-2c-.12-1.13-.23-2.31-.32-3.53C27.63,97.91,46.72,79.56,55,76A20,20,0,0,1,58.08,75c1.94-5,3.71-12.73,5.28-23.11,2-13.05,7.46-20.67,13-25.12a15.14,15.14,0,0,1,2.27-12.62A13,13,0,0,1,89.27,8.5h.5a12.59,12.59,0,0,1,4.32.92,12.75,12.75,0,0,1,3.52-.64l.61,0a12.17,12.17,0,0,1,9.56,4.58,15.35,15.35,0,0,1,2.91,5.91A12.54,12.54,0,0,1,114,23a15.75,15.75,0,0,1,2,9.15c3.79,6,5.85,13.37,7.14,20.57a9,9,0,0,1,2.23.75,10.79,10.79,0,0,1,6.08-1.92h.13a9.52,9.52,0,0,1,7.1,3.17,13.39,13.39,0,0,1,2.91,5.91,7.79,7.79,0,0,1,1.48.92h.26a11.58,11.58,0,0,1,2.11.19c7.59,1.37,9.22,9.51,8.46,22.47a10.88,10.88,0,0,1,1.57,1.9c1.28,2,2.52,5.28.86,13.77a57.43,57.43,0,0,1-1.73,6.65c-.07.21-.14.42-.22.64v0a44.8,44.8,0,0,1,2.14,10c.12,1.38.22,2.71.28,4l.1,0a7.86,7.86,0,0,1,4,3.25h.1a10.57,10.57,0,0,1,1.6.12,26.77,26.77,0,0,1,6.33,1.79l.1,0a7.7,7.7,0,0,1,2.68,1.81A36.82,36.82,0,0,1,185,132.7a7.85,7.85,0,0,1,3.65,8.94,8.15,8.15,0,0,1-.29.83,26.46,26.46,0,0,1,1.81,2.78,7.83,7.83,0,0,1,.93,2.77,27.76,27.76,0,0,1,4,5.6,7.85,7.85,0,0,1-5.61,11.47,7.92,7.92,0,0,1-1.81,2.36c.08.38.15.77.22,1.15a7.83,7.83,0,0,1-3.55,7.91.22.22,0,0,1,0,.08,7.85,7.85,0,0,1-4.77,7.64,7.63,7.63,0,0,1-1.38.44,7.84,7.84,0,0,1-10.08,2.5,12.89,12.89,0,0,1-2.17,1.54,7.85,7.85,0,0,1-2.67.92,7.83,7.83,0,0,1-5.36,2.12h-.13a5.83,5.83,0,0,1-.59,0,7.88,7.88,0,0,1-4.84,2.91,7.68,7.68,0,0,1-1.35.11,8.12,8.12,0,0,1-2.14-.29,17.81,17.81,0,0,1-3.12,2,7.77,7.77,0,0,1-3.57.87,7.87,7.87,0,0,1-4.68-1.55l-.05,0-.85.63a7.83,7.83,0,0,1-7.35,1,23.15,23.15,0,0,1-3.35,1.38,7.88,7.88,0,0,1-2.44.39,8.49,8.49,0,0,1-1.59-.16,7.9,7.9,0,0,1-5.11.82,7.71,7.71,0,0,1-1.91.45,7.57,7.57,0,0,1-3.8-.54,8.79,8.79,0,0,1-.66.7,7.89,7.89,0,0,1-7.58,1.82l-.39-.12a7.86,7.86,0,0,1-8-.65,7.64,7.64,0,0,1-2.28.35l0,0a7.84,7.84,0,0,1-5.38,2.13,7.71,7.71,0,0,1-2.23-.32A7.82,7.82,0,0,1,80.41,204.85Z"/>
        <path class="aab2c5fe-16cd-454f-9aff-7860f02d9260" d="M75.51,200a7.88,7.88,0,0,1-3.47-.81,29.18,29.18,0,0,1-3.2-1.85,8.49,8.49,0,0,1-.88.05,8.05,8.05,0,0,1-2.22-.32q-1.21-.36-2.4-.84a7.76,7.76,0,0,1-1,.6,7.91,7.91,0,0,1-3.67.91,7.72,7.72,0,0,1-3.81-1A20.61,20.61,0,0,1,50.08,193a6.69,6.69,0,0,1-.9-.27,14.12,14.12,0,0,1-2.7-1.33H46a7.67,7.67,0,0,1-2.82-.53,12,12,0,0,1-3.16-1.8h-.17l-.56,0a8.16,8.16,0,0,1-2.21-.49,7.83,7.83,0,0,1-5-2.18,16.12,16.12,0,0,1-3.56-5.15c-.21-.19-.41-.4-.61-.61s-.43-.51-.63-.76a9.1,9.1,0,0,1-1,.07h-.12a7.1,7.1,0,0,1-1.46-.16,6.76,6.76,0,0,1-.78.17,8.08,8.08,0,0,1-1.2.09A7.82,7.82,0,0,1,18,178.41a7.84,7.84,0,0,1-6.65-5.7,7.83,7.83,0,0,1-4.81-6,21.2,21.2,0,0,1-.26-2.37,7.84,7.84,0,0,1-1.77-5.1,28.23,28.23,0,0,1,1.11-7.29,7.83,7.83,0,0,1-1-9.41A33.31,33.31,0,0,1,8,137.81a7.82,7.82,0,0,1,2.63-7.06c.5-.43,1-.83,1.52-1.2a7.85,7.85,0,0,1,7.71-6.44h.44c.41,0,.85,0,1.31-.07a20.94,20.94,0,0,1,3.17-2c-.12-1.13-.23-2.31-.32-3.53C22.73,93,41.82,74.66,50.07,71.14a20,20,0,0,1,3.11-1c1.94-5,3.71-12.73,5.27-23.11,2-13,7.47-20.67,13-25.12A15.14,15.14,0,0,1,73.75,9.24,13,13,0,0,1,84.37,3.6h.5a12.64,12.64,0,0,1,4.32.92,12.75,12.75,0,0,1,3.52-.64l.61,0a12.17,12.17,0,0,1,9.56,4.58,15.42,15.42,0,0,1,2.91,5.91,12.54,12.54,0,0,1,3.34,3.69,15.83,15.83,0,0,1,2,9.15c3.79,6,5.85,13.37,7.14,20.57a9,9,0,0,1,2.23.75,10.79,10.79,0,0,1,6.08-1.92h.13a9.48,9.48,0,0,1,7.09,3.17,13.24,13.24,0,0,1,2.92,5.91,7.79,7.79,0,0,1,1.48.92h.26a11.58,11.58,0,0,1,2.11.19c7.59,1.37,9.21,9.51,8.46,22.47a10.83,10.83,0,0,1,1.56,1.9c1.29,2,2.53,5.28.87,13.77a58.8,58.8,0,0,1-1.73,6.64c-.07.22-.15.43-.22.65v0a44.23,44.23,0,0,1,2.13,10c.13,1.38.23,2.71.29,4l.1,0a7.8,7.8,0,0,1,4,3.25h.11a10.57,10.57,0,0,1,1.6.12,27.45,27.45,0,0,1,6.33,1.78l.1,0a7.7,7.7,0,0,1,2.68,1.81,36.82,36.82,0,0,1,13.23,4.5,7.85,7.85,0,0,1,3.65,8.94,8.15,8.15,0,0,1-.29.83,26.46,26.46,0,0,1,1.81,2.78,7.85,7.85,0,0,1,.93,2.76,28.1,28.1,0,0,1,4,5.61,7.85,7.85,0,0,1-1.32,9.24,7.76,7.76,0,0,1-4.29,2.22,7.84,7.84,0,0,1-1.81,2.37c.08.38.15.76.22,1.15a7.85,7.85,0,0,1-3.55,7.91s0,0,0,.08a7.85,7.85,0,0,1-4.77,7.64,7.63,7.63,0,0,1-1.38.44,7.84,7.84,0,0,1-10.08,2.5,12.89,12.89,0,0,1-2.17,1.54,7.93,7.93,0,0,1-2.67.92,7.83,7.83,0,0,1-5.36,2.12h-.13a5.83,5.83,0,0,1-.59,0,7.88,7.88,0,0,1-4.84,2.91,8,8,0,0,1-3.49-.19,17.87,17.87,0,0,1-3.12,2.05,7.81,7.81,0,0,1-8.25-.68l0,0-.86.63a7.81,7.81,0,0,1-7.34,1.05,24.86,24.86,0,0,1-3.35,1.38,7.74,7.74,0,0,1-4,.22,7.72,7.72,0,0,1-3.73.95,7.84,7.84,0,0,1-1.37-.12,7.71,7.71,0,0,1-1.91.45,7.89,7.89,0,0,1-.84,0,7.78,7.78,0,0,1-3-.59,8.79,8.79,0,0,1-.66.7,7.89,7.89,0,0,1-7.58,1.82l-.39-.12a7.86,7.86,0,0,1-8-.65,8,8,0,0,1-2.28.35.08.08,0,0,0,0,0,7.84,7.84,0,0,1-5.38,2.13,7.71,7.71,0,0,1-2.23-.32A7.82,7.82,0,0,1,75.51,200Z"/>
        <g>
          <g>
            <path class="b30a3bf2-d641-46e6-b47e-ec9f832ff355" d="M172.4,150.72a30.15,30.15,0,0,0-7.18-2.83,39.41,39.41,0,0,1,18,4.56,19.16,19.16,0,0,0-15.13-10.15,24.13,24.13,0,0,1,10.25,1.89A17,17,0,0,0,164,135.32a68.67,68.67,0,0,1,12.15-.72,29.75,29.75,0,0,0-21.58-3,1.36,1.36,0,0,1,.82-.64c1-.28,2-.5,3-.79l-.23,0c-1.78.36-3.6.6-5.4,1l-.16,0-.7.12c-1.37.2-114.77,2.73-116.84,1s-4.82-2.08-7.41-1.95-5.16.69-7.75.63a14.33,14.33,0,0,1,6.38,2.09,14.93,14.93,0,0,0-10.5,3.64l8.17-.62a24.41,24.41,0,0,0-12.62,10.49,10.33,10.33,0,0,1,6.55-3.33,16,16,0,0,0-4.22,8.84c.1-.12.21-.22.32-.33a20.66,20.66,0,0,0-1.64,7.62l4.22-4.86a15.7,15.7,0,0,0-2.29,10.94q2.19-4.14,4.4-8.27a43.33,43.33,0,0,0,.23,13.45l3.37-9a17.9,17.9,0,0,0,.48,10.57,21.12,21.12,0,0,1,3.11-10.1,10.34,10.34,0,0,0,.44,10q2.68-3.89,5.35-7.79a11.81,11.81,0,0,0,2.21,11.13,10.06,10.06,0,0,1,2.15-5.9,9.76,9.76,0,0,0,1.58,11.21,10,10,0,0,1,1.61-7.39,11.92,11.92,0,0,0,.69,7.88q1.59-2.41,3.16-4.83c-1,2.72.47,6.18,3,7.16l1.38-5.69a7.46,7.46,0,0,0,4.48,7.48l-.09-5.21a14.71,14.71,0,0,0,6.94,9.72,16.6,16.6,0,0,0-1.72-9,19.56,19.56,0,0,0,11,8.63c-.72-2.36-1.43-4.71-2.14-7.07a22.11,22.11,0,0,0,9.69,9.68L71.34,182a22.34,22.34,0,0,0,10.41,9.28l-3.45-9.71a15.49,15.49,0,0,0,8.85,7.53c-.46-2.62-.91-5.25-1.37-7.88a36.69,36.69,0,0,0,8.23,9c-.48-2.36-1-4.73-1.43-7.09a12.25,12.25,0,0,0,7.5,6.71L98,180.56a12.71,12.71,0,0,0,5.65,5.95c.34-2.37.69-4.75,1-7.12q2.22,4.13,4.46,8.25a14.85,14.85,0,0,1,4.11-6.75v6.37a17.83,17.83,0,0,0,6.44-6.76l-1.11,6a18.7,18.7,0,0,0,9.4-7.09l-.92,5.8,11.71-8.63-1.47,8.05a11.44,11.44,0,0,0,5.83-8.58,7.48,7.48,0,0,0,3,6,15.62,15.62,0,0,0,2.75-8.54A7.81,7.81,0,0,1,153,179l1.67-7.49q1.26,2.73,2.5,5.46c2.87-1.62,4-6,2.43-9.09a22.14,22.14,0,0,1,7.22,7.43c.71-4.24-2.27-8-5-11.11a43.27,43.27,0,0,1,9.81,7.9,17.32,17.32,0,0,0-8.24-13.93,37.4,37.4,0,0,1,11.87,6.8,16.27,16.27,0,0,0-7.11-11,28.07,28.07,0,0,1,9.42,2.73A11.54,11.54,0,0,0,172.4,150.72Z"/>
            <path class="b37fde0c-aa21-448b-9acd-588b6732d854" d="M165.15,148.17A16.37,16.37,0,0,1,175.92,144a16.27,16.27,0,0,0-13.1-3.74,7.79,7.79,0,0,0,6-4.49l-11-.15c1.9-1.41,3-5.43,3.29-6.9a19.71,19.71,0,0,0-4.73-1.35c-1.66-.27-4.63,1.63-5.8,3.24.92-1.66-.86-4.92-1.32-7l-.27-.1c-2.18,1.24-3.56,3.71-4.8,6l.08-5.9a11.92,11.92,0,0,0-12.66,2.45l3.72-3.37a15.63,15.63,0,0,0-14.64,3.38q2.73-3.78,5.48-7.55a34.48,34.48,0,0,0-15.83,9.76,33.13,33.13,0,0,0,3.76-11.26,31.32,31.32,0,0,0-12.72,12l3.75-14.36a14.6,14.6,0,0,0-7.34,12.89l-.18-8.93c0-.93-.19-2.09-1-2.33s-1.63,1-2,2l-2.88,9.27A19,19,0,0,0,85,113.71l1.61,10.93a15.73,15.73,0,0,0-9-9.65l4.1,9.84-11.28-8.64q3,5.64,5.89,11.29a38.49,38.49,0,0,0-16.29-10.06,16.76,16.76,0,0,1,8.21,8,63.79,63.79,0,0,0-16.07-7,22.74,22.74,0,0,1,8.85,10.44,55.81,55.81,0,0,0-13-9.54A33.25,33.25,0,0,1,52.9,131,60.54,60.54,0,0,0,41.55,119c2.5,3.69,3.73,1.22,4.65,5.7-2.34-3.15-4.93,1.16-8.42-.2L39,127.75a12.28,12.28,0,0,0-14,2.71L36,133.05a13,13,0,0,0-12,2.7,21.74,21.74,0,0,1,10.3,1.69c-6.6-1-13.49,4.32-14.78,11.47L27,144.33a15.31,15.31,0,0,0-6.12,12.38q2.54-2.62,5.05-5.27a17.88,17.88,0,0,0-3.27,13.24,11,11,0,0,1,8.15-6.53,9,9,0,0,0-6.13,7.66,16.1,16.1,0,0,1,14.09-3.25,8.32,8.32,0,0,0-5.24,7l9.64-4.89a10.61,10.61,0,0,0-4.8,10l6.51-6.31a7.53,7.53,0,0,0-.16,8.33L52,169.44a20.3,20.3,0,0,0-.68,9.79l6.21-9.34a16.32,16.32,0,0,0-.47,9.51q2-4.14,4.07-8.27a12.8,12.8,0,0,0,1.29,8.3,14.09,14.09,0,0,0,2.66-5.4,9.86,9.86,0,0,0,2.12,6.78,20.65,20.65,0,0,1,2.73-9,10.13,10.13,0,0,0,2.41,7.87,11.12,11.12,0,0,0,3.42-6.37,15.45,15.45,0,0,0,1.72,7.87q1.37-3.74,2.74-7.49a15.87,15.87,0,0,0,4.45,9v-7.87a10.15,10.15,0,0,0,6,7.88l.51-9.68L96.56,182a8.12,8.12,0,0,0,1.65-4.45,6.17,6.17,0,0,0,1.2,2.21,10.33,10.33,0,0,0,4.7-5.6l1.74,7.11a18.42,18.42,0,0,0,4.88-7.89l2.79,8.31a11.67,11.67,0,0,0,3.61-7.95,9.55,9.55,0,0,0,3.49,6.84,16,16,0,0,0,2-8.22q2.76,4.32,5.53,8.65a8.69,8.69,0,0,0,1.79-7.63l1.8,5.52c2.72-.89,4.6-3.94,4.68-7,.24,1.62.49,3.24.73,4.86l2.4-7.12a19.76,19.76,0,0,1-.32,8.69,10.49,10.49,0,0,0,5.75-9.44l.09,7.93a12.48,12.48,0,0,0,4.74-9.06l.48,7.66a12,12,0,0,0,3.61-10.27l3.87,6.42a9.82,9.82,0,0,0,1.32-8.8l6.56,3a8.44,8.44,0,0,0-2.47-6.6l7.66.25L166,153.27l9.34-.61A14.3,14.3,0,0,0,165.15,148.17Z"/>
            <path class="ab4f3ae0-f1c8-4bd4-b077-496cee3bdfde" d="M96,165.67c-.52,2.39-1,4.78-1.57,7.18a13,13,0,0,1-3.33-6.92l-3.39,6.87a12.26,12.26,0,0,1-1.79-6.48c-.63,2.61-1.25,5.22-1.88,7.83a15.39,15.39,0,0,1-4.25-7.5c-.49,2.06-1,4.13-1.48,6.19a9.91,9.91,0,0,1-1.51-6.51,10.12,10.12,0,0,0-1.88,7.12A7.44,7.44,0,0,1,72.65,165a15.06,15.06,0,0,0-2.18,8.16,13.14,13.14,0,0,1-3.18-9.78c-1.57,2.29-3.14,4.57-4.7,6.86a15.09,15.09,0,0,1-.33-7.52q-1.74,4.94-3.5,9.87a7.74,7.74,0,0,1-3.27-9.18,5.15,5.15,0,0,0-1.85,4.08,4.06,4.06,0,0,1,.19-6,18.86,18.86,0,0,0-6.62,7.11A6.57,6.57,0,0,1,48.62,160a13.15,13.15,0,0,0-6.14,8.29,9.33,9.33,0,0,1,1-9.57,13.76,13.76,0,0,0-6.38,7,9.68,9.68,0,0,1,2.63-10l-4.89,4.92a5.86,5.86,0,0,1,2.78-6.79,12.81,12.81,0,0,0-7.81,6.55,8,8,0,0,1,3.06-9.21l-6.94,4.91a11.21,11.21,0,0,1,5.15-10l-6.62,1.62a9.84,9.84,0,0,1,8.5-5.9l-5.54-.15a15.6,15.6,0,0,1,10-5.61l-8.87-.8A12.54,12.54,0,0,1,39,132.08l-4.72-3.6a12.32,12.32,0,0,1,11.71,4.17A12.3,12.3,0,0,0,44,124.53a11.88,11.88,0,0,1,8.6,5.55l-.6-7.26a9.05,9.05,0,0,1,5.59,6A9.38,9.38,0,0,1,60,121.22a14.12,14.12,0,0,1,3.27,8.2,13.85,13.85,0,0,1,3.33-10.83l.09,8.89a8.9,8.9,0,0,1,5-7.19L73,128.13a18.21,18.21,0,0,1,4.42-9.8l.3,8.82A11.33,11.33,0,0,1,83.37,119l-.93,8.16a10.76,10.76,0,0,1,5.66-8.8c0,2.17,0,4.34,0,6.51a7.86,7.86,0,0,1,5-7.82l.32,7.5a8.14,8.14,0,0,1,5.34-6.21l0,8.82a8.91,8.91,0,0,1,6.91-6.87l-1.2,5.9a8.79,8.79,0,0,1,6.07-7L109,126.13a8.31,8.31,0,0,1,7.72-5.49,15.05,15.05,0,0,0-2.86,6.48,15.54,15.54,0,0,1,11-4.86l-3.43,5.9a12.3,12.3,0,0,1,9.43-4.77c.12.62.23,1.24.34,1.86a4.37,4.37,0,0,0-3.13,4.3,11.21,11.21,0,0,1,11-2.23,7.38,7.38,0,0,0-4.5,3.75,17.24,17.24,0,0,1,11.69-3L142,132.72a11.36,11.36,0,0,1,11.45.14,7.77,7.77,0,0,0-6.42,3.77,15.73,15.73,0,0,1,12.31-.73,13.71,13.71,0,0,0-7.58,3.34,14.11,14.11,0,0,1,15.12,1A25.12,25.12,0,0,0,153.66,143c4.19-1.36,9.11,2.49,9,7a15.34,15.34,0,0,0-7.79-2.78,11,11,0,0,1,9.65,7.27A30.7,30.7,0,0,0,152,152.7a7.57,7.57,0,0,1,6.81,6.08,21.43,21.43,0,0,0-8.72-3.49,9.51,9.51,0,0,1,6.91,7.93,26,26,0,0,0-11-5.14c4,1.28,6.59,6.2,5.41,10.39a26.71,26.71,0,0,0-11.64-8.31,8.78,8.78,0,0,1,3.72,9.74,28.18,28.18,0,0,0-8.39-9.08l1.71,8.28-5.41-6.62a12.78,12.78,0,0,1,.16,9.42,15.07,15.07,0,0,0-4-8.09,6.32,6.32,0,0,1-2,8.54,28.37,28.37,0,0,0-3.7-9.67c.27,3,.53,6,.8,9a9.93,9.93,0,0,1-4.81-6.4l.32,9.45-3.84-9.49c-.6,3-1.21,5.94-1.81,8.92l-3.9-9.75a16.19,16.19,0,0,1-.85,12.11,25.55,25.55,0,0,0-2.09-10.89,10.77,10.77,0,0,1-3.16,9.14l-2.52-7.18.32,7.83-5-12.07Z"/>
            <path class="b901fb68-4e6c-4f32-abf6-4e0a64878fa3" d="M150.91,145.18c-.8,14.08-25.54,16.31-56.87,16s-56.67-7.89-56.59-17,25.53-16.31,56.86-16S151.42,136.07,150.91,145.18Z"/>
            <path class="b6f67b70-9d07-4efb-a651-ef3c68358a5f" d="M91.49,143.89c-3.24,0-6.33-1.42-9.46-2.37-11.71-3.58-24.13-1.08-36,1a5.36,5.36,0,0,0-4.06,3.42c-1.62,4.17,2,7.16,5.26,8.26a24.85,24.85,0,0,0,18.87-1.24,7.82,7.82,0,0,1,7.85.4A12.5,12.5,0,0,0,89,152.56a19.83,19.83,0,0,0,27.55-.73,24.31,24.31,0,0,0,23.06,5.43c3.6-1.09,7.52-3.73,7.12-8.66a7.28,7.28,0,0,0-.77-2.73c-1.63-3.23-4.61-4.64-7.58-5.19a18.57,18.57,0,0,0-16.88,6.1,29.86,29.86,0,0,0-22.24-4.31C96.67,143,94.11,143.9,91.49,143.89Z"/>
            <path class="aab2c5fe-16cd-454f-9aff-7860f02d9260" d="M52.2,127.44c.9,1.14,6.77-.78,10.16-1s7,0,9.93,1.85A26.74,26.74,0,0,0,54.86,125a4.22,4.22,0,0,0-1.86.64A1.91,1.91,0,0,0,52.2,127.44Z"/>
            <path class="aab2c5fe-16cd-454f-9aff-7860f02d9260" d="M94.51,113a12.47,12.47,0,0,1,3.33,4.41c1.9,3.8,3,8.43,1.51,12.47a15.09,15.09,0,0,0-5.16-14.52A3.48,3.48,0,0,1,93,114.17c-.24-.52-.11-1.31.41-1.49A1.2,1.2,0,0,1,94.51,113Z"/>
            <path class="aab2c5fe-16cd-454f-9aff-7860f02d9260" d="M126.66,115a13.48,13.48,0,0,1,1.75,5.4c.6,4.28.14,9-2.47,12.28a15.53,15.53,0,0,0-.32-15.57,3.75,3.75,0,0,1-.72-1.57c-.06-.59.31-1.28.85-1.26C126.14,114.26,126.44,114.62,126.66,115Z"/>
          </g>
          <path class="ab4f3ae0-f1c8-4bd4-b077-496cee3bdfde" d="M39.17,161.85a29.57,29.57,0,0,1,3.38-12.16l3.38,9.46,3.71-1-.67,2.7,4.39-1.35.67,4.39,5.74-1.35,4.73,4.73,4-9.46-1.69,9.79L75,163.54l-4.73,4.05,10.28-1,7.28,5.58s3.9-7.46,5.07-5.26,2.47,4.18,2.47,4.18.91-10.94,2.93-8.91,4.39,4.05,4.39,4.05,9-4.18,9.74-2.93,7.49,2.26,7.49,2.26.06-9.59.87-7.33,6.56,6.31,6.56,6.31l9.11,1.35s.51-16.6,1.95-15.56,4.13,8.47,4.13,8.47-8.1-8.1,0-4.39,10.81,2.37,10.81,2.37-5.88-9.45-1.59-7.77,5.55-.47,7-.57,6.12,2.93,6.12,2.93l-16.55,13.17L119,170.22l-13.29,3L84.09,176l-37.15-7.43Z"/>
          <polyline class="ab4f3ae0-f1c8-4bd4-b077-496cee3bdfde" points="89.05 157 76.7 142.26 92.73 156.33 100.94 141.47 96.25 156.72 106.02 146.17 102.5 159.46"/>
          <g>
            <g>
              <path class="a70d0900-00f2-4fc5-9260-7a8685cc0610" d="M137.67,123.38s-.59,20.55-20.83,30.12c0,0-6.08,2.91-7,5.9s-.5,5.87-1.62,2.57c0,0,.15,3.26-.88,1s-.81-2.49-1.38-.62-.7,1.35-1.07-.08.16,1-.73,1-.83-2.36-3.1-4.28c0,0-10.33,3.28-20.18,1.49a18.62,18.62,0,0,0-4.15,3.7c-1.76,2.2-1.37,1.08-1.4-.74s-.68.67-1.68,1.72-1.16-2.33-1.16-2.33-.28,1.11-.54,2.23-1.18.46-2.45-3.08c0,0,.22,3.82-.56,2s-.32-3.86-3.92-7.82c0,0-14.32-6.47-20.45-20-4.54-10-5.57-24.89,3.21-37.2h0a35.91,35.91,0,0,1,3.57-4.27,43.57,43.57,0,0,1,9.6-7.45c11.43-6.67,30-8.76,46-3.14a47.45,47.45,0,0,1,16.17,9.45C130.63,100.27,136.1,110,137.67,123.38Z"/>
              <path class="ec58ab06-525e-4897-a79d-d830127baead" d="M137.48,123.37a34.68,34.68,0,0,1-4.86,15.56,35.56,35.56,0,0,1-11,11.71c-3.68,2.49-8.44,3.84-11.32,7.41a7.29,7.29,0,0,0-1.24,3.39c-.1.56-.16,1.13-.28,1.69,0,.18.13.28-.06-.13a9.58,9.58,0,0,1-.39-1.06c0-.09-.4-.09-.39,0a3.65,3.65,0,0,1-.17,1.71,7,7,0,0,0-1.28-2.57c-.44-.12-.51.27-.62.62s-.28.93-.45,1.39c-.08.22,0,.48-.12.26-.24-.47-.24-1-.43-1.52,0-.08-.23-.06-.29,0h0s-.09,0-.09.07c-.08.6-.3,1.83-.9.69a15.53,15.53,0,0,0-1.73-2.94c-.79-.93-1-.67-2-.39a47,47,0,0,1-16.56,1.51c-.56-.05-2.14-.6-2.62-.3a18.09,18.09,0,0,0-1.81,1.35,19.39,19.39,0,0,0-2.64,2.72c-.15.18-.3.35-.46.52-.43.47-.25.24-.28,0,0-.51,0-1,0-1.55,0-1.36-.77-.42-1.1.2a11.66,11.66,0,0,1-.78,1.27c-.46.63-.61,0-.74-.43a7.71,7.71,0,0,1-.22-1.66c0-.12-.37-.12-.4,0-.11.47-.44,3-1,2.41A8.94,8.94,0,0,1,69.66,162c0-.09-.4-.09-.39,0a14.93,14.93,0,0,1,0,1.77c0,.42.07.73-.18.2a8,8,0,0,1-.43-1.44,14.91,14.91,0,0,0-.81-2.53,10.34,10.34,0,0,0-2.7-3.86,19.82,19.82,0,0,0-1.89-1,49.51,49.51,0,0,1-4.67-2.95,43.42,43.42,0,0,1-11.85-12.31,38,38,0,0,1,2.17-42.26c6-7.79,14.93-12.86,24.41-15.14,16.86-4.06,36.48-.76,49.61,11,8.58,7.7,13.18,18.56,14.55,29.86,0,.12.4.11.39,0-1.22-10.08-5-19.74-11.88-27.27A47.65,47.65,0,0,0,104.12,83C88.67,78.55,70.32,80.13,57,89.57a37.27,37.27,0,0,0-15.9,26.78,38.13,38.13,0,0,0,8.1,27.53A46.45,46.45,0,0,0,64.3,156a6.91,6.91,0,0,1,2.38,2.64,15.67,15.67,0,0,1,1.78,4.67c.07.24.46,1.7,1,1.24s.25-1.91.21-2.52l-.38,0c.29.8,1,3.57,2.18,3.63,1,0,1-2.15,1.19-2.8h-.4c0,.56.06,2.74,1,2.61.69-.09,1-.95,1.35-1.49l.38-.7c.2-.38,0-.32.07-.1.08.6,0,1.23,0,1.84,0,1.67,2.59-1.7,2.67-1.78a18.24,18.24,0,0,1,3.09-2.58c.33-.22,1.42.16,1.85.21,1,.12,1.94.18,2.9.22A47.64,47.64,0,0,0,101,159.11c.51-.15,1.68,2.22,1.93,2.75s.46,1.37,1.17,1.48c.43.07.65-.27.76-.63a2.39,2.39,0,0,0,.06-.53c0-.53-.23.13-.29-.1a8.45,8.45,0,0,0,.44,1.46c.18.33.59.05.71-.15a11.89,11.89,0,0,0,.7-2.06c-.16-.11-.18-.09-.06.07l.21.47c.21.48.42,1,.66,1.45.11.22.55.8.88.46s.26-1.31.24-1.81H108c.13.4.29,1.52.89,1.53s.46-1.08.5-1.38a8.77,8.77,0,0,1,1.34-4,12.89,12.89,0,0,1,3.12-2.72,51.27,51.27,0,0,1,4.93-2.71,36,36,0,0,0,18.75-26.32,21.13,21.13,0,0,0,.34-3C137.87,123.26,137.48,123.26,137.48,123.37Z"/>
              <path class="a40a054e-4dd2-4c0f-a589-8cb9e64ebb6b" d="M137.67,123.38s-.59,20.55-20.83,30.12c0,0-6.08,2.91-7,5.9s-.5,5.87-1.62,2.57c0,0,.15,3.26-.88,1s-.81-2.49-1.38-.62-.7,1.35-1.07-.08.16,1-.73,1-.83-2.36-3.1-4.28c0,0-10.33,3.28-20.18,1.49a18.62,18.62,0,0,0-4.15,3.7c-1.76,2.2-1.37,1.08-1.4-.74s-.68.67-1.68,1.72-1.16-2.33-1.16-2.33-.28,1.11-.54,2.23-1.18.46-2.45-3.08c0,0,.22,3.82-.56,2s-.32-3.86-3.92-7.82c0,0-14.32-6.47-20.45-20-4.54-10-5.57-24.89,3.21-37.2h0c1.29-2.79,2.79-6.13,4-9a5.18,5.18,0,0,1,0,3.58c-.14.39-.3.76-.47,1.14-1.52,3.33-4.06,5.8-4.86,9.74-.06.29,12-9.56,12-9.27-1,5.61,4.39,20-1.59,23.67C49,123.52,56.31,138.3,63.48,144c6,4.73,13.17,8.33,20.79,8.65a53.43,53.43,0,0,0,12.56-1.48c7.19-1.44,14.5-2.92,20.9-6.48s11.86-9.6,12.83-16.85c.86-6.55-3-4.47-7.25-9.48s-8.94-17.4-14.45-21a56.85,56.85,0,0,1,12.76,2.88l-7.07-5.82-4.66-3.84c-1.36-1.11-2.8-2.37-3.16-4.09A3.9,3.9,0,0,1,107,84c1.07-2.5,4.64-4.11,7.65-4.63A25.69,25.69,0,0,0,120,78c2.84,1.87,5.52,4.24,6.46,7.48.88,3-.6,6.82-3.32,8C130.63,100.27,136.1,110,137.67,123.38Z"/>
            </g>
            <g>
              <g>
                <path class="ea3f9453-621e-4a29-8eeb-521a0a037ee2" d="M143.75,93.42a46.53,46.53,0,0,1-1.49,5.72c-1.71,5.27-4.39,10.33-7.8,11.63-7.3,2.78-23.78-32.52-23.78-32.52s.29-4.69,1-9.82c.07-.55.15-1.09.24-1.65.82-5.4,2.09-10.78,3.94-11.29,3.8-1,4,9.87,4,9.87s2.18-10.85,6.87-10.92c3.94,0,2.75,12.8,2.75,12.8s3.57-6.84,4.31-3.75a10.76,10.76,0,0,1-.51,5.05c.34-.66,2.54-4.65,5.93-4,3.65.66,1.53,20.47,1.49,21,.13-.19,1.79-2.46,3.39,0C144.64,86.39,144.51,89.58,143.75,93.42Z"/>
                <path class="f44d4a6e-b37b-4e3d-a039-3213b2660a12" d="M143.75,93.42c.8-10.79-4.47-5.24-4.47-5.24a46.19,46.19,0,0,0,.92-17.53c-1.32-10.09-7.47-.18-7.47-.18s1.29-5.79.09-6.08-4.16,4.36-4.16,4.36c0-12.45-1.59-12.33-1.59-12.33C123.22,54.88,119.3,67,119.3,67s-.66-8-3.07-8.67c-1.45-.42-3.18,4.5-4.32,8.48.82-5.4,2.09-10.78,3.94-11.29,3.8-1,4,9.87,4,9.87s2.18-10.85,6.87-10.92c3.94,0,2.75,12.8,2.75,12.8s3.57-6.84,4.31-3.75a10.76,10.76,0,0,1-.51,5.05c.34-.66,2.54-4.65,5.93-4,3.65.66,1.53,20.47,1.49,21,.13-.19,1.79-2.46,3.39,0C144.64,86.39,144.51,89.58,143.75,93.42Z"/>
              </g>
              <path class="ab600f97-80b2-4c0b-ac48-8038e52220e4" d="M141.67,102.71c-1.71,5.28-4.39,10.33-7.8,11.64-7.3,2.78-23.78-32.52-23.78-32.52s.29-4.69,1-9.82C119.15,74.67,137.29,82.76,141.67,102.71Z"/>
            </g>
            <g class="b70ba2da-54be-4e67-a99c-08cb63a44cff">
              <path class="ec58ab06-525e-4897-a79d-d830127baead" d="M106.75,130.36a22.35,22.35,0,0,1,.79,4.44c0,.62-.34,2.36.58,2.6.52.14,1-.32,1.28-.67a10.18,10.18,0,0,0,1.87-4.84h-.4c.2.68,1,2,1.83,1.14a11.21,11.21,0,0,0,2.78-5.92c0-.1-.37-.13-.39,0a12.89,12.89,0,0,1-1.07,3.32,11.16,11.16,0,0,1-1.5,2.35c-.67.83-1.14-.48-1.25-.87,0-.11-.38-.13-.4,0a13.44,13.44,0,0,1-1.28,4c-.22.42-1.28,2.08-1.59,1a6.69,6.69,0,0,1,0-1.55,18.85,18.85,0,0,0-.23-2.25,19.89,19.89,0,0,0-.59-2.65c0-.13-.41-.1-.39,0Z"/>
              <path class="ec58ab06-525e-4897-a79d-d830127baead" d="M121.28,125.92a3.33,3.33,0,0,0,1.4-2.06c1-3.17-.45-7-1.61-9.87,0-.11-.42-.11-.38,0,1.16,2.92,2.36,6.33,1.68,9.51a3.44,3.44,0,0,1-1.42,2.31c-.12.06.24.16.33.11Z"/>
              <path class="ec58ab06-525e-4897-a79d-d830127baead" d="M125.67,125.2c3.84,1.06,1.3-6.34.9-7.46,0-.12-.43-.07-.4,0,.25.69,2.71,8.15-.22,7.33-.1,0-.47.07-.28.12Z"/>
            </g>
            <g>
              <g>
                <path class="a803f977-601d-4a56-a098-f8bc9b5da017" d="M58.35,79.63s.42-3.68-5.2-1.28S30.82,96.2,32.28,117c.84,12,3.81,18.16,6.4,14.44A22.85,22.85,0,0,0,43,139.63c3,3.31,4.87,2.19,4.87,2.19a38.61,38.61,0,0,1-5.5-17.68s1.8.18,3.55-8.06c0,0,2.28.14,4.26-5.36s1.26-12.24,2.26-9.9,4.31-6,5.48-12.1A39.27,39.27,0,0,0,58.35,79.63Z"/>
                <path class="ee35ae75-ae7c-4d0c-9f0f-48537f89eb65" d="M35,104.46c-2.55,6.94-1.8,15.47.91,22.21.54,1.33,1.82,4.54,3.77,4.26,1-.15,1.21-2,1.37-2.67a18.74,18.74,0,0,0,.6-4.48l-.37,0a1.34,1.34,0,0,0,1.27.49c.25,0,0-.19-.17-.18a.79.79,0,0,1-.74-.31s-.37-.16-.37,0a19.09,19.09,0,0,1-.27,2.82c-.18,1.11-.29,3.52-1.41,4.18s-2.22-1.79-2.52-2.33a22.26,22.26,0,0,1-1.85-4.85c-1.69-6-2-13,.16-19,0-.1-.34-.2-.38-.09Z"/>
                <path class="ee35ae75-ae7c-4d0c-9f0f-48537f89eb65" d="M43.9,105.09a34.08,34.08,0,0,0-.2,5.15c.07,1.85.18,4.93,2.1,5.92.1,0,.45-.08.32-.15-1.94-1-2-4.27-2-6.13a31.23,31.23,0,0,1,.2-4.83c0-.13-.37-.07-.38,0Z"/>
                <path class="ee35ae75-ae7c-4d0c-9f0f-48537f89eb65" d="M39.61,112.56c-.19,3.63-.12,7.94,1.61,11.22.06.11.42,0,.38-.08-1.72-3.28-1.79-7.58-1.6-11.22,0-.09-.38,0-.39.08Z"/>
              </g>
              <path class="b177b305-68f7-46a9-ae53-066c8cf88ce9" d="M35.38,105.46a29,29,0,0,0,.54,18.4A59.92,59.92,0,0,1,35.38,105.46Z"/>
            </g>
            <g>
              <path class="a803f977-601d-4a56-a098-f8bc9b5da017" d="M112,80.4s-1-3.55,4.92-2.1,24.94,14,26.88,34.7c1.12,12-.81,18.53-4,15.29a22.74,22.74,0,0,1-3,8.82c-2.44,3.76-4.45,3-4.45,3A38.64,38.64,0,0,0,135,121.73s-1.75.47-4.82-7.37c0,0-2.22.51-5.07-4.6s-3.24-11.87-3.84-9.4-5.24-5.26-7.38-11A39,39,0,0,1,112,80.4Z"/>
              <path class="ee35ae75-ae7c-4d0c-9f0f-48537f89eb65" d="M138.78,101.15c3.07,5.42,3.83,12.19,3.3,18.27-.22,2.44-.55,6.36-2.57,8.11-1.55,1.33-3.22-5.17-3.4-6.34,0-.1-.33-.15-.38-.06a1,1,0,0,1-.86.52c-.2,0,.15.18.25.17a1.1,1.1,0,0,0,1-.61l-.38-.06a19.71,19.71,0,0,0,1.15,3.91c.36.92.74,2.43,1.81,2.84,1.88.72,2.84-3.28,3.11-4.32,1.82-7.08,1-15.94-2.63-22.38-.06-.11-.43-.13-.39,0Z"/>
              <path class="ee35ae75-ae7c-4d0c-9f0f-48537f89eb65" d="M130.05,103.23a36.2,36.2,0,0,1,.95,4.49c.28,1.88.83,5.28-1,6.61-.16.13.22.11.3,0,1.69-1.25,1.35-4.13,1.16-5.93a31,31,0,0,0-1.06-5.31c0-.11-.41,0-.38.09Z"/>
              <path class="ee35ae75-ae7c-4d0c-9f0f-48537f89eb65" d="M135.49,109.88c.77,3.55,1.4,7.81.24,11.31,0,.11.34.07.38,0,1.17-3.53.54-7.78-.24-11.35,0-.11-.41,0-.38.08Z"/>
            </g>
            <path class="e4eef7d2-f798-478b-9e35-fb081e451563" d="M89.89,23.15s-19.75-1.06-23.68,25-8.55,32-12.71,34.54,1,3.32,3.7.67c0,0-6.46,8.23-5.15,14.26.78,3.58,5.78-3.63,5.78-3.63s-1.76,8.15.72,11.84,7-4,7-4,1.34,7.41,5.69,10.21,3.41-8.77,4.27-4.23,3.18,12.12,11.31,1.74c0,0-2.3,4.56.82,4.06s6.11-5.36,6.11-5.36-2.7,5.57-.49,5.87,8.63-4.35,9.88-9.79c0,0-.59,4.66.86,4.54s2.9-6.06,2.9-6.06-1.07,4.7.82,4.06,5.45-7.49,5.86-11.41c0,0,2.46,6.36,4.16,3.3s-.13-10.42-2.23-15.35c0,0,.66,2.13,3.25,1.19s-3-3.4-5.31-14.37S111.93,22.55,89.89,23.15Z"/>
            <g class="a9140717-0ed9-4814-91d1-208db6369fe5">
              <path class="e0018699-dd50-481e-bf62-cdf5515ac10f" d="M113.41,70.26c-2.35-11-1.48-47.71-23.52-47.11a21.06,21.06,0,0,0-9.54,2.29,4.61,4.61,0,0,1,1.08,1.68C82.87,31.33,83,30,85.05,28.24c2.72-2.33,16.18-8,21.41,12.48,0,0,1.53,2.79,2.2,20.86.46,12.42,6.47,20.67,2.11,17.87s3.48,6.92-.91,20.55c0,0-2.51,4.9-2.41.2s-.38-2.72-1.92,2.26-1.58.45-1.84-2.76-2.53,8.62-7.84,11c0,0-2.16,1.31-1.12-1.85s1.66-6.37-1.85-1.83-6.21,5.73-4.55-2.18-2.07,4.3-6,6.68-5.59-4.64-6.64-10-1.43-1.1-2.06,4.54-6.54.17-6.85-11.09-1.82,4.52-4.72,7.67-4.65-1.93-3.17-9.09-3.57,2.36-5.2,3.22-.88-6.36,4.26-13.22-1.31.22-4.22.35a4.41,4.41,0,0,1-1.54-.13c-1.26,1.62,2.75,1.83,5-.4,0,0-6.46,8.23-5.15,14.26.78,3.58,5.78-3.63,5.78-3.63s-1.76,8.15.72,11.84,7-4,7-4,1.34,7.41,5.69,10.21,3.41-8.77,4.27-4.23,3.18,12.12,11.31,1.74c0,0-2.3,4.56.82,4.06s6.11-5.36,6.11-5.36-2.7,5.57-.49,5.87,8.63-4.35,9.88-9.79c0,0-.59,4.66.86,4.54s2.9-6.06,2.9-6.06-1.07,4.7.82,4.06,5.45-7.49,5.86-11.41c0,0,2.46,6.36,4.16,3.3s-.09-10.23-2.16-15.16a1.23,1.23,0,0,1-.07-.19l.07.19c.24.5,1.07,1.76,3.18,1C121.31,83.69,115.77,81.23,113.41,70.26Z"/>
              <path class="ae66cd36-58da-4004-a316-2edcaf532ddc" d="M115.54,83.63l-.07-.19A1.23,1.23,0,0,0,115.54,83.63Z"/>
            </g>
            <g>
              <path class="aaef19fc-c37b-4625-b78a-f9264bb6e777" d="M99.71,31.51a4.07,4.07,0,0,0-1.13-1.44c-1.48-1.21-3.33-.31-4.64.7-.27.21-.9-.22-.6-.45,1.48-1.14,3.3-1.92,5.08-1a4.55,4.55,0,0,1,1.94,2.08c.2.42-.5.41-.65.1Z"/>
              <g>
                <g>
                  <path class="a4fbe222-6a40-465b-9c7c-bd3091a8af1b" d="M82,29s-1-3.48-2.78-8.63c-1.48-4.25,1.32-9.09,5.34-8.93A4.87,4.87,0,0,1,89,14.65a4.15,4.15,0,0,1,4.13-2.93c4.47-.21,5.91,5.46,5.3,8.43,0,0,2.37-.81,4.05,2s.46,7.12.46,7.12S98.13,23,90.77,23.56c0,0-6.36.89-7.4,6C83.37,29.51,82.38,29.71,82,29Z"/>
                  <path class="e49bef1d-8eb7-4eca-ab1b-268180ed9e31" d="M94.82,12.22a4.74,4.74,0,0,0-4.31.68s-.69.54-.39,1.16S91.66,12.16,94.82,12.22Z"/>
                </g>
                <g class="ec7cf42c-910f-480d-9046-153a921e0e92">
                  <path class="b7add947-b6e0-4937-a991-549a5653d021" d="M87.3,14.3c.62,2.43,1.4,1.26,1.88-.26a3.51,3.51,0,0,0-.23.61,4.87,4.87,0,0,0-4.39-3.2,5.77,5.77,0,0,0-.72,0l-.08.12A3.52,3.52,0,0,1,87.3,14.3Z"/>
                </g>
              </g>
              <path class="aaef19fc-c37b-4625-b78a-f9264bb6e777" d="M79.92,32.94a4.07,4.07,0,0,0-1.3-1.28c-1.62-1-3.35.09-4.52,1.25-.25.24-.92-.1-.65-.37,1.33-1.31,3-2.31,4.92-1.6a4.56,4.56,0,0,1,2.18,1.82c.24.4-.45.48-.63.18Z"/>
            </g>
            <path class="f1abb072-836a-47de-83da-cccd7aa33509" d="M72.45,140.32c.16,1.84.91,3.61,1.06,5.42.12,1.36-1.72-.42-2-.67a12.62,12.62,0,0,1-2-3.31c0-.09-.39-.11-.39,0a3.17,3.17,0,0,1-.21,1.06c-.43,1.07-2.53-1.38-2.8-1.69a12,12,0,0,1-1.87-3c0-.1-.43-.08-.38,0a12.32,12.32,0,0,0,3.91,4.9c1.09.81,1.71-.28,1.74-1.3h-.38c.56,1.25,2.37,5.19,4.38,4.65.82-.22.13-1.79,0-2.19a24.87,24.87,0,0,1-.71-3.91c0-.12-.4-.12-.39,0Z"/>
            <path class="b4d8a9ad-6951-4ed7-8935-1b888b7f7e08" d="M79.12,54.72s-.65,6.47,6.69,13.85c.17.17,1.07-.31,1.25-.14,0,0,3.23-1.24,6.48-13.57C93.54,54.86,87.43,50.26,79.12,54.72Z"/>
            <path class="ab16d972-55bf-4a42-a295-7683cda12c22" d="M79.12,54.72a11.4,11.4,0,0,1,6.72-4.08c4.35-.8,7.7,4.22,7.7,4.22s-.09,7.8-7,11.9C86.58,66.76,81.84,62.88,79.12,54.72Z"/>
            <ellipse class="b55aebcb-7c3b-42b4-92f7-4d254dbd5c92" cx="90.6" cy="55.49" rx="0.88" ry="1.27" transform="translate(-4.23 7.59) rotate(-4.69)"/>
            <ellipse class="b55aebcb-7c3b-42b4-92f7-4d254dbd5c92" cx="82.15" cy="55.3" rx="0.88" ry="1.27" transform="translate(-4.24 6.9) rotate(-4.69)"/>
            <g>
              <ellipse class="a3afac9d-827a-4529-8e9a-51b61016774e" cx="76.26" cy="45.65" rx="8.1" ry="5.78" transform="translate(23.86 117.44) rotate(-84.78)"/>
              <g>
                <ellipse class="a32ec28d-0e67-4518-8411-48b55e58ac5c" cx="76.13" cy="45.89" rx="5.12" ry="3.65" transform="translate(23.51 117.53) rotate(-84.78)"/>
                <ellipse class="f6a56c75-8880-43c7-ae22-03478d0c39d7" cx="76.41" cy="45.91" rx="3.17" ry="2.26" transform="translate(23.74 117.83) rotate(-84.78)"/>
                <ellipse class="e101fa59-fd67-4ca2-9256-37df7dadab35" cx="74.94" cy="43.5" rx="1.11" ry="0.79" transform="translate(24.8 114.17) rotate(-84.78)"/>
              </g>
            </g>
            <g>
              <ellipse class="a3afac9d-827a-4529-8e9a-51b61016774e" cx="97.92" cy="45.45" rx="5.78" ry="8.1" transform="translate(-5.94 15.99) rotate(-9.06)"/>
              <g>
                <ellipse class="a32ec28d-0e67-4518-8411-48b55e58ac5c" cx="97.85" cy="45.71" rx="3.65" ry="5.12" transform="translate(-5.98 15.98) rotate(-9.06)"/>
                <ellipse class="f6a56c75-8880-43c7-ae22-03478d0c39d7" cx="98.13" cy="45.66" rx="2.26" ry="3.17" transform="translate(-5.97 16.02) rotate(-9.06)"/>
                <ellipse class="e101fa59-fd67-4ca2-9256-37df7dadab35" cx="96.11" cy="43.69" rx="0.79" ry="1.11" transform="translate(-5.68 15.68) rotate(-9.06)"/>
              </g>
            </g>
            <g>
              <path class="bd35f8e0-74c6-45c7-b80c-84f0eaa0215f" d="M94.42,55.14s2.68-7,11.84-3.58"/>
              <path class="ab00734c-2855-43e0-a380-5ab7979b6594" d="M94.42,55.14a6.62,6.62,0,0,1,1.87-3,7.3,7.3,0,0,1,3.13-1.69,9,9,0,0,1,3.55-.07,16.26,16.26,0,0,1,1.7.43c.53.24,1.07.45,1.59.7-.58-.09-1.13-.23-1.69-.34s-1.12-.17-1.67-.21a11,11,0,0,0-3.3.22A8.49,8.49,0,0,0,94.42,55.14Z"/>
            </g>
            <g>
              <path class="bd35f8e0-74c6-45c7-b80c-84f0eaa0215f" d="M78.27,55.14s-3.41-6.62-10.53-2.39"/>
              <path class="ab00734c-2855-43e0-a380-5ab7979b6594" d="M78.27,55.14A11.23,11.23,0,0,0,76.12,53a6.68,6.68,0,0,0-2.62-1.18,7,7,0,0,0-2.88,0c-.49.06-1,.25-1.45.36s-.93.37-1.43.53c.41-.3.85-.59,1.29-.86a9.22,9.22,0,0,1,1.45-.6,6.23,6.23,0,0,1,3.18-.17,6.12,6.12,0,0,1,2.83,1.47A6.82,6.82,0,0,1,78.27,55.14Z"/>
            </g>
          </g>
          <g>
            <g>
              <path class="bdbc2226-8e9b-4d64-afd7-62c870084e17" d="M82,147.66c2.45,8.54-3.17,14.93-11.56,17.31s-17.54-1.66-19.1-7.16,3.25-14.41,11.58-17C71.6,138.14,79.92,140.51,82,147.66Z"/>
              <path class="a3ec7cd6-ba88-48e7-8905-546619cc81f6" d="M82,147.66a12.43,12.43,0,0,0-3.25-5c-.9-.24,6,12.52-8,18.08-5.29,2.11-8,3.15-12.48,2.33a17.77,17.77,0,0,1-2.48-.66,6.89,6.89,0,0,1-2.2-1C57.14,164.86,64,166.8,70.41,165,78.8,162.59,84.42,156.2,82,147.66Z"/>
            </g>
            <g>
              <path class="bdbc2226-8e9b-4d64-afd7-62c870084e17" d="M117.36,147.25c1,8.08,7.76,11.44,15.42,10.44s13.7-7.71,13.06-12.91-7.65-11-15.32-10.14C122.5,135.5,116.55,140.49,117.36,147.25Z"/>
              <path class="a3ec7cd6-ba88-48e7-8905-546619cc81f6" d="M121.14,138.29c.12-.11.45-.36.64-.5.2,1.4-10.43,13.41,7,14.73,10.36.78,11-.45,12.9,0s3.08-3.82,4-5.57c-.93,4.74-6.34,9.87-13,10.74-7.66,1-14.44-2.36-15.42-10.44a10,10,0,0,1,1.13-5.84A11.82,11.82,0,0,1,121.14,138.29Z"/>
              <path class="b15561ff-bb9d-449f-89a4-30416957a1e0" d="M119.5,152.9c3.92,4.41,9.56,4.74,15,3.42a15.49,15.49,0,0,0,10.53-7.77l.49-.83c-1.32,4.51-6.5,9.14-12.77,10-5.75.75-11-1-13.69-5.28Z"/>
            </g>
            <g>
              <path class="bdbc2226-8e9b-4d64-afd7-62c870084e17" d="M84.69,155.17c-1.09,8.26,5.69,13.61,14.61,13.68,9.27.08,17.47-4.77,18.14-10.09.59-6-5.53-11.61-14.58-13.38S85.82,146.59,84.69,155.17Z"/>
              <path class="a3ec7cd6-ba88-48e7-8905-546619cc81f6" d="M117,155.16a7.37,7.37,0,0,1-.73,3.6c-1.78,3.66-5.92,6-9.72,6.94-5,1.29-19-1.06-21.39-12.53a9.08,9.08,0,0,0-.46,2c-1.09,8.26,5.69,13.61,14.61,13.68,9.27.08,17.47-4.77,18.14-10.09A8.31,8.31,0,0,0,117,155.16Z"/>
              <path class="b15561ff-bb9d-449f-89a4-30416957a1e0" d="M99.68,167.7c-8.91-.07-16.08-4.27-15-12.53-1.09,8.26,5.69,13.61,14.61,13.68,8.7.07,16.45-4.18,17.93-9.1C115.78,164.53,108.37,167.76,99.68,167.7Z"/>
              <g>
                <path class="b694226f-3b79-4430-a593-320ffeb4bf45" d="M101.61,155.15c-1.39-.77-6.25-1.89-7.89-1.65-2.4.35-2.4,3.35-.28,5.91a7.11,7.11,0,0,0,5.8,2.21,8.26,8.26,0,0,0,4.29-1,2.34,2.34,0,0,0,1-1.3,2.56,2.56,0,0,0-.62-2.15A7.29,7.29,0,0,0,101.61,155.15Z"/>
                <path class="b694226f-3b79-4430-a593-320ffeb4bf45" d="M98.26,156.47c-1.81-.56-3.11,0-3.47.95s.71,2.2,1.88,2.56,3,.06,3.33-.91S99.78,157,98.26,156.47Z"/>
              </g>
            </g>
          </g>
          <path class="ab4f3ae0-f1c8-4bd4-b077-496cee3bdfde" d="M99.67,110.15c3.21,0,3.22-5,0-5s-3.23,5,0,5Z"/>
          <path class="a8ce788c-7b75-4619-bf52-e1ebdd9c6c2e" d="M46.88,149.12l10.33,14.1a14.19,14.19,0,0,1-1.52-5.77,5.1,5.1,0,0,1,3-4.79,48.45,48.45,0,0,0,.38,10.83A16.53,16.53,0,0,1,70.7,152.84c-.8,4.87-7.34,7.26-7.92,12.16l11.33-4.94a23,23,0,0,1-5.71,5.12l6.32-.33a1.88,1.88,0,0,1,1.08.15,2.29,2.29,0,0,1,.78,1.26c1.41,3.55,5.87,4.54,9.65,5-4.79-.63-10.21.73-15.17.28-4.39-.39-10.21-.72-14.11-3C51.57,165.48,48.58,154.59,46.88,149.12Z"/>
          <path class="a8ce788c-7b75-4619-bf52-e1ebdd9c6c2e" d="M124.11,141.7a65.7,65.7,0,0,1-1.65,19.81,43.23,43.23,0,0,1,12.81-14.19,101.16,101.16,0,0,0-6.55,11.73,29,29,0,0,1,13-7.7,9.74,9.74,0,0,0-2.53,3.76l15.43-4c-2.33,4.77-10.8,4-12.55,9,.84-1,2.55.46,2.22,1.71s-1.64,1.92-2.82,2.44l-10.24,4.52c.44-.16.82.45.67.88a1.82,1.82,0,0,1-1,.88,43.69,43.69,0,0,1-7.63,2.84,4.55,4.55,0,0,1-2.42.17,12.9,12.9,0,0,1-2.32-1.4c-2.44-1.3-5.35.37-7.6,2-.2-5.3-4.13-9.61-7.83-13.41a23,23,0,0,1,5,8.72A24.78,24.78,0,0,0,96,165c3.28,2.49,6.74,5.23,8,9.15a19.85,19.85,0,0,1-8.31-1.76c4.94,2.24,15.63-2.2,19.14-6.06C120.45,160.23,123.11,149.7,124.11,141.7Z"/>
        </g>
      </g>
    </g>
  </g>
</svg>
