<svg id="a19868a4-5757-4d9e-a098-3a5786c19782" data-name="Layer 1" xmlns="http://www.w3.org/2000/svg" width="320.04" height="178.88" viewBox="0 0 320.04 178.88">
  <defs>
    <style>
      .a6da3b80-b9f2-44e8-bcb9-aa8111df871d {
        opacity: 0.5;
      }

      .a3aeec9e-a34d-4a4f-badf-133e071effef, .f5e76dec-260c-441e-8da1-e82e123636fc {
        fill: #fff;
      }

      .b99d6737-3e17-4975-bd96-d50c28aa37d6 {
        fill: #29151e;
      }

      .a37ea19c-63eb-496e-b2d1-6d795af4433a {
        fill: #e55c00;
      }

      .e1013b02-41f8-4278-86d8-a3b2b4cefed9 {
        fill: #ff6a00;
      }

      .b447b76c-fb17-4d82-a377-8bb885293ba4 {
        fill: none;
      }

      .acc3fb21-0faa-4b93-9dc7-d35e66a5af3e {
        fill: #e2d96a;
      }

      .aea20c42-e341-4c65-930a-d893426e5302 {
        fill: #ff5215;
      }

      .ae3aac18-2d1c-48aa-acff-6bda42ec67b3 {
        fill: #fcfcff;
      }

      .b3586130-0558-4977-8b77-69a70e61e929 {
        fill: #021e4b;
      }

      .bfd71900-87cb-494c-94a2-8ee6d0392390 {
        fill: #b52200;
      }

      .f5e76dec-260c-441e-8da1-e82e123636fc {
        opacity: 0.1;
      }

      .e0fdd920-3b7f-42c4-b9aa-ce120f272a4a {
        opacity: 0.8;
      }
    </style>
  </defs>
  <g id="b9366d86-c410-4c96-a2df-8d3d4ef864b6" data-name="Fish">
    <g>
      <path class="a6da3b80-b9f2-44e8-bcb9-aa8111df871d" d="M156,176c-8,0-15.36-4.06-20.8-11.42A56.1,56.1,0,0,1,129,154.07a51.24,51.24,0,0,1-2.87-8.28c-3.9-.7-7.67-1.53-11.28-2.46l-2.15-.58a115.29,115.29,0,0,1-17.57-6.28l-1.46-.69a63.29,63.29,0,0,1-15.47-10.07C70.43,118.56,56,105.25,67.13,87.93c6.11-9.48,14.55-17.51,27.36-26l1.27-.83,1-.65a114.18,114.18,0,0,1,13.68-7.5c.87-.41,1.75-.8,2.62-1.18a83.24,83.24,0,0,1,13.49-4.58,30.06,30.06,0,0,1,8.66-14.25c.19-.19.42-.4.64-.6,5.63-5.17,11.83-7.79,18.41-7.79a27.28,27.28,0,0,1,9.41,1.75c4.79,1.75,9.27,4.82,13.82,8.08a8.43,8.43,0,0,1,1.64,1.57,35.88,35.88,0,0,1,7.23,18.38c0,.19,0,.39.05.59,2.13.54,4.23,1.08,6.23,1.61,5.94-6.38,14-11.95,21.07-14.33l.84-.28a9.39,9.39,0,0,1,1-.28,41.81,41.81,0,0,1,8.28-.95,21.73,21.73,0,0,1,8.26,1.5c12,4.83,14.94,17.95,12.51,28.82-.12.52-.26,1-.41,1.56a34.66,34.66,0,0,0,7.17,1.11,3.17,3.17,0,0,0,.44,0,18.2,18.2,0,0,0,6.08-1.43,33.52,33.52,0,0,0,6.3-3.88A44.74,44.74,0,0,1,273.1,63a24.48,24.48,0,0,1,9.42-1.77c10.42,0,24.43,5.88,29.63,22.45,6.31,20.12,1.53,38-12.49,46.78A31.12,31.12,0,0,1,283,135.21h0c-9.88,0-18.1-4.3-22.11-6.85h0c-.42-.26-.82-.53-1.2-.79-5-3.44-8.92-5.61-12.58-5.65a29,29,0,0,1-5.83,21.91c-4.25,5.75-13.72,12.46-26.41,12.46a33.92,33.92,0,0,1-5.68-.47,78.78,78.78,0,0,1-9.87-2.25,8.13,8.13,0,0,1-1.88-.84,31.62,31.62,0,0,1-9-8c-2.5.61-5,1.13-7.41,1.59,1.58,8.2-.34,16.87-5.16,22.37C171.78,173.26,164.38,176,156,176Z"/>
      <path class="a3aeec9e-a34d-4a4f-badf-133e071effef" d="M151,171c-8,0-15.36-4.06-20.8-11.42A56.1,56.1,0,0,1,124,149.07a51.24,51.24,0,0,1-2.87-8.28c-3.9-.7-7.67-1.53-11.28-2.46l-2.15-.58a115.29,115.29,0,0,1-17.57-6.28l-1.46-.69a63.29,63.29,0,0,1-15.47-10.07C65.43,113.56,51,100.25,62.13,82.93c6.11-9.48,14.55-17.51,27.36-26l1.27-.83,1-.65a114.18,114.18,0,0,1,13.68-7.5c.87-.41,1.75-.8,2.62-1.18a83.24,83.24,0,0,1,13.49-4.58,30.06,30.06,0,0,1,8.66-14.25c.19-.19.42-.4.64-.6,5.63-5.17,11.83-7.79,18.41-7.79a27.28,27.28,0,0,1,9.41,1.75c4.79,1.75,9.27,4.82,13.82,8.08a8.43,8.43,0,0,1,1.64,1.57,35.88,35.88,0,0,1,7.23,18.38c0,.19,0,.39.05.59,2.13.54,4.23,1.08,6.23,1.61,5.94-6.38,14-11.95,21.07-14.33l.84-.28a9.39,9.39,0,0,1,1-.28,41.81,41.81,0,0,1,8.28-.95,21.73,21.73,0,0,1,8.26,1.5c12,4.83,14.94,17.95,12.51,28.82-.12.52-.26,1-.41,1.56a34.66,34.66,0,0,0,7.17,1.11,3.17,3.17,0,0,0,.44,0,18.2,18.2,0,0,0,6.08-1.43,33.52,33.52,0,0,0,6.3-3.88A44.74,44.74,0,0,1,268.1,58a24.48,24.48,0,0,1,9.42-1.77c10.42,0,24.43,5.88,29.63,22.45,6.31,20.12,1.53,38-12.49,46.78A31.12,31.12,0,0,1,278,130.21h0c-9.88,0-18.1-4.3-22.11-6.85h0c-.42-.26-.82-.53-1.2-.79-5-3.44-8.92-5.61-12.58-5.65a29,29,0,0,1-5.83,21.91c-4.25,5.75-13.72,12.46-26.41,12.46a33.92,33.92,0,0,1-5.68-.47,78.78,78.78,0,0,1-9.87-2.25,8.13,8.13,0,0,1-1.88-.84,31.62,31.62,0,0,1-9-8c-2.5.61-5,1.13-7.41,1.59,1.58,8.2-.34,16.87-5.16,22.37C166.78,168.26,159.38,171,151,171Z"/>
      <g>
        <g>
          <path class="b99d6737-3e17-4975-bd96-d50c28aa37d6" d="M229.79,134.06c-3.95,5.34-13.45,10.68-24.34,8.86a71.21,71.21,0,0,1-8.9-2,21.22,21.22,0,0,1-7.91-7.81,55.56,55.56,0,0,1-4.78-14.77c.61-.59,1.23-1.17,1.88-1.74a43.13,43.13,0,0,0,7.91,17.51c10.83,13.78,35.72-1.58,36.33-17.88a22.33,22.33,0,0,0-2.31-9.74,8.7,8.7,0,0,1,4.15,4.1C236.75,121.09,233.74,128.72,229.79,134.06Z"/>
          <path class="a37ea19c-63eb-496e-b2d1-6d795af4433a" d="M230,116.21c-.61,16.3-25.5,31.66-36.33,17.88a43.13,43.13,0,0,1-7.91-17.51,39.47,39.47,0,0,1,8.71-5.9c8.23-3.94,24.85-8.38,33.22-4.21A22.33,22.33,0,0,1,230,116.21Z"/>
          <path class="b99d6737-3e17-4975-bd96-d50c28aa37d6" d="M166.46,66.77l-3-.82c4.29-5.55,7.34-11.15,6.63-17.29-1-8.67-15-19.68-33.85-15.44,4.84-4.45,11.2-7.54,19.66-4.43,3.84,1.41,7.81,4.14,11.91,7.08a28,28,0,0,1,5.57,14.29C174,56.15,170.89,61.53,166.46,66.77Z"/>
          <path class="e1013b02-41f8-4278-86d8-a3b2b4cefed9" d="M163.47,66c-19.64-5.44-36.5-11.28-36-14.1,1.81-9.61,3.4-13.54,8.22-18.15l.52-.48C155.11,29,169.09,40,170.1,48.66,170.81,54.8,167.76,60.4,163.47,66Z"/>
          <path class="b99d6737-3e17-4975-bd96-d50c28aa37d6" d="M231.82,64.23c-1.17,5.24-4.49,8.73-7.94,11.75a47,47,0,0,0,2.58-4.44c5.22-10.44,1.57-19.47-8.35-20.43-7.13-.69-17.56.7-22.57,8.3a60.72,60.72,0,0,0-6.21,13.1l-3.71-.87A50,50,0,0,1,188,64.85c3.15-7.21,14-17,23.3-20.09l.88-.29h0c4.45-.88,8.51-1.28,12,.12C232.82,48.08,233.21,58,231.82,64.23Z"/>
          <path class="e1013b02-41f8-4278-86d8-a3b2b4cefed9" d="M226.46,71.54A47,47,0,0,1,223.88,76h0c-.62.55-1.25,1.08-1.87,1.6-1.54,1.3-15.73-1.16-32.67-5.07a60.72,60.72,0,0,1,6.21-13.1c5-7.6,15.44-9,22.57-8.3C228,52.07,231.68,61.1,226.46,71.54Z"/>
          <path class="b99d6737-3e17-4975-bd96-d50c28aa37d6" d="M164.77,158.41c-2.49,2.84-7.9,4.59-13.77,4.59s-10.73-3.26-14.36-8.17a48.8,48.8,0,0,1-5.35-9c.52.77,1,1.51,1.57,2.23,3.63,4.92,8.49,8.17,14.36,8.17s11.29-1.75,13.78-4.59c3.29-3.77,4.39-10.15,3.28-15.78a10.51,10.51,0,0,1,3.21,4.58C169.42,146.5,168.51,154.13,164.77,158.41Z"/>
          <path class="a37ea19c-63eb-496e-b2d1-6d795af4433a" d="M161,151.61c-2.49,2.84-7.91,4.59-13.78,4.59S136.49,153,132.86,148c-.53-.72-1.05-1.46-1.57-2.23a45.39,45.39,0,0,1-3.73-14.67c-.55-6.22,19.11-4.17,25.09-1.71,4,1.64,8.56,3.69,11.63,6.41C165.39,141.46,164.29,147.84,161,151.61Z"/>
          <path class="b447b76c-fb17-4d82-a377-8bb885293ba4" d="M99.64,76.41A6.62,6.62,0,1,1,93,69.79,6.62,6.62,0,0,1,99.64,76.41Z"/>
          <path class="acc3fb21-0faa-4b93-9dc7-d35e66a5af3e" d="M125.94,100.88c-3.56,3.56-7.57,7.28-10.27,12.68-2.38,4.75-4.22,12.83-5.83,16.49a108.36,108.36,0,0,1-16.39-5.85c2.64-7.34,8.71-12.5,12.71-20,5.88-11.06,3.46-31.44-11-41.39.33-.22.66-.44,1-.65a105.75,105.75,0,0,1,12.66-6.94C118.85,65.12,137.47,89.35,125.94,100.88Z"/>
          <path d="M171.76,133.91c-1.16.19-2.33.37-3.52.53-4.34-5-10.58-9.17-14.43-12.09-4.91-3.73-8-9-10-15-7.12-21.88,20.76-35.54,25.63-52.09l3.37.8c-4.81,16.64-35.34,29.3-26.62,50.65,2,4.92,4.49,10.34,9.05,14.07C158.9,123.7,166.59,128.44,171.76,133.91Z"/>
          <path class="acc3fb21-0faa-4b93-9dc7-d35e66a5af3e" d="M188,64.85c-6.1,14-8.76,46.14-.57,65.53a140.23,140.23,0,0,1-15.62,3.53c-5.17-5.47-12.86-10.21-16.48-13.16-4.56-3.73-7-9.15-9.05-14.07C137.51,85.33,168,72.67,172.85,56c6.77,1.62,13,3.25,17.63,4.56A22.11,22.11,0,0,0,188,64.85Z"/>
          <path class="b99d6737-3e17-4975-bd96-d50c28aa37d6" d="M299.52,81.08C294.46,65,278.64,62.25,271.21,65.37c-5.55,2.34-9.14,6.61-15.13,9.19h0c-9.26,11.15-5.07,30.87,4.05,42h0c6.86,4.37,19.21,9,30.3,2.06C302.06,111.42,304.35,96.48,299.52,81.08Zm-8.24,21.36c-1.86,8-7.61,13.2-12.55,14.68-8.86,2.65-19.71-1.7-22.67-11.3-2-6.42-3.67-21.08.31-26.47,6.26-8.48,20.11-10.77,26.73-6.23C292.17,79.35,293.24,94.06,291.28,102.44Z"/>
          <path class="acc3fb21-0faa-4b93-9dc7-d35e66a5af3e" d="M260.13,116.6c-.33-.2-.65-.41-.95-.62-6.33-4.33-12-7.51-18.56-7-3.08.23-6.73,1.7-10.9,3.75l-.6.3c-5.65-10.59-5.9-28.21-1-40.18,8.09,2.43,15.23,4.11,19.34,3.8a26.3,26.3,0,0,0,8.65-2.06C246.82,85.71,251,105.43,260.13,116.6Z"/>
          <path d="M190.55,129.45c-1,.32-2.1.63-3.17.93-8.19-19.39-5.53-51.57.57-65.53a22.11,22.11,0,0,1,2.53-4.26l.26.07c1.07.3,2.21.64,3.42,1C185.27,77.23,179,109,190.55,129.45Z"/>
          <path class="e1013b02-41f8-4278-86d8-a3b2b4cefed9" d="M291.28,102.44c-1.86,8-7.61,13.2-12.55,14.68-8.86,2.65-19.71-1.7-22.67-11.3-2-6.42-3.67-21.08.31-26.47,6.26-8.48,20.11-10.77,26.73-6.23C292.17,79.35,293.24,94.06,291.28,102.44Z"/>
          <path d="M106.16,104.17c-4,7.53-10.07,12.69-12.71,20l-1.31-.62c2.36-7.17,7.73-12.23,11.28-19.6,5.18-10.77,3.1-30.55-9.5-40.41l1.21-.79C109.62,72.73,112,93.11,106.16,104.17Z"/>
          <path d="M128.7,102.16c-4,3.89-8.53,8-11.58,13.85-2.06,4-3.77,10.14-5.27,14.58-.68-.18-1.35-.35-2-.54,1.61-3.66,3.45-11.74,5.83-16.49,2.7-5.4,6.71-9.12,10.27-12.68,11.53-11.53-7.09-35.76-17.15-45.69.81-.38,1.62-.74,2.43-1.09C122.81,65.86,141,90.24,128.7,102.16Z"/>
          <path d="M229.12,113l-2.4,1.23c-6.4-10.71-6.71-29.84-1.25-42.21l.63.19,2,.61C223.22,84.79,223.47,102.41,229.12,113Z"/>
          <path class="aea20c42-e341-4c65-930a-d893426e5302" d="M93.92,63.57c-11.8,7.85-19.5,15.06-25.07,23.69-6.22,9.65-1.56,17.15,9.76,27.56a55.12,55.12,0,0,0,13.53,8.76c2.36-7.17,7.73-12.23,11.28-19.6C108.6,93.21,106.52,73.43,93.92,63.57ZM93,83a6.62,6.62,0,1,1,6.62-6.62A6.63,6.63,0,0,1,93,83Zm75.22,51.41a128.52,128.52,0,0,1-24.77.92,164.62,164.62,0,0,1-31.62-4.77c1.5-4.44,3.21-10.59,5.27-14.58,3-5.9,7.57-10,11.58-13.85,12.33-11.92-5.89-36.3-17.48-48.06,6.34-2.74,12.71-4.7,17.9-5.11,7.85-.62,25,2.66,40.36,6.24-4.87,16.55-32.75,30.21-25.63,52.09,2,6,5.05,11.3,10,15C157.66,125.27,163.9,129.4,168.24,134.44Zm58.48-20.21c-6.76,3.5-14.68,8-23.57,11.06-4,1.39-8.18,2.82-12.6,4.16C179,109,185.27,77.23,194.16,61.67c8.74,2.7,20.65,7,31.31,10.35C220,84.39,220.32,103.52,226.72,114.23Z"/>
          <path d="M179.17,99.42c0,7.47-4.24,13.43-9.9,17.92A18.72,18.72,0,0,1,157,121.12a17.15,17.15,0,0,0,4.88-2.57c5.66-4.31,9.9-10,9.9-17.21S167.35,89.16,160.22,87a25.94,25.94,0,0,0-12.28-.8,25.18,25.18,0,0,1,19.67-1.72C174.75,86.73,179.17,91.94,179.17,99.42Z"/>
          <path class="e1013b02-41f8-4278-86d8-a3b2b4cefed9" d="M171.77,101.34c0,7.17-4.24,12.9-9.9,17.21a17.15,17.15,0,0,1-4.88,2.57,25.71,25.71,0,0,1-10.21-2.52c-8-3.8-12.14-23-6-27.78a43.53,43.53,0,0,1,7.19-4.6,25.94,25.94,0,0,1,12.28.8C167.35,89.16,171.77,94.16,171.77,101.34Z"/>
        </g>
        <g>
          <path class="ae3aac18-2d1c-48aa-acff-6bda42ec67b3" d="M92.83,83.81a7.25,7.25,0,1,0-7.25-7.25,7.31,7.31,0,0,0,7.25,7.25Z"/>
          <path class="b3586130-0558-4977-8b77-69a70e61e929" d="M90.38,81.19c5.91,0,5.91-9.17,0-9.17s-5.91,9.17,0,9.17Z"/>
        </g>
        <path class="bfd71900-87cb-494c-94a2-8ee6d0392390" d="M66.94,93.92c1.22-.1,2.8,2.58,5.48,3.07a34.75,34.75,0,0,0,9.82.18,25,25,0,0,1-7.1,1.28,14.74,14.74,0,0,1-7-1.49A5.1,5.1,0,0,1,66.8,96a2.23,2.23,0,0,1-.66-1.33C66.12,94.26,66.39,94,66.94,93.92Z"/>
      </g>
      <g>
        <circle class="f5e76dec-260c-441e-8da1-e82e123636fc" cx="29.33" cy="85.53" r="7.87"/>
        <g class="e0fdd920-3b7f-42c4-b9aa-ce120f272a4a">
          <path class="a3aeec9e-a34d-4a4f-badf-133e071effef" d="M33.09,78.47a8.06,8.06,0,1,0,3.08,11A8.05,8.05,0,0,0,33.09,78.47Zm-7.8,13.9a7.88,7.88,0,1,1,10.72-3A7.87,7.87,0,0,1,25.29,92.37Z"/>
        </g>
        <path class="a3aeec9e-a34d-4a4f-badf-133e071effef" d="M27.36,79.11a2.6,2.6,0,0,1,1.11,0c.74.17.94.88.54,1-2.2.64-3.92,3.28-4.27,5.74A3.35,3.35,0,0,1,24.46,87a.88.88,0,0,1-1,.49,1.1,1.1,0,0,1-.59-.89,7.5,7.5,0,0,1,.93-4.48,5.33,5.33,0,0,1,3.31-2.92Z"/>
      </g>
      <g>
        <circle class="f5e76dec-260c-441e-8da1-e82e123636fc" cx="39.62" cy="54.3" r="8.86"/>
        <g class="e0fdd920-3b7f-42c4-b9aa-ce120f272a4a">
          <path class="a3aeec9e-a34d-4a4f-badf-133e071effef" d="M43.85,46.35a9.06,9.06,0,1,0,3.47,12.34A9.07,9.07,0,0,0,43.85,46.35ZM35.08,62a8.86,8.86,0,1,1,12.06-3.39A8.86,8.86,0,0,1,35.08,62Z"/>
        </g>
        <path class="a3aeec9e-a34d-4a4f-badf-133e071effef" d="M37.41,47.07a3,3,0,0,1,1.24,0c.83.2,1.07,1,.62,1.12-2.49.73-4.42,3.69-4.81,6.47a4,4,0,0,1-.31,1.29,1,1,0,0,1-1.11.54,1.25,1.25,0,0,1-.66-1,8.39,8.39,0,0,1,1-5,6,6,0,0,1,3.72-3.29Z"/>
      </g>
      <g>
        <circle class="f5e76dec-260c-441e-8da1-e82e123636fc" cx="14.42" cy="28.81" r="8.86"/>
        <g class="e0fdd920-3b7f-42c4-b9aa-ce120f272a4a">
          <path class="a3aeec9e-a34d-4a4f-badf-133e071effef" d="M18.65,20.86A9.06,9.06,0,1,0,22.12,33.2,9.07,9.07,0,0,0,18.65,20.86ZM9.89,36.49A8.86,8.86,0,1,1,21.94,33.1,8.85,8.85,0,0,1,9.89,36.49Z"/>
        </g>
        <path class="a3aeec9e-a34d-4a4f-badf-133e071effef" d="M12.21,21.58a3,3,0,0,1,1.24,0c.83.19,1.07,1,.62,1.12-2.48.72-4.42,3.69-4.81,6.46A4.06,4.06,0,0,1,9,30.43,1,1,0,0,1,7.84,31a1.25,1.25,0,0,1-.66-1,8.38,8.38,0,0,1,1.05-5A6,6,0,0,1,12,21.65Z"/>
      </g>
      <g>
        <circle class="f5e76dec-260c-441e-8da1-e82e123636fc" cx="48.88" cy="16.51" r="13.26"/>
        <g class="e0fdd920-3b7f-42c4-b9aa-ce120f272a4a">
          <path class="a3aeec9e-a34d-4a4f-badf-133e071effef" d="M55.2,4.62a13.57,13.57,0,1,0,5.21,18.47A13.56,13.56,0,0,0,55.2,4.62ZM42.08,28a13.26,13.26,0,1,1,18.06-5.08A13.27,13.27,0,0,1,42.08,28Z"/>
        </g>
        <path class="a3aeec9e-a34d-4a4f-badf-133e071effef" d="M45.56,5.69a4.71,4.71,0,0,1,1.87-.05c1.24.3,1.59,1.48.91,1.68-3.71,1.09-6.6,5.53-7.2,9.68a5.57,5.57,0,0,1-.46,1.94,1.5,1.5,0,0,1-1.66.81,1.85,1.85,0,0,1-1-1.49c-.5-2.57.49-5.25,1.57-7.54a9,9,0,0,1,5.57-4.93Z"/>
      </g>
    </g>
  </g>
</svg>
