<svg id="f6981b78-c4b3-4e7e-ba7d-b26ebba20223" data-name="Layer 1" xmlns="http://www.w3.org/2000/svg" width="314.8" height="189.64" viewBox="0 0 314.8 189.64">
  <defs>
    <style>
      .a9e667b0-fdb4-4ab0-9601-ee858d0b7c28, .aab78f23-2360-45ca-a2cb-fdddbc5c40b7 {
        opacity: 0.5;
      }

      .fbc2e5f0-679f-4dda-92c1-1566e77302b1 {
        fill: #fff;
      }

      .b9ab70ae-0ef8-449b-8bea-091241734e56 {
        fill: #a4d4e8;
      }

      .ae7aa998-85dc-4f2e-a5a9-6d72f4e05b77, .b9ab70ae-0ef8-449b-8bea-091241734e56, .bd1f5844-37ff-40e0-a6e9-834d405ab552 {
        stroke: #007771;
        stroke-miterlimit: 10;
        stroke-width: 2px;
      }

      .b7f50cfe-a6c4-4f82-ad08-5eb19729991f, .f08175ce-e1e7-42e3-98f3-67c29136d4fa {
        fill: #a2def9;
      }

      .bd1f5844-37ff-40e0-a6e9-834d405ab552 {
        fill: #d8f0f6;
      }

      .a50b7fe6-51b7-408f-8536-4f17aa052c4d {
        fill: #bfe7fb;
      }

      .aab78f23-2360-45ca-a2cb-fdddbc5c40b7 {
        fill: #b5dff2;
      }

      .aab78f23-2360-45ca-a2cb-fdddbc5c40b7, .b7f50cfe-a6c4-4f82-ad08-5eb19729991f {
        isolation: isolate;
      }

      .a5a5e6c0-af9c-4931-8581-88575a404dac, .ae7aa998-85dc-4f2e-a5a9-6d72f4e05b77 {
        fill: #93c4d6;
      }

      .b7f50cfe-a6c4-4f82-ad08-5eb19729991f {
        opacity: 0.6;
      }

      .fff1965b-58c4-4d65-a2d5-327914b344da {
        fill: #5bcbf5;
      }

      .b1862381-bd39-425b-bb8a-2df5c877b3fc {
        fill: #d1eaf1;
      }
    </style>
  </defs>
  <g>
    <path class="a9e667b0-fdb4-4ab0-9601-ee858d0b7c28" d="M112.92,185.32c-26.28,0-49.49-3.18-63.35-5.08-3.66-.5-6.55-.9-8.48-1.09-8.07-.81-15-4.89-18.42-10.91a14.55,14.55,0,0,1-2-9.42c-5.55-1.87-8.41-5.12-8.5-9.7C12,141,21.3,137.3,30.83,134.2c4.52-1.46,9-2.67,11.58-3.33-.07-15.71,3-40.24,21.26-50,9-33.45,35.25-71.35,107.84-71.58a128.31,128.31,0,0,1,49.33,11.61c22.94,10.72,51.14,33.63,55.21,81.89,0,.13,0,.26,0,.39l.77,22.12.11,3.8.54.26.23,0c.92-.08,2.18-.18,3.71-.18a29.27,29.27,0,0,1,20.92,8.55c6.1,5.89,5.63,11.77,4.8,14.75-2.35,8.47-12.38,12.56-15.71,13.32-1.74.41-23.15,4.6-28.24,4.6-2.9,0-10.8,1.31-13,2.27-4.05,3-14.27,7.8-19.14,9.22-6.38,1.87-39,3-41.72,3l-3.81,0c-4.17,0-11.14-.07-20-.07-16.34,0-32,.14-46.59.42Q115.89,185.32,112.92,185.32Z"/>
    <path class="fbc2e5f0-679f-4dda-92c1-1566e77302b1" d="M107.92,180.32c-26.28,0-49.49-3.18-63.35-5.08-3.66-.5-6.55-.9-8.48-1.09-8.07-.81-15-4.89-18.42-10.91a14.55,14.55,0,0,1-2-9.42c-5.55-1.87-8.41-5.12-8.5-9.7C7,136,16.3,132.3,25.83,129.2c4.52-1.46,9-2.67,11.58-3.33-.07-15.71,3-40.24,21.26-50,9-33.45,35.25-71.35,107.84-71.58a128.31,128.31,0,0,1,49.33,11.61C238.78,26.65,267,49.56,271.05,97.82c0,.13,0,.26,0,.39l.77,22.12.11,3.8.54.26.23,0c.92-.08,2.18-.18,3.71-.18a29.27,29.27,0,0,1,20.92,8.55c6.1,5.89,5.63,11.77,4.8,14.75-2.35,8.47-12.38,12.56-15.71,13.32-1.74.41-23.15,4.6-28.24,4.6-2.9,0-10.8,1.31-13,2.27-4.05,3-14.27,7.8-19.14,9.22-6.38,1.87-39,3-41.72,3l-3.81,0c-4.17,0-11.14-.07-20-.07-16.34,0-32,.14-46.59.42Q110.89,180.32,107.92,180.32Z"/>
    <g>
      <path class="b9ab70ae-0ef8-449b-8bea-091241734e56" d="M41.51,133.09s-41.15,9.8-20.58,13.85c0,0,4.62,3.38,2.94,7.09s2.94,11.14,13,12.16,41.57,6.75,76.85,6.07,65.93-.33,70.55-.33,34.85-1.35,39.47-2.7,14.28-6.08,16.8-8.11,13.86-3.71,17.64-3.71,23.51-3.72,26.45-4.39,15.54-6.42,7.14-14.52-17.22-6.08-19.74-6.08-6.29-2.7-6.29-2.7Z"/>
      <g>
        <g>
          <path class="f08175ce-e1e7-42e3-98f3-67c29136d4fa" d="M263.85,120.61l-.78-22.12c-7.27-86.4-96.53-86.17-96.53-86.17-99.09.31-106.13,74.18-104,108.45.23,4.18.62,7.81,1,10.6,23.44,2,59.64,3.32,100.18,3.32,40.76,0,77-1.31,100.48-3.32Z"/>
          <path class="bd1f5844-37ff-40e0-a6e9-834d405ab552" d="M263.85,120.61l-.78-22.12c-7.27-86.4-96.53-86.17-96.53-86.17-99.09.31-106.13,74.18-104,108.45.23,4.18.62,7.81,1,10.6,23.44,2,59.64,3.32,100.18,3.32,40.76,0,77-1.31,100.48-3.32Z"/>
        </g>
        <g>
          <path class="a50b7fe6-51b7-408f-8536-4f17aa052c4d" d="M132,134.61c.08-7.73-.46-27.53-8.74-41.15-6-9.9-14.08-12.22-20-12.37l-32.64.07-.39,53.45Z"/>
          <path class="bd1f5844-37ff-40e0-a6e9-834d405ab552" d="M132,134.61c.08-7.73-.46-27.53-8.74-41.15-6-9.9-14.08-12.22-20-12.37l-32.64.07-.39,53.45Z"/>
          <path class="aab78f23-2360-45ca-a2cb-fdddbc5c40b7" d="M123.3,93.39c-4.49-7.43-10.14-10.6-15.09-11.69.31.08.7.31,1,.39a28.18,28.18,0,0,1,3.63,2A16.88,16.88,0,0,1,115.64,87a19.12,19.12,0,0,1,1.78,2.48,4.16,4.16,0,0,1,.93,2.32c-.08.62-.93.77-1.47.93A3.52,3.52,0,0,0,116,93a7.73,7.73,0,0,1,2.32.23,3.48,3.48,0,0,1,2.09,2.4,59,59,0,0,1,3.71,14.08c0,.07,0,.23-.08.23a45.14,45.14,0,0,1-5.8,2.4,9.08,9.08,0,0,1,4.64.92c1.4.62.93,1.32,1.24,2.71.7,3.64,1.63,7.58.93,11.3-.23,1.39-16.63,3.86-16.94,2.7-.62-2.39-1.32-4.72-2.09-7-.77-2.63-1.7-5.1-1.78-7.89a.83.83,0,0,1,.08-.23c2-.62,4.33-.46,6.11-1.62a19.68,19.68,0,0,0-4.72.07c-1.24.08-2.94.24-3.87-.46a4.19,4.19,0,0,1-1.47-2.71c-.38-1.31-.69-2.7-1-4.1-.39-1.78-1.32-3.48-1.78-5.33-.31-.93-.62-1.94-.93-2.94-.08-.31-.31-.62-.23-.93.23-.93,1.62-1.47,2.32-1.78a39.89,39.89,0,0,1,4-1.08c-2.71-.93-5.88.62-8.58-.78a7.94,7.94,0,0,1-2.71-2.63,25.87,25.87,0,0,0-3.33-3.09,29.13,29.13,0,0,0-13.61-6.19H71l-.39,53.45h61.73C132.12,126.8,131.5,107.15,123.3,93.39Z"/>
          <path class="bd1f5844-37ff-40e0-a6e9-834d405ab552" d="M100.63,134.61c.08-7.73-.46-27.53-8.74-41.15C81.45,76.14,64.43,82,64.43,82c-18.41,7.74-20,36.05-18.64,52.53h54.84Z"/>
          <path class="f08175ce-e1e7-42e3-98f3-67c29136d4fa" d="M89.73,134.61c.07-5.8-.39-20.49-5.88-30.63-7-12.92-18.41-8.51-18.41-8.51-12.38,5.73-13.54,26.92-12.53,39.14Z"/>
          <path class="ae7aa998-85dc-4f2e-a5a9-6d72f4e05b77" d="M89.34,134.61c.08-5.57-.31-20.11-5.8-30-6.89-12.61-18-8.28-18-8.28-12.15,5.57-13.23,26.3-12.23,38.37H89.34Z"/>
          <g>
            <path class="b7f50cfe-a6c4-4f82-ad08-5eb19729991f" d="M116.65,92.38A17.93,17.93,0,0,0,104,80.93l-2.32.23C110.61,82.32,116.65,92.38,116.65,92.38Z"/>
            <path class="b7f50cfe-a6c4-4f82-ad08-5eb19729991f" d="M125.31,112.34c2.63-.62,4.1-1.09,4.1-1.09l-14.93,1a51,51,0,0,0-4.41-18c8.28-.7,12.38-2.17,12.38-2.17L97.93,93.69A20.74,20.74,0,0,0,83.54,80.85l-2.63.31C90.42,82.25,97,92.3,97.85,93.69l-6.5.39a140.72,140.72,0,0,0,17,.23c3.32,5.19,5.34,14.86,5.88,18l-16.4,1.08c1.47.31,3,.39,4.49.62l4.87,19.73a112,112,0,0,0-3-19.65,78.15,78.15,0,0,0,19.65-1.63l3.71,15A86.85,86.85,0,0,0,125.31,112.34Z"/>
          </g>
        </g>
        <polygon class="f08175ce-e1e7-42e3-98f3-67c29136d4fa" points="46.18 127.42 52.6 127.73 52.6 126.11 46.18 127.42"/>
        <polygon class="f08175ce-e1e7-42e3-98f3-67c29136d4fa" points="47.18 114.04 53.22 116.36 53.68 114.81 47.18 114.04"/>
        <polygon class="f08175ce-e1e7-42e3-98f3-67c29136d4fa" points="51.59 95.32 58.32 102.28 57.55 103.29 51.59 95.32"/>
        <polygon class="f08175ce-e1e7-42e3-98f3-67c29136d4fa" points="66.83 82.79 67.14 95.01 68.84 94.7 66.83 82.79"/>
        <polygon class="f08175ce-e1e7-42e3-98f3-67c29136d4fa" points="78.74 97.87 79.98 99.03 85.94 91.84 78.74 97.87"/>
        <polygon class="f08175ce-e1e7-42e3-98f3-67c29136d4fa" points="86.56 110.79 86.94 111.95 95.14 108.7 86.56 110.79"/>
        <polygon class="f08175ce-e1e7-42e3-98f3-67c29136d4fa" points="89.42 124.94 89.57 126.11 98.23 125.02 89.42 124.94"/>
        <path class="fff1965b-58c4-4d65-a2d5-327914b344da" d="M54.92,91.22a30.74,30.74,0,0,0-2.32,3.09c.93,1.24,1.93,2.4,2.94,3.64A29,29,0,0,1,68.69,85.11C68.61,85.11,61.49,83.56,54.92,91.22Z"/>
        <path class="fff1965b-58c4-4d65-a2d5-327914b344da" d="M50.51,113.65a54.09,54.09,0,0,1,3.4-12.53c-1.08-1-2.16-2.09-3.17-3.17A54,54,0,0,0,47,112.57,30.92,30.92,0,0,0,50.51,113.65Z"/>
        <path class="fff1965b-58c4-4d65-a2d5-327914b344da" d="M49.58,126a87.69,87.69,0,0,1,.46-9.44c-1.08-.31-2.32-.62-3.4-.93a105.7,105.7,0,0,0-.39,10.91A11.06,11.06,0,0,0,49.58,126Z"/>
        <path class="fff1965b-58c4-4d65-a2d5-327914b344da" d="M46.49,129.12c.07,1.78.23,3.41.38,4.88l3.17-.39s-.23-1.94-.38-4.87A24.39,24.39,0,0,1,46.49,129.12Z"/>
        <path class="fff1965b-58c4-4d65-a2d5-327914b344da" d="M68.61,75.59S76.42,16,163,13.33c0,0-20,2.08-34.42,7,0,0-8.9,2.48-10.45,4.1l7.74.08-13.23,1.78S97.93,34.06,93,40.4l15,3.17L91.35,42.8S82.92,53,79.52,63l6.88.69-8.12.7-4,10.6Z"/>
        <g>
          <path class="fff1965b-58c4-4d65-a2d5-327914b344da" d="M262.15,109.94a2,2,0,0,1,.38-.08A1,1,0,0,1,262.15,109.94Z"/>
          <path class="fff1965b-58c4-4d65-a2d5-327914b344da" d="M234.76,42.72a4.72,4.72,0,0,1,.7-.08A2.31,2.31,0,0,0,234.76,42.72Z"/>
          <path class="fff1965b-58c4-4d65-a2d5-327914b344da" d="M216.51,115.89a323.87,323.87,0,0,0,45.64-6c-1.63.31-7.89,1.47-20.74,2.79.47-11.22-.07-22.05-.23-24.52,5.73-.78,11.3-1.78,16.63-2.94,0,0-33.41,5.57-130.95,4.33,0,0,3,.31,8.12.62l1,20.49,1.78-20.34c11,.7,29.16,1.63,49.59,1.39l1.31,19.5,1-19.65a435.92,435.92,0,0,0,48.88-3.17c1.7,5.88,2.63,21.19,2.79,24.13-19.42,1.94-53.76,4-108.68,3.33,0,0,11.52.77,28.85,1.08l.7,17.33,1-17.25c14.39.23,32.57.08,51-1.09l.62,17.1Z"/>
          <path class="fff1965b-58c4-4d65-a2d5-327914b344da" d="M91,62.91s6.58-14.62,9.83-18.33c8.82.77,22.74,2,39.14,2.7-.47,2.63-2.09,11.14-1.78,18.8,0,0,1.93-13.54,4-18.8,12.69.47,26.92.7,41.23.31l3.17,18.26-.93-18.33A327,327,0,0,0,225,44.19c.77,1.39,6.73,11.91,9.12,19.34,0,0-2.08-11.61-7-19.73,2.63-.38,5.11-.77,7.59-1.31-1.09.23-3.64.62-7.82,1.08v-.08l-.62.08c-16.7,1.93-58.09,4.72-135.67-.31,0,0,2.4.31,6.57.7C96.77,45.35,92.59,54.4,91,62.91Z"/>
          <path class="fff1965b-58c4-4d65-a2d5-327914b344da" d="M120.9,42.72s6.5-13.92,11-18.64c8.13.69,18.41,1.39,29.55,1.62l1,18.64.46-18.64a255.56,255.56,0,0,0,29.63-1.31c2.09,2.39,8.82,10.67,11.21,17.48,0,0-3.17-11.91-8.58-17.79,4.48-.62,9-1.32,13.3-2.17,0,0-24.52,4.64-93.59.31,0,0,5.8.93,15.08,1.7A56.64,56.64,0,0,0,120.9,42.72Z"/>
          <path class="fff1965b-58c4-4d65-a2d5-327914b344da" d="M154,13.79l-1.63.08s-4.1,5.1-5.57,10.28C146.81,24.23,151.14,16.5,154,13.79Z"/>
          <path class="fff1965b-58c4-4d65-a2d5-327914b344da" d="M177.68,23.85c-1.47-5.19-5.57-10.29-5.57-10.29l-1.63-.08C173.42,16.19,177.68,23.85,177.68,23.85Z"/>
          <path class="fff1965b-58c4-4d65-a2d5-327914b344da" d="M161.12,68.94l.7,17.64,1.08-17.64c15.09.08,31-.23,46.57-1.24.69,1.94,2.47,7.58,4.1,19.42,0,0-.47-13.38-1.94-19.49,6.81-.47,13.62-1.09,20.19-1.94,5.57-.46,13.15-1.62,16.79-1.78,1-.07,1.7,0,2.4,0a71.93,71.93,0,0,1,6.11,19s-1.63-11.61-4.8-18.65c.62.24.93.39,1.08.62l-1.31-2.94c-3.71.78-15.08,2.4-19.8,3.1-25.06,2.16-74.65,4.33-157-1,0,0,15.09,1.7,37.75,3.1-.31,1.47-2,9.9-1.7,15.62l4.1-15.55C128.79,68.17,144.49,68.79,161.12,68.94Z"/>
          <path class="fff1965b-58c4-4d65-a2d5-327914b344da" d="M254,64.84l.24.62C254.33,65.38,254.33,65.15,254,64.84Z"/>
        </g>
        <path class="a5a5e6c0-af9c-4931-8581-88575a404dac" d="M55.3,126.65l30.17-1S67.22,128.43,55.3,126.65Z"/>
        <path class="a5a5e6c0-af9c-4931-8581-88575a404dac" d="M56.54,116.05l29.4-.77C85.94,115.12,68.22,117.6,56.54,116.05Z"/>
        <path class="a5a5e6c0-af9c-4931-8581-88575a404dac" d="M59.1,103.44l21.11-.62A83.11,83.11,0,0,1,59.1,103.44Z"/>
        <path class="a5a5e6c0-af9c-4931-8581-88575a404dac" d="M65.05,103.44a24.25,24.25,0,0,0-3.33,12.38s-1.08-8,1.94-12.38Z"/>
        <path class="a5a5e6c0-af9c-4931-8581-88575a404dac" d="M79.44,103a24.19,24.19,0,0,0-3.33,12.37s-1.08-8,1.94-12.37Z"/>
        <path class="a5a5e6c0-af9c-4931-8581-88575a404dac" d="M70.54,103.21S72.63,98.1,75,96.48c0,0-2.94,3.33-3.4,6.73Z"/>
        <path class="a5a5e6c0-af9c-4931-8581-88575a404dac" d="M68.15,116.2a68.83,68.83,0,0,0,0,10.52l.92-10.59Z"/>
        <path class="a5a5e6c0-af9c-4931-8581-88575a404dac" d="M61.26,127,61,133.84S59.71,127,60,127C60.1,126.8,61.26,127,61.26,127Z"/>
        <path class="a5a5e6c0-af9c-4931-8581-88575a404dac" d="M76.81,126.41l-.23,7.43s-1.32-7.5-1.09-7.58S76.81,126.41,76.81,126.41Z"/>
        <path class="a5a5e6c0-af9c-4931-8581-88575a404dac" d="M83.62,115.2c0,.23-1.24,6.42-1.09,10.44,0,0-.77-7.12-.31-10.29Z"/>
      </g>
      <path class="b1862381-bd39-425b-bb8a-2df5c877b3fc" d="M31.65,154.59s19.27-5.17,27.93-4.5,14.8,2,19,1.58,35.18-3.16,37.7-1.8l-1.4-1.81s40.49-3.15,47.2-2.25,47.47-.9,51.1-1.35,53.62-3.6,57.53-5,2.52-3.3,1.4-5c0,0,6.24,0,7.54,4.81s-27.18,10.5-27.18,10.5-36.68,5.25-36.12,8.1c0,0-3.91,1.66-21.78,3.31s-42.08,2.4-45.43,4.2-50.83,1.35-58.65.6-29.6-1.2-35.74-4.95L42.63,158.5C39.1,157.74,30.9,156.69,31.65,154.59Z"/>
    </g>
  </g>
</svg>
