<svg xmlns="http://www.w3.org/2000/svg" width="280.9" height="175.01" viewBox="0 0 280.9 175.01">
  <defs>
    <style>
      .b8b7e4cf-7c3e-4322-a11b-2671b7edea4b {
        isolation: isolate;
      }

      .b16bb768-3b53-411e-a003-dc95f7e777aa, .b8242ffb-f62a-4873-a16c-7c7846aa9e10 {
        opacity: 0.5;
      }

      .ac9f2e11-fa90-43a3-953c-56fd95dd61d3 {
        fill: #fff;
      }

      .b8242ffb-f62a-4873-a16c-7c7846aa9e10 {
        fill: #8ad4e0;
      }

      .a9faeede-67b6-46b6-97c4-9b0633a25815, .b8242ffb-f62a-4873-a16c-7c7846aa9e10 {
        mix-blend-mode: multiply;
      }

      .a9faeede-67b6-46b6-97c4-9b0633a25815 {
        fill: #06b706;
      }

      .ec033b79-511f-4729-8939-2c183cdb002a {
        fill: #323232;
        opacity: 0.38;
      }

      .a394953c-cc2e-48a9-a620-1ee8207fc06e {
        fill: #2e6300;
      }

      .ed834616-e091-4c7c-80ad-9199db9cb598 {
        fill: #42a90e;
      }

      .a7248bc2-0ea2-4f9e-a4a6-15a603f49360 {
        fill: #5bb900;
      }

      .b7e83581-522d-4f38-8144-11d38f5ee3f6, .f9bde9a5-9dc7-4f68-aea5-f2ba8f799092 {
        fill: #50ca0a;
      }

      .f65aace9-6a9a-4afa-894a-0318fc0475da {
        fill: #71dd2a;
      }

      .ab771724-9341-4086-8328-ae90b625a878 {
        fill: #307206;
      }

      .f3730786-7478-47de-b950-16285002c3b5 {
        fill: #e5f550;
      }

      .a625b06b-67cc-4d4f-b93b-f99e6d57aadc {
        fill: #509b00;
      }

      .b8c440a0-4fc7-446b-b4de-d7faad7fa5be, .f9bde9a5-9dc7-4f68-aea5-f2ba8f799092 {
        stroke: #33560a;
      }

      .b8c440a0-4fc7-446b-b4de-d7faad7fa5be, .f7105a66-5c23-4c81-9a9c-6c13a3fed2f7, .f9bde9a5-9dc7-4f68-aea5-f2ba8f799092 {
        stroke-miterlimit: 10;
        stroke-width: 0.5px;
      }

      .fb21ccd5-8dd5-4102-983c-a27f17e66b2f {
        fill: #d1ca3b;
      }

      .adedbc08-b38e-4555-ad31-adbd5ea9fc9f {
        fill: #510000;
      }

      .aba15f8d-a084-4e71-86fe-981c5861ceb9 {
        fill: #7c0000;
      }

      .b3eea8e6-d17b-41d3-8334-f08cdea5404e {
        fill: #c85a5f;
      }

      .bc64e0a8-d263-4522-95ab-32d4658797db {
        fill: #eb7d86;
      }

      .af2f05fb-b354-475a-aaed-a832b7275cca {
        fill: #99252e;
      }

      .fb9466e3-770b-4a9d-819d-b674795ae25e {
        fill: #752a2a;
      }

      .b8399d13-663f-42c8-8fc0-8591ba9d4563 {
        fill: #b28f00;
      }

      .a526322a-1e25-445d-b4a3-0e5f3dd9c97d {
        fill: #fccdd1;
      }

      .aea3ea4c-c2d7-4d97-a3cf-2a8ecf694d62 {
        fill: #4aaa0c;
      }

      .a1a30cd4-b99e-48fa-8847-909da7361635 {
        fill: #66d61e;
      }

      .f7105a66-5c23-4c81-9a9c-6c13a3fed2f7 {
        fill: #fcfae6;
        stroke: #424015;
      }

      .abd4c0eb-35b5-4d39-8005-a681e1f51021 {
        fill: #efebbd;
      }

      .b32c6c7f-7b0f-417c-b698-40eef1ea844e {
        fill: #e27300;
      }

      .b8c440a0-4fc7-446b-b4de-d7faad7fa5be {
        fill: none;
      }
    </style>
  </defs>
  <g class="b8b7e4cf-7c3e-4322-a11b-2671b7edea4b">
    <g id="e7d56248-3e2b-47da-b4bc-90227404b7d2" data-name="Layer 1">
      <g>
        <path class="b16bb768-3b53-411e-a003-dc95f7e777aa" d="M144.45,172.13c-16.56,0-27.43-1.74-31.34-2.49-3.36-.64-6-1.06-8.39-1.44-11-1.74-16.47-2.61-53.84-17.47C23.73,140,10,127.07,10.12,112.45c.11-14.34,13.58-26.7,40-36.74a153.9,153.9,0,0,1,20.71-6.18,14.36,14.36,0,0,1-3.24-4.87,16,16,0,0,1-1-12.58,15.31,15.31,0,0,1,3.68-5.86,16.94,16.94,0,0,1,.3-1.78c-.27-.55-.51-1.12-.73-1.7a20.27,20.27,0,0,1,3.58-20.39A20,20,0,0,1,91.67,10.81h.54A17.78,17.78,0,0,1,104,15.2a20.14,20.14,0,0,1,2.94,3A36.74,36.74,0,0,1,111.5,18h1.35c.75,0,1.49,0,2.23.08,4.09-6.22,9.8-9.67,16.31-9.67C137,8.38,142.54,11,148,16a63.55,63.55,0,0,1,10.08,12.14,19.66,19.66,0,0,1,2.42.71,17.72,17.72,0,0,1,4.74,2.39l.45.13a19.1,19.1,0,0,1,11.8,11,50.44,50.44,0,0,1,1.69,5,25.3,25.3,0,0,0,1,3.06c1.59,1.57,3.13,3,4.62,4.43,2.94,2.79,5.69,5.39,8.05,8.12a13.72,13.72,0,0,1,5.52-1.32h.11a9.33,9.33,0,0,1,1.77.17,9.46,9.46,0,0,1,1.91.48,9.67,9.67,0,0,1,1.53.72,9.47,9.47,0,0,1,1.45,1,9.13,9.13,0,0,1,1.12,1,11.45,11.45,0,0,1,.92,1,24.4,24.4,0,0,1,1.31,2l.06.11a18.15,18.15,0,0,1,1.2,2.92c40.72,6.49,63,18.75,66.15,36.49,1.79,10-2.15,25.18-31.09,40.73-36.5,19.61-74.73,23.73-100.37,23.73Z"/>
        <path class="ac9f2e11-fa90-43a3-953c-56fd95dd61d3" d="M138.94,166.63c-16.55,0-27.43-1.74-31.33-2.49-3.36-.64-6-1.07-8.39-1.44-11-1.74-16.47-2.61-53.85-17.47C18.22,134.45,4.51,121.57,4.62,107c.11-14.34,13.58-26.7,40-36.74A151.61,151.61,0,0,1,65.37,64a14.22,14.22,0,0,1-3.24-4.87,15.93,15.93,0,0,1-1-12.58,15.24,15.24,0,0,1,3.68-5.86,16.94,16.94,0,0,1,.3-1.78c-.27-.56-.51-1.12-.73-1.7A20.29,20.29,0,0,1,68,16.84,20,20,0,0,1,86.17,5.31h.54A17.8,17.8,0,0,1,98.45,9.7a20,20,0,0,1,2.93,3,36.85,36.85,0,0,1,4.61-.26h1.36c.75,0,1.49,0,2.22.08,4.1-6.22,9.81-9.66,16.32-9.66,5.56,0,11.14,2.57,16.6,7.65a64.3,64.3,0,0,1,10.08,12.14,18.5,18.5,0,0,1,2.42.71,17.72,17.72,0,0,1,4.74,2.39l.45.13a19.12,19.12,0,0,1,11.8,11,50.44,50.44,0,0,1,1.69,5,23.66,23.66,0,0,0,1,3.06c1.59,1.56,3.13,3,4.62,4.43,2.94,2.79,5.69,5.39,8.05,8.12a13.55,13.55,0,0,1,5.51-1.32H193a9.42,9.42,0,0,1,1.77.17,9,9,0,0,1,1.91.48,8.38,8.38,0,0,1,1.52.72,9,9,0,0,1,1.46,1,9.13,9.13,0,0,1,1.12,1,9.77,9.77,0,0,1,1.63,2.06c.21.32.41.63.6,1a1.3,1.3,0,0,0,.06.12,20.18,20.18,0,0,1,1.2,2.92c40.72,6.49,63,18.75,66.15,36.49,1.79,10-2.15,25.18-31.1,40.73-36.5,19.61-74.72,23.73-100.36,23.73Z"/>
        <g>
          <g>
            <path class="b8242ffb-f62a-4873-a16c-7c7846aa9e10" d="M146.18,93.64l3.55-22S95.42,60.33,47.78,78.44s-44.2,40.73.85,58.61S90.92,152,109.26,155.49s75.27,6.85,125.89-20.35,31.1-59.12-71.82-64.8C154.22,85.6,146.18,93.64,146.18,93.64Z"/>
            <path class="b8242ffb-f62a-4873-a16c-7c7846aa9e10" d="M144.14,93.72l3.3-20S97.24,63.5,53.2,80,12.34,117,54,133.18s39.08,13.56,56,16.73,69.56,6.2,116.35-18.51S255.13,77.71,160,72.56C151.58,86.43,144.14,93.72,144.14,93.72Z"/>
            <path class="a9faeede-67b6-46b6-97c4-9b0633a25815" d="M215.18,118.33c4.7-1.85,10-1.11,15-1.64,3.89-.42,7.76-1.1,11.63-1.7,15.95-19.84-9.73-38.82-83.07-42.89-8.11,13.55-15.26,20.7-15.26,20.7l3.14-19.52s-48.21-10-90.55,6c-40,15.17-39.47,33.9-5.63,49.3a.55.55,0,0,1,.35-.23c8.14-1,16.27-2.08,24.36-3.39.48-.08.87.57.37.83-4.56,2.37-9,4.89-13.39,7.6,34.51,13.54,33,11.24,48.56,14.23,16.31,3.1,66.87,6.08,111.86-18a94.74,94.74,0,0,0,9.86-6.07c-5.7-1.49-11.65-2.26-17.22-4.3A.46.46,0,0,1,215.18,118.33Z"/>
            <path class="a9faeede-67b6-46b6-97c4-9b0633a25815" d="M215.18,118.33c4.7-1.85,10-1.11,15-1.64,3.89-.42,7.76-1.1,11.63-1.7,15.95-19.84-9.73-38.82-83.07-42.89-8.11,13.55-15.26,20.7-15.26,20.7l3.14-19.52s-48.21-10-90.55,6c-40,15.17-39.47,33.9-5.63,49.3a.55.55,0,0,1,.35-.23c8.14-1,16.27-2.08,24.36-3.39.48-.08.87.57.37.83-4.56,2.37-9,4.89-13.39,7.6,34.51,13.54,33,11.24,48.56,14.23,16.31,3.1,66.87,6.08,111.86-18a94.74,94.74,0,0,0,9.86-6.07c-5.7-1.49-11.65-2.26-17.22-4.3A.46.46,0,0,1,215.18,118.33Zm-28.17-3a155.49,155.49,0,0,0,19.61,4.39c3.18.44,6.88.84,9.6,2.68s.58,4.44-1.4,5.79c-4.52,3.08-10,3.78-15.12,5.3-5.82,1.71-10.89,5.21-16.7,7a49.82,49.82,0,0,1-18.82,1.77c-7.35-.5-15.06-1.21-22.31.46-5.54,1.29-11.27,3.65-17,3.25-3.45-.23-8.14-1.31-6.69-5.69a90.31,90.31,0,0,1,4.33-10.54,31.61,31.61,0,0,1,3-5.81c.07-.13.13-.26.21-.39.83-1.52,1.85-2.94,2.82-4.4-3.43,3.21-6.79,6.49-10,9.88-3.8,4-7.46,8.36-12.91,10.11s-12,2.49-17.3.89-9.13-6.58-14.7-6.54c-1.33,0-6.53,1-4.85-1.69.91-1.45,24.87-12.85,29.06-14.6,1.39-.59,2.79-1.15,4.19-1.7q-7.53.95-15,2c-5.29.78-10.58,1.58-15.87,2.31-4.68.67-9.8,2-14.54,1.48s-9.47-3.55-12.82-7c-3.13-3.19-6.37-7.36-7.36-11.82-1.09-4.89,3.3-7.39,7.39-8.48,6.64-1.77,13.76-1.79,20.6-1.73,3.26,0,6.53.11,9.8.16,1.1,0,2.24.07,3.37,0-10.58-2.34-21.59-1.76-32.37-2a.46.46,0,0,1-.24-.85C53.46,83.27,63.76,80,74.19,77.87a282.63,282.63,0,0,1,33-5,100.45,100.45,0,0,1,19.23.2c3.44.39,8.09.62,11.09,2.6,2.29,1.52,2.29,4.94,2.26,7.37-.08,5.73-1.14,11.58,0,17.28a.57.57,0,0,1,0,.13,202.24,202.24,0,0,1,18.43-16.93c2.94-2.35,5.88-4.39,9.64-5.11,4.44-.84,9.51-.14,14,.23a143.83,143.83,0,0,1,30.46,6,121.09,121.09,0,0,1,12.82,4.66c2.92,1.3,6,2.85,7.45,5.84a.46.46,0,0,1-.39.69c-6.95,0-13.88.48-20.82,1,6.75.44,13.48,1.33,20.16,2.39,2.23.35,5.65,1.18,5.59,4.12a6.56,6.56,0,0,1-4.69,6.24,48,48,0,0,1-6,.74c-2.71.33-5.42.68-8.12,1-5.4.68-10.81,1.35-16.25,1.71-6.59.47-13.21.67-19.81.8C183.8,114.39,185.4,114.92,187,115.36Z"/>
          </g>
          <ellipse class="ec033b79-511f-4729-8939-2c183cdb002a" cx="132.7" cy="106.92" rx="77.56" ry="19.48"/>
          <g>
            <g>
              <g>
                <path class="a394953c-cc2e-48a9-a620-1ee8207fc06e" d="M107,94.1c-7.55,0-17.23-4.08-23.23-10-5.7-5.65-5.35-8.47-4.64-9.65,1.13-1.87,4.32-1.9,6.76-.85l-.1.25c-2.34-1-5.39-1-6.44.75-.67,1.11-1,3.78,4.59,9.29,6.71,6.66,18,11,25.75,9.78,3.07-.47,5.29-1.79,6.43-3.82l.22.14c-1.17,2.11-3.46,3.47-6.61,4A18.45,18.45,0,0,1,107,94.1Z"/>
                <g>
                  <path class="ed834616-e091-4c7c-80ad-9199db9cb598" d="M116.18,89.88C111.9,97.56,93.64,93.72,83.81,84s-2.94-12.4,2-10.28"/>
                  <path class="a7248bc2-0ea2-4f9e-a4a6-15a603f49360" d="M58.71,96.67s2.62.07,1.5,3.69c4.26-2.64,16.39-1.49,20.38-6.12C72.53,91.55,66,96.88,58.71,96.67Z"/>
                  <path class="a394953c-cc2e-48a9-a620-1ee8207fc06e" d="M60,100.66l.11-.35A3.26,3.26,0,0,0,60,97.56a1.82,1.82,0,0,0-1.34-.75v-.28A28.15,28.15,0,0,0,67.33,95a30.55,30.55,0,0,1,8.54-1.63,14.65,14.65,0,0,1,4.76.77l.2.06-.14.16c-2.37,2.76-7.62,3.5-12.25,4.16-3.3.46-6.42.91-8.16,2Zm-.35-3.85a1.93,1.93,0,0,1,.63.59,3.3,3.3,0,0,1,.17,2.67c1.83-1,4.82-1.41,8-1.86,4.5-.64,9.58-1.36,11.95-3.9a14.62,14.62,0,0,0-4.48-.69,30.54,30.54,0,0,0-8.47,1.61A31.74,31.74,0,0,1,59.63,96.81Z"/>
                  <path class="ed834616-e091-4c7c-80ad-9199db9cb598" d="M82.18,78.53c5,6.46,4.91,6.81,11.11,11.08a23.21,23.21,0,0,0,8.16,3.52c2,.38,6.46,2.14,4.91,5.66-1.88,4.29-7.87.44-10.43-1.23a10.64,10.64,0,0,0-6-1.68,21.62,21.62,0,0,0-6.39,1.75c-2.91,1.17-9.32,3.73-13.47,6.8s-10.6,4.53-12.37.6c-1.13-2.5.57-5.37,5.51-6.67,4.4-1.14,11.15-1.7,15.78-3.86-4.9-.87-9.51.82-12.67,1.84S59,98,56.55,97.17c-3.72-1.29-2.6-8.11,5.24-8.11,7.64,0,18.7,1.28,20.2-.47-16.75-14.39-4.14-20.41,3.8-14.91"/>
                  <path class="b7e83581-522d-4f38-8144-11d38f5ee3f6" d="M91.1,91a49.61,49.61,0,0,1-5.39-4.16c-3.81-3.68-4.88-6.74-5.77-10.91-.81-3.81-2.13-4.12-3.11-3.8C72.5,73.58,71.4,79.49,82,88.59c-1.5,1.75-12.56.47-20.2.47-4.46,0-6.74,2.21-7.2,4.35-.18.85,1,2.24,3.62,2.47A24.72,24.72,0,0,0,66,94.73c3.15-1,8.11-1.1,13-.23-4.63,2.16-11.38,2.72-15.78,3.86-3.78,1-5.57,2.92-5.83,4.88-.17,1.25.92,2.53,3.35,2.52,2.62,0,6.8-2.33,9-3.92,4.14-3.07,10.94-5.41,13.85-6.58a16.48,16.48,0,0,1,6.66-1.16C92,94.1,92.82,92.18,91.1,91Z"/>
                  <path class="f65aace9-6a9a-4afa-894a-0318fc0475da" d="M64.09,99.23a10.5,10.5,0,0,0-5.27,2.1c-1.54,1.43.26,1.84,1.43,1a37.07,37.07,0,0,1,4.35-2.78C64.93,99.42,65,99.09,64.09,99.23Z"/>
                  <path class="f65aace9-6a9a-4afa-894a-0318fc0475da" d="M61.65,90a7.81,7.81,0,0,0-4.21.71c-1.36.82-.07,1.42.91,1A27.34,27.34,0,0,1,62,90.37C62.25,90.3,62.36,90.07,61.65,90Z"/>
                  <path class="a394953c-cc2e-48a9-a620-1ee8207fc06e" d="M62,107.55a6.45,6.45,0,0,1-1.75-.22,4,4,0,0,1-2.68-2.24,3.64,3.64,0,0,1,0-3.06c.76-1.7,2.75-3,5.62-3.8,1.5-.39,3.26-.71,5.13-1.06a48.27,48.27,0,0,0,10.2-2.61c-4.37-.63-8.46.71-11.48,1.7l-.67.21c-2.92,1-7.24,1.73-9.82.84a3.23,3.23,0,0,1-2.09-3.68c.35-2.34,2.76-4.71,7.37-4.71,2.31,0,4.95.12,7.51.23,5.53.25,11.24.5,12.49-.55-10-8.6-8.51-13.21-7.42-14.79,2-3,7.4-3.07,11.49-.24l-.14.23c-3.91-2.71-9.21-2.63-11.14.17-2.18,3.18.62,8.61,7.49,14.51l.11.09-.09.11c-1.09,1.27-6.78,1-12.8.75-2.56-.11-5.2-.23-7.5-.23-4.45,0-6.78,2.25-7.12,4.47A2.93,2.93,0,0,0,56.59,97c2.52.88,6.78.1,9.67-.83l.66-.22c3.15-1,7.46-2.44,12.06-1.63l.44.08-.41.19c-3.07,1.43-7.12,2.17-10.68,2.82-1.87.34-3.63.66-5.12,1-2.78.73-4.72,2-5.44,3.65a3.35,3.35,0,0,0,0,2.82,3.67,3.67,0,0,0,2.5,2.09c2.56.71,6.54-.41,9.68-2.74,4.1-3,10.37-5.56,13.38-6.77l.12,0a21.57,21.57,0,0,1,6.42-1.75A10.56,10.56,0,0,1,96,97.45c1.91,1.24,5.9,3.82,8.46,3a3.24,3.24,0,0,0,1.82-4.24c-.87-1.77-3.55-2.7-4.85-2.94a23.41,23.41,0,0,1-8.21-3.54c-5.43-3.74-5.8-4.21-9.4-8.73-.54-.66-1.64-2.47-1.64-2.47.7.87,1.3,1.63,1.84,2.29,3.65,4.59,4,5,9.35,8.67A22.86,22.86,0,0,0,101.48,93c1.44.27,4.11,1.22,5,3.08a3.12,3.12,0,0,1,0,2.76,3.17,3.17,0,0,1-2,1.88c-2.67.85-6.72-1.77-8.67-3a10.39,10.39,0,0,0-6-1.66,21.79,21.79,0,0,0-6.35,1.74l-.12,0c-3,1.21-9.25,3.72-13.32,6.74A14.62,14.62,0,0,1,62,107.55Z"/>
                </g>
              </g>
              <path class="ab771724-9341-4086-8328-ae90b625a878" d="M77.58,72.05s1.45.1,2.14,3,1.38,7.33,5.73,11.54S90.93,90.3,92,91.87s8,.45,9.73,1.19,4.2,1.13,5.13.76S103.18,82,103,82s-20.85-9.81-20.85-9.81A9.24,9.24,0,0,0,77.58,72.05Z"/>
              <path class="f3730786-7478-47de-b950-16285002c3b5" d="M74,75.43a5.08,5.08,0,0,1,3.13,1,3.78,3.78,0,0,1-.71,6.07S73.18,79,74,75.43Z"/>
              <circle class="f3730786-7478-47de-b950-16285002c3b5" cx="83.35" cy="86.58" r="1.18"/>
            </g>
            <g>
              <path class="a625b06b-67cc-4d4f-b93b-f99e6d57aadc" d="M72.53,110.58s6.47-.4,5.12,6.07c2.89-2.93,10.16-7.21,13.76-12.93-4.68,1-8.13,1.9-11.62,3.89A34,34,0,0,1,72.53,110.58Z"/>
              <path class="a7248bc2-0ea2-4f9e-a4a6-15a603f49360" d="M76.24,111.57c1.15.83,2,2.34,1.41,5.08,2.37-2.41,7.71-5.73,11.53-10C84.58,106.65,80.61,109.9,76.24,111.57Z"/>
              <path class="a394953c-cc2e-48a9-a620-1ee8207fc06e" d="M77.42,117.06l.1-.44a5.08,5.08,0,0,0-.58-4.19c-1.21-1.59-3.52-1.72-4.2-1.72h-.2l0-.28a33.74,33.74,0,0,0,7.22-3c3.59-2,7.25-2.94,11.66-3.91l.31-.06-.17.28c-2.44,3.88-6.56,7.1-9.87,9.68a42.94,42.94,0,0,0-3.91,3.27Zm-4-6.59a5.22,5.22,0,0,1,3.73,1.79,5,5,0,0,1,.71,4c.93-.88,2.2-1.87,3.64-3,3.21-2.51,7.19-5.61,9.63-9.33-4.38,1-7.79,1.82-11.27,3.8A34.14,34.14,0,0,1,73.41,110.47Z"/>
              <path class="ed834616-e091-4c7c-80ad-9199db9cb598" d="M94,79.58c-1,3.15-2.1,16.77-2.19,18.63a27.65,27.65,0,0,1-12.15,4.21c-5.06.56-5.33-.14-9.21.74s-4.5,4.13-3.32,6.12,4.23,2.92,8.6,1.25,6.38-4.45,14.38-5.65a51.87,51.87,0,0,1-10.18,8.89c-8.22,5.7-3.19,12.14,2.67,9.15,3.15-1.61,6.16-6.69,7.42-9.61,1.42-3.3,5.2-9.36,8.69-9.54s6.73,3.89,11.36,3.33,5.42-4.13,3.67-5.86-7.42-.72-9.7-2.29-4-5-4-14.92"/>
              <path class="b7e83581-522d-4f38-8144-11d38f5ee3f6" d="M104.23,101.78c1.91,3.53,6.39,4.55,10,3a3,3,0,0,0-.45-3.59c-1.39-1.38-5.27-1-7.94-1.61A1.47,1.47,0,0,0,104.23,101.78Z"/>
              <path class="b7e83581-522d-4f38-8144-11d38f5ee3f6" d="M85.36,117.91c2.3-2.61,4.62-9.32,8.81-13.49a11.25,11.25,0,0,1,3.66-3.1A4,4,0,0,0,100.09,97,39.16,39.16,0,0,0,98,88.22c-.66-1.86-2.84-4.83-4.74-4.64-.73,5.25-1.38,13.24-1.45,14.63a27.65,27.65,0,0,1-12.15,4.21c-5.06.56-5.33-.14-9.21.74s-4.5,4.13-3.32,6.12,4.07,1.09,8.44-.58,8.38-5,16.37-6.2c-.11.12-2.05,2.62-2.16,2.75a52.1,52.1,0,0,1-9.85,8.52c-3.21,2.23-4.4,4.57-4.31,6.42C76.67,123.68,83.06,120.52,85.36,117.91Z"/>
              <path class="f65aace9-6a9a-4afa-894a-0318fc0475da" d="M81.44,113.34c-1.46.85-3.72,2.43-4.68,4.39s.94,1.74,1.81.45A42.62,42.62,0,0,1,82,113.52C82.21,113.23,82.22,112.88,81.44,113.34Z"/>
              <path class="f65aace9-6a9a-4afa-894a-0318fc0475da" d="M74.39,103.68c-1.68-.1-4.17,0-5.86,1-1.92,1.16-.1,2,1.29,1.42a42.27,42.27,0,0,1,4.72-1.81C75.05,104.15,75.45,103.74,74.39,103.68Z"/>
              <path class="a394953c-cc2e-48a9-a620-1ee8207fc06e" d="M79.67,123.82a4.17,4.17,0,0,1-3.76-2c-1-1.81-.51-5,3.94-8.11a52.1,52.1,0,0,0,9.9-8.59,26.59,26.59,0,0,0-10.11,3.66,26.35,26.35,0,0,1-3.87,1.93c-4.81,1.84-7.68.53-8.77-1.31a4,4,0,0,1-.27-3.53A4.86,4.86,0,0,1,70.41,103a17.27,17.27,0,0,1,4.61-.5,38.43,38.43,0,0,0,4.62-.24,27.55,27.55,0,0,0,12-4.16c.11-2.1,1.24-15.48,2.19-18.59l.25.08c-1,3.14-2.09,16.78-2.18,18.59v.08l-.06,0a27.83,27.83,0,0,1-12.2,4.23,37.41,37.41,0,0,1-4.65.25,17.08,17.08,0,0,0-4.56.49A4.64,4.64,0,0,0,67,105.92a3.77,3.77,0,0,0,.26,3.29c1.29,2.19,4.61,2.66,8.45,1.19a28,28,0,0,0,3.84-1.91,26.58,26.58,0,0,1,10.56-3.75l.36,0-.25.28A51.91,51.91,0,0,1,80,113.89c-4.3,3-4.76,6-3.85,7.74s3.44,2.67,6.39,1.16,6.08-6.56,7.36-9.54c1.56-3.62,5.33-9.44,8.81-9.62,1.61-.09,3.15.71,4.78,1.55,2,1,4.07,2.09,6.57,1.78,2.24-.27,3.8-1.29,4.28-2.8a2.79,2.79,0,0,0-.69-2.82c-.87-.86-2.85-1-4.77-1.18s-3.78-.31-4.91-1.1c-2-1.4-4.08-4.28-4.08-15h.27c0,10.68,2.11,13.52,4,14.8,1.06.74,3,.9,4.78,1,2.06.17,4,.33,4.93,1.26a3.09,3.09,0,0,1,.76,3.11c-.51,1.62-2.15,2.71-4.5,3-2.58.31-4.78-.82-6.71-1.81-1.6-.83-3.12-1.61-4.66-1.52-3.48.18-7.28,6.45-8.58,9.46-1.12,2.6-4.12,8-7.48,9.68A6.7,6.7,0,0,1,79.67,123.82Z"/>
              <path class="a394953c-cc2e-48a9-a620-1ee8207fc06e" d="M90.19,105l-.19-.19a22,22,0,0,0,2.84-4,8.94,8.94,0,0,1-1.32,2.54C91,104,90.55,104.57,90.19,105Z"/>
            </g>
            <path class="ed834616-e091-4c7c-80ad-9199db9cb598" d="M114.77,22.63C117.68,11.76,130.12,2.3,147.41,31c0,0,6.2-.11,8.48,3.26,1.92-.56,5.59,1.58,7.17,5.56s2,8.38,4.47,10.8c12.29,12.15,21.85,19.4,19.84,35.62-2.69,18.75-41.09,21.69-66.61,14.09S79,74.73,74.71,59c-4.53-.21-9.26-10.38-.93-13.71-.68-2.76,0-6.4,1.61-7.14-3.7-11.3,1.16-24,11.32-24,6.78,0,9.23,6.72,11,8.94,1.35.42,1.62-1.64,9.2-1.79A20.16,20.16,0,0,1,114.77,22.63Z"/>
            <path class="f9bde9a5-9dc7-4f68-aea5-f2ba8f799092" d="M114.39,22.47c4-10.69,14.72-20.9,33,8.51a10.83,10.83,0,0,1,8.48,3.26c1.92-.56,6.17,1.74,8,6,1.64,4,2,8.38,4.47,10.81,12.3,12.14,21.21,17.39,16.48,32.39s-24.71,13.6-57.31,1.09C102.56,75,84.8,73.08,80.52,57.32c-11.58,5.21-15.3-9-6.74-12-.49-.94-.32-6.31,1.34-7.05C70,14.61,85.43,11.54,91.73,15.65c3.38,2.2,4.21,5.19,6,7.41.32.05,1.42-1.95,9.2-1.79C111.09,21.36,113.39,22,114.39,22.47Z"/>
            <path class="fb21ccd5-8dd5-4102-983c-a27f17e66b2f" d="M189.19,87.52c-6.3,17.56-44.36,20-68.43,12.79C95.25,92.71,79,74.73,74.71,59a4.91,4.91,0,0,1-4.4-3.5c-.8-3.13,2-7.11,4.4-2.24,3.06,1.11,8.22,5.88,10.8,6s9.08-3.57,13.45-4,17.09,2.78,23.38,1.66,23.45-14.46,31.28-14.84c-1-3.48,3.34-6.85,7-2.6,4.06,4.74,5.77,17.73-2.1,27-3.89,4.61-9.08,5.31-10.39,10.71C143.86,94.82,183.15,102.16,189.19,87.52Z"/>
            <path class="f3730786-7478-47de-b950-16285002c3b5" d="M161.14,40.22a1.66,1.66,0,0,0-2.54.51c-1.31,1.39-.26,5-.79,5-8.14-2.85-18.57,7.24-24.87,14-4.15,4.45-6.19,9.64-10.34,13.9-7.17,7.35-17.91,6.09-24.36,3-4.41-2.14-3.82-8-7.75-12-1.59-1.6-3.6-1.18-7.4-2.91-3.24-1.47-6.28-6.22-9.69-7.89-1.26-.57-3.36-1.06-3.21.94a4.52,4.52,0,0,0,.12.75,4.91,4.91,0,0,0,4.4,3.5c2.45,9,8.8,18.71,18.54,26.81,6.7,5.32,18.49,9.64,26.29,10.8,13.68,2,28.05-1,32.41-8.21-3.22-2.94-4.9-6.7-3.83-11.12,1.31-5.4,6.5-6.1,10.39-10.71C166,57.66,164.8,45.43,161.14,40.22Z"/>
            <g>
              <path class="adedbc08-b38e-4555-ad31-adbd5ea9fc9f" d="M139.18,49.71c-9.63,6.95-15.29,18.06-19.46,22.06a15.27,15.27,0,0,1-7.8,3.62c-5.3,1-11.06.06-13.53-2-3.84-3.16-1.85-9.36-11.68-13.9,0,0,6.62-3.15,10-4.43a14.87,14.87,0,0,1,4-.82,55.9,55.9,0,0,1,12.16.89C120.76,56.39,124.43,55.83,139.18,49.71Z"/>
              <path class="aba15f8d-a084-4e71-86fe-981c5861ceb9" d="M111.92,75.39c-5.3,1-11.06.06-13.53-2-3.84-3.16-1.85-9.36-11.68-13.9,0,0,6.62-3.15,10-4.43a14.87,14.87,0,0,1,4-.82C98.86,63.3,106,71.2,111.92,75.39Z"/>
              <path class="b3eea8e6-d17b-41d3-8334-f08cdea5404e" d="M124.78,65.4a52.41,52.41,0,0,1-5.06,6.37c-4.76,4.55-14.22,4.84-19.24,2.84h0c-3-1.56-5.07-6.22-2.11-9.21s7.87-3.06,10.23-.7C116.48,59.26,124.43,62.22,124.78,65.4Z"/>
              <path class="bc64e0a8-d263-4522-95ab-32d4658797db" d="M112.64,72.93c3.77-1.51,8.64-4.45,6.28-8.34-2.1-3.34-8.82-1.62-12,1.43-.66-2.1-3-3.12-5.41-2.57a7.91,7.91,0,0,0-3.18,2A4.8,4.8,0,0,0,97,67.94C96.5,73,105.11,75.93,112.64,72.93Z"/>
              <path class="af2f05fb-b354-475a-aaed-a832b7275cca" d="M107.54,75.93a19.83,19.83,0,0,1-7.08-1.18h0l0,0a7.09,7.09,0,0,1-3.56-5.06,5,5,0,0,1,1.42-4.37,8.27,8.27,0,0,1,5.84-2.4,6.47,6.47,0,0,1,4.49,1.63,16,16,0,0,1,9-3c4.22,0,7,2,7.25,3.84v.06l-.11.15a50.25,50.25,0,0,1-5,6.28c-2.69,2.58-7.16,4.06-12.26,4.06Zm-7-1.45h0a19.62,19.62,0,0,0,7,1.17h0c5,0,9.44-1.45,12.09-4a50.8,50.8,0,0,0,5-6.25l.05-.06c-.25-1.71-3-3.54-7-3.54a15.77,15.77,0,0,0-9,3l-.09.06-.07-.08a6.24,6.24,0,0,0-4.39-1.63,8,8,0,0,0-5.66,2.33,4.71,4.71,0,0,0-1.34,4.13A6.82,6.82,0,0,0,100.52,74.48Z"/>
              <path class="fb9466e3-770b-4a9d-819d-b674795ae25e" d="M105.12,69.86a3.85,3.85,0,0,1,.51-2,9.12,9.12,0,0,1,2.89-3.26l.15.23A9,9,0,0,0,105.12,69.86Z"/>
              <path class="b8399d13-663f-42c8-8fc0-8591ba9d4563" d="M107.54,75.93h0c-3.9,0-7.43-.92-9.23-2.38a10.46,10.46,0,0,1-2.75-4.45c-1.26-3.08-2.68-6.56-8.9-9.44l-.28-.12.27-.13c.07,0,6.67-3.17,10-4.43a17.62,17.62,0,0,1,6.16-.9A67.73,67.73,0,0,1,113,55a36.47,36.47,0,0,0,5.63.52c4.76,0,9.37-1.34,20.54-6l1.09-.44-1,.69c-6.28,4.54-10.82,10.78-14.47,15.8a50.34,50.34,0,0,1-5,6.24C117.11,74.45,112.64,75.93,107.54,75.93ZM87,59.54c6.1,2.9,7.58,6.52,8.77,9.45a10,10,0,0,0,2.67,4.34c1.75,1.43,5.23,2.32,9.07,2.32,5,0,9.44-1.45,12.09-4a49.91,49.91,0,0,0,4.94-6.2c3.49-4.79,7.78-10.7,13.65-15.2-10.48,4.31-15,5.58-19.63,5.58a36.6,36.6,0,0,1-5.66-.52,67.87,67.87,0,0,0-10.08-1,17.57,17.57,0,0,0-6.07.89C93.8,56.36,88.31,58.93,87,59.54Z"/>
              <path class="a526322a-1e25-445d-b4a3-0e5f3dd9c97d" d="M105.85,68.76a6.54,6.54,0,0,1,3.45-3.61c.43-.2.8-.13.55,0a14.58,14.58,0,0,0-3.94,4.27C105.61,70,105.67,69.23,105.85,68.76Z"/>
              <path class="a526322a-1e25-445d-b4a3-0e5f3dd9c97d" d="M97.64,68.72a4.69,4.69,0,0,1,4.51-4.6c.46-.05.58.15.26.25A6.7,6.7,0,0,0,98,69C97.76,69.62,97.62,69.13,97.64,68.72Z"/>
            </g>
            <path class="b8399d13-663f-42c8-8fc0-8591ba9d4563" d="M148.43,104.22a99.82,99.82,0,0,1-27.7-3.78,76.89,76.89,0,0,1-31-17.63c-7.48-7.13-12.83-15.54-15.08-23.69a5.08,5.08,0,0,1-4.43-3.6,4.79,4.79,0,0,1,.64-3.8,1.9,1.9,0,0,1,1.5-.9c.62,0,1.55.4,2.49,2.3A26.67,26.67,0,0,1,79.6,56c2.21,1.51,4.5,3.06,5.91,3.14,1.22.07,3.43-.78,5.76-1.68A32.41,32.41,0,0,1,99,55.16q.39,0,.87,0a69.11,69.11,0,0,1,7.84.82,90.4,90.4,0,0,0,11.42,1.11,18.9,18.9,0,0,0,3.24-.24c2.73-.49,7.61-3.35,12.77-6.37C141.62,46.63,149,42.3,153.45,42a3.79,3.79,0,0,1,.58-3.05A3.56,3.56,0,0,1,157,37.39a5,5,0,0,1,3.76,2c4.29,5,5.61,18.1-2.1,27.21a23.64,23.64,0,0,1-4.92,4.18c-2.5,1.75-4.67,3.25-5.45,6.47a10.25,10.25,0,0,0,1.81,8.79c3.92,5.37,13.26,9.12,22.7,9.12,8.22,0,14.32-2.89,16.32-7.73l.24.1c-1.94,5.42-7.14,9.81-15,12.7C167.25,102.86,158.31,104.22,148.43,104.22ZM72.32,51.1a1.65,1.65,0,0,0-1.29.79,4.49,4.49,0,0,0-.59,3.55,4.76,4.76,0,0,0,4.28,3.4h.09l0,.09c4,14.92,19.84,33.46,46,41.23a99.69,99.69,0,0,0,27.63,3.77c9.85,0,18.76-1.36,25.77-3.93,6.58-2.41,11.27-5.87,13.72-10.1-2.81,3.53-8.25,5.57-15.17,5.57h0c-9.52,0-18.94-3.8-22.91-9.23a10.53,10.53,0,0,1-1.85-9c.81-3.32,3-4.85,5.56-6.63a23.73,23.73,0,0,0,4.86-4.13c7.61-9,6.33-21.91,2.1-26.85A4.72,4.72,0,0,0,157,37.67a3.29,3.29,0,0,0-2.71,1.43,3.54,3.54,0,0,0-.5,3l0,.17h-.17c-4.37.21-11.82,4.58-18.4,8.43-5.19,3-10.08,5.91-12.86,6.4a18.17,18.17,0,0,1-3.28.25,90.5,90.5,0,0,1-11.45-1.11,66.81,66.81,0,0,0-7.81-.83,7.35,7.35,0,0,0-.85,0,32,32,0,0,0-7.61,2.26c-2.47.95-4.59,1.77-5.86,1.7-1.49-.08-3.8-1.66-6-3.19a26.29,26.29,0,0,0-4.79-2.84l0,0,0-.05C73.72,51.48,72.87,51.1,72.32,51.1Z"/>
            <path class="b7e83581-522d-4f38-8144-11d38f5ee3f6" d="M74.71,53.24c4.19,1.11,7.38,7.6,12,7.23s8.11-4,14.14-4.35,15.68,3.87,23.59,2.13c10.92-2.41,21.12-14.7,29.18-16.12,0,0-36.17-.29-50.52,2S74.71,53.24,74.71,53.24Z"/>
            <g>
              <path class="aea3ea4c-c2d7-4d97-a3cf-2a8ecf694d62" d="M74.81,53.12a9.67,9.67,0,0,1,3.85,2.38c2.23,2,4.63,4.42,6.79,4.75a7.75,7.75,0,0,0,3.73-.43c.76-.18,3.87-1.61,4.64-1.94a23.11,23.11,0,0,1,5-1.66c1.81-.3,2.86-.52,7,.15,4,.64,6.4,1.36,9.32,1.71a27,27,0,0,0,8.37.19c3.66-.49,7.6-2.7,10.31-4.34s7.84-5.43,9-6.23a54.34,54.34,0,0,1,7-4.38c1.86-.75,3.32-1.22,3.32-1.22a7.12,7.12,0,0,0-3.32-.6c-1.88.13-3.89,3.93-14.61,10.34S118.81,57.58,116.29,57s-9.11-2.43-15.55-2.21S91,58.15,87.55,59.08C84.4,60,80,55.24,80,55.24S76.47,51.44,74.81,53.12Z"/>
              <path class="a394953c-cc2e-48a9-a620-1ee8207fc06e" d="M86.33,60.62c-2.48,0-4.57-1.92-6.59-3.78-1.6-1.47-3.26-3-5.06-3.47l.07-.27c1.85.49,3.53,2,5.16,3.53,2.08,1.92,4.24,3.9,6.79,3.69a17.69,17.69,0,0,0,6-1.93A22.09,22.09,0,0,1,100.83,56a37.78,37.78,0,0,1,8.86,1.13c4.72.95,10.06,2,14.72,1,5.73-1.26,11.16-5.19,16.42-9,4.59-3.32,8.93-6.46,12.77-7.13l0,.27c-3.78.67-8.1,3.78-12.66,7.08-5.28,3.82-10.73,7.76-16.52,9-4.71,1-10.08-.05-14.82-1a37.37,37.37,0,0,0-8.79-1.13,22,22,0,0,0-8.08,2.4,18.23,18.23,0,0,1-6,2Z"/>
            </g>
            <g>
              <path class="a394953c-cc2e-48a9-a620-1ee8207fc06e" d="M156.58,44.71c-3.23-3.69-6.8-3.21-6.83-3.21a4.56,4.56,0,0,1,2.84.12,8.58,8.58,0,0,1,2.72,1.5A5.82,5.82,0,0,1,156.58,44.71Z"/>
              <path class="a394953c-cc2e-48a9-a620-1ee8207fc06e" d="M77,51.44a5.87,5.87,0,0,0-3.3,4.25,3.23,3.23,0,0,1,.53-1.95,6.18,6.18,0,0,1,1.46-1.66A4.17,4.17,0,0,1,77,51.44Z"/>
            </g>
            <g>
              <path class="a394953c-cc2e-48a9-a620-1ee8207fc06e" d="M113.48,27.86a11.83,11.83,0,0,1,0-2.35,11.1,11.1,0,0,1,1.18-3.39l-.07.46A18.37,18.37,0,0,0,113.48,27.86Z"/>
              <g>
                <path class="a394953c-cc2e-48a9-a620-1ee8207fc06e" d="M98.39,27.13a12.33,12.33,0,0,0-1.71-5.38l.21.05a10.76,10.76,0,0,1,1.63,3.37A3.28,3.28,0,0,1,98.39,27.13Z"/>
                <path class="a1a30cd4-b99e-48fa-8847-909da7361635" d="M95,18.89c2,3.17,3.07,5,3.4,7.71.07.63-.09.65-.23,0-.82-3.75-2.51-5.44-3.45-7C92.9,16.51,94.63,18.34,95,18.89Z"/>
              </g>
              <path class="a1a30cd4-b99e-48fa-8847-909da7361635" d="M113.94,24.75a21,21,0,0,1,4.83-9.61c1.1-1.21,1.27-.72.59.27a48.21,48.21,0,0,0-5,9.33C113.72,26.42,113.38,27.08,113.94,24.75Z"/>
            </g>
            <g>
              <g>
                <path class="aea3ea4c-c2d7-4d97-a3cf-2a8ecf694d62" d="M78.33,20s3.84-2.38,9.88,0,6.66,11.5,5.68,14.2c-1.3,3.61-4,6.52-8.15,7.08a11.86,11.86,0,0,1-6.68-.82Z"/>
                <g>
                  <ellipse class="f7105a66-5c23-4c81-9a9c-6c13a3fed2f7" cx="82.21" cy="30.34" rx="10.27" ry="11.05" transform="translate(-4.83 20.22) rotate(-13.62)"/>
                  <path class="abd4c0eb-35b5-4d39-8005-a681e1f51021" d="M84.71,35.09s5.68,1,7.6-2.79a10.83,10.83,0,0,1-2.22,5.4,10,10,0,0,1-9,3.48,6.26,6.26,0,0,1-5-4.61S82.08,33.81,84.71,35.09Z"/>
                  <path class="b32c6c7f-7b0f-417c-b698-40eef1ea844e" d="M72.1,28.69s5.92-5.12,10.83.13c5.54,5.93-1.83,12.37-1.83,12.37a9.17,9.17,0,0,1-5.79-3.32C72.88,35,71.58,31.61,72.1,28.69Z"/>
                  <path d="M72,29.31s5.72-4.51,10,.26C87.13,35.24,80.29,41,80.29,41a10.16,10.16,0,0,1-5.38-3.32A11.6,11.6,0,0,1,72,29.31Z"/>
                  <path class="ac9f2e11-fa90-43a3-953c-56fd95dd61d3" d="M84.67,33.89a1.29,1.29,0,0,1-1.77-.57,1.36,1.36,0,0,1,.53-1.83,1.3,1.3,0,0,1,1.77.57A1.38,1.38,0,0,1,84.67,33.89Z"/>
                </g>
              </g>
              <g>
                <path class="f9bde9a5-9dc7-4f68-aea5-f2ba8f799092" d="M79.06,42.88S85.25,38,91,42.88"/>
                <path class="a394953c-cc2e-48a9-a620-1ee8207fc06e" d="M79.06,42.88a5.76,5.76,0,0,1,2.13-1.45,9.54,9.54,0,0,1,7.9,0,4.88,4.88,0,0,1,1.8,1.47C85.27,38.33,79.12,42.83,79.06,42.88Z"/>
                <path class="f65aace9-6a9a-4afa-894a-0318fc0475da" d="M88.06,42.18c0-.47-1.15-.9-2.61-1s-2.66.25-2.68.72,1.15.91,2.61,1S88,42.65,88.06,42.18Z"/>
              </g>
            </g>
            <g>
              <g>
                <path class="aea3ea4c-c2d7-4d97-a3cf-2a8ecf694d62" d="M136.46,25.6c1.88,6.81.67,12.41-4.73,14.24-7.59,2.57-13.67-.86-16.1-7.5-2.22-6.09,1-14.49,7.55-15.69C131,15.19,134.66,19.05,136.46,25.6Z"/>
                <g>
                  <ellipse class="f7105a66-5c23-4c81-9a9c-6c13a3fed2f7" cx="127.59" cy="28.67" rx="11.44" ry="12.03" transform="translate(2.76 67.63) rotate(-30)"/>
                  <path class="abd4c0eb-35b5-4d39-8005-a681e1f51021" d="M131.13,33.33s6.44.12,7.92-4.31a11.65,11.65,0,0,1-1.54,6.18,11.37,11.37,0,0,1-9.39,5.3,6.91,6.91,0,0,1-6.32-4.09S128,32.41,131.13,33.33Z"/>
                  <path class="b32c6c7f-7b0f-417c-b698-40eef1ea844e" d="M116.13,28.67s5.7-6.54,12-1.76c7.11,5.4,0,13.59,0,13.59a10.35,10.35,0,0,1-6.94-2.57C118.07,35.22,116.25,32.19,116.13,28.67Z"/>
                  <path d="M116.16,29.32s5.56-5.82,11.09-1.44c6.58,5.19,0,12.59,0,12.59a11.5,11.5,0,0,1-6.53-2.63A12.38,12.38,0,0,1,116.16,29.32Z"/>
                  <path class="ac9f2e11-fa90-43a3-953c-56fd95dd61d3" d="M130.89,32.05a1.48,1.48,0,1,1,.28-2A1.47,1.47,0,0,1,130.89,32.05Z"/>
                </g>
              </g>
              <g>
                <path class="f9bde9a5-9dc7-4f68-aea5-f2ba8f799092" d="M126.51,43.87s3.85-6.67,14.11-5.16"/>
                <path class="a394953c-cc2e-48a9-a620-1ee8207fc06e" d="M126.51,43.87a4.42,4.42,0,0,1,1.3-1.91c1.76-1.63,5.17-3.79,10.85-3.66a4.36,4.36,0,0,1,2,.41C130.26,37.6,126.55,43.8,126.51,43.87Z"/>
                <path class="f65aace9-6a9a-4afa-894a-0318fc0475da" d="M137,39.63c-.18-.59-2.16-.41-4.42.41s-4,1.94-3.76,2.53,2.16.41,4.42-.4S137.23,40.22,137,39.63Z"/>
              </g>
            </g>
            <g>
              <path class="f3730786-7478-47de-b950-16285002c3b5" d="M170.76,53.67s-1.86,2.33,0,4.41,5.21.53,5.21.53S171,53.75,170.76,53.67Z"/>
              <circle class="f3730786-7478-47de-b950-16285002c3b5" cx="173.48" cy="65.67" r="3.06"/>
              <circle class="f3730786-7478-47de-b950-16285002c3b5" cx="166.05" cy="70.46" r="1.72"/>
              <circle class="f3730786-7478-47de-b950-16285002c3b5" cx="173.48" cy="73.33" r="1.16"/>
            </g>
            <g>
              <g>
                <path class="a625b06b-67cc-4d4f-b93b-f99e6d57aadc" d="M220.19,103.57s-5.2,1.29-4.5,4.72c-8.48-1.48-18-2.65-19.05-7.65,7.65-.69,10,.38,13.94,1.4A74.33,74.33,0,0,0,220.19,103.57Z"/>
                <path class="a394953c-cc2e-48a9-a620-1ee8207fc06e" d="M215.86,108.46l-.19,0-2.2-.38c-7.86-1.33-16-2.71-17-7.38l0-.15h.15c1.64-.15,3.08-.23,4.39-.23a26.49,26.49,0,0,1,8.06,1.21c.49.14,1,.28,1.53.41a75.16,75.16,0,0,0,9.59,1.53l.82.07-.8.2c-.05,0-5.07,1.31-4.4,4.56Zm-19.05-7.69c1.09,4.35,9,5.7,16.7,7l2,.34c-.38-2.63,2.61-4,4-4.48a70,70,0,0,1-8.95-1.47c-.54-.13-1.05-.27-1.54-.41a26.44,26.44,0,0,0-8-1.2C199.76,100.56,198.38,100.63,196.81,100.77Z"/>
                <path class="a394953c-cc2e-48a9-a620-1ee8207fc06e" d="M197.78,101.91c-.42-.37-.82-.76-1.19-1.13a7.89,7.89,0,0,1-1.35-1.85A32.85,32.85,0,0,0,198,101.7Z"/>
                <g>
                  <path class="a394953c-cc2e-48a9-a620-1ee8207fc06e" d="M181.43,97.7a4.64,4.64,0,0,1-3.12-2.63c-1.75-3.69-.32-10.22,1.61-15.09C184,69.74,190,65.08,193,65h0c.86,0,1.61.6,2.23,1.78L195,67c-.57-1.09-1.25-1.65-2-1.63-2.92,0-8.83,4.64-12.83,14.76-1.9,4.82-3.33,11.26-1.62,14.86a4.4,4.4,0,0,0,3,2.49Z"/>
                  <g>
                    <g>
                      <path class="ab771724-9341-4086-8328-ae90b625a878" d="M193,65.18c-2.87,0-8.89,4.56-13,14.85-2.7,6.84-4.15,16.08,1.42,17.54l13.67-30.69C194.57,65.8,193.86,65.17,193,65.18Z"/>
                      <path class="b7e83581-522d-4f38-8144-11d38f5ee3f6" d="M193,65.18c-2.87,0-8.89,4.56-13,14.85-.34.87-.66,1.77-1,2.69-.39,1.36.16,2.53,1.12,2.68,5.76.55,9.54-6.76,10.57-11.62l4.36-6.9C194.57,65.8,193.86,65.17,193,65.18Z"/>
                      <path class="a7248bc2-0ea2-4f9e-a4a6-15a603f49360" d="M198.09,103.1c3.17,3,10.73,4,17.6,5.19a3.24,3.24,0,0,1,1.53-3.34C210.87,104.72,203.05,101.47,198.09,103.1Z"/>
                      <path class="ed834616-e091-4c7c-80ad-9199db9cb598" d="M190.83,71.6c.44,7.16-9.31,23.21-10.35,26.57s-3.94,4.61-6.16,5.16-11,1.39-8.52,6,12.19,1.44,14.28-.6,3.34-3.78,5-3.78,4.59-.44,7.91.67a69.9,69.9,0,0,1,13.72,7.05c4.81,3.15,12.32,6.2,14.94,2.64s-1.4-6.81-7-7.92c-5-1-13.54-2.69-16.78-5.56,5.42-1.3,10.67.27,14.25,1.2s8.51,1.87,10.92.28c3.19-2.11,3.05-8.31-5.66-7.32-8,.9-21.46,1.3-23.24-.56,3.65-6.21,4.17-30.3-1.14-30.23"/>
                      <path class="b7e83581-522d-4f38-8144-11d38f5ee3f6" d="M190.83,71.6c.44,7.16-5.91,22.61-7,26s-7.33,5.21-9.55,5.76-11,1.38-8.52,6c1.51,2.82,10.66.64,13.31-2.18,2-2.15,4.69-4.41,6.33-4.41a25.47,25.47,0,0,1,7.78,1.39,64.13,64.13,0,0,1,13.85,6.49c2.73,1.79,7.72,4,11.18,4.22,3.23.2,4.2-1.41,4.2-1.72.05-2.65-3.39-4.86-7.81-5.73-4.63-.93-12.4-2.47-16-5a22.18,22.18,0,0,1-2.55-2.32c5.42-1.3,12.56.4,16.14,1.33s7.57,1.32,9.34.73c3.58-1.2,4.56-7.13-4.15-6.14-8,.9-21.46,1.3-23.24-.56,3.65-6.21,4.17-30.3-1.14-30.23"/>
                      <path class="f65aace9-6a9a-4afa-894a-0318fc0475da" d="M214.71,96.7c2.11-.31,4.9-.58,6.16-.08,2.36.94.46,2.24-1.22,1.86-1.48-.34-3-.76-4.88-1C214,97.32,213.22,96.93,214.71,96.7Z"/>
                      <path class="f65aace9-6a9a-4afa-894a-0318fc0475da" d="M213.5,107.81c2.11.51,5.09,1.38,6.16,2.39,1.88,1.79-.34,2.27-1.77,1.26-1.26-.89-2.5-1.84-4.2-2.85C213,108.19,212.23,107.5,213.5,107.81Z"/>
                      <path class="f65aace9-6a9a-4afa-894a-0318fc0475da" d="M171.59,104.81a9.56,9.56,0,0,0-4.94,1.6c-1.49,1.23.14,1.71,1.26,1a34.26,34.26,0,0,1,4.13-2.28C172.36,105,172.45,104.73,171.59,104.81Z"/>
                    </g>
                    <path class="f65aace9-6a9a-4afa-894a-0318fc0475da" d="M189.91,66.83c1.36-.89,2.92-1.58,3.92-.86s1.89,3.66,2.22,6c.12.89-.16.89-.36.2-.72-2.4-1.74-4.54-2.48-5s-2.12-.2-3.23.21S189.15,67.33,189.91,66.83Z"/>
                  </g>
                </g>
                <path class="a394953c-cc2e-48a9-a620-1ee8207fc06e" d="M217.85,117c-3.24,0-7.57-1.85-11.23-4.24a68.45,68.45,0,0,0-13.69-7,17.62,17.62,0,0,0-6.76-.7l-1.11,0c-1.23,0-2.25,1.05-3.66,2.5-.38.4-.78.81-1.23,1.24-1.44,1.4-6.87,3.53-10.83,2.88a4.73,4.73,0,0,1-3.66-2.31,2.79,2.79,0,0,1-.26-2.52c.94-2.14,5.11-2.93,7.6-3.4.51-.1,1-.18,1.27-.26,3.22-.81,5.26-2.51,6.06-5.08A53.75,53.75,0,0,1,183,92.59c3.13-6.2,7.87-15.57,7.87-21a4.46,4.46,0,0,1,.07,2.11c-.83,5.59-4.94,13.53-7.71,19a53.87,53.87,0,0,0-2.59,5.49c-.83,2.66-2.93,4.43-6.25,5.26-.32.08-.77.16-1.29.26-2.44.46-6.52,1.23-7.4,3.25a2.5,2.5,0,0,0,.25,2.26,4.5,4.5,0,0,0,3.47,2.18c3.88.63,9.21-1.45,10.61-2.81.45-.43.85-.85,1.23-1.24,1.45-1.5,2.5-2.58,3.84-2.58l1.1,0a18,18,0,0,1,6.85.71,69.58,69.58,0,0,1,13.75,7.06c5.44,3.56,12.38,5.92,14.77,2.67a3.26,3.26,0,0,0,.61-3.15c-.72-2-3.6-3.77-7.52-4.55h0c-5.07-1-13.55-2.69-16.8-5.58l-.2-.18.26-.06c5.08-1.22,10,.07,13.55,1l.75.2c5.45,1.41,9,1.5,10.82.29a3.93,3.93,0,0,0,1.68-4.37c-.33-1-1.69-3.32-7.25-2.69-6.95.78-21.4,1.44-23.35-.6l-.07-.08.05-.09c2.91-5,4-22.78,1-28.43-.56-1.06-1.22-1.59-2-1.59h0V65c.86,0,1.62.57,2.23,1.73,1.37,2.58,2,8,1.78,14.48-.24,6.22-1.27,11.62-2.7,14.14,2,1.67,14.65,1.39,23.06.44,5.74-.65,7.18,1.8,7.53,2.88a4.23,4.23,0,0,1-1.79,4.7c-1.9,1.25-5.5,1.16-11-.26l-.76-.2c-3.48-.92-8.24-2.17-13.16-1.07,3.35,2.73,11.53,4.36,16.47,5.34h0c4,.8,7,2.61,7.72,4.72a3.57,3.57,0,0,1-.65,3.42A4.56,4.56,0,0,1,217.85,117Z"/>
                <path class="b8c440a0-4fc7-446b-b4de-d7faad7fa5be" d="M193.31,65.2s-2.1-.55-6.07,3.09a32.73,32.73,0,0,0-9.43,19.4c-.95,8.65,2.81,9.72,2.81,9.72"/>
              </g>
              <circle class="f3730786-7478-47de-b950-16285002c3b5" cx="191.5" cy="86.58" r="1.16"/>
              <ellipse class="f3730786-7478-47de-b950-16285002c3b5" cx="187.24" cy="97.7" rx="2.14" ry="1.85"/>
              <path class="f3730786-7478-47de-b950-16285002c3b5" d="M196.78,77.34s-2-.18-2.41,1c-.56,1.5.19,3.17,2.32,3.67C196.69,82,196.92,77.84,196.78,77.34Z"/>
            </g>
            <g>
              <g>
                <path class="a625b06b-67cc-4d4f-b93b-f99e6d57aadc" d="M172.44,117.55s-.16-4.45,6.1-4c-3-2.71-7.36-5.61-18.57-4.64C160.74,114.35,172.44,117.55,172.44,117.55Z"/>
                <path class="a7248bc2-0ea2-4f9e-a4a6-15a603f49360" d="M160.74,110.87c2.78,4.24,11.7,6.68,11.7,6.68a3.93,3.93,0,0,1,3.17-3.78A20,20,0,0,0,160.74,110.87Z"/>
                <path class="a394953c-cc2e-48a9-a620-1ee8207fc06e" d="M172.58,117.73l-.17,0c-.48-.13-11.79-3.28-12.57-8.75l0-.14.14,0c1.47-.12,2.88-.19,4.19-.19,7.91,0,11.63,2.34,14.47,4.87l.31.27-.4,0c-2.3-.16-4,.32-5,1.43a3.74,3.74,0,0,0-.95,2.42ZM160.12,109c.88,4.86,10.81,7.92,12.2,8.33a4,4,0,0,1,1-2.44c1-1.11,2.61-1.63,4.81-1.54-2.77-2.39-6.45-4.53-14-4.53C162.89,108.86,161.54,108.92,160.12,109Z"/>
                <path class="ed834616-e091-4c7c-80ad-9199db9cb598" d="M152.46,71.9c1.25-1.82,5.3-2.74,7,5,3,13.93.86,25.28,1.78,26.25s5.54,2.57,9.6,2.43,11.73-.42,14.88,3.2.85,6.39-1.71,6.88-5.11-1.18-7.8-3.34-12.65-3.75-15.46-2.85c.63,2.53,6.29,5.77,10.94,7s9,3.76,8.26,7.72-6.54,3.16-9.4.65a8.67,8.67,0,0,1-2.13-2.15c-1.13-2.21-2.26-2.79-5.77-3.85-3.76-1.14-5.11-3.34-7.74-5.63s-4.45-3.9-6.94-3.27-5.18,3-7.93,3.27-6-2.23-5-4.59,5-4.1,9.9-3.06,6.62-2.64,7.21-5.21,2.62-12.29,1.44-16.25c-3.87-2.78-3.77-6.09-3.6-7.18"/>
                <path class="b7e83581-522d-4f38-8144-11d38f5ee3f6" d="M152.46,71.9c1.25-1.82,5.3-2.74,7,5,3,13.93.86,25.28,1.78,26.25s5.54,2.57,9.6,2.43,11.73-.42,14.88,3.2-.34,5.2-1.84,5.26c-2.6.12-4.33-1.16-7-3.31s-13.39-4-16.21-3.11a5.25,5.25,0,0,0,.17,2.09c.91,2.49,6.36,5.57,10.87,6.78s9,3.76,8.26,7.72-5.76,1.92-8.12-1.07-3.21-4-8.64-5.64c-3.75-1.14-4.82-3.1-7.44-5.39s-5-4.7-7.51-4.08-5.79,3-8.55,3.32-5.62-.35-4.7-2.71,5-4.1,9.9-3.06a7.69,7.69,0,0,0,8.94-5.24c.59-2.57,2.4-13,1.22-17A6.09,6.09,0,0,1,149.94,77"/>
                <path class="f65aace9-6a9a-4afa-894a-0318fc0475da" d="M176.14,106.66c2.16.09,5.36.37,6.61,1.19,2.15,1.41,0,2.29-1.53,1.58a48.72,48.72,0,0,0-5.19-2.21C175.42,107,174.91,106.6,176.14,106.66Z"/>
                <path class="f65aace9-6a9a-4afa-894a-0318fc0475da" d="M172.43,117.61c1.85.53,4.63,1.58,6.16,3.39,1.68,2-.58,2.21-1.89,1a51.71,51.71,0,0,0-4.12-3.5C172,118.1,171.33,117.29,172.43,117.61Z"/>
                <path class="a394953c-cc2e-48a9-a620-1ee8207fc06e" d="M176,127.25a9.66,9.66,0,0,1-5.81-2.45c-.36-.34-1.35-1.35-1.59-1.66-1.77-2.31-1.2-2.67-5.95-4.1a13.41,13.41,0,0,1-6-4c-.56-.55-1.13-1.12-1.79-1.7-2.55-2.23-4.4-3.85-6.83-3.24a15.36,15.36,0,0,0-3.32,1.48,13.24,13.24,0,0,1-4.63,1.79,5.46,5.46,0,0,1-4.77-2.17,2.74,2.74,0,0,1-.41-2.6c.91-2.36,5-4.23,10-3.14,4.88,1,6.52-2.76,7.06-5.11.28-1.21,2.67-11.92,1.46-16.13a8.58,8.58,0,0,1-3.62-5.33,5.35,5.35,0,0,1,.13-1.94,7.94,7.94,0,0,0,3.67,7.07l0,0v0c1.24,4.16-1,14.33-1.44,16.32s-2.07,6.45-7.36,5.32c-4.9-1.06-8.87.72-9.75,3a2.47,2.47,0,0,0,.38,2.33,5.28,5.28,0,0,0,4.53,2.07,13.11,13.11,0,0,0,4.54-1.77,15.66,15.66,0,0,1,3.38-1.5c2.56-.64,4.44,1,7.06,3.3.66.58,1.24,1.15,1.8,1.7a13.09,13.09,0,0,0,5.88,3.9c5,1.51,4.24,1.69,6,4,.23.3,1.28,1.41,1.65,1.76,1.66,1.55,4.8,2.86,7,2.28a3.25,3.25,0,0,0,2.5-2.57c.91-4.59-5.4-6.81-8.16-7.55-4.69-1.26-10.38-4.5-11-7.12l0-.13.12,0c2.88-.92,12.83.67,15.58,2.87s5.31,3.77,7.7,3.31a3.8,3.8,0,0,0,3-2.43c.28-.89.28-2.35-1.35-4.22-3.09-3.55-10.66-3.29-14.73-3.15h0c-4.19.15-8.8-1.52-9.69-2.47-.35-.36-.32-1.63-.23-4.46A86.37,86.37,0,0,0,159.33,77c-1-4.45-2.57-5.79-3.75-6.13a3.11,3.11,0,0,0-3.12,1.05,2.29,2.29,0,0,1,1.38-1.26,2.85,2.85,0,0,1,1.81-.06c1.24.36,2.93,1.75,3.94,6.34a87,87,0,0,1,1.59,21.93c-.07,2.3-.12,4,.15,4.25.85.9,5.45,2.53,9.5,2.39h.06c4.1-.14,11.75-.4,14.92,3.24,1.72,2,1.71,3.54,1.41,4.5a4.08,4.08,0,0,1-3.19,2.62c-2.48.47-4.95-1-7.9-3.37-2.6-2.08-12.29-3.66-15.22-2.86.78,2.44,6.28,5.57,10.81,6.79,2.83.76,9.31,3,8.36,7.88a3.52,3.52,0,0,1-2.7,2.78A5.53,5.53,0,0,1,176,127.25Z"/>
                <path class="a394953c-cc2e-48a9-a620-1ee8207fc06e" d="M160.62,109.56a4.85,4.85,0,0,1-.14-1.34,3.1,3.1,0,0,1,.52-1.62,6,6,0,0,0-.13,2.89Z"/>
                <path class="f65aace9-6a9a-4afa-894a-0318fc0475da" d="M154.21,71.15c2.35-.93,4.7,2.71,4.53,6.77,0,.48-.35.21-.46-.34-.86-4.31-2.58-5.57-3.71-5.91C153.94,71.48,154,71.24,154.21,71.15Z"/>
              </g>
              <path class="f3730786-7478-47de-b950-16285002c3b5" d="M159.58,78.17s-2.8.71-2.32,4.38,3.48,3.57,3.48,3.57S160,78.72,159.58,78.17Z"/>
              <ellipse class="f3730786-7478-47de-b950-16285002c3b5" cx="158.47" cy="93.48" rx="1.5" ry="1.33"/>
            </g>
            <ellipse class="f3730786-7478-47de-b950-16285002c3b5" cx="94.82" cy="95.12" rx="1.68" ry="1.28" transform="translate(-31.71 50.07) rotate(-25.49)"/>
          </g>
        </g>
      </g>
    </g>
  </g>
</svg>
