<svg id="ba15fb93-4824-4f59-bece-915ebbfc462b" data-name="Layer 1" xmlns="http://www.w3.org/2000/svg" width="174.42" height="204.03" viewBox="0 0 174.42 204.03">
  <defs>
    <style>
      .f7d852c7-9d13-4c85-a705-741af1adbd68 {
        opacity: 0.5;
      }

      .e348221b-3371-4c1f-b5bf-7efe969a49d8 {
        fill: #fff;
      }

      .b3be4e45-acfa-4ad7-ab46-6e3a8a99519a {
        fill: #fe7e00;
        stroke: #543010;
        stroke-miterlimit: 10;
      }
    </style>
  </defs>
  <g>
    <path class="f7d852c7-9d13-4c85-a705-741af1adbd68" d="M89.47,201.87c-45.82,0-83.1-43.78-83.1-97.59s37.28-97.6,83.1-97.6,83.1,43.78,83.1,97.6S135.29,201.87,89.47,201.87ZM89.05,54.41C67,54.41,49,77,49,104.7S67,155,89.05,155s40.06-22.56,40.06-50.3S111.14,54.41,89.05,54.41Z"/>
    <path class="e348221b-3371-4c1f-b5bf-7efe969a49d8" d="M85,197.34c-45.82,0-83.1-43.78-83.1-97.59S39.13,2.16,85,2.16s83.1,43.78,83.1,97.59S130.77,197.34,85,197.34ZM84.52,49.88c-22.09,0-40.07,22.56-40.07,50.3s18,50.29,40.07,50.29,40.07-22.56,40.07-50.29S106.62,49.88,84.52,49.88Z"/>
    <path class="b3be4e45-acfa-4ad7-ab46-6e3a8a99519a" d="M85,9.4C43.05,9.4,9.09,49.85,9.09,99.75S43.05,190.1,85,190.1s75.86-40.45,75.86-90.35S126.85,9.4,85,9.4Zm-.43,148.31c-26.13,0-47.31-25.76-47.31-57.53S58.39,42.64,84.52,42.64s47.31,25.76,47.31,57.54S110.65,157.71,84.52,157.71Z"/>
  </g>
</svg>
