<svg id="e0f75833-e379-44d2-943f-ef55d5de8f1f" data-name="Layer 1" xmlns="http://www.w3.org/2000/svg" width="248.4" height="183.63" viewBox="0 0 248.4 183.63">
  <defs>
    <style>
      .aafe7667-3b6e-4081-98b6-5fbad2eb303a {
        opacity: 0.5;
      }

      .b18afd62-7138-4a7d-8faf-fdd76a0d3a2d {
        fill: #fff;
      }

      .f24fefc0-c90a-4442-bac5-d36602f24eaa {
        fill: #606060;
        stroke: #723e00;
        stroke-miterlimit: 10;
        stroke-width: 2px;
      }

      .a4a1d142-794a-4d5e-8943-11683112ff7f {
        fill: #39aa35;
      }

      .b83efab2-8080-4be1-b2ec-60fe041c5c40 {
        fill: #008f3c;
      }

      .e7bd7349-5ce3-41ce-9107-dfd111ed5f9d {
        fill: #4fce49;
      }

      .f1f56b55-2ebc-41e8-8cac-a85e9117b788 {
        fill: #ff8b00;
      }

      .aa8252c2-9bb2-4f11-a949-6acb62cec6b1 {
        fill: #b95133;
      }

      .b700310d-3344-4fa5-95c4-87a343be1c0e {
        fill: #8c4600;
        opacity: 0.3;
      }
    </style>
  </defs>
  <g>
    <path class="aafe7667-3b6e-4081-98b6-5fbad2eb303a" d="M231.51,180.75a36.46,36.46,0,0,1-7.66-1c-.59-.12-1.13-.24-1.6-.32-11-1.9-46.12-17.67-74.1-31.52-18.46-9.13-63.53-32.15-83.44-48.6a.39.39,0,0,0-.1-.08l-2-1.6c-2-1.62-4.24-3.45-6.43-5.43-.5-.45-1-.92-1.5-1.4-1.09-1-2.07-2-3-3a42.24,42.24,0,0,1-4.12-5.26,32.72,32.72,0,0,1-2.29-4.09,27.89,27.89,0,0,1-1.67-4.62,28.22,28.22,0,0,1,0-14.61c-5.58-3.1-11.22-6-17-8.89a95.58,95.58,0,0,0-12.34-5.48,8,8,0,0,1-4.66-4.15A8.07,8.07,0,0,1,9.4,34.4,35,35,0,0,1,13,27.68l0,0a28.65,28.65,0,0,1-2.58-3.22A8,8,0,0,1,12,13.73a47,47,0,0,1,5-3.63,8,8,0,0,1,9.25.65l.47.4c.69-.43,1.44-.85,2.24-1.25l.37-.18a19.21,19.21,0,0,1,4-1.59,7.79,7.79,0,0,1,2-.25,8,8,0,0,1,4.46,1.36,22.87,22.87,0,0,1,5.73,6.14l.48.69a122.34,122.34,0,0,0,12,14.1q1.84,1.89,3.47,3.52A30.5,30.5,0,0,1,78.48,28.4h.36c15.74.2,29.67,10,40.87,17.8l2.38,1.66c14.24,9.9,27.77,21,40.85,31.68l.29.25c4,3.28,24.16,20.71,43.21,39.28,34,33.11,38.36,43.94,38,50.72a10.92,10.92,0,0,1-4.8,8.69,14.37,14.37,0,0,1-8.17,2.27Z"/>
    <path class="b18afd62-7138-4a7d-8faf-fdd76a0d3a2d" d="M226.51,175.75a36.46,36.46,0,0,1-7.66-1c-.59-.12-1.13-.24-1.6-.32-11-1.9-46.12-17.67-74.1-31.52-18.46-9.13-63.53-32.15-83.44-48.6a.39.39,0,0,0-.1-.08l-2-1.6c-2-1.62-4.24-3.45-6.43-5.43-.5-.45-1-.92-1.5-1.4-1.09-1-2.07-2-3-3a42.24,42.24,0,0,1-4.12-5.26,32.72,32.72,0,0,1-2.29-4.09,27.89,27.89,0,0,1-1.67-4.62,28.22,28.22,0,0,1,0-14.61c-5.58-3.1-11.22-6-17-8.89A95.58,95.58,0,0,0,9.32,39.78a8,8,0,0,1-4.66-4.15A8.07,8.07,0,0,1,4.4,29.4,35,35,0,0,1,8,22.68l0,0A28.65,28.65,0,0,1,5.4,19.43,8,8,0,0,1,7,8.73,47,47,0,0,1,12,5.1a8,8,0,0,1,9.25.65l.47.4c.69-.43,1.44-.85,2.24-1.25l.37-.18a19.21,19.21,0,0,1,4-1.59,7.79,7.79,0,0,1,2-.25,8,8,0,0,1,4.46,1.36,22.87,22.87,0,0,1,5.73,6.14l.48.69a122.34,122.34,0,0,0,12,14.1q1.84,1.89,3.47,3.52A30.5,30.5,0,0,1,73.48,23.4h.36c15.74.2,29.67,10,40.87,17.8l2.38,1.66c14.24,9.9,27.77,21,40.85,31.68l.29.25c4,3.28,24.16,20.71,43.21,39.28,34,33.11,38.36,43.94,38,50.72a10.92,10.92,0,0,1-4.8,8.69,14.37,14.37,0,0,1-8.17,2.27Z"/>
    <path class="f24fefc0-c90a-4442-bac5-d36602f24eaa" d="M153.17,81c-13.28-10.87-26.56-21.75-40.64-31.55-11.22-7.8-24.51-17.85-38.79-18A23.57,23.57,0,0,0,56,39.52c-3-2.88-6-5.85-8.85-8.77a130.45,130.45,0,0,1-12.72-15C33.27,14.08,32,12,30.28,10.88a15.29,15.29,0,0,0-2.78,1.18,26,26,0,0,0-2.88,1.71c1.41,5.14,10.12,14,12.6,16.48l4.16,4.11c-4.72-3.95-9.44-7.9-14-12-2.55-2.27-5-4.6-7.58-6.85-1.28-1.13-2.34-2.53-3.64-3.6A36.57,36.57,0,0,0,12,15c1.83,2.69,5.34,5.7,7.35,7.52,5,4.52,10.21,8.91,15.59,13,.72.55,1.43,1.07,2.14,1.6-8.83-5.34-17.47-9.72-22.44-10a27,27,0,0,0-2.76,5.16,104,104,0,0,1,13.38,5.91c6.44,3.26,12.9,6.57,19.21,10.14q2.13,1.2,4.23,2.43l-.16.33a19.92,19.92,0,0,0-2.15,15.72A24.18,24.18,0,0,0,51.47,76c.38.46.79.92,1.2,1.37C56.37,81.41,61,84.92,64.73,88h0s0,0,.08.06c30.76,25.41,136.34,75.39,153.79,78.4,3.1.53,8.69,2.31,11.62.34C242.51,158.57,162.49,88.61,153.17,81Z"/>
    <g>
      <g>
        <g>
          <path class="a4a1d142-794a-4d5e-8943-11683112ff7f" d="M66.83,62c-1-.66-1.92-1.32-2.92-1.95C57.52,56,51.1,52,44.49,48.26c-6.31-3.57-12.77-6.88-19.21-10.14A104,104,0,0,0,11.9,32.21a27,27,0,0,1,2.76-5.16c5,.29,13.61,4.67,22.44,10-.71-.53-1.42-1.05-2.14-1.6-5.38-4.08-10.62-8.47-15.59-13-2-1.82-5.52-4.83-7.35-7.52a36.57,36.57,0,0,1,4.12-3c1.3,1.07,2.36,2.47,3.64,3.6,2.56,2.25,5,4.58,7.58,6.85,4.58,4.08,9.3,8,14,12l-4.16-4.11C34.74,27.78,26,18.91,24.62,13.77a26,26,0,0,1,2.88-1.71,15.29,15.29,0,0,1,2.78-1.18c1.7,1.15,3,3.2,4.18,4.86a130.45,130.45,0,0,0,12.72,15c4.22,4.31,8.67,8.77,13.23,12.81,2.18,1.94,4.47,3.76,6.63,5.71,1.74,1.57,3.83,4.31,6,5.38.49.25,0,.53-.36.42-1.44-.53-2.84-1.13-4.21-1.78.22.63-.36,1.05-1.08,1.23.05.06.11.1.16.15,1,1,.63,1.83-.21,2.19a1.81,1.81,0,0,1,.32,1.34c.65.38,1.3.76,1.93,1,3,1.42.13,3.45-1.73,3A4.48,4.48,0,0,1,66.83,62Z"/>
          <path class="b83efab2-8080-4be1-b2ec-60fe041c5c40" d="M59.61,57.07c-5-3.09-10-6.15-15-9-6.3-3.56-12.77-6.87-19.22-10.16A97.59,97.59,0,0,0,12.2,32.06l.24-.62c3.58,1.33,7.11,2,10.67,3.37a120,120,0,0,1,13.53,6.48,162.15,162.15,0,0,1,23.3,15.3C60.24,56.83,59.9,57.05,59.61,57.07Z"/>
          <path class="b83efab2-8080-4be1-b2ec-60fe041c5c40" d="M12.35,15c.21-.19.38-.36.62-.54,8,6.23,15.27,13,23.14,19.44,5.43,4.4,11,8.6,16.63,12.74,4.89,3.61,10.37,6.73,14.94,10.72.54.47-.54.91-.92.71C55.36,52.32,43.23,41.74,33.21,33.9,25,27.47,14.59,18.35,12.35,15Z"/>
          <path class="b83efab2-8080-4be1-b2ec-60fe041c5c40" d="M42.07,35.07C36.25,28.88,26.5,19.22,24.89,13.88a5.15,5.15,0,0,0,.45-.32c13.22,14.8,28.53,27.21,43,40.72.44.42-.45.83-.79.61C58.47,49.07,50.24,42.07,42.07,35.07Z"/>
        </g>
        <path class="e7bd7349-5ce3-41ce-9107-dfd111ed5f9d" d="M35.43,22c-2.21-2.23-5.6-5.86-6.76-9.28a9,9,0,0,1,1.51-.45c6.22,6.81,11.94,14.13,18.34,20.84.21.2-.23.37-.39.24C43.73,29.77,39.45,26.06,35.43,22Z"/>
        <path class="e7bd7349-5ce3-41ce-9107-dfd111ed5f9d" d="M44.53,39.27c-.54-.36-1.06-.74-1.6-1.09-1.4-1.16-2.76-2.38-4.19-3.5-3-2.31-6-4.49-9-6.83S24.18,23.29,21.39,21c-2.27-1.91-4.2-4.17-6.34-6.18.57-.41,1.16-.81,1.77-1.19A40.14,40.14,0,0,0,20.33,17a5.38,5.38,0,0,0,.49.47c3.11,2.86,6.2,5.73,9.42,8.5,5.35,4.63,10.74,9.24,16,14,.16.15-.11.31-.29.29A11.19,11.19,0,0,0,44.53,39.27Z"/>
        <path class="e7bd7349-5ce3-41ce-9107-dfd111ed5f9d" d="M15.6,28.45a89.79,89.79,0,0,1,11.25,4.28c2,1.66,4,3.29,5.87,5.07C31,37,29.29,36.17,27.54,35.43c-1.37-.58-2.76-1.16-4.17-1.68a65.82,65.82,0,0,0-8.29-2.92,1.62,1.62,0,0,1-.37-.23A6.4,6.4,0,0,1,15.6,28.45Z"/>
      </g>
      <g>
        <path class="f1f56b55-2ebc-41e8-8cac-a85e9117b788" d="M64.73,88c-6.71-5.54-16-12.32-18.32-21.3-2.28-8.8,2.34-17.26,7.26-24.28C58.34,35.78,65.51,31.3,73.74,31.4c14.28.18,27.57,10.23,38.79,18,14.08,9.8,27.36,20.68,40.64,31.55,9.32,7.63,89.34,77.59,77.05,85.86-2.93,2-8.52.19-11.62-.34-17.45-3-123-53-153.79-78.4C64.77,88.07,64.76,88.05,64.73,88Z"/>
        <path class="aa8252c2-9bb2-4f11-a949-6acb62cec6b1" d="M74.56,69.76c2.83-6.56,7.34-12.12,12.31-17.2,3.16-3.21,7.74-8.2,12.57-8.63.12,0,.25.12.11.2-10.39,5.51-17.27,16.56-23.62,26C75.53,70.66,74.2,70.56,74.56,69.76Z"/>
        <path class="aa8252c2-9bb2-4f11-a949-6acb62cec6b1" d="M77.71,92.61a58.08,58.08,0,0,1,12-19.46c.12-.12.49,0,.35.15a103.49,103.49,0,0,0-6.08,9.32C82.08,86,81,89.61,78.86,92.8,78.64,93.13,77.48,93.21,77.71,92.61Z"/>
        <path class="aa8252c2-9bb2-4f11-a949-6acb62cec6b1" d="M85.42,93.41a20.37,20.37,0,0,1,2.24-4c1-1.38,2.25-2.49,2.88-4.09,0-.12.35-.15.3,0a9.63,9.63,0,0,1-1.66,3.13c-1.09,1.61-1.8,3.42-2.83,5.07C86.17,93.87,85.23,93.88,85.42,93.41Z"/>
        <path class="aa8252c2-9bb2-4f11-a949-6acb62cec6b1" d="M108.76,87.07a68.29,68.29,0,0,1,17.18-19.24c.18-.15.68,0,.43.22-5.8,6.26-11.11,12.87-16.61,19.42C109.46,87.79,108.45,87.61,108.76,87.07Z"/>
        <path class="aa8252c2-9bb2-4f11-a949-6acb62cec6b1" d="M125.05,78c1.77-2.41,4.44-3.86,6.53-5.92.07,0,.27,0,.21.09a22.08,22.08,0,0,1-5.65,6.26C125.81,78.67,124.6,78.58,125.05,78Z"/>
        <path class="aa8252c2-9bb2-4f11-a949-6acb62cec6b1" d="M135.68,126.09a38.43,38.43,0,0,1,2.5-6c1-2.07,2.45-3.84,3.33-5.94.06-.15.45-.14.42.07a33.74,33.74,0,0,1-2.26,6.11,40.73,40.73,0,0,1-2.69,6C136.71,126.73,135.5,126.75,135.68,126.09Z"/>
        <path class="aa8252c2-9bb2-4f11-a949-6acb62cec6b1" d="M170.28,113.35a10.12,10.12,0,0,1,3.56-3.87h0a.66.66,0,0,0,.22-.12h0l.06,0h0c.2-.06.54,0,.41.27-.38.71-1,1.29-1.5,2s-1,1.39-1.59,2.09C171.13,114.09,169.88,114,170.28,113.35Z"/>
        <path class="aa8252c2-9bb2-4f11-a949-6acb62cec6b1" d="M178.68,126.46c.83-1.47,7.78-10.29,8.93-9.07a.1.1,0,0,1-.05-.1l0-.06c.16-.43,1-.23.75.11a70.73,70.73,0,0,1-8.68,9.48C179.36,127.14,178.34,127,178.68,126.46Z"/>
        <path class="aa8252c2-9bb2-4f11-a949-6acb62cec6b1" d="M184.67,149.76c.38-2.42,2.81-3.85,3.8-5.92.05-.12.3-.1.29,0a7.93,7.93,0,0,1-1,2.92c-.62,1.11-.94,2.44-2,3.25C185.45,150.28,184.57,150.38,184.67,149.76Z"/>
        <path class="aa8252c2-9bb2-4f11-a949-6acb62cec6b1" d="M191.85,152.76c.09-1.74,1.26-3.26,2.06-4.77.65-1.22,2.07-3.87,3-4.08a.07.07,0,0,1-.08-.12l.16-.21c.1-.16.55-.19.49.08a23.25,23.25,0,0,1-1.76,4.59c-.68,1.68-1.24,3.5-2.67,4.66C192.79,153.14,191.8,153.34,191.85,152.76Z"/>
      </g>
      <path class="b700310d-3344-4fa5-95c4-87a343be1c0e" d="M230.21,166.82c-2.93,2-8.52.19-11.62-.34-17.45-3-123-53-153.79-78.4,0,0,0,0-.07,0-6.71-5.54-16-12.32-18.32-21.3-2.28-8.8,1.33-14.32,3.1-17.36C49.51,49.38,73,100.32,230.21,166.82Z"/>
    </g>
  </g>
</svg>
