<svg id="f054db2a-2093-4e14-83b0-7ebd3d777996" data-name="Layer 1" xmlns="http://www.w3.org/2000/svg" width="188.3" height="198.03" viewBox="0 0 188.3 198.03">
  <defs>
    <style>
      .ec02efdf-62bb-4392-b3d1-eecdcfbee584 {
        opacity: 0.5;
      }

      .f33750a2-2fa0-4045-af78-b6b308229e56 {
        fill: #fff;
      }

      .febc7873-a61b-4e8f-bd75-ed928fcf7ed8 {
        fill: #052d05;
      }

      .ab8d7696-0b61-495f-a900-4a759d6efea6 {
        fill: #0b4712;
      }

      .b8b97465-7841-4eb5-be83-f5210a60faca {
        fill: #6da541;
      }

      .aa096e58-f5ff-42c7-bd9a-2ff2487e9ee3 {
        fill: #5c8c31;
      }

      .b610eaef-bf68-4050-9266-b5f746d00a56 {
        fill: #547c29;
      }

      .ad85af47-ef96-4e88-87df-26741c89ee96 {
        fill: #063508;
      }

      .ae464611-b170-43fc-9dc6-d36701038222 {
        fill: #155918;
      }

      .ee1279e8-f3a6-4fcd-8aec-ada7c5e00900 {
        fill: #80b54e;
      }

      .f37a95ce-ac3a-483e-9de4-a83f5b4b5c8a {
        fill: #46590b;
      }
    </style>
  </defs>
  <g>
    <path class="ec02efdf-62bb-4392-b3d1-eecdcfbee584" d="M183.72,80.79c-.08-.41-.17-.82-.25-1.18a71,71,0,0,0-10.53-24.53l-.05-.07a85,85,0,0,0-15.55-17.13,11.3,11.3,0,0,0,.51-1.12,1,1,0,0,1,0-.1,14.94,14.94,0,0,0,.54-9.12,16.43,16.43,0,0,0-3.78-7l-.15-.16a19.32,19.32,0,0,0-2.42-2.19c-.44-.33-.83-.58-1.09-.76l-.14-.08a3,3,0,0,0-.33-.21l-.13-.08c-.27-.16-.72-.43-1.32-.72l-.43-.21-.3-.13-.7-.31-.32-.12-1-.36c-.51-3.53-3.18-7.06-8.47-7.56-.37,0-.73,0-1.08,0a8.67,8.67,0,0,0-9,7.92l-.25,2.61c0,.41-.08.87-.12,1.36l0,.23c-1.22-.51-2.44-1-3.65-1.44A89.13,89.13,0,0,0,107.9,14c-1.23-.2-2.48-.38-3.83-.54l-.85-.09-.32,0c-.88-.1-1.77-.18-2.66-.24l-1.06,0-.39,0C98,13,97.18,13,96.38,13H94.84c-.79,0-1.57,0-2.38,0l-.59,0c-.31,0-.62,0-.92.06l-.41,0-1.47.11c-.68.06-1.36.14-2,.22l-.35,0-1.16.15c-.72.1-1.43.22-2.23.36l-.35.06-1,.16c-1.24.24-2.38.49-3.51.77-1.54.38-3.14.83-4.73,1.34A95.31,95.31,0,0,0,20.87,59.14l-.13.2a96.25,96.25,0,0,0-13.24,52,91,91,0,0,0,6,29.54c.56,1.47,1.16,2.92,1.78,4.31s1.33,2.86,2,4.24A84.78,84.78,0,0,0,31.71,169.6l.25.26c1.49,1.53,3,3,4.57,4.35,1.37,1.22,2.83,2.42,4.33,3.58a84,84,0,0,0,8.83,5.93c2.21,1.3,4.53,2.51,6.88,3.61,1.69.78,3.42,1.52,5.14,2.18s3.34,1.24,5,1.77l.77.24a83.83,83.83,0,0,0,17.89,3.36c2.21.18,4.46.27,6.68.27h0a86.63,86.63,0,0,0,11.25-.74,90.57,90.57,0,0,0,20.46-5.16,95,95,0,0,0,38.14-26.92,98.52,98.52,0,0,0,10.32-14.49A95.41,95.41,0,0,0,183.72,80.79Z"/>
    <path class="f33750a2-2fa0-4045-af78-b6b308229e56" d="M179,76.09c-.08-.41-.17-.82-.25-1.18a71.19,71.19,0,0,0-10.53-24.53l-.05-.07a85,85,0,0,0-15.55-17.13c.19-.36.35-.74.51-1.12a1,1,0,0,1,0-.1,15,15,0,0,0,.54-9.12,16.43,16.43,0,0,0-3.78-7l-.15-.16a18.57,18.57,0,0,0-2.42-2.19c-.44-.33-.83-.58-1.09-.76l-.14-.08a3,3,0,0,0-.33-.21l-.13-.08c-.27-.16-.72-.43-1.32-.72l-.43-.21-.3-.13-.7-.31-.32-.12-1.05-.36c-.51-3.53-3.18-7.06-8.47-7.56-.37,0-.73-.05-1.08-.05a8.67,8.67,0,0,0-9,7.92l-.25,2.61c0,.41-.08.87-.12,1.36l0,.23c-1.22-.51-2.44-1-3.65-1.44A89.13,89.13,0,0,0,103.2,9.3c-1.23-.2-2.48-.38-3.83-.54-.28,0-.57-.06-.85-.09l-.32,0c-.88-.1-1.77-.18-2.66-.24l-1.06-.05-.39,0c-.8,0-1.61-.07-2.41-.08H90.14c-.79,0-1.57,0-2.38.05l-.59,0c-.31,0-.62,0-.92.06l-.41,0-1.47.11c-.68.06-1.36.14-2,.22l-.35,0-1.16.15c-.72.1-1.43.22-2.23.36l-.35.06-1,.16c-1.24.24-2.38.49-3.51.77-1.54.38-3.14.83-4.73,1.34A95.31,95.31,0,0,0,16.17,54.44l-.13.2a96.25,96.25,0,0,0-13.24,52,91,91,0,0,0,6,29.54c.56,1.47,1.16,2.92,1.78,4.31s1.33,2.86,2,4.24A84.78,84.78,0,0,0,27,164.9l.25.26c1.49,1.53,3,3,4.57,4.35,1.37,1.22,2.83,2.42,4.33,3.58A84,84,0,0,0,45,179c2.21,1.3,4.53,2.51,6.88,3.61,1.69.78,3.42,1.52,5.14,2.18s3.34,1.24,5,1.77l.77.24a83.83,83.83,0,0,0,17.89,3.36c2.21.18,4.46.27,6.68.27h0a86.63,86.63,0,0,0,11.25-.74,90.57,90.57,0,0,0,20.46-5.16,95,95,0,0,0,38.14-26.92,98.52,98.52,0,0,0,10.32-14.49A95.41,95.41,0,0,0,179,76.09Z"/>
    <g id="b7f08b85-e24b-4be6-b4ff-dccb922940a0" data-name="Wattermelon">
      <path class="febc7873-a61b-4e8f-bd75-ed928fcf7ed8" d="M161.05,139.34a90,90,0,0,1-9.53,13.39,87.13,87.13,0,0,1-35.11,24.79,82,82,0,0,1-18.75,4.73,79.39,79.39,0,0,1-16.38.44A76.14,76.14,0,0,1,65,179.62l-.7-.22q-2.29-.72-4.57-1.6c-1.57-.6-3.13-1.27-4.68-2q-3.18-1.49-6.27-3.28a77.63,77.63,0,0,1-8-5.4q-2-1.57-3.94-3.25c-1.45-1.27-2.83-2.6-4.16-4l-.24-.25a77.06,77.06,0,0,1-13.12-18.41c-.66-1.27-1.28-2.57-1.86-3.87s-1.12-2.62-1.63-3.95h0a83.8,83.8,0,0,1-5.48-27.11h0A88.61,88.61,0,0,1,22.54,58.44l.05-.09h0A87.93,87.93,0,0,1,71.36,18.79q2.11-.67,4.23-1.2a63,63,0,0,1,11.94-1.75,66.46,66.46,0,0,1,14.42.88,79.77,79.77,0,0,1,14.45,3.9c2.29.84,4.56,1.79,6.82,2.83q4.16,1.9,8.23,4.21l1.47.85c1.67,1,3.31,2,4.91,3q2.82,1.83,5.46,3.81c1.42,1.06,2.81,2.16,4.15,3.28A77.18,77.18,0,0,1,162,54.58h0a63.26,63.26,0,0,1,9.42,21.94c.08.35.16.7.23,1A87.89,87.89,0,0,1,161.05,139.34Z"/>
      <path class="ab8d7696-0b61-495f-a900-4a759d6efea6" d="M151.45,133.53a86.49,86.49,0,0,1-9.08,12.76c-1.29,1.5-2.61,2.94-4,4.32a82.75,82.75,0,0,1-29.48,19.3q-3.57,1.36-7.23,2.37A77.7,77.7,0,0,1,91,174.42l-1.4.17a75,75,0,0,1-14.21.25c-1.57-.13-3.13-.3-4.7-.53a70.53,70.53,0,0,1-10.82-2.4l-.66-.2-.87-.28c-1.17-.39-2.33-.8-3.48-1.25q-2.26-.87-4.47-1.9-3-1.41-6-3.12c-.63-.37-1.25-.74-1.86-1.13a70,70,0,0,1-5.79-4c-1.06-.82-2.1-1.66-3.1-2.52l-.66-.58q-2.07-1.82-4-3.77l-.23-.24a73.16,73.16,0,0,1-11.43-15.51c-.58-1.3-1.12-2.62-1.63-3.95h0a83.8,83.8,0,0,1-5.48-27.11h0A88.61,88.61,0,0,1,22.54,58.44l.05-.09h0A87.93,87.93,0,0,1,71.36,18.79q2.11-.67,4.23-1.2a63,63,0,0,1,11.94-1.75,67.38,67.38,0,0,1,7.6.83,76.61,76.61,0,0,1,13.77,3.72c2.18.8,4.34,1.7,6.5,2.69,1.67.77,3.34,1.6,5,2.47.95.5,1.9,1,2.84,1.55.47.26.93.53,1.4.81l.12.06q2.33,1.38,4.55,2.82l1.34.89q2,1.34,3.87,2.75l.06,0q1.71,1.29,3.36,2.64l.53.44c.54.45,1.06.9,1.58,1.36,1.78,1.57,3.48,3.2,5.08,4.89a68.16,68.16,0,0,1,7.22,9h0a60.59,60.59,0,0,1,9,20.91c.08.33.15.66.22,1q.58,2.9,1,5.84h0A84.15,84.15,0,0,1,151.45,133.53Z"/>
      <path class="b8b97465-7841-4eb5-be83-f5210a60faca" d="M143.26,96.67c-3,8.43-.76,16.89-7.78,23.62.17-.16-.39.65-.35.56-6.11,10.06-4.71,24-13.93,33.68-3,3.13-6.74,7-10.31,9.49-2.88,1.89-6,3.73-8.16,6.45a7.32,7.32,0,0,0-1,1.81A77.7,77.7,0,0,1,91,174.42l-1.4.17a6.48,6.48,0,0,0,1.13-1.82c3-7.79,9.72-10.35,13.93-17.57,3.37-6.58,4.67-11.46,8.32-18.08,3.23-6,.49-14,7.2-17.82,2.53-1.52,3.5-3.84,2.3-6.56-.86-6.35,2.13-6.08,6-11,2.9-2.56-1.08-7.57-.89-10.57.18-2.57,2.49-4.77,3.87-6.8,1.82-2.67,2.55-4.62.79-8-2.51-5.86,3.17-7.87,2.09-12.15a134.24,134.24,0,0,1-1-16.16c.07-1.82.3-2.83.81-2.23a19.57,19.57,0,0,1,2.12,3.1c4.36,7.63,8.21,22,5.87,29.67C141.13,84.69,144.81,90.29,143.26,96.67Z"/>
      <path class="aa096e58-f5ff-42c7-bd9a-2ff2487e9ee3" d="M59.91,171.91a70.53,70.53,0,0,0,10.82,2.4c-1.67,1.61-3.83,3.68-5.73,5.31l-.7-.22q-2.29-.72-4.57-1.6c-1.57-.6-3.13-1.27-4.68-2,1-1.32,2.2-2.84,3.33-4.38l.87.28Z"/>
      <path class="aa096e58-f5ff-42c7-bd9a-2ff2487e9ee3" d="M101.68,172.28c-1.27,3.17-.16,6.5-3.34,9.38-.17.16-.4.36-.68.59a79.39,79.39,0,0,1-16.38.44c1.36-3.3,6-5.3,8.36-8.1l1.4-.17A77.7,77.7,0,0,0,101.68,172.28Z"/>
      <path class="b8b97465-7841-4eb5-be83-f5210a60faca" d="M123.59,70.76c-.52,3.88-.49,11.84.3,15.59s-6,10.62-7.71,13.84c-3.41,5.6,0,7-3.18,13.28-2,3.12-7.9,2.63-10.28,14.13-3.1,13.94-7.11,17.2-12.31,23.29C81.58,161,76.81,168.8,72.74,172.44c-.5.45-1.2,1.11-2,1.87a70.53,70.53,0,0,1-10.82-2.4l-.66-.2-.87-.28A31.92,31.92,0,0,0,61.19,167c1.54-2.8,4.8-4.78,6.2-7.65,1.57-2.57,4.88-3.09,6.83-5.51,3.39-4.17.85-13.85,5.21-16.17,5-2.69,9.94-.94,7.81-8.84-1.06-3.81,1.92-6.19,4.05-8.66,3.42-4-.77-8.57,2.53-12.09,3.44-3.75,3.92-1.42,5.25-6.84a31.65,31.65,0,0,1,4.07-10.35c3.31-5,6-5.85,7.25-11.67,1.43-6.74,4.12-13.32,9.92-18.68,4.8-4.43,5.94-11.12,7.26-15.11l.09-.26c.88-2.53,1.33-1.36,1.52,1.15h0c.31,4.16-.09,12-.48,12.9C127.44,63.08,124.17,66.74,123.59,70.76Z"/>
      <path class="b8b97465-7841-4eb5-be83-f5210a60faca" d="M134.58,34.47a20.81,20.81,0,0,0-2,2.11l-.08.1c-1.75,2.12-2.3,1-2.23-1.32a29.89,29.89,0,0,1,.4-3.68q2,1.34,3.87,2.75Z"/>
      <path class="aa096e58-f5ff-42c7-bd9a-2ff2487e9ee3" d="M42.6,164a12.86,12.86,0,0,1-1.85,3.1q-2-1.57-3.94-3.25c-1.45-1.27-2.83-2.6-4.16-4,.32-.78.68-1.6,1.06-2.43,1,.86,2,1.7,3.1,2.52A70,70,0,0,0,42.6,164Z"/>
      <path class="b8b97465-7841-4eb5-be83-f5210a60faca" d="M122.33,41.7c-2,1.66-6.87,4.29-8.5,7.76-.23.48-.47,1-.72,1.42h0c-3.86,7.32-9.63,12-14.83,18C93.61,74.24,94.13,83,87.4,86.64c-2.72,1.5-5.68,3.17-7.3,5.9-.91,1.54-.8,3.34-.76,5.06,0,2,0,3.88-1.84,5.2h0l0,0-.08,0c-7.35,3.93-8,8-10.65,15.8C63.89,127.33,60,128.63,53,133.55c-4.93,3.94-2.31,12.62-5.09,17.72S44,160.82,42.6,164a70,70,0,0,1-5.79-4c-1.06-.82-2.1-1.66-3.1-2.52,1.35-2.93,2.91-5.87,3.61-6.54,5.17-5.53-2.41-11.14,1.26-17.41,2.91-4.9,4.73-10.61,7.73-15,1.87-2.77,5.74-3.38,7.35-6.21,1.28-2.22.68-4.68.29-7.13a9.71,9.71,0,0,1,.13-4.91c1.12-3.07,6.78-3.47,9-5.71,2.58-2.62,4-6.12,5.39-9.48C71.2,78.29,74.26,73,79.92,68.17c2.48-2.12,5.23-5.42,7.83-7.21C91,58.71,95.59,59.23,98,55.88c1.7-3,8.24-8.26,14.22-11.94a33.38,33.38,0,0,1,8.36-4,4.2,4.2,0,0,1,1.56-.11C123.74,40.15,123.47,40.77,122.33,41.7Z"/>
      <path class="b8b97465-7841-4eb5-be83-f5210a60faca" d="M118.54,37.22c-1.77.6-5.11,1.27-8.13,2.18a25,25,0,0,0-3.67,1.39c-6.27,3.23-8.81,6.63-15.22,9.56a11.5,11.5,0,0,0-2.25,3.55c-1.94,3.76-5.76,4.52-9,6.58-4.4,2.67-8.65,12.36-13,15.19l0,0a22,22,0,0,0-5,2.38c-.51.32-1,.67-1.48,1a19.36,19.36,0,0,0-4.32,3.54c-.41.55-.8,1.1-1.18,1.66s-.76,1.14-1.2,1.69l-1.58,1.46c-.51.49-1,1-1.52,1.48a90.62,90.62,0,0,0-11,12.73,7.25,7.25,0,0,1-1.39,1.5c-1.56,1.33-3.57,2.47-4.26,4.65-.24.65-.44,1.32-.62,2-1.1,4.16-1.56,8.63-6.55,12.22-4.51,3.35-5.46,4.52-5.55,11.53a15.19,15.19,0,0,1-2.36,7.69,77,77,0,0,1-3.49-7.82h0c.38-1.63.83-3.35,1.36-5.07,2.31-8.11,6.15-16.24,6.37-18,.65-6,.75-9.81,4.69-14.17l.23-.25a25.37,25.37,0,0,0,1.89-2.26c2.77-5,6.65-9.11,10.06-13.56a22.53,22.53,0,0,0,3.8-7.54q.38-1.2.69-2.46a3.94,3.94,0,0,1,3-3.19c1-.31,1.94-.52,2.77-.7,5.92-1.15,7.25,1.37,9.73-6.71A12.44,12.44,0,0,1,72,50.32c8.71-.49,10.86-4.18,16.69-9.62,3.23-3.21,11-5.63,18.28-6.23a28,28,0,0,1,11,.94,10.41,10.41,0,0,1,1.51.66C120.17,36.46,119.69,36.83,118.54,37.22Z"/>
      <path class="b8b97465-7841-4eb5-be83-f5210a60faca" d="M118.51,33.89l-.06,0a67,67,0,0,0-15.9-3.09,17.93,17.93,0,0,0-4.44.24c-3.73.83-6.88,1.11-8.67.67-7.58-1.3-12.51,3.42-19,5.06-5.63,1.57-6.55,3.9-11.14,7.41a52.67,52.67,0,0,1-9.22,5.49c-4.73,2.49-2.64,2.28-5.48,6.15-2.53,3.71-7.24,1.86-10,6.18-1.68,2.68-2.92,6-6.32,6.86-7.08,2-4.31,5.25-4.77,10.39a5.21,5.21,0,0,1-1,2.53c-2.31,3.35-7.84,6.48-9.11,10.77-.9,3,.22,5.79-.76,8.66-.73,1.71-1.58,3.41-2.35,5.15A88.61,88.61,0,0,1,22.54,58.44l.05-.09h0c1-.86,2.09-1.74,3.3-2.66,9.85-6.84,8.89-11.23,11.68-14.11,5.88-4.74,7.37-2.19,12.75-6.43,3-2.2,10.38-9.11,14.21-8.89a117.84,117.84,0,0,0,15.92-.65c22.07-3.24,30.4,4.57,34.58,5.41a11.25,11.25,0,0,1,4.58,2.11C121.05,34.24,121.22,35.12,118.51,33.89Z"/>
      <path class="b8b97465-7841-4eb5-be83-f5210a60faca" d="M126.42,33.81c0,1.1-.45,1.35-1.08-.32l-.24-.71a42,42,0,0,0-4.7-7.23c.95.5,1.9,1,2.84,1.55.47.26.93.53,1.4.81l.12.06a2.11,2.11,0,0,0,.16.3A11.09,11.09,0,0,1,126.42,33.81Z"/>
      <path class="aa096e58-f5ff-42c7-bd9a-2ff2487e9ee3" d="M161,126.74c-.35,3.2,1.92,7.73.26,10.75-2.14,3.84-6.48,4.31-8.38,8.29-1.06,2.18-.89,4.59-1.32,6.95a87.13,87.13,0,0,1-35.11,24.79l.12-.14c2.7-3,5.61-6.11,6.79-7.3,4-4,11.7-5.93,13.51-11.89.71-3,1.09-5.41,1.56-7.58,1.37-1.38,2.69-2.82,4-4.32a86.49,86.49,0,0,0,9.08-12.76,84.15,84.15,0,0,0,11.06-53,13.34,13.34,0,0,1,1.62,3.12c1.06,3.09,1.45,7.61,2,11,1.3,7.65.28,14.15-2.16,21.25C162.77,119.38,161.39,123,161,126.74Z"/>
      <path class="b8b97465-7841-4eb5-be83-f5210a60faca" d="M151.45,133.53a86.49,86.49,0,0,1-9.08,12.76c-1.29,1.5-2.61,2.94-4,4.32a26,26,0,0,1,4.88-10.85c4.31-6.42,6.75-9.7,5.59-17.33v0c-.23-3.9,3.83-5.11,4.67-8.8.68-3-.09-6.14-.89-8.89-2.06-6.74.58-11.81-.32-18.77-1.22-8.19-3.45-12.92-5.2-21.58-1.16-5.75-5-11.46-7.48-15-1.7-2.41-2.77-3.82-1.95-3.57a15.61,15.61,0,0,1,4.11,2.87c4.47,3.89,10.57,10.64,12.08,14.09,2.17,4.78,4.69,7.67,5,10.71.42,3,2.19,4.84,3.68,7.06h0A84.15,84.15,0,0,1,151.45,133.53Z"/>
      <path class="aa096e58-f5ff-42c7-bd9a-2ff2487e9ee3" d="M132.92,28.51c1.67,1,3.31,2,4.91,3-1.17,1-2.3,2-3.25,2.93l-.06,0q-1.87-1.41-3.87-2.75c.22-1.31.5-2.7.8-4Z"/>
      <path class="aa096e58-f5ff-42c7-bd9a-2ff2487e9ee3" d="M147.44,38.63a57.27,57.27,0,0,0-7.39.28c-.52-.46-1-.91-1.58-1.36l-.53-.44c1.54-.6,3.39-1.2,5.35-1.76C144.71,36.41,146.1,37.51,147.44,38.63Z"/>
      <path class="aa096e58-f5ff-42c7-bd9a-2ff2487e9ee3" d="M123.22,23.45A34.27,34.27,0,0,0,124.76,28l-.12-.06c-.47-.28-.93-.55-1.4-.81-.94-.53-1.89-1.05-2.84-1.55-1.25-1.65-2.63-3.38-4-4.93C118.69,21.46,121,22.41,123.22,23.45Z"/>
      <path class="b8b97465-7841-4eb5-be83-f5210a60faca" d="M140.05,38.91c-1.31.12-2.47.25-3.42.35-1.95.21-3,.28-2.49-.2a5.81,5.81,0,0,1,1.14-.78,23.8,23.8,0,0,1,2.66-1.17l.53.44C139,38,139.53,38.45,140.05,38.91Z"/>
      <path class="aa096e58-f5ff-42c7-bd9a-2ff2487e9ee3" d="M171.42,76.52l-.64-.32c-3.93-2-4-11-8.26-14.53-2.17-1.8-4.78-2-6.92-3.52a60.2,60.2,0,0,0-3.25-5.39h0a68.16,68.16,0,0,0-7.22-9,70,70,0,0,1,6.44,3.25c2.64,1.29,6.22,4,10.43,7.53h0A63.26,63.26,0,0,1,171.42,76.52Z"/>
      <path class="b8b97465-7841-4eb5-be83-f5210a60faca" d="M155.6,58.15a6.59,6.59,0,0,1-.74-.59c-2.23-2.31-4.27-5-6.85-7.06-2.16-1.77-4-3.22-5.59-4.4-5.86-4.43-7.55-5.11-4.94-4.91a10.42,10.42,0,0,1,1.82.38,44.61,44.61,0,0,1,5.83,2.23,68.16,68.16,0,0,1,7.22,9h0A60.2,60.2,0,0,1,155.6,58.15Z"/>
      <path class="b8b97465-7841-4eb5-be83-f5210a60faca" d="M122.88,33.76c-.18.12-.65-.28-1.43-.88a19.12,19.12,0,0,0-4.57-2.73c-3.74-1.6-7.57-3.39-9.08-4.12-5-2.55-12.76-7.85-19-7.68-7.09.66-7.84.85-13.22-.76A64.46,64.46,0,0,1,102,16.72c4.56,3.05,8.27,6.53,12.68,8,4,1.35,8.07,6.27,8.43,8.27C123.13,33.36,123.08,33.63,122.88,33.76Z"/>
      <path class="febc7873-a61b-4e8f-bd75-ed928fcf7ed8" d="M142.29,48.09a1.83,1.83,0,0,1-.49.55,15.61,15.61,0,0,0-4.11-2.87c-.82-.25.25,1.16,1.95,3.57a12.38,12.38,0,0,1-3.42-.33,19.57,19.57,0,0,0-2.12-3.1c-.51-.6-.74.41-.81,2.23a32,32,0,0,1-4.11-1.82h0c-.19-2.51-.64-3.68-1.52-1.15l-.09.26a34.75,34.75,0,0,1-5.24-3.73c1.14-.93,1.41-1.55-.23-1.85a4.2,4.2,0,0,0-1.56.11,12.92,12.92,0,0,1-2-2.74c1.15-.39,1.63-.76.95-1.15a10.41,10.41,0,0,0-1.51-.66,2.11,2.11,0,0,1,.26-1.26,1.94,1.94,0,0,1,.21-.29l.06,0c2.71,1.23,2.54.35,1.1-.76a6,6,0,0,1,1.84-.25c.78.6,1.25,1,1.43.88s.25-.4.18-.76a18.42,18.42,0,0,1,2.28.49c.63,1.67,1,1.42,1.08.32a32.39,32.39,0,0,1,3.83,1.55c-.07,2.36.48,3.44,2.23,1.32l.08-.1.25.14c.87.5,1.69,1,2.47,1.56a5.81,5.81,0,0,0-1.14.78c-.5.48.54.41,2.49.2a26.29,26.29,0,0,1,2.67,2.31,10.42,10.42,0,0,0-1.82-.38c-2.61-.2-.92.48,4.94,4.91A2.53,2.53,0,0,1,142.29,48.09Z"/>
      <path class="b610eaef-bf68-4050-9266-b5f746d00a56" d="M136.63,39.26c-1.95.21-3,.28-2.49-.2a5.81,5.81,0,0,1,1.14-.78C135.75,38.61,136.2,38.93,136.63,39.26Z"/>
      <path class="b610eaef-bf68-4050-9266-b5f746d00a56" d="M118.54,37.22a4.78,4.78,0,0,1-.56-1.81,10.41,10.41,0,0,1,1.51.66C120.17,36.46,119.69,36.83,118.54,37.22Z"/>
      <path class="b610eaef-bf68-4050-9266-b5f746d00a56" d="M118.51,33.89l-.06,0a2.49,2.49,0,0,1,1.16-.73C121.05,34.24,121.22,35.12,118.51,33.89Z"/>
      <path class="b610eaef-bf68-4050-9266-b5f746d00a56" d="M122.33,41.7A22.92,22.92,0,0,1,120.54,40a4.2,4.2,0,0,1,1.56-.11C123.74,40.15,123.47,40.77,122.33,41.7Z"/>
      <path class="b610eaef-bf68-4050-9266-b5f746d00a56" d="M121.45,32.88a11.65,11.65,0,0,1,1.61.12c.07.36,0,.63-.18.76S122.23,33.48,121.45,32.88Z"/>
      <path class="b610eaef-bf68-4050-9266-b5f746d00a56" d="M125.34,33.49c.35.09.71.2,1.08.32C126.37,34.91,126,35.16,125.34,33.49Z"/>
      <path class="b610eaef-bf68-4050-9266-b5f746d00a56" d="M129.18,46.32c-.49-.25-1-.52-1.47-.8l-.14-.09.09-.26C128.54,42.64,129,43.81,129.18,46.32Z"/>
      <path class="ad85af47-ef96-4e88-87df-26741c89ee96" d="M130.25,35.36c.76.37,1.54.78,2.31,1.22l-.08.1C130.73,38.8,130.18,37.72,130.25,35.36Z"/>
      <path class="b610eaef-bf68-4050-9266-b5f746d00a56" d="M134.1,45.91a19.57,19.57,0,0,1,2.12,3.1,23.64,23.64,0,0,1-2.93-.87C133.36,46.32,133.59,45.31,134.1,45.91Z"/>
      <path class="b610eaef-bf68-4050-9266-b5f746d00a56" d="M142.42,46.1c-5.86-4.43-7.55-5.11-4.94-4.91a10.42,10.42,0,0,1,1.82.38A11.38,11.38,0,0,1,142.42,46.1Z"/>
      <path class="b610eaef-bf68-4050-9266-b5f746d00a56" d="M137.69,45.77a15.61,15.61,0,0,1,4.11,2.87,3.77,3.77,0,0,1-2.16.7C137.94,46.93,136.87,45.52,137.69,45.77Z"/>
      <path class="ae464611-b170-43fc-9dc6-d36701038222" d="M106.94,34.47c-7.28.6-15,3-18.28,6.23-5.83,5.44-8,9.13-16.69,9.62a12.44,12.44,0,0,0-11.61,9.2c-2.48,8.08-3.81,5.56-9.73,6.71-.83.18-1.76.39-2.77.7a3.94,3.94,0,0,0-3,3.19q-.32,1.26-.69,2.46a22.53,22.53,0,0,1-3.8,7.54C37,84.57,33.1,88.68,30.33,93.68a25.37,25.37,0,0,1-1.89,2.26l-.23.25a22.82,22.82,0,0,1-1.48-1.89,24,24,0,0,1-4.2-12.55,5.21,5.21,0,0,0,1-2.53c.46-5.14-2.31-8.41,4.77-10.39C31.71,68,33,64.65,34.63,62c2.77-4.32,7.48-2.47,10-6.18,2.84-3.87.75-3.66,5.48-6.15a52.67,52.67,0,0,0,9.22-5.49c4.59-3.51,5.51-5.84,11.14-7.41,6.45-1.64,11.38-6.36,19-5.06,1.79.44,4.94.16,8.67-.67a17.93,17.93,0,0,1,4.44-.24A23.28,23.28,0,0,1,106.94,34.47Z"/>
      <path class="ee1279e8-f3a6-4fcd-8aec-ada7c5e00900" d="M23.54,79.22a5.21,5.21,0,0,1-1,2.53c-.81-14.25,9-31.53,26.15-43.52,19-13.3,41-15.88,53.87-7.46a17.93,17.93,0,0,0-4.44.24c-3.73.83-6.88,1.11-8.67.67-7.58-1.3-12.51,3.42-19,5.06-5.63,1.57-6.55,3.9-11.14,7.41a52.67,52.67,0,0,1-9.22,5.49c-4.73,2.49-2.64,2.28-5.48,6.15-2.53,3.71-7.24,1.86-10,6.18-1.68,2.68-2.92,6-6.32,6.86C21.23,70.81,24,74.08,23.54,79.22Z"/>
      <path class="ae464611-b170-43fc-9dc6-d36701038222" d="M112.18,43.94c-6,3.68-12.52,8.92-14.22,11.94C95.59,59.23,91,58.71,87.75,61c-2.6,1.79-5.35,5.09-7.83,7.21C74.26,73,71.2,78.29,68.47,85.06c-1.35,3.36-2.81,6.86-5.39,9.48-2.22,2.24-7.88,2.64-9,5.71a9.71,9.71,0,0,0-.13,4.91,38.27,38.27,0,0,1-15.32-2,7.25,7.25,0,0,0,1.39-1.5A90.62,90.62,0,0,1,51,88.93c.5-.5,1-1,1.52-1.48L54.12,86c.44-.55.81-1.12,1.2-1.69s.77-1.11,1.18-1.66a19.36,19.36,0,0,1,4.32-3.54c.48-.36,1-.71,1.48-1a22,22,0,0,1,5-2.38l0,0c4.31-2.83,8.56-12.52,13-15.19,3.27-2.06,7.09-2.82,9-6.58a11.5,11.5,0,0,1,2.25-3.55c6.41-2.93,9-6.33,15.22-9.56a25,25,0,0,1,3.67-1.39A23.23,23.23,0,0,1,112.18,43.94Z"/>
      <path class="ee1279e8-f3a6-4fcd-8aec-ada7c5e00900" d="M54.12,86l-1.58,1.46c-.51.49-1,1-1.52,1.48a90.62,90.62,0,0,0-11,12.73,7.25,7.25,0,0,1-1.39,1.5,24.89,24.89,0,0,1-10.42-7l.23-.25a25.37,25.37,0,0,0,1.89-2.26c2.77-5,6.65-9.11,10.06-13.56a22.53,22.53,0,0,0,3.8-7.54q.38-1.2.69-2.46a3.94,3.94,0,0,1,3-3.19c1-.31,1.94-.52,2.77-.7,5.92-1.15,7.25,1.37,9.73-6.71A12.44,12.44,0,0,1,72,50.32c8.71-.49,10.86-4.18,16.69-9.62,3.23-3.21,11-5.63,18.28-6.23a23.44,23.44,0,0,1,1.93,2.39,22.9,22.9,0,0,1,1.54,2.54,25,25,0,0,0-3.67,1.39c-6.27,3.23-8.81,6.63-15.22,9.56a11.5,11.5,0,0,0-2.25,3.55c-1.94,3.76-5.76,4.52-9,6.58-4.4,2.67-8.65,12.36-13,15.19l0,0a22,22,0,0,0-5,2.38c-.51.32-1,.67-1.48,1a19.36,19.36,0,0,0-4.32,3.54c-.41.55-.8,1.1-1.18,1.66S54.56,85.44,54.12,86Z"/>
      <path class="ae464611-b170-43fc-9dc6-d36701038222" d="M113.11,50.88c.09,13.95-9.61,30.47-26.19,42.05a74.07,74.07,0,0,1-7.58,4.67c0-1.72-.15-3.52.76-5.06,1.62-2.73,4.58-4.4,7.3-5.9,6.73-3.68,6.21-12.4,10.88-17.79C103.48,62.9,109.25,58.2,113.11,50.88Z"/>
      <path class="ee1279e8-f3a6-4fcd-8aec-ada7c5e00900" d="M113.11,50.88h0c-3.86,7.32-9.63,12-14.83,18C93.61,74.24,94.13,83,87.4,86.64c-2.72,1.5-5.68,3.17-7.3,5.9-.91,1.54-.8,3.34-.76,5.06A62.27,62.27,0,0,1,54,105.16a9.71,9.71,0,0,1,.13-4.91c1.12-3.07,6.78-3.47,9-5.71,2.58-2.62,4-6.12,5.39-9.48C71.2,78.29,74.26,73,79.92,68.17c2.48-2.12,5.23-5.42,7.83-7.21C91,58.71,95.59,59.23,98,55.88c1.7-3,8.24-8.26,14.22-11.94A26.48,26.48,0,0,1,113.11,50.88Z"/>
      <path class="f37a95ce-ac3a-483e-9de4-a83f5b4b5c8a" d="M128.36,40.7l-.14-.12s-.1-.1-.17-.17-.32-.32-.51-.53a9.2,9.2,0,0,1-1.7-2.91,14.19,14.19,0,0,1-.85-4.09,20.69,20.69,0,0,1,.28-4.88,17.84,17.84,0,0,1,.68-2.73,12.87,12.87,0,0,1,.56-1.47,9.89,9.89,0,0,1,.85-1.58,12,12,0,0,1,2.43-2.71,10.11,10.11,0,0,1,7.57-2.26l1,.17c.32.08.65.15,1,.25l.47.16.23.08.12,0h0l0,0,.08,0,.34.14.49.25a9.12,9.12,0,0,1,.89.49c.28.18.56.36.82.56a12.79,12.79,0,0,1,1.51,1.36,9.07,9.07,0,0,1,2.08,3.8,7.47,7.47,0,0,1-.25,4.63,7.72,7.72,0,0,1-2.81,3.48,6.8,6.8,0,0,1-4.45,1.2h-.08l-.23,0h0l-.09,0-.17,0-.17,0h-.09l-.17-.05a6.25,6.25,0,0,1-1.21-.47l-.47-.25-.43-.28a8,8,0,0,1-.76-.59,12,12,0,0,1-2.17-2.57,17.94,17.94,0,0,1-1.4-2.66c-.18-.45-.35-.9-.51-1.37l-.09-.35,0-.09,0-.11v-.06l0-.14c0-.2-.08-.4-.13-.59l-.12-.58c0-.09-.05-.18-.07-.29l0-.32c-.05-.44-.12-.88-.18-1.29a28.25,28.25,0,0,1-.13-4.31q0-.94.09-1.74c0-.53.08-1,.12-1.44.17-1.71.27-2.69.27-2.69.09-1,.87-1.21,1.87-1.12s1.75.41,1.72,1.34c0,0,0,1-.06,2.68,0,.43,0,.88,0,1.38s0,1,0,1.6a26.21,26.21,0,0,0,.37,3.67c.06.3.12.61.19.92l.05.24c0,.08,0,.18.08.27s.11.37.17.57.1.37.16.57l0,.14v.06s0-.17,0-.08l0,.06.09.22c.12.3.26.62.42.94a13.05,13.05,0,0,0,1.14,1.84,7.41,7.41,0,0,0,1.4,1.44,1.61,1.61,0,0,0,.35.23l.16.1.15.05c.14.07.09,0,.09,0h0l.09,0,.16,0,.18,0,.09,0h0l-.2,0h0a1.7,1.7,0,0,0,.93-.41,2.21,2.21,0,0,0,.7-1.05,2.24,2.24,0,0,0-.1-1.11A3.32,3.32,0,0,0,140,25a5.58,5.58,0,0,0-.7-.53c-.12-.08-.27-.15-.4-.23s-.3-.16-.39-.18l-.15-.06-.34-.12-.09,0,0,0h0l.08,0-.11,0-.22-.05c-.14,0-.28-.05-.42-.08l-.4,0a3.59,3.59,0,0,0-1.42.25,3.86,3.86,0,0,0-1.17.78,6,6,0,0,0-.91,1.21,4.48,4.48,0,0,0-.26.63c-.09.25-.17.53-.24.8a12.89,12.89,0,0,0-.29,1.74,13.13,13.13,0,0,0,0,3.1,6.14,6.14,0,0,0,.54,1.89c.17.38.33.51.32.48a.26.26,0,0,0-.09-.09l.16.13.13.11h0a4,4,0,0,1-5,6.22Z"/>
    </g>
  </g>
</svg>
