<svg id="b8b7de75-fdba-4363-be1f-68e15be8c930" data-name="Layer 1" xmlns="http://www.w3.org/2000/svg" width="263.49" height="211.28" viewBox="0 0 263.49 211.28">
  <defs>
    <style>
      .aabb2df8-e9bd-4b6d-aa48-7992a48260e8 {
        opacity: 0.5;
      }

      .e46aded6-134a-4f69-bf83-ae6e9761571d {
        fill: #fff;
      }

      .e583ec01-cdbc-4ad1-804b-502b44c50f82 {
        fill: #5e3211;
      }

      .a87c95b0-f3a2-41b1-bfc8-f391a4181260, .beaac024-b873-4f17-a107-7b511be25e5d, .bf1d59eb-f7de-4be6-8dc1-3cc926772a96, .e583ec01-cdbc-4ad1-804b-502b44c50f82 {
        stroke: #421c0f;
      }

      .a261b337-64d6-490d-98ce-2dee8f862b16, .a41a5f3a-6e64-4414-bb2c-66c1a985cbb5, .a87c95b0-f3a2-41b1-bfc8-f391a4181260, .ac24a94e-dc55-4041-a459-c76dd46dfc32, .b36b4b8b-bbc0-4885-8fd0-1cac0585ad84, .b6c49997-202f-4653-a2be-5ef497c99397, .b82e71ae-f8d1-43d7-979b-fdbd07edc235, .beaac024-b873-4f17-a107-7b511be25e5d, .bf1d59eb-f7de-4be6-8dc1-3cc926772a96, .e191177c-cc8f-48e5-b181-11a6b557d8bd, .e583ec01-cdbc-4ad1-804b-502b44c50f82, .e6b04e8c-a2b0-41bf-acca-9024ed73b801, .ef4392ab-71a7-4c8b-9c6c-03cfd778de55, .f1c115f6-cbab-42f2-9951-66101cd712a5 {
        stroke-miterlimit: 10;
      }

      .a5122373-df55-4f0e-ae2a-999209319272, .b36b4b8b-bbc0-4885-8fd0-1cac0585ad84 {
        fill: #3c200f;
      }

      .f78c9610-f70b-4c73-af07-c5101f0c6ae0 {
        fill: #2c180c;
      }

      .a181f115-2437-4723-ae1c-e2ee1043a1f1, .a261b337-64d6-490d-98ce-2dee8f862b16, .a41a5f3a-6e64-4414-bb2c-66c1a985cbb5, .b82e71ae-f8d1-43d7-979b-fdbd07edc235 {
        fill: #9c4e23;
      }

      .bc2a7ce7-aded-4c65-aacb-cb4b8d830523 {
        fill: #7c391a;
      }

      .a87c95b0-f3a2-41b1-bfc8-f391a4181260, .ac24a94e-dc55-4041-a459-c76dd46dfc32, .beaac024-b873-4f17-a107-7b511be25e5d {
        fill: #723b18;
      }

      .a41a5f3a-6e64-4414-bb2c-66c1a985cbb5, .a87c95b0-f3a2-41b1-bfc8-f391a4181260, .b36b4b8b-bbc0-4885-8fd0-1cac0585ad84 {
        stroke-width: 3px;
      }

      .b6c49997-202f-4653-a2be-5ef497c99397 {
        fill: #6b2f13;
        stroke: #3c180c;
      }

      .b6c49997-202f-4653-a2be-5ef497c99397, .b82e71ae-f8d1-43d7-979b-fdbd07edc235, .e191177c-cc8f-48e5-b181-11a6b557d8bd, .e6b04e8c-a2b0-41bf-acca-9024ed73b801, .f1c115f6-cbab-42f2-9951-66101cd712a5 {
        stroke-width: 2px;
      }

      .f1c115f6-cbab-42f2-9951-66101cd712a5 {
        fill: #9b4c23;
        stroke: #4a1e0e;
      }

      .b36b4b8b-bbc0-4885-8fd0-1cac0585ad84 {
        stroke: #28150d;
      }

      .b0710753-7266-4599-b591-27a79f30a7ee {
        fill: #172228;
        opacity: 0.33;
      }

      .f488f943-eeda-49a5-a00e-c3c4595337aa {
        fill: #f4a1a2;
      }

      .b5ace379-ae58-4eed-9cb2-13443a4fd0ac {
        fill: #d22a28;
      }

      .b5db6cb4-a82f-4623-8a67-38593b2a7120 {
        fill: #1d75ba;
      }

      .ae82bb2f-a1de-47dc-a654-a6d3b4c8c8a3 {
        fill: #243f54;
      }

      .f8f89034-18b6-4150-b19f-7668c6734ff2 {
        fill: #faae42;
      }

      .ef4392ab-71a7-4c8b-9c6c-03cfd778de55 {
        fill: #b5b0c1;
        stroke: #595367;
      }

      .e6b04e8c-a2b0-41bf-acca-9024ed73b801 {
        fill: #d0af8f;
        stroke: #412412;
      }

      .baa3ed80-0ec9-43ef-a3ff-4e9fc61e3667 {
        fill: #ae896e;
      }

      .a41a5f3a-6e64-4414-bb2c-66c1a985cbb5, .b82e71ae-f8d1-43d7-979b-fdbd07edc235 {
        stroke: #482211;
      }

      .e191177c-cc8f-48e5-b181-11a6b557d8bd, .f9194c1e-74f2-43b2-b8c9-401228681c2c {
        fill: #d58046;
      }

      .bbf676ae-955e-403c-bb18-764ec7c53fc4 {
        fill: #a25c2a;
      }

      .a261b337-64d6-490d-98ce-2dee8f862b16 {
        stroke: #582811;
      }

      .a261b337-64d6-490d-98ce-2dee8f862b16, .ac24a94e-dc55-4041-a459-c76dd46dfc32 {
        stroke-width: 4px;
      }

      .e1dd4b3e-0376-432b-b836-f5ae4270f452 {
        fill: #222b62;
      }

      .a57844d1-a980-4533-b58b-e1f52e74d14e {
        fill: #610b0d;
      }

      .af086972-d73d-470e-95fe-d64d2c2ea57b {
        fill: #f48e8f;
      }

      .b6d442b0-40ac-425d-9a97-50b5bda0b70b {
        fill: #cd3332;
      }

      .b8e17dd9-0c4d-4703-8f79-1de1e4776a72 {
        fill: #e15050;
      }

      .bfe79323-6267-4c04-acf6-8864b70d558c {
        fill: #841a19;
      }

      .b109035b-00f5-4403-be20-51b974cad621 {
        fill: #131a28;
      }

      .f7b5b9f5-bd9f-4d62-9e42-c966df2f4a90 {
        fill: #cd783e;
      }

      .bf1d59eb-f7de-4be6-8dc1-3cc926772a96 {
        fill: #3b2010;
      }

      .ac24a94e-dc55-4041-a459-c76dd46dfc32 {
        stroke: #472310;
      }

      .b9853579-7ad0-45d1-b40c-8f585e206fa5 {
        fill: #572d0e;
      }

      .e191177c-cc8f-48e5-b181-11a6b557d8bd {
        stroke: #50230f;
      }

      .adfb2ccb-d049-4f84-9a4f-0bacd3d641bc {
        fill: #411211;
      }

      .b173160c-f556-4b68-8e20-4e62cf670e6e {
        fill: #e59662;
      }
    </style>
  </defs>
  <g>
    <path class="aabb2df8-e9bd-4b6d-aa48-7992a48260e8" d="M142.21,209.12a10.23,10.23,0,0,1-2-.2,9.32,9.32,0,0,1-2.69-1l-.47.25a10.06,10.06,0,0,1-1.1.43c-.29.1-.58.18-.87.25a9.07,9.07,0,0,1-2.14.25h-.15c-.26,0-.53,0-.78-.05-4.49-.48-8.36-3.75-10.38-8.78a18.48,18.48,0,0,1,1.55-16.92,19.28,19.28,0,0,1,3.27-5.86,12.67,12.67,0,0,0,1.33-2,16.48,16.48,0,0,0,.68-5.12,17.54,17.54,0,0,1-2.4-5.71,27.82,27.82,0,0,1-4.17-2.79c-.28.68-.55,1.34-.82,2-1.07,2.53-2.07,4.93-2,6.62q0,1.18,0,2.34c2.28,4.3,2.71,9.19,1.79,12.39a9.3,9.3,0,0,1-1.79,3.43,11.5,11.5,0,0,1-.38,7.6,8.82,8.82,0,0,1-.88,1.55,18.4,18.4,0,0,1-1.62,1.93c-.21.22-.44.43-.67.63l0,0a14.33,14.33,0,0,1-1.08,1c-.24.19-.49.38-.75.56l-.13.09c-.32.24-.65.48-1,.69s-.5.31-.77.45l-.16.09c-.32.19-.64.38-1,.54s-.52.25-.78.36l-.15.07c-.33.16-.66.31-1,.44l-.74.28-.24.08c-.31.12-.62.23-.94.33s-.46.14-.71.2l-.25.08-.89.23-.69.16-.22,0-.86.18-.68.11-.26,0-.84.12-.71.09-.19,0-.74.07-.67.05h-.24l-.67,0-.8,0H96l-.57,0-.79,0-.46,0-.77-.07-.39-.05-.64-.1-.4-.07-.43-.09a10.74,10.74,0,0,1-5-2.51,9.4,9.4,0,0,1-8.72-6.16c-1.38-3.85-.12-8,4.2-14a38.19,38.19,0,0,1,7-7.51c.08-.13.15-.26.23-.38.19-.32.47-.78.61-1a15.93,15.93,0,0,0,.15-4.06,15.29,15.29,0,0,1-2.91-8,7.76,7.76,0,0,1-1.42-2.24,8,8,0,0,1-.23-5.64,8,8,0,0,1-3-8,22.86,22.86,0,0,0,.13-6.92,19.77,19.77,0,0,1-7.59,2.81,60.09,60.09,0,0,1-9.54.82c-7.79,0-13-1.87-16-5.71a13.84,13.84,0,0,1-2.63-9.08l-.14-.05a13.91,13.91,0,0,1-9.07,3.59,13,13,0,0,1-3-.35c-8.15-1.9-9.49-9.48-10.06-12.72a19.54,19.54,0,0,0-.41-1.94c-.4-.91-.87-1.79-1.37-2.72A23.31,23.31,0,0,1,19.48,105a14.12,14.12,0,0,1,4.89-12.54,17.91,17.91,0,0,1-5.84-1.37,8,8,0,0,1-2.38-12.93c.43-.57,1.39-2.23,2-3.35a55.21,55.21,0,0,1,5.27-8,34,34,0,0,1-7.61-6C3,47.28,8,26,12.94,15.47c1.28-2.69,3.93-8.31,9.77-8.31a8.17,8.17,0,0,1,6.85,3.71c1.05,1.62,3,4.58,1.32,19.59.1,2.14,1.05,6.73,12.77,7.71a28.3,28.3,0,0,1,8.73-4.68,30.66,30.66,0,0,1,20.91-8A36,36,0,0,1,92.4,31l1.16.28c11.74-11.72,24.2-17.65,37.12-17.65a42.45,42.45,0,0,1,8.43.85l.14-.19a8.18,8.18,0,0,1,6.52-3.21c2,0,6.53,0,11.48,10.74l2,1.06a7.69,7.69,0,0,1,1.86.67c.91.46,1.84.9,2.8,1.32a8.11,8.11,0,0,1,2.71.8A36.52,36.52,0,0,0,170,27.13a58.83,58.83,0,0,0,16,2.67,61.83,61.83,0,0,0,6.57-.39c.52-.05,1.07-.08,1.62-.08a17.38,17.38,0,0,1,2.24.14,30.59,30.59,0,0,1,8,1.83c12.75.57,20.39,2.52,24.68,6.26,8.39,7.31,13.66,18.09,14.77,30,7.79,8.26,15.83,24.23,16.84,38.23l.1,1.34a8,8,0,0,1-2,5.89,44.11,44.11,0,0,1-1.77,16l-.36,1.14A8,8,0,0,1,252.2,135l-.09,1.14a37.07,37.07,0,0,0,.18,7.69l.19.71a8,8,0,0,1-10.25,9.64l-.76-.25c-.33-.11-.69-.25-1.07-.41l-.47.66a8,8,0,0,1-6,3.32l-.08.09a76.53,76.53,0,0,0,0,9.13c0,.39,0,.75,0,1.11a16.62,16.62,0,0,1,1.7,10,9.43,9.43,0,0,1-3.13,5.54,13.5,13.5,0,0,1-1,4c-2.68,7.52-10.72,12.23-21.66,12.63H209a12,12,0,0,1-5.23-1.07,35.56,35.56,0,0,1-3.78.22c-2.62,0-6.41-.33-9.12-3.19a8.61,8.61,0,0,1-2.38-5.46,26.72,26.72,0,0,1-4.62,3.09c-.43.24-.88.46-1.33.66l-.45.19-.87.36-.46.16c-.32.12-.59.21-.86.29s-.52.16-.52.16l-.8.21-.52.13-.72.15-.5.09-.75.12-.45.06-.73.07-.49.05-.69,0-.46,0h-1.79l-.8,0-.42,0-.87-.08-.83-.09-.64-.1c-.7-.1-1.25-.2-1.73-.3a12.38,12.38,0,0,1-4.5-1.82,10.52,10.52,0,0,1-2.45-.32q-.11.51-.24,1c-.06.24-.15.53-.25.81l0,.13c-.13.38-.26.75-.4,1.11s-.24.57-.36.82l0,.1c-.17.36-.33.7-.5,1l-.42.74c-.23.39-.42.7-.62,1s-.33.49-.5.72-.44.6-.66.87-.37.46-.57.67-.43.49-.66.72-.42.44-.63.64-.44.42-.69.63-.39.35-.6.52l-.73.57-.09.06-.52.38c-.26.18-.5.33-.75.49l-4.35-6.72,4.27,6.77-.59.36-.83.44c-.19.1-.4.21-.61.3s-.56.25-.82.35l-.73.28c-.31.11-.63.2-.95.28a6.14,6.14,0,0,1-.68.17,11.5,11.5,0,0,1-1.92.25ZM197.12,174l.27-.24a31.42,31.42,0,0,1,2.71-7.24,22.09,22.09,0,0,0,1.93-10.8l-.15-.17a27.48,27.48,0,0,1-3.14,2.94,8,8,0,0,1-2.77,1.44,8,8,0,0,1-1.59,2.86c0,.43,0,.86,0,1.29s0,1.06,0,1.53l1.37,2.17a8,8,0,0,1,1.38,5.89Zm-38.83-5.52c.1.85.22,1.65.35,2.37.13-.65.3-1.33.52-2.07A6.38,6.38,0,0,1,158.29,168.48Z"/>
    <path class="e46aded6-134a-4f69-bf83-ae6e9761571d" d="M137.21,204.12a10.23,10.23,0,0,1-2-.2,9.32,9.32,0,0,1-2.69-1l-.47.25a10.06,10.06,0,0,1-1.1.43c-.29.1-.58.18-.87.25a9.07,9.07,0,0,1-2.14.25h-.15c-.26,0-.53,0-.78-.05-4.49-.48-8.36-3.75-10.38-8.78a18.48,18.48,0,0,1,1.55-16.92,19.28,19.28,0,0,1,3.27-5.86,12.67,12.67,0,0,0,1.33-2,16.48,16.48,0,0,0,.68-5.12,17.54,17.54,0,0,1-2.4-5.71,27.82,27.82,0,0,1-4.17-2.79c-.28.68-.55,1.34-.82,2-1.07,2.53-2.07,4.93-2,6.62q0,1.18,0,2.34c2.28,4.3,2.71,9.19,1.79,12.39a9.3,9.3,0,0,1-1.79,3.43,11.5,11.5,0,0,1-.38,7.6,8.82,8.82,0,0,1-.88,1.55,18.4,18.4,0,0,1-1.62,1.93c-.21.22-.44.43-.67.63l0,0a14.33,14.33,0,0,1-1.08,1c-.24.19-.49.38-.75.56l-.13.09c-.32.24-.65.48-1,.69s-.5.31-.77.45l-.16.09c-.32.19-.64.38-1,.54s-.52.25-.78.36l-.15.07c-.33.16-.66.31-1,.44l-.74.28-.24.08c-.31.12-.62.23-.94.33s-.46.14-.71.2l-.25.08-.89.23-.69.16-.22,0-.86.18-.68.11-.26,0-.84.12-.71.09-.19,0-.74.07-.67.05h-.24l-.67,0-.8,0H91l-.57,0-.79,0-.46,0-.77-.07-.39-.05-.64-.1-.4-.07-.43-.09a10.74,10.74,0,0,1-5-2.51,9.4,9.4,0,0,1-8.72-6.16c-1.38-3.85-.12-8,4.2-14a38.19,38.19,0,0,1,7-7.51c.08-.13.15-.26.23-.38.19-.32.47-.78.61-1a15.93,15.93,0,0,0,.15-4.06,15.29,15.29,0,0,1-2.91-8,7.76,7.76,0,0,1-1.42-2.24,8,8,0,0,1-.23-5.64,8,8,0,0,1-3-8,22.86,22.86,0,0,0,.13-6.92,19.77,19.77,0,0,1-7.59,2.81,60.09,60.09,0,0,1-9.54.82c-7.79,0-13-1.87-16-5.71a13.84,13.84,0,0,1-2.63-9.08l-.14-.05a13.91,13.91,0,0,1-9.07,3.59,13,13,0,0,1-3-.35c-8.15-1.9-9.49-9.48-10.06-12.72a19.54,19.54,0,0,0-.41-1.94c-.4-.91-.87-1.79-1.37-2.72A23.31,23.31,0,0,1,14.48,100a14.12,14.12,0,0,1,4.89-12.54,17.91,17.91,0,0,1-5.84-1.37,8,8,0,0,1-2.38-12.93c.43-.57,1.39-2.23,2-3.35a55.21,55.21,0,0,1,5.27-8,34,34,0,0,1-7.61-6C-2,42.28,3,21,7.94,10.47c1.28-2.69,3.93-8.31,9.77-8.31a8.17,8.17,0,0,1,6.85,3.71c1.05,1.62,3,4.58,1.32,19.59.1,2.14,1.05,6.73,12.77,7.71a28.3,28.3,0,0,1,8.73-4.68,30.66,30.66,0,0,1,20.91-8A36,36,0,0,1,87.4,26l1.16.28c11.74-11.72,24.2-17.65,37.12-17.65a42.45,42.45,0,0,1,8.43.85l.14-.19a8.18,8.18,0,0,1,6.52-3.21c2,0,6.53,0,11.48,10.74l2,1.06a7.69,7.69,0,0,1,1.86.67c.91.46,1.84.9,2.8,1.32a8.11,8.11,0,0,1,2.71.8A36.52,36.52,0,0,0,165,22.13a58.83,58.83,0,0,0,16,2.67,61.83,61.83,0,0,0,6.57-.39c.52-.05,1.07-.08,1.62-.08a17.38,17.38,0,0,1,2.24.14,30.59,30.59,0,0,1,8,1.83c12.75.57,20.39,2.52,24.68,6.26,8.39,7.31,13.66,18.09,14.77,30,7.79,8.26,15.83,24.23,16.84,38.23l.1,1.34a8,8,0,0,1-2,5.89,44.11,44.11,0,0,1-1.77,16l-.36,1.14A8,8,0,0,1,247.2,130l-.09,1.14a37.07,37.07,0,0,0,.18,7.69l.19.71a8,8,0,0,1-10.25,9.64l-.76-.25c-.33-.11-.69-.25-1.07-.41l-.47.66a8,8,0,0,1-6,3.32l-.08.09a76.53,76.53,0,0,0,0,9.13c0,.39,0,.75,0,1.11a16.62,16.62,0,0,1,1.7,10,9.43,9.43,0,0,1-3.13,5.54,13.5,13.5,0,0,1-1,4c-2.68,7.52-10.72,12.23-21.66,12.63H204a12,12,0,0,1-5.23-1.07,35.56,35.56,0,0,1-3.78.22c-2.62,0-6.41-.33-9.12-3.19a8.61,8.61,0,0,1-2.38-5.46,26.72,26.72,0,0,1-4.62,3.09c-.43.24-.88.46-1.33.66l-.45.19-.87.36-.46.16c-.32.12-.59.21-.86.29s-.52.16-.52.16l-.8.21-.52.13-.72.15-.5.09-.75.12-.45.06-.73.07-.49.05-.69,0-.46,0h-1.79l-.8,0-.42,0-.87-.08-.83-.09-.64-.1c-.7-.1-1.25-.2-1.73-.3a12.38,12.38,0,0,1-4.5-1.82,10.52,10.52,0,0,1-2.45-.32q-.11.51-.24,1c-.06.24-.15.53-.25.81l0,.13c-.13.38-.26.75-.4,1.11s-.24.57-.36.82l0,.1c-.17.36-.33.7-.5,1l-.42.74c-.23.39-.42.7-.62,1s-.33.49-.5.72-.44.6-.66.87-.37.46-.57.67-.43.49-.66.72-.42.44-.63.64-.44.42-.69.63-.39.35-.6.52l-.73.57-.09.06-.52.38c-.26.18-.5.33-.75.49l-4.35-6.72,4.27,6.77-.59.36-.83.44c-.19.1-.4.21-.61.3s-.56.25-.82.35l-.73.28c-.31.11-.63.2-.95.28a6.14,6.14,0,0,1-.68.17,11.5,11.5,0,0,1-1.92.25ZM192.12,169l.27-.24a31.42,31.42,0,0,1,2.71-7.24,22.09,22.09,0,0,0,1.93-10.8l-.15-.17a27.48,27.48,0,0,1-3.14,2.94,8,8,0,0,1-2.77,1.44,8,8,0,0,1-1.59,2.86c0,.43,0,.86,0,1.29s0,1.06,0,1.53l1.37,2.17a8,8,0,0,1,1.38,5.89Zm-38.83-5.52c.1.85.22,1.65.35,2.37.13-.65.3-1.33.52-2.07A6.38,6.38,0,0,1,153.29,163.48Z"/>
    <g>
      <path class="e583ec01-cdbc-4ad1-804b-502b44c50f82" d="M80.09,48.34C82.83,48.12,106,3.2,142.31,20.62,148.94,23.8,167,35,176.38,34.55s36-1.58,42.43,4c8.51,7.41,16.08,22.19,10.13,43.17a43.26,43.26,0,0,0-7.23-7.47c.76,3.78,4.14,12.47,3.21,19.1-1.16-2.45-2.38-4.9-3.17-5.33-.15,4.61,1.47,16.94-2.31,27a36,36,0,0,0-2.92-9.62c-.76,5.19-2.05,15.89-6.6,24.22-.21-4.65-2.92-15.68-6-19.25-.76,2.92-2.49,11-1.84,14.27-3.46-3.24-7.57-16.21-9.62-23.35a65.66,65.66,0,0,0-.33,12c-3.24-2.7-5.37-11.06-5.73-15.17-.79,2.3-.57,11.31-.07,14-1.73-2-5.26-10.45-6.05-13.55-.65,4.11.39,13.7.72,19.64-1.62-.1-3.57-4.32-4.87-6.05,0,5.19-.47,14.52-5.3,19.28.44-3.82,1-12.9-1.87-18-.79,3.46-1.73,9.08-3.39,12-.36-4.9-1.15-16.51-7-21.92-.36,6.92-3.42,21.52-13.37,28,1.51-4.47,2.49-21.77-2-28.69-1.52,4.11-4.44,13-8,16.55-.21-6.92-1.29-16.11-6.77-21.52-1.15,1.44-3.25,7.06-3.17,9.08-1.88-.86-2.81-9.22-2.81-11-1.45,2.45-6.6,19.25.32,33.09-3-1.19-6.38-8.76-6.92-10.6-.22,4-.43,10.71.43,14.6-5-1.3-11.84-8.15-14.92-18.06a11.83,11.83,0,0,0-1.3,7c-2.91-1.19-6.16-7-6.16-17S80.09,48.34,80.09,48.34Z"/>
      <g>
        <path class="a5122373-df55-4f0e-ae2a-999209319272" d="M184.27,167.43c-.47,1.62-3,1.8-4.47,0-.46-1.27.62-6.1.62-6.1"/>
        <path class="f78c9610-f70b-4c73-af07-c5101f0c6ae0" d="M180,163.6a10.87,10.87,0,0,0-.18,3.83c1.48,1.8,4,1.62,4.47,0v0C182.67,167.61,181.49,165,180,163.6Z"/>
      </g>
      <g>
        <path class="a181f115-2437-4723-ae1c-e2ee1043a1f1" d="M181.89,145.91a72.39,72.39,0,0,0-.93,13.33,66.66,66.66,0,0,1,0,8.29c-.23,2.51,2.18,6.27-1.06,8.33s-18.6-1.62-18.38-3.79-.27-4.72,2.37-9.87a34.52,34.52,0,0,0,3.18-14.7c-.15-.73-.15-8.94,5.47-9.45S182.44,142,181.89,145.91Z"/>
        <path class="a181f115-2437-4723-ae1c-e2ee1043a1f1" d="M168.66,140.44a12.67,12.67,0,0,0-1.61,7.06,34.52,34.52,0,0,1-3.18,14.7c-2.64,5.15-2.16,7.71-2.37,9.87,0,.31,1.08,0,1.59.36.27-4.48,1.22-6.42,2.73-9.94C168.58,155.78,170.62,148,168.66,140.44Z"/>
        <path class="bc2a7ce7-aded-4c65-aacb-cb4b8d830523" d="M179.17,140a8.14,8.14,0,0,1-.37,3.45c-3.9,9.95-.44,19.89-3.46,29.84a21.64,21.64,0,0,1-1.3,3c2.57.26,4.81.19,5.84-.46,3.24-2.06.83-5.82,1.06-8.33a66.66,66.66,0,0,0,0-8.29,72.39,72.39,0,0,1,.93-13.33A6.67,6.67,0,0,0,179.17,140Z"/>
        <path class="a87c95b0-f3a2-41b1-bfc8-f391a4181260" d="M176.57,176.89c-5.18,0-13.54-2.19-15.15-4a1.12,1.12,0,0,1-.35-.89c0-.4.05-.82.07-1.27a18.1,18.1,0,0,1,2.35-8.76,33.84,33.84,0,0,0,3.13-14.42c-.14-.72-.1-5,1.91-7.72a5.38,5.38,0,0,1,4-2.24,9.55,9.55,0,0,1,8.07,3.13,6.69,6.69,0,0,1,1.76,5.22,71.11,71.11,0,0,0-.93,13.27c0,.95,0,1.77.07,2.52a40.23,40.23,0,0,1-.09,5.81,9.68,9.68,0,0,0,.29,2.49c.42,2,.93,4.59-1.55,6.16A6.9,6.9,0,0,1,176.57,176.89Z"/>
      </g>
      <g>
        <path class="a5122373-df55-4f0e-ae2a-999209319272" d="M105.38,169.3a10.57,10.57,0,0,1,2.81,8.7c-.43,1.52-2.65,1.52-4.43-.54C102.79,174.76,105.38,169.3,105.38,169.3Z"/>
        <path class="f78c9610-f70b-4c73-af07-c5101f0c6ae0" d="M104,173.1a8,8,0,0,0-.23,4.36c1.78,2.06,4,2.06,4.43.54a3.47,3.47,0,0,0,.12-.73C106.52,176.51,105.15,174.79,104,173.1Z"/>
      </g>
      <g>
        <path class="bc2a7ce7-aded-4c65-aacb-cb4b8d830523" d="M82.37,108c-1.64,8.18-.81,12.83,1.21,18.07a34,34,0,0,1,1.58,17.21c1.59-1,2.38-2.88,3.17-3.89.44,2.89,1.09,10.53-.36,12.83,1,.22,2.63-1.76,2.85-2-.4,2-2.25,7.89,1.21,11.35,1.3,2.22,1.13,7.5.48,10.17s-3.74,5.26-2.88,7.71,13.19,6.34,15.43,6.13c.36-1.3.57-2.82,0-6.71s1.29-6.21,1-13.12,5.69-13.33,5.19-20.25-6.85-20.27-6.85-20.27Z"/>
        <path class="a181f115-2437-4723-ae1c-e2ee1043a1f1" d="M93.92,161.14c-2.43-3.5-3.45-8.19.54-17.25-1.3.87-2.59,2.16-3.89,3a74,74,0,0,0-.87-13.84,8.15,8.15,0,0,1-2.32,4.22c.43-6.49-.24-7.46-2.33-13.63C84,120.43,83,112.18,83.66,109l-1.29-1c-1.64,8.18-.81,12.83,1.21,18.07a34,34,0,0,1,1.58,17.21c1.59-1,2.38-2.88,3.17-3.89.44,2.89,1.09,10.53-.36,12.83,1,.22,2.63-1.76,2.85-2-.4,2-2.25,7.89,1.21,11.35,1.3,2.22,1.13,7.5.48,10.17s-3.74,5.26-2.88,7.71c.3.84,1.94,1.85,4.05,2.8-1.46-2.22-.55-6.6.56-9.92C95.67,168.15,95.17,162.94,93.92,161.14Z"/>
        <path class="bc2a7ce7-aded-4c65-aacb-cb4b8d830523" d="M106.07,165.8c-.3-7,5.69-13.33,5.19-20.25-.29-3.93-2.45-9.92-4.27-14.37a113.15,113.15,0,0,1-.85,14c-.87,5.62-4.06,10.7-4.49,16.32-.43,7.36,1,14-3.73,20.44-.35.53-.72,1.07-1.12,1.6,3.48,1.26,7.14,2.18,8.26,2.08.36-1.3.57-2.82,0-6.71S106.35,172.71,106.07,165.8Z"/>
        <path class="beaac024-b873-4f17-a107-7b511be25e5d" d="M91.69,149.18l-.28,1.4c0,.21-.1.47-.17.76-.54,2.36-1.67,7.27,1.26,10.2l.06.09c1.35,2.3,1.22,7.66.54,10.48a12.1,12.1,0,0,1-1.56,3.22c-.92,1.52-1.8,2.95-1.34,4.25.74,2.08,11.81,5.73,14.68,5.84.28-1.1.44-2.61-.09-6.21a15.12,15.12,0,0,1,.35-5.3,31,31,0,0,0,.66-7.86c-.15-3.57,1.27-7,2.65-10.24s2.78-6.61,2.54-10c-.47-6.46-6.2-18.82-6.76-20L82.82,109c-1.44,7.68-.6,12.14,1.32,17.14A35,35,0,0,1,86,142.47a12.35,12.35,0,0,0,1.47-2,11.43,11.43,0,0,1,.74-1.09l.62-.79.14,1c.36,2.36,1,9.13,0,12.26a8,8,0,0,0,1.64-1.49l.15-.16Z"/>
      </g>
      <g>
        <path class="e583ec01-cdbc-4ad1-804b-502b44c50f82" d="M195.23,126.81c1,6.7.54,14.81-6.49,20.43a9.39,9.39,0,0,0-3.62-7.46c-.16,2.33-2.87,8.92-1.78,12.76-2.38-.81-4.71-4.65-5.19-8-1,2-3,6.43-4.92,7.46.38-3.19-.22-6.82-.71-7.41a49.07,49.07,0,0,1-8.79,14.7c-.72-1.44-2.38-7.85-2.59-13.55-1.23,1.81-4.47,7.57-4.83,10.38-1.45-1.66-2.3-4.75-2.66-11.75-2.68,3.68-6.43,9.73-14.64,10.6s-18.06-.46-24.94-14.78c-.72,4.62-1.59,8-3.39,10-.51-4.25-5.84-11-8.33-14.74a17.69,17.69,0,0,0,0,5.3c-2.48-.81-10.59-8.22-12.11-19.14a11.83,11.83,0,0,0-2.16,4.59c-1.84-3.08-1.4-10-6.59-13.13S93.81,89,93.81,89l49.74-7.36,46.27,12.83Z"/>
        <path class="b6c49997-202f-4653-a2be-5ef497c99397" d="M191.94,107.15a40.28,40.28,0,0,0,1,5.91Z"/>
      </g>
      <g>
        <path class="bc2a7ce7-aded-4c65-aacb-cb4b8d830523" d="M161.49,97.29c3.47,7,3.36,21.84.28,27.9A8.57,8.57,0,0,0,160,120.7c.05,4.22-.38,11.15-4.42,14.22a15.15,15.15,0,0,0-.36-5.91,56.13,56.13,0,0,1-7.68,16.54c-4.46,6.7-3.06,18.59-1.76,24.2s3.49,12.57-1.28,16.33-18.62.09-18.62-3.37,2.71-5,4.44-8.55,1.83-10.92,1-12.21-4.43-5.08-.22-12.65c-.1-2.49-2.92-8.51-3.78-9.7a42.09,42.09,0,0,0-.18,5.62c-2.27-1.33-2.27-7.67-2.49-8.75a6,6,0,0,0-1.51,4c-1.8-1.73-1.44-5-.94-7.5a67.71,67.71,0,0,1-9-22.2c-1.87-9.22-.29-19.6,12.83-20.18S161.49,97.29,161.49,97.29Z"/>
        <path class="a181f115-2437-4723-ae1c-e2ee1043a1f1" d="M131.33,162c.86,1.29.76,8.65-1,12.21s-4.44,5.09-4.44,8.55a2.69,2.69,0,0,0,1.34,1.93.46.46,0,0,1,.07-.1.46.46,0,0,0-.07.1,7.58,7.58,0,0,0,.81.53c.92-6.09,2.94-7.37,4.16-11,1.54-4.56,2.13-11.31,0-14.18-1.81-2.45-1.42-9-1.8-9.25C127.46,157.33,130.52,160.74,131.33,162Z"/>
        <path class="bc2a7ce7-aded-4c65-aacb-cb4b8d830523" d="M161.49,97.29s-2.66-.87-6.68-2c3,6.89,6.85,13.65,5.39,21.34-1.73-.86-2.6-2.59-3.46-3.89,0,4.33.86,9.08.43,13.41-.86-2.6-3-4.33-4.32-6.49,1.15,10-7.17,19.35-9.33,25.36-2.89,8-4,16.34-1.05,25.24,1.87,6.25-1,12-4.52,17.39,2.62.06,5.07-.38,6.59-1.58,4.77-3.76,2.58-10.73,1.28-16.33s-2.7-17.5,1.76-24.2A56.13,56.13,0,0,0,155.26,129a15.15,15.15,0,0,1,.36,5.91c4-3.07,4.47-10,4.42-14.22a8.57,8.57,0,0,1,1.73,4.49C164.85,119.13,165,104.32,161.49,97.29Z"/>
        <path class="a87c95b0-f3a2-41b1-bfc8-f391a4181260" d="M138.44,188.1a25.07,25.07,0,0,1-8.56-1.6c-1.64-.64-4.39-2-4.39-3.79,0-2.3,1.14-3.83,2.35-5.43A20.65,20.65,0,0,0,130,174c1.7-3.51,1.77-10.64,1-11.79l-.24-.35c-1.2-1.65-4-5.51-.06-12.64-.14-2-1.91-6-3-8.17a30.41,30.41,0,0,0-.08,4.13l.14.9-.79-.46c-2-1.19-2.38-5.58-2.58-7.94v-.09a6.72,6.72,0,0,0-.76,2.86v1l-.73-.71c-1.49-1.42-1.85-4-1.1-7.72a68.71,68.71,0,0,1-9-22.2c-1-4.72-1.35-11.31,2.21-15.86,2.34-3,6.06-4.62,11-4.84.5,0,1,0,1.55,0,13.17,0,33.86,6.72,34.07,6.79l.17.06.08.16c3.37,6.84,3.52,21.91.27,28.28l-.88,1.74.06-2a7.09,7.09,0,0,0-.87-3c-.12,6.47-1.66,10.87-4.58,13.08l-.88.67.19-1.09a15.67,15.67,0,0,0,0-4,59.53,59.53,0,0,1-7.26,14.94c-5.21,7.82-2.08,22.24-1.7,23.86.11.47.22.95.34,1.44,1.32,5.49,2.81,11.72-1.78,15.33C143.41,187.52,141.21,188.1,138.44,188.1Z"/>
      </g>
      <g>
        <path class="a5122373-df55-4f0e-ae2a-999209319272" d="M220.42,164.43a9.43,9.43,0,0,1,2.27,7.06c-.32,1.84-3.73,1.95-4.59.43S220.42,164.43,220.42,164.43Z"/>
        <path class="f78c9610-f70b-4c73-af07-c5101f0c6ae0" d="M218.68,168.26c-.57,1.49-1,3-.58,3.66.86,1.5,4.21,1.41,4.58-.39A10.12,10.12,0,0,1,218.68,168.26Z"/>
      </g>
      <g>
        <path class="bc2a7ce7-aded-4c65-aacb-cb4b8d830523" d="M228.46,65c5.84,2.53,17.66,20.4,18.81,36.4a31.49,31.49,0,0,0-3.53-3.53c1.08,5.48,3.1,14.42.22,23.57a52.91,52.91,0,0,1-2.09-6.7c-1.16,5.48-2.89,10.59-3.18,16s.08,8.87.44,10.24c-2.6-.87-5-4.11-5.87-11.25-1.2,3.1-1.85,9.95-4.8,14.06a28.47,28.47,0,0,1-2.6-6.92c-.57,2.88-.72,8.79-5.69,12.47-3-5.77,2-25.88,3.46-36.26s5.31-31.28,5.31-31.28Z"/>
        <path class="f1c115f6-cbab-42f2-9951-66101cd712a5" d="M220,150l-.24-.46c-2.28-4.46-.08-16.61,1.87-27.33.61-3.4,1.19-6.6,1.55-9.18,1.4-10,5.1-30.16,5.31-31.26L228,64.3l.62.27c6.39,2.76,17.94,21.08,19.07,36.76l.1,1.34-.86-1A26.07,26.07,0,0,0,244.42,99c1.12,5.63,2.65,13.93,0,22.51l-.36,1.15-.45-1.12a51.61,51.61,0,0,1-1.66-5c-.25,1.08-.52,2.15-.78,3.19a58.35,58.35,0,0,0-2,11,39.71,39.71,0,0,0,.41,10.11l.21.77-.76-.25c-1.72-.58-4.64-2.61-5.88-9.7-.17.65-.34,1.38-.53,2.15-.77,3.28-1.73,7.36-3.77,10.2l-.38.52-.34-.54A29.45,29.45,0,0,1,226,138.9c-.5,3.19-1.4,7.69-5.53,10.74Z"/>
      </g>
      <g>
        <path class="bc2a7ce7-aded-4c65-aacb-cb4b8d830523" d="M228,59.58c2.89,4.45,8.22,26.21,3.32,45.82-1.15-2.74-2-4-3.32-4.9,1,6.34,2.38,14.41,0,20.11a8.7,8.7,0,0,0-2.95-3.53c.58,4.11.07,14-2.74,25.73s-.87,21.08-1.46,23.46-2.16,3.89-1.78,6.11,1.26,6.54-.87,8-18.09-3.53-18.31-6,.58-5.69,2.38-9.23,4.11-11.67,2.16-18.3c-5.4-5.63-13.48-14.75-15.21-26.75a16.42,16.42,0,0,0-1,6.33c-2.65-2-6.09-11.8-5-26.15S228,59.58,228,59.58Z"/>
        <path class="a181f115-2437-4723-ae1c-e2ee1043a1f1" d="M213,150c-6.87-5.1-12.81-9.71-16.91-17.42-1.73-1.69-3.12-4.27-5.57-7,3,9.32,9.35,16.56,13.9,21.3,2,6.63-.36,14.77-2.16,18.31s-2.59,6.77-2.38,9.22c0,.39.47.84,1.17,1.32.79-3.94,1.78-5.78,3.66-9.75,2.81-5.94,2.68-10.38,2.68-16A7.1,7.1,0,0,0,213,150Z"/>
        <path class="bc2a7ce7-aded-4c65-aacb-cb4b8d830523" d="M231.27,105.4c4.9-19.61-.43-41.37-3.32-45.82,0,0-2.21,1.34-5.64,3.57,5.77,10.65,9.45,22.94,7.95,34.9-2.59-.87-3.89-3.46-5.62-5.19-.43,7.35,2.59,14.27,2.16,21.62a46,46,0,0,1-6.05-6.92c1.73,12.11-.44,23.36-3,35.47-1.73,6.92,1.3,13.4-.87,20.32-.86,2.6-2.54,3.46-2.21,6.49.86,5.19-.38,5.19-3,9.51a2.6,2.6,0,0,1-.27.38c3.17.81,6,1.18,6.76.63,2.13-1.44,1.24-5.76.87-8s1.19-3.73,1.78-6.11-1.35-11.78,1.46-23.46,3.32-21.62,2.74-25.73a8.7,8.7,0,0,1,2.95,3.53c2.38-5.7,1-13.77,0-20.11C229.25,101.36,230.12,102.66,231.27,105.4Z"/>
        <path class="a87c95b0-f3a2-41b1-bfc8-f391a4181260" d="M189.39,118.59l.21,1.45c1.63,11.27,8.92,20.09,15.1,26.51l.07.07,0,.1c2,6.68-.24,14.8-2.19,18.63-1.72,3.37-2.55,6.56-2.34,9,.15,1.7,11.89,5.85,16.53,5.85a2.19,2.19,0,0,0,1.11-.18c1.78-1.21,1.11-5.1.74-7.19l-.06-.37a6.33,6.33,0,0,1,.89-3.95,12.67,12.67,0,0,0,.9-2.33,19.73,19.73,0,0,0,0-4.06,67.26,67.26,0,0,1,1.44-19.4c2.93-12.17,3.24-22,2.73-25.57l-.11-.82.73.37a8.57,8.57,0,0,1,2.7,2.87c1.81-5.37.65-12.62-.29-18.52l-.23-1.45.82.55a8.56,8.56,0,0,1,3,3.91c4.13-18.22-.34-38.61-3.34-43.87-4.23,2.59-43.19,26.87-44.19,40.13s1.89,22.17,4.11,25a17.34,17.34,0,0,1,1.05-5.42Z"/>
      </g>
      <path class="a181f115-2437-4723-ae1c-e2ee1043a1f1" d="M83.11,46c2.74-.21,23.87-41.75,60.22-24.33,6.63,3.18,23.78,14.53,33.19,14s36.17-2.19,42.73,4.64c6.27,6.54,14,19.3,8,40.27-1.08-1.73-3.13-4.43-4.54-5.29.76,3.78,4.15,12.47,3.21,19.1-1.15-2.45-2.38-4.9-3.17-5.34-.15,4.62,1.47,16.94-2.31,27a35.93,35.93,0,0,0-2.92-9.62c-.76,5.18-2,15.89-6.59,24.21-.22-4.65-2.92-15.67-6.06-19.24-.76,2.92-2.49,11-1.84,14.27-3.46-3.24-7.57-16.22-9.62-23.35a64.73,64.73,0,0,0-.32,12c-3.25-2.71-5.37-11.07-5.73-15.18-.8,2.31-.58,11.32-.08,14.06-1.73-2-5.26-10.45-6.05-13.55-.65,4.11.4,13.69.72,19.64-1.62-.11-3.57-4.32-4.87-6,0,5.19-.46,14.52-5.29,19.28.43-3.82,1-12.9-1.88-18-.79,3.46-1.73,9.08-3.39,12-.36-4.9-1.15-16.5-7-21.91-.36,6.92-3.42,21.52-13.37,28,1.52-4.47,2.49-21.77-2.05-28.69-1.52,4.11-4.44,13-8,16.54-.22-6.92-1.3-16.11-6.78-21.51-1.15,1.44-3.24,7.06-3.17,9.08-1.87-.87-2.81-9.23-2.81-11-1.44,2.45-6.6,19.24.32,33.08-3-1.18-6.38-8.75-6.92-10.59-.21,4-.43,10.7.43,14.6-5-1.3-11.84-8.15-14.92-18.06a11.73,11.73,0,0,0-1.29,7c-2.92-1.19-6.17-7-6.17-17S83.11,46,83.11,46Z"/>
      <g>
        <path class="b36b4b8b-bbc0-4885-8fd0-1cac0585ad84" d="M199.81,173.3c-2.9,1.46-8.09,6.92-8.36,11.68-.11,2,7.78,1.08,10.1.38.06,1-.05,1.78,2.92,1.67s12.45-1.06,14.5-7.59C220,175.75,205.48,171.07,199.81,173.3Z"/>
        <path class="f78c9610-f70b-4c73-af07-c5101f0c6ae0" d="M198.13,186a26.48,26.48,0,0,0,3.21-.57,22.35,22.35,0,0,1,2.64-9.37C200.41,177.64,198.72,181.93,198.13,186Z"/>
        <path class="f78c9610-f70b-4c73-af07-c5101f0c6ae0" d="M213.63,174.78c.3,6.18-4.15,10.75-9.91,12.26h.75c3-.11,12.45-1.06,14.5-7.59C219.39,177.86,217,176.1,213.63,174.78Z"/>
      </g>
      <g>
        <path class="b36b4b8b-bbc0-4885-8fd0-1cac0585ad84" d="M161.49,170.63c-2.08,1.23-5.9,8.29-5.9,9.59s3.24.58,4.9,0c-.22,1.08-.22,2.2,2.27,2.7s7.6,1.19,12.29-1.33,6.17-5.28,5.77-6.55C179.69,171.35,169.44,168.13,161.49,170.63Z"/>
        <path class="f78c9610-f70b-4c73-af07-c5101f0c6ae0" d="M158,180.85a14.92,14.92,0,0,0,2.46-.63c.83-2.73,2.36-4.58,4.38-6.85C161.57,175,159.22,176.71,158,180.85Z"/>
        <path class="f78c9610-f70b-4c73-af07-c5101f0c6ae0" d="M180.82,175c-.49-1.61-2.74-3.14-5.77-4.13,1.53,7.11-4.79,11.6-11.54,12.15a18,18,0,0,0,11.54-1.47C179.73,179.07,181.22,176.31,180.82,175Z"/>
      </g>
      <g>
        <path class="b36b4b8b-bbc0-4885-8fd0-1cac0585ad84" d="M127.91,196.08c1.94,0,3.53-3.89,5.47-7.21.22,2,1.76,6.87,3.41,7.21,2.61.54,10.6-4.41,9.87-12.89-.84-5.24-16-6.31-20.55-2C120.63,186.42,124,195.75,127.91,196.08Z"/>
        <path class="f78c9610-f70b-4c73-af07-c5101f0c6ae0" d="M127.89,196.08h0c1.93,0,3.51-3.84,5.44-7.14a17.54,17.54,0,0,1,.81-6.47C130.68,186.34,130.48,191.84,127.89,196.08Z"/>
        <path class="f78c9610-f70b-4c73-af07-c5101f0c6ae0" d="M146.66,183.19c-.33-2.05-2.86-3.46-6.09-4.16,2.62,5.94,1,12.33-3.21,17.08C140.4,196,147.34,191.13,146.66,183.19Z"/>
      </g>
      <g>
        <path class="b36b4b8b-bbc0-4885-8fd0-1cac0585ad84" d="M90,176.65c-3.77,2-10.4,11.28-9.68,13.3s6,0,6.62-.43c-.65,1.57-1.3,3.4,1.35,4s13.51.83,18-5.44c.87-2-1-6.5-6.56-9.56S90,176.65,90,176.65Z"/>
        <path class="f78c9610-f70b-4c73-af07-c5101f0c6ae0" d="M83,190.75a15.71,15.71,0,0,0,3.63-1.06c1.38-3.36,3.57-6.28,5.46-9.07C88.58,183.72,84.9,186.42,83,190.75Z"/>
        <path class="f78c9610-f70b-4c73-af07-c5101f0c6ae0" d="M99.79,178.52l-.41-.23c3.55,8.15-2.53,14.46-10.91,15.26,2.9.57,13.43.67,17.88-5.47C107.22,186.06,105.36,181.58,99.79,178.52Z"/>
      </g>
      <path class="b0710753-7266-4599-b591-27a79f30a7ee" d="M145.57,23.08c4.86,3.26,5.2,9.47,5.73,15.45,1,11.12-4.31,47.14,0,61.94,6.48,5.29,15.47,2.39,21.63,5.69a30.15,30.15,0,0,0,16.19,3.38c12.71-.79,27.62-3.59,32.07-14.56.76-11.61-4.38-23.66-9.37-35.62-4.45-10.68-7.09-19.69-17.07-25l-30.42-1.27Z"/>
      <path class="f488f943-eeda-49a5-a00e-c3c4595337aa" d="M147.51,23.41c4.86,3.15,5.2,9.14,5.73,14.9,1,10.73-4.31,45.46,0,59.74,6.48,5.1,15.47,2.3,21.63,5.49a31.25,31.25,0,0,0,16.2,3.26c12.7-.76,27.61-3.46,32.06-14,.76-11.2-4.38-22.82-9.36-34.35-4.46-10.3-7.1-19-17.08-24.12l-30.42-1.22Z"/>
      <path class="b5ace379-ae58-4eed-9cb2-13443a4fd0ac" d="M164.08,56.64s5.07,23.18,7.64,31.08S218,86,218,86L206.87,54.76Z"/>
      <path class="b5db6cb4-a82f-4623-8a67-38593b2a7120" d="M167.94,57.92s4.34,19.87,6.54,26.64,39.61-1.46,39.61-1.46L204.6,56.32Z"/>
      <path class="b5ace379-ae58-4eed-9cb2-13443a4fd0ac" d="M189.15,32.46c4.21-.47,11.7,2.67,14.79,5.18,1,.84,3.76,6.13,4.18,7.39,1.79,5.38,2.49,13.89,4.28,19.27-14.59,3.25-29.43,3.39-44.34,4.35-2.37.15-5.19.06-6.49-1.92a6.68,6.68,0,0,1-.81-3.31c-.63-9.5-.45-19.11-2.27-28.45-.7-3.59-2.88-7.48-6.05-9.3A66.36,66.36,0,0,0,189.15,32.46Z"/>
      <path class="ae82bb2f-a1de-47dc-a654-a6d3b4c8c8a3" d="M208.12,58.93c-12.38,2.72-25,2.84-37.64,3.64-2,.12-4.4,0-5.5-1.6a5.42,5.42,0,0,1-.69-2.72s0,0,0,0c-.19-2.88-.29-5.77-.42-8.66a98.91,98.91,0,0,0-1.5-15.08c-.59-3-1.66-5.13-4.35-6.64,9.51,4.75,20,5.69,30.37,4.55,3.58-.39,9.94,2.22,12.56,4.31.88.7,3.18,5.12,3.54,6.18a41.31,41.31,0,0,1,1.19,4.68c.41,2.07.78,4.27,1.19,6.35A39.41,39.41,0,0,0,208.12,58.93Z"/>
      <path class="f8f89034-18b6-4150-b19f-7668c6734ff2" d="M206.86,53.89a11.55,11.55,0,0,1-5.75.11A31.1,31.1,0,0,0,197,53c-3.09-.29-5.9,1.58-8.81,2.63a17.23,17.23,0,0,1-8.83.76c-2.26-.4-4.47-1.26-6.77-1.19-3,.1-5.63,1.72-8.34,3.08,0,0,0,0,0,0-.19-2.88-.29-5.77-.42-8.66,4.4-1.1,8.4-.66,13.11-.21A35.51,35.51,0,0,0,190.6,48c2.05-.62,4.11-1.44,6.25-1.34a40.13,40.13,0,0,1,4.7.9,14.58,14.58,0,0,0,4.12,0C206.08,49.61,206.45,51.81,206.86,53.89Z"/>
      <g>
        <path class="ef4392ab-71a7-4c8b-9c6c-03cfd778de55" d="M195.85,111.13c-1.52-3.19-4.43-7.34-10-12,0,0-13.55,7-11.7,15,1.23,5.26,11,5.1,17.53,4.39A5.19,5.19,0,0,0,195.85,111.13Zm-6.14,4.49c-4.52.49-11.35.6-12.21-3.06-1.29-5.54,8.15-10.44,8.15-10.44a25.92,25.92,0,0,1,6.93,8.35A3.62,3.62,0,0,1,189.71,115.62Z"/>
        <path class="e6b04e8c-a2b0-41bf-acca-9024ed73b801" d="M182.7,100.4l1.56,3.27s.78-2.39,2.93-.17l2.84-2.56S186.06,95.46,182.7,100.4Z"/>
      </g>
      <path class="ef4392ab-71a7-4c8b-9c6c-03cfd778de55" d="M182.42,67.85s3.27,19.27,2.77,31.66l2.19-.35s-.44-20.08-2.83-31.31"/>
      <path class="ae82bb2f-a1de-47dc-a654-a6d3b4c8c8a3" d="M122.17,89.67c0,18.63-12.54,33.73-28,33.73-9.87,0-18.55-6.15-23.54-15.44,7.43,6.1,16.44,8.56,24.7,5.83,14.7-4.86,21.47-24.32,15.14-43.47a46.32,46.32,0,0,0-6-12C114.82,63.21,122.17,75.4,122.17,89.67Z"/>
      <g>
        <g>
          <path class="e6b04e8c-a2b0-41bf-acca-9024ed73b801" d="M54,57.42A52.42,52.42,0,0,1,41,59.18c-7.76.1-17.44-1.58-24.4-8.9C6.58,39.7,11.49,21.66,15.17,13.9c1.27-2.68,2.38-4.13,2.69-3.65,1.45,2.23,0,14.87,0,14.87C18.19,46,52,40.77,52,40.77,56.65,46.07,54,57.42,54,57.42Z"/>
          <path class="baa3ed80-0ec9-43ef-a3ff-4e9fc61e3667" d="M42.35,51.48l-.53,6.92c-7.76.1-17.43-1.57-24.39-8.89C7.37,38.93,12.28,20.88,16,13.12c-1.52,6.09-2.91,16.42,1.66,25.61C24.62,52.83,42.35,51.48,42.35,51.48Z"/>
        </g>
        <path class="b82e71ae-f8d1-43d7-979b-fdbd07edc235" d="M37.92,57.46C32.51,59,29.05,61.67,24.56,67c-3,3.57-5.89,10.15-7.73,11.86,3.78,1.71,16.71.78,20.28-5.28C39,69.07,37.92,57.46,37.92,57.46Z"/>
        <g>
          <path class="f9194c1e-74f2-43b2-b8c9-401228681c2c" d="M24.18,75.2c1.3-3,8-10.63,13.41-11.46,0,2.63-.43,6.45-.9,7.13C33.66,72.89,27.35,75.59,24.18,75.2Z"/>
          <path class="bbf676ae-955e-403c-bb18-764ec7c53fc4" d="M24.67,74.26c3.47-2.31,5.65-6.57,10.11-7.78,1-.36.77,2,.16,3-1.77,2.79-7.33,4.61-10.7,5.59l-.06.12c3.17.39,9.48-2.31,12.51-4.33.47-.68.86-4.5.9-7.13C32.65,64.49,26.7,70.86,24.67,74.26Z"/>
          <path class="bc2a7ce7-aded-4c65-aacb-cb4b8d830523" d="M24.86,75.67a5.54,5.54,0,0,1-.73,0l-.57-.07.23-.53C25.11,72,31.85,64.17,37.52,63.31l.51-.08v.51c0,2.05-.35,6.47-1,7.38l0,.07-.07,0C34.14,73.09,28.39,75.67,24.86,75.67Z"/>
        </g>
        <g>
          <path class="a261b337-64d6-490d-98ce-2dee8f862b16" d="M104,59.27c-.77,6.92,1.07,12,3.34,18.92s2.38,20.22-6.06,26.82-18.2,7.6-22.23,11.28c-.94,5.69-2.53,12.11-10.46,13.4s-15.71.94-17.87-1.87-.36-8.43,1.37-11.39c.14-1.51-14.92-14.56-17.63-20.51S31,81.2,35.53,75.05c.22-4.43.44-17.89,5.73-23.11s30.06-8.67,41.85-6S104,59.27,104,59.27Z"/>
          <path class="bc2a7ce7-aded-4c65-aacb-cb4b8d830523" d="M107.33,78.19c-2.27-6.92-4.11-12-3.34-18.92,0,0-2.76,10-3.58,9.19C99.15,76.9,102.82,81.61,101,92c-1.7,9.4-10,15.36-19,17.52,0-2.6,0-4-1.29-6.27-3.89,7.35-3,17.73-10.81,22.05a24.11,24.11,0,0,1-19.52,1.3c1.08,4.26,10.66,3.92,18,2.72C76.18,128,78.1,122,79,116.29c4-3.68,13.8-4.69,22.23-11.28S109.6,85.11,107.33,78.19Z"/>
          <g>
            <path class="bc2a7ce7-aded-4c65-aacb-cb4b8d830523" d="M87.22,71.33C87.22,79.45,82.57,86,76.85,86S66.48,79.45,66.48,71.33s4.64-14.69,10.37-14.69S87.22,63.22,87.22,71.33Z"/>
            <path class="e1dd4b3e-0376-432b-b836-f5ae4270f452" d="M77.82,83c-2.91,0-5.27-3.25-5.27-7.25s2.36-7.26,5.27-7.26,5.27,3.26,5.27,7.26S80.72,83,77.82,83Zm0-13.86c-2.55,0-4.62,3-4.62,6.61s2.07,6.6,4.62,6.6,4.62-3,4.62-6.6S80.37,69.13,77.82,69.13Z"/>
            <path class="e46aded6-134a-4f69-bf83-ae6e9761571d" d="M76.8,86c-5.07,0-9.2-5.83-9.2-13s4.13-13,9.2-13S86,65.85,86,73,81.87,86,76.8,86Z"/>
          </g>
          <path class="e583ec01-cdbc-4ad1-804b-502b44c50f82" d="M79.1,118l-.85-.13a35.74,35.74,0,0,1,2.36-9.07S80,112.23,79.1,118Z"/>
        </g>
        <g>
          <path class="a57844d1-a980-4533-b58b-e1f52e74d14e" d="M56.35,111.89c-2.16,3.62-5.14,12.81,2.59,13.35s11.19-3.95,13.9-9.78,5.29-16.4,4-20.58C68.51,103.78,56.35,111.89,56.35,111.89Z"/>
          <g>
            <path class="af086972-d73d-470e-95fe-d64d2c2ea57b" d="M66.35,110.59c-8.89,2.9-10.59,8.81-10.58,13.62a6,6,0,0,0,3.17,1c7.73.54,11.19-3.95,13.9-9.78,2.37-5.14,4.66-13.91,4.3-18.8A34.78,34.78,0,0,1,66.35,110.59Z"/>
            <path class="b6d442b0-40ac-425d-9a97-50b5bda0b70b" d="M65.29,111.88l.54.68C62,115.6,63.08,121,63.1,121S61,115.26,65.29,111.88Z"/>
            <path class="b8e17dd9-0c4d-4703-8f79-1de1e4776a72" d="M60.18,125.55h0c-.41,0-.84,0-1.27,0a6.33,6.33,0,0,1-3.39-1.11l-.18-.13v-.21c0-6.89,3.61-11.58,10.8-13.93a34.34,34.34,0,0,0,10.6-13.64l.7-1.68.13,1.82c.37,4.94-1.95,13.76-4.34,18.9S67.55,125.55,60.18,125.55Z"/>
          </g>
        </g>
        <g>
          <path class="a57844d1-a980-4533-b58b-e1f52e74d14e" d="M56.4,109.61c-2.16,3.62-5.13,12.81,2.6,13.35s11.19-3.95,13.89-9.79,5.3-16.39,4-20.58C68.56,101.5,56.4,109.61,56.4,109.61Z"/>
          <g>
            <path class="af086972-d73d-470e-95fe-d64d2c2ea57b" d="M66.4,108.31c-8.89,2.9-10.59,8.81-10.57,13.62A6,6,0,0,0,59,123c7.73.54,11.19-3.95,13.89-9.79,2.38-5.13,4.67-13.9,4.31-18.79A34.92,34.92,0,0,1,66.4,108.31Z"/>
            <path class="b6d442b0-40ac-425d-9a97-50b5bda0b70b" d="M65.34,109.6l.54.68c-3.83,3-2.74,8.43-2.73,8.48S61.09,113,65.34,109.6Z"/>
            <path class="bfe79323-6267-4c04-acf6-8864b70d558c" d="M60.23,123.27h0c-.41,0-.84,0-1.26,0a6.36,6.36,0,0,1-3.4-1.11L55.4,122v-.21c0-6.89,3.62-11.58,10.81-13.93A34.44,34.44,0,0,0,76.8,94.2l.69-1.68.14,1.82c.36,4.94-1.95,13.76-4.35,18.9S67.6,123.27,60.23,123.27Z"/>
          </g>
        </g>
        <g>
          <path class="bc2a7ce7-aded-4c65-aacb-cb4b8d830523" d="M45.57,72.26C45,78.54,42.08,83.41,39,83.14s-5.16-5.57-4.61-11.85S37.87,60.14,41,60.4,46.12,66,45.57,72.26Z"/>
          <path class="e46aded6-134a-4f69-bf83-ae6e9761571d" d="M45.46,73.5C45,79.09,42.08,83.41,39,83.14s-5.21-5-4.72-10.62,3.39-9.92,6.49-9.65S46,67.9,45.46,73.5Z"/>
        </g>
        <g>
          <path class="e46aded6-134a-4f69-bf83-ae6e9761571d" d="M42.35,74.35a1.2,1.2,0,1,1-1.19-1.14A1.17,1.17,0,0,1,42.35,74.35Z"/>
          <path class="e46aded6-134a-4f69-bf83-ae6e9761571d" d="M40.49,79.52A.52.52,0,1,1,40,79,.5.5,0,0,1,40.49,79.52Z"/>
          <path class="b109035b-00f5-4403-be20-51b974cad621" d="M41.31,81.93h-.22a3.76,3.76,0,0,1-3-2.27,8.85,8.85,0,0,1-.86-4.76c.28-3.69,2.43-6.55,4.83-6.36s4.09,3.34,3.81,7S43.62,81.93,41.31,81.93Z"/>
        </g>
        <g>
          <path class="a181f115-2437-4723-ae1c-e2ee1043a1f1" d="M42.84,60.9s2.32,2.49,1.94,9.14S42.71,81.52,40.4,84.57c-3.29,4.34-9.88,6.49-9,11.17s14.52,20.47,30.85,17.77c7.24-2.16,13.41-7.89,16.65-20.44Z"/>
          <path class="f7b5b9f5-bd9f-4d62-9e42-c966df2f4a90" d="M33.48,95.45c.71-4.54,4.88-4.21,9.19-10.81,2.86-4.38,5.51-15.64,1.12-22.5a23.9,23.9,0,0,1,1,7.9c-.38,6.65-2.07,11.48-4.38,14.53-3.29,4.34-9.88,6.49-9,11.17A6.48,6.48,0,0,0,32,97.31,4.28,4.28,0,0,1,33.48,95.45Z"/>
          <path class="bc2a7ce7-aded-4c65-aacb-cb4b8d830523" d="M75.59,93.1c-9.24,20.28-23.32,11.6-37.53,11.83,5.69,5.25,14.46,10.19,24.18,8.58,7.24-2.16,13.41-7.89,16.65-20.44C78.89,93.07,75.93,92.35,75.59,93.1Z"/>
          <path class="e583ec01-cdbc-4ad1-804b-502b44c50f82" d="M58.43,114.26c-7.35,0-13.54-3.4-17.67-6.52-5.52-4.16-9.32-9.33-9.8-11.92-.59-3.24,2-5.31,4.8-7.5a23.74,23.74,0,0,0,4.29-4c2.47-3.25,4-8.19,4.3-14.29.36-6.36-1.51-9.12-1.51-9.12s2.76,2.38,2.37,9.17c-.36,6.27-1.9,11.37-4.47,14.76A24.4,24.4,0,0,1,36.3,89c-2.68,2.11-5,3.94-4.48,6.66.8,4.36,14.2,20.08,30.32,17.43,8.12-2.44,13.46-9,16.33-20.12l.84.21c-3,11.44-8.5,18.22-17,20.74l0,0A23.61,23.61,0,0,1,58.43,114.26Z"/>
          <path class="bf1d59eb-f7de-4be6-8dc1-3cc926772a96" d="M81.73,95.2a8.71,8.71,0,0,0-3-1.56,19.66,19.66,0,0,0-3.44-.57A6.68,6.68,0,0,1,79,92.8,4.87,4.87,0,0,1,81.73,95.2Z"/>
        </g>
        <g>
          <path class="a41a5f3a-6e64-4414-bb2c-66c1a985cbb5" d="M99.68,70A27,27,0,0,0,110.57,81.5c7.68,4.22,13.84,6,16.71,6.22-.82-1.46-3-5-3.57-6.16,1.94.59,6.7,4,7.94,5-.05-3.63-4.05-12.17-10.11-18.33s-14.18-6.69-21.46-6.61Z"/>
          <path class="f7b5b9f5-bd9f-4d62-9e42-c966df2f4a90" d="M131.64,86.31c-.24-3.77-4.19-12-10.1-18-5.43-5.53-12.53-6.52-19.19-6.61a3.18,3.18,0,0,1,.33,1.37C118.82,63,124.68,73.85,131.64,86.31Z"/>
          <path class="bc2a7ce7-aded-4c65-aacb-cb4b8d830523" d="M131.63,86.18c-2.4-3.46-7.45-6-10.87-8.26.41,2.83,1.54,4.15,2.84,6.32C114,82,106.25,77,99.75,70.15A27.25,27.25,0,0,0,110.57,81.5c7.68,4.22,13.84,6,16.71,6.22-.82-1.46-3-5-3.57-6.16,1.94.59,6.7,4,7.94,5C131.65,86.46,131.64,86.32,131.63,86.18Z"/>
          <path class="bc2a7ce7-aded-4c65-aacb-cb4b8d830523" d="M106.79,66.38c3.94.79,13.6,5.72,15.19,12.1-4-.11-13.31-3.92-17-8.12C103.92,69.23,104.3,65.94,106.79,66.38Z"/>
        </g>
        <g>
          <path class="ac24a94e-dc55-4041-a459-c76dd46dfc32" d="M100.55,44.85c.93.25,3,.65,3.44.7-.39-1.78-6.56-9.51-20-12.1-3.84-3.36-20.42-10.29-32.53,2.18-4.76,1.15-12,4.82-13.48,13s-.86,12.26,0,13.55c1.88-2.52,3.1-6.12,7.07-9.66-.29,2.67-1.66,8.37,1.8,12.19a18.29,18.29,0,0,1,2-6c-.15,2.89.46,12.18,5.6,15.92-.11-3,1.08-10.2,4.43-14.15-.21,1.57-.56,4.38-.11,5.41,1.19-1.95,9-7.52,11-12.17.22,2.33-1,6.76-2.27,8.81,2.59-.16,10.92-7.29,13.24-11.67.27,4.16,3.37,12,8.85,15.71a30.55,30.55,0,0,1-.58-11.53,33.94,33.94,0,0,0,7.57,10.09C96.26,58.84,97.62,47.89,100.55,44.85Z"/>
          <path class="b9853579-7ad0-45d1-b40c-8f585e206fa5" d="M104,45.55c-.18-.83-1.61-2.94-4.43-5.22C95,45.18,94.27,54.43,94.67,60.9c-2.4-2.35-4.75-7.07-5.62-11.4C87.32,53,87.11,57,86.24,60.42c-3-4.32-3.71-9.37-4.14-15-2.92,5-7.1,9.21-11,13.1.7-3.51,1.6-7.08-.56-10.11C68.8,53,64.62,57,60.73,60.42a21.61,21.61,0,0,1,.1-7c-2.59,4.76-6.81,8.25-8.32,15.21A68.27,68.27,0,0,1,50.78,52.2c-1.73,2.17-3.46,4.33-3.89,7.36-1.3-3.46-.44-6.92,0-10.38-3.9,1.29-6,5.68-8.16,8.71-.9-3.63-.8-5.91-.53-10.06-.06.27-.13.55-.18.84-1.51,8.22-.86,12.26,0,13.55,1.88-2.52,3.1-6.12,7.07-9.66-.29,2.67-1.66,8.37,1.8,12.19a18.29,18.29,0,0,1,2-6c-.15,2.89.46,12.18,5.6,15.92-.11-3,1.08-10.2,4.43-14.15-.21,1.57-.56,4.38-.11,5.41,1.19-1.95,9-7.52,11-12.17.22,2.33-1,6.76-2.27,8.81,2.59-.16,10.92-7.29,13.24-11.67.27,4.16,3.37,12,8.85,15.71a30.55,30.55,0,0,1-.58-11.53,33.94,33.94,0,0,0,7.57,10.09c-.36-6.34,1-17.29,3.93-20.33C101.48,45.1,103.5,45.5,104,45.55Z"/>
        </g>
        <g>
          <path class="e191177c-cc8f-48e5-b181-11a6b557d8bd" d="M26.45,92.64c4.4-.94,7,1,13,1.12s12.11-2.69,16.11-1.12,4.78,4.08,5.46,7.68c1.18,6.16,5.62,8.09,3.08,12.72s-8.27,5.44-13.51,4.63-9.14-3.19-11.19-2.43-4.09,4.69-8,3.78c-4.4-1-3.43-6.54-4.95-10-1.63-3.76-3.67-6.07-4-9.67S23.82,93.43,26.45,92.64Z"/>
          <g>
            <path class="a57844d1-a980-4533-b58b-e1f52e74d14e" d="M28.56,99.56c-.65,3-1.84,8.54,1.73,8.33S31.48,101.18,28.56,99.56Z"/>
            <path class="adfb2ccb-d049-4f84-9a4f-0bacd3d641bc" d="M30.1,100.9c.65,2.83.62,5.8-2.25,4.18.1,1.66.7,2.91,2.44,2.81C33.19,107.71,32.16,103.38,30.1,100.9Z"/>
          </g>
          <g>
            <path class="a57844d1-a980-4533-b58b-e1f52e74d14e" d="M50.75,101.49c.65,3,1.84,8.54-1.73,8.32S47.83,103.11,50.75,101.49Z"/>
            <path class="adfb2ccb-d049-4f84-9a4f-0bacd3d641bc" d="M50.84,101.91c0,2.33-.88,7.57-3.5,4.78-.33,1.64.06,3,1.68,3.12C52.43,110,51.5,105,50.84,101.91Z"/>
          </g>
        </g>
        <path class="e6b04e8c-a2b0-41bf-acca-9024ed73b801" d="M142,54.2c-16,14.22-45,6-45,6a25.26,25.26,0,0,1-.45-4.75c0-3.38.65-7.81,3.68-10.75,0,0,40,5.26,40.35-15.64,0,0-1.72-12.65,0-14.88.64-.83,4.14,4.17,6.44,11.23C149.92,34.22,150.91,46.3,142,54.2Z"/>
        <path class="baa3ed80-0ec9-43ef-a3ff-4e9fc61e3667" d="M141.66,54c-16,14.22-44.17,5.81-44.17,5.81a29,29,0,0,1-.43-4.88c13.19,2.93,26.86,1.84,39-4.11,3.53-1.72,6.35-3.72,8.45-7,3.13-4.92,2.54-12.58,1.92-18.38,0-.38,0,.37,0,0C149.3,34.18,150.54,46.05,141.66,54Z"/>
        <path class="b173160c-f556-4b68-8e20-4e62cf670e6e" d="M44,98.05c2.45,0,5.14-.17,6.95-1.82-1-.82-2.38-.7-3.63-.54-1.55.2-7.25,0-8.27,1.07C37.66,98.2,43.23,98.05,44,98.05Z"/>
        <ellipse class="b109035b-00f5-4403-be20-51b974cad621" cx="80.82" cy="76.14" rx="5.17" ry="7.01"/>
        <circle class="e46aded6-134a-4f69-bf83-ae6e9761571d" cx="78.64" cy="71.4" r="1.46"/>
        <circle class="e46aded6-134a-4f69-bf83-ae6e9761571d" cx="41.16" cy="70.15" r="1.46"/>
      </g>
    </g>
  </g>
</svg>
