<svg id="ebf98589-8c1f-4b31-8e46-73491af70026" data-name="Layer 1" xmlns="http://www.w3.org/2000/svg" width="384.75" height="247.32" viewBox="0 0 384.75 247.32">
  <defs>
    <style>
      .bbb7e18f-b386-4e8f-93cd-058f675894d2 {
        opacity: 0.5;
      }

      .a281c4cc-4ae7-4775-9233-2c7345d31878, .a9770479-352d-4a07-9fac-7cfe03d7ba6c, .b50a7702-3e53-4a5a-ab80-07f1a48a3493, .ba14afb6-3e75-48d9-8192-8daaf62a4a3e, .e311b745-b560-49fa-9708-7f90a2205bea, .f3c6c492-d22e-4716-8802-33312f7e0a81 {
        fill: #fff;
      }

      .ab51a5d5-a1a8-4417-b598-90f19be79ddc, .bd42dbd1-a47a-4f62-a99f-2babe4353f17, .ed0e805d-560d-41ed-8c9d-75384df839cf, .f4059e4f-a821-4fa0-a246-16632adf39fc, .f908eec7-9cd1-4d72-9bfe-c4c961175a14 {
        fill: #ff8a00;
      }

      .a63a3759-c221-4a6c-b322-a81910797924, .ab51a5d5-a1a8-4417-b598-90f19be79ddc, .b644f262-b0d3-4871-916e-22c9fbdf41d9, .ed0e805d-560d-41ed-8c9d-75384df839cf, .f4059e4f-a821-4fa0-a246-16632adf39fc, .f908eec7-9cd1-4d72-9bfe-c4c961175a14 {
        stroke: #5b1b02;
      }

      .a281c4cc-4ae7-4775-9233-2c7345d31878, .a63a3759-c221-4a6c-b322-a81910797924, .a9770479-352d-4a07-9fac-7cfe03d7ba6c, .ab51a5d5-a1a8-4417-b598-90f19be79ddc, .b124bb2d-1f18-4bd7-979c-0902105c0fb8, .b330d3eb-9e58-42bc-92e9-840fd0c1aa71, .b644f262-b0d3-4871-916e-22c9fbdf41d9, .ba14afb6-3e75-48d9-8192-8daaf62a4a3e, .e311b745-b560-49fa-9708-7f90a2205bea, .ed0e805d-560d-41ed-8c9d-75384df839cf, .f3c6c492-d22e-4716-8802-33312f7e0a81, .f4059e4f-a821-4fa0-a246-16632adf39fc, .f908eec7-9cd1-4d72-9bfe-c4c961175a14 {
        stroke-miterlimit: 10;
      }

      .ed0e805d-560d-41ed-8c9d-75384df839cf {
        stroke-width: 0.71px;
      }

      .a63a3759-c221-4a6c-b322-a81910797924 {
        fill: #c66c0a;
      }

      .a63a3759-c221-4a6c-b322-a81910797924, .ab51a5d5-a1a8-4417-b598-90f19be79ddc, .b644f262-b0d3-4871-916e-22c9fbdf41d9 {
        stroke-width: 0.75px;
      }

      .f4059e4f-a821-4fa0-a246-16632adf39fc {
        stroke-width: 0.48px;
      }

      .b73d7c3c-3f9c-48dc-96d9-5c4d21088041 {
        fill: #ff7a75;
      }

      .ebe5ed9b-cee6-41f9-85f3-eb202cb94f6f {
        fill: #ba6304;
      }

      .ff14dafb-7a0e-42a2-82b8-99131679f6f8 {
        fill: #6d1f0d;
      }

      .b9f716c1-7ea9-46e6-b5a4-1d1d0eb48c1c {
        fill: #590e0e;
      }

      .ae75a7f6-262b-4b13-84e1-152e3425c092, .b8e49400-630a-41b0-a53e-de92c8479b9c {
        fill: #ffde8c;
      }

      .b4c4d7fa-08ee-4b24-b574-fadb93dba498 {
        fill: #fbffff;
      }

      .b60b2232-0a83-4aee-82c9-574b28b349fd {
        fill: #130d14;
      }

      .b330d3eb-9e58-42bc-92e9-840fd0c1aa71 {
        fill: #6b0a0a;
        stroke: #2d0901;
        stroke-width: 0.5px;
      }

      .ae75a7f6-262b-4b13-84e1-152e3425c092 {
        opacity: 0.76;
      }

      .b04047ce-fc27-42a4-b5e9-6ea34ac9ba36 {
        fill: #091204;
      }

      .bec750d8-77b9-485c-8eff-fc8eabf48ec9 {
        fill: #b70f0f;
      }

      .a9770479-352d-4a07-9fac-7cfe03d7ba6c, .e311b745-b560-49fa-9708-7f90a2205bea {
        stroke: #4f2102;
      }

      .a9770479-352d-4a07-9fac-7cfe03d7ba6c {
        stroke-width: 0.64px;
      }

      .e311b745-b560-49fa-9708-7f90a2205bea {
        stroke-width: 0.61px;
      }

      .b124bb2d-1f18-4bd7-979c-0902105c0fb8 {
        fill: #4f2305;
        stroke-width: 0.35px;
      }

      .a281c4cc-4ae7-4775-9233-2c7345d31878, .b124bb2d-1f18-4bd7-979c-0902105c0fb8, .ba14afb6-3e75-48d9-8192-8daaf62a4a3e, .f3c6c492-d22e-4716-8802-33312f7e0a81 {
        stroke: #020b3f;
      }

      .a281c4cc-4ae7-4775-9233-2c7345d31878 {
        stroke-width: 0.07px;
      }

      .f3c6c492-d22e-4716-8802-33312f7e0a81 {
        stroke-width: 0.12px;
        opacity: 0.1;
      }

      .ba14afb6-3e75-48d9-8192-8daaf62a4a3e {
        stroke-width: 0.07px;
      }

      .f88c169d-35a5-46bc-a30e-8d573e594a4e {
        fill: #160b0c;
      }

      .b1f1ef63-2427-46a4-98e2-9c89287cfb98 {
        fill: #60110e;
      }

      .ebad3b46-ee2a-422c-86f8-1e1e45fc3806 {
        fill: #f5a954;
      }

      .f908eec7-9cd1-4d72-9bfe-c4c961175a14 {
        stroke-width: 0.51px;
      }

      .a043590c-5932-4987-a31f-4910a977e07c {
        fill: #ddb966;
      }

      .b644f262-b0d3-4871-916e-22c9fbdf41d9 {
        fill: none;
      }

      .fee066ff-45c5-4fcf-b027-ad29208088f7 {
        fill: #471201;
      }
    </style>
  </defs>
  <g>
    <path class="bbb7e18f-b386-4e8f-93cd-058f675894d2" d="M141.41,245.16c-1.45,0-2.62-.09-3.32-.16h-4.15c-.71,0-1.4-.08-2.14-.18a6.37,6.37,0,0,1-.78-.11c-5.14-.8-8.48-3.19-10.37-5.84a17.12,17.12,0,0,1-8.58,4.28,56.68,56.68,0,0,1-11.25,1.29h-.5a14.62,14.62,0,0,1-2.55.21,22.28,22.28,0,0,1-2.5-.15,14.61,14.61,0,0,1-2,.13,12.6,12.6,0,0,1-12-8.09c-.09-.22-.17-.44-.24-.67-2.26-7.38,0-16.74,8.59-20.37l2-.85c-.58-2-1.84-5.74-2.9-8.82-2.71-7.89-6.31-18.4-8-27.46a37.59,37.59,0,0,1-4.7-5,8.2,8.2,0,0,0-1.81,2.2l0,.08-.17.36-.12.3c0,.09-.07.2-.1.31l0,.18a3.29,3.29,0,0,0-.09.43l0,.16a2.46,2.46,0,0,0,0,.28,1.65,1.65,0,0,0,0,.27V178c0,.12,0,.23,0,.32a2.5,2.5,0,0,1,.06.38,1.23,1.23,0,0,1,0,.19,8,8,0,0,1-15,4.71,32.36,32.36,0,0,0-2.2-3.32,45.72,45.72,0,0,0-4.9-4.13A14.84,14.84,0,0,1,50.28,175,30.85,30.85,0,0,1,42,163.19a8,8,0,0,1-7.79-7.78l-.27-10.2c-.09-.48-.18-.85-.26-1.13a4.07,4.07,0,0,0-.33-.47c-.33-.25-.69-.49-1-.75s-1-.7-1.48-1.08a25.17,25.17,0,0,1-6.95-7.3,8,8,0,0,1-6.79-9.92c.29-1.23.73-5.29-.86-8.35l-.68-1.31C11.72,107.65,6,96.7,9.41,85.41c.88-2.9,1.89-5.64,2.87-8.06a8,8,0,0,1,2.34-12.83,23.19,23.19,0,0,0,7.11-5.41,8.72,8.72,0,0,0,.61-.89,30.17,30.17,0,0,1-1.57-7.92,16.67,16.67,0,0,1,4.77-12.15,17.64,17.64,0,0,1,8.65-5.07,48.77,48.77,0,0,1,11.65-13.2,13.3,13.3,0,0,1-.36-1.35A8,8,0,0,1,56.3,9.46a13,13,0,0,0,3.93.72,3.59,3.59,0,0,0,1.69-.29A23.11,23.11,0,0,1,73,7.16a24.51,24.51,0,0,1,18,7.91,26,26,0,0,1,15.63-4.73,39.65,39.65,0,0,1,5.54.41c.24,0,.47.08.7.14,1.2.28,11.73,3.1,18.44,15.46a2.3,2.3,0,0,0,1.57.77,3.84,3.84,0,0,0,1.1-.2,8,8,0,0,1,9.95,10.49,11.75,11.75,0,0,1-1.74,3,25.16,25.16,0,0,1,3.88,11c.07.75.18,1.62.3,2.57A16.89,16.89,0,0,1,151.13,60a18,18,0,0,1-.19,16.43l-.18.31a95.37,95.37,0,0,0,3.71,12.19,48.91,48.91,0,0,1,2.93,17.27c11.91,9,28.59,15.83,31.76,17.08,5.16,1.11,30.59,6.82,42.33,13.4a54.08,54.08,0,0,1,7.51,5,65.34,65.34,0,0,1,8.62-.57,68.5,68.5,0,0,1,14.22,1.52c17.7,3.78,27.56,11.74,36.25,18.75,7.36,6,13.82,11.16,24.75,13.82a30.81,30.81,0,0,1,32.82-2.4,7,7,0,0,1,.7.4c5.23,3.35,14.71,8.63,18.45,9.31a8,8,0,0,1,5.6,11.72c-.65,1.17-6.7,11.41-22.46,12.6a43.94,43.94,0,0,1-5.42.34,50.44,50.44,0,0,1-6.18-.4l-1.88-.26c-4.71-.55-15.9-2.4-22.21-7.93a22.17,22.17,0,0,1-2.09-1.82,59.2,59.2,0,0,1-38.3-19.31c-6.41-7-17.34-11.66-28.38-12.27,2.48,3.66,7.24,5,14,6.48,1.16.26,2.28.51,3.34.78,9.32,2.33,12.31,8.74,12.78,13.38l8.48,20.29c1.8,3.38,8.16,16.39,5.34,26-2,6.68-7.48,10.86-14.74,11.19h-.14l-.81,0c-.47,0-.91,0-1.33,0a19.44,19.44,0,0,1-13.9.61h-1.17a8,8,0,0,1-2.46-.39,14.1,14.1,0,0,1-9.53-9c-2.23-6.87,1.63-14,3.48-16.83a13.64,13.64,0,0,0-.12-7.73c-2.69-4.08-11.28-8.85-23.13-10.45h-.11a11.91,11.91,0,0,0,1.27,3.92c5.62,3.55,7.16,8.69,6.76,12.4-.19,2.57-1.49,10.3-10,19.32-6.53,6.9-13.21,8.35-17.66,8.35a19.11,19.11,0,0,1-2.39-.14,18.73,18.73,0,0,1-6,1,14.72,14.72,0,0,1-5.11-.88A14,14,0,0,1,186.62,228c0-.05,0-.1,0-.14a16.76,16.76,0,0,1,7.88-12.81,42.43,42.43,0,0,1-21.6-19.1l-1.32.1c-5,.48-9.2.82-12.57,1,.66,13.09,1.75,34.55,1.75,34.55a8.1,8.1,0,0,1-.78,3.87C157,241.73,150.41,245.16,141.41,245.16ZM125,217.39a18.46,18.46,0,0,1,1.6-1q-.87-2.23-1.92-5.38Z"/>
    <path class="b50a7702-3e53-4a5a-ab80-07f1a48a3493" d="M136.41,240.16c-1.45,0-2.62-.09-3.32-.16h-4.15c-.71,0-1.4-.08-2.14-.18a6.37,6.37,0,0,1-.78-.11c-5.14-.8-8.48-3.19-10.37-5.84a17.12,17.12,0,0,1-8.58,4.28,56.68,56.68,0,0,1-11.25,1.29h-.5a14.62,14.62,0,0,1-2.55.21,22.28,22.28,0,0,1-2.5-.15,14.61,14.61,0,0,1-2,.13,12.6,12.6,0,0,1-12-8.09c-.09-.22-.17-.44-.24-.67-2.26-7.38,0-16.74,8.59-20.37l2-.85c-.58-2-1.84-5.74-2.9-8.82-2.71-7.89-6.31-18.4-8-27.46a37.59,37.59,0,0,1-4.7-5,8.2,8.2,0,0,0-1.81,2.2l0,.08-.17.36-.12.3c0,.09-.07.2-.1.31l0,.18a3.29,3.29,0,0,0-.09.43l0,.16a2.46,2.46,0,0,0,0,.28,1.65,1.65,0,0,0,0,.27V173c0,.12,0,.23,0,.32a2.5,2.5,0,0,1,.06.38,1.23,1.23,0,0,1,0,.19,8,8,0,0,1-15,4.71,32.36,32.36,0,0,0-2.2-3.32,45.72,45.72,0,0,0-4.9-4.13A14.84,14.84,0,0,1,45.28,170,30.85,30.85,0,0,1,37,158.19a8,8,0,0,1-7.79-7.78l-.27-10.2c-.09-.48-.18-.85-.26-1.13a4.07,4.07,0,0,0-.33-.47c-.33-.25-.69-.49-1.05-.75s-1-.7-1.48-1.08a25.17,25.17,0,0,1-6.95-7.3,8,8,0,0,1-6.79-9.92c.29-1.23.73-5.29-.86-8.35l-.68-1.31C6.72,102.65,1,91.7,4.41,80.41c.88-2.9,1.89-5.64,2.87-8.06A8,8,0,0,1,9.62,59.52a23.19,23.19,0,0,0,7.11-5.41,8.72,8.72,0,0,0,.61-.89,30.17,30.17,0,0,1-1.57-7.92,16.67,16.67,0,0,1,4.77-12.15,17.64,17.64,0,0,1,8.65-5.07,48.77,48.77,0,0,1,11.65-13.2,13.3,13.3,0,0,1-.36-1.35A8,8,0,0,1,51.3,4.46a13,13,0,0,0,3.93.72,3.59,3.59,0,0,0,1.69-.29A23.11,23.11,0,0,1,68,2.16a24.51,24.51,0,0,1,18,7.91,26,26,0,0,1,15.63-4.73,39.65,39.65,0,0,1,5.54.41c.24,0,.47.08.7.14,1.2.28,11.73,3.1,18.44,15.46a2.3,2.3,0,0,0,1.57.77,3.84,3.84,0,0,0,1.1-.2,8,8,0,0,1,9.95,10.49,11.75,11.75,0,0,1-1.74,3,25.16,25.16,0,0,1,3.88,11c.07.75.18,1.62.3,2.57A16.89,16.89,0,0,1,146.13,55a18,18,0,0,1-.19,16.43l-.18.31a95.37,95.37,0,0,0,3.71,12.19,48.91,48.91,0,0,1,2.93,17.27c11.91,9,28.59,15.83,31.76,17.08,5.16,1.11,30.59,6.82,42.33,13.4a54.08,54.08,0,0,1,7.51,5,65.34,65.34,0,0,1,8.62-.57,68.5,68.5,0,0,1,14.22,1.52c17.7,3.78,27.56,11.74,36.25,18.75,7.36,6,13.82,11.16,24.75,13.82a30.81,30.81,0,0,1,32.82-2.4,7,7,0,0,1,.7.4c5.23,3.35,14.71,8.63,18.45,9.31a8,8,0,0,1,5.6,11.72c-.65,1.17-6.7,11.41-22.46,12.6a43.94,43.94,0,0,1-5.42.34,50.44,50.44,0,0,1-6.18-.4l-1.88-.26c-4.71-.55-15.9-2.4-22.21-7.93a22.17,22.17,0,0,1-2.09-1.82,59.2,59.2,0,0,1-38.3-19.31c-6.41-7-17.34-11.66-28.38-12.27,2.48,3.66,7.24,5,14,6.48,1.16.26,2.28.51,3.34.78,9.32,2.33,12.31,8.74,12.78,13.38l8.48,20.29c1.8,3.38,8.16,16.39,5.34,26-2,6.68-7.48,10.86-14.74,11.19h-.14l-.81,0c-.47,0-.91,0-1.33,0a19.44,19.44,0,0,1-13.9.61h-1.17a8,8,0,0,1-2.46-.39,14.1,14.1,0,0,1-9.53-9c-2.23-6.87,1.63-14,3.48-16.83a13.64,13.64,0,0,0-.12-7.73c-2.69-4.08-11.28-8.85-23.13-10.45h-.11a11.91,11.91,0,0,0,1.27,3.92c5.62,3.55,7.16,8.69,6.76,12.4-.19,2.57-1.49,10.3-10,19.32-6.53,6.9-13.21,8.35-17.66,8.35a19.11,19.11,0,0,1-2.39-.14,18.73,18.73,0,0,1-6,1,14.72,14.72,0,0,1-5.11-.88A14,14,0,0,1,181.62,223c0-.05,0-.1,0-.14a16.76,16.76,0,0,1,7.88-12.81,42.43,42.43,0,0,1-21.6-19.1l-1.32.1c-5,.48-9.2.82-12.57,1,.66,13.09,1.75,34.55,1.75,34.55a8.1,8.1,0,0,1-.78,3.87C152,236.73,145.41,240.16,136.41,240.16ZM120,212.39a18.46,18.46,0,0,1,1.6-1q-.87-2.23-1.92-5.38Z"/>
    <g>
      <path class="ed0e805d-560d-41ed-8c9d-75384df839cf" d="M198.56,164.2S220,138,255.17,145.47,290,178.23,330.85,180l-.91,3.39a52.19,52.19,0,0,1-47.18-16.32c-15-16.36-53.29-25.39-77.61,6l-4.94.91-4.45-6.9Z"/>
      <path class="a63a3759-c221-4a6c-b322-a81910797924" d="M171.75,179.63s4.83,19.64,25.46,24.46c0,0,10.49,2.5,13.32,4.66v3.33a58,58,0,0,0-6,1.6c-3.27,1.06-13.77.53-14.92,10.15,0,0-.7,7,7.59,6.71,0,0,2.83,2.21,8.48-.53,0,0,7.23,2.83,15-5.38s7.86-14.57,7.86-14.57.53-2.82-3.44-5.12-6.8-14.56-3.36-20.3-1.84-11.17-1.84-11.17l-23.22-4.32-16.31,2.22Z"/>
      <path class="a63a3759-c221-4a6c-b322-a81910797924" d="M110.14,175.12l2.41,47.44s.16,6.26-7.08,7.74-11,1.08-11,1.08-.84.59-4.36,0c0,0-4.63,1.47-6.39-2.86,0,0-2.43-7.93,4-10.65s7.42-2.79,7.2-7.64-11.39-30.12-12-44.66Z"/>
      <path class="ab51a5d5-a1a8-4417-b598-90f19be79ddc" d="M70.23,141.54s-.76,21.15,21.48,33.09,66.12,9.07,66.12,9.07,41.44-5.33,47.62-3.74a104.4,104.4,0,0,0,24.18,6.61c12.8,1.73,25,7.2,29.35,15,0,0,3,7.34,0,14.82,0,0-8.32,11.41,1.34,14.53h2.43a1.2,1.2,0,0,1,.48.11,11.53,11.53,0,0,0,10.71-1s8.64,2.16,10.79-5.18-4.89-20.29-4.89-20.29l-9.21-22s.72-5.47-6.76-7.34-18.42-3-23.17-12.52-4-16.1-18.12-24C210.92,132.13,181.86,126,181.86,126s-34.07-12.85-45.1-29.15C136.76,96.82,70,129.62,70.23,141.54Z"/>
      <g>
        <g>
          <path class="f4059e4f-a821-4fa0-a246-16632adf39fc" d="M31.83,57.9s6.87-5.59,9.86-10.73c0,0,.93-8.54-6.55-11.12-5.82-2-11.67,3.92-11.38,8.87C23.76,44.92,24.29,56.29,31.83,57.9Z"/>
          <path class="b73d7c3c-3f9c-48dc-96d9-5c4d21088041" d="M30.42,40.43S36.27,38,40.26,49c0,0-3.55,3.29-7.61,3.85C32.65,52.8,24.56,44,30.42,40.43Z"/>
        </g>
        <path class="ebe5ed9b-cee6-41f9-85f3-eb202cb94f6f" d="M30,40.66s6.19-1.36,8.46,8.25a7.23,7.23,0,0,0,1.33-1,46.31,46.31,0,0,0-2.4-4.75C36.59,41.89,33.66,38.1,30,40.66Z"/>
        <path class="ebe5ed9b-cee6-41f9-85f3-eb202cb94f6f" d="M24.75,41.64a25.34,25.34,0,0,0,2.52,10.87l-1.07.63a20.76,20.76,0,0,1-1.58-4.3S23.07,43.76,24.75,41.64Z"/>
      </g>
      <path class="ff14dafb-7a0e-42a2-82b8-99131679f6f8" d="M85.21,24S88.5,11.12,106,13.67c0,0,8.35,2,13.55,12a10.31,10.31,0,0,0,11.9,3.82s-1.37,3.54-7.25,3.4c0,0,8.07,5.77,8.89,14.21s4.69,29.19,8.94,39.78,5.21,40.28-18.92,51c0,0-3.42,6.78-10.58,8.51,0,0-21.29,4.65-27.33,14.53,0,0-1.1-4.52,1.67-6.9,0,0-3.67,2.86-11.73,3.69s-15.79,9.05-14.34,17c0,0-4.12-7.58-8.78-9.73s-10.69-16-10.51-24.51,1.7,8.1-4.34,9.66c0,0,1.13-13.48-2.83-17s-11.52-5.71-11-19.76c0,0,0,6.4-3.58,8.09,0,0,1.88-7.43-1.52-14s-8.87-16.07-6.23-24.8a94.4,94.4,0,0,1,6.61-16s-4.53.38-5.66,0c0,0,6.23-2.91,10-7.71s8.87-19.44,11.89-24.91S43.55,20.86,53.3,16.76c0,0-4.29-1.56-5-4.88,0,0,7.25,2.93,12.51,0S79.05,8,85.21,24Z"/>
      <path class="b9f716c1-7ea9-46e6-b5a4-1d1d0eb48c1c" d="M79.09,37.15S64.4,22,52.65,35.89,46.36,59.81,32.93,68.62a12,12,0,0,0,7.76-2.52s-13.64,7.77-3.78,35.67c0,0,2.94-5.45,2.94-9.86a12.52,12.52,0,0,0,5.25,9.86c5.45,4,4.82,13.22,3.56,16.37,0,0,2.94-1,4-5.24l22.87,5.24,12.59-1s-4.61,8.19-2.94,13.22c0,0,4.62-8.6,8.82-9.86s10.49-5.25,10.49-5.25-2.1,10.08-5.25,12.8c0,0,13.22-7.55,15.53-19.93l2.31-12.38h0a8.21,8.21,0,0,1,1.47,4.83c-.21,2.51,2.09-9.24-1.89-14.9a18.09,18.09,0,0,1-2.94-12.17s2.73,11.12,8.6,13.43l-1.26-3.57s7.56,8.6,13.22,9.65c0,0,.63-2.94-4.4-7.13s-11.12-9.44-11.75-17.42c0,0-1.26,5.67,1.47,10.07,0,0-7.14-7.55-7.14-16.36s2.1-21.2-6.5-28.33-17,1.68-17,1.68a6,6,0,0,1,2.94-3.78l-2.73.21s2-2.94,3.62-4.75A20.1,20.1,0,0,0,86.69,34s3.79-4.54.85-7.06a26,26,0,0,1-2.33,5.65L84,26.17s1,5.56-1.24,6.19c0,0-2.53-5.76-4.21-7,0,0,2.69,2.57,2.06,8.66a16,16,0,0,1-2.31-4A14.24,14.24,0,0,0,79.09,37.15Z"/>
      <path class="bd42dbd1-a47a-4f62-a99f-2babe4353f17" d="M50.15,66.21S48.39,39.77,74,37.78a9.69,9.69,0,0,1,5,1.08c1.12.66,3,2.32,4.84,2.47a36.7,36.7,0,0,0,8.28-.54s13.81-2.27,17.46,15.56c2.65,12.89-4.36,25.84-4.36,25.84S119.6,100,96,112.59c0,0-13.11,3.32-16.16,11.21l-22.56-3.48-3-9.28A9.47,9.47,0,0,0,50.15,102C45,98.27,37.33,87.36,40.58,78.54S50.15,66.21,50.15,66.21Z"/>
      <path class="b8e49400-630a-41b0-a53e-de92c8479b9c" d="M56.08,106.27s-.72,7.4,5.49,8.35,11.45,1,16-5.25,10-15.75,10-15.75S82.33,107,82.09,116.06s-5.25,15-17.9,14.79c0,0-10.16-.64-12.79-8.27a16.33,16.33,0,0,1,1.71-10.86S55.74,107.82,56.08,106.27Z"/>
      <path class="b4c4d7fa-08ee-4b24-b574-fadb93dba498" d="M58.39,101.47s4,3,13.72,1.76,9-6.29,9-6.29H63.88l-6.17.48Z"/>
      <path class="b60b2232-0a83-4aee-82c9-574b28b349fd" d="M55.9,101.47l.76,7,3.17,4.68h8.75l6.61-1.42,4.26-5.42s6.49-10.1,7.28-12.16l-3.07-.5-16.34.5S54.39,95.63,55.9,101.47Z"/>
      <path class="b8e49400-630a-41b0-a53e-de92c8479b9c" d="M54.76,83S47.16,86.22,50,93.62s11.32,6.55,13,4.11v-3s-.86,6,4,6.6,11.61-.19,19.64-7.7c0,0-2.75-6.35-12.06-5.35L61.5,86.83Z"/>
      <path class="b330d3eb-9e58-42bc-92e9-840fd0c1aa71" d="M56.38,79.77s5.44,5.93,20,4.33c0,0,1.56,4.12-6.43,7.25,0,0-2.69,1.74-4.18,2.73-3.62,2.4-5.4-.46-5.4-.46s-1.45-3.54-2.59-4.52S53.32,82.67,56.38,79.77Z"/>
      <path class="ae75a7f6-262b-4b13-84e1-152e3425c092" d="M83.61,81.06S73,68.4,87.58,56.8c0,0,7.19-2.5,8.22,4.31,2.63,17.35-3.7,16.2-5.69,19.18Z"/>
      <path class="b04047ce-fc27-42a4-b5e9-6ea34ac9ba36" d="M87.58,56.8s6.27-1.18,8.63,7.47c0,0,2-7.87-3.15-10.81S87.58,56.8,87.58,56.8Z"/>
      <path class="ae75a7f6-262b-4b13-84e1-152e3425c092" d="M51.11,67.25A24.32,24.32,0,0,1,57,51.7c6.24-7,11,.18,11,.18s.27,16.78-5.94,19.65Z"/>
      <path class="b8e49400-630a-41b0-a53e-de92c8479b9c" d="M91,153.71s.73,11,44.47,15.44,61.94,4.39,61.94,4.39l8,6.42a149.63,149.63,0,0,0-22.29.89c-13.51,1.43-31.21,3.69-37.72,3.15s-30-.85-38.16-3.8c0,0-18.15-3.56-29.47-16.6a15.42,15.42,0,0,1-4.22-7.72l7.54-.74Z"/>
      <path class="b04047ce-fc27-42a4-b5e9-6ea34ac9ba36" d="M68.06,51.88s1.33-3.34,0-5.7-9.79,0-11.36,5.7C56.7,51.88,65.26,47,68.06,51.88Z"/>
      <path class="bec750d8-77b9-485c-8eff-fc8eabf48ec9" d="M59.83,108.58s6.06-6.37,16.69-4.43c0,0,2.73.32,1.48,3.17s-11.3,4.92-11.3,4.92l-6.87-.54Z"/>
      <path class="b04047ce-fc27-42a4-b5e9-6ea34ac9ba36" d="M54.52,98.63s1.89,4.91,1.54,8.77c0,0-1,7.26,7.52,7.5s10.91-.84,14.75-6.6,9.25-14.68,9.25-14.68h-.85s-6.75,12.84-11.28,16-12,4.55-17.06.28a53.18,53.18,0,0,1-.88-6.54C57.51,101.46,54.52,98.63,54.52,98.63Z"/>
      <path class="b4c4d7fa-08ee-4b24-b574-fadb93dba498" d="M54.52,98.63l3.1,6.4s1.44,2.41,1.14-5.57A11,11,0,0,1,54.52,98.63Z"/>
      <path class="b4c4d7fa-08ee-4b24-b574-fadb93dba498" d="M70.23,101.46,71.71,107s1.08,2.48,2.28-6C74,101,71.05,101.47,70.23,101.46Z"/>
      <path class="b4c4d7fa-08ee-4b24-b574-fadb93dba498" d="M58.39,109.94s.45-4,1.53-5,1.35,6.72,1.35,6.72S58.54,110.74,58.39,109.94Z"/>
      <path class="b4c4d7fa-08ee-4b24-b574-fadb93dba498" d="M69.56,112.24s.39-4.82.67-5.81,2,3.16,2.44,4.79A9.93,9.93,0,0,1,69.56,112.24Z"/>
      <path class="b4c4d7fa-08ee-4b24-b574-fadb93dba498" d="M57.94,107.32s6.23,6.09,18.58,0a8.85,8.85,0,0,0,2.58-3l.35,1.1s-2.72,4.52-6.78,5.85c-3.11,1-7.1,2.27-11.4.48C61.27,111.7,56.66,110.57,57.94,107.32Z"/>
      <ellipse class="a9770479-352d-4a07-9fac-7cfe03d7ba6c" cx="88.36" cy="70.99" rx="9.33" ry="7.43" transform="translate(3 145.56) rotate(-79.92)"/>
      <ellipse class="e311b745-b560-49fa-9708-7f90a2205bea" cx="58.24" cy="64.27" rx="8.98" ry="6.93" transform="translate(-19.85 101.99) rotate(-73.6)"/>
      <ellipse class="b124bb2d-1f18-4bd7-979c-0902105c0fb8" cx="88.15" cy="72.12" rx="5.13" ry="4.16" transform="translate(1.71 146.28) rotate(-79.92)"/>
      <ellipse class="b04047ce-fc27-42a4-b5e9-6ea34ac9ba36" cx="88.19" cy="72.52" rx="2.95" ry="2.5" transform="translate(-3.75 140.21) rotate(-75.79)"/>
      <ellipse class="a281c4cc-4ae7-4775-9233-2c7345d31878" cx="85.76" cy="71.18" rx="0.93" ry="0.88" transform="translate(5.54 148.55) rotate(-83.66)"/>
      <circle class="f3c6c492-d22e-4716-8802-33312f7e0a81" cx="89.55" cy="69.4" r="1.54"/>
      <g>
        <ellipse class="b124bb2d-1f18-4bd7-979c-0902105c0fb8" cx="59.23" cy="66.79" rx="4.94" ry="3.88" transform="translate(-21.57 104.75) rotate(-73.6)"/>
        <ellipse class="b04047ce-fc27-42a4-b5e9-6ea34ac9ba36" cx="59.39" cy="67.14" rx="3.09" ry="2.29" transform="translate(-21.79 105.15) rotate(-73.6)"/>
        <ellipse class="ba14afb6-3e75-48d9-8192-8daaf62a4a3e" cx="57.4" cy="65.48" rx="0.89" ry="0.84" transform="translate(-14.02 115.3) rotate(-83.66)"/>
        <circle class="f3c6c492-d22e-4716-8802-33312f7e0a81" cx="60.54" cy="63.8" r="1.54"/>
      </g>
      <path class="ebe5ed9b-cee6-41f9-85f3-eb202cb94f6f" d="M69.81,84.16s6.59-2.39,7.45-6.24c0,0,.49,4.32-.61,6A68.38,68.38,0,0,1,69.81,84.16Z"/>
      <path class="ebe5ed9b-cee6-41f9-85f3-eb202cb94f6f" d="M82.18,114.47a30,30,0,0,1,10.15-5.58c6-1.88,16-7.51,16.37-19.75,0,0,3.3,9.19-2.91,15.75S97.6,112,91.62,114.1s-9.76,6-10.49,7.69C81.13,121.79,82.49,116.14,82.18,114.47Z"/>
      <path class="ebe5ed9b-cee6-41f9-85f3-eb202cb94f6f" d="M54.07,110.23s1.85-2.78,2-4a26.26,26.26,0,0,0-1.56-7.64c-.46-.88-1.09.5-4.06-4.28-.66-1.08-9.11-5.21-10.6-10a20,20,0,0,0,2.52,8.14,33,33,0,0,0,9.36,10.86C54.52,105.46,54.07,110.23,54.07,110.23Z"/>
      <path class="b8e49400-630a-41b0-a53e-de92c8479b9c" d="M56.5,79.4s1.52-5.82,8.74-8.17C65.24,71.23,57.73,76.71,56.5,79.4Z"/>
      <path class="f88c169d-35a5-46bc-a30e-8d573e594a4e" d="M81.53,81.6s8.74-.89,13.66-1.58C95.19,80,86.2,79.55,81.53,81.6Z"/>
      <path class="f88c169d-35a5-46bc-a30e-8d573e594a4e" d="M49.33,70s6.57,3.6,10.37,5.47C59.7,75.49,53.75,70.66,49.33,70Z"/>
      <path class="b1f1ef63-2427-46a4-98e2-9c89287cfb98" d="M13.7,66.52s8.36-1.68,11.19-4.78a10,10,0,0,1-6.33,4.78S14.29,67.13,13.7,66.52Z"/>
      <path class="b9f716c1-7ea9-46e6-b5a4-1d1d0eb48c1c" d="M19.81,121.53s4.39-5.83,2.28-16.76c0,0,1.72,4.86,4,14.43s9.48,11,9.48,11,2.55.81,2.89,9.31-1.25,10.7-1.25,10.7.64-9.95-1.06-14a12.33,12.33,0,0,0-5.61-5.86s-4.63-3.08-5.72-7a58.29,58.29,0,0,1-1.4-9.86S23.52,119.56,19.81,121.53Z"/>
      <path class="b9f716c1-7ea9-46e6-b5a4-1d1d0eb48c1c" d="M31.92,121.08a17.24,17.24,0,0,0,2.12,9.2l2,2.45.88,6.47.3,11s3.39-.31,4.4-7.75c0,0,.42,15.25,9.77,22.21s9.46,10.12,9.46,10.12-2.44-10.24,11.35-16.38c0,0,9.52-1,14.72-4.33,0,0-2.95,1.84-1.67,6.9,0,0,4.84-7.36,18.16-11.81s16.25-4,19.75-11.23c0,0,14.43-2.72,19.62-23.57,0,0-7.18,13.38-14.21,15.15,0,0,6.83-11,6.06-17.06,0,0-4.65,15.87-12.25,17.95,0,0,1.41-1,1.9-5.37s-1,10-10.56,13.77a10.32,10.32,0,0,0,1.59-3.3c.21-1.36-2.87,6.33-9.23,8.11s-13.75,4.82-16.42,6.59c0,0,3.28-2.95,3.57-5.74,0,0-5.59,7.68-14.46,9s-13.38,2.76-17.24,9.45c0,0,1.12-6.41,4.12-8.81,0,0-5.33,2.78-5.61,7.18,0,0-1-8.91-5.5-11.63,0,0,2.94,6.67,1.68,12.06a24.85,24.85,0,0,1-10.9-12.53s-3.65-7.84-3.46-10.43-3.62-9-2.67-15.41a18.35,18.35,0,0,0-.41,11l.12.45C40.75,141.13,32.34,123.5,31.92,121.08Z"/>
      <path class="ebad3b46-ee2a-422c-86f8-1e1e45fc3806" d="M51.11,95.35s7.45,4,11.88-.07c0,0,4.29,6,16.88,3.42a21.1,21.1,0,0,1-10.79,3.24c-5.08-.06-5.38-1.67-5.93-4.64,0,0-.14,3-6.49,2C52.18,98.63,51.11,95.35,51.11,95.35Z"/>
      <path class="ebad3b46-ee2a-422c-86f8-1e1e45fc3806" d="M53,125.57s18.51,4.29,23.48-2.93,5.5-18.35,8.9-22.81c0,0-2.87,9.69-3.13,13.5s-.06,11.18-5.77,14.62S58.93,133.36,53,125.57Z"/>
      <g>
        <g>
          <path class="f908eec7-9cd1-4d72-9bfe-c4c961175a14" d="M121.84,60.45s-.15,10.1,4.83,14c0,0,8.14.31,12.32-7,2.84-5-.59-13.16-5.45-13.41C133.54,54.06,124,53.48,121.84,60.45Z"/>
          <path class="b73d7c3c-3f9c-48dc-96d9-5c4d21088041" d="M135.65,62s1.75,8.16-10.41,10.71c0,0-2.94-4.24-2.91-8.61C122.33,64.09,132.81,55.27,135.65,62Z"/>
          <path class="ebe5ed9b-cee6-41f9-85f3-eb202cb94f6f" d="M123.09,68a7.6,7.6,0,0,1,4-2.66,3.71,3.71,0,0,0-3.3,0s7.76-7.93,11.85-3.52c0,0-.92-4.08-6.09-2.11,0,0-5.6,2-7.23,4.21C122.37,63.93,122.25,66.67,123.09,68Z"/>
        </g>
        <path class="ebe5ed9b-cee6-41f9-85f3-eb202cb94f6f" d="M126.31,73.46c0,.13-.32.1.12.41l.41.4c2.64-.18,2.38,0,6.26-1.63,3.66-1.5,5.42-6.21,5.42-6.21C134.69,72.55,127.78,73.3,126.31,73.46Z"/>
      </g>
      <path class="a043590c-5932-4987-a31f-4910a977e07c" d="M74.59,158.06s15.86,15.32,47.7,17.5,79.27.84,79.27.84l3.89,3.56s-13.1.12-19.74.93-35.18,4.29-40.27,3.11l-24.37-.84s-27.39-2.9-39.35-15.63C81.72,167.53,76.29,163.17,74.59,158.06Z"/>
      <path class="ab51a5d5-a1a8-4417-b598-90f19be79ddc" d="M112,150.19s13,49.62,18.05,60.73c0,0,1.38,4.88-1.23,6.32,0,0-9.79,1.57-7.18,11,0,0,.65,3.52,7.57,3.79h4.31s11.1,1.56,14.24-5c0,0-2.09-41.13-2.22-44.26s.78-38.91-3.92-44.92"/>
      <path class="b644f262-b0d3-4871-916e-22c9fbdf41d9" d="M269.63,219s-3.16,10.09,7.66,11.29"/>
      <path class="b644f262-b0d3-4871-916e-22c9fbdf41d9" d="M261.37,220s-4,10.1,5.31,11.83"/>
      <path class="b644f262-b0d3-4871-916e-22c9fbdf41d9" d="M133.63,220.65s-7.29,5.35-.64,11.24"/>
      <path class="b644f262-b0d3-4871-916e-22c9fbdf41d9" d="M129,219.93s-7.69,4.91-1.44,11.92"/>
      <path class="b644f262-b0d3-4871-916e-22c9fbdf41d9" d="M96,220.65s-7,4-1.53,10.73"/>
      <path class="b644f262-b0d3-4871-916e-22c9fbdf41d9" d="M92.34,218.37s-5.3,2.28-4.81,7.09c.47,4.58,2.54,5.92,2.54,5.92"/>
      <path class="b644f262-b0d3-4871-916e-22c9fbdf41d9" d="M208,217.93s-8.39,3-2.34,12.08"/>
      <path class="b644f262-b0d3-4871-916e-22c9fbdf41d9" d="M200.68,216.51s-5.22,2-5.13,7.46,1.62,6.57,1.62,6.57"/>
      <path class="ab51a5d5-a1a8-4417-b598-90f19be79ddc" d="M192.79,168.29s8.8,10.6,16,13"/>
      <path class="b644f262-b0d3-4871-916e-22c9fbdf41d9" d="M74.59,158.06s1.57,10.09,23.12,19.37c0,0,17.09,5.86,23.36,5.73"/>
      <path class="b644f262-b0d3-4871-916e-22c9fbdf41d9" d="M145.44,184s20.21-.19,35.78-2.52c17.17-2.57,24.23-1.52,24.23-1.52"/>
      <path class="fee066ff-45c5-4fcf-b027-ad29208088f7" d="M319.26,179.46s11.59-12.74,27.77-4.52c0,0,14.29,9.17,21.36,10.45,0,0-7.27,10.81-26,8.45S316.31,184.44,319.26,179.46Z"/>
      <path class="f88c169d-35a5-46bc-a30e-8d573e594a4e" d="M318.83,180.4s3.77,7.35,22.64,10.1,26.92-5.11,26.92-5.11-4.19,7.64-16.19,8.49-25-2.06-29.83-6.45S318.4,181.34,318.83,180.4Z"/>
      <path class="f88c169d-35a5-46bc-a30e-8d573e594a4e" d="M319.91,178.82s8.19,3.35,13.2,3.06c0,0-4.75,4.17-14.49-1A3.43,3.43,0,0,1,319.91,178.82Z"/>
    </g>
  </g>
</svg>
