<svg id="f0666a05-f3bb-4dbb-b524-bcf2afeeeffb" data-name="Layer 1" xmlns="http://www.w3.org/2000/svg" width="241.69" height="260.79" viewBox="0 0 241.69 260.79">
  <defs>
    <style>
      .a22f9715-3563-4ccf-a70a-6a1a03a4f2e7 {
        opacity: 0.5;
      }

      .ad8616e4-eeb3-4048-8e1e-2a9fa090360c {
        fill: #fff;
      }

      .a430ace0-d8ed-44b2-af51-c0dc3710767b, .ba31e2a7-69df-4324-8735-837c16eae49d {
        fill: #c7c2b5;
      }

      .a120f2ac-ed48-4c9c-88a5-f412175bd707, .a66fbb81-0c00-4312-b6f3-2e89b8d8afa1, .b127fe7c-f911-4ff9-829a-4f2872406cf8, .ba31e2a7-69df-4324-8735-837c16eae49d, .ec38b60e-b435-4fed-9101-4eacae2f3063, .ee17520d-82b9-4c14-b6df-6a098d6f1416 {
        stroke: #333;
        stroke-miterlimit: 10;
      }

      .a120f2ac-ed48-4c9c-88a5-f412175bd707, .ab4de80e-9bdb-4011-9dcf-bbd4633c3897 {
        fill: #f4f0df;
      }

      .a854160a-8903-43dd-861c-aa50e32ae50d, .b127fe7c-f911-4ff9-829a-4f2872406cf8 {
        fill: #df771f;
      }

      .a66fbb81-0c00-4312-b6f3-2e89b8d8afa1, .a8703371-6b1a-4bb4-9f3e-c11aa6933dc9 {
        fill: #ff912a;
      }

      .e79f68cc-8665-4fdb-a6b0-45bfeb0eafe3 {
        fill: #2c1f21;
      }

      .b1f2cc69-0b5e-41f3-9f6d-e48666991cf8 {
        fill: #ffdd7c;
      }

      .aa806772-ffdb-4d90-8cf6-7462ad5d5b04 {
        fill: #ceb062;
      }

      .accf73ca-c0a4-4d4e-951e-ada716d5b45f {
        fill: #613e40;
      }

      .a03a9710-9b15-4066-948b-0a20386be119 {
        fill: #2e1e20;
      }

      .a1261be5-2285-40e4-bff1-fb5be71b0011 {
        fill: #4a9544;
      }

      .a2cd007e-84d0-48ff-a8cb-f4e4ab316c81 {
        fill: #347230;
      }

      .ec38b60e-b435-4fed-9101-4eacae2f3063, .ee17520d-82b9-4c14-b6df-6a098d6f1416 {
        fill: none;
      }

      .ec38b60e-b435-4fed-9101-4eacae2f3063 {
        stroke-width: 0.99px;
      }
    </style>
  </defs>
  <g>
    <g class="a22f9715-3563-4ccf-a70a-6a1a03a4f2e7">
      <path d="M114.52,255.39a17.93,17.93,0,0,1-1.8-.09,15.61,15.61,0,0,1-4.09-1,16.66,16.66,0,0,1-4.83.72c-.48,0-1,0-1.43-.06a15.33,15.33,0,0,1-5.62-1.59l-.89,0c-2.45,0-7-.48-10-3.67a12,12,0,0,1-2.17-3.14,7.38,7.38,0,0,1-1,.59,18,18,0,0,1-2.44,1.07,43.87,43.87,0,0,1-14.41,2,55,55,0,0,1-9.15-.68,17.18,17.18,0,0,1-2.47-.65h0a18.8,18.8,0,0,1-4.48-.58h0a15.18,15.18,0,0,1-9.53-3.66,13.24,13.24,0,0,1-4.36-11.2,28.82,28.82,0,0,1,.65-4.31c0-.3.09-.6.16-.91,2-8.2,6.48-13.56,12.3-14.71a16.89,16.89,0,0,1,3.18-.31h.72a18.09,18.09,0,0,1,2.07.12c0-1,.07-1.94.06-2.73,0-.13,0-.32,0-.52,0,0,0-.44,0-.44a22.59,22.59,0,0,0-.45-2.51c-.42-1.93-1-4.28-1.78-7l-.12-.46c-.89-3.3-2-7.4-3.17-12.37l-.86-3.7c-.42-1.85-.8-3.67-1.18-5.63,0,0-.26-1.35-.27-1.42-.58-3.12-1.09-6.2-1.54-9.4-.17-1.17-.32-2.28-.45-3.31,0-.16,0-.32-.07-.48-.29-2.15-.56-4.17-.83-5.35s-.86-3.33-1.48-5.53l0-.15c-.66-2.33-1.29-4.61-1.9-6.95l-.64-2.55c-.07-.27-.46-2-.53-2.27s-.15-.75-.23-1.13c0,0-.18-.89-.22-1.1-.14-.75-.26-1.47-.36-2.15,0-.14-.06-.45-.07-.47-.14-1.15-.23-2.37-.27-3.7a8,8,0,0,1,0-2.07,82.88,82.88,0,0,1,1.05-11.67,8.08,8.08,0,0,1,.43-3.79c.19-.54.36-1.07.51-1.6l0-.25c.16-.83.32-1.63.48-2.38,0-.08,0-.16,0-.23.09-.71.16-1.39.22-2a9,9,0,0,1-1-.15,31.21,31.21,0,0,1-4.34-1.31,8,8,0,0,1-4.26-1.3,21.22,21.22,0,0,1-6.17-6.94l-.3-.54A8.16,8.16,0,0,1,23.33,95a19.23,19.23,0,0,1-1.21-6.87c-.56-.73-1.32-1.64-2.18-2.61a8,8,0,0,1-4.32-3.68c-.71-1.3-1.37-2.66-1.92-3.91a7.87,7.87,0,0,1-2.44-3.63,23.14,23.14,0,0,1-1-8.34,7.94,7.94,0,0,1-.07-3.79,32.31,32.31,0,0,1,6.31-12.8,5.62,5.62,0,0,1,.74-.8,7.22,7.22,0,0,1,.69-.86c.41-.44,1-1,1.63-1.63a19,19,0,0,0,4-5.2L24,40.2a17.07,17.07,0,0,1-3-7.33c0-.13,0-.25-.05-.38-.08-.85-.12-1.74-.12-2.65v-.21c0-.21,0-.42,0-.63v-.33c0-.19,0-.39,0-.58l0-.34c0-.21,0-.4.06-.59,0,0,.08-.67.11-.84l.14-.84a23.38,23.38,0,0,1,1.18-4.35l.3-.8s.35-.84.35-.84l.17-.38.15-.33a14.37,14.37,0,0,1,5.06-5.93,14.12,14.12,0,0,1,1.69-1.08l.6-.31.2-.09a8.84,8.84,0,0,1,1-.4l.39-.11a10.43,10.43,0,0,1,3.07-.46c2.62,0,6.35,1,9.33,5.47l2.89,3.52a8.5,8.5,0,0,1,.71,1l.11.12c.25.2.59.45,1,.73.46,0,.93,0,1.39,0a43.17,43.17,0,0,1,7,.7l.49.08h.11c.45,0,.95,0,1.46-.06l2.9-.18c.89-.05,2.07-.11,3.26-.11a25.41,25.41,0,0,1,2.6.12A20.16,20.16,0,0,1,73.75,23q.77-.39,1.41-.75a27.66,27.66,0,0,1,11.28-3.18c.46,0,.91,0,1.35,0a16.23,16.23,0,0,1,9.26,2.56,16.26,16.26,0,0,1,6.73,11.24,18.73,18.73,0,0,1,.22,2.39,8.23,8.23,0,0,1-.08,1.49,20.22,20.22,0,0,1-.37,3.87c0,.1,0,.2-.07.3-.06.26-.12.51-.2.76a1.36,1.36,0,0,1-.06.29c0,.22-.1.43-.17.64a17.86,17.86,0,0,1-3.26,6.07,19.81,19.81,0,0,1-1.44,1.56l-.23.22q-.56.54-1.23,1.11l-.26.22c.33.59.64,1.17.92,1.75a26.38,26.38,0,0,1,2.32,7.45c.75,1.44,1.69,3.37,2.64,5.67a8.07,8.07,0,0,1,1.29,3l.18.85c.15.44.31.89.45,1.35l1.09.17c1.24.19,2.38.41,3.38.63a25.35,25.35,0,0,1,3.92,1.16A18.91,18.91,0,0,1,116.67,76c.84.59,1.73,1.29,2.84,2.2l.69.56a12.31,12.31,0,0,0,3.23.61,8.09,8.09,0,0,1,1.29-.52l1.59-.47,1.51-.46a8.89,8.89,0,0,1,1.74-.33l2.47-.69a8.08,8.08,0,0,1,1.49-.47l1.52-.33c1.59-.41,3.22-.8,4.87-1.15,1.09-.24,2.23-.47,3.4-.68a75.77,75.77,0,0,1,8.19-1.06l3.06-.2.71,0,1.45-.06h0c1-.05,2.1-.07,3.11-.07,1.56,0,3,.06,4.35.18a33.73,33.73,0,0,1,3.37.46,28.87,28.87,0,0,1,10.8,4.32c.52.32,1,.68,1.56,1,.37.27.79.59,1.2.92,5.36,4.4,9.8,11.69,12,15.65.38.7.72,1.32,1,2l.06.13c1,1.91,1.82,3.74,2.51,5.47a6.37,6.37,0,0,1,.51,1,7.93,7.93,0,0,1,1.06,3.54,22.33,22.33,0,0,1,.84,4.82c.22,4.62-.67,12.81-1.53,20.74v.11c-.5,4.67-1,9-1.13,11.87-.06,1-.11,2-.15,3.14a8,8,0,0,1,.14,2.44,27.86,27.86,0,0,0-.13,4.06,7.92,7.92,0,0,1-.22,2.33c0,6.2.11,11.77.47,15.8,0,.08,0,.26,0,.26.11,1.16.23,2.18.36,3l.35,2.36a8,8,0,0,1,.69,3.89c0,.07,0,.18,0,.29s0,.37,0,.56c.42,2.75.62,3.88,1,5.73,1,5.06.3,8.78-1.29,16.05l-.74,3.28a130.3,130.3,0,0,0-2.91,16.22c-.18,1.7-.27,3.21-.35,4.75a36.15,36.15,0,0,1-.75,6.59h0a8,8,0,0,1-1.65,5l-.1.13a13,13,0,0,1-3.58,3.14,23.64,23.64,0,0,1-11.88,3.28,19.42,19.42,0,0,1-3.48-.31,14.66,14.66,0,0,1-4.84.78H167a15.17,15.17,0,0,1-3.92-.51,17,17,0,0,1-2.66.24h-.53a15,15,0,0,1-7.06-1.68,10.51,10.51,0,0,1-5.85-3.44,13.25,13.25,0,0,1-1-1.41,22.09,22.09,0,0,1-5.05-.49l-.85,0a17.25,17.25,0,0,1-3.46-.35,14,14,0,0,1-3.32,9,14.55,14.55,0,0,1-10.78,4.74c-.42,0-.78,0-1.07,0l-.31,0A15.52,15.52,0,0,1,114.52,255.39Zm15.55-58.69c-.29,2.13-.55,4.24-.77,6.28l0,.26c0,.3-.08.6-.1.89,0,.06,0,.11,0,.17-.41,3.75-.7,7.07-.81,9.35l.59-.59a13.23,13.23,0,0,1,9-3.69,11.68,11.68,0,0,1,2.84-.34,12.72,12.72,0,0,1,1.74.12,43.22,43.22,0,0,0,1.8-11.49,7.66,7.66,0,0,1-.86-1.17c-.13-.23-.29-.45-.44-.67s-.4-.57-.59-.87-.44-.71-.65-1.08l-.18-.3a8,8,0,0,1-1-2l-1.55-1.9-.21-.26-1.43-1.77a76.4,76.4,0,0,1-5-7c0,.07-.23,1.59-.33,2.29a7.82,7.82,0,0,1-.1,1.26c-.08.51-.28,1.84-.28,1.84a6.87,6.87,0,0,1-.28,1.21c-.12.79-.25,1.6-.39,2.39-.24,1.45-.47,2.92-.69,4.39a7.83,7.83,0,0,1-.07,1.08l-.07.52A9,9,0,0,1,130.07,196.7Z"/>
      <path d="M189.91,183.21l.1-.07a10.45,10.45,0,0,1,0-1.37c-.09,0-.19.09-.28.15-.1-.68-.22-1.43-.34-2.26l-.35-2.35c-.16-1-.3-2.25-.43-3.65v-.15c-.45-5.08-.56-11.69-.49-17.91.08-.16.15-.32.22-.48a35.43,35.43,0,0,1,.16-5.25l-.26.43c.06-2,.14-4,.24-5.68.17-3,.65-7.52,1.17-12.3.79-7.31,1.69-15.59,1.5-19.61a17.24,17.24,0,0,0-.92-4.25h0c0-.17.05-.33.08-.5a2.12,2.12,0,0,1-.43-.86l-.06.19a56,56,0,0,0-2.72-6.15h0c-.31-.62-.64-1.23-1-1.86-2.9-5.29-6.63-10.52-10-13.3-.26-.21-.51-.41-.77-.59-.41-.29-.81-.57-1.21-.82a21.08,21.08,0,0,0-8-3.22,25.51,25.51,0,0,0-2.6-.35c-1.14-.1-2.34-.15-3.64-.15-.92,0-1.89,0-2.85.06h0l-2.08.1-2.87.18a66.65,66.65,0,0,0-7.3,1c-1.07.2-2.12.41-3.16.63-1.62.35-3.2.72-4.69,1.12l-1.69.36s0,0,0,.07c-1.82.49-3.49,1-4.95,1.4l-.11-.15-1.59.49L127,86.5l.1.14-.41.12c-.52.16-1,.28-1.3.37a8,8,0,0,1-2,.22,21.24,21.24,0,0,1-6.1-1.12l-.15.26,1.11,1.1s0,0-.06,0c-1.2-1.08-2.52-2.22-3.78-3.25-.85-.69-1.66-1.33-2.4-1.87a12.56,12.56,0,0,0-2.23-1.33,17,17,0,0,0-2.64-.77c-.92-.2-1.92-.38-2.91-.54-2.48-.39-4.84-.63-5.58-.7h-.56l-.06-.25c-.21-1-.47-2.05-.75-3s-.68-2.21-1.06-3.25L96,71.22s0,.18,0,.49A66.74,66.74,0,0,0,92.47,64l-.33-.48A18.91,18.91,0,0,0,90.36,57a37.2,37.2,0,0,0-5-7.42l.42-.57,0,0h0a16.8,16.8,0,0,0,5.9-3.52c.31-.27.62-.54.92-.83l.14-.13c.32-.32.63-.65.93-1a10.09,10.09,0,0,0,1.77-3.38c0-.1,0-.21,0-.32s.15-.46.2-.7c0,0,.51-2.72,0-3.56l.29,0A12.37,12.37,0,0,0,95.88,34a8.4,8.4,0,0,0-3.32-5.83,9.18,9.18,0,0,0-5.66-1.16,19.59,19.59,0,0,0-7.84,2.18c-.93.51-2,1.07-3.19,1.64a12.19,12.19,0,0,1-2.56.88l.09,0-.24-.15a13.09,13.09,0,0,0-5.31-1.83,30.52,30.52,0,0,0-4.58,0l-2.89.18a16.7,16.7,0,0,1-3.1,0l-.71-.11a30.78,30.78,0,0,0-6.9-.56,13.35,13.35,0,0,0-5.88,1.6A27.33,27.33,0,0,0,39,34.35a14.26,14.26,0,0,1-2.23-5.84c-.27-3,0-5.92-.46-7.56A2.59,2.59,0,0,0,36,20.2l.31.24a13,13,0,0,1,.52,4.64c0,3,0,6.36,2.15,8.72l.12.13.13-.11a27.2,27.2,0,0,1,4.48-3.2,12.51,12.51,0,0,1,3.1-1.21l.35-.08-.3-.19a35,35,0,0,1-3.63-2.56A21.2,21.2,0,0,1,41,24.1l.47.37c-.83-1-2.83-3.44-3.14-3.83s-1.47-2.89-3.8-2.08l-.11,0h0l-.24.1-.22.11a5.82,5.82,0,0,0-.94.64l0,0a6.18,6.18,0,0,0-2.36,2.75,2,2,0,0,0-.09.2s0,.07-.05.1l-.06.14c0,.05-.05.1-.07.16l-.05.12c0,.06-.05.13-.08.19l-.05.14-.09.21-.05.14-.09.24,0,.07a16.29,16.29,0,0,0-.8,2.91s0,.06,0,.09a2.33,2.33,0,0,0-.06.35,1.55,1.55,0,0,0,0,.21c0,.12,0,.24-.05.36a1.64,1.64,0,0,1,0,.22c0,.12,0,.24,0,.36s0,.15,0,.23l0,.37v.22c0,.13,0,.25,0,.38v.21c0,.64,0,1.27.08,1.88a9.25,9.25,0,0,0,5.65,6.91l1.54-1.39a47.35,47.35,0,0,0-3.57,4.5C31.72,42.92,31.09,44,30.48,45A26.65,26.65,0,0,1,25,52c-.43.39-.81.79-1.15,1.16a8.2,8.2,0,0,0-.71,1.13l-.08,0-.28.06A24.44,24.44,0,0,0,18,64l.32.08.05-.1.13,0a18.25,18.25,0,0,0,.35,7.9l.26,0h.08v0l.09-.07a4.57,4.57,0,0,1,.08-1v-.08l0,.08A58,58,0,0,0,22.63,78l.24-.09,0,0,.32-.12L22.9,77l0,0c.23.23,5.56,5.66,7.11,8.63l.17.32.13-.3.13.25.14-.33a4.87,4.87,0,0,1,.79-1.24l.07-.08,0-.1s-.09-.13-.14-.21l-.18-.27h0c-.28-.45-.67-1.1-1.1-1.85l.52.73.11.18c.36.62.52.85.74,1.2l.1.16.16-.13a15.5,15.5,0,0,1,9.43-1.91,22,22,0,0,1,7.42,4.3,3.12,3.12,0,0,0,.43.27,8.55,8.55,0,0,1-2.38-1.47,21.46,21.46,0,0,0-5.47-3.1H40.9a22.24,22.24,0,0,0-2.45,0h0A12.22,12.22,0,0,0,32.08,84a4.76,4.76,0,0,0-1.92,3.61,10.65,10.65,0,0,0,.67,4.67h.05l.33-.08,0-.19a23.73,23.73,0,0,0,1.16,2.42,13.47,13.47,0,0,0,3.57,4.18l.19-.19.09,0-.63-.65a25.64,25.64,0,0,0,6.27,2.38l.15-.28-.1-.06v0l-1-.67.78.25a19.48,19.48,0,0,0,6,.61,17,17,0,0,0,1.78-.21,79.83,79.83,0,0,1-.72,12.26h-.05c-.15.72-.3,1.49-.46,2.3l-.09.5c-.24.87-.51,1.72-.8,2.54.1.14.18.26.26.39a78.66,78.66,0,0,0-1.26,12.8c0,.18,0,.35-.06.52l.06,0a34.75,34.75,0,0,0,.24,3.73c0,.1,0,.21,0,.3.08.59.19,1.21.31,1.86,0,.25.11.52.16.78s.16.8.25,1.22.16.72.25,1.07.15.68.24,1,.22.89.33,1.34c.05.21.1.43.16.64h0c0,.15.07.3.11.45.61,2.32,1.26,4.67,1.86,6.79.69,2.47,1.3,4.6,1.62,6.07s.61,3.48,1,6.06c0,.12,0,.26.05.38.14,1,.29,2.15.46,3.34.37,2.64.85,5.68,1.51,9.21h0c.08.4.15.79.23,1.19.33,1.69.7,3.47,1.12,5.36l.85,3.65c1.22,5.09,2.33,9.22,3.23,12.62.78,2.87,1.42,5.27,1.87,7.3.27,1.23.47,2.33.59,3.33h0l.06.54c0,.43.07.86.07,1.26,0,1.26,0,2.69-.12,4.14,0,.82-.1,1.64-.17,2.44-.13,1.64-.28,3.14-.4,4.23l0,.22,0,.28,0,.09a1.64,1.64,0,0,1-.14.39H61.6a6.72,6.72,0,0,0-1.12.15,11.29,11.29,0,0,0-2.11-.72l-.15,0-.27-.06c-.17,0-.34-.07-.52-.09h0l-.64-.08q-.37,0-.75,0a9,9,0,0,0-1.79.18l-.19.05.12-.06.58-.23-.62-.07a11.13,11.13,0,0,0-1.28-.08l-.43,0-.29,0a8.75,8.75,0,0,0-1.63.16c-2.82.56-5,4.47-6.07,8.75l0,0a21.18,21.18,0,0,0-.66,3.87,5.26,5.26,0,0,0,1.64,4.6,7.19,7.19,0,0,0,4.66,1.7l.1-.29a5.38,5.38,0,0,1-1-.68,5.61,5.61,0,0,1-1.72-4.87c0-.67.13-1.36.25-2.05-.11.68-.19,1.37-.23,2a5.71,5.71,0,0,0,1.5,4.68c1.49,1.44,3.78,1.74,5.45,1.74H55l.12.06.17-.26a5.41,5.41,0,0,1-.9-.89,6.46,6.46,0,0,0,3.75,1.89,47.72,47.72,0,0,0,7.68.54h0c3.35,0,8.11-.27,11.71-1.55a11.69,11.69,0,0,0,1.38-.6l.06,0c0-.07,0-.14,0-.2,2.45-1.58,2.58-3.91,2.72-6.6a22.83,22.83,0,0,1,.38-3.6,26.84,26.84,0,0,1,1.76-5.13,12.8,12.8,0,0,0,1.45-5.63c-.1-2.91,0-13.56.16-21.58.05-1.68.1-3.25.14-4.6l0-.45c.27-6.47,1.74-15.92,2.17-18.57,3,1,5.19,1.5,5.19,1.5.79,3.77,1.61,8.22,2.29,12.68.28,1.84.54,3.68.76,5.47.27,2.22.49,4.38.63,6.38,0,.39.06.79.1,1.19.09,1.2.19,2.45.31,3.72,0,.34.06.68.09,1v.12c.16,1.8.32,3.65.47,5.51,0,.36,0,.71.08,1.06,0,.73.1,1.45.14,2.18h0c.06.86.1,1.72.14,2.57a53.72,53.72,0,0,1-.31,10.07,2.85,2.85,0,0,0-.42,0c-2,.38-4.82,1.6-6.15,7.66s-.73,8,.52,9.32c.81.86,2.78,1.17,4.21,1.17h0a6.64,6.64,0,0,0,2.89-.54l.08,0,.09.2a5.55,5.55,0,0,0,4.17,2c.23,0,.47,0,.71,0a8.34,8.34,0,0,0,5.69-2.21,3.47,3.47,0,0,0,.22.65c.48.93,2,1.68,3.87,1.88a7.12,7.12,0,0,0,.94,0,6.25,6.25,0,0,0,4.92-2,1.37,1.37,0,0,0,.13-.2,4.58,4.58,0,0,0,2.4.82l.46,0h0a6.59,6.59,0,0,0,4.89-2.16c1.13-1.23,1.51-3.87,1-7.24-.57-4.15-2.3-8.23-3.93-9.29a5.13,5.13,0,0,0-2.59-.78c-.2-.36-.38-.72-.54-1.07l.46,0a3.15,3.15,0,0,1,.44,0l.3,0-.15-.26c-1.88-3.2-2.07-5.36-2.07-9.88,0-.33,0-.7,0-1.11s0-.66,0-1c.12-2.46.42-5.93.85-9.86,0-.44.09-.89.15-1.34.27-2.42.58-5,.94-7.58l.07,0c0-.17,0-.35.07-.52l-.07,0c0-.2.06-.39.08-.59.26-1.7.51-3.39.79-5,.19-1.12.38-2.29.57-3.48h.08c.09-.62.19-1.26.29-1.9l-.08,0c.15-1.05.31-2.13.46-3.21.18-1.29.36-2.59.53-3.9h0c0-.27.06-.53.1-.8,0-.43.11-.86.16-1.3a10.23,10.23,0,0,1,.43-1.53v.07l.24-.08a180,180,0,0,0,20.19-7.72A80.25,80.25,0,0,1,135.39,169l-.16.05.06.15a67.39,67.39,0,0,0,8.41,13.4l1.54,1.9.07.08c1.31,1.61,2.56,3.13,3.62,4.59-.21,0-.42,0-.63,0,.31.46.55,1,.85,1.41s.83,1.18,1.2,1.8l.61,0a10.82,10.82,0,0,1,1.23,3.39c.6,3.9-.81,12.82-2.31,16.62a22,22,0,0,1-2.42,4.91l-.28.35a4,4,0,0,1-.72.67,4.5,4.5,0,0,0-1.05-.27,23.39,23.39,0,0,0-4-.93,4.87,4.87,0,0,0-.65-.05,3.79,3.79,0,0,0-1.72.41l-.26,0a4.33,4.33,0,0,0-.66,0,5.22,5.22,0,0,0-3.68,1.45c-2.43,2.34-4.34,6.54-3.28,10a3.62,3.62,0,0,0,2,2.37,5.45,5.45,0,0,0,2.74.42l.34,0,0,0a6.19,6.19,0,0,0,3.72,1,12.52,12.52,0,0,0,1.79-.16,5,5,0,0,0,.71.3,14.08,14.08,0,0,0,3.61.31h0c2.12,0,4.46-.15,5.74-.25a6.11,6.11,0,0,0,1.18,4.48,2.93,2.93,0,0,0,1.88.89l.43.07-.26-.33a6.19,6.19,0,0,1-1.08-3.9,17,17,0,0,1,4-10.67,4.6,4.6,0,0,1,.52-.19,16.6,16.6,0,0,0-4.36,10.86,5.43,5.43,0,0,0,1.42,4.14,6.32,6.32,0,0,0,4.29,1.44h.52a17.68,17.68,0,0,0,3.06-.48l-.42-.43a7.11,7.11,0,0,0,4,1.18h.47a5.86,5.86,0,0,0,4-1.36,12.62,12.62,0,0,0,1.56.54,9.9,9.9,0,0,0,2.75.34,15.39,15.39,0,0,0,7.79-2.15,5,5,0,0,0,1.38-1.2l0-.05V236c0-.37,0-.72-.07-1.08a21,21,0,0,0,.83-6.06c.08-1.52.17-3.23.38-5.17a136.33,136.33,0,0,1,3.07-17.14c.23-1.05.47-2.12.72-3.24,1.6-7.28,1.92-9.54,1.27-12.74C190.7,188.25,190.47,186.9,189.91,183.21ZM91.32,70.51c-.36,3.38-.5,7.44-3.87,10.81,2.57-3.92,1-2.2,1.28-3l-1.06,1.75a13.57,13.57,0,0,1-1.79,2.06l-.29-.22h-.06a13.71,13.71,0,0,0,3.58-4.84c0,.71-.11,1.39-.15,1.56l.33.09v0h0c2.17-5.12,1.89-12,1.88-12.1l0-.52.45,1c0,.09,0,.17.07.26h0L92,68v.36s-.15.11-.27-.39l-.44-1.36ZM64.05,81.89a7.66,7.66,0,0,0,1.74-4,9.21,9.21,0,0,1-.33,1.86A7.54,7.54,0,0,1,64.05,81.89Zm-36.74-7.3a2.75,2.75,0,0,1,0-.41,10.13,10.13,0,0,1,1.28-3.31A11.89,11.89,0,0,0,27.31,74.59Zm6.42-11.47a9,9,0,0,0-2.81,1.42l-.12.1.06.07,0,0h0l-.06-.08s.17-.16.45-.38l.13-.1h0l.41-.27.1-.07.15-.09a9.49,9.49,0,0,1,1.69-.63h0l0,0h0Zm-2.25,3.63h0Zm2.16-2.41c0-.07-.1-.12-.15-.18l0,0,.07-.13,0,.18h0ZM54.1,68.23l0,0-.3,0c.33-.09.62-.15.84-.19Zm7.76,15.55A30.83,30.83,0,0,1,59,85.47a13.85,13.85,0,0,1-4.75,1.69A26.84,26.84,0,0,0,61.86,83.78ZM124.44,133c-.33-1.92-.57-3.32-.58-3.66.17,1,.39,2.31.64,3.83Zm41.63,89.76.08-.05-.23.18ZM80.64,32.58a11.76,11.76,0,0,1,7.56-3.83h.19a6.34,6.34,0,0,1,4.73,1.71,9.54,9.54,0,0,1,2.55,5.1h0l-.23.3A9.5,9.5,0,0,0,93,30.64,6,6,0,0,0,88.44,29H88.3c-.29,0-.58.06-.86.1l-.28.06c-.21,0-.41.08-.62.14l-.3.08c-.25.08-.51.16-.76.26s-.33.14-.5.21L84.7,30a12.16,12.16,0,0,0-3.79,2.76c-3,3.3-3.48,6.47-2.65,8.14a49.47,49.47,0,0,0,4.86,6c.62.7,1.25,1.41,1.85,2.11a2.33,2.33,0,0,1-.33-.14c-.77-.87-1.42-1.55-1.83-2-.16-.22-.31-.42-.13-.12l-.35-.35.06.12A42.31,42.31,0,0,1,77.94,41C77.14,39.39,77.36,36.21,80.64,32.58Zm9.09,122.93v0l0,0a26.11,26.11,0,0,1-4.22-7.21h.08a26.48,26.48,0,0,0,3.84,6.72l.32.4s-.11-1.37-.16-1.94c.17,1.4.35,2.94.54,4.54h0c.25,2,.52,4.16.81,6.17-.48-2.76-.89-5.36-1-6.9C89.87,156.56,89.76,155.81,89.73,155.51Z"/>
      <path d="M212.06,211.64a28.86,28.86,0,0,1-10.78-2.09c-7.83-3.23-17.85-14.36-20.35-35.07l0-.25c-.46-5.24-.54-11.42-.53-15.69,0-.59,0-1.27,0-1.66,0-.13,0-.27,0-.4,0-4.26.17-8.61.37-12.29l0-.36c0-.22,0-.45,0-.67s0-.57.05-.93c0-.83.1-1.8.16-2.49a8.33,8.33,0,0,1,.23-1.34c.21-2.13.46-4.48.73-6.89s.71-7.64,1-11.54c.14-1.7.27-3.17.36-4.1l0-.33c0-.43,0-.84,0-1.22a8,8,0,0,1,6.73-7.81l.31-.05a7.77,7.77,0,0,1,1.27-.1,8,8,0,0,1,7.55,5.39,65.62,65.62,0,0,1,3.45,17.32c.15,2.74.21,5.7.26,8.83a7.3,7.3,0,0,1,.19,1.55c0,.22,0,.58.07.94.07.73.12,1.47.13,1.94a8.09,8.09,0,0,1-.25,2.16c.06,2.42.17,5.21.36,8.09a8.43,8.43,0,0,1,.4,2.07c0,.36,0,.75.06,1.14s0,.94.07,1.37a7.94,7.94,0,0,1,0,1.29c.19,1.69.41,3.29.67,4.86l.19,1.15c.3,1.86.59,3.6.87,5.25.17,1,.38,2.16.55,3.07,1.18,6.3,2.27,9.49,3.75,11a14.54,14.54,0,0,0,1.62,1.45l.32-.15a22.27,22.27,0,0,0,4.63-2.91,13.7,13.7,0,0,1,8.49-2.95,11.38,11.38,0,0,1,7,2.27,10,10,0,0,1,1.72,1.65c4,5,4.52,13.46-3.5,21.12A26,26,0,0,1,212.06,211.64Z"/>
      <path d="M227.62,188.17a1.45,1.45,0,0,0-.34-.31,3.48,3.48,0,0,0-2.17-.65,5.74,5.74,0,0,0-3.51,1.21,30.83,30.83,0,0,1-6.1,3.84,9.12,9.12,0,0,1-4.06,1.11c-2.21,0-4.33-1.19-7.08-4-3.12-3.15-4.58-8-5.93-15.14-.17-.94-.38-2.13-.57-3.19-.28-1.67-.57-3.42-.88-5.31l-.19-1.15c-.37-2.31-.66-4.62-.89-6.9h.16c-.06-.82-.09-1.78-.14-2.59l-.25,0c-.34-4.35-.49-8.58-.57-12.6l.3,0c0-.72-.18-2.22-.2-2.91H195c0-.29,0-.58,0-.86-.06-3.32-.11-6.45-.27-9.24a57.35,57.35,0,0,0-3-15.14l-.3,0c0,.73,0,1.55-.09,2.42a1.94,1.94,0,0,0,0-.24c-.28,3.13-1.05,12.39-1.42,15.78-.31,2.87-.61,5.63-.84,8l-.1,0c-.08.93-.15,2.45-.2,3.23h0c0,.33,0,.66-.06,1-.19,3.51-.33,7.84-.37,12.3h0c0,.38,0,1,0,1.63,0,5.31.13,10.69.5,15,2.23,18.47,10.77,26.68,15.47,28.62a20.77,20.77,0,0,0,7.72,1.49h0a17.93,17.93,0,0,0,12.76-5.18C229.45,194,229.22,190.15,227.62,188.17Z"/>
      <path d="M47.54,37.26a8,8,0,0,1-3.77-.95c-1.76-.94-6-3.41-8.3-6.5l-.22-.27A8,8,0,0,1,46.37,18.17L52.48,23a8,8,0,0,1-4.94,14.3Z"/>
      <path d="M47.54,29.26l-6.1-4.79.36.45C43.19,26.93,47.54,29.26,47.54,29.26Z"/>
    </g>
    <g>
      <path class="ad8616e4-eeb3-4048-8e1e-2a9fa090360c" d="M109.52,250.39a17.93,17.93,0,0,1-1.8-.09,15.61,15.61,0,0,1-4.09-1,16.66,16.66,0,0,1-4.83.72c-.48,0-1,0-1.43-.06a15.33,15.33,0,0,1-5.62-1.59l-.89,0c-2.45,0-7-.48-10-3.67a12,12,0,0,1-2.17-3.14,7.38,7.38,0,0,1-1,.59,18,18,0,0,1-2.44,1.07,43.87,43.87,0,0,1-14.41,2,55,55,0,0,1-9.15-.68,17.18,17.18,0,0,1-2.47-.65h0a18.8,18.8,0,0,1-4.48-.58h0a15.18,15.18,0,0,1-9.53-3.66,13.24,13.24,0,0,1-4.36-11.2,28.82,28.82,0,0,1,.65-4.31c0-.3.09-.6.16-.91,2-8.2,6.48-13.56,12.3-14.71a16.89,16.89,0,0,1,3.18-.31h.72a18.09,18.09,0,0,1,2.07.12c0-1,.07-1.94.06-2.73,0-.13,0-.32,0-.52,0,0,0-.44,0-.44a22.59,22.59,0,0,0-.45-2.51c-.42-1.93-1-4.28-1.78-7l-.12-.46c-.89-3.3-2-7.4-3.17-12.37l-.86-3.7c-.42-1.85-.8-3.67-1.18-5.63,0,0-.26-1.35-.27-1.42-.58-3.12-1.09-6.2-1.54-9.4-.17-1.17-.32-2.28-.45-3.31,0-.16,0-.32-.07-.48-.29-2.15-.56-4.17-.83-5.35s-.86-3.33-1.48-5.53l0-.15c-.66-2.33-1.29-4.61-1.9-6.95l-.64-2.55c-.07-.27-.46-2-.53-2.27s-.15-.75-.23-1.13c0,0-.18-.89-.22-1.1-.14-.75-.26-1.47-.36-2.15,0-.14-.06-.45-.07-.47-.14-1.15-.23-2.37-.27-3.7a8,8,0,0,1,0-2.07,82.88,82.88,0,0,1,1.05-11.67,8.08,8.08,0,0,1,.43-3.79c.19-.54.36-1.07.51-1.6l0-.25c.16-.83.32-1.63.48-2.38,0-.08,0-.16,0-.23.09-.71.16-1.39.22-2a9,9,0,0,1-1-.15,31.21,31.21,0,0,1-4.34-1.31,8,8,0,0,1-4.26-1.3,21.22,21.22,0,0,1-6.17-6.94l-.3-.54A8.16,8.16,0,0,1,18.33,90a19.23,19.23,0,0,1-1.21-6.87c-.56-.73-1.32-1.64-2.18-2.61a8,8,0,0,1-4.32-3.68C9.91,75.58,9.25,74.22,8.7,73a7.87,7.87,0,0,1-2.44-3.63,23.14,23.14,0,0,1-1-8.34,7.94,7.94,0,0,1-.07-3.79,32.31,32.31,0,0,1,6.31-12.8,5.62,5.62,0,0,1,.74-.8,7.22,7.22,0,0,1,.69-.86c.41-.44,1-1,1.63-1.63a19,19,0,0,0,4-5.2L19,35.2a17.07,17.07,0,0,1-3-7.33c0-.13,0-.25-.05-.38-.08-.85-.12-1.74-.12-2.65v-.21c0-.21,0-.42,0-.63v-.33c0-.19,0-.39,0-.58l0-.34c0-.21,0-.4.06-.59,0,0,.08-.67.11-.84l.14-.84a23.38,23.38,0,0,1,1.18-4.35l.3-.8s.35-.84.35-.84l.17-.38.15-.33a14.37,14.37,0,0,1,5.06-5.93,14.12,14.12,0,0,1,1.69-1.08l.6-.31.2-.09a8.84,8.84,0,0,1,1-.4l.39-.11A10.43,10.43,0,0,1,30.4,5.4c2.62,0,6.35,1,9.33,5.47l2.89,3.52a8.5,8.5,0,0,1,.71,1l.11.12c.25.2.59.45,1,.73.46,0,.93,0,1.39,0a43.17,43.17,0,0,1,7,.7l.49.08h.11c.45,0,.95,0,1.46-.06l2.9-.18c.89-.05,2.07-.11,3.26-.11a25.41,25.41,0,0,1,2.6.12A20.16,20.16,0,0,1,68.75,18q.77-.39,1.41-.75a27.66,27.66,0,0,1,11.28-3.18c.46,0,.91,0,1.35,0a16.23,16.23,0,0,1,9.26,2.56,16.26,16.26,0,0,1,6.73,11.24A18.73,18.73,0,0,1,99,30.21a8.23,8.23,0,0,1-.08,1.49,20.22,20.22,0,0,1-.37,3.87c0,.1,0,.2-.07.3-.06.26-.12.51-.2.76a1.36,1.36,0,0,1-.06.29c0,.22-.1.43-.17.64a17.86,17.86,0,0,1-3.26,6.07,19.81,19.81,0,0,1-1.44,1.56l-.23.22q-.56.54-1.23,1.11l-.26.22c.33.59.64,1.17.92,1.75a26.38,26.38,0,0,1,2.32,7.45c.75,1.44,1.69,3.37,2.64,5.67a8.07,8.07,0,0,1,1.29,3l.18.85c.15.44.31.89.45,1.35l1.09.17c1.24.19,2.38.41,3.38.63a25.35,25.35,0,0,1,3.92,1.16A18.91,18.91,0,0,1,111.67,71c.84.59,1.73,1.29,2.84,2.2l.69.56a12.31,12.31,0,0,0,3.23.61,8.09,8.09,0,0,1,1.29-.52l1.59-.47,1.51-.46a8.89,8.89,0,0,1,1.74-.33l2.47-.69a8.08,8.08,0,0,1,1.49-.47l1.52-.33c1.59-.41,3.22-.8,4.87-1.15,1.09-.24,2.23-.47,3.4-.68a75.77,75.77,0,0,1,8.19-1.06l3.06-.2.71,0,1.45-.06h0c1-.05,2.1-.07,3.11-.07,1.56,0,3,.06,4.35.18a33.73,33.73,0,0,1,3.37.46,28.87,28.87,0,0,1,10.8,4.32c.52.32,1,.68,1.56,1,.37.27.79.59,1.2.92,5.36,4.4,9.8,11.69,12,15.65.38.7.72,1.32,1,2l.06.13c1,1.91,1.82,3.74,2.51,5.47a6.37,6.37,0,0,1,.51,1,7.93,7.93,0,0,1,1.06,3.54,22.33,22.33,0,0,1,.84,4.82c.22,4.62-.67,12.81-1.53,20.74v.11c-.5,4.67-1,9-1.13,11.87-.06,1-.11,2-.15,3.14a8,8,0,0,1,.14,2.44,27.86,27.86,0,0,0-.13,4.06,7.92,7.92,0,0,1-.22,2.33c0,6.2.11,11.77.47,15.8,0,.08,0,.26,0,.26.11,1.16.23,2.18.36,3l.35,2.36a8,8,0,0,1,.69,3.89c0,.07,0,.18,0,.29s0,.37,0,.56c.42,2.75.62,3.88,1,5.73,1,5.06.3,8.78-1.29,16.05l-.74,3.28a130.3,130.3,0,0,0-2.91,16.22c-.18,1.7-.27,3.21-.35,4.75a36.15,36.15,0,0,1-.75,6.59h0a8,8,0,0,1-1.65,5l-.1.13a13,13,0,0,1-3.58,3.14,23.64,23.64,0,0,1-11.88,3.28,19.42,19.42,0,0,1-3.48-.31,14.66,14.66,0,0,1-4.84.78H162a15.17,15.17,0,0,1-3.92-.51,17,17,0,0,1-2.66.24h-.53a15,15,0,0,1-7.06-1.68,10.51,10.51,0,0,1-5.85-3.44,13.25,13.25,0,0,1-1-1.41,22.09,22.09,0,0,1-5.05-.49l-.85,0a17.25,17.25,0,0,1-3.46-.35,14,14,0,0,1-3.32,9,14.55,14.55,0,0,1-10.78,4.74c-.42,0-.78,0-1.07,0l-.31,0A15.52,15.52,0,0,1,109.52,250.39Zm15.55-58.69c-.29,2.13-.55,4.24-.77,6.28l0,.26c0,.3-.08.6-.1.89,0,.06,0,.11,0,.17-.41,3.75-.7,7.07-.81,9.35l.59-.59a13.23,13.23,0,0,1,9-3.69,11.68,11.68,0,0,1,2.84-.34,12.72,12.72,0,0,1,1.74.12,43.22,43.22,0,0,0,1.8-11.49,7.66,7.66,0,0,1-.86-1.17c-.13-.23-.29-.45-.44-.67s-.4-.57-.59-.87-.44-.71-.65-1.08l-.18-.3a8,8,0,0,1-1-2l-1.55-1.9-.21-.26-1.43-1.77a76.4,76.4,0,0,1-5-7c0,.07-.23,1.59-.33,2.29a7.82,7.82,0,0,1-.1,1.26c-.08.51-.28,1.84-.28,1.84a6.87,6.87,0,0,1-.28,1.21c-.12.79-.25,1.6-.39,2.39-.24,1.45-.47,2.92-.69,4.39a7.83,7.83,0,0,1-.07,1.08l-.07.52A9,9,0,0,1,125.07,191.7Z"/>
      <path class="ad8616e4-eeb3-4048-8e1e-2a9fa090360c" d="M184.91,178.21l.1-.07a10.45,10.45,0,0,1,0-1.37c-.09,0-.19.09-.28.15-.1-.68-.22-1.43-.34-2.26l-.35-2.35c-.16-1-.3-2.25-.43-3.65v-.15c-.45-5.08-.56-11.69-.49-17.91.08-.16.15-.32.22-.48a35.43,35.43,0,0,1,.16-5.25l-.26.43c.06-2,.14-4,.24-5.68.17-3,.65-7.52,1.17-12.3.79-7.31,1.69-15.59,1.5-19.61a17.24,17.24,0,0,0-.92-4.25h0c0-.17.05-.33.08-.5a2.12,2.12,0,0,1-.43-.86l-.06.19a56,56,0,0,0-2.72-6.15h0c-.31-.62-.64-1.23-1-1.86-2.9-5.29-6.63-10.52-10-13.3-.26-.21-.51-.41-.77-.59-.41-.29-.81-.57-1.21-.82a21.08,21.08,0,0,0-8-3.22,25.51,25.51,0,0,0-2.6-.35c-1.14-.1-2.34-.15-3.64-.15-.92,0-1.89,0-2.85.06h0l-2.08.1-2.87.18a66.65,66.65,0,0,0-7.3,1c-1.07.2-2.12.41-3.16.63-1.62.35-3.2.72-4.69,1.12l-1.69.36s0,0,0,.07c-1.82.49-3.49,1-5,1.4l-.11-.15-1.59.49L122,81.5l.1.14-.41.12c-.52.16-1,.28-1.3.37a8,8,0,0,1-2,.22,21.24,21.24,0,0,1-6.1-1.12l-.15.26,1.11,1.1s0,0-.06,0c-1.2-1.08-2.52-2.22-3.78-3.25-.85-.69-1.66-1.33-2.4-1.87a12.56,12.56,0,0,0-2.23-1.33,17,17,0,0,0-2.64-.77c-.92-.2-1.92-.38-2.91-.54-2.48-.39-4.84-.63-5.58-.7h-.56l-.06-.25c-.21-1-.47-2.05-.75-3s-.68-2.21-1.06-3.25L91,66.22s0,.18,0,.49A66.74,66.74,0,0,0,87.47,59l-.33-.48A18.91,18.91,0,0,0,85.36,52a37.2,37.2,0,0,0-5-7.42l.42-.57,0,0h0a16.8,16.8,0,0,0,5.9-3.52c.31-.27.62-.54.92-.83l.14-.13c.32-.32.63-.65.93-1a10.09,10.09,0,0,0,1.77-3.38c0-.1,0-.21,0-.32s.15-.46.2-.7c0,0,.51-2.72,0-3.56l.29,0A12.37,12.37,0,0,0,90.88,29a8.4,8.4,0,0,0-3.32-5.83,9.18,9.18,0,0,0-5.66-1.16,19.59,19.59,0,0,0-7.84,2.18c-.93.51-2,1.07-3.19,1.64a12.19,12.19,0,0,1-2.56.88l.09,0-.24-.15a13.09,13.09,0,0,0-5.31-1.83,30.52,30.52,0,0,0-4.58,0l-2.89.18a16.7,16.7,0,0,1-3.1,0l-.71-.11a30.78,30.78,0,0,0-6.9-.56,13.35,13.35,0,0,0-5.88,1.6A27.33,27.33,0,0,0,34,29.35a14.26,14.26,0,0,1-2.23-5.84c-.27-3,0-5.92-.46-7.56A2.59,2.59,0,0,0,31,15.2l.31.24a13,13,0,0,1,.52,4.64c0,3,0,6.36,2.15,8.72l.12.13.13-.11a27.2,27.2,0,0,1,4.48-3.2,12.51,12.51,0,0,1,3.1-1.21l.35-.08-.3-.19a35,35,0,0,1-3.63-2.56A21.2,21.2,0,0,1,36,19.1l.47.37c-.83-1-2.83-3.44-3.14-3.83s-1.47-2.89-3.8-2.08l-.11,0h0l-.24.1-.22.11a5.82,5.82,0,0,0-.94.64l0,0a6.18,6.18,0,0,0-2.36,2.75,2,2,0,0,0-.09.2s0,.07-.05.1l-.06.14c0,.05-.05.1-.07.16l-.05.12c0,.06-.05.13-.08.19l-.05.14-.09.21-.05.14-.09.24,0,.07a16.29,16.29,0,0,0-.8,2.91s0,.06,0,.09a2.33,2.33,0,0,0-.06.35,1.55,1.55,0,0,0,0,.21c0,.12,0,.24-.05.36a1.64,1.64,0,0,1,0,.22c0,.12,0,.24,0,.36s0,.15,0,.23l0,.37v.22c0,.13,0,.25,0,.38v.21c0,.64,0,1.27.08,1.88a9.25,9.25,0,0,0,5.65,6.91l1.54-1.39a47.35,47.35,0,0,0-3.57,4.5C26.72,37.92,26.09,39,25.48,40A26.65,26.65,0,0,1,20,47c-.43.39-.81.79-1.15,1.16a8.2,8.2,0,0,0-.71,1.13l-.08,0-.28.06A24.44,24.44,0,0,0,13,59l.32.08.05-.1.13,0a18.25,18.25,0,0,0,.35,7.9l.26,0h.08v0l.09-.07a4.57,4.57,0,0,1,.08-1v-.08l0,.08A58,58,0,0,0,17.63,73l.24-.09,0,0,.32-.12L17.9,72l0,0c.23.23,5.56,5.66,7.11,8.63l.17.32.13-.3.13.25.14-.33a4.87,4.87,0,0,1,.79-1.24l.07-.08,0-.1s-.09-.13-.14-.21l-.18-.27h0c-.28-.45-.67-1.1-1.1-1.85l.52.73.11.18c.36.62.52.85.74,1.2l.1.16.16-.13a15.5,15.5,0,0,1,9.43-1.91,22,22,0,0,1,7.42,4.3,3.12,3.12,0,0,0,.43.27,8.55,8.55,0,0,1-2.38-1.47,21.46,21.46,0,0,0-5.47-3.1H35.9a22.24,22.24,0,0,0-2.45,0h0A12.22,12.22,0,0,0,27.08,79a4.76,4.76,0,0,0-1.92,3.61,10.65,10.65,0,0,0,.67,4.67h.05l.33-.08,0-.19a23.73,23.73,0,0,0,1.16,2.42,13.47,13.47,0,0,0,3.57,4.18l.19-.19.09,0-.63-.65a25.64,25.64,0,0,0,6.27,2.38l.15-.28-.1-.06v0l-1-.67.78.25a19.48,19.48,0,0,0,6,.61,17,17,0,0,0,1.78-.21,79.83,79.83,0,0,1-.72,12.26h-.05c-.15.72-.3,1.49-.46,2.3l-.09.5c-.24.87-.51,1.72-.8,2.54.1.14.18.26.26.39a78.66,78.66,0,0,0-1.26,12.8c0,.18,0,.35-.06.52l.06,0a34.75,34.75,0,0,0,.24,3.73c0,.1,0,.21,0,.3.08.59.19,1.21.31,1.86,0,.25.11.52.16.78s.16.8.25,1.22.16.72.25,1.07.15.68.24,1,.22.89.33,1.34c.05.21.1.43.16.64h0c0,.15.07.3.11.45.61,2.32,1.26,4.67,1.86,6.79.69,2.47,1.3,4.6,1.62,6.07s.61,3.48,1,6.06c0,.12,0,.26.05.38.14,1,.29,2.15.46,3.34.37,2.64.85,5.68,1.51,9.21h0c.08.4.15.79.23,1.19.33,1.69.7,3.47,1.12,5.36l.85,3.65c1.22,5.09,2.33,9.22,3.23,12.62.78,2.87,1.42,5.27,1.87,7.3.27,1.23.47,2.33.59,3.33h0l.06.54c0,.43.07.86.07,1.26,0,1.26,0,2.69-.12,4.14,0,.82-.1,1.64-.17,2.44-.13,1.64-.28,3.14-.4,4.23l0,.22,0,.28,0,.09a1.64,1.64,0,0,1-.14.39H56.6a6.72,6.72,0,0,0-1.12.15,11.29,11.29,0,0,0-2.11-.72l-.15,0-.27-.06c-.17,0-.34-.07-.52-.09h0l-.64-.08q-.37,0-.75,0a9,9,0,0,0-1.79.18l-.19.05.12-.06.58-.23-.62-.07a11.13,11.13,0,0,0-1.28-.08l-.43,0-.29,0a8.75,8.75,0,0,0-1.63.16c-2.82.56-5,4.47-6.07,8.75l0,0a21.18,21.18,0,0,0-.66,3.87,5.26,5.26,0,0,0,1.64,4.6,7.19,7.19,0,0,0,4.66,1.7l.1-.29a5.38,5.38,0,0,1-1-.68,5.61,5.61,0,0,1-1.72-4.87c0-.67.13-1.36.25-2.05-.11.68-.19,1.37-.23,2a5.71,5.71,0,0,0,1.5,4.68c1.49,1.44,3.78,1.74,5.45,1.74H50l.12.06.17-.26a5.41,5.41,0,0,1-.9-.89,6.46,6.46,0,0,0,3.75,1.89,47.72,47.72,0,0,0,7.68.54h0c3.35,0,8.11-.27,11.71-1.55a11.69,11.69,0,0,0,1.38-.6l.06,0c0-.07,0-.14,0-.2,2.45-1.58,2.58-3.91,2.72-6.6a22.83,22.83,0,0,1,.38-3.6,26.84,26.84,0,0,1,1.76-5.13,12.8,12.8,0,0,0,1.45-5.63c-.1-2.91,0-13.56.16-21.58.05-1.68.1-3.25.14-4.6l0-.45c.27-6.47,1.74-15.92,2.17-18.57,3,1,5.19,1.5,5.19,1.5.79,3.77,1.61,8.22,2.29,12.68.28,1.84.54,3.68.76,5.47.27,2.22.49,4.38.63,6.38,0,.39.06.79.1,1.19.09,1.2.19,2.45.31,3.72,0,.34.06.68.09,1v.12c.16,1.8.32,3.65.47,5.51,0,.36,0,.71.08,1.06,0,.73.1,1.45.14,2.18h0c.06.86.1,1.72.14,2.57a53.72,53.72,0,0,1-.31,10.07,2.85,2.85,0,0,0-.42,0c-2,.38-4.82,1.6-6.15,7.66s-.73,8,.52,9.32c.81.86,2.78,1.17,4.21,1.17h0a6.64,6.64,0,0,0,2.89-.54l.08,0,.09.2a5.55,5.55,0,0,0,4.17,2c.23,0,.47,0,.71,0a8.34,8.34,0,0,0,5.69-2.21,3.47,3.47,0,0,0,.22.65c.48.93,2,1.68,3.87,1.88a7.12,7.12,0,0,0,.94,0,6.25,6.25,0,0,0,4.92-2,1.37,1.37,0,0,0,.13-.2,4.58,4.58,0,0,0,2.4.82l.46,0h0a6.59,6.59,0,0,0,4.89-2.16c1.13-1.23,1.51-3.87,1-7.24-.57-4.15-2.3-8.23-3.93-9.29a5.13,5.13,0,0,0-2.59-.78c-.2-.36-.38-.72-.54-1.07l.46,0a3.15,3.15,0,0,1,.44,0l.3,0-.15-.26c-1.88-3.2-2.07-5.36-2.07-9.88,0-.33,0-.7,0-1.11s0-.66,0-1c.12-2.46.42-5.93.85-9.86,0-.44.09-.89.15-1.34.27-2.42.58-5,.94-7.58l.07,0c0-.17,0-.35.07-.52l-.07,0c0-.2.06-.39.08-.59.26-1.7.51-3.39.79-5,.19-1.12.38-2.29.57-3.48h.08c.09-.62.19-1.26.29-1.9l-.08,0c.15-1.05.31-2.13.46-3.21.18-1.29.36-2.59.53-3.9h0c0-.27.06-.53.1-.8,0-.43.11-.86.16-1.3a10.23,10.23,0,0,1,.43-1.53v.07l.24-.08a180,180,0,0,0,20.19-7.72A80.25,80.25,0,0,1,130.39,164l-.16.05.06.15a67.39,67.39,0,0,0,8.41,13.4l1.54,1.9.07.08c1.31,1.61,2.56,3.13,3.62,4.59-.21,0-.42,0-.63,0,.31.46.55,1,.85,1.41s.83,1.18,1.2,1.8l.61,0a10.82,10.82,0,0,1,1.23,3.39c.6,3.9-.81,12.82-2.31,16.62a22,22,0,0,1-2.42,4.91l-.28.35a4,4,0,0,1-.72.67,4.5,4.5,0,0,0-1.05-.27,23.39,23.39,0,0,0-4-.93,4.87,4.87,0,0,0-.65-.05,3.79,3.79,0,0,0-1.72.41l-.26,0a4.33,4.33,0,0,0-.66,0,5.22,5.22,0,0,0-3.68,1.45c-2.43,2.34-4.34,6.54-3.28,10a3.62,3.62,0,0,0,2,2.37,5.45,5.45,0,0,0,2.74.42l.34,0,0,0a6.19,6.19,0,0,0,3.72,1,12.52,12.52,0,0,0,1.79-.16,5,5,0,0,0,.71.3,14.08,14.08,0,0,0,3.61.31h0c2.12,0,4.46-.15,5.74-.25a6.11,6.11,0,0,0,1.18,4.48,2.93,2.93,0,0,0,1.88.89l.43.07-.26-.33a6.19,6.19,0,0,1-1.08-3.9,17,17,0,0,1,4-10.67,4.6,4.6,0,0,1,.52-.19,16.6,16.6,0,0,0-4.36,10.86,5.43,5.43,0,0,0,1.42,4.14,6.32,6.32,0,0,0,4.29,1.44h.52a17.68,17.68,0,0,0,3.06-.48l-.42-.43a7.11,7.11,0,0,0,4,1.18h.47a5.86,5.86,0,0,0,4-1.36,12.62,12.62,0,0,0,1.56.54,9.9,9.9,0,0,0,2.75.34,15.39,15.39,0,0,0,7.79-2.15,5,5,0,0,0,1.38-1.2l0-.05V231c0-.37,0-.72-.07-1.08a21,21,0,0,0,.83-6.06c.08-1.52.17-3.23.38-5.17a136.33,136.33,0,0,1,3.07-17.14c.23-1.05.47-2.12.72-3.24,1.6-7.28,1.92-9.54,1.27-12.74C185.7,183.25,185.47,181.9,184.91,178.21ZM86.32,65.51c-.36,3.38-.5,7.44-3.87,10.81,2.57-3.92,1-2.2,1.28-3l-1.06,1.75a13.57,13.57,0,0,1-1.79,2.06l-.29-.22h-.06a13.71,13.71,0,0,0,3.58-4.84c0,.71-.11,1.39-.15,1.56l.33.09v0h0c2.17-5.12,1.89-12,1.88-12.1l0-.52.45,1c0,.09,0,.17.07.26h0L87,63v.36s-.15.11-.27-.39l-.44-1.36ZM59.05,76.89a7.66,7.66,0,0,0,1.74-4,9.21,9.21,0,0,1-.33,1.86A7.54,7.54,0,0,1,59.05,76.89Zm-36.74-7.3a2.75,2.75,0,0,1,0-.41,10.13,10.13,0,0,1,1.28-3.31A11.89,11.89,0,0,0,22.31,69.59Zm6.42-11.47a9,9,0,0,0-2.81,1.42l-.12.1.06.07,0,0h0l-.06-.08s.17-.16.45-.38l.13-.1h0l.41-.27.1-.07.15-.09a9.49,9.49,0,0,1,1.69-.63h0l0,0h0Zm-2.25,3.63h0Zm2.16-2.41-.15-.18,0,0,.07-.13,0,.18h0ZM49.1,63.23l0,0-.3,0c.33-.09.62-.15.84-.19Zm7.76,15.55A30.83,30.83,0,0,1,54,80.47a13.85,13.85,0,0,1-4.75,1.69A26.84,26.84,0,0,0,56.86,78.78ZM119.44,128c-.33-1.92-.57-3.32-.58-3.66.17,1,.39,2.31.64,3.83Zm41.63,89.76.08-.05-.23.18ZM75.64,27.58a11.76,11.76,0,0,1,7.56-3.83h.19a6.34,6.34,0,0,1,4.73,1.71,9.54,9.54,0,0,1,2.55,5.1h0l-.23.3A9.5,9.5,0,0,0,88,25.64,6,6,0,0,0,83.44,24H83.3c-.29,0-.58.06-.86.1l-.28.06c-.21,0-.41.08-.62.14l-.3.08c-.25.08-.51.16-.76.26s-.33.14-.5.21L79.7,25a12.16,12.16,0,0,0-3.79,2.76c-3,3.3-3.48,6.47-2.65,8.14a49.47,49.47,0,0,0,4.86,6c.62.7,1.25,1.41,1.85,2.11a2.33,2.33,0,0,1-.33-.14c-.77-.87-1.42-1.55-1.83-2-.16-.22-.31-.42-.13-.12l-.35-.35.06.12A42.31,42.31,0,0,1,72.94,36C72.14,34.39,72.36,31.21,75.64,27.58Zm9.09,122.93v0l0,0a26.11,26.11,0,0,1-4.22-7.21h.08a26.48,26.48,0,0,0,3.84,6.72l.32.4s-.11-1.37-.16-1.94c.17,1.4.35,2.94.54,4.54h0c.25,2,.52,4.16.81,6.17-.48-2.76-.89-5.36-1-6.9C84.87,151.56,84.76,150.81,84.73,150.51Z"/>
      <path class="ad8616e4-eeb3-4048-8e1e-2a9fa090360c" d="M207.06,206.64a28.86,28.86,0,0,1-10.78-2.09c-7.83-3.23-17.85-14.36-20.35-35.07l0-.25c-.46-5.24-.54-11.42-.53-15.69,0-.59,0-1.27,0-1.66,0-.13,0-.27,0-.4,0-4.26.17-8.61.37-12.29l0-.36c0-.22,0-.45,0-.67s0-.57.05-.93c0-.83.1-1.8.16-2.49a8.33,8.33,0,0,1,.23-1.34c.21-2.13.46-4.48.73-6.89s.71-7.64,1-11.54c.14-1.7.27-3.17.36-4.1l0-.33c0-.43,0-.84,0-1.22a8,8,0,0,1,6.73-7.81l.31-.05a7.77,7.77,0,0,1,1.27-.1,8,8,0,0,1,7.55,5.39,65.62,65.62,0,0,1,3.45,17.32c.15,2.74.21,5.7.26,8.83a7.3,7.3,0,0,1,.19,1.55c0,.22,0,.58.07.94.07.73.12,1.47.13,1.94a8.09,8.09,0,0,1-.25,2.16c.06,2.42.17,5.21.36,8.09a8.43,8.43,0,0,1,.4,2.07c0,.36,0,.75.06,1.14s0,.94.07,1.37a7.94,7.94,0,0,1,0,1.29c.19,1.69.41,3.29.67,4.86l.19,1.15c.3,1.86.59,3.6.87,5.25.17,1,.38,2.16.55,3.07,1.18,6.3,2.27,9.49,3.75,11a14.54,14.54,0,0,0,1.62,1.45l.32-.15a22.27,22.27,0,0,0,4.63-2.91,13.7,13.7,0,0,1,8.49-2.95,11.38,11.38,0,0,1,7,2.27,10,10,0,0,1,1.72,1.65c4,5,4.52,13.46-3.5,21.12A26,26,0,0,1,207.06,206.64Z"/>
      <path class="ad8616e4-eeb3-4048-8e1e-2a9fa090360c" d="M222.62,183.17a1.45,1.45,0,0,0-.34-.31,3.48,3.48,0,0,0-2.17-.65,5.74,5.74,0,0,0-3.51,1.21,30.83,30.83,0,0,1-6.1,3.84,9.12,9.12,0,0,1-4.06,1.11c-2.21,0-4.33-1.19-7.08-4-3.12-3.15-4.58-8-5.93-15.14-.17-.94-.38-2.13-.57-3.19-.28-1.67-.57-3.42-.88-5.31l-.19-1.15c-.37-2.31-.66-4.62-.89-6.9h.16c-.06-.82-.09-1.78-.14-2.59l-.25,0c-.34-4.35-.49-8.58-.57-12.6l.3,0c0-.72-.18-2.22-.2-2.91H190c0-.29,0-.58,0-.86-.06-3.32-.11-6.45-.27-9.24a57.35,57.35,0,0,0-3-15.14l-.3,0c0,.73,0,1.55-.09,2.42a1.94,1.94,0,0,0,0-.24c-.28,3.13-1.05,12.39-1.42,15.78-.31,2.87-.61,5.63-.84,8l-.1,0c-.08.93-.15,2.45-.2,3.23h0c0,.33,0,.66-.06,1-.19,3.51-.33,7.84-.37,12.3h0c0,.38,0,1,0,1.63,0,5.31.13,10.69.5,15,2.23,18.47,10.77,26.68,15.47,28.62a20.77,20.77,0,0,0,7.72,1.49h0a17.93,17.93,0,0,0,12.76-5.18C224.45,189,224.22,185.15,222.62,183.17Z"/>
      <path class="ad8616e4-eeb3-4048-8e1e-2a9fa090360c" d="M42.54,32.26a8,8,0,0,1-3.77-.95c-1.76-.94-6-3.41-8.3-6.5l-.22-.27A8,8,0,0,1,41.37,13.17L47.48,18a8,8,0,0,1-4.94,14.3Z"/>
      <path class="ad8616e4-eeb3-4048-8e1e-2a9fa090360c" d="M42.54,24.26l-6.1-4.79.36.45C38.19,21.93,42.54,24.26,42.54,24.26Z"/>
    </g>
    <g>
      <path class="ba31e2a7-69df-4324-8735-837c16eae49d" d="M42.5,229.52c.35-5.12,2.8-11.38,6.63-12.89l.58-.23-.62-.07a11.13,11.13,0,0,0-1.28-.08,10.31,10.31,0,0,0-1.77.16c-4,.72-6.87,7.13-7.26,12.65a5.26,5.26,0,0,0,1.64,4.6,7.19,7.19,0,0,0,4.66,1.7l.1-.29a5.38,5.38,0,0,1-1-.68A5.61,5.61,0,0,1,42.5,229.52Z"/>
      <path class="ba31e2a7-69df-4324-8735-837c16eae49d" d="M48.12,232.4c-.75-2.33,1.75-9.25,3-11.23A7.65,7.65,0,0,1,55.62,218l.38-.1-.34-.19A9.65,9.65,0,0,0,51,216.46a9,9,0,0,0-1.79.18c-3.67.73-6.32,7.25-6.68,12.87a5.71,5.71,0,0,0,1.5,4.68c1.49,1.44,3.78,1.74,5.45,1.74H50l.12.07.17-.27A6.58,6.58,0,0,1,48.12,232.4Z"/>
      <path class="a120f2ac-ed48-4c9c-88a5-f412175bd707" d="M44.33,91.86s.94,8.25-1.49,20.8,12.46,34,12.46,34l31.22-4.24,5.71-56.53-11.64-9-21.15,1Z"/>
      <path class="b127fe7c-f911-4ff9-829a-4f2872406cf8" d="M82.87,168.22v.12c-.32,2-1.94,12.12-2.23,18.95l0,.45c0,1.35-.09,2.92-.14,4.6-.2,8-.26,18.67-.16,21.58a12.8,12.8,0,0,1-1.45,5.63,26.84,26.84,0,0,0-1.76,5.13,22.83,22.83,0,0,0-.38,3.6c-.14,2.78-.27,5.17-3,6.75l-.11.06a15.77,15.77,0,0,0-.94-4.19l-.29-.74c-.14-.33-.28-.65-.43-1a4.77,4.77,0,0,0-.31-.6l-.08-.17c-.06-.07-.12-.19-.15-.23-.19-.37-.39-.72-.61-1.07-2.61-4.45-7-8.56-12.31-9.27a8.13,8.13,0,0,0-1.1-.07h-.67l.16-.25a1.84,1.84,0,0,0,.25-.6l0-.09.09,0a11.75,11.75,0,0,1,3.33-.47c.38,0,.74,0,1.07,0a11.61,11.61,0,0,0-1.77-.12,11.94,11.94,0,0,0-2.46.25l-.21,0,0-.22c.12-1.09.27-2.59.4-4.23.07-.8.12-1.62.17-2.44.09-1.45.14-2.89.12-4.14,0-.4,0-.83-.07-1.26a32.85,32.85,0,0,0-.65-3.87c-.45-2-1.09-4.43-1.87-7.3-.9-3.4-2-7.53-3.23-12.62l-.85-3.65c-.42-1.89-.79-3.67-1.12-5.36-.08-.4-.15-.79-.23-1.19h0c-.66-3.53-1.14-6.57-1.51-9.21-.17-1.19-.32-2.31-.46-3.34,0-.12,0-.26-.05-.38-.35-2.58-.62-4.59-1-6.06s-.93-3.6-1.62-6.07c-.6-2.12-1.25-4.47-1.86-6.79A80.66,80.66,0,0,1,41.65,130c0-.09,0-.2,0-.3-.62-4.83-.07-11.74,1.65-20.52.16-.81.31-1.58.46-2.3l.32,0c-.6,13.82,4.81,25.62,9.58,34.36l0,.08c1.23,2.27,4.74,8.57,7.69,12.85l.09.13a26.45,26.45,0,0,0,2.49,3.16c3.34,3.39,6.08,5.46,12.65,8.05,2,.79,4.08,1.66,6.18,2.58Z"/>
      <path class="a8703371-6b1a-4bb4-9f3e-c11aa6933dc9" d="M41.65,130a80,80,0,0,0,1.7,7.94c.4-.51-.5-5.09-.5-5.09s8,4.78,10,6.82c-4.26-8.33-9.33-20.56-8.8-32.75l-.32,0c-.15.72-.3,1.49-.46,2.3C41.54,118,41,124.91,41.61,129.74,41.63,129.84,41.63,130,41.65,130Z"/>
      <path class="a8703371-6b1a-4bb4-9f3e-c11aa6933dc9" d="M70,225.79a36.33,36.33,0,0,0,.3-9.22,34.51,34.51,0,0,0-2.68-11.08c-1.17-2.44-3.28-4.63-6.27-3.93a7.13,7.13,0,0,0-3.53,2.18l.06.54c0,.43.07.86.07,1.26,0,1.25,0,2.69-.12,4.14,0,.82-.1,1.64-.17,2.44-.13,1.64-.28,3.14-.4,4.23l0,.22,0,.28,0,.09a1.84,1.84,0,0,1-.25.6l-.16.25h.67a8.13,8.13,0,0,1,1.1.07C63.3,218.49,67.32,221.87,70,225.79Z"/>
      <path class="ba31e2a7-69df-4324-8735-837c16eae49d" d="M71.84,227.85a24.26,24.26,0,0,0-3-4.26c-3.48-4-7.65-6.26-11.74-6.26H56.6A7.24,7.24,0,0,0,51,220.73c-1.23,2-3.75,9.19-3,11.41a6.13,6.13,0,0,0,5.25,4.58,47.72,47.72,0,0,0,7.68.54h0c3.35,0,8.11-.27,11.71-1.55a11.69,11.69,0,0,0,1.38-.6l.06,0a16.1,16.1,0,0,0-2-7A1.34,1.34,0,0,1,71.84,227.85Z"/>
      <path class="ab4de80e-9bdb-4011-9dcf-bbd4633c3897" d="M48.2,216.33a8.41,8.41,0,0,0-1.11-.08,8.75,8.75,0,0,0-1.63.16c-2.82.56-5,4.47-6.07,8.75a3,3,0,0,0,2.82.63C43.18,221.54,44.89,216.92,48.2,216.33Z"/>
      <path class="ab4de80e-9bdb-4011-9dcf-bbd4633c3897" d="M55.67,217.58A11.44,11.44,0,0,0,51,216.46a9,9,0,0,0-1.79.18c-2.88.57-5.13,4.72-6.14,9.19a7.12,7.12,0,0,0,5.11,1.38C49,222.44,51.35,217.28,55.67,217.58Z"/>
      <path class="ab4de80e-9bdb-4011-9dcf-bbd4633c3897" d="M69.91,225.64c-.31-.4-1-1.16-1.3-1.56-3.36-3.9-7.38-6.05-11.32-6.05l-.54,0a7,7,0,0,0-5.44,3.26A29.31,29.31,0,0,0,49,227.17C51.36,230.2,67.79,231.42,69.91,225.64Z"/>
      <path class="ba31e2a7-69df-4324-8735-837c16eae49d" d="M115,225.29c-.86-2.85-2.89-4.48-5.57-4.48-2.37,0-3.91.93-4.72,2.84-.88,2.06-1.1,14.68,0,16.81.48.93,2,1.68,3.87,1.88a7.12,7.12,0,0,0,.94,0,6.25,6.25,0,0,0,4.92-2C116.86,237.49,115.8,227.92,115,225.29Z"/>
      <path class="a66fbb81-0c00-4312-b6f3-2e89b8d8afa1" d="M186.17,185.54c-.59-2.91-.8-4.28-1.79-10.88l-.35-2.35c-.16-1-.3-2.25-.43-3.65v-.15a236.23,236.23,0,0,1-.13-28.89c.17-3,.65-7.52,1.17-12.3.79-7.31,1.69-15.59,1.5-19.61a17.24,17.24,0,0,0-.92-4.25h0c-.12-.38-.26-.77-.41-1.17a56,56,0,0,0-2.72-6.15h0c-.31-.62-.64-1.23-1-1.86-2.9-5.29-6.63-10.52-10-13.3-.26-.21-.51-.41-.77-.59-.41-.29-.81-.57-1.21-.82a21.08,21.08,0,0,0-8-3.22,25.51,25.51,0,0,0-2.6-.35c-1.14-.1-2.34-.15-3.64-.15-.92,0-1.89,0-2.85.06h0l-2.08.1-2.87.18a66.65,66.65,0,0,0-7.3,1c-1.07.2-2.12.41-3.16.63-1.62.35-3.2.72-4.69,1.12l-.75.19c-2.34.61-4.48,1.23-6.26,1.75l-1.6.49-1.56.46c-.52.16-1,.28-1.3.37a8,8,0,0,1-2,.22,21.24,21.24,0,0,1-6.1-1.12l-.15.26,1.11,1.1.77.78-.83-.75c-1.2-1.08-2.52-2.22-3.78-3.25-.85-.69-1.66-1.33-2.4-1.87a12.56,12.56,0,0,0-2.23-1.33,17,17,0,0,0-2.64-.77c-.92-.2-1.92-.38-2.91-.54-2.48-.39-4.84-.63-5.58-.7H93l.06.87c.47,2.45.4,4.26,1.29,6.72a76.27,76.27,0,0,0-1.29-7.84c-.21-1-.47-2.05-.75-3s-.68-2.21-1.06-3.25A67.48,67.48,0,0,0,87.47,59l-.53-.77c0,.46.11,1.88.08,5,0,0-.15.11-.27-.39l-.44-1.36v4c-.36,3.38-.5,7.44-3.87,10.81,2.57-3.92,1-2.2,1.28-3l-1.06,1.75A14.24,14.24,0,0,1,79,78.68l-.1.07,0,.12a67,67,0,0,1,3,9c.19.74.36,1.52.52,2.33a53.66,53.66,0,0,1,1,11.29c0,1.29-.07,2.63-.17,4l0,.27c-.12,1.35-.28,2.74-.52,4.18a66.09,66.09,0,0,1-3.19,12.33c-3.5,9.71-.1,21.5,4.87,27.65l.32.4s-.11-1.37-.16-1.94c.17,1.4.35,2.94.54,4.54h0c.27,2.17.56,4.45.86,6.58.42,2.85.85,5.46,1.27,7.26,1,4.31,2.15,10.2,3,16.13.28,1.84.54,3.68.76,5.47.27,2.22.49,4.38.63,6.38,0,.39.06.79.1,1.19.09,1.2.19,2.45.31,3.72,0,.34.06.68.09,1v.12c.16,1.8.32,3.65.47,5.51,0,.36,0,.71.08,1.06,0,.73.1,1.45.14,2.18h0c.06.86.1,1.72.14,2.57a51.59,51.59,0,0,1-.38,10.55l0,.21.2,0,.45,0a6.9,6.9,0,0,1,2.88.72l.1.05.08-.08a4.91,4.91,0,0,1,3.85-1.51c2,0,3.46.62,4.23,1.83l.14.21.13-.22a4.72,4.72,0,0,1,4.46-2.3,5.4,5.4,0,0,1,4,1.67l.1.11.11-.1a5.56,5.56,0,0,1,3.19-.94,3.17,3.17,0,0,1,.44,0l.3,0-.15-.26c-1.88-3.2-2.07-5.35-2.07-9.88,0-.32,0-.69,0-1.11s0-.65,0-1c.12-2.47.42-5.93.85-9.87,0-.44.09-.88.15-1.34.32-2.95.72-6.13,1.18-9.31,0-.17,0-.35.07-.52.28-1.91.57-3.82.88-5.68.19-1.12.38-2.29.57-3.48.09-.62.18-1.26.28-1.9.29-2,.58-4,.83-6h0c.13-.92.25-1.83.35-2.75.27-2.16,1.55-4,1.76-6.05,0-.26-.49-1.15-.46-1.4.49-5.23,1.07-8.67,1-12.18,0-.33-.14-1.64-.17-2,0-1.21-.26-2.63-.41-4.09-.47-4.63-3-18-3.08-19.15.65,3.83,2,12.39,2.74,19.05.1,1,.25,2.71.33,4,0,.37,0,.74,0,1.08,0,1.51,0,3.33-.07,5.4v.13l.13,0a4.61,4.61,0,0,0,.84.07,11.07,11.07,0,0,0,4-1.07c4.23-1.78,7.82-3,11.56-3h.16a13.16,13.16,0,0,1,8.79,3.26l.23-.2-.29-.45a43.38,43.38,0,0,1,3.25,4.29c3.53,5.54,8.14,13.22,10.07,18.36,4.39,11.72,4,25,3.1,30.45a28.76,28.76,0,0,1-4.42,11l-.11.17.19,0a5.35,5.35,0,0,1,1.44.7l.09.06.09-.06a5.07,5.07,0,0,1,2.61-1l.49,0a5.87,5.87,0,0,1,5,2.18l.06.08.09,0a9.73,9.73,0,0,1,1.43-.1,6.94,6.94,0,0,1,3.91,1.06,6.79,6.79,0,0,1,1.36,1.37c.1.11.19.23.28.35l.06.09.31.43.4.65h0l.07.11.07.11a11.44,11.44,0,0,1,1.35,3.41s0,.21.11.53a.08.08,0,0,0,0,0,1.77,1.77,0,0,0,0,.2q.09.36.15.75t.12.72c.12.66.23,1.35.27,1.88l0,.49.25-.43c.91-1.57,1-3.78,1.2-6.87.08-1.52.17-3.23.38-5.17a136.33,136.33,0,0,1,3.07-17.14c.23-1.05.47-2.12.72-3.24C186.5,191,186.82,188.74,186.17,185.54Z"/>
      <path class="a430ace0-d8ed-44b2-af51-c0dc3710767b" d="M51.86,98.45a22,22,0,0,0,19.41-1.94A33.53,33.53,0,0,0,81.38,86a70.92,70.92,0,0,0-2.44-7.1l-.07-.18-.16.11a15,15,0,0,1-5,2.06c.21-.11,2.32-1.1,2.57-1.24L76,79.35A55.31,55.31,0,0,1,65.66,82,22.81,22.81,0,0,0,54.29,87.1c-1.24,2.09-2.69,5-5.79,6a13.8,13.8,0,0,1-4,.64h-.16A31.28,31.28,0,0,0,51.86,98.45Z"/>
      <path class="a430ace0-d8ed-44b2-af51-c0dc3710767b" d="M84.88,152.2c0-.64-.12-1.39-.15-1.69v0l0,0a28.4,28.4,0,0,1-5.36-10.5c-8.61,5.86-21.46,6.55-26.5-.21l.81,1.52c.07.12,6.24,13.15,9.19,16.94C68.44,165.38,88,170.22,88,170.22S85.29,156.69,84.88,152.2Z"/>
      <path class="a854160a-8903-43dd-861c-aa50e32ae50d" d="M185.83,185.54c-.59-2.91-.79-4.28-1.79-10.88l-.35-2.35c-.16-1-.3-2.25-.42-3.65v-.15c-.17-1.9-.28-4-.37-6.25a21.89,21.89,0,0,1-2.65,4.74c-4.07,5.44-9.35,3.14-13.59-1-7.88-7.63-12.11-22.72-25.17-21.69-3.36.27-12.95,2.22-18.41.25a96.24,96.24,0,0,0-4.09-18s0,0,0,0c.77,5.74,1.61,11.5,2.5,17.24l-.16-.1c.1,1,.23,2.52.3,3.74,0,.37,0,.74,0,1.08,0,1.51,0,3.33-.07,5.4v.13l.14,0a4.43,4.43,0,0,0,.83.07,11,11,0,0,0,4-1.07c4.23-1.78,7.82-3,11.56-3h.17a13.16,13.16,0,0,1,8.78,3.26l.24-.2c-.11-.15-.21-.31-.3-.45a43.38,43.38,0,0,1,3.25,4.29c3.53,5.54,8.15,13.22,10.07,18.36a62.78,62.78,0,0,1,3.61,19.48c.77-2.38,2-4.6,4.19-5.66,3-1.45,5.52.3,6.92,3,4.33,8.41,2.52,19.37.56,29a.76.76,0,0,0,.08.11c.1.11.19.23.29.35a.24.24,0,0,0,.06.09l.3.43c.14.22.28.43.4.65h0a.34.34,0,0,1,.07.11.41.41,0,0,1,.07.11,11.21,11.21,0,0,1,1.36,3.41s0,.21.11.53v0c0,.06,0,.13,0,.2q.09.36.15.75c0,.23.09.47.13.72.11.66.22,1.35.26,1.88l0,.49.25-.43c.92-1.57,1-3.78,1.21-6.87.07-1.52.17-3.23.37-5.17a136.33,136.33,0,0,1,3.07-17.14c.23-1.05.48-2.12.73-3.24C186.16,191,186.48,188.74,185.83,185.54Z"/>
      <path class="a854160a-8903-43dd-861c-aa50e32ae50d" d="M122,146.78c0-.33,0-.68,0-1-.06-1.2-.25-5.21-.25-5.21s-6.52,19.51-17.23,10.88c-4-3.24-14.4-20.71-18.07-19.19-3.24,1.34-3.24,4.16-6.7,5.89a29.11,29.11,0,0,0,5,10l.32.39s.34,2.29.38,2.61h0c.27,2.17.56,4.45.86,6.57.42,2.86.85,5.46,1.27,7.26,1,4.31,2.15,10.21,3,16.14.28,1.84.54,3.68.76,5.47.27,2.22.49,4.38.63,6.37,0,.4.06.79.1,1.2.09,1.2,1,12.8,1,13,.69-8.89,8.84-10.49,14.09-8.06,6.33,2.94,3.86,15,8.61,21.53a6.19,6.19,0,0,1,1.08-.1,3.15,3.15,0,0,1,.44,0l.3,0-.15-.26c-1.88-3.2-2.07-5.36-2.07-9.88,0-.33,0-.7,0-1.11s0-.66,0-1c.12-2.46.42-5.93.85-9.86,0-.44.09-.89.15-1.34.33-3,.72-6.13,1.18-9.32,0-.17,0-.34.07-.51.28-1.91.57-3.82.88-5.68q.28-1.7.57-3.48c.09-.63.18-1.26.28-1.9.29-2,.58-4,.83-6h0c.13-.92.25-1.83.36-2.75.26-2.16.5-4.3.7-6.38,0-.26,0-.52.08-.78A119.64,119.64,0,0,0,122,146.78Z"/>
      <path class="a66fbb81-0c00-4312-b6f3-2e89b8d8afa1" d="M222.62,183.17a3.16,3.16,0,0,0-2.51-1,5.74,5.74,0,0,0-3.51,1.21,30.83,30.83,0,0,1-6.1,3.84,9.12,9.12,0,0,1-4.06,1.11c-2.21,0-4.33-1.19-7.08-4-4.22-4.26-5.41-11.56-7.38-23.64l-.19-1.15c-1.48-9.06-1.63-18-1.76-25.86-.06-3.32-.11-6.45-.27-9.24a57.35,57.35,0,0,0-3-15.14l-.3,0c-.05,4.32-.8,11.23-1.53,18-.51,4.75-1,9.23-1.17,12.26a236.36,236.36,0,0,0,.13,28.9c2.23,18.47,10.77,26.68,15.47,28.62a20.77,20.77,0,0,0,7.72,1.49h0a17.93,17.93,0,0,0,12.76-5.18C224.45,189,224.22,185.15,222.62,183.17Z"/>
      <path class="a854160a-8903-43dd-861c-aa50e32ae50d" d="M222,182.66c-3.26,4.59-7.58,8.69-12.94,9.87-7.51,1.66-15.64-4.14-18.34-11-1.71-4.34-3.78-15.91-3.95-32.95-.07-6,0-12.08,0-18.12,0-3.32.15-11.7-.44-18.91-.28,3.13-1.05,12.39-1.42,15.78-.51,4.75-1,9.23-1.17,12.26a236.36,236.36,0,0,0,.13,28.9c2.23,18.47,10.77,26.68,15.47,28.62a20.77,20.77,0,0,0,7.72,1.49h0a17.93,17.93,0,0,0,12.76-5.18c4.63-4.43,4.4-8.31,2.8-10.29A2,2,0,0,0,222,182.66Z"/>
      <path class="e79f68cc-8665-4fdb-a6b0-45bfeb0eafe3" d="M189.22,119.46c-.18-1.18-.38-2.32-.61-3.37A22.59,22.59,0,0,0,186,117c-.1,1.21-.23,2.48-.36,3.77C186.81,120.27,188,119.85,189.22,119.46Z"/>
      <path class="e79f68cc-8665-4fdb-a6b0-45bfeb0eafe3" d="M190.4,137.5c0-.72-.18-2.22-.2-2.91a41.1,41.1,0,0,0-6.23.85c-.08.93-.15,2.45-.2,3.23A30.62,30.62,0,0,1,190.4,137.5Z"/>
      <path class="e79f68cc-8665-4fdb-a6b0-45bfeb0eafe3" d="M191.06,152.7c-.06-.82-.09-1.78-.14-2.59-2.54.17-5.23.4-7.56,1.82,0,.66,0,2.16,0,2.82A14,14,0,0,1,191.06,152.7Z"/>
      <path class="e79f68cc-8665-4fdb-a6b0-45bfeb0eafe3" d="M184,169.29c.22,1.66.49,3.23.81,4.73a27.83,27.83,0,0,1,8.71-4.48c-.23-1.18-.54-2.94-.76-4.25C192.61,165.3,186.64,167.83,184,169.29Z"/>
      <path class="ba31e2a7-69df-4324-8735-837c16eae49d" d="M119.44,222.38a5.28,5.28,0,0,0-2.94-.8,6.46,6.46,0,0,0-3.45.92l-.14.1.11.13a7.18,7.18,0,0,1,1.38,2.48c.69,2.1,2,10.77-.13,14.61l0,.09.07.09a4.13,4.13,0,0,0,2.68,1.05l.46,0h0a6.59,6.59,0,0,0,4.89-2.16c1.13-1.23,1.51-3.87,1-7.24C122.8,227.52,121.07,223.44,119.44,222.38Z"/>
      <path class="ba31e2a7-69df-4324-8735-837c16eae49d" d="M105,223.51l0-.09-.06-.07a5.89,5.89,0,0,0-4.59-2c-2.9,0-5,1.12-6.42,6.59-1.4,5.31-1.41,9.84,0,12.1a5.55,5.55,0,0,0,4.17,2c.23,0,.47,0,.71,0a8.39,8.39,0,0,0,5.8-2.3l.06-.06,0-.09C103.86,235.89,104.06,225.54,105,223.51Z"/>
      <path class="ba31e2a7-69df-4324-8735-837c16eae49d" d="M150.26,154.45l-.09-.15c-2.13-3.18-6.23-5.19-10.68-5.22h-.15c-3.94,0-7.71,1.25-12.15,3.14a11.31,11.31,0,0,1-4.22,1.17,5.46,5.46,0,0,1-.83-.07l-.19,0v.19c-.18,3.86-.56,8.42-1.14,13.54l0,.26.24-.08c9.39-3.14,20-6.7,29.11-12.65Z"/>
      <path class="ba31e2a7-69df-4324-8735-837c16eae49d" d="M135.22,222.69l0-.19c1.07-6.69,3.54-8.41,5.42-8.68.34,0,.67-.06.92-.07v-.15h0v-.18a23,23,0,0,0-5.12-1.34,4.87,4.87,0,0,0-.65-.05,3.86,3.86,0,0,0-2.26.73c-2.24,1.6-3.88,6.47-4.16,9.23a4.73,4.73,0,0,0,1.9,4.65,6.19,6.19,0,0,0,3.72,1,11.73,11.73,0,0,0,2.23-.23l.38-.07-.31-.2A4.26,4.26,0,0,1,135.22,222.69Z"/>
      <path class="b127fe7c-f911-4ff9-829a-4f2872406cf8" d="M161.09,174.25c-2.16-5.63-7.35-14.52-10.83-19.74l-.21-.38-5,3.31A82.12,82.12,0,0,1,130.39,164l-.16.05.06.15a67.39,67.39,0,0,0,8.41,13.4l1.54,1.9.07.08c3.41,4.18,6.36,7.79,6.88,11.15.6,3.9-.81,12.82-2.31,16.62a22,22,0,0,1-2.42,4.91l-.28.35a3,3,0,0,1-1.3,1l-.44.14.44.16a8.32,8.32,0,0,1,2.48,1.49h0a15.76,15.76,0,0,1,1.33,1.28,19.85,19.85,0,0,1,3.7,6.31l.17-.38a8.2,8.2,0,0,1,5.72-4.61,5.29,5.29,0,0,1,3.09-1.32h.45a7.77,7.77,0,0,1,1.63.16l.11,0,.06-.09a28.63,28.63,0,0,0,4.71-11.38C165.22,199.83,165.69,186.21,161.09,174.25Z"/>
      <path class="ba31e2a7-69df-4324-8735-837c16eae49d" d="M143.51,214.62l-.3-.22a5.05,5.05,0,0,0-3.69-1.46,5.16,5.16,0,0,0-1.16.13c-2.71.59-3.88,5.37-4.38,9.26a5,5,0,0,0,3.52,5.46,14.08,14.08,0,0,0,3.61.31h0c2.18,0,4.6-.16,5.86-.26h.13l0-.27c0-.21,0-.42.07-.65a20.12,20.12,0,0,1,1.12-4.24,14.56,14.56,0,0,0-.57-1.56A18.57,18.57,0,0,0,143.51,214.62Z"/>
      <path class="ba31e2a7-69df-4324-8735-837c16eae49d" d="M94.08,227.83a12.75,12.75,0,0,1,2.12-4.74l.13-.16-.2-.09a7.84,7.84,0,0,0-3-.68,4.85,4.85,0,0,0-.87.08c-2,.38-4.82,1.6-6.15,7.66s-.73,8,.52,9.32c.81.86,2.78,1.17,4.21,1.17h0a6.64,6.64,0,0,0,2.89-.54l.13-.08-.06-.13C92.63,237.16,92.72,232.86,94.08,227.83Z"/>
      <path class="ab4de80e-9bdb-4011-9dcf-bbd4633c3897" d="M115.19,233.82a37.17,37.17,0,0,0-.83-7.66c-.86-2.85-2.59-4.32-5.28-4.32-2.36,0-3.18.72-4,2.63-.47,1.1-.86,5.41-.65,9.3C109,236.39,111.68,236,115.19,233.82Z"/>
      <path class="ab4de80e-9bdb-4011-9dcf-bbd4633c3897" d="M123.37,232c-.57-4.15-2.3-8.23-3.93-9.29a5.36,5.36,0,0,0-2.94-.8,6.68,6.68,0,0,0-3.28.82c2.7,2.3,3.18,7.34,3.07,10.75a7.89,7.89,0,0,0,7.2-.42C123.46,232.67,123.42,232.31,123.37,232Z"/>
      <path class="ab4de80e-9bdb-4011-9dcf-bbd4633c3897" d="M104.77,223.24a6.18,6.18,0,0,0-4.31-1.71c-2.9,0-5,1.12-6.42,6.59a32.35,32.35,0,0,0-.92,4.88,11.34,11.34,0,0,0,10.5.28C103.49,231.48,103.35,226,104.77,223.24Z"/>
      <path class="ab4de80e-9bdb-4011-9dcf-bbd4633c3897" d="M96.09,223a7.65,7.65,0,0,0-2.89-.65,4.12,4.12,0,0,0-.88.08c-2,.38-4.82,1.6-6.15,7.66-.24,1.1-.42,2.06-.54,2.91a7.27,7.27,0,0,0,6.85.27C92.86,229.25,93.8,225.19,96.09,223Z"/>
      <path class="ba31e2a7-69df-4324-8735-837c16eae49d" d="M129.43,222c.35-3.16,2.25-7.64,4.5-9.29l.3-.22-.41,0a4.33,4.33,0,0,0-.66,0,5.22,5.22,0,0,0-3.68,1.45c-2.43,2.34-4.34,6.54-3.28,10a3.62,3.62,0,0,0,2,2.37,5.45,5.45,0,0,0,2.74.42l.37,0-.24-.22A4.67,4.67,0,0,1,129.43,222Z"/>
      <path class="e79f68cc-8665-4fdb-a6b0-45bfeb0eafe3" d="M102.19,75.42h0c-.89,7.29-2.76,14.4-7,20.28-1.77,2.47-8.71,9.58-12.52,14.23l-.07.09A25.15,25.15,0,0,0,80.5,113c-3.63,6.53-6.72,10.72-9.09,20.29-.07-6.83,2.48-13.8,5.75-19.46a45.76,45.76,0,0,1,5.49-7.72c-4.82,2.11-13.85,10.3-14.25,10.72a49.44,49.44,0,0,1,9.89-11.42,51.2,51.2,0,0,1,5.12-3.86s0,0,0,0A50.54,50.54,0,0,0,90,96.43c5.31-5.11,7.53-13.74,9.29-21.57,1,.16,2,.34,2.91.54C102.18,75.41,102.19,75.41,102.19,75.42Z"/>
      <path class="e79f68cc-8665-4fdb-a6b0-45bfeb0eafe3" d="M107.42,123.09c-.57,6.92-3,12.89-10.23,20-4.54,4.48-9.15,8.78-11.14,16.37-.31-2.13-.6-4.41-.86-6.58h0a28.16,28.16,0,0,1,7.25-10C99.09,137.24,104.64,132.18,107.42,123.09Z"/>
      <path class="e79f68cc-8665-4fdb-a6b0-45bfeb0eafe3" d="M61.74,154.48l-.3-.1c-6.47-2.11-11.68-5.81-17-14.33-.33-.54-.67-1.08-1-1.62A80.66,80.66,0,0,1,41.65,130c0-.09,0-.2,0-.3a26.91,26.91,0,0,1,4.16,5.74c4,7.61,7.61,14.05,15.58,18.77Z"/>
      <path class="e79f68cc-8665-4fdb-a6b0-45bfeb0eafe3" d="M122,147.45a1.26,1.26,0,0,0-.28.05c-17.66,1.84-31.55,14-31.92,14.27.31-.42,10.06-17.22,31.6-18.31l.26-.06C121.84,144.86,122,146.24,122,147.45Z"/>
      <path class="e79f68cc-8665-4fdb-a6b0-45bfeb0eafe3" d="M112.5,162.85a42.48,42.48,0,0,0-6.19,4.46,26.73,26.73,0,0,1,9.26-1.12,12,12,0,0,1,4.88,1.52c-.11,1-.23,2.07-.36,3.12a11.39,11.39,0,0,0-5.63-1.9c-4.34-.23-17.08,5.62-25.15.57,7.57.63,12.5-2.41,19.22-6.49a24.54,24.54,0,0,1,12.73-3.41c0,.29-.06.59-.08.88A23.45,23.45,0,0,0,112.5,162.85Z"/>
      <path class="e79f68cc-8665-4fdb-a6b0-45bfeb0eafe3" d="M92.39,185.24c10.87-2.65,20.44,1.29,25,3.78,0,.17,0,.35-.07.52-5-1.86-15.68-4.8-26.23-1.17-.22-1.79-.48-3.63-.76-5.47,8.78-5.57,19-7.58,28.8-4.94-.1.64-.2,1.28-.29,1.9A40.94,40.94,0,0,0,92.39,185.24Z"/>
      <path class="e79f68cc-8665-4fdb-a6b0-45bfeb0eafe3" d="M113.83,83a2.57,2.57,0,0,1-.53-.45h0s0,0-.06,0c-2.09,1-5.78,3.52-7,9.58,0-.56-1-7.17,3.18-12.83l-2.4-1.87c-4.5,8.33-4.36,19-4,24.16.48,6.1-.53,18-8.25,27.7,16-13.25,11.56-31.79,14.65-39.11A14.13,14.13,0,0,1,114.85,84,7.19,7.19,0,0,0,113.83,83Z"/>
      <path class="e79f68cc-8665-4fdb-a6b0-45bfeb0eafe3" d="M123.47,130.69c-2.6-14.46,3.27-20.25,3.35-30C126.92,87.93,122,81.5,122,81.5l1.54-.46,1.59-.49s5.25,6.56,4.62,18.89C129.09,112.93,122.8,117.27,123.47,130.69Z"/>
      <path class="e79f68cc-8665-4fdb-a6b0-45bfeb0eafe3" d="M130.2,79.23c1.86,5.83,9.79,18.09,10.14,27,.26,6.43-3.51,14.8-7.48,23.92,5.72-8.78,10.62-17.3,11-24.73s-5.11-16.08-4.14-28.34c-1.07.2-2.12.41-3.16.63.31,5.47,1.15,12.61,3.61,18.79-2.67-5.27-6.29-12.65-8.3-17.67Z"/>
      <path class="e79f68cc-8665-4fdb-a6b0-45bfeb0eafe3" d="M157.38,85.11c-1.94,6.53-1.27,13.26-.73,20,.58,7.21,4.13,18.18-3.17,26.37-3.67,4.1-7,6.37-10.59,13.56,1.59-11.06,8.14-11.83,11.67-22.58,2.33-7.13-4-24.19-4.76-28.9A53.66,53.66,0,0,1,149.91,76l2.08-.1a91,91,0,0,0,1.59,23.61c0,.24.07.46.11.7-.08-1.29-.15-2.58-.18-3.84a43.06,43.06,0,0,1,5-20.38,25.51,25.51,0,0,1,2.6.35A46.92,46.92,0,0,0,157.38,85.11Z"/>
      <path class="e79f68cc-8665-4fdb-a6b0-45bfeb0eafe3" d="M175.3,87.48c-8.29,10.89-2.67,33.36-8,45.64-4.1,9.42-6.48,15.48-21,15.43,14.24-2.35,19.68-12.94,20-26.82C166.56,112.2,164.46,97.75,175.3,87.48Z"/>
      <path class="e79f68cc-8665-4fdb-a6b0-45bfeb0eafe3" d="M184.87,102.09l-.06.19c-.88,2.59-2,5.11-3.13,7.62a81.1,81.1,0,0,0,.41-13.77h0l-1-1.86c.2,12-3.46,31.31-11.14,41.94,12.87-11.56,14.34-27,15.27-32.74h0c0-.17.05-.33.08-.5A2.12,2.12,0,0,1,184.87,102.09Z"/>
      <path class="e79f68cc-8665-4fdb-a6b0-45bfeb0eafe3" d="M150.26,157c.07.12.14.26.21.41l.25.4c.21.35.49.66.68,1a31.72,31.72,0,0,0,12.74-3.44,84,84,0,0,1-9.48,8.67,12,12,0,0,1,.67,1.28,53.15,53.15,0,0,0,26.53-34.13C173.49,150.78,158.78,155.71,150.26,157Z"/>
      <path class="e79f68cc-8665-4fdb-a6b0-45bfeb0eafe3" d="M185,176.77a38,38,0,0,1-22.5,4.79c.26,1.47.6,2.84.73,4.37,4.56-.21,13.93-1.22,21.78-7.79A10.45,10.45,0,0,1,185,176.77Z"/>
      <path class="e79f68cc-8665-4fdb-a6b0-45bfeb0eafe3" d="M164,202.36c0,.56-.18,1.84-.28,2.4,8.8,3.77,19.58-1.47,19.58-1.47S171.74,206,164,202.36Z"/>
      <path class="e79f68cc-8665-4fdb-a6b0-45bfeb0eafe3" d="M75.53,167.64c-.64-.41-11-7.14-17.06-7.51a25.68,25.68,0,0,0-10.06.94c-.17-1.19-.32-2.31-.46-3.34,4.18-1.87,7-1.83,12.09-.63C65.65,158.43,75,167.1,75.53,167.64Z"/>
      <path class="e79f68cc-8665-4fdb-a6b0-45bfeb0eafe3" d="M52.12,180.49c7.11-2.14,27.54-3.18,27.54-3.18s-16.12-11.08-29.74-7h0c.08.4.15.79.23,1.19,7.44-.7,15.44,2.48,15.44,2.48s-9.71,1.36-14.32,2.88Z"/>
      <path class="e79f68cc-8665-4fdb-a6b0-45bfeb0eafe3" d="M80.6,187.74c0,1.35-.09,2.92-.14,4.6-10.29-4.08-24.15-.84-24.69-.71C56.22,191.4,69.64,184.7,80.6,187.74Z"/>
      <path class="e79f68cc-8665-4fdb-a6b0-45bfeb0eafe3" d="M122.35,153.66c5.79-5.41,8.15-21.18,5.66-32.82C128.46,130.11,124.6,149.26,122.35,153.66Z"/>
      <path class="e79f68cc-8665-4fdb-a6b0-45bfeb0eafe3" d="M161.93,179.08c-.05-.3-.13-.59-.18-.89a2.72,2.72,0,0,0-.11-.25c-4.46,2.78-11.62,6.42-18.34,6.23.31.46.55,1,.85,1.41s.83,1.18,1.2,1.8c7.05-.27,12.93-4.5,16.6-8C162,179.3,161.94,179.19,161.93,179.08Z"/>
      <path class="e79f68cc-8665-4fdb-a6b0-45bfeb0eafe3" d="M151.4,158.78a87.61,87.61,0,0,1-15.88,3.57,14.78,14.78,0,0,1-4.38,1.52c.32,1.14.72,2.28,1.13,3.42,10.49,2.72,20.78-2.44,20.78-2.44s-13.13,2.83-18.53,0C142.49,164.19,151.4,158.78,151.4,158.78Z"/>
      <path class="e79f68cc-8665-4fdb-a6b0-45bfeb0eafe3" d="M115.19,210.06c0,.36,0,.7,0,1-6.32-1.26-15.15-2-22.05,1.06,0-.85-.09-1.71-.14-2.57h0c5.65-2.7,12-2.16,18.12-.41-5.89-3.54-12.2-3.43-18.26-1.77,0-.35-.06-.7-.08-1.06C100.22,203.45,108,203.75,115.19,210.06Z"/>
      <path class="e79f68cc-8665-4fdb-a6b0-45bfeb0eafe3" d="M76.79,214.54s-10.91-3.26-19.14-2.42c.07-.8.12-1.62.17-2.44A32.07,32.07,0,0,1,76.79,214.54Z"/>
      <path class="e79f68cc-8665-4fdb-a6b0-45bfeb0eafe3" d="M148.72,118.72c-12.44,9.52-7.77,20.29-15.89,31.64C142.13,145.09,141.34,128.07,148.72,118.72Z"/>
      <path class="e79f68cc-8665-4fdb-a6b0-45bfeb0eafe3" d="M171.07,81c-4.1,4.64-6.1,8.69-7.94,20.21-.83-7.93.88-16.31,6-21.62.4.25.8.53,1.21.82C170.56,80.55,170.81,80.75,171.07,81Z"/>
      <path class="e79f68cc-8665-4fdb-a6b0-45bfeb0eafe3" d="M183.49,144.87a68,68,0,0,0-3.48,6.58c-4.13,8.88-12.83,12.74-12.83,12.74a25.86,25.86,0,0,0,13.43-9,25,25,0,0,0,2.72-5.09A35.43,35.43,0,0,1,183.49,144.87Z"/>
      <path class="e79f68cc-8665-4fdb-a6b0-45bfeb0eafe3" d="M93.07,73.9C92,78.25,89.26,84.39,82.4,90.2v0a50,50,0,0,1-9.69,6.32,48.24,48.24,0,0,0,9.16-8.65l0,0A41.91,41.91,0,0,0,91,66.22l.29,1.39c.38,1,.73,2.13,1.06,3.25S92.86,72.87,93.07,73.9Z"/>
      <path class="e79f68cc-8665-4fdb-a6b0-45bfeb0eafe3" d="M43.19,109.63c-.23.9-.52,1.78-.82,2.63.14.2.27.38.38.55,3.7,5.9,6.84,9.63,9.3,18.44,0-6.38-2.62-12.75-5.94-17.85A30.81,30.81,0,0,0,43.19,109.63Z"/>
      <path class="e79f68cc-8665-4fdb-a6b0-45bfeb0eafe3" d="M82.79,124c-3.55,5.88-4.61,15.19-4.14,22a68,68,0,0,1,7.7-21.38c2.94-5,9.51-14.53,9.51-14.53S86.42,118,82.79,124Z"/>
      <path class="e79f68cc-8665-4fdb-a6b0-45bfeb0eafe3" d="M114.85,113.82c-2.88,6.24-3.78,15.62-2.56,22.35a68.19,68.19,0,0,1,5.29-22.1c2.38-5.28,5.7-14.19,1-25.08C121.26,99.31,117.8,107.44,114.85,113.82Z"/>
      <path class="e79f68cc-8665-4fdb-a6b0-45bfeb0eafe3" d="M41.44,124.18a10.71,10.71,0,0,1-.13,1.79,42.1,42.1,0,0,1,5.52,4.43,97.65,97.65,0,0,1,11.14,14c-2.37-5.77-7.22-14.05-11-17.79A9.47,9.47,0,0,0,41.44,124.18Z"/>
      <path class="e79f68cc-8665-4fdb-a6b0-45bfeb0eafe3" d="M146.29,202.22a11.72,11.72,0,0,1-.41,2.61c5,4.43,12.46,3.09,16.53,1.81C156.56,207.6,150.48,206.19,146.29,202.22Z"/>
      <path class="ba31e2a7-69df-4324-8735-837c16eae49d" d="M165.37,229.71c0-2.27,1.68-10,5.58-11.28l.25-.08-.17-.18c-.69-.74-2.34-2-5.57-2h-.53c-4.93.2-9.17,7.23-9.19,12.85a5.12,5.12,0,0,0,1.49,4.07,7.14,7.14,0,0,0,4.73,1.78h.47a5.88,5.88,0,0,0,4.15-1.47l.23-.11-.2-.15C165.74,232.5,165.37,231.47,165.37,229.71Z"/>
      <path class="ba31e2a7-69df-4324-8735-837c16eae49d" d="M157.55,233.33a5.53,5.53,0,0,1-1.51-4.27,15.09,15.09,0,0,1,5.57-11.72l.2-.14-.21-.13a7.37,7.37,0,0,0-3.68-.87h-.48c-4.45.2-8.28,7.23-8.3,12.85a5.43,5.43,0,0,0,1.42,4.14,6.32,6.32,0,0,0,4.29,1.44h.52a17.68,17.68,0,0,0,3.06-.48l-.52-.54C157.78,233.52,157.66,233.43,157.55,233.33Z"/>
      <path class="ba31e2a7-69df-4324-8735-837c16eae49d" d="M179.28,226.14a13,13,0,0,0-.68-1.94c-.18-.41-.41-1-.72-1.67a9.28,9.28,0,0,0-2.7-3.21,6.67,6.67,0,0,0-3.72-.91,10.87,10.87,0,0,0-1.81.15c-3.36.55-5.18,8.16-5.18,11.15s.8,3.59,3.53,4.38a10,10,0,0,0,2.76.34,15.39,15.39,0,0,0,7.79-2.15,5,5,0,0,0,1.38-1.2l0-.05V231A22,22,0,0,0,179.28,226.14Z"/>
      <path class="ba31e2a7-69df-4324-8735-837c16eae49d" d="M149,229.06a17,17,0,0,1,4.1-10.82l-.2-.25c-2.23,1-5.06,3.29-5.92,8.66-.4,2.48,0,4.39,1.05,5.68a2.93,2.93,0,0,0,1.88.89l.43.07-.26-.33A6.19,6.19,0,0,1,149,229.06Z"/>
      <path class="ab4de80e-9bdb-4011-9dcf-bbd4633c3897" d="M169.73,217.91a6.18,6.18,0,0,0-4.65-1.71h-.47c-4.06.19-7.58,6.37-8,11.78a8.33,8.33,0,0,0,7.55.11C165.51,220.35,168.36,218.11,169.73,217.91Z"/>
      <path class="ab4de80e-9bdb-4011-9dcf-bbd4633c3897" d="M160.9,217.45a6.36,6.36,0,0,0-3.21-.79h-.44c-3.83.19-7.16,6.42-7.55,11.83a7.28,7.28,0,0,0,5.68.33C156.31,221.18,159.56,218.06,160.9,217.45Z"/>
      <path class="ab4de80e-9bdb-4011-9dcf-bbd4633c3897" d="M176.87,221c-.25-.24-1.16-1.09-1.44-1.29a6.67,6.67,0,0,0-3.72-.91,10.87,10.87,0,0,0-1.81.15c-2.73.45-4.44,5.56-5,9.06C168.68,230.1,176.19,229.27,176.87,221Z"/>
      <path class="ab4de80e-9bdb-4011-9dcf-bbd4633c3897" d="M152.55,218.34l-.05-.06c-2.08,1-4.73,3.3-5.53,8.66-.07.43-.1.83-.13,1.22a2,2,0,0,0,1.63.53C148.35,225.29,149.87,220.66,152.55,218.34Z"/>
      <path class="a66fbb81-0c00-4312-b6f3-2e89b8d8afa1" d="M90.88,29a8.4,8.4,0,0,0-3.32-5.83,9.18,9.18,0,0,0-5.66-1.16,19.59,19.59,0,0,0-7.84,2.18c-.93.51-2,1.07-3.19,1.64a12.19,12.19,0,0,1-2.56.88l.09,0-.24-.15a13.09,13.09,0,0,0-5.31-1.83,30.52,30.52,0,0,0-4.58,0l-2.89.18a16.7,16.7,0,0,1-3.1,0l-.71-.11a30.78,30.78,0,0,0-6.9-.56,13.35,13.35,0,0,0-5.88,1.6c-5.26,2.95-9.31,8.08-11.25,10.88C26.72,37.92,26.09,39,25.48,40A26.65,26.65,0,0,1,20,47c-.43.39-.81.79-1.15,1.16a7.91,7.91,0,0,0-.72,1.15l-.35.08A24.44,24.44,0,0,0,13,59l.32.08.26-.6a18.92,18.92,0,0,0,.27,8.43l.34-.06a7.11,7.11,0,0,1-.1-1v-.89l.3.84A58,58,0,0,0,17.63,73l.32-.12-.49-1.36.47.49c.23.23,5.56,5.66,7.11,8.63l.17.32.14-.33a4.87,4.87,0,0,1,.79-1.24l.08-.08-.06-.09c-.76-1.17-4.51-7.13-4.09-10s3.57-6.73,4.19-7.48l0,0v0a2.65,2.65,0,0,0-.49-1.85l-.11-.14a8.71,8.71,0,0,1,3.43-1.78l.18-.26a10.55,10.55,0,0,1,2.39-2.82c.27-.21.57-.41.89-.64a12,12,0,0,0,3.11-2.82l.11-.16s3.51-3.46,2.16-4-6.5,1.35-6.5,1.35-2.23-1.88-1.72-4,3-3.45,4.56-3.54c.13,0,.37,1.32.47,1.33.89.16,1.58-.43,1.86.43h.26c.47,1.42,1.46,2.52.7,5.66S34.41,52.45,32.86,54a13,13,0,0,1-1.16.83,12.62,12.62,0,0,0-3.2,3.72l.15.85-.15-.1a13.49,13.49,0,0,1,1.15,1.3c1.31,1.72,3.49,4.59,6.55,4.86a12.06,12.06,0,0,0,1.82,0,49,49,0,0,0,9.06-1.81A22.78,22.78,0,0,1,50,63a1,1,0,0,1,.26,0,1.13,1.13,0,0,1,.64.7l.21.52.11-.55c.1-.48.16-1,.21-1.45v.15h.16a9,9,0,0,1,5.45,2.44A18.75,18.75,0,0,1,60,68.27,6.66,6.66,0,0,1,60.55,70c.08.69.19,1.38.27,2.06a8.17,8.17,0,0,1-.7,3.61c-.84,1.59-4.2,4.25-8.34,6a11.17,11.17,0,0,1-3.55.83,9.45,9.45,0,0,1-6.75-2.22A21,21,0,0,0,36,77.09h-.16a22,22,0,0,0-2.44,0A12.22,12.22,0,0,0,27.08,79a4.76,4.76,0,0,0-1.92,3.61,10.65,10.65,0,0,0,.67,4.67l.33-.07-.07-.39a23,23,0,0,0,1.24,2.61,13.47,13.47,0,0,0,3.57,4.18l.23-.23-.68-.71a25.92,25.92,0,0,0,6.37,2.43l.15-.28L35.82,94l.88.28a19.48,19.48,0,0,0,6,.61A16.35,16.35,0,0,0,47.18,94c3.73-1.35,5.14-3.94,6.27-6a16.12,16.12,0,0,1,1.62-2.54l-.68,1.36.27.18a22.23,22.23,0,0,1,10.45-5.06,44.76,44.76,0,0,0,10-2.48A13.73,13.73,0,0,0,77.75,78a10.5,10.5,0,0,1-1.46,1.36l.19.26A15.19,15.19,0,0,0,84.12,72c-.05.76-.12,1.5-.16,1.68l.33.09c2.16-5.12,1.88-12,1.88-12.11l0-.8.32.75a4.3,4.3,0,0,1,.26.79l.34,0c-.34-7.94-3-12.92-5.26-15.7-.77-1-1.77-2.12-2.66-3.13l-.25.15A16.25,16.25,0,0,0,78,42.21l-.17-.2a47.68,47.68,0,0,1-4.9-6c-.8-1.62-.58-4.8,2.7-8.43a11.76,11.76,0,0,1,7.56-3.83h.19a6.34,6.34,0,0,1,4.73,1.71,9.54,9.54,0,0,1,2.55,5.1l.34,0A12.37,12.37,0,0,0,90.88,29Z"/>
      <path class="a854160a-8903-43dd-861c-aa50e32ae50d" d="M26.31,61.75l0,0v-.05a2.59,2.59,0,0,0-.49-1.84l-.1-.14a6.44,6.44,0,0,1,3-1.56l.62-.49c.15-.22.62-1.34.76-1.54a5.59,5.59,0,0,1-2.73,1.54,8.35,8.35,0,0,0-3.25,1.68C21.74,61.57,22,65.64,22,65.64s1.23-2.91,3.72-3.12C26,62.16,26.19,61.89,26.31,61.75Z"/>
      <path class="a854160a-8903-43dd-861c-aa50e32ae50d" d="M51.17,57.88s-.08,3.72-1.5,5.15a.92.92,0,0,1,1.3.65l.22.52.44-1.85A23.29,23.29,0,0,0,51.5,60C51.46,59.36,51.17,57.88,51.17,57.88Z"/>
      <path class="a854160a-8903-43dd-861c-aa50e32ae50d" d="M67.91,66.52c1.09.37,2.6,3.52,2.6,3.52s-.57-4.4-1.27-5.63c-1-1.68-2.6-1.89-5.63-1.83a6.84,6.84,0,0,1-4.89-2.17,5.66,5.66,0,0,0,2.94,3.51c1.05.6,1.73.49,1.29,1.85a9.14,9.14,0,0,1-2.65,3.16,37,37,0,0,1,.53,4C61.92,71.42,66.21,65.93,67.91,66.52Z"/>
      <path class="ab4de80e-9bdb-4011-9dcf-bbd4633c3897" d="M54.24,54.89c2.09.8,8.64.29,12.8-1.82,2.59-1.32.95-3.41-.25-5.27-1.59-2.44-6-3.38-10.17-1.73C51.6,47.66,52.26,54.12,54.24,54.89Z"/>
      <path class="b1f2cc69-0b5e-41f3-9f6d-e48666991cf8" d="M64.76,49.48a4.19,4.19,0,0,0-1-3.56,3.91,3.91,0,0,0-2-1.35,5.73,5.73,0,0,0-2.35,0A6.46,6.46,0,0,0,56,47.28c-1.22,1.79-2.25,4.59.65,5.23,2.7.58,7-.09,8-2.76C64.7,49.73,64.76,49.5,64.76,49.48Z"/>
      <path class="aa806772-ffdb-4d90-8cf6-7462ad5d5b04" d="M61.58,45.46a5.23,5.23,0,0,1,3.23,2.86,5.34,5.34,0,0,0-1.05-2.22,4,4,0,0,0-2-1.51,4.94,4.94,0,0,0-2.35,0A5.64,5.64,0,0,0,57,46.22,5.42,5.42,0,0,1,61.58,45.46Z"/>
      <path class="aa806772-ffdb-4d90-8cf6-7462ad5d5b04" d="M56.76,51.61c-1.45-1-1.51-2.64-1.2-4.13-.9,1.88-1.25,4.18,1.22,4.8a8.88,8.88,0,0,0,2.47.22A5.68,5.68,0,0,1,56.76,51.61Z"/>
      <path class="ab4de80e-9bdb-4011-9dcf-bbd4633c3897" d="M79.18,43.48l-.25.14c2,3.06,3.61,8.79,4.26,13.55-.3-1-.61-1.7-.83-2.23a25.8,25.8,0,0,1-.18,5.89,24.37,24.37,0,0,1-.12,5.78s-.24-1.94-.32-2.6c-.37,2.86-1.67,6-4.33,7.82-.09.06.9-1.33,1.15-1.8-1.83,1.47-5.65,4.25-8.16,3.13a.71.71,0,0,1-.4-.47,9.6,9.6,0,0,1-.58-2.93c-.35-1.79-.85-4.81-3-5.73-2.83,1.6-4.49,4.67-5.64,7.48,0,.17.05.33.07.49a8.36,8.36,0,0,1-.7,3.62c-.85,1.58-4.2,4.25-8.35,6a11.11,11.11,0,0,1-3.55.83,9.47,9.47,0,0,1-6.74-2.23,21.46,21.46,0,0,0-5.47-3.1H35.9a22.24,22.24,0,0,0-2.45,0A12.09,12.09,0,0,0,27.13,79a4.62,4.62,0,0,0-1.74,3.6,10.34,10.34,0,0,0,.49,4.68l.33-.08-.07-.39a21.23,21.23,0,0,0,1.34,2.55A12.69,12.69,0,0,0,31,93.44l.21-.11-.68-.71a25.11,25.11,0,0,0,6.28,2.29l.1-.22-1-.7.89.27a22.2,22.2,0,0,0,6.12.49,15,15,0,0,0,4.32-.89A11,11,0,0,0,53.49,88a17.09,17.09,0,0,1,1.63-2.54c-.21.42-.45.91-.69,1.36l.27.19a22.13,22.13,0,0,1,10.46-5.06,45.16,45.16,0,0,0,10-2.49A14.05,14.05,0,0,0,77.8,78a11.16,11.16,0,0,1-1.46,1.37l.18.26a15.22,15.22,0,0,0,7.65-7.65c-.06.76-.12,1.5-.16,1.69l.32.08c2.17-5.12,1.89-12,1.88-12.1l0-.81.32.75a5.63,5.63,0,0,1,.26.79l.34,0c-.35-7.94-3-12.91-5.26-15.69C81.07,45.64,80.06,44.48,79.18,43.48Z"/>
      <path class="a430ace0-d8ed-44b2-af51-c0dc3710767b" d="M84.6,51.36c1.11,2.7,1.52,6.8,1.67,7.27a13.29,13.29,0,0,0-1-2.26,42.51,42.51,0,0,1,0,12.36s-.38-2-.52-3.45c-.18,3,.22,7.15-4.29,10.67.54-.68,1.71-2.3,2.17-3C76.65,79,64,77.81,59,78.53A6.64,6.64,0,0,0,61.17,76a5.31,5.31,0,0,0,.36-1.75A10.67,10.67,0,0,1,65,67.34c1.72-1.42,2.7-1.19,3.81-.23A4.71,4.71,0,0,0,66.44,64c-2.83,1.6-4.49,4.67-5.64,7.48,0,.17,0,1.42,0,1.91-.05,1.14-.78,2.8-3,4.67A24.79,24.79,0,0,1,54,80.47a11.82,11.82,0,0,1-9,1.47c1.16.92,3.83,1.19,6.4.74,1.08,1.86-1.63,5-3.63,6.3A10,10,0,0,0,50,87.77c-4.33,4.32-12.37,5.36-18.09,2a7.1,7.1,0,0,0,1.76,1.75S29.93,90,28.53,87.66a7.12,7.12,0,0,0,.95,2,12.77,12.77,0,0,1-4-7.93,7.24,7.24,0,0,0-.15,1,9.87,9.87,0,0,0,.52,4.56l.33-.08-.07-.39a21.23,21.23,0,0,0,1.34,2.55A12.69,12.69,0,0,0,31,93.44l.21-.11-.68-.71a25.11,25.11,0,0,0,6.28,2.29l.1-.22-1-.7.89.27a22.2,22.2,0,0,0,6.12.49,15,15,0,0,0,4.32-.89A11,11,0,0,0,53.49,88a17.09,17.09,0,0,1,1.63-2.54c-.21.42-.45.91-.69,1.36l.27.19a22.13,22.13,0,0,1,10.46-5.06,45.16,45.16,0,0,0,10-2.49A14.05,14.05,0,0,0,77.8,78a11.16,11.16,0,0,1-1.46,1.37l.18.26a15.22,15.22,0,0,0,7.65-7.65c-.06.76-.12,1.5-.16,1.69l.32.08c2.17-5.12,1.89-12,1.88-12.1l0-.81.32.75a5.63,5.63,0,0,1,.26.79l.34,0C87,59.35,86.69,53.72,84.6,51.36Z"/>
      <path class="ab4de80e-9bdb-4011-9dcf-bbd4633c3897" d="M26,59.63l-.14.12c-.33.26-.94.82-.94.81a15.63,15.63,0,0,0-1.94,4.55c-.19.52-.5,1.6-1.2,1.4a7.11,7.11,0,0,1-2.62-2.77,7.72,7.72,0,0,1-1.23-3.69c-.07.39-.15.77-.19,1.16,0,.15-.28.1-.26-.05a.14.14,0,0,0,0-.06h0a5.53,5.53,0,0,1,0-2.59c-.15.41-.51,1.54-.51,1.54s-.09-.67-.09-.7A17.09,17.09,0,0,1,17.41,55a3.72,3.72,0,0,1,.28-.7,8.8,8.8,0,0,0-1,1.32,25.64,25.64,0,0,1,1.84-6.47l-.55.26a24.44,24.44,0,0,0-4.72,9.52l.32.08.26-.6a18.92,18.92,0,0,0,.27,8.43l.16-.11a4.57,4.57,0,0,1,.08-1v-.89l.3.84A58,58,0,0,0,17.89,73l.32-.12-.49-1.36.47.49c.23.23,5.56,5.66,7.11,8.63l.17.32.14-.33a4.87,4.87,0,0,1,.79-1.24l.07-.08,0-.1c-.76-1.16-4.51-7.12-4.09-10s3.57-6.73,4.19-7.48l0,0v0a2.65,2.65,0,0,0-.49-1.85Z"/>
      <path class="a430ace0-d8ed-44b2-af51-c0dc3710767b" d="M26.42,79.19c-.31-.46-1.1-1.72-1.9-3.23a71.68,71.68,0,0,0-5.15-5,11.15,11.15,0,0,1-2.91-4.09c.13.72.75,2.74.75,2.74a42.56,42.56,0,0,1-2.84-6C14.52,67,16.7,70.8,17.89,73l.32-.12-.49-1.36.47.49c.23.23,5.56,5.66,7.11,8.63l.17.32.14-.33a4.87,4.87,0,0,1,.79-1.24l.07-.08Z"/>
      <path class="a430ace0-d8ed-44b2-af51-c0dc3710767b" d="M25.58,62.65c.33-.42.59-.74.73-.9l0,0v-.05a2.59,2.59,0,0,0-.49-1.84l-.1-.14-.15.11c-.33.27-.94.83-.93.81-1,1.34-1.35,2.9-2,4.55l-.14.41A6.28,6.28,0,0,1,25.58,62.65Z"/>
      <path class="a430ace0-d8ed-44b2-af51-c0dc3710767b" d="M83.44,24H83.3a11.52,11.52,0,0,0-7.39,3.74c-3,3.3-3.48,6.47-2.65,8.14a49.47,49.47,0,0,0,4.86,6l2,2.28.08.09.12-.05a22.37,22.37,0,0,0,8.34-5.66,10.09,10.09,0,0,0,1.77-3.38c.77-3.34-.29-7.41-2.47-9.48A6,6,0,0,0,83.44,24Z"/>
      <path class="ab4de80e-9bdb-4011-9dcf-bbd4633c3897" d="M88,25.64A6,6,0,0,0,83.44,24H83.3a11,11,0,0,0-5.48,2.07c3.31-1,7.28.09,8.54,3.46,1.85,5-1.21,11-5.59,14.44a21.82,21.82,0,0,0,7.89-5.48,10.09,10.09,0,0,0,1.77-3.38C91.2,31.78,90.14,27.71,88,25.64Z"/>
      <path class="ab4de80e-9bdb-4011-9dcf-bbd4633c3897" d="M22.41,69.26c-.38,2.64,2.93,8.09,4,9.7l.1.16.16-.13.32-.25a12.59,12.59,0,0,1,6.49-1.93c.71,0,1.47,0,2.24,0h.22l0-.19a17.51,17.51,0,0,1-.17-3v-.13l-.13,0c-1.9-.42-3.76-2.36-5-3.91a23.92,23.92,0,0,1-4-7.21L26.44,62l-.21.28C25.2,63.59,22.76,66.84,22.41,69.26Z"/>
      <path class="a430ace0-d8ed-44b2-af51-c0dc3710767b" d="M35.69,73.51l-.13,0c-1.9-.42-3.76-2.36-5-3.91a28.46,28.46,0,0,1-3-4.67c1.58,7.28,7.45,8.4,7.57,10.26s-4.89.51-9.55,2.55c.39.66.54.89.77,1.25l.1.16.16-.13.32-.25a12.59,12.59,0,0,1,6.49-1.93c.71,0,1.47,0,2.24,0h.22l0-.19a17.51,17.51,0,0,1-.17-3Z"/>
      <path class="a430ace0-d8ed-44b2-af51-c0dc3710767b" d="M29.45,33.56l.12.07.09-.11a42.13,42.13,0,0,1,4.09-4.3l.11-.1-.1-.11c-2.21-2.44-2.23-5.88-2.25-8.93V19.8c0-2.66,0-5.18-1.88-5.58a2.42,2.42,0,0,0-.65-.06c-1.84.11-3.05,2.37-3.37,3.06C24.69,19.17,20.53,29.14,29.45,33.56Z"/>
      <path class="ab4de80e-9bdb-4011-9dcf-bbd4633c3897" d="M27.64,22.08c.58-1.54,1.92-3.95,3.87-3.08,0-2.35-.21-4.42-1.88-4.78a2.42,2.42,0,0,0-.65-.06c-1.84.11-3.05,2.37-3.37,3.06-.89,1.89-4.81,11.27,3,15.89C27.12,29.56,26.3,25.58,27.64,22.08Z"/>
      <path class="a8703371-6b1a-4bb4-9f3e-c11aa6933dc9" d="M29.75,14c2,.69,2.05,3.2,2.06,6.11s0,6.36,2.15,8.72l.12.13.13-.11a27.2,27.2,0,0,1,4.48-3.2,12.51,12.51,0,0,1,3.1-1.21l.35-.08-.3-.19a35,35,0,0,1-3.63-2.56,43.08,43.08,0,0,1-4-4.67c-1-1.27-1.95-2.47-2.49-3a1.88,1.88,0,0,0-1.48-.49l-.28,0a2.71,2.71,0,0,0-.58.14l0,.3A2.09,2.09,0,0,1,29.75,14Z"/>
      <path class="ab4de80e-9bdb-4011-9dcf-bbd4633c3897" d="M36.17,73.58H36v.16a12.77,12.77,0,0,0,.22,3l0,.06.06,0A22,22,0,0,1,41.73,80a9.15,9.15,0,0,0,6.53,2.15h0a10.48,10.48,0,0,0,3.44-.8c4.5-1.86,7.5-4.53,8.2-5.83a8.94,8.94,0,0,0-.15-7.12c-.11-.22-2.85-5.43-8-5.95l-.2,0v.18a7.88,7.88,0,0,1-.38,3,2.17,2.17,0,0,1-.56,1.23c-.69.68-9,6.51-13.77,6.78A4.55,4.55,0,0,1,36.17,73.58Z"/>
      <path class="a430ace0-d8ed-44b2-af51-c0dc3710767b" d="M42.61,79c-3.07-1.75-5.39-1.8-5.56-3.64s9.05-2,13.76-8.87a1.34,1.34,0,0,1-.23.29c-.69.68-9,6.51-13.77,6.78a4.55,4.55,0,0,1-.64,0H36v.16a12.77,12.77,0,0,0,.22,3l0,.06.06,0A22,22,0,0,1,41.73,80c1.73,1.51,4.88,3.29,10,1.35,4.56-1.75,7.5-4.53,8.2-5.83a6.67,6.67,0,0,0,.61-2.39c-.88,3.65-6.35,7.09-11.44,7.58A11,11,0,0,1,42.61,79Z"/>
      <path class="a854160a-8903-43dd-861c-aa50e32ae50d" d="M29.12,58l-.39.11a9,9,0,0,0-2.81,1.42l-.12.1.1.12a2.27,2.27,0,0,1,.48,1.06l.08.53.24-.49a4.08,4.08,0,0,1,1.65-1.63l.14-.07,0,0c.1-.2.25-.47.42-.77Z"/>
      <path class="accf73ca-c0a4-4d4e-951e-ada716d5b45f" d="M50.48,63.19a4.41,4.41,0,0,0-.54-.24c-.43,0-1.43.62-2.65.95l.22-.2a51.23,51.23,0,0,1-9.27,1.86,13.69,13.69,0,0,1-2-.11c-3.19-.29-5.33-3.27-6.68-5a9.71,9.71,0,0,0-.86-1l-.15-.09-.2-.06c-.41.25-1.69,1-1.89,2.12-.16.93,1.65,5.48,3.94,8.38,1.84,2.32,3.82,3.69,5.29,3.91a8.47,8.47,0,0,0,1.23.33l.61-.25C42,73.46,50,67.35,50.81,66.51a3.22,3.22,0,0,0,.41-2.75A.88.88,0,0,0,50.48,63.19Z"/>
      <path class="a03a9710-9b15-4066-948b-0a20386be119" d="M71.5,46.66s5.32,7.72,2.33,14.87c-2.25-2-4.87-2.84-8.38-3.06,6.17,1.46,7.72,4.26,9.16,7.66A17.66,17.66,0,0,0,71.5,46.66Z"/>
      <path class="a03a9710-9b15-4066-948b-0a20386be119" d="M57.07,55.32s10.48.06,11.39-4.92C70.39,58.26,57.07,55.32,57.07,55.32Z"/>
      <path class="a03a9710-9b15-4066-948b-0a20386be119" d="M29.64,53.66s-5.18.67-7.16,2.08c-1.94-7,3.07-14.53,3.07-14.53s-7.36,8.09-4.26,18.38C23.06,55.41,29.64,53.66,29.64,53.66Z"/>
      <path class="a03a9710-9b15-4066-948b-0a20386be119" d="M35.91,72.83a14.88,14.88,0,0,1-.22-6A7.16,7.16,0,0,0,35.91,72.83Z"/>
      <path class="ab4de80e-9bdb-4011-9dcf-bbd4633c3897" d="M47.26,68.83c-.43,0-3.62-1-5.9.14s-1.48,4-1.48,4A45,45,0,0,0,47.26,68.83Z"/>
      <path class="a03a9710-9b15-4066-948b-0a20386be119" d="M47.53,69.1c-.43,0-3.62-1-5.9.14a3.48,3.48,0,0,0-1.75,3.9A33.7,33.7,0,0,0,47.53,69.1Z"/>
      <path class="ab4de80e-9bdb-4011-9dcf-bbd4633c3897" d="M31.22,67.33a2.35,2.35,0,0,0-2.35-.94c.39,1.52,3.7,5.16,3.7,5.16A7.11,7.11,0,0,0,31.22,67.33Z"/>
      <path class="a03a9710-9b15-4066-948b-0a20386be119" d="M31.14,67.33c-.62-1-1.65-1-2.67-.94.39,1.53,3.71,5.16,3.71,5.16A8.34,8.34,0,0,0,31.14,67.33Z"/>
      <path class="a03a9710-9b15-4066-948b-0a20386be119" d="M38,51.36a17.35,17.35,0,0,1,7.88.45A11.29,11.29,0,0,0,38,51.36Z"/>
      <path class="a03a9710-9b15-4066-948b-0a20386be119" d="M52,26.25c-5.28,3.65-7.05,12.38-7.05,12.38S42.64,29.6,52,26.25Z"/>
      <path class="a03a9710-9b15-4066-948b-0a20386be119" d="M67.14,32.32s-6.81-6.15-13-2.63C60.49,22.85,67.14,32.32,67.14,32.32Z"/>
      <path class="a03a9710-9b15-4066-948b-0a20386be119" d="M33.86,30.93S40.38,25,45.67,28.79C40.46,21.72,33.86,30.93,33.86,30.93Z"/>
      <path class="a03a9710-9b15-4066-948b-0a20386be119" d="M57.33,52.78c-.93-.06-3.22.13-3.64-.29s.7-1.26.94-2.16a10.07,10.07,0,0,1,3.15-5.22,3.32,3.32,0,0,1,2-.88s-.1.7-1.25.79c3.69-.67,5.25.11,6,1.48s1.85,2.55,1.34,3.2a7.57,7.57,0,0,1-1.92,1.64C62.07,52.7,59.87,53,57.33,52.78Zm2.39-8.07c-2.1.26-4.21,3-4.48,5.73-.13,1.22,1.73,1.82,2.43,2,2.41.45,5.6-.22,6.65-2A3.8,3.8,0,0,0,64,46.47,4.24,4.24,0,0,0,59.72,44.71Z"/>
      <path class="a03a9710-9b15-4066-948b-0a20386be119" d="M33,52.18s-8.66-3.41-5.9-8.63C20.63,51.58,33,52.18,33,52.18Z"/>
      <path class="a03a9710-9b15-4066-948b-0a20386be119" d="M37.24,31c4.63-1.05,8.35,3.71,8.35,3.71s7.52-4.4,13-2.66c-6.11-2.61-12.36.54-12.36.54A8.25,8.25,0,0,0,37.24,31Z"/>
      <g>
        <path class="a1261be5-2285-40e4-bff1-fb5be71b0011" d="M60.92,50.83a2.93,2.93,0,0,1-3.76-1.22,2.49,2.49,0,0,1,1.34-3.44,3,3,0,0,1,3.77,1.22A2.49,2.49,0,0,1,60.92,50.83Z"/>
        <g>
          <path class="a2cd007e-84d0-48ff-a8cb-f4e4ab316c81" d="M62.06,47.08a3,3,0,0,0-3.56-.91,2.67,2.67,0,0,0-1.45,1.45A4,4,0,0,0,62.06,47.08Z"/>
          <path class="a03a9710-9b15-4066-948b-0a20386be119" d="M59.9,51.18A3.13,3.13,0,0,1,58.73,51a2.83,2.83,0,0,1-1.67-1.37,2.58,2.58,0,0,1,1.4-3.57A3.09,3.09,0,0,1,60.7,46a2.78,2.78,0,0,1,1.66,1.37A2.58,2.58,0,0,1,61,50.92,3.11,3.11,0,0,1,59.9,51.18ZM59.54,46a3,3,0,0,0-1,.23,2.56,2.56,0,0,0-1.4,1.42,2.27,2.27,0,0,0,.1,1.89,2.58,2.58,0,0,0,1.55,1.28,3,3,0,0,0,2.08-.09,2.59,2.59,0,0,0,1.39-1.41,2.26,2.26,0,0,0-.1-1.9,2.63,2.63,0,0,0-1.54-1.28A2.92,2.92,0,0,0,59.54,46Z"/>
          <path class="a03a9710-9b15-4066-948b-0a20386be119" d="M60.52,50.06A2,2,0,0,1,58,49.24a1.66,1.66,0,0,1,.89-2.3,2,2,0,0,1,2.52.82A1.67,1.67,0,0,1,60.52,50.06Z"/>
          <path class="ad8616e4-eeb3-4048-8e1e-2a9fa090360c" d="M58.33,48.23a.48.48,0,0,1-.48.49.5.5,0,0,1-.54-.43.48.48,0,0,1,.48-.5A.49.49,0,0,1,58.33,48.23Z"/>
          <path class="ad8616e4-eeb3-4048-8e1e-2a9fa090360c" d="M60.93,49.71a.27.27,0,0,1-.27.28.29.29,0,0,1-.32-.25.28.28,0,0,1,.28-.28A.28.28,0,0,1,60.93,49.71Z"/>
        </g>
      </g>
      <path class="ad8616e4-eeb3-4048-8e1e-2a9fa090360c" d="M36.3,48.31a.31.31,0,0,1-.37.18.27.27,0,0,1-.2-.33A.3.3,0,0,1,36.1,48,.27.27,0,0,1,36.3,48.31Z"/>
      <path class="ab4de80e-9bdb-4011-9dcf-bbd4633c3897" d="M30.16,62.39s2.58,3.51,6,3.81,9.95-1.36,9.95-1.36S39,67.15,35.75,66.63C32.05,66,30.16,62.39,30.16,62.39Z"/>
      <path class="a03a9710-9b15-4066-948b-0a20386be119" d="M42.56,73.58c5.25.74,10.59.69,14.75-2.68C54.81,72.11,51.8,73.81,42.56,73.58Z"/>
      <path class="a03a9710-9b15-4066-948b-0a20386be119" d="M50.8,76.21a29.4,29.4,0,0,1-8.86-1,18.89,18.89,0,0,0,8.75,1.85,10.58,10.58,0,0,0,7-3.34A15.09,15.09,0,0,1,50.8,76.21Z"/>
      <path class="a03a9710-9b15-4066-948b-0a20386be119" d="M44.16,77.87c4.15,2.45,9.55.33,9.55.33A7.85,7.85,0,0,1,44.16,77.87Z"/>
      <path class="a03a9710-9b15-4066-948b-0a20386be119" d="M22.81,71.77h0s0,.06,0,.09l.09.31a7.14,7.14,0,0,0,5.66-.78,11.63,11.63,0,0,1-5.78.29Z"/>
      <path class="a03a9710-9b15-4066-948b-0a20386be119" d="M23.93,75a13.81,13.81,0,0,0,6.18-2s-3.81,1.6-6.65.8C23.58,74.11,23.83,74.72,23.93,75Z"/>
      <path class="a03a9710-9b15-4066-948b-0a20386be119" d="M28.47,75.4a14,14,0,0,1-3.56,1.15l.29.47A9.25,9.25,0,0,0,28.47,75.4Z"/>
      <path class="ab4de80e-9bdb-4011-9dcf-bbd4633c3897" d="M29.86,41.2S27,42.78,26.79,44s-1,3.64,3.32,6.67,7.75-1.22,8-2.13-.47-.1-.47-.1l-4.06-7Z"/>
      <path class="ab4de80e-9bdb-4011-9dcf-bbd4633c3897" d="M38.18,43.33a3.83,3.83,0,0,0,1.38-2.84c0-1.82-4.84-3.66-9.92-1.35a5,5,0,0,0-2.94,5.32l3.89-3.07,5.82,1Z"/>
      <path class="ab4de80e-9bdb-4011-9dcf-bbd4633c3897" d="M38.54,48a12.54,12.54,0,0,0,1-7.5c-.82-3.93-2.21,4-2.21,4l.4,1.33Z"/>
      <g>
        <path class="b1f2cc69-0b5e-41f3-9f6d-e48666991cf8" d="M38.47,47.52l0-.1a6.9,6.9,0,0,0-.6-1.58A11.22,11.22,0,0,0,33.2,41.1a2.15,2.15,0,0,0-2.3,0,3.88,3.88,0,0,0-.31.26,4,4,0,0,0-1.24,2.93,5.29,5.29,0,0,0,2,4.15,4.4,4.4,0,0,0,1.3.65,10.16,10.16,0,0,0,2.07.18,5.45,5.45,0,0,0,1.08-.22,8,8,0,0,0,2.6-1.48Z"/>
        <path class="aa806772-ffdb-4d90-8cf6-7462ad5d5b04" d="M33.59,41.42l-.51-.29a2.17,2.17,0,0,0-2.32,0,3.61,3.61,0,0,0-.3.25,3.84,3.84,0,0,0-1.19,2.93,5.29,5.29,0,0,0,.28,1.57C29.27,43.37,31.35,40.67,33.59,41.42Z"/>
        <path class="a1261be5-2285-40e4-bff1-fb5be71b0011" d="M35.67,42.74a3.19,3.19,0,0,0-2.73,1.71,2.37,2.37,0,0,0,1.18,3.42,3.11,3.11,0,0,0,3.74-1.55,2.66,2.66,0,0,0,.16-.39A20.33,20.33,0,0,0,35.67,42.74Z"/>
        <path class="a2cd007e-84d0-48ff-a8cb-f4e4ab316c81" d="M35.57,42.86a3,3,0,0,0-2.67,1.63,2.51,2.51,0,0,0-.15,2,3.92,3.92,0,0,0,3.35-3Z"/>
        <path class="a03a9710-9b15-4066-948b-0a20386be119" d="M37.86,45.92a2.75,2.75,0,0,1-.17.45,3,3,0,0,1-1.52,1.38,2.69,2.69,0,0,1-2,0,2.24,2.24,0,0,1-1.31-1.33A2.46,2.46,0,0,1,33,44.52a3,3,0,0,1,.61-.8,3.07,3.07,0,0,1,.91-.58,2.86,2.86,0,0,1,1.14-.2,1.63,1.63,0,0,1-.17-.2,3.39,3.39,0,0,0-1,.22,3.15,3.15,0,0,0-1.64,1.49A2.48,2.48,0,0,0,34.07,48a2.88,2.88,0,0,0,2.16,0,3.17,3.17,0,0,0,1.64-1.49c.05-.1.08-.21.12-.31Z"/>
        <path class="a03a9710-9b15-4066-948b-0a20386be119" d="M37,44.62c-.13-.17-.25-.34-.38-.5a1.89,1.89,0,0,0-.47-.3,2,2,0,0,0-2.45,1,1.6,1.6,0,0,0,.81,2.26,2,2,0,0,0,2.45-1A1.69,1.69,0,0,0,37,44.62Z"/>
        <path class="ad8616e4-eeb3-4048-8e1e-2a9fa090360c" d="M34.36,44a.53.53,0,0,1-.25.69.48.48,0,0,1-.65-.27.52.52,0,0,1,.24-.69A.5.5,0,0,1,34.36,44Z"/>
        <path class="ad8616e4-eeb3-4048-8e1e-2a9fa090360c" d="M36.29,46.62a.27.27,0,0,1-.14.36.25.25,0,0,1-.34-.14.26.26,0,1,1,.48-.22Z"/>
        <path class="a03a9710-9b15-4066-948b-0a20386be119" d="M38.45,47.46s-1.24-3.57-3.63-5.15c-2.15-1.42-3.26-2.32-4.89-.18s.22,5.79,1.61,6.47,4.05,1,6.89-1.35l0,.3.06.44a8.9,8.9,0,0,1-.89.41,7.32,7.32,0,0,1-3.85,1.28A4.73,4.73,0,0,1,30,48.13c-1.34-1.21-1.14-3.86-1-4.32a5.17,5.17,0,0,1,1-2.19c.73-.82.51-.46.51-.46a1.78,1.78,0,0,0-.7,0,2.22,2.22,0,0,1,1.75-.65,5.93,5.93,0,0,1,3.09,1.18C35.57,42.39,38.23,45,38.45,47.46Z"/>
      </g>
      <path class="ab4de80e-9bdb-4011-9dcf-bbd4633c3897" d="M53.26,45.29s-1.91,3.21-.18,8.14c.2.55.13-3.48,1.81-5.46,1.85-2.2,5.45-2.41,5.45-2.41s4-.17,5.62,1.62a14.76,14.76,0,0,1,2.39,3.67,7.32,7.32,0,0,0-1.71-6.64c-1.85-2.05-4.1-2.69-7.57-2.26C59.07,42,54.4,42.86,53.26,45.29Z"/>
      <path class="a03a9710-9b15-4066-948b-0a20386be119" d="M61.57,44c-2.26-.17-6.32,2.46-6.84,2.75s-1.39,0-1.4-1.73a4.31,4.31,0,0,0,.3,3.06,1.93,1.93,0,0,1-.73-1.12c0,.85.44,2.71,1.77,2.6.78-.06,2.91-2.53,5.07-3.24A6.78,6.78,0,0,1,66.8,48S65,44.23,61.57,44Z"/>
      <path class="ee17520d-82b9-4c14-b6df-6a098d6f1416" d="M28.49,59.16a3.22,3.22,0,0,0-2,2.54c-.12,1.81,4.18,10.39,9.17,11.81s13.78-5.85,15.22-7.38c1.14-1.23.24-3.73-1.24-3.1s-10.83,3-13.43,2.42S31.64,62.82,28.49,59.16Z"/>
      <path class="a03a9710-9b15-4066-948b-0a20386be119" d="M32.33,39.47c2.34-.17,5.08,2.53,5.58,2.84s1.43,0,1.65-1.82a4.94,4.94,0,0,1-.68,3.23,2.36,2.36,0,0,0,.88-1.18c-.12.9-.79,2.86-2.13,2.74-.79-.07-1.58-2.59-3.71-3.36-4.2-1.52-7.44,1.81-7.44,1.81S28.82,39.72,32.33,39.47Z"/>
      <path class="ee17520d-82b9-4c14-b6df-6a098d6f1416" d="M26.31,61.75s-3.55,4.28-4,7.88S26,78.17,26.63,79a15.5,15.5,0,0,1,9.43-1.91,22,22,0,0,1,7.42,4.3C47.77,84.88,57,78.71,57,78.71a8,8,0,0,0,3.34-9.78,9.71,9.71,0,0,0-8.67-6.7l-.28,1.17"/>
      <path class="ee17520d-82b9-4c14-b6df-6a098d6f1416" d="M60.77,70.9s2.81-4.74,4-5.68L66.44,64s2,.62,2.6,3.93a25.3,25.3,0,0,0,1.36,5.2s1.39,1.36,6.49-1.89L78.56,70l-1.15,1.8s3.14-2.48,3.89-5.7.44-2.12.44-2.12.4,3,.05,3.95c0,0,.37-4.82.57-6.92.17-1.67,0-6.1,0-6.1l.83,2.23s-1.92-10-4.26-13.55-.88-1.42-.88-1.42,1.21,2.12,2.72,1.78,8.54-3.76,9.91-9.88c0,0,.51-2.72,0-3.56"/>
      <path class="ee17520d-82b9-4c14-b6df-6a098d6f1416" d="M77.33,41.38s5.32,5,8,10.61A19.27,19.27,0,0,1,87,63"/>
      <path class="a66fbb81-0c00-4312-b6f3-2e89b8d8afa1" d="M36,73.73a14.35,14.35,0,0,0,.07,3.35"/>
      <path class="ec38b60e-b435-4fed-9101-4eacae2f3063" d="M42.54,24.26s-4.35-2.33-5.74-4.34c0,0-3.11-3.79-3.5-4.28s-1.58-3.15-4.15-1.94l-.22.11a5.82,5.82,0,0,0-.94.64c-3.37,2.76-4.48,8-4.07,12.27a9.25,9.25,0,0,0,5.65,6.91l1.69-1.52L34,29.36a14.49,14.49,0,0,1-2.23-5.85c-.27-3,0-5.92-.46-7.56a3.53,3.53,0,0,0-2.2-2.21"/>
      <path class="ee17520d-82b9-4c14-b6df-6a098d6f1416" d="M30.16,56.3l-1.43,1.82a7.94,7.94,0,0,0-4.06,2.48,10,10,0,0,0-2,4.72c-.27,1.48-1,1.19-1,1.19a9,9,0,0,1-3.85-6.32A3.69,3.69,0,0,0,17.78,62a5.63,5.63,0,0,1-.33-3.53A6.69,6.69,0,0,0,16.77,61c0,1.2-.32-4.81.92-6.77a5.14,5.14,0,0,0-1.24,2.27C16.11,58,17.18,50.2,19,48"/>
      <path class="a03a9710-9b15-4066-948b-0a20386be119" d="M54.16,48.47s-1.06,3.31-.32,3.79,2.19,1.06,7.49.61A5.78,5.78,0,0,0,66.8,48s-1-1.91-2-2.08l-1.34-.88s2.16,3.31,1.94,3.67-1.13,2.17-1.13,2.17a8.11,8.11,0,0,1-6,1.78c-3.65-.38-3.21-1.46-3.21-1.46l.14-1.86.42-1.3Z"/>
      <path class="a03a9710-9b15-4066-948b-0a20386be119" d="M29.12,41.64a5.86,5.86,0,0,0-.65,4.75c.89,2.39,2.87,3.47,5.63,3.6a5.26,5.26,0,0,0,4.21-1.67l-.19-.7-3,1.61-2.51.13-1.91-1-1.08-1.22-.5-2L29,43.81a8.13,8.13,0,0,1,1.73-2.69Z"/>
      <path class="a03a9710-9b15-4066-948b-0a20386be119" d="M54.18,41.38s4.7-4.23,12.62-.6c0,0,3.28,2.47,3.85,4.46A9.55,9.55,0,0,0,63.9,38.4C58.27,36.93,53.82,40.28,54.18,41.38Z"/>
      <path class="a03a9710-9b15-4066-948b-0a20386be119" d="M28.19,38s4-4.84,11.57-1.73a1.92,1.92,0,0,1,1.41,2.32S42.86,33.9,36.69,34s-9.18,3.47-8.62,4.23"/>
      <path class="a03a9710-9b15-4066-948b-0a20386be119" d="M57.31,34.74s7.78.33,10.38,3.3C67.69,38,65.63,33.33,57.31,34.74Z"/>
      <path class="ee17520d-82b9-4c14-b6df-6a098d6f1416" d="M37.75,45.12s2,2.67-1.33,6-7.32,4.76-7.81,8.08"/>
    </g>
  </g>
</svg>
