<svg id="b12912f1-5b4c-47dc-a584-f66286480c54" data-name="Layer 1" xmlns="http://www.w3.org/2000/svg" width="243.53" height="215.23" viewBox="0 0 243.53 215.23">
  <defs>
    <style>
      .a30d818c-4cb8-4c89-a5e9-47704dce1d55 {
        opacity: 0.5;
      }

      .a4bd7df3-1817-4e55-8950-8a3921fbc783, .b6fd7f86-a913-4df5-9cb2-e822632183fe, .e6f4fa14-eb8f-4add-adc6-917dd56f120d {
        fill: #fff;
      }

      .a220b380-39bc-45a3-9945-0d020cf690b9 {
        fill: #440404;
      }

      .a220b380-39bc-45a3-9945-0d020cf690b9, .b9a1d8bc-c3ab-4eb5-8563-149924e610da {
        stroke: #380404;
      }

      .a220b380-39bc-45a3-9945-0d020cf690b9, .a4bd7df3-1817-4e55-8950-8a3921fbc783, .a6d022e4-3d91-4b1d-88e9-5675724fe6eb, .ac034fd0-0e9d-47c8-9a10-0fd576d84713, .b01f7ee1-27c8-4714-b1f3-aac937664c4f, .b6fd7f86-a913-4df5-9cb2-e822632183fe, .b9a1d8bc-c3ab-4eb5-8563-149924e610da, .e13ac96c-6f7c-4d93-8939-2b07dfb80b63, .efc321f4-bfdd-4975-93b6-aa30183d1509 {
        stroke-miterlimit: 10;
      }

      .ac034fd0-0e9d-47c8-9a10-0fd576d84713 {
        fill: #814e4a;
      }

      .a6d022e4-3d91-4b1d-88e9-5675724fe6eb, .ac034fd0-0e9d-47c8-9a10-0fd576d84713, .b01f7ee1-27c8-4714-b1f3-aac937664c4f, .e13ac96c-6f7c-4d93-8939-2b07dfb80b63, .efc321f4-bfdd-4975-93b6-aa30183d1509 {
        stroke: #421d1b;
      }

      .a6d022e4-3d91-4b1d-88e9-5675724fe6eb {
        fill: #4c2321;
      }

      .b01f7ee1-27c8-4714-b1f3-aac937664c4f {
        fill: #72403e;
      }

      .a51fb39a-2219-404c-b330-a41089d2f165 {
        fill: #703e3c;
        opacity: 0.44;
      }

      .e13ac96c-6f7c-4d93-8939-2b07dfb80b63 {
        fill: #e2acaa;
      }

      .ba778061-7a27-46e1-b33b-42f3a6d92cfb {
        fill: #774343;
      }

      .a4bd7df3-1817-4e55-8950-8a3921fbc783 {
        stroke: #3d2323;
      }

      .b1a99ec0-2f91-45df-8513-95e572b6586b {
        fill: #260f0a;
      }

      .b49e6e63-4c83-453f-8159-223f4ed3542b {
        fill: #f9efef;
      }

      .ab4b4723-ea8d-4ad0-983e-dec420556e8c, .b9a1d8bc-c3ab-4eb5-8563-149924e610da {
        fill: #5b0202;
      }

      .fb1bfa84-3d00-4b17-a9cb-f592736a9e8a {
        fill: #f46463;
      }

      .f9c81371-3ed4-460f-95f7-3c5eff37adbb {
        fill: #ad493b;
      }

      .b6fd7f86-a913-4df5-9cb2-e822632183fe {
        stroke: #724c4c;
      }

      .ba5dc693-653b-40e9-b9e3-210bcc20a3e0 {
        fill: #a06967;
      }

      .fc5726cf-82f8-4932-aa00-5c4249b18b75 {
        fill: #440303;
      }

      .ad651c6b-9f70-4239-b19f-a156093ff3ed {
        fill: #663434;
      }

      .efc321f4-bfdd-4975-93b6-aa30183d1509 {
        fill: none;
      }
    </style>
  </defs>
  <g>
    <path class="a30d818c-4cb8-4c89-a5e9-47704dce1d55" d="M116.15,212.35a10.4,10.4,0,0,1-8.89-4.5l-.33-.52a11.45,11.45,0,0,1-4.29-1.9,22.68,22.68,0,0,1-10.32,3A11.39,11.39,0,0,1,86.59,207L86,207a19.79,19.79,0,0,1-7.87,1.92,10.41,10.41,0,0,1-8.89-4.49c-.11-.17-.22-.34-.33-.53a11.37,11.37,0,0,1-8.2-6.88C58.51,191.61,60.2,185,65,180c2-10.46,5.26-29.26,5.72-43.07A59.8,59.8,0,0,1,64,138.33a47.16,47.16,0,0,1-7.31.59,40,40,0,0,1-14-2.48,39.09,39.09,0,0,1-22.33-21.82c-.07-.2-.15-.41-.21-.62-.87-3-1.89-8.69,1.15-13A9.87,9.87,0,0,1,25,97.71a31.64,31.64,0,0,1-1.94-5.9,61.52,61.52,0,0,1-6.63-4.55,7.83,7.83,0,0,1-.67-.61A28.1,28.1,0,0,1,8.52,70.81a8.91,8.91,0,0,1-.18-1.17c-.05-.68-.07-1.37-.08-2.18C8.06,57.21,12.82,48.51,21,44.18a19.67,19.67,0,0,1,9.28-2.39,21,21,0,0,1,13.59,5.35A21.84,21.84,0,0,1,55.29,44a22.59,22.59,0,0,1,4.08.36,16.5,16.5,0,0,1-.87-1.6c-1.77-3.75-3.06-10,.91-18.64C64.11,14,71.25,7.88,78.5,7.88c6.79,0,11.83,5.17,12.27,12.56.09,1.63.23,3.14.39,4.51.82-.07,1.67-.1,2.55-.1a30.26,30.26,0,0,1,9.74,1.59,7.82,7.82,0,0,1,2.1-.28q.38,0,.75,0a35.54,35.54,0,0,1,13.79,4.06c1.21-1.52,2.51-3.27,3.82-5.21a16.31,16.31,0,0,1,13.67-7.33c8.1,0,16.82,6,20.22,17.42,23.48,1.14,41.34,7.85,53.17,20a70.86,70.86,0,0,1,14.87,20.26c3.6,3.77,19.09,21.55,13,43.25-1.36,4.87-3.32,11.91-8.84,13.68-.57,2.78-1.09,5-1.55,7-1.87,7.91-2.52,10.69.13,31.15,4.33,8.62,3.16,16.79-3.11,20.67-.6.37-1.29.76-2,1.13a8,8,0,0,1-3.09,2.55,20.43,20.43,0,0,1-8.56,2.15,13,13,0,0,1-2.75-.28c-.46.07-.91.13-1.37.18a7.72,7.72,0,0,1-1.61.59l-.86.22a9,9,0,0,1-1.38.22c-1.15.08-2.23.12-3.21.12-5.35,0-8.63-1.42-10.63-3.23l-.94-.37c-8.38-1.11-11.54-5.14-12.71-8.43-.89-2.47-1.54-7.21,3-12.58.25-.78.54-1.64.87-2.6a29.85,29.85,0,0,0,1.29-7.26,75.28,75.28,0,0,1-14.39,5.11c0,.83.05,1.66.08,2.5a14.42,14.42,0,0,1-.2,8.72c-1.47,4.33-4.84,7.92-10,10.7a7.9,7.9,0,0,1-2,1.69l-.38.22a14.23,14.23,0,0,1-.71,3.27c-1.47,4.33-4.84,7.92-10,10.7a8.11,8.11,0,0,1-2,1.69c-2.91,1.74-7.28,3.82-11.65,3.82a11.42,11.42,0,0,1-5.73-1.46l-.56,0A19.54,19.54,0,0,1,116.15,212.35Z"/>
    <path class="e6f4fa14-eb8f-4add-adc6-917dd56f120d" d="M111.15,207.35a10.4,10.4,0,0,1-8.89-4.5l-.33-.52a11.45,11.45,0,0,1-4.29-1.9,22.68,22.68,0,0,1-10.32,3A11.39,11.39,0,0,1,81.59,202L81,202a19.79,19.79,0,0,1-7.87,1.92,10.41,10.41,0,0,1-8.89-4.49c-.11-.17-.22-.34-.33-.53a11.37,11.37,0,0,1-8.2-6.88C53.51,186.61,55.2,180,60,175c2-10.46,5.26-29.26,5.72-43.07A59.8,59.8,0,0,1,59,133.33a47.16,47.16,0,0,1-7.31.59,40,40,0,0,1-14-2.48,39.09,39.09,0,0,1-22.33-21.82c-.07-.2-.15-.41-.21-.62-.87-3-1.89-8.69,1.15-13A9.87,9.87,0,0,1,20,92.71a31.64,31.64,0,0,1-1.94-5.9,61.52,61.52,0,0,1-6.63-4.55,7.83,7.83,0,0,1-.67-.61A28.1,28.1,0,0,1,3.52,65.81a8.91,8.91,0,0,1-.18-1.17c0-.68-.07-1.37-.08-2.18-.2-10.25,4.56-19,12.74-23.28a19.67,19.67,0,0,1,9.28-2.39,21,21,0,0,1,13.59,5.35A21.84,21.84,0,0,1,50.29,39a22.59,22.59,0,0,1,4.08.36,16.5,16.5,0,0,1-.87-1.6c-1.77-3.75-3.06-10,.91-18.64C59.11,9,66.25,2.88,73.5,2.88c6.79,0,11.83,5.17,12.27,12.56.09,1.63.23,3.14.39,4.51.82-.07,1.67-.1,2.55-.1a30.26,30.26,0,0,1,9.74,1.59,7.82,7.82,0,0,1,2.1-.28q.38,0,.75,0a35.54,35.54,0,0,1,13.79,4.06c1.21-1.52,2.51-3.27,3.82-5.21a16.31,16.31,0,0,1,13.67-7.33c8.1,0,16.82,6,20.22,17.42,23.48,1.14,41.34,7.85,53.17,20a70.86,70.86,0,0,1,14.87,20.26c3.6,3.77,19.09,21.55,13,43.25-1.36,4.87-3.32,11.91-8.84,13.68-.57,2.78-1.09,5-1.55,7-1.87,7.91-2.52,10.69.13,31.15,4.33,8.62,3.16,16.79-3.11,20.67-.6.37-1.29.76-2,1.13a8,8,0,0,1-3.09,2.55,20.43,20.43,0,0,1-8.56,2.15,13,13,0,0,1-2.75-.28c-.46.07-.91.13-1.37.18a7.72,7.72,0,0,1-1.61.59l-.86.22a9,9,0,0,1-1.38.22c-1.15.08-2.23.12-3.21.12-5.35,0-8.63-1.42-10.63-3.23l-.94-.37c-8.38-1.11-11.54-5.14-12.71-8.43-.89-2.47-1.54-7.21,3-12.58.25-.78.54-1.64.87-2.6a29.85,29.85,0,0,0,1.29-7.26,75.28,75.28,0,0,1-14.39,5.11c0,.83.05,1.66.08,2.5a14.42,14.42,0,0,1-.2,8.72c-1.47,4.33-4.84,7.92-10,10.7a7.9,7.9,0,0,1-2,1.69l-.38.22a14.23,14.23,0,0,1-.71,3.27c-1.47,4.33-4.84,7.92-10,10.7a8.11,8.11,0,0,1-2,1.69c-2.91,1.74-7.28,3.82-11.65,3.82a11.42,11.42,0,0,1-5.73-1.46l-.56,0A19.54,19.54,0,0,1,111.15,207.35Z"/>
    <g>
      <path class="a220b380-39bc-45a3-9945-0d020cf690b9" d="M214.59,75.43s17.06,16.42,11.59,36.05-6.44-1.93-6.44-1.93l-5.8-32.19"/>
      <g>
        <path class="ac034fd0-0e9d-47c8-9a10-0fd576d84713" d="M107.73,136.37s-5.8,13.09-4.51,43.78c0,0,3.65,6.65-8.15,11.8s-27.47.21-29.19-5.58c0,0,11-49.78,7.09-67.59"/>
        <path class="a6d022e4-3d91-4b1d-88e9-5675724fe6eb" d="M95.07,192s0-15-7.3-5.15-.43,10.51,7.08,6"/>
        <path class="a6d022e4-3d91-4b1d-88e9-5675724fe6eb" d="M80.69,192.38s0-15-7.07-5.15-.42,10.51,6.86,6"/>
        <path class="a6d022e4-3d91-4b1d-88e9-5675724fe6eb" d="M70,190s1.94-15.67-4.07-9.66S63.15,194.09,70,190Z"/>
      </g>
      <g>
        <path class="b01f7ee1-27c8-4714-b1f3-aac937664c4f" d="M158.8,123.93S153,137,154.29,167.7c0,0,3.65,6.65-8.15,11.8s-27.47.22-29.19-5.58c0,0,11-49.78,7.09-67.59"/>
        <path class="a6d022e4-3d91-4b1d-88e9-5675724fe6eb" d="M146.14,179.5s0-15-7.3-5.15-.43,10.52,7.08,6"/>
        <path class="a6d022e4-3d91-4b1d-88e9-5675724fe6eb" d="M131.76,179.93s0-15-7.07-5.15-.42,10.52,6.86,6"/>
        <path class="a6d022e4-3d91-4b1d-88e9-5675724fe6eb" d="M121.08,177.57s1.94-15.66-4.07-9.66S114.22,181.65,121.08,177.57Z"/>
      </g>
      <path class="ac034fd0-0e9d-47c8-9a10-0fd576d84713" d="M71.25,116.84C82.41,149.25,114,153.32,139.06,157s45.06-12.23,45.06-12.23,1.93,14.16-1.29,23.6-2.58,9.23-2.58,9.23a24.77,24.77,0,0,0,6.48,4.23c12.06,5.4,25.78-.16,29.57-2.51,4.51-2.79-.42-11.38-.42-11.38-4.72-35.83-.22-24.67,3.86-58.36S200.43,55.9,200.43,55.9c-27-28.11-86.7-14.8-86.7-14.8S76.06,71.54,70.42,100.47A31.28,31.28,0,0,0,71.25,116.84Z"/>
      <path class="a51fb39a-2219-404c-b330-a41089d2f165" d="M71.25,116.84C82.41,149.25,114,153.32,139.06,157s45.06-12.23,45.06-12.23,1.93,14.16-1.29,23.6-2.58,9.23-2.58,9.23a24.77,24.77,0,0,0,6.48,4.23c11.07-13.25,5.65-39.74,5.65-39.74l-2.9-7.41s18.35-10.62-1.28,0-50.86,9-50.86,9c-47.31.75-62.5-29.64-66.92-43.2A31.28,31.28,0,0,0,71.25,116.84Z"/>
      <g>
        <g>
          <path class="ac034fd0-0e9d-47c8-9a10-0fd576d84713" d="M114.81,37.61a89.29,89.29,0,0,0,10.73-13.09c5.36-7.94,19.1-3.43,20.6,13.3s-18.67,17.17-24.68,14A44.89,44.89,0,0,0,114.81,37.61Z"/>
          <path class="e13ac96c-6f7c-4d93-8939-2b07dfb80b63" d="M120,41.9s9.65-5.36,13.73-11.16,12.23,9.23,5.37,14.17-17,2.36-17,2.36Z"/>
        </g>
        <g>
          <path class="ac034fd0-0e9d-47c8-9a10-0fd576d84713" d="M79.62,29.29a80.24,80.24,0,0,1-1.84-13.38C77.32,8.05,68,8.78,61.67,22.5s5,18.57,9.52,17.2A51.7,51.7,0,0,1,79.62,29.29Z"/>
          <path class="e13ac96c-6f7c-4d93-8939-2b07dfb80b63" d="M75.28,31.75s-3.76-6.65-4.19-12.42-10,5-7.69,10.69,8.9,5.76,8.9,5.76Z"/>
        </g>
        <path class="ac034fd0-0e9d-47c8-9a10-0fd576d84713" d="M22.75,106.76A31,31,0,0,0,40.41,124a33.86,33.86,0,0,0,17.32,1.48c20.6-3.22,26-15.45,26-15.45,18.89,2.36,42.27-9.44,45.49-22.11s-6-21.45-6-21.45,3-8.59-2.58-23.39c-3.95-10.48-14-12.9-19.59-13.42a25.64,25.64,0,0,0-3.8-.1,24,24,0,0,0-19.74,1.07A30,30,0,0,0,62,52.9L51.94,60.41,86.06,83.8c-8,19.09-50.43,21.24-58.37,17S22.75,106.76,22.75,106.76Z"/>
        <path class="ba778061-7a27-46e1-b33b-42f3a6d92cfb" d="M40,123.49A33.88,33.88,0,0,0,57.28,125c20.59-3.22,26-15.45,26-15.45,18.88,2.36,42.27-9.44,45.49-22.1s-6-21.46-6-21.46,3-8.58-2.57-23.39c-4-10.48-14-12.9-19.59-13.41,1.28,1.4,2.85,2.62,4.08,3.95,2.77,3,3.87,6.67,6.17,9.83,2.87,7.12,3.48,15,3.13,22.64a14.81,14.81,0,0,0,.34,5.15c.94,3,3.73,4.91,5.23,7.61,2.58,4.66.76,10.82-3.05,14.53s-9.15,5.4-14.39,6.32-10.61,1.23-15.71,2.74a10.88,10.88,0,0,0-3.16,1.38A15.35,15.35,0,0,0,80,106.75c-8.13,10.36-21.35,16-34.49,16.69C43.67,123.54,41.81,123.56,40,123.49Z"/>
        <g>
          <ellipse class="a4bd7df3-1817-4e55-8950-8a3921fbc783" cx="93.09" cy="54.97" rx="9.34" ry="9.62"/>
          <g>
            <ellipse class="b1a99ec0-2f91-45df-8513-95e572b6586b" cx="95.82" cy="56.96" rx="5.9" ry="6.08"/>
            <ellipse class="b49e6e63-4c83-453f-8159-223f4ed3542b" cx="93.54" cy="54.27" rx="1.27" ry="1.31"/>
          </g>
        </g>
        <g>
          <ellipse class="a4bd7df3-1817-4e55-8950-8a3921fbc783" cx="72.02" cy="49.86" rx="7.91" ry="6.38" transform="translate(-2.64 95.69) rotate(-66.24)"/>
          <g>
            <ellipse class="b1a99ec0-2f91-45df-8513-95e572b6586b" cx="72.23" cy="52.49" rx="4.87" ry="4.27" transform="translate(-10.77 85.43) rotate(-57.65)"/>
            <ellipse class="b49e6e63-4c83-453f-8159-223f4ed3542b" cx="71.66" cy="49.83" rx="0.99" ry="0.96" transform="translate(-2.82 95.34) rotate(-66.24)"/>
          </g>
        </g>
        <path class="b9a1d8bc-c3ab-4eb5-8563-149924e610da" d="M91.42,78.65s-6.87,34.12-43.35,34.12c0,0-18.88-2.15-24.46-11.59,0,0-2.57-2.58,6-1.07s20.17-6.44,21.46-17S91.42,78.65,91.42,78.65Z"/>
        <g>
          <path class="fb1bfa84-3d00-4b17-a9cb-f592736a9e8a" d="M81.12,98.6s-3.65-10.08-25.32,3.65c0,0-11.22-4.27-14.81,8.16a56.08,56.08,0,0,0,19.55.39C72.66,108.89,81.59,101.09,81.12,98.6Z"/>
          <path class="f9c81371-3ed4-460f-95f7-3c5eff37adbb" d="M60.14,103.88a7.55,7.55,0,0,1,1.27-3.47A5.4,5.4,0,0,1,62.61,99a4.09,4.09,0,0,1,1.73-.79l0,.08a10.59,10.59,0,0,1-1.1,1.45c-.38.43-.85.77-1.25,1.2a9.59,9.59,0,0,0-1,1.4,6.53,6.53,0,0,0-.76,1.6Z"/>
        </g>
        <g>
          <path class="b6fd7f86-a913-4df5-9cb2-e822632183fe" d="M67.17,87.66s1.72,6,.43,9.87-9.23,6-14.59,1.29S48.5,86.59,48.5,86.59Z"/>
          <path class="b6fd7f86-a913-4df5-9cb2-e822632183fe" d="M38.42,84.87s4.72,8.58-1.08,9.66-10.72-.86-12.23-14.16Z"/>
          <path class="b6fd7f86-a913-4df5-9cb2-e822632183fe" d="M63.74,109.76a14.18,14.18,0,0,1-11,1.93S54.3,98.39,63.74,109.76Z"/>
          <path class="b6fd7f86-a913-4df5-9cb2-e822632183fe" d="M38,109.33s-1.07-7.08-4.51-7.94-5.15,3.87-5.15,3.87S30.05,108.26,38,109.33Z"/>
        </g>
        <g>
          <path class="ac034fd0-0e9d-47c8-9a10-0fd576d84713" d="M11.32,63.58h0a20.3,20.3,0,0,0,5.21,12.49s37.12,30.47,76.18,2.15c0,0-3.44-7.73-20.39-11.16,0,0-2.15-14.81-19.09-19.74,0,0-9.66-2.36-14.81,6.44,0,0-7.73-13.31-18.67-7.51C13.31,49.65,10.81,56.76,11.32,63.58Z"/>
          <path class="ba5dc693-653b-40e9-b9e3-210bcc20a3e0" d="M11.32,64c8.45-31,27.53-6.81,27.53-6.81,13.51-20,33.47,10.3,33.47,10.3S70.17,52.71,53.23,47.78c0,0-9.66-2.37-14.81,6.43,0,0-7.73-13.3-18.67-7.51C13.31,50.11,10.81,57.22,11.32,64Z"/>
          <g>
            <path class="ab4b4723-ea8d-4ad0-983e-dec420556e8c" d="M46.36,67c0,3.28.92,6.14,2.27,7.61a2.91,2.91,0,0,0,2.12,1.09c2.43,0,4.4-3.89,4.4-8.7s-2-8.69-4.4-8.69h-.23C48.2,58.52,46.36,62.31,46.36,67Z"/>
            <path class="fc5726cf-82f8-4932-aa00-5c4249b18b75" d="M46.36,67c0,3.28.92,6.14,2.27,7.61,2.32-.24,4.16-4,4.16-8.68,0-3.28-.91-6.13-2.27-7.61C48.2,58.52,46.36,62.31,46.36,67Z"/>
          </g>
          <g>
            <path class="ab4b4723-ea8d-4ad0-983e-dec420556e8c" d="M25.53,63.82c.31,3.26-.18,6.17-1.16,7.75a2.28,2.28,0,0,1-1.65,1.25c-2,.19-4-3.53-4.46-8.31s.8-8.81,2.81-9h.2C23.2,55.57,25.09,59.19,25.53,63.82Z"/>
            <path class="fc5726cf-82f8-4932-aa00-5c4249b18b75" d="M25.53,63.82c.31,3.26-.18,6.17-1.16,7.75-1.93-.06-3.82-3.69-4.26-8.31-.31-3.26.18-6.18,1.16-7.76C23.2,55.57,25.09,59.19,25.53,63.82Z"/>
          </g>
        </g>
        <path class="ac034fd0-0e9d-47c8-9a10-0fd576d84713" d="M95.5,66s-5.8,4.5-3.22,13.3S104.72,87,104.72,87"/>
        <path class="ac034fd0-0e9d-47c8-9a10-0fd576d84713" d="M104.29,30.15s-8.58-2.79-14.16,3.65"/>
        <path class="ac034fd0-0e9d-47c8-9a10-0fd576d84713" d="M126,69.42a22.34,22.34,0,0,0-11.59-9.65"/>
      </g>
      <path class="ad651c6b-9f70-4239-b19f-a156093ff3ed" d="M135.19,93.67s-7.08,27.25-38,30.47C97.21,124.14,120,120.71,135.19,93.67Z"/>
      <path class="ad651c6b-9f70-4239-b19f-a156093ff3ed" d="M138.63,118.56s-19.1,29-48.93,19.1C89.7,137.66,112.45,147.31,138.63,118.56Z"/>
      <g>
        <path class="ac034fd0-0e9d-47c8-9a10-0fd576d84713" d="M145.71,139.8s-5.8,13.09-4.51,43.78c0,0,3.65,6.65-8.15,11.8s-27.47.22-29.19-5.58c0,0,7.73-34.44,3.87-52.25"/>
        <path class="a6d022e4-3d91-4b1d-88e9-5675724fe6eb" d="M133.05,195.38s0-15-7.3-5.15-.43,10.52,7.08,6"/>
        <path class="a6d022e4-3d91-4b1d-88e9-5675724fe6eb" d="M118.67,195.81s0-15-7.07-5.15-.42,10.51,6.86,6"/>
        <path class="a6d022e4-3d91-4b1d-88e9-5675724fe6eb" d="M108,193.45s1.93-15.66-4.08-9.66S101.13,197.53,108,193.45Z"/>
      </g>
      <path class="efc321f4-bfdd-4975-93b6-aa30183d1509" d="M183.47,145.17s18.24-7.73,25.54-33"/>
      <path class="a6d022e4-3d91-4b1d-88e9-5675724fe6eb" d="M187.55,181.65s-1.29-13.74-6-9.23S177.47,181.22,187.55,181.65Z"/>
      <path class="a6d022e4-3d91-4b1d-88e9-5675724fe6eb" d="M199.14,184.65s1.29-13.09-4.29-8.37-8.8,9.44,3.43,8.59"/>
      <path class="a6d022e4-3d91-4b1d-88e9-5675724fe6eb" d="M212,182.51s-.85-11.16-5.58-8.59S200.43,187.87,212,182.51Z"/>
      <path class="ad651c6b-9f70-4239-b19f-a156093ff3ed" d="M135.41,53.54s17.7,8.69,23.82,25.11C159.23,78.65,157,61,135.41,53.54Z"/>
      <path class="ad651c6b-9f70-4239-b19f-a156093ff3ed" d="M142.17,43.89S159.87,52.58,166,69C166,69,163.73,51.29,142.17,43.89Z"/>
    </g>
  </g>
</svg>
