<svg id="bcdbd90a-8207-4f12-b5ab-e8ec92c3a393" data-name="Layer 1" xmlns="http://www.w3.org/2000/svg" width="137.16" height="221.66" viewBox="0 0 137.16 221.66">
  <defs>
    <style>
      .ed771b72-3d8c-4c8e-bf52-0078477b079a {
        opacity: 0.5;
      }

      .bb17dde9-f6ee-4754-b722-9efda2ea8deb {
        fill: #fff;
      }

      .fa2de563-fc5a-479a-8a2d-d639c94e6031 {
        fill: #622f2b;
      }

      .b4381a67-6903-4b5a-819a-14d32c603e46 {
        fill: #7b5351;
      }

      .b2e9b1fc-f91c-4f84-90dc-58d08041d57e {
        fill: #3f1715;
      }

      .b6cc5d4d-0929-4550-bbef-e966ec2b7a4c {
        fill: #1e0807;
      }

      .a5ec9465-1104-434b-af5a-280bcb71d2bf {
        fill: #f97b00;
      }

      .a90436ee-d8b3-4cef-b4f0-e44060df02e3 {
        fill: #feaa64;
      }

      .e73a92f6-2455-4b6e-a032-68876ec45ae9 {
        fill: #e25b01;
      }

      .fcd32458-4039-4663-a47d-cb430f747ee1 {
        fill: #662400;
      }

      .be8b122f-3566-48b4-96c6-fb0b1a3601f2 {
        fill: #fcfaf5;
      }

      .ba4f6de3-e7ed-4954-a5b4-0b259f274765 {
        fill: #e2ded3;
      }

      .fabf133d-81ef-4b5d-9b0d-94d3d9dc218c {
        fill: #777;
      }

      .b8b9d56a-82b0-419b-815e-24c97de56229 {
        fill: #383838;
      }

      .a16e63d7-109d-42d7-9a90-a653cf0195b4 {
        fill: #1e1e1e;
      }

      .ba479a1a-a3cb-44de-adc6-d51c777b0d51 {
        fill: #ffc6c2;
      }

      .e490eb6e-47af-49ab-bea0-f92f2f76bb92 {
        fill: #f0a4a4;
      }

      .a818c09b-71d2-4233-9b68-1373cadbc148 {
        fill: #848484;
      }

      .b4e73541-f4d0-440a-be75-d2e2e79dd025 {
        fill: #fdcb9a;
      }

      .f204afb5-9aac-4b35-9bf1-0d2c660a611b {
        fill: #ebb382;
      }

      .aaae300d-d9d2-42d8-b618-e433068fa59f {
        fill: #ddd;
      }

      .e02b21dc-b05b-4f59-ac9b-480a9dd5af72 {
        fill: #542416;
      }

      .bdac59c8-512d-4f65-9cfc-c2936138045b {
        fill: #261005;
      }

      .f2cb4075-b17f-49cd-b929-e3b85ed2870e {
        fill: #7c1300;
      }

      .af70a586-12be-412f-92ad-c88984d5f80d {
        fill: #331400;
      }

      .ec94523e-b806-4bde-8e2e-8ed0c6b04bef {
        fill: #eea4a3;
      }

      .e1f5c2b0-8775-4285-bd5d-e4411e1acfae {
        fill: #a34a4a;
      }

      .e190fd4e-8872-40d5-9edb-9664eb0022c5 {
        fill: #2c2c2c;
      }

      .b983bde2-f872-4f10-b068-b061c4eaa50b {
        fill: #60605e;
      }

      .ab49bd16-00b9-495e-a92e-2d87caff766f {
        fill: #131313;
      }

      .b46ea675-2638-4073-abc7-2d5d88f370b3 {
        fill: #4a1e01;
      }

      .aa0db5f0-239c-48fc-82ba-21af9a831709 {
        fill: #301100;
      }

      .b145ed52-cbf5-4acc-a3b1-86235e53ddb8 {
        fill: #160700;
      }
    </style>
  </defs>
  <g>
    <path class="ed771b72-3d8c-4c8e-bf52-0078477b079a" d="M44.36,218.78a26.84,26.84,0,0,1-8.82-1.3l-.5-.18a5.35,5.35,0,0,1-2.53-1.89c-4.26-.47-8-1.83-10.22-3.77l-.23-.2a5.05,5.05,0,0,1-.9-1c-3.12-.68-6.25-2-8.17-4.24l-.3-.34a5.31,5.31,0,0,1,4-8.76,5.24,5.24,0,0,1,1.23.15l.45.1a2.53,2.53,0,0,0,.68.08,6.24,6.24,0,0,0,3.08-1,5.19,5.19,0,0,1-.59-1.41,5.31,5.31,0,0,1,2.56-5.92l.47-.26c1.89-1.06,3.89-4.16,5.84-7.16A52.28,52.28,0,0,1,39,170.77l.85-.77a134.48,134.48,0,0,0,.35-18.85c-.29-3-1.78-6-3.36-9.28-.53-1.08-1.11-2.28-1.64-3.49a24.38,24.38,0,0,1-3.45-8,5.34,5.34,0,0,1-2.64-3.23l-.17-.6a16.13,16.13,0,0,1-.36-6.45,5.36,5.36,0,0,1-.86-2.89v-.6a18.06,18.06,0,0,1,2-7.08,5.3,5.3,0,0,1,.22-2.7l.11-.31A15.34,15.34,0,0,1,34.94,100a14.14,14.14,0,0,1-1.25-4.62,24.11,24.11,0,0,0-3.16,7.32,5.31,5.31,0,0,1-5.17,4.12c-.19,0-.39,0-.6,0a5.29,5.29,0,0,1-4.7-5.27,16,16,0,0,1,1.05-5.24s.06-.17.08-.21a21.71,21.71,0,0,0-3.22,3A5.29,5.29,0,0,1,13.9,101a5.24,5.24,0,0,1-3-1,5.29,5.29,0,0,1-1.54-7,17.52,17.52,0,0,1,3.75-4.38,48.23,48.23,0,0,1,5.47-4h-.8a39.1,39.1,0,0,0-6.45.5,4.53,4.53,0,0,1-.89.08,5.3,5.3,0,0,1-1.77-10.3,21.59,21.59,0,0,1,5.46-1.06h.08c0-.16.06-.32.1-.49a5.33,5.33,0,0,1,.29-.88c-.09-.25-.17-.5-.25-.75a23.47,23.47,0,0,0-.91-2.44L13.31,69a5.34,5.34,0,0,1,.4-5,5.41,5.41,0,0,1,.94-1.08,5.3,5.3,0,0,1,4.6-2.67,5.13,5.13,0,0,1,1.34.17,12.89,12.89,0,0,0,1.16-1.82,38.75,38.75,0,0,0,1.63-3.91c.68-1.76,1.48-3.85,2.55-6.18a40.09,40.09,0,0,1-1-19.92c2.32-11.84,11-21.53,17.21-22.32l.24,0a6.33,6.33,0,0,1,1.58,0,7.08,7.08,0,0,1,4.51,2.53,15.92,15.92,0,0,1,2.38,4.51l.42,1c.29.71.66,1.57,1.15,2.52a33.28,33.28,0,0,0,4.59,6c.71.8,1.42,1.62,2.11,2.45h0a41.4,41.4,0,0,1,16.74,3.77,23.6,23.6,0,0,1,4.82-4.22,95.14,95.14,0,0,1,10.73-5.48l1.28-.58c.68-.32,1.29-.64,1.88-1a10.13,10.13,0,0,1,4.81-1.58,5.87,5.87,0,0,1,1.76.27,4.06,4.06,0,0,1,.63.24,5.55,5.55,0,0,1,.74.37l.06,0a5.62,5.62,0,0,1,.47.32,5.84,5.84,0,0,1,.5.4,4.4,4.4,0,0,1,.33.31c.12.11.23.23.35.36l.07.08.23.28.23.3.17.24.2.3.2.32.14.24.18.32.16.31.14.29.14.28c0,.1.08.2.13.3s.14.33.15.34l.1.25.23.6c.07.2.14.39.2.58l0,.09a47.81,47.81,0,0,1,2,17.42l0,.8-.08.84c0,.24-.08.77-.08.78-.07.6-.14,1.19-.24,1.79-1.5,9.71-5.31,17.28-10.66,21.49.59,1.89,1.38,3.08,2.2,3.24l.38.08a5.31,5.31,0,0,1,4.17,4.27A5.3,5.3,0,0,1,103,84l-.58.14a3.52,3.52,0,0,0-.51.26v.22a5.31,5.31,0,0,1-4.25,5.18l-.71.14c-1,.21-3.81,2.12-5.85,3.51s-4.38,3-6.83,4.34c.79,1.55,1.32,2.86,1.78,4a17.8,17.8,0,0,0,1.44,3c2.25,3.41,5.11,5.83,8.15,8.39,3.65,3.08,7.43,6.27,10.22,11.25,6.34,11.32,9.57,27.55,10.39,34.55,1,8.25,1.35,9,3.49,10.07l.7.33c2.35,1.1,6.21,2.9,8.82,5.62,4.31,4.49,8.59,12.49,4.47,25.1C128.2,217,112.39,218,105.63,218.42c-1,.07-2,.1-3,.1-6.58,0-12.1-1.46-17.43-2.86-2.9-.77-5.9-1.56-9.12-2.14a28.5,28.5,0,0,0-4.85-.42,25.49,25.49,0,0,0-6.26.73l-.29.08-.38.11c-.93.28-2.28.83-3.38,1.27a45.77,45.77,0,0,1-6.83,2.37A45.5,45.5,0,0,1,44.36,218.78Z"/>
    <path class="bb17dde9-f6ee-4754-b722-9efda2ea8deb" d="M41,215.47a26.78,26.78,0,0,1-8.81-1.3l-.5-.18a5.3,5.3,0,0,1-2.53-1.89c-4.26-.48-8-1.83-10.22-3.77l-.23-.2a5.4,5.4,0,0,1-.9-1c-3.13-.67-6.26-2-8.18-4.23l-.29-.35a5.31,5.31,0,0,1,5.26-8.61l.44.11a3.17,3.17,0,0,0,.69.08,6.28,6.28,0,0,0,3.07-1,5.66,5.66,0,0,1-.58-1.41,5.31,5.31,0,0,1,2.55-5.92l.48-.27c1.88-1.05,3.89-4.16,5.83-7.16a53.5,53.5,0,0,1,8.54-10.86l.85-.76a134.92,134.92,0,0,0,.36-18.85c-.3-3-1.79-6-3.37-9.29-.52-1.07-1.1-2.27-1.64-3.48a24.33,24.33,0,0,1-3.44-8,5.27,5.27,0,0,1-2.64-3.22l-.17-.6a16,16,0,0,1-.36-6.45,5.28,5.28,0,0,1-.86-2.9v-.59a18,18,0,0,1,2-7.08,5.24,5.24,0,0,1,.22-2.71l.1-.3a15.44,15.44,0,0,1,4.93-6.56,14,14,0,0,1-1.25-4.62,24.2,24.2,0,0,0-3.17,7.31,5.3,5.3,0,0,1-5.16,4.12q-.3,0-.6,0a5.3,5.3,0,0,1-4.71-5.27,16.22,16.22,0,0,1,1.06-5.25s.06-.16.08-.2a21.71,21.71,0,0,0-3.22,3A5.3,5.3,0,0,1,6,89.68a17.39,17.39,0,0,1,3.76-4.39,47.66,47.66,0,0,1,5.47-4h-.8a39.1,39.1,0,0,0-6.45.5,5.47,5.47,0,0,1-.9.08,5.3,5.3,0,0,1-1.77-10.3,21.83,21.83,0,0,1,5.47-1.06h.08A4.21,4.21,0,0,1,11,70a6.07,6.07,0,0,1,.3-.88c-.09-.25-.17-.51-.25-.75a26.13,26.13,0,0,0-.91-2.45l-.09-.2a5.29,5.29,0,0,1,.4-5,5.1,5.1,0,0,1,.93-1.08,5.31,5.31,0,0,1,4.61-2.68,5.51,5.51,0,0,1,1.33.17,11.31,11.31,0,0,0,1.16-1.81,42,42,0,0,0,1.64-3.91c.67-1.76,1.47-3.85,2.54-6.18a40.33,40.33,0,0,1-1-19.92C24,13.42,32.62,3.73,38.84,2.94l.24,0,.7,0a6.15,6.15,0,0,1,.87.06,7.05,7.05,0,0,1,4.52,2.53A16.16,16.16,0,0,1,47.54,10L48,11c.3.71.66,1.57,1.16,2.52a33.28,33.28,0,0,0,4.59,6c.7.8,1.42,1.61,2.1,2.45h.06A41.48,41.48,0,0,1,72.61,25.8a23.34,23.34,0,0,1,4.82-4.22A93.34,93.34,0,0,1,88.15,16.1l1.28-.59c.68-.31,1.3-.64,1.89-.95A10.13,10.13,0,0,1,96.12,13a5.94,5.94,0,0,1,1.77.27,6.06,6.06,0,0,1,.63.23,5.55,5.55,0,0,1,.74.37l.06,0c.15.09.31.2.46.31a6.4,6.4,0,0,1,.51.4l.33.31c.11.12.23.23.34.36l.08.09.23.28.23.3.16.23.21.3.2.33.14.24.17.31.16.31.15.3c0,.09.09.18.13.28s.09.19.13.29l.15.35.1.25.24.6.2.57a.38.38,0,0,1,0,.1,48,48,0,0,1,2,17.42l-.06.8-.07.84c0,.24-.08.77-.08.78-.07.59-.15,1.19-.24,1.78C103.76,51.74,100,59.31,94.6,63.51c.6,1.89,1.39,3.08,2.21,3.25l.37.07a5.31,5.31,0,0,1,4.17,4.27,5.31,5.31,0,0,1-1.68,9.61l-.58.13a4.13,4.13,0,0,0-.52.26c0,.08,0,.15,0,.23a5.3,5.3,0,0,1-4.26,5.17l-.7.15c-1,.2-3.82,2.11-5.85,3.5s-4.38,3-6.83,4.35c.78,1.54,1.32,2.86,1.77,4a17.77,17.77,0,0,0,1.45,3c2.24,3.42,5.11,5.84,8.14,8.4,3.66,3.08,7.44,6.27,10.23,11.25,6.33,11.32,9.56,27.55,10.39,34.55,1,8.25,1.34,9,3.49,10.07.2.1.44.2.69.33,2.35,1.09,6.22,2.9,8.82,5.61,4.32,4.49,8.6,12.49,4.47,25.1-5.5,16.81-21.32,17.85-28.07,18.29-1,.06-2,.09-3,.09-6.58,0-12.09-1.45-17.42-2.85-2.91-.77-5.9-1.56-9.13-2.14a27.35,27.35,0,0,0-4.85-.42,25.49,25.49,0,0,0-6.25.72l-.3.09-.37.11c-.93.27-2.29.82-3.38,1.27a45.44,45.44,0,0,1-6.84,2.36A44.76,44.76,0,0,1,41,215.47Z"/>
    <g>
      <g>
        <path class="fa2de563-fc5a-479a-8a2d-d639c94e6031" d="M41,173.56c1.78-8.11,1.64-23.81,1.21-26.74,2.89-.52,11.4,4.77,11.4,4.77l4.8,13.26Z"/>
        <path class="b4381a67-6903-4b5a-819a-14d32c603e46" d="M43.22,147c.19,0-.56-.23-1-.15.43,2.93.57,18.63-1.21,26.74l1.61-.81C44,164.24,43.61,149.71,43.22,147Z"/>
        <path class="b2e9b1fc-f91c-4f84-90dc-58d08041d57e" d="M53.63,151.59s-1.93-1.2-4.26-2.4c-.19,7.47-.26,13.78-.91,20.65l10-5Z"/>
        <path class="b6cc5d4d-0929-4550-bbef-e966ec2b7a4c" d="M40.81,173.83l.06-.3c1.76-8,1.65-23.7,1.22-26.69l0-.14.14,0c2.91-.53,11.15,4.57,11.5,4.79l0,0,4.86,13.43ZM42.4,147c.41,3.29.49,18.36-1.17,26.34l17-8.51-4.74-13.09C52.86,151.29,45.22,146.64,42.4,147Z"/>
      </g>
      <g>
        <path class="a5ec9465-1104-434b-af5a-280bcb71d2bf" d="M35.26,128.12c1.11,5.86,6.4,12.2,7.05,19.29,1.78.45,3.31,3.79,3.46,5.32a16.35,16.35,0,0,1,1.09-3.46A35.48,35.48,0,0,1,50,154.86c.08-1.93,2.55-3.76,2.55-3.76L39.73,125.77Z"/>
        <path class="a90436ee-d8b3-4cef-b4f0-e44060df02e3" d="M35.26,128.12c1.11,5.86,6.4,12.2,7.05,19.29a2.65,2.65,0,0,1,1,.56c-.53-8-5.68-14.85-7.53-20.12Z"/>
        <path class="e73a92f6-2455-4b6e-a032-68876ec45ae9" d="M48.45,142.94a47.53,47.53,0,0,1,.71,10.1,12.11,12.11,0,0,1,.88,1.82c.08-1.93,2.55-3.76,2.55-3.76Z"/>
        <path class="fcd32458-4039-4663-a47d-cb430f747ee1" d="M50.15,155.64l-.25-.73a33.43,33.43,0,0,0-3-5.33,18.17,18.17,0,0,0-1,3.18l-.19,1-.1-1c-.15-1.53-1.66-4.77-3.35-5.19l-.1,0v-.1c-.36-4-2.16-7.63-3.89-11.2a34,34,0,0,1-3.16-8.08l0-.11,4.71-2.47,13,25.57-.1.08s-2.41,1.81-2.5,3.65ZM46.84,149l.14.23a43.36,43.36,0,0,1,3,5.11,7.09,7.09,0,0,1,2.44-3.24L39.67,126l-4.25,2.23a34.12,34.12,0,0,0,3.12,7.9c1.73,3.56,3.52,7.24,3.9,11.2,1.55.48,2.91,3,3.34,4.69a17.73,17.73,0,0,1,.94-2.78Z"/>
      </g>
      <g>
        <path class="a5ec9465-1104-434b-af5a-280bcb71d2bf" d="M70.85,89.22c6.58,7.91,6.33,11.59,8.75,15.28,5.52,8.41,13.7,11.33,18.17,19.32,5.23,9.35,8.74,24.11,9.73,32.52s1.49,12,6.83,14.5a60.38,60.38,0,0,1-2,10.34H56.75c-.1-7.82-2.72-23.6-5.84-30.5a45.75,45.75,0,0,0-6.57-10.78l-2-5.77,14.11-46.4Z"/>
        <path class="e73a92f6-2455-4b6e-a032-68876ec45ae9" d="M114.33,170.84c-5.34-2.53-5.84-6.09-6.83-14.5s-4.5-23.17-9.73-32.52c-4.47-8-12.65-10.91-18.17-19.32-2.42-3.69-2.17-7.37-8.75-15.28l-2.78-.29c.29.86,3.17,5.1,5.05,8.94,2,3.66,3,8.91,6.88,12.47,3.86,3.86,6.78,6.78,10.93,10.34,6.83,6.23,9.6,17,10.78,26.25.89,5.35.14,13.46-3,16.14-6.23,3.86-14,4.16-21.13,7.12a4.39,4.39,0,0,0-1.78,1.49c-.89,1.48-1.48,3-2.37,4.45-.92,1.73-1.83,3.39-2.67,5.05h41.55A60.38,60.38,0,0,0,114.33,170.84Z"/>
        <path class="fcd32458-4039-4663-a47d-cb430f747ee1" d="M112.46,181.32H56.6v-.14c-.1-8.13-2.81-23.77-5.82-30.44A46,46,0,0,0,44.23,140l0-.05-2.05-5.81L56.32,87.57l14.6,1.51,0,0a38.2,38.2,0,0,1,6.85,11.36,21.47,21.47,0,0,0,1.92,3.94c2.66,4.06,6,6.85,9.16,9.54,3.44,2.91,6.69,5.65,9,9.79,5.5,9.82,8.84,24.86,9.75,32.58,1,8.13,1.39,11.85,6.74,14.37l.1.05v.1a59.48,59.48,0,0,1-2,10.37ZM56.9,181h55.34a60.35,60.35,0,0,0,1.93-10.1c-5.41-2.6-5.85-6.37-6.82-14.57-.9-7.69-4.23-22.68-9.71-32.47-2.29-4.09-5.52-6.82-9-9.7-3.2-2.71-6.52-5.51-9.21-9.61a22,22,0,0,1-2-4,37.58,37.58,0,0,0-6.76-11.23L56.53,87.89,42.46,134.13l2,5.69a46.78,46.78,0,0,1,6.58,10.8C54.06,157.28,56.76,172.84,56.9,181Z"/>
      </g>
      <g>
        <g>
          <path class="be8b122f-3566-48b4-96c6-fb0b1a3601f2" d="M41.6,94.58c-.78,3.57-8.05,5.64-9.76,10.47a8.81,8.81,0,0,1,2.6-.56c-2.75,1.89-4.6,7.09-4.6,8.83a9.3,9.3,0,0,1,3.49-2.93c-1.93,2.48-3.49,7.9-2.49,11.35a10.44,10.44,0,0,1,1.82-3.67c-.15,3.34,1.19,10.61,3.67,13.87a5.71,5.71,0,0,1,.93-3c.56,4,5.42,9.9,7.38,11.13a12.71,12.71,0,0,1,.6-5.24c.55,2.49,4,6.16,3.85,9.54,1-2.93,3.86-7.31,4.57-12.76a14,14,0,0,0,2.1,3.52c-.2-2.67,5.84-10.68,7.67-16.72a9.63,9.63,0,0,1,0,3.86c1.77-2,2.82-7.32,2.77-9.84.79.54,1.18,2.47,1.18,2.47.85-1.68.7-6,.35-7.67.55-.2,1.29,1.78,1.29,1.78-.25-2.42,1.72-5.62,1.09-10.9-.75-6.16-4.31-8.56-4.31-8.56l-11.72-.37Z"/>
          <path class="ba4f6de3-e7ed-4954-a5b4-0b259f274765" d="M70.11,98.15c-.75-6.16-4.31-8.56-4.31-8.56l-3.91-.12c3.94,1.23,7.55,9.1,5.64,14.54a10.56,10.56,0,0,1-2.37-1.49,35.67,35.67,0,0,1,1.19,5.94c-.6-.89-1.78-1.19-2.38-2.08.89,2.67.3,5.05,0,7.72-.89-.59-1.48-1.48-2.37-2.08,1.78,7.12-5.23,13.28-6.42,19.81-.83-1.11-1.39-3.65-1.81-5.21-.63,4.33-2.61,9.36-3.77,13.43-2.4-2.82-3.14-6.66-4.62-9.63-.45,2.56-1.32,4.7-1.62,6.77-3-2.37-4.78-6.38-5.73-10.59a6,6,0,0,0-1.6,4.92l.3.42a5.71,5.71,0,0,1,.93-3c.56,4,5.42,9.9,7.38,11.13a12.71,12.71,0,0,1,.6-5.24c.55,2.49,4,6.16,3.85,9.54,1-2.93,3.86-7.31,4.57-12.76a14,14,0,0,0,2.1,3.52c-.2-2.67,5.84-10.68,7.67-16.72a9.63,9.63,0,0,1,0,3.86c1.77-2,2.82-7.32,2.77-9.84.79.54,1.18,2.47,1.18,2.47.85-1.68.7-6,.35-7.67.55-.2,1.29,1.78,1.29,1.78C68.77,106.63,70.74,103.43,70.11,98.15Z"/>
          <path class="fabf133d-81ef-4b5d-9b0d-94d3d9dc218c" d="M48.91,145.36l0-1c.06-2-1.16-4.15-2.25-6.05a18.75,18.75,0,0,1-1.47-2.95,11.73,11.73,0,0,0-.44,4.68l.06.33-.29-.18c-1.86-1.16-6.57-6.71-7.38-10.84a6.12,6.12,0,0,0-.7,2.56l0,.4-.25-.32c-2.34-3.08-3.72-9.9-3.71-13.49A9.35,9.35,0,0,0,31,121.77l-.12.61-.17-.6c-.94-3.24.34-8.28,2.17-11a9.61,9.61,0,0,0-2.9,2.62l-.28.52v-.59c0-1.62,1.64-6.47,4.25-8.64a9.11,9.11,0,0,0-2,.5l-.3.12.1-.3c.91-2.56,3.38-4.38,5.57-6,2-1.44,3.83-2.81,4.19-4.46l0-.07,12.57-5.41,11.8.37,0,0s3.63,2.5,4.37,8.66a20.66,20.66,0,0,1-.63,7.62,10.75,10.75,0,0,0-.46,3.29l.12,1.14-.4-1.07a4.37,4.37,0,0,0-1-1.67c.34,1.87.44,5.91-.39,7.57l-.19.38-.09-.42a6.09,6.09,0,0,0-.89-2.17c0,2.7-1.12,7.65-2.81,9.61l-.37.43.11-.56a10.74,10.74,0,0,0,.13-3.28,59,59,0,0,1-4.31,8.91c-1.77,3.18-3.29,5.93-3.19,7.25l0,.37-.28-.25a13.22,13.22,0,0,1-1.93-3.12,34.07,34.07,0,0,1-3.21,9.33c-.52,1.13-1,2.11-1.29,3Zm-3.64-11,.11.51A14.33,14.33,0,0,0,47,138.2a15.37,15.37,0,0,1,2.26,5.48c.28-.7.64-1.47,1-2.32a32.77,32.77,0,0,0,3.25-9.73l.07-.52.21.48a18.39,18.39,0,0,0,1.83,3.21c.15-1.5,1.58-4.09,3.22-7a53.77,53.77,0,0,0,4.45-9.35l.13-.45.15.45a8.4,8.4,0,0,1,.1,3.33c1.51-2.24,2.43-6.89,2.38-9.27v-.29l.24.16a4.2,4.2,0,0,1,1.14,2.12,18.29,18.29,0,0,0,.17-7.16l-.16-.85.85.93a3.8,3.8,0,0,1,.58.92,15,15,0,0,1,.47-2.62A20.35,20.35,0,0,0,70,98.16c-.69-5.7-3.85-8.16-4.21-8.42l-11.64-.37L41.73,94.69c-.42,1.72-2.3,3.1-4.29,4.56s-4.38,3.22-5.34,5.55a8.7,8.7,0,0,1,2.34-.46h.5l-.42.28c-2.46,1.7-4.18,6.14-4.48,8.16a10,10,0,0,1,3.26-2.53l.39-.07-.25.31a15.48,15.48,0,0,0-2.6,10.64,11.37,11.37,0,0,1,1.7-3.14l.29-.37,0,.47c-.15,3.27,1.14,10.14,3.41,13.45a5.69,5.69,0,0,1,.92-2.64l.22-.29,0,.36c.53,3.9,5,9.32,7,10.83a13.16,13.16,0,0,1,.65-5Z"/>
        </g>
        <path class="fabf133d-81ef-4b5d-9b0d-94d3d9dc218c" d="M41.33,100.92A17.88,17.88,0,0,0,42.75,94h.3a21.57,21.57,0,0,1-.72,5.15A4.61,4.61,0,0,1,41.33,100.92Z"/>
      </g>
      <g>
        <path class="fa2de563-fc5a-479a-8a2d-d639c94e6031" d="M56.85,145.11c.2,3.86-1.63,18.95-2.52,22.66,4.4-1.29,14-.8,14-.8,1.34-3.83,3.6-9.76,3.6-9.76l2-11.75-9.82-6.68Z"/>
        <path class="b4381a67-6903-4b5a-819a-14d32c603e46" d="M57.85,145.09l-1,0c.2,3.86-1.63,18.95-2.52,22.66a6,6,0,0,1,1.28-.31C56.49,162.24,58.37,149.49,57.85,145.09Z"/>
        <path class="b2e9b1fc-f91c-4f84-90dc-58d08041d57e" d="M71.76,144c-3.23,10.34-4.71,15.25-7.6,23.07,3.48-.1,4.15-.06,4.15-.06,1.34-3.83,3.6-9.76,3.6-9.76l2-11.75Z"/>
        <path class="b6cc5d4d-0929-4550-bbef-e966ec2b7a4c" d="M54.12,168l.06-.24C55,164.17,56.9,149,56.7,145.12v-.07l7.43-6.45,10,6.79-2.07,11.84c0,.09-2.29,6-3.61,9.79l0,.1H68.3c-.09,0-9.6-.46-13.93.8ZM57,145.18c.18,4-1.58,18.35-2.47,22.38,4.21-1.12,12.61-.79,13.68-.75,1.32-3.78,3.54-9.59,3.56-9.65l2-11.63L64.16,139Z"/>
      </g>
      <g>
        <path class="a5ec9465-1104-434b-af5a-280bcb71d2bf" d="M54.14,137a25,25,0,0,1,2.71,8.14c1,1,2.32,5.5,2.47,6.29.94-1.78,2.62-4.5,3.17-5.94a13.31,13.31,0,0,1,.69,6.83c2-2,4-5.91,4.16-7.88,1.13,2.19,1,6.89.84,8.32,1.23-.69,4-4.45,4-4.45-.24,3.91-.08,6.85-.27,8.93a65.62,65.62,0,0,0,3.34-10.57c.15-1.15-.88-10.08-2.51-14.08Z"/>
        <path class="a90436ee-d8b3-4cef-b4f0-e44060df02e3" d="M54.14,137a25,25,0,0,1,2.71,8.14A6.9,6.9,0,0,1,58,147.19C57.92,142.57,56.39,138.73,54.14,137Z"/>
        <path class="e73a92f6-2455-4b6e-a032-68876ec45ae9" d="M72.74,132.56l-.13,0A35.3,35.3,0,0,1,69.11,152a39.56,39.56,0,0,0,3.07-3.68c-.24,3.91-.08,6.85-.27,8.93a65.62,65.62,0,0,0,3.34-10.57C75.4,145.49,74.37,136.56,72.74,132.56Z"/>
        <path class="fcd32458-4039-4663-a47d-cb430f747ee1" d="M71.69,158.06l.07-.86c.09-1,.1-2.15.11-3.51s0-3.06.14-4.93c-.76,1-2.74,3.53-3.76,4.1L68,153l0-.3c.2-1.44.27-5.5-.62-7.77a17.14,17.14,0,0,1-4.13,7.45l-.5.49.26-.65a13.65,13.65,0,0,0-.55-6.39c-.41.95-1.17,2.29-1.9,3.59-.42.74-.82,1.44-1.14,2l-.2.37-.07-.42c-.15-.75-1.42-5.18-2.44-6.2l0,0v-.05A25,25,0,0,0,54.14,137a11.11,11.11,0,0,1,1.64,3A28.6,28.6,0,0,1,57,145c.95,1,2,4.6,2.39,5.94.28-.52.61-1.1.95-1.7a35.58,35.58,0,0,0,2-3.87l.12-.33.15.32a13.71,13.71,0,0,1,.8,6.43c2-2.12,3.64-5.69,3.77-7.43l0-.52.24.46c1.06,2,1.07,6.28.89,8.09a29.35,29.35,0,0,0,3.7-4.24l.3-.4,0,.5c-.13,2.07-.15,3.84-.16,5.41,0,1,0,1.87,0,2.66a68.12,68.12,0,0,0,3-9.74c.15-1.12-.73-10.06-2.36-14.06a12.93,12.93,0,0,1,1.43,4,56.63,56.63,0,0,1,1.23,10.12,65.79,65.79,0,0,1-3.35,10.62Z"/>
      </g>
      <g>
        <path class="a5ec9465-1104-434b-af5a-280bcb71d2bf" d="M103.51,164.71c-2.18-4.84-6.79-17-19.65-17s-11.7,33.14-11.7,33.14Z"/>
        <path class="e73a92f6-2455-4b6e-a032-68876ec45ae9" d="M72.52,161.82c-1.11,5.6-.33,19.5-.33,19.5l31.75-16.52c-.61-1.36-2-3.94-3.1-6C96.28,171.63,80.93,177.1,72.52,161.82Z"/>
        <path class="fcd32458-4039-4663-a47d-cb430f747ee1" d="M71.34,172.57c0-.16-.18-15.86,6.12-22.25a8.69,8.69,0,0,1,6.39-2.73h0c10.55,0,15.66,8,18.39,13.64a18.27,18.27,0,0,1,1.26,3.48c-.1-.21-.2-.45-.31-.69-2.32-5.24-7.15-16.13-19.34-16.14h0a8.41,8.41,0,0,0-6.18,2.65c-6.21,6.3-6,21.88-6,22Z"/>
      </g>
      <g>
        <path class="be8b122f-3566-48b4-96c6-fb0b1a3601f2" d="M54.28,164c-5.73,1.61-8.12,1.29-14.94,7.52S29.69,187,24,190.23c2.62.05,6.53-1.88,6.53-1.88-2,4-9.45,12.71-16.67,11,2.08,2.42,10.09,4.25,15.93,1.53-1.63,2.48-7.17,3.37-7.17,3.37,2.37,2.07,10.09,3.86,17.66,1.43-.89,1.24-4.5,3-6.19,3.37,3.37,1.18,9.1,1.46,15.57,0,3.37-.77,7.81-3.07,10.46-3.72,3.38-3.91,19.73-20.47,19.73-20.47Z"/>
        <path class="ba4f6de3-e7ed-4954-a5b4-0b259f274765" d="M28.91,204.29c1.86-.78,4.38-4.9,5.57-7.87-6.16,3.6-12.84,5.38-20,3.54,2.8,2.08,9.92,3.38,15.23.9-1.63,2.48-7.17,3.37-7.17,3.37,2.37,2.07,10.09,3.86,17.66,1.43-.89,1.24-4.5,3-6.19,3.37,3.37,1.18,9.1,1.46,15.57,0,3.37-.77,7.81-3.07,10.46-3.72,1.22-1.42,4.15-4.49,7.38-7.83C54.1,197.2,35.7,205.77,28.91,204.29Z"/>
        <path class="fabf133d-81ef-4b5d-9b0d-94d3d9dc218c" d="M41,210.17a22,22,0,0,1-7-1l-.5-.18.52-.11A16,16,0,0,0,39.76,206c-7.44,2.2-14.89.47-17.29-1.62l-.24-.21.31,0c.06,0,4.8-.79,6.71-2.84-5.76,2.36-13.42.67-15.55-1.81l-.3-.35.45.11c7.17,1.72,14.27-6.85,16.29-10.52A17.26,17.26,0,0,1,24,190.38H23.4l.48-.27c3-1.7,5.3-5.2,7.69-8.91a48.23,48.23,0,0,1,7.67-9.82c5.71-5.21,8.36-5.87,12.37-6.87.82-.2,1.67-.41,2.63-.68l.07,0,.06,0,25.65,21-.11.12c-.17.17-16.39,16.6-19.73,20.46l0,0h0a40.2,40.2,0,0,0-4.46,1.61,40.88,40.88,0,0,1-6,2.11A40,40,0,0,1,41,210.17ZM34.57,209c3,.93,8.41,1.33,15-.16a40.68,40.68,0,0,0,6-2.09A39.56,39.56,0,0,1,60,205.17c3.26-3.76,18.13-18.84,19.59-20.32L54.24,164.13c-.93.26-1.76.46-2.56.66-4,1-6.59,1.64-12.24,6.8a48.05,48.05,0,0,0-7.62,9.76c-2.29,3.54-4.45,6.89-7.3,8.71a20.66,20.66,0,0,0,5.9-1.84l.39-.2-.19.39c-1.7,3.39-8.92,12.49-16.36,11.17,2.51,2.24,10.08,3.64,15.42,1.15l.47-.22-.29.43c-1.43,2.19-5.72,3.14-6.95,3.38,2.64,2,10,3.53,17.27,1.2l.43-.14-.26.37C39.5,206.92,36.4,208.51,34.57,209Z"/>
      </g>
      <g>
        <path class="a5ec9465-1104-434b-af5a-280bcb71d2bf" d="M110.16,172.47c-3.76,4.25-7.21,4.75-15.82,2.18S73,164.59,63.67,163.47s-16.12,1.68-20.33,5.64A19.21,19.21,0,0,0,38.05,178c1.29-1.58,4.13-3.71,8.91-5.39-3.86,2.82-6.73,9-7.57,10.29,2.57-2.43,9.19-4.24,12.51-3.32A25.15,25.15,0,0,0,44.63,185c4.55-1.53,16.92-3.41,22.56.2-5.1.65-16,5.59-19.84,9,3.27-1.34,9.31-2.4,13.65-1-5,1.18-12.81,6.87-14.09,7.86,2.42,0,6.87-.3,8.55,0a30.59,30.59,0,0,0-6.38,4.55c2.77-.15,10.64-.2,10.64-.2a32.18,32.18,0,0,1,14-.56c10.33,1.85,17.61,5.51,28.19,4.82s19.59-3.37,23.25-14.54-.74-17.06-3.21-19.63-7.19-4.35-8.58-5.13Z"/>
        <path class="a90436ee-d8b3-4cef-b4f0-e44060df02e3" d="M64.78,166.73c8.79,1.38,20.71,6.31,29.32,8.88s12.75.84,16.06-3.14c-3.76,4.25-7.21,4.75-15.82,2.18S73,164.59,63.67,163.47s-16.12,1.68-20.33,5.64C47.55,165.15,55.48,165.28,64.78,166.73Z"/>
        <path class="e73a92f6-2455-4b6e-a032-68876ec45ae9" d="M122,175.5c-2.48-2.57-7.19-4.35-8.58-5.13l-3.26,2.1c-.08.09-2.35,2.33-2.42,2.42,21.27,7.94,4.65,36.43-29.82,25A51,51,0,0,0,63.58,198a61.34,61.34,0,0,0-16.67,3.07c2.42,0,6.87-.3,8.55,0a30.59,30.59,0,0,0-6.38,4.55c2.77-.15,10.64-.2,10.64-.2a32.18,32.18,0,0,1,14-.56c10.33,1.85,17.61,5.51,28.19,4.82s19.59-3.37,23.25-14.54S124.47,178.07,122,175.5Z"/>
        <path class="fcd32458-4039-4663-a47d-cb430f747ee1" d="M99.35,209.9c-5.89,0-10.85-1.31-16.07-2.68-3-.79-6.1-1.61-9.54-2.23a31.86,31.86,0,0,0-14,.57h0c-.08,0-7.89.05-10.63.2l-.39,0,.28-.27a30.36,30.36,0,0,1,6-4.36,49.45,49.45,0,0,0-5.33,0c-1,0-2,.06-2.75.06h-.44l.35-.27c.08-.06,8.15-6.19,13.63-7.75-4-1.09-9.63-.26-13,1.13l-.8.33.64-.58c3.71-3.31,14.22-8.13,19.51-9-5.8-3.31-17.9-1.37-22.08,0l-.53.17.37-.41a25.76,25.76,0,0,1,6.93-5.3c-3.33-.65-9.49,1-12,3.38l-.91.85.68-1c.16-.25.4-.68.7-1.22,1.21-2.2,3.39-6.13,6.18-8.54-5.06,1.94-7.25,4.14-8,5l-.4.49.14-.61A19.47,19.47,0,0,1,43.24,169c4.94-4.65,12.21-6.67,20.45-5.68,5.74.69,12.61,3.7,19.25,6.62a104.55,104.55,0,0,0,11.45,4.56c8.68,2.6,12.07,2.16,15.77-2a7.79,7.79,0,0,1-2.48,2.58c-3,1.92-6.72,1.73-13.38-.26a107.36,107.36,0,0,1-11.48-4.58c-6.62-2.91-13.47-5.91-19.16-6.6-8.16-1-15.34,1-20.21,5.6a19.48,19.48,0,0,0-5.08,8.17c1.1-1.15,3.59-3.21,8.54-4.95l1-.34-.82.6c-3.09,2.26-5.52,6.65-6.82,9-.1.18-.19.35-.28.5,3-2.22,8.9-3.66,12-2.8l.4.11-.38.17a24.38,24.38,0,0,0-6.82,5c5.24-1.61,16.71-3.08,22.13.39l.34.22-.4.05c-4.82.61-14.83,5.07-19.09,8.41,3.19-1.11,8.69-2.06,12.93-.69l.5.17-.51.12c-4.79,1.14-12,6.32-13.68,7.57l2.29-.06a39.66,39.66,0,0,1,5.84.07l.42.07-.38.2a32.11,32.11,0,0,0-6.05,4.25c3-.12,9.76-.17,10.21-.17a32.15,32.15,0,0,1,14.1-.57c3.45.62,6.56,1.44,9.57,2.23,5.94,1.57,11.56,3,18.59,2.59,9.76-.64,19.32-2.83,23.12-14.44,2.62-8,1.55-14.56-3.18-19.48-1.89-2-5.17-3.49-7.12-4.41-.61-.28-1.1-.51-1.42-.69l-.13-.07.28-.19c.31.18.79.4,1.39.69,2,.92,5.29,2.46,7.21,4.47,4.82,5,5.91,11.66,3.25,19.77-3.85,11.78-13.51,14-23.38,14.65C101.08,209.88,100.2,209.9,99.35,209.9Z"/>
      </g>
      <g>
        <g>
          <g>
            <path class="a5ec9465-1104-434b-af5a-280bcb71d2bf" d="M73.17,36.93c0-3.61,3.44-8.33,7.22-10.78a106.81,106.81,0,0,1,11.33-5.69c2.15-1,3.66-2,4.4-2,2,0,5.55,11.28,3.76,22.76s-6.72,18.5-12.76,20.18C83.66,52.86,73.17,36.93,73.17,36.93Z"/>
            <g>
              <path class="a90436ee-d8b3-4cef-b4f0-e44060df02e3" d="M80.41,27.62a107.12,107.12,0,0,1,11.31-6.69c2.15-1,3.66-2.5,4.4-2.5-.74,0-2.25,1-4.4,2a106.81,106.81,0,0,0-11.33,5.69c-3.78,2.45-7.22,7.17-7.22,10.78a18.62,18.62,0,0,0,1,1.83C74.51,35.18,76.88,29.91,80.41,27.62Z"/>
              <path class="e73a92f6-2455-4b6e-a032-68876ec45ae9" d="M96.31,18.46c1.86.63,2.82,10.58,1.1,21.69s-6,16.18-11.72,18.05c.55,1.13,1,2.2,1.43,3.17,6-1.68,11-8.71,12.76-20.18C101.61,30.06,98.32,19.13,96.31,18.46Z"/>
            </g>
            <path class="fcd32458-4039-4663-a47d-cb430f747ee1" d="M87,61.55l0-.13C83.57,53,73.15,37.17,73.05,37l0,0v0c0-3.87,3.71-8.58,7.29-10.91a90.44,90.44,0,0,1,10.06-5.1l1.29-.6c.8-.37,1.51-.74,2.14-1.07a6.74,6.74,0,0,1,2.32-1,1.32,1.32,0,0,1,.92.56c2.18,2.54,4.48,12.76,3,22.37-1.7,10.94-6.51,18.53-12.87,20.3ZM73.32,36.89c.57.86,10.49,16,13.89,24.3,6.18-1.81,10.86-9.28,12.53-20,1.59-10.25-1.1-20-2.93-22.13a1.06,1.06,0,0,0-.69-.45,6.92,6.92,0,0,0-2.18.93c-.63.33-1.35.71-2.16,1.08l-1.29.6a92.14,92.14,0,0,0-10,5.08C76.48,28.86,73.35,33.52,73.32,36.89Z"/>
          </g>
          <g>
            <path class="b8b9d56a-82b0-419b-815e-24c97de56229" d="M96.12,18.43l-.17,0c-4.11,2.47-12,11.5-10.61,23.3,1.31,9.51,1.39,10.07,1.39,10.07s8.13-1.11,13.36-12.19C101.34,28.71,98,18.43,96.12,18.43Z"/>
            <path class="a16e63d7-109d-42d7-9a90-a653cf0195b4" d="M99,23.52a16.92,16.92,0,0,0-1.49-3.77,2.89,2.89,0,0,0-1-1.24,2.64,2.64,0,0,1,.9,1.42A15.51,15.51,0,0,1,98,22.88a50.92,50.92,0,0,1,.27,9.32,78.73,78.73,0,0,1-.82,7.95,44.18,44.18,0,0,1-1.23,5.62,27.45,27.45,0,0,0,3.91-6.14,44.92,44.92,0,0,0-.19-11.41A37.58,37.58,0,0,0,99,23.52Z"/>
            <path d="M86.61,52,85.19,41.77c-1.43-12,6.58-21,10.68-23.45l0,0,.2,0a1.25,1.25,0,0,1,.88.51c2,2.28,4.31,11.54,3.24,20.85l0,0C95,50.72,86.83,52,86.75,52ZM96,18.59C91.94,21,84.08,29.89,85.49,41.74l1.37,9.91c1.11-.22,8.33-2,13.09-12.06,1.13-9.93-1.46-18.68-3.17-20.6a1,1,0,0,0-.66-.41Z"/>
          </g>
          <g>
            <path class="ba479a1a-a3cb-44de-adc6-d51c777b0d51" d="M81,46.87C83.19,32.55,94,26.47,94.54,26.32s3,8,.89,17.14c-2.22,9.72-8.66,13.65-8.66,13.65Z"/>
            <path class="e490eb6e-47af-49ab-bea0-f92f2f76bb92" d="M94.54,26.32C94,26.47,83.19,32.55,81,46.87l3.61,6.45C84.23,38.36,92.29,27.22,94.54,26.32Z"/>
            <path d="M86.72,57.32,80.88,46.9v0a29.74,29.74,0,0,1,7.37-15.67,21.23,21.23,0,0,1,6.25-5,.25.25,0,0,1,.25.09c.83.81,2.77,8.69.82,17.22-2.22,9.67-8.67,13.71-8.73,13.75ZM81.19,46.85l5.63,10c.92-.62,6.46-4.69,8.47-13.47s-.17-16.5-.74-16.95C94,26.76,83.37,32.48,81.19,46.85Z"/>
          </g>
        </g>
        <g>
          <g>
            <path class="a5ec9465-1104-434b-af5a-280bcb71d2bf" d="M54.77,31.19c-.79-4.75-7.42-9.25-10.49-15.13-2.21-4.25-2.57-7.48-4.35-7.72-2.56-.35-10.83,7.15-13,18-2.2,11.21,1.29,21.3,4.65,23.18C36.86,36.63,54.77,31.19,54.77,31.19Z"/>
            <g>
              <path class="a90436ee-d8b3-4cef-b4f0-e44060df02e3" d="M43.61,16.67c3,5.72,8.7,10.39,9.74,15,.9-.33,1.42-.49,1.42-.49-.79-4.75-7.42-9.25-10.49-15.13-2.21-4.25-2.57-7.48-4.35-7.72C41.71,8.58,41.4,12.43,43.61,16.67Z"/>
              <path class="e73a92f6-2455-4b6e-a032-68876ec45ae9" d="M29,25.6c1.86-9.47,6.91-15.84,9.86-17.06-3.3,1.26-10,8.22-11.84,17.78-2.2,11.21,1.29,21.3,4.65,23.18a20.78,20.78,0,0,1,2-3.76A25.06,25.06,0,0,1,29,25.6Z"/>
            </g>
            <path class="fcd32458-4039-4663-a47d-cb430f747ee1" d="M31.69,49.71l-.14-.08c-3.42-1.92-7-12-4.72-23.34C29,15.31,37.25,7.83,40,8.19c1.23.17,1.8,1.6,2.67,3.75A40.13,40.13,0,0,0,44.42,16a37.28,37.28,0,0,0,5.31,7.09c2.44,2.77,4.74,5.39,5.19,8.09l0,.13-.13,0c-.17.05-17.9,5.56-23,18.21ZM39.74,8.48C37,8.48,29.16,16,27.12,26.35,25,37.27,28.33,47.24,31.55,49.28,36.61,37.18,53,31.61,54.6,31.09c-.48-2.57-2.73-5.12-5.1-7.81a37.42,37.42,0,0,1-5.35-7.16,43.5,43.5,0,0,1-1.81-4.07C41.52,10,41,8.63,39.91,8.49Z"/>
          </g>
          <g>
            <path class="b8b9d56a-82b0-419b-815e-24c97de56229" d="M33.92,38.19c5.86-1.56,6.61-3.93,6.61-3.93,0-7.24.89-15.67,2.51-20.87-1.2-2.87-1.73-4.86-3.11-5.05-1.88-.26-6.86,3.74-10.2,10.18C28.07,26.46,29.74,33.76,33.92,38.19Z"/>
            <g>
              <path class="a16e63d7-109d-42d7-9a90-a653cf0195b4" d="M38.81,8.54c-3.13,1.29-5.53,4.33-7.36,7.07-.31.46-.61.94-.9,1.43a6,6,0,0,0-.82,1.48,28.81,28.81,0,0,0-.63,6.36C31.07,15.8,35.94,9.72,38.81,8.54Z"/>
              <path class="a818c09b-71d2-4233-9b68-1373cadbc148" d="M42.83,12.87v0c-.39-.95-.74-1.94-1.2-2.87-.23-.48-.86-1.61-1.5-1.6.82.28,1.1,1.32,1.33,2,.42,1.39.74,2.8,1.24,4.17.12-.42.23-.83.35-1.21Z"/>
            </g>
            <path d="M33.87,38.36l-.06-.07c-4.28-4.54-5.86-11.95-4.23-19.8l0,0C33.05,11.8,38,7.93,40,8.19c1.23.17,1.8,1.6,2.67,3.75.17.44.36.9.56,1.39l0,.05,0,0c-1.52,4.88-2.51,13.06-2.51,20.83v0c0,.1-.84,2.47-6.71,4Zm-4-19.79c-1.6,7.71-.07,15,4.1,19.46,5.34-1.44,6.32-3.57,6.41-3.8,0-7.76,1-15.93,2.51-20.84-.2-.47-.38-.92-.55-1.34C41.52,10,41,8.63,39.91,8.49,38.12,8.24,33.21,12.14,29.87,18.57Z"/>
          </g>
          <g>
            <path class="ba479a1a-a3cb-44de-adc6-d51c777b0d51" d="M43.42,32.11c-5.94-8.85-2.82-18.88-4.23-19.4s-6.53,5.37-8.09,13.61c-1.22,6.46.37,13.58,1.87,14.42C35.94,39.11,43.42,32.11,43.42,32.11Z"/>
            <path d="M33,40.91l-.07,0C31.3,40,29.73,32.79,31,26.29c1.28-6.77,5.11-12.29,7.28-13.51a1.26,1.26,0,0,1,1-.21c.56.21.54,1.31.5,3.3-.06,3.83-.18,10.23,3.8,16.16l.07.1-.09.09c-.31.28-7.53,7-10.48,8.65Zm6-28.08a1.33,1.33,0,0,0-.62.21c-2.11,1.19-5.87,6.62-7.13,13.31C30,32.8,31.62,39.61,33,40.57c2.78-1.58,9.39-7.69,10.24-8.48-3.95-6-3.84-12.39-3.77-16.22,0-1.61,0-2.89-.31-3A.32.32,0,0,0,39,12.83Z"/>
          </g>
        </g>
        <g>
          <path class="a5ec9465-1104-434b-af5a-280bcb71d2bf" d="M33.65,37.38C26.94,46,25.39,53.85,23.24,57.86s-4.34,5.41-6.31,4.82a13.55,13.55,0,0,1,5.27,6.68c1,3.11,6.45,10.76,20.92,9.12S90,75.59,95.73,72.1c-4.6-.93-6.34-6-7.08-10C88,58.57,86.5,46.5,81,39.11,71.59,26.32,45.77,21.79,33.65,37.38Z"/>
          <g>
            <path class="a90436ee-d8b3-4cef-b4f0-e44060df02e3" d="M24.24,59.07c2.15-4,3.51-12.18,10.33-20.71,10-12.56,24.31-10.1,29.85-9.71-10.79-2.82-23.35-.82-30.77,8.73C26.94,46,25.39,53.85,23.24,57.86s-4.34,5.41-6.31,4.82C19.53,64.05,22.09,63.08,24.24,59.07Z"/>
            <path class="e73a92f6-2455-4b6e-a032-68876ec45ae9" d="M83.26,61.55c.55,3.1,1.51,9.1,3.79,12.26,5-.7,7-.71,8.68-1.71-4.6-.93-6.34-6-7.08-10C88,58.57,86.5,46.5,81,39.11a28.63,28.63,0,0,0-12.8-9.23C83.63,38.76,82.3,56.08,83.26,61.55Z"/>
          </g>
          <path class="fcd32458-4039-4663-a47d-cb430f747ee1" d="M39.21,78.86a21.51,21.51,0,0,1-11.69-3,12.82,12.82,0,0,1-5.46-6.43,13.62,13.62,0,0,0-5.21-6.6l-.91-.58,1,.32c2,.6,4.14-1,6.14-4.75A45,45,0,0,0,25,53.26a58,58,0,0,1,8.51-16l.12.09-.12-.09c5.08-6.54,13-10.08,22.27-10C66.05,27.46,76,32.05,81.16,39c4.91,6.65,6.66,17.18,7.41,21.68.09.53.16,1,.23,1.36,1.07,5.85,3.41,9.18,7,9.9l.37.07-.32.2c-4.11,2.49-21.37,3.83-36.6,5-6.1.47-11.87.92-16.07,1.39A35.91,35.91,0,0,1,39.21,78.86ZM17.58,63a13.48,13.48,0,0,1,4.76,6.36,12.72,12.72,0,0,0,5.33,6.27c4,2.53,9.19,3.46,15.43,2.76,4.22-.48,10-.93,16.08-1.4C74,75.79,90.73,74.5,95.32,72.16c-3.47-.9-5.76-4.27-6.81-10-.07-.37-.15-.83-.24-1.36-.74-4.48-2.48-15-7.35-21.55-5.1-6.91-15-11.45-25.12-11.57-9.18-.12-17,3.38-22,9.84a57.51,57.51,0,0,0-8.47,15.9,44.15,44.15,0,0,1-1.93,4.56C21.12,62.1,19.07,63.05,17.58,63Z"/>
        </g>
        <path class="b4e73541-f4d0-440a-be75-d2e2e79dd025" d="M55.86,69.62c-2.11-3.86-1.16-23.37,4.65-25.57,6.19-2.33,12,11.88,8.56,21.75C66.52,73.17,57.46,72.53,55.86,69.62Z"/>
        <g>
          <path class="f204afb5-9aac-4b35-9bf1-0d2c660a611b" d="M56.49,67.78c-1.23-3.54.1-14.36,6.71-14.43,4.53-.05,6.76,9.38,4.73,13.82S57.74,71.36,56.49,67.78Z"/>
          <path d="M56.49,68c-1.23-3.23.66-13.17,6.71-13.17,4.53,0,6.76,8.56,4.73,12.61S57.74,71.29,56.49,68Z"/>
          <path class="bb17dde9-f6ee-4754-b722-9efda2ea8deb" d="M56.65,68.13c-1.2-3.07.64-12.55,6.53-12.55,4.4,0,6.58,8.16,4.6,12S57.87,71.25,56.65,68.13Z"/>
          <path class="aaae300d-d9d2-42d8-b618-e433068fa59f" d="M56.36,66.82a5,5,0,0,0,.29,1.31c1.22,3.12,9.15,3.33,11.13-.53a9.51,9.51,0,0,0,.52-5.81C68.62,67.72,59.14,69.94,56.36,66.82Z"/>
          <path d="M61.74,70.63h-.47c-2.4-.12-4.22-1.05-4.76-2.43h0c-.83-2.13-.21-6.93,1.83-9.92a5.81,5.81,0,0,1,4.84-2.84A4.65,4.65,0,0,1,67.07,58c1.73,2.84,2.11,7.16.84,9.64C66.85,69.74,64.13,70.63,61.74,70.63Zm1.44-14.9a5.54,5.54,0,0,0-4.6,2.71c-2,2.91-2.6,7.57-1.79,9.64h0c.49,1.25,2.25,2.13,4.49,2.24s5.29-.69,6.37-2.79c1.23-2.39.85-6.58-.84-9.35A4.45,4.45,0,0,0,63.18,55.73Z"/>
          <path class="fcd32458-4039-4663-a47d-cb430f747ee1" d="M58.46,56.1a5.56,5.56,0,0,1,4.6-2.71,4.49,4.49,0,0,1,3.64,2.46,9.85,9.85,0,0,1,.67,1.34,6.16,6.16,0,0,0-.5-1.63,4.59,4.59,0,0,0-3.81-2.47,5.83,5.83,0,0,0-4.84,2.84l-.14.21a4.94,4.94,0,0,0-.53,1.62A11,11,0,0,1,58.46,56.1Z"/>
        </g>
        <g>
          <g>
            <path class="e02b21dc-b05b-4f59-ac9b-480a9dd5af72" d="M64.76,61.34c1.59,0,2.84,1.87,2.77,4.1s-1.41,4-3,4-2.84-1.87-2.77-4.1S63.16,61.3,64.76,61.34Z"/>
            <path class="bdac59c8-512d-4f65-9cfc-c2936138045b" d="M64.57,69.56h0a2.5,2.5,0,0,1-1.77-.83,4.83,4.83,0,0,1-1.15-3.42c.06-2.29,1.46-4.12,3.11-4.12h.05a2.5,2.5,0,0,1,1.77.83,4.83,4.83,0,0,1,1.15,3.42C67.61,67.73,66.22,69.56,64.57,69.56Zm.14-8.08c-1.49,0-2.75,1.71-2.82,3.84A4.53,4.53,0,0,0,63,68.52a2.19,2.19,0,0,0,1.56.75c1.49,0,2.79-1.69,2.86-3.84a4.53,4.53,0,0,0-1.08-3.2,2.22,2.22,0,0,0-1.56-.75Z"/>
          </g>
          <path d="M65,63.33c.93,0,1.66,1.14,1.62,2.51s-.83,2.46-1.76,2.44-1.65-1.14-1.61-2.51S64.06,63.31,65,63.33Z"/>
          <path class="bb17dde9-f6ee-4754-b722-9efda2ea8deb" d="M64.17,63a1,1,0,0,1,1,.93A1,1,0,0,1,64.28,65a1,1,0,0,1-1-.92A1,1,0,0,1,64.17,63Z"/>
        </g>
        <path class="b4e73541-f4d0-440a-be75-d2e2e79dd025" d="M32.51,68.61c-2.79.4-5.64-1.48-4.15-11.5,1.51-10.2,6-14.91,8.38-13.31s2.17,12.62.79,17.57S34.42,68.34,32.51,68.61Z"/>
        <g>
          <path class="f204afb5-9aac-4b35-9bf1-0d2c660a611b" d="M33.83,52.07c-3.13,0-6.39,8.44-5.26,12.66s5.12,3.88,6.32,2C37.6,62.43,37.84,52.07,33.83,52.07Z"/>
          <path d="M33.83,53.35c-3.13,0-6.39,7.76-5.26,11.64s4.93,3.5,6.12,1.76C37.4,62.8,37.84,53.35,33.83,53.35Z"/>
          <path class="bb17dde9-f6ee-4754-b722-9efda2ea8deb" d="M33.77,54c-3,0-6.11,7.42-5,11.13s4.7,3.34,5.84,1.68C37.19,63,37.61,54,33.77,54Z"/>
          <path class="aaae300d-d9d2-42d8-b618-e433068fa59f" d="M28.55,63.91a5.65,5.65,0,0,0,.2,1.22c1.09,3.71,4.7,3.34,5.84,1.68a12.83,12.83,0,0,0,1.81-5.09C35.16,65.59,29.83,67.27,28.55,63.91Z"/>
          <path d="M32.1,68.16a3.08,3.08,0,0,1-.53,0,3.71,3.71,0,0,1-3-3c-.8-2.71.57-7.07,2.34-9.44a3.87,3.87,0,0,1,2.82-1.88h0A2.48,2.48,0,0,1,36,55.34c1.4,2.67.75,8.61-1.27,11.55A3.2,3.2,0,0,1,32.1,68.16Zm1.67-14a3.56,3.56,0,0,0-2.58,1.76c-1.69,2.26-3.06,6.59-2.3,9.18a3.44,3.44,0,0,0,2.72,2.74,3,3,0,0,0,2.86-1.1c2-2.88,2.62-8.66,1.25-11.25a2.14,2.14,0,0,0-1.95-1.33Z"/>
          <path class="fcd32458-4039-4663-a47d-cb430f747ee1" d="M31.36,53.93a3.61,3.61,0,0,1,2.58-1.76h0a2.17,2.17,0,0,1,2,1.34,10.62,10.62,0,0,1,.76,2.13,4,4,0,0,0-.31-1.86c-.06-.14-.12-.28-.19-.41a2.48,2.48,0,0,0-2.22-1.5h0a3.74,3.74,0,0,0-2.72,1.76,6.21,6.21,0,0,0-1.09,2A15.67,15.67,0,0,1,31.36,53.93Z"/>
        </g>
        <g>
          <g>
            <path class="e02b21dc-b05b-4f59-ac9b-480a9dd5af72" d="M34.78,59.29c1.11.49,1.58,2.44,1,4.37s-1.87,3.09-3,2.6-1.58-2.44-1.05-4.36S33.67,58.8,34.78,59.29Z"/>
            <path class="bdac59c8-512d-4f65-9cfc-c2936138045b" d="M33.37,66.52a1.47,1.47,0,0,1-.58-.12c-1.17-.51-1.68-2.55-1.13-4.54a4.09,4.09,0,0,1,1.87-2.66,1.55,1.55,0,0,1,1.31-.05h0c1.17.52,1.68,2.56,1.13,4.55a4.06,4.06,0,0,1-1.87,2.65A1.8,1.8,0,0,1,33.37,66.52Zm.89-7.19a1.46,1.46,0,0,0-.6.14A3.85,3.85,0,0,0,32,61.94c-.52,1.85-.08,3.73,1,4.19a1.24,1.24,0,0,0,1.06,0,3.83,3.83,0,0,0,1.71-2.46c.51-1.86.08-3.74-1-4.19h0A1.09,1.09,0,0,0,34.26,59.33Z"/>
          </g>
          <path d="M34.51,61.09c.65.29.91,1.47.58,2.65S34,65.65,33.33,65.37s-.91-1.47-.58-2.65S33.86,60.81,34.51,61.09Z"/>
          <path class="bb17dde9-f6ee-4754-b722-9efda2ea8deb" d="M34,60.58a.76.76,0,0,1,.51,1,.79.79,0,0,1-1,.55.74.74,0,0,1-.51-.95A.79.79,0,0,1,34,60.58Z"/>
        </g>
        <g>
          <path class="be8b122f-3566-48b4-96c6-fb0b1a3601f2" d="M38.72,75.59c2-1.23,4.7-4,9.57-4,4.31,0,4.75,1.33,8.66.59s12-3.88,21.27-2.92,14.24,5.16,19.55,6.27c-2.52.6-6.57,4.42-8.72,5.08,2.08.38,3.49.67,3.49.67-3.86.78-9.69,6.31-15.88,9.28-8,3.83-22.93,1.85-25.08,2.15-2.23,1.41-6.46,5-11.65,3.92-5.85-1.17-3.26-7.48-5-9-3.86-.82-8.58-2.35-11.8-7.94-2.7-4.69-5-7.72-6.23-8.24a13.73,13.73,0,0,1,3.63,1.27c-4.37-3.23-3.63-4.79-5.49-9,3.75,0,12.31,3.91,15.29,9.12A14.39,14.39,0,0,0,38.72,75.59Z"/>
          <path class="ba4f6de3-e7ed-4954-a5b4-0b259f274765" d="M97.77,75.55c-3.68-.77-7.2-3-12.11-4.65.68,3.54,0,8.07-3.58,10,1.18.29,2,.39,3.26.59C84.1,82.28,81,86.24,73,88.65c-7.19,2.17-15.56,2.09-20,1.93-3.56,0-7.14,5.52-13.52,4-3.3-.77-1.41-8-4.08-8.63-2.91-.86-4.75.62-9.34-2.62A17.72,17.72,0,0,0,35,87.61c1.71,1.56-.88,7.87,5,9,5.19,1,9.42-2.51,11.65-3.92,2.15-.3,17.09,1.68,25.08-2.15,6.19-3,12-8.5,15.88-9.28,0,0-1.41-.29-3.49-.67C91.2,80,95.25,76.15,97.77,75.55Z"/>
          <path class="fabf133d-81ef-4b5d-9b0d-94d3d9dc218c" d="M41.8,97a9.64,9.64,0,0,1-1.9-.19C36,96,35.74,93,35.57,90.52c-.09-1.21-.16-2.27-.68-2.77-4.09-.87-8.7-2.51-11.86-8-2.55-4.44-5-7.65-6.16-8.17l-.76-.33.83.05a9.18,9.18,0,0,1,2.54.75A9.58,9.58,0,0,1,16,66.71a29.16,29.16,0,0,0-1.09-2.93l-.09-.21h.22c3.57,0,12.3,3.78,15.4,9.17a14.35,14.35,0,0,0,8.2,2.7c.35-.22.72-.48,1.12-.77a13.92,13.92,0,0,1,8.5-3.21,16.1,16.1,0,0,1,4.08.48,9.62,9.62,0,0,0,4.55.12c.88-.17,2-.46,3.25-.8,4.32-1.14,10.86-2.88,18.06-2.13a41.23,41.23,0,0,1,13.34,4,32.25,32.25,0,0,0,6.23,2.29l.65.13-.65.16c-1.34.31-3.12,1.56-4.84,2.77a24.46,24.46,0,0,1-3.36,2.11c1.77.33,3,.57,3,.58l.7.15-.7.14c-2.09.42-4.73,2.23-7.8,4.33a63.35,63.35,0,0,1-8,4.93c-6.14,3-16.31,2.48-21.77,2.23a32.34,32.34,0,0,0-3.32-.07l-.92.62C48.71,94.84,45.56,97,41.8,97ZM17.6,71.7c1.35,1.1,3.44,4,5.69,7.9C26.4,85,31,86.61,35,87.46h0l0,0c.63.58.71,1.7.8,3,.17,2.34.37,5.26,4.1,6,4.47.89,8.15-1.61,10.58-3.26l1-.64.06,0a30.15,30.15,0,0,1,3.4.06c5.44.26,15.56.72,21.64-2.2a61.77,61.77,0,0,0,8-4.91c2.8-1.91,5.25-3.59,7.28-4.21-.61-.12-1.62-.32-2.85-.54l-.6-.11.58-.18a17.51,17.51,0,0,0,3.78-2.27,22.44,22.44,0,0,1,4.41-2.65,36.26,36.26,0,0,1-5.75-2.18,40.83,40.83,0,0,0-13.25-4c-7.15-.74-13.65,1-18,2.12-1.28.34-2.39.63-3.27.8a9.85,9.85,0,0,1-4.67-.12,15.77,15.77,0,0,0-4-.47A13.74,13.74,0,0,0,40,74.91c-.41.3-.8.58-1.16.81l0,0h0A14.76,14.76,0,0,1,30.27,73l0,0c-3-5.21-11.29-8.9-14.93-9.05.46,1.06.75,2,1,2.75.72,2.19,1.2,3.64,4.33,6l.6.52-.75-.27A17.6,17.6,0,0,0,17.6,71.7Z"/>
        </g>
        <g>
          <path class="f2cb4075-b17f-49cd-b929-e3b85ed2870e" d="M37.76,84.52c1.8,3.42-.08,7.76,2.57,8.41,5.72,1.39,14.49-10.34,17.31-15.42-.53-1.14-1.36-.77-1.36-.77C52.84,80.75,46.39,83.85,37.76,84.52Z"/>
          <path class="af70a586-12be-412f-92ad-c88984d5f80d" d="M50.49,81.15a26.18,26.18,0,0,1-3.59,1.53c-2.77,2.26-1.75,5.25-.2,8a42,42,0,0,0,7.55-8A4.82,4.82,0,0,0,50.49,81.15Z"/>
          <g>
            <g>
              <path class="ba479a1a-a3cb-44de-adc6-d51c777b0d51" d="M40.33,92.93c3.75.91,8.81-3.81,12.64-8.6a9.67,9.67,0,0,0-7.2,2.07c-2.38-.53-5.68,2-6.8,5.17A1.81,1.81,0,0,0,40.33,92.93Z"/>
              <path class="ec94523e-b806-4bde-8e2e-8ed0c6b04bef" d="M53,84.33a9.67,9.67,0,0,0-7.2,2.07,4.46,4.46,0,0,0-3.21.74c1.93-.61,1.7.3,1.7,1.2,1.4-1.77,2.89-1.9,3.47-1.49,1.23.88-2.15,4.35-5.35,6.07C45.8,92.2,49.8,88.29,53,84.33Z"/>
              <path class="e1f5c2b0-8775-4285-bd5d-e4411e1acfae" d="M41.31,93.19a4.44,4.44,0,0,1-1-.12h0a1.91,1.91,0,0,1-1.46-1.46v-.09c1.14-3.22,4.47-5.76,6.9-5.28A9.82,9.82,0,0,1,53,84.18l.26,0-.16.21C50.37,87.81,45.42,93.19,41.31,93.19Zm-2.18-1.62a1.61,1.61,0,0,0,1.23,1.21h0c4,1,9.39-4.7,12.33-8.34a9.71,9.71,0,0,0-6.82,2.07l-.06,0-.07,0C43.44,86,40.25,88.47,39.13,91.57Z"/>
            </g>
            <path class="e1f5c2b0-8775-4285-bd5d-e4411e1acfae" d="M44.26,88.34a4.74,4.74,0,0,1,.94-1.6c.15-.15.31-.31.47-.45l.2.22A12.81,12.81,0,0,0,44.26,88.34Z"/>
          </g>
          <path class="fabf133d-81ef-4b5d-9b0d-94d3d9dc218c" d="M41.31,93.19a4.31,4.31,0,0,1-1-.12c-1.58-.38-1.66-2-1.74-3.86a10.78,10.78,0,0,0-.92-4.62l-.11-.2.23,0c8-.63,14.74-3.44,18.41-7.73l.06,0s1-.41,1.55.85l0,.07,0,.06C55.33,82,47.23,93.19,41.31,93.19ZM38,84.65a11.45,11.45,0,0,1,.86,4.54c.08,1.82.14,3.26,1.51,3.59,5.78,1.41,14.52-10.63,17.11-15.27-.41-.82-1-.69-1.11-.65C52.67,81.15,46,84,38,84.65Z"/>
        </g>
        <g>
          <path class="be8b122f-3566-48b4-96c6-fb0b1a3601f2" d="M28,73.81c-2.07,1.26-2.67,4.82-1.26,8s3.55,3.44,4.55,3.24,2.84-2,4-1.42S37.23,86,40.94,86s10.81-1.71,16.32-8.74l-1.71-1.37C44.54,77.86,35.41,77.07,28,73.81Z"/>
          <path class="ba4f6de3-e7ed-4954-a5b4-0b259f274765" d="M41.6,84c-3.45.48-3.84-3-7-2.54-2.08.3-2.8,2.38-5.18,2.08a6,6,0,0,1-3.12-3,10.25,10.25,0,0,0,.45,1.28c1.42,3.19,3.55,3.44,4.55,3.24s2.84-2,4-1.42S37.23,86,40.94,86s10.81-1.71,16.32-8.74l-.61-.49C54.47,79.94,47,83.78,41.6,84Z"/>
          <path class="fabf133d-81ef-4b5d-9b0d-94d3d9dc218c" d="M40.87,86.13a6.45,6.45,0,0,1-4.76-1.71,4.41,4.41,0,0,0-.88-.65c-.69-.34-1.67.25-2.54.77a5.41,5.41,0,0,1-1.39.67c-.5.1-3.07.39-4.71-3.33-1.43-3.21-.83-6.89,1.32-8.2l.15.26c-2,1.23-2.57,4.74-1.2,7.82,1.55,3.52,3.93,3.25,4.39,3.16a5.21,5.21,0,0,0,1.28-.64c.94-.56,2-1.19,2.83-.77a4.46,4.46,0,0,1,.94.68,6.18,6.18,0,0,0,4.64,1.64c1.58,0,9.78-.48,16.2-8.68l.23.18c-5,6.44-11.79,8.76-16.42,8.8Z"/>
        </g>
        <path class="fabf133d-81ef-4b5d-9b0d-94d3d9dc218c" d="M37.46,84.31a5.49,5.49,0,0,0-2.84-.63l0-.3a4.22,4.22,0,0,1,1.15.06A3.39,3.39,0,0,1,37.46,84.31Z"/>
        <g>
          <path class="bb17dde9-f6ee-4754-b722-9efda2ea8deb" d="M54.47,75.27a19.23,19.23,0,0,1,4.33,3.86Q59.15,75.16,54.47,75.27Z"/>
          <path class="fabf133d-81ef-4b5d-9b0d-94d3d9dc218c" d="M58.8,79.13a19.55,19.55,0,0,0-4.33-3.86A3.37,3.37,0,0,1,56,76c.6.48,1.24,1,1.78,1.57A4.11,4.11,0,0,1,58.8,79.13Z"/>
        </g>
        <path class="fabf133d-81ef-4b5d-9b0d-94d3d9dc218c" d="M35.06,88a4.08,4.08,0,0,0-.94-1.28,2.12,2.12,0,0,1,1,.8c.12.2.18.34.19.35Z"/>
        <path class="fabf133d-81ef-4b5d-9b0d-94d3d9dc218c" d="M51.67,92.85l-.18-.24a2.92,2.92,0,0,1,.37-.24,3.44,3.44,0,0,1,1.66-.46A7.52,7.52,0,0,0,51.67,92.85Z"/>
        <g>
          <path class="a5ec9465-1104-434b-af5a-280bcb71d2bf" d="M38.54,56a15.65,15.65,0,0,1-5.22,10.41c-2.78,2.67-8,6.06-5.19,8.9C34.42,69.77,41.83,64.61,38.54,56Z"/>
          <path class="a90436ee-d8b3-4cef-b4f0-e44060df02e3" d="M38.54,56a15.65,15.65,0,0,1-5.22,10.41c-2.78,2.67-8,6.06-5.19,8.9C26,69.63,39.93,66.51,38.54,56Z"/>
          <path class="fcd32458-4039-4663-a47d-cb430f747ee1" d="M28,75.4a2.64,2.64,0,0,1-.87-2c.07-1.9,2.35-3.88,4.37-5.63.61-.54,1.19-1,1.69-1.52,3.34-3.21,5-6.5,5.32-10.35a4.89,4.89,0,0,1,0,2.28,16.63,16.63,0,0,1-5.07,8.29c-.5.48-1.08,1-1.7,1.52-2,1.71-4.2,3.65-4.26,5.42a2.29,2.29,0,0,0,.78,1.75Z"/>
        </g>
        <g>
          <path class="e190fd4e-8872-40d5-9edb-9664eb0022c5" d="M27.35,74.31c.14-1.09,2.29-2,5.24-2.06,3.51,0,6.93,2.07,6.7,3-.45,1.73-4.7,5.49-6.53,5.34C31.13,80.43,27.12,76.06,27.35,74.31Z"/>
          <path class="b983bde2-f872-4f10-b068-b061c4eaa50b" d="M33.69,73.27c0,.35-.85.69-2,.76s-2-.17-2-.52.86-.69,2-.76S33.67,72.92,33.69,73.27Z"/>
          <path class="ab49bd16-00b9-495e-a92e-2d87caff766f" d="M27.35,74.31c2.08,4.4,10.38,3.38,11.94.91-.45,1.73-4.7,5.49-6.53,5.34C31.13,80.43,27.12,76.06,27.35,74.31Z"/>
          <path d="M32.86,80.71h-.11c-1-.08-2.76-1.62-3.95-3.1-.53-.65-1.74-2.27-1.6-3.32h0c.17-1.23,2.48-2.18,5.38-2.19h0c2.9,0,5.78,1.43,6.59,2.46a.83.83,0,0,1,.22.7C39,77,34.79,80.71,32.86,80.71ZM27.5,74.33c-.09.65.48,1.8,1.53,3.09,1.32,1.64,2.93,2.93,3.74,3h.1c1.8,0,5.85-3.59,6.27-5.24a.57.57,0,0,0-.17-.44c-.76-1-3.54-2.34-6.35-2.34h0c-3,0-5,1-5.09,1.93Z"/>
        </g>
        <path class="fabf133d-81ef-4b5d-9b0d-94d3d9dc218c" d="M44.23,75.78,44,75.55c3.64-2.87,13.41-5.33,21.72-3.67a8.72,8.72,0,0,1,3.35,1.25C60.35,69.84,48.33,72.54,44.23,75.78Z"/>
        <path class="fabf133d-81ef-4b5d-9b0d-94d3d9dc218c" d="M68.12,85.36c-5.94-3.64-18.18-6.88-25.64-5.77l0-.29c6-.89,15,1,21.45,3.63A16.12,16.12,0,0,1,68.12,85.36Z"/>
        <path class="fabf133d-81ef-4b5d-9b0d-94d3d9dc218c" d="M55.23,91.06c-2.08-1.91-10.62-8.16-15.41-9.54l.08-.29c3.46,1,8.83,4.49,12.38,7.11A13.88,13.88,0,0,1,55.23,91.06Z"/>
        <path class="fabf133d-81ef-4b5d-9b0d-94d3d9dc218c" d="M22.05,98.18a11.29,11.29,0,0,1,.74-3.45,30.29,30.29,0,0,1,9-12.64l.18.23C28.17,85.15,23.57,91.5,22.05,98.18Z"/>
        <path class="fabf133d-81ef-4b5d-9b0d-94d3d9dc218c" d="M10.59,92.34a12.11,12.11,0,0,1,2.58-3c4.75-4.09,12-7.92,16.5-8.5l0,.29C24.18,81.86,14.71,87.41,10.59,92.34Z"/>
        <path class="fabf133d-81ef-4b5d-9b0d-94d3d9dc218c" d="M27.26,77.81c-4.21-1.59-12.9-2.5-20.17-1.26a16.85,16.85,0,0,1,4.05-.76c6.26-.42,12.75.43,16.22,1.74Z"/>
        <g>
          <path class="b46ea675-2638-4073-abc7-2d5d88f370b3" d="M58.28,46.15c1-1.19,6.48-3,10.89,5.67C66.49,39.9,58.93,42.57,58.28,46.15Z"/>
          <path class="aa0db5f0-239c-48fc-82ba-21af9a831709" d="M58.28,46.15c1-1.19,6.48-3,10.89,5.67C65.68,42.42,59.82,43.26,58.28,46.15Z"/>
          <path class="b145ed52-cbf5-4acc-a3b1-86235e53ddb8" d="M69.57,53,69,51.89c-2.56-5.08-5.4-6.39-7.33-6.59a4,4,0,0,0-3.3.94l-.37.45.11-.57a4.17,4.17,0,0,1,4-3.15c1.54,0,5.32.76,7.13,8.82Zm-8.43-8,.6,0c1.86.19,4.52,1.37,7,5.7-1.84-6.78-5.16-7.47-6.56-7.44a4,4,0,0,0-3.63,2.44A4.62,4.62,0,0,1,61.14,45Z"/>
        </g>
        <g>
          <path class="b46ea675-2638-4073-abc7-2d5d88f370b3" d="M30.19,49.92c2-3.8,5.1-6.8,7.65-4.25C37.37,40.12,31.14,43.49,30.19,49.92Z"/>
          <path class="aa0db5f0-239c-48fc-82ba-21af9a831709" d="M30.19,49.92c2-3.8,5.1-6.8,7.65-4.25C36.64,42.2,32,43.93,30.19,49.92Z"/>
          <path class="b145ed52-cbf5-4acc-a3b1-86235e53ddb8" d="M29.91,50.78,30,49.9c.62-4.19,3.53-7.24,5.72-7.18,1.26,0,2.07,1.11,2.22,2.93l0,.41-.29-.29a2.64,2.64,0,0,0-2.34-.87c-1.66.25-3.55,2.16-5.07,5.09ZM35.68,43c-1.89,0-4.33,2.48-5.17,6,1.48-2.54,3.25-4.17,4.83-4.41a2.8,2.8,0,0,1,2.3.68c-.2-1.44-.87-2.24-1.89-2.27Z"/>
        </g>
      </g>
    </g>
  </g>
</svg>
