<svg id="a808b87d-623a-438d-98ab-234fca0661f4" data-name="Layer 1" xmlns="http://www.w3.org/2000/svg" xmlns:xlink="http://www.w3.org/1999/xlink" width="233.14" height="147.99" viewBox="0 0 233.14 147.99">
  <defs>
    <style>
      .fae4f75a-354b-4279-b3d0-f5250e4bd98c {
        opacity: 0.5;
      }

      .aefeef7d-80d3-4d4f-b6d0-d416036232ab {
        fill: #fff4e6;
      }

      .b8e20245-e385-4949-94f8-c034e8b6310c {
        fill: #2828ea;
      }

      .beb07737-211a-4f80-9377-36f302c6b782 {
        fill: url(#b5b15dbf-5c77-428d-a954-0255c1adb925);
      }

      .e58e57c6-34d0-48ad-9518-45fbe052c947 {
        fill: #1d1dd8;
      }

      .b0b1cefc-21d7-4a3f-b2be-5a9be18ff72a {
        fill: #4949f2;
      }
    </style>
    <linearGradient id="b5b15dbf-5c77-428d-a954-0255c1adb925" x1="1718.24" y1="26.2" x2="1867.95" y2="26.2" gradientTransform="matrix(-1, 0, 0, 1, 1886.73, 0)" gradientUnits="userSpaceOnUse">
      <stop offset="0" stop-color="#e5ccb1"/>
      <stop offset="1" stop-color="#f2dabb"/>
    </linearGradient>
  </defs>
  <g>
    <path class="fae4f75a-354b-4279-b3d0-f5250e4bd98c" d="M98.53,145.83a190.43,190.43,0,0,1-43-5.2l-.33-.08c-3.71-1-6.62-4.75-8-8.74a35.13,35.13,0,0,1-5.58-4.91l-.39-.4C12.55,99.63,8.36,65.84,8.4,48.09A92.69,92.69,0,0,1,9.83,31q.06-.3.15-.6c1.88-7.93,11.16-13.56,29-17.66,14.8-3.39,34.42-5.38,55.23-5.6h.47l3.92,0,3.21,0h.34l3.22,0,1.33,0c8.87.2,17.45.72,25.49,1.54,14.67,1.48,27.27,3.89,36.42,7,4,1.36,15.23,5.12,18.25,13.3a7.86,7.86,0,0,1,.81,2.83c0,.07.09.9.17,2.35a36.45,36.45,0,0,1,9-1.13,34,34,0,0,1,9.79,1.41c11.6,3.49,20.71,13.56,22.65,25.07,2.05,12.13-3.63,25.43-14.82,34.7-9.19,7.61-20.4,11.66-30.29,15.23L163,117.19c-1.47,1.6-3,3.19-4.65,4.73a111,111,0,0,1-10.38,8.79,14.65,14.65,0,0,1-3.51,6.27,10.16,10.16,0,0,1-3.89,2.65c-2.85,1.08-17.63,6.2-41.65,6.2Zm85.09-69.31q-.93,3.66-2.06,7.17a57,57,0,0,0,7.25-3c4.1-2,8.69-4.6,11.63-8.11,2.36-2.83,3.39-6.28,2.63-8.79a4.36,4.36,0,0,0-3.44-2.9,1,1,0,0,0-.3,0c-1.61.46-3.62,3.26-5.39,5.73l-.41.57C191.31,70.36,188.1,74.24,183.62,76.52Z"/>
    <path class="aefeef7d-80d3-4d4f-b6d0-d416036232ab" d="M93.53,140.83a190.43,190.43,0,0,1-43-5.2l-.33-.08c-3.71-1-6.62-4.75-8-8.74a35.13,35.13,0,0,1-5.58-4.91l-.39-.4C7.55,94.63,3.36,60.84,3.4,43.09A92.69,92.69,0,0,1,4.83,26q.06-.3.15-.6C6.86,17.5,16.14,11.87,34,7.77c14.8-3.39,34.42-5.38,55.23-5.6h.47l3.92,0,3.21,0h.34l3.22.05,1.33,0c8.87.2,17.45.72,25.49,1.54,14.67,1.48,27.27,3.89,36.42,7,4,1.36,15.23,5.12,18.25,13.3a7.86,7.86,0,0,1,.81,2.83c0,.07.09.9.17,2.35a36.45,36.45,0,0,1,9-1.13,34,34,0,0,1,9.79,1.41c11.6,3.49,20.71,13.56,22.65,25.07,2.05,12.13-3.63,25.43-14.82,34.7-9.19,7.61-20.4,11.66-30.29,15.23L158,112.19c-1.47,1.6-3,3.19-4.65,4.73a111,111,0,0,1-10.38,8.79,14.65,14.65,0,0,1-3.51,6.27,10.16,10.16,0,0,1-3.89,2.65c-2.85,1.08-17.63,6.2-41.65,6.2Zm85.09-69.31q-.93,3.66-2.06,7.17a57,57,0,0,0,7.25-3c4.1-2,8.69-4.6,11.63-8.11,2.36-2.83,3.39-6.28,2.63-8.79a4.36,4.36,0,0,0-3.44-2.9,1,1,0,0,0-.3,0c-1.61.46-3.62,3.26-5.39,5.73l-.41.57C186.31,65.36,183.1,69.24,178.62,71.52Z"/>
    <g>
      <path class="b8e20245-e385-4949-94f8-c034e8b6310c" d="M152.6,105.62a87.45,87.45,0,0,0,9.53-15.44c8.88-1.33,17.54-3.46,25.24-7.29,5.25-2.61,10.45-5.65,14.2-10.14s5.85-10.68,4.15-16.26-7.93-9.82-13.58-8.22c-4.51,1.29-7.38,5.53-10.1,9.32s-6.57,8-11.5,7.86a139.07,139.07,0,0,0,3-22.76,28.62,28.62,0,0,1,25.87-5.51c8.56,2.57,15.59,10,17.06,18.74,1.73,10.22-4,20.55-12,27.2S186.32,93.44,176.5,97L152,105.84"/>
      <path class="beb07737-211a-4f80-9377-36f302c6b782" d="M161.55,19.29c-11.9-5.39-37.84-9.13-67.91-9.13-41.34,0-74.86,7.06-74.86,15.77,0,2.68,3.13,5.3,8.75,7.4,33.08,12.4,101.59,11.09,130.14.77,3.22-1.16,10.82-5.18,10.82-8.17C168.49,23.56,166,21.31,161.55,19.29Z"/>
      <path class="b8e20245-e385-4949-94f8-c034e8b6310c" d="M159.92,96.26c18.45-31.13,14.83-68.62,14.83-68.62,0,8.35-37,18.26-81.48,18.26s-80.6-6.26-80.6-18.18c0,0-10.5,50.89,29,88a29.37,29.37,0,0,0,7.53,6.11c.07,2.77,2.19,5.78,3.13,6,45.83,10.72,75.6,1.11,80.37-.71,1.53-.54,2.46-3.59,2.68-5.82C145.29,114.36,154.48,105.43,159.92,96.26Z"/>
      <path class="e58e57c6-34d0-48ad-9518-45fbe052c947" d="M184.93,37a27.29,27.29,0,0,0-6.85,6.5,55.72,55.72,0,0,0-5.16,8.59c.39-3.4.64-6.59.77-9.43A29.13,29.13,0,0,1,184.93,37Z"/>
      <path class="e58e57c6-34d0-48ad-9518-45fbe052c947" d="M163.45,90a74,74,0,0,0,10-1.92c-5.34,5-9.84,7.56-16.17,11.75C159.6,96.33,161.67,93.68,163.45,90Z"/>
      <path class="b0b1cefc-21d7-4a3f-b2be-5a9be18ff72a" d="M12.67,27.64c0,2.55,1.65,4.83,4.67,6.85-1.1,11.63-3.82,57.8,31.85,87.31a28.85,28.85,0,0,1-7.53-6.19C2.17,78.53,12.67,27.64,12.67,27.64Z"/>
      <path class="e58e57c6-34d0-48ad-9518-45fbe052c947" d="M135.06,123.29c-.44,1.75-1.22,3.45-2.33,3.84-4.77,1.82-34.54,11.43-80.37.71-.61-.17-1.7-1.49-2.42-3.15C95.17,134.67,121.51,128.81,135.06,123.29Z"/>
      <path class="b0b1cefc-21d7-4a3f-b2be-5a9be18ff72a" d="M45,118.09s11.76,8.3,36.79,7.31c0,0-18.88,2.95-32.59-3.6Z"/>
      <path class="e58e57c6-34d0-48ad-9518-45fbe052c947" d="M147.21,41h0c15.24-3.26,25.43-7.62,27.23-11.75a5.37,5.37,0,0,0,.36-.66c.35,4.77,2,36.59-13,64.65-.48.89-1,1.77-1.5,2.65-5.43,9.17-14.62,18.1-24.54,25-.23,2.22-1.15,5.27-2.69,5.82-2.4.92-11.15,3.81-25.09,5.08C162.39,104.86,147.21,41,147.21,41Z"/>
      <path class="e58e57c6-34d0-48ad-9518-45fbe052c947" d="M214.49,57.18a31.06,31.06,0,0,0-7.41-16.06,23.77,23.77,0,0,1,9.23,14.72c1.15,6.79-1,13.62-4.93,19.39A31.07,31.07,0,0,0,214.49,57.18Z"/>
      <path class="b0b1cefc-21d7-4a3f-b2be-5a9be18ff72a" d="M36.81,41.34s-4,16.33,2.6,42c0,0-9.86-14.26-10-43.68Z"/>
      <path class="aefeef7d-80d3-4d4f-b6d0-d416036232ab" d="M89.34,10.17c-39.1.44-70.17,7.47-70.17,16.07,0,8.89,33.15,16.09,74.05,16.09s74.05-7.2,74.05-16.09c0-8.6-31.07-15.63-70.17-16.07,42.72.46,77.56,8.42,77.56,18.17,0,8.34-36.92,18.16-81.44,18.16S12.61,40.25,12.61,28.33C12.61,18.58,46.62,10.63,89.34,10.17Z"/>
    </g>
  </g>
</svg>
