<svg id="e37bd82c-be07-4e42-a875-8de10cac1490" data-name="Layer 1" xmlns="http://www.w3.org/2000/svg" width="142.62" height="279.5" viewBox="0 0 142.62 279.5">
  <defs>
    <style>
      .e98668f4-1a77-4193-80a2-e230e2483755 {
        opacity: 0.5;
      }

      .abc2684b-bf15-47fc-8e9f-da482e890534 {
        fill: #fff;
      }

      .e77c59b8-d60d-49b0-8e42-1ab11c60d3bc {
        fill: #3b3d4c;
      }

      .a907f649-6d2f-4455-827d-b13686e10346 {
        fill: #6c6e7a;
      }

      .a6aeac4d-059e-4067-9a4c-478648c97437 {
        fill: #323444;
      }

      .b65bad46-6f1d-46c5-84b7-cdf40d7dec89 {
        fill: #1c1d26;
      }

      .b1b0e96f-49ea-4ea5-a875-d51d04bb9754 {
        fill: #efb0a8;
      }

      .bd8334c7-dec4-4118-8e62-b4e34e995fb4 {
        fill: #f9d5d2;
      }

      .aa1d2a9e-0df8-49e7-bdcc-24525caf1ca4 {
        fill: #d38484;
      }

      .b20951e1-8620-4c87-9582-e8937292fa49 {
        fill: #824949;
      }

      .ed002b6c-14eb-478d-ade6-c5f5cc766d57 {
        fill: #ebf6f7;
      }

      .b005d541-41bb-4ae9-b204-692ff7b0ac82 {
        fill: #b4d3d2;
      }

      .a19595fd-de42-4a17-b55d-e74720d5e1c9 {
        fill: #6f7070;
      }

      .bead600c-03f0-4fdb-ad33-c7182bfd4c4a, .e0099ebf-412e-4b3a-ad8a-ffeb01483559 {
        fill: #ededed;
      }

      .b1b432b5-9dd4-40fe-931b-9ec06f3986d8 {
        fill: #a56d0a;
      }

      .b3239a34-e0a1-4287-a183-6e1e46df09e8 {
        fill: #7c5009;
      }

      .bbf8777d-f226-4108-9439-a3a841dc8ba4 {
        fill: #632310;
      }

      .b639fa14-f560-41f8-9a40-57e7d2ee3994 {
        fill: #e8b831;
      }

      .a648ba24-4d13-46b9-8b96-082e431cd09a {
        fill: #bf8f17;
      }

      .aa8fbe7a-e208-4c80-bd4d-c00044825fb4 {
        fill: #ffe6a9;
      }

      .e7fd30a0-062e-44c1-9bab-698512a8b48c {
        fill: #723d04;
      }

      .a4919ee3-bcd8-4961-8eaa-4a341139e0e1 {
        fill: #724811;
      }

      .bead600c-03f0-4fdb-ad33-c7182bfd4c4a {
        opacity: 0.8;
      }
    </style>
  </defs>
  <g>
    <path class="e98668f4-1a77-4193-80a2-e230e2483755" d="M48.93,275.9a9.8,9.8,0,0,1-4.86-1.28c-4.6-2.61-6.4-9-5.72-14.58-.07-.27-.14-.55-.2-.83-1.11-5.33,1.23-10.63,6.1-13.82a23.56,23.56,0,0,0,3.31-2.61c.53-7.32,1.82-26.85,1.58-39.65-.93-1.28-1.94-2.75-2.94-4.18l-.68-1a44.74,44.74,0,0,1-9.49-7,32.15,32.15,0,0,1-11.15-6.26c-.26-.25-.51-.5-.76-.77-6.18-4.18-10-9.62-11.21-15.81l-.12-.71a13.76,13.76,0,0,1-3.38-11.75,17.13,17.13,0,0,1,.53-17.13,16.64,16.64,0,0,1,2.09-2.7,16.37,16.37,0,0,1,4.82-12.51,16.84,16.84,0,0,1,12-4.77,19.87,19.87,0,0,1,2.53.16A15.08,15.08,0,0,1,43,113.3a17.16,17.16,0,0,1,8.49,2.33,14.2,14.2,0,0,1,6.06-1.36,13.69,13.69,0,0,1,3.49.44,15,15,0,0,1,6.43,3.58c.3,0,.61,0,.92,0a13.27,13.27,0,0,1,6.11,1.5A14.16,14.16,0,0,1,80,125.13c.09-11.3-3.58-23.72-6.88-30.76a9.66,9.66,0,0,0-2.4-.89c-8.76-.38-27-1.15-30.21-17.81-1.55-8.11,2-14.85,7.21-19.16-.21-19.23,6.65-31.94,14.22-36.45a18,18,0,0,1,9-2.71A8.87,8.87,0,0,1,79,12.13a8.47,8.47,0,0,1,1.86.2c.19,0,.39.08.59.14a12.19,12.19,0,0,1,2.62-2.11,8.85,8.85,0,0,1,11.66,2.42,8.9,8.9,0,0,1,1.36,2.83,22.52,22.52,0,0,1,7-1.13,21.47,21.47,0,0,1,6.56,1c.29.1.58.21.85.33,14,6.13,18.59,24.47,20.07,34,4.72,3.15,8.89,8.35,9.23,15.54C141.56,82.73,129,87,118,88.78c-2.69.44-5.24,2.18-8.2,4.19l-.59.4c-.24,4,.56,9,1.65,15.74.23,1.44.47,2.92.71,4.48a212.68,212.68,0,0,1,2.48,22.48,13.08,13.08,0,0,1,2.23,2.86,13.31,13.31,0,0,1,1.77,5.5,13.46,13.46,0,0,1,1.76,3.36,32.73,32.73,0,0,1,3.74,4.9,32.12,32.12,0,0,1,4.75,20.81A27.86,27.86,0,0,1,104.46,197c-1.15.71-2.34,1.39-3.57,2A21.94,21.94,0,0,1,99,202.18c-.86,3.87-2.06,7.64-3.14,11-1,3.15-2.51,7.91-2.46,9.46.07,2.06.24,4.31.43,6.42h0c1.35-.13,2.5-.19,3.58-.2l.62,0a10.88,10.88,0,0,1,1.63.12,15.19,15.19,0,0,1,7.28,2.4,19.51,19.51,0,0,1,11.86,8.16,9.5,9.5,0,0,1,.09,10.15,9.68,9.68,0,0,1-2.58,2.73,9.64,9.64,0,0,1-3.24,8.4,11.68,11.68,0,0,1-7.95,2.54,21.94,21.94,0,0,1-3.65-.31,23.56,23.56,0,0,1-2.52-.56,15.16,15.16,0,0,1-2.44.19,18.07,18.07,0,0,1-7.12-1.54s0,0,0,.08c.85,5.83-1.46,9-3.54,10.67a11.27,11.27,0,0,1-7.15,2.24A20.36,20.36,0,0,1,68,271a12.94,12.94,0,0,1-4.44-2.43l-.16.12a13.22,13.22,0,0,1-2.79,1.57,21.21,21.21,0,0,1-5.76,4.08A13.75,13.75,0,0,1,48.93,275.9Z"/>
    <path class="abc2684b-bf15-47fc-8e9f-da482e890534" d="M43.4,270.36a9.79,9.79,0,0,1-4.86-1.27c-4.6-2.61-6.4-9-5.72-14.58-.08-.27-.14-.55-.2-.83a13.17,13.17,0,0,1,6.1-13.82A23.56,23.56,0,0,0,42,237.25c.53-7.32,1.82-26.86,1.58-39.65-.93-1.28-1.94-2.75-2.94-4.18l-.68-1a45.08,45.08,0,0,1-9.49-7,32.15,32.15,0,0,1-11.15-6.26c-.26-.25-.51-.5-.76-.77-6.18-4.18-10-9.62-11.21-15.81,0-.24-.09-.48-.12-.71a13.76,13.76,0,0,1-3.38-11.75A17.13,17.13,0,0,1,4.41,133a16.59,16.59,0,0,1,2.09-2.71,16.36,16.36,0,0,1,4.82-12.5,16.8,16.8,0,0,1,12-4.77,19.87,19.87,0,0,1,2.53.16,15.08,15.08,0,0,1,11.61-5.37,17.16,17.16,0,0,1,8.49,2.33,14.08,14.08,0,0,1,9.55-.93,15.15,15.15,0,0,1,6.43,3.59c.3,0,.61,0,.91,0a13.28,13.28,0,0,1,6.12,1.5,14.09,14.09,0,0,1,5.54,5.37c.09-11.3-3.58-23.72-6.88-30.76a9.81,9.81,0,0,0-2.4-.89c-8.76-.38-27-1.16-30.21-17.81C33.42,62,37,55.29,42.19,51,42,31.75,48.84,19,56.41,14.52a18.06,18.06,0,0,1,9-2.7A8.86,8.86,0,0,1,73.45,6.6a9.18,9.18,0,0,1,1.86.19l.59.15a12.4,12.4,0,0,1,2.61-2.11,8.86,8.86,0,0,1,13,5.25,22.52,22.52,0,0,1,7-1.13,21.47,21.47,0,0,1,6.56,1,8.78,8.78,0,0,1,.85.33c14,6.13,18.59,24.47,20.07,34,4.72,3.15,8.89,8.35,9.22,15.54.82,17.37-11.7,21.64-22.71,23.42-2.69.44-5.24,2.17-8.2,4.19l-.59.4c-.24,4,.56,9,1.64,15.74.24,1.44.47,2.92.72,4.48a212.38,212.38,0,0,1,2.48,22.48,13.08,13.08,0,0,1,2.23,2.86,13.31,13.31,0,0,1,1.77,5.5,13.46,13.46,0,0,1,1.76,3.36,32.73,32.73,0,0,1,3.74,4.9A32.12,32.12,0,0,1,122.8,168a27.86,27.86,0,0,1-23.87,23.5c-1.15.71-2.35,1.39-3.57,2a22.49,22.49,0,0,1-1.89,3.17c-.86,3.87-2.06,7.64-3.14,11-1,3.15-2.51,7.92-2.46,9.47.07,2.06.24,4.31.43,6.42h0c1.35-.13,2.5-.19,3.58-.2l.62,0a10.88,10.88,0,0,1,1.63.12,15.09,15.09,0,0,1,7.28,2.4A19.54,19.54,0,0,1,113.27,234a9.52,9.52,0,0,1,.09,10.16,9.68,9.68,0,0,1-2.58,2.73,9.63,9.63,0,0,1-3.25,8.4,11.64,11.64,0,0,1-7.94,2.54,23.33,23.33,0,0,1-6.17-.87,16.39,16.39,0,0,1-2.44.19,18.07,18.07,0,0,1-7.12-1.54s0,.05,0,.08c.85,5.83-1.46,9-3.54,10.67a11.27,11.27,0,0,1-7.15,2.24A20.36,20.36,0,0,1,62.5,265.5a12.79,12.79,0,0,1-4.44-2.44,1.09,1.09,0,0,1-.17.13,12.91,12.91,0,0,1-2.78,1.57,21.21,21.21,0,0,1-5.76,4.08A13.73,13.73,0,0,1,43.4,270.36Z"/>
    <g>
      <g>
        <path class="e77c59b8-d60d-49b0-8e42-1ab11c60d3bc" d="M90.85,139.41l.91.22c19.12,4.76,23,19.14,22,27.16s-9.32,17.53-22.1,15.59Z"/>
        <path class="a907f649-6d2f-4455-827d-b13686e10346" d="M90.91,142.48l-.06-3.07.91.22c11,2.75,18.58,9.81,20.79,17.23C109.35,151.27,106.75,145.32,90.91,142.48Z"/>
        <path class="a6aeac4d-059e-4067-9a4c-478648c97437" d="M91.76,139.63a39.06,39.06,0,0,1,6,2,9.38,9.38,0,0,0,.78,1.73C105.08,148,103,154.42,108.4,159c.82,2.72,4.33,4.18,5.12,1.12a21.28,21.28,0,0,1,.24,6.63c-1.06,8.15-9.32,17.53-22.1,15.59l-.81-43Z"/>
        <path class="b65bad46-6f1d-46c5-84b7-cdf40d7dec89" d="M91.62,182.64l-.23,0-.81-43.52.33.07.91.22c8.47,2.11,15,6.43,18.73,12.48a23.58,23.58,0,0,1,3.48,15A19.1,19.1,0,0,1,95,182.9,22.8,22.8,0,0,1,91.62,182.64Zm.3-.49a18.89,18.89,0,0,0,14.38-3.49,18.34,18.34,0,0,0,7.2-11.9,23,23,0,0,0-3.4-14.63C106.39,146.2,100,142,91.69,139.89l-.56-.14Z"/>
      </g>
      <g>
        <path class="b1b0e96f-49ea-4ea5-a875-d51d04bb9754" d="M85.52,185.57c.66,10.71-7,24.79-6.76,31.89S80.2,233.2,80.2,233.2c4.34,1.08,17.09-3.9,17.62,3-.26,9.72-3.09,10.47-3.09,10.47s-2.39,2.82-7.53.5-5.56-4.82-8.45-5.07-6.61-.58-7.49-2.74c-1,.91-2.3,1.68-3.81,1.1s-3.13-3.52-1.44-4.67c1.15-.75,4.24-1,4.24-1a42.9,42.9,0,0,0,.92-13.22c-.53-8.08-3.45-26.9-.13-35.12S85.52,185.57,85.52,185.57Z"/>
        <g>
          <path class="bd8334c7-dec4-4118-8e62-b4e34e995fb4" d="M78.15,215.28c.63-7.75,9.17-26.13,4.43-31.28a23.92,23.92,0,0,1,2.94,1.57c.66,10.71-7,24.79-6.76,31.89C79,224,80,231.86,80.18,233.05c-.17-.22-.23.79-.38.57A78.17,78.17,0,0,1,78.15,215.28Z"/>
          <path class="bd8334c7-dec4-4118-8e62-b4e34e995fb4" d="M80.46,233.39c.05.05-.09-.11-.13-.16,3.23.7,10.69-1.64,14.75-.38-5.75-.38-11.62,1.72-15.27.78C79.8,233.11,80,232.93,80.46,233.39Z"/>
        </g>
        <path class="aa1d2a9e-0df8-49e7-bdcc-24525caf1ca4" d="M66,235.78c1.15-.75,4.24-1,4.24-1a42.9,42.9,0,0,0,.92-13.22c-.53-8.08-3.45-26.9-.13-35.12,1.64-4.07,5.21-4.32,8.39-3.54-4.06,3.87-2.52,7.65-3.63,12.65-2.87,12.93-2.39,23.83-2.7,34.45a24.93,24.93,0,0,1-.62,5.19c-.55,3,2.27,4.13,3.49,4.17,6,.19,8.72,4.94,15.26,3.49,1.93-.36,2.6-1.76,3.75-3.57-4.64-2-14.88-.42-17.79-3.95,3.43,2.74,13.35,1.25,16.35.31A2.43,2.43,0,0,0,95,232.82a3.54,3.54,0,0,1,2.81,3.37c-.26,9.72-3.09,10.47-3.09,10.47s-2.39,2.82-7.53.5-5.56-4.82-8.45-5.07-6.61-.58-7.49-2.74c-1,.91-2.3,1.68-3.81,1.1S64.32,236.93,66,235.78Z"/>
        <path class="b20951e1-8620-4c87-9582-e8937292fa49" d="M87.08,247.38a19.17,19.17,0,0,1-5.06-3.3,5.58,5.58,0,0,0-3.29-1.74c-2.72-.23-6.39-.55-7.56-2.57a3.67,3.67,0,0,1-3.82.91,4.27,4.27,0,0,1-2.3-3.14,2,2,0,0,1,.81-2,12.25,12.25,0,0,1,4.17-1,43.85,43.85,0,0,0,.88-13c-.11-1.64-.32-3.7-.55-6.09-1-9.51-2.24-22.53.43-29.14a6,6,0,0,1,3.94-3.78c4.6-1.33,10.68,2.63,10.94,2.79l.1.07v.12c.38,6-1.89,13.17-3.88,19.45-1.53,4.82-3,9.37-2.87,12.46.22,6.46,1.25,14.29,1.41,15.54a22,22,0,0,0,5.94-.3c3.79-.48,8.09-1,10.28.64a3.81,3.81,0,0,1,1.43,2.86c-.25,9-2.71,10.46-3.21,10.67a5.44,5.44,0,0,1-3.9,1.45A9.51,9.51,0,0,1,87.08,247.38Zm-.63-14.18c-2.49.31-4.85.61-6.32.25l-.17,0,0-.16c0-.09-1.2-8.74-1.45-15.77-.11-3.16,1.29-7.54,2.9-12.61,2-6.2,4.2-13.22,3.87-19.15-.83-.52-6.34-3.83-10.38-2.67a5.51,5.51,0,0,0-3.59,3.49c-2.63,6.49-1.29,20-.4,28.92.23,2.39.44,4.45.55,6.1a43.49,43.49,0,0,1-.94,13.3l0,.17h-.19s-3,.25-4.1.95a1.48,1.48,0,0,0-.59,1.5,3.75,3.75,0,0,0,2,2.74c1.13.44,2.25.1,3.53-1.05l.28-.26.15.35c.83,2,4.55,2.35,7.27,2.58a6.09,6.09,0,0,1,3.6,1.88,18.78,18.78,0,0,0,4.94,3.21c4.87,2.21,7.1-.32,7.2-.42l0-.06.08,0s2.65-.93,2.91-10.21a3.25,3.25,0,0,0-1.24-2.48,7.19,7.19,0,0,0-4.31-1A44.79,44.79,0,0,0,86.45,233.2Z"/>
      </g>
      <g>
        <path class="e77c59b8-d60d-49b0-8e42-1ab11c60d3bc" d="M89,183.26s-.8,8.24-6.2,11.07S73.19,196,72,195.53c-3.55-1.3-10.19-9.43-10.19-9.43Z"/>
        <path class="b65bad46-6f1d-46c5-84b7-cdf40d7dec89" d="M71.88,195.77c-3.58-1.3-10-9.17-10.3-9.51l-.31-.38,28-2.92,0,.33c0,.34-.88,8.41-6.35,11.28a15.2,15.2,0,0,1-7.09,1.86A11.28,11.28,0,0,1,71.88,195.77Zm-9.57-9.46c1.36,1.61,6.75,7.87,9.75,9,1.47.54,5.46,1.51,10.59-1.19,4.61-2.41,5.8-9,6-10.53Z"/>
      </g>
      <g>
        <g>
          <g>
            <path class="ed002b6c-14eb-478d-ade6-c5f5cc766d57" d="M58.53,146.53c.93-.86,8.76-8.33,9.14-16.63.53-11.86-11.08-9.14-9.37-1.33C60.08,136.73,54.37,150.36,58.53,146.53Z"/>
            <path class="b005d541-41bb-4ae9-b204-692ff7b0ac82" d="M60.4,130.28a20.6,20.6,0,0,1-2.48,9.39c.59-3.58,1.1-7.79.38-11.1-.79-3.62,1.28-6.14,3.67-6.63C59.16,123,60.49,127.6,60.4,130.28Z"/>
            <path class="a19595fd-de42-4a17-b55d-e74720d5e1c9" d="M57.14,147.39c-.71-.4-.45-2.12.16-5.66.68-3.87,1.6-9.17.74-13.1a5.79,5.79,0,0,1,1.91-6,4.53,4.53,0,0,1,4.87-.51c1.27.66,3.35,2.56,3.11,7.84-.38,8.45-8.32,16-9.22,16.81h0a2.28,2.28,0,0,1-1.28.74A.59.59,0,0,1,57.14,147.39ZM60.28,123a5.27,5.27,0,0,0-1.72,5.51c.88,4-.05,9.4-.73,13.31-.4,2.29-.85,4.87-.44,5.1,0,0,.21.1,1-.59h0c.89-.81,8.68-8.21,9.05-16.45.17-3.64-.86-6.31-2.82-7.34a3.81,3.81,0,0,0-1.76-.43A4.14,4.14,0,0,0,60.28,123Z"/>
          </g>
          <path class="a19595fd-de42-4a17-b55d-e74720d5e1c9" d="M57.63,144.44c2.61-1.74,5-6.68,6-11.42.85-4.35-.18-6.2-.18-6.2.9,5.38-2.44,14.69-6.16,17.18Z"/>
        </g>
        <g>
          <g>
            <path class="ed002b6c-14eb-478d-ade6-c5f5cc766d57" d="M52.58,148.94c.88-1.31,8.17-12.66,6.27-22.75-2.71-14.4-15.88-7.59-11.63,1.26C51.67,136.71,48.67,154.8,52.58,148.94Z"/>
            <path class="b005d541-41bb-4ae9-b204-692ff7b0ac82" d="M49.72,118.39c-1.51,1.47-2.52,3.55-.42,6.12,3.07,5,3.94,12.74,1.92,16.54a2.51,2.51,0,0,1-1.24.83c-.3-4.68-.82-10.39-2.76-14.43S47,119.72,49.72,118.39Z"/>
            <path class="a19595fd-de42-4a17-b55d-e74720d5e1c9" d="M51.17,150.33c-.93-.25-1.09-2.38-1.35-6.79-.29-4.85-.68-11.49-2.83-16a7.14,7.14,0,0,1,.61-7.82,5.55,5.55,0,0,1,5.68-2c1.67.42,4.64,2.08,5.83,8.39,1.93,10.23-5.46,21.68-6.31,23h0c-.57.86-1,1.26-1.45,1.26Zm1.19-1.54c.84-1.25,8.12-12.53,6.23-22.55-1.13-6-3.9-7.58-5.44-8A5,5,0,0,0,48,120.09a6.66,6.66,0,0,0-.55,7.25c2.2,4.57,2.6,11.28,2.89,16.17.18,3,.36,6.14,1,6.3,0,0,.34,0,1-1Z"/>
          </g>
          <path class="a19595fd-de42-4a17-b55d-e74720d5e1c9" d="M50.87,146.66c3-3.31,4.57-11.66,3.84-18.18A8.58,8.58,0,0,0,53,123.75c2.62,6.19,1.23,18.42-2.55,22.56Z"/>
        </g>
        <g>
          <g>
            <path class="ed002b6c-14eb-478d-ade6-c5f5cc766d57" d="M51.6,144.39c.09-1.68.63-16-6.65-23.57-10.4-10.74-18.87,3.38-10.08,8.37C44.06,134.39,51.19,151.9,51.6,144.39Z"/>
            <path class="b005d541-41bb-4ae9-b204-692ff7b0ac82" d="M33.4,118.39c-.16.67-2.43,3.81.51,5.83,5,3.18,10.77,8.37,12.69,16.45a2.11,2.11,0,0,0-.65.1c-2.92-4-6.78-9.14-11.08-11.58C31,127,29.61,122.52,33.4,118.39Z"/>
            <path class="a19595fd-de42-4a17-b55d-e74720d5e1c9" d="M46.11,141.44c-2.93-4-6.93-9.5-11.37-12a6.89,6.89,0,0,1-3.78-6.7A6.65,6.65,0,0,1,35.27,117c1.76-.62,5.38-1,9.87,3.65,7.39,7.63,6.82,22.14,6.73,23.77h0c-.07,1.28-.33,1.92-.84,2.07a.83.83,0,0,1-.22,0C49.85,146.5,48.55,144.78,46.11,141.44Zm5.23,2.93c.09-1.6.65-15.9-6.58-23.37-4.28-4.42-7.67-4.1-9.31-3.52a6.12,6.12,0,0,0-4,5.29A6.38,6.38,0,0,0,35,129c4.54,2.57,8.58,8.11,11.54,12.16,1.8,2.48,3.67,5,4.34,4.84.11,0,.38-.26.46-1.59Z"/>
          </g>
          <path class="a19595fd-de42-4a17-b55d-e74720d5e1c9" d="M48.75,143.52c.93-4.46-1.77-11.9-5.61-17.08a11.68,11.68,0,0,0-4.9-4.11c5.82,3.71,11.23,15.14,10,21.08Z"/>
        </g>
        <g>
          <g>
            <path class="ed002b6c-14eb-478d-ade6-c5f5cc766d57" d="M43.87,142.68c3.07-4.57-5.57-15.71-15.49-19.53-14.16-5.45-16.89,12.09-6.49,12.76C32.75,136.62,39.39,149.34,43.87,142.68Z"/>
            <path class="b005d541-41bb-4ae9-b204-692ff7b0ac82" d="M20,122.72c-4,2.27-3.72,9,1.23,9.29,3.09.17,16.86,3.59,19.89,12.58-4.36.43-10.4-8.11-19.24-8.68C14.06,135.4,13.68,125.33,20,122.72Z"/>
            <path class="a19595fd-de42-4a17-b55d-e74720d5e1c9" d="M34.14,141.6c-3.3-2.28-7.4-5.11-12.27-5.42a6.6,6.6,0,0,1-6.08-4.24,7.56,7.56,0,0,1,1.75-7.9c1.45-1.44,4.8-3.5,10.94-1.13,7.81,3,14.32,10.2,15.88,15.15a5.46,5.46,0,0,1-.27,4.77h0a4.16,4.16,0,0,1-2.64,2,3.39,3.39,0,0,1-.64.06C38.87,144.87,36.66,143.34,34.14,141.6Zm9.51.94a5,5,0,0,0,.21-4.32c-1.53-4.83-7.91-11.87-15.57-14.82-5.86-2.25-9-.33-10.37,1a7,7,0,0,0-1.63,7.34,6.09,6.09,0,0,0,5.62,3.9c5,.32,9.18,3.2,12.53,5.51,2.7,1.87,5,3.48,6.91,3.13a3.69,3.69,0,0,0,2.3-1.75Z"/>
          </g>
          <path class="a19595fd-de42-4a17-b55d-e74720d5e1c9" d="M42.62,143.86l.52-.09c-.74-4.29-5.88-9.77-11.42-13.07a15.83,15.83,0,0,0-7.47-2.29C31.44,129.28,41.57,137.79,42.62,143.86Z"/>
        </g>
        <g>
          <g>
            <path class="ed002b6c-14eb-478d-ade6-c5f5cc766d57" d="M41.5,150c2.2-5.42-8.42-14.63-18.94-16.08-15-2.07-14.48,16.45-4.07,14.59C29.37,146.59,38.29,157.92,41.5,150Z"/>
            <path class="b005d541-41bb-4ae9-b204-692ff7b0ac82" d="M12.8,136.87c-3,5.15,1.16,9.32,4.43,7.57,6.8-2.56,16.23,0,24.49,4.77a4.61,4.61,0,0,1-.22.83c-3.21,7.88-12.13-3.45-23-1.49C11.37,149.82,8.87,141.56,12.8,136.87Z"/>
            <path class="a19595fd-de42-4a17-b55d-e74720d5e1c9" d="M31.67,151.31c-3.68-1.5-8.26-3.38-13.13-2.5a6.3,6.3,0,0,1-6.62-2.52,8.19,8.19,0,0,1,0-8.66c1.16-1.86,4.08-4.84,10.68-3.93,8.08,1.11,15.66,6.55,18.33,11.16,1.14,2,1.42,3.8.81,5.28h0a4.51,4.51,0,0,1-2.33,2.69,3.92,3.92,0,0,1-1.57.3C36.1,153.13,34,152.27,31.67,151.31Zm-19.29-13.4a7.62,7.62,0,0,0,0,8.08,5.68,5.68,0,0,0,6.08,2.29c5-.9,9.69,1,13.43,2.54,3,1.22,5.55,2.28,7.33,1.52a4,4,0,0,0,2-2.4h0c.54-1.33.27-3-.78-4.81-2.6-4.5-10-9.82-17.94-10.91a17,17,0,0,0-2.27-.16C15.54,134.06,13.32,136.39,12.38,137.91Z"/>
          </g>
          <path class="a19595fd-de42-4a17-b55d-e74720d5e1c9" d="M40.47,151.5l.52-.13c-1.58-6.31-8.71-9.31-15.24-10.28a19.91,19.91,0,0,0-7.75.33C24.75,140.6,38.28,142.71,40.47,151.5Z"/>
        </g>
        <g>
          <g>
            <path class="ed002b6c-14eb-478d-ade6-c5f5cc766d57" d="M39.3,152.59c.38-4.24-10.21-8.76-18.67-7-12.56,2.59-8.26,14.82.43,11C29.11,153,38.75,158.75,39.3,152.59Z"/>
            <path class="b005d541-41bb-4ae9-b204-692ff7b0ac82" d="M13,151a3.89,3.89,0,0,0,2,3.49c5.49,2,16-3.49,24.09-1.07-1.39,4.73-10.45-.23-18.08,3.13C15.55,159,11.8,155,13,151Z"/>
            <path class="a19595fd-de42-4a17-b55d-e74720d5e1c9" d="M14.27,156.33a5,5,0,0,1-1.59-5.13c.73-2.85,3.61-5,7.9-5.88,6.47-1.34,14,1,17.21,3.84a4.32,4.32,0,0,1,1.78,3.45c-.33,3.66-3.58,3.43-7.7,3.15-3.19-.22-7.15-.5-10.7,1.06a8.34,8.34,0,0,1-3.34.76A5.39,5.39,0,0,1,14.27,156.33Zm17.64-1.1c4,.27,6.85.47,7.13-2.66h0a3.85,3.85,0,0,0-1.6-3c-3.14-2.8-10.44-5-16.75-3.71-4.09.84-6.82,2.84-7.49,5.5a4.49,4.49,0,0,0,1.41,4.58c1.58,1.34,3.89,1.49,6.34.42A17.46,17.46,0,0,1,28,155.05C29.4,155.05,30.71,155.14,31.91,155.23Z"/>
          </g>
          <path class="a19595fd-de42-4a17-b55d-e74720d5e1c9" d="M38.83,153.87l.44-.3c-3-4.38-10.15-4.63-15.71-3.6a10.77,10.77,0,0,0-4.62,1.85C24.84,149.42,35.32,148.78,38.83,153.87Z"/>
        </g>
      </g>
      <g>
        <path class="e77c59b8-d60d-49b0-8e42-1ab11c60d3bc" d="M29.11,161.91c0,15.8,17.76,28.61,39.67,28.61s38.91-12.83,39.67-28.61c.89-18.5-17.76-28.62-39.67-28.62S29.11,146.1,29.11,161.91Z"/>
        <path class="a907f649-6d2f-4455-827d-b13686e10346" d="M71.3,134.52c-7.77-.46-16.86.43-29,6a49.06,49.06,0,0,1,26.44-7.28c.67,0,1.33,0,2,0C87.82,134.42,80.51,135.63,71.3,134.52Z"/>
        <g>
          <path class="a6aeac4d-059e-4067-9a4c-478648c97437" d="M29.11,161.91a21.79,21.79,0,0,1,2.61-10.24c-.76,13,7.38,21.69,18.63,26.38A41.55,41.55,0,0,1,60.53,189.9C42.58,187.16,29.11,175.67,29.11,161.91Z"/>
          <path class="a6aeac4d-059e-4067-9a4c-478648c97437" d="M80.56,182c14.23-1.72,25.85-8.72,27.89-20.12-.76,15.78-17.76,28.61-39.67,28.61-1.18,0-2.33-.59-3.49-.66,1.16-.21,2.91-2.6,6.09-4.7A21.34,21.34,0,0,1,80.56,182Z"/>
        </g>
        <path class="b65bad46-6f1d-46c5-84b7-cdf40d7dec89" d="M28.84,161.91C28.84,146,46.76,133,68.78,133c14.3,0,26.52,4.22,33.53,11.58a22.64,22.64,0,0,1,6.41,17.32c-.78,16.19-18.32,28.87-39.94,28.87C46.76,190.79,28.84,177.83,28.84,161.91Zm.53,0c0,15.63,17.68,28.35,39.41,28.35,21.33,0,38.64-12.46,39.4-28.37A22.12,22.12,0,0,0,101.92,145c-6.91-7.25-19-11.41-33.14-11.41C47.05,133.55,29.37,146.27,29.37,161.91Z"/>
      </g>
      <g>
        <g>
          <path class="ed002b6c-14eb-478d-ade6-c5f5cc766d57" d="M94,142c-1.11-2.13,1.71-5.54,5.05-6,4.78-.59,5.94,6.57,2.39,5.7C97.69,140.84,95.58,145.1,94,142Z"/>
          <path class="b005d541-41bb-4ae9-b204-692ff7b0ac82" d="M102.2,138c-1.73-2.42-4.19-1.09-6.39-.52a6.59,6.59,0,0,1,3.2-1.38c4.78-.59,5.94,6.57,2.39,5.7l-.14,0C103.2,141.49,103.36,139.7,102.2,138Z"/>
          <path class="a19595fd-de42-4a17-b55d-e74720d5e1c9" d="M93.73,142.13h0a3,3,0,0,1,.19-2.88A7,7,0,0,1,99,135.79a4,4,0,0,1,4.15,2.05,3.49,3.49,0,0,1,.19,3.6,1.81,1.81,0,0,1-2,.57,5.64,5.64,0,0,0-4,.77,6.71,6.71,0,0,1-1.59.61C95,143.51,94.32,143.26,93.73,142.13Zm7.73-.64a1.3,1.3,0,0,0,1.43-.37,3,3,0,0,0-.22-3,3.55,3.55,0,0,0-3.62-1.79,6.41,6.41,0,0,0-4.66,3.17,2.53,2.53,0,0,0-.19,2.39h0c.76,1.46,1.52,1.09,2.91.42a8.81,8.81,0,0,1,2.43-.88A4.66,4.66,0,0,1,101.46,141.49Z"/>
        </g>
        <path class="a19595fd-de42-4a17-b55d-e74720d5e1c9" d="M94.58,142.59a3.61,3.61,0,0,1,1.6-2.35,5.91,5.91,0,0,1,4.29-1.17,5.25,5.25,0,0,0-4.6.74,4.14,4.14,0,0,0-1.82,2.71Z"/>
      </g>
      <g>
        <g>
          <path class="ed002b6c-14eb-478d-ade6-c5f5cc766d57" d="M94.78,145.26c.32-2.77,5.24-4.2,8.72-2.41,5,2.55,1.41,10.16-1.43,7S94.31,149.27,94.78,145.26Z"/>
          <path class="b005d541-41bb-4ae9-b204-692ff7b0ac82" d="M102.61,143.15a10.07,10.07,0,0,0-6.1-.2,7.69,7.69,0,0,1,7-.1c3.78,1.94,2.62,6.81.6,7.64C106.1,148.12,106,144.2,102.61,143.15Z"/>
          <path class="a19595fd-de42-4a17-b55d-e74720d5e1c9" d="M101.87,150a6.58,6.58,0,0,0-4.35-1.88c-1.69-.25-3.29-.49-3-2.93h0a3.52,3.52,0,0,1,2-2.61,8,8,0,0,1,7.06,0,4.63,4.63,0,0,1,2.61,4.64c-.12,1.66-1,3.15-2.14,3.53a1.71,1.71,0,0,1-.49.1A2.21,2.21,0,0,1,101.87,150Zm-5.06-6.95a3,3,0,0,0-1.77,2.2c-.22,1.93.82,2.09,2.56,2.34a7.14,7.14,0,0,1,4.67,2.06,1.53,1.53,0,0,0,1.65.59,3.53,3.53,0,0,0,1.78-3.07,4.16,4.16,0,0,0-2.32-4.13,7.5,7.5,0,0,0-3.7-.75A7,7,0,0,0,96.81,143.09Z"/>
        </g>
        <path class="a19595fd-de42-4a17-b55d-e74720d5e1c9" d="M103,146.66s-1.15-1.91-4.92-2.22a4.72,4.72,0,0,0-3.48,1.4l.4.35a4.18,4.18,0,0,1,3.1-1.22A6.89,6.89,0,0,1,103,146.66Z"/>
      </g>
      <g>
        <g>
          <path class="ed002b6c-14eb-478d-ade6-c5f5cc766d57" d="M95.49,148.19c2.05-2.17,7.91.41,10.28,4.69,3.4,6.11-5,10-5.83,5C99,152.72,92.5,151.35,95.49,148.19Z"/>
          <path class="b005d541-41bb-4ae9-b204-692ff7b0ac82" d="M104.31,152.21a10.83,10.83,0,0,0-8.19-4.49c2.43-1.23,7.49,1.26,9.65,5.16,2.88,5.18-2.67,8.77-5,6.72a5.32,5.32,0,0,0,3.13-.85C106.2,156.86,105.47,154.52,104.31,152.21Z"/>
          <path class="a19595fd-de42-4a17-b55d-e74720d5e1c9" d="M101.72,160.37a2.75,2.75,0,0,1-2-2.4c-.4-2.29-1.91-3.79-3.24-5.11-1.58-1.58-3-2.94-1.14-4.85h0a3.33,3.33,0,0,1,3-.83,11.55,11.55,0,0,1,7.73,5.57,5.19,5.19,0,0,1-.13,5.86,4.54,4.54,0,0,1-3.31,1.84A3,3,0,0,1,101.72,160.37Zm-6-12h0c-1.38,1.47-.56,2.42,1.14,4.11,1.31,1.32,3,3,3.38,5.39a2.22,2.22,0,0,0,1.65,2,3.78,3.78,0,0,0,3.61-1.56,4.67,4.67,0,0,0,.08-5.28,10.9,10.9,0,0,0-7.32-5.3,4.91,4.91,0,0,0-.78,0A2.54,2.54,0,0,0,95.68,148.37Z"/>
        </g>
        <path class="a19595fd-de42-4a17-b55d-e74720d5e1c9" d="M102.89,155.84a6.1,6.1,0,0,0-2-4.34c-1.73-1.84-4-3.17-6-2.93l.07.53C98.05,148.73,102.14,152.7,102.89,155.84Z"/>
      </g>
      <g>
        <g>
          <path class="ed002b6c-14eb-478d-ade6-c5f5cc766d57" d="M91.92,150.57c3.1-1.58,8.49,3.56,9.41,9.18,1.31,8-9.36,9-8.37,3.21C94,156.92,87.41,152.85,91.92,150.57Z"/>
          <path class="b005d541-41bb-4ae9-b204-692ff7b0ac82" d="M99.6,163.47c1.81-5.45-1.79-10.52-7-13.13,3.15-.64,7.89,4.17,8.75,9.41,1,6.4-5.53,8.31-7.73,5.89C95.88,166.73,99,165.31,99.6,163.47Z"/>
          <path class="a19595fd-de42-4a17-b55d-e74720d5e1c9" d="M94,166.31a3.18,3.18,0,0,1-1.27-3.39c.46-2.67-.6-4.91-1.54-6.89-1.1-2.33-2-4.34.64-5.7a3.86,3.86,0,0,1,3.55.27c3,1.5,5.63,5.41,6.24,9.1.44,2.73-.44,5-2.42,6.32a5.55,5.55,0,0,1-3,.9A4,4,0,0,1,94,166.31ZM92,150.8c-2.13,1.08-1.6,2.46-.4,5,.92,1.94,2.07,4.37,1.58,7.2a2.63,2.63,0,0,0,1,2.86,4.44,4.44,0,0,0,4.62-.3c1.8-1.16,2.59-3.27,2.18-5.78a12.79,12.79,0,0,0-6-8.72,4.47,4.47,0,0,0-1.94-.53A2.52,2.52,0,0,0,92,150.8Z"/>
        </g>
        <path class="a19595fd-de42-4a17-b55d-e74720d5e1c9" d="M96.68,156.7c-1.13-2.82-3.19-5.36-5.5-5.88l-.11.52c3.46.77,6.4,6.77,6,10.51C97,161.85,97.87,159.92,96.68,156.7Z"/>
      </g>
      <g>
        <path class="ed002b6c-14eb-478d-ade6-c5f5cc766d57" d="M88.83,150.59c3,0,5.17,8,3.68,14.27-2.12,8.89-10.76,4.37-7.72-1C88,158.17,84.45,150.59,88.83,150.59Z"/>
        <path class="b005d541-41bb-4ae9-b204-692ff7b0ac82" d="M90.6,151.58c2,2.33,3.09,8.37,1.91,13.28-.94,3.93-4.45,7.2-7.92,3C93.26,172.46,93.16,156.33,90.6,151.58Z"/>
        <path class="a19595fd-de42-4a17-b55d-e74720d5e1c9" d="M84.65,168.49a4.38,4.38,0,0,1-.1-4.8c1.41-2.51,1.47-5.49,1.52-7.89.06-2.94.12-5.48,2.76-5.48h0a2.75,2.75,0,0,1,2.1,1.23c1.86,2.37,3,8.31,1.84,13.37-1,4-3,4.94-4.16,5.17a3.71,3.71,0,0,1-.74.07A4,4,0,0,1,84.65,168.49Zm4.18-17.63h0c-2,0-2.16,1.7-2.23,4.95,0,2.46-.11,5.51-1.58,8.14a3.8,3.8,0,0,0,.06,4.23,3.45,3.45,0,0,0,3.43,1.39c1-.21,2.86-1.1,3.74-4.77,1.18-4.91,0-10.65-1.74-12.92a2.22,2.22,0,0,0-1.68-1Z"/>
      </g>
      <g>
        <g>
          <path class="ed002b6c-14eb-478d-ade6-c5f5cc766d57" d="M85,152.19c3.26,1.61,2.38,9.29-1.72,13.54-5.87,6.06-13.42-2.23-8-5C81.05,157.86,80.29,149.84,85,152.19Z"/>
          <path class="b005d541-41bb-4ae9-b204-692ff7b0ac82" d="M73.73,162.63c.35,3.75,4.67,4.62,7.36,3.08A11.84,11.84,0,0,0,86.6,154c1.16,3-.08,8.38-3.28,11.7-4.37,4.51-9.66,1.07-9.84-2.11C73.49,163.66,73.71,162.59,73.73,162.63Z"/>
          <path class="a19595fd-de42-4a17-b55d-e74720d5e1c9" d="M76.71,167.8a5.13,5.13,0,0,1-3.5-4.17,3.22,3.22,0,0,1,2-3.12C77.75,159.23,79,157,80,155c1.25-2.36,2.33-4.4,5.14-3h0a4.09,4.09,0,0,1,2,3.18,13.53,13.53,0,0,1-3.66,10.78,6.61,6.61,0,0,1-5.21,2.24A5.89,5.89,0,0,1,76.71,167.8Zm8.21-15.37c-2.36-1.17-3.19.4-4.44,2.77-1,2-2.34,4.43-5,5.78a2.72,2.72,0,0,0-1.73,2.62,4.67,4.67,0,0,0,3.15,3.7c2.12.79,4.39.15,6.24-1.76a13.19,13.19,0,0,0,3.52-10.32,3.65,3.65,0,0,0-1.73-2.79Z"/>
        </g>
        <path class="a19595fd-de42-4a17-b55d-e74720d5e1c9" d="M82.74,160.24c1.75-2.74,2.67-6.18,1.61-8.5l-.48.22c1.54,3.37-1.61,9.54-5,11.51C78.87,163.47,80.83,163.11,82.74,160.24Z"/>
      </g>
      <g>
        <g>
          <path class="ed002b6c-14eb-478d-ade6-c5f5cc766d57" d="M81.35,151.56c1.65,2.37-2.54,7.8-7.51,9.51-7.1,2.45-8.81-6.46-3.54-6.57C75.81,154.38,79,148.1,81.35,151.56Z"/>
          <path class="b005d541-41bb-4ae9-b204-692ff7b0ac82" d="M69,154.74c-.18.16.88.1.73.3-2.53.78-1.58,5,1.27,5.15,4,.26,9.49-3.12,10.61-8,.64,2.6-3.25,7.28-7.8,8.84C67.39,163.29,65.39,156.15,69,154.74Z"/>
          <path class="a19595fd-de42-4a17-b55d-e74720d5e1c9" d="M68.1,160.37a4,4,0,0,1-.87-4.23,3.21,3.21,0,0,1,3.07-1.91c2.43,0,4.36-1.32,6.06-2.44,2-1.33,3.75-2.48,5.21-.38a3,3,0,0,1,.18,2.71c-.81,2.5-4,5.87-7.83,7.2a7,7,0,0,1-2.82.42A4.39,4.39,0,0,1,68.1,160.37Zm8.55-8.14c-1.67,1.1-3.76,2.48-6.34,2.53a2.68,2.68,0,0,0-2.59,1.58,3.54,3.54,0,0,0,.77,3.67c.69.74,2.3,1.83,5.26.81,3.71-1.27,6.72-4.49,7.5-6.86a2.59,2.59,0,0,0-.12-2.25h0a1.83,1.83,0,0,0-1.34-.92C79,150.74,78,151.34,76.65,152.23Z"/>
        </g>
        <path class="a19595fd-de42-4a17-b55d-e74720d5e1c9" d="M76.3,156.62c2.42-1.44,4.51-3.58,4.79-5.62l-.52-.07c-.43,3.07-5.59,6.55-9,6.82C71.59,157.75,73,158.19,76.3,156.62Z"/>
      </g>
      <g>
        <g>
          <path class="ed002b6c-14eb-478d-ade6-c5f5cc766d57" d="M79.6,149.59c.56,3-4.73,6.16-9.41,5.53-6.69-.9-5.09-10-.7-7.73C74.08,149.74,78.79,145.29,79.6,149.59Z"/>
          <path class="b005d541-41bb-4ae9-b204-692ff7b0ac82" d="M67.69,147.35c-1.72.87-2.52,5.89,3.76,6.76,2.93,0,6.87-.77,8-5,0,.15.08.3.11.47.56,3-4.73,6.16-9.41,5.53C64.09,154.3,65,146.93,67.69,147.35Z"/>
          <path class="a19595fd-de42-4a17-b55d-e74720d5e1c9" d="M70.15,155.38a5.13,5.13,0,0,1-4.54-3.65,4.29,4.29,0,0,1,1-4.43,2.6,2.6,0,0,1,3-.15c2,1,4,.71,5.8.43,2.12-.34,4-.64,4.45,2a3.49,3.49,0,0,1-1.14,3A10.56,10.56,0,0,1,72,155.45,10,10,0,0,1,70.15,155.38Zm5.34-7.28c-1.76.28-4,.64-6.12-.48a2.07,2.07,0,0,0-2.39.09,3.83,3.83,0,0,0-.86,3.87,4.62,4.62,0,0,0,4.1,3.27,10.06,10.06,0,0,0,8.12-2.64,3.07,3.07,0,0,0,1-2.57h0c-.28-1.48-1-1.82-2.27-1.74C76.62,147.93,76.09,148,75.49,148.1Z"/>
        </g>
        <path class="a19595fd-de42-4a17-b55d-e74720d5e1c9" d="M73.23,152.09c2.66-.16,5.39-1.26,6.38-3.16l-.47-.25c-1.38,2.66-6.78,3.6-9.65,2.34A5.85,5.85,0,0,0,73.23,152.09Z"/>
      </g>
      <g>
        <g>
          <path class="ed002b6c-14eb-478d-ade6-c5f5cc766d57" d="M78.28,147.14c-.37,2.47-5.86,3.46-9.72,1.62-5.52-2.61-1.51-9.26,1.63-6.24S78.83,143.54,78.28,147.14Z"/>
          <path class="b005d541-41bb-4ae9-b204-692ff7b0ac82" d="M69.18,141.88a2.68,2.68,0,0,0-1.8,1.1,3.82,3.82,0,0,0,1.92,5c2.82,1.05,6.59,1.46,9-.83-.38,2.47-5.87,3.44-9.72,1.61C63.62,146.43,66.31,140.87,69.18,141.88Z"/>
          <path class="a19595fd-de42-4a17-b55d-e74720d5e1c9" d="M68.44,149a4.49,4.49,0,0,1-2.89-4.11,3.59,3.59,0,0,1,2-3.23,2.5,2.5,0,0,1,2.79.66,8.74,8.74,0,0,0,4.88,2c1.87.33,3.63.64,3.3,2.86h0a2.78,2.78,0,0,1-1.62,1.95A8.46,8.46,0,0,1,73,150,11,11,0,0,1,68.44,149ZM78,147.1c.25-1.63-.76-1.88-2.86-2.26A9.22,9.22,0,0,1,70,142.71a2,2,0,0,0-2.22-.55,3.08,3.08,0,0,0-1.7,2.76,4,4,0,0,0,2.59,3.6,9.92,9.92,0,0,0,8,.14A2.32,2.32,0,0,0,78,147.1Z"/>
        </g>
        <path class="a19595fd-de42-4a17-b55d-e74720d5e1c9" d="M74.92,147.71a5.47,5.47,0,0,0,3.56-1.05l-.34-.4c-2,1.68-6.88.87-9-.94a6.19,6.19,0,0,0,3.55,2.15A11.25,11.25,0,0,0,74.92,147.71Z"/>
      </g>
      <g>
        <g>
          <path class="ed002b6c-14eb-478d-ade6-c5f5cc766d57" d="M78.71,143.77c-1,2.08-6,1.58-8.84-1-4.1-3.67,1.08-8.52,3-5.09C74.92,141.28,80.11,140.74,78.71,143.77Z"/>
          <path class="b005d541-41bb-4ae9-b204-692ff7b0ac82" d="M70.47,136.62a.69.69,0,0,1-.4.2c-1.28,1.28-1.35,2.85,0,4.62,2.1,2.74,6.11,3.29,7.88,3.14-1.76,1.06-5.67.36-8.08-1.8C67.07,140.28,68.6,137.22,70.47,136.62Z"/>
          <path class="a19595fd-de42-4a17-b55d-e74720d5e1c9" d="M69.69,143a4.07,4.07,0,0,1-1.44-4.37,3.32,3.32,0,0,1,2.63-2.34,2.25,2.25,0,0,1,2.24,1.29,7.73,7.73,0,0,0,3.7,2.95c1.55.76,3,1.48,2.14,3.37a2.62,2.62,0,0,1-2,1.34,5.79,5.79,0,0,1-1.19.11A9.81,9.81,0,0,1,69.69,143Zm1.25-6.18a2.84,2.84,0,0,0-2.19,2,3.59,3.59,0,0,0,1.3,3.81,8.71,8.71,0,0,0,6.83,2.11,2.16,2.16,0,0,0,1.59-1h0c.63-1.36-.17-1.83-1.88-2.67a8.26,8.26,0,0,1-3.93-3.17,1.76,1.76,0,0,0-1.55-1Z"/>
        </g>
        <path class="a19595fd-de42-4a17-b55d-e74720d5e1c9" d="M77.47,143.73a3.75,3.75,0,0,0,1.56-.31l-.23-.48c-2.11,1-6.15-.94-7.5-3.05a3.79,3.79,0,0,0,2.09,2.58A8.43,8.43,0,0,0,77.47,143.73Z"/>
      </g>
      <g>
        <g>
          <path class="ed002b6c-14eb-478d-ade6-c5f5cc766d57" d="M80.35,141.09c-1.26,1.45-5.23-.19-7-3-2.5-4,2.83-6.61,3.62-3.36C77.83,138.15,82.18,139,80.35,141.09Z"/>
          <path class="b005d541-41bb-4ae9-b204-692ff7b0ac82" d="M74.86,133.33a3,3,0,0,0-1.22,3.3,9.16,9.16,0,0,0,5.71,5c-1.71.27-4.57-1.23-6-3.48C71.8,135.62,73.32,133.65,74.86,133.33Z"/>
          <path class="a19595fd-de42-4a17-b55d-e74720d5e1c9" d="M78.66,141.88a8.08,8.08,0,0,1-5.52-3.63,3.49,3.49,0,0,1-.18-3.91,2.79,2.79,0,0,1,2.7-1.28,2,2,0,0,1,1.59,1.63A6.76,6.76,0,0,0,79.58,138c1.1,1,2.14,2,1,3.3h0a2.05,2.05,0,0,1-1.61.62Zm1.49-1c.79-.91.26-1.48-.93-2.56a7.22,7.22,0,0,1-2.48-3.55,1.46,1.46,0,0,0-1.17-1.23,2.28,2.28,0,0,0-2.17,1.06,2.89,2.89,0,0,0,.19,3.33,7.58,7.58,0,0,0,5.11,3.38,1.72,1.72,0,0,0,1.45-.43Z"/>
        </g>
        <path class="a19595fd-de42-4a17-b55d-e74720d5e1c9" d="M80.33,141l.35,0-.07-.53c-1.78.25-4.7-2.07-5.38-4.29a3.57,3.57,0,0,0,1.37,3A6,6,0,0,0,80.33,141Z"/>
      </g>
      <g>
        <g>
          <path class="ed002b6c-14eb-478d-ade6-c5f5cc766d57" d="M85.71,138.86c-1.21,1.76-5.43.72-7.43-1.93-2.86-3.78,2.47-7.52,3.52-4.2S87.45,136.31,85.71,138.86Z"/>
          <path class="b005d541-41bb-4ae9-b204-692ff7b0ac82" d="M79.62,131.55c-3.44,3.08.51,7.06,3.65,8.16a7.4,7.4,0,0,1-5-2.78A3.36,3.36,0,0,1,79.62,131.55Z"/>
          <path class="a19595fd-de42-4a17-b55d-e74720d5e1c9" d="M83.76,140a7.55,7.55,0,0,1-5.69-2.91,3.69,3.69,0,0,1-.43-4.18,3.1,3.1,0,0,1,2.81-1.72,1.89,1.89,0,0,1,1.6,1.45,6.18,6.18,0,0,0,2.63,3.07c1.2.87,2.34,1.7,1.24,3.31a2.42,2.42,0,0,1-1.84,1Zm-5.66-6.83a3.19,3.19,0,0,0,.39,3.6,7,7,0,0,0,5.26,2.7,2.13,2.13,0,0,0,1.74-.76h0c.77-1.13.21-1.6-1.12-2.57a6.76,6.76,0,0,1-2.83-3.33,1.36,1.36,0,0,0-1.15-1.09h-.3A2.78,2.78,0,0,0,78.1,133.17Z"/>
        </g>
        <path class="a19595fd-de42-4a17-b55d-e74720d5e1c9" d="M85.49,138.73a2.62,2.62,0,0,0,.57-.12l-.16-.51c-2,.63-5.06-1.56-5.84-3.59a5.38,5.38,0,0,0,2,3.14A6,6,0,0,0,85.49,138.73Z"/>
      </g>
      <path class="a19595fd-de42-4a17-b55d-e74720d5e1c9" d="M90.13,159.58c.27-3.52-.3-7.3-1.92-9.06l-.39.36c2.4,2.61,2.32,10.33.51,14C88.33,164.85,89.72,163.84,90.13,159.58Z"/>
      <g>
        <path class="b1b0e96f-49ea-4ea5-a875-d51d04bb9754" d="M98.62,74.79C92.39,85,94.49,93,97.06,109.46s5.47,40.94-4.64,44.67c-10.56,3.91-18.64-8.59-14.66-14,1.08-1.76,4.88-.79,5.76-17.91S77.09,84.36,71.81,78.28C75.45,74.34,98.62,74.79,98.62,74.79Z"/>
        <path class="bd8334c7-dec4-4118-8e62-b4e34e995fb4" d="M94.05,96.94c-.8-6.07-1.09-13.48,2.35-17.79-3.38,8.34-1.54,16.22.66,30.31,2.13,13.68,4.49,32.8-.52,41.08C101.44,134.9,96.4,114.7,94.05,96.94Z"/>
        <path class="aa1d2a9e-0df8-49e7-bdcc-24525caf1ca4" d="M83.52,122.17c.87-17.2-6.43-37.81-11.71-43.89,1.36-1.47,3.59,5.18,5,3.06C90.22,108.85,87.63,134,81,140.24c-3.77,4.67,2.79,16.09,13.4,12.4-9.32,8.08-21.39-6.3-16.68-12.56C78.84,138.32,82.64,139.29,83.52,122.17Z"/>
        <path class="b20951e1-8620-4c87-9582-e8937292fa49" d="M78.92,150.15c-2.65-3.5-3.21-7.7-1.38-10.21a3.62,3.62,0,0,1,.94-.93c1.52-1.18,4.07-3.14,4.77-16.85.88-17.21-6.43-37.7-11.65-43.71l-.15-.18.16-.18c3.68-4,26.06-3.58,27-3.57h.46l-.24.4c-5.6,9.15-4.4,16.58-2.23,30.06.22,1.41.46,2.88.7,4.43,3,19,5.1,41.3-4.8,45a11.75,11.75,0,0,1-3.24.73A11.91,11.91,0,0,1,78.92,150.15ZM72.17,78.29c5.26,6.3,12.49,26.74,11.61,43.89-.71,14-3.38,16-5,17.25a2.92,2.92,0,0,0-.83.81c-1.7,2.33-1.14,6.28,1.36,9.59s7.27,6.17,13,4.06c9.65-3.57,7.17-27,4.47-44.39-.24-1.55-.48-3-.71-4.43-2.16-13.41-3.36-20.89,2.06-30C94.93,75,75.86,75,72.17,78.29Z"/>
      </g>
      <g>
        <path class="b1b0e96f-49ea-4ea5-a875-d51d04bb9754" d="M71.07,187.32a64,64,0,0,0-9.82,31.58c-.17,8.38.71,22.2.71,22.2,2.22,3.35,16.74,5.36,8.86,13.9-7.26,5.87-9.42-2.84-10.38-5.35s-4-5.7-4-5.7-1.68,1.67-1.86,6.62-2.65,6.95-7.53,5.95-8-6-3.36-9a26.13,26.13,0,0,0,7.17-6.54s3.37-41.88,1.07-53.61Z"/>
        <path class="b1b0e96f-49ea-4ea5-a875-d51d04bb9754" d="M71.07,187.32a64,64,0,0,0-9.82,31.58c-.17,8.38.71,22.2.71,22.2,2.22,3.35,16.74,5.36,8.86,13.9-7.26,5.87-9.42-2.84-10.38-5.35s-4-5.7-4-5.7-1.68,1.67-1.86,6.62-2.65,6.95-7.53,5.95-8-6-3.36-9a26.13,26.13,0,0,0,7.17-6.54s3.37-41.88,1.07-53.61Z"/>
        <path class="bd8334c7-dec4-4118-8e62-b4e34e995fb4" d="M70,187.32h1.09a64,64,0,0,0-9.82,31.58c-.13,6.27.31,17.35.55,21.65C58.92,220,59.58,202.42,70,187.32Z"/>
        <g>
          <path class="aa1d2a9e-0df8-49e7-bdcc-24525caf1ca4" d="M67.44,249.77c2.44-1.53,1.82-3.71-.28-5.39,4.33,2.21,8.84,5,3.66,10.62-8.54,7.28-9.91-6.56-12.91-9.8C60.22,247.41,63.72,251.67,67.44,249.77Z"/>
          <path class="aa1d2a9e-0df8-49e7-bdcc-24525caf1ca4" d="M43.72,247.47a26.13,26.13,0,0,0,7.17-6.54s3.37-41.88,1.07-53.61c1.53,0,5.66.25,7,.25-4.05,10.81-4.24,46.49-5.4,52.31-.38,2.55-4,5.18-5.15,7.37-3.4,3.78,5.15,7.54,6.4,1.4-.6,8.09-3.78,8.67-7.69,7.87C42.21,255.51,39.12,250.48,43.72,247.47Z"/>
        </g>
        <path class="b20951e1-8620-4c87-9582-e8937292fa49" d="M65.34,257.12c-2.83-.75-4.16-4.57-4.87-6.62-.1-.29-.2-.55-.28-.77a21.33,21.33,0,0,0-3.71-5.38c-.42.59-1.47,2.43-1.6,6.23-.1,2.62-.85,4.46-2.23,5.48s-3.2,1.2-5.62.7c-2.91-.6-5.27-2.61-5.75-4.89-.37-1.77.44-3.4,2.29-4.61a26.73,26.73,0,0,0,7.06-6.41c.15-1.87,3.29-42.13,1.06-53.48l0-.3h19.9l-.24.38a63.14,63.14,0,0,0-9.78,31.46c-.17,8,.64,21.06.7,22.11.65.92,2.37,1.78,4.19,2.7,3,1.5,6.39,3.21,6.92,5.95.33,1.66-.43,3.46-2.34,5.52a7.68,7.68,0,0,1-4.63,2.06A4.32,4.32,0,0,1,65.34,257.12ZM52.27,187.57c2.17,12-1.08,53-1.11,53.38V241l0,.06a26.36,26.36,0,0,1-7.25,6.6c-1.66,1.09-2.39,2.55-2.07,4.1.44,2.09,2.63,3.94,5.34,4.5,2.26.47,4,.26,5.18-.6s1.94-2.65,2-5.11c.17-5,1.86-6.71,1.93-6.78l.2-.2.19.2c.12.13,3.06,3.25,4,5.78.08.22.18.49.28.79.69,2,2,5.61,4.51,6.28,1.46.39,3.19-.23,5.14-1.79,1.77-1.92,2.48-3.58,2.19-5.08-.49-2.5-3.76-4.15-6.65-5.6-2-1-3.73-1.87-4.42-2.93l0,0v-.06c0-.14-.89-13.93-.71-22.22a63.53,63.53,0,0,1,9.62-31.33Z"/>
      </g>
      <g>
        <path class="ed002b6c-14eb-478d-ade6-c5f5cc766d57" d="M43.1,261.21c.89.5,6.91-2.35,7.26-6.12s-6.2-5-7.79-1.93S42.21,260.7,43.1,261.21Z"/>
        <path class="b005d541-41bb-4ae9-b204-692ff7b0ac82" d="M42.57,253.16a3.29,3.29,0,0,1,2.37-1.64c-2.13,1.75-2.87,11,2.12,8.14-1.7,1.18-3.51,1.8-4,1.55C42.21,260.7,41,256.26,42.57,253.16Z"/>
        <path class="a19595fd-de42-4a17-b55d-e74720d5e1c9" d="M43,261.42c-1-.59-2.27-5.18-.63-8.37.91-1.76,3.28-2.18,5.15-1.69,2.07.55,3.31,2,3.15,3.75-.24,2.54-2.91,4.69-5.12,5.75a6,6,0,0,1-2.11.66A.87.87,0,0,1,43,261.42Zm-.15-8.15c-1.54,3-.34,7.29.43,7.72h0c.12.07.79,0,2-.58,2.09-1,4.61-3,4.83-5.34.17-1.8-1.39-2.86-2.76-3.22a5.18,5.18,0,0,0-1.36-.18A3.42,3.42,0,0,0,42.81,253.27Z"/>
      </g>
      <g>
        <path class="ed002b6c-14eb-478d-ade6-c5f5cc766d57" d="M74.67,259.25c.79-.63-.08-6.94-3.73-8.5s-7,3.9-4.48,6.34S73.87,259.87,74.67,259.25Z"/>
        <path class="b005d541-41bb-4ae9-b204-692ff7b0ac82" d="M66.84,251.83c.31,3.63,4.22,6.13,7.85,5.8a.83.83,0,0,0,.22,0c.07.85,0,1.47-.24,1.65-.8.62-5.64.28-8.21-2.16C65,255.69,65.47,253.32,66.84,251.83Z"/>
        <path class="a19595fd-de42-4a17-b55d-e74720d5e1c9" d="M66.27,257.26c-1.46-1.38-1.11-3.64,0-5.15a4,4,0,0,1,4.78-1.59c2.46,1,3.72,4.14,4.06,6.46.09.61.24,2.06-.27,2.46a3.06,3.06,0,0,1-1.66.33A10.85,10.85,0,0,1,66.27,257.26Zm.43-4.87c-1,1.35-1.31,3.33,0,4.52,2.47,2.35,7.16,2.68,7.85,2.14h0c.1-.08.27-.7.09-2-.32-2.2-1.5-5.11-3.76-6.07a3.1,3.1,0,0,0-1.19-.25A3.83,3.83,0,0,0,66.7,252.39Z"/>
      </g>
      <g>
        <path class="e77c59b8-d60d-49b0-8e42-1ab11c60d3bc" d="M74.47,187.9c-4.57,1.86-6,9.43-10.82,9.87s-8.87-.58-11.61-4.12-8-11.45-8.67-11.45l25.74,1.36Z"/>
        <path class="a6aeac4d-059e-4067-9a4c-478648c97437" d="M55.32,182.71c6.46,4.95,9.17,5.14,15.91,2.55l3.29,2.63c-4.58,1.86-6.09,9.44-10.87,9.88s-8.87-.58-11.61-4.12-8-11.48-8.74-11.48Z"/>
        <path class="b65bad46-6f1d-46c5-84b7-cdf40d7dec89" d="M61.62,198.14c.66,0,1.34,0,2.05-.1,2.7-.25,4.38-2.75,6-5.16,1.38-2,2.81-4.16,4.85-5A5.63,5.63,0,0,0,71,190.17c-.6.76-1.17,1.59-1.72,2.42-1.63,2.41-3.16,4.69-5.61,4.92-5.18.48-8.9-.84-11.37-4-1.07-1.38-2.51-3.46-3.91-5.48-3.79-5.56-5-5.81-5-5.81.42.19,2.7,3.47,4.53,6.11,1.4,2,2.85,4.12,3.93,5.5C54.07,196.71,57.29,198.14,61.62,198.14Z"/>
      </g>
      <g>
        <g>
          <path class="ed002b6c-14eb-478d-ade6-c5f5cc766d57" d="M39.4,148.51c-5.51.63-13.08-1.14-14.49-1.61-2.45-.83-5.19-.23-1.85,4.48s10.47,6.65,19.68,5.47Z"/>
          <path class="b005d541-41bb-4ae9-b204-692ff7b0ac82" d="M22.43,146.58c.13,6.55,13.17,8.71,19.62,7,.21.52.44,2.68.69,3.29-9.21,1.18-16.35-.75-19.68-5.47C21.36,149,21.24,147.21,22.43,146.58Z"/>
          <path class="a19595fd-de42-4a17-b55d-e74720d5e1c9" d="M22.84,151.54c-1.52-2.15-1.95-3.68-1.3-4.56s2.22-.75,3.46-.34c1.52.52,9,2.22,14.37,1.61l.2,0,3.54,8.85-.34,0a38.46,38.46,0,0,1-5,.34C30.87,157.45,25.56,155.38,22.84,151.54Zm16.39-2.74c-5.47.55-12.88-1.14-14.4-1.65-1.34-.45-2.46-.39-2.87.15-.28.38-.48,1.39,1.32,3.93,3.19,4.51,10.13,6.47,19.08,5.4Z"/>
        </g>
        <path class="a19595fd-de42-4a17-b55d-e74720d5e1c9" d="M37.11,153.27a21.12,21.12,0,0,0,2.93-.2l-.07-.53a23.62,23.62,0,0,1-13.57-2.41,12.53,12.53,0,0,0,4.92,2.4A23.87,23.87,0,0,0,37.11,153.27Z"/>
      </g>
      <g>
        <g>
          <path class="ed002b6c-14eb-478d-ade6-c5f5cc766d57" d="M32.59,156.7c-5.27-1.71-11.43-6.44-12.52-7.46-1.89-1.76-4.63-2.34-3.54,3.32s6.79,10.38,15.66,13.11Z"/>
          <path class="b005d541-41bb-4ae9-b204-692ff7b0ac82" d="M17.66,148c-.47,6,5.13,10.73,14.64,15.1,0,.76-.07,1.6-.11,2.55-8.87-2.73-14.57-7.44-15.66-13.11C15.88,149.19,16.58,148,17.66,148Z"/>
          <path class="a19595fd-de42-4a17-b55d-e74720d5e1c9" d="M32.11,165.92c-9-2.76-14.75-7.61-15.84-13.3-.5-2.59-.27-4.16.69-4.69s2.33.23,3.29,1.12c1.17,1.09,7.26,5.72,12.43,7.39l.19.07L32.44,166ZM19.89,149.44c-1-1-2.08-1.38-2.67-1.05-.42.23-1,1.07-.43,4.12,1,5.43,6.56,10.09,15.15,12.8l.38-8.42C27.11,155.14,21.07,150.54,19.89,149.44Z"/>
        </g>
        <path class="a19595fd-de42-4a17-b55d-e74720d5e1c9" d="M31.3,161.11l.15-.51a23.75,23.75,0,0,1-11.37-7.8,12.19,12.19,0,0,0,3.37,4.12A22.7,22.7,0,0,0,31.3,161.11Z"/>
      </g>
      <g>
        <g>
          <path class="ed002b6c-14eb-478d-ade6-c5f5cc766d57" d="M32.45,165.34c-5.29-1.84-11.49-6.88-12.59-8-1.9-1.88-4.65-2.51-3.52,3.49s6.87,11,15.76,13.95Z"/>
          <path class="b005d541-41bb-4ae9-b204-692ff7b0ac82" d="M16.28,157c.78,8.09,8.66,12,15.95,14.31,0,1-.08,2.15-.13,3.5-8.89-2.94-14.63-7.95-15.76-13.95A7.83,7.83,0,0,1,16.28,157Z"/>
          <path class="a19595fd-de42-4a17-b55d-e74720d5e1c9" d="M32,175.07c-9-3-14.81-8.13-15.94-14.15-.52-2.77-.29-4.43.7-5s2.33.3,3.27,1.23c1.18,1.16,7.31,6.1,12.48,7.9l.19.06-.37,10Zm-12.34-17.5c-1-1-2.06-1.45-2.65-1.14-.43.23-1.05,1.1-.43,4.39,1.08,5.75,6.63,10.71,15.25,13.64l.32-8.94C27,163.64,20.86,158.74,19.68,157.57Z"/>
        </g>
        <path class="a19595fd-de42-4a17-b55d-e74720d5e1c9" d="M31.2,170l.1-.52c-7.19-1.34-13.64-9.29-13.7-9.37a11.44,11.44,0,0,0,2.48,3.42C22.68,166,26.76,169.16,31.2,170Z"/>
      </g>
      <g>
        <path class="e77c59b8-d60d-49b0-8e42-1ab11c60d3bc" d="M60.32,155.13s-5.06-11.89-19.83-8.95c-4,1-9.47,3.74-8.13,7.32-3.7.36-3.24,5-3.24,5s-3.5.36-2.26,5c-3.28.11-6,4.43-1.19,9.05s27.84,13.27,36.11-4.88C62.57,166,60.32,155.13,60.32,155.13Z"/>
        <path class="a907f649-6d2f-4455-827d-b13686e10346" d="M35.51,148.14c.78-.3,4.24-1.77,5-2,9.14-1.82,14.56,2,17.36,5.25.54,1,1.52,1.43,2.47,3.7C53.82,146.23,45.35,145.19,35.51,148.14Z"/>
        <path class="a6aeac4d-059e-4067-9a4c-478648c97437" d="M26.86,163.51c-1.24-4.67,2.26-5,2.26-5s-.46-4.62,3.24-5c-.61-1.65.2-3.11,1.66-4.3-1.3,2.53-.5,4.67.72,6.87a4.37,4.37,0,0,0-3.27,2.25c-1.16,2.69.13,5.43,2.44,7-4.33,1.11-3.13,5.92.38,8.08,6.59,4.33,14.94,5.2,21.55,1.54l.66-.2c-10.24,8.32-26.84,1.69-30.83-2.15C20.86,167.94,23.58,163.62,26.86,163.51Z"/>
        <path class="b65bad46-6f1d-46c5-84b7-cdf40d7dec89" d="M44.44,179a24.44,24.44,0,0,0,4.44-.4,17.84,17.84,0,0,0,8.3-3.84,16.17,16.17,0,0,0,4.6-7.12,17.27,17.27,0,0,1-13,10.43c-9.29,1.77-19.87-2.8-22.93-5.74-2.16-2.09-3-4.36-2.27-6.25a3.65,3.65,0,0,1,3.29-2.35h.34l-.09-.32a4.36,4.36,0,0,1,.24-3.6,2.72,2.72,0,0,1,1.79-1.09l.26,0,0-.26a5.67,5.67,0,0,1,.92-3.65,2.92,2.92,0,0,1,2.08-1l.34,0-.12-.33a2.83,2.83,0,0,1,.16-2.36c1.15-2.22,4.91-3.87,7.78-4.62,14.37-2.85,19.72,8.58,19.77,8.7a14.07,14.07,0,0,0-5.18-6.62c-3.25-2.25-8-3.92-14.71-2.59-3.13.81-6.9,2.52-8.13,4.89a3.3,3.3,0,0,0-.29,2.47,3.37,3.37,0,0,0-2.11,1.2,5.88,5.88,0,0,0-1.06,3.78,3.2,3.2,0,0,0-1.91,1.27,4.58,4.58,0,0,0-.4,3.74,4.18,4.18,0,0,0-3.44,2.66c-.81,2.1.07,4.58,2.39,6.82C28.13,175.3,36.26,179,44.44,179Z"/>
      </g>
      <g>
        <path class="ed002b6c-14eb-478d-ade6-c5f5cc766d57" d="M63.17,240.44c-.38-.36.85-3.42,3.12-3.95s3.58,2.38,1.82,3.42S63.55,240.8,63.17,240.44Z"/>
        <path class="b005d541-41bb-4ae9-b204-692ff7b0ac82" d="M66.29,236.49a2.12,2.12,0,0,1,1.59.23c-1,.43-3.17,1.32-2.85,2.26.6.81,3,.37,3.83,0-.06.05-.68.89-.75.93-1.75,1-4.56.89-4.94.53S64,237,66.29,236.49Z"/>
        <path class="a19595fd-de42-4a17-b55d-e74720d5e1c9" d="M63,240.62h0c-.18-.17-.2-.49,0-1a5.09,5.09,0,0,1,3.3-3.38A2.37,2.37,0,0,1,69,237.59a1.91,1.91,0,0,1-.73,2.53,7.5,7.5,0,0,1-3.56.85A3,3,0,0,1,63,240.62Zm3.38-3.88a4.19,4.19,0,0,0-2.56,2.2,2.58,2.58,0,0,0-.43,1.34,6.75,6.75,0,0,0,4.6-.58,1.44,1.44,0,0,0,.53-1.92,1.84,1.84,0,0,0-1.67-1.1A2,2,0,0,0,66.36,236.74Z"/>
      </g>
      <g>
        <path class="ed002b6c-14eb-478d-ade6-c5f5cc766d57" d="M105.63,239.39c.43-.68-3.24-4.47-7.11-4.82-4.47-.4-3.61,5.57-1.07,5.94C100.84,241,105.2,240.08,105.63,239.39Z"/>
        <path class="b005d541-41bb-4ae9-b204-692ff7b0ac82" d="M96.35,235.07c1.54,2.39,6.91,4.4,7.92,2.28,1,.91,1.54,1.75,1.36,2-.43.69-4.79,1.62-8.18,1.12C95.45,240.22,94.5,236.47,96.35,235.07Z"/>
        <path class="a19595fd-de42-4a17-b55d-e74720d5e1c9" d="M97.38,240.72c-1.75-.26-2.66-2.68-2.14-4.4a2.87,2.87,0,0,1,3.33-2,11,11,0,0,1,7.13,4.24c.23.39.29.68.16.87h0a4,4,0,0,1-2.21.95A18.64,18.64,0,0,1,97.38,240.72Zm7.7-2.11a10.45,10.45,0,0,0-6.62-3.82,2.25,2.25,0,0,0-2.71,1.59c-.49,1.64.46,3.73,1.77,3.92,3.34.49,7.54-.47,7.88-1C105.42,239.27,105.4,239.05,105.08,238.61Z"/>
      </g>
      <g>
        <path class="b1b0e96f-49ea-4ea5-a875-d51d04bb9754" d="M97.37,242.94l-13.66-5.15C89.75,238.44,97.37,237.84,97.37,242.94Z"/>
        <path class="aa1d2a9e-0df8-49e7-bdcc-24525caf1ca4" d="M93.28,238.81c2.41.6,4.09,1.74,4.09,4.13l-3.89-1.37A2.18,2.18,0,0,0,93.28,238.81Z"/>
        <path class="b20951e1-8620-4c87-9582-e8937292fa49" d="M97.1,242.94h.54c0-4.87-6.49-5.05-11.7-5.19-4.41.1-8-1.39-8.75-2.42,0,0,.69,2,6.29,2.83.77,0,1.59.06,2.44.08C91.16,238.39,97.1,238.55,97.1,242.94Z"/>
      </g>
      <g>
        <path class="ed002b6c-14eb-478d-ade6-c5f5cc766d57" d="M101.58,248.42c.67-.58-1.22-5.92-5-7s-6.28,3.72-3.35,5.66S100.9,249,101.58,248.42Z"/>
        <path class="b005d541-41bb-4ae9-b204-692ff7b0ac82" d="M92.76,242.44c0,.07,0,.14,0,.19,1.11,2.35,6.82,5,8.15,2.81.73,1.42,1,2.71.66,3-.68.58-5.48.56-8.4-1.38A3,3,0,0,1,92.76,242.44Z"/>
        <path class="a19595fd-de42-4a17-b55d-e74720d5e1c9" d="M93,247.24a3.12,3.12,0,0,1-1-4.17,3.81,3.81,0,0,1,4.58-1.93c2.94.86,4.78,4.12,5.25,6q.3,1.17-.09,1.5h0c-.46.4-2.33.55-4.4.21A11.46,11.46,0,0,1,93,247.24Zm8.22-.34c-.46-1.47-2.06-4.48-4.8-5.28a3.28,3.28,0,0,0-4,1.67,2.65,2.65,0,0,0,.83,3.55c3,1.95,7.57,1.82,8.07,1.39C101.44,248.19,101.54,247.83,101.25,246.9Z"/>
      </g>
      <path class="b20951e1-8620-4c87-9582-e8937292fa49" d="M52.6,250.58a3,3,0,0,0-1.19-2.14,6,6,0,0,0-2.09-1,3.78,3.78,0,0,0-3.19.38C50.9,247,52.58,250.54,52.6,250.58Z"/>
      <path class="b20951e1-8620-4c87-9582-e8937292fa49" d="M53.52,246.42A2.23,2.23,0,0,0,52,245a2,2,0,0,0-2,.37A4.17,4.17,0,0,1,53.52,246.42Z"/>
      <path class="b20951e1-8620-4c87-9582-e8937292fa49" d="M62.85,250.92a4.42,4.42,0,0,1,2.1-2.61c1.44-1,3-1.61,3.92-1.43,0,0-1.43-.93-4.24,1C62.17,249.55,62.85,250.92,62.85,250.92Z"/>
      <path class="b20951e1-8620-4c87-9582-e8937292fa49" d="M61.6,246.7c.47-1.65,2.75-1.83,2.77-1.83a2.23,2.23,0,0,0-2,.09A1.91,1.91,0,0,0,61.6,246.7Z"/>
      <path class="b20951e1-8620-4c87-9582-e8937292fa49" d="M62.58,242.11l.32-.41A4.86,4.86,0,0,1,61.12,239,3.77,3.77,0,0,0,62.58,242.11Z"/>
      <path class="b20951e1-8620-4c87-9582-e8937292fa49" d="M50.92,241.35a5.07,5.07,0,0,0,.84-2s-.64.93-1.26,1.69Z"/>
      <path class="b20951e1-8620-4c87-9582-e8937292fa49" d="M86.66,243.42a5.18,5.18,0,0,1,5.54-4.7l0-.5a6.51,6.51,0,0,0-4.36,1.53A4.16,4.16,0,0,0,86.66,243.42Z"/>
      <path class="b20951e1-8620-4c87-9582-e8937292fa49" d="M83.48,241.25a3.26,3.26,0,0,1,3-3l-.05-.5a4.33,4.33,0,0,0-1.45.46A3.17,3.17,0,0,0,83.48,241.25Z"/>
      <path class="b20951e1-8620-4c87-9582-e8937292fa49" d="M90.23,235.37A3.32,3.32,0,0,1,91.54,233a1.81,1.81,0,0,1,1.28-.23l.14-.48a2.39,2.39,0,0,0-1.71.3C90,233.37,90.23,235.37,90.23,235.37Z"/>
      <path class="b20951e1-8620-4c87-9582-e8937292fa49" d="M87.11,235.35c.16-2.46,1.78-2.45,1.85-2.46l0-.49a2.22,2.22,0,0,0-1.42.56A2.54,2.54,0,0,0,87.11,235.35Z"/>
      <path class="b20951e1-8620-4c87-9582-e8937292fa49" d="M75.63,213.75c1.66,0,2-1,2-1s-1.72,1.07-4.42,0A3,3,0,0,0,75.63,213.75Z"/>
      <path class="b20951e1-8620-4c87-9582-e8937292fa49" d="M75.44,216.75a2,2,0,0,0,1.7-.77,6.07,6.07,0,0,1-3.4,0A2,2,0,0,0,75.44,216.75Z"/>
      <path class="b20951e1-8620-4c87-9582-e8937292fa49" d="M57,216.21a3.25,3.25,0,0,0,2.57-.93,7.81,7.81,0,0,1-5,0A3.54,3.54,0,0,0,57,216.21Z"/>
      <path class="b20951e1-8620-4c87-9582-e8937292fa49" d="M56.71,219.11a2,2,0,0,0,1.78-.87,4.63,4.63,0,0,1-3.62,0A2.16,2.16,0,0,0,56.71,219.11Z"/>
      <g>
        <path class="b20951e1-8620-4c87-9582-e8937292fa49" d="M79.22,24.29l.53-.06a14.89,14.89,0,0,0-1.82-5.33,8,8,0,0,0-4.47-3.45C78.41,17.62,79.22,24.22,79.22,24.29Z"/>
        <path class="b20951e1-8620-4c87-9582-e8937292fa49" d="M80.64,23.35l.52-.1C79.69,15.49,83,12.48,83,12.45s-2.28,1.35-2.69,5.35A19.41,19.41,0,0,0,80.64,23.35Z"/>
        <path class="b20951e1-8620-4c87-9582-e8937292fa49" d="M81.82,23.33l.5-.19c-.73-1.83.34-4.72,2.29-6.17,0,0-1.77.39-2.86,3.4A4.86,4.86,0,0,0,81.82,23.33Z"/>
      </g>
      <g>
        <path class="b1b0e96f-49ea-4ea5-a875-d51d04bb9754" d="M51.46,55.79s-9.3,3.75-7.6,12.65c1.76,9.19,12,10.06,21.73,10.47,6.45.28,13.44,8,22.26,6.51s14-9.6,23.21-11.1c13.44-2.17,15.48-6.44,15.12-14.06s-8.58-10.12-8.58-10.12-1.77-25.6-15.3-31.55C94.18,16,87.44,22.74,87.44,22.74a22,22,0,0,0-12.37,1c-5-4.07-11.62-3.26-13.82-1.61C56.94,24.52,49.91,35.65,51.46,55.79Z"/>
        <path class="aa1d2a9e-0df8-49e7-bdcc-24525caf1ca4" d="M82.29,84.08C76,82.51,76,80.73,69.75,78.77,63.08,76.81,53,78.81,47,73c-6.34-8.24,2.16-15.8,5.3-16.19a132.83,132.83,0,0,1-.05-17.83,61.77,61.77,0,0,0-.83,16.85s-9.3,3.75-7.6,12.65c1.76,9.19,12,10.06,21.73,10.47,6.45.28,13.44,8,22.26,6.51s14-9.6,23.21-11.1c5.69-.92,9.34-2.22,11.62-4-8.27,4.44-12.65.74-22.88,7.73C91,84.8,85,84.86,82.29,84.08Z"/>
        <path class="bd8334c7-dec4-4118-8e62-b4e34e995fb4" d="M116.69,51.08c-1.17-10.71-4.68-24.23-12.48-30-6.38-4.75-16.79.73-20.07,7.4.66-2.58,3.3-5.73,3.3-5.73S94.18,16,102.3,18.59c13.53,5.95,15.3,31.55,15.3,31.55s8.22,2.53,8.58,10.11a13.54,13.54,0,0,1-.24,3.3C126.76,57.32,122.39,52.53,116.69,51.08Z"/>
        <path class="bd8334c7-dec4-4118-8e62-b4e34e995fb4" d="M75.58,24.32c-.11-.16-.31-.43-.43-.57a22,22,0,0,1,12.17-1,2.16,2.16,0,0,1-.39.59A20.46,20.46,0,0,0,75.58,24.32Z"/>
        <path class="bd8334c7-dec4-4118-8e62-b4e34e995fb4" d="M59.8,24.33c-3.4,3.1-4.67,7.17-6.73,11.33,2.11-7.62,5.63-12.1,8.18-13.49,2.2-1.65,8.8-2.46,13.82,1.61a19.25,19.25,0,0,1,4.38,5.49C74.47,22.44,65.58,18.9,59.8,24.33Z"/>
        <path class="b20951e1-8620-4c87-9582-e8937292fa49" d="M85.62,85.8c-4.31,0-8.21-2-11.71-3.72-2.93-1.47-5.69-2.86-8.33-3C55,78.66,45.4,77.5,43.67,68.48c-1.6-8.37,6.44-12.3,7.58-12.81C49.76,35.88,56.53,24.52,61.16,22,63.3,20.38,70,19.49,75.1,23.56a22.39,22.39,0,0,1,12.28-1c.79-.74,7.32-6.58,15-4.11,13,5.71,15.25,29.59,15.42,31.58,1.06.37,8.26,3.14,8.6,10.26.36,7.76-1.9,12.1-15.29,14.27-4.63.75-8.26,3.22-11.77,5.6s-7,4.76-11.44,5.5A14.54,14.54,0,0,1,85.62,85.8ZM66.56,21a9.21,9.21,0,0,0-5.19,1.31c-4.57,2.49-11.23,13.76-9.72,33.45v.14l-.13,0c-.09,0-9.13,3.8-7.48,12.43S55.2,78.27,65.6,78.71c2.72.12,5.52,1.53,8.48,3,4.25,2.13,8.64,4.34,13.74,3.5,4.36-.72,7.72-3,11.28-5.43s7.21-4.91,11.93-5.67C124.2,72,126.34,68,126,60.26c-.34-7.36-8.36-9.91-8.44-9.93l-.13,0v-.14c0-.25-1.92-25.54-15.18-31.38-7.9-2.54-14.57,4-14.64,4.11L87.5,23l-.11,0a21.83,21.83,0,0,0-12.25,1L75,24,75,23.93A13.34,13.34,0,0,0,66.56,21Z"/>
      </g>
      <path d="M55.9,47.54C57.4,63,63.2,64.15,70.15,63.48s10.48-8.78,9.56-18.25S73.5,28.28,66.55,29,55,38.06,55.9,47.54Z"/>
      <path class="abc2684b-bf15-47fc-8e9f-da482e890534" d="M56.21,47.9C57.67,63,63.34,64.14,70.13,63.48s10.25-8.58,9.35-17.84-5.8-16.37-12.6-15.71S55.31,38.63,56.21,47.9Z"/>
      <path class="e0099ebf-412e-4b3a-ad8a-ffeb01483559" d="M79.56,46.61c.57,8.84-2.87,16.23-9.43,16.87-6.79.66-12.46-.5-13.92-15.58v0C63.39,51.17,72.43,50.47,79.56,46.61Z"/>
      <path d="M61,61.79c-2.72-2.32-4.38-6.86-5.06-13.87a20.53,20.53,0,0,1,2.49-12.37c2.06-3.47,5-5.56,8.43-5.88s6.37,1.14,8.74,4.23a23.17,23.17,0,0,1,4.14,11.72c1,10-3,17.48-9.58,18.12l-.88.08C66.35,64,63.38,63.83,61,61.79ZM66.91,30.2c-3.2.31-6,2.31-8,5.62a20,20,0,0,0-2.42,12h0c.67,6.86,2.26,11.28,4.87,13.52s5.67,2.12,8.77,1.82c6.3-.61,10-7.82,9.11-17.54a22.63,22.63,0,0,0-4-11.44c-2.21-2.88-5-4.28-8.06-4Z"/>
      <g>
        <path d="M111,42.84c1.65,15.37-3.77,17.7-10.7,18.44s-12-6.45-13-15.89,2.65-17.78,9.58-18.52S110,33.4,111,42.84Z"/>
        <path class="abc2684b-bf15-47fc-8e9f-da482e890534" d="M110.77,43.2c1.62,15.07-3.7,17.35-10.49,18.08S88.52,55,87.52,45.7s2.37-17.2,9.16-17.93S109.78,34,110.77,43.2Z"/>
        <path class="e0099ebf-412e-4b3a-ad8a-ffeb01483559" d="M110.68,42.51q.06.35.09.69c1.62,15.07-3.7,17.35-10.49,18.08S88.52,55,87.52,45.7c0-.14,0-.28,0-.42C95.36,47.55,104.22,47.6,110.68,42.51Z"/>
        <path d="M87.26,45.73a23.2,23.2,0,0,1,1.68-12.3c1.7-3.52,4.37-5.56,7.71-5.92,6.92-.76,13.38,6.28,14.38,15.66h0c.76,7,.06,11.78-2.14,14.61s-5.37,3.42-8.58,3.76l-.32,0C93.53,62,88.32,55.59,87.26,45.73Zm23.25-2.5c-1-9.09-7.17-15.9-13.8-15.2-3.15.34-5.67,2.29-7.29,5.63a22.65,22.65,0,0,0-1.63,12c1,9.7,6.18,16,12.47,15.33,3.08-.33,6.22-1,8.21-3.56s2.77-7.36,2-14.22l.26,0Z"/>
      </g>
      <g>
        <path class="b1b432b5-9dd4-40fe-931b-9ec06f3986d8" d="M63.06,49.22c.32,4.41,3.33,7.79,6.72,7.54s5.87-4,5.55-8.44S72,40.53,68.61,40.78,62.74,44.8,63.06,49.22Z"/>
        <path class="b3239a34-e0a1-4287-a183-6e1e46df09e8" d="M75.34,48.45c.26,4.36-2.21,8.07-5.56,8.31s-6.12-2.84-6.65-7A27.65,27.65,0,0,0,75.34,48.45Z"/>
        <ellipse cx="69.23" cy="49.15" rx="4.5" ry="5.86" transform="translate(-3.39 5.16) rotate(-4.17)"/>
        <path class="bbf8777d-f226-4108-9439-a3a841dc8ba4" d="M62.82,49.24c-.33-4.55,2.26-8.45,5.78-8.71s6.65,3.23,7,7.78S73.31,56.75,69.8,57,63.15,53.78,62.82,49.24Zm.48,0c.32,4.27,3.21,7.56,6.46,7.32s5.64-3.91,5.33-8.18S71.88,40.79,68.63,41,63,44.93,63.3,49.2Z"/>
      </g>
      <g>
        <path class="b1b432b5-9dd4-40fe-931b-9ec06f3986d8" d="M91.82,47.27c.33,4.49,3.39,7.93,6.84,7.68s6-4.1,5.65-8.59-3.39-7.93-6.84-7.68S91.49,42.78,91.82,47.27Z"/>
        <path class="b3239a34-e0a1-4287-a183-6e1e46df09e8" d="M104.25,45.8c0,.19,0,.37.06.56.33,4.49-2.2,8.34-5.65,8.59s-6.51-3.19-6.84-7.68a8.39,8.39,0,0,1,0-1A27.89,27.89,0,0,0,104.25,45.8Z"/>
        <path d="M93.57,47.53c.24,3.25,2.45,5.74,5,5.56s4.33-3,4.09-6.22-2.45-5.74-5-5.56S93.33,44.28,93.57,47.53Z"/>
        <path class="bbf8777d-f226-4108-9439-a3a841dc8ba4" d="M91.57,47.29c-.34-4.62,2.3-8.6,5.88-8.86s6.77,3.29,7.11,7.91-2.31,8.6-5.89,8.86S91.91,51.91,91.57,47.29Zm.5,0c.31,4.35,3.26,7.69,6.57,7.45s5.74-4,5.42-8.32-3.26-7.69-6.57-7.45S91.75,42.9,92.07,47.25Z"/>
      </g>
      <g>
        <path class="b639fa14-f560-41f8-9a40-57e7d2ee3994" d="M83.23,50c-12.63,1.16-8.43,9.64-22,10.47-9.41.58-13,.68-12.79,6.2.14,3.83,3.74,7.85,15.24,8.34,8.8.18,13.28,8.13,23,7,9.88-1.17,10.15-7.86,18.21-9.36S122,67,121.46,60.79c-.61-7.44-12.1-4.06-14.72-3.94C93.27,57.46,96.33,48.75,83.23,50Z"/>
        <path class="a648ba24-4d13-46b9-8b96-082e431cd09a" d="M95.5,76.23c-6.54,6.6-17.07,3.66-21,.88-7.34-5.13-16.9-1.34-22.59-5C54.24,73.62,58,74.72,63.64,75c8.8.18,13.28,8.13,23,7,9.88-1.17,10.15-7.86,18.21-9.36,4.67-.86,9.66-2.58,12.94-5.09l-.77.25C109.63,72.7,102.63,69.56,95.5,76.23Z"/>
        <path class="aa8fbe7a-e208-4c80-bd4d-c00044825fb4" d="M117.08,57.29c-2.75-.59-9.65.92-12.16.87C93.26,58,94.34,50.67,84.39,51.4c-9.45.69-8.52,4.36-14.8,8s-16.83.72-20.66,4.13c1.74-3.06,6.58-2.74,12.26-3.09,13.61-.83,9.41-9.31,22-10.47,13.1-1.2,10,7.51,23.51,6.9,2.62-.12,14.11-3.5,14.72,3.94a6.07,6.07,0,0,1-.67,3.29C121.46,60.79,120.16,58,117.08,57.29Z"/>
        <path class="e7fd30a0-062e-44c1-9bab-698512a8b48c" d="M84.74,82.25c-4.35,0-7.67-1.83-10.89-3.6-3.06-1.68-6.22-3.41-10.21-3.49-13.18-.57-15.33-5.59-15.44-8.53C48,61,51.68,60.8,60.6,60.26l.57,0c6.91-.42,9.21-2.87,11.44-5.24s4.38-4.66,10.6-5.23h0C89.88,49.14,92.38,51,95,53.06s5.1,3.89,11.71,3.59c.43,0,1.1-.13,2-.27,3.15-.51,8.42-1.36,11.19.81a4.82,4.82,0,0,1,1.78,3.59c.53,6.46-8.7,10.5-16.76,12-3.69.68-5.7,2.44-7.83,4.31-2.47,2.17-5,4.41-10.4,5A16,16,0,0,1,84.74,82.25ZM85.59,50c-.72,0-1.5,0-2.34.11-6.08.56-8.15,2.77-10.35,5.11s-4.64,4.93-11.7,5.37l-.58,0c-8.89.54-12.22.75-12,6,.09,2.26,1.72,7.58,15.06,8.15,4.08.09,7.29,1.85,10.39,3.55,3.62,2,7.37,4,12.57,3.43s7.76-2.83,10.19-5c2.18-1.9,4.23-3.7,8-4.4,8.53-1.58,16.92-5.77,16.45-11.57a4.43,4.43,0,0,0-1.64-3.31c-2.63-2.07-7.79-1.23-10.88-.73-.86.14-1.54.25-2,.27-6.76.31-9.41-1.71-12-3.67C92.54,51.66,90.4,50,85.59,50Z"/>
      </g>
      <path class="b20951e1-8620-4c87-9582-e8937292fa49" d="M84.14,28.47a14.43,14.43,0,0,1,4.76-6.71l-.26-.29a17.64,17.64,0,0,0-2.13,1.92A10.4,10.4,0,0,0,84.14,28.47Z"/>
      <path class="b20951e1-8620-4c87-9582-e8937292fa49" d="M79.45,29.27a16.81,16.81,0,0,0-3.26-4.72,15.33,15.33,0,0,0-2.12-1.74l-.2.34A24.17,24.17,0,0,1,79.45,29.27Z"/>
      <g>
        <path class="a4919ee3-bcd8-4961-8eaa-4a341139e0e1" d="M75.64,59.94h0a3.61,3.61,0,0,0-.27,1.51c0,.36.14.61.31.68.36.14,1.08-.51,1.5-1.59A3.61,3.61,0,0,0,77.45,59c0-.36-.15-.61-.31-.68l-.14,0C76.62,58.36,76,59,75.64,59.94Z"/>
        <path class="e7fd30a0-062e-44c1-9bab-698512a8b48c" d="M75.61,62.31a.91.91,0,0,1-.43-.84,3.69,3.69,0,0,1,.28-1.6c.43-1.11,1.23-1.89,1.75-1.7a.91.91,0,0,1,.43.84,3.84,3.84,0,0,1-.28,1.6c-.38,1-1,1.69-1.54,1.73Zm.21-2.3a3.4,3.4,0,0,0-.26,1.43c0,.33.13.48.19.51s.85-.44,1.25-1.48A3.4,3.4,0,0,0,77.26,59c0-.33-.13-.48-.19-.51h0C76.75,58.55,76.18,59.07,75.82,60Z"/>
      </g>
      <g>
        <path class="a4919ee3-bcd8-4961-8eaa-4a341139e0e1" d="M90.92,59.16h0a3.42,3.42,0,0,0,1,1.15c.29.2.56.27.72.18.33-.2.27-1.17-.31-2.16a3.53,3.53,0,0,0-1-1.15c-.3-.2-.57-.27-.72-.18a.28.28,0,0,0-.1.09A2.39,2.39,0,0,0,90.92,59.16Z"/>
        <path class="e7fd30a0-062e-44c1-9bab-698512a8b48c" d="M91.83,60.47a3.79,3.79,0,0,1-1.08-1.21,2.52,2.52,0,0,1-.4-2.27.49.49,0,0,1,.16-.16c.22-.13.56-.06.93.19a3.66,3.66,0,0,1,1.07,1.21c.61,1,.72,2.14.25,2.42a.57.57,0,0,1-.22.07A1.2,1.2,0,0,1,91.83,60.47Zm-1.13-3.3s0,0,0,0h0a2.32,2.32,0,0,0,.42,1.87,3.29,3.29,0,0,0,1,1.08c.28.19.46.21.52.17s.19-.93-.38-1.9a3.43,3.43,0,0,0-1-1.08.9.9,0,0,0-.47-.19Z"/>
      </g>
      <path class="bead600c-03f0-4fdb-ad33-c7182bfd4c4a" d="M68.4,43.11a2.83,2.83,0,1,0,2.61-3A2.82,2.82,0,0,0,68.4,43.11Z"/>
      <path class="bead600c-03f0-4fdb-ad33-c7182bfd4c4a" d="M97.35,41.12a2.82,2.82,0,1,0,2.61-3A2.82,2.82,0,0,0,97.35,41.12Z"/>
      <path class="a648ba24-4d13-46b9-8b96-082e431cd09a" d="M86.06,78.62c-3.08,0-5-2-7.49-4.45A32.69,32.69,0,0,0,71.45,69c-1.59-.9-3.93-.48-6.68-.23a41,41,0,0,1-5,.43C54.56,69.09,53,66.61,53,66.61c3.09,2.92,7.7,1.51,11.76,1.13,9.38-2.11,12.78,2.84,14.62,4.69,2.61,2.63,4.11,5,7.57,4.59,3.25-.4,3.95-2.56,5.74-5.5C94.1,69.18,96,63,105.15,64c3.52-.11,7.9,1.19,11.53-2.84,0,0-.87,1.68-4.68,3.42a21.14,21.14,0,0,1-6.84.93c-2.28.08-4-.19-5.21.48-3.19,1.74-4.8,4.46-6.21,6.78C92,75.63,90.44,78.14,87,78.56A7.82,7.82,0,0,1,86.06,78.62Z"/>
      <path class="e7fd30a0-062e-44c1-9bab-698512a8b48c" d="M86.06,78.62c-3.08,0-5-1.83-7.49-4.11a30.65,30.65,0,0,0-6.86-5.17c-1.58-.83-4.18-.61-6.94-.38a43,43,0,0,1-5,.24C54.56,69.1,53,66.61,53,66.61c3.09,2.7,7.7,2.31,11.76,2,2.81-.24,5.47-.46,7.16.42a30.63,30.63,0,0,1,6.94,5.24c2.61,2.42,4.67,4.34,8.12,4,3.26-.37,4.67-2.51,6.45-5.23a23.52,23.52,0,0,1,6-6.73c1.41-1,3.43-1.08,5.78-1.15,3.52-.11,7.9-.24,11.53-4,0,0-.87,1.81-4.68,3.42a22.93,22.93,0,0,1-6.84.93c-2.28.07-4.25.13-5.56,1.08a23.12,23.12,0,0,0-5.86,6.63c-1.77,2.69-3.3,5-6.73,5.4A7.76,7.76,0,0,1,86.06,78.62Z"/>
    </g>
  </g>
</svg>
