<svg id="a294a43f-68ea-4be2-b863-c6a0f8c8ca90" data-name="Layer 1" xmlns="http://www.w3.org/2000/svg" width="197.22" height="219.43" viewBox="0 0 197.22 219.43">
  <defs>
    <style>
      .b07b73d3-ffc7-4118-93b8-44ee926cfcb9 {
        opacity: 0.5;
      }

      .a3c17fdf-445c-4ceb-9693-24d348a911e5 {
        fill: #fff;
      }

      .f86ce824-d13d-457c-b8fe-8de75be11177 {
        fill: #ff002c;
        stroke: #77001f;
      }

      .ef6d9e07-c015-4da4-b84f-ed84269bc69b, .f86ce824-d13d-457c-b8fe-8de75be11177 {
        stroke-miterlimit: 10;
        stroke-width: 2px;
      }

      .a3747b9d-00f6-4977-923d-60d759edf3a6 {
        fill: #b50041;
      }

      .a947b8f5-1e52-4d5c-8faf-f455979d485d {
        fill: #db0331;
      }

      .a4427dd9-c60f-4500-9f2e-b0fdb6e73274 {
        fill: #d10037;
      }

      .ef6d9e07-c015-4da4-b84f-ed84269bc69b {
        fill: #7a2f0a;
        stroke: #601900;
      }

      .a881ce2f-a602-4c8e-9781-e9a8a48ffaff {
        fill: #ff4160;
      }
    </style>
  </defs>
  <g>
    <path class="b07b73d3-ffc7-4118-93b8-44ee926cfcb9" d="M103.28,218a61.58,61.58,0,0,1-20.81-3.91c-28.87-11.45-54-36.54-70.77-70.64C4,127.74,4,105.28,11.65,87.52c5.91-13.71,15.9-23.34,28.12-27.13C44.55,58.92,49.36,57.94,54,57c5.81-1.18,11.3-2.29,16.18-4.22C67.12,27.07,73.87,13,74.72,11.34a9.23,9.23,0,0,1,6.34-4.81,22.65,22.65,0,0,1,4.6-.47c8.61,0,15.51,4.79,16.27,5.34a9.24,9.24,0,0,1,2.5,12.29,68.64,68.64,0,0,0-7.15,15.64,83.79,83.79,0,0,1,8.17-3.15,80.91,80.91,0,0,1,24.49-3.76c26.59,0,48.79,12.62,57.93,32.93,9.86,21.89,8.89,46.43,6.34,63.17-3.19,21-10.91,42.42-21.16,58.77C161.92,205.05,146.31,207,140.11,207h0a28.26,28.26,0,0,1-5.34-.47,8.19,8.19,0,0,0-1.54-.15,8,8,0,0,0-5.25,2.07,3,3,0,0,1-.21.22C121.82,214.76,113.36,218,103.28,218Z"/>
    <path class="a3c17fdf-445c-4ceb-9693-24d348a911e5" d="M98.65,213.37a61.5,61.5,0,0,1-20.8-3.91C49,198,23.84,172.92,7.08,138.81c-7.7-15.69-7.71-38.16,0-55.92,5.91-13.7,15.89-23.34,28.12-27.13,4.78-1.47,9.59-2.44,14.25-3.38,5.8-1.18,11.29-2.29,16.18-4.22C62.5,22.45,69.25,8.36,70.1,6.72A9.27,9.27,0,0,1,76.44,1.9,23.3,23.3,0,0,1,81,1.44,30.15,30.15,0,0,1,97.3,6.78a9.23,9.23,0,0,1,2.51,12.29,68.44,68.44,0,0,0-7.15,15.64,78.15,78.15,0,0,1,32.66-6.92c26.59,0,48.79,12.62,57.93,32.94,9.85,21.89,8.89,46.43,6.34,63.16-3.19,21-10.91,42.43-21.16,58.78-11.13,17.76-26.75,19.68-32.94,19.68h0a28.26,28.26,0,0,1-5.34-.47,8.38,8.38,0,0,0-1.55-.15,8,8,0,0,0-5.24,2.07,2.11,2.11,0,0,1-.22.22C117.2,210.13,108.73,213.37,98.65,213.37Z"/>
    <g id="f8e03c80-536a-4438-a922-865f8c249bfd" data-name="Apple">
      <g>
        <g>
          <path class="f86ce824-d13d-457c-b8fe-8de75be11177" d="M76.82,53.19c-2.49,1.24-5,2.41-7.56,3.45-9.93,4-21.16,4.81-31.38,8C11.8,72.68,4.55,112.66,15.37,134.73c13.89,28.27,36.1,54.33,65.88,66.14,0,0,23.15,9.18,35.26-3.3A17.14,17.14,0,0,1,132,192.81s16.91,3.67,28.65-15.06c18.83-30,29.38-79.57,14.22-113.23-11.74-26.09-46.09-32.24-71.16-24.16C94.13,43.43,85.69,48.73,76.82,53.19Z"/>
          <path class="a3747b9d-00f6-4977-923d-60d759edf3a6" d="M113.57,60.56s-12.85,15.8-25.7,18.38-19.11,3.3-32.7.74c14.32,2.71,25.93-2.54,39-7.23C100.67,70.1,109.19,66,113.57,60.56Z"/>
          <path class="a947b8f5-1e52-4d5c-8faf-f455979d485d" d="M42.57,72.33c6.49-2.94,27.61-5.15,28-5.25.86-.23,8.06-1.42,8.31-2.28.74-2.49-7.12-4-9.68-4.16-3.32-.2-15.54.43-18.79,1.19-6.59,1.55-12.49,3.47-18.3,7-15,9.08-21.9,29.43-19.87,46.87s10,30.85,20.61,44.84C44,175.22,57.2,188.85,73.7,197.12c12.65,6.34,28.8,8.82,40.71,1.16,3.45-2.2,6.72-5.37,10.67-6.38,3.75-1,7.33.4,11.18.63,3.07.2,11.33-1.62,10.34-5.12-1.82-6.46-18.07-3.37-25.57-1-3.83,1.19-7.3,3.42-11.16,4.48C100.7,193.47,91,189.31,83,184.09c-18.83-12.24-33-30.72-43.27-50.77-7.12-14-12.54-30-8.72-45.18,1.52-6,4.74-12,10.19-15.1A13.57,13.57,0,0,1,42.57,72.33Z"/>
          <path class="a4427dd9-c60f-4500-9f2e-b0fdb6e73274" d="M73.7,197.14c12.65,6.34,28.8,8.82,40.71,1.17,3.45-2.21,6.72-5.37,10.67-6.39,3.75-1,7.33.41,11.18.64,3.07.2,11.33-1.63,10.34-5.13-1.82-6.46-18.07-3.37-25.57-1-3.83,1.19-7.3,3.42-11.16,4.49"/>
          <path class="ef6d9e07-c015-4da4-b84f-ed84269bc69b" d="M89,74.15S69.85,50.65,91.9,14.28c0,0-6.62-4.77-13.59-3.32,0,0-11.76,22.76,3.68,65.75Z"/>
          <path class="a881ce2f-a602-4c8e-9781-e9a8a48ffaff" d="M116.92,80.29s-11,12.52-43.19,15.91c0,0-22-2.35-2.84-7s16.37-2.54,24.91-6,15.9-7.86,18.84-8.12S120.37,77.55,116.92,80.29Z"/>
        </g>
        <path class="a881ce2f-a602-4c8e-9781-e9a8a48ffaff" d="M160.52,59.25c2.56,3.6,7.33,10.29,8.19,15.51.07,1,2.15,10.29-2.26,7.63-7.91-4.79-6.56-11.23-12.7-16.22-3.37-2.77-8.41-4.69-12.14-7.91-4.26-3.68-2.69-7.84,2.81-6.92C144.42,51.36,155.53,52.25,160.52,59.25Z"/>
        <ellipse class="a881ce2f-a602-4c8e-9781-e9a8a48ffaff" cx="172.02" cy="99.65" rx="4.66" ry="6.57" transform="translate(-9.14 17.79) rotate(-5.77)"/>
      </g>
    </g>
  </g>
</svg>
