<svg id="f4dfd545-70b6-408e-8089-9d644f723fa8" data-name="Layer 1" xmlns="http://www.w3.org/2000/svg" width="164.44" height="238.8" viewBox="0 0 164.44 238.8">
  <defs>
    <style>
      .ff262426-2ebd-421b-af63-d385bee4a4bc {
        opacity: 0.5;
      }

      .a4827a24-72ec-438c-8c9d-fb7e246fc38e, .b654a039-29ff-41c3-bbf9-6ea4702aca20, .bff90299-e2ae-4f5e-ae56-53f7a938fa23, .fe8ef611-4d6a-486a-91f8-ca571116f910, .ff262426-2ebd-421b-af63-d385bee4a4bc {
        isolation: isolate;
      }

      .bff90299-e2ae-4f5e-ae56-53f7a938fa23, .fe8ef611-4d6a-486a-91f8-ca571116f910 {
        fill: #fff;
      }

      .a12aec3d-3706-49b9-927a-12b1326a0291 {
        fill: #c42e00;
        stroke: #5b0000;
      }

      .a12aec3d-3706-49b9-927a-12b1326a0291, .aa362ac5-3453-4fee-b954-4152b20d13e7, .f54dd397-1a0d-491f-ae62-3c31cb06d846 {
        stroke-miterlimit: 10;
        stroke-width: 2px;
      }

      .f55a4fa2-daf7-4b0d-927e-ab26050fdf80 {
        fill: #fff6cc;
      }

      .b5b9f40a-5054-456a-a6c8-a3e6548c6047 {
        fill: #e03822;
      }

      .a4827a24-72ec-438c-8c9d-fb7e246fc38e {
        fill: #47332f;
        opacity: 0.42;
      }

      .aa362ac5-3453-4fee-b954-4152b20d13e7 {
        fill: #dda824;
        stroke: #8e5b00;
      }

      .e7281ae5-1db4-4632-a711-a00fe38858a2 {
        fill: #cc900a;
      }

      .f54dd397-1a0d-491f-ae62-3c31cb06d846 {
        fill: #ffc23b;
        stroke: #8c7400;
      }

      .fe8ef611-4d6a-486a-91f8-ca571116f910 {
        opacity: 0.55;
      }

      .b654a039-29ff-41c3-bbf9-6ea4702aca20 {
        font-size: 47.32px;
        fill: #f21100;
        font-family: MyriadPro-Regular, Myriad Pro;
      }

      .b75bcf1b-16bf-4995-9984-cf7ef7f88eb0 {
        letter-spacing: 0em;
      }

      .b5b418db-c08f-4a8e-9442-4a2b4a73229a {
        letter-spacing: 0em;
      }
    </style>
  </defs>
  <g>
    <path class="ff262426-2ebd-421b-af63-d385bee4a4bc" d="M85.33,235.56c-4,0-8-.07-11.94-.21a8.27,8.27,0,0,1-1.22-.13c-24.1-1-53.34-4.79-61.22-16.86-1.72-2.64-4.6-7.05-3.46-71.15.44-25,1.74-63,3.23-69C13.23,68,21,64.23,26,62.25A8,8,0,0,1,23,56V21.1c0-.23,0-.47,0-.7,0-7.5,8.07-9,10.72-9.49,2.95-.54,7.07-1,12.23-1.43,10.24-.8,23.81-1.24,38.2-1.24s28,.44,38.21,1.24c5.16.41,9.27.89,12.22,1.43,2.66.49,10.73,2,10.73,9.49V56a8,8,0,0,1-3.06,6.29c4.53,1.47,14,4.86,16.82,15.55,2.09,8,2.95,68.37,3,69,.89,63.33-1.54,68.58-2.58,70.82-3.2,6.87-12.4,11.45-29,14.44-12.32,2.23-28.36,3.45-45.15,3.45Z"/>
    <path class="bff90299-e2ae-4f5e-ae56-53f7a938fa23" d="M80.33,230.56c-4,0-8-.07-11.94-.21a8.27,8.27,0,0,1-1.22-.13c-24.1-1-53.34-4.79-61.22-16.86-1.72-2.64-4.6-7.05-3.46-71.15.44-25,1.74-63,3.23-69C8.23,63,16,59.23,21,57.25A8,8,0,0,1,18,51V16.1c0-.23,0-.47,0-.7,0-7.5,8.07-9,10.72-9.49,2.95-.54,7.07-1,12.23-1.43,10.24-.8,23.81-1.24,38.2-1.24s28,.44,38.21,1.24c5.16.41,9.27.89,12.22,1.43,2.66.49,10.73,2,10.73,9.49V51a8,8,0,0,1-3.06,6.29c4.53,1.47,14,4.86,16.82,15.55,2.09,8,2.95,68.37,3,69,.89,63.33-1.54,68.58-2.58,70.82-3.2,6.87-12.4,11.45-29,14.44-12.32,2.23-28.36,3.45-45.15,3.45Z"/>
    <g>
      <path class="a12aec3d-3706-49b9-927a-12b1326a0291" d="M145.81,75.09c-2.67-10.81-15.32-9.69-17.93-13.57-2.07-3.07-1.29-10.87-1.29-10.87L81.93,44.11h0L32.68,50.65s-.26,7.43-2.3,10.5c-2.61,3.9-14.23,3.13-16.89,13.94-2,8.26-5.68,126.47-.84,133.9,11.85,18.16,126.16,17.87,134,0C150.37,200.41,147.84,83.35,145.81,75.09Z"/>
      <path class="f55a4fa2-daf7-4b0d-927e-ab26050fdf80" d="M139,117.92a9.05,9.05,0,0,0-3.1-8.46c-3.61-3.3-9.44-4.91-15.09-5-2.58-.06-5.79-.17-6.77-2a5.21,5.21,0,0,1-.31-2.38c-.15-3-2.7-5.6-5.94-7.23a36.78,36.78,0,0,0-10.84-3Q89,88.49,80.92,88v-.06l-.37,0-.37,0V88a151.32,151.32,0,0,0-16.07,1.81,38,38,0,0,0-10.84,3c-3.21,1.63-5.76,4.27-5.91,7.23a5.21,5.21,0,0,1-.31,2.38c-1,1.81-4.22,1.89-6.77,2-5.65.14-11.45,1.75-15.09,5a9.1,9.1,0,0,0-3.1,8.46h-.17L33.39,178.7h94.32l11.47-60.78Z"/>
      <path class="b5b9f40a-5054-456a-a6c8-a3e6548c6047" d="M123.52,175.63H37.61a.81.81,0,0,1-.78-.63L26.37,119.64a1,1,0,0,1,.05-.49,9.13,9.13,0,0,1,3.16-7.92c3.18-2.89,8.37-4.64,14.25-4.81,2-.06,4.82-.15,5.51-1.38a2.92,2.92,0,0,0,.17-1.26v-.58c.15-2.75,2.33-5.45,5.83-7.25a35.06,35.06,0,0,1,10.09-2.87c4.74-.78,9.58-1.32,14.46-1.64a.68.68,0,0,1,.34-.06l.29,0,.29,0a.68.68,0,0,1,.34.06c4.88.32,9.73.86,14.46,1.64A34.2,34.2,0,0,1,105.71,96c3.5,1.77,5.68,4.5,5.82,7.25v.58a2.52,2.52,0,0,0,.2,1.26c.69,1.26,3.47,1.32,5.51,1.38,5.88.14,11.07,1.92,14.25,4.81a9.17,9.17,0,0,1,3.16,7.92.81.81,0,0,1,.06.49L124.24,175A.68.68,0,0,1,123.52,175.63Zm-85.25-1.58h84.62l10.24-54.24a.76.76,0,0,1-.06-.52,7.44,7.44,0,0,0-2.58-6.94c-2.9-2.64-7.72-4.24-13.22-4.39-2.56,0-5.71-.14-6.86-2.2a4.11,4.11,0,0,1-.37-2v-.49c-.12-2.15-2-4.42-5-5.94a33.07,33.07,0,0,0-9.64-2.69c-4.76-.78-9.64-1.32-14.57-1.64a.38.38,0,0,1-.18,0h-.25l-.18,0A142.67,142.67,0,0,0,65.69,94.6a33.94,33.94,0,0,0-9.64,2.69c-2.95,1.5-4.84,3.79-5,5.94v.49a4.17,4.17,0,0,1-.37,2c-1.12,2-4.3,2.12-6.86,2.2-5.5.15-10.32,1.75-13.22,4.39a7.44,7.44,0,0,0-2.58,6.94,1,1,0,0,1-.06.52Z"/>
      <path class="a4827a24-72ec-438c-8c9d-fb7e246fc38e" d="M146.32,74.89c-2.78-10.64-16.12-9.52-18.87-13.34-2.15-3-1.35-10.67-1.35-10.67l-47-6.39-11.67,1.6,35.28,4.82s-.06.66-.11,1.66l-70.37-.11-.8,7.89,73.17,1.83c3.62,3.16,15.7,2.7,18.33,12.77,2.13,8.12,4.79,125.92.86,134.36-3.61,7.71-27.93,12.1-55.16,13.05,35.14,1.23,73.9-3.16,78.51-13.05C151.11,200.82,148.45,83,146.32,74.89Z"/>
      <path class="aa362ac5-3453-4fee-b954-4152b20d13e7" d="M26,15.74V51h.23C28.8,53,51.52,54.47,79.14,54.47S129.51,53,132,51h.23V15.74Z"/>
      <path class="e7281ae5-1db4-4632-a711-a00fe38858a2" d="M116.55,15.74V51h-.23c-2.3,1.75-21,3.15-45,3.41,2.59,0,5.2,0,7.89,0,27.65,0,50.34-1.52,52.9-3.44h.23V15.74Z"/>
      <ellipse class="f54dd397-1a0d-491f-ae62-3c31cb06d846" cx="79.14" cy="15.4" rx="53.15" ry="4.16"/>
      <path class="fe8ef611-4d6a-486a-91f8-ca571116f910" d="M33.62,26.82c.2,5.56.43,11.15.63,16.72A4,4,0,0,0,34.48,45a3.21,3.21,0,0,0,.86,1.12,13.37,13.37,0,0,0,4.16,2.52c1.52.55,3.5.52,4.28-1.26a7.47,7.47,0,0,0,.37-2.64c0-6.05,0-12.22-1.32-18-.66-2.87-2.12-6.14-4.73-6.08C35.31,20.73,33.48,23.43,33.62,26.82Z"/>
      <path class="b5b9f40a-5054-456a-a6c8-a3e6548c6047" d="M119.45,163.15H41.05a2.49,2.49,0,0,1-2.49-2.49h0a2.49,2.49,0,0,1,2.49-2.5h78.4a2.5,2.5,0,0,1,2.49,2.5h0A2.46,2.46,0,0,1,119.45,163.15Z"/>
      <path class="b5b9f40a-5054-456a-a6c8-a3e6548c6047" d="M121.11,156.84H39.42a.86.86,0,0,1-.86-.86h0a.86.86,0,0,1,.86-.86h81.69a.86.86,0,0,1,.86.86h0A.86.86,0,0,1,121.11,156.84Z"/>
      <path class="fe8ef611-4d6a-486a-91f8-ca571116f910" d="M24.21,70.65c-2.29,1.86-3.12,5-3.47,7.88-.63,5.2-.17,10.47.29,15.67A14.1,14.1,0,0,0,22,98.7a4.54,4.54,0,0,0,3.41,2.78,4.32,4.32,0,0,0,3.84-2,8.71,8.71,0,0,0,1.38-4.27c.4-3.79-.34-7.6-.31-11.42s1-7.92,4-10.27A41.84,41.84,0,0,0,38,71c1.09-1.06,1.69-2.92.72-4.1A3.16,3.16,0,0,0,37.41,66c-2.84-1.06-3.7.63-5.88,1.72C29.15,68.9,26.39,68.87,24.21,70.65Z"/>
      <path class="fe8ef611-4d6a-486a-91f8-ca571116f910" d="M20.46,173.74a194.18,194.18,0,0,1-.2,20.33c-.35,5.77-.66,12.4,3.47,16.44,2.66,2.61,6.62,3.44,10.35,3.84a10,10,0,0,0,4.42-.25,3.75,3.75,0,0,0,2.61-3.24c0-1.67-1.49-3-3-3.68s-3.27-.91-4.71-1.75a9.07,9.07,0,0,1-4-6,32,32,0,0,1-.43-7.32,126.89,126.89,0,0,0-1.72-21.94c-.26-1.55-.63-3.21-1.86-4.19C20.8,162.41,20.37,171.76,20.46,173.74Z"/>
      <text class="b654a039-29ff-41c3-bbf9-6ea4702aca20" transform="translate(36.92 146.44)">J<tspan class="b75bcf1b-16bf-4995-9984-cf7ef7f88eb0" x="17.51" y="0">A</tspan><tspan class="b5b418db-c08f-4a8e-9442-4a2b4a73229a" x="46.28" y="0">M</tspan></text>
    </g>
    <text class="b654a039-29ff-41c3-bbf9-6ea4702aca20" transform="translate(36.92 146.44)">J<tspan class="b75bcf1b-16bf-4995-9984-cf7ef7f88eb0" x="17.51" y="0">A</tspan><tspan class="b5b418db-c08f-4a8e-9442-4a2b4a73229a" x="46.28" y="0">M</tspan></text>
  </g>
</svg>
