<svg id="b9b7003b-176a-4cea-86b5-38fb93e997d6" data-name="Layer 1" xmlns="http://www.w3.org/2000/svg" width="117.94" height="169.98" viewBox="0 0 117.94 169.98">
  <defs>
    <style>
      .ab82f295-03ab-420b-93c2-eec274ea20fc {
        opacity: 0.5;
      }

      .fcf18ed9-68b4-408f-91d7-41ede819fb8e {
        fill: #fff;
      }

      .bcb2918b-e252-401e-8c1e-94a16a9d0879 {
        fill: #ffb600;
        stroke: #9b6312;
        stroke-width: 2px;
      }

      .bcb2918b-e252-401e-8c1e-94a16a9d0879, .ee280f8b-5319-48c2-a9d7-c9fb9cc1c4eb {
        stroke-miterlimit: 10;
      }

      .b17b6905-837c-4472-9a45-fe302e8f7f3c {
        fill: #e6a324;
      }

      .a2ea74d2-0d53-491f-b831-36106946fed8 {
        fill: #fcd766;
      }

      .ee280f8b-5319-48c2-a9d7-c9fb9cc1c4eb {
        fill: #875f29;
        stroke: #63410f;
        stroke-width: 0.75px;
      }

      .fc9e09e1-14af-41d8-9693-8a7d1695faad {
        fill: #f1ac1d;
      }
    </style>
  </defs>
  <g>
    <path class="ab82f295-03ab-420b-93c2-eec274ea20fc" d="M32,167.1c-5.53,0-15.62-.94-21-6.32a12.47,12.47,0,0,1-1.83-2.31c-5.44-9-3.14-16.6-.48-25.42,2.29-7.54,5.13-16.94,5.12-31.74,0-16.8.71-36.14,6.12-52.17C28.77,23,46.64,17.46,60.07,17.46a61.7,61.7,0,0,1,11,1.06,43.5,43.5,0,0,1,5.21-9.23,6.17,6.17,0,0,1,7.87-1.84,12.06,12.06,0,0,0,3.09,1.12,6.17,6.17,0,0,1,3,10.51A22.48,22.48,0,0,0,87,22.92,41.64,41.64,0,0,1,106.5,37c9,12.12,11.56,30,7.69,54.6v.08h0c-.16,1-.33,2-.52,3.11a97.69,97.69,0,0,1-8.59,26.66c-.28.57-.57,1.15-.87,1.71a82.88,82.88,0,0,1-6.73,10.76l-.82,1.1c-.91,1.18-1.84,2.34-2.78,3.44l-.47.54c-1.09,1.25-2.21,2.46-3.33,3.6l-.07.07A81.91,81.91,0,0,1,68.93,158c-.69.35-1.38.69-2.07,1-1.47.7-3,1.36-4.44,2l-1.66.65c-.88.34-1.77.67-2.66,1a79,79,0,0,1-25.5,4.51Z"/>
    <path class="fcf18ed9-68b4-408f-91d7-41ede819fb8e" d="M28.16,163.24c-5.53-.05-15.61-.94-21-6.32a11.69,11.69,0,0,1-1.83-2.31c-5.45-9-3.15-16.6-.48-25.41C7.12,121.65,10,112.25,10,97.45c0-16.8.72-36.14,6.13-52.16,8.83-26.19,26.7-31.68,40.13-31.68a61.67,61.67,0,0,1,11,1.05,43.25,43.25,0,0,1,5.2-9.23,6.18,6.18,0,0,1,7.88-1.84,11.57,11.57,0,0,0,3.09,1.12,6.18,6.18,0,0,1,3,10.52,23,23,0,0,0-3.21,3.83c6.29,2.35,13.73,6.29,19.52,14.05,9,12.11,11.55,30,7.68,54.59v.08h0c-.16,1-.33,2.06-.52,3.11a98,98,0,0,1-8.58,26.66c-.29.58-.58,1.15-.88,1.72A83.44,83.44,0,0,1,93.61,130c-.27.37-.54.74-.82,1.1-.9,1.18-1.84,2.34-2.78,3.44l-.47.54c-1.09,1.25-2.21,2.46-3.33,3.6l-.07.07a81.68,81.68,0,0,1-21.07,15.36l-2.06,1c-1.47.7-3,1.36-4.45,2-.55.22-1.1.45-1.66.66-.88.34-1.77.66-2.65,1a79.12,79.12,0,0,1-25.51,4.5Z"/>
    <g>
      <path class="bcb2918b-e252-401e-8c1e-94a16a9d0879" d="M73.5,22.48c-54.66-15.74-57.39,40.63-57.37,75,0,32.71-13.27,41.21-5.54,54S91.4,160,103.73,89.83C113.53,34,87.87,26.62,73.5,22.48Z"/>
      <path class="b17b6905-837c-4472-9a45-fe302e8f7f3c" d="M92.81,32.72c6.78,8.91,11.59,23.74,6.86,50.72-11.78,67.23-81.55,71.19-88.93,59-.94-1.56-.63-3.37-1-4.86-1.08,4.86-2,9.23.84,13.84,7.73,12.75,80.81,8.64,93.14-61.57C109.49,57,102.07,41.23,92.81,32.72Z"/>
      <path class="a2ea74d2-0d53-491f-b831-36106946fed8" d="M16.93,97.45c0,18.09-2.53,27.66-4.85,35.76l-.48,1.95A70.62,70.62,0,0,0,21.69,102c1-19.82.24-51.28,11.81-64.61S54.84,19.6,72.74,23.21C18.08,7.48,16.91,63.11,16.93,97.45Z"/>
      <path class="a2ea74d2-0d53-491f-b831-36106946fed8" d="M35.34,42.57c3.73-8.9,9.44-12.24,11.95-10.4s-5.19,5-9.14,12.56S31,53,35.34,42.57Z"/>
      <path class="a2ea74d2-0d53-491f-b831-36106946fed8" d="M31.69,52.32c1,1.14-.82,7.1-1.86,4.82S30.37,50.82,31.69,52.32Z"/>
      <path class="ee280f8b-5319-48c2-a9d7-c9fb9cc1c4eb" d="M77.41,9.05c-2.72,3.76-5.91,9.35-6.12,15.13a5,5,0,0,1,2.4.6,33.22,33.22,0,0,1,8.4-14A17.8,17.8,0,0,1,77.41,9.05Z"/>
      <path class="fc9e09e1-14af-41d8-9693-8a7d1695faad" d="M30.53,74.62a.7.7,0,0,0-.09,1.4A.7.7,0,0,0,30.53,74.62Z"/>
      <path class="fc9e09e1-14af-41d8-9693-8a7d1695faad" d="M37.79,82l-.23,0a.7.7,0,0,0-.1,1.4h.23A.7.7,0,0,0,37.79,82Z"/>
      <path class="fc9e09e1-14af-41d8-9693-8a7d1695faad" d="M36.63,92.14h-.24a.7.7,0,0,0-.09,1.4h.23A.7.7,0,0,0,36.63,92.14Z"/>
      <path class="fc9e09e1-14af-41d8-9693-8a7d1695faad" d="M24.51,112.58l0,.24a.7.7,0,0,0,1.4.09v-.23A.7.7,0,0,0,24.51,112.58Z"/>
      <path class="fc9e09e1-14af-41d8-9693-8a7d1695faad" d="M26.67,107.29v.24a.7.7,0,0,0,1.39.09l0-.23A.7.7,0,0,0,26.67,107.29Z"/>
      <path class="fc9e09e1-14af-41d8-9693-8a7d1695faad" d="M89.72,75.08l-.21-.48c-.36-.82-1.62-.2-1.26.62l.21.48C88.83,76.53,90.08,75.9,89.72,75.08Z"/>
      <path class="fc9e09e1-14af-41d8-9693-8a7d1695faad" d="M79.42,83.17a.7.7,0,0,0-.09,1.4A.7.7,0,0,0,79.42,83.17Z"/>
      <path class="fc9e09e1-14af-41d8-9693-8a7d1695faad" d="M92.64,81.16a.7.7,0,0,0-.1,1.4A.7.7,0,0,0,92.64,81.16Z"/>
      <path class="fc9e09e1-14af-41d8-9693-8a7d1695faad" d="M86,80.14a.7.7,0,0,0-.1,1.4A.7.7,0,0,0,86,80.14Z"/>
      <path class="fc9e09e1-14af-41d8-9693-8a7d1695faad" d="M84.84,97.85a.7.7,0,0,0-.1,1.4A.7.7,0,0,0,84.84,97.85Z"/>
      <path class="fc9e09e1-14af-41d8-9693-8a7d1695faad" d="M80.13,72.93l-.23,0a.7.7,0,0,0-.1,1.4H80A.7.7,0,0,0,80.13,72.93Z"/>
      <path class="fc9e09e1-14af-41d8-9693-8a7d1695faad" d="M94.51,74.83a.7.7,0,0,0-.1,1.4A.7.7,0,0,0,94.51,74.83Z"/>
      <path class="fc9e09e1-14af-41d8-9693-8a7d1695faad" d="M42.89,73.15a.7.7,0,0,0-.09,1.4A.7.7,0,0,0,42.89,73.15Z"/>
      <path class="fc9e09e1-14af-41d8-9693-8a7d1695faad" d="M33.69,78.43a.7.7,0,0,0-.09,1.39A.7.7,0,0,0,33.69,78.43Z"/>
      <path class="fc9e09e1-14af-41d8-9693-8a7d1695faad" d="M39,61.56A.7.7,0,0,0,38.9,63,.7.7,0,0,0,39,61.56Z"/>
      <path class="fc9e09e1-14af-41d8-9693-8a7d1695faad" d="M31.81,83.5l0,.23a.7.7,0,0,0,1.4.1l0-.24A.7.7,0,0,0,31.81,83.5Z"/>
      <path class="fc9e09e1-14af-41d8-9693-8a7d1695faad" d="M35.05,71.9a.7.7,0,0,0-.1,1.4A.7.7,0,0,0,35.05,71.9Z"/>
      <path class="fc9e09e1-14af-41d8-9693-8a7d1695faad" d="M18.17,137.88l-.23,0a1.4,1.4,0,0,0-.2,2.8H18A1.4,1.4,0,0,0,18.17,137.88Z"/>
      <path class="fc9e09e1-14af-41d8-9693-8a7d1695faad" d="M64.77,30.27v.23a1.4,1.4,0,0,0,2.79.2l0-.24A1.4,1.4,0,0,0,64.77,30.27Z"/>
      <path class="fc9e09e1-14af-41d8-9693-8a7d1695faad" d="M79.44,28.66v.23a1.4,1.4,0,0,0,2.79.2l0-.24A1.4,1.4,0,0,0,79.44,28.66Z"/>
      <path class="fc9e09e1-14af-41d8-9693-8a7d1695faad" d="M73.22,28.34H73a.7.7,0,0,0-.09,1.39l.23,0A.7.7,0,0,0,73.22,28.34Z"/>
      <path class="fc9e09e1-14af-41d8-9693-8a7d1695faad" d="M66.71,24.29h-.23a.7.7,0,0,0-.1,1.39l.23,0A.7.7,0,0,0,66.71,24.29Z"/>
      <path class="fc9e09e1-14af-41d8-9693-8a7d1695faad" d="M79.76,34.18v.23a.7.7,0,0,0,1.39.1l0-.23A.7.7,0,0,0,79.76,34.18Z"/>
      <path class="fc9e09e1-14af-41d8-9693-8a7d1695faad" d="M74.8,31.76l0,.23a.7.7,0,0,0,1.4.1l0-.23A.7.7,0,0,0,74.8,31.76Z"/>
      <path class="fc9e09e1-14af-41d8-9693-8a7d1695faad" d="M85.7,32.43a.7.7,0,0,0-.1,1.4A.7.7,0,0,0,85.7,32.43Z"/>
      <path class="fc9e09e1-14af-41d8-9693-8a7d1695faad" d="M60.21,25.27a.7.7,0,0,0-.1,1.39A.7.7,0,0,0,60.21,25.27Z"/>
      <path class="fc9e09e1-14af-41d8-9693-8a7d1695faad" d="M54,31.81a.7.7,0,0,0-.09,1.4A.7.7,0,0,0,54,31.81Z"/>
      <path class="fc9e09e1-14af-41d8-9693-8a7d1695faad" d="M30.52,102.47a.7.7,0,0,0-.1,1.4A.7.7,0,0,0,30.52,102.47Z"/>
      <path class="fc9e09e1-14af-41d8-9693-8a7d1695faad" d="M15,132.52l-.23,0a.7.7,0,0,0-.1,1.4h.23A.7.7,0,0,0,15,132.52Z"/>
      <path class="fc9e09e1-14af-41d8-9693-8a7d1695faad" d="M13.88,137.58h-.23a.7.7,0,0,0-.1,1.39l.24,0A.7.7,0,0,0,13.88,137.58Z"/>
      <path class="fc9e09e1-14af-41d8-9693-8a7d1695faad" d="M22.08,141.78l-.23,0a.7.7,0,0,0-.1,1.4l.23,0A.7.7,0,0,0,22.08,141.78Z"/>
      <path class="fc9e09e1-14af-41d8-9693-8a7d1695faad" d="M19.87,132.85a.7.7,0,0,0-.09,1.4A.7.7,0,0,0,19.87,132.85Z"/>
      <path class="fc9e09e1-14af-41d8-9693-8a7d1695faad" d="M14.37,142l-.23,0a.7.7,0,0,0-.1,1.4h.24A.7.7,0,0,0,14.37,142Z"/>
      <path class="fc9e09e1-14af-41d8-9693-8a7d1695faad" d="M42.25,136.74a.7.7,0,0,0-.1,1.4A.7.7,0,0,0,42.25,136.74Z"/>
      <path class="fc9e09e1-14af-41d8-9693-8a7d1695faad" d="M48.22,137.16l-.24,0a.7.7,0,0,0-.09,1.4h.23A.7.7,0,0,0,48.22,137.16Z"/>
      <path class="fc9e09e1-14af-41d8-9693-8a7d1695faad" d="M25.22,100.7a.7.7,0,0,0-.1,1.4A.7.7,0,0,0,25.22,100.7Z"/>
      <path class="fc9e09e1-14af-41d8-9693-8a7d1695faad" d="M74,115.43a.7.7,0,0,0-.1,1.4A.7.7,0,0,0,74,115.43Z"/>
      <path class="fc9e09e1-14af-41d8-9693-8a7d1695faad" d="M53.21,130.48H53a.7.7,0,0,0-.1,1.4h.24A.7.7,0,0,0,53.21,130.48Z"/>
      <path class="fc9e09e1-14af-41d8-9693-8a7d1695faad" d="M72,124.07v.23a.7.7,0,0,0,1.39.1l0-.23A.7.7,0,0,0,72,124.07Z"/>
      <path class="fc9e09e1-14af-41d8-9693-8a7d1695faad" d="M85.88,111.7l-.25.22a.7.7,0,0,0,.92,1l.25-.21A.7.7,0,0,0,85.88,111.7Z"/>
      <path class="fc9e09e1-14af-41d8-9693-8a7d1695faad" d="M28,79.61a.7.7,0,0,0-.1,1.39A.7.7,0,0,0,28,79.61Z"/>
      <path class="fc9e09e1-14af-41d8-9693-8a7d1695faad" d="M82.21,86.52a.7.7,0,0,0-.1,1.4A.7.7,0,0,0,82.21,86.52Z"/>
      <path class="fc9e09e1-14af-41d8-9693-8a7d1695faad" d="M64.42,90a.7.7,0,0,0-.09,1.4A.7.7,0,0,0,64.42,90Z"/>
      <path class="fc9e09e1-14af-41d8-9693-8a7d1695faad" d="M88.82,86.37l-.21-.25a.7.7,0,0,0-1.06.92l.22.25A.7.7,0,0,0,88.82,86.37Z"/>
      <path class="fc9e09e1-14af-41d8-9693-8a7d1695faad" d="M54.35,98.54l-.21-.25a.7.7,0,0,0-1.06.92c.07.08.15.16.22.25A.7.7,0,0,0,54.35,98.54Z"/>
      <path class="fc9e09e1-14af-41d8-9693-8a7d1695faad" d="M61.21,104.74l-.21-.25a.7.7,0,0,0-1.06.92l.22.25A.7.7,0,0,0,61.21,104.74Z"/>
    </g>
  </g>
</svg>
