<svg id="bbe7a7ec-2c70-42f8-828e-f7af16ec914f" data-name="Layer 1" xmlns="http://www.w3.org/2000/svg" width="171.12" height="280.62" viewBox="0 0 171.12 280.62">
  <defs>
    <style>
      .fa21a77d-04de-451c-861c-84123d6bd2ef {
        opacity: 0.5;
      }

      .f062f23d-b681-4555-84fd-fc037b389489, .f4e2c2f6-1cce-4472-af4a-0adfee3aedea {
        fill: #fff;
      }

      .b94ec0e6-1258-4e83-8145-b8069c4dca88 {
        fill: #db9a56;
        stroke: #6d4c24;
      }

      .a16eef20-084b-4354-bbcd-7719d90cec16, .b3640944-23f3-4aa5-982d-1912201abfa5, .b926c808-e7bd-43b3-9a1e-e365647b2b3c, .b94ec0e6-1258-4e83-8145-b8069c4dca88, .e87eeeae-f99b-4b1a-a26f-fdcf2f5ca6e8, .f062f23d-b681-4555-84fd-fc037b389489 {
        stroke-miterlimit: 10;
        stroke-width: 0.75px;
      }

      .e87eeeae-f99b-4b1a-a26f-fdcf2f5ca6e8 {
        fill: #b57a45;
      }

      .a16eef20-084b-4354-bbcd-7719d90cec16, .e87eeeae-f99b-4b1a-a26f-fdcf2f5ca6e8 {
        stroke: #77451c;
      }

      .bcfdfa65-2d36-4976-8308-cdfe920080b0 {
        fill: #9e6638;
      }

      .f235cadd-3ae7-4b6f-8dc0-2995397068f6 {
        fill: #a36836;
      }

      .a55d4816-950b-43dc-a0bf-35a83aa5ee83 {
        fill: #77451c;
      }

      .be5430f3-54e6-48b8-9e50-2446d9e84515 {
        fill: #c1804f;
      }

      .b29e4e31-1fb7-40b8-b020-a3336d079a93, .b3640944-23f3-4aa5-982d-1912201abfa5 {
        fill: #fcddb9;
      }

      .a16eef20-084b-4354-bbcd-7719d90cec16 {
        fill: none;
      }

      .b926c808-e7bd-43b3-9a1e-e365647b2b3c, .b9804dd5-a3e2-4fb2-bd8f-b54f95209966 {
        fill: #d59858;
      }

      .b926c808-e7bd-43b3-9a1e-e365647b2b3c {
        stroke: #9b612d;
      }

      .e3bb840a-6074-451c-8eb3-29001ae9c4b9 {
        fill: #592e25;
      }

      .b8244627-53bf-40c1-a5ba-20e851de4961 {
        fill: #af713e;
      }

      .ad8b136d-eefe-4c94-ad7f-fb3c0db0b726 {
        fill: #ba7d47;
      }

      .b3640944-23f3-4aa5-982d-1912201abfa5 {
        stroke: #c19b76;
      }

      .af87afc1-d0d7-4aac-bae8-afbc2395253c {
        fill: #730d00;
      }

      .a1c29a21-3d3b-4181-8f1f-9bc911397239 {
        fill: #e28c8a;
      }

      .b528afa9-41ff-4fdf-a778-fcf7bc8037a4 {
        fill: #1f1f33;
      }

      .bc98e011-3f70-41d9-8f5c-d0d225f56764 {
        fill: #2b1909;
      }

      .a4aeccbf-b303-4e3b-bb8f-2db21ea40f8d {
        fill: #f9f5f2;
      }

      .f062f23d-b681-4555-84fd-fc037b389489 {
        stroke: #1f1f33;
      }

      .e8c7ded9-bea1-4cdc-b546-39ee78158519 {
        fill: #513117;
      }

      .e5503ddd-b68b-4e84-8ca5-eb6401b6470f {
        fill: #460d00;
      }
    </style>
  </defs>
  <g>
    <path class="fa21a77d-04de-451c-861c-84123d6bd2ef" d="M96.78,278.94a22.79,22.79,0,0,1-8.32-1.58l-.14-.05-.44-.17-2.13-.8A15.68,15.68,0,0,1,77.48,270a9.3,9.3,0,0,1-.7-1.46l-7.72,2.05-.4.1A88.33,88.33,0,0,1,50.13,273c-14.74,0-20.13-5.67-21.76-8.1a9.2,9.2,0,0,1-1.28-7.27,24.74,24.74,0,0,1,9.81-14.3,164.78,164.78,0,0,1-5.28-28c-.38-3.33-.7-6.81-1-10.42a12.55,12.55,0,0,1-2.28.21,12.81,12.81,0,0,1-7.71-2.64h-.51c-7.86,0-12.39-6.5-13.27-12.53a7.33,7.33,0,0,1-.09-1.15c-.24-12.63,2.36-20.42,4.5-24.66.17-.49.43-1.18.79-2,2.07-7,6.81-23.23,10.42-37.68,3-11.81,6.21-20.72,10-27.28-.49-.59-1-1.19-1.4-1.8A8.58,8.58,0,0,1,29.52,95a9.14,9.14,0,0,1-5.39-5A9,9,0,0,1,22,87a15.48,15.48,0,0,1-.79-2.22,9.17,9.17,0,0,1-2.37-5.71c-.33-6.6,2-13.64,4-18.47-5.62-6.37-7.66-14.93-4.83-22.52C21.26,29.52,29.85,24,40,24a27.93,27.93,0,0,1,6.55.78,56.5,56.5,0,0,1,8.21-5.45c0-.2,0-.4.07-.6a9.16,9.16,0,0,1,7.85-7.65c.78-.11,1.56-.18,2.36-.24A9.15,9.15,0,0,1,71.5,8.09a7.26,7.26,0,0,1,.8,0c1.18.1,2.32.26,3.42.46a9.12,9.12,0,0,1,4.49-1.18,9.26,9.26,0,0,1,2.38.31,43.17,43.17,0,0,1,11.83,5,54.53,54.53,0,0,1,20.13,7.72l.54-.3a28,28,0,0,1,13.45-3.53c8.59,0,16,4.13,19.8,11,5,9.17,2.25,20.78-6,28.29a55,55,0,0,1,1.36,14.21A38.78,38.78,0,0,1,138.83,88c10.1,16,15.89,38.71,15.82,62.54,5.46,4.84,11.44,12,14.1,21.44a36.06,36.06,0,0,1,.87,15.64c-2.23,13.78-9.72,18-14.86,19.24a293.18,293.18,0,0,1-12.43,49.33l-.17.49a5.75,5.75,0,0,0-.21,1.57,13.83,13.83,0,0,1-11.31,14.88l-25.13,4.71A44.73,44.73,0,0,1,96.78,278.94Zm-8.58-34a21.7,21.7,0,0,1,1.24,2.38c.43-.22.88-.43,1.34-.64-.86-2.7-1.76-5.29-2.65-7.67C88.12,241.39,88.16,243.43,88.2,244.91Z"/>
    <path class="f4e2c2f6-1cce-4472-af4a-0adfee3aedea" d="M91.05,273.22a22.53,22.53,0,0,1-8.31-1.59l-.15-.05-.44-.17L80,270.62a15.64,15.64,0,0,1-8.26-6.32,9,9,0,0,1-.71-1.47l-7.72,2.06-.4.09a88.31,88.31,0,0,1-18.52,2.28c-14.75,0-20.13-5.67-21.76-8.11a9.16,9.16,0,0,1-1.29-7.27,24.77,24.77,0,0,1,9.81-14.29,165.11,165.11,0,0,1-5.28-28.05c-.37-3.32-.7-6.8-1-10.41a12.71,12.71,0,0,1-2.28.21,12.84,12.84,0,0,1-7.72-2.65H14.4c-7.86,0-12.39-6.49-13.27-12.53A10.94,10.94,0,0,1,1,183C.8,170.39,3.4,162.6,5.55,158.37c.17-.5.42-1.19.78-2,2.07-7,6.81-23.24,10.43-37.69,2.95-11.81,6.2-20.71,10-27.28-.48-.59-1-1.19-1.4-1.8a8.79,8.79,0,0,1-1.57-.39,9.19,9.19,0,0,1-5.39-5,9.25,9.25,0,0,1-2.12-3,15.42,15.42,0,0,1-.78-2.22,9.12,9.12,0,0,1-2.38-5.71c-.33-6.59,2-13.64,4-18.47C11.54,48.52,9.51,40,12.34,32.37c3.19-8.58,11.78-14.12,21.88-14.12a28,28,0,0,1,6.56.78A55.92,55.92,0,0,1,49,13.57c0-.2.05-.4.08-.6A9.15,9.15,0,0,1,56.9,5.32c.78-.1,1.57-.18,2.36-.23a9.15,9.15,0,0,1,6.51-2.72l.8,0c1.18.1,2.32.26,3.42.46a9.13,9.13,0,0,1,4.5-1.18A9.24,9.24,0,0,1,76.86,2,43.65,43.65,0,0,1,88.69,7a54.77,54.77,0,0,1,20.14,7.73c.17-.11.35-.21.53-.31a28,28,0,0,1,13.46-3.53c8.59,0,16,4.13,19.79,11.06,5,9.16,2.26,20.77-6,28.28a55.51,55.51,0,0,1,1.35,14.21,38.82,38.82,0,0,1-4.84,17.89c10.11,16,15.89,38.71,15.83,62.53,5.45,4.84,11.44,12,14.09,21.44a36.1,36.1,0,0,1,.88,15.65c-2.24,13.77-9.72,18-14.86,19.23a294.63,294.63,0,0,1-12.43,49.33l-.17.49a5.64,5.64,0,0,0-.22,1.58,13.81,13.81,0,0,1-11.3,14.87l-25.14,4.72A44.65,44.65,0,0,1,91.05,273.22Zm-8.58-34a20.72,20.72,0,0,1,1.24,2.37l1.34-.64c-.85-2.7-1.76-5.29-2.64-7.67C82.4,235.66,82.43,237.71,82.47,239.19Z"/>
    <g>
      <g>
        <g>
          <path class="b94ec0e6-1258-4e83-8145-b8069c4dca88" d="M49.29,83.56c-2.84,4.49-13.71-2.36-23.64,37.35-4.81,19.23-11.59,41.61-11.59,41.61s12.3,13.71,15.61,6.15,14.42-27.19,27.42-40.19S49.29,83.56,49.29,83.56Z"/>
          <path class="b94ec0e6-1258-4e83-8145-b8069c4dca88" d="M15.09,160.31s-5.2,5.84-4.89,22.54c0,0,1.1,7.57,7.72,3.47,0,0,3.94,7.88,8.67,1.1,0,0,3.94,5.52,7.25,0s4.89-18-2.36-27.89"/>
          <path class="b94ec0e6-1258-4e83-8145-b8069c4dca88" d="M14.61,164.89s-2,.47-2,9.14,6.78,5.2,7.73-3.47c0,0,9.61,0,9.61-6.94"/>
          <path class="b94ec0e6-1258-4e83-8145-b8069c4dca88" d="M17.92,186.32s3-6.15,1.74-7.41-5.52-1.73-6.46,4.26"/>
          <path class="b94ec0e6-1258-4e83-8145-b8069c4dca88" d="M26.59,186.64s2.37-6.15,1.89-7.73S21.71,174.5,20,180.8"/>
          <path class="b94ec0e6-1258-4e83-8145-b8069c4dca88" d="M27.69,183.64s.32-6.62,6.15-4.73-.79,10.25-.79,10.25"/>
        </g>
        <path class="e87eeeae-f99b-4b1a-a26f-fdcf2f5ca6e8" d="M154.85,180.46c-3.78,23.32-24.85,7.48-28.7-3.25-4.35-12.13-7.8-26.78,5-32.81.38-.18,2.82.85,6,2.94,5.83,3.83,14.15,11.24,17,21.42A26.85,26.85,0,0,1,154.85,180.46Z"/>
        <path class="bcfdfa65-2d36-4976-8308-cdfe920080b0" d="M154.66,180.27c-3.78,23.32-24.85,7.49-28.7-3.25-4.35-12.13-7.8-26.78,5-32.8.39-.19,2.83.84,6,2.94,0,0,1.46,40.35,10.38,37.29,6-2.06,6.8-10.43,6.62-15.88A26.7,26.7,0,0,1,154.66,180.27Z"/>
        <path class="b94ec0e6-1258-4e83-8145-b8069c4dca88" d="M73.41,225.87c-.38,9,0,16.33,0,16.33,4.5,5.52,2.12,10,2.12,10L61,256c-25.65,5.6-30.72-2-30.72-2,2.34-9.61,12.28-11.89,12.28-11.89-3.75-8.55-6.1-20.92-7.54-33.66-2.89-25.58-2.1-52.67-1.58-53.45,12.64-19,51.62,30.85,45,43.55C75,205.11,73.81,216.41,73.41,225.87Z"/>
        <path class="f235cadd-3ae7-4b6f-8dc0-2995397068f6" d="M78.43,198.61c-3.39,6.5-4.62,17.8-5,27.26C54.22,225.74,42.34,218,35,208.51c-2.89-25.58-2.1-52.67-1.58-53.45C46.06,136.1,85,185.91,78.43,198.61Z"/>
        <g>
          <path class="a55d4816-950b-43dc-a0bf-35a83aa5ee83" d="M31.66,254.68A27.08,27.08,0,0,1,34.22,251a23.81,23.81,0,0,1,3.12-3.15,19,19,0,0,1,1.78-1.32,15.91,15.91,0,0,1,1.94-1.07,13,13,0,0,1,2.09-.74,12.49,12.49,0,0,1,2.18-.33,12.31,12.31,0,0,0-2.17.37,14.56,14.56,0,0,0-2.06.78,18.78,18.78,0,0,0-1.9,1.1A19.22,19.22,0,0,0,37.46,248a24,24,0,0,0-3,3.19A26.65,26.65,0,0,0,32,254.86Z"/>
          <path class="a55d4816-950b-43dc-a0bf-35a83aa5ee83" d="M36.64,257.25A15.93,15.93,0,0,1,37.78,255a20.22,20.22,0,0,1,1.44-2.08A19.94,19.94,0,0,1,40.91,251a18.77,18.77,0,0,1,1.92-1.63A18.41,18.41,0,0,1,47.21,247a21.31,21.31,0,0,1,4.85-1.23,21,21,0,0,0-4.81,1.32,18.68,18.68,0,0,0-4.31,2.49,19.52,19.52,0,0,0-1.87,1.65,20.92,20.92,0,0,0-1.63,1.88,18,18,0,0,0-1.37,2.06A15.19,15.19,0,0,0,37,257.38Z"/>
        </g>
        <path class="b94ec0e6-1258-4e83-8145-b8069c4dca88" d="M139.13,157.31a90.92,90.92,0,0,1-6.67,26.17c-10.5,24.66-31,40.28-51.61,40.28-27.16,0-48.69-33.19-48.69-72.69A204.38,204.38,0,0,1,35.55,114c1.47-7.67,4.23-19.8,6.18-28.76.47-2.12-.88-3.09-.4-4.87,7.94-29.48,19-19.54,34.43-19.54C86.45,60.79,103.44,61,120,80,135.91,98.15,141.86,131,139.13,157.31Z"/>
        <path class="be5430f3-54e6-48b8-9e50-2446d9e84515" d="M133.77,184c-10.55,24.76-30.27,40-51,40C55.52,224,33,191.12,33,151.48a210.62,210.62,0,0,1,3.95-37.24C38.42,106.54,41.45,93,43.42,84c2,1.39,1.21,5.75,2.82,8.35,0,0-21.65,87.76,21.94,121.81,0,0,18.43,11.86,36.43-4.41s24.69-50.16,25.71-50.27C130.84,159.41,132.43,171.6,133.77,184Z"/>
        <path class="b94ec0e6-1258-4e83-8145-b8069c4dca88" d="M84.48,214.61s7.84,16,11.76,32.34c0,0-15.66,2.62-16.61,12.66A6.93,6.93,0,0,0,83.19,262c5.26,1.93,6.24,2.84,14.81,1.14l25.23-4.73a4.74,4.74,0,0,0,3.87-5.05,14.57,14.57,0,0,1,.53-4.94C128,247.09,150.11,188,139.4,146"/>
        <path class="b29e4e31-1fb7-40b8-b020-a3336d079a93" d="M110.76,182.3c-1.34,30.54-38.43,32.39-52.82,27.43C45,205.28,34.33,183.89,35.67,153.35s4.22-52.72,17.74-54.62C79.81,95,112.1,151.76,110.76,182.3Z"/>
        <path class="a55d4816-950b-43dc-a0bf-35a83aa5ee83" d="M93,247.37a10.35,10.35,0,0,1,5.36-.76,27,27,0,0,1,5.21.94c.85.23,1.68.51,2.52.78s1.65.59,2.46.93,1.62.67,2.42,1l2.37,1.13-2.41-1c-.8-.34-1.63-.63-2.44-.95s-1.66-.56-2.49-.84-1.68-.49-2.52-.69a27.33,27.33,0,0,0-5.15-.74,14.7,14.7,0,0,0-2.57.11,6.91,6.91,0,0,0-2.33.71Z"/>
        <path class="a16eef20-084b-4354-bbcd-7719d90cec16" d="M40.49,242.86s6.83-3.91,18.42,3"/>
        <path class="be5430f3-54e6-48b8-9e50-2446d9e84515" d="M108.8,47.31c6.91,13.11.27,36.82-21.76,48.43s-37.7,8.18-44.6-4.92S40,59.9,62,48.29,101.9,34.21,108.8,47.31Z"/>
        <g>
          <g>
            <path class="b94ec0e6-1258-4e83-8145-b8069c4dca88" d="M131.43,101c9.63,24.2-3.52,45-3.52,45-10.59,25-39.57,32.38-39.57,32.38-9.93,19.16-21.4,14.59-21.4,14.59-4.55-.29-3-5.19-3-5.19s2.42,1.2-1.73-.76a4.66,4.66,0,0,1-2.77-5.79c-2.5-1.48-1.67-5.47-1.67-5.47,2-3.81,7.82-.72,8.25-1,10.19-6.45-3.3-4-2.47-9.73.86-6,10.94-2,18.84-1.43,3,.23,6.4-5.36,10.11-10,19.36-24.09,15.08-31.51,15.08-31.51"/>
            <g>
              <path class="b926c808-e7bd-43b3-9a1e-e365647b2b3c" d="M58,179.21a2.43,2.43,0,0,0,.34.75l.11.17.13.14.12.15a.81.81,0,0,0,.14.12,3.73,3.73,0,0,0,1.2.72,6.85,6.85,0,0,0,2.62.28,11.46,11.46,0,0,0,1.31-.18,11.82,11.82,0,0,0,1.31-.3l.65-.19.32-.09.32-.12,1.29-.47-1.28.5-.32.12-.32.1-.65.2a10,10,0,0,1-1.31.32,11.7,11.7,0,0,1-1.32.21A6.65,6.65,0,0,1,60,181.4a3.71,3.71,0,0,1-1.24-.71,1.49,1.49,0,0,1-.14-.12l-.13-.15-.14-.15-.12-.18a2.35,2.35,0,0,1-.37-.83Z"/>
              <g>
                <path class="b926c808-e7bd-43b3-9a1e-e365647b2b3c" d="M63,187.34a6.79,6.79,0,0,0,9.28-1.82"/>
                <path class="b926c808-e7bd-43b3-9a1e-e365647b2b3c" d="M63,187.25a8.56,8.56,0,0,0,2.37,1,6.38,6.38,0,0,0,2.46.12,5.88,5.88,0,0,0,2.37-.89,8.09,8.09,0,0,0,2.06-1.92,8.43,8.43,0,0,1-2,2,6,6,0,0,1-2.39.94,6.68,6.68,0,0,1-2.48-.07,8.44,8.44,0,0,1-2.39-.92Z"/>
              </g>
            </g>
          </g>
          <path class="a55d4816-950b-43dc-a0bf-35a83aa5ee83" d="M107.72,123.39a36.87,36.87,0,0,1-2.45-8.73,46.1,46.1,0,0,1-.56-9,47.8,47.8,0,0,1,1.17-8.93c.28-1.48.77-2.91,1.18-4.35s1-2.82,1.54-4.23c-.48,1.42-1,2.82-1.45,4.26s-.84,2.88-1.08,4.36a45.94,45.94,0,0,0-1,8.9,45,45,0,0,0,.74,8.9,35.41,35.41,0,0,0,2.57,8.5Z"/>
        </g>
        <g>
          <g>
            <path class="e3bb840a-6074-451c-8eb3-29001ae9c4b9" d="M52.68,30.15c-6.71-4.89-10.8,1.46-10.76,6.49C44.3,32,48,30.16,52.68,30.15Z"/>
            <g>
              <path class="b94ec0e6-1258-4e83-8145-b8069c4dca88" d="M49,34.36a18.63,18.63,0,0,0-8.06-5.72c-8.45-3.15-17.41-.05-20,6.93s2.15,15.18,10.6,18.33A18,18,0,0,0,44.25,54"/>
              <g>
                <path class="b8244627-53bf-40c1-a5ba-20e851de4961" d="M45.09,37.54a9.38,9.38,0,0,0-4.36-3.28c-4.32-1.61-8.93,0-10.29,3.69s1,7.91,5.37,9.52a8.66,8.66,0,0,0,8.17-.9C43.27,45.1,44.22,39.78,45.09,37.54Z"/>
                <path class="ad8b136d-eefe-4c94-ad7f-fb3c0db0b726" d="M43.73,44.73A7,7,0,0,1,40.52,46c-3.85.6-9.31-1.64-10-5.13A15.89,15.89,0,0,1,30.42,38s0-.05,0-.07c1.36-3.65,6-5.3,10.29-3.69a9.38,9.38,0,0,1,4.36,3.28A25.25,25.25,0,0,0,43.73,44.73Z"/>
              </g>
            </g>
            <g>
              <path class="b94ec0e6-1258-4e83-8145-b8069c4dca88" d="M41.66,30.69c7.49-8.13,18.24-13.65,31.26-15s24,1.78,33,8.13c12.92,9.09,23.44,20.54,22.85,40.37C128.09,87.54,103,99,81.69,101.28S35.7,96.76,27.84,75C22.35,59.79,31,42.31,41.66,30.69Z"/>
              <path class="b3640944-23f3-4aa5-982d-1912201abfa5" d="M60,48.22c3.41-.37,6.4,8.06,13.74,10.91,6.92,2.7,2.83,4.63,3.84,6.83,4.88,10.65,4,22.16-14.66,24.16C50.45,91.47,44,82.86,41.23,71.77s4.29-16,8-18.44C54.14,50.09,57.13,48.53,60,48.22Z"/>
              <path class="af87afc1-d0d7-4aac-bae8-afbc2395253c" d="M53,58.86c7.11-.76,11.48.49,11.7,2.56s-2.73,7.1-10.3,7.91-9.31-3.7-9.24-5.81S45.83,59.63,53,58.86Z"/>
              <path class="e3bb840a-6074-451c-8eb3-29001ae9c4b9" d="M71.52,31.5c5.53-6.21,10.87-.87,11.88,4.06C80.1,31.56,76.11,30.51,71.52,31.5Z"/>
              <polygon class="af87afc1-d0d7-4aac-bae8-afbc2395253c" points="53.81 76.63 54.29 76.58 54.14 67.32 52 67.55 53.81 76.63"/>
              <path class="a1c29a21-3d3b-4181-8f1f-9bc911397239" d="M50.41,60.69c.06.58,1.49.9,3.19.72s3-.8,3-1.38-1.49-.9-3.19-.72S50.35,60.11,50.41,60.69Z"/>
              <g>
                <path class="b94ec0e6-1258-4e83-8145-b8069c4dca88" d="M117.18,48.42A18.65,18.65,0,0,0,126.77,46c7.9-4.35,11.4-13.17,7.81-19.69s-12.89-8.27-20.79-3.91A18.05,18.05,0,0,0,105.37,32"/>
                <g>
                  <path class="b8244627-53bf-40c1-a5ba-20e851de4961" d="M117.32,43.39a9.3,9.3,0,0,0,5.33-1.17c4-2.23,5.8-6.8,3.92-10.21s-6.67-4.36-10.71-2.14a8.72,8.72,0,0,0-4.66,6.79C112.78,37.08,116.19,41.27,117.32,43.39Z"/>
                  <path class="ad8b136d-eefe-4c94-ad7f-fb3c0db0b726" d="M112.76,37.67a7.16,7.16,0,0,1,1.15-3.25c2.07-3.31,7.32-6,10.38-4.2a16.36,16.36,0,0,1,2.24,1.72.43.43,0,0,0,0,.07c1.88,3.41.12,8-3.92,10.21a9.3,9.3,0,0,1-5.33,1.17A25.6,25.6,0,0,0,112.76,37.67Z"/>
                </g>
              </g>
              <g>
                <g>
                  <ellipse class="f4e2c2f6-1cce-4472-af4a-0adfee3aedea" cx="75.23" cy="47.03" rx="7.24" ry="8.4" transform="translate(-11.08 26.48) rotate(-18.62)"/>
                  <path class="b528afa9-41ff-4fdf-a778-fcf7bc8037a4" d="M82.12,44.68a9.35,9.35,0,0,1,.09,6.09,7.14,7.14,0,0,1-4.16,4.55,7.23,7.23,0,0,1-6.31-.68,9.61,9.61,0,0,1-3.91-11.5,7.27,7.27,0,0,1,4.58-4.4,7.13,7.13,0,0,1,6.06,1.06A9.31,9.31,0,0,1,82.12,44.68Zm-.07,0A9.17,9.17,0,0,0,78.38,40a6.52,6.52,0,0,0-9.95,3.41A9.33,9.33,0,0,0,72.09,54.1a6.51,6.51,0,0,0,10-3.39A9.17,9.17,0,0,0,82.05,44.7Z"/>
                </g>
                <g>
                  <ellipse class="bc98e011-3f70-41d9-8f5c-d0d225f56764" cx="75.93" cy="47.13" rx="5.33" ry="5.99" transform="translate(-11.73 29.73) rotate(-20.6)"/>
                  <ellipse class="a4aeccbf-b303-4e3b-bb8f-2db21ea40f8d" cx="77.93" cy="43.41" rx="1.44" ry="1.62" transform="translate(-10.29 30.2) rotate(-20.6)"/>
                </g>
              </g>
              <g>
                <ellipse class="f062f23d-b681-4555-84fd-fc037b389489" cx="47.66" cy="46.35" rx="8.18" ry="6.3" transform="translate(-16.49 63.81) rotate(-59.43)"/>
                <g>
                  <ellipse class="bc98e011-3f70-41d9-8f5c-d0d225f56764" cx="49.13" cy="46.78" rx="5.84" ry="4.63" transform="translate(-15.65 66.91) rotate(-60.86)"/>
                  <ellipse class="a4aeccbf-b303-4e3b-bb8f-2db21ea40f8d" cx="50.98" cy="43.41" rx="1.58" ry="1.25" transform="translate(-11.76 66.8) rotate(-60.86)"/>
                </g>
              </g>
              <path class="e8c7ded9-bea1-4cdc-b546-39ee78158519" d="M43.27,71.79a10.24,10.24,0,0,0,.85.76c.29.25.58.48.89.7a17.06,17.06,0,0,0,1.9,1.22,15.61,15.61,0,0,0,4.14,1.61,14.94,14.94,0,0,0,8.67-.72l.26-.09.26-.11.51-.22.51-.22c.16-.09.32-.18.49-.26.33-.18.66-.34,1-.53l1-.58c.15-.1.32-.19.47-.3l.46-.32.92-.65.88-.7c.29-.23.6-.45.88-.7l.85-.75.43-.37c.14-.12.27-.26.41-.39l.81-.79.41-.4.39-.41.79-.82c.26-.27.54-.54.78-.83l.76-.85.77-.85,0,0A50.52,50.52,0,0,1,67.61,71c-.27.26-.58.49-.87.74l-.88.73-.93.67-.46.34c-.15.11-.32.21-.48.31l-1,.61L62,75l-.51.27-.52.23-.53.23-.26.12-.27.09-1.08.38-1.11.29a15.6,15.6,0,0,1-2.26.34,14.24,14.24,0,0,1-4.55-.4,15.86,15.86,0,0,1-7.7-4.7Z"/>
              <path class="e8c7ded9-bea1-4cdc-b546-39ee78158519" d="M71.86,62.46a5,5,0,0,1,1.9-.24,2.65,2.65,0,0,1,1,.26,1.75,1.75,0,0,1,.79.82,2.08,2.08,0,0,1,.14,1.09,3.49,3.49,0,0,1-.27,1A5.76,5.76,0,0,1,74.38,67l0,0a9.53,9.53,0,0,0,.79-1.68c.05-.15.09-.3.13-.45a3.5,3.5,0,0,0,.07-.45,1.83,1.83,0,0,0-.13-.9,1.42,1.42,0,0,0-.61-.65,2.67,2.67,0,0,0-.88-.28,5.62,5.62,0,0,0-.92-.07l-.47,0c-.15,0-.3,0-.47,0Z"/>
              <path class="e8c7ded9-bea1-4cdc-b546-39ee78158519" d="M42.86,73a2,2,0,0,1-.78-1.14,1.07,1.07,0,0,1,.21-.85,1.62,1.62,0,0,1,.68-.45,3.3,3.3,0,0,1,1.38-.15,4.24,4.24,0,0,1,1.3.3v0c-.42,0-.85,0-1.28,0a4.43,4.43,0,0,0-1.26.21,1.28,1.28,0,0,0-.53.33.77.77,0,0,0-.18.57,1.83,1.83,0,0,0,.19.6l.15.28a2,2,0,0,1,.17.29Z"/>
              <path class="e3bb840a-6074-451c-8eb3-29001ae9c4b9" d="M43.77,34.69c1.32-8.21,8.69-6.58,12.2-3C51,30.12,47.11,31.39,43.77,34.69Z"/>
            </g>
          </g>
          <path class="e8c7ded9-bea1-4cdc-b546-39ee78158519" d="M49.85,77a8.75,8.75,0,0,0,3.25,1.29A9.84,9.84,0,0,0,56.47,78a19,19,0,0,0,3.33-1.13c1.09-.48,2.2-1,3.31-1.55l0,.06a19.72,19.72,0,0,1-3.09,2,13.9,13.9,0,0,1-3.43,1.34,8.57,8.57,0,0,1-3.67.1A6.94,6.94,0,0,1,49.8,77Z"/>
          <path class="e5503ddd-b68b-4e84-8ca5-eb6401b6470f" d="M53.44,69.72s1.15-3.71,3-4.27c2.86-.87,2.31.35,1.8,1.43-.39.82-.32,1.78-4.82,3.19"/>
          <path class="e5503ddd-b68b-4e84-8ca5-eb6401b6470f" d="M45,64.45s.42-2.47,1.42-1.11a24.52,24.52,0,0,1,2.14,4.78A5.22,5.22,0,0,1,45,64.45Z"/>
          <path class="b94ec0e6-1258-4e83-8145-b8069c4dca88" d="M28,53.52S21.85,64.36,22.27,72.9l3.91-7.11s-3.47,7.41-1.53,11.78l1.78-4.66.35,7.65,3-3.46"/>
          <path class="b94ec0e6-1258-4e83-8145-b8069c4dca88" d="M86.48,16.76s-3.44-3.62-12-5.92l5,5.31a31.65,31.65,0,0,0-13.7-4.62L73,16.33a29.66,29.66,0,0,0-14.9-1.93l6.82,3.27"/>
        </g>
        <path class="b94ec0e6-1258-4e83-8145-b8069c4dca88" d="M14.14,161.58s1.73-6.31,7.88-8.67"/>
      </g>
      <g>
        <g>
          <path class="b9804dd5-a3e2-4fb2-bd8f-b54f95209966" d="M80.8,260.45s5.31-9.87,13.51-10.34"/>
          <path class="a55d4816-950b-43dc-a0bf-35a83aa5ee83" d="M80.64,260.36a26.37,26.37,0,0,1,2.56-3.63,24.44,24.44,0,0,1,3.11-3.16,21.16,21.16,0,0,1,1.79-1.32A15.91,15.91,0,0,1,90,251.18a13.63,13.63,0,0,1,2.09-.74,12.34,12.34,0,0,1,2.18-.33,11.47,11.47,0,0,0-2.17.38,13.4,13.4,0,0,0-2.06.77,17.27,17.27,0,0,0-1.91,1.11,20.15,20.15,0,0,0-1.74,1.34,25.33,25.33,0,0,0-3,3.19A27.52,27.52,0,0,0,81,260.54Z"/>
        </g>
        <g>
          <path class="b9804dd5-a3e2-4fb2-bd8f-b54f95209966" d="M85.8,263A19.06,19.06,0,0,1,101,251.43"/>
          <path class="a55d4816-950b-43dc-a0bf-35a83aa5ee83" d="M85.62,262.93a15.93,15.93,0,0,1,1.14-2.26,17.75,17.75,0,0,1,1.44-2.07,20.06,20.06,0,0,1,1.69-1.88,19.79,19.79,0,0,1,1.91-1.63,19.41,19.41,0,0,1,4.39-2.43,21.31,21.31,0,0,1,4.85-1.23,21.26,21.26,0,0,0-4.82,1.32,18.83,18.83,0,0,0-4.3,2.49,18.67,18.67,0,0,0-3.5,3.53A21.75,21.75,0,0,0,87,260.83,15.12,15.12,0,0,0,86,263.06Z"/>
        </g>
      </g>
    </g>
  </g>
</svg>
