<svg xmlns="http://www.w3.org/2000/svg" xmlns:xlink="http://www.w3.org/1999/xlink" width="119.57" height="162.73" viewBox="0 0 119.57 162.73">
  <defs>
    <style>
      .b4057d14-52ec-4b7e-bc2d-d471c3eddf26 {
        isolation: isolate;
      }

      .b0bb07b0-f94d-4273-ac45-aaa21b1aa9d3 {
        opacity: 0.5;
      }

      .acf90634-b398-4c28-a284-6fa7af9b459a, .f93143b1-27e4-4f24-a049-ee52ae18b5e4 {
        fill: #fff;
      }

      .bdde9903-1d3e-4c7a-a0a3-caef91e76b0e {
        fill: url(#a1bde659-cddc-40a8-94be-ac564479f5be);
      }

      .a5ea6aa6-41fc-47de-8732-c013b1ab2812 {
        fill: url(#a13c7954-714b-46b1-a3bf-38154cc3328f);
      }

      .a73e6d99-69d7-4745-ae0a-bf0a50425212 {
        opacity: 0.1;
      }

      .bed36fc2-c6c1-4ec5-affb-e9227b55959c {
        opacity: 0.2;
      }

      .e37c0329-08fe-44d9-bc37-96df2d2024ca {
        fill: url(#aebd5b50-705f-4d74-a1ce-8f44b112dd91);
      }

      .ecdf2183-aebe-461a-b666-cc38baf83d45 {
        fill: #753523;
      }

      .ebb1a9ce-ddc4-45c9-94c0-4e70c1120cdb {
        fill: #be9057;
        stroke: #44210e;
        stroke-width: 0.5px;
      }

      .b998d38f-c25c-40f8-a322-3e7f21bfd4de, .ebb1a9ce-ddc4-45c9-94c0-4e70c1120cdb {
        stroke-miterlimit: 10;
      }

      .b6bbefeb-88ce-435c-8e03-719ce1e31b11 {
        mix-blend-mode: multiply;
      }

      .b997539f-5026-4c08-88ac-be748051f0ef {
        fill: #cbc5c1;
      }

      .f93143b1-27e4-4f24-a049-ee52ae18b5e4 {
        opacity: 0.3;
        mix-blend-mode: screen;
      }

      .b998d38f-c25c-40f8-a322-3e7f21bfd4de {
        fill: none;
        stroke: #2b0711;
      }
    </style>
    <linearGradient id="a1bde659-cddc-40a8-94be-ac564479f5be" x1="61.42" y1="15.02" x2="61.42" y2="37.89" gradientUnits="userSpaceOnUse">
      <stop offset="0" stop-color="#7d3b25"/>
      <stop offset="0.49" stop-color="#8b4639"/>
      <stop offset="1" stop-color="#7d3b25"/>
    </linearGradient>
    <linearGradient id="a13c7954-714b-46b1-a3bf-38154cc3328f" x1="17.83" y1="55.07" x2="88.5" y2="125.73" gradientUnits="userSpaceOnUse">
      <stop offset="0" stop-color="#fbb040"/>
      <stop offset="1" stop-color="#9a693d"/>
    </linearGradient>
    <linearGradient id="aebd5b50-705f-4d74-a1ce-8f44b112dd91" x1="58" y1="31.73" x2="58.04" y2="67.77" xlink:href="#a1bde659-cddc-40a8-94be-ac564479f5be"/>
  </defs>
  <g class="b4057d14-52ec-4b7e-bc2d-d471c3eddf26">
    <g id="f2abcf0a-13d1-45b8-b8f1-4309a5ede5ea" data-name="Layer 1">
      <g>
        <path class="b0bb07b0-f94d-4273-ac45-aaa21b1aa9d3" d="M59.8,159.85A9.15,9.15,0,0,1,52.15,155c-.15-.24-.29-.5-.44-.78s-.22-.46-.32-.69c-27-3.77-37.51-43.45-38.21-72.26-.28-.21-.56-.42-.85-.66l-.18-.16c-.23-.19-.45-.39-.67-.59l-.09-.08c-.23-.22-.47-.44-.69-.68l-.19-.19-.59-.64L9.69,78c-.19-.21-.35-.42-.52-.63L8.91,77l-.44-.62L8.22,76c-.16-.24-.29-.47-.43-.7L7.57,75c-.14-.25-.27-.52-.4-.79s-.12-.24-.17-.35c-.17-.36-.32-.73-.45-1.09a1.12,1.12,0,0,1,0-.13,12.92,12.92,0,0,1-.4-1.29c0-.11-.07-.26-.1-.4-.07-.34-.14-.65-.19-1,0-.15,0-.3-.07-.46,0-.33-.08-.64-.1-1,0-.14,0-.32,0-.5,0-.34,0-.64,0-1s0-.4,0-.6.05-.61.09-.92,0-.39.08-.59.12-.62.19-.95l.13-.56c.09-.34.21-.69.33-1.05,0-.15.09-.31.15-.47.16-.42.33-.83.51-1.24.09-.22.19-.44.31-.68l.12-.24c.07-.14.17-.33.29-.53,0,0,0-.08.06-.11l.37-.61.05-.07.35-.55.52-.76a3.79,3.79,0,0,1,.3-.4,31.14,31.14,0,0,1,3.22-3.64l.38-.36.7-.65.66-.58.63-.53.91-.72.54-.43c.51-.38,1-.77,1.58-1.16l1.73-1.21c2.87-2,5.71-3.79,8.44-5.38a6.65,6.65,0,0,1,.63-.39l.92-.51.42-.24c1.51-.84,3-1.62,4.4-2.32l.06,0,2-.94L37,37.5c.62-.28,1.23-.56,1.82-.81l.26-.11.41-.17c.35-.16.79-.34,1.29-.52l.07,0L42,35.43l.07,0,1.37-.48.08,0,1.28-.42h0l1.3-.4.07,0,1.23-.34.05,0,1.2-.3h0l.89-.2C55.9,12.2,62.46,7.5,65.9,6.6a6.18,6.18,0,0,1,.62-.12,8.9,8.9,0,0,1,1-.1h1l.44,0,.56,0,.39.07a5.49,5.49,0,0,1,.57.1l.33.08.08,0,.49.13.33.1-1.68,5.33L71.81,7l.46.16.36.14.46.19.41.19.38.19.4.22.32.18.33.19.39.25.34.24.37.26.3.23.33.26L77,10l.31.27c.07.07.19.17.29.28l.3.28.28.28.27.29.28.32L79,12c.09.11.19.22.27.34l.25.32.27.38.17.25c.08.13.17.26.25.4l.18.3.25.45.15.28c.07.15.15.31.22.47l.14.33c.07.18.14.34.19.5l.1.27.18.59c0,.09,0,.2.07.31s.09.39.13.59,0,.24,0,.34,0,.45.07.68c0,0,0,.2,0,.29,0,.25,0,.49,0,.73s0,.19,0,.28a6.82,6.82,0,0,1-.1.79s0,.17,0,.22A8.07,8.07,0,0,1,79,25.74l-.13.11a6.94,6.94,0,0,1-.75.56,4.76,4.76,0,0,1-.49.28,26.33,26.33,0,0,0-6.84,5.75l.18,0c.8.11,1.61.24,2.38.38l.26,0,.18,0,1.28.27.23,0,1.1.27.28.07,1.07.28.33.09,1.08.32.36.11,1.09.36.33.11,1.18.41.31.12c.42.15.85.32,1.28.49l.21.08c.51.2,1,.4,1.51.62l0,0,.61.25.49.21.32.14.26.13c1.33.61,2.71,1.28,4.1,2l.07,0C92.83,40.15,94.42,41,96,42a10.16,10.16,0,0,1,.92.54c2.68,1.58,5.54,3.42,8.51,5.46l1.13.77c.39.27.77.55,1.14.83l.33.25c.27.2.53.4.77.6l.35.28c.27.22.53.44.78.67l.22.18.93.86.21.21.66.68.28.3c.19.2.38.42.56.64l.23.27c.25.29.49.59.71.89l.15.2c.15.21.34.47.51.73l.19.28c.16.24.29.46.42.68s.14.23.19.33.28.49.41.75l.06.12c.19.39.34.71.47,1l.11.25.28.74s.09.28.09.28c.1.31.17.54.24.78l.07.25c.08.33.16.66.22,1l0,.25c.05.28.09.51.12.74s0,.23,0,.35,0,.42,0,.66,0,.22,0,.33c0,.26,0,.57,0,.88v0c0,.31,0,.63,0,.94l0,.31c0,.17,0,.39-.08.62l0,.25c-.05.26-.09.51-.14.76l0,.13c-.06.3-.14.59-.22.88a.94.94,0,0,1,0,.16c-.06.22-.13.43-.2.65l-.07.2c-.08.25-.16.46-.24.68l-.06.15c-.2.49-.42,1-.68,1.51a.6.6,0,0,0-.06.11l-.34.63-.06.11c-.26.45-.54.9-.83,1.35l0,.05c-.13.2-.26.39-.4.57l-.08.11c-.37.52-.81,1.07-1.27,1.6l-.29.35,0,0c-.19.22-.38.43-.56.61l-.5.5-.4.4c-.38.36-.74.69-1.09,1,0,0,0,0,0,0a156.87,156.87,0,0,1-3.12,27.71c-.33,1.59-.7,3.18-1.09,4.72-.67,2.68-1.43,5.24-2.26,7.63-.6,1.73-1.17,3.21-1.74,4.54l-.48,1.1s-.41.91-.52,1.13l-.53,1.15-.56,1.14-.6,1.16-.62,1.18c-.1.16-.65,1.15-.65,1.15L97,134l-.3.5-.39.64-.34.54-.43.65-.33.5-.49.7-.32.45-.52.71-.33.43-.55.71-.35.43c-.2.25-.4.48-.6.71l-.35.41-.62.69-.36.38-.67.7-.38.38c-.23.22-.46.45-.71.67l-.38.36-.74.65-.4.34-.79.65-.41.31-.84.63-.39.28-.92.62-.4.25-.95.59-.45.25c-.32.18-.64.36-1,.53l-.43.22c-.36.19-.7.35-1,.51l-.45.21c-.35.16-.71.31-1.08.46l-.46.18-1.12.42-.44.14c-.4.14-.8.27-1.21.38l-.34.1-.08,0c-.43.12-.85.24-1.28.34l-.42.09c-.43.1-.88.2-1.33.28l-.38.07-1.44.23-.28,0-1.06.13a6.49,6.49,0,0,1-.28.59c-.09.21-.2.42-.31.62l-.13.24c-.11.19-.24.41-.38.62l-.22.33c-.12.18-.27.37-.42.57l-.32.38a6.11,6.11,0,0,1-.49.52c-.16.16-.33.31-.5.46l-.06.05c-.16.14-.33.27-.51.4s-.48.32-.73.47-.42.24-.65.35-.68.27-1,.36a6,6,0,0,1-.71.2,8,8,0,0,1-1.64.2H59.8Z"/>
        <path class="acf90634-b398-4c28-a284-6fa7af9b459a" d="M56.32,156.36a9.15,9.15,0,0,1-7.66-4.86c-.14-.24-.29-.5-.43-.78s-.23-.46-.33-.69c-27-3.77-37.51-43.45-38.21-72.26-.28-.21-.56-.42-.85-.66L8.66,77c-.23-.19-.45-.39-.67-.59l-.09-.08-.69-.67L7,75.41l-.59-.64L6.2,74.5l-.51-.62-.27-.35L5,72.91c-.09-.13-.17-.24-.25-.37l-.43-.7-.22-.38c-.14-.25-.27-.52-.4-.79a3.7,3.7,0,0,1-.17-.35c-.16-.36-.32-.72-.45-1.09A.69.69,0,0,1,3,69.1c-.15-.41-.28-.85-.4-1.29,0-.11-.06-.25-.09-.4-.08-.34-.15-.64-.2-1,0-.15,0-.3-.07-.45,0-.34-.08-.65-.1-1,0-.14,0-.32,0-.49,0-.35,0-.65,0-1s0-.4,0-.6.05-.61.09-.92,0-.39.08-.59.12-.62.19-.94.09-.39.14-.57c.08-.34.2-.69.32-1.05,0-.15.09-.31.15-.47.16-.41.33-.83.52-1.24a6.45,6.45,0,0,1,.3-.68l.12-.24c.07-.14.17-.33.29-.53,0,0,.05-.08.06-.11L4.78,55l0-.07.35-.55.52-.76a3.79,3.79,0,0,1,.3-.4,31.14,31.14,0,0,1,3.22-3.64l.38-.36.7-.64L11,48l.63-.53.9-.72.54-.43c.51-.38,1-.77,1.58-1.16L16.35,44c2.87-2,5.72-3.8,8.44-5.39a6.65,6.65,0,0,1,.63-.39l.93-.51a3.3,3.3,0,0,1,.41-.23c1.51-.85,3-1.63,4.4-2.33l.06,0c.67-.33,1.32-.64,2-.94l.32-.15,1.83-.81.25-.11.41-.17c.35-.16.79-.34,1.29-.52l.07,0,1.14-.44.07,0c.46-.17.91-.34,1.36-.49l.08,0L41.29,31h0l1.3-.4.07,0,1.23-.34h0l1.2-.31h0l.89-.2C52.41,8.71,59,4,62.41,3.11c.21,0,.41-.09.62-.12a8.9,8.9,0,0,1,1-.1h1l.44,0a5,5,0,0,1,.56.06c.14,0,.27,0,.39.06s.4.07.57.1l.33.08.09,0,.49.13.32.1L66.57,8.8l1.75-5.3.46.16.36.13.46.2.41.19.38.18.4.22.32.18.33.2.39.24.34.24.37.26.31.23.32.26.34.28.31.27a3.62,3.62,0,0,1,.29.28l.3.28.28.29.27.28.28.32.24.29c.1.11.19.22.28.34l.24.32c.07.1.18.24.27.39a2.75,2.75,0,0,1,.17.24c.08.13.17.26.25.4l.18.3c.09.16.18.3.25.45s.09.17.15.28.15.31.22.47l.14.33c.07.18.14.34.19.5l.1.27.18.59c0,.09.05.2.07.31s.09.39.13.59,0,.24,0,.35.05.45.07.67c0,0,0,.2,0,.29,0,.25,0,.49,0,.73,0,.09,0,.19,0,.28a6.82,6.82,0,0,1-.1.79s0,.17,0,.22a8.07,8.07,0,0,1-2.77,4.66l-.13.11a6.94,6.94,0,0,1-.75.56c-.16.1-.32.2-.49.29A26.28,26.28,0,0,0,67.29,29l.18,0c.8.11,1.61.24,2.39.38l.25.05.18,0,1.28.27.23.06c.34.07.72.16,1.1.26l.29.07,1.06.28.33.09,1.08.32.36.12c.36.11.72.22,1.09.35l.33.11,1.18.41.31.12c.42.15.85.32,1.28.49l.21.08c.51.2,1,.4,1.51.62l0,0,.62.26.48.2.32.14.26.13c1.33.61,2.71,1.28,4.1,2l.07,0c1.52.79,3.11,1.67,4.72,2.61.26.14.58.32.93.54,2.67,1.58,5.53,3.42,8.5,5.46l1.13.77c.4.28.78.55,1.14.83l.33.25c.27.2.53.4.77.6l.36.28.78.67.21.18.93.87.21.2.66.68.28.3c.19.2.38.42.56.64l.24.27c.24.29.48.59.7.89l.15.2.52.73.18.28c.16.24.29.46.42.68s.14.23.19.33.28.49.41.75l.06.12c.2.39.34.71.48,1l.1.25c.11.27.2.5.28.74l.1.28.23.78c0,.08,0,.17.07.26.08.32.16.65.22,1l0,.25c0,.28.09.51.12.75,0,.09,0,.22,0,.34s0,.43.05.66,0,.22,0,.33c0,.27,0,.58,0,.89v0c0,.32,0,.63,0,.94l0,.31c0,.17,0,.39-.07.62l0,.25c0,.26-.09.52-.14.76l0,.13c-.06.3-.13.59-.21.88l0,.16c-.06.22-.13.43-.2.65l-.07.2c-.08.25-.16.46-.24.68l-.06.15c-.2.49-.42,1-.68,1.51l-.06.11-.34.63-.06.11c-.25.45-.53.9-.83,1.35l0,0c-.13.2-.26.39-.4.58l-.08.1c-.37.52-.81,1.07-1.27,1.6-.09.12-.19.23-.29.35l0,0c-.19.22-.38.43-.56.6,0,0-.5.5-.5.5l-.4.4c-.38.36-.74.69-1.09,1l-.05,0A156.87,156.87,0,0,1,103,105c-.33,1.59-.7,3.18-1.09,4.72-.67,2.68-1.43,5.24-2.26,7.63-.6,1.73-1.17,3.21-1.74,4.54l-.48,1.1s-.41.92-.51,1.13l-.54,1.15-.56,1.14-.59,1.16-.63,1.18-.65,1.15-.4.68-.29.49c-.13.22-.27.43-.4.64l-.34.54-.43.65-.33.5c-.16.24-.33.47-.49.7l-.32.45-.52.71-.33.44-.55.7-.35.43-.59.71-.36.41-.62.69-.36.39-.67.69-.38.38-.7.67-.39.36-.74.65-.4.34-.79.65-.41.31-.84.63-.39.28-.92.62-.4.25-1,.59-.45.25c-.32.18-.64.36-1,.53l-.43.23c-.36.18-.7.35-1,.51l-.45.2c-.35.16-.71.31-1.08.46l-.46.18c-.36.14-.74.29-1.12.42l-.44.14-1.2.39-.35.09-.08,0c-.43.11-.85.23-1.28.33l-.42.1-1.33.28-.38.06-1.43.23-.29,0L65,150l-.27.6-.32.61-.13.24c-.11.19-.24.41-.38.62l-.22.33c-.12.18-.27.38-.42.57s-.2.24-.32.38-.32.36-.48.52l-.51.46-.06,0a5,5,0,0,1-.51.4c-.23.17-.48.32-.72.47s-.43.24-.66.35a6.54,6.54,0,0,1-1,.36,7.37,7.37,0,0,1-.71.21,8.57,8.57,0,0,1-1.64.19h-.38Z"/>
        <g>
          <g>
            <path class="bdde9903-1d3e-4c7a-a0a3-caef91e76b0e" d="M63.83,8.51S57.3,10.22,50.61,34.17L50,38.68l8.24.15L58.31,34s1.91-9.1,13.14-15.71C75.8,15.74,69.19,7.73,63.83,8.51Z"/>
            <path class="a5ea6aa6-41fc-47de-8732-c013b1ab2812" d="M100.35,72.13a156.43,156.43,0,0,0-41.87-5.49A156.51,156.51,0,0,0,16.6,72.13a13.62,13.62,0,0,1-1.36,2.58c0,25.63,9.25,70,36.9,70,.53,3.48,2.26,6,4.31,6s3.8-2.61,4.31-6.14c33.13,0,39.62-45.6,39.62-71v-.1C100.38,73.1,100.37,72.61,100.35,72.13Z"/>
            <path class="a73e6d99-69d7-4745-ae0a-bf0a50425212" d="M85.08,64.6s15.46-.28,15.46,10c0,13-2.26,32.21-7.78,45.05-4.83,11.24-13.18,25-32,25,0,0-.88,6.14-4.2,6.14,0,0,2.19-3.73,2.19-6.87C58.75,143.91,85.08,120.07,85.08,64.6Z"/>
            <path class="bed36fc2-c6c1-4ec5-affb-e9227b55959c" d="M15.25,74.63s0,3.76.17,5.31a40.3,40.3,0,0,1,9-3.91c7.47-2,37.31-6.06,65.27.59,3.43.81,8.32,2.25,10.53,4,0,0,.19-4.66.18-6,0,0-3.55-11.86-6.87-13.86-14.07-8.49-51.14-5.93-65.7,1.69C23.92,64.49,15.25,74.63,15.25,74.63Z"/>
            <path class="e37c0329-08fe-44d9-bc37-96df2d2024ca" d="M15.2,74.68A127.93,127.93,0,0,1,57,67.15a126,126,0,0,1,43.3,7.53s18.45-11.76-.37-24.84C78.56,35,68.1,34,58.31,34,50,34,38.69,35,17.84,49.74.52,62,9.37,71.58,15.2,74.68Z"/>
            <g>
              <g>
                <path class="ecdf2183-aebe-461a-b666-cc38baf83d45" d="M54.26,34.26l-2.17,1.46-.92.57c-2.42,1.54-4.78,3.13-7.08,4.79-.44.32-.87.63-1.3,1q-3.65,2.68-7,5.66L34.4,48.9A92.91,92.91,0,0,0,27.34,56c-.45.51-.9,1-1.32,1.53l-.55.63A94.64,94.64,0,0,0,19,66.93c-.47.7-.92,1.4-1.36,2.11-.68,1.09-2.53,4.11-3.17,5.21a15,15,0,0,1-2.07-1.45c.19-.3,3.69-5.58,3.89-5.87.44-.66.89-1.34,1.35-2A95.87,95.87,0,0,1,24.7,56L26,54.55a96.57,96.57,0,0,1,7-6.85c.45-.4.9-.78,1.35-1.17,2.29-1.94,4.66-3.76,7.08-5.45l1.31-.89c2.4-1.61,6.66-4.44,9.15-5.76Z"/>
                <path class="ecdf2183-aebe-461a-b666-cc38baf83d45" d="M70.28,35.15c-.28.17-2.06,1-2.34,1.14-2.43,1.54-4.79,3.13-7.09,4.79l-1.29,1q-3.64,2.68-7,5.66l-1.35,1.2A91.12,91.12,0,0,0,44.11,56c-.45.51-.9,1-1.32,1.53-.19.21-.38.42-.55.63a96.5,96.5,0,0,0-6.48,8.76c-.34.51-1.26,2-1.58,2.54-.23,0-2.77.58-3.07.63.4-.66,1.51-2.52,1.94-3.17s.89-1.34,1.35-2A95.87,95.87,0,0,1,41.47,56l1.32-1.46a96.57,96.57,0,0,1,7-6.85c.45-.4.9-.78,1.35-1.17q3.42-2.91,7.09-5.45c.43-.3.86-.6,1.3-.89A83.09,83.09,0,0,1,67,35.72l1.91-.85C69.07,34.88,70,35.1,70.28,35.15Z"/>
                <path class="ecdf2183-aebe-461a-b666-cc38baf83d45" d="M81,38.74c-1,.69-2.36,1.63-3.34,2.34l-1.31,1q-3.63,2.68-7,5.66c-.46.39-.9.8-1.35,1.2A94.89,94.89,0,0,0,60.87,56c-.44.51-.89,1-1.31,1.53l-.55.63a96.61,96.61,0,0,0-6.49,8.76s-.26.3-.28.34c-.46,0-2.7.14-2.8.15.05-.08.32-.42.37-.49.45-.66.9-1.34,1.36-2A95.87,95.87,0,0,1,58.24,56l1.32-1.46a96.57,96.57,0,0,1,7-6.85l1.35-1.17q3.44-2.91,7.08-5.45l1.3-.89c.93-.62,2.26-1.48,3.2-2.06C80,38.32,80.48,38.54,81,38.74Z"/>
                <path class="ecdf2183-aebe-461a-b666-cc38baf83d45" d="M90.65,43.85c-1.38,1.08-3.27,2.68-4.59,3.85-.46.39-.9.8-1.35,1.2A91.12,91.12,0,0,0,77.65,56c-.45.51-.9,1-1.33,1.53q-.28.32-.54.63a92.86,92.86,0,0,0-6.48,8.76,1.2,1.2,0,0,0-.13.21h0l-1.12,0-1.38,0h-.14l.07-.11c.43-.66.89-1.34,1.35-2A97.45,97.45,0,0,1,75,56l1.32-1.46c2.24-2.41,4.6-4.7,7-6.85l1.35-1.17C86,45.42,87.77,44,89.13,43,89.61,43.28,90.19,43.5,90.65,43.85Z"/>
                <path class="ecdf2183-aebe-461a-b666-cc38baf83d45" d="M108.15,60.17c-.13.18-5.19,6.57-5.31,6.76-.47.7-.92,1.4-1.36,2.11-1,1.5-2.19,3.42-3.06,5-.13-.16-1.61-.52-2.21-.78,1-1.7,2.82-4.65,3.91-6.3.44-.66.9-1.34,1.36-2s5.28-7,5.67-7.55A11,11,0,0,1,108.15,60.17Z"/>
                <path class="ecdf2183-aebe-461a-b666-cc38baf83d45" d="M100.42,50.21c-1.18,1.18-4.9,4.56-6,5.8-.44.51-.89,1-1.32,1.53l-.54.63a94.76,94.76,0,0,0-6.49,8.76c-.35.54-1.75,2.53-2.09,3.07-.22,0-2-.42-2.39-.48.27-.43,1.49-2.17,1.77-2.59.45-.66.9-1.34,1.36-2A97.45,97.45,0,0,1,91.77,56l1.32-1.46c1.18-1.26,4.49-4.27,5.73-5.47C99.33,49.44,99.69,49.67,100.42,50.21Z"/>
              </g>
              <g>
                <path class="ecdf2183-aebe-461a-b666-cc38baf83d45" d="M103.37,72.18c-.63-1.09-1.21-2.06-1.89-3.14-.44-.71-.89-1.41-1.36-2.11a94.64,94.64,0,0,0-6.48-8.76l-.55-.63c-.42-.52-.87-1-1.32-1.53a92.91,92.91,0,0,0-7.06-7.11c-.45-.4-.89-.81-1.35-1.2q-3.39-3-7-5.66c-.43-.33-.86-.64-1.3-1-2.29-1.66-4.66-3.25-7.08-4.79L67,35.72c-.11-.08-2.45-1.39-2.57-1.47l2.26.26c2.48,1.31,7.23,4.08,9.61,5.68l1.31.89q3.65,2.54,7.08,5.45c.45.39.9.77,1.35,1.17a96.57,96.57,0,0,1,7,6.85L94.41,56a95.87,95.87,0,0,1,7.07,8.93c.46.65.91,1.33,1.36,2,.18.27,1.93,3.26,2.11,3.53a10.23,10.23,0,0,1-.72.87C104,71.58,103.75,71.82,103.37,72.18Z"/>
                <path class="ecdf2183-aebe-461a-b666-cc38baf83d45" d="M88.15,71c-.3,0-2.74-.62-3-.65-.32-.51-1.49-2.87-1.83-3.38a94.64,94.64,0,0,0-6.48-8.76c-.17-.21-.35-.42-.55-.63-.42-.52-.87-1-1.32-1.53a91.12,91.12,0,0,0-7.06-7.11c-.45-.4-.9-.81-1.35-1.2q-3.39-3-7-5.66l-1.3-1c-2.3-1.66-4.66-3.25-7.09-4.79-.29-.18-2.33-1.25-2.62-1.42.25-.06,1.22-.23,1.36-.24l2.18,1.09a84.67,84.67,0,0,1,7.47,4.47l1.29.89q3.66,2.54,7.09,5.45c.45.39.9.77,1.35,1.17a96.57,96.57,0,0,1,7,6.85L77.65,56a97.45,97.45,0,0,1,7.06,8.93c.46.65.92,1.33,1.35,2S87.75,70.3,88.15,71Z"/>
                <path class="ecdf2183-aebe-461a-b666-cc38baf83d45" d="M69.81,67.81c-.09,0-2.38-.25-2.84-.26l-.38-.62a96.61,96.61,0,0,0-6.49-8.76l-.54-.63c-.43-.52-.88-1-1.32-1.53a93,93,0,0,0-7.07-7.11c-.44-.4-.89-.81-1.35-1.2q-3.39-3-7-5.66l-1.31-1c-1-.71-2.78-2.12-3.8-2.81.49-.2,1-.43,1.47-.61,1,.58,2.71,1.91,3.64,2.53l1.3.89q3.64,2.54,7.08,5.45c.46.39.9.77,1.35,1.17a96.7,96.7,0,0,1,7,6.85c.45.49.88,1,1.31,1.46a94.23,94.23,0,0,1,7.07,8.93c.46.65.91,1.33,1.36,2C69.35,67,69.76,67.74,69.81,67.81Z"/>
                <path class="ecdf2183-aebe-461a-b666-cc38baf83d45" d="M52.75,67.24l-2.67.13c0-.06-.22-.37-.27-.44a92.86,92.86,0,0,0-6.48-8.76q-.26-.31-.54-.63c-.43-.52-.88-1-1.32-1.53A93,93,0,0,0,34.4,48.9c-.45-.4-.89-.81-1.35-1.2-1.33-1.17-4-3.23-5.37-4.33.45-.34,1.11-.6,1.58-.92,1.37,1,3.83,3,5.14,4.08.46.39.9.77,1.35,1.17,2.44,2.15,4.8,4.44,7,6.85L44.11,56a97.45,97.45,0,0,1,7.06,8.93c.46.65.92,1.33,1.35,2Z"/>
                <path class="ecdf2183-aebe-461a-b666-cc38baf83d45" d="M22.4,72.32c-.75.23-1.79.51-2.07.62-.86-1.55-1.75-2.4-2.7-3.9a24.36,24.36,0,0,0-1.35-2.11c-4.5-5.77-7.49-7.58-7.49-7.58a15.29,15.29,0,0,1,1.51-2.54c.4.55,5.62,5.67,7.33,8.13.46.66.92,1.33,1.36,2C20.08,68.57,21.43,70.62,22.4,72.32Z"/>
                <path class="ecdf2183-aebe-461a-b666-cc38baf83d45" d="M36.94,69c-.43,0-2.24.4-2.47.43-.33-.54-1.07-1.94-1.42-2.48a94.76,94.76,0,0,0-6.49-8.76L26,57.54c-.43-.52-.88-1-1.32-1.53-1.12-1.25-5.61-5.13-6.79-6.31.59-.45,1.56-1.09,1.74-1.22,1.25,1.21,5.18,4.79,6.37,6.07L27.34,56a94.13,94.13,0,0,1,7.06,8.93c.46.65.91,1.33,1.36,2C36,67.35,36.66,68.55,36.94,69Z"/>
              </g>
            </g>
            <path class="ebb1a9ce-ddc4-45c9-94c0-4e70c1120cdb" d="M69.45,10.66c3,2.24,3.45,4.63,2.57,7.06-.72,2-5.93-.76-6.87-1.52S60.59,12,61.86,10.26,65.65,7.81,69.45,10.66Z"/>
            <g class="b6bbefeb-88ce-435c-8e03-719ce1e31b11">
              <path class="b997539f-5026-4c08-88ac-be748051f0ef" d="M68.39,13.91a.16.16,0,0,1,0,.11c0,.05-.08.07-.15.06A1.06,1.06,0,0,1,68,14c-1-.68-1.32-2.11,0-1s1.5,2.46.15,1.65c-1.81-1.1-2.74-3.34-1.9-3.37,1.35-.17,4.87,3.36,4.64,5.16-.1.91-1.2.65-2,.25A14.27,14.27,0,0,1,64,12.11c-.93-1.39-1.19-2.63-1-2a2.25,2.25,0,0,0,.14.48c1.13,3.38,6.26,7.9,7.85,6.58,1.18-1-.55-3.68-2.09-5-2.69-2.38-4.22-1.15-2.47,1.19.68.89,2,2,2.64,1.73.92-.34-.3-2.13-1.39-2.62-.7-.31-1,.27-.28,1,.52.6,1.16.81,1.08.36C68.4,13.85,68.39,13.85,68.39,13.91Z"/>
            </g>
            <path class="f93143b1-27e4-4f24-a049-ee52ae18b5e4" d="M26.82,86.65s.38-7.47-4.2-5.39S23.3,116,34.86,129.33s8.74,8.25,2-5.63S26.82,86.65,26.82,86.65Z"/>
          </g>
          <path class="b998d38f-c25c-40f8-a322-3e7f21bfd4de" d="M99.92,49.84l-1-.7-.08-.06h0q-4.45-3-8.31-5.33a7.33,7.33,0,0,0-.67-.39A91.26,91.26,0,0,0,81,38.76v0l-1.16-.49a52.69,52.69,0,0,0-10.6-3.33l-.28-.05h0a44.24,44.24,0,0,0-4.43-.61h0c-2.13-.18-4.15-.23-6.14-.23,0,0,1.91-9.1,13.14-15.71h0a.94.94,0,0,0,.38-.27c3.52-2.82-2.83-10.27-8-9.52,0,0-6.53,1.71-13.22,25.66l0,.36-.65.1h0c-.13,0-.92.15-1.26.22a51.38,51.38,0,0,0-9.49,2.82h0c-.51.18-1,.41-1.47.61h0a84.77,84.77,0,0,0-8.41,4.18h0l-.18.1-.49.28c-.29.16-.58.31-.83.48-2.57,1.51-5.31,3.25-8.26,5.27-.29.2-.89.61-1.37,1l-.29.2a31.43,31.43,0,0,0-7.53,7.08h0l-.29.42-.16.24a11.56,11.56,0,0,0-1.06,1.88h0C6,65.25,9,70,12.39,72.79h0A15.83,15.83,0,0,0,14.07,74c.39.25.77.47,1.13.66h.05v0h0c0,25.63,9.25,70,36.9,70,.53,3.48,2.26,6,4.31,6h.11c1.5,0,2.5-1.26,3.15-2.63a11.56,11.56,0,0,0,1-3.23c0-.18,0-.28,0-.28.54,0,1.06,0,1.59,0,17.71-.75,25.72-14,30.41-25,5.52-12.84,7.78-32,7.78-45v-.07a22.87,22.87,0,0,0,2.83-2.34h0l.33-.32,0,0c.17-.18.32-.33.48-.48a7.48,7.48,0,0,0,.5-.58C108.67,66.22,112.1,58.31,99.92,49.84Z"/>
        </g>
      </g>
    </g>
  </g>
</svg>
