<svg id="fbb513b8-4d9a-4b13-86ea-2fa5060cbf45" data-name="Layer 1" xmlns="http://www.w3.org/2000/svg" width="250.95" height="143.74" viewBox="0 0 250.95 143.74">
  <defs>
    <style>
      .fbc131e3-eaeb-431a-b8e3-43def73dfc79 {
        opacity: 0.5;
      }

      .babc7669-0bcb-4e23-ae1c-47b6a8c6cd71 {
        fill: #fff;
      }

      .b9269ddd-9743-419b-a553-72922bc2b11d {
        fill: #eaefe1;
        stroke: #4c4c4c;
        stroke-miterlimit: 10;
        stroke-width: 2px;
      }

      .b141094f-2f58-440a-a6f2-cd2cbc564973 {
        fill: #c1c1c1;
      }

      .e5ce4ca3-6823-457a-8928-0d12bfbe57ba {
        fill: #b2b2b2;
      }

      .b7375dee-ad06-4de1-b2e1-de3cad4cfcb1 {
        fill: #97a085;
      }

      .f4030d20-60c5-4c47-9b49-ae08efe99616 {
        fill: #eaeaea;
      }

      .f553a7b9-9a79-42dc-a7a8-c22ff8201ea4 {
        fill: #10989b;
      }
    </style>
  </defs>
  <g>
    <path class="fbc131e3-eaeb-431a-b8e3-43def73dfc79" d="M100.56,141.52c-.66,0-1.35-.06-2-.12l-.19,0c-.6,0-1.21-.12-1.82-.2l-.39-.06c-.58-.09-1.1-.17-1.63-.27l-.62-.12-1.39-.3-.71-.17-1.31-.34-.74-.21-1.3-.39-.81-.27c-.4-.13-.81-.28-1.22-.43l-.82-.3-1.22-.47-.83-.34L82.27,137l-.83-.38L80.22,136l-.82-.4L78.13,135l-.78-.4L76,133.84l-.69-.38c-.7-.4-1.37-.8-2-1.21l-.84-.53c-.39-.25-.79-.49-1.18-.75l-1.1-.73a7.23,7.23,0,0,1-1-.61l-3.25-2.37c-.18-.14-.36-.28-.53-.43l-.81-.64c-.58-.44-1.16-.89-1.73-1.35l-.87-.73-.37-.31c-1.44-1.21-2.85-2.46-4.19-3.71l-.26-.23-.58-.53L55,117.72l-.6-.6-.93-.93c-.6-.62-1.2-1.25-1.79-1.89l-1.27-1.37c-.6-.66-1.18-1.32-1.75-2-.41-.47-.82-1-1.22-1.43-.58-.68-1.15-1.37-1.72-2.07-.31-.38-.61-.77-.92-1.17l-.18-.23-1.27-1.63c-.22-.23-.42-.47-.62-.72l-.15-.21-2.68-3.8c-.12-.17-.23-.35-.34-.53l-.44-.66c-.64-1-1.29-1.92-1.92-2.9l-.6-1-.28-.45c-.61-1-1.23-2-1.83-3l-.57-1-.44-.77c-.52-.91-1-1.82-1.54-2.75-.2-.37-.39-.75-.59-1.13l-.55-1.06c-.42-.81-.85-1.62-1.25-2.44-.23-.46-.44-.92-.66-1.38l-.59-1.25c-.33-.7-.66-1.39-1-2.1s-.54-1.24-.81-1.87l-.27-.65-.3-.69c-.23-.54-.46-1.07-.68-1.61-.44-1.07-.85-2.15-1.25-3.23l-.29-.74-.35-.92c-.6-1.64-1.16-3.27-1.67-4.86a.65.65,0,0,1,0-.13l-.2-.6-.12-.38c-.25-.8-.49-1.6-.73-2.41l-.15-.48c-.36-1.21-.69-2.42-1-3.64-.06-.22-.25-1-.25-1-.22-.87-.45-1.76-.66-2.66l-.3-1.28c-.18-.8-.36-1.61-.53-2.41l-.27-1.34c-.16-.81-.31-1.61-.46-2.42-.08-.44-.16-.87-.23-1.3-.15-.84-.29-1.7-.42-2.55l-.12-.8L16,39.22c-.43-.28-.85-.58-1.26-.89l-.07-.06a14.06,14.06,0,0,1-1.38-1.21l-.22-.21a15,15,0,0,1-2.35-3,3.64,3.64,0,0,1-.23-.39l-.09-.16c-.07-.12-.13-.25-.19-.38s-.11-.23-.16-.33l-.17-.41c-.11-.25-.21-.52-.31-.79l-.18-.54c-.11-.39-.2-.73-.27-1.08,0-.19-.09-.4-.13-.62a13,13,0,0,1-.19-1.79,13.7,13.7,0,0,1,.35-3.66,13.44,13.44,0,0,1,3-5.75A13.81,13.81,0,0,1,14,16.06a15.72,15.72,0,0,1,1.8-1.31c.29-.19.57-.35.84-.51.53-.29,1-.55,1.51-.77s1.15-.51,1.54-.67c.82-.33,1.76-.66,2.76-1a60.52,60.52,0,0,1,6.35-1.59c1.14-.23,2.35-.45,3.62-.65l1.85-.29,1.82-.25,1.84-.23,1.88-.21c1-.11,2-.22,3-.31l.45-.05L46.52,8h.16l3.1-.22.72,0c1-.07,2-.12,3.07-.17l1,0,2.69-.11,1.34,0,2.7-.07,1,0,2.81,0h4.74A240.8,240.8,0,0,1,105.29,9.6a64.27,64.27,0,0,1,12.35,3l.81.31.25.11.74.32.65.31.31.16c.37.19.71.38,1.06.59l.31.19c.38.23.75.49,1.12.76l.11.07.79.64,44.66.67A9.52,9.52,0,0,1,176,13l57.94.86a13.47,13.47,0,0,1,13.26,13.6s0,3.24,0,3.32,0,.35,0,.54a13.21,13.21,0,0,1-.19,1.46,3.26,3.26,0,0,1-.09.47A14.13,14.13,0,0,1,246.3,35c0,.13-.09.25-.14.38a3.93,3.93,0,0,1-.18.43,6.5,6.5,0,0,1-.32.65,12.65,12.65,0,0,1-.71,1.22c-.16.25-.36.54-.57.82s-.45.56-.67.81-.37.43-.57.63l-.12.11a9,9,0,0,1-.78.67l-.53.42a15.72,15.72,0,0,1-1.39.91l-.57.3a10.4,10.4,0,0,1-1,.48l-.2.07c-.36.14-.74.26-1.13.37l-.1,0h0l-.66.16-.34.08-.28,0-.69.11h-.13l-.38,0c-.18,0-.37,0-.56,0l-.69,0L175.71,43a9.37,9.37,0,0,1-3.82-.85,5.85,5.85,0,0,1-.56-.28c-.25-.13-.49-.28-.73-.43l-.3-.2a10.68,10.68,0,0,1-1.2-1,1.29,1.29,0,0,1-.16-.17,8,8,0,0,1-.84-1l-42.81-.63-.39.37c-.33.3-.68.6-1.05.89,0,0,0,1.14,0,1.14s0,.26,0,.39l0,1.07c.12,8.06.46,16,1,23.65l.1,1.52.14,1.83.18,2.24.38,4.52.41,4.53s.63,6.68.72,7.6c0,.12,0,.24,0,.36l.33,3.68a3,3,0,0,1,0,.31c.1,1.12.19,2.23.27,3.32l.07.87c.08,1,.14,2.07.21,3.08l.06,1,0,1c0,.87.08,1.76.11,2.64l0,.5c0,1.06,0,2.09,0,3.1v.55c0,2.27-.1,4.31-.27,6.25l0,.4c-.12,1.22-.24,2.2-.39,3.1l-.23,1.47a8,8,0,0,1-.32,1.3c0,.09-.1.41-.1.41-.09.37-.19.75-.29,1.11s-.2.72-.31,1.06-.24.77-.37,1.14-.24.66-.37,1-.31.77-.48,1.16-.26.58-.4.87-.38.77-.58,1.14l-.09.15c-.12.23-.25.46-.38.68-.22.39-.48.79-.74,1.18l-.07.1-.36.54c-.33.46-.67.88-1,1.29l-.4.48c-.5.57-1,1.11-1.54,1.61a22.79,22.79,0,0,1-7.64,4.78,24.66,24.66,0,0,1-2.46.78l-.69.17-.1,0c-.56.13-1.12.24-1.68.34l-1.08.16c-.49.06-1,.11-1.49.15a8,8,0,0,1-1.69.19ZM86.69,98.75c1.71,1,3.45,1.93,5.19,2.76l.64.31c0-.52.11-5.83.12-6.29-1.73-.76-3.45-1.59-5.14-2.49C87.23,95,87,96.88,86.69,98.75ZM64.43,79.41c.25.32.51.64.77,1s.51.59.76.88l1.4,1.59.94,1,.48.51c.13-1,.61-4.56.61-4.56-1.73-1.65-3.39-3.38-5-5.18l-.94,3.61Zm26.84-7.12,2,1.29c.08-1.92.16-3.77.25-5.59l-.85-.54c-.51-.33-1-.68-1.52-1-.25,1.78-.5,3.52-.74,5.24ZM46.59,47.69c.1.29.21.57.31.85l.36.94c.2.54.4,1.08.61,1.62l.36.87.48,1.15.48,1.17c.13-.49.25-1,.37-1.47q-.75-1.49-1.47-3c-.29-.62-.56-1.22-.83-1.83,0,0-.52-1.15-.55-1.23l-.22,0-.12.33C46.44,47.28,46.51,47.49,46.59,47.69Zm24,2.43c.54.87,1.13,1.78,1.73,2.68.17.26.35.51.53.76l.2.29c.23-1.46.46-2.89.7-4.3-.38-.51-.76-1-1.13-1.54H71.19C71,48.7,70.82,49.4,70.63,50.12Zm99.85-8.78"/>
    <path class="babc7669-0bcb-4e23-ae1c-47b6a8c6cd71" d="M95.56,136.52c-.66,0-1.35-.06-2-.12l-.19,0c-.6,0-1.21-.12-1.82-.2l-.39-.06c-.58-.09-1.1-.17-1.63-.27l-.62-.12-1.39-.3-.71-.17-1.31-.34-.74-.21-1.3-.39-.81-.27c-.4-.13-.81-.28-1.22-.43l-.82-.3-1.22-.47-.83-.34L77.27,132l-.83-.38L75.22,131l-.82-.4L73.13,130l-.78-.4L71,128.84l-.69-.38c-.7-.4-1.37-.8-2-1.21l-.84-.53c-.39-.25-.79-.49-1.18-.75l-1.1-.73a7.23,7.23,0,0,1-1-.61l-3.25-2.37c-.18-.14-.36-.28-.53-.43l-.81-.64c-.58-.44-1.16-.89-1.73-1.35l-.87-.73-.37-.31c-1.44-1.21-2.85-2.46-4.19-3.71l-.26-.23-.58-.53L50,112.72l-.6-.6-.93-.93c-.6-.62-1.2-1.25-1.79-1.89l-1.27-1.37c-.6-.66-1.18-1.32-1.75-2-.41-.47-.82-1-1.22-1.43-.58-.68-1.15-1.37-1.72-2.07-.31-.38-.61-.77-.92-1.17l-.18-.23-1.27-1.63c-.22-.23-.42-.47-.62-.72l-.15-.21-2.68-3.8c-.12-.17-.23-.35-.34-.53l-.44-.66c-.64-1-1.29-1.92-1.92-2.9l-.6-1-.28-.45c-.61-1-1.23-2-1.83-3l-.57-1-.44-.77c-.52-.91-1-1.82-1.54-2.75-.2-.37-.39-.75-.59-1.13l-.55-1.06c-.42-.81-.85-1.62-1.25-2.44-.23-.46-.44-.92-.66-1.38l-.59-1.25c-.33-.7-.66-1.39-1-2.1s-.54-1.24-.81-1.87l-.27-.65-.3-.69c-.23-.54-.46-1.07-.68-1.61-.44-1.07-.85-2.15-1.25-3.23l-.29-.74-.35-.92c-.6-1.64-1.16-3.27-1.67-4.86a.65.65,0,0,1,0-.13l-.2-.6-.12-.38c-.25-.8-.49-1.6-.73-2.41l-.15-.48c-.36-1.21-.69-2.42-1-3.64-.06-.22-.25-1-.25-1-.22-.87-.45-1.76-.66-2.66l-.3-1.28c-.18-.8-.36-1.61-.53-2.41l-.27-1.34c-.16-.81-.31-1.61-.46-2.42-.08-.44-.16-.87-.23-1.3-.15-.84-.29-1.7-.42-2.55l-.12-.8L11,34.22c-.43-.28-.85-.58-1.26-.89l-.07-.06a14.06,14.06,0,0,1-1.38-1.21l-.22-.21a15,15,0,0,1-2.35-3,3.64,3.64,0,0,1-.23-.39l-.09-.16c-.07-.12-.13-.25-.19-.38s-.11-.23-.16-.33l-.17-.41c-.11-.25-.21-.52-.31-.79l-.18-.54c-.11-.39-.2-.73-.27-1.08,0-.19-.09-.4-.13-.62a13,13,0,0,1-.19-1.79,13.7,13.7,0,0,1,.35-3.66,13.44,13.44,0,0,1,3-5.75A13.81,13.81,0,0,1,9,11.06a15.72,15.72,0,0,1,1.8-1.31c.29-.19.57-.35.84-.51.53-.29,1-.55,1.51-.77S14.29,8,14.68,7.8c.82-.33,1.76-.66,2.76-1a60.52,60.52,0,0,1,6.35-1.59c1.14-.23,2.35-.45,3.62-.65l1.85-.29,1.82-.25,1.84-.23,1.88-.21c1-.11,2-.22,3-.31l.45,0L41.52,3h.16l3.1-.22.72,0c1-.07,2-.12,3.07-.17l1,0,2.69-.11,1.34-.05,2.7-.07,1,0,2.81,0h4.74A240.8,240.8,0,0,1,100.29,4.6a64.27,64.27,0,0,1,12.35,3l.81.31.25.11.74.32.65.31.31.16c.37.19.71.38,1.06.59l.31.19c.38.23.75.49,1.12.76l.11.07.79.64,44.66.67A9.52,9.52,0,0,1,171,8l57.94.86a13.47,13.47,0,0,1,13.26,13.6s0,3.24,0,3.32,0,.35,0,.54a13.21,13.21,0,0,1-.19,1.46,3.26,3.26,0,0,1-.09.47A14.13,14.13,0,0,1,241.3,30c0,.13-.09.25-.14.38a3.93,3.93,0,0,1-.18.43,6.5,6.5,0,0,1-.32.65,12.65,12.65,0,0,1-.71,1.22c-.16.25-.36.54-.57.82s-.45.56-.67.81-.37.43-.57.63l-.12.11a9,9,0,0,1-.78.67l-.53.42a15.72,15.72,0,0,1-1.39.91l-.57.3a10.4,10.4,0,0,1-1,.48l-.2.07c-.36.14-.74.26-1.13.37l-.1,0h0l-.66.16-.34.08-.28,0-.69.11h-.13l-.38,0c-.18,0-.37,0-.56,0l-.69,0L170.71,38a9.37,9.37,0,0,1-3.82-.85,5.85,5.85,0,0,1-.56-.28c-.25-.13-.49-.28-.73-.43l-.3-.2a10.68,10.68,0,0,1-1.2-1,1.29,1.29,0,0,1-.16-.17,8,8,0,0,1-.84-1l-42.81-.63-.39.37c-.33.3-.68.6-1.05.89,0,0,0,1.14,0,1.14s0,.26,0,.39l0,1.07c.12,8.06.46,16,1,23.65l.1,1.52.14,1.83.18,2.24.38,4.52.41,4.53s.63,6.68.72,7.6c0,.12,0,.24,0,.36l.33,3.68a3,3,0,0,1,0,.31c.1,1.12.19,2.23.27,3.32l.07.87c.08,1,.14,2.07.21,3.08l.06,1,0,1c0,.87.08,1.76.11,2.64l0,.5c0,1.06,0,2.09,0,3.1v.55c0,2.27-.1,4.31-.27,6.25l0,.4c-.12,1.22-.24,2.2-.39,3.1l-.23,1.47a8,8,0,0,1-.32,1.3c0,.09-.1.41-.1.41-.09.37-.19.75-.29,1.11s-.2.72-.31,1.06-.24.77-.37,1.14-.24.66-.37,1-.31.77-.48,1.16-.26.58-.4.87-.38.77-.58,1.14l-.09.15c-.12.23-.25.46-.38.68-.22.39-.48.79-.74,1.18l-.07.1-.36.54c-.33.46-.67.88-1,1.29l-.4.48c-.5.57-1,1.11-1.54,1.61a22.79,22.79,0,0,1-7.64,4.78,24.66,24.66,0,0,1-2.46.78l-.69.17-.1,0c-.56.13-1.12.24-1.68.34l-1.08.16c-.49.06-1,.11-1.49.15a8,8,0,0,1-1.69.19ZM81.69,93.75c1.71,1,3.45,1.93,5.19,2.76l.64.31c0-.52.11-5.83.12-6.29-1.73-.76-3.45-1.59-5.14-2.49C82.23,90,82,91.88,81.69,93.75ZM59.43,74.41c.25.32.51.64.77,1s.51.59.76.88l1.4,1.59.94,1,.48.51c.13-1,.61-4.56.61-4.56-1.73-1.65-3.39-3.38-5-5.18l-.94,3.61Zm26.84-7.12,2,1.29c.08-1.92.16-3.77.25-5.59l-.85-.54c-.51-.33-1-.68-1.52-1-.25,1.78-.5,3.52-.74,5.24ZM41.59,42.69c.1.29.21.57.31.85l.36.94c.2.54.4,1.08.61,1.62l.36.87.48,1.15.48,1.17c.13-.49.25-1,.37-1.47q-.75-1.49-1.47-3c-.29-.62-.56-1.22-.83-1.83,0,0-.52-1.15-.55-1.23l-.22,0-.12.33C41.44,42.28,41.51,42.49,41.59,42.69Zm24,2.43c.54.87,1.13,1.78,1.73,2.68.17.26.35.51.53.76l.2.29c.23-1.46.46-2.89.7-4.3-.38-.51-.76-1-1.13-1.54H66.19C66,43.7,65.82,44.4,65.63,45.12Zm99.85-8.78"/>
    <g>
      <path class="b9269ddd-9743-419b-a553-72922bc2b11d" d="M234.18,22.4a5.46,5.46,0,0,0-5.38-5.54L171,16a1.54,1.54,0,0,0-1.57,1.52l0,2.3L115.08,19c-1.1-2.35-4.13-3.5-5.28-3.94A58.7,58.7,0,0,0,99,12.5a232.9,232.9,0,0,0-34.14-2.34,259.12,259.12,0,0,0-29.33,1.42c-2.43.26-4.73.56-6.86.9a54.25,54.25,0,0,0-11,2.75c-1.49.61-6,2.44-5.86,6.79a5.68,5.68,0,0,0,.68,2.52C13.85,27.17,17,28.47,18.21,29l.32.13A134.3,134.3,0,0,0,24,54.49h0l.2.61h0v0h0A134.37,134.37,0,0,0,41.42,90.08h0l.54.76.16.23,2,2.81,0-.06a109.23,109.23,0,0,0,21.57,22v0l1,.73h0l2.23,1.63v0c9.49,6.5,19,10.17,26.88,10.39l1.7.06v-.09a19.64,19.64,0,0,0,6.34-1.2,14.73,14.73,0,0,0,5-3.12c2.64-2.49,4.39-6,5.35-10.64h0l.23-1.46a76,76,0,0,0,.38-16c-.15-2.59-.36-5.29-.6-8.08h0l-.08-.92c0-.38-.07-.76-.1-1.15,0-.17,0-.36,0-.54l-.1-1.09h0c-.1-1.11-.2-2.22-.31-3.34,0-.14,0-.27,0-.41-.52-5.56-1.06-11.31-1.49-17.06l-.12-1.94c-.57-7.88-.92-16-1-24.1l0-1.06h0q0-3.15-.06-6.23L111,30c1.44-.6,4.34-2,5.23-4.68l53.11.8,0,2.27h0a1.36,1.36,0,0,0,.11.6,1.6,1.6,0,0,0,.32.49,1.92,1.92,0,0,0,.22.18,1.38,1.38,0,0,0,.24.14l0,0h0a1.47,1.47,0,0,0,.6.13l57.79.86c.25,0,.49,0,.73,0a6.37,6.37,0,0,0,1.4-.34,5.47,5.47,0,0,0,1.76-1.15,5.41,5.41,0,0,0,1.19-1.72.42.42,0,0,0,0-.1,5.31,5.31,0,0,0,.43-2ZM107.32,43.67v.12c.05,1.57.1,3.13.17,4.69,0,.21,0,.43,0,.65l.21,4.49.06,1c.08,1.47.16,2.93.25,4.38,0,.08,0,.16,0,.23l-.11,0-.56-.16-.76-.24-.42-.14-1.1-.38-.46-.17-.76-.29-.48-.19c-.34-.13-.69-.27-1-.42l-.56-.25-.59-.27-.59-.27,0,0c.06-1,.12-2,.2-3,.41-6,.94-12.09,1.57-18.11a54.68,54.68,0,0,0,4.85,3.25c0,.22,0,.43,0,.64C107.24,40.64,107.27,42.16,107.32,43.67Zm-.58,19c.52.16,1.05.31,1.58.45.43,6,1,11.95,1.54,17.74.1,1.1.21,2.21.31,3.3-.45,0-.9,0-1.34-.09l-.48,0-1.09-.11-.65-.08-1-.13-.64-.1-1.29-.23-.69-.14L102,83l-.67-.16-1-.25-.59-.15-.22-.07c.15-6.58.35-12.37.6-17.7.07-1.47.14-2.91.22-4.33a54.45,54.45,0,0,0,6.24,2.29Zm-38,38.17c0,.28-.09.55-.14.83s-.07.38-.1.58c-.07.39-.13.77-.2,1.15s-.11.58-.16.87l-.09.5c-.47,2.56-1,4.89-1.44,7.08a107.87,107.87,0,0,1-21.1-22.36c.95-3,1.9-6.18,2.94-9.89h0l0-.08.13.17.58.75.69.85.59.72.7.84c.2.23.39.47.6.7l.73.84c.19.22.38.45.58.67s.57.63.86,1l.75.82,1,1.06.64.66c.24.24.48.49.73.73l.69.69.69.68.72.68.69.65.74.67.69.63.75.66c.24.22.49.43.74.64l1.29,1.09.8.65.74.59.76.6.74.56.79.6c.24.18.48.36.73.53l.33.25h0l0,.17C68.89,100,68.82,100.42,68.75,100.82Zm26.86-8.75c0,1.14,0,2.26-.06,3.39-.09,4.34-.19,8.54-.33,12.64A72.67,72.67,0,0,1,73,97.72c1-6.3,1.86-12.9,2.78-19.86q.22-1.68.45-3.39A66.43,66.43,0,0,0,95.76,85.08l0,1.15C95.69,88.2,95.65,90.16,95.61,92.07ZM68.31,94.3l-.13-.1A98.51,98.51,0,0,1,49.72,75c1.39-5.21,2.75-10.62,4.19-16.32q.9-3.57,1.84-7.28A88,88,0,0,0,72.87,71.7s0,.07,0,.11q-.37,2.79-.74,5.55c-.83,6.27-1.63,12.24-2.5,18l-.09-.07ZM95.4,81l-.24-.09c-.4-.15-.81-.3-1.21-.47l-.16-.06a59.67,59.67,0,0,1-5.58-2.59l-.08,0c-.42-.22-.83-.45-1.24-.68L86.67,77l-1.12-.64-.25-.15-1.12-.68L84,75.36q-2-1.26-4-2.69l-.12-.09c-.4-.29-.79-.59-1.18-.89l-.16-.12c-.4-.3-.79-.62-1.19-.93l-.07-.06-.49-.41c1-7.19,2.13-15.49,3.6-24.22a62.86,62.86,0,0,0,15.18,12l.08,0,1.06.58h0c-.4,6.78-.67,13.89-.89,22.61Zm.28-27.3-.18-.11-1-.63-.28-.18-.91-.61L93,52c-.32-.21-.63-.43-.94-.66l-.22-.15c-.78-.56-1.54-1.15-2.29-1.75l-.24-.2-.86-.7-.32-.28-.78-.68-.33-.29-.8-.73a3.07,3.07,0,0,1-.26-.25c-.35-.32-.69-.65-1-1h0c-.73-.72-1.45-1.46-2.15-2.22L82.69,43c-.31-.33-.62-.68-.93-1l-.13-.15-.41-.48c.27-1.58.56-3.19.86-4.79.12-.63.24-1.25.37-1.88,6-.33,11.61-.87,16.41-1.62-.73,6.66-1.33,13.4-1.78,20.07,0,.46-.06.92-.1,1.38ZM54.47,41.47a.54.54,0,0,0,0-.11l-.75-1.55c-.82-1.75-1.6-3.52-2.32-5.31,1.61.1,3.26.18,4.92.25C55.68,36.91,55.08,39.14,54.47,41.47Zm24.16-6.66c-.07.34-.13.68-.2,1-.09.51-.19,1-.28,1.52a.78.78,0,0,0,0,.14c-.64-.85-1.26-1.71-1.87-2.6ZM35,36.28c.4-1.07.8-2.14,1.21-3.21,3.44.46,7.14.84,11,1.14q1.41,3.66,3.06,7.18c.87,1.82,1.8,3.65,2.77,5.42-.95,3.72-1.88,7.38-2.77,10.93-1.17,4.6-2.27,9-3.39,13.26-.33-.5-.66-1-1-1.49A117.54,117.54,0,0,1,32.87,41.92Zm25.08-1.39c1.5,0,3,.08,4.54.09,2.45,0,4.88,0,7.26,0a75.08,75.08,0,0,0,5.38,7.39h0c-1.54,8.89-2.77,17.4-3.79,24.88A86.22,86.22,0,0,1,57.05,46.32C58.1,42.25,59.1,38.47,60.08,34.89ZM32.44,32.52c-.3.82-.62,1.64-.92,2.46a0,0,0,0,1,0,0c-.13.36-.26.71-.4,1.07-.36-1.31-.69-2.63-1-4ZM30.75,47.45v0l0-.14a120.35,120.35,0,0,0,12,24.18c.91,1.4,1.86,2.81,2.84,4.18-1,3.71-1.93,6.93-2.82,9.85A131.05,131.05,0,0,1,28,54.62C28.91,52.2,29.86,49.78,30.75,47.45Zm39.11,66.8c.43-1.79.84-3.68,1.24-5.7l.06-.28L71.4,107c0-.18.07-.37.1-.56s.11-.57.16-.85l.15-.81c0-.1,0-.2,0-.29.16-.88.32-1.78.48-2.71v0l.44.28.63.4c.3.2.61.39.92.58l.61.37L76,104l.48.28c.49.28,1,.56,1.48.83l.59.32.94.49.69.35.86.44.71.34.85.4.71.33.88.38.68.3,1.08.44.78.31c.4.16.8.32,1.2.46l.68.25.89.31.73.25.84.27.76.24.82.24.77.22.82.22.77.21h.06c-.22,4.93-.51,9.08-.89,12.8C87.07,124,78.36,120.28,69.86,114.25Zm29-5.29c0-.16,0-.31,0-.47s0-.28,0-.42c.18-5.13.28-10.39.39-15.93,0-1.93.08-3.92.12-5.91h0v-.06l.12,0a52.16,52.16,0,0,0,10.94,1.67c.74,8.44,1.22,16,.5,22.13A53.53,53.53,0,0,1,98.9,109ZM104.26,32c1-.22,2-.45,2.85-.7l0,2.75C106.16,33.42,105.2,32.74,104.26,32Zm-78.14-.69q1.18,5.31,2.82,10.48c-.83,2.22-1.76,4.64-2.72,7.12a132,132,0,0,1-3.8-18.52C23.56,30.73,24.79,31,26.12,31.33Zm80.17,90.16a13,13,0,0,1-8.37,3.28c.35-3.55.62-7.45.84-12h0v0a57.72,57.72,0,0,0,11.6,1A15.35,15.35,0,0,1,106.29,121.49Z"/>
      <g>
        <path class="b141094f-2f58-440a-a6f2-cd2cbc564973" d="M214.75,26.81,105.4,25.18l.09-6.31L214.84,20.5a1,1,0,0,1,.95,1l-.07,4.4A1,1,0,0,1,214.75,26.81Z"/>
        <path class="e5ce4ca3-6823-457a-8928-0d12bfbe57ba" d="M113.55,80.49c-.59-6.19-1.19-12.6-1.63-19-.56-7.88-.91-16-1-24.11q-.07-5.33-.07-10.43l-3.7-.05c0,3.43,0,6.94.07,10.53.13,8.18.48,16.36,1,24.31.45,6.44,1,12.87,1.64,19.09.17,1.82.34,3.62.5,5.39.87,9.8,1.51,18.46.43,25.25-.73,4.57-2.2,7.86-4.51,10-2.45,2.33-6,3.44-10.39,3.31-7.68-.22-17.54-4.32-27-11.28A106.45,106.45,0,0,1,45,88.71,130.42,130.42,0,0,1,27.75,54a131.47,131.47,0,0,1-5.84-28.16l-3.73-.05a134.84,134.84,0,0,0,6,29.34A134.77,134.77,0,0,0,42,90.84a110.65,110.65,0,0,0,24.72,25.68c10.23,7.48,20.57,11.74,29.12,12a20.88,20.88,0,0,0,8.06-1.21,14.73,14.73,0,0,0,5-3.12c2.91-2.76,4.75-6.73,5.62-12.13,1.14-7.21.49-16.12-.4-26.17C113.89,84.12,113.72,82.31,113.55,80.49Z"/>
        <path class="e5ce4ca3-6823-457a-8928-0d12bfbe57ba" d="M97.5,128.57l-1.7,0c-8.55-.24-18.9-4.49-29.12-12l-1-.74.3-1.2c1.14-4.59,2.15-9.78,3.19-16.29l.47-2.93,2.42,1.7A72.25,72.25,0,0,0,97.4,108.64l1.5.35-.05,1.53c-.26,6.53-.63,11.73-1.16,16.36Zm-27.64-14.3c8.49,6,17.2,9.76,24.33,10.44.38-3.73.67-7.88.89-12.82a75.14,75.14,0,0,1-22.73-10.14C71.54,106.54,70.74,110.59,69.86,114.27Z"/>
        <path class="e5ce4ca3-6823-457a-8928-0d12bfbe57ba" d="M68.91,118.17l-2.23-1.63A110.37,110.37,0,0,1,41.94,90.85l-.53-.76.28-.88c1.33-4.08,2.67-8.65,4.21-14.34l1-3.75,2.28,3.14A97.05,97.05,0,0,0,72.05,97.08l1,.67-.18,1.14c-1.06,6.63-2.09,11.91-3.25,16.61ZM45.51,89.49a108.23,108.23,0,0,0,21.11,22.37c.82-3.63,1.59-7.66,2.37-12.42a100.1,100.1,0,0,1-20.5-20C47.43,83.25,46.47,86.5,45.51,89.49Z"/>
        <path class="e5ce4ca3-6823-457a-8928-0d12bfbe57ba" d="M44.08,93.88l-2.13-3A134.59,134.59,0,0,1,24.23,55.13L24,54.5l.25-.62C26,49.51,27.73,45,29.17,41.22l1.88-5,1.62,5.06A117.82,117.82,0,0,0,46,69.52h0c1,1.6,2.13,3.2,3.25,4.74l.52.72-.23.85c-1.55,5.78-2.91,10.39-4.25,14.54ZM28,54.64a131.8,131.8,0,0,0,14.89,31c.89-2.94,1.82-6.16,2.82-9.88-1-1.37-1.93-2.78-2.84-4.19a120.05,120.05,0,0,1-12-24.2C29.9,49.69,28.93,52.17,28,54.64Z"/>
        <path class="e5ce4ca3-6823-457a-8928-0d12bfbe57ba" d="M114.22,113.52l-1.48.09a56.82,56.82,0,0,1-16.16-1.36l-1.5-.34.06-1.54c.23-5.86.35-11.9.48-18.3,0-2.73.1-5.56.17-8.38l.06-2.45,2.34.73a49.37,49.37,0,0,0,14,2.24l1.68,0,.15,1.67c.89,10.06,1.54,18.95.4,26.17ZM98.9,109a53,53,0,0,0,12.1,1c.72-6.16.24-13.69-.49-22.13a52.67,52.67,0,0,1-11.07-1.7c0,2-.08,4-.12,6C99.21,98,99.1,103.54,98.9,109Z"/>
        <path class="e5ce4ca3-6823-457a-8928-0d12bfbe57ba" d="M98.76,112.75l-2.18-.5a75.52,75.52,0,0,1-26.65-12.14l-1-.67.19-1.14c1-6.61,2-13.57,3-20.94.3-2.2.59-4.41.89-6.66l.45-3.34L76,69.54A63.33,63.33,0,0,0,98.19,82l1.33.41,0,1.4c-.07,2.81-.12,5.64-.17,8.37-.13,6.41-.25,12.47-.48,18.37ZM73,97.74a73.06,73.06,0,0,0,22.22,10.38c.18-5.16.29-10.47.4-16,0-2.29.09-4.64.14-7A66.43,66.43,0,0,1,76.24,74.47q-.22,1.71-.45,3.39C74.87,84.82,74,91.43,73,97.74Z"/>
        <path class="e5ce4ca3-6823-457a-8928-0d12bfbe57ba" d="M72.36,101.81l-2.42-1.69A100.64,100.64,0,0,1,46.2,76.44l-.52-.72.23-.85c1.46-5.44,2.89-11.12,4.4-17.12.95-3.78,1.94-7.69,3-11.65l1.15-4.49,2.26,4A85.08,85.08,0,0,0,76,69.53l.77.65-.13,1q-.45,3.38-.89,6.67c-1,7.39-1.9,14.37-3,21ZM49.71,75A97.72,97.72,0,0,0,69.63,95.31c.87-5.7,1.65-11.67,2.49-17.94.25-1.87.5-3.77.75-5.67A87.71,87.71,0,0,1,55.74,51.36q-.95,3.7-1.84,7.28C52.46,64.36,51.1,69.77,49.71,75Z"/>
        <path class="e5ce4ca3-6823-457a-8928-0d12bfbe57ba" d="M53.67,39.8a101,101,0,0,1-5.3-13.63l-3.89-.05a108.32,108.32,0,0,0,5.83,15.27c.87,1.83,1.8,3.65,2.77,5.42-.95,3.72-1.88,7.38-2.77,10.93-1.17,4.6-2.28,9-3.39,13.27-.33-.5-.66-1-1-1.5A117.57,117.57,0,0,1,32.86,41.92c.7-1.85,1.41-3.74,2.12-5.64,1.27-3.36,2.55-6.77,3.87-10.23L34.91,26c-1.16,3-2.28,6-3.39,9-.79,2.12-1.58,4.2-2.35,6.25l-.23.6.2.61a122,122,0,0,0,13.7,29.09c1.07,1.66,2.2,3.31,3.36,4.92l2.28,3.15,1-3.75c1.47-5.48,2.9-11.17,4.42-17.18,1-3.77,1.93-7.67,3-11.62l.18-.72-.36-.65C55.62,43.76,54.61,41.79,53.67,39.8Z"/>
        <path class="e5ce4ca3-6823-457a-8928-0d12bfbe57ba" d="M34.91,26c-1.16,3-2.28,6-3.39,9-.13.37-.27.73-.41,1.09q-1.37-5-2.32-10.14L25,25.88a127.64,127.64,0,0,0,4.13,16.56l1.62,5.05,1.88-5c.78-2,1.57-4.13,2.36-6.25,1.26-3.36,2.55-6.76,3.87-10.23Z"/>
        <path class="e5ce4ca3-6823-457a-8928-0d12bfbe57ba" d="M114.24,87.93h-2A52.42,52.42,0,0,1,97.11,85.5l-1.34-.41,0-1.39c.23-10.28.55-18.64,1-26.33L97,54.56l2.51,1.27a49.81,49.81,0,0,0,11,4l1.34.31.09,1.37c.44,6.39,1,12.8,1.63,19,.18,1.83.34,3.63.51,5.41ZM99.53,82.36a49.64,49.64,0,0,0,10.64,1.79c-.1-1.1-.2-2.2-.31-3.31-.54-5.79-1.11-11.75-1.54-17.74a52.71,52.71,0,0,1-8-2.78C100,66.85,99.73,74,99.53,82.36Z"/>
        <path class="e5ce4ca3-6823-457a-8928-0d12bfbe57ba" d="M99.44,86.23,97.1,85.5A67.23,67.23,0,0,1,73.66,72.37l-.78-.65.13-1c1.14-8.49,2.56-18.59,4.41-29.18l.68-3.91,2.56,3A60,60,0,0,0,99.48,55.82l1.1.55-.08,1.22c-.46,7.72-.78,15.81-1,26.19Zm-22.63-16a63.88,63.88,0,0,0,19,11c.22-8.72.49-15.84.89-22.62A62.57,62.57,0,0,1,80.42,46C79,54.69,77.79,63,76.81,70.18Z"/>
        <path class="e5ce4ca3-6823-457a-8928-0d12bfbe57ba" d="M112.1,64l-2.44-.55a53.5,53.5,0,0,1-11.84-4.3l-1.09-.55.08-1.22c.08-1.39.18-2.82.28-4.27.49-7.18,1.14-14.45,2-21.62l.4-3.47,2.65,2.27A50.39,50.39,0,0,0,110,35.8l.92.53,0,1.06c.12,8.12.47,16.22,1,24.1Zm-11.52-7.63a50.17,50.17,0,0,0,7.47,2.83c-.45-6.8-.73-13.74-.86-20.69a56,56,0,0,1-4.84-3.25c-.64,6-1.16,12.1-1.57,18.1C100.71,54.36,100.64,55.36,100.58,56.35Z"/>
        <path class="e5ce4ca3-6823-457a-8928-0d12bfbe57ba" d="M98.39,26.8l-5.06-.07a57.92,57.92,0,0,0,5.59,5.7c-.76,6.85-1.37,13.8-1.84,20.66,0,.46-.06.93-.1,1.39A61.06,61.06,0,0,1,81.21,41.32c.28-1.58.57-3.2.87-4.8q.93-5,2-9.9l-3.78-.05q-.95,4.61-1.82,9.26c-.36,1.91-.71,3.83-1,5.7l-.15.85.56.66a63.35,63.35,0,0,0,20,16.08l2.51,1.26.17-2.81c.08-1.35.17-2.78.27-4.23.49-7.13,1.14-14.35,1.94-21.46l.11-1-.75-.63C100.8,29.17,99.57,28,98.39,26.8Z"/>
        <path class="b7375dee-ad06-4de1-b2e1-de3cad4cfcb1" d="M99.58,26.81c0,.36-.09.71-.13,1.06-.36-.35-.71-.71-1-1.07l-5.07-.07a58.48,58.48,0,0,0,6.34,6.35l2.66,2.27.39-3.47c.2-1.68.39-3.35.6-5Z"/>
        <path class="f4030d20-60c5-4c47-9b49-ae08efe99616" d="M228.59,30.83,170.8,30a1.55,1.55,0,0,1-1.53-1.57l.16-10.88A1.55,1.55,0,0,1,171,16l57.8.86a5.46,5.46,0,0,1,5.38,5.54l0,3.05A5.46,5.46,0,0,1,228.59,30.83Z"/>
        <path class="b141094f-2f58-440a-a6f2-cd2cbc564973" d="M228.59,30.83,170.8,30a1.47,1.47,0,0,1-.6-.13,1.44,1.44,0,0,1-.49-.34,1.63,1.63,0,0,1-.33-.49,1.49,1.49,0,0,1-.11-.6l0-1.64,64.83-1.31a5.65,5.65,0,0,1-.46,2.13,5.73,5.73,0,0,1-1.2,1.72,5.57,5.57,0,0,1-1.75,1.14A5.72,5.72,0,0,1,228.59,30.83Z"/>
        <ellipse class="f553a7b9-9a79-42dc-a7a8-c22ff8201ea4" cx="64.29" cy="20.9" rx="7.69" ry="46.93" transform="translate(42.43 84.88) rotate(-89.15)"/>
        <path class="f4030d20-60c5-4c47-9b49-ae08efe99616" d="M111,30l-.37.15a53.6,53.6,0,0,1-11,2.75A214.07,214.07,0,0,1,64.61,35a218.35,218.35,0,0,1-35.13-3A57.87,57.87,0,0,1,18.2,29c-1.54-.64-6.25-2.6-6.42-6.94s4.37-6.18,5.86-6.79a54.25,54.25,0,0,1,11.05-2.75,215.27,215.27,0,0,1,34.93-2.07,218.14,218.14,0,0,1,35.13,3,57.25,57.25,0,0,1,11.28,3c1.54.64,6.25,2.6,6.43,6.94C116.62,27.4,112.71,29.27,111,30ZM21.34,22.14A62.57,62.57,0,0,0,33.09,24.9,223.87,223.87,0,0,0,64.3,27.28a219.61,219.61,0,0,0,31.06-1.59,59.56,59.56,0,0,0,11.54-2.46,63.17,63.17,0,0,0-11.76-2.76,223.87,223.87,0,0,0-31.21-2.38,219.46,219.46,0,0,0-31,1.59A60,60,0,0,0,21.34,22.14Z"/>
        <path class="f4030d20-60c5-4c47-9b49-ae08efe99616" d="M109.51,27l-.38.13a61.46,61.46,0,0,1-11,2.49A237.42,237.42,0,0,1,63.7,31.65a232.9,232.9,0,0,1-34.14-2.34,57.44,57.44,0,0,1-10.77-2.58c-1.46-.55-5.89-2.22-5.69-6s4.83-5.44,6.35-6a62.22,62.22,0,0,1,11.05-2.5,239,239,0,0,1,34.38-2.07A232.9,232.9,0,0,1,99,12.5a57.77,57.77,0,0,1,10.78,2.58c1.45.55,5.89,2.22,5.68,6C115.29,24.63,111.29,26.3,109.51,27ZM22.45,20.74a63.73,63.73,0,0,0,11.26,2.33,240.2,240.2,0,0,0,30.35,1.86A244.6,244.6,0,0,0,94.6,23.3a68.76,68.76,0,0,0,11.52-2.23,64.13,64.13,0,0,0-11.27-2.33A238.35,238.35,0,0,0,64.5,16.88,244.76,244.76,0,0,0,34,18.5,68.26,68.26,0,0,0,22.45,20.74Z"/>
        <path class="e5ce4ca3-6823-457a-8928-0d12bfbe57ba" d="M58.63,26.31C57.29,31,55.92,36,54.48,41.47c-.28-.55-.55-1.1-.8-1.66a101.47,101.47,0,0,1-5.29-13.63l-3.89-.05A108.32,108.32,0,0,0,50.33,41.4c1,2.05,2,4.1,3.13,6.07l2.26,4L56.87,47c2-7.75,3.82-14.46,5.61-20.68Z"/>
        <path class="e5ce4ca3-6823-457a-8928-0d12bfbe57ba" d="M80.26,26.58q-.95,4.61-1.82,9.26c-.1.55-.21,1.1-.31,1.65a75.16,75.16,0,0,1-6.87-11l-4.17-.05A79,79,0,0,0,77.81,43.05l2.55,3,.69-3.91c.32-1.86.67-3.77,1-5.65q.93-5,2-9.91Z"/>
        <path class="f4030d20-60c5-4c47-9b49-ae08efe99616" d="M116.44,23.08,106.09,23c.29.09.57.19.82.29a61.17,61.17,0,0,1-11.54,2.46A221.11,221.11,0,0,1,64.31,27.3,225.41,225.41,0,0,1,33.1,24.92a64.48,64.48,0,0,1-11.75-2.76l.71-.24L11.79,21.8V22c.17,4.34,4.88,6.3,6.42,6.94a58.07,58.07,0,0,0,11.28,3,219.4,219.4,0,0,0,35.13,3,214.07,214.07,0,0,0,34.93-2.07,53.6,53.6,0,0,0,11-2.75L111,30c1.75-.73,5.66-2.6,5.5-6.64Q116.45,23.22,116.44,23.08Z"/>
        <path class="f4030d20-60c5-4c47-9b49-ae08efe99616" d="M97.85,22.85c-1,.15-2.07.31-3.24.45a246.69,246.69,0,0,1-30.54,1.62,238.35,238.35,0,0,1-30.35-1.86c-2.64-.35-4.79-.73-6.54-1.1l-14-.17c.59,3,4.29,4.44,5.61,4.94A59.32,59.32,0,0,0,29.57,29.3,234.15,234.15,0,0,0,63.7,31.64a237.55,237.55,0,0,0,34.38-2.07,62.48,62.48,0,0,0,11.06-2.49l.37-.14c1.42-.52,4.22-1.67,5.42-3.88Z"/>
      </g>
    </g>
    <path class="f4030d20-60c5-4c47-9b49-ae08efe99616" d="M234.18,22.4h0a5.46,5.46,0,0,0-5.38-5.54L171,16a1.54,1.54,0,0,0-1.57,1.52v.06l0,2.24L115.08,19a.35.35,0,0,1,0-.08,5.09,5.09,0,0,0-.42-.71l0,0a6.86,6.86,0,0,0-.56-.65l-.13-.12a8,8,0,0,0-.64-.54l-.07-.05c-.2-.15-.41-.29-.62-.42l-.17-.11c-.21-.13-.43-.25-.63-.36l-.22-.1-.43-.21-.49-.21-.15-.07-.66-.26A58.7,58.7,0,0,0,99,12.5a232.9,232.9,0,0,0-34.14-2.34H60.26l-2.73,0-1.38,0-2.26.07-1.31,0L50,10.47l-1,0-3,.16-.71.05-2.92.2-.23,0-3.07.26-.48,0-2.93.31h-.11l-.26,0-1.44.16-.47.06L32.11,12l-1,.14-.68.09-1.72.26q-1.76.29-3.33.6a53.91,53.91,0,0,0-5.54,1.38c-.79.25-1.52.51-2.18.77-.28.12-.66.27-1.11.48-.29.14-.62.3-1,.49l-.5.3a10.4,10.4,0,0,0-1,.72,8.66,8.66,0,0,0-.92.9,5.6,5.6,0,0,0-1.24,2.38A5.35,5.35,0,0,0,11.78,22a6,6,0,0,0,.08.74,2,2,0,0,0,.05.24c0,.15.07.31.11.46l.09.25c0,.14.1.27.15.4l.05.12c0,.05,0,.09.07.13l.08.18a.86.86,0,0,1,.07.1,6.88,6.88,0,0,0,1.2,1.57.47.47,0,0,0,.1.1,8.83,8.83,0,0,0,.74.65h0c.27.21.55.4.82.58h0A17.87,17.87,0,0,0,18.21,29l.15.06.17.07,0,.26c0,.19.05.39.08.58.11,1,.24,1.93.38,2.9.05.35.11.71.17,1.06.12.81.25,1.62.39,2.42.07.41.15.82.22,1.23.14.76.28,1.52.43,2.27.09.43.17.85.26,1.27.16.76.33,1.52.5,2.27.1.41.19.82.28,1.22q.3,1.26.63,2.52c.08.31.15.62.24.93.3,1.14.62,2.29.95,3.43l.15.46c.25.85.51,1.71.78,2.56h0l.2.61h0v0h0q.76,2.36,1.62,4.71c.16.44.34.88.51,1.33.41,1.1.83,2.2,1.27,3.29.3.73.62,1.45.92,2.17s.67,1.6,1,2.39.8,1.7,1.2,2.55c.3.64.59,1.28.91,1.92.45.92.94,1.84,1.42,2.75.28.54.55,1.09.83,1.62.52,1,1.06,1.89,1.6,2.83.27.48.53,1,.81,1.44.56,1,1.14,1.88,1.72,2.82l.83,1.33c.59.92,1.2,1.82,1.81,2.73.24.35.46.71.7,1v0l.53.76.12.16,0,.07,1.28,1.82.69,1h0l0-.06.14.18c.53.71,1.08,1.41,1.62,2.1l1,1.32c.53.65,1.07,1.3,1.61,1.94l1.14,1.34c.54.62,1.08,1.23,1.63,1.84.39.43.79.86,1.19,1.28.56.6,1.11,1.19,1.68,1.77.39.4.78.79,1.18,1.18.59.58,1.17,1.17,1.76,1.74l.79.71q1.92,1.78,3.88,3.44l1.15,1c.59.48,1.19.93,1.78,1.4l1,.76h0l1,.74h0l2.23,1.63v0l.83.55.88.58,1.19.76.65.4c.6.38,1.21.74,1.82,1.08.19.12.39.22.59.33.42.24.83.47,1.25.69l.7.37,1.13.58.73.35,1.09.52.73.32,1.08.47.73.29,1.06.42.71.26,1.07.37.68.23,1.08.32.65.19,1.11.29.59.14,1.16.25.51.1c.43.08.85.14,1.27.2l.37.06c.52.07,1,.13,1.55.17h.05q.82.07,1.62.09l1.7.06v-.09h.21c.28,0,.55,0,.83-.06l1.1-.11.78-.12q.6-.1,1.17-.24l.57-.13a17.33,17.33,0,0,0,1.68-.53,14.73,14.73,0,0,0,5-3.12,14.5,14.5,0,0,0,1-1.06c.07-.08.14-.18.21-.27q.36-.42.69-.87c.1-.15.2-.3.29-.45s.36-.53.52-.81.21-.36.31-.55.28-.53.41-.81l.3-.64c.11-.27.23-.54.34-.83s.18-.48.27-.72.19-.57.28-.86.16-.53.24-.81.15-.58.22-.87.15-.6.21-.91c0-.06,0-.12,0-.18h0l.23-1.46c.14-.84.24-1.72.32-2.61,0-.12,0-.24,0-.36.16-1.77.24-3.62.24-5.56,0-.17,0-.34,0-.51,0-.94,0-1.89,0-2.86,0-.16,0-.33,0-.49,0-.83-.07-1.67-.11-2.52,0-.29,0-.58,0-.87,0-.09,0-.18,0-.27s0-.5,0-.75c-.06-1-.12-2-.2-3l-.06-.84c-.09-1.09-.18-2.2-.27-3.32,0-.06,0-.13,0-.19h0l0-.31,0-.6c0-.26,0-.51-.07-.76l0-.39s0-.09,0-.13,0-.27,0-.41l-.1-1.09h0c-.09-1-.19-2.06-.29-3.1l-.06-.64c-.13-1.38-.26-2.78-.39-4.19-.07-.77-.15-1.56-.22-2.34s-.13-1.48-.2-2.23-.13-1.47-.19-2.21-.13-1.58-.2-2.37l-.18-2.27c0-.64-.09-1.28-.14-1.92l-.09-1.47c-.57-7.88-.92-16-1-24.1l0-1.06h0c0-.49,0-1,0-1.47,0-1.37,0-2.73,0-4.07v-.7A1.56,1.56,0,0,0,111,30l.32-.14,0,0,.34-.15.49-.24.23-.12.5-.29a1.19,1.19,0,0,0,.15-.09c.21-.13.42-.27.63-.43l.18-.12c.21-.17.43-.34.63-.53a.94.94,0,0,0,.1-.1,8.08,8.08,0,0,0,.57-.6l.06-.08a5.4,5.4,0,0,0,.51-.74l.08-.14a4.87,4.87,0,0,0,.38-.87v0l53.11.8,0,2.26h0a1.49,1.49,0,0,0,.11.6h0a1.6,1.6,0,0,0,.32.49,1.92,1.92,0,0,0,.22.18h0a1.71,1.71,0,0,0,.23.13l0,0h0a1.47,1.47,0,0,0,.6.13l57.79.86h.25l.41,0h.07l.13,0a1.66,1.66,0,0,0,.22,0h.07l.11,0,.36-.09h0c.16-.05.33-.09.49-.15s.22-.12.33-.17l.31-.17a6.65,6.65,0,0,0,.56-.36l.31-.25.25-.2c.06-.06.12-.14.18-.21a4.35,4.35,0,0,0,.34-.41c.09-.11.17-.23.25-.35a6,6,0,0,0,.35-.61c0-.05.05-.09.07-.14a.42.42,0,0,0,0-.1s0-.08,0-.11a5.44,5.44,0,0,0,.25-.81,1.29,1.29,0,0,0,0-.19c0-.25.07-.51.09-.77,0-.05,0-.1,0-.15l0-3v0ZM110,114.92l-.06.18a17.86,17.86,0,0,1-1.19,3l-.07.14-.45.79a2.39,2.39,0,0,0-.13.21c-.16.24-.31.47-.48.7l-.14.18a11.46,11.46,0,0,1-1.22,1.37c-.24.23-.5.44-.76.65l-.06,0c-.22.17-.45.32-.68.47s-.18.13-.27.18a7.14,7.14,0,0,1-.71.4l-.31.16-.77.34-.29.11q-.42.16-.87.3l-.1,0a15.57,15.57,0,0,1-3.4.58l-.15,0c.35-3.55.62-7.45.84-12h0v0c.94.18,1.87.32,2.8.45l.28,0a55.87,55.87,0,0,0,5.57.49h.23c.89,0,1.77,0,2.65,0h.06l-.09.35C110.19,114.35,110.11,114.64,110,114.92ZM24,40c-.1-.45-.18-.91-.27-1.37-.18-.93-.36-1.87-.52-2.8-.1-.58-.19-1.16-.28-1.73-.14-.85-.27-1.7-.38-2.55-.06-.36-.11-.73-.15-1.1h0c1.13.32,2.35.63,3.67.92.06.28.14.55.2.83.29,1.24.59,2.47.92,3.7.11.44.23.88.35,1.32.37,1.36.77,2.72,1.19,4.06.06.19.1.38.16.57-.83,2.21-1.75,4.62-2.71,7.1L26,48c-.22-.83-.44-1.65-.65-2.49-.14-.55-.28-1.09-.41-1.65C24.6,42.56,24.31,41.26,24,40Zm39.05,69-1.34-1.19c-.56-.49-1.11-1-1.65-1.51s-.88-.82-1.31-1.24-1.1-1.09-1.65-1.65-.83-.83-1.23-1.26c-.58-.61-1.15-1.23-1.71-1.85-.37-.4-.74-.8-1.1-1.21-.72-.81-1.43-1.65-2.14-2.5l-.58-.68c-.89-1.08-1.75-2.18-2.61-3.3-.26-.35-.52-.72-.79-1.07-.49-.66-1-1.32-1.45-2,.94-2.95,1.9-6.16,2.93-9.86v0h0l0-.08.13.17.58.75.69.85.59.72.7.84c.2.23.39.47.6.7l.73.84c.19.22.38.45.58.67s.57.63.86,1l.75.82,1,1.06.64.66c.24.24.48.49.73.73l.69.69.69.68.72.68.69.65.4.36.13.12.21.19.69.63.75.66c.24.22.49.43.74.64l.43.36.45.38.41.35.8.65.74.59.76.6.23.17.08.06.43.33.79.6c.24.18.48.36.73.53l.33.25h0c-.06.37-.12.75-.18,1.11,0,.08,0,.17,0,.26l0,.14-.3,1.76c0,.14-.05.28-.08.42l-.27,1.51,0,.1c-.47,2.55-.94,4.88-1.44,7.06l-.48-.37c-.46-.36-.92-.74-1.38-1.12S63.65,109.4,63.09,108.92Zm-23-27.7-.88-1.5c-.48-.83-1-1.67-1.42-2.51-.29-.52-.57-1-.85-1.56-.46-.86-.91-1.73-1.35-2.6-.26-.51-.52-1-.77-1.54-.46-.93-.89-1.86-1.33-2.8-.21-.47-.44-.94-.65-1.41-.49-1.1-1-2.2-1.42-3.31l-.4-1c-1.13-2.78-2.15-5.59-3.08-8.42,1-2.41,1.9-4.84,2.78-7.15v0h0l0-.13a120.56,120.56,0,0,0,12,24.17l.7,1.07c.69,1,1.4,2.09,2.13,3.11-1,3.7-1.93,6.91-2.82,9.83-.09-.15-.2-.29-.29-.43-.3-.45-.58-.91-.87-1.37C41.16,82.91,40.63,82.07,40.12,81.22Zm67.2-37.45v0c0,.37,0,.74,0,1.1q.18,5.45.48,10.82v.07c.06,1.12.12,2.24.19,3.35v0l-.09,0-.88-.27-1.62-.53-.88-.32c-.73-.27-1.47-.56-2.2-.87l-.8-.37c-.34-.14-.67-.3-1-.46.06-1,.12-2,.2-3,.41-6,.93-12,1.56-18v-.12a56,56,0,0,0,4.84,3.25C107.23,40.25,107.27,42,107.32,43.77Zm3.13,44.1h0a136.16,136.16,0,0,1,.72,19.59c0,.09,0,.19,0,.29,0,.67-.11,1.33-.18,2l0,.28a53.45,53.45,0,0,1-12.09-1c.2-5.42.31-11,.42-16.81,0-1.94.08-3.93.12-5.92h0v-.06l.12,0,.39.09c.64.16,1.27.31,1.91.45l.4.09.21,0c.82.17,1.63.32,2.45.44H105l.36,0c.7.11,1.39.19,2.09.27l.56.06C108.82,87.77,109.64,87.83,110.45,87.87ZM93.31,124.59l-.44-.06q-.7-.09-1.44-.24l-.69-.15-.8-.17-.83-.21-.7-.19-.88-.26-.67-.21-.92-.31-.65-.23-1-.36L83.7,122l-1-.41-.61-.26-1-.47-.53-.25c-1.23-.58-2.47-1.23-3.72-1.92l-.62-.35-.9-.52-.82-.49-.81-.5-.91-.58-.75-.49L71,115l-.67-.46-.46-.33v0c.08-.33.15-.67.23-1l.21-.91c0-.2.09-.4.13-.6.27-1.21.53-2.46.78-3.76h0q.19-1,.39-2.07v0c.24-1.28.47-2.6.71-4h0v0l.43.27a2.9,2.9,0,0,1,.29.19l.12.07.22.14c.3.2.61.39.92.58l.61.37L76,104l.48.28c.49.28,1,.56,1.48.83l.59.32.94.49.69.35.86.43.71.35.85.4.71.33.88.38.68.3,1.08.44.78.31c.4.16.8.32,1.2.46l.68.25.89.31.25.09h0l.44.15.84.27.76.24.82.24.77.22.82.22.77.21h.06c-.22,4.93-.51,9.07-.89,12.79ZM65,91.56l-1.26-1.1,0,0c-.42-.37-.83-.75-1.23-1.13l-.92-.86L61,87.89l-1-1c-.34-.34-.69-.68-1-1l-.58-.6-.79-.84L56.43,83.2l-.33-.38c-.29-.32-.57-.64-.85-1l-1.17-1.33c-.39-.47-.77-1-1.16-1.43s-.71-.86-1.06-1.31c-.53-.66-1-1.35-1.55-2L49.72,75l.52-2,.42-1.6c.33-1.26.66-2.53,1-3.82a.93.93,0,0,1,0-.13c.73-2.85,1.46-5.77,2.22-8.77l1.5-5.94c.11-.44.23-.89.34-1.34A88,88,0,0,0,72.87,71.7q-.39,2.85-.76,5.66-.72,5.52-1.45,10.75h0c-.22,1.6-.44,3.16-.67,4.72l-.12.77c-.08.57-.17,1.12-.25,1.68l-.23-.16q-.84-.64-1.68-1.32l-.38-.3-1.08-.89C65.82,92.27,65.41,91.92,65,91.56ZM41.71,62.4c-.52-.94-1-1.89-1.52-2.85-.22-.42-.42-.85-.63-1.27-.36-.72-.72-1.44-1.06-2.16-.27-.57-.52-1.15-.78-1.73s-.55-1.18-.81-1.77-.56-1.35-.84-2-.43-1-.63-1.55c-.29-.72-.56-1.45-.83-2.18-.18-.49-.37-1-.55-1.47-.26-.73-.51-1.46-.76-2.2-.14-.43-.29-.85-.43-1.28.71-1.85,1.41-3.73,2.13-5.64l1.21-3.21c3.44.46,7.15.85,11,1.15.14.38.3.75.45,1.12.33.83.66,1.66,1,2.47.2.47.42.93.62,1.39.33.73.64,1.47,1,2.19.87,1.83,1.8,3.65,2.77,5.42-.95,3.72-1.88,7.38-2.77,10.93-1.16,4.59-2.27,9-3.38,13.25-.33-.49-.66-1-1-1.47q-2.09-3.22-4-6.6C41.89,62.75,41.8,62.58,41.71,62.4ZM94.26,80.57l-.81-.32c-.7-.29-1.4-.6-2.1-.91L90.62,79c-.68-.32-1.37-.66-2.05-1l-.89-.47c-.41-.22-.83-.44-1.23-.68l-.17-.09L85.07,76c-.39-.23-.78-.46-1.16-.7l-.74-.49-.86-.57-.58-.38-1-.71-.44-.32c-.45-.33-.9-.65-1.35-1s-.78-.62-1.17-.93-.64-.5-1-.76C77.79,63,79,54.69,80.42,46c.61.65,1.24,1.29,1.87,1.91l.39.38c.58.56,1.17,1.11,1.76,1.64l.72.63c.33.3.66.59,1,.87l.1.08.5.41.67.55.71.55.22.17c.43.34.87.67,1.31,1l.5.35.31.22,1.53,1,.87.55c.45.29.91.57,1.37.84l.45.27.64.37.25.15.08,0,1.06.58c-.4,6.78-.67,13.89-.89,22.61l-.25-.09C95.14,80.92,94.7,80.74,94.26,80.57ZM72.45,66.28c-.53-.5-1.06-1-1.58-1.54-.36-.36-.71-.74-1.06-1.11s-.92-1-1.37-1.46l-1.08-1.23c-.42-.48-.84-1-1.26-1.48s-.71-.86-1.06-1.3-.8-1-1.19-1.54-.69-.9-1-1.36-.78-1.11-1.17-1.67-.63-.88-.93-1.33c-.65-1-1.29-2-1.91-3-.28-.45-.54-.92-.81-1.38s-.64-1.06-.94-1.6c1-4.07,2-7.84,3-11.42,1.5,0,3,.08,4.53.1,2.45,0,4.88,0,7.26,0a74.94,74.94,0,0,0,5.38,7.38h0c-1.54,8.88-2.77,17.4-3.79,24.87l-.09-.07Zm24.8-15.35c-.06.72-.12,1.44-.17,2.16,0,.46-.06.92-.1,1.38h0l-.28-.16h0q-1.08-.61-2.13-1.29l-.72-.48c-.53-.35-1.06-.71-1.58-1.08l-.8-.59q-.78-.57-1.53-1.17l-.74-.59c-.51-.41-1-.84-1.51-1.28-.22-.19-.44-.37-.66-.57-.66-.6-1.32-1.21-2-1.84A1.14,1.14,0,0,1,85,45.3h0c-.72-.7-1.42-1.43-2.12-2.18l-.27-.31c-.45-.49-.89-1-1.33-1.51.27-1.57.56-3.18.86-4.77.12-.63.26-1.25.38-1.88,6-.33,11.61-.87,16.4-1.62-.07.66-.13,1.32-.19,2q-.33,3-.6,6c-.06.62-.13,1.23-.19,1.85-.07.83-.13,1.65-.2,2.48C97.53,47.21,97.38,49.07,97.25,50.93ZM51.91,35.83c-.19-.44-.36-.88-.54-1.32,1.61.09,3.24.18,4.9.25-.59,2.15-1.19,4.37-1.79,6.69l-.54-1.09c-.09-.19-.18-.37-.26-.55-.48-1-.94-2-1.38-3.05Zm24.36-.93,2.36-.08c-.07.34-.13.67-.2,1-.09.51-.19,1-.28,1.52a.78.78,0,0,0,0,.14C77.49,36.65,76.87,35.78,76.27,34.9ZM32.44,32.52c-.3.82-.62,1.64-.92,2.46a0,0,0,0,1,0,0c-.09.26-.19.51-.28.77,0,.1-.08.19-.12.3-.35-1.31-.67-2.62-1-3.94Zm62.78,75.57-.35-.09L93,107.47l-1.16-.36c-.61-.2-1.23-.41-1.84-.63l-1.11-.41L87,105.34l-1-.43c-.66-.28-1.33-.57-2-.88-.21-.09-.41-.2-.62-.3a77.45,77.45,0,0,1-7.28-4l-.52-.32c-.68-.42-1.35-.87-2-1.32l-.6-.4c0-.06,0-.11,0-.17,1-6.26,1.85-12.79,2.76-19.69.15-1.11.3-2.25.45-3.38a66.29,66.29,0,0,0,19.52,10.6l0,1.15c0,2-.08,3.93-.12,5.84,0,1.14,0,2.26-.06,3.39-.09,4.32-.19,8.5-.33,12.59Zm14.58-24c-.62,0-1.23-.09-1.85-.16l-.66-.06c-.77-.09-1.55-.2-2.32-.33l-.35-.06c-.68-.12-1.37-.26-2.05-.41L102,83h0c-.76-.18-1.52-.37-2.28-.58l-.16-.05c.16-6.84.37-12.82.63-18.33.06-1.25.12-2.48.19-3.7l.33.14.17.07c.77.33,1.54.64,2.32.93l.36.14.36.12c.87.32,1.75.61,2.63.87l.35.1.66.18.79.23c.43,6,1,12,1.54,17.74.1,1.1.21,2.21.31,3.3Zm-3.25-50.45-.85-.59c-.48-.34-1-.69-1.43-1,1-.23,2-.46,2.84-.7q0,1.35,0,2.73Z"/>
  </g>
</svg>
