<svg id="e670a61c-ed4b-49f3-a669-5d57e6bfa527" data-name="Layer 1" xmlns="http://www.w3.org/2000/svg" width="111.35" height="261.71" viewBox="0 0 111.35 261.71">
  <defs>
    <style>
      .e691a8b8-1a74-4cf5-82c7-0d4715c18f70 {
        opacity: 0.5;
      }

      .e9f1a6a6-aed3-4330-9b4d-3ea63e19131a {
        fill: #fff;
      }

      .e831fa48-616a-49a2-b99c-6ee3448ddb33 {
        fill: #a8650e;
      }

      .b2fafc09-ad6b-4671-8321-e95e55e5d9cb {
        fill: #c98727;
      }

      .b55eaa3f-420d-4ced-8c84-e92d1a7a066d {
        fill: #e2a14b;
      }

      .b422eff4-2244-45a6-a886-095973eb853f {
        fill: #844c08;
      }
    </style>
  </defs>
  <g>
    <path class="e691a8b8-1a74-4cf5-82c7-0d4715c18f70" d="M65.34,257.39a8.33,8.33,0,0,1-2-.26l-5.1-1.35a8,8,0,0,1-5.88-8.85l3-21.49L35.23,222l-3.45,17.61a8,8,0,0,1-5.17,6L22,247.22a8,8,0,0,1-5,.12L12.53,246A8,8,0,0,1,7,236.8L49.6,20a8,8,0,0,1,6.65-6.36l4.85-.74A8,8,0,0,1,66.49,14l3.69,2.26a8,8,0,0,1,3.65,8.35l-1,5.17,10-.44,1.75-12.45a8,8,0,0,1,6.86-6.82l5.39-.72a7.55,7.55,0,0,1,1.06-.07,8,8,0,0,1,4.08,1.12l3.65,2.16a8,8,0,0,1,3.84,8L77.94,248.92a8,8,0,0,1-5.38,6.49L67.89,257A7.88,7.88,0,0,1,65.34,257.39Zm-6.86-54.45,1.85-13.2L42,187.62l-2.4,12.26Zm5-35.35,1.69-12.1L48.52,154,46.25,165.6Zm4.79-34.18,1.69-12-14.86-.75L52.79,132.2ZM73,99.22l1.73-12.4-13-.16L59.36,98.6Zm4.87-34.79,1.7-12.14-11.2.2L66.07,64.33Z"/>
    <path class="e9f1a6a6-aed3-4330-9b4d-3ea63e19131a" d="M60.34,252.39a8.33,8.33,0,0,1-2-.26l-5.1-1.35a8,8,0,0,1-5.88-8.85l3-21.49L30.23,217l-3.45,17.61a8,8,0,0,1-5.17,6L17,242.22a8,8,0,0,1-5,.12L7.53,241A8,8,0,0,1,2,231.8L44.6,15a8,8,0,0,1,6.65-6.36l4.85-.74A8,8,0,0,1,61.49,9l3.69,2.26a8,8,0,0,1,3.65,8.35l-1,5.17,10-.44,1.75-12.45a8,8,0,0,1,6.86-6.82l5.39-.72a7.55,7.55,0,0,1,1.06-.07,8,8,0,0,1,4.08,1.12l3.65,2.16a8,8,0,0,1,3.84,8L72.94,243.92a8,8,0,0,1-5.38,6.49L62.89,252A7.88,7.88,0,0,1,60.34,252.39Zm-6.86-54.45,1.85-13.2L37,182.62l-2.4,12.26Zm5-35.35,1.69-12.1L43.52,149,41.25,160.6Zm4.79-34.18,1.69-12-14.86-.75L47.79,127.2ZM68,94.22l1.73-12.4-13-.16L54.36,93.6Zm4.87-34.79,1.7-12.14-11.2.2L61.07,59.33Z"/>
    <g>
      <polygon class="e831fa48-616a-49a2-b99c-6ee3448ddb33" points="21.67 205.17 22.32 201.84 25.11 201.46 30.52 173.82 27.94 173.52 28.01 172.88 28.96 168.05 31.74 167.56 31.74 167.56 37.05 140.45 34.52 139.76 35.6 134.27 38.22 134.48 43.54 107.28 41.04 106.61 42.13 101.05 44.73 101.17 50.13 73.58 47.69 72.78 48.78 67.22 51.37 67.25 56.78 39.62 54.41 38.62 55.44 33.37 58.02 33.26 60.98 18.12 57.3 15.85 14.28 234.68 18.93 233.03 23.88 207.75 21.3 207.3 21.67 205.17"/>
      <polygon class="b2fafc09-ad6b-4671-8321-e95e55e5d9cb" points="52.45 16.59 9.84 233.34 14.28 234.68 57.3 15.85 52.45 16.59"/>
      <polygon class="b55eaa3f-420d-4ced-8c84-e92d1a7a066d" points="22.32 201.84 21.67 205.17 21.3 207.3 23.88 207.75 59.33 213.88 60.1 208.37 22.32 201.84"/>
      <polygon class="b55eaa3f-420d-4ced-8c84-e92d1a7a066d" points="28.96 168.05 28.01 172.88 27.94 173.52 30.52 173.82 64.39 177.74 65.16 172.24 31.59 168.35 28.96 168.05"/>
      <polygon class="b55eaa3f-420d-4ced-8c84-e92d1a7a066d" points="35.6 134.27 34.52 139.76 69.33 142.49 70.1 136.97 38.22 134.48 35.6 134.27"/>
      <polygon class="b55eaa3f-420d-4ced-8c84-e92d1a7a066d" points="42.13 101.05 41.04 106.61 43.65 106.72 74.15 108.08 74.93 102.54 44.73 101.17 42.13 101.05"/>
      <polygon class="b55eaa3f-420d-4ced-8c84-e92d1a7a066d" points="48.78 67.22 47.69 72.78 79.06 73.04 79.84 67.49 51.37 67.25 48.78 67.22"/>
      <polygon class="b55eaa3f-420d-4ced-8c84-e92d1a7a066d" points="54.41 38.62 56.99 38.53 84.03 37.62 84.8 32.08 58.02 33.26 55.44 33.37 54.41 38.62"/>
      <polygon class="b2fafc09-ad6b-4671-8321-e95e55e5d9cb" points="87.47 13.04 84.8 32.08 84.03 37.62 84.03 37.62 83.82 39.12 79.84 67.49 79.06 73.04 78.94 73.93 74.93 102.54 74.15 108.08 74.05 108.8 70.1 136.97 69.33 142.49 69.22 143.25 65.28 171.44 65.16 172.24 64.39 177.74 60.27 207.14 60.1 208.37 59.33 213.88 55.24 243.04 60.34 244.39 92.86 12.32 87.47 13.04"/>
      <polygon class="e831fa48-616a-49a2-b99c-6ee3448ddb33" points="92.86 12.32 60.34 244.39 65.01 242.82 96.51 14.48 92.86 12.32"/>
      <polygon class="b422eff4-2244-45a6-a886-095973eb853f" points="54.41 38.62 56.78 39.62 83.82 39.12 84.03 37.62 84.03 37.62 56.99 38.53 54.41 38.62"/>
      <polygon class="b422eff4-2244-45a6-a886-095973eb853f" points="50.13 73.58 78.94 73.93 79.06 73.04 47.69 72.78 50.13 73.58"/>
      <polygon class="b422eff4-2244-45a6-a886-095973eb853f" points="41.04 106.61 43.54 107.28 74.05 108.8 74.15 108.08 43.65 106.72 41.04 106.61"/>
      <polygon class="b422eff4-2244-45a6-a886-095973eb853f" points="22.32 201.84 60.1 208.37 60.27 207.14 25.11 201.46 22.32 201.84"/>
      <polygon class="b422eff4-2244-45a6-a886-095973eb853f" points="31.74 167.56 28.96 168.05 31.59 168.35 65.16 172.24 65.28 171.44 31.74 167.56 31.74 167.56"/>
      <polygon class="b422eff4-2244-45a6-a886-095973eb853f" points="37.05 140.45 69.22 143.25 69.33 142.49 34.52 139.76 37.05 140.45"/>
    </g>
  </g>
</svg>
