<svg xmlns="http://www.w3.org/2000/svg" xmlns:xlink="http://www.w3.org/1999/xlink" width="149.03" height="310.53" viewBox="0 0 149.03 310.53">
  <defs>
    <style>
      .a3768874-8f61-4b5e-9e7d-a9b45b78a006, .f755d628-6a53-4481-b44e-0e4b9d5fea55 {
        mask: url(#a35aa3d9-d46f-40d1-a04c-141149a1b57e);
      }

      .a3768874-8f61-4b5e-9e7d-a9b45b78a006 {
        filter: url(#f4464682-9afb-4c07-b9bc-c03929b769dd);
      }

      .a0228a36-28c4-418a-ad69-98a861e6eb0d, .a3188eeb-b07c-40a6-8009-e2238ab2c8ca, .af21d30b-80a4-4654-a068-23d5e6f778b1, .af8da1d8-40db-41c8-8c70-9a0a667100cd, .afde8851-1ef3-4fba-931f-5d9fb9ada19e, .b02418db-9115-496d-9f1c-4e66cf9a80dd, .b4bf8e44-9c4e-44ef-8a1a-5bcd7d9ff098, .ba7f647e-b661-4b9d-b38a-edd3af8f88c7, .bb8b86d8-aee2-4a0a-b289-4bdabe1b24d6, .bc4c5177-d9ff-4fbc-81c4-ae7e1a7a4985, .e14657d9-4678-4b29-ab9f-8b2570ab1907, .e245d788-0cfb-4fd1-8a12-423ff621ae02, .e5bcbcb5-0772-4d30-b1be-ac454d8c53c7, .e930fd21-19b6-4cae-b31d-8b5e109e7f34, .ee310f0f-95e8-4c00-b7b0-884b9edb0349, .f6622e1d-beb7-46f4-a667-e13a5758cb36, .f8985c42-6c20-4c6c-a9d4-fc28584174fd {
        mix-blend-mode: multiply;
      }

      .a0228a36-28c4-418a-ad69-98a861e6eb0d {
        fill: url(#e6351f19-34dd-4faa-96b2-b65b5f4d66cb);
      }

      .e9991007-198b-4fd9-92b4-3cda664e8fdc, .efd44cbb-f695-4748-8e14-0a430f1bda77 {
        mask: url(#a986352c-b5ea-4223-95f0-2d473e3874ab);
      }

      .e9991007-198b-4fd9-92b4-3cda664e8fdc {
        filter: url(#b78e086c-ee06-4b7d-b623-ebc2b7866588);
      }

      .e14657d9-4678-4b29-ab9f-8b2570ab1907 {
        fill: url(#b6ae13fb-1306-4745-8120-085fb452a100);
      }

      .a2f49509-06ce-4a60-a92a-e461be370749, .ad7d197b-55e4-4a98-ab7c-f7cc23541772 {
        mask: url(#e1ef6552-12d0-43e8-93cf-00a67bcce544);
      }

      .ad7d197b-55e4-4a98-ab7c-f7cc23541772 {
        filter: url(#a79807dc-53dd-44eb-be3e-14a22f3f8026);
      }

      .e5bcbcb5-0772-4d30-b1be-ac454d8c53c7 {
        fill: url(#aef526af-85d2-4142-b295-6e268c739114);
      }

      .a01447b0-0f08-490d-a457-326d5bf2b424, .e0d09019-b4f2-4509-86db-7fa84bcf4d15 {
        mask: url(#b71adfc2-4f5f-40a1-ab7d-d2eabb45df5e);
      }

      .e0d09019-b4f2-4509-86db-7fa84bcf4d15 {
        filter: url(#a6504452-d7f2-49f6-8af7-8437b5b785e6);
      }

      .af8da1d8-40db-41c8-8c70-9a0a667100cd {
        fill: url(#bbb6031d-ac44-41c9-a6d8-b171a48421fa);
      }

      .a3d6e3d8-eddf-4883-9650-eb7e03f7eec3, .feb2339c-07b4-4d2e-b610-9f1a969a1dde {
        mask: url(#b684c23f-7391-42e8-a7ce-6f2d71843d0b);
      }

      .a3d6e3d8-eddf-4883-9650-eb7e03f7eec3 {
        filter: url(#b64d3bbf-43e2-4352-babc-9424abf6c8e3);
      }

      .f6622e1d-beb7-46f4-a667-e13a5758cb36 {
        fill: url(#af00e66e-8944-4939-abc3-3a3806b74758);
      }

      .a59f4944-d81a-49b2-90dd-50188226c894, .ab317683-6111-4158-bda7-cfc525a87bc4 {
        mask: url(#a83766c2-c636-427b-a36d-949bb76c212a);
      }

      .ab317683-6111-4158-bda7-cfc525a87bc4 {
        filter: url(#ece34206-fb14-4953-8a06-2c22a0d57f82);
      }

      .b02418db-9115-496d-9f1c-4e66cf9a80dd {
        fill: url(#b4fd1771-05cc-453a-aba2-f1b0a58d573f);
      }

      .ad5ebe4c-879f-4104-a40f-e6c2929fcdcc, .b62c99f7-a9ea-4b08-b1ca-79db61979164 {
        mask: url(#aeb9e6ee-6639-42b3-8de6-841a0899b48b);
      }

      .ad5ebe4c-879f-4104-a40f-e6c2929fcdcc {
        filter: url(#ea2255da-baaa-41e2-a080-c2767eb650ad);
      }

      .e930fd21-19b6-4cae-b31d-8b5e109e7f34 {
        fill: url(#a4b64d80-0eed-4151-9c9e-1b8ff43c69b8);
      }

      .af54a9fc-e1cf-4604-8b63-4dcd9475c36e, .b3213f19-4ee9-4991-b9a2-0ccd86abd88b {
        mask: url(#b57ad451-1ea0-4a60-bdbf-bad22288b4c8);
      }

      .a3188eeb-b07c-40a6-8009-e2238ab2c8ca {
        fill: url(#a2091bb5-9aeb-4ada-ad26-cfccad55f95d);
      }

      .b7738afe-5ad2-48c2-a61e-70f0ac15eaa0, .bbf11bb4-4f1e-4689-af95-a75e4239e104 {
        mask: url(#a45f5845-0623-4518-987e-0c361c044138);
      }

      .f8985c42-6c20-4c6c-a9d4-fc28584174fd {
        fill: url(#aec8ded6-0f76-4956-aff7-de536bca82ad);
      }

      .a31ceffc-5f67-4ec0-bd21-7b1fa066f86d, .b9d27e52-e590-41bd-88e8-5722840cff3f {
        mask: url(#bd4bde0e-3cc1-43d3-80b1-1cb4e9481cae);
      }

      .ba7f647e-b661-4b9d-b38a-edd3af8f88c7 {
        fill: url(#a1d5328e-c367-4222-824c-22d0471ac738);
      }

      .b3213f19-4ee9-4991-b9a2-0ccd86abd88b {
        filter: url(#e23ea419-6d55-4527-8f79-6fa47578228b);
      }

      .b7738afe-5ad2-48c2-a61e-70f0ac15eaa0 {
        filter: url(#a8ad2c67-8bfe-4961-9dbc-c17348d13bf8);
      }

      .b9d27e52-e590-41bd-88e8-5722840cff3f {
        filter: url(#a7021295-c586-499a-8af9-ee92b1435693);
      }

      .ab392f8a-6cb2-4aa8-81ac-78baf630efda {
        isolation: isolate;
      }

      .b6f920fc-0a6d-48a7-a701-51a000251d37, .f6637764-68a0-40b3-b039-3453703684a7 {
        opacity: 0.5;
      }

      .af63222f-5f94-416f-80a8-e11ccbd394f0, .fdba9fd5-3ece-43f3-8262-730e9505e1f9 {
        fill: #fff;
      }

      .ad12452c-c1b1-4ddd-aa05-ff7dfb267077 {
        fill: #342517;
      }

      .a1f6ac49-b75b-4302-87c1-adab804dee08, .a765136b-68a7-4b72-aaf5-2d26718d362d {
        fill: #fbd3c7;
      }

      .a1f6ac49-b75b-4302-87c1-adab804dee08, .b55ab513-838d-42ef-bbd1-634a736bd83a {
        stroke: #453323;
      }

      .a1f6ac49-b75b-4302-87c1-adab804dee08, .a9ef1873-5c9e-4eb7-a849-dae6f0bbd52c, .add7b4cc-5dfe-4c3d-b96f-0524080f6604, .afe8e59d-24fb-4de5-bf26-05ad0a46e42e, .b55ab513-838d-42ef-bbd1-634a736bd83a, .b6ac3586-5409-4b16-b371-083bb880501d, .b6f35529-dd71-408f-aa26-99aa233c392a, .b71c0529-ddab-4dfd-906c-83a4cff740d0, .ba48a9bc-e7b3-4a7d-8703-62737ba6778e, .bb27d8eb-d13b-4e0e-92fe-cc0822c46d0f, .bb303d06-00d9-4963-93e3-453c4a2fcad1, .e3ba9205-f6d6-4190-a09e-2af75614135e, .ef578d9c-8c3a-4e3e-a1bc-3550fce468d2, .fdba9fd5-3ece-43f3-8262-730e9505e1f9 {
        stroke-miterlimit: 10;
        stroke-width: 0.5px;
      }

      .fffd86eb-d27e-45e8-82a5-90a9c1f64efe {
        mask: url(#b56d3dde-cc77-4f33-8f52-a955596814cf);
      }

      .ba8d262f-ecb0-4d0a-a42f-3491d295df14 {
        fill: #dd9f8f;
      }

      .aa3fbfe1-2a0a-4d1a-85c5-ce9dff751d60 {
        fill: url(#adafc10f-496a-4a0f-832f-a55f1637146a);
      }

      .a65c6cda-5c60-4abc-841e-dd3015e64984 {
        fill: url(#ba11035e-9ab4-4aca-87af-42d1d37c7521);
      }

      .f1ee320a-302a-4998-a41e-3c00b7a9b519 {
        mask: url(#e12fb9bb-4fc8-43c1-8e33-eeb770d2b8a0);
      }

      .afde8851-1ef3-4fba-931f-5d9fb9ada19e, .bb8b86d8-aee2-4a0a-b289-4bdabe1b24d6 {
        opacity: 0.4;
      }

      .afde8851-1ef3-4fba-931f-5d9fb9ada19e {
        fill: url(#baf9575f-722c-4c7f-a8dd-5ac95619081e);
      }

      .f0167c1a-f1a3-4f2d-a1c9-b821ca9b1a31 {
        mask: url(#b4f2b1a7-ffe9-4036-95c1-437f8bf59ed6);
      }

      .a9ef1873-5c9e-4eb7-a849-dae6f0bbd52c, .afe8e59d-24fb-4de5-bf26-05ad0a46e42e, .b6ac3586-5409-4b16-b371-083bb880501d, .b71c0529-ddab-4dfd-906c-83a4cff740d0, .bb27d8eb-d13b-4e0e-92fe-cc0822c46d0f, .ef578d9c-8c3a-4e3e-a1bc-3550fce468d2 {
        stroke: #563b35;
      }

      .afe8e59d-24fb-4de5-bf26-05ad0a46e42e {
        fill: url(#ad41b375-87b6-4abc-8441-2c535cdf2858);
      }

      .b91c44db-db0c-44bd-a01f-5d3ee2a6bdba {
        mask: url(#a824d3c3-1650-4c2d-8afa-b47ccedd1eac);
      }

      .af21d30b-80a4-4654-a068-23d5e6f778b1 {
        fill: url(#bdf61206-c2d5-48d8-86a2-fb35eb50a463);
      }

      .f392d3b3-1072-410a-9e5b-b425017b2631 {
        mask: url(#ad530d0c-9107-49ab-a716-ad7bcd341ca1);
      }

      .ee310f0f-95e8-4c00-b7b0-884b9edb0349 {
        fill: url(#bc9a92e1-2ec3-4a80-87fa-15ced6666acd);
      }

      .a935dde8-842c-4057-8d71-673fad333923 {
        mask: url(#b798202f-1f91-4ac2-a576-68900f3b4ee6);
      }

      .e245d788-0cfb-4fd1-8a12-423ff621ae02 {
        fill: url(#affc8a97-1570-418d-ad2a-3783f76cd00b);
      }

      .fc8e2f5e-56a8-4add-8e2a-da2f87809f32 {
        fill: #c4628b;
      }

      .b71c0529-ddab-4dfd-906c-83a4cff740d0 {
        fill: url(#f4a6ece2-609e-4102-b3be-2683fd2b179b);
      }

      .aea74e03-51db-4088-9914-92deca2a28b7 {
        mask: url(#b8e59b09-0591-405d-9e15-211b1fef9580);
      }

      .b4bf8e44-9c4e-44ef-8a1a-5bcd7d9ff098 {
        fill: url(#e46e0eef-0200-4045-8b17-3eafa68d8aa1);
      }

      .ef578d9c-8c3a-4e3e-a1bc-3550fce468d2 {
        fill: #f9f1ef;
      }

      .ba48a9bc-e7b3-4a7d-8703-62737ba6778e {
        fill: #faf079;
        stroke: #9a9435;
      }

      .ab356fd5-35dc-4be9-b0df-1435a280e65a {
        mask: url(#bdf299d2-871a-4d3f-b606-b07ea97a6bca);
      }

      .bc4c5177-d9ff-4fbc-81c4-ae7e1a7a4985 {
        fill: url(#b2df8c4d-6a69-4087-8438-e7b11939c6f5);
      }

      .be164d51-20e0-4ef6-8d7e-2b1f140873fd {
        fill: url(#b6379108-1ff8-4e12-a73f-73534b009e23);
      }

      .a6651d44-a841-4ccc-af0d-ff613d504a45 {
        fill: url(#b51d40e1-11b5-49a7-bcf8-cdb069a0435d);
      }

      .b9e94bde-c0bf-45d7-acd6-c7b5bab5c919 {
        mask: url(#a4ee4043-43c0-4af8-9015-65a7930338e9);
      }

      .bb8b86d8-aee2-4a0a-b289-4bdabe1b24d6 {
        fill: url(#ba27e8ff-a3a0-446b-a99b-00608104be16);
      }

      .ec218063-ee9c-485b-ab1b-a0a981499d89 {
        fill: #914c37;
      }

      .a554aaaa-b640-4377-b6ca-b72393ceec42 {
        mask: url(#f5c84541-0d75-4783-9b10-36d5097a6a9b);
      }

      .abd4ce2a-1ffb-4957-9d18-389b656d8891 {
        mix-blend-mode: darken;
        fill: url(#fd6c3eed-9ccf-40c3-9f09-54f1f5e902ad);
      }

      .b55ab513-838d-42ef-bbd1-634a736bd83a {
        fill: none;
      }

      .abf892c9-8b14-40fd-8ffd-f60d4ad98c81 {
        fill: #342516;
      }

      .bb303d06-00d9-4963-93e3-453c4a2fcad1 {
        fill: #f9dad2;
        stroke: #4c2606;
      }

      .b4d4e2e3-3277-4e80-8760-51b15e93301a {
        fill: #b26b51;
      }

      .f6637764-68a0-40b3-b039-3453703684a7 {
        fill: #eaa698;
      }

      .fdba9fd5-3ece-43f3-8262-730e9505e1f9 {
        stroke: #3d2d16;
      }

      .a6e310f0-49a4-4ca6-b6fa-35aaa83f6ef5 {
        fill: #3d2d16;
      }

      .b2ca3d8b-d6b9-46fe-8ef6-82fd9a5e7d31 {
        fill: #8c3d35;
      }

      .b893c779-d314-4ee7-9b4e-d9f0984fb8a0 {
        fill: #7a2f2b;
      }

      .a112ee68-e3a3-4b11-a288-008ae2d0f677 {
        fill: #f9988f;
      }

      .b076773c-7434-4b2f-8db3-5c9f61ef320d {
        fill: #f58778;
      }

      .a26e0ebb-9831-4917-82e7-dd16df5eac26 {
        fill: #fff7f4;
      }

      .ff763314-e6d4-4d8f-a731-1fd2a9b3ebb2 {
        fill: #f48a71;
      }

      .a6177cd5-174d-423e-a333-752fe3787275 {
        fill: #ef4b3b;
      }

      .e3ba9205-f6d6-4190-a09e-2af75614135e {
        fill: #fe66ca;
      }

      .add7b4cc-5dfe-4c3d-b96f-0524080f6604, .e3ba9205-f6d6-4190-a09e-2af75614135e {
        stroke: #af1086;
      }

      .a43ba14a-bc81-4bed-aca5-799fc7dca6ef {
        fill: #fffa71;
      }

      .bb1d749a-9e48-4c51-a9b1-a99166ebeea1 {
        fill: #cc0098;
      }

      .add7b4cc-5dfe-4c3d-b96f-0524080f6604 {
        fill: #e852bb;
      }

      .b6f35529-dd71-408f-aa26-99aa233c392a {
        fill: #e7d760;
        stroke: #baa73b;
      }

      .b6ac3586-5409-4b16-b371-083bb880501d {
        fill: url(#e5eecfc2-e039-463a-8a8d-707af07beab0);
      }

      .a9ef1873-5c9e-4eb7-a849-dae6f0bbd52c {
        fill: url(#f5472829-063c-4593-be64-cc33519daeae);
      }

      .bb27d8eb-d13b-4e0e-92fe-cc0822c46d0f {
        fill: url(#bd3ee6d1-ffa8-4eec-a484-a0634f07b5f0);
      }

      .af221209-b1ad-4e39-8434-f254bcc7a5ef {
        fill: #ba8313;
      }

      .b0745512-fa8f-4dba-83a7-072659ac2c9c {
        fill: #f86909;
      }

      .f68d4660-f993-47c8-b5d0-eda547c64220 {
        filter: url(#b730cd17-d973-4795-ad98-60b82132e352);
      }

      .baee2732-190a-428c-b194-4735e5823007 {
        filter: url(#fb904d63-41ff-448c-a4c4-9aba8c2aa344);
      }

      .ac8da746-c097-4921-8575-32e894997dcb {
        filter: url(#b794168b-d886-4f07-8cb4-ff50031cf6a3);
      }

      .ea155836-cd52-4135-bded-ccb1a9fe41f6 {
        filter: url(#aaf6203d-92cd-45eb-97ea-a36136df0413);
      }

      .f15436b9-09f2-4dad-9433-401896f387ca {
        filter: url(#a75ce997-36a7-4ac5-960b-8c66938dc54c);
      }

      .a193265b-75cc-42fc-9b90-e09869caed51 {
        filter: url(#b067d073-ac70-407c-a63c-7d3b6df078f8);
      }

      .bbe4980c-ce23-4819-a952-1a1de7b31865 {
        filter: url(#bc337e98-fc38-4380-9181-d74efc3bb520);
      }

      .a795501c-4aac-48e6-bd5d-0efbc271ba0d {
        filter: url(#a4ef915e-a88b-4a5b-9d0b-d0255a26a5ef);
      }

      .a975df35-8664-429a-ab33-6a17ea3db035 {
        filter: url(#a6bd2162-871f-49b3-bddd-ab8fde39c6c5);
      }

      .be397292-9b9c-43e4-86a9-3470b2ba0746 {
        filter: url(#ebe74dce-d87e-4318-a576-425c28fbc706);
      }
    </style>
    <filter id="ebe74dce-d87e-4318-a576-425c28fbc706" x="47.52" y="-8658.65" width="15.35" height="32766" filterUnits="userSpaceOnUse" color-interpolation-filters="sRGB">
      <feFlood flood-color="#fff" result="bg"/>
      <feBlend in="SourceGraphic" in2="bg"/>
    </filter>
    <mask id="a35aa3d9-d46f-40d1-a04c-141149a1b57e" x="47.52" y="-8658.65" width="15.35" height="32766" maskUnits="userSpaceOnUse">
      <g class="be397292-9b9c-43e4-86a9-3470b2ba0746"/>
    </mask>
    <linearGradient id="e6351f19-34dd-4faa-96b2-b65b5f4d66cb" x1="2066.19" y1="250.47" x2="2102.33" y2="263.15" gradientTransform="matrix(-1, 0, 0, 1, 2147.97, 0)" gradientUnits="userSpaceOnUse">
      <stop offset="0" stop-color="#fff"/>
      <stop offset="1"/>
    </linearGradient>
    <filter id="a6bd2162-871f-49b3-bddd-ab8fde39c6c5" x="23.38" y="-8658.65" width="18.51" height="32766" filterUnits="userSpaceOnUse" color-interpolation-filters="sRGB">
      <feFlood flood-color="#fff" result="bg"/>
      <feBlend in="SourceGraphic" in2="bg"/>
    </filter>
    <mask id="a986352c-b5ea-4223-95f0-2d473e3874ab" x="23.38" y="-8658.65" width="18.51" height="32766" maskUnits="userSpaceOnUse">
      <g class="a975df35-8664-429a-ab33-6a17ea3db035"/>
    </mask>
    <linearGradient id="b6ae13fb-1306-4745-8120-085fb452a100" x1="2153.38" y1="197.06" x2="2103.88" y2="211.87" xlink:href="#e6351f19-34dd-4faa-96b2-b65b5f4d66cb"/>
    <filter id="a4ef915e-a88b-4a5b-9d0b-d0255a26a5ef" x="79.3" y="-8658.65" width="6.05" height="32766" filterUnits="userSpaceOnUse" color-interpolation-filters="sRGB">
      <feFlood flood-color="#fff" result="bg"/>
      <feBlend in="SourceGraphic" in2="bg"/>
    </filter>
    <mask id="e1ef6552-12d0-43e8-93cf-00a67bcce544" x="79.3" y="-8658.65" width="6.05" height="32766" maskUnits="userSpaceOnUse">
      <g class="a795501c-4aac-48e6-bd5d-0efbc271ba0d"/>
    </mask>
    <linearGradient id="aef526af-85d2-4142-b295-6e268c739114" x1="2047.36" y1="165.47" x2="2072.14" y2="159.78" xlink:href="#e6351f19-34dd-4faa-96b2-b65b5f4d66cb"/>
    <filter id="bc337e98-fc38-4380-9181-d74efc3bb520" x="77.16" y="-8658.65" width="5.5" height="32766" filterUnits="userSpaceOnUse" color-interpolation-filters="sRGB">
      <feFlood flood-color="#fff" result="bg"/>
      <feBlend in="SourceGraphic" in2="bg"/>
    </filter>
    <mask id="b71adfc2-4f5f-40a1-ab7d-d2eabb45df5e" x="77.16" y="-8658.65" width="5.5" height="32766" maskUnits="userSpaceOnUse">
      <g class="bbe4980c-ce23-4819-a952-1a1de7b31865"/>
    </mask>
    <linearGradient id="bbb6031d-ac44-41c9-a6d8-b171a48421fa" x1="2072.91" y1="263.64" x2="2099.1" y2="257.62" gradientTransform="matrix(-1, -0.08, -0.08, 1, 2185.78, 91.48)" xlink:href="#e6351f19-34dd-4faa-96b2-b65b5f4d66cb"/>
    <filter id="b067d073-ac70-407c-a63c-7d3b6df078f8" x="93.22" y="-8658.65" width="10.83" height="32766" filterUnits="userSpaceOnUse" color-interpolation-filters="sRGB">
      <feFlood flood-color="#fff" result="bg"/>
      <feBlend in="SourceGraphic" in2="bg"/>
    </filter>
    <mask id="b684c23f-7391-42e8-a7ce-6f2d71843d0b" x="93.22" y="-8658.65" width="10.83" height="32766" maskUnits="userSpaceOnUse">
      <g class="a193265b-75cc-42fc-9b90-e09869caed51"/>
    </mask>
    <linearGradient id="af00e66e-8944-4939-abc3-3a3806b74758" x1="2029.97" y1="260.02" x2="2058.36" y2="287.63" xlink:href="#e6351f19-34dd-4faa-96b2-b65b5f4d66cb"/>
    <filter id="a75ce997-36a7-4ac5-960b-8c66938dc54c" x="82.85" y="-8658.65" width="12.67" height="32766" filterUnits="userSpaceOnUse" color-interpolation-filters="sRGB">
      <feFlood flood-color="#fff" result="bg"/>
      <feBlend in="SourceGraphic" in2="bg"/>
    </filter>
    <mask id="a83766c2-c636-427b-a36d-949bb76c212a" x="82.85" y="-8658.65" width="12.67" height="32766" maskUnits="userSpaceOnUse">
      <g class="f15436b9-09f2-4dad-9433-401896f387ca"/>
    </mask>
    <linearGradient id="b4fd1771-05cc-453a-aba2-f1b0a58d573f" x1="2075.01" y1="172.02" x2="2055.82" y2="159.34" xlink:href="#e6351f19-34dd-4faa-96b2-b65b5f4d66cb"/>
    <filter id="aaf6203d-92cd-45eb-97ea-a36136df0413" x="59.47" y="-8658.65" width="3.12" height="32766" filterUnits="userSpaceOnUse" color-interpolation-filters="sRGB">
      <feFlood flood-color="#fff" result="bg"/>
      <feBlend in="SourceGraphic" in2="bg"/>
    </filter>
    <mask id="aeb9e6ee-6639-42b3-8de6-841a0899b48b" x="59.47" y="-8658.65" width="3.12" height="32766" maskUnits="userSpaceOnUse">
      <g class="ea155836-cd52-4135-bded-ccb1a9fe41f6"/>
    </mask>
    <linearGradient id="a4b64d80-0eed-4151-9c9e-1b8ff43c69b8" x1="2061.49" y1="266.94" x2="2100.21" y2="286.47" xlink:href="#e6351f19-34dd-4faa-96b2-b65b5f4d66cb"/>
    <filter id="b794168b-d886-4f07-8cb4-ff50031cf6a3" x="70.56" y="-8658.65" width="29.04" height="32766" filterUnits="userSpaceOnUse" color-interpolation-filters="sRGB">
      <feFlood flood-color="#fff" result="bg"/>
      <feBlend in="SourceGraphic" in2="bg"/>
    </filter>
    <mask id="b57ad451-1ea0-4a60-bdbf-bad22288b4c8" x="70.56" y="-8658.65" width="29.04" height="32766" maskUnits="userSpaceOnUse">
      <g class="ac8da746-c097-4921-8575-32e894997dcb"/>
    </mask>
    <linearGradient id="a2091bb5-9aeb-4ada-ad26-cfccad55f95d" x1="2064.31" y1="223.41" x2="2062.12" y2="279.14" xlink:href="#e6351f19-34dd-4faa-96b2-b65b5f4d66cb"/>
    <filter id="fb904d63-41ff-448c-a4c4-9aba8c2aa344" x="76.29" y="-8658.65" width="9.12" height="32766" filterUnits="userSpaceOnUse" color-interpolation-filters="sRGB">
      <feFlood flood-color="#fff" result="bg"/>
      <feBlend in="SourceGraphic" in2="bg"/>
    </filter>
    <mask id="a45f5845-0623-4518-987e-0c361c044138" x="76.29" y="-8658.65" width="9.12" height="32766" maskUnits="userSpaceOnUse">
      <g class="baee2732-190a-428c-b194-4735e5823007"/>
    </mask>
    <linearGradient id="aec8ded6-0f76-4956-aff7-de536bca82ad" x1="2049.02" y1="314.71" x2="2082.02" y2="273.46" gradientTransform="matrix(-1, -0.03, -0.03, 1, 2166.28, 38.13)" xlink:href="#e6351f19-34dd-4faa-96b2-b65b5f4d66cb"/>
    <filter id="b730cd17-d973-4795-ad98-60b82132e352" x="75.96" y="-8658.65" width="21.88" height="32766" filterUnits="userSpaceOnUse" color-interpolation-filters="sRGB">
      <feFlood flood-color="#fff" result="bg"/>
      <feBlend in="SourceGraphic" in2="bg"/>
    </filter>
    <mask id="bd4bde0e-3cc1-43d3-80b1-1cb4e9481cae" x="75.96" y="-8658.65" width="21.88" height="32766" maskUnits="userSpaceOnUse">
      <g class="f68d4660-f993-47c8-b5d0-eda547c64220"/>
    </mask>
    <linearGradient id="a1d5328e-c367-4222-824c-22d0471ac738" x1="1925.94" y1="241.86" x2="2122.31" y2="196.74" xlink:href="#e6351f19-34dd-4faa-96b2-b65b5f4d66cb"/>
    <filter id="f4464682-9afb-4c07-b9bc-c03929b769dd" x="47.52" y="238.73" width="15.35" height="40.66" filterUnits="userSpaceOnUse" color-interpolation-filters="sRGB">
      <feFlood flood-color="#fff" result="bg"/>
      <feBlend in="SourceGraphic" in2="bg"/>
    </filter>
    <mask id="b56d3dde-cc77-4f33-8f52-a955596814cf" x="47.52" y="238.73" width="15.35" height="40.66" maskUnits="userSpaceOnUse">
      <g class="a3768874-8f61-4b5e-9e7d-a9b45b78a006">
        <path class="a0228a36-28c4-418a-ad69-98a861e6eb0d" d="M47.52,243.06c.55,2.51,1.29,6,2,9.21a26.62,26.62,0,0,0,6.77-.23c2-.33,3.37,3.71,3.6,7.52s.67,5.51.22,9-.79,10-.79,10.21a2.77,2.77,0,0,0,.3.63,11.35,11.35,0,0,0,2.1-6.27c-.14-4.64.55-8.68.13-11s-.13-6.09,0-9.79.66-8,1-11.4C57.19,237.09,52.68,238.56,47.52,243.06Z"/>
      </g>
    </mask>
    <radialGradient id="adafc10f-496a-4a0f-832f-a55f1637146a" cx="2101.21" cy="280.72" r="11.57" gradientTransform="matrix(-1, 0, 0, 1, 2147.97, 0)" gradientUnits="userSpaceOnUse">
      <stop offset="0.06" stop-color="#7e59a4"/>
      <stop offset="1" stop-color="#754e9b"/>
    </radialGradient>
    <radialGradient id="ba11035e-9ab4-4aca-87af-42d1d37c7521" cx="2097.4" cy="287.87" r="8.9" gradientTransform="matrix(-1, 0, 0, 1, 2147.97, 0)" gradientUnits="userSpaceOnUse">
      <stop offset="0.15" stop-color="#f9edf1"/>
      <stop offset="0.66" stop-color="#efe0e5"/>
      <stop offset="1" stop-color="#e6d5db"/>
    </radialGradient>
    <filter id="ea2255da-baaa-41e2-a080-c2767eb650ad" x="59.47" y="271.14" width="3.12" height="18.55" filterUnits="userSpaceOnUse" color-interpolation-filters="sRGB">
      <feFlood flood-color="#fff" result="bg"/>
      <feBlend in="SourceGraphic" in2="bg"/>
    </filter>
    <mask id="e12fb9bb-4fc8-43c1-8e33-eeb770d2b8a0" x="59.47" y="271.14" width="3.12" height="18.55" maskUnits="userSpaceOnUse">
      <g class="ad5ebe4c-879f-4104-a40f-e6c2929fcdcc">
        <path class="e930fd21-19b6-4cae-b31d-8b5e109e7f34" d="M59.75,289.69c1.75-1,2.65-2.31,2.75-3.2,0-.48.08-1.33.09-2.35,0-3-.15-7.64-.31-9.65a5.07,5.07,0,0,0-2.49-3.35c0,4.06-.1,8.73-.27,11.44A56.56,56.56,0,0,0,59.75,289.69Z"/>
      </g>
    </mask>
    <linearGradient id="baf9575f-722c-4c7f-a8dd-5ac95619081e" x1="2061.49" y1="266.94" x2="2100.21" y2="286.47" gradientTransform="matrix(-1, 0, 0, 1, 2147.97, 0)" gradientUnits="userSpaceOnUse">
      <stop offset="0" stop-color="#383433"/>
      <stop offset="1" stop-color="#383432"/>
    </linearGradient>
    <filter id="e23ea419-6d55-4527-8f79-6fa47578228b" x="70.56" y="236.88" width="29.04" height="39.83" filterUnits="userSpaceOnUse" color-interpolation-filters="sRGB">
      <feFlood flood-color="#fff" result="bg"/>
      <feBlend in="SourceGraphic" in2="bg"/>
    </filter>
    <mask id="b4f2b1a7-ffe9-4036-95c1-437f8bf59ed6" x="70.56" y="236.88" width="29.04" height="39.83" maskUnits="userSpaceOnUse">
      <g class="b3213f19-4ee9-4991-b9a2-0ccd86abd88b">
        <path class="a3188eeb-b07c-40a6-8009-e2238ab2c8ca" d="M70.56,242.05c.29,1.29.62,2.59.91,3.8,1,1.86,2.27,4.16,3.61,6.49a29.1,29.1,0,0,0,8.83-.38c2.85-.43,4,6.4,4.87,9s4.3,8.34,6.24,11.88a10.52,10.52,0,0,0,4.58,3.88,23,23,0,0,0-.92-4.14c-1.71-3-2.9-4.07-4.49-6.45s-2.62-3.1-3.21-6-3-14.65-3.79-21.29C82.15,234.45,76.13,238.31,70.56,242.05Z"/>
      </g>
    </mask>
    <radialGradient id="ad41b375-87b6-4abc-8441-2c535cdf2858" cx="2090.39" cy="247.65" r="60.03" gradientTransform="matrix(-1, 0, 0, 1, 2147.97, 0)" gradientUnits="userSpaceOnUse">
      <stop offset="0.13" stop-color="#f186b3"/>
      <stop offset="1" stop-color="#e977a7"/>
    </radialGradient>
    <filter id="a8ad2c67-8bfe-4961-9dbc-c17348d13bf8" x="76.29" y="243.65" width="9.12" height="5.87" filterUnits="userSpaceOnUse" color-interpolation-filters="sRGB">
      <feFlood flood-color="#fff" result="bg"/>
      <feBlend in="SourceGraphic" in2="bg"/>
    </filter>
    <mask id="a824d3c3-1650-4c2d-8afa-b47ccedd1eac" x="76.29" y="243.65" width="9.12" height="5.87" maskUnits="userSpaceOnUse">
      <g class="b7738afe-5ad2-48c2-a61e-70f0ac15eaa0">
        <path class="f8985c42-6c20-4c6c-a9d4-fc28584174fd" d="M76.29,249.52a15.59,15.59,0,0,0,4-1.43,40.33,40.33,0,0,1,5.08-2.19C82.92,242.87,78.93,241.9,76.29,249.52Z"/>
      </g>
    </mask>
    <linearGradient id="bdf61206-c2d5-48d8-86a2-fb35eb50a463" x1="2049.02" y1="314.71" x2="2082.02" y2="273.46" gradientTransform="matrix(-1, -0.03, -0.03, 1, 2166.28, 38.13)" gradientUnits="userSpaceOnUse">
      <stop offset="0" stop-color="#b191a3"/>
      <stop offset="1" stop-color="#b191a3"/>
    </linearGradient>
    <filter id="a7021295-c586-499a-8af9-ee92b1435693" x="75.96" y="176.78" width="21.88" height="67.01" filterUnits="userSpaceOnUse" color-interpolation-filters="sRGB">
      <feFlood flood-color="#fff" result="bg"/>
      <feBlend in="SourceGraphic" in2="bg"/>
    </filter>
    <mask id="ad530d0c-9107-49ab-a716-ad7bcd341ca1" x="75.96" y="176.78" width="21.88" height="67.01" maskUnits="userSpaceOnUse">
      <g class="b9d27e52-e590-41bd-88e8-5722840cff3f">
        <path class="ba7f647e-b661-4b9d-b38a-edd3af8f88c7" d="M88,216.52c1.2,5.87,3.61,20.07,4.62,27.26a5.26,5.26,0,0,1,.53-.15c4.76-1.37,5.32-3,4.28-7.1s-12.73-46.44-15.15-55c-1-.7-3-4.62-5.89-4.79L76,178c2,7,4.71,18.07,6,23.38.39,1.67.64,2.77.66,3-.1-1.6-.2-3-.29-4.22v-.06c-.52-6.72-.88-8.33-1.16-11C80.79,186,86.39,208.78,88,216.52Z"/>
      </g>
    </mask>
    <linearGradient id="bc9a92e1-2ec3-4a80-87fa-15ced6666acd" x1="1925.94" y1="241.86" x2="2122.31" y2="196.74" gradientTransform="matrix(-1, 0, 0, 1, 2147.97, 0)" xlink:href="#bdf61206-c2d5-48d8-86a2-fb35eb50a463"/>
    <filter id="b78e086c-ee06-4b7d-b623-ebc2b7866588" x="23.38" y="177.72" width="18.51" height="61.5" filterUnits="userSpaceOnUse" color-interpolation-filters="sRGB">
      <feFlood flood-color="#fff" result="bg"/>
      <feBlend in="SourceGraphic" in2="bg"/>
    </filter>
    <mask id="b798202f-1f91-4ac2-a576-68900f3b4ee6" x="23.38" y="177.72" width="18.51" height="61.5" maskUnits="userSpaceOnUse">
      <g class="e9991007-198b-4fd9-92b4-3cda664e8fdc">
        <path class="e14657d9-4678-4b29-ab9f-8b2570ab1907" d="M23.51,239.21c3.36-12.55,16-53.73,18.39-61.49-.84.21-1.76.46-2.75.75-2.36,7.57-15,54.89-15.65,58.25A6.52,6.52,0,0,0,23.51,239.21Z"/>
      </g>
    </mask>
    <linearGradient id="affc8a97-1570-418d-ad2a-3783f76cd00b" x1="2153.38" y1="197.06" x2="2103.88" y2="211.87" gradientTransform="matrix(-1, 0, 0, 1, 2147.97, 0)" xlink:href="#bdf61206-c2d5-48d8-86a2-fb35eb50a463"/>
    <radialGradient id="f4a6ece2-609e-4102-b3be-2683fd2b179b" cx="2085.69" cy="155.03" r="23.11" xlink:href="#ad41b375-87b6-4abc-8441-2c535cdf2858"/>
    <filter id="a79807dc-53dd-44eb-be3e-14a22f3f8026" x="79.3" y="137.57" width="6.05" height="39.45" filterUnits="userSpaceOnUse" color-interpolation-filters="sRGB">
      <feFlood flood-color="#fff" result="bg"/>
      <feBlend in="SourceGraphic" in2="bg"/>
    </filter>
    <mask id="b8e59b09-0591-405d-9e15-211b1fef9580" x="79.3" y="137.57" width="6.05" height="39.45" maskUnits="userSpaceOnUse">
      <g class="ad7d197b-55e4-4a98-ab7c-f7cc23541772">
        <path class="e5bcbcb5-0772-4d30-b1be-ac454d8c53c7" d="M83.65,153.05c-.2,6.44-3.68,19.77-4.35,24a13.59,13.59,0,0,0,3.37-1.9c.43-2.77,2-9.7,2.29-14,.16-2.53.78-10.25,0-15.73A35.2,35.2,0,0,0,83.65,153.05Z"/>
      </g>
    </mask>
    <linearGradient id="e46e0eef-0200-4045-8b17-3eafa68d8aa1" x1="2029.77" y1="165.97" x2="2082.44" y2="153.87" gradientTransform="matrix(-1, 0, 0, 1, 2147.97, 0)" xlink:href="#bdf61206-c2d5-48d8-86a2-fb35eb50a463"/>
    <filter id="a6504452-d7f2-49f6-8af7-8437b5b785e6" x="77.16" y="175.13" width="5.5" height="6.94" filterUnits="userSpaceOnUse" color-interpolation-filters="sRGB">
      <feFlood flood-color="#fff" result="bg"/>
      <feBlend in="SourceGraphic" in2="bg"/>
    </filter>
    <mask id="bdf299d2-871a-4d3f-b606-b07ea97a6bca" x="77.16" y="175.13" width="5.5" height="6.94" maskUnits="userSpaceOnUse">
      <g class="e0d09019-b4f2-4509-86db-7fa84bcf4d15">
        <path class="af8da1d8-40db-41c8-8c70-9a0a667100cd" d="M77.16,182.07c1.72-.13,3.42-.3,5.09-.5.42-2.33.09-3.83.42-6.44-1,.14-2.08.27-3.16.38v0C79.17,178.75,79.35,180,77.16,182.07Z"/>
      </g>
    </mask>
    <linearGradient id="b2df8c4d-6a69-4087-8438-e7b11939c6f5" x1="2072.91" y1="263.64" x2="2099.1" y2="257.62" gradientTransform="matrix(-1, -0.08, -0.08, 1, 2185.78, 91.48)" xlink:href="#bdf61206-c2d5-48d8-86a2-fb35eb50a463"/>
    <radialGradient id="b6379108-1ff8-4e12-a73f-73534b009e23" cx="2059.47" cy="280.5" r="11.6" xlink:href="#adafc10f-496a-4a0f-832f-a55f1637146a"/>
    <radialGradient id="b51d40e1-11b5-49a7-bcf8-cdb069a0435d" cx="2056" cy="287.87" r="8.93" xlink:href="#ba11035e-9ab4-4aca-87af-42d1d37c7521"/>
    <filter id="b64d3bbf-43e2-4352-babc-9424abf6c8e3" x="93.22" y="270.14" width="10.83" height="20.35" filterUnits="userSpaceOnUse" color-interpolation-filters="sRGB">
      <feFlood flood-color="#fff" result="bg"/>
      <feBlend in="SourceGraphic" in2="bg"/>
    </filter>
    <mask id="a4ee4043-43c0-4af8-9015-65a7930338e9" x="93.22" y="270.14" width="10.83" height="20.35" maskUnits="userSpaceOnUse">
      <g class="a3d6e3d8-eddf-4883-9650-eb7e03f7eec3">
        <path class="f6622e1d-beb7-46f4-a667-e13a5758cb36" d="M93.22,270.14a43.15,43.15,0,0,1,6.14,20.35c3.17-.92,4.46-2.31,4.6-4,.05-.6.08-1.26.09-2a15,15,0,0,0-1.08-6.45,35.14,35.14,0,0,0-3.5-5.39A24.47,24.47,0,0,0,93.22,270.14Z"/>
      </g>
    </mask>
    <linearGradient id="ba27e8ff-a3a0-446b-a99b-00608104be16" x1="2029.97" y1="260.02" x2="2058.36" y2="287.63" xlink:href="#baf9575f-722c-4c7f-a8dd-5ac95619081e"/>
    <filter id="ece34206-fb14-4953-8a06-2c22a0d57f82" x="82.85" y="152.49" width="12.67" height="19.42" filterUnits="userSpaceOnUse" color-interpolation-filters="sRGB">
      <feFlood flood-color="#fff" result="bg"/>
      <feBlend in="SourceGraphic" in2="bg"/>
    </filter>
    <mask id="f5c84541-0d75-4783-9b10-36d5097a6a9b" x="82.85" y="152.49" width="12.67" height="19.42" maskUnits="userSpaceOnUse">
      <g class="ab317683-6111-4158-bda7-cfc525a87bc4">
        <path class="b02418db-9115-496d-9f1c-4e66cf9a80dd" d="M82.85,152.49a37,37,0,0,0,1.36,6.29c3,6.06,5.27,11.67,8.3,13.13a5.94,5.94,0,0,0,3-2.51,4.13,4.13,0,0,1-2.35-1C90.38,166.2,85.43,157.44,82.85,152.49Z"/>
      </g>
    </mask>
    <linearGradient id="fd6c3eed-9ccf-40c3-9f09-54f1f5e902ad" x1="2075.01" y1="172.02" x2="2055.82" y2="159.34" gradientTransform="matrix(-1, 0, 0, 1, 2147.97, 0)" gradientUnits="userSpaceOnUse">
      <stop offset="0" stop-color="#e77e65"/>
      <stop offset="1" stop-color="#e77e65"/>
    </linearGradient>
    <radialGradient id="e5eecfc2-e039-463a-8a8d-707af07beab0" cx="2107.95" cy="147" r="12.18" xlink:href="#ad41b375-87b6-4abc-8441-2c535cdf2858"/>
    <radialGradient id="f5472829-063c-4593-be64-cc33519daeae" cx="2059.97" cy="148.87" r="10.63" xlink:href="#ad41b375-87b6-4abc-8441-2c535cdf2858"/>
    <radialGradient id="bd3ee6d1-ffa8-4eec-a484-a0634f07b5f0" cx="2063.93" cy="154.07" r="5.03" xlink:href="#ad41b375-87b6-4abc-8441-2c535cdf2858"/>
  </defs>
  <g class="ab392f8a-6cb2-4aa8-81ac-78baf630efda">
    <g id="b00fce23-46ad-4ce3-beba-ba87442cd183" data-name="Layer 1">
      <g>
        <path class="b6f920fc-0a6d-48a7-a701-51a000251d37" d="M96.41,306.21a26.46,26.46,0,0,1-9.34-1.6,17.1,17.1,0,0,1-8.86-7,11.84,11.84,0,0,1-1.35-3.4c0,.18-.08.35-.13.53l-.09.32c-.11.37-.23.69-.36,1s-.21.5-.34.77-.26.49-.38.7a7.62,7.62,0,0,1-.48.77c-.1.16-.24.34-.38.53l-.07.1c-.14.19-.29.37-.44.56s-.38.43-.58.64l-.43.44c-.17.17-.44.42-.73.67l-.18.16a18.66,18.66,0,0,1-3.69,2.38l-.23.11c-.34.17-.75.35-1.17.52l-.6.23c-.32.12-.62.23-.94.33l-.83.25-.62.16-.13,0c-.35.08-.7.17-1.07.24l-.62.11c-.41.08-.81.14-1.24.2l-.58.06c-.51.05-.93.1-1.39.12l-.68,0h-.22l-1,0h-.13c-.67,0-1.36,0-2.08-.07-12.47-.83-19.13-5.31-19.78-13.29-.06-.72-.1-1.54-.12-2.53V290a22.65,22.65,0,0,1,2-10.42,44.1,44.1,0,0,1,4.35-6.75A9.14,9.14,0,0,1,43,271.35c.81-1.31,1.49-2.32,2.2-3.37.3-.43.6-.88.94-1.39s.61-.9.91-1.33l.29-.43c-.08-.43-.19-.92-.3-1.44-.44-.08-1-.19-1.48-.32s-.78-.21-1.16-.32-.9-.29-1.33-.44-1-.38-1.47-.6l-.69-.3-.51-.26c-.21-.09-.41-.2-.61-.31h0c-.79-.4-1.5-.79-2.16-1.15-2.33-1.26-2.45-1.26-3-1.26h-.12a14.42,14.42,0,0,1-14.14-11.57c0-.19-.08-.39-.11-.58a15.27,15.27,0,0,1,0-5.68s.16-.75.17-.77c.45-1.94,1.78-7.07,2.83-11.05,1.71-6.51,3.88-14.66,5.95-22.37l1.64-6.07a14.34,14.34,0,0,1-2.2-3c-4.44-4.31-14.41-16.23-17-20.66-.18-.29-.35-.58-.51-.9-5.7-11.41,4-20.06,8.63-24.22.71-.64,1.4-1.25,2-1.84s1.38-1.28,2.11-1.88A29.23,29.23,0,0,1,11.38,137.3C8.66,133,6,125.84,9,115.78a70.64,70.64,0,0,0,2.36-16,21.59,21.59,0,0,1,.18-5.25c.07-3.94,0-7.82,0-11.58v-.65a57.47,57.47,0,0,1-.55-8c0-17.39,4-32.28,11.49-43.07C29.23,21.5,42.54,9.94,67.58,9.94a69.19,69.19,0,0,1,24.89,4.25,11,11,0,0,1,4-.74c5.53,0,9.16,4.05,10.36,5.38A19.53,19.53,0,0,1,111,26.44a49.51,49.51,0,0,1,5.73,7.34,19.75,19.75,0,0,1,8.42,5.44c1.24,1.38,5,5.58,4.18,11.27a11.49,11.49,0,0,1-4,7.15,80.19,80.19,0,0,1,.85,11.84,59.75,59.75,0,0,1-1.45,13c-.07.36-.14.72-.22,1.08.43,2.9.72,5.74.88,8.45a20.49,20.49,0,0,1,.6,8.58,30,30,0,0,1-1.2,5.85,37.69,37.69,0,0,0-.24,7.67,9,9,0,0,1,3.58,1.26,11.82,11.82,0,0,1,2.41,2,10.78,10.78,0,0,1,1.52-.1,10.08,10.08,0,0,1,6.08,2,10.66,10.66,0,0,1,4.07,6.19,9.46,9.46,0,0,1,2.83,2.7c1.41,2.05,2.69,5.54.78,10.52l-.13.32a10,10,0,0,1,1.34,5c0,8.18-7.27,11.21-13.32,12.83a23.7,23.7,0,0,1-7.28,6.11c-2.37,5.92-5.89,13.65-7.59,16.88a18.77,18.77,0,0,1-16,10h0a15.53,15.53,0,0,1-5-.83c3.83,13.69,13.07,47.19,14,50.92,2.06,8.12-.61,13.93-7.72,17,.61,3.22,1.15,5.91,1.38,7l.06.27.51.71c.4.55.84,1.15,1.33,1.87s.86,1.22,1.35,1.86,1.14,1.48,1.82,2.48a9.33,9.33,0,0,1,1.78,1.77,43.76,43.76,0,0,1,4.35,6.72,23,23,0,0,1,2.06,10.66c0,1.07-.06,1.89-.13,2.66,0,.22,0,.48-.09.73-.06.4-.13.76-.21,1.11s-.17.61-.26.9-.27.77-.42,1.11-.3.64-.46.93a11.12,11.12,0,0,1-.62,1c-.14.22-.33.49-.55.77a13.24,13.24,0,0,1-1.25,1.37c-.22.21-.44.4-.67.58s-.54.44-.84.66l-.71.47c-.26.17-.58.36-.91.54s-.44.24-.66.34c-.42.21-.86.4-1.33.59-.24.1-.49.19-.75.28l-.15.05-.63.21-.49.16-.64.17-.88.22-.77.17c-.51.11-1.13.22-1.77.32l-.28,0c-.63.1-1.25.17-1.91.25l-.33,0c-.67.07-1.39.14-2.17.19h-.08c-.71,0-1.39.07-2,.07ZM76.28,276.63a12.22,12.22,0,0,1,.57,2.67c0,.07,0,.14,0,.22s0-.09,0-.13a12.16,12.16,0,0,1,.63-2.93,46.2,46.2,0,0,0-.1-5.8c-.17-.42-.47-1-.85-1.75,0,1.44,0,2.9-.13,4.42C76.36,274.41,76.3,275.51,76.28,276.63Z"/>
        <path class="af63222f-5f94-416f-80a8-e11ccbd394f0" d="M90.79,300.59a26.37,26.37,0,0,1-9.33-1.6,16.92,16.92,0,0,1-8.86-7,11.5,11.5,0,0,1-1.35-3.39c0,.17-.09.35-.13.52l-.09.32c-.12.37-.24.7-.37,1s-.21.5-.34.77-.25.48-.38.69a9.09,9.09,0,0,1-.48.78c-.1.15-.23.34-.37.53l-.08.09c-.14.19-.28.38-.44.56s-.38.44-.58.65-.28.3-.42.43-.45.43-.73.67l-.19.16A18.58,18.58,0,0,1,63,298.16l-.23.11c-.34.17-.75.35-1.18.52L61,299l-.95.32c-.22.08-.51.17-.82.26l-.62.16-.13,0-1.07.25-.62.11c-.42.07-.82.14-1.25.19l-.57.06c-.51.06-.94.1-1.39.13l-.68,0h-.22l-1,0h-.13c-.67,0-1.36,0-2.08-.08-12.47-.83-19.13-5.3-19.77-13.29-.07-.72-.1-1.53-.12-2.52a2.43,2.43,0,0,1,0-.27,22.52,22.52,0,0,1,2-10.42A43.78,43.78,0,0,1,36,267.25a9.08,9.08,0,0,1,1.46-1.51c.81-1.32,1.5-2.32,2.21-3.37l.94-1.4.9-1.33c.1-.13.2-.28.3-.43l-.3-1.44c-.45-.08-1-.19-1.49-.32s-.78-.2-1.15-.31-.91-.29-1.34-.45-1-.38-1.46-.59l-.7-.31-.51-.25-.6-.31h0c-.78-.4-1.49-.78-2.16-1.14-2.33-1.26-2.45-1.26-3-1.26h-.13a14.43,14.43,0,0,1-14.13-11.58,5.78,5.78,0,0,1-.12-.57,15.49,15.49,0,0,1,0-5.68s.17-.76.17-.78c.45-1.94,1.79-7.07,2.83-11,1.71-6.52,3.88-14.67,6-22.37l1.63-6.08a14.37,14.37,0,0,1-2.2-3c-4.43-4.32-14.4-16.23-17-20.67-.18-.29-.35-.58-.51-.89-5.69-11.41,4-20.07,8.63-24.22.72-.64,1.41-1.26,2-1.85s1.38-1.28,2.11-1.88A29.35,29.35,0,0,1,5.76,131.68C3,127.42.42,120.22,3.37,110.16a70.49,70.49,0,0,0,2.37-16,22,22,0,0,1,.17-5.24c.08-4,0-7.83,0-11.59v-.65a59,59,0,0,1-.55-8c0-17.39,4-32.29,11.5-43.07C23.61,15.88,36.93,4.32,62,4.32A68.93,68.93,0,0,1,86.85,8.58a11,11,0,0,1,4-.75c5.53,0,9.17,4.06,10.36,5.39a19.26,19.26,0,0,1,4.14,7.61,49,49,0,0,1,5.73,7.34,19.67,19.67,0,0,1,8.42,5.43c1.24,1.38,5,5.58,4.19,11.27a11.56,11.56,0,0,1-4,7.15,81.71,81.71,0,0,1,.85,11.85,59.29,59.29,0,0,1-1.46,13c-.06.35-.14.71-.22,1.07.43,2.91.73,5.74.89,8.46a20.59,20.59,0,0,1,.6,8.57,31.43,31.43,0,0,1-1.2,5.85,37.08,37.08,0,0,0-.24,7.68,9,9,0,0,1,3.57,1.26,11.25,11.25,0,0,1,2.41,2,10.77,10.77,0,0,1,1.52-.11,10.13,10.13,0,0,1,6.09,2,10.67,10.67,0,0,1,4.06,6.19,9.64,9.64,0,0,1,2.84,2.71c1.4,2,2.68,5.54.77,10.51a3.43,3.43,0,0,1-.12.33,10,10,0,0,1,1.34,5c0,8.18-7.27,11.21-13.32,12.83a23.49,23.49,0,0,1-7.29,6.11c-2.36,5.93-5.88,13.65-7.59,16.88a18.76,18.76,0,0,1-16,10h0a15.58,15.58,0,0,1-5-.84c3.83,13.69,13.07,47.2,14,50.92,2.06,8.12-.61,13.93-7.72,17,.61,3.23,1.15,5.92,1.38,7a2.74,2.74,0,0,0,.07.28c.1.16.32.46.51.71.4.54.84,1.14,1.32,1.87s.87,1.21,1.36,1.85,1.14,1.49,1.82,2.49a8.68,8.68,0,0,1,1.77,1.76A43.89,43.89,0,0,1,111,274,22.82,22.82,0,0,1,113,284.63c0,1.08-.06,1.9-.13,2.66,0,.23-.06.48-.1.73a11,11,0,0,1-.21,1.11c-.08.33-.17.62-.26.9a11.37,11.37,0,0,1-.42,1.11c-.15.34-.29.64-.45.94s-.4.68-.62,1-.34.5-.55.77a13.36,13.36,0,0,1-1.26,1.37c-.22.21-.44.4-.67.59s-.54.44-.84.65-.46.32-.71.48-.58.35-.91.53l-.65.35c-.42.2-.86.4-1.34.58-.23.1-.49.19-.74.28l-.16.05-.62.22-.49.15c-.19.06-.42.12-.65.17l-.88.22c-.32.08-.53.13-.77.17-.51.11-1.12.22-1.77.32l-.28.05c-.63.09-1.25.17-1.9.24l-.34,0c-.67.07-1.39.13-2.17.18h-.08c-.7.05-1.39.07-2,.08ZM70.67,271a11.65,11.65,0,0,1,.56,2.67,1.49,1.49,0,0,0,0,.21.62.62,0,0,1,0-.13,11.61,11.61,0,0,1,.62-2.92,42.83,42.83,0,0,0-.1-5.81c-.17-.41-.47-1-.85-1.75,0,1.44,0,2.91-.12,4.43C70.75,268.8,70.69,269.9,70.67,271Z"/>
        <g>
          <path class="ad12452c-c1b1-4ddd-aa05-ff7dfb267077" d="M104.34,57.16s8.74,23.07,6,41.66,6.78,24-5.39,34.5-36,15.14-46.11,5.16c0,0-6.76,2-22.94-.47S7.5,128,12,112.69,14.31,77,15,65s15.73-26.2,47.38-17.68S104.34,57.16,104.34,57.16Z"/>
          <g>
            <g>
              <path class="a1f6ac49-b75b-4302-87c1-adab804dee08" d="M49.38,284.49c4.52.55,8.09-2,10.21-5.11a11.35,11.35,0,0,0,2.1-6.27c-.14-4.64.55-8.68.13-11s-.13-6.09,0-9.79.66-8,1-11.4c-5.68-3.84-10.19-2.37-15.35,2.13.55,2.51,1.29,6,2,9.21.79,3.69,1.46,7,1.6,7.73.27,1.46-1.46,3.57-3.05,6s-2.5,3.58-4.22,6.62C42.09,278.27,41.82,283.57,49.38,284.49Z"/>
              <g class="fffd86eb-d27e-45e8-82a5-90a9c1f64efe">
                <path class="ba8d262f-ecb0-4d0a-a42f-3491d295df14" d="M47.52,243.06c.55,2.51,1.29,6,2,9.21a26.62,26.62,0,0,0,6.77-.23c2-.33,3.37,3.71,3.6,7.52s.67,5.51.22,9-.79,10-.79,10.21a2.77,2.77,0,0,0,.3.63,11.35,11.35,0,0,0,2.1-6.27c-.14-4.64.55-8.68.13-11s-.13-6.09,0-9.79.66-8,1-11.4C57.19,237.09,52.68,238.56,47.52,243.06Z"/>
              </g>
            </g>
            <g>
              <path class="aa3fbfe1-2a0a-4d1a-85c5-ce9dff751d60" d="M38.56,284.53c0,.7,0,1.36.1,2,.2,2.59,3.15,4.5,11.43,5.06,4.45.31,7.64-.62,9.66-1.86,1.75-1,2.65-2.31,2.75-3.2,0-.48.08-1.33.09-2.35,0-3-.15-7.64-.31-9.65a5.07,5.07,0,0,0-2.49-3.35,10.55,10.55,0,0,0-6.65-1.7,25.22,25.22,0,0,0-10,3.25,35.88,35.88,0,0,0-3.48,5.39A15.14,15.14,0,0,0,38.56,284.53Z"/>
              <path class="a65c6cda-5c60-4abc-841e-dd3015e64984" d="M62.59,284.14c0,1,0,1.87-.09,2.35-.22,1.92-4.14,5.62-12.41,5.06s-11.23-2.47-11.44-5.06c0-.6-.08-1.26-.09-2,.94,2.13,4.22,4.39,12,4.39C57.69,288.92,61.23,286.56,62.59,284.14Z"/>
              <g class="f1ee320a-302a-4998-a41e-3c00b7a9b519">
                <path class="afde8851-1ef3-4fba-931f-5d9fb9ada19e" d="M59.75,289.69c1.75-1,2.65-2.31,2.75-3.2,0-.48.08-1.33.09-2.35,0-3-.15-7.64-.31-9.65a5.07,5.07,0,0,0-2.49-3.35c0,4.06-.1,8.73-.27,11.44A56.56,56.56,0,0,0,59.75,289.69Z"/>
              </g>
            </g>
            <g>
              <path class="a1f6ac49-b75b-4302-87c1-adab804dee08" d="M70.1,242.36a13.69,13.69,0,0,0,1.37,3.49c1,1.86,2.27,4.16,3.61,6.49,2.5,4.34,5.08,8.77,5.46,10.64.47,2.3.4,5.49.27,10.13s4.77,12.31,12.32,11.38c4.63-.57,6.32-2.78,6.53-5.71a9.56,9.56,0,0,0-.06-2.06,23,23,0,0,0-.92-4.14c-1.71-3-2.9-4.07-4.49-6.45s-2.62-3.1-3.21-6-3-14.65-3.79-21.29c-5-4.38-11.06-.52-16.63,3.22Z"/>
              <g class="f0167c1a-f1a3-4f2d-a1c9-b821ca9b1a31">
                <path class="ba8d262f-ecb0-4d0a-a42f-3491d295df14" d="M70.56,242.05c.29,1.29.62,2.59.91,3.8,1,1.86,2.27,4.16,3.61,6.49a29.1,29.1,0,0,0,8.83-.38c2.85-.43,4,6.4,4.87,9s4.3,8.34,6.24,11.88a10.52,10.52,0,0,0,4.58,3.88,23,23,0,0,0-.92-4.14c-1.71-3-2.9-4.07-4.49-6.45s-2.62-3.1-3.21-6-3-14.65-3.79-21.29C82.15,234.45,76.13,238.31,70.56,242.05Z"/>
              </g>
            </g>
            <g>
              <path class="afe8e59d-24fb-4de5-bf26-05ad0a46e42e" d="M23.51,239.21v0c.58,2.52,2.36,4.62,5.42,4.6,4,0,5.84,1.71,10.32,3.88s9.21,1.65,13,.61,8.11-.9,13.62.45c3.9,1,7.23,1.41,10.47.75a15.59,15.59,0,0,0,4-1.43,40.33,40.33,0,0,1,5.08-2.19c2.3-.81,4.53-1.38,7.17-2.12a5.26,5.26,0,0,1,.53-.15c4.76-1.37,5.32-3,4.28-7.1s-12.73-46.44-15.15-55c-1-.7-3-4.62-5.89-4.79a165.71,165.71,0,0,0-16.93.27c-7.55.37-9.22-1.4-17.53.67-.84.21-1.76.46-2.75.75-.81,2.58-2.79,9.73-5.09,18.19-1.71,6.35-3.63,13.45-5.34,19.9-2.72,10.22-4.95,18.8-5.22,20.16A6.52,6.52,0,0,0,23.51,239.21Z"/>
              <g class="b91c44db-db0c-44bd-a01f-5d3ee2a6bdba">
                <path class="af21d30b-80a4-4654-a068-23d5e6f778b1" d="M76.29,249.52a15.59,15.59,0,0,0,4-1.43,40.33,40.33,0,0,1,5.08-2.19C82.92,242.87,78.93,241.9,76.29,249.52Z"/>
              </g>
              <g class="f392d3b3-1072-410a-9e5b-b425017b2631">
                <path class="ee310f0f-95e8-4c00-b7b0-884b9edb0349" d="M88,216.52c1.2,5.87,3.61,20.07,4.62,27.26a5.26,5.26,0,0,1,.53-.15c4.76-1.37,5.32-3,4.28-7.1s-12.73-46.44-15.15-55c-1-.7-3-4.62-5.89-4.79L76,178c2,7,4.71,18.07,6,23.38.39,1.67.64,2.77.66,3-.1-1.6-.2-3-.29-4.22v-.06c-.52-6.72-.88-8.33-1.16-11C80.79,186,86.39,208.78,88,216.52Z"/>
              </g>
              <g class="a935dde8-842c-4057-8d71-673fad333923">
                <path class="e245d788-0cfb-4fd1-8a12-423ff621ae02" d="M23.51,239.21c3.36-12.55,16-53.73,18.39-61.49-.84.21-1.76.46-2.75.75-2.36,7.57-15,54.89-15.65,58.25A6.52,6.52,0,0,0,23.51,239.21Z"/>
              </g>
              <path class="fc8e2f5e-56a8-4add-8e2a-da2f87809f32" d="M78.93,185c.46,2.5.9,4.87,1.34,7.24s.87,4.84,1.3,7.25.88,4.81,1.32,7.24.9,4.74,1.37,7.24q-.36-3.67-.89-7.32c-.36-2.43-.77-4.85-1.21-7.27s-1-4.82-1.5-7.22S79.55,187.41,78.93,185Z"/>
              <path class="fc8e2f5e-56a8-4add-8e2a-da2f87809f32" d="M69.56,184.53c-.07,1.24-.13,2.25-.19,3.24s-.06,2.18-.09,3.24,0,2.16,0,3.24.08,2.17.16,3.25c.09-1.08.17-2.16.21-3.24s.06-2.16.07-3.24,0-2.13,0-3.24Z"/>
              <path class="fc8e2f5e-56a8-4add-8e2a-da2f87809f32" d="M56.32,189.75c.1,2.17.19,4.18.29,6.19s.15,4.13.22,6.19.15,4.1.22,6.18.14,4,.22,6.19q.19-3.09.21-6.2t-.11-6.2q-.13-3.09-.4-6.18C56.8,193.86,56.59,191.8,56.32,189.75Z"/>
              <path class="fc8e2f5e-56a8-4add-8e2a-da2f87809f32" d="M46.6,187.74c-.41,2.49-.79,5-1.12,7.49s-.62,5-.87,7.52-.45,5-.61,7.55-.27,5-.32,7.57c.26-2.6.51-5.07.75-7.54s.48-5,.72-7.53.48-5,.72-7.53S46.35,190.33,46.6,187.74Z"/>
              <path class="fc8e2f5e-56a8-4add-8e2a-da2f87809f32" d="M40.61,182.84q-.8,2.08-1.47,4.23c-.44,1.42-.84,2.86-1.2,4.31s-.65,2.92-.91,4.39-.45,3-.59,4.45c.37-1.58.69-3,1-4.36s.68-2.91,1-4.35.69-2.87,1.05-4.34S40.22,184.41,40.61,182.84Z"/>
            </g>
            <g>
              <path class="b71c0529-ddab-4dfd-906c-83a4cff740d0" d="M40,158c-.14,4.63-.74,8.22-.61,13.87,2.63,3.81,13.93,5.4,20.73,5.85,5.54.36,13.47,1.54,19.14-.72a13.59,13.59,0,0,0,3.37-1.9c.43-2.77.71-13.71,1-18,.17-2.52,2.08-6.23,1.31-11.71-.17-1.27-.37-2.49-.63-3.62a13.34,13.34,0,0,0-1.93-5.17c-1.93-1-7.4-3.87-10.18-4.52-4.55-.8-11.11-.31-16.59.06A47.7,47.7,0,0,0,44,136.38a13.88,13.88,0,0,0-.63,2C42,143.89,40.16,154,40,158Z"/>
              <g class="aea74e03-51db-4088-9914-92deca2a28b7">
                <path class="b4bf8e44-9c4e-44ef-8a1a-5bcd7d9ff098" d="M83.65,153.05c-.2,6.44-3.68,19.77-4.35,24a13.59,13.59,0,0,0,3.37-1.9c.43-2.77.51-9.7.79-14,.17-2.53-1.08-18.11-1.84-23.59C81.24,139.36,83.76,149.52,83.65,153.05Z"/>
              </g>
            </g>
            <path class="ef578d9c-8c3a-4e3e-a1bc-3550fce468d2" d="M50.42,140.1c.5,2.93,2.28,5.38,5.65,5.21s5.63-3.71,7.9-6.82a24,24,0,0,0,3.88,5.65c1.77,1.76,5,1.67,7-.85a12.42,12.42,0,0,0,2.2-5.86,6.15,6.15,0,0,0-.18-2.9,2.88,2.88,0,0,0-1-1.11l0,0a9.77,9.77,0,0,0-3.17-1.18l-.4-.1c-8,2.31-13.05.81-15.75-.36-.84-.26-4.88.26-5.72,1.76a5.87,5.87,0,0,0-.65,2.54A17.32,17.32,0,0,0,50.42,140.1Z"/>
            <g>
              <path class="a1f6ac49-b75b-4302-87c1-adab804dee08" d="M54.8,133.05c1.86,3.12,6.81,5,9.35,5s7.15-2.31,8.08-5.89a5.5,5.5,0,0,1-.3-1.23,29.89,29.89,0,0,1-.34-3.47c-.14-3.06-.08-6.94.06-10.06a12.84,12.84,0,0,0-7.9-2.65,13.64,13.64,0,0,0-1.68.1,11.29,11.29,0,0,0-6.68,3.24c.11,3.33.13,6.46.07,9-.05,1.36-.12,2.55-.21,3.53A10.33,10.33,0,0,1,54.8,133.05Z"/>
              <path class="ba8d262f-ecb0-4d0a-a42f-3491d295df14" d="M55.45,127.07c.07-2.56,0-5.69-.07-9a10.94,10.94,0,0,1,6.52-3.24,13.12,13.12,0,0,1,1.64-.1,12.36,12.36,0,0,1,7.71,2.65c-.14,3.12,0,7.07.16,10.13a31.3,31.3,0,0,0,.27,3.32,19,19,0,0,1-16.2-.1C55.57,129.73,55.41,128.43,55.45,127.07Z"/>
            </g>
            <g>
              <path class="ba48a9bc-e7b3-4a7d-8703-62737ba6778e" d="M39.15,178.47c11.56,4.05,25.28,4.69,38,3.6,1.72-.13,3.42-.3,5.09-.5.42-2.33.09-3.83.42-6.44-1,.14-2.08.27-3.16.38-13.32,1.33-29.85-.32-40.08-3.61C39.09,173.74,39.29,176.69,39.15,178.47Z"/>
              <g class="ab356fd5-35dc-4be9-b0df-1435a280e65a">
                <path class="bc4c5177-d9ff-4fbc-81c4-ae7e1a7a4985" d="M77.16,182.07c1.72-.13,3.42-.3,5.09-.5.42-2.33.09-3.83.42-6.44-1,.14-2.08.27-3.16.38v0C79.17,178.75,79.35,180,77.16,182.07Z"/>
              </g>
            </g>
            <g>
              <path class="be164d51-20e0-4ef6-8d7e-2b1f140873fd" d="M79.9,284.14c0,1,0,1.87.1,2.35.21,1.92,4.16,5.62,12.47,5.06a34,34,0,0,0,6.89-1.06c3.17-.92,4.46-2.31,4.6-4,.05-.6.08-1.26.09-2a15,15,0,0,0-1.08-6.45,35.14,35.14,0,0,0-3.5-5.39,24.47,24.47,0,0,0-6.25-2.55,24.1,24.1,0,0,0-3.81-.7c-4.27-.45-9,2.36-9.2,5.05C80.05,276.5,79.89,281.12,79.9,284.14Z"/>
              <path class="a6651d44-a841-4ccc-af0d-ff613d504a45" d="M79.9,284.14c0,1,0,1.87.09,2.35.23,1.92,4.17,5.62,12.48,5.06s11.27-2.47,11.48-5.06c.06-.6.08-1.26.1-2-1,2.13-4.24,4.39-12,4.39C84.83,288.92,81.27,286.56,79.9,284.14Z"/>
              <g class="b9e94bde-c0bf-45d7-acd6-c7b5bab5c919">
                <path class="bb8b86d8-aee2-4a0a-b289-4bdabe1b24d6" d="M93.22,270.14a43.15,43.15,0,0,1,6.14,20.35c3.17-.92,4.46-2.31,4.6-4,.05-.6.08-1.26.09-2a15,15,0,0,0-1.08-6.45,35.14,35.14,0,0,0-3.5-5.39A24.47,24.47,0,0,0,93.22,270.14Z"/>
              </g>
            </g>
            <path class="fc8e2f5e-56a8-4add-8e2a-da2f87809f32" d="M38.56,247.36a15.56,15.56,0,0,0,6.64,1.84,24.22,24.22,0,0,0,6.9-.84c4.36-1,8.92-.31,13.29.82a30.35,30.35,0,0,0,6.94.91,15.44,15.44,0,0,0,6.88-1.56c4-2.33,8.36-3.53,12.68-5.09l-6.58,1.94A40.76,40.76,0,0,0,79,248.06a15.43,15.43,0,0,1-6.66,1.42,29.88,29.88,0,0,1-6.78-.95c-4.41-1.1-9.1-1.79-13.58-.68a23.53,23.53,0,0,1-6.77,1A15.43,15.43,0,0,1,38.56,247.36Z"/>
          </g>
          <g>
            <g>
              <path class="a1f6ac49-b75b-4302-87c1-adab804dee08" d="M29.75,185.69a3.59,3.59,0,0,1,.91,1.15,4.83,4.83,0,0,0,3.79,3,9.2,9.2,0,0,0,3-.11,20.24,20.24,0,0,0,2.3-.55c.22-.07.46-.12.7-.19l.73-.19.19-.05,2.35-.54.6-.13,0,0,.46-.09.2-.06a19.44,19.44,0,0,1,3.34-.49c.33.08.62.4,1.82,1a2.76,2.76,0,0,0,2.69.21,1.46,1.46,0,0,0,.37-1.77h0a3.11,3.11,0,0,0,.32,0,2.87,2.87,0,0,0,2.32-.38c.4-.45.24-1.38-.15-2.15a1,1,0,0,1,.29,0,2.32,2.32,0,0,0,2-.41l.14-.16a1.62,1.62,0,0,0-.72-2.53.58.58,0,0,0,.2-.22A1.65,1.65,0,0,0,57,179c-.93-.53-1.56-1.21-3.1-2-.7-.35-1.18-.6-1.67-.81a10.09,10.09,0,0,0-2.37-.6,19.1,19.1,0,0,0-5.57-.17l-.21.07c-1.13.41-7.05,2.57-9.29,3.58-.7,1.14-3.61,3.6-4.75,6C29.92,185.26,29.83,185.47,29.75,185.69Z"/>
              <path class="ec218063-ee9c-485b-ab1b-a0a981499d89" d="M45,178.05c1.2.1,2.38.16,3.56.17a10.11,10.11,0,0,1,3.39.33c.51.2,1,.5,1.54.76l1.6.78c.79.37,1.63.9,2.42,1.22a.74.74,0,0,0,.19-.21c-.76-.53-1.57-1-2.37-1.46-.51-.3-1-.58-1.53-.86a13.68,13.68,0,0,0-1.62-.84,9.56,9.56,0,0,0-3.63-.21A35.46,35.46,0,0,0,45,178.05Z"/>
              <path class="ec218063-ee9c-485b-ab1b-a0a981499d89" d="M43.5,181.59c1.14.06,2.28,0,3.42,0l1.69-.1a3.67,3.67,0,0,1,1.54.08c.92.42,2,1,3,1.53.8.39,1.77.9,2.6,1.26a1.09,1.09,0,0,1,.29,0c-.85-.63-1.73-1.2-2.62-1.78a29.64,29.64,0,0,0-3-1.72,3.87,3.87,0,0,0-1.84-.07c-.55.06-1.11.12-1.68.2C45.74,181.18,44.62,181.36,43.5,181.59Z"/>
              <path class="ec218063-ee9c-485b-ab1b-a0a981499d89" d="M43.37,184.35c1.14,0,2,.08,2.87.13s1.91.11,2.86.2a4.28,4.28,0,0,1,2.38,1.1c.57.38,1.14.74,1.72,1.09h0l.33,0a21.85,21.85,0,0,0-1.73-1.6,9.9,9.9,0,0,0-1.17-.92,2.87,2.87,0,0,0-1.5-.48,20.34,20.34,0,0,0-2.92,0A14.66,14.66,0,0,0,43.37,184.35Z"/>
            </g>
            <g>
              <path class="a1f6ac49-b75b-4302-87c1-adab804dee08" d="M39.41,156.79l-.35.15,0,.06C39.41,157.41,39.52,156.6,39.41,156.79Z"/>
              <path class="a1f6ac49-b75b-4302-87c1-adab804dee08" d="M13.58,166.16a4.34,4.34,0,0,0,5.13,2.42,16.93,16.93,0,0,0,5.48-2.25c2-1.13,3.76-2.4,5-3.1,2.16-1.24,3.73-2.59,5.57-3.87a24.13,24.13,0,0,1,4.3-2.42c2.19-4.52-2.58-10.46,5.29-18.73.44-.45-.24-1.23-.4-1.83-2.35.74-9.12,4.87-14.66,8.79-1.95,1.37-3.75,2.72-5.15,3.88-.66.54-1.23,1-1.69,1.5C18.18,154.71,10.44,159.87,13.58,166.16Z"/>
            </g>
            <path class="a1f6ac49-b75b-4302-87c1-adab804dee08" d="M13.59,166.16c1.68,3.24,12.57,16.27,16.16,19.53l.44-.39a21.23,21.23,0,0,0,2.21-2.46c.24-.31.49-.62.7-.92,0,0,0,0,0,0a11.41,11.41,0,0,0,1.64-2.81c0-.09-.08-.22-.13-.35-1.07-2.57-4.87-10.88-6.19-15.22-.39-1.29-1.89-4.36-5-4.86"/>
            <path class="ba8d262f-ecb0-4d0a-a42f-3491d295df14" d="M39.41,156.79l-.35.15,0,.06C39.41,157.41,39.52,156.6,39.41,156.79Z"/>
            <path class="ba8d262f-ecb0-4d0a-a42f-3491d295df14" d="M34.61,159.18a21.41,21.41,0,0,1,4-2.32c2.2-4.52-2.18-10.38,5.69-18.65.44-.45-.24-1.23-.4-1.83-2.35.74-9.12,5.06-14.66,9C29.93,149.11,31.13,154.89,34.61,159.18Z"/>
          </g>
          <g class="a554aaaa-b640-4377-b6ca-b72393ceec42">
            <path class="abd4ce2a-1ffb-4957-9d18-389b656d8891" d="M82.85,152.49a37,37,0,0,0,1.36,6.29c3,6.06,5.27,11.67,8.3,13.13a5.94,5.94,0,0,0,3-2.51,4.13,4.13,0,0,1-2.35-1C90.38,166.2,85.43,157.44,82.85,152.49Z"/>
          </g>
          <path class="a1f6ac49-b75b-4302-87c1-adab804dee08" d="M82.85,152.49a36,36,0,0,0,1.37,6.29c.51,1,1,2.1,1.58,3.2,2.67,5.41,5.64,11.24,8.17,12.46a6,6,0,0,0,3-2.5c2.39-3.7,2-9.86,1.48-12.1-.13-.27-.25-.54-.4-.82-1.3-2.68-2.88-5.78-4.21-8.51-1.08-2.2-2-4.15-2.46-5.43-1.11-3-4.82-7.46-9-8.45-.13,1-.23,2.2-.27,3.41A71.91,71.91,0,0,0,82.85,152.49Z"/>
          <path class="ba8d262f-ecb0-4d0a-a42f-3491d295df14" d="M82.85,152.49a32.29,32.29,0,0,0,1.61,6.14c.51,1,1,2.18,1.51,3.28,5-1.89,6.94-7.43,7.82-11.17-1.07-2.2-1.93-4.38-2.4-5.66-1.11-3-4.82-7.46-9-8.45-.13,1-.23,2.2-.27,3.41A71.91,71.91,0,0,0,82.85,152.49Z"/>
          <path class="a1f6ac49-b75b-4302-87c1-adab804dee08" d="M92,172.61A5.32,5.32,0,0,0,94,174.43c4.27,2.36,9.32-.78,11.23-4.37a202.72,202.72,0,0,0,8.63-19.87c-.08-2.19.19-4.73-1.86-6.19a7.82,7.82,0,0,0-4.08-1.22c-1.26,2.09-6.65,8.78-10.71,13.93-2.06,2.6-3.19,3.2-4.44,7.1"/>
          <path class="a765136b-68a7-4b72-aaf5-2d26718d362d" d="M36,179.19c-.82-.32-1.39.39-2.92-.81s-4.44,5.47-4.44,5.47,1,2.67,2.91,2.19S36,179.19,36,179.19Z"/>
          <path class="b55ab513-838d-42ef-bbd1-634a736bd83a" d="M35.45,178.81a5.84,5.84,0,0,0-2.57,2.27"/>
          <g>
            <path class="abf892c9-8b14-40fd-8ffd-f60d4ad98c81" d="M14.34,68.65c0,27.36,21.57,44.75,48.47,44.75S111.5,91.22,111.5,63.87,97.41,13.31,62,13.31C24.81,13.31,14.34,41.29,14.34,68.65Z"/>
            <g>
              <path class="bb303d06-00d9-4963-93e3-453c4a2fcad1" d="M100.09,90.46c1.93-2.61,4.44-5.12,7.43-4.64s4.44,3.29,3.86,8.11-1.64,7.33-5.31,10.23-5.6,4.34-9.46,1.73C95.94,100.59,99.12,92.19,100.09,90.46Z"/>
              <path class="b4d4e2e3-3277-4e80-8760-51b15e93301a" d="M97.61,104.27a2.23,2.23,0,0,0,1.48-.14,8.81,8.81,0,0,0,1.36-.63,4.75,4.75,0,0,0,2-2.28,4.64,4.64,0,0,0,.17-3,4.44,4.44,0,0,0-.82-1.55c.21-.34.43-.67.65-1a29.29,29.29,0,0,1,1.94-2.47,6.35,6.35,0,0,1,2.3-2,1.8,1.8,0,0,1,1.42,0,1.36,1.36,0,0,1,.88,1.16,1.41,1.41,0,0,0-.76-1.37,2,2,0,0,0-1.66-.19,6,6,0,0,0-2.56,2,19.08,19.08,0,0,0-1.88,2.6c-.19.32-.36.65-.53,1l-.09.17a1.4,1.4,0,0,1,.16.26,4.87,4.87,0,0,1,.57,1.45A4.54,4.54,0,0,1,102,101a4.85,4.85,0,0,1-1.76,2.15,11.11,11.11,0,0,1-1.26.72A2.27,2.27,0,0,1,97.61,104.27Zm7.79-3a28.91,28.91,0,0,1-2.72,1.7,14.56,14.56,0,0,0,2.94-1.38,6.31,6.31,0,0,0,2.29-2.38,5.73,5.73,0,0,0,.49-3.28,12.78,12.78,0,0,0-.85-3.14A23.29,23.29,0,0,1,108,96a6,6,0,0,1-.55,3A6.54,6.54,0,0,1,105.4,101.26Z"/>
            </g>
            <g>
              <path class="bb303d06-00d9-4963-93e3-453c4a2fcad1" d="M26.21,90.62c-2-2.65-4.5-5.19-7.54-4.7s-4.5,3.32-3.91,8.22,1.66,7.44,5.38,10.38,5.68,4.4,9.6,1.76C30.42,100.89,27.19,92.38,26.21,90.62Z"/>
              <path class="b4d4e2e3-3277-4e80-8760-51b15e93301a" d="M27.32,104.26a11.38,11.38,0,0,1-1.27-.74,4.74,4.74,0,0,1-1.78-2.18A4.55,4.55,0,0,1,24,98.56a5,5,0,0,1,.57-1.48,2.33,2.33,0,0,1,.17-.26c0-.06-.06-.12-.09-.17-.17-.33-.35-.66-.54-1A19.23,19.23,0,0,0,22.21,93a6.25,6.25,0,0,0-2.6-2,2.08,2.08,0,0,0-1.69.2,1.41,1.41,0,0,0-.77,1.38A1.39,1.39,0,0,1,18,91.4a1.8,1.8,0,0,1,1.44,0,6.43,6.43,0,0,1,2.33,2,28.4,28.4,0,0,1,2,2.52c.23.33.45.66.67,1a4.31,4.31,0,0,0-.83,1.57,4.66,4.66,0,0,0,.17,3.08,4.81,4.81,0,0,0,2.05,2.31,9.18,9.18,0,0,0,1.39.64,2.2,2.2,0,0,0,1.49.14A2.33,2.33,0,0,1,27.32,104.26Zm-8.59-5a6.09,6.09,0,0,1-.56-3.06A24,24,0,0,1,18.64,93a12.86,12.86,0,0,0-.86,3.19,5.87,5.87,0,0,0,.49,3.32,6.45,6.45,0,0,0,2.33,2.42,14.58,14.58,0,0,0,3,1.41,30.79,30.79,0,0,1-2.77-1.73A6.65,6.65,0,0,1,18.73,99.25Z"/>
            </g>
            <g>
              <path class="bb303d06-00d9-4963-93e3-453c4a2fcad1" d="M24,76.07c0,.34-3.47.71-3.43,1.06a226.85,226.85,0,0,0,5.1,28.66,22.39,22.39,0,0,0,2.66,6.15,25.27,25.27,0,0,0,7.29,7.4,84.59,84.59,0,0,0,13,7,65.14,65.14,0,0,0,6.58,2.54,25.15,25.15,0,0,0,7.16,1.38,28.29,28.29,0,0,0,8.08-1.5,105.1,105.1,0,0,0,16.41-7.21C92,118.85,98.36,113,99.86,106.79a289.87,289.87,0,0,0,5.58-29.09c.53-3.92-2.84-5.45-6.07-17.11C95.05,45,89.09,38.77,64.45,38.77,21.45,38.77,22.61,64,24,76.07Z"/>
              <path class="f6637764-68a0-40b3-b039-3453703684a7" d="M102.82,93.33S98.76,67,90,59.8,80,48.07,80,48.07s-2.33,13.35-17.4,19.06l.66-8a19.53,19.53,0,0,1-9,8L55.73,57a156.19,156.19,0,0,0-22.5,10.89C22.32,74.45,22.78,96,22.78,96l4.38-44.73L64.45,35.82l23.73-.93L104.25,57l-2.49,17.25Z"/>
            </g>
            <g>
              <ellipse class="fdba9fd5-3ece-43f3-8262-730e9505e1f9" cx="44.71" cy="84.88" rx="7.86" ry="8.31"/>
              <ellipse class="a6e310f0-49a4-4ca6-b6fa-35aaa83f6ef5" cx="44.6" cy="84.79" rx="5.26" ry="5.56"/>
              <ellipse class="af63222f-5f94-416f-80a8-e11ccbd394f0" cx="42.14" cy="80.31" rx="1.44" ry="1.53"/>
            </g>
            <g>
              <ellipse class="fdba9fd5-3ece-43f3-8262-730e9505e1f9" cx="82.14" cy="86.38" rx="7.86" ry="8.31"/>
              <ellipse class="a6e310f0-49a4-4ca6-b6fa-35aaa83f6ef5" cx="81.95" cy="86.37" rx="5.18" ry="5.48"/>
              <ellipse class="af63222f-5f94-416f-80a8-e11ccbd394f0" cx="79.57" cy="81.81" rx="1.44" ry="1.53"/>
            </g>
            <path class="b2ca3d8b-d6b9-46fe-8ef6-82fd9a5e7d31" d="M68.6,97.56A6.33,6.33,0,0,1,63.94,101a5,5,0,0,1-3-.47,5.31,5.31,0,0,1-2.17-2,6.71,6.71,0,0,0,2.33,1.65,5.35,5.35,0,0,0,2.74.32A7.42,7.42,0,0,0,68.6,97.56Z"/>
            <g>
              <path class="f6637764-68a0-40b3-b039-3453703684a7" d="M77.13,105c.6-.24,1.31-1.21,1.85-1.55a4.28,4.28,0,0,1,1.82-.61c.83-.08,1.85.22,2,1a1.7,1.7,0,0,1-.88,1.57,5.36,5.36,0,0,1-3.21,1,1.63,1.63,0,0,1-1.33-.51.64.64,0,0,1,.54-1Z"/>
              <path class="f6637764-68a0-40b3-b039-3453703684a7" d="M50.2,106.7c-.39-.43-1-1.63-1.51-1.94a2.45,2.45,0,0,0-1.07-.43,1.82,1.82,0,0,0-1.82,1.18,2.17,2.17,0,0,0,.46,2.07,4.12,4.12,0,0,0,2,1.19,3.12,3.12,0,0,0,1.57.15,1.38,1.38,0,0,0,1.09-1,1.27,1.27,0,0,0-.68-1.24,4.45,4.45,0,0,0-1.49-.5Z"/>
              <g>
                <path class="b893c779-d314-4ee7-9b4e-d9f0984fb8a0" d="M47.6,106.05a14.4,14.4,0,0,0,.67,1.54c1.49,3,5,8.49,9.5,10.55A12.56,12.56,0,0,0,68.2,118c4.28-2,6.22-4.41,8.68-8.45.8-1.31,1.65-2.79,2.66-4.5,0,0,.24-.31-.16-.33a2.6,2.6,0,0,0-.67.12c-2.4.67-8.51,4.06-18,3.6-7.28-.36-11.25-2-12.7-2.67a.33.33,0,0,0-.43.15A.23.23,0,0,0,47.6,106.05Z"/>
                <path class="a112ee68-e3a3-4b11-a288-008ae2d0f677" d="M48.27,107.59c1.49,3,5,8.49,9.5,10.55A12.56,12.56,0,0,0,68.2,118c4.28-2,6.22-4.41,8.68-8.45-2.86,3.16-7.69,7.3-13.55,7.7C55.31,117.75,49.84,110.1,48.27,107.59Z"/>
                <path class="b076773c-7434-4b2f-8db3-5c9f61ef320d" d="M47.61,105.87a30.73,30.73,0,0,0,16.47,3.84c8.73-.37,13.73-3.85,15.3-5a2.6,2.6,0,0,0-.67.12c-2.4.67-8.51,4.06-18,3.6-7.27-.36-11.24-2-12.69-2.67A.33.33,0,0,0,47.61,105.87Z"/>
                <path class="a26e0ebb-9831-4917-82e7-dd16df5eac26" d="M75.83,106.52c-.19.07-10.35,6.18-24.32,1.15,0,0,2,4.6,10.43,5C71.57,113.2,75.83,106.52,75.83,106.52Z"/>
                <path class="ff763314-e6d4-4d8f-a731-1fd2a9b3ebb2" d="M63.29,117.08c2-.11,4.46-.63,5.44-1.51-1.76-1.73-4-.46-5.92-1-4-1.15-5.37.29-5.9,1.08A10.22,10.22,0,0,0,63.29,117.08Z"/>
              </g>
            </g>
            <path class="a6e310f0-49a4-4ca6-b6fa-35aaa83f6ef5" d="M79.49,69.55s7.82-1.34,11.58,3.87c.15.2.5.11.48-.14-.12-1.58-1-4.83-5.84-5.78C78,66,79.49,69.55,79.49,69.55Z"/>
            <path class="a6e310f0-49a4-4ca6-b6fa-35aaa83f6ef5" d="M49.56,66.35S41.74,65,38,70.22a.26.26,0,0,1-.48-.14c.12-1.58,1-4.83,5.84-5.78C51,62.8,49.56,66.35,49.56,66.35Z"/>
            <path class="abf892c9-8b14-40fd-8ffd-f60d4ad98c81" d="M17.73,82.62A50.51,50.51,0,0,0,21.51,90c.25.43,2.13,2.79,2,3.31,0,0-3.12-20.65,11.72-28.22,5.8-3,11.76-5.32,17.61-8s11.67-5.55,17.28-8.84a49.54,49.54,0,0,0,8.75-6C88.68,58.79,101.1,59.16,102.18,87c.06,1.48.2,3,.3,4.43l.34,1.93s2.42-2.12,6.65-15.26c4.61-13.8-6.47-23.88-13.23-35.46C85.5,24.24,73.19,26.45,68.6,26c-8.08-.8-8.1,5-16,6.63-17.41,3.67-23.93.68-27.62,20.23C22.74,64.49,13.32,72,17.73,82.62Z"/>
            <path class="abf892c9-8b14-40fd-8ffd-f60d4ad98c81" d="M64.45,47.29a25.42,25.42,0,0,1,0,16.41A35.43,35.43,0,0,0,79.38,39.11"/>
            <path class="abf892c9-8b14-40fd-8ffd-f60d4ad98c81" d="M68.6,45.56s-.24,6-12.87,18.57c0,0,4.68-8.33,2-16.84"/>
            <path class="a6177cd5-174d-423e-a333-752fe3787275" d="M106.27,87.38a80.77,80.77,0,0,0,.46-22.71A53.68,53.68,0,0,0,99.9,43.19a38.27,38.27,0,0,0-7.15-8.74,44.46,44.46,0,0,0-9.35-6.36,45.44,45.44,0,0,0-21.94-4.8,48.48,48.48,0,0,0-21.7,5.9,39.13,39.13,0,0,0-9,6.78,31.18,31.18,0,0,0-3.52,4.42c-.49.8-1,1.61-1.39,2.46S25,44.54,24.58,45.4a60.94,60.94,0,0,0-5.09,22,78.62,78.62,0,0,0,.17,11.38A70,70,0,0,0,21.51,90a72.11,72.11,0,0,1-2.09-11.21A77.78,77.78,0,0,1,19,67.39a60.7,60.7,0,0,1,5.1-22.19c.4-.87.8-1.74,1.26-2.58s.91-1.68,1.41-2.5a31.63,31.63,0,0,1,3.58-4.49,39,39,0,0,1,9.15-6.87,48.82,48.82,0,0,1,21.93-6,46,46,0,0,1,22.17,4.85,44.52,44.52,0,0,1,9.46,6.44,38.64,38.64,0,0,1,7.25,8.86,53.6,53.6,0,0,1,6.88,21.68A81.12,81.12,0,0,1,106.27,87.38Z"/>
            <g>
              <g>
                <g>
                  <path class="e3ba9205-f6d6-4190-a09e-2af75614135e" d="M108.42,49c3.91-3.51,9.38-3.8,4.39-9.36s-16.13-3.73-16.13-3.73-3,10.87,2,16.44S104.51,52.48,108.42,49Z"/>
                  <path class="e3ba9205-f6d6-4190-a09e-2af75614135e" d="M84.73,22.56c3.91-3.51,4.79-8.91,9.78-3.34s2,16.43,2,16.43S85.34,37.5,80.35,31.93,80.82,26.07,84.73,22.56Z"/>
                </g>
                <circle class="a43ba14a-bc81-4bed-aca5-799fc7dca6ef" cx="84.05" cy="30.28" r="1.13"/>
                <circle class="a43ba14a-bc81-4bed-aca5-799fc7dca6ef" cx="88.44" cy="32.48" r="1.13"/>
                <circle class="a43ba14a-bc81-4bed-aca5-799fc7dca6ef" cx="89.1" cy="25.75" r="1.13"/>
                <path class="a43ba14a-bc81-4bed-aca5-799fc7dca6ef" d="M94.57,28.45a1.14,1.14,0,0,0,.08-1.6,1.12,1.12,0,0,0-1.59-.09,1.13,1.13,0,0,0-.09,1.6A1.15,1.15,0,0,0,94.57,28.45Z"/>
                <circle class="a43ba14a-bc81-4bed-aca5-799fc7dca6ef" cx="92.47" cy="22.72" r="1.13"/>
                <path class="a43ba14a-bc81-4bed-aca5-799fc7dca6ef" d="M91,34.66a1.12,1.12,0,0,1,1.59.09,1.14,1.14,0,0,1,.29.85c-.69,0-1.45,0-2.25,0A1.12,1.12,0,0,1,91,34.66Z"/>
                <path class="a43ba14a-bc81-4bed-aca5-799fc7dca6ef" d="M86.23,34.4a1.09,1.09,0,0,1,.27.56,13.88,13.88,0,0,1-1.89-.61l0,0A1.12,1.12,0,0,1,86.23,34.4Z"/>
                <path class="a43ba14a-bc81-4bed-aca5-799fc7dca6ef" d="M96.42,23.74h0a14.06,14.06,0,0,1,.4,1.93,1.16,1.16,0,0,1-.5-.32A1.14,1.14,0,0,1,96.42,23.74Z"/>
                <path class="a43ba14a-bc81-4bed-aca5-799fc7dca6ef" d="M96,31.73a1.13,1.13,0,0,1,.09-1.6,1.09,1.09,0,0,1,.92-.27c0,.8-.12,1.56-.21,2.24A1.15,1.15,0,0,1,96,31.73Z"/>
                <path class="a43ba14a-bc81-4bed-aca5-799fc7dca6ef" d="M83.47,26.24a1.14,1.14,0,0,1-1.6-.08,1.17,1.17,0,0,1-.27-.94c.46-.28,1-.58,1.44-.9a1.23,1.23,0,0,1,.52.32A1.14,1.14,0,0,1,83.47,26.24Z"/>
                <path class="a43ba14a-bc81-4bed-aca5-799fc7dca6ef" d="M80.19,27.67a1.12,1.12,0,0,1-.09,1.59,1.08,1.08,0,0,1-.88.28,2.36,2.36,0,0,1-.07-2.23A1.15,1.15,0,0,1,80.19,27.67Z"/>
                <path class="a43ba14a-bc81-4bed-aca5-799fc7dca6ef" d="M88.61,20.11a1.13,1.13,0,0,1-.09,1.6,1.12,1.12,0,0,1-1.59-.09,1.1,1.1,0,0,1-.27-.55c.37-.45.72-.9,1-1.33A1.16,1.16,0,0,1,88.61,20.11Z"/>
                <path class="a43ba14a-bc81-4bed-aca5-799fc7dca6ef" d="M91.89,18.69a1.14,1.14,0,0,1-1.6-.09,1.15,1.15,0,0,1-.24-1.06,2.37,2.37,0,0,1,2.21.33A1.12,1.12,0,0,1,91.89,18.69Z"/>
                <circle class="a43ba14a-bc81-4bed-aca5-799fc7dca6ef" cx="100.67" cy="48.8" r="1.13"/>
                <circle class="a43ba14a-bc81-4bed-aca5-799fc7dca6ef" cx="99.33" cy="43.92" r="1.13"/>
                <circle class="a43ba14a-bc81-4bed-aca5-799fc7dca6ef" cx="105.72" cy="44.27" r="1.13"/>
                <path class="a43ba14a-bc81-4bed-aca5-799fc7dca6ef" d="M103.63,38.55a1.13,1.13,0,1,1-.09,1.59A1.14,1.14,0,0,1,103.63,38.55Z"/>
                <circle class="a43ba14a-bc81-4bed-aca5-799fc7dca6ef" cx="109.09" cy="41.25" r="1.13"/>
                <path class="a43ba14a-bc81-4bed-aca5-799fc7dca6ef" d="M97.07,41.4a1.14,1.14,0,0,0,.08-1.6,1.08,1.08,0,0,0-.81-.37c-.09.68-.17,1.43-.22,2.23A1.12,1.12,0,0,0,97.07,41.4Z"/>
                <path class="a43ba14a-bc81-4bed-aca5-799fc7dca6ef" d="M96.81,46.19a1.11,1.11,0,0,0-.53-.33,14.37,14.37,0,0,0,.41,2l0,0A1.13,1.13,0,0,0,96.81,46.19Z"/>
                <path class="a43ba14a-bc81-4bed-aca5-799fc7dca6ef" d="M108.51,37.21h0a14.07,14.07,0,0,0-1.87-.61,1.1,1.1,0,0,0,.26.53A1.13,1.13,0,0,0,108.51,37.21Z"/>
                <path class="a43ba14a-bc81-4bed-aca5-799fc7dca6ef" d="M100.52,36.78a1.13,1.13,0,0,0,2-.81c-.81,0-1.57,0-2.25,0A1.15,1.15,0,0,0,100.52,36.78Z"/>
                <path class="a43ba14a-bc81-4bed-aca5-799fc7dca6ef" d="M104.62,49.82a1.12,1.12,0,0,0-.08,1.59,1.07,1.07,0,0,0,.89.37c.33-.42.68-.88,1.06-1.33a1.19,1.19,0,0,0-.27-.55A1.14,1.14,0,0,0,104.62,49.82Z"/>
                <path class="a43ba14a-bc81-4bed-aca5-799fc7dca6ef" d="M102.85,52.92a1.14,1.14,0,0,0-1.6-.08,1.11,1.11,0,0,0-.37.85,2.38,2.38,0,0,0,2.21.3A1.12,1.12,0,0,0,102.85,52.92Z"/>
                <path class="a43ba14a-bc81-4bed-aca5-799fc7dca6ef" d="M111.27,45.37a1.13,1.13,0,1,0-1.68,1.51,1.11,1.11,0,0,0,.52.33c.49-.33,1-.62,1.43-.9A1.13,1.13,0,0,0,111.27,45.37Z"/>
                <path class="a43ba14a-bc81-4bed-aca5-799fc7dca6ef" d="M113,42.26a1.14,1.14,0,0,0-.08,1.6,1.11,1.11,0,0,0,1,.36,2.36,2.36,0,0,0-.09-2.24A1.09,1.09,0,0,0,113,42.26Z"/>
              </g>
              <g>
                <g>
                  <g>
                    <path class="bb1d749a-9e48-4c51-a9b1-a99166ebeea1" d="M86.91,28.37c1.19-1.7,6.17,4.34,6.17,4.34S85.71,30.06,86.91,28.37Z"/>
                    <path class="bb1d749a-9e48-4c51-a9b1-a99166ebeea1" d="M91.54,26.43c1.25-.62,2.75,5.61,2.75,5.61S90.29,27,91.54,26.43Z"/>
                  </g>
                  <g>
                    <path class="bb1d749a-9e48-4c51-a9b1-a99166ebeea1" d="M102.88,46.17c1.82-1-3.65-6.6-3.65-6.6S101.07,47.17,102.88,46.17Z"/>
                    <path class="bb1d749a-9e48-4c51-a9b1-a99166ebeea1" d="M105.31,41.78c.74-1.18-5.29-3.34-5.29-3.34S104.56,43,105.31,41.78Z"/>
                  </g>
                </g>
                <rect class="add7b4cc-5dfe-4c3d-b96f-0524080f6604" x="93.17" y="32.38" width="6.79" height="6.79" rx="2.01" transform="translate(0.8 73.63) rotate(-41.9)"/>
              </g>
            </g>
            <path class="b6f35529-dd71-408f-aa26-99aa233c392a" d="M101.47,104.07s-3.2,6.65.74,7.79,2.71-6.31,2.71-6.31-1,6.27-2.23,2.4Z"/>
            <path class="b6f35529-dd71-408f-aa26-99aa233c392a" d="M24.13,104.49s3.2,6.65-.74,7.79S20.68,106,20.68,106s1,6.27,2.24,2.4Z"/>
          </g>
          <path class="b6ac3586-5409-4b16-b371-083bb880501d" d="M42.66,155.48l-9.1,5a58.74,58.74,0,0,1-4.27-15.11C40,137,42.59,135.9,42.59,135.9l8.17-2.38"/>
          <path class="a9ef1873-5c9e-4eb7-a849-dae6f0bbd52c" d="M80.52,135.82s7.8,1.16,10.56,7.93,4.4,7,4.4,7-1.11,7.28-9.51,11.12l-3.4-4.67"/>
          <line class="bb27d8eb-d13b-4e0e-92fe-cc0822c46d0f" x1="83.46" y1="161.16" x2="84.62" y2="146.97"/>
          <g>
            <path class="ba48a9bc-e7b3-4a7d-8703-62737ba6778e" d="M71.6,167.05a3.34,3.34,0,0,1-.33.62,3.3,3.3,0,0,1-1.41,1.14c-.86.36-3.39.09-3.74-1,.4,1.22,1,1.83.37,3.18a4,4,0,0,1-.83,1.18,4.37,4.37,0,0,1-.56.49,4.84,4.84,0,0,1-1.25.66,3.85,3.85,0,0,1-.91.21,3.42,3.42,0,0,1-.64,0c-2.33-.22-3.95-2.86-3.31-5.29-.11.43-1.59,1.12-2,1.22a5,5,0,0,1-3.05-.08,3.82,3.82,0,0,1-.82-.44,3.64,3.64,0,0,1-.56-.49,2.94,2.94,0,0,1-.73-2.08h0a4,4,0,0,1,0-.49l0-.21a3.63,3.63,0,0,1,4.67-3.18c-1.26-1.39-2.26-3-1.72-4.34a2.06,2.06,0,0,1,.33-.57,3.89,3.89,0,0,1,1.42-1,4.49,4.49,0,0,1,.67-.24,3.11,3.11,0,0,1,.79-.1,3.38,3.38,0,0,1,3.15,2.57A4.43,4.43,0,0,1,63.67,155a3.67,3.67,0,0,1,1.79-.2,5,5,0,0,1,.85.19h0A4.93,4.93,0,0,1,68.24,156a2.92,2.92,0,0,1,.44.5,2.75,2.75,0,0,1,.19.28c1.33,2.37-.8,4.47-2.49,5.88a4.13,4.13,0,0,1,5.26,2.23,3.42,3.42,0,0,1,.16.72s0,.09,0,.13A2.92,2.92,0,0,1,71.6,167.05Z"/>
            <path class="af221209-b1ad-4e39-8434-f254bcc7a5ef" d="M64.18,166.91a3.61,3.61,0,0,0,.42-5.61,3.91,3.91,0,0,0-5.87.45,3.72,3.72,0,0,0,.73,5.48A4,4,0,0,0,64.18,166.91Z"/>
            <path class="b0745512-fa8f-4dba-83a7-072659ac2c9c" d="M63.82,166.48a3.07,3.07,0,0,0,.36-4.77,3.33,3.33,0,0,0-5,.38,3.16,3.16,0,0,0,.62,4.66A3.43,3.43,0,0,0,63.82,166.48Z"/>
          </g>
        </g>
        <g>
          <g>
            <g>
              <path class="a1f6ac49-b75b-4302-87c1-adab804dee08" d="M113.61,150.25c5.2-.25,9-6.92,9-6.92,9.08-2.1,9.73-3.56,9.72-4.87s-1.6-1.06-1.6-1.06L123,139.15s7.44-5.91,8.72-9.27-1-3.14-4-.57-5.82,4.87-5.82,4.87-.94,0-.24-1.26,5.66-9.46,5.66-9.46a1.83,1.83,0,0,0-.28-2.57c-1.41-1-3.53,1-9.79,10,0,0-.4-1.13,1.44-7.24,0,0,1.32-4.73-1-6.16,0,0-1.81,0-5.16,11.69,0,0-1.91,5.59-3.71,6.68,0,0-.28.5-1.42-1.77s-3.26-4.09-5.83-2.73c0,0-1.37.4.51,2.27s2.25,3.49,2.72,6.45,1.48,4.63,3.23,5.9"/>
              <path class="a1f6ac49-b75b-4302-87c1-adab804dee08" d="M113.52,128.82s10.6,3.6,9.7,11.26"/>
            </g>
            <path class="a1f6ac49-b75b-4302-87c1-adab804dee08" d="M108.86,135.81s3.67.41,4.66,5.28"/>
          </g>
          <g>
            <path class="ad12452c-c1b1-4ddd-aa05-ff7dfb267077" d="M104.34,57.16s8.74,23.07,6,41.66,6.78,24-5.39,34.5-36,15.14-46.11,5.16c0,0-6.76,2-22.94-.47S7.5,128,12,112.69,14.31,77,15,65s15.73-26.2,47.38-17.68S104.34,57.16,104.34,57.16Z"/>
            <g>
              <g>
                <path class="a1f6ac49-b75b-4302-87c1-adab804dee08" d="M49.38,284.49c4.52.55,8.09-2,10.21-5.11a11.35,11.35,0,0,0,2.1-6.27c-.14-4.64.55-8.68.13-11s-.13-6.09,0-9.79.66-8,1-11.4c-5.68-3.84-10.19-2.37-15.35,2.13.55,2.51,1.29,6,2,9.21.79,3.69,1.46,7,1.6,7.73.27,1.46-1.46,3.57-3.05,6s-2.5,3.58-4.22,6.62C42.09,278.27,41.82,283.57,49.38,284.49Z"/>
                <g class="fffd86eb-d27e-45e8-82a5-90a9c1f64efe">
                  <path class="ba8d262f-ecb0-4d0a-a42f-3491d295df14" d="M47.52,243.06c.55,2.51,1.29,6,2,9.21a26.62,26.62,0,0,0,6.77-.23c2-.33,3.37,3.71,3.6,7.52s.67,5.51.22,9-.79,10-.79,10.21a2.77,2.77,0,0,0,.3.63,11.35,11.35,0,0,0,2.1-6.27c-.14-4.64.55-8.68.13-11s-.13-6.09,0-9.79.66-8,1-11.4C57.19,237.09,52.68,238.56,47.52,243.06Z"/>
                </g>
              </g>
              <g>
                <path class="aa3fbfe1-2a0a-4d1a-85c5-ce9dff751d60" d="M38.56,284.53c0,.7,0,1.36.1,2,.2,2.59,3.15,4.5,11.43,5.06,4.45.31,7.64-.62,9.66-1.86,1.75-1,2.65-2.31,2.75-3.2,0-.48.08-1.33.09-2.35,0-3-.15-7.64-.31-9.65a5.07,5.07,0,0,0-2.49-3.35,10.55,10.55,0,0,0-6.65-1.7,25.22,25.22,0,0,0-10,3.25,35.88,35.88,0,0,0-3.48,5.39A15.14,15.14,0,0,0,38.56,284.53Z"/>
                <path class="a65c6cda-5c60-4abc-841e-dd3015e64984" d="M62.59,284.14c0,1,0,1.87-.09,2.35-.22,1.92-4.14,5.62-12.41,5.06s-11.23-2.47-11.44-5.06c0-.6-.08-1.26-.09-2,.94,2.13,4.22,4.39,12,4.39C57.69,288.92,61.23,286.56,62.59,284.14Z"/>
                <g class="f1ee320a-302a-4998-a41e-3c00b7a9b519">
                  <path class="afde8851-1ef3-4fba-931f-5d9fb9ada19e" d="M59.75,289.69c1.75-1,2.65-2.31,2.75-3.2,0-.48.08-1.33.09-2.35,0-3-.15-7.64-.31-9.65a5.07,5.07,0,0,0-2.49-3.35c0,4.06-.1,8.73-.27,11.44A56.56,56.56,0,0,0,59.75,289.69Z"/>
                </g>
              </g>
              <g>
                <path class="a1f6ac49-b75b-4302-87c1-adab804dee08" d="M70.1,242.36a13.69,13.69,0,0,0,1.37,3.49c1,1.86,2.27,4.16,3.61,6.49,2.5,4.34,5.08,8.77,5.46,10.64.47,2.3.4,5.49.27,10.13s4.77,12.31,12.32,11.38c4.63-.57,6.32-2.78,6.53-5.71a9.56,9.56,0,0,0-.06-2.06,23,23,0,0,0-.92-4.14c-1.71-3-2.9-4.07-4.49-6.45s-2.62-3.1-3.21-6-3-14.65-3.79-21.29c-5-4.38-11.06-.52-16.63,3.22Z"/>
                <g class="f0167c1a-f1a3-4f2d-a1c9-b821ca9b1a31">
                  <path class="ba8d262f-ecb0-4d0a-a42f-3491d295df14" d="M70.56,242.05c.29,1.29.62,2.59.91,3.8,1,1.86,2.27,4.16,3.61,6.49a29.1,29.1,0,0,0,8.83-.38c2.85-.43,4,6.4,4.87,9s4.3,8.34,6.24,11.88a10.52,10.52,0,0,0,4.58,3.88,23,23,0,0,0-.92-4.14c-1.71-3-2.9-4.07-4.49-6.45s-2.62-3.1-3.21-6-3-14.65-3.79-21.29C82.15,234.45,76.13,238.31,70.56,242.05Z"/>
                </g>
              </g>
              <g>
                <path class="afe8e59d-24fb-4de5-bf26-05ad0a46e42e" d="M23.51,239.21v0c.58,2.52,2.36,4.62,5.42,4.6,4,0,5.84,1.71,10.32,3.88s9.21,1.65,13,.61,8.11-.9,13.62.45c3.9,1,7.23,1.41,10.47.75a15.59,15.59,0,0,0,4-1.43,40.33,40.33,0,0,1,5.08-2.19c2.3-.81,4.53-1.38,7.17-2.12a5.26,5.26,0,0,1,.53-.15c4.76-1.37,5.32-3,4.28-7.1s-12.73-46.44-15.15-55c-1-.7-3-4.62-5.89-4.79a165.71,165.71,0,0,0-16.93.27c-7.55.37-9.22-1.4-17.53.67-.84.21-1.76.46-2.75.75-.81,2.58-2.79,9.73-5.09,18.19-1.71,6.35-3.63,13.45-5.34,19.9-2.72,10.22-4.95,18.8-5.22,20.16A6.52,6.52,0,0,0,23.51,239.21Z"/>
                <g class="b91c44db-db0c-44bd-a01f-5d3ee2a6bdba">
                  <path class="af21d30b-80a4-4654-a068-23d5e6f778b1" d="M76.29,249.52a15.59,15.59,0,0,0,4-1.43,40.33,40.33,0,0,1,5.08-2.19C82.92,242.87,78.93,241.9,76.29,249.52Z"/>
                </g>
                <g class="f392d3b3-1072-410a-9e5b-b425017b2631">
                  <path class="ee310f0f-95e8-4c00-b7b0-884b9edb0349" d="M88,216.52c1.2,5.87,3.61,20.07,4.62,27.26a5.26,5.26,0,0,1,.53-.15c4.76-1.37,5.32-3,4.28-7.1s-12.73-46.44-15.15-55c-1-.7-3-4.62-5.89-4.79L76,178c2,7,4.71,18.07,6,23.38.39,1.67.64,2.77.66,3-.1-1.6-.2-3-.29-4.22v-.06c-.52-6.72-.88-8.33-1.16-11C80.79,186,86.39,208.78,88,216.52Z"/>
                </g>
                <g class="a935dde8-842c-4057-8d71-673fad333923">
                  <path class="e245d788-0cfb-4fd1-8a12-423ff621ae02" d="M23.51,239.21c3.36-12.55,16-53.73,18.39-61.49-.84.21-1.76.46-2.75.75-2.36,7.57-15,54.89-15.65,58.25A6.52,6.52,0,0,0,23.51,239.21Z"/>
                </g>
                <path class="fc8e2f5e-56a8-4add-8e2a-da2f87809f32" d="M78.93,185c.46,2.5.9,4.87,1.34,7.24s.87,4.84,1.3,7.25.88,4.81,1.32,7.24.9,4.74,1.37,7.24q-.36-3.67-.89-7.32c-.36-2.43-.77-4.85-1.21-7.27s-1-4.82-1.5-7.22S79.55,187.41,78.93,185Z"/>
                <path class="fc8e2f5e-56a8-4add-8e2a-da2f87809f32" d="M69.56,184.53c-.07,1.24-.13,2.25-.19,3.24s-.06,2.18-.09,3.24,0,2.16,0,3.24.08,2.17.16,3.25c.09-1.08.17-2.16.21-3.24s.06-2.16.07-3.24,0-2.13,0-3.24Z"/>
                <path class="fc8e2f5e-56a8-4add-8e2a-da2f87809f32" d="M56.32,189.75c.1,2.17.19,4.18.29,6.19s.15,4.13.22,6.19.15,4.1.22,6.18.14,4,.22,6.19q.19-3.09.21-6.2t-.11-6.2q-.13-3.09-.4-6.18C56.8,193.86,56.59,191.8,56.32,189.75Z"/>
                <path class="fc8e2f5e-56a8-4add-8e2a-da2f87809f32" d="M46.6,187.74c-.41,2.49-.79,5-1.12,7.49s-.62,5-.87,7.52-.45,5-.61,7.55-.27,5-.32,7.57c.26-2.6.51-5.07.75-7.54s.48-5,.72-7.53.48-5,.72-7.53S46.35,190.33,46.6,187.74Z"/>
                <path class="fc8e2f5e-56a8-4add-8e2a-da2f87809f32" d="M40.61,182.84q-.8,2.08-1.47,4.23c-.44,1.42-.84,2.86-1.2,4.31s-.65,2.92-.91,4.39-.45,3-.59,4.45c.37-1.58.69-3,1-4.36s.68-2.91,1-4.35.69-2.87,1.05-4.34S40.22,184.41,40.61,182.84Z"/>
              </g>
              <g>
                <path class="b71c0529-ddab-4dfd-906c-83a4cff740d0" d="M40,158c-.14,4.63-.74,8.22-.61,13.87,2.63,3.81,13.93,5.4,20.73,5.85,5.54.36,13.47,1.54,19.14-.72a13.59,13.59,0,0,0,3.37-1.9c.43-2.77.71-13.71,1-18,.17-2.52,2.08-6.23,1.31-11.71-.17-1.27-.37-2.49-.63-3.62a13.34,13.34,0,0,0-1.93-5.17c-1.93-1-7.4-3.87-10.18-4.52-4.55-.8-11.11-.31-16.59.06A47.7,47.7,0,0,0,44,136.38a13.88,13.88,0,0,0-.63,2C42,143.89,40.16,154,40,158Z"/>
                <g class="aea74e03-51db-4088-9914-92deca2a28b7">
                  <path class="b4bf8e44-9c4e-44ef-8a1a-5bcd7d9ff098" d="M83.65,153.05c-.2,6.44-3.68,19.77-4.35,24a13.59,13.59,0,0,0,3.37-1.9c.43-2.77.51-9.7.79-14,.17-2.53-1.08-18.11-1.84-23.59C81.24,139.36,83.76,149.52,83.65,153.05Z"/>
                </g>
              </g>
              <path class="ef578d9c-8c3a-4e3e-a1bc-3550fce468d2" d="M50.42,140.1c.5,2.93,2.28,5.38,5.65,5.21s5.63-3.71,7.9-6.82a24,24,0,0,0,3.88,5.65c1.77,1.76,5,1.67,7-.85a12.42,12.42,0,0,0,2.2-5.86,6.15,6.15,0,0,0-.18-2.9,2.88,2.88,0,0,0-1-1.11l0,0a9.77,9.77,0,0,0-3.17-1.18l-.4-.1c-8,2.31-13.05.81-15.75-.36-.84-.26-4.88.26-5.72,1.76a5.87,5.87,0,0,0-.65,2.54A17.32,17.32,0,0,0,50.42,140.1Z"/>
              <g>
                <path class="a1f6ac49-b75b-4302-87c1-adab804dee08" d="M54.8,133.05c1.86,3.12,6.81,5,9.35,5s7.15-2.31,8.08-5.89a5.5,5.5,0,0,1-.3-1.23,29.89,29.89,0,0,1-.34-3.47c-.14-3.06-.08-6.94.06-10.06a12.84,12.84,0,0,0-7.9-2.65,13.64,13.64,0,0,0-1.68.1,11.29,11.29,0,0,0-6.68,3.24c.11,3.33.13,6.46.07,9-.05,1.36-.12,2.55-.21,3.53A10.33,10.33,0,0,1,54.8,133.05Z"/>
                <path class="ba8d262f-ecb0-4d0a-a42f-3491d295df14" d="M55.45,127.07c.07-2.56,0-5.69-.07-9a10.94,10.94,0,0,1,6.52-3.24,13.12,13.12,0,0,1,1.64-.1,12.36,12.36,0,0,1,7.71,2.65c-.14,3.12,0,7.07.16,10.13a31.3,31.3,0,0,0,.27,3.32,19,19,0,0,1-16.2-.1C55.57,129.73,55.41,128.43,55.45,127.07Z"/>
              </g>
              <g>
                <path class="ba48a9bc-e7b3-4a7d-8703-62737ba6778e" d="M39.15,178.47c11.56,4.05,25.28,4.69,38,3.6,1.72-.13,3.42-.3,5.09-.5.42-2.33.09-3.83.42-6.44-1,.14-2.08.27-3.16.38-13.32,1.33-29.85-.32-40.08-3.61C39.09,173.74,39.29,176.69,39.15,178.47Z"/>
                <g class="ab356fd5-35dc-4be9-b0df-1435a280e65a">
                  <path class="bc4c5177-d9ff-4fbc-81c4-ae7e1a7a4985" d="M77.16,182.07c1.72-.13,3.42-.3,5.09-.5.42-2.33.09-3.83.42-6.44-1,.14-2.08.27-3.16.38v0C79.17,178.75,79.35,180,77.16,182.07Z"/>
                </g>
              </g>
              <g>
                <path class="be164d51-20e0-4ef6-8d7e-2b1f140873fd" d="M79.9,284.14c0,1,0,1.87.1,2.35.21,1.92,4.16,5.62,12.47,5.06a34,34,0,0,0,6.89-1.06c3.17-.92,4.46-2.31,4.6-4,.05-.6.08-1.26.09-2a15,15,0,0,0-1.08-6.45,35.14,35.14,0,0,0-3.5-5.39,24.47,24.47,0,0,0-6.25-2.55,24.1,24.1,0,0,0-3.81-.7c-4.27-.45-9,2.36-9.2,5.05C80.05,276.5,79.89,281.12,79.9,284.14Z"/>
                <path class="a6651d44-a841-4ccc-af0d-ff613d504a45" d="M79.9,284.14c0,1,0,1.87.09,2.35.23,1.92,4.17,5.62,12.48,5.06s11.27-2.47,11.48-5.06c.06-.6.08-1.26.1-2-1,2.13-4.24,4.39-12,4.39C84.83,288.92,81.27,286.56,79.9,284.14Z"/>
                <g class="b9e94bde-c0bf-45d7-acd6-c7b5bab5c919">
                  <path class="bb8b86d8-aee2-4a0a-b289-4bdabe1b24d6" d="M93.22,270.14a43.15,43.15,0,0,1,6.14,20.35c3.17-.92,4.46-2.31,4.6-4,.05-.6.08-1.26.09-2a15,15,0,0,0-1.08-6.45,35.14,35.14,0,0,0-3.5-5.39A24.47,24.47,0,0,0,93.22,270.14Z"/>
                </g>
              </g>
              <path class="fc8e2f5e-56a8-4add-8e2a-da2f87809f32" d="M38.56,247.36a15.56,15.56,0,0,0,6.64,1.84,24.22,24.22,0,0,0,6.9-.84c4.36-1,8.92-.31,13.29.82a30.35,30.35,0,0,0,6.94.91,15.44,15.44,0,0,0,6.88-1.56c4-2.33,8.36-3.53,12.68-5.09l-6.58,1.94A40.76,40.76,0,0,0,79,248.06a15.43,15.43,0,0,1-6.66,1.42,29.88,29.88,0,0,1-6.78-.95c-4.41-1.1-9.1-1.79-13.58-.68a23.53,23.53,0,0,1-6.77,1A15.43,15.43,0,0,1,38.56,247.36Z"/>
            </g>
            <g>
              <g>
                <path class="a1f6ac49-b75b-4302-87c1-adab804dee08" d="M29.75,185.69a3.59,3.59,0,0,1,.91,1.15,4.83,4.83,0,0,0,3.79,3,9.2,9.2,0,0,0,3-.11,20.24,20.24,0,0,0,2.3-.55c.22-.07.46-.12.7-.19l.73-.19.19-.05,2.35-.54.6-.13,0,0,.46-.09.2-.06a19.44,19.44,0,0,1,3.34-.49c.33.08.62.4,1.82,1a2.76,2.76,0,0,0,2.69.21,1.46,1.46,0,0,0,.37-1.77h0a3.11,3.11,0,0,0,.32,0,2.87,2.87,0,0,0,2.32-.38c.4-.45.24-1.38-.15-2.15a1,1,0,0,1,.29,0,2.32,2.32,0,0,0,2-.41l.14-.16a1.62,1.62,0,0,0-.72-2.53.58.58,0,0,0,.2-.22A1.65,1.65,0,0,0,57,179c-.93-.53-1.56-1.21-3.1-2-.7-.35-1.18-.6-1.67-.81a10.09,10.09,0,0,0-2.37-.6,19.1,19.1,0,0,0-5.57-.17l-.21.07c-1.13.41-7.05,2.57-9.29,3.58-.7,1.14-3.61,3.6-4.75,6C29.92,185.26,29.83,185.47,29.75,185.69Z"/>
                <path class="ec218063-ee9c-485b-ab1b-a0a981499d89" d="M45,178.05c1.2.1,2.38.16,3.56.17a10.11,10.11,0,0,1,3.39.33c.51.2,1,.5,1.54.76l1.6.78c.79.37,1.63.9,2.42,1.22a.74.74,0,0,0,.19-.21c-.76-.53-1.57-1-2.37-1.46-.51-.3-1-.58-1.53-.86a13.68,13.68,0,0,0-1.62-.84,9.56,9.56,0,0,0-3.63-.21A35.46,35.46,0,0,0,45,178.05Z"/>
                <path class="ec218063-ee9c-485b-ab1b-a0a981499d89" d="M43.5,181.59c1.14.06,2.28,0,3.42,0l1.69-.1a3.67,3.67,0,0,1,1.54.08c.92.42,2,1,3,1.53.8.39,1.77.9,2.6,1.26a1.09,1.09,0,0,1,.29,0c-.85-.63-1.73-1.2-2.62-1.78a29.64,29.64,0,0,0-3-1.72,3.87,3.87,0,0,0-1.84-.07c-.55.06-1.11.12-1.68.2C45.74,181.18,44.62,181.36,43.5,181.59Z"/>
                <path class="ec218063-ee9c-485b-ab1b-a0a981499d89" d="M43.37,184.35c1.14,0,2,.08,2.87.13s1.91.11,2.86.2a4.28,4.28,0,0,1,2.38,1.1c.57.38,1.14.74,1.72,1.09h0l.33,0a21.85,21.85,0,0,0-1.73-1.6,9.9,9.9,0,0,0-1.17-.92,2.87,2.87,0,0,0-1.5-.48,20.34,20.34,0,0,0-2.92,0A14.66,14.66,0,0,0,43.37,184.35Z"/>
              </g>
              <g>
                <path class="a1f6ac49-b75b-4302-87c1-adab804dee08" d="M39.41,156.79l-.35.15,0,.06C39.41,157.41,39.52,156.6,39.41,156.79Z"/>
                <path class="a1f6ac49-b75b-4302-87c1-adab804dee08" d="M13.58,166.16a4.34,4.34,0,0,0,5.13,2.42,16.93,16.93,0,0,0,5.48-2.25c2-1.13,3.76-2.4,5-3.1,2.16-1.24,3.73-2.59,5.57-3.87a24.13,24.13,0,0,1,4.3-2.42c2.19-4.52-2.58-10.46,5.29-18.73.44-.45-.24-1.23-.4-1.83-2.35.74-9.12,4.87-14.66,8.79-1.95,1.37-3.75,2.72-5.15,3.88-.66.54-1.23,1-1.69,1.5C18.18,154.71,10.44,159.87,13.58,166.16Z"/>
              </g>
              <path class="a1f6ac49-b75b-4302-87c1-adab804dee08" d="M13.59,166.16c1.68,3.24,12.57,16.27,16.16,19.53l.44-.39a21.23,21.23,0,0,0,2.21-2.46c.24-.31.49-.62.7-.92,0,0,0,0,0,0a11.41,11.41,0,0,0,1.64-2.81c0-.09-.08-.22-.13-.35-1.07-2.57-4.87-10.88-6.19-15.22-.39-1.29-1.89-4.36-5-4.86"/>
              <path class="ba8d262f-ecb0-4d0a-a42f-3491d295df14" d="M39.41,156.79l-.35.15,0,.06C39.41,157.41,39.52,156.6,39.41,156.79Z"/>
              <path class="ba8d262f-ecb0-4d0a-a42f-3491d295df14" d="M34.61,159.18a21.41,21.41,0,0,1,4-2.32c2.2-4.52-2.18-10.38,5.69-18.65.44-.45-.24-1.23-.4-1.83-2.35.74-9.12,5.06-14.66,9C29.93,149.11,31.13,154.89,34.61,159.18Z"/>
            </g>
            <g class="a554aaaa-b640-4377-b6ca-b72393ceec42">
              <path class="abd4ce2a-1ffb-4957-9d18-389b656d8891" d="M82.85,152.49a37,37,0,0,0,1.36,6.29c3,6.06,5.27,11.67,8.3,13.13a5.94,5.94,0,0,0,3-2.51,4.13,4.13,0,0,1-2.35-1C90.38,166.2,85.43,157.44,82.85,152.49Z"/>
            </g>
            <path class="a1f6ac49-b75b-4302-87c1-adab804dee08" d="M82.85,152.49a36,36,0,0,0,1.37,6.29c.51,1,1,2.1,1.58,3.2,2.67,5.41,5.64,11.24,8.17,12.46a6,6,0,0,0,3-2.5c2.39-3.7,2-9.86,1.48-12.1-.13-.27-.25-.54-.4-.82-1.3-2.68-2.88-5.78-4.21-8.51-1.08-2.2-2-4.15-2.46-5.43-1.11-3-4.82-7.46-9-8.45-.13,1-.23,2.2-.27,3.41A71.91,71.91,0,0,0,82.85,152.49Z"/>
            <path class="ba8d262f-ecb0-4d0a-a42f-3491d295df14" d="M82.85,152.49a32.29,32.29,0,0,0,1.61,6.14c.51,1,1,2.18,1.51,3.28,5-1.89,6.94-7.43,7.82-11.17-1.07-2.2-1.93-4.38-2.4-5.66-1.11-3-4.82-7.46-9-8.45-.13,1-.23,2.2-.27,3.41A71.91,71.91,0,0,0,82.85,152.49Z"/>
            <path class="a1f6ac49-b75b-4302-87c1-adab804dee08" d="M92,172.61A5.32,5.32,0,0,0,94,174.43c4.27,2.36,9.32-.78,11.23-4.37a202.72,202.72,0,0,0,8.63-19.87c-.08-2.19.19-4.73-1.86-6.19a7.82,7.82,0,0,0-4.08-1.22c-1.26,2.09-6.65,8.78-10.71,13.93-2.06,2.6-3.19,3.2-4.44,7.1"/>
            <path class="a765136b-68a7-4b72-aaf5-2d26718d362d" d="M36,179.19c-.82-.32-1.39.39-2.92-.81s-4.44,5.47-4.44,5.47,1,2.67,2.91,2.19S36,179.19,36,179.19Z"/>
            <path class="b55ab513-838d-42ef-bbd1-634a736bd83a" d="M35.45,178.81a5.84,5.84,0,0,0-2.57,2.27"/>
            <g>
              <path class="abf892c9-8b14-40fd-8ffd-f60d4ad98c81" d="M14.34,68.65c0,27.36,21.57,44.75,48.47,44.75S111.5,91.22,111.5,63.87,97.41,13.31,62,13.31C24.81,13.31,14.34,41.29,14.34,68.65Z"/>
              <g>
                <path class="bb303d06-00d9-4963-93e3-453c4a2fcad1" d="M100.09,90.46c1.93-2.61,4.44-5.12,7.43-4.64s4.44,3.29,3.86,8.11-1.64,7.33-5.31,10.23-5.6,4.34-9.46,1.73C95.94,100.59,99.12,92.19,100.09,90.46Z"/>
                <path class="b4d4e2e3-3277-4e80-8760-51b15e93301a" d="M97.61,104.27a2.23,2.23,0,0,0,1.48-.14,8.81,8.81,0,0,0,1.36-.63,4.75,4.75,0,0,0,2-2.28,4.64,4.64,0,0,0,.17-3,4.44,4.44,0,0,0-.82-1.55c.21-.34.43-.67.65-1a29.29,29.29,0,0,1,1.94-2.47,6.35,6.35,0,0,1,2.3-2,1.8,1.8,0,0,1,1.42,0,1.36,1.36,0,0,1,.88,1.16,1.41,1.41,0,0,0-.76-1.37,2,2,0,0,0-1.66-.19,6,6,0,0,0-2.56,2,19.08,19.08,0,0,0-1.88,2.6c-.19.32-.36.65-.53,1l-.09.17a1.4,1.4,0,0,1,.16.26,4.87,4.87,0,0,1,.57,1.45A4.54,4.54,0,0,1,102,101a4.85,4.85,0,0,1-1.76,2.15,11.11,11.11,0,0,1-1.26.72A2.27,2.27,0,0,1,97.61,104.27Zm7.79-3a28.91,28.91,0,0,1-2.72,1.7,14.56,14.56,0,0,0,2.94-1.38,6.31,6.31,0,0,0,2.29-2.38,5.73,5.73,0,0,0,.49-3.28,12.78,12.78,0,0,0-.85-3.14A23.29,23.29,0,0,1,108,96a6,6,0,0,1-.55,3A6.54,6.54,0,0,1,105.4,101.26Z"/>
              </g>
              <g>
                <path class="bb303d06-00d9-4963-93e3-453c4a2fcad1" d="M26.21,90.62c-2-2.65-4.5-5.19-7.54-4.7s-4.5,3.32-3.91,8.22,1.66,7.44,5.38,10.38,5.68,4.4,9.6,1.76C30.42,100.89,27.19,92.38,26.21,90.62Z"/>
                <path class="b4d4e2e3-3277-4e80-8760-51b15e93301a" d="M27.32,104.26a11.38,11.38,0,0,1-1.27-.74,4.74,4.74,0,0,1-1.78-2.18A4.55,4.55,0,0,1,24,98.56a5,5,0,0,1,.57-1.48,2.33,2.33,0,0,1,.17-.26c0-.06-.06-.12-.09-.17-.17-.33-.35-.66-.54-1A19.23,19.23,0,0,0,22.21,93a6.25,6.25,0,0,0-2.6-2,2.08,2.08,0,0,0-1.69.2,1.41,1.41,0,0,0-.77,1.38A1.39,1.39,0,0,1,18,91.4a1.8,1.8,0,0,1,1.44,0,6.43,6.43,0,0,1,2.33,2,28.4,28.4,0,0,1,2,2.52c.23.33.45.66.67,1a4.31,4.31,0,0,0-.83,1.57,4.66,4.66,0,0,0,.17,3.08,4.81,4.81,0,0,0,2.05,2.31,9.18,9.18,0,0,0,1.39.64,2.2,2.2,0,0,0,1.49.14A2.33,2.33,0,0,1,27.32,104.26Zm-8.59-5a6.09,6.09,0,0,1-.56-3.06A24,24,0,0,1,18.64,93a12.86,12.86,0,0,0-.86,3.19,5.87,5.87,0,0,0,.49,3.32,6.45,6.45,0,0,0,2.33,2.42,14.58,14.58,0,0,0,3,1.41,30.79,30.79,0,0,1-2.77-1.73A6.65,6.65,0,0,1,18.73,99.25Z"/>
              </g>
              <g>
                <path class="bb303d06-00d9-4963-93e3-453c4a2fcad1" d="M24,76.07c0,.34-3.47.71-3.43,1.06a226.85,226.85,0,0,0,5.1,28.66,22.39,22.39,0,0,0,2.66,6.15,25.27,25.27,0,0,0,7.29,7.4,84.59,84.59,0,0,0,13,7,65.14,65.14,0,0,0,6.58,2.54,25.15,25.15,0,0,0,7.16,1.38,28.29,28.29,0,0,0,8.08-1.5,105.1,105.1,0,0,0,16.41-7.21C92,118.85,98.36,113,99.86,106.79a289.87,289.87,0,0,0,5.58-29.09c.53-3.92-2.84-5.45-6.07-17.11C95.05,45,89.09,38.77,64.45,38.77,21.45,38.77,22.61,64,24,76.07Z"/>
                <path class="f6637764-68a0-40b3-b039-3453703684a7" d="M102.82,93.33S98.76,67,90,59.8,80,48.07,80,48.07s-2.33,13.35-17.4,19.06l.66-8a19.53,19.53,0,0,1-9,8L55.73,57a156.19,156.19,0,0,0-22.5,10.89C22.32,74.45,22.78,96,22.78,96l4.38-44.73L64.45,35.82l23.73-.93L104.25,57l-2.49,17.25Z"/>
              </g>
              <g>
                <ellipse class="fdba9fd5-3ece-43f3-8262-730e9505e1f9" cx="44.71" cy="84.88" rx="7.86" ry="8.31"/>
                <ellipse class="a6e310f0-49a4-4ca6-b6fa-35aaa83f6ef5" cx="44.6" cy="84.79" rx="5.26" ry="5.56"/>
                <ellipse class="af63222f-5f94-416f-80a8-e11ccbd394f0" cx="42.14" cy="80.31" rx="1.44" ry="1.53"/>
              </g>
              <g>
                <ellipse class="fdba9fd5-3ece-43f3-8262-730e9505e1f9" cx="82.14" cy="86.38" rx="7.86" ry="8.31"/>
                <ellipse class="a6e310f0-49a4-4ca6-b6fa-35aaa83f6ef5" cx="81.95" cy="86.37" rx="5.18" ry="5.48"/>
                <ellipse class="af63222f-5f94-416f-80a8-e11ccbd394f0" cx="79.57" cy="81.81" rx="1.44" ry="1.53"/>
              </g>
              <path class="b2ca3d8b-d6b9-46fe-8ef6-82fd9a5e7d31" d="M68.6,97.56A6.33,6.33,0,0,1,63.94,101a5,5,0,0,1-3-.47,5.31,5.31,0,0,1-2.17-2,6.71,6.71,0,0,0,2.33,1.65,5.35,5.35,0,0,0,2.74.32A7.42,7.42,0,0,0,68.6,97.56Z"/>
              <g>
                <path class="f6637764-68a0-40b3-b039-3453703684a7" d="M77.13,105c.6-.24,1.31-1.21,1.85-1.55a4.28,4.28,0,0,1,1.82-.61c.83-.08,1.85.22,2,1a1.7,1.7,0,0,1-.88,1.57,5.36,5.36,0,0,1-3.21,1,1.63,1.63,0,0,1-1.33-.51.64.64,0,0,1,.54-1Z"/>
                <path class="f6637764-68a0-40b3-b039-3453703684a7" d="M50.2,106.7c-.39-.43-1-1.63-1.51-1.94a2.45,2.45,0,0,0-1.07-.43,1.82,1.82,0,0,0-1.82,1.18,2.17,2.17,0,0,0,.46,2.07,4.12,4.12,0,0,0,2,1.19,3.12,3.12,0,0,0,1.57.15,1.38,1.38,0,0,0,1.09-1,1.27,1.27,0,0,0-.68-1.24,4.45,4.45,0,0,0-1.49-.5Z"/>
                <g>
                  <path class="b893c779-d314-4ee7-9b4e-d9f0984fb8a0" d="M47.6,106.05a14.4,14.4,0,0,0,.67,1.54c1.49,3,5,8.49,9.5,10.55A12.56,12.56,0,0,0,68.2,118c4.28-2,6.22-4.41,8.68-8.45.8-1.31,1.65-2.79,2.66-4.5,0,0,.24-.31-.16-.33a2.6,2.6,0,0,0-.67.12c-2.4.67-8.51,4.06-18,3.6-7.28-.36-11.25-2-12.7-2.67a.33.33,0,0,0-.43.15A.23.23,0,0,0,47.6,106.05Z"/>
                  <path class="a112ee68-e3a3-4b11-a288-008ae2d0f677" d="M48.27,107.59c1.49,3,5,8.49,9.5,10.55A12.56,12.56,0,0,0,68.2,118c4.28-2,6.22-4.41,8.68-8.45-2.86,3.16-7.69,7.3-13.55,7.7C55.31,117.75,49.84,110.1,48.27,107.59Z"/>
                  <path class="b076773c-7434-4b2f-8db3-5c9f61ef320d" d="M47.61,105.87a30.73,30.73,0,0,0,16.47,3.84c8.73-.37,13.73-3.85,15.3-5a2.6,2.6,0,0,0-.67.12c-2.4.67-8.51,4.06-18,3.6-7.27-.36-11.24-2-12.69-2.67A.33.33,0,0,0,47.61,105.87Z"/>
                  <path class="a26e0ebb-9831-4917-82e7-dd16df5eac26" d="M75.83,106.52c-.19.07-10.35,6.18-24.32,1.15,0,0,2,4.6,10.43,5C71.57,113.2,75.83,106.52,75.83,106.52Z"/>
                  <path class="ff763314-e6d4-4d8f-a731-1fd2a9b3ebb2" d="M63.29,117.08c2-.11,4.46-.63,5.44-1.51-1.76-1.73-4-.46-5.92-1-4-1.15-5.37.29-5.9,1.08A10.22,10.22,0,0,0,63.29,117.08Z"/>
                </g>
              </g>
              <path class="a6e310f0-49a4-4ca6-b6fa-35aaa83f6ef5" d="M79.49,69.55s7.82-1.34,11.58,3.87c.15.2.5.11.48-.14-.12-1.58-1-4.83-5.84-5.78C78,66,79.49,69.55,79.49,69.55Z"/>
              <path class="a6e310f0-49a4-4ca6-b6fa-35aaa83f6ef5" d="M49.56,66.35S41.74,65,38,70.22a.26.26,0,0,1-.48-.14c.12-1.58,1-4.83,5.84-5.78C51,62.8,49.56,66.35,49.56,66.35Z"/>
              <path class="abf892c9-8b14-40fd-8ffd-f60d4ad98c81" d="M17.73,82.62A50.51,50.51,0,0,0,21.51,90c.25.43,2.13,2.79,2,3.31,0,0-3.12-20.65,11.72-28.22,5.8-3,11.76-5.32,17.61-8s11.67-5.55,17.28-8.84a49.54,49.54,0,0,0,8.75-6C88.68,58.79,101.1,59.16,102.18,87c.06,1.48.2,3,.3,4.43l.34,1.93s2.42-2.12,6.65-15.26c4.61-13.8-6.47-23.88-13.23-35.46C85.5,24.24,73.19,26.45,68.6,26c-8.08-.8-8.1,5-16,6.63-17.41,3.67-23.93.68-27.62,20.23C22.74,64.49,13.32,72,17.73,82.62Z"/>
              <path class="abf892c9-8b14-40fd-8ffd-f60d4ad98c81" d="M64.45,47.29a25.42,25.42,0,0,1,0,16.41A35.43,35.43,0,0,0,79.38,39.11"/>
              <path class="abf892c9-8b14-40fd-8ffd-f60d4ad98c81" d="M68.6,45.56s-.24,6-12.87,18.57c0,0,4.68-8.33,2-16.84"/>
              <path class="a6177cd5-174d-423e-a333-752fe3787275" d="M106.27,87.38a80.77,80.77,0,0,0,.46-22.71A53.68,53.68,0,0,0,99.9,43.19a38.27,38.27,0,0,0-7.15-8.74,44.46,44.46,0,0,0-9.35-6.36,45.44,45.44,0,0,0-21.94-4.8,48.48,48.48,0,0,0-21.7,5.9,39.13,39.13,0,0,0-9,6.78,31.18,31.18,0,0,0-3.52,4.42c-.49.8-1,1.61-1.39,2.46S25,44.54,24.58,45.4a60.94,60.94,0,0,0-5.09,22,78.62,78.62,0,0,0,.17,11.38A70,70,0,0,0,21.51,90a72.11,72.11,0,0,1-2.09-11.21A77.78,77.78,0,0,1,19,67.39a60.7,60.7,0,0,1,5.1-22.19c.4-.87.8-1.74,1.26-2.58s.91-1.68,1.41-2.5a31.63,31.63,0,0,1,3.58-4.49,39,39,0,0,1,9.15-6.87,48.82,48.82,0,0,1,21.93-6,46,46,0,0,1,22.17,4.85,44.52,44.52,0,0,1,9.46,6.44,38.64,38.64,0,0,1,7.25,8.86,53.6,53.6,0,0,1,6.88,21.68A81.12,81.12,0,0,1,106.27,87.38Z"/>
              <g>
                <g>
                  <g>
                    <path class="e3ba9205-f6d6-4190-a09e-2af75614135e" d="M108.42,49c3.91-3.51,9.38-3.8,4.39-9.36s-16.13-3.73-16.13-3.73-3,10.87,2,16.44S104.51,52.48,108.42,49Z"/>
                    <path class="e3ba9205-f6d6-4190-a09e-2af75614135e" d="M84.73,22.56c3.91-3.51,4.79-8.91,9.78-3.34s2,16.43,2,16.43S85.34,37.5,80.35,31.93,80.82,26.07,84.73,22.56Z"/>
                  </g>
                  <circle class="a43ba14a-bc81-4bed-aca5-799fc7dca6ef" cx="84.05" cy="30.28" r="1.13"/>
                  <circle class="a43ba14a-bc81-4bed-aca5-799fc7dca6ef" cx="88.44" cy="32.48" r="1.13"/>
                  <circle class="a43ba14a-bc81-4bed-aca5-799fc7dca6ef" cx="89.1" cy="25.75" r="1.13"/>
                  <path class="a43ba14a-bc81-4bed-aca5-799fc7dca6ef" d="M94.57,28.45a1.14,1.14,0,0,0,.08-1.6,1.12,1.12,0,0,0-1.59-.09,1.13,1.13,0,0,0-.09,1.6A1.15,1.15,0,0,0,94.57,28.45Z"/>
                  <circle class="a43ba14a-bc81-4bed-aca5-799fc7dca6ef" cx="92.47" cy="22.72" r="1.13"/>
                  <path class="a43ba14a-bc81-4bed-aca5-799fc7dca6ef" d="M91,34.66a1.12,1.12,0,0,1,1.59.09,1.14,1.14,0,0,1,.29.85c-.69,0-1.45,0-2.25,0A1.12,1.12,0,0,1,91,34.66Z"/>
                  <path class="a43ba14a-bc81-4bed-aca5-799fc7dca6ef" d="M86.23,34.4a1.09,1.09,0,0,1,.27.56,13.88,13.88,0,0,1-1.89-.61l0,0A1.12,1.12,0,0,1,86.23,34.4Z"/>
                  <path class="a43ba14a-bc81-4bed-aca5-799fc7dca6ef" d="M96.42,23.74h0a14.06,14.06,0,0,1,.4,1.93,1.16,1.16,0,0,1-.5-.32A1.14,1.14,0,0,1,96.42,23.74Z"/>
                  <path class="a43ba14a-bc81-4bed-aca5-799fc7dca6ef" d="M96,31.73a1.13,1.13,0,0,1,.09-1.6,1.09,1.09,0,0,1,.92-.27c0,.8-.12,1.56-.21,2.24A1.15,1.15,0,0,1,96,31.73Z"/>
                  <path class="a43ba14a-bc81-4bed-aca5-799fc7dca6ef" d="M83.47,26.24a1.14,1.14,0,0,1-1.6-.08,1.17,1.17,0,0,1-.27-.94c.46-.28,1-.58,1.44-.9a1.23,1.23,0,0,1,.52.32A1.14,1.14,0,0,1,83.47,26.24Z"/>
                  <path class="a43ba14a-bc81-4bed-aca5-799fc7dca6ef" d="M80.19,27.67a1.12,1.12,0,0,1-.09,1.59,1.08,1.08,0,0,1-.88.28,2.36,2.36,0,0,1-.07-2.23A1.15,1.15,0,0,1,80.19,27.67Z"/>
                  <path class="a43ba14a-bc81-4bed-aca5-799fc7dca6ef" d="M88.61,20.11a1.13,1.13,0,0,1-.09,1.6,1.12,1.12,0,0,1-1.59-.09,1.1,1.1,0,0,1-.27-.55c.37-.45.72-.9,1-1.33A1.16,1.16,0,0,1,88.61,20.11Z"/>
                  <path class="a43ba14a-bc81-4bed-aca5-799fc7dca6ef" d="M91.89,18.69a1.14,1.14,0,0,1-1.6-.09,1.15,1.15,0,0,1-.24-1.06,2.37,2.37,0,0,1,2.21.33A1.12,1.12,0,0,1,91.89,18.69Z"/>
                  <circle class="a43ba14a-bc81-4bed-aca5-799fc7dca6ef" cx="100.67" cy="48.8" r="1.13"/>
                  <circle class="a43ba14a-bc81-4bed-aca5-799fc7dca6ef" cx="99.33" cy="43.92" r="1.13"/>
                  <circle class="a43ba14a-bc81-4bed-aca5-799fc7dca6ef" cx="105.72" cy="44.27" r="1.13"/>
                  <path class="a43ba14a-bc81-4bed-aca5-799fc7dca6ef" d="M103.63,38.55a1.13,1.13,0,1,1-.09,1.59A1.14,1.14,0,0,1,103.63,38.55Z"/>
                  <circle class="a43ba14a-bc81-4bed-aca5-799fc7dca6ef" cx="109.09" cy="41.25" r="1.13"/>
                  <path class="a43ba14a-bc81-4bed-aca5-799fc7dca6ef" d="M97.07,41.4a1.14,1.14,0,0,0,.08-1.6,1.08,1.08,0,0,0-.81-.37c-.09.68-.17,1.43-.22,2.23A1.12,1.12,0,0,0,97.07,41.4Z"/>
                  <path class="a43ba14a-bc81-4bed-aca5-799fc7dca6ef" d="M96.81,46.19a1.11,1.11,0,0,0-.53-.33,14.37,14.37,0,0,0,.41,2l0,0A1.13,1.13,0,0,0,96.81,46.19Z"/>
                  <path class="a43ba14a-bc81-4bed-aca5-799fc7dca6ef" d="M108.51,37.21h0a14.07,14.07,0,0,0-1.87-.61,1.1,1.1,0,0,0,.26.53A1.13,1.13,0,0,0,108.51,37.21Z"/>
                  <path class="a43ba14a-bc81-4bed-aca5-799fc7dca6ef" d="M100.52,36.78a1.13,1.13,0,0,0,2-.81c-.81,0-1.57,0-2.25,0A1.15,1.15,0,0,0,100.52,36.78Z"/>
                  <path class="a43ba14a-bc81-4bed-aca5-799fc7dca6ef" d="M104.62,49.82a1.12,1.12,0,0,0-.08,1.59,1.07,1.07,0,0,0,.89.37c.33-.42.68-.88,1.06-1.33a1.19,1.19,0,0,0-.27-.55A1.14,1.14,0,0,0,104.62,49.82Z"/>
                  <path class="a43ba14a-bc81-4bed-aca5-799fc7dca6ef" d="M102.85,52.92a1.14,1.14,0,0,0-1.6-.08,1.11,1.11,0,0,0-.37.85,2.38,2.38,0,0,0,2.21.3A1.12,1.12,0,0,0,102.85,52.92Z"/>
                  <path class="a43ba14a-bc81-4bed-aca5-799fc7dca6ef" d="M111.27,45.37a1.13,1.13,0,1,0-1.68,1.51,1.11,1.11,0,0,0,.52.33c.49-.33,1-.62,1.43-.9A1.13,1.13,0,0,0,111.27,45.37Z"/>
                  <path class="a43ba14a-bc81-4bed-aca5-799fc7dca6ef" d="M113,42.26a1.14,1.14,0,0,0-.08,1.6,1.11,1.11,0,0,0,1,.36,2.36,2.36,0,0,0-.09-2.24A1.09,1.09,0,0,0,113,42.26Z"/>
                </g>
                <g>
                  <g>
                    <g>
                      <path class="bb1d749a-9e48-4c51-a9b1-a99166ebeea1" d="M86.91,28.37c1.19-1.7,6.17,4.34,6.17,4.34S85.71,30.06,86.91,28.37Z"/>
                      <path class="bb1d749a-9e48-4c51-a9b1-a99166ebeea1" d="M91.54,26.43c1.25-.62,2.75,5.61,2.75,5.61S90.29,27,91.54,26.43Z"/>
                    </g>
                    <g>
                      <path class="bb1d749a-9e48-4c51-a9b1-a99166ebeea1" d="M102.88,46.17c1.82-1-3.65-6.6-3.65-6.6S101.07,47.17,102.88,46.17Z"/>
                      <path class="bb1d749a-9e48-4c51-a9b1-a99166ebeea1" d="M105.31,41.78c.74-1.18-5.29-3.34-5.29-3.34S104.56,43,105.31,41.78Z"/>
                    </g>
                  </g>
                  <rect class="add7b4cc-5dfe-4c3d-b96f-0524080f6604" x="93.17" y="32.38" width="6.79" height="6.79" rx="2.01" transform="translate(0.8 73.63) rotate(-41.9)"/>
                </g>
              </g>
              <path class="b6f35529-dd71-408f-aa26-99aa233c392a" d="M101.47,104.07s-3.2,6.65.74,7.79,2.71-6.31,2.71-6.31-1,6.27-2.23,2.4Z"/>
              <path class="b6f35529-dd71-408f-aa26-99aa233c392a" d="M24.13,104.49s3.2,6.65-.74,7.79S20.68,106,20.68,106s1,6.27,2.24,2.4Z"/>
            </g>
            <path class="b6ac3586-5409-4b16-b371-083bb880501d" d="M42.66,155.48l-9.1,5a58.74,58.74,0,0,1-4.27-15.11C40,137,42.59,135.9,42.59,135.9l8.17-2.38"/>
            <path class="a9ef1873-5c9e-4eb7-a849-dae6f0bbd52c" d="M80.52,135.82s7.8,1.16,10.56,7.93,4.4,7,4.4,7-1.11,7.28-9.51,11.12l-3.4-4.67"/>
            <line class="bb27d8eb-d13b-4e0e-92fe-cc0822c46d0f" x1="83.46" y1="161.16" x2="84.62" y2="146.97"/>
            <g>
              <path class="ba48a9bc-e7b3-4a7d-8703-62737ba6778e" d="M71.6,167.05a3.34,3.34,0,0,1-.33.62,3.3,3.3,0,0,1-1.41,1.14c-.86.36-3.39.09-3.74-1,.4,1.22,1,1.83.37,3.18a4,4,0,0,1-.83,1.18,4.37,4.37,0,0,1-.56.49,4.84,4.84,0,0,1-1.25.66,3.85,3.85,0,0,1-.91.21,3.42,3.42,0,0,1-.64,0c-2.33-.22-3.95-2.86-3.31-5.29-.11.43-1.59,1.12-2,1.22a5,5,0,0,1-3.05-.08,3.82,3.82,0,0,1-.82-.44,3.64,3.64,0,0,1-.56-.49,2.94,2.94,0,0,1-.73-2.08h0a4,4,0,0,1,0-.49l0-.21a3.63,3.63,0,0,1,4.67-3.18c-1.26-1.39-2.26-3-1.72-4.34a2.06,2.06,0,0,1,.33-.57,3.89,3.89,0,0,1,1.42-1,4.49,4.49,0,0,1,.67-.24,3.11,3.11,0,0,1,.79-.1,3.38,3.38,0,0,1,3.15,2.57A4.43,4.43,0,0,1,63.67,155a3.67,3.67,0,0,1,1.79-.2,5,5,0,0,1,.85.19h0A4.93,4.93,0,0,1,68.24,156a2.92,2.92,0,0,1,.44.5,2.75,2.75,0,0,1,.19.28c1.33,2.37-.8,4.47-2.49,5.88a4.13,4.13,0,0,1,5.26,2.23,3.42,3.42,0,0,1,.16.72s0,.09,0,.13A2.92,2.92,0,0,1,71.6,167.05Z"/>
              <path class="af221209-b1ad-4e39-8434-f254bcc7a5ef" d="M64.18,166.91a3.61,3.61,0,0,0,.42-5.61,3.91,3.91,0,0,0-5.87.45,3.72,3.72,0,0,0,.73,5.48A4,4,0,0,0,64.18,166.91Z"/>
              <path class="b0745512-fa8f-4dba-83a7-072659ac2c9c" d="M63.82,166.48a3.07,3.07,0,0,0,.36-4.77,3.33,3.33,0,0,0-5,.38,3.16,3.16,0,0,0,.62,4.66A3.43,3.43,0,0,0,63.82,166.48Z"/>
            </g>
          </g>
        </g>
      </g>
    </g>
  </g>
</svg>
