<svg id="e8fdd1c7-8f5f-4dd2-ba67-20cb30f4e542" data-name="Layer 1" xmlns="http://www.w3.org/2000/svg" width="264.81" height="242.08" viewBox="0 0 264.81 242.08">
  <defs>
    <style>
      .a87f5c51-a123-4045-b4bd-6856fcd1381d, .aab06c66-2984-489e-979a-6af6a5510210, .acc86661-becf-4b1f-ab38-bce03525b03f, .b2447da1-10f6-4281-9499-d8449817a7a7, .b3df244b-b4e6-478d-8782-b7b0401f370e, .b4476eca-3f0c-4920-861b-38b276f107d1, .b7df4976-0c11-483c-8a48-9348590afa48, .b9bca5d4-1767-4d3e-a811-c9499fa7d81e, .bc4ebeff-4215-4e1f-ac94-cb7473439af3, .be2e9cea-c856-4210-8c34-5c12d3b3d0f2, .bfb512af-8260-4539-805c-4747d7b75f51, .e34cac93-c60b-4ef4-8426-42b2ff5d6055, .e3ca65dd-6e8c-472f-969a-9afdf807209f, .e554e767-1687-49c1-ad43-a85ff9cfd759, .e7ab1385-efb1-4ce8-8bec-dff5b585da8f, .e89be082-b302-4546-824e-ba43eb2f1bb1, .ea0f1e19-01a2-488c-a5e9-f725afda4ec5, .f19fa92d-8810-4a44-be73-7b4d22f8e5a0, .fd6cf261-f1d9-4e0a-811c-7095816153bc, .fdd296a3-6ddf-44d9-b2a6-ff1a55872854 {
        fill-rule: evenodd;
      }

      .e34cac93-c60b-4ef4-8426-42b2ff5d6055 {
        opacity: 0.5;
      }

      .b4476eca-3f0c-4920-861b-38b276f107d1 {
        fill: #fff;
      }

      .bc4ebeff-4215-4e1f-ac94-cb7473439af3 {
        fill: #541914;
        stroke: #331500;
      }

      .acc86661-becf-4b1f-ab38-bce03525b03f, .b2447da1-10f6-4281-9499-d8449817a7a7, .b3df244b-b4e6-478d-8782-b7b0401f370e, .b7df4976-0c11-483c-8a48-9348590afa48, .bc4ebeff-4215-4e1f-ac94-cb7473439af3, .be2e9cea-c856-4210-8c34-5c12d3b3d0f2 {
        stroke-miterlimit: 10;
      }

      .e3ca65dd-6e8c-472f-969a-9afdf807209f {
        fill: #39130f;
      }

      .b9bca5d4-1767-4d3e-a811-c9499fa7d81e {
        fill: #24803f;
      }

      .be2e9cea-c856-4210-8c34-5c12d3b3d0f2, .f19fa92d-8810-4a44-be73-7b4d22f8e5a0 {
        fill: #267f3f;
      }

      .be2e9cea-c856-4210-8c34-5c12d3b3d0f2 {
        stroke: #20441f;
      }

      .e89be082-b302-4546-824e-ba43eb2f1bb1 {
        fill: #cb862a;
      }

      .aab06c66-2984-489e-979a-6af6a5510210 {
        fill: #8a5f25;
      }

      .fdd296a3-6ddf-44d9-b2a6-ff1a55872854 {
        fill: #e9a322;
      }

      .b2447da1-10f6-4281-9499-d8449817a7a7, .b7df4976-0c11-483c-8a48-9348590afa48, .bfb512af-8260-4539-805c-4747d7b75f51 {
        fill: #36ae4a;
      }

      .b2447da1-10f6-4281-9499-d8449817a7a7 {
        stroke: #1d6131;
      }

      .b2447da1-10f6-4281-9499-d8449817a7a7, .b3df244b-b4e6-478d-8782-b7b0401f370e, .b7df4976-0c11-483c-8a48-9348590afa48 {
        stroke-width: 2px;
      }

      .b3df244b-b4e6-478d-8782-b7b0401f370e {
        fill: #ec2024;
        stroke: #5d3111;
      }

      .e554e767-1687-49c1-ad43-a85ff9cfd759 {
        fill: #321d0f;
        opacity: 0.22;
      }

      .b7df4976-0c11-483c-8a48-9348590afa48 {
        stroke: #1a8240;
      }

      .b9b93de5-2dee-46b3-a15f-1a6edfd9571a {
        fill: #279a47;
      }

      .e7ab1385-efb1-4ce8-8bec-dff5b585da8f {
        fill: #09a0ce;
      }

      .a87f5c51-a123-4045-b4bd-6856fcd1381d {
        fill: #151616;
      }

      .ea0f1e19-01a2-488c-a5e9-f725afda4ec5 {
        fill: #299546;
      }

      .acc86661-becf-4b1f-ab38-bce03525b03f, .fd6cf261-f1d9-4e0a-811c-7095816153bc {
        fill: #65bb4a;
      }

      .acc86661-becf-4b1f-ab38-bce03525b03f {
        stroke: #278c43;
      }

      .a0a93395-9755-4690-be1a-6dc883f7a369 {
        fill: #831618;
      }

      .a9494b3c-fed7-4e80-8e79-aa613bfe0e54 {
        fill: #7c4723;
      }

      .a4ea2c88-6775-451b-b21c-d51a139e3e8b {
        fill: #f2787a;
      }
    </style>
  </defs>
  <g>
    <path class="e34cac93-c60b-4ef4-8426-42b2ff5d6055" d="M239.26,239.2a35.57,35.57,0,0,1-18.1-4.59,9.12,9.12,0,0,1-6.28,2.52c-4.34,0-7.47-2.94-9.44-5.15-3.66-4.1-22.36-25.14-40.09-46.71a126.56,126.56,0,0,1-44.16-23.35,9.61,9.61,0,0,1-4,.91h-.44a8.78,8.78,0,0,1-7.14-4.33,8.12,8.12,0,0,1-.86-.69,8.78,8.78,0,0,1-5.36-6,8.93,8.93,0,0,1-2.5-3.06,9.59,9.59,0,0,1-.81-.75,8.68,8.68,0,0,1-5-8.71,7.88,7.88,0,0,1,.32-1.58l-5.25-5.1L30.52,100.75a8,8,0,0,1,7.12-14.33L61.32,97.35l-8-20.56L10.51,34.16A8,8,0,0,1,21.58,22.61L39.39,39.09c4.44-11.51,2-19.45,1.75-20.31a7.89,7.89,0,0,1,3.8-10,7.69,7.69,0,0,1,3.56-.86,8.2,8.2,0,0,1,7,3.89C63.91,25.53,58.12,43.3,54,52.57L66.38,64.05a25,25,0,0,1-1-4.66,35.35,35.35,0,0,1-.21-4c0-12,6.49-21.67,18.28-27.24l0,0a12.27,12.27,0,0,1,4.11-4.42A34.45,34.45,0,0,1,106.94,18c17.42,0,34.55,12.29,37.66,22.86,1.55,5.28,3.06,13,4.51,20.54.42,2.17.83,4.27,1.22,6.19,1.75,3.07,2.86,6.64,4.21,11a141.19,141.19,0,0,0,13.83,32.06c1.52,2.64,3.09,5.29,4.62,7.87,5.48,9.27,9.14,15.54,10.79,20a44.71,44.71,0,0,1,3.36,5,15,15,0,0,1,2.22,7.85c5,3.38,11.33,7.48,17.64,11.19,25.14-1.6,42.55-11.21,42.73-11.31a8,8,0,0,1,11.75,8.64L259,171.58a8,8,0,0,1-4.41,5.56,145.52,145.52,0,0,1-15,6.09,9.1,9.1,0,0,1,.33,3.63,26.23,26.23,0,0,1,4,4.09c5.14,4.18,11,10.27,8.61,17.22-.08.23-.16.45-.26.68,5.84,5.43,10.59,12.12,9.12,18.83-.91,4.16-4.28,9.44-15.19,11a49,49,0,0,1-6.93.52ZM78.47,88.58a35.39,35.39,0,0,1,4.59-11.43,8.84,8.84,0,0,1-4.16,1,9.33,9.33,0,0,1-2.17-.26,9.65,9.65,0,0,1-1.52-.5,7.82,7.82,0,0,1-2-1.18Z"/>
    <path class="b4476eca-3f0c-4920-861b-38b276f107d1" d="M234.26,234.2a35.57,35.57,0,0,1-18.1-4.59,9.12,9.12,0,0,1-6.28,2.52c-4.34,0-7.47-2.94-9.44-5.15-3.66-4.1-22.36-25.14-40.09-46.71a126.56,126.56,0,0,1-44.16-23.35,9.61,9.61,0,0,1-4,.91h-.44a8.78,8.78,0,0,1-7.14-4.33,8.12,8.12,0,0,1-.86-.69,8.78,8.78,0,0,1-5.36-6,8.93,8.93,0,0,1-2.5-3.06,9.59,9.59,0,0,1-.81-.75,8.68,8.68,0,0,1-5-8.71,7.88,7.88,0,0,1,.32-1.58l-5.25-5.1L25.52,95.75a8,8,0,0,1,7.12-14.33L56.32,92.35l-8-20.56L5.51,29.16A8,8,0,0,1,16.58,17.61L34.39,34.09c4.44-11.51,2-19.45,1.75-20.31a7.89,7.89,0,0,1,3.8-10,7.69,7.69,0,0,1,3.56-.86,8.2,8.2,0,0,1,7,3.89C58.91,20.53,53.12,38.3,49,47.57L61.38,59.05a25,25,0,0,1-1-4.66,35.35,35.35,0,0,1-.21-4c0-12,6.49-21.67,18.28-27.24l0,0a12.27,12.27,0,0,1,4.11-4.42A34.45,34.45,0,0,1,101.94,13c17.42,0,34.55,12.29,37.66,22.86,1.55,5.28,3.06,13,4.51,20.54.42,2.17.83,4.27,1.22,6.19,1.75,3.07,2.86,6.64,4.21,11a141.19,141.19,0,0,0,13.83,32.06c1.52,2.64,3.09,5.29,4.62,7.87,5.48,9.27,9.14,15.54,10.79,20a44.71,44.71,0,0,1,3.36,5,15,15,0,0,1,2.22,7.85c5,3.38,11.33,7.48,17.64,11.19,25.14-1.6,42.55-11.21,42.73-11.31a8,8,0,0,1,11.75,8.64L254,166.58a8,8,0,0,1-4.41,5.56,145.52,145.52,0,0,1-15,6.09,9.1,9.1,0,0,1,.33,3.63,26.23,26.23,0,0,1,4,4.09c5.14,4.18,11,10.27,8.61,17.22-.08.23-.16.45-.26.68,5.84,5.43,10.59,12.12,9.12,18.83-.91,4.16-4.28,9.44-15.19,11a49,49,0,0,1-6.93.52ZM73.47,83.58a35.39,35.39,0,0,1,4.59-11.43,8.84,8.84,0,0,1-4.16,1,9.33,9.33,0,0,1-2.17-.26,9.65,9.65,0,0,1-1.52-.5,7.82,7.82,0,0,1-2-1.18Z"/>
    <g>
      <path class="bc4ebeff-4215-4e1f-ac94-cb7473439af3" d="M116.53,147l-26.6-25.89L29.29,88.69l55.46,25.58s28.09,12.49,38.77,23S116.53,147,116.53,147Z"/>
      <path class="e3ca65dd-6e8c-472f-969a-9afdf807209f" d="M79.57,57.81s2.5-8.2,6.11-12,4.25,9.9,4.25,9.9Z"/>
      <path class="b9bca5d4-1767-4d3e-a811-c9499fa7d81e" d="M102.62,67.42C96.68,61.81,69.48,78,85.73,111.88c3.66,7.63,6.78,11.31,8,7.91a26.53,26.53,0,0,0,1.17-7.44s-.06,13.72,5.25,14.65,3.88-9.24,3.88-9.24,1.39,14.56,8.3,15.4,3.89-9.24,3.89-9.24,2.15,16.45,9.41,19.5,2.64-10.56,2.64-10.56,4.64,10.52,9.17,10.86-5.68-15.31-14.31-30.23C107.19,86,109,72.77,102.62,67.42Z"/>
      <path class="be2e9cea-c856-4210-8c34-5c12d3b3d0f2" d="M169,145.58c1.51.8,35.63,25.78,52.16,29.69,0,0,12.6,7.46.69,7.5,0,0,21.63,11.27,6.67,14.84s-20.07-7.22-20.07-7.22,3.74,12-2.08,6.58-38.72-38.79-46.78-54.82S169,145.58,169,145.58Z"/>
      <g>
        <g>
          <path class="e89be082-b302-4546-824e-ba43eb2f1bb1" d="M113.7,129.54a21.86,21.86,0,0,0-6.14-1A7.32,7.32,0,0,0,102,131a3.37,3.37,0,0,0-.79,1.94,2,2,0,0,0,.94,1.79,2.44,2.44,0,0,0,2.52-.47c.72-.55,1.27-1.29,2-1.83,1.75-1.32,4.24-1.21,6.29-.44a45.6,45.6,0,0,1,5.77,3.16c.66.36,1.54.67,2.11.19a1.41,1.41,0,0,0,.44-.87c.24-1.46-.86-2.81-2.1-3.61-2.49-1.61-5.62-1.82-8.59-2"/>
          <path class="aab06c66-2984-489e-979a-6af6a5510210" d="M98.24,134.68a1.09,1.09,0,0,0-.2.44.73.73,0,0,0,.66.7,2,2,0,0,0,1-.26c1-.48,6.45-3.48,4.44-4.87S99,133.51,98.24,134.68Z"/>
        </g>
        <g>
          <path class="fdd296a3-6ddf-44d9-b2a6-ff1a55872854" d="M116.35,131.47a21.16,21.16,0,0,0-6.14-1,7.21,7.21,0,0,0-5.52,2.46,3.32,3.32,0,0,0-.8,1.93,2,2,0,0,0,1,1.79,2.44,2.44,0,0,0,2.52-.46c.71-.55,1.26-1.3,2-1.84,1.76-1.31,4.24-1.21,6.3-.44a46.77,46.77,0,0,1,5.76,3.16c.66.36,1.54.68,2.12.19a1.39,1.39,0,0,0,.43-.87c.24-1.46-.86-2.81-2.09-3.61-2.5-1.61-5.62-1.82-8.59-2"/>
          <path class="aab06c66-2984-489e-979a-6af6a5510210" d="M100.89,136.6a1,1,0,0,0-.19.44.71.71,0,0,0,.66.7,1.87,1.87,0,0,0,1-.26c1-.48,6.46-3.48,4.44-4.87S101.67,135.43,100.89,136.6Z"/>
        </g>
        <g>
          <path class="fdd296a3-6ddf-44d9-b2a6-ff1a55872854" d="M118.66,134.36a21.86,21.86,0,0,0-6.14-1,7.27,7.27,0,0,0-5.53,2.46,3.37,3.37,0,0,0-.79,1.94,1.94,1.94,0,0,0,.94,1.79,2.44,2.44,0,0,0,2.52-.47c.71-.55,1.26-1.29,2-1.83,1.75-1.32,4.23-1.21,6.29-.44a46.22,46.22,0,0,1,5.77,3.15c.66.37,1.53.68,2.11.19a1.46,1.46,0,0,0,.44-.87c.23-1.45-.86-2.8-2.1-3.6-2.5-1.62-5.62-1.82-8.59-2"/>
          <path class="aab06c66-2984-489e-979a-6af6a5510210" d="M103.19,139.5a1.11,1.11,0,0,0-.19.43.71.71,0,0,0,.66.7,1.84,1.84,0,0,0,1-.25c1-.48,6.46-3.48,4.45-4.87S104,138.33,103.19,139.5Z"/>
        </g>
      </g>
      <path class="b2447da1-10f6-4281-9499-d8449817a7a7" d="M240.05,225.77c-23.11,3.31-29.46-13.59-29.54-13.83.06.29,3.93,18.71-4.1,9.71-7-7.79-42.07-47.4-61.84-74.47-3.25-4.45-6.09-8.56-8.31-12.13-14.51-23.29,20.5,3.08,20.5,3.08.76.49,7.06,6,16,13.23,16.87,13.73,43.14,33.93,59.23,39.34,0,0,18.14,13.14,0,11.52C232,202.22,263.33,222.43,240.05,225.77Z"/>
      <path class="f19fa92d-8810-4a44-be73-7b4d22f8e5a0" d="M172.76,151.36,164,149.94c-6.23-1-13-3-19.45-2.76-3.25-4.45-6.09-8.56-8.31-12.13-14.51-23.29,20.5,3.08,20.5,3.08C157.52,138.62,163.82,144.08,172.76,151.36Z"/>
      <path class="b3df244b-b4e6-478d-8782-b7b0401f370e" d="M108.88,60.26l-2,10.26s-1.47-.19-3.81-.69A77.62,77.62,0,0,1,89,65.43c-4.33-1.84-8.5-5.61-9.42-7.62l.45-.19c6.67-2.9,9.8-5.74,10.74-9.31,0-.2,0-.2-.16-.16C92.36,46,94.85,43,96.45,40.89Z"/>
      <path class="e554e767-1687-49c1-ad43-a85ff9cfd759" d="M108.9,60.55l-2,10.27s-10.1,5.35-12.45,4.85c-1-5.12,5-15.46,1.12-19a1.54,1.54,0,0,0-.77-.46,1.64,1.64,0,0,0-1,.32,17.72,17.72,0,0,1-10.8,2,11.77,11.77,0,0,1-3-.64c6.67-2.9,9.8-5.74,10.74-9.31,0-.2,0-.2-.16-.16,1.77-2.13,4.25-5.17,5.86-7.26Z"/>
      <path class="b7df4976-0c11-483c-8a48-9348590afa48" d="M146.86,139.72c0,2.81-14.71,5.68-20.22,2.77s1.5-6.67-2.69-6.11q-1.35.18-2.67.24c-20.64.92-35.07-19.51-36.25-33.2-.08-.9-.35-3.41-.36-6.13V97a47,47,0,0,1,5.62-23,84,84,0,0,1,6.37-10c.92-1.28,1.88-2.57,2.89-3.9-4.79-9.64-1.94-9-5.27-15.06S80.88,29.44,87,25.43c18.49-12.24,42.33,3.71,45,12.67,2.86,9.74,6,30.81,7.78,35.15.87,2.15,20.64,50.93,27.72,59a66.82,66.82,0,0,1,7.73,10.18C183.42,157.25,146.86,135.17,146.86,139.72Z"/>
      <ellipse class="b9b93de5-2dee-46b3-a15f-1a6edfd9571a" cx="104.49" cy="37.01" rx="11.75" ry="13.52"/>
      <g>
        <path class="b4476eca-3f0c-4920-861b-38b276f107d1" d="M109,26.89c-5.23-2.87-11.31-.44-13.6,5.44s.07,13,5.3,15.85,11.27.42,13.58-5.51-.09-12.94-5.28-15.78Z"/>
        <path class="e7ab1385-efb1-4ce8-8bec-dff5b585da8f" d="M103.1,30.59c-3.64.75-5.89,4.73-5,8.9s4.5,6.94,8.14,6.2,5.89-4.73,5-8.9-4.5-6.94-8.14-6.2Z"/>
        <path class="a87f5c51-a123-4045-b4bd-6856fcd1381d" d="M103.72,33.69c-2.13.44-3.46,2.78-3,5.26s2.64,4.08,4.77,3.64a4.27,4.27,0,0,0,3-5.23,4.29,4.29,0,0,0-4.82-3.67Z"/>
        <path class="b4476eca-3f0c-4920-861b-38b276f107d1" d="M100.78,38.93a1.59,1.59,0,0,0-1.14,2,1.63,1.63,0,0,0,1.83,1.39,1.61,1.61,0,0,0,1.09-2,1.58,1.58,0,0,0-1.78-1.36Z"/>
      </g>
      <path class="ea0f1e19-01a2-488c-a5e9-f725afda4ec5" d="M134.58,63.07c-6.41-5.5-35.37,13.14-16.87,45.37,4.17,7.26,4.76,10.43,5.81,7.34a21.51,21.51,0,0,0,.81-6.83s.65,12.7,6.17,13.84,3.51-8.35,3.51-8.35,2.19,13.56,9.35,14.7,3.51-8.36,3.51-8.36,3.08,15.35,10.71,18.56,2.16-9.64,2.16-9.64,5.34,10,10,10.54-6.65-14.48-16.31-28.75C135.63,85.18,136.8,73,129.94,67.74Z"/>
      <path class="bfb512af-8260-4539-805c-4747d7b75f51" d="M122.63,45.76a54.75,54.75,0,0,1-8.53,5.56,18.26,18.26,0,0,1-9.86,2c-2.07-.23-8.08-.72-8-3.68.09-2.68,5-4,7-4.67a28.53,28.53,0,0,1,9.84-1.38,27.52,27.52,0,0,1,4.86.63C118.53,44.37,122.4,45.93,122.63,45.76Z"/>
      <path class="b3df244b-b4e6-478d-8782-b7b0401f370e" d="M93.15,51.47c-3.4,1.42-3.15,1.11-10.89,3.4-6.37,1.9-5.79,10.9-8.67,10.21L73.31,65a6.57,6.57,0,0,1-1.41-1.92,27.48,27.48,0,0,1-3.6-9.59,26.43,26.43,0,0,1-.16-3c0-8.66,4.55-15.69,13.7-20,1-.46,2-.89,3.06-1.28l.38.55c.35.52.7,1,1,1.58a78.09,78.09,0,0,1,4,6.88C91.63,40.8,94,44.2,97,44.46,107.32,45.31,95.73,50.4,93.15,51.47Z"/>
      <path class="acc86661-becf-4b1f-ab38-bce03525b03f" d="M136,63.55C130,58,102.82,74.13,119.07,108c3.66,7.63,6.78,11.32,8,7.92a26.58,26.58,0,0,0,1.17-7.44s-.06,13.71,5.25,14.64,3.88-9.24,3.88-9.24,1.39,14.56,8.3,15.4,3.89-9.24,3.89-9.24,2.15,16.45,9.41,19.5S161.58,129,161.58,129s4.65,10.52,9.17,10.86-5.68-15.31-14.31-30.22C140.54,82.12,142.36,68.91,136,63.55Z"/>
      <g>
        <g>
          <path class="e89be082-b302-4546-824e-ba43eb2f1bb1" d="M121.35,138a21.31,21.31,0,0,0-6.2-.56,7.23,7.23,0,0,0-5.34,2.85,3.36,3.36,0,0,0-.65,2,1.94,1.94,0,0,0,1.07,1.71,2.42,2.42,0,0,0,2.48-.64c.67-.6,1.17-1.38,1.85-2,1.66-1.44,4.14-1.52,6.24-.9a44.75,44.75,0,0,1,6,2.74c.69.31,1.59.56,2.13,0a1.46,1.46,0,0,0,.37-.9c.13-1.46-1.06-2.73-2.35-3.44-2.61-1.43-5.74-1.41-8.71-1.36"/>
          <path class="aab06c66-2984-489e-979a-6af6a5510210" d="M106.29,144.28a1.06,1.06,0,0,0-.16.45.72.72,0,0,0,.71.65,1.84,1.84,0,0,0,1-.33c1-.55,6.19-3.94,4.08-5.18S107,143.06,106.29,144.28Z"/>
        </g>
        <g>
          <path class="fdd296a3-6ddf-44d9-b2a6-ff1a55872854" d="M124.13,139.77a21.64,21.64,0,0,0-6.2-.57,7.26,7.26,0,0,0-5.33,2.86,3.34,3.34,0,0,0-.65,2,2,2,0,0,0,1.07,1.71,2.42,2.42,0,0,0,2.47-.64c.68-.6,1.17-1.38,1.85-2,1.66-1.44,4.14-1.51,6.25-.89a46.6,46.6,0,0,1,6,2.73c.68.32,1.58.57,2.12,0a1.41,1.41,0,0,0,.38-.9c.13-1.47-1.07-2.74-2.36-3.44-2.6-1.44-5.73-1.42-8.71-1.36"/>
          <path class="aab06c66-2984-489e-979a-6af6a5510210" d="M109.08,146a.94.94,0,0,0-.16.45c0,.35.35.63.71.65a2,2,0,0,0,1-.33c1-.55,6.18-3.94,4.08-5.18S109.77,144.78,109.08,146Z"/>
        </g>
        <g>
          <path class="fdd296a3-6ddf-44d9-b2a6-ff1a55872854" d="M126.64,142.49a21.67,21.67,0,0,0-6.2-.57,7.29,7.29,0,0,0-5.34,2.86,3.43,3.43,0,0,0-.65,2,1.94,1.94,0,0,0,1.07,1.71,2.42,2.42,0,0,0,2.48-.64c.67-.6,1.17-1.38,1.85-2,1.66-1.44,4.14-1.51,6.25-.89a46.47,46.47,0,0,1,6,2.73c.69.32,1.59.57,2.13,0a1.4,1.4,0,0,0,.37-.9c.13-1.47-1.06-2.73-2.35-3.44-2.61-1.43-5.74-1.41-8.71-1.36"/>
          <path class="aab06c66-2984-489e-979a-6af6a5510210" d="M111.58,148.73a1.21,1.21,0,0,0-.16.45.73.73,0,0,0,.71.65,2,2,0,0,0,1-.33c1-.55,6.19-3.94,4.08-5.18S112.28,147.5,111.58,148.73Z"/>
        </g>
      </g>
      <ellipse class="a0a93395-9755-4690-be1a-6dc883f7a369" cx="82.88" cy="37.53" rx="1.85" ry="0.95" transform="translate(-8.08 35.48) rotate(-23.07)"/>
      <path class="a9494b3c-fed7-4e80-8e79-aa613bfe0e54" d="M135,52.28a15.82,15.82,0,0,1-2.14,5.52,12.89,12.89,0,0,1-.83,1.25c-.29.4-.57.83-.89,1.22s-.65.77-1,1.14a9.1,9.1,0,0,1-1.06,1.09,27.34,27.34,0,0,1-10.45,6.09l-2.94.74a9.39,9.39,0,0,1-1.48.27l-1.49.19a35,35,0,0,1-6,.19,56.69,56.69,0,0,1-5.85-.76c-1.9-.5-3.78-1-5.61-1.71,2-.2,3.88-.2,5.78-.25l2.82-.21c.94-.09,1.87,0,2.79-.22,1.84-.26,3.68-.37,5.46-.79s3.53-.82,5.28-1.26a37,37,0,0,0,9.65-4.69c.79-.47,1.43-1.11,2.18-1.64s1.4-1.19,2-1.85A28.13,28.13,0,0,0,135,52.28Z"/>
      <path class="fd6cf261-f1d9-4e0a-811c-7095816153bc" d="M122,135.82c-20.63.93-34.8-18.71-36-32.4-.08-.9-.35-3.41-.36-6.13V97A46.92,46.92,0,0,1,91.3,74c4.68-1.41,12,2.22,11,12-1.36,13.6,1.65,39.48,17.42,49.18C120.72,135.73,121.33,135.35,122,135.82Z"/>
      <polygon class="ea0f1e19-01a2-488c-a5e9-f725afda4ec5" points="149.09 141.86 231.99 202.22 148.44 145.24 149.09 141.86"/>
      <polygon class="ea0f1e19-01a2-488c-a5e9-f725afda4ec5" points="149.09 144.25 210.51 211.94 144.57 147.18 149.09 144.25"/>
      <path class="a4ea2c88-6775-451b-b21c-d51a139e3e8b" d="M70.71,49.37c-.74,7.94,1.29,12.24,3,15a11.33,11.33,0,0,1-1.67-2.23,23.42,23.42,0,0,1-2.94-8.9,23.06,23.06,0,0,1,0-2.75c0-8.66,4.09-15,13.23-19.32a20.06,20.06,0,0,1,2.19-1s.62.86,1,1.39C80.58,33.58,71.7,38.83,70.71,49.37Z"/>
      <path class="bc4ebeff-4215-4e1f-ac94-cb7473439af3" d="M118,147.84s53,52.47,128.16,17.06l2.5-11.66s-55.79,31.67-116.59-5.54C132.07,147.7,122.84,137.68,118,147.84Z"/>
      <polyline class="bc4ebeff-4215-4e1f-ac94-cb7473439af3" points="76.11 110.29 57.46 66.33 11.15 23.49 55.2 67.31 71.39 109.09"/>
      <path class="bc4ebeff-4215-4e1f-ac94-cb7473439af3" d="M39.13,49.37S52.8,25.86,43.63,11c0,0,6,15.66-6.92,36.17l2.57,4.34"/>
    </g>
  </g>
</svg>
