<svg id="ba258fa2-2fe5-4768-b5dd-2631c076f79e" data-name="Layer 1" xmlns="http://www.w3.org/2000/svg" width="257" height="293.1" viewBox="0 0 257 293.1">
  <defs>
    <style>
      .b08cb1ed-aacb-48f2-87bb-1bfb1cc8c3ce {
        opacity: 0.5;
      }

      .a60b7ff8-e358-4423-97af-ba09f050859a {
        fill: #fff;
      }

      .a3ab07ec-15b0-4703-8e33-431f051e5e84, .b734db4f-b05d-4825-88c1-a6e7ddf1faa7, .bbc5af43-70ff-4950-a69b-342c864a9eed, .bc5de270-5d9c-48d7-a3dd-3b832a3270f8, .bca28ac5-d95d-4d1d-8f25-a8256bfb82bb, .fcf2f7b2-f009-41ca-ae94-54078f30c451 {
        fill: #ecb88d;
      }

      .a3ab07ec-15b0-4703-8e33-431f051e5e84, .a5d9bf98-2ce0-4395-8ff1-5f0d3708c6cf, .a89f6a43-e320-4109-b412-b5ed01e07c69, .ac4eb144-ebba-4828-ba5d-2686a8a09004, .b121bacb-40af-4bc2-b7cd-42a7fb0028d8, .b734db4f-b05d-4825-88c1-a6e7ddf1faa7, .b8584791-f065-432a-952e-54b403e77846, .bc5de270-5d9c-48d7-a3dd-3b832a3270f8, .bca28ac5-d95d-4d1d-8f25-a8256bfb82bb, .e9299308-2d06-4b7f-8478-0db1428c925f, .ee5e8f91-16be-4200-b6ec-4b43d994734b, .fb9cb8df-7d0d-4346-80d2-f28b469562fe, .fcf2f7b2-f009-41ca-ae94-54078f30c451 {
        stroke: #000;
        stroke-miterlimit: 10;
      }

      .bca28ac5-d95d-4d1d-8f25-a8256bfb82bb {
        stroke-width: 0.94px;
      }

      .a5d9bf98-2ce0-4395-8ff1-5f0d3708c6cf, .a89f6a43-e320-4109-b412-b5ed01e07c69, .ac4eb144-ebba-4828-ba5d-2686a8a09004, .b734db4f-b05d-4825-88c1-a6e7ddf1faa7, .b8584791-f065-432a-952e-54b403e77846 {
        stroke-width: 1.07px;
      }

      .a5d9bf98-2ce0-4395-8ff1-5f0d3708c6cf {
        fill: #d5a47d;
      }

      .a89f6a43-e320-4109-b412-b5ed01e07c69 {
        fill: #942812;
      }

      .fb9cb8df-7d0d-4346-80d2-f28b469562fe {
        fill: none;
        stroke-width: 1.6px;
      }

      .ac4eb144-ebba-4828-ba5d-2686a8a09004 {
        fill: #8f2c10;
      }

      .b8584791-f065-432a-952e-54b403e77846 {
        fill: #eebd8c;
      }

      .e9299308-2d06-4b7f-8478-0db1428c925f {
        fill: #edf2ee;
      }

      .b121bacb-40af-4bc2-b7cd-42a7fb0028d8, .e9299308-2d06-4b7f-8478-0db1428c925f, .ee5e8f91-16be-4200-b6ec-4b43d994734b {
        stroke-width: 0.53px;
      }

      .ee5e8f91-16be-4200-b6ec-4b43d994734b {
        fill: #386681;
      }

      .b121bacb-40af-4bc2-b7cd-42a7fb0028d8 {
        fill: #000310;
      }

      .bc5de270-5d9c-48d7-a3dd-3b832a3270f8 {
        stroke-width: 1.54px;
      }

      .a3ab07ec-15b0-4703-8e33-431f051e5e84 {
        stroke-width: 1.44px;
      }

      .fcf2f7b2-f009-41ca-ae94-54078f30c451 {
        stroke-width: 1.29px;
      }

      .ffec3832-a2cb-4cab-a554-a706b98e9466 {
        fill: #95614d;
      }

      .e50e5f6d-ce0b-4246-8050-0fff9ceac9ef {
        fill: #618d2c;
      }

      .b0a542bc-d30a-46bd-a7a1-bf740f4b2731 {
        fill: #aece37;
      }
    </style>
  </defs>
  <g>
    <path class="b08cb1ed-aacb-48f2-87bb-1bfb1cc8c3ce" d="M251.11,106.14a9.83,9.83,0,0,0-7.22-3.21h-.4l-3.24.14a19.57,19.57,0,0,1-3-.46c-2.2-.43-4.91-.93-9.15-1.52a110.35,110.35,0,0,1-18.31-4.28l-.92-.29c-6.93-2.1-23.9-7-31.71-7a18.82,18.82,0,0,0-1.93.09c-1.44.11-2.84.17-4.16.17a30.57,30.57,0,0,1-7.9-.9,45,45,0,0,1-4.4-1.87,62.21,62.21,0,0,0-9.16-3.64c-.43-.12-.88-.23-1.36-.34a13.32,13.32,0,0,0-1.54-3.26,11.5,11.5,0,0,0-8.58-5.17c-.29-.18-.58-.34-.86-.48a11.94,11.94,0,0,0-5-1.27,12.53,12.53,0,0,0-5.9-1.4,12.28,12.28,0,0,0-2.21.19,11.41,11.41,0,0,0,1.37-5.14,10.81,10.81,0,0,0-.38-3,9.21,9.21,0,0,0-.48-2.31,11.12,11.12,0,0,0-.41-2.75,11.39,11.39,0,0,0-7-7.3c-.15-.32-.32-.63-.49-.94a10.83,10.83,0,0,0-8-5.3c-.09-.11-.19-.21-.29-.32a12.07,12.07,0,0,0-3.86-2.74,10.29,10.29,0,0,0-1.5-1.93,11.54,11.54,0,0,0,.49-9.37,10.87,10.87,0,0,0-2.94-4.21s0-.09,0-.14a10.21,10.21,0,0,0-3.06-4.92,10.2,10.2,0,0,0-1.47-3.56,10.7,10.7,0,0,0-2.52-2.67,10.85,10.85,0,0,0-6.68-3.62A8.91,8.91,0,0,0,84.67,11a10.45,10.45,0,0,0-4-.82,11.42,11.42,0,0,0-8.19,3.59,11.06,11.06,0,0,0-3.06.48A22.74,22.74,0,0,0,65,10.37a9.88,9.88,0,0,0-5.6-1.74A9.75,9.75,0,0,0,51,13.15a12.56,12.56,0,0,0-2.57-.28,10.57,10.57,0,0,0-8.19,3.76,10.17,10.17,0,0,0-1.56,2.57,10.41,10.41,0,0,0-1.54.54,10.7,10.7,0,0,0-2.1-.2,9.6,9.6,0,0,0-1.7.15,10.37,10.37,0,0,0-7.76,5.85,11.77,11.77,0,0,0-.76,8,19.49,19.49,0,0,0-.93,7A10.6,10.6,0,0,0,22.16,42,21.92,21.92,0,0,0,14,45.08a9.82,9.82,0,0,0-4.09,5A9.75,9.75,0,0,0,9.83,60.8a10.75,10.75,0,0,0-1.11,6c.38,3.62,2.91,8,9,9.39l.16,0a13.55,13.55,0,0,0,2.26,1.93c.31.2.62.39.95.56a11.61,11.61,0,0,0,2.54.95l.15.65c.28,1.26.55,2.45.7,3.54a10.45,10.45,0,0,0,2.43,5.56,10,10,0,0,0-.24,3.19,10.41,10.41,0,0,0,.39,2,11.93,11.93,0,0,0-.29,7.76,13.25,13.25,0,0,0,.75,8.05,9.74,9.74,0,0,0,8.86,5.65,11.39,11.39,0,0,0,8-3.66,11.27,11.27,0,0,0,8.17-3.78A13.24,13.24,0,0,0,54.89,105a12.36,12.36,0,0,0,7.53-8,11.62,11.62,0,0,0,.13-5.91A11.37,11.37,0,0,0,68.81,93a12.47,12.47,0,0,0,2.57-.27,9.88,9.88,0,0,0,3,1.48,206.41,206.41,0,0,0,23.46,12.2c4.41,2,11.33,4.54,18.83,7a14.3,14.3,0,0,1,3.25,5.92,7.88,7.88,0,0,0-1.06-.28,21.25,21.25,0,0,0-11.46-6l-.16,1.15A20.57,20.57,0,0,0,96.87,111a14.79,14.79,0,0,0-4.65.74,9.07,9.07,0,0,0-1.62.72c-1.37-.16-2.83-.28-4.33-.33a9,9,0,0,0-2.84-1.85,9.22,9.22,0,0,0-10,2,34.59,34.59,0,0,0-5.6,7.64,15.36,15.36,0,0,0-5.67,5.73,14.8,14.8,0,0,0-5.38,5.62,24.83,24.83,0,0,0-3.65,9.87,8.86,8.86,0,0,0-1,1.76c-.82,1.83-1.5,7-.62,12.84a15.35,15.35,0,0,0-7.36,6.56,17.12,17.12,0,0,0-1,15.68,13.06,13.06,0,0,0-1.41-.3,12.47,12.47,0,0,0-2-.16,11.49,11.49,0,0,0-2.64.3,19.26,19.26,0,0,0-6.1-1c-8.88,0-15.58,5.51-15.58,12.81a11.9,11.9,0,0,0,.07,1.34,12.06,12.06,0,0,0-.78,4.27,11.82,11.82,0,0,0,.34,2.85,11.6,11.6,0,0,0-.34,2.83c0,7,5.94,12.52,14.23,13.44,4.75,1.06,11.07,2.25,15.4,2.25h.4a11.33,11.33,0,0,0,1.43.12c.83,0,3.66.11,7.22.24,7.28.25,17.25.6,20.68.6s8.26-1.25,12.62-2.68c.09.85.2,1.74.33,2.69-7.14,2.94-13.55,7.62-14.47,15a9.36,9.36,0,0,0,.11,2.94c.69,3.44,3,7.48,6.81,13.4-7.18,2.26-10.67,7.47-11.73,12.29a16.36,16.36,0,0,0-2,7.17,9.63,9.63,0,0,0,2.92,7,12.35,12.35,0,0,0,2.33,4.43,13.61,13.61,0,0,0,10.46,4.86,10.62,10.62,0,0,0,7.6-3l.34-.35a16,16,0,0,0,4.52-.82c4.73-1.57,12-7.08,16.12-12.28a16.87,16.87,0,0,0,3.75-9.53,9.5,9.5,0,0,0,.8-3.82c0-2.66-1-4.76-3-7.31,2-.1,3.89-.24,5.54-.41a22.9,22.9,0,0,0,4.07.35,27.94,27.94,0,0,0,9.77-1.86l-1.37,1.64a9.2,9.2,0,0,0-2.06,7.05c-.34.61-.61,1.13-.79,1.49l-.15.3c-1.54,3-6.2,12.05-1.2,20.39a12.09,12.09,0,0,0,8.28,6A15.26,15.26,0,0,0,135,285a12.07,12.07,0,0,0,9.76,5.26,11,11,0,0,0,3.93-.71c.34,0,.67,0,1,0,4.68,0,8.92-2.6,11.64-7.12a9.2,9.2,0,0,0,1.16-3.08,12.65,12.65,0,0,0,1.82-3.68c.61-1.95,2.38-7.66-4.21-20.07v-1.72l1.32-1.83c5-6.86,8.83-12.57,8.83-18.32,0-6.67-5.49-12.72-16.32-21.72-2-13.93-13.72-28.87-18.34-34.27,12.07-15.46,17.27-37.29,17.51-38.31a9.2,9.2,0,0,0-.78-6.31,36.93,36.93,0,0,0,.18-6.87v-.15a9.17,9.17,0,0,0-1.32-4.52c.9.31,1.8.65,2.69,1a88.58,88.58,0,0,0,14.68,4.91l.11,0a61.78,61.78,0,0,1,5.95,1.76,97.71,97.71,0,0,0,9.36,3c3,.84,7.4,2.1,13.94,4.19a129,129,0,0,0,42.77,8.6h.52a9.22,9.22,0,0,0,6.67-3.06l.06-.08c3.82-4.24,5.77-12.44,6.28-18.16v-.15C254.94,114,254.12,109.4,251.11,106.14Z"/>
    <path class="a60b7ff8-e358-4423-97af-ba09f050859a" d="M245.36,100.39a9.83,9.83,0,0,0-7.22-3.21h-.4l-3.24.14a19.57,19.57,0,0,1-3-.46c-2.2-.43-4.91-.93-9.15-1.52a110.35,110.35,0,0,1-18.31-4.28l-.92-.29c-6.93-2.1-23.9-7-31.71-7a16.22,16.22,0,0,0-1.93.1c-1.45.11-2.84.17-4.16.17a30.57,30.57,0,0,1-7.9-.9,46.05,46.05,0,0,1-4.41-1.87,61.64,61.64,0,0,0-9.15-3.64c-.43-.12-.88-.23-1.36-.34A13.32,13.32,0,0,0,141,74.06a11.5,11.5,0,0,0-8.58-5.17c-.29-.18-.58-.34-.86-.48a11.94,11.94,0,0,0-5-1.27,12.53,12.53,0,0,0-5.9-1.4,12.28,12.28,0,0,0-2.21.19,11.41,11.41,0,0,0,1.37-5.14,10.76,10.76,0,0,0-.38-3A9.38,9.38,0,0,0,119,55.5a11.1,11.1,0,0,0-.41-2.74,11.39,11.39,0,0,0-7-7.3c-.15-.32-.32-.63-.49-.94a10.83,10.83,0,0,0-8-5.3c-.09-.11-.19-.21-.29-.32a12.07,12.07,0,0,0-3.86-2.74,10.29,10.29,0,0,0-1.5-1.93,11.54,11.54,0,0,0,.49-9.37,10.87,10.87,0,0,0-2.94-4.21s0-.1,0-.14a10.15,10.15,0,0,0-3.07-4.92A10,10,0,0,0,90.3,12a10.7,10.7,0,0,0-2.52-2.67A10.91,10.91,0,0,0,81.1,5.73a9.39,9.39,0,0,0-2.18-.45,10.45,10.45,0,0,0-4-.82,11.42,11.42,0,0,0-8.19,3.59,11.06,11.06,0,0,0-3.06.48,22.74,22.74,0,0,0-4.4-3.91,9.88,9.88,0,0,0-5.6-1.74A9.75,9.75,0,0,0,45.25,7.4a12.56,12.56,0,0,0-2.57-.28,10.57,10.57,0,0,0-8.19,3.76,10.17,10.17,0,0,0-1.56,2.57,10.41,10.41,0,0,0-1.54.54,10.7,10.7,0,0,0-2.1-.2,9.6,9.6,0,0,0-1.7.15,10.37,10.37,0,0,0-7.76,5.85,11.77,11.77,0,0,0-.76,8,19.27,19.27,0,0,0-.93,7,10.6,10.6,0,0,0-1.73,1.55,21.92,21.92,0,0,0-8.13,3.07,9.82,9.82,0,0,0-4.09,5,9.75,9.75,0,0,0-.11,10.72A10.67,10.67,0,0,0,3,61c.38,3.62,2.91,8,9,9.39l.16,0a13.55,13.55,0,0,0,2.26,1.93c.31.2.62.39,1,.56a11.61,11.61,0,0,0,2.54.95l.15.65c.28,1.26.55,2.45.7,3.54a10.45,10.45,0,0,0,2.43,5.56,10.29,10.29,0,0,0-.25,3.19,10.66,10.66,0,0,0,.4,2A11.93,11.93,0,0,0,21,96.6a13.26,13.26,0,0,0,.75,8.05,9.74,9.74,0,0,0,8.86,5.65,11.39,11.39,0,0,0,8.05-3.66,11.27,11.27,0,0,0,8.17-3.78,13.24,13.24,0,0,0,2.33-3.58,12.36,12.36,0,0,0,7.53-8,11.58,11.58,0,0,0,.13-5.9,11.37,11.37,0,0,0,6.26,1.84A12.47,12.47,0,0,0,65.63,87a9.88,9.88,0,0,0,3,1.48,206.41,206.41,0,0,0,23.46,12.2c4.41,2,11.33,4.54,18.83,7a14.3,14.3,0,0,1,3.25,5.92,7.88,7.88,0,0,0-1.06-.28,21.29,21.29,0,0,0-11.46-6l-.16,1.15a20.57,20.57,0,0,0-10.39-3.2,14.75,14.75,0,0,0-4.65.74,9.07,9.07,0,0,0-1.62.72c-1.37-.16-2.83-.28-4.33-.33a9.11,9.11,0,0,0-2.84-1.85,9.22,9.22,0,0,0-10,2,34.59,34.59,0,0,0-5.6,7.64,15.41,15.41,0,0,0-5.67,5.72A14.89,14.89,0,0,0,51,125.47a24.83,24.83,0,0,0-3.65,9.87,8.86,8.86,0,0,0-1,1.76c-.82,1.83-1.5,7-.62,12.84a15.35,15.35,0,0,0-7.36,6.56,17.09,17.09,0,0,0-1,15.68,13.06,13.06,0,0,0-1.41-.3,12.47,12.47,0,0,0-2-.16,11.49,11.49,0,0,0-2.64.3,19.26,19.26,0,0,0-6.1-1c-8.88,0-15.58,5.51-15.58,12.81a11.9,11.9,0,0,0,.07,1.34,12.06,12.06,0,0,0-.78,4.27,11.82,11.82,0,0,0,.34,2.85,11.6,11.6,0,0,0-.34,2.83c0,7,5.94,12.52,14.23,13.44,4.75,1.06,11.07,2.25,15.4,2.25h.4a11.33,11.33,0,0,0,1.43.12c.83,0,3.66.11,7.22.24,7.28.25,17.25.6,20.68.6s8.26-1.25,12.62-2.68c.09.85.2,1.74.33,2.69-7.14,2.94-13.55,7.61-14.47,15a9.36,9.36,0,0,0,.11,2.94c.69,3.44,3,7.48,6.81,13.4-7.19,2.26-10.67,7.47-11.73,12.29a16.36,16.36,0,0,0-2,7.17,9.63,9.63,0,0,0,2.92,7A12.35,12.35,0,0,0,65.14,274,13.64,13.64,0,0,0,75.6,278.9a10.62,10.62,0,0,0,7.6-3l.34-.35a16,16,0,0,0,4.52-.82c4.73-1.57,12-7.08,16.11-12.28a16.81,16.81,0,0,0,3.76-9.53,9.5,9.5,0,0,0,.8-3.82c0-2.66-1-4.76-3-7.31,2-.1,3.89-.24,5.54-.41a22.9,22.9,0,0,0,4.07.35,27.94,27.94,0,0,0,9.77-1.86l-1.37,1.64a9.2,9.2,0,0,0-2.06,7.05c-.34.61-.61,1.13-.79,1.49l-.15.3c-1.54,3-6.2,12.05-1.2,20.39a12.09,12.09,0,0,0,8.28,6,15.26,15.26,0,0,0,1.45,2.48,12.07,12.07,0,0,0,9.76,5.26,11,11,0,0,0,3.93-.71c.34,0,.67,0,1,0,4.68,0,8.92-2.6,11.64-7.12a9.2,9.2,0,0,0,1.16-3.08,12.58,12.58,0,0,0,1.82-3.69c.61-1.94,2.38-7.65-4.21-20.06v-1.72l1.32-1.83c5-6.86,8.83-12.57,8.83-18.32,0-6.67-5.49-12.72-16.32-21.72-2-13.93-13.72-28.87-18.34-34.27,12.07-15.46,17.27-37.29,17.51-38.31a9.2,9.2,0,0,0-.78-6.31,37,37,0,0,0,.18-6.88v-.14a9.17,9.17,0,0,0-1.32-4.52c.9.31,1.8.65,2.69,1a88.58,88.58,0,0,0,14.68,4.91l.11,0a61.78,61.78,0,0,1,5.95,1.76,97.71,97.71,0,0,0,9.36,3c3,.84,7.4,2.1,13.94,4.19a129,129,0,0,0,42.77,8.6h.52a9.22,9.22,0,0,0,6.67-3.06l.06-.08c3.82-4.24,5.77-12.44,6.28-18.16v-.15C249.19,108.24,248.37,103.65,245.36,100.39Z"/>
    <g>
      <g>
        <path class="bca28ac5-d95d-4d1d-8f25-a8256bfb82bb" d="M23,199.15s12.79,3.11,17.05,2.4,5.67-2.13,5.67-2.13l-1.42-8.51-2.54-3-8.1-3.35h-5"/>
        <path class="b734db4f-b05d-4825-88c1-a6e7ddf1faa7" d="M110.52,90.16c.84,3.38,4.22,6.76,5.28,8,2.24,1,5.71,3,5.71,3s.84-7.61,1.69-6.76,0,3.38.85,4.22,3.38-5.07,5.07-4.22a.91.91,0,0,1,.42.36A3.84,3.84,0,0,0,131.76,91h-.11c-2.25,0-3.17-2.67-3.34-3.85a2.81,2.81,0,0,1-3.42,1.32c-2.54-.85-1.69-5.92-2-6a6.87,6.87,0,0,0,1.16-3.25,1,1,0,0,0-.42-.9,1,1,0,0,0-.26-.12c-1.26-.45-4.05.64-6.06.94a5.52,5.52,0,0,1-.87.08C113.9,79.17,109.67,86.78,110.52,90.16Z"/>
        <path class="b734db4f-b05d-4825-88c1-a6e7ddf1faa7" d="M123.2,93.54c2.54-6.76-4.23-7.61-4.23-7.61,1.06,0,2.78-1.65,3.92-3.51"/>
        <path class="b734db4f-b05d-4825-88c1-a6e7ddf1faa7" d="M117.31,79.09c2-.3,4.8-1.39,6.06-.94.36-1.57-.35-3.21-2.71-3.21C118,74.94,117.43,77.57,117.31,79.09Z"/>
        <path class="bbc5af43-70ff-4950-a69b-342c864a9eed" d="M128.31,87.15a2,2,0,0,1,0-.37"/>
        <path class="bbc5af43-70ff-4950-a69b-342c864a9eed" d="M69.09,162.87a23.26,23.26,0,0,0,7.61.85S71,176.67,83.47,182h0l.83.33a24,24,0,0,0,4,.37,33.78,33.78,0,0,0,20.54-7.13,25.06,25.06,0,0,0,1.92-2.88c2.61-4.51,6.19-13.53-1.08-20.8,0,0,8.46-15.22-6.76-25.36-10.15-4.23-18.6,6.76-18.6,11.83,0,0-15.22-5.92-19.45,4.23C60.63,151.88,65.7,162,69.09,162.87Zm17.85-3.4c1.29-9,10-5.05,10-5.05-1.91,1-3.72,3-3.58,7.25C91,159.22,88.81,159,86.94,159.47Z"/>
        <path class="a5d9bf98-2ce0-4395-8ff1-5f0d3708c6cf" d="M86.94,159.47c1.87-.5,4.09-.25,6.47,2.2-.14-4.26,1.67-6.3,3.58-7.25C97,154.42,88.23,150.43,86.94,159.47Z"/>
        <path class="a89f6a43-e320-4109-b412-b5ed01e07c69" d="M59.42,159.36A15.08,15.08,0,0,0,64,162.87a27.18,27.18,0,0,0-.85,2.66c-.09.34-.18.72-.26,1.1-.53,2.47-.74,5.52.86,7l.29-.34c.06-1,.26-2.82.81-2.82a10.74,10.74,0,0,0,.13,1.45c.32,2,1.37,5.57,4.94,6.16v-2.53s2.54,5.91,5.08,5.91c0,0-.85-2.53,0-3.38,0,0,1.37,4.81,8.46,3.9C71,176.67,76.7,163.72,76.7,163.72a23.26,23.26,0,0,1-7.61-.85c-3.39-.84-8.46-11-4.23-20.29,4.23-10.15,19.45-4.23,19.45-4.23,0-5.07,8.45-16.06,18.6-11.83,15.22,10.14,6.76,25.36,6.76,25.36,7.27,7.27,3.69,16.29,1.08,20.8,2.7-1.59,6.62-5.22,8.22-13.19,0,0,2.52-.84,2.54,0,0-.7-.12-5.18-.85-5.91a2.6,2.6,0,0,1,1.69.85s.85-5.08-1.69-6.77a8.54,8.54,0,0,1,2.54-.84l-.25-.32c-.67-.86-2.61-3.23-4-3.91,0,0,0-.12,0-.34h0a46.27,46.27,0,0,0-1.24-9.53c-1-4.17-2.92-8.49-6.35-10.4.06.12.8,1.71,0,2.52-.84,0-5.07-7.61-11-8.45,0,0,1.69,2.54.85,3.38,0,0-6.77-6.76-11.84-5.07,0,0,1.69,1.69,1.69,2.53a49.51,49.51,0,0,0-11.84-1.69c-5.07,0-5.07-2.53-5.07-2.53s-5.07,5.07-5.92,11c0,0-1.69-.85-1.69-1.69s-4.23,3.38-4.23,8.45c0,0-2.53-.84-1.69-2.53s-6.76,6.76-3.38,13.52c-.85,0-2.54,0-2.54-.84S52.91,152.07,59.42,159.36Z"/>
        <path class="fb9cb8df-7d0d-4346-80d2-f28b469562fe" d="M63.76,173.64a1.27,1.27,0,0,0,.25.22c0,.3,0,0,0-.56"/>
        <path class="fb9cb8df-7d0d-4346-80d2-f28b469562fe" d="M111.37,122.3h0"/>
        <path class="fb9cb8df-7d0d-4346-80d2-f28b469562fe" d="M121.51,159.48v.09"/>
        <path class="fb9cb8df-7d0d-4346-80d2-f28b469562fe" d="M108.83,157.8S103.75,178.94,82.61,173"/>
        <path class="fb9cb8df-7d0d-4346-80d2-f28b469562fe" d="M102.91,173.86S99.53,176.4,97,176.4"/>
        <path class="fb9cb8df-7d0d-4346-80d2-f28b469562fe" d="M97,154.42a8.74,8.74,0,0,1,4.23-.85"/>
        <path class="fb9cb8df-7d0d-4346-80d2-f28b469562fe" d="M86.94,159.47c-2.42.65-4.27,2.56-5.17,2.56"/>
        <path class="b734db4f-b05d-4825-88c1-a6e7ddf1faa7" d="M117.72,132.7a46.27,46.27,0,0,1,1.24,9.53h0c0,.22,0,.34,0,.34,1.37.68,3.31,3,4,3.91,12,1.82,11.15-13.45,9.55-17.44a7.5,7.5,0,0,0-8.28-1.59A17.37,17.37,0,0,0,117.72,132.7Z"/>
        <path class="fb9cb8df-7d0d-4346-80d2-f28b469562fe" d="M130.81,138.35s-.85-10.14-6.76-5.07a17.84,17.84,0,0,0-2.93,4,31.81,31.81,0,0,0-2.16,4.92"/>
        <path class="fb9cb8df-7d0d-4346-80d2-f28b469562fe" d="M125.74,140s-1.69-5.92-5.92-1.69"/>
        <path class="b734db4f-b05d-4825-88c1-a6e7ddf1faa7" d="M54.71,176.4c3.27,0,6.56,0,9-2.76-1.6-1.49-1.39-4.54-.86-7-.26-.27-.56-.58-.9-.9l1.16-.2a27.18,27.18,0,0,1,.85-2.66,15.08,15.08,0,0,1-4.59-3.51c-4.08-1.64-10.41-3.13-13.16,1.82C42,168,50.49,176.4,54.71,176.4Z"/>
        <path class="fb9cb8df-7d0d-4346-80d2-f28b469562fe" d="M50.49,164.56c4-4.6,8.86-1.36,11.51,1.17"/>
        <path class="fb9cb8df-7d0d-4346-80d2-f28b469562fe" d="M56.4,168.79c0-1.68,3.35-2.62,5.6-3.06"/>
        <path class="ac4eb144-ebba-4828-ba5d-2686a8a09004" d="M40.34,201.77h.11c2.34,0,22.81.84,27.79.84s17.76-5.07,19.45-5.92,3.38,0,2.53,1.69-.84,7.61.85,16.91a16.92,16.92,0,0,0,.74,2.76c2.68,7.44,10.29,11.74,19.91,14h0l.48.11c5.48,1.27,11.8-1,17-5.14s9.24-10.06,10.08-16a2.09,2.09,0,0,0,0-.25c.64-12.68-15.24-31.9-17.76-34.42a9.15,9.15,0,0,1-2.54-5.92c13.53-13.53,19.45-38.89,19.45-38.89L135,133.28c3.38-5.07,2.53-11.84,2.53-12.68,0,1.69-1.69,3.38-1.69,2.53.85-.84,0-10.14,0-10.14-.74,2.21-2.13,1.85-2.46,2.29,2.32-7.49-4.31-13.31-5.15-15.82-.73-2.22,1.74-3.78,1.27-4.71a.91.91,0,0,0-.42-.36c-1.69-.85-4.23,5.07-5.07,4.22s0-3.38-.85-4.22-1.69,6.76-1.69,6.76-3.47-2-5.71-3c-1.9-.87-2.92-1-.21,1.3,10,7.88,9.13,23,8.63,28a7.5,7.5,0,0,1,8.28,1.59c1.6,4,2.44,19.26-9.55,17.44l.25.32a8.54,8.54,0,0,0-2.54.84c2.54,1.69,1.69,6.77,1.69,6.77a2.6,2.6,0,0,0-1.69-.85c.73.73.83,5.21.85,5.91,0-.83-2.54,0-2.54,0-1.6,8-5.52,11.6-8.22,13.19a25.06,25.06,0,0,1-1.92,2.88,33.78,33.78,0,0,1-20.54,7.13c-1.67,1.56-5.61,4.4-14.13,7.24-12.68,4.23-31.28-1.69-31.28-1.69s-1.16-.58-1.56-.3a.35.35,0,0,0-.14.3c0,.84,2.54,3.38,2.54,3.38s-5.07-.85-5.07,0S42,195,41.18,195.85s-5.91,0-5.91.84,6.76,1.69,8.45,2.54S38.65,201.77,40.34,201.77Z"/>
        <path class="fb9cb8df-7d0d-4346-80d2-f28b469562fe" d="M133.41,115.29a0,0,0,0,1,0,0,0,0,0,0,0,0,0"/>
        <path class="b8584791-f065-432a-952e-54b403e77846" d="M104.18,186.12s8-1.26,14.79,9.73,3.38,25.36-2.53,27.05-15.22-4.22-18.61-11.83-.42-23.25,6.35-24.95Z"/>
        <path class="ac4eb144-ebba-4828-ba5d-2686a8a09004" d="M143.49,231.36c0,.84-12.68,16.06-12.68,16.06a8.69,8.69,0,0,0,2.16.37,4.22,4.22,0,0,0,2.07-.37c1.69-.84,0,2.54,0,3.39s2.53-.85,3.38-2.54.84,6.76,1.69,6.76.85-3.38,1.69-5.07,3.38,5.07,3.38,5.07v-9.3c0-1.69,10.15-12.68,10.15-17.75,0-4.3-11.49-13.42-16.06-17.16a2.09,2.09,0,0,1,0,.25c-.84,5.93-4.87,11.87-10.08,16C133.88,230.51,143.49,230.56,143.49,231.36Z"/>
        <path class="b8584791-f065-432a-952e-54b403e77846" d="M127.43,266c2.53,4.22,5.92-.85,5.92-1.7s0-4.22,1.69-4.22c2.53.84,1.69,7.61.84,10.14s2.91,7.79,5.54,3.21c1.27,1.37,4.1,2.15,6.3-1.52a20.07,20.07,0,0,0,.32-2.67c5-2.38-.62-13.15-2.86-17V255s-2.53-6.76-3.38-5.07S141,255,140.11,255s-.85-8.45-1.69-6.76-3.38,3.38-3.38,2.54,1.69-4.23,0-3.39a4.22,4.22,0,0,1-2.07.37,56.24,56.24,0,0,0-3.85,6.4C128.27,255.88,124.89,261.8,127.43,266Z"/>
        <path class="fb9cb8df-7d0d-4346-80d2-f28b469562fe" d="M144.34,261s4.06,1.36,3.7,8.32"/>
        <path class="fb9cb8df-7d0d-4346-80d2-f28b469562fe" d="M140.11,261s4.3,6.39,1.31,12.5h0"/>
        <path class="ac4eb144-ebba-4828-ba5d-2686a8a09004" d="M75.85,228c.85,4.22,11,17.75,11,19.44a35.59,35.59,0,0,0,.43,4.05c.21,1.47.42,2.72.42,2.72s2.53-5.07,3.38-4.23S93.61,255,93.61,255s0-6.76.84-6.76c.55,0,2.5.7,3.82,1h0c.72.15,1.26.17,1.26-.12,0-.85-4.23-5.08-5.08-5.92s-6.76-10.15-6.76-10.15,16.8,0,24-1c-9.62-2.3-17.23-6.6-19.91-14C88.36,218.9,76.57,222.21,75.85,228Z"/>
        <path class="b8584791-f065-432a-952e-54b403e77846" d="M71.75,264.67c0,.17-.09.34-.13.51-.84,4.23,4.23,5.07,5.08,4.23a35.79,35.79,0,0,0,2.74-4,6.69,6.69,0,0,0,5.71.66c2.54-.85,8.46-5.08,11.84-9.31a7.54,7.54,0,0,0,1.28-7.48h0c-1.32-.27-3.27-1-3.82-1-.84,0-.84,6.76-.84,6.76s-1.69-4.22-2.54-5.07-3.38,4.23-3.38,4.23-.21-1.25-.42-2.72a42.61,42.61,0,0,0-9.73.18c-6,1.35-6.75,5.35-6.79,6.94a9.36,9.36,0,0,0-1.66,4.05C69.09,263.19,70.52,264.1,71.75,264.67Z"/>
        <path class="fb9cb8df-7d0d-4346-80d2-f28b469562fe" d="M79.44,265.37l-.21-.19c-.84-.85-2.53-4.23,5.08-5.07"/>
        <path class="fb9cb8df-7d0d-4346-80d2-f28b469562fe" d="M71.75,264.67c1.18-4,6.7-7.1,8.33-7.1"/>
        <path class="fb9cb8df-7d0d-4346-80d2-f28b469562fe" d="M70.75,258.59a10.31,10.31,0,0,1,7.64-4.4"/>
        <g>
          <ellipse class="e9299308-2d06-4b7f-8478-0db1428c925f" cx="98.26" cy="140.04" rx="6.76" ry="9.72" transform="translate(-60.21 75.58) rotate(-32.81)"/>
          <ellipse class="ee5e8f91-16be-4200-b6ec-4b43d994734b" cx="98.09" cy="142.27" rx="4.04" ry="5.81" transform="translate(-61.44 75.85) rotate(-32.81)"/>
          <ellipse class="b121bacb-40af-4bc2-b7cd-42a7fb0028d8" cx="98.06" cy="143.07" rx="2.36" ry="3.4" transform="translate(-61.88 75.96) rotate(-32.81)"/>
        </g>
        <g>
          <ellipse class="e9299308-2d06-4b7f-8478-0db1428c925f" cx="76.27" cy="150.19" rx="6.76" ry="9.72" transform="translate(-69.21 65.29) rotate(-32.81)"/>
          <ellipse class="ee5e8f91-16be-4200-b6ec-4b43d994734b" cx="76.11" cy="152.41" rx="4.04" ry="5.81" transform="matrix(0.84, -0.54, 0.54, 0.84, -70.45, 65.55)"/>
          <ellipse class="b121bacb-40af-4bc2-b7cd-42a7fb0028d8" cx="76.08" cy="153.22" rx="2.36" ry="3.4" transform="translate(-70.88 65.67) rotate(-32.81)"/>
        </g>
        <ellipse class="bc5de270-5d9c-48d7-a3dd-3b832a3270f8" cx="25.53" cy="195.17" rx="7.45" ry="4.38"/>
        <ellipse class="a3ab07ec-15b0-4703-8e33-431f051e5e84" cx="24.82" cy="189.49" rx="6.74" ry="4.26"/>
        <ellipse class="fcf2f7b2-f009-41ca-ae94-54078f30c451" cx="25.17" cy="183.88" rx="6.38" ry="3.61"/>
        <path class="bca28ac5-d95d-4d1d-8f25-a8256bfb82bb" d="M42.9,189.49c0-.71-4.09-7.83-8.43-8.53s-2.92,6.4-.08,7.11,5.68,2.13,5,2.84"/>
      </g>
      <g>
        <g>
          <path class="ffec3832-a2cb-4cab-a554-a706b98e9466" d="M235.16,129.84a117.36,117.36,0,0,1-39.84-8c-13.59-4.36-18.07-5.13-22.94-7.05s-12.95-3.08-20.38-6.54c-8.34-3.59-16.54-4.1-22.44-5.12S104.7,95.89,95.85,91.92C86.88,88.2,75.09,81.28,68,77.05c-4.36-2.44-5-3.59-7.43-5.9S46.36,60.51,46.36,60.51l2.19-3.71a148.63,148.63,0,0,1,13.84,8.59c4.62,3.33,8,4.61,15.13,7.43S86.11,76,86.11,76a56.51,56.51,0,0,0-5.25-8.47c-2.7-3.33-9.49-10.89-9.49-10.89l2.06-1.41s7.81,6.41,10,9.23,3.73,6.92,6.68,9.87,3.08,4.74,21.27,8.07c13.46,2.44,25.38,3.08,30,4.36S151.49,91.36,155,92.3a45.77,45.77,0,0,0,15.51,1c5.64-.64,25.38,5.13,30,6.54a124,124,0,0,0,20.65,4.87c9.23,1.28,10.9,2.18,14,2.05l3.08-.13s1.66-.12.89,10.51C238.52,122.94,236.67,128.16,235.16,129.84Z"/>
          <path class="ffec3832-a2cb-4cab-a554-a706b98e9466" d="M195.24,122.05c-6.63-2.12-11.17-3.42-14.48-4.36a87.05,87.05,0,0,1-8.49-2.7,68.65,68.65,0,0,0-7-2.09,79.13,79.13,0,0,1-13.39-4.44c-6.51-2.8-13-3.74-18.24-4.48-1.47-.21-2.86-.41-4.14-.63-5.73-1-24.85-7.17-33.76-11.17C86.94,88.53,75.64,81.93,67.9,77.29a22.29,22.29,0,0,1-6.14-4.63c-.41-.4-.84-.83-1.35-1.3C58,69.09,46.32,60.82,46.2,60.74l-.2-.15,2.44-4.16.24.12a155.7,155.7,0,0,1,13.89,8.61c4.49,3.26,7.68,4.5,14.68,7.25l.38.15c4.75,1.87,7,2.67,7.92,3a51.71,51.71,0,0,0-4.91-7.81c-2.65-3.29-9.4-10.81-9.48-10.89l-.22-.23,2.5-1.71.16.14c.32.25,7.87,6.46,10,9.27a36.69,36.69,0,0,1,2.46,3.86,28.27,28.27,0,0,0,4.18,6c.28.28.54.54.78.8,2.29,2.44,4,4.19,20.35,7.19,6.94,1.25,13.51,2,18.8,2.67a97.07,97.07,0,0,1,11.23,1.69,55.76,55.76,0,0,1,7.76,3.13A45.1,45.1,0,0,0,155,92a45.38,45.38,0,0,0,15.41,1,8.17,8.17,0,0,1,1,0c7.4,0,28.21,6.32,29.09,6.59l.81.25a118.24,118.24,0,0,0,19.78,4.61c4.15.58,6.76,1.08,8.67,1.44a22,22,0,0,0,5.24.62l3.1-.14a.63.63,0,0,1,.45.24c.63.68,1.27,3.06.72,10.58-.52,5.86-2.41,11.12-3.95,12.83l-.08.09H235A118.85,118.85,0,0,1,195.24,122.05Zm43.51-4.9c.71-9.62-.63-10.21-.6-10.21l-3.08.13a22.18,22.18,0,0,1-5.36-.62c-1.91-.37-4.52-.86-8.66-1.43a120.74,120.74,0,0,1-19.86-4.63l-.83-.26c-.86-.26-21.59-6.57-28.91-6.57-.36,0-.68,0-1,0a45.43,45.43,0,0,1-15.6-1A44.7,44.7,0,0,1,149,90.15a53.73,53.73,0,0,0-7.67-3.09,94.84,94.84,0,0,0-11.15-1.68c-5.3-.63-11.87-1.42-18.82-2.67-16.58-3-18.29-4.85-20.66-7.36-.24-.25-.49-.52-.77-.8a27.88,27.88,0,0,1-4.27-6.09,34.58,34.58,0,0,0-2.42-3.8c-2-2.55-8.67-8.12-9.8-9l-1.61,1.11C73,58,78.67,64.42,81.07,67.39a56.79,56.79,0,0,1,5.29,8.51l.27.55L86,76.29c-.06,0-1.5-.42-8.61-3.21L77,72.93c-6.81-2.68-10.24-4-14.8-7.32a146.11,146.11,0,0,0-13.6-8.44l-1.9,3.26c1.64,1.16,11.79,8.37,14,10.52.51.49,1,.92,1.35,1.33a22.42,22.42,0,0,0,6,4.53C75.91,81.45,87.19,88,96,91.67c8.89,4,27.93,10.14,33.65,11.13,1.27.22,2.64.42,4.11.63,5.27.75,11.82,1.69,18.39,4.52a79.34,79.34,0,0,0,13.3,4.42,63.44,63.44,0,0,1,7.05,2.11c2.48,1,4.86,1.65,8.43,2.67,3.32.95,7.87,2.24,14.53,4.38a118.16,118.16,0,0,0,39.52,8H235C236.48,127.84,238.26,122.79,238.75,117.15Z"/>
        </g>
        <g>
          <path class="ffec3832-a2cb-4cab-a554-a706b98e9466" d="M233.08,111.54l-2.24-.52c-.72-.16-1.6-.3-2.6-.49s-2.15-.38-3.37-.63-2.53-.65-3.9-1-2.85-.8-4.39-1.14c-.77-.18-1.54-.35-2.36-.48l-2.4-.43c-1.64-.26-3.24-.69-4.87-1.06s-3.24-.83-4.83-1.23l-4.66-1.28c-3-.85-5.85-1.63-8.27-2.3s-4.45-1.18-5.87-1.51-2.25-.52-2.25-.52l2.22.63c.7.19,1.56.43,2.53.73l3.29,1c2.4.72,5.21,1.55,8.21,2.46L202,105c1.59.42,3.2.87,4.83,1.27s3.28.78,4.91,1l2.41.42c.8.11,1.58.28,2.34.44,1.52.34,3,.72,4.39,1.07s2.7.7,3.94,1,2.39.37,3.39.52,1.89.27,2.61.39Z"/>
          <path class="ffec3832-a2cb-4cab-a554-a706b98e9466" d="M234.88,114.73a6.15,6.15,0,0,0-.65-.19l-.66-.14-.74-.13c-.52,0-1-.13-1.43-.13a4.52,4.52,0,0,0-.68,0,4.47,4.47,0,0,0,.61.28,6.37,6.37,0,0,0,.66.22,3.66,3.66,0,0,0,.76.15c.26,0,.53.06.78.07s.49,0,.69,0A3,3,0,0,0,234.88,114.73Z"/>
          <path class="ffec3832-a2cb-4cab-a554-a706b98e9466" d="M234.32,116.81h-.82c-.55,0-1.34,0-2.35-.13a32.59,32.59,0,0,1-3.59-.53c-1.36-.32-2.89-.78-4.56-1.23s-3.5-.93-5.42-1.44l-6-1.58-3.2-.83c-1.07-.29-2.15-.62-3.24-.93l-1.64-.47-1.64-.54-3.3-1.07L185.6,103.9,179.65,102c-1.91-.58-3.66-1.28-5.26-1.91-3.2-1.32-5.89-2.41-7.84-3l-1.29-.36c-.39-.09-.72-.13-1-.19l-.81-.15.81.17,1,.22,1.28.4c.95.32,2.1.75,3.39,1.3l4.35,1.88c1.61.66,3.34,1.39,5.25,2l5.92,2,12.91,4.22,3.31,1,1.64.53,1.65.46c1.1.31,2.19.64,3.27.92l3.2.81c4.19,1.09,8.14,2,11.48,2.86,1.7.43,3.22.84,4.62,1.12a26.66,26.66,0,0,0,3.63.42c1,.07,1.8.07,2.35.07Z"/>
          <path class="ffec3832-a2cb-4cab-a554-a706b98e9466" d="M233.91,124l-10-1.4-1.13-.18-1.18-.23-1.21-.25-1.24-.29c-.84-.19-1.71-.4-2.59-.64s-1.77-.46-2.68-.73-1.83-.52-2.75-.81-1.85-.6-2.78-.92c-.47-.16-.94-.34-1.39-.52s-.93-.34-1.39-.56c-.92-.4-1.84-.82-2.74-1.24-1.83-.84-3.67-1.66-5.51-2.43-.91-.38-1.84-.73-2.75-1.09s-1.83-.64-2.72-1a37.9,37.9,0,0,0-5.31-1.34c-1.69-.35-3.33-.5-4.8-.83-.75-.13-1.46-.28-2.12-.43s-1.31-.28-1.91-.43l-3.08-.74c-.44-.11-.82-.2-1.16-.26s-.62-.13-.86-.15l-.72-.07.72.1a7.35,7.35,0,0,1,.84.17c.35.07.73.17,1.15.29l3.07.86c1.17.32,2.52.68,4,1s3.11.54,4.79.92a41.16,41.16,0,0,1,5.23,1.4c.88.32,1.79.61,2.7,1s1.81.71,2.72,1.1c1.82.77,3.65,1.61,5.48,2.45.92.42,1.84.84,2.76,1.23.45.21,1,.38,1.4.56s.95.36,1.41.51c.95.32,1.88.64,2.82.91s1.85.56,2.77.81,1.8.49,2.7.7,1.74.42,2.6.6c.42.08.84.18,1.25.27l1.23.21,1.19.22,1.14.15c1.51.22,2.88.34,4.1.47l3.17.34Z"/>
          <path class="ffec3832-a2cb-4cab-a554-a706b98e9466" d="M220.46,125.82s-.93-.17-2.52-.54c-.8-.16-1.76-.4-2.86-.7s-2.35-.59-3.69-1-2.81-.8-4.3-1.37-3.12-1.1-4.76-1.73-3.33-1.27-5.06-1.9l-2.61-.95-1.32-.48-1.35-.43c-1.79-.54-3.58-1.18-5.38-1.54l-5.27-1.25c-1.7-.41-3.36-.76-4.93-1.11s-3.06-.65-4.42-1l-6.59-1.6-2.5-.6s.9.24,2.48.69l6.53,1.82c1.35.38,2.85.7,4.41,1.09l4.9,1.19,5.26,1.28c1.81.38,3.55,1,5.33,1.57l1.34.42,1.32.47,2.61.93c1.74.61,3.44,1.26,5.08,1.86s3.27,1.14,4.79,1.66,3,.91,4.35,1.29c.68.18,1.32.38,1.95.52l1.77.39c1.12.25,2.1.46,2.9.6C219.53,125.68,220.46,125.82,220.46,125.82Z"/>
          <path class="ffec3832-a2cb-4cab-a554-a706b98e9466" d="M160.4,106.82s1-.17,2.92-.58a26.38,26.38,0,0,0,3.45-1,3,3,0,0,0,.47-.25.59.59,0,0,0,.22-.19.5.5,0,0,0,0-.29,2.6,2.6,0,0,0-.67-1,25,25,0,0,0-1.88-1.75L162.78,100c-.39-.31-.75-.67-1.19-1l-1.28-1c-1-.54-1.92-1.17-3-1.67l-1.61-.82L154,94.77c-2.31-1-4.84-2-7.5-2.92a80.79,80.79,0,0,0-8.63-2.31c-3-.63-6.24-1.18-9.56-1.6A83,83,0,0,0,118,87.31c-1.79,0-3.59.13-5.41.25a41,41,0,0,0-5.54.66,3.73,3.73,0,0,0-.69.23,2.08,2.08,0,0,0-.35.2s-.11.1-.16.16a.88.88,0,0,0-.11.24v.13a.61.61,0,0,0,0,.14.88.88,0,0,0,.12.2,1.8,1.8,0,0,0,.27.28c.17.17.36.32.54.47.75.6,1.52,1.15,2.31,1.69,1.59,1.07,3.22,2.11,4.87,3.13a76,76,0,0,0,10.46,5.56,44.25,44.25,0,0,0,11.75,3.08c.51,0,1,.13,1.52.17l1.54.08c1,.07,2,.07,3.07.1l6.18.14c2.07.06,4.13,0,6.22.07l3.11-.11a8.28,8.28,0,0,0,1.59-.24,1.16,1.16,0,0,0,.79-.57.59.59,0,0,0,.07-.3,1.15,1.15,0,0,0-.06-.28,1.37,1.37,0,0,0-.21-.4,14.78,14.78,0,0,0-2.29-2.2c-.41-.34-.84-.65-1.26-1a14.47,14.47,0,0,0-1.28-.88c-.45-.27-.89-.55-1.35-.81l-1.38-.72-.71-.35-.71-.31-1.44-.61a55.3,55.3,0,0,0-11.94-3.13l-1.5-.25c-.52-.08-1-.12-1.52-.18-1-.12-2-.22-3-.31-2-.18-4-.32-6-.3a15.37,15.37,0,0,0-3,.23,3.61,3.61,0,0,0-1.45.61,1.09,1.09,0,0,0-.43.79v.14l0,.09,0,.18c.06.13.11.27.18.4a8.73,8.73,0,0,0,2,2.24,17.72,17.72,0,0,0,2.41,1.7,22.64,22.64,0,0,0,5.32,2.33,48.6,48.6,0,0,0,5.58,1.09c3.69.56,7.33,1,10.89,1.2.9,0,1.79.08,2.67.06a11.16,11.16,0,0,0,2.63-.29,2.15,2.15,0,0,0,.64-.28.82.82,0,0,0,.29-.27l.08-.14c0-.07,0-.14.07-.22a1,1,0,0,0-.24-.71,2.43,2.43,0,0,0-.48-.48,10.77,10.77,0,0,0-2.25-1.23,49.85,49.85,0,0,0-9.35-2.6c-1.54-.3-3-.58-4.5-.82a17.43,17.43,0,0,0-4.36-.32,2.47,2.47,0,0,0-1.05.32,1,1,0,0,0-.42.39.64.64,0,0,0-.13.59,1.67,1.67,0,0,0,.75.8,7,7,0,0,0,.9.47A22.14,22.14,0,0,0,136,98.83a43.67,43.67,0,0,0,7,1.06l3.12.3a4.86,4.86,0,0,0,.76,0c.07,0,.12,0,.2-.08s0-.18-.05-.23a1.54,1.54,0,0,0-.29-.23,7.94,7.94,0,0,0-1.21-.73,33.12,33.12,0,0,0-4.5-1.75,32.12,32.12,0,0,0-3.46-.9,9,9,0,0,0-2.2-.2,2,2,0,0,0-.56.11l-.17.08.17-.08a2.37,2.37,0,0,1,.56-.11,9.12,9.12,0,0,1,2.19.22,33.6,33.6,0,0,1,3.45.93A34.26,34.26,0,0,1,145.46,99a8.86,8.86,0,0,1,1.19.73,2.88,2.88,0,0,1,.27.22.26.26,0,0,1,.05.09s-.08,0-.13,0a4.51,4.51,0,0,1-.73,0L143,99.75a43.7,43.7,0,0,1-7-1.11,22.93,22.93,0,0,1-3.69-1.19,6.67,6.67,0,0,1-.88-.46,1.5,1.5,0,0,1-.63-.67.42.42,0,0,1,.09-.38.88.88,0,0,1,.35-.31,2.29,2.29,0,0,1,1-.28,18.7,18.7,0,0,1,4.29.34c1.45.24,2.95.54,4.47.82a49.75,49.75,0,0,1,9.28,2.62,10.29,10.29,0,0,1,2.19,1.19c.31.24.61.57.59.89a.17.17,0,0,0,0,.1l-.08.13a.53.53,0,0,1-.19.16,1.47,1.47,0,0,1-.54.23,11.2,11.2,0,0,1-2.55.27c-.87,0-1.75,0-2.63-.06-3.55-.2-7.17-.67-10.86-1.24a43.94,43.94,0,0,1-5.53-1.09,22,22,0,0,1-5.22-2.3A18.32,18.32,0,0,1,123,95.74a8.56,8.56,0,0,1-1.9-2.1l-.14-.28,0-.18,0-.1s0,0,0,0a.77.77,0,0,1,.08-.27c0-.08.12-.14.19-.22a3.08,3.08,0,0,1,1.27-.5,15.63,15.63,0,0,1,2.92-.23c2,0,4,.14,6,.33,1,.09,2,.2,3,.31.51.07,1,.11,1.51.19l1.49.25a55,55,0,0,1,11.84,3.14l1.41.6.71.3.68.36,1.36.7c.44.26.87.53,1.3.8a13.48,13.48,0,0,1,1.27.86c.43.32.83.61,1.23.94a14.53,14.53,0,0,1,2.19,2.09.56.56,0,0,1,.14.45c0,.09-.22.2-.44.26a7.63,7.63,0,0,1-1.48.23l-3.08.12c-2.07,0-4.12,0-6.19-.06l-6.17-.12c-1,0-2.06,0-3.07-.09l-1.52-.08c-.51,0-1-.11-1.51-.16a44.16,44.16,0,0,1-11.63-3,78.33,78.33,0,0,1-10.42-5.51c-1.65-1-3.26-2-4.85-3.11-.77-.53-1.56-1.07-2.3-1.66l-.52-.44c-.16-.16-.33-.33-.29-.4s.2-.24.39-.32a4.52,4.52,0,0,1,.62-.21,40.81,40.81,0,0,1,5.47-.66c1.82-.13,3.62-.23,5.39-.26a80.83,80.83,0,0,1,10.33.59c3.32.42,6.5.95,9.55,1.57A81.44,81.44,0,0,1,153.93,95l1.71.75,1.6.79c1.08.5,2,1.12,3,1.64l1.3.94c.42.3.79.66,1.18,1l2.18,1.84a21.83,21.83,0,0,1,1.91,1.73,2.58,2.58,0,0,1,.64.94.35.35,0,0,1,0,.25.55.55,0,0,1-.2.17,2.39,2.39,0,0,1-.48.24,23.6,23.6,0,0,1-3.43,1C161.43,106.64,160.4,106.82,160.4,106.82Z"/>
          <path class="ffec3832-a2cb-4cab-a554-a706b98e9466" d="M108.67,84.91s-.26-.11-.73-.28-1.13-.44-1.93-.71-1.73-.61-2.75-.94-2.08-.68-3.16-1L96.93,81c-.51-.17-1-.3-1.44-.48s-.87-.35-1.26-.52a18.79,18.79,0,0,1-1.81-.94c-.44-.24-.67-.4-.67-.4a5.45,5.45,0,0,0,.6.49,15.87,15.87,0,0,0,1.74,1.12,11.93,11.93,0,0,0,1.24.62,13.49,13.49,0,0,0,1.44.57c.51.18,1,.34,1.56.52l1.61.5c1.08.33,2.16.66,3.19,1s2,.55,2.79.78,1.5.38,2,.51Z"/>
          <path class="ffec3832-a2cb-4cab-a554-a706b98e9466" d="M93.69,83a8,8,0,0,0-.79-.58,19.67,19.67,0,0,0-3.82-1.91,8.17,8.17,0,0,0-.94-.29,7.55,7.55,0,0,0,.8.58,20.57,20.57,0,0,0,1.85,1.06c.7.34,1.42.64,2,.84S93.69,83,93.69,83Z"/>
          <path class="ffec3832-a2cb-4cab-a554-a706b98e9466" d="M103,91.42l-2-.84L95.78,88.3l-3.45-1.58-1.88-.86c-.64-.33-1.29-.64-1.94-1-1.31-.66-2.69-1.32-4-2s-2.71-1.56-4-2.42l-1.94-1.29c-.64-.45-1.25-.93-1.86-1.39l-1.83-1.4c-.31-.22-.61-.46-.91-.68L73,75c-1.17-.87-2.44-1.58-3.56-2.31a30.88,30.88,0,0,1-3-2.23,19.81,19.81,0,0,0-2.65-1.85c-.82-.5-1.57-.88-2.18-1.18s-1.12-.5-1.47-.64l-.52-.2.51.22c.33.16.83.4,1.42.72s1.34.73,2.14,1.25c.38.27.83.54,1.24.87a14.69,14.69,0,0,1,1.31,1,34.07,34.07,0,0,0,3,2.33c1.12.76,2.33,1.49,3.52,2.37l.91.64c.3.22.59.45.88.68.6.47,1.2.94,1.82,1.41s1.22,1,1.86,1.41l2,1.34c1.34.85,2.71,1.59,4,2.38s2.76,1.38,4.08,2c.65.32,1.31.66,1.94,1l1.92.81,3.5,1.5c1.08.46,2.09.84,3,1.19l2.31.91Z"/>
        </g>
      </g>
      <g>
        <path class="b734db4f-b05d-4825-88c1-a6e7ddf1faa7" d="M122.89,82.42c.31.13-.54,5.2,2,6a2.81,2.81,0,0,0,3.42-1.32,5.48,5.48,0,0,0,.81-2.91,25.38,25.38,0,0,0-.39-5.37,3.14,3.14,0,0,0-1.3-2.24,2.69,2.69,0,0,0-3.8,1.64,1,1,0,0,1,.42.9A6.87,6.87,0,0,1,122.89,82.42Z"/>
        <path class="b734db4f-b05d-4825-88c1-a6e7ddf1faa7" d="M128.31,87.15c.17,1.18,1.09,3.85,3.34,3.85h.11c2.46-.23,3.25-9.32,1.59-11.82-1.31-2-3.64-.89-4.62-.3a25.38,25.38,0,0,1,.39,5.37A5.48,5.48,0,0,1,128.31,87.15Z"/>
      </g>
      <path class="e50e5f6d-ce0b-4246-8050-0fff9ceac9ef" d="M77,16.74c-1-6.34-5.71-1.69-6,3.15-2.91-3.88-7.6-4-5.38,3-5.46-2.75-10,.37-4.88,5.7-3.22.23-4.44,4.4-2.44,6.73-.4.15-7.88,3-4.31,4.38,2.53.94,5.09-1.05,7.13.06-2.25,1.66-5.07,4.17-5.82,7.26-.59,2.42.55,4.88,2.85,4.16-1.46,2.62-3.28,4.27-4.33,7.31a4.85,4.85,0,0,0-3.64-2.16c4.76-3.73,1.88-9-2.07-9.37,3.07-2.54,7.85-9.29,2.33-10.91,1.24-1.3,7.1-13.32,2.89-10.65-4,2.56-3.67,7.18-6,9.36,3.17-9.68-3.92-15.39-9.08-5-.07-7.54-3.39-11.41-6.11-1.62-.43-1.24-1.4-5.43-3.07-5.14-3.2.54,1.14,8.51,1.66,9.42-5.37-7.67-3.15,7.31-2,10.41-2.76-1.59-7.84-1.91-5.11,3.07a11.83,11.83,0,0,0-10.51,1.23c-2.08,1.29,5.67,6.3,6.47,6.76-2.33.48-11.28,6.22-5.69,7.53a7.27,7.27,0,0,0,3.69-.17,4.4,4.4,0,0,0,1.89,3.48c2.24,1.15,5.19-1.62,6.91-3.49C25,67.11,27.09,71.67,27.8,76.8c.46,3.28,3.24-3.41,3.34-4.11.3-1.92-1-3.53-.2-5.12a53.35,53.35,0,0,0,3,10.12c-5.38-1.63-2.71,4.17-.47,5.81-3.34,1-5.33,3.38-.73,4-1.49,1.56-5.51,7.86-1,6.78-1.94,2.36-3.22,10,.84,5.43,2.45-2.75,1.19-5.88,3.59-8.32-1.2,8.42,6.06,8.16,5.24-1.08,4.44,2.54,9.81-2,4-5.62,4.86-3.5,1.48-5.61-2.24-4.62,2-4.15-.41-12.27-3.83-5.38-.88-2-3.2-2.52-2.84-4.87,3.77,5.2,5.44.51,5.05-4.7,1.21,1.53,5.77,5.92,8.11,4,1.91-1.61-.51-7-1.21-8.29,2.55,1.64,6.53.47,8.73-2.21,3.14-3.83,1.93-7.3,4.66-9.66a38.4,38.4,0,0,0-2.1,11.49c-.13,3.49,4.17-3.11,4.4-3.64,1.65,8.7,5.65,4.68,5.46-3,1.83,2-.12,14.82,5.88,13.11,4.68-1.34-1.12-11.46-.9-13.34,1.25,2.69,3.25,4.81,6,5.41,3.76.83-.76-7.33-2.11-8A4.14,4.14,0,0,0,81.63,48c5.64,6,6.74-.19,2.61-4.73-1-.28,4.07,2.79,3.24,2.43,1,.44,7.51.29,4.9-2.7-.92-1.06-10.17-5.65-9.67-1.13-.78-.56-1.62-.49-2.08-1.25,2.53-.72,6.79-4,3.92-6.8C91.43,31,90.8,25,83.69,27.5c1.1-2.33,1.88-7.19-1.68-5.71,1-3.77-1.34-10.19-5-5.05C76.68,14.83,79.92,12.65,77,16.74Zm-.85,33.6c-1.36.44-1.42.53-1.56-1.11l1.56,1.11C76,50.39,75.59,50.05,76.13,50.34Z"/>
      <path class="b0a542bc-d30a-46bd-a7a1-bf740f4b2731" d="M107.69,58.35c5.38-3.51-.77-5.9-5.29-4.17,2.37-4.23.58-8.56-4.92-3.71.31-6.11-4.36-8.95-7.18-2.16-1.52-2.85-5.83-2.29-7.15.48-.3-.31-6-6-5.74-2.17.16,2.7,3,4.24,2.82,6.54-2.43-1.38-5.86-2.95-9-2.39-2.46.44-4.24,2.48-2.66,4.29-3-.27-5.23-1.27-8.44-1a4.82,4.82,0,0,0,.51-4.2c5.34,2.85,9-1.92,7.74-5.67C72,46,80.06,47.6,79.31,41.89c1.69.62,15,1.12,10.91-1.65-4-2.67-8-.46-11-1.68,10.13-1,12.5-9.8.9-10.33,6.86-3.1,9.06-7.7-1-6.24,1-.89,4.4-3.47,3.46-4.88-1.78-2.71-7.32,4.47-7.94,5.32,4.84-8-8,.07-10.35,2.34.34-3.16-1.41-7.94-4.87-3.43a11.86,11.86,0,0,0-5.37-9.12c-2-1.38-3.47,7.74-3.57,8.66-1.38-1.94-10.25-7.82-9.19-2.17A7.34,7.34,0,0,0,43,22a4.44,4.44,0,0,0-2.41,3.14c-.15,2.52,3.58,4.09,6,4.91-5.95,1.05-9.26,4.83-13.66,7.56C30.06,39.36,37.3,39.2,38,39c1.88-.51,2.84-2.32,4.61-2.26a53.36,53.36,0,0,0-8.05,6.83c-.68-5.58-4.91-.79-5.5,1.92-2.26-2.65-5.24-3.52-3.93.93-2-.73-9.4-1.87-6.6,1.8-2.94-.82-10.46,1.09-4.63,3,3.5,1.13,5.85-1.29,9.06-.08-8.19,2.31-5,8.84,3.1,4.36-.52,5.08,5.75,8.18,6.74,1.35,5.17,3,5.73-.91,3.32-3.92,4.61.15,11.06-5.33,3.38-5.67,1.5-1.62,1-3.94,3.31-4.56-3.24,5.55,1.73,5.17,6.33,2.72-.9,1.72-3.08,7.66-.34,9C51,55.52,55,51.12,55.88,50c-.47,3,2.2,6.16,5.54,7.09,4.78,1.33,7.46-1.18,10.72.36a38.24,38.24,0,0,0-11.36,2.73c-3.24,1.29,4.53,2.55,5.11,2.55-7.3,5-2,7.06,5,3.77-1.09,2.48-13.6,5.88-9.61,10.67,3.11,3.75,10-5.65,11.84-6.21-2,2.24-3.09,4.92-2.54,7.66.76,3.77,6.4-3.66,6.48-5.18a4.13,4.13,0,0,0,3.91,1.83c-3.25,7.6,2.9,6.09,5.39.47-.17-1-.91,4.86-.91,4,0,1.1,2.76,7,4.44,3.39.6-1.27,1.06-11.58-2.87-9.3.2-.94-.21-1.68.3-2.4,1.68,2,6.41,4.58,7.81.83,5.38,5.15,10.58,2.16,5.45-3.35,2.58.07,7.34-1.18,4.54-3.83,3.84-.65,8.79-5.35,2.6-6.65C109.3,57.3,112.61,59.39,107.69,58.35ZM76.6,71.14c-.95-1.06-1.06-1.08.38-1.88-.12.63-.25,1.26-.38,1.88C76.49,71,76.65,70.53,76.6,71.14Z"/>
    </g>
  </g>
</svg>
