<svg id="b61cd879-315a-4989-b322-48fbd3d98417" data-name="Layer 1" xmlns="http://www.w3.org/2000/svg" width="112.44" height="190.04" viewBox="0 0 112.44 190.04">
  <defs>
    <style>
      .bceeb639-0527-47a8-9251-54d2e5357e5b {
        opacity: 0.5;
      }

      .fb50c40d-4948-4fc6-ba9d-4346d07b98bc {
        fill: #fff;
      }

      .b590da59-9b94-4ee6-9ea1-5e437a272b79, .e7cba334-5d68-48e7-bfb8-c76ac574ba77 {
        fill: #3f6327;
      }

      .e7cba334-5d68-48e7-bfb8-c76ac574ba77 {
        stroke: #203312;
      }

      .ae88b806-7c79-4abf-9c03-7eb226c431f2, .b001cd85-2a39-401c-8f16-43d50b9ab92d, .b16b0933-cd28-4733-b42a-13a63ea0e44f, .b5b9bce4-ac5b-446c-b53a-a74269963e72, .b6c6abfc-843b-4b9e-add0-93eebcc56812, .e7cba334-5d68-48e7-bfb8-c76ac574ba77, .fdfaf1a0-b859-407d-bf21-b020b043dd00 {
        stroke-miterlimit: 10;
      }

      .b6c6abfc-843b-4b9e-add0-93eebcc56812, .e7cba334-5d68-48e7-bfb8-c76ac574ba77 {
        stroke-width: 0.25px;
      }

      .b5b9bce4-ac5b-446c-b53a-a74269963e72 {
        fill: #57aa22;
        stroke: #2c5412;
        stroke-width: 0.5px;
      }

      .aeab1364-d8c4-4f4c-ba1a-274ee7be62f0 {
        fill: #428417;
      }

      .fd08400e-6bf9-49d6-be53-b0d73a7de4d9 {
        fill: #a2ea73;
        opacity: 0.51;
      }

      .b6c6abfc-843b-4b9e-add0-93eebcc56812 {
        fill: #69c62c;
        stroke: #447f1d;
      }

      .b16b0933-cd28-4733-b42a-13a63ea0e44f, .f6ed459c-400f-4ea4-af9b-37eb60184a98 {
        fill: #fc3850;
      }

      .ab4fdf8c-3f75-4b37-b470-69c5da72692a {
        fill: #5a8e39;
      }

      .afa82292-4d31-43b3-92c0-bd3f248626e1 {
        fill: #428913;
      }

      .e5c27f50-6c31-4e22-93d6-7724a4002de6 {
        fill: #467729;
      }

      .f1138ff3-4ba3-4445-aad6-2fb2931e1c84 {
        fill: #a5f471;
        opacity: 0.65;
      }

      .ae88b806-7c79-4abf-9c03-7eb226c431f2 {
        fill: #e51c3e;
        stroke: #820f28;
      }

      .a7f23f61-5d30-4240-af6e-ba66e5ecf878 {
        fill: #c11439;
      }

      .b16b0933-cd28-4733-b42a-13a63ea0e44f {
        stroke: #b21933;
      }

      .ecced5e9-323d-4c10-8d56-4ef39ea14781 {
        fill: #ff8c7d;
      }

      .fdc496e3-4030-4e0a-8127-7fa09be71c8f {
        fill: #d8133e;
      }

      .b001cd85-2a39-401c-8f16-43d50b9ab92d {
        fill: #ff7b7b;
      }

      .b001cd85-2a39-401c-8f16-43d50b9ab92d, .fdfaf1a0-b859-407d-bf21-b020b043dd00 {
        stroke: #ce294d;
      }

      .fdfaf1a0-b859-407d-bf21-b020b043dd00 {
        fill: #ff6464;
      }

      .eaa0da2d-4e5d-4456-957d-487d16c441fd {
        fill: #ffba94;
      }

      .a2d2f549-78ce-4a60-adde-6acce142fd87 {
        fill: #feedd6;
      }
    </style>
  </defs>
  <g>
    <path class="bceeb639-0527-47a8-9251-54d2e5357e5b" d="M101,101.46l-.45,0c-2.33.13-10.41.84-17,4.38a34.33,34.33,0,0,0-1.33-9.12,8.7,8.7,0,0,0-.32-.9c6.75-3.6,13.46-9.79,14.85-19.25.86-1,1.7-2,2.49-3.12A50.91,50.91,0,0,0,104.91,64l0-.11a27.23,27.23,0,0,1,2.63-5.17l.12-.18c2.6-3.59,2.84-6.84.85-10.83l-.11-.23a11.92,11.92,0,0,1-.75-1.7c-1.84-11.34-6-17.07-7.82-19.08a29.58,29.58,0,0,0-24.55-12.4c-.69,0-1.37,0-2.07.06a27,27,0,0,0-9.72-4.1,40.48,40.48,0,0,0-8.71-.9h-.5A47,47,0,0,0,48,10a32.69,32.69,0,0,1-4.07.46l-.57-.05c-.54,0-1.2-.11-2-.11a11,11,0,0,0-7,2.36A16.64,16.64,0,0,0,30,18.21c-.18.35-.44.82-.55,1-.91,1.24-1.75,2.3-2.56,3.22a6.26,6.26,0,0,0-.63.81,32.55,32.55,0,0,0-3,5.53A28.55,28.55,0,0,0,7.59,53.58,35,35,0,0,0,8.85,63.63l.18.78A12.77,12.77,0,0,1,9.09,66c0,.73,0,1.57.1,2.48a15.09,15.09,0,0,0,1.2,5.13A9.82,9.82,0,0,0,16.77,79l.55.48a22.49,22.49,0,0,0,2.34,1.9,30.6,30.6,0,0,0,7.14,3.77c.4.14.8.27,1.21.38a33.26,33.26,0,0,0,5.31,5.38c-1.59-.11-3.25-.17-5-.17-2.31,0-3.85.11-4,.13a8,8,0,0,0-7.27,9.35A44.41,44.41,0,0,0,23.5,117a34.75,34.75,0,0,0,3.78,4.84A20.5,20.5,0,0,0,32.67,126a8,8,0,0,0,2.08,10,26.46,26.46,0,0,0,5,3.16,51.08,51.08,0,0,0-4.93,1.49,7.71,7.71,0,0,0-1,.45,8.07,8.07,0,0,0-4.22,8.4c.43,2.87,4.26,10.14,4.29,10.19a33,33,0,0,0,5.63,7.47,22.87,22.87,0,0,0,4.35,3.36,15.51,15.51,0,0,0,7.86,2.1,18.82,18.82,0,0,0,9-2.36c.71.65,1.49,1.4,2.36,2.26.22,1.18.44,2.36.65,3.54l0,.14c.09.47.17.94.25,1.41,0,.16.05.32.08.47s.05.26.07.39a8,8,0,0,0,5.07,6.18,8.52,8.52,0,0,0,8.34,0,8,8,0,0,0,3.92-8.52c0-.13-.2-1.11-.2-1.11-.66-3.75-1.37-7.51-2.11-11.2.44-12,5.41-22,8.9-27.68.36,0,.73,0,1.09,0a17,17,0,0,0,13.75-7.35,29.3,29.3,0,0,0,2.63-4.49A36.87,36.87,0,0,0,109,109.78a8,8,0,0,0-8-8.32ZM70.33,129.34c0-.17,0-.34,0-.51a6.53,6.53,0,0,1,0-.9,15.22,15.22,0,0,0,3.67-1.22c-.89,1.43-1.87,3.09-2.86,5Z"/>
    <path class="fb50c40d-4948-4fc6-ba9d-4346d07b98bc" d="M96,96.46l-.45,0c-2.33.13-10.41.84-17,4.38a34.33,34.33,0,0,0-1.33-9.12,8.7,8.7,0,0,0-.32-.9c6.75-3.6,13.46-9.79,14.85-19.25.86-1,1.7-2,2.49-3.12A50.91,50.91,0,0,0,99.91,59l0-.11a27.23,27.23,0,0,1,2.63-5.17l.12-.18c2.6-3.59,2.84-6.84.85-10.83l-.11-.23a11.92,11.92,0,0,1-.75-1.7c-1.84-11.34-6-17.07-7.82-19.08A29.58,29.58,0,0,0,70.33,9.26c-.69,0-1.37,0-2.07.06a27,27,0,0,0-9.72-4.1,40.48,40.48,0,0,0-8.71-.9h-.5A47,47,0,0,0,43,5a32.69,32.69,0,0,1-4.07.46l-.57,0c-.54-.05-1.2-.11-2-.11a11,11,0,0,0-7,2.36A16.64,16.64,0,0,0,25,13.21c-.18.35-.44.82-.55,1-.91,1.24-1.75,2.3-2.56,3.22a6.26,6.26,0,0,0-.63.81,32.55,32.55,0,0,0-3,5.53A28.55,28.55,0,0,0,2.59,48.58,35,35,0,0,0,3.85,58.63l.18.78A12.77,12.77,0,0,1,4.09,61c0,.73,0,1.57.1,2.48a15.09,15.09,0,0,0,1.2,5.13A9.82,9.82,0,0,0,11.77,74l.55.48a22.49,22.49,0,0,0,2.34,1.9,30.6,30.6,0,0,0,7.14,3.77c.4.14.8.27,1.21.38a33.26,33.26,0,0,0,5.31,5.38c-1.59-.11-3.25-.17-5-.17-2.31,0-3.85.11-4,.13a8,8,0,0,0-7.27,9.35A44.41,44.41,0,0,0,18.5,112a34.75,34.75,0,0,0,3.78,4.84A20.5,20.5,0,0,0,27.67,121a8,8,0,0,0,2.08,10,26.46,26.46,0,0,0,5,3.16,51.08,51.08,0,0,0-4.93,1.49,7.71,7.71,0,0,0-1,.45,8.07,8.07,0,0,0-4.22,8.4c.43,2.87,4.26,10.14,4.29,10.19a33,33,0,0,0,5.63,7.47,22.87,22.87,0,0,0,4.35,3.36,15.51,15.51,0,0,0,7.86,2.1,18.82,18.82,0,0,0,9-2.36c.71.65,1.49,1.4,2.36,2.26.22,1.18.44,2.36.65,3.54l0,.14c.09.47.17.94.25,1.41,0,.16,0,.32.08.47s0,.26.07.39a8,8,0,0,0,5.07,6.18,8.52,8.52,0,0,0,8.34,0,8,8,0,0,0,3.92-8.52c0-.13-.2-1.11-.2-1.11-.66-3.75-1.37-7.51-2.11-11.2.44-12,5.41-22,8.9-27.68.36,0,.73,0,1.09,0A17,17,0,0,0,97.9,123.8a29.3,29.3,0,0,0,2.63-4.49A36.87,36.87,0,0,0,104,104.78a8,8,0,0,0-8-8.32ZM65.33,124.34c0-.17,0-.34,0-.51a6.53,6.53,0,0,1,0-.9,15.22,15.22,0,0,0,3.67-1.22c-.89,1.43-1.87,3.09-2.86,5Z"/>
    <g>
      <g>
        <g>
          <path class="e7cba334-5d68-48e7-bfb8-c76ac574ba77" d="M66.43,164.12a.37.37,0,0,1-.21.1h0a.39.39,0,0,1-.28-.12l-.45-.46c-4.94-5.16-8.12-7.59-9.88-8.72a9.09,9.09,0,0,0-1.75-.93.36.36,0,0,1-.26-.44.37.37,0,0,1,.44-.26l.19.07h0l.34.15h0l.42.22c.24.13.54.3.89.52a55.78,55.78,0,0,1,9.33,8.1c.39.4.79.8,1.19,1.23a.46.46,0,0,1,.08.13h0A.37.37,0,0,1,66.43,164.12Z"/>
          <path class="b5b9bce4-ac5b-446c-b53a-a74269963e72" d="M55.84,154.43a6.72,6.72,0,0,1-1.74,2.25c-2.92,2.55-7.6,4-11.15,1.93a14.2,14.2,0,0,1-2.81-2.18,25.16,25.16,0,0,1-4.28-5.71,76.18,76.18,0,0,1-3.33-7.43c0-.07,0-.1,0-.12A34,34,0,0,1,45.26,141c5,.2,8.27,2.36,10.2,7.14C56.39,150.42,56.7,152.53,55.84,154.43Z"/>
          <path class="aeab1364-d8c4-4f4c-ba1a-274ee7be62f0" d="M55.84,154.43a6.72,6.72,0,0,1-1.74,2.25c-2.92,2.55-7.6,4-11.15,1.93a14.2,14.2,0,0,1-2.81-2.18,25.16,25.16,0,0,1-4.28-5.71,76.18,76.18,0,0,1-3.33-7.43C37.27,144.84,48.28,148.82,55.84,154.43Z"/>
          <path class="b590da59-9b94-4ee6-9ea1-5e437a272b79" d="M33.52,143.62s14,2.47,21.82,10.44C55.34,154.06,42.87,146.14,33.52,143.62Z"/>
          <path class="b590da59-9b94-4ee6-9ea1-5e437a272b79" d="M38.27,142.33a5.26,5.26,0,0,1,2.13,3.14S38.45,142.63,38.27,142.33Z"/>
          <path class="b590da59-9b94-4ee6-9ea1-5e437a272b79" d="M44.57,141.77s2.57,1.81,3.5,7C48.07,148.76,46.11,143.46,44.57,141.77Z"/>
          <path class="b590da59-9b94-4ee6-9ea1-5e437a272b79" d="M35.77,148a7.93,7.93,0,0,0,4.87-1.78A50.18,50.18,0,0,1,35.77,148Z"/>
          <path class="b590da59-9b94-4ee6-9ea1-5e437a272b79" d="M39.13,152.58s5.18.15,8.64-2.88A29.32,29.32,0,0,1,39.13,152.58Z"/>
          <path class="b590da59-9b94-4ee6-9ea1-5e437a272b79" d="M44.15,157.19s5.93,0,9.66-4.18A23.38,23.38,0,0,1,44.15,157.19Z"/>
          <path class="fd08400e-6bf9-49d6-be53-b0d73a7de4d9" d="M50.88,144.33c-.79-.67-2.53-2-3.53-.94s0,2.57.7,3.45a7.64,7.64,0,0,0,2.39,1.85c.59.34,1.32.68,1.9.35C54.38,147.87,51.87,145.16,50.88,144.33Z"/>
          <path class="b590da59-9b94-4ee6-9ea1-5e437a272b79" d="M52,144.77a18.88,18.88,0,0,1,2,8.08Z"/>
        </g>
        <path class="e7cba334-5d68-48e7-bfb8-c76ac574ba77" d="M57.78,130a.49.49,0,0,1-.35-.25,61.72,61.72,0,0,0-14.28-17.61.5.5,0,0,1-.09-.69.49.49,0,0,1,.69-.08,62.55,62.55,0,0,1,14.54,17.92.48.48,0,0,1-.2.66A.48.48,0,0,1,57.78,130Z"/>
        <path class="e7cba334-5d68-48e7-bfb8-c76ac574ba77" d="M56.83,125.13a.38.38,0,0,1-.27-.33C56,119.42,58.86,113.29,59,113a.41.41,0,0,1,.53-.18.39.39,0,0,1,.18.53c0,.06-2.92,6.18-2.35,11.33a.39.39,0,0,1-.35.44A.44.44,0,0,1,56.83,125.13Z"/>
        <path class="e7cba334-5d68-48e7-bfb8-c76ac574ba77" d="M65.55,160.94a.48.48,0,0,1-.41-.48c0-22.71,14.24-39.75,14.38-39.92a.49.49,0,0,1,.75.64c-.14.16-14.13,16.94-14.15,39.28a.49.49,0,0,1-.49.49Z"/>
        <path class="b590da59-9b94-4ee6-9ea1-5e437a272b79" d="M49.81,69.61c-1.36-.61-4.5-1.88-5.1.26a2.87,2.87,0,0,0,3,3.81,2.69,2.69,0,0,0,1.12-.21,3.56,3.56,0,0,0,1.69-2.3,1.42,1.42,0,0,0,.06-1A1.33,1.33,0,0,0,49.81,69.61Z"/>
        <path class="e7cba334-5d68-48e7-bfb8-c76ac574ba77" d="M68.53,172.15c0,.17,0,.34.09.5a.51.51,0,0,1-.52,0,.6.6,0,0,1-.08-.08.45.45,0,0,1-.11-.41H67c-.05-.27-.09-.53-.15-.79-.09-.57-.19-1.14-.3-1.72-1.61-9-3.51-17.92-5.66-26.75-1.19-4.88-2.71-9.7-4.2-14.38h0c-.16-.48-.3-1-.46-1.44-.26-.82-.53-1.64-.79-2.47-1.43-4.47-2.85-9.06-4-13.72A183.6,183.6,0,0,1,48.08,92.1q-.55-4.06-.94-7.87c-.2-1.89-.37-3.76-.5-5.58h0c-.14-1.66-.24-3.29-.32-4.9,0-.1,0-.21,0-.31,0-.7-.08-1.4-.1-2.1a.74.74,0,0,1,.71-.76,33.38,33.38,0,0,1,3.43,1c1.87.59,3.81,1.29,3.82,1.5s0,.35,0,.51a10.82,10.82,0,0,1-1.72,5.6,16.09,16.09,0,0,0-2.34,5.52,12,12,0,0,0,0,3.56c.93,6.87,1.46,16.63,2.82,22.29,1,4.19,2.27,8.33,3.56,12.39h0c.23.72.45,1.43.68,2.13.17.52.32,1,.49,1.55,1.65,5.16,3.36,10.49,4.69,15.93q1.6,6.56,3,13.2v0c.27,1.24.54,2.48.79,3.72v0q1.22,5.92,2.25,11.87C68.44,171.63,68.48,171.89,68.53,172.15Z"/>
        <path class="b6c6abfc-843b-4b9e-add0-93eebcc56812" d="M69.77,107.52c-.68,2.56-1.32,5.22-3.73,6.67a7.19,7.19,0,0,1-3.7,1,7.56,7.56,0,0,1-2.58-.43,7.92,7.92,0,0,1-.94-.42,6.79,6.79,0,0,1-1.71-1.27A10,10,0,0,1,55,110a9.1,9.1,0,0,1-.07-7.32c1.59-3.42,5.17-5.52,8.52-6.88.35-.14,6-2.11,6.09-1.81A25.42,25.42,0,0,1,69.77,107.52Z"/>
        <path class="f6ed459c-400f-4ea4-af9b-37eb60184a98" d="M35.54,122.53s0,0,0,.08l-.08-.06Z"/>
        <path class="ab4fdf8c-3f75-4b37-b470-69c5da72692a" d="M40.28,81.53c-.19.39-.34.78-.49,1.18A3.29,3.29,0,0,1,40.28,81.53Z"/>
        <path class="afa82292-4d31-43b3-92c0-bd3f248626e1" d="M69.77,107.52c-.68,2.56-1.32,5.22-3.73,6.67a7.19,7.19,0,0,1-3.7,1l-2.58-.43-1-.17a.91.91,0,0,1,.07-.25C62.86,99.75,69.58,94,69.58,94A25.42,25.42,0,0,1,69.77,107.52Z"/>
        <path class="b590da59-9b94-4ee6-9ea1-5e437a272b79" d="M68.85,94.66s-9,8-10.1,20C58.75,114.61,62.11,102,68.85,94.66Z"/>
        <path class="b590da59-9b94-4ee6-9ea1-5e437a272b79" d="M64.53,96.55s-.75,2,0,3.1C64.57,99.65,63.26,99,64.53,96.55Z"/>
        <path class="b590da59-9b94-4ee6-9ea1-5e437a272b79" d="M56.1,104.24c0-.16-.23,4.38,3.53,6.41C59.63,110.65,56.24,107.48,56.1,104.24Z"/>
        <path class="b590da59-9b94-4ee6-9ea1-5e437a272b79" d="M64.86,100a3.26,3.26,0,0,0,3.72-.2A7.31,7.31,0,0,1,64.86,100Z"/>
        <path class="b590da59-9b94-4ee6-9ea1-5e437a272b79" d="M62.31,105a6.81,6.81,0,0,0,6,.1A10.79,10.79,0,0,1,62.31,105Z"/>
        <path class="b590da59-9b94-4ee6-9ea1-5e437a272b79" d="M59.94,110.72a8,8,0,0,0,7.13,0S63,111.77,59.94,110.72Z"/>
        <path class="e5c27f50-6c31-4e22-93d6-7724a4002de6" d="M55.14,64.58A11.69,11.69,0,0,1,53.9,67a8.61,8.61,0,0,1-3.81,3.61c-3.22.19-6.75-2.43-8.21-5.19a7.56,7.56,0,0,1,1-6.87A35.44,35.44,0,0,1,45.72,56a23.22,23.22,0,0,1-1.08,3.34,8,8,0,0,0-.57,3.45,3.48,3.48,0,0,0,1.83,2.82,1.86,1.86,0,0,0,.8.2A2.43,2.43,0,0,0,48.81,64a23.24,23.24,0,0,0,.61-2.87A6.89,6.89,0,0,1,51.08,58a12.84,12.84,0,0,0-.39,5c.05,1.67-.08,3.5-1.17,4.78a3.45,3.45,0,0,0,2.6-1.07,8.67,8.67,0,0,0,2.42-3.57,17.12,17.12,0,0,0,.61-2.34l.54-2.62A16.81,16.81,0,0,1,55.14,64.58Z"/>
        <path class="f1138ff3-4ba3-4445-aad6-2fb2931e1c84" d="M62.55,98.83c-1.08-1.55-3.45.6-4.26,1.49a7,7,0,0,0-1.88,3.86c-.1,2.09,2.17.3,2.92-.17a7.57,7.57,0,0,0,3.22-3.31A1.91,1.91,0,0,0,62.55,98.83Z"/>
        <path class="b590da59-9b94-4ee6-9ea1-5e437a272b79" d="M59.85,98.89a7.15,7.15,0,0,0,1.81,5.64A13.9,13.9,0,0,1,59.85,98.89Z"/>
        <g>
          <g>
            <path class="b6c6abfc-843b-4b9e-add0-93eebcc56812" d="M40.57,114.35a7.05,7.05,0,0,0,2.88-2.4,10.58,10.58,0,0,0,1.65-6.55,11.7,11.7,0,0,0-.87-3.69c-3.38-9.46-24.29-7.86-24.29-7.86a36.49,36.49,0,0,0,5.26,13.74,27.38,27.38,0,0,0,2.93,3.77C31.26,114.72,36.19,116.36,40.57,114.35Z"/>
            <path class="afa82292-4d31-43b3-92c0-bd3f248626e1" d="M40.57,114.35a7.05,7.05,0,0,0,2.88-2.4C33.9,102,19.94,93.85,19.94,93.85a36.49,36.49,0,0,0,5.26,13.74,27.38,27.38,0,0,0,2.93,3.77C31.26,114.72,36.19,116.36,40.57,114.35Z"/>
            <path class="b590da59-9b94-4ee6-9ea1-5e437a272b79" d="M20.7,94.31c-.18-.1,14.44,6.69,22.11,17.2C42.81,111.51,31.67,100.25,20.7,94.31Z"/>
            <path class="b590da59-9b94-4ee6-9ea1-5e437a272b79" d="M26.73,94.68a7,7,0,0,1,1.86,4.1A3.52,3.52,0,0,0,26.73,94.68Z"/>
            <path class="b590da59-9b94-4ee6-9ea1-5e437a272b79" d="M28.53,99.32s-2.85,2.2-5.44,1.22C23.09,100.54,27,100.49,28.53,99.32Z"/>
            <path class="b590da59-9b94-4ee6-9ea1-5e437a272b79" d="M35.15,104.37s-3.43,3-7.64,2.32C27.51,106.69,33.47,105.85,35.15,104.37Z"/>
            <path class="b590da59-9b94-4ee6-9ea1-5e437a272b79" d="M40.36,109.52a10.84,10.84,0,0,1-8.59,2.57S38.78,111.24,40.36,109.52Z"/>
            <path class="f1138ff3-4ba3-4445-aad6-2fb2931e1c84" d="M33.38,100c-.56-.74-.74-1.48-.11-2.15a2.46,2.46,0,0,1,1.07-.71,5.22,5.22,0,0,1,3.67.88,9.29,9.29,0,0,1,3,3.2,2.76,2.76,0,0,1,.5,1.39,1.08,1.08,0,0,1-.83,1.09,1.81,1.81,0,0,1-1.09-.38,23.84,23.84,0,0,0-3.3-1.36A6.39,6.39,0,0,1,33.38,100Z"/>
            <path class="b590da59-9b94-4ee6-9ea1-5e437a272b79" d="M33.68,96.35s2.16,2.2,1.47,8A34.72,34.72,0,0,0,33.68,96.35Z"/>
            <path class="b590da59-9b94-4ee6-9ea1-5e437a272b79" d="M40.33,99.06s2.88,4.21.31,10.13C40.64,109.19,41.89,102.73,40.33,99.06Z"/>
          </g>
          <g>
            <path class="b6c6abfc-843b-4b9e-add0-93eebcc56812" d="M81.92,122.81a5.67,5.67,0,0,1-2.53-1.58,8.41,8.41,0,0,1-2-5,9.45,9.45,0,0,1,.29-3c1.67-7.82,18.32-8.78,18.32-8.78a28.87,28.87,0,0,1-2.69,11.39,21.18,21.18,0,0,1-1.91,3.29C89.29,122.12,85.58,123.94,81.92,122.81Z"/>
            <path class="afa82292-4d31-43b3-92c0-bd3f248626e1" d="M81.92,122.81a5.67,5.67,0,0,1-2.53-1.58C85.87,112.4,96,104.46,96,104.46a28.87,28.87,0,0,1-2.69,11.39,21.18,21.18,0,0,1-1.91,3.29C89.29,122.12,85.58,123.94,81.92,122.81Z"/>
            <path class="b590da59-9b94-4ee6-9ea1-5e437a272b79" d="M95.45,104.91c.14-.1-10.67,6.8-15.61,15.9C79.84,120.81,87.44,110.75,95.45,104.91Z"/>
            <path class="b590da59-9b94-4ee6-9ea1-5e437a272b79" d="M90.74,105.84a5.47,5.47,0,0,0-1,3.43A2.8,2.8,0,0,1,90.74,105.84Z"/>
            <path class="b590da59-9b94-4ee6-9ea1-5e437a272b79" d="M89.81,109.69s2.48,1.43,4.42.38C94.23,110.07,91.14,110.45,89.81,109.69Z"/>
            <path class="b590da59-9b94-4ee6-9ea1-5e437a272b79" d="M85.13,114.37a8.12,8.12,0,0,0,6.27,1S86.61,115.36,85.13,114.37Z"/>
            <path class="b590da59-9b94-4ee6-9ea1-5e437a272b79" d="M81.57,119a8.58,8.58,0,0,0,7,1.12S83,120.17,81.57,119Z"/>
            <path class="f1138ff3-4ba3-4445-aad6-2fb2931e1c84" d="M86.07,110.77c.35-.65.42-1.25-.14-1.71a2,2,0,0,0-.93-.44,4.13,4.13,0,0,0-2.8,1.08,7.39,7.39,0,0,0-2,2.84,2.22,2.22,0,0,0-.25,1.15.86.86,0,0,0,.77.77,1.46,1.46,0,0,0,.82-.41A19.27,19.27,0,0,1,84,112.63,5.19,5.19,0,0,0,86.07,110.77Z"/>
            <path class="b590da59-9b94-4ee6-9ea1-5e437a272b79" d="M85.44,107.89s-1.47,2-.31,6.48A27.54,27.54,0,0,1,85.44,107.89Z"/>
            <path class="b590da59-9b94-4ee6-9ea1-5e437a272b79" d="M80.48,110.74a8.64,8.64,0,0,0,.83,8S79.64,113.79,80.48,110.74Z"/>
          </g>
          <g>
            <path class="e7cba334-5d68-48e7-bfb8-c76ac574ba77" d="M53.93,124.09a.22.22,0,0,0-.18-.19,28,28,0,0,0-6.13-.25.21.21,0,1,0,0,.42,27.12,27.12,0,0,1,6,.25.21.21,0,0,0,.24-.18Z"/>
            <path class="b6c6abfc-843b-4b9e-add0-93eebcc56812" d="M48.39,125.51a3.39,3.39,0,0,0,.27-1.75,5.06,5.06,0,0,0-1.47-2.82,5.7,5.7,0,0,0-1.45-1c-4.15-2.27-11,4.82-11,4.82a17.33,17.33,0,0,0,6.14,3.19,11.79,11.79,0,0,0,2.21.41A5.13,5.13,0,0,0,48.39,125.51Z"/>
            <path class="afa82292-4d31-43b3-92c0-bd3f248626e1" d="M48.39,125.51a3.39,3.39,0,0,0,.27-1.75,60.06,60.06,0,0,0-13.93,1,17.33,17.33,0,0,0,6.14,3.19,11.79,11.79,0,0,0,2.21.41A5.13,5.13,0,0,0,48.39,125.51Z"/>
            <path class="b590da59-9b94-4ee6-9ea1-5e437a272b79" d="M35.15,124.65c-.1,0,7.16-2.15,13.14-.84A53.72,53.72,0,0,0,35.15,124.65Z"/>
            <path class="b590da59-9b94-4ee6-9ea1-5e437a272b79" d="M37.38,122.9a3.29,3.29,0,0,1,1.94.86A1.67,1.67,0,0,0,37.38,122.9Z"/>
            <path class="b590da59-9b94-4ee6-9ea1-5e437a272b79" d="M39.47,124a3.06,3.06,0,0,1-1.54,2.13A5.87,5.87,0,0,0,39.47,124Z"/>
            <path class="b590da59-9b94-4ee6-9ea1-5e437a272b79" d="M43.37,123.68a4.77,4.77,0,0,1-2,3.2S43.24,124.73,43.37,123.68Z"/>
            <path class="b590da59-9b94-4ee6-9ea1-5e437a272b79" d="M46.81,123.87a5.1,5.1,0,0,1-2.22,3.59S46.79,125,46.81,123.87Z"/>
            <path class="f1138ff3-4ba3-4445-aad6-2fb2931e1c84" d="M41.39,122.71c-.42-.09-.72-.29-.71-.72a1.33,1.33,0,0,1,.16-.59,2.48,2.48,0,0,1,1.57-.83,4.34,4.34,0,0,1,2.05.19,1.3,1.3,0,0,1,.61.33.53.53,0,0,1,0,.65.8.8,0,0,1-.5.2,11.5,11.5,0,0,0-1.59.55A2.9,2.9,0,0,1,41.39,122.71Z"/>
            <path class="b590da59-9b94-4ee6-9ea1-5e437a272b79" d="M40.35,121.32s1.45.1,3,2.36A16.58,16.58,0,0,0,40.35,121.32Z"/>
            <path class="b590da59-9b94-4ee6-9ea1-5e437a272b79" d="M43.54,120.2a5.12,5.12,0,0,1,3.27,3.47S45.23,121,43.54,120.2Z"/>
          </g>
        </g>
      </g>
      <g>
        <path class="ae88b806-7c79-4abf-9c03-7eb226c431f2" d="M27.43,37.49a15,15,0,0,1-1.09-3.55,14.94,14.94,0,0,0,.05-2.22c-.49-2.09-2.17-1.93-3.79-1.18a21.16,21.16,0,0,0-4.78,3A21.32,21.32,0,0,0,10.58,49a31,31,0,0,0,1.25,8.6,35.72,35.72,0,0,1,.33,5.17,7.83,7.83,0,0,0,.53,2.53c.44,1,1.42,1,2.3,1.33,1.65.68,2.76,2.17,4.2,3.16a22.57,22.57,0,0,0,5.26,2.81,14.15,14.15,0,0,0,8.2.34,1.66,1.66,0,0,0,.86-.42,1.8,1.8,0,0,0,.32-1.25c0-2.28,0-4.56-.1-6.85a62.82,62.82,0,0,0-1.34-13.56C31.23,46.24,29,42,27.43,37.49Z"/>
        <path class="ae88b806-7c79-4abf-9c03-7eb226c431f2" d="M84,66.36c1.41,15.69-17.92,20.12-17.92,20.12a24,24,0,0,0-5.89,2.24c-1.89.88-3.17-1-4.73-1.89A19.79,19.79,0,0,0,51.38,85a17,17,0,0,0-4.12-.78,31.77,31.77,0,0,1-13-3.84,26.08,26.08,0,0,1-5-4.9A20.08,20.08,0,0,1,27,71.86a17.69,17.69,0,0,1-1.4-4.58,17.44,17.44,0,0,1,1.17-9.65l1.36.6,3.29,1.45L52.52,69Z"/>
        <path class="a7f23f61-5d30-4240-af6e-ba66e5ecf878" d="M33.79,41.4q-1,3-2.24,6A16.88,16.88,0,0,0,30,52.52a14.35,14.35,0,0,0,.77,5c.2.73.43,1.46.66,2.19l-4.65-2a17.44,17.44,0,0,0-1.17,9.65,31.16,31.16,0,0,1-4.07-9.46,24.74,24.74,0,0,1-.13-12.06,18,18,0,0,1,4.26-7.94c1.81-1.87,5.81-4.58,8-1.81C34.88,37.47,34.38,39.62,33.79,41.4Z"/>
        <path class="b16b0933-cd28-4733-b42a-13a63ea0e44f" d="M69.14,25.07,28.08,47.59a1.72,1.72,0,0,1-.14-.2c-1-1.39-6.69-9.93-2.38-20.35A24.71,24.71,0,0,1,27.9,22.7c1.06-1.21,2.06-2.48,3-3.77,1.13-1.53,1.84-3.84,3.37-5,1.37-1.08,3-.45,4.7-.47,3.49-.06,6.92-1.05,10.45-1.09a33.26,33.26,0,0,1,7.39.71,18.36,18.36,0,0,1,7.84,3.59,12.52,12.52,0,0,1,2.89,3.5C67.82,20.6,69.7,24.76,69.14,25.07Z"/>
        <path class="ecced5e9-323d-4c10-8d56-4ef39ea14781" d="M28.26,73.08,27,71.86a17.69,17.69,0,0,1-1.4-4.58,17.44,17.44,0,0,1,1.17-9.65l1.36.6.3.6S23.61,62.78,28.26,73.08Z"/>
        <path class="ecced5e9-323d-4c10-8d56-4ef39ea14781" d="M29.34,46.37l-1.4,1A21.37,21.37,0,0,1,26,27.24S23.4,38.11,29.34,46.37Z"/>
        <path class="a7f23f61-5d30-4240-af6e-ba66e5ecf878" d="M31,64.31c-.35,4.2,2.35,8.22,5.91,10.47a28.84,28.84,0,0,0,10.43,4,30.32,30.32,0,0,0,14.93-1.33c4.32-1.59,8.89-3.21,11.94-6.88,1.83-2.21,4.33-6.86,3.62-9.83-1.36-.39-2.89.26-4.15.79-5.75,2.39-11.31,5.26-17.23,7.19a24.38,24.38,0,0,1-9,1.48c-5.74-.35-10.76-3.82-16.28-5.41-.3-.09-.67-.25-.66-.56s.66-.15.42,0Z"/>
        <path class="fdc496e3-4030-4e0a-8127-7fa09be71c8f" d="M32.46,46.6a8.49,8.49,0,0,0,4.23-.34c9.13-2.54,16.94-8.74,22.77-16.21,1.76-2.25,3.43-5.22,2.26-7.83a5.53,5.53,0,0,0-3.57-2.84,13.15,13.15,0,0,0-4.68-.29c-6.59.52-13.23,2.7-18.09,7.18a23.33,23.33,0,0,0-6.1,9.82C28.22,39.43,28,45.52,32.46,46.6Z"/>
        <path class="b16b0933-cd28-4733-b42a-13a63ea0e44f" d="M96.1,49a34.33,34.33,0,0,0-3.54,6.8,43.55,43.55,0,0,1-4.7,7.92C82.14,71.48,71.2,81,55.35,72.64l-.21-.11,15.73-22L69.8,33.59,58.23,19.84S77.11,10.7,88.7,26.78c0,0,4.32,4.09,6.12,15.34a15.27,15.27,0,0,0,1.55,4.06C97.13,47.7,97.07,47.65,96.1,49Z"/>
        <path class="ecced5e9-323d-4c10-8d56-4ef39ea14781" d="M88,63.11c0,.21-.11.41-.17.61C82.14,71.48,71.2,81,55.35,72.64a6.3,6.3,0,0,1,1.84.11c7.33,1.28,15.21,1,21.75-2.48A42.71,42.71,0,0,0,88,63.11Z"/>
        <path class="fdc496e3-4030-4e0a-8127-7fa09be71c8f" d="M67.33,22.51a18.91,18.91,0,0,0,2,5.22C72,33.41,72.21,40,71.06,46.15s-3.53,12-5.89,17.82c-.45,1.09-6.26,6.41-6,7.56.39,1.76,8.09-1.67,8.94-2a23.74,23.74,0,0,0,10.7-8.71c4.25-6.39,6-14.47,3.8-21.92s-7.76-14.58-14.91-17.4a1.72,1.72,0,0,0-.29,1.42Z"/>
        <path class="b16b0933-cd28-4733-b42a-13a63ea0e44f" d="M33.41,40.87c-1-.72-5.17,5-5.48,5.49a15.75,15.75,0,0,0-2,7.55,19,19,0,0,0,2.42,10.18c1.39,2.48,2.14,6.67,4.67,8.33,2.14,1.4,6.61.52,9.18.93,0,0,27.29,4.31,29.33-13.1l-21.07,1L41.25,46.75Z"/>
        <path class="fdc496e3-4030-4e0a-8127-7fa09be71c8f" d="M34.6,45.15a11.16,11.16,0,0,0-1.17,9.14,21.82,21.82,0,0,0,4.74,8.16,15.28,15.28,0,0,0,2.17,2.16,14.83,14.83,0,0,0,5.92,2.53A32.13,32.13,0,0,0,64.62,65.9c2.71-1,5.5-2.64,6.46-5.37a26,26,0,0,0-4.51.92,24.08,24.08,0,0,1-12.91-.11A16,16,0,0,1,43.9,53.2c-.87-1.87-1.34-4-2.68-5.54a10.53,10.53,0,0,0-3.85-2.56,4,4,0,0,0-1.61-.45,1.49,1.49,0,0,0-1.37.81Z"/>
        <path class="b001cd85-2a39-401c-8f16-43d50b9ab92d" d="M74.75,41.09a34.9,34.9,0,0,1-2,6L60.14,33.88l-15.2-3.67a13.94,13.94,0,0,1,2-6.36c2.37-3.6,7.14-7.12,16.55-4.49C63.49,19.36,78.72,24.09,74.75,41.09Z"/>
        <path class="fdfaf1a0-b859-407d-bf21-b020b043dd00" d="M39.45,47.8s0,10,7.31,14.64l18.49-7.86,5.1-12.47-9.37,5Z"/>
        <path class="fdfaf1a0-b859-407d-bf21-b020b043dd00" d="M66,42.38C63.44,52.58,52.17,52,52.17,52c-21.64,0-20.92-13.31-20.92-13.31a11.4,11.4,0,0,1,3-6.32c4-4.2,10.66-4.11,13.06-3.92.57,0,.9.09.9.09C65.86,27.21,66,42.38,66,42.38Z"/>
        <path class="f6ed459c-400f-4ea4-af9b-37eb60184a98" d="M51.45,25.88c-.14-.8,6.2-.77,6.61-.7,6.51,1,11.93,7.89,11.38,14.48a11,11,0,0,1-2.86,6.52,15.15,15.15,0,0,1-4,3c-.56.31-6.35,2.61-6.4,2.35Z"/>
        <path class="fdc496e3-4030-4e0a-8127-7fa09be71c8f" d="M60.74,48.63A9,9,0,0,0,66.37,44a3.58,3.58,0,0,0,.37-1.84,1.93,1.93,0,0,0-1-1.53,2.67,2.67,0,0,0-1.35-.16,43.63,43.63,0,0,0-5.28,1.05,21.7,21.7,0,0,1-5.57.39,6.61,6.61,0,0,1-3.77-1.13c-2.2-1.74-2.74-6-6-6.25a4.54,4.54,0,0,0-4,2.15,7.23,7.23,0,0,0-1,4.61A10.55,10.55,0,0,0,39.93,45a6.79,6.79,0,0,0,1.4,2.29c1.27,1,3.08,1.14,4.6,1.5a32.71,32.71,0,0,0,5.57,1A25.62,25.62,0,0,0,60.74,48.63Z"/>
        <path class="b16b0933-cd28-4733-b42a-13a63ea0e44f" d="M74.69,55.61a14.05,14.05,0,0,1-9.08,8.88A21.44,21.44,0,0,1,49,63.41c-1.17-.58-3.76-1.61-4.45-2.75,0,0-1.3-2.2,8.81-4.71,0,0,16.47-3.85,16-18.87,0,0,.07.1.16.18.36.32,1.19.87,1.3,1a16.5,16.5,0,0,1,3,3.49A15.37,15.37,0,0,1,74.69,55.61Z"/>
        <path class="eaa0da2d-4e5d-4456-957d-487d16c441fd" d="M47.61,29.91a.85.85,0,0,1-.45.53,1.59,1.59,0,0,1-1,0,15.5,15.5,0,0,0-8.88.81,5.83,5.83,0,0,0-2.71,2,1.11,1.11,0,0,1-.4.13,2.47,2.47,0,0,1,.08-1c4-4.2,10.66-4.11,13.06-3.92A1.55,1.55,0,0,1,47.61,29.91Z"/>
        <path class="fdfaf1a0-b859-407d-bf21-b020b043dd00" d="M60.06,46.9c-.25.88-.58,1.79-1,2.73-.17.39-.33.8-.52,1.2,0,0-6,2.61-16.8-.21a9,9,0,0,0,.72-1.19,26.5,26.5,0,0,0,2.78-8.55,34.7,34.7,0,0,0,.42-4s-.8-7.52,2-10.2c0,0,7.38-2.75,12.27,5.35C60,32.08,62.74,38,60.06,46.9Z"/>
        <path class="eaa0da2d-4e5d-4456-957d-487d16c441fd" d="M46.11,31.37A11.22,11.22,0,0,0,46.72,36a7.5,7.5,0,0,0,.69,1.59,7,7,0,0,0,.83,1.06,9.27,9.27,0,0,0,6.29,2.82,5,5,0,0,0,4.34-1.78c.53-.73,1.27-1.33,1.37-2.25a8.33,8.33,0,0,0,.08-2.49,10.08,10.08,0,0,0-1.12-3.56A16.38,16.38,0,0,0,57,29.14a12,12,0,0,0-1.73-1.36,9.1,9.1,0,0,0-2-1.11A6.8,6.8,0,0,0,51,26.31a6.38,6.38,0,0,0-2.82.62C46.57,27.67,46.27,29.8,46.11,31.37Z"/>
        <path class="a7f23f61-5d30-4240-af6e-ba66e5ecf878" d="M57.14,39.47a5.82,5.82,0,0,1-4.54-.17c-1.65-.94-2-2.74-2-4.43a4.18,4.18,0,0,1,.35-1.7,5.4,5.4,0,0,1,2.63-2.87,4.16,4.16,0,0,1,3.82.12c2.13,1.26,3.44,4.56,2.26,6.83a4.94,4.94,0,0,1-1.09,1.46A4.24,4.24,0,0,1,57.14,39.47Z"/>
        <path class="eaa0da2d-4e5d-4456-957d-487d16c441fd" d="M58.27,38.45c-1,.92-3.21,1.17-3.66-.47a4.06,4.06,0,0,1,.14-2.73,2.88,2.88,0,0,1,2.1-1.67,2.24,2.24,0,0,1,2.34,1.15A2.65,2.65,0,0,1,59.41,36,3.62,3.62,0,0,1,58.27,38.45Z"/>
        <path class="eaa0da2d-4e5d-4456-957d-487d16c441fd" d="M74.29,40.54c0-1.45.42-2.41.23-3.89A18.51,18.51,0,0,0,63,21.26a13.58,13.58,0,0,0-3.44-.93,16,16,0,0,0-6.23.55c-2.27.62-4.07,2-6,3.38,2.37-3.6,6.72-7.53,16.13-4.9C63.49,19.36,78.25,23.55,74.29,40.54Z"/>
        <path class="eaa0da2d-4e5d-4456-957d-487d16c441fd" d="M71.91,44.54A11.78,11.78,0,0,1,69.1,52.3a16,16,0,0,1-2.55,2.31,21.18,21.18,0,0,1-6.28,3.11c-4.34,1.31-9,1.17-13.39,2.35a10.56,10.56,0,0,1-1.91.55s-1.71-1.79,8.41-4.3c0,0,16.46-3.84,16-18.86a.76.76,0,0,0,.17.18A11.87,11.87,0,0,1,71.91,44.54Z"/>
        <path class="a2d2f549-78ce-4a60-adde-6acce142fd87" d="M34.46,33.35a.56.56,0,0,1,.1-.15l.17-.11Z"/>
        <path class="f6ed459c-400f-4ea4-af9b-37eb60184a98" d="M60.06,46.9c-.25.88-.58,1.79-1,2.73l-.1.06a9.71,9.71,0,0,1-3.64,1.11,34.92,34.92,0,0,1-9.79-.22,5.74,5.74,0,0,1-3.07-1.15,26.5,26.5,0,0,0,2.78-8.55c.13,3,2.6,5.73,5.53,6.69A13.84,13.84,0,0,0,60.06,46.9Z"/>
        <path class="eaa0da2d-4e5d-4456-957d-487d16c441fd" d="M36.14,30.77s-6.95,7.84,3.75,16.07c0,0,12.21,6.84,25.18.74a15,15,0,0,1-2.69,1.65,30.17,30.17,0,0,1-7.17,2.54,25.92,25.92,0,0,1-10.63-.26c-4.3-.95-9-3.12-11.31-6.65a11.54,11.54,0,0,1-2-6.3C31.25,35.19,33.44,32.54,36.14,30.77Z"/>
      </g>
    </g>
  </g>
</svg>
