<svg id="a99e8cea-1ea5-457f-82ae-b705ddeff90d" data-name="Layer 1" xmlns="http://www.w3.org/2000/svg" width="160.1" height="166.71" viewBox="0 0 160.1 166.71">
  <defs>
    <style>
      .e6271ccf-af72-403a-9e1a-6a5ebc21ba3b {
        opacity: 0.5;
      }

      .abb9a1f9-6689-4f30-b307-169318e75786, .e9ba99a6-cd3a-45fc-b12b-fb5a5dd9e3c7, .eecdcfd9-c964-41e0-be74-44ea4d10fdc3 {
        fill: #fff;
      }

      .af7c0990-8c75-48f9-b7d0-bbd42adec050 {
        fill: #c40e0e;
      }

      .a196245d-be5e-4e9e-8fa1-3b95afd6b13a {
        fill: #eb1413;
      }

      .a7f47140-68e9-4cd2-b94a-fb9edaf413a2 {
        fill: #870100;
      }

      .a7f47140-68e9-4cd2-b94a-fb9edaf413a2, .eecdcfd9-c964-41e0-be74-44ea4d10fdc3 {
        opacity: 0.69;
      }

      .a25e81b5-7fbf-407a-ae16-f202c2189774 {
        fill: #319422;
      }

      .b197cca0-5127-4e4c-8add-aebc82e87bdb {
        fill: #30cf64;
      }

      .eacd11bf-514c-4764-908e-924451f0da14 {
        fill: #2d871f;
      }

      .bb4cb7a7-c747-4d3a-8006-8d1e90183cd9 {
        fill: #2e8a20;
      }

      .e9ba99a6-cd3a-45fc-b12b-fb5a5dd9e3c7 {
        opacity: 0.6;
      }

      .bef6f06f-500c-4853-95f9-b940616a5308 {
        fill: #2ec45f;
      }

      .a9ebfb04-5144-4668-9619-b3948e8685f8 {
        fill: #d5e876;
      }

      .ebd75ecf-3d51-476c-b164-6e5872caf25a {
        fill: #becf69;
      }

      .f037e060-62b4-4919-8e47-4dec33c1fdf5 {
        fill: #ff6c6b;
      }

      .ac79c7df-9608-4da7-9b1b-a76c4c7f4242 {
        fill: #fa5150;
      }
    </style>
  </defs>
  <g>
    <path class="e6271ccf-af72-403a-9e1a-6a5ebc21ba3b" d="M80.48,162.39a74.73,74.73,0,0,1-49.46-19A66.1,66.1,0,0,1,8.74,93.81c0-23.53,12.72-45.05,32.91-57.54l-.12-.42a7.34,7.34,0,0,1,4.14-8.42,30.58,30.58,0,0,1,11.61-2.38H58c.18-5,4.29-10.06,12.23-15a7.37,7.37,0,0,1,3.9-1.11,7.21,7.21,0,0,1,3.23.75c4.22,2.06,7.08,6.78,9.41,15.82a81.69,81.69,0,0,1,13.6,2.29,56,56,0,0,1,14.76-2.56h.06a7.35,7.35,0,0,1,6.3,11.15C142.81,48.68,156,69.36,156,91.92c0,42.6-25.28,67.58-71.18,70.34-1.42.09-2.86.13-4.28.13Z"/>
    <path class="abb9a1f9-6689-4f30-b307-169318e75786" d="M75.89,157.79a74.73,74.73,0,0,1-49.47-19A66.11,66.11,0,0,1,4.15,89.22c0-23.54,12.72-45.06,32.9-57.55,0-.14-.08-.27-.11-.42a7.33,7.33,0,0,1,4.13-8.42,30.8,30.8,0,0,1,11.61-2.38h.76c.18-5,4.29-10.06,12.23-15a7.36,7.36,0,0,1,7.14-.37C77,7.14,79.88,11.86,82.22,20.9a81.55,81.55,0,0,1,13.59,2.28,57,57,0,0,1,14.77-2.56h.06a7.36,7.36,0,0,1,6.29,11.15c21.29,12.31,34.43,33,34.43,55.56,0,42.6-25.28,67.58-71.18,70.33-1.42.09-2.86.13-4.29.13Z"/>
    <g>
      <path class="af7c0990-8c75-48f9-b7d0-bbd42adec050" d="M144,87.33c0,34.34-17.55,60.19-64.27,63-34.28,2-68.23-23.71-68.23-61.11C11.5,54.87,41.43,28,75.77,28S144,53,144,87.33Z"/>
      <path class="a196245d-be5e-4e9e-8fa1-3b95afd6b13a" d="M139.34,85.77c0,31.65-20,52.75-60.82,55.92-31.41,2.44-64.16-22.9-64.16-54.55S44.45,28.6,76,28.6,139.34,54.13,139.34,85.77Z"/>
      <path class="a7f47140-68e9-4cd2-b94a-fb9edaf413a2" d="M56.82,31.53s1.15-2.3,5.85,1c5.18,3.68,11.91,11.37,15.15,8.57,15.09-13,23.55-8.58,23.55-8.58S90.47,38.07,86.66,47c-1.73,4,22,1.26,17.92,18.62,0,0-.5-3-4.39-6.27C94,54.18,85.28,52.41,77.82,53.58c-9,1.43-21.65,9.14-20.35,26.09,0,0-9.32-23.17,10.11-28.5,0,0-9.19-1.22-15.68-.39-3.43.44-13,4.49-16.29,12.31,0,0,3.53-14.55,15.7-16.85C55,45.53,63.51,44,63.51,44s.55-3.13-4.39-9.72C56.3,30.48,56.82,31.53,56.82,31.53Z"/>
      <path class="a25e81b5-7fbf-407a-ae16-f202c2189774" d="M44.07,29.54s11-4.91,18.5,1.78c4.75,4.22,12,12.62,15.25,9.82A55.71,55.71,0,0,1,110.64,28S86.39,35.81,85.46,45.57c-.42,4.36,27.06.59,22.56,21.59,0,0-2.62-9.87-10.22-12.8C88.06,50.59,82.7,52,75.42,54c-10.66,2.9-23.56,11.28-22.26,28.22,0,0-5-25.71,14.42-31a32.86,32.86,0,0,0-13.79-2.94c-3.46,0-20.88,3.27-24.14,11.09a29.81,29.81,0,0,1,23.51-16c5.65-.63,13.8,2.19,13.8,2.19a66.51,66.51,0,0,0-7.84-11.29C54.63,28.92,44.07,29.54,44.07,29.54Z"/>
      <path class="b197cca0-5127-4e4c-8add-aebc82e87bdb" d="M54.57,29.7s3.44-1.15,11,5.54c4.75,4.22,5.68,13.13,9.71,9.51,14.84-13.32,25.37-14,25.37-14S84.35,36.89,83.26,46.63c-.32,2.79,20.9,1.29,22.46,12.38,0,0-1.41-2-5.71-4.41-7.74-4.37-19.84-4.46-24.76-3.11C64.6,54.4,60.25,59.28,54,68.73c0,0,2.19-13.72,18.18-17.87,0,0-7.84-4.12-16.3-4.23-3.46-.05-8.15-.84-17.24,4.23a20.4,20.4,0,0,1,14.89-6.58c6.23.08,15.36,2.35,15.36,2.35A72.35,72.35,0,0,0,62.25,35C58.39,29.22,54.57,29.7,54.57,29.7Z"/>
      <path class="eacd11bf-514c-4764-908e-924451f0da14" d="M80.91,46.13c1.32,1.76-1.19,4.68-4.36,5.84s-7.35.55-7.1-1.63c.44-3.82,3.62-4.77,5.8-5.59C78.41,43.55,79.26,44,80.91,46.13Z"/>
      <path class="bb4cb7a7-c747-4d3a-8006-8d1e90183cd9" d="M60.79,21s10.53,12.3,10.43,27.4c0,0,5.47,3.18,7.77-1.5,0,0-2.78-31.94-9.42-35.2C69.57,11.67,60.54,17.32,60.79,21Z"/>
      <path class="e9ba99a6-cd3a-45fc-b12b-fb5a5dd9e3c7" d="M62.15,20.87s11,13,10.67,28.05a7.84,7.84,0,0,0,1.77-1.51c-1.31-10.29-4-22.08-8.75-31.06A10.13,10.13,0,0,0,62.15,20.87Z"/>
      <path class="bef6f06f-500c-4853-95f9-b940616a5308" d="M69.89,14.5a12.41,12.41,0,0,0-4,1.85c4.75,9,7.44,20.77,8.75,31.06a12.62,12.62,0,0,0,2.14-4.91S76.73,21.6,69.89,14.5Z"/>
      <path class="bb4cb7a7-c747-4d3a-8006-8d1e90183cd9" d="M70.29,13.87c.38.5,1,3.75-2.45,5.85-3,1.84-5.2,1.9-5.57,1.4S61.1,19.36,65,16.22C66.86,14.73,69.92,13.37,70.29,13.87Z"/>
      <path class="a9ebfb04-5144-4668-9619-b3948e8685f8" d="M69.82,14.5c-.3-.41-2.14.52-4,1.94a17.06,17.06,0,0,0-2.83,2.8A13.54,13.54,0,0,0,69,17.12,4.59,4.59,0,0,0,69.82,14.5Z"/>
      <path class="ebd75ecf-3d51-476c-b164-6e5872caf25a" d="M62.94,19.24c-.63.79-1,1.44-.86,1.63.3.4,3,.14,5-1.28a7.51,7.51,0,0,0,2-2.47A13.54,13.54,0,0,1,62.94,19.24Z"/>
      <path class="f037e060-62b4-4919-8e47-4dec33c1fdf5" d="M32.52,66.44l.16.11a5.81,5.81,0,0,1,1.91,7.7c-3.51,6.26-7.24,17.77-1.57,34,0,0-16.44-13.75-9.23-38.58A5.78,5.78,0,0,1,32.52,66.44Z"/>
      <path class="ac79c7df-9608-4da7-9b1b-a76c4c7f4242" d="M119.67,66.15A13.7,13.7,0,0,1,116.11,70a3.88,3.88,0,0,0-1.26,4.84,55.17,55.17,0,0,1,.7,45.58,38.63,38.63,0,0,0,15-36.2c-1.11-8.44-2.62-13.93-4.06-17.5A3.87,3.87,0,0,0,119.67,66.15Z"/>
      <ellipse class="eecdcfd9-c964-41e0-be74-44ea4d10fdc3" cx="122.05" cy="76.11" rx="3.91" ry="6.5" transform="translate(-18.74 46.66) rotate(-20.13)"/>
      <ellipse class="eecdcfd9-c964-41e0-be74-44ea4d10fdc3" cx="125.21" cy="90.48" rx="2.84" ry="3.45" transform="translate(-17.08 30.33) rotate(-12.94)"/>
    </g>
  </g>
</svg>
