<svg id="a814d6a6-f078-4a60-9b36-416c367ff184" data-name="Layer 1" xmlns="http://www.w3.org/2000/svg" width="134.78" height="257.76" viewBox="0 0 134.78 257.76">
  <defs>
    <style>
      .b4d87698-472d-4a54-857d-a5c305b5c398 {
        opacity: 0.5;
      }

      .fc9b9785-c428-447a-9c24-c1fe8637df2d {
        fill: #fff;
      }

      .f9c5b59e-2ccf-4ef3-88a2-cec05c1b6fab {
        fill: #919fab;
      }

      .af791df4-89e0-463b-8bf4-d0ac120838da {
        fill: #2e3d49;
      }

      .a9a595e6-40ed-4d10-a8f1-c4f4076c5149 {
        fill: #a9bac8;
      }

      .aa6e55ff-e6f0-48eb-848a-b06d488d976b, .eb0e5e57-e1f2-4f7a-8457-cda76b971d85 {
        fill: #b2c8d8;
      }

      .aa6e55ff-e6f0-48eb-848a-b06d488d976b {
        stroke: #405260;
      }

      .aa6e55ff-e6f0-48eb-848a-b06d488d976b, .aaee922a-c5c8-4ff3-ac2a-671a6107e586, .b65e6780-47d2-4b6d-aa22-e4ee691a0262 {
        stroke-miterlimit: 10;
      }

      .b65e6780-47d2-4b6d-aa22-e4ee691a0262 {
        fill: #ea8690;
        stroke: #59301e;
      }

      .ee9f02e4-ecd6-473f-ba06-1261f79f8802 {
        fill: #d6747d;
      }

      .b5751130-b02a-4126-8a03-df0fda2952af {
        fill: #c7d6e2;
      }

      .e6d067e0-9550-4d58-804b-52799a1c6d3a {
        fill: #99b7c9;
      }

      .f6908e57-3b66-4380-b27c-b637a9f5dda2 {
        fill: #cadcea;
      }

      .aeb1a239-1022-42fa-8b61-d3fcde50296c {
        fill: #becfdc;
      }

      .a1c892b0-8e89-456e-a225-f649b279c9ef {
        fill: #d6e3eb;
      }

      .b9456db2-6531-447f-b397-57bec560af83 {
        fill: #8a96a1;
      }

      .abdb862f-b1a5-4c0d-aab9-1f5f463348bd {
        fill: #c3beba;
      }

      .b1240caf-9796-4287-8ed4-79181cacb7f7 {
        fill: #592c0e;
      }

      .a2e7f4aa-5ca7-498d-baa2-40daf3213652 {
        fill: #842c1a;
      }

      .bff3c3fd-df54-482c-a834-3e06798b0732 {
        fill: #23110a;
      }

      .ac5e29c6-20d2-48a7-86e2-decbf4593d0c {
        fill: #f1d8be;
      }

      .a2e2486e-376f-49cb-8d12-e678b8fcabb6 {
        fill: #3c1212;
      }

      .aaee922a-c5c8-4ff3-ac2a-671a6107e586 {
        fill: #cb6c82;
        stroke: #b24461;
      }

      .a1324f9f-3f11-404f-b110-abb20fd6dfd7 {
        fill: gray;
      }

      .bc989d07-a66a-4a65-9f6b-ce7ccc219a51 {
        fill: #a2494f;
      }

      .e9340681-ca0b-43b7-91ed-9c8924df5e4d {
        fill: #cb666b;
      }

      .be60a17a-e919-487d-9987-275ac62e805d {
        fill: #dcaaa9;
      }

      .e7a5ed47-2391-44c5-a6e9-fd06ec3a17d6 {
        fill: #7b373b;
      }
    </style>
  </defs>
  <g>
    <path class="b4d87698-472d-4a54-857d-a5c305b5c398" d="M73.05,252.72c-.66,0-1.3,0-1.9-.07a15.29,15.29,0,0,1-4.06-.8,9.31,9.31,0,0,1-1.84-.92,11.87,11.87,0,0,1-6-2.91A8.55,8.55,0,0,1,58,246.31a9.34,9.34,0,0,1-1.58-1.68,8.72,8.72,0,0,1-1-1.77c-.66,0-1.3-.06-1.92-.1-.91-.07-1.81-.16-2.7-.28a12.67,12.67,0,0,1-7.61,4.11,15.17,15.17,0,0,1-7.61,1.92c-.45,0-.91,0-1.38,0a15.38,15.38,0,0,1-7.87-2.61,10.4,10.4,0,0,1-6.66-5.28,10.55,10.55,0,0,1-.89-6.68,27.35,27.35,0,0,1-7.65-18.13c-.56-12.63,6.75-21,11-24.74a7.94,7.94,0,0,1-2.62-2.08l-.21-.25c-5.29-6.43-6.19-13-4.93-18.46a8,8,0,0,1,.34-4.15l.1-.28A28.93,28.93,0,0,1,22.36,154a23.85,23.85,0,0,1-2.93-3.37c-.31-.44-.6-.86-.86-1.29a8,8,0,0,1-4.5-5.74l-.08-.38a18.35,18.35,0,0,1-.06-7.08,8.12,8.12,0,0,1,.91-6.62,24.73,24.73,0,0,1,4.89-5.73c2-14,8-21.48,14.38-25.5C30.94,94.69,27,90.63,22.45,86.08,2,65.43,8.66,28.19,8.73,27.81c.17-.92.33-1.85.49-2.75.43-2.37.82-4.6,1.26-6.39C12.22,11.54,16.3,10,19.41,10a7.64,7.64,0,0,1,1.26.1C28.08,11.28,43.5,27.58,50,37.9,59.5,50.37,62.67,80,63.56,91.37a19.07,19.07,0,0,1,4.67-.58c.36,0,.73,0,1.09,0C72.39,78.17,79.54,53.05,89.88,43c7.89-9.27,25.52-23.14,33-23.19,2.4,0,8,1,8.82,9.84.17,1.85.24,4.15.31,6.59,0,.92.06,1.87.1,2.81,0,.38,1.14,38.2-22,55.59q-8.16,6-13.76,10.69c5,6,8,14,8.75,23.69,6.52,6.16,5.94,15.41,3.54,20.88l-.13.32a8,8,0,0,1-3.5,3.8,14.82,14.82,0,0,1-8.27,6.69,25.38,25.38,0,0,1,1.7,4.23A23.6,23.6,0,0,1,96,184.45a13.09,13.09,0,0,0,2.57,4.35l.07.09c2.78,3.29,7,8.34,9.48,15.32a32.81,32.81,0,0,1,1.8,13.12,8.21,8.21,0,0,1,.44,2.16l.09,1.15a8.07,8.07,0,0,1,1.17,3.56v.14c.58,7-5.56,19.42-16.11,22a18.27,18.27,0,0,1-2.09.37,5.34,5.34,0,0,1-.76.28,14.73,14.73,0,0,1-3.3.64C84.23,252.46,74.93,252.72,73.05,252.72Z"/>
    <path class="fc9b9785-c428-447a-9c24-c1fe8637df2d" d="M68.05,247.72c-.66,0-1.3,0-1.9-.07a15.29,15.29,0,0,1-4.06-.8,9.31,9.31,0,0,1-1.84-.92,11.87,11.87,0,0,1-6-2.91A8.55,8.55,0,0,1,53,241.31a9.34,9.34,0,0,1-1.58-1.68,8.72,8.72,0,0,1-1-1.77c-.66,0-1.3-.06-1.92-.1-.91-.07-1.81-.16-2.7-.28a12.67,12.67,0,0,1-7.61,4.11,15.17,15.17,0,0,1-7.61,1.92c-.45,0-.91,0-1.38,0a15.38,15.38,0,0,1-7.87-2.61,10.4,10.4,0,0,1-6.66-5.28,10.55,10.55,0,0,1-.89-6.68,27.35,27.35,0,0,1-7.65-18.13c-.56-12.63,6.75-21,11-24.74a7.94,7.94,0,0,1-2.62-2.08l-.21-.25c-5.29-6.43-6.19-13-4.93-18.46a8,8,0,0,1,.34-4.15l.1-.28A28.93,28.93,0,0,1,17.36,149a23.85,23.85,0,0,1-2.93-3.37c-.31-.44-.6-.86-.86-1.29a8,8,0,0,1-4.5-5.74L9,138.18a18.35,18.35,0,0,1-.06-7.08,8.12,8.12,0,0,1,.91-6.62,24.73,24.73,0,0,1,4.89-5.73c2-14,8-21.48,14.38-25.5C25.94,89.69,22,85.63,17.45,81.08-3,60.43,3.66,23.19,3.73,22.81c.17-.92.33-1.85.49-2.75.43-2.37.82-4.6,1.26-6.39C7.22,6.54,11.3,5,14.41,5a7.64,7.64,0,0,1,1.26.1C23.08,6.28,38.5,22.58,45,32.9,54.5,45.37,57.67,75,58.56,86.37a19.07,19.07,0,0,1,4.67-.58c.36,0,.73,0,1.09,0C67.39,73.17,74.54,48.05,84.88,38c7.89-9.27,25.52-23.14,33-23.19,2.4,0,8,1,8.82,9.84.17,1.85.24,4.15.31,6.59,0,.92.06,1.87.1,2.81,0,.38,1.14,38.2-22,55.59q-8.16,6-13.76,10.69c5,6,8,14,8.75,23.69,6.52,6.16,5.94,15.41,3.54,20.88l-.13.32a8,8,0,0,1-3.5,3.8,14.82,14.82,0,0,1-8.27,6.69,25.38,25.38,0,0,1,1.7,4.23A23.6,23.6,0,0,1,91,179.45a13.09,13.09,0,0,0,2.57,4.35l.07.09c2.78,3.29,7,8.34,9.48,15.32a32.81,32.81,0,0,1,1.8,13.12,8.21,8.21,0,0,1,.44,2.16l.09,1.15a8.07,8.07,0,0,1,1.17,3.56v.14c.58,7-5.56,19.42-16.11,22a18.27,18.27,0,0,1-2.09.37,5.34,5.34,0,0,1-.76.28,14.73,14.73,0,0,1-3.3.64C79.23,247.46,69.93,247.72,68.05,247.72Z"/>
    <g>
      <g>
        <path class="f9c5b59e-2ccf-4ef3-88a2-cec05c1b6fab" d="M89.11,228.34a15.38,15.38,0,0,1-4,5.29C93.22,235,98.91,224.44,98.55,220a15.35,15.35,0,0,0-1.61.67Z"/>
        <path class="af791df4-89e0-463b-8bf4-d0ac120838da" d="M97.18,220.43a1.48,1.48,0,0,1-.27.12h0L89,228.25l0,.05a15.44,15.44,0,0,1-4,5.24l-.19.16.25,0a8.57,8.57,0,0,0,3.53-.13C94.94,232,99,223.72,98.68,220l0-.14-.14,0A11.31,11.31,0,0,0,97.18,220.43Zm-8.62,12.95a8.57,8.57,0,0,1-3.19.17,15.87,15.87,0,0,0,3.85-5.15L97,220.77l.28-.12a10.74,10.74,0,0,1,1.15-.49C98.62,223.89,94.68,231.86,88.56,233.38Z"/>
        <path class="a9a595e6-40ed-4d10-a8f1-c4f4076c5149" d="M93.26,216.26a8.09,8.09,0,0,0-4.71,1.88s2.32,9.11-3.45,15.32a19.89,19.89,0,0,0,6.1-3.15s-.61-.17-1.84-.44c9.23-5.52,8.07-12.47,7.93-14.61a19.72,19.72,0,0,1-4.17,2.18A2.16,2.16,0,0,1,93.26,216.26Z"/>
        <path class="af791df4-89e0-463b-8bf4-d0ac120838da" d="M93.22,217.27a2.16,2.16,0,0,1,.15-1l.08-.18h-.2a9.17,9.17,0,0,0-1.47.23,8.09,8.09,0,0,0-3.32,1.68l0,0v.07c0,.09,2.25,9.12-3.41,15.21l-.29.31.42-.11a20.44,20.44,0,0,0,6.14-3.17l.18-.15-.22-.06s-.53-.15-1.56-.38c8.5-5.22,8-11.7,7.77-14.15,0-.16,0-.29,0-.42l0-.23-.19.15A18.57,18.57,0,0,1,93.22,217.27Zm4-1.58c.2,2.44.73,8.92-7.9,14.08l-.26.15.29.07c.79.17,1.32.3,1.6.38a20.54,20.54,0,0,1-5.45,2.85c5.14-5.89,3.4-14.2,3.2-15.05a8.08,8.08,0,0,1,3.16-1.57,8.52,8.52,0,0,1,1.23-.2,2.56,2.56,0,0,0-.08,1.07l0,.14.14-.06a20.87,20.87,0,0,0,4-2.05Z"/>
      </g>
      <path class="aa6e55ff-e6f0-48eb-848a-b06d488d976b" d="M51.81,102l-1-11.9S48.34,49.87,38.37,37.49c-7.3-12-21.09-24-23.92-24.45-1-.15-1.82,5.64-2.86,11.24S7.48,59.65,23.08,75.4c21.26,21,22.82,27,23.07,29.36Z"/>
      <path class="b65e6780-47d2-4b6d-aa22-e4ee691a0262" d="M17.06,41.38c0,1.36.12,2.74.22,4.13a73,73,0,0,0,1.76,12s0,0,0,0,.06.23.08.34a34.23,34.23,0,0,0,1.54,4.71c5.82,13.84,24.9,25,24.9,25S43.5,70.71,39.48,54c0-.12,0-.25-.09-.37A48.6,48.6,0,0,0,31.47,37.3,84.5,84.5,0,0,0,17.88,22.49C17.46,23.88,16.72,32.12,17.06,41.38Z"/>
      <path class="ee9f02e4-ecd6-473f-ba06-1261f79f8802" d="M19.48,58.16A34.16,34.16,0,0,0,21,62.74c5.67,13.49,24.26,24.38,24.26,24.38s-2-16.42-5.94-32.73h0s-.23,15.73-2,19.49c0,0-13.58-7.12-17.77-15.57C19.53,58.26,19.51,58.21,19.48,58.16Z"/>
      <path class="aa6e55ff-e6f0-48eb-848a-b06d488d976b" d="M68,105.4l2.74-11.62s8.32-39.46,20-50.26c9-10.76,24.38-20.66,27.25-20.68,1,0,1,5.85,1.18,11.54S118,70,100.29,83.26C76.18,101,73.76,106.67,73.17,108.93Z"/>
      <path class="b65e6780-47d2-4b6d-aa22-e4ee691a0262" d="M111.23,50.49c-.24,1.34-.52,2.7-.82,4.06a74.25,74.25,0,0,1-3.5,11.58s0,0,0,0l-.13.32a33.88,33.88,0,0,1-2.22,4.43C96.77,83.75,76.26,92,76.26,92S80.78,75.64,87.2,59.68l.14-.36a48.68,48.68,0,0,1,10.23-15,84.71,84.71,0,0,1,15.61-12.66C113.39,33.12,112.91,41.39,111.23,50.49Z"/>
      <path class="ee9f02e4-ecd6-473f-ba06-1261f79f8802" d="M106.38,66.73a34.11,34.11,0,0,1-2.16,4.32C96.64,83.56,76.66,91.62,76.66,91.62s4.4-16,10.66-31.51h0s-2.07,15.6-.92,19.57c0,0,14.48-5,19.86-12.8Z"/>
      <path class="a9a595e6-40ed-4d10-a8f1-c4f4076c5149" d="M24.49,190.54s-10.86,6.85-10.29,19.87c.51,11.51,8.73,16.19,13.06,17.41,2.2.63,13.77,2.25,17.2.51C21.34,219.61,24.49,190.54,24.49,190.54Z"/>
      <path class="b5751130-b02a-4126-8a03-df0fda2952af" d="M24.49,190.54s-10.86,6.85-10.29,19.87a20.53,20.53,0,0,0,1.64,7.38c4.36,8.71,18.05,6.09,17,2.49C22.56,208.36,24.49,190.54,24.49,190.54Z"/>
      <path class="a9a595e6-40ed-4d10-a8f1-c4f4076c5149" d="M24.49,190.54s-10.86,6.85-10.29,19.87a20.53,20.53,0,0,0,1.64,7.38c.09.19.19.37.29.55-3.1-7.83.21-16,6-21.43a12.17,12.17,0,0,1,2.24-1.81A37.69,37.69,0,0,1,24.49,190.54Z"/>
      <path class="af791df4-89e0-463b-8bf4-d0ac120838da" d="M26,206.14a50.32,50.32,0,0,1-1.32-15.59l0-.3-.27.17c-.11.07-10.92,7-10.35,20,.45,10.34,7.38,15.92,13.16,17.55a55.3,55.3,0,0,0,8.21,1.15h0c3.12.23,7.23.3,9.12-.65l.28-.15-.3-.11C32.64,223.72,27.86,213.73,26,206.14Zm9.49,22.68h0a54.72,54.72,0,0,1-8.14-1.13c-5.7-1.61-12.5-7.1-12.95-17.29-.51-11.66,8.31-18.41,10-19.57a50.7,50.7,0,0,0,1.35,15.37c1.91,7.59,6.66,17.56,18.43,22.14C42.15,229.12,38.36,229,35.44,228.82Z"/>
      <path class="b5751130-b02a-4126-8a03-df0fda2952af" d="M82.92,173l-21.26,7.58s1.24,15.88,2.4,26.64,17.23,19.33,29.84,15.57c7.71-16.93-1.42-27.71-6.54-33.77S81.91,177.31,82.92,173Z"/>
      <path class="af791df4-89e0-463b-8bf4-d0ac120838da" d="M87.51,189l0,0c-4.24-5-5.72-10.37-4.41-15.9l.06-.26L61.5,180.52v.1c0,.16,1.25,16,2.4,26.64.44,4.08,3,8.05,7.28,11.2a28.5,28.5,0,0,0,14.46,5.33,22.89,22.89,0,0,0,8.29-.84l.07,0,0-.06c3.34-7.34,3.87-14.42,1.55-21C93.64,196.26,90.09,192.06,87.51,189Zm6.28,33.7a22.64,22.64,0,0,1-8.12.81,28.14,28.14,0,0,1-14.3-5.28c-4.18-3.09-6.73-7-7.16-11-1.1-10.18-2.28-25.13-2.39-26.53l20.9-7.46c-1.23,5.53.29,10.87,4.52,15.89l0,0C92.56,195.44,101.4,205.92,93.79,222.7Z"/>
      <path class="b5751130-b02a-4126-8a03-df0fda2952af" d="M75.21,151.12l-11.81,1L61.09,173c7.9,7.06,21.23,2.75,21.23,2.75a7.11,7.11,0,0,1-.53,2.38,15.83,15.83,0,0,0,3.83-15.84A17.71,17.71,0,0,0,75.21,151.12Z"/>
      <path class="af791df4-89e0-463b-8bf4-d0ac120838da" d="M75.26,151h0l-11.84,1,0,.28,11.77-1a17.73,17.73,0,0,1,10.28,11.1,15.8,15.8,0,0,1-3.31,15.2,6.73,6.73,0,0,0,.31-1.78v-.2l-.21.06c-.13.05-13.33,4.2-21.08-2.71l-.2.2c7.33,6.55,19.43,3.35,21.17,2.85a7.47,7.47,0,0,1-.5,2.12l-.28.64.52-.48a16.1,16.1,0,0,0,3.86-16A18,18,0,0,0,75.26,151Z"/>
      <path class="e6d067e0-9550-4d58-804b-52799a1c6d3a" d="M64.48,164.82S70,162.73,67.69,158a2.41,2.41,0,0,1,1.47.39s-2-5.22-4.74-6.46-26.64-1.73-26.64-1.73A9.27,9.27,0,0,0,30.39,158a8.75,8.75,0,0,1,3.35-1.67s-5,3.4-1.72,12.1c1.67-2.15,1.54-2.44,1.67-2.15a16.72,16.72,0,0,1,.27,3.1c0,.57-.73,8.31-5,14.19-5.11,7-8.58,12.32-7.06,24.38l1.77-2.24s-2.78,6.79,4.53,13.73l.09-2.27s4.29,15.18,30.84,12.15c8.25-7.93,10.82-36.71,3.91-45A27.11,27.11,0,0,0,64.48,164.82Z"/>
      <path class="f6908e57-3b66-4380-b27c-b637a9f5dda2" d="M55.61,153.19c.92-.91,2-1.14,2.94-2.09-7.93-.63-20.77-.89-20.77-.89A9.27,9.27,0,0,0,30.39,158a8.75,8.75,0,0,1,3.35-1.67s-5,3.4-1.72,12.1c1.67-2.15,1.54-2.44,1.67-2.15a16.72,16.72,0,0,1,.27,3.1c0,.57-.73,8.31-5,14.19-5.11,7-8.58,12.32-7.06,24.38l1.77-2.24s-2.78,6.79,4.53,13.73l.09-2.27s2.05,5.1,11.59,3.95c8.8-1,17.09-7.46,17.43-28.49.07-3.81.12-9.77-1.2-13.65C56,178.53,68.83,160.23,55.61,153.19Z"/>
      <path class="aeb1a239-1022-42fa-8b61-d3fcde50296c" d="M33.11,155.09a9.7,9.7,0,0,1,3.46-4.55,9.11,9.11,0,0,0-6.18,7.5,8.75,8.75,0,0,1,3.35-1.67s-5,3.4-1.72,12.1c1.67-2.15,1.54-2.44,1.67-2.15a16.72,16.72,0,0,1,.27,3.1c0,.57-.73,8.31-5,14.19-5.11,7-8.58,12.32-7.06,24.38l1.77-2.24s-2.78,6.79,4.53,13.73c-4.63-8.67-3.19-14.89-1-21.92-.38.05-2.67,2.58-3.73,4.71,1.74-12.39,8-16.91,8-17,.67-9,4-12.63,4.19-23.19-.91,1.5-2,1.8-2.82,2.92-.86-5,2-8.71,4.14-10.55A8.58,8.58,0,0,0,33.11,155.09Z"/>
      <path class="af791df4-89e0-463b-8bf4-d0ac120838da" d="M64.66,164.9a6.66,6.66,0,0,0,3.43-3.14,4.35,4.35,0,0,0-.17-3.6,2.16,2.16,0,0,1,1.14.35l.44.35-.2-.5c-.08-.22-2.07-5.3-4.81-6.55-.74-.34-2.91-.63-6.65-.91-7.88-.58-19.94-.83-20.09-.83a9.48,9.48,0,0,0-7.51,8l0,.34.29-.21a11.2,11.2,0,0,1,2.68-1.47c-1.18,1.17-3.91,4.83-1.28,11.84l.1.25.17-.21a24,24,0,0,0,1.41-2l0,0a19.36,19.36,0,0,1,.22,2.9c0,.33-.64,8.16-5,14.12C23.44,191,20.27,196.29,21.75,208l0,.36,1.51-1.92c-.47,2-1.1,7.54,4.79,13.13l.24.24.08-1.86A15.88,15.88,0,0,0,32,223c2.74,2.71,7.92,6.08,17,6.75a54,54,0,0,0,10.14-.28h.05l0,0c3.85-3.69,6.8-12.3,7.69-22.45s-.53-18.78-3.71-22.66A27.49,27.49,0,0,0,64.66,164.9Zm2,42.08c-.88,10.06-3.78,18.58-7.56,22.25a55.29,55.29,0,0,1-10,.27c-17.27-1.27-20.58-12.22-20.61-12.33l-.25-.9-.12,2.87c-6.85-6.71-4.28-13.28-4.25-13.34l.39-1L22,207.62c-1.35-11.37,1.78-16.64,7.08-23.93,4.38-6,5-13.92,5-14.26a17.51,17.51,0,0,0-.28-3.16c0-.09-.08-.18-.2-.19s-.17.07-.33.33-.52.82-1.23,1.76c-3-8.31,1.71-11.66,1.76-11.69l.51-.34-.62.09a8.23,8.23,0,0,0-3.13,1.49,9.18,9.18,0,0,1,7.19-7.36c.12,0,12.16.25,20,.82,3.65.27,5.85.57,6.54.89,2.21,1,4,4.8,4.5,6a2.73,2.73,0,0,0-1.18-.21h-.23l.1.2a4.23,4.23,0,0,1,.27,3.58,6.59,6.59,0,0,1-3.4,3l-.13,0,0,.13a27.24,27.24,0,0,1-1.44,19.45l0,.07.05.07C66.09,188.25,67.51,196.89,66.62,207Z"/>
      <path class="b5751130-b02a-4126-8a03-df0fda2952af" d="M71.54,191.53c-31.08,12.13-17.94,34-12.44,39.18,7.47-2.29,13.93.81,16,1.75s6.7,2.91,10.16,1.81c9.68-5.83,9.88-18.69,9.88-18.69Z"/>
      <path class="a9a595e6-40ed-4d10-a8f1-c4f4076c5149" d="M59,230.63C48.77,210.72,61,198.13,70.5,192,40.92,204.1,53.53,225.34,59,230.63Z"/>
      <path class="af791df4-89e0-463b-8bf4-d0ac120838da" d="M85.17,234.14c-2.4.75-5.77.14-10-1.81l-.15-.07c-2.11-1-8.53-3.92-15.84-1.71-3.67-3.52-8.77-12.18-7-20.66,1.58-7.66,8.13-13.79,19.48-18.22a53.34,53.34,0,0,0-5.12,2c-8.38,4.22-13.3,9.66-14.65,16.21-2,9.74,4.5,18.45,7.18,21l.06.06.09,0c7.23-2.23,13.6.7,15.7,1.66l.15.07a21.36,21.36,0,0,0,7.19,2.12,8.23,8.23,0,0,0,3.09-.29l0,0c6.64-4,8.85-11.37,9.58-15.6a9.44,9.44,0,0,0,.06-3.21C95,215.7,94.65,228.41,85.17,234.14Z"/>
      <path class="a9a595e6-40ed-4d10-a8f1-c4f4076c5149" d="M74,230.07c-3.31-2.53-13.6-5.69-16.14,2.8-.92,3,2.31,2.59,2.31,2.59s-.47,1.4-.1,1.77c.53.52,2.92,1.11,4.74.89-.37.59-.27.94.1,1.08,3.11,1.13,16-.2,14.88-5C79.56,233.29,77.21,232.57,74,230.07Z"/>
      <path class="a1c892b0-8e89-456e-a225-f649b279c9ef" d="M75.2,231c-.4-.27-.81-.57-1.24-.9-3.31-2.53-13.6-5.69-16.14,2.8a2.58,2.58,0,0,0-.12.5,1.28,1.28,0,0,0,.48.62,2.51,2.51,0,0,0,2.76-.65c-.49,2.52,3.34,3.62,5.54,2.36-.62,1.22-.08,1.83,3.2,1.86,1.77,0,5.63-.82,7.21-3C78,233.06,76.25,231.63,75.2,231Z"/>
      <path class="af791df4-89e0-463b-8bf4-d0ac120838da" d="M77.88,232.48A35.23,35.23,0,0,1,74.06,230a15.87,15.87,0,0,0-7.71-2.73c-4.42-.33-7.5,1.66-8.68,5.6a2.27,2.27,0,0,0,.14,2,2.11,2.11,0,0,0,1.6.73,3,3,0,0,0,.51,0c-.13.45-.34,1.37,0,1.71a6.77,6.77,0,0,0,3.34,1,8.68,8.68,0,0,0,1.25,0,.9.9,0,0,0-.08.68.59.59,0,0,0,.39.36,7.24,7.24,0,0,0,1.92.34c3.66.27,10.2-.67,12.42-3.07a2.64,2.64,0,0,0,.74-2.48C79.79,233.6,79.07,233.18,77.88,232.48Zm1.06,3.93c-2.17,2.34-8.58,3.24-12.18,3a7.18,7.18,0,0,1-1.84-.33.32.32,0,0,1-.21-.18c0-.11,0-.31.19-.68l.06-.35-.21.13a7.12,7.12,0,0,1-1.47,0,6.47,6.47,0,0,1-3.15-.87c-.21-.21,0-1.08.14-1.63l.08-.22-.24,0a3.56,3.56,0,0,1-.67,0,1.83,1.83,0,0,1-1.38-.61,2,2,0,0,1-.1-1.81c1.46-4.87,5.36-5.62,8.37-5.4a15.46,15.46,0,0,1,7.54,2.67,35.61,35.61,0,0,0,3.85,2.55c1.09.63,1.8,1.05,1.89,1.45A2.39,2.39,0,0,1,78.94,236.41Z"/>
      <path class="af791df4-89e0-463b-8bf4-d0ac120838da" d="M60,235.41l.28.1c2.31-6.25,6-6.36,6.07-6.36S62.37,229,60,235.41Z"/>
      <path class="af791df4-89e0-463b-8bf4-d0ac120838da" d="M64.5,238.24l.27.12a14.78,14.78,0,0,1,6-6.05A12.13,12.13,0,0,0,64.5,238.24Z"/>
      <path class="a9a595e6-40ed-4d10-a8f1-c4f4076c5149" d="M34.87,225.92c-1.92-.57-7.86-.87-10.33.71-1.8,1.14-3.52,3.55-2.65,5.3.68,1.36,3.36,1.34,3.36,1.34.5,2.08,7.68,3.32,9.9.3,2.14.3,4.92-.73,5.09-3S36.78,226.48,34.87,225.92Z"/>
      <path class="a1c892b0-8e89-456e-a225-f649b279c9ef" d="M34.79,225.89c-1.91-.57-7.85-.86-10.33.71a6.44,6.44,0,0,0-2.82,3.72,2.64,2.64,0,0,0,4.29-.44c-.62,1.57.59,3,2.72,3.36,3.38.52,6.24-.14,6.22-3.32,1.54,3.22,5.51.77,4.41-1.28A9.13,9.13,0,0,0,34.79,225.89Z"/>
      <path class="af791df4-89e0-463b-8bf4-d0ac120838da" d="M34.91,225.78a13.35,13.35,0,0,0-2.59-.39c-2.64-.2-6.1,0-7.87,1.12-2,1.26-3.58,3.72-2.7,5.48.54,1.07,2.14,1.34,3.05,1.4l.34,0c.4,1.17,2.57,1.93,4.58,2.08,2.45.18,4.5-.48,5.5-1.76,2.29.27,5-.89,5.17-3.14S37.12,226.44,34.91,225.78Zm.59,7.69-.32,0h-.1l0,.07c-.92,1.25-2.9,1.89-5.29,1.71s-4.11-1-4.34-2l0-.11h-.12l-.43,0c-.68-.05-2.31-.27-2.79-1.24-.87-1.72.95-4.08,2.59-5.13s5.2-1.25,7.68-1.07a12.5,12.5,0,0,1,2.52.38c1.79.53,5.43,2.33,5.27,4.52C39.94,232.56,37.59,233.62,35.5,233.47Z"/>
      <path class="af791df4-89e0-463b-8bf4-d0ac120838da" d="M25.1,233.27h.3a7.9,7.9,0,0,1,2.07-5.46A6.78,6.78,0,0,0,25.1,233.27Z"/>
      <path class="af791df4-89e0-463b-8bf4-d0ac120838da" d="M35,233.55l.29,0a7.15,7.15,0,0,0-.66-4.42A10.6,10.6,0,0,1,35,233.55Z"/>
      <path class="b5751130-b02a-4126-8a03-df0fda2952af" d="M51.23,180.65l7,5.26c5,.3,13.56-2.34,16.61-5a6.29,6.29,0,0,0-1,2.1s5.28-.62,8.43-7.26l-11.22-12C57.65,163.53,51.23,180.65,51.23,180.65Z"/>
      <path class="a9a595e6-40ed-4d10-a8f1-c4f4076c5149" d="M51.23,180.65l1.69,1.26c2.95-7,6.82-14.6,18.24-18C56.13,164.84,51.23,180.65,51.23,180.65Z"/>
      <path class="af791df4-89e0-463b-8bf4-d0ac120838da" d="M74.09,182.86A8.86,8.86,0,0,1,75,181l.47-.78-.7.6c-3.12,2.68-11.55,5.2-16.45,4.93l-6.91-5.17c.55-1.37,7-16.91,19.69-16.72a14.2,14.2,0,0,0-5.06.5c-10,3.24-14.89,16.07-15,16.22l0,.1,7.16,5.35h0c4.66.28,12.56-2,16.11-4.53a4.69,4.69,0,0,0-.63,1.51v.17l.18,0s5.4-.7,8.55-7.34l-.28-.12C79.47,181.45,75.1,182.66,74.09,182.86Z"/>
      <path class="a9a595e6-40ed-4d10-a8f1-c4f4076c5149" d="M34,169.14c-.14-1.58-.29-2.87-.29-2.87L32,168.4s-3.29-7.85,1.7-12c-1.08.06-3.35,1.67-3.35,1.67s.29-5.47,6.74-7.71c0,0-14.22-2.09-19.71,13.23l1.7-.59s-5.7,6.91,1.41,15.54l.5-2.67a24.23,24.23,0,0,0,14.06,11.21c.75-2.93,5.4-6.93,5.4-6.93S38.2,172.39,34,169.14Z"/>
      <path class="b5751130-b02a-4126-8a03-df0fda2952af" d="M33.74,156.37c-1.08.06-3.35,1.67-3.35,1.67s.29-5.47,6.74-7.71c0,0-14.22-2.09-19.71,13.23l1.7-.59s-5.7,6.91,1.41,15.54l.5-2.67a3.3,3.3,0,0,0,.2.37l.07-1c3.75,4.95,11.51,10.7,15,6.8,2.81-3.12-3.29-7.9-4.37-13.83C31.48,166.93,29.23,160.15,33.74,156.37Z"/>
      <path class="a9a595e6-40ed-4d10-a8f1-c4f4076c5149" d="M17.42,163.56l1.7-.59s-5.52,6.7,1.09,15.14c-2.64-4.68-2.47-11.68,2.45-16-.56.15-1.68-.31-2.24-.12A24,24,0,0,1,33.83,150.3C29.29,150.67,21.24,152.9,17.42,163.56Z"/>
      <path class="b9456db2-6531-447f-b397-57bec560af83" d="M38,182.62l.34-.37-.45,0A3.38,3.38,0,0,1,38,182.62Z"/>
      <path class="af791df4-89e0-463b-8bf4-d0ac120838da" d="M34.1,169.07c-.13-1.54-.28-2.8-.29-2.81l0-.37-1.68,2.21c-.5-1.36-2.61-8,1.75-11.63l.33-.27-.44,0a9.43,9.43,0,0,0-3.16,1.51,9.36,9.36,0,0,1,6.61-7.27l.55-.19-.58-.08-.56-.06c-2.36-.17-14.39-.34-19.31,13.38l-.1.28,1.55-.53c-1,1.56-4.49,7.85,1.68,15.34l.21.25.48-2.57a24.91,24.91,0,0,0,13.95,10.91l.15,0,0-.15c.72-2.85,5.31-6.81,5.35-6.85l.07-.06,0-.09C40.61,180,38.3,172.33,34.1,169.07Zm.89,17.8a24.24,24.24,0,0,1-13.82-11.08l-.21-.42-.52,2.8c-6.63-8.32-1.26-15-1.2-15.11l.32-.39-1.89.65c4.86-13.1,16.36-13.08,18.83-12.91A9.39,9.39,0,0,0,30.24,158l0,.3.26-.18a14.47,14.47,0,0,1,2.76-1.53c-4.43,4.28-1.37,11.76-1.34,11.84l.1.24,1.56-2c0,.5.16,1.44.25,2.5v.06l0,0c3.93,3,6.2,10,6.46,10.83C39.73,180.59,35.79,184.11,35,186.87Z"/>
      <path class="af791df4-89e0-463b-8bf4-d0ac120838da" d="M38.43,172.1A12.85,12.85,0,0,1,34,168.85l-.23.18a14.14,14.14,0,0,0,4.55,3.31c2.06,1.11,4,2.15,5,4.38C43.32,176.72,42.9,174.29,38.43,172.1Z"/>
      <path class="a9a595e6-40ed-4d10-a8f1-c4f4076c5149" d="M40.24,180c-2.35-.31-6.51,2.48-6.9,4.83-.54,3.34,1.6,7.42,1.6,7.42s2.09,4.32,6.44.42c1.63.22,4.35.15,3.62-7C44.69,182.51,41.73,180.16,40.24,180Z"/>
      <path class="a1c892b0-8e89-456e-a225-f649b279c9ef" d="M45,185.6c-.31-3.09-3.27-5.44-4.76-5.64-2.35-.31-6.51,2.48-6.9,4.83a12.68,12.68,0,0,0,1.09,6.3,2.59,2.59,0,0,0,3.24-1.29c1,2.35,3.85,2.94,4.6-1.08,1.21,2.5,2.95,1.4,2.84-1.44C45.1,186.77,45.06,186.21,45,185.6Z"/>
      <path class="af791df4-89e0-463b-8bf4-d0ac120838da" d="M40.26,179.82c-2.51-.34-6.68,2.62-7.07,4.94-.54,3.35,1.53,7.34,1.61,7.51a3.91,3.91,0,0,0,2.94,2.13h0a5.2,5.2,0,0,0,3.69-1.62l.33,0a2.84,2.84,0,0,0,2.3-.7c1.07-1,1.43-3.17,1.09-6.53C44.83,182.42,41.76,180,40.26,179.82Zm3.58,12.1a2.46,2.46,0,0,1-2.06.61l-.39,0h-.07l0,.05a4.93,4.93,0,0,1-3.51,1.58,3.68,3.68,0,0,1-2.69-2s-2.11-4.09-1.58-7.34c.35-2.12,4.22-4.9,6.58-4.72h.15c1.42.19,4.33,2.49,4.63,5.51C45.18,188.84,44.84,191,43.84,191.92Z"/>
      <path class="af791df4-89e0-463b-8bf4-d0ac120838da" d="M41.47,186.15a6.31,6.31,0,0,1-.23,6.42l.27.13a7.22,7.22,0,0,0,1-3.94A4.12,4.12,0,0,0,41.47,186.15Z"/>
      <path class="a9a595e6-40ed-4d10-a8f1-c4f4076c5149" d="M34.72,188.37c-2.2-1-3.59-.23-3.83,1.11s1.16,3.64,4.25,3.09a4.3,4.3,0,0,0,3.14-5.88Z"/>
      <path class="a1c892b0-8e89-456e-a225-f649b279c9ef" d="M36.16,187.31l-1.39,1c-1.87-1.11-3.92-.23-3.88,1.13.11,3.65,8.14,1.61,7.45-2.85Z"/>
      <path class="fc9b9785-c428-447a-9c24-c1fe8637df2d" d="M34.68,188.31c-1.84-1-4.33-.38-3.66,2a3.15,3.15,0,0,1,3.73-1.93S34.71,188.36,34.68,188.31Z"/>
      <path class="af791df4-89e0-463b-8bf4-d0ac120838da" d="M37.94,190.41a4,4,0,0,1-2.83,2,3.54,3.54,0,0,1-3.19-.77A2.55,2.55,0,0,1,31,189.5a1.86,1.86,0,0,1,1-1.33,3.25,3.25,0,0,1,2.74.2,2.79,2.79,0,0,0-2.87-.45,2.1,2.1,0,0,0-1.18,1.53,2.86,2.86,0,0,0,1,2.41,3.6,3.6,0,0,0,2.21.92,5.4,5.4,0,0,0,1.25-.07,4.25,4.25,0,0,0,3-2.16,3.75,3.75,0,0,0,0-3.88A4.32,4.32,0,0,1,37.94,190.41Z"/>
      <path class="a9a595e6-40ed-4d10-a8f1-c4f4076c5149" d="M51.23,180.65c-1.9,0-8.09,4.29-4.9,11.14.84,3.83,4.81,5.05,6.71,2.77,1.05-.95,1.44-3.7,1.44-3.7s4.32,0,4-4.32C58.1,184,53,180.67,51.23,180.65Z"/>
      <path class="a1c892b0-8e89-456e-a225-f649b279c9ef" d="M51.23,180.65c-1.89-.24-8.09,4.29-4.9,11.14a5.17,5.17,0,0,0,1.87,3.07,1.41,1.41,0,0,0,1.95-.64c.66-.8-.08-2.55.62-3.92a3.37,3.37,0,0,0,2.29,4.24,6.23,6.23,0,0,0,1.26-2.86c-.31-.13-.39,0-.79-.23C56.23,188.8,55.5,181.2,51.23,180.65Z"/>
      <path class="fc9b9785-c428-447a-9c24-c1fe8637df2d" d="M46.33,191.79a5.39,5.39,0,0,0,1.37,2.62c-1.25-2.72-.32-4.14,0-6.61a17,17,0,0,0-1,1.63c-.82-3.44,1.52-7.3,5.17-8.59a1.29,1.29,0,0,0-.61-.19C49.44,180.42,43.14,184.94,46.33,191.79Z"/>
      <path class="af791df4-89e0-463b-8bf4-d0ac120838da" d="M51.34,180.51h-.11c-1,0-3.11,1.08-4.56,3.16a7.81,7.81,0,0,0-.49,8.16,4.81,4.81,0,0,0,4.14,4,3.26,3.26,0,0,0,2.82-1.18c1-.87,1.38-3.11,1.47-3.66a4.67,4.67,0,0,0,3-1.23,4,4,0,0,0,1-3.25C58.25,183.94,53.22,180.65,51.34,180.51Zm6,9.07a4.5,4.5,0,0,1-2.91,1.14l-.07.08-.08,0s-.4,2.71-1.41,3.63a3,3,0,0,1-2.58,1.08,4.51,4.51,0,0,1-3.87-3.79v0a7.56,7.56,0,0,1,.47-7.91c1.36-2,3.41-3,4.3-3h.09c1.81.13,6.64,3.29,7,5.75A3.68,3.68,0,0,1,57.39,189.58Z"/>
      <path class="a1c892b0-8e89-456e-a225-f649b279c9ef" d="M55.22,190.72a2.34,2.34,0,0,0-1.75.81l-2.32-2.41c-1,1.74-.88,3.7,0,4.48s4.89,2.35,5.61-.16A2.16,2.16,0,0,0,55.22,190.72Z"/>
      <path class="a1c892b0-8e89-456e-a225-f649b279c9ef" d="M53.53,191.5l-2.38-2.38c-1,1.74-.88,3.7,0,4.48a5.35,5.35,0,0,0,1.78.93c1.79.4,2.19-1.16,1.88-1.87A2.15,2.15,0,0,0,53.53,191.5Z"/>
      <path class="af791df4-89e0-463b-8bf4-d0ac120838da" d="M55.23,190.58a2.27,2.27,0,0,0-1.78.94,2.78,2.78,0,0,1,1.76-.66,1.64,1.64,0,0,1,1,.69,2.07,2.07,0,0,1,.35,1.86,1.66,1.66,0,0,1-1.26,1.2,5.65,5.65,0,0,1-4.11-1.11c-.75-.7-.95-2.55.06-4.31,0,0-1.9,2.7-.27,4.51a5.93,5.93,0,0,0,3.3,1.26,3.33,3.33,0,0,0,1.1-.08,1.91,1.91,0,0,0,1.47-1.4,2.37,2.37,0,0,0-.39-2.09A2,2,0,0,0,55.23,190.58Z"/>
      <path class="af791df4-89e0-463b-8bf4-d0ac120838da" d="M46.18,191.78l.3,0a8,8,0,0,1,2.07-5.19A7.1,7.1,0,0,0,46.18,191.78Z"/>
      <path class="eb0e5e57-e1f2-4f7a-8457-cda76b971d85" d="M64.36,96.31a5.59,5.59,0,0,1,2.24-1.83c-4.85-1.6-8.72.57-11.94,2.47-2.41-2-9.41-3-9.41-3a14.75,14.75,0,0,1,1.5,2.17c-5.2-1.87-8.75-.71-8.75-.71s4.09.58,5.68,1.48C25.31,98.2,23,116,22.43,123.1c0,0,13.69,12.24,69.71,5.13C91.44,94.75,64.36,96.31,64.36,96.31Z"/>
      <path class="b5751130-b02a-4126-8a03-df0fda2952af" d="M80.38,125.44c3.8-14.39.48-24.79-7-27.73a27.08,27.08,0,0,0-9-1.4,5.59,5.59,0,0,1,2.24-1.83c-4.85-1.6-8.72.57-11.94,2.47-2.41-2-9.41-3-9.41-3a14.75,14.75,0,0,1,1.5,2.17c-5.2-1.87-8.75-.71-8.75-.71s4.09.58,5.68,1.48C25.31,98.2,23,116,22.43,123.1c0,0,12.63,11.29,63.23,5.88C83.93,126.7,83.48,125.16,80.38,125.44Z"/>
      <path class="eb0e5e57-e1f2-4f7a-8457-cda76b971d85" d="M54.66,97c-2.41-2-9.41-3-9.41-3a14.75,14.75,0,0,1,1.5,2.17c-5.2-1.87-8.75-.71-8.75-.71s4.09.58,5.68,1.48C25.31,98.2,23,116,22.43,123.1c0,0,.76.41,1.91,1.06a31.08,31.08,0,0,1,6.82-19.62C34.81,100,40.7,98,46.7,98.12a6.1,6.1,0,0,0-2.52-1.85,34,34,0,0,1,5.68,1.13,14.43,14.43,0,0,0-2.19-2.18c2.39.18,7,2.75,7,2.73,4.12-2.5,7.06-3.58,11.61-3.55C61.6,93,57.82,95.09,54.66,97Z"/>
      <path class="af791df4-89e0-463b-8bf4-d0ac120838da" d="M81.66,102a27.65,27.65,0,0,0-17-5.85,5.43,5.43,0,0,1,2-1.55l.36-.14-.37-.12A11.33,11.33,0,0,0,64,93.81c-3.75-.27-6.95,1.58-9.31,3-2.48-2-9.11-2.89-9.4-2.93l-.37,0,.24.28a17,17,0,0,1,1.29,1.82A17.82,17.82,0,0,0,42.05,95a11.68,11.68,0,0,0-4.1.32l-.57.19.6.09a26.83,26.83,0,0,1,5.17,1.24c-12.47,1.1-19.54,10.3-20.92,26.64l.13.1.06.18c.06.05,6.26,5,26.74,6.46,12,.89,26.47.27,43-1.83l.13,0v-.12C92,116.33,88.47,107.51,81.66,102ZM49.18,129.92c-19.36-1.42-25.95-6.36-26.6-6.88,1.4-16.36,8.5-25.1,21.11-26l.47,0-.4-.23a19.48,19.48,0,0,0-5-1.39A13.31,13.31,0,0,1,42,95.27a17.2,17.2,0,0,1,4.66,1l.36.13-.17-.33a14.37,14.37,0,0,0-1.28-1.92c1.46.23,6.93,1.17,9,2.88l.08.08.1-.06c2.33-1.37,5.51-3.25,9.22-3a10.48,10.48,0,0,1,2.24.41,5.8,5.8,0,0,0-2,1.72l-.16.24.3,0a20,20,0,0,1,2.19.06c5.81.42,24.79,4,25.42,31.59C75.53,130.19,61.13,130.8,49.18,129.92Z"/>
      <g>
        <path d="M60.7,109.75c-3.37,0-6.09,3.55-6.07,8s2.77,8,6.14,8,6.09-3.55,6.07-8S64.07,109.76,60.7,109.75Z"/>
        <path class="abdb862f-b1a5-4c0d-aab9-1f5f463348bd" d="M60.7,110.64c-3.26,0-5.87,3.35-5.86,7.5s2.67,7.53,5.92,7.55,5.87-3.35,5.86-7.5S64,110.65,60.7,110.64Z"/>
        <path class="fc9b9785-c428-447a-9c24-c1fe8637df2d" d="M60.7,110.64c-3.26,0-5.9,3.35-5.86,7.5.06,5.78,11.41,8.26,11.78,0C66.8,114,64,110.65,60.7,110.64Z"/>
        <path d="M60.69,110.5c-3.32,0-6,3.42-6,7.64,0,4.07,2.54,7.44,5.74,7.68h.33A5.4,5.4,0,0,0,65,123.58a8.77,8.77,0,0,0,1.73-5.39C66.75,114,64.05,110.52,60.69,110.5Zm4.1,12.91a5.06,5.06,0,0,1-4,2.13c-3.18,0-5.75-3.34-5.77-7.4s2.54-7.37,5.71-7.36l.31,0c3,.22,5.44,3.47,5.45,7.39A8.4,8.4,0,0,1,64.79,123.41Z"/>
      </g>
      <g>
        <path d="M37.18,109.54c-2.46-.48-5.13,2.27-5.95,6.16s.51,7.44,3,7.92,5.13-2.27,5.95-6.16S39.65,110,37.18,109.54Z"/>
        <path class="abdb862f-b1a5-4c0d-aab9-1f5f463348bd" d="M37,110.34c-2.38-.47-4.93,2.13-5.7,5.79s.52,7,2.89,7.49,4.92-2.13,5.7-5.8S39.37,110.81,37,110.34Z"/>
        <path class="fc9b9785-c428-447a-9c24-c1fe8637df2d" d="M37,110.34c-2.38-.47-5.06,2.1-5.7,5.79-1.33,7.7,7.4,6.64,8.59,1.69C40.77,114.18,39.37,110.81,37,110.34Z"/>
        <g>
          <g>
            <path class="b1240caf-9796-4287-8ed4-79181cacb7f7" d="M37.07,114.85c-1.37-.17-2.69,1.29-3,3.27s.64,3.71,2,3.88,2.69-1.29,2.95-3.26S38.44,115,37.07,114.85Z"/>
            <path class="a2e7f4aa-5ca7-498d-baa2-40daf3213652" d="M37.3,120.06A2.76,2.76,0,0,1,34.08,119c.06,1.6.88,2.89,2.05,3,1.37.18,2.69-1.29,2.95-3.26l0-.22A3.72,3.72,0,0,1,37.3,120.06Z"/>
            <path d="M36.93,116.71c-.8-.1-1.57.76-1.72,1.91s.37,2.16,1.17,2.26,1.57-.75,1.72-1.9S37.73,116.81,36.93,116.71Z"/>
            <path class="bff3c3fd-df54-482c-a834-3e06798b0732" d="M37.09,114.7c-1.48-.19-2.87,1.34-3.14,3.4s.7,3.88,2.16,4.06l.24,0c1.39,0,2.64-1.47,2.9-3.42a4.67,4.67,0,0,0-.41-2.71A2.34,2.34,0,0,0,37.09,114.7Zm1.83,4c-.25,1.86-1.49,3.29-2.77,3.13S34,120,34.29,118.14,35.65,115,36.86,115h.19a2.05,2.05,0,0,1,1.49,1.18A4.39,4.39,0,0,1,38.92,118.72Z"/>
          </g>
          <path class="fc9b9785-c428-447a-9c24-c1fe8637df2d" d="M35.58,116.94a.83.83,0,0,0-1,.57.78.78,0,0,0,.61.94.81.81,0,0,0,1-.57A.78.78,0,0,0,35.58,116.94Z"/>
          <path class="fc9b9785-c428-447a-9c24-c1fe8637df2d" d="M37.39,116.4a.47.47,0,0,0-.57.33.45.45,0,0,0,.36.54.46.46,0,0,0,.56-.33A.45.45,0,0,0,37.39,116.4Z"/>
        </g>
        <path d="M37,110.2l-.37,0c-2.38-.17-4.75,2.39-5.51,6-.79,3.73.56,7.17,3,7.65l.37,0h0c2.38.17,4.75-2.39,5.51-6a9,9,0,0,0-.28-5A3.85,3.85,0,0,0,37,110.2Zm2.71,7.59c-.71,3.38-3,5.89-5.19,5.73l-.33,0c-2.29-.45-3.53-3.73-2.77-7.32.71-3.37,3-5.89,5.19-5.73l.33,0a3.56,3.56,0,0,1,2.51,2.45A8.67,8.67,0,0,1,39.74,117.79Z"/>
      </g>
      <g>
        <path class="b1240caf-9796-4287-8ed4-79181cacb7f7" d="M61.81,115.16c-1.68,0-3,2-3,4.43S60.32,124,62,123.94s3-2,3-4.43S63.49,115.14,61.81,115.16Z"/>
        <path class="a2e7f4aa-5ca7-498d-baa2-40daf3213652" d="M65,119.51a6.14,6.14,0,0,0-.12-1.06,4.12,4.12,0,0,1-3.08,2.8,3.16,3.16,0,0,1-2.85-1c.26,2.13,1.56,3.76,3.1,3.74S65,121.94,65,119.51Z"/>
        <path d="M62,117.43c-1,0-1.75,1.16-1.72,2.58s.85,2.55,1.83,2.54,1.75-1.17,1.72-2.58S63,117.42,62,117.43Z"/>
        <path class="bff3c3fd-df54-482c-a834-3e06798b0732" d="M64.16,116.31A2.89,2.89,0,0,0,61.8,115c-1.82,0-3.2,2.09-3.15,4.62s1.56,4.57,3.35,4.55a2.58,2.58,0,0,0,.29,0c1.68-.22,2.91-2.2,2.86-4.6A5.72,5.72,0,0,0,64.16,116.31ZM62,123.75c-1.56,0-2.88-1.85-2.93-4.17,0-2.16,1.06-4,2.52-4.21l.23,0a2.51,2.51,0,0,1,2,1.18,5.3,5.3,0,0,1,.92,3C64.79,121.8,63.57,123.73,62,123.75Z"/>
      </g>
      <path class="a9a595e6-40ed-4d10-a8f1-c4f4076c5149" d="M91.36,127.93c-12.19-5.42-30-1.15-32.38-1.52-3.15-.51-9.59-5.22-16.33-5.7-4.83-.35-8,2.22-9.92,2.72-3.27.84-9.69-4.48-16,5.37.18.51,3-.5,3-.5s-3.92,2.14-2.72,8.34a7.68,7.68,0,0,1,1.71-1.87s-.2,10.94,19.34,15.8l17.62,2.61c12,.88,27.67-.8,33.3-7.78a8.62,8.62,0,0,1-.4,2.72s5-.39,6-8.38a4.71,4.71,0,0,1,1.56,1.92S100.42,132,91.36,127.93Z"/>
      <path class="a1c892b0-8e89-456e-a225-f649b279c9ef" d="M78.21,125.35l.06-.13c-9.15-.41-17.72,1.44-19.29,1.19-3.15-.51-9.59-5.22-16.33-5.7-4.83-.35-8,2.22-9.92,2.72-3.27.84-9.69-4.48-16,5.37.18.51,3-.5,3-.5s-3.92,2.14-2.72,8.34a7.68,7.68,0,0,1,1.71-1.87s-.2,10.94,19.34,15.8l9.07,3.51,8.53-.92.2,0c7.15-.25,28.34-5.57,28.71-16a6,6,0,0,1,1.28,2.94c2-2.41.7-5.35-.31-8A3.49,3.49,0,0,1,87.8,134C87.21,129.72,83.36,124.88,78.21,125.35Z"/>
      <path class="ac5e29c6-20d2-48a7-86e2-decbf4593d0c" d="M32.73,123.43c.05,0-.46,0-1.27,0A3.78,3.78,0,0,0,32.73,123.43Z"/>
      <path class="a9a595e6-40ed-4d10-a8f1-c4f4076c5149" d="M21.24,132.05c-.93.49-1.69.58-2.63,1.08.73-3.17,3.33-4.69,4.58-6.06a6.12,6.12,0,0,0-3.37.2c2.61-3.61,7.9-3.87,10.83-3.8h.81c-3.38-.36-9.2-3.31-14.71,5.33.18.51,3-.5,3-.5s-3.92,2.14-2.72,8.34a7.68,7.68,0,0,1,1.71-1.87s-.18,10,16.79,15.09C27.63,146,20.05,139.07,21.24,132.05Z"/>
      <path class="fc9b9785-c428-447a-9c24-c1fe8637df2d" d="M33.1,125.7c2.39-1.75,5.67-2.26,8.82-2.82a41.16,41.16,0,0,0-4.76,0s-6.48.56-7.78,6c-.54,2.26.31,3.07.55,4.76C30.4,130.37,30.16,127.77,33.1,125.7Z"/>
      <path class="af791df4-89e0-463b-8bf4-d0ac120838da" d="M91.42,127.81c-9.36-4.17-21.81-2.67-28.51-1.87a23.88,23.88,0,0,1-3.9.33,21.72,21.72,0,0,1-4.76-1.9c-3.27-1.55-7.34-3.49-11.57-3.8h0a15.18,15.18,0,0,0-8,1.92,11,11,0,0,1-1.94.8,7.7,7.7,0,0,1-3.17-.24c-3.48-.68-8.24-1.62-12.9,5.67l0,.06,0,.06a.35.35,0,0,0,.19.19,4.52,4.52,0,0,0,2.14-.31c-1.09,1-3,3.39-2.08,7.94l.07.38.21-.33a7.39,7.39,0,0,1,1.44-1.64,11.88,11.88,0,0,0,2.36,5.86c2.11,2.95,6.58,6.93,15.92,9.47a5.37,5.37,0,0,0,1.24,0c-10-2.49-14.73-6.62-16.9-9.64a11.11,11.11,0,0,1-2.33-6v-.3l-.25.18a7.53,7.53,0,0,0-1.54,1.59c-.95-5.75,2.67-7.8,2.71-7.82l-.13-.26a7.82,7.82,0,0,1-2.73.61c4.53-7,9.15-6.12,12.53-5.45a8.15,8.15,0,0,0,3.31.24,11.86,11.86,0,0,0,2-.83,15.05,15.05,0,0,1,7.88-1.89h0c4.17.31,8.21,2.23,11.46,3.78A22.45,22.45,0,0,0,59,126.55a22.79,22.79,0,0,0,4-.33c6.67-.8,19.07-2.29,28.34,1.84,7.93,3.53,5.47,11.56,4.85,13.23a4.3,4.3,0,0,0-1.47-1.67l-.19-.11,0,.22c-.84,6.81-4.7,8-5.68,8.21a7.71,7.71,0,0,0,.35-2.56l0-.35-.23.28c-5.4,6.7-20.61,8.76-33.29,7.82a38.72,38.72,0,0,0,7.45.48c10.56-.27,21.25-2.54,25.83-7.82a9.39,9.39,0,0,1-.42,2.29l-.06.2.22,0s5.08-.48,6.14-8.27a4.91,4.91,0,0,1,1.3,1.72l.14.32.14-.31C96.34,141.62,100.51,131.85,91.42,127.81Z"/>
      <path class="af791df4-89e0-463b-8bf4-d0ac120838da" d="M37.19,148.45A3.83,3.83,0,0,0,40.06,150a4.41,4.41,0,0,0,3.37-1A5.62,5.62,0,0,1,37.19,148.45Z"/>
      <path d="M37.88,102.19c-2.53.71-4.32,5.2-4.13,5.41,0,0,2.52-3.37,3.91-3.75a3.4,3.4,0,0,1,2.42.16S39.83,101.64,37.88,102.19Z"/>
      <path d="M56.89,103.87a6.71,6.71,0,0,1,7.59,2.77C63.11,102.41,60.8,100.87,56.89,103.87Z"/>
      <path class="fc9b9785-c428-447a-9c24-c1fe8637df2d" d="M60.4,117.93a.95.95,0,1,0,.91,1A1,1,0,0,0,60.4,117.93Z"/>
      <path class="fc9b9785-c428-447a-9c24-c1fe8637df2d" d="M62.48,117a.55.55,0,0,0-.62.49.54.54,0,0,0,.52.59.54.54,0,1,0,.1-1.08Z"/>
      <path class="a2e2486e-376f-49cb-8d12-e678b8fcabb6" d="M30.9,132.91c-.15-.47,9.25,7,25.38-.27-8.48,13.38-6.47,14.08-15.8,13.62C32.05,145.35,39.51,142.39,30.9,132.91Z"/>
      <path class="aaee922a-c5c8-4ff3-ac2a-671a6107e586" d="M36.81,144.91a12.53,12.53,0,0,0,9.94.3c5.14-2.19-2.3-5.73-4.68-4.2-.8-1.34-8.07-1-5.26,3.9"/>
      <g>
        <path class="fc9b9785-c428-447a-9c24-c1fe8637df2d" d="M39,141.41a1.51,1.51,0,0,0,1.66-.46,2.13,2.13,0,0,0,2.18.07c1-.6.64-9.08.64-9.08l-6.47.22S36.8,140.5,39,141.41Z"/>
        <path class="abdb862f-b1a5-4c0d-aab9-1f5f463348bd" d="M40.2,138.58a1.14,1.14,0,0,0-.06-.25A2.27,2.27,0,0,0,40.2,138.58Z"/>
        <path class="abdb862f-b1a5-4c0d-aab9-1f5f463348bd" d="M43.43,131.94l-1.24,0c.22,2.62.73,6.42.15,7.81-.46,1.07-1.87-.25-2.14-1.21.09.55-.14,1.44-.8,1.57a1.74,1.74,0,0,1-1.76-.88A3.11,3.11,0,0,0,39,141.41a1.51,1.51,0,0,0,1.66-.46,2.13,2.13,0,0,0,2.18.07C43.81,140.42,43.43,131.94,43.43,131.94Z"/>
        <polygon class="a1324f9f-3f11-404f-b110-abb20fd6dfd7" points="40.45 140.97 39.41 133.59 39.72 133.56 40.77 140.94 40.45 140.97"/>
        <path class="a1324f9f-3f11-404f-b110-abb20fd6dfd7" d="M39.36,141.66a1.39,1.39,0,0,1-.47-.11c-2.23-.94-2.1-9.05-2.09-9.4V132l6.79-.23v.16c.07,1.43.33,8.59-.72,9.21a2.26,2.26,0,0,1-2.23,0A1.67,1.67,0,0,1,39.36,141.66Zm-2.25-9.36c0,2.4.25,8.28,1.91,9h0a1.33,1.33,0,0,0,1.47-.41l.09-.11.12.08a1.93,1.93,0,0,0,2,.06c.68-.4.72-5.54.58-8.79Z"/>
      </g>
      <path class="a1c892b0-8e89-456e-a225-f649b279c9ef" d="M37.59,123.25s-6.57-.13-7.82,4.63.68,8,4.92,8.54,4.89-3,4.89-3a11.38,11.38,0,0,0,6.2,3.08c3.45.29,8.29-.08,8-5.49-.2-4.12-3.72-7-8.2-7.41A64.4,64.4,0,0,0,37.59,123.25Z"/>
      <path class="a9a595e6-40ed-4d10-a8f1-c4f4076c5149" d="M53.82,131c-.19-3.87-3.31-6.61-7.39-7.3,3.76,2,5.44,5.37,4.08,8.53-.9,2.18-4.56,2.57-7.16,1.65s-4.59-3.9-4.65-5.93a17.27,17.27,0,0,1-.52,3.74,4.35,4.35,0,0,1-3.53,3,8.59,8.59,0,0,1-3.82-.21l-.16-.05a6.06,6.06,0,0,0,4,2c4.23.56,4.89-3,4.89-3a11.38,11.38,0,0,0,6.2,3.08C49.23,136.77,54.07,136.4,53.82,131Z"/>
      <path class="af791df4-89e0-463b-8bf4-d0ac120838da" d="M35.09,136.57l-.42,0a6.5,6.5,0,0,1-3.8-1.69c-1.58-1.54-2-4-1.25-7a6.17,6.17,0,0,1,4.46-4.17,12.46,12.46,0,0,1,3.5-.54,63.79,63.79,0,0,1,8.06.33,10.47,10.47,0,0,1,5.81,2.37A7.21,7.21,0,0,1,54,131a4.78,4.78,0,0,1-2.11,4.66c-1.37.85-3.42,1.17-6.1.93a11.17,11.17,0,0,1-6.1-2.91,4.06,4.06,0,0,1-2.06,2.49A5,5,0,0,1,35.09,136.57Zm8.71-13c-3.53-.26-6.16-.17-6.19-.17h0a11.86,11.86,0,0,0-3.39.52c-2.33.74-3.77,2.09-4.28,4-.76,2.91-.34,5.33,1.2,6.83a6.19,6.19,0,0,0,3.58,1.59,4.79,4.79,0,0,0,2.7-.34,3.93,3.93,0,0,0,2-2.6l0-.28.24.24a11.28,11.28,0,0,0,6.08,3c2.59.22,4.56-.08,5.86-.89s2.11-2.39,2-4.49c-.19-3.9-3.42-6.83-8-7.31Z"/>
      <g>
        <path class="bc989d07-a66a-4a65-9f6b-ce7ccc219a51" d="M33.05,124.37c-.82,1.28,2.1,5.13,5.86,5.4,2.33.18,10.12-2.44,9.1-4.87C46.75,121.92,34.55,122,33.05,124.37Z"/>
        <path class="e9340681-ca0b-43b7-91ed-9c8924df5e4d" d="M33.63,124.48c-.29.44.08,1.2.78,2,2.4,1.73,6.47,1.68,9.34.32,1.55-.73,3.28-2.54,2.11-3.27C42.18,122.18,34.82,122.62,33.63,124.48Z"/>
        <path class="be60a17a-e919-487d-9987-275ac62e805d" d="M38,123.47c-1.69.2-2.94.72-2.79,1.17s1.64.66,3.33.46,2.94-.72,2.79-1.17S39.71,123.27,38,123.47Z"/>
        <path class="e7a5ed47-2391-44c5-a6e9-fd06ec3a17d6" d="M38.9,129.88A7.57,7.57,0,0,1,34,127.31c-1-1.16-1.45-2.36-1.05-3,.92-1.43,5.44-2,9.17-1.73l.14,0c3.29.26,5.45,1.09,5.95,2.27.28.66,0,1.37-.92,2.11A16.47,16.47,0,0,1,38.9,129.88Zm3.16-7.07c-3.64-.27-8,.31-8.86,1.61h0c-.36.56.06,1.7,1,2.79a7.28,7.28,0,0,0,4.69,2.46A16.1,16.1,0,0,0,47,126.85c.82-.69,1.12-1.33.87-1.92-.45-1.07-2.57-1.86-5.67-2.11Z"/>
      </g>
    </g>
  </g>
</svg>
