<svg id="f890e456-9d37-41dd-8451-c8b0efdf57b8" data-name="Layer 1" xmlns="http://www.w3.org/2000/svg" width="262.26" height="262.32" viewBox="0 0 262.26 262.32">
  <defs>
    <style>
      .a0a39393-8ce9-4e50-99bd-b77446862238 {
        opacity: 0.5;
      }

      .adea213c-453d-4737-aa7d-0127c1869a98 {
        fill: #fff;
      }

      .a91457d2-ea12-4b43-9602-8e6b8fd26e6b {
        fill: #f6ddcd;
      }

      .b7b678e6-ca41-408a-a109-1000d38f9e3c {
        fill: #997968;
      }

      .b82dbd58-0182-4078-a208-be14447887dd {
        fill: #6b4a37;
      }

      .b235b8a3-659b-4d4e-a181-411b160cdaad, .b570ced4-1b25-4735-9b46-9bb0fdd5dfa2 {
        fill: #c1b3ab;
      }

      .a736e89b-94ad-41be-8fba-4a660e590c4b {
        fill: #cbaf9d;
      }

      .b31112f3-a729-4622-a0d8-dc1ef8155bd3 {
        fill: #d0b6a5;
      }

      .e08d2bc1-1b6d-4412-9a71-efa32434ba9c {
        fill: #b2917c;
      }

      .aee895d3-8a5e-4def-a350-84eb7b0c0a98 {
        fill: #433c37;
      }

      .b10265cf-1eea-4103-92fe-870b269847d1 {
        fill: #211b18;
      }

      .ae385040-b752-4cd9-8a32-69d5fc42de8d {
        fill: #815049;
      }

      .b25ed7aa-10d1-41fc-9d2f-c0c9b940dd66, .f9e97f54-785c-496b-af5a-6bc2750afed0 {
        fill: #f7e6e6;
      }

      .b235b8a3-659b-4d4e-a181-411b160cdaad, .be71a4b3-f996-48e1-bec4-70282d7d33d9, .f9e97f54-785c-496b-af5a-6bc2750afed0 {
        stroke: #60452c;
        stroke-miterlimit: 10;
      }

      .f9e97f54-785c-496b-af5a-6bc2750afed0 {
        stroke-width: 0.75px;
      }

      .bcb4da74-cad8-4523-aa5d-3eae4c91212f {
        fill: #333316;
      }

      .ffcbef26-42f4-4193-a98a-7b395d2bcb99 {
        fill: #d4b8a7;
      }

      .be71a4b3-f996-48e1-bec4-70282d7d33d9 {
        fill: none;
      }

      .bbc1695e-2ce7-4f81-aecf-02fdecedfe27 {
        fill: #60452c;
      }
    </style>
  </defs>
  <g>
    <path class="a0a39393-8ce9-4e50-99bd-b77446862238" d="M184.31,259.44a8.37,8.37,0,0,1-8-10.87l.14-.43s.1-.31.26-.77a23.31,23.31,0,0,1,7.19-10.61l-1.8-30.18c0-.17,0-.34,0-.5,0-3.24-1-7.7-2.28-9.34-.84-.53-2.3-1.48-4.14-2.67q-5.37-3.23-10.22-6.33c.55,1.69,1,2.72,1,2.76a8.38,8.38,0,0,1,.08,6.21L151.37,236a8.64,8.64,0,0,1,.6,1.91s.05.27.12.7c0,.13,0,.26.07.39a11.23,11.23,0,0,1,.38,4.91q0,.76-.09,1.47c-.56,7.5-5.15,10.91-9.28,11.59-.25,0-.51.07-.77.09l-12.46.94c-.21,0-.42,0-.63,0A8.36,8.36,0,0,1,121,249.5a8.56,8.56,0,0,1,.23-1.88l.11-.43a23.87,23.87,0,0,1,6.86-11.76l11.44-39.23-7.18-14.74c-5.85,1.15-11.52,2-17,2.55-2.7.3-5.32.51-7.75.61-.26.5-.5.95-.74,1.36l-1.2,50.35a8.35,8.35,0,0,1,1.54,3.86c.45,3.4.7,9.69-2.44,14.08a10,10,0,0,1-8.22,4.49h-.18c-1.44.08-5.35.3-8.61.3a22.94,22.94,0,0,1-6.19-.58,8.33,8.33,0,0,1-5.07-4.06,10.23,10.23,0,0,1-.47-1H63a8.36,8.36,0,0,1-8-10.85l.13-.42c.39-1.28,2.61-7.79,8.37-11.84l.21-29c-.82-4.24-3.83-20.14-4.75-28.91-5.16-4.17-12.56-13.28-15-32-.74-4.28-.34-13.29,1.22-26.83.53-5.88,1.13-10.67,1.42-12.84a17.71,17.71,0,0,1-7.27,2.7,17.76,17.76,0,0,1-2.91.24,16.09,16.09,0,0,1-1.72-.09l-.59-.05a31.13,31.13,0,0,1-6.27-1,8.56,8.56,0,0,1-1.62-.61c-.19-.1-1.17-.6-2.47-1.42l0,0a21.25,21.25,0,0,1-4.64-3.54,20.9,20.9,0,0,1-2.35-2.61A14.28,14.28,0,0,1,8.23,80.74,12.63,12.63,0,0,1,9.88,72.4a11.2,11.2,0,0,1,3-3.18,30.68,30.68,0,0,1,1.77-6.39l-.85-10.92A23.81,23.81,0,0,1,12.53,43a24.11,24.11,0,0,1,1.75-7.94,15.91,15.91,0,0,1-2.1-4.57C11.3,27.3,11,22.27,14.73,16.38a8.44,8.44,0,0,1,4.57-3.53l.19-.06a11.59,11.59,0,0,1,3.56-.54h.15a13,13,0,0,1,6.09,1.5s.05-.08.07-.13A12,12,0,0,1,39.84,8.11,19.55,19.55,0,0,1,45.39,9l.15,0a28.06,28.06,0,0,1,4.2,1.55c.59.28,1.15.57,1.7.85q3.36,1.51,6,3a12.4,12.4,0,0,1,7.66-2.87,10.54,10.54,0,0,1,5.67,1.66A12.47,12.47,0,0,1,76.19,21a23.41,23.41,0,0,1,.88,8.46C86,38.05,106,60,119.15,94.07c1.6,3.86,2.84,7.16,3.72,9.65a28.11,28.11,0,0,0,4.71.36,50.92,50.92,0,0,0,6.75-.5,177,177,0,0,0,19-4.83,26.74,26.74,0,0,1,11.48-2.58A30.71,30.71,0,0,1,178,99.3a22.58,22.58,0,0,1,9.91-2.38,21.17,21.17,0,0,1,9,2c14.9,6.29,21.26,27.5,21.93,29.91,0,.16.09.32.13.48.12.57.29,1.24.51,2l0,.08c2.35,8,8,20,8.06,20.17l.12.27c.15.34.3.66.46,1l.26.53.16.29a18.88,18.88,0,0,0,1.86,2.75,8,8,0,0,0,6.5,2.86,21.73,21.73,0,0,0,9.72-2.88,8.36,8.36,0,0,1,10.43,12.9c-11.19,11.75-21.57,17.46-31.73,17.46a26.63,26.63,0,0,1-17.49-6.79,8.27,8.27,0,0,1,.72,1.7,18,18,0,0,1-1,12.29,20.8,20.8,0,0,1-1.79,4c-.1,4.75-.29,15.32-.34,24.51v9c0,1.81,0,3.11.07,4.05a17.38,17.38,0,0,1,1.65,2.59,8.48,8.48,0,0,1,.82,2.69,30.8,30.8,0,0,1-.05,7.86c-.6,6.21-4.72,9.73-8.69,10.54a9.79,9.79,0,0,1-1.36.23,6.34,6.34,0,0,1-.76,0Zm19.81-83a3.59,3.59,0,0,1,.34.17,48.73,48.73,0,0,1-6-8.33c.49,2.83,2.13,5.38,5,7.72l.5.33Z"/>
    <path class="adea213c-453d-4737-aa7d-0127c1869a98" d="M179.08,254.22a8.35,8.35,0,0,1-8-10.87l.13-.43s.1-.32.26-.77a23.3,23.3,0,0,1,7.2-10.62l-1.81-30.18c0-.17,0-.33,0-.5,0-3.23-1-7.7-2.29-9.33l-4.14-2.68q-5.37-3.22-10.21-6.33c.55,1.7,1,2.73,1,2.76a8.43,8.43,0,0,1,.07,6.21l-15.15,39.28a8.59,8.59,0,0,1,.61,1.92s.05.26.12.69a3.91,3.91,0,0,0,.07.39,11.23,11.23,0,0,1,.37,4.91c0,.51,0,1-.08,1.47-.57,7.51-5.16,10.91-9.29,11.59a6.48,6.48,0,0,1-.77.1l-12.45.93c-.21,0-.43,0-.63,0a8.37,8.37,0,0,1-8.36-8.52,8,8,0,0,1,.23-1.88l.1-.43a24,24,0,0,1,6.87-11.76L134.36,191l-7.18-14.75c-5.84,1.15-11.52,2-16.94,2.55-2.71.3-5.33.51-7.76.61-.25.5-.5,1-.73,1.36l-1.2,50.36a8.43,8.43,0,0,1,1.54,3.85c.44,3.41.69,9.69-2.45,14.08a10,10,0,0,1-8.21,4.49h-.19c-1.44.09-5.35.3-8.61.3a23.08,23.08,0,0,1-6.19-.57,8.35,8.35,0,0,1-5.07-4.07,7.64,7.64,0,0,1-.46-1H57.82a8.36,8.36,0,0,1-8-10.84l.13-.43c.39-1.28,2.61-7.79,8.38-11.84l.2-29c-.82-4.23-3.83-20.13-4.75-28.91-5.16-4.17-12.56-13.28-14.95-32-.74-4.28-.33-13.29,1.22-26.83.53-5.88,1.13-10.67,1.42-12.84a17.67,17.67,0,0,1-7.26,2.71,19.15,19.15,0,0,1-2.92.23c-.59,0-1.16,0-1.71-.08L29,98.26a31,31,0,0,1-6.27-1,7.71,7.71,0,0,1-1.62-.61c-.2-.1-1.17-.6-2.47-1.41l0,0A21,21,0,0,1,14,91.64,20.94,20.94,0,0,1,11.61,89,14.33,14.33,0,0,1,3,75.52a12.74,12.74,0,0,1,1.66-8.35,11,11,0,0,1,3-3.18A30.68,30.68,0,0,1,9.41,57.6L8.57,46.68a24,24,0,0,1,.48-16.85A15.79,15.79,0,0,1,7,25.26C6.07,22.08,5.8,17,9.51,11.15a8.35,8.35,0,0,1,4.57-3.52l.18-.07A11.64,11.64,0,0,1,17.82,7H18a13,13,0,0,1,6.08,1.49l.08-.12A12,12,0,0,1,34.61,2.88a19.5,19.5,0,0,1,5.55.87l.15,0a28.39,28.39,0,0,1,4.21,1.56l1.7.84q3.35,1.51,6,3a12.42,12.42,0,0,1,7.67-2.86A10.5,10.5,0,0,1,65.56,8,12.4,12.4,0,0,1,71,15.75a23.33,23.33,0,0,1,.89,8.46c8.9,8.61,29,30.58,42.08,64.63,1.59,3.86,2.83,7.17,3.72,9.66a29.14,29.14,0,0,0,4.7.35,50.57,50.57,0,0,0,6.75-.49,181.27,181.27,0,0,0,19-4.83A26.82,26.82,0,0,1,159.61,91a30.67,30.67,0,0,1,13.18,3.12,22.58,22.58,0,0,1,9.92-2.37,21.15,21.15,0,0,1,9,2c14.9,6.3,21.26,27.5,21.94,29.91l.12.48c.12.58.3,1.25.51,2l0,.09c2.34,8,8,20,8,20.17l.12.26c.15.35.31.66.46,1,0,0,.26.53.26.53l.16.28a17.2,17.2,0,0,0,1.87,2.75,8,8,0,0,0,6.49,2.86,21.71,21.71,0,0,0,9.72-2.87A8.36,8.36,0,0,1,251.83,164c-11.19,11.74-21.56,17.45-31.72,17.45a26.65,26.65,0,0,1-17.5-6.79,8.27,8.27,0,0,1,.72,1.7,17.85,17.85,0,0,1-1,12.29,20,20,0,0,1-1.79,4c-.09,4.74-.28,15.31-.34,24.51v9c0,1.81,0,3.12.07,4a15.45,15.45,0,0,1,1.65,2.6,8.42,8.42,0,0,1,.82,2.68,31.2,31.2,0,0,1,0,7.87c-.61,6.2-4.73,9.72-8.7,10.53a8.47,8.47,0,0,1-1.35.24l-.76,0Zm19.82-83,.33.17a49,49,0,0,1-6-8.32c.49,2.82,2.12,5.38,5,7.71.21.16.38.27.49.34Z"/>
    <g id="f4180965-abc8-42fd-b7bf-3d8cb797076d" data-name="h">
      <path class="a91457d2-ea12-4b43-9602-8e6b8fd26e6b" d="M19.33,28.23s-8.09-4.12-2.74-12.63c0,0,5.07-1.09,8.09,7.69L30,22.46s-.41.23,2.75-.57a23.44,23.44,0,0,1,5.21-.8l3-.27,5.35,1.07,4.12,1.53,8.37,3.16,1.64,5.35s3,6.45,3.43,7.55,1.24,2.88,1.24,2.88l1.1,2.33,1.37,3.16,1.21,10.49-1.21,6,3.62-2.93c5.5,2.75,7.73,3.79,7.73,3.79s-.17-1,2.06,2.23A53.5,53.5,0,0,1,84.82,74L91.7,85.32S93.25,87.9,96,92s4.47,5.84,5.67,7.73,10.23,9.09,26.21,7.35c0,0,16-2.85,27-7.12,0,0,18.82-6.64,31,22.93,0,0,5.11,9.65,0,31.24,0,0-6.22,14.21,9.1,24.73,0,0,1.11,6.64-2.77,11.07,0,0-.92,42.82,0,44.11s3.88,3,0,4.8c0,0-.37-.93-2.21,0a5.49,5.49,0,0,1-4.06,0l1.29-4.06-2-34s0-11.07-5.35-15.87c0,0-29.9-19.19-30.82-20.85,0,0-1.79,10.5,4.12,24.44L136.05,233s4.57,4,1.83,6.28l-2.95-2.4-4.24,2.4-.63-3.67,13.23-45.39-11.81-24.28A166.79,166.79,0,0,1,96,171.37s-1.75,6.26-2.8,7l-1.33,55.75s2,1.72,1.66,2.46l-7.59,1,.6-2.23-5.91-60.1L79.23,169l-1.51-.4s.92,22.77-3.49,30.86L72,227.27s2.48,5-1.18,4.36l-4.18-1.19.25-35.14s-5.29-27.12-5-32.81c0,0-11.79-4.75-14.77-28.6,0,0-1.59-4.84,2.75-36.47,0,0,1.94-25-3.56-28.34a6.19,6.19,0,0,0-4.4,5s1.65,20.07-17,15.12c0,0-6.32-3.16-7.69-7.15,0,0-6.33-.68-5.78-7,0,0-1.37-5.22,4.13-4.81,0,0-.22-6.22,2.4-11.05l-1.1-14.19s-2-5.18-.86-7.91A22,22,0,0,1,19.33,28.23Z"/>
      <path class="b7b678e6-ca41-408a-a109-1000d38f9e3c" d="M130.74,164.42,149.31,162s-1.33,14.94,4.18,26.49L136.35,232.9s4.63,3.29,1.82,6.28l-2.95-2.4-4.23,2.4-.63-3.67,13.23-45.39Z"/>
      <path class="b7b678e6-ca41-408a-a109-1000d38f9e3c" d="M61.54,160.32s4.58,32.28,5.55,34.3c1,2.18-.43,35.82-.43,35.82s4.74,1.4,5.4,1.13c0,0,2,.54.26-4.4l2.2-27.77s4.84-6.12,3.5-30.86Z"/>
      <path class="b82dbd58-0182-4078-a208-be14447887dd" d="M78.86,244.79s2.33-7.77,8.59-9c0,0,6-.42,6.35.21,0,0,1.14,8.75-2.55,9.11l-12.53.06Z"/>
      <path class="b82dbd58-0182-4078-a208-be14447887dd" d="M124.19,243.93s1.83-7.91,8-9.5c0,0,5.95-.81,6.34-.21,0,0,1.71,8.66-1.95,9.26l-12.49.88Z"/>
      <path class="b82dbd58-0182-4078-a208-be14447887dd" d="M179.22,245.42s2.39-7.87,8.78-9.08c0,0,6.11-.42,6.47.21,0,0,1.16,8.87-2.6,9.24l-12.79.06Z"/>
      <path class="b82dbd58-0182-4078-a208-be14447887dd" d="M58,239.4s2.34-7.77,8.6-9c0,0,6-.42,6.34.21,0,0,1.14,8.75-2.55,9.11l-12.52.06Z"/>
      <path class="b570ced4-1b25-4735-9b46-9bb0fdd5dfa2" d="M177.81,108.48s5.15-4.7,8.93,2.94a35.26,35.26,0,0,1,3.26,15.9s11.13,77,55.78,31c0,0-21.65,13.46-31-8.35,0,0-7.33-15.51-9.2-24,0,0-10.39-36.86-32.72-22.1C172.84,103.79,177.51,108.13,177.81,108.48Z"/>
      <path class="a736e89b-94ad-41be-8fba-4a660e590c4b" d="M61.64,37.28s10.21,17.42,3.61,63.06c0,0-8.63,33.48,10,44.57,0,0,15.19,17.24,63.05,9.21,0,0,6.87,6.77,11.11,7.89,0,0-33.55,10-52.9,9,0,0-27.78-2.1-38.59-12.24,0,0-9.23-6.81-10.69-29.64,0,0,2.32-33.14,3.3-37.19-.19-.92.63-19-3.83-23,0,0-4.48,1-4.47,8.42,0,0-.32,15.23-14.49,12.18a12.66,12.66,0,0,1-10.18-7.68s18,7.23,24-6.67c0,0,3.13-7.51-.31-13.57,0,0,8.2,6.38,16.79.5C58,62.2,65.85,54.89,61.64,37.28Z"/>
      <path class="a736e89b-94ad-41be-8fba-4a660e590c4b" d="M29.58,22.29s5.85,25.34-1.35,33.28c0,0-11.89,9.72-7.64,18.89,0,0-5.67-3.12-4.75-5.88,0,0,.52-7.29,2.38-9.55l-1.1-14.19s-4.62-6.52,2.51-16.71c0,0-8.37-4.2-2.75-12.63,0,0,5.11-1.68,8.1,7.69Z"/>
      <path class="b570ced4-1b25-4735-9b46-9bb0fdd5dfa2" d="M21.9,32.88s4.77-3.58,6.81-8.35L32.12,39l1-14.49,3.92,9.55V23.17l5.8,10.91V24.53l2.89,8,1.88-6.47,2.84.12,1.08,0S63.93,37.6,65.75,57.88c0,0-.78,16.39,5,17.69,0,0,2.86,3,2.66-10.3l2.09,30.48,4.82-22,1,29.62,3.1-18.77,6,26,.69-19.63,7.74,22.73V104l12.57,15.15-4.65-14.81,4.65,1.9S90.68,36.85,40.92,12.89c0,0-13.37-6.37-9.74,6.43C31.18,19.32,21.37,24.88,21.9,32.88Z"/>
      <path class="b31112f3-a729-4622-a0d8-dc1ef8155bd3" d="M49.23,33.23s16.38-1.77,13.92-13.92c0,0-1-10.09-8.73,0C54.42,19.31,48.14,28.45,49.23,33.23Z"/>
      <path class="e08d2bc1-1b6d-4412-9a71-efa32434ba9c" d="M51,31.54s1.83-12.08,8.13-13C59.12,18.55,63.53,27.06,51,31.54Z"/>
      <path class="e08d2bc1-1b6d-4412-9a71-efa32434ba9c" d="M20.55,26.57l3-2.54s-1-6.29-5.58-5.48C18,18.55,16,22.42,20.55,26.57Z"/>
      <path class="a91457d2-ea12-4b43-9602-8e6b8fd26e6b" d="M74.18,144.26s5.65,27.09,7.51,32c2.06.42,9.28-1.44,9.28-1.44l4.53-1.93s5.57-8.59,2.48-21.16L88.9,139.39Z"/>
      <ellipse class="aee895d3-8a5e-4def-a350-84eb7b0c0a98" cx="30.47" cy="75.02" rx="3.42" ry="2.47" transform="translate(-37.98 31.76) rotate(-35.6)"/>
      <ellipse class="aee895d3-8a5e-4def-a350-84eb7b0c0a98" cx="14.51" cy="74.46" rx="1.74" ry="2.57" transform="translate(-19.14 6.47) rotate(-15.31)"/>
      <path class="b10265cf-1eea-4103-92fe-870b269847d1" d="M20.11,82.7s11.55,3.92,18.66-3.23c0,0-2.14,6.1-11,6.28C27.8,85.75,22.05,85.13,20.11,82.7Z"/>
      <path class="ae385040-b752-4cd9-8a32-69d5fc42de8d" d="M43.85,36.32s6.68-.56,9.74,4.76C53.59,41.08,53,32.9,43.85,36.32Z"/>
      <path class="ae385040-b752-4cd9-8a32-69d5fc42de8d" d="M17.77,38.49s3.93-5.05,9.81-3.56C27.58,34.93,21.21,29.77,17.77,38.49Z"/>
      <g>
        <circle class="f9e97f54-785c-496b-af5a-6bc2750afed0" cx="45.28" cy="48.41" r="6.18"/>
        <ellipse class="bcb4da74-cad8-4523-aa5d-3eae4c91212f" cx="45.75" cy="48.13" rx="4.58" ry="4.24"/>
        <circle class="b25ed7aa-10d1-41fc-9d2f-c0c9b940dd66" cx="48.56" cy="46.33" r="1.24"/>
      </g>
      <g>
        <ellipse class="f9e97f54-785c-496b-af5a-6bc2750afed0" cx="22.68" cy="45.56" rx="4.73" ry="5.5"/>
        <ellipse class="bcb4da74-cad8-4523-aa5d-3eae4c91212f" cx="23.04" cy="45.31" rx="3.51" ry="3.77"/>
        <ellipse class="b25ed7aa-10d1-41fc-9d2f-c0c9b940dd66" cx="25.19" cy="43.71" rx="0.95" ry="1.11"/>
      </g>
      <path class="ffcbef26-42f4-4193-a98a-7b395d2bcb99" d="M30.47,70.74s4.05-.65,5,2.54C35.47,73.28,37.14,69,30.47,70.74Z"/>
      <path class="be71a4b3-f996-48e1-bec4-70282d7d33d9" d="M25.28,23.75s-2.4-9.53-8.4-8.25c0,0-6.09,6.72,2.75,12.63,0,0-6.94,7.91-2.51,16.71L18.22,59s-2.9,6.35-2.4,11c0,0-6.93-1-3.43,8.63.41.63,1.44,2.11,5.08,3.19,0,0,2.13,7.38,12.5,8,0,0,10,2,12.05-11.66,0,0-1-9.28,9.44-12.23,0,0,12.22-2.65,11.78-20.47"/>
      <path class="be71a4b3-f996-48e1-bec4-70282d7d33d9" d="M46.46,68.7S52,73,49.93,95.4c0,0-4.83,33.74-.92,46.44,0,0,2.2,23.13,30.51,26.49"/>
      <path class="be71a4b3-f996-48e1-bec4-70282d7d33d9" d="M74.18,144.26l6.7,30.89,6.57,60.68s-5.83.35-8.73,9.38c2.2.62,12.53-.06,12.53-.06s3.1.87,2.55-9.11l-1.69-2,1.33-55.76s7.69-9.63,5.47-30.7"/>
      <path class="be71a4b3-f996-48e1-bec4-70282d7d33d9" d="M61.59,161.86l5.5,32.76.32.58-.66,35.24s-5.77.21-8.93,9.38H71s3.31-1.47,1.86-9.17c0,0,.35-3.05-.57-3.48l2.2-27.77s5.5-8.75,3.5-30.86l-.13-.6"/>
      <path class="be71a4b3-f996-48e1-bec4-70282d7d33d9" d="M96.91,171.07s20.35.92,52.4-9.09"/>
      <path class="a91457d2-ea12-4b43-9602-8e6b8fd26e6b" d="M133.6,149.16s5.94,11,30.2,25.05l-2.23-10.34-11.35-7.94a5.76,5.76,0,0,0-1.52-.83C147.73,154.73,133.6,149.16,133.6,149.16Z"/>
      <path class="be71a4b3-f996-48e1-bec4-70282d7d33d9" d="M111.14,105.31c14.21,6,40.12-4,40.12-4,11.27-5.63,21.58,2.49,21.58,2.49,23.84,20.23,12.65,51,13.3,49.44-6.12,17.66,9,25.66,9.18,25.56,1.64,5.5-3.46,11.07-3.46,11.07V234c1.4.16,2.61,2.58,2.61,2.58l-.06,5.82c-.23,3-2.09,3.33-2.09,3.33l-13.24.15c2.36-8.1,8-9.65,8-9.65l.48-1.49-2.16-36.29c-.6-10.17-5.23-13.54-5.23-13.54-43.07-25-48.15-36.71-48.15-36.71"/>
      <path class="be71a4b3-f996-48e1-bec4-70282d7d33d9" d="M21.88,32.33c0,.05-.94-7.67,9.3-13,0,0-3.65-10.66,6.82-7.49,0,0,11.2,4.15,15.59,8.51,0,0,6.55-11,9.32-2.35,0,0,2,6.43-.87,8.58,0,0,33.52,27.66,48.56,78.4l.83.56.28,1.2-5.18-2.42,4.9,14.86L98.86,104v9.64L91.12,90.93l-.69,19.63-6-26-3.1,18.77-1-29.62-4.82,22L73.36,65.27s.25,22.17-7,2.8c0,0-2.23-22.15-3.56-23.62,0,0-4.16-10.68-6.87-13.06,0,0-6,2-6.69,1.84a19.69,19.69,0,0,1,1.1-7l-2.7-.11-1.88,6.47-2.89-8v9.55l-5.8-10.91-.27,10.25s-3.58-9.88-3.65-8.89L32.12,39,28.71,24.53S23.14,32.86,21.88,32.33Z"/>
      <path class="b235b8a3-659b-4d4e-a181-411b160cdaad" d="M53.59,20.34s-2.34,3.95-3.26,5.84"/>
      <path class="b235b8a3-659b-4d4e-a181-411b160cdaad" d="M55.92,31.39A55.66,55.66,0,0,0,62,26.57"/>
      <path class="be71a4b3-f996-48e1-bec4-70282d7d33d9" d="M177.81,108.48s6.41-6.43,10.71,7.61c0,0,1.59,6.59,1.5,10.72-.06-.34,11.21,78.22,55.76,31.46,0,0-19.28,13.56-30-6.16,0,0-10-20.25-9.53-23.45,0,0-11.73-40.93-33.44-24.87"/>
      <path class="be71a4b3-f996-48e1-bec4-70282d7d33d9" d="M131.88,166.69l11.71,23.43-13.23,45.39s-3.57.41-6.17,8.42l-.1.5,12.35-.94s3.79-.81,2.09-9.27l-2.18-1.32,17.14-44.43s-4.87-11.68-4.18-23.31"/>
      <path class="bbc1695e-2ce7-4f81-aecf-02fdecedfe27" d="M17.66,81.44a28.09,28.09,0,0,0,6.59,1.87,21.28,21.28,0,0,0,6.85,0,14.06,14.06,0,0,0,6.26-2.71,15.64,15.64,0,0,0,4.31-5.39,15.84,15.84,0,0,1-4.15,5.58,14.43,14.43,0,0,1-6.32,3,22,22,0,0,1-7,.23,29,29,0,0,1-6.88-1.69.5.5,0,1,1,.35-.93h0Z"/>
    </g>
  </g>
</svg>
