<svg id="a67bc85b-9a85-4ad7-a478-16b002d36ea3" data-name="Layer 1" xmlns="http://www.w3.org/2000/svg" width="273.16" height="182.97" viewBox="0 0 273.16 182.97">
  <defs>
    <style>
      .bd2147e8-17dc-4d3f-9871-b5ddcfb36f8c {
        opacity: 0.5;
      }

      .a013f84f-0945-4a0b-9a87-d7ba243d9430 {
        fill: #fff;
      }

      .a38dbeb9-ebc3-424a-ad22-f31d2056ea1b {
        fill: #86c440;
      }

      .a3640217-4628-4d24-a344-19bf0126a04a {
        fill: #b7d880;
      }

      .b07a14f0-a171-4df8-b87c-577451dfb8aa {
        fill: #6da843;
      }

      .b0fbe1fe-4ecd-4c9f-9df7-3cdfc34dd366 {
        fill: #3b5527;
      }

      .e27eabbe-a13e-43e2-bc7e-d9bd6922fe23 {
        fill: #f4ecd7;
      }

      .e6b1a898-5aae-4a0d-88df-6af54c45039a {
        fill: #d9c8a2;
      }

      .b95adb73-786b-4d86-bebd-e267d7251aa5 {
        fill: #726c5b;
      }

      .a1bb951c-9814-4800-b558-559c10ddb49d, .a46a6838-dc24-4d30-95e7-fddd3fa0070d {
        opacity: 0.58;
      }

      .a46a6838-dc24-4d30-95e7-fddd3fa0070d, .b319c047-1550-493c-8040-a8e32a4af03b {
        fill: #32783b;
      }

      .fd19c27d-7180-41b5-8e3d-a73a960ba20b {
        fill: #4ad5d8;
      }

      .f29a61a6-dad4-4e0a-8caf-d5af0690d758 {
        fill: #44c6c6;
      }

      .b9ef480a-5ead-4c4f-b026-5b0ceb1b892f {
        fill: #253a7d;
      }

      .b5812b23-0df8-4cbf-bb0d-4f4cde44caf3 {
        fill: #2d5c2d;
      }

      .b80f6031-fd6d-43b7-9497-fc6825c395a3 {
        fill: #f2ac2e;
      }

      .ad278164-c1a5-494c-a1dc-9568f8fa6386 {
        fill: #ffd666;
      }

      .e6293b76-e7be-4b7f-8e37-a508f4e9a2ef {
        fill: #806126;
      }

      .efcbd0d0-9907-4b06-90c2-e73bd0b0db8f {
        fill: #572513;
      }

      .b89ee43a-315c-4511-a51d-2d2913aaa0ef {
        fill: #3d1d10;
      }

      .fe6f8d23-ab3f-433e-8a59-bd08d78ab331 {
        fill: #1c0e0a;
      }

      .b07d114d-a463-476b-82a7-cbd7d4340fe9 {
        fill: #714c41;
      }
    </style>
  </defs>
  <g>
    <path class="bd2147e8-17dc-4d3f-9871-b5ddcfb36f8c" d="M225.79,179.73a18.2,18.2,0,0,1-7.33-1.23c-.38,0-.79,0-1.21,0-2.67,0-11.47-.43-12.91-6,0-.11-.06-.21-.08-.32a17.81,17.81,0,0,1-4.29,1,19,19,0,0,1-2.15.13,12,12,0,0,1-2.66-.27,14.05,14.05,0,0,1-2.6.47q-1,.09-2.16.09c-2.49,0-6.5-.3-9.36-2-3.64-.21-13.75-2-14.21-8.55-.15-2.16.85-4.46,2.89-6.66.11-.11.22-.23.34-.34l.15-.3a30.93,30.93,0,0,1-6.5.65c-8.79,0-18-3-23.53-5.74a34.53,34.53,0,0,1-5-1.08c0,.13.05.25.07.37,1.12,5.51,2.39,15.58-1.56,21.1-1.54,2.14-4.18,3.62-8.06,4.49a13.73,13.73,0,0,1-8.4,2.45,17,17,0,0,1-5.59-.85,12.84,12.84,0,0,1-5.63,1.12c-.47,0-1,0-1.44-.05A14.42,14.42,0,0,1,97,175.89H95.91c-3.36-.12-13.11-1.94-13.84-8.43a7.71,7.71,0,0,1,.15-2.54,12.64,12.64,0,0,1-2.77-.27,14.57,14.57,0,0,1-5.8,1c-.51,0-1,0-1.52,0A15.62,15.62,0,0,1,65.64,164a13.61,13.61,0,0,1-2.44.18c-1.08,0-9.52-.15-12.58-4.79a7.08,7.08,0,0,1-2.81-5.77c0-4.07,3.29-8.41,6.57-11.1-1.36-15.13,2.2-25.23,5.55-31.14a35.06,35.06,0,0,1,4.92-6.73,81.26,81.26,0,0,1-4.07-13.84c-.64-2.83-1.44-6.36-2.11-7.2C55.22,79.27,47.14,79,41.78,78.87c-1.65,0-3.08-.09-4.29-.23a15.06,15.06,0,0,1-4-1.08h0a5.38,5.38,0,0,1-.55-.24,18.37,18.37,0,0,1-5.77-4.4c-6.27-1.54-13.23-7.4-15.4-10.74a26.64,26.64,0,0,1-4-14.64,30.31,30.31,0,0,1,9.37-21.28c5.55-4.95,13.1-6.62,21.09-8.39l2.66-.59A17.58,17.58,0,0,1,56.41,7.58a19.29,19.29,0,0,1,4.33.51,18.91,18.91,0,0,1,8.5-1.95,21.78,21.78,0,0,1,3.39.26,19.18,19.18,0,0,1,13.52,8.3,21.47,21.47,0,0,1,1.67,3.07c14.57,9.53,16.49,24.39,15.64,36.28a9.31,9.31,0,0,1,3.75,1.2l.47.23a7.36,7.36,0,0,0,2.4.77l.47-.52.23-.26.66-.68.72-.7c.08-.07.61-.57.71-.65s.64-.57.76-.66l.77-.64.45-.36.35-.27.82-.62.85-.61.87-.59.89-.58.89-.55.92-.55.94-.53.94-.49.55-.28.41-.2,1-.47,1-.43.43-.17.08,0,.48-.19,1-.38.55-.19.46-.16.5-.16.5-.16.54-.15.47-.13.34-.09.14,0,.55-.13.4-.09.62-.13.26,0,.76-.13.24,0,.79-.09.18,0c.62-.06,1.27-.09,1.88-.09h.22l.66,0,.18-.12.65-.4.46-.27.52-.32.61-.35.49-.28c.18-.11.37-.21.56-.31s.41-.23.63-.34l.44-.23.58-.3.63-.31.43-.21.6-.29.57-.25.46-.21c.21-.09.42-.19.63-.27l.53-.22.47-.19.68-.27.55-.2.44-.16.69-.24.56-.18.43-.13.7-.23.57-.15.45-.13.66-.18.57-.13.41-.1.72-.16c.19,0,.39-.08.58-.12l.4-.07.72-.14.6-.09.43-.07.66-.09.67-.08.44,0,.59-.06.93-.07.35,0,.43,0c.57,0,1.14,0,1.7,0,1.11,0,2.27,0,3.45.16.8.07,1.52.15,2.19.24l.17,0c.86.13,1.75.29,2.61.48l.13,0a41.36,41.36,0,0,1,11.07,4.23l.2-.06.42-.12.52-.13.22,0,.39-.09.6-.1.17,0,.42-.07.6-.08.23,0,.38-.05.8,0h.09l.34,0c.42,0,.84,0,1.27,0a31.21,31.21,0,0,1,3.17.17h.09c8,.85,15.29,4.4,20,9.64,14.86,1.27,22.36,12.23,24.53,22.25l.16.14c.48.41.93.83,1.36,1.25l.14.13a31,31,0,0,1,2.56,2.94l.06.08c5,6.6,7.09,14.94,7.95,21.52,1.8,1,3.53,2,5.21,3.08,3.41,2.12,6.92,4.3,10.11,4.79l.19,0a4.64,4.64,0,0,1,3.83,5.54l0,.19a13.34,13.34,0,0,1-1.09,3.15c-1.07,2.58-4.53,7-8.21,9.8-3.6,7.07-11.55,12.45-16.8,14.13a12,12,0,0,1-1.51,1c1.29,1.12,2.75,2.29,4.18,3.43a62.56,62.56,0,0,1,6.25,5.41c3,3.27,4.28,9.18,3.07,14.72a18.22,18.22,0,0,1-7.32,11.14c-.56,3.7-4.24,5.57-11,5.57a20.15,20.15,0,0,1-4.29-.41A17.48,17.48,0,0,1,225.79,179.73Z"/>
    <path class="a013f84f-0945-4a0b-9a87-d7ba243d9430" d="M222.9,176.83a18.33,18.33,0,0,1-7.33-1.22c-.39,0-.79,0-1.22,0-2.66,0-11.46-.43-12.91-6a3,3,0,0,1-.07-.32,18,18,0,0,1-4.3,1c-.51.05-1.29.12-2.15.12a12.76,12.76,0,0,1-2.66-.26,13.85,13.85,0,0,1-2.6.46c-.66.06-1.39.09-2.16.09-2.49,0-6.5-.3-9.35-2-3.65-.2-13.75-2-14.22-8.54-.15-2.16.85-4.47,2.9-6.66.1-.12.21-.23.33-.35l.15-.29a30.92,30.92,0,0,1-6.49.64c-8.8,0-18-3-23.53-5.73a34.67,34.67,0,0,1-5-1.08c0,.12.05.24.08.37,1.11,5.51,2.39,15.57-1.57,21.1-1.53,2.14-4.18,3.61-8.05,4.49a13.77,13.77,0,0,1-8.4,2.44,17,17,0,0,1-5.59-.85,12.77,12.77,0,0,1-5.64,1.13c-.47,0-1,0-1.43,0A14.3,14.3,0,0,1,94.1,173l-.56,0H93c-3.36-.13-13.11-1.94-13.85-8.43a7.43,7.43,0,0,1,.16-2.54,13.38,13.38,0,0,1-2.78-.27,14.52,14.52,0,0,1-5.79,1c-.51,0-1,0-1.53-.06a15.43,15.43,0,0,1-6.48-1.66,13,13,0,0,1-2.44.19c-1.08,0-9.52-.16-12.59-4.8a7.06,7.06,0,0,1-2.8-5.76c0-4.07,3.28-8.41,6.56-11.1-1.36-15.13,2.21-25.23,5.56-31.15A34.85,34.85,0,0,1,62,101.71a82.56,82.56,0,0,1-4.08-13.84c-.64-2.84-1.44-6.37-2.11-7.2-3.44-4.3-11.53-4.53-16.88-4.69-1.66,0-3.08-.09-4.3-.24a14.5,14.5,0,0,1-4-1.07h0a4,4,0,0,1-.56-.25A18.34,18.34,0,0,1,24.3,70C18,68.48,11.07,62.61,8.9,59.28A26.67,26.67,0,0,1,4.85,44.64a30.34,30.34,0,0,1,9.37-21.29c5.55-5,13.1-6.62,21.09-8.38l2.66-.6A17.56,17.56,0,0,1,53.51,4.68a19.37,19.37,0,0,1,4.34.51,19,19,0,0,1,8.5-1.95,23.28,23.28,0,0,1,3.39.26,19.18,19.18,0,0,1,13.51,8.31,19.59,19.59,0,0,1,1.67,3.07c14.57,9.53,16.5,24.38,15.65,36.28a9.36,9.36,0,0,1,3.75,1.2l.46.23a7.61,7.61,0,0,0,2.4.77l.47-.53.24-.25.66-.69.71-.69.72-.66.75-.66.77-.64.46-.35c.11-.1.23-.19.35-.28l.81-.61.85-.61.88-.6.88-.57.9-.56.91-.54.95-.53.94-.5.54-.27.42-.21,1-.46,1-.43.42-.18.09,0,.48-.2,1-.38.54-.19.47-.16.49-.16.5-.15.55-.16.47-.13.34-.08.14,0,.54-.13.41-.09.62-.12.25,0,.77-.13.23,0,.8-.1h.17c.63-.06,1.27-.09,1.88-.09h.22l.67,0,.18-.12.65-.4.45-.27.53-.32.6-.35.49-.27.56-.32.63-.33.45-.24.57-.3.64-.31.42-.2.6-.29.57-.26.46-.2.64-.28c.18-.08.35-.15.53-.21l.47-.19.67-.27.56-.2.44-.16c.23-.08.45-.17.68-.24l.57-.19.42-.13.71-.22.56-.16.45-.12.66-.18.57-.14.41-.09.73-.17.58-.11.4-.08.72-.13.6-.1.42-.06.67-.1.66-.07.45,0,.59-.06.93-.06.34,0,.44,0c.56,0,1.13,0,1.7,0,1.11,0,2.27.06,3.45.16.8.07,1.51.15,2.19.25l.16,0c.87.12,1.76.29,2.62.47l.12,0a41.66,41.66,0,0,1,11.08,4.24l.19-.06.43-.13.51-.12.22,0,.4-.09.6-.11.16,0,.42-.07.61-.07.22,0,.38,0,.8-.06h.1l.34,0c.42,0,.84,0,1.27,0a31.36,31.36,0,0,1,3.17.17h.09c8,.85,15.29,4.4,19.94,9.65,14.86,1.27,22.36,12.22,24.53,22.25l.16.13c.48.41.94.83,1.37,1.26l.13.13A28.68,28.68,0,0,1,238,72.9L238,73c5,6.61,7.09,15,7.95,21.52,1.81,1,3.53,2,5.22,3.09,3.4,2.11,6.92,4.29,10.11,4.79l.19,0a4.63,4.63,0,0,1,3.82,5.54l0,.19a12.9,12.9,0,0,1-1.09,3.15c-1.06,2.58-4.52,6.94-8.21,9.79-3.6,7.08-11.54,12.46-16.8,14.13a12,12,0,0,1-1.51,1c1.3,1.12,2.76,2.28,4.19,3.43a63.54,63.54,0,0,1,6.25,5.41c3,3.26,4.27,9.18,3.07,14.72a18.31,18.31,0,0,1-7.33,11.14c-.55,3.69-4.24,5.56-11,5.56a20.25,20.25,0,0,1-4.3-.41A17.43,17.43,0,0,1,222.9,176.83Z"/>
    <g>
      <g>
        <g>
          <path d="M76.51,138.45A2.9,2.9,0,0,1,74,136.13a3.44,3.44,0,0,1,.09-2.18,2.11,2.11,0,0,1,1.37-1.29,1.68,1.68,0,0,1,.5-.07,2.89,2.89,0,0,1,2.53,2.32,3.44,3.44,0,0,1-.09,2.18A2.08,2.08,0,0,1,77,138.38,1.66,1.66,0,0,1,76.51,138.45ZM75.93,133a1.58,1.58,0,0,0-1.52,1.13,3,3,0,0,0-.08,1.94,2.54,2.54,0,0,0,2.18,2.05,1.74,1.74,0,0,0,.39-.05A1.76,1.76,0,0,0,78,137,3,3,0,0,0,78.1,135,2.54,2.54,0,0,0,75.93,133Z"/>
          <g>
            <path class="a38dbeb9-ebc3-424a-ad22-f31d2056ea1b" d="M68.73,102.14s-16,9.85-12.14,39.78c-3.91,2-9.49,9-5.46,11,4.28,1.86,30.71,7.75,43.64-1.36-5.53-8.49-10-37.15-10-37.15C82.24,112.77,68.73,102.14,68.73,102.14Z"/>
            <path class="a3640217-4628-4d24-a344-19bf0126a04a" d="M63.51,143.46c-1.5-2.67-4.83-2.14-4.83-2.14-1.7-13.4.18-29.68,11.11-38.35l-1.06-.83s-16,9.85-12.14,39.78c-3.24,1.65-7.63,6.73-6.73,9.58a1.14,1.14,0,0,1,.1-.19C49.74,148.12,57.86,140,63.51,143.46Z"/>
            <path class="b07a14f0-a171-4df8-b87c-577451dfb8aa" d="M83.23,127.68c1.86,10-6.6,23-18.63,28.18,9.45,1,22.92.81,30.17-4.3C90.32,144.72,83.23,127.68,83.23,127.68Z"/>
            <path class="b0fbe1fe-4ecd-4c9f-9df7-3cdfc34dd366" d="M74.48,156.7h0c-10.78,0-21-2.55-23.42-3.61a2.53,2.53,0,0,1-1.51-2.41c0-2.87,3.73-7.22,6.83-8.86-1.94-15.44,1.48-25.43,4.69-31.1,3.49-6.18,7.52-8.71,7.56-8.74l.11-.07.11.09c.13.1,13.53,10.64,16,12.26l.07,0v.08c0,.29,4.58,28.72,10,37.08l.1.15-.15.1C90.18,155,83.32,156.7,74.48,156.7Zm-5.76-54.33a25.7,25.7,0,0,0-7.34,8.55c-3.19,5.64-6.57,15.58-4.61,31l0,.13-.12.06c-3,1.51-6.75,5.86-6.75,8.59a2.18,2.18,0,0,0,1.3,2.07c2.41,1.05,12.54,3.57,23.26,3.57h0c8.67,0,15.41-1.62,20-4.81-5.3-8.38-9.7-35.31-10-37C82,112.83,70,103.36,68.72,102.37Z"/>
          </g>
          <g>
            <path class="e27eabbe-a13e-43e2-bc7e-d9bd6922fe23" d="M51.49,153.18c.67,3.13,11.1,4,11.52,2.57s-1.3-9.54-5.45-10.31C54.7,144.9,51,150.74,51.49,153.18Z"/>
            <path class="e6b1a898-5aae-4a0d-88df-6af54c45039a" d="M58.12,145.59c1.57,1.15,2.33,4.42,1,6.81-.87,1.53-2.61,2.69-5.58,2.69,3.07,1.42,9.23,1.55,9.49.66C63.41,154.4,61.86,147,58.12,145.59Z"/>
            <path class="b95adb73-786b-4d86-bebd-e267d7251aa5" d="M60.31,156.6h0c-3.34,0-8.51-1.07-9-3.38-.32-1.52.85-4,2.18-5.62.71-.89,2.15-2.39,3.71-2.39a3,3,0,0,1,.41,0,5.52,5.52,0,0,1,3.52,2.87c1.69,2.77,2.36,6.7,2.07,7.69C63,156.47,61.51,156.6,60.31,156.6Zm-3.12-11c-1,0-2.27.81-3.43,2.24-1.45,1.81-2.36,4.09-2.09,5.31.43,2,5.38,3.09,8.64,3.09h0c1.62,0,2.45-.27,2.52-.53.27-.91-.42-4.75-2-7.39a5.15,5.15,0,0,0-3.27-2.69A2,2,0,0,0,57.19,145.59Z"/>
          </g>
          <g>
            <path class="e27eabbe-a13e-43e2-bc7e-d9bd6922fe23" d="M63.85,155c0,1.9,2.38,2.72,5.73,3,2.94.21,6.16-.37,6.14-1.78,0-3.22-1.82-9.75-5.39-10C67.64,146,63.86,152,63.85,155Z"/>
            <path class="e6b1a898-5aae-4a0d-88df-6af54c45039a" d="M71.06,146.28c1.76,1.9,1.74,5.12.15,7.48a6.77,6.77,0,0,1-6.46,2.87,9.65,9.65,0,0,0,4.83,1.28c2.94.21,6.16-.37,6.14-1.78C75.68,153.14,74.14,147.28,71.06,146.28Z"/>
            <path class="b95adb73-786b-4d86-bebd-e267d7251aa5" d="M70.76,158.14h0c-.4,0-.8,0-1.2,0-3.91-.28-5.9-1.33-5.89-3.14,0-2.95,3.8-9.21,6.68-9,3.62.25,5.51,6.66,5.56,10.18a1.16,1.16,0,0,1-.37.84C74.82,157.7,73,158.14,70.76,158.14Zm-.55-11.82c-2.47,0-6.16,5.66-6.17,8.63,0,1.58,1.86,2.51,5.55,2.77.38,0,.78,0,1.17,0,2.14,0,3.87-.4,4.52-1a.83.83,0,0,0,.26-.58c-.05-3.3-1.87-9.58-5.22-9.81Z"/>
          </g>
          <path class="b0fbe1fe-4ecd-4c9f-9df7-3cdfc34dd366" d="M63.92,144.06c-.09-.18-2.34-4.16-7.44-1.88l-.15-.33a6,6,0,0,1,5.93.06A3.81,3.81,0,0,1,63.92,144.06Z"/>
          <path class="b0fbe1fe-4ecd-4c9f-9df7-3cdfc34dd366" d="M74.33,145.14a4.58,4.58,0,0,0-3.6-2.3,5.27,5.27,0,0,0-4.49,1.9,4.87,4.87,0,0,1,4.53-2.27A4,4,0,0,1,74.33,145.14Z"/>
          <g class="a1bb951c-9814-4800-b558-559c10ddb49d">
            <path class="b319c047-1550-493c-8040-a8e32a4af03b" d="M61.22,135.74c-.4.72.47,5.65,2.37,5.93s4-1.49,4.58-2.51-.79-3.81-2.88-4.35S61.6,135.09,61.22,135.74Z"/>
          </g>
          <g class="a1bb951c-9814-4800-b558-559c10ddb49d">
            <path class="b319c047-1550-493c-8040-a8e32a4af03b" d="M62.08,121.33c-1.67.33-2.55,9.47-2,10.34s7,1.27,8.17,0-.09-6.78-1.09-8C66,122.11,64.69,120.82,62.08,121.33Z"/>
          </g>
          <g class="a1bb951c-9814-4800-b558-559c10ddb49d">
            <path class="b319c047-1550-493c-8040-a8e32a4af03b" d="M71.7,116.27c-1.18.81-2.16,5.46-1.62,6.39s3.55,2,4.11,1.49S77,119,76.63,118.34,72.75,115.55,71.7,116.27Z"/>
          </g>
          <g class="a1bb951c-9814-4800-b558-559c10ddb49d">
            <path class="b319c047-1550-493c-8040-a8e32a4af03b" d="M62.22,116.49c.39,2.41,6.22,1.79,6.73.21.77-2.41-.18-7.4-2.64-7.4S61.88,114.32,62.22,116.49Z"/>
          </g>
        </g>
        <g>
          <g>
            <g>
              <path class="a38dbeb9-ebc3-424a-ad22-f31d2056ea1b" d="M41.09,20.61c0-5.12,7.75-16.28,21.57-8.35C60.61,15.24,41.09,20.61,41.09,20.61Z"/>
              <path class="a3640217-4628-4d24-a344-19bf0126a04a" d="M62.66,12.26c-5.47-3.14-10-3.29-13.46-2a14.25,14.25,0,0,0-7.8,8.39c4.37-7.55,14.33-9.63,20-5.34A4.38,4.38,0,0,0,62.66,12.26Z"/>
              <path class="b0fbe1fe-4ecd-4c9f-9df7-3cdfc34dd366" d="M40.91,20.86v-.25c0-3.83,4.45-11.3,12.6-11.3a18.71,18.71,0,0,1,9.24,2.79l.18.1-.12.17c-2.06,3-20.87,8.2-21.67,8.42ZM53.51,9.69c-7.74,0-12,6.91-12.22,10.68,2.2-.62,18.69-5.32,21.09-8A18.17,18.17,0,0,0,53.51,9.69Z"/>
            </g>
            <g>
              <path class="a38dbeb9-ebc3-424a-ad22-f31d2056ea1b" d="M107.4,78.76c-6,3.1-14.09-1.76-14-9.85s11.74-38-13.66-51.74c-9.67-2-21.66-4-21.66-4-15.15,7.52-30.95,6.13-39.5,13.75C14.65,30.4,11.06,37,10.83,44.77c0,0-.34,7.49,3.76,12.36,7.71,9.15,13.9,7.42,13.63,8.65l0,0s3,4.54,8.08,5.16,18.31-.84,24.35,6.69c4.83,6,2,32.49,26.12,40.7,8.68-6.07,38.08-29.47,38.08-29.47Z"/>
              <path class="b07a14f0-a171-4df8-b87c-577451dfb8aa" d="M123.78,88.91,106.31,78.84c-6,3.1-14.1-1.76-14-9.85s11.74-38-13.67-51.74l-.11,0c13.73,26.55,4.81,47.66-7.11,48.16C57.5,66,47,59.85,34,68.4c-1,.78-2.62.65-4.11.25A10.91,10.91,0,0,0,35.24,71c4.95.6,18.2-.82,24.28,6.61,4.41,5.39,7.92,7.67,11.1,13.86-1.08-4.87-1.1-7.32,1.13-9.18,3.35-2.6,5.1,13.88,8.08,16.86-.38-4.46-4.35-17.85-1.73-19.89,3.64-1.86,3.27,8.8,8.31,12.58-1.23-5.6-1.59-14.4,1.1-15.69,4.84-2.33,15.2,13.25,13.34,21.43C99.37,103.79,95.51,107,90.33,110c-1.5,1.79-4.53,2.29-6.17,3.38a9.72,9.72,0,0,0-2.66,3.24,34.55,34.55,0,0,0,4.21,1.75C94.38,112.3,123.78,88.91,123.78,88.91Z"/>
              <path class="a3640217-4628-4d24-a344-19bf0126a04a" d="M19.83,32.39a4.67,4.67,0,0,0-5.31,5.78,7.56,7.56,0,0,0,.53,1.49c-.65-3.74,1.58-5.52,3.58-5.76a5.08,5.08,0,0,1,5.61,3.8C24.24,34.57,21.86,33,19.83,32.39Z"/>
              <path class="a3640217-4628-4d24-a344-19bf0126a04a" d="M17.42,27c-3.94,3.51-7.54,10.19-7.75,18,.21,0-.24,7.77,4.45,13.08a20.61,20.61,0,0,1-2.87-13.07c.56-8.67,4.42-16,11.57-19.65,9.77-5,32.15-4.67,32.58-11.36C40.73,20.64,25.69,19.58,17.42,27Z"/>
              <path class="b0fbe1fe-4ecd-4c9f-9df7-3cdfc34dd366" d="M106.25,78.6l-.09.05a8.33,8.33,0,0,1-3.84.92,9.76,9.76,0,0,1-6.87-3,10.59,10.59,0,0,1-3-7.64,46.36,46.36,0,0,1,.9-6.32c2.18-12,6.24-34.26-14.66-45.58l0,0c-9.56-2-21.54-4-21.66-4H56.9l-.06,0c-7,3.45-14.17,5-20.53,6.46-7.7,1.7-14.36,3.18-19,7.32a25.79,25.79,0,0,0-7.82,18,21.88,21.88,0,0,0,3.3,11.94c1.89,2.9,9.36,8.93,14.34,9,.08,0-.12-.27-.18-.29-5.56-1.38-11.78-5.64-13.72-8.67a21.3,21.3,0,0,1-3.37-11.9,25.38,25.38,0,0,1,7.7-17.82c4.57-4.08,11.19-5.55,18.84-7.24,6.37-1.41,13.58-3,20.56-6.46.93.16,12.37,2.12,21.57,4C99.16,28.59,95.13,50.7,93,62.58A45.14,45.14,0,0,0,92.06,69a10.92,10.92,0,0,0,3.12,7.9,10.15,10.15,0,0,0,7.14,3.08,8.69,8.69,0,0,0,3.92-.92l17.15,9.89c-2.68,2.12-29.5,23.42-37.77,29.23-17.08-5.88-20.56-21.22-22.86-31.38-.94-4.18-1.69-7.49-3.09-9.23C54.78,71.44,45.31,71.16,39,71c-1.53,0-2.86-.09-3.84-.21-4.94-.6-7.92-5-8-5.07l-.07-.1c0,.17-.07.33-.11.5.66.88,3.58,4.5,8.08,5,1,.12,2.34.16,3.88.21,6.2.18,15.57.46,20.35,6.42,1.34,1.67,2.08,4.94,3,9.07,2.32,10.26,5.83,25.76,23.19,31.68l.09,0,.07,0c8.58-6,37.79-29.24,38.09-29.47l.21-.17Z"/>
            </g>
            <g>
              <path class="a38dbeb9-ebc3-424a-ad22-f31d2056ea1b" d="M69,8.27C54.92,6.11,50.7,21.19,50.7,21.19l31,6.94C83,23.05,81.77,10.22,69,8.27Z"/>
              <path class="a3640217-4628-4d24-a344-19bf0126a04a" d="M69.33,10.4c6.42,1.64,11.1,6.68,12.58,16.52.81-5.66-1.06-16.84-12.9-18.65S52.28,16.86,51,20.19C57.44,11.75,63.62,8.94,69.33,10.4Z"/>
              <path class="b0fbe1fe-4ecd-4c9f-9df7-3cdfc34dd366" d="M81.5,28.08a18.62,18.62,0,0,0-2.41-13.5A14.13,14.13,0,0,0,69,8.45C55.21,6.34,50.92,21.09,50.88,21.24a9.62,9.62,0,0,1,1.06-3.52C54.17,13.37,59.27,6.59,69,8.08a14.48,14.48,0,0,1,10.35,6.29,18.27,18.27,0,0,1,2.85,9A18.45,18.45,0,0,1,81.5,28.08Z"/>
            </g>
            <path class="b0fbe1fe-4ecd-4c9f-9df7-3cdfc34dd366" d="M98,83.4a29.34,29.34,0,0,1-5.72-12.14l.36-.08a28.39,28.39,0,0,0,8.51,15A10.93,10.93,0,0,1,98,83.4Z"/>
            <path class="b0fbe1fe-4ecd-4c9f-9df7-3cdfc34dd366" d="M71.25,71.2a58.54,58.54,0,0,1-13.33-1.88A34.56,34.56,0,0,0,49.13,68,35.38,35.38,0,0,0,40,69.78c-2.85.86-5.11,1.54-7.79.54l.13-.35c2.56,1,4.66.33,7.56-.55a35.77,35.77,0,0,1,9.19-1.76A35.08,35.08,0,0,1,58,69a56.72,56.72,0,0,0,13.77,1.87c8.37-.11,11.8-4,13.2-7.22,1.78-4.11.91-8.4.29-9.08a5.09,5.09,0,0,1,1.13,3.26,13.27,13.27,0,0,1-1.08,6c-1.45,3.34-5,7.34-13.54,7.45Z"/>
            <path class="b0fbe1fe-4ecd-4c9f-9df7-3cdfc34dd366" d="M64.31,83.63a83.63,83.63,0,0,0-5.45-6.47l.25-.28a33.65,33.65,0,0,1,2.46,2.73A31.33,31.33,0,0,1,64.31,83.63Z"/>
          </g>
          <g>
            <g>
              <path class="b07a14f0-a171-4df8-b87c-577451dfb8aa" d="M53.22,36.65c-3.08-7,.71-18.12,10.56-19.61,9.45-1.42,17.5,10.14,10.6,19.61C71.5,40.61,55.77,42.43,53.22,36.65Z"/>
              <path d="M53.2,39.44c-2.76-5.08.7-18.54,10.33-19.73,9.24-1.15,16.18,12.59,10.36,20.44C71,44,56.3,45.14,53.2,39.44Z"/>
              <path class="a013f84f-0945-4a0b-9a87-d7ba243d9430" d="M53.4,40.27c-3.13-4.85.7-18.54,10.33-19.73C73,19.39,78.59,32.08,74.5,41,72.41,45.46,61.71,53.17,53.4,40.27Z"/>
              <path d="M63.94,47.48c-5.61-.13-9.39-4.71-10.7-7.12-1.51-2.79-1.17-7.93.83-12.22,1.22-2.61,4.09-7.1,9.63-7.79a8.37,8.37,0,0,1,1.41-.06c4,.13,7.74,3,9.83,7.47,2.19,4.69,1.92,9.8-.7,13.34C72.71,43.15,70.47,47.37,63.94,47.48Zm1.17-26.81a7.67,7.67,0,0,0-1.35.06c-5.38.66-8.17,5-9.36,7.59-1.95,4.18-2.3,9.17-.84,11.86,1.24,2.29,5.31,7,10.38,6.92,6.5-.09,8.55-4.27,10-6.24,2.54-3.43,2.79-8.39.67-12.94C72.59,23.58,69,20.8,65.11,20.67Z"/>
            </g>
            <g>
              <path class="fd19c27d-7180-41b5-8e3d-a73a960ba20b" d="M63.49,28.65c-2.91,0-5.31,3.24-5.37,7.33s2.25,7.43,5.16,7.47,5.3-3.24,5.36-7.33S66.39,28.69,63.49,28.65Z"/>
              <path class="f29a61a6-dad4-4e0a-8caf-d5af0690d758" d="M62,38.93a7.65,7.65,0,0,1-3.89-2.36c.16,3.81,2.38,6.84,5.14,6.88s5.25-3.17,5.36-7.19A7,7,0,0,1,62,38.93Z"/>
              <path d="M64.16,32.51c-1.9,0-3.48,2.24-3.52,5.06s1.47,5.12,3.37,5.14,3.48-2.23,3.52-5.05S66.06,32.54,64.16,32.51Z"/>
              <path class="a013f84f-0945-4a0b-9a87-d7ba243d9430" d="M65,32.2a1.48,1.48,0,0,0-1.62,1.36,1.52,1.52,0,0,0,1.32,1.69,1.47,1.47,0,0,0,1.62-1.35A1.53,1.53,0,0,0,65,32.2Z"/>
              <path class="b9ef480a-5ead-4c4f-b026-5b0ceb1b892f" d="M63.49,28.49c-3,0-5.5,3.32-5.56,7.49-.06,3.94,2.12,7.28,4.94,7.6a2.69,2.69,0,0,0,.4,0c3,0,5.5-3.32,5.56-7.49S66.51,28.54,63.49,28.49Zm-.21,14.59c-2.73,0-4.87-3.25-4.82-7.1s2.31-7,5-7a2,2,0,0,1,.35,0c2.56.29,4.53,3.4,4.47,7.07C68.25,40,66,43.12,63.28,43.08Z"/>
            </g>
            <path class="b0fbe1fe-4ecd-4c9f-9df7-3cdfc34dd366" d="M55.74,21.47a10.55,10.55,0,0,1,2.94-3A11.32,11.32,0,0,1,65,16.81a13,13,0,0,1,5.58,1.32,13,13,0,0,1,3.92,3.49A12.64,12.64,0,0,0,65,17.19,11.74,11.74,0,0,0,55.74,21.47Z"/>
          </g>
          <path class="b0fbe1fe-4ecd-4c9f-9df7-3cdfc34dd366" d="M14.55,34.84a4.77,4.77,0,0,1,2.93-2.47,5.26,5.26,0,0,1,4.42.68,5.52,5.52,0,0,1,2.34,4.65,6.05,6.05,0,0,0-2.54-4.33,5.36,5.36,0,0,0-4.12-.64A4.21,4.21,0,0,0,14.89,35a5.36,5.36,0,0,0,.16,4.66S13.33,37.19,14.55,34.84Z"/>
          <g>
            <path class="b319c047-1550-493c-8040-a8e32a4af03b" d="M21.56,40.5c.44,1.44.14,2.84-.9,3.15s-2.06-.55-2.49-2-.37-3.57.67-3.88S21.12,39.05,21.56,40.5Z"/>
            <path class="b5812b23-0df8-4cbf-bb0d-4f4cde44caf3" d="M19.32,37.76a1,1,0,0,0-.48,0c-1,.31-1.11,2.44-.67,3.88.38,1.25,1.2,2.08,2.09,2.06C21.4,42,20.71,39.37,19.32,37.76Z"/>
            <path class="b0fbe1fe-4ecd-4c9f-9df7-3cdfc34dd366" d="M20.23,43.9c-1,0-1.84-.86-2.24-2.19a6.16,6.16,0,0,1-.22-2.44c.11-.91.47-1.51,1-1.67a1.2,1.2,0,0,1,.33-.05c1.08,0,2.2,1.5,2.62,2.89a3.91,3.91,0,0,1,.1,2.1,1.69,1.69,0,0,1-1.13,1.29A1.59,1.59,0,0,1,20.23,43.9Zm-1.11-6a.78.78,0,0,0-.22,0c-.54.17-.71.93-.77,1.37a6,6,0,0,0,.22,2.28c.41,1.36,1.34,2.15,2.25,1.88a1.36,1.36,0,0,0,.88-1,3.48,3.48,0,0,0-.1-1.9C21,39.31,20,37.92,19.12,37.92Z"/>
          </g>
        </g>
        <g>
          <g>
            <path class="a38dbeb9-ebc3-424a-ad22-f31d2056ea1b" d="M175.86,146.17l0,4.86c-3.83,1.24-5.65,6.93-6,9.22,3.53,2.36,20.11,5.62,29.85,3.89,2-.62,8.43-3.47,9.23-8.43-2.79-6.57-9.17-16.55-9.17-16.55Z"/>
            <path class="b07a14f0-a171-4df8-b87c-577451dfb8aa" d="M199.72,139.16,195,141.21c.59,9.53,4.61,20.2-13.93,22.92-.72.72,10.9-.24,10.15.46a42.19,42.19,0,0,0,8.4-.45c2-.62,8.43-3.47,9.23-8.43C206.1,149.14,199.72,139.16,199.72,139.16Z"/>
            <path class="b0fbe1fe-4ecd-4c9f-9df7-3cdfc34dd366" d="M193.29,164.81h0c-9.15,0-20.61-2.42-23.59-4.4l-.09-.07v-.12c.35-2.14,2.11-7.94,6-9.32l0-4.87.13,0,24-7,.08.11c.06.1,6.42,10.07,9.18,16.58l0,.05v.05c-.8,4.95-7,7.87-9.36,8.57A37,37,0,0,1,193.29,164.81ZM170,160.16c3.08,1.94,14.29,4.28,23.28,4.28a36.88,36.88,0,0,0,6.34-.49c2.24-.68,8.26-3.49,9.07-8.22-2.6-6.1-8.34-15.21-9.06-16.35l-23.59,6.93,0,4.86-.13,0C172.13,152.42,170.4,158,170,160.16Z"/>
          </g>
          <path class="b0fbe1fe-4ecd-4c9f-9df7-3cdfc34dd366" d="M180.22,154.74a4.12,4.12,0,0,0-1.91-3.05,3,3,0,0,0-2.52-.45l-.13-.35a3.21,3.21,0,0,1,2.85.48A3.58,3.58,0,0,1,180.22,154.74Z"/>
          <path class="b0fbe1fe-4ecd-4c9f-9df7-3cdfc34dd366" d="M190.63,156.32a4.51,4.51,0,0,0-8.15-1.48,4.39,4.39,0,0,1,1.4-1.74,4.46,4.46,0,0,1,3.39-.53,4.65,4.65,0,0,1,2.35,1.26A4.47,4.47,0,0,1,190.63,156.32Z"/>
          <g>
            <path class="e27eabbe-a13e-43e2-bc7e-d9bd6922fe23" d="M168.74,159.86c.2,2.86,11.11,5.14,11.91,3.58s0-8.55-4-9.62C173.7,153,168.58,157.66,168.74,159.86Z"/>
            <path class="e6b1a898-5aae-4a0d-88df-6af54c45039a" d="M177.14,154c1.85,2.78,1.22,6-1.06,7.17a8.78,8.78,0,0,1-6.25.19c2.82,2.06,10.17,3.34,10.82,2.07C181.4,162,180.7,155.53,177.14,154Z"/>
            <path class="b95adb73-786b-4d86-bebd-e267d7251aa5" d="M178.82,164.13h0c-3.33,0-10.1-1.84-10.27-4.26a5,5,0,0,1,1.67-3.18c1.46-1.56,3.78-3.14,5.69-3.14a3.08,3.08,0,0,1,.75.09,5.54,5.54,0,0,1,3.45,3.37c1.06,2.36,1.25,5.44.7,6.51C180.61,163.93,179.94,164.13,178.82,164.13Zm-2.91-10.21c-1.79,0-4.06,1.57-5.42,3a4.72,4.72,0,0,0-1.57,2.9c.14,2,6.36,3.91,9.9,3.91h0c.91,0,1.53-.15,1.66-.41.44-.85.37-3.76-.71-6.19a5.31,5.31,0,0,0-3.21-3.16A2.69,2.69,0,0,0,175.91,153.92Z"/>
          </g>
          <g>
            <path class="e27eabbe-a13e-43e2-bc7e-d9bd6922fe23" d="M179.6,163.51c.72,2.78,11.87,3,12.36,1.36s-1.56-8.4-5.71-8.72C183.24,155.91,179.05,161.38,179.6,163.51Z"/>
            <path class="e6b1a898-5aae-4a0d-88df-6af54c45039a" d="M187,156.29a4.49,4.49,0,0,1,.78,5.81c-1.14,1.74-3.56,3-6.77,2.78,3.25,1.32,10.57,1.16,10.91,0C192.43,163.3,190.66,157.34,187,156.29Z"/>
            <path class="b95adb73-786b-4d86-bebd-e267d7251aa5" d="M189.24,166h0c-3.22.3-9.25-.27-9.82-2.47-.23-.89.28-2.33,1.35-3.86s3.13-3.56,5-3.74a3.68,3.68,0,0,1,.47,0,5.54,5.54,0,0,1,4,2.68c1.47,2.14,2.21,5.13,1.87,6.28C191.93,165.63,190.45,165.92,189.24,166Zm-3.41-9.7c-1.66.16-3.58,1.91-4.75,3.58-1,1.42-1.5,2.78-1.3,3.56.47,1.8,6,2.51,9.42,2.19,1.77-.17,2.5-.54,2.59-.84.27-.92-.32-3.77-1.83-6a5.31,5.31,0,0,0-3.73-2.52A2.67,2.67,0,0,0,185.83,156.33Z"/>
          </g>
          <g>
            <path class="e27eabbe-a13e-43e2-bc7e-d9bd6922fe23" d="M192.09,164.73c.9,1.85,8.79.45,8.9-.81s-2.3-5.69-5.27-5.33C193.57,158.85,191.39,163.3,192.09,164.73Z"/>
            <path class="e6b1a898-5aae-4a0d-88df-6af54c45039a" d="M196.42,158.59a3.76,3.76,0,0,1,1.21,3.91c-.46,1.31-1.92,2.45-4.75,2.84,2.24.84,8-.34,8.11-1.42S199.06,158.92,196.42,158.59Z"/>
            <path class="b95adb73-786b-4d86-bebd-e267d7251aa5" d="M196.55,165.71h0c-1.19.14-4,.32-4.63-.9-.41-.83.08-2.43.74-3.65.87-1.6,2-2.63,3-2.75h0a4,4,0,0,1,3.27,1.35c1.34,1.31,2.29,3.32,2.21,4.18S198.3,165.52,196.55,165.71Zm-.79-6.94c-1.1.14-2.15,1.42-2.78,2.57-.72,1.34-1,2.7-.73,3.31s2,.95,4.26.69h0c2.37-.26,4.26-1,4.29-1.43a6.82,6.82,0,0,0-2.09-3.88A3.79,3.79,0,0,0,195.76,158.77Z"/>
          </g>
        </g>
        <g>
          <path class="b80f6031-fd6d-43b7-9497-fc6825c395a3" d="M123,137a36.29,36.29,0,0,0,15.67,6.13c7,3.62,21.57,8,30.77,4.07,11,3.09,26.4-1,30.4-4.91L227.36,134c2.23.31,7.87-1.18,9.41-3.1,3.72-.74,12.41-5.9,15.37-13,3.44-2.32,6.93-6.76,7.61-8.5-5.55,1.79-109,11.18-133.21,1.82-5.2,3.46-14.25,25.42-14.25,25.42Z"/>
          <g>
            <path class="ad278164-c1a5-494c-a1dc-9568f8fa6386" d="M167.07,138.3c-6.72-2.83-12.46-3.49-19.52-4.52-.56,0-1.4,1.83-1.68,2.66-1.48,2.23-3,5.95.38,7.06,6.69,1.49,13,3,19.7,1.49C168.93,144.62,169.3,139.41,167.07,138.3Z"/>
            <path class="ad278164-c1a5-494c-a1dc-9568f8fa6386" d="M130.93,125.82c-1,3.41-5.27,7.1-5.31,7.81.3,2,8.54,6.4,11.7,5.61,1.62-.87,4.77-6,3.66-9C140.55,128.65,134,126.54,130.93,125.82Z"/>
          </g>
          <path class="e6293b76-e7be-4b7f-8e37-a508f4e9a2ef" d="M138.84,143.27l-.25-.28c4-3.61,6.2-13.52,4.51-17l.34-.17C145.33,129.73,142.66,139.84,138.84,143.27Z"/>
          <path class="e6293b76-e7be-4b7f-8e37-a508f4e9a2ef" d="M121.75,131.45l-.08-.36c.08,0,7.64-1.66,8.9-9.44l.36.06C129.63,129.75,121.82,131.43,121.75,131.45Z"/>
          <path class="e6293b76-e7be-4b7f-8e37-a508f4e9a2ef" d="M169.63,147.32l-.29-.24c2.88-3.49,2.76-9,1.41-11.22l.32-.19C172.47,138,172.61,143.7,169.63,147.32Z"/>
          <path class="e6293b76-e7be-4b7f-8e37-a508f4e9a2ef" d="M237,130.93l-.35-.14c1.94-5-.77-10.19-.79-10.24l.32-.17C236.16,120.43,239,125.71,237,130.93Z"/>
          <path class="e6293b76-e7be-4b7f-8e37-a508f4e9a2ef" d="M252.26,118.07l-.37,0a8.06,8.06,0,0,0-1.15-4l.32-.19A8.33,8.33,0,0,1,252.26,118.07Z"/>
          <path class="e6293b76-e7be-4b7f-8e37-a508f4e9a2ef" d="M160.82,148.91h0c-7.85,0-16.78-2.81-22.16-5.6-8.21-.91-15-5.68-15.68-6.13l-11-.35.1-.25c.37-.9,9.13-22.05,14.32-25.51l.08,0,.09,0c7,2.71,21.18,4.08,42.2,4.08,39.13,0,87.43-4.78,90.89-5.9l.37-.12-.14.36c-.74,1.86-4.26,6.26-7.64,8.56-3,7.08-11.57,12.19-15.41,13-1.53,1.8-6.39,3.16-8.85,3.16a6.5,6.5,0,0,1-.66,0L200,142.46c-3,2.91-12.48,6-21.82,6a32.41,32.41,0,0,1-8.65-1.07A22.73,22.73,0,0,1,160.82,148.91Zm-48.25-12.44,10.54.34,0,0c.07.05,7.1,5.17,15.58,6.1l.07,0c5.34,2.77,14.22,5.57,22,5.57h0a22.22,22.22,0,0,0,8.59-1.51l.06,0,.06,0a31.76,31.76,0,0,0,8.62,1.08c9.28,0,18.66-3.07,21.6-5.94l0,0h0l27.52-8.35h0c2.05.28,7.7-1.11,9.25-3l0-.05h.07c3.64-.73,12.33-5.92,15.23-12.84l0,0,0,0a27.19,27.19,0,0,0,7.39-8.08c-5.73,1.29-52.53,5.82-90.62,5.82-21,0-35.18-1.36-42.24-4.07C121.75,114.79,113.58,134.05,112.57,136.47Z"/>
        </g>
        <g>
          <g>
            <path class="a38dbeb9-ebc3-424a-ad22-f31d2056ea1b" d="M200.89,131.41s-5,8.1-1.85,16.24c2.43,6.26,9.79,5.95,11.62,12.67,0,0-4.65,5.71.23,8.93,4.09,1,27.12-.59,27.12-.59,10.66-4.4,10-16.67,6.57-20.32-2.9-3.11-10.13-7.91-13.57-11.88-3.28-3.81-6.16-9.87-11.52-11.18C204.92,121.75,200.89,131.41,200.89,131.41Z"/>
            <path class="a3640217-4628-4d24-a344-19bf0126a04a" d="M208.89,154.83c-1-.82-6.23-3.47-8.67-8.82-1.47-3.2-1.43-7.43-.31-12.67-1.28,2.88-3.09,8.58-.87,14.31,2.31,6,9.9,6,11.71,12.86C211.05,158.89,209.94,155.67,208.89,154.83Z"/>
            <path class="b07a14f0-a171-4df8-b87c-577451dfb8aa" d="M244.58,148.34c-2.9-3.11-10.13-7.91-13.57-11.88-3.28-3.81-6.16-9.87-11.52-11.18-.57-.13-5.23.71-5.77.61,10,3.18,13.22,13.7,18.91,20.4,2.39,2.81,6.74,5.05,8.05,9.05,1,3.21-1.73,12.24-11,13.81-.1,0,4.09-.27,4-.22,2.58-.15,4.3-.27,4.3-.27C248.67,164.26,248,152,244.58,148.34Z"/>
            <path class="b0fbe1fe-4ecd-4c9f-9df7-3cdfc34dd366" d="M216.56,169.77h0a29.67,29.67,0,0,1-5.72-.34l-.05,0a4.72,4.72,0,0,1-2.26-3.29c-.41-2.66,1.54-5.34,1.92-5.83-.95-3.37-3.29-4.89-5.78-6.5-2.27-1.48-4.62-3-5.8-6.06-3.16-8.14,1.81-16.33,1.86-16.41s3-7,12.73-7a25.92,25.92,0,0,1,6.07.78c4.05,1,6.64,4.55,9.13,8,.85,1.17,1.65,2.27,2.49,3.24a63.44,63.44,0,0,0,7.82,6.93,59.4,59.4,0,0,1,5.75,5c1.7,1.83,2.92,6,1.93,10.57a13.85,13.85,0,0,1-8.57,10.05H238C237.89,168.85,224.65,169.77,216.56,169.77Zm-5.59-.7a29.44,29.44,0,0,0,5.59.33c7.89,0,20.7-.87,21.41-.92a13.51,13.51,0,0,0,8.32-9.78c1-4.4-.2-8.48-1.84-10.24a61.52,61.52,0,0,0-5.71-4.91,63.42,63.42,0,0,1-7.87-7c-.85-1-1.65-2.1-2.51-3.27-2.46-3.39-5-6.89-8.92-7.84a25.2,25.2,0,0,0-6-.78c-9.46,0-12.37,6.72-12.4,6.79s-4.94,8.14-1.85,16.11c1.14,2.94,3.44,4.43,5.67,5.87,2.45,1.6,5,3.25,6,6.82l0,.09-.06.07s-2.32,2.89-1.9,5.62A4.35,4.35,0,0,0,211,169.07Z"/>
          </g>
          <g>
            <path class="e27eabbe-a13e-43e2-bc7e-d9bd6922fe23" d="M233.2,161.6c-3.35.24-6.39,6.71-5.51,8.74s11.19,1.5,11.4-.18S237.3,161.31,233.2,161.6Z"/>
            <path class="e6b1a898-5aae-4a0d-88df-6af54c45039a" d="M234.67,161.83c1.36,1.44,1.42,4,.36,6-.9,1.7-2.92,3-6.71,3.11,2.44,1.31,10.59.73,10.77-.76S237.78,163.05,234.67,161.83Z"/>
            <path class="b95adb73-786b-4d86-bebd-e267d7251aa5" d="M232.89,171.84h0c-1.12,0-4.8-.1-5.37-1.43-.48-1.1.1-3.44,1.38-5.55s2.83-3.34,4.29-3.44a4.06,4.06,0,0,1,3.4,1.61,12.1,12.1,0,0,1,2.69,7.16C239.13,171.4,235.37,171.84,232.89,171.84Zm.55-10.06h-.23c-1.34.1-2.79,1.28-4,3.26s-1.79,4.23-1.36,5.22c.32.73,2.29,1.2,5,1.2h0c3.12,0,5.93-.62,6-1.33a11.94,11.94,0,0,0-2.6-6.87A3.82,3.82,0,0,0,233.44,161.78Z"/>
          </g>
          <g>
            <path class="e27eabbe-a13e-43e2-bc7e-d9bd6922fe23" d="M212.14,160.26c-3.34-.28-6.59,6.06-6,8.2s10.83,3.2,11.3,1.58S216.24,160.6,212.14,160.26Z"/>
            <path class="e6b1a898-5aae-4a0d-88df-6af54c45039a" d="M213.19,160.53a4.92,4.92,0,0,1,.19,6.58,7.11,7.11,0,0,1-6.56,2.14c2.79,1.58,10.21,2.07,10.58.79C217.82,168.56,216.51,162,213.19,160.53Z"/>
            <path class="b95adb73-786b-4d86-bebd-e267d7251aa5" d="M214.35,171h0c-3.25,0-8-.95-8.43-2.51-.34-1.31.64-4,2.18-6,1.29-1.67,2.73-2.55,4.06-2.43a4.52,4.52,0,0,1,3.3,2.23c1.78,2.56,2.44,6.63,2.11,7.78C217.36,170.85,215.7,171,214.35,171Zm-2.42-10.57c-1.14,0-2.4.82-3.54,2.3-1.45,1.88-2.42,4.48-2.11,5.67s4.68,2.23,8.07,2.23c2,0,2.78-.35,2.87-.65.31-1.09-.35-5-2.06-7.47a4.19,4.19,0,0,0-3-2.07Z"/>
          </g>
          <g>
            <path class="e27eabbe-a13e-43e2-bc7e-d9bd6922fe23" d="M222.75,161.78c-3.82,0-7,6.54-6.22,8.61s11.09,2.1,11.39.43S226.86,161.78,222.75,161.78Z"/>
            <path class="e6b1a898-5aae-4a0d-88df-6af54c45039a" d="M223.39,161.85c1.73,1.23,2.12,4.17.56,6.44-1.1,1.59-3.17,2.85-6.41,2.93,2.78,1.21,10.13,1,10.38-.4C228.2,169.25,227,162.57,223.39,161.85Z"/>
            <path class="b95adb73-786b-4d86-bebd-e267d7251aa5" d="M222.9,172.2h0c-2.19,0-6-.37-6.55-1.74-.44-1.19.33-3.72,1.75-5.76.8-1.16,2.48-3.11,4.65-3.11h0a3.87,3.87,0,0,1,3,1.57,12.48,12.48,0,0,1,2.34,7.7C227.87,172.13,223.73,172.2,222.9,172.2ZM222.75,162c-1.46,0-3.05,1.07-4.35,2.94s-2.1,4.35-1.7,5.42c.32.87,2.93,1.5,6.2,1.5,3,0,4.75-.54,4.84-1a12.07,12.07,0,0,0-2.26-7.39,3.52,3.52,0,0,0-2.73-1.43Z"/>
          </g>
          <path class="b0fbe1fe-4ecd-4c9f-9df7-3cdfc34dd366" d="M217.3,161.07a3.83,3.83,0,0,0-3.32-2.54,3.3,3.3,0,0,0-3.23,2l-.34-.17a3.73,3.73,0,0,1,3.6-2.18,4.13,4.13,0,0,1,2.92,1.52A3.24,3.24,0,0,1,217.3,161.07Z"/>
          <path class="b0fbe1fe-4ecd-4c9f-9df7-3cdfc34dd366" d="M228.3,161.24a6.61,6.61,0,0,0-4.93-3.94,7.37,7.37,0,0,0-6.55,2.5l-.27-.26a7.7,7.7,0,0,1,6.88-2.6,6.72,6.72,0,0,1,4,2.26A6.8,6.8,0,0,1,228.3,161.24Z"/>
          <path class="b0fbe1fe-4ecd-4c9f-9df7-3cdfc34dd366" d="M236.24,159.77c-1.11-1.86-2.75-2.89-4.38-2.76a3.25,3.25,0,0,0-2.81,2.16,3,3,0,0,1,.85-1.77,3.45,3.45,0,0,1,1.93-.76,3.83,3.83,0,0,1,2.58.67A6.45,6.45,0,0,1,236.24,159.77Z"/>
          <g class="a1bb951c-9814-4800-b558-559c10ddb49d">
            <path class="b319c047-1550-493c-8040-a8e32a4af03b" d="M206.8,148.22c-.71,1-.09,4.72,2.14,5.46s4.83.74,5.71-.56-.79-4.17-2.27-5S207.73,146.85,206.8,148.22Z"/>
          </g>
          <g class="a1bb951c-9814-4800-b558-559c10ddb49d">
            <path class="b319c047-1550-493c-8040-a8e32a4af03b" d="M219,148.22c-.7,1-.09,4.72,2.14,5.46s4.83.74,5.72-.56-.79-4.17-2.28-5S219.92,146.85,219,148.22Z"/>
          </g>
          <g class="a1bb951c-9814-4800-b558-559c10ddb49d">
            <path class="b319c047-1550-493c-8040-a8e32a4af03b" d="M221.7,139.06c1,2.25.38,4.77-1.48,5.63s-4.21-.26-5.25-2.5-.38-4.76,1.48-5.63S220.66,136.82,221.7,139.06Z"/>
          </g>
          <g class="a1bb951c-9814-4800-b558-559c10ddb49d">
            <path class="b319c047-1550-493c-8040-a8e32a4af03b" d="M205.36,135.2c-1.53,0-3.13,7.34-.93,9.57,1.24,1.26,6.8.65,7-.65C211.94,141.12,208,135.2,205.36,135.2Z"/>
          </g>
        </g>
        <g>
          <g>
            <path class="a38dbeb9-ebc3-424a-ad22-f31d2056ea1b" d="M119.38,127.58a15.07,15.07,0,0,0,6-14.19c-.84-7.81-14.4-20.45-14.4-20.45l-6.57,2.11c-5.14,5.65-24,9-26.15,26.39C76.65,134.35,88.56,148.83,91.69,152a9.76,9.76,0,0,0-4.88,6.49c1,2.56,3.53,8.79,3.53,8.79,2.88.51,32.11,4.32,36.57-1.91S127,138,119.38,127.58Z"/>
            <path class="a3640217-4628-4d24-a344-19bf0126a04a" d="M97.89,156.5c-1-2.67-3.35-5.58-6.2-4.48a9.76,9.76,0,0,0-4.88,6.49c.15.38.33.84.54,1.35.49-1.09-.13-1.59.74-2.46C91.22,151.53,95.26,152.66,97.89,156.5Z"/>
            <path class="a3640217-4628-4d24-a344-19bf0126a04a" d="M80.44,121.2c2.25-12.93,15.12-18.28,21.06-24.11-2,1.47-7,3.79-12.35,7.43-5,3.45-9.91,8.47-10.94,16.92-.92,7.6,3.85,21.44,13.36,30.19C85.76,143.38,79.06,129.11,80.44,121.2Z"/>
            <path class="b07a14f0-a171-4df8-b87c-577451dfb8aa" d="M119.38,127.58a15.07,15.07,0,0,0,6-14.19c-.15-1.48-1.55.06-2.44-1.64-.41,2.2-2.14,4.4-5.4,5.36s-7.31-1.46-11.21-2.54c7.67,5.74,19,34.89,15.93,43.54-1.67,4.78-6.24,7.49-9.57,10.79,6.56-.11,12.46-1,14.27-3.51C131.38,159.16,127,138,119.38,127.58Z"/>
            <path class="b0fbe1fe-4ecd-4c9f-9df7-3cdfc34dd366" d="M127.86,148c-1.59-7.86-4.66-15.46-8.23-20.41a15.25,15.25,0,0,0,5.89-14.24c-.84-7.79-13.91-20.05-14.47-20.56l-.25.27c.14.12,13.53,12.68,14.35,20.33a14.92,14.92,0,0,1-5.89,14l-.14.11.11.15c7.65,10.45,11.87,31.53,7.53,37.59s-31.86,2.61-36.29,1.85c-.31-.79-2.51-6.24-3.47-8.64a9.63,9.63,0,0,1,4.77-6.3l.23-.12-.18-.18c-.15-.15-15.18-15.94-13.42-30.42,1.47-12.15,11-17.29,18.65-21.42a37,37,0,0,0,4.45-3c-1.33.86-2.91,1.71-4.63,2.64-7.32,4-17.35,9.36-18.84,21.69C76.35,135.24,89.72,150.18,91.39,152a10.08,10.08,0,0,0-4.77,6.51v.05l0,.05c1,2.56,3.53,8.79,3.53,8.79l0,.09.1,0a147.67,147.67,0,0,0,20.63,1.61c7.29,0,14.14-.82,16.12-3.59C129.18,162.55,129.47,156,127.86,148Z"/>
          </g>
          <path class="b0fbe1fe-4ecd-4c9f-9df7-3cdfc34dd366" d="M119.56,128.15c-6.87-9.56-13.22-13.54-13.28-13.58a24.14,24.14,0,0,1,5.94,4.45,65.76,65.76,0,0,1,7.64,8.91Z"/>
          <path class="b0fbe1fe-4ecd-4c9f-9df7-3cdfc34dd366" d="M98.06,157.73c-.59-2.08-1.88-4.61-3.73-5.44a3.37,3.37,0,0,0-3,.11l-.16-.33a3.68,3.68,0,0,1,3.26-.12,7.31,7.31,0,0,1,3.25,3.77A5.61,5.61,0,0,1,98.06,157.73Z"/>
          <path class="b0fbe1fe-4ecd-4c9f-9df7-3cdfc34dd366" d="M108.87,159.35c-1.43-3.33-3.06-5.19-5-5.7s-3.86.2-6.31,2.06l-.23-.3c2.55-1.93,4.72-2.63,6.63-2.12a6.77,6.77,0,0,1,3.86,3.23A14.86,14.86,0,0,1,108.87,159.35Z"/>
          <path class="b0fbe1fe-4ecd-4c9f-9df7-3cdfc34dd366" d="M119.26,159a5.58,5.58,0,0,0-4.08-3.5,5.09,5.09,0,0,0-4.53,1.92,4.73,4.73,0,0,1,2-1.92,4.23,4.23,0,0,1,2.62-.37,5.07,5.07,0,0,1,2.83,1.48A8.29,8.29,0,0,1,119.26,159Z"/>
          <g>
            <path class="e27eabbe-a13e-43e2-bc7e-d9bd6922fe23" d="M84,164c.36,3.19,10.65,5.09,11.21,3.72s-.35-9.63-4.39-10.81C88,156.11,83.68,161.55,84,164Z"/>
            <path class="e6b1a898-5aae-4a0d-88df-6af54c45039a" d="M91.61,157.3a5.48,5.48,0,0,1-.17,6.33,5.78,5.78,0,0,1-6.28,1.88c.65,1.71,9.48,3.52,10,2.23S95,159.28,91.61,157.3Z"/>
            <path class="b95adb73-786b-4d86-bebd-e267d7251aa5" d="M93.19,168.37h0c-3-.11-9.12-1.74-9.42-4.33-.14-1.28.87-3.38,2.47-5.11s3.32-2.55,4.59-2.18a5.54,5.54,0,0,1,3.22,3.2c1.4,2.92,1.68,6.9,1.29,7.86C95.17,168.23,94.44,168.42,93.19,168.37ZM90.26,157c-1.08,0-2.44.75-3.74,2.15C85,160.81,84,162.84,84.14,164c.26,2.28,6,3.89,9.06,4h0c1.21,0,1.72-.15,1.8-.33.36-.88,0-4.77-1.29-7.56a5.17,5.17,0,0,0-3-3A2.21,2.21,0,0,0,90.26,157Z"/>
          </g>
          <g>
            <path class="e27eabbe-a13e-43e2-bc7e-d9bd6922fe23" d="M95.92,166.91c-.28,2.36,2.78,3.41,6.13,3.64s6-.55,6.21-2.7c.23-3.2-1.89-8.83-5.45-9.07C100.11,158.59,96.54,161.7,95.92,166.91Z"/>
            <path class="e6b1a898-5aae-4a0d-88df-6af54c45039a" d="M103.79,159a7.06,7.06,0,0,1,.36,7.06c-1.11,2-3.48,3.38-7.46,2.84,1.09,1,3.16,1.51,5.36,1.66,3.35.23,6-.55,6.21-2.7C108.47,165,106.76,160.07,103.79,159Z"/>
            <path class="b95adb73-786b-4d86-bebd-e267d7251aa5" d="M103.15,170.77h0c-.36,0-.73,0-1.11,0-1.63-.11-4.54-.52-5.77-2a2.36,2.36,0,0,1-.54-1.84c.63-5.28,4.24-8.49,7.09-8.3a4.55,4.55,0,0,1,3.12,1.74,11.56,11.56,0,0,1,2.51,7.53C108.31,169.71,106.38,170.77,103.15,170.77ZM102.58,159c-2.67,0-5.91,3.21-6.48,8a2,2,0,0,0,.46,1.56c.84,1,2.8,1.69,5.5,1.87.38,0,.74,0,1.09,0,3,0,4.81-.93,4.92-2.56a11.28,11.28,0,0,0-2.42-7.27A4.19,4.19,0,0,0,102.8,159Z"/>
          </g>
          <g class="a1bb951c-9814-4800-b558-559c10ddb49d">
            <path class="b319c047-1550-493c-8040-a8e32a4af03b" d="M88,114.14a4.43,4.43,0,0,0,4.17,4.59c2.4.19,4.53-1.22,4.64-3,.17-2.65-1.54-6.54-4.1-6.74C90.82,108.83,88.14,111.66,88,114.14Z"/>
          </g>
          <g>
            <path class="e27eabbe-a13e-43e2-bc7e-d9bd6922fe23" d="M109.18,168.91c.47,1.4,8.53,2.54,11.28-.62,1.29-1.48-.79-5.91-2.73-7.21a4.92,4.92,0,0,0-5.7.33C110.44,162.7,108.52,166.92,109.18,168.91Z"/>
            <path class="e6b1a898-5aae-4a0d-88df-6af54c45039a" d="M117.73,161.08a4.92,4.92,0,0,0-3.18-.72,5.15,5.15,0,0,1,2.06,6.09c-.76,1.8-2.86,3.19-6.8,3,2,1.07,8.29,1.52,10.65-1.19C121.75,166.81,119.67,162.38,117.73,161.08Z"/>
            <path class="b95adb73-786b-4d86-bebd-e267d7251aa5" d="M114.38,170.5h0c-2.33,0-5.05-.58-5.36-1.53-.71-2.14,1.33-6.42,2.91-7.7a5.07,5.07,0,0,1,5.91-.34A9,9,0,0,1,121,166.4a2.5,2.5,0,0,1-.4,2C119.45,169.74,117.18,170.5,114.38,170.5Zm.72-10a4.62,4.62,0,0,0-2.95,1.05c-1.62,1.31-3.4,5.45-2.79,7.29.2.59,2.43,1.28,5,1.28h0c2.69,0,4.86-.71,5.94-2a2.18,2.18,0,0,0,.32-1.72,8.82,8.82,0,0,0-3-5.21A4.6,4.6,0,0,0,115.1,160.51Z"/>
          </g>
          <g class="a1bb951c-9814-4800-b558-559c10ddb49d">
            <path class="b319c047-1550-493c-8040-a8e32a4af03b" d="M83.09,128.72c1.54,1,6.32.56,7.16-.23s.48-7.85-1.49-9.43c-1.31-1-4.55-1.24-5.11-.72s-2.51,4-2.42,5.21S81.87,128,83.09,128.72Z"/>
          </g>
          <g class="a1bb951c-9814-4800-b558-559c10ddb49d">
            <path class="b319c047-1550-493c-8040-a8e32a4af03b" d="M95.36,125.33c-1.09,1.43-1.34,4.74.77,6.35,1.06.81,3.22,1.83,5,0s.88-4.3-.12-5.42C99.4,124.56,96.2,124.23,95.36,125.33Z"/>
          </g>
          <path class="a46a6838-dc24-4d30-95e7-fddd3fa0070d" d="M110.91,132.64c-1,.63-2.48.1-3.31-1.19s-.69-2.86.3-3.5,2.48-.11,3.31,1.19S111.91,132,110.91,132.64Z"/>
          <g class="a1bb951c-9814-4800-b558-559c10ddb49d">
            <path class="b319c047-1550-493c-8040-a8e32a4af03b" d="M107.88,141.41c-3.79,2-4-4-3-4.68S111.35,139.55,107.88,141.41Z"/>
          </g>
          <g class="a1bb951c-9814-4800-b558-559c10ddb49d">
            <path class="b319c047-1550-493c-8040-a8e32a4af03b" d="M102.19,124.17c-1.65-.37-2.42-6.48,1.53-4.69S104.08,124.6,102.19,124.17Z"/>
          </g>
          <g class="a1bb951c-9814-4800-b558-559c10ddb49d">
            <path class="b319c047-1550-493c-8040-a8e32a4af03b" d="M116.32,146.75a2.71,2.71,0,1,1-2.71-2.7A2.71,2.71,0,0,1,116.32,146.75Z"/>
          </g>
          <g class="a1bb951c-9814-4800-b558-559c10ddb49d">
            <path class="b319c047-1550-493c-8040-a8e32a4af03b" d="M98.09,142.39c-1.38.92.13,7.75,1.22,8.37s4.15-.21,4.74-.65-.29-5.63-1-6.29S99.17,141.67,98.09,142.39Z"/>
          </g>
          <g class="a1bb951c-9814-4800-b558-559c10ddb49d">
            <path class="b319c047-1550-493c-8040-a8e32a4af03b" d="M86.48,134.86c-1,.37-1,4.41,0,5.71s3.81,4.79,5.49,3.91,3.25-2.37,3.25-3.49-4.6-5.2-5.48-5.76A4.6,4.6,0,0,0,86.48,134.86Z"/>
          </g>
        </g>
        <g>
          <g>
            <path class="efcbd0d0-9907-4b06-90c2-e73bd0b0db8f" d="M179,42.63c-6-3.72-22.06-11.9-43.37,2.47-8.37-1.42-21.6,6.48-26.06,13.08-6.36.56-8.13-3-10-2s-4.47,19.15,7,27.76c-1.37,6.45,3.56,16.6,15.76,23-.58,10.36,10.26,18.29,21,19,3.84,5.27,18.47,10.79,27.64,9.73,12.7,1.68,29.34,1.64,38-8.39,10.32.65,22.12-.38,26.77-6.79,8.46.37,13.76-1.24,15.24-6.5,5-.87,8.68-2.11,9.67-6.82-6.69-1-12.6-6.6-19.09-9.48-.62-6.94-3-20.05-12.14-26.55-1.07-7-6.51-19.89-22.49-20.17C200.25,41.63,185.16,39.28,179,42.63Z"/>
            <path class="b89ee43a-315c-4511-a51d-2d2913aaa0ef" d="M260.57,107.13l-.35-.06c-1,1.26-2.11,2.42-3.93,2.6-6,1-8.63-5.23-10.31-9.72-1.65-.66-3.26-1.93-4.59-2.45,1.42,6.48,3.67,15.13,8.24,19.08A7.85,7.85,0,0,0,250.9,114C255.92,113.08,259.58,111.84,260.57,107.13Z"/>
            <path class="fe6f8d23-ab3f-433e-8a59-bd08d78ab331" d="M182.59,136.64a89.31,89.31,0,0,1-11.68-.82,20.62,20.62,0,0,1-2.41.13c-8.94,0-21.67-5-25.33-9.87-10.66-.77-21.64-8.6-21.13-19.1-12.13-6.38-17.1-16.37-15.78-23C99,78.46,97.13,68.78,97.75,61.53c.26-3,.92-5.19,1.66-5.56a1.64,1.64,0,0,1,.78-.19,4.82,4.82,0,0,1,2,.72,12.29,12.29,0,0,0,6,1.55c.4,0,.8,0,1.22,0,4.12-6,15.73-13.25,24.06-13.25a12.38,12.38,0,0,1,2.06.16c8.06-5.42,16.2-8.17,24.2-8.17A36.07,36.07,0,0,1,179,42.41,15.55,15.55,0,0,1,186,41c6.94,0,16.09,3,20.92,9.74,14.39.3,21.14,11.07,22.57,20.25,9.05,6.51,11.5,19.37,12.15,26.53a61.55,61.55,0,0,1,7.1,4c3.79,2.35,7.71,4.79,11.84,5.43l.19,0,0,.19c-1.05,5-5.18,6.15-9.7,6.94-1.33,4.49-5.52,6.58-13.18,6.58h0c-.67,0-1.38,0-2.12,0-4.24,5.74-14.13,7-21.69,7-1.63,0-3.34,0-5.09-.16C203.66,133.54,194.79,136.64,182.59,136.64Zm-11.68-1.19h0a90.91,90.91,0,0,0,11.66.82c12.13,0,20.93-3.08,26.16-9.15l.06-.07h.09c1.77.11,3.51.17,5.16.17,7.51,0,17.33-1.19,21.45-6.88l.06-.08h.1c.76,0,1.51,0,2.2,0,7.64,0,11.6-2,12.85-6.43l0-.11.11,0c5.38-.93,8.5-2.25,9.48-6.48-4.13-.69-8-3.11-11.78-5.45a60.29,60.29,0,0,0-7.16-4l-.1,0v-.1c-.63-7.1-3.05-20-12.07-26.42l-.06,0v-.07c-.31-2-3.54-19.69-22.32-20h-.09L206.7,51C202,44.36,192.89,41.37,186,41.37a14.94,14.94,0,0,0-7,1.42l-.09.05-.1-.06a35.68,35.68,0,0,0-19.11-5.67c-7.95,0-16,2.74-24.06,8.15l-.06,0h-.07a12.39,12.39,0,0,0-2.07-.17c-8.26,0-19.77,7.2-23.8,13.16l0,.08h-.09c-.46,0-.91.06-1.34.06a12.57,12.57,0,0,1-6.14-1.59c-1.06-.53-1.81-.88-2.49-.53-.51.26-1.2,2.3-1.46,5.26-.62,7.18,1.28,16.78,8.46,22.18l.09.08,0,.11c-1.35,6.37,3.69,16.51,15.67,22.77l.11.06v.12c-.59,10.37,10.31,18.11,20.86,18.84h.09l0,.06c3.54,4.85,16.19,9.79,25.08,9.79a22.53,22.53,0,0,0,2.39-.13Z"/>
          </g>
          <g>
            <path class="b89ee43a-315c-4511-a51d-2d2913aaa0ef" d="M241.48,97.65c-.13-1.52-.35-3.34-.71-5.31l-11.18,6.55s4.89,16.73,6.07,21.56c8.46.37,13.76-1.24,15.24-6.5ZM239,118.07c-2.94-2.18-5-14.15-4.35-17.57.29-1.39,2.44-2.48,4-2.36,2.4.2,9.88,13.32,9.5,15.71C247.7,116.52,239.7,119.19,239,118.07Z"/>
            <path class="fe6f8d23-ab3f-433e-8a59-bd08d78ab331" d="M237.87,120.69h0c-.7,0-1.45,0-2.22,0h-.14l0-.13c-1.16-4.78-6-21.39-6.07-21.56l0-.14L240.9,92l0,.26c.31,1.73.56,3.51.72,5.29l9.43,16.33,0,.08C249.79,118.56,245.6,120.69,237.87,120.69Zm-2.06-.42c.71,0,1.41,0,2.06,0,7.59,0,11.55-2,12.83-6.35l-9.4-16.26v0c-.15-1.7-.38-3.39-.67-5L229.81,99C230.28,100.58,234.65,115.56,235.81,120.27Z"/>
          </g>
          <g>
            <path class="b89ee43a-315c-4511-a51d-2d2913aaa0ef" d="M231.82,100.25c-.25-3.16-11.57-11.5-11.57-11.5l-12.41,5.92s1.1,27.41,1,32.57c10.32.65,22.12-.38,26.77-6.79C236.09,113.57,231.82,100.25,231.82,100.25Zm-18.34,21.26c0-7.07-1.1-16.55-1.2-21,0-2.09,5.11-5.66,7.38-5.84,2.6-.21,6.59,2.53,8.63,5.59,2.66,4,3.71,13.14,2.14,17.82C229.28,121.48,213.48,124.11,213.48,121.51Z"/>
            <path class="fe6f8d23-ab3f-433e-8a59-bd08d78ab331" d="M214.06,127.59h0c-1.66,0-3.4-.06-5.18-.17h-.18v-.18c0-5.09-1.05-32.27-1.06-32.55v-.12l.11,0,12.51-6,.09.06c.46.34,11.34,8.39,11.64,11.61.19.6,4.27,13.54,3.85,20.25v.06l0,0C231.6,126.37,221.66,127.59,214.06,127.59Zm-5-.53c1.71.11,3.38.16,5,.16,7.49,0,17.28-1.19,21.42-6.83.4-6.78-3.8-20-3.84-20.08v0c-.22-2.9-10.34-10.51-11.4-11.3L208,94.79C208.11,96.77,209.1,121.73,209.08,127.06Z"/>
          </g>
          <g>
            <path class="b89ee43a-315c-4511-a51d-2d2913aaa0ef" d="M228,71.14c-1.56,0-3.5,0-3.5,0-1.19,3-4.62,19.4-4.62,19.4s9,5.56,11.95,9.71c1.7-1,6.52-4.7,9.16-6.66-3.76,1.2-7.81,2.07-10,1.07C226.24,92.53,226.49,79.84,228,71.14Z"/>
            <path class="fe6f8d23-ab3f-433e-8a59-bd08d78ab331" d="M231.77,100.5l-.1-.14c-2.86-4.08-11.81-9.61-11.9-9.66l-.11-.07,0-.13c.14-.67,3.44-16.45,4.63-19.43l.05-.12h2.07c1.33,0,2.33,0,2.89,0h.06l.06,0C237,76.35,240,86.23,241.16,93.56l0,.11-.09.07c-.9.65-2,1.47-3.15,2.34-2.3,1.73-4.68,3.52-6,4.33Zm-11.69-10c1.08.67,8.94,5.64,11.79,9.55,1.35-.84,3.63-2.56,5.84-4.22,1.12-.84,2.18-1.64,3.07-2.28-1.17-7.23-4.11-16.9-11.5-22.21-.58,0-1.53,0-2.84,0h-1.82C223.46,74.41,220.4,88.93,220.08,90.45Z"/>
          </g>
          <g>
            <path class="efcbd0d0-9907-4b06-90c2-e73bd0b0db8f" d="M209.08,98.14c-.5-2.1-11.9-10.65-11.9-10.65l-21,5.45s-3.74,35.23-5.26,42.69c12.7,1.68,29.34,1.64,38-8.39C212.42,110.17,209.08,98.14,209.08,98.14Z"/>
            <path class="b89ee43a-315c-4511-a51d-2d2913aaa0ef" d="M209.08,98.14c-.5-2.1-11.9-10.65-11.9-10.65l-21,5.45s-3.74,35.23-5.26,42.69c12.7,1.68,29.34,1.64,38-8.39C212.42,110.17,209.08,98.14,209.08,98.14Zm-4.65,28c-3,3.43-23,8.42-25.21,4.21-2.58-4.87,2.38-26.63,4.14-29.31,2.23-3.41,7.09-6,12-6.82,5.55-.89,10.05,3,11.22,8.58C207.65,109.82,207.65,122.38,204.43,126.1Z"/>
            <path class="fe6f8d23-ab3f-433e-8a59-bd08d78ab331" d="M182.59,136.64h0a91.78,91.78,0,0,1-11.71-.82l-.19,0,0-.19c1.49-7.38,5.22-42.33,5.26-42.68v-.13l21.22-5.5.07,0c.47.35,11.46,8.61,12,10.76,0,.12,3.31,12.26-.19,29.17v0l0,0C203.73,133.52,194.83,136.64,182.59,136.64Zm-11.46-1.17a89.42,89.42,0,0,0,11.46.8c12.1,0,20.89-3.07,26.13-9.12,3.46-16.8.21-28.84.18-29-.39-1.66-8.55-8.09-11.76-10.5l-20.79,5.4C176.1,95.41,172.61,127.93,171.13,135.47Z"/>
          </g>
          <g>
            <path class="b89ee43a-315c-4511-a51d-2d2913aaa0ef" d="M178.47,97.15s-12.19-11-14.15-12.58c0,0-8.41,4.42-10.68,5.81,0,0-8.81,32.35-10.37,35.52,3.84,5.27,18.47,10.79,27.64,9.73C179.2,122.78,178.47,97.15,178.47,97.15Zm-8.64,30.26c-5.21,4.46-19.74-.74-18.75-5.76.87-6.38,5.51-26,6.88-27.84.86-1.94,3.47-3,5.45-3.59,3.66-.88,11,4.37,11.9,8.73C177.17,109.36,174.52,121.36,169.83,127.41Z"/>
            <path class="fe6f8d23-ab3f-433e-8a59-bd08d78ab331" d="M168.5,136h0c-9,0-21.79-5-25.38-9.94l-.06-.09.05-.1c1.53-3.12,10.26-35.16,10.35-35.49l0-.07.06,0c2.25-1.39,10.61-5.78,10.7-5.82l.11-.06.09.08c1.94,1.61,14,12.48,14.15,12.58l.06.06v.08c0,.25.64,25.83-7.59,38.58l0,.08h-.09A23.31,23.31,0,0,1,168.5,136Zm-25-10.07c3.62,4.82,16.17,9.7,25,9.7h0a21,21,0,0,0,2.3-.12c7.89-12.33,7.52-36.64,7.48-38.22-.91-.82-11.86-10.66-14-12.44-1,.52-8.32,4.38-10.5,5.7C153.23,92.58,145.13,122.26,143.49,125.88Z"/>
          </g>
          <g>
            <path class="b89ee43a-315c-4511-a51d-2d2913aaa0ef" d="M154.8,92.94s-12.5-8.09-15.06-8.37c0,0-14.84,18.78-17.51,22.3-.58,10.36,10.26,18.29,21,19C152.37,117.77,155.17,98,154.8,92.94Zm-10.21,25.4c-6.64,4.74-18.59-5.75-16.47-11.89,1.49-4.31,8.7-11.88,12.16-17.21,3.43-.38,9.25,3.41,11.36,5.87C152.85,97.35,150.54,114.1,144.59,118.34Z"/>
            <path class="fe6f8d23-ab3f-433e-8a59-bd08d78ab331" d="M143.34,126.1h-.08c-10.73-.74-21.81-8.64-21.21-19.23v-.06l0,0c2.64-3.48,17.37-22.11,17.51-22.3l.07-.08h.1c2.57.28,14.63,8.06,15.14,8.39l.08,0v.1c.38,5.14-2.39,24.89-11.58,33.11Zm-20.92-19.16c-.55,10.31,10.28,18,20.79,18.77,9-8.12,11.74-27.43,11.41-32.66-1.05-.68-12.22-7.84-14.8-8.28C138.74,86.14,125.05,103.47,122.42,106.94Z"/>
          </g>
          <g>
            <path class="b89ee43a-315c-4511-a51d-2d2913aaa0ef" d="M132,68.46S107.77,83,106.46,84c-1.33,6.45,3.6,16.56,15.77,22.92,9.75-4.47,17.51-22.3,17.51-22.3C140.73,82,134.07,71.1,132,68.46Zm5,17.28c-2.23,5.57-6.65,12.36-12.33,15.14-6,3-15.67-11.81-12.44-15.71,1.14-1.38,5.25-3.58,9-6.14,2.66-1.81,7-3.65,9.43-5C135,75.93,137.5,83.14,137.06,85.74Z"/>
            <path class="fe6f8d23-ab3f-433e-8a59-bd08d78ab331" d="M122.23,107.08l-.08,0c-12.23-6.39-17.24-16.47-15.88-23.12l0-.07.06,0c1.3-.93,24.59-14.9,25.58-15.5l.14-.08.1.13c1.79,2.3,8.82,13.46,7.74,16.29-.08.19-7.9,18-17.6,22.4Zm-15.61-23c-1.28,6.5,3.66,16.32,15.62,22.6,9.53-4.45,17.25-22,17.33-22.16.9-2.37-5.21-12.66-7.59-15.79C130,69.89,108.38,82.87,106.62,84.06Z"/>
          </g>
          <g>
            <path class="b07d114d-a463-476b-82a7-cbd7d4340fe9" d="M99.77,58c3.32-.33,6.29,2.86,9.69.38l.07-.19c-6.36.56-8.13-3-10-2-.41.21-.85,1.21-1.17,2.73A2.66,2.66,0,0,1,99.77,58Z"/>
            <path class="b89ee43a-315c-4511-a51d-2d2913aaa0ef" d="M117.81,66.45C120,69.24,121,71,119.11,74A10.24,10.24,0,0,1,107,76.88c-5.52-2.69-7.83-9.72-8.89-16.92-.91,6-.11,17.38,8.13,23.77,4,.19,16.19-6.34,19.07-9.75Z"/>
            <path class="fe6f8d23-ab3f-433e-8a59-bd08d78ab331" d="M106.44,83.92h-.25l0,0c-7.21-5.58-9.05-15.3-8.38-22.54.27-2.85.93-5,1.64-5.37a1.64,1.64,0,0,1,.78-.19,4.82,4.82,0,0,1,2,.72,12.29,12.29,0,0,0,6,1.55c.42,0,.86,0,1.31-.06h.08l16,16-.11.13C122.62,77.48,110.76,83.92,106.44,83.92Zm-.11-.37h.11c4.09,0,15.69-6.27,18.64-9.56L109.46,58.37c-.42,0-.84.05-1.25.05a12.57,12.57,0,0,1-6.14-1.59c-1.06-.53-1.81-.88-2.49-.53-.49.25-1.16,2.12-1.44,5.08C97.48,68.5,99.28,78.05,106.33,83.55Z"/>
          </g>
          <g>
            <path class="b07d114d-a463-476b-82a7-cbd7d4340fe9" d="M135.59,45.1c-8.07-1.37-21.5,6.46-26.06,13.08,7.59-5.49,17.46-10.77,26.17-12.9Z"/>
            <path class="b89ee43a-315c-4511-a51d-2d2913aaa0ef" d="M143.71,57.81c-1-1.51-5-7.74-6.88-10.72.56,1.89,2.71,9,2,10.72-1,2.49-8.1,12.11-13.53,11.26-4.18-.66-14.76-10.11-15.5-10.52,1.53,1.84,8.66,10.32,15.5,15.43,2-.74,7.35-3.44,7.35-3.44C134.72,69.27,144,59.29,143.71,57.81Z"/>
            <path class="fe6f8d23-ab3f-433e-8a59-bd08d78ab331" d="M125.3,74.19l-.08-.06c-7.64-5.71-15.75-15.73-15.83-15.84l-.09-.1.08-.12c4.08-6,15.75-13.32,24.11-13.32a13.13,13.13,0,0,1,2.13.17h.08l8.19,12.84c.34,1.67-9.15,11.71-11.12,12.93-.06,0-5.34,2.71-7.37,3.45Zm-15.54-16c.9,1.09,8.45,10.23,15.6,15.6,2.08-.78,7.18-3.36,7.23-3.39,2.33-1.46,11.07-11.13,10.94-12.51l-8.05-12.6a12.66,12.66,0,0,0-2-.15C125.29,45.12,113.86,52.23,109.76,58.17Z"/>
          </g>
          <g>
            <path class="b07d114d-a463-476b-82a7-cbd7d4340fe9" d="M179,43.16c0-.08,0-.54,0-.53-6-3.72-22.06-11.9-43.37,2.47l.14.22C149.59,38.79,163,36.09,179,43.16Z"/>
            <path class="b89ee43a-315c-4511-a51d-2d2913aaa0ef" d="M179.6,46.48c-1.9,4.25-11.32,12-15.42,12.43-5.31.55-17.38-1.29-25.37-8.76l4.9,7.66c3,2,20.29,8.73,20.29,8.73,2.45-1.55,16.63-11.91,16.63-11.91C180.56,53,180.05,49.36,179.6,46.48Z"/>
            <path class="fe6f8d23-ab3f-433e-8a59-bd08d78ab331" d="M164,66.75l-.09,0c-.71-.28-17.37-6.73-20.33-8.76l0-.05-8.22-12.86.15-.1c8.09-5.45,16.25-8.21,24.27-8.21A36.07,36.07,0,0,1,179,42.41l.13-.07.07.24c.26,1.55,1.54,9.39,1.65,12v.1l-.08.06c-.14.11-14.22,10.39-16.64,11.92Zm-20.18-9.08c2.9,2,18.81,8.15,20.14,8.67,2.52-1.63,15.32-11,16.46-11.8-.13-2.66-1.33-10-1.62-11.78a35.63,35.63,0,0,0-19.07-5.65c-7.9,0-15.94,2.71-23.91,8Z"/>
          </g>
          <g>
            <g>
              <g>
                <path class="b07d114d-a463-476b-82a7-cbd7d4340fe9" d="M207.06,51.72c-.11-.41-.18-.69-.2-.79h0c-6.6-9.3-21.69-11.65-27.89-8.3v.43C189.52,41.62,200.2,44.64,207.06,51.72Z"/>
                <path class="b89ee43a-315c-4511-a51d-2d2913aaa0ef" d="M198.73,61.43c-3.35-.28-12.67-6.66-15.62-8.76a13.28,13.28,0,0,1-4.05-5.24l.14,6.6c1.56,1.3,19.3,14,19.3,14,1.33-1,10.58-8.57,10.58-8.57-.19-.66-1.3-4.94-1.74-6.63C207.44,59.51,202.08,61.71,198.73,61.43Z"/>
                <path class="fe6f8d23-ab3f-433e-8a59-bd08d78ab331" d="M198.57,68.27h-.07c-.26,0-19.25-14-19.42-14.1l-.06-.05-.25-11.6.1-.06A15.33,15.33,0,0,1,186,41c6.94,0,16.09,3,20.92,9.74H207l0,.14c0,.07,1.79,7.06,2.22,8.58l0,.12-.1.07c-.09.08-9.26,7.57-10.57,8.58ZM179.38,53.94C181.2,55.41,197,66.77,198.5,67.85c1.54-1.21,9.41-7.63,10.37-8.41-.47-1.67-2-7.76-2.18-8.41-4.74-6.67-13.8-9.66-20.67-9.66a15.09,15.09,0,0,0-6.87,1.37Z"/>
              </g>
              <g>
                <path class="b07d114d-a463-476b-82a7-cbd7d4340fe9" d="M226.87,63.34c-3-6.11-9-12.26-20-12.45l.09.43C214.79,52.73,221.81,57.42,226.87,63.34Z"/>
                <path class="b89ee43a-315c-4511-a51d-2d2913aaa0ef" d="M227,63.52c0,1.93-.48,3.52-1.81,4.31-7.8-8.54-14.2-7.91-18.09-16.07.51,2.05,1.77,7.09,2,7.71,2.79,2.69,15.41,11.63,15.41,11.63l4.85,0A26.75,26.75,0,0,0,227,63.52Z"/>
                <path class="fe6f8d23-ab3f-433e-8a59-bd08d78ab331" d="M224.43,71.28l-.05,0c-.12-.09-12.67-9-15.43-11.65l0-.06c-.31-.78-2.16-8.29-2.23-8.61l-.06-.23h.24C221.34,51,228.12,61.81,229.52,71l0,.21ZM209.24,59.36C212,62,223.69,70.3,224.55,70.91l4.57,0c-.47-2.79-4-19.33-22-19.79C207.4,52.37,208.93,58.52,209.24,59.36Z"/>
              </g>
            </g>
            <g>
              <path class="b89ee43a-315c-4511-a51d-2d2913aaa0ef" d="M224.57,71.25c-3.5-5.4-15.49-11.74-15.49-11.74s-9.42,7.84-11,8.89c.06,2-.93,20.2-.93,20.2,1.55,1.06,9.7,7.16,12,9.54,2.32-1.48,9.94-6.41,11-7.8C222.28,86.39,226.23,75.23,224.57,71.25ZM222.77,76c0,3.43-4.77,14.38-12.21,15.49-3.71.75-7.43-2.23-8.55-5.57-2-7-1.61-14.59-.43-16.48,2.17-3.47,5.89-6.74,8.93-6C212.9,64.07,222.71,71.22,222.77,76Z"/>
              <path class="fe6f8d23-ab3f-433e-8a59-bd08d78ab331" d="M209.05,98.38l-.11-.11c-2.25-2.37-10.34-8.44-11.93-9.51l-.08-.06v-.11c0-.18,1-18.17.93-20.18V68.3l.09,0c1.58-1,10.91-8.8,11-8.88l.09-.08.11.06c.5.26,12.08,6.42,15.56,11.8,1.77,4.23-2.42,15.57-4.51,19.28-1,1.38-8.05,6-11,7.87Zm-11.74-9.87c1.75,1.21,9.43,7,11.8,9.4,2.45-1.58,9.81-6.35,10.78-7.68,2.17-3.84,6.14-15,4.51-18.91-3.25-5-14.09-10.93-15.3-11.59-1,.86-9.13,7.59-10.86,8.77C198.27,70.88,197.4,86.91,197.31,88.51Z"/>
            </g>
          </g>
          <g>
            <path class="b89ee43a-315c-4511-a51d-2d2913aaa0ef" d="M198.79,68.53C193,59.36,179.2,54,179.2,54L164,65V85.69l14.47,11.46s13.82-3.16,19-7.87C199.41,81.17,199.36,71.56,198.79,68.53Zm-6.44,18.76c-3.46,2.79-8.77,5.61-13.13,5-4.76-.6-8.53-4.83-10.92-8-1.83-2.38-2.58-15.29-.68-17.63,1.69-2.06,10-8.5,12-8.94,2.2-.51,14.14,8.16,16,11.52C197.15,72.2,195.2,85,192.35,87.29Z"/>
            <path class="fe6f8d23-ab3f-433e-8a59-bd08d78ab331" d="M178.42,97.35,163.81,85.78V64.87l15.36-11.05.1,0c.14.06,13.95,5.46,19.68,14.58l0,.06c.58,3.06.64,12.64-1.3,20.84v0l0,0c-5.18,4.69-19,7.88-19.1,7.91ZM164.18,85.6,178.51,97c1.18-.28,13.89-3.36,18.81-7.77,1.91-8.1,1.86-17.52,1.3-20.58-5.43-8.61-18.18-13.88-19.39-14.36l-15,10.82Z"/>
          </g>
          <g>
            <path class="b89ee43a-315c-4511-a51d-2d2913aaa0ef" d="M143.71,57.81c-5,2.6-11,12.73-11,12.73s5.39,8.33,7.06,14c4.74,3.72,14.13,8.46,15.06,8.37,3-2.79,9.2-7.25,9.2-7.25V65S152,58.27,143.71,57.81Zm16.76,26.11c-3.29,4.41-11.34,3.54-14.45,1.82C141.63,83.29,138.1,75,137.76,72c-.49-4.21,3.84-9.41,7.09-10.62,2.57-1,11.09,2,15.11,5.12C161.44,67.69,162.17,81.64,160.47,83.92Z"/>
            <path class="fe6f8d23-ab3f-433e-8a59-bd08d78ab331" d="M154.77,93.13c-1.19,0-10.5-4.77-15.14-8.41l0,0,0-.05c-1.64-5.61-7-13.9-7-14l-.06-.1.06-.1c.25-.42,6.17-10.21,11.1-12.81l0,0h.06c8.25.46,20.25,7.11,20.37,7.18l.09,0V85.79l-.07,0c-.07,0-6.25,4.49-9.19,7.24l0,0ZM139.9,84.47c4.67,3.64,13.64,8.16,14.83,8.28,2.78-2.6,8.36-6.63,9.08-7.16V65.07c-1.14-.62-12.29-6.62-20.06-7.07-4.58,2.44-10.21,11.5-10.85,12.54C133.5,71.5,138.32,79.14,139.9,84.47Z"/>
          </g>
        </g>
        <g>
          <path class="e27eabbe-a13e-43e2-bc7e-d9bd6922fe23" d="M81,147.64c-2.29.57-5.39,7.06-4.56,8.78s10.59.38,11.27-1.58S85.58,146.49,81,147.64Z"/>
          <path class="e6b1a898-5aae-4a0d-88df-6af54c45039a" d="M81.85,147.51a4.19,4.19,0,0,1,1.94,5.66c-1.2,2.11-4.11,3.53-5.79,4,3,.43,9.18-.73,9.71-2.28C88.34,153,85.93,147.29,81.85,147.51Z"/>
          <path class="b95adb73-786b-4d86-bebd-e267d7251aa5" d="M79.43,157.4c-1.24,0-2.79-.16-3.15-.9-.46-.95.16-3,.9-4.57.86-1.84,2.37-4.12,3.77-4.47,2-.51,4,.4,5.49,2.45,1.2,1.69,1.83,3.88,1.45,5C87.37,156.4,82.46,157.4,79.43,157.4Zm2.65-9.71a4.17,4.17,0,0,0-1,.13c-1.19.3-2.63,2.36-3.52,4.27s-1.24,3.57-.91,4.25c.21.43,1.27.68,2.82.68,3.23,0,7.69-1.05,8.11-2.24.3-.87-.15-2.89-1.4-4.65A5.26,5.26,0,0,0,82.08,147.69Z"/>
        </g>
        <path class="ad278164-c1a5-494c-a1dc-9568f8fa6386" d="M194.37,140.53c.28,2.12-2.16,4.28-7.13,4.93s-12.74.71-13-1.41c-.11-.88-.06-3.33,1.44-4.36,2.14-1.46,8.66-1.07,11.58-1.45C192.21,137.59,194.09,138.41,194.37,140.53Z"/>
        <path class="ad278164-c1a5-494c-a1dc-9568f8fa6386" d="M248.41,120.65c.59,1-.86,3-3.23,4.32s-4.77,1.6-5.36.56.86-3,3.23-4.32S247.82,119.62,248.41,120.65Z"/>
        <path class="ad278164-c1a5-494c-a1dc-9568f8fa6386" d="M236.3,127.13c.39,1.13-1.39,2.76-4,3.64s-5,.69-5.38-.44,1.4-2.76,4-3.64S235.92,126,236.3,127.13Z"/>
      </g>
      <path class="b0fbe1fe-4ecd-4c9f-9df7-3cdfc34dd366" d="M27.13,65.82s16.1-4,15-16.81h-.73s2.5,10.45-14.9,16.39Z"/>
      <path class="b0fbe1fe-4ecd-4c9f-9df7-3cdfc34dd366" d="M36.68,48.12s7-1.38,8.51,5A10.58,10.58,0,0,0,36.68,48.12Z"/>
    </g>
  </g>
</svg>
