<svg xmlns="http://www.w3.org/2000/svg" xmlns:xlink="http://www.w3.org/1999/xlink" width="174" height="174" viewBox="0 0 174 174">
  <defs>
    <style>
      .ac8d9496-56cc-4f52-94e1-07f420103d45 {
        isolation: isolate;
      }

      .fe3876d2-45d4-467a-a696-4b2074a6bf1f {
        opacity: 0.5;
      }

      .e0a70fc4-7342-4db0-984b-e90c0d1542d6 {
        fill: #8d04af;
      }

      .a398b7ec-3d51-4f29-8118-970692716de9 {
        fill: #c638f4;
      }

      .aa53d026-45b8-4763-a49b-54aec82683ef {
        fill: #890370;
        opacity: 0.33;
      }

      .b374be22-747e-4c10-80e4-f9c9f18604a2, .f48195d2-c314-4c54-8bd1-1703e5fea91e {
        fill: #ff8af1;
      }

      .f48195d2-c314-4c54-8bd1-1703e5fea91e {
        opacity: 0.19;
      }

      .bafecdca-7095-4c30-9d81-825273f22f7a {
        fill: #f1ff8f;
        opacity: 0.2;
        mix-blend-mode: lighten;
      }

      .be8a118e-3612-422c-88bb-6398f8443b2c {
        fill: url(#a3020022-4290-45e8-99a5-afab88652eb3);
      }

      .fe8b81d7-fe46-4a15-bd47-6d7e8f798962 {
        fill: #720082;
      }

      .b374be22-747e-4c10-80e4-f9c9f18604a2 {
        opacity: 0.22;
      }

      .b49fb97c-a67c-4571-a2fd-14f05db00dfb {
        fill: #fff;
      }

      .bfc04954-a383-41e5-b4aa-8ebc9b059a1a {
        fill: #f2ea55;
        opacity: 0.44;
      }

      .a3d97827-25b8-4f5d-bb06-03ca3ea695c1 {
        opacity: 0.6;
      }

      .f65a6221-52d8-4dcd-a1fd-911408c20d5a {
        fill: #ff0;
      }
    </style>
    <linearGradient id="a3020022-4290-45e8-99a5-afab88652eb3" x1="85.52" y1="165.54" x2="85.96" y2="3.87" gradientUnits="userSpaceOnUse">
      <stop offset="0" stop-color="#ff5e0b"/>
      <stop offset="1" stop-color="#ff420a"/>
    </linearGradient>
  </defs>
  <g class="ac8d9496-56cc-4f52-94e1-07f420103d45">
    <g id="baf3bcc9-9624-4f5d-8970-b5033ee2758f" data-name="Layer 1">
      <g>
        <rect class="fe3876d2-45d4-467a-a696-4b2074a6bf1f" x="9.5" y="10.76" width="157.52" height="157.52" rx="33.84"/>
        <g>
          <rect class="e0a70fc4-7342-4db0-984b-e90c0d1542d6" x="6.98" y="5.72" width="157.52" height="157.52" rx="33.84"/>
          <rect class="a398b7ec-3d51-4f29-8118-970692716de9" x="8.78" y="7.52" width="153.92" height="153.92" rx="33.07"/>
          <path class="aa53d026-45b8-4763-a49b-54aec82683ef" d="M152.73,136.6c-3.39,4.22-7.19,11-13.11,14.8s-25.38,4.65-52,3.38-34.68.85-46.53-1.27-17.34-10.15-24.53-21.57c-3.19-5.06-5.79-4.3-7.71-1.89a33.07,33.07,0,0,0,33,31.39h87.78A33.08,33.08,0,0,0,162,135.38C160.59,130.34,155.15,133.57,152.73,136.6Z"/>
          <path class="f48195d2-c314-4c54-8bd1-1703e5fea91e" d="M129.63,7.52H41.85A33.08,33.08,0,0,0,8.78,40.59v60C23,92.18,75.81,67.11,162.7,98.8V40.59A33.08,33.08,0,0,0,129.63,7.52Z"/>
          <path class="bafecdca-7095-4c30-9d81-825273f22f7a" d="M129.63,7.52H41.85A33.06,33.06,0,0,0,13.33,23.86a14.46,14.46,0,0,0-.14,7.32c2.52,10.09,5.77-9,18.38-13.69s24.15-3.61,67-3.25,47.57,4.33,53.34,15.14C157,38.92,159.87,45.93,162.7,41v-.41A33.08,33.08,0,0,0,129.63,7.52Z"/>
          <rect class="be8a118e-3612-422c-88bb-6398f8443b2c" x="20.59" y="19.34" width="130.29" height="130.29" rx="27.99"/>
          <rect class="fe8b81d7-fe46-4a15-bd47-6d7e8f798962" x="18.43" y="17.18" width="134.62" height="134.62" rx="28.92"/>
          <rect class="e0a70fc4-7342-4db0-984b-e90c0d1542d6" x="20.59" y="19.34" width="130.29" height="130.29" rx="27.99"/>
          <rect class="b374be22-747e-4c10-80e4-f9c9f18604a2" x="24.3" y="24.76" width="122.87" height="122.87" rx="26.4"/>
          <path class="b49fb97c-a67c-4571-a2fd-14f05db00dfb" d="M134.81,10.3c0,.57-17.43,1-38.93,1S57,10.87,57,10.3s17.43-1,38.93-1S134.81,9.72,134.81,10.3Z"/>
          <path class="b49fb97c-a67c-4571-a2fd-14f05db00dfb" d="M140.85,10.82c0,.52-.93.93-2.08.93s-2.08-.41-2.08-.93.93-.94,2.08-.94S140.85,10.3,140.85,10.82Z"/>
          <path class="aa53d026-45b8-4763-a49b-54aec82683ef" d="M162.5,132c-5.2,14-13.45,22.85-22.53,24.61-12.78,2.47-73.79,5.36-101.82,1.65-17.4-2.3-25.59-17-29.3-27.8a33.07,33.07,0,0,0,33,31h87.78A33.06,33.06,0,0,0,162.5,132Z"/>
          <path class="bfc04954-a383-41e5-b4aa-8ebc9b059a1a" d="M117.29,154.38c0,1.11-13.51,2-30.18,2s-30.17-.91-30.17-2,13.51-2,30.17-2S117.29,153.26,117.29,154.38Z"/>
        </g>
        <g>
          <path class="a3d97827-25b8-4f5d-bb06-03ca3ea695c1" d="M101.27,90.41a22.61,22.61,0,0,0,8.25-5.93l.09-.1a25.83,25.83,0,0,0,6.06-17,25.83,25.83,0,0,0-6.06-17l-.13-.15a24.71,24.71,0,0,0-18.23-8.06H65.45a8.81,8.81,0,0,0-2.74.41,7.12,7.12,0,0,0-3.92,3,7.9,7.9,0,0,0-1.16,4.29V121a8.1,8.1,0,0,0,.46,2.76,7,7,0,0,0,3.15,3.73,8.19,8.19,0,0,0,4,1,8,8,0,0,0,5.29-1.76,7,7,0,0,0,2-2.73,7.81,7.81,0,0,0,.52-2.85V99.82l26.24,26.39h0a7.73,7.73,0,0,0,5.49,2.38h.41a8.21,8.21,0,0,0,4.92-2l.52-.52a9.08,9.08,0,0,0,2.16-4.07,6.37,6.37,0,0,0,.13-1.3,6.49,6.49,0,0,0-.94-3.35,8.28,8.28,0,0,0-1.67-2l0,0-26.18-23H91A26.34,26.34,0,0,0,101.27,90.41ZM90.7,57.46c3.31.18,5.15,1.1,6.87,3a10.08,10.08,0,0,1,2.34,6.93,9.78,9.78,0,0,1-2.3,6.88l-.07.09a7.06,7.06,0,0,1-2.66,2,10.22,10.22,0,0,1-4,.72H72.93L73,57.46ZM103.51,123h0l0,0Z"/>
          <path class="f65a6221-52d8-4dcd-a1fd-911408c20d5a" d="M99.46,88.6a22.61,22.61,0,0,0,8.25-5.93l.09-.11a25.79,25.79,0,0,0,6.06-17,25.83,25.83,0,0,0-6.06-17l-.13-.15a24.71,24.71,0,0,0-18.23-8.06H63.63a8.79,8.79,0,0,0-2.73.41,7.15,7.15,0,0,0-3.92,3,8.06,8.06,0,0,0-1.17,4.3v71.09a8.38,8.38,0,0,0,.47,2.76,6.89,6.89,0,0,0,3.15,3.73,8.82,8.82,0,0,0,9.31-.79,6.85,6.85,0,0,0,2-2.73,7.63,7.63,0,0,0,.53-2.85V98L97.46,124.4h0a7.77,7.77,0,0,0,5.5,2.38h.41a8.27,8.27,0,0,0,4.92-2l.52-.52a9,9,0,0,0,2.15-4.07,5.75,5.75,0,0,0,.14-1.3,6.56,6.56,0,0,0-.94-3.35,8.54,8.54,0,0,0-1.68-2l0,0-26.18-23h6.92A26.33,26.33,0,0,0,99.46,88.6Zm-10.57-33c3.31.19,5.15,1.11,6.87,3a10.11,10.11,0,0,1,2.34,6.93,9.8,9.8,0,0,1-2.3,6.88l-.08.09a7,7,0,0,1-2.66,2,10.13,10.13,0,0,1-4,.72H71.12l.08-19.61Zm12.81,65.53h0l0,0Z"/>
        </g>
      </g>
    </g>
  </g>
</svg>
