<svg xmlns="http://www.w3.org/2000/svg" xmlns:xlink="http://www.w3.org/1999/xlink" width="174" height="174" viewBox="0 0 174 174">
  <defs>
    <style>
      .e017a9c9-d4ae-44c1-a159-99c08107c732 {
        isolation: isolate;
      }

      .b9931064-99dd-4b33-a1d1-e16b84794576 {
        opacity: 0.5;
      }

      .a1e8ae0b-8cad-41a1-9008-024cd30f94f5 {
        fill: #8d04af;
      }

      .f9e93c08-e479-46dc-9798-b60fccf948ac {
        fill: #c638f4;
      }

      .ad2ee384-aaf1-4595-b00a-0b0a0125fc92 {
        fill: #890370;
        opacity: 0.33;
      }

      .bfc0d082-9539-49d0-8554-29342d54c59f, .eef8a856-304b-4150-8b9f-ddb71f185683 {
        fill: #ff8af1;
      }

      .bfc0d082-9539-49d0-8554-29342d54c59f {
        opacity: 0.19;
      }

      .ff72e9d6-6950-4103-ae09-d3e729842285 {
        fill: #f1ff8f;
        opacity: 0.2;
        mix-blend-mode: lighten;
      }

      .b6b2ddcf-9902-4296-b566-16a4ebcff144 {
        fill: url(#f489f737-6005-48c3-8385-9b32f55beb2d);
      }

      .fa284016-53dc-46c8-b650-78019ad48487 {
        fill: #720082;
      }

      .eef8a856-304b-4150-8b9f-ddb71f185683 {
        opacity: 0.22;
      }

      .f802a574-cb10-4750-9d91-a0677d824e3b {
        fill: #fff;
      }

      .fd81f887-9099-486d-bf49-11722d139854 {
        fill: #f2ea55;
        opacity: 0.44;
      }

      .ff2bff1d-21bf-4b78-ae90-bd9eb0192482 {
        opacity: 0.6;
      }

      .a8edc2a9-2870-4605-b25b-d652cce0d52f {
        fill: #ff0;
      }
    </style>
    <linearGradient id="f489f737-6005-48c3-8385-9b32f55beb2d" x1="85.52" y1="165.54" x2="85.96" y2="3.87" gradientUnits="userSpaceOnUse">
      <stop offset="0" stop-color="#ff5e0b"/>
      <stop offset="1" stop-color="#ff420a"/>
    </linearGradient>
  </defs>
  <g class="e017a9c9-d4ae-44c1-a159-99c08107c732">
    <g id="fc32bf56-3215-4ee0-b9b4-1af3a9ccd293" data-name="Layer 1">
      <g>
        <rect class="b9931064-99dd-4b33-a1d1-e16b84794576" x="9.5" y="10.76" width="157.52" height="157.52" rx="33.84"/>
        <g>
          <rect class="a1e8ae0b-8cad-41a1-9008-024cd30f94f5" x="6.98" y="5.72" width="157.52" height="157.52" rx="33.84"/>
          <rect class="f9e93c08-e479-46dc-9798-b60fccf948ac" x="8.78" y="7.52" width="153.92" height="153.92" rx="33.07"/>
          <path class="ad2ee384-aaf1-4595-b00a-0b0a0125fc92" d="M152.73,136.6c-3.39,4.22-7.19,11-13.11,14.8s-25.38,4.65-52,3.38-34.68.85-46.53-1.27-17.34-10.15-24.53-21.57c-3.19-5.06-5.79-4.3-7.71-1.89a33.07,33.07,0,0,0,33,31.39h87.78A33.08,33.08,0,0,0,162,135.38C160.59,130.34,155.15,133.57,152.73,136.6Z"/>
          <path class="bfc0d082-9539-49d0-8554-29342d54c59f" d="M129.63,7.52H41.85A33.08,33.08,0,0,0,8.78,40.59v60C23,92.18,75.81,67.11,162.7,98.8V40.59A33.08,33.08,0,0,0,129.63,7.52Z"/>
          <path class="ff72e9d6-6950-4103-ae09-d3e729842285" d="M129.63,7.52H41.85A33.06,33.06,0,0,0,13.33,23.86a14.46,14.46,0,0,0-.14,7.32c2.52,10.09,5.77-9,18.38-13.69s24.15-3.61,67-3.25,47.57,4.33,53.34,15.14C157,38.92,159.87,45.93,162.7,41v-.41A33.08,33.08,0,0,0,129.63,7.52Z"/>
          <rect class="b6b2ddcf-9902-4296-b566-16a4ebcff144" x="20.59" y="19.34" width="130.29" height="130.29" rx="27.99"/>
          <rect class="fa284016-53dc-46c8-b650-78019ad48487" x="18.43" y="17.18" width="134.62" height="134.62" rx="28.92"/>
          <rect class="a1e8ae0b-8cad-41a1-9008-024cd30f94f5" x="20.59" y="19.34" width="130.29" height="130.29" rx="27.99"/>
          <rect class="eef8a856-304b-4150-8b9f-ddb71f185683" x="24.3" y="24.76" width="122.87" height="122.87" rx="26.4"/>
          <path class="f802a574-cb10-4750-9d91-a0677d824e3b" d="M134.81,10.3c0,.57-17.43,1-38.93,1S57,10.87,57,10.3s17.43-1,38.93-1S134.81,9.72,134.81,10.3Z"/>
          <path class="f802a574-cb10-4750-9d91-a0677d824e3b" d="M140.85,10.82c0,.52-.93.93-2.08.93s-2.08-.41-2.08-.93.93-.94,2.08-.94S140.85,10.3,140.85,10.82Z"/>
          <path class="ad2ee384-aaf1-4595-b00a-0b0a0125fc92" d="M162.5,132c-5.2,14-13.45,22.85-22.53,24.61-12.78,2.47-73.79,5.36-101.82,1.65-17.4-2.3-25.59-17-29.3-27.8a33.07,33.07,0,0,0,33,31h87.78A33.06,33.06,0,0,0,162.5,132Z"/>
          <path class="fd81f887-9099-486d-bf49-11722d139854" d="M117.29,154.38c0,1.11-13.51,2-30.18,2s-30.17-.91-30.17-2,13.51-2,30.17-2S117.29,153.26,117.29,154.38Z"/>
        </g>
        <g>
          <path class="ff2bff1d-21bf-4b78-ae90-bd9eb0192482" d="M127.09,112.78,95.18,45.71h0a9.13,9.13,0,0,0-.9-1.55A7.29,7.29,0,0,0,91.81,42a7.06,7.06,0,0,0-1.64-.61,7.36,7.36,0,0,0-1.66-.19,7,7,0,0,0-2.15.33,7.11,7.11,0,0,0-2.75,1.64,8.77,8.77,0,0,0-1.67,2.24L46,112.59l0,.06a8.75,8.75,0,0,0-.59,1.52,7.13,7.13,0,0,0-.25,1.85,8.3,8.3,0,0,0,.42,2.69A6.75,6.75,0,0,0,48,122.09a6.93,6.93,0,0,0,2.36,1.11,8.69,8.69,0,0,0,2.25.29,7.5,7.5,0,0,0,2-.26,7.18,7.18,0,0,0,2.78-1.44,7.85,7.85,0,0,0,1.82-2.27h0L70.28,99.16h34l9.45,20A6.87,6.87,0,0,0,115,121a6.54,6.54,0,0,0,1.41,1.13,7.31,7.31,0,0,0,2.26.9,9.86,9.86,0,0,0,2.12.22,9,9,0,0,0,2.33-.29,6.94,6.94,0,0,0,1.92-.84,6.24,6.24,0,0,0,1.34-1.14,6.41,6.41,0,0,0,1.31-2.28,7.4,7.4,0,0,0,.34-2.24,7.66,7.66,0,0,0-.29-2.1A8.68,8.68,0,0,0,127.09,112.78ZM97.39,84.56H77.8L88.14,65.37Z"/>
          <path class="a8edc2a9-2870-4605-b25b-d652cce0d52f" d="M125.37,111.06,93.46,44h0a8.06,8.06,0,0,0-.89-1.54,7.32,7.32,0,0,0-2.48-2.17,6.82,6.82,0,0,0-1.63-.61,6.9,6.9,0,0,0-1.66-.2,7,7,0,0,0-2.15.34,7.14,7.14,0,0,0-2.75,1.63,8.92,8.92,0,0,0-1.68,2.25L44.32,110.87l0,0a9.19,9.19,0,0,0-.59,1.53,7.11,7.11,0,0,0-.25,1.84,8.47,8.47,0,0,0,.41,2.69A7.17,7.17,0,0,0,45,119.07a6.88,6.88,0,0,0,1.34,1.3,7.13,7.13,0,0,0,2.36,1.11,8.66,8.66,0,0,0,2.25.28,7.48,7.48,0,0,0,2-.25,7.18,7.18,0,0,0,2.78-1.44,7.85,7.85,0,0,0,1.82-2.27h0L68.56,97.44h34l9.45,20a6.67,6.67,0,0,0,1.24,1.85,6.59,6.59,0,0,0,1.41,1.14,7.46,7.46,0,0,0,2.26.9,9.79,9.79,0,0,0,2.12.22,9,9,0,0,0,2.33-.29,7.25,7.25,0,0,0,1.92-.84,6.81,6.81,0,0,0,1.34-1.14A6.47,6.47,0,0,0,126,117a7.14,7.14,0,0,0,.35-2.25,7.72,7.72,0,0,0-.3-2.1A8.16,8.16,0,0,0,125.37,111.06ZM95.66,82.84H76.07L86.42,63.65Z"/>
        </g>
      </g>
    </g>
  </g>
</svg>
