<svg id="ede97a2e-2c48-4f87-a862-1cca75e8eb39" data-name="Layer 1" xmlns="http://www.w3.org/2000/svg" width="220.83" height="222.8" viewBox="0 0 220.83 222.8">
  <defs>
    <style>
      .bb41ea3c-60da-4156-a74c-2c6d64f784d9 {
        opacity: 0.5;
      }

      .bcfb093e-69ea-401a-aed6-a0b4806f12b9 {
        fill: #ff0;
      }

      .a1652ac1-07e7-46af-8c55-7269047a5089 {
        fill: #f8319a;
      }
    </style>
  </defs>
  <g>
    <path class="bb41ea3c-60da-4156-a74c-2c6d64f784d9" d="M198.54,120.19c-7.14-3.69-15.1-4-23.4-4.17-10.53-.27-22-.9-32.2,1l-.41.6-1.42.15c.08-.39.17-.77.23-1.17a30.43,30.43,0,0,0,.27-4.23,89.84,89.84,0,0,0,26.4.6c17.74-2,38.23-11.48,46.83-27.24,10.23-18.71-6.15-29.15-26.38-25.71-7.93,1.39-14.4,6-21.05,11-8.47,6.27-17.88,12.81-24.71,20.71l.05.74c-1.37,1.37-3.25,3.14-5,5a29,29,0,0,0-3.33-4.66,83.15,83.15,0,0,0,14.36-10.67C162.07,70.35,173.36,50.82,171.3,33c-2.44-21.17-21.84-20.26-36.38-5.79-5.68,5.71-8.29,13.24-10.84,21.15-3.3,10-7.22,20.78-8.24,31.18l.46.56c-.18,1-.41,2.24-.64,3.54a28.13,28.13,0,0,0-3.67,0,82.84,82.84,0,0,0,3.46-17.67c1.81-17.85-3.22-39.85-17.22-51.38C81.63.86,67.55,15,66.59,35.52c-.33,8.08,2.93,15.36,6.51,22.86,4.47,9.56,9,20.08,15.47,28.34l.75.09c1.08,1.62,2.46,3.82,4,6A29,29,0,0,0,91,95.69a81.89,81.89,0,0,0-9.78-14.61c-11.28-14-30.37-26-48.45-24.24C11.25,59,11.16,79,25,94.29c5.45,6,12.9,8.82,20.74,11.6,9.91,3.61,20.56,7.86,31,9.12l.6-.47c2.24.45,5.33,1.16,8.37,1.59.06.58.12,1.17.21,1.74a91,91,0,0,0-27.74-1.48C40.32,118,19.64,127,10.81,142.76c-10.49,18.65,5.79,29.6,26.12,26.63,8-1.21,14.54-5.74,21.27-10.62,8.57-6.13,18.1-12.5,25.06-20.32l0-.74A97.64,97.64,0,0,0,90.78,130,29.29,29.29,0,0,0,94,133.79l-.25.16c-7.46,5.39-14.3,11.25-20.48,19.56-11.06,14.3-18.13,35.74-11.57,52.93,7.78,20.41,27.94,15.75,39.66-1.33,4.57-6.73,5.46-14.66,6.19-23,1-10.51,2.47-21.88,1-32.33l-.63-.47c-.13-2.19-.22-5.21-.56-8.15.71.17,1.43.32,2.16.43.53.07,1,.09,1.56.14,0,.06,0,.13,0,.19-.16,9.25.44,18.27,3.4,28.21,4.84,17.46,17.84,35.91,35.64,40.81,21.13,5.81,29.54-13.29,22.86-32.93-2.66-7.69-8.52-13.13-14.75-18.64-7.85-7-16.13-15-25.44-20l-.76.23c-1-.66-2.25-1.49-3.57-2.34a29,29,0,0,0,3.51-2.74,87.21,87.21,0,0,0,18.18,13.88c15.3,9.07,37.29,14.11,53.7,7.2C223.27,147.46,216.65,129.68,198.54,120.19Z"/>
    <g>
      <path class="bcfb093e-69ea-401a-aed6-a0b4806f12b9" d="M138,85.57c6.83-7.9,16.24-14.44,24.72-20.71,6.64-5,13.11-9.63,21-11,20.23-3.43,36.6,7,26.38,25.72-8.61,15.76-29.1,25.2-46.83,27.24a91.13,91.13,0,0,1-27.68-.8c-4.07-.78-8.14-1.56-8-5.94.19-4.18,7-10.26,10.45-13.74Z"/>
      <path class="bcfb093e-69ea-401a-aed6-a0b4806f12b9" d="M111.16,73.28c1-10.39,4.94-21.17,8.25-31.17C122,34.2,124.56,26.67,130.24,21c14.55-14.46,33.94-15.38,36.38,5.8,2.07,17.83-9.23,37.37-22.54,49.26A90.84,90.84,0,0,1,121,91.32c-3.77,1.71-7.55,3.42-10-.2-2.25-3.54-.23-12.4.62-17.27Z"/>
      <path class="bcfb093e-69ea-401a-aed6-a0b4806f12b9" d="M128.05,133.19c9.31,5,17.58,12.94,25.43,20,6.24,5.51,12.09,10.94,14.75,18.64,6.68,19.64-1.73,38.74-22.85,32.92-17.8-4.89-30.8-23.35-35.65-40.81-3-9.93-3.56-18.95-3.39-28.2.19-4.31.38-8.61,5-9.58,4.41-.81,11.8,4.56,16,7.26Z"/>
      <path class="bcfb093e-69ea-401a-aed6-a0b4806f12b9" d="M78.58,132.22c-7,7.81-16.48,14.19-25.06,20.32-6.73,4.88-13.28,9.41-21.26,10.62-20.33,3-36.62-8-26.12-26.64,8.83-15.71,29.51-24.74,47.33-26.37a91.08,91.08,0,0,1,27.75,1.49c4.07.89,8.14,1.78,8,6.2-.25,4.23-7.12,10.2-10.67,13.63Z"/>
      <path class="bcfb093e-69ea-401a-aed6-a0b4806f12b9" d="M103.82,143.6c1.47,10.45,0,21.82-1,32.32-.73,8.3-1.62,16.22-6.18,23C84.91,216,64.75,220.61,57,200.21c-6.56-17.19.51-38.63,11.57-52.94,6.18-8.3,13-14.16,20.48-19.55,3.54-2.42,7.08-4.83,10.55-1.73,3.24,3,3.3,12.18,3.61,17.14Z"/>
      <path class="bcfb093e-69ea-401a-aed6-a0b4806f12b9" d="M72,108.78C61.6,107.51,51,103.27,41,99.66,33.2,96.87,25.76,94,20.3,88.06,6.49,72.76,6.58,52.71,28,50.61,46.13,48.82,65.21,60.87,76.5,74.85A90.24,90.24,0,0,1,90.72,99c1.53,3.93,3,7.85-.74,10.31-3.67,2.26-12.5,0-17.36-1Z"/>
      <path class="bcfb093e-69ea-401a-aed6-a0b4806f12b9" d="M138.27,110.84c10.22-2,21.66-1.32,32.19-1,8.31.16,16.27.48,23.4,4.17,18.12,9.48,24.74,27.26,5.25,35.46-16.42,6.91-38.4,1.86-53.7-7.2A91.47,91.47,0,0,1,124,125.05c-2.75-3-5.49-6.06-2.76-9.36,2.71-3.08,11.77-3.68,16.66-4.26Z"/>
      <path class="bcfb093e-69ea-401a-aed6-a0b4806f12b9" d="M83.89,80.48c-6.46-8.25-11-18.78-15.46-28.33-3.58-7.51-6.85-14.78-6.51-22.86.95-20.57,15-34.66,31.64-21,14,11.52,19,33.52,17.21,51.38a90.23,90.23,0,0,1-6.83,27.08c-1.67,3.85-3.34,7.7-7.73,6.76-4.17-1-8.82-8.84-11.57-13Z"/>
      <path class="a1652ac1-07e7-46af-8c55-7269047a5089" d="M136.67,110.42c-2.27,16-16.54,27.16-31.88,25s-25.94-16.88-23.68-32.85,16.53-27.16,31.87-25S138.93,94.45,136.67,110.42Z"/>
    </g>
  </g>
</svg>
