<svg xmlns="http://www.w3.org/2000/svg" xmlns:xlink="http://www.w3.org/1999/xlink" width="174" height="174" viewBox="0 0 174 174">
  <defs>
    <style>
      .a9d739c1-4756-430b-a672-1be92591645d {
        isolation: isolate;
      }

      .f034e7e8-5282-41dd-8ea5-3ddb7683a22b {
        opacity: 0.5;
      }

      .b332e895-5176-4c61-9ec7-faaac47a44f4 {
        fill: #8d04af;
      }

      .b6df40f9-1952-47af-8ec6-647c52225806 {
        fill: #c638f4;
      }

      .bf3b2718-fd09-4c53-82f9-83bb579cfaca {
        fill: #890370;
        opacity: 0.33;
      }

      .af2fea87-3c87-4452-b6a9-eae888e6a1a6, .e9a7de60-8986-4a13-b7d9-390f1c26a58e {
        fill: #ff8af1;
      }

      .af2fea87-3c87-4452-b6a9-eae888e6a1a6 {
        opacity: 0.19;
      }

      .b86e968b-463f-4a97-bb78-e4ee23750b95 {
        fill: #f1ff8f;
        opacity: 0.2;
        mix-blend-mode: lighten;
      }

      .b6920bc4-07dc-4251-8f13-ff6a2c67638f {
        fill: url(#af42d9bb-cd75-4c8a-a52b-cd4fec5867f6);
      }

      .adb6d133-47b7-4fa4-a299-f56d357872ab {
        fill: #720082;
      }

      .e9a7de60-8986-4a13-b7d9-390f1c26a58e {
        opacity: 0.22;
      }

      .b0201310-bac6-4c4f-8f15-4d79ef60fc09 {
        fill: #fff;
      }

      .a0910016-3bfe-420d-8961-1a7f36c5795c {
        fill: #f2ea55;
        opacity: 0.44;
      }

      .a4966da8-b77f-44e0-b258-927c85c9e29d {
        opacity: 0.6;
      }

      .aac40280-e390-466c-abe5-ab2f06bc3499 {
        fill: #ff0;
      }
    </style>
    <linearGradient id="af42d9bb-cd75-4c8a-a52b-cd4fec5867f6" x1="85.52" y1="165.54" x2="85.96" y2="3.87" gradientUnits="userSpaceOnUse">
      <stop offset="0" stop-color="#ff5e0b"/>
      <stop offset="1" stop-color="#ff420a"/>
    </linearGradient>
  </defs>
  <g class="a9d739c1-4756-430b-a672-1be92591645d">
    <g id="e8216034-d242-415d-8bc1-c07e6e85229d" data-name="Layer 1">
      <g>
        <rect class="f034e7e8-5282-41dd-8ea5-3ddb7683a22b" x="9.5" y="10.76" width="157.52" height="157.52" rx="33.84"/>
        <g>
          <rect class="b332e895-5176-4c61-9ec7-faaac47a44f4" x="6.98" y="5.72" width="157.52" height="157.52" rx="33.84"/>
          <rect class="b6df40f9-1952-47af-8ec6-647c52225806" x="8.78" y="7.52" width="153.92" height="153.92" rx="33.07"/>
          <path class="bf3b2718-fd09-4c53-82f9-83bb579cfaca" d="M152.73,136.6c-3.39,4.22-7.19,11-13.11,14.8s-25.38,4.65-52,3.38-34.68.85-46.53-1.27-17.34-10.15-24.53-21.57c-3.19-5.06-5.79-4.3-7.71-1.89a33.07,33.07,0,0,0,33,31.39h87.78A33.08,33.08,0,0,0,162,135.38C160.59,130.34,155.15,133.57,152.73,136.6Z"/>
          <path class="af2fea87-3c87-4452-b6a9-eae888e6a1a6" d="M129.63,7.52H41.85A33.08,33.08,0,0,0,8.78,40.59v60C23,92.18,75.81,67.11,162.7,98.8V40.59A33.08,33.08,0,0,0,129.63,7.52Z"/>
          <path class="b86e968b-463f-4a97-bb78-e4ee23750b95" d="M129.63,7.52H41.85A33.06,33.06,0,0,0,13.33,23.86a14.46,14.46,0,0,0-.14,7.32c2.52,10.09,5.77-9,18.38-13.69s24.15-3.61,67-3.25,47.57,4.33,53.34,15.14C157,38.92,159.87,45.93,162.7,41v-.41A33.08,33.08,0,0,0,129.63,7.52Z"/>
          <rect class="b6920bc4-07dc-4251-8f13-ff6a2c67638f" x="20.59" y="19.34" width="130.29" height="130.29" rx="27.99"/>
          <rect class="adb6d133-47b7-4fa4-a299-f56d357872ab" x="18.43" y="17.18" width="134.62" height="134.62" rx="28.92"/>
          <rect class="b332e895-5176-4c61-9ec7-faaac47a44f4" x="20.59" y="19.34" width="130.29" height="130.29" rx="27.99"/>
          <rect class="e9a7de60-8986-4a13-b7d9-390f1c26a58e" x="24.3" y="24.76" width="122.87" height="122.87" rx="26.4"/>
          <path class="b0201310-bac6-4c4f-8f15-4d79ef60fc09" d="M134.81,10.3c0,.57-17.43,1-38.93,1S57,10.87,57,10.3s17.43-1,38.93-1S134.81,9.72,134.81,10.3Z"/>
          <path class="b0201310-bac6-4c4f-8f15-4d79ef60fc09" d="M140.85,10.82c0,.52-.93.93-2.08.93s-2.08-.41-2.08-.93.93-.94,2.08-.94S140.85,10.3,140.85,10.82Z"/>
          <path class="bf3b2718-fd09-4c53-82f9-83bb579cfaca" d="M162.5,132c-5.2,14-13.45,22.85-22.53,24.61-12.78,2.47-73.79,5.36-101.82,1.65-17.4-2.3-25.59-17-29.3-27.8a33.07,33.07,0,0,0,33,31h87.78A33.06,33.06,0,0,0,162.5,132Z"/>
          <path class="a0910016-3bfe-420d-8961-1a7f36c5795c" d="M117.29,154.38c0,1.11-13.51,2-30.18,2s-30.17-.91-30.17-2,13.51-2,30.17-2S117.29,153.26,117.29,154.38Z"/>
        </g>
        <g>
          <path class="a4966da8-b77f-44e0-b258-927c85c9e29d" d="M117.52,115.89a9.14,9.14,0,0,0-4.39-1H68.27v-67A8.56,8.56,0,0,0,67.82,45a7.36,7.36,0,0,0-3.09-3.88,8.37,8.37,0,0,0-4.1-1.22h0c-.25,0-.5,0-.76,0a8.58,8.58,0,0,0-2.81.44,7.31,7.31,0,0,0-4,3.18,8.26,8.26,0,0,0-1.13,4.32v75.27a8.69,8.69,0,0,0,.52,3,7.46,7.46,0,0,0,3.47,4,8.93,8.93,0,0,0,4.31,1h52.9a9.87,9.87,0,0,0,2.86-.39,7.68,7.68,0,0,0,4.22-3.06,8.35,8.35,0,0,0,1.34-4.66,8.75,8.75,0,0,0-.53-3.07A7.51,7.51,0,0,0,117.52,115.89Z"/>
          <path class="aac40280-e390-466c-abe5-ab2f06bc3499" d="M115.53,113.89a9.13,9.13,0,0,0-4.4-1H66.28v-67A8.66,8.66,0,0,0,65.83,43a7.44,7.44,0,0,0-3.09-3.88,8.62,8.62,0,0,0-4.11-1.22h0c-.24,0-.49,0-.75,0a9.21,9.21,0,0,0-2.82.44,7.38,7.38,0,0,0-4,3.18,8.39,8.39,0,0,0-1.13,4.33V121.1a8.75,8.75,0,0,0,.53,3,7.44,7.44,0,0,0,3.46,4,9.16,9.16,0,0,0,4.31,1h52.9a10.26,10.26,0,0,0,2.86-.4,7.74,7.74,0,0,0,4.23-3.06,8.22,8.22,0,0,0,1.33-4.65,8.72,8.72,0,0,0-.52-3.07A7.58,7.58,0,0,0,115.53,113.89Z"/>
        </g>
      </g>
    </g>
  </g>
</svg>
