<svg id="f50838d8-dbac-4d0e-9f02-027a480acf92" data-name="Layer 1" xmlns="http://www.w3.org/2000/svg" width="60" height="60" viewBox="0 0 60 60">
  <defs>
    <style>
      .abbb923b-83e6-4363-95c5-bfe563a2d4f2 {
        fill: #ff0;
      }

      .fcafb167-f494-4336-9245-56d2ec080616 {
        fill: #f8319a;
      }
    </style>
  </defs>
  <g>
    <path class="abbb923b-83e6-4363-95c5-bfe563a2d4f2" d="M38.32,23.69a41.9,41.9,0,0,1,6.87-5.75A14,14,0,0,1,51,14.87c5.62-.95,10.17,2,7.33,7.15-2.39,4.38-8.08,7-13,7.56a25.08,25.08,0,0,1-7.69-.22c-1.13-.21-2.26-.43-2.23-1.65s1.93-2.85,2.9-3.82Z"/>
    <path class="abbb923b-83e6-4363-95c5-bfe563a2d4f2" d="M30.86,20.28a41.47,41.47,0,0,1,2.29-8.66,13.9,13.9,0,0,1,3-5.88c4-4,9.43-4.27,10.11,1.61C46.84,12.3,43.7,17.73,40,21a25.08,25.08,0,0,1-6.41,4.26c-1.05.47-2.09.95-2.77-.06s-.07-3.44.17-4.8Z"/>
    <path class="abbb923b-83e6-4363-95c5-bfe563a2d4f2" d="M35.55,36.92a38.85,38.85,0,0,1,7.06,5.56c1.74,1.53,3.36,3,4.1,5.17,1.86,5.46-.48,10.77-6.35,9.15-4.94-1.36-8.55-6.49-9.9-11.34a24.78,24.78,0,0,1-.94-7.83c.05-1.2.1-2.39,1.38-2.66s3.28,1.26,4.44,2Z"/>
    <path class="abbb923b-83e6-4363-95c5-bfe563a2d4f2" d="M21.81,36.65a42,42,0,0,1-7,5.65c-1.87,1.35-3.69,2.61-5.9,3-5.65.82-10.18-2.22-7.26-7.4,2.45-4.37,8.2-6.88,13.15-7.33a25.3,25.3,0,0,1,7.71.41c1.13.25,2.26.5,2.22,1.73s-2,2.83-3,3.78Z"/>
    <path class="abbb923b-83e6-4363-95c5-bfe563a2d4f2" d="M28.82,39.81a39.18,39.18,0,0,1-.28,9c-.2,2.31-.45,4.51-1.72,6.38-3.26,4.74-8.86,6-11,.37C14,50.76,15.94,44.81,19,40.83a25.06,25.06,0,0,1,5.69-5.43c1-.67,2-1.34,2.93-.48s.92,3.38,1,4.76Z"/>
    <path class="abbb923b-83e6-4363-95c5-bfe563a2d4f2" d="M20,30.14a40,40,0,0,1-8.6-2.54C9.2,26.83,7.13,26,5.62,24.38,1.78,20.13,1.8,14.56,7.77,14c5-.5,10.32,2.85,13.46,6.73a25.39,25.39,0,0,1,3.95,6.7c.42,1.09.85,2.18-.21,2.87s-3.47,0-4.82-.27Z"/>
    <path class="abbb923b-83e6-4363-95c5-bfe563a2d4f2" d="M38.39,30.71a43,43,0,0,1,8.94-.29,14.26,14.26,0,0,1,6.5,1.16c5,2.63,6.87,7.57,1.46,9.85-4.56,1.92-10.67.52-14.92-2a25.34,25.34,0,0,1-6-4.77c-.76-.84-1.52-1.69-.76-2.6s3.27-1,4.62-1.18Z"/>
    <path class="abbb923b-83e6-4363-95c5-bfe563a2d4f2" d="M23.28,22.28A41.29,41.29,0,0,1,19,14.41c-1-2.09-1.91-4.11-1.81-6.36.26-5.71,4.17-9.63,8.79-5.82,3.88,3.2,5.28,9.31,4.78,14.27A25,25,0,0,1,28.85,24c-.46,1.07-.93,2.14-2.15,1.88s-2.45-2.45-3.21-3.6Z"/>
    <path class="fcafb167-f494-4336-9245-56d2ec080616" d="M37.94,30.59a8,8,0,0,1-8.85,6.94,8,8,0,0,1-6.58-9.12,8,8,0,0,1,8.85-6.94A8,8,0,0,1,37.94,30.59Z"/>
  </g>
</svg>
