<svg xmlns="http://www.w3.org/2000/svg" xmlns:xlink="http://www.w3.org/1999/xlink" width="174" height="174" viewBox="0 0 174 174">
  <defs>
    <style>
      .b0c9d344-defa-41ca-86bd-81a8d27bc71b {
        isolation: isolate;
      }

      .b53d135a-6402-4de2-82e8-267036c57721 {
        opacity: 0.5;
      }

      .ee6c60fe-c90f-42c5-a846-2215c93da15b {
        fill: #8d04af;
      }

      .e130a666-5037-4fa0-89c2-f3c21d7d4bae {
        fill: #c638f4;
      }

      .ade90719-fb76-45aa-bac4-ed003b93197f {
        fill: #890370;
        opacity: 0.33;
      }

      .aef7d40a-3eb2-491b-ab1a-ae82190ae1a5, .e287fcd6-1466-4718-b7dc-901f3c492054 {
        fill: #ff8af1;
      }

      .aef7d40a-3eb2-491b-ab1a-ae82190ae1a5 {
        opacity: 0.19;
      }

      .a369d7b3-7292-44e7-8de9-f8c8df07bdd4 {
        fill: #f1ff8f;
        opacity: 0.2;
        mix-blend-mode: lighten;
      }

      .a5fb403d-6963-4ebc-876b-b002c3b3e216 {
        fill: url(#b201e7ef-fec6-4b31-93f9-33cf0e800411);
      }

      .b13b8d3b-a2b0-48a9-8ef7-131cd0535b29 {
        fill: #720082;
      }

      .e287fcd6-1466-4718-b7dc-901f3c492054 {
        opacity: 0.22;
      }

      .ab1453ea-63e9-4189-8c1b-0b9234636d3e {
        fill: #fff;
      }

      .aa6c1f78-d771-4d6f-a9ee-f1116a58c931 {
        fill: #f2ea55;
        opacity: 0.44;
      }

      .a1703280-0e89-4d5d-a699-57ec105f9f32 {
        opacity: 0.6;
      }

      .e141b326-5e82-48cd-8321-bee1f9b18651 {
        fill: #ff0;
      }
    </style>
    <linearGradient id="b201e7ef-fec6-4b31-93f9-33cf0e800411" x1="85.52" y1="165.54" x2="85.96" y2="3.87" gradientUnits="userSpaceOnUse">
      <stop offset="0" stop-color="#ff5e0b"/>
      <stop offset="1" stop-color="#ff420a"/>
    </linearGradient>
  </defs>
  <g class="b0c9d344-defa-41ca-86bd-81a8d27bc71b">
    <g id="a0c90d91-5614-40cc-ba6c-aa9a1d634cbd" data-name="Layer 1">
      <g>
        <rect class="b53d135a-6402-4de2-82e8-267036c57721" x="9.5" y="10.76" width="157.52" height="157.52" rx="33.84"/>
        <g>
          <rect class="ee6c60fe-c90f-42c5-a846-2215c93da15b" x="6.98" y="5.72" width="157.52" height="157.52" rx="33.84"/>
          <rect class="e130a666-5037-4fa0-89c2-f3c21d7d4bae" x="8.78" y="7.52" width="153.92" height="153.92" rx="33.07"/>
          <path class="ade90719-fb76-45aa-bac4-ed003b93197f" d="M152.73,136.6c-3.39,4.22-7.19,11-13.11,14.8s-25.38,4.65-52,3.38-34.68.85-46.53-1.27-17.34-10.15-24.53-21.57c-3.19-5.06-5.79-4.3-7.71-1.89a33.07,33.07,0,0,0,33,31.39h87.78A33.08,33.08,0,0,0,162,135.38C160.59,130.34,155.15,133.57,152.73,136.6Z"/>
          <path class="aef7d40a-3eb2-491b-ab1a-ae82190ae1a5" d="M129.63,7.52H41.85A33.08,33.08,0,0,0,8.78,40.59v60C23,92.18,75.81,67.11,162.7,98.8V40.59A33.08,33.08,0,0,0,129.63,7.52Z"/>
          <path class="a369d7b3-7292-44e7-8de9-f8c8df07bdd4" d="M129.63,7.52H41.85A33.06,33.06,0,0,0,13.33,23.86a14.46,14.46,0,0,0-.14,7.32c2.52,10.09,5.77-9,18.38-13.69s24.15-3.61,67-3.25,47.57,4.33,53.34,15.14C157,38.92,159.87,45.93,162.7,41v-.41A33.08,33.08,0,0,0,129.63,7.52Z"/>
          <rect class="a5fb403d-6963-4ebc-876b-b002c3b3e216" x="20.59" y="19.34" width="130.29" height="130.29" rx="27.99"/>
          <rect class="b13b8d3b-a2b0-48a9-8ef7-131cd0535b29" x="18.43" y="17.18" width="134.62" height="134.62" rx="28.92"/>
          <rect class="ee6c60fe-c90f-42c5-a846-2215c93da15b" x="20.59" y="19.34" width="130.29" height="130.29" rx="27.99"/>
          <rect class="e287fcd6-1466-4718-b7dc-901f3c492054" x="24.3" y="24.76" width="122.87" height="122.87" rx="26.4"/>
          <path class="ab1453ea-63e9-4189-8c1b-0b9234636d3e" d="M134.81,10.3c0,.57-17.43,1-38.93,1S57,10.87,57,10.3s17.43-1,38.93-1S134.81,9.72,134.81,10.3Z"/>
          <path class="ab1453ea-63e9-4189-8c1b-0b9234636d3e" d="M140.85,10.82c0,.52-.93.93-2.08.93s-2.08-.41-2.08-.93.93-.94,2.08-.94S140.85,10.3,140.85,10.82Z"/>
          <path class="ade90719-fb76-45aa-bac4-ed003b93197f" d="M162.5,132c-5.2,14-13.45,22.85-22.53,24.61-12.78,2.47-73.79,5.36-101.82,1.65-17.4-2.3-25.59-17-29.3-27.8a33.07,33.07,0,0,0,33,31h87.78A33.06,33.06,0,0,0,162.5,132Z"/>
          <path class="aa6c1f78-d771-4d6f-a9ee-f1116a58c931" d="M117.29,154.38c0,1.11-13.51,2-30.18,2s-30.17-.91-30.17-2,13.51-2,30.17-2S117.29,153.26,117.29,154.38Z"/>
        </g>
        <g>
          <path class="a1703280-0e89-4d5d-a699-57ec105f9f32" d="M105.93,81l-.56-.24q-11.07-4-22.15-7.91a18,18,0,0,1-6.87-4.45,6.59,6.59,0,0,1-1.73-4.59,4.42,4.42,0,0,1,.6-2.31,8,8,0,0,1,2.41-2.43l0,0A14.94,14.94,0,0,1,86.6,56.5a30,30,0,0,1,11,1.69,9,9,0,0,1,4.82,3.94h0a8.21,8.21,0,0,0,2.46,2.77A7.2,7.2,0,0,0,109,66.15a8.59,8.59,0,0,0,2.85-.46,7.23,7.23,0,0,0,3.9-3.22,8.54,8.54,0,0,0,1.06-4.24,9.55,9.55,0,0,0-.52-3,5.34,5.34,0,0,0-.4-.92,24.31,24.31,0,0,0-11.68-10.38c-5-2.2-10.87-3.16-17.57-3.16A30.77,30.77,0,0,0,69,46.06h0a22.33,22.33,0,0,0-7.24,7.66,20.48,20.48,0,0,0-2.53,10.11,22.47,22.47,0,0,0,3.93,13,28.26,28.26,0,0,0,10.95,9l.55.24,22.12,8a18.45,18.45,0,0,1,6.94,4.42,6.23,6.23,0,0,1,1.69,4.35,12,12,0,0,1-1,5.12,8.7,8.7,0,0,1-2.78,3.37l0,0c-2.38,1.82-5.71,2.93-10.62,2.94a35.85,35.85,0,0,1-14.45-3.44,40.56,40.56,0,0,1-11.1-7.18,7.53,7.53,0,0,0-5.23-2.21,8.58,8.58,0,0,0-2.88.49,7.18,7.18,0,0,0-3.82,3.3,8.63,8.63,0,0,0-1,4.14,8.24,8.24,0,0,0,2,5.37l.36.37a54,54,0,0,0,15.48,10h0l0,0h0A49.19,49.19,0,0,0,91,130c7.51,0,14.3-1.87,19.74-5.91a24,24,0,0,0,7.58-9.17,28.15,28.15,0,0,0,2.48-12A22.28,22.28,0,0,0,116.87,90,28.49,28.49,0,0,0,105.93,81ZM71.63,50.51h0l0,0Z"/>
          <path class="e141b326-5e82-48cd-8321-bee1f9b18651" d="M104.08,79.18l-.56-.24q-11.07-4-22.15-7.91a18,18,0,0,1-6.87-4.45A6.63,6.63,0,0,1,72.77,62a4.34,4.34,0,0,1,.61-2.32,7.91,7.91,0,0,1,2.4-2.43l0,0a15,15,0,0,1,9-2.58,30,30,0,0,1,11,1.69,9,9,0,0,1,4.83,3.94h0a8,8,0,0,0,2.46,2.77,7.14,7.14,0,0,0,4.06,1.25,8.59,8.59,0,0,0,2.85-.46,7.23,7.23,0,0,0,3.9-3.22,8.44,8.44,0,0,0,1.06-4.24,9.61,9.61,0,0,0-.51-3,6.18,6.18,0,0,0-.41-.91,24.21,24.21,0,0,0-11.68-10.38c-5-2.21-10.87-3.16-17.56-3.17a30.84,30.84,0,0,0-17.6,5.29h0a22.27,22.27,0,0,0-7.25,7.66A20.5,20.5,0,0,0,57.41,62a22.39,22.39,0,0,0,3.92,13,28.17,28.17,0,0,0,11,9l.55.24,22.12,8a18.57,18.57,0,0,1,6.94,4.42,6.19,6.19,0,0,1,1.69,4.36,11.94,11.94,0,0,1-1,5.11,8.71,8.71,0,0,1-2.78,3.38l0,0c-2.38,1.82-5.71,2.93-10.62,2.94A35.52,35.52,0,0,1,74.7,109a40.72,40.72,0,0,1-11.1-7.18,7.53,7.53,0,0,0-5.23-2.2,8.06,8.06,0,0,0-2.87.49,7.1,7.1,0,0,0-3.83,3.29,8.51,8.51,0,0,0-1,4.15,8.17,8.17,0,0,0,2,5.36l.36.38a54.15,54.15,0,0,0,15.48,10h0l0,0h0a49.27,49.27,0,0,0,20.57,4.83c7.51,0,14.3-1.88,19.74-5.92a23.86,23.86,0,0,0,7.58-9.17,28.15,28.15,0,0,0,2.48-12A22.28,22.28,0,0,0,115,88.17,28.49,28.49,0,0,0,104.08,79.18ZM69.79,48.66h0l0,0Z"/>
        </g>
      </g>
    </g>
  </g>
</svg>
