<svg id="ec8894fc-a39c-4a62-a271-5337f22f91c0" data-name="Layer 1" xmlns="http://www.w3.org/2000/svg" width="60" height="60" viewBox="0 0 60 60">
  <defs>
    <style>
      .ff33d8af-b90d-4a53-819d-c03a3ee17e1e {
        fill: #59165b;
      }
    </style>
  </defs>
  <path class="ff33d8af-b90d-4a53-819d-c03a3ee17e1e" d="M53.83,31.58a14.26,14.26,0,0,0-6.5-1.16,43,43,0,0,0-8.94.29l-.12.17-.39,0c0-.11,0-.22.06-.33A7.89,7.89,0,0,0,38,29.41a24.72,24.72,0,0,0,7.33.17C50.28,29,56,26.4,58.36,22c2.84-5.2-1.71-8.1-7.33-7.15a14,14,0,0,0-5.84,3.07,41.9,41.9,0,0,0-6.87,5.75v.2c-.38.38-.9.88-1.39,1.4A8,8,0,0,0,36,24a23,23,0,0,0,4-3c3.7-3.3,6.84-8.73,6.27-13.68-.68-5.88-6.07-5.63-10.11-1.61a13.9,13.9,0,0,0-3,5.88,41.47,41.47,0,0,0-2.29,8.66l.13.15c0,.29-.12.63-.18,1a7.23,7.23,0,0,0-1,0,22.72,22.72,0,0,0,1-4.91c.5-5-.9-11.07-4.78-14.27-4.62-3.81-8.53.11-8.79,5.82-.1,2.25.81,4.27,1.81,6.36a41.29,41.29,0,0,0,4.29,7.87l.21,0c.3.45.69,1.06,1.11,1.66a7.51,7.51,0,0,0-.66.81,22.78,22.78,0,0,0-2.71-4.06C18.09,16.83,12.79,13.48,7.77,14c-6,.58-6,6.15-2.15,10.4C7.13,26,9.2,26.83,11.38,27.6A40,40,0,0,0,20,30.14l.17-.13c.62.12,1.48.32,2.33.44,0,.16,0,.32.05.48a25.22,25.22,0,0,0-7.7-.41c-4.95.45-10.7,3-13.15,7.33-2.92,5.18,1.61,8.22,7.26,7.4,2.21-.34,4-1.6,5.9-3a42,42,0,0,0,7-5.65l0-.21a23.89,23.89,0,0,0,2.1-2.14,7.48,7.48,0,0,0,.89,1.05l-.07,0A25.06,25.06,0,0,0,19,40.83c-3.08,4-5,9.93-3.22,14.71,2.16,5.67,7.76,4.37,11-.37,1.27-1.87,1.52-4.07,1.72-6.38a39.18,39.18,0,0,0,.28-9l-.18-.13c0-.61-.07-1.45-.16-2.26a6,6,0,0,0,.61.11,3,3,0,0,0,.43,0v.06a24.78,24.78,0,0,0,.94,7.83c1.35,4.85,5,10,9.9,11.34,5.87,1.62,8.21-3.69,6.35-9.15-.74-2.13-2.36-3.64-4.1-5.17a38.85,38.85,0,0,0-7.06-5.56l-.21.06-1-.65a8,8,0,0,0,1-.76,24.25,24.25,0,0,0,5,3.86c4.25,2.52,10.36,3.92,14.92,2C60.7,39.15,58.87,34.21,53.83,31.58Z"/>
</svg>
