<svg xmlns="http://www.w3.org/2000/svg" xmlns:xlink="http://www.w3.org/1999/xlink" width="174" height="174" viewBox="0 0 174 174">
  <defs>
    <style>
      .ecc7384a-f0cf-4241-afa4-4a226588a424 {
        isolation: isolate;
      }

      .ba6a937f-0158-4b61-b80d-4d63fb66c695 {
        opacity: 0.5;
      }

      .ba7f0f10-bc65-4914-b1f4-bc6797b0107f {
        fill: #8d04af;
      }

      .a294075c-a170-4a70-8539-7d61dfa37fba {
        fill: #c638f4;
      }

      .aa9f985e-6948-411b-8ecd-23b1acc726d9 {
        fill: #890370;
        opacity: 0.33;
      }

      .b99ed843-8f0e-4fda-b25d-78f8bca536b7, .e8489d9c-2847-457b-ab95-f7597da96aeb {
        fill: #ff8af1;
      }

      .e8489d9c-2847-457b-ab95-f7597da96aeb {
        opacity: 0.19;
      }

      .acfd669a-db1d-468f-85e5-d69ffe33e865 {
        fill: #f1ff8f;
        opacity: 0.2;
        mix-blend-mode: lighten;
      }

      .b71ee512-62d8-47c6-b8c1-8814421009c0 {
        fill: url(#adde963b-9983-4a4b-b84a-56650f90e66b);
      }

      .b670c77a-a1c9-412a-8978-a2c30c2d4e09 {
        fill: #720082;
      }

      .b99ed843-8f0e-4fda-b25d-78f8bca536b7 {
        opacity: 0.22;
      }

      .bf49c24e-b509-4f01-86c5-82dc79997956 {
        fill: #fff;
      }

      .b77fd55e-0e84-4850-80bf-51248aca53d5 {
        fill: #f2ea55;
        opacity: 0.44;
      }

      .f837e392-8bd8-419f-a4bd-b8ad67a51ee3 {
        opacity: 0.6;
      }

      .e4dc54ab-9c98-4e87-bbd2-16406961c313 {
        fill: #ff0;
      }
    </style>
    <linearGradient id="adde963b-9983-4a4b-b84a-56650f90e66b" x1="85.52" y1="165.54" x2="85.96" y2="3.87" gradientUnits="userSpaceOnUse">
      <stop offset="0" stop-color="#ff5e0b"/>
      <stop offset="1" stop-color="#ff420a"/>
    </linearGradient>
  </defs>
  <g class="ecc7384a-f0cf-4241-afa4-4a226588a424">
    <g id="f7570de9-2dbe-498a-8f07-6848105e76e8" data-name="Layer 1">
      <g>
        <rect class="ba6a937f-0158-4b61-b80d-4d63fb66c695" x="9.5" y="10.76" width="157.52" height="157.52" rx="33.84"/>
        <g>
          <rect class="ba7f0f10-bc65-4914-b1f4-bc6797b0107f" x="6.98" y="5.72" width="157.52" height="157.52" rx="33.84"/>
          <rect class="a294075c-a170-4a70-8539-7d61dfa37fba" x="8.78" y="7.52" width="153.92" height="153.92" rx="33.07"/>
          <path class="aa9f985e-6948-411b-8ecd-23b1acc726d9" d="M152.73,136.6c-3.39,4.22-7.19,11-13.11,14.8s-25.38,4.65-52,3.38-34.68.85-46.53-1.27-17.34-10.15-24.53-21.57c-3.19-5.06-5.79-4.3-7.71-1.89a33.07,33.07,0,0,0,33,31.39h87.78A33.08,33.08,0,0,0,162,135.38C160.59,130.34,155.15,133.57,152.73,136.6Z"/>
          <path class="e8489d9c-2847-457b-ab95-f7597da96aeb" d="M129.63,7.52H41.85A33.08,33.08,0,0,0,8.78,40.59v60C23,92.18,75.81,67.11,162.7,98.8V40.59A33.08,33.08,0,0,0,129.63,7.52Z"/>
          <path class="acfd669a-db1d-468f-85e5-d69ffe33e865" d="M129.63,7.52H41.85A33.06,33.06,0,0,0,13.33,23.86a14.46,14.46,0,0,0-.14,7.32c2.52,10.09,5.77-9,18.38-13.69s24.15-3.61,67-3.25,47.57,4.33,53.34,15.14C157,38.92,159.87,45.93,162.7,41v-.41A33.08,33.08,0,0,0,129.63,7.52Z"/>
          <rect class="b71ee512-62d8-47c6-b8c1-8814421009c0" x="20.59" y="19.34" width="130.29" height="130.29" rx="27.99"/>
          <rect class="b670c77a-a1c9-412a-8978-a2c30c2d4e09" x="18.43" y="17.18" width="134.62" height="134.62" rx="28.92"/>
          <rect class="ba7f0f10-bc65-4914-b1f4-bc6797b0107f" x="20.59" y="19.34" width="130.29" height="130.29" rx="27.99"/>
          <rect class="b99ed843-8f0e-4fda-b25d-78f8bca536b7" x="24.3" y="24.76" width="122.87" height="122.87" rx="26.4"/>
          <path class="bf49c24e-b509-4f01-86c5-82dc79997956" d="M134.81,10.3c0,.57-17.43,1-38.93,1S57,10.87,57,10.3s17.43-1,38.93-1S134.81,9.72,134.81,10.3Z"/>
          <path class="bf49c24e-b509-4f01-86c5-82dc79997956" d="M140.85,10.82c0,.52-.93.93-2.08.93s-2.08-.41-2.08-.93.93-.94,2.08-.94S140.85,10.3,140.85,10.82Z"/>
          <path class="aa9f985e-6948-411b-8ecd-23b1acc726d9" d="M162.5,132c-5.2,14-13.45,22.85-22.53,24.61-12.78,2.47-73.79,5.36-101.82,1.65-17.4-2.3-25.59-17-29.3-27.8a33.07,33.07,0,0,0,33,31h87.78A33.06,33.06,0,0,0,162.5,132Z"/>
          <path class="b77fd55e-0e84-4850-80bf-51248aca53d5" d="M117.29,154.38c0,1.11-13.51,2-30.18,2s-30.17-.91-30.17-2,13.51-2,30.17-2S117.29,153.26,117.29,154.38Z"/>
        </g>
        <g>
          <path class="f837e392-8bd8-419f-a4bd-b8ad67a51ee3" d="M118,42.8a7.25,7.25,0,0,0-3.84-2.34,10.2,10.2,0,0,0-2.68-.38,7.85,7.85,0,0,0-4.83,1.62,8.31,8.31,0,0,0-2.72,4v0L86.73,96.23,69.63,45.42l0-.08a7.82,7.82,0,0,0-2.68-3.72,7.66,7.66,0,0,0-4.54-1.47,10,10,0,0,0-2.34.31l-.13,0A9.25,9.25,0,0,0,56,42.59a7,7,0,0,0-2.23,5.15,9.43,9.43,0,0,0,.29,2.18l.12.39,25.1,74.58h0a9.35,9.35,0,0,0,2.16,3.72,7.13,7.13,0,0,0,5.1,2.15H87l.35,0A7.82,7.82,0,0,0,89.9,130a6.49,6.49,0,0,0,2.32-2,7.3,7.3,0,0,0,.94-1.56,11.72,11.72,0,0,0,.6-1.6L119,50.57h0a9.73,9.73,0,0,0,.6-3.23A7.06,7.06,0,0,0,118,42.8Z"/>
          <path class="e4dc54ab-9c98-4e87-bbd2-16406961c313" d="M116.09,40.92a7.19,7.19,0,0,0-3.84-2.33,9.79,9.79,0,0,0-2.68-.39,7.8,7.8,0,0,0-4.83,1.63,8.31,8.31,0,0,0-2.72,4v0L84.85,94.35,67.76,43.54l0-.07a7.84,7.84,0,0,0-2.68-3.73,7.53,7.53,0,0,0-4.54-1.46,9.52,9.52,0,0,0-2.33.3l-.14,0a9.27,9.27,0,0,0-3.9,2.1A7,7,0,0,0,52.5,43a6.85,6.85,0,0,0-.59,2.83A8.87,8.87,0,0,0,52.19,48l.12.39L77.42,123h0a9.2,9.2,0,0,0,2.15,3.72,7.2,7.2,0,0,0,5.1,2.16l.47,0,.34,0A7.75,7.75,0,0,0,88,128.1a6.31,6.31,0,0,0,2.32-2,7.85,7.85,0,0,0,1-1.56,14.34,14.34,0,0,0,.6-1.6L117.1,48.7h0a9.79,9.79,0,0,0,.6-3.24A7.08,7.08,0,0,0,116.09,40.92Z"/>
        </g>
      </g>
    </g>
  </g>
</svg>
