<svg xmlns="http://www.w3.org/2000/svg" xmlns:xlink="http://www.w3.org/1999/xlink" width="174" height="174" viewBox="0 0 174 174">
  <defs>
    <style>
      .e142b6c6-6d0a-402c-b6ba-2d5713a42c3f {
        isolation: isolate;
      }

      .a8f6a04b-de28-41be-b6f0-9234cf3a1b0e {
        opacity: 0.5;
      }

      .abf28057-9c21-455f-8ff5-1342e2ab015c {
        fill: #8d04af;
      }

      .ec2ba619-66d5-4e92-9a24-2e531a8af822 {
        fill: #c638f4;
      }

      .f11a3647-6034-4cfd-a11a-5c969bf50081 {
        fill: #890370;
        opacity: 0.33;
      }

      .a55f9dbe-79a3-4b7c-a366-ac72e7a38585, .edb6a3fc-de55-464b-b66c-00ff421e9209 {
        fill: #ff8af1;
      }

      .edb6a3fc-de55-464b-b66c-00ff421e9209 {
        opacity: 0.19;
      }

      .a5dc1df0-9a9b-4456-a2e8-a5bd9925cc3c {
        fill: #f1ff8f;
        opacity: 0.2;
        mix-blend-mode: lighten;
      }

      .ada4678f-3d25-4121-b382-0e703c085066 {
        fill: url(#bc32427f-c9a0-451e-a63e-eba8ca14a80b);
      }

      .fe842024-4ca0-42bf-a61a-140bc96f2fb3 {
        fill: #720082;
      }

      .a55f9dbe-79a3-4b7c-a366-ac72e7a38585 {
        opacity: 0.22;
      }

      .b6c72464-6ba7-4506-8f6c-42d8cfdc6a64 {
        fill: #fff;
      }

      .bf867c2f-d25c-4522-a411-8a7607ffe493 {
        fill: #f2ea55;
        opacity: 0.44;
      }

      .a715da33-c854-4728-9a41-9dde3c76c2a1 {
        opacity: 0.6;
      }

      .a7f6e754-3a4a-41d8-90f5-a7930ae75871 {
        fill: #ff0;
      }
    </style>
    <linearGradient id="bc32427f-c9a0-451e-a63e-eba8ca14a80b" x1="85.52" y1="165.54" x2="85.96" y2="3.87" gradientUnits="userSpaceOnUse">
      <stop offset="0" stop-color="#ff5e0b"/>
      <stop offset="1" stop-color="#ff420a"/>
    </linearGradient>
  </defs>
  <g class="e142b6c6-6d0a-402c-b6ba-2d5713a42c3f">
    <g id="e5ce5dd0-0a14-4c51-8c68-8af42fbf4d7b" data-name="Layer 1">
      <g>
        <rect class="a8f6a04b-de28-41be-b6f0-9234cf3a1b0e" x="9.5" y="10.76" width="157.52" height="157.52" rx="33.84"/>
        <g>
          <rect class="abf28057-9c21-455f-8ff5-1342e2ab015c" x="6.98" y="5.72" width="157.52" height="157.52" rx="33.84"/>
          <rect class="ec2ba619-66d5-4e92-9a24-2e531a8af822" x="8.78" y="7.52" width="153.92" height="153.92" rx="33.07"/>
          <path class="f11a3647-6034-4cfd-a11a-5c969bf50081" d="M152.73,136.6c-3.39,4.22-7.19,11-13.11,14.8s-25.38,4.65-52,3.38-34.68.85-46.53-1.27-17.34-10.15-24.53-21.57c-3.19-5.06-5.79-4.3-7.71-1.89a33.07,33.07,0,0,0,33,31.39h87.78A33.08,33.08,0,0,0,162,135.38C160.59,130.34,155.15,133.57,152.73,136.6Z"/>
          <path class="edb6a3fc-de55-464b-b66c-00ff421e9209" d="M129.63,7.52H41.85A33.08,33.08,0,0,0,8.78,40.59v60C23,92.18,75.81,67.11,162.7,98.8V40.59A33.08,33.08,0,0,0,129.63,7.52Z"/>
          <path class="a5dc1df0-9a9b-4456-a2e8-a5bd9925cc3c" d="M129.63,7.52H41.85A33.06,33.06,0,0,0,13.33,23.86a14.46,14.46,0,0,0-.14,7.32c2.52,10.09,5.77-9,18.38-13.69s24.15-3.61,67-3.25,47.57,4.33,53.34,15.14C157,38.92,159.87,45.93,162.7,41v-.41A33.08,33.08,0,0,0,129.63,7.52Z"/>
          <rect class="ada4678f-3d25-4121-b382-0e703c085066" x="20.59" y="19.34" width="130.29" height="130.29" rx="27.99"/>
          <rect class="fe842024-4ca0-42bf-a61a-140bc96f2fb3" x="18.43" y="17.18" width="134.62" height="134.62" rx="28.92"/>
          <rect class="abf28057-9c21-455f-8ff5-1342e2ab015c" x="20.59" y="19.34" width="130.29" height="130.29" rx="27.99"/>
          <rect class="a55f9dbe-79a3-4b7c-a366-ac72e7a38585" x="24.3" y="24.76" width="122.87" height="122.87" rx="26.4"/>
          <path class="b6c72464-6ba7-4506-8f6c-42d8cfdc6a64" d="M134.81,10.3c0,.57-17.43,1-38.93,1S57,10.87,57,10.3s17.43-1,38.93-1S134.81,9.72,134.81,10.3Z"/>
          <path class="b6c72464-6ba7-4506-8f6c-42d8cfdc6a64" d="M140.85,10.82c0,.52-.93.93-2.08.93s-2.08-.41-2.08-.93.93-.94,2.08-.94S140.85,10.3,140.85,10.82Z"/>
          <path class="f11a3647-6034-4cfd-a11a-5c969bf50081" d="M162.5,132c-5.2,14-13.45,22.85-22.53,24.61-12.78,2.47-73.79,5.36-101.82,1.65-17.4-2.3-25.59-17-29.3-27.8a33.07,33.07,0,0,0,33,31h87.78A33.06,33.06,0,0,0,162.5,132Z"/>
          <path class="bf867c2f-d25c-4522-a411-8a7607ffe493" d="M117.29,154.38c0,1.11-13.51,2-30.18,2s-30.17-.91-30.17-2,13.51-2,30.17-2S117.29,153.26,117.29,154.38Z"/>
        </g>
        <g>
          <path class="a715da33-c854-4728-9a41-9dde3c76c2a1" d="M118.14,43.75A7.92,7.92,0,0,0,114,42.64a8.83,8.83,0,0,0-2.73.41,7.15,7.15,0,0,0-3.86,3,8,8,0,0,0-1.11,4.22V77.83H67.11V50.29a8.63,8.63,0,0,0-.4-2.7,7.11,7.11,0,0,0-3-3.84,7.9,7.9,0,0,0-4.19-1.11,8.83,8.83,0,0,0-2.73.41,7.18,7.18,0,0,0-3.86,3,8,8,0,0,0-1.11,4.22v70.38a8.31,8.31,0,0,0,.43,2.72,7,7,0,0,0,3.06,3.77,8,8,0,0,0,4.1,1,8.9,8.9,0,0,0,2.66-.38,7.14,7.14,0,0,0,3.87-2.91,7.78,7.78,0,0,0,1.17-4.24V93.24h39.14v27.43a8.31,8.31,0,0,0,.43,2.72,7,7,0,0,0,3.06,3.77,8,8,0,0,0,4.1,1,8.94,8.94,0,0,0,2.66-.38,7.1,7.1,0,0,0,3.87-2.91,7.78,7.78,0,0,0,1.17-4.24V50.29a8.61,8.61,0,0,0-.41-2.7A7,7,0,0,0,118.14,43.75Z"/>
          <path class="a7f6e754-3a4a-41d8-90f5-a7930ae75871" d="M116.26,41.88a8,8,0,0,0-4.18-1.12,8.77,8.77,0,0,0-2.73.42,7,7,0,0,0-3.86,3,7.94,7.94,0,0,0-1.12,4.22V76H65.24V48.41a8.65,8.65,0,0,0-.41-2.7,7,7,0,0,0-3-3.83,8,8,0,0,0-4.18-1.12,8.82,8.82,0,0,0-2.73.42,7,7,0,0,0-3.86,3,8,8,0,0,0-1.12,4.22V118.8a8.21,8.21,0,0,0,.43,2.71,7,7,0,0,0,3.06,3.78,8.12,8.12,0,0,0,4.1,1,9.26,9.26,0,0,0,2.66-.39,7,7,0,0,0,3.87-2.9,7.82,7.82,0,0,0,1.18-4.24V91.37h39.13V118.8a8.21,8.21,0,0,0,.43,2.71,7,7,0,0,0,3.06,3.78,8.12,8.12,0,0,0,4.1,1,9.26,9.26,0,0,0,2.66-.39,7,7,0,0,0,3.87-2.9,7.82,7.82,0,0,0,1.18-4.24V48.41a8.65,8.65,0,0,0-.41-2.7A7,7,0,0,0,116.26,41.88Z"/>
        </g>
      </g>
    </g>
  </g>
</svg>
