<svg xmlns="http://www.w3.org/2000/svg" xmlns:xlink="http://www.w3.org/1999/xlink" width="174" height="174" viewBox="0 0 174 174">
  <defs>
    <style>
      .bc6f3a3b-5d89-477f-aa4d-ca55cf405efa {
        isolation: isolate;
      }

      .e1ee8c0a-87f5-45d3-95c9-82b25fe12a5b {
        opacity: 0.5;
      }

      .a672d79f-58bd-4df5-ab8c-507742d37a9a {
        fill: #8d04af;
      }

      .bc12d523-7655-4cca-8ae7-8151b12d6294 {
        fill: #c638f4;
      }

      .e7d459f7-cd15-4d04-af38-df83d62a955e {
        fill: #890370;
        opacity: 0.33;
      }

      .e77c4c09-06b6-49b3-ba75-0b6315234995, .e9d6e5c1-588c-442f-9d75-2cedc7469cec {
        fill: #ff8af1;
      }

      .e77c4c09-06b6-49b3-ba75-0b6315234995 {
        opacity: 0.19;
      }

      .be6db058-84c7-4636-9cf8-3d797a9f519c {
        fill: #f1ff8f;
        opacity: 0.2;
        mix-blend-mode: lighten;
      }

      .e053a216-43f7-4e65-af50-903f00066a4e {
        fill: url(#a2c02b7b-6a43-4a63-ab9d-ff51dbc2a772);
      }

      .f2aeac4a-e9e7-4361-9868-0ff511f50778 {
        fill: #720082;
      }

      .e9d6e5c1-588c-442f-9d75-2cedc7469cec {
        opacity: 0.22;
      }

      .bc554a7e-26e3-4951-9941-2a8f317135be {
        fill: #fff;
      }

      .f795bc65-b101-4a0c-a1f7-11abc42d5701 {
        fill: #f2ea55;
        opacity: 0.44;
      }

      .ba133470-9a0b-4011-8fce-76692386a2fa {
        opacity: 0.6;
      }

      .fda56471-cdb2-4fd3-b7f3-fe9d31c011d9 {
        fill: #ff0;
      }
    </style>
    <linearGradient id="a2c02b7b-6a43-4a63-ab9d-ff51dbc2a772" x1="85.52" y1="165.54" x2="85.96" y2="3.87" gradientUnits="userSpaceOnUse">
      <stop offset="0" stop-color="#ff5e0b"/>
      <stop offset="1" stop-color="#ff420a"/>
    </linearGradient>
  </defs>
  <g class="bc6f3a3b-5d89-477f-aa4d-ca55cf405efa">
    <g id="a91d1cf1-251a-4760-96f8-7c405b18555a" data-name="Layer 1">
      <g>
        <rect class="e1ee8c0a-87f5-45d3-95c9-82b25fe12a5b" x="9.5" y="10.76" width="157.52" height="157.52" rx="33.84"/>
        <g>
          <rect class="a672d79f-58bd-4df5-ab8c-507742d37a9a" x="6.98" y="5.72" width="157.52" height="157.52" rx="33.84"/>
          <rect class="bc12d523-7655-4cca-8ae7-8151b12d6294" x="8.78" y="7.52" width="153.92" height="153.92" rx="33.07"/>
          <path class="e7d459f7-cd15-4d04-af38-df83d62a955e" d="M152.73,136.6c-3.39,4.22-7.19,11-13.11,14.8s-25.38,4.65-52,3.38-34.68.85-46.53-1.27-17.34-10.15-24.53-21.57c-3.19-5.06-5.79-4.3-7.71-1.89a33.07,33.07,0,0,0,33,31.39h87.78A33.08,33.08,0,0,0,162,135.38C160.59,130.34,155.15,133.57,152.73,136.6Z"/>
          <path class="e77c4c09-06b6-49b3-ba75-0b6315234995" d="M129.63,7.52H41.85A33.08,33.08,0,0,0,8.78,40.59v60C23,92.18,75.81,67.11,162.7,98.8V40.59A33.08,33.08,0,0,0,129.63,7.52Z"/>
          <path class="be6db058-84c7-4636-9cf8-3d797a9f519c" d="M129.63,7.52H41.85A33.06,33.06,0,0,0,13.33,23.86a14.46,14.46,0,0,0-.14,7.32c2.52,10.09,5.77-9,18.38-13.69s24.15-3.61,67-3.25,47.57,4.33,53.34,15.14C157,38.92,159.87,45.93,162.7,41v-.41A33.08,33.08,0,0,0,129.63,7.52Z"/>
          <rect class="e053a216-43f7-4e65-af50-903f00066a4e" x="20.59" y="19.34" width="130.29" height="130.29" rx="27.99"/>
          <rect class="f2aeac4a-e9e7-4361-9868-0ff511f50778" x="18.43" y="17.18" width="134.62" height="134.62" rx="28.92"/>
          <rect class="a672d79f-58bd-4df5-ab8c-507742d37a9a" x="20.59" y="19.34" width="130.29" height="130.29" rx="27.99"/>
          <rect class="e9d6e5c1-588c-442f-9d75-2cedc7469cec" x="24.3" y="24.76" width="122.87" height="122.87" rx="26.4"/>
          <path class="bc554a7e-26e3-4951-9941-2a8f317135be" d="M134.81,10.3c0,.57-17.43,1-38.93,1S57,10.87,57,10.3s17.43-1,38.93-1S134.81,9.72,134.81,10.3Z"/>
          <path class="bc554a7e-26e3-4951-9941-2a8f317135be" d="M140.85,10.82c0,.52-.93.93-2.08.93s-2.08-.41-2.08-.93.93-.94,2.08-.94S140.85,10.3,140.85,10.82Z"/>
          <path class="e7d459f7-cd15-4d04-af38-df83d62a955e" d="M162.5,132c-5.2,14-13.45,22.85-22.53,24.61-12.78,2.47-73.79,5.36-101.82,1.65-17.4-2.3-25.59-17-29.3-27.8a33.07,33.07,0,0,0,33,31h87.78A33.06,33.06,0,0,0,162.5,132Z"/>
          <path class="f795bc65-b101-4a0c-a1f7-11abc42d5701" d="M117.29,154.38c0,1.11-13.51,2-30.18,2s-30.17-.91-30.17-2,13.51-2,30.17-2S117.29,153.26,117.29,154.38Z"/>
        </g>
        <g>
          <path class="ba133470-9a0b-4011-8fce-76692386a2fa" d="M118.59,117.07a8.07,8.07,0,0,0-2.2-2.38l0,0L74.83,85.49,116.4,56.18l.1-.07a8,8,0,0,0,2.18-2.57,7.5,7.5,0,0,0,.87-3.5,9.06,9.06,0,0,0-.44-2.81A7.24,7.24,0,0,0,116,43.31a8.34,8.34,0,0,0-4.29-1.12,7.83,7.83,0,0,0-4.52,1.55L69.27,70.51V49.93a8.1,8.1,0,0,0-.41-2.62,7.18,7.18,0,0,0-2.72-3.64,8.07,8.07,0,0,0-3.69-1.32h-.1a10.23,10.23,0,0,0-1.13-.07,8,8,0,0,0-2.77.48,6.89,6.89,0,0,0-3.7,3.19,8.22,8.22,0,0,0-.94,4v71a8.24,8.24,0,0,0,.42,2.68,7.07,7.07,0,0,0,2.91,3.74,8.13,8.13,0,0,0,4,1.19h.48a8.65,8.65,0,0,0,2.7-.41,7.06,7.06,0,0,0,3.85-3,7.88,7.88,0,0,0,1.12-4.2V100.46l37.94,26.7,0,0a7.73,7.73,0,0,0,4.53,1.55,7.6,7.6,0,0,0,4.21-1.21,7.72,7.72,0,0,0,2.72-3.12,7.81,7.81,0,0,0,1-3.67A7.12,7.12,0,0,0,118.59,117.07Z"/>
          <path class="fda56471-cdb2-4fd3-b7f3-fe9d31c011d9" d="M116.68,115.16a8.34,8.34,0,0,0-2.2-2.38l0,0L72.91,83.58l41.58-29.31.09-.08a8,8,0,0,0,2.19-2.56,7.42,7.42,0,0,0,.86-3.5,8.74,8.74,0,0,0-.43-2.81,7.2,7.2,0,0,0-3.12-3.92,8.16,8.16,0,0,0-4.3-1.12,7.81,7.81,0,0,0-4.52,1.55L67.36,68.6V48A8.37,8.37,0,0,0,67,45.4a7.06,7.06,0,0,0-2.73-3.64,8,8,0,0,0-3.68-1.32h-.1a10.23,10.23,0,0,0-1.13-.07,8,8,0,0,0-2.78.47A6.92,6.92,0,0,0,52.84,44a8.34,8.34,0,0,0-1,4v71a8.86,8.86,0,0,0,.42,2.68,7.08,7.08,0,0,0,2.92,3.73,8,8,0,0,0,4,1.2h.47a8.71,8.71,0,0,0,2.71-.41,7.06,7.06,0,0,0,3.85-3,8.07,8.07,0,0,0,1.12-4.2V98.55l37.93,26.7,0,0a7.58,7.58,0,0,0,11.47-2.78,7.93,7.93,0,0,0,1-3.67A7.09,7.09,0,0,0,116.68,115.16Z"/>
        </g>
      </g>
    </g>
  </g>
</svg>
