<svg xmlns="http://www.w3.org/2000/svg" xmlns:xlink="http://www.w3.org/1999/xlink" width="174" height="174" viewBox="0 0 174 174">
  <defs>
    <style>
      .a51221d1-7993-4e0c-89c7-24fa56fcac51 {
        isolation: isolate;
      }

      .ab9288f5-b5e2-4fe6-92f9-46a2bbe0d33c {
        opacity: 0.5;
      }

      .eb10b108-bc7f-497e-b6d7-eac09d3e17ec {
        fill: #8d04af;
      }

      .fd05e503-613d-4684-bfcb-310edefb2809 {
        fill: #c638f4;
      }

      .aaecd8a7-0834-4570-9205-712e6de1e980 {
        fill: #890370;
        opacity: 0.33;
      }

      .b27513ad-2e1b-4059-8c2c-37e21d065307, .f8a180c9-9ee2-4549-b573-b10787a38e72 {
        fill: #ff8af1;
      }

      .b27513ad-2e1b-4059-8c2c-37e21d065307 {
        opacity: 0.19;
      }

      .a3115f56-b884-4c8e-828e-6d2cb8985279 {
        fill: #f1ff8f;
        opacity: 0.2;
        mix-blend-mode: lighten;
      }

      .e36a5c79-6da2-4281-82b4-7f044d83ca49 {
        fill: url(#a27467c4-51d5-4700-8f53-2c41f5609f1a);
      }

      .b023c1e2-b108-400b-a107-981e9e29a654 {
        fill: #720082;
      }

      .f8a180c9-9ee2-4549-b573-b10787a38e72 {
        opacity: 0.22;
      }

      .b20a769c-48b4-4126-8d1a-d19f0ea53b6b {
        fill: #fff;
      }

      .b112163d-25d7-45ef-b60c-92b3e92d13af {
        fill: #f2ea55;
        opacity: 0.44;
      }

      .e6e9d995-affe-4d7b-9f09-cf054f6c34f3 {
        opacity: 0.6;
      }

      .b92ee3ab-d5a5-443b-8e3c-8daedbec3d2b {
        fill: #ff0;
      }
    </style>
    <linearGradient id="a27467c4-51d5-4700-8f53-2c41f5609f1a" x1="85.52" y1="165.54" x2="85.96" y2="3.87" gradientUnits="userSpaceOnUse">
      <stop offset="0" stop-color="#ff5e0b"/>
      <stop offset="1" stop-color="#ff420a"/>
    </linearGradient>
  </defs>
  <g class="a51221d1-7993-4e0c-89c7-24fa56fcac51">
    <g id="ad2677bb-00fb-4e0a-9b0f-3a6597a786b6" data-name="Layer 1">
      <g>
        <rect class="ab9288f5-b5e2-4fe6-92f9-46a2bbe0d33c" x="9.5" y="10.76" width="157.52" height="157.52" rx="33.84"/>
        <g>
          <rect class="eb10b108-bc7f-497e-b6d7-eac09d3e17ec" x="6.98" y="5.72" width="157.52" height="157.52" rx="33.84"/>
          <rect class="fd05e503-613d-4684-bfcb-310edefb2809" x="8.78" y="7.52" width="153.92" height="153.92" rx="33.07"/>
          <path class="aaecd8a7-0834-4570-9205-712e6de1e980" d="M152.73,136.6c-3.39,4.22-7.19,11-13.11,14.8s-25.38,4.65-52,3.38-34.68.85-46.53-1.27-17.34-10.15-24.53-21.57c-3.19-5.06-5.79-4.3-7.71-1.89a33.07,33.07,0,0,0,33,31.39h87.78A33.08,33.08,0,0,0,162,135.38C160.59,130.34,155.15,133.57,152.73,136.6Z"/>
          <path class="b27513ad-2e1b-4059-8c2c-37e21d065307" d="M129.63,7.52H41.85A33.08,33.08,0,0,0,8.78,40.59v60C23,92.18,75.81,67.11,162.7,98.8V40.59A33.08,33.08,0,0,0,129.63,7.52Z"/>
          <path class="a3115f56-b884-4c8e-828e-6d2cb8985279" d="M129.63,7.52H41.85A33.06,33.06,0,0,0,13.33,23.86a14.46,14.46,0,0,0-.14,7.32c2.52,10.09,5.77-9,18.38-13.69s24.15-3.61,67-3.25,47.57,4.33,53.34,15.14C157,38.92,159.87,45.93,162.7,41v-.41A33.08,33.08,0,0,0,129.63,7.52Z"/>
          <rect class="e36a5c79-6da2-4281-82b4-7f044d83ca49" x="20.59" y="19.34" width="130.29" height="130.29" rx="27.99"/>
          <rect class="b023c1e2-b108-400b-a107-981e9e29a654" x="18.43" y="17.18" width="134.62" height="134.62" rx="28.92"/>
          <rect class="eb10b108-bc7f-497e-b6d7-eac09d3e17ec" x="20.59" y="19.34" width="130.29" height="130.29" rx="27.99"/>
          <rect class="f8a180c9-9ee2-4549-b573-b10787a38e72" x="24.3" y="24.76" width="122.87" height="122.87" rx="26.4"/>
          <path class="b20a769c-48b4-4126-8d1a-d19f0ea53b6b" d="M134.81,10.3c0,.57-17.43,1-38.93,1S57,10.87,57,10.3s17.43-1,38.93-1S134.81,9.72,134.81,10.3Z"/>
          <path class="b20a769c-48b4-4126-8d1a-d19f0ea53b6b" d="M140.85,10.82c0,.52-.93.93-2.08.93s-2.08-.41-2.08-.93.93-.94,2.08-.94S140.85,10.3,140.85,10.82Z"/>
          <path class="aaecd8a7-0834-4570-9205-712e6de1e980" d="M162.5,132c-5.2,14-13.45,22.85-22.53,24.61-12.78,2.47-73.79,5.36-101.82,1.65-17.4-2.3-25.59-17-29.3-27.8a33.07,33.07,0,0,0,33,31h87.78A33.06,33.06,0,0,0,162.5,132Z"/>
          <path class="b112163d-25d7-45ef-b60c-92b3e92d13af" d="M117.29,154.38c0,1.11-13.51,2-30.18,2s-30.17-.91-30.17-2,13.51-2,30.17-2S117.29,153.26,117.29,154.38Z"/>
        </g>
        <g>
          <path class="e6e9d995-affe-4d7b-9f09-cf054f6c34f3" d="M113.24,54.13c-7.18-8.37-16.37-12.77-26.58-12.72S67.27,45.76,60.08,54.13s-11,18.94-11,30.74,3.76,22.43,11,30.73,16.33,12.78,26.48,12.73a33.44,33.44,0,0,0,17.71-5l3.36,3.81,0,0a6.24,6.24,0,0,0,4.68,2.33,6.69,6.69,0,0,0,2.44-.43,6.46,6.46,0,0,0,3.4-3.13,9.47,9.47,0,0,0,1-4.31,8.52,8.52,0,0,0-2-5.52l-2.14-2.47a42.9,42.9,0,0,0,6.14-10.8,48.93,48.93,0,0,0,3.18-17.87c0-11.8-3.76-22.43-11-30.74M69.59,104.72c-4.83-5.67-7.06-11.91-7.11-19.85S64.76,70.69,69.59,65s10.27-8.18,17.13-8.23,12.2,2.63,17.06,8.22,7,11.91,7.06,19.86a31.7,31.7,0,0,1-2.07,11.73,26.86,26.86,0,0,1-3.41,6.14l-2.77-3.15a6.7,6.7,0,0,0-2-1.72,5.88,5.88,0,0,0-2.73-.69,6.72,6.72,0,0,0-2.44.44,6.46,6.46,0,0,0-3.4,3.13,9.31,9.31,0,0,0-1,4.3,8.22,8.22,0,0,0,.67,3.3,8,8,0,0,0,1.5,2.29l.85,1A21.3,21.3,0,0,1,86.61,113C79.84,112.9,74.49,110.33,69.59,104.72Z"/>
          <path class="b92ee3ab-d5a5-443b-8e3c-8daedbec3d2b" d="M111.4,52.29C104.21,43.91,95,39.51,84.82,39.56s-19.4,4.35-26.58,12.73S47.19,71.22,47.23,83s3.76,22.43,11,30.74,16.33,12.78,26.48,12.73a33.32,33.32,0,0,0,17.7-5l3.36,3.82,0,0a6.29,6.29,0,0,0,4.69,2.34,6.72,6.72,0,0,0,2.44-.44,6.55,6.55,0,0,0,3.4-3.12,9.35,9.35,0,0,0,1-4.31,8.48,8.48,0,0,0-2-5.53l-2.14-2.47a42.86,42.86,0,0,0,6.14-10.8A49.14,49.14,0,0,0,122.41,83c0-11.8-3.77-22.42-11-30.73M67.75,102.87C62.91,97.2,60.68,91,60.64,83s2.27-14.18,7.11-19.85S78,55,84.87,54.94s12.2,2.63,17.06,8.22S109,75.07,109,83a31.66,31.66,0,0,1-2.07,11.73,26.9,26.9,0,0,1-3.42,6.14l-2.76-3.15a6.71,6.71,0,0,0-2-1.71A5.58,5.58,0,0,0,96,95.34a6.71,6.71,0,0,0-2.45.43,6.56,6.56,0,0,0-3.39,3.13,9.5,9.5,0,0,0-1,4.31,8.47,8.47,0,0,0,.68,3.3,7.84,7.84,0,0,0,1.5,2.29l.85,1a21.33,21.33,0,0,1-7.46,1.31C78,111.05,72.65,108.48,67.75,102.87Z"/>
        </g>
      </g>
    </g>
  </g>
</svg>
