<svg xmlns="http://www.w3.org/2000/svg" xmlns:xlink="http://www.w3.org/1999/xlink" width="174" height="174" viewBox="0 0 174 174">
  <defs>
    <style>
      .f2d068f3-f55a-4bd6-ba4b-d629a1579fdd {
        isolation: isolate;
      }

      .e8fac9f5-3f32-47a6-b2d8-b9bbd6ac024a {
        opacity: 0.5;
      }

      .ff9b13f8-70e6-42c7-ad21-293603c00af0 {
        fill: #8d04af;
      }

      .b7fa6755-2100-40c9-b313-940f645e1add {
        fill: #c638f4;
      }

      .f16b845e-8b8a-42d9-9d80-800f6cca6a06 {
        fill: #890370;
        opacity: 0.33;
      }

      .ab89897c-d47e-48a0-9cc3-398102fd2f34, .b91132f5-db34-4656-a0c6-1d34c1900442 {
        fill: #ff8af1;
      }

      .b91132f5-db34-4656-a0c6-1d34c1900442 {
        opacity: 0.19;
      }

      .fb6ef744-f9c8-4353-a971-b8c52daf0773 {
        fill: #f1ff8f;
        opacity: 0.2;
        mix-blend-mode: lighten;
      }

      .b984020a-b114-4f32-ad59-fbd34cfcc23f {
        fill: url(#a8812e14-c0e6-45b0-91bf-8095bbf9cc62);
      }

      .aa4cdd4b-0709-4772-854a-8b01c30dac30 {
        fill: #720082;
      }

      .ab89897c-d47e-48a0-9cc3-398102fd2f34 {
        opacity: 0.22;
      }

      .e9ca6160-a54e-4276-8ffd-79376a01d5ce {
        fill: #fff;
      }

      .bf14f4c9-d1c0-41ed-b187-519719fb8352 {
        fill: #f2ea55;
        opacity: 0.44;
      }

      .b67f72e1-573b-48ff-8ae4-32f0384a5a89 {
        opacity: 0.6;
      }

      .b592474b-6ce9-497c-b4d6-1e431ea0d281 {
        fill: #ff0;
      }
    </style>
    <linearGradient id="a8812e14-c0e6-45b0-91bf-8095bbf9cc62" x1="85.52" y1="165.54" x2="85.96" y2="3.87" gradientUnits="userSpaceOnUse">
      <stop offset="0" stop-color="#ff5e0b"/>
      <stop offset="1" stop-color="#ff420a"/>
    </linearGradient>
  </defs>
  <g class="f2d068f3-f55a-4bd6-ba4b-d629a1579fdd">
    <g id="b76208f3-2e8b-443e-9428-6a0aadc47ef8" data-name="Layer 1">
      <g>
        <rect class="e8fac9f5-3f32-47a6-b2d8-b9bbd6ac024a" x="9.5" y="10.76" width="157.52" height="157.52" rx="33.84"/>
        <g>
          <rect class="ff9b13f8-70e6-42c7-ad21-293603c00af0" x="6.98" y="5.72" width="157.52" height="157.52" rx="33.84"/>
          <rect class="b7fa6755-2100-40c9-b313-940f645e1add" x="8.78" y="7.52" width="153.92" height="153.92" rx="33.07"/>
          <path class="f16b845e-8b8a-42d9-9d80-800f6cca6a06" d="M152.73,136.6c-3.39,4.22-7.19,11-13.11,14.8s-25.38,4.65-52,3.38-34.68.85-46.53-1.27-17.34-10.15-24.53-21.57c-3.19-5.06-5.79-4.3-7.71-1.89a33.07,33.07,0,0,0,33,31.39h87.78A33.08,33.08,0,0,0,162,135.38C160.59,130.34,155.15,133.57,152.73,136.6Z"/>
          <path class="b91132f5-db34-4656-a0c6-1d34c1900442" d="M129.63,7.52H41.85A33.08,33.08,0,0,0,8.78,40.59v60C23,92.18,75.81,67.11,162.7,98.8V40.59A33.08,33.08,0,0,0,129.63,7.52Z"/>
          <path class="fb6ef744-f9c8-4353-a971-b8c52daf0773" d="M129.63,7.52H41.85A33.06,33.06,0,0,0,13.33,23.86a14.46,14.46,0,0,0-.14,7.32c2.52,10.09,5.77-9,18.38-13.69s24.15-3.61,67-3.25,47.57,4.33,53.34,15.14C157,38.92,159.87,45.93,162.7,41v-.41A33.08,33.08,0,0,0,129.63,7.52Z"/>
          <rect class="b984020a-b114-4f32-ad59-fbd34cfcc23f" x="20.59" y="19.34" width="130.29" height="130.29" rx="27.99"/>
          <rect class="aa4cdd4b-0709-4772-854a-8b01c30dac30" x="18.43" y="17.18" width="134.62" height="134.62" rx="28.92"/>
          <rect class="ff9b13f8-70e6-42c7-ad21-293603c00af0" x="20.59" y="19.34" width="130.29" height="130.29" rx="27.99"/>
          <rect class="ab89897c-d47e-48a0-9cc3-398102fd2f34" x="24.3" y="24.76" width="122.87" height="122.87" rx="26.4"/>
          <path class="e9ca6160-a54e-4276-8ffd-79376a01d5ce" d="M134.81,10.3c0,.57-17.43,1-38.93,1S57,10.87,57,10.3s17.43-1,38.93-1S134.81,9.72,134.81,10.3Z"/>
          <path class="e9ca6160-a54e-4276-8ffd-79376a01d5ce" d="M140.85,10.82c0,.52-.93.93-2.08.93s-2.08-.41-2.08-.93.93-.94,2.08-.94S140.85,10.3,140.85,10.82Z"/>
          <path class="f16b845e-8b8a-42d9-9d80-800f6cca6a06" d="M162.5,132c-5.2,14-13.45,22.85-22.53,24.61-12.78,2.47-73.79,5.36-101.82,1.65-17.4-2.3-25.59-17-29.3-27.8a33.07,33.07,0,0,0,33,31h87.78A33.06,33.06,0,0,0,162.5,132Z"/>
          <path class="bf14f4c9-d1c0-41ed-b187-519719fb8352" d="M117.29,154.38c0,1.11-13.51,2-30.18,2s-30.17-.91-30.17-2,13.51-2,30.17-2S117.29,153.26,117.29,154.38Z"/>
        </g>
        <g>
          <path class="b67f72e1-573b-48ff-8ae4-32f0384a5a89" d="M119,44h0a7.38,7.38,0,0,0-1.36-.13,6,6,0,0,0-4.08,1.55,7.29,7.29,0,0,0-2,3.27L86.47,102.58,61.69,48.5a7.21,7.21,0,0,0-2.27-3.27,6.26,6.26,0,0,0-3.92-1.34A8.11,8.11,0,0,0,54,44h0a6.51,6.51,0,0,0-4.09,2.53,8,8,0,0,0-1.47,4.8V119.6a8.53,8.53,0,0,0,.38,2.6,6.46,6.46,0,0,0,6,4.68h.44a6.55,6.55,0,0,0,6.52-4.45,8.24,8.24,0,0,0,.47-2.84V83.82l18,38.7,0,.07a8.44,8.44,0,0,0,2.29,3,6.14,6.14,0,0,0,3.79,1.33,6.59,6.59,0,0,0,3.79-1.17,7.91,7.91,0,0,0,2.6-3.12l0-.06q11.63-24.91,18.18-39v36a8.39,8.39,0,0,0,.44,2.79,6.65,6.65,0,0,0,2.9,3.6,7.67,7.67,0,0,0,8.18-.64,6.5,6.5,0,0,0,1.86-2.61,7.88,7.88,0,0,0,.54-2.91V51.48a8.05,8.05,0,0,0-1.61-5A6.68,6.68,0,0,0,119,44Z"/>
          <path class="b592474b-6ce9-497c-b4d6-1e431ea0d281" d="M117.2,42.22h0a6.6,6.6,0,0,0-1.36-.14,6,6,0,0,0-4.07,1.55,7.28,7.28,0,0,0-2,3.27L84.66,100.76,59.87,46.69a7.24,7.24,0,0,0-2.27-3.28,6.27,6.27,0,0,0-3.92-1.33,8,8,0,0,0-1.49.15h0a6.47,6.47,0,0,0-4.1,2.52,8,8,0,0,0-1.47,4.8v68.24a8.78,8.78,0,0,0,.38,2.59A6.69,6.69,0,0,0,49.57,124,6.59,6.59,0,0,0,53,125.06h.44A6.58,6.58,0,0,0,60,120.62a8.44,8.44,0,0,0,.46-2.83V82l18,38.7,0,.07a8.35,8.35,0,0,0,2.29,3,6.09,6.09,0,0,0,3.79,1.34,6.7,6.7,0,0,0,3.8-1.17,8,8,0,0,0,2.59-3.12l0-.07,18.18-38.95v36a8.45,8.45,0,0,0,.45,2.79,6.62,6.62,0,0,0,2.89,3.59,7.63,7.63,0,0,0,8.19-.64,6.64,6.64,0,0,0,1.86-2.6A7.89,7.89,0,0,0,123,118V49.67a8,8,0,0,0-1.6-5A6.68,6.68,0,0,0,117.2,42.22Z"/>
        </g>
      </g>
    </g>
  </g>
</svg>
