<svg xmlns="http://www.w3.org/2000/svg" xmlns:xlink="http://www.w3.org/1999/xlink" width="174" height="174" viewBox="0 0 174 174">
  <defs>
    <style>
      .bc492570-4c30-4263-85f5-4d9a53a12b32 {
        isolation: isolate;
      }

      .fc68e630-e5bc-4e95-9cd8-be6e59098660 {
        opacity: 0.5;
      }

      .e1f2997c-06ba-4738-b967-5ccc8e4c13d1 {
        fill: #8d04af;
      }

      .ab53a31e-ba83-46ae-8b9f-737a5bd5ee6b {
        fill: #c638f4;
      }

      .e6bc86a6-90c5-4dd5-89e8-e86e4a00da7b {
        fill: #890370;
        opacity: 0.33;
      }

      .a1810709-7c25-4de7-ae4f-b3a02155be83, .b81d2f9f-2b68-4059-a43e-61a20e969424 {
        fill: #ff8af1;
      }

      .a1810709-7c25-4de7-ae4f-b3a02155be83 {
        opacity: 0.19;
      }

      .e7ed23ef-c2b1-4546-8450-b2a17b12b864 {
        fill: #f1ff8f;
        opacity: 0.2;
        mix-blend-mode: lighten;
      }

      .e4dbfea6-b663-4085-b165-37a0f0513813 {
        fill: url(#abc8fd7a-8de9-49a1-924b-b09c30548a11);
      }

      .b89a1c60-beb2-4f28-9768-29546f7936bf {
        fill: #720082;
      }

      .b81d2f9f-2b68-4059-a43e-61a20e969424 {
        opacity: 0.22;
      }

      .a9426b5d-6d48-499f-9dbe-3d787d50ab7b {
        fill: #fff;
      }

      .e4356293-4dd8-40e0-ae04-4ff2f1f6a763 {
        fill: #f2ea55;
        opacity: 0.44;
      }

      .a76125da-26e1-4e5c-9a58-b14a0472a192 {
        opacity: 0.6;
      }

      .b6a34846-8bdd-40a6-8603-d27e05cba634 {
        fill: #ff0;
      }
    </style>
    <linearGradient id="abc8fd7a-8de9-49a1-924b-b09c30548a11" x1="85.52" y1="165.54" x2="85.96" y2="3.87" gradientUnits="userSpaceOnUse">
      <stop offset="0" stop-color="#ff5e0b"/>
      <stop offset="1" stop-color="#ff420a"/>
    </linearGradient>
  </defs>
  <g class="bc492570-4c30-4263-85f5-4d9a53a12b32">
    <g id="a1286ec5-14c3-4b04-942c-7c19c40d4f5d" data-name="Layer 1">
      <g>
        <rect class="fc68e630-e5bc-4e95-9cd8-be6e59098660" x="9.5" y="10.76" width="157.52" height="157.52" rx="33.84"/>
        <g>
          <rect class="e1f2997c-06ba-4738-b967-5ccc8e4c13d1" x="6.98" y="5.72" width="157.52" height="157.52" rx="33.84"/>
          <rect class="ab53a31e-ba83-46ae-8b9f-737a5bd5ee6b" x="8.78" y="7.52" width="153.92" height="153.92" rx="33.07"/>
          <path class="e6bc86a6-90c5-4dd5-89e8-e86e4a00da7b" d="M152.73,136.6c-3.39,4.22-7.19,11-13.11,14.8s-25.38,4.65-52,3.38-34.68.85-46.53-1.27-17.34-10.15-24.53-21.57c-3.19-5.06-5.79-4.3-7.71-1.89a33.07,33.07,0,0,0,33,31.39h87.78A33.08,33.08,0,0,0,162,135.38C160.59,130.34,155.15,133.57,152.73,136.6Z"/>
          <path class="a1810709-7c25-4de7-ae4f-b3a02155be83" d="M129.63,7.52H41.85A33.08,33.08,0,0,0,8.78,40.59v60C23,92.18,75.81,67.11,162.7,98.8V40.59A33.08,33.08,0,0,0,129.63,7.52Z"/>
          <path class="e7ed23ef-c2b1-4546-8450-b2a17b12b864" d="M129.63,7.52H41.85A33.06,33.06,0,0,0,13.33,23.86a14.46,14.46,0,0,0-.14,7.32c2.52,10.09,5.77-9,18.38-13.69s24.15-3.61,67-3.25,47.57,4.33,53.34,15.14C157,38.92,159.87,45.93,162.7,41v-.41A33.08,33.08,0,0,0,129.63,7.52Z"/>
          <rect class="e4dbfea6-b663-4085-b165-37a0f0513813" x="20.59" y="19.34" width="130.29" height="130.29" rx="27.99"/>
          <rect class="b89a1c60-beb2-4f28-9768-29546f7936bf" x="18.43" y="17.18" width="134.62" height="134.62" rx="28.92"/>
          <rect class="e1f2997c-06ba-4738-b967-5ccc8e4c13d1" x="20.59" y="19.34" width="130.29" height="130.29" rx="27.99"/>
          <rect class="b81d2f9f-2b68-4059-a43e-61a20e969424" x="24.3" y="24.76" width="122.87" height="122.87" rx="26.4"/>
          <path class="a9426b5d-6d48-499f-9dbe-3d787d50ab7b" d="M134.81,10.3c0,.57-17.43,1-38.93,1S57,10.87,57,10.3s17.43-1,38.93-1S134.81,9.72,134.81,10.3Z"/>
          <path class="a9426b5d-6d48-499f-9dbe-3d787d50ab7b" d="M140.85,10.82c0,.52-.93.93-2.08.93s-2.08-.41-2.08-.93.93-.94,2.08-.94S140.85,10.3,140.85,10.82Z"/>
          <path class="e6bc86a6-90c5-4dd5-89e8-e86e4a00da7b" d="M162.5,132c-5.2,14-13.45,22.85-22.53,24.61-12.78,2.47-73.79,5.36-101.82,1.65-17.4-2.3-25.59-17-29.3-27.8a33.07,33.07,0,0,0,33,31h87.78A33.06,33.06,0,0,0,162.5,132Z"/>
          <path class="e4356293-4dd8-40e0-ae04-4ff2f1f6a763" d="M117.29,154.38c0,1.11-13.51,2-30.18,2s-30.17-.91-30.17-2,13.51-2,30.17-2S117.29,153.26,117.29,154.38Z"/>
        </g>
        <g>
          <path class="a76125da-26e1-4e5c-9a58-b14a0472a192" d="M55.54,109.87s.51,14,14.82,17.61l.32.07a20.41,20.41,0,0,0,3.86.72h0q1,.09,1.95.09a21,21,0,0,0,21.08-21c0-.59,0-1.17-.07-1.74l-.6-47.95h13.15c4.34,0,7.85-3.14,7.85-7V49.5a6.94,6.94,0,0,0-4.08-6.16h0a8.62,8.62,0,0,0-2.72-.8H111c-.3,0-.61-.05-.92-.05H64.62a8.28,8.28,0,0,0-1.23.09,7.51,7.51,0,0,0-1.93.41,7.08,7.08,0,0,0-3.7,3,8.29,8.29,0,0,0-1.13,3.92v.25a8.74,8.74,0,0,0,.43,2.69,6.93,6.93,0,0,0,3.07,3.77,7.65,7.65,0,0,0,3.5,1,8.26,8.26,0,0,0,1,.06H81.5s-.11,48-.1,48.08-.07,3.42-.07,3.44c-.33,2.37-1.38,5.21-4.48,6a7.71,7.71,0,0,1-4.06-1l-.08-.06a5.38,5.38,0,0,1-2-3.88h0c0-.11-.1-1-.12-1.32l-.06-2h0a9.27,9.27,0,0,0-.26-1.86h0a7.16,7.16,0,0,0-6.91-5.78l-1.15,0c-3.83.11-6.84,3.71-6.71,8Z"/>
          <path class="b6a34846-8bdd-40a6-8603-d27e05cba634" d="M53.66,108s.52,14,14.82,17.61l.32.08a22.12,22.12,0,0,0,3.86.72h0c.64,0,1.29.09,2,.09a21,21,0,0,0,21.08-21c0-.59,0-1.17-.07-1.74L95,55.81h13.15c4.34,0,7.85-3.14,7.85-7V47.62a6.94,6.94,0,0,0-4.08-6.16h0a8.62,8.62,0,0,0-2.72-.8h-.13a9.12,9.12,0,0,0-.92,0H62.74a8,8,0,0,0-1.22.09,7.49,7.49,0,0,0-1.94.41,7.12,7.12,0,0,0-3.7,3A8.29,8.29,0,0,0,54.75,48v.25A8.42,8.42,0,0,0,55.17,51a7,7,0,0,0,3.07,3.77,7.69,7.69,0,0,0,3.51,1,8,8,0,0,0,1,.06H79.62s-.11,48-.1,48.09-.07,3.41-.07,3.43c-.32,2.37-1.38,5.21-4.48,6a7.71,7.71,0,0,1-4.06-1l-.07-.06a5.36,5.36,0,0,1-2-3.88h0c0-.11-.1-1-.12-1.32l-.06-2h0a8.6,8.6,0,0,0-.26-1.86h0a7.17,7.17,0,0,0-6.91-5.78l-1.15,0c-3.83.11-6.84,3.71-6.71,8Z"/>
        </g>
      </g>
    </g>
  </g>
</svg>
