<svg xmlns="http://www.w3.org/2000/svg" xmlns:xlink="http://www.w3.org/1999/xlink" width="174" height="174" viewBox="0 0 174 174">
  <defs>
    <style>
      .fa5eea21-6e25-4493-aaea-cf8d2e626f69 {
        isolation: isolate;
      }

      .e17cb21d-3e41-4792-b36c-5178c2408cc0 {
        opacity: 0.5;
      }

      .fb88ac38-d010-4d4c-96e4-6bd077f79702 {
        fill: #8d04af;
      }

      .fa47cfbd-7639-4d46-91a0-be1539abe405 {
        fill: #c638f4;
      }

      .bef2fe29-57f0-4b69-ad4a-e7e61df8772c {
        fill: #890370;
        opacity: 0.33;
      }

      .aa1582c9-da70-4148-85fe-1b0bfd983275, .b19a36f6-128f-47ac-a47b-6f569fc5a948 {
        fill: #ff8af1;
      }

      .b19a36f6-128f-47ac-a47b-6f569fc5a948 {
        opacity: 0.19;
      }

      .f6f7e84c-367a-4e7b-9715-85934cb838eb {
        fill: #f1ff8f;
        opacity: 0.2;
        mix-blend-mode: lighten;
      }

      .bc67d240-8108-4733-af24-d7f4072e9eeb {
        fill: url(#ac91f3d4-5c73-49d6-bdea-fc49248f448b);
      }

      .f89c466f-81cf-48ff-b4db-d12fb04bd90a {
        fill: #720082;
      }

      .aa1582c9-da70-4148-85fe-1b0bfd983275 {
        opacity: 0.22;
      }

      .ebfa619d-7455-496f-b31e-06544010a05a {
        fill: #fff;
      }

      .be575587-b76a-4977-a046-b4238f51da38 {
        fill: #f2ea55;
        opacity: 0.44;
      }

      .b4565211-251c-4c77-aeaa-75d72fe28515 {
        opacity: 0.6;
      }

      .b753edbd-20e5-4f51-9724-07eb9d6b1d11 {
        fill: #ff0;
      }
    </style>
    <linearGradient id="ac91f3d4-5c73-49d6-bdea-fc49248f448b" x1="85.52" y1="165.54" x2="85.96" y2="3.87" gradientUnits="userSpaceOnUse">
      <stop offset="0" stop-color="#ff5e0b"/>
      <stop offset="1" stop-color="#ff420a"/>
    </linearGradient>
  </defs>
  <g class="fa5eea21-6e25-4493-aaea-cf8d2e626f69">
    <g id="e4c05e9e-f82e-4544-99fe-1ee9d0a183a2" data-name="Layer 1">
      <g>
        <rect class="e17cb21d-3e41-4792-b36c-5178c2408cc0" x="9.5" y="10.76" width="157.52" height="157.52" rx="33.84"/>
        <g>
          <rect class="fb88ac38-d010-4d4c-96e4-6bd077f79702" x="6.98" y="5.72" width="157.52" height="157.52" rx="33.84"/>
          <rect class="fa47cfbd-7639-4d46-91a0-be1539abe405" x="8.78" y="7.52" width="153.92" height="153.92" rx="33.07"/>
          <path class="bef2fe29-57f0-4b69-ad4a-e7e61df8772c" d="M152.73,136.6c-3.39,4.22-7.19,11-13.11,14.8s-25.38,4.65-52,3.38-34.68.85-46.53-1.27-17.34-10.15-24.53-21.57c-3.19-5.06-5.79-4.3-7.71-1.89a33.07,33.07,0,0,0,33,31.39h87.78A33.08,33.08,0,0,0,162,135.38C160.59,130.34,155.15,133.57,152.73,136.6Z"/>
          <path class="b19a36f6-128f-47ac-a47b-6f569fc5a948" d="M129.63,7.52H41.85A33.08,33.08,0,0,0,8.78,40.59v60C23,92.18,75.81,67.11,162.7,98.8V40.59A33.08,33.08,0,0,0,129.63,7.52Z"/>
          <path class="f6f7e84c-367a-4e7b-9715-85934cb838eb" d="M129.63,7.52H41.85A33.06,33.06,0,0,0,13.33,23.86a14.46,14.46,0,0,0-.14,7.32c2.52,10.09,5.77-9,18.38-13.69s24.15-3.61,67-3.25,47.57,4.33,53.34,15.14C157,38.92,159.87,45.93,162.7,41v-.41A33.08,33.08,0,0,0,129.63,7.52Z"/>
          <rect class="bc67d240-8108-4733-af24-d7f4072e9eeb" x="20.59" y="19.34" width="130.29" height="130.29" rx="27.99"/>
          <rect class="f89c466f-81cf-48ff-b4db-d12fb04bd90a" x="18.43" y="17.18" width="134.62" height="134.62" rx="28.92"/>
          <rect class="fb88ac38-d010-4d4c-96e4-6bd077f79702" x="20.59" y="19.34" width="130.29" height="130.29" rx="27.99"/>
          <rect class="aa1582c9-da70-4148-85fe-1b0bfd983275" x="24.3" y="24.76" width="122.87" height="122.87" rx="26.4"/>
          <path class="ebfa619d-7455-496f-b31e-06544010a05a" d="M134.81,10.3c0,.57-17.43,1-38.93,1S57,10.87,57,10.3s17.43-1,38.93-1S134.81,9.72,134.81,10.3Z"/>
          <path class="ebfa619d-7455-496f-b31e-06544010a05a" d="M140.85,10.82c0,.52-.93.93-2.08.93s-2.08-.41-2.08-.93.93-.94,2.08-.94S140.85,10.3,140.85,10.82Z"/>
          <path class="bef2fe29-57f0-4b69-ad4a-e7e61df8772c" d="M162.5,132c-5.2,14-13.45,22.85-22.53,24.61-12.78,2.47-73.79,5.36-101.82,1.65-17.4-2.3-25.59-17-29.3-27.8a33.07,33.07,0,0,0,33,31h87.78A33.06,33.06,0,0,0,162.5,132Z"/>
          <path class="be575587-b76a-4977-a046-b4238f51da38" d="M117.29,154.38c0,1.11-13.51,2-30.18,2s-30.17-.91-30.17-2,13.51-2,30.17-2S117.29,153.26,117.29,154.38Z"/>
        </g>
        <g>
          <path class="b4565211-251c-4c77-aeaa-75d72fe28515" d="M111.47,113.56H76.64l40.63-59a7.66,7.66,0,0,0-5.8-12.66H61.82a7.66,7.66,0,0,0,0,15.32h35L56.67,115.56a7.77,7.77,0,0,0,6.1,13.33h48.7a7.67,7.67,0,0,0,0-15.33Z"/>
          <path class="b753edbd-20e5-4f51-9724-07eb9d6b1d11" d="M109.67,111.76H74.84L115.47,52.7A7.66,7.66,0,0,0,109.67,40H60a7.67,7.67,0,1,0,0,15.33H95L54.87,113.76A7.64,7.64,0,0,0,58.69,127a7.28,7.28,0,0,0,2.28.12h48.7a7.66,7.66,0,0,0,0-15.32Z"/>
        </g>
      </g>
    </g>
  </g>
</svg>
