<svg xmlns="http://www.w3.org/2000/svg" xmlns:xlink="http://www.w3.org/1999/xlink" width="174" height="174" viewBox="0 0 174 174">
  <defs>
    <style>
      .e19373c9-5620-413a-8211-d1a7bfa28bb4 {
        isolation: isolate;
      }

      .a6aa4210-d68b-4a2c-a624-91554c325daa {
        opacity: 0.5;
      }

      .b559c2fc-251b-4c8b-9592-4fbd80eae63a {
        fill: #8d04af;
      }

      .f4b018fc-1cd0-4850-8d8d-378abead379d {
        fill: #c638f4;
      }

      .ed25a685-5e97-4f34-9bb9-f91700b6aeb1 {
        fill: #890370;
        opacity: 0.33;
      }

      .b19c597c-5875-4530-8ff6-b08e258f821c, .fba662c9-f716-40ed-9ad7-a6b857f8587d {
        fill: #ff8af1;
      }

      .fba662c9-f716-40ed-9ad7-a6b857f8587d {
        opacity: 0.19;
      }

      .a94c0b5e-dc8c-452d-9f13-f4e11e25f9e3 {
        fill: #f1ff8f;
        opacity: 0.2;
        mix-blend-mode: lighten;
      }

      .b26ae6e3-cb9a-47d7-b57c-7e6173d8e2d4 {
        fill: url(#f05f7437-299e-455c-a4ff-b485e9dc9013);
      }

      .f173b6b6-5b54-44fa-8faf-0c2200d7fdf0 {
        fill: #720082;
      }

      .b19c597c-5875-4530-8ff6-b08e258f821c {
        opacity: 0.22;
      }

      .f1f19345-6e1f-4320-be73-4d35d9751588 {
        fill: #fff;
      }

      .b10da8b1-365a-4768-a77d-a759693a44e4 {
        fill: #f2ea55;
        opacity: 0.44;
      }

      .be540519-f9be-4e70-99a7-c3940613c757 {
        opacity: 0.6;
      }

      .bb2c10e8-ac0d-4e3d-8d9c-b12492cdf347 {
        fill: #ff0;
      }
    </style>
    <linearGradient id="f05f7437-299e-455c-a4ff-b485e9dc9013" x1="85.52" y1="165.54" x2="85.96" y2="3.87" gradientUnits="userSpaceOnUse">
      <stop offset="0" stop-color="#ff5e0b"/>
      <stop offset="1" stop-color="#ff420a"/>
    </linearGradient>
  </defs>
  <g class="e19373c9-5620-413a-8211-d1a7bfa28bb4">
    <g id="e92d4be5-f700-4396-b7e7-9e9a1c450675" data-name="Layer 1">
      <g>
        <rect class="a6aa4210-d68b-4a2c-a624-91554c325daa" x="9.5" y="10.76" width="157.52" height="157.52" rx="33.84"/>
        <g>
          <rect class="b559c2fc-251b-4c8b-9592-4fbd80eae63a" x="6.98" y="5.72" width="157.52" height="157.52" rx="33.84"/>
          <rect class="f4b018fc-1cd0-4850-8d8d-378abead379d" x="8.78" y="7.52" width="153.92" height="153.92" rx="33.07"/>
          <path class="ed25a685-5e97-4f34-9bb9-f91700b6aeb1" d="M152.73,136.6c-3.39,4.22-7.19,11-13.11,14.8s-25.38,4.65-52,3.38-34.68.85-46.53-1.27-17.34-10.15-24.53-21.57c-3.19-5.06-5.79-4.3-7.71-1.89a33.07,33.07,0,0,0,33,31.39h87.78A33.08,33.08,0,0,0,162,135.38C160.59,130.34,155.15,133.57,152.73,136.6Z"/>
          <path class="fba662c9-f716-40ed-9ad7-a6b857f8587d" d="M129.63,7.52H41.85A33.08,33.08,0,0,0,8.78,40.59v60C23,92.18,75.81,67.11,162.7,98.8V40.59A33.08,33.08,0,0,0,129.63,7.52Z"/>
          <path class="a94c0b5e-dc8c-452d-9f13-f4e11e25f9e3" d="M129.63,7.52H41.85A33.06,33.06,0,0,0,13.33,23.86a14.46,14.46,0,0,0-.14,7.32c2.52,10.09,5.77-9,18.38-13.69s24.15-3.61,67-3.25,47.57,4.33,53.34,15.14C157,38.92,159.87,45.93,162.7,41v-.41A33.08,33.08,0,0,0,129.63,7.52Z"/>
          <rect class="b26ae6e3-cb9a-47d7-b57c-7e6173d8e2d4" x="20.59" y="19.34" width="130.29" height="130.29" rx="27.99"/>
          <rect class="f173b6b6-5b54-44fa-8faf-0c2200d7fdf0" x="18.43" y="17.18" width="134.62" height="134.62" rx="28.92"/>
          <rect class="b559c2fc-251b-4c8b-9592-4fbd80eae63a" x="20.59" y="19.34" width="130.29" height="130.29" rx="27.99"/>
          <rect class="b19c597c-5875-4530-8ff6-b08e258f821c" x="24.3" y="24.76" width="122.87" height="122.87" rx="26.4"/>
          <path class="f1f19345-6e1f-4320-be73-4d35d9751588" d="M134.81,10.3c0,.57-17.43,1-38.93,1S57,10.87,57,10.3s17.43-1,38.93-1S134.81,9.72,134.81,10.3Z"/>
          <path class="f1f19345-6e1f-4320-be73-4d35d9751588" d="M140.85,10.82c0,.52-.93.93-2.08.93s-2.08-.41-2.08-.93.93-.94,2.08-.94S140.85,10.3,140.85,10.82Z"/>
          <path class="ed25a685-5e97-4f34-9bb9-f91700b6aeb1" d="M162.5,132c-5.2,14-13.45,22.85-22.53,24.61-12.78,2.47-73.79,5.36-101.82,1.65-17.4-2.3-25.59-17-29.3-27.8a33.07,33.07,0,0,0,33,31h87.78A33.06,33.06,0,0,0,162.5,132Z"/>
          <path class="b10da8b1-365a-4768-a77d-a759693a44e4" d="M117.29,154.38c0,1.11-13.51,2-30.18,2s-30.17-.91-30.17-2,13.51-2,30.17-2S117.29,153.26,117.29,154.38Z"/>
        </g>
        <g>
          <path class="be540519-f9be-4e70-99a7-c3940613c757" d="M115.27,78.61l0,0a29.66,29.66,0,0,0,3-12.63c0-.53,0-1.06,0-1.59h0a24.2,24.2,0,0,0-7.64-16.27h0a23.5,23.5,0,0,0-17-7.16H63.66A8.84,8.84,0,0,0,58,42.73a7.37,7.37,0,0,0-2.16,2.89,8.18,8.18,0,0,0-.6,3.14V122a9.11,9.11,0,0,0,.51,3,7.51,7.51,0,0,0,3.41,4,9,9,0,0,0,4.41,1h4.82c1.47,0,3.11,0,4.94-.06s3.53-.06,5.37-.06q6.63,0,14.84-.12h0a23.58,23.58,0,0,0,9.53-2,24.66,24.66,0,0,0,8-5.74h0l0,0h0a24.54,24.54,0,0,0,7.17-17.23v-.47a26.6,26.6,0,0,0-3.41-12.76h0l0-.06v0h0a33.07,33.07,0,0,0-4-6A29.94,29.94,0,0,0,115.27,78.61Zm-13.2,25.79a9.52,9.52,0,0,1-2.85,6.65,10.66,10.66,0,0,1-3,2.32,6.05,6.05,0,0,1-2.75.64H71.13V93.32h22.3a6.5,6.5,0,0,1,3.09.7,8.32,8.32,0,0,1,2.77,2.41l0,0,0,0A11.85,11.85,0,0,1,102.07,104.4ZM71.37,56.71H93.55a7.05,7.05,0,0,1,3,.66,9.75,9.75,0,0,1,3,2.27,9.08,9.08,0,0,1,2.63,6.44A11.94,11.94,0,0,1,99.71,74l-.07.08,0,.08A7.91,7.91,0,0,1,97,76.49a6.33,6.33,0,0,1-3,.68H93.5l-22.13.1Z"/>
          <path class="bb2c10e8-ac0d-4e3d-8d9c-b12492cdf347" d="M113.27,76.61l0,0a29.66,29.66,0,0,0,3-12.63c0-.53,0-1.06,0-1.59h0a24.2,24.2,0,0,0-7.64-16.27h0a23.5,23.5,0,0,0-17-7.16H61.66A8.9,8.9,0,0,0,56,40.73a7.33,7.33,0,0,0-2.16,2.9,8.11,8.11,0,0,0-.59,3.13V120a8.84,8.84,0,0,0,.5,3,7.49,7.49,0,0,0,3.41,4,9.17,9.17,0,0,0,4.41,1.05h4.82c1.47,0,3.11,0,4.94-.07s3.54-.06,5.37-.06q6.63,0,14.84-.12h0a23.74,23.74,0,0,0,9.53-2,24.85,24.85,0,0,0,8-5.75h0l0,0h0a24.54,24.54,0,0,0,7.17-17.23v-.47a26.6,26.6,0,0,0-3.41-12.76h0l0,0v0h0a33.55,33.55,0,0,0-4-6A30.23,30.23,0,0,0,113.27,76.61Zm-13.2,25.79a9.48,9.48,0,0,1-2.85,6.65,10.66,10.66,0,0,1-3,2.32,6.05,6.05,0,0,1-2.75.64H69.13V91.32h22.3a6.5,6.5,0,0,1,3.09.7,8.43,8.43,0,0,1,2.77,2.41l0,0,0,0A11.85,11.85,0,0,1,100.07,102.4ZM69.37,54.71H91.55a7.05,7.05,0,0,1,3,.66,9.75,9.75,0,0,1,3,2.27,9.08,9.08,0,0,1,2.63,6.44A11.94,11.94,0,0,1,97.71,72l-.07.08,0,.08A7.91,7.91,0,0,1,95,74.49a6.22,6.22,0,0,1-3,.68H91.5l-22.13.1Z"/>
        </g>
      </g>
    </g>
  </g>
</svg>
