<svg xmlns="http://www.w3.org/2000/svg" xmlns:xlink="http://www.w3.org/1999/xlink" width="174" height="174" viewBox="0 0 174 174">
  <defs>
    <style>
      .f7af5c7b-fa78-4784-9674-1f9ef0acb163 {
        isolation: isolate;
      }

      .b7ef9baa-f8bc-466a-9267-c4cc39e7207f {
        opacity: 0.5;
      }

      .afdfa754-bf21-4f5b-aec6-fcd0440b794d {
        fill: #8d04af;
      }

      .b6bc9dba-34d1-46c3-8948-8e21614ca3b3 {
        fill: #c638f4;
      }

      .aefa9e6f-1dfa-4241-8a73-d7c698d16cba {
        fill: #890370;
        opacity: 0.33;
      }

      .b7aadcc7-ddd6-4065-92d1-1d71d3da5698, .f3c271e5-ab68-4719-afe7-e4612f822d02 {
        fill: #ff8af1;
      }

      .f3c271e5-ab68-4719-afe7-e4612f822d02 {
        opacity: 0.19;
      }

      .e0b5b6fa-9ca7-4288-8136-471671680a7b {
        fill: #f1ff8f;
        opacity: 0.2;
        mix-blend-mode: lighten;
      }

      .bc753951-6804-479d-8e4b-8f86f96d3665 {
        fill: url(#bb4f7070-e6ad-4617-b284-dd9942a3571c);
      }

      .a4b54b38-cadb-4ef7-88b1-d3676c9f97f9 {
        fill: #720082;
      }

      .b7aadcc7-ddd6-4065-92d1-1d71d3da5698 {
        opacity: 0.22;
      }

      .b10cd4d1-d8c5-405e-9cca-f24e9fca5d05 {
        fill: #fff;
      }

      .f10794c6-d99e-43c5-9311-afc57e860b62 {
        fill: #f2ea55;
        opacity: 0.44;
      }

      .b8e9cedc-c4ca-4e9a-8008-b54b56f4b9f5 {
        opacity: 0.6;
      }

      .fffcdb71-f132-46c6-8ded-8c6ec9bd2abe {
        fill: #ff0;
      }
    </style>
    <linearGradient id="bb4f7070-e6ad-4617-b284-dd9942a3571c" x1="85.52" y1="165.54" x2="85.96" y2="3.87" gradientUnits="userSpaceOnUse">
      <stop offset="0" stop-color="#ff5e0b"/>
      <stop offset="1" stop-color="#ff420a"/>
    </linearGradient>
  </defs>
  <g class="f7af5c7b-fa78-4784-9674-1f9ef0acb163">
    <g id="e4978fe9-7da6-46da-bf54-45e61fc8c98c" data-name="Layer 1">
      <g>
        <rect class="b7ef9baa-f8bc-466a-9267-c4cc39e7207f" x="9.5" y="10.76" width="157.52" height="157.52" rx="33.84"/>
        <g>
          <rect class="afdfa754-bf21-4f5b-aec6-fcd0440b794d" x="6.98" y="5.72" width="157.52" height="157.52" rx="33.84"/>
          <rect class="b6bc9dba-34d1-46c3-8948-8e21614ca3b3" x="8.78" y="7.52" width="153.92" height="153.92" rx="33.07"/>
          <path class="aefa9e6f-1dfa-4241-8a73-d7c698d16cba" d="M152.73,136.6c-3.39,4.22-7.19,11-13.11,14.8s-25.38,4.65-52,3.38-34.68.85-46.53-1.27-17.34-10.15-24.53-21.57c-3.19-5.06-5.79-4.3-7.71-1.89a33.07,33.07,0,0,0,33,31.39h87.78A33.08,33.08,0,0,0,162,135.38C160.59,130.34,155.15,133.57,152.73,136.6Z"/>
          <path class="f3c271e5-ab68-4719-afe7-e4612f822d02" d="M129.63,7.52H41.85A33.08,33.08,0,0,0,8.78,40.59v60C23,92.18,75.81,67.11,162.7,98.8V40.59A33.08,33.08,0,0,0,129.63,7.52Z"/>
          <path class="e0b5b6fa-9ca7-4288-8136-471671680a7b" d="M129.63,7.52H41.85A33.06,33.06,0,0,0,13.33,23.86a14.46,14.46,0,0,0-.14,7.32c2.52,10.09,5.77-9,18.38-13.69s24.15-3.61,67-3.25,47.57,4.33,53.34,15.14C157,38.92,159.87,45.93,162.7,41v-.41A33.08,33.08,0,0,0,129.63,7.52Z"/>
          <rect class="bc753951-6804-479d-8e4b-8f86f96d3665" x="20.59" y="19.34" width="130.29" height="130.29" rx="27.99"/>
          <rect class="a4b54b38-cadb-4ef7-88b1-d3676c9f97f9" x="18.43" y="17.18" width="134.62" height="134.62" rx="28.92"/>
          <rect class="afdfa754-bf21-4f5b-aec6-fcd0440b794d" x="20.59" y="19.34" width="130.29" height="130.29" rx="27.99"/>
          <rect class="b7aadcc7-ddd6-4065-92d1-1d71d3da5698" x="24.3" y="24.76" width="122.87" height="122.87" rx="26.4"/>
          <path class="b10cd4d1-d8c5-405e-9cca-f24e9fca5d05" d="M134.81,10.3c0,.57-17.43,1-38.93,1S57,10.87,57,10.3s17.43-1,38.93-1S134.81,9.72,134.81,10.3Z"/>
          <path class="b10cd4d1-d8c5-405e-9cca-f24e9fca5d05" d="M140.85,10.82c0,.52-.93.93-2.08.93s-2.08-.41-2.08-.93.93-.94,2.08-.94S140.85,10.3,140.85,10.82Z"/>
          <path class="aefa9e6f-1dfa-4241-8a73-d7c698d16cba" d="M162.5,132c-5.2,14-13.45,22.85-22.53,24.61-12.78,2.47-73.79,5.36-101.82,1.65-17.4-2.3-25.59-17-29.3-27.8a33.07,33.07,0,0,0,33,31h87.78A33.06,33.06,0,0,0,162.5,132Z"/>
          <path class="f10794c6-d99e-43c5-9311-afc57e860b62" d="M117.29,154.38c0,1.11-13.51,2-30.18,2s-30.17-.91-30.17-2,13.51-2,30.17-2S117.29,153.26,117.29,154.38Z"/>
        </g>
        <g>
          <path class="b8e9cedc-c4ca-4e9a-8008-b54b56f4b9f5" d="M133.59,54.38A6.11,6.11,0,0,0,132,50.19a6.85,6.85,0,0,0-3.49-1.92,7.94,7.94,0,0,0-1.81-.22,6.42,6.42,0,0,0-4,1.36,6.92,6.92,0,0,0-2.21,3.22l0,0L106.29,94.42,92.65,54.3v0a12.87,12.87,0,0,0-1.89-3.73,6.92,6.92,0,0,0-1.85-1.67,5.75,5.75,0,0,0-3-.83,4.78,4.78,0,0,0-2.2.52,5.14,5.14,0,0,0-2,1.79A7,7,0,0,0,81,52a3.53,3.53,0,0,0-.16.66c-.11.65-.24,1.25-.39,1.81l-13.64,40L52.89,52.63a6.62,6.62,0,0,0-2.11-3.23,6.24,6.24,0,0,0-4-1.39,7.86,7.86,0,0,0-2.12.3h0a7.29,7.29,0,0,0-3.39,1.95,6.13,6.13,0,0,0-1.66,4.22A6.48,6.48,0,0,0,40,56.59l20.57,60.89a7.1,7.1,0,0,0,1.34,3,5.71,5.71,0,0,0,2,1.59,5.48,5.48,0,0,0,2.47.56,6.81,6.81,0,0,0,4.41-1.48,6.67,6.67,0,0,0,2.2-3.73L86.47,77.73l13.6,39.57a6.63,6.63,0,0,0,1.55,3.34,5.85,5.85,0,0,0,2.14,1.5,6.14,6.14,0,0,0,2.33.44,6.87,6.87,0,0,0,4.31-1.39,6.48,6.48,0,0,0,2.29-3.72l20.45-60.72A6.85,6.85,0,0,0,133.59,54.38Z"/>
          <path class="fffcdb71-f132-46c6-8ded-8c6ec9bd2abe" d="M131.86,52.65a6.08,6.08,0,0,0-1.63-4.19,6.92,6.92,0,0,0-3.49-1.92,7.78,7.78,0,0,0-1.8-.22,6.38,6.38,0,0,0-4,1.36,7,7,0,0,0-2.22,3.22v0L104.56,92.7,90.92,52.57v0A12.69,12.69,0,0,0,89,48.83a6.9,6.9,0,0,0-1.85-1.67,5.77,5.77,0,0,0-3-.84,5.08,5.08,0,0,0-2.2.52,5.31,5.31,0,0,0-2,1.8,7,7,0,0,0-.77,1.6,4,4,0,0,0-.16.66c-.11.65-.24,1.25-.39,1.82L65,92.7,51.16,50.9a6.69,6.69,0,0,0-2.1-3.22,6.28,6.28,0,0,0-4-1.4,7.85,7.85,0,0,0-2.11.3h0a7.16,7.16,0,0,0-3.39,1.95,6.12,6.12,0,0,0-1.66,4.21,6.58,6.58,0,0,0,.33,2.12l20.56,60.88a7.12,7.12,0,0,0,1.35,3.06,5.69,5.69,0,0,0,2,1.59,5.83,5.83,0,0,0,2.48.56,6.82,6.82,0,0,0,4.4-1.49,6.62,6.62,0,0,0,2.21-3.73L84.74,76l13.6,39.56a6.63,6.63,0,0,0,1.55,3.34,5.88,5.88,0,0,0,2.14,1.51,6.37,6.37,0,0,0,2.33.44,7,7,0,0,0,4.32-1.4,6.48,6.48,0,0,0,2.29-3.71L131.41,55A6.62,6.62,0,0,0,131.86,52.65Z"/>
        </g>
      </g>
    </g>
  </g>
</svg>
