<svg xmlns="http://www.w3.org/2000/svg" xmlns:xlink="http://www.w3.org/1999/xlink" width="174" height="174" viewBox="0 0 174 174">
  <defs>
    <style>
      .f3cbddf1-84ec-4f7c-96aa-c3aea10955e9 {
        isolation: isolate;
      }

      .eb534b96-42ec-41c7-b5d3-4ffe6beca512 {
        opacity: 0.5;
      }

      .fb334245-1eb9-41fd-bfa5-1b921f75b887 {
        fill: #8d04af;
      }

      .ab9b83b0-b23d-4726-b78a-854e283b91b1 {
        fill: #c638f4;
      }

      .a56266fe-0cf7-48ed-b3a5-095755f96687 {
        fill: #890370;
        opacity: 0.33;
      }

      .a92b1ed6-40f1-41df-8351-1588c9b36cd1, .acf521bc-63e0-4793-aac4-fec974b9ef64 {
        fill: #ff8af1;
      }

      .acf521bc-63e0-4793-aac4-fec974b9ef64 {
        opacity: 0.19;
      }

      .a995f917-458d-411d-9cfd-bb67badf29ef {
        fill: #f1ff8f;
        opacity: 0.2;
        mix-blend-mode: lighten;
      }

      .e8c0611e-ec63-4f5a-b03f-9ada829bd69c {
        fill: url(#a6dce095-462a-42c6-b793-e0469394df18);
      }

      .ab89ba52-dd34-4d25-8752-860e0cd43e46 {
        fill: #720082;
      }

      .a92b1ed6-40f1-41df-8351-1588c9b36cd1 {
        opacity: 0.22;
      }

      .a9c495d8-26e1-4c80-a01a-fc5862d1700d {
        fill: #fff;
      }

      .a0d9736c-5ae6-4813-9565-e19a362472d4 {
        fill: #f2ea55;
        opacity: 0.44;
      }

      .b3bb4a16-28cc-4e9f-8dd4-d32c713b70f3 {
        opacity: 0.6;
      }

      .eb050def-8996-4793-ad11-c20bbb234ad0 {
        fill: #ff0;
      }
    </style>
    <linearGradient id="a6dce095-462a-42c6-b793-e0469394df18" x1="85.52" y1="165.54" x2="85.96" y2="3.87" gradientUnits="userSpaceOnUse">
      <stop offset="0" stop-color="#ff5e0b"/>
      <stop offset="1" stop-color="#ff420a"/>
    </linearGradient>
  </defs>
  <g class="f3cbddf1-84ec-4f7c-96aa-c3aea10955e9">
    <g id="a7532106-2fa2-42e7-a210-1b217fabe1d9" data-name="Layer 1">
      <g>
        <rect class="eb534b96-42ec-41c7-b5d3-4ffe6beca512" x="9.5" y="10.76" width="157.52" height="157.52" rx="33.84"/>
        <g>
          <rect class="fb334245-1eb9-41fd-bfa5-1b921f75b887" x="6.98" y="5.72" width="157.52" height="157.52" rx="33.84"/>
          <rect class="ab9b83b0-b23d-4726-b78a-854e283b91b1" x="8.78" y="7.52" width="153.92" height="153.92" rx="33.07"/>
          <path class="a56266fe-0cf7-48ed-b3a5-095755f96687" d="M152.73,136.6c-3.39,4.22-7.19,11-13.11,14.8s-25.38,4.65-52,3.38-34.68.85-46.53-1.27-17.34-10.15-24.53-21.57c-3.19-5.06-5.79-4.3-7.71-1.89a33.07,33.07,0,0,0,33,31.39h87.78A33.08,33.08,0,0,0,162,135.38C160.59,130.34,155.15,133.57,152.73,136.6Z"/>
          <path class="acf521bc-63e0-4793-aac4-fec974b9ef64" d="M129.63,7.52H41.85A33.08,33.08,0,0,0,8.78,40.59v60C23,92.18,75.81,67.11,162.7,98.8V40.59A33.08,33.08,0,0,0,129.63,7.52Z"/>
          <path class="a995f917-458d-411d-9cfd-bb67badf29ef" d="M129.63,7.52H41.85A33.06,33.06,0,0,0,13.33,23.86a14.46,14.46,0,0,0-.14,7.32c2.52,10.09,5.77-9,18.38-13.69s24.15-3.61,67-3.25,47.57,4.33,53.34,15.14C157,38.92,159.87,45.93,162.7,41v-.41A33.08,33.08,0,0,0,129.63,7.52Z"/>
          <rect class="e8c0611e-ec63-4f5a-b03f-9ada829bd69c" x="20.59" y="19.34" width="130.29" height="130.29" rx="27.99"/>
          <rect class="ab89ba52-dd34-4d25-8752-860e0cd43e46" x="18.43" y="17.18" width="134.62" height="134.62" rx="28.92"/>
          <rect class="fb334245-1eb9-41fd-bfa5-1b921f75b887" x="20.59" y="19.34" width="130.29" height="130.29" rx="27.99"/>
          <rect class="a92b1ed6-40f1-41df-8351-1588c9b36cd1" x="24.3" y="24.76" width="122.87" height="122.87" rx="26.4"/>
          <path class="a9c495d8-26e1-4c80-a01a-fc5862d1700d" d="M134.81,10.3c0,.57-17.43,1-38.93,1S57,10.87,57,10.3s17.43-1,38.93-1S134.81,9.72,134.81,10.3Z"/>
          <path class="a9c495d8-26e1-4c80-a01a-fc5862d1700d" d="M140.85,10.82c0,.52-.93.93-2.08.93s-2.08-.41-2.08-.93.93-.94,2.08-.94S140.85,10.3,140.85,10.82Z"/>
          <path class="a56266fe-0cf7-48ed-b3a5-095755f96687" d="M162.5,132c-5.2,14-13.45,22.85-22.53,24.61-12.78,2.47-73.79,5.36-101.82,1.65-17.4-2.3-25.59-17-29.3-27.8a33.07,33.07,0,0,0,33,31h87.78A33.06,33.06,0,0,0,162.5,132Z"/>
          <path class="a0d9736c-5ae6-4813-9565-e19a362472d4" d="M117.29,154.38c0,1.11-13.51,2-30.18,2s-30.17-.91-30.17-2,13.51-2,30.17-2S117.29,153.26,117.29,154.38Z"/>
        </g>
        <g>
          <path class="b3bb4a16-28cc-4e9f-8dd4-d32c713b70f3" d="M119.08,43.68a9,9,0,0,0-4.09-.92H58.14a9.58,9.58,0,0,0-2.67.37A7.16,7.16,0,0,0,51.55,46a7.72,7.72,0,0,0-1.25,4.33,8.2,8.2,0,0,0,.49,2.86,7.07,7.07,0,0,0,3.26,3.74,8.64,8.64,0,0,0,4.09,1H78.78v62.6a8,8,0,0,0,.43,2.64A7.07,7.07,0,0,0,82,126.67a8.17,8.17,0,0,0,3.73,1.25h.06l.86,0a8.07,8.07,0,0,0,2.64-.41,6.85,6.85,0,0,0,3.69-3,7.79,7.79,0,0,0,1-4V57.86h21A8.23,8.23,0,0,0,120.46,56a7,7,0,0,0,2-2.78,8.46,8.46,0,0,0,0-5.84A7.06,7.06,0,0,0,119.08,43.68Z"/>
          <path class="eb050def-8996-4793-ad11-c20bbb234ad0" d="M117.31,41.92a8.8,8.8,0,0,0-4.09-.92H56.38a9.22,9.22,0,0,0-2.67.37,7.16,7.16,0,0,0-3.92,2.85,7.69,7.69,0,0,0-1.25,4.33A8.14,8.14,0,0,0,49,51.4a7,7,0,0,0,3.26,3.74,8.41,8.41,0,0,0,4.09,1H77v62.6a8.05,8.05,0,0,0,.43,2.65,7.06,7.06,0,0,0,2.79,3.57A8.25,8.25,0,0,0,84,126.16H84a8.78,8.78,0,0,0,3.49-.37,6.86,6.86,0,0,0,3.69-3,7.71,7.71,0,0,0,1-4V56.09h21a8.19,8.19,0,0,0,5.48-1.84,7,7,0,0,0,2-2.78,8.46,8.46,0,0,0,0-5.84A7,7,0,0,0,117.31,41.92Z"/>
        </g>
      </g>
    </g>
  </g>
</svg>
