<svg xmlns="http://www.w3.org/2000/svg" xmlns:xlink="http://www.w3.org/1999/xlink" width="174" height="174" viewBox="0 0 174 174">
  <defs>
    <style>
      .b22be967-9e28-48cb-8093-ec8149b04bd9 {
        isolation: isolate;
      }

      .bdd60e85-2f97-4b91-90b9-9506ffc5fa73 {
        opacity: 0.5;
      }

      .b33d1dd5-306e-4d34-aa65-6af6bf77074b {
        fill: #8d04af;
      }

      .f53ff82c-84b9-4727-b58f-c5f26cf8e5a8 {
        fill: #c638f4;
      }

      .b64a10c0-194d-4136-8a1e-5b392fa86ffd {
        fill: #890370;
        opacity: 0.33;
      }

      .f1e8acae-6bd5-4df1-8a5c-95d99ec02e91, .f3b60f74-6cbe-4ff1-8a0d-5814448b276e {
        fill: #ff8af1;
      }

      .f3b60f74-6cbe-4ff1-8a0d-5814448b276e {
        opacity: 0.19;
      }

      .f8b88206-6110-4b2a-b572-e0d75bad9b4f {
        fill: #f1ff8f;
        opacity: 0.2;
        mix-blend-mode: lighten;
      }

      .b93fcc0b-5a06-41ba-a3c6-825e26532d9d {
        fill: url(#a3899127-2c06-45f3-af92-ac8eda062530);
      }

      .bb32d859-bcae-496e-863b-7f8757abde2d {
        fill: #720082;
      }

      .f1e8acae-6bd5-4df1-8a5c-95d99ec02e91 {
        opacity: 0.22;
      }

      .abd7620e-be42-4ad2-b65b-fef01c45bd08 {
        fill: #fff;
      }

      .e6ebaa28-f8a6-4c92-a022-124ee6f07db5 {
        fill: #f2ea55;
        opacity: 0.44;
      }

      .fdc67a55-af7c-42f5-af93-63c96dce1178 {
        opacity: 0.6;
      }

      .e4126b16-4106-4da7-b00b-7d81dfd36c3a {
        fill: #ff0;
      }
    </style>
    <linearGradient id="a3899127-2c06-45f3-af92-ac8eda062530" x1="85.52" y1="165.54" x2="85.96" y2="3.87" gradientUnits="userSpaceOnUse">
      <stop offset="0" stop-color="#ff5e0b"/>
      <stop offset="1" stop-color="#ff420a"/>
    </linearGradient>
  </defs>
  <g class="b22be967-9e28-48cb-8093-ec8149b04bd9">
    <g id="b1372baa-e771-4f8c-8295-900b84a3400c" data-name="Layer 1">
      <g>
        <rect class="bdd60e85-2f97-4b91-90b9-9506ffc5fa73" x="9.5" y="10.76" width="157.52" height="157.52" rx="33.84"/>
        <g>
          <rect class="b33d1dd5-306e-4d34-aa65-6af6bf77074b" x="6.98" y="5.72" width="157.52" height="157.52" rx="33.84"/>
          <rect class="f53ff82c-84b9-4727-b58f-c5f26cf8e5a8" x="8.78" y="7.52" width="153.92" height="153.92" rx="33.07"/>
          <path class="b64a10c0-194d-4136-8a1e-5b392fa86ffd" d="M152.73,136.6c-3.39,4.22-7.19,11-13.11,14.8s-25.38,4.65-52,3.38-34.68.85-46.53-1.27-17.34-10.15-24.53-21.57c-3.19-5.06-5.79-4.3-7.71-1.89a33.07,33.07,0,0,0,33,31.39h87.78A33.08,33.08,0,0,0,162,135.38C160.59,130.34,155.15,133.57,152.73,136.6Z"/>
          <path class="f3b60f74-6cbe-4ff1-8a0d-5814448b276e" d="M129.63,7.52H41.85A33.08,33.08,0,0,0,8.78,40.59v60C23,92.18,75.81,67.11,162.7,98.8V40.59A33.08,33.08,0,0,0,129.63,7.52Z"/>
          <path class="f8b88206-6110-4b2a-b572-e0d75bad9b4f" d="M129.63,7.52H41.85A33.06,33.06,0,0,0,13.33,23.86a14.46,14.46,0,0,0-.14,7.32c2.52,10.09,5.77-9,18.38-13.69s24.15-3.61,67-3.25,47.57,4.33,53.34,15.14C157,38.92,159.87,45.93,162.7,41v-.41A33.08,33.08,0,0,0,129.63,7.52Z"/>
          <rect class="b93fcc0b-5a06-41ba-a3c6-825e26532d9d" x="20.59" y="19.34" width="130.29" height="130.29" rx="27.99"/>
          <rect class="bb32d859-bcae-496e-863b-7f8757abde2d" x="18.43" y="17.18" width="134.62" height="134.62" rx="28.92"/>
          <rect class="b33d1dd5-306e-4d34-aa65-6af6bf77074b" x="20.59" y="19.34" width="130.29" height="130.29" rx="27.99"/>
          <rect class="f1e8acae-6bd5-4df1-8a5c-95d99ec02e91" x="24.3" y="24.76" width="122.87" height="122.87" rx="26.4"/>
          <path class="abd7620e-be42-4ad2-b65b-fef01c45bd08" d="M134.81,10.3c0,.57-17.43,1-38.93,1S57,10.87,57,10.3s17.43-1,38.93-1S134.81,9.72,134.81,10.3Z"/>
          <path class="abd7620e-be42-4ad2-b65b-fef01c45bd08" d="M140.85,10.82c0,.52-.93.93-2.08.93s-2.08-.41-2.08-.93.93-.94,2.08-.94S140.85,10.3,140.85,10.82Z"/>
          <path class="b64a10c0-194d-4136-8a1e-5b392fa86ffd" d="M162.5,132c-5.2,14-13.45,22.85-22.53,24.61-12.78,2.47-73.79,5.36-101.82,1.65-17.4-2.3-25.59-17-29.3-27.8a33.07,33.07,0,0,0,33,31h87.78A33.06,33.06,0,0,0,162.5,132Z"/>
          <path class="e6ebaa28-f8a6-4c92-a022-124ee6f07db5" d="M117.29,154.38c0,1.11-13.51,2-30.18,2s-30.17-.91-30.17-2,13.51-2,30.17-2S117.29,153.26,117.29,154.38Z"/>
        </g>
        <g>
          <path class="fdc67a55-af7c-42f5-af93-63c96dce1178" d="M117.55,41.86a8.2,8.2,0,0,0-4.4-1.19H60.38a8.64,8.64,0,0,0-2.94.48,7.45,7.45,0,0,0-4,3.33,8.81,8.81,0,0,0-1,4.32v73h0a8.78,8.78,0,0,0,1.88,5.67,7.56,7.56,0,0,0,2.81,2.1,8.68,8.68,0,0,0,3,.68h.41a7.83,7.83,0,0,0,3.41-.74,7.57,7.57,0,0,0,3.71-3.94,11,11,0,0,0,.78-4.31V92.93H100.5a9.73,9.73,0,0,0,2.74-.37,7.5,7.5,0,0,0,4.09-3,8,8,0,0,0,1.3-4.5,9.47,9.47,0,0,0-.41-2.84,7.57,7.57,0,0,0-3.09-4.11,8.32,8.32,0,0,0-4.51-1.24h0L68.45,77V56.81h44.7a8.5,8.5,0,0,0,2.95-.5A7.37,7.37,0,0,0,120,53a8.79,8.79,0,0,0,1-4.27,9.2,9.2,0,0,0-.41-2.79A7.38,7.38,0,0,0,117.55,41.86Z"/>
          <path class="e4126b16-4106-4da7-b00b-7d81dfd36c3a" d="M115.56,39.88a8.12,8.12,0,0,0-4.4-1.2H58.4a8.66,8.66,0,0,0-2.94.49,7.3,7.3,0,0,0-4,3.33,8.65,8.65,0,0,0-1,4.32v73h0a8.76,8.76,0,0,0,1.88,5.67,7.42,7.42,0,0,0,2.8,2.1,8.5,8.5,0,0,0,3,.68h.41a7.94,7.94,0,0,0,3.41-.74,7.57,7.57,0,0,0,3.71-3.94,11.05,11.05,0,0,0,.79-4.32V91h32a9.88,9.88,0,0,0,2.75-.38,7.42,7.42,0,0,0,4.08-2.95,8,8,0,0,0,1.3-4.5,9.53,9.53,0,0,0-.41-2.85,7.47,7.47,0,0,0-3.09-4.1,8.15,8.15,0,0,0-4.51-1.24h0L66.47,75V54.83h44.69a8.74,8.74,0,0,0,3-.5A7.33,7.33,0,0,0,118,51a8.75,8.75,0,0,0,1-4.27,9.2,9.2,0,0,0-.41-2.79A7.39,7.39,0,0,0,115.56,39.88Z"/>
        </g>
      </g>
    </g>
  </g>
</svg>
