<svg xmlns="http://www.w3.org/2000/svg" xmlns:xlink="http://www.w3.org/1999/xlink" width="174" height="174" viewBox="0 0 174 174">
  <defs>
    <style>
      .a1562b41-cb17-471d-b42b-2b721686ae8e {
        isolation: isolate;
      }

      .f59360e3-26bb-4638-aed8-f02b4d1b6eb0 {
        opacity: 0.5;
      }

      .eb4f69ac-a102-4740-9671-8f66f8c40f7b {
        fill: #8d04af;
      }

      .b83e1670-b984-4146-8b7d-26517fa3a80f {
        fill: #c638f4;
      }

      .b2f4a4d7-a460-4311-b0fd-135d9cccaaaa {
        fill: #890370;
        opacity: 0.33;
      }

      .a3b5b79c-a94c-44ce-9aed-af55987807f2, .f7dfad16-002a-4f9e-a945-8ee07430ad58 {
        fill: #ff8af1;
      }

      .f7dfad16-002a-4f9e-a945-8ee07430ad58 {
        opacity: 0.19;
      }

      .abe6f8c3-1b3b-4d0b-9247-ee6a4962a7d5 {
        fill: #f1ff8f;
        opacity: 0.2;
        mix-blend-mode: lighten;
      }

      .ab4fe802-94c4-4705-9f64-3fbce6597ad8 {
        fill: url(#a05b197a-cb2f-4abd-83df-9d491ca29aa8);
      }

      .f90b73a5-9d30-4ab6-9ffe-15b594bdb949 {
        fill: #720082;
      }

      .a3b5b79c-a94c-44ce-9aed-af55987807f2 {
        opacity: 0.22;
      }

      .abbf84dc-0934-45be-bf5a-6466de15517f {
        fill: #fff;
      }

      .a23197a6-d42f-4e02-b97f-7e8a65e1b7fc {
        fill: #f2ea55;
        opacity: 0.44;
      }

      .bf7aad1c-d9d5-439f-b9b7-e06145aaa47f {
        opacity: 0.6;
      }

      .b5241f6e-3bb9-4ad0-b9e8-886d66a32474 {
        fill: #ff0;
      }
    </style>
    <linearGradient id="a05b197a-cb2f-4abd-83df-9d491ca29aa8" x1="85.52" y1="165.54" x2="85.96" y2="3.87" gradientUnits="userSpaceOnUse">
      <stop offset="0" stop-color="#ff5e0b"/>
      <stop offset="1" stop-color="#ff420a"/>
    </linearGradient>
  </defs>
  <g class="a1562b41-cb17-471d-b42b-2b721686ae8e">
    <g id="a7999acb-02c6-4ac0-907b-e1cd3bf099cf" data-name="Layer 1">
      <g>
        <rect class="f59360e3-26bb-4638-aed8-f02b4d1b6eb0" x="9.5" y="10.76" width="157.52" height="157.52" rx="33.84"/>
        <g>
          <rect class="eb4f69ac-a102-4740-9671-8f66f8c40f7b" x="6.98" y="5.72" width="157.52" height="157.52" rx="33.84"/>
          <rect class="b83e1670-b984-4146-8b7d-26517fa3a80f" x="8.78" y="7.52" width="153.92" height="153.92" rx="33.07"/>
          <path class="b2f4a4d7-a460-4311-b0fd-135d9cccaaaa" d="M152.73,136.6c-3.39,4.22-7.19,11-13.11,14.8s-25.38,4.65-52,3.38-34.68.85-46.53-1.27-17.34-10.15-24.53-21.57c-3.19-5.06-5.79-4.3-7.71-1.89a33.07,33.07,0,0,0,33,31.39h87.78A33.08,33.08,0,0,0,162,135.38C160.59,130.34,155.15,133.57,152.73,136.6Z"/>
          <path class="f7dfad16-002a-4f9e-a945-8ee07430ad58" d="M129.63,7.52H41.85A33.08,33.08,0,0,0,8.78,40.59v60C23,92.18,75.81,67.11,162.7,98.8V40.59A33.08,33.08,0,0,0,129.63,7.52Z"/>
          <path class="abe6f8c3-1b3b-4d0b-9247-ee6a4962a7d5" d="M129.63,7.52H41.85A33.06,33.06,0,0,0,13.33,23.86a14.46,14.46,0,0,0-.14,7.32c2.52,10.09,5.77-9,18.38-13.69s24.15-3.61,67-3.25,47.57,4.33,53.34,15.14C157,38.92,159.87,45.93,162.7,41v-.41A33.08,33.08,0,0,0,129.63,7.52Z"/>
          <rect class="ab4fe802-94c4-4705-9f64-3fbce6597ad8" x="20.59" y="19.34" width="130.29" height="130.29" rx="27.99"/>
          <rect class="f90b73a5-9d30-4ab6-9ffe-15b594bdb949" x="18.43" y="17.18" width="134.62" height="134.62" rx="28.92"/>
          <rect class="eb4f69ac-a102-4740-9671-8f66f8c40f7b" x="20.59" y="19.34" width="130.29" height="130.29" rx="27.99"/>
          <rect class="a3b5b79c-a94c-44ce-9aed-af55987807f2" x="24.3" y="24.76" width="122.87" height="122.87" rx="26.4"/>
          <path class="abbf84dc-0934-45be-bf5a-6466de15517f" d="M134.81,10.3c0,.57-17.43,1-38.93,1S57,10.87,57,10.3s17.43-1,38.93-1S134.81,9.72,134.81,10.3Z"/>
          <path class="abbf84dc-0934-45be-bf5a-6466de15517f" d="M140.85,10.82c0,.52-.93.93-2.08.93s-2.08-.41-2.08-.93.93-.94,2.08-.94S140.85,10.3,140.85,10.82Z"/>
          <path class="b2f4a4d7-a460-4311-b0fd-135d9cccaaaa" d="M162.5,132c-5.2,14-13.45,22.85-22.53,24.61-12.78,2.47-73.79,5.36-101.82,1.65-17.4-2.3-25.59-17-29.3-27.8a33.07,33.07,0,0,0,33,31h87.78A33.06,33.06,0,0,0,162.5,132Z"/>
          <path class="a23197a6-d42f-4e02-b97f-7e8a65e1b7fc" d="M117.29,154.38c0,1.11-13.51,2-30.18,2s-30.17-.91-30.17-2,13.51-2,30.17-2S117.29,153.26,117.29,154.38Z"/>
        </g>
        <g>
          <path class="bf7aad1c-d9d5-439f-b9b7-e06145aaa47f" d="M119.26,42.46a8.45,8.45,0,0,0-3.92-1.33h-.73a9.2,9.2,0,0,0-2.79.41,7.36,7.36,0,0,0-4,3.06,8.12,8.12,0,0,0-1.18,4.36V98l-41-52.87a7.86,7.86,0,0,0-2.91-2.63,8.54,8.54,0,0,0-3.92-.91l-.53,0h-.11a11.17,11.17,0,0,0-1.55.2h.07l-.23,0a7.42,7.42,0,0,0-3.21,1.61,6.71,6.71,0,0,0-1.88,2.66,7.58,7.58,0,0,0-.52,2.81A7.78,7.78,0,0,0,50.94,50v71.66a8.32,8.32,0,0,0,.48,2.88,7.17,7.17,0,0,0,3.29,3.83,8.59,8.59,0,0,0,4.17,1A9.61,9.61,0,0,0,61.6,129a7.25,7.25,0,0,0,4-2.94,7.89,7.89,0,0,0,1.24-4.38V72.19l41.38,54.19,0,0a9.41,9.41,0,0,0,2.55,2.31,7.55,7.55,0,0,0,3.86,1.08,7.85,7.85,0,0,0,3.9-1.06h0l0,0,.09-.05h0a7.64,7.64,0,0,0,3-3.06,8.54,8.54,0,0,0,.92-3.94V48.93a8.56,8.56,0,0,0-.43-2.73A7.34,7.34,0,0,0,119.26,42.46Z"/>
          <path class="b5241f6e-3bb9-4ad0-b9e8-886d66a32474" d="M117.32,40.52a8.48,8.48,0,0,0-3.92-1.33h-.73a9.2,9.2,0,0,0-2.79.41,7.33,7.33,0,0,0-4,3.06A8.12,8.12,0,0,0,104.72,47V96.05l-41-52.87a7.77,7.77,0,0,0-2.91-2.63,8.54,8.54,0,0,0-3.92-.91l-.53,0h-.11a11.17,11.17,0,0,0-1.55.2h.06l-.22,0a7.42,7.42,0,0,0-3.21,1.61,6.71,6.71,0,0,0-1.88,2.66A7.58,7.58,0,0,0,48.93,47,9.69,9.69,0,0,0,49,48.07v71.66a8.58,8.58,0,0,0,.49,2.88,7.17,7.17,0,0,0,3.29,3.83,8.46,8.46,0,0,0,4.17,1,9.24,9.24,0,0,0,2.72-.38,7.25,7.25,0,0,0,4-2.94,7.89,7.89,0,0,0,1.24-4.38V70.25l41.38,54.19,0,0a9.51,9.51,0,0,0,2.54,2.31,7.61,7.61,0,0,0,3.87,1.08,7.85,7.85,0,0,0,3.9-1.06h0l0,0,.09,0h0a7.55,7.55,0,0,0,3-3.06,8.43,8.43,0,0,0,.93-3.94V47a8.56,8.56,0,0,0-.43-2.73A7.3,7.3,0,0,0,117.32,40.52Z"/>
        </g>
      </g>
    </g>
  </g>
</svg>
