<svg xmlns="http://www.w3.org/2000/svg" xmlns:xlink="http://www.w3.org/1999/xlink" width="174" height="174" viewBox="0 0 174 174">
  <defs>
    <style>
      .e3103d02-6ebe-454c-bf8a-7fe12db8e510 {
        isolation: isolate;
      }

      .f206be13-1dab-4639-b670-711b07e645bb {
        opacity: 0.5;
      }

      .b27eb483-cc3c-42f6-a394-f121f8063c3c {
        fill: #8d04af;
      }

      .a8e954fd-3225-4761-ad61-f669216a00ba {
        fill: #c638f4;
      }

      .f4a3f31d-4c49-4dda-b03d-b7a011db0084 {
        fill: #890370;
        opacity: 0.33;
      }

      .a4a64c26-c293-4e0c-a040-cbd6f4d2b98b, .bb069472-92be-4bf3-b60d-9c00af071801 {
        fill: #ff8af1;
      }

      .bb069472-92be-4bf3-b60d-9c00af071801 {
        opacity: 0.19;
      }

      .ab08b444-8b45-4717-a13d-78dc32a29bd8 {
        fill: #f1ff8f;
        opacity: 0.2;
        mix-blend-mode: lighten;
      }

      .b7aec22a-7c99-4d70-8cff-a5b7123be2ad {
        fill: url(#fe958a27-9e23-42ac-8dcc-f3e97e5bb404);
      }

      .f78aa8e3-8e36-4f12-8acd-3455af42c003 {
        fill: #720082;
      }

      .a4a64c26-c293-4e0c-a040-cbd6f4d2b98b {
        opacity: 0.22;
      }

      .b6f314a4-160c-462f-b079-3004ce7a558a {
        fill: #fff;
      }

      .bacfed11-9200-45fb-8833-384c9654ba24 {
        fill: #f2ea55;
        opacity: 0.44;
      }

      .bb3fed3b-df3b-4af9-8ff6-5cd2f35eb98a {
        opacity: 0.6;
      }

      .bb64b58d-99e5-40c5-bcc5-96747075e033 {
        fill: #ff0;
      }
    </style>
    <linearGradient id="fe958a27-9e23-42ac-8dcc-f3e97e5bb404" x1="85.52" y1="165.54" x2="85.96" y2="3.87" gradientUnits="userSpaceOnUse">
      <stop offset="0" stop-color="#ff5e0b"/>
      <stop offset="1" stop-color="#ff420a"/>
    </linearGradient>
  </defs>
  <g class="e3103d02-6ebe-454c-bf8a-7fe12db8e510">
    <g id="b93a5f84-80a6-4199-ab69-da2a80f49199" data-name="Layer 1">
      <g>
        <rect class="f206be13-1dab-4639-b670-711b07e645bb" x="9.5" y="10.76" width="157.52" height="157.52" rx="33.84"/>
        <g>
          <rect class="b27eb483-cc3c-42f6-a394-f121f8063c3c" x="6.98" y="5.72" width="157.52" height="157.52" rx="33.84"/>
          <rect class="a8e954fd-3225-4761-ad61-f669216a00ba" x="8.78" y="7.52" width="153.92" height="153.92" rx="33.07"/>
          <path class="f4a3f31d-4c49-4dda-b03d-b7a011db0084" d="M152.73,136.6c-3.39,4.22-7.19,11-13.11,14.8s-25.38,4.65-52,3.38-34.68.85-46.53-1.27-17.34-10.15-24.53-21.57c-3.19-5.06-5.79-4.3-7.71-1.89a33.07,33.07,0,0,0,33,31.39h87.78A33.08,33.08,0,0,0,162,135.38C160.59,130.34,155.15,133.57,152.73,136.6Z"/>
          <path class="bb069472-92be-4bf3-b60d-9c00af071801" d="M129.63,7.52H41.85A33.08,33.08,0,0,0,8.78,40.59v60C23,92.18,75.81,67.11,162.7,98.8V40.59A33.08,33.08,0,0,0,129.63,7.52Z"/>
          <path class="ab08b444-8b45-4717-a13d-78dc32a29bd8" d="M129.63,7.52H41.85A33.06,33.06,0,0,0,13.33,23.86a14.46,14.46,0,0,0-.14,7.32c2.52,10.09,5.77-9,18.38-13.69s24.15-3.61,67-3.25,47.57,4.33,53.34,15.14C157,38.92,159.87,45.93,162.7,41v-.41A33.08,33.08,0,0,0,129.63,7.52Z"/>
          <rect class="b7aec22a-7c99-4d70-8cff-a5b7123be2ad" x="20.59" y="19.34" width="130.29" height="130.29" rx="27.99"/>
          <rect class="f78aa8e3-8e36-4f12-8acd-3455af42c003" x="18.43" y="17.18" width="134.62" height="134.62" rx="28.92"/>
          <rect class="b27eb483-cc3c-42f6-a394-f121f8063c3c" x="20.59" y="19.34" width="130.29" height="130.29" rx="27.99"/>
          <rect class="a4a64c26-c293-4e0c-a040-cbd6f4d2b98b" x="24.3" y="24.76" width="122.87" height="122.87" rx="26.4"/>
          <path class="b6f314a4-160c-462f-b079-3004ce7a558a" d="M134.81,10.3c0,.57-17.43,1-38.93,1S57,10.87,57,10.3s17.43-1,38.93-1S134.81,9.72,134.81,10.3Z"/>
          <path class="b6f314a4-160c-462f-b079-3004ce7a558a" d="M140.85,10.82c0,.52-.93.93-2.08.93s-2.08-.41-2.08-.93.93-.94,2.08-.94S140.85,10.3,140.85,10.82Z"/>
          <path class="f4a3f31d-4c49-4dda-b03d-b7a011db0084" d="M162.5,132c-5.2,14-13.45,22.85-22.53,24.61-12.78,2.47-73.79,5.36-101.82,1.65-17.4-2.3-25.59-17-29.3-27.8a33.07,33.07,0,0,0,33,31h87.78A33.06,33.06,0,0,0,162.5,132Z"/>
          <path class="bacfed11-9200-45fb-8833-384c9654ba24" d="M117.29,154.38c0,1.11-13.51,2-30.18,2s-30.17-.91-30.17-2,13.51-2,30.17-2S117.29,153.26,117.29,154.38Z"/>
        </g>
        <g>
          <path class="bb3fed3b-df3b-4af9-8ff6-5cd2f35eb98a" d="M109.06,51.62h0a22.89,22.89,0,0,0-17.76-7.67H65.81a7.81,7.81,0,0,0-5.08,1.66,6.62,6.62,0,0,0-1.91,2.61A7.36,7.36,0,0,0,58.31,51v68.53a8.28,8.28,0,0,0,.38,2.56,6.71,6.71,0,0,0,2.86,3.66,7.52,7.52,0,0,0,3.8,1.06h.58a7.71,7.71,0,0,0,2.62-.43,6.68,6.68,0,0,0,3.58-3,7.76,7.76,0,0,0,1-3.87V92.63h18a25,25,0,0,0,10-1.94,22.32,22.32,0,0,0,8-5.88A24.65,24.65,0,0,0,115,68.17a24.49,24.49,0,0,0-5.87-16.53ZM95,76.9a9.43,9.43,0,0,1-3.89.73h-18v-19H91c3.23.06,5,.9,6.85,2.82a9.59,9.59,0,0,1,2.31,6.7,9.36,9.36,0,0,1-2.32,6.59l0,0,0,0A7.79,7.79,0,0,1,95,76.9Z"/>
          <path class="bb64b58d-99e5-40c5-bcc5-96747075e033" d="M107.29,49.85h0a22.9,22.9,0,0,0-17.77-7.68H64A7.82,7.82,0,0,0,59,43.82a6.63,6.63,0,0,0-1.91,2.62,7.38,7.38,0,0,0-.52,2.77v68.53a8.06,8.06,0,0,0,.39,2.56A6.77,6.77,0,0,0,59.77,124,7.56,7.56,0,0,0,63.58,125l.58,0a7.71,7.71,0,0,0,2.62-.43,6.68,6.68,0,0,0,3.58-3,7.89,7.89,0,0,0,1-3.87V90.86h18a25,25,0,0,0,10-1.93,22.35,22.35,0,0,0,8-5.89,24.62,24.62,0,0,0,5.87-16.64,24.51,24.51,0,0,0-5.87-16.53ZM93.24,75.13a9.38,9.38,0,0,1-3.88.73h-18v-19H89.24c3.24.07,5.06.91,6.86,2.83a9.52,9.52,0,0,1,2.3,6.69,9.4,9.4,0,0,1-2.31,6.6l0,0,0,0A7.55,7.55,0,0,1,93.24,75.13Z"/>
        </g>
      </g>
    </g>
  </g>
</svg>
