<svg xmlns="http://www.w3.org/2000/svg" xmlns:xlink="http://www.w3.org/1999/xlink" width="174" height="174" viewBox="0 0 174 174">
  <defs>
    <style>
      .fbbd84ad-1180-4234-9165-741cfebe9e9a {
        isolation: isolate;
      }

      .a1b89962-b7d8-4284-845a-3ebd7c4f3988 {
        opacity: 0.5;
      }

      .a2d95f30-e33a-47c8-8c63-c2e22c690343 {
        fill: #8d04af;
      }

      .b8414e79-a0d3-46d0-9b23-947c8398dd87 {
        fill: #c638f4;
      }

      .a5ce701e-b69f-4731-8742-c5cc3dc82d9f {
        fill: #890370;
        opacity: 0.33;
      }

      .b517cb50-438c-4419-91b5-6125feccf608, .b7528a82-ee41-4fa4-967f-f25411d510f3 {
        fill: #ff8af1;
      }

      .b517cb50-438c-4419-91b5-6125feccf608 {
        opacity: 0.19;
      }

      .aaf41723-fc59-43f9-a9c0-81fc35c05607 {
        fill: #f1ff8f;
        opacity: 0.2;
        mix-blend-mode: lighten;
      }

      .a6e1ccc6-96fd-46c2-aa28-a6fdf1ffc56d {
        fill: url(#fecbe745-64e2-4819-9e9f-4b546232df2a);
      }

      .abd1e6a6-ed5e-488b-9214-2d28a75b793a {
        fill: #720082;
      }

      .b7528a82-ee41-4fa4-967f-f25411d510f3 {
        opacity: 0.22;
      }

      .ac20fcda-8182-4cb4-be8e-033dcaf20eb6 {
        fill: #fff;
      }

      .ef1fc90c-4ff0-44a9-b18c-1f4998ff9cd7 {
        fill: #f2ea55;
        opacity: 0.44;
      }

      .a85094e8-0588-4614-8ff5-652e66ef78b2 {
        opacity: 0.6;
      }

      .aaa557dc-9899-4acc-a188-9cc25a81223b {
        fill: #ff0;
      }
    </style>
    <linearGradient id="fecbe745-64e2-4819-9e9f-4b546232df2a" x1="85.52" y1="165.54" x2="85.96" y2="3.87" gradientUnits="userSpaceOnUse">
      <stop offset="0" stop-color="#ff5e0b"/>
      <stop offset="1" stop-color="#ff420a"/>
    </linearGradient>
  </defs>
  <g class="fbbd84ad-1180-4234-9165-741cfebe9e9a">
    <g id="ad9839b1-6c35-4eb8-a0c2-f55615a2d357" data-name="Layer 1">
      <g>
        <rect class="a1b89962-b7d8-4284-845a-3ebd7c4f3988" x="9.5" y="10.76" width="157.52" height="157.52" rx="33.84"/>
        <g>
          <rect class="a2d95f30-e33a-47c8-8c63-c2e22c690343" x="6.98" y="5.72" width="157.52" height="157.52" rx="33.84"/>
          <rect class="b8414e79-a0d3-46d0-9b23-947c8398dd87" x="8.78" y="7.52" width="153.92" height="153.92" rx="33.07"/>
          <path class="a5ce701e-b69f-4731-8742-c5cc3dc82d9f" d="M152.73,136.6c-3.39,4.22-7.19,11-13.11,14.8s-25.38,4.65-52,3.38-34.68.85-46.53-1.27-17.34-10.15-24.53-21.57c-3.19-5.06-5.79-4.3-7.71-1.89a33.07,33.07,0,0,0,33,31.39h87.78A33.08,33.08,0,0,0,162,135.38C160.59,130.34,155.15,133.57,152.73,136.6Z"/>
          <path class="b517cb50-438c-4419-91b5-6125feccf608" d="M129.63,7.52H41.85A33.08,33.08,0,0,0,8.78,40.59v60C23,92.18,75.81,67.11,162.7,98.8V40.59A33.08,33.08,0,0,0,129.63,7.52Z"/>
          <path class="aaf41723-fc59-43f9-a9c0-81fc35c05607" d="M129.63,7.52H41.85A33.06,33.06,0,0,0,13.33,23.86a14.46,14.46,0,0,0-.14,7.32c2.52,10.09,5.77-9,18.38-13.69s24.15-3.61,67-3.25,47.57,4.33,53.34,15.14C157,38.92,159.87,45.93,162.7,41v-.41A33.08,33.08,0,0,0,129.63,7.52Z"/>
          <rect class="a6e1ccc6-96fd-46c2-aa28-a6fdf1ffc56d" x="20.59" y="19.34" width="130.29" height="130.29" rx="27.99"/>
          <rect class="abd1e6a6-ed5e-488b-9214-2d28a75b793a" x="18.43" y="17.18" width="134.62" height="134.62" rx="28.92"/>
          <rect class="a2d95f30-e33a-47c8-8c63-c2e22c690343" x="20.59" y="19.34" width="130.29" height="130.29" rx="27.99"/>
          <rect class="b7528a82-ee41-4fa4-967f-f25411d510f3" x="24.3" y="24.76" width="122.87" height="122.87" rx="26.4"/>
          <path class="ac20fcda-8182-4cb4-be8e-033dcaf20eb6" d="M134.81,10.3c0,.57-17.43,1-38.93,1S57,10.87,57,10.3s17.43-1,38.93-1S134.81,9.72,134.81,10.3Z"/>
          <path class="ac20fcda-8182-4cb4-be8e-033dcaf20eb6" d="M140.85,10.82c0,.52-.93.93-2.08.93s-2.08-.41-2.08-.93.93-.94,2.08-.94S140.85,10.3,140.85,10.82Z"/>
          <path class="a5ce701e-b69f-4731-8742-c5cc3dc82d9f" d="M162.5,132c-5.2,14-13.45,22.85-22.53,24.61-12.78,2.47-73.79,5.36-101.82,1.65-17.4-2.3-25.59-17-29.3-27.8a33.07,33.07,0,0,0,33,31h87.78A33.06,33.06,0,0,0,162.5,132Z"/>
          <path class="ef1fc90c-4ff0-44a9-b18c-1f4998ff9cd7" d="M117.29,154.38c0,1.11-13.51,2-30.18,2s-30.17-.91-30.17-2,13.51-2,30.17-2S117.29,153.26,117.29,154.38Z"/>
        </g>
        <g>
          <path class="a85094e8-0588-4614-8ff5-652e66ef78b2" d="M108.52,54.28l0,0h0c-8.71-7.33-20-10.88-33-10.85H60.66a9.59,9.59,0,0,0-6.48,2.48,10.1,10.1,0,0,0-2,2.32,7.07,7.07,0,0,0-1,3.64v68.65a6,6,0,0,0,1.42,3.85,7.72,7.72,0,0,0,2.17,1.79,10.12,10.12,0,0,0,5.09,1.31h16c12.8,0,24-3.6,32.64-11l0,0a38.34,38.34,0,0,0,10.22-13.71,42.66,42.66,0,0,0,3.38-17.28A43.06,43.06,0,0,0,118.78,68,37.6,37.6,0,0,0,108.52,54.28ZM98,104.83c-5.67,4.91-12.68,7.41-21.93,7.44H74l-.11.11H72.25c-1.5,0-3.49,0-5.94,0q0-7.3-.09-25.51V58.43c4.22,0,7.53,0,10-.1,9.68,0,16.74,2.54,22.1,7.29a23.33,23.33,0,0,1,6.09,8.46,28.85,28.85,0,0,1,2.07,11.28,27.13,27.13,0,0,1-2.13,11A23.84,23.84,0,0,1,98,104.83Zm3.27,3.76.48.54h0Z"/>
          <path class="aaa557dc-9899-4acc-a188-9cc25a81223b" d="M106.65,52.42l0,0h0c-8.71-7.33-20-10.88-33-10.86H58.79A9.63,9.63,0,0,0,52.31,44a10,10,0,0,0-2,2.31,7.11,7.11,0,0,0-1,3.65v68.65a6.07,6.07,0,0,0,1.41,3.85,8,8,0,0,0,2.17,1.79,10.07,10.07,0,0,0,5.1,1.3H74c12.81,0,24-3.59,32.65-11l0,0a38.26,38.26,0,0,0,10.21-13.72,42.8,42.8,0,0,0,3.39-17.28,43.34,43.34,0,0,0-3.39-17.42A37.65,37.65,0,0,0,106.65,52.42ZM96.1,103c-5.67,4.91-12.67,7.41-21.93,7.44H72.11l-.11.11H70.38c-1.5,0-3.48,0-5.93,0q0-7.31-.1-25.5V56.57c4.22,0,7.54,0,10-.11,9.68,0,16.73,2.55,22.09,7.29a23.18,23.18,0,0,1,6.09,8.46,28.89,28.89,0,0,1,2.07,11.28,27,27,0,0,1-2.12,11A24.08,24.08,0,0,1,96.1,103Zm3.28,3.76.48.54h0Z"/>
        </g>
      </g>
    </g>
  </g>
</svg>
