<svg xmlns="http://www.w3.org/2000/svg" xmlns:xlink="http://www.w3.org/1999/xlink" width="174" height="174" viewBox="0 0 174 174">
  <defs>
    <style>
      .fb41664a-8e3e-4359-b71d-db042424bcfc {
        isolation: isolate;
      }

      .fb5a7aa8-cfdd-4b8c-88a6-2d385f41c637 {
        opacity: 0.5;
      }

      .b4c881a5-c7eb-4546-b91e-38906fed0865 {
        fill: #8d04af;
      }

      .b95bacff-c49c-4df9-b699-a838e3030eef {
        fill: #c638f4;
      }

      .bd7f70c1-cbef-4e1a-8f5d-fb485bbe7766 {
        fill: #890370;
        opacity: 0.33;
      }

      .bf605b0a-b4e5-479a-9f6d-cac5b75f079c, .ed31872f-7805-4e50-9ce7-3cbc68c9beec {
        fill: #ff8af1;
      }

      .bf605b0a-b4e5-479a-9f6d-cac5b75f079c {
        opacity: 0.19;
      }

      .eb889a3e-d002-4be7-b825-c722ed9d7e84 {
        fill: #f1ff8f;
        opacity: 0.2;
        mix-blend-mode: lighten;
      }

      .eaa88460-a4df-4512-bf4c-887135149eea {
        fill: url(#b22680d0-3c44-48f9-a514-cd050a702a6c);
      }

      .bb7c5367-91ff-4bfd-b56a-f20d6ec010b1 {
        fill: #720082;
      }

      .ed31872f-7805-4e50-9ce7-3cbc68c9beec {
        opacity: 0.22;
      }

      .f9649281-e0fc-44ed-aadd-453b93b50fa5 {
        fill: #fff;
      }

      .aa39a32a-7c8a-4d0f-9648-f5e90ed7c3d4 {
        fill: #f2ea55;
        opacity: 0.44;
      }

      .e2aa2a55-af27-42ea-a632-c7651f671b16 {
        opacity: 0.6;
      }

      .ebfd8a53-7653-43a2-9d6e-0631f9da3862 {
        fill: #ff0;
      }
    </style>
    <linearGradient id="b22680d0-3c44-48f9-a514-cd050a702a6c" x1="85.52" y1="165.54" x2="85.96" y2="3.87" gradientUnits="userSpaceOnUse">
      <stop offset="0" stop-color="#ff5e0b"/>
      <stop offset="1" stop-color="#ff420a"/>
    </linearGradient>
  </defs>
  <g class="fb41664a-8e3e-4359-b71d-db042424bcfc">
    <g id="e438fabb-2ca4-4137-8513-d857dfd1fcba" data-name="Layer 1">
      <g>
        <rect class="fb5a7aa8-cfdd-4b8c-88a6-2d385f41c637" x="9.5" y="10.76" width="157.52" height="157.52" rx="33.84"/>
        <g>
          <rect class="b4c881a5-c7eb-4546-b91e-38906fed0865" x="6.98" y="5.72" width="157.52" height="157.52" rx="33.84"/>
          <rect class="b95bacff-c49c-4df9-b699-a838e3030eef" x="8.78" y="7.52" width="153.92" height="153.92" rx="33.07"/>
          <path class="bd7f70c1-cbef-4e1a-8f5d-fb485bbe7766" d="M152.73,136.6c-3.39,4.22-7.19,11-13.11,14.8s-25.38,4.65-52,3.38-34.68.85-46.53-1.27-17.34-10.15-24.53-21.57c-3.19-5.06-5.79-4.3-7.71-1.89a33.07,33.07,0,0,0,33,31.39h87.78A33.08,33.08,0,0,0,162,135.38C160.59,130.34,155.15,133.57,152.73,136.6Z"/>
          <path class="bf605b0a-b4e5-479a-9f6d-cac5b75f079c" d="M129.63,7.52H41.85A33.08,33.08,0,0,0,8.78,40.59v60C23,92.18,75.81,67.11,162.7,98.8V40.59A33.08,33.08,0,0,0,129.63,7.52Z"/>
          <path class="eb889a3e-d002-4be7-b825-c722ed9d7e84" d="M129.63,7.52H41.85A33.06,33.06,0,0,0,13.33,23.86a14.46,14.46,0,0,0-.14,7.32c2.52,10.09,5.77-9,18.38-13.69s24.15-3.61,67-3.25,47.57,4.33,53.34,15.14C157,38.92,159.87,45.93,162.7,41v-.41A33.08,33.08,0,0,0,129.63,7.52Z"/>
          <rect class="eaa88460-a4df-4512-bf4c-887135149eea" x="20.59" y="19.34" width="130.29" height="130.29" rx="27.99"/>
          <rect class="bb7c5367-91ff-4bfd-b56a-f20d6ec010b1" x="18.43" y="17.18" width="134.62" height="134.62" rx="28.92"/>
          <rect class="b4c881a5-c7eb-4546-b91e-38906fed0865" x="20.59" y="19.34" width="130.29" height="130.29" rx="27.99"/>
          <rect class="ed31872f-7805-4e50-9ce7-3cbc68c9beec" x="24.3" y="24.76" width="122.87" height="122.87" rx="26.4"/>
          <path class="f9649281-e0fc-44ed-aadd-453b93b50fa5" d="M134.81,10.3c0,.57-17.43,1-38.93,1S57,10.87,57,10.3s17.43-1,38.93-1S134.81,9.72,134.81,10.3Z"/>
          <path class="f9649281-e0fc-44ed-aadd-453b93b50fa5" d="M140.85,10.82c0,.52-.93.93-2.08.93s-2.08-.41-2.08-.93.93-.94,2.08-.94S140.85,10.3,140.85,10.82Z"/>
          <path class="bd7f70c1-cbef-4e1a-8f5d-fb485bbe7766" d="M162.5,132c-5.2,14-13.45,22.85-22.53,24.61-12.78,2.47-73.79,5.36-101.82,1.65-17.4-2.3-25.59-17-29.3-27.8a33.07,33.07,0,0,0,33,31h87.78A33.06,33.06,0,0,0,162.5,132Z"/>
          <path class="aa39a32a-7c8a-4d0f-9648-f5e90ed7c3d4" d="M117.29,154.38c0,1.11-13.51,2-30.18,2s-30.17-.91-30.17-2,13.51-2,30.17-2S117.29,153.26,117.29,154.38Z"/>
        </g>
        <g>
          <path class="e2aa2a55-af27-42ea-a632-c7651f671b16" d="M96.62,85.38,121.2,54.59a7.81,7.81,0,0,0-1.24-11h0a7.8,7.8,0,0,0-11,1.24l-22.36,28-22.36-28a7.8,7.8,0,0,0-11-1.24h0a7.8,7.8,0,0,0-1.23,11L76.66,85.38l-24.57,30.8a7.79,7.79,0,0,0,1.23,11h0a7.79,7.79,0,0,0,11-1.23l22.36-28,22.36,28a7.79,7.79,0,0,0,11,1.23h0a7.8,7.8,0,0,0,1.24-11Z"/>
          <path class="ebfd8a53-7653-43a2-9d6e-0631f9da3862" d="M94.82,83.58,119.4,52.79a7.8,7.8,0,0,0-1.23-11h0a7.8,7.8,0,0,0-11,1.23l-22.36,28-22.36-28a7.79,7.79,0,0,0-11-1.23h0a7.79,7.79,0,0,0-1.23,11L74.86,83.58l-24.57,30.8a7.79,7.79,0,0,0,1.23,11h0a7.79,7.79,0,0,0,11-1.23l22.36-28,22.36,28a7.8,7.8,0,0,0,11,1.23h0a7.8,7.8,0,0,0,1.23-11Z"/>
        </g>
      </g>
    </g>
  </g>
</svg>
