<svg xmlns="http://www.w3.org/2000/svg" xmlns:xlink="http://www.w3.org/1999/xlink" width="174" height="174" viewBox="0 0 174 174">
  <defs>
    <style>
      .a0942df4-4d94-41df-81dc-32cfeefed311 {
        isolation: isolate;
      }

      .b3007331-fa93-48bb-8000-9558efad8240 {
        opacity: 0.5;
      }

      .f2ade60c-08a9-41bb-88c6-51e910d4956e {
        fill: #8d04af;
      }

      .fe92c660-2625-438e-a16d-52c92351cb23 {
        fill: #c638f4;
      }

      .ac9b3234-86fc-47e8-9e92-41dfaa19f1d9 {
        fill: #890370;
        opacity: 0.33;
      }

      .a64ff1b3-a96d-4cc6-a259-96f8002d8e8f, .b1717ff0-6bfb-4962-9b83-119de34be9ab {
        fill: #ff8af1;
      }

      .a64ff1b3-a96d-4cc6-a259-96f8002d8e8f {
        opacity: 0.19;
      }

      .e4bd8569-f331-4056-a873-59a3db3c89fe {
        fill: #f1ff8f;
        opacity: 0.2;
        mix-blend-mode: lighten;
      }

      .f4d0b760-24f9-4dbf-a3a6-11c31e4758dd {
        fill: url(#b6f618ef-23f9-4b92-a459-df202b3faa6d);
      }

      .b0404e2c-f8d7-40cb-8a75-95f37f2b263a {
        fill: #720082;
      }

      .b1717ff0-6bfb-4962-9b83-119de34be9ab {
        opacity: 0.22;
      }

      .a2444f31-4ac5-499b-85a3-19eabdb845bb {
        fill: #fff;
      }

      .f2c43e53-5601-4e16-9612-b46943773f2f {
        fill: #f2ea55;
        opacity: 0.44;
      }

      .f624d745-b1d7-46ab-bc4e-6be2837d11d9 {
        opacity: 0.6;
      }

      .f1dff1bc-9f7e-474f-9df0-04fc44c82f9a {
        fill: #ff0;
      }
    </style>
    <linearGradient id="b6f618ef-23f9-4b92-a459-df202b3faa6d" x1="85.52" y1="165.54" x2="85.96" y2="3.87" gradientUnits="userSpaceOnUse">
      <stop offset="0" stop-color="#ff5e0b"/>
      <stop offset="1" stop-color="#ff420a"/>
    </linearGradient>
  </defs>
  <g class="a0942df4-4d94-41df-81dc-32cfeefed311">
    <g id="ad0608f9-e43b-4464-bea8-6af208735b5a" data-name="Layer 1">
      <g>
        <rect class="b3007331-fa93-48bb-8000-9558efad8240" x="9.5" y="10.76" width="157.52" height="157.52" rx="33.84"/>
        <g>
          <rect class="f2ade60c-08a9-41bb-88c6-51e910d4956e" x="6.98" y="5.72" width="157.52" height="157.52" rx="33.84"/>
          <rect class="fe92c660-2625-438e-a16d-52c92351cb23" x="8.78" y="7.52" width="153.92" height="153.92" rx="33.07"/>
          <path class="ac9b3234-86fc-47e8-9e92-41dfaa19f1d9" d="M152.73,136.6c-3.39,4.22-7.19,11-13.11,14.8s-25.38,4.65-52,3.38-34.68.85-46.53-1.27-17.34-10.15-24.53-21.57c-3.19-5.06-5.79-4.3-7.71-1.89a33.07,33.07,0,0,0,33,31.39h87.78A33.08,33.08,0,0,0,162,135.38C160.59,130.34,155.15,133.57,152.73,136.6Z"/>
          <path class="a64ff1b3-a96d-4cc6-a259-96f8002d8e8f" d="M129.63,7.52H41.85A33.08,33.08,0,0,0,8.78,40.59v60C23,92.18,75.81,67.11,162.7,98.8V40.59A33.08,33.08,0,0,0,129.63,7.52Z"/>
          <path class="e4bd8569-f331-4056-a873-59a3db3c89fe" d="M129.63,7.52H41.85A33.06,33.06,0,0,0,13.33,23.86a14.46,14.46,0,0,0-.14,7.32c2.52,10.09,5.77-9,18.38-13.69s24.15-3.61,67-3.25,47.57,4.33,53.34,15.14C157,38.92,159.87,45.93,162.7,41v-.41A33.08,33.08,0,0,0,129.63,7.52Z"/>
          <rect class="f4d0b760-24f9-4dbf-a3a6-11c31e4758dd" x="20.59" y="19.34" width="130.29" height="130.29" rx="27.99"/>
          <rect class="b0404e2c-f8d7-40cb-8a75-95f37f2b263a" x="18.43" y="17.18" width="134.62" height="134.62" rx="28.92"/>
          <rect class="f2ade60c-08a9-41bb-88c6-51e910d4956e" x="20.59" y="19.34" width="130.29" height="130.29" rx="27.99"/>
          <rect class="b1717ff0-6bfb-4962-9b83-119de34be9ab" x="24.3" y="24.76" width="122.87" height="122.87" rx="26.4"/>
          <path class="a2444f31-4ac5-499b-85a3-19eabdb845bb" d="M134.81,10.3c0,.57-17.43,1-38.93,1S57,10.87,57,10.3s17.43-1,38.93-1S134.81,9.72,134.81,10.3Z"/>
          <path class="a2444f31-4ac5-499b-85a3-19eabdb845bb" d="M140.85,10.82c0,.52-.93.93-2.08.93s-2.08-.41-2.08-.93.93-.94,2.08-.94S140.85,10.3,140.85,10.82Z"/>
          <path class="ac9b3234-86fc-47e8-9e92-41dfaa19f1d9" d="M162.5,132c-5.2,14-13.45,22.85-22.53,24.61-12.78,2.47-73.79,5.36-101.82,1.65-17.4-2.3-25.59-17-29.3-27.8a33.07,33.07,0,0,0,33,31h87.78A33.06,33.06,0,0,0,162.5,132Z"/>
          <path class="f2c43e53-5601-4e16-9612-b46943773f2f" d="M117.29,154.38c0,1.11-13.51,2-30.18,2s-30.17-.91-30.17-2,13.51-2,30.17-2S117.29,153.26,117.29,154.38Z"/>
        </g>
        <g>
          <path class="f624d745-b1d7-46ab-bc4e-6be2837d11d9" d="M115.82,114a7.82,7.82,0,0,0-4.29-1.21H69.86V92.62h30.51a8.53,8.53,0,0,0,2.73-.42,7.07,7.07,0,0,0,3.84-3A8.07,8.07,0,0,0,108,85a9,9,0,0,0-.4-2.72,7.15,7.15,0,0,0-3-3.9,7.93,7.93,0,0,0-4.27-1.15H69.74V58.09h41.67a8.21,8.21,0,0,0,2.82-.47A7,7,0,0,0,118,54.4a8.44,8.44,0,0,0,1-4.08,8.72,8.72,0,0,0-.39-2.67,7.09,7.09,0,0,0-3-3.85,7.8,7.8,0,0,0-4.2-1.14H61.85a7.9,7.9,0,0,0-2.88.51,7,7,0,0,0-3.73,3.31,8.65,8.65,0,0,0-.93,4.07v69.88a9,9,0,0,0,.4,2.72,7.19,7.19,0,0,0,3,3.9A7.93,7.93,0,0,0,62,128.2h49.56a8.51,8.51,0,0,0,2.75-.44,7.06,7.06,0,0,0,3.77-3.12,8.27,8.27,0,0,0,1-4.1,9.17,9.17,0,0,0-.38-2.65A7.11,7.11,0,0,0,115.82,114Z"/>
          <path class="f1dff1bc-9f7e-474f-9df0-04fc44c82f9a" d="M113.92,112.09a7.75,7.75,0,0,0-4.29-1.22H68V90.72H98.48a8.57,8.57,0,0,0,2.73-.42,7.08,7.08,0,0,0,3.83-3,8,8,0,0,0,1.09-4.18,8.73,8.73,0,0,0-.4-2.73,7.15,7.15,0,0,0-3-3.89,8,8,0,0,0-4.27-1.16H67.85V56.2h41.66a8.44,8.44,0,0,0,2.82-.48,7,7,0,0,0,3.75-3.21,8.39,8.39,0,0,0,1-4.09,8.72,8.72,0,0,0-.39-2.67,7,7,0,0,0-2.94-3.84,7.83,7.83,0,0,0-4.21-1.15H60a8.44,8.44,0,0,0-2.89.51,7.11,7.11,0,0,0-3.73,3.31,8.69,8.69,0,0,0-.92,4.08v69.87a8.71,8.71,0,0,0,.4,2.72,7.09,7.09,0,0,0,3,3.9,8,8,0,0,0,4.27,1.16h49.56a8.49,8.49,0,0,0,2.75-.45,6.94,6.94,0,0,0,3.77-3.12,8,8,0,0,0,1-4.09,9.16,9.16,0,0,0-.37-2.66A7.16,7.16,0,0,0,113.92,112.09Z"/>
        </g>
      </g>
    </g>
  </g>
</svg>
