<svg xmlns="http://www.w3.org/2000/svg" xmlns:xlink="http://www.w3.org/1999/xlink" width="174" height="174" viewBox="0 0 174 174">
  <defs>
    <style>
      .b54e396c-6bc9-4028-96e6-b2c5870c66c1 {
        isolation: isolate;
      }

      .ec611db6-c2e9-4072-ab34-9d4a38ef4b7f {
        opacity: 0.5;
      }

      .ae2511ec-b9e4-4801-b63b-2698aeafbf89 {
        fill: #8d04af;
      }

      .ecf51d84-c3db-4d03-a5b1-81e5da0920ba {
        fill: #c638f4;
      }

      .a3dd9ebe-e71f-46e2-a1af-bfe657ca8243 {
        fill: #890370;
        opacity: 0.33;
      }

      .bb9d7675-d9ec-475f-99c5-afaa1bb30a7d, .f7fd4eef-cd4a-4029-97b0-9a474560970c {
        fill: #ff8af1;
      }

      .f7fd4eef-cd4a-4029-97b0-9a474560970c {
        opacity: 0.19;
      }

      .a3e4d657-fe2a-4534-ba32-2de9c82b6c49 {
        fill: #f1ff8f;
        opacity: 0.2;
        mix-blend-mode: lighten;
      }

      .f1dba057-79f6-4195-a009-e69d147b1744 {
        fill: url(#f672bb9a-3b59-4341-bc48-4ffb958dd83a);
      }

      .b4ebbebf-9860-44ee-8af7-aea8d2eaef5f {
        fill: #720082;
      }

      .bb9d7675-d9ec-475f-99c5-afaa1bb30a7d {
        opacity: 0.22;
      }

      .fd1d485f-6701-4cdf-8606-1b88ccc6a163 {
        fill: #fff;
      }

      .faf02ef2-6d42-41f8-ad2c-9856a55c97cd {
        fill: #f2ea55;
        opacity: 0.44;
      }

      .afa1ae17-a8ce-4342-989b-077161c6a191 {
        opacity: 0.6;
      }

      .bd5a6a89-3e60-4d79-bb77-ce2dc5bd05d2 {
        fill: #ff0;
      }
    </style>
    <linearGradient id="f672bb9a-3b59-4341-bc48-4ffb958dd83a" x1="85.52" y1="165.54" x2="85.96" y2="3.87" gradientUnits="userSpaceOnUse">
      <stop offset="0" stop-color="#ff5e0b"/>
      <stop offset="1" stop-color="#ff420a"/>
    </linearGradient>
  </defs>
  <g class="b54e396c-6bc9-4028-96e6-b2c5870c66c1">
    <g id="f857afec-5bbc-4b32-b875-22744016b370" data-name="Layer 1">
      <g>
        <rect class="ec611db6-c2e9-4072-ab34-9d4a38ef4b7f" x="9.5" y="10.76" width="157.52" height="157.52" rx="33.84"/>
        <g>
          <rect class="ae2511ec-b9e4-4801-b63b-2698aeafbf89" x="6.98" y="5.72" width="157.52" height="157.52" rx="33.84"/>
          <rect class="ecf51d84-c3db-4d03-a5b1-81e5da0920ba" x="8.78" y="7.52" width="153.92" height="153.92" rx="33.07"/>
          <path class="a3dd9ebe-e71f-46e2-a1af-bfe657ca8243" d="M152.73,136.6c-3.39,4.22-7.19,11-13.11,14.8s-25.38,4.65-52,3.38-34.68.85-46.53-1.27-17.34-10.15-24.53-21.57c-3.19-5.06-5.79-4.3-7.71-1.89a33.07,33.07,0,0,0,33,31.39h87.78A33.08,33.08,0,0,0,162,135.38C160.59,130.34,155.15,133.57,152.73,136.6Z"/>
          <path class="f7fd4eef-cd4a-4029-97b0-9a474560970c" d="M129.63,7.52H41.85A33.08,33.08,0,0,0,8.78,40.59v60C23,92.18,75.81,67.11,162.7,98.8V40.59A33.08,33.08,0,0,0,129.63,7.52Z"/>
          <path class="a3e4d657-fe2a-4534-ba32-2de9c82b6c49" d="M129.63,7.52H41.85A33.06,33.06,0,0,0,13.33,23.86a14.46,14.46,0,0,0-.14,7.32c2.52,10.09,5.77-9,18.38-13.69s24.15-3.61,67-3.25,47.57,4.33,53.34,15.14C157,38.92,159.87,45.93,162.7,41v-.41A33.08,33.08,0,0,0,129.63,7.52Z"/>
          <rect class="f1dba057-79f6-4195-a009-e69d147b1744" x="20.59" y="19.34" width="130.29" height="130.29" rx="27.99"/>
          <rect class="b4ebbebf-9860-44ee-8af7-aea8d2eaef5f" x="18.43" y="17.18" width="134.62" height="134.62" rx="28.92"/>
          <rect class="ae2511ec-b9e4-4801-b63b-2698aeafbf89" x="20.59" y="19.34" width="130.29" height="130.29" rx="27.99"/>
          <rect class="bb9d7675-d9ec-475f-99c5-afaa1bb30a7d" x="24.3" y="24.76" width="122.87" height="122.87" rx="26.4"/>
          <path class="fd1d485f-6701-4cdf-8606-1b88ccc6a163" d="M134.81,10.3c0,.57-17.43,1-38.93,1S57,10.87,57,10.3s17.43-1,38.93-1S134.81,9.72,134.81,10.3Z"/>
          <path class="fd1d485f-6701-4cdf-8606-1b88ccc6a163" d="M140.85,10.82c0,.52-.93.93-2.08.93s-2.08-.41-2.08-.93.93-.94,2.08-.94S140.85,10.3,140.85,10.82Z"/>
          <path class="a3dd9ebe-e71f-46e2-a1af-bfe657ca8243" d="M162.5,132c-5.2,14-13.45,22.85-22.53,24.61-12.78,2.47-73.79,5.36-101.82,1.65-17.4-2.3-25.59-17-29.3-27.8a33.07,33.07,0,0,0,33,31h87.78A33.06,33.06,0,0,0,162.5,132Z"/>
          <path class="faf02ef2-6d42-41f8-ad2c-9856a55c97cd" d="M117.29,154.38c0,1.11-13.51,2-30.18,2s-30.17-.91-30.17-2,13.51-2,30.17-2S117.29,153.26,117.29,154.38Z"/>
        </g>
        <g>
          <path class="afa1ae17-a8ce-4342-989b-077161c6a191" d="M117,40.25a7.85,7.85,0,0,0-3.06-.59,11.33,11.33,0,0,0-1.18.07h-.12a8.06,8.06,0,0,0-2.63.77,7.52,7.52,0,0,0-3.38,3.38,8.78,8.78,0,0,0-.87,4V92.94a27.45,27.45,0,0,1-1.58,9.72,18.9,18.9,0,0,1-4.49,7l-.07.06a17.2,17.2,0,0,1-13,5.31,17.11,17.11,0,0,1-12.89-5.3c-3.82-4-5.85-9.23-5.89-16.87V47.74a8.83,8.83,0,0,0-.44-2.86,7.45,7.45,0,0,0-3.21-4,8.42,8.42,0,0,0-4.39-1.14,8.92,8.92,0,0,0-2.87.44,7.49,7.49,0,0,0-4,3.21,8.59,8.59,0,0,0-1.14,4.39V92.82c0,11.35,3.5,21.3,10.73,28.59l0,0a33.14,33.14,0,0,0,24,9.74,33.6,33.6,0,0,0,24.12-9.71l0,0c7.34-7.2,11-17.15,10.9-28.52V47.87a8.55,8.55,0,0,0-1.75-5.49A7.16,7.16,0,0,0,117,40.25Z"/>
          <path class="bd5a6a89-3e60-4d79-bb77-ce2dc5bd05d2" d="M115.13,38.35a8.07,8.07,0,0,0-3.06-.59,9.26,9.26,0,0,0-1.19.08h-.12a8.37,8.37,0,0,0-2.62.78A7.41,7.41,0,0,0,104.76,42a8.93,8.93,0,0,0-.88,4V91.05a27.53,27.53,0,0,1-1.58,9.72,18.84,18.84,0,0,1-4.48,7l-.07.07a17.23,17.23,0,0,1-13,5.3,17.06,17.06,0,0,1-12.89-5.3C68,103.79,66,98.56,66,90.92V45.85A9.21,9.21,0,0,0,65.52,43a7.46,7.46,0,0,0-3.22-4,8.49,8.49,0,0,0-4.39-1.14,8.93,8.93,0,0,0-2.86.45,7.37,7.37,0,0,0-4,3.21,8.37,8.37,0,0,0-1.14,4.39V90.92c0,11.35,3.5,21.31,10.72,28.59l.06.06a33.18,33.18,0,0,0,24,9.74,33.6,33.6,0,0,0,24.12-9.71l0,0c7.34-7.21,11-17.16,10.9-28.52V46A8.6,8.6,0,0,0,118,40.49,7.18,7.18,0,0,0,115.13,38.35Z"/>
        </g>
      </g>
    </g>
  </g>
</svg>
