<svg xmlns="http://www.w3.org/2000/svg" xmlns:xlink="http://www.w3.org/1999/xlink" width="174" height="174" viewBox="0 0 174 174">
  <defs>
    <style>
      .a137304f-b515-4887-a994-b3bebc4e1a96 {
        isolation: isolate;
      }

      .a7d7287e-ee1c-4f21-8dfd-cb4feebc5e2b {
        opacity: 0.5;
      }

      .ae13f94a-fd3c-48b7-b762-7e2431e33a7e {
        fill: #8d04af;
      }

      .abd1bbb8-6f9e-4b8f-8746-7dd3a2e69db9 {
        fill: #c638f4;
      }

      .a9233ad1-7dcf-4fa7-a9f2-4aade2a209b8 {
        fill: #890370;
        opacity: 0.33;
      }

      .be0bb0b6-3ea4-4fb2-819c-3787d472100e, .ea973772-f296-42ca-aeef-cc6bf36554ca {
        fill: #ff8af1;
      }

      .be0bb0b6-3ea4-4fb2-819c-3787d472100e {
        opacity: 0.19;
      }

      .fddac882-fea8-4758-871c-aa90026bfecc {
        fill: #f1ff8f;
        opacity: 0.2;
        mix-blend-mode: lighten;
      }

      .fad30d37-cf41-4afa-8de2-bf036233bcb7 {
        fill: url(#a252c595-b67b-4410-b827-042b0b678a7c);
      }

      .bc429846-99a1-45d5-a6f3-38ab386aa962 {
        fill: #720082;
      }

      .ea973772-f296-42ca-aeef-cc6bf36554ca {
        opacity: 0.22;
      }

      .b4912138-f2e9-441e-8bdf-9b037afb9e16 {
        fill: #fff;
      }

      .fe2a8dfd-3d12-42ed-99d1-e5ba691eef8f {
        fill: #f2ea55;
        opacity: 0.44;
      }

      .febb064c-31a6-4c8c-84ad-b44655419ba0 {
        opacity: 0.6;
      }

      .bb917379-4c61-4aff-9a25-b0323dcc409c {
        fill: #ff0;
      }
    </style>
    <linearGradient id="a252c595-b67b-4410-b827-042b0b678a7c" x1="85.52" y1="165.54" x2="85.96" y2="3.87" gradientUnits="userSpaceOnUse">
      <stop offset="0" stop-color="#ff5e0b"/>
      <stop offset="1" stop-color="#ff420a"/>
    </linearGradient>
  </defs>
  <g class="a137304f-b515-4887-a994-b3bebc4e1a96">
    <g id="ba9c0d32-fc26-4f62-a3a1-892508644c78" data-name="Layer 1">
      <g>
        <rect class="a7d7287e-ee1c-4f21-8dfd-cb4feebc5e2b" x="9.5" y="10.76" width="157.52" height="157.52" rx="33.84"/>
        <g>
          <rect class="ae13f94a-fd3c-48b7-b762-7e2431e33a7e" x="6.98" y="5.72" width="157.52" height="157.52" rx="33.84"/>
          <rect class="abd1bbb8-6f9e-4b8f-8746-7dd3a2e69db9" x="8.78" y="7.52" width="153.92" height="153.92" rx="33.07"/>
          <path class="a9233ad1-7dcf-4fa7-a9f2-4aade2a209b8" d="M152.73,136.6c-3.39,4.22-7.19,11-13.11,14.8s-25.38,4.65-52,3.38-34.68.85-46.53-1.27-17.34-10.15-24.53-21.57c-3.19-5.06-5.79-4.3-7.71-1.89a33.07,33.07,0,0,0,33,31.39h87.78A33.08,33.08,0,0,0,162,135.38C160.59,130.34,155.15,133.57,152.73,136.6Z"/>
          <path class="be0bb0b6-3ea4-4fb2-819c-3787d472100e" d="M129.63,7.52H41.85A33.08,33.08,0,0,0,8.78,40.59v60C23,92.18,75.81,67.11,162.7,98.8V40.59A33.08,33.08,0,0,0,129.63,7.52Z"/>
          <path class="fddac882-fea8-4758-871c-aa90026bfecc" d="M129.63,7.52H41.85A33.06,33.06,0,0,0,13.33,23.86a14.46,14.46,0,0,0-.14,7.32c2.52,10.09,5.77-9,18.38-13.69s24.15-3.61,67-3.25,47.57,4.33,53.34,15.14C157,38.92,159.87,45.93,162.7,41v-.41A33.08,33.08,0,0,0,129.63,7.52Z"/>
          <rect class="fad30d37-cf41-4afa-8de2-bf036233bcb7" x="20.59" y="19.34" width="130.29" height="130.29" rx="27.99"/>
          <rect class="bc429846-99a1-45d5-a6f3-38ab386aa962" x="18.43" y="17.18" width="134.62" height="134.62" rx="28.92"/>
          <rect class="ae13f94a-fd3c-48b7-b762-7e2431e33a7e" x="20.59" y="19.34" width="130.29" height="130.29" rx="27.99"/>
          <rect class="ea973772-f296-42ca-aeef-cc6bf36554ca" x="24.3" y="24.76" width="122.87" height="122.87" rx="26.4"/>
          <path class="b4912138-f2e9-441e-8bdf-9b037afb9e16" d="M134.81,10.3c0,.57-17.43,1-38.93,1S57,10.87,57,10.3s17.43-1,38.93-1S134.81,9.72,134.81,10.3Z"/>
          <path class="b4912138-f2e9-441e-8bdf-9b037afb9e16" d="M140.85,10.82c0,.52-.93.93-2.08.93s-2.08-.41-2.08-.93.93-.94,2.08-.94S140.85,10.3,140.85,10.82Z"/>
          <path class="a9233ad1-7dcf-4fa7-a9f2-4aade2a209b8" d="M162.5,132c-5.2,14-13.45,22.85-22.53,24.61-12.78,2.47-73.79,5.36-101.82,1.65-17.4-2.3-25.59-17-29.3-27.8a33.07,33.07,0,0,0,33,31h87.78A33.06,33.06,0,0,0,162.5,132Z"/>
          <path class="fe2a8dfd-3d12-42ed-99d1-e5ba691eef8f" d="M117.29,154.38c0,1.11-13.51,2-30.18,2s-30.17-.91-30.17-2,13.51-2,30.17-2S117.29,153.26,117.29,154.38Z"/>
        </g>
        <g>
          <path class="febb064c-31a6-4c8c-84ad-b44655419ba0" d="M112.33,56.89a8.93,8.93,0,0,0,2.83-.44,7.29,7.29,0,0,0,4-3.16A8.25,8.25,0,0,0,120.26,49a8.61,8.61,0,0,0-.46-2.86,7.24,7.24,0,0,0-3.23-3.9,8.42,8.42,0,0,0-4.24-1.05H61.22a9.54,9.54,0,0,0-2.76.38,7.39,7.39,0,0,0-4,3A8.08,8.08,0,0,0,53.16,49a9.08,9.08,0,0,0,.47,2.89,7.33,7.33,0,0,0,3.27,4,8.62,8.62,0,0,0,4.32,1.08h17.5V114H61.22a9.06,9.06,0,0,0-2.82.42,7.38,7.38,0,0,0-4,3.09,8.25,8.25,0,0,0-1.2,4.42,8.58,8.58,0,0,0,.5,2.92A7.25,7.25,0,0,0,57,128.76a8.7,8.7,0,0,0,4.23,1h51a9.47,9.47,0,0,0,2.75-.38,7.35,7.35,0,0,0,4-3,8,8,0,0,0,1.26-4.45,8.64,8.64,0,0,0-.47-2.9,7.38,7.38,0,0,0-3.26-4,8.61,8.61,0,0,0-4.32-1.07H94.71V56.89Z"/>
          <path class="bb917379-4c61-4aff-9a25-b0323dcc409c" d="M110.39,55a9.22,9.22,0,0,0,2.83-.44,7.33,7.33,0,0,0,4-3.16A8.26,8.26,0,0,0,118.32,47a8.59,8.59,0,0,0-.46-2.85,7.25,7.25,0,0,0-3.23-3.9,8.44,8.44,0,0,0-4.24-1.06H59.28a9.57,9.57,0,0,0-2.76.39,7.39,7.39,0,0,0-4,3A8.05,8.05,0,0,0,51.22,47a8.86,8.86,0,0,0,.47,2.9,7.33,7.33,0,0,0,3.27,4A8.6,8.6,0,0,0,59.28,55h17.5v57.13H59.28a9.41,9.41,0,0,0-2.83.41,7.41,7.41,0,0,0-4,3.1,8.25,8.25,0,0,0-1.2,4.42,8.34,8.34,0,0,0,.5,2.92A7.28,7.28,0,0,0,55,126.82a8.76,8.76,0,0,0,4.24,1h51a9.23,9.23,0,0,0,2.76-.39,7.35,7.35,0,0,0,4-3,8,8,0,0,0,1.26-4.44,8.6,8.6,0,0,0-.47-2.9,7.35,7.35,0,0,0-3.26-4,8.62,8.62,0,0,0-4.33-1.07H92.76V55Z"/>
        </g>
      </g>
    </g>
  </g>
</svg>
