<svg xmlns="http://www.w3.org/2000/svg" xmlns:xlink="http://www.w3.org/1999/xlink" width="174" height="174" viewBox="0 0 174 174">
  <defs>
    <style>
      .a1849cab-6488-4ab5-8ad6-ce2de519c55a {
        isolation: isolate;
      }

      .a3f7b864-1f78-48b3-87ae-a8dfae7cf14a {
        opacity: 0.5;
      }

      .aef50224-ce9b-4b8b-884d-833e0525a25d {
        fill: #8d04af;
      }

      .b225aca4-a4eb-4ed2-a86f-28ff22b76954 {
        fill: #c638f4;
      }

      .b70b5e2d-25f0-4349-814a-3e50210e9c81 {
        fill: #890370;
        opacity: 0.33;
      }

      .a9ae9ae3-45cc-4238-9c59-322a89204f1b, .bb1d071d-305e-42b8-bbab-498f984c973e {
        fill: #ff8af1;
      }

      .a9ae9ae3-45cc-4238-9c59-322a89204f1b {
        opacity: 0.19;
      }

      .e4ce5967-36c5-4a53-952c-243b7df3f24a {
        fill: #f1ff8f;
        opacity: 0.2;
        mix-blend-mode: lighten;
      }

      .b69923fc-25d4-48c1-aa3f-939df2745ea6 {
        fill: url(#a08a3abb-ea83-4f66-a2ba-5437801becbd);
      }

      .f98ea33c-1454-45f0-bcb0-767682a1de05 {
        fill: #720082;
      }

      .bb1d071d-305e-42b8-bbab-498f984c973e {
        opacity: 0.22;
      }

      .ac250abb-6c53-4655-8fd3-3c503570272e {
        fill: #fff;
      }

      .fc2c8745-52a5-4308-9b64-3f3318ab74ed {
        fill: #f2ea55;
        opacity: 0.44;
      }

      .abb9d2a9-aa9e-4302-9ed6-1fe4a398af6e {
        opacity: 0.6;
      }

      .fbc95758-76ed-4c1d-98ab-dcf47bc72701 {
        fill: #ff0;
      }
    </style>
    <linearGradient id="a08a3abb-ea83-4f66-a2ba-5437801becbd" x1="85.52" y1="165.54" x2="85.96" y2="3.87" gradientUnits="userSpaceOnUse">
      <stop offset="0" stop-color="#ff5e0b"/>
      <stop offset="1" stop-color="#ff420a"/>
    </linearGradient>
  </defs>
  <g class="a1849cab-6488-4ab5-8ad6-ce2de519c55a">
    <g id="b3d5fbaa-18ff-446c-8dc0-84821c6c3c7f" data-name="Layer 1">
      <g>
        <rect class="a3f7b864-1f78-48b3-87ae-a8dfae7cf14a" x="9.5" y="10.76" width="157.52" height="157.52" rx="33.84"/>
        <g>
          <rect class="aef50224-ce9b-4b8b-884d-833e0525a25d" x="6.98" y="5.72" width="157.52" height="157.52" rx="33.84"/>
          <rect class="b225aca4-a4eb-4ed2-a86f-28ff22b76954" x="8.78" y="7.52" width="153.92" height="153.92" rx="33.07"/>
          <path class="b70b5e2d-25f0-4349-814a-3e50210e9c81" d="M152.73,136.6c-3.39,4.22-7.19,11-13.11,14.8s-25.38,4.65-52,3.38-34.68.85-46.53-1.27-17.34-10.15-24.53-21.57c-3.19-5.06-5.79-4.3-7.71-1.89a33.07,33.07,0,0,0,33,31.39h87.78A33.08,33.08,0,0,0,162,135.38C160.59,130.34,155.15,133.57,152.73,136.6Z"/>
          <path class="a9ae9ae3-45cc-4238-9c59-322a89204f1b" d="M129.63,7.52H41.85A33.08,33.08,0,0,0,8.78,40.59v60C23,92.18,75.81,67.11,162.7,98.8V40.59A33.08,33.08,0,0,0,129.63,7.52Z"/>
          <path class="e4ce5967-36c5-4a53-952c-243b7df3f24a" d="M129.63,7.52H41.85A33.06,33.06,0,0,0,13.33,23.86a14.46,14.46,0,0,0-.14,7.32c2.52,10.09,5.77-9,18.38-13.69s24.15-3.61,67-3.25,47.57,4.33,53.34,15.14C157,38.92,159.87,45.93,162.7,41v-.41A33.08,33.08,0,0,0,129.63,7.52Z"/>
          <rect class="b69923fc-25d4-48c1-aa3f-939df2745ea6" x="20.59" y="19.34" width="130.29" height="130.29" rx="27.99"/>
          <rect class="f98ea33c-1454-45f0-bcb0-767682a1de05" x="18.43" y="17.18" width="134.62" height="134.62" rx="28.92"/>
          <rect class="aef50224-ce9b-4b8b-884d-833e0525a25d" x="20.59" y="19.34" width="130.29" height="130.29" rx="27.99"/>
          <rect class="bb1d071d-305e-42b8-bbab-498f984c973e" x="24.3" y="24.76" width="122.87" height="122.87" rx="26.4"/>
          <path class="ac250abb-6c53-4655-8fd3-3c503570272e" d="M134.81,10.3c0,.57-17.43,1-38.93,1S57,10.87,57,10.3s17.43-1,38.93-1S134.81,9.72,134.81,10.3Z"/>
          <path class="ac250abb-6c53-4655-8fd3-3c503570272e" d="M140.85,10.82c0,.52-.93.93-2.08.93s-2.08-.41-2.08-.93.93-.94,2.08-.94S140.85,10.3,140.85,10.82Z"/>
          <path class="b70b5e2d-25f0-4349-814a-3e50210e9c81" d="M162.5,132c-5.2,14-13.45,22.85-22.53,24.61-12.78,2.47-73.79,5.36-101.82,1.65-17.4-2.3-25.59-17-29.3-27.8a33.07,33.07,0,0,0,33,31h87.78A33.06,33.06,0,0,0,162.5,132Z"/>
          <path class="fc2c8745-52a5-4308-9b64-3f3318ab74ed" d="M117.29,154.38c0,1.11-13.51,2-30.18,2s-30.17-.91-30.17-2,13.51-2,30.17-2S117.29,153.26,117.29,154.38Z"/>
        </g>
        <g>
          <path class="abb9d2a9-aa9e-4302-9ed6-1fe4a398af6e" d="M114.91,53.4c-7.68-8.73-17.5-13.31-28.42-13.26S66,44.69,58.38,53.42s-11.69,19.74-11.64,32,4,23.39,11.71,32.05,17.36,13.32,28.15,13.26,20.73-4.52,28.38-13.26,11.75-19.74,11.7-32-4-23.39-11.77-32.05m-10,52.76C99.75,112,94,114.67,86.66,114.73c-7.21,0-12.89-2.74-18.11-8.58S61,93.74,61,85.45s2.4-14.8,7.51-20.7,10.83-8.52,18-8.57c7.37,0,13.12,2.75,18.32,8.58s7.51,12.41,7.56,20.69S110,100.25,104.91,106.16Z"/>
          <path class="fbc95758-76ed-4c1d-98ab-dcf47bc72701" d="M113,51.46c-7.68-8.73-17.5-13.31-28.42-13.26S64,42.75,56.44,51.48s-11.69,19.74-11.64,32,4,23.39,11.71,32.05,17.36,13.32,28.15,13.26,20.73-4.52,28.38-13.26,11.75-19.74,11.7-32-4-23.39-11.77-32.05m-10,52.76c-5.16,5.82-10.88,8.51-18.25,8.57-7.21-.05-12.89-2.74-18.11-8.58S59.1,91.8,59.06,83.51s2.4-14.8,7.51-20.7,10.83-8.52,18-8.57c7.37,0,13.12,2.75,18.32,8.58s7.51,12.41,7.56,20.69S108.08,98.31,103,104.22Z"/>
        </g>
      </g>
    </g>
  </g>
</svg>
