<svg xmlns="http://www.w3.org/2000/svg" xmlns:xlink="http://www.w3.org/1999/xlink" width="174" height="174" viewBox="0 0 174 174">
  <defs>
    <style>
      .ba038b76-9c2a-4152-b0ba-e88ff83de91b {
        isolation: isolate;
      }

      .f6e4d878-cd83-4a61-8943-13e6c8eb9ae6 {
        opacity: 0.5;
      }

      .fe330b3f-edf0-4e16-baf3-ccbfa9dfd411 {
        fill: #8d04af;
      }

      .b88b2f1b-4885-4d06-a6b6-2669f2c69773 {
        fill: #c638f4;
      }

      .e0eab29b-e2a5-41fc-9d55-1a105d2718df {
        fill: #890370;
        opacity: 0.33;
      }

      .bdd8d598-05d8-4c42-b4d3-ac7a800c4065, .bf3e1f47-c5cf-49f0-b349-600e12eeca2a {
        fill: #ff8af1;
      }

      .bdd8d598-05d8-4c42-b4d3-ac7a800c4065 {
        opacity: 0.19;
      }

      .f5b68ffa-84d0-4613-90ef-db855969ba11 {
        fill: #f1ff8f;
        opacity: 0.2;
        mix-blend-mode: lighten;
      }

      .e45dcd65-5caa-41e0-b7c3-9b04ce237863 {
        fill: url(#aa702471-88ef-4ade-b2b7-d2dfd79d92ca);
      }

      .b2db561a-f8b5-4fea-8ebe-d6a79618f9c3 {
        fill: #720082;
      }

      .bf3e1f47-c5cf-49f0-b349-600e12eeca2a {
        opacity: 0.22;
      }

      .a6097c2a-8ff2-4193-b4ac-2f4e689c7d93 {
        fill: #fff;
      }

      .e69ce927-fa84-4c1d-b066-b213e51cea3f {
        fill: #f2ea55;
        opacity: 0.44;
      }

      .a83b60fd-86cf-4fd3-8a98-43b688ccd4f7 {
        opacity: 0.6;
      }

      .e87697ee-06fe-477b-b2ee-e66502c52c8e {
        fill: #ff0;
      }
    </style>
    <linearGradient id="aa702471-88ef-4ade-b2b7-d2dfd79d92ca" x1="85.52" y1="165.54" x2="85.96" y2="3.87" gradientUnits="userSpaceOnUse">
      <stop offset="0" stop-color="#ff5e0b"/>
      <stop offset="1" stop-color="#ff420a"/>
    </linearGradient>
  </defs>
  <g class="ba038b76-9c2a-4152-b0ba-e88ff83de91b">
    <g id="bee404f4-b526-496e-8e60-cfbbe4d9d644" data-name="Layer 1">
      <g>
        <rect class="f6e4d878-cd83-4a61-8943-13e6c8eb9ae6" x="9.5" y="10.76" width="157.52" height="157.52" rx="33.84"/>
        <g>
          <rect class="fe330b3f-edf0-4e16-baf3-ccbfa9dfd411" x="6.98" y="5.72" width="157.52" height="157.52" rx="33.84"/>
          <rect class="b88b2f1b-4885-4d06-a6b6-2669f2c69773" x="8.78" y="7.52" width="153.92" height="153.92" rx="33.07"/>
          <path class="e0eab29b-e2a5-41fc-9d55-1a105d2718df" d="M152.73,136.6c-3.39,4.22-7.19,11-13.11,14.8s-25.38,4.65-52,3.38-34.68.85-46.53-1.27-17.34-10.15-24.53-21.57c-3.19-5.06-5.79-4.3-7.71-1.89a33.07,33.07,0,0,0,33,31.39h87.78A33.08,33.08,0,0,0,162,135.38C160.59,130.34,155.15,133.57,152.73,136.6Z"/>
          <path class="bdd8d598-05d8-4c42-b4d3-ac7a800c4065" d="M129.63,7.52H41.85A33.08,33.08,0,0,0,8.78,40.59v60C23,92.18,75.81,67.11,162.7,98.8V40.59A33.08,33.08,0,0,0,129.63,7.52Z"/>
          <path class="f5b68ffa-84d0-4613-90ef-db855969ba11" d="M129.63,7.52H41.85A33.06,33.06,0,0,0,13.33,23.86a14.46,14.46,0,0,0-.14,7.32c2.52,10.09,5.77-9,18.38-13.69s24.15-3.61,67-3.25,47.57,4.33,53.34,15.14C157,38.92,159.87,45.93,162.7,41v-.41A33.08,33.08,0,0,0,129.63,7.52Z"/>
          <rect class="e45dcd65-5caa-41e0-b7c3-9b04ce237863" x="20.59" y="19.34" width="130.29" height="130.29" rx="27.99"/>
          <rect class="b2db561a-f8b5-4fea-8ebe-d6a79618f9c3" x="18.43" y="17.18" width="134.62" height="134.62" rx="28.92"/>
          <rect class="fe330b3f-edf0-4e16-baf3-ccbfa9dfd411" x="20.59" y="19.34" width="130.29" height="130.29" rx="27.99"/>
          <rect class="bf3e1f47-c5cf-49f0-b349-600e12eeca2a" x="24.3" y="24.76" width="122.87" height="122.87" rx="26.4"/>
          <path class="a6097c2a-8ff2-4193-b4ac-2f4e689c7d93" d="M134.81,10.3c0,.57-17.43,1-38.93,1S57,10.87,57,10.3s17.43-1,38.93-1S134.81,9.72,134.81,10.3Z"/>
          <path class="a6097c2a-8ff2-4193-b4ac-2f4e689c7d93" d="M140.85,10.82c0,.52-.93.93-2.08.93s-2.08-.41-2.08-.93.93-.94,2.08-.94S140.85,10.3,140.85,10.82Z"/>
          <path class="e0eab29b-e2a5-41fc-9d55-1a105d2718df" d="M162.5,132c-5.2,14-13.45,22.85-22.53,24.61-12.78,2.47-73.79,5.36-101.82,1.65-17.4-2.3-25.59-17-29.3-27.8a33.07,33.07,0,0,0,33,31h87.78A33.06,33.06,0,0,0,162.5,132Z"/>
          <path class="e69ce927-fa84-4c1d-b066-b213e51cea3f" d="M117.29,154.38c0,1.11-13.51,2-30.18,2s-30.17-.91-30.17-2,13.51-2,30.17-2S117.29,153.26,117.29,154.38Z"/>
        </g>
        <g>
          <path class="a83b60fd-86cf-4fd3-8a98-43b688ccd4f7" d="M80.88,56.86a27.31,27.31,0,0,1,21.84.22A27.56,27.56,0,0,1,112,64.42l0,0,0,.06a9.35,9.35,0,0,0,2.65,2.11,8,8,0,0,0,3.78,1,9.73,9.73,0,0,0,3.09-.47,7.94,7.94,0,0,0,4.31-3.43A9.16,9.16,0,0,0,127.12,59,8.71,8.71,0,0,0,125,53.34l0,0a45,45,0,0,0-15-11.59A45,45,0,0,0,74,41.38,44.35,44.35,0,0,0,59.49,51.93a47.64,47.64,0,0,0-13,33.49A48.24,48.24,0,0,0,59.39,119a44.16,44.16,0,0,0,14.52,10.68,42.51,42.51,0,0,0,17.46,3.6,43,43,0,0,0,18.32-3.92,45,45,0,0,0,14.93-11.49,8.27,8.27,0,0,0,2.24-5.6,10,10,0,0,0-.51-3.17,8,8,0,0,0-3.54-4.29,9.34,9.34,0,0,0-4.71-1.17,8,8,0,0,0-3.63.85,9,9,0,0,0-2.7,2.11l-.07.08,0,0a27.65,27.65,0,0,1-9.23,7.18,26.1,26.1,0,0,1-11.15,2.34A25.2,25.2,0,0,1,80.86,114a28,28,0,0,1-9-6.67c-5.62-6.14-8.3-13.09-8.34-22s2.72-15.69,8.34-21.84A27.78,27.78,0,0,1,80.88,56.86Zm39.6.19Zm-.23,57v0Z"/>
          <path class="e87697ee-06fe-477b-b2ee-e66502c52c8e" d="M78.74,54.72a27.28,27.28,0,0,1,21.83.22,27.5,27.5,0,0,1,9.26,7.34l0,0,0,.06a9.35,9.35,0,0,0,2.65,2.11,8,8,0,0,0,3.78,1,9.48,9.48,0,0,0,3.09-.48,8,8,0,0,0,4.31-3.42A9.07,9.07,0,0,0,125,56.82a8.63,8.63,0,0,0-2.13-5.62l0,0a45,45,0,0,0-15-11.59,43.3,43.3,0,0,0-18.41-3.91A42.71,42.71,0,0,0,71.9,39.24,44.21,44.21,0,0,0,57.35,49.79a47.64,47.64,0,0,0-13,33.49,48.24,48.24,0,0,0,12.88,33.59,44.05,44.05,0,0,0,14.51,10.67,42.43,42.43,0,0,0,17.47,3.61,43,43,0,0,0,18.32-3.92,44.92,44.92,0,0,0,14.93-11.5,8.17,8.17,0,0,0,2.23-5.6,9.66,9.66,0,0,0-.5-3.16,8,8,0,0,0-3.54-4.29A9.47,9.47,0,0,0,116,101.5a8.17,8.17,0,0,0-3.62.86,8.81,8.81,0,0,0-2.7,2.11l-.07.08,0,0a27.65,27.65,0,0,1-9.23,7.18A26.13,26.13,0,0,1,89.23,114a25.2,25.2,0,0,1-10.51-2.17,27.78,27.78,0,0,1-9-6.66c-5.62-6.14-8.3-13.09-8.35-22s2.72-15.69,8.35-21.84A27.68,27.68,0,0,1,78.74,54.72Zm39.6.19Zm-.23,57h0Z"/>
        </g>
      </g>
    </g>
  </g>
</svg>
