<svg id="b15dc895-092a-437a-a6c4-b41f0ccc295b" data-name="Layer 1" xmlns="http://www.w3.org/2000/svg" width="237.14" height="277.14" viewBox="0 0 237.14 277.14">
  <defs>
    <style>
      .a17e1288-7a39-43c1-b507-beb90ea71560 {
        fill: #fff;
      }
    </style>
  </defs>
  <path class="a17e1288-7a39-43c1-b507-beb90ea71560" d="M231.54,28.18a39.56,39.56,0,0,0-73.09.89l-39.88,99.67L78.7,29.07a39.56,39.56,0,0,0-73.09-.89,39.25,39.25,0,0,0-.37,30.28L81.12,248.11A39.35,39.35,0,0,0,117.86,273h1.43A39.37,39.37,0,0,0,156,248.11L231.9,58.46A39.3,39.3,0,0,0,231.54,28.18Zm-7.06,27.31L148.6,245.14a31.55,31.55,0,0,1-30,19.8,31.57,31.57,0,0,1-30-19.8L12.67,55.49a31.56,31.56,0,0,1,17.57-41h0A31.57,31.57,0,0,1,71.27,32l47.3,118.23L165.88,32a31.56,31.56,0,0,1,41-17.58h0A31.57,31.57,0,0,1,224.48,55.49Z"/>
</svg>
