<svg id="Layer_1" data-name="Layer 1" xmlns="http://www.w3.org/2000/svg" viewBox="0 0 110 160"><defs><style>.cls-1{opacity:0.3;}.cls-2{fill:#c42e00;stroke:#5b0000;}.cls-2,.cls-6,.cls-8{stroke-miterlimit:10;}.cls-3{fill:#fff6cc;}.cls-4{fill:#e03822;}.cls-5{fill:#47332f;opacity:0.42;}.cls-10,.cls-5,.cls-9{isolation:isolate;}.cls-6{fill:#dda824;stroke:#8e5b00;}.cls-7{fill:#cc900a;}.cls-8{fill:#ffc23b;stroke:#8c7400;}.cls-9{fill:#fff;opacity:0.55;}.cls-10{font-size:31.55px;fill:#f21100;font-family:MyriadPro-Regular, Myriad Pro;}.cls-11{letter-spacing:0em;}.cls-12{letter-spacing:0em;}</style></defs><ellipse class="cls-1" cx="55" cy="138.89" rx="52.53" ry="14.65"/><path class="cls-2" d="M98.5,49c-1.78-7.21-10.21-6.46-12-9-1.38-2.05-.87-7.25-.87-7.25L55.91,28.38h0L23.07,32.74s-.17,4.95-1.53,7c-1.74,2.6-9.48,2.08-11.26,9.29-1.36,5.51-3.79,84.32-.56,89.27,7.9,12.11,84.11,11.92,89.31,0C101.54,132.59,99.86,54.54,98.5,49Z"/><path class="cls-3" d="M94,77.59a6,6,0,0,0-2.06-5.65c-2.41-2.2-6.29-3.27-10.06-3.36-1.72,0-3.86-.12-4.51-1.32a3.44,3.44,0,0,1-.21-1.59c-.1-2-1.8-3.73-4-4.82a25,25,0,0,0-7.23-2c-3.54-.57-7.12-1-10.71-1.2v0l-.25,0-.25,0v0A101.1,101.1,0,0,0,44,58.82a25.45,25.45,0,0,0-7.23,2c-2.14,1.09-3.84,2.85-3.94,4.82a3.44,3.44,0,0,1-.21,1.59c-.67,1.2-2.81,1.26-4.51,1.32-3.77.09-7.63,1.16-10.06,3.36A6.07,6.07,0,0,0,16,77.59H15.9l7.65,40.52H86.43l7.65-40.52Z"/><path class="cls-4" d="M83.64,116.06H26.36a.53.53,0,0,1-.52-.42l-7-36.91a.67.67,0,0,1,0-.32A6.08,6.08,0,0,1,21,73.13c2.12-1.93,5.58-3.1,9.5-3.21,1.36,0,3.21-.1,3.67-.92a1.84,1.84,0,0,0,.12-.84v-.39c.09-1.83,1.55-3.63,3.88-4.83A23.57,23.57,0,0,1,44.91,61c3.16-.51,6.39-.88,9.64-1.09a.61.61,0,0,1,.23,0h.38a.58.58,0,0,1,.23,0c3.25.21,6.49.58,9.64,1.09a22.77,22.77,0,0,1,6.73,1.92c2.34,1.18,3.79,3,3.88,4.83v.39a1.6,1.6,0,0,0,.14.84c.46.84,2.31.88,3.67.92,3.92.09,7.38,1.28,9.51,3.21a6.1,6.1,0,0,1,2.1,5.28.44.44,0,0,1,0,.32l-7,36.91A.45.45,0,0,1,83.64,116.06ZM26.8,115H83.22l6.83-36.16a.52.52,0,0,1,0-.35,5,5,0,0,0-1.72-4.62C86.35,72.12,83.14,71,79.47,71c-1.7,0-3.81-.1-4.57-1.47a2.71,2.71,0,0,1-.25-1.36v-.33c-.08-1.43-1.34-2.94-3.31-4A22.1,22.1,0,0,0,64.92,62c-3.18-.52-6.43-.88-9.72-1.09a.2.2,0,0,1-.11,0h-.18l-.11,0A94.41,94.41,0,0,0,45.08,62a22.75,22.75,0,0,0-6.42,1.79c-2,1-3.23,2.53-3.31,4v.33a2.75,2.75,0,0,1-.25,1.36c-.74,1.35-2.87,1.41-4.57,1.47-3.67.09-6.88,1.17-8.82,2.93A5,5,0,0,0,20,78.5a.7.7,0,0,1,0,.35Z"/><path class="cls-5" d="M98.84,48.9C97,41.8,88.09,42.55,86.26,40c-1.44-2-.9-7.12-.9-7.12L54.05,28.63,46.27,29.7l23.52,3.21s0,.44-.07,1.11L22.8,33.94l-.53,5.26,48.78,1.23c2.41,2.1,10.47,1.79,12.23,8.51,1.41,5.41,3.19,83.95.57,89.58-2.41,5.14-18.63,8.07-36.78,8.7,23.43.82,49.27-2.11,52.35-8.7C102,132.85,100.26,54.31,98.84,48.9Z"/><path class="cls-6" d="M18.64,9.46V33h.15c1.7,1.28,16.85,2.29,35.26,2.29s33.59-1,35.27-2.29h.15V9.46Z"/><path class="cls-7" d="M79,9.46V33h-.15c-1.53,1.16-14,2.1-30,2.27,1.72,0,3.46,0,5.26,0,18.44,0,33.57-1,35.27-2.29h.15V9.46Z"/><ellipse class="cls-8" cx="54.05" cy="9.23" rx="35.44" ry="2.77"/><path class="cls-9" d="M23.7,16.85c.14,3.71.29,7.44.42,11.15a2.57,2.57,0,0,0,.16,1,2,2,0,0,0,.57.75,9,9,0,0,0,2.77,1.68c1,.36,2.34.34,2.85-.84a4.94,4.94,0,0,0,.25-1.76,52.11,52.11,0,0,0-.88-12c-.44-1.91-1.41-4.09-3.15-4.06S23.61,14.59,23.7,16.85Z"/><path class="cls-4" d="M80.92,107.74H28.66A1.66,1.66,0,0,1,27,106.08h0a1.66,1.66,0,0,1,1.67-1.66H80.92a1.66,1.66,0,0,1,1.67,1.66h0A1.64,1.64,0,0,1,80.92,107.74Z"/><path class="cls-4" d="M82,103.54H27.57A.58.58,0,0,1,27,103h0a.58.58,0,0,1,.58-.57H82a.58.58,0,0,1,.58.57h0A.58.58,0,0,1,82,103.54Z"/><path class="cls-9" d="M17.43,46.07c-1.53,1.24-2.08,3.31-2.31,5.26a49.93,49.93,0,0,0,.19,10.44,9.32,9.32,0,0,0,.61,3,3,3,0,0,0,2.28,1.86,2.9,2.9,0,0,0,2.56-1.3,6,6,0,0,0,.92-2.85c.26-2.53-.23-5.07-.21-7.61s.68-5.28,2.67-6.85a28,28,0,0,0,2.51-1.74,2.15,2.15,0,0,0,.48-2.74,2.11,2.11,0,0,0-.9-.59c-1.9-.71-2.47.42-3.92,1.15S18.88,44.88,17.43,46.07Z"/><path class="cls-9" d="M14.92,114.8a125.19,125.19,0,0,1-.13,13.56c-.23,3.84-.44,8.26,2.32,11,1.77,1.74,4.41,2.29,6.9,2.56a6.63,6.63,0,0,0,2.94-.17,2.5,2.5,0,0,0,1.74-2.16,3,3,0,0,0-2-2.45,26.69,26.69,0,0,1-3.14-1.17,6,6,0,0,1-2.64-4,21,21,0,0,1-.29-4.88,85.24,85.24,0,0,0-1.14-14.63,4.3,4.3,0,0,0-1.25-2.79C15.15,107.25,14.87,113.48,14.92,114.8Z"/><text class="cls-10" transform="translate(25.9 96.6)">J<tspan class="cls-11" x="11.67" y="0">A</tspan><tspan class="cls-12" x="30.86" y="0">M</tspan></text></svg>