<?xml version="1.0" encoding="utf-8"?>
<!-- Generator: Adobe Illustrator 25.2.3, SVG Export Plug-In . SVG Version: 6.00 Build 0)  -->
<svg version="1.1" id="Layer_1" xmlns="http://www.w3.org/2000/svg" xmlns:xlink="http://www.w3.org/1999/xlink" x="0px" y="0px"
	 viewBox="0 0 1600 900" style="enable-background:new 0 0 1600 900;" xml:space="preserve">
<style type="text/css">
	.st0{clip-path:url(#SVGID_2_);}
	.st1{fill:#2B4919;}
	.st2{fill:url(#SVGID_3_);}
	.st3{fill:#126616;}
	.st4{fill:#0C4C2D;}
	.st5{fill:#123A18;}
	.st6{opacity:0.58;fill:#182D25;enable-background:new    ;}
	.st7{fill:#102C16;}
	.st8{fill:#0E2312;}
	.st9{fill:#174226;}
	.st10{opacity:0.62;}
	.st11{clip-path:url(#SVGID_5_);}
	.st12{opacity:0.59;}
	.st13{clip-path:url(#SVGID_7_);}
	.st14{fill:#2B7A44;}
	.st15{clip-path:url(#SVGID_9_);}
	.st16{clip-path:url(#SVGID_11_);}
	.st17{clip-path:url(#SVGID_13_);}
	.st18{clip-path:url(#SVGID_15_);}
</style>
<g>
	<defs>
		<rect id="SVGID_1_" width="1600" height="900"/>
	</defs>
	<clipPath id="SVGID_2_">
		<use xlink:href="#SVGID_1_"  style="overflow:visible;"/>
	</clipPath>
	<g class="st0">
		<path class="st1" d="M-251.3,110.1l1.2-0.2c0,0.2,0.1,0.4,0.1,0.6c0.9,4.7,2.3,9.3,4.1,13.8c-1.5,0.6-3.1,1.4-4.6,2.2
			c-13.2,6.8-21.5,16.3-18.6,21.2s16,3.5,29.1-3.3c1.6-0.8,3.1-1.7,4.5-2.5c15.6,19.4,41,31,68.7,30.3c-4.2,10.2-5.3,21.3-3.2,32.1
			c3.9,20.4,18.6,36.3,37.8,43.9c-4.4,10.2-4.4,19.2,0.3,21.2c5.3,2.3,14.8-4.9,21.7-16.4c6.2,0.4,12.3-0.1,18.4-1.2
			c20.5-4,37.3-15.9,47-31.5c11.1,11.3,28.5,17,46.5,13.6c4.8-0.9,9.4-2.4,13.8-4.6c22.9,30,57.9,50.9,97.8,58.1
			c-0.4,6.5,1.4,11.5,4.6,11.9s6.3-4,8-10.1c9,1,18,1.2,27.1,0.8c-0.3,1.4-0.6,2.9-0.9,4.4c-2.1,13.5,1.2,25,7.4,25.6
			s12.9-9.9,15.1-23.4c0.5-3,0.7-6,0.6-9c1.2-0.2,2.4-0.4,3.5-0.6c6.1-1.2,12.1-2.7,18.1-4.4c1.7,7,5.5,11.9,8.8,11.2
			c3.6-0.7,5.3-7.5,3.8-15.1c0-0.1,0-0.2-0.1-0.4c45.3-17.4,79.7-51.8,95.3-92.7c7,1.4,14.2,1.5,21.2,0.1
			c25.6-4.9,43.2-26.6,41.4-49.7c10.7,3.2,22.1,3.8,33.1,1.7c7.7-1.5,15.2-4.3,22-8.2c4.2,7.8,10.4,12.6,14.2,10.9
			c4-1.8,3.9-10.1-0.4-18.7c-0.3-0.7-0.7-1.3-1-1.9c2.9-2.8,5.5-5.9,7.8-9.2c0.3,0.3,0.7,0.7,1,1c7.1,6.8,15.5,9.9,18.8,7.1
			s0-10.6-7.1-17.4c-1.7-1.6-3.6-3.1-5.6-4.4c6.7-18.5,2.6-39.1-10.5-53.7c12-10.3,18.3-25.6,15.4-41l-0.2-0.9
			c3.6-0.1,7.1-0.5,10.6-1.1c11.4-2.1,22-7.3,30.6-15.1c0.7,0.4,1.5,0.8,2.3,1.1c7.6,3.4,15.2,3.7,16.8,0.7s-3.1-8-10.6-11.4
			c2.5-3.5,4.6-7.3,6.2-11.3c6.3,2,11.8,1.8,13.2-0.7c1.6-2.9-2.8-7.8-10-11.1c0.8-5.4,0.7-10.9-0.4-16.3
			c-5.6-29.2-36.3-47.8-68.5-41.6c-1.6,0.3-3.3,0.7-4.8,1.1c-14.9-33.3-54.1-52.8-95-44.9c-9.1,1.7-17.9,4.8-26.2,9.1
			c-28.7-30.9-74.9-46.6-122.6-37.4c-22.6,4.3-43.7,14-61.7,28.4c-21.3-37.2-67.9-58.3-116.4-49c-45.5,8.8-79.5,41.7-88.5,80.8
			c-11.5-1.9-23.2-1.8-34.6,0.4c-39.8,7.7-68.7,38.2-73,73.1c-1.2,0.2-2.3,0.3-3.5,0.6c-28.7,5.5-47.9,31.1-42.9,57
			c1.3,7,4.4,13.5,8.8,19.1c-15.6,10.7-27,25.9-32.4,43c-2.4,0.2-4.8,0.4-7.3,0.7c-24.4,3.2-43.3,13.3-42.2,22.6
			S-275.7,113.3-251.3,110.1z"/>
		
			<linearGradient id="SVGID_3_" gradientUnits="userSpaceOnUse" x1="-6855.7998" y1="636.0373" x2="-6393.7402" y2="636.0373" gradientTransform="matrix(-1 0 0 -1 -6562.25 900)">
			<stop  offset="0" style="stop-color:#3C2415"/>
			<stop  offset="1" style="stop-color:#8B5E3C"/>
		</linearGradient>
		<path class="st2" d="M-20.3,36.9c35.7,59.3,45.8,126.2,45.6,188.8c0,24.3,0.1,61.9-0.3,99c0.8,28.3,1.1,56.6,1,85
			c-0.3,49.5-2,99.4-6.5,148.6c-1.6,18.4-5.8,36.4-12.5,53.5c-6.8,17.2-16,32.9-26,47.5c-12.2,17.8-26.1,33.9-40.4,49.2
			c-8.5,9.3-18.7,17-29.9,22.8c1.1,1.5,3.5,2.1,4.9,2.5c15,4.3,30.8,3.5,46,1.3c17-2.4,34-5.9,50.9-9.1c15.9-3,31.8-4.8,47.6-0.5
			c8.1,2.2,15.9,5.4,23.8,8.2c7.9,2.7,15.9,4.8,24.1,6.3c35.1,6.8,70.8,6.9,106.3,7.5c12.7,0.2,25.5,0.5,38.2,0
			c-18.7-9-50.8-25.5-80.2-46.4c-51.3-36.3-61-38-80.1-147.3c-22.7-130.3-2.2-245.8,4.4-304S160,62.1,160,62.1l133.5-101l-18.1-28.5
			c0,0-90.7,70.2-100.6,64.8s23.1-87.8,23.1-87.8L177-123.3c0,0-74.4,254.5-77.5,261.2s-11,28.5-22,17.6s-8.2-352.3-8.2-352.3
			l-57.2,24.2c0,0,4.9,147.1-1.1,155.8s-75.8-64.7-80.2-79S-62.6-210-62.6-210l-14.3-9.9c0,0-3.8,92.2-9.9,101s-50.6-49.4-50.6-49.4
			l-12.1,39.5C-149.4-128.8-56-22.4-20.3,36.9z"/>
		<path class="st3" d="M633.8-44.2c-0.2,2.9-0.7,5.7-1.5,8.5c1.3,0.3,2.5,0.7,3.7,1.3c-20.3,15.2-44.1,22.7-68.6,12.7
			c-0.8-0.3-1.6,1-0.9,1.6c3.6,3.5,5.4,8.1,7.6,12.5c-5,3-10.6,2.1-15.8,0.1c-0.9-0.3-1.4,0.9-0.9,1.6c3.8,5.5,8.4,10.2,11.7,16.1
			c-7.5,2.5-15,0-22-3.5c-0.7-0.3-1.4,0.7-1,1.4c5.7,10,17.5,16.3,20.3,28.2c-7.7-0.3-13.1-5-18.3-11.2c-4.2-5-8.2-10.2-14.1-12.7
			c-0.5-0.2-1.2,0.4-1,1.1c1,3,1.8,6.1,2.4,9.1c0.4,2.2,1.6,8.3,0,10.2c-1.7,2.1-7.2,1.2-9.5,0.5c-2.7-0.9-5.2-2.4-7.3-4.4
			c-0.7-0.6-1.4,0.5-1.1,1.2c2.5,6.8,4.1,16.8-1.5,22.4c-6.3,6.3-15.2,0.2-20.4-4.7c-0.3-0.3-0.7-0.3-1-0.1
			c-0.1,0.1-0.1,0.1-0.2,0.2c-5,9.6-11.3,32.1-24.3,21.8c-0.6-0.4-1.2,0.1-1.3,0.8c-0.5,4.3-3.5,7.1-5.3,10.7
			c-5.8-2.8-10.3-8-13.4-14.2c-0.5-1-1.8-0.4-1.6,0.7c1.6,10.1,3.2,20.3,3.3,30.7c0.1,9.7-0.9,21.6-8.3,27.9
			c-11.7-22.6-1.4-48.3-4.7-72.7c-0.1-1-1.3-0.8-1.6,0c-3.8,9.3-12.9,6-17.9,0.2c-0.6-0.7-1.6,0-1.5,0.9c0.5,2.7,0.1,5.5,0.5,8.2
			c-7.1-2-12.9-6.8-18.3-12.1c-0.3-0.4-0.9-0.4-1.3,0c-0.3,0.3-0.4,0.8-0.1,1.1c3,6.3,6.6,12.5,8.5,19.4c0.4,1.3,0.7,2.7,0.9,4.1
			c0.3,2.2,1.1,4.1-1,4.9c-2.4,0.8-5.8-0.3-7.9-1.4c-8.3-4.6-12.6-15.3-18.6-22.7c-0.3-0.4-0.9-0.4-1.2-0.1
			c-0.1,0.1-0.3,0.3-0.3,0.5c-1.2,5.3-2,10.7-2.4,16.1c-0.3,4-0.4,8.1-1.3,12c-2.5,10.7-13.4,13.9-21.8,16.4
			c-0.5,0.2-0.8,0.7-0.6,1.3c0,0.1,0,0.1,0.1,0.2c2.2,3.5,4.1,7.2,4.2,11.6c0,0.8,0,1.6-0.1,2.4c-0.3,1.4-1,2-2.3,1.7
			c-2,0.7-4.8,0.2-6.7-0.4c-0.6,0-1,0.4-1.1,0.9c0,0.2,0,0.3,0.1,0.5c3.2,6,15.2,15.9,9.4,23.5c-4.9,6.4-16.6,1.3-21.7-2.2
			c-0.9-0.6-1.7,0.7-1.1,1.5c4,5.7,9.5,10.4,11.9,17.3c-9.5,3.8-19.4,2.4-28.5-2.4c-0.5-0.2-1,0-1.2,0.5c-0.1,0.3-0.1,0.7,0.2,0.9
			c3.2,4.2,4.6,9.7,6.5,14.8c-10,3.4-19.3-4.9-27.2-10.8c-0.8-0.6-1.5,0.6-1,1.4c6,8.4,12.5,17.2,14.8,27.9
			c-7.5-0.9-13.8-5.8-18.5-12.3c-0.5-0.8-1.6,0.2-1.2,1c2.4,5.4,3.7,11.3,3.6,17.2c-3.8-3.9-6.8-8.4-8.9-13.4
			c-0.3-0.7-1.1-0.5-1.4,0.2c-3.4,9.5-4.8,20.1-10,28.7c-12-16.3-1.3-39.3,1.5-57.5l0,0v-0.2c0.1-0.8-1-1-1.3-0.2
			c-2.5,8.1-12,11.9-18.8,13.5c-6.6,1.5-16.6,2.5-21.3-4.2c-0.2-0.3-0.7-0.3-0.9-0.1c-0.1,0.1-0.2,0.2-0.2,0.4
			c-0.6,2.7-1.6,7.2-4.5,7.9c-2,0.4-4-1.3-5.4-2.6c-3.2-3-5.7-7-7.9-10.9c-0.2-0.4-0.6-0.5-1-0.4c-0.3,0.1-0.5,0.4-0.4,0.8
			c0.2,13.3,1.6,26.6,1.4,39.9s-2.2,27.9-10.6,38.2c-19.2-27-6-62.6-0.7-92.7c0.2-1-1-1.5-1.4-0.5c-3.2,9.6-7.7,22.8-19,18.2
			c-0.3-0.1-0.6,0-0.8,0.3c-5.1,8.3-14,1.3-18.1-4.4c-0.5-0.6-1.6,0-1.3,0.8c1.3,4.2,0.1,7.9-0.4,12c-6.7-1.8-12.4-6-16.6-12.1
			c-0.6-0.8-1.6,0.2-1.3,1c5,12,11.5,23.1,15.2,35.7c1.6,5.7,3.6,13.8,1.8,19.8c-0.6,2-0.9,1.4-2.6,0.6c-1.2-0.6-2.4-1.2-3.6-1.9
			c-2.3-1.3-4.5-2.8-6.6-4.5c-16.8-13.5-25.5-35.6-37.1-54.1c-0.5-0.8-1.5-0.4-1.4,0.6c0.4,2.9,0.8,7.2-1.9,9
			c-1.8,1.2-4.2,0.6-6.1,0c-4.6-1.7-8.8-4.4-12.3-8c-0.3-0.3-0.8-0.3-1.1,0c-0.2,0.2-0.3,0.5-0.2,0.8c0.9,4.3-0.1,9-0.4,13.4
			c-7.9,0-13.5-8.3-16.3-15.8c-0.3-0.9-1.5-0.4-1.5,0.4c-0.5,17.9,1.9,37-5.3,53.6c-11.1-19.4-15.7-41.7-13.2-63.9
			c0.1-0.4-0.3-0.9-0.7-0.9c-0.2,0-0.5,0-0.7,0.2c-8.7,7.8-21.9,11.7-28.8-0.7c-0.2-0.4-0.6-0.6-1-0.4c-0.1,0-0.2,0.1-0.3,0.2
			c-5.8,6.7-12.2,3.1-15.8-3.9c-0.2-0.4-0.6-0.6-1-0.4c-0.2,0.1-0.3,0.2-0.4,0.4c-1.5,2.5-3.8,4.3-5.9,6.2c-4-5.6-5.5-12.9-7.3-19.7
			c-0.1-0.4-0.5-0.7-0.9-0.6c-0.3,0.1-0.6,0.3-0.6,0.6c-2.6,10.8-3.6,21.9-5.5,32.9c-1.8,10.3-4.3,21.3-10.5,29.4
			c-11.3-24.1-1.4-55.8,8.4-78.7c0.4-0.9-0.5-1.9-1.2-1.2c-2.3,2-4.8,3.8-7.6,5.1c-1.1-9.4,3.1-17.9,7.4-25.8
			c0.3-0.4,0.2-0.9-0.2-1.2c-0.3-0.2-0.8-0.2-1.1,0C-25.8,90-34,96.9-36.8,90c-2.1-5.2-0.1-12.6,2.4-17.1
			c5.7-10,16.2-16.5,25.6-21.4c0.9-0.5,0.3-1.8-0.6-1.7c-5,0.8-10.4,0.6-14.7-2.5c-4.6-3.2-6.6-8.7-7.4-14.5
			c-0.1-0.4-0.4-0.7-0.9-0.7c-0.3,0-0.5,0.2-0.6,0.4c-1.2,2.8-3.6,3.6-5.7,5.1c-3.4-5.9-4.3-12.4-4.2-19.4c0-0.4-0.3-0.8-0.8-0.8
			c-0.4,0-0.7,0.2-0.8,0.6c-3.3,9.4-4.9,19.3-7.9,28.7c-1.3,4.4-3.2,8.6-5.6,12.4c-0.6,0.8-3.1,4.7-4.2,4.4s-2.3-3.7-2.7-4.7
			c-3.5-8-3.6-17.6-2.4-26.4c2.3-17.7,9.4-37.3,21-50c0.6-0.7-0.1-1.8-0.8-1.3c-7.3,4.1-16.1,2.7-18.1-7.3c-0.1-0.4-0.4-0.6-0.8-0.6
			c-0.2,0-0.4,0.2-0.5,0.3c-1.7,2.4-4,5.5-6.9,6c-3.8,0.6-5.1-4.1-5.8-7.4c-0.2-0.9-1.2-0.6-1.3,0.1c-1.2,8.2-2.1,17.1-5.8,24.5
			c-0.4,0.8-0.9,2.2-1.6,2.6c-0.9,0.5-0.9,0-1.6-1.1c-0.8-1.4-1.4-2.9-1.9-4.4c-0.9-3-1.4-6.1-1.4-9.3c-0.5-13.1,3.4-27.1,8.9-38.7
			c0.2-0.5-0.2-1.1-0.7-0.8C-89-52.1-95.1-50.6-96-58c-0.2-1.4-0.2-2.9,0-4.4c4.5-3.2,9.9-4.8,15.4-4.6c0.6,0,1.2,0.1,1.8,0.1
			c6.3-21.4,24.5-36.6,45.4-35.9c6.1,0.2,12.1,1.7,17.5,4.5c9.1-23.4,30.2-39.4,54.2-38.7c25.6,0.8,46.6,20.4,53,46.8
			c10.3-6.5,22.3-9.7,34.5-9.4c17.5,0.6,33.3,8.6,44.9,21.3c8.8-2.6,17.9-3.8,27-3.5c20.6,0.6,39.5,8.7,54.7,21.7
			c8,1.8,15.1,6.2,20.2,12.5c4.2-7.1,10.3-13,17.5-17c9.7-5.4,21.3-6.4,31.8-2.8c4.3-4.4,9.3-8.2,14.8-11.1
			c25.1-13.6,54.1-6.5,72,15.2c7-11.9,17.1-21.7,29.2-28.3c24.7-13.3,52.6-9.8,73.5,6.5c3.7-4,8.1-7.4,12.9-10
			c21.2-11.4,45.9-4.3,59.6,15.7c0.8-0.5,1.6-1,2.5-1.5c16.7-9,36.5-1.2,44.5,17.5c1.5,3.5,2.4,7.1,2.9,10.8
			c4.5,1.2,7.8,3.8,7.3,5.9C640.6-44.7,637.5-43.8,633.8-44.2z"/>
		<path class="st4" d="M-173.5,844c-28.8-7.5-26.9-34.6,7.6-33.3c-22.1-21-1.6-48.7,29.9-33.9c8.9-18,33.3-19.9,36.3,1
			c8.3-12.6,22.4-20.3,37.2-16.3c-54.3-27.3,21.6-55.1,54.4-50.1c-9.8-43.9,44.3-64.6,83.1-39.5c12.8-45.2,86.1-1.6,102.4,19.8
			c31-30.9,85.5-3.8,87.6,33.2c41.7-30.5,62.3,26.5,56.9,53.1c29.2-10.9,29.5,20.2,20.5,36.3c23.2-5.4,37.8,5.7,26.5,25.1
			c24-4.9,41.3,9.8,26.5,28.4c20.8-0.6,55.7,2.9,29.1,21.4c12.9-1.8,19.3,3.6,28.6,5.3c-2.9,8.2-7.8,5.8-15.6,7.9l24.4,5
			c-13.6,18.4-49.3,15.2-66.6,1.7c-12,7-5.2,6.9-20.9-1.1c-13.1,22.3-33.7,10.7-32.7-11.2c-13.5,10.6-38.3,11.2-54.9,0.6
			c28.4,20.2-35.6,33.5-54.9,10.5c-1.7,22.1-36.7,14.5-44.4-0.2c-9.9,16.4-32.1,17.6-50.2,9.8c-30.8,34.8-52.9-10.9-77.7-21.6
			c-5.2,17.8-29.2,18.5-46.9,10.9c0.4,3.5-0.3,8.1,0.1,11.8c-26.5,3.8-56,6.5-77.1-10.3c-14.4,13.8-42,6.6-43.8-13
			c-17.3,6.6-41.4,9.3-41.8-11.3c-14-0.7-29.4-1.6-42-4.3c5.1-2,10.6-5.8,16.3-8c-13.3-0.7-26.5-3-39.2-7.1
			C-208.3,851.2-191.2,846-173.5,844z"/>
		<path class="st4" d="M1063.1,806L1063.1,806z"/>
		<path class="st4" d="M325.3,800.7L325.3,800.7z"/>
		<path class="st4" d="M160.5,853.7c64.9,8.4,86.4,22.8,84.7,24.5s24.1,24.6,122,8.7c25-4.1,43.1-5.7,56.5-5.8
			c33.4,7.7,45.1,16,43.8,17.4c-1.7,1.8,24.1,24.6,122,8.7s89.8,5.5,110.7,6.9s76.5-5.5,76.5-5.5l-0.2-5
			c101.7-16.2,90.8,5.2,112.5,6.6c20.9,1.3,76.5-5.5,76.5-5.5l-1.1-31.1c14.1,5,19.4,9.3,18.5,10.2c-1.7,1.8,24.1,24.6,122,8.7
			c38-6.2,60-6.7,74-5c16.4,5.5,22.4,10.2,21.5,11.2c-1.7,1.8,24.1,24.6,122,8.7s89.8,5.5,110.7,6.9s76.5-5.5,76.5-5.5l-2.4-68
			c0,0,8-32.8,14.1-32.7s-6.4-6.2-26.3,21.1c0,0-8.5-25.4-20.4-32c0,0,15,20.5,1.7,37.2c0,0-5.1-37.1-36.2-58.6
			c0,0,29.1,40,18.6,55.9c0,0-6.8-13.3-11.1-17.8c0,0,7.5,22.2,0.6,26.6c0,0-23.2-39.8-26.5-47.4c0,0,14.5,38.5,9.7,47.3
			c0,0-13.5-17.8-17.7-24.9c0,0,5.3,23.3,2.7,21.3c-4.5-3.6-12.2-26.9-32.9-34.3c0,0,22,17.4,19.1,29.8c0,0-12.2-16-19.1-20.5
			c0,0,10.3,12.5,6.8,17.8c0,0-25.8-39.7-45.2-44.4c0,0,25.4,24.6,22.8,37.1l-4.4,10.7c0,0-5.1-8.9-8.6-16c0,0-2.7-1.7-1.9,8.9
			c2.4,29.1,0.8-8.5-18.6-30c0,0,16,34.4,7.3,44.1c0,0-22.3-29.4-32.6-49.8c0,0,10.8,21.6,4.4,40.8c-1.8-5.4-13.3-22.2-13.9-33.5
			c1.4-2.4,2.8-3.9,4.1-3.9c6.1,0.1-6.4-6.2-26.3,21.1c0,0-8.5-25.4-20.4-32c0,0,11.2,15.3,5.7,30.2c-12-18.1-3.5-13.1-3.8,6.8
			c-0.6,0.7-4.4-36.4-36.3-58.5c0,0,29.1,40,18.6,55.9c0,0-6.8-13.3-11.1-17.8c1.3,4,2.3,8.1,3,12.2c-0.6,3.5-1.4,8.7-2.5,14.2
			c-0.8-1.4-6.9-11.8-13-22.6c0.9-12.3,2.4-24.4,4.3-28.6c0,0-4.4,9.6-9,20.2c-13.6-24.3-8.8-20.1-1.9,4.5
			c-2.2,5.2-4.4,10.4-5.9,14.6c-9.9-13.8-9-14-8.5-11.9c-1.6-4.1-3.3-7.6-5-9c0,0,6.1,11.8,4.1,24.6c-5-8.2-13.2-23.8-29.4-29.7
			c0,0,21.6,17.1,19.1,29.5c-0.5-0.7-13.2-16.3-19.2-20.2c0,0,4.6,5.6,6.6,10.9c0.2,2.2,0.3,4.5,0.3,6.7
			c-0.2,0.3-25.7-39.5-45.3-44.3c0,0,25.4,24.6,22.8,37.1l-4.4,10.7c0,0-5.1-8.9-8.6-16c0,0-2.8-1.7-1.9,8.9
			c2.4,29.1,0.8-8.5-18.6-30c0,0,16,34.4,7.3,44.1c0,0-22.3-29.4-32.6-49.8c0,0,10.8,21.6,4.3,40.8c-1.8-5.4-14.1-23.6-14-34.5
			c0,0-5.4,24.5-0.3,43.2c0,0-2.5-9.1-18.9-18c0.3,0.2,2.6,2.1,3.3,17.8c0,0-19.8-21.4-27.5-37.8c0,0,6,13.8-0.2,37.6
			c0,0-21.6-3.7-22.3-32.5c0,0-5.4,38.5-10.7,43.7c0,0-0.8-18.8,0.2-29.3s-4.7,10.7-6.3,13.3s0.5-50.4,4.9-60.1
			c0,0-18.4,39.9-19.3,47.1c0,0-5.9-24.3-11.1-28.7c0,0,6.5,12.7,3.8,26c-1.2,0-3.7,0.4-7.3,2.4c-2.7-4.2-7.6-10.1-16.6-17.6
			c0,0,3.4,3.3-0.2,29.8c0,0-13-6.3-16.3-27.6c-2.5,11.9,1.3,7.3-7.1,2.6c2.2,3.3,4,6.8,5.3,10.6c-0.4,5.8-0.5,12.6,0.9,18.1
			c-0.2,0.8-0.5,1.6-0.9,2.4c-1.1,0-2.8,0.2-4.8,0.3c-2.8-11.3-11.4-36.5-35-52.8c0,0,27.1,37.2,19.6,54.1l-1.8,0.2
			c-1.9-3.7-6.9-12.7-10.3-16.2c0,0,3.1,9.3,3.5,17c-2.6,0.3-5.2,0.7-7.8,1.1c-7-12.1-19.2-33.5-21.6-38.9c0,0,10.2,27.2,10.6,41.1
			c-1.7,0.4-3.2,0.9-4.6,1.3c-4.3-5.8-11.2-15.3-14-20c0,0,5.3,23.3,2.7,21.3c-4.5-3.6-12.2-26.9-32.9-34.3c0,0,22,17.4,19.1,29.8
			c0,0-12.2-16-19.1-20.5c0,0,10.3,12.5,6.8,17.8c0,0-25.9-39.7-45.2-44.4c0,0,25.5,24.6,22.8,37.1l-4.4,10.7c0,0-5.1-8.9-8.6-16
			c0,0-2.8-1.7-1.9,8.9c2.4,29.1,0.8-8.6-18.6-30c0,0,16,34.4,7.3,44.1c0,0-7-9.2-15-20.9c1.8-3.9,3.8-6.7,5.5-6.6
			c3.9,0,0.2-2.5-8.1,2.8c-29.9-44.8-5.9-21.5-8.9,7.3c-1.2,1.2-2.5,2.6-3.8,4.1c-2.7-5.1-12.1-20.8-11.9-30.1c-1.2,5.9-2,12-2.3,18
			c-3.2-5.4-7.2-10.5-11.6-13c0,0,10.2,14,6.3,28.2c-2.7-2.4-5.6-4.6-8.7-6.4c-4.6-12.7-13.9-30.7-32.1-43.3
			c0,0,19.8,27.3,20.9,45.7c-30.6-38.8-5.3-28-16,13.4c-38.8-67.1-19-41.2-13.4-7.5c-15.2-15.9-4.4-44.7-12.5-4
			c-9.3-13.3-4.3-10.2-2.1,9.5c-0.3,1.2-0.6,2.3-0.9,3.4c-1.2-1.2-2.6-3.6-4.4-6.6c0.1-15.1,2.3-23.3-3.5-5.7
			c-0.9-1.3-1.8-2.7-2.8-4.1c0.4-15.4,2.3-42.9,5.3-49.7c0,0-11,23.8-16.4,38c-2.1-1.6-4.3-3-6.7-4.2c-2.1-6.5-4.8-13.3-7.3-15.4
			c2.1,4.4,3.5,9.2,4.1,14.1c-1.2-0.5-1.1-0.5,0,0.4c0.4,3.1,0.4,6.2,0,9.3c-1.5-1.1-1.1-0.9-0.1,0.5c-0.3,2.1-0.8,4.1-1.5,6.1
			c-9.1-12.1-24.9-30.8-37.8-34c6.1,6,11.6,12.5,16.5,19.5c0.4,3.9,0.3,10.8-1.2,22.8c-1.7-3.1-3.8-7-5.5-10.5c0,0-2.3-1.4-2,6.2
			c-3.6-4.3-7.5-11.1-9.1-21.4c-2.3,10.7,1.7,6.3-9.4-6c3,6.6,5.5,13.4,7.5,20.4c-0.4,6.4-0.3,13.7,1.7,19.3c0,0-1.8,0.1-4.9,0.3
			c-6.5-8.8-21.6-29.9-29.5-45.7c0,0,10.8,21.6,4.4,40.8c-1.8-5.4-14.1-23.6-14-34.5c0,0-5.4,24.5-0.3,43.2c0,0-2-7.4-14.4-15.3
			l-0.1-3.4c0,0,8-32.8,14-32.7s-6.4-6.2-26.3,21.1c0,0-8.5-25.4-20.4-32c0,0,10.3,14.1,6.2,28.5c-3.6-6.5-1.8-4.8-0.5,1.6
			c-0.9,2.6-2.3,5-4,7.1c0,0-5.1-37.1-36.2-58.7c0,0,29.1,40,18.6,55.9c-2.2-4.4-7.7-14.3-11.1-17.8c0,0,7.5,22.2,0.6,26.6
			c0,0-3.8-6.4-8.4-14.6c0.9-13.2,2.4-26.9,4.5-31.4c0,0-4.9,10.7-9.8,22c-22.7-40-9.6-23-3.4,7.9c-1.5,3.7-2.9,7.2-4,10.1
			c-2.1-2.9-4.7-6.4-7.1-9.9c-1.9-5.2-4-10.1-6.1-11.9c1.1,2.2,1.9,4.5,2.6,6.9c-1.1-1.6-2-3-2.7-4.2c0,0,5.3,23.3,2.7,21.3
			c-4.5-3.6-12.2-26.9-32.9-34.3c0,0,21.4,17,19.2,29.3c-4.5-4.6-12.9-16-19.2-20c0,0,10.3,12.5,6.8,17.8c0,0-25.9-39.7-45.2-44.4
			c0,0,25.5,24.6,22.8,37.1l-4.1,10.4c0,0-5.1-8.9-8.6-16c0,0-2.8-1.7-1.9,8.9c2.4,29.1,0.8-8.6-18.6-30c0,0,16,34.4,7.3,44.1
			c0,0-22.3-29.4-32.6-49.8c0,0,10.8,21.6,4.4,40.8c-1.9-5.4-14.1-23.6-14-34.5c0,0-5.4,24.5-0.3,43.2c0,0-2.5-9.1-18.9-17.9
			c0.3,0.2,2.6,2.1,3.3,17.8c0,0-19.8-21.4-27.5-37.8c0,0,6,13.8-0.2,37.6c0,0-21.6-3.7-22.3-32.5c0,0-5.4,38.5-10.7,43.7
			c0,0-0.7-18.8,0.2-29.3s-4.7,10.7-6.3,13.3s0.5-50.4,4.9-60.1c0,0-18.4,39.9-19.3,47.1c0,0-5.9-24.3-11.1-28.7
			c0,0,10.3,20-0.2,36.1c0,0,0.1-8.9-19.8-25.3c0,0,3.4,3.3-0.2,29.8c0,0-12.9-6.3-16.3-27.6c0,0-4.5,21.2-0.2,33.7
			c0,0-51.1,2.3-59.8,10.2S95.6,845.2,160.5,853.7z M1289.9,826.9c-0.1-3,5.4-22.1,9.6-29.7c-1.1,5.7-4.3,25.8,0,41.6
			C1299.5,838.8,1298,833.4,1289.9,826.9z M973.9,813.2c-0.2-1.6-0.6-3.1-1.4-4.5c1.6-3,3.2-5.1,4.7-5h0.6
			C977.1,807.1,975.8,810.3,973.9,813.2L973.9,813.2z M660.3,810.9c-0.8,1.9-1.3,3.9-1.8,6c0,0-1.2-5-3-10.8
			C657,807.4,658.7,809,660.3,810.9L660.3,810.9z"/>
		<path class="st5" d="M669.8,850.8L669.8,850.8z"/>
		<path class="st5" d="M1111.2,855.9L1111.2,855.9z"/>
		<path class="st5" d="M1209.1,891.4c-38.9,4.6-52,13.4-51,14.6s-14.7,15.3-73.1,4.1c-14.9-2.9-25.7-4.1-33.7-4.4
			c-20,4.5-27.2,9.7-26.4,10.5c1,1.1-14.7,15.3-73.1,4.1s-53.8,2.5-66.3,3.1s-45.7-4.4-45.7-4.4l0.2-3.2
			c-60.6-11.5-54.4,2.3-67.4,2.9c-12.5,0.6-45.7-4.4-45.7-4.4l1.1-19.7c-8.5,3-11.7,5.6-11.2,6.2c1,1.1-14.7,15.3-73.1,4.1
			c-22.6-4.4-35.8-5-44.2-4c-9.9,3.3-13.5,6.2-13,6.9c1,1.1-14.7,15.3-73.1,4.1s-53.8,2.5-66.3,3.1s-45.7-4.4-45.7-4.4l2.3-43.1
			c0,0-4.4-20.9-8-20.9s3.9-3.9,15.4,13.7c0,0,5.4-16,12.6-20.1c0,0-9.3,12.8-1.5,23.6c0,0,3.5-23.5,22.4-36.8
			c0,0-17.9,25-11.9,35.2c0,0,4.2-8.4,6.9-11.2c0,0-4.8,14-0.7,16.8c0,0,14.4-25,16.5-29.8c0,0-9.2,24.3-6.4,29.9
			c0,0,8.3-11.1,10.9-15.6c0,0-3.5,14.7-1.9,13.5c2.7-2.2,7.6-16.9,20.1-21.4c0,0-13.4,10.8-11.8,18.7c0,0,7.5-10,11.7-12.8
			c0,0-6.3,7.8-4.3,11.2c0,0,16-24.9,27.6-27.7c0,0-15.5,15.3-14.1,23.3l2.5,6.8c0,0,3.2-5.6,5.3-10c0,0,1.7-1,1,5.7
			c-1.8,18.4-0.4-5.4,11.5-18.8c0,0-10,21.6-5,27.9c0,0,13.7-18.4,20.1-31.2c0,0-6.7,13.6-3.1,25.8c1.2-3.4,8.2-13.9,8.8-21.1
			c-0.8-1.5-1.6-2.5-2.4-2.5c-3.6,0,3.9-3.9,15.5,13.7c0,0,5.4-16,12.6-20.1c0,0-6.9,9.5-3.8,19.1c7.4-11.3,2.3-8.2,2.2,4.4
			c0.3,0.5,3.1-23,22.5-36.7c0,0-17.9,25-11.9,35.2c0,0,4.2-8.4,6.9-11.2c-0.8,2.5-1.5,5.1-1.9,7.7c0.3,2.3,0.7,5.6,1.3,9
			c0.5-0.9,4.3-7.4,8.1-14.2c-0.4-7.8-1.1-15.5-2.2-18.2c0,0,2.5,6.1,5.1,12.9c8.5-15.3,5.5-12.7,1.1,2.8c1.3,3.3,2.5,6.7,3.4,9.3
			c6.1-8.6,5.6-8.8,5.3-7.4c1-2.6,2.1-4.8,3.1-5.7c0,0-3.8,7.4-2.8,15.6c3.1-5.1,8.2-15,18-18.5c0,0-13.1,10.6-11.8,18.5
			c0.3-0.4,8.1-10.2,11.8-12.6c-1.7,2.1-3.1,4.4-4.1,6.8c-0.2,1.4-0.3,2.8-0.3,4.3c0.1,0.2,15.9-24.8,27.7-27.6
			c0,0-15.5,15.3-14.1,23.3l2.6,6.8c0,0,3.2-5.6,5.3-10c0,0,1.7-1,1,5.7c-1.8,18.4-0.4-5.4,11.5-18.8c0,0-10,21.6-5,27.9
			c0,0,13.7-18.4,20.2-31.2c0,0-6.8,13.6-3.1,25.8c1.2-3.4,8.7-14.8,8.8-21.7c0,0,2.9,15.6-0.4,27.4c0,0,1.6-5.7,11.5-11.2
			c-0.2,0.1-1.6,1.3-2.2,11.3c0,0,12.1-13.3,16.9-23.7c0,0-3.8,8.7-0.4,23.9c0,0,13-2.1,13.8-20.3c0,0,2.8,24.5,5.8,27.9
			c0,0,0.7-11.9,0.3-18.6s2.7,6.8,3.6,8.5s0.4-32-2.1-38.2c0,0,10.5,25.5,11,30.1c0,0,3.8-15.3,7-18.1c0,0-4.1,8-2.7,16.4
			c1.6,0.1,3,0.7,4.3,1.6c1.7-2.7,4.7-6.3,10.2-11c0,0-2.1,2-0.3,18.9c0,0,7.8-3.9,10.1-17.3c1.3,7.6-0.9,4.6,4.2,1.7
			c-1.4,2.1-2.5,4.3-3.3,6.7c0.3,3.8,0,7.7-0.8,11.5c0.1,0.5,0.3,1.1,0.5,1.6l2.9,0.2c1.8-7.1,7.3-23.1,21.6-33.1
			c0,0-16.7,23.3-12.4,34.1l1.1,0.1c1.2-2.3,4.3-8,6.4-10.2c-1.2,3.5-1.9,7.1-2.3,10.7c1.6,0.2,3.1,0.5,4.7,0.8
			c4.3-7.6,11.9-21,13.4-24.5c0,0-6.5,17.1-6.9,25.9c1,0.3,1.9,0.6,2.7,0.9c2.7-3.6,6.9-9.6,8.6-12.5c0,0-3.5,14.7-1.9,13.5
			c2.7-2.2,7.6-16.9,20.1-21.4c0,0-13.4,10.8-11.8,18.7c0,0,7.5-10,11.7-12.8c0,0-6.3,7.8-4.3,11.2c0,0,16-24.9,27.7-27.7
			c0,0-15.5,15.3-14.1,23.3l2.5,6.8c0,0,3.2-5.6,5.3-10c0,0,1.7-1,1,5.7c-1.8,18.4-0.4-5.4,11.5-18.8c0,0-10,21.6-5,27.9
			c0,0,4.3-5.8,9.2-13.1c-1-2.5-2.2-4.3-3.2-4.3c-2.3,0-0.1-1.6,4.8,1.8c18.5-28.1,3.8-13.6,5.2,4.7c0.7,0.8,1.5,1.7,2.2,2.7
			c1.7-3.2,7.5-13.1,7.5-19c0.6,3.8,1,7.6,1.2,11.5c2-3.4,4.4-6.6,7.1-8.1c0,0-6.3,8.7-4.1,17.8c1.6-1.5,3.4-2.9,5.3-4
			c2.9-8,8.7-19.3,19.8-27.1c0,0-12.2,17.1-13.1,28.8c18.8-24.3,3.5-17.7,9.4,8.7c24.1-42.1,11.9-25.9,8.1-4.6
			c9.3-9.9,3.2-28.3,7.5-2.4c5.7-8.3,2.7-6.4,1.1,6c0.2,0.7,0.3,1.5,0.5,2.2c1-1.3,2-2.7,2.7-4.2c0.2-9.6-1.1-14.8,2.2-3.6
			c0.5-0.8,1.1-1.7,1.7-2.6c0-9.8-0.8-27.2-2.5-31.6c0,0,6.3,15.3,9.3,24.3c1.3-1,2.6-1.9,4.1-2.6c1.3-4.1,3-8.4,4.5-9.7
			c-1.3,2.8-2.2,5.8-2.7,8.9c0.7-0.3,0.6-0.3,0,0.3c-0.3,1.9-0.3,3.9-0.1,5.9c0.9-0.7,0.7-0.5,0,0.3c0.1,1.3,0.4,2.6,0.8,3.9
			c5.6-7.6,15.3-19.3,23.1-21.1c-3.7,3.7-7.1,7.8-10.1,12.2c-0.3,2.5-0.3,6.9,0.4,14.5c1-1.9,2.3-4.4,3.4-6.6c0,0,1.4-0.9,1.1,4
			c3-3.9,5-8.6,5.7-13.5c1.2,6.8-1.1,4,5.7-3.7c-1.9,4.2-3.4,8.5-4.7,12.9c0.2,4.1,0,8.7-1.3,12.2c0,0,1.1,0.1,2.9,0.2
			c4-5.5,13.3-18.7,18.3-28.6c0,0-6.8,13.6-3.1,25.8c1.2-3.4,8.7-14.8,8.8-21.7c0,0,2.9,15.6-0.4,27.4c0,0,1.3-4.7,8.8-9.6l0.1-2.1
			c0,0-4.4-20.9-8-20.9s3.9-3.9,15.4,13.7c0,0,5.4-16,12.6-20.1c0,0-6.4,8.8-4.1,18c2.2-4.1,1.1-3.1,0.3,1c0.5,1.6,1.3,3.2,2.3,4.5
			c0,0,3.5-23.5,22.4-36.8c0,0-17.9,25-11.9,35.2c1.4-2.8,4.8-9,6.9-11.2c0,0-4.8,14-0.7,16.8c0,0,2.3-4,5.2-9.2
			c-0.4-8.4-1.1-17.1-2.3-20c0,0,2.8,6.8,5.6,14.1c14.1-25.1,6.1-14.5,1.9,5.1c0.9,2.4,1.7,4.6,2.3,6.5c1.3-1.8,2.9-4,4.4-6.2
			c1.2-3.3,2.6-6.4,3.8-7.5c-0.7,1.4-1.2,2.8-1.7,4.3c0.7-1,1.2-1.9,1.7-2.6c0,0-3.5,14.7-1.9,13.5c2.7-2.2,7.6-16.9,20.1-21.4
			c0,0-13,10.5-11.8,18.4c2.7-2.8,7.9-10,11.8-12.5c0,0-6.3,7.8-4.3,11.2c0,0,16-24.9,27.7-27.7c0,0-15.6,15.3-14.1,23.3l2.5,6.8
			c0,0,3.2-5.6,5.3-10c0,0,1.7-1,1,5.7c-1.8,18.4-0.4-5.4,11.5-18.8c0,0-10,21.6-5,27.9c0,0,13.7-18.4,20.2-31.2
			c0,0-6.8,13.6-3.2,25.8c1.2-3.4,8.8-14.8,8.8-21.7c0,0,2.9,15.6-0.4,27.4c0,0,1.6-5.7,11.5-11.2c-0.2,0.1-1.6,1.3-2.2,11.3
			c0,0,12.1-13.3,16.9-23.7c0,0-3.8,8.7-0.4,23.9c0,0,13-2.1,13.8-20.3c0,0,2.7,24.5,5.8,27.9c0,0,0.7-11.9,0.3-18.6
			s2.7,6.8,3.6,8.5s0.4-32-2.1-38.2c0,0,10.5,25.5,10.9,30.1c0,0,3.9-15.3,7-18.1c0,0-6.4,12.6-0.3,22.9c0,0,0.1-5.7,12.2-15.8
			c0,0-2.1,2-0.3,18.9c0,0,7.8-3.9,10.1-17.3c0,0,2.4,13.5-0.3,21.4c0,0,30.5,2,35.6,7.2S1248,886.8,1209.1,891.4z M533.9,861.4
			c0.1-1.9-2.9-14-5.3-18.9c0.6,3.6,2.2,16.4-0.6,26.4C528,868.9,529,865.5,533.9,861.4z M723.1,856.4c0.1-1,0.4-1.9,0.9-2.8
			c-0.9-2-1.9-3.3-2.8-3.3h-0.4C721.2,852.5,722,854.5,723.1,856.4L723.1,856.4z M910.7,858.5c0.4,1.2,0.8,2.5,1,3.8
			c0,0,0.8-3.1,1.9-6.8C912.7,856.3,911.7,857.4,910.7,858.5L910.7,858.5z"/>
		<path class="st4" d="M1812.3,836.1c29.8-8.3,27.8-38.5-7.9-37.1c22.8-23.4,1.6-54.2-31-37.7c-9.2-20-34.5-22.2-37.6,1.1
			c-8.6-14-23.2-22.6-38.6-18.2c56.3-30.4-22.4-61.4-56.3-55.8c10.2-48.9-45.9-71.9-86.1-43.9c-13.3-50.3-89.1-1.8-106,22
			c-32.1-34.4-88.6-4.2-90.8,37c-43.2-33.9-64.5,29.6-59,59.2c-30.2-12.2-30.5,22.5-21.2,40.5c-24-6-39.2,6.3-27.5,27.9
			c-24.9-5.5-42.7,11-27.5,31.7c-21.5-0.7-57.7,3.2-30.1,23.8c-13.3-2-19.9,4-29.6,5.9c3,9.1,8,6.5,16.2,8.8l-25.3,5.6
			c14.1,20.5,51,16.9,69,1.9c12.4,7.7,5.4,7.7,21.7-1.3c13.6,24.9,34.9,11.9,33.8-12.4c14,11.8,39.6,12.5,56.8,0.7
			c-29.4,22.5,36.9,37.3,56.9,11.6c1.8,24.6,38,16.1,46-0.3c10.3,18.3,33.3,19.6,51.9,10.9c31.9,38.8,54.7-12.1,80.5-24
			c5.4,19.8,30.2,20.6,48.6,12.1c-0.4,4,0.3,9-0.1,13.1c27.4,4.2,58,7.3,79.9-11.5c14.9,15.3,43.5,7.3,45.4-14.5
			c17.9,7.4,42.8,10.4,43.3-12.5c14.5-0.8,30.4-1.8,43.5-4.7c-5.3-2.2-11-6.4-16.8-8.9c13.8-0.7,27.5-3.4,40.6-7.9
			C1848.3,844.2,1830.6,838.4,1812.3,836.1z"/>
		<path class="st6" d="M1836.6,850.9c-15.7-4.2-31.8-6.7-48-7.4c-25.4-1.3-52.8,0.6-76.3,10.1c-1.3,0.5-3.1-1-1.7-2
			c6.2-4.5,13.3-8.1,19.2-13c-8.3-9.6-24.4-8.9-36.4-6.8c-11.3,2-22.8,5.6-32.7,11.1c-1.2,0.7-2.4,1.5-3.6,2.1
			c-0.6,0.4-1.3,0.2-1.7-0.4c-0.4-0.6-0.2-1.3,0.4-1.7l0,0c1.2-0.7,2.4-1.5,3.6-2.1c13.4-8.2,24.9-19.3,33.5-32.5
			c-31.3,1.8-64.2,14-84.9,35.5c-1,1.1-2.9-0.3-2.2-1.5c4.5-6.9,13-14.9,11.8-23.4c-13,1.5-25.3,7.6-33.1,17.2
			c-1,1.2-2.9,0.2-2.2-1.2c3.4-6.9,8.3-13.2,11-20.3c-16,1.9-28,12.4-38.4,22.8c-0.5,0.5-1.3,0.5-1.8-0.1c-0.3-0.3-0.4-0.7-0.3-1.1
			c1.2-7.8,4-15.3,5.5-23.1c-14.2,6.3-21,21.8-26.4,34.3c-0.5,1.2-3,1.2-2.8-0.3c1.4-10,1.6-20.1,0.6-30.2c-1-9.7-3.2-20.2-9.8-28.1
			c-8.2,9.1-8.9,22.1-8.2,33.3c0.8,12,3.5,23.8,7,35.3c0.3,1.2-1.5,1.8-2.1,0.8c-2.6-4-6.9-7-12.1-5c-4.7,1.8-6.8,6.4-6.9,10.8
			c-0.1,0.6-0.7,1.1-1.3,1c-0.4-0.1-0.7-0.3-0.9-0.7c-3.5-11.3-17.2-11.6-25.2-3.8c-0.4,0.4-1.2,0.4-1.6,0c-0.2-0.3-0.4-0.6-0.3-1
			c1.5-5.1,2.4-11.1,0.9-16.4c-2.3-8.2-9.7-1.1-13.2,2.6c-0.8,0.9-2.6-0.3-1.8-1.3c3.5-4,5.4-8.2,4.7-13.2c-6.8,0.4-12.9,3.3-18.2,7
			c-1,0.7-2.4-0.2-1.8-1.2c2.1-4.4,3.3-9.1,3.3-14c-8.7,2.5-16.8,6.6-23.9,12c-0.7,0.5-2.3,0.1-1.8-1c2.1-4.8,4.1-9.8,4.6-15
			c-11.3,5.1-18.8,15.9-23.5,26.2c-0.2,0.6-1,1-1.6,0.7c-0.5-0.2-0.9-0.8-0.8-1.3c3.4-21.2,7.7-42.4,7.1-63.9
			c-20.2,16.2-22.3,42.5-23.5,65.3c-0.1,0.7-0.7,1.1-1.4,1.1c-0.3,0-0.6-0.2-0.8-0.5c-2.7-4.6-7.4-12.7-14.6-11.1
			c-6.4,1.5-11.4,8-15.3,12.4c-0.6,0.7-2.1,0.1-2-0.8c0.4-3.5,1.8-12-2.7-14.1c-3.1-1.5-7.4,1.5-9.8,3c-7.6,5.1-14.1,12.1-19.5,19
			c-0.8,1-2.5,0.2-1.9-1c5.1-9.1,9.4-18.6,12.7-28.5c2.9-9,5.6-19.2,3-28.5c-23.7,18.3-35.9,43.7-51.5,67.4
			c-0.3,0.5-0.9,0.7-1.3,0.4c-0.4-0.2-0.6-0.7-0.5-1.1c1.1-5.5,1.2-11.1,0.3-16.7c-11.7,3.9-17.4,16.2-24.4,24.7
			c-0.3,0.4-0.9,0.5-1.3,0.2c-0.3-0.2-0.4-0.5-0.4-0.9c0.8-4.5-0.6-8.6-1.9-12.9c-4.3,4.6-7.1,10.3-8.1,16.5
			c-0.2,0.5-0.7,0.7-1.2,0.5c-0.2-0.1-0.3-0.2-0.4-0.3c-3.3-6.7-6.5-13.4-10.3-19.8c-2.8-4.8-6.3-10.9-11.7-14
			c-4.3,5.9-4.2,14.3,2.7,23.5c-21.4-0.7-57.4,3.1-29.9,23.3c-13.3-2-19.8,3.9-29.4,5.8c3,9,8,6.4,16.1,8.7l-25.1,5.5
			c14.1,20.2,50.8,16.7,68.7,1.9c12.4,7.6,5.4,7.6,21.6-1.2c13.6,24.5,34.8,11.7,33.7-12.2c14,11.6,39.5,12.3,56.6,0.7
			c-29.3,22.3,36.7,36.9,56.6,11.7c1.8,24.2,37.8,15.8,45.8-0.2c10.2,18,33.1,19.3,51.7,10.8c31.8,38.1,54.5-11.8,80.1-23.5
			c5.4,19.5,30.1,20.3,48.4,12c-0.4,3.9,0.4,8.9-0.1,12.9c27.3,4.2,57.8,7.2,79.5-11.3c14.8,15.1,43.3,7.2,45.2-14.2
			c17.8,7.3,42.7,10.2,43.1-12.3c14.5-0.8,30.3-1.7,43.3-4.6c-5.3-2.2-10.9-6.3-16.8-8.8c13.8-0.7,27.4-3.3,40.4-7.7
			C1843.5,857.6,1840.5,853.8,1836.6,850.9z"/>
		<path class="st6" d="M-206.1,858.9c15.2-3.8,30.7-6,46.4-6.6c24.6-1.2,50.9,0.6,73.7,9c1.3,0.5,3-0.9,1.7-1.8
			c-6-4.1-12.8-7.3-18.5-11.7c8-8.7,23.6-8,35.2-6.1c11,1.7,21.6,5.1,31.6,10c1.2,0.7,2.3,1.3,3.5,1.9c1.4,0.7,2.6-1.1,1.3-1.9
			c-1.1-0.7-2.3-1.3-3.5-1.9c-12.8-7.2-23.8-17.2-32.3-29.1c30.2,1.6,62,12.5,82,31.8c1,1,2.8-0.3,2.1-1.3
			c-4.3-6.2-12.6-13.3-11.4-21c12.6,1.3,24.5,6.8,31.9,15.5c0.9,1.1,2.8,0.2,2.1-1c-3.3-6.2-8-11.8-10.7-18.2
			c15.5,1.7,27,11.1,37.1,20.4c0.5,0.5,1.3,0.4,1.8-0.1c0.2-0.2,0.3-0.6,0.3-0.9c-1.2-7-3.9-13.8-5.3-20.7
			c13.7,5.7,20.3,19.5,25.5,30.8c0.5,1.1,2.8,1.1,2.7-0.3c-1.3-9-1.5-18.1-0.6-27.1c1-8.7,3.1-18.1,9.5-25.3
			c7.9,8.1,8.6,19.8,7.9,29.9c-0.7,10.8-3.4,21.4-6.7,31.8c-0.3,1,1.4,1.7,2.1,0.7c2.5-3.5,6.7-6.3,11.7-4.5c4,1.5,6.7,5.4,6.7,9.7
			c0,1,1.8,1.3,2.1,0.3c3.4-10.2,16.6-10.4,24.3-3.4c0.8,0.7,2.1,0,1.8-0.9c-1.4-4.6-2.3-10-0.9-14.7c2.2-7.3,9.4-1,12.7,2.3
			c0.8,0.8,2.5-0.3,1.7-1.1c-3.4-3.6-5.3-7.3-4.6-11.9c6.6,0.4,12.4,3,17.6,6.3c1,0.6,2.3-0.1,1.7-1.1c-2.1-3.9-3.2-8.2-3.3-12.6
			c8.3,2.2,16.1,5.8,23.1,10.8c0.7,0.5,2.2,0,1.8-0.8c-2.1-4.4-4-8.8-4.4-13.5c11,4.6,18.2,14.3,22.7,23.5c0.6,1.2,2.5,0.7,2.3-0.5
			c-3.3-19-7.5-38.1-6.9-57.4c19.5,14.5,21.5,38.1,22.7,58.7c0.1,0.7,0.8,1.1,1.5,0.9c0.3-0.1,0.5-0.2,0.7-0.4
			c2.6-4.1,7.2-11.4,14.1-10c6.2,1.3,11,7.2,14.7,11.1c0.6,0.6,2,0.1,1.9-0.7c-0.4-3.2-1.7-10.8,2.6-12.7c3-1.3,7.2,1.3,9.4,2.7
			c7.3,4.6,13.6,10.8,18.9,17.1c0.8,0.9,2.4,0.1,1.8-0.9c-4.9-8.1-9-16.7-12.2-25.6c-2.8-8-5.4-17.3-2.9-25.6
			c22.9,16.4,34.6,39.3,49.7,60.6c0.3,0.4,1,0.5,1.4,0.2c0.3-0.2,0.4-0.5,0.4-0.8c-1-4.9-1.1-10-0.3-15
			c11.3,3.5,16.8,14.6,23.5,22.2c0.6,0.7,1.8,0.3,1.6-0.6c-0.8-4,0.6-7.8,1.9-11.6c4.1,4,6.8,9.2,7.8,14.8c0.1,0.6,1.3,0.7,1.5,0.2
			c3.2-6,6.3-12,10-17.8c2.8-4.3,6.1-9.8,11.3-12.6c4.1,5.3,4.1,12.8-2.6,21.2c20.7-0.6,55.5,2.8,28.9,21
			c12.8-1.8,19.2,3.5,28.4,5.2c-2.9,8-7.7,5.7-15.5,7.8l24.3,4.9c-13.6,18.1-49.1,15-66.3,1.7c-12,6.8-5.2,6.8-20.8-1.1
			c-13.1,22-33.6,10.5-32.5-10.9c-13.5,10.4-38.1,11.1-54.6,0.7c28.2,19.9-35.5,33-54.7,10.3c-1.8,21.8-36.5,14.2-44.2-0.2
			c-9.9,16.2-32,17.3-50,9.7c-30.8,34.3-52.6-10.7-77.4-21.2c-5.1,17.5-29.1,18.3-46.7,10.8c0.4,3.5-0.3,8,0.1,11.6
			c-26.3,3.7-55.8,6.5-76.8-10.1c-14.3,13.5-41.8,6.5-43.6-12.7c-17.2,6.5-41.2,9.2-41.6-11c-14-0.7-29.2-1.5-41.8-4.1
			c5.1-2,10.6-5.7,16.2-7.9c-13.2-0.6-26.3-3-39-6.9C-212.7,864.9-209.8,861.4-206.1,858.9z"/>
		<path class="st7" d="M55.5,784.9c-16.8,24.2-33.2,48.5-45.1,76.4c-33.4-35-8.8-118.1,6-154.7c9.6-24.1,23-45.9,40.4-63.3
			c8.4-8.5,17.9-16,28.2-22.2c5.1-3,28.1-8.4,30.4-13.2c-14.5,29.4-16,62.5-22.5,95.2C86.6,735.5,73.1,759.6,55.5,784.9"/>
		<path class="st8" d="M112.7,611.6c-58.3,38.8-61.5,141-86.4,206.1c-4.8,12.5-10.8,23.9-13.1,37.5c-15.3-14.5-15.5-45.4-14.2-65.8
			c1.7-26.9,7-53.4,15.8-78.8C31.7,662.2,63.5,615.2,112.7,611.6"/>
		<path class="st7" d="M38.1,830.8c-11.5,9.1-18.7,21.6-27,32.3c-14.5-35.4,27-80.4,39.9-108.3c18-39,42.7-65.3,82-71.5
			c16.3-2.6,32-5.7,48.1-8.7c-23.4,32.5-49.8,61.5-72,94.6C89,799.2,64.8,809.9,38.1,830.8"/>
		<path class="st7" d="M13.8,821.8c-4.4,13-8.3,21.8-8.3,36.1c-56.4-61.9-46-175.8-7.2-238.8c8.5-13.8,18-26.4,30.5-35.6
			C45.8,656.1,36.8,754.5,13.8,821.8"/>
		<path class="st8" d="M-1.7,619.1c8.5-13.8,16.8-26.2,30.8-32.9C6.4,654.4,20.2,730,6.3,801.1c-2.9,15.1-5.9,30.1-8.2,45.3
			C-52.8,790.5-35.8,674.5-1.7,619.1"/>
		<path class="st7" d="M15,858.5c1-0.5,1.9-1.1,2.7-1.9c6.5-6.3-2.4-74.7-2.8-86.8c-2.2-62.8-11.8-130-50.4-180.3
			c-21-27.4-26.4-34.7-32.3-68.7c-7.5,16.6-10,33.6-7.8,52.5c3.6,32,16.2,63.7,20.3,95.9c8.2,64.2-3.6,113.9,39.8,163.9
			C-8.3,841.3,4.7,863,15,858.5"/>
		<path class="st8" d="M7.2,837.9c5.2-93.3-36.1-178.3-66.2-263.4c-6.2-17.4-13.6-37.4-10.3-55.8c-2.7,18.6-8.3,36.8-6.3,54.6
			c3.4,30.1,14.7,58.6,19.4,88.4c4,25.8-0.4,50.2,1.8,76.1c2.7,32.8,20.1,47,39.3,71C-7.5,818.5-0.8,828.7,7.2,837.9"/>
		<path class="st7" d="M-11.6,842.5c9.9,8.5,20,14.8,26.7,12.9c18.3-5.4-8.5-62.2-13.5-80.3c-23-83.8-99.5-164.3-175.8-128.2
			c36.4,18.4,64.4,53.6,85.3,91.8c14.8,26.9,29.5,53.9,49.7,76.1C-33.9,820.5-22.9,832.8-11.6,842.5"/>
		<path class="st8" d="M20.5,856.9c-4.6-49.8-28-87.1-55.2-125.3c-26-36.6-82.3-83.4-124.1-81.9c28.1,25.6,51.8,55.7,70,89
			c17,30.9,44.4,80.4,76.9,104.5C-1.6,850.8,9.2,855.8,20.5,856.9"/>
		<path class="st9" d="M22.9,852.3c-0.3,0-0.3-3.2,0.8-8.8c1.6-7.8,4.2-15.3,7.8-22.4c4.3-9,10.6-18.9,18.2-29.4s16.3-21.5,24.4-34
			c8.3-12.3,16.6-24,25.2-33.7c4-4.6,8.3-8.9,12.8-13c4.2-3.9,8.4-7.1,12.2-10.1c7.5-6,14.2-10.3,19.2-12.4s8-2.7,8-2.5
			s-2.7,1.3-7.3,4s-10.8,7.1-18.1,13.4c-3.7,3.1-7.7,6.5-11.7,10.4c-4.3,4.1-8.4,8.5-12.3,13c-8.2,9.7-16.3,21.2-24.6,33.5
			c-8.2,12.5-17.2,23.6-24.8,33.8c-6.9,9-13.1,18.5-18.6,28.4c-3.7,6.8-6.6,14-8.8,21.4C23.7,849.3,23.2,852.4,22.9,852.3"/>
		<path class="st9" d="M18.5,820.3c-0.3-0.1-0.1-3.2-0.1-8.9s-0.3-14-1.2-24.2c-0.4-5.1-0.9-10.7-1.2-16.8s-0.6-12.5-1-19.3
			c-0.8-13.5-2-28.5-2.9-44.2s-1.2-30.7-0.7-44.3c0.3-12,1.6-24,3.8-35.8c1.5-7.9,3.6-15.6,6.5-23.1c2-5.2,3.6-7.9,3.8-7.8
			c0.6,0.3-4.3,11.7-7.4,31.6c-1.8,11.7-2.7,23.5-2.9,35.4c-0.3,13.5,0.2,28.3,1,44s1.9,30.6,2.5,44.2c0.3,6.8,0.5,13.3,0.7,19.3
			l0.7,16.8c0.4,8.1,0.4,16.2-0.2,24.3C19.5,817.2,18.8,820.3,18.5,820.3"/>
		<path class="st9" d="M29.6,678.2c0.3,0.1-0.5,4.5-1.5,11.6s-2.1,17-3.3,28s-2.3,20.9-3.6,27.9S18.9,757,18.6,757s0.4-4.5,1.2-11.6
			s1.8-17,3-28s2.5-20.9,3.9-27.9S29.4,678.2,29.6,678.2"/>
		<path class="st9" d="M7.5,791.5c-0.3,0-1-3.3-2.4-9.2s-3.8-14.4-6.9-24.9C-8,736.3-14,706.7-23.1,674.7c-2.3-8-4.7-15.7-7.3-23.2
			c-0.7-1.9-1.3-3.7-1.9-5.6c-0.6-1.8-1.2-3.6-1.9-5.3c-1.3-3.5-2.6-7-4-10.3c-5.5-13.3-10.9-25.2-14.9-35.4c-3.3-8-6-16.3-8.2-24.7
			c-1.4-6-1.7-9.3-1.5-9.4s1.1,3.2,3,9s4.9,14,9.3,24s10,21.7,15.7,35.1c1.4,3.3,2.8,6.8,4.2,10.4c0.7,1.8,1.3,3.6,2,5.5
			c0.7,1.9,1.3,3.7,1.9,5.5c2.6,7.5,5.1,15.3,7.4,23.4c9.3,32.3,14.7,62,20.2,83.1C3.7,767.3,5.7,776,6.6,782S7.7,791.5,7.5,791.5"
			/>
		<g class="st10">
			<g>
				<defs>
					<polygon id="SVGID_4_" points="12.4,846 37.4,826.4 -98.2,642.8 -123.3,662.5 					"/>
				</defs>
				<clipPath id="SVGID_5_">
					<use xlink:href="#SVGID_4_"  style="overflow:visible;"/>
				</clipPath>
				<g class="st11">
					<path class="st9" d="M20.9,839.3c-0.3,0-0.9-3.2-2.3-9.1c-1.8-8.2-4.4-16.3-7.8-24c-1.1-2.4-2.3-4.9-3.6-7.5s-2.9-5.2-4.5-7.9
						c-3.2-5.4-6.7-11.2-10.5-17.1c-8.2-13-17.2-25.4-27-37.2c-5-6-10.4-11.8-16-17.3c-5.6-5.3-10.9-10.6-15.9-15.5
						c-10-10-19.2-18.6-27.4-25.2s-15.5-10.9-20.7-13.1s-8.5-2.5-8.4-2.9s3.3-0.5,8.9,1.3s13.3,5.9,21.9,12.2s18.1,15,28.3,24.8
						c5.1,4.9,10.3,10.1,16,15.3c5.8,5.5,11.3,11.4,16.5,17.6c9.9,12,18.9,24.7,27,37.9c3.8,6.1,7.2,12,10.3,17.5
						c1.5,2.8,3,5.4,4.4,8.2s2.5,5.3,3.5,7.8c3.2,8,5.4,16.3,6.7,24.9C21.1,836,21.2,839.3,20.9,839.3"/>
				</g>
			</g>
		</g>
		<g class="st12">
			<g>
				<defs>
					<polygon id="SVGID_6_" points="-5.2,834.6 12.7,820.6 -57.8,725.2 -75.7,739.1 					"/>
				</defs>
				<clipPath id="SVGID_7_">
					<use xlink:href="#SVGID_6_"  style="overflow:visible;"/>
				</clipPath>
				<g class="st13">
					<path class="st14" d="M12.5,820.8c-0.3,0.2-4.2-5.4-12.2-12.8c-4-3.7-8.9-7.9-14.6-12.3s-12.1-9-18.8-13.9s-13-9.7-18.5-14.5
						c-4.9-4.2-9.4-8.9-13.5-13.9c-7-8.7-9.5-15.2-9.3-15.3s3.3,6,10.4,14.3c4.2,4.8,8.7,9.2,13.6,13.3c5.5,4.7,11.7,9.4,18.4,14.3
						s13.1,9.6,18.8,14.1c5.1,4,9.9,8.2,14.5,12.8C9.1,814.7,12.7,820.7,12.5,820.8"/>
				</g>
			</g>
		</g>
		<path class="st7" d="M111.3,915.7c-35.6-6.8-71-13.1-106.6-14.7c8.6-38.9,106.3-43.5,152.3-42.3c30.7,0.7,61.2,5.6,90.5,14.8
			c14.5,4.5,28.6,10.2,42.1,17c6.7,3.4,28.9,21.1,35.3,21.6c-38.9-3.2-71.6,5.6-107.7,10.2C181.5,926.8,148.5,922.7,111.3,915.7"/>
		<path class="st8" d="M319.4,910.9c-80.4-37.4-180.5-8.8-261.2-9.8c-15.5-0.2-30.9-1.8-45.6,0.5c2.4-17.4,31.9-27,52.4-32.1
			c28.5-7,57.7-10.6,87-10.8C210.7,858,279.3,870.4,319.4,910.9"/>
		<path class="st7" d="M54.5,915c-17.2-7-34.5-9.1-51-12.9c23.1-23.1,96.9-1.8,133.2,0.5c50.6,3.3,94.1,16,129.3,47.3
			c14.6,13,29.2,25.3,44.1,38c-48.4-9.8-95.7-23.2-143.9-31.8C122.5,948.3,94.1,931.1,54.5,915"/>
		<path class="st7" d="M44.9,891.8c-15.8,0.2-27-0.3-40.7,4c17.2-66.5,133.8-92.6,222.9-79.1c19.6,3,38.6,7.1,56.7,14.9
			C227.1,868.1,126.4,890.5,44.9,891.8"/>
		<path class="st8" d="M227.1,816.7c19.6,3,37.6,6.2,54.4,15.9c-82.1,1.7-144,36.5-222.4,46.5c-16.6,2.1-33.1,4.2-49.4,6.9
			C25.3,825.9,148.9,804.8,227.1,816.7"/>
		<path class="st7" d="M10.7,904c1.2,0.7,2.5,1.3,3.8,1.7c10.9,3.6,69.7-24.8,80.9-28.9c58.4-21,115.4-49.7,134.8-97.7
			c10.5-26.1,13.6-32.9,41.6-48.3c-21.4-1.3-39.5,1.9-56,9.5c-27.9,12.8-48.8,33.2-76.5,46.5c-55.2,26.6-111.6,31.8-127,83.8
			C9.8,879-1.2,896.6,10.7,904"/>
		<path class="st8" d="M24.7,891.1c93.1-24.2,143.6-85,202.6-136.5c12.1-10.5,25.6-22.9,45.6-25.7c-19.8,3.4-41.4,4.2-56.9,11.3
			c-26.3,12.1-45.1,30.3-70.1,43.4c-21.7,11.3-48.3,15-71.5,24.8c-29.3,12.3-30,31.4-38.6,54.9C32.3,872.7,27.5,881.5,24.7,891.1"/>
		<path class="st7" d="M6.2,876.6c-0.7,10.9,0.7,21.4,7.6,26.5c18.8,13.8,53.1-26.2,66.7-35.9c63-45,83-134.2-8.2-187.6
			c9.5,36.3-3.4,70.7-24.3,100.1c-14.7,20.7-29.6,41.4-35.8,65.3C10.8,851.1,7.1,864.1,6.2,876.6"/>
		<path class="st8" d="M16.3,908.1c44.2-19.2,62.4-50.3,78.7-84.9c15.7-33.2,18.6-94.9-14-129.8c-3.4,31.1-14.8,60.9-33,86.3
			c-16.9,23.8-43.9,62-42.7,96.8C5.7,887.9,9.5,899,16.3,908.1"/>
		<path class="st9" d="M49.9,895.3c-0.2-0.3,3-1.1,8.4-2.8s13.1-4.5,22.3-8.4c4.6-1.9,9.6-4,15.1-6.2s11.5-4.3,17.6-6.8
			c12.3-4.8,25.7-10.4,40.1-15.9s28.4-10.4,41.8-14.2c12.1-3.5,24.5-6,37-7.7c8.9-1.2,17.9-1.7,26.9-1.6c6.5,0.1,10.2,0.6,10.3,0.8
			c0.2,0.6-14.4,0-35.7,3.4c-12.2,2-24.2,4.8-36,8.4c-13.1,3.9-26.9,8.8-41.2,14.3s-27.8,11-40.3,15.7c-6.2,2.4-12.4,4.5-17.9,6.5
			l-15.5,5.8c-7.6,2.9-15.5,5.4-23.4,7.3C53.5,895.2,50,895.5,49.9,895.3"/>
		<path class="st9" d="M193.9,861.2c0.1,0.3-4.6,0.9-12.2,2.3s-17.8,3.4-29.1,5.8s-21.7,4.4-29.4,5.5s-12.6,1.5-12.8,1.2
			s4.5-1.1,12-2.5c7.5-1.5,17.6-3.7,29-6.1s21.8-4.3,29.6-5.3S193.8,860.9,193.9,861.2"/>
		<path class="st9" d="M69.2,877.1c-0.3-0.3,2.4-1.8,7-4.8s10.9-7.6,18.7-13.4c15.5-11.7,39.4-25.8,63.2-43.3
			c5.9-4.4,11.5-8.8,16.7-13.2c1.3-1.1,2.6-2.2,3.9-3.3s2.5-2.2,3.7-3.2c2.4-2.2,4.7-4.4,6.9-6.5c8.7-8.7,16-16.9,22.8-23.4
			c5.4-5.4,11.2-10.2,17.5-14.4c4.6-3,7.7-4.3,7.9-4.1s-2.2,1.9-6.3,5.3c-5.7,4.7-11,9.8-16,15.2c-6.3,6.7-13.3,15.1-21.8,24
			c-2.1,2.2-4.4,4.5-6.8,6.7c-1.2,1.1-2.4,2.2-3.7,3.3s-2.6,2.2-3.9,3.3c-5.2,4.5-10.8,9-16.8,13.4c-23.9,17.7-48.3,31.4-64.4,42.5
			c-6.4,4.5-13.1,8.7-20,12.5C72.6,876.2,69.4,877.3,69.2,877.1"/>
		<g class="st10">
			<g>
				<defs>
					<polygon id="SVGID_8_" points="20.7,897.9 58.1,913.1 132.7,742.5 95.3,727.3 					"/>
				</defs>
				<clipPath id="SVGID_9_">
					<use xlink:href="#SVGID_8_"  style="overflow:visible;"/>
				</clipPath>
				<g class="st15">
					<path class="st9" d="M33.5,903.1c-0.3-0.3,2.4-1.8,7-4.7c6.3-3.9,12-8.6,17.1-13.9c1.6-1.7,3.1-3.5,4.5-5.4
						c1.4-1.9,2.7-4,4.2-6.2c2.8-4.4,5.7-9.1,8.6-14.1c6.3-10.8,11.5-22.3,15.5-34.1c2-6.1,3.6-12.4,4.6-18.8
						c0.8-6.4,2-12.4,3.1-18.1c2.1-11.5,3.6-21.9,3.7-30.8s-1-16.4-2.9-21.5s-3.9-7.9-3.5-8s2.9,2.6,5.4,7.9s4.3,13.1,4.6,22.3
						s-0.8,19.8-2.7,31.4c-0.9,5.8-2,11.8-2.8,18.2c-0.9,6.6-2.5,13-4.6,19.3c-4.1,12-9.5,23.6-16.1,34.4c-3,5-6.1,9.7-9.1,14
						c-1.5,2.2-2.9,4.2-4.5,6.2c-1.5,1.9-3.2,3.7-4.9,5.3c-5.5,5.3-11.9,9.8-18.7,13.3C36.9,902.2,33.8,903.3,33.5,903.1"/>
				</g>
			</g>
		</g>
		<g class="st12">
			<g>
				<defs>
					<polygon id="SVGID_10_" points="18.6,879.7 45.3,890.5 84.1,801.7 57.4,790.9 					"/>
				</defs>
				<clipPath id="SVGID_11_">
					<use xlink:href="#SVGID_10_"  style="overflow:visible;"/>
				</clipPath>
				<g class="st16">
					<path class="st14" d="M44.9,890.3c-0.4-0.2,2-5.2,3.2-14.2c0.7-5.3,1-10.7,0.9-16.1c0-6.1-0.4-13-0.7-20.1
						c-0.4-6.7-0.3-13.3,0.2-20c0.4-5.3,1.5-10.6,3.2-15.7c3.1-8.5,7.5-12.7,7.7-12.5c0.4,0.2-3.3,4.6-5.9,13.1
						c-1.5,5.1-2.3,10.3-2.6,15.6c-0.3,6.6-0.3,13.3,0,19.9c0.3,7.2,0.6,14,0.5,20.1c0,5.4-0.5,10.8-1.4,16.1
						C48.1,885.6,45.1,890.4,44.9,890.3"/>
				</g>
			</g>
		</g>
		<path class="st7" d="M1567.6,803.6c28.1,21.1,55.7,42.4,79.7,69.7c25.4-53.3-33.3-138.7-63.5-174.9
			c-19.9-23.8-43.3-43.4-69.5-56.5c-12.8-6.5-26.4-11.2-40.4-14.2c-6.9-1.5-35.2,1.5-39.7-3.1c27.3,28,41.2,65.2,60.6,100.2
			C1513.9,759.4,1538.2,781.6,1567.6,803.6"/>
		<path class="st8" d="M1438.6,627.8c81,21.3,122.1,137.1,174.5,201.9c10.1,12.5,21.1,23.1,28.7,37.8c12.2-22.7,1.1-58.2-7.9-81
			c-11.8-30-27.6-58.3-46.9-84.1C1549.9,653.7,1496.3,612.5,1438.6,627.8"/>
		<path class="st7" d="M1604.3,849.3c16.5,5.8,29.3,17.4,42.8,26.3c3.6-46.3-60.4-81.4-85.4-108.3c-34.9-37.5-72.8-57.9-120.1-49.4
			c-19.7,3.5-38.8,6.2-58.3,9.1c38.7,28,79.5,50.7,117.2,79.8C1534.5,833.3,1566.2,836,1604.3,849.3"/>
		<path class="st7" d="M1628.9,829.4c9.9,13.2,17.4,21.7,22.7,38c41.9-93.3-11.8-219.7-79.3-276.4c-14.8-12.5-30.3-23.2-48-28.7
			C1531.5,652.3,1577.9,761.4,1628.9,829.4"/>
		<path class="st8" d="M1572.3,591c-14.8-12.5-28.9-23.4-47.3-25.5c51,69.2,62.9,161.2,104.9,237.2c8.9,16.1,17.8,32.1,26,48.6
			C1693.7,767.1,1631.7,640.9,1572.3,591"/>
		<path class="st7" d="M1641,871.9c-1.3-0.1-2.6-0.5-3.8-1.1c-9.8-4.7-24.7-86.5-28.6-100.5c-20.5-72.8-34.1-153.6-8.4-226.5
			c14-39.7,17.5-50.2,11.8-91.6c14.7,16,23.7,34.5,28.2,57.1c7.6,38.1,4.8,79.4,11.9,117.9c14.1,76.8,45.9,129.1,14.5,203.6
			C1661.4,843,1654.4,872.9,1641,871.9"/>
		<path class="st9" d="M1629.7,867.9c0.3-0.1-0.8-3.8-4.1-9.8c-4.7-8.2-10.4-15.8-17.1-22.6c-8.2-8.6-19.1-17.5-31.6-26.5
			s-26.5-18.2-40.4-29.2c-14.1-10.8-27.8-20.9-41.1-28.6c-6.3-3.7-12.8-7-19.4-9.9c-6.3-2.8-12.3-4.8-17.7-6.7
			c-10.8-3.9-20-6.1-26.5-6.7s-10.1,0.1-10.1,0.4s3.6,0.5,9.8,1.7s15,3.9,25.6,8.2c5.3,2.1,11.2,4.3,17.2,7.2
			c6.5,3.1,12.7,6.4,18.8,10.2c13,7.8,26.4,17.8,40.5,28.6c14,11.1,28.3,20.2,40.8,29s23.4,17.2,31.8,25.2
			c6.7,6.3,12.7,13.3,17.9,20.9C1627.7,864.8,1629.4,868.1,1629.7,867.9"/>
		<path class="st9" d="M1622.9,829.5c0.3-0.2-1.1-3.7-3.2-10.3s-4.7-16.1-7.6-28.2c-1.4-6-3-12.7-4.7-19.7s-3.9-14.5-5.9-22.5
			c-4-15.8-8.2-33.4-12.9-51.7s-9.8-35.7-15.4-51c-4.8-13.6-10.6-26.8-17.5-39.5c-4.6-8.4-9.9-16.4-15.9-23.9
			c-4.3-5.2-7-7.7-7.2-7.4c-0.6,0.6,9.2,11.7,20.1,33.2c6.3,12.8,11.7,25.9,16.3,39.4c5.3,15.3,10.2,32.5,14.9,50.8
			s9,35.8,13.3,51.6c2.1,7.9,4.4,15.4,6.3,22.3l5.3,19.5c2.5,9.5,5.5,18.8,9.1,27.9C1620.6,826.5,1622.6,829.7,1622.9,829.5"/>
		<path class="st9" d="M1558.2,671.2c-0.3,0.2,2.2,4.9,6,12.7s8.7,18.6,14,30.7s10.3,23,14.3,30.6s6.9,12.1,7.2,11.9s-2-5-5.6-12.8
			s-8.3-18.8-13.7-30.9s-10.5-22.9-14.7-30.5S1558.5,671,1558.2,671.2"/>
		<path class="st7" d="M1529.3,894.1c28.4,0.8,56.7,2,84.7,7.9c-4-40.5-80.4-65.7-116.5-74.3c-23.8-5.6-48.3-7.5-72.1-4.5
			c-11.7,1.4-23.2,4.1-34.3,8c-5.5,2-24.2,14.9-29.2,14c30.8,5,55.8,20.7,83.8,32.9C1473.4,890.2,1499.6,893.2,1529.3,894.1"/>
		<path class="st8" d="M1366.3,845.4c65.8-20.1,142.3,29.4,205.8,45.5c12.2,3.1,24.4,4.8,35.7,10.1c-0.7-17.8-23.1-33.5-38.8-43
			c-21.2-12.6-43.9-22.4-67.6-29.2C1455.4,815.8,1400.6,813.6,1366.3,845.4"/>
		<path class="st7" d="M1574,905.5c14-3.3,27.8-1.8,40.9-2c-16.4-27.8-75.9-22.3-104.6-27.6c-40-7.5-75-4-104.9,19.7
			c-12.4,9.8-24.7,19-37.3,28.4c38.7,0.5,76.8-2.8,115.3-1.2C1518.2,924.2,1541.7,913.1,1574,905.5"/>
		<path class="st7" d="M1583.1,884.4c12.3,3.6,21.2,5.4,31.6,12.6c-8.8-69.8-98.4-120.3-169.3-125.7c-15.6-1.2-30.8-1.1-45.6,2.8
			C1441.8,822.3,1519.3,866,1583.1,884.4"/>
		<path class="st8" d="M1445.4,771.3c-15.6-1.2-29.9-1.8-43.8,4.3c64.4,19.1,110.5,66.7,171.2,93.2c12.9,5.6,25.7,11.2,38.3,17.3
			C1603.2,823.1,1507.7,776,1445.4,771.3"/>
		<path class="st7" d="M1609.1,903.8c-1,0.5-2,0.8-3.1,0.9c-8.8,1.2-52.9-39.4-61.4-45.8c-44.3-33.3-87.1-73.8-98.9-125.6
			c-6.4-28.2-8.3-35.5-29.3-56.8c16.1,2.9,31.1,10.3,43.3,21.3c21,18.6,35.9,43.3,56.8,62.4c41.5,38.1,85.3,55.2,93.7,110.1
			C1611.5,879.2,1618.9,899,1609.1,903.8"/>
		<path class="st8" d="M1599.1,888c-71.3-43.7-106.7-114.8-149.3-178.4c-8.7-13-18.4-28.2-34-35.2c15.3,7.5,32.2,13,43.9,23.3
			c19.8,17.5,33.2,39.7,51.9,58c16.2,15.8,36.8,25.1,54.3,39.7c22.1,18.5,21.3,37.5,26.4,62.7C1594.3,868.2,1597.5,877.9,1599.1,888
			"/>
		<path class="st7" d="M1614.5,877.5c-0.2,11-2,21.2-7.8,24.7c-15.7,9.7-39.8-37.3-49.8-49.8c-46.2-58-55.6-150.9,19.8-184.6
			c-10,34.1-2.4,71,11.9,104.6c10.1,23.7,20.3,47.4,23.4,72.4C1612.8,851.2,1614.8,864.9,1614.5,877.5"/>
		<path class="st8" d="M1604.4,906.7c-33.3-28.4-45.4-63.2-55.8-101c-9.9-36.3-7.8-98.3,20.2-126c0.5,31.9,7.2,63.4,19.8,92.7
			c11.6,27.2,30,70.9,26.6,105.3C1614.1,888.6,1610.8,898.5,1604.4,906.7"/>
		<path class="st9" d="M1599.4,906c0.1-0.2-2.2-1.8-6.9-3.9c-6.8-2.9-14-4.9-21.3-6c-11-1.7-22-2.5-33.1-2.5
			c-12.5-0.2-26.2,0.2-40.4-0.5c-14.4-0.6-28.2-0.8-40.7,0.1c-6.3,0.5-12.2,1.2-17.8,2.1s-10.6,2.1-15.2,3.2
			c-9.2,2.1-16.6,4.5-21.4,6.8s-7.1,4-6.9,4.2s2.7-1.1,7.6-2.9c7-2.4,14.1-4.3,21.4-5.5c4.6-0.9,9.6-2,15.1-2.7s11.3-1.4,17.4-1.7
			c12.3-0.7,25.9-0.4,40.3,0.2c14.4,0.7,28.2,0.2,40.6,0.3c10.9-0.2,21.9,0.4,32.7,1.7c7.2,0.9,14.3,2.5,21.2,4.8
			C1596.7,905.1,1599.3,906.3,1599.4,906"/>
		<path class="st9" d="M1578.9,886.8c0.2-0.2-2.3-1.7-6.4-4.6s-9.9-7.3-16.9-13c-3.5-2.8-7.3-6-11.4-9.3s-8.7-6.7-13.4-10.5
			c-9.3-7.4-19.4-15.8-30.3-24.3s-21.6-16.4-31.8-22.9c-9.1-5.9-18.6-11.1-28.5-15.5c-6.8-3-13.8-5.4-21-7.3
			c-5.1-1.3-8.1-1.6-8.1-1.3c-0.2,0.6,11.3,3,27.8,10.9c9.6,4.7,18.8,10,27.7,15.9c10,6.6,20.5,14.4,31.3,22.9s21,16.8,30.6,24.1
			c4.7,3.7,9.4,7,13.6,10.2l11.8,9c5.7,4.5,11.7,8.5,17.9,12.2C1576.1,886,1578.8,887.1,1578.9,886.8"/>
		<path class="st9" d="M1468.3,822.5c-0.1,0.3,3.6,1.9,9.4,4.8s13.8,7.1,22.5,11.9s16.7,9,22.7,11.7s9.8,4.1,9.9,3.9s-3.5-2-9.2-5.1
			s-13.6-7.4-22.3-12.1s-16.8-8.9-22.9-11.5S1468.4,822.3,1468.3,822.5"/>
		<path class="st9" d="M1565.1,864.7c0.2-0.2-1.8-2.3-5.2-6.3s-8-9.9-13.7-17.3c-11.4-14.9-29.1-33.9-46.5-56.4
			c-4.3-5.6-8.4-11.2-12.2-16.7c-0.9-1.4-1.9-2.8-2.8-4.1s-1.9-2.7-2.7-4c-1.7-2.7-3.4-5.3-4.9-7.9c-6.2-10.5-11.3-20.2-16.2-28.1
			c-3.8-6.3-8-12.4-12.7-18c-3.4-4-5.7-5.9-5.9-5.8s1.6,2.4,4.6,6.6c4.2,5.9,8,12.1,11.5,18.5c4.5,8,9.4,17.8,15.4,28.5
			c1.5,2.7,3.1,5.4,4.9,8.1c0.9,1.4,1.8,2.7,2.7,4.1s1.9,2.7,2.8,4.1c3.8,5.6,7.9,11.2,12.3,16.9c17.5,22.6,35.7,41.4,47.5,55.8
			c6,7.2,11,12.9,14.8,16.7S1564.9,864.9,1565.1,864.7"/>
		<g class="st10">
			<g>
				<defs>
					<polygon id="SVGID_12_" points="1601.6,895.6 1571.2,902.8 1524.8,717.5 1555.2,710.4 					"/>
				</defs>
				<clipPath id="SVGID_13_">
					<use xlink:href="#SVGID_12_"  style="overflow:visible;"/>
				</clipPath>
				<g class="st17">
					<path class="st9" d="M1591.2,898.1c0.2-0.2-1.8-2.3-5.1-6.1c-4.8-5.3-8.9-11.2-12.4-17.4c-1.1-2-2.1-4.1-3.1-6.3
						s-1.9-4.6-2.8-7.1c-1.9-4.9-3.8-10.2-5.8-15.9c-4.2-12.1-7.4-24.6-9.8-37.2c-1.2-6.5-1.9-13.1-2.2-19.7
						c-0.2-6.5-0.7-12.8-1.1-18.7c-0.8-11.8-1.2-22.5-0.7-31.4s2-16,3.8-20.8s3.6-7,3.3-7.2s-2.5,2-4.8,6.7s-4.3,12.1-5.2,21.1
						s-0.8,19.9-0.2,31.8c0.3,6,0.7,12.2,0.9,18.6c0.3,6.8,1,13.5,2.2,20.1c2.4,12.8,5.8,25.4,10.2,37.6c2,5.7,4.1,11,6.1,15.9
						c1,2.5,2,4.8,3.1,7.1s2.3,4.4,3.5,6.3c3.8,6.3,8.4,12,13.8,17.1C1588.7,896.5,1591,898.2,1591.2,898.1"/>
				</g>
			</g>
		</g>
		<g class="st12">
			<g>
				<defs>
					<polygon id="SVGID_14_" points="1604.6,877.9 1582.9,883 1558.8,786.7 1580.5,781.6 					"/>
				</defs>
				<clipPath id="SVGID_15_">
					<use xlink:href="#SVGID_14_"  style="overflow:visible;"/>
				</clipPath>
				<g class="st18">
					<path class="st14" d="M1583.2,883c0.3-0.1-1.2-5.6-1.5-14.8c-0.2-5.4,0-10.8,0.4-16.2c0.5-6.1,1.3-12.8,2-19.8s1.3-13.8,1.3-20
						c0.1-5.5-0.4-10.9-1.4-16.3c-1.8-9.1-5-14.2-5.1-14.1c-0.3,0.1,2.3,5.3,3.7,14.3c0.8,5.3,1.1,10.6,1,16
						c-0.1,6.1-0.7,12.8-1.4,19.8s-1.5,13.8-1.8,19.9c-0.4,5.4-0.4,10.9,0,16.3C1581,877.5,1583,883,1583.2,883"/>
				</g>
			</g>
		</g>
	</g>
</g>
</svg>
