<svg id="Layer_1" data-name="Layer 1" xmlns="http://www.w3.org/2000/svg" viewBox="0 0 5000 260"><defs><style>.cls-1{fill:#032616;}</style></defs><path class="cls-1" d="M5000,204.15l-40.53-.25c-.62-3.55-.72-12.05,11.58-14.83,15.71-3.56,17.91,3.94,15.67-2.63-11.19-21.68-21.21-17.87-35.82,15.77a75.56,75.56,0,0,1,7.06-20.27c11.89-27.07,39.09-31.27,39.09-31.27-5.64-8.29-8.42-7.72-15.79-6,2.85-5.21,1.65-6.65-8-2.19a37.06,37.06,0,0,0-14.81,12.95,98.49,98.49,0,0,0-19.12,18.09c1.29-39.91,56.27-100.28,56.27-100.28-51.72-8.18-71.26,73.68-71.26,73.68,13.82-89-29-97.21-29-97.21,20.66,37.85,14.52,100.28,14.52,100.28C4905,47.61,4865.51,49.66,4865.51,49.66,4876.35,55.8,4895.34,153,4895.34,153c-37.73-95.16-85.71-77.77-85.71-77.77C4862.17,101.85,4863,153,4863,153c-49.21-40.93-84.24,10.23-84.24,10.23,24.13-5.73,40.84-3.54,52.4,2.21,6.22,10.93,12.67,24.06,14.58,36.76-12.83-33.64-21.64-37.45-31.48-15.77-2,6.57,0-.93,13.77,2.63,11.05,2.84,10.72,11.64,10.14,15.05l-301.39-3.88,2.24-4c26.86-14.45,23.88-51.24,6.72-34.81s-26.86,40.07-26.86,40.07l-5.23-2-1.49-15.77c-3.73-28.25-14.18-43.36-14.18-29.56s9.7,47.3,9.7,47.3l-8.95-2-3.73-33c-11.94-36.91-23.13-34-21.64-18.92s16.42,50.58,16.42,50.58l-26.08.05c14.52-13.13,1.28-26.54-33.33-17C4402,189.2,4379.85,195,4366,198.48l-9.69,0c10.27-6.45,31.76-20.09,55.72-36.17,50.75-40.42,26.22-53.2-20.83-29.08l-67.74,40.66,22-29.51c-1.49,1.94-2.51,2.69,22.63-35.38,31.71-48-8.93-59-35.95-34.93-9.89,8.83-12.85,10.92-13.53,11.11-.71,1.08-2.61,3.63-7.14,9.14,11-52.06-28.33-63.41-31.12-29-1,11.68-1.18,16-1.07,16.55-.39,2.69-.88,6-1.48,10-39.81-51.9-73.1-21-55.39,9.88s58.85,87.63,58.85,87.63-14.41-11-63.35-48.51c-59.23-36.71-86.9-13.95-52.81,11.42,32.64,24.28-22.41-12.81,76,46.39l-12.52,0c-44-12-105.84-21-103-2.39a7.66,7.66,0,0,0,.9,2.57l-11.23,0a115.65,115.65,0,0,1,14.92-14.45c9-7.23,14.18-34.82.75-28.25s-27.61,42.7-27.61,42.7l-8.95,2.63s-2.24-15.77-6.72-35c-4.47-17.86-15.67-23.52-10.44-8.41s10.44,40.07,10.44,40.07l-10.44-.65a140.37,140.37,0,0,0-13.43-47.3c-14.93-22.34-14.93,5.25-8.21,11.17s17.16,40.07,17.16,40.07l-2.24-1.31L3989.87,197c14.92-24.31,23.87-49.27,0-30.35s-8.13,32.32-8.13,32.32-9.78,2.63-12-2.63,24.62-47.95,4.48-35.47-10.45,38.1-10.45,38.1-11.94,0-14.92-2-28.35-38.1-35.07-23,15.67,24.3,15.67,24.3H3536.12c14.65-23.9,50.92-44.42,50.92-44.42-30.45-10.67-56.89,24-56.89,24,1.12-34.69,48.92-87.18,48.92-87.18-45-7.12-62,64-62,64,12-77.39-25.23-84.51-25.23-84.51,18,32.91,12.62,87.18,12.62,87.18-4.23-89-38.56-87.18-38.56-87.18,9.43,5.34,25.94,89.85,25.94,89.85-32.81-82.73-74.53-67.61-74.53-67.61,45.69,23.13,46.42,67.61,46.42,67.61-42.79-35.58-73.25,8.9-73.25,8.9,48.95-11.62,62.75,14.23,66.64,29.29H3377s-1.2-4.59,4.77-13.79c13.43-12.48-.75-15.11-13.43-3.94s0,16.42,0,16.42l-23.79,1.31s-3.82-8.54-11.28-25-14.93-26.28-21.16-3.94S3333.26,197,3333.26,197l-70.89-1.31s7.47-19,19.4-32.85,19.4-37.44,4.48-29.56-26.86,21-32.83,32.85,0,30.21,0,30.21l-18.65,1.32s1.49-9.86,11.19-29.56c11.19-36.79-5.22-22.34-17.91-4.6a28.64,28.64,0,0,0-.75,33.5l-16-.64c-.95-1.37-6-7.19-25.77-28.26-32.08-34.16-27.61.65-23.88,9.85S3190,197,3190,197l-71.17-.7c24.42-14.3,12.55-32.7-26.45-21.9-44.22,12.25-73.41,19.43-79.3,20.86h-.67c3.69-2.29,30.59-19,61.65-39.87,50.75-40.42,26.22-53.2-20.83-29.08l-67.74,40.66,22-29.51c-1.49,1.94-2.51,2.69,22.63-35.38,31.71-48-8.93-59-36-34.93-9.89,8.83-12.85,10.92-13.53,11.11-.71,1.08-2.61,3.63-7.14,9.14,11-52.06-28.33-63.41-31.12-29-.95,11.68-1.18,16-1.07,16.55-.39,2.69-.88,6-1.48,10-39.81-51.9-73.1-21-55.39,9.88s58.85,87.63,58.85,87.63-14.41-11-63.35-48.51c-59.23-36.71-86.9-13.95-52.81,11.42,33.09,24.62-23.94-13.84,80.11,48.87l-8.27-.08c-44-13.06-114.4-24.58-111.39-4.77a8.34,8.34,0,0,0,1.64,3.73c-34.83-.33-62.93-.58-79-.71,29.1-19.71,13.44-48.61,6.72-40.15s-17.16,37.52-17.16,37.52l-6,0c14.92-18.44,8.21-26.45,8.21-26.45L2686.35,174v14l-.75,1.76-5.06-1.76c-3.63-24-10.28-21.21-12.27-19.75,1,2,3.13,7.46,7.63,20.2l-13.43-.45c-8.21-37.25-28.35-50.79-33.58-27.54S2655,189.68,2655,189.68H2534.13l-121.22-3.34c20.52-25.32,56.19-45.5,56.19-45.5-37.6-13.18-70.25,29.66-70.25,29.66,1.38-42.84,60.4-107.64,60.4-107.64-55.51-8.79-76.49,79.08-76.49,79.08C2397.6,46.39,2351.6,37.6,2351.6,37.6c22.18,40.63,15.58,107.64,15.58,107.64C2362,35.4,2319.58,37.6,2319.58,37.6c11.64,6.59,32,110.93,32,110.93-40.5-102.14-92-83.47-92-83.47,56.41,28.55,57.3,83.47,57.3,83.47-52.82-43.93-90.42,11-90.42,11,53.52-12.71,73,10.89,80.1,29.37L2122.42,205s-51-2.18-123-4.57c23.92-13.7,12.67-31.58-24.87-21.19-33.41,9.25-57.85,15.48-69.42,18.37l-4.35-.12c8.06-5,30.68-19.28,56.26-36.44,48.53-38.66,25.07-50.89-19.93-27.82l-64.79,38.9,21-28.23c-1.44,1.85-2.41,2.57,21.64-33.84,30.33-45.91-8.54-56.48-34.39-33.41-9.46,8.44-12.29,10.44-12.94,10.63-.68,1-2.5,3.47-6.83,8.74,10.55-49.8-27.1-60.65-29.76-27.73-.91,11.17-1.13,15.28-1,15.83-.38,2.57-.85,5.71-1.42,9.55-38.08-49.63-69.92-20.11-53,9.46S1832,186.89,1832,186.89s-13.79-10.48-60.6-46.4c-56.64-35.11-83.11-13.34-50.5,10.92,31.09,23.14-21-12,71.59,43.73l-14.17-.21c-41.8-11-97.88-18.73-95.26-1.41a8.26,8.26,0,0,0,.2.86c-46,.2-85.74,1.23-112.89,3.51-130.38,11-342.7-4.93-342.7-4.93,62.57-13.3,56.37-50,2.09-35s-87.89,23.09-87.89,23.09,31.3-19.35,67.87-43.87c55.46-44.18,28.66-58.15-22.77-31.79l-74,44.44,24-32.26c-1.64,2.12-2.74,2.94,24.73-38.66,34.66-52.47-9.76-64.54-39.29-38.18-10.81,9.65-14,11.93-14.79,12.15-.77,1.18-2.85,4-7.8,10,12-56.9-31-69.3-34-31.68-1,12.76-1.29,17.46-1.17,18.09-.43,2.94-1,6.52-1.61,10.91-43.52-56.72-79.9-23-60.55,10.8s64.32,95.78,64.32,95.78-15.75-12-69.24-53c-64.73-40.13-95-15.25-57.71,12.48s-30-17.75,98.41,60C996.05,170,892.78,149.33,896.57,174.33c1.46,9.66,20.21,15.36,42.66,18.72-151-7.66-381.82-17.13-381.82-17.13-3.59-1.09,16.11-30.2,16.11-30.2-5.37-2.75-23.16,15.93-23.16,15.93-5.26-35.15-25.19-33-25.19-33,7.17,4.39,18.8,38.44,18.8,38.44-9.86-14.28-27.75-6.59-27.75-6.59,6.27,3.29,16.12,15.37,16.12,15.37l-163-8.78c2.68-45-32.23-51.62-32.23-51.62,14.32,7.68,14.32,51.62,14.32,51.62-1.79-29.66-24.17-26.36-24.17-26.36,9.85,3.29,15.22,26.36,15.22,26.36-14.11-1.25-39.87-1.74-73.67-1.67,20.49-20.5,47.24-35.63,47.24-35.63-37.6-13.18-70.25,29.66-70.25,29.66,1.38-42.84,60.4-107.64,60.4-107.64-55.51-8.79-76.49,79.08-76.49,79.08C244.6,35.39,198.6,26.6,198.6,26.6c22.18,40.63,15.58,107.64,15.58,107.64C209,24.4,166.58,26.6,166.58,26.6c11.64,6.59,32,110.93,32,110.93-40.5-102.14-92-83.47-92-83.47,56.41,28.55,57.3,83.47,57.3,83.47-52.82-43.93-90.42,11-90.42,11,43.42-10.31,64.43,3.27,74.61,18.63C101.22,168.17,0,171.09,0,171.09v79.25H5000Zm-149,.13a141.3,141.3,0,0,0-2.74-23.73,56.86,56.86,0,0,1,8.6,23.81Zm94-.17-2.49,0a54.64,54.64,0,0,1,2.82-5.62C4945.09,201,4945,202.92,4945,204.11Z"/></svg>