<?xml version="1.0" encoding="utf-8"?>
<!-- Generator: Adobe Illustrator 25.2.3, SVG Export Plug-In . SVG Version: 6.00 Build 0)  -->
<svg version="1.1" id="Layer_1" xmlns="http://www.w3.org/2000/svg" xmlns:xlink="http://www.w3.org/1999/xlink" x="0px" y="0px"
	 viewBox="0 0 1600 900" style="enable-background:new 0 0 1600 900;" xml:space="preserve">
<style type="text/css">
	.st0{clip-path:url(#SVGID_2_);}
	.st1{fill:#143D05;}
	.st2{fill:#1F490E;}
	.st3{fill:#153F17;}
	.st4{fill:#031C0F;}
	.st5{fill:url(#SVGID_3_);}
	.st6{clip-path:url(#SVGID_5_);}
	.st7{fill:url(#SVGID_6_);}
	.st8{fill:url(#SVGID_7_);}
	.st9{clip-path:url(#SVGID_9_);}
	.st10{fill:url(#SVGID_10_);}
	.st11{fill:url(#SVGID_11_);}
	.st12{fill:#102C16;}
	.st13{fill:#0E2312;}
	.st14{fill:#174226;}
	.st15{opacity:0.62;}
	.st16{clip-path:url(#SVGID_13_);}
	.st17{opacity:0.59;}
	.st18{clip-path:url(#SVGID_15_);}
	.st19{fill:#2B7A44;}
	.st20{fill:#395620;}
	.st21{fill:#0E3A3B;}
	.st22{fill:#1E5229;}
	.st23{fill:#1A4122;}
</style>
<g>
	<defs>
		<rect id="SVGID_1_" width="1600" height="900"/>
	</defs>
	<clipPath id="SVGID_2_">
		<use xlink:href="#SVGID_1_"  style="overflow:visible;"/>
	</clipPath>
	<g class="st0">
		<path class="st1" d="M1611.2,571.1c0,0-16.2-9.3-19.1-18.1c-2.7-8.5,1.1-20.7,3.9-35.1c0.8-17.7,9.9-42,28.1-61.8
			C1619.4,515.8,1611.1,562.3,1611.2,571.1"/>
		<path class="st2" d="M1659.9,536.3c0,0-34.6,71.8-37,79.9s-16.2,33.2-26.4,96.9l-3-0.4c0,0,6.2-45.3,28.1-97.5
			C1625.3,606.4,1651.6,548.9,1659.9,536.3"/>
		<path class="st1" d="M1524.2,589.5c0,0,15.5-17.5,14.1-26.7c-1.4-8.8-13.3-17-25.1-27.6c-11.2-14.6-36.8-30-71.4-36.2
			C1481.9,547.1,1519.4,581.8,1524.2,589.5"/>
		<path class="st1" d="M1524.2,589.5c0,0-27.3,1.3-38.9-3.4s-55.5-42.3-43.6-87.1C1488.9,544.1,1520.3,582,1524.2,589.5"/>
		<path class="st2" d="M1449,508.3c0,0,77,80.7,82.5,90.5s35.9,37.2,60.9,117l6.2-1.7c0,0-15.6-57.1-64.6-117.2
			C1525.8,586.8,1467.1,521.7,1449,508.3"/>
		<path class="st1" d="M1552,514.5c0,0,27.3-19.2,28.4-32.4c1-12.7-12.9-27.9-25.8-46.6c-10.7-24-41.1-53.8-87.2-73.8
			C1507.3,441.8,1547.8,502.4,1552,514.5"/>
		<path class="st1" d="M1552,514.5c0,0-38.3-7.1-52.9-17.6s-63-77.1-31.7-135.3C1518.1,439.9,1549,502.9,1552,514.5"/>
		<path class="st2" d="M1474.5,377c0,0,80.2,137.5,84.6,152.9s37.6,63.5,45.9,182.4l9.2-0.3c0,0-2.8-84.3-51-183.9
			C1555.1,511.4,1495,401.6,1474.5,377"/>
		<path class="st3" d="M-606.5,638.5c0,0,1161.6,198.7,1480.7,331.1L-626.8,969L-606.5,638.5z"/>
		<path class="st4" d="M914.9,911.1c28.8-2.8,61-8.9,69.8-12.9c-16.9-2.7-49-1-75.7,1.6l6.2-1.5c15.4-2.7,28-5.6,29.4-7.3
			c18.7-4.5,34-8.1,36.3-8.2c-9.8-0.7-35.6,2.1-60,6.9c-2.5,0.1-5,0.2-7.6,0.3c33.9-11.4,71.6-24.7,75.4-28.3
			c-6.8-0.7-34.5,6.2-63.2,14.7c15.5-7.5,30.1-15.1,37.4-19.8c-6.9,1.2-15.2,3-24,5.3c7.9-5.1,15.8-10.3,23.4-15.2
			c-1.8-1.7-9,0.2-18.8,4.1c13.9-10.5,23.8-19.5,23.6-22.8c-13.7,7.7-28.4,15.7-42.5,23.6c9.6-7.1,18.7-14.3,26-20.3
			c-5.8,1.9-14.7,5.7-24.6,10.4c17.8-17.7,32.7-33.6,35.3-39.2c-3.7,1.1-22.9,17.5-44.1,36.2c3.3-4,6.6-8.1,9.6-12
			c8-6.6,14.7-12.2,19.1-15.8c-3.8,1.7-7.5,3.4-11.1,5.2c4.4-5.7,8.3-11.7,11.9-18c-1.2,1.8-9.4,10.7-20.2,22.2
			c-6.1,3.2-11.8,6.4-17.3,9.7c5.1-9,9.7-17.8,13.4-25.8c2.6-2.2,5.2-4.4,7.9-6.5c-2.2,1.2-4.4,2.4-6.6,3.6
			c1.9-4.2,3.5-8.4,4.9-12.7c-3.1,3.1-8.7,10-15.3,18.8c-6.9,4.2-13.3,8.6-19.3,13c0.3-2.9,0.5-5.9,0.5-8.9c0,0-1,1.2-2.6,3.4
			c1.1-4,2.2-8,3.2-11.9c7.4-13.6,14.1-26.6,19.2-37.5c-4.7,4.3-9.4,9-14,13.9c1-5.7,1.9-11.2,2.5-16.5c-4,8.1-8.3,17.8-12.8,28.2
			c-7.9,9.4-15.5,19.4-22.6,29.5c1.3-15.4,2.2-31.9,2.2-48.5c1.2-9.5,1.7-17,1.3-21.1c-0.5,1-1.1,2.1-1.6,3.2
			c-0.1-3.9-0.3-7.8-0.5-11.7c-0.7,5.8-1.4,11.7-2.1,17.6c-8.3,19.5-17,50.2-23.4,76.7c0.2-2.5,0.5-5,0.7-7.6
			c3-18.4,4.7-33.7,3.5-36c2.3-22.8,4.3-41.4,5.1-44.1c-4.6,10.8-11.5,40.9-15.7,70.3c-0.9,2.8-1.8,5.7-2.6,8.6
			c0.7-42.7,0.8-90.3-1.7-96c-3.4,7.3-6.7,41.2-8.5,76.9c-2.2-20.5-4.9-39.9-7.1-49.9c-1.3,8.3-2.6,18.3-3.5,29.1
			c-2.6-11-5.2-21.9-7.5-32.3c-2.4,1.2-3.2,9-2.9,20.4c-0.1,0.4-0.2,0.8-0.3,1.2c-6-19.2-11.8-33.4-15.5-34.4
			c3.1,18.5,6.2,38.3,9.3,57.3c-4-13.6-8.5-26.8-12.2-37.4c-0.1,5.3,0.2,13,1,21.9c-0.3,2-0.7,3.9-1,5.8
			c-11.8-25.4-22.6-46.4-27.3-51.4c-0.2,4.6,10.3,32.8,22.6,64.1c-12.8-22-26-41.8-32.9-49.5c1.1,1.6,5.4,9.7,11.2,21.2
			c0.7,9.1,1.9,18.2,3.6,27.2c-11.6-13.3-23-25-32.3-32.2c4.2,9.1,20.4,34.3,38.4,59.1c0.3,1.3,0.7,2.5,1,3.8
			c-3.3-2.5-6.8-4.9-10.4-7c-13.8-17-27.7-31.9-33.7-36.1c3.3,8.1,9.5,19,17,30.6c-9-6.5-18.2-12.6-27.3-18.2
			c-0.3-0.4-0.6-0.8-0.9-1.2c0.1,0.3,0.3,0.6,0.5,0.9c-7.8-4.8-15.5-9.1-22.9-12.9c12,12.6,28.2,28.1,45.3,43.7
			c4.4,5.4,9.1,10.9,14,16.2c1.4,2.1,2.7,4.2,4.2,6.3c-27.2-23.2-58-48.7-63-50.1c2.7,5.8,20.7,24.1,41.3,43.1l-5.3-2.4
			c-11-7-21-13-27-16c2,2.3,4.2,4.8,6.6,7.3c-16.7-6.8-34.2-13-51.5-18.2c12.4,6.3,25.2,12.8,37.8,19.4c2,2.8,6.3,6.6,12.1,11.1
			c-16.2-6.5-29-10.4-31.7-8.5c13.6,7.8,28.1,16.3,42.1,24.3c-11-4.6-22-8.7-30.8-11.8c6.9,5.6,14.1,10.9,21.6,15.7
			c-24.4-6.3-45.7-10.8-51.8-10.2c2.8,2.6,26.8,10.7,53.8,19.2c-21.2-3.2-41.2-5-49.9-4.5c3.9,0.2,40.9,8.4,72.8,15.7
			c-26-0.5-55,0.5-71.9,4.6c9,2.3,38.3,5.3,66.5,6.3c-10.3,2-20.2,5.8-29.2,11.1c0,0,1.6,0.2,4.2,0.5c-17.8,4.9-35.2,10.8-50.2,17.5
			c26-2.2,64.8-8.3,97.1-14.3c1.6,0,3.2,0,4.7-0.1c-35.7,14.4-69.8,32.5-101.7,54c60.5-27.3,133.3-57.7,147.4-63.5
			c0.4,0.5,0.8,1,1.1,1.4c0.8-1.1,3.8-5,4.6-6.1l0,0c0.7-0.8,1.3-1.8,1.7-2.2c-0.6-0.3-1.3-0.5-1.9-0.6c-0.1-0.3-0.2-0.7-0.3-1.1
			c8.6,4.6,14.9,8.1,18.2,9.9c-0.2,0.7-0.3,1.4-0.4,2.1c1.6-0.1,7.3-0.3,8.9-0.4l0,0c1.2,0,2.6-0.1,3.3-0.1
			c-0.2-0.8-0.5-1.5-0.8-2.3c0.6-0.9,1.4-2.1,2.3-3.6c1.3-1.7,2.7-3.7,4.2-5.8c3-1.9,6.5-4.4,10.5-7.2c-0.8,5.6-1.4,9.8-1.8,12.3
			c-0.6,0.1-1.2,0.2-1.8,0.2c0.5,1.3,2.3,5.8,2.8,7.1l0,0c0.4,1,0.8,2,1,2.6c0.5-0.4,1.1-0.8,1.5-1.3c0.9,0.2,2.1,0.5,3.5,0.9
			c1.7,0.6,3.7,1.1,5.8,1.8c20.1,16,80.4,51.1,98.4,62.6c-18.9-20.4-40.8-37.8-65-51.6c24.8,9.5,48.6,21.4,71.1,35.5
			c-13.1-12.4-27.6-23.3-43.2-32.3c22.9,4.5,46.5,8.4,64.1,10.3C965.3,926.1,939.3,917.2,914.9,911.1z M896.1,852.4l-0.3,0.3
			l0.1-0.1L896.1,852.4z M903.5,821.5c-4.7,6.7-9.5,13.8-14.2,20.9c1.1-3.2,2.1-6.5,2.9-9.9C895.8,828.9,899.6,825.2,903.5,821.5z
			 M772.6,804.5c3,6,6,12.2,9,18.3c0,1.2,0,2.5,0,3.7l-1.4-1.8C777.8,818,775.2,811.2,772.6,804.5L772.6,804.5z"/>
		
			<linearGradient id="SVGID_3_" gradientUnits="userSpaceOnUse" x1="1245.33" y1="54.3015" x2="2265.26" y2="54.3015" gradientTransform="matrix(1.01 1.000000e-02 -1.000000e-02 -1.16 17.82 721.99)">
			<stop  offset="0" style="stop-color:#113145"/>
			<stop  offset="0.2" style="stop-color:#234939"/>
			<stop  offset="0.46" style="stop-color:#36622C"/>
			<stop  offset="0.7" style="stop-color:#417125"/>
			<stop  offset="0.89" style="stop-color:#457622"/>
		</linearGradient>
		<path class="st5" d="M1742.7,754.4l3.8-1.9c3,1,5.3,1.8,7.1,2.4l0.6,0.3c-0.4,0.1-0.9,0.2-1.4,0.2
			C1749.4,755.4,1746,755,1742.7,754.4 M1689.5,753.3c3.1,1,6.2,1.9,9.2,2.8c-5.3,2.3-10.5,4.7-15.5,7.2
			C1683.5,761.7,1685.7,758.3,1689.5,753.3 M1881.9,741.3l0.6-0.5c0.4,0.2,0.8,0.4,1.2,0.5c-0.1,0-0.3,0-0.4,0
			C1882.9,741.4,1882.4,741.4,1881.9,741.3 M1761.1,745.6l1.3-0.6l1.7,1.2C1763.1,746.1,1762.1,745.9,1761.1,745.6 M1661,744.3
			l6.7,2.1c-2.7,3-5.3,5.9-7.5,8.8C1659.9,751.5,1660.2,747.9,1661,744.3 M2027,733.5c2.6-1.7,5.2-3.4,7.9-5
			c6.6,1.9,11.7,3.2,15.4,4.1l-6,1.8C2039.8,734.4,2033.9,734,2027,733.5 M1695.8,745.7c2.5-2.9,5.4-6.2,8.6-9.7
			c8.3,3.5,15.7,6.5,22,9c-3.9,1.4-7.7,2.9-11.6,4.4C1708.8,748.3,1702.4,747,1695.8,745.7 M1900.9,728l1.1-0.7l1,1
			c-0.1,0-0.2,0-0.3,0C1902,728.3,1901.5,728.2,1900.9,728 M1853.4,733.1c1.8-2.6,3.7-5.1,5.6-7.5c2.7,2.1,5.3,4.1,7.8,5.8
			c-2.1,1.4-4.2,2.7-6.3,4.1C1858.3,734.8,1855.9,734,1853.4,733.1 M1800.6,728.3l3.4-1.6l1,0.6c-0.4,1.9-0.7,3.7-0.8,5.6
			C1802.8,731.5,1801.6,730,1800.6,728.3 M2187.9,711.9l2.4,2.1c-0.9,0.6-1.9,1.3-2.8,1.9l-1.2,0.1
			C2186.8,714.6,2187.3,713.2,2187.9,711.9 M2002.4,718.4l5,1.7c-2.7,1.3-5.4,2.5-8,3.8C1999.6,722.8,2000.6,721,2002.4,718.4
			 M2053.7,717.7c1.3-0.7,2.6-1.4,3.9-2l5.4,3.7h-0.2C2061.7,719.4,2058.5,718.8,2053.7,717.7 M1797.7,722.9l0.6,0.4l-0.4,0.1
			C1797.8,723.2,1797.7,723.1,1797.7,722.9 M1917.2,716.9c0.8-0.6,1.7-1.2,2.5-1.8c0.6,1.7,1.1,3.3,1.6,4.8
			C1920.7,719.7,1919.3,718.7,1917.2,716.9 M1976.5,709.1l4.1,1.5c-1.5,1.7-2.9,3.5-4.3,5.1C1976.1,713.6,1976.2,711.3,1976.5,709.1
			 M1662.2,739c1.9-6.5,4.1-12.9,6.7-19.1c6.2,3,12,5.7,17.6,8.2c-4.9,4.3-9.5,8.6-13.8,13L1662.2,739 M1710.9,729
			c4.8-5.1,10.1-10.6,16-16.4c7.4,8.7,15.7,16.8,24.6,24c-3,1-6.1,2-9.2,3C1733.8,736.7,1723.2,733.1,1710.9,729 M1871.5,712.2
			c2.8-2.7,5.5-5.3,8.3-7.7c4.7,5.2,8.8,9.6,12.3,13.1c-2.2,1-4.3,2-6.3,3.1C1881.5,718.2,1876.7,715.4,1871.5,712.2 M2106,693.7
			l0.6-0.3l0.1,0.9C2106.4,694.1,2106.2,693.9,2106,693.7 M1826.1,722.7c1.1-7.1,2.5-14.2,4.4-21.2c5.7,5,11.2,9.8,16.4,14.3
			c-4.3,3.3-8.5,6.8-12.5,10.2C1831.7,724.9,1828.9,723.8,1826.1,722.7 M2163,689l1.3,0.3l4.3,4.3c-3.5,3.8-7,7.7-10.7,11.6
			C2159.3,699.7,2161,694.3,2163,689 M2011.3,707.1c3.9-4.6,8.8-10.1,14.5-16.2c6.2,5.7,12,10.5,17.4,14.5
			c-5.1,1.9-10.3,3.8-15.4,5.8L2011.3,707.1 M1931.7,691.3c5.6,2.4,11,4.6,16.3,6.8c-3.1,5.4-6.6,10.5-10.3,15.5
			c-1.3-3.5-2.4-7.1-3.3-10.7l0.4-0.4l-0.5,0.1C1933.5,699.3,1932.6,695.5,1931.7,691.3 M1762.2,730.1c-7.4-6.3-16.9-14.9-27.6-25.3
			c4.6-4.5,9.6-9.3,14.8-14.1c7.7,5.5,15,10.6,22,15.3c0.6,9.1,1.5,17.5,1.8,23.8c-1.9,0.5-3.9,1.1-5.8,1.7L1762.2,730.1
			 M2167.5,678.1c3.3-7.2,7-14.2,11.1-20.9c3.7,5.5,7.2,10.5,10.5,15.1c-4.4,4.1-8.4,8.2-12.4,12.4L2167.5,678.1 M2130.1,655.2
			c5.5,5.4,10.9,10.8,16.2,16.1c-5,6.6-9.7,13.5-14,20.6c-0.9-1.4-1.6-4.7-2-9.8c1.1-0.6,2.2-1.3,3.2-1.9c-1.1,0.1-2.2,0.2-3.4,0.4
			C2129.7,672.1,2129.7,663.7,2130.1,655.2 M1978.6,698.9c3.3-11.8,9.6-26.3,16.3-41.2c6.7,8.2,13,15.3,19,21.5
			c-8.6,7-16.9,14.4-24.8,22.3L1978.6,698.9 M2036.3,679.9c7.4-7.6,15.9-16,25.3-24.9c3.1,15.8,6.7,30.7,8.8,41.2
			c-3.2,1-6.5,2.1-9.9,3.2C2053.9,694.4,2045.7,687.8,2036.3,679.9 M1834.1,688.6c2.6-8.8,5.9-18.6,9.9-29
			c11,15.3,21,27.8,29.6,37.7c-4.1,2.6-8.3,5.3-12.6,8.3C1852.6,700.3,1843.5,694.5,1834.1,688.6 M1792.5,708.7
			c-5.1-17-8.8-38.2-15-54.1c14.4,12.2,28.4,24.9,41.7,36.7c-4.3,7.7-7.9,15.7-10.9,24C1803.2,713.2,1797.9,710.9,1792.5,708.7
			 M2198.9,626.8c5.3,2.8,10.3,5.5,15.1,8c-6.8,0.9-14.3,1.8-22.6,2.7C2194,633.8,2196.5,630.2,2198.9,626.8 M2213.3,603.7
			c5.9,0.7,11.1,1.2,15.7,1.6c-0.2,2.1-0.4,4.2-0.5,6.2c-5.4,0.4-12,0.9-20.3,1.6C2210.1,610.1,2211.8,606.9,2213.3,603.7
			 M2130.2,651.9c0.8-16.5,2.7-37.3,6.1-60.9c25.1,5.5,50.5,9.7,76.1,12.5c-4.4,3.1-8.7,6.6-12.7,10.2c-6,0.6-12.8,1.2-20.4,2.1
			l-0.4-0.1l0.2,0.1c-9.5,1.1-20.3,2.4-32.7,4.1c14.4,0.8,29.1,1.4,43.1,1.8l0.9,0.5c-5.3,5-11.1,10.8-17.1,17.1l-0.8,0.1
			c-4.7-4.8-9.7-9.6-14.7-14.6c3.2,5.3,6.3,10.4,9.3,15.2l-1.1,0.1h1.2c0.7,1.2,1.4,2.3,2.2,3.4c-1.9,2.1-3.9,4.2-5.8,6.4
			c-2.9-0.4-5.8-0.8-8.6-1.1c2.5,0.7,5.1,1.5,7.6,2.2c-4.2,4.8-8.4,9.8-12.4,14.8C2143.6,661.1,2136.8,656.3,2130.2,651.9
			 M2278.7,546c-12.5-10-24.7-3.9-7.8,10.5c-3.7,0.6-18.4,9.2-8.3,12.8c-1.6,1.5-27.8,20.2-31.6,20.3c-0.1-0.5-55.9,1.1-94.5,0
			c0.4-2.7,0.8-5.5,1.3-8.3c-1.4,0.6-3.5,3.5-6,8.1l-3-0.1l2.8,0.6c-9.4,17.9-23.7,59.9-25,92.8c-3.4-1.7-6.8-3.5-10.3-5.3
			c3.5,2.9,6.9,5.6,10.2,8.2v0.2c-1.8,0.5-3.7,1-5.6,1.5c-8-11.5-14.8-29.5-21.7-48.5c2.4-2.2,4.9-4.5,7.4-6.7
			c-1.4-0.1-4.4,1.1-8.7,3.3c-6.3-17.5-12.8-35.5-20.1-49.5c-4.5,14.4-2,37.5,2.1,60c-10.4,6.6-22.6,15.1-34.8,24.5
			c-8-6.9-16.6-14.5-25.7-22.7c6.8-15.2,13.4-30.4,17.3-43.3c-9.8,7.1-19.9,18.8-29.6,32c-7.4-6.9-15.1-14-22.9-21.5
			c6.5,10.1,12.8,19.1,18.8,27.2c-11.9,17-22.9,35.8-31.6,50.1c-6.6-1.6-13.5-3.2-20.5-4.8c-4.8-23-8.2-39.5-11.8-77.7
			c-11.9,62.4-8.1,76.7-1.7,97.7c-2.6,0.9-5.1,1.7-7.6,2.6c-4.7-4.4-10.6-10-17.7-16.8c5.9-5.2,10.9-9.8,14.1-14
			c-2.4,0.7-9.5,4.2-18.8,9.5c-16.4-15.6-37.9-35.8-62.7-57.4c6.3,9.7,12.4,18.6,18.2,26.7c-4.1,3.1-11.4,12.4-18.6,24.3
			c-15.9-10-32.3-20.2-47.2-28.9l-0.4-1c-0.1,0.2-0.2,0.4-0.3,0.6l-2-1.2l1.8,1.5c-5.7,10.7-6.1,28.8-5.2,45.8
			c-6.8-3-13.8-6.1-20.8-9.3c6.4-6,13.1-12.2,20.2-18.5c-4-0.2-22.5,10.4-44,25.5c-10.2-10-21.2-21.1-32.4-33
			c7.3,13.4,15.6,26.3,24.7,38.5c-8.7,6.4-17.7,13.3-26.1,20.5c-7-2.3-14.3-4.7-22-7.1c9.8-23.4,23.6-50.8,29.9-72
			c-17.6,12.8-36.3,40.5-51.5,65.2l-5.5-1.7l5,2.5c-5.3,8.6-10.1,16.8-14.4,23.8c-6.4-1.2-12.6-2.3-18.5-3.3
			c5.8,1.7,11.6,3.4,17.4,5.2c-4.7,7.8-8.6,13.9-11.4,17.3c-5.8-14.9-14.8-63.3-20.4-121.2c-14.4,75.8-3,106.6,4.1,127.6
			c-4.4-1.1-42.8-41.3-96.7-88.4c39.8,61,70.2,88.9,78.3,96.7c-7.8,1.7-77.5-46.8-128.6-76.3c44.1,37,86.1,80.1,109.3,89.4
			c-10.1,1.1-68.8-21.8-138.6-53.6c63.2,45.9,103.9,62.7,116,71.1c-15,0.3-31-10.5-120.1-34.6c31.8,15.3,65.8,30.4,90.8,41.2
			l-33.2,1.7c-14.6-4.1-31.7-9.1-51.8-15.3c12.6,5.8,41.6,24.2,52.6,29.2l-67.1,20.5c-45.2-11-99.6,9.2-133.1,10.5l-12,28.5
			l1028.2-86.2L2285.5,475C2281.5,459.9,2278.9,529.5,2278.7,546"/>
		<g>
			<defs>
				<path id="SVGID_4_" d="M1742.7,754.4l3.8-1.9c3,1,5.3,1.8,7.1,2.4l0.6,0.3c-0.4,0.1-0.9,0.2-1.4,0.2
					C1749.4,755.4,1746,755,1742.7,754.4 M1689.5,753.3c3.1,1,6.2,1.9,9.2,2.8c-5.3,2.3-10.5,4.7-15.5,7.2
					C1683.5,761.7,1685.7,758.3,1689.5,753.3 M1881.9,741.3l0.6-0.5c0.4,0.2,0.8,0.4,1.2,0.5c-0.1,0-0.3,0-0.4,0
					C1882.9,741.4,1882.4,741.4,1881.9,741.3 M1761.1,745.6l1.3-0.6l1.7,1.2C1763.1,746.1,1762.1,745.9,1761.1,745.6 M1661,744.3
					l6.7,2.1c-2.7,3-5.3,5.9-7.5,8.8C1659.9,751.5,1660.2,747.9,1661,744.3 M2027,733.5c2.6-1.7,5.2-3.4,7.9-5
					c6.6,1.9,11.7,3.2,15.4,4.1l-6,1.8C2039.8,734.4,2033.9,734,2027,733.5 M1695.8,745.7c2.5-2.9,5.4-6.2,8.6-9.7
					c8.3,3.5,15.7,6.5,22,9c-3.9,1.4-7.7,2.9-11.6,4.4C1708.8,748.3,1702.4,747,1695.8,745.7 M1900.9,728l1.1-0.7l1,1
					c-0.1,0-0.2,0-0.3,0C1902,728.3,1901.5,728.2,1900.9,728 M1853.4,733.1c1.8-2.6,3.7-5.1,5.6-7.5c2.7,2.1,5.3,4.1,7.8,5.8
					c-2.1,1.4-4.2,2.7-6.3,4.1C1858.3,734.8,1855.9,734,1853.4,733.1 M1800.6,728.3l3.4-1.6l1,0.6c-0.4,1.9-0.7,3.7-0.8,5.6
					C1802.8,731.5,1801.6,730,1800.6,728.3 M2187.9,711.9l2.4,2.1c-0.9,0.6-1.9,1.3-2.8,1.9l-1.2,0.1
					C2186.8,714.6,2187.3,713.2,2187.9,711.9 M2002.4,718.4l5,1.7c-2.7,1.3-5.4,2.5-8,3.8C1999.6,722.8,2000.6,721,2002.4,718.4
					 M2053.7,717.7c1.3-0.7,2.6-1.4,3.9-2l5.4,3.7h-0.2C2061.7,719.4,2058.5,718.8,2053.7,717.7 M1797.7,722.9l0.6,0.4l-0.4,0.1
					C1797.8,723.2,1797.7,723.1,1797.7,722.9 M1917.2,716.9c0.8-0.6,1.7-1.2,2.5-1.8c0.6,1.7,1.1,3.3,1.6,4.8
					C1920.7,719.7,1919.3,718.7,1917.2,716.9 M1976.5,709.1l4.1,1.5c-1.5,1.7-2.9,3.5-4.3,5.1
					C1976.1,713.6,1976.2,711.3,1976.5,709.1 M1662.2,739c1.9-6.5,4.1-12.9,6.7-19.1c6.2,3,12,5.7,17.6,8.2
					c-4.9,4.3-9.5,8.6-13.8,13L1662.2,739 M1710.9,729c4.8-5.1,10.1-10.6,16-16.4c7.4,8.7,15.7,16.8,24.6,24c-3,1-6.1,2-9.2,3
					C1733.8,736.7,1723.2,733.1,1710.9,729 M1871.5,712.2c2.8-2.7,5.5-5.3,8.3-7.7c4.7,5.2,8.8,9.6,12.3,13.1c-2.2,1-4.3,2-6.3,3.1
					C1881.5,718.2,1876.7,715.4,1871.5,712.2 M2106,693.7l0.6-0.3l0.1,0.9C2106.4,694.1,2106.2,693.9,2106,693.7 M1826.1,722.7
					c1.1-7.1,2.5-14.2,4.4-21.2c5.7,5,11.2,9.8,16.4,14.3c-4.3,3.3-8.5,6.8-12.5,10.2C1831.7,724.9,1828.9,723.8,1826.1,722.7
					 M2163,689l1.3,0.3l4.3,4.3c-3.5,3.8-7,7.7-10.7,11.6C2159.3,699.7,2161,694.3,2163,689 M2011.3,707.1
					c3.9-4.6,8.8-10.1,14.5-16.2c6.2,5.7,12,10.5,17.4,14.5c-5.1,1.9-10.3,3.8-15.4,5.8L2011.3,707.1 M1931.7,691.3
					c5.6,2.4,11,4.6,16.3,6.8c-3.1,5.4-6.6,10.5-10.3,15.5c-1.3-3.5-2.4-7.1-3.3-10.7l0.4-0.4l-0.5,0.1
					C1933.5,699.3,1932.6,695.5,1931.7,691.3 M1762.2,730.1c-7.4-6.3-16.9-14.9-27.6-25.3c4.6-4.5,9.6-9.3,14.8-14.1
					c7.7,5.5,15,10.6,22,15.3c0.6,9.1,1.5,17.5,1.8,23.8c-1.9,0.5-3.9,1.1-5.8,1.7L1762.2,730.1 M2167.5,678.1
					c3.3-7.2,7-14.2,11.1-20.9c3.7,5.5,7.2,10.5,10.5,15.1c-4.4,4.1-8.4,8.2-12.4,12.4L2167.5,678.1 M2130.1,655.2
					c5.5,5.4,10.9,10.8,16.2,16.1c-5,6.6-9.7,13.5-14,20.6c-0.9-1.4-1.6-4.7-2-9.8c1.1-0.6,2.2-1.3,3.2-1.9
					c-1.1,0.1-2.2,0.2-3.4,0.4C2129.7,672.1,2129.7,663.7,2130.1,655.2 M1978.6,698.9c3.3-11.8,9.6-26.3,16.3-41.2
					c6.7,8.2,13,15.3,19,21.5c-8.6,7-16.9,14.4-24.8,22.3L1978.6,698.9 M2036.3,679.9c7.4-7.6,15.9-16,25.3-24.9
					c3.1,15.8,6.7,30.7,8.8,41.2c-3.2,1-6.5,2.1-9.9,3.2C2053.9,694.4,2045.7,687.8,2036.3,679.9 M1834.1,688.6
					c2.6-8.8,5.9-18.6,9.9-29c11,15.3,21,27.8,29.6,37.7c-4.1,2.6-8.3,5.3-12.6,8.3C1852.6,700.3,1843.5,694.5,1834.1,688.6
					 M1792.5,708.7c-5.1-17-8.8-38.2-15-54.1c14.4,12.2,28.4,24.9,41.7,36.7c-4.3,7.7-7.9,15.7-10.9,24
					C1803.2,713.2,1797.9,710.9,1792.5,708.7 M2198.9,626.8c5.3,2.8,10.3,5.5,15.1,8c-6.8,0.9-14.3,1.8-22.6,2.7
					C2194,633.8,2196.5,630.2,2198.9,626.8 M2213.3,603.7c5.9,0.7,11.1,1.2,15.7,1.6c-0.2,2.1-0.4,4.2-0.5,6.2
					c-5.4,0.4-12,0.9-20.3,1.6C2210.1,610.1,2211.8,606.9,2213.3,603.7 M2130.2,651.9c0.8-16.5,2.7-37.3,6.1-60.9
					c25.1,5.5,50.5,9.7,76.1,12.5c-4.4,3.1-8.7,6.6-12.7,10.2c-6,0.6-12.8,1.2-20.4,2.1l-0.4-0.1l0.2,0.1
					c-9.5,1.1-20.3,2.4-32.7,4.1c14.4,0.8,29.1,1.4,43.1,1.8l0.9,0.5c-5.3,5-11.1,10.8-17.1,17.1l-0.8,0.1
					c-4.7-4.8-9.7-9.6-14.7-14.6c3.2,5.3,6.3,10.4,9.3,15.2l-1.1,0.1h1.2c0.7,1.2,1.4,2.3,2.2,3.4c-1.9,2.1-3.9,4.2-5.8,6.4
					c-2.9-0.4-5.8-0.8-8.6-1.1c2.5,0.7,5.1,1.5,7.6,2.2c-4.2,4.8-8.4,9.8-12.4,14.8C2143.6,661.1,2136.8,656.3,2130.2,651.9
					 M2278.7,546c-12.5-10-24.7-3.9-7.8,10.5c-3.7,0.6-18.4,9.2-8.3,12.8c-1.6,1.5-27.8,20.2-31.6,20.3c-0.1-0.5-55.9,1.1-94.5,0
					c0.4-2.7,0.8-5.5,1.3-8.3c-1.4,0.6-3.5,3.5-6,8.1l-3-0.1l2.8,0.6c-9.4,17.9-23.7,59.9-25,92.8c-3.4-1.7-6.8-3.5-10.3-5.3
					c3.5,2.9,6.9,5.6,10.2,8.2v0.2c-1.8,0.5-3.7,1-5.6,1.5c-8-11.5-14.8-29.5-21.7-48.5c2.4-2.2,4.9-4.5,7.4-6.7
					c-1.4-0.1-4.4,1.1-8.7,3.3c-6.3-17.5-12.8-35.5-20.1-49.5c-4.5,14.4-2,37.5,2.1,60c-10.4,6.6-22.6,15.1-34.8,24.5
					c-8-6.9-16.6-14.5-25.7-22.7c6.8-15.2,13.4-30.4,17.3-43.3c-9.8,7.1-19.9,18.8-29.6,32c-7.4-6.9-15.1-14-22.9-21.5
					c6.5,10.1,12.8,19.1,18.8,27.2c-11.9,17-22.9,35.8-31.6,50.1c-6.6-1.6-13.5-3.2-20.5-4.8c-4.8-23-8.2-39.5-11.8-77.7
					c-11.9,62.4-8.1,76.7-1.7,97.7c-2.6,0.9-5.1,1.7-7.6,2.6c-4.7-4.4-10.6-10-17.7-16.8c5.9-5.2,10.9-9.8,14.1-14
					c-2.4,0.7-9.5,4.2-18.8,9.5c-16.4-15.6-37.9-35.8-62.7-57.4c6.3,9.7,12.4,18.6,18.2,26.7c-4.1,3.1-11.4,12.4-18.6,24.3
					c-15.9-10-32.3-20.2-47.2-28.9l-0.4-1c-0.1,0.2-0.2,0.4-0.3,0.6l-2-1.2l1.8,1.5c-5.7,10.7-6.1,28.8-5.2,45.8
					c-6.8-3-13.8-6.1-20.8-9.3c6.4-6,13.1-12.2,20.2-18.5c-4-0.2-22.5,10.4-44,25.5c-10.2-10-21.2-21.1-32.4-33
					c7.3,13.4,15.6,26.3,24.7,38.5c-8.7,6.4-17.7,13.3-26.1,20.5c-7-2.3-14.3-4.7-22-7.1c9.8-23.4,23.6-50.8,29.9-72
					c-17.6,12.8-36.3,40.5-51.5,65.2l-5.5-1.7l5,2.5c-5.3,8.6-10.1,16.8-14.4,23.8c-6.4-1.2-12.6-2.3-18.5-3.3
					c5.8,1.7,11.6,3.4,17.4,5.2c-4.7,7.8-8.6,13.9-11.4,17.3c-5.8-14.9-14.8-63.3-20.4-121.2c-14.4,75.8-3,106.6,4.1,127.6
					c-4.4-1.1-42.8-41.3-96.7-88.4c39.8,61,70.2,88.9,78.3,96.7c-7.8,1.7-77.5-46.8-128.6-76.3c44.1,37,86.1,80.1,109.3,89.4
					c-10.1,1.1-68.8-21.8-138.6-53.6c63.2,45.9,103.9,62.7,116,71.1c-15,0.3-31-10.5-120.1-34.6c31.8,15.3,65.8,30.4,90.8,41.2
					l-33.2,1.7c-14.6-4.1-31.7-9.1-51.8-15.3c12.6,5.8,41.6,24.2,52.6,29.2l-67.1,20.5c-45.2-11-99.6,9.2-133.1,10.5l-12,28.5
					l1028.2-86.2L2285.5,475C2281.5,459.9,2278.9,529.5,2278.7,546"/>
			</defs>
			<clipPath id="SVGID_5_">
				<use xlink:href="#SVGID_4_"  style="overflow:visible;"/>
			</clipPath>
			<g class="st6">
				
					<linearGradient id="SVGID_6_" gradientUnits="userSpaceOnUse" x1="-3554.3401" y1="-1543.3187" x2="-3552.71" y2="-1543.3187" gradientTransform="matrix(-0.85 266.68 -200.98 -7.1 -311420.8438 937545.5)">
					<stop  offset="0" style="stop-color:#113145"/>
					<stop  offset="0.2" style="stop-color:#234939"/>
					<stop  offset="0.46" style="stop-color:#36622C"/>
					<stop  offset="0.7" style="stop-color:#417125"/>
					<stop  offset="0.89" style="stop-color:#457622"/>
				</linearGradient>
				<polygon class="st7" points="2298.6,432.7 2299.3,872.1 1254.5,829.6 1253.8,390.2 				"/>
			</g>
		</g>
		
			<linearGradient id="SVGID_7_" gradientUnits="userSpaceOnUse" x1="2957.9099" y1="582.1765" x2="3962.46" y2="582.1765" gradientTransform="matrix(0.62 2.000000e-02 1.000000e-02 -0.83 -1079.89 1210.13)">
			<stop  offset="0" style="stop-color:#113145"/>
			<stop  offset="0.2" style="stop-color:#234939"/>
			<stop  offset="0.46" style="stop-color:#36622C"/>
			<stop  offset="0.7" style="stop-color:#417125"/>
			<stop  offset="0.89" style="stop-color:#457622"/>
		</linearGradient>
		<path class="st8" d="M1044.9,802.8l2.4-1.3c1.8,0.8,3.3,1.4,4.3,1.8c0.1,0.1,0.3,0.2,0.4,0.2c-0.3,0.1-0.6,0.1-0.8,0.1
			C1049.1,803.6,1047,803.3,1044.9,802.8 M1012.2,801.3c1.9,0.7,3.8,1.4,5.6,2.1c-3.3,1.6-6.5,3.2-9.6,4.9
			C1008.4,807.2,1009.8,804.8,1012.2,801.3 M1130.8,795.3l0.4-0.3c0.3,0.1,0.5,0.3,0.8,0.4h-0.3
			C1131.4,795.4,1131.1,795.3,1130.8,795.3 M1056.4,796.7c0.3-0.1,0.6-0.3,0.8-0.4l1,0.9C1057.5,797.1,1056.9,797,1056.4,796.7
			 M994.7,794.5l4.1,1.6c-1.7,2.1-3.3,4.2-4.7,6.2C994,799.6,994.2,797,994.7,794.5 M1220.1,791.7c1.6-1.2,3.3-2.4,4.9-3.5
			c4,1.4,7.2,2.4,9.4,3.2l-3.7,1.2C1228,792.4,1224.4,792.1,1220.1,791.7 M1016.2,795.9c1.6-2.1,3.4-4.3,5.4-6.8
			c5.1,2.7,9.6,4.9,13.5,6.7c-2.4,1-4.8,2-7.2,3C1024.2,798,1020.2,797,1016.2,795.9 M1142.6,786.1l0.7-0.5l0.6,0.7
			c-0.1,0-0.1,0-0.2,0C1143.3,786.2,1143,786.2,1142.6,786.1 M1113.3,789c1.1-1.8,2.3-3.6,3.5-5.3c1.6,1.5,3.2,3,4.7,4.3
			c-1.3,0.9-2.6,1.9-3.9,2.9C1116.3,790.3,1114.9,789.7,1113.3,789 M1080.8,784.9c0.7-0.4,1.4-0.7,2.1-1.1l0.6,0.5
			c-0.3,1.4-0.4,2.7-0.6,4C1082.2,787.2,1081.5,786.1,1080.8,784.9 M1319.5,778.3c0.5,0.5,1,1,1.5,1.5c-0.6,0.5-1.2,0.9-1.8,1.3
			l-0.7,0.1C1318.8,780.3,1319.1,779.3,1319.5,778.3 M1205.2,780.5l3.1,1.3c-1.7,0.9-3.3,1.7-5,2.6
			C1203.7,783,1204.4,781.7,1205.2,780.5 M1236.8,780.7c0.8-0.5,1.6-0.9,2.4-1.4l3.3,2.7h-0.2
			C1240.5,781.7,1238.6,781.3,1236.8,780.7 M1079.1,781l0.4,0.3l-0.2,0.1C1079.2,781.2,1079.1,781.1,1079.1,781 M1152.8,778.3
			c0.5-0.4,1-0.8,1.6-1.3c0.3,1.2,0.7,2.4,1,3.5C1154.4,779.9,1153.5,779.1,1152.8,778.3 M1189.4,773.5l2.5,1.1
			c-0.9,1.2-1.8,2.4-2.7,3.6C1189.1,776.7,1189.1,775.1,1189.4,773.5 M995.5,790.8c1.2-4.6,2.6-9.1,4.3-13.6
			c3.8,2.2,7.4,4.2,10.8,6.1c-3,3-5.9,6-8.6,9.1L995.5,790.8 M1025.6,784.2c3-3.5,6.3-7.4,10-11.5c4.4,6.3,9.4,12.1,14.9,17.4
			c-1.9,0.7-3.8,1.3-5.7,2C1039.6,790,1033.1,787.3,1025.6,784.2 M1124.6,774.3c1.7-1.9,3.5-3.7,5.2-5.4c2.8,3.8,5.3,7,7.4,9.5
			c-1.4,0.7-2.7,1.4-3.9,2.1C1130.7,778.8,1127.8,776.7,1124.6,774.3 M1269.1,764.3l0.4-0.2c0,0.2,0,0.5,0,0.7L1269.1,764.3
			 M1096.5,781.3c0.5-3.9,1.5-9,2.9-15.1c3.4,3.7,6.8,7.2,10,10.4c-2.7,2.3-5.3,4.7-7.8,7.1C1100,783,1098.3,782.1,1096.5,781.3
			 M1304.3,761.8l0.8,0.2l2.6,3.1c-2.2,2.7-4.4,5.4-6.7,8.1C1301.9,769.2,1303,765.4,1304.3,761.8 M1210.7,772.6
			c2.5-3.3,5.5-7.1,9.1-11.4c3.8,4.2,7.3,7.6,10.6,10.6c-3.2,1.3-6.4,2.6-9.5,4L1210.7,772.6 M1161.9,760.3c3.4,1.8,6.7,3.4,9.9,5
			c-2,3.8-4.1,7.4-6.5,10.9c-0.6-1.9-1.2-4.5-1.9-7.7c0.1-0.1,0.2-0.2,0.3-0.3l-0.3,0.1C1162.9,766,1162.4,763.3,1161.9,760.3
			 M1057.2,785.7c-4.5-4.6-10.2-10.9-16.8-18.4c2.9-3.2,6-6.5,9.2-9.9c4.7,4,9.1,7.8,13.4,11.2c0.3,6.5,0.7,12.5,0.9,17.1
			c-1.2,0.4-2.4,0.7-3.6,1.1L1057.2,785.7 M1190.8,766.3c2.2-8.4,6.2-18.6,10.4-29.2c4,6,7.8,11.1,11.5,15.6
			c-5.4,4.9-10.6,10.1-15.5,15.6L1190.8,766.3 M1226.5,753.6c4.7-5.3,10-11.2,15.8-17.4c1.8,11.3,3.8,22,5,29.5
			c-2,0.7-4,1.4-6.1,2.2C1237.2,764.1,1232.2,759.3,1226.5,753.6 M1101.8,757c1.7-6.3,3.8-13.2,6.3-20.6
			c6.7,11.1,12.7,20.1,17.8,27.3c-2.5,1.8-5.2,3.7-7.8,5.8C1113.1,765.7,1107.6,761.4,1101.8,757 M1076,770.8
			c-3-12.2-5-27.4-8.7-38.8c8.7,8.9,17.3,18.1,25.3,26.8c-2.7,5.5-5,11.2-6.9,17C1082.6,774.2,1079.3,772.5,1076,770.8
			 M1266.1,759.7c-4.8-8.3-8.8-21.3-12.9-35c1.5-1.5,3.1-3.1,4.6-4.7c-0.8-0.1-2.7,0.8-5.4,2.3c-3.7-12.6-7.5-25.5-11.9-35.6
			c-2.9,10.2-1.6,26.8,0.7,42.9c-6.4,4.6-14.1,10.5-21.7,17c-4.9-5-10.1-10.6-15.6-16.5c4.3-10.8,8.6-21.5,11-30.7
			c-6.1,4.9-12.4,13.2-18.5,22.5c-4.5-5-9.2-10.2-13.9-15.6c3.9,7.3,7.7,13.8,11.3,19.7c-7.5,12-14.5,25.2-20,35.4
			c-4.1-1.2-8.3-2.4-12.6-3.7c-3.2-18.4-5.3-36.9-6.3-55.5c-7.9,44.4-5.7,54.7-2,69.8c-1.6,0.6-3.2,1.2-4.7,1.8
			c-2.8-3.2-6.4-7.3-10.7-12.2c3.2-3,6.2-6.3,8.8-9.8c-1.5,0.4-5.9,2.8-11.7,6.5c-10-11.4-23-26-38-41.8c3.8,7,7.5,13.4,11,19.3
			c-2.5,2.1-7.1,8.7-11.7,17.1c-9.7-7.4-19.7-14.9-28.8-21.3c-0.1-0.2-0.2-0.5-0.2-0.7l-0.2,0.4c-0.4-0.3-0.8-0.6-1.2-0.8l1.1,1.1
			c-3.6,7.6-4,20.5-3.7,32.7c-4.2-2.2-8.4-4.5-12.7-6.9c4-4.2,8.2-8.5,12.6-13c-2.5-0.2-14,7.1-27.3,17.6
			c-6.2-7.3-12.8-15.4-19.6-24c4.3,9.6,9.3,18.9,14.9,27.8c-5.4,4.4-11,9.3-16.3,14.3c-4.3-1.7-8.8-3.5-13.5-5.4
			c6.2-16.6,15-35.9,19.1-51c-11,8.9-22.8,28.5-32.4,45.9l-3.4-1.3l3.1,1.9c-3.3,6.1-6.4,11.8-9.1,16.8c-3.9-0.9-7.7-1.8-11.4-2.6
			c3.5,1.3,7.1,2.6,10.6,4c-2.2,4.2-4.6,8.3-7.2,12.2c-3.4-10.7-8.5-45.4-11.4-86.8c-9.6,54-2.9,76.1,1.3,91.2
			c-2.7-0.8-26-30.1-58.7-64.4c23.9,44.1,42.4,64.4,47.3,70.1c-5,1-47.4-34.5-78.6-56.2c26.8,27,52.2,58.4,66.5,65.3
			c-6.2,0.7-42.1-16.5-84.8-40.1c38.5,33.6,63.3,46.2,70.7,52.3c-9.2,0-19-7.9-73.6-26.3c19.4,11.3,40.2,22.6,55.5,30.6l-20.5,0.8
			c-9-3.1-19.5-6.9-31.7-11.6c7.7,4.3,67.2,39.5,73.9,43.2l-91.1-1.8c-27.7-8.4-51.7,17.2-72.4,17.7l3.4,17.2l620.8-62.9"/>
		<g>
			<defs>
				<path id="SVGID_8_" d="M1044.9,802.8l2.4-1.3c1.8,0.8,3.3,1.4,4.3,1.8c0.1,0.1,0.3,0.2,0.4,0.2c-0.3,0.1-0.6,0.1-0.8,0.1
					C1049.1,803.6,1047,803.3,1044.9,802.8 M1012.2,801.3c1.9,0.7,3.8,1.4,5.6,2.1c-3.3,1.6-6.5,3.2-9.6,4.9
					C1008.4,807.2,1009.8,804.8,1012.2,801.3 M1130.8,795.3l0.4-0.3c0.3,0.1,0.5,0.3,0.8,0.4h-0.3
					C1131.4,795.4,1131.1,795.3,1130.8,795.3 M1056.4,796.7c0.3-0.1,0.6-0.3,0.8-0.4l1,0.9C1057.5,797.1,1056.9,797,1056.4,796.7
					 M994.7,794.5l4.1,1.6c-1.7,2.1-3.3,4.2-4.7,6.2C994,799.6,994.2,797,994.7,794.5 M1220.1,791.7c1.6-1.2,3.3-2.4,4.9-3.5
					c4,1.4,7.2,2.4,9.4,3.2l-3.7,1.2C1228,792.4,1224.4,792.1,1220.1,791.7 M1016.2,795.9c1.6-2.1,3.4-4.3,5.4-6.8
					c5.1,2.7,9.6,4.9,13.5,6.7c-2.4,1-4.8,2-7.2,3C1024.2,798,1020.2,797,1016.2,795.9 M1142.6,786.1l0.7-0.5l0.6,0.7
					c-0.1,0-0.1,0-0.2,0C1143.3,786.2,1143,786.2,1142.6,786.1 M1113.3,789c1.1-1.8,2.3-3.6,3.5-5.3c1.6,1.5,3.2,3,4.7,4.3
					c-1.3,0.9-2.6,1.9-3.9,2.9C1116.3,790.3,1114.9,789.7,1113.3,789 M1080.8,784.9c0.7-0.4,1.4-0.7,2.1-1.1l0.6,0.5
					c-0.3,1.4-0.4,2.7-0.6,4C1082.2,787.2,1081.5,786.1,1080.8,784.9 M1319.5,778.3c0.5,0.5,1,1,1.5,1.5c-0.6,0.5-1.2,0.9-1.8,1.3
					l-0.7,0.1C1318.8,780.3,1319.1,779.3,1319.5,778.3 M1205.2,780.5l3.1,1.3c-1.7,0.9-3.3,1.7-5,2.6
					C1203.7,783,1204.4,781.7,1205.2,780.5 M1236.8,780.7c0.8-0.5,1.6-0.9,2.4-1.4l3.3,2.7h-0.2
					C1240.5,781.7,1238.6,781.3,1236.8,780.7 M1079.1,781l0.4,0.3l-0.2,0.1C1079.2,781.2,1079.1,781.1,1079.1,781 M1152.8,778.3
					c0.5-0.4,1-0.8,1.6-1.3c0.3,1.2,0.7,2.4,1,3.5C1154.4,779.9,1153.5,779.1,1152.8,778.3 M1189.4,773.5l2.5,1.1
					c-0.9,1.2-1.8,2.4-2.7,3.6C1189.1,776.7,1189.1,775.1,1189.4,773.5 M995.5,790.8c1.2-4.6,2.6-9.1,4.3-13.6
					c3.8,2.2,7.4,4.2,10.8,6.1c-3,3-5.9,6-8.6,9.1L995.5,790.8 M1025.6,784.2c3-3.5,6.3-7.4,10-11.5c4.4,6.3,9.4,12.1,14.9,17.4
					c-1.9,0.7-3.8,1.3-5.7,2C1039.6,790,1033.1,787.3,1025.6,784.2 M1124.6,774.3c1.7-1.9,3.5-3.7,5.2-5.4c2.8,3.8,5.3,7,7.4,9.5
					c-1.4,0.7-2.7,1.4-3.9,2.1C1130.7,778.8,1127.8,776.7,1124.6,774.3 M1269.1,764.3l0.4-0.2c0,0.2,0,0.5,0,0.7L1269.1,764.3
					 M1096.5,781.3c0.5-3.9,1.5-9,2.9-15.1c3.4,3.7,6.8,7.2,10,10.4c-2.7,2.3-5.3,4.7-7.8,7.1C1100,783,1098.3,782.1,1096.5,781.3
					 M1304.3,761.8l0.8,0.2l2.6,3.1c-2.2,2.7-4.4,5.4-6.7,8.1C1301.9,769.2,1303,765.4,1304.3,761.8 M1210.7,772.6
					c2.5-3.3,5.5-7.1,9.1-11.4c3.8,4.2,7.3,7.6,10.6,10.6c-3.2,1.3-6.4,2.6-9.5,4L1210.7,772.6 M1161.9,760.3c3.4,1.8,6.7,3.4,9.9,5
					c-2,3.8-4.1,7.4-6.5,10.9c-0.6-1.9-1.2-4.5-1.9-7.7c0.1-0.1,0.2-0.2,0.3-0.3l-0.3,0.1C1162.9,766,1162.4,763.3,1161.9,760.3
					 M1057.2,785.7c-4.5-4.6-10.2-10.9-16.8-18.4c2.9-3.2,6-6.5,9.2-9.9c4.7,4,9.1,7.8,13.4,11.2c0.3,6.5,0.7,12.5,0.9,17.1
					c-1.2,0.4-2.4,0.7-3.6,1.1L1057.2,785.7 M1190.8,766.3c2.2-8.4,6.2-18.6,10.4-29.2c4,6,7.8,11.1,11.5,15.6
					c-5.4,4.9-10.6,10.1-15.5,15.6L1190.8,766.3 M1226.5,753.6c4.7-5.3,10-11.2,15.8-17.4c1.8,11.3,3.8,22,5,29.5
					c-2,0.7-4,1.4-6.1,2.2C1237.2,764.1,1232.2,759.3,1226.5,753.6 M1101.8,757c1.7-6.3,3.8-13.2,6.3-20.6
					c6.7,11.1,12.7,20.1,17.8,27.3c-2.5,1.8-5.2,3.7-7.8,5.8C1113.1,765.7,1107.6,761.4,1101.8,757 M1076,770.8
					c-3-12.2-5-27.4-8.7-38.8c8.7,8.9,17.3,18.1,25.3,26.8c-2.7,5.5-5,11.2-6.9,17C1082.6,774.2,1079.3,772.5,1076,770.8
					 M1266.1,759.7c-4.8-8.3-8.8-21.3-12.9-35c1.5-1.5,3.1-3.1,4.6-4.7c-0.8-0.1-2.7,0.8-5.4,2.3c-3.7-12.6-7.5-25.5-11.9-35.6
					c-2.9,10.2-1.6,26.8,0.7,42.9c-6.4,4.6-14.1,10.5-21.7,17c-4.9-5-10.1-10.6-15.6-16.5c4.3-10.8,8.6-21.5,11-30.7
					c-6.1,4.9-12.4,13.2-18.5,22.5c-4.5-5-9.2-10.2-13.9-15.6c3.9,7.3,7.7,13.8,11.3,19.7c-7.5,12-14.5,25.2-20,35.4
					c-4.1-1.2-8.3-2.4-12.6-3.7c-3.2-18.4-5.3-36.9-6.3-55.5c-7.9,44.4-5.7,54.7-2,69.8c-1.6,0.6-3.2,1.2-4.7,1.8
					c-2.8-3.2-6.4-7.3-10.7-12.2c3.2-3,6.2-6.3,8.8-9.8c-1.5,0.4-5.9,2.8-11.7,6.5c-10-11.4-23-26-38-41.8c3.8,7,7.5,13.4,11,19.3
					c-2.5,2.1-7.1,8.7-11.7,17.1c-9.7-7.4-19.7-14.9-28.8-21.3c-0.1-0.2-0.2-0.5-0.2-0.7l-0.2,0.4c-0.4-0.3-0.8-0.6-1.2-0.8l1.1,1.1
					c-3.6,7.6-4,20.5-3.7,32.7c-4.2-2.2-8.4-4.5-12.7-6.9c4-4.2,8.2-8.5,12.6-13c-2.5-0.2-14,7.1-27.3,17.6
					c-6.2-7.3-12.8-15.4-19.6-24c4.3,9.6,9.3,18.9,14.9,27.8c-5.4,4.4-11,9.3-16.3,14.3c-4.3-1.7-8.8-3.5-13.5-5.4
					c6.2-16.6,15-35.9,19.1-51c-11,8.9-22.8,28.5-32.4,45.9l-3.4-1.3l3.1,1.9c-3.3,6.1-6.4,11.8-9.1,16.8c-3.9-0.9-7.7-1.8-11.4-2.6
					c3.5,1.3,7.1,2.6,10.6,4c-2.2,4.2-4.6,8.3-7.2,12.2c-3.4-10.7-8.5-45.4-11.4-86.8c-9.6,54-2.9,76.1,1.3,91.2
					c-2.7-0.8-26-30.1-58.7-64.4c23.9,44.1,42.4,64.4,47.3,70.1c-5,1-47.4-34.5-78.6-56.2c26.8,27,52.2,58.4,66.5,65.3
					c-6.2,0.7-42.1-16.5-84.8-40.1c38.5,33.6,63.3,46.2,70.7,52.3c-9.2,0-19-7.9-73.6-26.3c19.4,11.3,40.2,22.6,55.5,30.6l-20.5,0.8
					c-9-3.1-19.5-6.9-31.7-11.6c7.7,4.3,67.2,39.5,73.9,43.2l-91.1-1.8c-27.7-8.4-51.7,17.2-72.4,17.7l3.4,17.2l620.8-62.9"/>
			</defs>
			<clipPath id="SVGID_9_">
				<use xlink:href="#SVGID_8_"  style="overflow:visible;"/>
			</clipPath>
			<g class="st9">
				
					<linearGradient id="SVGID_10_" gradientUnits="userSpaceOnUse" x1="-3557.0901" y1="-1551.8419" x2="-3555.46" y2="-1551.8419" gradientTransform="matrix(-2.87 190.42 -123.68 -8.03 -201073.5 665583.6875)">
					<stop  offset="0" style="stop-color:#113145"/>
					<stop  offset="0.2" style="stop-color:#234939"/>
					<stop  offset="0.46" style="stop-color:#36622C"/>
					<stop  offset="0.7" style="stop-color:#417125"/>
					<stop  offset="0.89" style="stop-color:#457622"/>
				</linearGradient>
				<polygon class="st10" points="1390.3,580.5 1386.5,894.3 743.7,850 747.4,536.2 				"/>
			</g>
		</g>
		
			<linearGradient id="SVGID_11_" gradientUnits="userSpaceOnUse" x1="1384.79" y1="226.1101" x2="1384.79" y2="-50.3798" gradientTransform="matrix(1 0 0 -1 0 900)">
			<stop  offset="0" style="stop-color:#113145"/>
			<stop  offset="0.19" style="stop-color:#163742"/>
			<stop  offset="0.45" style="stop-color:#234939"/>
			<stop  offset="0.75" style="stop-color:#39662A"/>
			<stop  offset="0.89" style="stop-color:#457622"/>
		</linearGradient>
		<path class="st11" d="M1496.3,833.6c30.8-9.3,64.5-22.5,73.2-28.5c-19.1,1.1-53.8,9.9-82.4,18.6l6.4-2.9
			c16.2-6.2,29.2-11.8,30.4-13.8c19.3-8.7,35.2-15.7,37.7-16.3c-10.9,1.5-38.4,10-64,20.3c-2.7,0.6-5.5,1.3-8.2,2
			c34.3-18.9,72.3-40.5,75.5-45c-7.6,0.8-36.2,13.8-65.6,28.7c15.2-10.9,29.2-21.8,36.1-28c-7.3,2.8-15.9,6.4-24.9,10.7
			c7.4-6.9,14.8-13.8,21.8-20.3c-2.3-1.3-9.8,2.2-19.6,8.3c12.6-13.6,21.3-24.7,20.2-28c-13.1,10.7-27.3,22-40.8,33
			c8.8-9.2,17-18.5,23.5-26c-5.8,3.2-14.6,9-24.3,15.9c15.2-21.6,27.4-40.8,29.1-46.9c-3.8,1.9-20.8,22.5-39.3,45.9
			c2.7-4.8,5.2-9.5,7.6-14c7.1-8.4,13-15.4,17-20c-3.7,2.5-7.4,5.1-10.9,7.6c4.2-8.7,7.3-16,8.6-20.5c-0.8,2-7.6,12.7-16.7,26.6
			c-5.9,4.5-11.4,9-16.5,13.5c3.3-10.1,6.3-19.9,8.3-28.7c2.3-2.7,4.6-5.5,7-8.3c-2.2,1.7-4.3,3.3-6.3,5c1-4.5,1.8-9.1,2.2-13.8
			c-2.6,3.8-7,11.8-12.1,22.2c-6.5,5.7-12.5,11.5-17.9,17.3c-0.4-3-0.9-6-1.7-8.9c0,0-0.8,1.5-2.1,3.9c0.2-4.2,0.4-8.4,0.5-12.5
			c4.8-15.2,8.9-29.6,11.8-41.6c-4.1,5.3-8.1,11-12,17c-0.3-5.9-0.7-11.6-1.3-17c-2.3,9-4.8,19.5-7.1,30.9
			c-6.3,11.1-12.2,22.8-17.5,34.5c-2.3-15.6-5.5-32.2-9.5-48.7c-1-9.7-2.3-17.3-3.7-21.3c-0.3,1.1-0.7,2.3-1,3.5
			c-1.1-3.9-2.3-7.7-3.5-11.5c0.7,5.9,1.3,11.9,2,17.9c-4.3,21.3-6.3,53.7-6.8,81.6c-0.4-2.5-0.7-5.1-1.1-7.7
			c-1.3-19-3.1-34.6-5.1-36.6c-3.1-23.2-5.5-42.2-5.3-45c-2.4,11.7-2.6,43.2,0,73.4c-0.3,3-0.5,6.1-0.7,9.2
			c-9.8-42.6-21.3-90.1-25.5-95.2c-1.9,8,2.8,42.5,9.6,78.4c-7.4-19.9-15.2-38.6-20.1-48.1c0.6,8.6,1.7,18.8,3.3,29.7
			c-5.5-10.3-11-20.6-16.2-30.5c-2.3,1.7-1.3,9.7,1.8,20.9c0,0.4,0,0.8,0,1.2c-11.3-17.8-21.1-30.6-25.4-30.8
			c7.9,17.7,16.2,36.7,24.3,54.9c-7.8-12.7-15.9-24.8-22.5-34.5c1.8,7.3,3.9,14.5,6.4,21.6c0.1,2,0.2,4,0.4,6
			c-19.1-22.6-36.1-41.1-42.5-45c0.9,4.6,19.3,30.3,40.5,58.7c-19.4-19-38.8-35.7-48.2-41.8c1.6,1.3,8.3,8.5,17.5,18.6
			c3,8.9,6.5,17.7,10.6,26.2c-16-10.7-31.3-19.8-43.3-24.8c6.9,8.2,30.8,29.6,56.6,50.2l2,3.5c-4.3-1.8-8.7-3.3-13.1-4.7
			c-19.3-13.9-38.1-25.6-45.7-28.4c5.6,7.3,15.1,16.8,26.1,26.6c-11.4-4.4-23-8.5-34.4-12c-0.6-0.4-1.1-0.8-1.3-1l0.7,0.8
			c-9.7-3-19.2-5.6-28.3-7.7c16.3,9.9,37.8,21.7,60.3,33.4c6.1,4.3,12.7,8.8,19.3,13c2,1.8,4,3.6,6.1,5.4
			c-35.5-17-75.4-35.5-81.3-35.7c4.4,5.2,28.6,19.3,55.8,33.7c-2.1-0.4-4.3-0.8-6.4-1.2c-13.8-4.5-26.2-8.2-33.5-9.8
			c2.8,1.8,5.8,3.8,9.1,5.8c-20-3-40.6-5.3-60.8-6.6c15.1,3.5,30.7,7.2,46.2,10.9c2.8,2.3,8.5,5.2,16,8.3
			c-19.3-2.9-34.3-3.9-36.8-1.3c16.8,4.7,34.8,9.9,52.1,14.8c-13.2-2.1-26.2-3.7-36.7-4.9c6,2.9,16,6.8,27.5,10.8
			c-28.2-0.7-52.6-0.4-59.2,1.5c3.8,2,31.9,4.6,63.6,7c-23.9,1.5-46.3,4.3-55.8,6.7c4.3-0.7,46.9-0.8,83.5-0.7
			c-28.6,5.4-60.1,12.8-77.5,20.6c10.4,0.2,43.2-3.3,74.3-8.6c-10.7,4.4-20.8,10.2-29.2,17.6c0,0,1.8-0.1,4.8-0.4
			c-18.2,8.8-35.9,18.6-50.6,28.7c27.9-8,68.9-22.7,102.7-36c1.7-0.4,3.4-0.7,5.1-1.1c-29.6,18.4-67,46.3-98,76.6
			c59.5-40.7,131.7-87.2,145.7-96.2c0.5,0.4,1.1,0.8,1.6,1.1c0.6-1.3,2.9-5.8,3.6-7.1l0,0c0.5-1,1-2,1.3-2.6
			c-0.7-0.1-1.5-0.2-2.3-0.2l-0.6-1c10.5,2.7,18.3,4.7,22.4,5.8c0,0.8,0,1.5,0,2.2c1.7-0.5,7.9-1.9,9.6-2.3l0,0
			c1.3-0.3,2.8-0.7,3.6-0.9c-0.4-0.7-0.9-1.4-1.5-2c0.4-1.1,1-2.4,1.7-4.1c1-2,2-4.2,3.1-6.7c2.8-2.6,6.1-5.8,9.7-9.5
			c0.5,5.7,0.8,10,1.1,12.6c-0.7,0.2-1.3,0.4-1.9,0.6c0.9,1.1,4,5.3,4.9,6.4l0,0c0.7,0.9,1.4,1.9,1.8,2.4c0.5-0.5,0.9-1.1,1.3-1.7
			c1.1,0,2.4,0,4.1,0.1c2,0.2,4.3,0.3,6.7,0.5c25.9,11.4,100.6,32.9,123.1,40.3c-26-16.2-54.3-28.6-83.8-36.8
			c29.4,3.8,58.4,10.3,86.7,19.3c-17.5-9.5-36.1-17-55.3-22.5c26.2-0.7,53-2,72.6-4.1C1555.2,837.2,1524.4,834.2,1496.3,833.6z
			 M1461.3,779.4l-0.2,0.3l0.1-0.1L1461.3,779.4z M1461.8,747c-3.5,7.7-7.1,15.9-10.4,24c0.4-3.5,0.7-7,0.7-10.5
			C1455.2,756.1,1458.4,751.6,1461.8,747L1461.8,747z M1314.4,759.4c4.7,5.3,9.6,10.8,14.4,16.2c0.3,1.2,0.6,2.5,0.9,3.7l-2-1.4
			C1323.3,771.6,1318.8,765.4,1314.4,759.4L1314.4,759.4z"/>
		<path class="st3" d="M437.3,942.5c0,0,826.6-131.9,1057.1-121.3c0,0,243.9-91.1,810-83.2l-15.7,232.1H664.2L437.3,942.5z"/>
		<path class="st12" d="M570.3,889.1c14.4,30.3,28.4,60.5,37.3,92.8c39.5-23.6,24.4-116,13.8-158.1c-7-27.7-18.2-54.4-34.1-77.9
			c-7.8-11.6-16.7-22.4-26.6-32.2c-5-4.8-28.3-18.3-30.2-24c11.3,34.7,8.7,68.6,11.2,103.9C544.1,828.4,555.2,857.5,570.3,889.1"/>
		<path class="st12" d="M582.5,941.5c10.9,13.2,16.8,28.3,24.1,42c19.8-30.6-17.8-90.5-27.7-123.2c-13.8-45.6-36.2-80.8-76.6-100.8
			c-16.8-8.3-32.8-16.9-49.3-25.6c20.3,41,44.1,79.4,63.2,120.6C533.4,891.7,557.4,911.1,582.5,941.5"/>
		<path class="st12" d="M609.1,941c3,14.7,5.8,24.8,4,39.3c67.1-42.7,70.9-161.1,38.4-238.3c-7.1-16.9-15.4-33-27.4-46.6
			C597.1,762.7,593.8,865,609.1,941"/>
		<path class="st13" d="M651.6,742c-7.1-16.9-14.2-32.3-27.9-44c15,76.8-9.3,148.1-4,224.7c1.1,16.2,2.3,32.4,2.7,48.5
			C683,932.7,680.2,809.8,651.6,742"/>
		<path class="st12" d="M603.2,977.5c-1-0.8-1.9-1.8-2.6-2.9c-6-8.7,12.1-74.5,14.1-86.5c10.4-62.5,29.2-126.9,76.1-164.1
			c25.5-20.2,32.1-25.8,42.7-58c5.7,19.3,6.1,37.3,1.4,55.7c-7.9,31-25.2,58.5-33.7,89.5c-16.9,61.8-10.9,116.1-62.9,151.3
			C629.8,968.3,613.4,985.6,603.2,977.5"/>
		<path class="st13" d="M614,959.5c6.6-95.9,60.9-167.2,103.4-242.4c8.7-15.4,19.1-32.9,18-52.6c0.5,19.7,4,40-0.4,57.3
			c-7.4,29.2-23,53.9-31.8,82.4c-7.6,24.6-6.1,50.8-11.7,76.2c-7.1,32.1-27.1,40.4-50.3,57.8C632,945.1,623.6,953,614,959.5"/>
		<path class="st12" d="M633.1,970.7c-11.4,5.1-22.9,8-29.6,3.6c-18.4-11.9,17-59.8,24.5-76.2c34.9-76.4,125.4-130.8,200.6-67.7
			c-40.5,5.8-74.3,31.5-101.2,62.6c-18.9,21.9-37.8,44.1-61.9,59.3C659.3,956.3,646.2,964.9,633.1,970.7"/>
		<path class="st13" d="M597.7,974c11.3-48.6,40.6-78,74-107c32-27.8,96.9-55.3,140.5-39.1c-32.4,15.7-61.3,37.9-84.8,65.2
			c-21.8,25.2-56.8,65.5-94,78.4C621.6,975.6,609.5,976.9,597.7,974"/>
		<path class="st14" d="M595.7,968.5c0.3,0,0.7-3.2,0.3-9.1c-0.7-8.6-2.5-17.1-5.3-25.3c-3.4-10.5-8.7-22.8-15.2-36
			s-14.3-27.4-21.2-42.8c-7.1-15.3-14.3-30-22-42.7c-3.8-6.4-7.8-12.3-11.7-17.7s-7.9-10.1-11.5-14.4c-7.1-8.7-13.5-15.3-18.5-19.3
			s-8-5.5-8.1-5.3s2.6,2.3,7.1,6.5c6.2,6.2,12,12.8,17.2,19.8c3.4,4.4,7.2,9.2,10.9,14.5s7.5,11.2,11.1,17.5
			c7.4,12.6,14.3,27.1,21.4,42.4c7,15.5,14.9,29.8,21.5,42.8s12.2,25,15.8,35.2c2.9,8,5.1,16.2,6.5,24.6
			C595.2,965.2,595.3,968.5,595.7,968.5"/>
		<path class="st14" d="M604.4,937.8c0.3,0,0.5-3.2,1.3-9s2.2-14,4.3-24c1.1-5,2.3-10.5,3.5-16.5s2.2-12.4,3.6-19.1
			c2.6-13.4,5.8-28,8.7-43.5s5.3-30.5,6.5-44.4c1.2-12.4,1.4-24.9,0.6-37.4c-0.5-8.6-1.8-17.1-3.8-25.5c-1.5-6-2.7-9.2-3-9.2
			c-0.7,0.1,3,13.3,3.7,34.4c0.3,12.3-0.2,24.5-1.5,36.7c-1.4,13.7-3.8,28.5-6.8,43.9s-6,30.2-8.4,43.7c-1.2,6.7-2.2,13.3-3.2,19.2
			l-2.9,16.7c-1.5,8.1-2.5,16.4-3,24.7C603.8,934.4,604.2,937.7,604.4,937.8"/>
		<path class="st14" d="M611.2,790.7c-0.3,0,0,4.7,0.1,12.2s0,17.9-0.2,29.3s-0.3,21.8,0.1,29.4s1,12.3,1.3,12.3s0.2-4.6,0.3-12.1
			s0.3-17.8,0.5-29.3s0.1-21.9-0.5-29.5S611.5,790.7,611.2,790.7"/>
		<path class="st14" d="M619.7,912.6c0.3,0.1,1.4-3,3.7-8.4s5.8-13.2,10.4-22.7c9.3-19.1,19.3-46.8,33-75.9
			c3.4-7.3,7-14.2,10.6-20.8c0.9-1.7,1.8-3.3,2.7-5s1.8-3.2,2.7-4.7c1.8-3.1,3.7-6.1,5.5-9c7.5-11.5,14.7-21.6,20.2-30.5
			c4.5-7,8.4-14.3,11.7-22c2.3-5.5,3-8.8,2.8-9s-1.6,2.8-4.3,8c-3.9,7.2-8.1,14.2-12.8,20.9c-5.8,8.6-13.3,18.4-21,29.8
			c-1.9,2.9-3.8,5.9-5.7,9c-0.9,1.6-1.9,3.2-2.8,4.8s-1.8,3.3-2.7,4.9c-3.7,6.6-7.3,13.7-10.8,21c-13.8,29.3-23.4,57.4-31.8,76.7
			c-3.5,7.7-6.5,15.6-9.2,23.6C620,909.1,619.5,912.5,619.7,912.6"/>
		<g class="st15">
			<g>
				<defs>
					
						<rect id="SVGID_12_" x="570.9" y="864.2" transform="matrix(0.7694 -0.6388 0.6388 0.7694 -407.406 636.9934)" width="215.3" height="37.1"/>
				</defs>
				<clipPath id="SVGID_13_">
					<use xlink:href="#SVGID_12_"  style="overflow:visible;"/>
				</clipPath>
				<g class="st16">
					<path class="st14" d="M599.4,956.1c0.3,0.1,1.4-2.9,3.6-8.3c2.9-7.5,6.7-14.7,11.3-21.4c1.4-2.1,3-4.2,4.8-6.3s3.7-4.2,5.7-6.4
						c4-4.4,8.5-9,13.2-13.6c10.2-10.2,21.3-19.6,33-28.1c6.1-4.3,12.4-8.3,19-11.8c6.6-3.3,12.7-6.9,18.6-10.1
						c11.7-6.5,22.5-12.1,31.9-15.8s17.6-5.6,23.4-6s9.2,0.4,9.2,0s-3.3-1.7-9.5-1.8s-14.7,1.2-24.5,4.7s-20.9,8.7-32.8,15.1
						c-6,3.2-12.1,6.6-18.7,9.8c-6.8,3.5-13.3,7.5-19.5,12c-11.9,8.6-22.9,18.2-33.1,28.8c-4.7,4.8-9.1,9.5-13,14.1
						c-2,2.3-3.9,4.4-5.7,6.7s-3.3,4.5-4.7,6.7c-4.4,7.1-7.9,14.7-10.2,22.7C599.8,952.6,599.3,955.9,599.4,956.1"/>
				</g>
			</g>
		</g>
		<g class="st17">
			<g>
				<defs>
					
						<rect id="SVGID_14_" x="606" y="901.3" transform="matrix(0.7694 -0.6388 0.6388 0.7694 -431.5004 633.7527)" width="112" height="26.5"/>
				</defs>
				<clipPath id="SVGID_15_">
					<use xlink:href="#SVGID_14_"  style="overflow:visible;"/>
				</clipPath>
				<g class="st18">
					<path class="st19" d="M610.7,940.4c0.3,0.3,5.1-3.9,14.4-8.7c5.5-2.8,11.1-5.2,16.9-7.3c6.5-2.4,13.8-4.8,21.5-7.4
						c7.2-2.4,14.3-5.1,21.2-8.2c5.6-2.5,11-5.6,15.9-9.2c8.4-6.3,11.9-12,11.7-12.1c-0.3-0.3-4.2,5-12.7,10.8
						c-5.1,3.4-10.4,6.3-16,8.7c-6.3,2.8-13.5,5.4-21.1,8s-15,5-21.5,7.6c-5.8,2.2-11.4,4.8-16.8,7.8
						C615,935.5,610.5,940.3,610.7,940.4"/>
				</g>
			</g>
		</g>
		<path class="st13" d="M532.8,694.4c56,59.5,46.2,163.7,63.8,238.1c3.4,14.3,8.2,27.9,8.8,42.4c17.9-9.2,22.1-40.4,23.3-61.4
			c1.6-28.5-0.5-57.1-6.3-85C611.1,773.8,583.9,715.2,532.8,694.4"/>
		<path class="st20" d="M69.5,317l-31.8-7.3l2.8,18.9l-12.9-14l-19.7,7.2l5.2,17.5l-11.6-14l-29.9,10.8l17.1,32.5l-29.1-33.8
			l-11,10.2l20.1,29.9l-24.9-24.6l-35.7,29.9l16.6,41.9l-24.5-28l-19.7,25.9l17.2,30.7l-22.9-20.2c2.5,2.2-25.9,55.5-21.8,59.7
			c3.9,4.1,8.8,7.4,10.6,13.9c8.1-7.5,39.5-40.6,48.5-48.8c47.6-43.3,95.5-85.8,143.2-128.7C9.9,371.5-36,415.7-81,461.5
			c-16.9,17.2-34.9,30.9-50.3,48c6.8,6.2,9.4,11.8,14.6,23.1c-1-5.1,20.6-15.2,23.3-16.7c7.1-3.8,11.1-8.4,17-15.5l-8.8-20.5
			l13.1,16.1l25-25.5l-2.4-17.9l6.3,14.4l19.8-13.3l-5.8-23.8l12.8,17.6l44.6-40.9l-8.1-26L33.7,402l4.3-4.4l-9.6-21.3l11.8,13.5
			l7.3-9.5l-6.1-26.6l12.3,18.4l11.7-18.3l-12-13.1l15.2,0.8L69.5,317z"/>
		<path class="st21" d="M-190.4,505.1l1.3-73l18.1-2l-17-7.3l10.2-38.7l25.5,13.8l-22.9-18.4l8-8.4l33.2,11.4l-12-25.3l10.2-17.9
			l13.4,7.5l-10.3-10.6l11.8-16.6l20.3,12.4l-16.5-14.3l31.6-30l24.3,21l-14.3-27.4l20.5-13.6l25.9,11.8l-9.7-18.5l18.2-9.7
			l9.7,11.2l0.5-12.6l28.6-0.5l-8.2,21.4L3,276.4l-14.3-2.7l11,5.4L-16,289.9l6.2,2.6l-13,18.9l-15.6-1.5l12.3,7l-14,10.7l-19.1-6.2
			l24,14.3l-2.8,12.3l-9.4,5.7l-14.5-4.2l14.1,9l-0.9,10.8l-5.2,8.4l-26.3-3.4l17.5,15.9l-3.8,18.8l-34.6-5.6l27.6,12.4l-1.9,13.1
			l-30.8-3.3l28,13.1l-5.1,13.7l-32.4-4.9l28.1,16l-6.7,19.8c-7.8,7.5-15.6,14.9-23.3,22.4c-2.7,2.6-8,10.4-11.2,11.3
			c-8.2,2.4-20.7-3.6-29.1-5.1c6.9-26.8,11.3-55.8,22.2-80.6c9.7-22.1,20.2-45,32.7-64.8c17.6-28.1,42.7-59.5,67.4-77.9
			c4.6-3.4,9.3-7,13.8-10.2c-33,17.7-55.3,46.7-80,78.2C-123,383.5-140,424.5-151,459.6c-5.1,16.4-9.1,33.3-14.5,49.6
			C-167.8,509.7-190.4,506.1-190.4,505.1"/>
		<path class="st22" d="M-109.5,686.8c-29.9,8.5-59.4,17.4-87.7,31.2c-4.7-43,70.4-89.9,106.8-108.5c23.9-12.3,49.4-20.9,75.2-24.2
			c12.6-1.7,25.3-2,38-1c6.2,0.5,28.8,8.8,34,6.6c-31.4,13.6-54.4,36.6-81.3,56.8C-51.2,667.7-78.3,677.9-109.5,686.8"/>
		<path class="st23" d="M52,592.1c-74-3-143.9,69.1-207.4,102.9c-12.2,6.5-24.7,11.5-35.5,20.2c-3.2-18.6,17-41,31.6-55
			c19.6-18.8,41.4-35.1,65-48.5C-48.6,585.6,8.8,568.6,52,592.1"/>
		<path class="st22" d="M-154.1,710.7c-15.5,0.4-29.8,5.7-43.7,9c11.3-33.3,75.3-43.7,104.4-57c40.6-18.6,78.4-24.5,115.2-8.1
			c15.3,6.8,30.3,12.9,45.7,19.4c-40.8,11-81.8,17.9-122.1,30C-91.1,714.9-118.3,709.8-154.1,710.7"/>
		<path class="st23" d="M-155.9,702.7c-14.8,4.7-29.9,9.3-44.3,15.6c12.9-5.7,27.2-25.3,43.5-32.8c20.5-9.4,42.8-13.4,63.3-22.8
			c40.6-18.6,78.4-24.5,115.2-8.1c13,5.8,27,10.6,39.7,16.9C10,647.7-98.1,684.2-153.9,702.1L-155.9,702.7"/>
		<path class="st22" d="M27.3,770.6c-29.1-10.2-67.7-10.8-99.6-15c-26.9-3.5-47.6-17.2-72.9-23.3c-21.6-5.2-44.2-0.4-56-22.2
			c8.3,15.3,51.3-4.8,64.3-8.1c25.5-6.4,50.1-8.4,74.2-3c22.9,5,45.8,13.7,63.5,27.2C8.9,732.3,23.9,769.4,27.3,770.6"/>
		<path class="st23" d="M24.1,764.5c-43.2-53.2-117.4-42.1-186-44c-17.5-0.5-33.4,1-48.1-7.6c23.2,13.7,48.7-4.8,73.1-11
			c25.5-6.4,50.1-8.4,74.2-3c22.9,5,45.8,13.7,63.5,27.2C11.4,734.1,23,751,24.1,764.5"/>
		<path class="st22" d="M-168.5,691.3c-12.3,7-21.2,11.3-30.6,21.6c-6.1-74.7,77.5-151.4,151.2-176.2c16.2-5.5,32.3-9.5,48.8-9.5
			C-32.8,588.7-105,655-168.5,691.3"/>
		<path class="st19" d="M-181,718.1c-0.2-0.2,1.9-2.5,6.4-6c6.6-4.8,13.7-8.8,21.2-12c9.5-4.2,21.3-8,34.4-11.6s27.7-6.9,42.6-11.5
			c15-4.5,29.6-8.5,43-10.9c6.7-1.2,13.2-2.1,19.2-2.6s11.7-0.7,16.8-0.8c10.2-0.3,18.5,0.1,24.1,1.2s8.4,2.3,8.3,2.5
			s-3.1-0.5-8.6-1c-7.9-0.6-15.9-0.6-23.8,0.1c-5.1,0.3-10.6,0.6-16.5,1.3s-12.2,1.6-18.8,2.9c-13.2,2.6-27.5,6.7-42.5,11.1
			c-15,4.7-29.8,7.9-42.8,11.3c-11.6,2.8-23,6.4-34.2,10.6c-7.4,2.9-14.6,6.5-21.4,10.7C-178.4,716.3-180.8,718.3-181,718.1"/>
		<path class="st19" d="M6.3,677.1c0.1,0.2-4.2,1.7-11.4,2.6s-17,1.2-27.8,0.7s-20.5-1.1-27.5-1.3s-11.4,0-11.4-0.3s4.4-1,11.5-1.1
			s16.9,0.3,27.6,0.7c9.2,0.5,18.4,0.4,27.5-0.2C1.9,677.8,6.2,676.8,6.3,677.1"/>
		<path class="st19" d="M49.1,590.8c0,0.3-2.2,0.5-6,0.8s-9.4,0.7-16.1,1.7c-3.4,0.5-7,1.2-10.9,2.2c-1.9,0.5-3.9,1-5.9,1.8
			s-4.1,1.5-6.2,2.4c-9,3.8-17.9,8.1-26.4,13c-18.2,10.2-33.9,20.7-45.4,28.1s-18.7,11.9-19,11.5s6.2-5.6,17.3-13.6
			c14.4-10.6,29.5-20.3,45-29.2c8.7-4.9,17.8-9.3,27.1-12.9c2.2-0.8,4.3-1.6,6.4-2.3s4.3-1.2,6.3-1.7c3.8-0.8,7.6-1.4,11.4-1.8
			c5.5-0.6,11-0.8,16.4-0.6C47,590.2,49.1,590.5,49.1,590.8"/>
		<path class="st19" d="M8.1,614.5c0.2,0.5-12.9,6.5-30.1,11.6s-31.5,7.2-31.5,6.7s14-3.4,31-8.5S7.9,614,8.1,614.5"/>
		<path class="st4" d="M351.5,996c11.1-129.9,52.8-237.2,52.8-237.2c-51.9,20.5-108.6,86.3-155.3,231.8L351.5,996z"/>
		<path class="st4" d="M205.1,988.3c3.8-159.7,74.2-245.8,74.2-245.8c-45.3,25.1-131.2,76.7-183.6,240L205.1,988.3z"/>
		<path class="st4" d="M177.9,986.8c-81-184.2,28.8-304.1,28.8-304.1C109,745.9,82.2,878.8,83.6,981.8L177.9,986.8z"/>
		<path class="st4" d="M568,1007.5C546.9,904.7,609.9,834,609.9,834c-77.3,13.2-139,68.9-136.8,168.5L568,1007.5z"/>
		<path class="st4" d="M223.9,989.3c-33.8-116,73.9-192.5,96.9-216.9c0,0,0.8,72.9-44.1,219.7L223.9,989.3z"/>
		<path class="st4" d="M549.4,1006.5c51.4-86.4,167.2-121.1,167.2-121.1s-134.2,5.3-204.3,119.2L549.4,1006.5z"/>
		<path class="st4" d="M525.1,1005.2c59.5-166.6,154.2-161.9,154.2-161.9s-166.5-0.5-222.6,158.3L525.1,1005.2z"/>
		<path class="st4" d="M-50.5,974.8C3,733.7,95.3,695.2,95.3,695.2S-54.9,699-128.7,970.6L-50.5,974.8z"/>
		<path class="st4" d="M322.8,994.5c25.6-257.8,219.5-282.2,219.5-282.2s-171.9,57.6-129.5,287L322.8,994.5z"/>
		<path class="st4" d="M458.7,1001.7c6-170.2,146.5-209.5,146.5-209.5s-221.5,36.2-214.5,205.9L458.7,1001.7z"/>
		<path class="st4" d="M107.6,983.1c15-242,137.9-298.4,137.9-298.4S106.1,730.9,14.6,978.2L107.6,983.1z"/>
		<path class="st4" d="M183.2,987.1c55.6-68.6,122-176.8,122-176.8s-110.2,78-197,172.8L183.2,987.1z"/>
		<path class="st4" d="M-50,974.8C-82.4,721.9,35.9,641,35.9,641S-146.7,713.7-105,971.9L-50,974.8z"/>
		<path class="st4" d="M-0.6,977.4c26.7-333.1,219.5-333.3,219.5-333.3S80.3,656,74.4,981.4L-0.6,977.4z"/>
		<path class="st4" d="M-197.5,967c27.3-272.2,230.3-256.3,230.3-256.3s-153,23-163.4,259.8L-197.5,967z"/>
		<path class="st4" d="M-52.4,974.7c40.4-272,206.5-248.1,206.5-248.1S26.3,733,14.6,978.2L-52.4,974.7z"/>
		<path class="st4" d="M-294.9,961.8c204.1-317,381.5-205.7,381.5-205.7s-195.3-34.7-293.7,210.3L-294.9,961.8z"/>
	</g>
</g>
</svg>
