<?xml version="1.0" encoding="utf-8"?>
<!-- Generator: Adobe Illustrator 25.2.3, SVG Export Plug-In . SVG Version: 6.00 Build 0)  -->
<svg version="1.1" id="Layer_1" xmlns="http://www.w3.org/2000/svg" xmlns:xlink="http://www.w3.org/1999/xlink" x="0px" y="0px"
	 viewBox="0 0 1600 280" style="enable-background:new 0 0 1600 280;" xml:space="preserve">
<style type="text/css">
	.st0{fill:#032616;}
</style>
<path class="st0" d="M1600,181.4c0,0-11.6,2.9-18.3-2.6s0-42.8,0-42.8c-21.4,19-13.4,42.8-13.4,42.8h-15.2
	c-3.8-18.9,33.1-79.2,3.7-62.2s-11.2,62.2-11.2,62.2s-40.5-54.1-34.9-32.1c3.5,13.3,12,24.8,23.6,32.1h-79.3c0,0,35.3-61.8,14-62.2
	s-22.5,62.2-22.5,62.2c-7.1-103.1-48.5-98.3-6.7,0h-9.1c-23.8-126.4-55.4-111.7-6.3,0h-150.8c11.6-17.7,33.5-35.3,33.5-35.3
	c-30.6-3.6-45.6,25-49.9,35.3h-0.7c7.6-43.6-21.6-47.7-21.6-47.7c11.3,15.1,11.5,37.6,10.9,47.7h-0.9c-4.9-48.7-31.5-47.7-31.5-47.7
	c6,2.5,15.5,33.6,19.6,47.7h-2.1c-26.4-42.5-57.8-34.2-57.8-34.2c25.9,9.6,34.3,25.2,37.1,34.2h-14.5c-7.6-2-15.6-2-23.2,0h-35.4
	c0,0,30.2-58,5.4-63.3s-17.6,58.6-17.6,58.6l-19.6,2.6c-4.3-108.7-59.1-98.8-7.9-1.9h-63c27.9-90.3-25-62.6-6.8-2.1h-13.5
	c0,0-6.8-49.9-31.5-54.4c-10-1.8-8.6,7.1-3.4,18.3c-37.7-0.7-70,19.7-85.4,31.4l-8.5-0.5c11.5-52.3,100.2-123.7,100.2-123.7
	C892.5,32.9,857.3,141,857.3,141C882.2,23.5,805,12.7,805,12.7c37.2,50,26.2,132.3,26.2,132.3c-8.8-135-79.9-132.3-79.9-132.3
	c19.5,8.1,53.7,136.4,53.7,136.4C737,23.5,650.5,46.5,650.5,46.5c94.7,35.1,96.2,102.6,96.2,102.6c-63.3-38.6-113.6-15.2-137.2,1.4
	l-15-0.9c0,0-14.6-57.6-29.3-47.6s15.3,47.6,15.3,47.6h-56.8c32.5-117.2-19.9-65.1-11.3-1.8h-9.6c0,0-27.7-53.8-42.3-47.7
	s17.7,45.6,17.7,45.6c-47.8-0.2-95.5-2.9-143-8.2c13.3-9.9,31-17.2,31-17.2c-24.3-6.3-45.5,14-45.5,14c0.9-20.3,39.1-51,39.1-51
	c-35.9-4.2-49.5,37.5-49.5,37.5c9.6-45.3-20.2-49.4-20.2-49.4c14.4,19.3,10.1,51,10.1,51c-3.4-52.1-30.8-51-30.8-51
	c7.5,3.1,20.7,52.6,20.7,52.6c-26.2-48.4-59.5-39.6-59.5-39.6c36.5,13.5,37.1,39.6,37.1,39.6c-19.4-11.8-35.6-8.6-46-3.5
	c-17.3-3.3-34.6-7-51.7-11.1c4.6-9.5,14.5-51,9.7-59.8c-0.9-0.8-2.8,0.1-6.8,7.5c-7.8,8.1-16.1,36.4-14.4,54.3h-14.1
	c-8.4-82.7-54-69.6-10.3,7.1H0v149.1h1600V181.4z M941.6,170.9c14.1-8.6,28.6-16.5,43.5-23.6c8,13.8,18,27.4,18,27.4L941.6,170.9z"
	/>
</svg>
