<svg xmlns="http://www.w3.org/2000/svg" viewBox="0 0 410 240"><defs><style>.cls-1{isolation:isolate;}.cls-12,.cls-13,.cls-2,.cls-3{fill:#996425;}.cls-3,.cls-4,.cls-6{opacity:0.5;}.cls-10,.cls-11,.cls-13,.cls-16,.cls-3,.cls-4,.cls-6,.cls-7,.cls-9{mix-blend-mode:multiply;}.cls-11,.cls-5,.cls-6,.cls-7{fill:#428715;}.cls-8,.cls-9{fill:#6cbf37;}.cls-11,.cls-16{opacity:0.7;}.cls-12,.cls-17{mix-blend-mode:screen;}.cls-14{fill:#f39726;}.cls-15{fill:#c66e0e;}.cls-16{fill:#7f5e37;}.cls-17{opacity:0.6;}.cls-18{fill:#f8c17d;}.cls-19{fill:#a35608;}</style></defs><g class="cls-1"><g id="Layer_1" data-name="Layer 1"><path class="cls-2" d="M99,173.22a164.48,164.48,0,0,1,27-4.81c15.25-.78,20.38-2.51,30-7.79,9-4.92,13.56-4.67,21.64-5A465.82,465.82,0,0,0,239,149.52c19.66-3.27,43.37-13.11,63.84-13.22s21.29,3,33.2,7.76,10.15,5.45,24.59,11.78,21.85,10.09,27.66,14.9c5.63,3.69,7.26,1.6,12.36-7.52s6.68-19.4,2.66-20.45c-5.36-2-7.81-6.79-12-11.05s-17.86-14.57-33.45-14.17c-8.86-.54-19-8.08-33.81-12.71-14.76-4.06-27.17-5.89-36.23-10.08-8.69-4-15.77-6.34-23.23-12.77S115.58,84.22,92.83,80.68c-23.1-4.26-41.18-6.86-41.18-6.86L43.76,86.14s4.93,2.23,13.48,2.3,9.49,1.6,14.31,5.32,18,12.91,27.56,19.42,24.75,10.83,33.21,16.41c9.18,6,12,8.62,10.64,12.28-6.25,5.11-15.88,9.59-23.52,13.31-7.1,2.54-13.86,4.73-20.14,8.14a34.26,34.26,0,0,0-2.94,2.53Z"/><path class="cls-3" d="M387.16,151.52c-3.81-1-7.69-1.4-11.48-2.53a74,74,0,0,1-10.36-4c-7.23-3.38-14.44-7-21.57-10.66-6.64-3.44-12.56-8.32-18.83-12.56-6.56-4.44-13.27-7.76-20.9-8.44-6.4-.57-13.56-.1-19.6-3.1a10.77,10.77,0,0,1-6.22-9.57,68.07,68.07,0,0,1,.47-10,56.31,56.31,0,0,1-14-8.66c-7.45-6.43-149.07,2.23-171.82-1.31-8-1.48-15.4-2.75-21.66-3.79l-.22.32c-1.18,1.67-1.57,4.5-3.35,5.58a5.23,5.23,0,0,1-4.21.53c-2.19-.47-9.35-1.37-9.5-5a7.53,7.53,0,0,1,1.18-4c-2.2-.34-3.42-.51-3.42-.51L43.76,86.14s4.93,2.23,13.48,2.3,9.49,1.6,14.31,5.32,18,12.91,27.56,19.42,24.75,10.83,33.21,16.41c9.18,6,12,8.62,10.64,12.28-1.07.88-2.25,1.73-3.49,2.57,1.53-.69,3-1.47,4.51-2.3a8.93,8.93,0,0,1,2.9-1.24,13.54,13.54,0,0,1,5.3.3c1.88.5,5.72,3.17,3,5.64-2.5,2.31-6.13,3.19-9.13,4.13-3.63,1.16-7.37,2-11,3.31-2.86,1.07-5.59,2.74-8.39,4a73.23,73.23,0,0,1-12.38,4.44c-3.72.89-9.13,1.69-12.32-.77-.93.45-1.84.91-2.75,1.4a34.26,34.26,0,0,0-2.94,2.53L99,173.22a164.48,164.48,0,0,1,27-4.81c15.25-.78,20.38-2.51,30-7.79,9-4.92,13.56-4.67,21.64-5A465.82,465.82,0,0,0,239,149.52c19.66-3.27,43.37-13.11,63.84-13.22s21.29,3,33.2,7.76,10.15,5.45,24.59,11.78,21.85,10.09,27.66,14.9c5.63,3.69,7.26,1.6,12.36-7.52.64-1.13,1.21-2.27,1.73-3.41C397.39,156.86,392.58,152.92,387.16,151.52Z"/><g class="cls-4"><path class="cls-2" d="M132.76,148.51c-2.68,2.17-5,4.77-7.91,6.63-2.52,1.63-5.39,2.71-8,4.26-5.67,3.37-11.41,7.29-17.5,9.39-.31.11-.32.58,0,.48,5.94-1.56,11.09-5.4,16.6-8.41,6.34-3.47,11.93-6.45,17.29-11.81C133.82,148.54,133.19,148.16,132.76,148.51Z"/><path class="cls-2" d="M166.21,121.47c-4.23,4.39-6.77,10.85-11,15.33A119.4,119.4,0,0,1,141,150.13c-10.71,8.18-22.87,13.88-34.68,19.44-.37.18-.42.82.06.64,12.43-4.78,23.55-12.05,35-19.22,5-3.1,9.41-8.41,13.64-12.69,4.6-4.63,8-10.85,11.71-16.43C167.1,121.38,166.5,121.17,166.21,121.47Z"/><path class="cls-2" d="M187.94,123.66c-10.81,5.84-21.86,11.57-31.92,19.1-5.16,3.86-10.41,7.54-15.59,11.39s-9.22,9.46-14.49,13.32c-.3.22-.13.62.2.42,4.92-2.92,8.49-7.51,12.82-11.43,5-4.54,10.86-8.29,16.32-12.06,5.27-3.65,10.57-7,16-10.46s11.45-6.12,17-9.56C188.81,124,188.49,123.37,187.94,123.66Z"/><path class="cls-2" d="M400.22,163.79c-4-2.11-8.29-3-12.47-4.57a100.47,100.47,0,0,1-12.64-5.57c-3.91-2.17-7.56-5.05-11.44-7.31A64,64,0,0,1,350.53,136c-3-3.08-6.73-5.59-10-8.4-3.68-3.18-7.5-6-11.39-8.81-6.72-4.82-15.13-7.56-23-6.39a.56.56,0,0,0-.41.39l-.4-.21c-8.33-4.27-19.73,0-27.59,3.92-10.21,5.08-18.81,13.11-28.28,19.69-9.71,6.75-21.52,7.62-32.3,10.61-11.41,3.16-23.11,3.44-34.78,4.08a139.31,139.31,0,0,1-16.85,0c-4.07-.26-8.22-.29-12,1.61a116.51,116.51,0,0,0-21.91,14.74c-.43.36.09.7.43.43,4.9-3.84,10.11-7.1,15.25-10.47a49,49,0,0,1,7.53-4.36c3.28-1.41,6.9-1.19,10.32-1,10.65.66,21.28-.14,31.92-.81,11.39-.71,22.14-4,33.31-6.4a60.69,60.69,0,0,0,26-12.45c9.84-7.8,19.93-15.08,31.56-18.44,6.57-1.89,12.88-2.28,19.05,1.34,5.75,3.37,10.6,8.58,15.44,13.41a65.48,65.48,0,0,0,13,9.51c5.41,3.24,10.76,6.59,16.23,9.67,10.39,5.84,21.22,10.3,31.47,16.54,3.94,2.4,8.15,4,12.21,6,.49.25,1.36-.69.73-1-4.77-2.67-9.74-4.92-14.55-7.53-5.38-2.91-10.56-6.11-16.07-8.71a338.71,338.71,0,0,1-31.63-17.61c-9.95-6.09-17.27-16.59-27.43-22.22,9.93-.89,18.73,4.05,26.93,10.14a126.7,126.7,0,0,1,10.69,9.2c3.13,2.92,6.6,5.34,9.74,8.3a57,57,0,0,0,10.37,7.35c3.88,2.27,7.52,5.08,11.45,7.22,7.61,4.15,16.07,6.29,23.93,9.52C400,165,400.87,164.14,400.22,163.79Z"/><path class="cls-2" d="M322.47,137c-3.3-3.79-4.93-8.68-8-12.64a17.27,17.27,0,0,0-10.7-6.53c-8.59-1.56-16,2-23.37,6.82a166.66,166.66,0,0,1-28.53,15.55c-4.83,2-9.69,3.74-14.63,5.32-5.39,1.71-10.86,2.76-16.14,5-.33.13-.36.69.05.54,9.31-3.37,18.92-5.22,28.18-8.85A168,168,0,0,0,273.93,130c3.86-2.3,7.54-5,11.41-7.23a28,28,0,0,1,15.56-4c5,0,9.17,2.49,12.68,6.52,3.21,3.68,4.68,8.89,7.95,12.65C321.92,138.38,322.92,137.56,322.47,137Z"/><path class="cls-2" d="M317.63,136.8c-4.7-9.38-11.07-16.06-20.74-13.52-4.8,1.27-9.07,5.05-13.11,8.11a104.38,104.38,0,0,1-14.68,9.25c-.24.13-.16.52.11.4,8.11-3.66,15.09-9.37,22.57-14.42,4.44-3,9.81-3.91,14.62-1.69s7.18,8.26,10.35,12.56C317,137.87,317.86,137.26,317.63,136.8Z"/><path class="cls-2" d="M309.53,134.1c-3-2.29-5.54-6.93-9.6-5.5-5.3,1.87-10,5.74-15,8.59-.22.12-.15.49.1.38a103.3,103.3,0,0,0,10.71-6.17c3.21-1.93,6.93-2.71,9.57.69a9,9,0,0,0,3.54,2.79C309.18,135,309.94,134.41,309.53,134.1Z"/><path class="cls-2" d="M269.19,97.6c-.22-.13-.7.3-.45.52a76.63,76.63,0,0,0,7.59,5.31,20.12,20.12,0,0,1,3,2.18c1.59,1.51-5.59,3-4.81,2.84-3.63.87-7.27,2.11-11,2.55-3.47.42-6.94.15-10.42.66-.51.07-.88,1-.17,1,4.29-.43,8.93.1,13.12-1,3.13-.84,6.25-1.65,9.39-2.4a13.64,13.64,0,0,0,4.2-1.29C284.22,105,270.33,98.28,269.19,97.6Z"/><path class="cls-2" d="M287.38,107.72c-.29-3.58-8.63-5.92-10.75-6.92-.24-.11-.66.32-.35.51,1.52.91,3.07,1.72,4.64,2.53.79.39,1.56.82,2.32,1.28q4.44,1.57.22,6.18a47.89,47.89,0,0,1-11.77,3.43c-7.58,1.19-14.71,4-21.78,7.34-.44.21-.5,1,.08.76,5-2,10-4.25,15.18-5.78,5.37-1.58,10.84-1.75,16.12-3.88C283.52,112.27,287.68,111.32,287.38,107.72Z"/><path class="cls-2" d="M405.36,150.84c-7.31-2.41-13.57-7.69-20.75-10.37a67.74,67.74,0,0,0-10.71-2.62c-3.2-.62-7.23.78-10.24-.45a.28.28,0,0,0-.24,0c-3.59-2.07-7.18-4.11-10.66-6.48-5.24-3.57-10.32-7.45-15.59-11s-10.08-7.27-15.53-10.32a32,32,0,0,0-7.58-3.15c-3.07-.8-6.13-.36-9.17-1.48-5.7-2.09-11.48-3.82-17.19-5.91-6.09-2.23-12.4-4.14-18.15-7.41-.23-.13-.65.31-.35.5,5.19,3.35,11,5.3,16.63,7.42s11.53,3.87,17.24,6c5.53,2.06,11.18,1.73,16.61,4.5s10.39,6.77,15.62,10.24,10.36,7.38,15.59,11C356.3,135,362,138,367.47,141.39c10.66,6.61,23.19,8.1,33.61,15.07.48.33,1.38-.65.76-1.07-10.06-6.83-22.27-7.94-32.52-14.41-1.45-.91-2.91-1.78-4.37-2.64,2,.28,4.31-.07,6,0a51.14,51.14,0,0,1,13,3c7.21,2.44,13.42,8,20.72,10.4C405.16,152,406,151,405.36,150.84Z"/><path class="cls-2" d="M397.57,138.82c-6-1.93-12.18-3.18-17.95-6-1.73-.86-2.8-2.58-4.24-3.87a10.36,10.36,0,0,0-3.81-1.77c-2.64-.91-5.73-.63-8.47-1.23A50.92,50.92,0,0,1,344,117.09c-5-3.79-10.3-8-16.12-9.8-.25-.07-.74.4-.39.55,5.82,2.44,11.3,6.72,16.47,10.67,4.8,3.66,10.72,6,16.2,7.91a39.44,39.44,0,0,0,8.4,1.47,11.1,11.1,0,0,1,6.71,2.66c.86.77,1.42,1.91,2.4,2.52,6,3.69,12.72,4.65,19.13,6.8C397.36,140.05,398.22,139,397.57,138.82Z"/><path class="cls-2" d="M153.52,120.13c.13-.67-.83-.34-1,.12-2.34,8.48-3.95,17.85-11.11,22.67-.28.19-.22.7.15.53C149.22,139.74,151.87,128.68,153.52,120.13Z"/><path class="cls-2" d="M131.59,125.61c-3-1.14-5.1-3.15-7.83-4.84-4-2.5-8.27-4.33-12.15-7.13-3.23-2.33-6.46-4.55-9.62-7s-6.58-3.88-9.79-6c-3.78-2.53-7.55-5-11.32-7.6S73,87.2,68.67,85.51a48.6,48.6,0,0,0-11.75-3c-3.51-.45-6.94-1.8-10.48-1.4-.41,0-.69.77-.14.76,3.83,0,7.74,1.4,11.55,1.91a40.59,40.59,0,0,1,12.63,3.95c4,2,8.13,5.23,11.83,7.89,3.35,2.41,6.78,4.5,10.19,6.78s7,3.82,10.23,6.58,6.92,4.9,10.36,7.38c2.82,2,6.14,3,9,4.92,3,2,5.42,4.19,8.88,5.21C131.38,126.59,132.14,125.82,131.59,125.61Z"/><path class="cls-2" d="M124.45,92.36c-6.71-1-13.22-2.22-19.84-3.77a173.42,173.42,0,0,0-21-3.91c-6.72-.71-12.68-3-19.1-5.1a52,52,0,0,0-7.5-2c-1.7-.3-3.36-.83-5.06-1.08-1.1-.17-2.52.09-3.59-.25-.28-.1-.83.39-.44.62,1.66.93,4.26.72,6.08,1.19,3.27.85,6.54,1.53,9.77,2.6,6.09,2,11.72,4.43,18.07,5.11a188.19,188.19,0,0,1,20.73,3.78c3.34.74,6.51,1.86,9.89,2.41,3.82.62,7.67,1.07,11.51,1.48C124.51,93.46,125.17,92.46,124.45,92.36Z"/></g><path class="cls-5" d="M21,91.88S6.08,98.7,4.4,117.63c13.26-2.79,19-3.95,22.69-11.25a41,41,0,0,0,4.18-14.16Z"/><path class="cls-6" d="M31.27,92.22,21,91.88a23.61,23.61,0,0,0-4.17,2.66,32,32,0,0,1,7.86.77c.16,0,0,.32,0,.39a5.24,5.24,0,0,1-4,2.57c.14.14-.27.61-.34.66-2.11,1.48-4,3.61-6.22,4.76l-.45.19a.54.54,0,0,1-.08.19,29.77,29.77,0,0,1-3.45,4,11.61,11.61,0,0,0-3,5.19A8.65,8.65,0,0,1,6.47,115a5.15,5.15,0,0,1-2,2.13c0,.19,0,.36-.06.55,13.26-2.79,19-3.95,22.69-11.25A41,41,0,0,0,31.27,92.22Z"/><path class="cls-7" d="M28.51,94.71c-2.13,1.47-4.78,2.33-7.08,3.39a.1.1,0,0,0-.09-.06c-3.06-.45-5.73-.91-8.68.32-.18.08-.2.4,0,.31a11.1,11.1,0,0,1,3.65-.78,40.87,40.87,0,0,1,4.54.48A19.93,19.93,0,0,0,18.22,100a.19.19,0,0,0-.22.15v0a28.1,28.1,0,0,0-2.53,2l-.91.84h0a13.52,13.52,0,0,0-6.65,2.32c-.14.09-.06.28.09.19a16.82,16.82,0,0,1,6.19-2.12c-3.29,3.12-6.58,7-7.35,12,0,.33.41.17.47-.06,1.39-5.8,5.06-9.7,9-13.29a18.49,18.49,0,0,1,1.64-1.34c-.69,4.55-1.57,8.81-2.67,13.26-.06.24.3.16.36,0,1.59-4.3,2.15-8.9,2.66-13.5a35.68,35.68,0,0,1,4.91-2.73c.75-.36,1.54-.68,2.32-1,0,0,0,0,0,.08A37.68,37.68,0,0,1,22.59,110c-.12.28.28.25.37,0a32.51,32.51,0,0,0,2.76-13.46s0-.06,0-.07A16.56,16.56,0,0,0,28.62,95C28.79,94.83,28.69,94.59,28.51,94.71Z"/><path class="cls-8" d="M45.34,85s4.53,12-1.7,23.34c-6.64,10.91-7.42,12-7.42,12s-9.93-4.64-10-13.49S30.81,88.72,45.34,85Z"/><path class="cls-9" d="M45.34,85c-9.35,2.41-14.62,7.1-17.17,12.5a42.86,42.86,0,0,1,8.72-4.89c.11,0,.28,0,.23.18-.91,3.21-1.61,5.86-4.19,7.7l-.57.38c.73-.36,1.46-.68,2.22-1,.06,0,.23,0,.23.08-.06,2.77-.57,5.41-2.31,7.39-.81.92-1.88,1.44-2.7,2.34-1.54,1.71.42.17.82,0a6.1,6.1,0,0,1,1.46-.53c.07,0,.22,0,.23.09a32.54,32.54,0,0,1-.75,8,22.39,22.39,0,0,0,4.66,3.15s.78-1.11,7.42-12C49.87,97,45.34,85,45.34,85Z"/><path class="cls-9" d="M33.43,93.66c1.89-.67,3.13-1.07,5.33-2,1.22-.49,2,2.23,2.5,4.39A11.22,11.22,0,0,1,42.85,90a3.69,3.69,0,0,1,2.88-1.53,3.59,3.59,0,0,1,.57.11,26.15,26.15,0,0,0-1-3.61c-8,2-12.94,5.75-15.82,10.12A22,22,0,0,1,33.43,93.66Z"/><g class="cls-10"><path class="cls-5" d="M40.66,111.92a39,39,0,0,0-1.35-7.85c-.66-2.41-1.65-4.59-2.47-6.89a29.18,29.18,0,0,1,2.94-5.63,50.34,50.34,0,0,1,2.63,11.52c0,.26.42.08.41-.15-.2-4.26-1.46-7.82-2.77-11.74a16.71,16.71,0,0,1,3.66-3.83c.15-.11.06-.32-.1-.21-3.23,2.21-5.4,5.76-7,9.63a.19.19,0,0,0-.15.22l0,.08c-.33.82-.64,1.64-.93,2.47-1.12.44-2.31.68-3.41,1.23A20.41,20.41,0,0,0,28,104c-.23.21.05.41.25.24a31,31,0,0,1,4.05-3.15,21,21,0,0,1,3.11-1.2c-.06.2-.13.39-.19.58a42.87,42.87,0,0,0-1.68,7.2,12,12,0,0,0-5.26,4.36c-.2.27.19.34.34.16a21.55,21.55,0,0,1,2.34-2.6A11.9,11.9,0,0,1,33.48,108a32.3,32.3,0,0,0,.14,10.63c.05.24.41.07.39-.15a46.79,46.79,0,0,1,1.23-16.47c.2-.77.43-1.56.68-2.34l.08,0c.13-.07.13-.25,0-.29.19-.59.4-1.17.63-1.75.72,2.22,1.6,4.35,2.2,6.65a72.39,72.39,0,0,1,1.4,7.78C40.3,112.32,40.67,112.14,40.66,111.92Z"/></g><path class="cls-5" d="M49.43,59.24s5-7.8,15.84-4.84c-2.53,11.65-6.18,18.21-14.7,20.13C50.12,68.29,49.43,59.24,49.43,59.24Z"/><path class="cls-6" d="M65.27,54.4c-.44-.12-.86-.21-1.28-.3-2.32,1.53-4.15,3-5.36,6.06a7.48,7.48,0,0,1-1.48,2.53c-.07.09-.5.41-.54.12a16.13,16.13,0,0,1,.55-5c-1.07,2.4-1.35,5-2.38,7.47-.15.37-.71,1.12-1.13,1-1.58-.39-1.46-4.67-1.46-6s-.08-2.52-.17-3.78a11.84,11.84,0,0,0-2.59,2.67s.69,9.05,1.14,15.29C59.09,72.61,62.74,66.05,65.27,54.4Z"/><path class="cls-7" d="M63.31,62.23l-3.44.11a14,14,0,0,0-2.44.42c.06-.09.11-.18.16-.27,1.73-2.88,4.4-6.77,7.24-8.1.16-.08.18-.35,0-.27-2.94,1.07-5.39,4.88-7.2,7.59-.56.83-1.12,1.72-1.65,2.66a28.66,28.66,0,0,1,2.29-10.48c.09-.23-.23-.21-.3,0a25.46,25.46,0,0,0-2.41,11.28A42,42,0,0,0,53.66,69h-.07c-.11,0-.3.22-.15.27h.11a27.26,27.26,0,0,0-1.3,4c-.08.31.38.16.44-.06a40.36,40.36,0,0,1,1.4-3.9,7.91,7.91,0,0,1,1.27-.07,21.34,21.34,0,0,1,2.86.59c.14,0,.37-.26.19-.33a15,15,0,0,0-2.54-.58,5,5,0,0,0-1.08-.08,2,2,0,0,0-.53.09,54.4,54.4,0,0,1,3-5.9c.84-.08,1.66-.3,2.53-.31a32.86,32.86,0,0,0,3.44-.13C63.44,62.58,63.59,62.22,63.31,62.23Z"/><path class="cls-5" d="M12,59.94s10.12-8.89,26.71,6.85l4.66,4.5s-12,8.37-21.55,2.95C13.38,69.29,12,59.94,12,59.94Z"/><path class="cls-6" d="M38.73,66.79a41.81,41.81,0,0,0-8.82-6.58c1.16,1.7,2.6,3.57,2.63,5.65,0,.35-.44.77-.73.71-1.27-.25-2.42-.93-3.68-1.31a8,8,0,0,1-3.23-1.42A13.22,13.22,0,0,1,23,61.58c.08.61-.08,1.09-.74,1.17-1.17.14-2.49-.78-3.63-1A25,25,0,0,0,12.25,61a21.36,21.36,0,0,0,9.59,13.21c9.51,5.42,21.55-2.95,21.55-2.95Z"/><path class="cls-7" d="M41.51,71.59a43.93,43.93,0,0,0-7.8-4.34.11.11,0,0,0,0-.15c-1.38-1.84-3.46-4.13-3.91-6.63,0-.15-.25,0-.24.08a9,9,0,0,0,1.34,3.3A17.26,17.26,0,0,0,33.23,67c-1.78-.79-3.59-1.54-5.42-2.33l-.52-.21c0-.07,0-.14-.12-.15l-.34,0c-.59-.24-1.18-.46-1.77-.68,0,0,0,0,0,0-.65-1.12-1.34-2.2-2-3.28-.58-.91-1.31-1.73-1.82-2.7-.06-.11-.26,0-.21.14a19,19,0,0,0,1.66,2.79c.62,1,1.23,2,1.87,2.91A52.48,52.48,0,0,0,12.8,60.84c-.13,0-.3.24-.11.27a60.93,60.93,0,0,1,12.64,3.1c-3.35-.11-7,.64-9.68,2.92-.16.14,0,.26.16.16,3.09-2.51,7.24-2.69,10.87-2.54.28.12.57.23.85.36,2.11.94,4.27,1.73,6.39,2.63.46.19.9.41,1.34.62a19.08,19.08,0,0,0-13.68,5c-.13.12,0,.23.15.14a20.34,20.34,0,0,1,6.71-3.7,27.52,27.52,0,0,1,6.91-1,.26.26,0,0,0,.19-.21,44.86,44.86,0,0,1,5.62,3.42C41.33,72,41.7,71.72,41.51,71.59Z"/><path class="cls-8" d="M51.65,73.82S25.49,60.49,13.23,91.61C25.82,95.45,42,97.88,51.65,73.82Z"/><path class="cls-9" d="M37.6,71l.23,0c2.21.42,5.71,1,6.6,3.9.08.27-.39.67-.57.71a8.44,8.44,0,0,1-3.54,0c.14.15.28.3.41.47s-.31.67-.44.73c-4,2-8.3,1.51-12.55,1.51,1,.28,2,.6,2.94,1,.28.11-.2.63-.29.69-2.73,1.88-6,1.86-8.82,3.64-1.22.78-2.83,2.44-3.72,3,.69-.41,1.37-.83,2.07-1.21a33.94,33.94,0,0,1,4.59-2.12c.44-.16.1.46,0,.59a17,17,0,0,0-3.75,5.37,12.63,12.63,0,0,1-1.22,2.3A6.36,6.36,0,0,1,18.23,93c11.63,2.67,25,1.83,33.42-19.15A30.91,30.91,0,0,0,37.6,71Z"/><path class="cls-9" d="M44.46,71.8a3.23,3.23,0,0,1,1.24,1.52c.54,1.88,1.39,2.19,3,2.07.11,0,.16.07.14.19a2.91,2.91,0,0,1-1.21,2.2,12.81,12.81,0,0,0-5,5.78c-.93,2.21-1.76,4.48-2.75,6.63,4.41-3,8.47-8.16,11.77-16.37a29.8,29.8,0,0,0-7.76-2.39A5.57,5.57,0,0,1,44.46,71.8Z"/><path class="cls-8" d="M51.65,73.82s1.19-13.62-4.43-23.23A203.36,203.36,0,0,0,36.1,32.47s-12,14.32-5.18,28.13C35.72,67.66,41.61,71.27,51.65,73.82Z"/><path class="cls-9" d="M49.72,68.75a59.37,59.37,0,0,1-5.09-9.45A5,5,0,0,1,44.47,56c-.62.74-1.33.9-2-.38A19,19,0,0,1,40,49.48a24.56,24.56,0,0,1,.15-5.62,8.06,8.06,0,0,1-.63,1.85c-.07.13-.54.65-.69.4-1-1.65-1-3.83-1.06-5.77s-.25-3.91-.31-5.86c-.86-1.28-1.37-2-1.37-2s-12,14.32-5.18,28.13c4.8,7.06,10.69,10.67,20.73,13.22,0,0,.14-1.59.1-4.07A1.92,1.92,0,0,1,49.72,68.75Z"/><path class="cls-7" d="M49.38,70.71a44.36,44.36,0,0,0-2.69-8.63c-.68-1.47-1.45-2.9-2.24-4.31a.27.27,0,0,0,.19-.2,19,19,0,0,1,1.1-4c.46-1.38.79-2.91,1.16-4.34.06-.21-.27-.13-.32,0-.65,1.76-1,3.57-1.66,5.35a8.65,8.65,0,0,0-.73,2.76c-.63-1.13-1.26-2.25-1.87-3.38a40.34,40.34,0,0,1-2.81-6.62c.33-1.48.58-3,.88-4.46a19,19,0,0,0,.7-3.59c0-.19-.32-.08-.33.08a20.6,20.6,0,0,1-.8,3.56c-.27,1.16-.5,2.34-.73,3.52-.14-.45-.28-.89-.41-1.35.16-.08.3-.28.12-.35l-.24-.1c-.08-.3-.17-.61-.25-.92-.76-3-.52-6.26-.7-9.29,0-.17-.28-.07-.29.07a40.19,40.19,0,0,0,.74,9.94A12.75,12.75,0,0,1,32,39.66c-.09-.13-.37,0-.29.18A10.67,10.67,0,0,0,38.32,45c.2.88.44,1.73.69,2.59,0,.18-.07.37-.11.56s.18.2.32.09a35.55,35.55,0,0,0,1.29,3.38c-1.75.14-3.62-.79-5.28-1.24a49.88,49.88,0,0,1-6.44-2.4c-.13,0-.36.19-.19.27A30,30,0,0,0,35,50.79c1.69.39,3.85,1.69,5.64,1.17.16.35.32.69.49,1,1.41,2.79,3.24,5.39,4.51,8.25.37.83.73,1.65,1.06,2.48-1.31-1.87-3.27-2.61-5.2-3.25-2.81-.92-5.81-1.21-8.57-2.29-.15-.06-.44.24-.23.34,2.29,1,4.84,1.2,7.19,2,1.21.4,2.43.74,3.62,1.19a11.69,11.69,0,0,1,3,2.52c.09.11.29,0,.36-.12.2.52.4,1,.56,1.6.35,1.14.62,2.33,1,3.49-2.77-1.81-6.68-1.64-9.68-1.63-.12,0-.27.27-.08.29,3.36.43,6.94.27,10,2.19.1.3.19.61.3.9S49.43,70.92,49.38,70.71Z"/><path class="cls-7" d="M51.42,74.75c-2.66.28-5.33.75-8,1.26,0,0,0,0-.06,0a52,52,0,0,1-6.61-2.06c-2.21-.7-4.44-1-6.68-1.47-.15,0-.34.26-.13.32,2.66.66,5.31,1.1,7.94,2,1.46.48,3,1.13,4.46,1.47l-2.29.44a36.56,36.56,0,0,0-9,2.65c-3.13-.07-6.58-1.63-9.67-.51-.13,0-.14.25,0,.21,1.87-.52,4.12-.07,6,.16,1,.11,1.94.4,2.91.49-3.24,1.64-6.53,3-9.52,5.25a31.19,31.19,0,0,0-6.7,6.77c-.14.19.13.24.23.11a34.38,34.38,0,0,1,11.71-9.71,20.07,20.07,0,0,0-2.77,3.18c-1.79,2.32-2.33,5.32-3.67,7.92-.08.14.14.16.2.06,1-1.72,1.46-3.79,2.39-5.57,1.34-2.56,3.14-5.09,5.52-6.35a.18.18,0,0,0,.08-.09,56.39,56.39,0,0,1,9.57-3.31c-1.51,1.23-2.39,3.35-3.23,5.22a38.4,38.4,0,0,0-3,10.68c0,.22.28.12.3,0a39.32,39.32,0,0,1,2.3-8.59c1.13-2.73,2.27-5.89,4.59-7.5,2.59-.64,5.22-1.15,7.83-1.63a38.31,38.31,0,0,0-7.91,14c-.08.26.26.23.33,0a49.41,49.41,0,0,1,8-14.12l4.83-.85C51.55,75.11,51.7,74.72,51.42,74.75Z"/><path class="cls-5" d="M77.11,162.71C76.78,162.45,54.84,144,53,121.9c24,8.35,30.75,24,35.13,36.07Z"/><path class="cls-11" d="M85.83,152.08a6.36,6.36,0,0,1-2.15,3.4C82,156.67,82,154,82.19,151.75a8.51,8.51,0,0,1-.65,1c-.12.15-.43.45-.61.29-2.79-2.57-2.78-5.91-2.89-9.46a15.24,15.24,0,0,1-.56,1.82c-.07.2-.53.75-.74.5a23.07,23.07,0,0,1-3.9-6.27c-.64-1.61-.65-3.29-1.15-4.9a9.88,9.88,0,0,1-.75,4.49c-.07.13-.57.8-.74.5-1.21-2.21-3.2-3.68-4.26-6-.77-1.69-.69-3.52-1.64-5.1-1.5,1.9-3.57.74-5.08-1.08a58.52,58.52,0,0,0-4.5-5L53,121.9c1.85,22.07,23.79,40.55,24.12,40.81l11-4.74C87.43,156.07,86.69,154.1,85.83,152.08Z"/><path class="cls-5" d="M93.47,180.51S102.54,194.67,117,193s19.61-5,19.61-5-16.06-26.21-39-16.38C96,175.27,93.47,180.51,93.47,180.51Z"/><path class="cls-5" d="M130,179.91c-.87-.87-1.82-1.75-2.84-2.62C125.28,178.86,128.11,179.33,130,179.91Z"/><path class="cls-11" d="M130.38,181.13c-1.67-.7-3.48-1-5-2.09-.17-.13,0-.37.09-.49a9.77,9.77,0,0,1,1.34-1.55l-.58-.47c-1.79.05-3.55.65-5.37.55-2.25-.12-4.45-1.38-6.63-1.94-.16,0,0-.31,0-.38a5.77,5.77,0,0,1,2.83-2.67,47,47,0,0,0-8.54,1.53c-.55.14-4.4,1.24-4.45-.11-.06-2,1.55-3.28,3.5-4.1a26,26,0,0,0-10,2.2c-1.66,3.66-4.15,8.9-4.15,8.9S102.54,194.67,117,193s19.61-5,19.61-5a45.25,45.25,0,0,0-4.24-5.57A8,8,0,0,0,130.38,181.13Z"/><path class="cls-7" d="M132.1,185.3a50.44,50.44,0,0,0-7.64-4.28c-.81-.4-1.63-.8-2.46-1.19.42-.68,1.93-.77,2.57-1a11.18,11.18,0,0,1,3.58-.45c.2,0,.48-.39.18-.43a10.56,10.56,0,0,0-4.19.6c-.74.24-1.91.32-2.41,1.12a38.31,38.31,0,0,0-6.08-2.28,39.25,39.25,0,0,0-6.07-1c.78-.47,1.53-1.2,2.26-1.63a17.19,17.19,0,0,1,6.54-2.1c.22,0,.39-.47.07-.43a13.39,13.39,0,0,0-5.24,1.29c-.83.45-1.65,1-2.45,1.47-.5.33-1.14,1-1.74,1.34l-1.08-.12a4.36,4.36,0,0,0-.42-.23c-.1-.05-.24,0-.31.15L106.1,176a21.32,21.32,0,0,0-7.64.06.37.37,0,0,0-.43.15.17.17,0,0,0,0,.22l0,0a.11.11,0,0,0,.08,0h.05l.09,0h.08l.06,0a.36.36,0,0,0,.21-.24c.07.08.17.16.75,0,.16,0,1.62-.07,2-.09a27.72,27.72,0,0,1,4.55.34l1.89.22c1.89,1.24,3.32,3.36,4.72,5.24a35.16,35.16,0,0,1,4.36,7.6c.1.24.48,0,.41-.25a24.33,24.33,0,0,0-3.93-7.23,24.76,24.76,0,0,0-4.51-5.24,48,48,0,0,1,5.93.9c.18,0,.36.1.53.15-.08,0-.15.16,0,.22,4.79,2.42,7.37,6.43,9.41,11.92.08.21.45,0,.41-.2-1.16-5.41-4.78-9.93-9.2-11.79,5.51,1.51,11,4.63,15.92,7.65C131.94,185.76,132.28,185.44,132.1,185.3Z"/><path class="cls-5" d="M45.35,184.54s-8,6.58-9.1,16.87-.9,13.13-.9,13.13,15-1.89,20.79-3.82,7.59-11.06,7.74-18.24S49.63,183.05,45.35,184.54Z"/><path class="cls-11" d="M63.88,192.48c.15-7.19-14.25-9.43-18.53-7.94a25.8,25.8,0,0,0-3.61,3.89,14.79,14.79,0,0,1,4.18.2c2.07.33,4.72,0,6.36,1.78.16.18-.25.58-.35.65-1.48,1.12-3,.73-4.63.82.72.05,1.44.12,2.14.24.08,0,.09.12.07.18-.57,2.52-2.68,4.07-4.46,5.36a29,29,0,0,1-5.59,2.86,4,4,0,0,1,2.06.37.13.13,0,0,1,.07.1c.08,1.3-1.89,3.46-2.32,4.44-1.13,2.64-2.06,5.38-3.27,8a1.2,1.2,0,0,1-.67.48c0,.45,0,.65,0,.65s15-1.89,20.79-3.82S63.73,199.66,63.88,192.48Z"/><g class="cls-10"><path class="cls-5" d="M55.2,201.65A55.18,55.18,0,0,0,55,191.21a5.92,5.92,0,0,1,2.31-.9c.16,0,.27-.3.06-.29a5.65,5.65,0,0,0-2.58.92.39.39,0,0,0-.16.1c-1.21.75-2.39,1.75-3.34,2.42a40.89,40.89,0,0,0-6.22,5.22c-.29.3-.57.62-.85.94a.11.11,0,0,0-.14-.1,22.12,22.12,0,0,0-4.5.59,8.21,8.21,0,0,0-1.9.65,9.35,9.35,0,0,1-1.58,1c-.14,0-.2.3,0,.28a.77.77,0,0,0,.53-.21,8,8,0,0,1,2.51-1.23,23.94,23.94,0,0,1,4.82-.69,58.28,58.28,0,0,0-4.28,5.63,20.16,20.16,0,0,0-3.14,6.65c0,.31.4.2.47,0A35.9,35.9,0,0,1,45.43,199c.53-.55,1.09-1.07,1.65-1.59-.23,1.69-.2,3.47-.4,5.18a65.21,65.21,0,0,1-1.47,6.51c-.07.32.41.17.47-.06a54.56,54.56,0,0,0,1.49-6.52c.27-1.84.17-3.61.29-5.45,1.13-1,2.31-1.95,3.5-2.82s2.33-1.91,3.64-2.77a62.52,62.52,0,0,1,0,10.24,74.91,74.91,0,0,1-2.21,10.11c-.08.35.45.24.53,0A54.73,54.73,0,0,0,55.2,201.65Z"/><path class="cls-5" d="M51.89,192.11A41.47,41.47,0,0,0,45,192a34.73,34.73,0,0,0-6.86,1.69c-.21.06-.22.39,0,.32a50.66,50.66,0,0,1,6.75-1.53,59.68,59.68,0,0,1,6.82,0C52,192.54,52.16,192.12,51.89,192.11Z"/></g><path class="cls-7" d="M82.74,157.17l-.5-.73a.23.23,0,0,0,.11-.11,10.93,10.93,0,0,0,.72-4.08c.06-1.3.22-2.6.24-3.9,0-.22-.34-.06-.35.12a29.52,29.52,0,0,1-.95,7.64c-1.46-2.12-2.77-4.34-4.15-6.52.18-1.54.39-3.07.55-4.62.2-2-.19-3.91-.17-5.89,0-.18-.3-.07-.31.08-.11,2,.2,3.88,0,5.87-.11,1.31-.35,2.63-.51,3.94-.4-.62-.8-1.25-1.21-1.85-.57-.82-1.14-1.61-1.71-2.38.08-.08.12-.21,0-.28s-.27-.16-.41-.24c-.8-1.07-1.62-2.11-2.46-3.14,0,0,0,0,0,0a24.62,24.62,0,0,0-1.63-10.19c-.06-.17-.36,0-.3.19a34,34,0,0,1,1.55,9.56L70,139.06c-1.16-1.39-2-3-3.23-4.33-.24-.24-.47-.49-.7-.74-.28-1.26-.55-2.55-.86-3.81A10.79,10.79,0,0,0,64,127c-.1-.17-.43,0-.33.21a14.86,14.86,0,0,1,1.21,3.51c.18.81.28,1.68.51,2.48-.88-.94-1.76-1.87-2.71-2.75-1.32-1.24-2.75-2.33-4.09-3.55s-2.82-1.91-4.14-3.05c-.12-.1-.38.1-.26.25,1,1.13,2.46,1.72,3.58,2.69,1.35,1.18,2.66,2.4,4,3.55A39.16,39.16,0,0,1,67.86,137a21.29,21.29,0,0,0-4.29-1.7c-2.84-.93-5.65-2-8.49-2.87-.15-.05-.43.24-.22.32,2.4.85,4.77,1.79,7.19,2.59a22.83,22.83,0,0,1,6.75,2.94h0l.43.59c1.1,1.49,2.37,2.78,3.51,4.21.17.21.33.43.49.64A25.12,25.12,0,0,0,68,142.16c-2.86-.64-5.63-1.68-8.44-2.59-.14,0-.39.24-.21.3,2.39.82,4.76,1.68,7.18,2.35s5,1.09,7.26,2.32c.78,1.11,1.5,2.27,2.26,3.39.44.66.86,1.33,1.28,2,0,.25-.05.51-.06.77a21.5,21.5,0,0,0-3.94-1.12,32.81,32.81,0,0,0-4.61-.66,17.9,17.9,0,0,1-2.84-.13c-.15,0-.34.26-.13.31,1.7.47,3.7.25,5.45.51,2.21.33,5.45.93,7.43,2.5a35.09,35.09,0,0,0,3.69,5.41C82.52,157.72,82.91,157.4,82.74,157.17Z"/><path class="cls-8" d="M74.7,160.86s1.13-8-11-7.41-32.14,7.84-42.16,23.11c7.39.6,9.7,2.88,13.23,5s20.81,8.52,24.66,7.66S74.7,160.86,74.7,160.86Z"/><path class="cls-9" d="M64.52,153.42c2.06,2.42,3.7,5.74,2.55,8.07C66.33,163,65.12,164,63.7,163c-1.09-.73-1.67-2.3-2.53-3.32a13.94,13.94,0,0,0-3.24-2.93c1.74,2.44,3.74,6,.54,7.43-2.87,1.27-5.73.32-8.58-1,1,.92,1.23,1.88,0,2.74a4.88,4.88,0,0,1-2.68.66,16.29,16.29,0,0,0-4.73.71,6.26,6.26,0,0,1-4.32.27c-1.36-.55-2.79-1.59-4.26-1.86a9.41,9.41,0,0,1,3.26,2.53c.09.14-.07.38-.15.46-2.22,2.53-5.93,3-8.78,4.1a23.9,23.9,0,0,1-4.76,1.2c-.65.83-1.26,1.68-1.84,2.57,7.39.6,9.7,2.88,13.23,5s20.81,8.52,24.66,7.66S74.7,160.86,74.7,160.86,75.78,153.21,64.52,153.42Z"/><path class="cls-8" d="M61.7,194.52a41.63,41.63,0,0,0-2.35,17.78,122.93,122.93,0,0,0,3.86,19s9.38-5.86,13.72-9.44,6.83-7.88,7-13.22-6.37-17-6.37-17Z"/><path class="cls-9" d="M83.91,208.68c.16-5.35-6.37-17-6.37-17L61.7,194.52a40.5,40.5,0,0,0-2,7.46,10.45,10.45,0,0,1,2.88-2.4c2.27-1.28,5.18-1.42,7.62-2s5-1.19,7.46-1.62c.16,0,.16.17.11.29-1.08,2.33-3.29,3.31-5.33,4.15a19.68,19.68,0,0,0-4.66,2.87c1.91-.93,3.71-2.12,5.81-2.22.07,0,.14,0,.15.11a5.68,5.68,0,0,1-1.63,4.57c-2.26,2.36-4.65,4.32-6.64,7-.34.46-.66.93-1,1.4a21.27,21.27,0,0,1,1.87-1.59c.81-.6,2.36-2.2,3.44-1.78,1.64.63-3.84,11.58-4.31,12.85a13.74,13.74,0,0,1-3,5.29c.4,1.5.66,2.41.66,2.41s9.38-5.86,13.72-9.44S83.76,214,83.91,208.68Z"/><path class="cls-9" d="M64.72,197.33a28.47,28.47,0,0,1,5.47-1.51c1.79-.32,3.55-1.18,5.36-1.33,6.67-.53,7,11.65,5.92,17,0,.23-.26,2.38-.27,2,0-3.7-.33-11.21-1.87-14.49-.74,4.39-.26,10.49.18,14.95a17,17,0,0,1-.47,6,16.5,16.5,0,0,0,4.87-11.26c.16-5.35-6.37-17-6.37-17L61.7,194.52a38.39,38.39,0,0,0-1.64,5.82A14.57,14.57,0,0,1,64.72,197.33Z"/><path class="cls-8" d="M78.36,190.14a19.63,19.63,0,0,0,6.5,13.19c6.31,5.5,15,12.55,17,18.9,4.29-12.28,16.09-40.9-5.23-46.6C90.85,182.54,78.36,190.14,78.36,190.14Z"/><path class="cls-9" d="M93.41,185.66c.38-.19.38.18.17.44a29.86,29.86,0,0,0-5,9.43c1.4-3.46,3.3-7.1,5.87-6.11s2.32,4.64,1.68,8.44a7.32,7.32,0,0,1,.45-.82c.07-.1.56-.66.69-.39,1.15,2.4.83,5.06.58,7.68-.37,3.86-.18,6.24,2.37,8.87a10.11,10.11,0,0,1,2.62,6.2c4.78-13.37,13.59-38.47-6.23-43.77-5.81,6.91-18.3,14.51-18.3,14.51a19.72,19.72,0,0,0,2.3,7.89C82.1,191.81,88.78,188.09,93.41,185.66Z"/><path class="cls-9" d="M90.34,185.34A54.23,54.23,0,0,0,95.61,182a22.43,22.43,0,0,1,2.63-2.08,4.6,4.6,0,0,1,4.5.18,14.72,14.72,0,0,1,5.35,6.16c-1.48-4.92-4.89-8.83-11.43-10.58-5.81,6.91-18.3,14.51-18.3,14.51a18.57,18.57,0,0,0,1.25,5.57A38.05,38.05,0,0,1,90.34,185.34Z"/><path class="cls-8" d="M97,164s1.47-5.06-2.47-6.81-23.36-3.38-32.5,21.77c-6.66,19.12-7.15,21.69-7.15,21.69s5.47-3.06,16.83-5.72,21.8-11.32,25.59-19S99.3,165.41,97,164Z"/><path class="cls-9" d="M97,164s1.47-5.06-2.47-6.81a6,6,0,0,0-.83-.29,3.74,3.74,0,0,1,.42,3.61c-.09.27-.43.58-.69.53a16,16,0,0,1-3.14-.94c1.45,1,2.4,2.09,1.69,3.28-1.19,2-4.08,2.18-5.87,2-2.14-.19-4.18-1.19-6.35-1.19a16.66,16.66,0,0,0-3.61.43,20.81,20.81,0,0,1,7.37,1.47c.1,0,.07.18,0,.28-2.09,5.41-7.9,5.76-12.81,6.55,1.09,0,2.17.17,3.27.31.29,0-.23.65-.29.7-2.54,1.81-5.74,1.92-8.15,3.92,1.83.06,3.69-.05,5.34,1,.27.17-.17.6-.29.7-2.52,2.18-5.59,3.37-7.77,6.1a51.85,51.85,0,0,0-5,7.83c-.65,1.22-1.31,2.44-2,3.63-.91,2.91-1,3.54-1,3.54s5.47-3.06,16.83-5.72,21.8-11.32,25.59-19S99.3,165.41,97,164Z"/><path class="cls-7" d="M96.75,164l-.6.16a10.39,10.39,0,0,0-3.63-3.53c-1.13-.7-2.28-1.34-3.45-2a36.55,36.55,0,0,0-4.21-1.52c-.13-.05-.37.19-.19.28,1.94.95,3.91,1.55,5.83,2.64a14,14,0,0,1,5.06,4.24c-1.23.29-2.51.47-3.73.81a21.07,21.07,0,0,0-5,1.87c-1.7.95-3.47,1.73-5.18,2.67a29.77,29.77,0,0,0-3.88,2.75c-2.18-.68-4.5-.49-6.74-.67a17.76,17.76,0,0,0-2.52-.15c-1.12.06-2.22.51-3.34.55-.15,0-.32.34-.1.34a10.22,10.22,0,0,0,2.11-.35,13.13,13.13,0,0,1,3.65.06,53.51,53.51,0,0,1,6.45.6c-.4.31-.8.62-1.2.91a32.63,32.63,0,0,0-3.9,3.36c-.06-.1-.28,0-.32.13s-.07.2-.1.3c-.38.39-.76.78-1.13,1.18a16.21,16.21,0,0,0-4.83.6,11,11,0,0,0-2.26.72c-.67.31-1.7,1.41-2.47,1.3-.15,0-.35.27-.14.32,1,.22,2.35-1.06,3.18-1.44a15.21,15.21,0,0,1,6.08-1c-1.19,1.3-2.35,2.64-3.52,4-2.85,3.29-4.9,7.69-7.22,11.48-.2.33.23.42.39.18,2.4-3.48,4.25-7.46,6.78-10.82a56.85,56.85,0,0,1,4-4.8h.18c.21,0,.49-.37.24-.45.12-.12.24-.26.37-.38-.41,1-.91,2-1.24,3.11-.52,1.72-1,3.45-1.59,5.17-1,3.23-2.27,6.36-3.2,9.63-.08.26.35.19.42,0,1.11-3.46,2.41-6.83,3.49-10.3.46-1.5.9-3,1.35-4.5.37-1.23,1-2.44,1.32-3.67a37.49,37.49,0,0,1,4.27-3.64c1.52-1.09,3-2.28,4.5-3.37.36-.25.73-.49,1.11-.71-1.56,6-3,12.06-4.28,18.17-.07.3.38.17.44,0,1.53-6,2.75-12.18,4.18-18.23a.1.1,0,0,0,0-.08c1.19-.68,2.44-1.24,3.65-1.86a31.92,31.92,0,0,1,6-2.44c1.27-.35,2.59-.6,3.87-1l0,.05a.2.2,0,0,0,.15.09,70.4,70.4,0,0,0-5.18,16.71c-.07.33.4.17.46-.06,1.56-5.79,2.71-11.64,5.22-17l.35-.11C97,164.24,97,164,96.75,164Z"/><path class="cls-5" d="M89.68,165.39A33.46,33.46,0,0,0,80,163.71c-3-.08-6-.35-8.8.85-.2.08-.22.41,0,.33,5.9-2,12.38-.32,18.26.91C89.62,165.84,89.92,165.47,89.68,165.39Z"/><path class="cls-7" d="M69.87,164.63c-1.57-.12-3.12-.18-4.67-.19-1.29-1.8-2.13-3.59-3.69-5.18a17.9,17.9,0,0,0-4.92-3.86c-.15-.07-.41.2-.22.31a24.42,24.42,0,0,1,5.19,4.49c1.2,1.25,1.87,2.88,2.88,4.25-1.32,0-2.63,0-4,.11,0-.07-.11-.12-.23,0l-.09.06-1.26.08c-1.91.17-3.85.32-5.78.53a.15.15,0,0,0-.08-.13,38.18,38.18,0,0,0-6.2-2.94A23.44,23.44,0,0,0,41,160.74c-.12,0-.28.21-.11.26a37.66,37.66,0,0,1,6.3,1.83c1.75.76,3.52,1.57,5.24,2.44a42.72,42.72,0,0,0-6,1.11,83.44,83.44,0,0,0-8.16,2.78c-2.65-.79-5.29-2-8.09-1.45-.15,0-.27.33,0,.3,2.58-.34,4.92.8,7.36,1.45l-2.74,1.09c-3.81,1.52-7.56,3.94-11.49,5-.24.07-.35.54,0,.5A16.7,16.7,0,0,0,28,174.16c1.85-.86,3.66-1.78,5.54-2.52,3.85-1.52,7.68-3.08,11.62-4.29h.06a52.26,52.26,0,0,0-4.77,5.17,48.59,48.59,0,0,0-4.7,7.53c-.13.27.26.28.36.11q2-3.51,4.3-6.83a64.43,64.43,0,0,1,5.34-6.13,58.8,58.8,0,0,1,13.56-2,29.86,29.86,0,0,0-6.43,7.19,110.26,110.26,0,0,0-7,10.92c-.14.27.27.29.38.11,1.93-3.3,4.15-6.39,6.21-9.57S57,167.32,60,165.12c1.65-.07,3.3-.11,4.93-.13a.21.21,0,0,0,.25,0c1.55,0,3.1,0,4.62,0C69.91,165,70.08,164.64,69.87,164.63Z"/><g class="cls-10"><path class="cls-5" d="M77.12,213.43c-.39-1.39-.85-2.74-1.3-4.1-.27-.79-.33-1.83-.93-2.38,0,0,0,0-.06,0,1-2.75,1.8-5.53,2.53-8.37h0a.16.16,0,0,0,.06-.24c.4-1.58.77-3.18,1.1-4.8,0-.2-.24-.1-.28,0-.44,1.63-.89,3.24-1.34,4.85a.48.48,0,0,0-.11.09c-6,2.37-12.4,5.23-17,10.42-.22.26,0,.44.25.26a48.6,48.6,0,0,1,8.76-6.5c2.54-1.42,5.21-2.5,7.81-3.77a.23.23,0,0,0,.09.07c-.69,2.4-1.41,4.78-2.2,7.14-1.19,1-2.7,1.59-3.92,2.48s-2.13,1.73-3.18,2.63a32,32,0,0,0-6.76,7.4c-.18.3.2.36.35.16a48.43,48.43,0,0,1,6.73-7.25c1.33-1.16,2.66-2.3,4.07-3.31.78-.55,1.74-1,2.53-1.57-.43,1.26-.87,2.51-1.35,3.76-2.07,5.38-5.23,9.87-7.8,14.9-.13.25.25.26.36.1,1.44-2.3,2.86-4.64,4.19-7a38.9,38.9,0,0,1-.58,8.2c0,.31.4.18.44,0a32.72,32.72,0,0,0,.51-8.78s0,0,0,0a65.23,65.23,0,0,0,3.4-7.22q.62-1.58,1.17-3.15c.2.5.72,2.23.72,2.24.35,1.14.73,2.26,1,3.41a29.88,29.88,0,0,1,1.09,7.6c0,.27.44.11.45-.11A22,22,0,0,0,77.12,213.43Z"/><path class="cls-5" d="M81.29,210.77c-.08-5.28-1.46-9.81-2.86-14.75-.05-.18-.39,0-.35.17,1.29,5,2.49,9.53,2.75,14.75C80.84,211.24,81.3,211,81.29,210.77Z"/></g><path class="cls-7" d="M106.69,206.07c-1.31-1.94-3-4.37-5.25-4.62-.15-.88-.32-1.76-.53-2.63a43.69,43.69,0,0,0-2.62-8.09c-.73-1.61-1.57-3.13-2.38-4.67,2.29.7,4.27,2.31,6.25,3.81s3.2,3.55,4.87,5.34c.13.14.48-.09.36-.28a20.48,20.48,0,0,0-5.29-5.87c-2-1.49-4-3-6.41-3.41q-.47-.92-.9-1.83l0,0c.12-.14,0-.24-.14-.22-.17-.35-.34-.7-.49-1.07-.07-.17-.38,0-.31.2.15.4.31.78.47,1.17-4.87,5.28-7.28,13-8.87,20.39-.08.36.45.19.52-.07,2-7.35,3.91-14.3,8.49-20,.23.54.47,1.06.71,1.59a.14.14,0,0,0,0,.06c1.17,2.55,2.43,5,3.47,7.59a39.8,39.8,0,0,0-4.34,14.39c0,.33.4.17.45-.06.53-2.23.79-4.51,1.4-6.73a57.6,57.6,0,0,1,2.68-7.1,28.91,28.91,0,0,1,1.49,5.09c.16.83.29,1.66.41,2.49-.09.1-.1.24,0,.28.28,2,.47,4.07.61,6.11-.51,1-.94,2-1.36,3A10.82,10.82,0,0,0,99,214.15c0,.35.44.2.49-.06a21.31,21.31,0,0,1,2-5.53c.22,3.39.36,6.78.71,10.2,0,.29.45.08.45-.16a124.56,124.56,0,0,0-1.12-16.72c1.93.45,3.51,2.91,4.75,4.53C106.4,206.6,106.83,206.28,106.69,206.07Z"/><path class="cls-12" d="M365.14,124.91c-7-3.64-13.9-7.6-20.87-11.41-6.73-3.67-13.92-5.93-21.11-8s-14.53-4-21.77-6.16c-3.65-1.09-7.37-1.76-11-2.83-3.24-1-7.23-1.92-10.24-3.54-.35-.19-.68-.16-.25.14,5.32,3.74,11.85,5.48,17.83,7.08,7.33,2,14.5,4.55,21.86,6.35a92.9,92.9,0,0,1,22.2,8.23,173.46,173.46,0,0,0,23.77,10.34C366.37,125.39,366.28,125.51,365.14,124.91Z"/><path class="cls-12" d="M400.9,156.08A117.8,117.8,0,0,0,375,144.23c-9.34-3.06-18.31-9-26.3-15.38-3.29-2.62-6.55-5.07-10-7.48s-6.85-5.51-10.66-7.45a46.52,46.52,0,0,0-10.86-3.67c-3.74-.86-7.19-.45-10.9-.61-.56,0-.82.28,0,.37,3.14.37,5.76,1,8.92,1.52A42.79,42.79,0,0,1,328,116.09c3.69,2,7,5.31,10.46,7.72,4.15,2.85,7.95,6.22,12,9.19,7.27,5.3,14.92,10.34,23.19,13.07,8.72,2.88,17.61,5.55,25.89,9.94C400.4,156.43,401.89,156.72,400.9,156.08Z"/><path class="cls-12" d="M147.35,141.36c-6.51,6-14.22,9.53-22.34,11.76-3.84,1-7.74,1.81-11.43,3.45a29.23,29.23,0,0,0-4.44,3c-.82.58-1.75,1.65-2.67,1.92-.54.16-.79,1.21,0,1.11a2.59,2.59,0,0,0,1.64-.82,23.08,23.08,0,0,1,5.66-3.79c4.14-1.77,8.56-2.5,12.84-3.66a45.21,45.21,0,0,0,21-13.18C148.4,140.24,148.1,140.67,147.35,141.36Z"/><path class="cls-12" d="M73.19,78.07A50.81,50.81,0,0,0,62.78,75.3c-3.33-.46-6.77.8-10.08.77-.54,0-1.1.74-.3.79,2.81.16,5.59-.29,8.42-.12,3.87.24,7.66,1.62,11.4,2.72C72.87,79.65,74.08,78.4,73.19,78.07Z"/><path class="cls-13" d="M69.49,77.92c-.08.06-3.31,2.77-2.7,3.17a4.64,4.64,0,0,1,.86.8c1.13,1.29,2.74,4.78,4.36,5.17,4.15,1,8.57-2.86,12.69-3.26.43,0-.24.75-.42.81-2.51.89-6.7,4.44-3,6.69A10.43,10.43,0,0,0,84,92.63c2.57.68,5.19-.21,7.71-.79.54-.12-.09.72-.33.8-2.81.93-6.17,3-4.29,6.86.8,1.64,1.85,3.38,3.56,3.73,2.82.58,5.61-.85,8.42-1.11.22,0,.13.27,0,.39-.47.8-.69,1.73-1.16,2.51,0,0,1.85,0,2,0a41.42,41.42,0,0,1,4.72.22c.1,0,.17.06.14.2-.93,4-1,8.12,2.83,9.9,1.38.64,3.43,1.39,4.91.83,1.64-.63,2.77-2.49,3.89-3.93.2-.25.89-.51.54.07-.46.76-3.12,4.86-1.83,6a5.79,5.79,0,0,0,2.56,1.63c2.35.42,4.14-2.12,5.72-3.8.14-.14.71-.4.51.07-3.67,8.64,11,14.77,15.53,9.3.11-.12.45-.49.61-.29,1.53,1.9,4,2.19,5.32,4.38,1.08,1.79-.81,5-.11,7,2.1,5.95,10,7.58,13.13,1.9.08-.15.73-.74.7-.25a4.18,4.18,0,0,0,.71,3.34c.85,1.31,1.72,2.59,2.65,3.83.49-1.22,1.08-2.38,1.49-3.65.05-.16.72-.84.76-.44A26.87,26.87,0,0,0,165.9,146c.1.35,2.91-1.66,3.21-1.84,3.23-1.94,6.59-3.54,9.78-5.58.1-.07.38-.13.32.12-.78,3.22-2,6.92,1.87,7.59,4.86.82,6.6-4.49,8.91-8.39.08-.12.82-.71.71-.24-.8,3.21.36,6.55,3.26,7.51,1.18.39,3.17.64,4-.81.9-1.62.5-3.59,0-5.29-.08-.32.69-1,.8-.61,1.42,5.64,7.22,7.19,11.64,6.95,3.9-.21,11.82-1.92,10.88-8.31,0-.28.61-1,.78-.69a41.54,41.54,0,0,1,2.2,4c1.4-1.72,2.63-3.62,4-5.41.05-.07.61-.57.63-.22a43.46,43.46,0,0,1-.35,6.35c-.18,2,.15,3.51,2.15,3.51,2.47,0,7.77-.26,9-3.28.88-2.19.88-4.79,1-7.16,0-.29.8-.86.79-.53-.06,6.93,12.5,1.64,10-5.48-.1-.28.57-.92.77-.68.83,1,1.76,1.82,2.62,2.76a31,31,0,0,0,1.37-3.23c.06-.2.65-1,.79-.54a9.36,9.36,0,0,0,.93,2c.38-.79.81-1.55,1.13-2.41.08-.23.5-.71.73-.5,1.5,1.33,2.91,2,4.63.56,1.21-1,3.85-2.82,4-4.59.2-2.43-1.53-4.92-2.44-7-.13-.29.46-.94.7-.78,2.33,1.48,3.9,3.86,5.43,6.34a34.14,34.14,0,0,0,2.5,3.8c.62.76,3.08-3.39,3.23-3.72,2-4.7-2.82-9.7-4.75-13.39-.14-.27.27-.65.44-.73,4.11-2,3.34-6.91,1.72-10.45a9.2,9.2,0,0,1-.37-6.56,2.58,2.58,0,0,1,.08-.26A50.81,50.81,0,0,1,264.65,82c-7.45-6.43-149.07,2.23-171.82-1.31-8.13-1.5-15.62-2.79-21.94-3.84C70.42,77.19,70,77.54,69.49,77.92Z"/><path class="cls-14" d="M74.72,73.36l1.51,4.69a22.57,22.57,0,0,0,11.23-3.4c-7,11.93-6.55,26.43-6.55,26.43l3.32,2.84s3.38-9.7,8.61-12.94c-4.65,9.9-5.15,15.79-5.15,15.79l2.57,2.54s6.32-11.58,12.52-12.56c-8.89,9-10.78,16.58-10.78,16.58L94.44,116s6.78-4.74,9.91-5c-8.48,7.56-9.89,14.28-9.89,14.28L99.3,129s8.64-10,16.67-11.21c-6.66,8.49-6.8,9.8-6.8,9.8l3.46,2.84s5.41-8.13,10.84-8.27c-7.45,9.16-7.2,14-7.2,14l5.43,2.46s9.68-7.1,11.76-10.26c-1.6,4.94-2.8,5.78-2.8,5.78l3.07,1.88,7.34-7.53s-3.59,7.75-1.65,15c3.56,1,4.29,1.19,4.29,1.19s5.21-9.92,8.94-12.47c-1.53,8.2-2.89,10.19-2.89,10.19l3.2,1.71s8.1-9.67,7.87-9.18-1.56,8,.19,12.22c8.23.6,9.27.9,9.27.9s3.09-9.7,6.78-12.57c-1.58,6.4-1.6,7.54-1.6,7.54l4.12,1,4.93-7.3s-2.18,6.25,2.26,15.42c7.05.31,8.07.44,8.07.44s-.6-10.74,2.34-15.22c-.52,8.33-.59,11.59-.59,11.59l1.36.61,5.3-11.71-1.07,8.5,1.95.77s3.82-6.95,6-10.92c-3,9.37-5,12.2-5,12.2l4.16,1.35s6-9.13,8-14.72a35.18,35.18,0,0,1-.22,8.48s3.93.55,4.32.22,3-8.4,3.88-14.29a28.37,28.37,0,0,0,7.44,13l1.66-.54s-2.43-7.76-2.29-13c2.68,6.13,10,8.54,10,8.54l4-1.09s-4.71-5.09-6.21-8.31a86,86,0,0,1,8.58,7.76l6.82-3.11-6-11.74,6.82,7.31,5-2.57-.85-11.72s5.85,7.67,6.87,14.33c4.89.19,5.69-.32,5.69-.32s-1.07-13.66-2.9-20c4.65,4.6,6.15,7.82,6.15,7.82l3.66-1.89s-3.35-7.08-5.8-9.79l5.52,4.58a11.72,11.72,0,0,1,1.46-1c.41-.17-2.53-6.12-5-9.32,5.37,3.28,6,7.34,6,7.34l3.2-.9s-.52-7.32-3.18-12a22.74,22.74,0,0,1,4.66,8.52l3.75-1.08s-2.25-10.05-6.5-14.82c7,2.58,15.08,8.24,15.08,8.24l1.65-4.61s-10.79-5.59-15.23-12.15l7.18,5.35,1.08-5.74a59.33,59.33,0,0,0-8.87-10.36,15.89,15.89,0,0,0,1.07-4.59s-9.17-4-13.79-10.88c6.33,4.23,6.9,4.22,6.9,4.22l-.23-3.42s-12.17-14.35-27-17.54a7.4,7.4,0,0,1,3.57-.1l-.07-3.25s-14.65-8.26-30.72-7.18c4.8-3.22,5.11-4.37,5.11-4.37l-3.84-2.35s-12.57,5.56-22.58,5.66a41.71,41.71,0,0,1,10.87-8l-3.79-3.16S196,13.24,190.56,18.27c3.11-5.62,5.37-7.15,5.37-7.15l-5.57-2.46s-11.3,4.05-18.42,12.23c1.93-8.53,3.93-11.19,3.93-11.19l-2.23-.76s-6.32,3.76-7.16,14.38a28.59,28.59,0,0,0-10.66-9.66l-2.36,2s4.41,2.32,5.45,6.53c-11-5.41-17.48-6.54-17.48-6.54l-3.05,3.5s5.21.52,7.41,4.86c-11.57.31-17.69-2-20.75-3.69l-1.62,3.47s3.77,3,6.28,3.75c-7.64-.45-23.85.63-30.63,9.29l1.45,2.73a11.73,11.73,0,0,1,4.73-1.27S93,43.2,87.11,55.75l1.16,1.44a18.33,18.33,0,0,1,4.35-2.08,36.49,36.49,0,0,1-10.71,8.12L82.07,66s5.73-1.29,9.05-3.66C86.86,69.13,82.13,74.31,74.72,73.36Z"/><path class="cls-14" d="M285.7,61.72l-.11,0-1,4.64A15.89,15.89,0,0,0,285.7,61.72Z"/><path class="cls-14" d="M90.37,72a7.07,7.07,0,0,0,1.24-2.88C91.15,70.07,90.74,71,90.37,72Z"/><path class="cls-15" d="M285.24,77.06l7.18,5.35,1.08-5.74a59.33,59.33,0,0,0-8.87-10.36L272,59.79l8.3,8.46-10.23-2.91,7.82,6.44-1.55,6.69s-10.42-4.64-23.25,5c3.65-2.37,15.66-4.63,15.66-4.63l1.8,3.48s-1.75-.76-6.26,2.9c3.47,0,7.86,6.08,7.86,6.08l-5,.43a16.79,16.79,0,0,0-7.67-5l3,6.57-2.15,1.21L256.29,90l5.77,13.15-4.31,2.43L249.58,96l4.62,14.35L250.69,113l-5.51-10.84,2.4,15L244,119l-2.53-4.57-.89,8.13-2-1.69c.41-10.13-7.64-18.59-7.64-18.59l2.32,9.48L229.85,113,221,106.27l5.74,13.13-5.77.46-7-15.14.85,10.1-1.77.05-5.13-9.7,3,15.83-2.75.36-5.61-13.77,1.37,9.89-1.59,1-1.93-5.32-.34,10.8-3.33-1s-.32-6.82-.48-17.52c-2.44,14.82-13,30.58-13,30.58l-4.46,1s4-20.5,4.16-21.15-6.18,14.92-6.18,14.92l-4.44,1.2-5.66-17.17.65,10.74-2.1-1.16-1.42-4.12-.53,6.33L161.75,128s-3.8-6.64-1.71-18.85c-3.28,4.86-9.83,18-9.83,18l-5.25-.94s-.53-4.76,5.44-19.89c-2,1.14-9,8-9,8l-3.7-.77,1.42-9.58-5,8.54-2.54-.53s-1.11-3.23,1.36-13.71c-8,1.74-20.86,13.14-20.86,13.14l-1.59-2.34s.19-3.48,7.1-13.43c-4.46,1-7.21,7.91-7.21,7.91l2.89-12.56-7.51,6.27L103,94.58l4.73-9-8,6.72L96.19,90s.9-5.66,8.13-18a198,198,0,0,0-15.11,16.9l-2.52-2.11S86.45,81.53,90.37,72a14.08,14.08,0,0,1-3.24,3.29c-6.64,11.81-6.22,25.84-6.22,25.84l3.32,2.84s3.38-9.7,8.61-12.94c-4.65,9.9-5.15,15.79-5.15,15.79l2.57,2.54s6.32-11.58,12.52-12.56c-8.89,9-10.78,16.58-10.78,16.58L94.44,116s6.78-4.74,9.91-5c-8.48,7.56-9.89,14.28-9.89,14.28L99.3,129s8.64-10,16.67-11.21c-6.66,8.49-6.8,9.8-6.8,9.8l3.46,2.84s5.41-8.13,10.84-8.27c-7.45,9.16-7.2,14-7.2,14l5.43,2.46s9.68-7.1,11.76-10.26c-1.6,4.94-2.8,5.78-2.8,5.78l3.07,1.88,7.34-7.53s-3.59,7.75-1.65,15c3.56,1,4.29,1.19,4.29,1.19s5.21-9.92,8.94-12.47c-1.53,8.2-2.89,10.19-2.89,10.19l3.2,1.71s8.1-9.67,7.87-9.18-1.56,8,.19,12.22c8.23.6,9.27.9,9.27.9s3.09-9.7,6.78-12.57c-1.58,6.4-1.6,7.54-1.6,7.54l4.12,1,4.93-7.3s-2.18,6.25,2.26,15.42c7.05.31,8.07.44,8.07.44s-.6-10.74,2.34-15.22c-.52,8.33-.59,11.59-.59,11.59l1.36.61,5.3-11.71-1.07,8.5,1.95.77s3.82-6.95,6-10.92c-3,9.37-5,12.2-5,12.2l4.16,1.35s6-9.13,8-14.72a35.18,35.18,0,0,1-.22,8.48s3.93.55,4.32.22,3-8.4,3.88-14.29a28.37,28.37,0,0,0,7.44,13l1.66-.54s-2.43-7.76-2.29-13c2.68,6.13,10,8.54,10,8.54l4-1.09s-4.71-5.09-6.21-8.31a86,86,0,0,1,8.58,7.76l6.82-3.11-6-11.74,6.82,7.31,5-2.57-.85-11.72s5.85,7.67,6.87,14.33c4.89.19,5.69-.32,5.69-.32s-1.07-13.66-2.9-20c4.65,4.6,6.15,7.82,6.15,7.82l3.66-1.89s-3.35-7.08-5.8-9.79l5.52,4.58a11.72,11.72,0,0,1,1.46-1c.41-.17-2.53-6.12-5-9.32,5.37,3.28,6,7.34,6,7.34l3.2-.9s-.52-7.32-3.18-12a22.74,22.74,0,0,1,4.66,8.52l3.75-1.08s-2.25-10.05-6.5-14.82c7,2.58,15.08,8.24,15.08,8.24l1.65-4.61S289.68,83.62,285.24,77.06Z"/><path class="cls-16" d="M250.47,55.08a5.67,5.67,0,0,0-3.34-.49c-.83.11-1.66.25-2.48.4-1.23.22-.33-.48,0-1.31.6-1.4.72-4.6-1.35-4a11.59,11.59,0,0,0-1.58.59c-1.63.72-.63-2.11-.57-2.58a3.83,3.83,0,0,0-.64-2.62c-2.21-2-4.95-.44-7.12.19-4.71,1.36-.63-3-2.57-5.27-1.42-1.64-7.44,3-7.54.8s-.74-4.81-2.86-3.52a12.75,12.75,0,0,0-1.84,1.22l-.88.77a2.46,2.46,0,0,1-3.07,1.3c.29-1.48,1.4-3.05,1.32-4.71-.11-2.25-1.63-2.45-2.86-1.5A21.08,21.08,0,0,0,211,36.2c1.13-1.13-4,3.82-2.77.06a8.48,8.48,0,0,0,.76-3.82c0-.23-.21-.45-.39-.45-2.09,0-3.57,1.8-5.11,3.26-1.27,1.21-2,1.33-1.22-1.3a6.7,6.7,0,0,0,.38-2.79c-.14-1.76-2.14-.82-2.59-.39a5.75,5.75,0,0,0-.78.78,27.67,27.67,0,0,1-3.58,2.83A3.25,3.25,0,0,0,196,32.3a.51.51,0,0,0-.24-.38c-1.63-1.09-3.73,1.46-4.81,2.48s-4.73,4.68-3.76.93a11.22,11.22,0,0,0,.61-3.56c-.48-5.74-8,5.07-8.62,5.76-.59,1.09-1.24.87-2-.66,0-1.4.51-2.73.64-4.11.09-1,.57-3,.08-4.07-1.1-2.33-3.08,0-4.07.95a21,21,0,0,0-2.94,4.14c-.69,1.1-1.41,2.13-2.18,3.13-.06.07-3,3.06-2.82,2.21.51-2.71,1.85-5.56,1.3-8.56,0-.22-.18-.44-.37-.43-2.23.09-3.26,3-4.32,5.11-.38.75-2.53,6.1-3,2.53A28.38,28.38,0,0,0,158,30.13a.4.4,0,0,0-.47-.26c-2.1.38-2.18,6.61-2.79,9.81-.88-2.35-.15-6.16-1.68-8.52-.32-.49-.82.21-.9.53-.52,2.14-.28,4.46-.45,6.72-.31,4.39-.92-.38-1.09-2.37-.06-.75-.81-.29-.94.06-.31.9-2.51,7.81-3.56,6-.71-1.18-.49-3.25-1.07-4.61a.38.38,0,0,0-.57-.19c-1,.53-1.46,1.7-1.94,3-.81,2.14-.46-.81-.43-1.51a3.59,3.59,0,0,0-.62-2.17c-.22-.41-.58-.21-.76.05-.89,1.27-1.22,3-1.76,4.6a5.46,5.46,0,0,0-.81-3.7c-.11-.18-.32-.11-.43-.06-2.44,1-4.2,4.36-5.71,6.8-.08.14-2.39,5.25-2.48,2.39,0-1.51-.28-3-.46-4.54,0-.42-.42-.34-.59-.2-3.69,3.2-6.26,8-9.77,11.4,0,0,0,.06-.06.09a.37.37,0,0,0-.3-.13H118a1.08,1.08,0,0,0-.69,1.64c8.22,10.65,17.78,15.74,28.33,20.19a139,139,0,0,0,14.29,5.34c6.17,1.82,12,.22,18.14,1.12,2.77.41,5.58,1.36,8.34,1.28s5.35-.65,8.05-.7c5.82-.12,11.63.08,17.36-.76,10.49-1.53,20.68-7.64,30.06-12.8,3.27-1.8,12.62-7.5,14.88-11C257.52,56.54,252.65,56.15,250.47,55.08Z"/><g class="cls-17"><path class="cls-18" d="M171.65,84c-3.43,4.61-5.13,10.48-6,16.56-.32,2.35,2.72,1.38,3-.19,1.06-5.12,1.9-10.39,4.72-14.55C174.6,84.12,172.91,82.32,171.65,84Z"/><path class="cls-18" d="M178.15,84.86c-3.18,2.89-4.7,7.61-5.77,12-1.25,5.14-2.2,10.37-1.56,15.91.23,2,2.59.25,2.68-1,.59-8.33.75-19.16,5.68-25.51C179.89,85.44,179.13,84,178.15,84.86Z"/><path class="cls-18" d="M203,84.84c-.88-.91-2.31,1-1.51,1.93,3.15,3.8,4.06,9.5,5.18,14.19.45,1.87,2.58.17,2.38-1.21C208.37,94.83,206.5,88.46,203,84.84Z"/><path class="cls-18" d="M224.29,95.87A61,61,0,0,0,216.81,85c-1-1.22-2.9,1.17-1.9,2.43A111.26,111.26,0,0,1,222,97.75C223,99.25,225,97.23,224.29,95.87Z"/><path class="cls-18" d="M137.36,76.46a46.5,46.5,0,0,0-7.07,11.29c-.65,1.42.83,2.32,1.64,1.17a44.54,44.54,0,0,0,3.23-5.48,51.92,51.92,0,0,1,3.56-5.59C139.63,76.54,138.39,75.26,137.36,76.46Z"/><path class="cls-18" d="M109.32,69.53a28.78,28.78,0,0,0-3.83,4.82,37.65,37.65,0,0,0-2.31,5.53c-.63,1.63,1.55,1.76,2.06.55.67-1.55,1.31-3.1,2-4.62a30.64,30.64,0,0,1,3.38-5C111.52,69.62,110.32,68.41,109.32,69.53Z"/><path class="cls-18" d="M240.51,80.58c-.9-1.34-2.83.55-2.08,1.73,3.11,4.93,3.49,10.21,4.89,15.7.45,1.78,2.23.06,2.17-1.1A32.73,32.73,0,0,0,240.51,80.58Z"/><path class="cls-18" d="M123.55,37.29A33.4,33.4,0,0,0,104.29,53.5c-.77,1.4.88,2.37,1.68,1.19,4.7-7,10.65-11,17.72-14.58C124.67,39.61,125.21,36.74,123.55,37.29Z"/><path class="cls-18" d="M131,30.82c-10.85-3.29-20.79-3-28.95,4.86-1,1-.38,3.13.94,2,7.89-6.94,17-6.13,27-4.26C131,33.58,132.23,31.2,131,30.82Z"/><path class="cls-18" d="M101.12,48.57c-5.6,6.67-12.31,10.57-20,13.69-1,.4-1.41,2.87.13,2.56,8.79-1.76,16-7.24,21.16-15C103.19,48.64,102.06,47.45,101.12,48.57Z"/><path class="cls-18" d="M99.15,58c-4.2,7.5-11.86,11.35-18.79,15-.91.49-1.46,3.26.14,2.71,8.11-2.79,16.34-8.42,20.36-17C101.61,57.23,99.83,56.79,99.15,58Z"/><path class="cls-18" d="M110.44,57.6A33.4,33.4,0,0,0,98,67.9a63.65,63.65,0,0,0-8.6,16.19c-.65,1.85,1.64,1.79,2.24.6A133.25,133.25,0,0,1,100,70c3-4.55,7-7.25,11-10.52C111.77,58.85,111.64,57,110.44,57.6Z"/><path class="cls-18" d="M261.33,50c-3.2-2-7.52-1.84-10.62-.5-.8.35-1.17,2.51.11,2.16,3.06-.82,6.4.16,9.53.89C261.39,52.8,262.47,50.74,261.33,50Z"/><path class="cls-18" d="M273.26,47.8a45.51,45.51,0,0,0-11.73-6.39c-3.59-1.48-7-3-10.71-2.7-.76,0-1.44,1.85-.34,2,7.14,1.05,14.72,5.67,21.13,9.69C272.7,51.09,274.37,48.69,273.26,47.8Z"/><path class="cls-18" d="M267,68.32a20.49,20.49,0,0,0-5.53-2.73c-2-.64-3.84-.29-5.79-.66-.88-.16-2,1.94-.87,2.25,1.8.51,3.53.39,5.33,1.07s3.66,1.91,5.53,2.73C266.9,71.52,268.3,69.25,267,68.32Z"/><path class="cls-18" d="M273.33,73.61C265.9,70.93,254.26,71,248.22,76c-1.21,1-.51,3.19,1,2.13,3.18-2.19,8.28-2.27,12-2.43a84.07,84.07,0,0,1,10.94.77C273.27,76.61,274.82,74.15,273.33,73.61Z"/><path class="cls-18" d="M166.78,83.49c-5.19,3.34-8.49,8.87-11.24,14.74-3.14,6.71-5.91,14.35-6.71,22.13-.22,2.19,2.56,1.31,2.82-.17,2.34-13.51,7.45-25.75,15.91-35.1C168.14,84.45,167.74,82.87,166.78,83.49Z"/><path class="cls-18" d="M194.81,84.4c-.24-1.59-2.07-.23-2.12.76a118.06,118.06,0,0,1-10,42.7c-1,2.21,1.34,3.69,2.58,1.82,4-6,5.73-14.2,7.3-21.57S196,92.21,194.81,84.4Z"/><path class="cls-18" d="M242.19,109.48C238.57,98.32,229.76,88.11,221.38,81c-.87-.74-2.14.87-1.38,1.77,3.8,4.5,7.6,9,11.12,13.75s5.85,9.95,8.33,15.26C240.4,113.79,242.73,111.12,242.19,109.48Z"/><path class="cls-18" d="M246.78,27.65c-8.91-2.06-17-3.62-24.76,1.29-.92.58-1.12,2.74.36,2.13a26.72,26.72,0,0,1,11.08-2.28c4.09.13,8.3,1.46,12.38,2.28C247.37,31.38,248.76,28.11,246.78,27.65Z"/><path class="cls-18" d="M223.82,17.43c-6.59,3.83-13,6.75-20.75,7.42-1,.08-1.8,2.59-.43,2.57,8.25-.16,15.26-2.79,22-7.41C225.77,19.23,225.4,16.51,223.82,17.43Z"/><path class="cls-18" d="M210.5,13.22c-6.54,2.52-12.91,5.33-17.88,10.7-.89.95.14,2.69,1.14,1.66,4.83-4.95,11.09-7.21,17.18-9.81C212.22,15.23,212.23,12.55,210.5,13.22Z"/><path class="cls-18" d="M191.78,9.3a43.11,43.11,0,0,0-11.42,12.33.91.91,0,1,0,1.48,1.05c3.1-4.47,6.94-7.9,10.89-11.37C193.84,10.34,193.21,8.28,191.78,9.3Z"/><path class="cls-18" d="M190.44,84c-.43-1.34-2.42.27-2.1,1.4,1.11,4-.17,8.9-.71,12.67a91.57,91.57,0,0,1-3.43,13.8c-.49,1.59,1.49,1.68,1.94.52A63.92,63.92,0,0,0,190,99.05C190.67,94.52,191.94,88.74,190.44,84Z"/><path class="cls-18" d="M142.52,77.3c-6.55,6.62-10.63,18.92-9.38,29.44.22,1.86,2.4.24,2.47-.89.58-9.69,2.2-20,7.91-27.12C144.21,77.86,143.42,76.39,142.52,77.3Z"/><path class="cls-18" d="M164.3,22.58a22.56,22.56,0,0,0-3.74-4.89A28.33,28.33,0,0,0,156,14.34c-.74-.49-1.88,1.16-1.14,1.8,1.39,1.21,2.83,2.26,4.14,3.61a49.49,49.49,0,0,1,3.69,4.55C163.35,25.23,164.82,23.51,164.3,22.58Z"/><path class="cls-18" d="M173.71,10.17a34.62,34.62,0,0,0-5.29,8c-1.21,2.73-2.67,5.92-2.65,9.13,0,1.56,1.74.67,1.82-.39.21-2.67,1.8-5.47,2.84-7.81a49.12,49.12,0,0,1,4.71-7.53C176.07,10.25,174.77,8.88,173.71,10.17Z"/><path class="cls-18" d="M117.64,72a20.76,20.76,0,0,0-5.31,4.1c-1.79,1.72-3.66,3.51-4.53,6.06a1.37,1.37,0,0,0,2.2,1.57c3-2.91,5.16-6.67,8.41-9.26C119.43,73.61,119.24,71.16,117.64,72Z"/></g><path class="cls-19" d="M117.52,78.35c-2.47,1.09-5.12,2.18-6.91,4.41a7,7,0,0,0-.59,1c-.53,1-1.07.66-1.93.19-2.38-1.28,1.08-4.69,1.84-5.75.23-.32-.11-.67-.34-.35a9,9,0,0,1-2.33,1.75,17,17,0,0,0-2.51,2.15c-.18.18-1.33,2-1.88,1.31s-2.06-1.24-1.46-2.5a42,42,0,0,1,3.16-6.42,30.84,30.84,0,0,1,4.72-5.55c.17-.14.06-.47-.14-.3A30.07,30.07,0,0,0,103.47,75,15,15,0,0,0,101.84,78c-.32.88-1.44,2.56-1.27,3.6s1.26,1.23,1.91,1.93c.42.43.72.71,1.2.31,1-.84,1.71-2.12,2.73-3a16.66,16.66,0,0,1,1.85-1.25,13.11,13.11,0,0,0-1.78,3.07c-.5,1.34,1.44,1.87,2.17,2.35,1,.7,1.42-.15,1.81-1.08,1.18-2.86,4.75-3.93,7.15-5.12C117.84,78.72,117.85,78.2,117.52,78.35Z"/><path class="cls-19" d="M136.47,81.29c-1.09,1-2.16,2-3.16,3.1-.33.35-2.67,3.32-1.67.85a22,22,0,0,1,2.75-4.49c.48-.65,1.33-1.27,1.46-2.18,0-.18-.21-.1-.24,0-.15.65-.82,1-1.17,1.5-.49.72-1.08,1.35-1.53,2.12a16.61,16.61,0,0,0-2.11,4.31c0,.1,0,.28.14.27.84,0,1,.27,1.51-.65,1-1.8,2.8-3.08,4.19-4.49C136.82,81.47,136.7,81.07,136.47,81.29Z"/><path class="cls-19" d="M137.52,104.91c-1,1.78-2.31,3.16-3.18,5a10.2,10.2,0,0,0-.69,2.13c-.23,1-.34.53-1.2.46s-.84-.32-.89-1.26c-.08-1.43-.13-2.84-.09-4.26a27.08,27.08,0,0,1,1.07-7.78c.07-.21-.2-.22-.26-.07a20.35,20.35,0,0,0-1.19,6.41,27.34,27.34,0,0,0,.15,7.39.18.18,0,0,0,.22.15c1.29-.19,2.37,1.21,2.66-.54.45-2.68,1.87-4.33,3.15-6.34a16.17,16.17,0,0,0,0,5.85c.07.37.53,0,.49-.25A18.64,18.64,0,0,1,138,105C138.06,104.63,137.66,104.67,137.52,104.91Z"/><path class="cls-19" d="M173.23,89.17a16.51,16.51,0,0,0-3.66,8.39c-.07.62-1.59-.85-1.8-1-.49-.4.8-3.65,1-4.06.6-1.53,1.58-5.07,3.22-5.44.13,0,.2-.29,0-.28-1.24.11-2.05,1.89-2.53,3a29.81,29.81,0,0,0-2.51,6.64.31.31,0,0,0,0,.26,25.35,25.35,0,0,0,2.54,2c.17.1.34-.13.38-.26.52-1.48.45-3.15,1-4.65a21.93,21.93,0,0,1,2.56-4.29C173.71,89.19,173.43,88.9,173.23,89.17Z"/><path class="cls-19" d="M166.62,114.84c0-.33-.45,0-.43.22.14,2.65.43,5.3.72,8a2.37,2.37,0,0,1-.4,2.12c-.41,0-1.21,0-1.34-.71-.21-1.1-.3-2.22-.5-3.32-.06-.31-.38-.13-.46,0a9.63,9.63,0,0,0-1,2.78,6,6,0,0,0-.11,1.41c0,.44.07.87.14,1.31-1,.69-1.61.6-1.94-.29a17.87,17.87,0,0,1-2-4.69,20.17,20.17,0,0,1-.11-5.8c0-.23-.25-.1-.27.05a17.05,17.05,0,0,0,.25,7.24,13.75,13.75,0,0,0,2.63,4.83,1.21,1.21,0,0,0,1.89-.23,2,2,0,0,0,.07-1.36,8,8,0,0,1,.55-4.19c.07,1.13.12,2.76.67,3.31a2.36,2.36,0,0,0,2.34.08c.69-.58.24-2,.11-2.81C167,120.15,166.82,117.47,166.62,114.84Z"/><path class="cls-19" d="M202.54,107.59c0-.38-.43-.17-.44.09a35.58,35.58,0,0,0,1,8.16c.2,1,.62,2.32-.82,2.66-.52.13-.43-.24-.52-.7a14.1,14.1,0,0,0-1.54-3.35c-.15-.26-.47,0-.46.24,0,2.33.33,4.68.31,7,0,.75-.13,1.53-.06,2.28.12,1.18-1.48.15-2-.11s-1.47-.2-1.31-.87a14.68,14.68,0,0,0,.35-2.59,40.62,40.62,0,0,0-.56-7.91c0-.21-.27,0-.26.13.26,3.77.74,7.48-.13,11.05,0,.12,0,.28.14.29,1,.1,3.82,2.31,4.25.67a16.85,16.85,0,0,0,.08-3.7c0-1.69-.17-3.41-.26-5.12a16.46,16.46,0,0,1,1.2,3.24c0,.13.12.2.23.17.86-.21,2.24-.39,2.15-1.75C203.68,114.17,202.64,110.92,202.54,107.59Z"/><path class="cls-19" d="M208.59,95.48c-.58-1.23-1.22-2.43-1.82-3.65-.31-.62-.6-1.54-1.26-1.75-.24-.08-.55.38-.26.53.82.41,1.5,2.5,1.92,3.31q1.2,2.37,2.27,4.83c.46,1.07-.13,1.14-.86,1.22-.9.1-1-1.75-1.19-2.4a35.61,35.61,0,0,0-1.7-4.44c-.08-.17-.31.05-.24.2.53,1.26.93,2.56,1.35,3.86a17.13,17.13,0,0,0,.81,3.09,2,2,0,0,0,2.52-.4C210.63,98.87,209,96.29,208.59,95.48Z"/><path class="cls-19" d="M225.07,113.88a46.42,46.42,0,0,0-3.4-6.62c-.16-.23-.49.09-.37.31,1.17,2.2,2.26,4.42,3.34,6.67a23.05,23.05,0,0,1,1.51,4.27c.39,1.52-1,1.9-1.88,2.27a12.81,12.81,0,0,0-2.53,1c-.27.17-.85-2.13-.79-1.92-.6-2.23-1.22-4.37-2-6.55-.07-.19-.31,0-.26.21.93,2.94,1.7,5.92,2.41,8.91a.18.18,0,0,0,.26.13c1.2-.8,2.91-.74,4-1.63.47-.38,1.4-.66,1.33-1.53A16.67,16.67,0,0,0,225.07,113.88Z"/><path class="cls-19" d="M223.43,91.47a11.47,11.47,0,0,0-2-1.81c-.72-.57-1.41-1.19-2.16-1.68-.21-.14-.51.3-.31.49,1.07,1,5,3.08,4.33,5-.62,1.71-1.74-.28-2.38-1-1-1.08-1.94-2.13-2.92-3.17-.14-.14-.37.15-.24.3,1.27,1.56,2.63,3,3.87,4.6.6.78,1.23,1.07,1.74.17C224,93.26,224.29,92.59,223.43,91.47Z"/><path class="cls-19" d="M245.62,90.33c-.07-.32-.44,0-.41.21a11.86,11.86,0,0,1-.15,4.25c-.12.52-.2,1.27-.36,1.89-.88-2.81-2-5.85-3.93-8-.12-.14-.33.14-.22.29,1.87,2.4,3,5.65,3.87,8.55.09.28.34.13.43,0a12.43,12.43,0,0,0,.79-3.19A9.49,9.49,0,0,0,245.62,90.33Z"/><path class="cls-19" d="M246.86,116.24c-.2-1.89-.52-3.73-.83-5.61-.06-.36-.48,0-.46.23.22,2.08,2,7.21-.46,7.56-.52.07-2,.58-2.24-.34a13.28,13.28,0,0,0-1-2.42c-.16-.31-.46.06-.49.24-.23,1.51-.42,3-.62,4.55-.09.72-.3,1.43-1,1.25-1.34-.33-.92-1-.79-1.94a12.83,12.83,0,0,0-1.32-7.17c-.1-.17-.34.07-.26.22a21,21,0,0,1,1,3.66c.54,1.88.07,3.56-.07,5.37a.2.2,0,0,0,.1.21c3.14,1.86,3.22-2.53,3.43-5.2.34.79.61,1.59.93,2.41a.18.18,0,0,0,.21.1c.82-.21,3.31,0,3.8-.9A3.32,3.32,0,0,0,246.86,116.24Z"/><path class="cls-19" d="M271.82,91.62a8.64,8.64,0,0,0-3.69-4.12A8.07,8.07,0,0,0,263.94,86l.49-.14a7.55,7.55,0,0,0,2.11-1.34c1.15-1,3-.63,4-1.79a.38.38,0,0,0,.07-.39c-.45-1.36-.3-2.75-.84-4.09a.2.2,0,0,0-.22-.1c-1.55.25-3.13,0-4.68.32a31.51,31.51,0,0,0-4.41,1.19c-1.27.44-2.52.93-3.74,1.47s-2.22,1.93-3.57,2.36c-.14,0-.23.39,0,.34a5.71,5.71,0,0,0,2.06-1.24,17.57,17.57,0,0,1,5.23-2.38,33.31,33.31,0,0,1,3.8-1c1.52-.34,3.08-.08,4.59-.32,1-.16.95,2.83,1.16,3.47.09.26-2.53.93-2.59,1-1.06.57-2,1.39-3,1.94-.64.32-1.28.25-1.78.79-.13.14-.16.51.1.54a9.61,9.61,0,0,1,4.63,1.23,9.35,9.35,0,0,1,3.8,3.83c-.72.15-1.61.11-2.29.3-1.11.31-1.85-1-2.6-1.86-1.53-1.69-3.29-3.42-5.42-3.63-.19,0-.46.44-.2.52,2.79.86,5.11,3.31,7,5.79a.81.81,0,0,0,.93.1c.87-.72,2.11-.33,3.09-.69A.43.43,0,0,0,271.82,91.62Z"/><path class="cls-19" d="M268.25,68.86c-2.64-.87-5.62-2.12-8.33-2.36-.24,0-.46.45-.15.53a53.67,53.67,0,0,1,5.44,1.62c.61.22,1.21.4,1.83.56s.68.9.58,1.52c-2.18-2.08-6-2.16-8.52-3-.16-.06-.36.26-.17.34,1.47.64,3,.9,4.49,1.48s3.06.74,4.17,2c.18.2.42-.12.43-.3.06-.75.3-1.42.35-2.18C268.37,69,268.34,68.89,268.25,68.86Z"/><path class="cls-19" d="M275,61.46c-.13-.12-.34.14-.21.27,1.25,1.24,3,1.58,4.46,2.4a15.61,15.61,0,0,1,4.94,3.68c.13.16.39-.14.3-.31C282.37,63.75,277.88,63.88,275,61.46Z"/><path class="cls-19" d="M261.41,51.93c-.43-1.52-.7-2.87-2.1-3.23a16.68,16.68,0,0,0-8.57.67c-.23.07-.39.66,0,.56a24.76,24.76,0,0,1,5.37-.77c1.15,0,3.43-.5,4.11.94.47,1,2,4.29-.12,3.4a5.7,5.7,0,0,0-1.6-.18,17.79,17.79,0,0,1-3.12-.7c-.15,0-.34.26-.16.33a12.32,12.32,0,0,0,3.15.87c.92.08,2.1.78,3,.59S261.56,52.46,261.41,51.93Z"/><path class="cls-19" d="M252.55,38.68a14.64,14.64,0,0,1-8.78.46c-.22-.06-.49.45-.21.56a11.92,11.92,0,0,0,5,.37,10.78,10.78,0,0,0,3.67-.65c-.09,1.09.39,2.63-.72,3-1.78.59-3.47.27-5.32.19-.19,0-.38.41-.12.44,2,.26,4,.79,5.85-.17s.2-2.19.88-3.8C252.93,38.84,252.81,38.56,252.55,38.68Z"/><path class="cls-19" d="M241.35,36.15c-1.14,0-2.3-.13-3.45-.11a13.86,13.86,0,0,0-2.65.78c-.2,0-.32.49,0,.45a20.2,20.2,0,0,1,2.95-.65c.54,0,1.08,0,1.62.08-1.5.81-2.79,2.36-2.06,4.36.11.29.49-.07.44-.3-.5-2.29,1.35-3.66,3.08-4C241.46,36.71,241.69,36.14,241.35,36.15Z"/><path class="cls-19" d="M223,28a26.19,26.19,0,0,1-3.08.78,19,19,0,0,0-2.41,1,5.67,5.67,0,0,0-2.86,3c-.11.24.16.32.26.12,1.44-2.89,4.3-3.13,6.89-3.9a8.38,8.38,0,0,0-1.34,4.17c-.05.43.47.17.51-.11.26-1.69.6-3.81,2.12-4.51C223.33,28.4,223.34,27.83,223,28Z"/><path class="cls-19" d="M141.65,35c-1-1.74-3.18-2.69-4.63-3.81a12.08,12.08,0,0,0-2.68-1.56,3.84,3.84,0,0,0-2.09-.6c-.19,0-.4.36-.22.57.63.74,1.52,1.3,2.23,2a11.45,11.45,0,0,1,2.84,4.07c.09.26.46-.06.4-.27a10.84,10.84,0,0,0-1.89-3.34,12.15,12.15,0,0,0-2.36-2.17,8.42,8.42,0,0,0,.79.35,10.92,10.92,0,0,1,3,1.85,42.61,42.61,0,0,1,4.22,3.31C141.46,35.61,141.78,35.25,141.65,35Z"/><path class="cls-19" d="M155.05,27.67a12,12,0,0,0-5.57-1.85,26.88,26.88,0,0,0-3.23-.1c-.44,0-.87,0-1.3.05a.94.94,0,0,0-.38.14.1.1,0,0,0-.08-.07.57.57,0,0,1-.18,0c-.19,0-.33.4-.11.4,3.7.1,7,.11,10.63,1.91C155,28.23,155.27,27.83,155.05,27.67Z"/><path class="cls-19" d="M114.19,47.91c-.74.61-1.59.94-2.32,1.55l-2.61,2.23a5.32,5.32,0,0,0-1,1.39,9.26,9.26,0,0,0-.51,1.05c-.44,1.07-1.17,0-1.64-.42s-2.31-1.22-1.2-2.23c.94-.86,1.65-1.95,2.62-2.78s1.59-1.82,2.4-2.64a39.5,39.5,0,0,1,3.12-2.52c.23-.19.1-.61-.19-.41a39.48,39.48,0,0,0-7,6.57c-.46.53-1.82,1.44-2,2.29s.23.95,1,1.55,2.39,2.6,3,1.12c1.41-3.16,4-4.37,6.36-6.43C114.52,48.08,114.41,47.74,114.19,47.91Z"/><path class="cls-19" d="M115.89,96.82a8.58,8.58,0,0,0-3.28,2.34,9.6,9.6,0,0,0-1.9,3.44,10.52,10.52,0,0,1-.15-4.21c.25-1.28.77-2.45,1-3.74,0-.22-.26-.13-.29,0-.3,1.46-1.12,2.79-1.25,4.33a13.44,13.44,0,0,0,.39,4.62c.09.37.43.08.5-.11,1.09-2.9,2.42-5,5.09-6.21C116.21,97.19,116.22,96.69,115.89,96.82Z"/><path class="cls-19" d="M256.6,57.32c-4,3.77-7.92,8-12.84,10.26-6.16,2.81-12.11,5.7-18.58,7.75-3,1-5.89,2.2-8.89,3.18-2.63.86-5.39.84-8.1,1.35-5.75,1.07-11.69.63-17.54,1a193.49,193.49,0,0,1-20.16.18c-3.26-.13-6.57-1.13-9.81-1.82-3.43-.72-6.85-.44-10.2-2-2.81-1.31-5.53-2.82-8.41-3.89s-5.76-1.83-8.6-3.45c-5.79-3.32-10.22-8.41-15.06-13.2-.21-.21-.56.23-.36.45,4.51,4.88,8.37,9.48,13.76,13.15a23.39,23.39,0,0,0,7.1,3.43c3.84,1,7.37,2.82,11,4.63,2.45,1.22,5.16,1.43,7.72,1.68,3.74.38,7.45,1.58,11.19,2.1s7.23,0,10.79,0c3.22,0,6.43.21,9.64,0,6.3-.4,12.64-.06,18.86-1.1,2.72-.45,5.46-.48,8.1-1.33,3.44-1.1,6.79-2.5,10.24-3.58,6.09-1.91,11.66-4.85,17.51-7.33,5.13-2.17,9.51-6.62,13.43-10.83C257.13,57.77,256.86,57.55,256.6,57.32Z"/></g></g></svg>