<svg id="Layer_1" data-name="Layer 1" xmlns="http://www.w3.org/2000/svg" xmlns:xlink="http://www.w3.org/1999/xlink" viewBox="0 0 1600 900"><defs><style>.cls-1,.cls-14,.cls-18,.cls-29{fill:none;}.cls-2{clip-path:url(#clip-path);}.cls-3{fill:url(#linear-gradient);}.cls-4{fill:url(#linear-gradient-2);}.cls-5{fill:url(#linear-gradient-3);}.cls-6{fill:url(#linear-gradient-4);}.cls-7{fill:url(#linear-gradient-5);}.cls-8{fill:url(#linear-gradient-6);}.cls-9{fill:url(#linear-gradient-7);}.cls-10{fill:url(#linear-gradient-8);}.cls-11{fill:url(#linear-gradient-9);}.cls-12{fill:url(#linear-gradient-10);}.cls-13{fill:url(#linear-gradient-11);}.cls-14,.cls-15,.cls-16,.cls-18,.cls-29{stroke-miterlimit:10;}.cls-14,.cls-29{stroke-width:3px;}.cls-14{stroke:url(#linear-gradient-12);}.cls-15{fill:#2a96d8;}.cls-15,.cls-16{stroke:#0b773c;stroke-width:0.13px;}.cls-16{fill:#4454a3;}.cls-17{fill:#009245;}.cls-18{stroke:#268e53;stroke-width:0.26px;}.cls-19{fill:url(#linear-gradient-13);}.cls-20{fill:url(#linear-gradient-14);}.cls-21{fill:url(#linear-gradient-15);}.cls-22{fill:url(#linear-gradient-16);}.cls-23{fill:#0c6032;}.cls-24{fill:url(#linear-gradient-17);}.cls-25{fill:url(#linear-gradient-18);}.cls-26{fill:url(#linear-gradient-19);}.cls-27{fill:#63b52d;}.cls-28{fill:url(#linear-gradient-20);}.cls-29{stroke:#287c4c;}.cls-30{fill:#3a7a20;}.cls-31{fill:#3dbf47;}.cls-32{fill:url(#linear-gradient-21);}.cls-33{fill:url(#linear-gradient-22);}.cls-34{fill:url(#linear-gradient-23);}.cls-35{fill:url(#linear-gradient-24);}.cls-36{fill:url(#linear-gradient-25);}.cls-37{fill:#f9e8ed;}.cls-38{fill:url(#linear-gradient-26);}.cls-39{fill:url(#linear-gradient-27);}.cls-40{fill:url(#linear-gradient-28);}.cls-41{fill:url(#linear-gradient-29);}.cls-42{fill:url(#linear-gradient-30);}.cls-43{fill:#fff;}.cls-44{fill:#faf045;}.cls-45{fill:url(#linear-gradient-31);}.cls-46{fill:url(#linear-gradient-32);}.cls-47{fill:url(#linear-gradient-33);}.cls-48{fill:#ea4bc8;}.cls-49{fill:#fce5de;}.cls-50{fill:#157c33;}.cls-51{fill:#003a17;fill-rule:evenodd;}.cls-52{fill:url(#linear-gradient-34);}.cls-53{fill:url(#linear-gradient-35);}.cls-54{fill:url(#linear-gradient-36);}.cls-55{fill:url(#linear-gradient-37);}.cls-56{fill:url(#linear-gradient-38);}.cls-57{fill:url(#linear-gradient-39);}.cls-58{fill:#143d05;}.cls-59{fill:#1f490e;}.cls-60{fill:url(#linear-gradient-40);}.cls-61{fill:url(#linear-gradient-41);}.cls-62{fill:url(#linear-gradient-42);}</style><clipPath id="clip-path"><rect class="cls-1" width="1600" height="900"/></clipPath><linearGradient id="linear-gradient" x1="2545.68" y1="1610.35" x2="3499.67" y2="520.15" gradientTransform="matrix(-1, -0.06, -0.06, 1, 3927.79, 7.93)" gradientUnits="userSpaceOnUse"><stop offset="0.14" stop-color="#21544d"/><stop offset="0.79" stop-color="#1b5243"/></linearGradient><linearGradient id="linear-gradient-2" x1="2794.06" y1="797.92" x2="2833.61" y2="797.92" gradientTransform="matrix(-0.96, -0.27, -0.27, 0.96, 3299.05, 902.18)" gradientUnits="userSpaceOnUse"><stop offset="0.04" stop-color="#043f21"/><stop offset="0.27" stop-color="#009044"/><stop offset="0.28" stop-color="#009044"/><stop offset="0.72" stop-color="#009245"/></linearGradient><linearGradient id="linear-gradient-3" x1="2796.86" y1="776.4" x2="2852.61" y2="734.36" gradientTransform="matrix(-0.96, -0.27, -0.27, 0.96, 3299.05, 902.18)" gradientUnits="userSpaceOnUse"><stop offset="0.04" stop-color="#043f21"/><stop offset="0.27" stop-color="#043f21"/><stop offset="0.31" stop-color="#035a2d"/><stop offset="0.35" stop-color="#027237"/><stop offset="0.4" stop-color="#01833e"/><stop offset="0.45" stop-color="#008d43"/><stop offset="0.52" stop-color="#009044"/><stop offset="0.52" stop-color="#009044"/><stop offset="0.72" stop-color="#009245"/></linearGradient><linearGradient id="linear-gradient-4" x1="2834.35" y1="758.65" x2="2775.47" y2="717.19" gradientTransform="matrix(-0.96, -0.27, -0.27, 0.96, 3299.05, 902.18)" gradientUnits="userSpaceOnUse"><stop offset="0.04" stop-color="#043f21"/><stop offset="0.27" stop-color="#043f21"/><stop offset="0.3" stop-color="#03562b"/><stop offset="0.34" stop-color="#026c35"/><stop offset="0.38" stop-color="#017d3c"/><stop offset="0.44" stop-color="#008941"/><stop offset="0.52" stop-color="#009044"/><stop offset="0.72" stop-color="#009245"/></linearGradient><linearGradient id="linear-gradient-5" x1="2793.62" y1="735.32" x2="2883.59" y2="673.5" xlink:href="#linear-gradient-4"/><linearGradient id="linear-gradient-6" x1="2851.63" y1="734.89" x2="2771.97" y2="672.91" xlink:href="#linear-gradient-4"/><linearGradient id="linear-gradient-7" x1="2814.82" y1="650.3" x2="2877.63" y2="650.3" xlink:href="#linear-gradient-4"/><linearGradient id="linear-gradient-8" x1="2850" y1="682.46" x2="2791.88" y2="641.83" gradientTransform="matrix(-0.96, -0.27, -0.27, 0.96, 3299.05, 902.18)" gradientUnits="userSpaceOnUse"><stop offset="0.04" stop-color="#043f21"/><stop offset="0.27" stop-color="#043f21"/><stop offset="0.3" stop-color="#034d27"/><stop offset="0.35" stop-color="#026632"/><stop offset="0.41" stop-color="#01793b"/><stop offset="0.49" stop-color="#018740"/><stop offset="0.58" stop-color="#008f44"/><stop offset="0.74" stop-color="#009145"/><stop offset="1" stop-color="#009245"/></linearGradient><linearGradient id="linear-gradient-9" x1="2810.43" y1="611.16" x2="2871.64" y2="611.16" xlink:href="#linear-gradient-4"/><linearGradient id="linear-gradient-10" x1="2869.04" y1="639.38" x2="2751.4" y2="595.42" xlink:href="#linear-gradient-4"/><linearGradient id="linear-gradient-11" x1="2802.03" y1="572.72" x2="2860.37" y2="572.72" xlink:href="#linear-gradient-4"/><linearGradient id="linear-gradient-12" x1="2803.39" y1="715.78" x2="2838.87" y2="715.78" gradientTransform="matrix(-0.96, -0.27, -0.27, 0.96, 3299.05, 902.18)" gradientUnits="userSpaceOnUse"><stop offset="0.26" stop-color="#043f21"/><stop offset="0.28" stop-color="#044725"/><stop offset="0.39" stop-color="#026230"/><stop offset="0.5" stop-color="#017739"/><stop offset="0.63" stop-color="#018640"/><stop offset="0.77" stop-color="#008f44"/><stop offset="1" stop-color="#009245"/></linearGradient><linearGradient id="linear-gradient-13" x1="4046.73" y1="987.22" x2="4035.59" y2="1113.88" gradientTransform="matrix(0.71, 0.48, -0.44, 0.65, -1886.42, -1844.51)" gradientUnits="userSpaceOnUse"><stop offset="0" stop-color="#e856c5"/><stop offset="0.13" stop-color="#e153c0"/><stop offset="0.32" stop-color="#cd4bb2"/><stop offset="0.55" stop-color="#ac3d9c"/><stop offset="0.81" stop-color="#7e2b7d"/><stop offset="0.86" stop-color="#752777"/></linearGradient><linearGradient id="linear-gradient-14" x1="4040.49" y1="1030.13" x2="4031.79" y2="1129.13" xlink:href="#linear-gradient-13"/><linearGradient id="linear-gradient-15" x1="4078.61" y1="979.31" x2="4065.13" y2="1132.69" xlink:href="#linear-gradient-13"/><linearGradient id="linear-gradient-16" x1="2321.77" y1="753.78" x2="2286.6" y2="795.98" gradientTransform="translate(-1782.91 35.21) rotate(-0.49)" xlink:href="#linear-gradient-13"/><linearGradient id="linear-gradient-17" x1="3402.56" y1="848.08" x2="3466.32" y2="848.08" gradientTransform="matrix(-1, 0.01, 0.01, 1, 3968.72, -13.72)" gradientUnits="userSpaceOnUse"><stop offset="0.01" stop-color="#21544d"/><stop offset="0.79" stop-color="#009245"/></linearGradient><linearGradient id="linear-gradient-18" x1="3496.8" y1="862.34" x2="3546.21" y2="862.34" xlink:href="#linear-gradient-17"/><linearGradient id="linear-gradient-19" x1="3466.32" y1="846.4" x2="3490.57" y2="846.4" xlink:href="#linear-gradient-17"/><linearGradient id="linear-gradient-20" x1="3697.83" y1="984.85" x2="3561.5" y2="740.47" gradientTransform="matrix(-1, 0.01, 0.01, 1, 3968.72, -13.72)" gradientUnits="userSpaceOnUse"><stop offset="0.24" stop-color="#043f21"/><stop offset="0.26" stop-color="#044725"/><stop offset="0.33" stop-color="#026230"/><stop offset="0.4" stop-color="#017739"/><stop offset="0.48" stop-color="#018640"/><stop offset="0.58" stop-color="#008f44"/><stop offset="0.72" stop-color="#009245"/></linearGradient><linearGradient id="linear-gradient-21" x1="4337.36" y1="520.39" x2="4365.37" y2="468.33" gradientTransform="matrix(-0.96, 0.27, 0.27, 0.96, 4369.87, -746.15)" gradientUnits="userSpaceOnUse"><stop offset="0.24" stop-color="#043f21"/><stop offset="0.27" stop-color="#044725"/><stop offset="0.38" stop-color="#026230"/><stop offset="0.49" stop-color="#017739"/><stop offset="0.62" stop-color="#018640"/><stop offset="0.77" stop-color="#008f44"/><stop offset="1" stop-color="#009245"/></linearGradient><linearGradient id="linear-gradient-22" x1="996.38" y1="519.34" x2="1024.39" y2="467.28" gradientTransform="translate(-753.22 713.53) rotate(-15.9)" xlink:href="#linear-gradient-21"/><linearGradient id="linear-gradient-23" x1="4339.78" y1="473.34" x2="4362.52" y2="431.06" xlink:href="#linear-gradient-21"/><linearGradient id="linear-gradient-24" x1="991.43" y1="458.97" x2="1008.26" y2="427.7" gradientTransform="translate(-753.78 713.68) rotate(-15.9)" xlink:href="#linear-gradient-21"/><linearGradient id="linear-gradient-25" x1="4277.39" y1="527.29" x2="4341.33" y2="408.44" xlink:href="#linear-gradient-21"/><linearGradient id="linear-gradient-26" x1="3682.08" y1="714.14" x2="3720.22" y2="714.14" gradientTransform="matrix(-1, 0.01, 0.01, 1, 3968.72, -13.72)" gradientUnits="userSpaceOnUse"><stop offset="0.13" stop-color="#f8dc6b"/><stop offset="0.14" stop-color="#f8de73"/><stop offset="0.22" stop-color="#f7e69a"/><stop offset="0.3" stop-color="#f6edbb"/><stop offset="0.39" stop-color="#f6f2d4"/><stop offset="0.47" stop-color="#f5f6e6"/><stop offset="0.57" stop-color="#f5f8f1"/><stop offset="0.67" stop-color="#f5f9f4"/></linearGradient><linearGradient id="linear-gradient-27" x1="1221.51" y1="710.09" x2="1259.79" y2="710.09" gradientTransform="translate(-933.25 27.98) rotate(-0.49)" xlink:href="#linear-gradient-26"/><linearGradient id="linear-gradient-28" x1="3683.45" y1="706.22" x2="3675.39" y2="706.22" xlink:href="#linear-gradient-26"/><linearGradient id="linear-gradient-29" x1="3706.26" y1="741.45" x2="3705.98" y2="710.35" xlink:href="#linear-gradient-26"/><linearGradient id="linear-gradient-30" x1="4444.83" y1="177.36" x2="4484.41" y2="157.66" gradientTransform="matrix(-0.94, 0.33, 0.33, 0.94, 4472.06, -907.93)" xlink:href="#linear-gradient-26"/><linearGradient id="linear-gradient-31" x1="3543.32" y1="853.8" x2="3570.28" y2="853.8" xlink:href="#linear-gradient-20"/><linearGradient id="linear-gradient-32" x1="3581.45" y1="922.03" x2="3523.8" y2="858.82" gradientTransform="matrix(-1, 0.01, 0.01, 1, 3968.72, -13.72)" gradientUnits="userSpaceOnUse"><stop offset="0.24" stop-color="#606060"/><stop offset="0.28" stop-color="#4b6b5a"/><stop offset="0.34" stop-color="#307952"/><stop offset="0.41" stop-color="#1b844c"/><stop offset="0.48" stop-color="#0c8c48"/><stop offset="0.56" stop-color="#039146"/><stop offset="0.69" stop-color="#009245"/></linearGradient><linearGradient id="linear-gradient-33" x1="3575.69" y1="909.57" x2="3623.59" y2="909.57" gradientTransform="matrix(-1, 0.01, 0.01, 1, 3968.72, -13.72)" gradientUnits="userSpaceOnUse"><stop offset="0" stop-color="#043f21"/><stop offset="0.25" stop-color="#026130"/><stop offset="0.51" stop-color="#017c3b"/><stop offset="0.73" stop-color="#008c42"/><stop offset="0.91" stop-color="#009245"/></linearGradient><linearGradient id="linear-gradient-34" x1="2963.66" y1="-5.07" x2="2999.09" y2="60.07" gradientTransform="matrix(-0.94, 0.33, 0.33, 0.94, 4239.79, -325.13)" gradientUnits="userSpaceOnUse"><stop offset="0" stop-color="#41930a"/><stop offset="0.75" stop-color="#1a610a"/></linearGradient><linearGradient id="linear-gradient-35" x1="2265.93" y1="-97.79" x2="2302.97" y2="-29.7" gradientTransform="matrix(0.8, -0.6, 0.6, 0.8, -378.26, 2128.19)" gradientUnits="userSpaceOnUse"><stop offset="0" stop-color="#50920a"/><stop offset="0.82" stop-color="#124d0a"/></linearGradient><linearGradient id="linear-gradient-36" x1="2079.84" y1="-116.96" x2="2129.67" y2="-25.36" gradientTransform="matrix(-1, -0.1, -0.1, 1, 3570.03, 1054.01)" gradientUnits="userSpaceOnUse"><stop offset="0" stop-color="#49980a"/><stop offset="0.67" stop-color="#25630a"/></linearGradient><linearGradient id="linear-gradient-37" x1="2973.24" y1="153.24" x2="3007.99" y2="217.11" gradientTransform="translate(-1494.26 1075.67) rotate(-12.19)" gradientUnits="userSpaceOnUse"><stop offset="0" stop-color="#76b50a"/><stop offset="0.75" stop-color="#1a7a0a"/></linearGradient><linearGradient id="linear-gradient-38" x1="2210.94" y1="47.18" x2="2250.42" y2="119.76" gradientTransform="matrix(-1, -0.09, -0.09, 1, 3722.6, 731.73)" gradientUnits="userSpaceOnUse"><stop offset="0" stop-color="#76b50a"/><stop offset="0.23" stop-color="#72b30a"/><stop offset="0.45" stop-color="#67ab0a"/><stop offset="0.66" stop-color="#539f0a"/><stop offset="0.88" stop-color="#388d0a"/><stop offset="1" stop-color="#25810a"/></linearGradient><linearGradient id="linear-gradient-39" x1="2027.16" y1="-151.11" x2="2072.5" y2="-67.78" gradientTransform="matrix(0.73, -0.68, 0.68, 0.73, 61.17, 2198.93)" gradientUnits="userSpaceOnUse"><stop offset="0" stop-color="#76b50a"/><stop offset="0.13" stop-color="#6fab0a"/><stop offset="0.35" stop-color="#5b8f0a"/><stop offset="0.63" stop-color="#3a630a"/><stop offset="0.8" stop-color="#25450a"/></linearGradient><linearGradient id="linear-gradient-40" x1="2987.32" y1="95.83" x2="3010.68" y2="138.77" gradientTransform="matrix(-0.94, 0.34, 0.34, 0.94, 4229.26, -365.2)" xlink:href="#linear-gradient-37"/><linearGradient id="linear-gradient-41" x1="2225.54" y1="-13.01" x2="2258.5" y2="47.59" gradientTransform="translate(-367.11 2127.14) rotate(-37.22)" xlink:href="#linear-gradient-38"/><linearGradient id="linear-gradient-42" x1="2072.74" y1="-23.11" x2="2099.24" y2="25.59" gradientTransform="matrix(-1, -0.09, -0.09, 1, 3570.92, 1020.58)" gradientUnits="userSpaceOnUse"><stop offset="0" stop-color="#76b50a"/><stop offset="0.18" stop-color="#6eab0a"/><stop offset="0.48" stop-color="#578f0a"/><stop offset="0.87" stop-color="#33630a"/><stop offset="1" stop-color="#25520a"/></linearGradient></defs><g class="cls-2"><path class="cls-3" d="M1679.46,733.1s-165.56-27.28-187.64,51.25c-78.15-20.7-152.72,54.91-97,87.71-42-16.9-38,17.64-38,17.64-35-24.77-75.49,5.65-75.35,21.41-29.27-37.37-106.58-5.05-110.17,20.75-.45-46.59-77-45.72-102.06-28.75,2-35.48-56.4-21.2-66.74-5.39-16.15-46.85-136.21-36.28-154.43,7.13-17.81-18.19-48.76-8.42-53.13-5.26-11.52-36.3-66-18.35-71-4.28-53.29-38.81-105.17-6.81-105.17-6.81-21.08-38.45-77.91-23.41-93.87-15.46-18.84-29.19-46.24-30.17-75.06-20.95,15-42.23-25.55-47.41-59.2-45.33-21.45-45.8-39-63.33-80.6-71s41.62,7.63,41.62,7.63,61.48-7.82-6.91-16.78l-37.11-2.31A86.15,86.15,0,0,0,345.63,712c18.72-11.6-.62-39.47-38.9-11.65-14.64,17.6-15.93,14.06-15.93,14.06l1.29,3.54s11.41,4.71-.06-24.69-53.55-7.66-76.18,20.94c.57-25.57-9.25-36.23-19.14-41.09-22.63-11.12-51.71,5.19-81.07-9.21-10-4.88-12.92-9.85-30-16.92-17.78-7.37-28.28-7.65-31.58-7.67a63.09,63.09,0,0,0-25.07,5c-10.42,4.51-15.38,10.62-17.3,13.36a98.31,98.31,0,0,1-9.93,17c-20.13,27.89-52.23,43.63-73.19,51.78,17.62,78.8,32.75,200.63,50.37,279.43l1670.28,100.66Z"/><path class="cls-4" d="M377.4,948.69s10.17-46.29-25.75-55.4C351.65,893.29,353.66,945.24,377.4,948.69Z"/><path class="cls-5" d="M389.2,893.3s-9-37.92-33.08-34.84C356.12,858.46,365.3,900.13,389.2,893.3Z"/><path class="cls-6" d="M387.3,887.07s16.08-39.25,29.6-40.92,4.9,1.31,2.45.65S413.75,886.33,387.3,887.07Z"/><path class="cls-7" d="M387.46,846.73s2.25-36-31.81-48.28C355.65,798.45,362.7,845.38,387.46,846.73Z"/><path class="cls-8" d="M389.83,862.14S415,840.56,414.4,804.52C414.4,804.52,391.91,819.18,389.83,862.14Z"/><path class="cls-9" d="M390.68,778.17s-3-19.11-16.93-20.84c0,0,.84,24.85,14.23,30.37Z"/><path class="cls-10" d="M388.05,810.92s21.05-13.53,19.75-35.86c0,0-14.95,10.05-20.87,27.54Z"/><path class="cls-11" d="M401.2,752.34s14.8-23-7.4-40.11c0,0-9.44,27.65,2.27,47C401.25,752.14,401.2,752.34,401.2,752.34Z"/><path class="cls-12" d="M396.07,759.2s13.14-21.38,27.88-15.7C424,743.5,416.61,768.67,396.07,759.2Z"/><path class="cls-13" d="M413,733.81c.3.44,19.48-4.95,17.74-32.65s1.49-28,1.49-28S397.61,711.14,413,733.81Z"/><path class="cls-14" d="M412.71,733.78A104.89,104.89,0,0,0,396,759.67c-4.78,10.66-9,25.17-8.29,75.34.18,11.65.65,27.45,2,46.28L375.1,954.7"/><path class="cls-15" d="M518,714.93c8.15-22-18.58-22.3-21.62-6.85-9.42-16.12-32.53,4.45-18.81,18.64-14.22-1.22-14.2,31.53,5.31,25.45-4.89,13.28,16.6,25.24,22.72,4.5,5.25,13.71,33.29,5.54,19.29-16.76,16.3-2.66,9.43-26.77-4-24.25Z"/><ellipse class="cls-16" cx="499.74" cy="733.76" rx="15.67" ry="15.1" transform="translate(-264.27 1185.89) rotate(-86.36)"/><path class="cls-17" d="M484.07,786.26s5.92-14.57-12.38-22c0,0-5.67,19,11.11,26.23Z"/><path class="cls-17" d="M478.08,812.15s.08-12.8-11.36-20.3c0,0-3.22,15.1,10,24.81Z"/><path class="cls-17" d="M478,813.75s11.17-15.33,24.9-12.52c0,0-7,20.08-25.21,17.79Z"/><path class="cls-17" d="M486.31,783.43a20.65,20.65,0,0,1,21-7.89s-6.47,17.11-22.45,15.59Z"/><path class="cls-18" d="M489.81,767.1s-21.24,68.23-19.23,78.78"/><path class="cls-19" d="M506.48,776.36s-6.71-10.79.36-21.68,36.75-14,40.95,17.86-15.44,45.2-15.44,45.2Z"/><path class="cls-20" d="M526.33,824.77s-33.86-1.1-41-45.51c6.52-27.07,32.7-21.27,39.89,14.89S526.33,824.77,526.33,824.77Z"/><path class="cls-21" d="M530.57,794.82s-4-15.1,16.3-25.12,40,19.38,13.94,38.18-34.48,16.89-34.48,16.89Z"/><path class="cls-22" d="M526.33,824.77s-23.17-23.95-14.75-49.7,42.17-13.83,36.76,15.8S526.33,824.77,526.33,824.77Z"/><path class="cls-23" d="M526.33,824.77a306,306,0,0,1-8.66,32.93c-.83,2.72-1.74,5.41-2.67,8.09s-1.86,5.37-2.84,8c-1.91,5.35-4.08,10.6-6.19,15.88-2.28,5.21-4.5,10.45-7,15.56-1.23,2.56-2.45,5.13-3.8,7.64s-2.63,5-4,7.54a203,203,0,0,1-18.92,28.35q8.67-14.67,16.15-29.79c2.34-5.14,4.93-10.14,7.13-15.34,2.37-5.11,4.54-10.31,6.75-15.5s4.32-10.42,6.34-15.68c1.06-2.62,2.1-5.24,3.09-7.89s2-5.26,3-7.91Q520.67,840.81,526.33,824.77Z"/><path class="cls-24" d="M516.93,867s24.29-33.17,56.44-18.78c0,0-12.12,44.24-59.7,32.31l-3.81-2.64Z"/><path class="cls-25" d="M479.88,937.05s-3.8-66.84-45.88-117C419,851.68,445.31,935.19,479.88,937.05Z"/><path class="cls-26" d="M500,893.08s-19.06-29.54-13.7-61.61c0,0,21.75,10.87,23.6,46.37Z"/><path class="cls-27" d="M248.31,947.65S268.74,856.06,322,833.92s32.28-11.45,32.28-11.45-68.75,24.77-83.83,125Z"/><path class="cls-28" d="M292.83,953.21s38.63-106.53,91.38-110.7c0,0-54,43-69,109.54Z"/><path class="cls-15" d="M52.3,837c-1.8-22.84-25.38-11.45-21.76,3.4-14.83-10-26.75,18.06-8.92,24.53-13,5.11.35,33.8,15,20,1.12,13.77,24.85,14.89,21.79-6,10.18,9.74,31.48-9.63,10.11-23.07,13.22-9.42-2.62-27.56-13.34-19.52Z"/><ellipse class="cls-16" cx="43.95" cy="861.4" rx="15.25" ry="14.68" transform="translate(-817.93 894.67) rotate(-89.29)"/><path class="cls-17" d="M47.48,914.83S46.86,894.32,16.85,897c0,0,3.67,25.5,31.44,23.54Z"/><path class="cls-17" d="M46.76,914.83s.33-20.51,30.37-18.48c0,0-3.31,25.57-31.1,24.17Z"/><path class="cls-29" d="M48.8,894.92a74,74,0,0,0,2.39,39.78,71.89,71.89,0,0,0,31.69,38.08"/><path class="cls-30" d="M189,830.66s8.13,57.7,15.69,108c.88,5.88,2.83,18.06,8.89,19.54,2.93.72,5.9-1.29,7.78-2.88q-3.51-10-6.76-20.5A558.75,558.75,0,0,1,192.53,824Z"/><path class="cls-30" d="M203.84,910.11s-30.79-46.36-73.25-35.33-37.39,52.7-14.17,48.93S159.31,897.12,203.84,910.11Z"/><path class="cls-30" d="M195.37,872.57s-26.29-43.43-57.81-52.31S54.21,861.4,98.41,859.54,159.64,848.73,195.37,872.57Z"/><path class="cls-30" d="M191.68,834.57s14.63-58.12-3.32-82-60.3-19.2-44.27,24.48C176.51,816.34,171,804.38,191.68,834.57Z"/><path class="cls-30" d="M195.29,861.41s-7.88-50.83,42.7-52.75,44,51.49-18.2,36.66C198.65,853.6,201.36,849.33,195.29,861.41Z"/><path class="cls-30" d="M203.86,913.65s10-58.39,68.14-41.85,4.43,63.55-38.31,28.82C217.43,898.66,203.86,913.65,203.86,913.65Z"/><path class="cls-31" d="M87.47,699.28s-35.36,45.36-66,85.1c-3.58,4.64-10.94,14.32-9.34,18,.77,1.79,3.39,1.63,5.27,1.29q5.22-8.76,10.9-17.79A877.68,877.68,0,0,1,93.45,696Z"/><path class="cls-31" d="M15.1,801.26S23.82,748.05-17.76,763c-27.67,20.82-24.15,36.92,4.28,26.77S15.1,801.26,15.1,801.26Z"/><path class="cls-31" d="M40.36,763.34s18-47-7.6-57.51-51.48,21.92-39,29.3S30,734.53,40.36,763.34Z"/><path class="cls-31" d="M62,732.44s18-42.93,10.44-63.08-63.39-6.49-43.21,11.42S62.74,699.6,62,732.44Z"/><path class="cls-31" d="M86,703.29s45.39-35.76,53.76-60.87-12.91-40.18-35.44-1.53C91.76,683.47,97.44,672.38,86,703.29Z"/><path class="cls-31" d="M69.48,724.31s30.83-40.27,53.79-19.64-15.81,56.48-32.47,18.65C76.17,720.12,80.21,718.2,69.48,724.31Z"/><path class="cls-31" d="M38,765.91s43.56-38,57.35-.66-40.87,48-35.81,4.21C53.89,761,38,765.91,38,765.91Z"/><path class="cls-31" d="M15.1,801.26s33.29-30,44.32-9.35-19,49.94-30.21,10.49A20.48,20.48,0,0,0,15.1,801.26Z"/><path class="cls-32" d="M336.28,920.2A57.8,57.8,0,0,0,317.58,899c-18.19-12.29-37.45-9.24-42.25-8.34a78.67,78.67,0,0,0,22.08,27.54,76.66,76.66,0,0,0,47,16Z"/><path class="cls-33" d="M341.7,918.65a47.92,47.92,0,0,1,1.92-29.95c9.18-22,32.15-26.88,34.28-27.3a92.88,92.88,0,0,1-6.19,34,91.43,91.43,0,0,1-29.54,39.37Z"/><path class="cls-34" d="M320,877.89a54.26,54.26,0,0,0-16.21-14.79,53.28,53.28,0,0,0-31.58-7,96,96,0,0,0,21.05,22.11,93.06,93.06,0,0,0,31.25,15.49l1.09.38Z"/><path class="cls-35" d="M321.86,868.47A27.39,27.39,0,0,1,325,847.89a25.87,25.87,0,0,1,18.45-11.76,54.08,54.08,0,0,1-2.9,21.61,52.87,52.87,0,0,1-15.31,22.42l-.54.67Z"/><path class="cls-36" d="M299.11,766.61S324.62,927,368.24,952L361,954.09a128.41,128.41,0,0,1-13.12-15c-10.06-13.45-15.16-25.81-19.8-38.4-6.46-17.53-13-35.17-19-62.83A474.74,474.74,0,0,1,299.11,766.61Z"/><path class="cls-37" d="M296.48,757.37s3.46-6,8-15c3.36-6.61,7.32-14.83,11-23.52,7.26-17.25,13.32-36.31,11.05-48.08-5-25.83-71.19-50.62-74.46,5.36C259.16,724.72,296.48,757.37,296.48,757.37Z"/><path class="cls-37" d="M296.6,757.79s-17.42-51.86-71.05-54.94-50.42,72.94-5,68.75C243.76,766.73,266.91,746.15,296.6,757.79Z"/><path class="cls-37" d="M296.6,757.79s-57.64-14.61-75.32,47c3.38,37.06,61.59,60.08,73.52,27.38C305.33,806.42,301.67,775.58,296.6,757.79Z"/><path class="cls-37" d="M296.6,757.79s35.85-32.8,84.49,16.65c18.86,22.09-26.87,85.4-65.73,37.67C300.9,778.2,300.76,766.22,296.6,757.79Z"/><path class="cls-37" d="M258.88,736.87l37.72,20.92s12.07-5.43,30.37-8.17l3-.41a139.09,139.09,0,0,1,16.16-1.13c28.54-.28,67.74-2.82,36.25-63.29-12.89-18.06-50.69-6.48-72,24.88-1.11,1.65-2.19,3.35-3.21,5.11-.81,1.41-1.6,2.85-2.35,4.33s-1.37,2.79-2,4.24a86.5,86.5,0,0,0-6.66,24q-.44,3.33-.61,6.79s-17.13-33.64-43.13-30"/><path class="cls-38" d="M293.06,756.58s-10.91-50.07-32.55-49.45S281.8,712.06,293.06,756.58Z"/><path class="cls-39" d="M294.46,752.56s.42-2,1.26-5.3c3.32-12.92,13.3-44.93,30.58-44.78C348,702.66,305.09,707.83,294.46,752.56Z"/><path class="cls-40" d="M292.06,751.78s16.8-41.49-.4-55.94C289.09,700.25,298.3,720.28,292.06,751.78Z"/><path class="cls-41" d="M290.11,752.61s-12.1-24.6-35.4-15.7S272.22,728.15,290.11,752.61Z"/><path class="cls-42" d="M293.77,754.15s22.49-25.94,38.63-27.32,11.83-14.14-8-2.57S298.72,750.49,293.77,754.15Z"/><path class="cls-43" d="M140.26,845.73,124,831.28s-13.41,12.58-11.58,18.65,24.16,2.41,24.16,2.41Z"/><path class="cls-43" d="M147.24,849.27s18.32-9.19,16.24-15.47-21.48-14.31-23.36-7.68.14,19.61.14,19.61Z"/><path class="cls-43" d="M147.24,849.27s24.25-8.7,23.68,2.73-8.83,19.29-23.6,8"/><path class="cls-43" d="M135.11,856.06s-16.1-.24-22.82,4.38S125,881,126.44,877s13.94-13.22,13.94-13.22Z"/><path class="cls-43" d="M140.32,854.73s-5.45,19.53-.7,22.74,23,.94,19.62-6S149,854.64,149,854.64Z"/><ellipse class="cls-44" cx="140.32" cy="854.73" rx="9" ry="8.7" transform="translate(-718.62 966.38) rotate(-88.08)"/><path class="cls-45" d="M406.64,918.24s-3.68-18.37,9.83-32.39,12.46-31.59,8.28-45.87-2.05-16.61-2.05-16.61l3.19-1a42.83,42.83,0,0,0,.6,5.51c.7,4,2.11,5.58,3.39,8.87,1.51,3.88,1.84,7,2.37,11.88a64.76,64.76,0,0,1,.27,11.41,52.33,52.33,0,0,1-7.7,22.77,46.42,46.42,0,0,0-11.9,25,41.61,41.61,0,0,0-.34,4.45,42.69,42.69,0,0,0,.22,5.57Z"/><path class="cls-46" d="M447.31,884.79c.25-2.43-27,6.77-34.73,27.54s0,13.77,0,13.77S445.75,899.91,447.31,884.79Z"/><path class="cls-47" d="M401.17,957.69c-28.86-8.5-33.9-56.08-34.46-62.62C392.28,904.28,401.17,957.69,401.17,957.69Z"/><path class="cls-48" d="M438.67,826c-.91-9.73-3.9-25-14.21-38.75-4.5-6-10.79-13.29-19.82-15.19-4.15-.87-8.63-.1-14.62,2.09a33.36,33.36,0,0,1-16.69,2.57c-2.79-.45-6.95,2-2.3,3.38,4.19,1.88,13.14,19.56,16.41,22.4s33.06,15,33.06,15a29,29,0,0,1,9.54,7.58c4.33,5.33,5.42,10.73,6.84,10.5C437.66,835.52,438.49,833.7,438.67,826Z"/><path class="cls-48" d="M436.37,828.93c-1.13-1.82-7.78-12.24-18-12.35-3.34,0-6,.67-9.72,2.78-6.94,3.91-13.83,13.1-17.08,14.1s-5.06,5.33-3.63,11.07c0,5.76-.39,10.57,1,12.47-2.76,3.39,1.41,3.35,1.41,3.35a4.61,4.61,0,0,0-.35,4.86,4.29,4.29,0,0,0,4.12,2.3"/><path class="cls-48" d="M396.32,867.49a4,4,0,0,0,3.92,4.76c3.32,10,17.22,6.55,20.47,6.52,12-5.88,27.26-17.55,20.59-41.49,1.84-3.91.36-8.3-2.62-9.81a6.61,6.61,0,0,0-7.17,1.22"/><path class="cls-48" d="M444.54,836.77s22.68-9.35,39.1,14.49,2.53,28.78,1.6,29.75c-.43,4.32-5.09,2-5.09,2-.42,6.25-31.93,14.24-35.51-32.53l-3.34-13.17Z"/><path class="cls-48" d="M445.56,825s14.19-22,25.48-24.76,17.74,8,20.18,15.54a58.84,58.84,0,0,1,1.52,10.43s3.2,1.18,2.08,3a77.73,77.73,0,0,0,11,9.84s.49,3.84-1.82,4.34-1.33,0-1.33,0-5.7,6.44-33.81-5.35c-8.1-4.31-27.57-.76-27.57-.76S438.75,823.87,445.56,825Z"/><path class="cls-48" d="M461.92,805.58s13.89-11.37,9.15-24.76-46.14-25.33-46.49-9.31c3.84,17.11,11.68,38,9.34,53.6-.08,1.39-.33,7.22,2,8.14,1,.39,2.16-.2,3.24-1C445.18,827.87,459.14,809.3,461.92,805.58Z"/><path class="cls-49" d="M435,833.39s5.5-8.82,6.86-14.12,6.63-14.54,6.63-14.54,1.62.54,3.46-2.84-.48-4.31-3.47,1.48-5.72,12.79-7.32,15.08-2.71,10.72-7,14.23C434.89,833.38,435,833.39,435,833.39Z"/><path class="cls-49" d="M435.48,834.22s5.6-12.17,9.67-17.91a96,96,0,0,1,7.77-9.63s-2.31,1.47,1.37-2.41,7.88-2.4,6.26-1-6.24,2.91-6.7,3.87-8.17,9.65-8.68,10.87-7.84,15.7-8.77,16.19S435.48,834.22,435.48,834.22Z"/><path class="cls-49" d="M437.81,836.25c.79-.53,9.21-10.31,12.45-11.78s5.55-3.41,9.26-3,8.82-.57,8.8-2.49-6,.54-7.88.56-10.66,2.7-13,4.54-8.47,9.07-10,11S436.89,836.88,437.81,836.25Z"/><path class="cls-49" d="M439.17,832.26s9.73-11,11.55-12.27A38,38,0,0,1,461,815.68c2.66-.46,8.22-1.87,7.27-3.58s-6,1.69-7.87,2.19-8.66,2.66-11.26,5.48-7.68,8.15-9.05,10.08S439.17,832.26,439.17,832.26Z"/><path class="cls-49" d="M443.45,823.8s5.91-9.91,15.11-13.83c0,0,.21.29,2.39-1.31s7.86-.9,6.42-.06S462,809.92,461,810s-6.6,3.36-9.14,5.82-11.73,14.08-11.73,14.08S442.23,825,443.45,823.8Z"/><path class="cls-43" d="M161.5,679.13s18.32-9.19,16.24-15.47-21.48-14.31-23.36-7.68.14,19.61.14,19.61Z"/><path class="cls-43" d="M161.5,679.13s24.25-8.7,23.68,2.73-8.83,19.29-23.6,8"/><path class="cls-43" d="M149.37,685.92s-16.1-.24-22.82,4.38,12.72,20.61,14.15,16.51,13.94-13.22,13.94-13.22Z"/><path class="cls-43" d="M154.58,684.59s-5.45,19.53-.7,22.74,23,.94,19.62-6-10.22-16.85-10.22-16.85Z"/><ellipse class="cls-44" cx="154.58" cy="684.59" rx="9" ry="8.7" transform="translate(-534.79 816.19) rotate(-88.08)"/><path class="cls-43" d="M154.52,675.59s-3.44-23.31-16.29-21-10.76,25.28,7.65,30.09a8,8,0,0,1,8.64-9.08Z"/><path class="cls-50" d="M1703.4,838.31c-.08,2.1-.16,4.19-.25,6.29-79.11,53.74-128,75.63-144.41,86.83,18.49-.28,40.41-14,142.29-46.18-.1,1.71-.21,3.41-.32,5.12-71.25,34.8-142.07,66.44-155.65,72,14,2.08,58.14-8.63,153.42-40.91l-.18,2.26c-37.47,18.08-69.57,33.29-97.42,45.82-27.92-1.39-55.85-2.42-83.82-2.08-30.41.37-60.82,2.37-91.23,3.31s-60.61,1.58-90.92,2.07q-14.55.24-29.12.42c-35.35-16.07-75.72-32.49-122.61-39.15,41.26-10.22,88.47,8.9,153.54,15.33-36.21-30.06-89.11-31.67-148.61-61.84,83.87-1.42,122.39,15.14,173.19,31.27-54-49.33-120-66-149.52-86.47,12.54-.15,107.14,22.26,169.74,55.75-.18-9.33-35.6-61.43-95.42-126.22,11.42-.92,98,62.67,128.25,113.75,8.51-32-22.23-105.91-28-156.21,37,30.94,67.16,130,80.43,151.17,11.22-21.39,34.75-90.46,55.79-172.9,1.59,107-21,151.17-35.44,181.23,6.11-1.78,67.15-60.61,150.44-129.87-67.69,88.44-115,129.36-127.66,140.82,10,2.09,114.93-70,190.34-114.1C1632.31,830.39,1566,893.5,1532.56,907.65,1544.6,908.66,1615,879.79,1703.4,838.31Z"/><path class="cls-51" d="M1120.49,886.89s-18.66-21.9-51.29-25.21-47.16-2.11-47.16-2.11,60.34,19.94,77,25.78S1120.49,886.89,1120.49,886.89Z"/><path class="cls-51" d="M1139.42,898.93c-.58.35-4.07,2.15-4.07,2.15s-11.3-2.56-26.41,6S1074.22,936,1074.22,936s32.08-10.84,41-16.41a191.42,191.42,0,0,0,21.43-16.08c1.16-1.24,5.79-3.88,5.79-3.88S1142.4,897.12,1139.42,898.93Z"/><path class="cls-51" d="M1135.59,894.78s-5.53-6.21-5.37-6.77-6.43-16.06-20.55-31.86S1076.48,826,1076.48,826s44.71,53.87,47.39,56.74,4.12,4.3,4.69,5.06,2.91,5,4.08,6S1136,896.09,1135.59,894.78Z"/><path class="cls-51" d="M1155,904s-2.58-7.57-3.73-9.13-12.08-24.78-22.57-38.72-30.71-33.69-30.18-33.22,31.33,44,35.39,50.24,13.47,19.5,15.06,21.39a25.86,25.86,0,0,1,3.91,7.33C1153.23,903.44,1155,905.85,1155,904Z"/><path class="cls-51" d="M1285.49,983.77c-23-16.2-41.13-28.82-47.38-32.92-23-15.09-117.86-63-117.86-63l.24-1s96,46.78,119,61.88c6.59,4.32,25.9,17.6,50.09,34.35Z"/><path class="cls-51" d="M1171,912.37s-2.85-9.18-4.63-11.58-13.28-34.44-19.86-45.21a213.64,213.64,0,0,0-19.49-26.26s12.83,22.18,14.73,26,21.24,42.31,22.65,44.54,1.33,1.79,2,3.23,3,7.84,3,8.52S1170.5,912.85,1171,912.37Z"/><path class="cls-51" d="M1193.08,923.52s-2.38-9.75-4.32-11.36-16-43.22-22.12-53-10.94-17.32-10.94-17.32,10.43,27.72,12.29,32.75,16.33,35.57,18.44,37.41,4.33,8.37,5.31,11.21C1191.74,923.22,1192.29,925,1193.08,923.52Z"/><path class="cls-51" d="M1225,939.83a105.1,105.1,0,0,0-10.3-22c-2.85-14.33-18.55-34.85-21.27-38.77-5.21-7.53-18.34-25.3-18.34-25.3s26.39,47.87,28.73,51.55,4.55,11.53,7.32,13.07,7.4,11,9,14.33,2.41,7.63,3.14,8.37S1226.5,940.9,1225,939.83Z"/><path class="cls-51" d="M1297.25,981.92c-.29-1.82-.59-3.55-.93-4.84-1.11-4.24-2.14-11.55-5.4-16.7-2-3.21-6.24-12.27-8.28-16.68s-19.45-50.92-19.45-50.92,7.86,10.34,9.4,15.79,12,25.49,18,38.54c3.84,8.42,7.24,24.24,9.18,34.41Z"/><path class="cls-51" d="M1247,954s-4.24-17-6-19.27-19.8-41.12-27.66-51.36l-15.14-19.73s14.12,26.33,16.08,29.37,21.06,39.09,23.19,42,2.48,2.58,3.28,4.43,3.83,12.54,4.09,13.27S1246.44,955.19,1247,954Z"/><path class="cls-51" d="M1269.45,968.9s-4.6-14.74-6.36-18.28-20.23-50.61-25-59.43-11.26-18.71-11.26-18.71,12.06,31.62,13.53,34.78,18.41,42.12,20.46,44.13,6.57,15.85,6.77,17.28S1271.44,971.6,1269.45,968.9Z"/><path class="cls-51" d="M1263.81,812.79a99.13,99.13,0,0,0-32-42.11c-23.64-17.87-34.85-23.94-34.85-23.94s40.11,42.72,51.09,54.74S1263.81,812.79,1263.81,812.79Z"/><path class="cls-51" d="M1274.9,830.25c-.52,0-3.61-.44-3.61-.44s-7.82-7.17-21.39-8.35-33.56,3.73-33.56,3.73,26.89,7.68,35,8a128.88,128.88,0,0,0,20.26-1.05,28.57,28.57,0,0,1,5.36,0S1277.61,830.41,1274.9,830.25Z"/><path class="cls-51" d="M1286,844.5l-5.94.75s-3.5-3.37-12.09-1.26-29.13,22.8-29.13,22.8,19.72-8.35,25.33-11.12,14.75-5.38,15.6-6.49a6.67,6.67,0,0,0,1-2.93s6-1,6.65-.71S1287.77,844.11,1286,844.5Z"/><path class="cls-51" d="M1297.37,859s-5.88-2.33-7.52-1.95c0,0-1-2.31-7-.9-9.47,2.22-34.81,29.36-34.81,29.36s29.41-15.92,32.38-17.74,9.47-6.41,9.13-9.7c0,0,6.69,1.09,9.56,3S1297.37,859,1297.37,859Z"/><path class="cls-51" d="M1273.1,825.52s-2.54-7-2.28-7.31-2.11-15-8.61-32.76S1252,763.76,1252,763.76s14.21,44.45,15.48,47.73,2,5,2.2,5.79a55.46,55.46,0,0,0,1.5,6.17C1271.73,824.75,1273.07,826.63,1273.1,825.52Z"/><path class="cls-51" d="M1285.26,841.22s0-6.54-.44-8.18-4.85-24.32-9.11-39.1-8.79-27.16-8.5-26.58,8.78,35.88,10.21,42.2,5.06,20.1,5.75,22.17a24.37,24.37,0,0,1,1,7C1284.1,840,1284.81,842.53,1285.26,841.22Z"/><path class="cls-51" d="M1261.15,895.74s21.58-2.89,28.82-7.36,10-9.18,11.68-9.74,10.63,1.2,10.63,1.2.65-1.33-.5-1.78-9.89-1.3-10.71-1.49-8.41-1.52-12.44-.3S1265.75,889.21,1261.15,895.74Z"/><path class="cls-51" d="M1333.42,909s-6.35-3.37-8.49-3.67c0,0-12.87-11-25.63-8.82S1271,909.31,1271,909.31s32.2-3.55,39.36-3.69,9,1.75,11.29,1.71.25,0,2.31,0,8.32,2.15,10.88,3.92S1336.47,910.67,1333.42,909Z"/><path class="cls-51" d="M1369.3,970.6c-16.73-28.42-29.9-50.67-33.78-56.93-13.37-21.54-72.14-100.32-72.14-100.32l.43-.56s60,78.55,73.32,100.1c4,6.49,17.77,29,35,57.26Z"/><path class="cls-51" d="M1295.15,854.74s.24-7.8-.47-10.32-3.07-43-6.44-53.55-4.57-15.3-4.57-15.3,3.88,21.66,4.32,25.22,5,39.78,5.46,42a15.61,15.61,0,0,1,.62,3.2c.1,1.31.2,6.91.07,7.42S1294.62,854.81,1295.15,854.74Z"/><path class="cls-51" d="M1308.8,873.05s.74-8-.29-10-.81-37.92-2.86-47.68-3.73-17.36-3.73-17.36,1.87,23.77,2,28.18,1.81,33.35,2.91,35.65,1.09,7.93,1.09,10.38C1307.88,872.2,1307.84,873.68,1308.8,873.05Z"/><path class="cls-51" d="M1328.55,899.7s-.73-17.33-3-28.18-6.59-28.22-7.07-32.27-4-14.27-4-14.27,6.3,36.74,7.11,40.43.42,10.26,2.11,12.66,2.7,11.22,3,14.33-.17,6.49.18,7.36S1329.38,901.16,1328.55,899.7Z"/><path class="cls-51" d="M1375.86,936c.89,9.92-1.9,28-2.89,34l-2.27.36c.08-2,1.47-7.52,1.71-10.59.26-3.51,1.38-9.12.28-14.29-.69-3.2-1.51-11.56-1.9-15.63s-1.39-45-1.39-45,3.22,11,3,15.54S1374.79,924.06,1375.86,936Z"/><path class="cls-51" d="M1341.38,920.15s1.21-13.91.53-16.35-4.2-38.25-7.44-49.17l-6.26-21s3.94,22.23,4.63,25.3,5.5,40.38,6.35,43.42,1.2,3,1.31,4.67-.37,10.62-.37,11.25S1340.64,920.68,1341.38,920.15Z"/><path class="cls-51" d="M1354.36,941.25s.37-12.52,0-15.84-2.07-45.12-3.38-53.58-3.6-18.49-3.6-18.49,2.08,26.95,2.37,29.86,1.66,39.27,2.68,41.65.82,14.25.6,15.33S1355.16,944.09,1354.36,941.25Z"/><path class="cls-51" d="M1377.92,732.58s3.58-26.51-11.11-48.4S1344,654.44,1344,654.44s18.88,50.12,23.89,64.18S1377.92,732.58,1377.92,732.58Z"/><path class="cls-51" d="M1380.39,752.36c-.5-.1-3.36-.94-3.36-.94s-4.25-8.57-17.1-11.62-35-.59-35-.59,22.87,11.65,30.74,13.08a124.11,124.11,0,0,0,20.57,1.6,25.87,25.87,0,0,1,5.28.75S1383,752.89,1380.39,752.36Z"/><path class="cls-51" d="M1384.45,768.78h-6.25s-1.82-4-11.34-2.94-40,20-40,20,23.59-6.1,30.5-8.26,17.22-3.67,18.6-4.7a11.15,11.15,0,0,0,2.45-2.93s6.43-.28,6.93.14S1386.38,768.6,1384.45,768.78Z"/><path class="cls-51" d="M1388.61,785.51s-4.69-3.22-6.49-3c0,0,.16-2.56-6.48-1.89-10.46,1.06-48.78,26.09-48.78,26.09s36.88-12.73,40.71-14.24,12.5-5.45,13.76-8.94c0,0,6.09,2,8,4.46S1388.61,785.51,1388.61,785.51Z"/><path class="cls-51" d="M1380.92,747.16s.89-7.66,1.3-8,5.21-16,7.45-35.48.41-24.09.41-24.09-7.6,48.46-7.94,52.08-.47,5.48-.64,6.35-1.48,5.22-1.52,6.67S1380.34,748.32,1380.92,747.16Z"/><path class="cls-51" d="M1385.3,765.24s3.21-6.85,3.55-8.63,7.06-26.13,10-42.18,4.55-29.63,4.54-29S1394.64,724.2,1393,731s-4.79,21.73-5.11,24a30,30,0,0,1-2.39,7.47C1384.75,763.8,1384.21,766.55,1385.3,765.24Z"/><path class="cls-51" d="M1334.86,819.12s22.77-.14,32.11-3.84,14.41-8.28,16.31-8.64,9.94,2.68,9.94,2.68,1.3-1.31.37-1.93-9.15-2.69-9.88-3-7.57-2.72-12.16-2S1342.6,812.9,1334.86,819.12Z"/><path class="cls-51" d="M1400,842.67s-4.64-4.38-6.62-5c0,0-7.36-13.27-21.07-12.67s-34.28,9.64-34.28,9.64,33.61.59,40.77,1.41,8,3,10.34,3.3.26,0,2.3.28,7.19,3.36,8.85,5.57S1402.14,844.86,1400,842.67Z"/><path class="cls-51" d="M1412.81,963.71l-3.09.5c-4-48.94-8.56-103.53-10-116.33-2.72-24.37-22.5-114.77-22.5-114.77l.69-.53s21.06,90.33,23.79,114.69C1403.14,860.09,1408.28,914.79,1412.81,963.71Z"/><path class="cls-51" d="M1335.63,852.29s28.42,4.91,35.91,4.75,14.13.33,17-.34,14,9.75,14,9.75l-.16-3s-11.72-8.9-13-8.87a47.32,47.32,0,0,0-24.07-6.81C1351.44,847.72,1335.63,852.29,1335.63,852.29Z"/><path class="cls-51" d="M1339.13,869s26.62,11.63,38.18,12.31,15.5-.32,18.12.24,8.76,6.21,8.76,6.21l.59-3.05s-7.8-4.72-8.49-5-10.08-7.1-18.85-9.36S1344.86,867.62,1339.13,869Z"/><path class="cls-51" d="M1334.66,883.05s30.56,11.85,38.45,13.51a102.12,102.12,0,0,0,23.13,1.36c2.31-.35,8.83,7.13,9.32,5.9a3,3,0,0,0-.28-2.43s-6.75-6.25-8.25-6.22-16.5-6.06-30-9.43S1336.85,883.31,1334.66,883.05Z"/><path class="cls-51" d="M1331.28,899.24s30.6,15.5,41.61,16.5,20.73-1.64,23.12.14,11.41,9.2,11.41,9.2l.53-2.75s-9.58-8.33-11.72-8.89-6.49-5-29-9.45S1331.28,899.24,1331.28,899.24Z"/><path class="cls-51" d="M1388.5,780.72s4-8.12,4.57-10.87,17.92-45.47,19.72-57,2.94-16.64,2.94-16.64-6.72,23.21-8,27-14.47,42.34-15.07,44.74a18.79,18.79,0,0,1-1,3.44c-.54,1.38-3.16,7.26-3.54,7.78S1387.94,780.74,1388.5,780.72Z"/><path class="cls-51" d="M1393.09,801.74s4.61-8.24,4.59-10.54,17.68-39.83,20.41-50.33,4.77-18.69,4.77-18.69-9.74,25.16-11.79,29.79-14.47,35.18-14.5,37.73-2.79,8.46-4,11C1392.59,800.73,1391.82,802.28,1393.09,801.74Z"/><path class="cls-51" d="M1399.64,832.31s7.73-18.26,10.73-29.94,7.23-30.45,8.73-34.75,3.05-15.47,3.05-15.47-11.67,39.33-12.67,43.3-4.58,10.8-4.08,13.54-2.8,12.12-4,15.42-3.33,6.78-3.4,7.74S1399.76,834,1399.64,832.31Z"/><path class="cls-51" d="M1408,913.94s16-24.54,20.72-37.23,11.4-33,13.88-37.74,4.65-16.69,4.65-16.69-18.93,43-20.53,47.29-4.87,13.18-5.75,16.63c-1.42,5.57-5.27,11.29-7.24,14.93s-7,10.47-7.1,11.48S1408.34,915.64,1408,913.94Z"/><path class="cls-51" d="M1402.37,855.44s8-14.41,8.5-17.05,14.49-40.63,16.61-52.51l4.06-22.88s-6.94,23.81-7.75,27.12-14.24,43-14.88,46.34-.28,3.29-1,5.06-5.54,11.08-5.85,11.74S1401.39,855.91,1402.37,855.44Z"/><path class="cls-51" d="M1411,959s11-15.52,11.88-18.54,21.69-45.3,25.59-59,7.49-26.31,7.49-26.31-10.91,26.86-12.26,30.61-21.69,48.2-22.83,52-.73,3.85-1.75,5.81-7.75,12-8.18,12.76S1409.79,959.35,1411,959Z"/><path class="cls-51" d="M1404.94,879.29s6.47-13.07,7.69-16.59,19.95-47.55,22.77-56.59,5.45-19.85,5.45-19.85-11.07,28.51-12.2,31.6-17.5,41.35-17.65,44-6.13,15-6.89,16.14S1404.35,882.38,1404.94,879.29Z"/><path class="cls-52" d="M1473.53,786.57s11.9-21,9.88-33.76c-2-12.23-13-25.44-24.09-42.08-10.89-21.9-34.3-47.38-64.8-62.07C1433.41,721.4,1468.72,775.36,1473.53,786.57Z"/><path class="cls-53" d="M1473.53,786.57s-23.45-3.11-33.9-11.68-51.55-67.54-45.11-126.23C1439.19,718.54,1469.52,775.79,1473.53,786.57Z"/><path class="cls-54" d="M1394.52,648.66s73.39,123.63,79,137.91,34,55.23,62.44,168.09l5.49-1.33S1523,875,1475.57,784.51C1467.35,768.84,1409.94,668.5,1394.52,648.66Z"/><path class="cls-55" d="M1479.43,720.88s-15.92-12.72-21-24.68-18.53-81.86,24.47-138.58C1450.71,650.47,1478.06,708.57,1479.43,720.88Z"/><path class="cls-56" d="M1479.43,720.88s10.77-14.2,14.71-27.74c13.86-47.63-9.46-51.22-11.25-135.52C1451.5,643.51,1477.48,709.4,1479.43,720.88Z"/><path class="cls-57" d="M1481,560.12s-28.55,70.89.21,159.89c4.37,14.83,5.78,66.46,55.72,173.17-3.44,2.54-5.82,1.51-5.82,1.51s-37-73.26-53.27-175C1475.05,702.12,1451.34,654,1481,560.12Z"/><path class="cls-58" d="M1551.72,723.64s13.2-23.2,28.62-36.19,90.54-72.42,218.22-64.17C1657.07,660.18,1568.77,713.71,1551.72,723.64Z"/><path class="cls-58" d="M1551.72,723.64s23.42-.43,43.82-6.48c78.29-23.21,58-38.39,132-65.38,33.54-9,37.77-20.52,72-28.93C1673.12,631.83,1579.51,691.72,1551.72,723.64Z"/><path class="cls-59" d="M1789.69,623.69S1632,637,1551.82,721.83C1518.65,827,1535.76,938.05,1534.61,955l5.23-1.27C1542.77,953,1524,828,1555.51,722.5,1625.73,647.66,1748.17,631,1789.69,623.69Z"/><path class="cls-60" d="M1490.05,833s9-17.45,8-27c-1-9.16-4.57-18.23-16.7-29.47-11.17-15.32-37.86-31.64-75-38.6C1447,788.47,1485.31,825,1490.05,833Z"/><path class="cls-61" d="M1490.05,833s-21.79,6.26-34,1.14-53-48.39-49.56-96.18C1454.73,785.44,1486.28,825.25,1490.05,833Z"/><path class="cls-62" d="M1413.79,747.74s78.2,84.83,83.59,95,29.42,27.58,54.7,108l6.39-1.55s-9-45.35-58.23-108.31C1491.94,830.28,1432.46,761.94,1413.79,747.74Z"/></g></svg>