<svg id="Layer_1" data-name="Layer 1" xmlns="http://www.w3.org/2000/svg" viewBox="0 0 500 550"><defs><style>.cls-1{opacity:0.3;}.cls-2{fill:#914d0a;}.cls-3{fill:#d2861c;}.cls-4{fill:#231f20;opacity:0.17;}.cls-5{fill:#a86210;}.cls-6{fill:#e6a54d;}.cls-7{opacity:0.25;}.cls-8{fill:#395078;}.cls-9{fill:#f57032;}.cls-10,.cls-27,.cls-28,.cls-29{fill:#fff;}.cls-11{fill:#ffd634;}.cls-12{fill:#cc5e2a;}.cls-13{fill:#86d6e0;}.cls-14{fill:#ff6e6e;}.cls-15{fill:#c7686c;}.cls-16{fill:#ffb8bb;}.cls-17{fill:#fec430;}.cls-18{fill:#ff9d70;}.cls-19{fill:#c6c6e5;}.cls-20{fill:#7b26d3;}.cls-21{fill:#7070e8;}.cls-22{fill:#8c84c0;}.cls-23{fill:#5252c1;}.cls-24{fill:#cfbafe;}.cls-25{fill:#6363c9;}.cls-26{fill:#4d4d82;}.cls-27{opacity:0.76;}.cls-28{opacity:0.23;}.cls-29{opacity:0.19;}</style></defs><polygon class="cls-1" points="101.12 427.68 38.82 529.21 450.71 530.36 385.52 430.72 101.12 427.68"/><path class="cls-2" d="M51.67,318l5,79.66,7.93,125.61c1-1,5.26-6.16,10.44-12.67l.06-1.69,4.41-136.57,1.76-54.46Z"/><polygon class="cls-3" points="34.24 320.08 48.02 523.33 64.64 523.26 70.28 320.02 34.24 320.08"/><polygon class="cls-4" points="51.67 317.99 51.8 320.05 34.24 320.08 36.07 347.08 70.28 353.75 80.58 340.45 80.15 353.75 81.31 317.87 51.67 317.99"/><path class="cls-2" d="M103.11,326.74l3.74,46.95,5.9,74c.76-.59,3.92-3.63,7.77-7.47l0-1,3.28-80.49,1.31-32.1Z"/><polygon class="cls-3" points="90.14 327.97 100.39 447.76 112.75 447.72 116.94 327.93 90.14 327.97"/><polygon class="cls-4" points="103.11 326.74 103.2 327.95 90.14 327.97 91.5 343.88 116.94 347.82 124.61 339.98 124.29 347.82 125.15 326.67 103.11 326.74"/><path class="cls-2" d="M441.66,318l-5,79.66L428.7,523.26c-1-1-5.27-6.16-10.44-12.67l-.06-1.69-4.41-136.57L412,317.87Z"/><polygon class="cls-3" points="459.1 320.08 445.32 523.33 428.7 523.26 423.06 320.02 459.1 320.08"/><polygon class="cls-4" points="441.67 317.99 441.54 320.05 459.1 320.08 457.27 347.08 423.06 353.75 412.76 340.45 413.19 353.75 412.03 317.87 441.67 317.99"/><path class="cls-2" d="M390.23,326.74l-3.74,46.95-5.9,74c-.77-.59-3.92-3.63-7.77-7.47l0-1-3.28-80.49-1.31-32.1Z"/><polygon class="cls-3" points="403.2 327.97 392.95 447.76 380.59 447.72 376.4 327.93 403.2 327.97"/><polygon class="cls-4" points="390.23 326.74 390.13 327.95 403.2 327.97 401.84 343.88 376.4 347.82 368.73 339.98 369.05 347.82 368.19 326.67 390.23 326.74"/><polygon class="cls-5" points="494.19 307.9 413.54 265.93 89.57 265.93 5.83 306.53 15.16 336.55 483.06 337.01 494.19 307.9 494.19 307.9"/><polygon class="cls-2" points="483.04 337 493.45 307.54 5.8 306.52 15.14 336.54 483.04 337 483.04 337"/><polygon class="cls-6" points="494.19 307.9 492.18 306.88 5.83 306.53 7.73 312.7 493.58 309.51 494.19 307.9"/><ellipse class="cls-7" cx="163.84" cy="284.18" rx="35.68" ry="11.89"/><path class="cls-8" d="M172.21,158.41l-.9-.58c9.69-21.14,20.18-42.12,31.17-62.36,7.26-13.37,14.91-26.73,22.73-39.71l.88.64Zm41.7-81.26c-3.58,6.29-7.11,12.61-10.54,18.94-7.15,13.17-14.09,26.66-20.74,40.3Z"/><path class="cls-8" d="M215.57,74.07l-.48-1a81.84,81.84,0,0,1,22.38-11l.34,1.11Z"/><path class="cls-8" d="M226.46,70.38l1.81-5a28.76,28.76,0,0,1,6.21-10.1L238,51.66Z"/><path class="cls-8" d="M222.55,66.13l-.65-4.53a40.17,40.17,0,0,1,1.47-18l1.38-4.32Z"/><path class="cls-8" d="M225.92,56.54l-.83-.71c1.94-3.11,4-6.13,6.26-9l.8.76Z"/><path class="cls-8" d="M218.48,67.63h0l-6.26-14.46.94-.53L218.93,66l.48,1.12Z"/><path class="cls-8" d="M216.73,61.3l-1-.1a53.06,53.06,0,0,1,1.49-11.32l.21-1.57,1.83-1.89-.6,2.11c-.14.53-.29,1.06-.42,1.6Z"/><ellipse class="cls-9" cx="238.69" cy="62.47" rx="2.22" ry="2.52"/><ellipse class="cls-9" cx="235.57" cy="55.21" rx="1.79" ry="2.03"/><ellipse class="cls-9" cx="218.18" cy="47.72" rx="1.79" ry="2.03"/><ellipse class="cls-9" cx="223.96" cy="43.5" rx="1.44" ry="1.64"/><ellipse class="cls-9" cx="212.52" cy="52.2" rx="1.44" ry="1.64"/><ellipse class="cls-9" cx="231.75" cy="47.22" rx="2.22" ry="2.52"/><path class="cls-8" d="M147.88,154.67,102.12,80.81l3.6,3.67A172.75,172.75,0,0,1,130,115.8a185,185,0,0,1,16.07,33.81ZM108.8,89.43l34.2,55.2a182.56,182.56,0,0,0-13.91-28.13A172.72,172.72,0,0,0,108.8,89.43Z"/><path class="cls-8" d="M122.47,135.15l-1.15,1h0l-.5.44-3.46,3a16.9,16.9,0,0,1-3,1.12c-7.46,2-15.9-1.43-16-4.34a2.29,2.29,0,0,1,.77-1.65c1.66-1.74,5.55-3.12,7.2-3.59.41-.11.81-.21,1.21-.29h.11a16.62,16.62,0,0,1,8.6.58q.5.16,1,.36l0,0h0l0,0,.05,0c.45.19.88.39,1.29.61h0l.48.26h0A18.39,18.39,0,0,1,122.47,135.15Z"/><path class="cls-10" d="M122.3,135.21c-.29.3-.61.62-1,.95h0l-.5.44a17.1,17.1,0,0,1-6.54,3.53c-7,1.9-15-1.35-15.09-4.1a1.92,1.92,0,0,1,.48-1.26l.25-.29c1.57-1.63,5.23-2.93,6.78-3.37.32-.1.64-.17,1-.24l.06,0h.08a15.85,15.85,0,0,1,8.25.51c.31.11.61.22.9.34l.18.08h0l.1.05a15.91,15.91,0,0,1,1.49.74h0a17.32,17.32,0,0,1,3.48,2.56Z"/><path class="cls-8" d="M122.55,135.09l-1.23,1.07h0a15.68,15.68,0,0,1-6.47,2.65c-6.43,1.06-13.89-1.75-15.17-4.05l-.08-.16c1.6-1.69,5.37-3,7-3.47.34-.1.67-.18,1-.25h.06l.11,0h.08a16.18,16.18,0,0,1,8.34.55c.32.11.63.23.93.35l.08,0h0l.08,0,.07,0,0,0c.47.2.92.42,1.35.64h0l.47.25h0A21.77,21.77,0,0,1,122.55,135.09Z"/><path class="cls-8" d="M213,30.77a16.61,16.61,0,0,1-1.46,5.52,13.27,13.27,0,0,1-4.25,5.43c-.19.14-.37.27-.56.39l-.11.07a11.43,11.43,0,0,1-3.8,1.54h-.07a16.08,16.08,0,0,1,1.3-6.95c2.24-5,7.25-8.28,8.56-7.13A1.57,1.57,0,0,1,213,30.77Z"/><path class="cls-10" d="M212.83,31.33a15.32,15.32,0,0,1-1.37,5.19,12.49,12.49,0,0,1-4,5.12c-.18.13-.35.25-.53.36l-.1.07a10.42,10.42,0,0,1-3.58,1.45h-.07A15.11,15.11,0,0,1,204.41,37c2.1-4.72,6.83-7.8,8.06-6.72A1.43,1.43,0,0,1,212.83,31.33Z"/><path class="cls-8" d="M212.92,31.09a15.72,15.72,0,0,1-1.41,5.33,12.71,12.71,0,0,1-4.1,5.25l-.54.38a.41.41,0,0,0-.11.07,13.46,13.46,0,0,1-3.68,1.62.71.71,0,0,1,0-.14,13.55,13.55,0,0,1,1.65-5.75C207,33.72,211.5,30.68,212.92,31.09Z"/><path class="cls-8" d="M222.74,129.48c-1.29.91-4,1.3-5.11,1.38a11.16,11.16,0,0,1-6.42-1.47l-.58-.37-.11-.07a12.5,12.5,0,0,1-3.09-3l-.05-.06a12.33,12.33,0,0,1,6.18-2.29c5.09-.33,10.16,3,9.88,4.95A1.51,1.51,0,0,1,222.74,129.48Z"/><path class="cls-10" d="M222.2,129.56c-1.21.86-3.75,1.22-4.81,1.31a10.55,10.55,0,0,1-6-1.39l-.55-.35-.1-.07a11.57,11.57,0,0,1-2.91-2.86l-.05-.06a11.68,11.68,0,0,1,5.82-2.15c4.79-.31,9.57,2.86,9.31,4.66A1.4,1.4,0,0,1,222.2,129.56Z"/><path class="cls-8" d="M222.43,129.52c-1.25.89-3.85,1.26-4.94,1.35a10.77,10.77,0,0,1-6.2-1.43l-.57-.35-.1-.08a14.15,14.15,0,0,1-3.1-2.87l.11-.06a10.18,10.18,0,0,1,5.39-1.31C217.43,124.93,222.06,127.88,222.43,129.52Z"/><path class="cls-8" d="M184.23,68.35q-1.83,5.18-3.5,10.45-.87,2.78-1.7,5.56l-.24.84c-.07.21-.13.42-.19.63q-1.77,6.14-3.31,12.33s0,0,0,.06a0,0,0,0,0,0,0c-.12.5-.25,1-.37,1.5-.77,3.2-1.46,6.27-2.09,9.21-.17.8-.33,1.59-.49,2.37l-.09.46a1.16,1.16,0,0,0,0,.18,274.38,274.38,0,0,0-4.58,30.34c-.23,2.75-.41,5.53-.55,8.28h-1.12c.14-2.79.33-5.61.57-8.4a292,292,0,0,1,6.55-39.53.29.29,0,0,0,0-.09l0-.12c.23-1,.47-2,.72-3,1.48-6.13,3.15-12.24,5-18.29l.18-.59c.08-.27.16-.53.25-.8.36-1.16.73-2.32,1.1-3.48q1.37-4.23,2.84-8.38h0a.62.62,0,0,1,.25-.32.54.54,0,0,1,.48,0A.67.67,0,0,1,184.23,68.35Z"/><path class="cls-9" d="M165.88,57c-1,1.28-2,3.17-1.2,4.69.66,1.34,2.24,1.6,3.6,1.62a30,30,0,0,0,16.14-4.59c.52-.33,1.42-.78,1.59-1.68.23-1.17-1-1.89-.87-3.55.07-1.11.63-1.32.49-1.91-.41-1.7-5.38-1.49-5.63-1.47a19.43,19.43,0,0,0-6.78,1.8C169.89,53.35,167.83,54.64,165.88,57Z"/><path class="cls-9" d="M169.61,46.62a3.34,3.34,0,0,0-.78,2.26,4,4,0,0,0,1.69,2.65c4.21,3.48,9.16,4.28,13.37,4.41.5,0,1.32.12,1.78-.45s.2-1.59.69-3a5.12,5.12,0,0,1,.92-1.63c-2.94-1.67-5.51-2.9-7.54-3.8a16.13,16.13,0,0,0-7-1.65A3.87,3.87,0,0,0,169.61,46.62Z"/><path class="cls-9" d="M209.79,59.43a2.85,2.85,0,0,1-3.07,3.6c-5.19.41-9.75-1.91-13.39-4.34-.43-.29-1.17-.7-1.29-1.46s.57-1.46.81-2.94a5.83,5.83,0,0,0,0-1.94c2.24.48,5.23,1.15,8.93,2A23.17,23.17,0,0,1,207.63,57,4,4,0,0,1,209.79,59.43Z"/><path class="cls-9" d="M207.54,69.29c.28,1.72.17,3.87-1.18,4.7-1.19.74-2.65,0-3.8-.8A36.13,36.13,0,0,1,191,59.54a3.41,3.41,0,0,1-.57-2.39c.36-1.12,1.71-1,2.4-2.48.46-1,.09-1.49.49-1.91,1.14-1.19,5.24,2,5.45,2.16a23.46,23.46,0,0,1,4.91,5.62A20.9,20.9,0,0,1,207.54,69.29Z"/><path class="cls-9" d="M185.39,78.79c-1.07,1-2.62,1.95-3.83,1.11s-1.23-2.4-1.2-3.82a38.43,38.43,0,0,1,4.23-16.75c.28-.54.67-1.46,1.4-1.62,1-.2,1.5,1.08,2.85,1,.9,0,1.09-.62,1.56-.45,1.36.48,1,5.68,1,5.94a25.9,25.9,0,0,1-1.67,7C188.5,74.71,187.39,76.82,185.39,78.79Z"/><path class="cls-9" d="M192.07,81.6c1.13,1.38,2.84,2.65,4.33,1.85,1.32-.7,1.7-2.61,1.82-4.26a45.43,45.43,0,0,0-3-20.08c-.26-.67-.62-1.81-1.45-2.09-1.09-.37-1.86,1-3.43.77-1-.17-1.19-.87-1.76-.74-1.64.36-1.84,6.44-1.85,6.76a30.49,30.49,0,0,0,1.15,8.42C188.93,76.41,190,79,192.07,81.6Z"/><path class="cls-9" d="M168.81,71.7c-.36,1.91-.28,4.32,1.22,5.29,1.31.85,3,.07,4.26-.8a40.09,40.09,0,0,0,13.17-14.95,3.75,3.75,0,0,0,.68-2.65c-.37-1.27-1.88-1.18-2.63-2.85-.49-1.1-.06-1.66-.49-2.14-1.26-1.36-5.91,2.09-6.15,2.26a26.2,26.2,0,0,0-5.6,6.16C170.8,65.55,169.47,68.13,168.81,71.7Z"/><path class="cls-11" d="M187,63.83a7.06,7.06,0,0,0,6.21-.91c3.15-2.32,3.35-6.75,3.47-9.39.1-2.17.26-5.61-1.82-7.61a5.16,5.16,0,0,0-3.4-1.37c-3.69-.15-6.27,3.61-7,4.72-1.13,1.65-3.5,5.1-2.42,9.11A8.36,8.36,0,0,0,187,63.83Z"/><polygon class="cls-10" points="184.96 58.29 184.03 57.98 184.35 56.75 185.27 57.05 184.96 58.29"/><polygon class="cls-10" points="188.03 62.09 187.15 61.66 187.47 60.8 188.36 61.24 188.03 62.09"/><polygon class="cls-10" points="192.37 58.68 191.42 58.51 191.49 58.07 192.44 58.25 192.37 58.68"/><polygon class="cls-10" points="195.49 55.69 194.54 55.52 194.67 54.64 195.62 54.82 195.49 55.69"/><polygon class="cls-10" points="194.97 51.58 194.08 51.17 194.26 50.66 195.15 51.07 194.97 51.58"/><polygon class="cls-10" points="193.37 48.22 192.75 47.39 193.01 47.13 193.64 47.96 193.37 48.22"/><polygon class="cls-10" points="190.62 47.41 190.06 46.52 190.56 46.11 191.13 47 191.13 47 190.62 47.41"/><path class="cls-10" d="M186.34,53.36,187,49a2.19,2.19,0,0,1,.38-1l2.4-3.44Z"/><polygon class="cls-10" points="185.51 53.08 184.63 52.65 184.63 52.65 184.78 52.24 185.66 52.66 185.51 53.08"/><polygon class="cls-10" points="188.3 53.9 187.43 53.44 187.53 53.19 188.41 53.64 188.41 53.65 188.3 53.9"/><polygon class="cls-10" points="191.92 49.9 191 49.59 191.13 49.06 192.06 49.37 191.92 49.9"/><polygon class="cls-10" points="191.29 54.39 190.36 54.08 190.5 53.55 191.42 53.86 191.29 54.39"/><polygon class="cls-10" points="190.33 52.01 189.4 51.71 189.55 51.12 190.48 51.43 190.33 52.01"/><polygon class="cls-10" points="189.68 57.73 188.77 57.36 188.77 57.36 189 56.64 189.91 57.01 189.91 57.01 189.68 57.73"/><path class="cls-10" d="M190.35,63l-.86-1.57a1,1,0,0,1,0-1l.91-1.53Zm-.18-2.05.13.1a.18.18,0,0,0,0-.2Z"/><polygon class="cls-10" points="195.12 60.34 194.2 60.04 194.31 59.61 195.23 59.92 195.12 60.34"/><polygon class="cls-10" points="183.66 55.06 182.72 54.83 182.89 53.96 183.83 54.2 183.66 55.06"/><path class="cls-8" d="M212.37,101.24c-2.2,3.78-8.37,8-11,9.59a29.81,29.81,0,0,1-17.11,4.3c-.61,0-1.21-.09-1.79-.16l-.34,0a30.77,30.77,0,0,1-10.62-3.53l-.17-.1a36.65,36.65,0,0,1,12.69-13c12.05-7,27.81-5.14,29.08-.2A4.27,4.27,0,0,1,212.37,101.24Z"/><path class="cls-10" d="M211.14,102.11c-2.08,3.55-7.89,7.54-10.38,9a28.15,28.15,0,0,1-16.12,4q-.87,0-1.68-.15l-.33,0a28.55,28.55,0,0,1-10-3.33l-.16-.09a34.46,34.46,0,0,1,11.95-12.29c11.35-6.63,26.2-4.84,27.4-.19A4.12,4.12,0,0,1,211.14,102.11Z"/><path class="cls-8" d="M211.67,101.74c-2.14,3.65-8.1,7.74-10.66,9.27a28.94,28.94,0,0,1-16.54,4.16c-.59,0-1.17-.09-1.73-.16l-.33,0a35.36,35.36,0,0,1-10.47-3.12l.21-.29a30.32,30.32,0,0,1,11.79-9.75C194.83,96.8,209.09,98.22,211.67,101.74Z"/><path class="cls-12" d="M180.82,54l-8.95-1.07v-.5a21.64,21.64,0,0,1,6.07.29,22,22,0,0,1,3,.78Z"/><path class="cls-12" d="M173,63.15l-.18-.47a61.59,61.59,0,0,1,7.21-3.2l.15.48Z"/><path class="cls-12" d="M180.92,70.18l-.41-.18a29.49,29.49,0,0,1,2.78-6.58l.38.25Z"/><path class="cls-12" d="M188.51,73.74l-.45,0c.1-2.92.28-5.88.51-8.79l.44,0Z"/><path class="cls-12" d="M197,68.83l-3.7-5.49.34-.33a36.37,36.37,0,0,1,3.72,5.53Z"/><path class="cls-12" d="M204.56,62.73l-8.35-3.28.13-.48a65,65,0,0,1,8.38,3.29Z"/><path class="cls-8" d="M160.47,154.39,139.6,70.56l1-.44a312.48,312.48,0,0,1,10.64,31c5.86,20.52,8.49,30.73,9.05,42.39.1,2.1.15,4.23.15,6.33ZM142.87,79,159.28,145l-.06-1.35c-.56-11.51-3.17-21.66-9-42.07C148.06,94,145.6,86.42,142.87,79Z"/><path class="cls-9" d="M157.51,58.38c1.09,1.23,2.08,3.07,1.39,4.63-.61,1.37-2.18,1.72-3.53,1.8a29.72,29.72,0,0,1-16.31-3.74c-.54-.3-1.45-.7-1.66-1.59-.28-1.16.89-1.94.72-3.6-.11-1.09-.67-1.28-.56-1.87.34-1.73,5.31-1.77,5.57-1.77A19.81,19.81,0,0,1,150,53.68C153.35,54.92,155.46,56.1,157.51,58.38Z"/><path class="cls-9" d="M153.36,48.18a3.33,3.33,0,0,1,.87,2.22,4,4,0,0,1-1.58,2.73c-4.06,3.7-9,4.76-13.18,5.11-.5,0-1.31.18-1.79-.36s-.27-1.57-.81-2.94a5,5,0,0,0-1-1.59,83.86,83.86,0,0,1,7.37-4.19,16.18,16.18,0,0,1,6.93-2A3.82,3.82,0,0,1,153.36,48.18Z"/><path class="cls-9" d="M113.74,63.08a3.22,3.22,0,0,0,.5,2.36A3.25,3.25,0,0,0,117,66.52c5.2.14,9.66-2.42,13.19-5,.42-.32,1.14-.76,1.24-1.52s-.63-1.44-.94-2.9a5.94,5.94,0,0,1-.06-1.94c-2.22.6-5.18,1.42-8.84,2.51a23.24,23.24,0,0,0-5.74,2.91A4.08,4.08,0,0,0,113.74,63.08Z"/><path class="cls-9" d="M116.39,72.81c-.21,1.73,0,3.88,1.37,4.64,1.22.67,2.64-.14,3.76-1a36.62,36.62,0,0,0,11-14.23,3.46,3.46,0,0,0,.48-2.42c-.41-1.1-1.75-.92-2.5-2.35-.5-.95-.15-1.49-.56-1.88-1.19-1.13-5.16,2.26-5.37,2.44a23.89,23.89,0,0,0-4.66,5.87A21,21,0,0,0,116.39,72.81Z"/><path class="cls-9" d="M138.9,81.14c1.11,1,2.7,1.81,3.87.91s1.13-2.46,1-3.88a38,38,0,0,0-4.89-16.51c-.31-.52-.74-1.42-1.48-1.54-1-.15-1.45,1.15-2.8,1.17-.9,0-1.11-.55-1.57-.36-1.35.55-.81,5.72-.78,6a25.51,25.51,0,0,0,2,6.94C135.63,77.23,136.82,79.28,138.9,81.14Z"/><path class="cls-9" d="M132.34,84.3c-1.07,1.44-2.73,2.8-4.26,2.08-1.34-.64-1.79-2.52-2-4.16A45.85,45.85,0,0,1,128.3,62c.24-.68.55-1.83,1.37-2.16,1.07-.42,1.9.94,3.45.6,1-.23,1.16-.93,1.73-.84,1.65.27,2.1,6.34,2.12,6.65a30.57,30.57,0,0,1-.8,8.48C135.27,79,134.33,81.62,132.34,84.3Z"/><path class="cls-9" d="M155.18,73.19c.43,1.89.45,4.3-1,5.35-1.28.92-2.95.22-4.29-.58a39.29,39.29,0,0,1-13.76-14.24,3.77,3.77,0,0,1-.79-2.62c.32-1.28,1.84-1.27,2.51-3,.45-1.13,0-1.67.42-2.17,1.19-1.43,6,1.77,6.23,1.94a25.61,25.61,0,0,1,5.84,5.86C152.94,67.15,154.37,69.66,155.18,73.19Z"/><path class="cls-11" d="M136.7,66.28a7,7,0,0,1-6.24-.58c-3.24-2.15-3.63-6.57-3.85-9.2-.19-2.16-.49-5.6,1.51-7.7a5.14,5.14,0,0,1,3.34-1.54c3.69-.35,6.41,3.28,7.22,4.34,1.19,1.59,3.7,4.92,2.78,9A8.49,8.49,0,0,1,136.7,66.28Z"/><polygon class="cls-10" points="138.5 60.64 138.14 59.42 139.05 59.07 139.41 60.29 138.5 60.64"/><polygon class="cls-10" points="135.59 64.6 135.59 64.6 135.23 63.76 136.09 63.28 136.45 64.12 135.59 64.6"/><polygon class="cls-10" points="131.11 61.42 131.03 60.99 131.97 60.76 132.05 61.2 131.11 61.42"/><polygon class="cls-10" points="127.87 58.6 127.72 57.73 128.66 57.51 128.81 58.38 127.87 58.6"/><polygon class="cls-10" points="128.23 54.46 128.23 54.46 128.03 53.96 128.91 53.51 128.91 53.51 129.11 54.01 128.23 54.46"/><polygon class="cls-10" points="129.69 51.02 129.41 50.78 130 49.91 130.28 50.16 129.69 51.02"/><polygon class="cls-10" points="132.4 50.07 132.4 50.07 131.88 49.68 132.41 48.77 132.41 48.77 132.93 49.15 132.4 50.07"/><path class="cls-10" d="M136.92,55.79l-3.79-8.53,2.53,3.31a2.25,2.25,0,0,1,.42.93Z"/><polygon class="cls-10" points="137.74 55.46 137.74 55.46 137.57 55.06 138.44 54.59 138.44 54.59 138.61 54.99 137.74 55.46"/><polygon class="cls-10" points="134.98 56.43 134.87 56.18 135.72 55.68 135.84 55.93 134.98 56.43"/><polygon class="cls-10" points="131.21 52.62 131.05 52.1 131.96 51.75 132.12 52.27 131.21 52.62"/><polygon class="cls-10" points="132.02 57.07 132.02 57.07 131.87 56.55 132.78 56.2 132.78 56.2 132.93 56.72 132.02 57.07"/><polygon class="cls-10" points="132.88 54.65 132.71 54.08 133.62 53.72 133.79 54.3 132.88 54.65"/><polygon class="cls-10" points="133.77 60.33 133.77 60.33 133.51 59.62 134.4 59.2 134.66 59.92 133.77 60.33"/><path class="cls-10" d="M133.31,65.58l-.23-4.08,1,1.48a1,1,0,0,1,0,1Zm-.05-2.15a.2.2,0,0,0,0,.2l.12-.11Z"/><polygon class="cls-10" points="128.43 63.22 128.31 62.8 129.22 62.45 129.34 62.87 128.43 63.22"/><polygon class="cls-10" points="139.67 57.35 139.67 57.35 139.47 56.5 140.39 56.21 140.4 56.21 140.6 57.06 139.67 57.35"/><path class="cls-8" d="M112.85,105c2.36,3.66,8.69,7.56,11.4,9a29.76,29.76,0,0,0,17.27,3.4c.6-.07,1.2-.16,1.77-.26l.35-.06A30.9,30.9,0,0,0,154.1,113l.17-.1a36,36,0,0,0-13.21-12.38c-12.31-6.4-28-3.68-29.06,1.32A4.27,4.27,0,0,0,112.85,105Z"/><path class="cls-10" d="M114.12,105.78c2.22,3.45,8.18,7.12,10.73,8.48a28,28,0,0,0,16.27,3.21c.57-.07,1.13-.15,1.67-.24l.33-.06a29.11,29.11,0,0,0,9.85-3.84l.16-.1a33.76,33.76,0,0,0-12.44-11.66c-11.6-6-26.36-3.47-27.37,1.24A4,4,0,0,0,114.12,105.78Z"/><path class="cls-8" d="M113.58,105.44c2.28,3.54,8.4,7.31,11,8.71a28.76,28.76,0,0,0,16.69,3.28c.59-.06,1.16-.14,1.72-.24l.33-.06a35.41,35.41,0,0,0,10.33-3.67l-.22-.28a29.77,29.77,0,0,0-12.17-9.11C130.19,99.63,116,101.79,113.58,105.44Z"/><path class="cls-8" d="M179.2,79.19c.57,4.49-1.55,12.32-2.6,15.51a37.83,37.83,0,0,1-10.24,16.17c-.48.44-1,.85-1.43,1.23l-.28.23a32,32,0,0,1-10,5.42l-.19.06a44.31,44.31,0,0,1,1.82-19.36c4.86-14.37,17.73-24.9,21.57-22.18A4.09,4.09,0,0,1,179.2,79.19Z"/><path class="cls-10" d="M178.79,80.77c.53,4.23-1.47,11.6-2.45,14.61a35.58,35.58,0,0,1-9.65,15.23c-.45.41-.9.8-1.34,1.16l-.27.22a30,30,0,0,1-9.4,5.1l-.18,0a41.67,41.67,0,0,1,1.71-18.23c4.58-13.53,16.7-23.45,20.32-20.89A3.82,3.82,0,0,1,178.79,80.77Z"/><path class="cls-8" d="M179,80.1c.54,4.34-1.51,11.91-2.52,15a36.4,36.4,0,0,1-9.9,15.63c-.46.42-.92.82-1.38,1.19l-.27.23a37.4,37.4,0,0,1-9.64,5.6c0-.12,0-.25,0-.37a37.57,37.57,0,0,1,3.09-16.21C163.52,89.17,175,79.43,179,80.1Z"/><path class="cls-12" d="M142.46,56.11l-.11-.49a22.66,22.66,0,0,1,2.93-.94,22,22,0,0,1,6.05-.61l0,.5Z"/><path class="cls-12" d="M150.65,64.87l-7.31-2.81.13-.48a58.27,58.27,0,0,1,7.33,2.82Z"/><path class="cls-12" d="M143,72.31,140,66l.38-.27a29.09,29.09,0,0,1,3,6.42Z"/><path class="cls-12" d="M135.58,76.26l-.86-8.73.44-.06c.35,2.89.64,5.83.86,8.74Z"/><path class="cls-12" d="M126.87,71.8l-.37-.27A37.66,37.66,0,0,1,130,65.81l.35.31Z"/><path class="cls-12" d="M119.1,66.1l-.18-.46a65.25,65.25,0,0,1,8.24-3.72l.15.47Z"/><path class="cls-13" d="M210.74,104.36a20.06,20.06,0,0,1,3.47-12.53,15.89,15.89,0,0,1,6.86-6.29,12.48,12.48,0,0,1,7.74-.75,28.78,28.78,0,0,1-4.24,11.86,36.93,36.93,0,0,1-5.75,6.53,71.28,71.28,0,0,1-7,6A17.12,17.12,0,0,1,210.74,104.36Z"/><path class="cls-13" d="M215.76,111c5.38,1.57,10-1.12,11.41-2a16,16,0,0,0,6.52-6.75,17.93,17.93,0,0,0,1.85-8.58,21.21,21.21,0,0,0-10.95,2.93,35.19,35.19,0,0,0-6.56,5.46,71.73,71.73,0,0,0-6.28,6.9A12.81,12.81,0,0,0,215.76,111Z"/><path class="cls-13" d="M223.11,92.15C225,91.54,227,91,229,90.43q1.53-.39,3-.72l-2.74,6.5a7.27,7.27,0,0,1-2.2,3.17,4.65,4.65,0,0,1-1.61.9c-2.16.59-5.49-1.17-5.5-3.88A5,5,0,0,1,223.11,92.15Z"/><path class="cls-10" d="M215.79,106.14,228.2,89.2l-.75,1.59A47,47,0,0,1,224.59,96a44.78,44.78,0,0,1-7.55,9Zm10.49-13.76-8.07,11a44.57,44.57,0,0,0,6.12-7.65C225,94.66,225.68,93.54,226.28,92.38Z"/><polygon class="cls-10" points="224.43 98.03 224.28 97.71 229.84 94.44 229.98 94.77 224.43 98.03"/><path class="cls-13" d="M104.29,83.74C98.71,83.39,95.07,79.25,94,78a17.18,17.18,0,0,1-4.24-8.61,17.9,17.9,0,0,1,.74-8.75,22.44,22.44,0,0,1,9.57,6.51,37.77,37.77,0,0,1,4.65,7.41,78.32,78.32,0,0,1,4,8.66A12.3,12.3,0,0,1,104.29,83.74Z"/><path class="cls-13" d="M111,79.14a20.3,20.3,0,0,0,.35-13,17,17,0,0,0-4.7-8.29,13.12,13.12,0,0,0-7.14-3.36,29.13,29.13,0,0,0,.57,12.67,40,40,0,0,0,3.57,8.15,76.4,76.4,0,0,0,4.87,8A16.2,16.2,0,0,0,111,79.14Z"/><path class="cls-13" d="M95.89,68.1q-.3-3.27-.44-6.85c0-1.17-.07-2.33-.08-3.46l5.17,4a6.67,6.67,0,0,1,2.36,2.93,5.7,5.7,0,0,1,.49,1.93c.12,2.51-2,6-4.37,5.56C97.55,72,96.27,70.3,95.89,68.1Z"/><path class="cls-10" d="M106.75,78.37,94.24,62l1.24,1.07a40.3,40.3,0,0,1,4,4A44.85,44.85,0,0,1,106,76.8ZM96.66,64.59l8.14,10.66a44,44,0,0,0-5.56-8C98.42,66.34,97.56,65.44,96.66,64.59Z"/><polygon class="cls-10" points="100.94 67.62 99.1 60.93 99.41 60.82 101.25 67.51 100.94 67.62"/><path class="cls-8" d="M162.21,152.36l-2-119,1,0c.7,14.08,1.25,28.36,1.62,42.44.67,25.39.8,51.15.4,76.58Z"/><path class="cls-8" d="M161.84,52.9l-.9-.59a84.45,84.45,0,0,1,12.57-21l.81.74Z"/><path class="cls-8" d="M168.08,45l-.8-5.31a32.28,32.28,0,0,1,.55-12.31l1.26-5.2Z"/><path class="cls-8" d="M163.27,44.18,160.65,41A37.45,37.45,0,0,1,153,24.18l-.81-4.28Zm-7.42-13.65a35.64,35.64,0,0,0,1.88,4.12Z"/><path class="cls-8" d="M161.15,33.58l-1-.1c.19-3.8.56-7.64,1.1-11.4l1,.16Z"/><polygon class="cls-8" points="160.96 48.13 147.98 39 148.53 37.99 161.5 47.12 160.96 48.13"/><path class="cls-8" d="M154.67,43.71a50.89,50.89,0,0,1-4-10.49l-.56-1.46.67-2.71.48,2.15c.12.54.25,1.08.39,1.61l4,10.36Z"/><ellipse class="cls-9" cx="174.74" cy="30.89" rx="2.22" ry="2.52"/><ellipse class="cls-9" cx="168.71" cy="26.63" rx="1.79" ry="2.03"/><ellipse class="cls-9" cx="150.48" cy="30.79" rx="1.79" ry="2.03"/><ellipse class="cls-9" cx="153.41" cy="23.72" rx="1.44" ry="1.64"/><ellipse class="cls-9" cx="147.78" cy="38.01" rx="1.44" ry="1.64"/><ellipse class="cls-9" cx="161.74" cy="22.16" rx="2.22" ry="2.52"/><path class="cls-8" d="M152.17,151.92,129.81,113.5l2,1.23a40.67,40.67,0,0,1,12,11.54,48.76,48.76,0,0,1,8.15,23.08ZM133.3,117.21l17.2,29.55a46.82,46.82,0,0,0-7.59-19.71A40,40,0,0,0,133.3,117.21Z"/><path class="cls-14" d="M124.61,122.84c2,2.8,5,4,7.51,3.07a6.79,6.79,0,0,0,3.73-4.21,9.93,9.93,0,0,0-2.35-9.54c2.57.21,5-1.91,5.78-4.67a10.3,10.3,0,0,0-1.51-8.28,8.44,8.44,0,0,0-4.92-3.63c-1.94-.45-3.76-.47-5.17,1.07l0,.28a9.22,9.22,0,0,0-1.26-9.25,6.73,6.73,0,0,0-8.08-1.88,8.27,8.27,0,0,0-4,8,5.83,5.83,0,0,0-6.49-3,7.09,7.09,0,0,0-5.26,5.4,10.18,10.18,0,0,0,1.56,8.1c1.31,1.85,3.38,3.19,5.41,2.83a2.81,2.81,0,0,0-2.74.37,6.15,6.15,0,0,0-2.15,2.46,10.64,10.64,0,0,0,.68,10.44,6,6,0,0,0,3.37,2.58,3.36,3.36,0,0,0,3.64-1.44,8.1,8.1,0,0,0,.86,5.24,6,6,0,0,0,7.74,2.58A7.29,7.29,0,0,0,124.61,122.84Z"/><path class="cls-15" d="M118,101.62l-.6-.75a16.8,16.8,0,0,1-3.25-7.07l-.2-1Zm-3.35-6.72a16.44,16.44,0,0,0,2.25,4.88Z"/><path class="cls-15" d="M124.66,101.77l-.17-.17,3.25-5,.19.14A18.51,18.51,0,0,1,124.66,101.77Zm1.86-2.88-.44.68C126.23,99.35,126.38,99.12,126.52,98.89Z"/><path class="cls-15" d="M134.16,112.52l-6.09-2.39.05-.25a18.83,18.83,0,0,1,2.92.64,6.94,6.94,0,0,1,2.67,1.56Zm-4.83-2.17,3.66,1.44a6.9,6.9,0,0,0-2-1A13.76,13.76,0,0,0,129.33,110.35Z"/><path class="cls-15" d="M124.89,123.76l-.39-.66a14.77,14.77,0,0,1-2-8.26l0-.77Zm-2.14-8a14.62,14.62,0,0,0,1.54,6.49Z"/><path class="cls-15" d="M112.45,121.71l-.2-.14a32.83,32.83,0,0,1,6.31-9.38l.17.18Zm5.19-8.15a32.46,32.46,0,0,0-4.47,6.64Z"/><path class="cls-15" d="M115.85,107l-7.79.23,0-.26a27,27,0,0,1,7.83-.23Zm-5-.11,2.25-.07C112.32,106.83,111.57,106.85,110.82,106.91Z"/><ellipse class="cls-16" cx="121.35" cy="107.38" rx="7.06" ry="8.03" transform="translate(-9.61 11.96) rotate(-5.43)"/><ellipse class="cls-10" cx="117.42" cy="104.13" rx="0.55" ry="0.62" transform="translate(-9.32 11.57) rotate(-5.43)"/><path class="cls-10" d="M124.3,112.32a.37.37,0,1,1-.72.07.39.39,0,0,1,.32-.45A.39.39,0,0,1,124.3,112.32Z"/><ellipse class="cls-10" cx="126.73" cy="107.15" rx="0.25" ry="0.28" transform="translate(-9.57 12.47) rotate(-5.43)"/><path class="cls-10" d="M123.77,101.91a.24.24,0,0,1-.2.27.23.23,0,0,1-.25-.23.23.23,0,1,1,.45,0Z"/><path class="cls-10" d="M121.8,109.77a.24.24,0,0,1-.2.27.23.23,0,0,1-.23-.23.22.22,0,0,1,.19-.26A.24.24,0,0,1,121.8,109.77Z"/><path class="cls-10" d="M117.9,112.07a.39.39,0,1,1-.77.07.41.41,0,0,1,.34-.47A.43.43,0,0,1,117.9,112.07Z"/><path class="cls-10" d="M121,113.77a.33.33,0,1,1-.66.07.35.35,0,0,1,.3-.41A.35.35,0,0,1,121,113.77Z"/><ellipse class="cls-10" cx="115.85" cy="107.9" rx="0.45" ry="0.52" transform="translate(-9.69 11.44) rotate(-5.43)"/><path class="cls-10" d="M120,100.61a.3.3,0,0,1-.25.35.31.31,0,0,1-.31-.29.32.32,0,0,1,.25-.35A.3.3,0,0,1,120,100.61Z"/><path class="cls-10" d="M123.46,105.46a.4.4,0,0,1-.33.44.41.41,0,1,1,.33-.44Z"/><path class="cls-10" d="M120.5,108.15a.54.54,0,0,1-.45.62.58.58,0,1,1,.45-.62Z"/><path class="cls-10" d="M125,109a.42.42,0,0,1-.35.49.45.45,0,0,1-.45-.42.43.43,0,0,1,.36-.49A.43.43,0,0,1,125,109Z"/><path class="cls-10" d="M127.13,111.33a.12.12,0,1,1-.24,0,.12.12,0,1,1,.24,0Z"/><ellipse class="cls-10" cx="125.74" cy="103.59" rx="0.53" ry="0.61" transform="translate(-9.23 12.36) rotate(-5.43)"/><ellipse class="cls-10" cx="120.15" cy="104.53" rx="0.35" ry="0.4" transform="translate(-9.35 11.83) rotate(-5.43)"/><path class="cls-8" d="M181.2,155.05l2.07-5.05A121.76,121.76,0,0,1,198,123.68a113.3,113.3,0,0,1,13.41-15.12l3.78-3.56Zm26.7-41.36a113,113,0,0,0-9.06,10.78,119.16,119.16,0,0,0-12.09,20.37Z"/><path class="cls-17" d="M187.8,126.19a6.54,6.54,0,0,0,4.46-5.76,6.69,6.69,0,0,0-1.76-4.76,6.1,6.1,0,0,0-7.34-1,6.44,6.44,0,0,0-1.45-6.76,6.24,6.24,0,0,0-6.2-1.36,7.09,7.09,0,0,0-4,3.24c-.91,1.61-1.49,3.25-.86,5l.19.12A5.7,5.7,0,0,0,164,113a7.13,7.13,0,0,0-3.81,6.68,6.94,6.94,0,0,0,4.32,6.26c-2.14.21-3.65,2.48-4.11,4.86a7.2,7.2,0,0,0,2.11,6.52,6.12,6.12,0,0,0,6.09,1.26,5.43,5.43,0,0,0,3.64-3.94,3.32,3.32,0,0,0-.6,2.59,6.11,6.11,0,0,0,1,2.75,6.68,6.68,0,0,0,7.44,2.83,5,5,0,0,0,2.83-2.19,4,4,0,0,0,.13-3.76,4.89,4.89,0,0,0,3.89.94c2.39-.55,4.26-3.22,4.18-6.13A6.34,6.34,0,0,0,187.8,126.19Z"/><path class="cls-15" d="M166.4,126.25a9.74,9.74,0,0,1-1.94-.19l-.74-.14,7.35-.75-.71.29A10.48,10.48,0,0,1,166.4,126.25Zm-1-.28a10.08,10.08,0,0,0,4.08-.42Z"/><path class="cls-15" d="M173.06,119.3l-2.49-4.59.15-.13a16.65,16.65,0,0,1,2.51,4.62Zm-1.25-2.72.34.62C172,117,171.93,116.78,171.81,116.58Z"/><path class="cls-15" d="M180.07,118.88l-.15-.13a19.05,19.05,0,0,1,1.34-2.42,6.25,6.25,0,0,1,1.91-1.9l.44-.26Zm2.68-3.9a6.67,6.67,0,0,0-1.33,1.48,11.54,11.54,0,0,0-.8,1.36Z"/><path class="cls-15" d="M186,126.59a8.88,8.88,0,0,1-4.4-1.18l-.52-.29,7.42,1.12-.58.13A8.9,8.9,0,0,1,186,126.59Zm-3.72-1.07a8.61,8.61,0,0,0,5,.75Z"/><path class="cls-15" d="M183.1,136.92a30.12,30.12,0,0,1-4.54-8.78l.18-.09,4.52,8.74Zm-3.88-7.5a30,30,0,0,0,3.22,6.22Z"/><path class="cls-15" d="M171.89,136l-.19-.06a32.27,32.27,0,0,1,2.26-7.14l.18.09Zm1.27-4.66c-.24.68-.46,1.36-.65,2.06Z"/><ellipse class="cls-9" cx="176.09" cy="124.04" rx="6.02" ry="6.85"/><path class="cls-18" d="M172.76,126a.54.54,0,0,1,.31.66.46.46,0,0,1-.58.36.55.55,0,0,1-.31-.66A.46.46,0,0,1,172.76,126Z"/><path class="cls-18" d="M180.43,123a.37.37,0,0,1,.21.44.32.32,0,0,1-.39.24.36.36,0,0,1-.21-.44A.3.3,0,0,1,180.43,123Z"/><path class="cls-18" d="M177.66,118.87a.25.25,0,0,1,.14.3.2.2,0,0,1-.26.16.24.24,0,0,1-.14-.3A.21.21,0,0,1,177.66,118.87Z"/><path class="cls-18" d="M173.05,120.05a.24.24,0,0,1,.13.28.19.19,0,0,1-.24.14.22.22,0,0,1-.13-.27A.2.2,0,0,1,173.05,120.05Z"/><path class="cls-18" d="M177.89,124.42a.22.22,0,0,1,.12.26.18.18,0,0,1-.23.15.22.22,0,0,1-.12-.27A.18.18,0,0,1,177.89,124.42Z"/><path class="cls-18" d="M178.27,128.7a.39.39,0,0,1,.22.46.33.33,0,0,1-.41.26.39.39,0,0,1-.22-.47A.32.32,0,0,1,178.27,128.7Z"/><path class="cls-18" d="M180.41,126.45a.32.32,0,0,1,.19.4.28.28,0,0,1-.35.22.34.34,0,0,1-.19-.41A.28.28,0,0,1,180.41,126.45Z"/><path class="cls-18" d="M174.86,128.75a.46.46,0,0,1,.26.55.39.39,0,0,1-.48.3.46.46,0,0,1-.26-.55A.39.39,0,0,1,174.86,128.75Z"/><path class="cls-18" d="M171,123a.29.29,0,0,1,.16.34.24.24,0,0,1-.3.19.28.28,0,0,1-.16-.34A.24.24,0,0,1,171,123Z"/><path class="cls-18" d="M175.41,121.5a.36.36,0,0,1,.21.44.3.3,0,0,1-.39.24.37.37,0,0,1-.21-.44A.32.32,0,0,1,175.41,121.5Z"/><path class="cls-18" d="M176.36,125.06a.5.5,0,0,1,.29.61.43.43,0,0,1-.54.34.51.51,0,0,1-.29-.62A.43.43,0,0,1,176.36,125.06Z"/><path class="cls-18" d="M178.35,121.26a.4.4,0,0,1,.24.48.35.35,0,0,1-.43.27.4.4,0,0,1-.23-.49A.33.33,0,0,1,178.35,121.26Z"/><path class="cls-18" d="M180.62,120.12a.14.14,0,0,1,.07.15.11.11,0,0,1-.13.08.11.11,0,0,1-.07-.15A.1.1,0,0,1,180.62,120.12Z"/><path class="cls-18" d="M175,118.34a.52.52,0,0,1,.3.64.45.45,0,0,1-.56.35.53.53,0,0,1-.31-.64A.45.45,0,0,1,175,118.34Z"/><path class="cls-18" d="M173.83,123.85a.34.34,0,0,1,.2.42.29.29,0,0,1-.37.24.36.36,0,0,1-.2-.43A.3.3,0,0,1,173.83,123.85Z"/><path class="cls-19" d="M165.14,287.75h17.19C189.2,287.75,215,265.4,215,231s-37.8-32.66-37.8-49.85,3.43-27.5,10.3-27.5,7.81-5.17,1.72-5.17H141.08c-6.08,0-5.16,5.17,1.72,5.17s10.3,10.31,10.3,27.5S115.3,196.65,115.3,231s25.78,56.72,32.64,56.72Z"/><path class="cls-20" d="M165.65,284.86c8.32,0,9.71,1.8,16.37,1.8s31.65-22.14,31.65-56.19-37.23-31.19-37.23-48.23,3.92-28.39,10.57-28.39,7.57-5.11,1.67-5.11H142c-5.88,0-5,5.11,1.68,5.11s10.49,10.05,10.49,27.06S117.58,198,117.58,232,142,286.66,148.7,286.66,157.31,284.86,165.65,284.86Z"/><path class="cls-21" d="M165.65,284.86c8.32,0,9.71,1.8,16.37,1.8s31.65-22.14,31.65-56.19-37.23-31.19-37.23-48.23,3.92-28.39,10.57-28.39,7.57-5.11,1.67-5.11H142c-5.88,0-5,5.11,1.68,5.11s10.49,10.05,10.49,27.06S117.58,198,117.58,232,142,286.66,148.7,286.66,157.31,284.86,165.65,284.86Z"/><path class="cls-22" d="M182,286.66H148.7c6.67,0,8.61-1.8,17-1.8S175.36,286.66,182,286.66Z"/><path class="cls-23" d="M144.7,235.67c-16.34-14.87,16.68-25.53,16.61-48.38-.08-23.93-7.11-6.38-7.11-6.38,0,17-36.62,17.07-36.62,51.12S142,286.66,148.7,286.66C148.7,286.66,207.31,292.7,144.7,235.67Z"/><path class="cls-23" d="M180.79,158.6c1.66-3.2,3.89-4.92,6.69-4.92l-19.89-2-24.79,2c2.58,0,4.67,1.45,6.28,4.17,2.69,4.52,4,12.58,4,23.33C153.1,181.18,156.23,162,180.79,158.6Z"/><path class="cls-24" d="M167.92,151.39l19.56,2.29c6.89,0,7.81-5.17,1.72-5.17H141.08c-6.08,0-5.16,5.17,1.72,5.17Z"/><path class="cls-25" d="M165.63,152.89c12-.1,21.85.79,21.85.79,3.15,0,5.05-1.08,5.6-2.25-1.32-.22-1.1-.92-2.32-1.11-9.62-1.44-21.12-.7-51.61-.6-1.24.06-.8.84-2.12.89-.09,1.44,1.9,3.07,5.77,3.07C142.8,153.68,153.66,153,165.63,152.89Z"/><path class="cls-26" d="M181.35,157.63H148.94A11.24,11.24,0,0,0,147.7,156h34.88A11.2,11.2,0,0,0,181.35,157.63Z"/><path class="cls-26" d="M134.16,199.68c.88-.55,1.75-1.09,2.62-1.6h56.73c.87.51,1.74,1,2.62,1.6Z"/><path class="cls-26" d="M213.31,245.8c-.13.54-.25,1.09-.38,1.63H117.35c-.13-.54-.24-1.09-.37-1.63Z"/><path class="cls-26" d="M180,160.5c-.21.51-.4,1-.58,1.62H150.9c-.18-.58-.38-1.11-.58-1.62Z"/><path class="cls-27" d="M118.74,215.23a33.44,33.44,0,0,1,8.88-10.83h75a33.44,33.44,0,0,1,8.88,10.83Z"/><path class="cls-27" d="M215,231.89a68.54,68.54,0,0,1-1,10.84H116.33a67.4,67.4,0,0,1-1-10.84Z"/><path class="cls-26" d="M116.48,221.33c.19-.74.41-1.47.65-2.17h96c.24.7.45,1.43.64,2.17Z"/><path class="cls-26" d="M214.65,225.73c.09.72.19,1.43.24,2.17H115.4c.06-.74.14-1.45.24-2.17Z"/><path class="cls-26" d="M140.14,283.85c-.85-.64-1.73-1.36-2.6-2.16h55.21c-.89.8-1.76,1.52-2.59,2.16Z"/><path class="cls-28" d="M191.3,204c6.26,3.49,17.49,20.1,19.79,26.05,4.77,12.29-2.75,31.83-14.27,31.83s-22.06-7-22.06-17.53,15.79-8.78,13.53-18-9.53-16.79-6.51-22.3S191.3,204,191.3,204Z"/><path class="cls-29" d="M137.87,203.5c-.08-3.82-26.93,20.73-15.24,41.87,9,16.36,2.36-10.52,3.78-16.87C128.67,218.47,137.93,206.78,137.87,203.5Z"/></svg>