<?xml version="1.0" encoding="utf-8"?>
<!-- Generator: Adobe Illustrator 25.2.3, SVG Export Plug-In . SVG Version: 6.00 Build 0)  -->
<svg version="1.1" id="Layer_1" xmlns="http://www.w3.org/2000/svg" xmlns:xlink="http://www.w3.org/1999/xlink" x="0px" y="0px"
	 viewBox="0 0 480 430" style="enable-background:new 0 0 480 430;" xml:space="preserve">
<style type="text/css">
	.st0{opacity:0.3;enable-background:new    ;}
	.st1{fill-rule:evenodd;clip-rule:evenodd;fill:#6126A8;}
	.st2{fill-rule:evenodd;clip-rule:evenodd;fill:#994724;}
	.st3{fill-rule:evenodd;clip-rule:evenodd;fill:#12633B;}
	.st4{fill-rule:evenodd;clip-rule:evenodd;fill:#662159;}
	.st5{fill:#C76E0F;}
	.st6{fill-rule:evenodd;clip-rule:evenodd;fill:#1F99E0;}
	.st7{fill:#FF1A00;}
	.st8{fill-rule:evenodd;clip-rule:evenodd;fill:#FFCC00;}
	.st9{fill-rule:evenodd;clip-rule:evenodd;fill:#D66103;}
	.st10{fill-rule:evenodd;clip-rule:evenodd;fill:#2EA659;}
	.st11{fill-rule:evenodd;clip-rule:evenodd;fill:#FF3300;}
</style>
<ellipse transform="matrix(0.9969 -7.845911e-02 7.845911e-02 0.9969 -28.9767 19.838)" class="st0" cx="238" cy="378.7" rx="221.8" ry="36"/>
<path class="st1" d="M461.8,363.3c-20.7-30.8-51.8-41.6-85.9-53c-30-45.1-51.3-53.7-85.4-68.3c-28.5-39.3-47-55.2-84.6-72.5
	C185.6,130.3,168,118,133.4,100c-3.2-25.8-26.3-56.3-51.7-77c46.5,0.3,73.8,0.9,118.6,12.6L447.9,266
	C458,301.2,457.1,327.2,461.8,363.3"/>
<path class="st2" d="M461.8,363.3c-20.7-30.8-51.8-41.6-85.9-53c-30-45.1-51.3-53.7-85.4-68.3c-28.5-39.3-47-55.2-84.6-72.5l0,0
	l77.5-56.6L447.9,266C458,301.2,457.1,327.2,461.8,363.3"/>
<path class="st3" d="M461.8,363.3c-20.7-30.8-51.8-41.6-85.9-53c-29.8-44.7-51-53.5-84.6-68l51.1-74.5L447.9,266
	C458,301.2,457.1,327.2,461.8,363.3"/>
<path class="st4" d="M461.8,363.3c-20.7-30.8-51.8-41.6-85.9-53l30.5-82.9l41.5,38.6C458,301.2,457.1,327.2,461.8,363.3"/>
<path class="st5" d="M378.1,65.8c0.9-1.1,0.8-2.7-0.3-3.6c-1-0.9-2.6-0.8-3.5,0.2L105.9,370.8c-1,1-1,2.6,0,3.6c1,1,2.6,1,3.6,0
	c0.1-0.1,0.1-0.1,0.2-0.2L378.1,65.8z"/>
<path class="st6" d="M461.7,363.6c-13.7-43.8-29.9-61-67.1-68.7c-18.9-49.2-56.7-94.6-104.7-113.8c-30.7-50.5-76.1-79-129.8-100
	c-17.9-30.4-33.7-43.8-78.6-58C145.4,8.3,223.4,0.2,277.5,45.6c24.8,14,119,107.1,139.4,130.6C461.2,225.1,466.4,293.2,461.7,363.6"
	/>
<path class="st7" d="M154.8,327.5c1.7-2.2,1.4-5.3-0.8-7.1c-2.2-1.7-5.3-1.4-7.1,0.8l-41.4,49.1c-5.7,7-5.9,14.3-2.9,20.1
	c2.2,4,5.7,7.2,10,8.8c4.5,1.8,9.6,2.1,14.3,0.8c9.3-2.5,18.7-11.1,23-29.2c0.6-2.7-1-5.4-3.7-6.1c-2.7-0.6-5.4,1-6.1,3.7l0,0
	c-3.3,13.9-9.7,20.2-15.8,21.9c-2.6,0.7-5.3,0.6-7.8-0.4c-2.1-0.8-3.8-2.2-4.8-4.1c-1.3-2.4-1-5.7,1.8-9.2L154.8,327.5z"/>
<path class="st8" d="M394.7,295C375.8,245.9,338,200.5,290,181.2l64.4-83.7l0.1,0.1c9.6,7.6,23.1,12.3,40.8,23.6
	C433.3,145.2,400.6,263,394.7,295"/>
<path class="st9" d="M133.4,99.9C130.1,74.1,107,43.6,81.7,23c46.5,0.3,73.8,0.9,118.6,12.6L215.7,50L133.4,99.9z"/>
<path class="st10" d="M283.3,170.8c-30.5-44.1-73.3-70.2-123.1-89.7c-17.9-30.4-33.7-43.8-78.6-58C145.4,8.3,223.4,0.2,277.5,45.6
	c11.6,6.5,38.3,30.3,65.6,56.2L283.3,170.8z"/>
<path class="st11" d="M290,181.2h-0.1c-30.7-50.5-76.1-79-129.8-100c32.5-9.8,134.3-58.6,163.5-25c15.8,18.1,18.5,31.7,30.8,41.4
	L290,181.2z"/>
</svg>
