<?xml version="1.0" encoding="utf-8"?>
<!-- Generator: Adobe Illustrator 25.2.3, SVG Export Plug-In . SVG Version: 6.00 Build 0)  -->
<svg version="1.1" id="Layer_1" xmlns="http://www.w3.org/2000/svg" xmlns:xlink="http://www.w3.org/1999/xlink" x="0px" y="0px"
	 viewBox="0 0 1240 1170" style="enable-background:new 0 0 1240 1170;" xml:space="preserve">
<style type="text/css">
	.st0{opacity:0.3;enable-background:new    ;}
	.st1{fill-rule:evenodd;clip-rule:evenodd;fill:#6126A8;}
	.st2{fill-rule:evenodd;clip-rule:evenodd;fill:#994724;}
	.st3{fill-rule:evenodd;clip-rule:evenodd;fill:#12633B;}
	.st4{fill-rule:evenodd;clip-rule:evenodd;fill:#662159;}
	.st5{fill:#C76E0F;}
	.st6{fill-rule:evenodd;clip-rule:evenodd;fill:#1F99E0;}
	.st7{fill:#FF1A00;}
	.st8{fill-rule:evenodd;clip-rule:evenodd;fill:#FFCC00;}
	.st9{fill-rule:evenodd;clip-rule:evenodd;fill:#D66103;}
	.st10{fill-rule:evenodd;clip-rule:evenodd;fill:#2EA659;}
	.st11{fill-rule:evenodd;clip-rule:evenodd;fill:#FF3300;}
</style>
<ellipse transform="matrix(0.9969 -7.845910e-02 7.845910e-02 0.9969 -79.6231 51.406)" class="st0" cx="614.4" cy="1039" rx="615.1" ry="99.8"/>
<path class="st1" d="M1235.2,996.4C1177.6,910.9,1091.4,881,997,849.3c-83.4-125-142.4-148.9-236.8-189.5
	c-79-108.9-130.5-153-234.8-201.1C469.2,350,420.3,315.9,324.3,266c-8.8-71.6-72.9-156.2-143.3-213.7
	c128.9,0.8,204.7,2.4,328.9,34.9c229,213.1,457.9,426.1,686.9,639.1C1224.7,823.9,1222.1,896.2,1235.2,996.4"/>
<path class="st2" d="M1235.2,996.4C1177.6,910.9,1091.4,881,997,849.3c-83.4-125-142.4-148.9-236.8-189.5
	c-79-108.9-130.5-153-234.8-201.1l-0.1-0.1l214.9-157l456.5,424.7C1224.8,823.9,1222.2,896.2,1235.2,996.4"/>
<path class="st3" d="M1235.2,996.4C1177.6,910.9,1091.4,881,997,849.3c-82.8-124.1-141.6-148.5-234.8-188.6l141.9-206.7l292.6,272.3
	C1224.7,823.9,1222.1,896.2,1235.2,996.4"/>
<path class="st4" d="M1235.2,996.4C1177.6,910.9,1091.4,881,997,849.3l84.7-230l115,107C1224.7,824,1222.1,896.2,1235.2,996.4"/>
<path class="st5" d="M1003.1,171.2c2.3-3.1,1.8-7.5-1.3-9.8c-2.8-2.1-6.7-1.9-9.2,0.6l-744.5,855.3c-2.8,2.7-2.8,7.1-0.1,9.9
	s7.1,2.8,9.9,0.1c0.3-0.3,0.5-0.5,0.7-0.8L1003.1,171.2z"/>
<path class="st6" d="M1235,997.3c-38-121.4-83-169.2-186.1-190.5C996.5,670.4,891.7,544.3,758.5,491
	c-85.2-139.9-211.2-219.1-359.9-277.4c-49.7-84.4-93.5-121.3-217.9-161c177-41,393.3-63.3,543.3,62.6c68.8,38.7,330,297,386.5,362.1
	C1233.5,613,1248.1,801.9,1235,997.3"/>
<path class="st7" d="M383.6,897c4.3-6.4,2.7-15.1-3.7-19.4c-5.7-3.8-13.3-3-18,1.9l-114.8,136.1c-15.7,19.6-16.3,39.8-7.9,55.8
	c6,11.2,15.9,19.9,27.7,24.5c12.6,5,26.4,5.8,39.5,2.2c25.7-6.9,51.8-30.8,63.7-81.1c2.1-7.4-2.1-15.2-9.6-17.3
	c-7.4-2.1-15.2,2.1-17.3,9.6c-0.1,0.4-0.2,0.9-0.3,1.3c-9.1,38.4-26.8,56-43.7,60.6c-7.2,2-14.8,1.6-21.8-1.1
	c-6-2.4-10.9-6.5-13.5-11.5c-3.5-6.8-2.8-15.9,4.9-25.4L383.6,897z"/>
<path class="st8" d="M1049,806.8c-52.4-136.3-157.1-262.2-290.1-315.6L937.5,259l0.3,0.2c26.8,21.1,64.1,34.2,113.3,65.4
	C1156.1,391.3,1065.6,717.9,1049,806.8"/>
<path class="st9" d="M324.2,265.7c-9-71.6-73-156-143.3-213.4c128.9,0.8,204.7,2.4,328.9,34.9l43,40L324.2,265.7z"/>
<path class="st10" d="M740,462.5c-84.5-122.4-203.1-194.6-341.4-248.9c-49.7-84.4-93.5-121.3-217.9-161
	c177-41,393.3-63.3,543.3,62.6c32.1,18.1,106.3,84.1,182,156L740,462.5z"/>
<path class="st11" d="M758.8,491.2l-0.3-0.1c-85.2-139.9-211.2-219.1-359.9-277.4c90.3-27.3,372.5-162.5,453.4-69.5
	c43.7,50.3,51.2,87.8,85.4,114.9L758.8,491.2z"/>
</svg>
