<?xml version="1.0" encoding="utf-8"?>
<!-- Generator: Adobe Illustrator 25.2.3, SVG Export Plug-In . SVG Version: 6.00 Build 0)  -->
<svg version="1.1" id="Layer_1" xmlns="http://www.w3.org/2000/svg" xmlns:xlink="http://www.w3.org/1999/xlink" x="0px" y="0px"
	 viewBox="0 0 650 450" style="enable-background:new 0 0 650 450;" xml:space="preserve">
<style type="text/css">
	.st0{fill:#A54E00;}
	.st1{fill:#B85C00;}
	.st2{fill:#3B1700;}
	.st3{fill:#BCBEC0;}
	.st4{fill:#808285;}
	.st5{fill:url(#SVGID_1_);}
	.st6{fill:#FF9C12;}
	.st7{fill:#FFCA6F;}
	.st8{opacity:0.3;enable-background:new    ;}
	.st9{fill:#E6E7E8;}
	.st10{fill:#FFBB00;}
	.st11{opacity:0.53;fill:#FFBB00;enable-background:new    ;}
	.st12{clip-path:url(#SVGID_3_);}
	.st13{opacity:0.52;fill:#FF9100;enable-background:new    ;}
	.st14{fill:url(#SVGID_4_);}
	.st15{fill:#FF8C00;}
	.st16{clip-path:url(#SVGID_6_);}
</style>
<path class="st0" d="M93.5,169.1c-40.8,0-73.8-33-73.8-73.8s33-73.8,73.8-73.8h463.1c40.8,0,73.8,33,73.8,73.8s-33,73.8-73.8,73.8
	H93.5z"/>
<path class="st1" d="M68.3,28.2h513.4c23.1,0,41.9,18.8,41.9,41.9v50.3c0,23.1-18.8,41.9-41.9,41.9H68.3
	c-23.1,0-41.9-18.8-41.9-41.9V70.1C26.4,46.9,45.2,28.2,68.3,28.2z"/>
<circle class="st2" cx="61.3" cy="95.2" r="12.7"/>
<circle class="st3" cx="61.3" cy="95.2" r="12"/>
<path class="st4" d="M49.3,96.4h23.8c0.1-0.8,0.1-1.6,0-2.4l-23.8,0C49.3,94.8,49.3,95.6,49.3,96.4z"/>
<circle class="st2" cx="588.8" cy="95.2" r="12.7"/>
<circle class="st3" cx="588.8" cy="95.2" r="12"/>
<path class="st4" d="M576.8,96.4h23.8c0.1-0.8,0.1-1.6,0-2.4h-23.8C576.8,94.8,576.8,95.6,576.8,96.4z"/>
<linearGradient id="SVGID_1_" gradientUnits="userSpaceOnUse" x1="429.94" y1="355.965" x2="472.48" y2="355.965" gradientTransform="matrix(1 0 0 -1 0 452)">
	<stop  offset="3.000000e-02" style="stop-color:#894303"/>
	<stop  offset="1" style="stop-color:#894303;stop-opacity:0"/>
</linearGradient>
<polygon class="st5" points="472.5,71.6 432.6,44.7 429.9,112.6 472.5,147.4 "/>
<circle class="st6" cx="429.1" cy="96.6" r="16.1"/>
<circle class="st7" cx="429.1" cy="96.6" r="11.6"/>
<path class="st8" d="M467.8,182.9H445v-3.3c29-6,47.6-34.3,41.6-63.3s-34.3-47.6-63.3-41.6c-29,6-47.6,34.3-41.6,63.3
	c4.9,23.7,25,41.1,49.1,42.6v2.3h-28.6c-15,0-27.2,12.2-27.3,27.2v24c0,15,12.2,27.2,27.3,27.2h22.2v0.7l-0.3,0.6l0.3,0.1v160.3
	c0,2.9,2.4,5.3,5.3,5.3l0,0h10.6c2.9,0,5.3-2.4,5.3-5.3l0,0v-4.3H487v-8.1h-10.3v-6.1H487v-10.9h-13.9v-6.1H487V378h-41.4V261.4
	h22.2c15,0,27.2-12.2,27.2-27.2v-24C495,195.1,482.8,182.9,467.8,182.9z M390.7,127.2c0-24,19.4-43.4,43.4-43.4
	c24,0,43.4,19.4,43.4,43.4c0,19.8-13.4,37.1-32.5,42v-1.6c0-1.5-1.2-2.7-2.7-2.7h-8.8c-1.5,0-2.7,1.2-2.7,2.7v2.8
	C408.2,168.7,390.8,149.9,390.7,127.2z M397.4,226.2v-16.1c0-3.8,3.6-6.9,8.1-6.9h25.6c0.4,0.9,1.4,1.6,2.4,1.6h8.8
	c1,0,2-0.6,2.4-1.6h12.7c4.5,0,8.1,3.1,8.1,6.9v16.1c0,3.8-3.6,6.9-8.1,6.9h-51.9C401.1,233,397.4,229.9,397.4,226.2z M467.8,244.4
	h-10.4c9.7,0,18-5.5,20.6-13v2.8C478,239.8,473.4,244.4,467.8,244.4L467.8,244.4z"/>
<path class="st9" d="M427.7,180.8c-29.6,0-53.5-24-53.5-53.5s24-53.5,53.5-53.5s53.5,24,53.5,53.5
	C481.2,156.8,457.3,180.7,427.7,180.8z M427.7,83.8c-24,0-43.4,19.4-43.4,43.4s19.4,43.4,43.4,43.4c24,0,43.4-19.4,43.4-43.4l0,0
	C471.1,103.3,451.7,83.9,427.7,83.8z"/>
<path class="st10" d="M418,249.9h21.3l0,0v175.4c0,1.8-1.5,3.3-3.3,3.3l0,0h-14.6c-1.8,0-3.3-1.5-3.3-3.3l0,0L418,249.9L418,249.9z"
	/>
<path class="st11" d="M428.6,249.9h10.6l0,0v175.4c0,1.8-1.5,3.3-3.3,3.3l0,0h-7.3l0,0V249.9L428.6,249.9z"/>
<path class="st10" d="M461.4,261.4h-65.6c-15,0-27.2-12.2-27.2-27.2v-24c0-15,12.2-27.2,27.2-27.2h65.6c15,0,27.2,12.2,27.3,27.2v24
	C488.6,249.2,476.4,261.4,461.4,261.4z M395.8,199.9c-5.6,0-10.2,4.6-10.2,10.2v24c0,5.6,4.6,10.2,10.2,10.2h65.6
	c5.7,0,10.2-4.6,10.2-10.2v-24c0-5.7-4.6-10.2-10.2-10.2H395.8z"/>
<g>
	<defs>
		<path id="SVGID_2_" d="M461.4,261.4h-65.6c-15,0-27.2-12.2-27.2-27.2v-24c0-15,12.2-27.2,27.2-27.2h65.6c15,0,27.2,12.2,27.3,27.2
			v24C488.6,249.2,476.4,261.4,461.4,261.4z M395.8,199.9c-5.6,0-10.2,4.6-10.2,10.2v24c0,5.6,4.6,10.2,10.2,10.2h65.6
			c5.7,0,10.2-4.6,10.2-10.2v-24c0-5.7-4.6-10.2-10.2-10.2H395.8z"/>
	</defs>
	<clipPath id="SVGID_3_">
		<use xlink:href="#SVGID_2_"  style="overflow:visible;"/>
	</clipPath>
	<g class="st12">
		<path class="st11" d="M451,244.4h-56.7c-11.9,0-16.7-1.7-16.7-11.7v-22.6c0-10.1,9.7-18.3,21.5-18.3H451
			c11.9,0,21.5,8.2,21.5,18.3v16.1C472.5,236.2,462.9,244.4,451,244.4z M399.1,203.2c-4.5,0-8.1,3.1-8.1,6.9v16.1
			c0,3.8,3.6,6.9,8.1,6.9H451c4.5,0,8.1-3.1,8.1-6.9v-16.1c0-3.8-3.6-6.9-8.1-6.9H399.1z"/>
	</g>
</g>
<polygon class="st10" points="470.3,410.8 470.3,404.7 480.6,404.7 480.6,393.8 466.8,393.8 466.8,387.7 480.6,387.7 480.6,378 
	439.2,378 439.2,418.9 480.6,418.9 480.6,410.8 "/>
<rect x="439.2" y="378" class="st13" width="5.1" height="40.9"/>
<rect x="456" y="378" class="st13" width="5.1" height="40.9"/>
<rect x="421.3" y="258.1" transform="matrix(0.441 -0.8975 0.8975 0.441 0.2095 527.0856)" class="st11" width="3.9" height="10.6"/>
<path class="st0" d="M426.1,165h10.8c0.9,0,1.7,0.8,1.7,1.7v36.4c0,0.9-0.8,1.7-1.7,1.7h-10.8c-0.9,0-1.7-0.8-1.7-1.7v-36.4
	C424.4,165.7,425.2,165,426.1,165z"/>
<path class="st6" d="M423.6,42.8h10.5c1.6,0,2.8,1.3,2.8,2.8V100c0,1.6-1.3,2.8-2.8,2.8h-10.5c-1.6,0-2.8-1.3-2.8-2.8V45.6
	C420.8,44,422.1,42.8,423.6,42.8z"/>
<linearGradient id="SVGID_4_" gradientUnits="userSpaceOnUse" x1="212.8" y1="357.04" x2="255.34" y2="357.04" gradientTransform="matrix(1 0 0 -1 0 452)">
	<stop  offset="3.000000e-02" style="stop-color:#894303"/>
	<stop  offset="1" style="stop-color:#894303;stop-opacity:0"/>
</linearGradient>
<polygon class="st14" points="255.3,70.5 215.5,43.6 212.8,111.6 255.3,146.3 "/>
<circle class="st6" cx="212" cy="95.5" r="16.1"/>
<circle class="st7" cx="212" cy="95.5" r="11.6"/>
<path class="st8" d="M222.7,184.9v-0.7c29.3-3.4,50.4-29.9,47-59.2s-29.9-50.4-59.2-47s-50.4,29.9-47,59.2
	c2.8,24,21.2,43.1,45.1,46.7v1c-24.7,3.5-43,24.7-43,49.6c0,0.4,0,0.7,0,1.1s0,0.7,0,1.1c0,21.3,13.5,40.3,33.7,47.3v120.6
	c2.2,1.6,4.6,2.7,7.2,3.3v1.7h3.5v-1.2c3.1,0.2,6.1-0.3,9-1.4H232V284c20.2-7,33.7-26,33.7-47.3c0-0.4,0-0.7,0-1.1s0-0.7,0-1.1
	C265.7,209.5,247.4,188.4,222.7,184.9z M208.5,201.9v5.6c0,1.5,1.2,2.7,2.7,2.7h8.8c1.5,0,2.7-1.2,2.7-2.7v-5.6
	c4.7,2.5,7.7,7.1,8.1,12.4c-0.6,8.4-7.9,14.7-16.3,14.1c-7.5-0.5-13.5-6.5-14.1-14.1C200.8,209,203.8,204.3,208.5,201.9L208.5,201.9
	z M173.2,131c0-24,19.5-43.4,43.4-43.4c24,0,43.4,19.5,43.4,43.4c0,21.6-15.9,39.9-37.3,42.9v-1c0-1.5-1.2-2.7-2.7-2.7h-8.8
	c-1.5,0-2.7,1.2-2.7,2.7v0.6C188,169.7,173.3,151.8,173.2,131z"/>
<path class="st9" d="M210.2,182.9c-29.6,0-53.5-24-53.5-53.5c0-29.6,24-53.5,53.5-53.5s53.5,24,53.5,53.5v0
	C263.7,158.9,239.8,182.9,210.2,182.9z M210.2,86c-24,0-43.4,19.4-43.4,43.4s19.4,43.4,43.4,43.4s43.4-19.4,43.4-43.4c0,0,0,0,0,0
	C253.6,105.4,234.2,86,210.2,86L210.2,86z"/>
<path class="st15" d="M209.1,184.9c-27.7,0-50.1,22.4-50.1,50.1s22.4,50.1,50.1,50.1c27.7,0,50.1-22.4,50.1-50.1
	S236.8,184.9,209.1,184.9L209.1,184.9z M209.1,229c-8.4,0-15.3-6.8-15.3-15.3s6.8-15.3,15.3-15.3c8.4,0,15.3,6.8,15.3,15.3
	c0,0,0,0,0,0C224.4,222.2,217.6,229,209.1,229z"/>
<path class="st10" d="M192.7,403L192.7,403V273.8h32.8v50.5l-7,5.7l7,9v14.9l-6.8,14.1l6.8,7.7v10.5c0,11.4-9.2,20.7-20.7,20.8
	C200.5,407,196.3,405.6,192.7,403z"/>
<g>
	<defs>
		<path id="SVGID_5_" d="M192.7,403L192.7,403V273.8h32.8v50.5l-7,5.7l7,9v14.9l-6.8,14.1l6.8,7.7v10.5c0,11.4-9.2,20.7-20.7,20.8
			C200.5,407,196.3,405.6,192.7,403z"/>
	</defs>
	<clipPath id="SVGID_6_">
		<use xlink:href="#SVGID_5_"  style="overflow:visible;"/>
	</clipPath>
	<g class="st16">
		<rect x="212.4" y="273.8" class="st10" width="13.2" height="131.8"/>
		<rect x="199.9" y="276.3" class="st10" width="3.5" height="131.8"/>
	</g>
</g>
<path class="st10" d="M209.1,182.7c-27.7,0-50.1,22.4-50.1,50.1s22.4,50.1,50.1,50.1s50.1-22.4,50.1-50.1S236.8,182.7,209.1,182.7
	L209.1,182.7z M209.1,226.8c-8.4,0-15.3-6.8-15.3-15.3s6.8-15.3,15.3-15.3c8.4,0,15.3,6.8,15.3,15.3c0,0,0,0,0,0
	C224.4,220,217.6,226.8,209.1,226.8L209.1,226.8L209.1,226.8z"/>
<path class="st15" d="M222.6,262.5h-26.9c-2.4,0-4.3-1.9-4.3-4.3l0,0c0-2.3,1.9-4.2,4.3-4.2h26.9c2.4,0,4.3,1.9,4.3,4.3l0,0
	C226.9,260.6,224.9,262.5,222.6,262.5z"/>
<path class="st0" d="M203.8,168.7h10.8c0.9,0,1.7,0.8,1.7,1.7v36.4c0,0.9-0.8,1.7-1.7,1.7h-10.8c-0.9,0-1.7-0.8-1.7-1.7v-36.4
	C202.1,169.5,202.8,168.7,203.8,168.7z"/>
<path class="st6" d="M206.8,42.8h10.5c1.6,0,2.8,1.3,2.8,2.8V100c0,1.6-1.3,2.8-2.8,2.8h-10.5c-1.6,0-2.8-1.3-2.8-2.8V45.6
	C204,44,205.2,42.8,206.8,42.8z"/>
</svg>
