<?xml version="1.0" encoding="utf-8"?>
<!-- Generator: Adobe Illustrator 25.2.3, SVG Export Plug-In . SVG Version: 6.00 Build 0)  -->
<svg version="1.1" id="Layer_1" xmlns="http://www.w3.org/2000/svg" xmlns:xlink="http://www.w3.org/1999/xlink" x="0px" y="0px"
	 viewBox="0 0 520 520" style="enable-background:new 0 0 520 520;" xml:space="preserve">
<style type="text/css">
	.st0{opacity:0.5;enable-background:new    ;}
	.st1{fill:#C40E0E;}
	.st2{fill:#EB1413;}
	.st3{opacity:0.69;fill:#870100;enable-background:new    ;}
	.st4{fill:#319422;}
	.st5{fill:#30CF64;}
	.st6{fill:#2D871F;}
	.st7{fill:#2E8A20;}
	.st8{opacity:0.6;fill:#FFFFFF;enable-background:new    ;}
	.st9{fill:#2EC45F;}
	.st10{fill:#D5E876;}
	.st11{fill:#BECF69;}
	.st12{opacity:0.5;fill:#FF6C6B;enable-background:new    ;}
	.st13{fill:#FA5150;}
	.st14{opacity:0.69;fill:#FFFFFF;enable-background:new    ;}
	.st15{opacity:0.64;fill:#FF6C6B;enable-background:new    ;}
</style>
<path class="st0" d="M502.8,331.2c-2-0.5-22.3-6.2-25.9-5.6c-5.2-0.9-10.5-1.6-15.8-2.3c1.2-10.4,1-24-7.4-27c0,0-23.9,4-25.1,8
	c0,0,9.1,7.4,12.1,17.3l-3.9-0.2c-3.2-2-6.3-4.1-9-5.8c-14.5-8.7-42.6-5.9-42.6-5.9s25.1,1.6,33.1,8.2c1,1,2,2,2.9,3.1
	c-50.1,0.1-98.8,10.9-125.9,31.3c-4.4,3.2-8.3,7-11.7,11.2c-11-4.3-25.8-5.1-25.8-5.1s12.9,3,20.4,7.8
	c-61.2-6.1-127.4,4.4-160.8,29.6c-46,34.7-7.8,77.4,65.3,94.5c83.8,19.6,145.2,12.6,187.7-9.1C387.7,493.1,507.6,332.5,502.8,331.2z
	"/>
<path class="st1" d="M487.7,301.4C445.5,372.1,377.6,403.7,278,352c-73.1-37.9-111.3-132.6-65.3-209.6
	c42.2-70.7,136.9-89.3,207.6-47.1S529.9,230.7,487.7,301.4z"/>
<path class="st2" d="M480,292.4c-38.9,65.1-106.1,84-193.9,40.4c-67.6-33.6-103.9-126-65-191.1S355,58.2,419.8,96.9
	S518.9,227.3,480,292.4z"/>
<path class="st3" d="M331.6,58.7c0,0,3.8-4.8,13.3,5.3c10.4,11.1,22.5,32.4,31.5,27.4c41.7-23.4,59.4-8.9,59.4-8.9
	s-28.3,7.7-41.5,26.8c-6,8.6,51,13.5,33.1,52.3c0,0,0.3-7.4-7.3-16.8c-12.1-15.1-31.7-23.4-49.8-24.2c-21.8-1-55.3,11.1-60.3,51.5
	c0,0-10.8-58.9,37.4-62.1c0,0-21-7.3-36.6-8.4c-8.3-0.6-32.8,4.3-44.2,21.1c0,0,15.3-32.5,45-32c9.1,0.1,29.8,0.5,29.8,0.5
	s2.8-7.1-5.6-24.9C330.8,56,331.6,58.7,331.6,58.7z"/>
<path class="st4" d="M302.6,47.9c0,0,28.1-6.3,42.6,13c9.1,12.2,22.2,35.4,31.1,30.4C418,68,459.7,76.2,459.7,76.2
	S399,83,392.1,105.4c-3.1,10,63.3,14.4,42.6,61.5c0,0-1.4-24.4-17.9-35c-21.1-13.5-34.4-12.7-52.4-11.6
	c-26.4,1.7-60.8,15.2-65.8,55.6c0,0,0.6-62.8,48.8-66c0,0-11.2-9.2-31-13.5c-8.1-1.8-50.6-2.3-62,14.5c0,0,21.4-30,62.9-26.3
	c13.5,1.2,31.3,11.8,31.3,11.8s-3.5-12.9-13-30.3C327.7,51.5,302.6,47.9,302.6,47.9z"/>
<path class="st5" d="M327.2,53.3c0,0,8.6-1,23.1,18.3c9.1,12.2,7,33.6,18.3,27c41.2-24.2,66.3-20.7,66.3-20.7s-41.2,6.6-48.4,28.9
	c-2.1,6.4,48.5,13.1,46.8,39.9c0,0-2.4-5.4-11.3-13.1c-16.1-14-44.5-20-56.7-19.2c-26.4,1.7-39,11.1-58.3,30.3
	c0,0,11.7-31.2,51.3-33.2c0,0-16.4-13.4-36.3-17.8c-8.1-1.8-18.7-5.9-42.5,1.7c0,0,16.4-13.1,38.1-8.3c14.6,3.2,35,12.9,35,12.9
	s-1.9-10.6-9.9-30.4C336.4,54,327.2,53.3,327.2,53.3z"/>
<path class="st6" d="M381.1,104.6c2.3,4.8-5,10.4-13,11.6s-17.6-2.2-15.9-7.2c2.9-8.8,10.8-9.4,16.3-10.3
	C376.5,97.3,378.3,98.7,381.1,104.6z"/>
<path class="st7" d="M346,35.8c0,0,18.8,33.9,11.4,69.3c0,0,11.3,10.1,19,0.2c0,0,8.8-76.4-5.3-87.2C371,18.2,347.1,27.1,346,35.8z"
	/>
<path class="st8" d="M349.2,36.2c0,0,19.6,35.8,11.6,71c1.8-0.6,3.4-1.6,4.9-2.7c1.9-24.8,1.2-53.8-5.6-77.2
	C355.6,29.2,351.9,32.3,349.2,36.2z"/>
<path class="st9" d="M370.4,25c-3.6,0.2-7.1,1-10.4,2.4c6.8,23.4,7.5,52.4,5.6,77.2c2.4-1.6,5.3-6.1,7.4-10.5
	C373,94,383.1,45,370.4,25z"/>
<path class="st10" d="M370.3,24.9c-0.5-1.1-5.3,0.2-10.4,2.6c-2.9,1.4-5.6,3.2-8,5.2c5,0.8,10.2-0.3,15.3-2
	C369.3,28.2,370.6,25.6,370.3,24.9z"/>
<path class="st11" d="M351.8,32.8c-1.9,1.5-3,2.9-2.8,3.4c0.5,1.1,7.1,1.8,12.3-0.6c2.3-1.2,4.3-2.8,5.8-4.8
	C362,32.5,356.8,33.5,351.8,32.8z"/>
<path class="st12" d="M283.9,121.4c0.1,0.1,0.1,0.3,0.2,0.4c3.2,6.6,0.8,14.5-5.5,18.2c-14.9,8.6-36.7,27.7-45,68
	c0,0-16.9-48.5,28.4-90.8c5.6-5.2,14.4-4.9,19.6,0.7C282.5,119,283.3,120.1,283.9,121.4z"/>
<path class="st13" d="M463.7,227.9c-3.8,2-7.9,3.2-12.1,3.6c-4.5,0.4-8.1,3.9-8.5,8.4c-1.7,18.6-10.4,62.1-54.6,94.7
	c0,0,52.5-2.8,75.5-56c8.1-18.7,11.7-31.9,13.2-41c0.8-5.1-2.6-9.8-7.7-10.6C467.4,226.7,465.4,227,463.7,227.9z"/>
<ellipse transform="matrix(0.1858 -0.9826 0.9826 0.1858 124.5851 653.0048)" class="st14" cx="456.3" cy="251.3" rx="15.6" ry="9.4"/>
<ellipse transform="matrix(0.3075 -0.9515 0.9515 0.3075 37.2908 620.8263)" class="st14" cx="445.2" cy="284.8" rx="8.3" ry="6.8"/>
<path class="st1" d="M309.9,397.7c-42.2,70.7-110.1,102.3-209.7,50.7C27,410.5-11.2,315.7,34.8,238.7
	c42.2-70.7,136.9-89.3,207.6-47.1S352,327,309.9,397.7z"/>
<path class="st2" d="M302.1,388.8c-38.9,65.1-106.1,84-193.9,40.3c-67.6-33.6-103.9-126-65-191.1s133.9-83.5,198.7-44.8
	S341,323.6,302.1,388.8z"/>
<path class="st3" d="M199,175.7c0,0,5.2-3.3,10.8,9.3c6.1,13.9,10.6,38,20.7,36.3c47.1-8.3,59,11.3,59,11.3s-29.2-2.1-48,11.6
	c-8.5,6.2,43.7,29.6,14,60.4c0,0,2.7-6.8-1.3-18.3c-6.4-18.2-22.2-32.6-39-39.3c-20.3-8.1-55.8-7.8-74,28.7c0,0,9.3-59.1,55.8-46.2
	c0,0-17.4-13.8-31.8-20.1c-7.6-3.3-32.3-6.8-48.7,5.3c0,0,25.2-25.6,53-15.4c8.6,3.1,27.9,10.3,27.9,10.3s5-5.8,2.9-25.4
	C199.2,172.9,199,175.7,199,175.7z"/>
<path class="st4" d="M175.2,156c0,0,28.6,3.4,35.9,26.4c4.6,14.5,9.2,40.8,19.3,39c47.1-8.3,83.7,13.2,83.7,13.2
	s-59.5-13.7-73.4,5.3c-6.2,8.5,55,34.5,19.9,72.2c0,0,6.7-23.5-5.3-38.9c-15.4-19.7-28.2-23.4-45.6-28.3
	c-25.5-7.1-62.3-5.8-80.5,30.7c0,0,21.3-59.1,67.8-46.1c0,0-7.5-12.4-24.8-23c-7.1-4.4-47-18.9-63.3-6.8c0,0,30.1-21.3,68-4
	c12.4,5.6,25.7,21.5,25.7,21.5s0.9-13.4-2.3-32.9C197.7,167.6,175.2,156,175.2,156z"/>
<path class="st5" d="M196.6,169.2c0,0,8.5,1.9,15.8,24.9c4.6,14.5-4.4,34,8.3,31.5c46.9-9.2,69.4,2.4,69.4,2.4s-41-7.4-55.2,11.3
	c-4.1,5.4,41.4,28.3,31,53.1c0,0-0.5-5.8-6.3-16.1c-10.6-18.5-35.4-33.6-47.1-36.8c-25.5-7.1-40.5-2.4-65,9.3
	c0,0,21.4-25.5,59.4-14.4c0,0-11.1-18.1-28.4-28.7c-7-4.4-15.7-11.8-40.7-12.5c0,0,19.8-6.9,38.7,4.8c12.7,7.8,28.7,23.7,28.7,23.7
	s1.7-10.7,0.7-32C205.1,172.9,196.6,169.2,196.6,169.2z"/>
<path class="st6" d="M230.6,235.4c0.6,5.2-8.2,8.1-16.1,6.6s-15.8-7.9-12.6-12.1c5.6-7.3,13.3-5.4,18.8-4.4
	C228.6,227,229.9,228.9,230.6,235.4z"/>
<path class="st7" d="M220.1,158.9c0,0,6.6,38.3-12.2,69.2c0,0,7.3,13.3,17.8,6.5c0,0,33.5-69.2,23.9-84
	C249.6,150.5,224.1,151,220.1,158.9z"/>
<path class="st8" d="M223.1,160.3c0,0,6.7,40.3-12.5,70.9c1.9,0,3.7-0.4,5.5-0.9c10-22.8,18.9-50.4,20.2-74.7
	C231.5,155.8,226.9,157.5,223.1,160.3z"/>
<path class="st9" d="M246.8,156.7c-3.4-1-7-1.4-10.6-1.2c-1.3,24.3-10.2,51.9-20.2,74.7c2.8-0.8,7-4,10.4-7.5
	C226.5,222.8,252.2,179.7,246.8,156.7z"/>
<path class="st7" d="M248.4,155.9c0.1,1.5-2.6,9-12.2,9c-8.5,0.1-13.1-2.5-13.2-4s-0.2-5,11.7-6.7
	C240.3,153.5,248.3,154.4,248.4,155.9z"/>
<path class="st10" d="M246.7,156.6c-0.1-1.2-5-1.5-10.7-1c-3.2,0.4-6.3,1.1-9.3,2.3c4.4,2.4,9.7,3.1,15.1,3.1
	C244.7,159.3,246.7,157.3,246.7,156.6z"/>
<path class="st11" d="M226.7,157.9c-2.3,0.9-3.8,1.8-3.8,2.3c0.1,1.2,6.1,4.1,11.8,3.5c2.5-0.4,5-1.3,7.1-2.6
	C236.4,161,231.1,160.3,226.7,157.9z"/>
<path class="st15" d="M106.1,217.7l0.2,0.4c3.2,6.6,0.8,14.5-5.5,18.2c-14.9,8.6-36.7,27.7-45,68c0,0-16.9-48.5,28.4-90.8
	c5.6-5.2,14.4-4.9,19.6,0.7C104.7,215.3,105.5,216.5,106.1,217.7z"/>
</svg>
