<svg xmlns="http://www.w3.org/2000/svg" xmlns:xlink="http://www.w3.org/1999/xlink" viewBox="0 0 1600 900"><defs><style>.cls-1{fill:none;}.cls-2{isolation:isolate;}.cls-3{clip-path:url(#clip-path);}.cls-4{fill:#032616;}.cls-5{fill:#011c24;}.cls-6{fill:#042f33;}.cls-7{fill:url(#linear-gradient);}.cls-8{fill:#d85620;stroke:#b03f25;}.cls-18,.cls-22,.cls-8{stroke-width:0.15px;}.cls-9{fill:#ee9b00;}.cls-10{opacity:0.5;}.cls-10,.cls-14,.cls-15,.cls-16,.cls-17,.cls-19,.cls-21,.cls-23,.cls-24,.cls-25,.cls-26,.cls-27{mix-blend-mode:multiply;}.cls-11,.cls-14,.cls-17{fill:#b03f25;}.cls-12{fill:#fcc253;opacity:0.58;mix-blend-mode:overlay;}.cls-13{fill:#ee9b15;}.cls-14,.cls-25{opacity:0.29;}.cls-15{opacity:0.4;}.cls-16{opacity:0.48;}.cls-17{opacity:0.53;}.cls-18{fill:#62a402;stroke:#557a42;}.cls-18,.cls-22{stroke-linecap:round;stroke-linejoin:round;}.cls-19{opacity:0.28;}.cls-20{fill:#009c5d;}.cls-21{opacity:0.66;}.cls-22,.cls-23{fill:#ffe01f;}.cls-22{stroke:#f39600;}.cls-24{opacity:0.67;}.cls-26{opacity:0.37;}.cls-27{fill:#fbcc00;opacity:0.47;}.cls-28{fill:#094c26;}.cls-29{fill:#fff;}.cls-30{fill:#faf045;}.cls-31{fill:#ff1187;}.cls-32{fill:#185426;}.cls-33{fill:#2c7138;}.cls-34{fill:#21602e;}.cls-35{fill:#fee5d8;}.cls-36{fill:#e6c055;}.cls-37{fill:#e3a650;}</style><clipPath id="clip-path"><rect class="cls-1" width="1600" height="900"/></clipPath><linearGradient id="linear-gradient" x1="5082.52" y1="1766.85" x2="6506.09" y2="140" gradientTransform="matrix(-1, 0, 0, 1, 6580, 0)" gradientUnits="userSpaceOnUse"><stop offset="0.14" stop-color="#0c2622"/><stop offset="0.79" stop-color="#0e3025"/></linearGradient></defs><g class="cls-2"><g id="Layer_1" data-name="Layer 1"><g class="cls-3"><path class="cls-4" d="M278.5,855.45s-.72-55.15-68.16-39.14c0,0,30.46-44.48,73.24-8.9,0,0-.72-44.48-46.41-67.61,0,0,41.72-15.12,74.52,67.61,0,0-16.51-84.51-25.93-89.85,0,0,34.32-1.78,38.55,87.18,0,0,5.34-54.27-12.62-87.18,0,0,37.25,7.12,25.24,84.52,0,0,17-71.17,61.95-64.06,0,0-47.8,52.49-48.92,87.18,0,0,26.44-34.69,56.9-24,0,0-55.05,31.13-56.9,61.38l-32.3,22.24Z"/><path class="cls-5" d="M1236.73,833.45s-119.56,1.5-123.36-23.52,99.56-4.32,141.76,11.88c-128.56-77.78-61.2-32.28-98.49-60s-7-52.65,57.76-12.49c53.53,41.07,69.29,53.06,69.29,53.06s-45-62-64.37-95.85,17-67.58,60.59-10.81c3.23-21.71,3.49-23.85,3.49-23.85s-3.75,32.47-.7-5.18,46.09-25.23,34,31.71c20.06-24.4-7,4.23,22.61-22.15s74-14.3,39.32,38.21-23.86,37.49-23.86,37.49l-24.92,33.49L1404,740.94c51.46-26.38,78.29-12.4,22.79,31.81-36.6,24.55-67.93,43.92-67.93,43.92s33.62-8.07,88-23.11,60.53,21.71-2.09,35c-75.47,1.18-208,4.87-208,4.87"/><path class="cls-6" d="M1319.22,815.74l122.85-76.55s-104.3,71.43-122.85,76.55"/><path class="cls-6" d="M1305.32,780.11,1368,675.28s-44.54,89.9-62.65,104.83"/><path class="cls-6" d="M1295.58,657.1s-1.52,120,3,136.07c5.54-7.08,1.84-134.72-3-136.07"/><path class="cls-6" d="M1292.79,786.22s-60.36-100.85-61.89-105,66,88.78,61.89,105"/><path class="cls-6" d="M1334.49,827.14s111.7-18.44,128.43-24.59-46.39,18.71-128.43,24.59"/><path class="cls-6" d="M1161.6,744.54s102.45,73.57,115.54,79.38c0,0-104.75-79.85-115.54-79.38"/><path class="cls-6" d="M1250.36,828.08s-121-12.67-123.69-14.4,110.83,9.75,123.69,14.4"/><path class="cls-6" d="M1325.52,746.31l35.86-15.58s-31.4,8.12-35.86,15.58"/><path class="cls-6" d="M1335.48,729.65s-7.9-25.9-9-28.7,11.6,17.55,9,28.7"/><path class="cls-6" d="M1348.47,712.86s33.67-14.28,34-17.44-29.42,14.8-34,17.44"/><path class="cls-6" d="M1348.66,704.14l-6.73-21.23s10.38,11.65,6.73,21.23"/><path class="cls-6" d="M1342.09,801.49s14-27.21,18.41-30.06-15,25.48-18.41,30.06"/><path class="cls-6" d="M1365.49,789.74,1408.86,779s-23.63,1.33-43.37,10.79"/><path class="cls-6" d="M1401.13,764.7s2-18.3,5.8-21.15-1.9,18.72-5.8,21.15"/><path class="cls-6" d="M1417,756.1l28-7s-9,5.8-28,7"/><path class="cls-6" d="M1398.05,816.14s28.64-14.16,37.3-15.7-19,9.91-37.3,15.7"/><path class="cls-6" d="M1411.75,816s44.49,1.49,50.89-.57-43.88-.89-50.89.57"/><path class="cls-6" d="M1373.69,822.84l43.44,3.37s-28.75-5.32-43.44-3.37"/><path class="cls-6" d="M1301.12,730c0-1.45,13.73-16.81,13.73-16.81s-8.29,2-13.76,15.36"/><path class="cls-6" d="M1294.46,715.58s-10.06-15-10.62-14.41,9.65,3.08,10.62,14.41"/><path class="cls-6" d="M1300,696l9-21.62a27.24,27.24,0,0,0-9,21.62"/><path class="cls-6" d="M1272.34,741.1s.29-31.17.71-32.55-7.22,16.38-.71,32.55"/><path class="cls-6" d="M1251.12,708.72s-4.81-16.86-3.06-22.93,4.29,17.49,3.06,22.93"/><path class="cls-6" d="M1256.3,725l-26.14-10.79A52.32,52.32,0,0,1,1256.3,725"/><path class="cls-6" d="M1277.39,760.44,1252,754s16.13.46,25.42,6.43"/><path class="cls-6" d="M1189.8,760.46s-14.18-16.13-15.17-20.12,13.24,8.67,15.17,20.12"/><path class="cls-6" d="M1207.27,777l-33.35-6.64s17.43-.26,33.35,6.64"/><path class="cls-6" d="M1223.59,784.19c.08,0-8.11-13.24-6.35-19.93s3.6,13.75,6.43,20"/><path class="cls-6" d="M1245.27,800s-5.82-15.78-5.17-21,8.76,15,5.17,21"/><path class="cls-6" d="M1178.62,804.8l34.2,17.2s-14-1.88-34.2-17.2"/><path class="cls-6" d="M1162.66,816.4s-24-9.09-27.69-12.59,23.94,7.68,27.69,12.59"/><path class="cls-6" d="M1192.66,821.88s-32.22,5.26-39.32,5.19,19.17-5.32,39.32-5.19"/><path class="cls-7" d="M1627.72,1030.62q-107.21.44-214.4,1.26c-236.74,1.77-473.46,4.62-710.2,6.75q-175.67,1.57-351.36,2.4-88.53.36-177.06.38c-50,0-99.77-4.05-149.34-9.21-45.67-5.2-91.48-10.84-137.45-14.55,5-30.09,9.89-60.22,13.36-90.43q6.54-57,10.57-114.1C-82.64,736.63-80,660-79,583.41q.33-24.72.45-49.44c14-1.49,27.24-1.48,39.6,4.23,15.44,7.14,31.3,24,32.67,66.89,31.85-50.18,93.83-90.85,113.84-42.76,5.68,13.66,8.32,22.89,9.18,29.12a201.23,201.23,0,0,0,13.77-18.73C186.2,522.27,218,567,190.61,588.3s-56.55,24.49-56.55,24.49l56.55.12c104.65,8.09,12,27.39,12,27.39l-70.46-9.45,6.58.89c63.88,8.56,92,36.15,128.63,110.68,50.91-6.88,113-2.3,93.87,69.94,43-18.34,84.64-19.48,115.81,27.51C500.57,825,585.53,794,620.92,856.27c0,0,76-58.81,160.3.81,6.36-24.08,87.5-59.62,108.19,0,6.36-5.73,52.5-25.23,81.13,3.44,37.11-54.08,222.12-47.64,233.88-27.52,14.31-27.52,101.82-57.33,101.82,2.29,36.59-31,152.73-40.13,157.5,37.84,3.18-43.56,117.68-105.46,165.43-45.9-.05,1.33-.11,2.67-.16,4C1626.54,897.72,1626.66,964.17,1627.72,1030.62Z"/><path class="cls-8" d="M115.14,505.86s48.18-29.59,60.25-33.19,27.75-18,13.16-35.41-58.43-14.77-76.31,30.35S108.87,507.67,115.14,505.86Z"/><path class="cls-9" d="M108.4,502.24a.35.35,0,0,0,.43-.22c12-29.3,45.68-53.26,45.55-53.47S120.1,472.17,108,501.68a.42.42,0,0,0,.25.55Z"/><g class="cls-10"><path class="cls-11" d="M112.24,467.61a73,73,0,0,1,13.22-21.89c-4.42,8-9.71,19.15-9.65,26.74,0,13.27,6.37,1.69,7.37,7.29s17.12.8,27.65-4.76c9.27-4.94,28-9.74,39.82-12.84a30.74,30.74,0,0,1-15.26,10.52c-12.07,3.6-60.25,33.19-60.25,33.19C108.87,507.67,94.41,512.72,112.24,467.61Z"/></g><path class="cls-12" d="M190.64,452.28C187.17,460,175.21,464,168,466.54c-21.74,7.87-23.46,7.93-17.18,3.59s-14.06,8.81-13.84,4.77,15.8-13.18,15.8-13.18-13.55,9.19-12.35,4.46,5.77-9,6.7-9.76-6.64,7.15-7.9,5.6,7.15-10.62,7.15-10.62-13.88,13.76-14.36,10.81,8-15.61,3.65-10.43-9.5,13.41-8.08,7-1.53-3.95-3.09-3-3-8.16,19.75-21.58c8.27-4.92,18.69-7.12,28.08-4.7,7,1.73,16.13,6.66,18.52,13.95A12.12,12.12,0,0,1,190.64,452.28Z"/><path class="cls-8" d="M100.39,503.13S143.77,410,79.94,407c-19.17,1.81-28.48,30.39-11.09,73.11C84.6,508.45,99,513.73,100.39,503.13Z"/><path class="cls-9" d="M88.07,506.74a.62.62,0,0,0,.66-.32c7.48-27.85-4.14-66.54-4.4-66.41s10.58,39.07,3.36,66.12c-.09.23.14.5.38.61Z"/><g class="cls-10"><path class="cls-11" d="M84.87,467.42c14.34-9.14,5.3,21.07,20.37,4.56,10-10.85,8.5-32.11,6.43-45.23,11.16,28.15-11.28,76.38-11.28,76.38-1.36,10.6-15.79,5.32-31.54-23-6.75-16.61-9.47-31.05-9.14-42.62C63.15,456,74.85,473.68,84.87,467.42Z"/></g><path class="cls-12" d="M111.57,451.86s4-35.71-21.71-41.59c-11.24-2-35.46,2.94-22.14,40.54,3.84,12.55,5.58,1.28,5.39-1.58s1.22,3.87,3.17,6.43,1.56,1.66,1.67-3.82-.13-3.73,3.08,2.71,3.2,11,3.15,2.4,0-6.86,1.91-1.51.77,16.52,1.85,5.45,1.84-18.43,2.55-12.61,1.94,16.07,3,7.87,1.66-13,3.2-7.08,3.9,16.61,4.81,9.5,1.22-11.58,2.09-7.15,3.08,18.47,3.65,7.05,0-11.49,1.16-6.74S111.19,456.7,111.57,451.86Z"/><path class="cls-8" d="M83.91,500.58s-38.72-84.66-100.27-65c-26.55,12.12-9.66,48.32,32.5,55.84,35.53,8.47,57.65,20.34,57.65,20.34S86.57,500.08,83.91,500.58Z"/><path class="cls-13" d="M79.48,506.08S54,471.49,9.9,459.49c1.75.8,36.73,9.05,69.24,47.82A2.28,2.28,0,0,0,79.48,506.08Z"/><path class="cls-12" d="M51.11,459.62s-21.92-31-64.69-22.34c-15.34,5.46-22.59,35,26.4,45,14.23,3.32,6.57.28-3.34-3s-4.69-3.72,2.59-2,3.67.47.14-1.1-12-.7-17.58-6.28S4.27,470.85,9,472s4.28.25-1.4-4.83-3.7-2.43,5.11.42,7.89,1.25,1.85-3.2-2.15-3.17,7.34.94,26.05,12,15.78,4.86S20.57,460,29.88,463.5s7-.28-1.11-4.75-5.5-1.82,2.85.37,5.75-2.42-.15-5.75-1.18-2.15,9.34,3.49,9.45,2.37.7-3.36S43.52,456.05,51.11,459.62Z"/><path class="cls-8" d="M128.47,509.3s41.72-9.76,66.8,0,51.24,3.56,49-19.16S193.57,458.64,161.1,473s-43.91,23.25-41.84,30.84S128.47,509.3,128.47,509.3Z"/><path class="cls-9" d="M121,506.75a1.14,1.14,0,0,0,.29,0c31.55-31.42,80-26.92,80.05-27.16s-48.85-5.1-80.58,26.47a.45.45,0,0,0,0,.56.27.27,0,0,0,.19.12Z"/><g class="cls-10"><path class="cls-11" d="M161.1,473a80.93,80.93,0,0,1,9.52-3.42c-13.08,6.6-24.07,15.93-28.74,21.52-8.17,9.56,10.85,3.18,61.36,12.49,21,3.93,32.59,7.59,40.09-3.94-5.06,14.74-27,17.75-48.06,9.62-25.08-9.72-66.8,0-66.8,0s-7.16,2.14-9.21-5.47S128.71,487.38,161.1,473Z"/></g><path class="cls-12" d="M236.88,480.83a33.7,33.7,0,0,0-9.23-6.41A67.77,67.77,0,0,0,204.59,469c-6.12-.5-13.42-1-19.43.26-19.19,4.17-4.09,2.65,3,3.56s-5.79.44-10.1,2.48,8.85.54,14.76,1.29-5.76.14-10.51,1.53,1.36.73,9,1.43-17.49,2.09-23.8,4.45,16.78-.74,21.73.77-6.72.88-5.79,2.67,8.06,2.23,14.17,3.57-18.21-1.49-18.18.51,3.47,2.48,13.86,4.11,19.94,5.69,32.11,7.25c6.87.88,15.39-.53,16.69-8.6C243,489.11,240.51,484.49,236.88,480.83Z"/><path class="cls-8" d="M230.72,569s25.78,0,25.35-17.18-13.14-36.57-60.59-47.3-64.9.36-63.52,7.8,8.22,12.43,12,13.24S225,561.92,230.72,569Z"/><path class="cls-9" d="M218.67,523.12c0-.28-2.27-1.29-4.06-2.24-10.77-5.85-39.28-21.28-82-11.06a.38.38,0,0,0-.28.52.36.36,0,0,0,.46.3C178.54,498.34,218.64,523.35,218.67,523.12Z"/><path class="cls-14" d="M163.84,500.05c-4,.43-8.26,1.23-11.13,2.76-5.21,2.81,1.95,3.64,8.47,4.16-4-.11-8.79.07-10.33,1.35-3.23,2.72-2,2.59,7.73,4.72s-6.42.91-7.67,1.63,15-.69,32.12,9.23,22.12,13.77,34.91,21.75c8.52,5.32,16.36,15.47,25.38,21.23a45.68,45.68,0,0,1-12.6,2.08c-5.75-7-82.94-42.64-86.73-43.44s-10.6-5.73-12-13.24C131,506.81,140.08,499.38,163.84,500.05Z"/><path class="cls-12" d="M248.4,534.05s-12-16-39.25-23.17c-19.38-5.61,13.55,6.33,17.56,10.89s-9.66-5.29-14.75-5.94,6.06,3.95,9.61,7.86-10.67-4.22-9.2-2.3,12.21,10.17,4.64,6.3-20.71-11-13.62-5.49,6.74,5.45-2.1,2.92-2.55,2,1.63,5.06-8.89-6.59-11.42-4.92,12,6.33,31,22.14C248.8,569.12,265,559.72,248.4,534.05Z"/><path class="cls-8" d="M195.65,591.6s16.39,9.89,24,17.75,25.75,11.06,28.52-10.56-28.27-55.32-63.3-71-45.42-8.85-46-4.57-.32,9.4,7.34,16.86S195.65,591.6,195.65,591.6Z"/><path class="cls-9" d="M212.88,569.43c.16-.18-34.16-42.87-73.11-44.13a7.35,7.35,0,0,0-1.17.09c1.26.16,0,.91.16.93C177.33,527.6,212.77,569.49,212.88,569.43Z"/><g class="cls-15"><path class="cls-11" d="M182.9,527a55.32,55.32,0,0,0-8.18-1c-16.29-.58-18.36-4.3-6.86,4.33s14.55,7.6,2,4.26-13.43-7.47-4.28,4.08,13.64,17,20.76,26.49c4.49,6,13.64,22.5,21.56,34.61-6.4-4.55-12.3-8.17-12.3-8.17s-41.78-44.1-49.43-51.55-7.87-12.66-7.34-16.86S149.45,512.35,182.9,527Z"/></g><path class="cls-12" d="M228.36,565.09s20.08,11.17,18.77,32.56-24.83,21.74-46.95-16.48c-21.61-30.86,15.28,5.81,18.56,7.13s-13.82-15.32-7.8-10.78,8,6.74,5.19,2.06-3.65-7.07.13-3.37,8.83,7.4,4.15-.93-.1-5.78,5.55-.48,2.6-2.56-4.45-10.31,6,2.23,10.62,6.81S232.33,567.61,228.36,565.09Z"/><path class="cls-8" d="M76.59,511.75s-52.32-29.13-107.92-18.6C-66,501.2-64.82,515.62-64.11,526.88s12.82,27.93,73,8.92c47.63-12,71.52-13.24,71.52-13.24Z"/><path class="cls-13" d="M81,516.33s-53.58-24.47-95.54-4.24c4.11-1.73,35.66-18.28,96.31,5.18C82.2,517,81,516.33,81,516.33Z"/><g class="cls-16"><path class="cls-11" d="M45.3,507.12C35.6,503.89,6.48,505,6.48,505c25-4.83,45.08,2.33,32.8-4.91-5.58-3.37-19.42-6.4-32.78-8.67,39.36,3.2,70.09,20.33,70.09,20.33l3.79,10.81S56.49,523.8,8.86,535.8c-32,10.06-50.41,10.12-60.77,6.24,14.24-2.57,29.31-10.87,41-16C13.16,515.64,54.94,510.38,45.3,507.12Z"/></g><path class="cls-12" d="M4.11,494.38S-47.16,491-57.11,510.12s2,34.14,36.2,18.13,17.68-14.71,8.83-13S-4,510.54,1,510.06s-9.14-.61-11.84.24,18.44-4.84,20.4-4.59-10.64.38-19.21,2.11-4.47-3.4,2.08-4.86-3-3.6-7.44-2.67S-3.59,493.71,4.11,494.38Z"/><path class="cls-17" d="M132,488s-8.34,6.23-10.43,1-.34-6.07-4-4.4-4.73,1.57-4.92-2.37-1.63-5.36-3.6-2-5.11,6.29-6.58,2.65-3.79,2.73-6.71,1.71-4.39-9.18-4.74-6.43-.75,9.4-5.42,5.35-6.23-3.83-6.25.06-4.06-.52-6.6-2.56,2.42,2.9,2.26,7.81-6.43-3.6-5.47.42-.91,5.45-4.68,3.05,3.06,4.46-1,4.14-2.39.14-.92,2.06-3.84,3.2-9.41,2.87,5,1.53,4.62,2.76-7,2.15-8.65,1.93,8.52,2.19,12.16,4.13,7.21,2.44,1.58,4.49-.46,3.58.83,5.5,31.58,5.58,31.58,5.58l43.93-4.75a16.74,16.74,0,0,1,14.84-3.22c9,2.19-3-1.47-8-1.23s-5.32-2.2-1.87-2.39,2.88-2.23-2.32-2.27-10.05-.24-3.19-1.89,3.51-2.13.28-2.18-3.17-1.88-1.88-2.16,4.81-3.91,1.28-3.26-8.55,3-3.48.63,2.15-3.64-3.07-3S132.86,491.37,132,488Z"/><path class="cls-18" d="M146.29,1050.73a6.86,6.86,0,0,0,7.39-4.74c7.48-23.67,11.26-49.76,11.23-77.54-.07-41.2-7.46-86.29-22.69-137.75-5.16-17.36-11.32-34.73-17.16-51.55-8.71-24.82-17.71-50.52-23.67-76.28-10.52-45.91-8.77-94.42,4.77-129.7a6.82,6.82,0,0,0-12.74-4.9C78.92,606,76.93,657.47,88.1,705.93c6,26.52,15.22,52.58,24.1,77.78,5.83,16.61,11.83,33.85,16.89,50.88,14.84,50.17,22.1,93.94,22.09,133.85.07,26.39-3.53,51.09-10.57,73.48a6.8,6.8,0,0,0,4.45,8.53,7.31,7.31,0,0,0,1.23.28Z"/><g class="cls-19"><path class="cls-20" d="M93.42,568.27a6.82,6.82,0,0,1,12.74,4.9c-13.54,35.28-15.29,83.79-4.77,129.7,6,25.76,15,51.46,23.67,76.28,5.84,16.82,12,34.19,17.16,51.55,15.23,51.46,22.62,96.55,22.69,137.75,0,27.78-3.75,53.87-11.23,77.54a6.86,6.86,0,0,1-7.39,4.74,7.31,7.31,0,0,1-1.23-.28,8,8,0,0,1-1.69-.83c37.59-37.73,6.62-185.87-8.5-223.87C119.26,786.39,97.33,715.2,91,692.58c-2-7.45-4.79-10.72-7.5-11.84C78,640.15,81.45,599.52,93.42,568.27Z"/></g><g class="cls-21"><path class="cls-14" d="M50,492.8c15.45,1.34-1.82-14.92-15.72-23.72,16.39,8.84,32.8,21.36,31.13,10.77-1.24-7.94-8.44-18-14.11-24.74,20.83,19.77,32.6,45.47,32.6,45.47,2.66-.5-10.12,11.21-10.12,11.21s-22.12-11.87-57.65-20.34c-13.46-2.4-24.35-7.75-32.06-14.26,6.12,2.9,13.85,4.71,22.58,6.34C24.89,487,29.2,491,50,492.8Z"/></g><path class="cls-22" d="M82.14,503.34a8,8,0,1,0-5.27,10.32A8.16,8.16,0,0,0,82.14,503.34Z"/><path class="cls-23" d="M71.39,503.29c8.2-5.26,11.88,10.72,9.45-2.59a7.66,7.66,0,0,1,1.3,2.64,8,8,0,1,1-15.31,4.55,3.76,3.76,0,0,0-.22-.95C68.63,509.72,66.9,506.14,71.39,503.29Z"/><path class="cls-22" d="M102.39,498.56a8,8,0,1,0-9.13,7.11A8.16,8.16,0,0,0,102.39,498.56Z"/><path class="cls-23" d="M92.68,494c9.65-1.32,6.22,14.69,9.65,1.65a8.06,8.06,0,1,1-15.7.57,4.21,4.21,0,0,1,.25-1C87.48,498.56,87.43,494.64,92.68,494Z"/><path class="cls-22" d="M93.9,502.34a8,8,0,1,0-9.17,7.12A8.19,8.19,0,0,0,93.9,502.34Z"/><path class="cls-23" d="M84.16,497.74c9.63-1.24,6.19,14.7,9.66,1.67a9.53,9.53,0,0,1,.08,2.93,8.25,8.25,0,0,1-9.17,7.12,8.14,8.14,0,0,1-6.62-9.53,7.46,7.46,0,0,1,.23-.9C79,502.36,78.91,498.38,84.16,497.74Z"/><path class="cls-22" d="M90.86,515.68A8,8,0,1,0,80,519.55,8.16,8.16,0,0,0,90.86,515.68Z"/><path class="cls-23" d="M83,508.25c9.55,1.78,1.39,15.94,8.67,4.58a9.35,9.35,0,0,1-.84,2.85,8,8,0,1,1-14.26-7.22,3.06,3.06,0,0,1,.51-.73C76.68,511.07,77.82,507.3,83,508.25Z"/><path class="cls-22" d="M83.35,522.7c-.42-5.41-4.35-9.52-8.76-9.15s-7.57,5-7.15,10.48,4.34,9.52,8.8,9.17S83.77,528.18,83.35,522.7Z"/><path class="cls-23" d="M72.75,519.9c9.1-3.9,9.68,15.31,9.79-.54a10.49,10.49,0,0,1,.81,3.34c.42,5.48-2.73,10.14-7.11,10.5s-8.32-3.74-8.8-9.17a8.54,8.54,0,0,1,0-1.12C68.89,526.59,67.83,522.06,72.75,519.9Z"/><path class="cls-22" d="M117.16,503.2a8,8,0,1,0-10.92,3.93A8.21,8.21,0,0,0,117.16,503.2Z"/><path class="cls-23" d="M109.35,495.82c9.59,1.78,1.37,15.94,8.61,4.57a8.42,8.42,0,0,1-.8,2.81A8,8,0,1,1,102.91,496a3.16,3.16,0,0,1,.5-.73C102.94,498.63,104.1,494.87,109.35,495.82Z"/><path class="cls-22" d="M106.37,508.72a8,8,0,1,0-14.22-7.17,8,8,0,1,0,14.22,7.17Z"/><path class="cls-23" d="M98.59,501.3c9.54,1.82,1.36,16,8.63,4.56a8.41,8.41,0,0,1-11.72,6.78,8.17,8.17,0,0,1-3.35-11.09,3.28,3.28,0,0,1,.46-.78C92.18,504.13,93.38,500.32,98.59,501.3Z"/><path class="cls-22" d="M102.62,520.62a8,8,0,1,0-10.92,3.91A8.26,8.26,0,0,0,102.62,520.62Z"/><path class="cls-23" d="M94.83,513.19c9.5,1.84,1.31,15.93,8.59,4.61a10,10,0,0,1-.8,2.82,8,8,0,1,1-14.33-7.19,7.6,7.6,0,0,1,.54-.81C88.36,516,89.55,512.2,94.83,513.19Z"/><path class="cls-22" d="M95.81,527.33c-.25-4.91-4-8.7-8.43-8.51s-7.9,4.36-7.63,9.24,4,8.61,8.4,8.44S96,532.18,95.81,527.33Z"/><path class="cls-23" d="M85.27,524.52c9.26-3.26,9.08,13.89,9.86-.27a10.71,10.71,0,0,1,.68,3.08c.2,4.85-3.24,8.94-7.66,9.17s-8.2-3.58-8.4-8.44c0-.36,0-.68,0-1C81.05,530.38,80.2,526.26,85.27,524.52Z"/><path class="cls-22" d="M87.79,532.73c-.21-4.86-4-8.66-8.45-8.45s-7.88,4.32-7.64,9.19,3.94,8.63,8.43,8.45S88,537.6,87.79,532.73Z"/><path class="cls-23" d="M77.24,529.93c9.27-3.24,9.05,13.93,9.9-.2a9.6,9.6,0,0,1,.65,3c.22,4.87-3.24,9-7.66,9.19s-8.2-3.57-8.43-8.45c0-.35,0-.63,0-1C73,535.86,72.18,531.72,77.24,529.93Z"/><path class="cls-22" d="M128.36,509.83a8,8,0,1,0-10.91,3.91A8.16,8.16,0,0,0,128.36,509.83Z"/><path class="cls-23" d="M120.61,502.41c9.53,1.78,1.32,15.91,8.57,4.59a7.79,7.79,0,0,1-.82,2.83,8,8,0,1,1-14.24-7.18,4.67,4.67,0,0,1,.5-.81C114.19,505.22,115.35,501.42,120.61,502.41Z"/><path class="cls-22" d="M137.12,520.15A8,8,0,1,0,126.2,524,8.22,8.22,0,0,0,137.12,520.15Z"/><path class="cls-23" d="M129.29,512.7c9.59,1.83,1.35,15.94,8.68,4.58a10.08,10.08,0,0,1-.85,2.87A8,8,0,1,1,122.83,513c.18-.3.37-.55.52-.81C122.92,515.56,124.11,511.76,129.29,512.7Z"/><path class="cls-22" d="M140.19,531.72a8,8,0,1,0-10.92,3.93A8.22,8.22,0,0,0,140.19,531.72Z"/><path class="cls-23" d="M132.41,524.35c9.53,1.78,1.35,15.92,8.66,4.55a8.33,8.33,0,0,1-.88,2.82A8,8,0,1,1,126,524.57c.17-.26.32-.52.47-.78C126,527.13,127.21,523.37,132.41,524.35Z"/><path class="cls-22" d="M126.63,525.69a8,8,0,1,0-10.92,3.93A8.17,8.17,0,0,0,126.63,525.69Z"/><path class="cls-23" d="M118.84,518.29c9.51,1.77,1.33,15.91,8.63,4.59a9.27,9.27,0,0,1-.84,2.81,8.17,8.17,0,0,1-10.92,3.93,8.26,8.26,0,0,1-3.34-11.13,8.49,8.49,0,0,1,.51-.77C112.45,521.08,113.6,517.29,118.84,518.29Z"/><path class="cls-22" d="M118,514.53a8,8,0,1,0-10.9,3.93A8.16,8.16,0,0,0,118,514.53Z"/><path class="cls-23" d="M110.18,507.08c9.6,1.85,1.36,16,8.66,4.64a9.15,9.15,0,0,1-.84,2.81,8,8,0,1,1-14.25-7.14,5,5,0,0,1,.49-.83C103.8,510,105,506.13,110.18,507.08Z"/><path class="cls-22" d="M121.13,537a8,8,0,1,0-10.89,4A8.2,8.2,0,0,0,121.13,537Z"/><path class="cls-23" d="M113.33,529.67c9.55,1.78,1.34,15.88,8.67,4.6a8.7,8.7,0,0,1-.87,2.77,8,8,0,1,1-14.23-7.17c.15-.27.32-.48.45-.77C106.93,532.42,108.13,528.65,113.33,529.67Z"/><path class="cls-22" d="M112.22,525.84a8,8,0,1,0-10.86,3.95A8.19,8.19,0,0,0,112.22,525.84Z"/><path class="cls-23" d="M104.44,518.5c9.54,1.74,1.36,15.89,8.62,4.53a8.11,8.11,0,0,1-.84,2.81A8,8,0,1,1,98,518.71a7.67,7.67,0,0,1,.46-.78C98,521.27,99.23,517.45,104.44,518.5Z"/><path class="cls-22" d="M106.57,535.81a8.09,8.09,0,0,0-3.33-11,8.4,8.4,0,1,0,3.33,11Z"/><path class="cls-23" d="M98.8,528.47c9.55,1.78,1.33,15.89,8.63,4.54a7.41,7.41,0,0,1-.86,2.8,8,8,0,1,1-14.25-7.13c.14-.27.34-.48.51-.84C92.4,531.24,93.56,527.42,98.8,528.47Z"/><path class="cls-22" d="M106.77,544.22a8.17,8.17,0,0,0-3.3-11.08,8.43,8.43,0,0,0-7.56,15.05A8.16,8.16,0,0,0,106.77,544.22Z"/><path class="cls-23" d="M99,536.85c9.57,1.79,1.33,15.92,8.65,4.61a7.49,7.49,0,0,1-.88,2.76,8.16,8.16,0,0,1-10.86,4,8.29,8.29,0,0,1-3.4-11.13c.17-.26.36-.51.52-.79C92.59,539.68,93.8,535.85,99,536.85Z"/><path class="cls-8" d="M72.07,533.16s2.82-11.73-16.13-15-46.13.15-73.59,16S-61.29,579-42.25,591.73s29.45,2.06,56-23.87,52.65-37.63,55.92-36.34Z"/><g class="cls-24"><path class="cls-14" d="M21.87,555.28c10.38-13.59,26.94-21.83,20.22-25.3-3.22-1.63-10,.08-15.1,1.85,8.4-3.61,15.64-7.29,8.08-12.19a13.46,13.46,0,0,0-4.84-1.94,89.66,89.66,0,0,1,25.71.41c19,3.32,16.13,15,16.13,15l-2.36-1.64c-3.27-1.29-29.32,10.47-55.92,36.34C-2,583.31-12.15,593.35-21.78,596.27-6.18,588.05,14.35,565.22,21.87,555.28Z"/></g><path class="cls-12" d="M20.05,551.58s-31.84,51.12-59.49,40.35c-12.64-6.77-15.48-43,49.2-65.51C11,526-2,533-2.56,535.17s6.24-6.32,10-3.89S.81,540.53.81,540.53s7.05-6,5.45-2.17-8.95,6.89-1.67,3.78,9.06-3.43,4.67,1.75-1.1,3.87,6.23-1.79-2,6.67-4.46,10.36,2.39,1.46,5.53-2.78-.33,2.25-2.84,6.28S17.48,553.85,20.05,551.58Z"/><path class="cls-13" d="M70.71,526.38c-1.69-.21-30.16-13.8-76.28,26.67,2.46-3.44,44.7-37.22,76.76-26A.86.86,0,0,1,70.71,526.38Z"/><path class="cls-8" d="M204.7,598.39s25.17,48.93-3.44,56.87-45.38-36-52-51-29.65-58.12-33.59-60.78c-2.93-1.93.86-9.1,2.21-10.61,7-7.8,18.07-1.61,25.73,2.34a132.75,132.75,0,0,1,29.88,21.23,170.08,170.08,0,0,1,14.81,15.67A105.45,105.45,0,0,1,204.7,598.39Z"/><path class="cls-9" d="M174.42,597.47c.22-.14-25.65-54.12-54.31-64.63a.41.41,0,0,0-.57.24.39.39,0,0,0,.27.52c28.3,10.43,54.25,63.9,54.25,63.9A3.18,3.18,0,0,0,174.42,597.47Z"/><g class="cls-15"><path class="cls-11" d="M117.83,532.82c4.62-5.15,11-4.2,17-1.83,3.14,1.24,6.14,2.84,8.77,4.17a118.81,118.81,0,0,1,17.27,10.78,49.7,49.7,0,0,0-10.27-3.81c-8.14-1.57-6.3-.21-2.43,5.47s1.42,4.49-2.83,1.67,4.29,4.84,8.69,12.85-9.46-11.23-18.42-15.25-5.84-1.63-2.52,6.58,7.71,22.24,12.65,28.64c3.29,4.23,11.25,37.6,25.47,61.45-10.92-12.41-18.14-30.64-22-39.33-6.68-15.08-29.65-58.12-33.59-60.78C112.69,541.5,116.48,534.33,117.83,532.82Z"/></g><path class="cls-12" d="M199.12,597.84s19.14,28,12.63,45S179.93,666.9,154.2,601c-8.06-20,5-9.7,6.85-6.29s5.32,5.51,1.16-2.16,1.74-2.39,5.28,1.27,2.46.88,1.69-1.8,1.1-1.91,6.12,3.64,8.17,16.85,5,5.51-9.36-21-4.79-16.37,4.75,5.47,2.13-.89-3.54-8.19,3.69.19,8.74,10.6,6.86,5.15S191.11,584.2,199.12,597.84Z"/><path class="cls-8" d="M81.13,536.9s-1-9.19-11.42-5.38S19.24,555.67-1.42,602.59s-1,61.49,12.55,63.23,29.49,2.06,35.14-42S80.6,541.1,81.13,536.9Z"/><path class="cls-9" d="M31.32,598a.39.39,0,0,0,.47-.3c13.38-49.21,45.1-66.13,45.4-66.3s.29-.4.19-.53a.43.43,0,0,0-.61-.24c-.3.16-32.32,17.25-45.82,66.85a.46.46,0,0,0,.33.52Z"/><g class="cls-25"><path class="cls-11" d="M49.48,584.09c5.67-14.76,18-37.32,11-36.5-3.42.36-5.29,2.31-7.32,4.79.81-1-.32-3.74-1.07-4.43-1.43-1.34-8.37-1.63-9.9-.31a94,94,0,0,1,27.49-16.12c10.43-3.81,11.42,5.38,11.42,5.38-.53,4.2-29.2,42.75-34.86,86.89-5.38,42-20.1,43.67-33.19,42.24C34.59,653.42,45.25,595.3,49.48,584.09Z"/></g><path class="cls-12" d="M25.54,569.25S2.42,590.41-3.66,620.1s10.23,50.16,25,31.36S40.71,601,46.09,583.65s-5,2.82-6,6.7,1.65-10.69-.49-7.53-6.71,16.38-5.51,9.63.64-12-1.74-7.11-2.27-2,1.21-11.34-6.93,2.57-7.7,5.9a32.78,32.78,0,0,1,2.48-7.68c2-3.8-6.3,2-6.7,5.15S23.77,571.91,25.54,569.25Z"/><path class="cls-8" d="M100.44,551s-3.38-17.72-13-19.35-17.19,9.85-25.48,30.77-20.79,51.18-22.8,66.9,3.27,48.26,23.22,50.81,28.11-27.85,30.45-49.53S94.61,576.1,96,568.5,100.78,554.86,100.44,551Z"/><path class="cls-9" d="M76.69,575.92c.24,0,11-43.88,11.11-44.15a.45.45,0,0,0-.31-.56.45.45,0,0,0-.51.25c-.06.31-10.52,44.43-10.29,44.46Z"/><g class="cls-25"><path class="cls-11" d="M87.4,531.64c9.66,1.63,13,19.35,13,19.35.34,3.87-3,10-4.4,17.51-.5,2.67-.72,8.41-1,15.64-.44-7-.95-15.44-1.65-24.28-1.75-22.35-10.87-9.69-12.23-1.28s.46-1.4-2.13-10.33c-2.3-7.92-13.08,9.74-23,28.92,2-5.23,4-10.18,5.86-14.76C70.21,541.49,77.69,530,87.4,531.64Z"/></g><path class="cls-12" d="M87.94,618s2.76,52.68-18.63,55.64S39.6,650.31,47.57,616.89s22.24-38.84,23.63-27.4,3.34-3.63,3,1.22.68,1.21,3.2-5,3.9,3.34,3.31,14.48,2.26.59,3.52-7.27S86.64,603.52,87.94,618Z"/><path class="cls-8" d="M116.11,539.23c-3.87-4.33-8.64-7.18-13.42-2.42-6.76,6.7-7,23-6.65,31.69.54,16,4,113.43,45.85,112.76,0,0,23.26-6.48,16.78-50-4.76-32-19-57.09-36.37-83.49A65.24,65.24,0,0,0,116.11,539.23Z"/><g class="cls-26"><path class="cls-11" d="M102.69,536.81c4.78-4.76,9.55-1.91,13.42,2.42a65.24,65.24,0,0,1,6.19,8.57c6.39,9.64,12.29,19.14,17.52,28.81-5.39-7.78-12.19-16.83-16.91-19.75-8.76-5.41,2,28.69,3,43.49s-7.64-34.14-15.28-38.17c-7.09-3.69-12.21,37-5.27,76.42-7.89-28.09-9-61.32-9.35-70.1S95.93,543.51,102.69,536.81Z"/></g><path class="cls-12" d="M148,606.77s22.32,54.59-3.82,69.93c-17.27,7-39.24-27.45-39.15-73.14-.39-21.56,2.61-13.73,6.15-5.54s.5-10.55.75-12.51,2.24,2.6,6.55,11.47a135.72,135.72,0,0,1,9,24.44c.93,4.11-4.59-27.09-3.83-33s9.5,17.86,12.57,22.86-2-10.89-2.2-16.1,3.06.67,4.17,3.42,1,1.28.47-1.67,2.16-1.16,5.24,4.14S146.33,597.62,148,606.77Z"/><path class="cls-9" d="M127.37,613h.12c.2,0-6.41-60.25-21.63-78.48a.43.43,0,0,0-.59-.08.37.37,0,0,0-.08.59c15.08,18.1,22,77.93,22.18,78Z"/><path class="cls-27" d="M135.44,532.19c.87,1.13-3.22-3.87-6.55-.29s3.27,5.59-1,5.05-7.82-4.24-6.77.09.3,5.72-2.95,4.15-3.65-7.35,3.12-10.82S133.21,529.33,135.44,532.19Z"/><path class="cls-27" d="M114.1,537.21s-5.53-1.58-6.37.63-.24-2.91-3.1-.4-4.65,1.14-5,3.27S104,528.71,114.1,537.21Z"/><path class="cls-27" d="M68.47,530.49s1-7.64-6-9.4c.31-.24,8.38,1.66,9.19,9.24,1.06.42,6.18.8,5.75,4.17-1,.76-3.51-3.88-7.83-1.84S70.39,530.73,68.47,530.49Z"/><path class="cls-28" d="M264.91,633.53,168.3,951.92l-18,5.08S253.1,646.29,253.05,633.58,264.91,633.53,264.91,633.53Z"/><path class="cls-28" d="M209.75,788.18s44.49-55.33,81.62-53.93C291.37,734.25,234.7,805.65,209.75,788.18Z"/><path class="cls-28" d="M148.65,697.2s37.2,73.41,55.67,79.32S206,740.38,148.65,697.2Z"/><path class="cls-28" d="M178.69,871.15s35.09-37.77,72.46-35.49a52.8,52.8,0,0,1,6.08.74S205.2,875.76,178.69,871.15Z"/><path class="cls-28" d="M229.89,742.86s-26-22.59-39.69-46.11C190.2,696.75,223,711.32,229.89,742.86Z"/><path class="cls-28" d="M178.69,871.15s-41.4-57.1-62.63-61.23C116.06,809.92,201.6,827.26,178.69,871.15Z"/><path class="cls-29" d="M273.55,596.63l44-44.5s41.78,32,37.84,49.48-69.52,12.66-69.52,12.66Z"/><path class="cls-29" d="M254.1,608.27s-55.25-21.33-50.65-39.45,59-45.36,66-27.23,4.09,55,4.09,55Z"/><path class="cls-29" d="M254.1,608.27S181.76,589.76,186,621.69s30,52,70.33,16.82"/><path class="cls-29" d="M290.86,624.36s46.64-4.61,67.17,6.74S325.87,692,320.77,680.85s-43.47-33.7-43.47-33.7Z"/><path class="cls-29" d="M275.43,621.89s20.28,53.46,7.23,63.64-66.47,8.23-58.27-12,25.77-49.76,25.77-49.76Z"/><circle class="cls-30" cx="275.43" cy="621.89" r="25.33"/><path class="cls-28" d="M326,727.44l12,254L349,988s-17.27-249.17-15.19-258.71S326,727.44,326,727.44Z"/><path class="cls-28" d="M344.27,877.26s9.83-51.94,40.19-58.39a29.84,29.84,0,0,1,4.8-.62l-1.66.08S381.19,859,344.27,877.26Z"/><path class="cls-28" d="M337.3,885.48s-66-43.46-70.09-63.67C267.21,821.81,330,843.17,337.3,885.48Z"/><path class="cls-31" d="M355.18,722.48l47.08-21.2s27.9,34.34,20.63,46.12-61.37-8.79-61.37-8.79Z"/><path class="cls-31" d="M336.18,726s-41.65-30-33.68-42.1,59.93-17.92,61.71-2.81-9,41.43-9,41.43Z"/><path class="cls-31" d="M336.18,726s-56.68-32.37-60.32-7.85,13.51,45.91,55.36,30.62"/><path class="cls-31" d="M363.46,747.32s40.3,8.74,55,22.4S377.6,806,375.83,796.51s-28.93-36-28.93-36Z"/><path class="cls-31" d="M351,741.49S356,786,342.71,790s-57.8-11.24-46.31-23.94,33-29.8,33-29.8Z"/><ellipse class="cls-30" cx="351.04" cy="741.49" rx="19.44" ry="22.31" transform="translate(-461.03 858.05) rotate(-72.83)"/><path class="cls-32" d="M400.62,867.09c-1.9,8.22-3.73,17-5.83,25.64l-6.74-.78c2.16-7,4.51-13.91,6.19-20.65q7.54-30.16,12.81-60.9c6.5-37.52,12.27-75.22,15.68-113.18.22-2.66,3.3-.85,3.11,1.26-3.28,38.14-6.94,76.23-13.89,113.88Q406.85,839.84,400.62,867.09Z"/><path class="cls-33" d="M379,781c.08,5.28,1.79,10.31,3,15.28a54.66,54.66,0,0,0,5.18,14.25c4,7,11.69,11.29,19.18,10.77a.93.93,0,0,0,.91-.92c0-.62,0-1.25.05-1.87a.22.22,0,0,0,.13-.14l.32-.23c.42-.17.16-1-.25-.86a.44.44,0,0,1-.22,0,6.06,6.06,0,0,0,0-.74,3.75,3.75,0,0,0,.43-1.76,38.06,38.06,0,0,0-1.41-8.48c-.88-3.17-1.75-6.38-2.88-9.41s-3-5.08-4.2-7.91c-.22-.49-1.06-1-1.16-.1a11.93,11.93,0,0,0,0,1.89c-2.82-4.8-7.92-9.15-12.46-10-.78-.15-1.06,1-.84,1.59.07.24.15.51.22.77-1.65-.88-3.05-2.85-4.79-3.33C379.48,779.52,379.05,780.09,379,781Z"/><path class="cls-34" d="M385.73,788.42c2.95,4,5.65,8.22,8.6,12.2,4.79,6.41,9.28,13,12.46,20.54a1.52,1.52,0,0,1-.36.1c-7.49.52-15.14-3.82-19.18-10.77a54.66,54.66,0,0,1-5.18-14.25c-1.24-5-2.95-10-3-15.28a1.54,1.54,0,0,1,.15-.7C380.5,783.18,384.6,786.87,385.73,788.42Z"/><path class="cls-33" d="M457.08,751.18c-1.79-.45-3.86.56-5.7.54a7.53,7.53,0,0,1,.56-.57c.44-.45.67-1.6-.06-1.82-4.44-1.5-10.81-.18-15.38,2.72.28-.56.56-1.11.79-1.69.3-.87-.67-.84-1.05-.52-2.24,1.93-4.94,2.85-7.14,4.92s-4.47,4.58-6.6,6.9a38.6,38.6,0,0,0-4.91,6.8,3.88,3.88,0,0,0-.38,1.79,4.79,4.79,0,0,1-.34.68,1.67,1.67,0,0,1-.15-.14c-.32-.27-.91.28-.6.66a2.11,2.11,0,0,1,.18.33.22.22,0,0,0,.09.2l-.79,1.69a1,1,0,0,0,.44,1.27,20.16,20.16,0,0,0,21.62,0c4-2.57,7.5-6.24,10.7-10s6.93-7.42,9.28-12C458,752.09,457.86,751.37,457.08,751.18Z"/><path class="cls-34" d="M448.48,756.14c-4.35,2.1-8.52,4.49-12.86,6.52-7,3.31-13.81,6.89-19.88,12a1.48,1.48,0,0,0,.3.25,20.16,20.16,0,0,0,21.62,0c4-2.57,7.5-6.24,10.7-10s6.93-7.42,9.28-12a2.1,2.1,0,0,0,.18-.67C455.38,754.12,450.15,755.33,448.48,756.14Z"/><path class="cls-35" d="M426.6,613.18c-.45,5.92,1,10.83,2.07,16.64.91,4.83,2.87,11.1,6.79,13a.79.79,0,0,0,.48.75c3.21,1.35,6,.33,9.29-.31,4-.76,8.2-1,12-2.44,6.84-2.61,14.07-7.13,18.22-14.09,1.66-2.74,2.18-7.53-1.74-7.63-3.37-.09-4.75-1-7.91.17.09-2.84.78-6.49-1-9.29-2.26-3.65-7-3.92-10.32-6.46-1.81-1.39-4.29,1.74-6.26.71s-3.69-5.14-6-5c-2.7.07-4.74,1.61-7.64,1-1-.2-5.28-.66-6.27.16C425.68,602.68,426.86,609.78,426.6,613.18Z"/><path class="cls-35" d="M371.14,623.77c-.26,3,1.87,5.28,3.79,6.88,7.91,6.51,18.51,8.79,27.94,10.83,5.82,1.23,22,7.45,22.23-5.16.1-5.2-1.32-10-2.44-14.89s-2.05-10.06-3.86-14.68c-1.15-5-3.33-11.29-6.06-7.59-2.88-3-7.17-6.53-11-4.22a6.73,6.73,0,0,0-3.45,7c.09.65,1.66,7.91-1.71,5.56a10.34,10.34,0,0,0-3-1.82c-1.72-.51-5.2-1.77-6.52.49a7.1,7.1,0,0,0-1.15,3.28c-.11,1,0,4.84-1.85,4.41-.89-.22-1.77-.49-2.67-.78-1.85-.54-4.55-.1-4.84,2.57-.24,2,.8,4.06,1.74,5.92C375.94,621.74,371.44,620.7,371.14,623.77Z"/><path class="cls-29" d="M432.43,611c.87-3.22,4.53-.36,4.64,1.89.21,4.78.13,9.72.59,14.45.06.59.08,1.93.2,3.43,1.11-4.08,2.68-8.09,3.78-12,.34-1.11,1.61.09,1.36,1a50,50,0,0,0-1.68,13.6c3-6.25,7-12,10.58-17.84,1.21-2,3.64,1.25,2.58,3.09-2,3.34-3.94,6.67-5.84,10a67.13,67.13,0,0,0,5.75-6.23c1.74-2.19,4.57,1.63,3.09,3.65a91.33,91.33,0,0,1-7.65,8.7c.11-.05.23-.07.34-.13a37.18,37.18,0,0,0,10.36-5.24c1.68-1.24,3.59,2.34,1.94,3.66a40.14,40.14,0,0,1-8.93,5.23c-2.85,1.24-6.62,3.11-9.81,3-.33.33-.65.68-1,1a1.69,1.69,0,0,1-2.05-.16c-.05,0-.05,0-.05,0a2.09,2.09,0,0,1-2.06.43,4.76,4.76,0,0,1-.65-.29,1.49,1.49,0,0,1-2-.66C430.84,633.28,429.79,620.89,432.43,611Z"/><path class="cls-29" d="M391.61,629.92a122.39,122.39,0,0,0,16.63,5.43A76,76,0,0,1,394.34,620c-.77-1.14.06-2.78,1.21-1.67,4.12,4.13,8.79,7.56,13.26,11.19a43.28,43.28,0,0,0,8.74,5,45.83,45.83,0,0,0-4.21-5.87c-3.64-4.14-8.85-6.77-11.78-11.59-.54-.91-.32-3.11,1-2.82,4.51.83,8.31,5.54,11.7,8.76a38.61,38.61,0,0,1,4.16,4.91,52.67,52.67,0,0,0-3.27-8.08c-1.21-2.37-2.27-9.21-4.89-9.92-.55-.18-1-1.71-.16-1.79,3.19-.35,5.64,6.11,6.94,8.51,3.89,7.07,7.36,13.6,8.55,22.12a2.21,2.21,0,0,1-2.34,2.79,1.36,1.36,0,0,1-1.63.73c-.34-.06-.66-.14-1-.23a1,1,0,0,1-.9.11,123.15,123.15,0,0,1-28.34-10.73C390.79,631.11,390.7,629.5,391.61,629.92Z"/><path class="cls-33" d="M406.14,662.92a14,14,0,0,0,.58,3c-.38-.22-.81-.13-.93.57-.05.33-.07.64-.12,1a1.94,1.94,0,0,0-.16.53c-.09.74-.12,1.51-.15,2.22-.39,5.16-.07,10.41,0,15.47.08,5.3-.05,10.78,1.58,15.64,2.33,6.84,6.73,12.57,13.15,12.88,6.24.3,16.47-.25,19.06-10,2.77-10.29,2.85-21,5.89-31.23.23-.32.46-.63.67-.94.18.15.43.18.58-.17s.38-.91.56-1.34c.26-.65-.44-1.93-1-1.34a2.51,2.51,0,0,1-.23.21.26.26,0,0,0-.23.14,2.39,2.39,0,0,1-.12.22,30.65,30.65,0,0,0-5.48,7.34c-.2-2.25-.43-4.55-.72-6.78-.15-1.12-1.07-2.18-2-1.19-1.43,1.62-2.14,4.17-2.72,6.36-.43,1.6-.34,4.32-1.24,2.31a38.44,38.44,0,0,1-1.6-4.11c-1.42-4.34-3.18-8.58-6.11-11.5-.61-.62-1.5,0-1.65.91-.45,3.2.12,6.06.38,9.13a38.33,38.33,0,0,1-.42,7.2,72.45,72.45,0,0,1-6-12.77c-.5-1.57-2.34-1.9-2.36.27a41.36,41.36,0,0,0,.84,8c-2.79-4.16-5-9.23-8-13.09C407.41,660.79,406,661.31,406.14,662.92Z"/><path class="cls-36" d="M416.35,653.69a20.21,20.21,0,0,0,15.36,6.39c4.36-.1,9-.06,12.47-3.32a13.75,13.75,0,0,0,1.71-1c3.63-2.66,4.27-7.46,2.74-11.89a27.46,27.46,0,0,0-4.55-8.37c-2.37-2.79-5-3.28-8.26-3.82s-5.94-2.94-9.4-1.83a11.65,11.65,0,0,1-4.84.92,8.83,8.83,0,0,0-3.32-.07C408.51,633.93,410.27,647.47,416.35,653.69Z"/><path class="cls-35" d="M442.78,655.63c-.17,7.43,3.17,12.83,8.28,16.93,5.33,4.32,12.07,9,18.93,9.26,4,.15,5.28-2.19,4.42-5.52a45.11,45.11,0,0,0,6.3,1.28c1.48.14,3.82.56,5.29-.05,2.81-1.23,2.52-4.14,2-7-.4-2.2-3-5.9-.26-7.45,1.2-.7,2.67-1,3.56-2.17,1.4-1.84-1.57-5.35-3.07-7.24a5.9,5.9,0,0,0,2.18-7c-1.13-3.34-5.44-4.13-8.19-4.32-5.3-.33-10.54-1.05-15.89-.5a61.23,61.23,0,0,0-7.22.94c-2.31.53-4.7,1.37-7,.82-.44-.13-.36.5-.15.84C447.07,645.62,442.91,648.84,442.78,655.63Z"/><path class="cls-35" d="M408.31,694.9c2.46,2.87,6.11-.85,8.57-1.7,3.75-1.19,5.65,4.34,8.87,3.27a5.49,5.49,0,0,0,3.08-2.31c.5-.71.94-1.51,1.43-2.24,1.51-2.12,3.45-.14,4.17,1.6.92,2.27,2.17,5.32,4.92,4.52,1.6-.43,2.87-2,4.45-2.35,3.21-.77,4.43,1.44,7.15,2.09,1.84.4,3.38.11,4.19-2,2-5.34-2.87-14.8-4.68-19.16a48,48,0,0,0-7-12.45,55.45,55.45,0,0,0-4.56-5.33c-4.18-4.58-9.92-8.49-15.12-6.16-7.21,3.24-11.86,10.51-14.11,18.69C407.77,678.25,403.09,688.83,408.31,694.9Z"/><path class="cls-35" d="M372.5,647a15.78,15.78,0,0,0,2.47,4.74c1.88,2.22-.48,4.17-1.64,6.31-4.28,8.35,2.31,10.49,6.85,10.58,1.29,0,7-.46,6.23,2.9-.38,1.65-1.19,3.93-1,5.64.3,3.1,1.62,4.93,3.94,5,1.54,0,3.08-1.32,4.62-2,2.62-1,.86,3,.64,4.93-.29,2.36.1,6.25,2.18,6.42,3.26.31,5.36-5.17,6.83-8.65,2.57-6.07,5.54-11.77,7.8-18,1.53-4.28,5.33-9.32,5.14-14.24a6.16,6.16,0,0,0-4.49-5.71l-1.4-.35c-1.74-1.1-3.77-1.49-5.69-2.19-2.83-1-5.68-1.8-8.58-2.55-4.62-1.2-9.39-1.56-13.9-3.06-2.2-.74-5.62-2.11-7.84.65S371.21,643.38,372.5,647Z"/><path class="cls-29" d="M386.81,641.69c8.13,3.47,17.62,1.72,26.11,3.87,1.29.34,1.95,2.38,1.76,3.84a2.89,2.89,0,0,1,1.31,2.12,17.72,17.72,0,0,1-2.18,9,40.46,40.46,0,0,0-2.74,5.42c-.35.94-1.25,1.63-1.66,2.48-.59,1.3-1.82,0-1.76-1a22.62,22.62,0,0,1,.26-2.31,44.77,44.77,0,0,1-8.11,9.43c-1.19,1.05-2.38-1.27-2-2.4,1.51-4.86,4.85-8.37,7.16-12.76.7-1.38,1.34-2.92,2.07-4.53-4.89,3.08-9.78,5.93-14.22,10-.76.7-1.75-1.1-1-1.83,3.28-3,6.54-6.88,10.37-8.9.09,0,.16-.1.22-.12-1.89,0-3.76,0-5.66,0-2.48,0-4.57-.77-7.11-.38-1,.18-1.78-1.89-.65-2.14,2.39-.52,4.47-1.74,6.75-2.72.21-.06.45-.11.68-.2a35.34,35.34,0,0,1-10.05-3.1C384.76,644.66,384.61,640.78,386.81,641.69Z"/><path class="cls-29" d="M416.8,664.22c-.74.47-1.65-.84-1.09-1.56,1.78-2.17,9.27-10.2,13.81-10.06.83-.33,2,.38,2.53,1.47.1.17.2.38.3.58v0c3.47.62,6.59,5.17,8.75,7.81a62.55,62.55,0,0,1,5.19,7.06c1.61,2.61,1.59,5,2.61,7.76.17.43-.27.71-.54.4a35.09,35.09,0,0,1-2.38-4.26,46,46,0,0,0-5.1-6.73c-1.36-1.64-2.8-3.24-4.23-4.77a13.86,13.86,0,0,0-1.2-1.12c.74,1.57,1.43,3.16,2.22,4.54a65,65,0,0,1,6.09,13.17c.31,1-.82,1.51-1.24.61-2.65-6.35-6.46-12.07-10.12-17.77-.11,1.41-.23,2.71-.2,3.84.15,5.1.6,13.15,3.16,17.46.8,1.3-.53,2.77-1.55,1.6-3-3.49-3.61-9.29-4.38-13.9-.37-2.26-.74-4.79-1-7.34a28.53,28.53,0,0,0-2.56,6.22c-1.09,4.59-2.83,10.17-2.6,15,.08,1.81-1.72,2-2.43.66-2-3.87-1-10.45-.42-14.7A34,34,0,0,1,422,664c-.36.42-.73.84-1.1,1.3a21.13,21.13,0,0,0-3.16,6.27c-.64,1.72-2,3.83-2.47,5.62-.23,1-1.3.22-1.48-.36-1.26-3.93,1.37-9.32,3.37-12.82A2,2,0,0,1,416.8,664.22Z"/><path class="cls-29" d="M445.79,655.46a11.29,11.29,0,0,1,4.16-7.65c2.82-2.36,6.45-2.54,9.73-2.86,2.1-.18,4.17-.51,6.29-.6,1.79,0,3.95,1.74,5.62,1.22.25-.07.47.27.37.52a3.13,3.13,0,0,1-2.17,1.83s-.07,0-.08,0c.4,0,.78,0,1.18,0,1.85,0,3.11,4.42.91,4.65-3.13.33-6.22.45-9.33.59,2.19.83,4.36,1.68,6.51,2.46.72.29,1,2.11,0,1.91-4.27-.81-9.73-3.14-14.1-2.48a12.21,12.21,0,0,1-2.82.09,8.77,8.77,0,0,0,1.27,1c2.57,1.78,5.41,3,8,4.72,1.81,1.19.95,5-1.27,3.57-2.66-1.66-5.44-3-8.13-4.56a31.35,31.35,0,0,1-3.13-2.19c0,.46.07,1,.11,1.47a24,24,0,0,0,3.35,4.72c2.37,2.37,5,6.11,8.44,6.12.88,0,1.21,1.8.2,1.89-3.49.26-6.78-2.68-9.32-4.91-3.11-2.7-5.62-5.5-7.05-9.78C444.12,656,444.91,655.26,445.79,655.46Z"/><path class="cls-37" d="M443,641.42c1.81.49,1.81,4.4-.44,3.79C440.78,644.72,440.79,640.84,443,641.42Z"/><path class="cls-37" d="M440.25,635.06c2.35.63,2.35,5.65-.55,4.86C437.32,639.34,437.34,634.32,440.25,635.06Z"/><path class="cls-37" d="M433,631.66c1.36.37,1.36,3.29-.32,2.87C431.3,634.15,431.26,631.25,433,631.66Z"/><path class="cls-37" d="M426.29,629.79c2.35.62,2.37,5.63-.54,4.86C423.4,634.05,423.41,629,426.29,629.79Z"/><path class="cls-37" d="M417.26,631.64a1.64,1.64,0,0,1,1.89-.14,3.42,3.42,0,0,1,1.78,3.36l0,.13c-.11,1.1-1,2.08-2,2l-.13,0C416.88,636.65,415.3,633.23,417.26,631.64Z"/><path class="cls-37" d="M428.06,642a2.47,2.47,0,0,1,1.15.77c-.23-.52,0-1.21.56-1.07s.72,1.66-.16,1.44l-.2-.09c1.28,1.87.7,5.42-2,4.74S424.65,641.06,428.06,642Z"/><path class="cls-37" d="M418.08,640.3c0-1.76.94-3.4,3-2.86,2.86.76,3.1,6.34.21,6.58a1.59,1.59,0,0,1-2,.92C417.42,644.48,417,641.49,418.08,640.3Z"/><path class="cls-37" d="M436.61,646.63c.73.18.73,1.76-.17,1.53S435.7,646.38,436.61,646.63Z"/><path class="cls-37" d="M435,638.36c1.32.37,2.14,2.3,2,3.75a2,2,0,0,1-2.63,1.92c-1.31-.39-2.17-2.34-2-3.77A2,2,0,0,1,435,638.36Z"/><path class="cls-37" d="M441.2,650.65c1.31.34,1.3,3.16-.32,2.76C439.57,653,439.57,650.23,441.2,650.65Z"/><path class="cls-37" d="M447.44,639.48c1.95.53,1.95,4.67-.47,4C445.06,643,445.05,638.87,447.44,639.48Z"/><path class="cls-37" d="M445.13,635.43c.69.15.68,1.6-.16,1.37C444.3,636.63,444.31,635.21,445.13,635.43Z"/><path class="cls-37" d="M412.94,637.54c2.76.73,2.75,6.6-.64,5.7C409.54,642.48,409.54,636.63,412.94,637.54Z"/><path class="cls-37" d="M436.47,628.77l.11.1a4.33,4.33,0,0,1,.82,1,2.63,2.63,0,0,1,.36,1,.38.38,0,0,1,0,.15,1.2,1.2,0,0,1,.06.32,3.25,3.25,0,0,1-.16,1.08v.07a1.64,1.64,0,0,1-.64.86,1.32,1.32,0,0,1-1.39.14,3,3,0,0,1-2-2.68C433.45,629,435.09,627.65,436.47,628.77Z"/></g></g></g></svg>