<svg id="Layer_1" data-name="Layer 1" xmlns="http://www.w3.org/2000/svg" xmlns:xlink="http://www.w3.org/1999/xlink" viewBox="0 0 350 590"><defs><style>.cls-1{fill:none;}.cls-2{clip-path:url(#clip-path);}.cls-3{opacity:0.25;}.cls-4{fill:#395078;}.cls-5{fill:#f57032;}.cls-23,.cls-24,.cls-25,.cls-6{fill:#fff;}.cls-7{fill:#ffd634;}.cls-8{fill:#cc5e2a;}.cls-9{fill:#86d6e0;}.cls-10{fill:#ff6e6e;}.cls-11{fill:#c7686c;}.cls-12{fill:#ffb8bb;}.cls-13{fill:#fec430;}.cls-14{fill:#ff9d70;}.cls-15{fill:#c6c6e5;}.cls-16{fill:#7b26d3;}.cls-17{fill:#7070e8;}.cls-18{fill:#8c84c0;}.cls-19{fill:#5252c1;}.cls-20{fill:#cfbafe;}.cls-21{fill:#6363c9;}.cls-22{fill:#4d4d82;}.cls-23{opacity:0.76;}.cls-24{opacity:0.23;}.cls-25{opacity:0.19;}</style><clipPath id="clip-path"><rect class="cls-1" x="-1620" width="1600" height="900"/></clipPath></defs><ellipse class="cls-3" cx="172.2" cy="553.05" rx="72.89" ry="24.3"/><path class="cls-4" d="M189.31,296.12l-1.86-1.18c19.81-43.19,41.24-86.05,63.69-127.39,14.83-27.31,30.45-54.6,46.43-81.1l1.79,1.3Zm85.18-166q-11,19.26-21.54,38.69c-14.61,26.91-28.79,54.45-42.37,82.32Z"/><path class="cls-4" d="M277.88,123.85l-1-2.13c12.37-9,30.32-17.8,45.72-22.46l.69,2.28Z"/><path class="cls-4" d="M300.12,116.31l3.69-10.18A59.05,59.05,0,0,1,316.5,85.49l7.14-7.43Z"/><path class="cls-4" d="M292.13,107.63l-1.34-9.27a82.31,82.31,0,0,1,3-36.73l2.82-8.82Z"/><path class="cls-4" d="M299,88l-1.7-1.45c4-6.34,8.27-12.52,12.8-18.36l1.63,1.55Z"/><path class="cls-4" d="M283.81,110.69h0L271,81.14,273,80.08q5.9,13.62,11.79,27.27l1,2.27Z"/><path class="cls-4" d="M280.24,97.76l-2.11-.21a108.55,108.55,0,0,1,3.06-23.12l.42-3.21,3.73-3.87-1.21,4.31c-.3,1.09-.59,2.18-.86,3.28Z"/><ellipse class="cls-5" cx="325.09" cy="100.15" rx="4.53" ry="5.15"/><ellipse class="cls-5" cx="318.73" cy="85.32" rx="3.65" ry="4.15"/><ellipse class="cls-5" cx="283.21" cy="70.02" rx="3.65" ry="4.15"/><ellipse class="cls-5" cx="295.02" cy="61.4" rx="2.95" ry="3.36"/><ellipse class="cls-5" cx="271.64" cy="79.17" rx="2.95" ry="3.36"/><ellipse class="cls-5" cx="310.92" cy="68.98" rx="4.53" ry="5.15"/><path class="cls-4" d="M139.59,288.48,46.12,137.62l7.35,7.48a353.06,353.06,0,0,1,49.61,64,379.22,379.22,0,0,1,32.82,69.06ZM59.78,155.23,129.64,268a374.52,374.52,0,0,0-28.43-57.47A352.48,352.48,0,0,0,59.78,155.23Z"/><path class="cls-4" d="M87.7,248.61l-2.35,2.06,0,0c-.33.3-.67.6-1,.89l-7.06,6.21a33.73,33.73,0,0,1-6.09,2.3c-15.23,4.13-32.48-2.94-32.72-8.88A4.78,4.78,0,0,1,40,247.86c3.4-3.56,11.35-6.37,14.71-7.33.84-.24,1.66-.44,2.48-.6l.12,0,.1,0A34,34,0,0,1,75,241.07c.68.23,1.33.47,2,.74l.09,0,.08,0,.12.05.09,0c.93.4,1.81.82,2.65,1.26h0l1,.53,0,0A38.52,38.52,0,0,1,87.7,248.61Z"/><path class="cls-6" d="M87.35,248.74c-.59.61-1.26,1.26-2,1.93l0,0c-.33.3-.67.6-1,.89a34.75,34.75,0,0,1-13.36,7.22c-14.35,3.89-30.6-2.77-30.82-8.37a3.93,3.93,0,0,1,1-2.58,6.7,6.7,0,0,1,.51-.59c3.2-3.34,10.68-6,13.85-6.9.66-.18,1.31-.35,2-.49l.11,0,.17,0a32.1,32.1,0,0,1,16.85,1.06c.64.21,1.25.45,1.85.69l.36.15,0,0h0l.22.09c1.08.47,2.09,1,3,1.51h0a36.32,36.32,0,0,1,7.1,5.24Z"/><path class="cls-4" d="M87.85,248.48l-2.5,2.19,0,0h0a32,32,0,0,1-13.22,5.41c-13.13,2.17-28.38-3.56-31-8.26a2.7,2.7,0,0,1-.17-.34c3.28-3.43,11-6.16,14.21-7.08.7-.2,1.38-.37,2.06-.51l.12,0,.21,0,.17,0a33,33,0,0,1,17,1.14c.66.22,1.29.46,1.9.71l.18.07h0l.18.07.12.06.12.05c1,.41,1.88.85,2.75,1.3h0l1,.51,0,0A44.25,44.25,0,0,1,87.85,248.48Z"/><path class="cls-4" d="M272.7,35.39c.12,3.38-2,9-3,11.27A27.12,27.12,0,0,1,261,57.76c-.38.28-.76.54-1.14.79l-.22.14a23.07,23.07,0,0,1-7.77,3.15l-.14,0a32.57,32.57,0,0,1,2.65-14.19C259,37.44,269.24,30.76,271.91,33.1A3.17,3.17,0,0,1,272.7,35.39Z"/><path class="cls-6" d="M272.28,36.52c.12,3.19-1.86,8.48-2.79,10.62a25.84,25.84,0,0,1-8.18,10.46c-.36.26-.72.51-1.08.74l-.21.14a21.85,21.85,0,0,1-7.31,3l-.14,0a30.65,30.65,0,0,1,2.5-13.36c4.31-9.64,14-15.94,16.47-13.73A3,3,0,0,1,272.28,36.52Z"/><path class="cls-4" d="M272.46,36c.11,3.27-1.92,8.7-2.87,10.89a26.26,26.26,0,0,1-8.4,10.73c-.36.28-.73.53-1.1.77l-.21.14a27,27,0,0,1-7.53,3.31c0-.09,0-.18,0-.27a27.52,27.52,0,0,1,3.38-11.75C260.4,41.42,269.56,35.2,272.46,36Z"/><path class="cls-4" d="M292.53,237c-2.64,1.87-8.15,2.66-10.45,2.84a22.68,22.68,0,0,1-13.11-3c-.41-.24-.8-.49-1.18-.74l-.23-.15a26,26,0,0,1-6.32-6.21l-.09-.13a25.25,25.25,0,0,1,12.61-4.67c10.4-.68,20.76,6.2,20.2,10.1A3.06,3.06,0,0,1,292.53,237Z"/><path class="cls-6" d="M291.42,237.19c-2.48,1.76-7.67,2.5-9.84,2.67A21.36,21.36,0,0,1,269.23,237c-.38-.23-.76-.46-1.12-.7l-.21-.14a24.19,24.19,0,0,1-5.95-5.85l-.09-.12a23.74,23.74,0,0,1,11.88-4.4c9.8-.64,19.56,5.84,19,9.52A2.91,2.91,0,0,1,291.42,237.19Z"/><path class="cls-4" d="M291.89,237.12c-2.55,1.81-7.87,2.57-10.09,2.74a22,22,0,0,1-12.68-2.92c-.39-.23-.78-.47-1.15-.71l-.22-.15a29.78,29.78,0,0,1-6.33-5.87l.23-.13a21,21,0,0,1,11-2.67C281.68,227.74,291.14,233.75,291.89,237.12Z"/><path class="cls-4" d="M213.86,112.15q-3.75,10.57-7.16,21.36-1.78,5.66-3.46,11.36l-.51,1.72c-.13.42-.25.85-.37,1.27q-3.65,12.54-6.77,25.19a.5.5,0,0,0,0,.12.19.19,0,0,0,0,.07l-.75,3.07c-1.58,6.52-3,12.8-4.27,18.79l-1,4.85c-.06.31-.13.63-.19.94,0,.12-.05.24-.07.36a558.52,558.52,0,0,0-9.35,62c-.47,5.62-.86,11.31-1.14,16.92H176.5c.28-5.69.67-11.46,1.15-17.16.72-8.68,3.78-39.15,13.39-80.74,0-.06,0-.12.05-.18a2.21,2.21,0,0,1,0-.25q.71-3.06,1.47-6.19c3-12.53,6.44-25,10.21-37.36.12-.4.25-.81.37-1.22l.51-1.63q1.1-3.55,2.25-7.11,2.79-8.62,5.8-17.11v0a1.3,1.3,0,0,1,.51-.65,1,1,0,0,1,1-.06A1.36,1.36,0,0,1,213.86,112.15Z"/><path class="cls-5" d="M176.37,89c-2.13,2.62-4,6.48-2.45,9.59,1.36,2.73,4.58,3.27,7.35,3.3a61.37,61.37,0,0,0,33-9.37c1.07-.67,2.9-1.6,3.26-3.43.46-2.39-2-3.86-1.78-7.26.14-2.26,1.28-2.69,1-3.9-.84-3.47-11-3-11.5-3-1.43.07-6.17.4-13.86,3.68C184.56,81.52,180.36,84.15,176.37,89Z"/><path class="cls-5" d="M184,67.76a6.9,6.9,0,0,0-1.59,4.63c.18,2.46,2,4.17,3.45,5.4,8.6,7.12,18.7,8.74,27.31,9,1,0,2.7.25,3.63-.91,1.1-1.35.42-3.24,1.41-6.1a10.81,10.81,0,0,1,1.87-3.34c-6-3.4-11.24-5.93-15.39-7.77-3.14-1.39-8.18-3.51-14.31-3.36C188,65.38,185.62,65.76,184,67.76Z"/><path class="cls-5" d="M266.06,93.93a6.54,6.54,0,0,1-.82,4.88c-1.3,2-3.62,2.34-5.45,2.49-10.61.83-19.92-3.9-27.34-8.88-.88-.59-2.39-1.43-2.65-3-.29-1.81,1.16-3,1.67-6a11.79,11.79,0,0,0,0-4c4.59,1,10.69,2.35,18.25,4.18a47.08,47.08,0,0,1,12,5.32C263.6,90.15,265.51,91.5,266.06,93.93Z"/><path class="cls-5" d="M261.46,114.08c.59,3.51.36,7.9-2.4,9.6-2.43,1.5-5.41,0-7.77-1.64a73.63,73.63,0,0,1-23.54-27.88c-.6-1.21-1.72-3.11-1.16-4.87.72-2.31,3.48-2.07,4.9-5.08.93-2,.17-3,1-3.89,2.33-2.44,10.73,4.06,11.15,4.4,1.17.92,5,4.07,10,11.49C258,102.76,260.37,107.54,261.46,114.08Z"/><path class="cls-5" d="M216.23,133.48c-2.19,2.15-5.37,4-7.83,2.27-2.18-1.51-2.51-4.91-2.45-7.8a78.37,78.37,0,0,1,8.63-34.21c.57-1.1,1.38-3,2.88-3.31,1.94-.41,3,2.2,5.82,2.09,1.82-.08,2.21-1.25,3.18-.91,2.78,1,2.11,11.59,2.07,12.13-.1,1.49-.52,6.44-3.41,14.39C222.57,125.14,220.31,129.46,216.23,133.48Z"/><path class="cls-5" d="M229.87,139.23c2.3,2.82,5.79,5.41,8.85,3.78,2.7-1.44,3.47-5.33,3.72-8.71a93.17,93.17,0,0,0-6.17-41c-.54-1.36-1.27-3.68-3-4.26-2.22-.76-3.8,2.11-7,1.58-2.12-.35-2.43-1.77-3.6-1.52-3.35.74-3.76,13.17-3.78,13.8,0,1.74-.12,7.56,2.35,17.22C223.44,128.62,225.59,134,229.87,139.23Z"/><path class="cls-5" d="M182.35,119c-.72,3.9-.56,8.82,2.49,10.8,2.69,1.73,6,.14,8.72-1.64a81.63,81.63,0,0,0,26.89-30.53c.69-1.34,2-3.43,1.4-5.42-.76-2.59-3.85-2.4-5.37-5.81-1-2.25-.13-3.4-1-4.37-2.56-2.79-12.07,4.26-12.56,4.62-1.33,1-5.71,4.41-11.43,12.58C186.41,106.44,183.71,111.71,182.35,119Z"/><path class="cls-7" d="M219.49,102.91c.69.24,7,2.31,12.68-1.84,6.44-4.74,6.86-13.79,7.1-19.18.21-4.43.53-11.48-3.71-15.56a10.44,10.44,0,0,0-6.95-2.78c-7.56-.32-12.82,7.37-14.37,9.63-2.31,3.37-7.14,10.43-4.94,18.61A17,17,0,0,0,219.49,102.91Z"/><polygon class="cls-6" points="215.34 91.6 213.45 90.98 214.09 88.46 215.98 89.08 215.34 91.6"/><polygon class="cls-6" points="221.61 99.38 219.81 98.49 220.48 96.74 222.28 97.63 221.61 99.38"/><polygon class="cls-6" points="230.49 92.41 228.55 92.05 228.68 91.16 230.62 91.52 230.49 92.41"/><polygon class="cls-6" points="236.86 86.3 234.92 85.95 235.17 84.16 237.11 84.51 236.86 86.3"/><polygon class="cls-6" points="235.79 77.9 233.97 77.07 234.33 76.02 236.16 76.85 235.79 77.9"/><polygon class="cls-6" points="232.52 71.04 231.25 69.33 231.8 68.81 233.07 70.51 232.52 71.04"/><polygon class="cls-6" points="226.91 69.38 225.76 67.57 226.79 66.72 227.94 68.54 227.94 68.54 226.91 69.38"/><path class="cls-6" d="M218.16,81.53l1.37-8.83a4.7,4.7,0,0,1,.77-2l4.9-7Z"/><polygon class="cls-6" points="216.47 80.95 214.66 80.09 214.66 80.09 214.97 79.26 216.78 80.12 216.47 80.95"/><polygon class="cls-6" points="222.18 82.64 220.39 81.7 220.6 81.18 222.38 82.12 222.38 82.13 222.18 82.64"/><polygon class="cls-6" points="229.57 74.46 227.68 73.84 227.95 72.76 229.84 73.38 229.57 74.46"/><polygon class="cls-6" points="228.27 83.63 226.38 83.01 226.66 81.93 228.55 82.55 228.27 83.63"/><polygon class="cls-6" points="226.31 78.78 224.42 78.16 224.72 76.97 226.61 77.59 226.31 78.78"/><polygon class="cls-6" points="224.98 90.47 223.13 89.71 223.13 89.71 223.6 88.23 225.45 88.99 225.45 88.99 224.98 90.47"/><path class="cls-6" d="M226.35,101.12l-1.76-3.19a2.11,2.11,0,0,1,0-2l1.85-3.11ZM226,96.94l.27.21a.4.4,0,0,0,0-.41Z"/><polygon class="cls-6" points="236.1 95.8 234.22 95.18 234.43 94.31 236.32 94.93 236.1 95.8"/><polygon class="cls-6" points="212.69 85.01 210.77 84.53 211.11 82.77 213.03 83.25 212.69 85.01"/><path class="cls-4" d="M271.35,179.35c-4.51,7.71-17.11,16.35-22.52,19.59a61.18,61.18,0,0,1-35,8.79c-1.24-.08-2.46-.19-3.64-.34l-.71-.08a62.34,62.34,0,0,1-21.68-7.21l-.36-.2c4.58-7.72,12.76-19,25.93-26.67,24.6-14.36,56.8-10.49,59.4-.41C273.32,174.8,272.7,177,271.35,179.35Z"/><path class="cls-6" d="M268.83,181.11c-4.25,7.27-16.12,15.4-21.21,18.46a57.58,57.58,0,0,1-32.94,8.27c-1.17-.07-2.31-.17-3.43-.31l-.66-.08a58.86,58.86,0,0,1-20.43-6.79l-.34-.19c4.32-7.27,12-17.88,24.43-25.12,23.17-13.53,53.51-9.89,56-.38C270.69,176.83,270.1,178.93,268.83,181.11Z"/><path class="cls-4" d="M269.9,180.36c-4.36,7.46-16.54,15.81-21.77,18.94a59,59,0,0,1-33.79,8.49c-1.2-.07-2.38-.18-3.52-.32l-.69-.08A71.74,71.74,0,0,1,188.75,201l.42-.59a61.83,61.83,0,0,1,24.1-19.91C235.51,170.28,264.64,173.18,269.9,180.36Z"/><path class="cls-8" d="M206.89,82.78,188.6,80.59v-1a44.77,44.77,0,0,1,12.4.6,45.83,45.83,0,0,1,6.06,1.6Z"/><path class="cls-8" d="M190.91,101.53l-.36-1a122.62,122.62,0,0,1,14.72-6.53l.31,1Z"/><path class="cls-8" d="M207.1,115.9l-.84-.38a59.34,59.34,0,0,1,5.67-13.43l.79.51Z"/><path class="cls-8" d="M222.59,123.17l-.91,0c.21-6,.56-12,1-17.94l.9.08Z"/><path class="cls-8" d="M240,113.13l-7.55-11.21.7-.67a75.92,75.92,0,0,1,7.6,11.3Z"/><path class="cls-8" d="M255.38,100.68,238.32,94l.26-1a131.58,131.58,0,0,1,17.12,6.73Z"/><path class="cls-4" d="M165.32,287.91,122.69,116.67l2.13-.89a640.94,640.94,0,0,1,21.72,63.37c12,41.93,17.34,62.79,18.49,86.6.21,4.3.31,8.65.3,12.93ZM129.36,134l33.52,134.66q0-1.38-.12-2.76c-1.13-23.5-6.47-44.24-18.38-85.94C140,164.47,134.93,149.08,129.36,134Z"/><path class="cls-5" d="M159.26,91.8c2.24,2.5,4.26,6.26,2.85,9.45-1.25,2.8-4.45,3.51-7.21,3.68a60.86,60.86,0,0,1-33.32-7.64c-1.09-.61-3-1.44-3.39-3.25-.56-2.36,1.82-4,1.48-7.35-.23-2.24-1.39-2.61-1.14-3.84.69-3.51,10.84-3.61,11.36-3.61,1.43,0,6.18.08,14,3C150.78,84.72,155.09,87.13,159.26,91.8Z"/><path class="cls-5" d="M150.8,71a6.88,6.88,0,0,1,1.77,4.54c-.08,2.47-1.8,4.27-3.23,5.58C141,88.63,131,90.78,122.42,91.5c-1,.09-2.68.38-3.66-.72-1.15-1.3-.55-3.22-1.65-6a10.55,10.55,0,0,0-2-3.23C121,77.81,126.1,75,130.16,73c3.08-1.55,8-3.93,14.17-4.1C146.68,68.78,149.08,69,150.8,71Z"/><path class="cls-5" d="M69.87,101.38a6.48,6.48,0,0,0,1,4.83c1.38,1.92,3.7,2.15,5.54,2.2,10.63.29,19.74-4.93,26.95-10.3.86-.63,2.34-1.54,2.53-3.1.22-1.82-1.28-2.93-1.91-5.92a12.13,12.13,0,0,1-.13-4C99.33,86.35,93.3,88,85.82,90.26A47.44,47.44,0,0,0,74.08,96.2C72.18,97.48,70.32,98.93,69.87,101.38Z"/><path class="cls-5" d="M75.28,121.27c-.44,3.53,0,7.92,2.78,9.47,2.49,1.37,5.41-.28,7.7-2.05a75,75,0,0,0,22.39-29.08c.55-1.24,1.59-3.19,1-4.93-.82-2.26-3.56-1.88-5.1-4.82-1-1.94-.29-3-1.14-3.83-2.43-2.32-10.55,4.62-11,5-1.13,1-4.86,4.32-9.54,12C78.24,109.79,76.1,114.68,75.28,121.27Z"/><path class="cls-5" d="M121.25,138.28c2.27,2,5.52,3.7,7.91,1.86,2.11-1.62,2.31-5,2.13-7.91a77.64,77.64,0,0,0-10-33.73c-.62-1.07-1.5-2.92-3-3.15-2-.31-3,2.35-5.73,2.39-1.83,0-2.26-1.14-3.21-.74-2.75,1.12-1.64,11.69-1.59,12.23a52.39,52.39,0,0,0,4,14.18C114.58,130.29,117,134.49,121.25,138.28Z"/><path class="cls-5" d="M107.85,144.75c-2.18,2.93-5.57,5.7-8.69,4.23-2.75-1.29-3.67-5.14-4.06-8.5a93.59,93.59,0,0,1,4.5-41.31c.49-1.39,1.12-3.74,2.8-4.41,2.18-.87,3.88,1.91,7.06,1.21,2.09-.46,2.35-1.9,3.52-1.71,3.38.56,4.3,13,4.34,13.59.12,1.74.43,7.55-1.65,17.32C113.84,133.81,111.92,139.26,107.85,144.75Z"/><path class="cls-5" d="M154.5,122.05c.88,3.86.92,8.79-2,10.92-2.62,1.87-6,.46-8.78-1.18a80.29,80.29,0,0,1-28.1-29.09c-.75-1.31-2.12-3.33-1.62-5.34.66-2.63,3.76-2.61,5.14-6.09.91-2.3,0-3.41.84-4.42,2.44-2.92,12.23,3.62,12.73,4,1.36.93,5.88,4.11,11.93,12C149.94,109.72,152.85,114.84,154.5,122.05Z"/><path class="cls-7" d="M116.75,107.92c-.68.28-6.92,2.68-12.73-1.18-6.63-4.39-7.41-13.42-7.88-18.79-.38-4.41-1-11.43,3.09-15.73a10.61,10.61,0,0,1,6.82-3.15c7.54-.71,13.11,6.7,14.75,8.88,2.44,3.24,7.55,10,5.68,18.33A17.25,17.25,0,0,1,116.75,107.92Z"/><polygon class="cls-6" points="120.44 96.41 119.7 93.92 121.56 93.2 122.3 95.69 120.44 96.41"/><polygon class="cls-6" points="114.49 104.5 114.49 104.5 113.75 102.79 115.52 101.81 116.26 103.52 114.49 104.5"/><polygon class="cls-6" points="105.34 98.01 105.18 97.12 107.1 96.66 107.27 97.55 105.34 98.01"/><polygon class="cls-6" points="98.73 92.24 98.41 90.46 100.33 90.01 100.65 91.78 98.73 92.24"/><polygon class="cls-6" points="99.46 83.79 99.46 83.79 99.05 82.76 100.84 81.83 100.84 81.83 101.25 82.86 99.46 83.79"/><polygon class="cls-6" points="102.44 76.76 101.88 76.27 103.08 74.5 103.64 74.99 102.44 76.76"/><polygon class="cls-6" points="107.98 74.81 107.98 74.81 106.92 74.03 108 72.15 108 72.15 109.06 72.94 107.98 74.81"/><path class="cls-6" d="M117.21,86.5l-7.74-17.43,5.17,6.76a4.66,4.66,0,0,1,.85,1.91Z"/><polygon class="cls-6" points="118.88 85.83 118.88 85.83 118.54 85.01 120.32 84.06 120.32 84.06 120.66 84.88 118.88 85.83"/><polygon class="cls-6" points="113.25 87.81 113.02 87.3 114.77 86.27 115 86.78 113.25 87.81"/><polygon class="cls-6" points="105.54 80.02 105.22 78.96 107.08 78.24 107.4 79.31 105.54 80.02"/><polygon class="cls-6" points="107.2 89.12 107.2 89.12 106.88 88.06 108.75 87.34 108.75 87.34 109.06 88.41 107.2 89.12"/><polygon class="cls-6" points="108.96 84.17 108.61 83 110.48 82.28 110.83 83.45 108.96 84.17"/><polygon class="cls-6" points="110.77 95.78 110.77 95.78 110.24 94.32 112.05 93.47 112.58 94.93 110.77 95.78"/><path class="cls-6" d="M109.83,106.49l-.47-8.33,2,3a2.12,2.12,0,0,1,.12,2Zm-.09-4.38a.4.4,0,0,0,0,.41l.26-.22Z"/><polygon class="cls-6" points="99.87 101.68 99.62 100.83 101.48 100.11 101.73 100.96 99.87 101.68"/><polygon class="cls-6" points="122.82 89.69 122.82 89.69 122.41 87.94 124.31 87.36 124.31 87.36 124.72 89.1 122.82 89.69"/><path class="cls-4" d="M68,187c4.82,7.47,17.75,15.44,23.28,18.39a60.74,60.74,0,0,0,35.28,7c1.24-.14,2.45-.31,3.63-.52l.7-.13a62.91,62.91,0,0,0,21.37-8.33l.35-.22c-4.89-7.46-13.52-18.29-27-25.28-25.16-13.06-57.17-7.52-59.36,2.7C65.88,182.55,66.6,184.75,68,187Z"/><path class="cls-6" d="M70.63,188.62c4.54,7,16.72,14.54,21.93,17.33a57.25,57.25,0,0,0,33.23,6.54c1.17-.13,2.31-.29,3.42-.49l.66-.12A59.28,59.28,0,0,0,150,204l.33-.2c-4.61-7-12.73-17.23-25.41-23.82-23.7-12.3-53.85-7.08-55.92,2.54C68.6,184.44,69.27,186.51,70.63,188.62Z"/><path class="cls-4" d="M69.53,187.92c4.66,7.23,17.16,14.93,22.5,17.79a58.7,58.7,0,0,0,34.11,6.71c1.2-.13,2.37-.3,3.5-.5l.68-.12a72.58,72.58,0,0,0,21.11-7.49l-.45-.57a60.76,60.76,0,0,0-24.87-18.62C103.47,176.05,74.49,180.47,69.53,187.92Z"/><path class="cls-4" d="M203.58,134.31c1.16,9.17-3.17,25.15-5.3,31.67a77.39,77.39,0,0,1-20.93,33c-1,.89-1.95,1.73-2.91,2.52l-.58.47a65.1,65.1,0,0,1-20.39,11.05l-.39.12a90.35,90.35,0,0,1,3.72-39.53c9.93-29.35,36.21-50.87,44.06-45.32C202.4,129.42,203.24,131.56,203.58,134.31Z"/><path class="cls-6" d="M202.74,137.53c1.09,8.64-3,23.7-5,29.84A72.84,72.84,0,0,1,178,198.49c-.91.84-1.83,1.63-2.74,2.37l-.54.44a61.07,61.07,0,0,1-19.21,10.42l-.36.11a85.08,85.08,0,0,1,3.5-37.24c9.35-27.65,34.11-47.92,41.5-42.69C201.62,132.93,202.41,134.94,202.74,137.53Z"/><path class="cls-4" d="M203.1,136.16c1.12,8.87-3.07,24.32-5.13,30.62a74.93,74.93,0,0,1-20.23,31.94q-1.41,1.28-2.82,2.43l-.56.45a75.85,75.85,0,0,1-19.68,11.45l0-.76a76.78,76.78,0,0,1,6.31-33.1C171.55,154.7,195,134.79,203.1,136.16Z"/><path class="cls-8" d="M128.52,87.15l-.22-1A45.23,45.23,0,0,1,146.65,83l.06,1Z"/><path class="cls-8" d="M145.25,105.05l-14.92-5.74.27-1a121.52,121.52,0,0,1,15,5.76Z"/><path class="cls-8" d="M129.66,120.25l-6.15-13,.77-.54a58.83,58.83,0,0,1,6.2,13.11Z"/><path class="cls-8" d="M114.48,128.32l-1.76-17.84.9-.13c.72,5.92,1.31,11.93,1.76,17.87Z"/><path class="cls-8" d="M96.68,119.21l-.76-.55A76.22,76.22,0,0,1,103.05,107l.72.63Z"/><path class="cls-8" d="M80.81,107.57l-.36-.95A134.85,134.85,0,0,1,97.28,99l.31,1Z"/><path class="cls-9" d="M268,185.72c-1.08-12.85,5.17-22.68,7.08-25.6,2.2-3.34,6.35-9.5,14-12.85a25.62,25.62,0,0,1,15.81-1.54c-1.71,12.17-5.92,20-8.65,24.24-3.23,5-6.68,8.35-11.77,13.34a141,141,0,0,1-14.21,12.26A35.05,35.05,0,0,1,268,185.72Z"/><path class="cls-9" d="M278.26,199.37c11,3.21,20.48-2.31,23.31-4a32.82,32.82,0,0,0,13.33-13.78A36.76,36.76,0,0,0,318.67,164a43.31,43.31,0,0,0-22.37,6c-4.8,2.86-8.27,6.21-13.4,11.16a152.28,152.28,0,0,0-12.84,14.09A26.42,26.42,0,0,0,278.26,199.37Z"/><path class="cls-9" d="M293.27,160.78c3.82-1.25,7.84-2.44,12.05-3.52q3.12-.8,6.14-1.46l-5.6,13.27a14.94,14.94,0,0,1-4.49,6.47,9.51,9.51,0,0,1-3.3,1.84c-4.41,1.2-11.22-2.39-11.22-7.93C286.85,166,289.48,162.47,293.27,160.78Z"/><path class="cls-6" d="M278.32,189.35l25.34-34.6L302.13,158a99.08,99.08,0,0,1-5.82,10.57A92.26,92.26,0,0,1,280.87,187Zm21.44-28.11-16.48,22.51a91.58,91.58,0,0,0,12.49-15.62C297.18,165.91,298.52,163.61,299.76,161.24Z"/><polygon class="cls-6" points="295.96 172.79 295.67 172.13 307.02 165.46 307.31 166.12 295.96 172.79"/><path class="cls-9" d="M50.55,143.6c-11.39-.72-18.82-9.18-21-11.75a35,35,0,0,1-8.66-17.59,36.58,36.58,0,0,1,1.52-17.88,46.16,46.16,0,0,1,19.55,13.3c3.74,4.34,6.07,8.7,9.5,15.13a159.15,159.15,0,0,1,8.11,17.71A25.38,25.38,0,0,1,50.55,143.6Z"/><path class="cls-9" d="M64.3,134.19C69.08,122.41,66,111,65,107.57c-1.12-3.91-3.27-11.16-9.61-16.95a26.7,26.7,0,0,0-14.6-6.85A59.92,59.92,0,0,0,42,109.64c1.62,5.79,3.92,10.18,7.3,16.64a153.36,153.36,0,0,0,10,16.45A33.24,33.24,0,0,0,64.3,134.19Z"/><path class="cls-9" d="M33.39,111.64q-.6-6.67-.88-14c-.09-2.41-.15-4.76-.17-7.07l10.55,8.24a13.64,13.64,0,0,1,4.83,6,11.64,11.64,0,0,1,1,4c.25,5.1-4.11,12.16-8.93,11.33C36.79,119.6,34.18,116.13,33.39,111.64Z"/><path class="cls-6" d="M55.59,132.62,30,99.14l2.54,2.19a84.17,84.17,0,0,1,8.16,8.09,91.35,91.35,0,0,1,13.29,20ZM35,104.47,51.6,126.25A90.08,90.08,0,0,0,40.25,110C38.57,108,36.8,106.21,35,104.47Z"/><polygon class="cls-6" points="43.71 110.67 39.96 96.99 40.59 96.77 44.34 110.44 43.71 110.67"/><path class="cls-4" d="M168.87,283.77l-4.12-243,2.13-.09c1.43,28.75,2.54,57.92,3.29,86.69,1.37,51.86,1.65,104.49.82,156.42Z"/><path class="cls-4" d="M168.12,80.6l-1.85-1.2a172.68,172.68,0,0,1,25.68-43l1.66,1.5Z"/><path class="cls-4" d="M180.86,64.42l-1.62-10.84a66,66,0,0,1,1.11-25.16l2.57-10.61Z"/><path class="cls-4" d="M171,62.78l-5.35-6.53A76.6,76.6,0,0,1,150,21.92l-1.64-8.73ZM155.87,34.9a74.47,74.47,0,0,0,3.85,8.41Z"/><path class="cls-4" d="M166.71,41.13l-2.12-.2c.4-7.77,1.16-15.61,2.27-23.29L169,18Z"/><polygon class="cls-4" points="166.31 70.84 139.8 52.21 140.92 50.15 167.43 68.79 166.31 70.84"/><path class="cls-4" d="M153.47,61.82a103.76,103.76,0,0,1-8.21-21.43l-1.14-3,1.35-5.53,1,4.38c.25,1.11.52,2.21.8,3.3l8.1,21.16Z"/><ellipse class="cls-5" cx="194.47" cy="35.64" rx="4.53" ry="5.15"/><ellipse class="cls-5" cx="182.15" cy="26.93" rx="3.65" ry="4.15"/><ellipse class="cls-5" cx="144.92" cy="35.43" rx="3.65" ry="4.15"/><ellipse class="cls-5" cx="150.89" cy="20.99" rx="2.95" ry="3.36"/><ellipse class="cls-5" cx="139.39" cy="50.17" rx="2.95" ry="3.36"/><ellipse class="cls-5" cx="167.9" cy="17.81" rx="4.53" ry="5.15"/><path class="cls-4" d="M148.35,282.87,102.68,204.4l4,2.5a83,83,0,0,1,24.53,23.58c11.72,17,15.52,35,16.64,47.14ZM109.81,212l35.13,60.36a95.41,95.41,0,0,0-15.5-40.26A81.25,81.25,0,0,0,109.81,212Z"/><path class="cls-10" d="M92.06,223.47c4,5.72,10.18,8.16,15.34,6.28s7.3-7.61,7.63-8.61c2.1-6.27.19-14-4.81-19.48,5.25.42,10.21-3.92,11.81-9.56s.15-12.12-3.09-16.91a17.3,17.3,0,0,0-10-7.42c-4-.91-7.69-.94-10.57,2.19l0,.58a18.77,18.77,0,0,0-2.55-18.89c-4.17-5-11.12-6.58-16.52-3.84s-8.85,9.64-8.2,16.39c-2.37-5.25-8.2-7.1-13.27-6.21S48.42,163.44,47,169a20.75,20.75,0,0,0,3.18,16.55c2.67,3.78,6.9,6.52,11.06,5.79-2-.87-3.75-.37-5.61.75a12.42,12.42,0,0,0-4.38,5,21.71,21.71,0,0,0,1.37,21.33,12.29,12.29,0,0,0,6.89,5.27A6.88,6.88,0,0,0,67,220.79a16.59,16.59,0,0,0,1.76,10.7c3.28,5.59,10.22,8,15.81,5.27C89,234.55,92,229.36,92.06,223.47Z"/><path class="cls-11" d="M78.56,180.13l-1.22-1.55a34.12,34.12,0,0,1-6.64-14.43l-.41-2Zm-6.85-13.75a33.89,33.89,0,0,0,4.6,10Z"/><path class="cls-11" d="M92.17,180.42l-.36-.35,6.64-10.31.4.28A37.85,37.85,0,0,1,92.17,180.42ZM96,174.54l-.9,1.39C95.37,175.47,95.67,175,96,174.54Z"/><path class="cls-11" d="M111.57,202.39,99.14,197.5l.09-.51a37.08,37.08,0,0,1,6,1.31,14,14,0,0,1,5.46,3.19ZM101.7,198l7.49,2.94a14.55,14.55,0,0,0-4.11-2.08A26.15,26.15,0,0,0,101.7,198Z"/><path class="cls-11" d="M92.64,225.34,91.85,224a30.07,30.07,0,0,1-4-16.87l.09-1.58ZM88.27,209a29.69,29.69,0,0,0,3.14,13.24Z"/><path class="cls-11" d="M67.22,221.16l-.4-.29A66.66,66.66,0,0,1,79.7,201.72l.35.36Zm10.6-16.65a66.25,66.25,0,0,0-9.12,13.56Z"/><path class="cls-11" d="M74.18,191.15l-15.93.47,0-.53a55.22,55.22,0,0,1,16-.47Zm-10.29-.23,4.6-.14C67,190.76,65.42,190.81,63.89,190.92Z"/><ellipse class="cls-12" cx="85.41" cy="191.88" rx="14.43" ry="16.41" transform="translate(-17.77 8.94) rotate(-5.43)"/><ellipse class="cls-6" cx="77.37" cy="185.25" rx="1.12" ry="1.27" transform="translate(-17.17 8.15) rotate(-5.43)"/><path class="cls-6" d="M91.44,202a.75.75,0,1,1-.82-.77A.8.8,0,0,1,91.44,202Z"/><ellipse class="cls-6" cx="96.4" cy="191.41" rx="0.5" ry="0.57" transform="translate(-17.67 9.98) rotate(-5.43)"/><path class="cls-6" d="M90.34,180.71a.46.46,0,1,1-.91.08.46.46,0,1,1,.91-.08Z"/><path class="cls-6" d="M86.32,196.77a.49.49,0,0,1-.4.55.47.47,0,0,1-.48-.46.47.47,0,0,1,.39-.54A.47.47,0,0,1,86.32,196.77Z"/><path class="cls-6" d="M78.35,201.46a.8.8,0,1,1-1.57.15.79.79,0,1,1,1.57-.15Z"/><path class="cls-6" d="M84.72,204.94a.69.69,0,1,1-1.36.13.69.69,0,1,1,1.36-.13Z"/><ellipse class="cls-6" cx="74.16" cy="192.95" rx="0.93" ry="1.05" transform="translate(-17.92 7.88) rotate(-5.43)"/><path class="cls-6" d="M82.64,178.06a.63.63,0,0,1-.52.71.66.66,0,1,1,.52-.71Z"/><path class="cls-6" d="M89.71,188a.81.81,0,0,1-.66.92.86.86,0,1,1,.66-.92Z"/><path class="cls-6" d="M83.66,193.45a1,1,0,1,1-2.07.2,1,1,0,1,1,2.07-.2Z"/><path class="cls-6" d="M92.91,195.21a.83.83,0,1,1-.91-.86A.89.89,0,0,1,92.91,195.21Z"/><path class="cls-6" d="M97.22,200a.25.25,0,1,1-.5,0,.26.26,0,0,1,.22-.31A.27.27,0,0,1,97.22,200Z"/><ellipse class="cls-6" cx="94.37" cy="184.15" rx="1.09" ry="1.24" transform="translate(-16.99 9.75) rotate(-5.43)"/><ellipse class="cls-6" cx="82.96" cy="186.06" rx="0.72" ry="0.82" transform="translate(-17.23 8.68) rotate(-5.43)"/><path class="cls-4" d="M207.67,289.27,211.88,279A248.48,248.48,0,0,1,242,225.19a231.08,231.08,0,0,1,27.38-30.9l7.72-7.27Zm54.53-84.5a229.57,229.57,0,0,0-18.51,22A244,244,0,0,0,219,268.4Z"/><path class="cls-13" d="M221.15,230.31a13.33,13.33,0,0,0,9.1-11.77,13.61,13.61,0,0,0-3.6-9.73c-3.7-3.95-9.61-4.77-15-2.07a13.16,13.16,0,0,0-3-13.8A12.73,12.73,0,0,0,196,190.15a14.48,14.48,0,0,0-8.24,6.62c-1.86,3.29-3,6.63-1.76,10.26l.39.23a11.63,11.63,0,0,0-13.87-3.91c-4.72,2.12-8,7.86-7.77,13.64s3.94,11.16,8.82,12.79c-4.37.42-7.46,5.06-8.4,9.93A14.75,14.75,0,0,0,169.52,253,12.6,12.6,0,0,0,182,255.61a11.06,11.06,0,0,0,7.43-8.07,6.83,6.83,0,0,0-1.21,5.3,12.33,12.33,0,0,0,2.12,5.61c3.43,5.14,9.73,7.54,15.19,5.79a10.16,10.16,0,0,0,5.78-4.48,8.09,8.09,0,0,0,.27-7.68,10,10,0,0,0,8,1.93c4.88-1.12,8.71-6.58,8.54-12.53A12.93,12.93,0,0,0,221.15,230.31Z"/><path class="cls-11" d="M177.43,230.43a21.08,21.08,0,0,1-4-.38l-1.51-.29,15-1.54-1.45.59A21.05,21.05,0,0,1,177.43,230.43Zm-2.1-.56a20.82,20.82,0,0,0,8.33-.86Z"/><path class="cls-11" d="M191,216.24l-5.09-9.38.32-.27a34.25,34.25,0,0,1,5.13,9.45Zm-2.55-5.56.69,1.26C189,211.52,188.72,211.09,188.48,210.68Z"/><path class="cls-11" d="M205.36,215.37l-.32-.26a41.26,41.26,0,0,1,2.75-5,12.65,12.65,0,0,1,3.9-3.87l.91-.53Zm5.46-8a13.7,13.7,0,0,0-2.71,3,26.21,26.21,0,0,0-1.64,2.77Z"/><path class="cls-11" d="M217.52,231.12a18.12,18.12,0,0,1-9-2.4l-1.07-.6,15.16,2.29-1.17.26A17.51,17.51,0,0,1,217.52,231.12Zm-7.59-2.18a17.55,17.55,0,0,0,10.14,1.54Z"/><path class="cls-11" d="M211.55,252.22a61.38,61.38,0,0,1-9.28-17.92l.36-.2L211.87,252Zm-7.92-15.3a61,61,0,0,0,6.56,12.69Z"/><path class="cls-11" d="M188.65,250.32l-.39-.12a66.58,66.58,0,0,1,4.62-14.58l.36.18Zm2.58-9.51c-.48,1.38-.93,2.78-1.32,4.2Z"/><ellipse class="cls-5" cx="197.23" cy="225.91" rx="12.3" ry="13.99"/><path class="cls-14" d="M190.42,229.94a1.12,1.12,0,0,1,.64,1.35.94.94,0,0,1-1.18.73,1.12,1.12,0,0,1-.65-1.35A1,1,0,0,1,190.42,229.94Z"/><path class="cls-14" d="M206.08,223.79a.74.74,0,0,1,.43.9.63.63,0,0,1-.79.49.75.75,0,0,1-.43-.9A.63.63,0,0,1,206.08,223.79Z"/><path class="cls-14" d="M200.42,215.36a.5.5,0,0,1,.29.61.41.41,0,0,1-.53.33.5.5,0,0,1-.29-.61A.43.43,0,0,1,200.42,215.36Z"/><path class="cls-14" d="M191,217.78a.46.46,0,0,1,.26.55.38.38,0,0,1-.49.3.46.46,0,0,1-.26-.55A.38.38,0,0,1,191,217.78Z"/><path class="cls-14" d="M200.9,226.7a.45.45,0,0,1,.25.53.37.37,0,0,1-.47.29.43.43,0,0,1-.25-.53A.37.37,0,0,1,200.9,226.7Z"/><path class="cls-14" d="M201.68,235.43a.79.79,0,0,1,.45,1,.66.66,0,0,1-.83.51.79.79,0,0,1-.46-1A.67.67,0,0,1,201.68,235.43Z"/><path class="cls-14" d="M206.06,230.83a.69.69,0,0,1,.39.82.58.58,0,0,1-.72.45.68.68,0,0,1-.39-.82A.58.58,0,0,1,206.06,230.83Z"/><path class="cls-14" d="M194.71,235.55a.91.91,0,0,1,.53,1.11.78.78,0,0,1-1,.61.93.93,0,0,1-.53-1.12A.78.78,0,0,1,194.71,235.55Z"/><path class="cls-14" d="M186.8,223.86a.57.57,0,0,1,.33.69.48.48,0,0,1-.61.38.57.57,0,0,1-.33-.69A.48.48,0,0,1,186.8,223.86Z"/><path class="cls-14" d="M195.84,220.73a.76.76,0,0,1,.43.9.64.64,0,0,1-.79.49.74.74,0,0,1-.43-.9A.63.63,0,0,1,195.84,220.73Z"/><path class="cls-14" d="M197.78,228a1,1,0,0,1,.59,1.26.88.88,0,0,1-1.1.68,1,1,0,0,1-.6-1.26A.88.88,0,0,1,197.78,228Z"/><path class="cls-14" d="M201.85,220.23a.82.82,0,0,1,.47,1,.68.68,0,0,1-.87.54.82.82,0,0,1-.47-1A.7.7,0,0,1,201.85,220.23Z"/><path class="cls-14" d="M206.47,217.91a.26.26,0,0,1,.15.31.21.21,0,0,1-.27.16.24.24,0,0,1-.14-.3A.21.21,0,0,1,206.47,217.91Z"/><path class="cls-14" d="M194.91,214.27a1.09,1.09,0,0,1,.63,1.31.92.92,0,0,1-1.16.71,1.09,1.09,0,0,1-.63-1.31A.92.92,0,0,1,194.91,214.27Z"/><path class="cls-14" d="M192.61,225.53a.72.72,0,0,1,.42.87.61.61,0,0,1-.77.47.72.72,0,0,1-.41-.87A.61.61,0,0,1,192.61,225.53Z"/><path class="cls-15" d="M174.87,560.33H210c14,0,66.7-45.64,66.7-115.86s-77.23-66.71-77.23-101.83,7-56.17,21.05-56.17,15.95-10.56,3.52-10.56H125.72c-12.43,0-10.55,10.56,3.5,10.56s21,21,21,56.17S73,374.24,73,444.47s52.68,115.86,66.68,115.86Z"/><path class="cls-16" d="M175.91,554.44c17,0,19.82,3.67,33.42,3.67S274,512.89,274,443.33s-76.06-63.72-76.06-98.52,8-58,21.6-58,15.47-10.45,3.41-10.45H127.65c-12,0-10.19,10.45,3.42,10.45s21.43,20.53,21.43,55.29S77.71,377,77.71,446.52s49.94,111.59,63.56,111.59S158.87,554.44,175.91,554.44Z"/><path class="cls-17" d="M175.91,554.44c17,0,19.82,3.67,33.42,3.67S274,512.89,274,443.33s-76.06-63.72-76.06-98.52,8-58,21.6-58,15.47-10.45,3.41-10.45H127.65c-12,0-10.19,10.45,3.42,10.45s21.43,20.53,21.43,55.29S77.71,377,77.71,446.52s49.94,111.59,63.56,111.59S158.87,554.44,175.91,554.44Z"/><path class="cls-18" d="M209.33,558.11H141.27c13.62,0,17.6-3.67,34.64-3.67S195.73,558.11,209.33,558.11Z"/><path class="cls-19" d="M133.09,454C99.73,423.57,167.18,401.8,167,355.12c-.15-48.89-14.52-13-14.52-13,0,34.8-74.79,34.85-74.79,104.42s49.94,111.59,63.56,111.59C141.27,558.11,261,570.44,133.09,454Z"/><path class="cls-19" d="M206.82,296.51c3.39-6.53,8-10,13.67-10l-40.63-4.11-50.64,4.11c5.26,0,9.54,3,12.82,8.51,5.51,9.24,8.22,25.7,8.22,47.66C150.26,342.64,156.66,303.35,206.82,296.51Z"/><path class="cls-20" d="M180.53,281.78l40,4.69c14.07,0,15.95-10.56,3.52-10.56H125.72c-12.43,0-10.55,10.56,3.5,10.56Z"/><path class="cls-21" d="M175.85,284.86c24.47-.22,44.64,1.61,44.64,1.61,6.43,0,10.31-2.22,11.45-4.6-2.71-.44-2.25-1.89-4.74-2.27-19.66-2.93-43.16-1.43-105.44-1.22-2.52.11-1.63,1.71-4.33,1.81-.17,2.94,3.89,6.28,11.79,6.28C129.22,286.47,151.4,285.06,175.85,284.86Z"/><path class="cls-22" d="M208,294.52H141.76a23.22,23.22,0,0,0-2.53-3.31h71.25A23.9,23.9,0,0,0,208,294.52Z"/><path class="cls-22" d="M111.57,380.43c1.8-1.12,3.57-2.23,5.35-3.28H232.8c1.78,1.05,3.57,2.16,5.35,3.28Z"/><path class="cls-22" d="M273.25,474.64c-.25,1.11-.5,2.23-.76,3.34H77.24c-.28-1.11-.51-2.23-.77-3.34Z"/><path class="cls-22" d="M205.12,300.39c-.42,1.05-.8,2.14-1.17,3.31H145.76c-.35-1.17-.76-2.26-1.17-3.31Z"/><path class="cls-23" d="M80.06,412.2a68.64,68.64,0,0,1,18.15-22.13H251.5a68.23,68.23,0,0,1,18.14,22.13Z"/><path class="cls-23" d="M276.61,446.23a140.66,140.66,0,0,1-2,22.15H75.16a137.18,137.18,0,0,1-2-22.15Z"/><path class="cls-22" d="M75.46,424.66c.39-1.52.82-3,1.32-4.43H273c.48,1.42.91,2.91,1.31,4.43Z"/><path class="cls-22" d="M276,433.65c.18,1.46.38,2.91.49,4.44H73.25c.12-1.53.29-3,.49-4.44Z"/><path class="cls-22" d="M123.78,552.37c-1.72-1.32-3.52-2.77-5.31-4.41H231.26c-1.82,1.64-3.59,3.09-5.3,4.41Z"/><path class="cls-24" d="M228.29,389.2c12.8,7.13,35.73,41.05,40.44,53.21,9.73,25.1-5.62,65-29.17,65s-45.05-14.33-45.05-35.82,32.26-17.92,27.64-36.86-19.47-34.31-13.31-45.55S228.29,389.2,228.29,389.2Z"/><path class="cls-25" d="M119.16,388.23c-.16-7.8-55,42.34-31.14,85.52,18.45,33.42,4.81-21.48,7.72-34.45C100.36,418.82,119.28,394.94,119.16,388.23Z"/></svg>