<?xml version="1.0" encoding="utf-8"?>
<!-- Generator: Adobe Illustrator 25.2.3, SVG Export Plug-In . SVG Version: 6.00 Build 0)  -->
<svg version="1.1" id="Layer_1" xmlns="http://www.w3.org/2000/svg" xmlns:xlink="http://www.w3.org/1999/xlink" x="0px" y="0px"
	 viewBox="0 0 520 520" style="enable-background:new 0 0 520 520;" xml:space="preserve">
<style type="text/css">
	.st0{opacity:0.5;enable-background:new    ;}
	.st1{fill:#C40E0E;}
	.st2{fill:#EB1413;}
	.st3{opacity:0.69;fill:#870100;enable-background:new    ;}
	.st4{fill:#319422;}
	.st5{fill:#30CF64;}
	.st6{fill:#2D871F;}
	.st7{fill:#2E8A20;}
	.st8{opacity:0.6;fill:#FFFFFF;enable-background:new    ;}
	.st9{fill:#2EC45F;}
	.st10{fill:#D5E876;}
	.st11{fill:#BECF69;}
	.st12{opacity:0.5;fill:#FF6C6B;enable-background:new    ;}
	.st13{fill:#FA5150;}
	.st14{opacity:0.69;fill:#FFFFFF;enable-background:new    ;}
	.st15{fill:#FF6C6B;}
	.st16{opacity:0.64;fill:#FF6C6B;enable-background:new    ;}
</style>
<path class="st0" d="M440.1,324.5L440.1,324.5c-0.2-0.1-0.3-0.2-0.5-0.3c4.3,0.2,7.8,0.5,7.8,0.5c-3.3-0.8-6.6-1.3-9.9-1.6
	c-3.5-1.7-7.2-3-10.9-4c1.8-2.3,3.1-4.7,1.8-5.6c0,0-7.5,0.1-8.7,1.1c0.3,1,0.4,2,0.3,3c-1.2-0.2-2.4-0.4-3.7-0.6
	c-2.9-2.4-9.9-2.8-9.9-2.8c2.1,0.5,4.1,1.3,6,2.3c-2.8-0.3-5.7-0.4-8.5-0.5c-3.3-6.6-13-12.7-26.1-16.6c-2.3-1.1-4.7-1.6-7.2-1.8
	c-3.5-0.7-7-1.2-10.6-1.6c1.5-1.9,6.2-2.9,6.2-2.9s-5.9,0-8.4,2.7l-2.1-0.1c0.3-1,0.6-1.9,1.2-2.8c-0.5-1-5.7-1.5-5.7-1.5
	c-1,0.6-1,2.3-0.8,4.1c-16.9-0.3-33.6,2.9-43.7,9.3c-3.4-1.5-6.9-2.7-10.5-3.7c-0.6-0.2-1.3-0.3-1.9-0.5l0.4-0.2
	c3.1-1.2,9-0.8,9-0.8s-5.6-1.5-10.6,0l-1.3,0.4c-0.5-0.1-1.1-0.2-1.6-0.3c1.6-1,3.3-1.9,5-2.6c0.5-0.9-4-2.5-4-2.5
	c-2,0.3-4.1,2.3-5.9,4.3c-5.2-0.7-10.3-1-15.5-0.9c-2-0.3-3.4-0.3-3.4-0.3l1.7,0.4c-13.9,0.5-27,3.7-34.6,9.4
	c-1.2,0.9-2.3,2-3.3,3.1c-4.8-2.4-9.8-4.3-15.1-5.7c-0.7-0.2-1.4-0.4-2.1-0.5c2.5-0.6,5-1.1,7.6-1.5c-0.3-0.1-0.6-0.2-0.8-0.2
	c5-0.6,9.3-0.8,9.3-0.8c-6.5-0.4-13-0.2-19.4,0.6c-1.1,0.1-2.3,0.3-3.6,0.5c-1.8-0.3-3.7-0.6-5.6-0.8c0.4-3.6,0.4-8.4-2.6-9.5
	c0,0-8.4,1.4-8.8,2.8c1.9,1.6,3.4,3.7,4.3,6.1l-1.4-0.1c-1.1-0.7-2.2-1.5-3.1-2c-5.1-3.1-15-2.1-15-2.1s8.8,0.6,11.6,2.9
	c0.4,0.3,0.7,0.7,1,1.1c-17.6,0-34.7,3.8-44.2,11c-1.5,1.1-2.9,2.5-4.1,3.9c-2.9-1-6-1.6-9.1-1.8c2.5,0.6,4.9,1.5,7.2,2.7
	c-21.5-2.1-44.7,1.5-56.5,10.4c-16.1,12.2-2.7,27.2,23,33.2c29.4,6.9,51,4.4,65.9-3.2c6.1,4.2,14.6,7.7,24.6,10.1
	c40.6,9.5,68.5,3.8,85.9-9c4.4,1.8,9,3.3,13.6,4.4c38.6,9,64.8,3.5,81.2-8.8c1.2-0.9,2.4-2,3.4-3.2c2.2,0.8,4.5,1.5,6.8,2
	c29.4,6.9,49.4,2.7,61.8-6.7C455.4,339.4,451.4,330.7,440.1,324.5z M377.8,299.5c-0.6-0.2-1.1-0.3-1.7-0.5l-0.5-0.1
	C376.3,299,377.1,299.2,377.8,299.5L377.8,299.5z"/>
<path class="st1" d="M395.1,274.2c-14.5,24.3-37.8,35.1-72,17.4c-25.1-13-38.2-45.6-22.4-72c14.5-24.3,47-30.7,71.3-16.2
	S409.6,249.9,395.1,274.2z"/>
<path class="st2" d="M392.5,271.1C379.1,293.5,356,300,325.9,285c-23.2-11.5-35.7-43.3-22.3-65.6s46-28.7,68.2-15.4
	S405.8,248.8,392.5,271.1z"/>
<path class="st3" d="M356.4,195.4c0,0-0.9-1.1-2.6,2.2c-1.9,3.7-3.8,10.2-5.8,9.4c-9.3-3.8-12.6,1.2-12.6,1.2s6.1,0.4,9.4,4.7
	c1.5,2-10.3,6.8-5.5,16.2c-0.1-1.7,0.3-3.4,1.1-5c1.8-4.4,5.3-7.8,9.6-9.6c4.5-1.6,11.8-0.4,14,10.3c0,0,0.6-16.6-9.5-14.5
	c2.3-1.8,4.8-3.3,7.4-4.5c1.7-0.7,6.9-0.8,9.8,3c0,0-4.1-7.9-10.2-5.9l-6.2,2c0,0-0.8-1.8,0.5-7.1
	C356.5,194.6,356.4,195.4,356.4,195.4z"/>
<path class="st4" d="M362.1,190.7c-3.8,0.2-7.1,2.6-8.5,6.1c-1.6,3.9-3.6,11-5.6,10.1c-9.3-3.8-17.8,1-17.8,1s12.8-1.9,14.9,3.8
	c0.9,2.5-12.8,7.8-7.2,19.3c0,0-0.4-6.7,2.8-10.6c4-4.9,6.8-5.6,10.6-6.4c5.5-1.2,13.1,0.4,15.2,11c0,0-1.8-17-12-14.9
	c1.6-2.3,3.7-4.1,6.1-5.6c1.6-1,10.5-3.7,13.3,0.1c-3.4-4.1-9-5.4-13.8-3.3c-2.8,1.2-6.2,5.1-6.2,5.1c0.4-3,1-6.1,1.9-9
	C357,193.2,362.1,190.7,362.1,190.7z"/>
<path class="st5" d="M357.1,193.6c0,0-1.8,0.3-4.3,6.4c-1.6,3.9-0.5,9.5-3,8.4c-9.2-4-14.4-1.6-14.4-1.6s8.7-0.7,10.9,4.9
	c0.6,1.6-9.7,6.5-8.6,13.7c0.4-1.5,1.1-2.9,2-4.2c3-4.8,8.7-8.1,11.3-8.7c5.5-1.1,8.4,0.6,13,4.6c0,0-3.3-7.7-11.6-5.9
	c1.9-2.8,4.2-5.1,7-7c2.5-1.9,5.8-2.7,8.9-2.1c-2.5-1.5-5.7-1.5-8.2,0.1c-2.5,1.7-4.8,3.6-6.9,5.6c0.2-3,0.6-5.9,1.2-8.9
	C355.3,194.4,357.1,193.6,357.1,193.6z"/>
<path class="st6" d="M347.3,210.8c-0.3,1.4,1.3,2.5,3,2.4s3.6-1.7,3.1-2.9c-0.8-2.2-2.5-1.9-3.7-1.8
	C348.1,208.6,347.8,209,347.3,210.8z"/>
<path class="st7" d="M352.8,190c0,0-3,10.3-0.5,19.5c0,0-2.1,3.4-3.9,1.2c0,0-3.9-20.1-1.3-24C347.1,186.8,352.3,187.8,352.8,190z"
	/>
<path class="st8" d="M352.1,190.3c0,0-3.1,10.9-0.5,20c-0.4-0.1-0.8-0.2-1.1-0.4c-1.1-6.6-1.7-14.5-1-21.3
	C350.6,188.9,351.5,189.5,352.1,190.3z"/>
<path class="st9" d="M347.4,188.6c0.7-0.2,1.5-0.2,2.2,0c-0.8,6.8-0.1,14.6,1,21.3c-0.8-0.6-1.4-1.5-1.8-2.4
	C348.8,207.4,345.3,194.8,347.4,188.6z"/>
<path class="st7" d="M347.1,188.3c-0.1,1.4,0.8,2.6,2.1,2.9c1.7,0.3,2.8-0.3,2.9-0.7s0.3-1.4-2.1-2.2
	C348.9,187.9,347.2,187.9,347.1,188.3z"/>
<path class="st10" d="M347.4,188.6c0.1-0.3,1.1-0.3,2.2,0.1c0.6,0.2,1.3,0.5,1.8,0.9c-1,0.5-2.1,0.6-3.2,0.4
	C347.8,189.6,347.5,189.1,347.4,188.6z"/>
<path class="st11" d="M351.5,189.6c0.4,0.3,0.7,0.6,0.7,0.8c-0.7,0.6-1.7,0.9-2.6,0.6c-0.5-0.2-1-0.6-1.4-1
	C349.3,190.1,350.4,190,351.5,189.6z"/>
<path class="st12" d="M325.1,212.4c0,0,0.1,0.1,0.1,0.1c1.1,2.3,0.3,5-1.9,6.2c-5.1,2.9-12.6,9.5-15.5,23.4c0,0-5.8-16.7,9.8-31.2
	c1.9-1.8,4.9-1.7,6.7,0.2C324.6,211.5,324.9,211.9,325.1,212.4z"/>
<path class="st13" d="M386.8,249c-1.3,0.7-2.7,1.1-4.2,1.2c-1.6,0.1-2.8,1.3-2.9,2.9c-1.3,13-8.1,24.8-18.7,32.5
	c11.5-1.2,21.4-8.6,25.9-19.2c2.1-4.5,3.6-9.2,4.5-14.1c0.3-1.7-1-3.4-2.7-3.6C388.1,248.6,387.4,248.7,386.8,249z"/>
<ellipse transform="matrix(0.1858 -0.9826 0.9826 0.1858 60.3709 586.8728)" class="st14" cx="384.3" cy="257" rx="5.4" ry="3.2"/>
<ellipse transform="matrix(0.3075 -0.9515 0.9515 0.3075 7.9707 548.0008)" class="st14" cx="380.5" cy="268.5" rx="2.8" ry="2.3"/>
<path class="st1" d="M312.6,270.6c-12.8,21.4-33.3,30.9-63.4,15.3c-22.1-11.4-33.6-40.1-19.7-63.3c12.8-21.4,41.4-27,62.7-14.2
	S325.3,249.2,312.6,270.6z"/>
<path class="st2" d="M310.3,267.9c-11.8,19.7-32,25.4-58.6,12.2c-20.4-10.1-31.4-38.1-19.7-57.7s40.5-25.2,60-13.5
	S322,248.2,310.3,267.9z"/>
<path class="st3" d="M292.3,205.6c0,0-0.4-1.3-3.4,0.3c-3.3,1.8-7.9,5.6-9.4,3.9c-7.1-7.8-12.3-5.8-12.3-5.8s5.5,3.5,6.8,8.6
	c0.5,2.3-12.5-0.4-12,9.3c0.7-1.4,1.8-2.5,3.1-3.2c4-2.4,8.7-3.1,13.2-2c4.9,1.2,11.2,6,8.7,15.2c0,0,7.6-12.2-2.7-16
	c3-0.1,5.9,0.1,8.9,0.6c1.9,0.4,6.9,3.1,7.9,7.5c0,0-0.5-8.1-7.1-10l-6.6-1.8c0,0,0-1.7,3.5-5.1C292.7,205,292.3,205.6,292.3,205.6z
	"/>
<path class="st4" d="M299.6,205.1c0,0-5.7-3.2-10.6,0.1c-3.1,2.1-8.1,6.3-9.6,4.6c-4.5-4.8-10.6-7.9-17.1-8.8
	c0,0,12.8,5.5,12.3,10.8c-0.2,2.4-15.3-1-14.9,10.7c0,0,2.5-5.3,7.1-6.5c5.9-1.6,8.7-0.5,12.6,0.9c5.7,2.1,12.1,7.3,9.6,16.5
	c0,0,5.5-13.8-4.9-17.6c2.6-0.9,5.3-1.2,8.1-0.9c2,0.1,11.4,2.8,12.4,7.2c-1.7-5.2-6.2-9-11.6-9.9c-3.1-0.6-8,0.5-8,0.5
	c1.7-2.1,3.5-4,5.6-5.8C293.8,204.2,299.6,205.1,299.6,205.1z"/>
<path class="st5" d="M293.7,204.7c0,0-1.8-0.8-6.7,2.5c-3.1,2.1-4.6,6.9-6.5,4.7c-7-8-12.8-8.9-12.8-8.9s8.5,4.1,8.1,9.5
	c-0.1,1.5-11.9-0.3-13.9,5.6c1.1-0.9,2.3-1.6,3.7-2.1c4.8-2,11.6-1.4,14.2-0.5c5.7,2.1,7.6,5,10.2,10.4c0,0,0.2-7.6-8.4-10.6
	c3.1-1.1,6.3-1.6,9.6-1.5c3.4,0,6.6,1.1,9.3,3.1c-1.8-2.5-4.6-4.1-7.7-4.3c-3-0.1-5.9,0.1-8.9,0.5c1.5-2.1,3.1-4.1,4.9-6
	C291.6,204.2,293.7,204.7,293.7,204.7z"/>
<path class="st6" d="M277.2,212.3c-0.9,0.9,0.2,2.6,1.8,3.4s4.1,0.7,4.2-0.5c0.2-2.1-1.5-2.8-2.7-3.3
	C278.9,211.1,278.4,211.2,277.2,212.3z"/>
<path class="st7" d="M291.1,199.6c0,0-7.2,6.2-8.7,14.4c0,0-3.4,1.5-4.2-1.2c0,0,4.9-17.3,9-18.7
	C287.2,194.1,291.7,197.6,291.1,199.6z"/>
<path class="st8" d="M290.6,199.2c0,0-7.6,6.5-8.9,14.8c-0.3-0.3-0.6-0.6-0.8-0.9c1.8-5.5,4.5-11.8,8.1-16.5
	C289.8,197.2,290.4,198.2,290.6,199.2z"/>
<path class="st9" d="M286.9,195.4c0.8,0.3,1.5,0.7,2.1,1.2c-3.6,4.7-6.4,11-8.1,16.5c-0.4-0.9-0.7-1.8-0.7-2.8
	C280.2,210.3,282.4,198.9,286.9,195.4z"/>
<path class="st7" d="M286.5,195.3c-0.7,1.1-0.3,2.6,0.8,3.3c1.5,1.1,2.7,1.3,3,1s0.8-0.9-1-2.8C288.4,195.9,286.8,195,286.5,195.3z"
	/>
<path class="st10" d="M286.7,195.6c0.2-0.2,1.1,0.4,2.1,1.3c0.5,0.5,0.9,1,1.3,1.7c-1.2-0.2-2.3-0.7-3.2-1.4
	C286.7,196.7,286.6,196.1,286.7,195.6z"/>
<path class="st11" d="M290.1,198.6c0.3,0.5,0.4,0.8,0.3,0.9s-1.7-0.1-2.7-0.9c-0.4-0.4-0.7-0.9-0.9-1.4
	C287.8,197.9,288.9,198.4,290.1,198.6z"/>
<path class="st12" d="M251,216.2l0.1,0.1c1,2,0.3,4.4-1.7,5.5c-4.5,2.6-11.1,8.4-13.6,20.5c0,0-5.1-14.6,8.6-27.4
	c1.7-1.6,4.3-1.5,5.9,0.2C250.6,215.5,250.8,215.8,251,216.2z"/>
<path class="st13" d="M305.3,248.4c-1.1,0.6-2.4,1-3.7,1.1c-1.4,0.1-2.5,1.2-2.6,2.6c-1.1,11.5-7.1,21.9-16.5,28.6
	c10.1-1.1,18.8-7.6,22.8-16.9c1.8-3.9,3.2-8.1,4-12.4c0.2-1.5-0.8-3-2.3-3.2C306.5,248,305.9,248.1,305.3,248.4z"/>
<ellipse transform="matrix(0.1858 -0.9826 0.9826 0.1858 -4.2452 505.8248)" class="st14" cx="303.1" cy="255.5" rx="4.7" ry="2.8"/>
<ellipse transform="matrix(0.3075 -0.9515 0.9515 0.3075 -45.1536 469.1349)" class="st14" cx="299.7" cy="265.6" rx="2.5" ry="2.1"/>
<path class="st1" d="M343.5,202c1.1,24.8-10.8,44.1-44.5,47.6c-24.7,2.6-50.1-15-51.3-42.1c-1.1-24.8,19.8-45.2,44.6-46.3
	S342.4,177.2,343.5,202z"/>
<path class="st2" d="M340.1,201.1c1,22.9-12.9,38.8-42.3,42.4c-22.6,2.7-47.1-14.6-48.1-37.5s20-43.3,42.7-44.3
	S339.1,178.2,340.1,201.1z"/>
<path class="st3" d="M290.8,158.9c0,0-1.1-0.9-2.7,2.1c-1.8,3.3-3.5,9-5.7,8.4c-10.3-2.6-13.5,1.9-13.5,1.9s6.6-0.1,10.4,3.4
	c1.7,1.6-10.7,6.5-5,14.3c-0.2-1.5,0.1-3.1,0.9-4.4c2-4.2,5.6-7.4,9.9-8.9c4.8-1.7,12.7-1.1,15.7,7.9c0,0-0.3-14.4-11.1-11.9
	c2.4-1.7,5-3.2,7.7-4.4c1.8-0.7,7.4-1.2,10.7,1.9c0,0-4.9-6.5-11.4-4.4l-6.5,2.1c0,0-0.9-1.5,0.1-6.1
	C290.8,158.2,290.8,158.9,290.8,158.9z"/>
<path class="st4" d="M296.7,154.4c0,0-6.5,0.4-8.8,5.9c-1.5,3.4-3.3,9.7-5.5,9.1c-6.4-1.5-13.1-0.8-19.1,2c0,0,13.7-2.4,16.3,2.3
	c1.1,2.1-13.3,7.6-6.6,17.1c0,0-0.8-5.8,2.4-9.3c4-4.5,7-5.2,11-6.2c5.9-1.4,14.1-0.5,17.1,8.5c0,0-3-14.5-13.8-12
	c1.7-2.1,3.8-3.9,6.2-5.2c1.7-0.9,11.1-3.9,14.4-0.8c-4.3-3.4-10.1-4.1-15.1-1.9c-2.9,1.2-6.4,4.8-6.4,4.8c0.2-2.7,0.7-5.3,1.5-7.9
	C291.3,156.9,296.7,154.4,296.7,154.4z"/>
<path class="st5" d="M291.5,157.3c0,0-2,0.3-4.3,5.8c-1.5,3.4,0,8.3-2.8,7.5c-10.2-2.9-15.6-0.4-15.6-0.4s9.4-1.2,12,3.5
	c0.8,1.4-10.1,6.3-8.5,12.4c0.4-1.4,1-2.7,1.9-3.8c2.9-4.3,8.9-7.6,11.6-8.2c5.9-1.4,9.1,0,14.3,3.1c0,0-4-6.4-12.8-4.3
	c2-2.6,4.4-4.8,7.2-6.5c2.8-1.9,6.1-2.7,9.5-2.4c-2.9-1.1-6.1-0.9-8.8,0.6c-2.5,1.6-5,3.3-7.2,5.3c0.1-2.6,0.3-5.2,0.8-7.7
	C289.5,158.1,291.5,157.3,291.5,157.3z"/>
<path class="st6" d="M281.9,172.8c-0.3,1.3,1.6,2.1,3.4,1.8s3.8-1.7,3.2-2.7c-1-1.8-2.8-1.5-4.1-1.3
	C282.6,170.8,282.3,171.2,281.9,172.8z"/>
<path class="st7" d="M286.6,154.5c0,0-2.6,9.1,0.6,16.8c0,0-2,3.1-4.2,1.3c0,0-5.4-17.1-2.8-20.6
	C280.3,152.1,285.9,152.6,286.6,154.5z"/>
<path class="st8" d="M285.9,154.4c0,0-2.7,9.6,0.7,17.2c-0.4,0-0.8-0.1-1.2-0.3c-1.5-5.6-2.7-12.4-2.3-18.3
	C284.2,153.2,285.2,153.7,285.9,154.4z"/>
<path class="st9" d="M280.7,153.3c0.8-0.2,1.6-0.2,2.4-0.1c-0.5,5.9,0.7,12.6,2.3,18.3c-0.8-0.5-1.6-1.1-2.1-1.9
	C283.3,169.4,278.9,158.7,280.7,153.3z"/>
<path class="st7" d="M280.4,153.4c0,1.3,1.1,2.4,2.5,2.3c1.9,0.1,3-0.4,3.1-0.8s0.2-1.2-2.4-1.8
	C282.3,152.9,280.4,153.1,280.4,153.4z"/>
<path class="st10" d="M280.7,153.6c0.1-0.3,1.2-0.3,2.4-0.1c0.7,0.1,1.4,0.4,2,0.7c-1.1,0.5-2.3,0.7-3.5,0.6
	C281.1,154.3,280.7,153.8,280.7,153.6z"/>
<path class="st11" d="M285.2,154.2c0.5,0.2,0.8,0.5,0.8,0.6c-0.1,0.3-1.5,0.9-2.7,0.7c-0.6-0.1-1.1-0.4-1.5-0.7
	C282.9,154.8,284.1,154.7,285.2,154.2z"/>
<path class="st12" d="M262.2,190.4l0.1,0.1c1.9,1.1,2.6,3.5,1.6,5.5c-2.3,4.6-4.7,13.1-0.1,24.6c0,0-12.3-9.4-7.9-27.6
	c0.6-2.2,2.8-3.6,5.1-3.1C261.4,190,261.8,190.2,262.2,190.4z"/>
<path class="st13" d="M325.2,187.5c-0.6,1.1-1.5,2.1-2.5,2.9c-1.1,0.8-1.4,2.3-0.8,3.5c5.4,10.2,6.1,22.2,1.9,33
	c7.9-6.5,11.6-16.7,9.8-26.7c-0.6-4.3-1.8-8.5-3.5-12.5c-0.6-1.4-2.3-2.1-3.7-1.4C326,186.5,325.5,186.9,325.2,187.5z"/>
<ellipse transform="matrix(0.9232 -0.3843 0.3843 0.9232 -49.6659 140.7092)" class="st14" cx="327.3" cy="194.6" rx="2.8" ry="4.7"/>
<ellipse transform="matrix(0.964 -0.2657 0.2657 0.964 -42.5773 95.0528)" class="st14" cx="330" cy="204.9" rx="2.1" ry="2.5"/>
<path class="st1" d="M234.8,289.2C220,314,196.1,325.1,161.1,307c-25.7-13.3-39.1-46.6-23-73.6c14.9-24.8,48.1-31.4,73-16.5
	S249.6,264.4,234.8,289.2z"/>
<path class="st2" d="M232.1,286c-13.7,22.9-37.3,29.5-68.1,14.2c-23.8-11.8-36.5-44.3-22.8-67.1s47-29.3,69.8-15.7
	S245.8,263.2,232.1,286z"/>
<path class="st3" d="M180,204c0,0,1.3-1.7,4.6,1.9c3.6,3.9,7.9,11.4,11.1,9.6c14.6-8.2,20.9-3.1,20.9-3.1s-10,2.6-14.6,9.4
	c-2.1,3,17.9,4.8,11.6,18.4c0,0,0.1-2.6-2.6-5.9c-4.2-5.3-11.1-8.2-17.5-8.5c-7.7-0.3-19.4,3.9-21.2,18.1c0,0-3.8-20.7,13.1-21.8
	c0,0-7.4-2.6-12.9-3c-2.9-0.2-11.5,1.5-15.5,7.4c0,0,5.4-11.4,15.8-11.3c3.2,0,10.4,0.2,10.4,0.2s1-2.5-2-8.8
	C179.7,203,180,204,180,204z"/>
<path class="st4" d="M169.8,200.2c0,0,9.9-2.2,14.9,4.6c3.2,4.3,7.8,12.4,10.9,10.7c8.9-4.9,19.2-6.8,29.3-5.3
	c0,0-21.3,2.4-23.7,10.3c-1.1,3.5,22.2,5,15,21.6c0,0-0.5-8.6-6.3-12.3c-7.4-4.7-12.1-4.5-18.4-4.1c-9.3,0.6-21.3,5.3-23.1,19.5
	c0,0,0.2-22,17.1-23.2c-3.2-2.4-7-4-10.9-4.8c-2.8-0.6-17.8-0.8-21.8,5.1c5.3-6.6,13.6-10.1,22.1-9.2c4.8,0.4,11,4.1,11,4.1
	c-1.1-3.7-2.7-7.3-4.6-10.6C178.6,201.4,169.8,200.2,169.8,200.2z"/>
<path class="st5" d="M178.4,202.1c0,0,3-0.4,8.1,6.4c3.2,4.3,2.5,11.8,6.4,9.5c14.5-8.5,23.3-7.3,23.3-7.3s-14.4,2.3-17,10.2
	c-0.7,2.3,17,4.6,16.4,14c-1-1.8-2.4-3.4-4-4.6c-5.6-4.9-15.6-7-19.9-6.7c-9.3,0.6-13.7,3.9-20.5,10.6c0,0,4.1-10.9,18-11.7
	c-3.8-2.9-8.1-5.1-12.7-6.2c-2.8-0.6-6.6-2.1-14.9,0.6c3.9-2.8,8.7-3.8,13.4-2.9c4.2,1.1,8.3,2.7,12.3,4.5c-0.8-3.7-2-7.2-3.5-10.7
	C181.6,202.3,178.4,202.1,178.4,202.1z"/>
<path class="st6" d="M197.4,220.1c0.8,1.7-1.8,3.7-4.6,4.1s-6.1-0.8-5.6-2.5c1-3.1,3.8-3.3,5.7-3.6
	C195.7,217.5,196.4,218,197.4,220.1z"/>
<path class="st7" d="M185,195.9c0,0,6.6,11.9,4,24.4c0,0,4,3.6,6.7,0.1c0,0,3.1-26.8-1.8-30.6C193.8,189.7,185.4,192.9,185,195.9z"
	/>
<path class="st8" d="M186.1,196.1c0,0,6.9,12.6,4.1,24.9c0.6-0.2,1.2-0.6,1.7-0.9c0.7-8.7,0.4-18.9-2-27.1
	C188.4,193.6,187.1,194.7,186.1,196.1z"/>
<path class="st9" d="M193.6,192.1c-1.2,0.1-2.5,0.4-3.6,0.9c2.4,8.2,2.6,18.4,2,27.1c1.1-1,2-2.3,2.6-3.7
	C194.6,216.4,198.1,199.1,193.6,192.1z"/>
<path class="st10" d="M193.6,192.1c-0.2-0.4-1.9,0.1-3.7,0.9c-1,0.5-2,1.1-2.8,1.8c1.8,0.2,3.7-0.1,5.4-0.7
	C193.2,193.2,193.6,192.3,193.6,192.1z"/>
<path class="st11" d="M187.1,194.8c-0.6,0.6-1.1,1-1,1.2c0.2,0.4,2.5,0.6,4.3-0.2c0.8-0.4,1.5-1,2-1.7
	C190.7,194.8,188.9,195,187.1,194.8z"/>
<path class="st12" d="M163.2,226l0.1,0.1c1.1,2.3,0.2,5.1-2,6.4c-5.2,3-12.9,9.7-15.8,23.9c0,0-6-17,10-31.9c2-1.8,5-1.7,6.9,0.2
	C162.7,225.1,163,225.5,163.2,226z"/>
<path class="st13" d="M226.4,263.4c-1.3,0.7-2.8,1.1-4.3,1.3c-1.6,0.1-2.9,1.4-3,3c-1.3,13.3-8.3,25.4-19.2,33.3
	c11.8-1.3,21.9-8.8,26.5-19.7c2.1-4.6,3.7-9.4,4.6-14.4c0.3-1.8-0.9-3.5-2.7-3.8C227.7,262.9,227,263,226.4,263.4z"/>
<ellipse transform="matrix(0.1858 -0.9826 0.9826 0.1858 -84.6908 441.0135)" class="st14" cx="223.8" cy="271.6" rx="5.5" ry="3.3"/>
<ellipse transform="matrix(0.3075 -0.9515 0.9515 0.3075 -117.3927 405.451)" class="st14" cx="219.9" cy="283.4" rx="2.9" ry="2.4"/>
<path class="st1" d="M270.3,203.5c0.4,25.8-12.4,45.3-47.4,48c-25.7,2-51.4-16.9-51.9-45c-0.4-25.8,21.7-46.3,47.4-46.7
	S269.9,177.8,270.3,203.5z"/>
<path class="st2" d="M266.8,202.4c0.4,23.7-14.4,39.8-44.9,42.7c-23.5,2.2-48.4-16.4-48.8-40.1s21.9-44.3,45.5-44.6
	S266.4,178.7,266.8,202.4z"/>
<path class="st3" d="M188.8,164.7c0,0,0.2-1.9,4.4-0.8c4.6,1.3,11.3,4.9,12.9,2.1c7.2-13.1,14.3-12.1,14.3-12.1s-6.2,6.7-6.6,14
	c-0.2,3.3,15.8-4.8,17.4,8.5c0,0-1.1-2-4.7-3.3c-5.7-1.8-12-1.2-17.2,1.8c-6,3.3-12.9,12-7.6,23.6c0,0-12.6-13.9-0.3-22.7
	c-3.8,0.9-7.6,2.1-11.1,3.8c-2.3,1.2-8,6.5-8.3,12.9c0,0-1.3-11.1,6.7-15.9c2.4-1.5,8-4.8,8-4.8s-0.4-2.4-5.6-5.7
	C188.1,164.1,188.8,164.7,188.8,164.7z"/>
<path class="st4" d="M179.3,166.6c0,0,6.4-6.3,13.5-3.6c4.4,1.7,11.7,5.8,13.3,3c4.5-7.9,11.4-14.1,19.7-17.8c0,0-15,11.8-13.2,18.9
	c0.8,3.2,19.2-6.6,21.5,9.4c0,0-4.4-6.3-10.5-6.4c-7.8-0.1-11.2,2.3-15.9,5.6c-6.8,4.8-13.6,14-8.4,25.6c0,0-10.2-16.8,2.1-25.6
	c-3.6-0.3-7.1,0.2-10.5,1.5c-2.4,0.9-13.8,7.7-14.1,14.1c0.9-7.5,5.6-14,12.4-17.4c3.8-1.9,10.3-2,10.3-2c-2.6-2.3-5.4-4.3-8.4-6
	C186.6,163.4,179.3,166.6,179.3,166.6z"/>
<path class="st5" d="M186.7,164c0,0,2.1-1.7,9.1,1.1c4.4,1.7,7.4,7.8,9.3,4.2c7-13.2,14.2-16.4,14.2-16.4s-9.9,8.5-8.1,15.7
	c0.5,2,15-4.5,19,2.9c-1.6-0.9-3.3-1.4-5.2-1.6c-6.6-1.1-15.1,2-18.2,4.2c-6.8,4.8-8.5,9.4-10.5,17.6c0,0-2-10.2,8.2-17.3
	c-4.2-0.5-8.5,0-12.5,1.3c-2.4,0.9-6,1.5-11,7.4c1.6-3.9,4.8-7,8.8-8.5c3.7-1.1,7.5-1.9,11.4-2.3c-2.3-2.4-4.9-4.5-7.6-6.4
	C189.3,162.7,186.7,164,186.7,164z"/>
<path class="st6" d="M209.5,168.8c1.4,0.9,0.4,3.6-1.6,5.2s-5,2.3-5.4,0.7c-0.7-2.8,1.3-4.3,2.6-5.4
	C207.1,167.6,207.8,167.6,209.5,168.8z"/>
<path class="st7" d="M188.8,156.3c0,0,10.6,5.9,14.4,16.6c0,0,4.7,0.8,5.1-3.1c0,0-10.2-21.8-15.8-22.3
	C192.6,147.4,187.7,153.8,188.8,156.3z"/>
<path class="st8" d="M189.8,155.8c0,0,11.1,6.3,14.8,17c0.4-0.5,0.6-1,0.9-1.5c-3.6-6.9-8.5-14.5-14.2-19.6
	C190.3,152.9,189.8,154.3,189.8,155.8z"/>
<path class="st9" d="M193.6,149.3c-0.9,0.6-1.7,1.4-2.4,2.4c5.7,5.1,10.6,12.7,14.2,19.6c0.4-1.3,0.4-2.7,0.2-4
	C205.6,167.3,200.2,152.6,193.6,149.3z"/>
<path class="st10" d="M193.5,149.4c-0.3-0.2-1.4,0.9-2.3,2.4c-0.5,0.8-1,1.7-1.3,2.7c1.5-0.7,2.8-1.8,3.7-3.1
	C193.8,150.7,193.8,150,193.5,149.4z"/>
<path class="st11" d="M189.9,154.5c-0.2,0.7-0.3,1.3-0.2,1.4c0.3,0.2,2.2-0.7,3.2-2.2c0.4-0.7,0.7-1.5,0.8-2.3
	C192.7,152.7,191.4,153.8,189.9,154.5z"/>
<path class="st12" d="M186.4,189.2l0.1,0.1c1.9,1.2,2.6,3.7,1.5,5.7c-2.6,4.8-5.2,13.4-0.8,25.5c0,0-12.5-10.1-7.4-28.8
	c0.6-2.3,3-3.7,5.3-3C185.7,188.8,186.1,189,186.4,189.2z"/>
<path class="st13" d="M251.8,188c-0.7,1.2-1.6,2.2-2.6,3c-1.1,0.8-1.5,2.4-0.9,3.6c5.3,10.7,5.7,23.2,1.1,34.2
	c8.3-6.5,12.5-16.9,10.8-27.3c-0.5-4.5-1.6-8.9-3.3-13.1c-0.6-1.5-2.3-2.2-3.8-1.6C252.6,187.1,252.1,187.5,251.8,188z"/>
<ellipse transform="matrix(0.9709 -0.2396 0.2396 0.9709 -41.9145 67.3779)" class="st14" cx="256.2" cy="206.1" rx="2.1" ry="2.6"/>
<path class="st1" d="M442,308.6c-12.5,20.9-32.5,30.2-61.9,15c-21.5-11.2-32.8-39.1-19.3-61.8c12.4-20.8,40.4-26.3,61.2-13.9
	S454.5,287.7,442,308.6z"/>
<path class="st2" d="M439.7,305.9c-11.5,19.2-31.3,24.8-57.2,11.9c-20-9.9-30.6-37.2-19.2-56.4s39.5-24.6,58.6-13.2
	S451.2,286.7,439.7,305.9z"/>
<path class="st3" d="M409.3,243.1c0,0,1.5-1,3.2,2.8c1.8,4.1,3.1,11.2,6.1,10.7c13.9-2.4,17.4,3.3,17.4,3.3s-8.6-0.6-14.1,3.4
	c-2.5,1.8,12.9,8.7,4.1,17.8c0,0,0.8-2-0.4-5.4c-2-5.3-6.2-9.5-11.5-11.6c-6-2.4-16.5-2.3-21.8,8.5c0,0,2.7-17.4,16.5-13.6
	c-2.9-2.3-6.1-4.3-9.4-5.9c-2.2-1-9.5-2-14.4,1.6c0,0,7.4-7.6,15.6-4.5l8.2,3c0,0,1.5-1.7,0.9-7.5
	C409.4,242.3,409.3,243.1,409.3,243.1z"/>
<path class="st4" d="M402.3,237.3c0,0,8.4,1,10.6,7.8c1.4,4.3,2.7,12,5.7,11.5c8.4-1.4,17.1,0,24.7,3.9c0,0-17.6-4-21.7,1.6
	c-1.8,2.5,16.2,10.2,5.9,21.3c0,0,2-6.9-1.6-11.5c-4.6-5.8-8.3-6.9-13.5-8.3c-7.5-2.1-18.4-1.7-23.7,9.1c0,0,6.3-17.4,20-13.6
	c-1.9-2.8-4.4-5.1-7.3-6.8c-2.1-1.3-13.9-5.6-18.7-2c6.1-3.8,13.6-4.2,20.1-1.2c3.7,1.7,7.6,6.3,7.6,6.3c0.1-3.2-0.1-6.5-0.7-9.7
	C408.9,240.7,402.3,237.3,402.3,237.3z"/>
<path class="st5" d="M408.6,241.2c0,0,2.5,0.6,4.6,7.3c1.4,4.3-1.3,10,2.5,9.3c13.8-2.7,20.5,0.7,20.5,0.7s-12.1-2.2-16.3,3.3
	c-1.2,1.6,12.2,8.4,9.1,15.7c-0.3-1.7-0.9-3.3-1.9-4.8c-3.1-5.5-10.4-9.9-13.9-10.9c-7.5-2.1-11.9-0.7-19.2,2.7
	c0,0,6.3-7.5,17.5-4.3c-2.2-3.4-5-6.3-8.4-8.5c-2.1-1.3-4.6-3.5-12-3.7c3.8-1.1,8-0.6,11.4,1.4c3,2.1,5.9,4.4,8.5,7
	c0.4-3.1,0.4-6.3,0.2-9.4C411.1,242.3,408.6,241.2,408.6,241.2z"/>
<path class="st6" d="M418.6,260.7c0.2,1.5-2.4,2.4-4.8,2s-4.7-2.3-3.7-3.6c1.6-2.2,3.9-1.6,5.5-1.3
	C418.1,258.2,418.4,258.8,418.6,260.7z"/>
<path class="st7" d="M415.5,238.1c0,0,1.9,11.3-3.6,20.4c0,0,2.2,3.9,5.3,1.9c0,0,9.9-20.4,7-24.8
	C424.3,235.7,416.7,235.8,415.5,238.1z"/>
<path class="st8" d="M416.4,238.6c0,0,2,11.9-3.7,20.9c0.6,0,1.1-0.1,1.6-0.3c2.9-6.7,5.6-14.9,6-22
	C418.9,237.2,417.6,237.7,416.4,238.6z"/>
<path class="st9" d="M423.4,237.5c-1-0.3-2.1-0.4-3.1-0.3c-0.4,7.2-3,15.3-6,22c1.2-0.5,2.2-1.3,3.1-2.2
	C417.4,257,425,244.3,423.4,237.5z"/>
<path class="st7" d="M423.9,237.3c0,0.4-0.8,2.6-3.6,2.7c-2.5,0-3.9-0.7-3.9-1.2s-0.1-1.5,3.4-2
	C421.5,236.5,423.9,236.8,423.9,237.3z"/>
<path class="st10" d="M423.4,237.5c0-0.4-1.5-0.5-3.2-0.3c-0.9,0.1-1.9,0.3-2.7,0.7c1.4,0.7,2.9,1,4.5,0.9
	C422.8,238.3,423.4,237.7,423.4,237.5z"/>
<path class="st11" d="M417.5,237.9c-0.7,0.3-1.1,0.5-1.1,0.7c0,0.4,1.8,1.2,3.5,1c0.7-0.1,1.5-0.4,2.1-0.8
	C420.4,238.8,418.9,238.5,417.5,237.9z"/>
<path class="st15" d="M381.9,255.5l0.1,0.1c1,1.9,0.2,4.3-1.6,5.4c-4.4,2.5-10.8,8.2-13.3,20.1c0,0-5-14.3,8.4-26.8
	c1.7-1.5,4.2-1.4,5.8,0.2C381.5,254.8,381.7,255.1,381.9,255.5z"/>
<path class="st13" d="M435.7,271.4c-0.8,1-1.7,1.8-2.8,2.4c-1.2,0.6-1.7,2-1.3,3.3c3.6,10.7,2.4,22.3-3.2,32.1
	c8.6-5,13.7-14.3,13.5-24.2c0-4.2-0.4-8.5-1.4-12.6c-0.4-1.5-1.9-2.3-3.3-1.9C436.6,270.6,436.1,270.9,435.7,271.4z"/>
<ellipse transform="matrix(0.9722 -0.234 0.234 0.9722 -53.0604 109.8659)" class="st14" cx="436.6" cy="278.6" rx="2.8" ry="4.6"/>
<path class="st1" d="M172.3,323c-14.8,24.8-38.7,35.9-73.7,17.8c-25.7-13.3-39.1-46.6-23-73.6c14.8-24.8,48.1-31.4,72.9-16.5
	C173.4,265.5,187.1,298.2,172.3,323z"/>
<path class="st2" d="M169.6,319.9c-13.7,22.9-37.3,29.5-68.1,14.2c-23.8-11.8-36.5-44.3-22.8-67.1s47-29.3,69.8-15.7
	C171.3,264.8,183.3,297,169.6,319.9z"/>
<path class="st3" d="M133.4,245.1c0,0,1.8-1.2,3.8,3.3c2.1,4.9,3.7,13.4,7.3,12.7c16.5-2.9,20.7,4,20.7,4s-10.3-0.7-16.9,4.1
	c-3,2.2,15.4,10.4,4.9,21.2c0,0,0.9-2.4-0.5-6.4c-2.3-6.4-7.8-11.4-13.7-13.8c-7.1-2.9-19.6-2.7-26,10.1c0,0,3.3-20.8,19.6-16.2
	c0,0-6.1-4.9-11.2-7c-2.7-1.2-11.4-2.4-17.1,1.9c0,0,8.8-9,18.6-5.4c3,1.1,9.8,3.6,9.8,3.6s1.8-2,1-8.9
	C133.5,244.1,133.4,245.1,133.4,245.1z"/>
<path class="st4" d="M125,238.1c0,0,10.1,1.2,12.6,9.3c1.6,5.1,3.2,14.3,6.8,13.7c10-1.7,20.4-0.1,29.4,4.6c0,0-20.9-4.8-25.8,1.9
	c-2.2,3,19.3,12.1,7,25.4c0,0,2.4-8.3-1.9-13.7c-5.4-6.9-9.9-8.2-16-9.9c-9-2.5-21.9-2-28.3,10.8c0,0,7.5-20.8,23.8-16.2
	c-2.3-3.3-5.3-6-8.7-8.1c-2.5-1.5-16.5-6.6-22.2-2.4c7.2-4.5,16.2-5,23.9-1.4c4.4,2,9,7.5,9,7.5c0.1-3.9-0.1-7.7-0.8-11.5
	C132.9,242.2,125,238.1,125,238.1z"/>
<path class="st5" d="M132.6,242.8c0,0,3,0.7,5.5,8.7c1.6,5.1-1.6,11.9,2.9,11.1c16.5-3.2,24.4,0.8,24.4,0.8s-14.4-2.6-19.4,4
	c-1.4,1.9,14.6,10,10.9,18.7c-0.4-2-1.1-3.9-2.2-5.7c-3.7-6.5-12.4-11.8-16.6-12.9c-9-2.5-14.2-0.8-22.8,3.3c0,0,7.5-9,20.9-5.1
	c-2.6-4-6-7.5-10-10.1c-2.5-1.5-5.5-4.1-14.3-4.4c4.6-1.4,9.5-0.7,13.6,1.7c4.5,2.8,10.1,8.3,10.1,8.3c0.4-3.7,0.5-7.5,0.2-11.2
	C135.5,244.1,132.6,242.8,132.6,242.8z"/>
<path class="st6" d="M144.5,266c0.2,1.8-2.9,2.9-5.7,2.3s-5.6-2.8-4.4-4.2c2-2.6,4.7-1.9,6.6-1.5C143.8,263.1,144.3,263.7,144.5,266
	z"/>
<path class="st7" d="M140.8,239.1c0,0,2.3,13.4-4.3,24.3c0,0,2.6,4.7,6.3,2.3c0,0,11.8-24.3,8.4-29.5
	C151.2,236.2,142.2,236.4,140.8,239.1z"/>
<path class="st8" d="M141.8,239.6c0,0,2.4,14.1-4.4,24.9c0.7,0,1.3-0.1,1.9-0.3c3.5-8,6.6-17.7,7.1-26.2
	C144.8,238.1,143.2,238.6,141.8,239.6z"/>
<path class="st9" d="M150.2,238.4c-1.2-0.4-2.5-0.5-3.7-0.4c-0.4,8.6-3.6,18.2-7.1,26.2c1.4-0.6,2.6-1.5,3.7-2.6
	C143,261.6,152.1,246.5,150.2,238.4z"/>
<path class="st7" d="M150.8,238.1c0.1,0.5-0.9,3.1-4.3,3.2c-3,0-4.6-0.9-4.6-1.4s-0.1-1.8,4.1-2.4
	C147.9,237.2,150.7,237.6,150.8,238.1z"/>
<path class="st10" d="M150.1,238.3c0-0.4-1.8-0.5-3.8-0.3c-1.1,0.1-2.2,0.4-3.3,0.8c1.7,0.8,3.5,1.2,5.3,1.1
	C149.4,239.3,150.2,238.6,150.1,238.3z"/>
<path class="st11" d="M143.1,238.8c-0.8,0.3-1.4,0.6-1.3,0.8c0,0.4,2.1,1.4,4.1,1.2c0.9-0.1,1.7-0.4,2.5-0.9
	C146.6,240,144.8,239.6,143.1,238.8z"/>
<path class="st16" d="M100.8,259.8l0.1,0.1c1.1,2.3,0.3,5.1-1.9,6.4c-5.2,3-12.9,9.7-15.8,23.9c0,0-5.9-17,10-31.9
	c2-1.8,5-1.7,6.9,0.3C100.3,259,100.5,259.4,100.8,259.8z"/>
<path class="st1" d="M369.9,326.2c-16.3,27.4-42.6,39.6-81.2,19.6c-28.3-14.7-43.1-51.4-25.3-81.1c16.3-27.4,53-34.6,80.3-18.2
	S386.3,298.8,369.9,326.2z"/>
<path class="st2" d="M367,322.7c-15.1,25.2-41.1,32.5-75.1,15.6c-26.2-13-40.2-48.8-25.2-74c15.1-25.2,51.8-32.3,76.9-17.3
	S382,297.5,367,322.7z"/>
<path class="st3" d="M327,240.2c0,0,2-1.3,4.2,3.6c2.4,5.4,4.1,14.7,8,14c18.2-3.2,22.8,4.4,22.8,4.4s-11.3-0.8-18.6,4.5
	c-3.3,2.4,16.9,11.5,5.4,23.4c0,0,1-2.6-0.5-7.1c-2.5-7-8.6-12.6-15.1-15.2c-7.8-3.1-21.6-3-28.6,11.1c0,0,3.6-22.9,21.6-17.9
	c0,0-6.7-5.3-12.3-7.8c-2.9-1.3-12.5-2.6-18.8,2c0,0,9.7-9.9,20.5-5.9c3.3,1.2,10.8,4,10.8,4s1.9-2.2,1.1-9.8
	C327.1,239.2,327,240.2,327,240.2z"/>
<path class="st4" d="M317.8,232.6c0,0,11.1,1.3,13.9,10.2c1.8,5.6,3.6,15.8,7.5,15.1c11.1-1.9,22.4-0.1,32.4,5.1c0,0-23-5.3-28.4,2
	c-2.4,3.3,21.3,13.4,7.7,27.9c0,0,2.6-9.1-2-15.1c-6-7.6-10.9-9-17.7-10.9c-9.9-2.8-24.1-2.2-31.2,11.9c0,0,8.2-22.9,26.3-17.9
	c-2.5-3.6-5.8-6.7-9.6-8.9c-2.7-1.7-18.2-7.3-24.5-2.6c8-4.9,17.9-5.5,26.3-1.6c4.8,2.2,9.9,8.3,9.9,8.3c0.2-4.3-0.1-8.5-0.9-12.7
	C326.5,237.1,317.8,232.6,317.8,232.6z"/>
<path class="st5" d="M326.1,237.7c0,0,3.3,0.7,6.1,9.6c1.8,5.6-1.7,13.2,3.2,12.2c18.1-3.6,26.9,0.9,26.9,0.9s-15.9-2.9-21.4,4.4
	c-1.6,2.1,16,11,12,20.5c0,0-0.2-2.3-2.5-6.2c-4.1-7.2-13.7-13-18.3-14.3c-9.9-2.8-15.7-0.9-25.2,3.6c0,0,8.3-9.9,23-5.6
	c-2.9-4.4-6.6-8.2-11-11.1c-2.7-1.7-6.1-4.5-15.8-4.8c5-1.5,10.5-0.8,15,1.8c4.9,3,11.1,9.2,11.1,9.2c0.5-4.1,0.6-8.3,0.3-12.4
	C329.4,239.1,326.1,237.7,326.1,237.7z"/>
<path class="st6" d="M339.3,263.3c0.2,2-3.2,3.2-6.3,2.6s-6.1-3.1-4.9-4.7c2.2-2.8,5.1-2.1,7.3-1.7
	C338.5,260.1,339,260.8,339.3,263.3z"/>
<path class="st7" d="M335.2,233.7c0,0,2.5,14.8-4.7,26.8c0,0,2.8,5.1,6.9,2.5c0,0,13-26.8,9.2-32.5
	C346.6,230.5,336.7,230.7,335.2,233.7z"/>
<path class="st8" d="M336.3,234.3c0,0,2.6,15.6-4.9,27.4c0.7,0,1.4-0.1,2.1-0.4c3.9-8.8,7.3-19.5,7.8-28.9
	C339.6,232.5,337.8,233.2,336.3,234.3z"/>
<path class="st9" d="M345.5,232.9c-1.3-0.4-2.7-0.5-4.1-0.4c-0.5,9.4-4,20.1-7.8,28.9c1.5-0.7,2.9-1.7,4-2.9
	C337.6,258.5,347.6,241.8,345.5,232.9z"/>
<path class="st7" d="M346.2,232.6c0,0.6-1,3.5-4.7,3.5c-3.3,0-5-1-5.1-1.5s-0.1-1.9,4.5-2.6C343,231.6,346.1,232,346.2,232.6z"/>
<path class="st10" d="M345.5,232.9c0-0.5-2-0.6-4.1-0.4c-1.2,0.1-2.4,0.4-3.6,0.9c1.8,0.9,3.8,1.3,5.9,1.2
	C344.7,233.9,345.5,233.1,345.5,232.9z"/>
<path class="st11" d="M337.7,233.4c-0.9,0.3-1.5,0.7-1.5,0.9c0,0.5,2.4,1.6,4.6,1.3c1-0.1,1.9-0.5,2.8-1
	C341.6,234.7,339.6,234.2,337.7,233.4z"/>
<path class="st15" d="M291,256.5c0,0.1,0,0.1,0.1,0.2c1.2,2.5,0.3,5.6-2.1,7c-5.8,3.3-14.2,10.7-17.4,26.3c0,0-6.6-18.8,11-35.1
	c2.2-2,5.6-1.9,7.6,0.3C290.5,255.6,290.8,256,291,256.5z"/>
<path class="st13" d="M360.5,278.1c-0.9,1.4-2.1,2.5-3.5,3.5c-1.5,0.9-2,2.8-1.4,4.4c5.7,13.6,5.3,29-1.2,42.3
	c10.8-7.4,16.7-20,15.4-33c-0.7-7.9-1.9-13-3.1-16.4c-0.7-1.9-2.7-2.8-4.6-2.2C361.6,277,360.9,277.5,360.5,278.1z"/>
<ellipse transform="matrix(0.9834 -0.1815 0.1815 0.9834 -45.1187 70.8909)" class="st14" cx="364.7" cy="281.9" rx="2.6" ry="3.2"/>
<path class="st1" d="M275.7,335.2c-17.4,29.1-45.4,42.2-86.5,20.9c-30.1-15.6-45.9-54.7-27-86.5c17.4-29.2,56.4-36.8,85.6-19.4
	S293.1,306,275.7,335.2z"/>
<path class="st2" d="M272.5,331.5c-16,26.9-43.8,34.6-80,16.6c-27.9-13.9-42.9-52-26.8-78.8s55.2-34.4,82-18.5
	S288.6,304.6,272.5,331.5z"/>
<path class="st3" d="M230,243.6c0,0,2.1-1.4,4.4,3.9c2.5,5.8,4.4,15.7,8.5,15c19.4-3.4,24.3,4.6,24.3,4.6s-12-0.9-19.8,4.8
	c-3.5,2.5,18,12.2,5.8,24.9c0,0,1.1-2.8-0.6-7.5c-2.6-7.5-9.1-13.4-16.1-16.2c-8.4-3.4-23-3.2-30.5,11.8c0,0,3.8-24.4,23-19.1
	c0,0-7.2-5.7-13.1-8.3c-3.1-1.4-13.3-2.8-20.1,2.2c0,0,10.4-10.6,21.9-6.4c3.5,1.3,11.5,4.3,11.5,4.3s2.1-2.4,1.2-10.5
	C230.1,242.4,230,243.6,230,243.6z"/>
<path class="st4" d="M220.2,235.4c0,0,11.8,1.4,14.8,10.9c1.9,6,3.8,16.8,8,16.1c11.8-2,23.9-0.1,34.5,5.5c0,0-24.6-5.6-30.3,2.2
	c-2.6,3.5,22.7,14.2,8.2,29.8c0,0,2.8-9.7-2.2-16.1c-6.4-8.1-11.6-9.6-18.8-11.6c-10.5-3-25.7-2.4-33.2,12.7c0,0,8.8-24.4,28-19
	c-2.7-3.9-6.2-7.1-10.2-9.5c-2.9-1.8-19.4-7.8-26.1-2.8c8.5-5.3,19-5.9,28.1-1.6c5.1,2.3,10.6,8.9,10.6,8.9
	c0.2-4.5-0.1-9.1-0.9-13.6C229.4,240.3,220.2,235.4,220.2,235.4z"/>
<path class="st5" d="M229,240.9c0,0,3.5,0.8,6.5,10.3c1.9,6-1.8,14,3.4,13c19.3-3.8,28.6,1,28.6,1s-16.9-3-22.8,4.7
	c-1.7,2.2,17.1,11.7,12.8,21.9c0,0-0.2-2.4-2.6-6.6c-4.4-7.6-14.6-13.8-19.4-15.2c-10.5-2.9-16.7-1-26.8,3.8c0,0,8.8-10.5,24.5-6
	c0,0-4.6-7.5-11.7-11.9c-2.9-1.8-6.5-4.8-16.8-5.1c5.4-1.6,11.2-0.9,16,2c5.2,3.2,11.8,9.8,11.8,9.8c0.5-4.4,0.6-8.8,0.3-13.2
	C232.5,242.4,229,240.9,229,240.9z"/>
<path class="st6" d="M243,268.2c0.2,2.2-3.4,3.4-6.7,2.7s-6.5-3.3-5.2-5c2.3-3,5.5-2.2,7.8-1.8C242.2,264.8,242.7,265.5,243,268.2z"
	/>
<path class="st7" d="M238.7,236.6c0,0,2.7,15.8-5,28.5c0,0,3,5.5,7.4,2.7c0,0,13.8-28.5,9.9-34.7
	C250.9,233.2,240.3,233.4,238.7,236.6z"/>
<path class="st8" d="M239.9,237.3c0,0,2.8,16.6-5.2,29.2c0.8,0,1.5-0.1,2.3-0.4c4.1-9.4,7.8-20.8,8.3-30.8
	C243.4,235.4,241.5,236.1,239.9,237.3z"/>
<path class="st9" d="M249.7,235.8c-1.4-0.4-2.9-0.6-4.4-0.5c-0.5,10-4.2,21.4-8.3,30.8c1.6-0.7,3.1-1.8,4.3-3.1
	C241.3,263,251.9,245.3,249.7,235.8z"/>
<path class="st7" d="M250.4,235.4c0.1,0.6-1.1,3.7-5.1,3.7c-3.5,0-5.4-1-5.4-1.6s-0.1-2.1,4.8-2.8
	C247,234.4,250.3,234.8,250.4,235.4z"/>
<path class="st10" d="M249.6,235.7c-0.1-0.5-2.1-0.6-4.4-0.4c-1.3,0.2-2.6,0.5-3.8,0.9c1.9,0.9,4.1,1.4,6.2,1.3
	C248.8,236.9,249.7,236,249.6,235.7z"/>
<path class="st11" d="M241.4,236.3c-0.9,0.4-1.6,0.7-1.6,1c0,0.5,2.5,1.7,4.9,1.4c1-0.2,2-0.5,2.9-1.1
	C245.5,237.7,243.3,237.2,241.4,236.3z"/>
<path class="st15" d="M191.6,260.9c0,0.1,0,0.1,0.1,0.2c1.3,2.7,0.3,6-2.3,7.5c-6.1,3.5-15.1,11.4-18.6,28.1c0,0-7-20,11.7-37.4
	c2.3-2.1,5.9-2,8.1,0.3C191.1,259.9,191.4,260.4,191.6,260.9z"/>
<path class="st13" d="M265.8,304.9c-1.6,0.8-3.3,1.3-5,1.5c-1.9,0.1-3.3,1.6-3.5,3.5c-1.5,15.7-9.7,29.9-22.5,39
	c13.8-1.5,25.7-10.3,31.1-23.1c3.3-7.7,4.8-13.1,5.4-16.9c0.3-2.1-1.1-4-3.2-4.4C267.3,304.3,266.5,304.5,265.8,304.9z"/>
</svg>
