<svg id="Layer_1" data-name="Layer 1" xmlns="http://www.w3.org/2000/svg" viewBox="0 0 1600 210"><defs><style>.cls-1{fill:#032616;}</style></defs><path class="cls-1" d="M1600,207.32V104.87s-54.58-.29-61.47-5.67-1.12-42.79-1.12-42.79c-20.88,19.56-12.3,43.14-12.3,43.14L1510,100c-4.3-18.82,31-80,2.09-62.3s-9.53,62.5-9.53,62.5S1460.6,47.1,1466.8,69a54.3,54.3,0,0,0,24.47,31.45L1412,102.51s33.73-62.73,12.34-62.57-20.88,62.8-20.88,62.8c-9.79-102.91-51.07-97-6.7.17l-9,.24c-7.54-35-15.41-59-21.71-73.15,4.14-3.58,6.71-5.64,6.71-5.64a77,77,0,0,0-9.69-.52c-6.75-12.77-10.89-12-9.37.7-50.82,7.21-70.54,67.67-70.54,67.67,17.38-82-36.5-89.53-36.5-89.53,26,34.86,18.25,92.36,18.25,92.36C1258.78.8,1209.14,2.68,1209.14,2.68c13.63,5.66,37.51,95.18,37.51,95.18-47.44-87.64-107.78-71.62-107.78-71.62,66.07,24.5,67.12,71.62,67.12,71.62-61.88-37.69-105.93,9.43-105.93,9.43,29.68-5.16,50.41-3.34,64.91,1.69l-70.72,1.85s28.68-58.75,3.78-63.43-16,59-16,59l-19.52,3.08c-7.16-108.52-61.63-97.25-7.93-1.72l-63,1.65c25.5-91-26.67-61.89-6.84-1.9l-13.5.36s-8.06-49.71-32.93-53.56,21.73,55.92,21.73,55.92L550.93,95.78S534.8,38.59,520.43,49,537,96.14,537,96.14l-56.77,1.49c29.43-118.06-21.54-64.6-11.3-1.54l-9.6.25S430.2,43.25,415.73,49.73s18.94,45.16,18.94,45.16q-23.4.57-47.69.23h-.21q-17.31-.25-35-1c12.75-20.07,38-40.41,38-40.41-34.4-4-51.08,28.36-55.79,39.58l-.71,0c8.68-48.81-24-53.4-24-53.4,12.38,16.62,12.77,41.27,12.18,52.72l-1.06-.07c-5.65-53.76-35.08-52.65-35.08-52.65,6.52,2.71,16.71,35.44,21.42,51.72l-2.94-.21C274.56,45.91,240.46,55,240.46,55c25.65,9.51,36,24.35,40.1,34.54A1380.57,1380.57,0,0,1,125.67,66.62C130,57,138.8,15.26,133.8,6.53c-1-.75-2.8.17-6.62,7.67-7.61,8.34-15.15,36.77-13,54.65L100,69.22C89.43-13.2,44.19,1.05,89.9,76.54L0,82.58V207.32ZM1358,103.93c7.67-4.1,14.55-7.38,19.35-9.58q2,4.38,4.13,9Zm-1.43-65.42c3.24,12.47,9.19,29.64,18.65,51.07-23.29-2.71-44.22,6.88-57.67,15.41l-13.17.34C1312.34,82,1338.94,54.71,1356.52,38.51Z"/></svg>