<?xml version="1.0" encoding="utf-8"?>
<!-- Generator: Adobe Illustrator 25.2.3, SVG Export Plug-In . SVG Version: 6.00 Build 0)  -->
<svg version="1.1" id="Layer_1" xmlns="http://www.w3.org/2000/svg" xmlns:xlink="http://www.w3.org/1999/xlink" x="0px" y="0px"
	 viewBox="0 0 1600 900" style="enable-background:new 0 0 1600 900;" xml:space="preserve">
<style type="text/css">
	.st0{clip-path:url(#SVGID_2_);}
	.st1{fill:url(#SVGID_3_);}
	.st2{fill:url(#SVGID_4_);}
	.st3{fill:url(#SVGID_5_);}
	.st4{fill:url(#SVGID_6_);}
	.st5{fill:url(#SVGID_7_);}
	.st6{fill:url(#SVGID_8_);}
	.st7{fill:url(#SVGID_9_);}
	.st8{fill:url(#SVGID_10_);}
	.st9{fill:url(#SVGID_11_);}
	.st10{fill:url(#SVGID_12_);}
	.st11{fill:url(#SVGID_13_);}
	.st12{fill:url(#SVGID_14_);}
	.st13{fill:none;stroke:url(#SVGID_15_);stroke-width:3;stroke-miterlimit:10;}
	.st14{fill:#2A96D8;stroke:#0B773C;stroke-width:0.13;stroke-miterlimit:10;}
	.st15{fill:#4454A3;stroke:#0B773C;stroke-width:0.1295;stroke-miterlimit:9.9624;}
	.st16{fill:#009245;}
	.st17{fill:none;stroke:#268E53;stroke-width:0.26;stroke-miterlimit:10;}
	.st18{fill:url(#SVGID_16_);}
	.st19{fill:url(#SVGID_17_);}
	.st20{fill:url(#SVGID_18_);}
	.st21{fill:url(#SVGID_19_);}
	.st22{fill:#0C6032;}
	.st23{fill:url(#SVGID_20_);}
	.st24{fill:url(#SVGID_21_);}
	.st25{fill:url(#SVGID_22_);}
	.st26{fill:url(#SVGID_23_);}
	.st27{fill:#63B52D;}
	.st28{fill:url(#SVGID_24_);}
	.st29{fill:#3A7A20;}
	.st30{fill:#3DBF47;}
	.st31{fill:url(#SVGID_25_);}
	.st32{fill:url(#SVGID_26_);}
	.st33{fill:url(#SVGID_27_);}
	.st34{fill:url(#SVGID_28_);}
	.st35{fill:url(#SVGID_29_);}
	.st36{fill:#F24059;}
	.st37{fill:url(#SVGID_30_);}
	.st38{fill:url(#SVGID_31_);}
	.st39{fill:url(#SVGID_32_);}
	.st40{fill:url(#SVGID_33_);}
	.st41{fill:url(#SVGID_34_);}
	.st42{fill:#FFFFFF;}
	.st43{fill:#FAF045;}
	.st44{fill:url(#SVGID_35_);}
	.st45{fill:url(#SVGID_36_);}
	.st46{fill:url(#SVGID_37_);}
	.st47{fill:#EA4BC8;}
	.st48{fill:#FCE5DE;}
	.st49{fill:url(#SVGID_38_);}
	.st50{fill-rule:evenodd;clip-rule:evenodd;fill:#003A17;}
	.st51{fill:#094C26;}
	.st52{fill:#FF1187;}
	.st53{fill:#031C0F;}
	.st54{fill:#FF4216;}
</style>
<g>
	<defs>
		<rect id="SVGID_1_" width="1600" height="900"/>
	</defs>
	<clipPath id="SVGID_2_">
		<use xlink:href="#SVGID_1_"  style="overflow:visible;"/>
	</clipPath>
	<g class="st0">
		
			<linearGradient id="SVGID_3_" gradientUnits="userSpaceOnUse" x1="222.3384" y1="-790.0986" x2="1444.1786" y2="606.2114" gradientTransform="matrix(0.997 -7.776310e-02 -7.776310e-02 -0.997 -52.8332 817.8347)">
			<stop  offset="0.14" style="stop-color:#21544D"/>
			<stop  offset="0.79" style="stop-color:#1B5243"/>
		</linearGradient>
		<path class="st1" d="M-292.6,665.4c0,0,213.1-38.3,243.4,59.2c100.4-27.8,198.4,64.6,127.2,107c53.8-22.2,49.4,21,49.4,21
			c44.6-31.8,97.6,5.1,97.7,24.8c36.9-47.4,137.4-9,142.7,23.1c-0.5-58.2,98.3-59,131.1-38.5c-3.5-44.2,72.3-27.9,86-8.4
			c19.8-58.9,175-48.8,199.5,5c22.6-23.2,62.7-11.7,68.5-7.9c14-45.6,84.8-24.6,91.5-7.1c67.9-49.8,135.6-11.2,135.6-11.2
			c26.3-48.5,100-31.2,120.8-21.7c23.7-36.9,59-38.8,96.4-28.1c-20.3-52.3,31.9-59.8,75.4-58.1c26.6-57.7,48.9-80,102.4-90.6
			l-53.6,10.6c0,0-79.5-8.2,8.6-21.1l47.8-3.8c-17.3-1-34.2-5.9-49.3-14.4c-24.4-14-0.1-49.3,49.9-15.5
			c19.3,21.6,20.9,17.1,20.9,17.1l-1.6,4.5c0,0-14.6,6.2-0.5-30.8s68.9-10.9,98.8,24.2c-1.3-31.9,11.1-45.5,23.8-51.8
			c28.9-14.5,66.9,5.2,104.4-13.5c12.7-6.3,16.5-12.6,38.3-21.9c22.8-9.6,36.3-10.3,40.6-10.4c11.1-0.3,22.1,1.6,32.5,5.6
			c13.6,5.4,20.1,12.9,22.6,16.2c3.7,7.4,8.1,14.5,13.2,21c26.6,34.3,68.4,53.1,95.7,62.8c-21,98.8-37.7,251.2-58.7,350L-245,1130.7
			L-292.6,665.4z"/>
		
			<linearGradient id="SVGID_4_" gradientUnits="userSpaceOnUse" x1="1106.33" y1="224.9719" x2="1146.7942" y2="224.9719" gradientTransform="matrix(0.9617 -0.274 -0.274 -0.9617 284.1233 1412.7172)">
			<stop  offset="4.000000e-02" style="stop-color:#043F21"/>
			<stop  offset="0.27" style="stop-color:#009044"/>
			<stop  offset="0.28" style="stop-color:#009044"/>
			<stop  offset="0.72" style="stop-color:#009245"/>
		</linearGradient>
		<path class="st2" d="M1302.8,912.6c0,0-10.8-46.2,26.2-55.6C1329.1,857,1327.3,908.9,1302.8,912.6z"/>
		
			<linearGradient id="SVGID_5_" gradientUnits="userSpaceOnUse" x1="1145.7365" y1="208.6577" x2="1054.5664" y2="256.8977" gradientTransform="matrix(0.9617 -0.274 -0.274 -0.9617 284.1233 1412.7172)">
			<stop  offset="4.000000e-02" style="stop-color:#043F21"/>
			<stop  offset="0.27" style="stop-color:#043F21"/>
			<stop  offset="0.3" style="stop-color:#03562B"/>
			<stop  offset="0.34" style="stop-color:#026C35"/>
			<stop  offset="0.38" style="stop-color:#017D3C"/>
			<stop  offset="0.44" style="stop-color:#008941"/>
			<stop  offset="0.52" style="stop-color:#009044"/>
			<stop  offset="0.72" style="stop-color:#009245"/>
		</linearGradient>
		<path class="st3" d="M1303.6,905c0,0-16.6-44.7-53.3-34.2C1250.3,870.8,1280.7,914.1,1303.6,905z"/>
		
			<linearGradient id="SVGID_6_" gradientUnits="userSpaceOnUse" x1="1109.1328" y1="246.2297" x2="1165.7528" y2="288.9297" gradientTransform="matrix(0.9617 -0.274 -0.274 -0.9617 284.1233 1412.7172)">
			<stop  offset="4.000000e-02" style="stop-color:#043F21"/>
			<stop  offset="0.27" style="stop-color:#043F21"/>
			<stop  offset="0.31" style="stop-color:#035A2D"/>
			<stop  offset="0.35" style="stop-color:#027237"/>
			<stop  offset="0.4" style="stop-color:#01833E"/>
			<stop  offset="0.45" style="stop-color:#008D43"/>
			<stop  offset="0.52" style="stop-color:#009044"/>
			<stop  offset="0.52" style="stop-color:#009044"/>
			<stop  offset="0.72" style="stop-color:#009245"/>
		</linearGradient>
		<path class="st4" d="M1290.2,857.3c0,0,9-38,34-35.2C1324.2,822.2,1315,863.9,1290.2,857.3z"/>
		
			<linearGradient id="SVGID_7_" gradientUnits="userSpaceOnUse" x1="1146.7849" y1="264.0061" x2="1086.5349" y2="306.4361" gradientTransform="matrix(0.9617 -0.274 -0.274 -0.9617 284.1233 1412.7172)">
			<stop  offset="4.000000e-02" style="stop-color:#043F21"/>
			<stop  offset="0.27" style="stop-color:#043F21"/>
			<stop  offset="0.3" style="stop-color:#03562B"/>
			<stop  offset="0.34" style="stop-color:#026C35"/>
			<stop  offset="0.38" style="stop-color:#017D3C"/>
			<stop  offset="0.44" style="stop-color:#008941"/>
			<stop  offset="0.52" style="stop-color:#009044"/>
			<stop  offset="0.72" style="stop-color:#009245"/>
		</linearGradient>
		<path class="st5" d="M1292.1,851.1c0,0-16.9-39.1-30.9-40.6s-5,1.4-2.5,0.7S1264.8,850.6,1292.1,851.1z"/>
		
			<linearGradient id="SVGID_8_" gradientUnits="userSpaceOnUse" x1="1105.7914" y1="287.2489" x2="1196.9613" y2="349.8889" gradientTransform="matrix(0.9617 -0.274 -0.274 -0.9617 284.1233 1412.7172)">
			<stop  offset="4.000000e-02" style="stop-color:#043F21"/>
			<stop  offset="0.27" style="stop-color:#043F21"/>
			<stop  offset="0.3" style="stop-color:#03562B"/>
			<stop  offset="0.34" style="stop-color:#026C35"/>
			<stop  offset="0.38" style="stop-color:#017D3C"/>
			<stop  offset="0.44" style="stop-color:#008941"/>
			<stop  offset="0.52" style="stop-color:#009044"/>
			<stop  offset="0.72" style="stop-color:#009245"/>
		</linearGradient>
		<path class="st6" d="M1291.7,810.8c0,0-2.6-35.9,32.5-48.6C1324.2,762.2,1317.3,809.2,1291.7,810.8z"/>
		
			<linearGradient id="SVGID_9_" gradientUnits="userSpaceOnUse" x1="1164.0366" y1="287.8043" x2="1083.1167" y2="350.7643" gradientTransform="matrix(0.9617 -0.274 -0.274 -0.9617 284.1233 1412.7172)">
			<stop  offset="4.000000e-02" style="stop-color:#043F21"/>
			<stop  offset="0.27" style="stop-color:#043F21"/>
			<stop  offset="0.3" style="stop-color:#03562B"/>
			<stop  offset="0.34" style="stop-color:#026C35"/>
			<stop  offset="0.38" style="stop-color:#017D3C"/>
			<stop  offset="0.44" style="stop-color:#008941"/>
			<stop  offset="0.52" style="stop-color:#009044"/>
			<stop  offset="0.72" style="stop-color:#009245"/>
		</linearGradient>
		<path class="st7" d="M1289.3,826.2c0,0-26.2-21.3-25.8-57.4C1263.5,768.8,1286.9,783.3,1289.3,826.2z"/>
		
			<linearGradient id="SVGID_10_" gradientUnits="userSpaceOnUse" x1="1126.49" y1="372.7006" x2="1190.98" y2="372.7006" gradientTransform="matrix(0.9617 -0.274 -0.274 -0.9617 284.1233 1412.7172)">
			<stop  offset="4.000000e-02" style="stop-color:#043F21"/>
			<stop  offset="0.27" style="stop-color:#043F21"/>
			<stop  offset="0.3" style="stop-color:#03562B"/>
			<stop  offset="0.34" style="stop-color:#026C35"/>
			<stop  offset="0.38" style="stop-color:#017D3C"/>
			<stop  offset="0.44" style="stop-color:#008941"/>
			<stop  offset="0.52" style="stop-color:#009044"/>
			<stop  offset="0.72" style="stop-color:#009245"/>
		</linearGradient>
		<path class="st8" d="M1287.8,742.2c0,0,3-19.1,17.4-21c0,0-0.7,24.9-14.5,30.5L1287.8,742.2z"/>
		
			<linearGradient id="SVGID_11_" gradientUnits="userSpaceOnUse" x1="1162.3892" y1="340.3288" x2="1103.1492" y2="381.7388" gradientTransform="matrix(0.9617 -0.274 -0.274 -0.9617 284.1233 1412.7172)">
			<stop  offset="4.000000e-02" style="stop-color:#043F21"/>
			<stop  offset="0.27" style="stop-color:#043F21"/>
			<stop  offset="0.3" style="stop-color:#034D27"/>
			<stop  offset="0.35" style="stop-color:#026632"/>
			<stop  offset="0.41" style="stop-color:#01793B"/>
			<stop  offset="0.49" style="stop-color:#018740"/>
			<stop  offset="0.58" style="stop-color:#008F44"/>
			<stop  offset="0.74" style="stop-color:#009145"/>
			<stop  offset="1" style="stop-color:#009245"/>
		</linearGradient>
		<path class="st9" d="M1290.8,775c0,0-21.9-13.3-20.7-35.7c0,0,15.5,9.9,21.8,27.3L1290.8,775z"/>
		
			<linearGradient id="SVGID_12_" gradientUnits="userSpaceOnUse" x1="1121.76" y1="411.9384" x2="1184.34" y2="411.9384" gradientTransform="matrix(0.9617 -0.274 -0.274 -0.9617 284.1233 1412.7172)">
			<stop  offset="4.000000e-02" style="stop-color:#043F21"/>
			<stop  offset="0.27" style="stop-color:#043F21"/>
			<stop  offset="0.3" style="stop-color:#03562B"/>
			<stop  offset="0.34" style="stop-color:#026C35"/>
			<stop  offset="0.38" style="stop-color:#017D3C"/>
			<stop  offset="0.44" style="stop-color:#008941"/>
			<stop  offset="0.52" style="stop-color:#009044"/>
			<stop  offset="0.72" style="stop-color:#009245"/>
		</linearGradient>
		<path class="st10" d="M1276.8,716.5c0,0-15.5-22.9,7.3-40.2c0,0,10,27.6-2,47C1276.7,716.3,1276.8,716.5,1276.8,716.5z"/>
		
			<linearGradient id="SVGID_13_" gradientUnits="userSpaceOnUse" x1="1182.0524" y1="383.3061" x2="1060.6624" y2="428.6761" gradientTransform="matrix(0.9617 -0.274 -0.274 -0.9617 284.1233 1412.7172)">
			<stop  offset="4.000000e-02" style="stop-color:#043F21"/>
			<stop  offset="0.27" style="stop-color:#043F21"/>
			<stop  offset="0.3" style="stop-color:#03562B"/>
			<stop  offset="0.34" style="stop-color:#026C35"/>
			<stop  offset="0.38" style="stop-color:#017D3C"/>
			<stop  offset="0.44" style="stop-color:#008941"/>
			<stop  offset="0.52" style="stop-color:#009044"/>
			<stop  offset="0.72" style="stop-color:#009245"/>
		</linearGradient>
		<path class="st11" d="M1282.1,723.3c0,0-13.8-21.3-28.9-15.4C1253.2,707.9,1261,733,1282.1,723.3z"/>
		
			<linearGradient id="SVGID_14_" gradientUnits="userSpaceOnUse" x1="1112.61" y1="450.5822" x2="1172.84" y2="450.5822" gradientTransform="matrix(0.9617 -0.274 -0.274 -0.9617 284.1233 1412.7172)">
			<stop  offset="4.000000e-02" style="stop-color:#043F21"/>
			<stop  offset="0.27" style="stop-color:#043F21"/>
			<stop  offset="0.3" style="stop-color:#03562B"/>
			<stop  offset="0.34" style="stop-color:#026C35"/>
			<stop  offset="0.38" style="stop-color:#017D3C"/>
			<stop  offset="0.44" style="stop-color:#008941"/>
			<stop  offset="0.52" style="stop-color:#009044"/>
			<stop  offset="0.72" style="stop-color:#009245"/>
		</linearGradient>
		<path class="st12" d="M1264.4,698.1c-0.3,0.4-20.2-4.8-18.6-32.5s-1.7-28-1.7-28S1280.2,675.3,1264.4,698.1z"/>
		
			<linearGradient id="SVGID_15_" gradientUnits="userSpaceOnUse" x1="1115.97" y1="307.3581" x2="1151.0898" y2="307.3581" gradientTransform="matrix(0.9617 -0.274 -0.274 -0.9617 284.1233 1412.7172)">
			<stop  offset="0.26" style="stop-color:#043F21"/>
			<stop  offset="0.28" style="stop-color:#044725"/>
			<stop  offset="0.39" style="stop-color:#026230"/>
			<stop  offset="0.5" style="stop-color:#017739"/>
			<stop  offset="0.63" style="stop-color:#018640"/>
			<stop  offset="0.77" style="stop-color:#008F44"/>
			<stop  offset="1" style="stop-color:#009245"/>
		</linearGradient>
		<path class="st13" d="M1264.7,698.1c7.1,7.7,12.9,16.3,17.4,25.7c5,10.6,9.5,25.1,9.1,75.3c-0.1,11.7-0.5,27.5-1.7,46.3
			c5.2,24.4,10.4,48.8,15.6,73.3"/>
		<path class="st14" d="M1155.7,680.3c-8.6-22,19-22.5,22.3-7.1c9.6-16.2,33.7,4.1,19.6,18.5c14.7-1.4,14.9,31.4-5.3,25.5
			c5.2,13.2-17,25.4-23.5,4.7c-5.3,13.8-34.4,5.9-20.1-16.6c-16.9-2.5-10-26.7,3.9-24.3L1155.7,680.3z"/>
		
			<ellipse transform="matrix(0.9536 -0.3011 0.3011 0.9536 -156.2901 384.5899)" class="st15" cx="1169.4" cy="699.3" rx="15.6" ry="15.6"/>
		<path class="st16" d="M1191.3,751.2c0,0-6.2-14.5,12.6-22.1c0,0,6,19-11.3,26.3L1191.3,751.2z"/>
		<path class="st16" d="M1197.7,777.1c0.3-8.3,4.7-15.9,11.6-20.4c1.7,9.6-2.2,19.3-10.2,24.9L1197.7,777.1z"/>
		<path class="st16" d="M1197.8,778.7c0,0-11.7-15.2-25.8-12.3c0,0,7.4,20,26.2,17.5L1197.8,778.7z"/>
		<path class="st16" d="M1189,748.4c-5.2-6.5-13.6-9.5-21.8-7.7c0,0,6.8,17,23.3,15.4L1189,748.4z"/>
		<path class="st17" d="M1185.2,732.2c0,0,22.5,68,20.5,78.6"/>
		
			<linearGradient id="SVGID_16_" gradientUnits="userSpaceOnUse" x1="1682.4829" y1="522.5231" x2="1671.3329" y2="395.713" gradientTransform="matrix(-0.71 0.48 -0.44 -0.65 2530.53 225.73)">
			<stop  offset="0" style="stop-color:#E856C5"/>
			<stop  offset="0.13" style="stop-color:#E153C0"/>
			<stop  offset="0.32" style="stop-color:#CD4BB2"/>
			<stop  offset="0.55" style="stop-color:#AC3D9C"/>
			<stop  offset="0.81" style="stop-color:#7E2B7D"/>
			<stop  offset="0.86" style="stop-color:#752777"/>
		</linearGradient>
		<path class="st18" d="M1168.1,741.6c0,0,6.9-10.9-0.5-21.7s-38.1-13.6-42.2,18.3s16.3,45,16.3,45L1168.1,741.6z"/>
		
			<linearGradient id="SVGID_17_" gradientUnits="userSpaceOnUse" x1="1675.7065" y1="479.0089" x2="1666.9766" y2="379.7589" gradientTransform="matrix(-0.71 0.48 -0.44 -0.65 2530.53 225.73)">
			<stop  offset="0" style="stop-color:#E856C5"/>
			<stop  offset="0.13" style="stop-color:#E153C0"/>
			<stop  offset="0.32" style="stop-color:#CD4BB2"/>
			<stop  offset="0.55" style="stop-color:#AC3D9C"/>
			<stop  offset="0.81" style="stop-color:#7E2B7D"/>
			<stop  offset="0.86" style="stop-color:#752777"/>
		</linearGradient>
		<path class="st19" d="M1147.9,790.2c0,0,35-1.4,42-45.9c-6.9-27-34-20.9-41.1,15.3S1147.9,790.2,1147.9,790.2z"/>
		
			<linearGradient id="SVGID_18_" gradientUnits="userSpaceOnUse" x1="1715.4363" y1="531.5683" x2="1701.7864" y2="376.3983" gradientTransform="matrix(-0.71 0.48 -0.44 -0.65 2530.53 225.73)">
			<stop  offset="0" style="stop-color:#E856C5"/>
			<stop  offset="0.13" style="stop-color:#E153C0"/>
			<stop  offset="0.32" style="stop-color:#CD4BB2"/>
			<stop  offset="0.55" style="stop-color:#AC3D9C"/>
			<stop  offset="0.81" style="stop-color:#7E2B7D"/>
			<stop  offset="0.86" style="stop-color:#752777"/>
		</linearGradient>
		<path class="st20" d="M1143.3,760.3c0,0,4.1-15.1-17-25s-41.2,19.8-14.1,38.3s35.8,16.5,35.8,16.5L1143.3,760.3z"/>
		
			<linearGradient id="SVGID_19_" gradientUnits="userSpaceOnUse" x1="1383.4329" y1="165.43" x2="1348.0962" y2="123.0341" gradientTransform="matrix(-1 0 0 -1 2511.8401 900)">
			<stop  offset="0" style="stop-color:#E856C5"/>
			<stop  offset="0.13" style="stop-color:#E153C0"/>
			<stop  offset="0.32" style="stop-color:#CD4BB2"/>
			<stop  offset="0.55" style="stop-color:#AC3D9C"/>
			<stop  offset="0.81" style="stop-color:#7E2B7D"/>
			<stop  offset="0.86" style="stop-color:#752777"/>
		</linearGradient>
		<path class="st21" d="M1147.9,790.2c0,0,23.8-24.2,14.9-49.8s-43.7-13.4-37.9,16.2S1147.9,790.2,1147.9,790.2z"/>
		<path class="st22" d="M1147.9,790.2c4,10.7,8.1,21.3,12.2,31.9c1,2.6,2.1,5.3,3.2,7.9s2.1,5.3,3.2,7.9c2.1,5.3,4.4,10.4,6.7,15.6
			l3.5,7.8c1.1,2.6,2.4,5.1,3.6,7.7c2.3,5.2,5,10.1,7.5,15.3c5.3,10,10.9,19.9,16.9,29.5c-7.3-8.8-13.9-18.1-19.7-28
			c-1.4-2.5-2.8-5-4.2-7.5c-1.4-2.5-2.7-5-4-7.6c-2.6-5.1-5-10.3-7.3-15.5c-2.2-5.3-4.5-10.5-6.5-15.8c-1-2.7-2-5.3-3-8
			s-2-5.4-2.8-8.1C1153.5,812.4,1150.4,801.3,1147.9,790.2z"/>
		
			<linearGradient id="SVGID_20_" gradientUnits="userSpaceOnUse" x1="1099.41" y1="70.8881" x2="1165.3401" y2="70.8881" gradientTransform="matrix(1 0 0 -1 0 900)">
			<stop  offset="1.000000e-02" style="stop-color:#21544D"/>
			<stop  offset="0.79" style="stop-color:#009245"/>
		</linearGradient>
		<path class="st23" d="M1157.9,832.3c0,0-25.4-32.9-58.5-18.2c0,0,12.9,44.1,62,31.7l3.9-2.7L1157.9,832.3z"/>
		
			<linearGradient id="SVGID_21_" gradientUnits="userSpaceOnUse" x1="1130.49" y1="9.9729" x2="1197.8907" y2="9.9729" gradientTransform="matrix(1 0 0 -1 0 900)">
			<stop  offset="1.000000e-02" style="stop-color:#21544D"/>
			<stop  offset="0.79" style="stop-color:#009245"/>
		</linearGradient>
		<path class="st24" d="M1147.7,871.5c-15.8-5.6-17.2-4.6-17.2-4.6s14.6,35,42.6,42.3s24.7,2.4,24.7,2.4S1176.3,878.9,1147.7,871.5z
			"/>
		
			<linearGradient id="SVGID_22_" gradientUnits="userSpaceOnUse" x1="1196.75" y1="56.755" x2="1247.9866" y2="56.755" gradientTransform="matrix(1 0 0 -1 0 900)">
			<stop  offset="1.000000e-02" style="stop-color:#21544D"/>
			<stop  offset="0.79" style="stop-color:#009245"/>
		</linearGradient>
		<path class="st25" d="M1196.8,902c0,0,3.4-66.9,46.6-117.5C1259.1,816,1232.5,899.8,1196.8,902z"/>
		
			<linearGradient id="SVGID_23_" gradientUnits="userSpaceOnUse" x1="1165.3199" y1="72.65" x2="1190.45" y2="72.65" gradientTransform="matrix(1 0 0 -1 0 900)">
			<stop  offset="1.000000e-02" style="stop-color:#21544D"/>
			<stop  offset="0.79" style="stop-color:#009245"/>
		</linearGradient>
		<path class="st26" d="M1175.7,858.2c0,0,19.5-29.7,13.7-61.7c0,0-22.4,11.1-24,46.6L1175.7,858.2z"/>
		<path class="st27" d="M1436.3,910.3c0,0-21.8-91.4-77-113s-33.5-11.1-33.5-11.1s71.3,24.1,87.6,124.1H1436.3z"/>
		
			<linearGradient id="SVGID_24_" gradientUnits="userSpaceOnUse" x1="1402.988" y1="-66.7311" x2="1265.358" y2="179.9989" gradientTransform="matrix(1 0 0 -1 0 900)">
			<stop  offset="0.24" style="stop-color:#043F21"/>
			<stop  offset="0.26" style="stop-color:#044725"/>
			<stop  offset="0.33" style="stop-color:#026230"/>
			<stop  offset="0.4" style="stop-color:#017739"/>
			<stop  offset="0.48" style="stop-color:#018640"/>
			<stop  offset="0.58" style="stop-color:#008F44"/>
			<stop  offset="0.72" style="stop-color:#009245"/>
		</linearGradient>
		<path class="st28" d="M1390.3,916.3c0,0-40.7-106.1-95.3-109.8c0,0,56.2,42.4,72.1,108.8L1390.3,916.3z"/>
		<path class="st29" d="M1496.8,792.7c0,0-8,57.8-15.4,108.1c-0.9,5.9-2.8,18.1-9.1,19.6c-3,0.7-6.1-1.2-8.1-2.8
			c2.4-6.7,4.7-13.5,6.8-20.6c11.2-36.1,18.6-73.3,22-111L1496.8,792.7z"/>
		<path class="st29" d="M1470,917.6c0,0,50.2-44.5,84.8-4.2c10.6,34.6-12.3,43.8-36.1,16.3S1470,917.6,1470,917.6z"/>
		<path class="st29" d="M1482,872.3c0,0,31.5-46.7,75.5-36.1s39.1,52.3,15,48.8S1528,858.9,1482,872.3z"/>
		<path class="st29" d="M1490.5,834.7c0,0,26.9-43.7,59.4-52.9s86.5,40.3,40.8,38.9S1527.3,810.5,1490.5,834.7z"/>
		<path class="st29" d="M1494.1,796.7c0,0-15.6-58,2.8-82s62.2-19.8,46,24C1509.6,778.3,1515.3,766.3,1494.1,796.7z"/>
		<path class="st29" d="M1490.5,823.5c0,0,7.8-50.9-44.6-52.3s-45.1,51.9,19.1,36.5C1487,815.8,1484.2,811.5,1490.5,823.5z"/>
		<path class="st29" d="M1482,875.8c0,0-10.7-58.3-70.8-41.2s-4.1,63.6,39.8,28.4C1467.9,861,1482,875.8,1482,875.8z"/>
		<path class="st29" d="M1470,917.6c0,0-7.1-45.3-44.6-38.2s-33.6,49.5,25.6,29C1464.4,911.2,1470,917.6,1470,917.6z"/>
		<path class="st30" d="M1600.8,660.3c0,0,36.9,45,68.8,84.5c3.7,4.6,11.4,14.2,9.8,17.9c-0.8,1.8-3.5,1.7-5.4,1.3
			c-3.6-5.8-7.4-11.7-11.4-17.7c-20.7-31.2-43.4-61-68-89.2L1600.8,660.3z"/>
		<path class="st30" d="M1602.4,664.3c0,0-47.2-35.3-56.1-60.3s13.1-40.3,36.7-1.9C1596.3,644.6,1590.3,633.5,1602.4,664.3z"/>
		<path class="st30" d="M1619.6,685.2c0,0-32.2-40-55.8-19.1s16.8,56.3,33.7,18.3C1612.7,681,1608.5,679.2,1619.6,685.2z"/>
		<path class="st30" d="M1652.5,726.5c0,0-45.3-37.6-59.3-0.1s42.6,47.6,37.1,3.8C1636,721.7,1652.5,726.5,1652.5,726.5z"/>
		
			<linearGradient id="SVGID_25_" gradientUnits="userSpaceOnUse" x1="1500.9729" y1="142.2238" x2="1529.6029" y2="195.4238" gradientTransform="matrix(0.964 0.2659 0.2659 -0.964 -144.0634 645.1624)">
			<stop  offset="0.24" style="stop-color:#043F21"/>
			<stop  offset="0.27" style="stop-color:#044725"/>
			<stop  offset="0.38" style="stop-color:#026230"/>
			<stop  offset="0.49" style="stop-color:#017739"/>
			<stop  offset="0.62" style="stop-color:#018640"/>
			<stop  offset="0.77" style="stop-color:#008F44"/>
			<stop  offset="1" style="stop-color:#009245"/>
		</linearGradient>
		<path class="st31" d="M1345.2,883.7c4.5-8.6,11.1-16,19.2-21.4c18.7-12.5,38.7-9.6,43.6-8.8c-5.3,10.9-13.1,20.4-22.6,27.8
			c-19.7,15.2-40.9,16.4-48.5,16.5L1345.2,883.7z"/>
		
			<linearGradient id="SVGID_26_" gradientUnits="userSpaceOnUse" x1="594.5103" y1="143.2001" x2="622.5903" y2="195.3901" gradientTransform="matrix(-0.96 -0.27 0.27 -0.96 1864.1299 1196.33)">
			<stop  offset="0.24" style="stop-color:#043F21"/>
			<stop  offset="0.27" style="stop-color:#044725"/>
			<stop  offset="0.38" style="stop-color:#026230"/>
			<stop  offset="0.49" style="stop-color:#017739"/>
			<stop  offset="0.62" style="stop-color:#018640"/>
			<stop  offset="0.77" style="stop-color:#008F44"/>
			<stop  offset="1" style="stop-color:#009245"/>
		</linearGradient>
		<path class="st32" d="M1339.5,882.2c2.6-9.9,1.8-20.5-2.2-29.9c-9.7-21.9-33.4-26.6-35.7-27c0,11.7,2.3,23.2,6.7,34
			c6.5,15.6,17.2,29.1,30.8,39.1L1339.5,882.2z"/>
		
			<linearGradient id="SVGID_27_" gradientUnits="userSpaceOnUse" x1="1503.8439" y1="189.614" x2="1527.0638" y2="232.7841" gradientTransform="matrix(0.964 0.2659 0.2659 -0.964 -144.0634 645.1624)">
			<stop  offset="0.24" style="stop-color:#043F21"/>
			<stop  offset="0.27" style="stop-color:#044725"/>
			<stop  offset="0.38" style="stop-color:#026230"/>
			<stop  offset="0.49" style="stop-color:#017739"/>
			<stop  offset="0.62" style="stop-color:#018640"/>
			<stop  offset="0.77" style="stop-color:#008F44"/>
			<stop  offset="1" style="stop-color:#009245"/>
		</linearGradient>
		<path class="st33" d="M1361.7,841.3c4.5-6.1,10.1-11.2,16.7-15c9.9-5.7,21.3-8.2,32.6-7.3c-13,18.6-32,32.1-53.8,38.1l-1.1,0.4
			L1361.7,841.3z"/>
		
			<linearGradient id="SVGID_28_" gradientUnits="userSpaceOnUse" x1="588.7317" y1="203.8727" x2="605.5917" y2="235.2226" gradientTransform="matrix(-0.96 -0.27 0.27 -0.96 1864.6899 1196.48)">
			<stop  offset="0.24" style="stop-color:#043F21"/>
			<stop  offset="0.27" style="stop-color:#044725"/>
			<stop  offset="0.38" style="stop-color:#026230"/>
			<stop  offset="0.49" style="stop-color:#017739"/>
			<stop  offset="0.62" style="stop-color:#018640"/>
			<stop  offset="0.77" style="stop-color:#008F44"/>
			<stop  offset="1" style="stop-color:#009245"/>
		</linearGradient>
		<path class="st34" d="M1359.7,831.8c1.7-7,0.5-14.4-3.4-20.5c-6.6-10.1-17.7-11.4-19.2-11.6c-1.1,16.9,6,33.2,19.2,43.8l0.6,0.7
			L1359.7,831.8z"/>
		
			<linearGradient id="SVGID_29_" gradientUnits="userSpaceOnUse" x1="1440.324" y1="134.9932" x2="1504.9241" y2="255.0632" gradientTransform="matrix(0.964 0.2659 0.2659 -0.964 -144.0634 645.1624)">
			<stop  offset="0.24" style="stop-color:#043F21"/>
			<stop  offset="0.27" style="stop-color:#044725"/>
			<stop  offset="0.38" style="stop-color:#026230"/>
			<stop  offset="0.49" style="stop-color:#017739"/>
			<stop  offset="0.62" style="stop-color:#018640"/>
			<stop  offset="0.77" style="stop-color:#008F44"/>
			<stop  offset="1" style="stop-color:#009245"/>
		</linearGradient>
		<path class="st35" d="M1382.4,729.8c0,0-25.2,160.7-70.1,186.1l7.5,2c4.9-4.7,9.4-9.7,13.5-15.1c10.3-13.5,15.5-26,20.2-38.6
			c6.6-17.6,13.1-35.3,19.2-63C1377.8,777.7,1381.1,753.8,1382.4,729.8z"/>
		<path class="st36" d="M1385.1,720.5c0,0-3.6-6-8.4-15c-3.5-6.6-7.7-14.8-11.5-23.4c-7.6-17.2-14-36.2-11.8-48
			c5-25.9,73.3-51.3,77,4.6C1423.5,687.5,1385.1,720.5,1385.1,720.5z"/>
		<path class="st36" d="M1385,720.9c0,0,17.6-52,73.1-55.6s52.7,72.4,5.7,68.7C1439.7,729.3,1415.6,709,1385,720.9z"/>
		<path class="st36" d="M1385,720.9c0,0,59.5-15.2,78.2,46.3c-3.2,37.1-63.3,60.7-75.8,28.1C1376.3,769.6,1379.9,738.8,1385,720.9z"
			/>
		<path class="st36" d="M1385,720.9c0,0-37.3-32.4-87.3,17.5c-19.3,22.3,28.4,85.1,68.3,37C1380.7,741.4,1380.7,729.4,1385,720.9z"
			/>
		<path class="st36" d="M1423.8,699.6l-38.8,21.3c0,0-12.5-5.3-31.5-7.9c-1-0.1-2-0.3-3.1-0.4c-5.5-0.7-11.1-1-16.7-1
			c-29.5,0-70.1-2.2-38-62.9c13.2-18.2,52.4-7,74.6,24.2c1.2,1.6,2.3,3.3,3.4,5.1c0.9,1.4,1.7,2.8,2.5,4.3c0.8,1.5,1.5,2.9,2.1,4.2
			c3.5,7.6,5.9,15.7,7.1,24c0.3,2.2,0.5,4.5,0.7,6.8c0.2,3.5,17.5-33.8,44.4-30.4"/>
		
			<linearGradient id="SVGID_30_" gradientUnits="userSpaceOnUse" x1="1388.64" y1="205.2212" x2="1428.1577" y2="205.2212" gradientTransform="matrix(1 0 0 -1 0 900)">
			<stop  offset="0.13" style="stop-color:#F8DC6B"/>
			<stop  offset="0.14" style="stop-color:#F8DE73"/>
			<stop  offset="0.22" style="stop-color:#F7E69A"/>
			<stop  offset="0.3" style="stop-color:#F6EDBB"/>
			<stop  offset="0.39" style="stop-color:#F6F2D4"/>
			<stop  offset="0.47" style="stop-color:#F5F6E6"/>
			<stop  offset="0.57" style="stop-color:#F5F8F1"/>
			<stop  offset="0.67" style="stop-color:#F5F9F4"/>
		</linearGradient>
		<path class="st37" d="M1388.6,719.7c0,0,10.9-50.2,33.3-49.8S1400,675,1388.6,719.7z"/>
		
			<linearGradient id="SVGID_31_" gradientUnits="userSpaceOnUse" x1="274.99" y1="209.2212" x2="314.5337" y2="209.2212" gradientTransform="matrix(-1 0 0 -1 1662.15 900)">
			<stop  offset="0.13" style="stop-color:#F8DC6B"/>
			<stop  offset="0.14" style="stop-color:#F8DE73"/>
			<stop  offset="0.22" style="stop-color:#F7E69A"/>
			<stop  offset="0.3" style="stop-color:#F6EDBB"/>
			<stop  offset="0.39" style="stop-color:#F6F2D4"/>
			<stop  offset="0.47" style="stop-color:#F5F6E6"/>
			<stop  offset="0.57" style="stop-color:#F5F8F1"/>
			<stop  offset="0.67" style="stop-color:#F5F9F4"/>
		</linearGradient>
		<path class="st38" d="M1387.2,715.7c0,0-0.4-2-1.3-5.3c-3.5-12.9-14.1-44.8-32-44.5C1331.5,666.3,1375.8,671,1387.2,715.7z"/>
		
			<linearGradient id="SVGID_32_" gradientUnits="userSpaceOnUse" x1="1390.1383" y1="213.14" x2="1381.7883" y2="213.14" gradientTransform="matrix(1 0 0 -1 0 900)">
			<stop  offset="0.13" style="stop-color:#F8DC6B"/>
			<stop  offset="0.14" style="stop-color:#F8DE73"/>
			<stop  offset="0.22" style="stop-color:#F7E69A"/>
			<stop  offset="0.3" style="stop-color:#F6EDBB"/>
			<stop  offset="0.39" style="stop-color:#F6F2D4"/>
			<stop  offset="0.47" style="stop-color:#F5F6E6"/>
			<stop  offset="0.57" style="stop-color:#F5F8F1"/>
			<stop  offset="0.67" style="stop-color:#F5F9F4"/>
		</linearGradient>
		<path class="st39" d="M1389.6,714.9c0,0-17.7-41.3,0-56C1392.3,663.3,1383,683.4,1389.6,714.9z"/>
		
			<linearGradient id="SVGID_33_" gradientUnits="userSpaceOnUse" x1="1413.6526" y1="177.89" x2="1413.3826" y2="209.04" gradientTransform="matrix(1 0 0 -1 0 900)">
			<stop  offset="0.13" style="stop-color:#F8DC6B"/>
			<stop  offset="0.14" style="stop-color:#F8DE73"/>
			<stop  offset="0.22" style="stop-color:#F7E69A"/>
			<stop  offset="0.3" style="stop-color:#F6EDBB"/>
			<stop  offset="0.39" style="stop-color:#F6F2D4"/>
			<stop  offset="0.47" style="stop-color:#F5F6E6"/>
			<stop  offset="0.57" style="stop-color:#F5F8F1"/>
			<stop  offset="0.67" style="stop-color:#F5F9F4"/>
		</linearGradient>
		<path class="st40" d="M1391.7,715.7c0,0,12.3-24.7,36.5-16S1410,691,1391.7,715.7z"/>
		
			<linearGradient id="SVGID_34_" gradientUnits="userSpaceOnUse" x1="1494.3673" y1="406.8556" x2="1535.399" y2="427.2765" gradientTransform="matrix(0.9457 0.3251 0.3251 -0.9457 -205.6357 602.35)">
			<stop  offset="0.13" style="stop-color:#F8DC6B"/>
			<stop  offset="0.14" style="stop-color:#F8DE73"/>
			<stop  offset="0.22" style="stop-color:#F7E69A"/>
			<stop  offset="0.3" style="stop-color:#F6EDBB"/>
			<stop  offset="0.39" style="stop-color:#F6F2D4"/>
			<stop  offset="0.47" style="stop-color:#F5F6E6"/>
			<stop  offset="0.57" style="stop-color:#F5F8F1"/>
			<stop  offset="0.67" style="stop-color:#F5F9F4"/>
		</linearGradient>
		<path class="st41" d="M1387.9,717.3c0,0-23.4-25.7-40.2-26.9s-12.3-14,8.3-2.7S1382.7,713.6,1387.9,717.3z"/>
		<path class="st42" d="M1547.3,807.3l16.8-14.6c0,0,14,12.5,12.1,18.5s-25,2.7-25,2.7L1547.3,807.3z"/>
		<path class="st42" d="M1540.1,810.9c0,0-19-9-16.9-15.3s22.1-14.5,24.1-7.9s0,19.6,0,19.6L1540.1,810.9z"/>
		<path class="st42" d="M1540.1,810.9c0,0-25.1-8.5-24.5,3s9.3,19.2,24.5,7.8"/>
		<path class="st42" d="M1552.7,817.6c0,0,16.7-0.4,23.6,4.2s-13,20.7-14.5,16.6s-14.5-13.1-14.5-13.1L1552.7,817.6z"/>
		<path class="st42" d="M1547.3,816.3c0,0,5.8,19.5,0.9,22.7s-23.8,1.2-20.3-5.8s10.4-17,10.4-17L1547.3,816.3z"/>
		<circle class="st43" cx="1547.3" cy="816.3" r="9"/>
		
			<linearGradient id="SVGID_35_" gradientUnits="userSpaceOnUse" x1="1244.9943" y1="65.36" x2="1272.7914" y2="65.36" gradientTransform="matrix(1 0 0 -1 0 900)">
			<stop  offset="0.24" style="stop-color:#043F21"/>
			<stop  offset="0.26" style="stop-color:#044725"/>
			<stop  offset="0.33" style="stop-color:#026230"/>
			<stop  offset="0.4" style="stop-color:#017739"/>
			<stop  offset="0.48" style="stop-color:#018640"/>
			<stop  offset="0.58" style="stop-color:#008F44"/>
			<stop  offset="0.72" style="stop-color:#009245"/>
		</linearGradient>
		<path class="st44" d="M1272.4,882.5c0,0,3.7-18.4-10.4-32.3s-13.1-31.5-8.9-45.8s2-16.6,2-16.6l-3.3-0.9c-0.1,1.8-0.3,3.7-0.6,5.5
			c-0.7,4-2.1,5.6-3.4,8.9c-1.5,3.9-1.9,7-2.4,11.9c-0.4,3.8-0.5,7.6-0.2,11.4c0.9,8.1,3.6,15.9,8.1,22.7
			c3.7,3.9,10.7,12.4,12.5,24.9c0.2,1.5,0.3,3,0.4,4.4c0.1,1.9,0,3.7-0.2,5.6L1272.4,882.5z"/>
		
			<linearGradient id="SVGID_36_" gradientUnits="userSpaceOnUse" x1="1283.6621" y1="-3.3681" x2="1225.2021" y2="60.7319" gradientTransform="matrix(1 0 0 -1 0 900)">
			<stop  offset="0.24" style="stop-color:#606060"/>
			<stop  offset="0.28" style="stop-color:#4B6B5A"/>
			<stop  offset="0.34" style="stop-color:#307952"/>
			<stop  offset="0.41" style="stop-color:#1B844C"/>
			<stop  offset="0.48" style="stop-color:#0C8C48"/>
			<stop  offset="0.56" style="stop-color:#039146"/>
			<stop  offset="0.69" style="stop-color:#009245"/>
		</linearGradient>
		<path class="st45" d="M1230.1,849.4c-0.3-2.4,28,6.5,36.1,27.2s0.1,13.8,0.1,13.8S1231.8,864.5,1230.1,849.4z"/>
		
			<linearGradient id="SVGID_37_" gradientUnits="userSpaceOnUse" x1="1278.3101" y1="9.65" x2="1327.98" y2="9.65" gradientTransform="matrix(1 0 0 -1 0 900)">
			<stop  offset="0" style="stop-color:#043F21"/>
			<stop  offset="0.25" style="stop-color:#026130"/>
			<stop  offset="0.51" style="stop-color:#017C3B"/>
			<stop  offset="0.73" style="stop-color:#008C42"/>
			<stop  offset="0.91" style="stop-color:#009245"/>
		</linearGradient>
		<path class="st46" d="M1278.3,921.8c29.8-8.8,34.7-56.4,35.2-63C1287.1,868.4,1278.3,921.8,1278.3,921.8z"/>
		<path class="st47" d="M1238.6,790.6c0.9-9.7,3.8-25,14.4-38.9c4.6-6.1,11.1-13.4,20.4-15.4c4.3-0.9,8.9-0.2,15.1,2
			c5.5,2.2,11.4,3,17.3,2.4c2.9-0.5,7.2,1.9,2.4,3.4c-4.3,1.9-13.4,19.7-16.8,22.6s-34.1,15.4-34.1,15.4c-3.8,1.9-7.1,4.5-9.8,7.7
			c-4.4,5.4-5.5,10.8-7,10.6C1239.7,800,1238.8,798.2,1238.6,790.6z"/>
		<path class="st47" d="M1241,793.4c1.2-1.8,8-12.3,18.5-12.5c3.5-0.1,6.2,0.6,10.1,2.7c7.2,3.8,14.4,13,17.8,13.9s5.3,5.3,3.8,11
			c0,5.8,0.5,10.6-1,12.5c2.9,3.4-1.4,3.4-1.4,3.4c1.5,2,1.1,4.8-0.8,6.3c-0.9,0.7-1.9,1-3,0.9"/>
		<path class="st47" d="M1282.7,831.6c0,0,0.8,4.3-4,4.8c-3.4,10.1-17.8,6.7-21.1,6.7c-12.5-5.8-28.3-17.3-21.6-41.3
			c-1.9-3.9-0.4-8.3,2.6-9.8c2.5-1.1,5.4-0.6,7.4,1.2"/>
		<path class="st47" d="M1232.6,801.4c0,0-23.5-9.1-40.3,14.9s-2.4,28.8-1.4,29.8c0.5,4.3,5.3,1.9,5.3,1.9
			c0.5,6.2,33.1,13.9,36.5-32.9l3.4-13.2L1232.6,801.4z"/>
		<path class="st47" d="M1231.4,789.6c0,0-14.8-21.9-26.5-24.5s-18.3,8.2-20.8,15.7c-0.8,3.4-1.3,6.9-1.5,10.4c0,0-3.3,1.2-2.1,3
			c-3.4,3.7-7.2,7-11.3,10c0,0-0.5,3.8,1.9,4.3s1.4,0,1.4,0s6,6.4,34.9-5.7c8.3-4.4,28.5-1,28.5-1S1238.5,788.4,1231.4,789.6z"/>
		<path class="st47" d="M1214.4,770.3c0,0-14.4-11.2-9.6-24.7s47.5-25.8,48-9.8c-3.8,17.1-11.8,38.1-9.3,53.7c0.1,1.4,0.4,7.2-2,8.2
			c-1,0.4-2.2-0.2-3.4-1C1231.8,792.5,1217.3,774,1214.4,770.3z"/>
		<path class="st48" d="M1242.4,797.9c0,0-5.8-8.8-7.2-14s-7-14.5-7-14.5s-1.7,0.6-3.6-2.8s0.5-4.3,3.6,1.4s6,12.7,7.7,15
			s2.9,10.7,7.3,14.2C1242.5,797.9,1242.4,797.9,1242.4,797.9z"/>
		<path class="st48" d="M1241.9,798.7c0,0-5.9-12.1-10.1-17.8c-2.5-3.4-5.2-6.5-8.1-9.5c0,0,2.4,1.4-1.4-2.4s-8.2-2.3-6.5-0.9
			s6.5,2.8,7,3.8s8.5,9.6,9.1,10.8s8.2,15.6,9.2,16.1S1241.9,798.7,1241.9,798.7z"/>
		<path class="st48" d="M1239.5,800.8c-0.8-0.5-9.6-10.2-13-11.7s-5.8-3.4-9.6-2.9s-9.1-0.5-9.1-2.4s6.2,0.5,8.2,0.5
			s11,2.6,13.4,4.4s8.8,9,10.4,10.9S1240.5,801.4,1239.5,800.8z"/>
		<path class="st48" d="M1238.1,796.8c0,0-10.1-10.9-12-12.2c-3.3-1.9-6.9-3.3-10.7-4.2c-2.7-0.4-8.5-1.8-7.5-3.5s6.2,1.6,8.2,2.1
			s9,2.6,11.7,5.4s8,8.1,9.4,10S1238.1,796.8,1238.1,796.8z"/>
		<path class="st48" d="M1233.6,788.4c0,0-6.2-9.9-15.7-13.7c0,0-0.2,0.3-2.5-1.3s-8.1-0.8-6.6,0s5.6,1.3,6.6,1.3s6.9,3.3,9.5,5.7
			s12.2,14,12.2,14S1234.9,789.6,1233.6,788.4z"/>
		<path class="st42" d="M1524.1,640.9c0,0-19-9-16.9-15.3s22.1-14.5,24.1-7.9s0,19.6,0,19.6L1524.1,640.9z"/>
		<path class="st42" d="M1524.1,640.9c0,0-25.1-8.5-24.5,3s9.3,19.2,24.5,7.8"/>
		<path class="st42" d="M1536.7,647.6c0,0,16.7-0.4,23.6,4.2s-13,20.7-14.5,16.6s-14.5-13.1-14.5-13.1L1536.7,647.6z"/>
		<path class="st42" d="M1531.3,646.3c0,0,5.8,19.5,0.9,22.7s-23.8,1.2-20.3-5.8s10.4-17,10.4-17L1531.3,646.3z"/>
		<circle class="st43" cx="1531.3" cy="646.3" r="9"/>
		<path class="st42" d="M1531.3,637.3c0,0,3.4-23.3,16.7-21.2s11.3,25.2-7.7,30.2c0.2-1.7-0.1-3.5-1-5
			C1537.6,638.6,1534.5,637.1,1531.3,637.3z"/>
		
			<linearGradient id="SVGID_38_" gradientUnits="userSpaceOnUse" x1="2360.79" y1="1114.1156" x2="2172.1199" y2="780.4955" gradientTransform="matrix(-0.96 -0.61 -0.56 0.88 2870.1001 1372.99)">
			<stop  offset="0" style="stop-color:#A3DB40"/>
			<stop  offset="0.21" style="stop-color:#91CE3C"/>
			<stop  offset="0.73" style="stop-color:#67B034"/>
			<stop  offset="1" style="stop-color:#57A431"/>
		</linearGradient>
		<path class="st49" d="M-34.8,800.2c0.1,1.7,0.2,3.5,0.3,5.2C33.4,849.2,75.3,866.9,89.4,876c-15.8-0.1-34.6-11.2-121.8-37
			c0.1,1.4,0.2,2.8,0.3,4.2c61.1,28.2,121.8,53.7,133.4,58.2c-11.9,1.8-49.7-6.7-131.3-32.5c0.1,0.6,0.1,1.2,0.2,1.9
			c32.1,14.6,59.6,26.9,83.5,37.1c23.8-1.4,47.7-2.5,71.6-2.4c26,0.1,52,1.5,78,2s51.8,0.8,77.7,1c8.3,0,16.6,0.1,24.9,0.1
			c30.1-13.6,64.5-27.5,104.5-33.4c-35.4-8.2-75.6,8-131.2,13.8c30.8-25.1,75.9-26.9,126.6-52.3c-71.7-0.5-104.5,13.5-147.8,27.3
			c45.8-41.2,102.2-55.5,127.2-72.7c-10.7,0-91.4,19.3-144.7,47.5c0.1-7.7,30-51,80.8-105.1c-9.8-0.7-83.4,52.6-108.9,95
			c-7.5-26.3,18.3-87.7,23-129.3c-31.4,25.9-56.6,108-67.8,125.6c-9.7-17.6-30.2-74.5-48.7-142.4c-0.7,88.4,18.8,124.7,31.4,149.4
			c-5.2-1.4-57.7-49.5-129.3-106c58.4,72.5,99,105.9,109.9,115.3c-8.5,1.8-98.6-56.9-163.3-92.7c58.3,44.5,115.4,96.1,144,107.5
			C101.3,857,41.1,833.8-34.8,800.2z"/>
		<path class="st50" d="M463.6,835.6c0,0,15.8-18.3,43.7-21.3c27.9-3,40.3-2.1,40.3-2.1s-51.4,17-65.6,21.9S463.6,835.6,463.6,835.6
			z"/>
		<path class="st50" d="M447.5,845.7c0.5,0.3,3.5,1.7,3.5,1.7s9.6-2.2,22.6,4.8s29.8,23.6,29.8,23.6s-27.5-8.7-35.1-13.2
			c-6.4-3.9-12.6-8.3-18.4-13.1c-1.6-1.2-3.2-2.3-5-3.2C444.9,846.3,444.9,844.2,447.5,845.7z"/>
		<path class="st50" d="M432.4,852.7l5.3,4.3c0,0,4.4-1.1,11.6,6s19.4,39.2,19.4,39.2s-15.5-19.8-19.7-25.8s-11.9-14-12.3-15.5
			c-0.2-1.1-0.2-2.3,0-3.4c0,0-5.2-4.6-5.9-4.7S430.9,851.3,432.4,852.7z"/>
		<path class="st50" d="M417.1,859.8c0,0,6.2,1.3,7.6,2.6c0,0,1.7-1.6,6.8,3.3c8,7.8,22.5,48.9,22.5,48.9s-21.9-32.8-24.1-36.3
			s-6.6-11.8-5.2-14.7c0,0-6.6-3-9.9-2.8S417.1,859.8,417.1,859.8z"/>
		<path class="st50" d="M450.7,842.2c0,0,4.7-5.2,4.5-5.6s5.4-13.3,17.4-26.5s28.2-25.2,28.2-25.2s-37.9,44.9-40.1,47.3
			s-3.5,3.6-4,4.2s-2.5,4.1-3.5,5S450.4,843.3,450.7,842.2z"/>
		<path class="st50" d="M434.2,850c0,0,2.2-6.3,3.1-7.6s10.2-20.6,19-32.2s26-28.1,25.6-27.7s-26.5,36.6-29.9,41.8
			s-11.4,16.2-12.7,17.8c-1.4,1.8-2.5,3.9-3.3,6.1C435.7,849.5,434.2,851.5,434.2,850z"/>
		<path class="st50" d="M438.3,916.6c0,0-19-15.7-24.2-24.3s-6.2-14.8-7.6-16.3s-10.3-5.2-10.3-5.2s-0.2-1.7,1.1-1.4s9.6,4.7,10.4,5
			s8.3,3.6,11.6,7.1S436.3,907.6,438.3,916.6z"/>
		<path class="st50" d="M367,886.1c0,0,7,0.6,9.1,1.6c0,0,15.6-2.9,26.7,6.8s21.9,29.2,21.9,29.2s-28.6-22.6-35.2-27
			s-8.9-3.7-11-5.1s-0.2-0.2-2.1-1.4s-8.4-2.9-11.4-2.7S363.6,885.9,367,886.1z"/>
		<path class="st50" d="M323.2,917c19.6-13.6,35-24.2,40.3-27.6c19.6-12.7,100.3-53,100.3-53l-0.2-0.8c0,0-81.8,39.4-101.4,52.1
			c-5.6,3.6-22,14.8-42.6,28.8L323.2,917z"/>
		<path class="st50" d="M366.6,902.3c1.9,2.4,7.8,6.6,14,11.8c3.5,2.9,13.5,9.4,21.7,14.5l6.8,1c-5.1-6.1-10.7-11.7-16.7-16.8
			c-7.4-5.8-15.9-10.1-25-12.4c-1-0.9-17.2-3.6-17.2-3.6l-2.3,1.7C347.9,898.5,364.7,900,366.6,902.3z"/>
		<path class="st50" d="M420.5,857c0,0,2.4-7.6,3.9-9.6s11.1-28.6,16.7-37.5c4.9-7.7,10.4-15,16.5-21.9c0,0-10.8,18.4-12.4,21.6
			s-17.9,35.1-19.1,37c-0.7,0.8-1.2,1.7-1.6,2.7c-0.5,1.2-2.5,6.5-2.5,7.1S421,857.4,420.5,857z"/>
		<path class="st50" d="M401.8,866.4c0,0,2-8.1,3.6-9.4s13.4-35.8,18.6-44s9.3-14.4,9.3-14.4s-8.8,23-10.3,27.2
			s-13.7,29.5-15.5,31.1s-3.6,7-4.5,9.3C402.9,866.2,402.5,867.6,401.8,866.4z"/>
		<path class="st50" d="M374.6,880.2c2.2-6.4,5.1-12.5,8.7-18.3c2.4-11.9,15.6-28.9,17.9-32.2c4.4-6.3,15.5-21,15.5-21
			s-22.3,39.8-24.2,42.8s-3.8,9.6-6.2,10.9s-6.3,9.1-7.6,11.9s-2,6.3-2.6,6.9S373.3,881.1,374.6,880.2z"/>
		<path class="st50" d="M313.1,915.5c0.2-1.5,0.5-2.9,0.8-4c0.9-3.5,1.8-9.6,4.5-13.8c1.7-2.7,5.3-10.2,7-13.8s16.3-42.2,16.3-42.2
			s-6.6,8.6-7.9,13.1s-10.1,21.2-15.1,32c-3.2,7-6,20.1-7.6,28.5L313.1,915.5z"/>
		<path class="st50" d="M264.4,908.6c3.9-10.3,7.7-20.2,7.7-20.2s-6.6,8.6-7.9,13.1c-0.8,2.3-1.7,4.5-2.8,6.6L264.4,908.6z"/>
		<path class="st50" d="M355.9,892.1c0,0,3.5-14,5-16s16.7-34.1,23.3-42.7L397,817c0,0-11.9,21.9-13.6,24.4s-17.8,32.5-19.6,34.9
			s-2.1,2.2-2.8,3.7s-3.2,10.4-3.4,11S356.4,893,355.9,892.1z"/>
		<path class="st50" d="M288.4,912c4.7-12.7,10.4-28.2,11.3-30.1c1.5-3.2,11.4-26.6,11.4-26.6l-12.4,20.8
			c-3.8,6.3-9.6,22.6-14.1,35.3L288.4,912z"/>
		<path class="st50" d="M336.8,904.6c0,0,3.8-12.2,5.3-15.2s17-42,21-49.3s9.5-15.5,9.5-15.5s-10.1,26.2-11.4,28.8
			s-15.5,35-17.2,36.6s-5.5,13.2-5.7,14.3S335.1,906.8,336.8,904.6z"/>
		<path class="st50" d="M340.7,775.5c5.7-13.9,15-26,27-35c20.1-15,29.6-20.1,29.6-20.1s-34,35.5-43.4,45.6S340.7,775.5,340.7,775.5
			z"/>
		<path class="st50" d="M331.3,790c0.5,0,3.1-0.4,3.1-0.4s6.6-6,18.2-7.1s28.7,2.8,28.7,2.8s-22.9,6.6-29.9,6.9
			c-5.8,0.2-11.6,0-17.3-0.7c-1.5-0.1-3.1-0.1-4.6,0.1C329.6,791.7,329,790.2,331.3,790z"/>
		<path class="st50" d="M321.9,801.9l5.1,0.6c0,0,3-2.8,10.3-1.2s25,18.6,25,18.6s-16.9-6.7-21.7-9s-12.6-4.3-13.4-5.2
			c-0.5-0.7-0.8-1.5-0.9-2.4c0,0-5.1-0.8-5.7-0.5S320.4,801.6,321.9,801.9z"/>
		<path class="st50" d="M312.3,814c0,0,5-2,6.4-1.7c0,0,0.8-1.9,6-0.8c8.1,1.8,29.9,24,29.9,24s-25.2-12.9-27.8-14.4
			s-8.1-5.2-7.9-7.9c0,0-5.7,1-8.1,2.6S312.3,814,312.3,814z"/>
		<path class="st50" d="M332.8,786.1c0,0,2.1-5.8,1.9-6s1.7-12.4,7.2-27.2s8.6-18,8.6-18s-11.9,36.8-12.9,39.6s-1.7,4.1-1.9,4.8
			c-0.3,1.7-0.7,3.4-1.2,5.1C334,785.5,332.9,787,332.8,786.1z"/>
		<path class="st50" d="M322.5,799.2c-0.1-2.3,0.1-4.5,0.3-6.8c0.4-1.4,4-20.1,7.5-32.4s7.3-22.5,7.1-22s-7.3,29.7-8.5,35
			s-4.2,16.6-4.8,18.4c-0.6,1.9-0.9,3.8-0.8,5.8C323.5,798.2,322.9,800.3,322.5,799.2z"/>
		<path class="st50" d="M343.5,844c0,0-18.5-2.2-24.7-5.8s-8.6-7.5-10-8s-9.1,1.1-9.1,1.1s-0.6-1.1,0.4-1.5s8.4-1.2,9.1-1.3
			s7.2-1.3,10.6-0.4S339.5,838.7,343.5,844z"/>
		<path class="st50" d="M281.8,855.6c0,0,5.4-2.8,7.2-3.1c0,0,10.9-9.2,21.8-7.5s24.3,10.4,24.3,10.4s-27.5-2.7-33.6-2.7
			s-7.7,1.5-9.6,1.5s-0.2,0-2,0s-7.1,1.8-9.3,3.3S279.2,857,281.8,855.6z"/>
		<path class="st50" d="M251.5,906.8c14.1-23.6,25.2-42.1,28.5-47.3c11.3-17.9,61-83.5,61-83.5l-0.4-0.5c0,0-50.8,65.4-62,83.3
			c-3.4,5.4-15,24.1-29.6,47.6L251.5,906.8z"/>
		<path class="st50" d="M330.5,868.7c-21.4,0.9-21.3,1.5-31,0.2c-6-0.8-11.6-1.1-13.7-1.8s-15,6-15,6l1.3-2.3c0,0,12.8-5.5,13.8-5.4
			c0,0,10.8-4.1,22.1-2.8S330.5,868.7,330.5,868.7z"/>
		<path class="st50" d="M321.4,880.8c0,0-26,6.2-35.6,5.6s-12.5-1.7-14.8-1.5s-9.4,3.8-9.4,3.8l0.6-2.3c0,0,8.1-2.8,8.8-2.9
			s10.8-4.4,18.8-5.2S317.3,879.3,321.4,880.8z"/>
		<path class="st50" d="M319.8,891.7c0,0-29.3,6-36.3,6.5c-6.5,0.3-12.9-0.1-19.3-1.1c-1.7-0.5-9.8,4.5-9.8,3.5
			c0.1-0.7,0.5-1.4,1.1-1.8c0,0,7.8-4,9-3.9s15.7-3,27.9-4.3S317.9,891.7,319.8,891.7z"/>
		<path class="st50" d="M314.2,810.5c0,0-0.3-6.4,0.3-8.5s2.4-35.6,5.2-44.3s3.8-12.6,3.8-12.6s-3.2,17.9-3.5,20.9s-4,32.9-4.4,34.8
			c-0.3,0.9-0.4,1.8-0.5,2.7c-0.1,1.1-0.1,5.7,0,6.1S314.6,810.5,314.2,810.5z"/>
		<path class="st50" d="M302.6,825.7c0,0-0.7-6.6,0.2-8.3s0.5-31.3,2.2-39.4s3-14.4,3-14.4s-1.5,19.7-1.5,23.3s-1.3,27.6-2.3,29.5
			s-0.9,6.6-0.9,8.6C303.4,825,303.4,826.2,302.6,825.7z"/>
		<path class="st50" d="M285.9,847.9c0,0,0.5-14.3,2.4-23.3s5.5-23.4,5.9-26.7s3.3-11.8,3.3-11.8s-5.2,30.4-5.8,33.5
			s-0.3,8.5-1.7,10.5s-2.3,9.3-2.5,11.9s0.2,5.4-0.1,6.1S285.2,849.1,285.9,847.9z"/>
		<path class="st50" d="M245.7,878.3c-0.7,8.2,1.8,23.1,2.7,28l1.9,0.3c-0.1-1.6-1.3-6.2-1.5-8.7c-0.2-2.9-1.2-7.5-0.3-11.8
			c0.6-2.7,1.2-9.6,1.5-12.9s0.9-37.2,0.9-37.2s-2.7,9.1-2.4,12.9S246.5,868.4,245.7,878.3z"/>
		<path class="st50" d="M275.1,864.9c0,0-1.1-11.5-0.6-13.5s3.4-31.6,6.1-40.7s5.2-17.4,5.2-17.4s-3.2,18.4-3.8,20.9
			s-4.5,33.4-5.2,35.9s-1,2.5-1.1,3.9s0.4,8.8,0.4,9.3S275.7,865.3,275.1,864.9z"/>
		<path class="st50" d="M229.9,903.7c0.1-9.3,0.2-18.6,0.3-20c0.3-2.9,1.4-24,1.4-24s-1.8,9.8-3.7,20.3c-0.9,4.7-1.1,14.1-1.1,23.2
			L229.9,903.7z"/>
		<path class="st50" d="M264.1,882.4c0,0-0.4-10.3-0.1-13.1s1.5-37.3,2.6-44.3s3-15.3,3-15.3s-1.6,22.3-1.9,24.7s-1.2,32.5-2,34.4
			s-0.6,11.8-0.4,12.7S263.4,884.8,264.1,882.4z"/>
		<path class="st50" d="M242.7,710.2c0,0-3.2-21.9,9.2-40.1s19.3-24.8,19.3-24.8s-15.8,41.6-20,53.2S242.7,710.2,242.7,710.2z"/>
		<path class="st50" d="M240.7,726.6c0.4-0.1,2.9-0.8,2.9-0.8s3.6-7.1,14.5-9.7c11-2.6,29.9-0.8,29.9-0.8s-19.5,9.8-26.2,11
			c-5.8,1-11.7,1.5-17.6,1.5c-1.5,0.1-3,0.3-4.5,0.7C239.8,728.4,238.5,727,240.7,726.6z"/>
		<path class="st50" d="M237.3,740.2l5.3-0.1c0,0,1.5-3.3,9.7-2.5c8.1,0.8,34.3,16.2,34.3,16.2s-20.2-4.8-26.1-6.6
			s-14.7-2.9-15.9-3.7c-0.8-0.7-1.6-1.5-2.1-2.4c0,0-5.5-0.2-5.9,0.2S235.7,740,237.3,740.2z"/>
		<path class="st50" d="M233.9,754c0,0,4-2.7,5.5-2.6c0,0-0.2-2.1,5.5-1.6c8.9,0.8,41.8,21.2,41.8,21.2s-31.6-10.2-34.9-11.4
			s-10.7-4.4-11.8-7.3c0,0-5.2,1.7-6.8,3.7S233.9,754,233.9,754z"/>
		<path class="st50" d="M240.2,722.3c0,0-0.8-6.3-1.2-6.6s-4.6-13.2-6.6-29.3s-0.5-19.9-0.5-19.9s6.8,40,7.1,43s0.4,4.5,0.6,5.2
			c0.5,1.8,1,3.6,1.3,5.5C241.1,721.5,240.7,723.2,240.2,722.3z"/>
		<path class="st50" d="M236.6,737.3c0,0-2.8-5.6-3.1-7.1s-6.2-21.5-8.8-34.8s-4.1-24.4-4.1-23.9s7.7,32,9.2,37.6s4.2,17.9,4.5,19.8
			c0.4,2.1,1.1,4.2,2.1,6.2C237.1,736,237.5,738.3,236.6,737.3z"/>
		<path class="st50" d="M280,781.3c0,0-19.5,0.1-27.5-2.9s-12.4-6.7-14-7s-8.5,2.3-8.5,2.3s-1.1-1.1-0.3-1.6s7.8-2.3,8.4-2.6
			s6.5-2.3,10.4-1.7S273.4,776.3,280,781.3z"/>
		<path class="st50" d="M224.5,801.3c0,0,3.9-3.7,5.6-4.2c0,0,6.2-11,17.9-10.6c11.7,0.4,29.4,7.7,29.4,7.7s-28.7,0.8-34.8,1.5
			s-6.9,2.6-8.8,2.8s-0.2,0-2,0.2s-6.1,2.8-7.5,4.7S222.7,803.2,224.5,801.3z"/>
		<path class="st50" d="M214.3,901.5l2.6,0.4c3.1-40.5,6.7-85.6,7.8-96.2c2.2-20.2,18.5-95,18.5-95l-0.6-0.4
			c0,0-17.4,74.8-19.6,94.9C221.9,815.8,217.9,861,214.3,901.5z"/>
		<path class="st50" d="M279.6,808.8c0,0-24.3,4.3-30.7,4.2s-12.1,0.4-14.5-0.1s-11.9,8.1-11.9,8.1l0.1-2.5c0,0,10-7.4,11-7.4
			c6.2-3.7,13.3-5.7,20.5-5.8C266,805.1,279.6,808.8,279.6,808.8z"/>
		<path class="st50" d="M276.7,822.6c0,0-22.7,9.8-32.6,10.4s-13.2-0.1-15.5,0.3s-7.4,5.2-7.4,5.2l-0.5-2.5c0,0,6.6-4,7.2-4.2
			s8.6-6,16-7.9S271.8,821.5,276.7,822.6z"/>
		<path class="st50" d="M280.6,834.2c0,0-26,10-32.8,11.5c-6.5,1.2-13.2,1.6-19.8,1.4c-2-0.3-7.5,6-7.9,5c-0.2-0.7-0.1-1.4,0.2-2
			c0,0,5.7-5.2,7-5.2s14.1-5.1,25.6-8C264.4,833.9,278.7,834.4,280.6,834.2z"/>
		<path class="st50" d="M283.5,847.5c0,0-26,13.1-35.4,14s-17.7-1.2-19.8,0.3s-9.7,7.7-9.7,7.7l-0.5-2.3c0,0,8.1-7,10-7.4
			s5.5-4.2,24.8-8S283.5,847.5,283.5,847.5z"/>
		<path class="st50" d="M216.9,887.6c0,0,7.9-4.2,8.8-4.9s8.8-7,17.3-8.9s34.8-6.7,38.8-7.9c3-0.8,6-1.5,9-1.9
			c0,0-25.1,13.6-38.1,16.7s-24,4.5-25.5,4.5s-9,4.7-9.9,5.4S214.7,888.5,216.9,887.6z"/>
		<path class="st50" d="M250.8,906.7c13.8-3.6,43.8-15,43.8-15s-16.9-0.9-20.9,0.3s-20.8,5.3-29.3,7.2c-4.2,1-8.3,2.6-12,4.9
			L250.8,906.7z"/>
		<path class="st50" d="M233.9,750.1c0,0-3.5-6.7-4-9s-15.6-37.4-17.2-46.9s-2.6-13.7-2.6-13.7s5.9,19.1,7,22.2s12.6,34.9,13.1,36.8
			c0.2,1,0.5,1.9,0.8,2.8c0.5,1.1,2.8,6,3.1,6.4S234.4,750.1,233.9,750.1z"/>
		<path class="st50" d="M230.1,767.5c0,0-4-6.8-4-8.7s-15.3-32.8-17.7-41.4s-4.2-15.4-4.2-15.4s8.5,20.7,10.3,24.5
			s12.6,29,12.6,31.1s2.4,7,3.5,9.1C230.6,766.6,231.2,767.9,230.1,767.5z"/>
		<path class="st50" d="M224.7,792.8c0,0-6.7-15-9.4-24.7s-6.4-25.1-7.7-28.6s-2.7-12.8-2.7-12.8s10.2,32.4,11.1,35.7
			s4,8.9,3.6,11.2s2.5,10,3.5,12.7s2.9,5.6,2.9,6.4S224.6,794.1,224.7,792.8z"/>
		<path class="st50" d="M218.1,860.3c0,0-13.8-20.1-17.9-30.6s-9.9-27.2-12.1-31.1s-4-13.7-4-13.7s16.4,35.4,17.8,38.9
			s4.2,10.9,5,13.7c1.3,4.6,4.6,9.3,6.3,12.3s6.1,8.6,6.1,9.4S217.8,861.7,218.1,860.3z"/>
		<path class="st50" d="M191.8,898.2h0.2l4,0.6l-0.8-2.1c-1.4-3.6-17.8-38.9-17.8-38.9s1.9,9.8,4.1,13.8
			C183.3,874.9,187.9,888,191.8,898.2z"/>
		<path class="st50" d="M222.6,811.9c0,0-6.9-11.8-7.4-14s-12.6-33.5-14.5-43.3s-3.6-18.9-3.6-18.9s6.1,19.6,6.8,22.3
			s12.4,35.4,13,38.2s0.3,2.7,0.9,4.2s4.8,9.1,5.1,9.7S223.4,812.3,222.6,811.9z"/>
		<path class="st50" d="M215.8,897.5c0,0-9.5-12.7-10.3-15.2s-18.8-37.3-22.2-48.5s-6.6-21.7-6.6-21.7s9.5,22.1,10.7,25.2
			s18.8,39.6,19.8,42.8s0.6,3.2,1.5,4.8s6.7,9.9,7.1,10.5S216.8,897.8,215.8,897.5z"/>
		<path class="st50" d="M220.5,831.6c0,0-5.6-10.8-6.7-13.7s-17.3-39.1-19.8-46.6s-4.8-16.3-4.8-16.3s9.6,23.5,10.6,26
			s15.2,34,15.3,36.2s5.3,12.4,6,13.3S221,834.2,220.5,831.6z"/>
		<path class="st51" d="M572.9,733.9L460.4,909.1l-8.9-0.3c0,0,113.5-169.4,116.3-177.1S572.9,733.9,572.9,733.9z"/>
		<path class="st51" d="M500.3,832.2c0,0,16.2-41.4,1.9-59.6c-0.7-0.9-1.5-1.8-2.4-2.6l0.9,0.8C500.7,770.9,487.3,802.7,500.3,832.2
			z"/>
		<path class="st51" d="M500.8,841.2c0,0,55-1.2,65.7-13.8C566.4,827.4,522.5,814.4,500.8,841.2z"/>
		<path class="st42" d="M558.7,717.3l-17.4-36.2c0,0-29.9,11.9-30.7,23.5s37.9,21.3,37.9,21.3L558.7,717.3z"/>
		<path class="st42" d="M567.9,728.3c0,0,35.8-2.6,36.3-14.8s-26-39.7-33.3-29.7s-12.2,33.5-12.2,33.5L567.9,728.3z"/>
		<path class="st42" d="M567.9,728.3c0,0,45.1,2.5,37,21.5s-26.7,26.6-43.7-3.1"/>
		<path class="st42" d="M543.8,731.2c0,0-26.1-11.9-40-8.8s7.7,44.2,12.6,38.2s31.1-12.6,31.1-12.6L543.8,731.2z"/>
		<path class="st42" d="M553.1,732.7c0,0-21.3,29.4-15.6,38.3s37,18,35.8,3.8s-6-36-6-36L553.1,732.7z"/>
		<ellipse class="st43" cx="553.1" cy="732.7" rx="15.3" ry="16.5"/>
		<path class="st51" d="M387,680.7l12,254l11,6.6c0,0-17.3-249.2-15.2-258.7S387,680.7,387,680.7z"/>
		<path class="st51" d="M405.2,830.5c0,0,9.8-52,40.2-58.4c1.6-0.3,3.2-0.5,4.8-0.6l-1.6,0.1C448.5,771.6,442.1,812.3,405.2,830.5z"
			/>
		<path class="st51" d="M398.2,838.8c0,0-66.1-43.5-70.1-63.7C328.1,775.1,390.9,796.4,398.2,838.8z"/>
		<path class="st52" d="M416.1,675.8l47.1-21.2c0,0,27.9,34.3,20.6,46.1s-61.4-8.8-61.4-8.8L416.1,675.8z"/>
		<path class="st52" d="M397.1,679.2c0,0-41.6-30-33.7-42.1s59.9-17.9,61.7-2.8s-9,41.4-9,41.4L397.1,679.2z"/>
		<path class="st52" d="M397.1,679.2c0,0-56.7-32.4-60.3-7.8s13.5,45.9,55.4,30.6"/>
		<path class="st52" d="M424.4,700.6c0,0,40.3,8.7,55,22.4s-40.9,36.3-42.6,26.8s-28.9-36-28.9-36L424.4,700.6z"/>
		<path class="st52" d="M412,694.8c0,0,5,44.5-8.3,48.5s-57.8-11.2-46.3-23.9s33-29.8,33-29.8L412,694.8z"/>
		
			<ellipse transform="matrix(0.2952 -0.9554 0.9554 0.2952 -373.495 883.324)" class="st43" cx="412" cy="694.8" rx="19.4" ry="22.3"/>
		<path class="st53" d="M77.4,924.4c-18.8,2.1-9-175.7,5.6-227.2C98.9,775.1,121.1,919.5,77.4,924.4z"/>
		<path class="st53" d="M93.7,938.4c0.7-3.5-91.9-264.1-100.9-279.1C26.9,704.5,125,911.8,94.4,934.9L93.7,938.4z"/>
		<path class="st53" d="M123.7,951C87,956.8-44.2,723.6-58.6,679.6C16,748.7,132.2,949.7,123.7,951z"/>
		<path class="st53" d="M118.9,952.3c6.8,0,13.7,0.1,20.5,0.2c17.7-40.6,6.3-159.3,0.9-256.5c-24.9,3.6-37.4,201-23.8,256.3
			C117.3,952.3,118.1,952.3,118.9,952.3z"/>
		<path class="st53" d="M118.9,952.3c2,0,4.1,0,6.1,0c-11.9-76.8-77-286.7-99.5-314.6c-5.7,17.7,58.4,253.1,75.3,314.7
			C106.8,952.3,112.8,952.3,118.9,952.3z"/>
		<path class="st53" d="M62.5,953.5c8.9-0.4,17.8-0.6,26.7-0.9c-36-33.2-104.6-82.6-186.6-132.1c0.4,7.9,0.9,15.8,1.4,23.7
			C-33.2,887.2,23.6,926.5,62.5,953.5z"/>
		<path class="st53" d="M78.8,952.9c11.9-0.4,23.7-0.6,35.6-0.6C74.1,897.3-11.7,809-100.3,739.2c0.2,9.5,0.4,19.1,0.7,28.6
			C-40.8,833.3,30.6,907,78.8,952.9z"/>
		<path class="st53" d="M-25.2,926.4c27.3,13.5,44.3,20.2,63,28.3c12.7-0.7,25.3-1.3,38-1.7c-57-35.6-143.7-87.4-153.1-89.2
			c-3.4-0.7-9.8-1-17.4-1c0.7,10,1.5,20,2.4,29.9C-76.1,901-54.4,912-25.2,926.4z"/>
		<path class="st53" d="M130,941.6c18.3,8.5,39.1-178.8,36.5-233.3C132.3,777.8,87.3,921.9,130,941.6z"/>
		<path class="st53" d="M165.1,953.2c14.7-42.3,87.5-231.8,95.5-243c-32.3,34.2-121.6,201-102,242.8L165.1,953.2z"/>
		<path class="st53" d="M171.8,953.4c48.5-39.1,129.4-194.1,134-229.4c-54,47.1-140.6,191.3-155.3,228.8
			C157.6,953,164.7,953.2,171.8,953.4z"/>
		<path class="st53" d="M118.9,952.3c4.1,0,8.1,0,12.2,0.1c12.2-56.2-6.5-279.4-31.7-290.8c-2.5,111.3-11.1,246.7,11.9,290.7
			C113.8,952.3,116.3,952.3,118.9,952.3z"/>
		<path class="st53" d="M148.5,952.7c19.1-67,75.3-267.5,69.7-285.9c-22,21.6-84.1,210.8-96,285.5
			C130.9,952.4,139.7,952.5,148.5,952.7z"/>
		<path class="st53" d="M193.3,954.1c75.6-45.5,156.2-82.3,240.1-109.7C292.3,865.8,198.6,915.2,156.7,953
			C168.9,953.3,181.1,953.7,193.3,954.1z"/>
		<path class="st53" d="M191.1,954.1c67.2-48.5,163.5-126.5,216.9-178.8c-104.9,40.5-216,123.7-269.8,177.3
			C155.9,952.8,173.5,953.5,191.1,954.1z"/>
		<path class="st53" d="M102.9,952.4c5.3-0.1,10.7-0.1,16-0.1c2.3,0,4.6,0,6.9,0c5.4-34.4,11-99.7-14.5-142.3
			c0,0-35.1,83.8-16.8,124.8C97.5,941.9,100.3,947.6,102.9,952.4z"/>
		<path class="st53" d="M49.8,931.9c9.5,8,18.2,15,26.1,21.1c10.4-0.3,20.8-0.6,31.2-0.7c-22-46.8-72.4-132.7-157.9-177.5
			C-50.7,774.9,6.8,895.9,49.8,931.9z"/>
		<path class="st53" d="M110.1,952.3c1.4-2,1.8-1.7,1.8,0c2.3,0,4.7,0,7,0c9.5,0,18.9,0.2,28.4,0.4
			c40.4-61.5,107.5-200.5,68.6-155.2C167.1,854.2,110.8,951.1,110.1,952.3L110.1,952.3z"/>
		<path class="st53" d="M224.5,955l10.9,0.2c82.4-26,189.2-64.2,230.2-77.4C328.1,891.3,232.5,928,180,953.7
			C194.9,954.2,209.7,954.7,224.5,955z"/>
		<path class="st51" d="M672.7,759l-22.2,151.6l-5.8,2.8c0,0,24.5-148.2,24.1-154.1S672.7,759,672.7,759z"/>
		<path class="st51" d="M654.1,847.3c0,0-1.5-32.3-16.1-39.3c-0.7-0.4-1.5-0.7-2.3-0.9c-16.7-4.5,0.8,0.2,0.8,0.2
			S637.1,832.5,654.1,847.3z"/>
		<path class="st51" d="M657,853c0,0,35.3-19.3,38.6-31.1C695.6,821.9,663.3,828.2,657,853z"/>
		<path class="st54" d="M658.7,753l-21.8-17.6c0,0-16,17.8-13.1,25.6s30.8,1,30.8,1L658.7,753z"/>
		<path class="st54" d="M667.8,757.1c0,0,22.5-13.8,19.3-21.9s-28.4-17-30.2-8.1s1.8,25.9,1.8,25.9L667.8,757.1z"/>
		<path class="st54" d="M667.8,757.1c0,0,30-13.6,30.2,1.5s-9.6,26.2-29.2,12.7"/>
		<path class="st54" d="M653,767.1c0,0-20.4,1.1-28.5,7.8s17.8,26.1,19.3,20.5s16.6-18.7,16.6-18.7L653,767.1z"/>
		<path class="st54" d="M659.5,764.9c0,0-5.3,26.3,1,30.1s29.2-0.8,24.3-9.6S670.5,764,670.5,764L659.5,764.9z"/>
		<ellipse class="st43" cx="659.5" cy="764.9" rx="11" ry="11.9"/>
	</g>
</g>
</svg>
