<svg id="a9535c91-e49c-4c51-9fb2-69cc8eebe2d8" data-name="Layer 1" xmlns="http://www.w3.org/2000/svg" width="260" height="462.86" viewBox="0 0 260 462.86">
  <defs>
    <style>
      .afa7377c-85bd-4ff0-b1af-ac726cf58c6a {
        fill: #f4406f;
      }
    </style>
  </defs>
  <path class="afa7377c-85bd-4ff0-b1af-ac726cf58c6a" d="M215.46,437.68C181.61,456.39,131.58,460.6,89.32,412c0,0-21.09-25.23-21.09-61.81V260H40.48a29.16,29.16,0,0,1,0-58.31H68.23V41.05a28.94,28.94,0,0,1,57.88,0V201.71H156A29.16,29.16,0,1,1,156,260H126.11v90.21s2.38,40.78,41.35,45.69c0,0,19.62,2.8,26.91-10.51s12.19-28.88,39.24-22.15S249.31,419,215.46,437.68Z"/>
</svg>
