<svg id="a3a68c6e-96ea-4a68-844b-edac08487f84" data-name="Layer 1" xmlns="http://www.w3.org/2000/svg" width="260" height="462.86" viewBox="0 0 260 462.86">
  <defs>
    <style>
      .bfc243bb-9ba7-4f07-bc44-71afe5e875ba {
        fill: #f4406f;
      }
    </style>
  </defs>
  <path class="bfc243bb-9ba7-4f07-bc44-71afe5e875ba" d="M233.61,363.26c-27.05-6.73-32,8.83-39.24,22.15s-26.91,10.51-26.91,10.51c-39-4.91-41.35-45.69-41.35-45.69V260h.14V201.71h-.14V41.05a28.94,28.94,0,0,0-57.88,0V201.71h-.47v54.4A20.91,20.91,0,0,1,67.4,260h.83v90.21c0,36.58,21.09,61.81,21.09,61.81,42.26,48.56,92.29,44.35,126.14,25.64S260.66,370,233.61,363.26Z"/>
</svg>
