<svg id="bbe6f769-d582-4355-9025-7e037e7721e8" data-name="Layer 1" xmlns="http://www.w3.org/2000/svg" width="260" height="462.86" viewBox="0 0 260 462.86">
  <defs>
    <style>
      .b8d11913-a3de-4815-94cd-88d6112f3b80 {
        fill: #ff0;
      }
    </style>
  </defs>
  <path class="b8d11913-a3de-4815-94cd-88d6112f3b80" d="M256.34,380c-1.67-12.7-9.25-21.63-20.8-24.5a56.51,56.51,0,0,0-13.69-1.86c-19.89,0-27.2,14-32.54,24.22-.65,1.24-1.29,2.48-2,3.71-3.14,5.74-11.1,6.59-15.56,6.59a28.75,28.75,0,0,1-3.2-.16l-.13,0c-30.86-3.88-34.11-35.06-34.35-38V268H156a37.16,37.16,0,0,0,0-74.31H134.11V41.05a36.94,36.94,0,0,0-73.88,0V193.71H40.48a37.16,37.16,0,0,0,0,74.31H60.23v82.21c0,39,22,65.82,23,66.94l.11.12c23.6,27.12,52.37,41.46,83.21,41.46a109.76,109.76,0,0,0,52.83-14.06C245.88,430,259,400.27,256.34,380Zm-40.88,57.68C181.61,456.39,131.58,460.6,89.32,412c0,0-21.09-25.23-21.09-61.81V260H40.48a29.16,29.16,0,0,1,0-58.31H68.23V41.05a28.94,28.94,0,0,1,57.88,0V201.71H156A29.16,29.16,0,1,1,156,260H126.11v90.21s2.38,40.78,41.35,45.69c0,0,19.62,2.8,26.91-10.51s12.19-28.88,39.24-22.15S249.31,419,215.46,437.68Z"/>
</svg>
