<svg id="e8f0a465-41ae-4f02-8490-379a72acf3df" data-name="Layer 1" xmlns="http://www.w3.org/2000/svg" width="260" height="462.86" viewBox="0 0 260 462.86">
  <defs>
    <style>
      .a9c4464f-ca8a-495b-ba56-f9730b584855 {
        fill: #3b3be0;
      }
    </style>
  </defs>
  <path class="a9c4464f-ca8a-495b-ba56-f9730b584855" d="M215.46,437.68C181.61,456.39,131.58,460.6,89.32,412c0,0-21.09-25.23-21.09-61.81V260H40.48a29.16,29.16,0,0,1,0-58.31H68.23V41.05a28.94,28.94,0,0,1,57.88,0V201.71H156A29.16,29.16,0,1,1,156,260H126.11v90.21s2.38,40.78,41.35,45.69c0,0,19.62,2.8,26.91-10.51s12.19-28.88,39.24-22.15S249.31,419,215.46,437.68Z"/>
</svg>
