<svg id="e32188a3-d227-4eba-be24-91a3bfc84a44" data-name="Layer 1" xmlns="http://www.w3.org/2000/svg" width="260" height="462.86" viewBox="0 0 260 462.86">
  <defs>
    <style>
      .e60e6af6-c71d-482e-a264-e718c669206b {
        fill: #999;
      }
    </style>
  </defs>
  <path class="e60e6af6-c71d-482e-a264-e718c669206b" d="M215.46,437.68C181.61,456.39,131.58,460.6,89.32,412c0,0-21.09-25.23-21.09-61.81V260H40.48a29.16,29.16,0,0,1,0-58.31H68.23V41.05a28.94,28.94,0,0,1,57.88,0V201.71H156A29.16,29.16,0,1,1,156,260H126.11v90.21s2.38,40.78,41.35,45.69c0,0,19.62,2.8,26.91-10.51s12.19-28.88,39.24-22.15S249.31,419,215.46,437.68Z"/>
</svg>
